<?xml version="1.0" encoding="UTF-8" standalone="no"?>
<!DOCTYPE svg PUBLIC "-//W3C//DTD SVG 1.1//EN"
 "http://www.w3.org/Graphics/SVG/1.1/DTD/svg11.dtd">
<!-- Generated by graphviz version 2.40.1 (20161225.0304)
 -->
<!-- Title: a_graph Pages: 1 -->
<svg width="2833pt" height="119pt"
 viewBox="0.00 0.00 2833.00 119.00" xmlns="http://www.w3.org/2000/svg" xmlns:xlink="http://www.w3.org/1999/xlink">
<g id="graph0" class="graph" transform="scale(1 1) rotate(0) translate(4 115)">
<title>a_graph</title>
<polygon fill="#ffffff" stroke="transparent" points="-4,4 -4,-115 2829,-115 2829,4 -4,4"/>
<!-- T15795 -->
<g id="node1" class="node">
<title>T15795</title>
<polygon fill="none" stroke="#0058ad" points="0,-81.5 0,-110.5 2825,-110.5 2825,-81.5 0,-81.5"/>
<text text-anchor="middle" x="528" y="-92.3" font-family="Times,serif" font-size="14.00" fill="#0058ad">r 82 [1 2 3 6 7 8 9 4 5 10 11 13 14 15 16 17 18 19 20 22 23 21 26 27 28 29 31 32 30 33 34 35 36 37 38 39 40 41 12 42 48 43 45 46 50 51 52 53 56 57 58 59 60 63 65 66 67 64 68 70 71 72]</text>
<polyline fill="none" stroke="#0058ad" points="1056,-81.5 1056,-110.5 "/>
<text text-anchor="middle" x="1384" y="-92.3" font-family="Times,serif" font-size="14.00" fill="#0058ad">r 81 [3 4 5 6 8 9 10 11 12 7 13 14 15 16 17 19 20 21 22 23 24 25 26 28 27 30 32 33 34 36 37 38 41 42 43 44 45 46]</text>
<polyline fill="none" stroke="#0058ad" points="1712,-81.5 1712,-110.5 "/>
<text text-anchor="middle" x="2240" y="-92.3" font-family="Times,serif" font-size="14.00" fill="#0058ad">r 82 [1 2 3 6 7 8 9 4 5 10 11 13 14 15 16 17 18 19 20 22 23 21 26 27 28 29 31 32 30 33 34 35 36 37 38 39 40 41 12 42 48 43 45 46 50 51 52 53 56 57 58 59 60 63 65 66 67 64 68 70 71 72]</text>
<polyline fill="none" stroke="#0058ad" points="2768,-81.5 2768,-110.5 "/>
<text text-anchor="middle" x="2796.5" y="-92.3" font-family="Times,serif" font-size="14.00" fill="#0058ad">a 80 46</text>
</g>
<!-- T15791 -->
<g id="node2" class="node">
<title>T15791</title>
<polygon fill="none" stroke="#0058ad" points="1235.5,-.5 1235.5,-29.5 2627.5,-29.5 2627.5,-.5 1235.5,-.5"/>
<text text-anchor="middle" x="1566.5" y="-11.3" font-family="Times,serif" font-size="14.00" fill="#0058ad">r 80 [4 7 5 6 8 10 11 9 12 13 14 15 17 18 20 21 22 23 24 25 26 28 29 30 31 27 32 33 35 36 38 37 39 40 42 43 44 45]</text>
<polyline fill="none" stroke="#0058ad" points="1897.5,-.5 1897.5,-29.5 "/>
<text text-anchor="middle" x="1926" y="-11.3" font-family="Times,serif" font-size="14.00" fill="#0058ad">a 81 47</text>
<polyline fill="none" stroke="#0058ad" points="1954.5,-.5 1954.5,-29.5 "/>
<text text-anchor="middle" x="2291" y="-11.3" font-family="Times,serif" font-size="14.00" fill="#0058ad">r 81 [3 4 5 6 8 9 10 11 12 7 13 14 15 16 17 19 20 21 22 23 24 25 26 28 27 30 32 33 34 36 37 38 41 42 43 44 45 46 47]</text>
</g>
<!-- T15795&#45;&gt;T15791 -->
<g id="edge1" class="edge">
<title>T15795:f1&#45;&gt;T15791:f1</title>
<path fill="none" stroke="#5b00c0" d="M1383.5,-81C1383.5,157.4087 1909.7374,-259.415 1925.1545,-40.2025"/>
<polygon fill="#5b00c0" stroke="#5b00c0" points="1928.6595,-40.1128 1925.5,-30 1921.6635,-39.8758 1928.6595,-40.1128"/>
<text text-anchor="middle" x="1931" y="-51.8" font-family="Times,serif" font-size="14.00" fill="#5b00c0">rw</text>
</g>
<!-- T15791&#45;&gt;T15795 -->
<g id="edge2" class="edge">
<title>T15791:f0&#45;&gt;T15795:f3</title>
<path fill="none" stroke="#5b00c0" d="M1566.5,-30C1566.5,-38.0982 2670.194,-68.9459 2786.5992,-79.4434"/>
<polygon fill="#5b00c0" stroke="#5b00c0" points="2786.0777,-82.9044 2796.5,-81 2787.1649,-75.9893 2786.0777,-82.9044"/>
<text text-anchor="middle" x="2371" y="-51.8" font-family="Times,serif" font-size="14.00" fill="#5b00c0">rw</text>
</g>
</g>
</svg>
