<?xml version="1.0" encoding="UTF-8" standalone="no"?>
<!DOCTYPE svg PUBLIC "-//W3C//DTD SVG 1.1//EN"
 "http://www.w3.org/Graphics/SVG/1.1/DTD/svg11.dtd">
<!-- Generated by graphviz version 2.40.1 (20161225.0304)
 -->
<!-- Title: a_graph Pages: 1 -->
<svg width="2514pt" height="200pt"
 viewBox="0.00 0.00 2513.50 200.00" xmlns="http://www.w3.org/2000/svg" xmlns:xlink="http://www.w3.org/1999/xlink">
<g id="graph0" class="graph" transform="scale(1 1) rotate(0) translate(4 196)">
<title>a_graph</title>
<polygon fill="#ffffff" stroke="transparent" points="-4,4 -4,-196 2509.5,-196 2509.5,4 -4,4"/>
<!-- T19341 -->
<g id="node1" class="node">
<title>T19341</title>
<polygon fill="none" stroke="#0058ad" points="0,-162.5 0,-191.5 1996,-191.5 1996,-162.5 0,-162.5"/>
<text text-anchor="middle" x="32" y="-173.3" font-family="Times,serif" font-size="14.00" fill="#0058ad">a 84 115</text>
<polyline fill="none" stroke="#0058ad" points="64,-162.5 64,-191.5 "/>
<text text-anchor="middle" x="92.5" y="-173.3" font-family="Times,serif" font-size="14.00" fill="#0058ad">a 99 37</text>
<polyline fill="none" stroke="#0058ad" points="121,-162.5 121,-191.5 "/>
<text text-anchor="middle" x="1058.5" y="-173.3" font-family="Times,serif" font-size="14.00" fill="#0058ad">r 96 [1 3 4 5 6 7 9 10 11 12 14 13 15 16 17 18 19 20 21 22 24 25 23 26 27 28 30 31 32 33 29 34 35 36 37 38 39 41 42 44 40 43 45 46 47 49 50 51 52 53 55 56 54 59 57 62 60 61 63 64 66 65 67 68 69 70 72 73 74 75 76 77 78 80 81 82 83 86 87 88 89 90 85 91 92 93 94 95 96 97 100 101 98 99 102 103 105 107 106 104 108 109 111 110]</text>
</g>
<!-- T19345 -->
<g id="node2" class="node">
<title>T19345</title>
<polygon fill="none" stroke="#0058ad" points="966.5,-.5 966.5,-29.5 2505.5,-29.5 2505.5,-.5 966.5,-.5"/>
<text text-anchor="middle" x="998.5" y="-11.3" font-family="Times,serif" font-size="14.00" fill="#0058ad">a 96 113</text>
<polyline fill="none" stroke="#0058ad" points="1030.5,-.5 1030.5,-29.5 "/>
<text text-anchor="middle" x="1062.5" y="-11.3" font-family="Times,serif" font-size="14.00" fill="#0058ad">a 96 114</text>
<polyline fill="none" stroke="#0058ad" points="1094.5,-.5 1094.5,-29.5 "/>
<text text-anchor="middle" x="1393" y="-11.3" font-family="Times,serif" font-size="14.00" fill="#0058ad">r 99 [1 3 6 7 8 5 9 4 10 11 12 13 14 15 16 17 18 19 20 21 22 23 24 26 27 25 28 29 30 32 33 31 35 36 34]</text>
<polyline fill="none" stroke="#0058ad" points="1691.5,-.5 1691.5,-29.5 "/>
<text text-anchor="middle" x="2098.5" y="-11.3" font-family="Times,serif" font-size="14.00" fill="#0058ad">r 68 [1 2 3 4 24 25 26 27 28 29 30 32 33 34 35 37 38 39 40 41 42 43 44 45 46 47 48 49 50 51 54 55 56 57 58 59 61 62 63 65 66 67 68 69 70 71]</text>
</g>
<!-- T19341&#45;&gt;T19345 -->
<g id="edge1" class="edge">
<title>T19341:f2&#45;&gt;T19345:f0</title>
<path fill="none" stroke="#5b00c0" d="M1996,-177C2017.8314,-177 2066.4232,-152.3624 1945,-81 1901.8833,-55.6596 1087.3586,-79.9467 1004.7446,-37.4172"/>
<polygon fill="#5b00c0" stroke="#5b00c0" points="1007.3172,-35.0439 998,-30 1002.1382,-39.7533 1007.3172,-35.0439"/>
<text text-anchor="middle" x="1997.5" y="-92.3" font-family="Times,serif" font-size="14.00" fill="#5b00c0">rw</text>
</g>
<!-- T19343 -->
<g id="node3" class="node">
<title>T19343</title>
<polygon fill="none" stroke="#0058ad" points="60.5,-81.5 60.5,-110.5 1935.5,-110.5 1935.5,-81.5 60.5,-81.5"/>
<text text-anchor="middle" x="998" y="-92.3" font-family="Times,serif" font-size="14.00" fill="#0058ad">r 96 [1 3 4 5 6 7 9 10 11 12 14 13 15 16 17 18 19 20 21 22 24 25 23 26 27 28 30 31 32 33 29 34 35 36 37 38 39 41 42 44 40 43 45 46 47 49 50 51 52 53 55 56 54 59 57 62 60 61 63 64 66 65 67 68 69 70 72 73 74 75 76 77 78 80 81 82 83 86 87 88 89 90 85 91 92 93 94 95 96 97 100 101 98 99 102 103 105 107 106 104 108 109 111 110]</text>
</g>
<!-- T19341&#45;&gt;T19343 -->
<g id="edge2" class="edge">
<title>T19341&#45;&gt;T19343</title>
<path fill="none" stroke="#0050c0" d="M998,-162.1434C998,-150.6112 998,-134.3668 998,-120.8626"/>
<polygon fill="#0050c0" stroke="#0050c0" points="1001.5001,-120.7624 998,-110.7625 994.5001,-120.7625 1001.5001,-120.7624"/>
<text text-anchor="middle" x="1002.5" y="-132.8" font-family="Times,serif" font-size="14.00" fill="#0050c0">rt</text>
</g>
<!-- T19345&#45;&gt;T19341 -->
<g id="edge3" class="edge">
<title>T19345:f2&#45;&gt;T19341:f1</title>
<path fill="none" stroke="#5b00c0" d="M1393,-30C1393,-113.8767 1100.7592,-58.5605 1017,-63 989.8114,-64.4411 56.0747,-61.5718 37,-81 27.6589,-90.5143 31.6662,-98.78 37,-111 48.773,-137.9723 82.624,-131.088 90.3961,-152.0403"/>
<polygon fill="#5b00c0" stroke="#5b00c0" points="86.9546,-152.6837 92,-162 93.8655,-151.5707 86.9546,-152.6837"/>
<text text-anchor="middle" x="44.5" y="-92.3" font-family="Times,serif" font-size="14.00" fill="#5b00c0">rw</text>
</g>
<!-- T19343&#45;&gt;T19345 -->
<g id="edge4" class="edge">
<title>T19343:f0&#45;&gt;T19345:f0</title>
<path fill="none" stroke="#5b00c0" d="M998,-81.3204C998,-70.4532 998,-55.0147 998,-40.1425"/>
<polygon fill="#5b00c0" stroke="#5b00c0" points="1001.5001,-40 998,-30 994.5001,-40 1001.5001,-40"/>
<text text-anchor="middle" x="1005.5" y="-51.8" font-family="Times,serif" font-size="14.00" fill="#5b00c0">rw</text>
</g>
</g>
</svg>
