<?xml version="1.0" encoding="UTF-8" standalone="no"?>
<!DOCTYPE svg PUBLIC "-//W3C//DTD SVG 1.1//EN"
 "http://www.w3.org/Graphics/SVG/1.1/DTD/svg11.dtd">
<!-- Generated by graphviz version 2.40.1 (20161225.0304)
 -->
<!-- Title: a_graph Pages: 1 -->
<svg width="2429pt" height="200pt"
 viewBox="0.00 0.00 2428.50 200.00" xmlns="http://www.w3.org/2000/svg" xmlns:xlink="http://www.w3.org/1999/xlink">
<g id="graph0" class="graph" transform="scale(1 1) rotate(0) translate(4 196)">
<title>a_graph</title>
<polygon fill="#ffffff" stroke="transparent" points="-4,4 -4,-196 2424.5,-196 2424.5,4 -4,4"/>
<!-- T6621 -->
<g id="node1" class="node">
<title>T6621</title>
<polygon fill="none" stroke="#0058ad" points="0,-162.5 0,-191.5 1551,-191.5 1551,-162.5 0,-162.5"/>
<text text-anchor="middle" x="28.5" y="-173.3" font-family="Times,serif" font-size="14.00" fill="#0058ad">a 37 32</text>
<polyline fill="none" stroke="#0058ad" points="57,-162.5 57,-191.5 "/>
<text text-anchor="middle" x="804" y="-173.3" font-family="Times,serif" font-size="14.00" fill="#0058ad">r 31 [1 2 3 4 5 6 7 8 12 13 11 14 15 16 17 18 19 20 21 22 24 23 25 27 28 29 26 30 31 32 33 34 35 36 37 39 41 40 42 43 44 45 46 47 48 49 50 52 53 54 51 55 56 57 58 59 60 61 65 66 67 68 69 71 70 72 74 75 76 77 78 79 80 81 82 83 84 85 86 87 88 90 89 91 92 93 94]</text>
</g>
<!-- T6619 -->
<g id="node2" class="node">
<title>T6619</title>
<polygon fill="none" stroke="#0058ad" points="332.5,-81.5 332.5,-110.5 2420.5,-110.5 2420.5,-81.5 332.5,-81.5"/>
<text text-anchor="middle" x="361" y="-92.3" font-family="Times,serif" font-size="14.00" fill="#0058ad">a 31 95</text>
<polyline fill="none" stroke="#0058ad" points="389.5,-81.5 389.5,-110.5 "/>
<text text-anchor="middle" x="418" y="-92.3" font-family="Times,serif" font-size="14.00" fill="#0058ad">a 36 92</text>
<polyline fill="none" stroke="#0058ad" points="446.5,-81.5 446.5,-110.5 "/>
<text text-anchor="middle" x="690" y="-92.3" font-family="Times,serif" font-size="14.00" fill="#0058ad">r 37 [1 2 3 4 5 7 6 8 9 11 10 14 12 13 16 17 15 19 20 21 22 18 23 24 25 26 27 28 29]</text>
<polyline fill="none" stroke="#0058ad" points="933.5,-81.5 933.5,-110.5 "/>
<text text-anchor="middle" x="1677" y="-92.3" font-family="Times,serif" font-size="14.00" fill="#0058ad">r 36 [1 2 3 5 4 6 7 8 9 10 12 13 11 14 15 18 23 24 25 22 27 28 29 26 30 31 32 33 35 34 36 37 38 39 40 41 42 44 45 46 47 48 43 49 50 51 52 53 56 54 55 57 59 60 61 58 62 63 64 65 66 67 68 71 72 73 69 70 74 75 76 77 78 80 81 82 83 84 85 86 87 88 89 79 90 91 92]</text>
</g>
<!-- T6621&#45;&gt;T6619 -->
<g id="edge1" class="edge">
<title>T6621:f1&#45;&gt;T6619:f0</title>
<path fill="none" stroke="#5b00c0" d="M804.5,-162C804.5,33.0423 376.398,-297.2973 360.9295,-121.2385"/>
<polygon fill="#5b00c0" stroke="#5b00c0" points="364.4162,-120.8445 360.5,-111 357.4223,-121.1379 364.4162,-120.8445"/>
<text text-anchor="middle" x="809" y="-132.8" font-family="Times,serif" font-size="14.00" fill="#5b00c0">rw</text>
</g>
<!-- T6617 -->
<g id="node3" class="node">
<title>T6617</title>
<polygon fill="none" stroke="#0058ad" points="167.5,-.5 167.5,-29.5 281.5,-29.5 281.5,-.5 167.5,-.5"/>
<text text-anchor="middle" x="196" y="-11.3" font-family="Times,serif" font-size="14.00" fill="#0058ad">a 37 30</text>
<polyline fill="none" stroke="#0058ad" points="224.5,-.5 224.5,-29.5 "/>
<text text-anchor="middle" x="253" y="-11.3" font-family="Times,serif" font-size="14.00" fill="#0058ad">a 37 31</text>
</g>
<!-- T6619&#45;&gt;T6617 -->
<g id="edge2" class="edge">
<title>T6619:f2&#45;&gt;T6617:f0</title>
<path fill="none" stroke="#5b00c0" d="M689.5,-81C689.5,136.1659 211.2917,-238.2985 195.8806,-40.1988"/>
<polygon fill="#5b00c0" stroke="#5b00c0" points="199.3706,-39.8625 195.5,-30 192.3755,-40.1236 199.3706,-39.8625"/>
<text text-anchor="middle" x="694" y="-51.8" font-family="Times,serif" font-size="14.00" fill="#5b00c0">rw</text>
</g>
<!-- T6617&#45;&gt;T6621 -->
<g id="edge3" class="edge">
<title>T6617:f1&#45;&gt;T6621:f0</title>
<path fill="none" stroke="#c02700" d="M253.5,-30C253.5,-57.8408 218.593,-35.9397 193.5,-48 116.4582,-85.0282 35.4377,-73.9054 28.9211,-151.5408"/>
<polygon fill="#c02700" stroke="#c02700" points="25.4053,-151.8673 28.5,-162 32.3996,-152.1489 25.4053,-151.8673"/>
<text text-anchor="middle" x="103.5" y="-92.3" font-family="Times,serif" font-size="14.00" fill="#c02700">ww</text>
</g>
</g>
</svg>
