<?xml version="1.0" encoding="UTF-8" standalone="no"?>
<!DOCTYPE svg PUBLIC "-//W3C//DTD SVG 1.1//EN"
 "http://www.w3.org/Graphics/SVG/1.1/DTD/svg11.dtd">
<!-- Generated by graphviz version 2.40.1 (20161225.0304)
 -->
<!-- Title: a_graph Pages: 1 -->
<svg width="1810pt" height="119pt"
 viewBox="0.00 0.00 1810.00 119.00" xmlns="http://www.w3.org/2000/svg" xmlns:xlink="http://www.w3.org/1999/xlink">
<g id="graph0" class="graph" transform="scale(1 1) rotate(0) translate(4 115)">
<title>a_graph</title>
<polygon fill="#ffffff" stroke="transparent" points="-4,4 -4,-115 1806,-115 1806,4 -4,4"/>
<!-- T417 -->
<g id="node1" class="node">
<title>T417</title>
<polygon fill="none" stroke="#0058ad" points="57.5,-81.5 57.5,-110.5 578.5,-110.5 578.5,-81.5 57.5,-81.5"/>
<text text-anchor="middle" x="82.5" y="-92.3" font-family="Times,serif" font-size="14.00" fill="#0058ad">a 8 69</text>
<polyline fill="none" stroke="#0058ad" points="107.5,-81.5 107.5,-110.5 "/>
<text text-anchor="middle" x="271.5" y="-92.3" font-family="Times,serif" font-size="14.00" fill="#0058ad">r 10 [2 3 5 6 7 8 9 10 11 12 13 14 15 17 18 16 19 20 21]</text>
<polyline fill="none" stroke="#0058ad" points="435.5,-81.5 435.5,-110.5 "/>
<text text-anchor="middle" x="460.5" y="-92.3" font-family="Times,serif" font-size="14.00" fill="#0058ad">a 7 33</text>
<polyline fill="none" stroke="#0058ad" points="485.5,-81.5 485.5,-110.5 "/>
<text text-anchor="middle" x="532" y="-92.3" font-family="Times,serif" font-size="14.00" fill="#0058ad">r 5 [1 2 3 4 5]</text>
</g>
<!-- T415 -->
<g id="node2" class="node">
<title>T415</title>
<polygon fill="none" stroke="#0058ad" points="0,-.5 0,-29.5 1802,-29.5 1802,-.5 0,-.5"/>
<text text-anchor="middle" x="28.5" y="-11.3" font-family="Times,serif" font-size="14.00" fill="#0058ad">a 10 22</text>
<polyline fill="none" stroke="#0058ad" points="57,-.5 57,-29.5 "/>
<text text-anchor="middle" x="584.5" y="-11.3" font-family="Times,serif" font-size="14.00" fill="#0058ad">r 8 [6 7 9 10 11 12 13 14 15 16 17 18 19 20 21 22 23 24 25 26 27 28 29 30 31 32 33 34 35 37 36 38 39 40 41 42 43 44 45 46 47 48 49 50 53 55 54 56 57 58 59 60 61 62 64 65 63 66 67 68]</text>
<polyline fill="none" stroke="#0058ad" points="1112,-.5 1112,-29.5 "/>
<text text-anchor="middle" x="1284.5" y="-11.3" font-family="Times,serif" font-size="14.00" fill="#0058ad">r 10 [2 3 5 6 7 8 9 10 11 12 13 14 15 17 18 16 19 20 21 22]</text>
<polyline fill="none" stroke="#0058ad" points="1457,-.5 1457,-29.5 "/>
<text text-anchor="middle" x="1629.5" y="-11.3" font-family="Times,serif" font-size="14.00" fill="#0058ad">r 10 [2 3 5 6 7 8 9 10 11 12 13 14 15 17 18 16 19 20 21 22]</text>
</g>
<!-- T417&#45;&gt;T415 -->
<g id="edge1" class="edge">
<title>T417:f1&#45;&gt;T415:f0</title>
<path fill="none" stroke="#5b00c0" d="M271,-81C271,25.6889 43.8688,-129.3922 28.7859,-40.0864"/>
<polygon fill="#5b00c0" stroke="#5b00c0" points="32.2663,-39.6979 28,-30 25.2875,-40.2417 32.2663,-39.6979"/>
<text text-anchor="middle" x="274.5" y="-51.8" font-family="Times,serif" font-size="14.00" fill="#5b00c0">rw</text>
</g>
<!-- T415&#45;&gt;T417 -->
<g id="edge2" class="edge">
<title>T415:f1&#45;&gt;T417:f0</title>
<path fill="none" stroke="#5b00c0" d="M584,-30C584,-163.2541 418.5996,-49.8097 286,-63 266.0989,-64.9796 123.5951,-59.8065 89.3742,-73.9736"/>
<polygon fill="#5b00c0" stroke="#5b00c0" points="86.8254,-71.5678 82,-81 91.6542,-76.6356 86.8254,-71.5678"/>
<text text-anchor="middle" x="589.5" y="-51.8" font-family="Times,serif" font-size="14.00" fill="#5b00c0">rw</text>
</g>
</g>
</svg>
