<?xml version="1.0" encoding="UTF-8" standalone="no"?>
<!DOCTYPE svg PUBLIC "-//W3C//DTD SVG 1.1//EN"
 "http://www.w3.org/Graphics/SVG/1.1/DTD/svg11.dtd">
<!-- Generated by graphviz version 2.40.1 (20161225.0304)
 -->
<!-- Title: a_graph Pages: 1 -->
<svg width="988pt" height="119pt"
 viewBox="0.00 0.00 988.00 119.00" xmlns="http://www.w3.org/2000/svg" xmlns:xlink="http://www.w3.org/1999/xlink">
<g id="graph0" class="graph" transform="scale(1 1) rotate(0) translate(4 115)">
<title>a_graph</title>
<polygon fill="#ffffff" stroke="transparent" points="-4,4 -4,-115 984,-115 984,4 -4,4"/>
<!-- T5941 -->
<g id="node1" class="node">
<title>T5941</title>
<polygon fill="none" stroke="#0058ad" points="0,-81.5 0,-110.5 980,-110.5 980,-81.5 0,-81.5"/>
<text text-anchor="middle" x="28.5" y="-92.3" font-family="Times,serif" font-size="14.00" fill="#0058ad">a 34 11</text>
<polyline fill="none" stroke="#0058ad" points="57,-81.5 57,-110.5 "/>
<text text-anchor="middle" x="490" y="-92.3" font-family="Times,serif" font-size="14.00" fill="#0058ad">r 33 [1 2 3 5 4 6 9 11 12 10 13 14 7 8 17 18 19 20 22 23 24 27 28 29 32 33 31 34 36 35 38 37 39 40 41 42 43 44 45 46 47 48 49 50 51 52 53 54 55 59 58]</text>
<polyline fill="none" stroke="#0058ad" points="923,-81.5 923,-110.5 "/>
<text text-anchor="middle" x="951.5" y="-92.3" font-family="Times,serif" font-size="14.00" fill="#0058ad">a 35 10</text>
</g>
<!-- T5942 -->
<g id="node2" class="node">
<title>T5942</title>
<polygon fill="none" stroke="#0058ad" points="737,-.5 737,-29.5 925,-29.5 925,-.5 737,-.5"/>
<text text-anchor="middle" x="765.5" y="-11.3" font-family="Times,serif" font-size="14.00" fill="#0058ad">a 33 60</text>
<polyline fill="none" stroke="#0058ad" points="794,-.5 794,-29.5 "/>
<text text-anchor="middle" x="859.5" y="-11.3" font-family="Times,serif" font-size="14.00" fill="#0058ad">r 35 [1 2 4 5 6 7 8 9]</text>
</g>
<!-- T5941&#45;&gt;T5942 -->
<g id="edge1" class="edge">
<title>T5941:f1&#45;&gt;T5942:f0</title>
<path fill="none" stroke="#5b00c0" d="M490,-81C490,-27.1815 660.6557,-16.1012 726.9465,-15.0823"/>
<polygon fill="#5b00c0" stroke="#5b00c0" points="727.029,-18.5818 737,-15 726.9717,-11.582 727.029,-18.5818"/>
<text text-anchor="middle" x="522.5" y="-51.8" font-family="Times,serif" font-size="14.00" fill="#5b00c0">rw</text>
</g>
<!-- T5942&#45;&gt;T5941 -->
<g id="edge2" class="edge">
<title>T5942:f1&#45;&gt;T5941:f2</title>
<path fill="none" stroke="#5b00c0" d="M925,-15C953.3504,-15 952.5852,-42.452 952.1084,-70.9282"/>
<polygon fill="#5b00c0" stroke="#5b00c0" points="948.6079,-70.9629 952,-81 955.6075,-71.0383 948.6079,-70.9629"/>
<text text-anchor="middle" x="959.5" y="-51.8" font-family="Times,serif" font-size="14.00" fill="#5b00c0">rw</text>
</g>
</g>
</svg>
