<?xml version="1.0" encoding="UTF-8" standalone="no"?>
<!DOCTYPE svg PUBLIC "-//W3C//DTD SVG 1.1//EN"
 "http://www.w3.org/Graphics/SVG/1.1/DTD/svg11.dtd">
<!-- Generated by graphviz version 2.40.1 (20161225.0304)
 -->
<!-- Title: a_graph Pages: 1 -->
<svg width="5644pt" height="119pt"
 viewBox="0.00 0.00 5643.50 119.00" xmlns="http://www.w3.org/2000/svg" xmlns:xlink="http://www.w3.org/1999/xlink">
<g id="graph0" class="graph" transform="scale(1 1) rotate(0) translate(4 115)">
<title>a_graph</title>
<polygon fill="#ffffff" stroke="transparent" points="-4,4 -4,-115 5639.5,-115 5639.5,4 -4,4"/>
<!-- T3205 -->
<g id="node1" class="node">
<title>T3205</title>
<polygon fill="none" stroke="#0058ad" points="2187.5,-81.5 2187.5,-110.5 5635.5,-110.5 5635.5,-81.5 2187.5,-81.5"/>
<text text-anchor="middle" x="2219.5" y="-92.3" font-family="Times,serif" font-size="14.00" fill="#0058ad">a 16 110</text>
<polyline fill="none" stroke="#0058ad" points="2251.5,-81.5 2251.5,-110.5 "/>
<text text-anchor="middle" x="3062.5" y="-92.3" font-family="Times,serif" font-size="14.00" fill="#0058ad">r 20 [2 3 4 1 5 9 6 7 8 10 12 11 13 16 14 15 17 18 21 19 20 22 23 25 24 26 27 29 30 31 32 33 34 35 28 38 39 43 44 45 46 47 49 48 51 50 54 55 52 53 59 58 60 61 56 57 62 63 64 65 66 67 68 69 70 71 72 73 76 77 78 79 80 81 83 84 85 86 87 88 82 89 90 91 92 93 97 98 94 95 96 99 100 101]</text>
<polyline fill="none" stroke="#0058ad" points="3873.5,-81.5 3873.5,-110.5 "/>
<text text-anchor="middle" x="4754.5" y="-92.3" font-family="Times,serif" font-size="14.00" fill="#0058ad">r 19 [1 2 4 5 6 3 7 8 9 10 12 15 17 16 18 19 20 22 23 24 25 26 28 29 30 31 32 33 34 35 36 37 38 39 40 41 42 43 44 45 46 47 49 50 48 51 52 53 55 56 54 57 58 59 60 61 63 64 62 66 69 70 73 67 75 76 77 78 81 80 79 82 83 84 85 86 87 88 89 90 91 92 95 93 94 96 97 98 99 101 102 100 103 104 105 106 107 108 109]</text>
</g>
<!-- T3207 -->
<g id="node2" class="node">
<title>T3207</title>
<polygon fill="none" stroke="#0058ad" points="0,-.5 0,-29.5 2967,-29.5 2967,-.5 0,-.5"/>
<text text-anchor="middle" x="811" y="-11.3" font-family="Times,serif" font-size="14.00" fill="#0058ad">r 20 [2 3 4 1 5 9 6 7 8 10 12 11 13 16 14 15 17 18 21 19 20 22 23 25 24 26 27 29 30 31 32 33 34 35 28 38 39 43 44 45 46 47 49 48 51 50 54 55 52 53 59 58 60 61 56 57 62 63 64 65 66 67 68 69 70 71 72 73 76 77 78 79 80 81 83 84 85 86 87 88 82 89 90 91 92 93 97 98 94 95 96 99 100 101]</text>
<polyline fill="none" stroke="#0058ad" points="1622,-.5 1622,-29.5 "/>
<text text-anchor="middle" x="2262.5" y="-11.3" font-family="Times,serif" font-size="14.00" fill="#0058ad">r 16 [34 36 37 38 39 40 41 42 43 45 44 46 47 48 50 51 52 49 53 54 55 56 58 61 62 63 64 65 66 67 69 70 71 72 73 74 75 76 78 77 79 80 81 82 83 84 85 86 87 90 89 92 93 94 95 96 97 99 98 101 100 102 103 105 106 107 108 109]</text>
<polyline fill="none" stroke="#0058ad" points="2903,-.5 2903,-29.5 "/>
<text text-anchor="middle" x="2935" y="-11.3" font-family="Times,serif" font-size="14.00" fill="#0058ad">a 20 102</text>
</g>
<!-- T3205&#45;&gt;T3207 -->
<g id="edge1" class="edge">
<title>T3205:f1&#45;&gt;T3207:f2</title>
<path fill="none" stroke="#5b00c0" d="M3062.5,-81C3062.5,-33.0024 3024.5085,-17.0999 2977.6282,-15.1995"/>
<polygon fill="#5b00c0" stroke="#5b00c0" points="2977.567,-11.6977 2967.5,-15 2977.4291,-18.6964 2977.567,-11.6977"/>
<text text-anchor="middle" x="3068" y="-51.8" font-family="Times,serif" font-size="14.00" fill="#5b00c0">rw</text>
</g>
<!-- T3207&#45;&gt;T3205 -->
<g id="edge2" class="edge">
<title>T3207:f1&#45;&gt;T3205:f0</title>
<path fill="none" stroke="#5b00c0" d="M2262.5,-30C2262.5,-55.7105 2230.1634,-52.8863 2221.574,-71.0172"/>
<polygon fill="#5b00c0" stroke="#5b00c0" points="2218.1074,-70.4971 2219.5,-81 2224.961,-71.921 2218.1074,-70.4971"/>
<text text-anchor="middle" x="2261" y="-51.8" font-family="Times,serif" font-size="14.00" fill="#5b00c0">rw</text>
</g>
</g>
</svg>
