<?xml version="1.0" encoding="UTF-8" standalone="no"?>
<!DOCTYPE svg PUBLIC "-//W3C//DTD SVG 1.1//EN"
 "http://www.w3.org/Graphics/SVG/1.1/DTD/svg11.dtd">
<!-- Generated by graphviz version 2.40.1 (20161225.0304)
 -->
<!-- Title: a_graph Pages: 1 -->
<svg width="1628pt" height="119pt"
 viewBox="0.00 0.00 1628.00 119.00" xmlns="http://www.w3.org/2000/svg" xmlns:xlink="http://www.w3.org/1999/xlink">
<g id="graph0" class="graph" transform="scale(1 1) rotate(0) translate(4 115)">
<title>a_graph</title>
<polygon fill="#ffffff" stroke="transparent" points="-4,4 -4,-115 1624,-115 1624,4 -4,4"/>
<!-- T6495 -->
<g id="node1" class="node">
<title>T6495</title>
<polygon fill="none" stroke="#0058ad" points="0,-81.5 0,-110.5 1620,-110.5 1620,-81.5 0,-81.5"/>
<text text-anchor="middle" x="55" y="-92.3" font-family="Times,serif" font-size="14.00" fill="#0058ad">r 37 [1 2 3 4 5 7]</text>
<polyline fill="none" stroke="#0058ad" points="110,-81.5 110,-110.5 "/>
<text text-anchor="middle" x="377.5" y="-92.3" font-family="Times,serif" font-size="14.00" fill="#0058ad">r 34 [1 4 5 6 7 8 9 10 11 12 13 14 15 16 17 18 20 19 21 22 23 24 25 26 27 28 30 31 32 33 34]</text>
<polyline fill="none" stroke="#0058ad" points="645,-81.5 645,-110.5 "/>
<text text-anchor="middle" x="1104" y="-92.3" font-family="Times,serif" font-size="14.00" fill="#0058ad">r 36 [1 2 3 5 4 6 7 8 9 10 12 13 11 14 15 18 23 24 25 22 27 28 29 26 30 31 32 33 35 34 36 37 38 39 40 41 42 44 45 46 47 48 43 49 50 51 52 53 56 54 55 57 59 60]</text>
<polyline fill="none" stroke="#0058ad" points="1563,-81.5 1563,-110.5 "/>
<text text-anchor="middle" x="1591.5" y="-92.3" font-family="Times,serif" font-size="14.00" fill="#0058ad">a 36 61</text>
</g>
<!-- T6493 -->
<g id="node2" class="node">
<title>T6493</title>
<polygon fill="none" stroke="#0058ad" points="196.5,-.5 196.5,-29.5 1285.5,-29.5 1285.5,-.5 196.5,-.5"/>
<text text-anchor="middle" x="225" y="-11.3" font-family="Times,serif" font-size="14.00" fill="#0058ad">a 31 83</text>
<polyline fill="none" stroke="#0058ad" points="253.5,-.5 253.5,-29.5 "/>
<text text-anchor="middle" x="712.5" y="-11.3" font-family="Times,serif" font-size="14.00" fill="#0058ad">r 36 [1 2 3 5 4 6 7 8 9 10 12 13 11 14 15 18 23 24 25 22 27 28 29 26 30 31 32 33 35 34 36 37 38 39 40 41 42 44 45 46 47 48 43 49 50 51 52 53 56 54 55 57 59 60]</text>
<polyline fill="none" stroke="#0058ad" points="1171.5,-.5 1171.5,-29.5 "/>
<text text-anchor="middle" x="1200" y="-11.3" font-family="Times,serif" font-size="14.00" fill="#0058ad">a 31 84</text>
<polyline fill="none" stroke="#0058ad" points="1228.5,-.5 1228.5,-29.5 "/>
<text text-anchor="middle" x="1257" y="-11.3" font-family="Times,serif" font-size="14.00" fill="#0058ad">a 34 35</text>
</g>
<!-- T6495&#45;&gt;T6493 -->
<g id="edge1" class="edge">
<title>T6495:f1&#45;&gt;T6493:f3</title>
<path fill="none" stroke="#5b00c0" d="M377,-81C377,111.3448 1225.4904,-213.746 1256.1487,-40.0976"/>
<polygon fill="#5b00c0" stroke="#5b00c0" points="1259.6474,-40.2587 1257,-30 1252.6722,-39.6706 1259.6474,-40.2587"/>
<text text-anchor="middle" x="1259.5" y="-51.8" font-family="Times,serif" font-size="14.00" fill="#5b00c0">rw</text>
</g>
<!-- T6493&#45;&gt;T6495 -->
<g id="edge2" class="edge">
<title>T6493:f1&#45;&gt;T6495:f3</title>
<path fill="none" stroke="#5b00c0" d="M712,-30C712,-45.5358 1255.4994,-46.955 1271,-48 1410.6003,-57.4116 1583.3339,56.6333 1591.685,-70.9611"/>
<polygon fill="#5b00c0" stroke="#5b00c0" points="1588.188,-71.1147 1592,-81 1595.1845,-70.8951 1588.188,-71.1147"/>
<text text-anchor="middle" x="1597.5" y="-51.8" font-family="Times,serif" font-size="14.00" fill="#5b00c0">rw</text>
</g>
</g>
</svg>
