<?xml version="1.0" encoding="UTF-8" standalone="no"?>
<!DOCTYPE svg PUBLIC "-//W3C//DTD SVG 1.1//EN"
 "http://www.w3.org/Graphics/SVG/1.1/DTD/svg11.dtd">
<!-- Generated by graphviz version 2.40.1 (20161225.0304)
 -->
<!-- Title: a_graph Pages: 1 -->
<svg width="2545pt" height="200pt"
 viewBox="0.00 0.00 2544.50 200.00" xmlns="http://www.w3.org/2000/svg" xmlns:xlink="http://www.w3.org/1999/xlink">
<g id="graph0" class="graph" transform="scale(1 1) rotate(0) translate(4 196)">
<title>a_graph</title>
<polygon fill="#ffffff" stroke="transparent" points="-4,4 -4,-196 2540.5,-196 2540.5,4 -4,4"/>
<!-- T19270 -->
<g id="node1" class="node">
<title>T19270</title>
<polygon fill="none" stroke="#0058ad" points="0,-162.5 0,-191.5 872,-191.5 872,-162.5 0,-162.5"/>
<text text-anchor="middle" x="407.5" y="-173.3" font-family="Times,serif" font-size="14.00" fill="#0058ad">r 95 [1 2 3 4 5 6 7 8 9 12 13 14 11 15 16 17 18 19 20 21 22 23 24 25 27 26 28 30 31 29 32 33 35 36 37 39 40 41 42 43 44 45 46 47 49 50 51 52]</text>
<polyline fill="none" stroke="#0058ad" points="815,-162.5 815,-191.5 "/>
<text text-anchor="middle" x="843.5" y="-173.3" font-family="Times,serif" font-size="14.00" fill="#0058ad">a 99 18</text>
</g>
<!-- T19268 -->
<g id="node3" class="node">
<title>T19268</title>
<polygon fill="none" stroke="#0058ad" points="709.5,-81.5 709.5,-110.5 2536.5,-110.5 2536.5,-81.5 709.5,-81.5"/>
<text text-anchor="middle" x="844" y="-92.3" font-family="Times,serif" font-size="14.00" fill="#0058ad">r 99 [1 3 6 7 8 5 9 4 10 11 12 13 14 15 16 17]</text>
<polyline fill="none" stroke="#0058ad" points="978.5,-81.5 978.5,-110.5 "/>
<text text-anchor="middle" x="1729" y="-92.3" font-family="Times,serif" font-size="14.00" fill="#0058ad">r 96 [1 3 4 5 6 7 9 10 11 12 14 13 15 16 17 18 19 20 21 22 24 25 23 26 27 28 30 31 32 33 29 34 35 36 37 38 39 41 42 44 40 43 45 46 47 49 50 51 52 53 55 56 54 59 57 62 60 61 63 64 66 65 67 68 69 70 72 73 74 75 76 77 78 80 81 82 83 86 87 88 89 90 85 91 92 93 94]</text>
<polyline fill="none" stroke="#0058ad" points="2479.5,-81.5 2479.5,-110.5 "/>
<text text-anchor="middle" x="2508" y="-92.3" font-family="Times,serif" font-size="14.00" fill="#0058ad">a 95 53</text>
</g>
<!-- T19270&#45;&gt;T19268 -->
<g id="edge1" class="edge">
<title>T19270:f0&#45;&gt;T19268:f2</title>
<path fill="none" stroke="#5b00c0" d="M407,-162C407,-146.246 674.3178,-145.5024 690,-144 742.1867,-139.0002 754.6993,-132.6169 807,-129 829.5112,-127.4432 2360.6308,-133.9923 2498.147,-114.0007"/>
<polygon fill="#5b00c0" stroke="#5b00c0" points="2499.4535,-117.2616 2508,-111 2497.4141,-110.5652 2499.4535,-117.2616"/>
<text text-anchor="middle" x="814.5" y="-132.8" font-family="Times,serif" font-size="14.00" fill="#5b00c0">rw</text>
</g>
<!-- T19267 -->
<g id="node2" class="node">
<title>T19267</title>
<polygon fill="none" stroke="#0058ad" points="986,-.5 986,-29.5 1312,-29.5 1312,-.5 986,-.5"/>
<text text-anchor="middle" x="1120.5" y="-11.3" font-family="Times,serif" font-size="14.00" fill="#0058ad">r 99 [1 3 6 7 8 5 9 4 10 11 12 13 14 15 16 17]</text>
<polyline fill="none" stroke="#0058ad" points="1255,-.5 1255,-29.5 "/>
<text text-anchor="middle" x="1283.5" y="-11.3" font-family="Times,serif" font-size="14.00" fill="#0058ad">a 96 95</text>
</g>
<!-- T19267&#45;&gt;T19270 -->
<g id="edge2" class="edge">
<title>T19267:f0&#45;&gt;T19270:f1</title>
<path fill="none" stroke="#5b00c0" d="M986,-15C917.7391,-15 728.7691,-27.7989 686,-81 668.4212,-102.8665 670.1188,-124.2035 690,-144 711.6496,-165.5574 815.9906,-135.9459 839.3525,-152.9825"/>
<polygon fill="#5b00c0" stroke="#5b00c0" points="836.3076,-154.7145 844,-162 842.5298,-151.5076 836.3076,-154.7145"/>
<text text-anchor="middle" x="693.5" y="-92.3" font-family="Times,serif" font-size="14.00" fill="#5b00c0">rw</text>
</g>
<!-- T19268&#45;&gt;T19270 -->
<g id="edge4" class="edge">
<title>T19268:f0&#45;&gt;T19270:f1</title>
<path fill="none" stroke="#5b00c0" d="M844,-111C844,-129.7708 844,-136.8832 844,-151.6465"/>
<polygon fill="#5b00c0" stroke="#5b00c0" points="840.5001,-152 844,-162 847.5001,-152 840.5001,-152"/>
<text text-anchor="middle" x="851.5" y="-132.8" font-family="Times,serif" font-size="14.00" fill="#5b00c0">rw</text>
</g>
<!-- T19268&#45;&gt;T19267 -->
<g id="edge3" class="edge">
<title>T19268:f1&#45;&gt;T19267:f1</title>
<path fill="none" stroke="#5b00c0" d="M1729,-81C1729,-36.5637 1396.9138,-17.0908 1322.0159,-15.1605"/>
<polygon fill="#5b00c0" stroke="#5b00c0" points="1322.0548,-11.6608 1312,-15 1321.9426,-18.6599 1322.0548,-11.6608"/>
<text text-anchor="middle" x="1716.5" y="-51.8" font-family="Times,serif" font-size="14.00" fill="#5b00c0">rw</text>
</g>
</g>
</svg>
