<?xml version="1.0" encoding="UTF-8" standalone="no"?>
<!DOCTYPE svg PUBLIC "-//W3C//DTD SVG 1.1//EN"
 "http://www.w3.org/Graphics/SVG/1.1/DTD/svg11.dtd">
<!-- Generated by graphviz version 2.40.1 (20161225.0304)
 -->
<!-- Title: a_graph Pages: 1 -->
<svg width="3588pt" height="119pt"
 viewBox="0.00 0.00 3587.50 119.00" xmlns="http://www.w3.org/2000/svg" xmlns:xlink="http://www.w3.org/1999/xlink">
<g id="graph0" class="graph" transform="scale(1 1) rotate(0) translate(4 115)">
<title>a_graph</title>
<polygon fill="#ffffff" stroke="transparent" points="-4,4 -4,-115 3583.5,-115 3583.5,4 -4,4"/>
<!-- T15587 -->
<g id="node1" class="node">
<title>T15587</title>
<polygon fill="none" stroke="#0058ad" points="0,-81.5 0,-110.5 2340,-110.5 2340,-81.5 0,-81.5"/>
<text text-anchor="middle" x="959.5" y="-92.3" font-family="Times,serif" font-size="14.00" fill="#0058ad">r 79 [1 2 3 4 5 6 7 8 9 10 14 11 12 13 15 19 16 17 18 20 21 22 23 24 25 26 27 28 29 30 31 34 33 32 35 37 38 36 40 41 42 43 44 53 54 58 39 61 59 60 62 64 65 63 66 67 68 69 71 72 73 70 74 75 76 77 78 79 80 82 83 84 81 85 86 87 88 89 90 91 92 94 95 96 97 98 99 100 101 102 103 104 109 111 113 114 112 116 117 118 119 115 120 121 122]</text>
<polyline fill="none" stroke="#0058ad" points="1919,-81.5 1919,-110.5 "/>
<text text-anchor="middle" x="1951" y="-92.3" font-family="Times,serif" font-size="14.00" fill="#0058ad">a 79 123</text>
<polyline fill="none" stroke="#0058ad" points="1983,-81.5 1983,-110.5 "/>
<text text-anchor="middle" x="2015" y="-92.3" font-family="Times,serif" font-size="14.00" fill="#0058ad">a 79 124</text>
<polyline fill="none" stroke="#0058ad" points="2047,-81.5 2047,-110.5 "/>
<text text-anchor="middle" x="2193.5" y="-92.3" font-family="Times,serif" font-size="14.00" fill="#0058ad">r 81 [3 4 5 6 8 9 10 11 12 7 13 14 15 16 17 19 20]</text>
</g>
<!-- T15589 -->
<g id="node2" class="node">
<title>T15589</title>
<polygon fill="none" stroke="#0058ad" points="1546.5,-.5 1546.5,-29.5 3579.5,-29.5 3579.5,-.5 1546.5,-.5"/>
<text text-anchor="middle" x="1575" y="-11.3" font-family="Times,serif" font-size="14.00" fill="#0058ad">a 81 21</text>
<polyline fill="none" stroke="#0058ad" points="1603.5,-.5 1603.5,-29.5 "/>
<text text-anchor="middle" x="1632" y="-11.3" font-family="Times,serif" font-size="14.00" fill="#0058ad">a 81 22</text>
<polyline fill="none" stroke="#0058ad" points="1660.5,-.5 1660.5,-29.5 "/>
<text text-anchor="middle" x="2620" y="-11.3" font-family="Times,serif" font-size="14.00" fill="#0058ad">r 79 [1 2 3 4 5 6 7 8 9 10 14 11 12 13 15 19 16 17 18 20 21 22 23 24 25 26 27 28 29 30 31 34 33 32 35 37 38 36 40 41 42 43 44 53 54 58 39 61 59 60 62 64 65 63 66 67 68 69 71 72 73 70 74 75 76 77 78 79 80 82 83 84 81 85 86 87 88 89 90 91 92 94 95 96 97 98 99 100 101 102 103 104 109 111 113 114 112 116 117 118 119 115 120 121 122]</text>
</g>
<!-- T15587&#45;&gt;T15589 -->
<g id="edge1" class="edge">
<title>T15587:f3&#45;&gt;T15589:f0</title>
<path fill="none" stroke="#5b00c0" d="M2194,-81C2194,-24.8292 2127.5385,-56.4044 2072,-48 2046.8694,-44.1971 1647.3858,-55.5397 1583.5672,-35.8716"/>
<polygon fill="#5b00c0" stroke="#5b00c0" points="1585.2273,-32.7663 1575,-30 1581.27,-38.5404 1585.2273,-32.7663"/>
<text text-anchor="middle" x="2197.5" y="-51.8" font-family="Times,serif" font-size="14.00" fill="#5b00c0">rw</text>
</g>
<!-- T15589&#45;&gt;T15587 -->
<g id="edge2" class="edge">
<title>T15589:f2&#45;&gt;T15587:f1</title>
<path fill="none" stroke="#5b00c0" d="M2620,-30C2620,-45.7579 2068.5246,-45.298 2053,-48 2009.9095,-55.4997 1959.9785,-36.888 1952.0766,-70.6409"/>
<polygon fill="#5b00c0" stroke="#5b00c0" points="1948.5526,-70.6917 1951,-81 1955.5151,-71.4154 1948.5526,-70.6917"/>
<text text-anchor="middle" x="2060.5" y="-51.8" font-family="Times,serif" font-size="14.00" fill="#5b00c0">rw</text>
</g>
</g>
</svg>
