<?xml version="1.0" encoding="UTF-8" standalone="no"?>
<!DOCTYPE svg PUBLIC "-//W3C//DTD SVG 1.1//EN"
 "http://www.w3.org/Graphics/SVG/1.1/DTD/svg11.dtd">
<!-- Generated by graphviz version 2.40.1 (20161225.0304)
 -->
<!-- Title: a_graph Pages: 1 -->
<svg width="4331pt" height="281pt"
 viewBox="0.00 0.00 4330.50 281.00" xmlns="http://www.w3.org/2000/svg" xmlns:xlink="http://www.w3.org/1999/xlink">
<g id="graph0" class="graph" transform="scale(1 1) rotate(0) translate(4 277)">
<title>a_graph</title>
<polygon fill="#ffffff" stroke="transparent" points="-4,4 -4,-277 4326.5,-277 4326.5,4 -4,4"/>
<!-- T6439 -->
<g id="node1" class="node">
<title>T6439</title>
<polygon fill="none" stroke="#0058ad" points="978,-243.5 978,-272.5 1525,-272.5 1525,-243.5 978,-243.5"/>
<text text-anchor="middle" x="1010" y="-254.3" font-family="Times,serif" font-size="14.00" fill="#0058ad">a 33 122</text>
<polyline fill="none" stroke="#0058ad" points="1042,-243.5 1042,-272.5 "/>
<text text-anchor="middle" x="1283.5" y="-254.3" font-family="Times,serif" font-size="14.00" fill="#0058ad">r 34 [1 4 5 6 7 8 9 10 11 12 13 14 15 16 17 18 20 19 21 22 23 24 25 26 27 28 30 31]</text>
</g>
<!-- T6433 -->
<g id="node2" class="node">
<title>T6433</title>
<polygon fill="none" stroke="#0058ad" points="1198.5,-162.5 1198.5,-191.5 2772.5,-191.5 2772.5,-162.5 1198.5,-162.5"/>
<text text-anchor="middle" x="1227" y="-173.3" font-family="Times,serif" font-size="14.00" fill="#0058ad">a 36 41</text>
<polyline fill="none" stroke="#0058ad" points="1255.5,-162.5 1255.5,-191.5 "/>
<text text-anchor="middle" x="1284" y="-173.3" font-family="Times,serif" font-size="14.00" fill="#0058ad">a 34 32</text>
<polyline fill="none" stroke="#0058ad" points="1312.5,-162.5 1312.5,-191.5 "/>
<text text-anchor="middle" x="2042.5" y="-173.3" font-family="Times,serif" font-size="14.00" fill="#0058ad">r 5 [1 2 3 4 5 6 7 8 9 10 11 12 13 50 53 54 52 55 56 57 58 59 60 61 62 63 64 66 67 68 69 70 71 72 73 74 75 76 77 78 79 80 82 84 85 86 87 88 89 90 91 93 94 95 96 97 98 99 100 103 102 104 105 106 107 108 109 110 111 112 113 114 116 118 119 120 121 122]</text>
</g>
<!-- T6439&#45;&gt;T6433 -->
<g id="edge1" class="edge">
<title>T6439:f1&#45;&gt;T6433:f1</title>
<path fill="none" stroke="#5b00c0" d="M1283.5,-243C1283.5,-224.2292 1283.5,-217.1168 1283.5,-202.3535"/>
<polygon fill="#5b00c0" stroke="#5b00c0" points="1287.0001,-202 1283.5,-192 1280.0001,-202 1287.0001,-202"/>
<text text-anchor="middle" x="1291" y="-213.8" font-family="Times,serif" font-size="14.00" fill="#5b00c0">rw</text>
</g>
<!-- T6437 -->
<g id="node3" class="node">
<title>T6437</title>
<polygon fill="none" stroke="#0058ad" points="1090.5,-81.5 1090.5,-110.5 4322.5,-110.5 4322.5,-81.5 1090.5,-81.5"/>
<text text-anchor="middle" x="2077.5" y="-92.3" font-family="Times,serif" font-size="14.00" fill="#0058ad">r 33 [1 2 3 5 4 6 9 11 12 10 13 14 7 8 17 18 19 20 22 23 24 27 28 29 32 33 31 34 36 35 38 37 39 40 41 42 43 44 45 46 47 48 49 50 51 52 53 54 55 59 58 60 57 61 62 64 63 67 68 69 70 71 72 65 66 73 76 77 74 75 78 80 81 79 82 84 83 85 86 87 88 89 90 91 92 93 101 102 103 104 105 106 107 108 109 110 111 112 113 114 115 116 117 118 119 120 121]</text>
<polyline fill="none" stroke="#0058ad" points="3064.5,-81.5 3064.5,-110.5 "/>
<text text-anchor="middle" x="3093" y="-92.3" font-family="Times,serif" font-size="14.00" fill="#0058ad">a 36 42</text>
<polyline fill="none" stroke="#0058ad" points="3121.5,-81.5 3121.5,-110.5 "/>
<text text-anchor="middle" x="3722" y="-92.3" font-family="Times,serif" font-size="14.00" fill="#0058ad">r 31 [1 2 3 4 5 6 7 8 12 13 11 14 15 16 17 18 19 20 21 22 24 23 25 27 28 29 26 30 31 32 33 34 35 36 37 39 41 40 42 43 44 45 46 47 48 49 50 52 53 54 51 55 56 57 58 59 60 61 65 66 67 68 69 71 70 72 74 75 76 77]</text>
</g>
<!-- T6433&#45;&gt;T6437 -->
<g id="edge2" class="edge">
<title>T6433:f0&#45;&gt;T6437:f1</title>
<path fill="none" stroke="#c02700" d="M1226.5,-162C1226.5,41.9753 3030.2318,-306.2459 3091.8828,-121.1445"/>
<polygon fill="#c02700" stroke="#c02700" points="3095.382,-121.4263 3093.5,-111 3088.4693,-120.3243 3095.382,-121.4263"/>
<text text-anchor="middle" x="3094.5" y="-132.8" font-family="Times,serif" font-size="14.00" fill="#c02700">ww</text>
</g>
<!-- T6437&#45;&gt;T6439 -->
<g id="edge4" class="edge">
<title>T6437:f0&#45;&gt;T6439:f0</title>
<path fill="none" stroke="#5b00c0" d="M1090.5,-96C1083.4727,-96 1088.3788,-104.5894 1085.5,-111 1059.2305,-169.4982 1014.5337,-174.8707 1009.8926,-232.8156"/>
<polygon fill="#5b00c0" stroke="#5b00c0" points="1006.3879,-232.8726 1009.5,-243 1013.3827,-233.1423 1006.3879,-232.8726"/>
<text text-anchor="middle" x="1057" y="-173.3" font-family="Times,serif" font-size="14.00" fill="#5b00c0">rw</text>
</g>
<!-- T6435 -->
<g id="node4" class="node">
<title>T6435</title>
<polygon fill="none" stroke="#0058ad" points="0,-.5 0,-29.5 2621,-29.5 2621,-.5 0,-.5"/>
<text text-anchor="middle" x="987" y="-11.3" font-family="Times,serif" font-size="14.00" fill="#0058ad">r 33 [1 2 3 5 4 6 9 11 12 10 13 14 7 8 17 18 19 20 22 23 24 27 28 29 32 33 31 34 36 35 38 37 39 40 41 42 43 44 45 46 47 48 49 50 51 52 53 54 55 59 58 60 57 61 62 64 63 67 68 69 70 71 72 65 66 73 76 77 74 75 78 80 81 79 82 84 83 85 86 87 88 89 90 91 92 93 101 102 103 104 105 106 107 108 109 110 111 112 113 114 115 116 117 118 119 120 121]</text>
<polyline fill="none" stroke="#0058ad" points="1974,-.5 1974,-29.5 "/>
<text text-anchor="middle" x="2269" y="-11.3" font-family="Times,serif" font-size="14.00" fill="#0058ad">r 36 [1 2 3 5 4 6 7 8 9 10 12 13 11 14 15 18 23 24 25 22 27 28 29 26 30 31 32 33 35 34 36 37 38 39 40]</text>
<polyline fill="none" stroke="#0058ad" points="2564,-.5 2564,-29.5 "/>
<text text-anchor="middle" x="2592.5" y="-11.3" font-family="Times,serif" font-size="14.00" fill="#0058ad">a 31 78</text>
</g>
<!-- T6437&#45;&gt;T6435 -->
<g id="edge3" class="edge">
<title>T6437:f2&#45;&gt;T6435:f2</title>
<path fill="none" stroke="#5b00c0" d="M3722.5,-81C3722.5,-21.8778 2754.597,-15.402 2631.503,-15.0198"/>
<polygon fill="#5b00c0" stroke="#5b00c0" points="2631.5069,-11.5199 2621.5,-15 2631.493,-18.5199 2631.5069,-11.5199"/>
<text text-anchor="middle" x="3688" y="-51.8" font-family="Times,serif" font-size="14.00" fill="#5b00c0">rw</text>
</g>
<!-- T6435&#45;&gt;T6439 -->
<g id="edge6" class="edge">
<title>T6435:f0&#45;&gt;T6439:f0</title>
<path fill="none" stroke="#5b00c0" d="M986.5,-30C986.5,-117.1678 998.0203,-138.3492 1007.5,-225 1007.8556,-228.2506 1008.2524,-230.5024 1008.5982,-232.57"/>
<polygon fill="#5b00c0" stroke="#5b00c0" points="1005.1515,-233.3387 1009.5,-243 1012.1255,-232.7356 1005.1515,-233.3387"/>
<text text-anchor="middle" x="1004" y="-132.8" font-family="Times,serif" font-size="14.00" fill="#5b00c0">rw</text>
</g>
<!-- T6435&#45;&gt;T6433 -->
<g id="edge5" class="edge">
<title>T6435:f1&#45;&gt;T6433:f0</title>
<path fill="none" stroke="#5b00c0" d="M2269.5,-30C2269.5,-96.8934 1112.7882,-32.7079 1066.5,-81 1018.6567,-130.9146 1116.0299,-172.8904 1188.0745,-176.716"/>
<polygon fill="#5b00c0" stroke="#5b00c0" points="1188.4084,-180.2263 1198.5,-177 1188.5991,-173.2289 1188.4084,-180.2263"/>
<text text-anchor="middle" x="1074" y="-92.3" font-family="Times,serif" font-size="14.00" fill="#5b00c0">rw</text>
</g>
</g>
</svg>
