<?xml version="1.0" encoding="UTF-8" standalone="no"?>
<!DOCTYPE svg PUBLIC "-//W3C//DTD SVG 1.1//EN"
 "http://www.w3.org/Graphics/SVG/1.1/DTD/svg11.dtd">
<!-- Generated by graphviz version 2.40.1 (20161225.0304)
 -->
<!-- Title: a_graph Pages: 1 -->
<svg width="1618pt" height="119pt"
 viewBox="0.00 0.00 1618.00 119.00" xmlns="http://www.w3.org/2000/svg" xmlns:xlink="http://www.w3.org/1999/xlink">
<g id="graph0" class="graph" transform="scale(1 1) rotate(0) translate(4 115)">
<title>a_graph</title>
<polygon fill="#ffffff" stroke="transparent" points="-4,4 -4,-115 1614,-115 1614,4 -4,4"/>
<!-- T16513 -->
<g id="node1" class="node">
<title>T16513</title>
<polygon fill="none" stroke="#0058ad" points="76.5,-81.5 76.5,-110.5 519.5,-110.5 519.5,-81.5 76.5,-81.5"/>
<text text-anchor="middle" x="269.5" y="-92.3" font-family="Times,serif" font-size="14.00" fill="#0058ad">r 86 [1 2 7 6 8 9 10 11 12 13 14 15 16 17 18 19 20 21 22 23 24 25]</text>
<polyline fill="none" stroke="#0058ad" points="462.5,-81.5 462.5,-110.5 "/>
<text text-anchor="middle" x="491" y="-92.3" font-family="Times,serif" font-size="14.00" fill="#0058ad">a 80 97</text>
</g>
<!-- T16517 -->
<g id="node2" class="node">
<title>T16517</title>
<polygon fill="none" stroke="#0058ad" points="0,-.5 0,-29.5 1610,-29.5 1610,-.5 0,-.5"/>
<text text-anchor="middle" x="28.5" y="-11.3" font-family="Times,serif" font-size="14.00" fill="#0058ad">a 86 26</text>
<polyline fill="none" stroke="#0058ad" points="57,-.5 57,-29.5 "/>
<text text-anchor="middle" x="85.5" y="-11.3" font-family="Times,serif" font-size="14.00" fill="#0058ad">a 85 32</text>
<polyline fill="none" stroke="#0058ad" points="114,-.5 114,-29.5 "/>
<text text-anchor="middle" x="142.5" y="-11.3" font-family="Times,serif" font-size="14.00" fill="#0058ad">a 86 27</text>
<polyline fill="none" stroke="#0058ad" points="171,-.5 171,-29.5 "/>
<text text-anchor="middle" x="890.5" y="-11.3" font-family="Times,serif" font-size="14.00" fill="#0058ad">r 80 [4 7 5 6 8 10 11 9 12 13 14 15 17 18 20 21 22 23 24 25 26 28 29 30 31 27 32 33 35 36 38 37 39 40 42 43 44 45 46 48 49 50 51 52 53 54 55 57 59 61 62 63 64 65 67 66 68 69 70 71 72 73 74 75 76 77 78 79 80 81 82 84 85 86 88 89 90 91 92 93 94 95 96]</text>
</g>
<!-- T16513&#45;&gt;T16517 -->
<g id="edge1" class="edge">
<title>T16513:f0&#45;&gt;T16517:f0</title>
<path fill="none" stroke="#5b00c0" d="M76,-96C43.1298,-96 30.415,-71.5836 28.3198,-40.0095"/>
<polygon fill="#5b00c0" stroke="#5b00c0" points="31.8177,-39.8831 28,-30 24.8212,-40.1067 31.8177,-39.8831"/>
<text text-anchor="middle" x="40.5" y="-51.8" font-family="Times,serif" font-size="14.00" fill="#5b00c0">rw</text>
</g>
<!-- T16517&#45;&gt;T16513 -->
<g id="edge2" class="edge">
<title>T16517:f3&#45;&gt;T16513:f1</title>
<path fill="none" stroke="#5b00c0" d="M891,-30C891,-69.4161 599.3094,-93.1113 530.1946,-95.7527"/>
<polygon fill="#5b00c0" stroke="#5b00c0" points="529.9122,-92.2585 520,-96 530.082,-99.2564 529.9122,-92.2585"/>
<text text-anchor="middle" x="875.5" y="-51.8" font-family="Times,serif" font-size="14.00" fill="#5b00c0">rw</text>
</g>
</g>
</svg>
