<?xml version="1.0" encoding="UTF-8" standalone="no"?>
<!DOCTYPE svg PUBLIC "-//W3C//DTD SVG 1.1//EN"
 "http://www.w3.org/Graphics/SVG/1.1/DTD/svg11.dtd">
<!-- Generated by graphviz version 2.40.1 (20161225.0304)
 -->
<!-- Title: a_graph Pages: 1 -->
<svg width="2247pt" height="200pt"
 viewBox="0.00 0.00 2246.50 200.00" xmlns="http://www.w3.org/2000/svg" xmlns:xlink="http://www.w3.org/1999/xlink">
<g id="graph0" class="graph" transform="scale(1 1) rotate(0) translate(4 196)">
<title>a_graph</title>
<polygon fill="#ffffff" stroke="transparent" points="-4,4 -4,-196 2242.5,-196 2242.5,4 -4,4"/>
<!-- T16107 -->
<g id="node1" class="node">
<title>T16107</title>
<polygon fill="none" stroke="#0058ad" points="99.5,-162.5 99.5,-191.5 2238.5,-191.5 2238.5,-162.5 99.5,-162.5"/>
<text text-anchor="middle" x="128" y="-173.3" font-family="Times,serif" font-size="14.00" fill="#0058ad">a 69 65</text>
<polyline fill="none" stroke="#0058ad" points="156.5,-162.5 156.5,-191.5 "/>
<text text-anchor="middle" x="453" y="-173.3" font-family="Times,serif" font-size="14.00" fill="#0058ad">r 83 [1 4 5 6 7 8 10 11 12 13 14 16 15 17 18 19 20 21 22 24 25 26 27 28 29 30 31 32 33 34 36 37 38 39]</text>
<polyline fill="none" stroke="#0058ad" points="749.5,-162.5 749.5,-191.5 "/>
<text text-anchor="middle" x="778" y="-173.3" font-family="Times,serif" font-size="14.00" fill="#0058ad">a 83 35</text>
<polyline fill="none" stroke="#0058ad" points="806.5,-162.5 806.5,-191.5 "/>
<text text-anchor="middle" x="1522.5" y="-173.3" font-family="Times,serif" font-size="14.00" fill="#0058ad">r 81 [3 4 5 6 8 9 10 11 12 7 13 14 15 16 17 19 20 21 22 23 24 25 26 28 27 30 32 33 34 36 37 38 41 42 43 44 45 46 47 48 50 51 52 54 55 53 56 57 61 62 63 64 66 68 65 70 71 72 73 74 75 76 77 78 79 80 81 82 84 85 86 83 87 88 89 90 91 92 93 94 95 96 97]</text>
</g>
<!-- T16108 -->
<g id="node3" class="node">
<title>T16108</title>
<polygon fill="none" stroke="#0058ad" points="1323.5,-81.5 1323.5,-110.5 1380.5,-110.5 1380.5,-81.5 1323.5,-81.5"/>
<text text-anchor="middle" x="1352" y="-92.3" font-family="Times,serif" font-size="14.00" fill="#0058ad">a 81 98</text>
</g>
<!-- T16107&#45;&gt;T16108 -->
<g id="edge1" class="edge">
<title>T16107:f3&#45;&gt;T16108:f0</title>
<path fill="none" stroke="#5b00c0" d="M1523,-162C1523,-97.95 1449.7375,-134.1781 1388.7575,-114.2898"/>
<polygon fill="#5b00c0" stroke="#5b00c0" points="1389.6796,-110.8953 1379.0891,-110.5921 1387.179,-117.4334 1389.6796,-110.8953"/>
<text text-anchor="middle" x="1526.5" y="-132.8" font-family="Times,serif" font-size="14.00" fill="#5b00c0">rw</text>
</g>
<!-- T16110 -->
<g id="node2" class="node">
<title>T16110</title>
<polygon fill="none" stroke="#0058ad" points="0,-.5 0,-29.5 2042,-29.5 2042,-.5 0,-.5"/>
<text text-anchor="middle" x="724.5" y="-11.3" font-family="Times,serif" font-size="14.00" fill="#0058ad">r 81 [3 4 5 6 8 9 10 11 12 7 13 14 15 16 17 19 20 21 22 23 24 25 26 28 27 30 32 33 34 36 37 38 41 42 43 44 45 46 47 48 50 51 52 54 55 53 56 57 61 62 63 64 66 68 65 70 71 72 73 74 75 76 77 78 79 80 81 82 84 85 86 83 87 88 89 90 91 92 93 94 95 96 97 98]</text>
<polyline fill="none" stroke="#0058ad" points="1449,-.5 1449,-29.5 "/>
<text text-anchor="middle" x="1745.5" y="-11.3" font-family="Times,serif" font-size="14.00" fill="#0058ad">r 83 [1 4 5 6 7 8 10 11 12 13 14 16 15 17 18 19 20 21 22 24 25 26 27 28 29 30 31 32 33 34 36 37 38 39]</text>
</g>
<!-- T16110&#45;&gt;T16107 -->
<g id="edge2" class="edge">
<title>T16110:f1&#45;&gt;T16107:f2</title>
<path fill="none" stroke="#5b00c0" d="M1746,-30C1746,-47.0351 1149.7894,-45.1173 1133,-48 973.1854,-75.4399 786.223,.3362 778.2632,-151.6557"/>
<polygon fill="#5b00c0" stroke="#5b00c0" points="774.7556,-151.9142 778,-162 781.7534,-152.0923 774.7556,-151.9142"/>
<text text-anchor="middle" x="813.5" y="-92.3" font-family="Times,serif" font-size="14.00" fill="#5b00c0">rw</text>
</g>
<!-- T16108&#45;&gt;T16110 -->
<g id="edge3" class="edge">
<title>T16108:f0&#45;&gt;T16110:f0</title>
<path fill="none" stroke="#c000a5" d="M1325.2548,-81.4472C1324.8356,-81.2928 1324.4172,-81.1436 1324,-81 1242.5422,-52.9669 1218.649,-57.2458 1133,-48 1112.4188,-45.7783 790.4926,-51.5308 732.8126,-35.4342"/>
<polygon fill="#c000a5" stroke="#c000a5" points="734.3489,-32.2696 724,-30 730.6748,-38.2279 734.3489,-32.2696"/>
<text text-anchor="middle" x="1266.5" y="-51.8" font-family="Times,serif" font-size="14.00" fill="#c000a5">wr</text>
</g>
</g>
</svg>
