<?xml version="1.0" encoding="UTF-8" standalone="no"?>
<!DOCTYPE svg PUBLIC "-//W3C//DTD SVG 1.1//EN"
 "http://www.w3.org/Graphics/SVG/1.1/DTD/svg11.dtd">
<!-- Generated by graphviz version 2.40.1 (20161225.0304)
 -->
<!-- Title: a_graph Pages: 1 -->
<svg width="2094pt" height="119pt"
 viewBox="0.00 0.00 2093.50 119.00" xmlns="http://www.w3.org/2000/svg" xmlns:xlink="http://www.w3.org/1999/xlink">
<g id="graph0" class="graph" transform="scale(1 1) rotate(0) translate(4 115)">
<title>a_graph</title>
<polygon fill="#ffffff" stroke="transparent" points="-4,4 -4,-115 2089.5,-115 2089.5,4 -4,4"/>
<!-- T16897 -->
<g id="node1" class="node">
<title>T16897</title>
<polygon fill="none" stroke="#0058ad" points="0,-81.5 0,-110.5 2049,-110.5 2049,-81.5 0,-81.5"/>
<text text-anchor="middle" x="683.5" y="-92.3" font-family="Times,serif" font-size="14.00" fill="#0058ad">r 85 [1 2 3 4 5 6 7 8 9 10 11 13 14 12 15 19 20 21 24 22 23 25 26 27 28 29 30 31 32 33 34 35 36 37 38 40 39 41 42 43 44 45 46 47 48 50 49 51 52 53 54 55 56 57 58 60 61 59 62 63 64 65 66 67 69 70 71 68 72 73 74 75 76 77 78 80 81 83 84 85]</text>
<polyline fill="none" stroke="#0058ad" points="1367,-81.5 1367,-110.5 "/>
<text text-anchor="middle" x="1679.5" y="-92.3" font-family="Times,serif" font-size="14.00" fill="#0058ad">r 84 [1 2 3 4 5 6 7 8 9 10 11 12 13 14 16 17 18 19 20 21 22 23 24 25 26 27 28 29 30 31 32 33 34 35 36 37 38]</text>
<polyline fill="none" stroke="#0058ad" points="1992,-81.5 1992,-110.5 "/>
<text text-anchor="middle" x="2020.5" y="-92.3" font-family="Times,serif" font-size="14.00" fill="#0058ad">a 87 20</text>
</g>
<!-- T16895 -->
<g id="node2" class="node">
<title>T16895</title>
<polygon fill="none" stroke="#0058ad" points="1695.5,-.5 1695.5,-29.5 2085.5,-29.5 2085.5,-.5 1695.5,-.5"/>
<text text-anchor="middle" x="1724" y="-11.3" font-family="Times,serif" font-size="14.00" fill="#0058ad">a 84 39</text>
<polyline fill="none" stroke="#0058ad" points="1752.5,-.5 1752.5,-29.5 "/>
<text text-anchor="middle" x="1781" y="-11.3" font-family="Times,serif" font-size="14.00" fill="#0058ad">a 68 47</text>
<polyline fill="none" stroke="#0058ad" points="1809.5,-.5 1809.5,-29.5 "/>
<text text-anchor="middle" x="1947.5" y="-11.3" font-family="Times,serif" font-size="14.00" fill="#0058ad">r 87 [3 4 5 6 7 8 10 11 12 9 13 14 15 17 18 19]</text>
</g>
<!-- T16897&#45;&gt;T16895 -->
<g id="edge1" class="edge">
<title>T16897:f1&#45;&gt;T16895:f0</title>
<path fill="none" stroke="#5b00c0" d="M1679.5,-81C1679.5,-55.0394 1712.5886,-58.2642 1721.3778,-40.056"/>
<polygon fill="#5b00c0" stroke="#5b00c0" points="1724.8596,-40.5072 1723.5,-30 1718.0104,-39.0617 1724.8596,-40.5072"/>
<text text-anchor="middle" x="1722" y="-51.8" font-family="Times,serif" font-size="14.00" fill="#5b00c0">rw</text>
</g>
<!-- T16895&#45;&gt;T16897 -->
<g id="edge2" class="edge">
<title>T16895:f2&#45;&gt;T16897:f2</title>
<path fill="none" stroke="#5b00c0" d="M1947.5,-30C1947.5,-65.5584 2006.4249,-46.4425 2018.394,-70.8952"/>
<polygon fill="#5b00c0" stroke="#5b00c0" points="2015.0332,-71.9245 2020.5,-81 2021.886,-70.4962 2015.0332,-71.9245"/>
<text text-anchor="middle" x="2017" y="-51.8" font-family="Times,serif" font-size="14.00" fill="#5b00c0">rw</text>
</g>
</g>
</svg>
