<?xml version="1.0" encoding="UTF-8" standalone="no"?>
<!DOCTYPE svg PUBLIC "-//W3C//DTD SVG 1.1//EN"
 "http://www.w3.org/Graphics/SVG/1.1/DTD/svg11.dtd">
<!-- Generated by graphviz version 2.40.1 (20161225.0304)
 -->
<!-- Title: a_graph Pages: 1 -->
<svg width="4832pt" height="281pt"
 viewBox="0.00 0.00 4832.00 281.00" xmlns="http://www.w3.org/2000/svg" xmlns:xlink="http://www.w3.org/1999/xlink">
<g id="graph0" class="graph" transform="scale(1 1) rotate(0) translate(4 277)">
<title>a_graph</title>
<polygon fill="#ffffff" stroke="transparent" points="-4,4 -4,-277 4828,-277 4828,4 -4,4"/>
<!-- T3121 -->
<g id="node1" class="node">
<title>T3121</title>
<polygon fill="none" stroke="#0058ad" points="431.5,-243.5 431.5,-272.5 2872.5,-272.5 2872.5,-243.5 431.5,-243.5"/>
<text text-anchor="middle" x="1002.5" y="-254.3" font-family="Times,serif" font-size="14.00" fill="#0058ad">r 20 [2 3 4 1 5 9 6 7 8 10 12 11 13 16 14 15 17 18 21 19 20 22 23 25 24 26 27 29 30 31 32 33 34 35 28 38 39 43 44 45 46 47 49 48 51 50 54 55 52 53 59 58 60 61 56 57 62 63 64 65 66 67 68 69 70 71 72]</text>
<polyline fill="none" stroke="#0058ad" points="1573.5,-243.5 1573.5,-272.5 "/>
<text text-anchor="middle" x="1602" y="-254.3" font-family="Times,serif" font-size="14.00" fill="#0058ad">a 21 15</text>
<polyline fill="none" stroke="#0058ad" points="1630.5,-243.5 1630.5,-272.5 "/>
<text text-anchor="middle" x="1680.5" y="-254.3" font-family="Times,serif" font-size="14.00" fill="#0058ad">r 3 [1 2 7 8 10]</text>
<polyline fill="none" stroke="#0058ad" points="1730.5,-243.5 1730.5,-272.5 "/>
<text text-anchor="middle" x="2301.5" y="-254.3" font-family="Times,serif" font-size="14.00" fill="#0058ad">r 20 [2 3 4 1 5 9 6 7 8 10 12 11 13 16 14 15 17 18 21 19 20 22 23 25 24 26 27 29 30 31 32 33 34 35 28 38 39 43 44 45 46 47 49 48 51 50 54 55 52 53 59 58 60 61 56 57 62 63 64 65 66 67 68 69 70 71 72]</text>
</g>
<!-- T3123 -->
<g id="node2" class="node">
<title>T3123</title>
<polygon fill="none" stroke="#0058ad" points="973.5,-162.5 973.5,-191.5 4786.5,-191.5 4786.5,-162.5 973.5,-162.5"/>
<text text-anchor="middle" x="1002" y="-173.3" font-family="Times,serif" font-size="14.00" fill="#0058ad">a 20 73</text>
<polyline fill="none" stroke="#0058ad" points="1030.5,-162.5 1030.5,-191.5 "/>
<text text-anchor="middle" x="1610.5" y="-173.3" font-family="Times,serif" font-size="14.00" fill="#0058ad">r 20 [2 3 4 1 5 9 6 7 8 10 12 11 13 16 14 15 17 18 21 19 20 22 23 25 24 26 27 29 30 31 32 33 34 35 28 38 39 43 44 45 46 47 49 48 51 50 54 55 52 53 59 58 60 61 56 57 62 63 64 65 66 67 68 69 70 71 72 73]</text>
<polyline fill="none" stroke="#0058ad" points="2190.5,-162.5 2190.5,-191.5 "/>
<text text-anchor="middle" x="2908.5" y="-173.3" font-family="Times,serif" font-size="14.00" fill="#0058ad">r 19 [1 2 4 5 6 3 7 8 9 10 12 15 17 16 18 19 20 22 23 24 25 26 28 29 30 31 32 33 34 35 36 37 38 39 40 41 42 43 44 45 46 47 49 50 48 51 52 53 55 56 54 57 58 59 60 61 63 64 62 66 69 70 73 67 75 76 77 78 81 80 79 82 83 84 85 86 87 88 89 90 91 92 95 93]</text>
<polyline fill="none" stroke="#0058ad" points="3626.5,-162.5 3626.5,-191.5 "/>
<text text-anchor="middle" x="4206.5" y="-173.3" font-family="Times,serif" font-size="14.00" fill="#0058ad">r 20 [2 3 4 1 5 9 6 7 8 10 12 11 13 16 14 15 17 18 21 19 20 22 23 25 24 26 27 29 30 31 32 33 34 35 28 38 39 43 44 45 46 47 49 48 51 50 54 55 52 53 59 58 60 61 56 57 62 63 64 65 66 67 68 69 70 71 72 73]</text>
</g>
<!-- T3121&#45;&gt;T3123 -->
<g id="edge1" class="edge">
<title>T3121:f0&#45;&gt;T3123:f0</title>
<path fill="none" stroke="#5b00c0" d="M1002,-243C1002,-224.2292 1002,-217.1168 1002,-202.3535"/>
<polygon fill="#5b00c0" stroke="#5b00c0" points="1005.5001,-202 1002,-192 998.5001,-202 1005.5001,-202"/>
<text text-anchor="middle" x="1009.5" y="-213.8" font-family="Times,serif" font-size="14.00" fill="#5b00c0">rw</text>
</g>
<!-- T3115 -->
<g id="node4" class="node">
<title>T3115</title>
<polygon fill="none" stroke="#0058ad" points="0,-81.5 0,-110.5 2682,-110.5 2682,-81.5 0,-81.5"/>
<text text-anchor="middle" x="562.5" y="-92.3" font-family="Times,serif" font-size="14.00" fill="#0058ad">r 20 [2 3 4 1 5 9 6 7 8 10 12 11 13 16 14 15 17 18 21 19 20 22 23 25 24 26 27 29 30 31 32 33 34 35 28 38 39 43 44 45 46 47 49 48 51 50 54 55 52 53 59 58 60 61 56 57 62 63 64 65 66 67 68 69 70 71]</text>
<polyline fill="none" stroke="#0058ad" points="1125,-81.5 1125,-110.5 "/>
<text text-anchor="middle" x="1843" y="-92.3" font-family="Times,serif" font-size="14.00" fill="#0058ad">r 19 [1 2 4 5 6 3 7 8 9 10 12 15 17 16 18 19 20 22 23 24 25 26 28 29 30 31 32 33 34 35 36 37 38 39 40 41 42 43 44 45 46 47 49 50 48 51 52 53 55 56 54 57 58 59 60 61 63 64 62 66 69 70 73 67 75 76 77 78 81 80 79 82 83 84 85 86 87 88 89 90 91 92 95 93]</text>
<polyline fill="none" stroke="#0058ad" points="2561,-81.5 2561,-110.5 "/>
<text text-anchor="middle" x="2593" y="-92.3" font-family="Times,serif" font-size="14.00" fill="#0058ad">a 16 102</text>
<polyline fill="none" stroke="#0058ad" points="2625,-81.5 2625,-110.5 "/>
<text text-anchor="middle" x="2653.5" y="-92.3" font-family="Times,serif" font-size="14.00" fill="#0058ad">a 19 94</text>
</g>
<!-- T3123&#45;&gt;T3115 -->
<g id="edge2" class="edge">
<title>T3123:f2&#45;&gt;T3115:f3</title>
<path fill="none" stroke="#5b00c0" d="M2909,-162C2909,-159.1078 2735.4153,-110.1006 2691.8092,-98.4641"/>
<polygon fill="#5b00c0" stroke="#5b00c0" points="2692.5514,-95.0419 2682,-96 2690.8459,-101.831 2692.5514,-95.0419"/>
<text text-anchor="middle" x="2855.5" y="-132.8" font-family="Times,serif" font-size="14.00" fill="#5b00c0">rw</text>
</g>
<!-- T3113 -->
<g id="node3" class="node">
<title>T3113</title>
<polygon fill="none" stroke="#0058ad" points="898.5,-.5 898.5,-29.5 3827.5,-29.5 3827.5,-.5 898.5,-.5"/>
<text text-anchor="middle" x="1616.5" y="-11.3" font-family="Times,serif" font-size="14.00" fill="#0058ad">r 19 [1 2 4 5 6 3 7 8 9 10 12 15 17 16 18 19 20 22 23 24 25 26 28 29 30 31 32 33 34 35 36 37 38 39 40 41 42 43 44 45 46 47 49 50 48 51 52 53 55 56 54 57 58 59 60 61 63 64 62 66 69 70 73 67 75 76 77 78 81 80 79 82 83 84 85 86 87 88 89 90 91 92 95 93]</text>
<polyline fill="none" stroke="#0058ad" points="2334.5,-.5 2334.5,-29.5 "/>
<text text-anchor="middle" x="3052.5" y="-11.3" font-family="Times,serif" font-size="14.00" fill="#0058ad">r 19 [1 2 4 5 6 3 7 8 9 10 12 15 17 16 18 19 20 22 23 24 25 26 28 29 30 31 32 33 34 35 36 37 38 39 40 41 42 43 44 45 46 47 49 50 48 51 52 53 55 56 54 57 58 59 60 61 63 64 62 66 69 70 73 67 75 76 77 78 81 80 79 82 83 84 85 86 87 88 89 90 91 92 95 93]</text>
<polyline fill="none" stroke="#0058ad" points="3770.5,-.5 3770.5,-29.5 "/>
<text text-anchor="middle" x="3799" y="-11.3" font-family="Times,serif" font-size="14.00" fill="#0058ad">a 20 72</text>
</g>
<!-- T3113&#45;&gt;T3121 -->
<g id="edge3" class="edge">
<title>T3113:f2&#45;&gt;T3121:f0</title>
<path fill="none" stroke="#c000a5" d="M3828,-15C4046.6776,-15 4949.5857,-36.3359 4796,-192 4723.818,-265.1588 1185.0112,-143.9208 1008.8068,-235.5561"/>
<polygon fill="#c000a5" stroke="#c000a5" points="1006.1653,-233.2583 1002,-243 1011.3312,-237.982 1006.1653,-233.2583"/>
<text text-anchor="middle" x="4816.5" y="-132.8" font-family="Times,serif" font-size="14.00" fill="#c000a5">wr</text>
</g>
<!-- T3113&#45;&gt;T3123 -->
<g id="edge5" class="edge">
<title>T3113:f2&#45;&gt;T3123:f0</title>
<path fill="none" stroke="#c02700" d="M3799,-30C3799,-153.4396 2814.2755,-104.6357 2691,-111 2646.0928,-113.3184 1137.0998,-114.9227 1010.4472,-156.3231"/>
<polygon fill="#c02700" stroke="#c02700" points="1008.3476,-153.5171 1002,-162 1012.2521,-159.327 1008.3476,-153.5171"/>
<text text-anchor="middle" x="3716" y="-92.3" font-family="Times,serif" font-size="14.00" fill="#c02700">ww</text>
</g>
<!-- T3113&#45;&gt;T3115 -->
<g id="edge4" class="edge">
<title>T3113:f0&#45;&gt;T3115:f3</title>
<path fill="none" stroke="#5b00c0" d="M1616,-30C1616,-257.4492 2622.814,137.6529 2653.2937,-70.9495"/>
<polygon fill="#5b00c0" stroke="#5b00c0" points="2649.8075,-71.27 2654,-81 2656.7903,-70.7792 2649.8075,-71.27"/>
<text text-anchor="middle" x="2656.5" y="-51.8" font-family="Times,serif" font-size="14.00" fill="#5b00c0">rw</text>
</g>
<!-- T3115&#45;&gt;T3121 -->
<g id="edge6" class="edge">
<title>T3115&#45;&gt;T3121</title>
<path fill="none" stroke="#0050c0" d="M1206.5931,-110.5128C1102.1861,-123.1758 972.4202,-142.5254 956,-162 947.4052,-172.1935 947.028,-182.1369 956,-192 971.579,-209.1262 1215.883,-229.2858 1410.6993,-242.7774"/>
<polygon fill="#0050c0" stroke="#0050c0" points="1410.5976,-246.2786 1420.8147,-243.475 1411.0793,-239.2952 1410.5976,-246.2786"/>
<text text-anchor="middle" x="960.5" y="-173.3" font-family="Times,serif" font-size="14.00" fill="#0050c0">rt</text>
</g>
<!-- T3115&#45;&gt;T3113 -->
<g id="edge7" class="edge">
<title>T3115:f0&#45;&gt;T3113:f2</title>
<path fill="none" stroke="#5b00c0" d="M562,-81C562,34.5027 1485.5204,-50.3064 1601,-48 1615.6503,-47.7074 3627.6851,-45.4556 3788.7816,-31.7725"/>
<polygon fill="#5b00c0" stroke="#5b00c0" points="3789.7453,-35.1577 3799,-30 3788.5489,-28.2607 3789.7453,-35.1577"/>
<text text-anchor="middle" x="1608.5" y="-51.8" font-family="Times,serif" font-size="14.00" fill="#5b00c0">rw</text>
</g>
</g>
</svg>
