<?xml version="1.0" encoding="UTF-8" standalone="no"?>
<!DOCTYPE svg PUBLIC "-//W3C//DTD SVG 1.1//EN"
 "http://www.w3.org/Graphics/SVG/1.1/DTD/svg11.dtd">
<!-- Generated by graphviz version 2.40.1 (20161225.0304)
 -->
<!-- Title: a_graph Pages: 1 -->
<svg width="268pt" height="281pt"
 viewBox="0.00 0.00 267.50 281.00" xmlns="http://www.w3.org/2000/svg" xmlns:xlink="http://www.w3.org/1999/xlink">
<g id="graph0" class="graph" transform="scale(1 1) rotate(0) translate(4 277)">
<title>a_graph</title>
<polygon fill="#ffffff" stroke="transparent" points="-4,4 -4,-277 263.5,-277 263.5,4 -4,4"/>
<!-- T19 -->
<g id="node1" class="node">
<title>T19</title>
<polygon fill="none" stroke="#0058ad" points="129,-243.5 129,-272.5 183,-272.5 183,-243.5 129,-243.5"/>
<text text-anchor="middle" x="156" y="-254.3" font-family="Times,serif" font-size="14.00" fill="#0058ad">a 9 6</text>
</g>
<!-- T24 -->
<g id="node3" class="node">
<title>T24</title>
<polygon fill="none" stroke="#0058ad" points="52,-162.5 52,-191.5 146,-191.5 146,-162.5 52,-162.5"/>
<text text-anchor="middle" x="74" y="-173.3" font-family="Times,serif" font-size="14.00" fill="#0058ad">r 7 []</text>
<polyline fill="none" stroke="#0058ad" points="96,-162.5 96,-191.5 "/>
<text text-anchor="middle" x="121" y="-173.3" font-family="Times,serif" font-size="14.00" fill="#0058ad">a 9 16</text>
</g>
<!-- T19&#45;&gt;T24 -->
<g id="edge1" class="edge">
<title>T19:f0&#45;&gt;T24:f1</title>
<path fill="none" stroke="#c02700" d="M142.9673,-243.4304C134.7266,-232.9462 125.0696,-217.8978 121.9934,-201.9859"/>
<polygon fill="#c02700" stroke="#c02700" points="125.4728,-201.6044 121,-192 118.5072,-202.2974 125.4728,-201.6044"/>
<text text-anchor="middle" x="140" y="-213.8" font-family="Times,serif" font-size="14.00" fill="#c02700">ww</text>
</g>
<!-- T29 -->
<g id="node2" class="node">
<title>T29</title>
<polygon fill="none" stroke="#0058ad" points="0,-81.5 0,-110.5 132,-110.5 132,-81.5 0,-81.5"/>
<text text-anchor="middle" x="22" y="-92.3" font-family="Times,serif" font-size="14.00" fill="#0058ad">r 7 []</text>
<polyline fill="none" stroke="#0058ad" points="44,-81.5 44,-110.5 "/>
<text text-anchor="middle" x="66" y="-92.3" font-family="Times,serif" font-size="14.00" fill="#0058ad">r 6 []</text>
<polyline fill="none" stroke="#0058ad" points="88,-81.5 88,-110.5 "/>
<text text-anchor="middle" x="110" y="-92.3" font-family="Times,serif" font-size="14.00" fill="#0058ad">r 8 []</text>
</g>
<!-- T27 -->
<g id="node4" class="node">
<title>T27</title>
<polygon fill="none" stroke="#0058ad" points="76.5,-.5 76.5,-29.5 259.5,-29.5 259.5,-.5 76.5,-.5"/>
<text text-anchor="middle" x="98.5" y="-11.3" font-family="Times,serif" font-size="14.00" fill="#0058ad">a 8 6</text>
<polyline fill="none" stroke="#0058ad" points="120.5,-.5 120.5,-29.5 "/>
<text text-anchor="middle" x="146" y="-11.3" font-family="Times,serif" font-size="14.00" fill="#0058ad">r 8 [6]</text>
<polyline fill="none" stroke="#0058ad" points="171.5,-.5 171.5,-29.5 "/>
<text text-anchor="middle" x="193.5" y="-11.3" font-family="Times,serif" font-size="14.00" fill="#0058ad">r 9 []</text>
<polyline fill="none" stroke="#0058ad" points="215.5,-.5 215.5,-29.5 "/>
<text text-anchor="middle" x="237.5" y="-11.3" font-family="Times,serif" font-size="14.00" fill="#0058ad">a 8 7</text>
</g>
<!-- T29&#45;&gt;T27 -->
<g id="edge2" class="edge">
<title>T29:f2&#45;&gt;T27:f0</title>
<path fill="none" stroke="#5b00c0" d="M110,-81C110,-61.5346 101.6145,-55.2464 98.863,-40.1048"/>
<polygon fill="#5b00c0" stroke="#5b00c0" points="102.3384,-39.6659 98,-30 95.3638,-40.2616 102.3384,-39.6659"/>
<text text-anchor="middle" x="114.5" y="-51.8" font-family="Times,serif" font-size="14.00" fill="#5b00c0">rw</text>
</g>
<!-- T24&#45;&gt;T29 -->
<g id="edge3" class="edge">
<title>T24&#45;&gt;T29</title>
<path fill="none" stroke="#0050c0" d="M92.9473,-162.1434C88.156,-150.3828 81.368,-133.7216 75.8037,-120.0637"/>
<polygon fill="#0050c0" stroke="#0050c0" points="79.0287,-118.7028 72.0143,-110.7625 72.546,-121.344 79.0287,-118.7028"/>
<text text-anchor="middle" x="90.5" y="-132.8" font-family="Times,serif" font-size="14.00" fill="#0050c0">rt</text>
</g>
<!-- T27&#45;&gt;T19 -->
<g id="edge4" class="edge">
<title>T27:f2&#45;&gt;T19:f0</title>
<path fill="none" stroke="#5b00c0" d="M194,-30C194,-105.1238 173.6795,-192.2996 162.7579,-233.7286"/>
<polygon fill="#5b00c0" stroke="#5b00c0" points="159.3554,-232.9037 160.139,-243.4695 166.1154,-234.7212 159.3554,-232.9037"/>
<text text-anchor="middle" x="192.5" y="-132.8" font-family="Times,serif" font-size="14.00" fill="#5b00c0">rw</text>
</g>
</g>
</svg>
