<?xml version="1.0" encoding="UTF-8" standalone="no"?>
<!DOCTYPE svg PUBLIC "-//W3C//DTD SVG 1.1//EN"
 "http://www.w3.org/Graphics/SVG/1.1/DTD/svg11.dtd">
<!-- Generated by graphviz version 2.40.1 (20161225.0304)
 -->
<!-- Title: a_graph Pages: 1 -->
<svg width="1371pt" height="119pt"
 viewBox="0.00 0.00 1371.00 119.00" xmlns="http://www.w3.org/2000/svg" xmlns:xlink="http://www.w3.org/1999/xlink">
<g id="graph0" class="graph" transform="scale(1 1) rotate(0) translate(4 115)">
<title>a_graph</title>
<polygon fill="#ffffff" stroke="transparent" points="-4,4 -4,-115 1367,-115 1367,4 -4,4"/>
<!-- T16007 -->
<g id="node1" class="node">
<title>T16007</title>
<polygon fill="none" stroke="#0058ad" points="0,-81.5 0,-110.5 1363,-110.5 1363,-81.5 0,-81.5"/>
<text text-anchor="middle" x="28.5" y="-92.3" font-family="Times,serif" font-size="14.00" fill="#0058ad">a 83 14</text>
<polyline fill="none" stroke="#0058ad" points="57,-81.5 57,-110.5 "/>
<text text-anchor="middle" x="85.5" y="-92.3" font-family="Times,serif" font-size="14.00" fill="#0058ad">a 69 62</text>
<polyline fill="none" stroke="#0058ad" points="114,-81.5 114,-110.5 "/>
<text text-anchor="middle" x="640" y="-92.3" font-family="Times,serif" font-size="14.00" fill="#0058ad">r 81 [3 4 5 6 8 9 10 11 12 7 13 14 15 16 17 19 20 21 22 23 24 25 26 28 27 30 32 33 34 36 37 38 41 42 43 44 45 46 47 48 50 51 52 54 55 53 56 57 61 62 63 64 66 68 65 70 71 72 73 74 75]</text>
<polyline fill="none" stroke="#0058ad" points="1166,-81.5 1166,-110.5 "/>
<text text-anchor="middle" x="1264.5" y="-92.3" font-family="Times,serif" font-size="14.00" fill="#0058ad">r 83 [1 4 5 6 7 8 10 11 12 13 14]</text>
</g>
<!-- T16006 -->
<g id="node2" class="node">
<title>T16006</title>
<polygon fill="none" stroke="#0058ad" points="247,-.5 247,-29.5 540,-29.5 540,-.5 247,-.5"/>
<text text-anchor="middle" x="275.5" y="-11.3" font-family="Times,serif" font-size="14.00" fill="#0058ad">a 81 76</text>
<polyline fill="none" stroke="#0058ad" points="304,-.5 304,-29.5 "/>
<text text-anchor="middle" x="393.5" y="-11.3" font-family="Times,serif" font-size="14.00" fill="#0058ad">r 83 [1 4 5 6 7 8 10 11 12 13]</text>
<polyline fill="none" stroke="#0058ad" points="483,-.5 483,-29.5 "/>
<text text-anchor="middle" x="511.5" y="-11.3" font-family="Times,serif" font-size="14.00" fill="#0058ad">a 80 59</text>
</g>
<!-- T16007&#45;&gt;T16006 -->
<g id="edge1" class="edge">
<title>T16007:f2&#45;&gt;T16006:f0</title>
<path fill="none" stroke="#5b00c0" d="M639.5,-81C639.5,78.6888 291.6679,-181.1938 276.0427,-40.3529"/>
<polygon fill="#5b00c0" stroke="#5b00c0" points="279.5187,-39.8031 275.5,-30 272.5283,-40.1695 279.5187,-39.8031"/>
<text text-anchor="middle" x="643" y="-51.8" font-family="Times,serif" font-size="14.00" fill="#5b00c0">rw</text>
</g>
<!-- T16006&#45;&gt;T16007 -->
<g id="edge2" class="edge">
<title>T16006:f1&#45;&gt;T16007:f0</title>
<path fill="none" stroke="#5b00c0" d="M393.5,-30C393.5,-45.0226 274.3804,-45.9377 259.5,-48 160.3844,-61.7365 37.4876,16.8588 28.9689,-70.7489"/>
<polygon fill="#5b00c0" stroke="#5b00c0" points="25.4607,-70.8505 28.5,-81 32.4534,-71.1704 25.4607,-70.8505"/>
<text text-anchor="middle" x="267" y="-51.8" font-family="Times,serif" font-size="14.00" fill="#5b00c0">rw</text>
</g>
</g>
</svg>
