<?xml version="1.0" encoding="UTF-8" standalone="no"?>
<!DOCTYPE svg PUBLIC "-//W3C//DTD SVG 1.1//EN"
 "http://www.w3.org/Graphics/SVG/1.1/DTD/svg11.dtd">
<!-- Generated by graphviz version 2.40.1 (20161225.0304)
 -->
<!-- Title: a_graph Pages: 1 -->
<svg width="2676pt" height="119pt"
 viewBox="0.00 0.00 2676.00 119.00" xmlns="http://www.w3.org/2000/svg" xmlns:xlink="http://www.w3.org/1999/xlink">
<g id="graph0" class="graph" transform="scale(1 1) rotate(0) translate(4 115)">
<title>a_graph</title>
<polygon fill="#ffffff" stroke="transparent" points="-4,4 -4,-115 2672,-115 2672,4 -4,4"/>
<!-- T6791 -->
<g id="node1" class="node">
<title>T6791</title>
<polygon fill="none" stroke="#0058ad" points="2409.5,-81.5 2409.5,-110.5 2632.5,-110.5 2632.5,-81.5 2409.5,-81.5"/>
<text text-anchor="middle" x="2438" y="-92.3" font-family="Times,serif" font-size="14.00" fill="#0058ad">a 37 60</text>
<polyline fill="none" stroke="#0058ad" points="2466.5,-81.5 2466.5,-110.5 "/>
<text text-anchor="middle" x="2549.5" y="-92.3" font-family="Times,serif" font-size="14.00" fill="#0058ad">r 38 [3 1 2 4 5 6 7 8 10 11]</text>
</g>
<!-- T6789 -->
<g id="node2" class="node">
<title>T6789</title>
<polygon fill="none" stroke="#0058ad" points="0,-.5 0,-29.5 2668,-29.5 2668,-.5 0,-.5"/>
<text text-anchor="middle" x="850" y="-11.3" font-family="Times,serif" font-size="14.00" fill="#0058ad">r 31 [1 2 3 4 5 6 7 8 12 13 11 14 15 16 17 18 19 20 21 22 24 23 25 27 28 29 26 30 31 32 33 34 35 36 37 39 41 40 42 43 44 45 46 47 48 49 50 52 53 54 51 55 56 57 58 59 60 61 65 66 67 68 69 71 70 72 74 75 76 77 78 79 80 81 82 83 84 85 86 87 88 90 89 91 92 93 94 95 97 96 98 99 101 103 105 106 108]</text>
<polyline fill="none" stroke="#0058ad" points="1700,-.5 1700,-29.5 "/>
<text text-anchor="middle" x="2159" y="-11.3" font-family="Times,serif" font-size="14.00" fill="#0058ad">r 37 [1 2 3 4 5 7 6 8 9 11 10 14 12 13 16 17 15 19 20 21 22 18 23 24 25 26 27 28 29 30 31 32 33 36 35 34 37 39 38 40 41 42 43 45 46 47 44 49 51 52 55 56 57 58]</text>
<polyline fill="none" stroke="#0058ad" points="2618,-.5 2618,-29.5 "/>
<text text-anchor="middle" x="2643" y="-11.3" font-family="Times,serif" font-size="14.00" fill="#0058ad">a 38 9</text>
</g>
<!-- T6791&#45;&gt;T6789 -->
<g id="edge1" class="edge">
<title>T6791:f1&#45;&gt;T6789:f2</title>
<path fill="none" stroke="#5b00c0" d="M2550,-81C2550,-37.7265 2628.368,-70.6481 2641.2252,-39.8754"/>
<polygon fill="#5b00c0" stroke="#5b00c0" points="2644.6759,-40.4614 2643,-30 2637.7863,-39.2232 2644.6759,-40.4614"/>
<text text-anchor="middle" x="2640.5" y="-51.8" font-family="Times,serif" font-size="14.00" fill="#5b00c0">rw</text>
</g>
<!-- T6789&#45;&gt;T6791 -->
<g id="edge2" class="edge">
<title>T6789:f1&#45;&gt;T6791:f0</title>
<path fill="none" stroke="#5b00c0" d="M2159,-30C2159,-84.4289 2331.7694,-94.9631 2398.8309,-95.9228"/>
<polygon fill="#5b00c0" stroke="#5b00c0" points="2398.9737,-99.4239 2409,-96 2399.0269,-92.4241 2398.9737,-99.4239"/>
<text text-anchor="middle" x="2190.5" y="-51.8" font-family="Times,serif" font-size="14.00" fill="#5b00c0">rw</text>
</g>
</g>
</svg>
