<?xml version="1.0" encoding="UTF-8" standalone="no"?>
<!DOCTYPE svg PUBLIC "-//W3C//DTD SVG 1.1//EN"
 "http://www.w3.org/Graphics/SVG/1.1/DTD/svg11.dtd">
<!-- Generated by graphviz version 2.40.1 (20161225.0304)
 -->
<!-- Title: a_graph Pages: 1 -->
<svg width="1165pt" height="119pt"
 viewBox="0.00 0.00 1165.00 119.00" xmlns="http://www.w3.org/2000/svg" xmlns:xlink="http://www.w3.org/1999/xlink">
<g id="graph0" class="graph" transform="scale(1 1) rotate(0) translate(4 115)">
<title>a_graph</title>
<polygon fill="#ffffff" stroke="transparent" points="-4,4 -4,-115 1161,-115 1161,4 -4,4"/>
<!-- T5137 -->
<g id="node1" class="node">
<title>T5137</title>
<polygon fill="none" stroke="#0058ad" points="571.5,-81.5 571.5,-110.5 707.5,-110.5 707.5,-81.5 571.5,-81.5"/>
<text text-anchor="middle" x="600" y="-92.3" font-family="Times,serif" font-size="14.00" fill="#0058ad">a 29 44</text>
<polyline fill="none" stroke="#0058ad" points="628.5,-81.5 628.5,-110.5 "/>
<text text-anchor="middle" x="668" y="-92.3" font-family="Times,serif" font-size="14.00" fill="#0058ad">r 31 [1 2 3]</text>
</g>
<!-- T5135 -->
<g id="node2" class="node">
<title>T5135</title>
<polygon fill="none" stroke="#0058ad" points="0,-.5 0,-29.5 1157,-29.5 1157,-.5 0,-.5"/>
<text text-anchor="middle" x="28.5" y="-11.3" font-family="Times,serif" font-size="14.00" fill="#0058ad">a 30 22</text>
<polyline fill="none" stroke="#0058ad" points="57,-.5 57,-29.5 "/>
<text text-anchor="middle" x="407.5" y="-11.3" font-family="Times,serif" font-size="14.00" fill="#0058ad">r 29 [1 4 5 3 6 7 8 9 10 12 13 14 15 16 17 18 19 20 21 22 24 23 26 27 25 28 30 31 29 32 33 34 35 36 37 38 39 40 41 42 43]</text>
<polyline fill="none" stroke="#0058ad" points="758,-.5 758,-29.5 "/>
<text text-anchor="middle" x="783" y="-11.3" font-family="Times,serif" font-size="14.00" fill="#0058ad">a 31 4</text>
<polyline fill="none" stroke="#0058ad" points="808,-.5 808,-29.5 "/>
<text text-anchor="middle" x="982.5" y="-11.3" font-family="Times,serif" font-size="14.00" fill="#0058ad">r 30 [2 3 4 5 1 6 7 8 9 10 11 12 13 16 17 15 14 19 20 21 22]</text>
</g>
<!-- T5137&#45;&gt;T5135 -->
<g id="edge1" class="edge">
<title>T5137:f1&#45;&gt;T5135:f2</title>
<path fill="none" stroke="#5b00c0" d="M707.5,-96C748.7418,-96 778.5329,-77.9294 782.936,-40.0564"/>
<polygon fill="#5b00c0" stroke="#5b00c0" points="786.4345,-40.1803 783.5,-30 779.4455,-39.7883 786.4345,-40.1803"/>
<text text-anchor="middle" x="788" y="-51.8" font-family="Times,serif" font-size="14.00" fill="#5b00c0">rw</text>
</g>
<!-- T5135&#45;&gt;T5137 -->
<g id="edge2" class="edge">
<title>T5135:f1&#45;&gt;T5137:f0</title>
<path fill="none" stroke="#5b00c0" d="M407.5,-30C407.5,-66.3693 514.3896,-91.9652 561.4271,-95.5643"/>
<polygon fill="#5b00c0" stroke="#5b00c0" points="561.3581,-99.0645 571.5,-96 561.6606,-92.071 561.3581,-99.0645"/>
<text text-anchor="middle" x="443" y="-51.8" font-family="Times,serif" font-size="14.00" fill="#5b00c0">rw</text>
</g>
</g>
</svg>
