<?xml version="1.0" encoding="UTF-8" standalone="no"?>
<!DOCTYPE svg PUBLIC "-//W3C//DTD SVG 1.1//EN"
 "http://www.w3.org/Graphics/SVG/1.1/DTD/svg11.dtd">
<!-- Generated by graphviz version 2.40.1 (20161225.0304)
 -->
<!-- Title: a_graph Pages: 1 -->
<svg width="385pt" height="119pt"
 viewBox="0.00 0.00 384.50 119.00" xmlns="http://www.w3.org/2000/svg" xmlns:xlink="http://www.w3.org/1999/xlink">
<g id="graph0" class="graph" transform="scale(1 1) rotate(0) translate(4 115)">
<title>a_graph</title>
<polygon fill="#ffffff" stroke="transparent" points="-4,4 -4,-115 380.5,-115 380.5,4 -4,4"/>
<!-- T2473 -->
<g id="node1" class="node">
<title>T2473</title>
<polygon fill="none" stroke="#0058ad" points="60.5,-81.5 60.5,-110.5 376.5,-110.5 376.5,-81.5 60.5,-81.5"/>
<text text-anchor="middle" x="89" y="-92.3" font-family="Times,serif" font-size="14.00" fill="#0058ad">a 18 10</text>
<polyline fill="none" stroke="#0058ad" points="117.5,-81.5 117.5,-110.5 "/>
<text text-anchor="middle" x="167.5" y="-92.3" font-family="Times,serif" font-size="14.00" fill="#0058ad">r 19 [1 2 4 5 6]</text>
<polyline fill="none" stroke="#0058ad" points="217.5,-81.5 217.5,-110.5 "/>
<text text-anchor="middle" x="297" y="-92.3" font-family="Times,serif" font-size="14.00" fill="#0058ad">r 18 [1 2 3 4 5 6 7 8 9 10]</text>
</g>
<!-- T2477 -->
<g id="node2" class="node">
<title>T2477</title>
<polygon fill="none" stroke="#0058ad" points="0,-.5 0,-29.5 359,-29.5 359,-.5 0,-.5"/>
<text text-anchor="middle" x="25" y="-11.3" font-family="Times,serif" font-size="14.00" fill="#0058ad">a 19 3</text>
<polyline fill="none" stroke="#0058ad" points="50,-.5 50,-29.5 "/>
<text text-anchor="middle" x="105" y="-11.3" font-family="Times,serif" font-size="14.00" fill="#0058ad">r 19 [1 2 4 5 6 3]</text>
<polyline fill="none" stroke="#0058ad" points="160,-.5 160,-29.5 "/>
<text text-anchor="middle" x="231" y="-11.3" font-family="Times,serif" font-size="14.00" fill="#0058ad">r 18 [1 2 3 4 5 6 7 8 9]</text>
<polyline fill="none" stroke="#0058ad" points="302,-.5 302,-29.5 "/>
<text text-anchor="middle" x="330.5" y="-11.3" font-family="Times,serif" font-size="14.00" fill="#0058ad">a 16 49</text>
</g>
<!-- T2473&#45;&gt;T2477 -->
<g id="edge1" class="edge">
<title>T2473:f1&#45;&gt;T2477:f0</title>
<path fill="none" stroke="#5b00c0" d="M167.5,-81C167.5,-54.7439 142.775,-58.0053 118.5,-48 102.216,-41.2883 48.438,-47.9343 30.4329,-38.3384"/>
<polygon fill="#5b00c0" stroke="#5b00c0" points="33.1493,-36.1189 24.5,-30 27.4457,-40.1771 33.1493,-36.1189"/>
<text text-anchor="middle" x="167" y="-51.8" font-family="Times,serif" font-size="14.00" fill="#5b00c0">rw</text>
</g>
<!-- T2477&#45;&gt;T2473 -->
<g id="edge2" class="edge">
<title>T2477:f2&#45;&gt;T2473:f0</title>
<path fill="none" stroke="#5b00c0" d="M231.5,-30C231.5,-59.6048 122.2894,-29.1033 99.5,-48 90.4813,-55.4782 88.8145,-61.6951 88.5361,-70.9959"/>
<polygon fill="#5b00c0" stroke="#5b00c0" points="85.0362,-70.9874 88.5,-81 92.0362,-71.0127 85.0362,-70.9874"/>
<text text-anchor="middle" x="107" y="-51.8" font-family="Times,serif" font-size="14.00" fill="#5b00c0">rw</text>
</g>
</g>
</svg>
