<?xml version="1.0" encoding="UTF-8" standalone="no"?>
<!DOCTYPE svg PUBLIC "-//W3C//DTD SVG 1.1//EN"
 "http://www.w3.org/Graphics/SVG/1.1/DTD/svg11.dtd">
<!-- Generated by graphviz version 2.40.1 (20161225.0304)
 -->
<!-- Title: a_graph Pages: 1 -->
<svg width="1633pt" height="119pt"
 viewBox="0.00 0.00 1633.37 119.00" xmlns="http://www.w3.org/2000/svg" xmlns:xlink="http://www.w3.org/1999/xlink">
<g id="graph0" class="graph" transform="scale(1 1) rotate(0) translate(4 115)">
<title>a_graph</title>
<polygon fill="#ffffff" stroke="transparent" points="-4,4 -4,-115 1629.3675,-115 1629.3675,4 -4,4"/>
<!-- T16947 -->
<g id="node1" class="node">
<title>T16947</title>
<polygon fill="none" stroke="#0058ad" points="841.5,-81.5 841.5,-110.5 1621.5,-110.5 1621.5,-81.5 841.5,-81.5"/>
<text text-anchor="middle" x="866.5" y="-92.3" font-family="Times,serif" font-size="14.00" fill="#0058ad">a 88 1</text>
<polyline fill="none" stroke="#0058ad" points="891.5,-81.5 891.5,-110.5 "/>
<text text-anchor="middle" x="920" y="-92.3" font-family="Times,serif" font-size="14.00" fill="#0058ad">a 85 95</text>
<polyline fill="none" stroke="#0058ad" points="948.5,-81.5 948.5,-110.5 "/>
<text text-anchor="middle" x="1285" y="-92.3" font-family="Times,serif" font-size="14.00" fill="#0058ad">r 87 [3 4 5 6 7 8 10 11 12 9 13 14 15 17 18 19 20 21 22 16 24 25 23 26 27 31 28 29 30 32 33 35 36 39 40 41 37 42 43]</text>
</g>
<!-- T16945 -->
<g id="node2" class="node">
<title>T16945</title>
<polygon fill="none" stroke="#0058ad" points="0,-.5 0,-29.5 1579,-29.5 1579,-.5 0,-.5"/>
<text text-anchor="middle" x="761" y="-11.3" font-family="Times,serif" font-size="14.00" fill="#0058ad">r 85 [1 2 3 4 5 6 7 8 9 10 11 13 14 12 15 19 20 21 24 22 23 25 26 27 28 29 30 31 32 33 34 35 36 37 38 40 39 41 42 43 44 45 46 47 48 50 49 51 52 53 54 55 56 57 58 60 61 59 62 63 64 65 66 67 69 70 71 68 72 73 74 75 76 77 78 80 81 83 84 85 87 86 88 90 89 91 92 93 94]</text>
<polyline fill="none" stroke="#0058ad" points="1522,-.5 1522,-29.5 "/>
<text text-anchor="middle" x="1550.5" y="-11.3" font-family="Times,serif" font-size="14.00" fill="#0058ad">a 87 38</text>
</g>
<!-- T16947&#45;&gt;T16945 -->
<g id="edge1" class="edge">
<title>T16947:f2&#45;&gt;T16945:f1</title>
<path fill="none" stroke="#5b00c0" d="M1621.5,-96C1628.1667,-96 1624.5427,-86.9318 1621.5,-81 1605.5686,-49.9409 1560.9535,-64.8859 1552.0553,-40.0657"/>
<polygon fill="#5b00c0" stroke="#5b00c0" points="1555.4861,-39.3482 1550.5,-30 1548.5682,-40.4172 1555.4861,-39.3482"/>
<text text-anchor="middle" x="1607" y="-51.8" font-family="Times,serif" font-size="14.00" fill="#5b00c0">rw</text>
</g>
<!-- T16945&#45;&gt;T16947 -->
<g id="edge2" class="edge">
<title>T16945:f0&#45;&gt;T16947:f1</title>
<path fill="none" stroke="#5b00c0" d="M760.5,-30C760.5,-100.4443 903.7616,-16.2393 918.3116,-70.977"/>
<polygon fill="#5b00c0" stroke="#5b00c0" points="914.8468,-71.4817 919.5,-81 921.7981,-70.6574 914.8468,-71.4817"/>
<text text-anchor="middle" x="920" y="-51.8" font-family="Times,serif" font-size="14.00" fill="#5b00c0">rw</text>
</g>
</g>
</svg>
