<?xml version="1.0" encoding="UTF-8" standalone="no"?>
<!DOCTYPE svg PUBLIC "-//W3C//DTD SVG 1.1//EN"
 "http://www.w3.org/Graphics/SVG/1.1/DTD/svg11.dtd">
<!-- Generated by graphviz version 2.40.1 (20161225.0304)
 -->
<!-- Title: a_graph Pages: 1 -->
<svg width="6396pt" height="200pt"
 viewBox="0.00 0.00 6395.50 200.00" xmlns="http://www.w3.org/2000/svg" xmlns:xlink="http://www.w3.org/1999/xlink">
<g id="graph0" class="graph" transform="scale(1 1) rotate(0) translate(4 196)">
<title>a_graph</title>
<polygon fill="#ffffff" stroke="transparent" points="-4,4 -4,-196 6391.5,-196 6391.5,4 -4,4"/>
<!-- T18397 -->
<g id="node1" class="node">
<title>T18397</title>
<polygon fill="none" stroke="#0058ad" points="2222.5,-162.5 2222.5,-191.5 4910.5,-191.5 4910.5,-162.5 2222.5,-162.5"/>
<text text-anchor="middle" x="2866" y="-173.3" font-family="Times,serif" font-size="14.00" fill="#0058ad">r 92 [1 2 3 4 5 6 7 9 10 11 12 13 14 15 16 17 18 19 22 21 23 24 25 26 27 28 31 32 34 35 36 37 38 39 40 41 42 43 44 45 46 47 48 49 50 51 52 53 54 55 56 57 58 59 60 61 62 63 64 65 67 66 68 72 69 70 71 73 74 75 76 77 78 79 80]</text>
<polyline fill="none" stroke="#0058ad" points="3509.5,-162.5 3509.5,-191.5 "/>
<text text-anchor="middle" x="3538" y="-173.3" font-family="Times,serif" font-size="14.00" fill="#0058ad">a 93 89</text>
<polyline fill="none" stroke="#0058ad" points="3566.5,-162.5 3566.5,-191.5 "/>
<text text-anchor="middle" x="3595" y="-173.3" font-family="Times,serif" font-size="14.00" fill="#0058ad">a 93 90</text>
<polyline fill="none" stroke="#0058ad" points="3623.5,-162.5 3623.5,-191.5 "/>
<text text-anchor="middle" x="4267" y="-173.3" font-family="Times,serif" font-size="14.00" fill="#0058ad">r 92 [1 2 3 4 5 6 7 9 10 11 12 13 14 15 16 17 18 19 22 21 23 24 25 26 27 28 31 32 34 35 36 37 38 39 40 41 42 43 44 45 46 47 48 49 50 51 52 53 54 55 56 57 58 59 60 61 62 63 64 65 67 66 68 72 69 70 71 73 74 75 76 77 78 79 80]</text>
</g>
<!-- T18393 -->
<g id="node2" class="node">
<title>T18393</title>
<polygon fill="none" stroke="#0058ad" points="0,-81.5 0,-110.5 4347,-110.5 4347,-81.5 0,-81.5"/>
<text text-anchor="middle" x="726.5" y="-92.3" font-family="Times,serif" font-size="14.00" fill="#0058ad">r 93 [1 2 3 4 5 6 7 8 9 11 12 13 14 16 17 18 19 21 22 23 24 26 27 28 29 30 25 31 33 34 35 36 37 38 39 40 41 42 43 44 45 46 47 48 49 50 52 51 53 54 55 56 58 59 60 57 61 62 63 64 65 66 67 68 69 70 71 72 73 74 75 76 77 78 79 80 81 82 83 84 85 86 87 88 91]</text>
<polyline fill="none" stroke="#0058ad" points="1453,-81.5 1453,-110.5 "/>
<text text-anchor="middle" x="2145" y="-92.3" font-family="Times,serif" font-size="14.00" fill="#0058ad">r 84 [1 2 3 4 5 6 7 8 9 10 11 12 13 14 16 17 18 19 20 21 22 23 24 25 26 27 28 29 30 31 32 33 34 35 36 37 38 39 40 42 43 44 45 46 48 49 50 51 52 53 54 55 56 58 59 60 61 62 63 64 65 68 67 69 70 73 74 76 77 75 78 79 80 81 82 83 84 85 86 87 88]</text>
<polyline fill="none" stroke="#0058ad" points="2837,-81.5 2837,-110.5 "/>
<text text-anchor="middle" x="2865.5" y="-92.3" font-family="Times,serif" font-size="14.00" fill="#0058ad">a 92 81</text>
<polyline fill="none" stroke="#0058ad" points="2894,-81.5 2894,-110.5 "/>
<text text-anchor="middle" x="3620.5" y="-92.3" font-family="Times,serif" font-size="14.00" fill="#0058ad">r 93 [1 2 3 4 5 6 7 8 9 11 12 13 14 16 17 18 19 21 22 23 24 26 27 28 29 30 25 31 33 34 35 36 37 38 39 40 41 42 43 44 45 46 47 48 49 50 52 51 53 54 55 56 58 59 60 57 61 62 63 64 65 66 67 68 69 70 71 72 73 74 75 76 77 78 79 80 81 82 83 84 85 86 87 88 91]</text>
</g>
<!-- T18397&#45;&gt;T18393 -->
<g id="edge1" class="edge">
<title>T18397:f0&#45;&gt;T18393:f2</title>
<path fill="none" stroke="#5b00c0" d="M2865.5,-162C2865.5,-143.2292 2865.5,-136.1168 2865.5,-121.3535"/>
<polygon fill="#5b00c0" stroke="#5b00c0" points="2869.0001,-121 2865.5,-111 2862.0001,-121 2869.0001,-121"/>
<text text-anchor="middle" x="2873" y="-132.8" font-family="Times,serif" font-size="14.00" fill="#5b00c0">rw</text>
</g>
<!-- T18393&#45;&gt;T18397 -->
<g id="edge3" class="edge">
<title>T18393:f0&#45;&gt;T18397:f1</title>
<path fill="none" stroke="#5b00c0" d="M726.5,-111C726.5,-125.9866 2869.5199,-128.5592 2884.5,-129 3026.1877,-133.1692 3512.9228,-22.3236 3536.6047,-151.8209"/>
<polygon fill="#5b00c0" stroke="#5b00c0" points="3533.1372,-152.3451 3537.5,-162 3540.1103,-151.7318 3533.1372,-152.3451"/>
<text text-anchor="middle" x="3539" y="-132.8" font-family="Times,serif" font-size="14.00" fill="#5b00c0">rw</text>
</g>
<!-- T18399 -->
<g id="node3" class="node">
<title>T18399</title>
<polygon fill="none" stroke="#0058ad" points="3367.5,-.5 3367.5,-29.5 6387.5,-29.5 6387.5,-.5 3367.5,-.5"/>
<text text-anchor="middle" x="3396" y="-11.3" font-family="Times,serif" font-size="14.00" fill="#0058ad">a 92 82</text>
<polyline fill="none" stroke="#0058ad" points="3424.5,-.5 3424.5,-29.5 "/>
<text text-anchor="middle" x="3453" y="-11.3" font-family="Times,serif" font-size="14.00" fill="#0058ad">a 92 83</text>
<polyline fill="none" stroke="#0058ad" points="3481.5,-.5 3481.5,-29.5 "/>
<text text-anchor="middle" x="4208" y="-11.3" font-family="Times,serif" font-size="14.00" fill="#0058ad">r 93 [1 2 3 4 5 6 7 8 9 11 12 13 14 16 17 18 19 21 22 23 24 26 27 28 29 30 25 31 33 34 35 36 37 38 39 40 41 42 43 44 45 46 47 48 49 50 52 51 53 54 55 56 58 59 60 57 61 62 63 64 65 66 67 68 69 70 71 72 73 74 75 76 77 78 79 80 81 82 83 84 85 86 87 88 91]</text>
<polyline fill="none" stroke="#0058ad" points="4934.5,-.5 4934.5,-29.5 "/>
<text text-anchor="middle" x="5661" y="-11.3" font-family="Times,serif" font-size="14.00" fill="#0058ad">r 93 [1 2 3 4 5 6 7 8 9 11 12 13 14 16 17 18 19 21 22 23 24 26 27 28 29 30 25 31 33 34 35 36 37 38 39 40 41 42 43 44 45 46 47 48 49 50 52 51 53 54 55 56 58 59 60 57 61 62 63 64 65 66 67 68 69 70 71 72 73 74 75 76 77 78 79 80 81 82 83 84 85 86 87 88 91]</text>
</g>
<!-- T18393&#45;&gt;T18399 -->
<g id="edge2" class="edge">
<title>T18393:f2&#45;&gt;T18399:f0</title>
<path fill="none" stroke="#c02700" d="M2865.5,-81C2865.5,-27.3244 3271.2635,-15.9923 3357.3728,-15.0651"/>
<polygon fill="#c02700" stroke="#c02700" points="3357.5227,-18.5643 3367.5,-15 3357.4777,-11.5645 3357.5227,-18.5643"/>
<text text-anchor="middle" x="2940.5" y="-51.8" font-family="Times,serif" font-size="14.00" fill="#c02700">ww</text>
</g>
<!-- T18399&#45;&gt;T18397 -->
<g id="edge4" class="edge">
<title>T18399:f2&#45;&gt;T18397:f1</title>
<path fill="none" stroke="#5b00c0" d="M4207.5,-30C4207.5,-99.994 4315.8022,-24.054 4356.5,-81 4364.2526,-91.8478 4365.6304,-101.2833 4356.5,-111 4296.5031,-174.8491 3595.5474,-78.8894 3540.8768,-152.1986"/>
<polygon fill="#5b00c0" stroke="#5b00c0" points="3537.4483,-151.4053 3537.5,-162 3544.0665,-153.6855 3537.4483,-151.4053"/>
<text text-anchor="middle" x="4370" y="-92.3" font-family="Times,serif" font-size="14.00" fill="#5b00c0">rw</text>
</g>
</g>
</svg>
