<?xml version="1.0" encoding="UTF-8" standalone="no"?>
<!DOCTYPE svg PUBLIC "-//W3C//DTD SVG 1.1//EN"
 "http://www.w3.org/Graphics/SVG/1.1/DTD/svg11.dtd">
<!-- Generated by graphviz version 2.40.1 (20161225.0304)
 -->
<!-- Title: a_graph Pages: 1 -->
<svg width="3338pt" height="200pt"
 viewBox="0.00 0.00 3338.00 200.00" xmlns="http://www.w3.org/2000/svg" xmlns:xlink="http://www.w3.org/1999/xlink">
<g id="graph0" class="graph" transform="scale(1 1) rotate(0) translate(4 196)">
<title>a_graph</title>
<polygon fill="#ffffff" stroke="transparent" points="-4,4 -4,-196 3334,-196 3334,4 -4,4"/>
<!-- T3901 -->
<g id="node1" class="node">
<title>T3901</title>
<polygon fill="none" stroke="#0058ad" points="423.5,-162.5 423.5,-191.5 2494.5,-191.5 2494.5,-162.5 423.5,-162.5"/>
<text text-anchor="middle" x="452" y="-173.3" font-family="Times,serif" font-size="14.00" fill="#0058ad">a 24 25</text>
<polyline fill="none" stroke="#0058ad" points="480.5,-162.5 480.5,-191.5 "/>
<text text-anchor="middle" x="810" y="-173.3" font-family="Times,serif" font-size="14.00" fill="#0058ad">r 25 [1 3 4 5 6 7 2 9 8 11 12 13 10 14 15 16 17 18 19 22 23 24 25 26 27 28 29 20 21 30 31 32 33 34 36 37 41 35 43]</text>
<polyline fill="none" stroke="#0058ad" points="1139.5,-162.5 1139.5,-191.5 "/>
<text text-anchor="middle" x="1788.5" y="-173.3" font-family="Times,serif" font-size="14.00" fill="#0058ad">r 23 [2 3 1 4 5 6 8 9 10 11 7 12 13 16 18 21 15 17 23 22 24 25 26 28 29 27 30 31 32 33 34 35 37 38 36 40 41 42 43 44 45 46 48 47 49 51 50 53 55 54 52 56 57 58 59 60 61 62 64 63 65 66 67 69 68 70 71 72 73 74 75 76 79 80 77 78]</text>
<polyline fill="none" stroke="#0058ad" points="2437.5,-162.5 2437.5,-191.5 "/>
<text text-anchor="middle" x="2466" y="-173.3" font-family="Times,serif" font-size="14.00" fill="#0058ad">a 23 81</text>
</g>
<!-- T3889 -->
<g id="node3" class="node">
<title>T3889</title>
<polygon fill="none" stroke="#0058ad" points="0,-81.5 0,-110.5 3330,-110.5 3330,-81.5 0,-81.5"/>
<text text-anchor="middle" x="649" y="-92.3" font-family="Times,serif" font-size="14.00" fill="#0058ad">r 23 [2 3 1 4 5 6 8 9 10 11 7 12 13 16 18 21 15 17 23 22 24 25 26 28 29 27 30 31 32 33 34 35 37 38 36 40 41 42 43 44 45 46 48 47 49 51 50 53 55 54 52 56 57 58 59 60 61 62 64 63 65 66 67 69 68 70 71 72 73 74 75 76 79 80 77 78]</text>
<polyline fill="none" stroke="#0058ad" points="1298,-81.5 1298,-110.5 "/>
<text text-anchor="middle" x="1947" y="-92.3" font-family="Times,serif" font-size="14.00" fill="#0058ad">r 23 [2 3 1 4 5 6 8 9 10 11 7 12 13 16 18 21 15 17 23 22 24 25 26 28 29 27 30 31 32 33 34 35 37 38 36 40 41 42 43 44 45 46 48 47 49 51 50 53 55 54 52 56 57 58 59 60 61 62 64 63 65 66 67 69 68 70 71 72 73 74 75 76 79 80 77 78]</text>
<polyline fill="none" stroke="#0058ad" points="2596,-81.5 2596,-110.5 "/>
<text text-anchor="middle" x="2624.5" y="-92.3" font-family="Times,serif" font-size="14.00" fill="#0058ad">a 25 42</text>
<polyline fill="none" stroke="#0058ad" points="2653,-81.5 2653,-110.5 "/>
<text text-anchor="middle" x="2991.5" y="-92.3" font-family="Times,serif" font-size="14.00" fill="#0058ad">r 25 [1 3 4 5 6 7 2 9 8 11 12 13 10 14 15 16 17 18 19 22 23 24 25 26 27 28 29 20 21 30 31 32 33 34 36 37 41 35 43 42]</text>
</g>
<!-- T3901&#45;&gt;T3889 -->
<g id="edge1" class="edge">
<title>T3901:f1&#45;&gt;T3889:f2</title>
<path fill="none" stroke="#5b00c0" d="M810,-162C810,-155.9725 2468.9836,-120.6168 2614.7927,-112.0116"/>
<polygon fill="#5b00c0" stroke="#5b00c0" points="2615.394,-115.4693 2625,-111 2614.7035,-108.5034 2615.394,-115.4693"/>
<text text-anchor="middle" x="1994.5" y="-132.8" font-family="Times,serif" font-size="14.00" fill="#5b00c0">rw</text>
</g>
<!-- T3893 -->
<g id="node2" class="node">
<title>T3893</title>
<polygon fill="none" stroke="#0058ad" points="1815.5,-.5 1815.5,-29.5 2474.5,-29.5 2474.5,-.5 1815.5,-.5"/>
<text text-anchor="middle" x="2145" y="-11.3" font-family="Times,serif" font-size="14.00" fill="#0058ad">r 25 [1 3 4 5 6 7 2 9 8 11 12 13 10 14 15 16 17 18 19 22 23 24 25 26 27 28 29 20 21 30 31 32 33 34 36 37 41 35 43]</text>
</g>
<!-- T3893&#45;&gt;T3889 -->
<g id="edge2" class="edge">
<title>T3893:f0&#45;&gt;T3889:f2</title>
<path fill="none" stroke="#5b00c0" d="M2405.0184,-29.5066C2503.8664,-38.2085 2598.1538,-51.6451 2620.1812,-71.8972"/>
<polygon fill="#5b00c0" stroke="#5b00c0" points="2617.228,-73.7995 2625,-81 2623.4146,-70.5244 2617.228,-73.7995"/>
<text text-anchor="middle" x="2607.5" y="-51.8" font-family="Times,serif" font-size="14.00" fill="#5b00c0">rw</text>
</g>
<!-- T3889&#45;&gt;T3901 -->
<g id="edge4" class="edge">
<title>T3889:f0&#45;&gt;T3901:f3</title>
<path fill="none" stroke="#5b00c0" d="M649,-111C649,-129.8489 1987.1681,-128.2003 2006,-129 2104.7929,-133.1953 2441.1712,-64.6098 2464.7007,-151.8338"/>
<polygon fill="#5b00c0" stroke="#5b00c0" points="2461.2604,-152.5244 2466,-162 2468.2039,-151.6369 2461.2604,-152.5244"/>
<text text-anchor="middle" x="2467.5" y="-132.8" font-family="Times,serif" font-size="14.00" fill="#5b00c0">rw</text>
</g>
<!-- T3889&#45;&gt;T3893 -->
<g id="edge3" class="edge">
<title>T3889&#45;&gt;T3893</title>
<path fill="none" stroke="#0050c0" d="M1751.0914,-81.4721C1834.8686,-67.3347 1961.9228,-45.8943 2048.9407,-31.21"/>
<polygon fill="#0050c0" stroke="#0050c0" points="2049.5403,-34.6584 2058.8184,-29.5431 2048.3754,-27.756 2049.5403,-34.6584"/>
<text text-anchor="middle" x="1952.5" y="-51.8" font-family="Times,serif" font-size="14.00" fill="#0050c0">rt</text>
</g>
</g>
</svg>
