<?xml version="1.0" encoding="UTF-8" standalone="no"?>
<!DOCTYPE svg PUBLIC "-//W3C//DTD SVG 1.1//EN"
 "http://www.w3.org/Graphics/SVG/1.1/DTD/svg11.dtd">
<!-- Generated by graphviz version 2.40.1 (20161225.0304)
 -->
<!-- Title: a_graph Pages: 1 -->
<svg width="4030pt" height="200pt"
 viewBox="0.00 0.00 4029.50 200.00" xmlns="http://www.w3.org/2000/svg" xmlns:xlink="http://www.w3.org/1999/xlink">
<g id="graph0" class="graph" transform="scale(1 1) rotate(0) translate(4 196)">
<title>a_graph</title>
<polygon fill="#ffffff" stroke="transparent" points="-4,4 -4,-196 4025.5,-196 4025.5,4 -4,4"/>
<!-- T10501 -->
<g id="node1" class="node">
<title>T10501</title>
<polygon fill="none" stroke="#0058ad" points="0,-162.5 0,-191.5 3527,-191.5 3527,-162.5 0,-162.5"/>
<text text-anchor="middle" x="626" y="-173.3" font-family="Times,serif" font-size="14.00" fill="#0058ad">r 4 [1 2 3 4 5 6 7 8 26 27 28 29 30 31 32 33 34 35 36 37 38 39 41 40 42 43 45 46 47 48 49 50 51 52 53 54 55 56 57 58 59 60 61 62 63 64 65 66 67 68 69 70 71 72 74 73 75 76 77 78 95 96 97 98 99 100 101 102 103 104 105]</text>
<polyline fill="none" stroke="#0058ad" points="1252,-162.5 1252,-191.5 "/>
<text text-anchor="middle" x="1280.5" y="-173.3" font-family="Times,serif" font-size="14.00" fill="#0058ad">a 55 11</text>
<polyline fill="none" stroke="#0058ad" points="1309,-162.5 1309,-191.5 "/>
<text text-anchor="middle" x="2418" y="-173.3" font-family="Times,serif" font-size="14.00" fill="#0058ad">r 54 [1 2 3 4 5 10 11 12 13 14 15 16 17 18 20 21 22 23 24 27 25 26 28 29 30 31 32 33 34 35 36 37 38 39 40 41 42 43 44 45 46 47 48 49 50 51 52 53 54 55 56 57 58 59 60 61 62 63 64 65 66 67 68 69 70 71 72 73 74 75 77 78 79 80 81 82 83 84 85 86 87 88 89 90 91 92 93 94 95 96 98 97 99 100 101 102 103 104 105 106 107 108 109 110 111 112 113 114 115 116 117 118 119 120 121 122 123 124]</text>
</g>
<!-- T10495 -->
<g id="node2" class="node">
<title>T10495</title>
<polygon fill="none" stroke="#0058ad" points="1715.5,-81.5 1715.5,-110.5 4021.5,-110.5 4021.5,-81.5 1715.5,-81.5"/>
<text text-anchor="middle" x="1747.5" y="-92.3" font-family="Times,serif" font-size="14.00" fill="#0058ad">a 54 125</text>
<polyline fill="none" stroke="#0058ad" points="1779.5,-81.5 1779.5,-110.5 "/>
<text text-anchor="middle" x="2900.5" y="-92.3" font-family="Times,serif" font-size="14.00" fill="#0058ad">r 54 [1 2 3 4 5 10 11 12 13 14 15 16 17 18 20 21 22 23 24 27 25 26 28 29 30 31 32 33 34 35 36 37 38 39 40 41 42 43 44 45 46 47 48 49 50 51 52 53 54 55 56 57 58 59 60 61 62 63 64 65 66 67 68 69 70 71 72 73 74 75 77 78 79 80 81 82 83 84 85 86 87 88 89 90 91 92 93 94 95 96 98 97 99 100 101 102 103 104 105 106 107 108 109 110 111 112 113 114 115 116 117 118 119 120 121 122 123 124 125]</text>
</g>
<!-- T10501&#45;&gt;T10495 -->
<g id="edge1" class="edge">
<title>T10501:f2&#45;&gt;T10495:f0</title>
<path fill="none" stroke="#5b00c0" d="M2418.5,-162C2418.5,-16.1097 1779.8637,-248.6648 1748.6803,-121.2533"/>
<polygon fill="#5b00c0" stroke="#5b00c0" points="1752.1207,-120.5341 1747.5,-111 1745.1667,-121.3347 1752.1207,-120.5341"/>
<text text-anchor="middle" x="2419" y="-132.8" font-family="Times,serif" font-size="14.00" fill="#5b00c0">rw</text>
</g>
<!-- T10497 -->
<g id="node3" class="node">
<title>T10497</title>
<polygon fill="none" stroke="#0058ad" points="1351,-.5 1351,-29.5 1510,-29.5 1510,-.5 1351,-.5"/>
<text text-anchor="middle" x="1430.5" y="-11.3" font-family="Times,serif" font-size="14.00" fill="#0058ad">r 55 [1 2 3 4 5 6 7 8 9 10]</text>
</g>
<!-- T10495&#45;&gt;T10497 -->
<g id="edge2" class="edge">
<title>T10495&#45;&gt;T10497</title>
<path fill="none" stroke="#0050c0" d="M2610.9996,-81.4955C2283.6492,-63.0564 1735.2587,-32.1665 1520.5617,-20.073"/>
<polygon fill="#0050c0" stroke="#0050c0" points="1520.4653,-16.5621 1510.2843,-19.4941 1520.0716,-23.5511 1520.4653,-16.5621"/>
<text text-anchor="middle" x="2282" y="-51.8" font-family="Times,serif" font-size="14.00" fill="#0050c0">rt</text>
</g>
<!-- T10497&#45;&gt;T10501 -->
<g id="edge3" class="edge">
<title>T10497:f0&#45;&gt;T10501:f1</title>
<path fill="none" stroke="#5b00c0" d="M1397.2101,-29.5485C1355.3493,-50.2302 1288.0697,-92.3423 1281.0902,-151.893"/>
<polygon fill="#5b00c0" stroke="#5b00c0" points="1277.589,-151.8129 1280.5,-162 1284.5771,-152.2211 1277.589,-151.8129"/>
<text text-anchor="middle" x="1327" y="-92.3" font-family="Times,serif" font-size="14.00" fill="#5b00c0">rw</text>
</g>
</g>
</svg>
