<?xml version="1.0" encoding="UTF-8" standalone="no"?>
<!DOCTYPE svg PUBLIC "-//W3C//DTD SVG 1.1//EN"
 "http://www.w3.org/Graphics/SVG/1.1/DTD/svg11.dtd">
<!-- Generated by graphviz version 2.40.1 (20161225.0304)
 -->
<!-- Title: a_graph Pages: 1 -->
<svg width="4294pt" height="119pt"
 viewBox="0.00 0.00 4293.50 119.00" xmlns="http://www.w3.org/2000/svg" xmlns:xlink="http://www.w3.org/1999/xlink">
<g id="graph0" class="graph" transform="scale(1 1) rotate(0) translate(4 115)">
<title>a_graph</title>
<polygon fill="#ffffff" stroke="transparent" points="-4,4 -4,-115 4289.5,-115 4289.5,4 -4,4"/>
<!-- T4503 -->
<g id="node1" class="node">
<title>T4503</title>
<polygon fill="none" stroke="#0058ad" points="0,-81.5 0,-110.5 2859,-110.5 2859,-81.5 0,-81.5"/>
<text text-anchor="middle" x="700.5" y="-92.3" font-family="Times,serif" font-size="14.00" fill="#0058ad">r 27 [1 2 3 4 7 8 5 6 10 12 11 9 13 14 15 18 19 16 17 20 21 22 23 24 25 27 28 26 30 31 33 34 29 37 38 39 40 41 32 46 47 48 49 50 53 54 55 57 56 58 59 60 61 62 64 66 63 68 69 70 71 67 72 73 74 75 65 78 76 77 79 80 81 82 83 85 84 87 88 89 86 91]</text>
<polyline fill="none" stroke="#0058ad" points="1401,-81.5 1401,-110.5 "/>
<text text-anchor="middle" x="2101.5" y="-92.3" font-family="Times,serif" font-size="14.00" fill="#0058ad">r 27 [1 2 3 4 7 8 5 6 10 12 11 9 13 14 15 18 19 16 17 20 21 22 23 24 25 27 28 26 30 31 33 34 29 37 38 39 40 41 32 46 47 48 49 50 53 54 55 57 56 58 59 60 61 62 64 66 63 68 69 70 71 67 72 73 74 75 65 78 76 77 79 80 81 82 83 85 84 87 88 89 86 91]</text>
<polyline fill="none" stroke="#0058ad" points="2802,-81.5 2802,-110.5 "/>
<text text-anchor="middle" x="2830.5" y="-92.3" font-family="Times,serif" font-size="14.00" fill="#0058ad">a 26 54</text>
</g>
<!-- T4501 -->
<g id="node2" class="node">
<title>T4501</title>
<polygon fill="none" stroke="#0058ad" points="1955.5,-.5 1955.5,-29.5 4285.5,-29.5 4285.5,-.5 1955.5,-.5"/>
<text text-anchor="middle" x="1984" y="-11.3" font-family="Times,serif" font-size="14.00" fill="#0058ad">a 27 94</text>
<polyline fill="none" stroke="#0058ad" points="2012.5,-.5 2012.5,-29.5 "/>
<text text-anchor="middle" x="2402.5" y="-11.3" font-family="Times,serif" font-size="14.00" fill="#0058ad">r 26 [1 2 4 5 3 6 7 9 8 10 11 13 12 14 16 15 17 18 21 22 24 28 29 30 33 31 32 34 37 36 35 39 40 38 41 42 43 44 45 46 48 49 47 51 52 50]</text>
<polyline fill="none" stroke="#0058ad" points="2792.5,-.5 2792.5,-29.5 "/>
<text text-anchor="middle" x="2821" y="-11.3" font-family="Times,serif" font-size="14.00" fill="#0058ad">a 27 95</text>
<polyline fill="none" stroke="#0058ad" points="2849.5,-.5 2849.5,-29.5 "/>
<text text-anchor="middle" x="3567.5" y="-11.3" font-family="Times,serif" font-size="14.00" fill="#0058ad">r 27 [1 2 3 4 7 8 5 6 10 12 11 9 13 14 15 18 19 16 17 20 21 22 23 24 25 27 28 26 30 31 33 34 29 37 38 39 40 41 32 46 47 48 49 50 53 54 55 57 56 58 59 60 61 62 64 66 63 68 69 70 71 67 72 73 74 75 65 78 76 77 79 80 81 82 83 85 84 87 88 89 86 91 94 95]</text>
</g>
<!-- T4503&#45;&gt;T4501 -->
<g id="edge1" class="edge">
<title>T4503:f0&#45;&gt;T4501:f0</title>
<path fill="none" stroke="#5b00c0" d="M700.5,-81C700.5,-47.5225 1822.5577,-17.5568 1945.3891,-15.155"/>
<polygon fill="#5b00c0" stroke="#5b00c0" points="1945.5549,-18.653 1955.5,-15 1945.4475,-11.6538 1945.5549,-18.653"/>
<text text-anchor="middle" x="1004" y="-51.8" font-family="Times,serif" font-size="14.00" fill="#5b00c0">rw</text>
</g>
<!-- T4501&#45;&gt;T4503 -->
<g id="edge2" class="edge">
<title>T4501:f1&#45;&gt;T4503:f2</title>
<path fill="none" stroke="#5b00c0" d="M2402.5,-30C2402.5,-218.0134 2814.7645,98.4229 2830.0634,-70.8708"/>
<polygon fill="#5b00c0" stroke="#5b00c0" points="2826.5725,-71.16 2830.5,-81 2833.566,-70.8585 2826.5725,-71.16"/>
<text text-anchor="middle" x="2836" y="-51.8" font-family="Times,serif" font-size="14.00" fill="#5b00c0">rw</text>
</g>
</g>
</svg>
