<?xml version="1.0" encoding="UTF-8" standalone="no"?>
<!DOCTYPE svg PUBLIC "-//W3C//DTD SVG 1.1//EN"
 "http://www.w3.org/Graphics/SVG/1.1/DTD/svg11.dtd">
<!-- Generated by graphviz version 2.40.1 (20161225.0304)
 -->
<!-- Title: a_graph Pages: 1 -->
<svg width="3589pt" height="119pt"
 viewBox="0.00 0.00 3589.00 119.00" xmlns="http://www.w3.org/2000/svg" xmlns:xlink="http://www.w3.org/1999/xlink">
<g id="graph0" class="graph" transform="scale(1 1) rotate(0) translate(4 115)">
<title>a_graph</title>
<polygon fill="#ffffff" stroke="transparent" points="-4,4 -4,-115 3585,-115 3585,4 -4,4"/>
<!-- T277 -->
<g id="node1" class="node">
<title>T277</title>
<polygon fill="none" stroke="#0058ad" points="1166,-81.5 1166,-110.5 2275,-110.5 2275,-81.5 1166,-81.5"/>
<text text-anchor="middle" x="1345.5" y="-92.3" font-family="Times,serif" font-size="14.00" fill="#0058ad">r 7 [1 2 3 4 5 6 7 8 10 9 11 12 13 14 15 16 17 18 19 20 21 22]</text>
<polyline fill="none" stroke="#0058ad" points="1525,-81.5 1525,-110.5 "/>
<text text-anchor="middle" x="1553.5" y="-92.3" font-family="Times,serif" font-size="14.00" fill="#0058ad">a 9 106</text>
<polyline fill="none" stroke="#0058ad" points="1582,-81.5 1582,-110.5 "/>
<text text-anchor="middle" x="1928.5" y="-92.3" font-family="Times,serif" font-size="14.00" fill="#0058ad">r 8 [6 7 9 10 11 12 13 14 15 16 17 18 19 20 21 22 23 24 25 26 27 28 29 30 31 32 33 34 35 37 36 38 39 40 41 42 43 44 45]</text>
</g>
<!-- T279 -->
<g id="node2" class="node">
<title>T279</title>
<polygon fill="none" stroke="#0058ad" points="0,-.5 0,-29.5 3581,-29.5 3581,-.5 0,-.5"/>
<text text-anchor="middle" x="793" y="-11.3" font-family="Times,serif" font-size="14.00" fill="#0058ad">r 9 [6 16 5 21 22 23 24 25 26 27 28 29 30 32 33 34 31 35 36 37 38 39 40 41 42 44 43 45 46 47 48 49 51 52 50 55 53 54 56 57 58 59 60 62 63 64 65 66 67 68 69 70 61 72 73 71 74 75 76 77 78 79 80 81 82 83 85 84 86 87 88 89 90 91 92 93 94 95 96 97 98 99 100 101 102 103 104 105]</text>
<polyline fill="none" stroke="#0058ad" points="1586,-.5 1586,-29.5 "/>
<text text-anchor="middle" x="2379" y="-11.3" font-family="Times,serif" font-size="14.00" fill="#0058ad">r 9 [6 16 5 21 22 23 24 25 26 27 28 29 30 32 33 34 31 35 36 37 38 39 40 41 42 44 43 45 46 47 48 49 51 52 50 55 53 54 56 57 58 59 60 62 63 64 65 66 67 68 69 70 61 72 73 71 74 75 76 77 78 79 80 81 82 83 85 84 86 87 88 89 90 91 92 93 94 95 96 97 98 99 100 101 102 103 104 105]</text>
<polyline fill="none" stroke="#0058ad" points="3172,-.5 3172,-29.5 "/>
<text text-anchor="middle" x="3197" y="-11.3" font-family="Times,serif" font-size="14.00" fill="#0058ad">a 8 46</text>
<polyline fill="none" stroke="#0058ad" points="3222,-.5 3222,-29.5 "/>
<text text-anchor="middle" x="3401.5" y="-11.3" font-family="Times,serif" font-size="14.00" fill="#0058ad">r 7 [1 2 3 4 5 6 7 8 10 9 11 12 13 14 15 16 17 18 19 20 21 22]</text>
</g>
<!-- T277&#45;&gt;T279 -->
<g id="edge1" class="edge">
<title>T277:f2&#45;&gt;T279:f2</title>
<path fill="none" stroke="#5b00c0" d="M2275.5,-96C2324.1954,-96 3109.5692,-82.8302 3190.7373,-37.6819"/>
<polygon fill="#5b00c0" stroke="#5b00c0" points="3193.5193,-39.8186 3197.5,-30 3188.2652,-35.1931 3193.5193,-39.8186"/>
<text text-anchor="middle" x="3158" y="-51.8" font-family="Times,serif" font-size="14.00" fill="#5b00c0">rw</text>
</g>
<!-- T279&#45;&gt;T277 -->
<g id="edge2" class="edge">
<title>T279:f0&#45;&gt;T277:f1</title>
<path fill="none" stroke="#5b00c0" d="M792.5,-30C792.5,-195.8491 1521.152,76.3274 1552.4613,-70.7002"/>
<polygon fill="#5b00c0" stroke="#5b00c0" points="1549.0142,-71.4017 1553.5,-81 1555.9789,-70.6993 1549.0142,-71.4017"/>
<text text-anchor="middle" x="1557" y="-51.8" font-family="Times,serif" font-size="14.00" fill="#5b00c0">rw</text>
</g>
</g>
</svg>
