<?xml version="1.0" encoding="UTF-8" standalone="no"?>
<!DOCTYPE svg PUBLIC "-//W3C//DTD SVG 1.1//EN"
 "http://www.w3.org/Graphics/SVG/1.1/DTD/svg11.dtd">
<!-- Generated by graphviz version 2.40.1 (20161225.0304)
 -->
<!-- Title: a_graph Pages: 1 -->
<svg width="2805pt" height="119pt"
 viewBox="0.00 0.00 2805.00 119.00" xmlns="http://www.w3.org/2000/svg" xmlns:xlink="http://www.w3.org/1999/xlink">
<g id="graph0" class="graph" transform="scale(1 1) rotate(0) translate(4 115)">
<title>a_graph</title>
<polygon fill="#ffffff" stroke="transparent" points="-4,4 -4,-115 2801,-115 2801,4 -4,4"/>
<!-- T16707 -->
<g id="node1" class="node">
<title>T16707</title>
<polygon fill="none" stroke="#0058ad" points="1346.5,-81.5 1346.5,-110.5 1890.5,-110.5 1890.5,-81.5 1346.5,-81.5"/>
<text text-anchor="middle" x="1590" y="-92.3" font-family="Times,serif" font-size="14.00" fill="#0058ad">r 84 [1 2 3 4 5 6 7 8 9 10 11 12 13 14 16 17 18 19 20 21 22 23 24 25 26 27 28 29 30]</text>
<polyline fill="none" stroke="#0058ad" points="1833.5,-81.5 1833.5,-110.5 "/>
<text text-anchor="middle" x="1862" y="-92.3" font-family="Times,serif" font-size="14.00" fill="#0058ad">a 86 79</text>
</g>
<!-- T16710 -->
<g id="node2" class="node">
<title>T16710</title>
<polygon fill="none" stroke="#0058ad" points="0,-.5 0,-29.5 2797,-29.5 2797,-.5 0,-.5"/>
<text text-anchor="middle" x="685" y="-11.3" font-family="Times,serif" font-size="14.00" fill="#0058ad">r 86 [1 2 7 6 8 9 10 11 12 13 14 15 16 17 18 19 20 21 22 23 24 25 26 27 29 30 31 32 28 33 34 35 36 37 38 39 40 41 42 43 44 46 45 47 48 49 50 53 51 52 54 55 56 57 60 61 62 58 59 63 64 65 66 67 68 69 70 71 72 73 74 75 76 77 78 80 81 82 83]</text>
<polyline fill="none" stroke="#0058ad" points="1370,-.5 1370,-29.5 "/>
<text text-anchor="middle" x="2055" y="-11.3" font-family="Times,serif" font-size="14.00" fill="#0058ad">r 86 [1 2 7 6 8 9 10 11 12 13 14 15 16 17 18 19 20 21 22 23 24 25 26 27 29 30 31 32 28 33 34 35 36 37 38 39 40 41 42 43 44 46 45 47 48 49 50 53 51 52 54 55 56 57 60 61 62 58 59 63 64 65 66 67 68 69 70 71 72 73 74 75 76 77 78 80 81 82 83]</text>
<polyline fill="none" stroke="#0058ad" points="2740,-.5 2740,-29.5 "/>
<text text-anchor="middle" x="2768.5" y="-11.3" font-family="Times,serif" font-size="14.00" fill="#0058ad">a 84 31</text>
</g>
<!-- T16707&#45;&gt;T16710 -->
<g id="edge1" class="edge">
<title>T16707:f0&#45;&gt;T16710:f2</title>
<path fill="none" stroke="#5b00c0" d="M1589.5,-81C1589.5,-.9778 1686.8867,-56.0799 1766.5,-48 1779.5364,-46.6769 2656.0459,-44.2281 2758.7171,-32.3329"/>
<polygon fill="#5b00c0" stroke="#5b00c0" points="2759.5846,-35.7242 2768.5,-30 2757.9609,-28.9152 2759.5846,-35.7242"/>
<text text-anchor="middle" x="1774" y="-51.8" font-family="Times,serif" font-size="14.00" fill="#5b00c0">rw</text>
</g>
<!-- T16710&#45;&gt;T16707 -->
<g id="edge2" class="edge">
<title>T16710:f0&#45;&gt;T16707:f1</title>
<path fill="none" stroke="#5b00c0" d="M684.5,-30C684.5,-45.2382 1766.5706,-44.9481 1781.5,-48 1815.8661,-55.0251 1854.1643,-44.5901 1861.3167,-71.0455"/>
<polygon fill="#5b00c0" stroke="#5b00c0" points="1857.844,-71.4831 1862.5,-81 1864.795,-70.6567 1857.844,-71.4831"/>
<text text-anchor="middle" x="1864" y="-51.8" font-family="Times,serif" font-size="14.00" fill="#5b00c0">rw</text>
</g>
</g>
</svg>
