<?xml version="1.0" encoding="UTF-8" standalone="no"?>
<!DOCTYPE svg PUBLIC "-//W3C//DTD SVG 1.1//EN"
 "http://www.w3.org/Graphics/SVG/1.1/DTD/svg11.dtd">
<!-- Generated by graphviz version 2.40.1 (20161225.0304)
 -->
<!-- Title: a_graph Pages: 1 -->
<svg width="4597pt" height="119pt"
 viewBox="0.00 0.00 4597.00 119.00" xmlns="http://www.w3.org/2000/svg" xmlns:xlink="http://www.w3.org/1999/xlink">
<g id="graph0" class="graph" transform="scale(1 1) rotate(0) translate(4 115)">
<title>a_graph</title>
<polygon fill="#ffffff" stroke="transparent" points="-4,4 -4,-115 4593,-115 4593,4 -4,4"/>
<!-- T11943 -->
<g id="node1" class="node">
<title>T11943</title>
<polygon fill="none" stroke="#0058ad" points="0,-81.5 0,-110.5 4181,-110.5 4181,-81.5 0,-81.5"/>
<text text-anchor="middle" x="1081.5" y="-92.3" font-family="Times,serif" font-size="14.00" fill="#0058ad">r 55 [1 2 3 4 5 6 7 8 9 10 11 12 14 15 16 17 19 20 22 23 25 26 27 28 29 30 31 32 33 34 35 36 37 38 39 40 41 42 43 44 46 47 48 49 50 51 53 54 55 56 57 58 59 60 61 62 63 64 65 66 68 67 69 70 71 72 73 74 76 77 78 79 81 82 83 84 85 87 88 89 90 91 92 93 94 95 96 97 98 99 100 101 103 102 104 105 107 108 109 110 111 112 113 114 115 116 117 119 120 121 122 123 124 126 127 128]</text>
<polyline fill="none" stroke="#0058ad" points="2163,-81.5 2163,-110.5 "/>
<text text-anchor="middle" x="3143.5" y="-92.3" font-family="Times,serif" font-size="14.00" fill="#0058ad">r 61 [1 3 4 5 6 7 8 9 10 11 12 13 14 15 16 17 18 19 20 21 22 23 24 25 26 27 28 29 30 31 32 33 34 35 36 37 38 39 40 41 42 43 44 45 46 47 48 49 50 51 52 53 54 56 57 58 59 61 62 63 60 64 65 66 67 68 69 75 76 77 78 79 80 81 82 83 85 84 86 87 88 89 91 90 92 93 94 96 97 100 101 102 103 104 105 106 107 108 109 110 111 113 114 115 116 117 118]</text>
<polyline fill="none" stroke="#0058ad" points="4124,-81.5 4124,-110.5 "/>
<text text-anchor="middle" x="4152.5" y="-92.3" font-family="Times,serif" font-size="14.00" fill="#0058ad">a 60 74</text>
</g>
<!-- T11945 -->
<g id="node2" class="node">
<title>T11945</title>
<polygon fill="none" stroke="#0058ad" points="1902,-.5 1902,-29.5 4589,-29.5 4589,-.5 1902,-.5"/>
<text text-anchor="middle" x="2576" y="-11.3" font-family="Times,serif" font-size="14.00" fill="#0058ad">r 39 [1 2 3 4 5 6 7 8 9 10 11 12 13 43 44 45 46 47 48 49 50 51 52 53 54 55 56 57 58 59 60 61 62 63 64 65 66 67 68 69 70 71 72 73 75 78 79 80 81 82 83 84 86 88 89 90 91 92 93 94 95 96 97 98 99 100 101 102 103 104 105 106 107 108 111]</text>
<polyline fill="none" stroke="#0058ad" points="3250,-.5 3250,-29.5 "/>
<text text-anchor="middle" x="3282" y="-11.3" font-family="Times,serif" font-size="14.00" fill="#0058ad">a 61 119</text>
<polyline fill="none" stroke="#0058ad" points="3314,-.5 3314,-29.5 "/>
<text text-anchor="middle" x="3919.5" y="-11.3" font-family="Times,serif" font-size="14.00" fill="#0058ad">r 60 [1 2 3 4 5 6 7 8 9 10 11 12 13 14 15 16 17 18 19 20 21 24 22 23 25 26 27 28 29 30 31 32 33 34 35 36 37 38 39 40 41 42 43 44 45 47 46 48 50 51 52 53 54 55 56 57 58 59 60 61 62 63 65 66 67 68 69 70 71 72 73]</text>
<polyline fill="none" stroke="#0058ad" points="4525,-.5 4525,-29.5 "/>
<text text-anchor="middle" x="4557" y="-11.3" font-family="Times,serif" font-size="14.00" fill="#0058ad">a 50 104</text>
</g>
<!-- T11943&#45;&gt;T11945 -->
<g id="edge1" class="edge">
<title>T11943:f1&#45;&gt;T11945:f1</title>
<path fill="none" stroke="#5b00c0" d="M3143.5,-81C3143.5,-19.051 3266.6882,-86.861 3281.1243,-40.1181"/>
<polygon fill="#5b00c0" stroke="#5b00c0" points="3284.6207,-40.3804 3282.5,-30 3277.6846,-39.4373 3284.6207,-40.3804"/>
<text text-anchor="middle" x="3282" y="-51.8" font-family="Times,serif" font-size="14.00" fill="#5b00c0">rw</text>
</g>
<!-- T11945&#45;&gt;T11943 -->
<g id="edge2" class="edge">
<title>T11945:f2&#45;&gt;T11943:f2</title>
<path fill="none" stroke="#5b00c0" d="M3919.5,-30C3919.5,-132.2804 4136.4052,14.0159 4151.6563,-70.7864"/>
<polygon fill="#5b00c0" stroke="#5b00c0" points="4148.1885,-71.3221 4152.5,-81 4155.1648,-70.7458 4148.1885,-71.3221"/>
<text text-anchor="middle" x="4155" y="-51.8" font-family="Times,serif" font-size="14.00" fill="#5b00c0">rw</text>
</g>
</g>
</svg>
