<?xml version="1.0" encoding="UTF-8" standalone="no"?>
<!DOCTYPE svg PUBLIC "-//W3C//DTD SVG 1.1//EN"
 "http://www.w3.org/Graphics/SVG/1.1/DTD/svg11.dtd">
<!-- Generated by graphviz version 2.40.1 (20161225.0304)
 -->
<!-- Title: a_graph Pages: 1 -->
<svg width="2450pt" height="119pt"
 viewBox="0.00 0.00 2449.50 119.00" xmlns="http://www.w3.org/2000/svg" xmlns:xlink="http://www.w3.org/1999/xlink">
<g id="graph0" class="graph" transform="scale(1 1) rotate(0) translate(4 115)">
<title>a_graph</title>
<polygon fill="#ffffff" stroke="transparent" points="-4,4 -4,-115 2445.5,-115 2445.5,4 -4,4"/>
<!-- T15555 -->
<g id="node1" class="node">
<title>T15555</title>
<polygon fill="none" stroke="#0058ad" points="0,-81.5 0,-110.5 2031,-110.5 2031,-81.5 0,-81.5"/>
<text text-anchor="middle" x="32" y="-92.3" font-family="Times,serif" font-size="14.00" fill="#0058ad">a 79 113</text>
<polyline fill="none" stroke="#0058ad" points="64,-81.5 64,-110.5 "/>
<text text-anchor="middle" x="903.5" y="-92.3" font-family="Times,serif" font-size="14.00" fill="#0058ad">r 79 [1 2 3 4 5 6 7 8 9 10 14 11 12 13 15 19 16 17 18 20 21 22 23 24 25 26 27 28 29 30 31 34 33 32 35 37 38 36 40 41 42 43 44 53 54 58 39 61 59 60 62 64 65 63 66 67 68 69 71 72 73 70 74 75 76 77 78 79 80 82 83 84 81 85 86 87 88 89 90 91 92 94 95 96 97 98 99 100 101 102 103 104 109 111 113]</text>
<polyline fill="none" stroke="#0058ad" points="1743,-81.5 1743,-110.5 "/>
<text text-anchor="middle" x="1855" y="-92.3" font-family="Times,serif" font-size="14.00" fill="#0058ad">r 81 [3 4 5 6 8 9 10 11 12 7 13 14 15]</text>
<polyline fill="none" stroke="#0058ad" points="1967,-81.5 1967,-110.5 "/>
<text text-anchor="middle" x="1999" y="-92.3" font-family="Times,serif" font-size="14.00" fill="#0058ad">a 79 114</text>
</g>
<!-- T15553 -->
<g id="node2" class="node">
<title>T15553</title>
<polygon fill="none" stroke="#0058ad" points="263.5,-.5 263.5,-29.5 2441.5,-29.5 2441.5,-.5 263.5,-.5"/>
<text text-anchor="middle" x="375.5" y="-11.3" font-family="Times,serif" font-size="14.00" fill="#0058ad">r 81 [3 4 5 6 8 9 10 11 12 7 13 14 15]</text>
<polyline fill="none" stroke="#0058ad" points="487.5,-.5 487.5,-29.5 "/>
<text text-anchor="middle" x="516" y="-11.3" font-family="Times,serif" font-size="14.00" fill="#0058ad">a 81 16</text>
<polyline fill="none" stroke="#0058ad" points="544.5,-.5 544.5,-29.5 "/>
<text text-anchor="middle" x="1372" y="-11.3" font-family="Times,serif" font-size="14.00" fill="#0058ad">r 79 [1 2 3 4 5 6 7 8 9 10 14 11 12 13 15 19 16 17 18 20 21 22 23 24 25 26 27 28 29 30 31 34 33 32 35 37 38 36 40 41 42 43 44 53 54 58 39 61 59 60 62 64 65 63 66 67 68 69 71 72 73 70 74 75 76 77 78 79 80 82 83 84 81 85 86 87 88 89 90 91 92 94 95 96 97 98 99 100 101 102 103 104 109 111]</text>
<polyline fill="none" stroke="#0058ad" points="2199.5,-.5 2199.5,-29.5 "/>
<text text-anchor="middle" x="2320.5" y="-11.3" font-family="Times,serif" font-size="14.00" fill="#0058ad">r 81 [3 4 5 6 8 9 10 11 12 7 13 14 15 16]</text>
</g>
<!-- T15555&#45;&gt;T15553 -->
<g id="edge1" class="edge">
<title>T15555:f2&#45;&gt;T15553:f1</title>
<path fill="none" stroke="#5b00c0" d="M1855.5,-81C1855.5,64.5046 577.5764,-167.6364 517.6737,-39.834"/>
<polygon fill="#5b00c0" stroke="#5b00c0" points="521.0759,-39.0089 515.5,-30 514.2409,-40.5198 521.0759,-39.0089"/>
<text text-anchor="middle" x="1849" y="-51.8" font-family="Times,serif" font-size="14.00" fill="#5b00c0">rw</text>
</g>
<!-- T15553&#45;&gt;T15555 -->
<g id="edge2" class="edge">
<title>T15553:f2&#45;&gt;T15555:f0</title>
<path fill="none" stroke="#5b00c0" d="M1372.5,-30C1372.5,-41.9887 521.4766,-47.462 509.5,-48 406.664,-52.6196 55.8863,20.3701 32.7058,-70.9952"/>
<polygon fill="#5b00c0" stroke="#5b00c0" points="29.2218,-70.653 31.5,-81 36.1715,-71.4907 29.2218,-70.653"/>
<text text-anchor="middle" x="517" y="-51.8" font-family="Times,serif" font-size="14.00" fill="#5b00c0">rw</text>
</g>
</g>
</svg>
