<?xml version="1.0" encoding="UTF-8" standalone="no"?>
<!DOCTYPE svg PUBLIC "-//W3C//DTD SVG 1.1//EN"
 "http://www.w3.org/Graphics/SVG/1.1/DTD/svg11.dtd">
<!-- Generated by graphviz version 2.40.1 (20161225.0304)
 -->
<!-- Title: a_graph Pages: 1 -->
<svg width="1795pt" height="119pt"
 viewBox="0.00 0.00 1795.00 119.00" xmlns="http://www.w3.org/2000/svg" xmlns:xlink="http://www.w3.org/1999/xlink">
<g id="graph0" class="graph" transform="scale(1 1) rotate(0) translate(4 115)">
<title>a_graph</title>
<polygon fill="#ffffff" stroke="transparent" points="-4,4 -4,-115 1791,-115 1791,4 -4,4"/>
<!-- T10049 -->
<g id="node1" class="node">
<title>T10049</title>
<polygon fill="none" stroke="#0058ad" points="0,-81.5 0,-110.5 1787,-110.5 1787,-81.5 0,-81.5"/>
<text text-anchor="middle" x="893.5" y="-92.3" font-family="Times,serif" font-size="14.00" fill="#0058ad">r 52 [1 2 3 4 5 6 7 8 9 10 11 12 13 15 16 17 18 19 20 21 22 23 24 25 26 27 28 29 30 31 32 33 34 35 36 37 38 39 40 41 44 42 43 45 46 47 48 49 50 51 52 53 54 55 56 57 58 59 60 61 64 65 66 67 68 69 70 71 72 73 74 75 76 77 78 79 80 81 82 83 84 85 86 87 88 89 90 91 92 93 94 95 96 97 98 99 100 101 102 103 104 105]</text>
</g>
<!-- T10045 -->
<g id="node2" class="node">
<title>T10045</title>
<polygon fill="none" stroke="#0058ad" points="823.5,-.5 823.5,-29.5 937.5,-29.5 937.5,-.5 823.5,-.5"/>
<text text-anchor="middle" x="848.5" y="-11.3" font-family="Times,serif" font-size="14.00" fill="#0058ad">a 2 28</text>
<polyline fill="none" stroke="#0058ad" points="873.5,-.5 873.5,-29.5 "/>
<text text-anchor="middle" x="905.5" y="-11.3" font-family="Times,serif" font-size="14.00" fill="#0058ad">a 52 106</text>
</g>
<!-- T10049&#45;&gt;T10045 -->
<g id="edge1" class="edge">
<title>T10049:f0&#45;&gt;T10045:f1</title>
<path fill="none" stroke="#5b00c0" d="M897.697,-81.4581C900.5086,-70.6664 903.9026,-55.2808 905.0764,-40.2706"/>
<polygon fill="#5b00c0" stroke="#5b00c0" points="908.5849,-40.1358 905.5,-30 901.5908,-39.8473 908.5849,-40.1358"/>
<text text-anchor="middle" x="911" y="-51.8" font-family="Times,serif" font-size="14.00" fill="#5b00c0">rw</text>
</g>
<!-- T10045&#45;&gt;T10049 -->
<g id="edge2" class="edge">
<title>T10045&#45;&gt;T10049</title>
<path fill="none" stroke="#0050c0" d="M882.8693,-29.7625C884.716,-41.2689 887.3223,-57.5079 889.492,-71.0269"/>
<polygon fill="#0050c0" stroke="#0050c0" points="886.0751,-71.8244 891.1156,-81.1434 892.9866,-70.715 886.0751,-71.8244"/>
<text text-anchor="middle" x="892" y="-51.8" font-family="Times,serif" font-size="14.00" fill="#0050c0">rt</text>
</g>
</g>
</svg>
