<?xml version="1.0" encoding="UTF-8" standalone="no"?>
<!DOCTYPE svg PUBLIC "-//W3C//DTD SVG 1.1//EN"
 "http://www.w3.org/Graphics/SVG/1.1/DTD/svg11.dtd">
<!-- Generated by graphviz version 2.40.1 (20161225.0304)
 -->
<!-- Title: a_graph Pages: 1 -->
<svg width="2411pt" height="119pt"
 viewBox="0.00 0.00 2410.50 119.00" xmlns="http://www.w3.org/2000/svg" xmlns:xlink="http://www.w3.org/1999/xlink">
<g id="graph0" class="graph" transform="scale(1 1) rotate(0) translate(4 115)">
<title>a_graph</title>
<polygon fill="#ffffff" stroke="transparent" points="-4,4 -4,-115 2406.5,-115 2406.5,4 -4,4"/>
<!-- T11533 -->
<g id="node1" class="node">
<title>T11533</title>
<polygon fill="none" stroke="#0058ad" points="0,-81.5 0,-110.5 1365,-110.5 1365,-81.5 0,-81.5"/>
<text text-anchor="middle" x="566" y="-92.3" font-family="Times,serif" font-size="14.00" fill="#0058ad">r 39 [1 2 3 4 5 6 7 8 9 10 11 12 13 43 44 45 46 47 48 49 50 51 52 53 54 55 56 57 58 59 60 61 62 63 64 65 66 67 68 69 70 71 72 73 75 78 79 80 81 82 83 84 86 88 89 90 91 92 93 94 95 96 97 98 99 100]</text>
<polyline fill="none" stroke="#0058ad" points="1132,-81.5 1132,-110.5 "/>
<text text-anchor="middle" x="1160.5" y="-92.3" font-family="Times,serif" font-size="14.00" fill="#0058ad">a 55 96</text>
<polyline fill="none" stroke="#0058ad" points="1189,-81.5 1189,-110.5 "/>
<text text-anchor="middle" x="1277" y="-92.3" font-family="Times,serif" font-size="14.00" fill="#0058ad">r 60 [1 2 3 4 5 6 7 8 9 10 11]</text>
</g>
<!-- T11534 -->
<g id="node2" class="node">
<title>T11534</title>
<polygon fill="none" stroke="#0058ad" points="818.5,-.5 818.5,-29.5 2402.5,-29.5 2402.5,-.5 818.5,-.5"/>
<text text-anchor="middle" x="847" y="-11.3" font-family="Times,serif" font-size="14.00" fill="#0058ad">a 60 12</text>
<polyline fill="none" stroke="#0058ad" points="875.5,-.5 875.5,-29.5 "/>
<text text-anchor="middle" x="1610.5" y="-11.3" font-family="Times,serif" font-size="14.00" fill="#0058ad">r 55 [1 2 3 4 5 6 7 8 9 10 11 12 14 15 16 17 19 20 22 23 25 26 27 28 29 30 31 32 33 34 35 36 37 38 39 40 41 42 43 44 46 47 48 49 50 51 53 54 55 56 57 58 59 60 61 62 63 64 65 66 68 67 69 70 71 72 73 74 76 77 78 79 81 82 83 84 85 87 88 89 90 91 92 93 94 95]</text>
<polyline fill="none" stroke="#0058ad" points="2345.5,-.5 2345.5,-29.5 "/>
<text text-anchor="middle" x="2374" y="-11.3" font-family="Times,serif" font-size="14.00" fill="#0058ad">a 59 82</text>
</g>
<!-- T11533&#45;&gt;T11534 -->
<g id="edge1" class="edge">
<title>T11533:f2&#45;&gt;T11534:f0</title>
<path fill="none" stroke="#5b00c0" d="M1277.5,-81C1277.5,-50.9548 1247.3821,-56.2789 1218.5,-48 1200.4748,-42.8332 909.6007,-49.2412 855.2203,-35.088"/>
<polygon fill="#5b00c0" stroke="#5b00c0" points="856.9012,-32.0166 846.5,-30 853.3734,-38.0627 856.9012,-32.0166"/>
<text text-anchor="middle" x="1277" y="-51.8" font-family="Times,serif" font-size="14.00" fill="#5b00c0">rw</text>
</g>
<!-- T11534&#45;&gt;T11533 -->
<g id="edge2" class="edge">
<title>T11534:f1&#45;&gt;T11533:f1</title>
<path fill="none" stroke="#5b00c0" d="M1610.5,-30C1610.5,-52.8552 1220.7836,-39.671 1199.5,-48 1181.9897,-54.8523 1166.735,-57.4151 1162.0085,-70.9888"/>
<polygon fill="#5b00c0" stroke="#5b00c0" points="1158.5291,-70.5901 1160.5,-81 1165.451,-71.6331 1158.5291,-70.5901"/>
<text text-anchor="middle" x="1207" y="-51.8" font-family="Times,serif" font-size="14.00" fill="#5b00c0">rw</text>
</g>
</g>
</svg>
