<?xml version="1.0" encoding="UTF-8" standalone="no"?>
<!DOCTYPE svg PUBLIC "-//W3C//DTD SVG 1.1//EN"
 "http://www.w3.org/Graphics/SVG/1.1/DTD/svg11.dtd">
<!-- Generated by graphviz version 2.40.1 (20161225.0304)
 -->
<!-- Title: a_graph Pages: 1 -->
<svg width="5641pt" height="119pt"
 viewBox="0.00 0.00 5641.00 119.00" xmlns="http://www.w3.org/2000/svg" xmlns:xlink="http://www.w3.org/1999/xlink">
<g id="graph0" class="graph" transform="scale(1 1) rotate(0) translate(4 115)">
<title>a_graph</title>
<polygon fill="#ffffff" stroke="transparent" points="-4,4 -4,-115 5637,-115 5637,4 -4,4"/>
<!-- T7125 -->
<g id="node1" class="node">
<title>T7125</title>
<polygon fill="none" stroke="#0058ad" points="1576,-81.5 1576,-110.5 5633,-110.5 5633,-81.5 1576,-81.5"/>
<text text-anchor="middle" x="2404" y="-92.3" font-family="Times,serif" font-size="14.00" fill="#0058ad">r 38 [3 1 2 4 5 6 7 8 10 11 9 12 13 14 17 18 19 20 24 25 23 26 27 21 22 28 29 31 32 33 30 34 35 36 37 39 40 41 42 43 44 45 46 47 48 49 50 51 52 53 56 57 58 55 59 60 61 62 54 63 64 65 66 67 68 69 72 71 70 75 76 73 74 77 79 80 78 81 82 83 84 85 86 87 88 89 90 92 91 93 94 95 96 97 100 101]</text>
<polyline fill="none" stroke="#0058ad" points="3232,-81.5 3232,-110.5 "/>
<text text-anchor="middle" x="3264" y="-92.3" font-family="Times,serif" font-size="14.00" fill="#0058ad">a 37 127</text>
<polyline fill="none" stroke="#0058ad" points="3296,-81.5 3296,-110.5 "/>
<text text-anchor="middle" x="3324.5" y="-92.3" font-family="Times,serif" font-size="14.00" fill="#0058ad">a 34 65</text>
<polyline fill="none" stroke="#0058ad" points="3353,-81.5 3353,-110.5 "/>
<text text-anchor="middle" x="4493" y="-92.3" font-family="Times,serif" font-size="14.00" fill="#0058ad">r 37 [1 2 3 4 5 7 6 8 9 11 10 14 12 13 16 17 15 19 20 21 22 18 23 24 25 26 27 28 29 30 31 32 33 36 35 34 37 39 38 40 41 42 43 45 46 47 44 49 51 52 55 56 57 58 60 59 61 62 63 65 66 64 67 68 69 70 72 73 71 74 75 76 77 79 80 81 83 82 85 84 86 87 88 89 91 92 93 90 94 95 96 97 98 99 100 101 102 103 104 105 106 108 109 107 110 111 112 113 114 115 116 117 118 119 120 121 122 125 123 124 126 127]</text>
</g>
<!-- T7127 -->
<g id="node2" class="node">
<title>T7127</title>
<polygon fill="none" stroke="#0058ad" points="0,-.5 0,-29.5 4569,-29.5 4569,-.5 0,-.5"/>
<text text-anchor="middle" x="1128" y="-11.3" font-family="Times,serif" font-size="14.00" fill="#0058ad">r 37 [1 2 3 4 5 7 6 8 9 11 10 14 12 13 16 17 15 19 20 21 22 18 23 24 25 26 27 28 29 30 31 32 33 36 35 34 37 39 38 40 41 42 43 45 46 47 44 49 51 52 55 56 57 58 60 59 61 62 63 65 66 64 67 68 69 70 72 73 71 74 75 76 77 79 80 81 83 82 85 84 86 87 88 89 91 92 93 90 94 95 96 97 98 99 100 101 102 103 104 105 106 108 109 107 110 111 112 113 114 115 116 117 118 119 120 121 122 125 123 124 126]</text>
<polyline fill="none" stroke="#0058ad" points="2256,-.5 2256,-29.5 "/>
<text text-anchor="middle" x="3384" y="-11.3" font-family="Times,serif" font-size="14.00" fill="#0058ad">r 37 [1 2 3 4 5 7 6 8 9 11 10 14 12 13 16 17 15 19 20 21 22 18 23 24 25 26 27 28 29 30 31 32 33 36 35 34 37 39 38 40 41 42 43 45 46 47 44 49 51 52 55 56 57 58 60 59 61 62 63 65 66 64 67 68 69 70 72 73 71 74 75 76 77 79 80 81 83 82 85 84 86 87 88 89 91 92 93 90 94 95 96 97 98 99 100 101 102 103 104 105 106 108 109 107 110 111 112 113 114 115 116 117 118 119 120 121 122 125 123 124 126]</text>
<polyline fill="none" stroke="#0058ad" points="4512,-.5 4512,-29.5 "/>
<text text-anchor="middle" x="4540.5" y="-11.3" font-family="Times,serif" font-size="14.00" fill="#0058ad">a 38 99</text>
</g>
<!-- T7125&#45;&gt;T7127 -->
<g id="edge1" class="edge">
<title>T7125:f0&#45;&gt;T7127:f2</title>
<path fill="none" stroke="#5b00c0" d="M2403.5,-81C2403.5,56.529 2884.0441,-52.4824 3021.5,-48 3041.5784,-47.3452 4400.5267,-50.7466 4530.5363,-32.8611"/>
<polygon fill="#5b00c0" stroke="#5b00c0" points="4531.8544,-36.1241 4540.5,-30 4529.9224,-29.396 4531.8544,-36.1241"/>
<text text-anchor="middle" x="3029" y="-51.8" font-family="Times,serif" font-size="14.00" fill="#5b00c0">rw</text>
</g>
<!-- T7127&#45;&gt;T7125 -->
<g id="edge2" class="edge">
<title>T7127:f0&#45;&gt;T7125:f1</title>
<path fill="none" stroke="#5b00c0" d="M1127.5,-30C1127.5,-43.2575 3023.2816,-46.9816 3036.5,-48 3134.5746,-55.5564 3254.7155,15.6553 3263.0417,-70.8988"/>
<polygon fill="#5b00c0" stroke="#5b00c0" points="3259.5502,-71.1689 3263.5,-81 3266.5431,-70.8516 3259.5502,-71.1689"/>
<text text-anchor="middle" x="3268" y="-51.8" font-family="Times,serif" font-size="14.00" fill="#5b00c0">rw</text>
</g>
</g>
</svg>
