<?xml version="1.0" encoding="UTF-8" standalone="no"?>
<!DOCTYPE svg PUBLIC "-//W3C//DTD SVG 1.1//EN"
 "http://www.w3.org/Graphics/SVG/1.1/DTD/svg11.dtd">
<!-- Generated by graphviz version 2.40.1 (20161225.0304)
 -->
<!-- Title: a_graph Pages: 1 -->
<svg width="2408pt" height="119pt"
 viewBox="0.00 0.00 2407.50 119.00" xmlns="http://www.w3.org/2000/svg" xmlns:xlink="http://www.w3.org/1999/xlink">
<g id="graph0" class="graph" transform="scale(1 1) rotate(0) translate(4 115)">
<title>a_graph</title>
<polygon fill="#ffffff" stroke="transparent" points="-4,4 -4,-115 2403.5,-115 2403.5,4 -4,4"/>
<!-- T5353 -->
<g id="node1" class="node">
<title>T5353</title>
<polygon fill="none" stroke="#0058ad" points="0,-81.5 0,-110.5 1949,-110.5 1949,-81.5 0,-81.5"/>
<text text-anchor="middle" x="946" y="-92.3" font-family="Times,serif" font-size="14.00" fill="#0058ad">r 21 [1 2 4 5 6 3 7 10 11 12 13 15 16 17 18 19 20 21 22 23 24 25 26 27 29 30 31 32 34 33 35 36 37 38 39 40 41 42 43 44 45 46 47 48 51 49 52 50 53 54 55 57 56 58 59 60 61 62 63 64 67 68 69 71 72 70 73 74 75 76 77 78 79 80 81 82 83 84 85 86 87 88 89 90 91 92 93 94 95 96 98 97 99 100 101 102 103 104 105 106 107 108 110 109 111]</text>
<polyline fill="none" stroke="#0058ad" points="1892,-81.5 1892,-110.5 "/>
<text text-anchor="middle" x="1920.5" y="-92.3" font-family="Times,serif" font-size="14.00" fill="#0058ad">a 30 87</text>
</g>
<!-- T5355 -->
<g id="node2" class="node">
<title>T5355</title>
<polygon fill="none" stroke="#0058ad" points="963.5,-.5 963.5,-29.5 2399.5,-29.5 2399.5,-.5 963.5,-.5"/>
<text text-anchor="middle" x="992" y="-11.3" font-family="Times,serif" font-size="14.00" fill="#0058ad">a 29 77</text>
<polyline fill="none" stroke="#0058ad" points="1020.5,-.5 1020.5,-29.5 "/>
<text text-anchor="middle" x="1052.5" y="-11.3" font-family="Times,serif" font-size="14.00" fill="#0058ad">a 21 113</text>
<polyline fill="none" stroke="#0058ad" points="1084.5,-.5 1084.5,-29.5 "/>
<text text-anchor="middle" x="1742" y="-11.3" font-family="Times,serif" font-size="14.00" fill="#0058ad">r 30 [2 3 4 5 1 6 7 8 9 10 11 12 13 16 17 15 14 19 20 21 22 18 24 25 23 27 26 28 29 30 31 33 34 35 36 32 39 40 37 38 44 41 42 43 47 45 46 48 49 50 55 56 57 60 62 65 66 63 69 70 71 61 72 73 74 75 76 77 78 79 82 80 81 83 84 85 86]</text>
</g>
<!-- T5353&#45;&gt;T5355 -->
<g id="edge1" class="edge">
<title>T5353:f0&#45;&gt;T5355:f1</title>
<path fill="none" stroke="#5b00c0" d="M945.5,-81C945.5,-32.2287 1037.2066,-75.2014 1050.8193,-40.0484"/>
<polygon fill="#5b00c0" stroke="#5b00c0" points="1054.3023,-40.4404 1052.5,-30 1047.3982,-39.2856 1054.3023,-40.4404"/>
<text text-anchor="middle" x="1051" y="-51.8" font-family="Times,serif" font-size="14.00" fill="#5b00c0">rw</text>
</g>
<!-- T5355&#45;&gt;T5353 -->
<g id="edge2" class="edge">
<title>T5355:f2&#45;&gt;T5353:f1</title>
<path fill="none" stroke="#5b00c0" d="M1742.5,-30C1742.5,-108.4367 1904.2036,-8.9243 1919.3633,-70.6782"/>
<polygon fill="#5b00c0" stroke="#5b00c0" points="1915.9263,-71.4432 1920.5,-81 1922.8843,-70.6769 1915.9263,-71.4432"/>
<text text-anchor="middle" x="1923" y="-51.8" font-family="Times,serif" font-size="14.00" fill="#5b00c0">rw</text>
</g>
</g>
</svg>
