<?xml version="1.0" encoding="UTF-8" standalone="no"?>
<!DOCTYPE svg PUBLIC "-//W3C//DTD SVG 1.1//EN"
 "http://www.w3.org/Graphics/SVG/1.1/DTD/svg11.dtd">
<!-- Generated by graphviz version 2.40.1 (20161225.0304)
 -->
<!-- Title: a_graph Pages: 1 -->
<svg width="1298pt" height="281pt"
 viewBox="0.00 0.00 1297.50 281.00" xmlns="http://www.w3.org/2000/svg" xmlns:xlink="http://www.w3.org/1999/xlink">
<g id="graph0" class="graph" transform="scale(1 1) rotate(0) translate(4 277)">
<title>a_graph</title>
<polygon fill="#ffffff" stroke="transparent" points="-4,4 -4,-277 1293.5,-277 1293.5,4 -4,4"/>
<!-- T7357 -->
<g id="node1" class="node">
<title>T7357</title>
<polygon fill="none" stroke="#0058ad" points="0,-243.5 0,-272.5 545,-272.5 545,-243.5 0,-243.5"/>
<text text-anchor="middle" x="272.5" y="-254.3" font-family="Times,serif" font-size="14.00" fill="#0058ad">r 42 [2 3 4 8 9 10 11 5 6 7 12 13 15 16 17 18 14 21 22 23 24 25 27 29 28 30 26 31 33 34 35 36]</text>
</g>
<!-- T7361 -->
<g id="node2" class="node">
<title>T7361</title>
<polygon fill="none" stroke="#0058ad" points="448,-162.5 448,-191.5 1049,-191.5 1049,-162.5 448,-162.5"/>
<text text-anchor="middle" x="695" y="-173.3" font-family="Times,serif" font-size="14.00" fill="#0058ad">r 41 [1 2 3 4 6 5 7 8 11 10 12 13 19 20 21 22 23 24 26 27 25 28 29 31 30 32 33 34 35]</text>
<polyline fill="none" stroke="#0058ad" points="942,-162.5 942,-191.5 "/>
<text text-anchor="middle" x="967" y="-173.3" font-family="Times,serif" font-size="14.00" fill="#0058ad">a 4 76</text>
<polyline fill="none" stroke="#0058ad" points="992,-162.5 992,-191.5 "/>
<text text-anchor="middle" x="1020.5" y="-173.3" font-family="Times,serif" font-size="14.00" fill="#0058ad">a 42 37</text>
</g>
<!-- T7357&#45;&gt;T7361 -->
<g id="edge1" class="edge">
<title>T7357:f0&#45;&gt;T7361:f2</title>
<path fill="none" stroke="#5b00c0" d="M496.4179,-243.4906C693.9758,-229.9998 958.5151,-209.9973 1011.166,-196.4246"/>
<polygon fill="#5b00c0" stroke="#5b00c0" points="1012.963,-199.4461 1020.5,-192 1009.9646,-193.1208 1012.963,-199.4461"/>
<text text-anchor="middle" x="919" y="-213.8" font-family="Times,serif" font-size="14.00" fill="#5b00c0">rw</text>
</g>
<!-- T7349 -->
<g id="node4" class="node">
<title>T7349</title>
<polygon fill="none" stroke="#0058ad" points="284.5,-81.5 284.5,-110.5 1250.5,-110.5 1250.5,-81.5 284.5,-81.5"/>
<text text-anchor="middle" x="557" y="-92.3" font-family="Times,serif" font-size="14.00" fill="#0058ad">r 42 [2 3 4 8 9 10 11 5 6 7 12 13 15 16 17 18 14 21 22 23 24 25 27 29 28 30 26 31 33 34 35 36]</text>
<polyline fill="none" stroke="#0058ad" points="829.5,-81.5 829.5,-110.5 "/>
<text text-anchor="middle" x="858" y="-92.3" font-family="Times,serif" font-size="14.00" fill="#0058ad">a 41 36</text>
<polyline fill="none" stroke="#0058ad" points="886.5,-81.5 886.5,-110.5 "/>
<text text-anchor="middle" x="1040" y="-92.3" font-family="Times,serif" font-size="14.00" fill="#0058ad">r 2 [2 7 8 9 10 11 12 13 14 15 16 17 18 19 20 21 23]</text>
<polyline fill="none" stroke="#0058ad" points="1193.5,-81.5 1193.5,-110.5 "/>
<text text-anchor="middle" x="1222" y="-92.3" font-family="Times,serif" font-size="14.00" fill="#0058ad">a 41 37</text>
</g>
<!-- T7361&#45;&gt;T7349 -->
<g id="edge2" class="edge">
<title>T7361:f0&#45;&gt;T7349:f1</title>
<path fill="none" stroke="#5b00c0" d="M694.5,-162C694.5,-89.3952 842.8754,-177.8282 857.3652,-120.9498"/>
<polygon fill="#5b00c0" stroke="#5b00c0" points="860.8441,-121.3322 858.5,-111 853.8892,-120.5389 860.8441,-121.3322"/>
<text text-anchor="middle" x="859" y="-132.8" font-family="Times,serif" font-size="14.00" fill="#5b00c0">rw</text>
</g>
<!-- T7353 -->
<g id="node3" class="node">
<title>T7353</title>
<polygon fill="none" stroke="#0058ad" points="495,-.5 495,-29.5 1040,-29.5 1040,-.5 495,-.5"/>
<text text-anchor="middle" x="767.5" y="-11.3" font-family="Times,serif" font-size="14.00" fill="#0058ad">r 42 [2 3 4 8 9 10 11 5 6 7 12 13 15 16 17 18 14 21 22 23 24 25 27 29 28 30 26 31 33 34 35 36]</text>
</g>
<!-- T7353&#45;&gt;T7357 -->
<g id="edge4" class="edge">
<title>T7353&#45;&gt;T7357</title>
<path fill="none" stroke="#0050c0" d="M568.0022,-29.5235C440.5565,-40.8718 295.5342,-58.4867 275.5,-81 237.9628,-123.1822 252.7599,-195.9845 264.1068,-233.7293"/>
<polygon fill="#0050c0" stroke="#0050c0" points="260.8113,-234.916 267.1693,-243.391 267.4841,-232.8008 260.8113,-234.916"/>
<text text-anchor="middle" x="259" y="-132.8" font-family="Times,serif" font-size="14.00" fill="#0050c0">rt</text>
</g>
<!-- T7353&#45;&gt;T7361 -->
<g id="edge3" class="edge">
<title>T7353:f0&#45;&gt;T7361:f2</title>
<path fill="none" stroke="#5b00c0" d="M968.1419,-29.5102C1095.394,-40.8129 1239.7105,-58.3785 1259.5,-81 1324.8922,-155.75 1163.1473,-175.7301 1059.6364,-176.9402"/>
<polygon fill="#5b00c0" stroke="#5b00c0" points="1059.4792,-173.441 1049.5,-177 1059.5205,-180.4409 1059.4792,-173.441"/>
<text text-anchor="middle" x="1282" y="-92.3" font-family="Times,serif" font-size="14.00" fill="#5b00c0">rw</text>
</g>
<!-- T7349&#45;&gt;T7361 -->
<g id="edge5" class="edge">
<title>T7349:f0&#45;&gt;T7361:f2</title>
<path fill="none" stroke="#5b00c0" d="M556.5,-111C556.5,-128.4731 853.1904,-126.6153 870.5,-129 934.4241,-137.8067 1011.5341,-98.4535 1019.7768,-151.7861"/>
<polygon fill="#5b00c0" stroke="#5b00c0" points="1016.3023,-152.2722 1020.5,-162 1023.2849,-151.7777 1016.3023,-152.2722"/>
<text text-anchor="middle" x="1024" y="-132.8" font-family="Times,serif" font-size="14.00" fill="#5b00c0">rw</text>
</g>
<!-- T7349&#45;&gt;T7353 -->
<g id="edge6" class="edge">
<title>T7349&#45;&gt;T7353</title>
<path fill="none" stroke="#0050c0" d="M767.5,-81.1434C767.5,-69.6112 767.5,-53.3668 767.5,-39.8626"/>
<polygon fill="#0050c0" stroke="#0050c0" points="771.0001,-39.7624 767.5,-29.7625 764.0001,-39.7625 771.0001,-39.7624"/>
<text text-anchor="middle" x="772" y="-51.8" font-family="Times,serif" font-size="14.00" fill="#0050c0">rt</text>
</g>
</g>
</svg>
