<?xml version="1.0" encoding="UTF-8" standalone="no"?>
<!DOCTYPE svg PUBLIC "-//W3C//DTD SVG 1.1//EN"
 "http://www.w3.org/Graphics/SVG/1.1/DTD/svg11.dtd">
<!-- Generated by graphviz version 2.40.1 (20161225.0304)
 -->
<!-- Title: a_graph Pages: 1 -->
<svg width="1268pt" height="200pt"
 viewBox="0.00 0.00 1268.00 200.00" xmlns="http://www.w3.org/2000/svg" xmlns:xlink="http://www.w3.org/1999/xlink">
<g id="graph0" class="graph" transform="scale(1 1) rotate(0) translate(4 196)">
<title>a_graph</title>
<polygon fill="#ffffff" stroke="transparent" points="-4,4 -4,-196 1264,-196 1264,4 -4,4"/>
<!-- T2575 -->
<g id="node1" class="node">
<title>T2575</title>
<polygon fill="none" stroke="#0058ad" points="0,-162.5 0,-191.5 927,-191.5 927,-162.5 0,-162.5"/>
<text text-anchor="middle" x="347" y="-173.3" font-family="Times,serif" font-size="14.00" fill="#0058ad">r 18 [1 2 3 4 5 6 7 8 9 10 11 13 14 15 12 18 19 20 21 22 23 24 26 27 16 17 28 25 32 34 37 38 40 41 29 44 45 46 47 48 51]</text>
<polyline fill="none" stroke="#0058ad" points="694,-162.5 694,-191.5 "/>
<text text-anchor="middle" x="722.5" y="-173.3" font-family="Times,serif" font-size="14.00" fill="#0058ad">a 18 49</text>
<polyline fill="none" stroke="#0058ad" points="751,-162.5 751,-191.5 "/>
<text text-anchor="middle" x="839" y="-173.3" font-family="Times,serif" font-size="14.00" fill="#0058ad">r 19 [1 2 4 5 6 3 7 8 9 10 12]</text>
</g>
<!-- T2577 -->
<g id="node2" class="node">
<title>T2577</title>
<polygon fill="none" stroke="#0058ad" points="315,-.5 315,-29.5 1260,-29.5 1260,-.5 315,-.5"/>
<text text-anchor="middle" x="662" y="-11.3" font-family="Times,serif" font-size="14.00" fill="#0058ad">r 18 [1 2 3 4 5 6 7 8 9 10 11 13 14 15 12 18 19 20 21 22 23 24 26 27 16 17 28 25 32 34 37 38 40 41 29 44 45 46 47 48 51]</text>
<polyline fill="none" stroke="#0058ad" points="1009,-.5 1009,-29.5 "/>
<text text-anchor="middle" x="1037.5" y="-11.3" font-family="Times,serif" font-size="14.00" fill="#0058ad">a 19 15</text>
<polyline fill="none" stroke="#0058ad" points="1066,-.5 1066,-29.5 "/>
<text text-anchor="middle" x="1163" y="-11.3" font-family="Times,serif" font-size="14.00" fill="#0058ad">r 19 [1 2 4 5 6 3 7 8 9 10 12 15]</text>
</g>
<!-- T2575&#45;&gt;T2577 -->
<g id="edge2" class="edge">
<title>T2575:f2&#45;&gt;T2577:f1</title>
<path fill="none" stroke="#5b00c0" d="M927.5,-177C980.6738,-177 1125.5033,-153.4696 1157.5,-111 1165.5232,-100.3507 1164.8567,-92.1201 1157.5,-81 1143.4489,-59.7608 1061.3999,-58.8424 1041.7346,-39.2593"/>
<polygon fill="#5b00c0" stroke="#5b00c0" points="1044.8421,-37.6384 1037.5,-30 1038.4762,-40.5498 1044.8421,-37.6384"/>
<text text-anchor="middle" x="1170" y="-92.3" font-family="Times,serif" font-size="14.00" fill="#5b00c0">rw</text>
</g>
<!-- T2579 -->
<g id="node3" class="node">
<title>T2579</title>
<polygon fill="none" stroke="#0058ad" points="694.5,-81.5 694.5,-110.5 1148.5,-110.5 1148.5,-81.5 694.5,-81.5"/>
<text text-anchor="middle" x="723" y="-92.3" font-family="Times,serif" font-size="14.00" fill="#0058ad">a 18 52</text>
<polyline fill="none" stroke="#0058ad" points="751.5,-81.5 751.5,-110.5 "/>
<text text-anchor="middle" x="839.5" y="-92.3" font-family="Times,serif" font-size="14.00" fill="#0058ad">r 19 [1 2 4 5 6 3 7 8 9 10 12]</text>
<polyline fill="none" stroke="#0058ad" points="927.5,-81.5 927.5,-110.5 "/>
<text text-anchor="middle" x="1038" y="-92.3" font-family="Times,serif" font-size="14.00" fill="#0058ad">r 5 [1 2 3 4 5 6 7 8 9 10 11 12 13 50]</text>
</g>
<!-- T2575&#45;&gt;T2579 -->
<g id="edge1" class="edge">
<title>T2575:f1&#45;&gt;T2579:f0</title>
<path fill="none" stroke="#c02700" d="M722.5,-162C722.5,-143.2292 722.5,-136.1168 722.5,-121.3535"/>
<polygon fill="#c02700" stroke="#c02700" points="726.0001,-121 722.5,-111 719.0001,-121 726.0001,-121"/>
<text text-anchor="middle" x="732.5" y="-132.8" font-family="Times,serif" font-size="14.00" fill="#c02700">ww</text>
</g>
<!-- T2577&#45;&gt;T2575 -->
<g id="edge3" class="edge">
<title>T2577:f0&#45;&gt;T2575:f1</title>
<path fill="none" stroke="#5b00c0" d="M661.5,-30C661.5,-66.2215 654.6509,-78.43 670.5,-111 682.9491,-136.5832 713.6838,-131.5861 720.9448,-151.9788"/>
<polygon fill="#5b00c0" stroke="#5b00c0" points="717.5078,-152.6551 722.5,-162 724.425,-151.5815 717.5078,-152.6551"/>
<text text-anchor="middle" x="678" y="-92.3" font-family="Times,serif" font-size="14.00" fill="#5b00c0">rw</text>
</g>
<!-- T2579&#45;&gt;T2577 -->
<g id="edge4" class="edge">
<title>T2579:f1&#45;&gt;T2577:f1</title>
<path fill="none" stroke="#5b00c0" d="M839.5,-81C839.5,6.1451 1021.5909,-110.52 1036.528,-40.0937"/>
<polygon fill="#5b00c0" stroke="#5b00c0" points="1040.0253,-40.2895 1037.5,-30 1033.0575,-39.6185 1040.0253,-40.2895"/>
<text text-anchor="middle" x="1039" y="-51.8" font-family="Times,serif" font-size="14.00" fill="#5b00c0">rw</text>
</g>
</g>
</svg>
