<?xml version="1.0" encoding="UTF-8" standalone="no"?>
<!DOCTYPE svg PUBLIC "-//W3C//DTD SVG 1.1//EN"
 "http://www.w3.org/Graphics/SVG/1.1/DTD/svg11.dtd">
<!-- Generated by graphviz version 2.40.1 (20161225.0304)
 -->
<!-- Title: a_graph Pages: 1 -->
<svg width="3009pt" height="119pt"
 viewBox="0.00 0.00 3009.00 119.00" xmlns="http://www.w3.org/2000/svg" xmlns:xlink="http://www.w3.org/1999/xlink">
<g id="graph0" class="graph" transform="scale(1 1) rotate(0) translate(4 115)">
<title>a_graph</title>
<polygon fill="#ffffff" stroke="transparent" points="-4,4 -4,-115 3005,-115 3005,4 -4,4"/>
<!-- T19093 -->
<g id="node1" class="node">
<title>T19093</title>
<polygon fill="none" stroke="#0058ad" points="0,-81.5 0,-110.5 3001,-110.5 3001,-81.5 0,-81.5"/>
<text text-anchor="middle" x="588.5" y="-92.3" font-family="Times,serif" font-size="14.00" fill="#0058ad">r 98 [2 3 4 5 6 7 8 1 10 11 9 12 13 14 15 16 17 20 21 22 18 19 24 26 27 23 25 28 29 30 32 33 34 37 31 40 41 39 43 42 44 45 46 47 48 49 50 51 53 52 56 57 54 55 59 60 61 58 62 63 64 66 67 70 71 65 68 69 73]</text>
<polyline fill="none" stroke="#0058ad" points="1177,-81.5 1177,-110.5 "/>
<text text-anchor="middle" x="1765.5" y="-92.3" font-family="Times,serif" font-size="14.00" fill="#0058ad">r 98 [2 3 4 5 6 7 8 1 10 11 9 12 13 14 15 16 17 20 21 22 18 19 24 26 27 23 25 28 29 30 32 33 34 37 31 40 41 39 43 42 44 45 46 47 48 49 50 51 53 52 56 57 54 55 59 60 61 58 62 63 64 66 67 70 71 65 68 69 73]</text>
<polyline fill="none" stroke="#0058ad" points="2354,-81.5 2354,-110.5 "/>
<text text-anchor="middle" x="2649" y="-92.3" font-family="Times,serif" font-size="14.00" fill="#0058ad">r 95 [1 2 3 4 5 6 7 8 9 12 13 14 11 15 16 17 18 19 20 21 22 23 24 25 27 26 28 30 31 29 32 33 35 36 37]</text>
<polyline fill="none" stroke="#0058ad" points="2944,-81.5 2944,-110.5 "/>
<text text-anchor="middle" x="2972.5" y="-92.3" font-family="Times,serif" font-size="14.00" fill="#0058ad">a 96 68</text>
</g>
<!-- T19095 -->
<g id="node2" class="node">
<title>T19095</title>
<polygon fill="none" stroke="#0058ad" points="951,-.5 951,-29.5 2152,-29.5 2152,-.5 951,-.5"/>
<text text-anchor="middle" x="1494.5" y="-11.3" font-family="Times,serif" font-size="14.00" fill="#0058ad">r 96 [1 3 4 5 6 7 9 10 11 12 14 13 15 16 17 18 19 20 21 22 24 25 23 26 27 28 30 31 32 33 29 34 35 36 37 38 39 41 42 44 40 43 45 46 47 49 50 51 52 53 55 56 54 59 57 62 60 61 63 64 66 65 67]</text>
<polyline fill="none" stroke="#0058ad" points="2038,-.5 2038,-29.5 "/>
<text text-anchor="middle" x="2066.5" y="-11.3" font-family="Times,serif" font-size="14.00" fill="#0058ad">a 98 74</text>
<polyline fill="none" stroke="#0058ad" points="2095,-.5 2095,-29.5 "/>
<text text-anchor="middle" x="2123.5" y="-11.3" font-family="Times,serif" font-size="14.00" fill="#0058ad">a 98 75</text>
</g>
<!-- T19093&#45;&gt;T19095 -->
<g id="edge1" class="edge">
<title>T19093:f0&#45;&gt;T19095:f1</title>
<path fill="none" stroke="#5b00c0" d="M588.5,-81C588.5,79.7896 2003.6744,-182.5941 2064.4827,-39.9877"/>
<polygon fill="#5b00c0" stroke="#5b00c0" points="2067.9508,-40.495 2066.5,-30 2061.0894,-39.1091 2067.9508,-40.495"/>
<text text-anchor="middle" x="2058" y="-51.8" font-family="Times,serif" font-size="14.00" fill="#5b00c0">rw</text>
</g>
<!-- T19095&#45;&gt;T19093 -->
<g id="edge2" class="edge">
<title>T19095:f0&#45;&gt;T19093:f3</title>
<path fill="none" stroke="#5b00c0" d="M1494.5,-30C1494.5,-45.98 2053.5291,-47.4582 2069.5,-48 2166.4129,-51.2877 2918.4513,14.6469 2969.747,-71.2953"/>
<polygon fill="#5b00c0" stroke="#5b00c0" points="2966.4037,-72.3348 2972.5,-81 2973.138,-70.4244 2966.4037,-72.3348"/>
<text text-anchor="middle" x="2965" y="-51.8" font-family="Times,serif" font-size="14.00" fill="#5b00c0">rw</text>
</g>
</g>
</svg>
