<?xml version="1.0" encoding="UTF-8" standalone="no"?>
<!DOCTYPE svg PUBLIC "-//W3C//DTD SVG 1.1//EN"
 "http://www.w3.org/Graphics/SVG/1.1/DTD/svg11.dtd">
<!-- Generated by graphviz version 2.40.1 (20161225.0304)
 -->
<!-- Title: a_graph Pages: 1 -->
<svg width="1366pt" height="200pt"
 viewBox="0.00 0.00 1366.00 200.00" xmlns="http://www.w3.org/2000/svg" xmlns:xlink="http://www.w3.org/1999/xlink">
<g id="graph0" class="graph" transform="scale(1 1) rotate(0) translate(4 196)">
<title>a_graph</title>
<polygon fill="#ffffff" stroke="transparent" points="-4,4 -4,-196 1362,-196 1362,4 -4,4"/>
<!-- T3545 -->
<g id="node1" class="node">
<title>T3545</title>
<polygon fill="none" stroke="#0058ad" points="371,-162.5 371,-191.5 806,-191.5 806,-162.5 371,-162.5"/>
<text text-anchor="middle" x="588.5" y="-173.3" font-family="Times,serif" font-size="14.00" fill="#0058ad">r 23 [2 3 1 4 5 6 8 9 10 11 7 12 13 16 18 21 15 17 23 22 24 25 26 28 29 27]</text>
</g>
<!-- T3547 -->
<g id="node3" class="node">
<title>T3547</title>
<polygon fill="none" stroke="#0058ad" points="0,-81.5 0,-110.5 1111,-110.5 1111,-81.5 0,-81.5"/>
<text text-anchor="middle" x="28.5" y="-92.3" font-family="Times,serif" font-size="14.00" fill="#0058ad">a 23 30</text>
<polyline fill="none" stroke="#0058ad" points="57,-81.5 57,-110.5 "/>
<text text-anchor="middle" x="82" y="-92.3" font-family="Times,serif" font-size="14.00" fill="#0058ad">a 4 38</text>
<polyline fill="none" stroke="#0058ad" points="107,-81.5 107,-110.5 "/>
<text text-anchor="middle" x="609" y="-92.3" font-family="Times,serif" font-size="14.00" fill="#0058ad">r 22 [1 2 4 5 6 7 8 9 3 10 11 12 15 16 13 14 18 20 17 21 22 19 24 25 26 23 29 30 31 28 27 37 39 40 41 42 46 43 47 49 48 50 52 53 54 55 56 57 51 60 61 58 59 63 62 65 64 67 66]</text>
</g>
<!-- T3545&#45;&gt;T3547 -->
<g id="edge1" class="edge">
<title>T3545:f0&#45;&gt;T3547:f0</title>
<path fill="none" stroke="#5b00c0" d="M387.5137,-162.4778C245.7194,-151.0012 74.4805,-134.2002 36.2936,-117.5912"/>
<polygon fill="#5b00c0" stroke="#5b00c0" points="38.3957,-114.7851 28.5,-111 33.8754,-120.1299 38.3957,-114.7851"/>
<text text-anchor="middle" x="187" y="-132.8" font-family="Times,serif" font-size="14.00" fill="#5b00c0">rw</text>
</g>
<!-- T3543 -->
<g id="node2" class="node">
<title>T3543</title>
<polygon fill="none" stroke="#0058ad" points="795,-.5 795,-29.5 1358,-29.5 1358,-.5 795,-.5"/>
<text text-anchor="middle" x="823.5" y="-11.3" font-family="Times,serif" font-size="14.00" fill="#0058ad">a 22 68</text>
<polyline fill="none" stroke="#0058ad" points="852,-.5 852,-29.5 "/>
<text text-anchor="middle" x="1076.5" y="-11.3" font-family="Times,serif" font-size="14.00" fill="#0058ad">r 21 [1 2 4 5 6 3 7 10 11 12 13 15 16 17 18 19 20 21 22 23 24 25 26 27 29 30]</text>
<polyline fill="none" stroke="#0058ad" points="1301,-.5 1301,-29.5 "/>
<text text-anchor="middle" x="1329.5" y="-11.3" font-family="Times,serif" font-size="14.00" fill="#0058ad">a 21 31</text>
</g>
<!-- T3543&#45;&gt;T3545 -->
<g id="edge2" class="edge">
<title>T3543&#45;&gt;T3545</title>
<path fill="none" stroke="#0050c0" d="M1092.0369,-29.5206C1111.8259,-49.7422 1141.0215,-86.6379 1119.5,-111 1098.6305,-134.624 950.6263,-151.7502 816.1646,-162.6281"/>
<polygon fill="#0050c0" stroke="#0050c0" points="815.7867,-159.1471 806.0975,-163.433 816.3447,-166.1248 815.7867,-159.1471"/>
<text text-anchor="middle" x="1132" y="-92.3" font-family="Times,serif" font-size="14.00" fill="#0050c0">rt</text>
</g>
<!-- T3547&#45;&gt;T3543 -->
<g id="edge3" class="edge">
<title>T3547:f2&#45;&gt;T3543:f0</title>
<path fill="none" stroke="#5b00c0" d="M609.5,-81C609.5,-40.3348 732.1862,-18.1553 784.2552,-15.313"/>
<polygon fill="#5b00c0" stroke="#5b00c0" points="784.6116,-18.8038 794.5,-15 784.3977,-11.8071 784.6116,-18.8038"/>
<text text-anchor="middle" x="645" y="-51.8" font-family="Times,serif" font-size="14.00" fill="#5b00c0">rw</text>
</g>
</g>
</svg>
