<?xml version="1.0" encoding="UTF-8" standalone="no"?>
<!DOCTYPE svg PUBLIC "-//W3C//DTD SVG 1.1//EN"
 "http://www.w3.org/Graphics/SVG/1.1/DTD/svg11.dtd">
<!-- Generated by graphviz version 2.40.1 (20161225.0304)
 -->
<!-- Title: a_graph Pages: 1 -->
<svg width="1855pt" height="362pt"
 viewBox="0.00 0.00 1854.65 362.00" xmlns="http://www.w3.org/2000/svg" xmlns:xlink="http://www.w3.org/1999/xlink">
<g id="graph0" class="graph" transform="scale(1 1) rotate(0) translate(4 358)">
<title>a_graph</title>
<polygon fill="#ffffff" stroke="transparent" points="-4,4 -4,-358 1850.6485,-358 1850.6485,4 -4,4"/>
<!-- T3955 -->
<g id="node1" class="node">
<title>T3955</title>
<polygon fill="none" stroke="#0058ad" points="0,-324.5 0,-353.5 728,-353.5 728,-324.5 0,-324.5"/>
<text text-anchor="middle" x="364" y="-335.3" font-family="Times,serif" font-size="14.00" fill="#0058ad">r 25 [1 3 4 5 6 7 2 9 8 11 12 13 10 14 15 16 17 18 19 22 23 24 25 26 27 28 29 20 21 30 31 32 33 34 36 37 41 35 43 42 48 49 50]</text>
</g>
<!-- T3957 -->
<g id="node5" class="node">
<title>T3957</title>
<polygon fill="none" stroke="#0058ad" points="335.5,-243.5 335.5,-272.5 1828.5,-272.5 1828.5,-243.5 335.5,-243.5"/>
<text text-anchor="middle" x="364" y="-254.3" font-family="Times,serif" font-size="14.00" fill="#0058ad">a 25 51</text>
<polyline fill="none" stroke="#0058ad" points="392.5,-243.5 392.5,-272.5 "/>
<text text-anchor="middle" x="1110.5" y="-254.3" font-family="Times,serif" font-size="14.00" fill="#0058ad">r 23 [2 3 1 4 5 6 8 9 10 11 7 12 13 16 18 21 15 17 23 22 24 25 26 28 29 27 30 31 32 33 34 35 37 38 36 40 41 42 43 44 45 46 48 47 49 51 50 53 55 54 52 56 57 58 59 60 61 62 64 63 65 66 67 69 68 70 71 72 73 74 75 76 79 80 77 78 81 84 86 87 88 90 91 92]</text>
</g>
<!-- T3955&#45;&gt;T3957 -->
<g id="edge1" class="edge">
<title>T3955:f0&#45;&gt;T3957:f0</title>
<path fill="none" stroke="#5b00c0" d="M364,-324.3204C364,-313.4532 364,-298.0147 364,-283.1425"/>
<polygon fill="#5b00c0" stroke="#5b00c0" points="367.5001,-283 364,-273 360.5001,-283 367.5001,-283"/>
<text text-anchor="middle" x="371.5" y="-294.8" font-family="Times,serif" font-size="14.00" fill="#5b00c0">rw</text>
</g>
<!-- T3953 -->
<g id="node2" class="node">
<title>T3953</title>
<polygon fill="none" stroke="#0058ad" points="814.5,-.5 814.5,-29.5 871.5,-29.5 871.5,-.5 814.5,-.5"/>
<text text-anchor="middle" x="843" y="-11.3" font-family="Times,serif" font-size="14.00" fill="#0058ad">a 23 94</text>
</g>
<!-- T3953&#45;&gt;T3955 -->
<g id="edge2" class="edge">
<title>T3953&#45;&gt;T3955</title>
<path fill="none" stroke="#0050c0" d="M814.1823,-16.2841C702.8496,-21.6215 307,-44.2383 307,-96 307,-258 307,-258 307,-258 307,-281.1359 322.745,-302.327 337.6846,-317.2268"/>
<polygon fill="#0050c0" stroke="#0050c0" points="335.6534,-320.1211 345.3361,-324.4219 340.4488,-315.0216 335.6534,-320.1211"/>
<text text-anchor="middle" x="311.5" y="-173.3" font-family="Times,serif" font-size="14.00" fill="#0050c0">rt</text>
</g>
<!-- T3951 -->
<g id="node3" class="node">
<title>T3951</title>
<polygon fill="none" stroke="#0058ad" points="1026,-81.5 1026,-110.5 1592,-110.5 1592,-81.5 1026,-81.5"/>
<text text-anchor="middle" x="1054.5" y="-92.3" font-family="Times,serif" font-size="14.00" fill="#0058ad">a 24 33</text>
<polyline fill="none" stroke="#0058ad" points="1083,-81.5 1083,-110.5 "/>
<text text-anchor="middle" x="1111.5" y="-92.3" font-family="Times,serif" font-size="14.00" fill="#0058ad">a 23 93</text>
<polyline fill="none" stroke="#0058ad" points="1140,-81.5 1140,-110.5 "/>
<text text-anchor="middle" x="1366" y="-92.3" font-family="Times,serif" font-size="14.00" fill="#0058ad">r 24 [2 1 3 4 5 6 7 8 9 10 11 12 13 14 15 16 17 18 19 20 21 22 25 27 26 32 33]</text>
</g>
<!-- T3951&#45;&gt;T3955 -->
<g id="edge3" class="edge">
<title>T3951&#45;&gt;T3955</title>
<path fill="none" stroke="#0050c0" d="M1400.7522,-110.5551C1568.6871,-139.0672 1902.6298,-205.4116 1838,-273 1800.3814,-312.3407 1162.7639,-328.5364 738.5822,-334.9783"/>
<polygon fill="#0050c0" stroke="#0050c0" points="738.2353,-331.4831 728.2892,-335.1334 738.3408,-338.4823 738.2353,-331.4831"/>
<text text-anchor="middle" x="1826.5" y="-213.8" font-family="Times,serif" font-size="14.00" fill="#0050c0">rt</text>
</g>
<!-- T3951&#45;&gt;T3953 -->
<g id="edge4" class="edge">
<title>T3951:f1&#45;&gt;T3953:f0</title>
<path fill="none" stroke="#c02700" d="M1111,-81C1111,-29.4576 942.2919,-46.5227 879.529,-32.3272"/>
<polygon fill="#c02700" stroke="#c02700" points="880.3301,-28.9161 869.7531,-29.5304 878.4046,-35.6461 880.3301,-28.9161"/>
<text text-anchor="middle" x="1110" y="-51.8" font-family="Times,serif" font-size="14.00" fill="#c02700">ww</text>
</g>
<!-- T3947 -->
<g id="node4" class="node">
<title>T3947</title>
<polygon fill="none" stroke="#0058ad" points="547,-162.5 547,-191.5 1139,-191.5 1139,-162.5 547,-162.5"/>
<text text-anchor="middle" x="572" y="-173.3" font-family="Times,serif" font-size="14.00" fill="#0058ad">a 4 45</text>
<polyline fill="none" stroke="#0058ad" points="597,-162.5 597,-191.5 "/>
<text text-anchor="middle" x="622" y="-173.3" font-family="Times,serif" font-size="14.00" fill="#0058ad">a 5 82</text>
<polyline fill="none" stroke="#0058ad" points="647,-162.5 647,-191.5 "/>
<text text-anchor="middle" x="864.5" y="-173.3" font-family="Times,serif" font-size="14.00" fill="#0058ad">r 24 [2 1 3 4 5 6 7 8 9 10 11 12 13 14 15 16 17 18 19 20 21 22 25 27 26 32]</text>
<polyline fill="none" stroke="#0058ad" points="1082,-162.5 1082,-191.5 "/>
<text text-anchor="middle" x="1110.5" y="-173.3" font-family="Times,serif" font-size="14.00" fill="#0058ad">a 23 89</text>
</g>
<!-- T3947&#45;&gt;T3953 -->
<g id="edge6" class="edge">
<title>T3947&#45;&gt;T3953</title>
<path fill="none" stroke="#0050c0" d="M843,-162.3379C843,-134.5069 843,-73.7584 843,-39.5948"/>
<polygon fill="#0050c0" stroke="#0050c0" points="846.5001,-39.5123 843,-29.5123 839.5001,-39.5123 846.5001,-39.5123"/>
<text text-anchor="middle" x="847.5" y="-92.3" font-family="Times,serif" font-size="14.00" fill="#0050c0">rt</text>
</g>
<!-- T3947&#45;&gt;T3951 -->
<g id="edge5" class="edge">
<title>T3947:f3&#45;&gt;T3951:f1</title>
<path fill="none" stroke="#c02700" d="M1111,-162C1111,-143.2292 1111,-136.1168 1111,-121.3535"/>
<polygon fill="#c02700" stroke="#c02700" points="1114.5001,-121 1111,-111 1107.5001,-121 1114.5001,-121"/>
<text text-anchor="middle" x="1121" y="-132.8" font-family="Times,serif" font-size="14.00" fill="#c02700">ww</text>
</g>
<!-- T3957&#45;&gt;T3947 -->
<g id="edge7" class="edge">
<title>T3957:f1&#45;&gt;T3947:f3</title>
<path fill="none" stroke="#5b00c0" d="M1111,-243C1111,-224.2292 1111,-217.1168 1111,-202.3535"/>
<polygon fill="#5b00c0" stroke="#5b00c0" points="1114.5001,-202 1111,-192 1107.5001,-202 1114.5001,-202"/>
<text text-anchor="middle" x="1118.5" y="-213.8" font-family="Times,serif" font-size="14.00" fill="#5b00c0">rw</text>
</g>
</g>
</svg>
