<?xml version="1.0" encoding="UTF-8" standalone="no"?>
<!DOCTYPE svg PUBLIC "-//W3C//DTD SVG 1.1//EN"
 "http://www.w3.org/Graphics/SVG/1.1/DTD/svg11.dtd">
<!-- Generated by graphviz version 2.40.1 (20161225.0304)
 -->
<!-- Title: a_graph Pages: 1 -->
<svg width="2474pt" height="119pt"
 viewBox="0.00 0.00 2474.00 119.00" xmlns="http://www.w3.org/2000/svg" xmlns:xlink="http://www.w3.org/1999/xlink">
<g id="graph0" class="graph" transform="scale(1 1) rotate(0) translate(4 115)">
<title>a_graph</title>
<polygon fill="#ffffff" stroke="transparent" points="-4,4 -4,-115 2470,-115 2470,4 -4,4"/>
<!-- T3873 -->
<g id="node1" class="node">
<title>T3873</title>
<polygon fill="none" stroke="#0058ad" points="0,-81.5 0,-110.5 2466,-110.5 2466,-81.5 0,-81.5"/>
<text text-anchor="middle" x="295" y="-92.3" font-family="Times,serif" font-size="14.00" fill="#0058ad">r 25 [1 3 4 5 6 7 2 9 8 11 12 13 10 14 15 16 17 18 19 22 23 24 25 26 27 28 29 20 21 30 31 32 33 34 36]</text>
<polyline fill="none" stroke="#0058ad" points="590,-81.5 590,-110.5 "/>
<text text-anchor="middle" x="885" y="-92.3" font-family="Times,serif" font-size="14.00" fill="#0058ad">r 25 [1 3 4 5 6 7 2 9 8 11 12 13 10 14 15 16 17 18 19 22 23 24 25 26 27 28 29 20 21 30 31 32 33 34 36]</text>
<polyline fill="none" stroke="#0058ad" points="1180,-81.5 1180,-110.5 "/>
<text text-anchor="middle" x="1208.5" y="-92.3" font-family="Times,serif" font-size="14.00" fill="#0058ad">a 25 37</text>
<polyline fill="none" stroke="#0058ad" points="1237,-81.5 1237,-110.5 "/>
<text text-anchor="middle" x="1851.5" y="-92.3" font-family="Times,serif" font-size="14.00" fill="#0058ad">r 23 [2 3 1 4 5 6 8 9 10 11 7 12 13 16 18 21 15 17 23 22 24 25 26 28 29 27 30 31 32 33 34 35 37 38 36 40 41 42 43 44 45 46 48 47 49 51 50 53 55 54 52 56 57 58 59 60 61 62 64 63 65 66 67 69 68 70 71 72 73 74 75 76]</text>
</g>
<!-- T3871 -->
<g id="node2" class="node">
<title>T3871</title>
<polygon fill="none" stroke="#0058ad" points="1159,-.5 1159,-29.5 2229,-29.5 2229,-.5 1159,-.5"/>
<text text-anchor="middle" x="1187.5" y="-11.3" font-family="Times,serif" font-size="14.00" fill="#0058ad">a 23 79</text>
<polyline fill="none" stroke="#0058ad" points="1216,-.5 1216,-29.5 "/>
<text text-anchor="middle" x="1244.5" y="-11.3" font-family="Times,serif" font-size="14.00" fill="#0058ad">a 23 80</text>
<polyline fill="none" stroke="#0058ad" points="1273,-.5 1273,-29.5 "/>
<text text-anchor="middle" x="1568" y="-11.3" font-family="Times,serif" font-size="14.00" fill="#0058ad">r 25 [1 3 4 5 6 7 2 9 8 11 12 13 10 14 15 16 17 18 19 22 23 24 25 26 27 28 29 20 21 30 31 32 33 34 36]</text>
<polyline fill="none" stroke="#0058ad" points="1863,-.5 1863,-29.5 "/>
<text text-anchor="middle" x="2046" y="-11.3" font-family="Times,serif" font-size="14.00" fill="#0058ad">r 24 [2 1 3 4 5 6 7 8 9 10 11 12 13 14 15 16 17 18 19 20 21 22]</text>
</g>
<!-- T3873&#45;&gt;T3871 -->
<g id="edge1" class="edge">
<title>T3873:f3&#45;&gt;T3871:f0</title>
<path fill="none" stroke="#5b00c0" d="M1852,-81C1852,-72.4062 1279.6404,-43.8355 1196.9166,-32.3544"/>
<polygon fill="#5b00c0" stroke="#5b00c0" points="1197.5381,-28.9047 1187,-30 1195.921,-35.7154 1197.5381,-28.9047"/>
<text text-anchor="middle" x="1643.5" y="-51.8" font-family="Times,serif" font-size="14.00" fill="#5b00c0">rw</text>
</g>
<!-- T3871&#45;&gt;T3873 -->
<g id="edge2" class="edge">
<title>T3871:f2&#45;&gt;T3873:f2</title>
<path fill="none" stroke="#5b00c0" d="M1568,-30C1568,-50.6526 1403.4457,-45.0836 1383,-48 1308.3175,-58.653 1217.0202,-7.0752 1208.6252,-70.7482"/>
<polygon fill="#5b00c0" stroke="#5b00c0" points="1205.1153,-70.8055 1208,-81 1212.1023,-71.2316 1205.1153,-70.8055"/>
<text text-anchor="middle" x="1390.5" y="-51.8" font-family="Times,serif" font-size="14.00" fill="#5b00c0">rw</text>
</g>
</g>
</svg>
