<?xml version="1.0" encoding="UTF-8" standalone="no"?>
<!DOCTYPE svg PUBLIC "-//W3C//DTD SVG 1.1//EN"
 "http://www.w3.org/Graphics/SVG/1.1/DTD/svg11.dtd">
<!-- Generated by graphviz version 2.40.1 (20161225.0304)
 -->
<!-- Title: a_graph Pages: 1 -->
<svg width="1818pt" height="200pt"
 viewBox="0.00 0.00 1817.50 200.00" xmlns="http://www.w3.org/2000/svg" xmlns:xlink="http://www.w3.org/1999/xlink">
<g id="graph0" class="graph" transform="scale(1 1) rotate(0) translate(4 196)">
<title>a_graph</title>
<polygon fill="#ffffff" stroke="transparent" points="-4,4 -4,-196 1813.5,-196 1813.5,4 -4,4"/>
<!-- T2343 -->
<g id="node1" class="node">
<title>T2343</title>
<polygon fill="none" stroke="#0058ad" points="263.5,-162.5 263.5,-191.5 1531.5,-191.5 1531.5,-162.5 263.5,-162.5"/>
<text text-anchor="middle" x="433" y="-173.3" font-family="Times,serif" font-size="14.00" fill="#0058ad">r 15 [93 94 95 105 106 107 108 109 110 111 112 113 114]</text>
<polyline fill="none" stroke="#0058ad" points="602.5,-162.5 602.5,-191.5 "/>
<text text-anchor="middle" x="634.5" y="-173.3" font-family="Times,serif" font-size="14.00" fill="#0058ad">a 17 109</text>
<polyline fill="none" stroke="#0058ad" points="666.5,-162.5 666.5,-191.5 "/>
<text text-anchor="middle" x="698.5" y="-173.3" font-family="Times,serif" font-size="14.00" fill="#0058ad">a 17 110</text>
<polyline fill="none" stroke="#0058ad" points="730.5,-162.5 730.5,-191.5 "/>
<text text-anchor="middle" x="1131" y="-173.3" font-family="Times,serif" font-size="14.00" fill="#0058ad">r 17 [50 51 75 52 53 78 80 81 82 83 84 79 85 86 87 88 89 90 91 94 95 96 92 93 97 98 99 101 102 103 105 106 104 107 108 100 111 109 110]</text>
</g>
<!-- T2339 -->
<g id="node3" class="node">
<title>T2339</title>
<polygon fill="none" stroke="#0058ad" points="495.5,-81.5 495.5,-110.5 1809.5,-110.5 1809.5,-81.5 495.5,-81.5"/>
<text text-anchor="middle" x="527.5" y="-92.3" font-family="Times,serif" font-size="14.00" fill="#0058ad">a 15 115</text>
<polyline fill="none" stroke="#0058ad" points="559.5,-81.5 559.5,-110.5 "/>
<text text-anchor="middle" x="936" y="-92.3" font-family="Times,serif" font-size="14.00" fill="#0058ad">r 17 [50 51 75 52 53 78 80 81 82 83 84 79 85 86 87 88 89 90 91 94 95 96 92 93 97 98 99 101 102 103 105 106 104 107 108 100 111]</text>
<polyline fill="none" stroke="#0058ad" points="1312.5,-81.5 1312.5,-110.5 "/>
<text text-anchor="middle" x="1561" y="-92.3" font-family="Times,serif" font-size="14.00" fill="#0058ad">r 6 [1 2 3 4 5 6 7 8 9 10 11 12 13 14 16 17 18 19 20 21 22 23 24 25 88 90 93 94 95 96]</text>
</g>
<!-- T2343&#45;&gt;T2339 -->
<g id="edge1" class="edge">
<title>T2343:f0&#45;&gt;T2339:f0</title>
<path fill="none" stroke="#5b00c0" d="M432.5,-162C432.5,-130.5667 459.8868,-133.8237 481.5,-111 484.4392,-107.8962 485.6953,-104.4063 487.1397,-101.5743"/>
<polygon fill="#5b00c0" stroke="#5b00c0" points="489.1215,-104.4596 495.5,-96 485.2382,-98.6355 489.1215,-104.4596"/>
<text text-anchor="middle" x="464" y="-132.8" font-family="Times,serif" font-size="14.00" fill="#5b00c0">rw</text>
</g>
<!-- T2346 -->
<g id="node2" class="node">
<title>T2346</title>
<polygon fill="none" stroke="#0058ad" points="0,-.5 0,-29.5 1355,-29.5 1355,-.5 0,-.5"/>
<text text-anchor="middle" x="376.5" y="-11.3" font-family="Times,serif" font-size="14.00" fill="#0058ad">r 17 [50 51 75 52 53 78 80 81 82 83 84 79 85 86 87 88 89 90 91 94 95 96 92 93 97 98 99 101 102 103 105 106 104 107 108 100 111]</text>
<polyline fill="none" stroke="#0058ad" points="753,-.5 753,-29.5 "/>
<text text-anchor="middle" x="785" y="-11.3" font-family="Times,serif" font-size="14.00" fill="#0058ad">a 15 116</text>
<polyline fill="none" stroke="#0058ad" points="817,-.5 817,-29.5 "/>
<text text-anchor="middle" x="1010.5" y="-11.3" font-family="Times,serif" font-size="14.00" fill="#0058ad">r 15 [93 94 95 105 106 107 108 109 110 111 112 113 114 115 116]</text>
<polyline fill="none" stroke="#0058ad" points="1204,-.5 1204,-29.5 "/>
<text text-anchor="middle" x="1279.5" y="-11.3" font-family="Times,serif" font-size="14.00" fill="#0058ad">r 16 [34 36 37 38 39 40]</text>
</g>
<!-- T2346&#45;&gt;T2343 -->
<g id="edge2" class="edge">
<title>T2346:f0&#45;&gt;T2343:f1</title>
<path fill="none" stroke="#5b00c0" d="M376.5,-30C376.5,-85.4862 422.9299,-84.1735 471.5,-111 534.7017,-145.9079 625.1427,-91.8743 633.8241,-151.8368"/>
<polygon fill="#5b00c0" stroke="#5b00c0" points="630.3441,-152.2543 634.5,-162 637.3286,-151.7898 630.3441,-152.2543"/>
<text text-anchor="middle" x="479" y="-92.3" font-family="Times,serif" font-size="14.00" fill="#5b00c0">rw</text>
</g>
<!-- T2339&#45;&gt;T2343 -->
<g id="edge3" class="edge">
<title>T2339:f1&#45;&gt;T2343:f1</title>
<path fill="none" stroke="#5b00c0" d="M935.5,-111C935.5,-243.1068 650.1638,-37.689 635.1168,-151.9967"/>
<polygon fill="#5b00c0" stroke="#5b00c0" points="631.6221,-151.8035 634.5,-162 638.6088,-152.2344 631.6221,-151.8035"/>
<text text-anchor="middle" x="939" y="-132.8" font-family="Times,serif" font-size="14.00" fill="#5b00c0">rw</text>
</g>
<!-- T2339&#45;&gt;T2346 -->
<g id="edge4" class="edge">
<title>T2339:f0&#45;&gt;T2346:f1</title>
<path fill="none" stroke="#c02700" d="M527.5,-81C527.5,32.2328 769.627,-135.755 784.7599,-40.0984"/>
<polygon fill="#c02700" stroke="#c02700" points="788.2596,-40.2291 785.5,-30 781.2783,-39.7174 788.2596,-40.2291"/>
<text text-anchor="middle" x="790.5" y="-51.8" font-family="Times,serif" font-size="14.00" fill="#c02700">ww</text>
</g>
</g>
</svg>
