<?xml version="1.0" encoding="UTF-8" standalone="no"?>
<!DOCTYPE svg PUBLIC "-//W3C//DTD SVG 1.1//EN"
 "http://www.w3.org/Graphics/SVG/1.1/DTD/svg11.dtd">
<!-- Generated by graphviz version 2.40.1 (20161225.0304)
 -->
<!-- Title: a_graph Pages: 1 -->
<svg width="3278pt" height="119pt"
 viewBox="0.00 0.00 3278.00 119.00" xmlns="http://www.w3.org/2000/svg" xmlns:xlink="http://www.w3.org/1999/xlink">
<g id="graph0" class="graph" transform="scale(1 1) rotate(0) translate(4 115)">
<title>a_graph</title>
<polygon fill="#ffffff" stroke="transparent" points="-4,4 -4,-115 3274,-115 3274,4 -4,4"/>
<!-- T3945 -->
<g id="node1" class="node">
<title>T3945</title>
<polygon fill="none" stroke="#0058ad" points="0,-81.5 0,-110.5 2893,-110.5 2893,-81.5 0,-81.5"/>
<text text-anchor="middle" x="709" y="-92.3" font-family="Times,serif" font-size="14.00" fill="#0058ad">r 23 [2 3 1 4 5 6 8 9 10 11 7 12 13 16 18 21 15 17 23 22 24 25 26 28 29 27 30 31 32 33 34 35 37 38 36 40 41 42 43 44 45 46 48 47 49 51 50 53 55 54 52 56 57 58 59 60 61 62 64 63 65 66 67 69 68 70 71 72 73 74 75 76 79 80 77 78 81 84 86 87 88 90 91]</text>
<polyline fill="none" stroke="#0058ad" points="1418,-81.5 1418,-110.5 "/>
<text text-anchor="middle" x="1446.5" y="-92.3" font-family="Times,serif" font-size="14.00" fill="#0058ad">a 25 50</text>
<polyline fill="none" stroke="#0058ad" points="1475,-81.5 1475,-110.5 "/>
<text text-anchor="middle" x="2184" y="-92.3" font-family="Times,serif" font-size="14.00" fill="#0058ad">r 23 [2 3 1 4 5 6 8 9 10 11 7 12 13 16 18 21 15 17 23 22 24 25 26 28 29 27 30 31 32 33 34 35 37 38 36 40 41 42 43 44 45 46 48 47 49 51 50 53 55 54 52 56 57 58 59 60 61 62 64 63 65 66 67 69 68 70 71 72 73 74 75 76 79 80 77 78 81 84 86 87 88 90 91]</text>
</g>
<!-- T3943 -->
<g id="node2" class="node">
<title>T3943</title>
<polygon fill="none" stroke="#0058ad" points="355,-.5 355,-29.5 3270,-29.5 3270,-.5 355,-.5"/>
<text text-anchor="middle" x="710.5" y="-11.3" font-family="Times,serif" font-size="14.00" fill="#0058ad">r 25 [1 3 4 5 6 7 2 9 8 11 12 13 10 14 15 16 17 18 19 22 23 24 25 26 27 28 29 20 21 30 31 32 33 34 36 37 41 35 43 42 48 49]</text>
<polyline fill="none" stroke="#0058ad" points="1066,-.5 1066,-29.5 "/>
<text text-anchor="middle" x="1094.5" y="-11.3" font-family="Times,serif" font-size="14.00" fill="#0058ad">a 23 92</text>
<polyline fill="none" stroke="#0058ad" points="1123,-.5 1123,-29.5 "/>
<text text-anchor="middle" x="1841" y="-11.3" font-family="Times,serif" font-size="14.00" fill="#0058ad">r 23 [2 3 1 4 5 6 8 9 10 11 7 12 13 16 18 21 15 17 23 22 24 25 26 28 29 27 30 31 32 33 34 35 37 38 36 40 41 42 43 44 45 46 48 47 49 51 50 53 55 54 52 56 57 58 59 60 61 62 64 63 65 66 67 69 68 70 71 72 73 74 75 76 79 80 77 78 81 84 86 87 88 90 91 92]</text>
<polyline fill="none" stroke="#0058ad" points="2559,-.5 2559,-29.5 "/>
<text text-anchor="middle" x="2914.5" y="-11.3" font-family="Times,serif" font-size="14.00" fill="#0058ad">r 25 [1 3 4 5 6 7 2 9 8 11 12 13 10 14 15 16 17 18 19 22 23 24 25 26 27 28 29 20 21 30 31 32 33 34 36 37 41 35 43 42 48 49]</text>
</g>
<!-- T3945&#45;&gt;T3943 -->
<g id="edge1" class="edge">
<title>T3945:f0&#45;&gt;T3943:f1</title>
<path fill="none" stroke="#5b00c0" d="M708.5,-81C708.5,-40.8647 1040.7268,-68.5388 1088.7439,-38.2041"/>
<polygon fill="#5b00c0" stroke="#5b00c0" points="1091.6216,-40.1964 1094.5,-30 1085.8913,-36.1759 1091.6216,-40.1964"/>
<text text-anchor="middle" x="1055" y="-51.8" font-family="Times,serif" font-size="14.00" fill="#5b00c0">rw</text>
</g>
<!-- T3943&#45;&gt;T3945 -->
<g id="edge2" class="edge">
<title>T3943:f0&#45;&gt;T3945:f1</title>
<path fill="none" stroke="#5b00c0" d="M710.5,-30C710.5,-49.803 1046.7435,-46.6431 1066.5,-48 1147.4295,-53.5582 1421.5002,-1.0681 1444.9038,-70.8457"/>
<polygon fill="#5b00c0" stroke="#5b00c0" points="1441.4895,-71.6649 1446.5,-81 1448.4046,-70.5778 1441.4895,-71.6649"/>
<text text-anchor="middle" x="1445" y="-51.8" font-family="Times,serif" font-size="14.00" fill="#5b00c0">rw</text>
</g>
</g>
</svg>
