<?xml version="1.0" encoding="UTF-8" standalone="no"?>
<!DOCTYPE svg PUBLIC "-//W3C//DTD SVG 1.1//EN"
 "http://www.w3.org/Graphics/SVG/1.1/DTD/svg11.dtd">
<!-- Generated by graphviz version 2.40.1 (20161225.0304)
 -->
<!-- Title: a_graph Pages: 1 -->
<svg width="1953pt" height="119pt"
 viewBox="0.00 0.00 1953.00 119.00" xmlns="http://www.w3.org/2000/svg" xmlns:xlink="http://www.w3.org/1999/xlink">
<g id="graph0" class="graph" transform="scale(1 1) rotate(0) translate(4 115)">
<title>a_graph</title>
<polygon fill="#ffffff" stroke="transparent" points="-4,4 -4,-115 1949,-115 1949,4 -4,4"/>
<!-- T6079 -->
<g id="node1" class="node">
<title>T6079</title>
<polygon fill="none" stroke="#0058ad" points="0,-81.5 0,-110.5 1945,-110.5 1945,-81.5 0,-81.5"/>
<text text-anchor="middle" x="424.5" y="-92.3" font-family="Times,serif" font-size="14.00" fill="#0058ad">r 35 [1 2 4 5 6 7 8 9 10 11 12 13 14 15 3 16 17 18 19 20 23 21 26 24 25 27 28 29 30 31 32 33 34 35 36 38 22 37 40 43 41 42 44 45 39 47 48 49 46 52]</text>
<polyline fill="none" stroke="#0058ad" points="849,-81.5 849,-110.5 "/>
<text text-anchor="middle" x="1273.5" y="-92.3" font-family="Times,serif" font-size="14.00" fill="#0058ad">r 35 [1 2 4 5 6 7 8 9 10 11 12 13 14 15 3 16 17 18 19 20 23 21 26 24 25 27 28 29 30 31 32 33 34 35 36 38 22 37 40 43 41 42 44 45 39 47 48 49 46 52]</text>
<polyline fill="none" stroke="#0058ad" points="1698,-81.5 1698,-110.5 "/>
<text text-anchor="middle" x="1726.5" y="-92.3" font-family="Times,serif" font-size="14.00" fill="#0058ad">a 31 55</text>
<polyline fill="none" stroke="#0058ad" points="1755,-81.5 1755,-110.5 "/>
<text text-anchor="middle" x="1850" y="-92.3" font-family="Times,serif" font-size="14.00" fill="#0058ad">r 34 [1 4 5 6 7 8 9 10 11 12 13]</text>
</g>
<!-- T6075 -->
<g id="node2" class="node">
<title>T6075</title>
<polygon fill="none" stroke="#0058ad" points="666.5,-.5 666.5,-29.5 1710.5,-29.5 1710.5,-.5 666.5,-.5"/>
<text text-anchor="middle" x="695" y="-11.3" font-family="Times,serif" font-size="14.00" fill="#0058ad">a 35 50</text>
<polyline fill="none" stroke="#0058ad" points="723.5,-.5 723.5,-29.5 "/>
<text text-anchor="middle" x="752" y="-11.3" font-family="Times,serif" font-size="14.00" fill="#0058ad">a 35 51</text>
<polyline fill="none" stroke="#0058ad" points="780.5,-.5 780.5,-29.5 "/>
<text text-anchor="middle" x="809" y="-11.3" font-family="Times,serif" font-size="14.00" fill="#0058ad">a 33 78</text>
<polyline fill="none" stroke="#0058ad" points="837.5,-.5 837.5,-29.5 "/>
<text text-anchor="middle" x="1274" y="-11.3" font-family="Times,serif" font-size="14.00" fill="#0058ad">r 31 [1 2 3 4 5 6 7 8 12 13 11 14 15 16 17 18 19 20 21 22 24 23 25 27 28 29 26 30 31 32 33 34 35 36 37 39 41 40 42 43 44 45 46 47 48 49 50 52 53 54 51]</text>
</g>
<!-- T6079&#45;&gt;T6075 -->
<g id="edge1" class="edge">
<title>T6079:f0&#45;&gt;T6075:f0</title>
<path fill="none" stroke="#5b00c0" d="M424.5,-81C424.5,-28.3065 590.9432,-16.258 656.2356,-15.0978"/>
<polygon fill="#5b00c0" stroke="#5b00c0" points="656.5338,-18.5952 666.5,-15 656.4671,-11.5955 656.5338,-18.5952"/>
<text text-anchor="middle" x="460" y="-51.8" font-family="Times,serif" font-size="14.00" fill="#5b00c0">rw</text>
</g>
<!-- T6075&#45;&gt;T6079 -->
<g id="edge2" class="edge">
<title>T6075:f3&#45;&gt;T6079:f2</title>
<path fill="none" stroke="#5b00c0" d="M1710.5,-15C1737.3817,-15 1729.0718,-43.4105 1726.9324,-70.9482"/>
<polygon fill="#5b00c0" stroke="#5b00c0" points="1723.4331,-70.8588 1726.5,-81 1730.4266,-71.1597 1723.4331,-70.8588"/>
<text text-anchor="middle" x="1736" y="-51.8" font-family="Times,serif" font-size="14.00" fill="#5b00c0">rw</text>
</g>
</g>
</svg>
