<?xml version="1.0" encoding="UTF-8" standalone="no"?>
<!DOCTYPE svg PUBLIC "-//W3C//DTD SVG 1.1//EN"
 "http://www.w3.org/Graphics/SVG/1.1/DTD/svg11.dtd">
<!-- Generated by graphviz version 2.40.1 (20161225.0304)
 -->
<!-- Title: a_graph Pages: 1 -->
<svg width="1582pt" height="119pt"
 viewBox="0.00 0.00 1582.00 119.00" xmlns="http://www.w3.org/2000/svg" xmlns:xlink="http://www.w3.org/1999/xlink">
<g id="graph0" class="graph" transform="scale(1 1) rotate(0) translate(4 115)">
<title>a_graph</title>
<polygon fill="#ffffff" stroke="transparent" points="-4,4 -4,-115 1578,-115 1578,4 -4,4"/>
<!-- T18165 -->
<g id="node1" class="node">
<title>T18165</title>
<polygon fill="none" stroke="#0058ad" points="0,-81.5 0,-110.5 1574,-110.5 1574,-81.5 0,-81.5"/>
<text text-anchor="middle" x="787" y="-92.3" font-family="Times,serif" font-size="14.00" fill="#0058ad">r 88 [1 2 3 4 5 6 7 8 9 10 11 12 13 14 15 16 17 18 19 20 21 22 24 23 25 26 27 28 29 30 32 33 34 35 36 37 38 39 40 41 42 43 44 45 46 47 48 49 50 51 52 53 54 55 56 57 58 59 60 61 62 63 64 65 66 67 68 69 70 71 72 73 74 75 76 77 78 79 81 82 84 85 86 87 88 89 90 91 92 93 94 95]</text>
</g>
<!-- T18155 -->
<g id="node2" class="node">
<title>T18155</title>
<polygon fill="none" stroke="#0058ad" points="728,-.5 728,-29.5 956,-29.5 956,-.5 728,-.5"/>
<text text-anchor="middle" x="756.5" y="-11.3" font-family="Times,serif" font-size="14.00" fill="#0058ad">a 88 96</text>
<polyline fill="none" stroke="#0058ad" points="785,-.5 785,-29.5 "/>
<text text-anchor="middle" x="813.5" y="-11.3" font-family="Times,serif" font-size="14.00" fill="#0058ad">a 88 97</text>
<polyline fill="none" stroke="#0058ad" points="842,-.5 842,-29.5 "/>
<text text-anchor="middle" x="870.5" y="-11.3" font-family="Times,serif" font-size="14.00" fill="#0058ad">a 84 73</text>
<polyline fill="none" stroke="#0058ad" points="899,-.5 899,-29.5 "/>
<text text-anchor="middle" x="927.5" y="-11.3" font-family="Times,serif" font-size="14.00" fill="#0058ad">a 92 34</text>
</g>
<!-- T18165&#45;&gt;T18155 -->
<g id="edge1" class="edge">
<title>T18165:f0&#45;&gt;T18155:f0</title>
<path fill="none" stroke="#5b00c0" d="M775.6328,-81.4461C768.3751,-70.9437 759.8134,-55.9162 756.9709,-40.303"/>
<polygon fill="#5b00c0" stroke="#5b00c0" points="760.4228,-39.6275 756,-30 753.4537,-40.2843 760.4228,-39.6275"/>
<text text-anchor="middle" x="772.5" y="-51.8" font-family="Times,serif" font-size="14.00" fill="#5b00c0">rw</text>
</g>
<!-- T18155&#45;&gt;T18165 -->
<g id="edge2" class="edge">
<title>T18155&#45;&gt;T18165</title>
<path fill="none" stroke="#0050c0" d="M831.9761,-29.7625C823.8537,-41.7246 812.2582,-58.8016 802.8754,-72.6199"/>
<polygon fill="#0050c0" stroke="#0050c0" points="799.8098,-70.9041 797.0878,-81.1434 805.601,-74.8364 799.8098,-70.9041"/>
<text text-anchor="middle" x="823.5" y="-51.8" font-family="Times,serif" font-size="14.00" fill="#0050c0">rt</text>
</g>
</g>
</svg>
