<?xml version="1.0" encoding="UTF-8" standalone="no"?>
<!DOCTYPE svg PUBLIC "-//W3C//DTD SVG 1.1//EN"
 "http://www.w3.org/Graphics/SVG/1.1/DTD/svg11.dtd">
<!-- Generated by graphviz version 2.40.1 (20161225.0304)
 -->
<!-- Title: a_graph Pages: 1 -->
<svg width="1217pt" height="119pt"
 viewBox="0.00 0.00 1216.50 119.00" xmlns="http://www.w3.org/2000/svg" xmlns:xlink="http://www.w3.org/1999/xlink">
<g id="graph0" class="graph" transform="scale(1 1) rotate(0) translate(4 115)">
<title>a_graph</title>
<polygon fill="#ffffff" stroke="transparent" points="-4,4 -4,-115 1212.5,-115 1212.5,4 -4,4"/>
<!-- T2895 -->
<g id="node1" class="node">
<title>T2895</title>
<polygon fill="none" stroke="#0058ad" points="477.5,-81.5 477.5,-110.5 1208.5,-110.5 1208.5,-81.5 477.5,-81.5"/>
<text text-anchor="middle" x="609" y="-92.3" font-family="Times,serif" font-size="14.00" fill="#0058ad">r 20 [2 3 4 1 5 9 6 7 8 10 12 11 13 16 14 15]</text>
<polyline fill="none" stroke="#0058ad" points="740.5,-81.5 740.5,-110.5 "/>
<text text-anchor="middle" x="769" y="-92.3" font-family="Times,serif" font-size="14.00" fill="#0058ad">a 19 59</text>
<polyline fill="none" stroke="#0058ad" points="797.5,-81.5 797.5,-110.5 "/>
<text text-anchor="middle" x="1003" y="-92.3" font-family="Times,serif" font-size="14.00" fill="#0058ad">r 5 [1 2 3 4 5 6 7 8 9 10 11 12 13 50 53 54 52 55 56 57 58 59 60 61 62]</text>
</g>
<!-- T2893 -->
<g id="node2" class="node">
<title>T2893</title>
<polygon fill="none" stroke="#0058ad" points="0,-.5 0,-29.5 958,-29.5 958,-.5 0,-.5"/>
<text text-anchor="middle" x="450.5" y="-11.3" font-family="Times,serif" font-size="14.00" fill="#0058ad">r 19 [1 2 4 5 6 3 7 8 9 10 12 15 17 16 18 19 20 22 23 24 25 26 28 29 30 31 32 33 34 35 36 37 38 39 40 41 42 43 44 45 46 47 49 50 48 51 52 53 55 56 54 57 58]</text>
<polyline fill="none" stroke="#0058ad" points="901,-.5 901,-29.5 "/>
<text text-anchor="middle" x="929.5" y="-11.3" font-family="Times,serif" font-size="14.00" fill="#0058ad">a 20 17</text>
</g>
<!-- T2895&#45;&gt;T2893 -->
<g id="edge1" class="edge">
<title>T2895:f0&#45;&gt;T2893:f1</title>
<path fill="none" stroke="#5b00c0" d="M609,-81C609,-37.1416 659.1041,-57.1376 702,-48 724.039,-43.3053 886.2628,-52.7643 922.7338,-37.2503"/>
<polygon fill="#5b00c0" stroke="#5b00c0" points="925.3933,-39.5409 930,-30 920.449,-34.5857 925.3933,-39.5409"/>
<text text-anchor="middle" x="709.5" y="-51.8" font-family="Times,serif" font-size="14.00" fill="#5b00c0">rw</text>
</g>
<!-- T2893&#45;&gt;T2895 -->
<g id="edge2" class="edge">
<title>T2893:f0&#45;&gt;T2895:f1</title>
<path fill="none" stroke="#5b00c0" d="M450,-30C450,-59.734 688.7419,-38.7484 717,-48 739.1521,-55.2525 761.2847,-54.2342 767.3672,-70.6749"/>
<polygon fill="#5b00c0" stroke="#5b00c0" points="763.9809,-71.6695 769,-81 770.895,-70.576 763.9809,-71.6695"/>
<text text-anchor="middle" x="768.5" y="-51.8" font-family="Times,serif" font-size="14.00" fill="#5b00c0">rw</text>
</g>
</g>
</svg>
