<?xml version="1.0" encoding="UTF-8" standalone="no"?>
<!DOCTYPE svg PUBLIC "-//W3C//DTD SVG 1.1//EN"
 "http://www.w3.org/Graphics/SVG/1.1/DTD/svg11.dtd">
<!-- Generated by graphviz version 2.40.1 (20161225.0304)
 -->
<!-- Title: a_graph Pages: 1 -->
<svg width="1415pt" height="119pt"
 viewBox="0.00 0.00 1415.00 119.00" xmlns="http://www.w3.org/2000/svg" xmlns:xlink="http://www.w3.org/1999/xlink">
<g id="graph0" class="graph" transform="scale(1 1) rotate(0) translate(4 115)">
<title>a_graph</title>
<polygon fill="#ffffff" stroke="transparent" points="-4,4 -4,-115 1411,-115 1411,4 -4,4"/>
<!-- T15285 -->
<g id="node1" class="node">
<title>T15285</title>
<polygon fill="none" stroke="#0058ad" points="113,-81.5 113,-110.5 1407,-110.5 1407,-81.5 113,-81.5"/>
<text text-anchor="middle" x="408" y="-92.3" font-family="Times,serif" font-size="14.00" fill="#0058ad">r 79 [1 2 3 4 5 6 7 8 9 10 14 11 12 13 15 19 16 17 18 20 21 22 23 24 25 26 27 28 29 30 31 34 33 32 35]</text>
<polyline fill="none" stroke="#0058ad" points="703,-81.5 703,-110.5 "/>
<text text-anchor="middle" x="731.5" y="-92.3" font-family="Times,serif" font-size="14.00" fill="#0058ad">a 68 30</text>
<polyline fill="none" stroke="#0058ad" points="760,-81.5 760,-110.5 "/>
<text text-anchor="middle" x="788.5" y="-92.3" font-family="Times,serif" font-size="14.00" fill="#0058ad">a 77 92</text>
<polyline fill="none" stroke="#0058ad" points="817,-81.5 817,-110.5 "/>
<text text-anchor="middle" x="1112" y="-92.3" font-family="Times,serif" font-size="14.00" fill="#0058ad">r 79 [1 2 3 4 5 6 7 8 9 10 14 11 12 13 15 19 16 17 18 20 21 22 23 24 25 26 27 28 29 30 31 34 33 32 35]</text>
</g>
<!-- T15281 -->
<g id="node2" class="node">
<title>T15281</title>
<polygon fill="none" stroke="#0058ad" points="0,-.5 0,-29.5 1368,-29.5 1368,-.5 0,-.5"/>
<text text-anchor="middle" x="28.5" y="-11.3" font-family="Times,serif" font-size="14.00" fill="#0058ad">a 79 37</text>
<polyline fill="none" stroke="#0058ad" points="57,-.5 57,-29.5 "/>
<text text-anchor="middle" x="361" y="-11.3" font-family="Times,serif" font-size="14.00" fill="#0058ad">r 79 [1 2 3 4 5 6 7 8 9 10 14 11 12 13 15 19 16 17 18 20 21 22 23 24 25 26 27 28 29 30 31 34 33 32 35 37]</text>
<polyline fill="none" stroke="#0058ad" points="665,-.5 665,-29.5 "/>
<text text-anchor="middle" x="1016.5" y="-11.3" font-family="Times,serif" font-size="14.00" fill="#0058ad">r 77 [53 55 54 56 57 58 59 60 61 62 63 64 65 66 67 68 69 70 71 73 72 74 75 76 77 78 79 80 81 83 82 84 85 86 87 89 88 90]</text>
</g>
<!-- T15285&#45;&gt;T15281 -->
<g id="edge1" class="edge">
<title>T15285:f0&#45;&gt;T15281:f0</title>
<path fill="none" stroke="#5b00c0" d="M113,-96C68.7209,-96 33.5763,-80.4261 28.6034,-40.164"/>
<polygon fill="#5b00c0" stroke="#5b00c0" points="32.0866,-39.775 28,-30 25.0989,-40.1899 32.0866,-39.775"/>
<text text-anchor="middle" x="43.5" y="-51.8" font-family="Times,serif" font-size="14.00" fill="#5b00c0">rw</text>
</g>
<!-- T15281&#45;&gt;T15285 -->
<g id="edge2" class="edge">
<title>T15281:f2&#45;&gt;T15285:f2</title>
<path fill="none" stroke="#5b00c0" d="M1017,-30C1017,-130.1869 804.7495,12.1433 789.8256,-70.9917"/>
<polygon fill="#5b00c0" stroke="#5b00c0" points="786.334,-70.7461 789,-81 793.3104,-71.3216 786.334,-70.7461"/>
<text text-anchor="middle" x="1019.5" y="-51.8" font-family="Times,serif" font-size="14.00" fill="#5b00c0">rw</text>
</g>
</g>
</svg>
