<?xml version="1.0" encoding="UTF-8" standalone="no"?>
<!DOCTYPE svg PUBLIC "-//W3C//DTD SVG 1.1//EN"
 "http://www.w3.org/Graphics/SVG/1.1/DTD/svg11.dtd">
<!-- Generated by graphviz version 2.40.1 (20161225.0304)
 -->
<!-- Title: a_graph Pages: 1 -->
<svg width="2116pt" height="119pt"
 viewBox="0.00 0.00 2116.00 119.00" xmlns="http://www.w3.org/2000/svg" xmlns:xlink="http://www.w3.org/1999/xlink">
<g id="graph0" class="graph" transform="scale(1 1) rotate(0) translate(4 115)">
<title>a_graph</title>
<polygon fill="#ffffff" stroke="transparent" points="-4,4 -4,-115 2112,-115 2112,4 -4,4"/>
<!-- T13472 -->
<g id="node1" class="node">
<title>T13472</title>
<polygon fill="none" stroke="#0058ad" points="974,-81.5 974,-110.5 1102,-110.5 1102,-81.5 974,-81.5"/>
<text text-anchor="middle" x="1006" y="-92.3" font-family="Times,serif" font-size="14.00" fill="#0058ad">a 66 118</text>
<polyline fill="none" stroke="#0058ad" points="1038,-81.5 1038,-110.5 "/>
<text text-anchor="middle" x="1070" y="-92.3" font-family="Times,serif" font-size="14.00" fill="#0058ad">a 67 124</text>
</g>
<!-- T13477 -->
<g id="node2" class="node">
<title>T13477</title>
<polygon fill="none" stroke="#0058ad" points="0,-.5 0,-29.5 2108,-29.5 2108,-.5 0,-.5"/>
<text text-anchor="middle" x="1054" y="-11.3" font-family="Times,serif" font-size="14.00" fill="#0058ad">r 67 [2 3 4 5 6 7 8 9 10 11 12 13 14 15 16 17 20 21 22 23 24 25 26 27 28 29 30 32 31 33 34 35 36 37 38 39 41 43 44 45 40 47 51 52 53 54 55 50 56 57 58 59 60 61 62 63 65 64 66 67 68 69 70 71 72 73 74 75 76 77 78 79 80 81 82 83 84 85 86 87 88 89 90 91 92 93 94 95 98 96 97 99 100 101 102 103 104 105 107 108 109 110 111 106 112 113 114 115 118 119 120 121 122 123]</text>
</g>
<!-- T13472&#45;&gt;T13477 -->
<g id="edge1" class="edge">
<title>T13472&#45;&gt;T13477</title>
<path fill="none" stroke="#0050c0" d="M1036.7765,-81.1065C1036.3641,-71.5316 1036.5219,-58.8907 1039,-48 1039.6898,-44.9682 1040.6721,-41.8776 1041.8082,-38.8636"/>
<polygon fill="#0050c0" stroke="#0050c0" points="1045.0304,-40.2305 1045.7924,-29.6631 1038.6068,-37.4488 1045.0304,-40.2305"/>
<text text-anchor="middle" x="1043.5" y="-51.8" font-family="Times,serif" font-size="14.00" fill="#0050c0">rt</text>
</g>
<!-- T13477&#45;&gt;T13472 -->
<g id="edge2" class="edge">
<title>T13477:f0&#45;&gt;T13472:f1</title>
<path fill="none" stroke="#5b00c0" d="M1059.6861,-29.6945C1063.4226,-40.4317 1067.8961,-55.682 1069.4423,-70.6991"/>
<polygon fill="#5b00c0" stroke="#5b00c0" points="1065.9644,-71.2039 1070,-81 1072.9541,-70.8254 1065.9644,-71.2039"/>
<text text-anchor="middle" x="1075.5" y="-51.8" font-family="Times,serif" font-size="14.00" fill="#5b00c0">rw</text>
</g>
</g>
</svg>
