<?xml version="1.0" encoding="UTF-8" standalone="no"?>
<!DOCTYPE svg PUBLIC "-//W3C//DTD SVG 1.1//EN"
 "http://www.w3.org/Graphics/SVG/1.1/DTD/svg11.dtd">
<!-- Generated by graphviz version 2.40.1 (20161225.0304)
 -->
<!-- Title: a_graph Pages: 1 -->
<svg width="3000pt" height="200pt"
 viewBox="0.00 0.00 3000.00 200.00" xmlns="http://www.w3.org/2000/svg" xmlns:xlink="http://www.w3.org/1999/xlink">
<g id="graph0" class="graph" transform="scale(1 1) rotate(0) translate(4 196)">
<title>a_graph</title>
<polygon fill="#ffffff" stroke="transparent" points="-4,4 -4,-196 2996,-196 2996,4 -4,4"/>
<!-- T13431 -->
<g id="node1" class="node">
<title>T13431</title>
<polygon fill="none" stroke="#0058ad" points="884,-162.5 884,-191.5 2992,-191.5 2992,-162.5 884,-162.5"/>
<text text-anchor="middle" x="916" y="-173.3" font-family="Times,serif" font-size="14.00" fill="#0058ad">a 67 112</text>
<polyline fill="none" stroke="#0058ad" points="948,-162.5 948,-191.5 "/>
<text text-anchor="middle" x="980" y="-173.3" font-family="Times,serif" font-size="14.00" fill="#0058ad">a 66 109</text>
<polyline fill="none" stroke="#0058ad" points="1012,-162.5 1012,-191.5 "/>
<text text-anchor="middle" x="1044" y="-173.3" font-family="Times,serif" font-size="14.00" fill="#0058ad">a 67 113</text>
<polyline fill="none" stroke="#0058ad" points="1076,-162.5 1076,-191.5 "/>
<text text-anchor="middle" x="2034" y="-173.3" font-family="Times,serif" font-size="14.00" fill="#0058ad">r 67 [2 3 4 5 6 7 8 9 10 11 12 13 14 15 16 17 20 21 22 23 24 25 26 27 28 29 30 32 31 33 34 35 36 37 38 39 41 43 44 45 40 47 51 52 53 54 55 50 56 57 58 59 60 61 62 63 65 64 66 67 68 69 70 71 72 73 74 75 76 77 78 79 80 81 82 83 84 85 86 87 88 89 90 91 92 93 94 95 98 96 97 99 100 101 102 103 104 105 107 108 109 110 111 106 112 113]</text>
</g>
<!-- T13435 -->
<g id="node3" class="node">
<title>T13435</title>
<polygon fill="none" stroke="#0058ad" points="953.5,-81.5 953.5,-110.5 2910.5,-110.5 2910.5,-81.5 953.5,-81.5"/>
<text text-anchor="middle" x="1932" y="-92.3" font-family="Times,serif" font-size="14.00" fill="#0058ad">r 4 [1 2 3 4 5 6 9 10 11 13 14 15 17 18 19 21 22 23 24 25 26 27 28 30 31 32 33 34 35 36 38 39 40 41 42 43 44 45 46 48 49 50 51 53 54 57 58 59 60 61 62 63 64 66 67 68 69 70 71 72 73 74 75 76 77 78 79 80 81 82 83 84 85 86 87 88 89 90 91 92 93 94 96 97 98 99 100 101 102 103 104 105 106 108 110 111 112 113 114 115 116 117 118 119 120 121]</text>
</g>
<!-- T13431&#45;&gt;T13435 -->
<g id="edge1" class="edge">
<title>T13431&#45;&gt;T13435</title>
<path fill="none" stroke="#0050c0" d="M1936.8995,-162.1434C1936.0453,-150.6112 1934.842,-134.3668 1933.8417,-120.8626"/>
<polygon fill="#0050c0" stroke="#0050c0" points="1937.3228,-120.4766 1933.0935,-110.7625 1930.3419,-120.9937 1937.3228,-120.4766"/>
<text text-anchor="middle" x="1939.5" y="-132.8" font-family="Times,serif" font-size="14.00" fill="#0050c0">rt</text>
</g>
<!-- T13439 -->
<g id="node2" class="node">
<title>T13439</title>
<polygon fill="none" stroke="#0058ad" points="0,-.5 0,-29.5 1868,-29.5 1868,-.5 0,-.5"/>
<text text-anchor="middle" x="934" y="-11.3" font-family="Times,serif" font-size="14.00" fill="#0058ad">r 67 [2 3 4 5 6 7 8 9 10 11 12 13 14 15 16 17 20 21 22 23 24 25 26 27 28 29 30 32 31 33 34 35 36 37 38 39 41 43 44 45 40 47 51 52 53 54 55 50 56 57 58 59 60 61 62 63 65 64 66 67 68 69 70 71 72 73 74 75 76 77 78 79 80 81 82 83 84 85 86 87 88 89 90 91 92 93 94 95 98 96 97 99 100 101 102 103 104 105 107 108 109 110 111 106]</text>
</g>
<!-- T13439&#45;&gt;T13431 -->
<g id="edge2" class="edge">
<title>T13439:f0&#45;&gt;T13431:f0</title>
<path fill="none" stroke="#5b00c0" d="M931.0277,-29.5329C926.2646,-54.0389 917.3331,-105.4576 916.1343,-151.8756"/>
<polygon fill="#5b00c0" stroke="#5b00c0" points="912.633,-151.9544 916,-162 919.6324,-152.0473 912.633,-151.9544"/>
<text text-anchor="middle" x="930.5" y="-92.3" font-family="Times,serif" font-size="14.00" fill="#5b00c0">rw</text>
</g>
<!-- T13435&#45;&gt;T13439 -->
<g id="edge3" class="edge">
<title>T13435&#45;&gt;T13439</title>
<path fill="none" stroke="#0050c0" d="M1753.2897,-81.4955C1575.6507,-67.0779 1304.2232,-45.0482 1123.0492,-30.3437"/>
<polygon fill="#0050c0" stroke="#0050c0" points="1123.122,-26.8382 1112.8716,-29.5176 1122.5557,-33.8152 1123.122,-26.8382"/>
<text text-anchor="middle" x="1526.5" y="-51.8" font-family="Times,serif" font-size="14.00" fill="#0050c0">rt</text>
</g>
</g>
</svg>
