<?xml version="1.0" encoding="UTF-8" standalone="no"?>
<!DOCTYPE svg PUBLIC "-//W3C//DTD SVG 1.1//EN"
 "http://www.w3.org/Graphics/SVG/1.1/DTD/svg11.dtd">
<!-- Generated by graphviz version 2.40.1 (20161225.0304)
 -->
<!-- Title: a_graph Pages: 1 -->
<svg width="1353pt" height="119pt"
 viewBox="0.00 0.00 1353.00 119.00" xmlns="http://www.w3.org/2000/svg" xmlns:xlink="http://www.w3.org/1999/xlink">
<g id="graph0" class="graph" transform="scale(1 1) rotate(0) translate(4 115)">
<title>a_graph</title>
<polygon fill="#ffffff" stroke="transparent" points="-4,4 -4,-115 1349,-115 1349,4 -4,4"/>
<!-- T25327 -->
<g id="node1" class="node">
<title>T25327</title>
<polygon fill="none" stroke="#0058ad" points="0,-81.5 0,-110.5 869,-110.5 869,-81.5 0,-81.5"/>
<text text-anchor="middle" x="434.5" y="-92.3" font-family="Times,serif" font-size="14.00" fill="#0058ad">r 126 [1 3 4 6 7 5 2 11 12 13 14 15 16 17 18 19 20 22 21 23 24 26 25 27 28 29 30 31 33 34 35 36 37 38 32 39 40 42 41 43 44 45 46 49 50 51 47 48 52 53]</text>
</g>
<!-- T25319 -->
<g id="node2" class="node">
<title>T25319</title>
<polygon fill="none" stroke="#0058ad" points="266,-.5 266,-29.5 1345,-29.5 1345,-.5 266,-.5"/>
<text text-anchor="middle" x="298" y="-11.3" font-family="Times,serif" font-size="14.00" fill="#0058ad">a 126 54</text>
<polyline fill="none" stroke="#0058ad" points="330,-.5 330,-29.5 "/>
<text text-anchor="middle" x="362" y="-11.3" font-family="Times,serif" font-size="14.00" fill="#0058ad">a 117 78</text>
<polyline fill="none" stroke="#0058ad" points="394,-.5 394,-29.5 "/>
<text text-anchor="middle" x="426" y="-11.3" font-family="Times,serif" font-size="14.00" fill="#0058ad">a 125 24</text>
<polyline fill="none" stroke="#0058ad" points="458,-.5 458,-29.5 "/>
<text text-anchor="middle" x="901.5" y="-11.3" font-family="Times,serif" font-size="14.00" fill="#0058ad">r 126 [1 3 4 6 7 5 2 11 12 13 14 15 16 17 18 19 20 22 21 23 24 26 25 27 28 29 30 31 33 34 35 36 37 38 32 39 40 42 41 43 44 45 46 49 50 51 47 48 52 53 54]</text>
</g>
<!-- T25327&#45;&gt;T25319 -->
<g id="edge1" class="edge">
<title>T25327:f0&#45;&gt;T25319:f0</title>
<path fill="none" stroke="#5b00c0" d="M343.119,-81.4684C321.4243,-73.2331 303.1891,-60.3381 298.6084,-40.1506"/>
<polygon fill="#5b00c0" stroke="#5b00c0" points="302.0649,-39.5609 297.5,-30 295.1063,-40.3209 302.0649,-39.5609"/>
<text text-anchor="middle" x="320" y="-51.8" font-family="Times,serif" font-size="14.00" fill="#5b00c0">rw</text>
</g>
<!-- T25319&#45;&gt;T25327 -->
<g id="edge2" class="edge">
<title>T25319&#45;&gt;T25327</title>
<path fill="none" stroke="#0050c0" d="M738.9681,-29.5258C675.0495,-43.4811 578.5311,-64.5539 511.3601,-79.2192"/>
<polygon fill="#0050c0" stroke="#0050c0" points="510.2791,-75.8727 501.2558,-81.4253 511.7723,-82.7116 510.2791,-75.8727"/>
<text text-anchor="middle" x="657" y="-51.8" font-family="Times,serif" font-size="14.00" fill="#0050c0">rt</text>
</g>
</g>
</svg>
