<?xml version="1.0" encoding="UTF-8" standalone="no"?>
<!DOCTYPE svg PUBLIC "-//W3C//DTD SVG 1.1//EN"
 "http://www.w3.org/Graphics/SVG/1.1/DTD/svg11.dtd">
<!-- Generated by graphviz version 2.40.1 (20161225.0304)
 -->
<!-- Title: a_graph Pages: 1 -->
<svg width="1893pt" height="200pt"
 viewBox="0.00 0.00 1893.00 200.00" xmlns="http://www.w3.org/2000/svg" xmlns:xlink="http://www.w3.org/1999/xlink">
<g id="graph0" class="graph" transform="scale(1 1) rotate(0) translate(4 196)">
<title>a_graph</title>
<polygon fill="#ffffff" stroke="transparent" points="-4,4 -4,-196 1889,-196 1889,4 -4,4"/>
<!-- T1271 -->
<g id="node1" class="node">
<title>T1271</title>
<polygon fill="none" stroke="#0058ad" points="396,-162.5 396,-191.5 917,-191.5 917,-162.5 396,-162.5"/>
<text text-anchor="middle" x="656.5" y="-173.3" font-family="Times,serif" font-size="14.00" fill="#0058ad">r 13 [1 2 3 4 5 6 7 8 9 10 11 12 13 14 15 16 17 18 19 20 22 21 23 24 26 27 25 28 29 30 33]</text>
</g>
<!-- T1259 -->
<g id="node3" class="node">
<title>T1259</title>
<polygon fill="none" stroke="#0058ad" points="0,-81.5 0,-110.5 685,-110.5 685,-81.5 0,-81.5"/>
<text text-anchor="middle" x="260.5" y="-92.3" font-family="Times,serif" font-size="14.00" fill="#0058ad">r 13 [1 2 3 4 5 6 7 8 9 10 11 12 13 14 15 16 17 18 19 20 22 21 23 24 26 27 25 28 29 30 33]</text>
<polyline fill="none" stroke="#0058ad" points="521,-81.5 521,-110.5 "/>
<text text-anchor="middle" x="549.5" y="-92.3" font-family="Times,serif" font-size="14.00" fill="#0058ad">a 12 64</text>
<polyline fill="none" stroke="#0058ad" points="578,-81.5 578,-110.5 "/>
<text text-anchor="middle" x="603" y="-92.3" font-family="Times,serif" font-size="14.00" fill="#0058ad">a 6 47</text>
<polyline fill="none" stroke="#0058ad" points="628,-81.5 628,-110.5 "/>
<text text-anchor="middle" x="656.5" y="-92.3" font-family="Times,serif" font-size="14.00" fill="#0058ad">a 13 31</text>
</g>
<!-- T1271&#45;&gt;T1259 -->
<g id="edge1" class="edge">
<title>T1271:f0&#45;&gt;T1259:f3</title>
<path fill="none" stroke="#5b00c0" d="M656.5,-162.3204C656.5,-151.4532 656.5,-136.0147 656.5,-121.1425"/>
<polygon fill="#5b00c0" stroke="#5b00c0" points="660.0001,-121 656.5,-111 653.0001,-121 660.0001,-121"/>
<text text-anchor="middle" x="664" y="-132.8" font-family="Times,serif" font-size="14.00" fill="#5b00c0">rw</text>
</g>
<!-- T1261 -->
<g id="node2" class="node">
<title>T1261</title>
<polygon fill="none" stroke="#0058ad" points="268,-.5 268,-29.5 1885,-29.5 1885,-.5 268,-.5"/>
<text text-anchor="middle" x="537.5" y="-11.3" font-family="Times,serif" font-size="14.00" fill="#0058ad">r 13 [1 2 3 4 5 6 7 8 9 10 11 12 13 14 15 16 17 18 19 20 22 21 23 24 26 27 25 28 29 30 33 31]</text>
<polyline fill="none" stroke="#0058ad" points="807,-.5 807,-29.5 "/>
<text text-anchor="middle" x="1076.5" y="-11.3" font-family="Times,serif" font-size="14.00" fill="#0058ad">r 13 [1 2 3 4 5 6 7 8 9 10 11 12 13 14 15 16 17 18 19 20 22 21 23 24 26 27 25 28 29 30 33 31]</text>
<polyline fill="none" stroke="#0058ad" points="1346,-.5 1346,-29.5 "/>
<text text-anchor="middle" x="1615.5" y="-11.3" font-family="Times,serif" font-size="14.00" fill="#0058ad">r 13 [1 2 3 4 5 6 7 8 9 10 11 12 13 14 15 16 17 18 19 20 22 21 23 24 26 27 25 28 29 30 33 31]</text>
</g>
<!-- T1261&#45;&gt;T1271 -->
<g id="edge2" class="edge">
<title>T1261&#45;&gt;T1271</title>
<path fill="none" stroke="#0050c0" d="M1038.7916,-29.5447C962.0387,-59.1494 787.8236,-126.3466 703.6989,-158.7947"/>
<polygon fill="#0050c0" stroke="#0050c0" points="702.2123,-155.6167 694.1418,-162.481 704.7314,-162.1477 702.2123,-155.6167"/>
<text text-anchor="middle" x="905" y="-92.3" font-family="Times,serif" font-size="14.00" fill="#0050c0">rt</text>
</g>
<!-- T1259&#45;&gt;T1271 -->
<g id="edge4" class="edge">
<title>T1259&#45;&gt;T1271</title>
<path fill="none" stroke="#0050c0" d="M398.81,-110.5258C452.4639,-124.3665 533.2576,-145.2082 590.0428,-159.8566"/>
<polygon fill="#0050c0" stroke="#0050c0" points="589.4432,-163.3164 600.0004,-162.4253 591.1917,-156.5383 589.4432,-163.3164"/>
<text text-anchor="middle" x="533" y="-132.8" font-family="Times,serif" font-size="14.00" fill="#0050c0">rt</text>
</g>
<!-- T1259&#45;&gt;T1261 -->
<g id="edge3" class="edge">
<title>T1259:f3&#45;&gt;T1261:f0</title>
<path fill="none" stroke="#c000a5" d="M656.5,-81C656.5,-27.2797 552.7799,-79.5667 539.0046,-39.9255"/>
<polygon fill="#c000a5" stroke="#c000a5" points="542.4593,-39.3625 537.5,-30 535.5384,-40.4116 542.4593,-39.3625"/>
<text text-anchor="middle" x="656" y="-51.8" font-family="Times,serif" font-size="14.00" fill="#c000a5">wr</text>
</g>
</g>
</svg>
