<?xml version="1.0" encoding="UTF-8" standalone="no"?>
<!DOCTYPE svg PUBLIC "-//W3C//DTD SVG 1.1//EN"
 "http://www.w3.org/Graphics/SVG/1.1/DTD/svg11.dtd">
<!-- Generated by graphviz version 2.40.1 (20161225.0304)
 -->
<!-- Title: a_graph Pages: 1 -->
<svg width="1726pt" height="200pt"
 viewBox="0.00 0.00 1726.22 200.00" xmlns="http://www.w3.org/2000/svg" xmlns:xlink="http://www.w3.org/1999/xlink">
<g id="graph0" class="graph" transform="scale(1 1) rotate(0) translate(4 196)">
<title>a_graph</title>
<polygon fill="#ffffff" stroke="transparent" points="-4,4 -4,-196 1722.218,-196 1722.218,4 -4,4"/>
<!-- T2871 -->
<g id="node1" class="node">
<title>T2871</title>
<polygon fill="none" stroke="#0058ad" points="658.718,-162.5 658.718,-191.5 879.718,-191.5 879.718,-162.5 658.718,-162.5"/>
<text text-anchor="middle" x="687.218" y="-173.3" font-family="Times,serif" font-size="14.00" fill="#0058ad">a 20 28</text>
<polyline fill="none" stroke="#0058ad" points="715.718,-162.5 715.718,-191.5 "/>
<text text-anchor="middle" x="740.718" y="-173.3" font-family="Times,serif" font-size="14.00" fill="#0058ad">a 4 28</text>
<polyline fill="none" stroke="#0058ad" points="765.718,-162.5 765.718,-191.5 "/>
<text text-anchor="middle" x="794.218" y="-173.3" font-family="Times,serif" font-size="14.00" fill="#0058ad">a 15 85</text>
<polyline fill="none" stroke="#0058ad" points="822.718,-162.5 822.718,-191.5 "/>
<text text-anchor="middle" x="851.218" y="-173.3" font-family="Times,serif" font-size="14.00" fill="#0058ad">a 20 29</text>
</g>
<!-- T2875 -->
<g id="node3" class="node">
<title>T2875</title>
<polygon fill="none" stroke="#0058ad" points="76.218,-81.5 76.218,-110.5 1718.218,-110.5 1718.218,-81.5 76.218,-81.5"/>
<text text-anchor="middle" x="392.218" y="-92.3" font-family="Times,serif" font-size="14.00" fill="#0058ad">r 5 [1 2 3 4 7 8 9 10 11 12 14 19 20 21 22 23 24 25 26 27 29 31 32 33 34 35 36 37 38 39 43 44 45 47 48 49 50]</text>
<polyline fill="none" stroke="#0058ad" points="708.218,-81.5 708.218,-110.5 "/>
<text text-anchor="middle" x="990.718" y="-92.3" font-family="Times,serif" font-size="14.00" fill="#0058ad">r 19 [23 24 25 26 27 30 28 29 31 32 33 34 35 36 37 41 42 43 44 45 46 47 49 48 50 51 52 53 54 56]</text>
<polyline fill="none" stroke="#0058ad" points="1273.218,-81.5 1273.218,-110.5 "/>
<text text-anchor="middle" x="1495.718" y="-92.3" font-family="Times,serif" font-size="14.00" fill="#0058ad">r 20 [3 6 7 8 9 10 11 12 13 14 15 16 17 18 19 20 21 22 23 24 25 26 27 28 29]</text>
</g>
<!-- T2871&#45;&gt;T2875 -->
<g id="edge1" class="edge">
<title>T2871:f3&#45;&gt;T2875:f2</title>
<path fill="none" stroke="#c000a5" d="M880.218,-177C912.3505,-177 1421.3896,-149.4733 1488.8546,-117.8108"/>
<polygon fill="#c000a5" stroke="#c000a5" points="1491.2534,-120.3597 1496.218,-111 1486.5002,-115.2208 1491.2534,-120.3597"/>
<text text-anchor="middle" x="1453.718" y="-132.8" font-family="Times,serif" font-size="14.00" fill="#c000a5">wr</text>
</g>
<!-- T2873 -->
<g id="node2" class="node">
<title>T2873</title>
<polygon fill="none" stroke="#0058ad" points="195.718,-.5 195.718,-29.5 1244.718,-29.5 1244.718,-.5 195.718,-.5"/>
<text text-anchor="middle" x="400.718" y="-11.3" font-family="Times,serif" font-size="14.00" fill="#0058ad">r 20 [3 6 7 8 9 10 11 12 13 14 15 16 17 18 19 20 21 22 23 24 25 26 27]</text>
<polyline fill="none" stroke="#0058ad" points="605.718,-.5 605.718,-29.5 "/>
<text text-anchor="middle" x="634.218" y="-11.3" font-family="Times,serif" font-size="14.00" fill="#0058ad">a 19 55</text>
<polyline fill="none" stroke="#0058ad" points="662.718,-.5 662.718,-29.5 "/>
<text text-anchor="middle" x="953.718" y="-11.3" font-family="Times,serif" font-size="14.00" fill="#0058ad">r 19 [23 24 25 26 27 30 28 29 31 32 33 34 35 36 37 41 42 43 44 45 46 47 49 48 50 51 52 53 54 56 55]</text>
</g>
<!-- T2873&#45;&gt;T2871 -->
<g id="edge2" class="edge">
<title>T2873:f0&#45;&gt;T2871:f0</title>
<path fill="none" stroke="#5b00c0" d="M195.218,-15C-36.0586,-15 -30.4601,-18.8284 52.218,-111 95.6336,-159.4008 551.7226,-175.6965 648.0929,-176.9238"/>
<polygon fill="#5b00c0" stroke="#5b00c0" points="648.192,-180.4246 658.218,-177 648.2447,-173.4248 648.192,-180.4246"/>
<text text-anchor="middle" x="59.718" y="-92.3" font-family="Times,serif" font-size="14.00" fill="#5b00c0">rw</text>
</g>
<!-- T2875&#45;&gt;T2873 -->
<g id="edge3" class="edge">
<title>T2875:f1&#45;&gt;T2873:f1</title>
<path fill="none" stroke="#5b00c0" d="M991.218,-81C991.218,75.6776 650.075,-178.3855 634.7503,-40.1591"/>
<polygon fill="#5b00c0" stroke="#5b00c0" points="638.2365,-39.8032 634.218,-30 631.2461,-40.1694 638.2365,-39.8032"/>
<text text-anchor="middle" x="994.718" y="-51.8" font-family="Times,serif" font-size="14.00" fill="#5b00c0">rw</text>
</g>
</g>
</svg>
