<?xml version="1.0" encoding="UTF-8" standalone="no"?>
<!DOCTYPE svg PUBLIC "-//W3C//DTD SVG 1.1//EN"
 "http://www.w3.org/Graphics/SVG/1.1/DTD/svg11.dtd">
<!-- Generated by graphviz version 2.40.1 (20161225.0304)
 -->
<!-- Title: a_graph Pages: 1 -->
<svg width="1182pt" height="200pt"
 viewBox="0.00 0.00 1182.00 200.00" xmlns="http://www.w3.org/2000/svg" xmlns:xlink="http://www.w3.org/1999/xlink">
<g id="graph0" class="graph" transform="scale(1 1) rotate(0) translate(4 196)">
<title>a_graph</title>
<polygon fill="#ffffff" stroke="transparent" points="-4,4 -4,-196 1178,-196 1178,4 -4,4"/>
<!-- T1145 -->
<g id="node1" class="node">
<title>T1145</title>
<polygon fill="none" stroke="#0058ad" points="0,-162.5 0,-191.5 1174,-191.5 1174,-162.5 0,-162.5"/>
<text text-anchor="middle" x="25" y="-173.3" font-family="Times,serif" font-size="14.00" fill="#0058ad">a 13 4</text>
<polyline fill="none" stroke="#0058ad" points="50,-162.5 50,-191.5 "/>
<text text-anchor="middle" x="583.5" y="-173.3" font-family="Times,serif" font-size="14.00" fill="#0058ad">r 7 [1 2 3 4 5 6 7 8 9 10 11 12 13 14 15 16 17 18 19 20 21 22 23 24 25 26 27 28 29 30 31 32 33 34 35 36 37 38 39 40 41 42 43 44 45 62 61 63 64 65 66 67 69 70 71 68 72 73 74 75 76 77 78]</text>
<polyline fill="none" stroke="#0058ad" points="1117,-162.5 1117,-191.5 "/>
<text text-anchor="middle" x="1145.5" y="-173.3" font-family="Times,serif" font-size="14.00" fill="#0058ad">a 12 44</text>
</g>
<!-- T1141 -->
<g id="node3" class="node">
<title>T1141</title>
<polygon fill="none" stroke="#0058ad" points="58,-81.5 58,-110.5 266,-110.5 266,-81.5 58,-81.5"/>
<text text-anchor="middle" x="83" y="-92.3" font-family="Times,serif" font-size="14.00" fill="#0058ad">a 7 79</text>
<polyline fill="none" stroke="#0058ad" points="108,-81.5 108,-110.5 "/>
<text text-anchor="middle" x="147.5" y="-92.3" font-family="Times,serif" font-size="14.00" fill="#0058ad">r 13 [1 2 3]</text>
<polyline fill="none" stroke="#0058ad" points="187,-81.5 187,-110.5 "/>
<text text-anchor="middle" x="226.5" y="-92.3" font-family="Times,serif" font-size="14.00" fill="#0058ad">r 13 [1 2 3]</text>
</g>
<!-- T1145&#45;&gt;T1141 -->
<g id="edge1" class="edge">
<title>T1145:f1&#45;&gt;T1141:f0</title>
<path fill="none" stroke="#5b00c0" d="M583,-162C583,-135.3701 127.0992,-157.2507 104,-144 92.2191,-137.2419 86.0285,-131.5124 83.8838,-121.0396"/>
<polygon fill="#5b00c0" stroke="#5b00c0" points="87.3635,-120.6545 83,-111 80.3905,-121.2684 87.3635,-120.6545"/>
<text text-anchor="middle" x="111.5" y="-132.8" font-family="Times,serif" font-size="14.00" fill="#5b00c0">rw</text>
</g>
<!-- T1143 -->
<g id="node2" class="node">
<title>T1143</title>
<polygon fill="none" stroke="#0058ad" points="1.5,-.5 1.5,-29.5 80.5,-29.5 80.5,-.5 1.5,-.5"/>
<text text-anchor="middle" x="41" y="-11.3" font-family="Times,serif" font-size="14.00" fill="#0058ad">r 13 [1 2 3]</text>
</g>
<!-- T1143&#45;&gt;T1145 -->
<g id="edge2" class="edge">
<title>T1143:f0&#45;&gt;T1145:f0</title>
<path fill="none" stroke="#5b00c0" d="M38.3579,-29.548C34.1241,-54.0763 26.185,-105.5285 25.1194,-151.8896"/>
<polygon fill="#5b00c0" stroke="#5b00c0" points="21.6184,-151.9593 25,-162 28.6179,-152.0421 21.6184,-151.9593"/>
<text text-anchor="middle" x="38.5" y="-92.3" font-family="Times,serif" font-size="14.00" fill="#5b00c0">rw</text>
</g>
<!-- T1141&#45;&gt;T1145 -->
<g id="edge3" class="edge">
<title>T1141:f1&#45;&gt;T1145:f0</title>
<path fill="none" stroke="#5b00c0" d="M147,-111C147,-130.2347 135.6134,-134.3062 119,-144 103.7874,-152.8764 49.3063,-144.8098 31.0278,-153.8535"/>
<polygon fill="#5b00c0" stroke="#5b00c0" points="28.1345,-151.8794 25,-162 33.7616,-156.0431 28.1345,-151.8794"/>
<text text-anchor="middle" x="147.5" y="-132.8" font-family="Times,serif" font-size="14.00" fill="#5b00c0">rw</text>
</g>
<!-- T1141&#45;&gt;T1143 -->
<g id="edge4" class="edge">
<title>T1141&#45;&gt;T1143</title>
<path fill="none" stroke="#0050c0" d="M140.0878,-81.3315C120.8141,-68.4292 92.5729,-49.524 71.1666,-35.1941"/>
<polygon fill="#0050c0" stroke="#0050c0" points="73.0061,-32.2138 62.7492,-29.5594 69.1121,-38.0307 73.0061,-32.2138"/>
<text text-anchor="middle" x="116.5" y="-51.8" font-family="Times,serif" font-size="14.00" fill="#0050c0">rt</text>
</g>
</g>
</svg>
