<?xml version="1.0" encoding="UTF-8" standalone="no"?>
<!DOCTYPE svg PUBLIC "-//W3C//DTD SVG 1.1//EN"
 "http://www.w3.org/Graphics/SVG/1.1/DTD/svg11.dtd">
<!-- Generated by graphviz version 2.40.1 (20161225.0304)
 -->
<!-- Title: a_graph Pages: 1 -->
<svg width="2349pt" height="605pt"
 viewBox="0.00 0.00 2348.59 605.00" xmlns="http://www.w3.org/2000/svg" xmlns:xlink="http://www.w3.org/1999/xlink">
<g id="graph0" class="graph" transform="scale(1 1) rotate(0) translate(4 601)">
<title>a_graph</title>
<polygon fill="#ffffff" stroke="transparent" points="-4,4 -4,-601 2344.5874,-601 2344.5874,4 -4,4"/>
<!-- T646 -->
<g id="node1" class="node">
<title>T646</title>
<polygon fill="none" stroke="#0058ad" points="641.0292,-567.5 641.0292,-596.5 2094.0292,-596.5 2094.0292,-567.5 641.0292,-567.5"/>
<text text-anchor="middle" x="1367.5292" y="-578.3" font-family="Times,serif" font-size="14.00" fill="#0058ad">r 10 [1 2 3 4 5 6 7 8 9 10 11 12 13 14 15 17 18 19 16 20 21 23 22 24 25 26 27 28 29 30 31 32 33 34 35 36 37 38 40 41 42 43 39 44 45 46 47 49 50 51 48 52 53 57 58 59 55 56 60 61 54 62 63 64 65 66 67 68 69 70 71 72 73 74 76 77 75 80 78 79 81 83 84 82 86]</text>
</g>
<!-- T676 -->
<g id="node3" class="node">
<title>T676</title>
<polygon fill="none" stroke="#0058ad" points="522.5292,-486.5 522.5292,-515.5 2212.5292,-515.5 2212.5292,-486.5 522.5292,-486.5"/>
<text text-anchor="middle" x="1367.5292" y="-497.3" font-family="Times,serif" font-size="14.00" fill="#0058ad">r 8 [5 7 8 10 11 9 12 13 14 15 16 17 18 19 20 21 22 23 24 25 27 28 26 29 30 31 32 33 34 35 36 37 38 39 40 41 42 43 44 45 46 47 48 49 50 52 51 53 54 55 56 58 59 60 61 62 63 64 65 66 67 68 69 70 71 73 72 74 75 76 77 78 79 81 80 82 84 83 85 87 88 86 89 90 91 92 93 94 95 96 99 97 98 101 102 100]</text>
</g>
<!-- T646&#45;&gt;T676 -->
<g id="edge2" class="edge">
<title>T646&#45;&gt;T676</title>
<path fill="none" stroke="#0050c0" d="M1367.5292,-567.1434C1367.5292,-555.6112 1367.5292,-539.3668 1367.5292,-525.8626"/>
<polygon fill="#0050c0" stroke="#0050c0" points="1371.0293,-525.7624 1367.5292,-515.7625 1364.0293,-525.7625 1371.0293,-525.7624"/>
<text text-anchor="middle" x="1372.0292" y="-537.8" font-family="Times,serif" font-size="14.00" fill="#0050c0">rt</text>
</g>
<!-- T650 -->
<g id="node6" class="node">
<title>T650</title>
<polygon fill="none" stroke="#0058ad" points="535.5292,-.5 535.5292,-29.5 2315.5292,-29.5 2315.5292,-.5 535.5292,-.5"/>
<text text-anchor="middle" x="1368.5292" y="-11.3" font-family="Times,serif" font-size="14.00" fill="#0058ad">r 8 [5 7 8 10 11 9 12 13 14 15 16 17 18 19 20 21 22 23 24 25 27 28 26 29 30 31 32 33 34 35 36 37 38 39 40 41 42 43 44 45 46 47 48 49 50 52 51 53 54 55 56 58 59 60 61 62 63 64 65 66 67 68 69 70 71 73 72 74 75 76 77 78 79 81 80 82 84 83 85 87 88 86 89 90 91 92 93 94 95 96 99 97 98 101 102]</text>
<polyline fill="none" stroke="#0058ad" points="2201.5292,-.5 2201.5292,-29.5 "/>
<text text-anchor="middle" x="2230.0292" y="-11.3" font-family="Times,serif" font-size="14.00" fill="#0058ad">a 10 85</text>
<polyline fill="none" stroke="#0058ad" points="2258.5292,-.5 2258.5292,-29.5 "/>
<text text-anchor="middle" x="2287.0292" y="-11.3" font-family="Times,serif" font-size="14.00" fill="#0058ad">a 8 100</text>
</g>
<!-- T646&#45;&gt;T650 -->
<g id="edge1" class="edge">
<title>T646:f0&#45;&gt;T650:f1</title>
<path fill="none" stroke="#5b00c0" d="M2062.1033,-567.4818C2196.5075,-555.4061 2296.5292,-534.9983 2296.5292,-501 2296.5292,-501 2296.5292,-501 2296.5292,-96 2296.5292,-73.7778 2297.8494,-64.0972 2282.5292,-48 2268.9617,-33.7444 2243.5583,-46.6122 2234.1526,-39.4393"/>
<polygon fill="#5b00c0" stroke="#5b00c0" points="2237.3805,-38.0815 2230.5292,-30 2230.8454,-40.5901 2237.3805,-38.0815"/>
<text text-anchor="middle" x="2304.0292" y="-294.8" font-family="Times,serif" font-size="14.00" fill="#5b00c0">rw</text>
</g>
<!-- T638 -->
<g id="node2" class="node">
<title>T638</title>
<polygon fill="none" stroke="#0058ad" points="1637.0292,-324.5 1637.0292,-353.5 1844.0292,-353.5 1844.0292,-324.5 1637.0292,-324.5"/>
<text text-anchor="middle" x="1665.5292" y="-335.3" font-family="Times,serif" font-size="14.00" fill="#0058ad">a 10 82</text>
<polyline fill="none" stroke="#0058ad" points="1694.0292,-324.5 1694.0292,-353.5 "/>
<text text-anchor="middle" x="1719.0292" y="-335.3" font-family="Times,serif" font-size="14.00" fill="#0058ad">a 8 97</text>
<polyline fill="none" stroke="#0058ad" points="1744.0292,-324.5 1744.0292,-353.5 "/>
<text text-anchor="middle" x="1769.0292" y="-335.3" font-family="Times,serif" font-size="14.00" fill="#0058ad">a 8 98</text>
<polyline fill="none" stroke="#0058ad" points="1794.0292,-324.5 1794.0292,-353.5 "/>
<text text-anchor="middle" x="1819.0292" y="-335.3" font-family="Times,serif" font-size="14.00" fill="#0058ad">a 7 45</text>
</g>
<!-- T640 -->
<g id="node4" class="node">
<title>T640</title>
<polygon fill="none" stroke="#0058ad" points="230.0292,-243.5 230.0292,-272.5 1723.0292,-272.5 1723.0292,-243.5 230.0292,-243.5"/>
<text text-anchor="middle" x="948.0292" y="-254.3" font-family="Times,serif" font-size="14.00" fill="#0058ad">r 10 [1 2 3 4 5 6 7 8 9 10 11 12 13 14 15 17 18 19 16 20 21 23 22 24 25 26 27 28 29 30 31 32 33 34 35 36 37 38 40 41 42 43 39 44 45 46 47 49 50 51 48 52 53 57 58 59 55 56 60 61 54 62 63 64 65 66 67 68 69 70 71 72 73 74 76 77 75 80 78 79 81 83 84 82]</text>
<polyline fill="none" stroke="#0058ad" points="1666.0292,-243.5 1666.0292,-272.5 "/>
<text text-anchor="middle" x="1694.5292" y="-254.3" font-family="Times,serif" font-size="14.00" fill="#0058ad">a 10 86</text>
</g>
<!-- T638&#45;&gt;T640 -->
<g id="edge3" class="edge">
<title>T638:f0&#45;&gt;T640:f1</title>
<path fill="none" stroke="#c02700" d="M1665.5292,-324C1665.5292,-301.7956 1686.5588,-299.3334 1692.802,-282.99"/>
<polygon fill="#c02700" stroke="#c02700" points="1696.2743,-283.4501 1694.5292,-273 1689.3766,-282.2575 1696.2743,-283.4501"/>
<text text-anchor="middle" x="1696.5292" y="-294.8" font-family="Times,serif" font-size="14.00" fill="#c02700">ww</text>
</g>
<!-- T642 -->
<g id="node5" class="node">
<title>T642</title>
<polygon fill="none" stroke="#0058ad" points="15.5292,-162.5 15.5292,-191.5 1937.5292,-191.5 1937.5292,-162.5 15.5292,-162.5"/>
<text text-anchor="middle" x="167.5292" y="-173.3" font-family="Times,serif" font-size="14.00" fill="#0058ad">r 6 [2 3 4 5 6 7 9 10 11 12 13 14 15 16 17 18 19 20]</text>
<polyline fill="none" stroke="#0058ad" points="319.5292,-162.5 319.5292,-191.5 "/>
<text text-anchor="middle" x="1128.5292" y="-173.3" font-family="Times,serif" font-size="14.00" fill="#0058ad">r 8 [5 7 8 10 11 9 12 13 14 15 16 17 18 19 20 21 22 23 24 25 27 28 26 29 30 31 32 33 34 35 36 37 38 39 40 41 42 43 44 45 46 47 48 49 50 52 51 53 54 55 56 58 59 60 61 62 63 64 65 66 67 68 69 70 71 73 72 74 75 76 77 78 79 81 80 82 84 83 85 87 88 86 89 90 91 92 93 94 95 96 99 97 98]</text>
</g>
<!-- T638&#45;&gt;T642 -->
<g id="edge4" class="edge">
<title>T638:f2&#45;&gt;T642:f1</title>
<path fill="none" stroke="#c000a5" d="M1769.5292,-324C1769.5292,-228.8547 2015.2735,-181.0064 1947.9317,-177.2414"/>
<polygon fill="#c000a5" stroke="#c000a5" points="1947.6077,-173.733 1937.5292,-177 1947.4453,-180.7312 1947.6077,-173.733"/>
<text text-anchor="middle" x="1839.0292" y="-254.3" font-family="Times,serif" font-size="14.00" fill="#c000a5">wr</text>
</g>
<!-- T644 -->
<g id="node9" class="node">
<title>T644</title>
<polygon fill="none" stroke="#0058ad" points="486.5292,-81.5 486.5292,-110.5 2268.5292,-110.5 2268.5292,-81.5 486.5292,-81.5"/>
<text text-anchor="middle" x="1295.5292" y="-92.3" font-family="Times,serif" font-size="14.00" fill="#0058ad">r 8 [5 7 8 10 11 9 12 13 14 15 16 17 18 19 20 21 22 23 24 25 27 28 26 29 30 31 32 33 34 35 36 37 38 39 40 41 42 43 44 45 46 47 48 49 50 52 51 53 54 55 56 58 59 60 61 62 63 64 65 66 67 68 69 70 71 73 72 74 75 76 77 78 79 81 80 82 84 83 85 87 88 86 89 90 91 92 93 94 95 96 99 97 98]</text>
<polyline fill="none" stroke="#0058ad" points="2104.5292,-81.5 2104.5292,-110.5 "/>
<text text-anchor="middle" x="2133.0292" y="-92.3" font-family="Times,serif" font-size="14.00" fill="#0058ad">a 8 101</text>
<polyline fill="none" stroke="#0058ad" points="2161.5292,-81.5 2161.5292,-110.5 "/>
<text text-anchor="middle" x="2186.5292" y="-92.3" font-family="Times,serif" font-size="14.00" fill="#0058ad">a 6 21</text>
<polyline fill="none" stroke="#0058ad" points="2211.5292,-81.5 2211.5292,-110.5 "/>
<text text-anchor="middle" x="2240.0292" y="-92.3" font-family="Times,serif" font-size="14.00" fill="#0058ad">a 8 102</text>
</g>
<!-- T638&#45;&gt;T644 -->
<g id="edge5" class="edge">
<title>T638:f2&#45;&gt;T644:f1</title>
<path fill="none" stroke="#c02700" d="M1769.5292,-324C1769.5292,-311.1019 1968.459,-231.619 1979.5292,-225 2049.4776,-183.1769 2126.5903,-194.9885 2133.0881,-121.4359"/>
<polygon fill="#c02700" stroke="#c02700" points="2136.6037,-121.1389 2133.5292,-111 2129.6099,-120.8432 2136.6037,-121.1389"/>
<text text-anchor="middle" x="2017.5292" y="-213.8" font-family="Times,serif" font-size="14.00" fill="#c02700">ww</text>
</g>
<!-- T925 -->
<g id="node8" class="node">
<title>T925</title>
<polygon fill="none" stroke="#0058ad" points="1213.0292,-405.5 1213.0292,-434.5 1952.0292,-434.5 1952.0292,-405.5 1213.0292,-405.5"/>
<text text-anchor="middle" x="1582.5292" y="-416.3" font-family="Times,serif" font-size="14.00" fill="#0058ad">r 7 [1 2 3 4 5 6 7 8 9 10 11 12 13 14 15 16 17 18 19 20 21 22 23 24 25 26 27 28 29 30 31 32 33 34 35 36 37 38 39 40 41 42 43 44]</text>
</g>
<!-- T676&#45;&gt;T925 -->
<g id="edge6" class="edge">
<title>T676&#45;&gt;T925</title>
<path fill="none" stroke="#0050c0" d="M1406.4641,-486.3315C1442.3851,-472.7985 1495.836,-452.6612 1534.4157,-438.1265"/>
<polygon fill="#0050c0" stroke="#0050c0" points="1535.76,-441.3602 1543.884,-434.5594 1533.2921,-434.8097 1535.76,-441.3602"/>
<text text-anchor="middle" x="1498.0292" y="-456.8" font-family="Times,serif" font-size="14.00" fill="#0050c0">rt</text>
</g>
<!-- T640&#45;&gt;T646 -->
<g id="edge7" class="edge">
<title>T640:f1&#45;&gt;T646:f0</title>
<path fill="none" stroke="#c000a5" d="M1694.5292,-273C1694.5292,-351.8076 277.5292,-260.1924 277.5292,-339 277.5292,-501 277.5292,-501 277.5292,-501 277.5292,-533.6866 593.369,-554.6538 885.0188,-567.0473"/>
<polygon fill="#c000a5" stroke="#c000a5" points="885.2442,-570.5598 895.3829,-567.4846 885.5393,-563.5661 885.2442,-570.5598"/>
<text text-anchor="middle" x="285.0292" y="-416.3" font-family="Times,serif" font-size="14.00" fill="#c000a5">wr</text>
</g>
<!-- T640&#45;&gt;T642 -->
<g id="edge8" class="edge">
<title>T640&#45;&gt;T642</title>
<path fill="none" stroke="#0050c0" d="M976.5292,-243.1434C976.5292,-231.6112 976.5292,-215.3668 976.5292,-201.8626"/>
<polygon fill="#0050c0" stroke="#0050c0" points="980.0293,-201.7624 976.5292,-191.7625 973.0293,-201.7625 980.0293,-201.7624"/>
<text text-anchor="middle" x="981.0292" y="-213.8" font-family="Times,serif" font-size="14.00" fill="#0050c0">rt</text>
</g>
<!-- T640&#45;&gt;T650 -->
<g id="edge9" class="edge">
<title>T640:f1&#45;&gt;T650:f1</title>
<path fill="none" stroke="#c02700" d="M1723.5292,-258C1736.4493,-258 1938.7976,-202.3514 1946.5292,-192 1954.5081,-181.3175 1955.3556,-171.9937 1946.5292,-162 1867.9609,-73.0408 1799.9308,-137.2326 1681.5292,-129 1648.1616,-126.6799 501.0032,-134.8276 477.5292,-111 468.1718,-101.5017 468.2392,-90.5642 477.5292,-81 543.2259,-13.3642 2123.5978,-120.1264 2225.3895,-38.7669"/>
<polygon fill="#c02700" stroke="#c02700" points="2228.491,-40.3969 2230.5292,-30 2222.4522,-36.8566 2228.491,-40.3969"/>
<text text-anchor="middle" x="1936.5292" y="-132.8" font-family="Times,serif" font-size="14.00" fill="#c02700">ww</text>
</g>
<!-- T642&#45;&gt;T646 -->
<g id="edge10" class="edge">
<title>T642&#45;&gt;T646</title>
<path fill="none" stroke="#0050c0" d="M574.6922,-191.5148C430.0371,-201.0834 286.3151,-216.9007 220.5292,-243 210.5286,-246.9675 201.5292,-247.2411 201.5292,-258 201.5292,-501 201.5292,-501 201.5292,-501 201.5292,-595.441 314.8989,-536.6517 408.5292,-549 466.1452,-556.5986 563.587,-562.5066 674.8671,-567.0809"/>
<polygon fill="#0050c0" stroke="#0050c0" points="674.8461,-570.5829 684.9799,-567.4915 675.1301,-563.5886 674.8461,-570.5829"/>
<text text-anchor="middle" x="206.0292" y="-375.8" font-family="Times,serif" font-size="14.00" fill="#0050c0">rt</text>
</g>
<!-- T648 -->
<g id="node7" class="node">
<title>T648</title>
<polygon fill="none" stroke="#0058ad" points="102.5292,-81.5 102.5292,-110.5 156.5292,-110.5 156.5292,-81.5 102.5292,-81.5"/>
<text text-anchor="middle" x="129.5292" y="-92.3" font-family="Times,serif" font-size="14.00" fill="#0058ad">a 4 7</text>
</g>
<!-- T642&#45;&gt;T648 -->
<g id="edge11" class="edge">
<title>T642&#45;&gt;T648</title>
<path fill="none" stroke="#0050c0" d="M824.6137,-162.4721C623.3076,-143.2208 280.3963,-110.4277 167.0947,-99.5924"/>
<polygon fill="#0050c0" stroke="#0050c0" points="167.147,-96.0816 156.8592,-98.6136 166.4806,-103.0498 167.147,-96.0816"/>
<text text-anchor="middle" x="633.0292" y="-132.8" font-family="Times,serif" font-size="14.00" fill="#0050c0">rt</text>
</g>
<!-- T642&#45;&gt;T644 -->
<g id="edge12" class="edge">
<title>T642:f1&#45;&gt;T644:f1</title>
<path fill="none" stroke="#5b00c0" d="M1128.5292,-162C1128.5292,-42.2197 1546.898,-134.9737 1666.5292,-129 1678.3807,-128.4082 2058.7495,-124.7056 2124.0378,-114.1592"/>
<polygon fill="#5b00c0" stroke="#5b00c0" points="2125.1464,-117.4791 2133.5292,-111 2122.9356,-110.8373 2125.1464,-117.4791"/>
<text text-anchor="middle" x="1674.0292" y="-132.8" font-family="Times,serif" font-size="14.00" fill="#5b00c0">rw</text>
</g>
<!-- T650&#45;&gt;T676 -->
<g id="edge13" class="edge">
<title>T650:f2&#45;&gt;T676:f0</title>
<path fill="none" stroke="#c000a5" d="M2315.5292,-15C2437.5929,-15 2071.213,-381.4368 1961.5292,-435 1916.9507,-456.7695 1868.3038,-472.7096 1818.6633,-484.2384"/>
<polygon fill="#c000a5" stroke="#c000a5" points="1817.7048,-480.8666 1808.7228,-486.4857 1819.2485,-487.6943 1817.7048,-480.8666"/>
<text text-anchor="middle" x="2194.0292" y="-254.3" font-family="Times,serif" font-size="14.00" fill="#c000a5">wr</text>
</g>
<!-- T648&#45;&gt;T676 -->
<g id="edge14" class="edge">
<title>T648&#45;&gt;T676</title>
<path fill="none" stroke="#0050c0" d="M102.3321,-103.7403C57.9137,-117.7953 -22.4907,-149.9866 6.5292,-192 134.2288,-376.8759 791.2481,-456.0593 1143.5971,-485.6583"/>
<polygon fill="#0050c0" stroke="#0050c0" points="1143.4171,-489.1554 1153.6733,-486.4982 1143.9986,-482.1796 1143.4171,-489.1554"/>
<text text-anchor="middle" x="174.0292" y="-294.8" font-family="Times,serif" font-size="14.00" fill="#0050c0">rt</text>
</g>
<!-- T925&#45;&gt;T638 -->
<g id="edge15" class="edge">
<title>T925:f0&#45;&gt;T638:f3</title>
<path fill="none" stroke="#5b00c0" d="M1791.4115,-405.2754C1806.0399,-395.6185 1816.1441,-382.2606 1818.8215,-364.0015"/>
<polygon fill="#5b00c0" stroke="#5b00c0" points="1822.3145,-364.2221 1819.5292,-354 1815.332,-363.728 1822.3145,-364.2221"/>
<text text-anchor="middle" x="1824.0292" y="-375.8" font-family="Times,serif" font-size="14.00" fill="#5b00c0">rw</text>
</g>
<!-- T644&#45;&gt;T646 -->
<g id="edge16" class="edge">
<title>T644&#45;&gt;T646</title>
<path fill="none" stroke="#0050c0" d="M1794.8791,-110.515C1860.2226,-115.1156 1917.1274,-121.1366 1950.5292,-129 1968.652,-133.2665 2240.5292,-141.3056 2240.5292,-298.5 2240.5292,-501 2240.5292,-501 2240.5292,-501 2240.5292,-511.7589 2231.5494,-512.0823 2221.5292,-516 2170.8907,-535.7988 1899.3821,-554.5168 1675.896,-566.9269"/>
<polygon fill="#0050c0" stroke="#0050c0" points="1675.4181,-563.4478 1665.6265,-567.4946 1675.8045,-570.4372 1675.4181,-563.4478"/>
<text text-anchor="middle" x="2245.0292" y="-335.3" font-family="Times,serif" font-size="14.00" fill="#0050c0">rt</text>
</g>
<!-- T644&#45;&gt;T650 -->
<g id="edge17" class="edge">
<title>T644:f3&#45;&gt;T650:f2</title>
<path fill="none" stroke="#c02700" d="M2240.5292,-81C2240.5292,-63.3729 2250.2914,-60.6867 2262.5292,-48 2268.6186,-41.6872 2277.166,-41.6945 2282.5229,-38.9153"/>
<polygon fill="#c02700" stroke="#c02700" points="2285.6847,-40.4331 2287.5292,-30 2279.5812,-37.0057 2285.6847,-40.4331"/>
<text text-anchor="middle" x="2272.5292" y="-51.8" font-family="Times,serif" font-size="14.00" fill="#c02700">ww</text>
</g>
</g>
</svg>
