<?xml version="1.0" encoding="UTF-8" standalone="no"?>
<!DOCTYPE svg PUBLIC "-//W3C//DTD SVG 1.1//EN"
 "http://www.w3.org/Graphics/SVG/1.1/DTD/svg11.dtd">
<!-- Generated by graphviz version 2.40.1 (20161225.0304)
 -->
<!-- Title: a_graph Pages: 1 -->
<svg width="1352pt" height="119pt"
 viewBox="0.00 0.00 1352.00 119.00" xmlns="http://www.w3.org/2000/svg" xmlns:xlink="http://www.w3.org/1999/xlink">
<g id="graph0" class="graph" transform="scale(1 1) rotate(0) translate(4 115)">
<title>a_graph</title>
<polygon fill="#ffffff" stroke="transparent" points="-4,4 -4,-115 1348,-115 1348,4 -4,4"/>
<!-- T1181 -->
<g id="node1" class="node">
<title>T1181</title>
<polygon fill="none" stroke="#0058ad" points="0,-81.5 0,-110.5 815,-110.5 815,-81.5 0,-81.5"/>
<text text-anchor="middle" x="291" y="-92.3" font-family="Times,serif" font-size="14.00" fill="#0058ad">r 12 [16 15 17 18 19 20 21 22 23 24 26 25 27 28 29 30 33 34 36 37 38 39 40 41 42 43 44 45 46 47 48]</text>
<polyline fill="none" stroke="#0058ad" points="582,-81.5 582,-110.5 "/>
<text text-anchor="middle" x="670" y="-92.3" font-family="Times,serif" font-size="14.00" fill="#0058ad">r 13 [1 2 3 4 5 6 7 8 9 10 11]</text>
<polyline fill="none" stroke="#0058ad" points="758,-81.5 758,-110.5 "/>
<text text-anchor="middle" x="786.5" y="-92.3" font-family="Times,serif" font-size="14.00" fill="#0058ad">a 12 49</text>
</g>
<!-- T1185 -->
<g id="node2" class="node">
<title>T1185</title>
<polygon fill="none" stroke="#0058ad" points="591,-.5 591,-29.5 1344,-29.5 1344,-.5 591,-.5"/>
<text text-anchor="middle" x="619.5" y="-11.3" font-family="Times,serif" font-size="14.00" fill="#0058ad">a 13 12</text>
<polyline fill="none" stroke="#0058ad" points="648,-.5 648,-29.5 "/>
<text text-anchor="middle" x="939" y="-11.3" font-family="Times,serif" font-size="14.00" fill="#0058ad">r 12 [16 15 17 18 19 20 21 22 23 24 26 25 27 28 29 30 33 34 36 37 38 39 40 41 42 43 44 45 46 47 48]</text>
<polyline fill="none" stroke="#0058ad" points="1230,-.5 1230,-29.5 "/>
<text text-anchor="middle" x="1258.5" y="-11.3" font-family="Times,serif" font-size="14.00" fill="#0058ad">a 13 13</text>
<polyline fill="none" stroke="#0058ad" points="1287,-.5 1287,-29.5 "/>
<text text-anchor="middle" x="1315.5" y="-11.3" font-family="Times,serif" font-size="14.00" fill="#0058ad">a 13 14</text>
</g>
<!-- T1181&#45;&gt;T1185 -->
<g id="edge1" class="edge">
<title>T1181:f1&#45;&gt;T1185:f0</title>
<path fill="none" stroke="#5b00c0" d="M670.5,-81C670.5,-52.8262 631.1037,-59.5425 621.5624,-39.8186"/>
<polygon fill="#5b00c0" stroke="#5b00c0" points="624.981,-39.0669 619.5,-30 618.1305,-40.5059 624.981,-39.0669"/>
<text text-anchor="middle" x="669" y="-51.8" font-family="Times,serif" font-size="14.00" fill="#5b00c0">rw</text>
</g>
<!-- T1185&#45;&gt;T1181 -->
<g id="edge2" class="edge">
<title>T1185:f1&#45;&gt;T1181:f2</title>
<path fill="none" stroke="#5b00c0" d="M938.5,-30C938.5,-88.6466 884.0247,-95.3931 825.6589,-95.9556"/>
<polygon fill="#5b00c0" stroke="#5b00c0" points="825.4846,-92.4562 815.5,-96 825.5152,-99.4562 825.4846,-92.4562"/>
<text text-anchor="middle" x="943" y="-51.8" font-family="Times,serif" font-size="14.00" fill="#5b00c0">rw</text>
</g>
</g>
</svg>
