<?xml version="1.0" encoding="UTF-8" standalone="no"?>
<!DOCTYPE svg PUBLIC "-//W3C//DTD SVG 1.1//EN"
 "http://www.w3.org/Graphics/SVG/1.1/DTD/svg11.dtd">
<!-- Generated by graphviz version 2.40.1 (20161225.0304)
 -->
<!-- Title: a_graph Pages: 1 -->
<svg width="1627pt" height="119pt"
 viewBox="0.00 0.00 1627.00 119.00" xmlns="http://www.w3.org/2000/svg" xmlns:xlink="http://www.w3.org/1999/xlink">
<g id="graph0" class="graph" transform="scale(1 1) rotate(0) translate(4 115)">
<title>a_graph</title>
<polygon fill="#ffffff" stroke="transparent" points="-4,4 -4,-115 1623,-115 1623,4 -4,4"/>
<!-- T1768 -->
<g id="node1" class="node">
<title>T1768</title>
<polygon fill="none" stroke="#0058ad" points="0,-81.5 0,-110.5 1619,-110.5 1619,-81.5 0,-81.5"/>
<text text-anchor="middle" x="25.5" y="-92.3" font-family="Times,serif" font-size="14.00" fill="#0058ad">r 14 []</text>
<polyline fill="none" stroke="#0058ad" points="51,-81.5 51,-110.5 "/>
<text text-anchor="middle" x="76" y="-92.3" font-family="Times,serif" font-size="14.00" fill="#0058ad">a 4 15</text>
<polyline fill="none" stroke="#0058ad" points="101,-81.5 101,-110.5 "/>
<text text-anchor="middle" x="831.5" y="-92.3" font-family="Times,serif" font-size="14.00" fill="#0058ad">r 12 [16 15 17 18 19 20 21 22 23 24 26 25 27 28 29 30 33 34 36 37 38 39 40 41 42 43 44 45 46 47 48 49 50 51 54 52 53 55 56 57 58 59 60 61 63 64 65 69 72 73 74 75 76 77 78 79 80 81 82 83 84 85 87 88 89 90 92 91 94 93 95 97 98 99 96 100 101 102 103 104]</text>
<polyline fill="none" stroke="#0058ad" points="1562,-81.5 1562,-110.5 "/>
<text text-anchor="middle" x="1590.5" y="-92.3" font-family="Times,serif" font-size="14.00" fill="#0058ad">a 14 43</text>
</g>
<!-- T1769 -->
<g id="node2" class="node">
<title>T1769</title>
<polygon fill="none" stroke="#0058ad" points="1324.5,-.5 1324.5,-29.5 1490.5,-29.5 1490.5,-.5 1324.5,-.5"/>
<text text-anchor="middle" x="1356.5" y="-11.3" font-family="Times,serif" font-size="14.00" fill="#0058ad">a 12 123</text>
<polyline fill="none" stroke="#0058ad" points="1388.5,-.5 1388.5,-29.5 "/>
<text text-anchor="middle" x="1414" y="-11.3" font-family="Times,serif" font-size="14.00" fill="#0058ad">r 14 []</text>
<polyline fill="none" stroke="#0058ad" points="1439.5,-.5 1439.5,-29.5 "/>
<text text-anchor="middle" x="1465" y="-11.3" font-family="Times,serif" font-size="14.00" fill="#0058ad">r 14 []</text>
</g>
<!-- T1768&#45;&gt;T1769 -->
<g id="edge1" class="edge">
<title>T1768:f2&#45;&gt;T1769:f0</title>
<path fill="none" stroke="#5b00c0" d="M831.5,-81C831.5,-28.3241 1229.1578,-16.1041 1314.2915,-15.0742"/>
<polygon fill="#5b00c0" stroke="#5b00c0" points="1314.5257,-18.5727 1324.5,-15 1314.4748,-11.5729 1314.5257,-18.5727"/>
<text text-anchor="middle" x="904" y="-51.8" font-family="Times,serif" font-size="14.00" fill="#5b00c0">rw</text>
</g>
<!-- T1769&#45;&gt;T1768 -->
<g id="edge2" class="edge">
<title>T1769:f1&#45;&gt;T1768:f3</title>
<path fill="none" stroke="#5b00c0" d="M1414.5,-30C1414.5,-107.6226 1574.3867,-9.6239 1589.3761,-70.782"/>
<polygon fill="#5b00c0" stroke="#5b00c0" points="1585.9276,-71.4426 1590.5,-81 1592.8856,-70.6773 1585.9276,-71.4426"/>
<text text-anchor="middle" x="1593" y="-51.8" font-family="Times,serif" font-size="14.00" fill="#5b00c0">rw</text>
</g>
</g>
</svg>
