<?xml version="1.0" encoding="UTF-8" standalone="no"?>
<!DOCTYPE svg PUBLIC "-//W3C//DTD SVG 1.1//EN"
 "http://www.w3.org/Graphics/SVG/1.1/DTD/svg11.dtd">
<!-- Generated by graphviz version 2.40.1 (20161225.0304)
 -->
<!-- Title: a_graph Pages: 1 -->
<svg width="1159pt" height="119pt"
 viewBox="0.00 0.00 1158.50 119.00" xmlns="http://www.w3.org/2000/svg" xmlns:xlink="http://www.w3.org/1999/xlink">
<g id="graph0" class="graph" transform="scale(1 1) rotate(0) translate(4 115)">
<title>a_graph</title>
<polygon fill="#ffffff" stroke="transparent" points="-4,4 -4,-115 1154.5,-115 1154.5,4 -4,4"/>
<!-- T1055 -->
<g id="node1" class="node">
<title>T1055</title>
<polygon fill="none" stroke="#0058ad" points="697.5,-81.5 697.5,-110.5 1150.5,-110.5 1150.5,-81.5 697.5,-81.5"/>
<text text-anchor="middle" x="722.5" y="-92.3" font-family="Times,serif" font-size="14.00" fill="#0058ad">a 7 72</text>
<polyline fill="none" stroke="#0058ad" points="747.5,-81.5 747.5,-110.5 "/>
<text text-anchor="middle" x="892" y="-92.3" font-family="Times,serif" font-size="14.00" fill="#0058ad">r 12 [16 15 17 18 19 20 21 22 23 24 26 25 27 28]</text>
<polyline fill="none" stroke="#0058ad" points="1036.5,-81.5 1036.5,-110.5 "/>
<text text-anchor="middle" x="1065" y="-92.3" font-family="Times,serif" font-size="14.00" fill="#0058ad">a 11 95</text>
<polyline fill="none" stroke="#0058ad" points="1093.5,-81.5 1093.5,-110.5 "/>
<text text-anchor="middle" x="1122" y="-92.3" font-family="Times,serif" font-size="14.00" fill="#0058ad">a 11 96</text>
</g>
<!-- T1056 -->
<g id="node2" class="node">
<title>T1056</title>
<polygon fill="none" stroke="#0058ad" points="0,-.5 0,-29.5 1060,-29.5 1060,-.5 0,-.5"/>
<text text-anchor="middle" x="473" y="-11.3" font-family="Times,serif" font-size="14.00" fill="#0058ad">r 7 [1 2 3 4 5 6 7 8 9 10 11 12 13 14 15 16 17 18 19 20 21 22 23 24 25 26 27 28 29 30 31 32 33 34 35 36 37 38 39 40 41 42 43 44 45 62 61 63 64 65 66 67 69 70 71 68]</text>
<polyline fill="none" stroke="#0058ad" points="946,-.5 946,-29.5 "/>
<text text-anchor="middle" x="974.5" y="-11.3" font-family="Times,serif" font-size="14.00" fill="#0058ad">a 12 29</text>
<polyline fill="none" stroke="#0058ad" points="1003,-.5 1003,-29.5 "/>
<text text-anchor="middle" x="1031.5" y="-11.3" font-family="Times,serif" font-size="14.00" fill="#0058ad">a 12 30</text>
</g>
<!-- T1055&#45;&gt;T1056 -->
<g id="edge1" class="edge">
<title>T1055:f1&#45;&gt;T1056:f1</title>
<path fill="none" stroke="#5b00c0" d="M892,-81C892,-41.5936 960.7559,-67.5375 973.1105,-39.8738"/>
<polygon fill="#5b00c0" stroke="#5b00c0" points="976.558,-40.4797 975,-30 969.6827,-39.1639 976.558,-40.4797"/>
<text text-anchor="middle" x="971.5" y="-51.8" font-family="Times,serif" font-size="14.00" fill="#5b00c0">rw</text>
</g>
<!-- T1056&#45;&gt;T1055 -->
<g id="edge2" class="edge">
<title>T1056:f0&#45;&gt;T1055:f0</title>
<path fill="none" stroke="#5b00c0" d="M473,-30C473,-78.8529 625.5286,-94.2172 686.6987,-95.8499"/>
<polygon fill="#5b00c0" stroke="#5b00c0" points="686.95,-99.3539 697,-96 687.0521,-92.3546 686.95,-99.3539"/>
<text text-anchor="middle" x="505.5" y="-51.8" font-family="Times,serif" font-size="14.00" fill="#5b00c0">rw</text>
</g>
</g>
</svg>
