<?xml version="1.0" encoding="UTF-8" standalone="no"?>
<!DOCTYPE svg PUBLIC "-//W3C//DTD SVG 1.1//EN"
 "http://www.w3.org/Graphics/SVG/1.1/DTD/svg11.dtd">
<!-- Generated by graphviz version 2.40.1 (20161225.0304)
 -->
<!-- Title: a_graph Pages: 1 -->
<svg width="2138pt" height="119pt"
 viewBox="0.00 0.00 2138.00 119.00" xmlns="http://www.w3.org/2000/svg" xmlns:xlink="http://www.w3.org/1999/xlink">
<g id="graph0" class="graph" transform="scale(1 1) rotate(0) translate(4 115)">
<title>a_graph</title>
<polygon fill="#ffffff" stroke="transparent" points="-4,4 -4,-115 2134,-115 2134,4 -4,4"/>
<!-- T2138 -->
<g id="node1" class="node">
<title>T2138</title>
<polygon fill="none" stroke="#0058ad" points="0,-81.5 0,-110.5 2130,-110.5 2130,-81.5 0,-81.5"/>
<text text-anchor="middle" x="28.5" y="-92.3" font-family="Times,serif" font-size="14.00" fill="#0058ad">a 16 61</text>
<polyline fill="none" stroke="#0058ad" points="57,-81.5 57,-110.5 "/>
<text text-anchor="middle" x="554" y="-92.3" font-family="Times,serif" font-size="14.00" fill="#0058ad">r 6 [2 3 4 5 6 7 9 10 11 12 13 14 15 16 17 18 19 20 21 30 31 32 33 34 35 36 37 39 38 40 41 42 43 44 45 46 47 50 51 52 53 54 64 65 66 67 68 69 70 71 72 73 74 75 76 77 78 79]</text>
<polyline fill="none" stroke="#0058ad" points="1051,-81.5 1051,-110.5 "/>
<text text-anchor="middle" x="1079.5" y="-92.3" font-family="Times,serif" font-size="14.00" fill="#0058ad">a 16 62</text>
<polyline fill="none" stroke="#0058ad" points="1108,-81.5 1108,-110.5 "/>
<text text-anchor="middle" x="1619" y="-92.3" font-family="Times,serif" font-size="14.00" fill="#0058ad">r 17 [1 2 3 4 5 6 8 7 10 9 11 12 13 16 17 18 14 15 19 20 21 22 23 26 27 28 25 29 24 30 31 32 34 35 36 33 37 38 39 40 41 42 43 44 45 46 47 48 49 50 51 53 54 56 52 57 55 58 59 60]</text>
</g>
<!-- T2137 -->
<g id="node2" class="node">
<title>T2137</title>
<polygon fill="none" stroke="#0058ad" points="127,-.5 127,-29.5 1217,-29.5 1217,-.5 127,-.5"/>
<text text-anchor="middle" x="152" y="-11.3" font-family="Times,serif" font-size="14.00" fill="#0058ad">a 6 81</text>
<polyline fill="none" stroke="#0058ad" points="177,-.5 177,-29.5 "/>
<text text-anchor="middle" x="668.5" y="-11.3" font-family="Times,serif" font-size="14.00" fill="#0058ad">r 16 [3 6 4 5 7 8 9 10 11 12 13 14 16 17 18 19 15 20 21 22 23 24 25 26 27 28 29 30 31 32 33 34 35 36 37 38 40 39 41 42 43 44 45 46 47 48 49 50 51 52 53 54 55 56 57 58 59]</text>
<polyline fill="none" stroke="#0058ad" points="1160,-.5 1160,-29.5 "/>
<text text-anchor="middle" x="1188.5" y="-11.3" font-family="Times,serif" font-size="14.00" fill="#0058ad">a 17 62</text>
</g>
<!-- T2138&#45;&gt;T2137 -->
<g id="edge1" class="edge">
<title>T2138:f1&#45;&gt;T2137:f0</title>
<path fill="none" stroke="#5b00c0" d="M554,-81C554,-62.8892 409.9725,-65.2337 392,-63 288.6995,-50.1614 160.8131,-131.9415 152.4345,-40.0889"/>
<polygon fill="#5b00c0" stroke="#5b00c0" points="155.9272,-39.8401 152,-30 148.9337,-40.1414 155.9272,-39.8401"/>
<text text-anchor="middle" x="399.5" y="-51.8" font-family="Times,serif" font-size="14.00" fill="#5b00c0">rw</text>
</g>
<!-- T2137&#45;&gt;T2138 -->
<g id="edge2" class="edge">
<title>T2137:f1&#45;&gt;T2138:f0</title>
<path fill="none" stroke="#5b00c0" d="M668,-30C668,-146.9235 523.4852,-52.8855 407,-63 387.9685,-64.6525 92.163,-60.7809 36.8668,-75.7296"/>
<polygon fill="#5b00c0" stroke="#5b00c0" points="34.8078,-72.8818 28,-81 38.3845,-78.8991 34.8078,-72.8818"/>
<text text-anchor="middle" x="674.5" y="-51.8" font-family="Times,serif" font-size="14.00" fill="#5b00c0">rw</text>
</g>
</g>
</svg>
