<?xml version="1.0" encoding="UTF-8" standalone="no"?>
<!DOCTYPE svg PUBLIC "-//W3C//DTD SVG 1.1//EN"
 "http://www.w3.org/Graphics/SVG/1.1/DTD/svg11.dtd">
<!-- Generated by graphviz version 2.40.1 (20161225.0304)
 -->
<!-- Title: a_graph Pages: 1 -->
<svg width="1199pt" height="119pt"
 viewBox="0.00 0.00 1199.00 119.00" xmlns="http://www.w3.org/2000/svg" xmlns:xlink="http://www.w3.org/1999/xlink">
<g id="graph0" class="graph" transform="scale(1 1) rotate(0) translate(4 115)">
<title>a_graph</title>
<polygon fill="#ffffff" stroke="transparent" points="-4,4 -4,-115 1195,-115 1195,4 -4,4"/>
<!-- T1791 -->
<g id="node1" class="node">
<title>T1791</title>
<polygon fill="none" stroke="#0058ad" points="0,-81.5 0,-110.5 1191,-110.5 1191,-81.5 0,-81.5"/>
<text text-anchor="middle" x="25" y="-92.3" font-family="Times,serif" font-size="14.00" fill="#0058ad">a 16 4</text>
<polyline fill="none" stroke="#0058ad" points="50,-81.5 50,-110.5 "/>
<text text-anchor="middle" x="75" y="-92.3" font-family="Times,serif" font-size="14.00" fill="#0058ad">a 16 5</text>
<polyline fill="none" stroke="#0058ad" points="100,-81.5 100,-110.5 "/>
<text text-anchor="middle" x="467.5" y="-92.3" font-family="Times,serif" font-size="14.00" fill="#0058ad">r 6 [2 3 4 5 6 7 9 10 11 12 13 14 15 16 17 18 19 20 21 30 31 32 33 34 35 36 37 39 38 40 41 42 43 44 45 46 47 50 51 52 53 54 64]</text>
<polyline fill="none" stroke="#0058ad" points="835,-81.5 835,-110.5 "/>
<text text-anchor="middle" x="1013" y="-92.3" font-family="Times,serif" font-size="14.00" fill="#0058ad">r 5 [1 2 3 4 7 8 9 10 11 12 14 19 20 21 22 23 24 25 26 27 29]</text>
</g>
<!-- T1789 -->
<g id="node2" class="node">
<title>T1789</title>
<polygon fill="none" stroke="#0058ad" points="191.5,-.5 191.5,-29.5 309.5,-29.5 309.5,-.5 191.5,-.5"/>
<text text-anchor="middle" x="216.5" y="-11.3" font-family="Times,serif" font-size="14.00" fill="#0058ad">a 6 65</text>
<polyline fill="none" stroke="#0058ad" points="241.5,-.5 241.5,-29.5 "/>
<text text-anchor="middle" x="275.5" y="-11.3" font-family="Times,serif" font-size="14.00" fill="#0058ad">r 16 [3 6]</text>
</g>
<!-- T1791&#45;&gt;T1789 -->
<g id="edge1" class="edge">
<title>T1791:f2&#45;&gt;T1789:f0</title>
<path fill="none" stroke="#5b00c0" d="M467.5,-81C467.5,29.1665 232.4171,-132.7498 217.2652,-40.1199"/>
<polygon fill="#5b00c0" stroke="#5b00c0" points="220.7441,-39.7076 216.5,-30 213.7641,-40.2355 220.7441,-39.7076"/>
<text text-anchor="middle" x="470" y="-51.8" font-family="Times,serif" font-size="14.00" fill="#5b00c0">rw</text>
</g>
<!-- T1789&#45;&gt;T1791 -->
<g id="edge2" class="edge">
<title>T1789:f1&#45;&gt;T1791:f0</title>
<path fill="none" stroke="#5b00c0" d="M275.5,-30C275.5,-42.6453 77.2758,-61.8547 33.14,-75.9615"/>
<polygon fill="#5b00c0" stroke="#5b00c0" points="31.3753,-72.9389 24.5,-81 34.9016,-78.9858 31.3753,-72.9389"/>
<text text-anchor="middle" x="201" y="-51.8" font-family="Times,serif" font-size="14.00" fill="#5b00c0">rw</text>
</g>
</g>
</svg>
