<?xml version="1.0" encoding="UTF-8" standalone="no"?>
<!DOCTYPE svg PUBLIC "-//W3C//DTD SVG 1.1//EN"
 "http://www.w3.org/Graphics/SVG/1.1/DTD/svg11.dtd">
<!-- Generated by graphviz version 2.40.1 (20161225.0304)
 -->
<!-- Title: a_graph Pages: 1 -->
<svg width="3115pt" height="281pt"
 viewBox="0.00 0.00 3114.50 281.00" xmlns="http://www.w3.org/2000/svg" xmlns:xlink="http://www.w3.org/1999/xlink">
<g id="graph0" class="graph" transform="scale(1 1) rotate(0) translate(4 277)">
<title>a_graph</title>
<polygon fill="#ffffff" stroke="transparent" points="-4,4 -4,-277 3110.5,-277 3110.5,4 -4,4"/>
<!-- T36329 -->
<g id="node1" class="node">
<title>T36329</title>
<polygon fill="none" stroke="#0058ad" points="1744.5,-243.5 1744.5,-272.5 1858.5,-272.5 1858.5,-243.5 1744.5,-243.5"/>
<text text-anchor="middle" x="1769.5" y="-254.3" font-family="Times,serif" font-size="14.00" fill="#0058ad">a 1 45</text>
<polyline fill="none" stroke="#0058ad" points="1794.5,-243.5 1794.5,-272.5 "/>
<text text-anchor="middle" x="1826.5" y="-254.3" font-family="Times,serif" font-size="14.00" fill="#0058ad">a 182 32</text>
</g>
<!-- T36335 -->
<g id="node3" class="node">
<title>T36335</title>
<polygon fill="none" stroke="#0058ad" points="0,-81.5 0,-110.5 2445,-110.5 2445,-81.5 0,-81.5"/>
<text text-anchor="middle" x="635" y="-92.3" font-family="Times,serif" font-size="14.00" fill="#0058ad">r 180 [1 3 4 2 5 6 7 8 9 10 11 12 14 15 16 17 19 20 21 22 23 24 25 26 27 28 30 29 32 31 34 35 36 37 38 39 40 42 43 45 41 46 47 44 48 49 51 52 53 54 50 55 56 57 58 59 60 61 62 63 64 66 67 65 68 69 70 71 72 73 74 75 76 77]</text>
<polyline fill="none" stroke="#0058ad" points="1270,-81.5 1270,-110.5 "/>
<text text-anchor="middle" x="1302" y="-92.3" font-family="Times,serif" font-size="14.00" fill="#0058ad">a 182 34</text>
<polyline fill="none" stroke="#0058ad" points="1334,-81.5 1334,-110.5 "/>
<text text-anchor="middle" x="1544.5" y="-92.3" font-family="Times,serif" font-size="14.00" fill="#0058ad">r 181 [1 2 3 6 7 8 9 10 11 12 13 14 16 18 19 20 21 22 23 25 24 26 27 28]</text>
<polyline fill="none" stroke="#0058ad" points="1755,-81.5 1755,-110.5 "/>
<text text-anchor="middle" x="2100" y="-92.3" font-family="Times,serif" font-size="14.00" fill="#0058ad">r 136 [1 2 3 5 6 7 8 9 10 11 12 13 14 15 16 17 18 19 21 22 23 24 25 26 27 28 29 30 31 32 33 34 35 36 37 38 39 40 41 42]</text>
</g>
<!-- T36329&#45;&gt;T36335 -->
<g id="edge2" class="edge">
<title>T36329&#45;&gt;T36335</title>
<path fill="none" stroke="#0050c0" d="M1744.2701,-255.4372C1606.6385,-248.7126 1265.8648,-228.5126 1230.5,-192 1212.5011,-173.417 1213.3329,-142.2403 1216.8102,-120.4744"/>
<polygon fill="#0050c0" stroke="#0050c0" points="1220.2508,-121.1162 1218.6589,-110.6417 1213.3713,-119.8228 1220.2508,-121.1162"/>
<text text-anchor="middle" x="1235" y="-173.3" font-family="Times,serif" font-size="14.00" fill="#0050c0">rt</text>
</g>
<!-- T36331 -->
<g id="node4" class="node">
<title>T36331</title>
<polygon fill="none" stroke="#0058ad" points="1249,-162.5 1249,-191.5 1858,-191.5 1858,-162.5 1249,-162.5"/>
<text text-anchor="middle" x="1521.5" y="-173.3" font-family="Times,serif" font-size="14.00" fill="#0058ad">r 182 [1 2 4 3 7 8 9 5 6 10 12 13 14 15 11 17 18 16 19 20 22 21 23 24 26 25 27 30 31 28 29 32]</text>
<polyline fill="none" stroke="#0058ad" points="1794,-162.5 1794,-191.5 "/>
<text text-anchor="middle" x="1826" y="-173.3" font-family="Times,serif" font-size="14.00" fill="#0058ad">a 182 33</text>
</g>
<!-- T36329&#45;&gt;T36331 -->
<g id="edge1" class="edge">
<title>T36329:f1&#45;&gt;T36331:f1</title>
<path fill="none" stroke="#c02700" d="M1826.5,-243C1826.5,-224.2292 1826.5,-217.1168 1826.5,-202.3535"/>
<polygon fill="#c02700" stroke="#c02700" points="1830.0001,-202 1826.5,-192 1823.0001,-202 1830.0001,-202"/>
<text text-anchor="middle" x="1836.5" y="-213.8" font-family="Times,serif" font-size="14.00" fill="#c02700">ww</text>
</g>
<!-- T36333 -->
<g id="node2" class="node">
<title>T36333</title>
<polygon fill="none" stroke="#0058ad" points="1986.5,-.5 1986.5,-29.5 3106.5,-29.5 3106.5,-.5 1986.5,-.5"/>
<text text-anchor="middle" x="2018.5" y="-11.3" font-family="Times,serif" font-size="14.00" fill="#0058ad">a 181 29</text>
<polyline fill="none" stroke="#0058ad" points="2050.5,-.5 2050.5,-29.5 "/>
<text text-anchor="middle" x="2314.5" y="-11.3" font-family="Times,serif" font-size="14.00" fill="#0058ad">r 182 [1 2 4 3 7 8 9 5 6 10 12 13 14 15 11 17 18 16 19 20 22 21 23 24 26 25 27 30 31 28 29]</text>
<polyline fill="none" stroke="#0058ad" points="2578.5,-.5 2578.5,-29.5 "/>
<text text-anchor="middle" x="2842.5" y="-11.3" font-family="Times,serif" font-size="14.00" fill="#0058ad">r 182 [1 2 4 3 7 8 9 5 6 10 12 13 14 15 11 17 18 16 19 20 22 21 23 24 26 25 27 30 31 28 29]</text>
</g>
<!-- T36333&#45;&gt;T36329 -->
<g id="edge3" class="edge">
<title>T36333:f1&#45;&gt;T36329:f1</title>
<path fill="none" stroke="#5b00c0" d="M2314.5,-30C2314.5,-95.8048 2415.8258,-27.047 2453.5,-81 2461.1335,-91.9319 2461.72,-100.502 2453.5,-111 2371.5836,-215.6176 2012.8269,-256.0182 1868.8944,-257.9285"/>
<polygon fill="#5b00c0" stroke="#5b00c0" points="1868.4757,-254.4312 1858.5,-258 1868.5239,-261.431 1868.4757,-254.4312"/>
<text text-anchor="middle" x="2442" y="-132.8" font-family="Times,serif" font-size="14.00" fill="#5b00c0">rw</text>
</g>
<!-- T36335&#45;&gt;T36333 -->
<g id="edge4" class="edge">
<title>T36335:f2&#45;&gt;T36333:f0</title>
<path fill="none" stroke="#5b00c0" d="M1544.5,-81C1544.5,-33.866 1898.0087,-16.7459 1976.3804,-15.1287"/>
<polygon fill="#5b00c0" stroke="#5b00c0" points="1976.5453,-18.6269 1986.5,-15 1976.4563,-11.6275 1976.5453,-18.6269"/>
<text text-anchor="middle" x="1619" y="-51.8" font-family="Times,serif" font-size="14.00" fill="#5b00c0">rw</text>
</g>
<!-- T36331&#45;&gt;T36335 -->
<g id="edge5" class="edge">
<title>T36331:f1&#45;&gt;T36335:f1</title>
<path fill="none" stroke="#c02700" d="M1826.5,-162C1826.5,68.4475 1318.2432,-332.5151 1302.8565,-121.1826"/>
<polygon fill="#c02700" stroke="#c02700" points="1306.3479,-120.8714 1302.5,-111 1299.3522,-121.1164 1306.3479,-120.8714"/>
<text text-anchor="middle" x="1834.5" y="-132.8" font-family="Times,serif" font-size="14.00" fill="#c02700">ww</text>
</g>
</g>
</svg>
