<?xml version="1.0" encoding="UTF-8" standalone="no"?>
<!DOCTYPE svg PUBLIC "-//W3C//DTD SVG 1.1//EN"
 "http://www.w3.org/Graphics/SVG/1.1/DTD/svg11.dtd">
<!-- Generated by graphviz version 2.40.1 (20161225.0304)
 -->
<!-- Title: a_graph Pages: 1 -->
<svg width="397pt" height="200pt"
 viewBox="0.00 0.00 397.00 200.00" xmlns="http://www.w3.org/2000/svg" xmlns:xlink="http://www.w3.org/1999/xlink">
<g id="graph0" class="graph" transform="scale(1 1) rotate(0) translate(4 196)">
<title>a_graph</title>
<polygon fill="#ffffff" stroke="transparent" points="-4,4 -4,-196 393,-196 393,4 -4,4"/>
<!-- T32577 -->
<g id="node1" class="node">
<title>T32577</title>
<polygon fill="none" stroke="#0058ad" points="27.5,-162.5 27.5,-191.5 336.5,-191.5 336.5,-162.5 27.5,-162.5"/>
<text text-anchor="middle" x="75.5" y="-173.3" font-family="Times,serif" font-size="14.00" fill="#0058ad">r 166 [1 2 3 4]</text>
<polyline fill="none" stroke="#0058ad" points="123.5,-162.5 123.5,-191.5 "/>
<text text-anchor="middle" x="182" y="-173.3" font-family="Times,serif" font-size="14.00" fill="#0058ad">r 165 [2 3 1 4 5 6]</text>
<polyline fill="none" stroke="#0058ad" points="240.5,-162.5 240.5,-191.5 "/>
<text text-anchor="middle" x="288.5" y="-173.3" font-family="Times,serif" font-size="14.00" fill="#0058ad">r 166 [1 2 3 4]</text>
</g>
<!-- T32579 -->
<g id="node2" class="node">
<title>T32579</title>
<polygon fill="none" stroke="#0058ad" points="125,-81.5 125,-110.5 389,-110.5 389,-81.5 125,-81.5"/>
<text text-anchor="middle" x="153.5" y="-92.3" font-family="Times,serif" font-size="14.00" fill="#0058ad">a 165 7</text>
<polyline fill="none" stroke="#0058ad" points="182,-81.5 182,-110.5 "/>
<text text-anchor="middle" x="219.5" y="-92.3" font-family="Times,serif" font-size="14.00" fill="#0058ad">r 166 [1 2]</text>
<polyline fill="none" stroke="#0058ad" points="257,-81.5 257,-110.5 "/>
<text text-anchor="middle" x="294.5" y="-92.3" font-family="Times,serif" font-size="14.00" fill="#0058ad">r 166 [1 2]</text>
<polyline fill="none" stroke="#0058ad" points="332,-81.5 332,-110.5 "/>
<text text-anchor="middle" x="360.5" y="-92.3" font-family="Times,serif" font-size="14.00" fill="#0058ad">a 163 7</text>
</g>
<!-- T32577&#45;&gt;T32579 -->
<g id="edge1" class="edge">
<title>T32577:f1&#45;&gt;T32579:f0</title>
<path fill="none" stroke="#5b00c0" d="M182,-162C182,-139.7956 160.9704,-137.3334 154.7272,-120.99"/>
<polygon fill="#5b00c0" stroke="#5b00c0" points="158.1526,-120.2575 153,-111 151.2549,-121.4501 158.1526,-120.2575"/>
<text text-anchor="middle" x="181.5" y="-132.8" font-family="Times,serif" font-size="14.00" fill="#5b00c0">rw</text>
</g>
<!-- T32573 -->
<g id="node3" class="node">
<title>T32573</title>
<polygon fill="none" stroke="#0058ad" points="0,-.5 0,-29.5 178,-29.5 178,-.5 0,-.5"/>
<text text-anchor="middle" x="32" y="-11.3" font-family="Times,serif" font-size="14.00" fill="#0058ad">a 132 60</text>
<polyline fill="none" stroke="#0058ad" points="64,-.5 64,-29.5 "/>
<text text-anchor="middle" x="92.5" y="-11.3" font-family="Times,serif" font-size="14.00" fill="#0058ad">a 166 3</text>
<polyline fill="none" stroke="#0058ad" points="121,-.5 121,-29.5 "/>
<text text-anchor="middle" x="149.5" y="-11.3" font-family="Times,serif" font-size="14.00" fill="#0058ad">a 166 4</text>
</g>
<!-- T32579&#45;&gt;T32573 -->
<g id="edge2" class="edge">
<title>T32579:f1&#45;&gt;T32573:f1</title>
<path fill="none" stroke="#5b00c0" d="M219,-81C219,-24.4804 108.7188,-81.9533 94.5028,-40.1281"/>
<polygon fill="#5b00c0" stroke="#5b00c0" points="97.9299,-39.378 93,-30 91.0057,-40.4054 97.9299,-39.378"/>
<text text-anchor="middle" x="219.5" y="-51.8" font-family="Times,serif" font-size="14.00" fill="#5b00c0">rw</text>
</g>
<!-- T32573&#45;&gt;T32577 -->
<g id="edge3" class="edge">
<title>T32573:f2&#45;&gt;T32577:f0</title>
<path fill="none" stroke="#c000a5" d="M150,-30C150,-55.2982 112.5975,-28.9076 96,-48 64.5101,-84.2233 73.4677,-107.1829 74.8395,-151.8122"/>
<polygon fill="#c000a5" stroke="#c000a5" points="71.3428,-152.0564 75,-162 78.342,-151.9461 71.3428,-152.0564"/>
<text text-anchor="middle" x="84.5" y="-92.3" font-family="Times,serif" font-size="14.00" fill="#c000a5">wr</text>
</g>
</g>
</svg>
