<?xml version="1.0" encoding="UTF-8" standalone="no"?>
<!DOCTYPE svg PUBLIC "-//W3C//DTD SVG 1.1//EN"
 "http://www.w3.org/Graphics/SVG/1.1/DTD/svg11.dtd">
<!-- Generated by graphviz version 2.40.1 (20161225.0304)
 -->
<!-- Title: a_graph Pages: 1 -->
<svg width="3412pt" height="119pt"
 viewBox="0.00 0.00 3412.00 119.00" xmlns="http://www.w3.org/2000/svg" xmlns:xlink="http://www.w3.org/1999/xlink">
<g id="graph0" class="graph" transform="scale(1 1) rotate(0) translate(4 115)">
<title>a_graph</title>
<polygon fill="#ffffff" stroke="transparent" points="-4,4 -4,-115 3408,-115 3408,4 -4,4"/>
<!-- T2063 -->
<g id="node1" class="node">
<title>T2063</title>
<polygon fill="none" stroke="#0058ad" points="0,-81.5 0,-110.5 3404,-110.5 3404,-81.5 0,-81.5"/>
<text text-anchor="middle" x="28.5" y="-92.3" font-family="Times,serif" font-size="14.00" fill="#0058ad">a 15 74</text>
<polyline fill="none" stroke="#0058ad" points="57,-81.5 57,-110.5 "/>
<text text-anchor="middle" x="879.5" y="-92.3" font-family="Times,serif" font-size="14.00" fill="#0058ad">r 16 [1 2 3 5 6 7 4 10 11 13 14 17 15 16 18 19 20 21 22 23 24 25 26 27 28 33 34 30 31 32 36 37 38 41 39 42 43 44 49 47 48 53 54 56 57 55 59 60 61 62 58 63 66 64 65 68 69 70 71 72 73 74 75 76 77 78 79 80 81 82 83 84 86 87 85 88 89 90 91 92 93 94 95 96 97 98 99 100 102 103 104 106 107]</text>
<polyline fill="none" stroke="#0058ad" points="1702,-81.5 1702,-110.5 "/>
<text text-anchor="middle" x="2524.5" y="-92.3" font-family="Times,serif" font-size="14.00" fill="#0058ad">r 16 [1 2 3 5 6 7 4 10 11 13 14 17 15 16 18 19 20 21 22 23 24 25 26 27 28 33 34 30 31 32 36 37 38 41 39 42 43 44 49 47 48 53 54 56 57 55 59 60 61 62 58 63 66 64 65 68 69 70 71 72 73 74 75 76 77 78 79 80 81 82 83 84 86 87 85 88 89 90 91 92 93 94 95 96 97 98 99 100 102 103 104 106 107]</text>
<polyline fill="none" stroke="#0058ad" points="3347,-81.5 3347,-110.5 "/>
<text text-anchor="middle" x="3375.5" y="-92.3" font-family="Times,serif" font-size="14.00" fill="#0058ad">a 14 35</text>
</g>
<!-- T2061 -->
<g id="node2" class="node">
<title>T2061</title>
<polygon fill="none" stroke="#0058ad" points="36.5,-.5 36.5,-29.5 2221.5,-29.5 2221.5,-.5 36.5,-.5"/>
<text text-anchor="middle" x="859" y="-11.3" font-family="Times,serif" font-size="14.00" fill="#0058ad">r 16 [1 2 3 5 6 7 4 10 11 13 14 17 15 16 18 19 20 21 22 23 24 25 26 27 28 33 34 30 31 32 36 37 38 41 39 42 43 44 49 47 48 53 54 56 57 55 59 60 61 62 58 63 66 64 65 68 69 70 71 72 73 74 75 76 77 78 79 80 81 82 83 84 86 87 85 88 89 90 91 92 93 94 95 96 97 98 99 100 102 103 104 106 107]</text>
<polyline fill="none" stroke="#0058ad" points="1681.5,-.5 1681.5,-29.5 "/>
<text text-anchor="middle" x="1713.5" y="-11.3" font-family="Times,serif" font-size="14.00" fill="#0058ad">a 16 109</text>
<polyline fill="none" stroke="#0058ad" points="1745.5,-.5 1745.5,-29.5 "/>
<text text-anchor="middle" x="1983.5" y="-11.3" font-family="Times,serif" font-size="14.00" fill="#0058ad">r 14 [1 2 4 5 6 7 8 9 10 11 12 13 14 15 16 18 21 22 23 25 26 28 29 30 31 32 33 34]</text>
</g>
<!-- T2063&#45;&gt;T2061 -->
<g id="edge1" class="edge">
<title>T2063:f1&#45;&gt;T2061:f1</title>
<path fill="none" stroke="#5b00c0" d="M879,-81C879,101.2705 1681.7013,-203.5633 1713.0569,-40.3203"/>
<polygon fill="#5b00c0" stroke="#5b00c0" points="1716.5753,-40.2771 1714,-30 1709.6044,-39.6399 1716.5753,-40.2771"/>
<text text-anchor="middle" x="1718.5" y="-51.8" font-family="Times,serif" font-size="14.00" fill="#5b00c0">rw</text>
</g>
<!-- T2061&#45;&gt;T2063 -->
<g id="edge2" class="edge">
<title>T2061:f2&#45;&gt;T2063:f3</title>
<path fill="none" stroke="#5b00c0" d="M2222,-15C2283.3939,-15 3282.1988,-16.6308 3369.8658,-72.8906"/>
<polygon fill="#5b00c0" stroke="#5b00c0" points="3367.1758,-75.1362 3376,-81 3372.7585,-70.9132 3367.1758,-75.1362"/>
<text text-anchor="middle" x="3339.5" y="-51.8" font-family="Times,serif" font-size="14.00" fill="#5b00c0">rw</text>
</g>
</g>
</svg>
