<?xml version="1.0" encoding="UTF-8" standalone="no"?>
<!DOCTYPE svg PUBLIC "-//W3C//DTD SVG 1.1//EN"
 "http://www.w3.org/Graphics/SVG/1.1/DTD/svg11.dtd">
<!-- Generated by graphviz version 2.40.1 (20161225.0304)
 -->
<!-- Title: a_graph Pages: 1 -->
<svg width="3199pt" height="119pt"
 viewBox="0.00 0.00 3199.00 119.00" xmlns="http://www.w3.org/2000/svg" xmlns:xlink="http://www.w3.org/1999/xlink">
<g id="graph0" class="graph" transform="scale(1 1) rotate(0) translate(4 115)">
<title>a_graph</title>
<polygon fill="#ffffff" stroke="transparent" points="-4,4 -4,-115 3195,-115 3195,4 -4,4"/>
<!-- T19339 -->
<g id="node1" class="node">
<title>T19339</title>
<polygon fill="none" stroke="#0058ad" points="2426,-81.5 2426,-110.5 3191,-110.5 3191,-81.5 2426,-81.5"/>
<text text-anchor="middle" x="2458" y="-92.3" font-family="Times,serif" font-size="14.00" fill="#0058ad">a 96 106</text>
<polyline fill="none" stroke="#0058ad" points="2490,-81.5 2490,-110.5 "/>
<text text-anchor="middle" x="2840.5" y="-92.3" font-family="Times,serif" font-size="14.00" fill="#0058ad">r 100 [1 2 3 4 5 6 8 7 9 10 12 13 14 15 16 18 21 22 23 19 20 24 17 25 26 27 29 28 30 31 32 33 34 36 37 38 39 40 35 42 41]</text>
</g>
<!-- T19340 -->
<g id="node2" class="node">
<title>T19340</title>
<polygon fill="none" stroke="#0058ad" points="0,-.5 0,-29.5 3173,-29.5 3173,-.5 0,-.5"/>
<text text-anchor="middle" x="350.5" y="-11.3" font-family="Times,serif" font-size="14.00" fill="#0058ad">r 100 [1 2 3 4 5 6 8 7 9 10 12 13 14 15 16 18 21 22 23 19 20 24 17 25 26 27 29 28 30 31 32 33 34 36 37 38 39 40 35 42 41]</text>
<polyline fill="none" stroke="#0058ad" points="701,-.5 701,-29.5 "/>
<text text-anchor="middle" x="1554.5" y="-11.3" font-family="Times,serif" font-size="14.00" fill="#0058ad">r 96 [1 3 4 5 6 7 8 10 9 11 12 13 14 15 16 17 18 19 20 21 22 23 24 26 28 29 31 30 32 33 34 35 36 37 38 39 40 42 43 44 45 46 47 48 49 50 51 52 53 54 55 56 57 58 59 60 61 62 63 65 66 67 68 70 71 72 74 75 76 78 79 77 80 81 82 83 84 85 86 87 89 90 91 92 93 94 97 96 98 95 99 100 101 102 104 105 103]</text>
<polyline fill="none" stroke="#0058ad" points="2408,-.5 2408,-29.5 "/>
<text text-anchor="middle" x="2758.5" y="-11.3" font-family="Times,serif" font-size="14.00" fill="#0058ad">r 100 [1 2 3 4 5 6 8 7 9 10 12 13 14 15 16 18 21 22 23 19 20 24 17 25 26 27 29 28 30 31 32 33 34 36 37 38 39 40 35 42 41]</text>
<polyline fill="none" stroke="#0058ad" points="3109,-.5 3109,-29.5 "/>
<text text-anchor="middle" x="3141" y="-11.3" font-family="Times,serif" font-size="14.00" fill="#0058ad">a 100 43</text>
</g>
<!-- T19339&#45;&gt;T19340 -->
<g id="edge1" class="edge">
<title>T19339:f1&#45;&gt;T19340:f3</title>
<path fill="none" stroke="#5b00c0" d="M2840.5,-81C2840.5,51.1068 3125.8362,-154.311 3140.8832,-40.0033"/>
<polygon fill="#5b00c0" stroke="#5b00c0" points="3144.3779,-40.1965 3141.5,-30 3137.3912,-39.7656 3144.3779,-40.1965"/>
<text text-anchor="middle" x="3145" y="-51.8" font-family="Times,serif" font-size="14.00" fill="#5b00c0">rw</text>
</g>
<!-- T19340&#45;&gt;T19339 -->
<g id="edge2" class="edge">
<title>T19340:f1&#45;&gt;T19339:f0</title>
<path fill="none" stroke="#5b00c0" d="M1554.5,-30C1554.5,-76.4898 2309.3479,-94.4778 2415.4107,-95.9066"/>
<polygon fill="#5b00c0" stroke="#5b00c0" points="2415.468,-99.4071 2425.5,-96 2415.5329,-92.4074 2415.468,-99.4071"/>
<text text-anchor="middle" x="1700" y="-51.8" font-family="Times,serif" font-size="14.00" fill="#5b00c0">rw</text>
</g>
</g>
</svg>
