<?xml version="1.0" encoding="UTF-8" standalone="no"?>
<!DOCTYPE svg PUBLIC "-//W3C//DTD SVG 1.1//EN"
 "http://www.w3.org/Graphics/SVG/1.1/DTD/svg11.dtd">
<!-- Generated by graphviz version 2.40.1 (20161225.0304)
 -->
<!-- Title: a_graph Pages: 1 -->
<svg width="4148pt" height="200pt"
 viewBox="0.00 0.00 4148.00 200.00" xmlns="http://www.w3.org/2000/svg" xmlns:xlink="http://www.w3.org/1999/xlink">
<g id="graph0" class="graph" transform="scale(1 1) rotate(0) translate(4 196)">
<title>a_graph</title>
<polygon fill="#ffffff" stroke="transparent" points="-4,4 -4,-196 4144,-196 4144,4 -4,4"/>
<!-- T33883 -->
<g id="node1" class="node">
<title>T33883</title>
<polygon fill="none" stroke="#0058ad" points="0,-162.5 0,-191.5 2219,-191.5 2219,-162.5 0,-162.5"/>
<text text-anchor="middle" x="367.5" y="-173.3" font-family="Times,serif" font-size="14.00" fill="#0058ad">r 170 [1 2 3 4 6 7 8 9 5 13 10 11 12 15 14 16 17 18 19 20 21 22 23 24 25 26 27 29 30 28 31 32 33 35 36 37 38 39 40 41 34 42 43]</text>
<polyline fill="none" stroke="#0058ad" points="735,-162.5 735,-191.5 "/>
<text text-anchor="middle" x="767" y="-173.3" font-family="Times,serif" font-size="14.00" fill="#0058ad">a 170 44</text>
<polyline fill="none" stroke="#0058ad" points="799,-162.5 799,-191.5 "/>
<text text-anchor="middle" x="1477" y="-173.3" font-family="Times,serif" font-size="14.00" fill="#0058ad">r 168 [1 2 4 3 5 6 7 8 10 11 9 12 13 14 16 15 17 19 20 18 21 22 23 25 26 27 28 29 30 24 31 32 33 34 35 36 39 38 40 41 42 43 44 45 46 47 48 49 50 51 52 53 54 55 56 57 58 59 60 61 63 62 64 65 66 67 68 69 70 71 72 74 73 76 75 77 78 79 80]</text>
<polyline fill="none" stroke="#0058ad" points="2155,-162.5 2155,-191.5 "/>
<text text-anchor="middle" x="2187" y="-173.3" font-family="Times,serif" font-size="14.00" fill="#0058ad">a 170 45</text>
</g>
<!-- T33881 -->
<g id="node3" class="node">
<title>T33881</title>
<polygon fill="none" stroke="#0058ad" points="1285,-81.5 1285,-110.5 4140,-110.5 4140,-81.5 1285,-81.5"/>
<text text-anchor="middle" x="1317" y="-92.3" font-family="Times,serif" font-size="14.00" fill="#0058ad">a 168 81</text>
<polyline fill="none" stroke="#0058ad" points="1349,-81.5 1349,-110.5 "/>
<text text-anchor="middle" x="1384.5" y="-92.3" font-family="Times,serif" font-size="14.00" fill="#0058ad">a 163 118</text>
<polyline fill="none" stroke="#0058ad" points="1420,-81.5 1420,-110.5 "/>
<text text-anchor="middle" x="1770.5" y="-92.3" font-family="Times,serif" font-size="14.00" fill="#0058ad">r 170 [1 2 3 4 6 7 8 9 5 13 10 11 12 15 14 16 17 18 19 20 21 22 23 24 25 26 27 29 30 28 31 32 33 35 36 37 38 39 40 41 34]</text>
<polyline fill="none" stroke="#0058ad" points="2121,-81.5 2121,-110.5 "/>
<text text-anchor="middle" x="3130.5" y="-92.3" font-family="Times,serif" font-size="14.00" fill="#0058ad">r 163 [1 2 3 4 5 6 7 8 9 10 11 12 13 14 16 15 17 18 19 20 22 23 24 25 26 28 29 30 31 32 33 34 35 37 36 38 39 40 41 42 43 44 47 45 46 48 49 51 52 54 55 56 58 57 59 60 62 61 63 65 66 67 68 69 70 71 72 73 74 75 76 77 78 80 79 81 82 83 84 85 87 88 89 92 93 94 95 96 97 98 99 100 101 102 103 104 105 106 107 109 108 110 112 111 113 114 115 116 117 118]</text>
</g>
<!-- T33883&#45;&gt;T33881 -->
<g id="edge1" class="edge">
<title>T33883:f2&#45;&gt;T33881:f0</title>
<path fill="none" stroke="#5b00c0" d="M1477.5,-162C1477.5,-90.7518 1332.4364,-176.4421 1317.7034,-121.133"/>
<polygon fill="#5b00c0" stroke="#5b00c0" points="1321.1549,-120.5174 1316.5,-111 1314.2038,-121.343 1321.1549,-120.5174"/>
<text text-anchor="middle" x="1478" y="-132.8" font-family="Times,serif" font-size="14.00" fill="#5b00c0">rw</text>
</g>
<!-- T33879 -->
<g id="node2" class="node">
<title>T33879</title>
<polygon fill="none" stroke="#0058ad" points="680.5,-.5 680.5,-29.5 1590.5,-29.5 1590.5,-.5 680.5,-.5"/>
<text text-anchor="middle" x="712.5" y="-11.3" font-family="Times,serif" font-size="14.00" fill="#0058ad">a 170 42</text>
<polyline fill="none" stroke="#0058ad" points="744.5,-.5 744.5,-29.5 "/>
<text text-anchor="middle" x="1103.5" y="-11.3" font-family="Times,serif" font-size="14.00" fill="#0058ad">r 170 [1 2 3 4 6 7 8 9 5 13 10 11 12 15 14 16 17 18 19 20 21 22 23 24 25 26 27 29 30 28 31 32 33 35 36 37 38 39 40 41 34 42]</text>
<polyline fill="none" stroke="#0058ad" points="1462.5,-.5 1462.5,-29.5 "/>
<text text-anchor="middle" x="1494.5" y="-11.3" font-family="Times,serif" font-size="14.00" fill="#0058ad">a 170 43</text>
<polyline fill="none" stroke="#0058ad" points="1526.5,-.5 1526.5,-29.5 "/>
<text text-anchor="middle" x="1558.5" y="-11.3" font-family="Times,serif" font-size="14.00" fill="#0058ad">a 132 68</text>
</g>
<!-- T33879&#45;&gt;T33883 -->
<g id="edge2" class="edge">
<title>T33879:f2&#45;&gt;T33883:f1</title>
<path fill="none" stroke="#c02700" d="M1494.5,-30C1494.5,-51.9117 1122.0286,-43.9202 1100.5,-48 949.8513,-76.549 774.568,-8.3329 766.7699,-151.7735"/>
<polygon fill="#c02700" stroke="#c02700" points="763.2652,-151.9111 766.5,-162 770.2627,-152.0959 763.2652,-151.9111"/>
<text text-anchor="middle" x="808.5" y="-92.3" font-family="Times,serif" font-size="14.00" fill="#c02700">ww</text>
</g>
<!-- T33881&#45;&gt;T33879 -->
<g id="edge3" class="edge">
<title>T33881:f2&#45;&gt;T33879:f0</title>
<path fill="none" stroke="#5b00c0" d="M1770.5,-81C1770.5,68.0694 1249.3992,-55.1208 1100.5,-48 1080.9245,-47.0638 776.8709,-50.78 721.2135,-35.3052"/>
<polygon fill="#5b00c0" stroke="#5b00c0" points="722.8616,-32.2109 712.5,-30 719.2213,-38.1899 722.8616,-32.2109"/>
<text text-anchor="middle" x="1772" y="-51.8" font-family="Times,serif" font-size="14.00" fill="#5b00c0">rw</text>
</g>
</g>
</svg>
