<?xml version="1.0" encoding="UTF-8" standalone="no"?>
<!DOCTYPE svg PUBLIC "-//W3C//DTD SVG 1.1//EN"
 "http://www.w3.org/Graphics/SVG/1.1/DTD/svg11.dtd">
<!-- Generated by graphviz version 2.40.1 (20161225.0304)
 -->
<!-- Title: a_graph Pages: 1 -->
<svg width="1605pt" height="119pt"
 viewBox="0.00 0.00 1605.00 119.00" xmlns="http://www.w3.org/2000/svg" xmlns:xlink="http://www.w3.org/1999/xlink">
<g id="graph0" class="graph" transform="scale(1 1) rotate(0) translate(4 115)">
<title>a_graph</title>
<polygon fill="#ffffff" stroke="transparent" points="-4,4 -4,-115 1601,-115 1601,4 -4,4"/>
<!-- T34535 -->
<g id="node1" class="node">
<title>T34535</title>
<polygon fill="none" stroke="#0058ad" points="0,-81.5 0,-110.5 1597,-110.5 1597,-81.5 0,-81.5"/>
<text text-anchor="middle" x="385" y="-92.3" font-family="Times,serif" font-size="14.00" fill="#0058ad">r 173 [2 3 4 1 5 6 7 8 9 11 10 13 14 12 15 16 17 18 19 20 21 22 23 24 25 26 27 28 29 31 32 30 33 34 35 36 38 39 37 40 41 43 42 44 45]</text>
<polyline fill="none" stroke="#0058ad" points="770,-81.5 770,-110.5 "/>
<text text-anchor="middle" x="798.5" y="-92.3" font-family="Times,serif" font-size="14.00" fill="#0058ad">a 174 3</text>
<polyline fill="none" stroke="#0058ad" points="827,-81.5 827,-110.5 "/>
<text text-anchor="middle" x="1212" y="-92.3" font-family="Times,serif" font-size="14.00" fill="#0058ad">r 173 [2 3 4 1 5 6 7 8 9 11 10 13 14 12 15 16 17 18 19 20 21 22 23 24 25 26 27 28 29 31 32 30 33 34 35 36 38 39 37 40 41 43 42 44 45]</text>
</g>
<!-- T34539 -->
<g id="node2" class="node">
<title>T34539</title>
<polygon fill="none" stroke="#0058ad" points="396,-.5 396,-29.5 653,-29.5 653,-.5 396,-.5"/>
<text text-anchor="middle" x="428" y="-11.3" font-family="Times,serif" font-size="14.00" fill="#0058ad">a 171 24</text>
<polyline fill="none" stroke="#0058ad" points="460,-.5 460,-29.5 "/>
<text text-anchor="middle" x="492" y="-11.3" font-family="Times,serif" font-size="14.00" fill="#0058ad">a 173 48</text>
<polyline fill="none" stroke="#0058ad" points="524,-.5 524,-29.5 "/>
<text text-anchor="middle" x="556" y="-11.3" font-family="Times,serif" font-size="14.00" fill="#0058ad">a 171 25</text>
<polyline fill="none" stroke="#0058ad" points="588,-.5 588,-29.5 "/>
<text text-anchor="middle" x="620.5" y="-11.3" font-family="Times,serif" font-size="14.00" fill="#0058ad">r 174 [1]</text>
</g>
<!-- T34535&#45;&gt;T34539 -->
<g id="edge1" class="edge">
<title>T34535:f0&#45;&gt;T34539:f1</title>
<path fill="none" stroke="#5b00c0" d="M384.5,-81C384.5,-32.2287 476.2066,-75.2014 489.8193,-40.0484"/>
<polygon fill="#5b00c0" stroke="#5b00c0" points="493.3023,-40.4404 491.5,-30 486.3982,-39.2856 493.3023,-40.4404"/>
<text text-anchor="middle" x="490" y="-51.8" font-family="Times,serif" font-size="14.00" fill="#5b00c0">rw</text>
</g>
<!-- T34539&#45;&gt;T34535 -->
<g id="edge2" class="edge">
<title>T34539:f3&#45;&gt;T34535:f1</title>
<path fill="none" stroke="#5b00c0" d="M653.5,-15C685.5841,-15 778.6027,-40.1289 795.7617,-71.1908"/>
<polygon fill="#5b00c0" stroke="#5b00c0" points="792.44,-72.3094 798.5,-81 799.1822,-70.4272 792.44,-72.3094"/>
<text text-anchor="middle" x="796" y="-51.8" font-family="Times,serif" font-size="14.00" fill="#5b00c0">rw</text>
</g>
</g>
</svg>
