<?xml version="1.0" encoding="UTF-8" standalone="no"?>
<!DOCTYPE svg PUBLIC "-//W3C//DTD SVG 1.1//EN"
 "http://www.w3.org/Graphics/SVG/1.1/DTD/svg11.dtd">
<!-- Generated by graphviz version 2.40.1 (20161225.0304)
 -->
<!-- Title: a_graph Pages: 1 -->
<svg width="4466pt" height="119pt"
 viewBox="0.00 0.00 4465.50 119.00" xmlns="http://www.w3.org/2000/svg" xmlns:xlink="http://www.w3.org/1999/xlink">
<g id="graph0" class="graph" transform="scale(1 1) rotate(0) translate(4 115)">
<title>a_graph</title>
<polygon fill="#ffffff" stroke="transparent" points="-4,4 -4,-115 4461.5,-115 4461.5,4 -4,4"/>
<!-- T6917 -->
<g id="node1" class="node">
<title>T6917</title>
<polygon fill="none" stroke="#0058ad" points="0,-81.5 0,-110.5 3621,-110.5 3621,-81.5 0,-81.5"/>
<text text-anchor="middle" x="491.5" y="-92.3" font-family="Times,serif" font-size="14.00" fill="#0058ad">r 39 [3 5 6 4 8 9 10 11 7 12 13 14 15 17 16 18 19 20 21 22 23 24 26 27 29 31 25 36 37 38 39 35 44 45 48 46 47 49 50 51 52 53 54 55 56 57 58 59 60 61 62 65 66 68 69 70 71]</text>
<polyline fill="none" stroke="#0058ad" points="983,-81.5 983,-110.5 "/>
<text text-anchor="middle" x="1474.5" y="-92.3" font-family="Times,serif" font-size="14.00" fill="#0058ad">r 39 [3 5 6 4 8 9 10 11 7 12 13 14 15 17 16 18 19 20 21 22 23 24 26 27 29 31 25 36 37 38 39 35 44 45 48 46 47 49 50 51 52 53 54 55 56 57 58 59 60 61 62 65 66 68 69 70 71]</text>
<polyline fill="none" stroke="#0058ad" points="1966,-81.5 1966,-110.5 "/>
<text text-anchor="middle" x="1994.5" y="-92.3" font-family="Times,serif" font-size="14.00" fill="#0058ad">a 39 72</text>
<polyline fill="none" stroke="#0058ad" points="2023,-81.5 2023,-110.5 "/>
<text text-anchor="middle" x="2822" y="-92.3" font-family="Times,serif" font-size="14.00" fill="#0058ad">r 37 [1 2 3 4 5 6 7 8 11 12 13 9 10 14 15 16 17 18 19 20 21 22 23 24 25 26 27 28 29 30 31 32 33 34 35 37 36 39 40 38 41 42 43 44 46 47 48 45 49 50 51 52 53 54 55 56 57 58 59 60 61 62 64 63 65 66 67 69 71 68 72 73 74 75 76 77 78 80 81 82 83 84 86 87 88 89 94 95 96 97 98 99 101]</text>
</g>
<!-- T6918 -->
<g id="node2" class="node">
<title>T6918</title>
<polygon fill="none" stroke="#0058ad" points="1731.5,-.5 1731.5,-29.5 4457.5,-29.5 4457.5,-.5 1731.5,-.5"/>
<text text-anchor="middle" x="2223" y="-11.3" font-family="Times,serif" font-size="14.00" fill="#0058ad">r 39 [3 5 6 4 8 9 10 11 7 12 13 14 15 17 16 18 19 20 21 22 23 24 26 27 29 31 25 36 37 38 39 35 44 45 48 46 47 49 50 51 52 53 54 55 56 57 58 59 60 61 62 65 66 68 69 70 71]</text>
<polyline fill="none" stroke="#0058ad" points="2714.5,-.5 2714.5,-29.5 "/>
<text text-anchor="middle" x="2746.5" y="-11.3" font-family="Times,serif" font-size="14.00" fill="#0058ad">a 37 102</text>
<polyline fill="none" stroke="#0058ad" points="2778.5,-.5 2778.5,-29.5 "/>
<text text-anchor="middle" x="2807" y="-11.3" font-family="Times,serif" font-size="14.00" fill="#0058ad">a 34 27</text>
<polyline fill="none" stroke="#0058ad" points="2835.5,-.5 2835.5,-29.5 "/>
<text text-anchor="middle" x="3646.5" y="-11.3" font-family="Times,serif" font-size="14.00" fill="#0058ad">r 37 [1 2 3 4 5 6 7 8 11 12 13 9 10 14 15 16 17 18 19 20 21 22 23 24 25 26 27 28 29 30 31 32 33 34 35 37 36 39 40 38 41 42 43 44 46 47 48 45 49 50 51 52 53 54 55 56 57 58 59 60 61 62 64 63 65 66 67 69 71 68 72 73 74 75 76 77 78 80 81 82 83 84 86 87 88 89 94 95 96 97 98 99 101 102]</text>
</g>
<!-- T6917&#45;&gt;T6918 -->
<g id="edge1" class="edge">
<title>T6917:f3&#45;&gt;T6918:f1</title>
<path fill="none" stroke="#5b00c0" d="M2822.5,-81C2822.5,-44.2943 2760.619,-65.4267 2748.5328,-40.0174"/>
<polygon fill="#5b00c0" stroke="#5b00c0" points="2751.9189,-39.1042 2746.5,-30 2745.0587,-40.4963 2751.9189,-39.1042"/>
<text text-anchor="middle" x="2820" y="-51.8" font-family="Times,serif" font-size="14.00" fill="#5b00c0">rw</text>
</g>
<!-- T6918&#45;&gt;T6917 -->
<g id="edge2" class="edge">
<title>T6918:f0&#45;&gt;T6917:f2</title>
<path fill="none" stroke="#5b00c0" d="M2222.5,-30C2222.5,-130.1869 2010.2495,12.1433 1995.3256,-70.9917"/>
<polygon fill="#5b00c0" stroke="#5b00c0" points="1991.834,-70.7461 1994.5,-81 1998.8104,-71.3216 1991.834,-70.7461"/>
<text text-anchor="middle" x="2226" y="-51.8" font-family="Times,serif" font-size="14.00" fill="#5b00c0">rw</text>
</g>
</g>
</svg>
