<?xml version="1.0" encoding="UTF-8" standalone="no"?>
<!DOCTYPE svg PUBLIC "-//W3C//DTD SVG 1.1//EN"
 "http://www.w3.org/Graphics/SVG/1.1/DTD/svg11.dtd">
<!-- Generated by graphviz version 2.40.1 (20161225.0304)
 -->
<!-- Title: a_graph Pages: 1 -->
<svg width="2827pt" height="200pt"
 viewBox="0.00 0.00 2827.00 200.00" xmlns="http://www.w3.org/2000/svg" xmlns:xlink="http://www.w3.org/1999/xlink">
<g id="graph0" class="graph" transform="scale(1 1) rotate(0) translate(4 196)">
<title>a_graph</title>
<polygon fill="#ffffff" stroke="transparent" points="-4,4 -4,-196 2823,-196 2823,4 -4,4"/>
<!-- T33143 -->
<g id="node1" class="node">
<title>T33143</title>
<polygon fill="none" stroke="#0058ad" points="1063,-162.5 1063,-191.5 1255,-191.5 1255,-162.5 1063,-162.5"/>
<text text-anchor="middle" x="1095" y="-173.3" font-family="Times,serif" font-size="14.00" fill="#0058ad">a 136 28</text>
<polyline fill="none" stroke="#0058ad" points="1127,-162.5 1127,-191.5 "/>
<text text-anchor="middle" x="1159" y="-173.3" font-family="Times,serif" font-size="14.00" fill="#0058ad">a 167 61</text>
<polyline fill="none" stroke="#0058ad" points="1191,-162.5 1191,-191.5 "/>
<text text-anchor="middle" x="1223" y="-173.3" font-family="Times,serif" font-size="14.00" fill="#0058ad">a 167 62</text>
</g>
<!-- T33145 -->
<g id="node3" class="node">
<title>T33145</title>
<polygon fill="none" stroke="#0058ad" points="101,-81.5 101,-110.5 2819,-110.5 2819,-81.5 101,-81.5"/>
<text text-anchor="middle" x="954.5" y="-92.3" font-family="Times,serif" font-size="14.00" fill="#0058ad">r 165 [2 3 1 4 5 6 7 8 9 10 12 13 11 14 15 17 16 18 19 20 21 22 25 29 30 31 32 34 35 36 37 39 38 40 41 42 43 44 46 47 48 49 50 51 52 53 54 55 56 57 58 59 60 61 62 63 65 66 64 67 68 69 70 71 72 73 74 75 78 79 76 77 80 81 82 83 84 85 86 87 88 89 90 91 92 93 95 96 94 98 99 100 101 103 104 102 105]</text>
<polyline fill="none" stroke="#0058ad" points="1808,-81.5 1808,-110.5 "/>
<text text-anchor="middle" x="2313.5" y="-92.3" font-family="Times,serif" font-size="14.00" fill="#0058ad">r 167 [1 2 3 4 6 7 5 9 10 8 11 12 13 14 15 16 18 19 17 22 23 24 20 21 26 27 28 29 30 31 32 33 34 35 36 37 38 39 40 41 42 43 44 45 46 25 50 51 47 48 53 56 57 58 59 54 55 61 62]</text>
</g>
<!-- T33143&#45;&gt;T33145 -->
<g id="edge1" class="edge">
<title>T33143:f2&#45;&gt;T33145:f1</title>
<path fill="none" stroke="#c000a5" d="M1255,-177C1311.1843,-177 2222.3129,-170.5932 2307.6078,-118.952"/>
<polygon fill="#c000a5" stroke="#c000a5" points="2310.4627,-120.9869 2314,-111 2305.0068,-116.6012 2310.4627,-120.9869"/>
<text text-anchor="middle" x="2281.5" y="-132.8" font-family="Times,serif" font-size="14.00" fill="#c000a5">wr</text>
</g>
<!-- T33147 -->
<g id="node2" class="node">
<title>T33147</title>
<polygon fill="none" stroke="#0058ad" points="0,-.5 0,-29.5 1048,-29.5 1048,-.5 0,-.5"/>
<text text-anchor="middle" x="35.5" y="-11.3" font-family="Times,serif" font-size="14.00" fill="#0058ad">a 165 106</text>
<polyline fill="none" stroke="#0058ad" points="71,-.5 71,-29.5 "/>
<text text-anchor="middle" x="559.5" y="-11.3" font-family="Times,serif" font-size="14.00" fill="#0058ad">r 167 [1 2 3 4 6 7 5 9 10 8 11 12 13 14 15 16 18 19 17 22 23 24 20 21 26 27 28 29 30 31 32 33 34 35 36 37 38 39 40 41 42 43 44 45 46 25 50 51 47 48 53 56 57 58 59 54 55]</text>
</g>
<!-- T33147&#45;&gt;T33143 -->
<g id="edge2" class="edge">
<title>T33147:f1&#45;&gt;T33143:f1</title>
<path fill="none" stroke="#5b00c0" d="M560,-30C560,-56.5744 101.8197,-30.2975 82,-48 61.0514,-66.7108 57.612,-90.6766 77,-111 157.6428,-195.5334 1101.2554,-50.6017 1156.476,-152.1215"/>
<polygon fill="#5b00c0" stroke="#5b00c0" points="1153.1333,-153.1777 1159,-162 1159.9155,-151.4448 1153.1333,-153.1777"/>
<text text-anchor="middle" x="84.5" y="-92.3" font-family="Times,serif" font-size="14.00" fill="#5b00c0">rw</text>
</g>
<!-- T33145&#45;&gt;T33147 -->
<g id="edge3" class="edge">
<title>T33145:f0&#45;&gt;T33147:f0</title>
<path fill="none" stroke="#5b00c0" d="M101,-96C78.0562,-96 98.314,-64.1329 82,-48 69.5743,-35.7122 47.8772,-45.2904 38.9794,-39.4027"/>
<polygon fill="#5b00c0" stroke="#5b00c0" points="42.1208,-37.8451 35,-30 35.6743,-40.5734 42.1208,-37.8451"/>
<text text-anchor="middle" x="95.5" y="-51.8" font-family="Times,serif" font-size="14.00" fill="#5b00c0">rw</text>
</g>
</g>
</svg>
