<?xml version="1.0" encoding="UTF-8" standalone="no"?>
<!DOCTYPE svg PUBLIC "-//W3C//DTD SVG 1.1//EN"
 "http://www.w3.org/Graphics/SVG/1.1/DTD/svg11.dtd">
<!-- Generated by graphviz version 2.40.1 (20161225.0304)
 -->
<!-- Title: a_graph Pages: 1 -->
<svg width="4290pt" height="119pt"
 viewBox="0.00 0.00 4290.00 119.00" xmlns="http://www.w3.org/2000/svg" xmlns:xlink="http://www.w3.org/1999/xlink">
<g id="graph0" class="graph" transform="scale(1 1) rotate(0) translate(4 115)">
<title>a_graph</title>
<polygon fill="#ffffff" stroke="transparent" points="-4,4 -4,-115 4286,-115 4286,4 -4,4"/>
<!-- T2794 -->
<g id="node1" class="node">
<title>T2794</title>
<polygon fill="none" stroke="#0058ad" points="1734,-81.5 1734,-110.5 4282,-110.5 4282,-81.5 1734,-81.5"/>
<text text-anchor="middle" x="1762.5" y="-92.3" font-family="Times,serif" font-size="14.00" fill="#0058ad">a 19 80</text>
<polyline fill="none" stroke="#0058ad" points="1791,-81.5 1791,-110.5 "/>
<text text-anchor="middle" x="2396.5" y="-92.3" font-family="Times,serif" font-size="14.00" fill="#0058ad">r 18 [1 2 3 4 5 6 7 8 9 11 12 13 17 14 15 18 19 20 21 24 23 25 22 28 29 30 31 32 26 34 35 36 33 38 37 39 41 40 43 42 45 44 46 47 48 50 49 51 55 53 54 56 57 58 60 61 59 62 63 65 64 66 67 68 69 70 71 72 73 74 75]</text>
<polyline fill="none" stroke="#0058ad" points="3002,-81.5 3002,-110.5 "/>
<text text-anchor="middle" x="3642" y="-92.3" font-family="Times,serif" font-size="14.00" fill="#0058ad">r 19 [4 2 3 5 6 7 8 9 10 1 11 12 13 14 15 16 17 18 19 20 22 21 23 24 27 25 28 26 31 32 33 29 30 34 36 37 35 39 41 40 44 42 46 45 48 51 49 52 50 53 54 55 56 57 58 59 60 61 62 63 64 65 66 68 67 69 71 72 73 70 74 75 78 79 80]</text>
</g>
<!-- T2791 -->
<g id="node2" class="node">
<title>T2791</title>
<polygon fill="none" stroke="#0058ad" points="0,-.5 0,-29.5 3248,-29.5 3248,-.5 0,-.5"/>
<text text-anchor="middle" x="860.5" y="-11.3" font-family="Times,serif" font-size="14.00" fill="#0058ad">r 6 [2 3 4 5 6 7 8 9 10 11 12 13 14 15 16 17 18 20 21 22 23 24 25 26 27 28 29 30 31 32 33 37 38 39 41 42 43 45 46 47 49 50 51 52 53 54 55 57 56 58 59 60 62 63 64 65 66 67 68 69 70 72 73 74 75 76 77 78 79 80 81 82 83 85 84 86 87 88 89 90 91 92 93 94 96 97 98 99 100 101 102 104 105 106 107 108 109]</text>
<polyline fill="none" stroke="#0058ad" points="1721,-.5 1721,-29.5 "/>
<text text-anchor="middle" x="1749.5" y="-11.3" font-family="Times,serif" font-size="14.00" fill="#0058ad">a 18 76</text>
<polyline fill="none" stroke="#0058ad" points="1778,-.5 1778,-29.5 "/>
<text text-anchor="middle" x="2409.5" y="-11.3" font-family="Times,serif" font-size="14.00" fill="#0058ad">r 19 [4 2 3 5 6 7 8 9 10 1 11 12 13 14 15 16 17 18 19 20 22 21 23 24 27 25 28 26 31 32 33 29 30 34 36 37 35 39 41 40 44 42 46 45 48 51 49 52 50 53 54 55 56 57 58 59 60 61 62 63 64 65 66 68 67 69 71 72 73 70 74 75 78 79]</text>
<polyline fill="none" stroke="#0058ad" points="3041,-.5 3041,-29.5 "/>
<text text-anchor="middle" x="3144.5" y="-11.3" font-family="Times,serif" font-size="14.00" fill="#0058ad">r 3 [2 3 4 5 6 8 10 11 12 13 14 15]</text>
</g>
<!-- T2794&#45;&gt;T2791 -->
<g id="edge1" class="edge">
<title>T2794:f1&#45;&gt;T2791:f1</title>
<path fill="none" stroke="#5b00c0" d="M2396,-81C2396,-64.2829 1838.8224,-50.1541 1759.3811,-33.8061"/>
<polygon fill="#5b00c0" stroke="#5b00c0" points="1760.5823,-30.5164 1750,-30 1757.9505,-37.0029 1760.5823,-30.5164"/>
<text text-anchor="middle" x="2213.5" y="-51.8" font-family="Times,serif" font-size="14.00" fill="#5b00c0">rw</text>
</g>
<!-- T2791&#45;&gt;T2794 -->
<g id="edge2" class="edge">
<title>T2791:f2&#45;&gt;T2794:f0</title>
<path fill="none" stroke="#5b00c0" d="M2410,-30C2410,-113.5201 2308.0363,-54.0231 2225,-63 2201.5069,-65.5398 1830.991,-56.8931 1770.3613,-75.3696"/>
<polygon fill="#5b00c0" stroke="#5b00c0" points="1768.3398,-72.5113 1762,-81 1772.2497,-78.3176 1768.3398,-72.5113"/>
<text text-anchor="middle" x="2415.5" y="-51.8" font-family="Times,serif" font-size="14.00" fill="#5b00c0">rw</text>
</g>
</g>
</svg>
