<?xml version="1.0" encoding="UTF-8" standalone="no"?>
<!DOCTYPE svg PUBLIC "-//W3C//DTD SVG 1.1//EN"
 "http://www.w3.org/Graphics/SVG/1.1/DTD/svg11.dtd">
<!-- Generated by graphviz version 2.40.1 (20161225.0304)
 -->
<!-- Title: a_graph Pages: 1 -->
<svg width="2696pt" height="119pt"
 viewBox="0.00 0.00 2695.50 119.00" xmlns="http://www.w3.org/2000/svg" xmlns:xlink="http://www.w3.org/1999/xlink">
<g id="graph0" class="graph" transform="scale(1 1) rotate(0) translate(4 115)">
<title>a_graph</title>
<polygon fill="#ffffff" stroke="transparent" points="-4,4 -4,-115 2691.5,-115 2691.5,4 -4,4"/>
<!-- T14073 -->
<g id="node1" class="node">
<title>T14073</title>
<polygon fill="none" stroke="#0058ad" points="0,-81.5 0,-110.5 2654,-110.5 2654,-81.5 0,-81.5"/>
<text text-anchor="middle" x="545.5" y="-92.3" font-family="Times,serif" font-size="14.00" fill="#0058ad">r 69 [1 2 3 4 5 6 7 8 9 11 12 14 13 15 16 17 18 19 20 21 22 23 24 25 26 27 28 30 29 31 32 35 36 37 38 39 40 41 42 43 44 45 46 47 48 50 51 52 56 57 58 59 60 61 62 63 64 66 67 68 69 70 71 72]</text>
<polyline fill="none" stroke="#0058ad" points="1091,-81.5 1091,-110.5 "/>
<text text-anchor="middle" x="1815.5" y="-92.3" font-family="Times,serif" font-size="14.00" fill="#0058ad">r 72 [5 6 7 3 4 8 9 10 11 12 13 14 15 16 17 18 20 19 22 23 21 24 25 26 27 29 30 31 32 33 34 35 36 37 38 39 40 41 42 43 44 48 47 49 50 51 52 53 54 55 56 57 58 59 60 61 62 63 64 65 66 67 68 69 70 71 72 74 76 78 79 80 81 82 83 84 85 86 88 89 90 91 92 94]</text>
<polyline fill="none" stroke="#0058ad" points="2540,-81.5 2540,-110.5 "/>
<text text-anchor="middle" x="2568.5" y="-92.3" font-family="Times,serif" font-size="14.00" fill="#0058ad">a 74 57</text>
<polyline fill="none" stroke="#0058ad" points="2597,-81.5 2597,-110.5 "/>
<text text-anchor="middle" x="2625.5" y="-92.3" font-family="Times,serif" font-size="14.00" fill="#0058ad">a 72 93</text>
</g>
<!-- T14069 -->
<g id="node2" class="node">
<title>T14069</title>
<polygon fill="none" stroke="#0058ad" points="442.5,-.5 442.5,-29.5 2687.5,-29.5 2687.5,-.5 442.5,-.5"/>
<text text-anchor="middle" x="844.5" y="-11.3" font-family="Times,serif" font-size="14.00" fill="#0058ad">r 74 [1 2 4 5 6 7 8 9 10 11 12 15 17 20 22 23 24 25 26 27 28 29 30 31 35 36 37 38 40 41 42 43 44 45 46 47 48 49 50 51 52 53 54 55 56 58 59]</text>
<polyline fill="none" stroke="#0058ad" points="1246.5,-.5 1246.5,-29.5 "/>
<text text-anchor="middle" x="1275" y="-11.3" font-family="Times,serif" font-size="14.00" fill="#0058ad">a 69 73</text>
<polyline fill="none" stroke="#0058ad" points="1303.5,-.5 1303.5,-29.5 "/>
<text text-anchor="middle" x="1705.5" y="-11.3" font-family="Times,serif" font-size="14.00" fill="#0058ad">r 74 [1 2 4 5 6 7 8 9 10 11 12 15 17 20 22 23 24 25 26 27 28 29 30 31 35 36 37 38 40 41 42 43 44 45 46 47 48 49 50 51 52 53 54 55 56 58 59]</text>
<polyline fill="none" stroke="#0058ad" points="2107.5,-.5 2107.5,-29.5 "/>
<text text-anchor="middle" x="2397.5" y="-11.3" font-family="Times,serif" font-size="14.00" fill="#0058ad">r 70 [1 2 3 4 6 7 8 9 10 11 12 13 14 15 16 17 18 19 20 21 22 23 24 25 26 27 28 29 30 31 32 33 34 35]</text>
</g>
<!-- T14073&#45;&gt;T14069 -->
<g id="edge1" class="edge">
<title>T14073:f0&#45;&gt;T14069:f1</title>
<path fill="none" stroke="#5b00c0" d="M545,-81C545,77.9651 1242.5753,-180.5189 1273.9117,-40.3064"/>
<polygon fill="#5b00c0" stroke="#5b00c0" points="1277.4305,-40.3123 1275,-30 1270.4692,-39.5771 1277.4305,-40.3123"/>
<text text-anchor="middle" x="1275.5" y="-51.8" font-family="Times,serif" font-size="14.00" fill="#5b00c0">rw</text>
</g>
<!-- T14069&#45;&gt;T14073 -->
<g id="edge2" class="edge">
<title>T14069:f0&#45;&gt;T14073:f2</title>
<path fill="none" stroke="#5b00c0" d="M844,-30C844,-41.446 2417.5005,-66.6174 2558.8697,-79.2966"/>
<polygon fill="#5b00c0" stroke="#5b00c0" points="2558.558,-82.7932 2569,-81 2559.7189,-75.8901 2558.558,-82.7932"/>
<text text-anchor="middle" x="2018.5" y="-51.8" font-family="Times,serif" font-size="14.00" fill="#5b00c0">rw</text>
</g>
</g>
</svg>
