<?xml version="1.0" encoding="UTF-8" standalone="no"?>
<!DOCTYPE svg PUBLIC "-//W3C//DTD SVG 1.1//EN"
 "http://www.w3.org/Graphics/SVG/1.1/DTD/svg11.dtd">
<!-- Generated by graphviz version 2.40.1 (20161225.0304)
 -->
<!-- Title: a_graph Pages: 1 -->
<svg width="2476pt" height="119pt"
 viewBox="0.00 0.00 2475.50 119.00" xmlns="http://www.w3.org/2000/svg" xmlns:xlink="http://www.w3.org/1999/xlink">
<g id="graph0" class="graph" transform="scale(1 1) rotate(0) translate(4 115)">
<title>a_graph</title>
<polygon fill="#ffffff" stroke="transparent" points="-4,4 -4,-115 2471.5,-115 2471.5,4 -4,4"/>
<!-- T14841 -->
<g id="node1" class="node">
<title>T14841</title>
<polygon fill="none" stroke="#0058ad" points="88.5,-81.5 88.5,-110.5 2467.5,-110.5 2467.5,-81.5 88.5,-81.5"/>
<text text-anchor="middle" x="383.5" y="-92.3" font-family="Times,serif" font-size="14.00" fill="#0058ad">r 77 [1 2 3 4 5 6 7 8 9 10 11 12 13 15 14 16 17 18 19 21 20 22 23 25 26 27 28 29 30 31 34 35 36 32 33]</text>
<polyline fill="none" stroke="#0058ad" points="678.5,-81.5 678.5,-110.5 "/>
<text text-anchor="middle" x="1249.5" y="-92.3" font-family="Times,serif" font-size="14.00" fill="#0058ad">r 76 [1 2 3 4 5 6 7 8 10 9 11 12 13 14 15 16 17 18 19 21 22 20 24 25 26 27 28 29 30 33 31 32 34 35 36 37 38 39 40 42 44 45 46 47 48 49 50 51 52 53 54 55 58 59 60 61 62 63 64 66 67 68 69 70 71 72 73]</text>
<polyline fill="none" stroke="#0058ad" points="1820.5,-81.5 1820.5,-110.5 "/>
<text text-anchor="middle" x="1849" y="-92.3" font-family="Times,serif" font-size="14.00" fill="#0058ad">a 76 74</text>
<polyline fill="none" stroke="#0058ad" points="1877.5,-81.5 1877.5,-110.5 "/>
<text text-anchor="middle" x="2172.5" y="-92.3" font-family="Times,serif" font-size="14.00" fill="#0058ad">r 77 [1 2 3 4 5 6 7 8 9 10 11 12 13 15 14 16 17 18 19 21 20 22 23 25 26 27 28 29 30 31 34 35 36 32 33]</text>
</g>
<!-- T14837 -->
<g id="node2" class="node">
<title>T14837</title>
<polygon fill="none" stroke="#0058ad" points="0,-.5 0,-29.5 1878,-29.5 1878,-.5 0,-.5"/>
<text text-anchor="middle" x="44.5" y="-11.3" font-family="Times,serif" font-size="14.00" fill="#0058ad">r 78 [2 3 4 5]</text>
<polyline fill="none" stroke="#0058ad" points="89,-.5 89,-29.5 "/>
<text text-anchor="middle" x="384" y="-11.3" font-family="Times,serif" font-size="14.00" fill="#0058ad">r 77 [1 2 3 4 5 6 7 8 9 10 11 12 13 15 14 16 17 18 19 21 20 22 23 25 26 27 28 29 30 31 34 35 36 32 33]</text>
<polyline fill="none" stroke="#0058ad" points="679,-.5 679,-29.5 "/>
<text text-anchor="middle" x="707.5" y="-11.3" font-family="Times,serif" font-size="14.00" fill="#0058ad">a 77 37</text>
<polyline fill="none" stroke="#0058ad" points="736,-.5 736,-29.5 "/>
<text text-anchor="middle" x="1307" y="-11.3" font-family="Times,serif" font-size="14.00" fill="#0058ad">r 76 [1 2 3 4 5 6 7 8 10 9 11 12 13 14 15 16 17 18 19 21 22 20 24 25 26 27 28 29 30 33 31 32 34 35 36 37 38 39 40 42 44 45 46 47 48 49 50 51 52 53 54 55 58 59 60 61 62 63 64 66 67 68 69 70 71 72 73]</text>
</g>
<!-- T14841&#45;&gt;T14837 -->
<g id="edge1" class="edge">
<title>T14841:f0&#45;&gt;T14837:f2</title>
<path fill="none" stroke="#5b00c0" d="M383,-81C383,61.2141 691.3728,-164.2579 706.4301,-39.9972"/>
<polygon fill="#5b00c0" stroke="#5b00c0" points="709.9251,-40.183 707,-30 702.9364,-39.7845 709.9251,-40.183"/>
<text text-anchor="middle" x="711.5" y="-51.8" font-family="Times,serif" font-size="14.00" fill="#5b00c0">rw</text>
</g>
<!-- T14837&#45;&gt;T14841 -->
<g id="edge2" class="edge">
<title>T14837:f3&#45;&gt;T14841:f2</title>
<path fill="none" stroke="#5b00c0" d="M1878,-15C1906.6609,-15 1860.8403,-42.1742 1850.8562,-70.8403"/>
<polygon fill="#5b00c0" stroke="#5b00c0" points="1847.3543,-70.5338 1849,-81 1854.2403,-71.7919 1847.3543,-70.5338"/>
<text text-anchor="middle" x="1871.5" y="-51.8" font-family="Times,serif" font-size="14.00" fill="#5b00c0">rw</text>
</g>
</g>
</svg>
