<?xml version="1.0" encoding="UTF-8" standalone="no"?>
<!DOCTYPE svg PUBLIC "-//W3C//DTD SVG 1.1//EN"
 "http://www.w3.org/Graphics/SVG/1.1/DTD/svg11.dtd">
<!-- Generated by graphviz version 2.40.1 (20161225.0304)
 -->
<!-- Title: a_graph Pages: 1 -->
<svg width="3355pt" height="119pt"
 viewBox="0.00 0.00 3354.50 119.00" xmlns="http://www.w3.org/2000/svg" xmlns:xlink="http://www.w3.org/1999/xlink">
<g id="graph0" class="graph" transform="scale(1 1) rotate(0) translate(4 115)">
<title>a_graph</title>
<polygon fill="#ffffff" stroke="transparent" points="-4,4 -4,-115 3350.5,-115 3350.5,4 -4,4"/>
<!-- T1318 -->
<g id="node1" class="node">
<title>T1318</title>
<polygon fill="none" stroke="#0058ad" points="0,-81.5 0,-110.5 2469,-110.5 2469,-81.5 0,-81.5"/>
<text text-anchor="middle" x="578" y="-92.3" font-family="Times,serif" font-size="14.00" fill="#0058ad">r 11 [1 2 3 4 5 6 9 10 13 15 16 17 19 18 20 21 22 23 24 25 26 27 28 29 30 31 32 34 35 36 37 38 39 40 41 42 43 44 46 47 48 49 50 51 52 53 55 56 54 57 58 59 60 61 62 63 64 65 66 67 68 70 69 71 73 75 74]</text>
<polyline fill="none" stroke="#0058ad" points="1156,-81.5 1156,-110.5 "/>
<text text-anchor="middle" x="1734" y="-92.3" font-family="Times,serif" font-size="14.00" fill="#0058ad">r 11 [1 2 3 4 5 6 9 10 13 15 16 17 19 18 20 21 22 23 24 25 26 27 28 29 30 31 32 34 35 36 37 38 39 40 41 42 43 44 46 47 48 49 50 51 52 53 55 56 54 57 58 59 60 61 62 63 64 65 66 67 68 70 69 71 73 75 74]</text>
<polyline fill="none" stroke="#0058ad" points="2312,-81.5 2312,-110.5 "/>
<text text-anchor="middle" x="2362" y="-92.3" font-family="Times,serif" font-size="14.00" fill="#0058ad">r 13 [2 1 3 4 6]</text>
<polyline fill="none" stroke="#0058ad" points="2412,-81.5 2412,-110.5 "/>
<text text-anchor="middle" x="2440.5" y="-92.3" font-family="Times,serif" font-size="14.00" fill="#0058ad">a 11 76</text>
</g>
<!-- T1317 -->
<g id="node2" class="node">
<title>T1317</title>
<polygon fill="none" stroke="#0058ad" points="2040.5,-.5 2040.5,-29.5 3346.5,-29.5 3346.5,-.5 2040.5,-.5"/>
<text text-anchor="middle" x="2090.5" y="-11.3" font-family="Times,serif" font-size="14.00" fill="#0058ad">r 13 [2 1 3 4 6]</text>
<polyline fill="none" stroke="#0058ad" points="2140.5,-.5 2140.5,-29.5 "/>
<text text-anchor="middle" x="2165.5" y="-11.3" font-family="Times,serif" font-size="14.00" fill="#0058ad">a 13 7</text>
<polyline fill="none" stroke="#0058ad" points="2190.5,-.5 2190.5,-29.5 "/>
<text text-anchor="middle" x="2768.5" y="-11.3" font-family="Times,serif" font-size="14.00" fill="#0058ad">r 11 [1 2 3 4 5 6 9 10 13 15 16 17 19 18 20 21 22 23 24 25 26 27 28 29 30 31 32 34 35 36 37 38 39 40 41 42 43 44 46 47 48 49 50 51 52 53 55 56 54 57 58 59 60 61 62 63 64 65 66 67 68 70 69 71 73 75 74]</text>
</g>
<!-- T1318&#45;&gt;T1317 -->
<g id="edge1" class="edge">
<title>T1318:f2&#45;&gt;T1317:f1</title>
<path fill="none" stroke="#5b00c0" d="M2362.5,-81C2362.5,5.7325 2181.3287,-110.1581 2166.467,-40.0471"/>
<polygon fill="#5b00c0" stroke="#5b00c0" points="2169.9421,-39.6186 2165.5,-30 2162.9743,-40.2894 2169.9421,-39.6186"/>
<text text-anchor="middle" x="2365" y="-51.8" font-family="Times,serif" font-size="14.00" fill="#5b00c0">rw</text>
</g>
<!-- T1317&#45;&gt;T1318 -->
<g id="edge2" class="edge">
<title>T1317:f2&#45;&gt;T1318:f3</title>
<path fill="none" stroke="#5b00c0" d="M2768.5,-30C2768.5,-61.6962 2538.5112,-91.6185 2479.5565,-95.5613"/>
<polygon fill="#5b00c0" stroke="#5b00c0" points="2479.3379,-92.0674 2469.5,-96 2479.6431,-99.0607 2479.3379,-92.0674"/>
<text text-anchor="middle" x="2748" y="-51.8" font-family="Times,serif" font-size="14.00" fill="#5b00c0">rw</text>
</g>
</g>
</svg>
