<?xml version="1.0" encoding="UTF-8" standalone="no"?>
<!DOCTYPE svg PUBLIC "-//W3C//DTD SVG 1.1//EN"
 "http://www.w3.org/Graphics/SVG/1.1/DTD/svg11.dtd">
<!-- Generated by graphviz version 2.40.1 (20161225.0304)
 -->
<!-- Title: a_graph Pages: 1 -->
<svg width="1319pt" height="119pt"
 viewBox="0.00 0.00 1319.00 119.00" xmlns="http://www.w3.org/2000/svg" xmlns:xlink="http://www.w3.org/1999/xlink">
<g id="graph0" class="graph" transform="scale(1 1) rotate(0) translate(4 115)">
<title>a_graph</title>
<polygon fill="#ffffff" stroke="transparent" points="-4,4 -4,-115 1315,-115 1315,4 -4,4"/>
<!-- T30266 -->
<g id="node1" class="node">
<title>T30266</title>
<polygon fill="none" stroke="#0058ad" points="0,-81.5 0,-110.5 832,-110.5 832,-81.5 0,-81.5"/>
<text text-anchor="middle" x="32" y="-92.3" font-family="Times,serif" font-size="14.00" fill="#0058ad">a 153 21</text>
<polyline fill="none" stroke="#0058ad" points="64,-81.5 64,-110.5 "/>
<text text-anchor="middle" x="416" y="-92.3" font-family="Times,serif" font-size="14.00" fill="#0058ad">r 152 [1 2 3 5 6 7 14 15 16 17 18 19 20 21 22 23 24 25 26 27 28 29 30 31 32 33 34 35 36 37 38 39 40 41 42 43 44 48 49 50]</text>
<polyline fill="none" stroke="#0058ad" points="768,-81.5 768,-110.5 "/>
<text text-anchor="middle" x="800" y="-92.3" font-family="Times,serif" font-size="14.00" fill="#0058ad">a 153 22</text>
</g>
<!-- T30265 -->
<g id="node2" class="node">
<title>T30265</title>
<polygon fill="none" stroke="#0058ad" points="19,-.5 19,-29.5 1311,-29.5 1311,-.5 19,-.5"/>
<text text-anchor="middle" x="51" y="-11.3" font-family="Times,serif" font-size="14.00" fill="#0058ad">a 152 52</text>
<polyline fill="none" stroke="#0058ad" points="83,-.5 83,-29.5 "/>
<text text-anchor="middle" x="224.5" y="-11.3" font-family="Times,serif" font-size="14.00" fill="#0058ad">r 153 [1 2 3 5 7 8 9 10 11 12 13 14 15 16 17 18]</text>
<polyline fill="none" stroke="#0058ad" points="366,-.5 366,-29.5 "/>
<text text-anchor="middle" x="838.5" y="-11.3" font-family="Times,serif" font-size="14.00" fill="#0058ad">r 147 [3 5 6 7 8 9 10 11 12 13 14 15 18 19 20 21 22 23 24 25 26 27 28 29 30 32 33 34 35 36 37 39 40 41 42 43 44 45 46 47 49 50 51 52 53 54 55 56 57 58 59 60 61 62]</text>
</g>
<!-- T30266&#45;&gt;T30265 -->
<g id="edge1" class="edge">
<title>T30266:f1&#45;&gt;T30265:f0</title>
<path fill="none" stroke="#5b00c0" d="M416,-81C416,-62.4048 114.936,-52.4078 59.6625,-35.3912"/>
<polygon fill="#5b00c0" stroke="#5b00c0" points="61.3394,-32.3124 51,-30 57.6407,-38.2554 61.3394,-32.3124"/>
<text text-anchor="middle" x="325.5" y="-51.8" font-family="Times,serif" font-size="14.00" fill="#5b00c0">rw</text>
</g>
<!-- T30265&#45;&gt;T30266 -->
<g id="edge2" class="edge">
<title>T30265:f1&#45;&gt;T30266:f0</title>
<path fill="none" stroke="#5b00c0" d="M224,-30C224,-51.2684 150.5699,-42.5939 130,-48 89.3707,-58.678 41.1368,-39.0082 33.1467,-70.6476"/>
<polygon fill="#5b00c0" stroke="#5b00c0" points="29.6223,-70.6754 32,-81 36.5797,-71.4461 29.6223,-70.6754"/>
<text text-anchor="middle" x="137.5" y="-51.8" font-family="Times,serif" font-size="14.00" fill="#5b00c0">rw</text>
</g>
</g>
</svg>
