<?xml version="1.0" encoding="UTF-8" standalone="no"?>
<!DOCTYPE svg PUBLIC "-//W3C//DTD SVG 1.1//EN"
 "http://www.w3.org/Graphics/SVG/1.1/DTD/svg11.dtd">
<!-- Generated by graphviz version 2.40.1 (20161225.0304)
 -->
<!-- Title: a_graph Pages: 1 -->
<svg width="4217pt" height="119pt"
 viewBox="0.00 0.00 4217.00 119.00" xmlns="http://www.w3.org/2000/svg" xmlns:xlink="http://www.w3.org/1999/xlink">
<g id="graph0" class="graph" transform="scale(1 1) rotate(0) translate(4 115)">
<title>a_graph</title>
<polygon fill="#ffffff" stroke="transparent" points="-4,4 -4,-115 4213,-115 4213,4 -4,4"/>
<!-- T6017 -->
<g id="node1" class="node">
<title>T6017</title>
<polygon fill="none" stroke="#0058ad" points="0,-81.5 0,-110.5 4209,-110.5 4209,-81.5 0,-81.5"/>
<text text-anchor="middle" x="692" y="-92.3" font-family="Times,serif" font-size="14.00" fill="#0058ad">r 35 [1 2 4 3 5 6 7 8 9 10 11 12 15 13 14 17 18 16 19 20 21 22 23 24 25 26 29 28 27 30 34 35 36 38 39 40 41 42 43 37 44 45 46 47 48 49 50 51 52 54 55 53 56 57 58 59 60 61 63 64 65 66 67 68 70 69 71 72 73 74 75 76 77 78 80 79 82 81 83 84 85]</text>
<polyline fill="none" stroke="#0058ad" points="1384,-81.5 1384,-110.5 "/>
<text text-anchor="middle" x="2076" y="-92.3" font-family="Times,serif" font-size="14.00" fill="#0058ad">r 35 [1 2 4 3 5 6 7 8 9 10 11 12 15 13 14 17 18 16 19 20 21 22 23 24 25 26 29 28 27 30 34 35 36 38 39 40 41 42 43 37 44 45 46 47 48 49 50 51 52 54 55 53 56 57 58 59 60 61 63 64 65 66 67 68 70 69 71 72 73 74 75 76 77 78 80 79 82 81 83 84 85]</text>
<polyline fill="none" stroke="#0058ad" points="2768,-81.5 2768,-110.5 "/>
<text text-anchor="middle" x="2796.5" y="-92.3" font-family="Times,serif" font-size="14.00" fill="#0058ad">a 30 96</text>
<polyline fill="none" stroke="#0058ad" points="2825,-81.5 2825,-110.5 "/>
<text text-anchor="middle" x="3517" y="-92.3" font-family="Times,serif" font-size="14.00" fill="#0058ad">r 35 [1 2 4 3 5 6 7 8 9 10 11 12 15 13 14 17 18 16 19 20 21 22 23 24 25 26 29 28 27 30 34 35 36 38 39 40 41 42 43 37 44 45 46 47 48 49 50 51 52 54 55 53 56 57 58 59 60 61 63 64 65 66 67 68 70 69 71 72 73 74 75 76 77 78 80 79 82 81 83 84 85]</text>
</g>
<!-- T6015 -->
<g id="node2" class="node">
<title>T6015</title>
<polygon fill="none" stroke="#0058ad" points="1427,-.5 1427,-29.5 3110,-29.5 3110,-.5 1427,-.5"/>
<text text-anchor="middle" x="1459" y="-11.3" font-family="Times,serif" font-size="14.00" fill="#0058ad">a 33 102</text>
<polyline fill="none" stroke="#0058ad" points="1491,-.5 1491,-29.5 "/>
<text text-anchor="middle" x="1519.5" y="-11.3" font-family="Times,serif" font-size="14.00" fill="#0058ad">a 35 86</text>
<polyline fill="none" stroke="#0058ad" points="1548,-.5 1548,-29.5 "/>
<text text-anchor="middle" x="2300.5" y="-11.3" font-family="Times,serif" font-size="14.00" fill="#0058ad">r 30 [1 2 3 4 5 6 7 8 9 10 11 12 13 14 15 16 17 18 19 20 21 22 23 24 25 26 27 28 29 30 31 32 33 34 35 36 37 39 40 41 42 43 44 45 46 47 49 50 52 53 54 55 56 57 59 60 61 62 63 64 65 66 67 68 69 70 71 72 73 74 77 76 75 78 81 82 83 85 84 86 87 88 89 90 91 92 94 95]</text>
<polyline fill="none" stroke="#0058ad" points="3053,-.5 3053,-29.5 "/>
<text text-anchor="middle" x="3081.5" y="-11.3" font-family="Times,serif" font-size="14.00" fill="#0058ad">a 35 87</text>
</g>
<!-- T6017&#45;&gt;T6015 -->
<g id="edge1" class="edge">
<title>T6017:f0&#45;&gt;T6015:f1</title>
<path fill="none" stroke="#5b00c0" d="M691.5,-81C691.5,99.7481 1487.4721,-202.1302 1518.5648,-40.2346"/>
<polygon fill="#5b00c0" stroke="#5b00c0" points="1522.0754,-40.277 1519.5,-30 1515.1044,-39.64 1522.0754,-40.277"/>
<text text-anchor="middle" x="1524" y="-51.8" font-family="Times,serif" font-size="14.00" fill="#5b00c0">rw</text>
</g>
<!-- T6015&#45;&gt;T6017 -->
<g id="edge2" class="edge">
<title>T6015:f2&#45;&gt;T6017:f2</title>
<path fill="none" stroke="#5b00c0" d="M2300.5,-30C2300.5,-248.0359 2780.6444,128.1264 2796.1178,-70.7605"/>
<polygon fill="#5b00c0" stroke="#5b00c0" points="2792.6293,-71.1375 2796.5,-81 2799.6245,-70.8764 2792.6293,-71.1375"/>
<text text-anchor="middle" x="2801" y="-51.8" font-family="Times,serif" font-size="14.00" fill="#5b00c0">rw</text>
</g>
</g>
</svg>
