<?xml version="1.0" encoding="UTF-8" standalone="no"?>
<!DOCTYPE svg PUBLIC "-//W3C//DTD SVG 1.1//EN"
 "http://www.w3.org/Graphics/SVG/1.1/DTD/svg11.dtd">
<!-- Generated by graphviz version 2.40.1 (20161225.0304)
 -->
<!-- Title: a_graph Pages: 1 -->
<svg width="3500pt" height="200pt"
 viewBox="0.00 0.00 3499.50 200.00" xmlns="http://www.w3.org/2000/svg" xmlns:xlink="http://www.w3.org/1999/xlink">
<g id="graph0" class="graph" transform="scale(1 1) rotate(0) translate(4 196)">
<title>a_graph</title>
<polygon fill="#ffffff" stroke="transparent" points="-4,4 -4,-196 3495.5,-196 3495.5,4 -4,4"/>
<!-- T27093 -->
<g id="node1" class="node">
<title>T27093</title>
<polygon fill="none" stroke="#0058ad" points="2174.5,-162.5 2174.5,-191.5 3491.5,-191.5 3491.5,-162.5 2174.5,-162.5"/>
<text text-anchor="middle" x="2683.5" y="-173.3" font-family="Times,serif" font-size="14.00" fill="#0058ad">r 137 [1 2 3 4 5 6 7 8 10 11 13 14 15 16 17 18 19 20 21 22 23 24 25 26 27 28 29 30 31 32 33 35 36 34 37 38 40 41 42 43 39 44 45 46 47 48 49 50 52 51 53 54 55 56 57 58 60 62 63]</text>
<polyline fill="none" stroke="#0058ad" points="3192.5,-162.5 3192.5,-191.5 "/>
<text text-anchor="middle" x="3224.5" y="-173.3" font-family="Times,serif" font-size="14.00" fill="#0058ad">a 138 14</text>
<polyline fill="none" stroke="#0058ad" points="3256.5,-162.5 3256.5,-191.5 "/>
<text text-anchor="middle" x="3374" y="-173.3" font-family="Times,serif" font-size="14.00" fill="#0058ad">r 138 [1 2 3 4 5 6 7 8 9 10 11 13 12 14]</text>
</g>
<!-- T27094 -->
<g id="node3" class="node">
<title>T27094</title>
<polygon fill="none" stroke="#0058ad" points="0,-81.5 0,-110.5 2834,-110.5 2834,-81.5 0,-81.5"/>
<text text-anchor="middle" x="876" y="-92.3" font-family="Times,serif" font-size="14.00" fill="#0058ad">r 131 [1 2 3 4 5 6 8 9 7 10 11 12 13 14 15 16 17 18 19 21 22 23 24 25 26 27 28 29 30 31 32 33 34 35 36 37 38 39 40 41 42 43 44 45 46 47 48 49 50 52 53 54 57 58 59 61 60 62 63 64 65 66 67 68 69 70 71 72 74 73 75 76 77 78 79 80 81 82 83 84 85 86 87 88 89 90 91 92 93 94 95 96 97 98 99 100 102 103 105 106]</text>
<polyline fill="none" stroke="#0058ad" points="1752,-81.5 1752,-110.5 "/>
<text text-anchor="middle" x="2261" y="-92.3" font-family="Times,serif" font-size="14.00" fill="#0058ad">r 137 [1 2 3 4 5 6 7 8 10 11 13 14 15 16 17 18 19 20 21 22 23 24 25 26 27 28 29 30 31 32 33 35 36 34 37 38 40 41 42 43 39 44 45 46 47 48 49 50 52 51 53 54 55 56 57 58 60 62 63]</text>
<polyline fill="none" stroke="#0058ad" points="2770,-81.5 2770,-110.5 "/>
<text text-anchor="middle" x="2802" y="-92.3" font-family="Times,serif" font-size="14.00" fill="#0058ad">a 137 64</text>
</g>
<!-- T27093&#45;&gt;T27094 -->
<g id="edge1" class="edge">
<title>T27093:f0&#45;&gt;T27094:f2</title>
<path fill="none" stroke="#5b00c0" d="M2683,-162C2683,-108.2797 2786.7201,-160.5667 2800.4954,-120.9255"/>
<polygon fill="#5b00c0" stroke="#5b00c0" points="2803.9616,-121.4116 2802,-111 2797.0407,-120.3625 2803.9616,-121.4116"/>
<text text-anchor="middle" x="2800.5" y="-132.8" font-family="Times,serif" font-size="14.00" fill="#5b00c0">rw</text>
</g>
<!-- T27091 -->
<g id="node2" class="node">
<title>T27091</title>
<polygon fill="none" stroke="#0058ad" points="2406,-.5 2406,-29.5 2766,-29.5 2766,-.5 2406,-.5"/>
<text text-anchor="middle" x="2441.5" y="-11.3" font-family="Times,serif" font-size="14.00" fill="#0058ad">a 131 107</text>
<polyline fill="none" stroke="#0058ad" points="2477,-.5 2477,-29.5 "/>
<text text-anchor="middle" x="2586" y="-11.3" font-family="Times,serif" font-size="14.00" fill="#0058ad">r 138 [1 2 3 4 5 6 7 8 9 10 11 13 12]</text>
<polyline fill="none" stroke="#0058ad" points="2695,-.5 2695,-29.5 "/>
<text text-anchor="middle" x="2730.5" y="-11.3" font-family="Times,serif" font-size="14.00" fill="#0058ad">a 131 108</text>
</g>
<!-- T27091&#45;&gt;T27093 -->
<g id="edge2" class="edge">
<title>T27091:f1&#45;&gt;T27093:f1</title>
<path fill="none" stroke="#5b00c0" d="M2586,-30C2586,-88.2248 2785.964,-69.2943 2843,-81 3009.5225,-115.176 3216.3227,6.3936 3224.7347,-151.6982"/>
<polygon fill="#5b00c0" stroke="#5b00c0" points="3221.2436,-152.0934 3225,-162 3228.2413,-151.9132 3221.2436,-152.0934"/>
<text text-anchor="middle" x="3221.5" y="-92.3" font-family="Times,serif" font-size="14.00" fill="#5b00c0">rw</text>
</g>
<!-- T27094&#45;&gt;T27091 -->
<g id="edge3" class="edge">
<title>T27094:f0&#45;&gt;T27091:f0</title>
<path fill="none" stroke="#5b00c0" d="M876,-81C876,-39.9975 2257.9102,-16.7203 2395.8677,-15.0917"/>
<polygon fill="#5b00c0" stroke="#5b00c0" points="2396.0321,-18.5904 2406,-15 2395.9687,-11.5907 2396.0321,-18.5904"/>
<text text-anchor="middle" x="1169.5" y="-51.8" font-family="Times,serif" font-size="14.00" fill="#5b00c0">rw</text>
</g>
</g>
</svg>
