<?xml version="1.0" encoding="UTF-8" standalone="no"?>
<!DOCTYPE svg PUBLIC "-//W3C//DTD SVG 1.1//EN"
 "http://www.w3.org/Graphics/SVG/1.1/DTD/svg11.dtd">
<!-- Generated by graphviz version 2.40.1 (20161225.0304)
 -->
<!-- Title: a_graph Pages: 1 -->
<svg width="3096pt" height="119pt"
 viewBox="0.00 0.00 3096.00 119.00" xmlns="http://www.w3.org/2000/svg" xmlns:xlink="http://www.w3.org/1999/xlink">
<g id="graph0" class="graph" transform="scale(1 1) rotate(0) translate(4 115)">
<title>a_graph</title>
<polygon fill="#ffffff" stroke="transparent" points="-4,4 -4,-115 3092,-115 3092,4 -4,4"/>
<!-- T6427 -->
<g id="node1" class="node">
<title>T6427</title>
<polygon fill="none" stroke="#0058ad" points="0,-81.5 0,-110.5 3088,-110.5 3088,-81.5 0,-81.5"/>
<text text-anchor="middle" x="28.5" y="-92.3" font-family="Times,serif" font-size="14.00" fill="#0058ad">a 37 34</text>
<polyline fill="none" stroke="#0058ad" points="57,-81.5 57,-110.5 "/>
<text text-anchor="middle" x="671.5" y="-92.3" font-family="Times,serif" font-size="14.00" fill="#0058ad">r 36 [3 1 2 5 6 7 8 9 10 11 12 4 13 14 15 16 17 18 19 20 21 23 22 24 25 26 27 28 29 30 31 33 34 35 32 36 37 39 38 43 40 41 42 44 45 46 47 48 49 50 52 53 51 54 57 58 55 56 59 60 61 63 64 65 66 68 69 70 71 72 67 73]</text>
<polyline fill="none" stroke="#0058ad" points="1286,-81.5 1286,-110.5 "/>
<text text-anchor="middle" x="1900.5" y="-92.3" font-family="Times,serif" font-size="14.00" fill="#0058ad">r 36 [3 1 2 5 6 7 8 9 10 11 12 4 13 14 15 16 17 18 19 20 21 23 22 24 25 26 27 28 29 30 31 33 34 35 32 36 37 39 38 43 40 41 42 44 45 46 47 48 49 50 52 53 51 54 57 58 55 56 59 60 61 63 64 65 66 68 69 70 71 72 67 73]</text>
<polyline fill="none" stroke="#0058ad" points="2515,-81.5 2515,-110.5 "/>
<text text-anchor="middle" x="2801.5" y="-92.3" font-family="Times,serif" font-size="14.00" fill="#0058ad">r 37 [1 2 3 4 5 6 7 8 11 12 13 9 10 14 15 16 17 18 19 20 21 22 23 24 25 26 27 28 29 30 31 32 33 34]</text>
</g>
<!-- T6423 -->
<g id="node2" class="node">
<title>T6423</title>
<polygon fill="none" stroke="#0058ad" points="167.5,-.5 167.5,-29.5 780.5,-29.5 780.5,-.5 167.5,-.5"/>
<text text-anchor="middle" x="196" y="-11.3" font-family="Times,serif" font-size="14.00" fill="#0058ad">a 36 74</text>
<polyline fill="none" stroke="#0058ad" points="224.5,-.5 224.5,-29.5 "/>
<text text-anchor="middle" x="502.5" y="-11.3" font-family="Times,serif" font-size="14.00" fill="#0058ad">r 37 [1 2 3 4 5 6 7 8 11 12 13 9 10 14 15 16 17 18 19 20 21 22 23 24 25 26 27 28 29 30 31 32 33]</text>
</g>
<!-- T6427&#45;&gt;T6423 -->
<g id="edge1" class="edge">
<title>T6427:f1&#45;&gt;T6423:f0</title>
<path fill="none" stroke="#5b00c0" d="M671,-81C671,21.5336 227.9158,-125.4467 197.6268,-39.9697"/>
<polygon fill="#5b00c0" stroke="#5b00c0" points="201.0649,-39.3058 196,-30 194.1562,-40.4332 201.0649,-39.3058"/>
<text text-anchor="middle" x="669.5" y="-51.8" font-family="Times,serif" font-size="14.00" fill="#5b00c0">rw</text>
</g>
<!-- T6423&#45;&gt;T6427 -->
<g id="edge2" class="edge">
<title>T6423:f1&#45;&gt;T6427:f0</title>
<path fill="none" stroke="#5b00c0" d="M503,-30C503,-47.6949 202.5413,-45.6735 185,-48 118.0439,-56.8803 37.0602,-14.5673 28.7052,-70.6865"/>
<polygon fill="#5b00c0" stroke="#5b00c0" points="25.1904,-70.7845 28,-81 32.1741,-71.2621 25.1904,-70.7845"/>
<text text-anchor="middle" x="192.5" y="-51.8" font-family="Times,serif" font-size="14.00" fill="#5b00c0">rw</text>
</g>
</g>
</svg>
