<?xml version="1.0" encoding="UTF-8" standalone="no"?>
<!DOCTYPE svg PUBLIC "-//W3C//DTD SVG 1.1//EN"
 "http://www.w3.org/Graphics/SVG/1.1/DTD/svg11.dtd">
<!-- Generated by graphviz version 2.40.1 (20161225.0304)
 -->
<!-- Title: a_graph Pages: 1 -->
<svg width="3890pt" height="200pt"
 viewBox="0.00 0.00 3889.50 200.00" xmlns="http://www.w3.org/2000/svg" xmlns:xlink="http://www.w3.org/1999/xlink">
<g id="graph0" class="graph" transform="scale(1 1) rotate(0) translate(4 196)">
<title>a_graph</title>
<polygon fill="#ffffff" stroke="transparent" points="-4,4 -4,-196 3885.5,-196 3885.5,4 -4,4"/>
<!-- T20247 -->
<g id="node1" class="node">
<title>T20247</title>
<polygon fill="none" stroke="#0058ad" points="716.5,-162.5 716.5,-191.5 2215.5,-191.5 2215.5,-162.5 716.5,-162.5"/>
<text text-anchor="middle" x="745" y="-173.3" font-family="Times,serif" font-size="14.00" fill="#0058ad">a 98 99</text>
<polyline fill="none" stroke="#0058ad" points="773.5,-162.5 773.5,-191.5 "/>
<text text-anchor="middle" x="1494.5" y="-173.3" font-family="Times,serif" font-size="14.00" fill="#0058ad">r 103 [1 2 3 4 5 6 7 8 9 10 11 12 13 14 15 16 17 18 19 20 21 22 23 24 25 26 27 29 28 30 32 31 33 34 35 36 37 38 39 42 43 46 47 44 45 49 50 51 48 56 57 54 55 58 52 53 59 60 61 62 63 66 67 64 68 65 70 71 72 73 69 74 75 76 77 79 78 81 82 83 84 87 88 91]</text>
</g>
<!-- T20241 -->
<g id="node3" class="node">
<title>T20241</title>
<polygon fill="none" stroke="#0058ad" points="778.5,-81.5 778.5,-110.5 3881.5,-110.5 3881.5,-81.5 778.5,-81.5"/>
<text text-anchor="middle" x="807" y="-92.3" font-family="Times,serif" font-size="14.00" fill="#0058ad">a 71 63</text>
<polyline fill="none" stroke="#0058ad" points="835.5,-81.5 835.5,-110.5 "/>
<text text-anchor="middle" x="867.5" y="-92.3" font-family="Times,serif" font-size="14.00" fill="#0058ad">a 103 80</text>
<polyline fill="none" stroke="#0058ad" points="899.5,-81.5 899.5,-110.5 "/>
<text text-anchor="middle" x="1629.5" y="-92.3" font-family="Times,serif" font-size="14.00" fill="#0058ad">r 103 [1 2 3 4 5 6 7 8 9 10 11 12 13 14 15 16 17 18 19 20 21 22 23 24 25 26 27 29 28 30 32 31 33 34 35 36 37 38 39 42 43 46 47 44 45 49 50 51 48 56 57 54 55 58 52 53 59 60 61 62 63 66 67 64 68 65 70 71 72 73 69 74 75 76 77 79 78 81 82 83 84 87 88 91 80]</text>
<polyline fill="none" stroke="#0058ad" points="2359.5,-81.5 2359.5,-110.5 "/>
<text text-anchor="middle" x="3120.5" y="-92.3" font-family="Times,serif" font-size="14.00" fill="#0058ad">r 98 [1 2 3 4 5 6 7 8 9 12 11 10 13 14 15 16 17 19 20 21 22 23 24 25 26 27 28 29 30 31 32 33 34 35 36 37 38 39 40 41 42 43 44 45 46 49 50 53 54 57 58 59 60 63 64 65 67 66 68 69 70 71 72 73 74 75 76 77 78 79 80 81 82 83 85 86 87 84 88 89 90 91 92 93 94 95 96 97 98]</text>
</g>
<!-- T20247&#45;&gt;T20241 -->
<g id="edge1" class="edge">
<title>T20247:f1&#45;&gt;T20241:f1</title>
<path fill="none" stroke="#5b00c0" d="M1495,-162C1495,-129.3207 947.6369,-143.7175 874.9402,-117.2905"/>
<polygon fill="#5b00c0" stroke="#5b00c0" points="877.0118,-114.4664 867,-111 872.6649,-119.9532 877.0118,-114.4664"/>
<text text-anchor="middle" x="1396.5" y="-132.8" font-family="Times,serif" font-size="14.00" fill="#5b00c0">rw</text>
</g>
<!-- T20245 -->
<g id="node2" class="node">
<title>T20245</title>
<polygon fill="none" stroke="#0058ad" points="0,-.5 0,-29.5 1522,-29.5 1522,-.5 0,-.5"/>
<text text-anchor="middle" x="761" y="-11.3" font-family="Times,serif" font-size="14.00" fill="#0058ad">r 98 [1 2 3 4 5 6 7 8 9 12 11 10 13 14 15 16 17 19 20 21 22 23 24 25 26 27 28 29 30 31 32 33 34 35 36 37 38 39 40 41 42 43 44 45 46 49 50 53 54 57 58 59 60 63 64 65 67 66 68 69 70 71 72 73 74 75 76 77 78 79 80 81 82 83 85 86 87 84 88 89 90 91 92 93 94 95 96 97 98]</text>
</g>
<!-- T20245&#45;&gt;T20247 -->
<g id="edge2" class="edge">
<title>T20245:f0&#45;&gt;T20247:f0</title>
<path fill="none" stroke="#5b00c0" d="M758.3579,-29.548C754.1241,-54.0763 746.185,-105.5285 745.1194,-151.8896"/>
<polygon fill="#5b00c0" stroke="#5b00c0" points="741.6184,-151.9593 745,-162 748.6179,-152.0421 741.6184,-151.9593"/>
<text text-anchor="middle" x="757.5" y="-92.3" font-family="Times,serif" font-size="14.00" fill="#5b00c0">rw</text>
</g>
<!-- T20241&#45;&gt;T20247 -->
<g id="edge3" class="edge">
<title>T20241:f3&#45;&gt;T20247:f0</title>
<path fill="none" stroke="#5b00c0" d="M3121,-111C3121,-126.0561 968.0045,-127.7544 953,-129 932.4129,-130.709 786.0684,-136.8822 752.0517,-154.4056"/>
<polygon fill="#5b00c0" stroke="#5b00c0" points="749.2396,-152.2904 745,-162 754.3692,-157.0535 749.2396,-152.2904"/>
<text text-anchor="middle" x="960.5" y="-132.8" font-family="Times,serif" font-size="14.00" fill="#5b00c0">rw</text>
</g>
<!-- T20241&#45;&gt;T20245 -->
<g id="edge4" class="edge">
<title>T20241&#45;&gt;T20245</title>
<path fill="none" stroke="#0050c0" d="M2049.0416,-81.4955C1767.7134,-66.9718 1336.7591,-44.7237 1051.9507,-30.0204"/>
<polygon fill="#0050c0" stroke="#0050c0" points="1052.0485,-26.5209 1041.8814,-29.5006 1051.6876,-33.5116 1052.0485,-26.5209"/>
<text text-anchor="middle" x="1690.5" y="-51.8" font-family="Times,serif" font-size="14.00" fill="#0050c0">rt</text>
</g>
</g>
</svg>
