<?xml version="1.0" encoding="UTF-8" standalone="no"?>
<!DOCTYPE svg PUBLIC "-//W3C//DTD SVG 1.1//EN"
 "http://www.w3.org/Graphics/SVG/1.1/DTD/svg11.dtd">
<!-- Generated by graphviz version 2.40.1 (20161225.0304)
 -->
<!-- Title: a_graph Pages: 1 -->
<svg width="609pt" height="200pt"
 viewBox="0.00 0.00 608.50 200.00" xmlns="http://www.w3.org/2000/svg" xmlns:xlink="http://www.w3.org/1999/xlink">
<g id="graph0" class="graph" transform="scale(1 1) rotate(0) translate(4 196)">
<title>a_graph</title>
<polygon fill="#ffffff" stroke="transparent" points="-4,4 -4,-196 604.5,-196 604.5,4 -4,4"/>
<!-- T6267 -->
<g id="node1" class="node">
<title>T6267</title>
<polygon fill="none" stroke="#0058ad" points="0,-162.5 0,-191.5 594,-191.5 594,-162.5 0,-162.5"/>
<text text-anchor="middle" x="122.5" y="-173.3" font-family="Times,serif" font-size="14.00" fill="#0058ad">r 37 [1 2 3 4 5 6 7 8 11 12 13 9 10 14 15]</text>
<polyline fill="none" stroke="#0058ad" points="245,-162.5 245,-191.5 "/>
<text text-anchor="middle" x="419.5" y="-173.3" font-family="Times,serif" font-size="14.00" fill="#0058ad">r 36 [3 1 2 5 6 7 8 9 10 11 12 4 13 14 15 16 17 18 19 20 21]</text>
</g>
<!-- T6269 -->
<g id="node3" class="node">
<title>T6269</title>
<polygon fill="none" stroke="#0058ad" points="201.5,-81.5 201.5,-110.5 600.5,-110.5 600.5,-81.5 201.5,-81.5"/>
<text text-anchor="middle" x="233.5" y="-92.3" font-family="Times,serif" font-size="14.00" fill="#0058ad">a 30 111</text>
<polyline fill="none" stroke="#0058ad" points="265.5,-81.5 265.5,-110.5 "/>
<text text-anchor="middle" x="290.5" y="-92.3" font-family="Times,serif" font-size="14.00" fill="#0058ad">a 4 61</text>
<polyline fill="none" stroke="#0058ad" points="315.5,-81.5 315.5,-110.5 "/>
<text text-anchor="middle" x="344" y="-92.3" font-family="Times,serif" font-size="14.00" fill="#0058ad">a 36 23</text>
<polyline fill="none" stroke="#0058ad" points="372.5,-81.5 372.5,-110.5 "/>
<text text-anchor="middle" x="486.5" y="-92.3" font-family="Times,serif" font-size="14.00" fill="#0058ad">r 37 [1 2 3 4 5 6 7 8 11 12 13 9 10 14]</text>
</g>
<!-- T6267&#45;&gt;T6269 -->
<g id="edge1" class="edge">
<title>T6267:f1&#45;&gt;T6269:f2</title>
<path fill="none" stroke="#5b00c0" d="M420,-162C420,-125.2943 358.119,-146.4267 346.0328,-121.0174"/>
<polygon fill="#5b00c0" stroke="#5b00c0" points="349.4189,-120.1042 344,-111 342.5587,-121.4963 349.4189,-120.1042"/>
<text text-anchor="middle" x="417.5" y="-132.8" font-family="Times,serif" font-size="14.00" fill="#5b00c0">rw</text>
</g>
<!-- T6265 -->
<g id="node2" class="node">
<title>T6265</title>
<polygon fill="none" stroke="#0058ad" points="125.5,-.5 125.5,-29.5 182.5,-29.5 182.5,-.5 125.5,-.5"/>
<text text-anchor="middle" x="154" y="-11.3" font-family="Times,serif" font-size="14.00" fill="#0058ad">a 37 15</text>
</g>
<!-- T6265&#45;&gt;T6267 -->
<g id="edge2" class="edge">
<title>T6265:f0&#45;&gt;T6267:f0</title>
<path fill="none" stroke="#c000a5" d="M148.5716,-29.7927C140.066,-54.2433 124.3458,-105.0397 122.2363,-151.7871"/>
<polygon fill="#c000a5" stroke="#c000a5" points="118.7323,-151.9217 122,-162 125.7305,-152.0837 118.7323,-151.9217"/>
<text text-anchor="middle" x="140.5" y="-92.3" font-family="Times,serif" font-size="14.00" fill="#c000a5">wr</text>
</g>
<!-- T6269&#45;&gt;T6265 -->
<g id="edge3" class="edge">
<title>T6269:f3&#45;&gt;T6265:f0</title>
<path fill="none" stroke="#5b00c0" d="M487,-81C487,-15.3682 268.1136,-48.8202 190.6922,-32.2427"/>
<polygon fill="#5b00c0" stroke="#5b00c0" points="191.3108,-28.7844 180.7441,-29.556 189.4856,-35.5423 191.3108,-28.7844"/>
<text text-anchor="middle" x="484.5" y="-51.8" font-family="Times,serif" font-size="14.00" fill="#5b00c0">rw</text>
</g>
</g>
</svg>
