<?xml version="1.0" encoding="UTF-8" standalone="no"?>
<!DOCTYPE svg PUBLIC "-//W3C//DTD SVG 1.1//EN"
 "http://www.w3.org/Graphics/SVG/1.1/DTD/svg11.dtd">
<!-- Generated by graphviz version 2.40.1 (20161225.0304)
 -->
<!-- Title: a_graph Pages: 1 -->
<svg width="4071pt" height="119pt"
 viewBox="0.00 0.00 4070.50 119.00" xmlns="http://www.w3.org/2000/svg" xmlns:xlink="http://www.w3.org/1999/xlink">
<g id="graph0" class="graph" transform="scale(1 1) rotate(0) translate(4 115)">
<title>a_graph</title>
<polygon fill="#ffffff" stroke="transparent" points="-4,4 -4,-115 4066.5,-115 4066.5,4 -4,4"/>
<!-- T21829 -->
<g id="node1" class="node">
<title>T21829</title>
<polygon fill="none" stroke="#0058ad" points="1298.5,-81.5 1298.5,-110.5 4062.5,-110.5 4062.5,-81.5 1298.5,-81.5"/>
<text text-anchor="middle" x="1327" y="-92.3" font-family="Times,serif" font-size="14.00" fill="#0058ad">a 95 58</text>
<polyline fill="none" stroke="#0058ad" points="1355.5,-81.5 1355.5,-110.5 "/>
<text text-anchor="middle" x="1387.5" y="-92.3" font-family="Times,serif" font-size="14.00" fill="#0058ad">a 106 87</text>
<polyline fill="none" stroke="#0058ad" points="1419.5,-81.5 1419.5,-110.5 "/>
<text text-anchor="middle" x="2166.5" y="-92.3" font-family="Times,serif" font-size="14.00" fill="#0058ad">r 106 [1 2 3 4 5 6 7 8 10 9 11 12 13 14 15 16 17 18 19 21 20 22 23 24 25 26 27 28 29 31 30 32 33 34 36 35 37 39 38 41 40 42 43 44 45 46 47 48 50 51 49 52 53 54 55 56 57 58 59 60 61 62 63 64 65 66 67 68 69 71 70 72 73 75 74 76 77 78 79 80 81 82 83 84 85 86 87]</text>
<polyline fill="none" stroke="#0058ad" points="2913.5,-81.5 2913.5,-110.5 "/>
<text text-anchor="middle" x="3488" y="-92.3" font-family="Times,serif" font-size="14.00" fill="#0058ad">r 110 [1 3 4 5 2 6 7 9 10 14 11 12 13 15 16 8 18 19 17 22 24 25 27 28 26 29 30 32 33 31 34 35 36 37 38 39 40 41 42 43 44 45 48 46 49 50 51 52 47 53 54 57 55 56 58 61 62 63 65 66 67 70 64 68 69 72 76]</text>
</g>
<!-- T21827 -->
<g id="node2" class="node">
<title>T21827</title>
<polygon fill="none" stroke="#0058ad" points="0,-.5 0,-29.5 2513,-29.5 2513,-.5 0,-.5"/>
<text text-anchor="middle" x="738.5" y="-11.3" font-family="Times,serif" font-size="14.00" fill="#0058ad">r 106 [1 2 3 4 5 6 7 8 10 9 11 12 13 14 15 16 17 18 19 21 20 22 23 24 25 26 27 28 29 31 30 32 33 34 36 35 37 39 38 41 40 42 43 44 45 46 47 48 50 51 49 52 53 54 55 56 57 58 59 60 61 62 63 64 65 66 67 68 69 71 70 72 73 75 74 76 77 78 79 80 81 82 83 84 85 86]</text>
<polyline fill="none" stroke="#0058ad" points="1477,-.5 1477,-29.5 "/>
<text text-anchor="middle" x="1931" y="-11.3" font-family="Times,serif" font-size="14.00" fill="#0058ad">r 95 [1 2 3 4 5 6 7 9 10 11 12 13 14 15 16 17 18 19 20 21 22 23 25 26 27 29 30 31 32 33 34 35 36 37 38 39 40 41 43 44 45 46 47 48 49 50 51 52 53 54 55 56 57]</text>
<polyline fill="none" stroke="#0058ad" points="2385,-.5 2385,-29.5 "/>
<text text-anchor="middle" x="2417" y="-11.3" font-family="Times,serif" font-size="14.00" fill="#0058ad">a 109 85</text>
<polyline fill="none" stroke="#0058ad" points="2449,-.5 2449,-29.5 "/>
<text text-anchor="middle" x="2481" y="-11.3" font-family="Times,serif" font-size="14.00" fill="#0058ad">a 110 77</text>
</g>
<!-- T21829&#45;&gt;T21827 -->
<g id="edge1" class="edge">
<title>T21829:f3&#45;&gt;T21827:f3</title>
<path fill="none" stroke="#5b00c0" d="M3488.5,-81C3488.5,-28.8301 2638.3162,-15.9798 2523.7218,-15.0554"/>
<polygon fill="#5b00c0" stroke="#5b00c0" points="2523.5189,-11.5544 2513.5,-15 2523.4808,-18.5543 2523.5189,-11.5544"/>
<text text-anchor="middle" x="3446" y="-51.8" font-family="Times,serif" font-size="14.00" fill="#5b00c0">rw</text>
</g>
<!-- T21827&#45;&gt;T21829 -->
<g id="edge2" class="edge">
<title>T21827:f1&#45;&gt;T21829:f0</title>
<path fill="none" stroke="#5b00c0" d="M1931.5,-30C1931.5,-161.3638 1357.9837,42.6267 1327.7397,-71.0524"/>
<polygon fill="#5b00c0" stroke="#5b00c0" points="1324.2636,-70.6439 1326.5,-81 1331.2098,-71.5096 1324.2636,-70.6439"/>
<text text-anchor="middle" x="1932" y="-51.8" font-family="Times,serif" font-size="14.00" fill="#5b00c0">rw</text>
</g>
</g>
</svg>
