<?xml version="1.0" encoding="UTF-8" standalone="no"?>
<!DOCTYPE svg PUBLIC "-//W3C//DTD SVG 1.1//EN"
 "http://www.w3.org/Graphics/SVG/1.1/DTD/svg11.dtd">
<!-- Generated by graphviz version 2.40.1 (20161225.0304)
 -->
<!-- Title: a_graph Pages: 1 -->
<svg width="3277pt" height="119pt"
 viewBox="0.00 0.00 3277.00 119.00" xmlns="http://www.w3.org/2000/svg" xmlns:xlink="http://www.w3.org/1999/xlink">
<g id="graph0" class="graph" transform="scale(1 1) rotate(0) translate(4 115)">
<title>a_graph</title>
<polygon fill="#ffffff" stroke="transparent" points="-4,4 -4,-115 3273,-115 3273,4 -4,4"/>
<!-- T6013 -->
<g id="node1" class="node">
<title>T6013</title>
<polygon fill="none" stroke="#0058ad" points="0,-81.5 0,-110.5 3269,-110.5 3269,-81.5 0,-81.5"/>
<text text-anchor="middle" x="683.5" y="-92.3" font-family="Times,serif" font-size="14.00" fill="#0058ad">r 35 [1 2 4 3 5 6 7 8 9 10 11 12 15 13 14 17 18 16 19 20 21 22 23 24 25 26 29 28 27 30 34 35 36 38 39 40 41 42 43 37 44 45 46 47 48 49 50 51 52 54 55 53 56 57 58 59 60 61 63 64 65 66 67 68 70 69 71 72 73 74 75 76 77 78 80 79 82 81 83 84]</text>
<polyline fill="none" stroke="#0058ad" points="1367,-81.5 1367,-110.5 "/>
<text text-anchor="middle" x="1515.5" y="-92.3" font-family="Times,serif" font-size="14.00" fill="#0058ad">r 2 [1 2 3 4 5 6 7 9 10 12 13 14 15 16 17 18 19 20]</text>
<polyline fill="none" stroke="#0058ad" points="1664,-81.5 1664,-110.5 "/>
<text text-anchor="middle" x="1696" y="-92.3" font-family="Times,serif" font-size="14.00" fill="#0058ad">a 33 101</text>
<polyline fill="none" stroke="#0058ad" points="1728,-81.5 1728,-110.5 "/>
<text text-anchor="middle" x="2498.5" y="-92.3" font-family="Times,serif" font-size="14.00" fill="#0058ad">r 33 [2 4 9 10 11 12 13 14 15 18 17 19 20 21 23 24 25 26 28 27 30 31 32 33 34 36 37 35 38 40 41 42 39 43 44 45 47 48 49 50 51 52 53 55 54 57 56 58 59 60 61 62 63 64 65 67 68 69 70 71 72 73 75 74 76 77 79 81 82 83 78 84 80 85 86 87 88 89 91 92 93 96 97 98 100 99 101]</text>
</g>
<!-- T6011 -->
<g id="node2" class="node">
<title>T6011</title>
<polygon fill="none" stroke="#0058ad" points="796.5,-.5 796.5,-29.5 2370.5,-29.5 2370.5,-.5 796.5,-.5"/>
<text text-anchor="middle" x="825" y="-11.3" font-family="Times,serif" font-size="14.00" fill="#0058ad">a 35 85</text>
<polyline fill="none" stroke="#0058ad" points="853.5,-.5 853.5,-29.5 "/>
<text text-anchor="middle" x="1612" y="-11.3" font-family="Times,serif" font-size="14.00" fill="#0058ad">r 33 [2 4 9 10 11 12 13 14 15 18 17 19 20 21 23 24 25 26 28 27 30 31 32 33 34 36 37 35 38 40 41 42 39 43 44 45 47 48 49 50 51 52 53 55 54 57 56 58 59 60 61 62 63 64 65 67 68 69 70 71 72 73 75 74 76 77 79 81 82 83 78 84 80 85 86 87 88 89 91 92 93 96 97 98 100 99]</text>
</g>
<!-- T6013&#45;&gt;T6011 -->
<g id="edge1" class="edge">
<title>T6013:f0&#45;&gt;T6011:f0</title>
<path fill="none" stroke="#5b00c0" d="M683.5,-81C683.5,-26.2468 732.1007,-16.0914 786.3209,-15.0893"/>
<polygon fill="#5b00c0" stroke="#5b00c0" points="786.5311,-18.5877 796.5,-15 786.4697,-11.5879 786.5311,-18.5877"/>
<text text-anchor="middle" x="699" y="-51.8" font-family="Times,serif" font-size="14.00" fill="#5b00c0">rw</text>
</g>
<!-- T6011&#45;&gt;T6013 -->
<g id="edge2" class="edge">
<title>T6011:f1&#45;&gt;T6013:f2</title>
<path fill="none" stroke="#5b00c0" d="M1612.5,-30C1612.5,-69.7516 1682.0843,-43.2103 1694.5877,-71.0499"/>
<polygon fill="#5b00c0" stroke="#5b00c0" points="1691.1755,-71.8403 1696.5,-81 1698.0497,-70.5191 1691.1755,-71.8403"/>
<text text-anchor="middle" x="1693" y="-51.8" font-family="Times,serif" font-size="14.00" fill="#5b00c0">rw</text>
</g>
</g>
</svg>
