<?xml version="1.0" encoding="UTF-8" standalone="no"?>
<!DOCTYPE svg PUBLIC "-//W3C//DTD SVG 1.1//EN"
 "http://www.w3.org/Graphics/SVG/1.1/DTD/svg11.dtd">
<!-- Generated by graphviz version 2.40.1 (20161225.0304)
 -->
<!-- Title: a_graph Pages: 1 -->
<svg width="4782pt" height="119pt"
 viewBox="0.00 0.00 4782.00 119.00" xmlns="http://www.w3.org/2000/svg" xmlns:xlink="http://www.w3.org/1999/xlink">
<g id="graph0" class="graph" transform="scale(1 1) rotate(0) translate(4 115)">
<title>a_graph</title>
<polygon fill="#ffffff" stroke="transparent" points="-4,4 -4,-115 4778,-115 4778,4 -4,4"/>
<!-- T35057 -->
<g id="node1" class="node">
<title>T35057</title>
<polygon fill="none" stroke="#0058ad" points="0,-81.5 0,-110.5 3608,-110.5 3608,-81.5 0,-81.5"/>
<text text-anchor="middle" x="1011" y="-92.3" font-family="Times,serif" font-size="14.00" fill="#0058ad">r 160 [1 2 3 5 7 8 9 10 11 13 14 16 18 17 20 21 19 23 22 24 25 26 27 28 29 33 34 35 37 38 39 40 41 42 43 44 45 47 46 48 49 50 51 52 53 55 54 56 57 58 59 60 62 63 64 66 65 67 68 69 70 71 72 73 74 75 76 77 78 79 80 81 82 83 85 86 84 88 89 90 91 92 93 94 95 96 97 98 99 100 101 102 103 105 104 106 107 110 111 112 114 113 115 116 117 118 119 120 121]</text>
<polyline fill="none" stroke="#0058ad" points="2022,-81.5 2022,-110.5 "/>
<text text-anchor="middle" x="2054" y="-92.3" font-family="Times,serif" font-size="14.00" fill="#0058ad">a 175 38</text>
<polyline fill="none" stroke="#0058ad" points="2086,-81.5 2086,-110.5 "/>
<text text-anchor="middle" x="2548.5" y="-92.3" font-family="Times,serif" font-size="14.00" fill="#0058ad">r 164 [1 2 3 4 5 6 7 8 9 10 11 12 13 14 15 16 17 18 19 20 21 22 23 24 25 26 27 28 30 29 31 32 33 34 35 36 37 38 39 40 41 42 43 44 45 46 48 49 50 52 51 53 54 55]</text>
<polyline fill="none" stroke="#0058ad" points="3011,-81.5 3011,-110.5 "/>
<text text-anchor="middle" x="3309.5" y="-92.3" font-family="Times,serif" font-size="14.00" fill="#0058ad">r 175 [1 2 3 4 6 7 8 5 10 9 12 13 11 16 14 15 17 18 20 21 22 19 23 24 27 25 26 29 28 32 33 34 35 36 38]</text>
</g>
<!-- T35059 -->
<g id="node2" class="node">
<title>T35059</title>
<polygon fill="none" stroke="#0058ad" points="2044,-.5 2044,-29.5 4774,-29.5 4774,-.5 2044,-.5"/>
<text text-anchor="middle" x="2076" y="-11.3" font-family="Times,serif" font-size="14.00" fill="#0058ad">a 171 57</text>
<polyline fill="none" stroke="#0058ad" points="2108,-.5 2108,-29.5 "/>
<text text-anchor="middle" x="2140" y="-11.3" font-family="Times,serif" font-size="14.00" fill="#0058ad">a 164 56</text>
<polyline fill="none" stroke="#0058ad" points="2172,-.5 2172,-29.5 "/>
<text text-anchor="middle" x="2462" y="-11.3" font-family="Times,serif" font-size="14.00" fill="#0058ad">r 175 [1 2 3 4 6 7 8 5 10 9 12 13 11 16 14 15 17 18 20 21 22 19 23 24 27 25 26 29 28 32 33 34 35 36]</text>
<polyline fill="none" stroke="#0058ad" points="2752,-.5 2752,-29.5 "/>
<text text-anchor="middle" x="3763" y="-11.3" font-family="Times,serif" font-size="14.00" fill="#0058ad">r 160 [1 2 3 5 7 8 9 10 11 13 14 16 18 17 20 21 19 23 22 24 25 26 27 28 29 33 34 35 37 38 39 40 41 42 43 44 45 47 46 48 49 50 51 52 53 55 54 56 57 58 59 60 62 63 64 66 65 67 68 69 70 71 72 73 74 75 76 77 78 79 80 81 82 83 85 86 84 88 89 90 91 92 93 94 95 96 97 98 99 100 101 102 103 105 104 106 107 110 111 112 114 113 115 116 117 118 119 120 121]</text>
</g>
<!-- T35057&#45;&gt;T35059 -->
<g id="edge1" class="edge">
<title>T35057:f2&#45;&gt;T35059:f1</title>
<path fill="none" stroke="#5b00c0" d="M2549,-81C2549,-66.1884 2297.6514,-65.1721 2283,-63 2222.1338,-53.9763 2148.8455,-90.6565 2140.7385,-40.0821"/>
<polygon fill="#5b00c0" stroke="#5b00c0" points="2144.2213,-39.7176 2140,-30 2137.24,-40.229 2144.2213,-39.7176"/>
<text text-anchor="middle" x="2290.5" y="-51.8" font-family="Times,serif" font-size="14.00" fill="#5b00c0">rw</text>
</g>
<!-- T35059&#45;&gt;T35057 -->
<g id="edge2" class="edge">
<title>T35059:f2&#45;&gt;T35057:f1</title>
<path fill="none" stroke="#5b00c0" d="M2462,-30C2462,-104.3499 2371.6623,-52.912 2298,-63 2274.0125,-66.2851 2099.2088,-56.4331 2061.2574,-73.4435"/>
<polygon fill="#5b00c0" stroke="#5b00c0" points="2058.4026,-71.3632 2054,-81 2063.4513,-76.2121 2058.4026,-71.3632"/>
<text text-anchor="middle" x="2466.5" y="-51.8" font-family="Times,serif" font-size="14.00" fill="#5b00c0">rw</text>
</g>
</g>
</svg>
