<?xml version="1.0" encoding="UTF-8" standalone="no"?>
<!DOCTYPE svg PUBLIC "-//W3C//DTD SVG 1.1//EN"
 "http://www.w3.org/Graphics/SVG/1.1/DTD/svg11.dtd">
<!-- Generated by graphviz version 2.40.1 (20161225.0304)
 -->
<!-- Title: a_graph Pages: 1 -->
<svg width="3527pt" height="200pt"
 viewBox="0.00 0.00 3527.00 200.00" xmlns="http://www.w3.org/2000/svg" xmlns:xlink="http://www.w3.org/1999/xlink">
<g id="graph0" class="graph" transform="scale(1 1) rotate(0) translate(4 196)">
<title>a_graph</title>
<polygon fill="#ffffff" stroke="transparent" points="-4,4 -4,-196 3523,-196 3523,4 -4,4"/>
<!-- T8803 -->
<g id="node1" class="node">
<title>T8803</title>
<polygon fill="none" stroke="#0058ad" points="386.5,-162.5 386.5,-191.5 2832.5,-191.5 2832.5,-162.5 386.5,-162.5"/>
<text text-anchor="middle" x="418.5" y="-173.3" font-family="Times,serif" font-size="14.00" fill="#0058ad">a 47 116</text>
<polyline fill="none" stroke="#0058ad" points="450.5,-162.5 450.5,-191.5 "/>
<text text-anchor="middle" x="1432.5" y="-173.3" font-family="Times,serif" font-size="14.00" fill="#0058ad">r 47 [1 2 3 4 5 6 7 8 9 10 11 12 13 14 15 16 17 18 19 20 21 22 23 24 25 26 27 28 29 30 34 35 31 32 33 38 40 41 42 45 46 47 48 49 50 51 52 54 55 56 59 60 61 62 63 65 66 67 64 69 70 68 71 72 73 74 75 76 77 78 79 80 81 82 83 84 85 86 87 88 89 90 91 92 93 94 95 96 97 98 99 100 101 102 103 104 105 106 107 108 109 110 111 112 113 114 115 116]</text>
<polyline fill="none" stroke="#0058ad" points="2414.5,-162.5 2414.5,-191.5 "/>
<text text-anchor="middle" x="2623.5" y="-173.3" font-family="Times,serif" font-size="14.00" fill="#0058ad">r 48 [1 2 3 4 5 6 7 8 9 10 11 12 13 14 15 16 17 18 19 20 21 22 23 24 25]</text>
</g>
<!-- T8799 -->
<g id="node2" class="node">
<title>T8799</title>
<polygon fill="none" stroke="#0058ad" points="2059,-81.5 2059,-110.5 2116,-110.5 2116,-81.5 2059,-81.5"/>
<text text-anchor="middle" x="2087.5" y="-92.3" font-family="Times,serif" font-size="14.00" fill="#0058ad">a 48 27</text>
</g>
<!-- T8803&#45;&gt;T8799 -->
<g id="edge1" class="edge">
<title>T8803:f2&#45;&gt;T8799:f0</title>
<path fill="none" stroke="#5b00c0" d="M2623.5,-162C2623.5,-107.8202 2209.6121,-125.7022 2124.0487,-112.6522"/>
<polygon fill="#5b00c0" stroke="#5b00c0" points="2124.7369,-109.2204 2114.2316,-110.5947 2123.301,-116.0716 2124.7369,-109.2204"/>
<text text-anchor="middle" x="2606" y="-132.8" font-family="Times,serif" font-size="14.00" fill="#5b00c0">rw</text>
</g>
<!-- T8804 -->
<g id="node3" class="node">
<title>T8804</title>
<polygon fill="none" stroke="#0058ad" points="0,-.5 0,-29.5 3519,-29.5 3519,-.5 0,-.5"/>
<text text-anchor="middle" x="217.5" y="-11.3" font-family="Times,serif" font-size="14.00" fill="#0058ad">r 48 [1 2 3 4 5 6 7 8 9 10 11 12 13 14 15 16 17 18 19 20 21 22 23 24 25 27]</text>
<polyline fill="none" stroke="#0058ad" points="435,-.5 435,-29.5 "/>
<text text-anchor="middle" x="463.5" y="-11.3" font-family="Times,serif" font-size="14.00" fill="#0058ad">a 48 26</text>
<polyline fill="none" stroke="#0058ad" points="492,-.5 492,-29.5 "/>
<text text-anchor="middle" x="1035.5" y="-11.3" font-family="Times,serif" font-size="14.00" fill="#0058ad">r 46 [1 2 3 4 5 6 9 10 11 12 13 14 15 16 17 18 19 20 21 22 23 24 25 26 27 28 29 30 31 32 33 35 36 37 34 38 39 40 41 42 43 44 45 46 47 48 49 50 51 52 53 54 55 56 57 58 59 60 61 62 63 64 65]</text>
<polyline fill="none" stroke="#0058ad" points="1579,-.5 1579,-29.5 "/>
<text text-anchor="middle" x="2549" y="-11.3" font-family="Times,serif" font-size="14.00" fill="#0058ad">r 47 [1 2 3 4 5 6 7 8 9 10 11 12 13 14 15 16 17 18 19 20 21 22 23 24 25 26 27 28 29 30 34 35 31 32 33 38 40 41 42 45 46 47 48 49 50 51 52 54 55 56 59 60 61 62 63 65 66 67 64 69 70 68 71 72 73 74 75 76 77 78 79 80 81 82 83 84 85 86 87 88 89 90 91 92 93 94 95 96 97 98 99 100 101 102 103 104 105 106 107 108 109 110 111 112 113 114 115]</text>
</g>
<!-- T8799&#45;&gt;T8804 -->
<g id="edge2" class="edge">
<title>T8799:f0&#45;&gt;T8804:f1</title>
<path fill="none" stroke="#c02700" d="M2061.0949,-81.4825C2060.5626,-81.3112 2060.0307,-81.15 2059.5,-81 1821.2923,-13.6496 1750.8645,-57.4773 1503.5,-48 1489.8957,-47.4788 578.3235,-44.7842 473.3243,-32.3848"/>
<polygon fill="#c02700" stroke="#c02700" points="474.0435,-28.9578 463.5,-30 472.3921,-35.7603 474.0435,-28.9578"/>
<text text-anchor="middle" x="1989.5" y="-51.8" font-family="Times,serif" font-size="14.00" fill="#c02700">ww</text>
</g>
<!-- T8804&#45;&gt;T8803 -->
<g id="edge3" class="edge">
<title>T8804:f3&#45;&gt;T8803:f0</title>
<path fill="none" stroke="#5b00c0" d="M2549.5,-30C2549.5,-44.5299 1518.003,-47.115 1503.5,-48 1264.9384,-62.5574 442.2538,76.4144 419.003,-151.9315"/>
<polygon fill="#5b00c0" stroke="#5b00c0" points="415.5034,-151.8378 418.5,-162 422.4947,-152.1871 415.5034,-151.8378"/>
<text text-anchor="middle" x="468" y="-92.3" font-family="Times,serif" font-size="14.00" fill="#5b00c0">rw</text>
</g>
</g>
</svg>
