<?xml version="1.0" encoding="UTF-8" standalone="no"?>
<!DOCTYPE svg PUBLIC "-//W3C//DTD SVG 1.1//EN"
 "http://www.w3.org/Graphics/SVG/1.1/DTD/svg11.dtd">
<!-- Generated by graphviz version 2.40.1 (20161225.0304)
 -->
<!-- Title: a_graph Pages: 1 -->
<svg width="820pt" height="119pt"
 viewBox="0.00 0.00 820.00 119.00" xmlns="http://www.w3.org/2000/svg" xmlns:xlink="http://www.w3.org/1999/xlink">
<g id="graph0" class="graph" transform="scale(1 1) rotate(0) translate(4 115)">
<title>a_graph</title>
<polygon fill="#ffffff" stroke="transparent" points="-4,4 -4,-115 816,-115 816,4 -4,4"/>
<!-- T4117 -->
<g id="node1" class="node">
<title>T4117</title>
<polygon fill="none" stroke="#0058ad" points="71,-81.5 71,-110.5 217,-110.5 217,-81.5 71,-81.5"/>
<text text-anchor="middle" x="99.5" y="-92.3" font-family="Times,serif" font-size="14.00" fill="#0058ad">a 26 23</text>
<polyline fill="none" stroke="#0058ad" points="128,-81.5 128,-110.5 "/>
<text text-anchor="middle" x="172.5" y="-92.3" font-family="Times,serif" font-size="14.00" fill="#0058ad">r 27 [1 2 3 4]</text>
</g>
<!-- T4113 -->
<g id="node2" class="node">
<title>T4113</title>
<polygon fill="none" stroke="#0058ad" points="0,-.5 0,-29.5 812,-29.5 812,-.5 0,-.5"/>
<text text-anchor="middle" x="25" y="-11.3" font-family="Times,serif" font-size="14.00" fill="#0058ad">a 27 5</text>
<polyline fill="none" stroke="#0058ad" points="50,-.5 50,-29.5 "/>
<text text-anchor="middle" x="228" y="-11.3" font-family="Times,serif" font-size="14.00" fill="#0058ad">r 26 [1 2 3 4 6 7 8 9 10 12 13 14 11 15 17 18 19 20 21 16 22]</text>
<polyline fill="none" stroke="#0058ad" points="406,-.5 406,-29.5 "/>
<text text-anchor="middle" x="431" y="-11.3" font-family="Times,serif" font-size="14.00" fill="#0058ad">a 27 6</text>
<polyline fill="none" stroke="#0058ad" points="456,-.5 456,-29.5 "/>
<text text-anchor="middle" x="634" y="-11.3" font-family="Times,serif" font-size="14.00" fill="#0058ad">r 26 [1 2 3 4 6 7 8 9 10 12 13 14 11 15 17 18 19 20 21 16 22]</text>
</g>
<!-- T4117&#45;&gt;T4113 -->
<g id="edge1" class="edge">
<title>T4117:f1&#45;&gt;T4113:f0</title>
<path fill="none" stroke="#5b00c0" d="M173,-81C173,-55.8388 150.1898,-57.7632 127,-48 109.184,-40.4992 49.3489,-49.136 30.6399,-38.4603"/>
<polygon fill="#5b00c0" stroke="#5b00c0" points="33.4591,-36.3792 25,-30 27.6346,-40.262 33.4591,-36.3792"/>
<text text-anchor="middle" x="172.5" y="-51.8" font-family="Times,serif" font-size="14.00" fill="#5b00c0">rw</text>
</g>
<!-- T4113&#45;&gt;T4117 -->
<g id="edge2" class="edge">
<title>T4113:f1&#45;&gt;T4117:f0</title>
<path fill="none" stroke="#5b00c0" d="M228,-30C228,-56.965 128.1526,-30.0839 108,-48 99.4788,-55.5756 98.6769,-61.799 98.8085,-70.8507"/>
<polygon fill="#5b00c0" stroke="#5b00c0" points="95.3119,-71.0678 99,-81 102.3107,-70.9357 95.3119,-71.0678"/>
<text text-anchor="middle" x="115.5" y="-51.8" font-family="Times,serif" font-size="14.00" fill="#5b00c0">rw</text>
</g>
</g>
</svg>
