<?xml version="1.0" encoding="UTF-8" standalone="no"?>
<!DOCTYPE svg PUBLIC "-//W3C//DTD SVG 1.1//EN"
 "http://www.w3.org/Graphics/SVG/1.1/DTD/svg11.dtd">
<!-- Generated by graphviz version 2.40.1 (20161225.0304)
 -->
<!-- Title: a_graph Pages: 1 -->
<svg width="3647pt" height="119pt"
 viewBox="0.00 0.00 3647.00 119.00" xmlns="http://www.w3.org/2000/svg" xmlns:xlink="http://www.w3.org/1999/xlink">
<g id="graph0" class="graph" transform="scale(1 1) rotate(0) translate(4 115)">
<title>a_graph</title>
<polygon fill="#ffffff" stroke="transparent" points="-4,4 -4,-115 3643,-115 3643,4 -4,4"/>
<!-- T30033 -->
<g id="node1" class="node">
<title>T30033</title>
<polygon fill="none" stroke="#0058ad" points="701,-81.5 701,-110.5 3639,-110.5 3639,-81.5 701,-81.5"/>
<text text-anchor="middle" x="1520.5" y="-92.3" font-family="Times,serif" font-size="14.00" fill="#0058ad">r 151 [1 2 3 4 5 7 8 9 10 11 12 13 14 15 16 17 18 19 20 21 22 23 24 25 26 27 28 29 30 31 32 33 34 35 36 37 38 39 40 41 42 43 44 45 46 47 48 50 51 52 53 54 55 56 57 60 61 58 59 62 63 64 66 65 68 70 69 71 72 73 74 75 76 77 67 78 79 80 81 82 83 84 85 86 87 88 89 90 91 93 95 96 97 98 99]</text>
<polyline fill="none" stroke="#0058ad" points="2340,-81.5 2340,-110.5 "/>
<text text-anchor="middle" x="2372" y="-92.3" font-family="Times,serif" font-size="14.00" fill="#0058ad">a 147 55</text>
<polyline fill="none" stroke="#0058ad" points="2404,-81.5 2404,-110.5 "/>
<text text-anchor="middle" x="3021.5" y="-92.3" font-family="Times,serif" font-size="14.00" fill="#0058ad">r 148 [1 2 3 4 5 6 7 8 9 10 11 12 15 16 17 18 19 20 21 22 23 24 25 26 27 28 29 30 31 32 33 34 35 36 37 39 40 41 42 43 44 45 46 47 48 49 50 51 52 53 54 55 56 57 58 59 60 61 62 63 64 65 66 67 68 69 70 71 72 73 74 75]</text>
</g>
<!-- T30031 -->
<g id="node2" class="node">
<title>T30031</title>
<polygon fill="none" stroke="#0058ad" points="0,-.5 0,-29.5 2588,-29.5 2588,-.5 0,-.5"/>
<text text-anchor="middle" x="819.5" y="-11.3" font-family="Times,serif" font-size="14.00" fill="#0058ad">r 151 [1 2 3 4 5 7 8 9 10 11 12 13 14 15 16 17 18 19 20 21 22 23 24 25 26 27 28 29 30 31 32 33 34 35 36 37 38 39 40 41 42 43 44 45 46 47 48 50 51 52 53 54 55 56 57 60 61 58 59 62 63 64 66 65 68 70 69 71 72 73 74 75 76 77 67 78 79 80 81 82 83 84 85 86 87 88 89 90 91 93 95 96 97 98 99]</text>
<polyline fill="none" stroke="#0058ad" points="1639,-.5 1639,-29.5 "/>
<text text-anchor="middle" x="1674.5" y="-11.3" font-family="Times,serif" font-size="14.00" fill="#0058ad">a 151 100</text>
<polyline fill="none" stroke="#0058ad" points="1710,-.5 1710,-29.5 "/>
<text text-anchor="middle" x="2113.5" y="-11.3" font-family="Times,serif" font-size="14.00" fill="#0058ad">r 147 [3 5 6 7 8 9 10 11 12 13 14 15 18 19 20 21 22 23 24 25 26 27 28 29 30 32 33 34 35 36 37 39 40 41 42 43 44 45 46 47 49 50 51 52 53 54]</text>
<polyline fill="none" stroke="#0058ad" points="2517,-.5 2517,-29.5 "/>
<text text-anchor="middle" x="2552.5" y="-11.3" font-family="Times,serif" font-size="14.00" fill="#0058ad">a 151 101</text>
</g>
<!-- T30033&#45;&gt;T30031 -->
<g id="edge1" class="edge">
<title>T30033:f0&#45;&gt;T30031:f1</title>
<path fill="none" stroke="#5b00c0" d="M1520,-81C1520,-12.3023 1659.0834,-93.0666 1673.7523,-40.1325"/>
<polygon fill="#5b00c0" stroke="#5b00c0" points="1677.2516,-40.3528 1675,-30 1670.304,-39.4973 1677.2516,-40.3528"/>
<text text-anchor="middle" x="1676.5" y="-51.8" font-family="Times,serif" font-size="14.00" fill="#5b00c0">rw</text>
</g>
<!-- T30031&#45;&gt;T30033 -->
<g id="edge2" class="edge">
<title>T30031:f2&#45;&gt;T30033:f1</title>
<path fill="none" stroke="#5b00c0" d="M2114,-30C2114,-143.2328 2356.127,24.755 2371.2599,-70.9016"/>
<polygon fill="#5b00c0" stroke="#5b00c0" points="2367.7783,-71.2826 2372,-81 2374.7596,-70.7709 2367.7783,-71.2826"/>
<text text-anchor="middle" x="2374.5" y="-51.8" font-family="Times,serif" font-size="14.00" fill="#5b00c0">rw</text>
</g>
</g>
</svg>
