<?xml version="1.0" encoding="UTF-8" standalone="no"?>
<!DOCTYPE svg PUBLIC "-//W3C//DTD SVG 1.1//EN"
 "http://www.w3.org/Graphics/SVG/1.1/DTD/svg11.dtd">
<!-- Generated by graphviz version 2.40.1 (20161225.0304)
 -->
<!-- Title: a_graph Pages: 1 -->
<svg width="3271pt" height="119pt"
 viewBox="0.00 0.00 3271.00 119.00" xmlns="http://www.w3.org/2000/svg" xmlns:xlink="http://www.w3.org/1999/xlink">
<g id="graph0" class="graph" transform="scale(1 1) rotate(0) translate(4 115)">
<title>a_graph</title>
<polygon fill="#ffffff" stroke="transparent" points="-4,4 -4,-115 3267,-115 3267,4 -4,4"/>
<!-- T4915 -->
<g id="node1" class="node">
<title>T4915</title>
<polygon fill="none" stroke="#0058ad" points="0,-81.5 0,-110.5 3263,-110.5 3263,-81.5 0,-81.5"/>
<text text-anchor="middle" x="398.5" y="-92.3" font-family="Times,serif" font-size="14.00" fill="#0058ad">r 4 [1 2 3 4 5 7 8 9 10 11 13 15 14 17 16 18 19 20 21 22 23 24 25 26 27 28 29 30 31 32 33 34 35 36 37 38 39 40 41 42 43 44 45 46 47 48 49]</text>
<polyline fill="none" stroke="#0058ad" points="797,-81.5 797,-110.5 "/>
<text text-anchor="middle" x="1004" y="-92.3" font-family="Times,serif" font-size="14.00" fill="#0058ad">r 3 [2 3 4 5 6 8 10 11 12 13 14 15 17 18 19 20 21 22 23 25 26 27 28 29]</text>
<polyline fill="none" stroke="#0058ad" points="1211,-81.5 1211,-110.5 "/>
<text text-anchor="middle" x="1243" y="-92.3" font-family="Times,serif" font-size="14.00" fill="#0058ad">a 28 123</text>
<polyline fill="none" stroke="#0058ad" points="1275,-81.5 1275,-110.5 "/>
<text text-anchor="middle" x="2269" y="-92.3" font-family="Times,serif" font-size="14.00" fill="#0058ad">r 28 [4 1 2 3 5 7 6 8 10 11 12 13 14 15 16 9 17 18 19 20 23 25 24 28 29 31 30 32 33 34 35 36 37 38 39 40 41 42 43 44 45 46 47 48 49 50 51 54 55 56 57 58 59 60 61 62 63 65 66 64 70 73 67 68 69 74 75 71 72 76 77 78 79 80 81 82 84 85 83 86 87 89 88 90 93 94 95 96 97 98 99 100 102 103 105 106 109 112 111 114 115 116 117 119 120 124 125 126 123]</text>
</g>
<!-- T4911 -->
<g id="node2" class="node">
<title>T4911</title>
<polygon fill="none" stroke="#0058ad" points="291,-.5 291,-29.5 2694,-29.5 2694,-.5 291,-.5"/>
<text text-anchor="middle" x="316" y="-11.3" font-family="Times,serif" font-size="14.00" fill="#0058ad">a 3 31</text>
<polyline fill="none" stroke="#0058ad" points="341,-.5 341,-29.5 "/>
<text text-anchor="middle" x="507" y="-11.3" font-family="Times,serif" font-size="14.00" fill="#0058ad">r 29 [1 2 3 6 4 5 7 8 9 11 13 14 17 18 19 20 21 22 23 24]</text>
<polyline fill="none" stroke="#0058ad" points="673,-.5 673,-29.5 "/>
<text text-anchor="middle" x="1655" y="-11.3" font-family="Times,serif" font-size="14.00" fill="#0058ad">r 28 [4 1 2 3 5 7 6 8 10 11 12 13 14 15 16 9 17 18 19 20 23 25 24 28 29 31 30 32 33 34 35 36 37 38 39 40 41 42 43 44 45 46 47 48 49 50 51 54 55 56 57 58 59 60 61 62 63 65 66 64 70 73 67 68 69 74 75 71 72 76 77 78 79 80 81 82 84 85 83 86 87 89 88 90 93 94 95 96 97 98 99 100 102 103 105 106 109 112 111 114 115 116 117 119 120 124 125 126]</text>
<polyline fill="none" stroke="#0058ad" points="2637,-.5 2637,-29.5 "/>
<text text-anchor="middle" x="2665.5" y="-11.3" font-family="Times,serif" font-size="14.00" fill="#0058ad">a 24 50</text>
</g>
<!-- T4915&#45;&gt;T4911 -->
<g id="edge1" class="edge">
<title>T4915:f1&#45;&gt;T4911:f0</title>
<path fill="none" stroke="#5b00c0" d="M1003.5,-81C1003.5,68.7152 347.3721,-171.551 316.6161,-40.1161"/>
<polygon fill="#5b00c0" stroke="#5b00c0" points="320.0756,-39.5558 315.5,-30 313.1178,-40.3235 320.0756,-39.5558"/>
<text text-anchor="middle" x="1004" y="-51.8" font-family="Times,serif" font-size="14.00" fill="#5b00c0">rw</text>
</g>
<!-- T4911&#45;&gt;T4915 -->
<g id="edge2" class="edge">
<title>T4911:f2&#45;&gt;T4915:f2</title>
<path fill="none" stroke="#5b00c0" d="M1655.5,-30C1655.5,-211.3375 1258.4753,91.685 1242.9665,-70.7322"/>
<polygon fill="#5b00c0" stroke="#5b00c0" points="1239.4576,-70.8514 1242.5,-81 1246.4503,-71.1692 1239.4576,-70.8514"/>
<text text-anchor="middle" x="1661" y="-51.8" font-family="Times,serif" font-size="14.00" fill="#5b00c0">rw</text>
</g>
</g>
</svg>
