<?xml version="1.0" encoding="UTF-8" standalone="no"?>
<!DOCTYPE svg PUBLIC "-//W3C//DTD SVG 1.1//EN"
 "http://www.w3.org/Graphics/SVG/1.1/DTD/svg11.dtd">
<!-- Generated by graphviz version 2.40.1 (20161225.0304)
 -->
<!-- Title: a_graph Pages: 1 -->
<svg width="5227pt" height="119pt"
 viewBox="0.00 0.00 5226.50 119.00" xmlns="http://www.w3.org/2000/svg" xmlns:xlink="http://www.w3.org/1999/xlink">
<g id="graph0" class="graph" transform="scale(1 1) rotate(0) translate(4 115)">
<title>a_graph</title>
<polygon fill="#ffffff" stroke="transparent" points="-4,4 -4,-115 5222.5,-115 5222.5,4 -4,4"/>
<!-- T32079 -->
<g id="node1" class="node">
<title>T32079</title>
<polygon fill="none" stroke="#0058ad" points="0,-81.5 0,-110.5 4269,-110.5 4269,-81.5 0,-81.5"/>
<text text-anchor="middle" x="848.5" y="-92.3" font-family="Times,serif" font-size="14.00" fill="#0058ad">r 155 [1 2 3 4 5 6 7 8 9 10 11 12 14 15 16 17 18 19 20 21 22 23 24 25 26 27 28 29 30 31 33 34 35 36 37 38 39 40 41 42 43 44 45 46 47 48 49 51 53 54 55 57 58 59 60 62 63 64 65 66 67 68 69 71 70 73 74 75 76 77 78 79 80 81 82 83 84 85 86 87 88 89 90 91 92 93 94 98 99 100 101 102 103 104 105 106]</text>
<polyline fill="none" stroke="#0058ad" points="1697,-81.5 1697,-110.5 "/>
<text text-anchor="middle" x="2099" y="-92.3" font-family="Times,serif" font-size="14.00" fill="#0058ad">r 161 [1 2 3 4 5 6 7 8 9 10 11 12 14 15 17 16 18 19 20 21 28 31 32 33 34 35 36 39 37 38 40 41 42 43 44 45 46 48 47 49 52 53 54 55 50 51 56]</text>
<polyline fill="none" stroke="#0058ad" points="2501,-81.5 2501,-110.5 "/>
<text text-anchor="middle" x="2536.5" y="-92.3" font-family="Times,serif" font-size="14.00" fill="#0058ad">a 159 103</text>
<polyline fill="none" stroke="#0058ad" points="2572,-81.5 2572,-110.5 "/>
<text text-anchor="middle" x="3420.5" y="-92.3" font-family="Times,serif" font-size="14.00" fill="#0058ad">r 155 [1 2 3 4 5 6 7 8 9 10 11 12 14 15 16 17 18 19 20 21 22 23 24 25 26 27 28 29 30 31 33 34 35 36 37 38 39 40 41 42 43 44 45 46 47 48 49 51 53 54 55 57 58 59 60 62 63 64 65 66 67 68 69 71 70 73 74 75 76 77 78 79 80 81 82 83 84 85 86 87 88 89 90 91 92 93 94 98 99 100 101 102 103 104 105 106]</text>
</g>
<!-- T32075 -->
<g id="node2" class="node">
<title>T32075</title>
<polygon fill="none" stroke="#0058ad" points="1972.5,-.5 1972.5,-29.5 5218.5,-29.5 5218.5,-.5 1972.5,-.5"/>
<text text-anchor="middle" x="2004.5" y="-11.3" font-family="Times,serif" font-size="14.00" fill="#0058ad">a 161 57</text>
<polyline fill="none" stroke="#0058ad" points="2036.5,-.5 2036.5,-29.5 "/>
<text text-anchor="middle" x="2072" y="-11.3" font-family="Times,serif" font-size="14.00" fill="#0058ad">a 155 107</text>
<polyline fill="none" stroke="#0058ad" points="2107.5,-.5 2107.5,-29.5 "/>
<text text-anchor="middle" x="2818" y="-11.3" font-family="Times,serif" font-size="14.00" fill="#0058ad">r 159 [1 2 3 4 5 6 7 8 9 10 11 12 13 14 15 16 17 18 19 20 21 22 23 24 25 26 27 28 29 30 31 32 33 34 35 36 37 38 39 40 41 44 45 46 47 48 61 62 63 64 69 70 71 72 73 75 76 74 77 78 79 80 81 83 82 85 84 86 87 88 90 91 89 92 94 95 96 93 97 98 100 101]</text>
<polyline fill="none" stroke="#0058ad" points="3528.5,-.5 3528.5,-29.5 "/>
<text text-anchor="middle" x="4373.5" y="-11.3" font-family="Times,serif" font-size="14.00" fill="#0058ad">r 2 [1 2 3 4 5 6 7 9 10 12 13 14 15 16 17 18 19 20 22 23 25 26 27 29 30 31 32 33 35 36 37 38 39 40 41 42 43 44 45 46 47 48 50 51 52 53 54 55 56 57 59 60 61 62 63 64 65 66 67 68 69 70 71 72 73 74 75 76 77 78 79 80 81 83 84 85 86 87 88 89 90 91 92 93 95 96 97 98 99 100 101 102 103 104 105 106]</text>
</g>
<!-- T32079&#45;&gt;T32075 -->
<g id="edge1" class="edge">
<title>T32079:f1&#45;&gt;T32075:f0</title>
<path fill="none" stroke="#5b00c0" d="M2098.5,-81C2098.5,-37.3684 2019.2893,-70.9182 2006.2938,-39.9491"/>
<polygon fill="#5b00c0" stroke="#5b00c0" points="2009.7189,-39.2202 2004.5,-30 2002.83,-40.4624 2009.7189,-39.2202"/>
<text text-anchor="middle" x="2097" y="-51.8" font-family="Times,serif" font-size="14.00" fill="#5b00c0">rw</text>
</g>
<!-- T32075&#45;&gt;T32079 -->
<g id="edge2" class="edge">
<title>T32075:f2&#45;&gt;T32079:f2</title>
<path fill="none" stroke="#5b00c0" d="M2817.5,-30C2817.5,-153.3345 2552.1906,34.7036 2537.1634,-70.9945"/>
<polygon fill="#5b00c0" stroke="#5b00c0" points="2533.6693,-70.7903 2536.5,-81 2540.654,-71.2535 2533.6693,-70.7903"/>
<text text-anchor="middle" x="2822" y="-51.8" font-family="Times,serif" font-size="14.00" fill="#5b00c0">rw</text>
</g>
</g>
</svg>
