<?xml version="1.0" encoding="UTF-8" standalone="no"?>
<!DOCTYPE svg PUBLIC "-//W3C//DTD SVG 1.1//EN"
 "http://www.w3.org/Graphics/SVG/1.1/DTD/svg11.dtd">
<!-- Generated by graphviz version 2.40.1 (20161225.0304)
 -->
<!-- Title: a_graph Pages: 1 -->
<svg width="6020pt" height="119pt"
 viewBox="0.00 0.00 6020.00 119.00" xmlns="http://www.w3.org/2000/svg" xmlns:xlink="http://www.w3.org/1999/xlink">
<g id="graph0" class="graph" transform="scale(1 1) rotate(0) translate(4 115)">
<title>a_graph</title>
<polygon fill="#ffffff" stroke="transparent" points="-4,4 -4,-115 6016,-115 6016,4 -4,4"/>
<!-- T23705 -->
<g id="node1" class="node">
<title>T23705</title>
<polygon fill="none" stroke="#0058ad" points="1820,-81.5 1820,-110.5 3984,-110.5 3984,-81.5 1820,-81.5"/>
<text text-anchor="middle" x="1855.5" y="-92.3" font-family="Times,serif" font-size="14.00" fill="#0058ad">a 114 103</text>
<polyline fill="none" stroke="#0058ad" points="1891,-81.5 1891,-110.5 "/>
<text text-anchor="middle" x="1926.5" y="-92.3" font-family="Times,serif" font-size="14.00" fill="#0058ad">a 114 104</text>
<polyline fill="none" stroke="#0058ad" points="1962,-81.5 1962,-110.5 "/>
<text text-anchor="middle" x="1997.5" y="-92.3" font-family="Times,serif" font-size="14.00" fill="#0058ad">a 117 121</text>
<polyline fill="none" stroke="#0058ad" points="2033,-81.5 2033,-110.5 "/>
<text text-anchor="middle" x="3008.5" y="-92.3" font-family="Times,serif" font-size="14.00" fill="#0058ad">r 118 [1 2 3 4 5 6 7 8 9 10 11 12 13 14 15 16 17 18 19 20 21 22 23 24 25 26 27 28 29 30 31 32 33 34 35 36 37 38 39 40 41 43 42 44 45 47 46 48 49 50 51 53 54 55 56 58 57 60 62 59 64 65 68 69 70 71 72 73 74 75 76 63 77 78 80 81 82 79 83 84 85 86 87 88 89 90 91 92 93 94 95 96 97 98 100 101 102 103 104 105 108 109 110 111 112 113 114 115]</text>
</g>
<!-- T23706 -->
<g id="node2" class="node">
<title>T23706</title>
<polygon fill="none" stroke="#0058ad" points="0,-.5 0,-29.5 6012,-29.5 6012,-.5 0,-.5"/>
<text text-anchor="middle" x="975.5" y="-11.3" font-family="Times,serif" font-size="14.00" fill="#0058ad">r 118 [1 2 3 4 5 6 7 8 9 10 11 12 13 14 15 16 17 18 19 20 21 22 23 24 25 26 27 28 29 30 31 32 33 34 35 36 37 38 39 40 41 43 42 44 45 47 46 48 49 50 51 53 54 55 56 58 57 60 62 59 64 65 68 69 70 71 72 73 74 75 76 63 77 78 80 81 82 79 83 84 85 86 87 88 89 90 91 92 93 94 95 96 97 98 100 101 102 103 104 105 108 109 110 111 112 113 114 115]</text>
<polyline fill="none" stroke="#0058ad" points="1951,-.5 1951,-29.5 "/>
<text text-anchor="middle" x="1986.5" y="-11.3" font-family="Times,serif" font-size="14.00" fill="#0058ad">a 118 116</text>
<polyline fill="none" stroke="#0058ad" points="2022,-.5 2022,-29.5 "/>
<text text-anchor="middle" x="3019.5" y="-11.3" font-family="Times,serif" font-size="14.00" fill="#0058ad">r 117 [1 2 3 4 5 6 7 8 9 10 11 12 13 14 15 16 17 18 19 20 21 22 23 24 25 27 26 28 32 33 34 35 36 37 38 39 40 41 42 43 44 45 46 47 48 49 50 51 52 53 55 56 57 58 59 60 61 62 63 64 65 66 67 68 69 70 72 73 75 74 76 77 78 79 80 82 84 87 88 89 90 91 92 93 94 95 81 96 97 100 98 99 101 102 103 104 106 107 108 111 112 113 114 115 116 118 119 117 120]</text>
<polyline fill="none" stroke="#0058ad" points="4017,-.5 4017,-29.5 "/>
<text text-anchor="middle" x="5014.5" y="-11.3" font-family="Times,serif" font-size="14.00" fill="#0058ad">r 117 [1 2 3 4 5 6 7 8 9 10 11 12 13 14 15 16 17 18 19 20 21 22 23 24 25 27 26 28 32 33 34 35 36 37 38 39 40 41 42 43 44 45 46 47 48 49 50 51 52 53 55 56 57 58 59 60 61 62 63 64 65 66 67 68 69 70 72 73 75 74 76 77 78 79 80 82 84 87 88 89 90 91 92 93 94 95 81 96 97 100 98 99 101 102 103 104 106 107 108 111 112 113 114 115 116 118 119 117 120]</text>
</g>
<!-- T23705&#45;&gt;T23706 -->
<g id="edge1" class="edge">
<title>T23705:f3&#45;&gt;T23706:f1</title>
<path fill="none" stroke="#5b00c0" d="M3009,-81C3009,-67.5937 2100.4887,-46.7967 1995.7969,-32.5387"/>
<polygon fill="#5b00c0" stroke="#5b00c0" points="1996.5583,-29.1204 1986,-30 1994.8023,-35.8966 1996.5583,-29.1204"/>
<text text-anchor="middle" x="2685.5" y="-51.8" font-family="Times,serif" font-size="14.00" fill="#5b00c0">rw</text>
</g>
<!-- T23706&#45;&gt;T23705 -->
<g id="edge2" class="edge">
<title>T23706:f2&#45;&gt;T23705:f2</title>
<path fill="none" stroke="#5b00c0" d="M3020,-30C3020,-50.0896 2317.0442,-46.6505 2297,-48 2166.6943,-56.7731 2005.7402,47.4118 1997.3429,-70.8923"/>
<polygon fill="#5b00c0" stroke="#5b00c0" points="1993.8412,-70.887 1997,-81 2000.8372,-71.1245 1993.8412,-70.887"/>
<text text-anchor="middle" x="2304.5" y="-51.8" font-family="Times,serif" font-size="14.00" fill="#5b00c0">rw</text>
</g>
</g>
</svg>
