<?xml version="1.0" encoding="UTF-8" standalone="no"?>
<!DOCTYPE svg PUBLIC "-//W3C//DTD SVG 1.1//EN"
 "http://www.w3.org/Graphics/SVG/1.1/DTD/svg11.dtd">
<!-- Generated by graphviz version 2.40.1 (20161225.0304)
 -->
<!-- Title: a_graph Pages: 1 -->
<svg width="1656pt" height="119pt"
 viewBox="0.00 0.00 1656.00 119.00" xmlns="http://www.w3.org/2000/svg" xmlns:xlink="http://www.w3.org/1999/xlink">
<g id="graph0" class="graph" transform="scale(1 1) rotate(0) translate(4 115)">
<title>a_graph</title>
<polygon fill="#ffffff" stroke="transparent" points="-4,4 -4,-115 1652,-115 1652,4 -4,4"/>
<!-- T21449 -->
<g id="node1" class="node">
<title>T21449</title>
<polygon fill="none" stroke="#0058ad" points="0,-81.5 0,-110.5 1156,-110.5 1156,-81.5 0,-81.5"/>
<text text-anchor="middle" x="32" y="-92.3" font-family="Times,serif" font-size="14.00" fill="#0058ad">a 109 34</text>
<polyline fill="none" stroke="#0058ad" points="64,-81.5 64,-110.5 "/>
<text text-anchor="middle" x="578" y="-92.3" font-family="Times,serif" font-size="14.00" fill="#0058ad">r 108 [1 2 3 4 6 7 8 9 10 11 12 14 15 5 17 16 20 21 23 22 26 27 28 33 34 35 31 37 38 40 43 44 39 47 48 46 49 52 53 50 51 55 56 57 54 59 60 61 62 63 64 58 66 65 67 68 69 70 71 72]</text>
<polyline fill="none" stroke="#0058ad" points="1092,-81.5 1092,-110.5 "/>
<text text-anchor="middle" x="1124" y="-92.3" font-family="Times,serif" font-size="14.00" fill="#0058ad">a 106 56</text>
</g>
<!-- T21453 -->
<g id="node2" class="node">
<title>T21453</title>
<polygon fill="none" stroke="#0058ad" points="578,-.5 578,-29.5 1648,-29.5 1648,-.5 578,-.5"/>
<text text-anchor="middle" x="610" y="-11.3" font-family="Times,serif" font-size="14.00" fill="#0058ad">a 108 73</text>
<polyline fill="none" stroke="#0058ad" points="642,-.5 642,-29.5 "/>
<text text-anchor="middle" x="1113" y="-11.3" font-family="Times,serif" font-size="14.00" fill="#0058ad">r 106 [1 2 3 4 5 6 7 8 10 9 11 12 13 14 15 16 17 18 19 21 20 22 23 24 25 26 27 28 29 31 30 32 33 34 36 35 37 39 38 41 40 42 43 44 45 46 47 48 50 51 49 52 53 54 55]</text>
<polyline fill="none" stroke="#0058ad" points="1584,-.5 1584,-29.5 "/>
<text text-anchor="middle" x="1616" y="-11.3" font-family="Times,serif" font-size="14.00" fill="#0058ad">a 108 74</text>
</g>
<!-- T21449&#45;&gt;T21453 -->
<g id="edge1" class="edge">
<title>T21449:f1&#45;&gt;T21453:f0</title>
<path fill="none" stroke="#5b00c0" d="M578,-81C578,-58.213 601.2051,-56.6566 608.0941,-40.1724"/>
<polygon fill="#5b00c0" stroke="#5b00c0" points="611.5985,-40.4735 610,-30 604.7182,-39.1844 611.5985,-40.4735"/>
<text text-anchor="middle" x="610.5" y="-51.8" font-family="Times,serif" font-size="14.00" fill="#5b00c0">rw</text>
</g>
<!-- T21453&#45;&gt;T21449 -->
<g id="edge2" class="edge">
<title>T21453:f1&#45;&gt;T21449:f2</title>
<path fill="none" stroke="#5b00c0" d="M1113,-30C1113,-49.3836 1120.6867,-55.7951 1123.2089,-70.9223"/>
<polygon fill="#5b00c0" stroke="#5b00c0" points="1119.7281,-71.3046 1124,-81 1126.7066,-70.7567 1119.7281,-71.3046"/>
<text text-anchor="middle" x="1128.5" y="-51.8" font-family="Times,serif" font-size="14.00" fill="#5b00c0">rw</text>
</g>
</g>
</svg>
