<?xml version="1.0" encoding="UTF-8" standalone="no"?>
<!DOCTYPE svg PUBLIC "-//W3C//DTD SVG 1.1//EN"
 "http://www.w3.org/Graphics/SVG/1.1/DTD/svg11.dtd">
<!-- Generated by graphviz version 2.40.1 (20161225.0304)
 -->
<!-- Title: a_graph Pages: 1 -->
<svg width="3093pt" height="281pt"
 viewBox="0.00 0.00 3092.50 281.00" xmlns="http://www.w3.org/2000/svg" xmlns:xlink="http://www.w3.org/1999/xlink">
<g id="graph0" class="graph" transform="scale(1 1) rotate(0) translate(4 277)">
<title>a_graph</title>
<polygon fill="#ffffff" stroke="transparent" points="-4,4 -4,-277 3088.5,-277 3088.5,4 -4,4"/>
<!-- T15679 -->
<g id="node1" class="node">
<title>T15679</title>
<polygon fill="none" stroke="#0058ad" points="921.5,-243.5 921.5,-272.5 978.5,-272.5 978.5,-243.5 921.5,-243.5"/>
<text text-anchor="middle" x="950" y="-254.3" font-family="Times,serif" font-size="14.00" fill="#0058ad">a 81 60</text>
</g>
<!-- T15681 -->
<g id="node2" class="node">
<title>T15681</title>
<polygon fill="none" stroke="#0058ad" points="51,-162.5 51,-191.5 1055,-191.5 1055,-162.5 51,-162.5"/>
<text text-anchor="middle" x="553" y="-173.3" font-family="Times,serif" font-size="14.00" fill="#0058ad">r 80 [1 2 3 4 5 6 7 8 9 10 11 13 14 15 16 17 18 19 20 22 23 21 24 27 28 29 30 34 31 36 37 38 39 40 41 43 44 45 46 47 48 50 51 52 53 55 56 57 58 59 60 61 62 63 64 65 68 66 67]</text>
</g>
<!-- T15679&#45;&gt;T15681 -->
<g id="edge1" class="edge">
<title>T15679&#45;&gt;T15681</title>
<path fill="none" stroke="#0050c0" d="M921.4487,-252.1747C862.0704,-240.0597 723.3822,-211.7631 634.118,-193.5505"/>
<polygon fill="#0050c0" stroke="#0050c0" points="634.7922,-190.116 624.2943,-191.5462 633.3928,-196.9747 634.7922,-190.116"/>
<text text-anchor="middle" x="792.5" y="-213.8" font-family="Times,serif" font-size="14.00" fill="#0050c0">rt</text>
</g>
<!-- T15683 -->
<g id="node3" class="node">
<title>T15683</title>
<polygon fill="none" stroke="#0058ad" points="0,-81.5 0,-110.5 1004,-110.5 1004,-81.5 0,-81.5"/>
<text text-anchor="middle" x="502" y="-92.3" font-family="Times,serif" font-size="14.00" fill="#0058ad">r 80 [1 2 3 4 5 6 7 8 9 10 11 13 14 15 16 17 18 19 20 22 23 21 24 27 28 29 30 34 31 36 37 38 39 40 41 43 44 45 46 47 48 50 51 52 53 55 56 57 58 59 60 61 62 63 64 65 68 66 67]</text>
</g>
<!-- T15681&#45;&gt;T15683 -->
<g id="edge3" class="edge">
<title>T15681&#45;&gt;T15683</title>
<path fill="none" stroke="#0050c0" d="M543.6458,-162.1434C536.0973,-150.1545 525.3421,-133.0727 516.6524,-119.2715"/>
<polygon fill="#0050c0" stroke="#0050c0" points="519.5849,-117.3599 511.2949,-110.7625 513.6612,-121.0897 519.5849,-117.3599"/>
<text text-anchor="middle" x="537.5" y="-132.8" font-family="Times,serif" font-size="14.00" fill="#0050c0">rt</text>
</g>
<!-- T15685 -->
<g id="node4" class="node">
<title>T15685</title>
<polygon fill="none" stroke="#0058ad" points="7.5,-.5 7.5,-29.5 3084.5,-29.5 3084.5,-.5 7.5,-.5"/>
<text text-anchor="middle" x="509.5" y="-11.3" font-family="Times,serif" font-size="14.00" fill="#0058ad">r 81 [1 2 3 4 5 6 7 8 9 10 12 11 13 14 15 16 17 18 19 20 21 22 24 23 26 27 28 25 29 30 31 33 34 35 32 36 37 38 39 40 42 41 44 43 45 46 47 48 49 50 51 52 53 54 55 57 58 56 59]</text>
<polyline fill="none" stroke="#0058ad" points="1011.5,-.5 1011.5,-29.5 "/>
<text text-anchor="middle" x="1040" y="-11.3" font-family="Times,serif" font-size="14.00" fill="#0058ad">a 80 69</text>
<polyline fill="none" stroke="#0058ad" points="1068.5,-.5 1068.5,-29.5 "/>
<text text-anchor="middle" x="1565.5" y="-11.3" font-family="Times,serif" font-size="14.00" fill="#0058ad">r 78 [2 3 4 5 6 7 8 9 10 11 12 13 14 16 15 17 18 19 20 21 22 23 24 26 27 28 29 30 31 32 33 34 35 37 38 39 40 41 42 43 44 45 46 47 49 50 51 52 53 54 55 56 57 58 59 60 61 62]</text>
<polyline fill="none" stroke="#0058ad" points="2062.5,-.5 2062.5,-29.5 "/>
<text text-anchor="middle" x="2573.5" y="-11.3" font-family="Times,serif" font-size="14.00" fill="#0058ad">r 80 [1 2 3 4 5 6 7 8 9 10 11 13 14 15 16 17 18 19 20 22 23 21 24 27 28 29 30 34 31 36 37 38 39 40 41 43 44 45 46 47 48 50 51 52 53 55 56 57 58 59 60 61 62 63 64 65 68 66 67 69]</text>
</g>
<!-- T15681&#45;&gt;T15685 -->
<g id="edge2" class="edge">
<title>T15681:f0&#45;&gt;T15685:f1</title>
<path fill="none" stroke="#5b00c0" d="M819.9923,-162.47C903.3361,-152.9364 981.6888,-137.1477 1013,-111 1039.3961,-88.9568 1040.1241,-71.5082 1040.0286,-40.1864"/>
<polygon fill="#5b00c0" stroke="#5b00c0" points="1043.5281,-39.9901 1040,-30 1036.5282,-40.0098 1043.5281,-39.9901"/>
<text text-anchor="middle" x="1042.5" y="-92.3" font-family="Times,serif" font-size="14.00" fill="#5b00c0">rw</text>
</g>
<!-- T15683&#45;&gt;T15685 -->
<g id="edge4" class="edge">
<title>T15683:f0&#45;&gt;T15685:f1</title>
<path fill="none" stroke="#5b00c0" d="M690.9222,-81.4793C827.4724,-69.8293 994.3136,-52.7926 1032.1305,-36.5376"/>
<polygon fill="#5b00c0" stroke="#5b00c0" points="1034.5445,-39.0823 1040,-30 1030.0714,-33.6979 1034.5445,-39.0823"/>
<text text-anchor="middle" x="992.5" y="-51.8" font-family="Times,serif" font-size="14.00" fill="#5b00c0">rw</text>
</g>
<!-- T15685&#45;&gt;T15679 -->
<g id="edge5" class="edge">
<title>T15685:f0&#45;&gt;T15679:f0</title>
<path fill="none" stroke="#5b00c0" d="M509,-30C509,-90.8201 1010.3634,-38.6333 1054,-81 1076.2925,-102.6438 1077.6959,-168.2453 1064,-192 1061.7291,-195.9388 1018.2776,-220.4585 985.6912,-238.4658"/>
<polygon fill="#5b00c0" stroke="#5b00c0" points="983.8994,-235.4569 976.8315,-243.3496 987.2787,-241.5872 983.8994,-235.4569"/>
<text text-anchor="middle" x="1079.5" y="-132.8" font-family="Times,serif" font-size="14.00" fill="#5b00c0">rw</text>
</g>
</g>
</svg>
