<?xml version="1.0" encoding="UTF-8" standalone="no"?>
<!DOCTYPE svg PUBLIC "-//W3C//DTD SVG 1.1//EN"
 "http://www.w3.org/Graphics/SVG/1.1/DTD/svg11.dtd">
<!-- Generated by graphviz version 2.40.1 (20161225.0304)
 -->
<!-- Title: a_graph Pages: 1 -->
<svg width="4126pt" height="119pt"
 viewBox="0.00 0.00 4126.00 119.00" xmlns="http://www.w3.org/2000/svg" xmlns:xlink="http://www.w3.org/1999/xlink">
<g id="graph0" class="graph" transform="scale(1 1) rotate(0) translate(4 115)">
<title>a_graph</title>
<polygon fill="#ffffff" stroke="transparent" points="-4,4 -4,-115 4122,-115 4122,4 -4,4"/>
<!-- T32175 -->
<g id="node1" class="node">
<title>T32175</title>
<polygon fill="none" stroke="#0058ad" points="944,-81.5 944,-110.5 4118,-110.5 4118,-81.5 944,-81.5"/>
<text text-anchor="middle" x="1449.5" y="-92.3" font-family="Times,serif" font-size="14.00" fill="#0058ad">r 161 [1 2 3 4 5 6 7 8 9 10 11 12 14 15 17 16 18 19 20 21 28 31 32 33 34 35 36 39 37 38 40 41 42 43 44 45 46 48 47 49 52 53 54 55 50 51 56 57 59 60 61 63 64 62 65 66 67 68 69]</text>
<polyline fill="none" stroke="#0058ad" points="1955,-81.5 1955,-110.5 "/>
<text text-anchor="middle" x="1990.5" y="-92.3" font-family="Times,serif" font-size="14.00" fill="#0058ad">a 159 127</text>
<polyline fill="none" stroke="#0058ad" points="2026,-81.5 2026,-110.5 "/>
<text text-anchor="middle" x="2061.5" y="-92.3" font-family="Times,serif" font-size="14.00" fill="#0058ad">a 159 128</text>
<polyline fill="none" stroke="#0058ad" points="2097,-81.5 2097,-110.5 "/>
<text text-anchor="middle" x="3107.5" y="-92.3" font-family="Times,serif" font-size="14.00" fill="#0058ad">r 159 [1 2 3 4 5 6 7 8 9 10 11 12 13 14 15 16 17 18 19 20 21 22 23 24 25 26 27 28 29 30 31 32 33 34 35 36 37 38 39 40 41 44 45 46 47 48 61 62 63 64 69 70 71 72 73 75 76 74 77 78 79 80 81 83 82 85 84 86 87 88 90 91 89 92 94 95 96 93 97 98 100 101 103 104 105 106 107 108 110 111 112 113 109 115 116 117 118 120 121 122 119 123 124 125 126 127 128]</text>
</g>
<!-- T32179 -->
<g id="node2" class="node">
<title>T32179</title>
<polygon fill="none" stroke="#0058ad" points="0,-.5 0,-29.5 3112,-29.5 3112,-.5 0,-.5"/>
<text text-anchor="middle" x="505.5" y="-11.3" font-family="Times,serif" font-size="14.00" fill="#0058ad">r 161 [1 2 3 4 5 6 7 8 9 10 11 12 14 15 17 16 18 19 20 21 28 31 32 33 34 35 36 39 37 38 40 41 42 43 44 45 46 48 47 49 52 53 54 55 50 51 56 57 59 60 61 63 64 62 65 66 67 68 69]</text>
<polyline fill="none" stroke="#0058ad" points="1011,-.5 1011,-29.5 "/>
<text text-anchor="middle" x="1043" y="-11.3" font-family="Times,serif" font-size="14.00" fill="#0058ad">a 161 70</text>
<polyline fill="none" stroke="#0058ad" points="1075,-.5 1075,-29.5 "/>
<text text-anchor="middle" x="1107" y="-11.3" font-family="Times,serif" font-size="14.00" fill="#0058ad">a 160 14</text>
<polyline fill="none" stroke="#0058ad" points="1139,-.5 1139,-29.5 "/>
<text text-anchor="middle" x="2125.5" y="-11.3" font-family="Times,serif" font-size="14.00" fill="#0058ad">r 159 [1 2 3 4 5 6 7 8 9 10 11 12 13 14 15 16 17 18 19 20 21 22 23 24 25 26 27 28 29 30 31 32 33 34 35 36 37 38 39 40 41 44 45 46 47 48 61 62 63 64 69 70 71 72 73 75 76 74 77 78 79 80 81 83 82 85 84 86 87 88 90 91 89 92 94 95 96 93 97 98 100 101 103 104 105 106 107 108 110 111 112 113 109 115 116 117 118 120 121 122 119 123 124 125 126]</text>
</g>
<!-- T32175&#45;&gt;T32179 -->
<g id="edge1" class="edge">
<title>T32175:f0&#45;&gt;T32179:f1</title>
<path fill="none" stroke="#5b00c0" d="M944,-96C937.3333,-96 940.5294,-86.692 944,-81 967.754,-42.0424 1031.8471,-73.634 1041.7166,-40.0305"/>
<polygon fill="#5b00c0" stroke="#5b00c0" points="1045.2025,-40.3634 1043,-30 1038.2591,-39.4749 1045.2025,-40.3634"/>
<text text-anchor="middle" x="1044.5" y="-51.8" font-family="Times,serif" font-size="14.00" fill="#5b00c0">rw</text>
</g>
<!-- T32179&#45;&gt;T32175 -->
<g id="edge2" class="edge">
<title>T32179:f3&#45;&gt;T32175:f1</title>
<path fill="none" stroke="#5b00c0" d="M2126,-30C2126,-90.7722 2005.4706,-25.109 1991.346,-71.0645"/>
<polygon fill="#5b00c0" stroke="#5b00c0" points="1987.8743,-70.6206 1990,-81 1994.8109,-71.5604 1987.8743,-70.6206"/>
<text text-anchor="middle" x="2126.5" y="-51.8" font-family="Times,serif" font-size="14.00" fill="#5b00c0">rw</text>
</g>
</g>
</svg>
