<?xml version="1.0" encoding="UTF-8" standalone="no"?>
<!DOCTYPE svg PUBLIC "-//W3C//DTD SVG 1.1//EN"
 "http://www.w3.org/Graphics/SVG/1.1/DTD/svg11.dtd">
<!-- Generated by graphviz version 2.40.1 (20161225.0304)
 -->
<!-- Title: a_graph Pages: 1 -->
<svg width="2109pt" height="119pt"
 viewBox="0.00 0.00 2109.00 119.00" xmlns="http://www.w3.org/2000/svg" xmlns:xlink="http://www.w3.org/1999/xlink">
<g id="graph0" class="graph" transform="scale(1 1) rotate(0) translate(4 115)">
<title>a_graph</title>
<polygon fill="#ffffff" stroke="transparent" points="-4,4 -4,-115 2105,-115 2105,4 -4,4"/>
<!-- T12420 -->
<g id="node1" class="node">
<title>T12420</title>
<polygon fill="none" stroke="#0058ad" points="326.5,-81.5 326.5,-110.5 1914.5,-110.5 1914.5,-81.5 326.5,-81.5"/>
<text text-anchor="middle" x="355" y="-92.3" font-family="Times,serif" font-size="14.00" fill="#0058ad">a 60 85</text>
<polyline fill="none" stroke="#0058ad" points="383.5,-81.5 383.5,-110.5 "/>
<text text-anchor="middle" x="597" y="-92.3" font-family="Times,serif" font-size="14.00" fill="#0058ad">r 65 [31 34 35 40 41 43 44 45 46 47 48 49 51 50 54 55 56 52 58 57 59 60]</text>
<polyline fill="none" stroke="#0058ad" points="810.5,-81.5 810.5,-110.5 "/>
<text text-anchor="middle" x="1362.5" y="-92.3" font-family="Times,serif" font-size="14.00" fill="#0058ad">r 64 [1 2 5 6 7 8 9 10 11 12 13 14 15 16 17 18 19 21 22 23 24 25 26 28 29 27 30 31 32 33 34 35 36 37 40 39 41 38 42 43 44 45 46 47 48 49 50 51 52 53 54 55 56 57 58 59 60 72 73 78 80 81 82 84]</text>
</g>
<!-- T12425 -->
<g id="node2" class="node">
<title>T12425</title>
<polygon fill="none" stroke="#0058ad" points="0,-.5 0,-29.5 2101,-29.5 2101,-.5 0,-.5"/>
<text text-anchor="middle" x="595" y="-11.3" font-family="Times,serif" font-size="14.00" fill="#0058ad">r 60 [1 2 3 4 5 6 7 10 11 12 13 15 16 17 18 19 20 21 22 23 24 25 26 28 29 30 31 32 33 34 35 36 37 38 39 40 41 43 44 45 46 47 48 49 50 51 52 53 54 55 57 58 56 59 60 61 62 63 64 65 66 67 68 69 70 71 74 76 83]</text>
<polyline fill="none" stroke="#0058ad" points="1190,-.5 1190,-29.5 "/>
<text text-anchor="middle" x="1218.5" y="-11.3" font-family="Times,serif" font-size="14.00" fill="#0058ad">a 64 83</text>
<polyline fill="none" stroke="#0058ad" points="1247,-.5 1247,-29.5 "/>
<text text-anchor="middle" x="1460.5" y="-11.3" font-family="Times,serif" font-size="14.00" fill="#0058ad">r 65 [31 34 35 40 41 43 44 45 46 47 48 49 51 50 54 55 56 52 58 57 59 60]</text>
<polyline fill="none" stroke="#0058ad" points="1674,-.5 1674,-29.5 "/>
<text text-anchor="middle" x="1887.5" y="-11.3" font-family="Times,serif" font-size="14.00" fill="#0058ad">r 65 [31 34 35 40 41 43 44 45 46 47 48 49 51 50 54 55 56 52 58 57 59 60]</text>
</g>
<!-- T12420&#45;&gt;T12425 -->
<g id="edge1" class="edge">
<title>T12420:f2&#45;&gt;T12425:f1</title>
<path fill="none" stroke="#5b00c0" d="M1362.5,-81C1362.5,-16.9503 1234.3505,-88.78 1219.8336,-40.1229"/>
<polygon fill="#5b00c0" stroke="#5b00c0" points="1223.2762,-39.4572 1218.5,-30 1216.3362,-40.3715 1223.2762,-39.4572"/>
<text text-anchor="middle" x="1364" y="-51.8" font-family="Times,serif" font-size="14.00" fill="#5b00c0">rw</text>
</g>
<!-- T12425&#45;&gt;T12420 -->
<g id="edge2" class="edge">
<title>T12425:f0&#45;&gt;T12420:f0</title>
<path fill="none" stroke="#5b00c0" d="M594.5,-30C594.5,-135.3212 370.6259,16.9484 355.322,-70.764"/>
<polygon fill="#5b00c0" stroke="#5b00c0" points="351.8118,-70.7519 354.5,-81 358.7893,-71.3123 351.8118,-70.7519"/>
<text text-anchor="middle" x="598" y="-51.8" font-family="Times,serif" font-size="14.00" fill="#5b00c0">rw</text>
</g>
</g>
</svg>
