<?xml version="1.0" encoding="UTF-8" standalone="no"?>
<!DOCTYPE svg PUBLIC "-//W3C//DTD SVG 1.1//EN"
 "http://www.w3.org/Graphics/SVG/1.1/DTD/svg11.dtd">
<!-- Generated by graphviz version 2.40.1 (20161225.0304)
 -->
<!-- Title: a_graph Pages: 1 -->
<svg width="1659pt" height="119pt"
 viewBox="0.00 0.00 1659.00 119.00" xmlns="http://www.w3.org/2000/svg" xmlns:xlink="http://www.w3.org/1999/xlink">
<g id="graph0" class="graph" transform="scale(1 1) rotate(0) translate(4 115)">
<title>a_graph</title>
<polygon fill="#ffffff" stroke="transparent" points="-4,4 -4,-115 1655,-115 1655,4 -4,4"/>
<!-- T12409 -->
<g id="node1" class="node">
<title>T12409</title>
<polygon fill="none" stroke="#0058ad" points="520,-81.5 520,-110.5 1651,-110.5 1651,-81.5 520,-81.5"/>
<text text-anchor="middle" x="699" y="-92.3" font-family="Times,serif" font-size="14.00" fill="#0058ad">r 65 [31 34 35 40 41 43 44 45 46 47 48 49 51 50 54 55 56 52]</text>
<polyline fill="none" stroke="#0058ad" points="878,-81.5 878,-110.5 "/>
<text text-anchor="middle" x="906.5" y="-92.3" font-family="Times,serif" font-size="14.00" fill="#0058ad">a 64 81</text>
<polyline fill="none" stroke="#0058ad" points="935,-81.5 935,-110.5 "/>
<text text-anchor="middle" x="1114" y="-92.3" font-family="Times,serif" font-size="14.00" fill="#0058ad">r 65 [31 34 35 40 41 43 44 45 46 47 48 49 51 50 54 55 56 52]</text>
<polyline fill="none" stroke="#0058ad" points="1293,-81.5 1293,-110.5 "/>
<text text-anchor="middle" x="1472" y="-92.3" font-family="Times,serif" font-size="14.00" fill="#0058ad">r 65 [31 34 35 40 41 43 44 45 46 47 48 49 51 50 54 55 56 52]</text>
</g>
<!-- T12407 -->
<g id="node2" class="node">
<title>T12407</title>
<polygon fill="none" stroke="#0058ad" points="0,-.5 0,-29.5 1109,-29.5 1109,-.5 0,-.5"/>
<text text-anchor="middle" x="526" y="-11.3" font-family="Times,serif" font-size="14.00" fill="#0058ad">r 64 [1 2 5 6 7 8 9 10 11 12 13 14 15 16 17 18 19 21 22 23 24 25 26 28 29 27 30 31 32 33 34 35 36 37 40 39 41 38 42 43 44 45 46 47 48 49 50 51 52 53 54 55 56 57 58 59 60 72 73 78 80]</text>
<polyline fill="none" stroke="#0058ad" points="1052,-.5 1052,-29.5 "/>
<text text-anchor="middle" x="1080.5" y="-11.3" font-family="Times,serif" font-size="14.00" fill="#0058ad">a 65 58</text>
</g>
<!-- T12409&#45;&gt;T12407 -->
<g id="edge1" class="edge">
<title>T12409:f0&#45;&gt;T12407:f1</title>
<path fill="none" stroke="#5b00c0" d="M698.5,-81C698.5,-21.8204 769.0833,-57.4713 827.5,-48 852.3849,-43.9653 1035.1963,-55.2966 1073.4812,-37.5591"/>
<polygon fill="#5b00c0" stroke="#5b00c0" points="1076.2605,-39.7097 1080.5,-30 1071.1308,-34.9466 1076.2605,-39.7097"/>
<text text-anchor="middle" x="835" y="-51.8" font-family="Times,serif" font-size="14.00" fill="#5b00c0">rw</text>
</g>
<!-- T12407&#45;&gt;T12409 -->
<g id="edge2" class="edge">
<title>T12407:f0&#45;&gt;T12409:f1</title>
<path fill="none" stroke="#5b00c0" d="M525.5,-30C525.5,-47.6395 825.4827,-43.3563 842.5,-48 869.6355,-55.4048 898.5104,-50.5634 905.1056,-71.0103"/>
<polygon fill="#5b00c0" stroke="#5b00c0" points="901.6511,-71.5799 906.5,-81 908.5838,-70.6121 901.6511,-71.5799"/>
<text text-anchor="middle" x="906" y="-51.8" font-family="Times,serif" font-size="14.00" fill="#5b00c0">rw</text>
</g>
</g>
</svg>
