<?xml version="1.0" encoding="UTF-8" standalone="no"?>
<!DOCTYPE svg PUBLIC "-//W3C//DTD SVG 1.1//EN"
 "http://www.w3.org/Graphics/SVG/1.1/DTD/svg11.dtd">
<!-- Generated by graphviz version 2.40.1 (20161225.0304)
 -->
<!-- Title: a_graph Pages: 1 -->
<svg width="2841pt" height="281pt"
 viewBox="0.00 0.00 2840.50 281.00" xmlns="http://www.w3.org/2000/svg" xmlns:xlink="http://www.w3.org/1999/xlink">
<g id="graph0" class="graph" transform="scale(1 1) rotate(0) translate(4 277)">
<title>a_graph</title>
<polygon fill="#ffffff" stroke="transparent" points="-4,4 -4,-277 2836.5,-277 2836.5,4 -4,4"/>
<!-- T33545 -->
<g id="node1" class="node">
<title>T33545</title>
<polygon fill="none" stroke="#0058ad" points="1769.5,-243.5 1769.5,-272.5 2832.5,-272.5 2832.5,-243.5 1769.5,-243.5"/>
<text text-anchor="middle" x="2301" y="-254.3" font-family="Times,serif" font-size="14.00" fill="#0058ad">r 169 [1 2 3 5 6 4 8 9 10 11 12 13 7 14 15 16 17 18 20 19 22 21 23 24 27 28 25 26 30 29 32 31 35 36 33 34 39 40 41 42 43 37 38 45 44 48 49 46 47 50 51 52 53 54 55 56 57 59 60 58 62 63]</text>
</g>
<!-- T33549 -->
<g id="node2" class="node">
<title>T33549</title>
<polygon fill="none" stroke="#0058ad" points="834,-162.5 834,-191.5 2558,-191.5 2558,-162.5 834,-162.5"/>
<text text-anchor="middle" x="1124" y="-173.3" font-family="Times,serif" font-size="14.00" fill="#0058ad">r 168 [1 2 4 3 5 6 7 8 10 11 9 12 13 14 16 15 17 19 20 18 21 22 23 25 26 27 28 29 30 24 31 32 33 34]</text>
<polyline fill="none" stroke="#0058ad" points="1414,-162.5 1414,-191.5 "/>
<text text-anchor="middle" x="1446" y="-173.3" font-family="Times,serif" font-size="14.00" fill="#0058ad">a 169 61</text>
<polyline fill="none" stroke="#0058ad" points="1478,-162.5 1478,-191.5 "/>
<text text-anchor="middle" x="2018" y="-173.3" font-family="Times,serif" font-size="14.00" fill="#0058ad">r 169 [1 2 3 5 6 4 8 9 10 11 12 13 7 14 15 16 17 18 20 19 22 21 23 24 27 28 25 26 30 29 32 31 35 36 33 34 39 40 41 42 43 37 38 45 44 48 49 46 47 50 51 52 53 54 55 56 57 59 60 58 62 63 61]</text>
</g>
<!-- T33545&#45;&gt;T33549 -->
<g id="edge1" class="edge">
<title>T33545:f0&#45;&gt;T33549:f1</title>
<path fill="none" stroke="#5b00c0" d="M1886.3358,-243.4917C1690.9544,-234.0667 1491.9948,-219.6849 1452.8976,-199.3023"/>
<polygon fill="#5b00c0" stroke="#5b00c0" points="1455.4112,-196.8663 1446,-192 1450.3224,-201.6731 1455.4112,-196.8663"/>
<text text-anchor="middle" x="1596.5" y="-213.8" font-family="Times,serif" font-size="14.00" fill="#5b00c0">rw</text>
</g>
<!-- T33547 -->
<g id="node4" class="node">
<title>T33547</title>
<polygon fill="none" stroke="#0058ad" points="0,-81.5 0,-110.5 1220,-110.5 1220,-81.5 0,-81.5"/>
<text text-anchor="middle" x="32" y="-92.3" font-family="Times,serif" font-size="14.00" fill="#0058ad">a 163 83</text>
<polyline fill="none" stroke="#0058ad" points="64,-81.5 64,-110.5 "/>
<text text-anchor="middle" x="578" y="-92.3" font-family="Times,serif" font-size="14.00" fill="#0058ad">r 169 [1 2 3 5 6 4 8 9 10 11 12 13 7 14 15 16 17 18 20 19 22 21 23 24 27 28 25 26 30 29 32 31 35 36 33 34 39 40 41 42 43 37 38 45 44 48 49 46 47 50 51 52 53 54 55 56 57 59 60 58]</text>
<polyline fill="none" stroke="#0058ad" points="1092,-81.5 1092,-110.5 "/>
<text text-anchor="middle" x="1124" y="-92.3" font-family="Times,serif" font-size="14.00" fill="#0058ad">a 168 35</text>
<polyline fill="none" stroke="#0058ad" points="1156,-81.5 1156,-110.5 "/>
<text text-anchor="middle" x="1188" y="-92.3" font-family="Times,serif" font-size="14.00" fill="#0058ad">a 164 21</text>
</g>
<!-- T33549&#45;&gt;T33547 -->
<g id="edge2" class="edge">
<title>T33549:f0&#45;&gt;T33547:f2</title>
<path fill="none" stroke="#5b00c0" d="M1124,-162C1124,-143.2292 1124,-136.1168 1124,-121.3535"/>
<polygon fill="#5b00c0" stroke="#5b00c0" points="1127.5001,-121 1124,-111 1120.5001,-121 1127.5001,-121"/>
<text text-anchor="middle" x="1131.5" y="-132.8" font-family="Times,serif" font-size="14.00" fill="#5b00c0">rw</text>
</g>
<!-- T33543 -->
<g id="node3" class="node">
<title>T33543</title>
<polygon fill="none" stroke="#0058ad" points="786,-.5 786,-29.5 1494,-29.5 1494,-.5 786,-.5"/>
<text text-anchor="middle" x="1076" y="-11.3" font-family="Times,serif" font-size="14.00" fill="#0058ad">r 168 [1 2 4 3 5 6 7 8 10 11 9 12 13 14 16 15 17 19 20 18 21 22 23 25 26 27 28 29 30 24 31 32 33 34]</text>
<polyline fill="none" stroke="#0058ad" points="1366,-.5 1366,-29.5 "/>
<text text-anchor="middle" x="1398" y="-11.3" font-family="Times,serif" font-size="14.00" fill="#0058ad">a 169 62</text>
<polyline fill="none" stroke="#0058ad" points="1430,-.5 1430,-29.5 "/>
<text text-anchor="middle" x="1462" y="-11.3" font-family="Times,serif" font-size="14.00" fill="#0058ad">a 169 63</text>
</g>
<!-- T33543&#45;&gt;T33545 -->
<g id="edge3" class="edge">
<title>T33543:f2&#45;&gt;T33545:f0</title>
<path fill="none" stroke="#c000a5" d="M1494,-15C1614.3358,-15 2487.8949,-71.3187 2567,-162 2604.2982,-204.7564 2553.713,-228.4735 2486.9901,-241.6278"/>
<polygon fill="#c000a5" stroke="#c000a5" points="2486.2214,-238.2109 2477.0372,-243.493 2487.5108,-245.0911 2486.2214,-238.2109"/>
<text text-anchor="middle" x="2546.5" y="-132.8" font-family="Times,serif" font-size="14.00" fill="#c000a5">wr</text>
</g>
<!-- T33543&#45;&gt;T33549 -->
<g id="edge5" class="edge">
<title>T33543:f2&#45;&gt;T33549:f1</title>
<path fill="none" stroke="#c02700" d="M1462,-30C1462,-85.518 1447.8788,-101.0659 1446.1689,-151.7437"/>
<polygon fill="#c02700" stroke="#c02700" points="1442.6652,-151.9437 1446,-162 1449.6642,-152.059 1442.6652,-151.9437"/>
<text text-anchor="middle" x="1467" y="-92.3" font-family="Times,serif" font-size="14.00" fill="#c02700">ww</text>
</g>
<!-- T33543&#45;&gt;T33547 -->
<g id="edge4" class="edge">
<title>T33543:f0&#45;&gt;T33547:f2</title>
<path fill="none" stroke="#5b00c0" d="M1076,-30C1076,-57.2361 1112.75,-52.0243 1121.9375,-71.1484"/>
<polygon fill="#5b00c0" stroke="#5b00c0" points="1118.525,-71.9294 1124,-81 1125.3765,-70.495 1118.525,-71.9294"/>
<text text-anchor="middle" x="1121.5" y="-51.8" font-family="Times,serif" font-size="14.00" fill="#5b00c0">rw</text>
</g>
<!-- T33547&#45;&gt;T33543 -->
<g id="edge6" class="edge">
<title>T33547:f1&#45;&gt;T33543:f1</title>
<path fill="none" stroke="#5b00c0" d="M578,-81C578,27.6921 957.509,-54.609 1066,-48 1082.6008,-46.9887 1338.4607,-48.1808 1389.2681,-34.945"/>
<polygon fill="#5b00c0" stroke="#5b00c0" points="1391.0232,-37.9734 1398,-30 1387.5737,-31.8823 1391.0232,-37.9734"/>
<text text-anchor="middle" x="1073.5" y="-51.8" font-family="Times,serif" font-size="14.00" fill="#5b00c0">rw</text>
</g>
</g>
</svg>
