<?xml version="1.0" encoding="UTF-8" standalone="no"?>
<!DOCTYPE svg PUBLIC "-//W3C//DTD SVG 1.1//EN"
 "http://www.w3.org/Graphics/SVG/1.1/DTD/svg11.dtd">
<!-- Generated by graphviz version 2.40.1 (20161225.0304)
 -->
<!-- Title: a_graph Pages: 1 -->
<svg width="5309pt" height="119pt"
 viewBox="0.00 0.00 5309.00 119.00" xmlns="http://www.w3.org/2000/svg" xmlns:xlink="http://www.w3.org/1999/xlink">
<g id="graph0" class="graph" transform="scale(1 1) rotate(0) translate(4 115)">
<title>a_graph</title>
<polygon fill="#ffffff" stroke="transparent" points="-4,4 -4,-115 5305,-115 5305,4 -4,4"/>
<!-- T28119 -->
<g id="node1" class="node">
<title>T28119</title>
<polygon fill="none" stroke="#0058ad" points="841.5,-81.5 841.5,-110.5 2055.5,-110.5 2055.5,-81.5 841.5,-81.5"/>
<text text-anchor="middle" x="877" y="-92.3" font-family="Times,serif" font-size="14.00" fill="#0058ad">a 141 128</text>
<polyline fill="none" stroke="#0058ad" points="912.5,-81.5 912.5,-110.5 "/>
<text text-anchor="middle" x="941.5" y="-92.3" font-family="Times,serif" font-size="14.00" fill="#0058ad">r 143 []</text>
<polyline fill="none" stroke="#0058ad" points="970.5,-81.5 970.5,-110.5 "/>
<text text-anchor="middle" x="1484.5" y="-92.3" font-family="Times,serif" font-size="14.00" fill="#0058ad">r 142 [2 1 3 4 5 6 7 8 9 10 11 12 13 14 15 17 18 19 20 21 22 16 23 24 25 26 27 28 29 30 31 34 35 37 38 39 40 43 41 42 44 46 45 47 48 51 50 54 55 56 57 58 60 61 59 62 63 64 65 66]</text>
<polyline fill="none" stroke="#0058ad" points="1998.5,-81.5 1998.5,-110.5 "/>
<text text-anchor="middle" x="2027" y="-92.3" font-family="Times,serif" font-size="14.00" fill="#0058ad">a 143 1</text>
</g>
<!-- T28121 -->
<g id="node2" class="node">
<title>T28121</title>
<polygon fill="none" stroke="#0058ad" points="0,-.5 0,-29.5 5301,-29.5 5301,-.5 0,-.5"/>
<text text-anchor="middle" x="32" y="-11.3" font-family="Times,serif" font-size="14.00" fill="#0058ad">a 142 67</text>
<polyline fill="none" stroke="#0058ad" points="64,-.5 64,-29.5 "/>
<text text-anchor="middle" x="512.5" y="-11.3" font-family="Times,serif" font-size="14.00" fill="#0058ad">r 140 [1 2 3 4 5 6 7 9 10 11 12 13 14 15 16 17 18 19 20 21 22 23 24 26 28 29 30 31 32 34 35 33 36 37 39 38 40 41 42 44 43 45 46 47 48 49 50 51 52 53 55 54]</text>
<polyline fill="none" stroke="#0058ad" points="961,-.5 961,-29.5 "/>
<text text-anchor="middle" x="2046" y="-11.3" font-family="Times,serif" font-size="14.00" fill="#0058ad">r 141 [1 2 3 4 5 6 8 11 12 9 10 13 16 17 14 15 18 19 20 21 22 23 24 25 26 27 29 30 31 32 28 34 35 33 36 37 38 40 41 42 43 44 45 46 47 48 49 39 50 51 52 53 54 55 56 57 58 59 60 63 64 65 66 67 68 71 70 72 73 75 76 78 79 82 83 85 80 81 86 88 87 91 89 92 95 96 93 94 97 98 99 100 101 102 103 107 108 109 110 111 112 113 114 115 116 117 119 120 118 121 122 123 124 125 126 127]</text>
<polyline fill="none" stroke="#0058ad" points="3131,-.5 3131,-29.5 "/>
<text text-anchor="middle" x="4216" y="-11.3" font-family="Times,serif" font-size="14.00" fill="#0058ad">r 141 [1 2 3 4 5 6 8 11 12 9 10 13 16 17 14 15 18 19 20 21 22 23 24 25 26 27 29 30 31 32 28 34 35 33 36 37 38 40 41 42 43 44 45 46 47 48 49 39 50 51 52 53 54 55 56 57 58 59 60 63 64 65 66 67 68 71 70 72 73 75 76 78 79 82 83 85 80 81 86 88 87 91 89 92 95 96 93 94 97 98 99 100 101 102 103 107 108 109 110 111 112 113 114 115 116 117 119 120 118 121 122 123 124 125 126 127]</text>
</g>
<!-- T28119&#45;&gt;T28121 -->
<g id="edge1" class="edge">
<title>T28119:f2&#45;&gt;T28121:f0</title>
<path fill="none" stroke="#5b00c0" d="M1484.5,-81C1484.5,18.382 1137.7775,-52.5565 1038.5,-48 1025.3451,-47.3962 144.509,-44.3739 41.3311,-32.3511"/>
<polygon fill="#5b00c0" stroke="#5b00c0" points="42.0398,-28.922 31.5,-30 40.4117,-35.73 42.0398,-28.922"/>
<text text-anchor="middle" x="1485" y="-51.8" font-family="Times,serif" font-size="14.00" fill="#5b00c0">rw</text>
</g>
<!-- T28121&#45;&gt;T28119 -->
<g id="edge2" class="edge">
<title>T28121:f2&#45;&gt;T28119:f0</title>
<path fill="none" stroke="#5b00c0" d="M2045.5,-30C2045.5,-44.2522 1033.646,-46.2631 1019.5,-48 958.4272,-55.4986 885.322,-20.1707 877.2365,-70.9032"/>
<polygon fill="#5b00c0" stroke="#5b00c0" points="873.7369,-70.7718 876.5,-81 880.7184,-71.2812 873.7369,-70.7718"/>
<text text-anchor="middle" x="1027" y="-51.8" font-family="Times,serif" font-size="14.00" fill="#5b00c0">rw</text>
</g>
</g>
</svg>
