<?xml version="1.0" encoding="UTF-8" standalone="no"?>
<!DOCTYPE svg PUBLIC "-//W3C//DTD SVG 1.1//EN"
 "http://www.w3.org/Graphics/SVG/1.1/DTD/svg11.dtd">
<!-- Generated by graphviz version 2.40.1 (20161225.0304)
 -->
<!-- Title: a_graph Pages: 1 -->
<svg width="2110pt" height="200pt"
 viewBox="0.00 0.00 2110.00 200.00" xmlns="http://www.w3.org/2000/svg" xmlns:xlink="http://www.w3.org/1999/xlink">
<g id="graph0" class="graph" transform="scale(1 1) rotate(0) translate(4 196)">
<title>a_graph</title>
<polygon fill="#ffffff" stroke="transparent" points="-4,4 -4,-196 2106,-196 2106,4 -4,4"/>
<!-- T33051 -->
<g id="node1" class="node">
<title>T33051</title>
<polygon fill="none" stroke="#0058ad" points="703,-162.5 703,-191.5 767,-191.5 767,-162.5 703,-162.5"/>
<text text-anchor="middle" x="735" y="-173.3" font-family="Times,serif" font-size="14.00" fill="#0058ad">a 165 89</text>
</g>
<!-- T33055 -->
<g id="node3" class="node">
<title>T33055</title>
<polygon fill="none" stroke="#0058ad" points="800,-81.5 800,-110.5 1644,-110.5 1644,-81.5 800,-81.5"/>
<text text-anchor="middle" x="900" y="-92.3" font-family="Times,serif" font-size="14.00" fill="#0058ad">r 164 [1 2 3 4 5 6 7 8 9 10 11 12]</text>
<polyline fill="none" stroke="#0058ad" points="1000,-81.5 1000,-110.5 "/>
<text text-anchor="middle" x="1032" y="-92.3" font-family="Times,serif" font-size="14.00" fill="#0058ad">a 165 90</text>
<polyline fill="none" stroke="#0058ad" points="1064,-81.5 1064,-110.5 "/>
<text text-anchor="middle" x="1354" y="-92.3" font-family="Times,serif" font-size="14.00" fill="#0058ad">r 167 [1 2 3 4 6 7 5 9 10 8 11 12 13 14 15 16 18 19 17 22 23 24 20 21 26 27 28 29 30 31 32 33 34 35]</text>
</g>
<!-- T33051&#45;&gt;T33055 -->
<g id="edge1" class="edge">
<title>T33051:f0&#45;&gt;T33055:f1</title>
<path fill="none" stroke="#c02700" d="M765.5939,-162.4702C766.0643,-162.3086 766.5332,-162.1517 767,-162 820.5799,-144.5865 1007.3698,-167.8076 1029.7925,-120.9605"/>
<polygon fill="#c02700" stroke="#c02700" points="1033.2532,-121.5204 1032,-111 1026.4191,-120.0058 1033.2532,-121.5204"/>
<text text-anchor="middle" x="1034" y="-132.8" font-family="Times,serif" font-size="14.00" fill="#c02700">ww</text>
</g>
<!-- T33053 -->
<g id="node2" class="node">
<title>T33053</title>
<polygon fill="none" stroke="#0058ad" points="0,-.5 0,-29.5 2102,-29.5 2102,-.5 0,-.5"/>
<text text-anchor="middle" x="695.5" y="-11.3" font-family="Times,serif" font-size="14.00" fill="#0058ad">r 165 [2 3 1 4 5 6 7 8 9 10 12 13 11 14 15 17 16 18 19 20 21 22 25 29 30 31 32 34 35 36 37 39 38 40 41 42 43 44 46 47 48 49 50 51 52 53 54 55 56 57 58 59 60 61 62 63 65 66 64 67 68 69 70 71 72 73 74 75 78 79 76 77 80 81 82 83 84 85 86 87 88]</text>
<polyline fill="none" stroke="#0058ad" points="1391,-.5 1391,-29.5 "/>
<text text-anchor="middle" x="1416" y="-11.3" font-family="Times,serif" font-size="14.00" fill="#0058ad">a 0 30</text>
<polyline fill="none" stroke="#0058ad" points="1441,-.5 1441,-29.5 "/>
<text text-anchor="middle" x="1473" y="-11.3" font-family="Times,serif" font-size="14.00" fill="#0058ad">a 167 36</text>
<polyline fill="none" stroke="#0058ad" points="1505,-.5 1505,-29.5 "/>
<text text-anchor="middle" x="1803.5" y="-11.3" font-family="Times,serif" font-size="14.00" fill="#0058ad">r 167 [1 2 3 4 6 7 5 9 10 8 11 12 13 14 15 16 18 19 17 22 23 24 20 21 26 27 28 29 30 31 32 33 34 35 36]</text>
</g>
<!-- T33053&#45;&gt;T33051 -->
<g id="edge2" class="edge">
<title>T33053:f0&#45;&gt;T33051:f0</title>
<path fill="none" stroke="#5b00c0" d="M695,-30C695,-74.716 712.446,-124.4836 724.2947,-153.1276"/>
<polygon fill="#5b00c0" stroke="#5b00c0" points="721.0772,-154.5055 728.2145,-162.3355 727.5179,-151.7636 721.0772,-154.5055"/>
<text text-anchor="middle" x="717.5" y="-92.3" font-family="Times,serif" font-size="14.00" fill="#5b00c0">rw</text>
</g>
<!-- T33055&#45;&gt;T33053 -->
<g id="edge3" class="edge">
<title>T33055:f2&#45;&gt;T33053:f2</title>
<path fill="none" stroke="#5b00c0" d="M1354,-81C1354,-27.2797 1457.7201,-79.5667 1471.4954,-39.9255"/>
<polygon fill="#5b00c0" stroke="#5b00c0" points="1474.9616,-40.4116 1473,-30 1468.0407,-39.3625 1474.9616,-40.4116"/>
<text text-anchor="middle" x="1471.5" y="-51.8" font-family="Times,serif" font-size="14.00" fill="#5b00c0">rw</text>
</g>
</g>
</svg>
