<?xml version="1.0" encoding="UTF-8" standalone="no"?>
<!DOCTYPE svg PUBLIC "-//W3C//DTD SVG 1.1//EN"
 "http://www.w3.org/Graphics/SVG/1.1/DTD/svg11.dtd">
<!-- Generated by graphviz version 2.40.1 (20161225.0304)
 -->
<!-- Title: a_graph Pages: 1 -->
<svg width="2133pt" height="119pt"
 viewBox="0.00 0.00 2133.00 119.00" xmlns="http://www.w3.org/2000/svg" xmlns:xlink="http://www.w3.org/1999/xlink">
<g id="graph0" class="graph" transform="scale(1 1) rotate(0) translate(4 115)">
<title>a_graph</title>
<polygon fill="#ffffff" stroke="transparent" points="-4,4 -4,-115 2129,-115 2129,4 -4,4"/>
<!-- T4053 -->
<g id="node1" class="node">
<title>T4053</title>
<polygon fill="none" stroke="#0058ad" points="617,-81.5 617,-110.5 848,-110.5 848,-81.5 617,-81.5"/>
<text text-anchor="middle" x="649" y="-92.3" font-family="Times,serif" font-size="14.00" fill="#0058ad">a 25 112</text>
<polyline fill="none" stroke="#0058ad" points="681,-81.5 681,-110.5 "/>
<text text-anchor="middle" x="709.5" y="-92.3" font-family="Times,serif" font-size="14.00" fill="#0058ad">a 22 63</text>
<polyline fill="none" stroke="#0058ad" points="738,-81.5 738,-110.5 "/>
<text text-anchor="middle" x="793" y="-92.3" font-family="Times,serif" font-size="14.00" fill="#0058ad">r 26 [1 2 3 4 6 7]</text>
</g>
<!-- T4049 -->
<g id="node2" class="node">
<title>T4049</title>
<polygon fill="none" stroke="#0058ad" points="0,-.5 0,-29.5 2125,-29.5 2125,-.5 0,-.5"/>
<text text-anchor="middle" x="55" y="-11.3" font-family="Times,serif" font-size="14.00" fill="#0058ad">r 26 [1 2 3 4 6 7]</text>
<polyline fill="none" stroke="#0058ad" points="110,-.5 110,-29.5 "/>
<text text-anchor="middle" x="165" y="-11.3" font-family="Times,serif" font-size="14.00" fill="#0058ad">r 26 [1 2 3 4 6 7]</text>
<polyline fill="none" stroke="#0058ad" points="220,-.5 220,-29.5 "/>
<text text-anchor="middle" x="245" y="-11.3" font-family="Times,serif" font-size="14.00" fill="#0058ad">a 26 8</text>
<polyline fill="none" stroke="#0058ad" points="270,-.5 270,-29.5 "/>
<text text-anchor="middle" x="1197.5" y="-11.3" font-family="Times,serif" font-size="14.00" fill="#0058ad">r 25 [1 2 3 5 6 7 8 9 10 12 13 14 15 16 17 18 19 21 22 23 24 25 26 27 28 29 30 20 32 33 31 38 34 35 36 37 41 42 39 40 43 44 45 46 47 49 50 51 52 53 54 56 57 58 59 60 63 62 64 65 66 68 69 67 70 71 73 72 74 75 76 77 81 78 79 80 83 82 85 84 86 87 88 89 90 91 92 93 94 95 96 97 98 99 100 101 102 103 104 107 106 110 109 111]</text>
</g>
<!-- T4053&#45;&gt;T4049 -->
<g id="edge1" class="edge">
<title>T4053:f2&#45;&gt;T4049:f2</title>
<path fill="none" stroke="#5b00c0" d="M793.5,-81C793.5,-34.6199 740.1235,-56.3429 694.5,-48 671.9551,-43.8774 313.1251,-53.1979 253.0119,-35.5618"/>
<polygon fill="#5b00c0" stroke="#5b00c0" points="254.7859,-32.54 244.5,-30 250.9569,-38.4 254.7859,-32.54"/>
<text text-anchor="middle" x="796" y="-51.8" font-family="Times,serif" font-size="14.00" fill="#5b00c0">rw</text>
</g>
<!-- T4049&#45;&gt;T4053 -->
<g id="edge2" class="edge">
<title>T4049:f3&#45;&gt;T4053:f0</title>
<path fill="none" stroke="#5b00c0" d="M1197.5,-30C1197.5,-59.0172 701.504,-35.1239 675.5,-48 661.9672,-54.7009 652.857,-59.644 649.7144,-70.9649"/>
<polygon fill="#5b00c0" stroke="#5b00c0" points="646.2268,-70.6519 648.5,-81 653.1761,-71.4929 646.2268,-70.6519"/>
<text text-anchor="middle" x="683" y="-51.8" font-family="Times,serif" font-size="14.00" fill="#5b00c0">rw</text>
</g>
</g>
</svg>
