<?xml version="1.0" encoding="UTF-8" standalone="no"?>
<!DOCTYPE svg PUBLIC "-//W3C//DTD SVG 1.1//EN"
 "http://www.w3.org/Graphics/SVG/1.1/DTD/svg11.dtd">
<!-- Generated by graphviz version 2.40.1 (20161225.0304)
 -->
<!-- Title: a_graph Pages: 1 -->
<svg width="991pt" height="200pt"
 viewBox="0.00 0.00 990.50 200.00" xmlns="http://www.w3.org/2000/svg" xmlns:xlink="http://www.w3.org/1999/xlink">
<g id="graph0" class="graph" transform="scale(1 1) rotate(0) translate(4 196)">
<title>a_graph</title>
<polygon fill="#ffffff" stroke="transparent" points="-4,4 -4,-196 986.5,-196 986.5,4 -4,4"/>
<!-- T17091 -->
<g id="node1" class="node">
<title>T17091</title>
<polygon fill="none" stroke="#0058ad" points="503.5,-162.5 503.5,-191.5 914.5,-191.5 914.5,-162.5 503.5,-162.5"/>
<text text-anchor="middle" x="532" y="-173.3" font-family="Times,serif" font-size="14.00" fill="#0058ad">a 71 40</text>
<polyline fill="none" stroke="#0058ad" points="560.5,-162.5 560.5,-191.5 "/>
<text text-anchor="middle" x="709" y="-173.3" font-family="Times,serif" font-size="14.00" fill="#0058ad">r 88 [1 2 3 4 5 6 7 8 9 10 11 12 13 14 15 16 17 18]</text>
<polyline fill="none" stroke="#0058ad" points="857.5,-162.5 857.5,-191.5 "/>
<text text-anchor="middle" x="886" y="-173.3" font-family="Times,serif" font-size="14.00" fill="#0058ad">a 62 97</text>
</g>
<!-- T17085 -->
<g id="node2" class="node">
<title>T17085</title>
<polygon fill="none" stroke="#0058ad" points="321.5,-81.5 321.5,-110.5 982.5,-110.5 982.5,-81.5 321.5,-81.5"/>
<text text-anchor="middle" x="623.5" y="-92.3" font-family="Times,serif" font-size="14.00" fill="#0058ad">r 84 [1 2 3 4 5 8 9 10 11 12 13 14 15 16 17 18 19 20 21 22 23 24 25 26 27 28 29 30 31 33 34 35 37 38 39]</text>
<polyline fill="none" stroke="#0058ad" points="925.5,-81.5 925.5,-110.5 "/>
<text text-anchor="middle" x="954" y="-92.3" font-family="Times,serif" font-size="14.00" fill="#0058ad">a 88 19</text>
</g>
<!-- T17091&#45;&gt;T17085 -->
<g id="edge1" class="edge">
<title>T17091:f1&#45;&gt;T17085:f1</title>
<path fill="none" stroke="#5b00c0" d="M709,-162C709,-54.4699 938.0006,-211.1496 953.2076,-121.1647"/>
<polygon fill="#5b00c0" stroke="#5b00c0" points="956.7122,-121.2418 954,-111 949.7333,-120.6977 956.7122,-121.2418"/>
<text text-anchor="middle" x="956.5" y="-132.8" font-family="Times,serif" font-size="14.00" fill="#5b00c0">rw</text>
</g>
<!-- T17087 -->
<g id="node3" class="node">
<title>T17087</title>
<polygon fill="none" stroke="#0058ad" points="0,-.5 0,-29.5 608,-29.5 608,-.5 0,-.5"/>
<text text-anchor="middle" x="304" y="-11.3" font-family="Times,serif" font-size="14.00" fill="#0058ad">r 71 [1 2 3 4 5 6 7 8 9 10 11 12 13 15 16 17 18 19 20 21 22 23 24 25 26 27 29 30 31 33 34 35 36 37 38 39]</text>
</g>
<!-- T17085&#45;&gt;T17087 -->
<g id="edge2" class="edge">
<title>T17085&#45;&gt;T17087</title>
<path fill="none" stroke="#0050c0" d="M589.3827,-81.4253C529.4786,-67.4821 439.1887,-46.4663 376.2627,-31.8198"/>
<polygon fill="#0050c0" stroke="#0050c0" points="376.9404,-28.384 366.4072,-29.5258 375.3534,-35.2018 376.9404,-28.384"/>
<text text-anchor="middle" x="513.5" y="-51.8" font-family="Times,serif" font-size="14.00" fill="#0050c0">rt</text>
</g>
<!-- T17087&#45;&gt;T17091 -->
<g id="edge3" class="edge">
<title>T17087:f0&#45;&gt;T17091:f0</title>
<path fill="none" stroke="#5b00c0" d="M297.5634,-29.6135C289.6999,-49.9454 279.4667,-86.9714 297,-111 323.5083,-147.3285 438.6451,-173.4493 492.7382,-176.6656"/>
<polygon fill="#5b00c0" stroke="#5b00c0" points="492.8913,-180.1723 503,-177 493.1193,-173.176 492.8913,-180.1723"/>
<text text-anchor="middle" x="304.5" y="-92.3" font-family="Times,serif" font-size="14.00" fill="#5b00c0">rw</text>
</g>
</g>
</svg>
