<?xml version="1.0" encoding="UTF-8" standalone="no"?>
<!DOCTYPE svg PUBLIC "-//W3C//DTD SVG 1.1//EN"
 "http://www.w3.org/Graphics/SVG/1.1/DTD/svg11.dtd">
<!-- Generated by graphviz version 2.40.1 (20161225.0304)
 -->
<!-- Title: a_graph Pages: 1 -->
<svg width="2425pt" height="119pt"
 viewBox="0.00 0.00 2425.00 119.00" xmlns="http://www.w3.org/2000/svg" xmlns:xlink="http://www.w3.org/1999/xlink">
<g id="graph0" class="graph" transform="scale(1 1) rotate(0) translate(4 115)">
<title>a_graph</title>
<polygon fill="#ffffff" stroke="transparent" points="-4,4 -4,-115 2421,-115 2421,4 -4,4"/>
<!-- T20797 -->
<g id="node1" class="node">
<title>T20797</title>
<polygon fill="none" stroke="#0058ad" points="0,-81.5 0,-110.5 2417,-110.5 2417,-81.5 0,-81.5"/>
<text text-anchor="middle" x="1116" y="-92.3" font-family="Times,serif" font-size="14.00" fill="#0058ad">r 104 [1 3 4 2 5 6 7 8 9 10 11 14 15 16 12 13 17 18 19 20 23 21 25 26 27 28 24 29 30 31 32 33 34 22 35 36 37 38 39 41 42 44 45 43 46 47 48 50 51 49 52 53 55 54 57 56 59 60 61 62 63 64 65 66 67 68 69 70 58 71 72 76 77 78 79 80 81 82 83 84 85 86 90 87 88 89 92 93 94 95 91 96 97 98 99 100 103 104 105 102 107 108 109 110 106 112 115 116 101 117 118 113 114 119 121 122 123 124 125 126]</text>
<polyline fill="none" stroke="#0058ad" points="2232,-81.5 2232,-110.5 "/>
<text text-anchor="middle" x="2264" y="-92.3" font-family="Times,serif" font-size="14.00" fill="#0058ad">a 105 58</text>
<polyline fill="none" stroke="#0058ad" points="2296,-81.5 2296,-110.5 "/>
<text text-anchor="middle" x="2328" y="-92.3" font-family="Times,serif" font-size="14.00" fill="#0058ad">a 105 59</text>
<polyline fill="none" stroke="#0058ad" points="2360,-81.5 2360,-110.5 "/>
<text text-anchor="middle" x="2388.5" y="-92.3" font-family="Times,serif" font-size="14.00" fill="#0058ad">a 106 9</text>
</g>
<!-- T20793 -->
<g id="node2" class="node">
<title>T20793</title>
<polygon fill="none" stroke="#0058ad" points="1618.5,-.5 1618.5,-29.5 1844.5,-29.5 1844.5,-.5 1618.5,-.5"/>
<text text-anchor="middle" x="1696" y="-11.3" font-family="Times,serif" font-size="14.00" fill="#0058ad">r 106 [1 2 3 4 5 6 7 8 10]</text>
<polyline fill="none" stroke="#0058ad" points="1773.5,-.5 1773.5,-29.5 "/>
<text text-anchor="middle" x="1809" y="-11.3" font-family="Times,serif" font-size="14.00" fill="#0058ad">a 104 127</text>
</g>
<!-- T20797&#45;&gt;T20793 -->
<g id="edge1" class="edge">
<title>T20797:f0&#45;&gt;T20793:f1</title>
<path fill="none" stroke="#5b00c0" d="M1115.5,-81C1115.5,70.0138 1777.35,-172.7582 1808.3742,-40.2032"/>
<polygon fill="#5b00c0" stroke="#5b00c0" points="1811.8821,-40.3236 1809.5,-30 1804.9243,-39.5558 1811.8821,-40.3236"/>
<text text-anchor="middle" x="1809" y="-51.8" font-family="Times,serif" font-size="14.00" fill="#5b00c0">rw</text>
</g>
<!-- T20793&#45;&gt;T20797 -->
<g id="edge2" class="edge">
<title>T20793:f0&#45;&gt;T20797:f3</title>
<path fill="none" stroke="#5b00c0" d="M1695.5,-30C1695.5,-47.9826 2296.9923,-59.9709 2379.2276,-77.134"/>
<polygon fill="#5b00c0" stroke="#5b00c0" points="2377.9232,-80.3821 2388.5,-81 2380.617,-73.9212 2377.9232,-80.3821"/>
<text text-anchor="middle" x="2191" y="-51.8" font-family="Times,serif" font-size="14.00" fill="#5b00c0">rw</text>
</g>
</g>
</svg>
