<?xml version="1.0" encoding="UTF-8" standalone="no"?>
<!DOCTYPE svg PUBLIC "-//W3C//DTD SVG 1.1//EN"
 "http://www.w3.org/Graphics/SVG/1.1/DTD/svg11.dtd">
<!-- Generated by graphviz version 2.40.1 (20161225.0304)
 -->
<!-- Title: a_graph Pages: 1 -->
<svg width="2206pt" height="119pt"
 viewBox="0.00 0.00 2206.00 119.00" xmlns="http://www.w3.org/2000/svg" xmlns:xlink="http://www.w3.org/1999/xlink">
<g id="graph0" class="graph" transform="scale(1 1) rotate(0) translate(4 115)">
<title>a_graph</title>
<polygon fill="#ffffff" stroke="transparent" points="-4,4 -4,-115 2202,-115 2202,4 -4,4"/>
<!-- T1071 -->
<g id="node1" class="node">
<title>T1071</title>
<polygon fill="none" stroke="#0058ad" points="318.5,-81.5 318.5,-110.5 1809.5,-110.5 1809.5,-81.5 318.5,-81.5"/>
<text text-anchor="middle" x="760.5" y="-92.3" font-family="Times,serif" font-size="14.00" fill="#0058ad">r 12 [1 2 4 3 5 6 8 7 9 10 13 14 11 12 16 17 18 21 22 24 19 20 26 27 30 31 32 34 35 36 37 38 39 40 41 42 43 44 45 46 50 53 54 55 56 51 52 58 59 60 61 62]</text>
<polyline fill="none" stroke="#0058ad" points="1202.5,-81.5 1202.5,-110.5 "/>
<text text-anchor="middle" x="1452.5" y="-92.3" font-family="Times,serif" font-size="14.00" fill="#0058ad">r 11 [1 2 3 4 5 6 9 10 13 15 16 17 19 18 20 21 22 23 24 25 26 27 28 29 30 31 32 34 35]</text>
<polyline fill="none" stroke="#0058ad" points="1702.5,-81.5 1702.5,-110.5 "/>
<text text-anchor="middle" x="1727.5" y="-92.3" font-family="Times,serif" font-size="14.00" fill="#0058ad">a 5 31</text>
<polyline fill="none" stroke="#0058ad" points="1752.5,-81.5 1752.5,-110.5 "/>
<text text-anchor="middle" x="1781" y="-92.3" font-family="Times,serif" font-size="14.00" fill="#0058ad">a 12 63</text>
</g>
<!-- T1074 -->
<g id="node2" class="node">
<title>T1074</title>
<polygon fill="none" stroke="#0058ad" points="0,-.5 0,-29.5 2198,-29.5 2198,-.5 0,-.5"/>
<text text-anchor="middle" x="442" y="-11.3" font-family="Times,serif" font-size="14.00" fill="#0058ad">r 12 [1 2 4 3 5 6 8 7 9 10 13 14 11 12 16 17 18 21 22 24 19 20 26 27 30 31 32 34 35 36 37 38 39 40 41 42 43 44 45 46 50 53 54 55 56 51 52 58 59 60 61 62]</text>
<polyline fill="none" stroke="#0058ad" points="884,-.5 884,-29.5 "/>
<text text-anchor="middle" x="1070.5" y="-11.3" font-family="Times,serif" font-size="14.00" fill="#0058ad">r 5 [3 4 5 6 7 8 9 10 11 12 13 14 15 18 20 21 22 23 27 28 29 30]</text>
<polyline fill="none" stroke="#0058ad" points="1257,-.5 1257,-29.5 "/>
<text text-anchor="middle" x="1699" y="-11.3" font-family="Times,serif" font-size="14.00" fill="#0058ad">r 12 [1 2 4 3 5 6 8 7 9 10 13 14 11 12 16 17 18 21 22 24 19 20 26 27 30 31 32 34 35 36 37 38 39 40 41 42 43 44 45 46 50 53 54 55 56 51 52 58 59 60 61 62]</text>
<polyline fill="none" stroke="#0058ad" points="2141,-.5 2141,-29.5 "/>
<text text-anchor="middle" x="2169.5" y="-11.3" font-family="Times,serif" font-size="14.00" fill="#0058ad">a 11 36</text>
</g>
<!-- T1071&#45;&gt;T1074 -->
<g id="edge1" class="edge">
<title>T1071:f1&#45;&gt;T1074:f3</title>
<path fill="none" stroke="#5b00c0" d="M1453,-81C1453,-.5408 1551.0126,-56.7005 1631,-48 1644.7001,-46.5098 2089.3263,-45.2061 2160.4481,-33.3447"/>
<polygon fill="#5b00c0" stroke="#5b00c0" points="2161.7186,-36.6082 2170,-30 2159.4052,-30.0015 2161.7186,-36.6082"/>
<text text-anchor="middle" x="1638.5" y="-51.8" font-family="Times,serif" font-size="14.00" fill="#5b00c0">rw</text>
</g>
<!-- T1074&#45;&gt;T1071 -->
<g id="edge2" class="edge">
<title>T1074:f1&#45;&gt;T1071:f2</title>
<path fill="none" stroke="#5b00c0" d="M1070,-30C1070,-46.0078 1630.3337,-44.7112 1646,-48 1680.6923,-55.2829 1719.5422,-44.3051 1726.7993,-70.9546"/>
<polygon fill="#5b00c0" stroke="#5b00c0" points="1723.3378,-71.4861 1728,-81 1730.2883,-70.6552 1723.3378,-71.4861"/>
<text text-anchor="middle" x="1729.5" y="-51.8" font-family="Times,serif" font-size="14.00" fill="#5b00c0">rw</text>
</g>
</g>
</svg>
