<?xml version="1.0" encoding="UTF-8" standalone="no"?>
<!DOCTYPE svg PUBLIC "-//W3C//DTD SVG 1.1//EN"
 "http://www.w3.org/Graphics/SVG/1.1/DTD/svg11.dtd">
<!-- Generated by graphviz version 2.40.1 (20161225.0304)
 -->
<!-- Title: a_graph Pages: 1 -->
<svg width="3992pt" height="281pt"
 viewBox="0.00 0.00 3992.00 281.00" xmlns="http://www.w3.org/2000/svg" xmlns:xlink="http://www.w3.org/1999/xlink">
<g id="graph0" class="graph" transform="scale(1 1) rotate(0) translate(4 277)">
<title>a_graph</title>
<polygon fill="#ffffff" stroke="transparent" points="-4,4 -4,-277 3988,-277 3988,4 -4,4"/>
<!-- T35773 -->
<g id="node1" class="node">
<title>T35773</title>
<polygon fill="none" stroke="#0058ad" points="2822,-243.5 2822,-272.5 2893,-272.5 2893,-243.5 2822,-243.5"/>
<text text-anchor="middle" x="2857.5" y="-254.3" font-family="Times,serif" font-size="14.00" fill="#0058ad">a 177 127</text>
</g>
<!-- T35777 -->
<g id="node2" class="node">
<title>T35777</title>
<polygon fill="none" stroke="#0058ad" points="1176.5,-162.5 1176.5,-191.5 2854.5,-191.5 2854.5,-162.5 1176.5,-162.5"/>
<text text-anchor="middle" x="1980" y="-173.3" font-family="Times,serif" font-size="14.00" fill="#0058ad">r 176 [2 3 4 1 7 8 5 6 11 13 14 16 18 19 20 21 22 23 24 25 26 29 27 28 30 31 32 33 34 36 35 37 38 39 40 41 42 45 46 47 48 49 50 51 52 43 44 54 53 56 57 55 59 60 61 58 62 63 65 67 68 69 70 71 72 73 74 76 77 78 79 81 82 84 85 86 88 87 90 91 89 92 94 95 93 96 97 98 99 100 101 102]</text>
<polyline fill="none" stroke="#0058ad" points="2783.5,-162.5 2783.5,-191.5 "/>
<text text-anchor="middle" x="2819" y="-173.3" font-family="Times,serif" font-size="14.00" fill="#0058ad">a 177 128</text>
</g>
<!-- T35773&#45;&gt;T35777 -->
<g id="edge1" class="edge">
<title>T35773:f0&#45;&gt;T35777:f1</title>
<path fill="none" stroke="#c02700" d="M2843.1338,-243.3731C2834.2224,-232.983 2823.8627,-218.0807 2820.5648,-202.0767"/>
<polygon fill="#c02700" stroke="#c02700" points="2824.0315,-201.5768 2819.5,-192 2817.0703,-202.3124 2824.0315,-201.5768"/>
<text text-anchor="middle" x="2839.5" y="-213.8" font-family="Times,serif" font-size="14.00" fill="#c02700">ww</text>
</g>
<!-- T35775 -->
<g id="node3" class="node">
<title>T35775</title>
<polygon fill="none" stroke="#0058ad" points="0,-81.5 0,-110.5 2585,-110.5 2585,-81.5 0,-81.5"/>
<text text-anchor="middle" x="138" y="-92.3" font-family="Times,serif" font-size="14.00" fill="#0058ad">r 178 [1 2 3 4 5 7 8 9 10 11 12 13 14 15 16 17]</text>
<polyline fill="none" stroke="#0058ad" points="276,-81.5 276,-110.5 "/>
<text text-anchor="middle" x="308" y="-92.3" font-family="Times,serif" font-size="14.00" fill="#0058ad">a 178 18</text>
<polyline fill="none" stroke="#0058ad" points="340,-81.5 340,-110.5 "/>
<text text-anchor="middle" x="1427" y="-92.3" font-family="Times,serif" font-size="14.00" fill="#0058ad">r 177 [1 2 3 4 5 6 8 9 10 11 7 12 13 14 16 17 15 19 20 21 22 23 24 25 26 27 28 29 30 31 18 32 34 35 36 37 33 38 39 40 42 43 44 45 41 46 47 48 49 51 50 52 54 56 57 59 60 53 61 62 64 65 67 63 68 69 70 71 73 72 74 75 76 77 78 80 81 82 86 83 87 89 90 91 88 93 92 94 95 96 99 97 98 100 101 105 104 106 107 110 111 108 109 112 113 115 114 117 118 119 116 120 121 122 123 124 125]</text>
<polyline fill="none" stroke="#0058ad" points="2514,-81.5 2514,-110.5 "/>
<text text-anchor="middle" x="2549.5" y="-92.3" font-family="Times,serif" font-size="14.00" fill="#0058ad">a 176 103</text>
</g>
<!-- T35777&#45;&gt;T35775 -->
<g id="edge2" class="edge">
<title>T35777:f0&#45;&gt;T35775:f3</title>
<path fill="none" stroke="#5b00c0" d="M1979.5,-162C1979.5,88.868 2534.0206,-352.9635 2549.1833,-121.0365"/>
<polygon fill="#5b00c0" stroke="#5b00c0" points="2552.6828,-121.1055 2549.5,-111 2545.6862,-120.8846 2552.6828,-121.1055"/>
<text text-anchor="middle" x="2554" y="-132.8" font-family="Times,serif" font-size="14.00" fill="#5b00c0">rw</text>
</g>
<!-- T35771 -->
<g id="node4" class="node">
<title>T35771</title>
<polygon fill="none" stroke="#0058ad" points="1715,-.5 1715,-29.5 3984,-29.5 3984,-.5 1715,-.5"/>
<text text-anchor="middle" x="1750.5" y="-11.3" font-family="Times,serif" font-size="14.00" fill="#0058ad">a 177 126</text>
<polyline fill="none" stroke="#0058ad" points="1786,-.5 1786,-29.5 "/>
<text text-anchor="middle" x="2885" y="-11.3" font-family="Times,serif" font-size="14.00" fill="#0058ad">r 177 [1 2 3 4 5 6 8 9 10 11 7 12 13 14 16 17 15 19 20 21 22 23 24 25 26 27 28 29 30 31 18 32 34 35 36 37 33 38 39 40 42 43 44 45 41 46 47 48 49 51 50 52 54 56 57 59 60 53 61 62 64 65 67 63 68 69 70 71 73 72 74 75 76 77 78 80 81 82 86 83 87 89 90 91 88 93 92 94 95 96 99 97 98 100 101 105 104 106 107 110 111 108 109 112 113 115 114 117 118 119 116 120 121 122 123 124 125 126]</text>
</g>
<!-- T35775&#45;&gt;T35771 -->
<g id="edge3" class="edge">
<title>T35775:f2&#45;&gt;T35771:f0</title>
<path fill="none" stroke="#5b00c0" d="M1427.5,-81C1427.5,-18.6252 1628.7733,-15.1948 1704.307,-15.0103"/>
<polygon fill="#5b00c0" stroke="#5b00c0" points="1704.5036,-18.5102 1714.5,-15 1704.4964,-11.5102 1704.5036,-18.5102"/>
<text text-anchor="middle" x="1459" y="-51.8" font-family="Times,serif" font-size="14.00" fill="#5b00c0">rw</text>
</g>
<!-- T35771&#45;&gt;T35773 -->
<g id="edge5" class="edge">
<title>T35771:f0&#45;&gt;T35773:f0</title>
<path fill="none" stroke="#c02700" d="M1750.5,-30C1750.5,-76.9744 2548.2547,-72.7559 2594.5,-81 2717.4201,-102.9129 2789.0197,-61.7892 2863.5,-162 2878.7378,-182.502 2873.6231,-212.7792 2867.0379,-233.8294"/>
<polygon fill="#c02700" stroke="#c02700" points="2863.7101,-232.744 2863.7698,-243.3387 2870.33,-235.0192 2863.7101,-232.744"/>
<text text-anchor="middle" x="2857.5" y="-132.8" font-family="Times,serif" font-size="14.00" fill="#c02700">ww</text>
</g>
<!-- T35771&#45;&gt;T35777 -->
<g id="edge4" class="edge">
<title>T35771&#45;&gt;T35777</title>
<path fill="none" stroke="#0050c0" d="M2825.5375,-29.5837C2777.9861,-57.6664 2667.4677,-118.7066 2565.5,-144 2535.4948,-151.4429 2485.5799,-157.231 2427.7218,-161.7256"/>
<polygon fill="#0050c0" stroke="#0050c0" points="2427.3096,-158.2467 2417.6028,-162.4927 2427.8388,-165.2267 2427.3096,-158.2467"/>
<text text-anchor="middle" x="2732" y="-92.3" font-family="Times,serif" font-size="14.00" fill="#0050c0">rt</text>
</g>
</g>
</svg>
