<?xml version="1.0" encoding="UTF-8" standalone="no"?>
<!DOCTYPE svg PUBLIC "-//W3C//DTD SVG 1.1//EN"
 "http://www.w3.org/Graphics/SVG/1.1/DTD/svg11.dtd">
<!-- Generated by graphviz version 2.40.1 (20161225.0304)
 -->
<!-- Title: a_graph Pages: 1 -->
<svg width="3492pt" height="119pt"
 viewBox="0.00 0.00 3492.00 119.00" xmlns="http://www.w3.org/2000/svg" xmlns:xlink="http://www.w3.org/1999/xlink">
<g id="graph0" class="graph" transform="scale(1 1) rotate(0) translate(4 115)">
<title>a_graph</title>
<polygon fill="#ffffff" stroke="transparent" points="-4,4 -4,-115 3488,-115 3488,4 -4,4"/>
<!-- T33327 -->
<g id="node1" class="node">
<title>T33327</title>
<polygon fill="none" stroke="#0058ad" points="0,-81.5 0,-110.5 1990,-110.5 1990,-81.5 0,-81.5"/>
<text text-anchor="middle" x="930.5" y="-92.3" font-family="Times,serif" font-size="14.00" fill="#0058ad">r 167 [1 2 3 4 6 7 5 9 10 8 11 12 13 14 15 16 18 19 17 22 23 24 20 21 26 27 28 29 30 31 32 33 34 35 36 37 38 39 40 41 42 43 44 45 46 25 50 51 47 48 53 56 57 58 59 54 55 61 62 63 64 66 65 68 74 69 77 75 78 80 81 79 82 85 88 89 90 91 93 92 95 94 96 97 98 99 100 101 102 104 103 106 107 108 109 110 111 112 113 105 114 115]</text>
<polyline fill="none" stroke="#0058ad" points="1861,-81.5 1861,-110.5 "/>
<text text-anchor="middle" x="1890" y="-92.3" font-family="Times,serif" font-size="14.00" fill="#0058ad">r 168 []</text>
<polyline fill="none" stroke="#0058ad" points="1919,-81.5 1919,-110.5 "/>
<text text-anchor="middle" x="1954.5" y="-92.3" font-family="Times,serif" font-size="14.00" fill="#0058ad">a 167 116</text>
</g>
<!-- T33323 -->
<g id="node2" class="node">
<title>T33323</title>
<polygon fill="none" stroke="#0058ad" points="1502,-.5 1502,-29.5 3484,-29.5 3484,-.5 1502,-.5"/>
<text text-anchor="middle" x="1530.5" y="-11.3" font-family="Times,serif" font-size="14.00" fill="#0058ad">a 168 1</text>
<polyline fill="none" stroke="#0058ad" points="1559,-.5 1559,-29.5 "/>
<text text-anchor="middle" x="1591" y="-11.3" font-family="Times,serif" font-size="14.00" fill="#0058ad">a 163 71</text>
<polyline fill="none" stroke="#0058ad" points="1623,-.5 1623,-29.5 "/>
<text text-anchor="middle" x="2553.5" y="-11.3" font-family="Times,serif" font-size="14.00" fill="#0058ad">r 167 [1 2 3 4 6 7 5 9 10 8 11 12 13 14 15 16 18 19 17 22 23 24 20 21 26 27 28 29 30 31 32 33 34 35 36 37 38 39 40 41 42 43 44 45 46 25 50 51 47 48 53 56 57 58 59 54 55 61 62 63 64 66 65 68 74 69 77 75 78 80 81 79 82 85 88 89 90 91 93 92 95 94 96 97 98 99 100 101 102 104 103 106 107 108 109 110 111 112 113 105 114 115]</text>
</g>
<!-- T33327&#45;&gt;T33323 -->
<g id="edge1" class="edge">
<title>T33327:f1&#45;&gt;T33323:f0</title>
<path fill="none" stroke="#5b00c0" d="M1890,-81C1890,76.9679 1545.9903,-179.5889 1530.5367,-40.2422"/>
<polygon fill="#5b00c0" stroke="#5b00c0" points="1534.0186,-39.8031 1530,-30 1527.0282,-40.1695 1534.0186,-39.8031"/>
<text text-anchor="middle" x="1894.5" y="-51.8" font-family="Times,serif" font-size="14.00" fill="#5b00c0">rw</text>
</g>
<!-- T33323&#45;&gt;T33327 -->
<g id="edge2" class="edge">
<title>T33323:f2&#45;&gt;T33327:f2</title>
<path fill="none" stroke="#5b00c0" d="M2554,-30C2554,-90.4448 2094.2793,-95.6498 2000.1949,-95.9804"/>
<polygon fill="#5b00c0" stroke="#5b00c0" points="1999.9932,-92.4807 1990,-96 2000.0067,-99.4807 1999.9932,-92.4807"/>
<text text-anchor="middle" x="2540.5" y="-51.8" font-family="Times,serif" font-size="14.00" fill="#5b00c0">rw</text>
</g>
</g>
</svg>
