<?xml version="1.0" encoding="UTF-8" standalone="no"?>
<!DOCTYPE svg PUBLIC "-//W3C//DTD SVG 1.1//EN"
 "http://www.w3.org/Graphics/SVG/1.1/DTD/svg11.dtd">
<!-- Generated by graphviz version 2.40.1 (20161225.0304)
 -->
<!-- Title: a_graph Pages: 1 -->
<svg width="4109pt" height="119pt"
 viewBox="0.00 0.00 4109.00 119.00" xmlns="http://www.w3.org/2000/svg" xmlns:xlink="http://www.w3.org/1999/xlink">
<g id="graph0" class="graph" transform="scale(1 1) rotate(0) translate(4 115)">
<title>a_graph</title>
<polygon fill="#ffffff" stroke="transparent" points="-4,4 -4,-115 4105,-115 4105,4 -4,4"/>
<!-- T34983 -->
<g id="node1" class="node">
<title>T34983</title>
<polygon fill="none" stroke="#0058ad" points="2521.5,-81.5 2521.5,-110.5 2915.5,-110.5 2915.5,-81.5 2521.5,-81.5"/>
<text text-anchor="middle" x="2647.5" y="-92.3" font-family="Times,serif" font-size="14.00" fill="#0058ad">r 175 [1 2 3 4 6 7 8 5 10 9 12 13 11 16 14]</text>
<polyline fill="none" stroke="#0058ad" points="2773.5,-81.5 2773.5,-110.5 "/>
<text text-anchor="middle" x="2809" y="-92.3" font-family="Times,serif" font-size="14.00" fill="#0058ad">a 160 119</text>
<polyline fill="none" stroke="#0058ad" points="2844.5,-81.5 2844.5,-110.5 "/>
<text text-anchor="middle" x="2880" y="-92.3" font-family="Times,serif" font-size="14.00" fill="#0058ad">a 173 117</text>
</g>
<!-- T34979 -->
<g id="node2" class="node">
<title>T34979</title>
<polygon fill="none" stroke="#0058ad" points="0,-.5 0,-29.5 4101,-29.5 4101,-.5 0,-.5"/>
<text text-anchor="middle" x="32" y="-11.3" font-family="Times,serif" font-size="14.00" fill="#0058ad">a 171 48</text>
<polyline fill="none" stroke="#0058ad" points="64,-.5 64,-29.5 "/>
<text text-anchor="middle" x="1075.5" y="-11.3" font-family="Times,serif" font-size="14.00" fill="#0058ad">r 173 [2 3 4 1 5 6 7 8 9 11 10 13 14 12 15 16 17 18 19 20 21 22 23 24 25 26 27 28 29 31 32 30 33 34 35 36 38 39 37 40 41 43 42 44 45 48 49 50 51 52 53 54 55 56 57 58 59 61 63 64 65 62 66 67 68 69 71 73 72 76 77 74 75 78 79 81 82 83 84 86 87 88 89 85 90 91 95 92 93 94 96 97 98 99 100 101 102 103 104 105 106 108 107 109 110 111 112 113 114 115 116]</text>
<polyline fill="none" stroke="#0058ad" points="2087,-.5 2087,-29.5 "/>
<text text-anchor="middle" x="2119" y="-11.3" font-family="Times,serif" font-size="14.00" fill="#0058ad">a 175 15</text>
<polyline fill="none" stroke="#0058ad" points="2151,-.5 2151,-29.5 "/>
<text text-anchor="middle" x="3126" y="-11.3" font-family="Times,serif" font-size="14.00" fill="#0058ad">r 160 [1 2 3 5 7 8 9 10 11 13 14 16 18 17 20 21 19 23 22 24 25 26 27 28 29 33 34 35 37 38 39 40 41 42 43 44 45 47 46 48 49 50 51 52 53 55 54 56 57 58 59 60 62 63 64 66 65 67 68 69 70 71 72 73 74 75 76 77 78 79 80 81 82 83 85 86 84 88 89 90 91 92 93 94 95 96 97 98 99 100 101 102 103 105 104 106 107 110 111 112 114 113 115 116 117 118]</text>
</g>
<!-- T34983&#45;&gt;T34979 -->
<g id="edge1" class="edge">
<title>T34983:f0&#45;&gt;T34979:f2</title>
<path fill="none" stroke="#5b00c0" d="M2521.5,-96C2479.3296,-96 2166.8169,-78.0027 2124.2876,-38.9401"/>
<polygon fill="#5b00c0" stroke="#5b00c0" points="2127.3064,-37.1632 2119.5,-30 2121.1355,-40.4679 2127.3064,-37.1632"/>
<text text-anchor="middle" x="2197" y="-51.8" font-family="Times,serif" font-size="14.00" fill="#5b00c0">rw</text>
</g>
<!-- T34979&#45;&gt;T34983 -->
<g id="edge2" class="edge">
<title>T34979:f3&#45;&gt;T34983:f1</title>
<path fill="none" stroke="#5b00c0" d="M3126.5,-30C3126.5,-169.0773 2825.3933,50.0405 2810.1027,-70.8472"/>
<polygon fill="#5b00c0" stroke="#5b00c0" points="2806.5988,-70.8101 2809.5,-81 2813.5865,-71.225 2806.5988,-70.8101"/>
<text text-anchor="middle" x="3130" y="-51.8" font-family="Times,serif" font-size="14.00" fill="#5b00c0">rw</text>
</g>
</g>
</svg>
