<?xml version="1.0" encoding="UTF-8" standalone="no"?>
<!DOCTYPE svg PUBLIC "-//W3C//DTD SVG 1.1//EN"
 "http://www.w3.org/Graphics/SVG/1.1/DTD/svg11.dtd">
<!-- Generated by graphviz version 2.40.1 (20161225.0304)
 -->
<!-- Title: a_graph Pages: 1 -->
<svg width="2506pt" height="119pt"
 viewBox="0.00 0.00 2506.00 119.00" xmlns="http://www.w3.org/2000/svg" xmlns:xlink="http://www.w3.org/1999/xlink">
<g id="graph0" class="graph" transform="scale(1 1) rotate(0) translate(4 115)">
<title>a_graph</title>
<polygon fill="#ffffff" stroke="transparent" points="-4,4 -4,-115 2502,-115 2502,4 -4,4"/>
<!-- T8315 -->
<g id="node1" class="node">
<title>T8315</title>
<polygon fill="none" stroke="#0058ad" points="0,-81.5 0,-110.5 2359,-110.5 2359,-81.5 0,-81.5"/>
<text text-anchor="middle" x="588.5" y="-92.3" font-family="Times,serif" font-size="14.00" fill="#0058ad">r 45 [1 2 3 4 5 6 7 8 9 10 11 12 13 14 15 16 17 18 19 20 21 22 24 25 26 29 30 35 36 39 40 42 41 43 44 45 46 47 48 49 51 52 50 53 54 55 56 57 58 59 60 61 62 63 64 65 66 67 68 69 70 71 72 73 74 75 77 78 79]</text>
<polyline fill="none" stroke="#0058ad" points="1177,-81.5 1177,-110.5 "/>
<text text-anchor="middle" x="1739.5" y="-92.3" font-family="Times,serif" font-size="14.00" fill="#0058ad">r 44 [1 2 3 4 5 6 7 8 9 10 11 12 13 14 15 16 17 18 19 20 21 22 23 24 25 27 28 26 29 30 31 32 33 34 35 36 37 38 39 40 41 42 43 44 45 46 47 53 54 55 56 57 58 59 60 61 62 63 64 65 67 66 68 69 70 71]</text>
<polyline fill="none" stroke="#0058ad" points="2302,-81.5 2302,-110.5 "/>
<text text-anchor="middle" x="2330.5" y="-92.3" font-family="Times,serif" font-size="14.00" fill="#0058ad">a 45 76</text>
</g>
<!-- T8313 -->
<g id="node2" class="node">
<title>T8313</title>
<polygon fill="none" stroke="#0058ad" points="1207,-.5 1207,-29.5 2498,-29.5 2498,-.5 1207,-.5"/>
<text text-anchor="middle" x="1795.5" y="-11.3" font-family="Times,serif" font-size="14.00" fill="#0058ad">r 45 [1 2 3 4 5 6 7 8 9 10 11 12 13 14 15 16 17 18 19 20 21 22 24 25 26 29 30 35 36 39 40 42 41 43 44 45 46 47 48 49 51 52 50 53 54 55 56 57 58 59 60 61 62 63 64 65 66 67 68 69 70 71 72 73 74 75 77 78 79]</text>
<polyline fill="none" stroke="#0058ad" points="2384,-.5 2384,-29.5 "/>
<text text-anchor="middle" x="2412.5" y="-11.3" font-family="Times,serif" font-size="14.00" fill="#0058ad">a 44 72</text>
<polyline fill="none" stroke="#0058ad" points="2441,-.5 2441,-29.5 "/>
<text text-anchor="middle" x="2469.5" y="-11.3" font-family="Times,serif" font-size="14.00" fill="#0058ad">a 40 53</text>
</g>
<!-- T8315&#45;&gt;T8313 -->
<g id="edge1" class="edge">
<title>T8315:f1&#45;&gt;T8313:f1</title>
<path fill="none" stroke="#5b00c0" d="M1739.5,-81C1739.5,11.5133 2062.2433,-54.8861 2154.5,-48 2167.1772,-47.0538 2359.3867,-44.9389 2403.5167,-34.5126"/>
<polygon fill="#5b00c0" stroke="#5b00c0" points="2405.1352,-37.6164 2412.5,-30 2401.993,-31.3613 2405.1352,-37.6164"/>
<text text-anchor="middle" x="2162" y="-51.8" font-family="Times,serif" font-size="14.00" fill="#5b00c0">rw</text>
</g>
<!-- T8313&#45;&gt;T8315 -->
<g id="edge2" class="edge">
<title>T8313:f0&#45;&gt;T8315:f2</title>
<path fill="none" stroke="#5b00c0" d="M1795.5,-30C1795.5,-50.8018 2148.8608,-45.4039 2169.5,-48 2238.2919,-56.6531 2321.5503,-12.7993 2329.8288,-70.7941"/>
<polygon fill="#5b00c0" stroke="#5b00c0" points="2326.3512,-71.2513 2330.5,-81 2333.3361,-70.7918 2326.3512,-71.2513"/>
<text text-anchor="middle" x="2335" y="-51.8" font-family="Times,serif" font-size="14.00" fill="#5b00c0">rw</text>
</g>
</g>
</svg>
