<?xml version="1.0" encoding="UTF-8" standalone="no"?>
<!DOCTYPE svg PUBLIC "-//W3C//DTD SVG 1.1//EN"
 "http://www.w3.org/Graphics/SVG/1.1/DTD/svg11.dtd">
<!-- Generated by graphviz version 2.40.1 (20161225.0304)
 -->
<!-- Title: a_graph Pages: 1 -->
<svg width="2973pt" height="281pt"
 viewBox="0.00 0.00 2973.00 281.00" xmlns="http://www.w3.org/2000/svg" xmlns:xlink="http://www.w3.org/1999/xlink">
<g id="graph0" class="graph" transform="scale(1 1) rotate(0) translate(4 277)">
<title>a_graph</title>
<polygon fill="#ffffff" stroke="transparent" points="-4,4 -4,-277 2969,-277 2969,4 -4,4"/>
<!-- T21821 -->
<g id="node1" class="node">
<title>T21821</title>
<polygon fill="none" stroke="#0058ad" points="514.5,-243.5 514.5,-272.5 1774.5,-272.5 1774.5,-243.5 514.5,-243.5"/>
<text text-anchor="middle" x="1080.5" y="-254.3" font-family="Times,serif" font-size="14.00" fill="#0058ad">r 110 [1 3 4 5 2 6 7 9 10 14 11 12 13 15 16 8 18 19 17 22 24 25 27 28 26 29 30 32 33 31 34 35 36 37 38 39 40 41 42 43 44 45 48 46 49 50 51 52 47 53 54 57 55 56 58 61 62 63 65 66 67 70 64 68 69 72]</text>
<polyline fill="none" stroke="#0058ad" points="1646.5,-243.5 1646.5,-272.5 "/>
<text text-anchor="middle" x="1678.5" y="-254.3" font-family="Times,serif" font-size="14.00" fill="#0058ad">a 99 105</text>
<polyline fill="none" stroke="#0058ad" points="1710.5,-243.5 1710.5,-272.5 "/>
<text text-anchor="middle" x="1742.5" y="-254.3" font-family="Times,serif" font-size="14.00" fill="#0058ad">a 106 86</text>
</g>
<!-- T21815 -->
<g id="node2" class="node">
<title>T21815</title>
<polygon fill="none" stroke="#0058ad" points="2226.5,-162.5 2226.5,-191.5 2354.5,-191.5 2354.5,-162.5 2226.5,-162.5"/>
<text text-anchor="middle" x="2258.5" y="-173.3" font-family="Times,serif" font-size="14.00" fill="#0058ad">a 109 82</text>
<polyline fill="none" stroke="#0058ad" points="2290.5,-162.5 2290.5,-191.5 "/>
<text text-anchor="middle" x="2322.5" y="-173.3" font-family="Times,serif" font-size="14.00" fill="#0058ad">a 110 76</text>
</g>
<!-- T21821&#45;&gt;T21815 -->
<g id="edge1" class="edge">
<title>T21821:f0&#45;&gt;T21815:f1</title>
<path fill="none" stroke="#5b00c0" d="M1080.5,-243C1080.5,-108.3906 2260.2304,-318.9129 2320.1386,-201.8297"/>
<polygon fill="#5b00c0" stroke="#5b00c0" points="2323.5672,-202.5409 2322.5,-192 2316.7609,-200.9058 2323.5672,-202.5409"/>
<text text-anchor="middle" x="2318" y="-213.8" font-family="Times,serif" font-size="14.00" fill="#5b00c0">rw</text>
</g>
<!-- T21825 -->
<g id="node3" class="node">
<title>T21825</title>
<polygon fill="none" stroke="#0058ad" points="0,-.5 0,-29.5 2965,-29.5 2965,-.5 0,-.5"/>
<text text-anchor="middle" x="876" y="-11.3" font-family="Times,serif" font-size="14.00" fill="#0058ad">r 99 [1 2 3 5 6 7 8 9 10 11 12 13 14 15 16 17 18 19 20 21 22 23 24 25 26 27 28 29 30 31 32 33 34 35 36 37 38 39 40 41 42 43 44 45 46 47 48 49 50 51 52 54 55 53 57 58 59 60 61 62 63 64 65 66 67 68 70 71 72 73 75 76 77 74 79 78 80 81 83 84 86 85 87 88 89 90 91 92 93 94 95 96 97 98 99 100 101 102 103 104]</text>
<polyline fill="none" stroke="#0058ad" points="1752,-.5 1752,-29.5 "/>
<text text-anchor="middle" x="2326.5" y="-11.3" font-family="Times,serif" font-size="14.00" fill="#0058ad">r 110 [1 3 4 5 2 6 7 9 10 14 11 12 13 15 16 8 18 19 17 22 24 25 27 28 26 29 30 32 33 31 34 35 36 37 38 39 40 41 42 43 44 45 48 46 49 50 51 52 47 53 54 57 55 56 58 61 62 63 65 66 67 70 64 68 69 72 76]</text>
<polyline fill="none" stroke="#0058ad" points="2901,-.5 2901,-29.5 "/>
<text text-anchor="middle" x="2933" y="-11.3" font-family="Times,serif" font-size="14.00" fill="#0058ad">a 109 84</text>
</g>
<!-- T21815&#45;&gt;T21825 -->
<g id="edge2" class="edge">
<title>T21815:f1&#45;&gt;T21825:f1</title>
<path fill="none" stroke="#c000a5" d="M2322.5,-162C2322.5,-106.8601 2326.0303,-90.6247 2326.4578,-40.1959"/>
<polygon fill="#c000a5" stroke="#c000a5" points="2329.9585,-40.0144 2326.5,-30 2322.9585,-39.9854 2329.9585,-40.0144"/>
<text text-anchor="middle" x="2333" y="-92.3" font-family="Times,serif" font-size="14.00" fill="#c000a5">wr</text>
</g>
<!-- T21817 -->
<g id="node4" class="node">
<title>T21817</title>
<polygon fill="none" stroke="#0058ad" points="2226.5,-81.5 2226.5,-110.5 2290.5,-110.5 2290.5,-81.5 2226.5,-81.5"/>
<text text-anchor="middle" x="2258.5" y="-92.3" font-family="Times,serif" font-size="14.00" fill="#0058ad">a 109 83</text>
</g>
<!-- T21815&#45;&gt;T21817 -->
<g id="edge3" class="edge">
<title>T21815:f0&#45;&gt;T21817:f0</title>
<path fill="none" stroke="#c02700" d="M2258.5,-162C2258.5,-148.3521 2258.5,-133.1166 2258.5,-120.7254"/>
<polygon fill="#c02700" stroke="#c02700" points="2262.0001,-120.6796 2258.5,-110.6796 2255.0001,-120.6797 2262.0001,-120.6796"/>
<text text-anchor="middle" x="2268.5" y="-132.8" font-family="Times,serif" font-size="14.00" fill="#c02700">ww</text>
</g>
<!-- T21825&#45;&gt;T21821 -->
<g id="edge4" class="edge">
<title>T21825:f0&#45;&gt;T21821:f1</title>
<path fill="none" stroke="#5b00c0" d="M875.5,-30C875.5,-395.8054 1663.6697,116.5581 1678.2939,-232.9531"/>
<polygon fill="#5b00c0" stroke="#5b00c0" points="1674.7956,-233.0739 1678.5,-243 1681.7941,-232.9303 1674.7956,-233.0739"/>
<text text-anchor="middle" x="1653" y="-132.8" font-family="Times,serif" font-size="14.00" fill="#5b00c0">rw</text>
</g>
<!-- T21817&#45;&gt;T21825 -->
<g id="edge5" class="edge">
<title>T21817:f0&#45;&gt;T21825:f2</title>
<path fill="none" stroke="#c02700" d="M2264.4326,-81.3863C2269.8921,-70.059 2279.1736,-55.1302 2292.5,-48 2321.7644,-32.3423 2852.8597,-61.1571 2925.3336,-36.3626"/>
<polygon fill="#c02700" stroke="#c02700" points="2927.7627,-38.907 2933.5,-30 2923.4605,-33.3851 2927.7627,-38.907"/>
<text text-anchor="middle" x="2302.5" y="-51.8" font-family="Times,serif" font-size="14.00" fill="#c02700">ww</text>
</g>
</g>
</svg>
