<?xml version="1.0" encoding="UTF-8" standalone="no"?>
<!DOCTYPE svg PUBLIC "-//W3C//DTD SVG 1.1//EN"
 "http://www.w3.org/Graphics/SVG/1.1/DTD/svg11.dtd">
<!-- Generated by graphviz version 2.40.1 (20161225.0304)
 -->
<!-- Title: a_graph Pages: 1 -->
<svg width="1495pt" height="119pt"
 viewBox="0.00 0.00 1495.00 119.00" xmlns="http://www.w3.org/2000/svg" xmlns:xlink="http://www.w3.org/1999/xlink">
<g id="graph0" class="graph" transform="scale(1 1) rotate(0) translate(4 115)">
<title>a_graph</title>
<polygon fill="#ffffff" stroke="transparent" points="-4,4 -4,-115 1491,-115 1491,4 -4,4"/>
<!-- T1899 -->
<g id="node1" class="node">
<title>T1899</title>
<polygon fill="none" stroke="#0058ad" points="0,-81.5 0,-110.5 782,-110.5 782,-81.5 0,-81.5"/>
<text text-anchor="middle" x="362.5" y="-92.3" font-family="Times,serif" font-size="14.00" fill="#0058ad">r 16 [1 2 3 5 6 7 4 10 11 13 14 17 15 16 18 19 20 21 22 23 24 25 26 27 28 33 34 30 31 32 36 37 38 41 39 42 43 44 49 47 48 53]</text>
<polyline fill="none" stroke="#0058ad" points="725,-81.5 725,-110.5 "/>
<text text-anchor="middle" x="753.5" y="-92.3" font-family="Times,serif" font-size="14.00" fill="#0058ad">a 15 52</text>
</g>
<!-- T1901 -->
<g id="node2" class="node">
<title>T1901</title>
<polygon fill="none" stroke="#0058ad" points="329,-.5 329,-29.5 1487,-29.5 1487,-.5 329,-.5"/>
<text text-anchor="middle" x="357.5" y="-11.3" font-family="Times,serif" font-size="14.00" fill="#0058ad">a 16 54</text>
<polyline fill="none" stroke="#0058ad" points="386,-.5 386,-29.5 "/>
<text text-anchor="middle" x="767.5" y="-11.3" font-family="Times,serif" font-size="14.00" fill="#0058ad">r 15 [1 2 3 4 5 6 7 10 11 12 14 13 15 8 9 16 17 19 18 20 21 22 23 24 27 28 26 29 25 30 31 33 34 32 35 36 37 38 39 40 42 43 49 50 51]</text>
<polyline fill="none" stroke="#0058ad" points="1149,-.5 1149,-29.5 "/>
<text text-anchor="middle" x="1318" y="-11.3" font-family="Times,serif" font-size="14.00" fill="#0058ad">r 14 [1 2 4 5 6 7 8 9 10 11 12 13 14 15 16 18 21 22 23 25]</text>
</g>
<!-- T1899&#45;&gt;T1901 -->
<g id="edge1" class="edge">
<title>T1899:f0&#45;&gt;T1901:f0</title>
<path fill="none" stroke="#5b00c0" d="M362,-81C362,-62.1392 358.571,-55.1604 357.3923,-40.384"/>
<polygon fill="#5b00c0" stroke="#5b00c0" points="360.8752,-39.8607 357,-30 353.8802,-40.125 360.8752,-39.8607"/>
<text text-anchor="middle" x="368.5" y="-51.8" font-family="Times,serif" font-size="14.00" fill="#5b00c0">rw</text>
</g>
<!-- T1901&#45;&gt;T1899 -->
<g id="edge2" class="edge">
<title>T1901:f1&#45;&gt;T1899:f1</title>
<path fill="none" stroke="#5b00c0" d="M767,-30C767,-49.5538 757.9157,-55.7087 754.9349,-70.866"/>
<polygon fill="#5b00c0" stroke="#5b00c0" points="751.4336,-70.7207 754,-81 758.404,-71.3638 751.4336,-70.7207"/>
<text text-anchor="middle" x="770.5" y="-51.8" font-family="Times,serif" font-size="14.00" fill="#5b00c0">rw</text>
</g>
</g>
</svg>
