<?xml version="1.0" encoding="UTF-8" standalone="no"?>
<!DOCTYPE svg PUBLIC "-//W3C//DTD SVG 1.1//EN"
 "http://www.w3.org/Graphics/SVG/1.1/DTD/svg11.dtd">
<!-- Generated by graphviz version 2.40.1 (20161225.0304)
 -->
<!-- Title: a_graph Pages: 1 -->
<svg width="443pt" height="119pt"
 viewBox="0.00 0.00 443.00 119.00" xmlns="http://www.w3.org/2000/svg" xmlns:xlink="http://www.w3.org/1999/xlink">
<g id="graph0" class="graph" transform="scale(1 1) rotate(0) translate(4 115)">
<title>a_graph</title>
<polygon fill="#ffffff" stroke="transparent" points="-4,4 -4,-115 439,-115 439,4 -4,4"/>
<!-- T6695 -->
<g id="node1" class="node">
<title>T6695</title>
<polygon fill="none" stroke="#0058ad" points="0,-81.5 0,-110.5 389,-110.5 389,-81.5 0,-81.5"/>
<text text-anchor="middle" x="166" y="-92.3" font-family="Times,serif" font-size="14.00" fill="#0058ad">r 38 [1 2 3 4 6 5 7 8 9 10 11 12 15 14 16 17 19 18 20 21]</text>
<polyline fill="none" stroke="#0058ad" points="332,-81.5 332,-110.5 "/>
<text text-anchor="middle" x="360.5" y="-92.3" font-family="Times,serif" font-size="14.00" fill="#0058ad">a 39 13</text>
</g>
<!-- T6697 -->
<g id="node2" class="node">
<title>T6697</title>
<polygon fill="none" stroke="#0058ad" points="32,-.5 32,-29.5 435,-29.5 435,-.5 32,-.5"/>
<text text-anchor="middle" x="118.5" y="-11.3" font-family="Times,serif" font-size="14.00" fill="#0058ad">r 39 [3 5 6 4 8 9 10 11 7 12]</text>
<polyline fill="none" stroke="#0058ad" points="205,-.5 205,-29.5 "/>
<text text-anchor="middle" x="291.5" y="-11.3" font-family="Times,serif" font-size="14.00" fill="#0058ad">r 39 [3 5 6 4 8 9 10 11 7 12]</text>
<polyline fill="none" stroke="#0058ad" points="378,-.5 378,-29.5 "/>
<text text-anchor="middle" x="406.5" y="-11.3" font-family="Times,serif" font-size="14.00" fill="#0058ad">a 38 22</text>
</g>
<!-- T6695&#45;&gt;T6697 -->
<g id="edge1" class="edge">
<title>T6695:f0&#45;&gt;T6697:f2</title>
<path fill="none" stroke="#5b00c0" d="M165.5,-81C165.5,-26.5433 230.2284,-59.2989 283.5,-48 306.9343,-43.0296 382.2225,-53.9175 401.8075,-38.8823"/>
<polygon fill="#5b00c0" stroke="#5b00c0" points="404.9235,-40.4769 406.5,-30 398.7341,-37.2071 404.9235,-40.4769"/>
<text text-anchor="middle" x="291" y="-51.8" font-family="Times,serif" font-size="14.00" fill="#5b00c0">rw</text>
</g>
<!-- T6697&#45;&gt;T6695 -->
<g id="edge2" class="edge">
<title>T6697:f0&#45;&gt;T6695:f1</title>
<path fill="none" stroke="#5b00c0" d="M118.5,-30C118.5,-50.0998 279.265,-42.1679 298.5,-48 324.6386,-55.9254 352.5034,-51.3474 359.0612,-70.9912"/>
<polygon fill="#5b00c0" stroke="#5b00c0" points="355.6126,-71.5998 360.5,-81 362.5414,-70.6037 355.6126,-71.5998"/>
<text text-anchor="middle" x="361" y="-51.8" font-family="Times,serif" font-size="14.00" fill="#5b00c0">rw</text>
</g>
</g>
</svg>
