<?xml version="1.0" encoding="UTF-8" standalone="no"?>
<!DOCTYPE svg PUBLIC "-//W3C//DTD SVG 1.1//EN"
 "http://www.w3.org/Graphics/SVG/1.1/DTD/svg11.dtd">
<!-- Generated by graphviz version 2.40.1 (20161225.0304)
 -->
<!-- Title: a_graph Pages: 1 -->
<svg width="3588pt" height="119pt"
 viewBox="0.00 0.00 3588.00 119.00" xmlns="http://www.w3.org/2000/svg" xmlns:xlink="http://www.w3.org/1999/xlink">
<g id="graph0" class="graph" transform="scale(1 1) rotate(0) translate(4 115)">
<title>a_graph</title>
<polygon fill="#ffffff" stroke="transparent" points="-4,4 -4,-115 3584,-115 3584,4 -4,4"/>
<!-- T25397 -->
<g id="node1" class="node">
<title>T25397</title>
<polygon fill="none" stroke="#0058ad" points="0,-81.5 0,-110.5 2157,-110.5 2157,-81.5 0,-81.5"/>
<text text-anchor="middle" x="32" y="-92.3" font-family="Times,serif" font-size="14.00" fill="#0058ad">a 121 99</text>
<polyline fill="none" stroke="#0058ad" points="64,-81.5 64,-110.5 "/>
<text text-anchor="middle" x="1046" y="-92.3" font-family="Times,serif" font-size="14.00" fill="#0058ad">r 112 [1 2 3 4 5 6 7 8 9 11 12 13 14 15 16 17 18 19 20 21 22 23 24 25 26 27 28 29 30 31 32 33 34 35 36 38 39 40 41 43 44 45 46 47 48 49 50 51 52 53 54 55 56 57 58 59 60 61 62 63 64 65 67 68 66 69 71 73 74 75 76 77 78 79 81 82 83 84 85 86 87 88 89 90 91 92 94 95 96 97 98 99 100 101 102 103 104 105 107 108 109 110 111 112 113 114 117 118]</text>
<polyline fill="none" stroke="#0058ad" points="2028,-81.5 2028,-110.5 "/>
<text text-anchor="middle" x="2063.5" y="-92.3" font-family="Times,serif" font-size="14.00" fill="#0058ad">a 123 124</text>
<polyline fill="none" stroke="#0058ad" points="2099,-81.5 2099,-110.5 "/>
<text text-anchor="middle" x="2128" y="-92.3" font-family="Times,serif" font-size="14.00" fill="#0058ad">r 126 []</text>
</g>
<!-- T25399 -->
<g id="node2" class="node">
<title>T25399</title>
<polygon fill="none" stroke="#0058ad" points="1539,-.5 1539,-29.5 3580,-29.5 3580,-.5 1539,-.5"/>
<text text-anchor="middle" x="1571" y="-11.3" font-family="Times,serif" font-size="14.00" fill="#0058ad">a 126 12</text>
<polyline fill="none" stroke="#0058ad" points="1603,-.5 1603,-29.5 "/>
<text text-anchor="middle" x="1638.5" y="-11.3" font-family="Times,serif" font-size="14.00" fill="#0058ad">r 126 [12]</text>
<polyline fill="none" stroke="#0058ad" points="1674,-.5 1674,-29.5 "/>
<text text-anchor="middle" x="2627" y="-11.3" font-family="Times,serif" font-size="14.00" fill="#0058ad">r 123 [2 3 4 5 6 7 8 9 10 11 12 13 14 15 16 17 18 19 20 21 23 25 26 27 28 30 31 32 33 29 34 35 36 38 39 37 40 41 42 43 44 45 46 48 49 50 51 53 52 54 55 56 57 58 59 60 61 62 63 64 65 66 68 69 70 71 72 73 74 75 78 79 80 81 82 83 84 85 86 87 88 89 90 91 92 93 94 95 96 97 99 100 101 102 103 104 105 106 107 108 109 110 111 112 113]</text>
</g>
<!-- T25397&#45;&gt;T25399 -->
<g id="edge1" class="edge">
<title>T25397:f3&#45;&gt;T25399:f0</title>
<path fill="none" stroke="#5b00c0" d="M2128.5,-81C2128.5,-60.2582 2114.5241,-56.2647 2095.5,-48 2070.7719,-37.2572 1643.6672,-55.9083 1578.7439,-35.8021"/>
<polygon fill="#5b00c0" stroke="#5b00c0" points="1580.6921,-32.8933 1570.5,-30 1576.6633,-38.6177 1580.6921,-32.8933"/>
<text text-anchor="middle" x="2129" y="-51.8" font-family="Times,serif" font-size="14.00" fill="#5b00c0">rw</text>
</g>
<!-- T25399&#45;&gt;T25397 -->
<g id="edge2" class="edge">
<title>T25399:f2&#45;&gt;T25397:f2</title>
<path fill="none" stroke="#5b00c0" d="M2627.5,-30C2627.5,-60.6274 2101.5317,-30.352 2076.5,-48 2066.7366,-54.8834 2064.3052,-61.2326 2063.7002,-70.7646"/>
<polygon fill="#5b00c0" stroke="#5b00c0" points="2060.1963,-70.9334 2063.5,-81 2067.195,-71.0704 2060.1963,-70.9334"/>
<text text-anchor="middle" x="2084" y="-51.8" font-family="Times,serif" font-size="14.00" fill="#5b00c0">rw</text>
</g>
</g>
</svg>
