<?xml version="1.0" encoding="UTF-8" standalone="no"?>
<!DOCTYPE svg PUBLIC "-//W3C//DTD SVG 1.1//EN"
 "http://www.w3.org/Graphics/SVG/1.1/DTD/svg11.dtd">
<!-- Generated by graphviz version 2.40.1 (20161225.0304)
 -->
<!-- Title: a_graph Pages: 1 -->
<svg width="2576pt" height="119pt"
 viewBox="0.00 0.00 2576.00 119.00" xmlns="http://www.w3.org/2000/svg" xmlns:xlink="http://www.w3.org/1999/xlink">
<g id="graph0" class="graph" transform="scale(1 1) rotate(0) translate(4 115)">
<title>a_graph</title>
<polygon fill="#ffffff" stroke="transparent" points="-4,4 -4,-115 2572,-115 2572,4 -4,4"/>
<!-- T16949 -->
<g id="node1" class="node">
<title>T16949</title>
<polygon fill="none" stroke="#0058ad" points="266,-81.5 266,-110.5 2568,-110.5 2568,-81.5 266,-81.5"/>
<text text-anchor="middle" x="639" y="-92.3" font-family="Times,serif" font-size="14.00" fill="#0058ad">r 87 [1 2 3 4 5 6 7 8 9 10 11 12 14 15 16 17 13 18 19 20 21 22 23 25 26 27 28 32 33 35 36 37 38 40 41 42 43 44 45 46 47 48 49 52]</text>
<polyline fill="none" stroke="#0058ad" points="1012,-81.5 1012,-110.5 "/>
<text text-anchor="middle" x="1385" y="-92.3" font-family="Times,serif" font-size="14.00" fill="#0058ad">r 87 [1 2 3 4 5 6 7 8 9 10 11 12 14 15 16 17 13 18 19 20 21 22 23 25 26 27 28 32 33 35 36 37 38 40 41 42 43 44 45 46 47 48 49 52]</text>
<polyline fill="none" stroke="#0058ad" points="1758,-81.5 1758,-110.5 "/>
<text text-anchor="middle" x="2131" y="-92.3" font-family="Times,serif" font-size="14.00" fill="#0058ad">r 87 [1 2 3 4 5 6 7 8 9 10 11 12 14 15 16 17 13 18 19 20 21 22 23 25 26 27 28 32 33 35 36 37 38 40 41 42 43 44 45 46 47 48 49 52]</text>
<polyline fill="none" stroke="#0058ad" points="2504,-81.5 2504,-110.5 "/>
<text text-anchor="middle" x="2536" y="-92.3" font-family="Times,serif" font-size="14.00" fill="#0058ad">a 83 127</text>
</g>
<!-- T16947 -->
<g id="node2" class="node">
<title>T16947</title>
<polygon fill="none" stroke="#0058ad" points="0,-.5 0,-29.5 2174,-29.5 2174,-.5 0,-.5"/>
<text text-anchor="middle" x="1030" y="-11.3" font-family="Times,serif" font-size="14.00" fill="#0058ad">r 83 [1 2 3 4 5 6 7 8 9 10 11 12 13 14 15 17 18 19 21 22 23 26 24 27 28 29 30 31 32 33 34 35 36 37 38 39 40 41 42 43 44 45 46 47 48 49 50 53 54 55 56 57 58 59 60 61 62 65 63 64 66 67 68 69 70 72 73 75 76 77 78 80 81 79 82 83 84 85 86 87 89 92 93 90 91 94 95 96 97 98 99 100 101 102 103 104 105 106 109 110 107 108 111 113 114 115 116 120 122 123 124 125]</text>
<polyline fill="none" stroke="#0058ad" points="2060,-.5 2060,-29.5 "/>
<text text-anchor="middle" x="2088.5" y="-11.3" font-family="Times,serif" font-size="14.00" fill="#0058ad">a 71 37</text>
<polyline fill="none" stroke="#0058ad" points="2117,-.5 2117,-29.5 "/>
<text text-anchor="middle" x="2145.5" y="-11.3" font-family="Times,serif" font-size="14.00" fill="#0058ad">a 87 53</text>
</g>
<!-- T16949&#45;&gt;T16947 -->
<g id="edge1" class="edge">
<title>T16949:f0&#45;&gt;T16947:f2</title>
<path fill="none" stroke="#5b00c0" d="M639,-81C639,-40.9965 2013.6466,-69.0915 2137.15,-35.2062"/>
<polygon fill="#5b00c0" stroke="#5b00c0" points="2139.1555,-38.0872 2146,-30 2135.6061,-32.0538 2139.1555,-38.0872"/>
<text text-anchor="middle" x="1966.5" y="-51.8" font-family="Times,serif" font-size="14.00" fill="#5b00c0">rw</text>
</g>
<!-- T16947&#45;&gt;T16949 -->
<g id="edge2" class="edge">
<title>T16947:f0&#45;&gt;T16949:f3</title>
<path fill="none" stroke="#5b00c0" d="M1030,-30C1030,-43.169 1964.841,-47.4862 1978,-48 2098.6069,-52.7094 2511.6733,37.8565 2534.9729,-70.9692"/>
<polygon fill="#5b00c0" stroke="#5b00c0" points="2531.4995,-71.4085 2536,-81 2538.4631,-70.6955 2531.4995,-71.4085"/>
<text text-anchor="middle" x="2538.5" y="-51.8" font-family="Times,serif" font-size="14.00" fill="#5b00c0">rw</text>
</g>
</g>
</svg>
