<?xml version="1.0" encoding="UTF-8" standalone="no"?>
<!DOCTYPE svg PUBLIC "-//W3C//DTD SVG 1.1//EN"
 "http://www.w3.org/Graphics/SVG/1.1/DTD/svg11.dtd">
<!-- Generated by graphviz version 2.40.1 (20161225.0304)
 -->
<!-- Title: a_graph Pages: 1 -->
<svg width="1954pt" height="119pt"
 viewBox="0.00 0.00 1954.00 119.00" xmlns="http://www.w3.org/2000/svg" xmlns:xlink="http://www.w3.org/1999/xlink">
<g id="graph0" class="graph" transform="scale(1 1) rotate(0) translate(4 115)">
<title>a_graph</title>
<polygon fill="#ffffff" stroke="transparent" points="-4,4 -4,-115 1950,-115 1950,4 -4,4"/>
<!-- T7239 -->
<g id="node1" class="node">
<title>T7239</title>
<polygon fill="none" stroke="#0058ad" points="277,-81.5 277,-110.5 1946,-110.5 1946,-81.5 277,-81.5"/>
<text text-anchor="middle" x="581" y="-92.3" font-family="Times,serif" font-size="14.00" fill="#0058ad">r 42 [1 2 3 4 5 6 7 8 9 10 11 12 13 14 16 15 17 18 19 22 20 23 21 24 25 26 27 29 28 30 31 32 33 34 35 36]</text>
<polyline fill="none" stroke="#0058ad" points="885,-81.5 885,-110.5 "/>
<text text-anchor="middle" x="913.5" y="-92.3" font-family="Times,serif" font-size="14.00" fill="#0058ad">a 41 23</text>
<polyline fill="none" stroke="#0058ad" points="942,-81.5 942,-110.5 "/>
<text text-anchor="middle" x="1444" y="-92.3" font-family="Times,serif" font-size="14.00" fill="#0058ad">r 38 [1 2 3 4 6 5 7 8 9 10 11 12 15 14 16 17 19 18 20 21 22 23 24 25 27 26 29 31 32 33 35 36 37 38 39 40 41 43 42 44 45 46 47 48 49 50 51 52 53 54 55 56 57 58 60 59 61 62 64]</text>
</g>
<!-- T7241 -->
<g id="node2" class="node">
<title>T7241</title>
<polygon fill="none" stroke="#0058ad" points="0,-.5 0,-29.5 1793,-29.5 1793,-.5 0,-.5"/>
<text text-anchor="middle" x="28.5" y="-11.3" font-family="Times,serif" font-size="14.00" fill="#0058ad">a 42 37</text>
<polyline fill="none" stroke="#0058ad" points="57,-.5 57,-29.5 "/>
<text text-anchor="middle" x="559" y="-11.3" font-family="Times,serif" font-size="14.00" fill="#0058ad">r 38 [1 2 3 4 6 5 7 8 9 10 11 12 15 14 16 17 19 18 20 21 22 23 24 25 27 26 29 31 32 33 35 36 37 38 39 40 41 43 42 44 45 46 47 48 49 50 51 52 53 54 55 56 57 58 60 59 61 62 64]</text>
<polyline fill="none" stroke="#0058ad" points="1061,-.5 1061,-29.5 "/>
<text text-anchor="middle" x="1244" y="-11.3" font-family="Times,serif" font-size="14.00" fill="#0058ad">r 41 [1 2 3 4 5 6 7 8 9 10 11 12 13 14 15 16 17 18 19 20 21 22]</text>
<polyline fill="none" stroke="#0058ad" points="1427,-.5 1427,-29.5 "/>
<text text-anchor="middle" x="1610" y="-11.3" font-family="Times,serif" font-size="14.00" fill="#0058ad">r 41 [1 2 3 4 5 6 7 8 9 10 11 12 13 14 15 16 17 18 19 20 21 22]</text>
</g>
<!-- T7239&#45;&gt;T7241 -->
<g id="edge1" class="edge">
<title>T7239:f0&#45;&gt;T7241:f0</title>
<path fill="none" stroke="#5b00c0" d="M276.5,-96C222.9236,-96 51.1343,-88.0827 30.5281,-39.839"/>
<polygon fill="#5b00c0" stroke="#5b00c0" points="33.9469,-39.0875 28.5,-30 27.091,-40.5007 33.9469,-39.0875"/>
<text text-anchor="middle" x="61" y="-51.8" font-family="Times,serif" font-size="14.00" fill="#5b00c0">rw</text>
</g>
<!-- T7241&#45;&gt;T7239 -->
<g id="edge2" class="edge">
<title>T7241:f2&#45;&gt;T7239:f1</title>
<path fill="none" stroke="#5b00c0" d="M1244.5,-30C1244.5,-175.2131 929.4648,56.0372 914.0822,-70.7939"/>
<polygon fill="#5b00c0" stroke="#5b00c0" points="910.5753,-70.8169 913.5,-81 917.564,-71.2156 910.5753,-70.8169"/>
<text text-anchor="middle" x="1248" y="-51.8" font-family="Times,serif" font-size="14.00" fill="#5b00c0">rw</text>
</g>
</g>
</svg>
