<?xml version="1.0" encoding="UTF-8" standalone="no"?>
<!DOCTYPE svg PUBLIC "-//W3C//DTD SVG 1.1//EN"
 "http://www.w3.org/Graphics/SVG/1.1/DTD/svg11.dtd">
<!-- Generated by graphviz version 2.40.1 (20161225.0304)
 -->
<!-- Title: a_graph Pages: 1 -->
<svg width="2619pt" height="119pt"
 viewBox="0.00 0.00 2619.00 119.00" xmlns="http://www.w3.org/2000/svg" xmlns:xlink="http://www.w3.org/1999/xlink">
<g id="graph0" class="graph" transform="scale(1 1) rotate(0) translate(4 115)">
<title>a_graph</title>
<polygon fill="#ffffff" stroke="transparent" points="-4,4 -4,-115 2615,-115 2615,4 -4,4"/>
<!-- T16533 -->
<g id="node1" class="node">
<title>T16533</title>
<polygon fill="none" stroke="#0058ad" points="0,-81.5 0,-110.5 2611,-110.5 2611,-81.5 0,-81.5"/>
<text text-anchor="middle" x="657.5" y="-92.3" font-family="Times,serif" font-size="14.00" fill="#0058ad">r 62 [1 2 3 4 5 6 7 9 8 10 12 13 14 16 17 18 19 20 21 22 23 24 26 28 29 30 31 32 33 34 35 36 37 38 39 40 41 42 43 44 45 46 47 48 49 50 51 52 53 54 55 56 57 58 59 60 61 62 63 64 65 66 67 68 69 70 71 72 73 74 75 76 77 78 80 82 83]</text>
<polyline fill="none" stroke="#0058ad" points="1315,-81.5 1315,-110.5 "/>
<text text-anchor="middle" x="1343.5" y="-92.3" font-family="Times,serif" font-size="14.00" fill="#0058ad">a 86 68</text>
<polyline fill="none" stroke="#0058ad" points="1372,-81.5 1372,-110.5 "/>
<text text-anchor="middle" x="1532.5" y="-92.3" font-family="Times,serif" font-size="14.00" fill="#0058ad">r 85 [1 3 4 5 6 7 8 9 10 11 13 15 16 17 18 19 20 21 22]</text>
<polyline fill="none" stroke="#0058ad" points="1693,-81.5 1693,-110.5 "/>
<text text-anchor="middle" x="2152" y="-92.3" font-family="Times,serif" font-size="14.00" fill="#0058ad">r 83 [1 2 3 4 5 6 7 8 9 10 11 12 13 14 15 17 18 19 21 22 23 26 24 27 28 29 30 31 32 33 34 35 36 37 38 39 40 41 42 43 44 45 46 47 48 49 50 53 54 55 56 57 58 59]</text>
</g>
<!-- T16535 -->
<g id="node2" class="node">
<title>T16535</title>
<polygon fill="none" stroke="#0058ad" points="1099.5,-.5 1099.5,-29.5 2355.5,-29.5 2355.5,-.5 1099.5,-.5"/>
<text text-anchor="middle" x="1128" y="-11.3" font-family="Times,serif" font-size="14.00" fill="#0058ad">a 85 23</text>
<polyline fill="none" stroke="#0058ad" points="1156.5,-.5 1156.5,-29.5 "/>
<text text-anchor="middle" x="1185" y="-11.3" font-family="Times,serif" font-size="14.00" fill="#0058ad">a 83 60</text>
<polyline fill="none" stroke="#0058ad" points="1213.5,-.5 1213.5,-29.5 "/>
<text text-anchor="middle" x="1784.5" y="-11.3" font-family="Times,serif" font-size="14.00" fill="#0058ad">r 86 [1 2 3 4 6 5 7 8 9 10 11 12 14 13 15 16 17 18 23 19 20 24 25 21 22 26 28 27 29 30 34 31 32 35 36 37 38 39 40 42 43 44 45 46 47 48 50 51 49 53 54 52 55 56 57 58 59 60 61 62 63 64 65 66 67 69 70]</text>
</g>
<!-- T16533&#45;&gt;T16535 -->
<g id="edge1" class="edge">
<title>T16533:f2&#45;&gt;T16535:f0</title>
<path fill="none" stroke="#5b00c0" d="M1532.5,-81C1532.5,-36.3029 1481.3398,-56.7118 1437.5,-48 1422.3642,-44.9922 1186.2496,-46.7664 1136.6125,-34.8258"/>
<polygon fill="#5b00c0" stroke="#5b00c0" points="1137.9753,-31.587 1127.5,-30 1134.6992,-37.7731 1137.9753,-31.587"/>
<text text-anchor="middle" x="1535" y="-51.8" font-family="Times,serif" font-size="14.00" fill="#5b00c0">rw</text>
</g>
<!-- T16535&#45;&gt;T16533 -->
<g id="edge2" class="edge">
<title>T16535:f2&#45;&gt;T16533:f1</title>
<path fill="none" stroke="#5b00c0" d="M1784.5,-30C1784.5,-50.3579 1438.3133,-43.3227 1418.5,-48 1386.795,-55.4845 1351.7983,-46.8443 1344.7688,-71.0057"/>
<polygon fill="#5b00c0" stroke="#5b00c0" points="1341.2874,-70.6388 1343.5,-81 1348.2316,-71.5205 1341.2874,-70.6388"/>
<text text-anchor="middle" x="1426" y="-51.8" font-family="Times,serif" font-size="14.00" fill="#5b00c0">rw</text>
</g>
</g>
</svg>
