<?xml version="1.0" encoding="UTF-8" standalone="no"?>
<!DOCTYPE svg PUBLIC "-//W3C//DTD SVG 1.1//EN"
 "http://www.w3.org/Graphics/SVG/1.1/DTD/svg11.dtd">
<!-- Generated by graphviz version 2.40.1 (20161225.0304)
 -->
<!-- Title: a_graph Pages: 1 -->
<svg width="2117pt" height="119pt"
 viewBox="0.00 0.00 2117.00 119.00" xmlns="http://www.w3.org/2000/svg" xmlns:xlink="http://www.w3.org/1999/xlink">
<g id="graph0" class="graph" transform="scale(1 1) rotate(0) translate(4 115)">
<title>a_graph</title>
<polygon fill="#ffffff" stroke="transparent" points="-4,4 -4,-115 2113,-115 2113,4 -4,4"/>
<!-- T33479 -->
<g id="node1" class="node">
<title>T33479</title>
<polygon fill="none" stroke="#0058ad" points="436,-81.5 436,-110.5 2109,-110.5 2109,-81.5 436,-81.5"/>
<text text-anchor="middle" x="614" y="-92.3" font-family="Times,serif" font-size="14.00" fill="#0058ad">r 168 [1 2 4 3 5 6 7 8 10 11 9 12 13 14 16 15 17 19 20 18 21]</text>
<polyline fill="none" stroke="#0058ad" points="792,-81.5 792,-110.5 "/>
<text text-anchor="middle" x="824" y="-92.3" font-family="Times,serif" font-size="14.00" fill="#0058ad">a 169 32</text>
<polyline fill="none" stroke="#0058ad" points="856,-81.5 856,-110.5 "/>
<text text-anchor="middle" x="1482.5" y="-92.3" font-family="Times,serif" font-size="14.00" fill="#0058ad">r 163 [1 2 3 4 5 6 7 8 9 10 11 12 13 14 16 15 17 18 19 20 22 23 24 25 26 28 29 30 31 32 33 34 35 37 36 38 39 40 41 42 43 44 47 45 46 48 49 51 52 54 55 56 58 57 59 60 62 61 63 65 66 67 68 69 70 71 72 73 74 75 76 77 78]</text>
</g>
<!-- T33477 -->
<g id="node2" class="node">
<title>T33477</title>
<polygon fill="none" stroke="#0058ad" points="0,-.5 0,-29.5 1427,-29.5 1427,-.5 0,-.5"/>
<text text-anchor="middle" x="32" y="-11.3" font-family="Times,serif" font-size="14.00" fill="#0058ad">a 168 22</text>
<polyline fill="none" stroke="#0058ad" points="64,-.5 64,-29.5 "/>
<text text-anchor="middle" x="490" y="-11.3" font-family="Times,serif" font-size="14.00" fill="#0058ad">r 160 [1 2 3 5 7 8 9 10 11 13 14 16 18 17 20 21 19 23 22 24 25 26 27 28 29 33 34 35 37 38 39 40 41 42 43 44 45 47 46 48 49 50 51 52 53 55 54 56 57]</text>
<polyline fill="none" stroke="#0058ad" points="916,-.5 916,-29.5 "/>
<text text-anchor="middle" x="1171.5" y="-11.3" font-family="Times,serif" font-size="14.00" fill="#0058ad">r 169 [1 2 3 5 6 4 8 9 10 11 12 13 7 14 15 16 17 18 20 19 22 21 23 24 27 28 25 26 30 29]</text>
</g>
<!-- T33479&#45;&gt;T33477 -->
<g id="edge1" class="edge">
<title>T33479:f0&#45;&gt;T33477:f0</title>
<path fill="none" stroke="#5b00c0" d="M435.5,-96C393.1253,-96 79.0531,-78.193 36.3115,-38.9792"/>
<polygon fill="#5b00c0" stroke="#5b00c0" points="39.3082,-37.1612 31.5,-30 33.1382,-40.4674 39.3082,-37.1612"/>
<text text-anchor="middle" x="109" y="-51.8" font-family="Times,serif" font-size="14.00" fill="#5b00c0">rw</text>
</g>
<!-- T33477&#45;&gt;T33479 -->
<g id="edge2" class="edge">
<title>T33477:f2&#45;&gt;T33479:f1</title>
<path fill="none" stroke="#5b00c0" d="M1171.5,-30C1171.5,-182.655 839.6213,63.2841 824.0645,-70.6868"/>
<polygon fill="#5b00c0" stroke="#5b00c0" points="820.5519,-70.8236 823.5,-81 827.5414,-71.2063 820.5519,-70.8236"/>
<text text-anchor="middle" x="1175" y="-51.8" font-family="Times,serif" font-size="14.00" fill="#5b00c0">rw</text>
</g>
</g>
</svg>
