<?xml version="1.0" encoding="UTF-8" standalone="no"?>
<!DOCTYPE svg PUBLIC "-//W3C//DTD SVG 1.1//EN"
 "http://www.w3.org/Graphics/SVG/1.1/DTD/svg11.dtd">
<!-- Generated by graphviz version 2.40.1 (20161225.0304)
 -->
<!-- Title: a_graph Pages: 1 -->
<svg width="3649pt" height="200pt"
 viewBox="0.00 0.00 3649.00 200.00" xmlns="http://www.w3.org/2000/svg" xmlns:xlink="http://www.w3.org/1999/xlink">
<g id="graph0" class="graph" transform="scale(1 1) rotate(0) translate(4 196)">
<title>a_graph</title>
<polygon fill="#ffffff" stroke="transparent" points="-4,4 -4,-196 3645,-196 3645,4 -4,4"/>
<!-- T15353 -->
<g id="node1" class="node">
<title>T15353</title>
<polygon fill="none" stroke="#0058ad" points="850,-162.5 850,-191.5 3641,-191.5 3641,-162.5 850,-162.5"/>
<text text-anchor="middle" x="1533.5" y="-173.3" font-family="Times,serif" font-size="14.00" fill="#0058ad">r 79 [1 2 3 4 5 6 7 8 9 10 11 12 13 14 15 16 17 18 19 20 21 22 24 23 25 26 27 28 29 30 31 32 33 34 35 36 37 38 39 40 41 42 43 44 45 46 47 49 50 51 52 53 54 56 57 58 59 61 62 63 65 66 64 67 68 69 70 71 72 73 74 75 76 77 78 79 80 81 82 83]</text>
<polyline fill="none" stroke="#0058ad" points="2217,-162.5 2217,-191.5 "/>
<text text-anchor="middle" x="2245.5" y="-173.3" font-family="Times,serif" font-size="14.00" fill="#0058ad">a 80 28</text>
<polyline fill="none" stroke="#0058ad" points="2274,-162.5 2274,-191.5 "/>
<text text-anchor="middle" x="2957.5" y="-173.3" font-family="Times,serif" font-size="14.00" fill="#0058ad">r 79 [1 2 3 4 5 6 7 8 9 10 11 12 13 14 15 16 17 18 19 20 21 22 24 23 25 26 27 28 29 30 31 32 33 34 35 36 37 38 39 40 41 42 43 44 45 46 47 49 50 51 52 53 54 56 57 58 59 61 62 63 65 66 64 67 68 69 70 71 72 73 74 75 76 77 78 79 80 81 82 83]</text>
</g>
<!-- T15349 -->
<g id="node2" class="node">
<title>T15349</title>
<polygon fill="none" stroke="#0058ad" points="1337,-81.5 1337,-110.5 1394,-110.5 1394,-81.5 1337,-81.5"/>
<text text-anchor="middle" x="1365.5" y="-92.3" font-family="Times,serif" font-size="14.00" fill="#0058ad">a 79 84</text>
</g>
<!-- T15353&#45;&gt;T15349 -->
<g id="edge1" class="edge">
<title>T15353:f0&#45;&gt;T15349:f0</title>
<path fill="none" stroke="#5b00c0" d="M1533.5,-162C1533.5,-99.1406 1461.8252,-134.0254 1402.0663,-114.2548"/>
<polygon fill="#5b00c0" stroke="#5b00c0" points="1403.1797,-110.9328 1392.5904,-110.5892 1400.6541,-117.4614 1403.1797,-110.9328"/>
<text text-anchor="middle" x="1538" y="-132.8" font-family="Times,serif" font-size="14.00" fill="#5b00c0">rw</text>
</g>
<!-- T15351 -->
<g id="node3" class="node">
<title>T15351</title>
<polygon fill="none" stroke="#0058ad" points="0,-.5 0,-29.5 3221,-29.5 3221,-.5 0,-.5"/>
<text text-anchor="middle" x="692" y="-11.3" font-family="Times,serif" font-size="14.00" fill="#0058ad">r 79 [1 2 3 4 5 6 7 8 9 10 11 12 13 14 15 16 17 18 19 20 21 22 24 23 25 26 27 28 29 30 31 32 33 34 35 36 37 38 39 40 41 42 43 44 45 46 47 49 50 51 52 53 54 56 57 58 59 61 62 63 65 66 64 67 68 69 70 71 72 73 74 75 76 77 78 79 80 81 82 83 84]</text>
<polyline fill="none" stroke="#0058ad" points="1384,-.5 1384,-29.5 "/>
<text text-anchor="middle" x="1743" y="-11.3" font-family="Times,serif" font-size="14.00" fill="#0058ad">r 78 [2 3 4 5 6 7 8 9 10 11 12 13 14 16 15 17 18 19 20 21 22 23 24 26 27 28 29 30 31 32 33 34 35 37 38 39 40 41 42 43 44 45]</text>
<polyline fill="none" stroke="#0058ad" points="2102,-.5 2102,-29.5 "/>
<text text-anchor="middle" x="2302.5" y="-11.3" font-family="Times,serif" font-size="14.00" fill="#0058ad">r 80 [1 2 3 4 5 6 7 8 9 10 11 13 14 15 16 17 18 19 20 22 23 21 24 27]</text>
<polyline fill="none" stroke="#0058ad" points="2503,-.5 2503,-29.5 "/>
<text text-anchor="middle" x="2862" y="-11.3" font-family="Times,serif" font-size="14.00" fill="#0058ad">r 78 [2 3 4 5 6 7 8 9 10 11 12 13 14 16 15 17 18 19 20 21 22 23 24 26 27 28 29 30 31 32 33 34 35 37 38 39 40 41 42 43 44 45]</text>
</g>
<!-- T15349&#45;&gt;T15351 -->
<g id="edge2" class="edge">
<title>T15349:f0&#45;&gt;T15351:f0</title>
<path fill="none" stroke="#c000a5" d="M1339.0908,-81.4968C1338.5597,-81.3212 1338.0292,-81.1552 1337.5,-81 1271.6479,-61.6857 744.4694,-98.2677 695.1911,-39.3965"/>
<polygon fill="#c000a5" stroke="#c000a5" points="698.414,-38.0279 691.5,-30 691.8986,-40.5873 698.414,-38.0279"/>
<text text-anchor="middle" x="772" y="-51.8" font-family="Times,serif" font-size="14.00" fill="#c000a5">wr</text>
</g>
<!-- T15351&#45;&gt;T15353 -->
<g id="edge3" class="edge">
<title>T15351:f2&#45;&gt;T15353:f1</title>
<path fill="none" stroke="#5b00c0" d="M2302.5,-30C2302.5,-90.2832 2251.7742,-97.4306 2246.0279,-151.6945"/>
<polygon fill="#5b00c0" stroke="#5b00c0" points="2242.5162,-151.834 2245.5,-162 2249.5071,-152.1922 2242.5162,-151.834"/>
<text text-anchor="middle" x="2293" y="-92.3" font-family="Times,serif" font-size="14.00" fill="#5b00c0">rw</text>
</g>
</g>
</svg>
