<?xml version="1.0" encoding="UTF-8" standalone="no"?>
<!DOCTYPE svg PUBLIC "-//W3C//DTD SVG 1.1//EN"
 "http://www.w3.org/Graphics/SVG/1.1/DTD/svg11.dtd">
<!-- Generated by graphviz version 2.40.1 (20161225.0304)
 -->
<!-- Title: a_graph Pages: 1 -->
<svg width="4420pt" height="119pt"
 viewBox="0.00 0.00 4420.00 119.00" xmlns="http://www.w3.org/2000/svg" xmlns:xlink="http://www.w3.org/1999/xlink">
<g id="graph0" class="graph" transform="scale(1 1) rotate(0) translate(4 115)">
<title>a_graph</title>
<polygon fill="#ffffff" stroke="transparent" points="-4,4 -4,-115 4416,-115 4416,4 -4,4"/>
<!-- T6463 -->
<g id="node1" class="node">
<title>T6463</title>
<polygon fill="none" stroke="#0058ad" points="0,-81.5 0,-110.5 4412,-110.5 4412,-81.5 0,-81.5"/>
<text text-anchor="middle" x="347" y="-92.3" font-family="Times,serif" font-size="14.00" fill="#0058ad">r 37 [1 2 3 4 5 6 7 8 11 12 13 9 10 14 15 16 17 18 19 20 21 22 23 24 25 26 27 28 29 30 31 32 33 34 35 37 36 39 40 38 41]</text>
<polyline fill="none" stroke="#0058ad" points="694,-81.5 694,-110.5 "/>
<text text-anchor="middle" x="722.5" y="-92.3" font-family="Times,serif" font-size="14.00" fill="#0058ad">a 37 42</text>
<polyline fill="none" stroke="#0058ad" points="751,-81.5 751,-110.5 "/>
<text text-anchor="middle" x="1494.5" y="-92.3" font-family="Times,serif" font-size="14.00" fill="#0058ad">r 36 [3 1 2 5 6 7 8 9 10 11 12 4 13 14 15 16 17 18 19 20 21 23 22 24 25 26 27 28 29 30 31 33 34 35 32 36 37 39 38 43 40 41 42 44 45 46 47 48 49 50 52 53 51 54 57 58 55 56 59 60 61 63 64 65 66 68 69 70 71 72 67 73 74 75 76 77 78 80 81 82 79 85 86 83 84 87 88]</text>
<polyline fill="none" stroke="#0058ad" points="2238,-81.5 2238,-110.5 "/>
<text text-anchor="middle" x="3325" y="-92.3" font-family="Times,serif" font-size="14.00" fill="#0058ad">r 30 [1 2 3 4 5 6 7 8 9 10 11 12 13 14 15 16 17 18 19 20 21 22 23 24 25 26 27 28 29 30 31 32 33 34 35 36 37 39 40 41 42 43 44 45 46 47 49 50 52 53 54 55 56 57 59 60 61 62 63 64 65 66 67 68 69 70 71 72 73 74 77 76 75 78 81 82 83 85 84 86 87 88 89 90 91 92 94 95 96 98 97 99 102 103 104 105 106 107 108 109 111 110 113 114 116 115 117 118 119 120 121 122 124 123 125 126 127]</text>
</g>
<!-- T6465 -->
<g id="node2" class="node">
<title>T6465</title>
<polygon fill="none" stroke="#0058ad" points="623.5,-.5 623.5,-29.5 1374.5,-29.5 1374.5,-.5 623.5,-.5"/>
<text text-anchor="middle" x="970.5" y="-11.3" font-family="Times,serif" font-size="14.00" fill="#0058ad">r 37 [1 2 3 4 5 6 7 8 11 12 13 9 10 14 15 16 17 18 19 20 21 22 23 24 25 26 27 28 29 30 31 32 33 34 35 37 36 39 40 38 41]</text>
<polyline fill="none" stroke="#0058ad" points="1317.5,-.5 1317.5,-29.5 "/>
<text text-anchor="middle" x="1346" y="-11.3" font-family="Times,serif" font-size="14.00" fill="#0058ad">a 36 89</text>
</g>
<!-- T6463&#45;&gt;T6465 -->
<g id="edge1" class="edge">
<title>T6463:f2&#45;&gt;T6465:f1</title>
<path fill="none" stroke="#5b00c0" d="M1494,-81C1494,-23.9468 1441.9204,-15.8018 1385.2475,-15.0621"/>
<polygon fill="#5b00c0" stroke="#5b00c0" points="1385.0211,-11.5608 1375,-15 1384.9786,-18.5607 1385.0211,-11.5608"/>
<text text-anchor="middle" x="1498.5" y="-51.8" font-family="Times,serif" font-size="14.00" fill="#5b00c0">rw</text>
</g>
<!-- T6465&#45;&gt;T6463 -->
<g id="edge2" class="edge">
<title>T6465:f0&#45;&gt;T6463:f1</title>
<path fill="none" stroke="#5b00c0" d="M623,-15C616.3333,-15 619.5294,-24.308 623,-30 646.754,-68.9576 710.8471,-37.366 720.7166,-70.9695"/>
<polygon fill="#5b00c0" stroke="#5b00c0" points="717.2591,-71.5251 722,-81 724.2025,-70.6366 717.2591,-71.5251"/>
<text text-anchor="middle" x="723.5" y="-51.8" font-family="Times,serif" font-size="14.00" fill="#5b00c0">rw</text>
</g>
</g>
</svg>
