<?xml version="1.0" encoding="UTF-8" standalone="no"?>
<!DOCTYPE svg PUBLIC "-//W3C//DTD SVG 1.1//EN"
 "http://www.w3.org/Graphics/SVG/1.1/DTD/svg11.dtd">
<!-- Generated by graphviz version 2.40.1 (20161225.0304)
 -->
<!-- Title: a_graph Pages: 1 -->
<svg width="2429pt" height="200pt"
 viewBox="0.00 0.00 2428.50 200.00" xmlns="http://www.w3.org/2000/svg" xmlns:xlink="http://www.w3.org/1999/xlink">
<g id="graph0" class="graph" transform="scale(1 1) rotate(0) translate(4 196)">
<title>a_graph</title>
<polygon fill="#ffffff" stroke="transparent" points="-4,4 -4,-196 2424.5,-196 2424.5,4 -4,4"/>
<!-- T5018 -->
<g id="node1" class="node">
<title>T5018</title>
<polygon fill="none" stroke="#0058ad" points="0,-162.5 0,-191.5 1869,-191.5 1869,-162.5 0,-162.5"/>
<text text-anchor="middle" x="279.5" y="-173.3" font-family="Times,serif" font-size="14.00" fill="#0058ad">r 31 [2 3 4 5 8 9 10 11 12 13 15 16 17 18 19 23 24 25 26 27 20 21 22 28 29 30 31 32 33 34 35 36]</text>
<polyline fill="none" stroke="#0058ad" points="559,-162.5 559,-191.5 "/>
<text text-anchor="middle" x="838.5" y="-173.3" font-family="Times,serif" font-size="14.00" fill="#0058ad">r 31 [2 3 4 5 8 9 10 11 12 13 15 16 17 18 19 23 24 25 26 27 20 21 22 28 29 30 31 32 33 34 35 36]</text>
<polyline fill="none" stroke="#0058ad" points="1118,-162.5 1118,-191.5 "/>
<text text-anchor="middle" x="1465" y="-173.3" font-family="Times,serif" font-size="14.00" fill="#0058ad">r 29 [1 2 3 6 4 5 7 8 9 11 13 14 17 18 19 20 21 22 23 24 25 26 27 28 31 32 30 33 34 29 35 36 37 39 40 41 38 42 43 44 45]</text>
<polyline fill="none" stroke="#0058ad" points="1812,-162.5 1812,-191.5 "/>
<text text-anchor="middle" x="1840.5" y="-173.3" font-family="Times,serif" font-size="14.00" fill="#0058ad">a 29 46</text>
</g>
<!-- T5017 -->
<g id="node3" class="node">
<title>T5017</title>
<polygon fill="none" stroke="#0058ad" points="1490.5,-81.5 1490.5,-110.5 2248.5,-110.5 2248.5,-81.5 1490.5,-81.5"/>
<text text-anchor="middle" x="1561.5" y="-92.3" font-family="Times,serif" font-size="14.00" fill="#0058ad">r 30 [1 2 3 4 5 6 7 8 9]</text>
<polyline fill="none" stroke="#0058ad" points="1632.5,-81.5 1632.5,-110.5 "/>
<text text-anchor="middle" x="1912" y="-92.3" font-family="Times,serif" font-size="14.00" fill="#0058ad">r 31 [2 3 4 5 8 9 10 11 12 13 15 16 17 18 19 23 24 25 26 27 20 21 22 28 29 30 31 32 33 34 35 36]</text>
<polyline fill="none" stroke="#0058ad" points="2191.5,-81.5 2191.5,-110.5 "/>
<text text-anchor="middle" x="2220" y="-92.3" font-family="Times,serif" font-size="14.00" fill="#0058ad">a 31 37</text>
</g>
<!-- T5018&#45;&gt;T5017 -->
<g id="edge1" class="edge">
<title>T5018:f0&#45;&gt;T5017:f2</title>
<path fill="none" stroke="#5b00c0" d="M279.5,-162C279.5,-57.2897 2108.4355,-209.4517 2215.5997,-119.7926"/>
<polygon fill="#5b00c0" stroke="#5b00c0" points="2218.689,-121.4389 2220.5,-111 2212.5745,-118.0311 2218.689,-121.4389"/>
<text text-anchor="middle" x="2192" y="-132.8" font-family="Times,serif" font-size="14.00" fill="#5b00c0">rw</text>
</g>
<!-- T5020 -->
<g id="node2" class="node">
<title>T5020</title>
<polygon fill="none" stroke="#0058ad" points="968.5,-.5 968.5,-29.5 2420.5,-29.5 2420.5,-.5 968.5,-.5"/>
<text text-anchor="middle" x="1039.5" y="-11.3" font-family="Times,serif" font-size="14.00" fill="#0058ad">r 30 [1 2 3 4 5 6 7 8 9]</text>
<polyline fill="none" stroke="#0058ad" points="1110.5,-.5 1110.5,-29.5 "/>
<text text-anchor="middle" x="1457.5" y="-11.3" font-family="Times,serif" font-size="14.00" fill="#0058ad">r 29 [1 2 3 6 4 5 7 8 9 11 13 14 17 18 19 20 21 22 23 24 25 26 27 28 31 32 30 33 34 29 35 36 37 39 40 41 38 42 43 44 45]</text>
<polyline fill="none" stroke="#0058ad" points="1804.5,-.5 1804.5,-29.5 "/>
<text text-anchor="middle" x="1833" y="-11.3" font-family="Times,serif" font-size="14.00" fill="#0058ad">a 30 10</text>
<polyline fill="none" stroke="#0058ad" points="1861.5,-.5 1861.5,-29.5 "/>
<text text-anchor="middle" x="2141" y="-11.3" font-family="Times,serif" font-size="14.00" fill="#0058ad">r 31 [2 3 4 5 8 9 10 11 12 13 15 16 17 18 19 23 24 25 26 27 20 21 22 28 29 30 31 32 33 34 35 36]</text>
</g>
<!-- T5020&#45;&gt;T5018 -->
<g id="edge2" class="edge">
<title>T5020:f1&#45;&gt;T5018:f3</title>
<path fill="none" stroke="#5b00c0" d="M1457.5,-30C1457.5,-66.2215 1441.208,-85.071 1466.5,-111 1522.5535,-168.4652 1813.867,-85.8231 1838.7983,-152.1405"/>
<polygon fill="#5b00c0" stroke="#5b00c0" points="1835.3501,-152.741 1840.5,-162 1842.2481,-151.5504 1835.3501,-152.741"/>
<text text-anchor="middle" x="1474" y="-92.3" font-family="Times,serif" font-size="14.00" fill="#5b00c0">rw</text>
</g>
<!-- T5020&#45;&gt;T5017 -->
<g id="edge3" class="edge">
<title>T5020:f3&#45;&gt;T5017:f2</title>
<path fill="none" stroke="#5b00c0" d="M2141.5,-30C2141.5,-67.874 2206.3818,-44.6638 2218.5472,-71.0845"/>
<polygon fill="#5b00c0" stroke="#5b00c0" points="2215.1335,-71.8648 2220.5,-81 2222.0016,-70.5121 2215.1335,-71.8648"/>
<text text-anchor="middle" x="2218" y="-51.8" font-family="Times,serif" font-size="14.00" fill="#5b00c0">rw</text>
</g>
<!-- T5017&#45;&gt;T5020 -->
<g id="edge4" class="edge">
<title>T5017:f0&#45;&gt;T5020:f2</title>
<path fill="none" stroke="#5b00c0" d="M1561.5,-81C1561.5,38.3921 1817.796,-141.8432 1832.8133,-40.0074"/>
<polygon fill="#5b00c0" stroke="#5b00c0" points="1836.3071,-40.2162 1833.5,-30 1829.3235,-39.7369 1836.3071,-40.2162"/>
<text text-anchor="middle" x="1839" y="-51.8" font-family="Times,serif" font-size="14.00" fill="#5b00c0">rw</text>
</g>
</g>
</svg>
