<?xml version="1.0" encoding="UTF-8" standalone="no"?>
<!DOCTYPE svg PUBLIC "-//W3C//DTD SVG 1.1//EN"
 "http://www.w3.org/Graphics/SVG/1.1/DTD/svg11.dtd">
<!-- Generated by graphviz version 2.40.1 (20161225.0304)
 -->
<!-- Title: a_graph Pages: 1 -->
<svg width="1645pt" height="119pt"
 viewBox="0.00 0.00 1645.00 119.00" xmlns="http://www.w3.org/2000/svg" xmlns:xlink="http://www.w3.org/1999/xlink">
<g id="graph0" class="graph" transform="scale(1 1) rotate(0) translate(4 115)">
<title>a_graph</title>
<polygon fill="#ffffff" stroke="transparent" points="-4,4 -4,-115 1641,-115 1641,4 -4,4"/>
<!-- T20515 -->
<g id="node1" class="node">
<title>T20515</title>
<polygon fill="none" stroke="#0058ad" points="0,-81.5 0,-110.5 1637,-110.5 1637,-81.5 0,-81.5"/>
<text text-anchor="middle" x="367.5" y="-92.3" font-family="Times,serif" font-size="14.00" fill="#0058ad">r 104 [1 3 4 2 5 6 7 8 9 10 11 14 15 16 12 13 17 18 19 20 23 21 25 26 27 28 24 29 30 31 32 33 34 22 35 36 37 38 39 41 42 44 45]</text>
<polyline fill="none" stroke="#0058ad" points="735,-81.5 735,-110.5 "/>
<text text-anchor="middle" x="778" y="-92.3" font-family="Times,serif" font-size="14.00" fill="#0058ad">r 105 [1 2 3]</text>
<polyline fill="none" stroke="#0058ad" points="821,-81.5 821,-110.5 "/>
<text text-anchor="middle" x="853" y="-92.3" font-family="Times,serif" font-size="14.00" fill="#0058ad">a 104 43</text>
<polyline fill="none" stroke="#0058ad" points="885,-81.5 885,-110.5 "/>
<text text-anchor="middle" x="1261" y="-92.3" font-family="Times,serif" font-size="14.00" fill="#0058ad">r 104 [1 3 4 2 5 6 7 8 9 10 11 14 15 16 12 13 17 18 19 20 23 21 25 26 27 28 24 29 30 31 32 33 34 22 35 36 37 38 39 41 42 44 45 43]</text>
</g>
<!-- T20513 -->
<g id="node2" class="node">
<title>T20513</title>
<polygon fill="none" stroke="#0058ad" points="428.5,-.5 428.5,-29.5 1412.5,-29.5 1412.5,-.5 428.5,-.5"/>
<text text-anchor="middle" x="457" y="-11.3" font-family="Times,serif" font-size="14.00" fill="#0058ad">a 105 4</text>
<polyline fill="none" stroke="#0058ad" points="485.5,-.5 485.5,-29.5 "/>
<text text-anchor="middle" x="533.5" y="-11.3" font-family="Times,serif" font-size="14.00" fill="#0058ad">r 105 [1 2 3 4]</text>
<polyline fill="none" stroke="#0058ad" points="581.5,-.5 581.5,-29.5 "/>
<text text-anchor="middle" x="629.5" y="-11.3" font-family="Times,serif" font-size="14.00" fill="#0058ad">r 105 [1 2 3 4]</text>
<polyline fill="none" stroke="#0058ad" points="677.5,-.5 677.5,-29.5 "/>
<text text-anchor="middle" x="1045" y="-11.3" font-family="Times,serif" font-size="14.00" fill="#0058ad">r 104 [1 3 4 2 5 6 7 8 9 10 11 14 15 16 12 13 17 18 19 20 23 21 25 26 27 28 24 29 30 31 32 33 34 22 35 36 37 38 39 41 42 44 45]</text>
</g>
<!-- T20515&#45;&gt;T20513 -->
<g id="edge1" class="edge">
<title>T20515:f1&#45;&gt;T20513:f0</title>
<path fill="none" stroke="#5b00c0" d="M777.5,-81C777.5,59.7882 472.5938,-162.6211 457.1103,-40.2765"/>
<polygon fill="#5b00c0" stroke="#5b00c0" points="460.5868,-39.7749 456.5,-30 453.5991,-40.1899 460.5868,-39.7749"/>
<text text-anchor="middle" x="782" y="-51.8" font-family="Times,serif" font-size="14.00" fill="#5b00c0">rw</text>
</g>
<!-- T20513&#45;&gt;T20515 -->
<g id="edge2" class="edge">
<title>T20513:f3&#45;&gt;T20515:f2</title>
<path fill="none" stroke="#5b00c0" d="M1045.5,-30C1045.5,-114.4986 869.6455,-3.1051 854.533,-70.7693"/>
<polygon fill="#5b00c0" stroke="#5b00c0" points="851.0224,-70.6989 853.5,-81 857.987,-71.4022 851.0224,-70.6989"/>
<text text-anchor="middle" x="1047" y="-51.8" font-family="Times,serif" font-size="14.00" fill="#5b00c0">rw</text>
</g>
</g>
</svg>
