<?xml version="1.0" encoding="UTF-8" standalone="no"?>
<!DOCTYPE svg PUBLIC "-//W3C//DTD SVG 1.1//EN"
 "http://www.w3.org/Graphics/SVG/1.1/DTD/svg11.dtd">
<!-- Generated by graphviz version 2.40.1 (20161225.0304)
 -->
<!-- Title: a_graph Pages: 1 -->
<svg width="2755pt" height="119pt"
 viewBox="0.00 0.00 2754.50 119.00" xmlns="http://www.w3.org/2000/svg" xmlns:xlink="http://www.w3.org/1999/xlink">
<g id="graph0" class="graph" transform="scale(1 1) rotate(0) translate(4 115)">
<title>a_graph</title>
<polygon fill="#ffffff" stroke="transparent" points="-4,4 -4,-115 2750.5,-115 2750.5,4 -4,4"/>
<!-- T3062 -->
<g id="node1" class="node">
<title>T3062</title>
<polygon fill="none" stroke="#0058ad" points="393.5,-81.5 393.5,-110.5 2746.5,-110.5 2746.5,-81.5 393.5,-81.5"/>
<text text-anchor="middle" x="775" y="-92.3" font-family="Times,serif" font-size="14.00" fill="#0058ad">r 20 [1 2 3 5 6 7 8 9 4 10 11 12 13 14 15 18 19 16 17 20 21 22 24 28 26 27 23 29 30 31 33 34 35 32 39 37 38 40 41 42 44 46 45 48 47]</text>
<polyline fill="none" stroke="#0058ad" points="1156.5,-81.5 1156.5,-110.5 "/>
<text text-anchor="middle" x="1538" y="-92.3" font-family="Times,serif" font-size="14.00" fill="#0058ad">r 20 [1 2 3 5 6 7 8 9 4 10 11 12 13 14 15 18 19 16 17 20 21 22 24 28 26 27 23 29 30 31 33 34 35 32 39 37 38 40 41 42 44 46 45 48 47]</text>
<polyline fill="none" stroke="#0058ad" points="1919.5,-81.5 1919.5,-110.5 "/>
<text text-anchor="middle" x="1951.5" y="-92.3" font-family="Times,serif" font-size="14.00" fill="#0058ad">a 14 113</text>
<polyline fill="none" stroke="#0058ad" points="1983.5,-81.5 1983.5,-110.5 "/>
<text text-anchor="middle" x="2365" y="-92.3" font-family="Times,serif" font-size="14.00" fill="#0058ad">r 20 [1 2 3 5 6 7 8 9 4 10 11 12 13 14 15 18 19 16 17 20 21 22 24 28 26 27 23 29 30 31 33 34 35 32 39 37 38 40 41 42 44 46 45 48 47]</text>
</g>
<!-- T3061 -->
<g id="node2" class="node">
<title>T3061</title>
<polygon fill="none" stroke="#0058ad" points="0,-.5 0,-29.5 1920,-29.5 1920,-.5 0,-.5"/>
<text text-anchor="middle" x="899.5" y="-11.3" font-family="Times,serif" font-size="14.00" fill="#0058ad">r 14 [1 2 4 5 6 7 8 9 10 11 12 13 14 15 16 18 21 22 23 25 26 28 29 30 31 32 33 34 35 36 37 38 39 41 42 43 44 45 46 47 48 49 51 53 52 54 55 56 57 58 59 60 61 62 64 63 65 66 67 68 69 70 71 73 72 74 75 76 77 78 79 80 81 82 83 84 85 86 87 88 89 90 91 92 94 95 98 99 102 101 103 104 105 106 107 108 109 110 111 112]</text>
<polyline fill="none" stroke="#0058ad" points="1799,-.5 1799,-29.5 "/>
<text text-anchor="middle" x="1827.5" y="-11.3" font-family="Times,serif" font-size="14.00" fill="#0058ad">a 20 43</text>
<polyline fill="none" stroke="#0058ad" points="1856,-.5 1856,-29.5 "/>
<text text-anchor="middle" x="1888" y="-11.3" font-family="Times,serif" font-size="14.00" fill="#0058ad">a 18 113</text>
</g>
<!-- T3062&#45;&gt;T3061 -->
<g id="edge1" class="edge">
<title>T3062:f0&#45;&gt;T3061:f1</title>
<path fill="none" stroke="#5b00c0" d="M775,-81C775,-53.3172 1715.9774,-58.5667 1818.8968,-34.4859"/>
<polygon fill="#5b00c0" stroke="#5b00c0" points="1820.577,-37.5598 1828,-30 1817.4829,-31.2808 1820.577,-37.5598"/>
<text text-anchor="middle" x="1607.5" y="-51.8" font-family="Times,serif" font-size="14.00" fill="#5b00c0">rw</text>
</g>
<!-- T3061&#45;&gt;T3062 -->
<g id="edge2" class="edge">
<title>T3061:f0&#45;&gt;T3062:f2</title>
<path fill="none" stroke="#5b00c0" d="M899,-30C899,-50.0062 1599.032,-46.7627 1619,-48 1763.9612,-56.9825 1943.3686,61.9429 1951.6987,-70.9885"/>
<polygon fill="#5b00c0" stroke="#5b00c0" points="1948.2007,-71.1098 1952,-81 1955.1975,-70.8992 1948.2007,-71.1098"/>
<text text-anchor="middle" x="1957.5" y="-51.8" font-family="Times,serif" font-size="14.00" fill="#5b00c0">rw</text>
</g>
</g>
</svg>
