<?xml version="1.0" encoding="UTF-8" standalone="no"?>
<!DOCTYPE svg PUBLIC "-//W3C//DTD SVG 1.1//EN"
 "http://www.w3.org/Graphics/SVG/1.1/DTD/svg11.dtd">
<!-- Generated by graphviz version 2.40.1 (20161225.0304)
 -->
<!-- Title: a_graph Pages: 1 -->
<svg width="1999pt" height="119pt"
 viewBox="0.00 0.00 1999.00 119.00" xmlns="http://www.w3.org/2000/svg" xmlns:xlink="http://www.w3.org/1999/xlink">
<g id="graph0" class="graph" transform="scale(1 1) rotate(0) translate(4 115)">
<title>a_graph</title>
<polygon fill="#ffffff" stroke="transparent" points="-4,4 -4,-115 1995,-115 1995,4 -4,4"/>
<!-- T1957 -->
<g id="node1" class="node">
<title>T1957</title>
<polygon fill="none" stroke="#0058ad" points="0,-81.5 0,-110.5 1991,-110.5 1991,-81.5 0,-81.5"/>
<text text-anchor="middle" x="433" y="-92.3" font-family="Times,serif" font-size="14.00" fill="#0058ad">r 15 [1 2 3 4 5 6 7 10 11 12 14 13 15 8 9 16 17 19 18 20 21 22 23 24 27 28 26 29 25 30 31 33 34 32 35 36 37 38 39 40 42 43 49 50 51 52 54 53 55 56 57]</text>
<polyline fill="none" stroke="#0058ad" points="866,-81.5 866,-110.5 "/>
<text text-anchor="middle" x="894.5" y="-92.3" font-family="Times,serif" font-size="14.00" fill="#0058ad">a 15 61</text>
<polyline fill="none" stroke="#0058ad" points="923,-81.5 923,-110.5 "/>
<text text-anchor="middle" x="948" y="-92.3" font-family="Times,serif" font-size="14.00" fill="#0058ad">a 5 51</text>
<polyline fill="none" stroke="#0058ad" points="973,-81.5 973,-110.5 "/>
<text text-anchor="middle" x="1482" y="-92.3" font-family="Times,serif" font-size="14.00" fill="#0058ad">r 16 [1 2 3 5 6 7 4 10 11 13 14 17 15 16 18 19 20 21 22 23 24 25 26 27 28 33 34 30 31 32 36 37 38 41 39 42 43 44 49 47 48 53 54 56 57 55 59 60 61 62 58 63 66 64 65 68 69 70 71]</text>
</g>
<!-- T1959 -->
<g id="node2" class="node">
<title>T1959</title>
<polygon fill="none" stroke="#0058ad" points="541,-.5 541,-29.5 1514,-29.5 1514,-.5 541,-.5"/>
<text text-anchor="middle" x="974" y="-11.3" font-family="Times,serif" font-size="14.00" fill="#0058ad">r 15 [1 2 3 4 5 6 7 10 11 12 14 13 15 8 9 16 17 19 18 20 21 22 23 24 27 28 26 29 25 30 31 33 34 32 35 36 37 38 39 40 42 43 49 50 51 52 54 53 55 56 57]</text>
<polyline fill="none" stroke="#0058ad" points="1407,-.5 1407,-29.5 "/>
<text text-anchor="middle" x="1435.5" y="-11.3" font-family="Times,serif" font-size="14.00" fill="#0058ad">a 16 72</text>
<polyline fill="none" stroke="#0058ad" points="1464,-.5 1464,-29.5 "/>
<text text-anchor="middle" x="1489" y="-11.3" font-family="Times,serif" font-size="14.00" fill="#0058ad">a 3 14</text>
</g>
<!-- T1957&#45;&gt;T1959 -->
<g id="edge1" class="edge">
<title>T1957:f3&#45;&gt;T1959:f1</title>
<path fill="none" stroke="#5b00c0" d="M1482.5,-81C1482.5,-54.2697 1447.1553,-58.7272 1437.7669,-40.2812"/>
<polygon fill="#5b00c0" stroke="#5b00c0" points="1441.0712,-39.0118 1435.5,-30 1434.2354,-40.5191 1441.0712,-39.0118"/>
<text text-anchor="middle" x="1479" y="-51.8" font-family="Times,serif" font-size="14.00" fill="#5b00c0">rw</text>
</g>
<!-- T1959&#45;&gt;T1957 -->
<g id="edge2" class="edge">
<title>T1959:f0&#45;&gt;T1957:f1</title>
<path fill="none" stroke="#5b00c0" d="M973.5,-30C973.5,-67.874 908.6182,-44.6638 896.4528,-71.0845"/>
<polygon fill="#5b00c0" stroke="#5b00c0" points="892.9984,-70.5121 894.5,-81 899.8665,-71.8648 892.9984,-70.5121"/>
<text text-anchor="middle" x="971" y="-51.8" font-family="Times,serif" font-size="14.00" fill="#5b00c0">rw</text>
</g>
</g>
</svg>
