<?xml version="1.0" encoding="UTF-8" standalone="no"?>
<!DOCTYPE svg PUBLIC "-//W3C//DTD SVG 1.1//EN"
 "http://www.w3.org/Graphics/SVG/1.1/DTD/svg11.dtd">
<!-- Generated by graphviz version 2.40.1 (20161225.0304)
 -->
<!-- Title: a_graph Pages: 1 -->
<svg width="2436pt" height="119pt"
 viewBox="0.00 0.00 2435.50 119.00" xmlns="http://www.w3.org/2000/svg" xmlns:xlink="http://www.w3.org/1999/xlink">
<g id="graph0" class="graph" transform="scale(1 1) rotate(0) translate(4 115)">
<title>a_graph</title>
<polygon fill="#ffffff" stroke="transparent" points="-4,4 -4,-115 2431.5,-115 2431.5,4 -4,4"/>
<!-- T25113 -->
<g id="node1" class="node">
<title>T25113</title>
<polygon fill="none" stroke="#0058ad" points="138.5,-81.5 138.5,-110.5 2427.5,-110.5 2427.5,-81.5 138.5,-81.5"/>
<text text-anchor="middle" x="170.5" y="-92.3" font-family="Times,serif" font-size="14.00" fill="#0058ad">a 123 88</text>
<polyline fill="none" stroke="#0058ad" points="202.5,-81.5 202.5,-110.5 "/>
<text text-anchor="middle" x="616.5" y="-92.3" font-family="Times,serif" font-size="14.00" fill="#0058ad">r 125 [1 2 3 5 6 7 8 9 10 11 12 13 15 16 19 20 23 24 25 26 27 28 29 30 21 22 31 32 33 34 35 36 37 38 39 40 41 42 43 44 45 46 47 48 49 50 51 52]</text>
<polyline fill="none" stroke="#0058ad" points="1030.5,-81.5 1030.5,-110.5 "/>
<text text-anchor="middle" x="1729" y="-92.3" font-family="Times,serif" font-size="14.00" fill="#0058ad">r 123 [2 3 4 5 6 7 8 9 10 11 12 13 14 15 16 17 18 19 20 21 23 25 26 27 28 30 31 32 33 29 34 35 36 38 39 37 40 41 42 43 44 45 46 48 49 50 51 53 52 54 55 56 57 58 59 60 61 62 63 64 65 66 68 69 70 71 72 73 74 75 78 79 80 81 82 83 84 85 86 87 88]</text>
</g>
<!-- T25111 -->
<g id="node2" class="node">
<title>T25111</title>
<polygon fill="none" stroke="#0058ad" points="0,-.5 0,-29.5 1444,-29.5 1444,-.5 0,-.5"/>
<text text-anchor="middle" x="32" y="-11.3" font-family="Times,serif" font-size="14.00" fill="#0058ad">a 125 53</text>
<polyline fill="none" stroke="#0058ad" points="64,-.5 64,-29.5 "/>
<text text-anchor="middle" x="754" y="-11.3" font-family="Times,serif" font-size="14.00" fill="#0058ad">r 123 [2 3 4 5 6 7 8 9 10 11 12 13 14 15 16 17 18 19 20 21 23 25 26 27 28 30 31 32 33 29 34 35 36 38 39 37 40 41 42 43 44 45 46 48 49 50 51 53 52 54 55 56 57 58 59 60 61 62 63 64 65 66 68 69 70 71 72 73 74 75 78 79 80 81 82 83 84 85 86 87]</text>
</g>
<!-- T25113&#45;&gt;T25111 -->
<g id="edge1" class="edge">
<title>T25113:f1&#45;&gt;T25111:f0</title>
<path fill="none" stroke="#5b00c0" d="M616,-81C616,64.1872 435.6594,-60.3679 291,-48 278.2849,-46.9129 85.3217,-44.9498 41.0186,-34.522"/>
<polygon fill="#5b00c0" stroke="#5b00c0" points="42.508,-31.3535 32,-30 39.3705,-37.611 42.508,-31.3535"/>
<text text-anchor="middle" x="621.5" y="-51.8" font-family="Times,serif" font-size="14.00" fill="#5b00c0">rw</text>
</g>
<!-- T25111&#45;&gt;T25113 -->
<g id="edge2" class="edge">
<title>T25111:f1&#45;&gt;T25113:f0</title>
<path fill="none" stroke="#5b00c0" d="M754,-30C754,-56.7964 298.3866,-43.3315 272,-48 228.9306,-55.6201 178.9819,-36.9078 171.077,-70.6433"/>
<polygon fill="#5b00c0" stroke="#5b00c0" points="167.5532,-70.6916 170,-81 174.5157,-71.4157 167.5532,-70.6916"/>
<text text-anchor="middle" x="279.5" y="-51.8" font-family="Times,serif" font-size="14.00" fill="#5b00c0">rw</text>
</g>
</g>
</svg>
