<?xml version="1.0" encoding="UTF-8" standalone="no"?>
<!DOCTYPE svg PUBLIC "-//W3C//DTD SVG 1.1//EN"
 "http://www.w3.org/Graphics/SVG/1.1/DTD/svg11.dtd">
<!-- Generated by graphviz version 2.40.1 (20161225.0304)
 -->
<!-- Title: a_graph Pages: 1 -->
<svg width="1784pt" height="119pt"
 viewBox="0.00 0.00 1784.00 119.00" xmlns="http://www.w3.org/2000/svg" xmlns:xlink="http://www.w3.org/1999/xlink">
<g id="graph0" class="graph" transform="scale(1 1) rotate(0) translate(4 115)">
<title>a_graph</title>
<polygon fill="#ffffff" stroke="transparent" points="-4,4 -4,-115 1780,-115 1780,4 -4,4"/>
<!-- T35997 -->
<g id="node1" class="node">
<title>T35997</title>
<polygon fill="none" stroke="#0058ad" points="0,-81.5 0,-110.5 1776,-110.5 1776,-81.5 0,-81.5"/>
<text text-anchor="middle" x="233" y="-92.3" font-family="Times,serif" font-size="14.00" fill="#0058ad">r 178 [1 2 3 4 5 7 8 9 10 11 12 13 14 15 16 17 18 19 20 21 22 23 24 25 26 27 28]</text>
<polyline fill="none" stroke="#0058ad" points="466,-81.5 466,-110.5 "/>
<text text-anchor="middle" x="498" y="-92.3" font-family="Times,serif" font-size="14.00" fill="#0058ad">a 180 15</text>
<polyline fill="none" stroke="#0058ad" points="530,-81.5 530,-110.5 "/>
<text text-anchor="middle" x="1035.5" y="-92.3" font-family="Times,serif" font-size="14.00" fill="#0058ad">r 179 [3 2 4 5 1 7 8 6 9 10 12 13 14 11 15 17 18 16 22 23 19 20 21 25 24 26 29 27 28 30 31 32 33 35 36 37 38 40 41 42 39 43 44 34 45 46 47 48 49 50 51 52 53 54 56 59 57 60 61]</text>
<polyline fill="none" stroke="#0058ad" points="1541,-81.5 1541,-110.5 "/>
<text text-anchor="middle" x="1658.5" y="-92.3" font-family="Times,serif" font-size="14.00" fill="#0058ad">r 180 [1 3 4 2 5 6 7 8 9 10 11 12 14 15]</text>
</g>
<!-- T35995 -->
<g id="node2" class="node">
<title>T35995</title>
<polygon fill="none" stroke="#0058ad" points="632,-.5 632,-29.5 978,-29.5 978,-.5 632,-.5"/>
<text text-anchor="middle" x="664" y="-11.3" font-family="Times,serif" font-size="14.00" fill="#0058ad">a 179 62</text>
<polyline fill="none" stroke="#0058ad" points="696,-.5 696,-29.5 "/>
<text text-anchor="middle" x="728" y="-11.3" font-family="Times,serif" font-size="14.00" fill="#0058ad">a 179 63</text>
<polyline fill="none" stroke="#0058ad" points="760,-.5 760,-29.5 "/>
<text text-anchor="middle" x="869" y="-11.3" font-family="Times,serif" font-size="14.00" fill="#0058ad">r 180 [1 3 4 2 5 6 7 8 9 10 11 12 14]</text>
</g>
<!-- T35997&#45;&gt;T35995 -->
<g id="edge1" class="edge">
<title>T35997:f2&#45;&gt;T35995:f0</title>
<path fill="none" stroke="#5b00c0" d="M1036,-81C1036,82.2946 679.8127,-184.9376 664.5077,-40.1422"/>
<polygon fill="#5b00c0" stroke="#5b00c0" points="667.9957,-39.8125 664,-30 661.0045,-40.1625 667.9957,-39.8125"/>
<text text-anchor="middle" x="1039.5" y="-51.8" font-family="Times,serif" font-size="14.00" fill="#5b00c0">rw</text>
</g>
<!-- T35995&#45;&gt;T35997 -->
<g id="edge2" class="edge">
<title>T35995:f2&#45;&gt;T35997:f1</title>
<path fill="none" stroke="#5b00c0" d="M869,-30C869,-54.6369 672.3642,-44.3449 648,-48 584.1862,-57.5733 506.978,-17.5374 498.7242,-70.793"/>
<polygon fill="#5b00c0" stroke="#5b00c0" points="495.2166,-70.7773 498,-81 502.1991,-71.2728 495.2166,-70.7773"/>
<text text-anchor="middle" x="655.5" y="-51.8" font-family="Times,serif" font-size="14.00" fill="#5b00c0">rw</text>
</g>
</g>
</svg>
