<?xml version="1.0" encoding="UTF-8" standalone="no"?>
<!DOCTYPE svg PUBLIC "-//W3C//DTD SVG 1.1//EN"
 "http://www.w3.org/Graphics/SVG/1.1/DTD/svg11.dtd">
<!-- Generated by graphviz version 2.40.1 (20161225.0304)
 -->
<!-- Title: a_graph Pages: 1 -->
<svg width="5351pt" height="362pt"
 viewBox="0.00 0.00 5351.00 362.00" xmlns="http://www.w3.org/2000/svg" xmlns:xlink="http://www.w3.org/1999/xlink">
<g id="graph0" class="graph" transform="scale(1 1) rotate(0) translate(4 358)">
<title>a_graph</title>
<polygon fill="#ffffff" stroke="transparent" points="-4,4 -4,-358 5347,-358 5347,4 -4,4"/>
<!-- T36845 -->
<g id="node1" class="node">
<title>T36845</title>
<polygon fill="none" stroke="#0058ad" points="3418,-324.5 3418,-353.5 3546,-353.5 3546,-324.5 3418,-324.5"/>
<text text-anchor="middle" x="3450" y="-335.3" font-family="Times,serif" font-size="14.00" fill="#0058ad">a 183 72</text>
<polyline fill="none" stroke="#0058ad" points="3482,-324.5 3482,-353.5 "/>
<text text-anchor="middle" x="3514" y="-335.3" font-family="Times,serif" font-size="14.00" fill="#0058ad">a 178 59</text>
</g>
<!-- T36853 -->
<g id="node3" class="node">
<title>T36853</title>
<polygon fill="none" stroke="#0058ad" points="3478,-243.5 3478,-272.5 5300,-272.5 5300,-243.5 3478,-243.5"/>
<text text-anchor="middle" x="4095.5" y="-254.3" font-family="Times,serif" font-size="14.00" fill="#0058ad">r 183 [1 3 4 5 6 2 7 8 10 9 12 11 13 16 17 18 19 20 21 14 15 22 23 24 25 28 30 26 27 29 32 33 34 35 36 31 37 38 39 40 41 42 43 45 46 47 44 49 50 48 51 52 53 54 55 56 57 59 60 61 62 63 64 58 65 66 70 67 68 69 71 72]</text>
<polyline fill="none" stroke="#0058ad" points="4713,-243.5 4713,-272.5 "/>
<text text-anchor="middle" x="4745" y="-254.3" font-family="Times,serif" font-size="14.00" fill="#0058ad">a 183 73</text>
<polyline fill="none" stroke="#0058ad" points="4777,-243.5 4777,-272.5 "/>
<text text-anchor="middle" x="5006.5" y="-254.3" font-family="Times,serif" font-size="14.00" fill="#0058ad">r 184 [1 2 3 4 6 7 8 5 9 10 12 13 14 15 11 16 17 19 18 20 21 22 23 24 25 26 27]</text>
<polyline fill="none" stroke="#0058ad" points="5236,-243.5 5236,-272.5 "/>
<text text-anchor="middle" x="5268" y="-254.3" font-family="Times,serif" font-size="14.00" fill="#0058ad">a 183 74</text>
</g>
<!-- T36845&#45;&gt;T36853 -->
<g id="edge3" class="edge">
<title>T36845:f0&#45;&gt;T36853:f1</title>
<path fill="none" stroke="#c02700" d="M3450,-324C3450,-254.9529 4640.9481,-337.6489 4738.643,-281.0494"/>
<polygon fill="#c02700" stroke="#c02700" points="4741.549,-283.0171 4745,-273 4736.0555,-278.6786 4741.549,-283.0171"/>
<text text-anchor="middle" x="4703" y="-294.8" font-family="Times,serif" font-size="14.00" fill="#c02700">ww</text>
</g>
<!-- T36851 -->
<g id="node4" class="node">
<title>T36851</title>
<polygon fill="none" stroke="#0058ad" points="3942.5,-.5 3942.5,-29.5 5305.5,-29.5 5305.5,-.5 3942.5,-.5"/>
<text text-anchor="middle" x="3974.5" y="-11.3" font-family="Times,serif" font-size="14.00" fill="#0058ad">a 184 30</text>
<polyline fill="none" stroke="#0058ad" points="4006.5,-.5 4006.5,-29.5 "/>
<text text-anchor="middle" x="4038.5" y="-11.3" font-family="Times,serif" font-size="14.00" fill="#0058ad">a 184 31</text>
<polyline fill="none" stroke="#0058ad" points="4070.5,-.5 4070.5,-29.5 "/>
<text text-anchor="middle" x="4688" y="-11.3" font-family="Times,serif" font-size="14.00" fill="#0058ad">r 183 [1 3 4 5 6 2 7 8 10 9 12 11 13 16 17 18 19 20 21 14 15 22 23 24 25 28 30 26 27 29 32 33 34 35 36 31 37 38 39 40 41 42 43 45 46 47 44 49 50 48 51 52 53 54 55 56 57 59 60 61 62 63 64 58 65 66 70 67 68 69 71 72]</text>
</g>
<!-- T36845&#45;&gt;T36851 -->
<g id="edge2" class="edge">
<title>T36845:f0&#45;&gt;T36851:f2</title>
<path fill="none" stroke="#c000a5" d="M3450,-324C3450,-306.401 4699.4117,-306.6149 4717,-306 4853.113,-301.2415 5328,-394.1961 5328,-258 5328,-258 5328,-258 5328,-96 5328,-62.6302 5340.2462,-24.146 5316.1274,-16.3994"/>
<polygon fill="#c000a5" stroke="#c000a5" points="5316.385,-12.9018 5306,-15 5315.4268,-19.8359 5316.385,-12.9018"/>
<text text-anchor="middle" x="5335.5" y="-173.3" font-family="Times,serif" font-size="14.00" fill="#c000a5">wr</text>
</g>
<!-- T36848 -->
<g id="node5" class="node">
<title>T36848</title>
<polygon fill="none" stroke="#0058ad" points="3714,-81.5 3714,-110.5 3778,-110.5 3778,-81.5 3714,-81.5"/>
<text text-anchor="middle" x="3746" y="-92.3" font-family="Times,serif" font-size="14.00" fill="#0058ad">a 184 29</text>
</g>
<!-- T36845&#45;&gt;T36848 -->
<g id="edge1" class="edge">
<title>T36845&#45;&gt;T36848</title>
<path fill="none" stroke="#0050c0" d="M3473.9919,-324.4825C3463.8583,-303.9278 3449.8873,-266.2606 3469,-243 3543.2052,-152.6905 3644.3398,-274.6409 3727,-192 3745.5014,-173.5029 3748.6198,-142.5247 3748.1672,-120.7725"/>
<polygon fill="#0050c0" stroke="#0050c0" points="3751.6567,-120.4659 3747.6889,-110.6421 3744.6645,-120.7961 3751.6567,-120.4659"/>
<text text-anchor="middle" x="3705.5" y="-213.8" font-family="Times,serif" font-size="14.00" fill="#0050c0">rt</text>
</g>
<!-- T36847 -->
<g id="node2" class="node">
<title>T36847</title>
<polygon fill="none" stroke="#0058ad" points="0,-162.5 0,-191.5 3718,-191.5 3718,-162.5 0,-162.5"/>
<text text-anchor="middle" x="32" y="-173.3" font-family="Times,serif" font-size="14.00" fill="#0058ad">a 184 28</text>
<polyline fill="none" stroke="#0058ad" points="64,-162.5 64,-191.5 "/>
<text text-anchor="middle" x="673" y="-173.3" font-family="Times,serif" font-size="14.00" fill="#0058ad">r 183 [1 3 4 5 6 2 7 8 10 9 12 11 13 16 17 18 19 20 21 14 15 22 23 24 25 28 30 26 27 29 32 33 34 35 36 31 37 38 39 40 41 42 43 45 46 47 44 49 50 48 51 52 53 54 55 56 57 59 60 61 62 63 64 58 65 66 70 67 68 69 71]</text>
<polyline fill="none" stroke="#0058ad" points="1282,-162.5 1282,-191.5 "/>
<text text-anchor="middle" x="1891" y="-173.3" font-family="Times,serif" font-size="14.00" fill="#0058ad">r 183 [1 3 4 5 6 2 7 8 10 9 12 11 13 16 17 18 19 20 21 14 15 22 23 24 25 28 30 26 27 29 32 33 34 35 36 31 37 38 39 40 41 42 43 45 46 47 44 49 50 48 51 52 53 54 55 56 57 59 60 61 62 63 64 58 65 66 70 67 68 69 71]</text>
<polyline fill="none" stroke="#0058ad" points="2500,-162.5 2500,-191.5 "/>
<text text-anchor="middle" x="3109" y="-173.3" font-family="Times,serif" font-size="14.00" fill="#0058ad">r 183 [1 3 4 5 6 2 7 8 10 9 12 11 13 16 17 18 19 20 21 14 15 22 23 24 25 28 30 26 27 29 32 33 34 35 36 31 37 38 39 40 41 42 43 45 46 47 44 49 50 48 51 52 53 54 55 56 57 59 60 61 62 63 64 58 65 66 70 67 68 69 71]</text>
</g>
<!-- T36847&#45;&gt;T36845 -->
<g id="edge6" class="edge">
<title>T36847:f1&#45;&gt;T36845:f0</title>
<path fill="none" stroke="#5b00c0" d="M673,-192C673,-266.495 3212.9267,-335.5473 3407.8485,-338.8746"/>
<polygon fill="#5b00c0" stroke="#5b00c0" points="3407.9575,-342.3761 3418,-339 3408.044,-335.3767 3407.9575,-342.3761"/>
<text text-anchor="middle" x="1539.5" y="-254.3" font-family="Times,serif" font-size="14.00" fill="#5b00c0">rw</text>
</g>
<!-- T36847&#45;&gt;T36851 -->
<g id="edge5" class="edge">
<title>T36847&#45;&gt;T36851</title>
<path fill="none" stroke="#0050c0" d="M2711.0042,-162.4992C3046.638,-152.954 3435.2599,-137.1498 3787,-111 4046.5881,-91.7011 4349.7603,-52.8397 4510.464,-30.9417"/>
<polygon fill="#0050c0" stroke="#0050c0" points="4511.407,-34.3455 4520.8413,-29.5243 4510.4596,-27.4099 4511.407,-34.3455"/>
<text text-anchor="middle" x="4098.5" y="-92.3" font-family="Times,serif" font-size="14.00" fill="#0050c0">rt</text>
</g>
<!-- T36847&#45;&gt;T36848 -->
<g id="edge4" class="edge">
<title>T36847:f0&#45;&gt;T36848:f0</title>
<path fill="none" stroke="#c02700" d="M32,-162C32,-112.1048 3488.9713,-121.9356 3705.7193,-111.3838"/>
<polygon fill="#c02700" stroke="#c02700" points="3706.1208,-114.8627 3715.7991,-110.5521 3705.5451,-107.8864 3706.1208,-114.8627"/>
<text text-anchor="middle" x="922" y="-132.8" font-family="Times,serif" font-size="14.00" fill="#c02700">ww</text>
</g>
<!-- T36853&#45;&gt;T36847 -->
<g id="edge7" class="edge">
<title>T36853:f2&#45;&gt;T36847:f0</title>
<path fill="none" stroke="#5b00c0" d="M5007,-243C5007,-232.0687 3443.9305,-225.1288 3433,-225 2883.6644,-218.5256 2746.3451,-215.617 2197,-210 2182.5675,-209.8524 200.7426,-207.2561 42.065,-193.7478"/>
<polygon fill="#5b00c0" stroke="#5b00c0" points="42.4514,-190.2626 32,-192 41.2537,-197.1594 42.4514,-190.2626"/>
<text text-anchor="middle" x="3440.5" y="-213.8" font-family="Times,serif" font-size="14.00" fill="#5b00c0">rw</text>
</g>
<!-- T36851&#45;&gt;T36853 -->
<g id="edge8" class="edge">
<title>T36851:f2&#45;&gt;T36853:f1</title>
<path fill="none" stroke="#5b00c0" d="M4688,-30C4688,-124.5525 4741.0626,-143.7065 4744.7936,-232.9576"/>
<polygon fill="#5b00c0" stroke="#5b00c0" points="4741.2952,-233.0741 4745,-243 4748.2937,-232.9302 4741.2952,-233.0741"/>
<text text-anchor="middle" x="4726.5" y="-132.8" font-family="Times,serif" font-size="14.00" fill="#5b00c0">rw</text>
</g>
<!-- T36848&#45;&gt;T36851 -->
<g id="edge9" class="edge">
<title>T36848:f0&#45;&gt;T36851:f0</title>
<path fill="none" stroke="#c02700" d="M3766.3109,-81.3315C3799.0129,-59.1293 3866.3298,-19.1514 3931.9178,-15.3002"/>
<polygon fill="#c02700" stroke="#c02700" points="3932.1086,-18.7962 3942,-15 3931.9002,-11.7993 3932.1086,-18.7962"/>
<text text-anchor="middle" x="3832" y="-51.8" font-family="Times,serif" font-size="14.00" fill="#c02700">ww</text>
</g>
</g>
</svg>
