<?xml version="1.0" encoding="UTF-8" standalone="no"?>
<!DOCTYPE svg PUBLIC "-//W3C//DTD SVG 1.1//EN"
 "http://www.w3.org/Graphics/SVG/1.1/DTD/svg11.dtd">
<!-- Generated by graphviz version 2.40.1 (20161225.0304)
 -->
<!-- Title: a_graph Pages: 1 -->
<svg width="1794pt" height="119pt"
 viewBox="0.00 0.00 1794.00 119.00" xmlns="http://www.w3.org/2000/svg" xmlns:xlink="http://www.w3.org/1999/xlink">
<g id="graph0" class="graph" transform="scale(1 1) rotate(0) translate(4 115)">
<title>a_graph</title>
<polygon fill="#ffffff" stroke="transparent" points="-4,4 -4,-115 1790,-115 1790,4 -4,4"/>
<!-- T3221 -->
<g id="node1" class="node">
<title>T3221</title>
<polygon fill="none" stroke="#0058ad" points="1370,-81.5 1370,-110.5 1786,-110.5 1786,-81.5 1370,-81.5"/>
<text text-anchor="middle" x="1402" y="-92.3" font-family="Times,serif" font-size="14.00" fill="#0058ad">a 20 101</text>
<polyline fill="none" stroke="#0058ad" points="1434,-81.5 1434,-110.5 "/>
<text text-anchor="middle" x="1522" y="-92.3" font-family="Times,serif" font-size="14.00" fill="#0058ad">r 21 [1 2 3 4 5 6 7 8 9 11 10]</text>
<polyline fill="none" stroke="#0058ad" points="1610,-81.5 1610,-110.5 "/>
<text text-anchor="middle" x="1698" y="-92.3" font-family="Times,serif" font-size="14.00" fill="#0058ad">r 21 [1 2 3 4 5 6 7 8 9 11 10]</text>
</g>
<!-- T3223 -->
<g id="node2" class="node">
<title>T3223</title>
<polygon fill="none" stroke="#0058ad" points="0,-.5 0,-29.5 1746,-29.5 1746,-.5 0,-.5"/>
<text text-anchor="middle" x="816" y="-11.3" font-family="Times,serif" font-size="14.00" fill="#0058ad">r 20 [1 2 3 5 6 7 8 9 4 10 11 12 13 14 15 18 19 16 17 20 21 22 24 28 26 27 23 29 30 31 33 34 35 32 39 37 38 40 41 42 44 46 45 48 47 43 51 52 49 50 55 53 56 54 58 59 57 61 62 60 65 64 66 67 69 70 71 72 74 75 76 77 78 79 80 81 82 83 84 85 86 87 89 88 91 92 93 94 90 95 96 99 100 97 98]</text>
<polyline fill="none" stroke="#0058ad" points="1632,-.5 1632,-29.5 "/>
<text text-anchor="middle" x="1660.5" y="-11.3" font-family="Times,serif" font-size="14.00" fill="#0058ad">a 6 122</text>
<polyline fill="none" stroke="#0058ad" points="1689,-.5 1689,-29.5 "/>
<text text-anchor="middle" x="1717.5" y="-11.3" font-family="Times,serif" font-size="14.00" fill="#0058ad">a 21 12</text>
</g>
<!-- T3221&#45;&gt;T3223 -->
<g id="edge1" class="edge">
<title>T3221:f1&#45;&gt;T3223:f2</title>
<path fill="none" stroke="#5b00c0" d="M1522,-81C1522,5.3199 1702.2516,-109.7963 1717.0379,-40.0005"/>
<polygon fill="#5b00c0" stroke="#5b00c0" points="1720.5262,-40.2893 1718,-30 1713.5583,-39.6188 1720.5262,-40.2893"/>
<text text-anchor="middle" x="1719.5" y="-51.8" font-family="Times,serif" font-size="14.00" fill="#5b00c0">rw</text>
</g>
<!-- T3223&#45;&gt;T3221 -->
<g id="edge2" class="edge">
<title>T3223:f0&#45;&gt;T3221:f0</title>
<path fill="none" stroke="#5b00c0" d="M816,-30C816,-89.3877 1267.5557,-95.5611 1359.9841,-95.9748"/>
<polygon fill="#5b00c0" stroke="#5b00c0" points="1359.9912,-99.4747 1370,-96 1360.0089,-92.4747 1359.9912,-99.4747"/>
<text text-anchor="middle" x="874.5" y="-51.8" font-family="Times,serif" font-size="14.00" fill="#5b00c0">rw</text>
</g>
</g>
</svg>
