<?xml version="1.0" encoding="UTF-8" standalone="no"?>
<!DOCTYPE svg PUBLIC "-//W3C//DTD SVG 1.1//EN"
 "http://www.w3.org/Graphics/SVG/1.1/DTD/svg11.dtd">
<!-- Generated by graphviz version 2.40.1 (20161225.0304)
 -->
<!-- Title: a_graph Pages: 1 -->
<svg width="3343pt" height="119pt"
 viewBox="0.00 0.00 3343.00 119.00" xmlns="http://www.w3.org/2000/svg" xmlns:xlink="http://www.w3.org/1999/xlink">
<g id="graph0" class="graph" transform="scale(1 1) rotate(0) translate(4 115)">
<title>a_graph</title>
<polygon fill="#ffffff" stroke="transparent" points="-4,4 -4,-115 3339,-115 3339,4 -4,4"/>
<!-- T28215 -->
<g id="node1" class="node">
<title>T28215</title>
<polygon fill="none" stroke="#0058ad" points="621.5,-81.5 621.5,-110.5 2703.5,-110.5 2703.5,-81.5 621.5,-81.5"/>
<text text-anchor="middle" x="825" y="-92.3" font-family="Times,serif" font-size="14.00" fill="#0058ad">r 143 [1 2 3 4 5 6 7 8 9 10 11 12 13 14 15 16 17 18 20 21 22 19 25 28]</text>
<polyline fill="none" stroke="#0058ad" points="1028.5,-81.5 1028.5,-110.5 "/>
<text text-anchor="middle" x="1834" y="-92.3" font-family="Times,serif" font-size="14.00" fill="#0058ad">r 129 [1 2 4 5 6 7 8 9 10 11 12 14 13 15 16 17 18 19 20 22 23 24 25 26 28 29 30 31 32 33 34 35 36 37 38 39 40 41 42 43 44 45 46 47 48 49 50 51 52 53 54 55 56 57 58 59 60 61 62 63 64 65 67 68 69 70 71 72 73 74 75 76 77 78 79 80 81 82 83 84 85 86 88 89 90 91 92 93 96 97 98 99 100]</text>
<polyline fill="none" stroke="#0058ad" points="2639.5,-81.5 2639.5,-110.5 "/>
<text text-anchor="middle" x="2671.5" y="-92.3" font-family="Times,serif" font-size="14.00" fill="#0058ad">a 142 80</text>
</g>
<!-- T28213 -->
<g id="node2" class="node">
<title>T28213</title>
<polygon fill="none" stroke="#0058ad" points="0,-.5 0,-29.5 3335,-29.5 3335,-.5 0,-.5"/>
<text text-anchor="middle" x="617.5" y="-11.3" font-family="Times,serif" font-size="14.00" fill="#0058ad">r 142 [2 1 3 4 5 6 7 8 9 10 11 12 13 14 15 17 18 19 20 21 22 16 23 24 25 26 27 28 29 30 31 34 35 37 38 39 40 43 41 42 44 46 45 47 48 51 50 54 55 56 57 58 60 61 59 62 63 64 65 66 67 69 68 70 71 72 73 74 75 76 77 78]</text>
<polyline fill="none" stroke="#0058ad" points="1235,-.5 1235,-29.5 "/>
<text text-anchor="middle" x="2040.5" y="-11.3" font-family="Times,serif" font-size="14.00" fill="#0058ad">r 129 [1 2 4 5 6 7 8 9 10 11 12 14 13 15 16 17 18 19 20 22 23 24 25 26 28 29 30 31 32 33 34 35 36 37 38 39 40 41 42 43 44 45 46 47 48 49 50 51 52 53 54 55 56 57 58 59 60 61 62 63 64 65 67 68 69 70 71 72 73 74 75 76 77 78 79 80 81 82 83 84 85 86 88 89 90 91 92 93 96 97 98 99 100]</text>
<polyline fill="none" stroke="#0058ad" points="2846,-.5 2846,-29.5 "/>
<text text-anchor="middle" x="2878" y="-11.3" font-family="Times,serif" font-size="14.00" fill="#0058ad">a 143 29</text>
<polyline fill="none" stroke="#0058ad" points="2910,-.5 2910,-29.5 "/>
<text text-anchor="middle" x="3122.5" y="-11.3" font-family="Times,serif" font-size="14.00" fill="#0058ad">r 143 [1 2 3 4 5 6 7 8 9 10 11 12 13 14 15 16 17 18 20 21 22 19 25 28 29]</text>
</g>
<!-- T28215&#45;&gt;T28213 -->
<g id="edge1" class="edge">
<title>T28215:f0&#45;&gt;T28213:f2</title>
<path fill="none" stroke="#5b00c0" d="M824.5,-81C824.5,-77.5792 2713.4632,-37.0976 2868.4172,-30.6367"/>
<polygon fill="#5b00c0" stroke="#5b00c0" points="2868.7405,-34.1234 2878.5,-30 2868.2993,-27.1373 2868.7405,-34.1234"/>
<text text-anchor="middle" x="2162" y="-51.8" font-family="Times,serif" font-size="14.00" fill="#5b00c0">rw</text>
</g>
<!-- T28213&#45;&gt;T28215 -->
<g id="edge2" class="edge">
<title>T28213:f0&#45;&gt;T28215:f2</title>
<path fill="none" stroke="#5b00c0" d="M617.5,-30C617.5,-51.6126 2151.9038,-47.1602 2173.5,-48 2280.7541,-52.1708 2646.8324,24.7 2670.3159,-70.8697"/>
<polygon fill="#5b00c0" stroke="#5b00c0" points="2666.8626,-71.474 2671.5,-81 2673.8153,-70.6613 2666.8626,-71.474"/>
<text text-anchor="middle" x="2671" y="-51.8" font-family="Times,serif" font-size="14.00" fill="#5b00c0">rw</text>
</g>
</g>
</svg>
