<?xml version="1.0" encoding="UTF-8" standalone="no"?>
<!DOCTYPE svg PUBLIC "-//W3C//DTD SVG 1.1//EN"
 "http://www.w3.org/Graphics/SVG/1.1/DTD/svg11.dtd">
<!-- Generated by graphviz version 2.40.1 (20161225.0304)
 -->
<!-- Title: a_graph Pages: 1 -->
<svg width="3974pt" height="119pt"
 viewBox="0.00 0.00 3974.11 119.00" xmlns="http://www.w3.org/2000/svg" xmlns:xlink="http://www.w3.org/1999/xlink">
<g id="graph0" class="graph" transform="scale(1 1) rotate(0) translate(4 115)">
<title>a_graph</title>
<polygon fill="#ffffff" stroke="transparent" points="-4,4 -4,-115 3970.1074,-115 3970.1074,4 -4,4"/>
<!-- T36419 -->
<g id="node1" class="node">
<title>T36419</title>
<polygon fill="none" stroke="#0058ad" points="0,-81.5 0,-110.5 3856,-110.5 3856,-81.5 0,-81.5"/>
<text text-anchor="middle" x="747" y="-92.3" font-family="Times,serif" font-size="14.00" fill="#0058ad">r 180 [1 3 4 2 5 6 7 8 9 10 11 12 14 15 16 17 19 20 21 22 23 24 25 26 27 28 30 29 32 31 34 35 36 37 38 39 40 42 43 45 41 46 47 44 48 49 51 52 53 54 50 55 56 57 58 59 60 61 62 63 64 66 67 65 68 69 70 71 72 73 74 75 76 77 78 79 80 81 82 83 84 85 86 87 88 90 89]</text>
<polyline fill="none" stroke="#0058ad" points="1494,-81.5 1494,-110.5 "/>
<text text-anchor="middle" x="2068.5" y="-92.3" font-family="Times,serif" font-size="14.00" fill="#0058ad">r 182 [1 2 4 3 7 8 9 5 6 10 12 13 14 15 11 17 18 16 19 20 22 21 23 24 26 25 27 30 31 28 29 32 33 34 35 36 38 39 40 41 42 43 37 46 44 45 48 47 50 49 51 52 53 55 54 57 56 58 59 60 61 62 63 66 70 64 65]</text>
<polyline fill="none" stroke="#0058ad" points="2643,-81.5 2643,-110.5 "/>
<text text-anchor="middle" x="3217.5" y="-92.3" font-family="Times,serif" font-size="14.00" fill="#0058ad">r 182 [1 2 4 3 7 8 9 5 6 10 12 13 14 15 11 17 18 16 19 20 22 21 23 24 26 25 27 30 31 28 29 32 33 34 35 36 38 39 40 41 42 43 37 46 44 45 48 47 50 49 51 52 53 55 54 57 56 58 59 60 61 62 63 66 70 64 65]</text>
<polyline fill="none" stroke="#0058ad" points="3792,-81.5 3792,-110.5 "/>
<text text-anchor="middle" x="3824" y="-92.3" font-family="Times,serif" font-size="14.00" fill="#0058ad">a 180 91</text>
</g>
<!-- T36423 -->
<g id="node2" class="node">
<title>T36423</title>
<polygon fill="none" stroke="#0058ad" points="1254.5,-.5 1254.5,-29.5 3961.5,-29.5 3961.5,-.5 1254.5,-.5"/>
<text text-anchor="middle" x="1829" y="-11.3" font-family="Times,serif" font-size="14.00" fill="#0058ad">r 182 [1 2 4 3 7 8 9 5 6 10 12 13 14 15 11 17 18 16 19 20 22 21 23 24 26 25 27 30 31 28 29 32 33 34 35 36 38 39 40 41 42 43 37 46 44 45 48 47 50 49 51 52 53 55 54 57 56 58 59 60 61 62 63 66 70 64 65]</text>
<polyline fill="none" stroke="#0058ad" points="2403.5,-.5 2403.5,-29.5 "/>
<text text-anchor="middle" x="2435.5" y="-11.3" font-family="Times,serif" font-size="14.00" fill="#0058ad">a 182 68</text>
<polyline fill="none" stroke="#0058ad" points="2467.5,-.5 2467.5,-29.5 "/>
<text text-anchor="middle" x="3214.5" y="-11.3" font-family="Times,serif" font-size="14.00" fill="#0058ad">r 180 [1 3 4 2 5 6 7 8 9 10 11 12 14 15 16 17 19 20 21 22 23 24 25 26 27 28 30 29 32 31 34 35 36 37 38 39 40 42 43 45 41 46 47 44 48 49 51 52 53 54 50 55 56 57 58 59 60 61 62 63 64 66 67 65 68 69 70 71 72 73 74 75 76 77 78 79 80 81 82 83 84 85 86 87 88 90 89]</text>
</g>
<!-- T36419&#45;&gt;T36423 -->
<g id="edge1" class="edge">
<title>T36419:f1&#45;&gt;T36423:f1</title>
<path fill="none" stroke="#5b00c0" d="M2069,-81C2069,79.5494 2418.7432,-181.9964 2434.4544,-40.4083"/>
<polygon fill="#5b00c0" stroke="#5b00c0" points="2437.9716,-40.1695 2435,-30 2430.9812,-39.803 2437.9716,-40.1695"/>
<text text-anchor="middle" x="2439.5" y="-51.8" font-family="Times,serif" font-size="14.00" fill="#5b00c0">rw</text>
</g>
<!-- T36423&#45;&gt;T36419 -->
<g id="edge2" class="edge">
<title>T36423:f2&#45;&gt;T36419:f3</title>
<path fill="none" stroke="#5b00c0" d="M3962,-15C3968.6667,-15 3965.8104,-24.5296 3962,-30 3926.8171,-80.511 3835.5751,-23.1682 3825.0035,-70.829"/>
<polygon fill="#5b00c0" stroke="#5b00c0" points="3821.4988,-70.7046 3824,-81 3828.465,-71.392 3821.4988,-70.7046"/>
<text text-anchor="middle" x="3943.5" y="-51.8" font-family="Times,serif" font-size="14.00" fill="#5b00c0">rw</text>
</g>
</g>
</svg>
