<?xml version="1.0" encoding="UTF-8" standalone="no"?>
<!DOCTYPE svg PUBLIC "-//W3C//DTD SVG 1.1//EN"
 "http://www.w3.org/Graphics/SVG/1.1/DTD/svg11.dtd">
<!-- Generated by graphviz version 2.40.1 (20161225.0304)
 -->
<!-- Title: a_graph Pages: 1 -->
<svg width="1589pt" height="119pt"
 viewBox="0.00 0.00 1589.00 119.00" xmlns="http://www.w3.org/2000/svg" xmlns:xlink="http://www.w3.org/1999/xlink">
<g id="graph0" class="graph" transform="scale(1 1) rotate(0) translate(4 115)">
<title>a_graph</title>
<polygon fill="#ffffff" stroke="transparent" points="-4,4 -4,-115 1585,-115 1585,4 -4,4"/>
<!-- T20863 -->
<g id="node1" class="node">
<title>T20863</title>
<polygon fill="none" stroke="#0058ad" points="0,-81.5 0,-110.5 1581,-110.5 1581,-81.5 0,-81.5"/>
<text text-anchor="middle" x="609" y="-92.3" font-family="Times,serif" font-size="14.00" fill="#0058ad">r 105 [1 2 3 4 7 8 6 9 5 11 12 10 13 15 16 17 18 20 21 19 22 23 24 14 25 26 28 29 30 31 32 33 34 35 36 37 38 39 41 42 43 40 44 45 46 47 48 49 50 51 55 53 56 57 60 61 58 59 62 63 64 65 66 68 67 69 70 71 72 73 74]</text>
<polyline fill="none" stroke="#0058ad" points="1218,-81.5 1218,-110.5 "/>
<text text-anchor="middle" x="1250" y="-92.3" font-family="Times,serif" font-size="14.00" fill="#0058ad">a 107 14</text>
<polyline fill="none" stroke="#0058ad" points="1282,-81.5 1282,-110.5 "/>
<text text-anchor="middle" x="1314" y="-92.3" font-family="Times,serif" font-size="14.00" fill="#0058ad">a 107 15</text>
<polyline fill="none" stroke="#0058ad" points="1346,-81.5 1346,-110.5 "/>
<text text-anchor="middle" x="1463.5" y="-92.3" font-family="Times,serif" font-size="14.00" fill="#0058ad">r 106 [1 2 3 4 5 6 7 8 10 9 11 12 13 14]</text>
</g>
<!-- T20861 -->
<g id="node2" class="node">
<title>T20861</title>
<polygon fill="none" stroke="#0058ad" points="1235.5,-.5 1235.5,-29.5 1457.5,-29.5 1457.5,-.5 1235.5,-.5"/>
<text text-anchor="middle" x="1314.5" y="-11.3" font-family="Times,serif" font-size="14.00" fill="#0058ad">r 107 [1 4 5 7 8 10 11 12]</text>
<polyline fill="none" stroke="#0058ad" points="1393.5,-.5 1393.5,-29.5 "/>
<text text-anchor="middle" x="1425.5" y="-11.3" font-family="Times,serif" font-size="14.00" fill="#0058ad">a 106 15</text>
</g>
<!-- T20863&#45;&gt;T20861 -->
<g id="edge1" class="edge">
<title>T20863:f3&#45;&gt;T20861:f1</title>
<path fill="none" stroke="#5b00c0" d="M1463.5,-81C1463.5,-56.7082 1435.436,-57.3789 1427.543,-40.1078"/>
<polygon fill="#5b00c0" stroke="#5b00c0" points="1430.9119,-39.1083 1425.5,-30 1424.0506,-40.4952 1430.9119,-39.1083"/>
<text text-anchor="middle" x="1462" y="-51.8" font-family="Times,serif" font-size="14.00" fill="#5b00c0">rw</text>
</g>
<!-- T20861&#45;&gt;T20863 -->
<g id="edge2" class="edge">
<title>T20861:f0&#45;&gt;T20863:f1</title>
<path fill="none" stroke="#5b00c0" d="M1235.5,-15C1208.7088,-15 1241.5376,-43.4911 1249.0394,-70.9747"/>
<polygon fill="#5b00c0" stroke="#5b00c0" points="1245.5948,-71.6091 1250.5,-81 1252.5217,-70.5999 1245.5948,-71.6091"/>
<text text-anchor="middle" x="1254" y="-51.8" font-family="Times,serif" font-size="14.00" fill="#5b00c0">rw</text>
</g>
</g>
</svg>
