<?xml version="1.0" encoding="UTF-8" standalone="no"?>
<!DOCTYPE svg PUBLIC "-//W3C//DTD SVG 1.1//EN"
 "http://www.w3.org/Graphics/SVG/1.1/DTD/svg11.dtd">
<!-- Generated by graphviz version 2.40.1 (20161225.0304)
 -->
<!-- Title: a_graph Pages: 1 -->
<svg width="2093pt" height="119pt"
 viewBox="0.00 0.00 2093.00 119.00" xmlns="http://www.w3.org/2000/svg" xmlns:xlink="http://www.w3.org/1999/xlink">
<g id="graph0" class="graph" transform="scale(1 1) rotate(0) translate(4 115)">
<title>a_graph</title>
<polygon fill="#ffffff" stroke="transparent" points="-4,4 -4,-115 2089,-115 2089,4 -4,4"/>
<!-- T8886 -->
<g id="node1" class="node">
<title>T8886</title>
<polygon fill="none" stroke="#0058ad" points="1255,-81.5 1255,-110.5 2085,-110.5 2085,-81.5 1255,-81.5"/>
<text text-anchor="middle" x="1283.5" y="-92.3" font-family="Times,serif" font-size="14.00" fill="#0058ad">a 49 14</text>
<polyline fill="none" stroke="#0058ad" points="1312,-81.5 1312,-110.5 "/>
<text text-anchor="middle" x="1340.5" y="-92.3" font-family="Times,serif" font-size="14.00" fill="#0058ad">a 49 15</text>
<polyline fill="none" stroke="#0058ad" points="1369,-81.5 1369,-110.5 "/>
<text text-anchor="middle" x="1397.5" y="-92.3" font-family="Times,serif" font-size="14.00" fill="#0058ad">a 34 78</text>
<polyline fill="none" stroke="#0058ad" points="1426,-81.5 1426,-110.5 "/>
<text text-anchor="middle" x="1755.5" y="-92.3" font-family="Times,serif" font-size="14.00" fill="#0058ad">r 48 [1 2 3 4 5 6 7 8 9 10 11 12 13 14 15 16 17 18 19 20 21 22 23 24 25 27 26 28 29 30 31 32 33 34 35 36 37 39 40]</text>
</g>
<!-- T8887 -->
<g id="node2" class="node">
<title>T8887</title>
<polygon fill="none" stroke="#0058ad" points="0,-.5 0,-29.5 1704,-29.5 1704,-.5 0,-.5"/>
<text text-anchor="middle" x="612.5" y="-11.3" font-family="Times,serif" font-size="14.00" fill="#0058ad">r 46 [1 2 3 4 5 6 9 10 11 12 13 14 15 16 17 18 19 20 21 22 23 24 25 26 27 28 29 30 31 32 33 35 36 37 34 38 39 40 41 42 43 44 45 46 47 48 49 50 51 52 53 54 55 56 57 58 59 60 61 62 63 64 65 67 68 69 70 71 72 73 74]</text>
<polyline fill="none" stroke="#0058ad" points="1225,-.5 1225,-29.5 "/>
<text text-anchor="middle" x="1330.5" y="-11.3" font-family="Times,serif" font-size="14.00" fill="#0058ad">r 49 [1 2 3 4 5 6 7 8 9 10 11 12 13]</text>
<polyline fill="none" stroke="#0058ad" points="1436,-.5 1436,-29.5 "/>
<text text-anchor="middle" x="1541.5" y="-11.3" font-family="Times,serif" font-size="14.00" fill="#0058ad">r 49 [1 2 3 4 5 6 7 8 9 10 11 12 13]</text>
<polyline fill="none" stroke="#0058ad" points="1647,-.5 1647,-29.5 "/>
<text text-anchor="middle" x="1675.5" y="-11.3" font-family="Times,serif" font-size="14.00" fill="#0058ad">a 48 38</text>
</g>
<!-- T8886&#45;&gt;T8887 -->
<g id="edge1" class="edge">
<title>T8886:f3&#45;&gt;T8887:f3</title>
<path fill="none" stroke="#5b00c0" d="M1756,-81C1756,-47.303 1744.0667,-20.6797 1714.299,-15.8013"/>
<polygon fill="#5b00c0" stroke="#5b00c0" points="1714.2414,-12.2863 1704,-15 1713.6984,-19.2652 1714.2414,-12.2863"/>
<text text-anchor="middle" x="1761.5" y="-51.8" font-family="Times,serif" font-size="14.00" fill="#5b00c0">rw</text>
</g>
<!-- T8887&#45;&gt;T8886 -->
<g id="edge2" class="edge">
<title>T8887:f1&#45;&gt;T8886:f0</title>
<path fill="none" stroke="#5b00c0" d="M1331,-30C1331,-57.2361 1294.25,-52.0243 1285.0625,-71.1484"/>
<polygon fill="#5b00c0" stroke="#5b00c0" points="1281.6235,-70.495 1283,-81 1288.475,-71.9294 1281.6235,-70.495"/>
<text text-anchor="middle" x="1328.5" y="-51.8" font-family="Times,serif" font-size="14.00" fill="#5b00c0">rw</text>
</g>
</g>
</svg>
