<?xml version="1.0" encoding="UTF-8" standalone="no"?>
<!DOCTYPE svg PUBLIC "-//W3C//DTD SVG 1.1//EN"
 "http://www.w3.org/Graphics/SVG/1.1/DTD/svg11.dtd">
<!-- Generated by graphviz version 2.40.1 (20161225.0304)
 -->
<!-- Title: a_graph Pages: 1 -->
<svg width="3071pt" height="119pt"
 viewBox="0.00 0.00 3071.00 119.00" xmlns="http://www.w3.org/2000/svg" xmlns:xlink="http://www.w3.org/1999/xlink">
<g id="graph0" class="graph" transform="scale(1 1) rotate(0) translate(4 115)">
<title>a_graph</title>
<polygon fill="#ffffff" stroke="transparent" points="-4,4 -4,-115 3067,-115 3067,4 -4,4"/>
<!-- T17873 -->
<g id="node1" class="node">
<title>T17873</title>
<polygon fill="none" stroke="#0058ad" points="0,-81.5 0,-110.5 3063,-110.5 3063,-81.5 0,-81.5"/>
<text text-anchor="middle" x="638.5" y="-92.3" font-family="Times,serif" font-size="14.00" fill="#0058ad">r 84 [1 2 3 4 5 8 9 10 11 12 13 14 15 16 17 18 19 20 21 22 23 24 25 26 27 28 29 30 31 33 34 35 37 38 39 40 41 42 43 44 45 46 48 47 49 50 51 52 53 54 55 56 57 58 59 60 61 62 63 64 65 67 68 69 70 71 72 73 74 75 76 77 78 79]</text>
<polyline fill="none" stroke="#0058ad" points="1277,-81.5 1277,-110.5 "/>
<text text-anchor="middle" x="1993" y="-92.3" font-family="Times,serif" font-size="14.00" fill="#0058ad">r 90 [1 2 3 4 6 8 9 10 11 13 14 15 16 17 18 19 21 22 25 23 26 24 29 31 32 33 34 35 36 37 38 41 42 43 44 45 47 48 50 49 51 52 53 54 55 56 57 58 60 62 59 63 64 65 66 61 68 69 70 67 71 72 74 76 75 73 77 78 79 80 81 82 83 84 85 86 87 88 89 91 92 93 94]</text>
<polyline fill="none" stroke="#0058ad" points="2709,-81.5 2709,-110.5 "/>
<text text-anchor="middle" x="2857.5" y="-92.3" font-family="Times,serif" font-size="14.00" fill="#0058ad">r 92 [1 2 3 4 6 8 9 7 5 10 11 13 12 14 15 16 17 19]</text>
<polyline fill="none" stroke="#0058ad" points="3006,-81.5 3006,-110.5 "/>
<text text-anchor="middle" x="3034.5" y="-92.3" font-family="Times,serif" font-size="14.00" fill="#0058ad">a 92 20</text>
</g>
<!-- T17875 -->
<g id="node2" class="node">
<title>T17875</title>
<polygon fill="none" stroke="#0058ad" points="2402.5,-.5 2402.5,-29.5 2820.5,-29.5 2820.5,-.5 2402.5,-.5"/>
<text text-anchor="middle" x="2551" y="-11.3" font-family="Times,serif" font-size="14.00" fill="#0058ad">r 92 [1 2 3 4 6 8 9 7 5 10 11 13 12 14 15 16 17 19]</text>
<polyline fill="none" stroke="#0058ad" points="2699.5,-.5 2699.5,-29.5 "/>
<text text-anchor="middle" x="2728" y="-11.3" font-family="Times,serif" font-size="14.00" fill="#0058ad">a 90 95</text>
<polyline fill="none" stroke="#0058ad" points="2756.5,-.5 2756.5,-29.5 "/>
<text text-anchor="middle" x="2788.5" y="-11.3" font-family="Times,serif" font-size="14.00" fill="#0058ad">a 62 113</text>
</g>
<!-- T17873&#45;&gt;T17875 -->
<g id="edge1" class="edge">
<title>T17873:f1&#45;&gt;T17875:f1</title>
<path fill="none" stroke="#5b00c0" d="M1993.5,-81C1993.5,79.2085 2697.2572,-182.0504 2727.4968,-39.9519"/>
<polygon fill="#5b00c0" stroke="#5b00c0" points="2730.9793,-40.3006 2728.5,-30 2724.0146,-39.5985 2730.9793,-40.3006"/>
<text text-anchor="middle" x="2728" y="-51.8" font-family="Times,serif" font-size="14.00" fill="#5b00c0">rw</text>
</g>
<!-- T17875&#45;&gt;T17873 -->
<g id="edge2" class="edge">
<title>T17875:f0&#45;&gt;T17873:f3</title>
<path fill="none" stroke="#5b00c0" d="M2550.5,-30C2550.5,-51.095 2718.5172,-45.8273 2739.5,-48 2867.1391,-61.2163 3025.568,44.8699 3034.1367,-70.7184"/>
<polygon fill="#5b00c0" stroke="#5b00c0" points="3030.6489,-71.1299 3034.5,-81 3037.6446,-70.8826 3030.6489,-71.1299"/>
<text text-anchor="middle" x="3040" y="-51.8" font-family="Times,serif" font-size="14.00" fill="#5b00c0">rw</text>
</g>
</g>
</svg>
