<?xml version="1.0" encoding="UTF-8" standalone="no"?>
<!DOCTYPE svg PUBLIC "-//W3C//DTD SVG 1.1//EN"
 "http://www.w3.org/Graphics/SVG/1.1/DTD/svg11.dtd">
<!-- Generated by graphviz version 2.40.1 (20161225.0304)
 -->
<!-- Title: a_graph Pages: 1 -->
<svg width="2277pt" height="119pt"
 viewBox="0.00 0.00 2277.00 119.00" xmlns="http://www.w3.org/2000/svg" xmlns:xlink="http://www.w3.org/1999/xlink">
<g id="graph0" class="graph" transform="scale(1 1) rotate(0) translate(4 115)">
<title>a_graph</title>
<polygon fill="#ffffff" stroke="transparent" points="-4,4 -4,-115 2273,-115 2273,4 -4,4"/>
<!-- T34291 -->
<g id="node1" class="node">
<title>T34291</title>
<polygon fill="none" stroke="#0058ad" points="895,-81.5 895,-110.5 2034,-110.5 2034,-81.5 895,-81.5"/>
<text text-anchor="middle" x="1400.5" y="-92.3" font-family="Times,serif" font-size="14.00" fill="#0058ad">r 172 [1 2 3 4 5 7 8 6 12 9 10 13 14 11 15 16 18 19 17 20 21 23 26 24 25 27 28 33 30 31 34 35 36 37 38 32 40 41 39 42 43 46 47 48 44 45 49 50 51 52 53 54 56 57 60 61 55 58 59]</text>
<polyline fill="none" stroke="#0058ad" points="1906,-81.5 1906,-110.5 "/>
<text text-anchor="middle" x="1938" y="-92.3" font-family="Times,serif" font-size="14.00" fill="#0058ad">a 173 13</text>
<polyline fill="none" stroke="#0058ad" points="1970,-81.5 1970,-110.5 "/>
<text text-anchor="middle" x="2002" y="-92.3" font-family="Times,serif" font-size="14.00" fill="#0058ad">a 173 14</text>
</g>
<!-- T34292 -->
<g id="node2" class="node">
<title>T34292</title>
<polygon fill="none" stroke="#0058ad" points="0,-.5 0,-29.5 2269,-29.5 2269,-.5 0,-.5"/>
<text text-anchor="middle" x="505.5" y="-11.3" font-family="Times,serif" font-size="14.00" fill="#0058ad">r 172 [1 2 3 4 5 7 8 6 12 9 10 13 14 11 15 16 18 19 17 20 21 23 26 24 25 27 28 33 30 31 34 35 36 37 38 32 40 41 39 42 43 46 47 48 44 45 49 50 51 52 53 54 56 57 60 61 55 58 59]</text>
<polyline fill="none" stroke="#0058ad" points="1011,-.5 1011,-29.5 "/>
<text text-anchor="middle" x="1102.5" y="-11.3" font-family="Times,serif" font-size="14.00" fill="#0058ad">r 173 [2 3 4 1 5 6 7 8 9 11 10]</text>
<polyline fill="none" stroke="#0058ad" points="1194,-.5 1194,-29.5 "/>
<text text-anchor="middle" x="1699.5" y="-11.3" font-family="Times,serif" font-size="14.00" fill="#0058ad">r 172 [1 2 3 4 5 7 8 6 12 9 10 13 14 11 15 16 18 19 17 20 21 23 26 24 25 27 28 33 30 31 34 35 36 37 38 32 40 41 39 42 43 46 47 48 44 45 49 50 51 52 53 54 56 57 60 61 55 58 59]</text>
<polyline fill="none" stroke="#0058ad" points="2205,-.5 2205,-29.5 "/>
<text text-anchor="middle" x="2237" y="-11.3" font-family="Times,serif" font-size="14.00" fill="#0058ad">a 172 63</text>
</g>
<!-- T34291&#45;&gt;T34292 -->
<g id="edge1" class="edge">
<title>T34291:f0&#45;&gt;T34292:f3</title>
<path fill="none" stroke="#5b00c0" d="M1400.5,-81C1400.5,2.8767 1692.7912,-53.3045 1776.5,-48 1788.1656,-47.2608 2162.0765,-43.5567 2227.713,-33.1867"/>
<polygon fill="#5b00c0" stroke="#5b00c0" points="2229.075,-36.4242 2237.5,-30 2226.9077,-29.7681 2229.075,-36.4242"/>
<text text-anchor="middle" x="1784" y="-51.8" font-family="Times,serif" font-size="14.00" fill="#5b00c0">rw</text>
</g>
<!-- T34292&#45;&gt;T34291 -->
<g id="edge2" class="edge">
<title>T34292:f1&#45;&gt;T34291:f1</title>
<path fill="none" stroke="#5b00c0" d="M1102.5,-30C1102.5,-49.1454 1772.5003,-45.642 1791.5,-48 1854.3156,-55.7957 1929.732,-18.506 1937.7928,-70.9678"/>
<polygon fill="#5b00c0" stroke="#5b00c0" points="1934.3054,-71.2709 1938.5,-81 1941.288,-70.7786 1934.3054,-71.2709"/>
<text text-anchor="middle" x="1942" y="-51.8" font-family="Times,serif" font-size="14.00" fill="#5b00c0">rw</text>
</g>
</g>
</svg>
