<?xml version="1.0" encoding="UTF-8" standalone="no"?>
<!DOCTYPE svg PUBLIC "-//W3C//DTD SVG 1.1//EN"
 "http://www.w3.org/Graphics/SVG/1.1/DTD/svg11.dtd">
<!-- Generated by graphviz version 2.40.1 (20161225.0304)
 -->
<!-- Title: a_graph Pages: 1 -->
<svg width="5561pt" height="200pt"
 viewBox="0.00 0.00 5560.50 200.00" xmlns="http://www.w3.org/2000/svg" xmlns:xlink="http://www.w3.org/1999/xlink">
<g id="graph0" class="graph" transform="scale(1 1) rotate(0) translate(4 196)">
<title>a_graph</title>
<polygon fill="#ffffff" stroke="transparent" points="-4,4 -4,-196 5556.5,-196 5556.5,4 -4,4"/>
<!-- T4027 -->
<g id="node1" class="node">
<title>T4027</title>
<polygon fill="none" stroke="#0058ad" points="3758.5,-162.5 3758.5,-191.5 5552.5,-191.5 5552.5,-162.5 3758.5,-162.5"/>
<text text-anchor="middle" x="3783.5" y="-173.3" font-family="Times,serif" font-size="14.00" fill="#0058ad">a 26 6</text>
<polyline fill="none" stroke="#0058ad" points="3808.5,-162.5 3808.5,-191.5 "/>
<text text-anchor="middle" x="3837" y="-173.3" font-family="Times,serif" font-size="14.00" fill="#0058ad">a 22 62</text>
<polyline fill="none" stroke="#0058ad" points="3865.5,-162.5 3865.5,-191.5 "/>
<text text-anchor="middle" x="4709" y="-173.3" font-family="Times,serif" font-size="14.00" fill="#0058ad">r 25 [1 2 3 5 6 7 8 9 10 12 13 14 15 16 17 18 19 21 22 23 24 25 26 27 28 29 30 20 32 33 31 38 34 35 36 37 41 42 39 40 43 44 45 46 47 49 50 51 52 53 54 56 57 58 59 60 63 62 64 65 66 68 69 67 70 71 73 72 74 75 76 77 81 78 79 80 83 82 85 84 86 87 88 89 90 91 92 93 94 95 96 97 98 99 100 101 102]</text>
</g>
<!-- T4029 -->
<g id="node2" class="node">
<title>T4029</title>
<polygon fill="none" stroke="#0058ad" points="2451.5,-.5 2451.5,-29.5 4379.5,-29.5 4379.5,-.5 2451.5,-.5"/>
<text text-anchor="middle" x="2483.5" y="-11.3" font-family="Times,serif" font-size="14.00" fill="#0058ad">a 25 103</text>
<polyline fill="none" stroke="#0058ad" points="2515.5,-.5 2515.5,-29.5 "/>
<text text-anchor="middle" x="3371" y="-11.3" font-family="Times,serif" font-size="14.00" fill="#0058ad">r 25 [1 2 3 5 6 7 8 9 10 12 13 14 15 16 17 18 19 21 22 23 24 25 26 27 28 29 30 20 32 33 31 38 34 35 36 37 41 42 39 40 43 44 45 46 47 49 50 51 52 53 54 56 57 58 59 60 63 62 64 65 66 68 69 67 70 71 73 72 74 75 76 77 81 78 79 80 83 82 85 84 86 87 88 89 90 91 92 93 94 95 96 97 98 99 100 101 102 103]</text>
<polyline fill="none" stroke="#0058ad" points="4226.5,-.5 4226.5,-29.5 "/>
<text text-anchor="middle" x="4258.5" y="-11.3" font-family="Times,serif" font-size="14.00" fill="#0058ad">a 25 104</text>
<polyline fill="none" stroke="#0058ad" points="4290.5,-.5 4290.5,-29.5 "/>
<text text-anchor="middle" x="4335" y="-11.3" font-family="Times,serif" font-size="14.00" fill="#0058ad">r 26 [1 2 3 4]</text>
</g>
<!-- T4027&#45;&gt;T4029 -->
<g id="edge2" class="edge">
<title>T4027:f2&#45;&gt;T4029:f0</title>
<path fill="none" stroke="#5b00c0" d="M4709.5,-162C4709.5,5.8306 4515.2358,-74.4338 4349.5,-48 4325.0054,-44.0933 2638.3091,-54.9163 2493.4039,-33.1352"/>
<polygon fill="#5b00c0" stroke="#5b00c0" points="2494.09,-29.6813 2483.5,-30 2491.9774,-36.3549 2494.09,-29.6813"/>
<text text-anchor="middle" x="4708" y="-92.3" font-family="Times,serif" font-size="14.00" fill="#5b00c0">rw</text>
</g>
<!-- T4031 -->
<g id="node3" class="node">
<title>T4031</title>
<polygon fill="none" stroke="#0058ad" points="0,-81.5 0,-110.5 4299,-110.5 4299,-81.5 0,-81.5"/>
<text text-anchor="middle" x="843.5" y="-92.3" font-family="Times,serif" font-size="14.00" fill="#0058ad">r 25 [1 2 3 5 6 7 8 9 10 12 13 14 15 16 17 18 19 21 22 23 24 25 26 27 28 29 30 20 32 33 31 38 34 35 36 37 41 42 39 40 43 44 45 46 47 49 50 51 52 53 54 56 57 58 59 60 63 62 64 65 66 68 69 67 70 71 73 72 74 75 76 77 81 78 79 80 83 82 85 84 86 87 88 89 90 91 92 93 94 95 96 97 98 99 100 101 102]</text>
<polyline fill="none" stroke="#0058ad" points="1687,-81.5 1687,-110.5 "/>
<text text-anchor="middle" x="2530.5" y="-92.3" font-family="Times,serif" font-size="14.00" fill="#0058ad">r 25 [1 2 3 5 6 7 8 9 10 12 13 14 15 16 17 18 19 21 22 23 24 25 26 27 28 29 30 20 32 33 31 38 34 35 36 37 41 42 39 40 43 44 45 46 47 49 50 51 52 53 54 56 57 58 59 60 63 62 64 65 66 68 69 67 70 71 73 72 74 75 76 77 81 78 79 80 83 82 85 84 86 87 88 89 90 91 92 93 94 95 96 97 98 99 100 101 102]</text>
<polyline fill="none" stroke="#0058ad" points="3374,-81.5 3374,-110.5 "/>
<text text-anchor="middle" x="3836.5" y="-92.3" font-family="Times,serif" font-size="14.00" fill="#0058ad">r 22 [1 2 4 5 6 7 8 9 10 11 12 13 14 15 16 17 18 20 21 22 24 25 26 29 33 30 31 27 28 34 35 36 38 37 39 40 41 42 43 46 47 49 50 51 52 53 55 54 56 57 58 60 61 62]</text>
</g>
<!-- T4027&#45;&gt;T4031 -->
<g id="edge1" class="edge">
<title>T4027:f1&#45;&gt;T4031:f2</title>
<path fill="none" stroke="#c000a5" d="M3836.5,-162C3836.5,-143.2292 3836.5,-136.1168 3836.5,-121.3535"/>
<polygon fill="#c000a5" stroke="#c000a5" points="3840.0001,-121 3836.5,-111 3833.0001,-121 3840.0001,-121"/>
<text text-anchor="middle" x="3844" y="-132.8" font-family="Times,serif" font-size="14.00" fill="#c000a5">wr</text>
</g>
<!-- T4029&#45;&gt;T4027 -->
<g id="edge3" class="edge">
<title>T4029:f3&#45;&gt;T4027:f0</title>
<path fill="none" stroke="#5b00c0" d="M4335.5,-30C4335.5,-67.9473 4338.1745,-87.3478 4308.5,-111 4287.3301,-127.8736 3857.2092,-132.0873 3791.8058,-155.7359"/>
<polygon fill="#5b00c0" stroke="#5b00c0" points="3789.3765,-153.1843 3783.5,-162 3793.5915,-158.7731 3789.3765,-153.1843"/>
<text text-anchor="middle" x="4338" y="-92.3" font-family="Times,serif" font-size="14.00" fill="#5b00c0">rw</text>
</g>
<!-- T4031&#45;&gt;T4029 -->
<g id="edge4" class="edge">
<title>T4031:f0&#45;&gt;T4029:f0</title>
<path fill="none" stroke="#5b00c0" d="M843.5,-81C843.5,-37.8674 2298.8087,-16.5263 2441.2882,-15.0791"/>
<polygon fill="#5b00c0" stroke="#5b00c0" points="2441.5274,-18.5774 2451.5,-15 2441.4732,-11.5776 2441.5274,-18.5774"/>
<text text-anchor="middle" x="1151" y="-51.8" font-family="Times,serif" font-size="14.00" fill="#5b00c0">rw</text>
</g>
</g>
</svg>
