<?xml version="1.0" encoding="UTF-8" standalone="no"?>
<!DOCTYPE svg PUBLIC "-//W3C//DTD SVG 1.1//EN"
 "http://www.w3.org/Graphics/SVG/1.1/DTD/svg11.dtd">
<!-- Generated by graphviz version 2.40.1 (20161225.0304)
 -->
<!-- Title: a_graph Pages: 1 -->
<svg width="3628pt" height="119pt"
 viewBox="0.00 0.00 3627.50 119.00" xmlns="http://www.w3.org/2000/svg" xmlns:xlink="http://www.w3.org/1999/xlink">
<g id="graph0" class="graph" transform="scale(1 1) rotate(0) translate(4 115)">
<title>a_graph</title>
<polygon fill="#ffffff" stroke="transparent" points="-4,4 -4,-115 3623.5,-115 3623.5,4 -4,4"/>
<!-- T5613 -->
<g id="node1" class="node">
<title>T5613</title>
<polygon fill="none" stroke="#0058ad" points="1193.5,-81.5 1193.5,-110.5 3619.5,-110.5 3619.5,-81.5 1193.5,-81.5"/>
<text text-anchor="middle" x="1222" y="-92.3" font-family="Times,serif" font-size="14.00" fill="#0058ad">a 32 93</text>
<polyline fill="none" stroke="#0058ad" points="1250.5,-81.5 1250.5,-110.5 "/>
<text text-anchor="middle" x="1709.5" y="-92.3" font-family="Times,serif" font-size="14.00" fill="#0058ad">r 30 [1 2 3 4 5 6 7 8 9 10 11 12 13 14 15 16 17 18 19 20 21 22 23 24 25 26 27 28 29 30 31 32 33 34 35 36 37 39 40 41 42 43 44 45 46 47 49 50 52 53 54 55 56 57]</text>
<polyline fill="none" stroke="#0058ad" points="2168.5,-81.5 2168.5,-110.5 "/>
<text text-anchor="middle" x="2869" y="-92.3" font-family="Times,serif" font-size="14.00" fill="#0058ad">r 32 [1 2 3 4 6 7 5 8 9 10 11 12 13 14 15 17 19 16 20 21 22 23 18 26 24 25 27 28 29 30 31 32 34 35 36 33 37 38 39 41 40 42 43 44 45 46 49 51 52 53 54 55 56 57 62 63 64 67 68 69 70 60 61 71 72 73 74 75 76 77 78 79 80 81 82 84 83 86 87 88 92 93]</text>
<polyline fill="none" stroke="#0058ad" points="3569.5,-81.5 3569.5,-110.5 "/>
<text text-anchor="middle" x="3594.5" y="-92.3" font-family="Times,serif" font-size="14.00" fill="#0058ad">a 34 2</text>
</g>
<!-- T5611 -->
<g id="node2" class="node">
<title>T5611</title>
<polygon fill="none" stroke="#0058ad" points="0,-.5 0,-29.5 1853,-29.5 1853,-.5 0,-.5"/>
<text text-anchor="middle" x="177.5" y="-11.3" font-family="Times,serif" font-size="14.00" fill="#0058ad">r 33 [2 4 9 10 11 12 13 14 15 18 17 19 20 21 23 24 25 26 28]</text>
<polyline fill="none" stroke="#0058ad" points="355,-.5 355,-29.5 "/>
<text text-anchor="middle" x="1047" y="-11.3" font-family="Times,serif" font-size="14.00" fill="#0058ad">r 32 [1 2 3 4 6 7 5 8 9 10 11 12 13 14 15 17 19 16 20 21 22 23 18 26 24 25 27 28 29 30 31 32 34 35 36 33 37 38 39 41 40 42 43 44 45 46 49 51 52 53 54 55 56 57 62 63 64 67 68 69 70 60 61 71 72 73 74 75 76 77 78 79 80 81 82 84 83 86 87 88 92]</text>
<polyline fill="none" stroke="#0058ad" points="1739,-.5 1739,-29.5 "/>
<text text-anchor="middle" x="1767.5" y="-11.3" font-family="Times,serif" font-size="14.00" fill="#0058ad">a 30 59</text>
<polyline fill="none" stroke="#0058ad" points="1796,-.5 1796,-29.5 "/>
<text text-anchor="middle" x="1824.5" y="-11.3" font-family="Times,serif" font-size="14.00" fill="#0058ad">a 30 60</text>
</g>
<!-- T5613&#45;&gt;T5611 -->
<g id="edge1" class="edge">
<title>T5613:f1&#45;&gt;T5611:f2</title>
<path fill="none" stroke="#5b00c0" d="M1709.5,-81C1709.5,-50.5625 1755.1037,-60.9937 1765.4357,-39.8155"/>
<polygon fill="#5b00c0" stroke="#5b00c0" points="1768.867,-40.5063 1767.5,-30 1762.0168,-39.0656 1768.867,-40.5063"/>
<text text-anchor="middle" x="1766" y="-51.8" font-family="Times,serif" font-size="14.00" fill="#5b00c0">rw</text>
</g>
<!-- T5611&#45;&gt;T5613 -->
<g id="edge2" class="edge">
<title>T5611:f1&#45;&gt;T5613:f0</title>
<path fill="none" stroke="#5b00c0" d="M1047.5,-30C1047.5,-62.6848 1140.5257,-90.9783 1183.3301,-95.4003"/>
<polygon fill="#5b00c0" stroke="#5b00c0" points="1183.3113,-98.9052 1193.5,-96 1183.7234,-91.9173 1183.3113,-98.9052"/>
<text text-anchor="middle" x="1083" y="-51.8" font-family="Times,serif" font-size="14.00" fill="#5b00c0">rw</text>
</g>
</g>
</svg>
