<?xml version="1.0" encoding="UTF-8" standalone="no"?>
<!DOCTYPE svg PUBLIC "-//W3C//DTD SVG 1.1//EN"
 "http://www.w3.org/Graphics/SVG/1.1/DTD/svg11.dtd">
<!-- Generated by graphviz version 2.40.1 (20161225.0304)
 -->
<!-- Title: a_graph Pages: 1 -->
<svg width="4709pt" height="119pt"
 viewBox="0.00 0.00 4709.00 119.00" xmlns="http://www.w3.org/2000/svg" xmlns:xlink="http://www.w3.org/1999/xlink">
<g id="graph0" class="graph" transform="scale(1 1) rotate(0) translate(4 115)">
<title>a_graph</title>
<polygon fill="#ffffff" stroke="transparent" points="-4,4 -4,-115 4705,-115 4705,4 -4,4"/>
<!-- T2329 -->
<g id="node1" class="node">
<title>T2329</title>
<polygon fill="none" stroke="#0058ad" points="2251,-81.5 2251,-110.5 4701,-110.5 4701,-81.5 2251,-81.5"/>
<text text-anchor="middle" x="2276" y="-92.3" font-family="Times,serif" font-size="14.00" fill="#0058ad">a 6 89</text>
<polyline fill="none" stroke="#0058ad" points="2301,-81.5 2301,-110.5 "/>
<text text-anchor="middle" x="2798" y="-92.3" font-family="Times,serif" font-size="14.00" fill="#0058ad">r 17 [2 3 4 5 7 8 9 10 11 12 13 14 6 15 16 17 18 19 21 22 23 24 25 20 26 27 28 29 30 34 31 35 33 37 38 40 42 43 41 44 45 46 47 48 49 50 51 52 53 54 55 56 57 58 59 60 61 62]</text>
<polyline fill="none" stroke="#0058ad" points="3295,-81.5 3295,-110.5 "/>
<text text-anchor="middle" x="3323.5" y="-92.3" font-family="Times,serif" font-size="14.00" fill="#0058ad">a 14 59</text>
<polyline fill="none" stroke="#0058ad" points="3352,-81.5 3352,-110.5 "/>
<text text-anchor="middle" x="4026.5" y="-92.3" font-family="Times,serif" font-size="14.00" fill="#0058ad">r 6 [2 3 4 5 6 7 8 9 10 11 12 13 14 15 16 17 18 20 21 22 23 24 25 26 27 28 29 30 31 32 33 37 38 39 41 42 43 45 46 47 49 50 51 52 53 54 55 57 56 58 59 60 62 63 64 65 66 67 68 69 70 72 73 74 75 76 77 78 79 80 81 82 83 85 84 86 87 88 89]</text>
</g>
<!-- T2330 -->
<g id="node2" class="node">
<title>T2330</title>
<polygon fill="none" stroke="#0058ad" points="0,-.5 0,-29.5 3700,-29.5 3700,-.5 0,-.5"/>
<text text-anchor="middle" x="896.5" y="-11.3" font-family="Times,serif" font-size="14.00" fill="#0058ad">r 15 [1 2 3 4 5 6 7 10 11 12 14 13 15 8 9 16 17 19 18 20 21 22 23 24 27 28 26 29 25 30 31 33 34 32 35 36 37 38 39 40 42 43 49 50 51 52 54 53 55 56 57 61 62 63 64 65 68 66 67 69 70 71 73 72 74 77 76 78 75 79 82 80 81 83 85 87 88 89 90 91 92 93 94 95 96 97 98 99 100 101 103 104 106 107 108 109 110 111 113 112]</text>
<polyline fill="none" stroke="#0058ad" points="1793,-.5 1793,-29.5 "/>
<text text-anchor="middle" x="2290" y="-11.3" font-family="Times,serif" font-size="14.00" fill="#0058ad">r 17 [2 3 4 5 7 8 9 10 11 12 13 14 6 15 16 17 18 19 21 22 23 24 25 20 26 27 28 29 30 34 31 35 33 37 38 40 42 43 41 44 45 46 47 48 49 50 51 52 53 54 55 56 57 58 59 60 61 62]</text>
<polyline fill="none" stroke="#0058ad" points="2787,-.5 2787,-29.5 "/>
<text text-anchor="middle" x="2815.5" y="-11.3" font-family="Times,serif" font-size="14.00" fill="#0058ad">a 17 64</text>
<polyline fill="none" stroke="#0058ad" points="2844,-.5 2844,-29.5 "/>
<text text-anchor="middle" x="3272" y="-11.3" font-family="Times,serif" font-size="14.00" fill="#0058ad">r 14 [1 2 4 5 6 7 8 9 10 11 12 13 14 15 16 18 21 22 23 25 26 28 29 30 31 32 33 34 35 36 37 38 39 41 42 43 44 45 46 47 48 49 51 53 52 54 55 56 57 58]</text>
</g>
<!-- T2329&#45;&gt;T2330 -->
<g id="edge1" class="edge">
<title>T2329:f1&#45;&gt;T2330:f2</title>
<path fill="none" stroke="#5b00c0" d="M2798,-81C2798,-60.9066 2810.5782,-55.5653 2814.7055,-40.3125"/>
<polygon fill="#5b00c0" stroke="#5b00c0" points="2818.2271,-40.3581 2816,-30 2811.2817,-39.4862 2818.2271,-40.3581"/>
<text text-anchor="middle" x="2819.5" y="-51.8" font-family="Times,serif" font-size="14.00" fill="#5b00c0">rw</text>
</g>
<!-- T2330&#45;&gt;T2329 -->
<g id="edge2" class="edge">
<title>T2330:f3&#45;&gt;T2329:f2</title>
<path fill="none" stroke="#5b00c0" d="M3272,-30C3272,-58.1738 3311.3963,-51.4575 3320.9376,-71.1814"/>
<polygon fill="#5b00c0" stroke="#5b00c0" points="3317.519,-71.9331 3323,-81 3324.3695,-70.4941 3317.519,-71.9331"/>
<text text-anchor="middle" x="3321.5" y="-51.8" font-family="Times,serif" font-size="14.00" fill="#5b00c0">rw</text>
</g>
</g>
</svg>
