<?xml version="1.0" encoding="UTF-8" standalone="no"?>
<!DOCTYPE svg PUBLIC "-//W3C//DTD SVG 1.1//EN"
 "http://www.w3.org/Graphics/SVG/1.1/DTD/svg11.dtd">
<!-- Generated by graphviz version 2.40.1 (20161225.0304)
 -->
<!-- Title: a_graph Pages: 1 -->
<svg width="1882pt" height="119pt"
 viewBox="0.00 0.00 1882.00 119.00" xmlns="http://www.w3.org/2000/svg" xmlns:xlink="http://www.w3.org/1999/xlink">
<g id="graph0" class="graph" transform="scale(1 1) rotate(0) translate(4 115)">
<title>a_graph</title>
<polygon fill="#ffffff" stroke="transparent" points="-4,4 -4,-115 1878,-115 1878,4 -4,4"/>
<!-- T4515 -->
<g id="node1" class="node">
<title>T4515</title>
<polygon fill="none" stroke="#0058ad" points="0,-81.5 0,-110.5 1653,-110.5 1653,-81.5 0,-81.5"/>
<text text-anchor="middle" x="730" y="-92.3" font-family="Times,serif" font-size="14.00" fill="#0058ad">r 26 [1 2 3 4 6 7 8 9 10 12 13 14 11 15 17 18 19 20 21 16 22 23 24 25 26 27 31 32 33 34 35 36 37 38 39 40 41 42 43 44 45 46 47 48 49 50 51 52 54 55 57 56 58 59 60 61 62 63 64 65 66 68 69 67 70 71 72 73 74 75 76 77 78 79 80 81 82 84 83 85 86 87 89 88 90]</text>
<polyline fill="none" stroke="#0058ad" points="1460,-81.5 1460,-110.5 "/>
<text text-anchor="middle" x="1488.5" y="-92.3" font-family="Times,serif" font-size="14.00" fill="#0058ad">a 26 91</text>
<polyline fill="none" stroke="#0058ad" points="1517,-81.5 1517,-110.5 "/>
<text text-anchor="middle" x="1545.5" y="-92.3" font-family="Times,serif" font-size="14.00" fill="#0058ad">a 5 102</text>
<polyline fill="none" stroke="#0058ad" points="1574,-81.5 1574,-110.5 "/>
<text text-anchor="middle" x="1613.5" y="-92.3" font-family="Times,serif" font-size="14.00" fill="#0058ad">r 28 [4 1 2]</text>
</g>
<!-- T4513 -->
<g id="node2" class="node">
<title>T4513</title>
<polygon fill="none" stroke="#0058ad" points="285,-.5 285,-29.5 1874,-29.5 1874,-.5 285,-.5"/>
<text text-anchor="middle" x="324.5" y="-11.3" font-family="Times,serif" font-size="14.00" fill="#0058ad">r 28 [4 1 2]</text>
<polyline fill="none" stroke="#0058ad" points="364,-.5 364,-29.5 "/>
<text text-anchor="middle" x="1094" y="-11.3" font-family="Times,serif" font-size="14.00" fill="#0058ad">r 26 [1 2 3 4 6 7 8 9 10 12 13 14 11 15 17 18 19 20 21 16 22 23 24 25 26 27 31 32 33 34 35 36 37 38 39 40 41 42 43 44 45 46 47 48 49 50 51 52 54 55 57 56 58 59 60 61 62 63 64 65 66 68 69 67 70 71 72 73 74 75 76 77 78 79 80 81 82 84 83 85 86 87 89 88 90]</text>
<polyline fill="none" stroke="#0058ad" points="1824,-.5 1824,-29.5 "/>
<text text-anchor="middle" x="1849" y="-11.3" font-family="Times,serif" font-size="14.00" fill="#0058ad">a 28 3</text>
</g>
<!-- T4515&#45;&gt;T4513 -->
<g id="edge1" class="edge">
<title>T4515:f3&#45;&gt;T4513:f2</title>
<path fill="none" stroke="#5b00c0" d="M1653.5,-96C1696.0477,-96 1827.8016,-78.8231 1847.1244,-39.8071"/>
<polygon fill="#5b00c0" stroke="#5b00c0" points="1850.5473,-40.5429 1849.5,-30 1843.7441,-38.8949 1850.5473,-40.5429"/>
<text text-anchor="middle" x="1846" y="-51.8" font-family="Times,serif" font-size="14.00" fill="#5b00c0">rw</text>
</g>
<!-- T4513&#45;&gt;T4515 -->
<g id="edge2" class="edge">
<title>T4513:f1&#45;&gt;T4515:f1</title>
<path fill="none" stroke="#5b00c0" d="M1094.5,-30C1094.5,-202.9509 1472.5055,83.3807 1488.0097,-70.7324"/>
<polygon fill="#5b00c0" stroke="#5b00c0" points="1484.5269,-71.1784 1488.5,-81 1491.5189,-70.8444 1484.5269,-71.1784"/>
<text text-anchor="middle" x="1494" y="-51.8" font-family="Times,serif" font-size="14.00" fill="#5b00c0">rw</text>
</g>
</g>
</svg>
