<?xml version="1.0" encoding="UTF-8" standalone="no"?>
<!DOCTYPE svg PUBLIC "-//W3C//DTD SVG 1.1//EN"
 "http://www.w3.org/Graphics/SVG/1.1/DTD/svg11.dtd">
<!-- Generated by graphviz version 2.40.1 (20161225.0304)
 -->
<!-- Title: a_graph Pages: 1 -->
<svg width="375pt" height="119pt"
 viewBox="0.00 0.00 374.50 119.00" xmlns="http://www.w3.org/2000/svg" xmlns:xlink="http://www.w3.org/1999/xlink">
<g id="graph0" class="graph" transform="scale(1 1) rotate(0) translate(4 115)">
<title>a_graph</title>
<polygon fill="#ffffff" stroke="transparent" points="-4,4 -4,-115 370.5,-115 370.5,4 -4,4"/>
<!-- T25421 -->
<g id="node1" class="node">
<title>T25421</title>
<polygon fill="none" stroke="#0058ad" points="0,-81.5 0,-110.5 280,-110.5 280,-81.5 0,-81.5"/>
<text text-anchor="middle" x="28.5" y="-92.3" font-family="Times,serif" font-size="14.00" fill="#0058ad">a 127 1</text>
<polyline fill="none" stroke="#0058ad" points="57,-81.5 57,-110.5 "/>
<text text-anchor="middle" x="89.5" y="-92.3" font-family="Times,serif" font-size="14.00" fill="#0058ad">r 127 [1]</text>
<polyline fill="none" stroke="#0058ad" points="122,-81.5 122,-110.5 "/>
<text text-anchor="middle" x="201" y="-92.3" font-family="Times,serif" font-size="14.00" fill="#0058ad">r 126 [12 13 14 15 16 17]</text>
</g>
<!-- T25423 -->
<g id="node2" class="node">
<title>T25423</title>
<polygon fill="none" stroke="#0058ad" points="69.5,-.5 69.5,-29.5 366.5,-29.5 366.5,-.5 69.5,-.5"/>
<text text-anchor="middle" x="98.5" y="-11.3" font-family="Times,serif" font-size="14.00" fill="#0058ad">r 127 []</text>
<polyline fill="none" stroke="#0058ad" points="127.5,-.5 127.5,-29.5 "/>
<text text-anchor="middle" x="159.5" y="-11.3" font-family="Times,serif" font-size="14.00" fill="#0058ad">a 126 18</text>
<polyline fill="none" stroke="#0058ad" points="191.5,-.5 191.5,-29.5 "/>
<text text-anchor="middle" x="279" y="-11.3" font-family="Times,serif" font-size="14.00" fill="#0058ad">r 126 [12 13 14 15 16 17 18]</text>
</g>
<!-- T25421&#45;&gt;T25423 -->
<g id="edge1" class="edge">
<title>T25421:f2&#45;&gt;T25423:f1</title>
<path fill="none" stroke="#5b00c0" d="M201,-81C201,-55.5362 169.4154,-57.9653 161.0257,-39.9106"/>
<polygon fill="#5b00c0" stroke="#5b00c0" points="164.4318,-39.0965 159,-30 157.5736,-40.4984 164.4318,-39.0965"/>
<text text-anchor="middle" x="198.5" y="-51.8" font-family="Times,serif" font-size="14.00" fill="#5b00c0">rw</text>
</g>
<!-- T25423&#45;&gt;T25421 -->
<g id="edge2" class="edge">
<title>T25423:f0&#45;&gt;T25421:f0</title>
<path fill="none" stroke="#5b00c0" d="M69,-15C37.8398,-15 29.5308,-40.6216 28.2052,-70.9972"/>
<polygon fill="#5b00c0" stroke="#5b00c0" points="24.7059,-70.9303 28,-81 31.7044,-71.0739 24.7059,-70.9303"/>
<text text-anchor="middle" x="38.5" y="-51.8" font-family="Times,serif" font-size="14.00" fill="#5b00c0">rw</text>
</g>
</g>
</svg>
