<?xml version="1.0" encoding="UTF-8" standalone="no"?>
<!DOCTYPE svg PUBLIC "-//W3C//DTD SVG 1.1//EN"
 "http://www.w3.org/Graphics/SVG/1.1/DTD/svg11.dtd">
<!-- Generated by graphviz version 2.40.1 (20161225.0304)
 -->
<!-- Title: a_graph Pages: 1 -->
<svg width="1438pt" height="119pt"
 viewBox="0.00 0.00 1438.00 119.00" xmlns="http://www.w3.org/2000/svg" xmlns:xlink="http://www.w3.org/1999/xlink">
<g id="graph0" class="graph" transform="scale(1 1) rotate(0) translate(4 115)">
<title>a_graph</title>
<polygon fill="#ffffff" stroke="transparent" points="-4,4 -4,-115 1434,-115 1434,4 -4,4"/>
<!-- T5716 -->
<g id="node1" class="node">
<title>T5716</title>
<polygon fill="none" stroke="#0058ad" points="69,-81.5 69,-110.5 285,-110.5 285,-81.5 69,-81.5"/>
<text text-anchor="middle" x="97.5" y="-92.3" font-family="Times,serif" font-size="14.00" fill="#0058ad">a 33 48</text>
<polyline fill="none" stroke="#0058ad" points="126,-81.5 126,-110.5 "/>
<text text-anchor="middle" x="151.5" y="-92.3" font-family="Times,serif" font-size="14.00" fill="#0058ad">r 35 []</text>
<polyline fill="none" stroke="#0058ad" points="177,-81.5 177,-110.5 "/>
<text text-anchor="middle" x="202.5" y="-92.3" font-family="Times,serif" font-size="14.00" fill="#0058ad">r 35 []</text>
<polyline fill="none" stroke="#0058ad" points="228,-81.5 228,-110.5 "/>
<text text-anchor="middle" x="256.5" y="-92.3" font-family="Times,serif" font-size="14.00" fill="#0058ad">a 33 49</text>
</g>
<!-- T5719 -->
<g id="node2" class="node">
<title>T5719</title>
<polygon fill="none" stroke="#0058ad" points="0,-.5 0,-29.5 1430,-29.5 1430,-.5 0,-.5"/>
<text text-anchor="middle" x="25" y="-11.3" font-family="Times,serif" font-size="14.00" fill="#0058ad">a 35 1</text>
<polyline fill="none" stroke="#0058ad" points="50,-.5 50,-29.5 "/>
<text text-anchor="middle" x="382.5" y="-11.3" font-family="Times,serif" font-size="14.00" fill="#0058ad">r 33 [2 4 9 10 11 12 13 14 15 18 17 19 20 21 23 24 25 26 28 27 30 31 32 33 34 36 37 35 38 40 41 42 39 43 44 45 47]</text>
<polyline fill="none" stroke="#0058ad" points="715,-.5 715,-29.5 "/>
<text text-anchor="middle" x="740" y="-11.3" font-family="Times,serif" font-size="14.00" fill="#0058ad">a 35 2</text>
<polyline fill="none" stroke="#0058ad" points="765,-.5 765,-29.5 "/>
<text text-anchor="middle" x="1097.5" y="-11.3" font-family="Times,serif" font-size="14.00" fill="#0058ad">r 33 [2 4 9 10 11 12 13 14 15 18 17 19 20 21 23 24 25 26 28 27 30 31 32 33 34 36 37 35 38 40 41 42 39 43 44 45 47]</text>
</g>
<!-- T5716&#45;&gt;T5719 -->
<g id="edge1" class="edge">
<title>T5716:f1&#45;&gt;T5719:f0</title>
<path fill="none" stroke="#5b00c0" d="M151,-81C151,-24.4804 40.7188,-81.9533 26.5028,-40.1281"/>
<polygon fill="#5b00c0" stroke="#5b00c0" points="29.9299,-39.378 25,-30 23.0057,-40.4054 29.9299,-39.378"/>
<text text-anchor="middle" x="152.5" y="-51.8" font-family="Times,serif" font-size="14.00" fill="#5b00c0">rw</text>
</g>
<!-- T5719&#45;&gt;T5716 -->
<g id="edge2" class="edge">
<title>T5719:f1&#45;&gt;T5716:f0</title>
<path fill="none" stroke="#5b00c0" d="M382,-30C382,-44.3884 153.9469,-60.9737 105.842,-75.8255"/>
<polygon fill="#5b00c0" stroke="#5b00c0" points="103.8629,-72.9283 97,-81 107.3985,-78.9698 103.8629,-72.9283"/>
<text text-anchor="middle" x="304.5" y="-51.8" font-family="Times,serif" font-size="14.00" fill="#5b00c0">rw</text>
</g>
</g>
</svg>
