<?xml version="1.0" encoding="UTF-8" standalone="no"?>
<!DOCTYPE svg PUBLIC "-//W3C//DTD SVG 1.1//EN"
 "http://www.w3.org/Graphics/SVG/1.1/DTD/svg11.dtd">
<!-- Generated by graphviz version 2.40.1 (20161225.0304)
 -->
<!-- Title: a_graph Pages: 1 -->
<svg width="2920pt" height="119pt"
 viewBox="0.00 0.00 2920.00 119.00" xmlns="http://www.w3.org/2000/svg" xmlns:xlink="http://www.w3.org/1999/xlink">
<g id="graph0" class="graph" transform="scale(1 1) rotate(0) translate(4 115)">
<title>a_graph</title>
<polygon fill="#ffffff" stroke="transparent" points="-4,4 -4,-115 2916,-115 2916,4 -4,4"/>
<!-- T31603 -->
<g id="node1" class="node">
<title>T31603</title>
<polygon fill="none" stroke="#0058ad" points="394.5,-81.5 394.5,-110.5 1707.5,-110.5 1707.5,-81.5 394.5,-81.5"/>
<text text-anchor="middle" x="948" y="-92.3" font-family="Times,serif" font-size="14.00" fill="#0058ad">r 158 [1 2 3 4 8 11 12 13 14 15 16 17 18 19 20 22 25 27 28 29 32 33 34 35 30 31 36 37 38 39 40 41 42 43 44 45 47 48 49 50 51 52 54 53 55 56 57 58 59 61 62 63 66 67 68 69 70 71 75 76 77 79 82]</text>
<polyline fill="none" stroke="#0058ad" points="1501.5,-81.5 1501.5,-110.5 "/>
<text text-anchor="middle" x="1533.5" y="-92.3" font-family="Times,serif" font-size="14.00" fill="#0058ad">a 155 73</text>
<polyline fill="none" stroke="#0058ad" points="1565.5,-81.5 1565.5,-110.5 "/>
<text text-anchor="middle" x="1601" y="-92.3" font-family="Times,serif" font-size="14.00" fill="#0058ad">a 128 112</text>
<polyline fill="none" stroke="#0058ad" points="1636.5,-81.5 1636.5,-110.5 "/>
<text text-anchor="middle" x="1672" y="-92.3" font-family="Times,serif" font-size="14.00" fill="#0058ad">a 157 107</text>
</g>
<!-- T31607 -->
<g id="node2" class="node">
<title>T31607</title>
<polygon fill="none" stroke="#0058ad" points="0,-.5 0,-29.5 2912,-29.5 2912,-.5 0,-.5"/>
<text text-anchor="middle" x="862" y="-11.3" font-family="Times,serif" font-size="14.00" fill="#0058ad">r 157 [1 2 3 4 5 6 7 8 9 10 11 12 13 14 16 17 18 19 20 21 22 23 24 25 26 27 28 29 30 31 32 33 34 35 36 37 39 40 41 42 43 44 45 46 47 49 48 50 51 52 53 54 55 56 59 60 57 58 61 62 63 64 65 66 67 68 69 70 71 72 74 75 76 80 81 82 83 84 85 86 87 88 89 90 91 92 93 94 95 96 97 98 101 102 103 104 105 106]</text>
<polyline fill="none" stroke="#0058ad" points="1724,-.5 1724,-29.5 "/>
<text text-anchor="middle" x="1756" y="-11.3" font-family="Times,serif" font-size="14.00" fill="#0058ad">a 158 78</text>
<polyline fill="none" stroke="#0058ad" points="1788,-.5 1788,-29.5 "/>
<text text-anchor="middle" x="2350" y="-11.3" font-family="Times,serif" font-size="14.00" fill="#0058ad">r 158 [1 2 3 4 8 11 12 13 14 15 16 17 18 19 20 22 25 27 28 29 32 33 34 35 30 31 36 37 38 39 40 41 42 43 44 45 47 48 49 50 51 52 54 53 55 56 57 58 59 61 62 63 66 67 68 69 70 71 75 76 77 79 82 78]</text>
</g>
<!-- T31603&#45;&gt;T31607 -->
<g id="edge1" class="edge">
<title>T31603:f0&#45;&gt;T31607:f1</title>
<path fill="none" stroke="#5b00c0" d="M948,-81C948,33.6792 1348.546,-55.1826 1463,-48 1477.528,-47.0883 1699.5531,-46.4565 1747.0862,-34.7341"/>
<polygon fill="#5b00c0" stroke="#5b00c0" points="1748.81,-37.7816 1756,-30 1745.5266,-31.5994 1748.81,-37.7816"/>
<text text-anchor="middle" x="1470.5" y="-51.8" font-family="Times,serif" font-size="14.00" fill="#5b00c0">rw</text>
</g>
<!-- T31607&#45;&gt;T31603 -->
<g id="edge2" class="edge">
<title>T31607:f0&#45;&gt;T31603:f3</title>
<path fill="none" stroke="#5b00c0" d="M862,-30C862,-47.1184 1460.9652,-46.3106 1478,-48 1561.464,-56.2775 1663.259,1.4059 1671.4689,-70.9827"/>
<polygon fill="#5b00c0" stroke="#5b00c0" points="1667.9754,-71.1994 1672,-81 1674.9656,-70.8287 1667.9754,-71.1994"/>
<text text-anchor="middle" x="1678.5" y="-51.8" font-family="Times,serif" font-size="14.00" fill="#5b00c0">rw</text>
</g>
</g>
</svg>
