<?xml version="1.0" encoding="UTF-8" standalone="no"?>
<!DOCTYPE svg PUBLIC "-//W3C//DTD SVG 1.1//EN"
 "http://www.w3.org/Graphics/SVG/1.1/DTD/svg11.dtd">
<!-- Generated by graphviz version 2.40.1 (20161225.0304)
 -->
<!-- Title: a_graph Pages: 1 -->
<svg width="3483pt" height="119pt"
 viewBox="0.00 0.00 3483.00 119.00" xmlns="http://www.w3.org/2000/svg" xmlns:xlink="http://www.w3.org/1999/xlink">
<g id="graph0" class="graph" transform="scale(1 1) rotate(0) translate(4 115)">
<title>a_graph</title>
<polygon fill="#ffffff" stroke="transparent" points="-4,4 -4,-115 3479,-115 3479,4 -4,4"/>
<!-- T27649 -->
<g id="node1" class="node">
<title>T27649</title>
<polygon fill="none" stroke="#0058ad" points="1064,-81.5 1064,-110.5 1487,-110.5 1487,-81.5 1064,-81.5"/>
<text text-anchor="middle" x="1096" y="-92.3" font-family="Times,serif" font-size="14.00" fill="#0058ad">a 132 10</text>
<polyline fill="none" stroke="#0058ad" points="1128,-81.5 1128,-110.5 "/>
<text text-anchor="middle" x="1240" y="-92.3" font-family="Times,serif" font-size="14.00" fill="#0058ad">r 140 [1 2 3 4 5 6 7 9 10 11 12 13 14]</text>
<polyline fill="none" stroke="#0058ad" points="1352,-81.5 1352,-110.5 "/>
<text text-anchor="middle" x="1384" y="-92.3" font-family="Times,serif" font-size="14.00" fill="#0058ad">a 132 11</text>
<polyline fill="none" stroke="#0058ad" points="1416,-81.5 1416,-110.5 "/>
<text text-anchor="middle" x="1451.5" y="-92.3" font-family="Times,serif" font-size="14.00" fill="#0058ad">a 138 109</text>
</g>
<!-- T27647 -->
<g id="node2" class="node">
<title>T27647</title>
<polygon fill="none" stroke="#0058ad" points="0,-.5 0,-29.5 3475,-29.5 3475,-.5 0,-.5"/>
<text text-anchor="middle" x="886" y="-11.3" font-family="Times,serif" font-size="14.00" fill="#0058ad">r 138 [1 2 3 4 5 6 7 8 9 10 11 13 12 14 18 19 21 22 23 24 25 27 26 28 29 30 31 32 33 34 35 36 37 38 39 40 41 42 43 44 45 46 47 48 49 50 51 52 53 54 55 56 57 58 59 60 61 62 65 66 67 69 70 71 73 72 74 75 76 77 78 79 80 81 82 83 84 85 86 88 87 89 90 91 92 93 94 95 96 97 98 99 101 102 103 105 104 106 107 108]</text>
<polyline fill="none" stroke="#0058ad" points="1772,-.5 1772,-29.5 "/>
<text text-anchor="middle" x="1804" y="-11.3" font-family="Times,serif" font-size="14.00" fill="#0058ad">a 140 15</text>
<polyline fill="none" stroke="#0058ad" points="1836,-.5 1836,-29.5 "/>
<text text-anchor="middle" x="2655.5" y="-11.3" font-family="Times,serif" font-size="14.00" fill="#0058ad">r 139 [1 2 3 6 4 5 7 8 9 10 11 13 14 12 15 16 17 18 19 20 21 22 23 24 25 26 28 29 31 33 34 35 36 37 38 39 40 41 42 43 45 44 46 47 48 49 50 51 52 53 54 55 56 57 58 59 60 61 63 62 64 65 66 67 68 69 70 71 72 73 74 75 77 78 76 79 80 81 82 83 84 85 88 89 90 91 93 92 94 95 96 97 98 99 100]</text>
</g>
<!-- T27649&#45;&gt;T27647 -->
<g id="edge1" class="edge">
<title>T27649:f1&#45;&gt;T27647:f1</title>
<path fill="none" stroke="#5b00c0" d="M1239.5,-81C1239.5,-20.9589 1311.0813,-56.6228 1370.5,-48 1392.3294,-44.8322 1736.8634,-52.5787 1795.9189,-35.5039"/>
<polygon fill="#5b00c0" stroke="#5b00c0" points="1797.9723,-38.345 1804.5,-30 1794.193,-32.4529 1797.9723,-38.345"/>
<text text-anchor="middle" x="1378" y="-51.8" font-family="Times,serif" font-size="14.00" fill="#5b00c0">rw</text>
</g>
<!-- T27647&#45;&gt;T27649 -->
<g id="edge2" class="edge">
<title>T27647:f0&#45;&gt;T27649:f3</title>
<path fill="none" stroke="#5b00c0" d="M885.5,-30C885.5,-57.7958 1358.5671,-41.1282 1385.5,-48 1413.5537,-55.1578 1443.5127,-49.8369 1450.1491,-71.0558"/>
<polygon fill="#5b00c0" stroke="#5b00c0" points="1446.6856,-71.5622 1451.5,-81 1453.6219,-70.6198 1446.6856,-71.5622"/>
<text text-anchor="middle" x="1453" y="-51.8" font-family="Times,serif" font-size="14.00" fill="#5b00c0">rw</text>
</g>
</g>
</svg>
