<?xml version="1.0" encoding="UTF-8" standalone="no"?>
<!DOCTYPE svg PUBLIC "-//W3C//DTD SVG 1.1//EN"
 "http://www.w3.org/Graphics/SVG/1.1/DTD/svg11.dtd">
<!-- Generated by graphviz version 2.40.1 (20161225.0304)
 -->
<!-- Title: a_graph Pages: 1 -->
<svg width="2668pt" height="119pt"
 viewBox="0.00 0.00 2668.00 119.00" xmlns="http://www.w3.org/2000/svg" xmlns:xlink="http://www.w3.org/1999/xlink">
<g id="graph0" class="graph" transform="scale(1 1) rotate(0) translate(4 115)">
<title>a_graph</title>
<polygon fill="#ffffff" stroke="transparent" points="-4,4 -4,-115 2664,-115 2664,4 -4,4"/>
<!-- T5427 -->
<g id="node1" class="node">
<title>T5427</title>
<polygon fill="none" stroke="#0058ad" points="0,-81.5 0,-110.5 765,-110.5 765,-81.5 0,-81.5"/>
<text text-anchor="middle" x="286.5" y="-92.3" font-family="Times,serif" font-size="14.00" fill="#0058ad">r 32 [1 2 3 4 6 7 5 8 9 10 11 12 13 14 15 17 19 16 20 21 22 23 18 26 24 25 27 28 29 30 31 32 34 35]</text>
<polyline fill="none" stroke="#0058ad" points="573,-81.5 573,-110.5 "/>
<text text-anchor="middle" x="605" y="-92.3" font-family="Times,serif" font-size="14.00" fill="#0058ad">a 29 118</text>
<polyline fill="none" stroke="#0058ad" points="637,-81.5 637,-110.5 "/>
<text text-anchor="middle" x="669" y="-92.3" font-family="Times,serif" font-size="14.00" fill="#0058ad">a 29 119</text>
<polyline fill="none" stroke="#0058ad" points="701,-81.5 701,-110.5 "/>
<text text-anchor="middle" x="733" y="-92.3" font-family="Times,serif" font-size="14.00" fill="#0058ad">a 29 120</text>
</g>
<!-- T5425 -->
<g id="node2" class="node">
<title>T5425</title>
<polygon fill="none" stroke="#0058ad" points="33,-.5 33,-29.5 2660,-29.5 2660,-.5 33,-.5"/>
<text text-anchor="middle" x="61.5" y="-11.3" font-family="Times,serif" font-size="14.00" fill="#0058ad">a 30 43</text>
<polyline fill="none" stroke="#0058ad" points="90,-.5 90,-29.5 "/>
<text text-anchor="middle" x="118.5" y="-11.3" font-family="Times,serif" font-size="14.00" fill="#0058ad">a 32 36</text>
<polyline fill="none" stroke="#0058ad" points="147,-.5 147,-29.5 "/>
<text text-anchor="middle" x="1108.5" y="-11.3" font-family="Times,serif" font-size="14.00" fill="#0058ad">r 29 [1 2 3 6 4 5 7 8 9 11 13 14 17 18 19 20 21 22 23 24 25 26 27 28 31 32 30 33 34 29 35 36 37 39 40 41 38 42 43 44 45 46 48 49 50 51 53 54 55 56 57 58 59 60 61 62 63 64 65 66 67 68 69 70 71 72 73 74 75 76 77 78 81 80 82 83 84 85 86 87 88 89 90 91 92 93 94 95 96 97 100 101 103 104 105 106 107 108 111 109 110 112 113 114 115 117]</text>
<polyline fill="none" stroke="#0058ad" points="2070,-.5 2070,-29.5 "/>
<text text-anchor="middle" x="2365" y="-11.3" font-family="Times,serif" font-size="14.00" fill="#0058ad">r 32 [1 2 3 4 6 7 5 8 9 10 11 12 13 14 15 17 19 16 20 21 22 23 18 26 24 25 27 28 29 30 31 32 34 35 36]</text>
</g>
<!-- T5427&#45;&gt;T5425 -->
<g id="edge1" class="edge">
<title>T5427:f0&#45;&gt;T5425:f1</title>
<path fill="none" stroke="#5b00c0" d="M286.5,-81C286.5,-6.7788 134.5057,-98.2078 119.6625,-40.1634"/>
<polygon fill="#5b00c0" stroke="#5b00c0" points="123.1138,-39.5374 118.5,-30 116.1592,-40.333 123.1138,-39.5374"/>
<text text-anchor="middle" x="290" y="-51.8" font-family="Times,serif" font-size="14.00" fill="#5b00c0">rw</text>
</g>
<!-- T5425&#45;&gt;T5427 -->
<g id="edge2" class="edge">
<title>T5425:f2&#45;&gt;T5427:f1</title>
<path fill="none" stroke="#5b00c0" d="M1108.5,-30C1108.5,-251.1908 621.0959,131.4037 605.8646,-70.9187"/>
<polygon fill="#5b00c0" stroke="#5b00c0" points="602.3638,-70.88 605.5,-81 609.3592,-71.1331 602.3638,-70.88"/>
<text text-anchor="middle" x="1113" y="-51.8" font-family="Times,serif" font-size="14.00" fill="#5b00c0">rw</text>
</g>
</g>
</svg>
