<?xml version="1.0" encoding="UTF-8" standalone="no"?>
<!DOCTYPE svg PUBLIC "-//W3C//DTD SVG 1.1//EN"
 "http://www.w3.org/Graphics/SVG/1.1/DTD/svg11.dtd">
<!-- Generated by graphviz version 2.40.1 (20161225.0304)
 -->
<!-- Title: a_graph Pages: 1 -->
<svg width="4935pt" height="119pt"
 viewBox="0.00 0.00 4934.50 119.00" xmlns="http://www.w3.org/2000/svg" xmlns:xlink="http://www.w3.org/1999/xlink">
<g id="graph0" class="graph" transform="scale(1 1) rotate(0) translate(4 115)">
<title>a_graph</title>
<polygon fill="#ffffff" stroke="transparent" points="-4,4 -4,-115 4930.5,-115 4930.5,4 -4,4"/>
<!-- T35051 -->
<g id="node1" class="node">
<title>T35051</title>
<polygon fill="none" stroke="#0058ad" points="0,-81.5 0,-110.5 3553,-110.5 3553,-81.5 0,-81.5"/>
<text text-anchor="middle" x="1011" y="-92.3" font-family="Times,serif" font-size="14.00" fill="#0058ad">r 160 [1 2 3 5 7 8 9 10 11 13 14 16 18 17 20 21 19 23 22 24 25 26 27 28 29 33 34 35 37 38 39 40 41 42 43 44 45 47 46 48 49 50 51 52 53 55 54 56 57 58 59 60 62 63 64 66 65 67 68 69 70 71 72 73 74 75 76 77 78 79 80 81 82 83 85 86 84 88 89 90 91 92 93 94 95 96 97 98 99 100 101 102 103 105 104 106 107 110 111 112 114 113 115 116 117 118 119 120 121]</text>
<polyline fill="none" stroke="#0058ad" points="2022,-81.5 2022,-110.5 "/>
<text text-anchor="middle" x="2303.5" y="-92.3" font-family="Times,serif" font-size="14.00" fill="#0058ad">r 175 [1 2 3 4 6 7 8 5 10 9 12 13 11 16 14 15 17 18 20 21 22 19 23 24 27 25 26 29 28 32 33 34 35]</text>
<polyline fill="none" stroke="#0058ad" points="2585,-81.5 2585,-110.5 "/>
<text text-anchor="middle" x="2617" y="-92.3" font-family="Times,serif" font-size="14.00" fill="#0058ad">a 175 36</text>
<polyline fill="none" stroke="#0058ad" points="2649,-81.5 2649,-110.5 "/>
<text text-anchor="middle" x="3101" y="-92.3" font-family="Times,serif" font-size="14.00" fill="#0058ad">r 171 [2 1 3 4 6 7 9 10 11 13 12 14 15 16 17 18 19 20 21 22 23 24 25 26 28 27 29 30 32 33 34 35 36 37 38 39 40 41 42 43 44 45 46 47 48 49 50 52 51 53 54 55]</text>
</g>
<!-- T35055 -->
<g id="node2" class="node">
<title>T35055</title>
<polygon fill="none" stroke="#0058ad" points="1714.5,-.5 1714.5,-29.5 4926.5,-29.5 4926.5,-.5 1714.5,-.5"/>
<text text-anchor="middle" x="1746.5" y="-11.3" font-family="Times,serif" font-size="14.00" fill="#0058ad">a 171 56</text>
<polyline fill="none" stroke="#0058ad" points="1778.5,-.5 1778.5,-29.5 "/>
<text text-anchor="middle" x="2789.5" y="-11.3" font-family="Times,serif" font-size="14.00" fill="#0058ad">r 160 [1 2 3 5 7 8 9 10 11 13 14 16 18 17 20 21 19 23 22 24 25 26 27 28 29 33 34 35 37 38 39 40 41 42 43 44 45 47 46 48 49 50 51 52 53 55 54 56 57 58 59 60 62 63 64 66 65 67 68 69 70 71 72 73 74 75 76 77 78 79 80 81 82 83 85 86 84 88 89 90 91 92 93 94 95 96 97 98 99 100 101 102 103 105 104 106 107 110 111 112 114 113 115 116 117 118 119 120 121]</text>
<polyline fill="none" stroke="#0058ad" points="3800.5,-.5 3800.5,-29.5 "/>
<text text-anchor="middle" x="4082" y="-11.3" font-family="Times,serif" font-size="14.00" fill="#0058ad">r 175 [1 2 3 4 6 7 8 5 10 9 12 13 11 16 14 15 17 18 20 21 22 19 23 24 27 25 26 29 28 32 33 34 35]</text>
<polyline fill="none" stroke="#0058ad" points="4363.5,-.5 4363.5,-29.5 "/>
<text text-anchor="middle" x="4645" y="-11.3" font-family="Times,serif" font-size="14.00" fill="#0058ad">r 175 [1 2 3 4 6 7 8 5 10 9 12 13 11 16 14 15 17 18 20 21 22 19 23 24 27 25 26 29 28 32 33 34 35]</text>
</g>
<!-- T35051&#45;&gt;T35055 -->
<g id="edge1" class="edge">
<title>T35051:f3&#45;&gt;T35055:f0</title>
<path fill="none" stroke="#5b00c0" d="M3101.5,-81C3101.5,27.5509 2967.7388,-56.2256 2859.5,-48 2844.9422,-46.8937 1865.3389,-45.6121 1756.3266,-32.4532"/>
<polygon fill="#5b00c0" stroke="#5b00c0" points="1757.05,-29.0264 1746.5,-30 1755.3545,-35.818 1757.05,-29.0264"/>
<text text-anchor="middle" x="3106" y="-51.8" font-family="Times,serif" font-size="14.00" fill="#5b00c0">rw</text>
</g>
<!-- T35055&#45;&gt;T35051 -->
<g id="edge2" class="edge">
<title>T35055:f2&#45;&gt;T35051:f2</title>
<path fill="none" stroke="#5b00c0" d="M4082.5,-30C4082.5,-47.2518 2857.6957,-46.6092 2840.5,-48 2744.244,-55.7851 2626.3681,13.86 2617.9754,-70.8145"/>
<polygon fill="#5b00c0" stroke="#5b00c0" points="2614.4701,-70.8477 2617.5,-81 2621.4625,-71.1741 2614.4701,-70.8477"/>
<text text-anchor="middle" x="2848" y="-51.8" font-family="Times,serif" font-size="14.00" fill="#5b00c0">rw</text>
</g>
</g>
</svg>
