<?xml version="1.0" encoding="UTF-8" standalone="no"?>
<!DOCTYPE svg PUBLIC "-//W3C//DTD SVG 1.1//EN"
 "http://www.w3.org/Graphics/SVG/1.1/DTD/svg11.dtd">
<!-- Generated by graphviz version 2.40.1 (20161225.0304)
 -->
<!-- Title: a_graph Pages: 1 -->
<svg width="2764pt" height="119pt"
 viewBox="0.00 0.00 2764.00 119.00" xmlns="http://www.w3.org/2000/svg" xmlns:xlink="http://www.w3.org/1999/xlink">
<g id="graph0" class="graph" transform="scale(1 1) rotate(0) translate(4 115)">
<title>a_graph</title>
<polygon fill="#ffffff" stroke="transparent" points="-4,4 -4,-115 2760,-115 2760,4 -4,4"/>
<!-- T20231 -->
<g id="node1" class="node">
<title>T20231</title>
<polygon fill="none" stroke="#0058ad" points="0,-81.5 0,-110.5 1519,-110.5 1519,-81.5 0,-81.5"/>
<text text-anchor="middle" x="28.5" y="-92.3" font-family="Times,serif" font-size="14.00" fill="#0058ad">a 98 98</text>
<polyline fill="none" stroke="#0058ad" points="57,-81.5 57,-110.5 "/>
<text text-anchor="middle" x="752.5" y="-92.3" font-family="Times,serif" font-size="14.00" fill="#0058ad">r 103 [1 2 3 4 5 6 7 8 9 10 11 12 13 14 15 16 17 18 19 20 21 22 23 24 25 26 27 29 28 30 32 31 33 34 35 36 37 38 39 42 43 46 47 44 45 49 50 51 48 56 57 54 55 58 52 53 59 60 61 62 63 66 67 64 68 65 70 71 72 73 69 74 75 76 77 79 78 81 82 83 84]</text>
<polyline fill="none" stroke="#0058ad" points="1448,-81.5 1448,-110.5 "/>
<text text-anchor="middle" x="1483.5" y="-92.3" font-family="Times,serif" font-size="14.00" fill="#0058ad">a 101 101</text>
</g>
<!-- T20229 -->
<g id="node2" class="node">
<title>T20229</title>
<polygon fill="none" stroke="#0058ad" points="443,-.5 443,-29.5 2756,-29.5 2756,-.5 443,-.5"/>
<text text-anchor="middle" x="475" y="-11.3" font-family="Times,serif" font-size="14.00" fill="#0058ad">a 103 87</text>
<polyline fill="none" stroke="#0058ad" points="507,-.5 507,-29.5 "/>
<text text-anchor="middle" x="788.5" y="-11.3" font-family="Times,serif" font-size="14.00" fill="#0058ad">r 99 [1 2 3 5 6 7 8 9 10 11 12 13 14 15 16 17 18 19 20 21 22 23 24 25 26 27 28 29 30 31 32 33 34]</text>
<polyline fill="none" stroke="#0058ad" points="1070,-.5 1070,-29.5 "/>
<text text-anchor="middle" x="1102" y="-11.3" font-family="Times,serif" font-size="14.00" fill="#0058ad">a 103 88</text>
<polyline fill="none" stroke="#0058ad" points="1134,-.5 1134,-29.5 "/>
<text text-anchor="middle" x="1945" y="-11.3" font-family="Times,serif" font-size="14.00" fill="#0058ad">r 101 [1 3 4 5 6 2 7 8 9 10 11 12 13 14 15 16 17 18 19 20 21 24 25 26 27 30 31 32 33 35 34 37 36 38 39 40 41 42 43 44 45 46 47 48 49 50 52 53 54 55 56 57 58 59 60 61 62 63 64 65 66 67 68 69 70 71 72 73 74 75 76 77 78 79 80 81 83 82 85 86 87 88 90 91 89 92 93 94 95 96 97 98 99 100]</text>
</g>
<!-- T20231&#45;&gt;T20229 -->
<g id="edge1" class="edge">
<title>T20231:f1&#45;&gt;T20229:f0</title>
<path fill="none" stroke="#5b00c0" d="M752.5,-81C752.5,40.9373 490.5505,-144.1647 475.2018,-40.2179"/>
<polygon fill="#5b00c0" stroke="#5b00c0" points="478.6771,-39.7366 474.5,-30 471.6936,-40.2164 478.6771,-39.7366"/>
<text text-anchor="middle" x="758" y="-51.8" font-family="Times,serif" font-size="14.00" fill="#5b00c0">rw</text>
</g>
<!-- T20229&#45;&gt;T20231 -->
<g id="edge2" class="edge">
<title>T20229:f3&#45;&gt;T20231:f2</title>
<path fill="none" stroke="#5b00c0" d="M1945.5,-30C1945.5,-75.3722 1606.2245,-94.0079 1529.7286,-95.8473"/>
<polygon fill="#5b00c0" stroke="#5b00c0" points="1529.4466,-92.351 1519.5,-96 1529.5512,-99.3502 1529.4466,-92.351"/>
<text text-anchor="middle" x="1932" y="-51.8" font-family="Times,serif" font-size="14.00" fill="#5b00c0">rw</text>
</g>
</g>
</svg>
