<?xml version="1.0" encoding="UTF-8" standalone="no"?>
<!DOCTYPE svg PUBLIC "-//W3C//DTD SVG 1.1//EN"
 "http://www.w3.org/Graphics/SVG/1.1/DTD/svg11.dtd">
<!-- Generated by graphviz version 2.40.1 (20161225.0304)
 -->
<!-- Title: a_graph Pages: 1 -->
<svg width="4067pt" height="119pt"
 viewBox="0.00 0.00 4067.00 119.00" xmlns="http://www.w3.org/2000/svg" xmlns:xlink="http://www.w3.org/1999/xlink">
<g id="graph0" class="graph" transform="scale(1 1) rotate(0) translate(4 115)">
<title>a_graph</title>
<polygon fill="#ffffff" stroke="transparent" points="-4,4 -4,-115 4063,-115 4063,4 -4,4"/>
<!-- T4891 -->
<g id="node1" class="node">
<title>T4891</title>
<polygon fill="none" stroke="#0058ad" points="153,-81.5 153,-110.5 2432,-110.5 2432,-81.5 153,-81.5"/>
<text text-anchor="middle" x="185" y="-92.3" font-family="Times,serif" font-size="14.00" fill="#0058ad">a 28 119</text>
<polyline fill="none" stroke="#0058ad" points="217,-81.5 217,-110.5 "/>
<text text-anchor="middle" x="365.5" y="-92.3" font-family="Times,serif" font-size="14.00" fill="#0058ad">r 29 [1 2 3 6 4 5 7 8 9 11 13 14 17 18 19 20 21 22]</text>
<polyline fill="none" stroke="#0058ad" points="514,-81.5 514,-110.5 "/>
<text text-anchor="middle" x="539" y="-92.3" font-family="Times,serif" font-size="14.00" fill="#0058ad">a 3 29</text>
<polyline fill="none" stroke="#0058ad" points="564,-81.5 564,-110.5 "/>
<text text-anchor="middle" x="1498" y="-92.3" font-family="Times,serif" font-size="14.00" fill="#0058ad">r 28 [4 1 2 3 5 7 6 8 10 11 12 13 14 15 16 9 17 18 19 20 23 25 24 28 29 31 30 32 33 34 35 36 37 38 39 40 41 42 43 44 45 46 47 48 49 50 51 54 55 56 57 58 59 60 61 62 63 65 66 64 70 73 67 68 69 74 75 71 72 76 77 78 79 80 81 82 84 85 83 86 87 89 88 90 93 94 95 96 97 98 99 100 102 103 105 106 109 112 111 114 115 116 117 119]</text>
</g>
<!-- T4893 -->
<g id="node2" class="node">
<title>T4893</title>
<polygon fill="none" stroke="#0058ad" points="0,-.5 0,-29.5 4059,-29.5 4059,-.5 0,-.5"/>
<text text-anchor="middle" x="28.5" y="-11.3" font-family="Times,serif" font-size="14.00" fill="#0058ad">a 29 23</text>
<polyline fill="none" stroke="#0058ad" points="57,-.5 57,-29.5 "/>
<text text-anchor="middle" x="979" y="-11.3" font-family="Times,serif" font-size="14.00" fill="#0058ad">r 28 [4 1 2 3 5 7 6 8 10 11 12 13 14 15 16 9 17 18 19 20 23 25 24 28 29 31 30 32 33 34 35 36 37 38 39 40 41 42 43 44 45 46 47 48 49 50 51 54 55 56 57 58 59 60 61 62 63 65 66 64 70 73 67 68 69 74 75 71 72 76 77 78 79 80 81 82 84 85 83 86 87 89 88 90 93 94 95 96 97 98 99 100 102 103 105 106 109 112 111 114 115 116 117]</text>
<polyline fill="none" stroke="#0058ad" points="1901,-.5 1901,-29.5 "/>
<text text-anchor="middle" x="2823" y="-11.3" font-family="Times,serif" font-size="14.00" fill="#0058ad">r 28 [4 1 2 3 5 7 6 8 10 11 12 13 14 15 16 9 17 18 19 20 23 25 24 28 29 31 30 32 33 34 35 36 37 38 39 40 41 42 43 44 45 46 47 48 49 50 51 54 55 56 57 58 59 60 61 62 63 65 66 64 70 73 67 68 69 74 75 71 72 76 77 78 79 80 81 82 84 85 83 86 87 89 88 90 93 94 95 96 97 98 99 100 102 103 105 106 109 112 111 114 115 116 117]</text>
<polyline fill="none" stroke="#0058ad" points="3745,-.5 3745,-29.5 "/>
<text text-anchor="middle" x="3902" y="-11.3" font-family="Times,serif" font-size="14.00" fill="#0058ad">r 29 [1 2 3 6 4 5 7 8 9 11 13 14 17 18 19 20 21 22 23]</text>
</g>
<!-- T4891&#45;&gt;T4893 -->
<g id="edge1" class="edge">
<title>T4891:f1&#45;&gt;T4893:f0</title>
<path fill="none" stroke="#5b00c0" d="M365.5,-81C365.5,66.9328 44.1118,-169.8939 29.0467,-39.9967"/>
<polygon fill="#5b00c0" stroke="#5b00c0" points="32.5409,-39.7939 28.5,-30 25.5514,-40.1762 32.5409,-39.7939"/>
<text text-anchor="middle" x="370" y="-51.8" font-family="Times,serif" font-size="14.00" fill="#5b00c0">rw</text>
</g>
<!-- T4893&#45;&gt;T4891 -->
<g id="edge2" class="edge">
<title>T4893:f1&#45;&gt;T4891:f0</title>
<path fill="none" stroke="#5b00c0" d="M978.5,-30C978.5,-50.6981 282.1015,-57.9743 193.6916,-76.9685"/>
<polygon fill="#5b00c0" stroke="#5b00c0" points="192.252,-73.778 184.5,-81 195.0637,-80.1885 192.252,-73.778"/>
<text text-anchor="middle" x="774" y="-51.8" font-family="Times,serif" font-size="14.00" fill="#5b00c0">rw</text>
</g>
</g>
</svg>
