<?xml version="1.0" encoding="UTF-8" standalone="no"?>
<!DOCTYPE svg PUBLIC "-//W3C//DTD SVG 1.1//EN"
 "http://www.w3.org/Graphics/SVG/1.1/DTD/svg11.dtd">
<!-- Generated by graphviz version 2.40.1 (20161225.0304)
 -->
<!-- Title: a_graph Pages: 1 -->
<svg width="2386pt" height="200pt"
 viewBox="0.00 0.00 2386.00 200.00" xmlns="http://www.w3.org/2000/svg" xmlns:xlink="http://www.w3.org/1999/xlink">
<g id="graph0" class="graph" transform="scale(1 1) rotate(0) translate(4 196)">
<title>a_graph</title>
<polygon fill="#ffffff" stroke="transparent" points="-4,4 -4,-196 2382,-196 2382,4 -4,4"/>
<!-- T21007 -->
<g id="node1" class="node">
<title>T21007</title>
<polygon fill="none" stroke="#0058ad" points="552,-162.5 552,-191.5 1660,-191.5 1660,-162.5 552,-162.5"/>
<text text-anchor="middle" x="911" y="-173.3" font-family="Times,serif" font-size="14.00" fill="#0058ad">r 95 [1 2 3 4 5 6 7 9 10 11 12 13 14 15 16 17 18 19 20 21 22 23 25 26 27 29 30 31 32 33 34 35 36 37 38 39 40 41 43 44 45 46]</text>
<polyline fill="none" stroke="#0058ad" points="1270,-162.5 1270,-191.5 "/>
<text text-anchor="middle" x="1465" y="-173.3" font-family="Times,serif" font-size="14.00" fill="#0058ad">r 106 [1 2 3 4 5 6 7 8 10 9 11 12 13 14 15 16 17 18 19 21 20 22 23]</text>
</g>
<!-- T21009 -->
<g id="node2" class="node">
<title>T21009</title>
<polygon fill="none" stroke="#0058ad" points="252,-81.5 252,-110.5 2378,-110.5 2378,-81.5 252,-81.5"/>
<text text-anchor="middle" x="280.5" y="-92.3" font-family="Times,serif" font-size="14.00" fill="#0058ad">a 99 67</text>
<polyline fill="none" stroke="#0058ad" points="309,-81.5 309,-110.5 "/>
<text text-anchor="middle" x="504" y="-92.3" font-family="Times,serif" font-size="14.00" fill="#0058ad">r 106 [1 2 3 4 5 6 7 8 10 9 11 12 13 14 15 16 17 18 19 21 20 22 23]</text>
<polyline fill="none" stroke="#0058ad" points="699,-81.5 699,-110.5 "/>
<text text-anchor="middle" x="1506.5" y="-92.3" font-family="Times,serif" font-size="14.00" fill="#0058ad">r 105 [1 2 3 4 7 8 6 9 5 11 12 10 13 15 16 17 18 20 21 19 22 23 24 14 25 26 28 29 30 31 32 33 34 35 36 37 38 39 41 42 43 40 44 45 46 47 48 49 50 51 55 53 56 57 60 61 58 59 62 63 64 65 66 68 67 69 70 71 72 73 74 75 77 78 76 81 79 80 83 82 84 86 85 87 88 91 90 89 93 92 94 95 96 97]</text>
<polyline fill="none" stroke="#0058ad" points="2314,-81.5 2314,-110.5 "/>
<text text-anchor="middle" x="2346" y="-92.3" font-family="Times,serif" font-size="14.00" fill="#0058ad">a 106 24</text>
</g>
<!-- T21007&#45;&gt;T21009 -->
<g id="edge1" class="edge">
<title>T21007:f1&#45;&gt;T21009:f3</title>
<path fill="none" stroke="#5b00c0" d="M1660,-177C1695.8941,-177 2267.4165,-152.6429 2338.7165,-118.0507"/>
<polygon fill="#5b00c0" stroke="#5b00c0" points="2341.2494,-120.4701 2346,-111 2336.3807,-115.4406 2341.2494,-120.4701"/>
<text text-anchor="middle" x="2297.5" y="-132.8" font-family="Times,serif" font-size="14.00" fill="#5b00c0">rw</text>
</g>
<!-- T21003 -->
<g id="node3" class="node">
<title>T21003</title>
<polygon fill="none" stroke="#0058ad" points="0,-.5 0,-29.5 844,-29.5 844,-.5 0,-.5"/>
<text text-anchor="middle" x="195" y="-11.3" font-family="Times,serif" font-size="14.00" fill="#0058ad">r 106 [1 2 3 4 5 6 7 8 10 9 11 12 13 14 15 16 17 18 19 21 20 22 23]</text>
<polyline fill="none" stroke="#0058ad" points="390,-.5 390,-29.5 "/>
<text text-anchor="middle" x="585" y="-11.3" font-family="Times,serif" font-size="14.00" fill="#0058ad">r 106 [1 2 3 4 5 6 7 8 10 9 11 12 13 14 15 16 17 18 19 21 20 22 23]</text>
<polyline fill="none" stroke="#0058ad" points="780,-.5 780,-29.5 "/>
<text text-anchor="middle" x="812" y="-11.3" font-family="Times,serif" font-size="14.00" fill="#0058ad">a 105 98</text>
</g>
<!-- T21009&#45;&gt;T21003 -->
<g id="edge2" class="edge">
<title>T21009:f2&#45;&gt;T21003:f2</title>
<path fill="none" stroke="#5b00c0" d="M1507,-81C1507,-45.8643 942.9777,-17.9645 854.0364,-15.2215"/>
<polygon fill="#5b00c0" stroke="#5b00c0" points="854.0748,-11.7216 844,-15 853.9203,-18.7199 854.0748,-11.7216"/>
<text text-anchor="middle" x="1460.5" y="-51.8" font-family="Times,serif" font-size="14.00" fill="#5b00c0">rw</text>
</g>
<!-- T21003&#45;&gt;T21007 -->
<g id="edge3" class="edge">
<title>T21003&#45;&gt;T21007</title>
<path fill="none" stroke="#0050c0" d="M335.0506,-29.5051C269.2638,-44.0529 196.1885,-70.2185 234,-111 252.7385,-131.2104 530.843,-149.7305 768.011,-161.974"/>
<polygon fill="#0050c0" stroke="#0050c0" points="768.0381,-165.4799 778.2045,-162.4977 768.3973,-158.4891 768.0381,-165.4799"/>
<text text-anchor="middle" x="238.5" y="-92.3" font-family="Times,serif" font-size="14.00" fill="#0050c0">rt</text>
</g>
<!-- T21003&#45;&gt;T21009 -->
<g id="edge4" class="edge">
<title>T21003:f0&#45;&gt;T21009:f3</title>
<path fill="none" stroke="#5b00c0" d="M195,-30C195,-156.7197 1208.3149,-60.0387 1335,-63 1348.2174,-63.309 2232.5433,-66.5423 2336.1299,-78.6372"/>
<polygon fill="#5b00c0" stroke="#5b00c0" points="2335.4599,-82.0756 2346,-81 2337.0896,-75.268 2335.4599,-82.0756"/>
<text text-anchor="middle" x="1342.5" y="-51.8" font-family="Times,serif" font-size="14.00" fill="#5b00c0">rw</text>
</g>
</g>
</svg>
