<?xml version="1.0" encoding="UTF-8" standalone="no"?>
<!DOCTYPE svg PUBLIC "-//W3C//DTD SVG 1.1//EN"
 "http://www.w3.org/Graphics/SVG/1.1/DTD/svg11.dtd">
<!-- Generated by graphviz version 2.40.1 (20161225.0304)
 -->
<!-- Title: a_graph Pages: 1 -->
<svg width="3967pt" height="119pt"
 viewBox="0.00 0.00 3966.50 119.00" xmlns="http://www.w3.org/2000/svg" xmlns:xlink="http://www.w3.org/1999/xlink">
<g id="graph0" class="graph" transform="scale(1 1) rotate(0) translate(4 115)">
<title>a_graph</title>
<polygon fill="#ffffff" stroke="transparent" points="-4,4 -4,-115 3962.5,-115 3962.5,4 -4,4"/>
<!-- T6160 -->
<g id="node1" class="node">
<title>T6160</title>
<polygon fill="none" stroke="#0058ad" points="44.5,-81.5 44.5,-110.5 3958.5,-110.5 3958.5,-81.5 44.5,-81.5"/>
<text text-anchor="middle" x="1007" y="-92.3" font-family="Times,serif" font-size="14.00" fill="#0058ad">r 33 [2 4 9 10 11 12 13 14 15 18 17 19 20 21 23 24 25 26 28 27 30 31 32 33 34 36 37 35 38 40 41 42 39 43 44 45 47 48 49 50 51 52 53 55 54 57 56 58 59 60 61 62 63 64 65 67 68 69 70 71 72 73 75 74 76 77 79 81 82 83 78 84 80 85 86 87 88 89 91 92 93 96 97 98 100 99 101 102 103 104 105 106 107 108 109 111 112 110 113 114 115 117 119]</text>
<polyline fill="none" stroke="#0058ad" points="1969.5,-81.5 1969.5,-110.5 "/>
<text text-anchor="middle" x="2001.5" y="-92.3" font-family="Times,serif" font-size="14.00" fill="#0058ad">a 35 122</text>
<polyline fill="none" stroke="#0058ad" points="2033.5,-81.5 2033.5,-110.5 "/>
<text text-anchor="middle" x="2996" y="-92.3" font-family="Times,serif" font-size="14.00" fill="#0058ad">r 33 [2 4 9 10 11 12 13 14 15 18 17 19 20 21 23 24 25 26 28 27 30 31 32 33 34 36 37 35 38 40 41 42 39 43 44 45 47 48 49 50 51 52 53 55 54 57 56 58 59 60 61 62 63 64 65 67 68 69 70 71 72 73 75 74 76 77 79 81 82 83 78 84 80 85 86 87 88 89 91 92 93 96 97 98 100 99 101 102 103 104 105 106 107 108 109 111 112 110 113 114 115 117 119]</text>
</g>
<!-- T6155 -->
<g id="node2" class="node">
<title>T6155</title>
<polygon fill="none" stroke="#0058ad" points="0,-.5 0,-29.5 2049,-29.5 2049,-.5 0,-.5"/>
<text text-anchor="middle" x="992.5" y="-11.3" font-family="Times,serif" font-size="14.00" fill="#0058ad">r 35 [1 2 4 3 5 6 7 8 9 10 11 12 15 13 14 17 18 16 19 20 21 22 23 24 25 26 29 28 27 30 34 35 36 38 39 40 41 42 43 37 44 45 46 47 48 49 50 51 52 54 55 53 56 57 58 59 60 61 63 64 65 66 67 68 70 69 71 72 73 74 75 76 77 78 80 79 82 81 83 84 85 86 87 88 89 90 91 92 93 94 96 97 95 99 100 98 101 102 103 106 105 108 111 112 113 114 115 116 117 119]</text>
<polyline fill="none" stroke="#0058ad" points="1985,-.5 1985,-29.5 "/>
<text text-anchor="middle" x="2017" y="-11.3" font-family="Times,serif" font-size="14.00" fill="#0058ad">a 33 120</text>
</g>
<!-- T6160&#45;&gt;T6155 -->
<g id="edge1" class="edge">
<title>T6160:f0&#45;&gt;T6155:f1</title>
<path fill="none" stroke="#5b00c0" d="M1006.5,-81C1006.5,-67.7505 1904.3543,-46.6669 2007.818,-32.5147"/>
<polygon fill="#5b00c0" stroke="#5b00c0" points="2008.701,-35.9016 2017.5,-30 2006.9412,-29.1263 2008.701,-35.9016"/>
<text text-anchor="middle" x="1697" y="-51.8" font-family="Times,serif" font-size="14.00" fill="#5b00c0">rw</text>
</g>
<!-- T6155&#45;&gt;T6160 -->
<g id="edge2" class="edge">
<title>T6155:f0&#45;&gt;T6160:f1</title>
<path fill="none" stroke="#5b00c0" d="M992.5,-30C992.5,-49.8952 1688.6517,-46.6354 1708.5,-48 1835.6621,-56.7428 1992.6498,44.2789 2001.14,-70.777"/>
<polygon fill="#5b00c0" stroke="#5b00c0" points="1997.6501,-71.1294 2001.5,-81 2004.6458,-70.883 1997.6501,-71.1294"/>
<text text-anchor="middle" x="2007" y="-51.8" font-family="Times,serif" font-size="14.00" fill="#5b00c0">rw</text>
</g>
</g>
</svg>
