<?xml version="1.0" encoding="UTF-8" standalone="no"?>
<!DOCTYPE svg PUBLIC "-//W3C//DTD SVG 1.1//EN"
 "http://www.w3.org/Graphics/SVG/1.1/DTD/svg11.dtd">
<!-- Generated by graphviz version 2.40.1 (20161225.0304)
 -->
<!-- Title: a_graph Pages: 1 -->
<svg width="2171pt" height="119pt"
 viewBox="0.00 0.00 2171.00 119.00" xmlns="http://www.w3.org/2000/svg" xmlns:xlink="http://www.w3.org/1999/xlink">
<g id="graph0" class="graph" transform="scale(1 1) rotate(0) translate(4 115)">
<title>a_graph</title>
<polygon fill="#ffffff" stroke="transparent" points="-4,4 -4,-115 2167,-115 2167,4 -4,4"/>
<!-- T27993 -->
<g id="node1" class="node">
<title>T27993</title>
<polygon fill="none" stroke="#0058ad" points="0,-81.5 0,-110.5 2163,-110.5 2163,-81.5 0,-81.5"/>
<text text-anchor="middle" x="319" y="-92.3" font-family="Times,serif" font-size="14.00" fill="#0058ad">r 140 [1 2 3 4 5 6 7 9 10 11 12 13 14 15 16 17 18 19 20 21 22 23 24 26 28 29 30 31 32 34 35 33 36 37 39 38 40]</text>
<polyline fill="none" stroke="#0058ad" points="638,-81.5 638,-110.5 "/>
<text text-anchor="middle" x="670" y="-92.3" font-family="Times,serif" font-size="14.00" fill="#0058ad">a 141 87</text>
<polyline fill="none" stroke="#0058ad" points="702,-81.5 702,-110.5 "/>
<text text-anchor="middle" x="734" y="-92.3" font-family="Times,serif" font-size="14.00" fill="#0058ad">a 142 39</text>
<polyline fill="none" stroke="#0058ad" points="766,-81.5 766,-110.5 "/>
<text text-anchor="middle" x="1464.5" y="-92.3" font-family="Times,serif" font-size="14.00" fill="#0058ad">r 141 [1 2 3 4 5 6 8 11 12 9 10 13 16 17 14 15 18 19 20 21 22 23 24 25 26 27 29 30 31 32 28 34 35 33 36 37 38 40 41 42 43 44 45 46 47 48 49 39 50 51 52 53 54 55 56 57 58 59 60 63 64 65 66 67 68 71 70 72 73 75 76 78 79 82 83 85 80 81 86 88 87]</text>
</g>
<!-- T27991 -->
<g id="node2" class="node">
<title>T27991</title>
<polygon fill="none" stroke="#0058ad" points="146.5,-.5 146.5,-29.5 1590.5,-29.5 1590.5,-.5 146.5,-.5"/>
<text text-anchor="middle" x="178.5" y="-11.3" font-family="Times,serif" font-size="14.00" fill="#0058ad">a 140 41</text>
<polyline fill="none" stroke="#0058ad" points="210.5,-.5 210.5,-29.5 "/>
<text text-anchor="middle" x="900.5" y="-11.3" font-family="Times,serif" font-size="14.00" fill="#0058ad">r 141 [1 2 3 4 5 6 8 11 12 9 10 13 16 17 14 15 18 19 20 21 22 23 24 25 26 27 29 30 31 32 28 34 35 33 36 37 38 40 41 42 43 44 45 46 47 48 49 39 50 51 52 53 54 55 56 57 58 59 60 63 64 65 66 67 68 71 70 72 73 75 76 78 79 82 83 85 80 81 86 88]</text>
</g>
<!-- T27993&#45;&gt;T27991 -->
<g id="edge1" class="edge">
<title>T27993:f0&#45;&gt;T27991:f0</title>
<path fill="none" stroke="#5b00c0" d="M318.5,-81C318.5,-18.658 194.4256,-87.1849 179.8856,-40.1791"/>
<polygon fill="#5b00c0" stroke="#5b00c0" points="183.3169,-39.4365 178.5,-30 176.3809,-40.3807 183.3169,-39.4365"/>
<text text-anchor="middle" x="319" y="-51.8" font-family="Times,serif" font-size="14.00" fill="#5b00c0">rw</text>
</g>
<!-- T27991&#45;&gt;T27993 -->
<g id="edge2" class="edge">
<title>T27991:f1&#45;&gt;T27993:f1</title>
<path fill="none" stroke="#5b00c0" d="M900.5,-30C900.5,-131.4428 685.4567,13.2666 670.3364,-70.8686"/>
<polygon fill="#5b00c0" stroke="#5b00c0" points="666.8348,-70.7459 669.5,-81 673.811,-71.3219 666.8348,-70.7459"/>
<text text-anchor="middle" x="904" y="-51.8" font-family="Times,serif" font-size="14.00" fill="#5b00c0">rw</text>
</g>
</g>
</svg>
