<?xml version="1.0" encoding="UTF-8" standalone="no"?>
<!DOCTYPE svg PUBLIC "-//W3C//DTD SVG 1.1//EN"
 "http://www.w3.org/Graphics/SVG/1.1/DTD/svg11.dtd">
<!-- Generated by graphviz version 2.40.1 (20161225.0304)
 -->
<!-- Title: a_graph Pages: 1 -->
<svg width="1902pt" height="119pt"
 viewBox="0.00 0.00 1902.00 119.00" xmlns="http://www.w3.org/2000/svg" xmlns:xlink="http://www.w3.org/1999/xlink">
<g id="graph0" class="graph" transform="scale(1 1) rotate(0) translate(4 115)">
<title>a_graph</title>
<polygon fill="#ffffff" stroke="transparent" points="-4,4 -4,-115 1898,-115 1898,4 -4,4"/>
<!-- T999 -->
<g id="node1" class="node">
<title>T999</title>
<polygon fill="none" stroke="#0058ad" points="690,-81.5 690,-110.5 1636,-110.5 1636,-81.5 690,-81.5"/>
<text text-anchor="middle" x="718.5" y="-92.3" font-family="Times,serif" font-size="14.00" fill="#0058ad">a 12 38</text>
<polyline fill="none" stroke="#0058ad" points="747,-81.5 747,-110.5 "/>
<text text-anchor="middle" x="885" y="-92.3" font-family="Times,serif" font-size="14.00" fill="#0058ad">r 11 [1 2 3 4 5 6 9 10 13 15 16 17 19 18 20 21]</text>
<polyline fill="none" stroke="#0058ad" points="1023,-81.5 1023,-110.5 "/>
<text text-anchor="middle" x="1051.5" y="-92.3" font-family="Times,serif" font-size="14.00" fill="#0058ad">a 12 39</text>
<polyline fill="none" stroke="#0058ad" points="1080,-81.5 1080,-110.5 "/>
<text text-anchor="middle" x="1358" y="-92.3" font-family="Times,serif" font-size="14.00" fill="#0058ad">r 12 [1 2 4 3 5 6 8 7 9 10 13 14 11 12 16 17 18 21 22 24 19 20 26 27 30 31 32 34 35 36 37 38 39]</text>
</g>
<!-- T1002 -->
<g id="node2" class="node">
<title>T1002</title>
<polygon fill="none" stroke="#0058ad" points="0,-.5 0,-29.5 1894,-29.5 1894,-.5 0,-.5"/>
<text text-anchor="middle" x="28.5" y="-11.3" font-family="Times,serif" font-size="14.00" fill="#0058ad">a 11 22</text>
<polyline fill="none" stroke="#0058ad" points="57,-.5 57,-29.5 "/>
<text text-anchor="middle" x="686.5" y="-11.3" font-family="Times,serif" font-size="14.00" fill="#0058ad">r 7 [3 5 6 7 8 9 10 11 12 13 14 15 16 17 18 19 20 21 22 23 24 25 26 27 28 29 30 31 32 33 34 35 36 37 38 39 40 41 42 43 44 45 47 46 48 50 51 49 52 53 54 55 56 57 58 59 62 66 67 68 69 70 71 72 73 74 75 76 78 79 80 81 82]</text>
<polyline fill="none" stroke="#0058ad" points="1316,-.5 1316,-29.5 "/>
<text text-anchor="middle" x="1576.5" y="-11.3" font-family="Times,serif" font-size="14.00" fill="#0058ad">r 12 [1 2 4 3 5 6 8 7 9 10 13 14 11 12 16 17 18 21 22 24 19 20 26 27 30 31 32 34 35 36 37]</text>
<polyline fill="none" stroke="#0058ad" points="1837,-.5 1837,-29.5 "/>
<text text-anchor="middle" x="1865.5" y="-11.3" font-family="Times,serif" font-size="14.00" fill="#0058ad">a 11 23</text>
</g>
<!-- T999&#45;&gt;T1002 -->
<g id="edge1" class="edge">
<title>T999:f1&#45;&gt;T1002:f0</title>
<path fill="none" stroke="#5b00c0" d="M885,-81C885,-27.8262 822.562,-56.0435 770,-48 750.9933,-45.0914 122.0656,-49.8844 37.3941,-33.8195"/>
<polygon fill="#5b00c0" stroke="#5b00c0" points="38.5819,-30.5243 28,-30 35.9453,-37.0088 38.5819,-30.5243"/>
<text text-anchor="middle" x="888.5" y="-51.8" font-family="Times,serif" font-size="14.00" fill="#5b00c0">rw</text>
</g>
<!-- T1002&#45;&gt;T999 -->
<g id="edge2" class="edge">
<title>T1002:f2&#45;&gt;T999:f0</title>
<path fill="none" stroke="#5b00c0" d="M1577,-30C1577,-52.9499 772.106,-38.987 751,-48 735.5013,-54.6185 723.4028,-58.5743 719.4108,-70.9504"/>
<polygon fill="#5b00c0" stroke="#5b00c0" points="715.9243,-70.6105 718,-81 722.8563,-71.5837 715.9243,-70.6105"/>
<text text-anchor="middle" x="758.5" y="-51.8" font-family="Times,serif" font-size="14.00" fill="#5b00c0">rw</text>
</g>
</g>
</svg>
