<?xml version="1.0" encoding="UTF-8" standalone="no"?>
<!DOCTYPE svg PUBLIC "-//W3C//DTD SVG 1.1//EN"
 "http://www.w3.org/Graphics/SVG/1.1/DTD/svg11.dtd">
<!-- Generated by graphviz version 2.40.1 (20161225.0304)
 -->
<!-- Title: a_graph Pages: 1 -->
<svg width="5360pt" height="119pt"
 viewBox="0.00 0.00 5360.00 119.00" xmlns="http://www.w3.org/2000/svg" xmlns:xlink="http://www.w3.org/1999/xlink">
<g id="graph0" class="graph" transform="scale(1 1) rotate(0) translate(4 115)">
<title>a_graph</title>
<polygon fill="#ffffff" stroke="transparent" points="-4,4 -4,-115 5356,-115 5356,4 -4,4"/>
<!-- T2455 -->
<g id="node1" class="node">
<title>T2455</title>
<polygon fill="none" stroke="#0058ad" points="0,-81.5 0,-110.5 5352,-110.5 5352,-81.5 0,-81.5"/>
<text text-anchor="middle" x="28.5" y="-92.3" font-family="Times,serif" font-size="14.00" fill="#0058ad">a 18 11</text>
<polyline fill="none" stroke="#0058ad" points="57,-81.5 57,-110.5 "/>
<text text-anchor="middle" x="939.5" y="-92.3" font-family="Times,serif" font-size="14.00" fill="#0058ad">r 17 [2 3 4 5 7 8 9 10 11 12 13 14 6 15 16 17 18 19 21 22 23 24 25 20 26 27 28 29 30 34 31 35 33 37 38 40 42 43 41 44 45 46 47 48 49 50 51 52 53 54 55 56 57 58 59 60 61 62 64 66 67 68 70 65 73 76 77 78 79 80 85 84 87 71 72 89 90 91 92 93 94 95 96 97 98 99 101 102 100 103 104 105 107 108 106 111 112 113]</text>
<polyline fill="none" stroke="#0058ad" points="1822,-81.5 1822,-110.5 "/>
<text text-anchor="middle" x="2704.5" y="-92.3" font-family="Times,serif" font-size="14.00" fill="#0058ad">r 17 [2 3 4 5 7 8 9 10 11 12 13 14 6 15 16 17 18 19 21 22 23 24 25 20 26 27 28 29 30 34 31 35 33 37 38 40 42 43 41 44 45 46 47 48 49 50 51 52 53 54 55 56 57 58 59 60 61 62 64 66 67 68 70 65 73 76 77 78 79 80 85 84 87 71 72 89 90 91 92 93 94 95 96 97 98 99 101 102 100 103 104 105 107 108 106 111 112 113]</text>
<polyline fill="none" stroke="#0058ad" points="3587,-81.5 3587,-110.5 "/>
<text text-anchor="middle" x="4469.5" y="-92.3" font-family="Times,serif" font-size="14.00" fill="#0058ad">r 17 [2 3 4 5 7 8 9 10 11 12 13 14 6 15 16 17 18 19 21 22 23 24 25 20 26 27 28 29 30 34 31 35 33 37 38 40 42 43 41 44 45 46 47 48 49 50 51 52 53 54 55 56 57 58 59 60 61 62 64 66 67 68 70 65 73 76 77 78 79 80 85 84 87 71 72 89 90 91 92 93 94 95 96 97 98 99 101 102 100 103 104 105 107 108 106 111 112 113]</text>
</g>
<!-- T2457 -->
<g id="node2" class="node">
<title>T2457</title>
<polygon fill="none" stroke="#0058ad" points="339.5,-.5 339.5,-29.5 666.5,-29.5 666.5,-.5 339.5,-.5"/>
<text text-anchor="middle" x="371.5" y="-11.3" font-family="Times,serif" font-size="14.00" fill="#0058ad">a 17 109</text>
<polyline fill="none" stroke="#0058ad" points="403.5,-.5 403.5,-29.5 "/>
<text text-anchor="middle" x="435.5" y="-11.3" font-family="Times,serif" font-size="14.00" fill="#0058ad">a 17 110</text>
<polyline fill="none" stroke="#0058ad" points="467.5,-.5 467.5,-29.5 "/>
<text text-anchor="middle" x="496" y="-11.3" font-family="Times,serif" font-size="14.00" fill="#0058ad">a 14 63</text>
<polyline fill="none" stroke="#0058ad" points="524.5,-.5 524.5,-29.5 "/>
<text text-anchor="middle" x="595.5" y="-11.3" font-family="Times,serif" font-size="14.00" fill="#0058ad">r 18 [1 2 3 4 5 6 7 8 9]</text>
</g>
<!-- T2455&#45;&gt;T2457 -->
<g id="edge1" class="edge">
<title>T2455:f1&#45;&gt;T2457:f0</title>
<path fill="none" stroke="#5b00c0" d="M939,-81C939,168.9947 386.4251,-271.126 371.3156,-40.0017"/>
<polygon fill="#5b00c0" stroke="#5b00c0" points="374.8138,-39.8846 371,-30 367.8172,-40.1054 374.8138,-39.8846"/>
<text text-anchor="middle" x="943.5" y="-51.8" font-family="Times,serif" font-size="14.00" fill="#5b00c0">rw</text>
</g>
<!-- T2457&#45;&gt;T2455 -->
<g id="edge2" class="edge">
<title>T2457:f3&#45;&gt;T2455:f0</title>
<path fill="none" stroke="#5b00c0" d="M596,-30C596,-43.4816 367.4299,-46.821 354,-48 212.4704,-60.4246 36.813,58.5903 28.3204,-70.8124"/>
<polygon fill="#5b00c0" stroke="#5b00c0" points="24.8161,-70.8949 28,-81 31.8127,-71.115 24.8161,-70.8949"/>
<text text-anchor="middle" x="361.5" y="-51.8" font-family="Times,serif" font-size="14.00" fill="#5b00c0">rw</text>
</g>
</g>
</svg>
