<?xml version="1.0" encoding="UTF-8" standalone="no"?>
<!DOCTYPE svg PUBLIC "-//W3C//DTD SVG 1.1//EN"
 "http://www.w3.org/Graphics/SVG/1.1/DTD/svg11.dtd">
<!-- Generated by graphviz version 2.40.1 (20161225.0304)
 -->
<!-- Title: a_graph Pages: 1 -->
<svg width="3081pt" height="119pt"
 viewBox="0.00 0.00 3081.00 119.00" xmlns="http://www.w3.org/2000/svg" xmlns:xlink="http://www.w3.org/1999/xlink">
<g id="graph0" class="graph" transform="scale(1 1) rotate(0) translate(4 115)">
<title>a_graph</title>
<polygon fill="#ffffff" stroke="transparent" points="-4,4 -4,-115 3077,-115 3077,4 -4,4"/>
<!-- T10017 -->
<g id="node1" class="node">
<title>T10017</title>
<polygon fill="none" stroke="#0058ad" points="0,-81.5 0,-110.5 2946,-110.5 2946,-81.5 0,-81.5"/>
<text text-anchor="middle" x="787" y="-92.3" font-family="Times,serif" font-size="14.00" fill="#0058ad">r 53 [1 3 4 2 6 7 8 9 10 11 5 12 13 14 15 16 17 18 19 20 21 22 23 24 25 26 27 28 29 30 31 32 33 34 35 37 38 39 40 41 43 44 45 48 49 50 52 51 53 54 57 58 55 56 60 61 62 63 64 65 66 67 68 69 70 71 72 73 74 75 76 77 78 79 80 81 82 83 84 85 86 87 88 89 90 91 92 93 94 95 98 99]</text>
<polyline fill="none" stroke="#0058ad" points="1574,-81.5 1574,-110.5 "/>
<text text-anchor="middle" x="2231.5" y="-92.3" font-family="Times,serif" font-size="14.00" fill="#0058ad">r 51 [1 2 3 5 4 7 6 8 9 10 11 12 13 14 15 16 17 18 19 20 21 22 23 24 25 26 27 28 29 30 31 32 33 34 36 38 39 40 41 42 43 44 45 46 47 48 49 50 51 52 53 54 55 56 58 59 60 61 62 65 66 68 71 73 74 75 76 77 78 79 80 81 82 83 84 85 86]</text>
<polyline fill="none" stroke="#0058ad" points="2889,-81.5 2889,-110.5 "/>
<text text-anchor="middle" x="2917.5" y="-92.3" font-family="Times,serif" font-size="14.00" fill="#0058ad">a 51 87</text>
</g>
<!-- T10015 -->
<g id="node2" class="node">
<title>T10015</title>
<polygon fill="none" stroke="#0058ad" points="329,-.5 329,-29.5 3073,-29.5 3073,-.5 329,-.5"/>
<text text-anchor="middle" x="986.5" y="-11.3" font-family="Times,serif" font-size="14.00" fill="#0058ad">r 51 [1 2 3 5 4 7 6 8 9 10 11 12 13 14 15 16 17 18 19 20 21 22 23 24 25 26 27 28 29 30 31 32 33 34 36 38 39 40 41 42 43 44 45 46 47 48 49 50 51 52 53 54 55 56 58 59 60 61 62 65 66 68 71 73 74 75 76 77 78 79 80 81 82 83 84 85 86]</text>
<polyline fill="none" stroke="#0058ad" points="1644,-.5 1644,-29.5 "/>
<text text-anchor="middle" x="1672.5" y="-11.3" font-family="Times,serif" font-size="14.00" fill="#0058ad">a 53 96</text>
<polyline fill="none" stroke="#0058ad" points="1701,-.5 1701,-29.5 "/>
<text text-anchor="middle" x="1729.5" y="-11.3" font-family="Times,serif" font-size="14.00" fill="#0058ad">a 53 97</text>
<polyline fill="none" stroke="#0058ad" points="1758,-.5 1758,-29.5 "/>
<text text-anchor="middle" x="2415.5" y="-11.3" font-family="Times,serif" font-size="14.00" fill="#0058ad">r 51 [1 2 3 5 4 7 6 8 9 10 11 12 13 14 15 16 17 18 19 20 21 22 23 24 25 26 27 28 29 30 31 32 33 34 36 38 39 40 41 42 43 44 45 46 47 48 49 50 51 52 53 54 55 56 58 59 60 61 62 65 66 68 71 73 74 75 76 77 78 79 80 81 82 83 84 85 86]</text>
</g>
<!-- T10017&#45;&gt;T10015 -->
<g id="edge1" class="edge">
<title>T10017:f0&#45;&gt;T10015:f1</title>
<path fill="none" stroke="#5b00c0" d="M787,-81C787,112.434 1640.3113,-214.7762 1671.1439,-40.1545"/>
<polygon fill="#5b00c0" stroke="#5b00c0" points="1674.6474,-40.2587 1672,-30 1667.6721,-39.6706 1674.6474,-40.2587"/>
<text text-anchor="middle" x="1675.5" y="-51.8" font-family="Times,serif" font-size="14.00" fill="#5b00c0">rw</text>
</g>
<!-- T10015&#45;&gt;T10017 -->
<g id="edge2" class="edge">
<title>T10015:f0&#45;&gt;T10017:f2</title>
<path fill="none" stroke="#5b00c0" d="M986,-30C986,-49.4786 1667.5281,-47.489 1687,-48 1820.3069,-51.4983 2863.0514,50.4437 2915.9173,-71.0442"/>
<polygon fill="#5b00c0" stroke="#5b00c0" points="2912.5265,-71.9286 2918,-81 2919.3781,-70.4952 2912.5265,-71.9286"/>
<text text-anchor="middle" x="2913.5" y="-51.8" font-family="Times,serif" font-size="14.00" fill="#5b00c0">rw</text>
</g>
</g>
</svg>
