<?xml version="1.0" encoding="UTF-8" standalone="no"?>
<!DOCTYPE svg PUBLIC "-//W3C//DTD SVG 1.1//EN"
 "http://www.w3.org/Graphics/SVG/1.1/DTD/svg11.dtd">
<!-- Generated by graphviz version 2.40.1 (20161225.0304)
 -->
<!-- Title: a_graph Pages: 1 -->
<svg width="6395pt" height="119pt"
 viewBox="0.00 0.00 6394.50 119.00" xmlns="http://www.w3.org/2000/svg" xmlns:xlink="http://www.w3.org/1999/xlink">
<g id="graph0" class="graph" transform="scale(1 1) rotate(0) translate(4 115)">
<title>a_graph</title>
<polygon fill="#ffffff" stroke="transparent" points="-4,4 -4,-115 6390.5,-115 6390.5,4 -4,4"/>
<!-- T23263 -->
<g id="node1" class="node">
<title>T23263</title>
<polygon fill="none" stroke="#0058ad" points="2742.5,-81.5 2742.5,-110.5 6386.5,-110.5 6386.5,-81.5 2742.5,-81.5"/>
<text text-anchor="middle" x="3621.5" y="-92.3" font-family="Times,serif" font-size="14.00" fill="#0058ad">r 116 [1 2 3 4 5 6 7 8 9 10 11 12 13 16 17 18 19 20 21 22 23 24 25 26 27 29 28 30 31 32 36 33 37 38 39 40 43 44 47 48 49 50 51 52 53 54 55 56 57 58 59 60 61 62 63 64 65 66 67 68 70 69 71 72 73 74 75 76 77 78 79 80 81 82 83 84 85 86 88 89 91 92 93 90 94 95 96 101 102 103 104 105 106 107 108 110 111 112]</text>
<polyline fill="none" stroke="#0058ad" points="4500.5,-81.5 4500.5,-110.5 "/>
<text text-anchor="middle" x="4532.5" y="-92.3" font-family="Times,serif" font-size="14.00" fill="#0058ad">a 117 45</text>
<polyline fill="none" stroke="#0058ad" points="4564.5,-81.5 4564.5,-110.5 "/>
<text text-anchor="middle" x="4596.5" y="-92.3" font-family="Times,serif" font-size="14.00" fill="#0058ad">a 114 66</text>
<polyline fill="none" stroke="#0058ad" points="4628.5,-81.5 4628.5,-110.5 "/>
<text text-anchor="middle" x="5507.5" y="-92.3" font-family="Times,serif" font-size="14.00" fill="#0058ad">r 116 [1 2 3 4 5 6 7 8 9 10 11 12 13 16 17 18 19 20 21 22 23 24 25 26 27 29 28 30 31 32 36 33 37 38 39 40 43 44 47 48 49 50 51 52 53 54 55 56 57 58 59 60 61 62 63 64 65 66 67 68 70 69 71 72 73 74 75 76 77 78 79 80 81 82 83 84 85 86 88 89 91 92 93 90 94 95 96 101 102 103 104 105 106 107 108 110 111 112]</text>
</g>
<!-- T23264 -->
<g id="node2" class="node">
<title>T23264</title>
<polygon fill="none" stroke="#0058ad" points="0,-.5 0,-29.5 4667,-29.5 4667,-.5 0,-.5"/>
<text text-anchor="middle" x="879" y="-11.3" font-family="Times,serif" font-size="14.00" fill="#0058ad">r 116 [1 2 3 4 5 6 7 8 9 10 11 12 13 16 17 18 19 20 21 22 23 24 25 26 27 29 28 30 31 32 36 33 37 38 39 40 43 44 47 48 49 50 51 52 53 54 55 56 57 58 59 60 61 62 63 64 65 66 67 68 70 69 71 72 73 74 75 76 77 78 79 80 81 82 83 84 85 86 88 89 91 92 93 90 94 95 96 101 102 103 104 105 106 107 108 110 111 112]</text>
<polyline fill="none" stroke="#0058ad" points="1758,-.5 1758,-29.5 "/>
<text text-anchor="middle" x="2637" y="-11.3" font-family="Times,serif" font-size="14.00" fill="#0058ad">r 116 [1 2 3 4 5 6 7 8 9 10 11 12 13 16 17 18 19 20 21 22 23 24 25 26 27 29 28 30 31 32 36 33 37 38 39 40 43 44 47 48 49 50 51 52 53 54 55 56 57 58 59 60 61 62 63 64 65 66 67 68 70 69 71 72 73 74 75 76 77 78 79 80 81 82 83 84 85 86 88 89 91 92 93 90 94 95 96 101 102 103 104 105 106 107 108 110 111 112]</text>
<polyline fill="none" stroke="#0058ad" points="3516,-.5 3516,-29.5 "/>
<text text-anchor="middle" x="4056" y="-11.3" font-family="Times,serif" font-size="14.00" fill="#0058ad">r 114 [1 2 3 4 5 6 7 8 9 10 12 13 14 15 16 17 18 19 20 21 22 23 24 25 26 27 28 29 30 31 32 33 34 35 36 37 38 39 40 41 42 43 44 45 46 47 48 50 51 52 53 54 55 56 57 58 59 60 61 62 63 64 65]</text>
<polyline fill="none" stroke="#0058ad" points="4596,-.5 4596,-29.5 "/>
<text text-anchor="middle" x="4631.5" y="-11.3" font-family="Times,serif" font-size="14.00" fill="#0058ad">a 116 109</text>
</g>
<!-- T23263&#45;&gt;T23264 -->
<g id="edge1" class="edge">
<title>T23263:f0&#45;&gt;T23264:f3</title>
<path fill="none" stroke="#5b00c0" d="M3621.5,-81C3621.5,-74.3887 4516.6082,-41.2507 4621.5037,-31.5307"/>
<polygon fill="#5b00c0" stroke="#5b00c0" points="4622.145,-34.9734 4631.5,-30 4621.0854,-28.0541 4622.145,-34.9734"/>
<text text-anchor="middle" x="4283" y="-51.8" font-family="Times,serif" font-size="14.00" fill="#5b00c0">rw</text>
</g>
<!-- T23264&#45;&gt;T23263 -->
<g id="edge2" class="edge">
<title>T23264:f2&#45;&gt;T23263:f2</title>
<path fill="none" stroke="#5b00c0" d="M4056.5,-30C4056.5,-43.26 4281.2963,-46.7796 4294.5,-48 4425.4031,-60.0987 4587.6873,48.0741 4596.1542,-70.833"/>
<polygon fill="#5b00c0" stroke="#5b00c0" points="4592.662,-71.1248 4596.5,-81 4599.658,-70.8868 4592.662,-71.1248"/>
<text text-anchor="middle" x="4602" y="-51.8" font-family="Times,serif" font-size="14.00" fill="#5b00c0">rw</text>
</g>
</g>
</svg>
