<?xml version="1.0" encoding="UTF-8" standalone="no"?>
<!DOCTYPE svg PUBLIC "-//W3C//DTD SVG 1.1//EN"
 "http://www.w3.org/Graphics/SVG/1.1/DTD/svg11.dtd">
<!-- Generated by graphviz version 2.40.1 (20161225.0304)
 -->
<!-- Title: a_graph Pages: 1 -->
<svg width="3703pt" height="119pt"
 viewBox="0.00 0.00 3703.00 119.00" xmlns="http://www.w3.org/2000/svg" xmlns:xlink="http://www.w3.org/1999/xlink">
<g id="graph0" class="graph" transform="scale(1 1) rotate(0) translate(4 115)">
<title>a_graph</title>
<polygon fill="#ffffff" stroke="transparent" points="-4,4 -4,-115 3699,-115 3699,4 -4,4"/>
<!-- T6927 -->
<g id="node1" class="node">
<title>T6927</title>
<polygon fill="none" stroke="#0058ad" points="1959,-81.5 1959,-110.5 3695,-110.5 3695,-81.5 1959,-81.5"/>
<text text-anchor="middle" x="1987.5" y="-92.3" font-family="Times,serif" font-size="14.00" fill="#0058ad">a 39 74</text>
<polyline fill="none" stroke="#0058ad" points="2016,-81.5 2016,-110.5 "/>
<text text-anchor="middle" x="2827" y="-92.3" font-family="Times,serif" font-size="14.00" fill="#0058ad">r 37 [1 2 3 4 5 6 7 8 11 12 13 9 10 14 15 16 17 18 19 20 21 22 23 24 25 26 27 28 29 30 31 32 33 34 35 37 36 39 40 38 41 42 43 44 46 47 48 45 49 50 51 52 53 54 55 56 57 58 59 60 61 62 64 63 65 66 67 69 71 68 72 73 74 75 76 77 78 80 81 82 83 84 86 87 88 89 94 95 96 97 98 99 101 102]</text>
<polyline fill="none" stroke="#0058ad" points="3638,-81.5 3638,-110.5 "/>
<text text-anchor="middle" x="3666.5" y="-92.3" font-family="Times,serif" font-size="14.00" fill="#0058ad">a 38 41</text>
</g>
<!-- T6925 -->
<g id="node2" class="node">
<title>T6925</title>
<polygon fill="none" stroke="#0058ad" points="0,-.5 0,-29.5 3352,-29.5 3352,-.5 0,-.5"/>
<text text-anchor="middle" x="509" y="-11.3" font-family="Times,serif" font-size="14.00" fill="#0058ad">r 39 [3 5 6 4 8 9 10 11 7 12 13 14 15 17 16 18 19 20 21 22 23 24 26 27 29 31 25 36 37 38 39 35 44 45 48 46 47 49 50 51 52 53 54 55 56 57 58 59 60 61 62 65 66 68 69 70 71 72 73]</text>
<polyline fill="none" stroke="#0058ad" points="1018,-.5 1018,-29.5 "/>
<text text-anchor="middle" x="2153" y="-11.3" font-family="Times,serif" font-size="14.00" fill="#0058ad">r 24 [1 2 4 5 6 7 8 9 11 10 12 13 14 15 16 17 18 19 20 21 22 23 24 25 26 28 29 31 32 33 34 35 36 37 38 39 40 41 42 43 44 45 46 47 49 50 52 51 53 54 55 56 57 58 59 60 61 62 63 64 65 66 67 68 69 70 71 72 73 74 75 76 77 78 79 80 81 82 83 84 85 86 87 88 89 90 91 92 93 94 95 96 99 100 101 102 103 104 105 106 108 107 109 111 112 113 114 115 116 117 118 119 120 121 122 123 124 125 126 127 128]</text>
<polyline fill="none" stroke="#0058ad" points="3288,-.5 3288,-29.5 "/>
<text text-anchor="middle" x="3320" y="-11.3" font-family="Times,serif" font-size="14.00" fill="#0058ad">a 37 103</text>
</g>
<!-- T6927&#45;&gt;T6925 -->
<g id="edge1" class="edge">
<title>T6927:f1&#45;&gt;T6925:f2</title>
<path fill="none" stroke="#5b00c0" d="M2827,-81C2827,135.731 3304.2403,-237.8845 3319.6201,-40.1784"/>
<polygon fill="#5b00c0" stroke="#5b00c0" points="3323.1245,-40.1236 3320,-30 3316.1294,-39.8625 3323.1245,-40.1236"/>
<text text-anchor="middle" x="3324.5" y="-51.8" font-family="Times,serif" font-size="14.00" fill="#5b00c0">rw</text>
</g>
<!-- T6925&#45;&gt;T6927 -->
<g id="edge2" class="edge">
<title>T6925:f0&#45;&gt;T6927:f0</title>
<path fill="none" stroke="#5b00c0" d="M509,-30C509,-68.8232 1815.9971,-94.0739 1948.9961,-95.8945"/>
<polygon fill="#5b00c0" stroke="#5b00c0" points="1948.9636,-99.3942 1959,-96 1949.0375,-92.3946 1948.9636,-99.3942"/>
<text text-anchor="middle" x="821.5" y="-51.8" font-family="Times,serif" font-size="14.00" fill="#5b00c0">rw</text>
</g>
</g>
</svg>
