<?xml version="1.0" encoding="UTF-8" standalone="no"?>
<!DOCTYPE svg PUBLIC "-//W3C//DTD SVG 1.1//EN"
 "http://www.w3.org/Graphics/SVG/1.1/DTD/svg11.dtd">
<!-- Generated by graphviz version 2.40.1 (20161225.0304)
 -->
<!-- Title: a_graph Pages: 1 -->
<svg width="4615pt" height="200pt"
 viewBox="0.00 0.00 4615.13 200.00" xmlns="http://www.w3.org/2000/svg" xmlns:xlink="http://www.w3.org/1999/xlink">
<g id="graph0" class="graph" transform="scale(1 1) rotate(0) translate(4 196)">
<title>a_graph</title>
<polygon fill="#ffffff" stroke="transparent" points="-4,4 -4,-196 4611.1316,-196 4611.1316,4 -4,4"/>
<!-- T3045 -->
<g id="node1" class="node">
<title>T3045</title>
<polygon fill="none" stroke="#0058ad" points="363.1316,-162.5 363.1316,-191.5 4607.1316,-191.5 4607.1316,-162.5 363.1316,-162.5"/>
<text text-anchor="middle" x="395.1316" y="-173.3" font-family="Times,serif" font-size="14.00" fill="#0058ad">a 18 112</text>
<polyline fill="none" stroke="#0058ad" points="427.1316,-162.5 427.1316,-191.5 "/>
<text text-anchor="middle" x="748.1316" y="-173.3" font-family="Times,serif" font-size="14.00" fill="#0058ad">r 20 [1 2 3 5 6 7 8 9 4 10 11 12 13 14 15 18 19 16 17 20 21 22 24 28 26 27 23 29 30 31 33 34 35 32 39 37 38 40]</text>
<polyline fill="none" stroke="#0058ad" points="1069.1316,-162.5 1069.1316,-191.5 "/>
<text text-anchor="middle" x="1953.6316" y="-173.3" font-family="Times,serif" font-size="14.00" fill="#0058ad">r 18 [1 2 3 4 5 6 7 8 9 11 12 13 17 14 15 18 19 20 21 24 23 25 22 28 29 30 31 32 26 34 35 36 33 38 37 39 41 40 43 42 45 44 46 47 48 50 49 51 55 53 54 56 57 58 60 61 59 62 63 65 64 66 67 68 69 70 71 72 73 74 75 76 77 78 79 81 80 83 85 89 86 90 94 95 96 97 98 99 100 101 103 102 104 107 106 108 110 111 112]</text>
<polyline fill="none" stroke="#0058ad" points="2838.1316,-162.5 2838.1316,-191.5 "/>
<text text-anchor="middle" x="3722.6316" y="-173.3" font-family="Times,serif" font-size="14.00" fill="#0058ad">r 18 [1 2 3 4 5 6 7 8 9 11 12 13 17 14 15 18 19 20 21 24 23 25 22 28 29 30 31 32 26 34 35 36 33 38 37 39 41 40 43 42 45 44 46 47 48 50 49 51 55 53 54 56 57 58 60 61 59 62 63 65 64 66 67 68 69 70 71 72 73 74 75 76 77 78 79 81 80 83 85 89 86 90 94 95 96 97 98 99 100 101 103 102 104 107 106 108 110 111 112]</text>
</g>
<!-- T3043 -->
<g id="node2" class="node">
<title>T3043</title>
<polygon fill="none" stroke="#0058ad" points="428.6316,-81.5 428.6316,-110.5 2287.6316,-110.5 2287.6316,-81.5 428.6316,-81.5"/>
<text text-anchor="middle" x="457.1316" y="-92.3" font-family="Times,serif" font-size="14.00" fill="#0058ad">a 20 41</text>
<polyline fill="none" stroke="#0058ad" points="485.6316,-81.5 485.6316,-110.5 "/>
<text text-anchor="middle" x="1358.1316" y="-92.3" font-family="Times,serif" font-size="14.00" fill="#0058ad">r 18 [1 2 3 4 5 6 7 8 9 11 12 13 17 14 15 18 19 20 21 24 23 25 22 28 29 30 31 32 26 34 35 36 33 38 37 39 41 40 43 42 45 44 46 47 48 50 49 51 55 53 54 56 57 58 60 61 59 62 63 65 64 66 67 68 69 70 71 72 73 74 75 76 77 78 79 81 80 83 85 89 86 90 94 95 96 97 98 99 100 101 103 102 104 107 106 108 110 111]</text>
<polyline fill="none" stroke="#0058ad" points="2230.6316,-81.5 2230.6316,-110.5 "/>
<text text-anchor="middle" x="2259.1316" y="-92.3" font-family="Times,serif" font-size="14.00" fill="#0058ad">a 20 42</text>
</g>
<!-- T3045&#45;&gt;T3043 -->
<g id="edge1" class="edge">
<title>T3045:f1&#45;&gt;T3043:f0</title>
<path fill="none" stroke="#5b00c0" d="M748.1316,-162C748.1316,-89.3921 659.6931,-141.2821 588.1316,-129 575.9701,-126.9127 491.8369,-125.9984 465.1999,-117.0557"/>
<polygon fill="#5b00c0" stroke="#5b00c0" points="467.2305,-114.2036 457.1316,-111 463.0285,-119.8021 467.2305,-114.2036"/>
<text text-anchor="middle" x="752.6316" y="-132.8" font-family="Times,serif" font-size="14.00" fill="#5b00c0">rw</text>
</g>
<!-- T3043&#45;&gt;T3045 -->
<g id="edge3" class="edge">
<title>T3043:f1&#45;&gt;T3045:f0</title>
<path fill="none" stroke="#5b00c0" d="M1358.1316,-111C1358.1316,-132.9224 590.9329,-126.6998 569.1316,-129 533.6621,-132.7423 419.5768,-124.4816 398.4975,-152.1922"/>
<polygon fill="#5b00c0" stroke="#5b00c0" points="395.0672,-151.4054 395.1316,-162 401.6882,-153.6776 395.0672,-151.4054"/>
<text text-anchor="middle" x="576.6316" y="-132.8" font-family="Times,serif" font-size="14.00" fill="#5b00c0">rw</text>
</g>
<!-- T3047 -->
<g id="node3" class="node">
<title>T3047</title>
<polygon fill="none" stroke="#0058ad" points="4.1316,-.5 4.1316,-29.5 1806.1316,-29.5 1806.1316,-.5 4.1316,-.5"/>
<text text-anchor="middle" x="876.6316" y="-11.3" font-family="Times,serif" font-size="14.00" fill="#0058ad">r 18 [1 2 3 4 5 6 7 8 9 11 12 13 17 14 15 18 19 20 21 24 23 25 22 28 29 30 31 32 26 34 35 36 33 38 37 39 41 40 43 42 45 44 46 47 48 50 49 51 55 53 54 56 57 58 60 61 59 62 63 65 64 66 67 68 69 70 71 72 73 74 75 76 77 78 79 81 80 83 85 89 86 90 94 95 96 97 98 99 100 101 103 102 104 107 106 108 110 111]</text>
<polyline fill="none" stroke="#0058ad" points="1749.1316,-.5 1749.1316,-29.5 "/>
<text text-anchor="middle" x="1777.6316" y="-11.3" font-family="Times,serif" font-size="14.00" fill="#0058ad">a 20 44</text>
</g>
<!-- T3043&#45;&gt;T3047 -->
<g id="edge2" class="edge">
<title>T3043:f2&#45;&gt;T3047:f1</title>
<path fill="none" stroke="#c02700" d="M2259.1316,-81C2259.1316,-32.7182 1896.8012,-16.6293 1816.4993,-15.1198"/>
<polygon fill="#c02700" stroke="#c02700" points="1816.1714,-11.6159 1806.1316,-15 1816.0904,-18.6154 1816.1714,-11.6159"/>
<text text-anchor="middle" x="2247.1316" y="-51.8" font-family="Times,serif" font-size="14.00" fill="#c02700">ww</text>
</g>
<!-- T3047&#45;&gt;T3045 -->
<g id="edge4" class="edge">
<title>T3047:f0&#45;&gt;T3045:f0</title>
<path fill="none" stroke="#5b00c0" d="M4.1316,-15C-2.5351,-15 .2439,-24.5843 4.1316,-30 109.001,-176.0878 384.1038,13.7182 394.8099,-151.6869"/>
<polygon fill="#5b00c0" stroke="#5b00c0" points="391.3215,-152.114 395.1316,-162 398.3181,-151.8957 391.3215,-152.114"/>
<text text-anchor="middle" x="391.6316" y="-92.3" font-family="Times,serif" font-size="14.00" fill="#5b00c0">rw</text>
</g>
</g>
</svg>
