<?xml version="1.0" encoding="UTF-8" standalone="no"?>
<!DOCTYPE svg PUBLIC "-//W3C//DTD SVG 1.1//EN"
 "http://www.w3.org/Graphics/SVG/1.1/DTD/svg11.dtd">
<!-- Generated by graphviz version 2.40.1 (20161225.0304)
 -->
<!-- Title: a_graph Pages: 1 -->
<svg width="2284pt" height="119pt"
 viewBox="0.00 0.00 2284.00 119.00" xmlns="http://www.w3.org/2000/svg" xmlns:xlink="http://www.w3.org/1999/xlink">
<g id="graph0" class="graph" transform="scale(1 1) rotate(0) translate(4 115)">
<title>a_graph</title>
<polygon fill="#ffffff" stroke="transparent" points="-4,4 -4,-115 2280,-115 2280,4 -4,4"/>
<!-- T26947 -->
<g id="node1" class="node">
<title>T26947</title>
<polygon fill="none" stroke="#0058ad" points="1315,-81.5 1315,-110.5 1785,-110.5 1785,-81.5 1315,-81.5"/>
<text text-anchor="middle" x="1479" y="-92.3" font-family="Times,serif" font-size="14.00" fill="#0058ad">r 137 [1 2 3 4 5 6 7 8 10 11 13 14 15 16 17 18 19 20 21]</text>
<polyline fill="none" stroke="#0058ad" points="1643,-81.5 1643,-110.5 "/>
<text text-anchor="middle" x="1678.5" y="-92.3" font-family="Times,serif" font-size="14.00" fill="#0058ad">a 134 121</text>
<polyline fill="none" stroke="#0058ad" points="1714,-81.5 1714,-110.5 "/>
<text text-anchor="middle" x="1749.5" y="-92.3" font-family="Times,serif" font-size="14.00" fill="#0058ad">a 134 122</text>
</g>
<!-- T26948 -->
<g id="node2" class="node">
<title>T26948</title>
<polygon fill="none" stroke="#0058ad" points="0,-.5 0,-29.5 2276,-29.5 2276,-.5 0,-.5"/>
<text text-anchor="middle" x="1042" y="-11.3" font-family="Times,serif" font-size="14.00" fill="#0058ad">r 134 [1 2 3 4 5 6 7 8 9 10 11 12 13 14 15 16 17 18 19 20 21 22 23 24 25 26 27 30 31 32 33 34 35 36 37 39 38 40 41 42 43 44 45 46 47 48 49 50 51 52 53 54 55 57 58 59 60 56 61 62 64 63 65 66 68 71 72 73 74 75 77 76 78 79 80 81 82 83 84 85 86 87 88 89 90 92 93 95 96 97 98 99 100 101 102 103 104 105 106 107 108 109 110 111 112 113 114 115 116 117 118 119 120]</text>
<polyline fill="none" stroke="#0058ad" points="2084,-.5 2084,-29.5 "/>
<text text-anchor="middle" x="2116" y="-11.3" font-family="Times,serif" font-size="14.00" fill="#0058ad">a 137 22</text>
<polyline fill="none" stroke="#0058ad" points="2148,-.5 2148,-29.5 "/>
<text text-anchor="middle" x="2180" y="-11.3" font-family="Times,serif" font-size="14.00" fill="#0058ad">a 137 23</text>
<polyline fill="none" stroke="#0058ad" points="2212,-.5 2212,-29.5 "/>
<text text-anchor="middle" x="2244" y="-11.3" font-family="Times,serif" font-size="14.00" fill="#0058ad">a 128 38</text>
</g>
<!-- T26947&#45;&gt;T26948 -->
<g id="edge1" class="edge">
<title>T26947:f0&#45;&gt;T26948:f1</title>
<path fill="none" stroke="#5b00c0" d="M1479,-81C1479,-24.8292 1545.4562,-56.3693 1601,-48 1613.9934,-46.0422 2037.105,-44.573 2106.4344,-33.2724"/>
<polygon fill="#5b00c0" stroke="#5b00c0" points="2107.6713,-36.5485 2116,-30 2105.4054,-29.9253 2107.6713,-36.5485"/>
<text text-anchor="middle" x="1608.5" y="-51.8" font-family="Times,serif" font-size="14.00" fill="#5b00c0">rw</text>
</g>
<!-- T26948&#45;&gt;T26947 -->
<g id="edge2" class="edge">
<title>T26948:f0&#45;&gt;T26947:f1</title>
<path fill="none" stroke="#5b00c0" d="M1042,-30C1042,-61.9046 1585.1427,-39.8926 1616,-48 1642.7498,-55.0282 1670.9218,-50.8222 1677.5469,-70.8363"/>
<polygon fill="#5b00c0" stroke="#5b00c0" points="1674.1198,-71.5961 1679,-81 1681.0493,-70.6053 1674.1198,-71.5961"/>
<text text-anchor="middle" x="1679.5" y="-51.8" font-family="Times,serif" font-size="14.00" fill="#5b00c0">rw</text>
</g>
</g>
</svg>
