<?xml version="1.0" encoding="UTF-8" standalone="no"?>
<!DOCTYPE svg PUBLIC "-//W3C//DTD SVG 1.1//EN"
 "http://www.w3.org/Graphics/SVG/1.1/DTD/svg11.dtd">
<!-- Generated by graphviz version 2.40.1 (20161225.0304)
 -->
<!-- Title: a_graph Pages: 1 -->
<svg width="1224pt" height="119pt"
 viewBox="0.00 0.00 1223.50 119.00" xmlns="http://www.w3.org/2000/svg" xmlns:xlink="http://www.w3.org/1999/xlink">
<g id="graph0" class="graph" transform="scale(1 1) rotate(0) translate(4 115)">
<title>a_graph</title>
<polygon fill="#ffffff" stroke="transparent" points="-4,4 -4,-115 1219.5,-115 1219.5,4 -4,4"/>
<!-- T25723 -->
<g id="node1" class="node">
<title>T25723</title>
<polygon fill="none" stroke="#0058ad" points="296.5,-81.5 296.5,-110.5 1215.5,-110.5 1215.5,-81.5 296.5,-81.5"/>
<text text-anchor="middle" x="698.5" y="-92.3" font-family="Times,serif" font-size="14.00" fill="#0058ad">r 127 [1 2 4 3 5 6 7 8 9 10 11 12 13 14 15 16 17 19 20 23 24 25 26 22 28 29 27 31 32 33 35 34 36 38 39 37 40 41 42 43 44 45 46 49 50 51 53]</text>
<polyline fill="none" stroke="#0058ad" points="1100.5,-81.5 1100.5,-110.5 "/>
<text text-anchor="middle" x="1129" y="-92.3" font-family="Times,serif" font-size="14.00" fill="#0058ad">a 130 1</text>
<polyline fill="none" stroke="#0058ad" points="1157.5,-81.5 1157.5,-110.5 "/>
<text text-anchor="middle" x="1186.5" y="-92.3" font-family="Times,serif" font-size="14.00" fill="#0058ad">r 131 []</text>
</g>
<!-- T25725 -->
<g id="node2" class="node">
<title>T25725</title>
<polygon fill="none" stroke="#0058ad" points="0,-.5 0,-29.5 984,-29.5 984,-.5 0,-.5"/>
<text text-anchor="middle" x="402" y="-11.3" font-family="Times,serif" font-size="14.00" fill="#0058ad">r 127 [1 2 4 3 5 6 7 8 9 10 11 12 13 14 15 16 17 19 20 23 24 25 26 22 28 29 27 31 32 33 35 34 36 38 39 37 40 41 42 43 44 45 46 49 50 51 53]</text>
<polyline fill="none" stroke="#0058ad" points="804,-.5 804,-29.5 "/>
<text text-anchor="middle" x="836" y="-11.3" font-family="Times,serif" font-size="14.00" fill="#0058ad">a 127 52</text>
<polyline fill="none" stroke="#0058ad" points="868,-.5 868,-29.5 "/>
<text text-anchor="middle" x="897" y="-11.3" font-family="Times,serif" font-size="14.00" fill="#0058ad">r 130 []</text>
<polyline fill="none" stroke="#0058ad" points="926,-.5 926,-29.5 "/>
<text text-anchor="middle" x="955" y="-11.3" font-family="Times,serif" font-size="14.00" fill="#0058ad">r 130 []</text>
</g>
<!-- T25723&#45;&gt;T25725 -->
<g id="edge1" class="edge">
<title>T25723:f0&#45;&gt;T25725:f1</title>
<path fill="none" stroke="#5b00c0" d="M698,-81C698,-19.4436 820.3019,-86.5374 834.6342,-40.0572"/>
<polygon fill="#5b00c0" stroke="#5b00c0" points="838.1224,-40.3801 836,-30 831.186,-39.438 838.1224,-40.3801"/>
<text text-anchor="middle" x="836.5" y="-51.8" font-family="Times,serif" font-size="14.00" fill="#5b00c0">rw</text>
</g>
<!-- T25725&#45;&gt;T25723 -->
<g id="edge2" class="edge">
<title>T25725:f2&#45;&gt;T25723:f1</title>
<path fill="none" stroke="#5b00c0" d="M897,-30C897,-131.8615 1112.9742,13.6412 1128.1599,-70.8275"/>
<polygon fill="#5b00c0" stroke="#5b00c0" points="1124.6888,-71.322 1129,-81 1131.665,-70.7458 1124.6888,-71.322"/>
<text text-anchor="middle" x="1131.5" y="-51.8" font-family="Times,serif" font-size="14.00" fill="#5b00c0">rw</text>
</g>
</g>
</svg>
