<?xml version="1.0" encoding="UTF-8" standalone="no"?>
<!DOCTYPE svg PUBLIC "-//W3C//DTD SVG 1.1//EN"
 "http://www.w3.org/Graphics/SVG/1.1/DTD/svg11.dtd">
<!-- Generated by graphviz version 2.40.1 (20161225.0304)
 -->
<!-- Title: a_graph Pages: 1 -->
<svg width="4958pt" height="119pt"
 viewBox="0.00 0.00 4957.50 119.00" xmlns="http://www.w3.org/2000/svg" xmlns:xlink="http://www.w3.org/1999/xlink">
<g id="graph0" class="graph" transform="scale(1 1) rotate(0) translate(4 115)">
<title>a_graph</title>
<polygon fill="#ffffff" stroke="transparent" points="-4,4 -4,-115 4953.5,-115 4953.5,4 -4,4"/>
<!-- T1519 -->
<g id="node1" class="node">
<title>T1519</title>
<polygon fill="none" stroke="#0058ad" points="0,-81.5 0,-110.5 4549,-110.5 4549,-81.5 0,-81.5"/>
<text text-anchor="middle" x="975" y="-92.3" font-family="Times,serif" font-size="14.00" fill="#0058ad">r 7 [3 5 6 7 8 9 10 11 12 13 14 15 16 17 18 19 20 21 22 23 24 25 26 27 28 29 30 31 32 33 34 35 36 37 38 39 40 41 42 43 44 45 47 46 48 50 51 49 52 53 54 55 56 57 58 59 62 66 67 68 69 70 71 72 73 74 75 76 78 79 80 81 82 83 84 85 87 88 89 90 91 92 93 94 95 96 97 98 101 102 100 103 104 105 107 108 109 111 114 116 117 118 119 120 121 122]</text>
<polyline fill="none" stroke="#0058ad" points="1950,-81.5 1950,-110.5 "/>
<text text-anchor="middle" x="2779" y="-92.3" font-family="Times,serif" font-size="14.00" fill="#0058ad">r 11 [1 2 3 4 5 6 9 10 13 15 16 17 19 18 20 21 22 23 24 25 26 27 28 29 30 31 32 34 35 36 37 38 39 40 41 42 43 44 46 47 48 49 50 51 52 53 55 56 54 57 58 59 60 61 62 63 64 65 66 67 68 70 69 71 73 75 74 76 77 78 79 80 81 82 85 87 88 89 92 93 94 95 96 98 99 100 101 102 103 104 105 106 108]</text>
<polyline fill="none" stroke="#0058ad" points="3608,-81.5 3608,-110.5 "/>
<text text-anchor="middle" x="3636.5" y="-92.3" font-family="Times,serif" font-size="14.00" fill="#0058ad">a 13 63</text>
<polyline fill="none" stroke="#0058ad" points="3665,-81.5 3665,-110.5 "/>
<text text-anchor="middle" x="4107" y="-92.3" font-family="Times,serif" font-size="14.00" fill="#0058ad">r 13 [2 1 3 4 6 7 5 9 10 11 8 12 13 14 16 17 18 19 20 25 26 27 28 30 31 32 33 37 34 38 39 40 41 42 44 45 46 47 48 49 43 51 52 50 55 56 53 61 59 60 62 63]</text>
</g>
<!-- T1517 -->
<g id="node2" class="node">
<title>T1517</title>
<polygon fill="none" stroke="#0058ad" points="2337.5,-.5 2337.5,-29.5 4949.5,-29.5 4949.5,-.5 2337.5,-.5"/>
<text text-anchor="middle" x="2770.5" y="-11.3" font-family="Times,serif" font-size="14.00" fill="#0058ad">r 13 [2 1 3 4 6 7 5 9 10 11 8 12 13 14 16 17 18 19 20 25 26 27 28 30 31 32 33 37 34 38 39 40 41 42 44 45 46 47 48 49 43 51 52 50 55 56 53 61 59 60 62]</text>
<polyline fill="none" stroke="#0058ad" points="3203.5,-.5 3203.5,-29.5 "/>
<text text-anchor="middle" x="3235.5" y="-11.3" font-family="Times,serif" font-size="14.00" fill="#0058ad">a 11 109</text>
<polyline fill="none" stroke="#0058ad" points="3267.5,-.5 3267.5,-29.5 "/>
<text text-anchor="middle" x="4108.5" y="-11.3" font-family="Times,serif" font-size="14.00" fill="#0058ad">r 11 [1 2 3 4 5 6 9 10 13 15 16 17 19 18 20 21 22 23 24 25 26 27 28 29 30 31 32 34 35 36 37 38 39 40 41 42 43 44 46 47 48 49 50 51 52 53 55 56 54 57 58 59 60 61 62 63 64 65 66 67 68 70 69 71 73 75 74 76 77 78 79 80 81 82 85 87 88 89 92 93 94 95 96 98 99 100 101 102 103 104 105 106 108 109]</text>
</g>
<!-- T1519&#45;&gt;T1517 -->
<g id="edge1" class="edge">
<title>T1519:f1&#45;&gt;T1517:f1</title>
<path fill="none" stroke="#5b00c0" d="M2779.5,-81C2779.5,119.3456 3219.6096,-221.5577 3235.0823,-40.2404"/>
<polygon fill="#5b00c0" stroke="#5b00c0" points="3238.5894,-40.1344 3235.5,-30 3231.5952,-39.849 3238.5894,-40.1344"/>
<text text-anchor="middle" x="3241" y="-51.8" font-family="Times,serif" font-size="14.00" fill="#5b00c0">rw</text>
</g>
<!-- T1517&#45;&gt;T1519 -->
<g id="edge2" class="edge">
<title>T1517:f0&#45;&gt;T1519:f2</title>
<path fill="none" stroke="#5b00c0" d="M2770.5,-30C2770.5,-43.3982 3239.1271,-47.1762 3252.5,-48 3334.3126,-53.04 3611.2398,-.2125 3634.8871,-70.7382"/>
<polygon fill="#5b00c0" stroke="#5b00c0" points="3631.4897,-71.6647 3636.5,-81 3638.4048,-70.5778 3631.4897,-71.6647"/>
<text text-anchor="middle" x="3635" y="-51.8" font-family="Times,serif" font-size="14.00" fill="#5b00c0">rw</text>
</g>
</g>
</svg>
