<?xml version="1.0" encoding="UTF-8" standalone="no"?>
<!DOCTYPE svg PUBLIC "-//W3C//DTD SVG 1.1//EN"
 "http://www.w3.org/Graphics/SVG/1.1/DTD/svg11.dtd">
<!-- Generated by graphviz version 2.40.1 (20161225.0304)
 -->
<!-- Title: a_graph Pages: 1 -->
<svg width="998pt" height="200pt"
 viewBox="0.00 0.00 997.50 200.00" xmlns="http://www.w3.org/2000/svg" xmlns:xlink="http://www.w3.org/1999/xlink">
<g id="graph0" class="graph" transform="scale(1 1) rotate(0) translate(4 196)">
<title>a_graph</title>
<polygon fill="#ffffff" stroke="transparent" points="-4,4 -4,-196 993.5,-196 993.5,4 -4,4"/>
<!-- T16421 -->
<g id="node1" class="node">
<title>T16421</title>
<polygon fill="none" stroke="#0058ad" points="192.5,-162.5 192.5,-191.5 989.5,-191.5 989.5,-162.5 192.5,-162.5"/>
<text text-anchor="middle" x="221" y="-173.3" font-family="Times,serif" font-size="14.00" fill="#0058ad">a 86 27</text>
<polyline fill="none" stroke="#0058ad" points="249.5,-162.5 249.5,-191.5 "/>
<text text-anchor="middle" x="484.5" y="-173.3" font-family="Times,serif" font-size="14.00" fill="#0058ad">r 86 [1 2 3 4 6 5 7 8 9 10 11 12 14 13 15 16 17 18 23 19 20 24 25 21 22 26 28 27]</text>
<polyline fill="none" stroke="#0058ad" points="719.5,-162.5 719.5,-191.5 "/>
<text text-anchor="middle" x="780" y="-173.3" font-family="Times,serif" font-size="14.00" fill="#0058ad">r 84 [1 2 3 4 5 8 9]</text>
<polyline fill="none" stroke="#0058ad" points="840.5,-162.5 840.5,-191.5 "/>
<text text-anchor="middle" x="915" y="-173.3" font-family="Times,serif" font-size="14.00" fill="#0058ad">r 85 [1 3 4 5 6 7 8 9 10]</text>
</g>
<!-- T16415 -->
<g id="node3" class="node">
<title>T16415</title>
<polygon fill="none" stroke="#0058ad" points="242.5,-81.5 242.5,-110.5 865.5,-110.5 865.5,-81.5 242.5,-81.5"/>
<text text-anchor="middle" x="271" y="-92.3" font-family="Times,serif" font-size="14.00" fill="#0058ad">a 83 45</text>
<polyline fill="none" stroke="#0058ad" points="299.5,-81.5 299.5,-110.5 "/>
<text text-anchor="middle" x="525.5" y="-92.3" font-family="Times,serif" font-size="14.00" fill="#0058ad">r 86 [1 2 3 4 6 5 7 8 9 10 11 12 14 13 15 16 17 18 23 19 20 24 25 21 22 26 28]</text>
<polyline fill="none" stroke="#0058ad" points="751.5,-81.5 751.5,-110.5 "/>
<text text-anchor="middle" x="780" y="-92.3" font-family="Times,serif" font-size="14.00" fill="#0058ad">a 84 10</text>
<polyline fill="none" stroke="#0058ad" points="808.5,-81.5 808.5,-110.5 "/>
<text text-anchor="middle" x="837" y="-92.3" font-family="Times,serif" font-size="14.00" fill="#0058ad">a 83 46</text>
</g>
<!-- T16421&#45;&gt;T16415 -->
<g id="edge1" class="edge">
<title>T16421:f2&#45;&gt;T16415:f2</title>
<path fill="none" stroke="#5b00c0" d="M780,-162C780,-143.2292 780,-136.1168 780,-121.3535"/>
<polygon fill="#5b00c0" stroke="#5b00c0" points="783.5001,-121 780,-111 776.5001,-121 783.5001,-121"/>
<text text-anchor="middle" x="787.5" y="-132.8" font-family="Times,serif" font-size="14.00" fill="#5b00c0">rw</text>
</g>
<!-- T16417 -->
<g id="node2" class="node">
<title>T16417</title>
<polygon fill="none" stroke="#0058ad" points="0,-.5 0,-29.5 452,-29.5 452,-.5 0,-.5"/>
<text text-anchor="middle" x="226" y="-11.3" font-family="Times,serif" font-size="14.00" fill="#0058ad">r 86 [1 2 3 4 6 5 7 8 9 10 11 12 14 13 15 16 17 18 23 19 20 24 25 21 22 26 28]</text>
</g>
<!-- T16417&#45;&gt;T16421 -->
<g id="edge2" class="edge">
<title>T16417:f0&#45;&gt;T16421:f0</title>
<path fill="none" stroke="#5b00c0" d="M223.998,-29.6443C222.2799,-42.9954 219.9371,-63.28 219,-81 217.2915,-113.3085 220.2673,-123.8773 220.8894,-151.8064"/>
<polygon fill="#5b00c0" stroke="#5b00c0" points="217.3916,-152.0386 221,-162 224.3912,-151.9626 217.3916,-152.0386"/>
<text text-anchor="middle" x="226.5" y="-92.3" font-family="Times,serif" font-size="14.00" fill="#5b00c0">rw</text>
</g>
<!-- T16415&#45;&gt;T16421 -->
<g id="edge3" class="edge">
<title>T16415:f1&#45;&gt;T16421:f0</title>
<path fill="none" stroke="#5b00c0" d="M525,-111C525,-175.7535 253.3408,-102.4445 223.6281,-152.0974"/>
<polygon fill="#5b00c0" stroke="#5b00c0" points="220.1823,-151.4368 221,-162 226.9481,-153.2324 220.1823,-151.4368"/>
<text text-anchor="middle" x="519.5" y="-132.8" font-family="Times,serif" font-size="14.00" fill="#5b00c0">rw</text>
</g>
<!-- T16415&#45;&gt;T16417 -->
<g id="edge4" class="edge">
<title>T16415&#45;&gt;T16417</title>
<path fill="none" stroke="#0050c0" d="M494.9814,-81.4253C438.7524,-67.5395 354.1192,-46.6392 294.8432,-32.0009"/>
<polygon fill="#0050c0" stroke="#0050c0" points="295.3681,-28.5255 284.8206,-29.5258 293.6898,-35.3213 295.3681,-28.5255"/>
<text text-anchor="middle" x="423.5" y="-51.8" font-family="Times,serif" font-size="14.00" fill="#0050c0">rt</text>
</g>
</g>
</svg>
