<?xml version="1.0" encoding="UTF-8" standalone="no"?>
<!DOCTYPE svg PUBLIC "-//W3C//DTD SVG 1.1//EN"
 "http://www.w3.org/Graphics/SVG/1.1/DTD/svg11.dtd">
<!-- Generated by graphviz version 2.40.1 (20161225.0304)
 -->
<!-- Title: a_graph Pages: 1 -->
<svg width="2543pt" height="119pt"
 viewBox="0.00 0.00 2543.00 119.00" xmlns="http://www.w3.org/2000/svg" xmlns:xlink="http://www.w3.org/1999/xlink">
<g id="graph0" class="graph" transform="scale(1 1) rotate(0) translate(4 115)">
<title>a_graph</title>
<polygon fill="#ffffff" stroke="transparent" points="-4,4 -4,-115 2539,-115 2539,4 -4,4"/>
<!-- T5475 -->
<g id="node1" class="node">
<title>T5475</title>
<polygon fill="none" stroke="#0058ad" points="0,-81.5 0,-110.5 2253,-110.5 2253,-81.5 0,-81.5"/>
<text text-anchor="middle" x="28.5" y="-92.3" font-family="Times,serif" font-size="14.00" fill="#0058ad">a 32 51</text>
<polyline fill="none" stroke="#0058ad" points="57,-81.5 57,-110.5 "/>
<text text-anchor="middle" x="85.5" y="-92.3" font-family="Times,serif" font-size="14.00" fill="#0058ad">a 32 52</text>
<polyline fill="none" stroke="#0058ad" points="114,-81.5 114,-110.5 "/>
<text text-anchor="middle" x="1183.5" y="-92.3" font-family="Times,serif" font-size="14.00" fill="#0058ad">r 29 [1 2 3 6 4 5 7 8 9 11 13 14 17 18 19 20 21 22 23 24 25 26 27 28 31 32 30 33 34 29 35 36 37 39 40 41 38 42 43 44 45 46 48 49 50 51 53 54 55 56 57 58 59 60 61 62 63 64 65 66 67 68 69 70 71 72 73 74 75 76 77 78 81 80 82 83 84 85 86 87 88 89 90 91 92 93 94 95 96 97 100 101 103 104 105 106 107 108 111 109 110 112 113 114 115 117 118 119 120 116 121 122 123 124 125]</text>
</g>
<!-- T5477 -->
<g id="node2" class="node">
<title>T5477</title>
<polygon fill="none" stroke="#0058ad" points="80,-.5 80,-29.5 2535,-29.5 2535,-.5 80,-.5"/>
<text text-anchor="middle" x="112" y="-11.3" font-family="Times,serif" font-size="14.00" fill="#0058ad">a 29 126</text>
<polyline fill="none" stroke="#0058ad" points="144,-.5 144,-29.5 "/>
<text text-anchor="middle" x="542.5" y="-11.3" font-family="Times,serif" font-size="14.00" fill="#0058ad">r 32 [1 2 3 4 6 7 5 8 9 10 11 12 13 14 15 17 19 16 20 21 22 23 18 26 24 25 27 28 29 30 31 32 34 35 36 33 37 38 39 41 40 42 43 44 45 46 49]</text>
<polyline fill="none" stroke="#0058ad" points="941,-.5 941,-29.5 "/>
<text text-anchor="middle" x="1339.5" y="-11.3" font-family="Times,serif" font-size="14.00" fill="#0058ad">r 32 [1 2 3 4 6 7 5 8 9 10 11 12 13 14 15 17 19 16 20 21 22 23 18 26 24 25 27 28 29 30 31 32 34 35 36 33 37 38 39 41 40 42 43 44 45 46 49]</text>
<polyline fill="none" stroke="#0058ad" points="1738,-.5 1738,-29.5 "/>
<text text-anchor="middle" x="2136.5" y="-11.3" font-family="Times,serif" font-size="14.00" fill="#0058ad">r 32 [1 2 3 4 6 7 5 8 9 10 11 12 13 14 15 17 19 16 20 21 22 23 18 26 24 25 27 28 29 30 31 32 34 35 36 33 37 38 39 41 40 42 43 44 45 46 49]</text>
</g>
<!-- T5475&#45;&gt;T5477 -->
<g id="edge1" class="edge">
<title>T5475:f2&#45;&gt;T5477:f0</title>
<path fill="none" stroke="#5b00c0" d="M1183.5,-81C1183.5,-66.9385 229.4984,-47.2858 121.4279,-32.591"/>
<polygon fill="#5b00c0" stroke="#5b00c0" points="122.0598,-29.1387 111.5,-30 120.292,-35.9119 122.0598,-29.1387"/>
<text text-anchor="middle" x="844" y="-51.8" font-family="Times,serif" font-size="14.00" fill="#5b00c0">rw</text>
</g>
<!-- T5477&#45;&gt;T5475 -->
<g id="edge2" class="edge">
<title>T5477:f1&#45;&gt;T5475:f0</title>
<path fill="none" stroke="#5b00c0" d="M542.5,-30C542.5,-56.51 103.8224,-53.0744 36.9926,-75.0223"/>
<polygon fill="#5b00c0" stroke="#5b00c0" points="34.6629,-72.382 28.5,-81 38.692,-78.1062 34.6629,-72.382"/>
<text text-anchor="middle" x="438" y="-51.8" font-family="Times,serif" font-size="14.00" fill="#5b00c0">rw</text>
</g>
</g>
</svg>
