<?xml version="1.0" encoding="UTF-8" standalone="no"?>
<!DOCTYPE svg PUBLIC "-//W3C//DTD SVG 1.1//EN"
 "http://www.w3.org/Graphics/SVG/1.1/DTD/svg11.dtd">
<!-- Generated by graphviz version 2.40.1 (20161225.0304)
 -->
<!-- Title: a_graph Pages: 1 -->
<svg width="2522pt" height="119pt"
 viewBox="0.00 0.00 2521.50 119.00" xmlns="http://www.w3.org/2000/svg" xmlns:xlink="http://www.w3.org/1999/xlink">
<g id="graph0" class="graph" transform="scale(1 1) rotate(0) translate(4 115)">
<title>a_graph</title>
<polygon fill="#ffffff" stroke="transparent" points="-4,4 -4,-115 2517.5,-115 2517.5,4 -4,4"/>
<!-- T5837 -->
<g id="node1" class="node">
<title>T5837</title>
<polygon fill="none" stroke="#0058ad" points="455.5,-81.5 455.5,-110.5 2513.5,-110.5 2513.5,-81.5 455.5,-81.5"/>
<text text-anchor="middle" x="943.5" y="-92.3" font-family="Times,serif" font-size="14.00" fill="#0058ad">r 33 [2 4 9 10 11 12 13 14 15 18 17 19 20 21 23 24 25 26 28 27 30 31 32 33 34 36 37 35 38 40 41 42 39 43 44 45 47 48 49 50 51 52 53 55 54 57 56 58 59 60 61 62 63 64 65]</text>
<polyline fill="none" stroke="#0058ad" points="1431.5,-81.5 1431.5,-110.5 "/>
<text text-anchor="middle" x="1683.5" y="-92.3" font-family="Times,serif" font-size="14.00" fill="#0058ad">r 35 [1 2 4 3 5 6 7 8 9 10 11 12 15 13 14 17 18 16 19 20 21 22 23 24 25 26 29 28 27 30]</text>
<polyline fill="none" stroke="#0058ad" points="1935.5,-81.5 1935.5,-110.5 "/>
<text text-anchor="middle" x="1964" y="-92.3" font-family="Times,serif" font-size="14.00" fill="#0058ad">a 35 34</text>
<polyline fill="none" stroke="#0058ad" points="1992.5,-81.5 1992.5,-110.5 "/>
<text text-anchor="middle" x="2253" y="-92.3" font-family="Times,serif" font-size="14.00" fill="#0058ad">r 35 [1 2 4 3 5 6 7 8 9 10 11 12 15 13 14 17 18 16 19 20 21 22 23 24 25 26 29 28 27 30 34]</text>
</g>
<!-- T5841 -->
<g id="node2" class="node">
<title>T5841</title>
<polygon fill="none" stroke="#0058ad" points="0,-.5 0,-29.5 1913,-29.5 1913,-.5 0,-.5"/>
<text text-anchor="middle" x="631.5" y="-11.3" font-family="Times,serif" font-size="14.00" fill="#0058ad">r 30 [1 2 3 4 5 6 7 8 9 10 11 12 13 14 15 16 17 18 19 20 21 22 23 24 25 26 27 28 29 30 31 32 33 34 35 36 37 39 40 41 42 43 44 45 46 47 49 50 52 53 54 55 56 57 59 60 61 62 63 64 65 66 67 68 69 70 71 72 73 74 77 76 75 78]</text>
<polyline fill="none" stroke="#0058ad" points="1263,-.5 1263,-29.5 "/>
<text text-anchor="middle" x="1515" y="-11.3" font-family="Times,serif" font-size="14.00" fill="#0058ad">r 35 [1 2 4 3 5 6 7 8 9 10 11 12 15 13 14 17 18 16 19 20 21 22 23 24 25 26 29 28 27 30]</text>
<polyline fill="none" stroke="#0058ad" points="1767,-.5 1767,-29.5 "/>
<text text-anchor="middle" x="1811.5" y="-11.3" font-family="Times,serif" font-size="14.00" fill="#0058ad">r 34 [1 2 3 4]</text>
<polyline fill="none" stroke="#0058ad" points="1856,-.5 1856,-29.5 "/>
<text text-anchor="middle" x="1884.5" y="-11.3" font-family="Times,serif" font-size="14.00" fill="#0058ad">a 33 67</text>
</g>
<!-- T5837&#45;&gt;T5841 -->
<g id="edge1" class="edge">
<title>T5837:f0&#45;&gt;T5841:f3</title>
<path fill="none" stroke="#5b00c0" d="M943.5,-81C943.5,-56.3566 1777.4572,-56.113 1875.1866,-34.329"/>
<polygon fill="#5b00c0" stroke="#5b00c0" points="1876.907,-37.389 1884.5,-30 1873.9564,-31.0412 1876.907,-37.389"/>
<text text-anchor="middle" x="1664" y="-51.8" font-family="Times,serif" font-size="14.00" fill="#5b00c0">rw</text>
</g>
<!-- T5841&#45;&gt;T5837 -->
<g id="edge2" class="edge">
<title>T5841:f1&#45;&gt;T5837:f2</title>
<path fill="none" stroke="#5b00c0" d="M1515.5,-30C1515.5,-47.8899 1657.7239,-45.9852 1675.5,-48 1800.4441,-62.1616 1955.7443,42.3114 1964.1438,-70.9262"/>
<polygon fill="#5b00c0" stroke="#5b00c0" points="1960.6488,-71.1299 1964.5,-81 1967.6444,-70.8825 1960.6488,-71.1299"/>
<text text-anchor="middle" x="1970" y="-51.8" font-family="Times,serif" font-size="14.00" fill="#5b00c0">rw</text>
</g>
</g>
</svg>
