<?xml version="1.0" encoding="UTF-8" standalone="no"?>
<!DOCTYPE svg PUBLIC "-//W3C//DTD SVG 1.1//EN"
 "http://www.w3.org/Graphics/SVG/1.1/DTD/svg11.dtd">
<!-- Generated by graphviz version 2.40.1 (20161225.0304)
 -->
<!-- Title: a_graph Pages: 1 -->
<svg width="1678pt" height="119pt"
 viewBox="0.00 0.00 1677.50 119.00" xmlns="http://www.w3.org/2000/svg" xmlns:xlink="http://www.w3.org/1999/xlink">
<g id="graph0" class="graph" transform="scale(1 1) rotate(0) translate(4 115)">
<title>a_graph</title>
<polygon fill="#ffffff" stroke="transparent" points="-4,4 -4,-115 1673.5,-115 1673.5,4 -4,4"/>
<!-- T1183 -->
<g id="node1" class="node">
<title>T1183</title>
<polygon fill="none" stroke="#0058ad" points="332.5,-81.5 332.5,-110.5 1669.5,-110.5 1669.5,-81.5 332.5,-81.5"/>
<text text-anchor="middle" x="361" y="-92.3" font-family="Times,serif" font-size="14.00" fill="#0058ad">a 11 53</text>
<polyline fill="none" stroke="#0058ad" points="389.5,-81.5 389.5,-110.5 "/>
<text text-anchor="middle" x="1029.5" y="-92.3" font-family="Times,serif" font-size="14.00" fill="#0058ad">r 12 [1 2 4 3 5 6 8 7 9 10 13 14 11 12 16 17 18 21 22 24 19 20 26 27 30 31 32 34 35 36 37 38 39 40 41 42 43 44 45 46 50 53 54 55 56 51 52 58 59 60 61 62 63 64 65 66 67 68 70 71 72 73 74 75 78 79 77 81 82 80 83 84 85 86 87]</text>
</g>
<!-- T1177 -->
<g id="node2" class="node">
<title>T1177</title>
<polygon fill="none" stroke="#0058ad" points="0,-.5 0,-29.5 1292,-29.5 1292,-.5 0,-.5"/>
<text text-anchor="middle" x="229.5" y="-11.3" font-family="Times,serif" font-size="14.00" fill="#0058ad">r 5 [3 4 5 6 7 8 9 10 11 12 13 14 15 18 20 21 22 23 27 28 29 30 31 32 33 34 35]</text>
<polyline fill="none" stroke="#0058ad" points="459,-.5 459,-29.5 "/>
<text text-anchor="middle" x="487.5" y="-11.3" font-family="Times,serif" font-size="14.00" fill="#0058ad">a 12 88</text>
<polyline fill="none" stroke="#0058ad" points="516,-.5 516,-29.5 "/>
<text text-anchor="middle" x="904" y="-11.3" font-family="Times,serif" font-size="14.00" fill="#0058ad">r 11 [1 2 3 4 5 6 9 10 13 15 16 17 19 18 20 21 22 23 24 25 26 27 28 29 30 31 32 34 35 36 37 38 39 40 41 42 43 44 46 47 48 49 50 51 52]</text>
</g>
<!-- T1183&#45;&gt;T1177 -->
<g id="edge1" class="edge">
<title>T1183:f1&#45;&gt;T1177:f1</title>
<path fill="none" stroke="#5b00c0" d="M1030,-81C1030,-52.8902 562.6447,-59.1205 495.0973,-35.9739"/>
<polygon fill="#5b00c0" stroke="#5b00c0" points="497.1249,-33.1203 487,-30 492.9692,-38.7533 497.1249,-33.1203"/>
<text text-anchor="middle" x="919.5" y="-51.8" font-family="Times,serif" font-size="14.00" fill="#5b00c0">rw</text>
</g>
<!-- T1177&#45;&gt;T1183 -->
<g id="edge2" class="edge">
<title>T1177:f2&#45;&gt;T1183:f0</title>
<path fill="none" stroke="#5b00c0" d="M904,-30C904,-47.6949 603.6046,-46.2143 586,-48 488.9812,-57.8408 369.7206,14.6759 361.455,-70.9936"/>
<polygon fill="#5b00c0" stroke="#5b00c0" points="357.9579,-70.8513 361,-81 364.9507,-71.1693 357.9579,-70.8513"/>
<text text-anchor="middle" x="593.5" y="-51.8" font-family="Times,serif" font-size="14.00" fill="#5b00c0">rw</text>
</g>
</g>
</svg>
