<?xml version="1.0" encoding="UTF-8" standalone="no"?>
<!DOCTYPE svg PUBLIC "-//W3C//DTD SVG 1.1//EN"
 "http://www.w3.org/Graphics/SVG/1.1/DTD/svg11.dtd">
<!-- Generated by graphviz version 2.40.1 (20161225.0304)
 -->
<!-- Title: a_graph Pages: 1 -->
<svg width="3393pt" height="119pt"
 viewBox="0.00 0.00 3392.56 119.00" xmlns="http://www.w3.org/2000/svg" xmlns:xlink="http://www.w3.org/1999/xlink">
<g id="graph0" class="graph" transform="scale(1 1) rotate(0) translate(4 115)">
<title>a_graph</title>
<polygon fill="#ffffff" stroke="transparent" points="-4,4 -4,-115 3388.5581,-115 3388.5581,4 -4,4"/>
<!-- T4869 -->
<g id="node1" class="node">
<title>T4869</title>
<polygon fill="none" stroke="#0058ad" points="1125,-81.5 1125,-110.5 3380,-110.5 3380,-81.5 1125,-81.5"/>
<text text-anchor="middle" x="1153.5" y="-92.3" font-family="Times,serif" font-size="14.00" fill="#0058ad">a 27 72</text>
<polyline fill="none" stroke="#0058ad" points="1182,-81.5 1182,-110.5 "/>
<text text-anchor="middle" x="1210.5" y="-92.3" font-family="Times,serif" font-size="14.00" fill="#0058ad">a 27 73</text>
<polyline fill="none" stroke="#0058ad" points="1239,-81.5 1239,-110.5 "/>
<text text-anchor="middle" x="1264" y="-92.3" font-family="Times,serif" font-size="14.00" fill="#0058ad">a 4 43</text>
<polyline fill="none" stroke="#0058ad" points="1289,-81.5 1289,-110.5 "/>
<text text-anchor="middle" x="2334.5" y="-92.3" font-family="Times,serif" font-size="14.00" fill="#0058ad">r 23 [1 2 3 4 5 6 7 8 10 9 11 12 15 18 14 19 21 22 23 20 24 26 27 25 28 29 30 31 32 33 34 35 39 40 41 42 43 44 45 46 47 48 50 49 53 51 54 55 56 57 59 60 61 62 63 64 65 66 67 68 69 70 71 72 73 75 74 76 78 77 79 80 81 82 83 84 85 86 87 89 90 91 92 93 94 95 96 97 98 99 100 101 102 103 104 105 106 107 108 110 111 112 113 114 115 116 117 118 119 120 121 122 123]</text>
</g>
<!-- T4871 -->
<g id="node2" class="node">
<title>T4871</title>
<polygon fill="none" stroke="#0058ad" points="0,-.5 0,-29.5 3359,-29.5 3359,-.5 0,-.5"/>
<text text-anchor="middle" x="597" y="-11.3" font-family="Times,serif" font-size="14.00" fill="#0058ad">r 27 [1 2 3 4 5 7 6 8 11 9 10 12 13 14 15 16 17 18 19 20 21 22 24 23 25 27 28 26 29 30 31 32 33 34 35 36 38 37 39 40 42 41 43 45 46 47 48 49 50 51 52 53 55 56 57 54 59 60 61 58 62 63 64 65 66 67 68 69 70 71]</text>
<polyline fill="none" stroke="#0058ad" points="1194,-.5 1194,-29.5 "/>
<text text-anchor="middle" x="2212.5" y="-11.3" font-family="Times,serif" font-size="14.00" fill="#0058ad">r 28 [1 2 3 4 5 6 7 8 9 10 11 13 12 14 16 15 19 20 17 18 21 22 23 24 25 26 27 28 29 30 31 32 33 34 35 36 37 38 40 41 39 43 44 42 45 46 47 48 50 49 52 53 51 54 55 56 57 58 59 60 61 62 63 64 65 66 67 68 69 71 72 73 70 75 77 78 76 79 80 83 82 81 84 85 87 86 89 90 91 88 92 93 95 96 97 98 99 94 100 101 102 103 104 105 106 107 108 109 114 116 117 115 118]</text>
<polyline fill="none" stroke="#0058ad" points="3231,-.5 3231,-29.5 "/>
<text text-anchor="middle" x="3263" y="-11.3" font-family="Times,serif" font-size="14.00" fill="#0058ad">a 23 124</text>
<polyline fill="none" stroke="#0058ad" points="3295,-.5 3295,-29.5 "/>
<text text-anchor="middle" x="3327" y="-11.3" font-family="Times,serif" font-size="14.00" fill="#0058ad">a 23 125</text>
</g>
<!-- T4869&#45;&gt;T4871 -->
<g id="edge1" class="edge">
<title>T4869:f3&#45;&gt;T4871:f2</title>
<path fill="none" stroke="#5b00c0" d="M3380.5,-96C3387.1667,-96 3384.1527,-86.5769 3380.5,-81 3351.5441,-36.791 3274.9905,-79.9252 3264.6595,-40.1597"/>
<polygon fill="#5b00c0" stroke="#5b00c0" points="3268.1115,-39.5386 3263.5,-30 3261.1566,-40.3324 3268.1115,-39.5386"/>
<text text-anchor="middle" x="3363" y="-51.8" font-family="Times,serif" font-size="14.00" fill="#5b00c0">rw</text>
</g>
<!-- T4871&#45;&gt;T4869 -->
<g id="edge2" class="edge">
<title>T4871:f0&#45;&gt;T4869:f0</title>
<path fill="none" stroke="#5b00c0" d="M596.5,-30C596.5,-86.525 1025.0724,-95.2947 1114.4061,-95.9563"/>
<polygon fill="#5b00c0" stroke="#5b00c0" points="1114.4849,-99.4566 1124.5,-96 1114.5153,-92.4566 1114.4849,-99.4566"/>
<text text-anchor="middle" x="662" y="-51.8" font-family="Times,serif" font-size="14.00" fill="#5b00c0">rw</text>
</g>
</g>
</svg>
