<?xml version="1.0" encoding="UTF-8" standalone="no"?>
<!DOCTYPE svg PUBLIC "-//W3C//DTD SVG 1.1//EN"
 "http://www.w3.org/Graphics/SVG/1.1/DTD/svg11.dtd">
<!-- Generated by graphviz version 2.40.1 (20161225.0304)
 -->
<!-- Title: a_graph Pages: 1 -->
<svg width="3299pt" height="119pt"
 viewBox="0.00 0.00 3299.00 119.00" xmlns="http://www.w3.org/2000/svg" xmlns:xlink="http://www.w3.org/1999/xlink">
<g id="graph0" class="graph" transform="scale(1 1) rotate(0) translate(4 115)">
<title>a_graph</title>
<polygon fill="#ffffff" stroke="transparent" points="-4,4 -4,-115 3295,-115 3295,4 -4,4"/>
<!-- T6515 -->
<g id="node1" class="node">
<title>T6515</title>
<polygon fill="none" stroke="#0058ad" points="0,-81.5 0,-110.5 3291,-110.5 3291,-81.5 0,-81.5"/>
<text text-anchor="middle" x="1032" y="-92.3" font-family="Times,serif" font-size="14.00" fill="#0058ad">r 30 [1 2 3 4 5 6 7 8 9 10 11 12 13 14 15 16 19 20 21 23 22 24 25 26 27 28 29 30 31 32 33 35 34 36 37 38 41 43 42 44 45 48 46 47 49 50 51 52 53 54 55 56 57 58 59 60 62 63 64 61 66 65 67 68 69 72 70 73 74 75 76 77 78 79 80 81 83 82 84 85 86 87 89 88 90 91 92 93 94 95 96 97 98 99 100 101 102 103 104 105 106 108 109 110 111 112 113 114 115 119 120 121 122]</text>
<polyline fill="none" stroke="#0058ad" points="2064,-81.5 2064,-110.5 "/>
<text text-anchor="middle" x="2652.5" y="-92.3" font-family="Times,serif" font-size="14.00" fill="#0058ad">r 35 [1 2 4 5 3 6 7 8 9 10 11 12 13 14 15 16 17 18 19 20 21 22 24 23 27 26 29 30 28 32 31 34 33 35 36 37 38 39 40 41 43 44 45 46 47 49 50 51 52 53 42 55 56 57 58 59 60 61 62 63 65 64 67 69 70 71 72 73 74]</text>
<polyline fill="none" stroke="#0058ad" points="3241,-81.5 3241,-110.5 "/>
<text text-anchor="middle" x="3266" y="-92.3" font-family="Times,serif" font-size="14.00" fill="#0058ad">a 37 2</text>
</g>
<!-- T6517 -->
<g id="node2" class="node">
<title>T6517</title>
<polygon fill="none" stroke="#0058ad" points="2902,-.5 2902,-29.5 3075,-29.5 3075,-.5 2902,-.5"/>
<text text-anchor="middle" x="2931" y="-11.3" font-family="Times,serif" font-size="14.00" fill="#0058ad">r 37 [1]</text>
<polyline fill="none" stroke="#0058ad" points="2960,-.5 2960,-29.5 "/>
<text text-anchor="middle" x="2988.5" y="-11.3" font-family="Times,serif" font-size="14.00" fill="#0058ad">a 35 75</text>
<polyline fill="none" stroke="#0058ad" points="3017,-.5 3017,-29.5 "/>
<text text-anchor="middle" x="3046" y="-11.3" font-family="Times,serif" font-size="14.00" fill="#0058ad">r 37 [1]</text>
</g>
<!-- T6515&#45;&gt;T6517 -->
<g id="edge1" class="edge">
<title>T6515:f1&#45;&gt;T6517:f1</title>
<path fill="none" stroke="#5b00c0" d="M2652.5,-81C2652.5,66.3562 2972.294,-169.0233 2987.909,-40.3554"/>
<polygon fill="#5b00c0" stroke="#5b00c0" points="2991.4244,-40.1832 2988.5,-30 2984.4358,-39.7843 2991.4244,-40.1832"/>
<text text-anchor="middle" x="2992" y="-51.8" font-family="Times,serif" font-size="14.00" fill="#5b00c0">rw</text>
</g>
<!-- T6517&#45;&gt;T6515 -->
<g id="edge2" class="edge">
<title>T6517:f0&#45;&gt;T6515:f2</title>
<path fill="none" stroke="#5b00c0" d="M2930.5,-30C2930.5,-47.0736 3205.265,-59.5338 3257.8567,-75.7244"/>
<polygon fill="#5b00c0" stroke="#5b00c0" points="3256.1409,-78.7775 3266.5,-81 3259.7878,-72.8026 3256.1409,-78.7775"/>
<text text-anchor="middle" x="3174" y="-51.8" font-family="Times,serif" font-size="14.00" fill="#5b00c0">rw</text>
</g>
</g>
</svg>
