<?xml version="1.0" encoding="UTF-8" standalone="no"?>
<!DOCTYPE svg PUBLIC "-//W3C//DTD SVG 1.1//EN"
 "http://www.w3.org/Graphics/SVG/1.1/DTD/svg11.dtd">
<!-- Generated by graphviz version 2.40.1 (20161225.0304)
 -->
<!-- Title: a_graph Pages: 1 -->
<svg width="2348pt" height="119pt"
 viewBox="0.00 0.00 2347.50 119.00" xmlns="http://www.w3.org/2000/svg" xmlns:xlink="http://www.w3.org/1999/xlink">
<g id="graph0" class="graph" transform="scale(1 1) rotate(0) translate(4 115)">
<title>a_graph</title>
<polygon fill="#ffffff" stroke="transparent" points="-4,4 -4,-115 2343.5,-115 2343.5,4 -4,4"/>
<!-- T20509 -->
<g id="node1" class="node">
<title>T20509</title>
<polygon fill="none" stroke="#0058ad" points="0,-81.5 0,-110.5 1197,-110.5 1197,-81.5 0,-81.5"/>
<text text-anchor="middle" x="281.5" y="-92.3" font-family="Times,serif" font-size="14.00" fill="#0058ad">r 103 [1 3 4 5 6 7 8 10 2 11 12 13 14 15 16 17 18 19 9 20 21 22 23 24 26 25 27 28 29 30 31 32 33]</text>
<polyline fill="none" stroke="#0058ad" points="563,-81.5 563,-110.5 "/>
<text text-anchor="middle" x="844.5" y="-92.3" font-family="Times,serif" font-size="14.00" fill="#0058ad">r 103 [1 3 4 5 6 7 8 10 2 11 12 13 14 15 16 17 18 19 9 20 21 22 23 24 26 25 27 28 29 30 31 32 33]</text>
<polyline fill="none" stroke="#0058ad" points="1126,-81.5 1126,-110.5 "/>
<text text-anchor="middle" x="1161.5" y="-92.3" font-family="Times,serif" font-size="14.00" fill="#0058ad">a 100 119</text>
</g>
<!-- T20507 -->
<g id="node2" class="node">
<title>T20507</title>
<polygon fill="none" stroke="#0058ad" points="201.5,-.5 201.5,-29.5 2339.5,-29.5 2339.5,-.5 201.5,-.5"/>
<text text-anchor="middle" x="233.5" y="-11.3" font-family="Times,serif" font-size="14.00" fill="#0058ad">a 103 34</text>
<polyline fill="none" stroke="#0058ad" points="265.5,-.5 265.5,-29.5 "/>
<text text-anchor="middle" x="1302.5" y="-11.3" font-family="Times,serif" font-size="14.00" fill="#0058ad">r 100 [1 2 4 5 6 7 11 12 13 14 15 16 17 18 19 20 21 22 23 24 26 27 28 29 30 25 31 32 33 35 34 36 37 38 39 40 41 43 44 45 46 48 47 49 42 51 52 53 54 50 55 57 56 58 59 62 60 61 64 65 66 67 63 69 70 71 72 73 68 74 75 77 79 80 81 82 76 83 84 85 86 87 89 91 90 92 93 95 96 97 98 99 100 94 102 101 103 104 105 106 107 108 109 110 111 112 113 114 115 116 117 118]</text>
</g>
<!-- T20509&#45;&gt;T20507 -->
<g id="edge1" class="edge">
<title>T20509:f0&#45;&gt;T20507:f0</title>
<path fill="none" stroke="#5b00c0" d="M281.5,-81C281.5,-53.7639 244.75,-58.9757 235.5625,-39.8516"/>
<polygon fill="#5b00c0" stroke="#5b00c0" points="238.975,-39.0706 233.5,-30 232.1235,-40.505 238.975,-39.0706"/>
<text text-anchor="middle" x="280" y="-51.8" font-family="Times,serif" font-size="14.00" fill="#5b00c0">rw</text>
</g>
<!-- T20507&#45;&gt;T20509 -->
<g id="edge2" class="edge">
<title>T20507:f1&#45;&gt;T20509:f2</title>
<path fill="none" stroke="#5b00c0" d="M1302.5,-30C1302.5,-81.6751 1258.6602,-94.4672 1207.7627,-95.8644"/>
<polygon fill="#5b00c0" stroke="#5b00c0" points="1207.4528,-92.368 1197.5,-96 1207.5454,-99.3674 1207.4528,-92.368"/>
<text text-anchor="middle" x="1307" y="-51.8" font-family="Times,serif" font-size="14.00" fill="#5b00c0">rw</text>
</g>
</g>
</svg>
