<?xml version="1.0" encoding="UTF-8" standalone="no"?>
<!DOCTYPE svg PUBLIC "-//W3C//DTD SVG 1.1//EN"
 "http://www.w3.org/Graphics/SVG/1.1/DTD/svg11.dtd">
<!-- Generated by graphviz version 2.40.1 (20161225.0304)
 -->
<!-- Title: a_graph Pages: 1 -->
<svg width="1772pt" height="119pt"
 viewBox="0.00 0.00 1772.00 119.00" xmlns="http://www.w3.org/2000/svg" xmlns:xlink="http://www.w3.org/1999/xlink">
<g id="graph0" class="graph" transform="scale(1 1) rotate(0) translate(4 115)">
<title>a_graph</title>
<polygon fill="#ffffff" stroke="transparent" points="-4,4 -4,-115 1768,-115 1768,4 -4,4"/>
<!-- T21809 -->
<g id="node1" class="node">
<title>T21809</title>
<polygon fill="none" stroke="#0058ad" points="0,-81.5 0,-110.5 1686,-110.5 1686,-81.5 0,-81.5"/>
<text text-anchor="middle" x="393.5" y="-92.3" font-family="Times,serif" font-size="14.00" fill="#0058ad">r 109 [1 2 4 3 6 7 5 8 11 12 13 9 10 14 15 16 19 21 22 25 28 29 26 27 30 31 32 34 36 33 37 38 39 40 41 42 35 44 45 43 46 47 48 49 50 51]</text>
<polyline fill="none" stroke="#0058ad" points="787,-81.5 787,-110.5 "/>
<text text-anchor="middle" x="815.5" y="-92.3" font-family="Times,serif" font-size="14.00" fill="#0058ad">a 110 5</text>
<polyline fill="none" stroke="#0058ad" points="844,-81.5 844,-110.5 "/>
<text text-anchor="middle" x="1211.5" y="-92.3" font-family="Times,serif" font-size="14.00" fill="#0058ad">r 108 [1 2 3 4 5 7 8 6 9 10 11 13 12 14 15 17 16 18 19 20 21 22 24 23 25 26 27 28 29 30 33 34 35 36 31 38 39 40 41 42 43 44 45]</text>
<polyline fill="none" stroke="#0058ad" points="1579,-81.5 1579,-110.5 "/>
<text text-anchor="middle" x="1632.5" y="-92.3" font-family="Times,serif" font-size="14.00" fill="#0058ad">r 110 [1 2 3 4 5]</text>
</g>
<!-- T21807 -->
<g id="node2" class="node">
<title>T21807</title>
<polygon fill="none" stroke="#0058ad" points="852,-.5 852,-29.5 1764,-29.5 1764,-.5 852,-.5"/>
<text text-anchor="middle" x="884" y="-11.3" font-family="Times,serif" font-size="14.00" fill="#0058ad">a 108 46</text>
<polyline fill="none" stroke="#0058ad" points="916,-.5 916,-29.5 "/>
<text text-anchor="middle" x="964" y="-11.3" font-family="Times,serif" font-size="14.00" fill="#0058ad">r 110 [1 2 3 4]</text>
<polyline fill="none" stroke="#0058ad" points="1012,-.5 1012,-29.5 "/>
<text text-anchor="middle" x="1388" y="-11.3" font-family="Times,serif" font-size="14.00" fill="#0058ad">r 108 [1 2 3 4 5 7 8 6 9 10 11 13 12 14 15 17 16 18 19 20 21 22 24 23 25 26 27 28 29 30 33 34 35 36 31 38 39 40 41 42 43 44 45 46]</text>
</g>
<!-- T21809&#45;&gt;T21807 -->
<g id="edge1" class="edge">
<title>T21809:f2&#45;&gt;T21807:f0</title>
<path fill="none" stroke="#5b00c0" d="M1212,-81C1212,-47.1431 935.6053,-63.5489 890.2593,-37.9383"/>
<polygon fill="#5b00c0" stroke="#5b00c0" points="892.9402,-35.6854 884,-30 887.4434,-40.0197 892.9402,-35.6854"/>
<text text-anchor="middle" x="1164.5" y="-51.8" font-family="Times,serif" font-size="14.00" fill="#5b00c0">rw</text>
</g>
<!-- T21807&#45;&gt;T21809 -->
<g id="edge2" class="edge">
<title>T21807:f1&#45;&gt;T21809:f1</title>
<path fill="none" stroke="#5b00c0" d="M964,-30C964,-37.4505 855.9514,-62.8504 823.8744,-75.6296"/>
<polygon fill="#5b00c0" stroke="#5b00c0" points="821.7433,-72.8282 815,-81 825.3675,-78.817 821.7433,-72.8282"/>
<text text-anchor="middle" x="919.5" y="-51.8" font-family="Times,serif" font-size="14.00" fill="#5b00c0">rw</text>
</g>
</g>
</svg>
