<?xml version="1.0" encoding="UTF-8" standalone="no"?>
<!DOCTYPE svg PUBLIC "-//W3C//DTD SVG 1.1//EN"
 "http://www.w3.org/Graphics/SVG/1.1/DTD/svg11.dtd">
<!-- Generated by graphviz version 2.40.1 (20161225.0304)
 -->
<!-- Title: a_graph Pages: 1 -->
<svg width="5253pt" height="119pt"
 viewBox="0.00 0.00 5252.50 119.00" xmlns="http://www.w3.org/2000/svg" xmlns:xlink="http://www.w3.org/1999/xlink">
<g id="graph0" class="graph" transform="scale(1 1) rotate(0) translate(4 115)">
<title>a_graph</title>
<polygon fill="#ffffff" stroke="transparent" points="-4,4 -4,-115 5248.5,-115 5248.5,4 -4,4"/>
<!-- T3143 -->
<g id="node1" class="node">
<title>T3143</title>
<polygon fill="none" stroke="#0058ad" points="0,-81.5 0,-110.5 3743,-110.5 3743,-81.5 0,-81.5"/>
<text text-anchor="middle" x="597" y="-92.3" font-family="Times,serif" font-size="14.00" fill="#0058ad">r 20 [1 2 3 4 5 6 8 9 10 7 12 13 14 11 15 16 17 18 19 20 21 22 23 24 25 26 27 28 29 31 34 32 33 35 36 37 38 39 41 42 43 44 45 46 47 48 49 50 40 51 54 52 55 53 56 57 58 59 60 62 64 63 66 65 67 68 69 70 72 71]</text>
<polyline fill="none" stroke="#0058ad" points="1194,-81.5 1194,-110.5 "/>
<text text-anchor="middle" x="1817" y="-92.3" font-family="Times,serif" font-size="14.00" fill="#0058ad">r 21 [1 2 4 5 3 6 7 8 9 10 11 12 14 13 15 16 17 18 19 20 22 23 24 25 26 27 29 30 28 21 31 32 33 36 37 34 38 39 40 41 42 43 44 45 46 47 48 49 50 51 52 55 53 57 54 61 65 58 66 67 68 69 71 72 73 74 70 77 75 76 78 79 80]</text>
<polyline fill="none" stroke="#0058ad" points="2440,-81.5 2440,-110.5 "/>
<text text-anchor="middle" x="3063" y="-92.3" font-family="Times,serif" font-size="14.00" fill="#0058ad">r 21 [1 2 4 5 3 6 7 8 9 10 11 12 14 13 15 16 17 18 19 20 22 23 24 25 26 27 29 30 28 21 31 32 33 36 37 34 38 39 40 41 42 43 44 45 46 47 48 49 50 51 52 55 53 57 54 61 65 58 66 67 68 69 71 72 73 74 70 77 75 76 78 79 80]</text>
<polyline fill="none" stroke="#0058ad" points="3686,-81.5 3686,-110.5 "/>
<text text-anchor="middle" x="3714.5" y="-92.3" font-family="Times,serif" font-size="14.00" fill="#0058ad">a 20 73</text>
</g>
<!-- T3141 -->
<g id="node2" class="node">
<title>T3141</title>
<polygon fill="none" stroke="#0058ad" points="2742.5,-.5 2742.5,-29.5 5244.5,-29.5 5244.5,-.5 2742.5,-.5"/>
<text text-anchor="middle" x="2771" y="-11.3" font-family="Times,serif" font-size="14.00" fill="#0058ad">a 21 82</text>
<polyline fill="none" stroke="#0058ad" points="2799.5,-.5 2799.5,-29.5 "/>
<text text-anchor="middle" x="3396.5" y="-11.3" font-family="Times,serif" font-size="14.00" fill="#0058ad">r 20 [1 2 3 4 5 6 8 9 10 7 12 13 14 11 15 16 17 18 19 20 21 22 23 24 25 26 27 28 29 31 34 32 33 35 36 37 38 39 41 42 43 44 45 46 47 48 49 50 40 51 54 52 55 53 56 57 58 59 60 62 64 63 66 65 67 68 69 70 72 71]</text>
<polyline fill="none" stroke="#0058ad" points="3993.5,-.5 3993.5,-29.5 "/>
<text text-anchor="middle" x="4590.5" y="-11.3" font-family="Times,serif" font-size="14.00" fill="#0058ad">r 20 [1 2 3 4 5 6 8 9 10 7 12 13 14 11 15 16 17 18 19 20 21 22 23 24 25 26 27 28 29 31 34 32 33 35 36 37 38 39 41 42 43 44 45 46 47 48 49 50 40 51 54 52 55 53 56 57 58 59 60 62 64 63 66 65 67 68 69 70 72 71]</text>
<polyline fill="none" stroke="#0058ad" points="5187.5,-.5 5187.5,-29.5 "/>
<text text-anchor="middle" x="5216" y="-11.3" font-family="Times,serif" font-size="14.00" fill="#0058ad">a 21 83</text>
</g>
<!-- T3143&#45;&gt;T3141 -->
<g id="edge1" class="edge">
<title>T3143:f1&#45;&gt;T3141:f0</title>
<path fill="none" stroke="#5b00c0" d="M1816.5,-81C1816.5,-31.4901 2622.3045,-16.2147 2732.4565,-15.0708"/>
<polygon fill="#5b00c0" stroke="#5b00c0" points="2732.525,-18.5705 2742.5,-15 2732.4755,-11.5707 2732.525,-18.5705"/>
<text text-anchor="middle" x="1952" y="-51.8" font-family="Times,serif" font-size="14.00" fill="#5b00c0">rw</text>
</g>
<!-- T3141&#45;&gt;T3143 -->
<g id="edge2" class="edge">
<title>T3141:f1&#45;&gt;T3143:f3</title>
<path fill="none" stroke="#5b00c0" d="M3396.5,-30C3396.5,-169.505 3698.5566,50.4356 3713.8954,-70.8163"/>
<polygon fill="#5b00c0" stroke="#5b00c0" points="3710.4134,-71.225 3714.5,-81 3717.4011,-70.8101 3710.4134,-71.225"/>
<text text-anchor="middle" x="3718" y="-51.8" font-family="Times,serif" font-size="14.00" fill="#5b00c0">rw</text>
</g>
</g>
</svg>
