<?xml version="1.0" encoding="UTF-8" standalone="no"?>
<!DOCTYPE svg PUBLIC "-//W3C//DTD SVG 1.1//EN"
 "http://www.w3.org/Graphics/SVG/1.1/DTD/svg11.dtd">
<!-- Generated by graphviz version 2.40.1 (20161225.0304)
 -->
<!-- Title: a_graph Pages: 1 -->
<svg width="550pt" height="119pt"
 viewBox="0.00 0.00 550.00 119.00" xmlns="http://www.w3.org/2000/svg" xmlns:xlink="http://www.w3.org/1999/xlink">
<g id="graph0" class="graph" transform="scale(1 1) rotate(0) translate(4 115)">
<title>a_graph</title>
<polygon fill="#ffffff" stroke="transparent" points="-4,4 -4,-115 546,-115 546,4 -4,4"/>
<!-- T5329 -->
<g id="node1" class="node">
<title>T5329</title>
<polygon fill="none" stroke="#0058ad" points="303,-81.5 303,-110.5 481,-110.5 481,-81.5 303,-81.5"/>
<text text-anchor="middle" x="331.5" y="-92.3" font-family="Times,serif" font-size="14.00" fill="#0058ad">a 31 28</text>
<polyline fill="none" stroke="#0058ad" points="360,-81.5 360,-110.5 "/>
<text text-anchor="middle" x="420.5" y="-92.3" font-family="Times,serif" font-size="14.00" fill="#0058ad">r 32 [2 3 4 1 5 6 7]</text>
</g>
<!-- T5327 -->
<g id="node2" class="node">
<title>T5327</title>
<polygon fill="none" stroke="#0058ad" points="0,-.5 0,-29.5 542,-29.5 542,-.5 0,-.5"/>
<text text-anchor="middle" x="217.5" y="-11.3" font-family="Times,serif" font-size="14.00" fill="#0058ad">r 31 [1 2 3 4 5 6 7 8 9 10 11 13 14 12 15 16 18 17 19 22 23 24 20 21 25 26]</text>
<polyline fill="none" stroke="#0058ad" points="435,-.5 435,-29.5 "/>
<text text-anchor="middle" x="460" y="-11.3" font-family="Times,serif" font-size="14.00" fill="#0058ad">a 32 9</text>
<polyline fill="none" stroke="#0058ad" points="485,-.5 485,-29.5 "/>
<text text-anchor="middle" x="513.5" y="-11.3" font-family="Times,serif" font-size="14.00" fill="#0058ad">a 32 10</text>
</g>
<!-- T5329&#45;&gt;T5327 -->
<g id="edge1" class="edge">
<title>T5329:f1&#45;&gt;T5327:f1</title>
<path fill="none" stroke="#5b00c0" d="M421,-81C421,-56.4781 449.8025,-57.5119 457.9032,-40.1776"/>
<polygon fill="#5b00c0" stroke="#5b00c0" points="461.4101,-40.5006 460,-30 454.5541,-39.088 461.4101,-40.5006"/>
<text text-anchor="middle" x="458.5" y="-51.8" font-family="Times,serif" font-size="14.00" fill="#5b00c0">rw</text>
</g>
<!-- T5327&#45;&gt;T5329 -->
<g id="edge2" class="edge">
<title>T5327:f0&#45;&gt;T5329:f0</title>
<path fill="none" stroke="#5b00c0" d="M217,-30C217,-74.793 249.6879,-93.3441 293.0001,-95.7314"/>
<polygon fill="#5b00c0" stroke="#5b00c0" points="292.9096,-99.2301 303,-96 293.0976,-92.2326 292.9096,-99.2301"/>
<text text-anchor="middle" x="231.5" y="-51.8" font-family="Times,serif" font-size="14.00" fill="#5b00c0">rw</text>
</g>
</g>
</svg>
