<?xml version="1.0" encoding="UTF-8" standalone="no"?>
<!DOCTYPE svg PUBLIC "-//W3C//DTD SVG 1.1//EN"
 "http://www.w3.org/Graphics/SVG/1.1/DTD/svg11.dtd">
<!-- Generated by graphviz version 2.40.1 (20161225.0304)
 -->
<!-- Title: a_graph Pages: 1 -->
<svg width="3300pt" height="119pt"
 viewBox="0.00 0.00 3300.00 119.00" xmlns="http://www.w3.org/2000/svg" xmlns:xlink="http://www.w3.org/1999/xlink">
<g id="graph0" class="graph" transform="scale(1 1) rotate(0) translate(4 115)">
<title>a_graph</title>
<polygon fill="#ffffff" stroke="transparent" points="-4,4 -4,-115 3296,-115 3296,4 -4,4"/>
<!-- T6719 -->
<g id="node1" class="node">
<title>T6719</title>
<polygon fill="none" stroke="#0058ad" points="1776,-81.5 1776,-110.5 2774,-110.5 2774,-81.5 1776,-81.5"/>
<text text-anchor="middle" x="1804.5" y="-92.3" font-family="Times,serif" font-size="14.00" fill="#0058ad">a 35 98</text>
<polyline fill="none" stroke="#0058ad" points="1833,-81.5 1833,-110.5 "/>
<text text-anchor="middle" x="2275" y="-92.3" font-family="Times,serif" font-size="14.00" fill="#0058ad">r 37 [1 2 3 4 5 6 8 9 7 10 12 11 14 15 13 16 17 18 20 19 21 22 23 24 25 26 27 28 29 30 31 32 34 33 36 37 35 38 39 41 40 42 43 44 45 46 47 49 48 50 51 52]</text>
<polyline fill="none" stroke="#0058ad" points="2717,-81.5 2717,-110.5 "/>
<text text-anchor="middle" x="2745.5" y="-92.3" font-family="Times,serif" font-size="14.00" fill="#0058ad">a 35 99</text>
</g>
<!-- T6717 -->
<g id="node2" class="node">
<title>T6717</title>
<polygon fill="none" stroke="#0058ad" points="0,-.5 0,-29.5 3292,-29.5 3292,-.5 0,-.5"/>
<text text-anchor="middle" x="802" y="-11.3" font-family="Times,serif" font-size="14.00" fill="#0058ad">r 5 [1 2 3 4 5 6 9 10 11 12 13 48 49 50 51 52 53 54 56 55 57 58 59 60 62 63 64 65 66 67 68 69 70 71 73 74 75 76 77 78 79 80 81 82 83 84 85 86 87 88 89 90 91 92 93 94 95 96 97 98 100 101 102 103 104 105 106 107 108 109 110 111 113 115 114 116 117 118 119 122 123 124 125 126]</text>
<polyline fill="none" stroke="#0058ad" points="1604,-.5 1604,-29.5 "/>
<text text-anchor="middle" x="1632.5" y="-11.3" font-family="Times,serif" font-size="14.00" fill="#0058ad">a 37 54</text>
<polyline fill="none" stroke="#0058ad" points="1661,-.5 1661,-29.5 "/>
<text text-anchor="middle" x="2448" y="-11.3" font-family="Times,serif" font-size="14.00" fill="#0058ad">r 35 [1 2 4 5 3 6 7 8 9 10 11 12 13 14 15 16 17 18 19 20 21 22 24 23 27 26 29 30 28 32 31 34 33 35 36 37 38 39 40 41 43 44 45 46 47 49 50 51 52 53 42 55 56 57 58 59 60 61 62 63 65 64 67 69 70 71 72 73 74 75 76 77 78 79 80 81 82 83 84 85 86 87 88 89 90 91 93 92 94 95 97 96]</text>
<polyline fill="none" stroke="#0058ad" points="3235,-.5 3235,-29.5 "/>
<text text-anchor="middle" x="3263.5" y="-11.3" font-family="Times,serif" font-size="14.00" fill="#0058ad">a 38 12</text>
</g>
<!-- T6719&#45;&gt;T6717 -->
<g id="edge1" class="edge">
<title>T6719:f1&#45;&gt;T6717:f1</title>
<path fill="none" stroke="#5b00c0" d="M2275,-81C2275,72.1484 2084.6837,-59.9215 1932,-48 1917.1097,-46.8374 1688.8032,-46.7118 1640.8105,-34.747"/>
<polygon fill="#5b00c0" stroke="#5b00c0" points="1642.4637,-31.662 1632,-30 1639.1434,-37.8245 1642.4637,-31.662"/>
<text text-anchor="middle" x="2279.5" y="-51.8" font-family="Times,serif" font-size="14.00" fill="#5b00c0">rw</text>
</g>
<!-- T6717&#45;&gt;T6719 -->
<g id="edge2" class="edge">
<title>T6717:f2&#45;&gt;T6719:f0</title>
<path fill="none" stroke="#5b00c0" d="M2448,-30C2448,-44.8695 1927.6705,-45.5752 1913,-48 1866.768,-55.6416 1812.7167,-34.0362 1804.9481,-70.9488"/>
<polygon fill="#5b00c0" stroke="#5b00c0" points="1801.4547,-70.7155 1804,-81 1808.4238,-71.3729 1801.4547,-70.7155"/>
<text text-anchor="middle" x="1920.5" y="-51.8" font-family="Times,serif" font-size="14.00" fill="#5b00c0">rw</text>
</g>
</g>
</svg>
