<?xml version="1.0" encoding="UTF-8" standalone="no"?>
<!DOCTYPE svg PUBLIC "-//W3C//DTD SVG 1.1//EN"
 "http://www.w3.org/Graphics/SVG/1.1/DTD/svg11.dtd">
<!-- Generated by graphviz version 2.40.1 (20161225.0304)
 -->
<!-- Title: a_graph Pages: 1 -->
<svg width="2129pt" height="200pt"
 viewBox="0.00 0.00 2129.00 200.00" xmlns="http://www.w3.org/2000/svg" xmlns:xlink="http://www.w3.org/1999/xlink">
<g id="graph0" class="graph" transform="scale(1 1) rotate(0) translate(4 196)">
<title>a_graph</title>
<polygon fill="#ffffff" stroke="transparent" points="-4,4 -4,-196 2125,-196 2125,4 -4,4"/>
<!-- T7143 -->
<g id="node1" class="node">
<title>T7143</title>
<polygon fill="none" stroke="#0058ad" points="761,-162.5 761,-191.5 1508,-191.5 1508,-162.5 761,-162.5"/>
<text text-anchor="middle" x="789.5" y="-173.3" font-family="Times,serif" font-size="14.00" fill="#0058ad">a 41 42</text>
<polyline fill="none" stroke="#0058ad" points="818,-162.5 818,-191.5 "/>
<text text-anchor="middle" x="1163" y="-173.3" font-family="Times,serif" font-size="14.00" fill="#0058ad">r 41 [2 3 4 6 7 8 9 10 11 12 13 14 15 16 17 18 20 21 22 23 24 25 26 27 19 29 31 32 33 34 35 30 28 36 37 38 39 40 41 42]</text>
</g>
<!-- T7147 -->
<g id="node2" class="node">
<title>T7147</title>
<polygon fill="none" stroke="#0058ad" points="615.5,-81.5 615.5,-110.5 2063.5,-110.5 2063.5,-81.5 615.5,-81.5"/>
<text text-anchor="middle" x="966" y="-92.3" font-family="Times,serif" font-size="14.00" fill="#0058ad">r 40 [1 2 3 4 5 6 7 8 11 12 13 14 15 16 17 18 19 21 22 23 24 26 29 25 30 31 33 32 34 35 36 38 39 37 40 41 42 43 44 45 46]</text>
<polyline fill="none" stroke="#0058ad" points="1316.5,-81.5 1316.5,-110.5 "/>
<text text-anchor="middle" x="1661.5" y="-92.3" font-family="Times,serif" font-size="14.00" fill="#0058ad">r 41 [2 3 4 6 7 8 9 10 11 12 13 14 15 16 17 18 20 21 22 23 24 25 26 27 19 29 31 32 33 34 35 30 28 36 37 38 39 40 41 42]</text>
<polyline fill="none" stroke="#0058ad" points="2006.5,-81.5 2006.5,-110.5 "/>
<text text-anchor="middle" x="2035" y="-92.3" font-family="Times,serif" font-size="14.00" fill="#0058ad">a 41 44</text>
</g>
<!-- T7143&#45;&gt;T7147 -->
<g id="edge1" class="edge">
<title>T7143:f0&#45;&gt;T7147:f2</title>
<path fill="none" stroke="#c02700" d="M789.5,-162C789.5,-26.9578 1973.0298,-238.3128 2033.131,-120.861"/>
<polygon fill="#c02700" stroke="#c02700" points="2036.5671,-121.541 2035.5,-111 2029.7608,-119.9057 2036.5671,-121.541"/>
<text text-anchor="middle" x="2032.5" y="-132.8" font-family="Times,serif" font-size="14.00" fill="#c02700">ww</text>
</g>
<!-- T7145 -->
<g id="node3" class="node">
<title>T7145</title>
<polygon fill="none" stroke="#0058ad" points="0,-.5 0,-29.5 2121,-29.5 2121,-.5 0,-.5"/>
<text text-anchor="middle" x="336.5" y="-11.3" font-family="Times,serif" font-size="14.00" fill="#0058ad">r 41 [2 3 4 6 7 8 9 10 11 12 13 14 15 16 17 18 20 21 22 23 24 25 26 27 19 29 31 32 33 34 35 30 28 36 37 38 39 40 41]</text>
<polyline fill="none" stroke="#0058ad" points="673,-.5 673,-29.5 "/>
<text text-anchor="middle" x="1009.5" y="-11.3" font-family="Times,serif" font-size="14.00" fill="#0058ad">r 41 [2 3 4 6 7 8 9 10 11 12 13 14 15 16 17 18 20 21 22 23 24 25 26 27 19 29 31 32 33 34 35 30 28 36 37 38 39 40 41]</text>
<polyline fill="none" stroke="#0058ad" points="1346,-.5 1346,-29.5 "/>
<text text-anchor="middle" x="1374.5" y="-11.3" font-family="Times,serif" font-size="14.00" fill="#0058ad">a 40 49</text>
<polyline fill="none" stroke="#0058ad" points="1403,-.5 1403,-29.5 "/>
<text text-anchor="middle" x="1762" y="-11.3" font-family="Times,serif" font-size="14.00" fill="#0058ad">r 40 [1 2 3 4 5 6 7 8 11 12 13 14 15 16 17 18 19 21 22 23 24 26 29 25 30 31 33 32 34 35 36 38 39 37 40 41 42 43 44 45 46 49]</text>
</g>
<!-- T7147&#45;&gt;T7145 -->
<g id="edge2" class="edge">
<title>T7147:f0&#45;&gt;T7145:f2</title>
<path fill="none" stroke="#5b00c0" d="M965.5,-81C965.5,98.6077 1358.6795,-201.0565 1374.038,-40.1704"/>
<polygon fill="#5b00c0" stroke="#5b00c0" points="1377.5425,-40.1485 1374.5,-30 1370.5498,-39.8309 1377.5425,-40.1485"/>
<text text-anchor="middle" x="1380" y="-51.8" font-family="Times,serif" font-size="14.00" fill="#5b00c0">rw</text>
</g>
<!-- T7145&#45;&gt;T7143 -->
<g id="edge3" class="edge">
<title>T7145:f0&#45;&gt;T7143:f0</title>
<path fill="none" stroke="#5b00c0" d="M336.5,-30C336.5,-126.5105 640.2119,-173.8985 750.1774,-176.8525"/>
<polygon fill="#5b00c0" stroke="#5b00c0" points="750.451,-180.3567 760.5,-177 750.551,-173.3574 750.451,-180.3567"/>
<text text-anchor="middle" x="426" y="-92.3" font-family="Times,serif" font-size="14.00" fill="#5b00c0">rw</text>
</g>
</g>
</svg>
