<?xml version="1.0" encoding="UTF-8" standalone="no"?>
<!DOCTYPE svg PUBLIC "-//W3C//DTD SVG 1.1//EN"
 "http://www.w3.org/Graphics/SVG/1.1/DTD/svg11.dtd">
<!-- Generated by graphviz version 2.40.1 (20161225.0304)
 -->
<!-- Title: a_graph Pages: 1 -->
<svg width="2102pt" height="119pt"
 viewBox="0.00 0.00 2102.00 119.00" xmlns="http://www.w3.org/2000/svg" xmlns:xlink="http://www.w3.org/1999/xlink">
<g id="graph0" class="graph" transform="scale(1 1) rotate(0) translate(4 115)">
<title>a_graph</title>
<polygon fill="#ffffff" stroke="transparent" points="-4,4 -4,-115 2098,-115 2098,4 -4,4"/>
<!-- T13987 -->
<g id="node1" class="node">
<title>T13987</title>
<polygon fill="none" stroke="#0058ad" points="0,-81.5 0,-110.5 2094,-110.5 2094,-81.5 0,-81.5"/>
<text text-anchor="middle" x="1018.5" y="-92.3" font-family="Times,serif" font-size="14.00" fill="#0058ad">r 71 [1 2 3 4 5 6 7 8 9 12 10 11 13 14 15 16 17 18 19 20 21 23 22 24 26 25 27 28 29 30 31 32 33 34 35 36 37 38 39 40 41 42 43 44 45 46 47 48 49 50 51 52 53 54 55 59 57 58 60 61 62 56 63 64 65 66 67 69 68 70 72 71 73 74 75 76 77 78 79 80 81 82 83 84 85 86 87 88 89 92 90 91 93 94 96 95 99 97 101 102 103 104 105 106 107 111 108 100 112 113 114 115 116]</text>
<polyline fill="none" stroke="#0058ad" points="2037,-81.5 2037,-110.5 "/>
<text text-anchor="middle" x="2065.5" y="-92.3" font-family="Times,serif" font-size="14.00" fill="#0058ad">a 73 14</text>
</g>
<!-- T13985 -->
<g id="node2" class="node">
<title>T13985</title>
<polygon fill="none" stroke="#0058ad" points="1689.5,-.5 1689.5,-29.5 1908.5,-29.5 1908.5,-.5 1689.5,-.5"/>
<text text-anchor="middle" x="1721.5" y="-11.3" font-family="Times,serif" font-size="14.00" fill="#0058ad">a 71 117</text>
<polyline fill="none" stroke="#0058ad" points="1753.5,-.5 1753.5,-29.5 "/>
<text text-anchor="middle" x="1831" y="-11.3" font-family="Times,serif" font-size="14.00" fill="#0058ad">r 73 [2 3 5 4 7 9 8 11 12]</text>
</g>
<!-- T13987&#45;&gt;T13985 -->
<g id="edge1" class="edge">
<title>T13987:f0&#45;&gt;T13985:f0</title>
<path fill="none" stroke="#5b00c0" d="M1018,-81C1018,-45.4445 1588.8319,-17.9218 1678.8431,-15.2182"/>
<polygon fill="#5b00c0" stroke="#5b00c0" points="1679.0775,-18.7141 1689,-15 1678.9271,-11.7157 1679.0775,-18.7141"/>
<text text-anchor="middle" x="1180.5" y="-51.8" font-family="Times,serif" font-size="14.00" fill="#5b00c0">rw</text>
</g>
<!-- T13985&#45;&gt;T13987 -->
<g id="edge2" class="edge">
<title>T13985:f1&#45;&gt;T13987:f1</title>
<path fill="none" stroke="#5b00c0" d="M1909,-15C1943.4461,-15 2045.2459,-38.3221 2063.26,-71.0473"/>
<polygon fill="#5b00c0" stroke="#5b00c0" points="2059.9712,-72.2877 2066,-81 2066.7201,-70.4297 2059.9712,-72.2877"/>
<text text-anchor="middle" x="2062.5" y="-51.8" font-family="Times,serif" font-size="14.00" fill="#5b00c0">rw</text>
</g>
</g>
</svg>
