<?xml version="1.0" encoding="UTF-8" standalone="no"?>
<!DOCTYPE svg PUBLIC "-//W3C//DTD SVG 1.1//EN"
 "http://www.w3.org/Graphics/SVG/1.1/DTD/svg11.dtd">
<!-- Generated by graphviz version 2.40.1 (20161225.0304)
 -->
<!-- Title: a_graph Pages: 1 -->
<svg width="1441pt" height="119pt"
 viewBox="0.00 0.00 1441.50 119.00" xmlns="http://www.w3.org/2000/svg" xmlns:xlink="http://www.w3.org/1999/xlink">
<g id="graph0" class="graph" transform="scale(1 1) rotate(0) translate(4 115)">
<title>a_graph</title>
<polygon fill="#ffffff" stroke="transparent" points="-4,4 -4,-115 1437.5,-115 1437.5,4 -4,4"/>
<!-- T2523 -->
<g id="node1" class="node">
<title>T2523</title>
<polygon fill="none" stroke="#0058ad" points="0,-81.5 0,-110.5 1298,-110.5 1298,-81.5 0,-81.5"/>
<text text-anchor="middle" x="25" y="-92.3" font-family="Times,serif" font-size="14.00" fill="#0058ad">a 18 1</text>
<polyline fill="none" stroke="#0058ad" points="50,-81.5 50,-110.5 "/>
<text text-anchor="middle" x="362" y="-92.3" font-family="Times,serif" font-size="14.00" fill="#0058ad">r 16 [76 93 94 96 98 92 90 100 101 102 103 104 105 106 107 108 109 110 111 112 114 115 116 117 118 119]</text>
<polyline fill="none" stroke="#0058ad" points="674,-81.5 674,-110.5 "/>
<text text-anchor="middle" x="986" y="-92.3" font-family="Times,serif" font-size="14.00" fill="#0058ad">r 16 [76 93 94 96 98 92 90 100 101 102 103 104 105 106 107 108 109 110 111 112 114 115 116 117 118 119]</text>
</g>
<!-- T2527 -->
<g id="node2" class="node">
<title>T2527</title>
<polygon fill="none" stroke="#0058ad" points="134.5,-.5 134.5,-29.5 1433.5,-29.5 1433.5,-.5 134.5,-.5"/>
<text text-anchor="middle" x="160" y="-11.3" font-family="Times,serif" font-size="14.00" fill="#0058ad">r 18 []</text>
<polyline fill="none" stroke="#0058ad" points="185.5,-.5 185.5,-29.5 "/>
<text text-anchor="middle" x="217.5" y="-11.3" font-family="Times,serif" font-size="14.00" fill="#0058ad">a 17 125</text>
<polyline fill="none" stroke="#0058ad" points="249.5,-.5 249.5,-29.5 "/>
<text text-anchor="middle" x="281.5" y="-11.3" font-family="Times,serif" font-size="14.00" fill="#0058ad">a 16 120</text>
<polyline fill="none" stroke="#0058ad" points="313.5,-.5 313.5,-29.5 "/>
<text text-anchor="middle" x="873.5" y="-11.3" font-family="Times,serif" font-size="14.00" fill="#0058ad">r 17 [75 49 77 78 76 79 80 81 82 84 86 87 85 88 89 91 92 74 69 93 94 95 96 97 99 100 101 98 102 103 105 104 106 107 108 109 110 111 112 113 114 115 118 116 117 119 120 121 122 123 124 125]</text>
</g>
<!-- T2523&#45;&gt;T2527 -->
<g id="edge1" class="edge">
<title>T2523:f1&#45;&gt;T2527:f2</title>
<path fill="none" stroke="#5b00c0" d="M362,-81C362,-42.4468 295.4756,-66.8244 283.0023,-40.0707"/>
<polygon fill="#5b00c0" stroke="#5b00c0" points="286.3829,-39.1255 281,-30 279.5173,-40.4906 286.3829,-39.1255"/>
<text text-anchor="middle" x="359.5" y="-51.8" font-family="Times,serif" font-size="14.00" fill="#5b00c0">rw</text>
</g>
<!-- T2527&#45;&gt;T2523 -->
<g id="edge2" class="edge">
<title>T2527:f0&#45;&gt;T2523:f0</title>
<path fill="none" stroke="#5b00c0" d="M134,-15C80.9065,-15 31.5625,-23.2326 25.6019,-70.9259"/>
<polygon fill="#5b00c0" stroke="#5b00c0" points="22.1028,-70.809 25,-81 29.0903,-71.2266 22.1028,-70.809"/>
<text text-anchor="middle" x="40.5" y="-51.8" font-family="Times,serif" font-size="14.00" fill="#5b00c0">rw</text>
</g>
</g>
</svg>
