<?xml version="1.0" encoding="UTF-8" standalone="no"?>
<!DOCTYPE svg PUBLIC "-//W3C//DTD SVG 1.1//EN"
 "http://www.w3.org/Graphics/SVG/1.1/DTD/svg11.dtd">
<!-- Generated by graphviz version 2.40.1 (20161225.0304)
 -->
<!-- Title: a_graph Pages: 1 -->
<svg width="5517pt" height="200pt"
 viewBox="0.00 0.00 5516.50 200.00" xmlns="http://www.w3.org/2000/svg" xmlns:xlink="http://www.w3.org/1999/xlink">
<g id="graph0" class="graph" transform="scale(1 1) rotate(0) translate(4 196)">
<title>a_graph</title>
<polygon fill="#ffffff" stroke="transparent" points="-4,4 -4,-196 5512.5,-196 5512.5,4 -4,4"/>
<!-- T19783 -->
<g id="node1" class="node">
<title>T19783</title>
<polygon fill="none" stroke="#0058ad" points="1512,-162.5 1512,-191.5 4049,-191.5 4049,-162.5 1512,-162.5"/>
<text text-anchor="middle" x="1549.5" y="-173.3" font-family="Times,serif" font-size="14.00" fill="#0058ad">r 100 [1 2]</text>
<polyline fill="none" stroke="#0058ad" points="1587,-162.5 1587,-191.5 "/>
<text text-anchor="middle" x="2184" y="-173.3" font-family="Times,serif" font-size="14.00" fill="#0058ad">r 99 [1 3 4 2 5 6 7 8 11 9 10 13 14 15 16 18 19 20 17 21 12 26 24 25 29 31 30 34 35 36 33 37 38 39 32 40 41 44 46 45 49 51 50 53 47 48 55 56 57 58 59 60 61 54 62 63 64 67 68 65 66 73 71 72 74 75 76 77 78 81]</text>
<polyline fill="none" stroke="#0058ad" points="2781,-162.5 2781,-191.5 "/>
<text text-anchor="middle" x="2809.5" y="-173.3" font-family="Times,serif" font-size="14.00" fill="#0058ad">a 99 80</text>
<polyline fill="none" stroke="#0058ad" points="2838,-162.5 2838,-191.5 "/>
<text text-anchor="middle" x="3443.5" y="-173.3" font-family="Times,serif" font-size="14.00" fill="#0058ad">r 99 [1 3 4 2 5 6 7 8 11 9 10 13 14 15 16 18 19 20 17 21 12 26 24 25 29 31 30 34 35 36 33 37 38 39 32 40 41 44 46 45 49 51 50 53 47 48 55 56 57 58 59 60 61 54 62 63 64 67 68 65 66 73 71 72 74 75 76 77 78 81 80]</text>
</g>
<!-- T19781 -->
<g id="node3" class="node">
<title>T19781</title>
<polygon fill="none" stroke="#0058ad" points="0,-81.5 0,-110.5 2773,-110.5 2773,-81.5 0,-81.5"/>
<text text-anchor="middle" x="761" y="-92.3" font-family="Times,serif" font-size="14.00" fill="#0058ad">r 94 [1 2 3 4 5 7 6 9 8 10 11 12 15 16 17 18 20 21 22 25 23 26 27 28 29 30 32 31 33 34 35 36 37 38 39 40 41 42 43 47 46 48 49 50 52 51 53 54 55 56 57 61 60 62 63 64 65 66 67 68 69 70 71 72 73 74 75 77 76 78 79 80 81 82 83 84 85 86 87 88 89 92 93 94 95 96 97 98 99]</text>
<polyline fill="none" stroke="#0058ad" points="1522,-81.5 1522,-110.5 "/>
<text text-anchor="middle" x="1550.5" y="-92.3" font-family="Times,serif" font-size="14.00" fill="#0058ad">a 100 4</text>
<polyline fill="none" stroke="#0058ad" points="1579,-81.5 1579,-110.5 "/>
<text text-anchor="middle" x="2176" y="-92.3" font-family="Times,serif" font-size="14.00" fill="#0058ad">r 99 [1 3 4 2 5 6 7 8 11 9 10 13 14 15 16 18 19 20 17 21 12 26 24 25 29 31 30 34 35 36 33 37 38 39 32 40 41 44 46 45 49 51 50 53 47 48 55 56 57 58 59 60 61 54 62 63 64 67 68 65 66 73 71 72 74 75 76 77 78 81]</text>
</g>
<!-- T19783&#45;&gt;T19781 -->
<g id="edge1" class="edge">
<title>T19783:f0&#45;&gt;T19781:f1</title>
<path fill="none" stroke="#5b00c0" d="M1549.5,-162C1549.5,-143.2256 1550.1858,-136.1185 1550.4215,-121.3548"/>
<polygon fill="#5b00c0" stroke="#5b00c0" points="1553.924,-121.0263 1550.5,-111 1546.9242,-120.9732 1553.924,-121.0263"/>
<text text-anchor="middle" x="1558" y="-132.8" font-family="Times,serif" font-size="14.00" fill="#5b00c0">rw</text>
</g>
<!-- T19785 -->
<g id="node2" class="node">
<title>T19785</title>
<polygon fill="none" stroke="#0058ad" points="1534.5,-.5 1534.5,-29.5 5508.5,-29.5 5508.5,-.5 1534.5,-.5"/>
<text text-anchor="middle" x="2131.5" y="-11.3" font-family="Times,serif" font-size="14.00" fill="#0058ad">r 99 [1 3 4 2 5 6 7 8 11 9 10 13 14 15 16 18 19 20 17 21 12 26 24 25 29 31 30 34 35 36 33 37 38 39 32 40 41 44 46 45 49 51 50 53 47 48 55 56 57 58 59 60 61 54 62 63 64 67 68 65 66 73 71 72 74 75 76 77 78 81]</text>
<polyline fill="none" stroke="#0058ad" points="2728.5,-.5 2728.5,-29.5 "/>
<text text-anchor="middle" x="3325.5" y="-11.3" font-family="Times,serif" font-size="14.00" fill="#0058ad">r 99 [1 3 4 2 5 6 7 8 11 9 10 13 14 15 16 18 19 20 17 21 12 26 24 25 29 31 30 34 35 36 33 37 38 39 32 40 41 44 46 45 49 51 50 53 47 48 55 56 57 58 59 60 61 54 62 63 64 67 68 65 66 73 71 72 74 75 76 77 78 81]</text>
<polyline fill="none" stroke="#0058ad" points="3922.5,-.5 3922.5,-29.5 "/>
<text text-anchor="middle" x="4683.5" y="-11.3" font-family="Times,serif" font-size="14.00" fill="#0058ad">r 94 [1 2 3 4 5 7 6 9 8 10 11 12 15 16 17 18 20 21 22 25 23 26 27 28 29 30 32 31 33 34 35 36 37 38 39 40 41 42 43 47 46 48 49 50 52 51 53 54 55 56 57 61 60 62 63 64 65 66 67 68 69 70 71 72 73 74 75 77 76 78 79 80 81 82 83 84 85 86 87 88 89 92 93 94 95 96 97 98 99]</text>
<polyline fill="none" stroke="#0058ad" points="5444.5,-.5 5444.5,-29.5 "/>
<text text-anchor="middle" x="5476.5" y="-11.3" font-family="Times,serif" font-size="14.00" fill="#0058ad">a 72 110</text>
</g>
<!-- T19785&#45;&gt;T19783 -->
<g id="edge2" class="edge">
<title>T19785:f0&#45;&gt;T19783:f2</title>
<path fill="none" stroke="#5b00c0" d="M2131.5,-30C2131.5,-102.555 2725.3433,-36.3085 2782.5,-81 2809.5913,-102.183 2809.7544,-120.3305 2809.5469,-151.7909"/>
<polygon fill="#5b00c0" stroke="#5b00c0" points="2806.0461,-151.984 2809.5,-162 2813.046,-152.0162 2806.0461,-151.984"/>
<text text-anchor="middle" x="2813" y="-92.3" font-family="Times,serif" font-size="14.00" fill="#5b00c0">rw</text>
</g>
<!-- T19781&#45;&gt;T19783 -->
<g id="edge3" class="edge">
<title>T19781:f2&#45;&gt;T19783:f2</title>
<path fill="none" stroke="#5b00c0" d="M2773.5,-96C2795.059,-96 2768.6841,-125.9674 2780.5,-144 2786.0861,-152.5251 2797.2569,-150.8722 2803.9864,-153.4705"/>
<polygon fill="#5b00c0" stroke="#5b00c0" points="2801.1319,-155.5019 2809.5,-162 2807.0106,-151.7018 2801.1319,-155.5019"/>
<text text-anchor="middle" x="2788" y="-132.8" font-family="Times,serif" font-size="14.00" fill="#5b00c0">rw</text>
</g>
<!-- T19781&#45;&gt;T19785 -->
<g id="edge4" class="edge">
<title>T19781&#45;&gt;T19785</title>
<path fill="none" stroke="#0050c0" d="M1768.8111,-81.4955C2152.7603,-66.9288 2741.5205,-44.5917 3129.0332,-29.8898"/>
<polygon fill="#0050c0" stroke="#0050c0" points="3129.4336,-33.3773 3139.2937,-29.5006 3129.1682,-26.3823 3129.4336,-33.3773"/>
<text text-anchor="middle" x="2649" y="-51.8" font-family="Times,serif" font-size="14.00" fill="#0050c0">rt</text>
</g>
</g>
</svg>
