<?xml version="1.0" encoding="UTF-8" standalone="no"?>
<!DOCTYPE svg PUBLIC "-//W3C//DTD SVG 1.1//EN"
 "http://www.w3.org/Graphics/SVG/1.1/DTD/svg11.dtd">
<!-- Generated by graphviz version 2.40.1 (20161225.0304)
 -->
<!-- Title: a_graph Pages: 1 -->
<svg width="2309pt" height="119pt"
 viewBox="0.00 0.00 2308.50 119.00" xmlns="http://www.w3.org/2000/svg" xmlns:xlink="http://www.w3.org/1999/xlink">
<g id="graph0" class="graph" transform="scale(1 1) rotate(0) translate(4 115)">
<title>a_graph</title>
<polygon fill="#ffffff" stroke="transparent" points="-4,4 -4,-115 2304.5,-115 2304.5,4 -4,4"/>
<!-- T3128 -->
<g id="node1" class="node">
<title>T3128</title>
<polygon fill="none" stroke="#0058ad" points="0,-81.5 0,-110.5 1338,-110.5 1338,-81.5 0,-81.5"/>
<text text-anchor="middle" x="28.5" y="-92.3" font-family="Times,serif" font-size="14.00" fill="#0058ad">a 18 24</text>
<polyline fill="none" stroke="#0058ad" points="57,-81.5 57,-110.5 "/>
<text text-anchor="middle" x="637" y="-92.3" font-family="Times,serif" font-size="14.00" fill="#0058ad">r 20 [1 2 3 4 5 6 8 9 10 7 12 13 14 11 15 16 17 18 19 20 21 22 23 24 25 26 27 28 29 31 34 32 33 35 36 37 38 39 41 42 43 44 45 46 47 48 49 50 40 51 54 52 55 53 56 57 58 59 60 62 64 63 66 65 67 68 69 70]</text>
<polyline fill="none" stroke="#0058ad" points="1217,-81.5 1217,-110.5 "/>
<text text-anchor="middle" x="1249" y="-92.3" font-family="Times,serif" font-size="14.00" fill="#0058ad">a 14 102</text>
<polyline fill="none" stroke="#0058ad" points="1281,-81.5 1281,-110.5 "/>
<text text-anchor="middle" x="1309.5" y="-92.3" font-family="Times,serif" font-size="14.00" fill="#0058ad">a 21 79</text>
</g>
<!-- T3127 -->
<g id="node2" class="node">
<title>T3127</title>
<polygon fill="none" stroke="#0058ad" points="241.5,-.5 241.5,-29.5 2300.5,-29.5 2300.5,-.5 241.5,-.5"/>
<text text-anchor="middle" x="270" y="-11.3" font-family="Times,serif" font-size="14.00" fill="#0058ad">a 20 72</text>
<polyline fill="none" stroke="#0058ad" points="298.5,-.5 298.5,-29.5 "/>
<text text-anchor="middle" x="481.5" y="-11.3" font-family="Times,serif" font-size="14.00" fill="#0058ad">r 18 [1 2 3 4 5 6 7 8 9 10 11 12 13 16 14 15 17 18 19 21 23 22]</text>
<polyline fill="none" stroke="#0058ad" points="664.5,-.5 664.5,-29.5 "/>
<text text-anchor="middle" x="877" y="-11.3" font-family="Times,serif" font-size="14.00" fill="#0058ad">r 5 [1 2 3 4 5 6 9 10 11 12 13 48 49 50 51 52 53 54 56 55 57 58 59 60 62]</text>
<polyline fill="none" stroke="#0058ad" points="1089.5,-.5 1089.5,-29.5 "/>
<text text-anchor="middle" x="1695" y="-11.3" font-family="Times,serif" font-size="14.00" fill="#0058ad">r 21 [1 2 4 5 3 6 7 8 9 10 11 12 14 13 15 16 17 18 19 20 22 23 24 25 26 27 29 30 28 21 31 32 33 36 37 34 38 39 40 41 42 43 44 45 46 47 48 49 50 51 52 55 53 57 54 61 65 58 66 67 68 69 71 72 73 74 70 77 75 76 78]</text>
</g>
<!-- T3128&#45;&gt;T3127 -->
<g id="edge1" class="edge">
<title>T3128:f1&#45;&gt;T3127:f0</title>
<path fill="none" stroke="#5b00c0" d="M637,-81C637,-65.4678 373.1858,-66.2621 358,-63 320.9896,-55.0496 278.7871,-68.7126 271.1994,-40.2546"/>
<polygon fill="#5b00c0" stroke="#5b00c0" points="274.6381,-39.5257 270,-30 267.6855,-40.3389 274.6381,-39.5257"/>
<text text-anchor="middle" x="365.5" y="-51.8" font-family="Times,serif" font-size="14.00" fill="#5b00c0">rw</text>
</g>
<!-- T3127&#45;&gt;T3128 -->
<g id="edge2" class="edge">
<title>T3127:f1&#45;&gt;T3128:f0</title>
<path fill="none" stroke="#5b00c0" d="M481,-30C481,-80.1907 422.43,-54.2942 373,-63 355.9441,-66.004 88.7614,-62.6156 36.7399,-76.0262"/>
<polygon fill="#5b00c0" stroke="#5b00c0" points="34.9601,-73.012 28,-81 38.4223,-79.0958 34.9601,-73.012"/>
<text text-anchor="middle" x="483.5" y="-51.8" font-family="Times,serif" font-size="14.00" fill="#5b00c0">rw</text>
</g>
</g>
</svg>
