<?xml version="1.0" encoding="UTF-8" standalone="no"?>
<!DOCTYPE svg PUBLIC "-//W3C//DTD SVG 1.1//EN"
 "http://www.w3.org/Graphics/SVG/1.1/DTD/svg11.dtd">
<!-- Generated by graphviz version 2.40.1 (20161225.0304)
 -->
<!-- Title: a_graph Pages: 1 -->
<svg width="1818pt" height="119pt"
 viewBox="0.00 0.00 1817.50 119.00" xmlns="http://www.w3.org/2000/svg" xmlns:xlink="http://www.w3.org/1999/xlink">
<g id="graph0" class="graph" transform="scale(1 1) rotate(0) translate(4 115)">
<title>a_graph</title>
<polygon fill="#ffffff" stroke="transparent" points="-4,4 -4,-115 1813.5,-115 1813.5,4 -4,4"/>
<!-- T18783 -->
<g id="node1" class="node">
<title>T18783</title>
<polygon fill="none" stroke="#0058ad" points="0,-81.5 0,-110.5 762,-110.5 762,-81.5 0,-81.5"/>
<text text-anchor="middle" x="174.5" y="-92.3" font-family="Times,serif" font-size="14.00" fill="#0058ad">r 95 [1 2 3 4 5 6 7 8 9 10 11 12 13 15 16 17 18 20 21 22 19]</text>
<polyline fill="none" stroke="#0058ad" points="349,-81.5 349,-110.5 "/>
<text text-anchor="middle" x="523.5" y="-92.3" font-family="Times,serif" font-size="14.00" fill="#0058ad">r 95 [1 2 3 4 5 6 7 8 9 10 11 12 13 15 16 17 18 20 21 22 19]</text>
<polyline fill="none" stroke="#0058ad" points="698,-81.5 698,-110.5 "/>
<text text-anchor="middle" x="730" y="-92.3" font-family="Times,serif" font-size="14.00" fill="#0058ad">a 80 128</text>
</g>
<!-- T18787 -->
<g id="node2" class="node">
<title>T18787</title>
<polygon fill="none" stroke="#0058ad" points="82.5,-.5 82.5,-29.5 1809.5,-29.5 1809.5,-.5 82.5,-.5"/>
<text text-anchor="middle" x="111" y="-11.3" font-family="Times,serif" font-size="14.00" fill="#0058ad">a 95 23</text>
<polyline fill="none" stroke="#0058ad" points="139.5,-.5 139.5,-29.5 "/>
<text text-anchor="middle" x="917.5" y="-11.3" font-family="Times,serif" font-size="14.00" fill="#0058ad">r 80 [1 2 3 4 5 6 7 51 52 53 54 55 56 57 58 59 60 61 62 63 64 65 67 68 69 70 71 72 73 74 75 76 77 78 79 80 81 82 83 85 86 87 88 89 90 91 92 93 94 95 96 97 99 98 100 101 102 103 104 105 106 108 109 110 111 112 113 114 115 116 117 118 119 120 121 122 123 124 125 126]</text>
<polyline fill="none" stroke="#0058ad" points="1695.5,-.5 1695.5,-29.5 "/>
<text text-anchor="middle" x="1724" y="-11.3" font-family="Times,serif" font-size="14.00" fill="#0058ad">a 95 24</text>
<polyline fill="none" stroke="#0058ad" points="1752.5,-.5 1752.5,-29.5 "/>
<text text-anchor="middle" x="1781" y="-11.3" font-family="Times,serif" font-size="14.00" fill="#0058ad">a 95 25</text>
</g>
<!-- T18783&#45;&gt;T18787 -->
<g id="edge1" class="edge">
<title>T18783:f0&#45;&gt;T18787:f0</title>
<path fill="none" stroke="#5b00c0" d="M174,-81C174,-48.9155 124.0276,-62.1029 113.0961,-39.9216"/>
<polygon fill="#5b00c0" stroke="#5b00c0" points="116.4915,-39.0605 111,-30 109.6427,-40.5075 116.4915,-39.0605"/>
<text text-anchor="middle" x="171.5" y="-51.8" font-family="Times,serif" font-size="14.00" fill="#5b00c0">rw</text>
</g>
<!-- T18787&#45;&gt;T18783 -->
<g id="edge2" class="edge">
<title>T18787:f1&#45;&gt;T18783:f2</title>
<path fill="none" stroke="#5b00c0" d="M917,-30C917,-64.5123 817.0887,-91.4829 772.1472,-95.4864"/>
<polygon fill="#5b00c0" stroke="#5b00c0" points="771.8103,-91.9989 762,-96 772.1642,-98.9899 771.8103,-91.9989"/>
<text text-anchor="middle" x="913.5" y="-51.8" font-family="Times,serif" font-size="14.00" fill="#5b00c0">rw</text>
</g>
</g>
</svg>
