<?xml version="1.0" encoding="UTF-8" standalone="no"?>
<!DOCTYPE svg PUBLIC "-//W3C//DTD SVG 1.1//EN"
 "http://www.w3.org/Graphics/SVG/1.1/DTD/svg11.dtd">
<!-- Generated by graphviz version 2.40.1 (20161225.0304)
 -->
<!-- Title: a_graph Pages: 1 -->
<svg width="2049pt" height="119pt"
 viewBox="0.00 0.00 2049.00 119.00" xmlns="http://www.w3.org/2000/svg" xmlns:xlink="http://www.w3.org/1999/xlink">
<g id="graph0" class="graph" transform="scale(1 1) rotate(0) translate(4 115)">
<title>a_graph</title>
<polygon fill="#ffffff" stroke="transparent" points="-4,4 -4,-115 2045,-115 2045,4 -4,4"/>
<!-- T471 -->
<g id="node1" class="node">
<title>T471</title>
<polygon fill="none" stroke="#0058ad" points="1116.5,-81.5 1116.5,-110.5 1776.5,-110.5 1776.5,-81.5 1116.5,-81.5"/>
<text text-anchor="middle" x="1256.5" y="-92.3" font-family="Times,serif" font-size="14.00" fill="#0058ad">r 10 [1 2 3 4 5 6 7 8 9 10 11 12 13 14 15 16 17]</text>
<polyline fill="none" stroke="#0058ad" points="1396.5,-81.5 1396.5,-110.5 "/>
<text text-anchor="middle" x="1421.5" y="-92.3" font-family="Times,serif" font-size="14.00" fill="#0058ad">a 8 70</text>
<polyline fill="none" stroke="#0058ad" points="1446.5,-81.5 1446.5,-110.5 "/>
<text text-anchor="middle" x="1471.5" y="-92.3" font-family="Times,serif" font-size="14.00" fill="#0058ad">a 6 28</text>
<polyline fill="none" stroke="#0058ad" points="1496.5,-81.5 1496.5,-110.5 "/>
<text text-anchor="middle" x="1636.5" y="-92.3" font-family="Times,serif" font-size="14.00" fill="#0058ad">r 10 [1 2 3 4 5 6 7 8 9 10 11 12 13 14 15 16 17]</text>
</g>
<!-- T472 -->
<g id="node2" class="node">
<title>T472</title>
<polygon fill="none" stroke="#0058ad" points="0,-.5 0,-29.5 2041,-29.5 2041,-.5 0,-.5"/>
<text text-anchor="middle" x="140" y="-11.3" font-family="Times,serif" font-size="14.00" fill="#0058ad">r 10 [1 2 3 4 5 6 7 8 9 10 11 12 13 14 15 16 17]</text>
<polyline fill="none" stroke="#0058ad" points="280,-.5 280,-29.5 "/>
<text text-anchor="middle" x="609.5" y="-11.3" font-family="Times,serif" font-size="14.00" fill="#0058ad">r 7 [1 3 4 5 6 8 7 9 10 11 12 13 14 15 16 17 18 19 20 21 22 23 24 25 26 27 28 29 30 31 32 33 34 35 36 37 38 39 40]</text>
<polyline fill="none" stroke="#0058ad" points="939,-.5 939,-29.5 "/>
<text text-anchor="middle" x="967.5" y="-11.3" font-family="Times,serif" font-size="14.00" fill="#0058ad">a 10 18</text>
<polyline fill="none" stroke="#0058ad" points="996,-.5 996,-29.5 "/>
<text text-anchor="middle" x="1518.5" y="-11.3" font-family="Times,serif" font-size="14.00" fill="#0058ad">r 8 [10 11 4 5 12 13 14 15 16 17 18 19 20 21 22 23 24 25 26 27 28 29 30 31 32 33 34 35 36 37 38 39 40 41 42 43 44 45 46 47 48 49 51 50 52 53 55 56 57 60 61 59 63 64 65 66 67 68 69]</text>
</g>
<!-- T471&#45;&gt;T472 -->
<g id="edge1" class="edge">
<title>T471:f0&#45;&gt;T472:f2</title>
<path fill="none" stroke="#5b00c0" d="M1116.5,-96C1083.681,-96 987.9744,-71.5371 970.3178,-39.9965"/>
<polygon fill="#5b00c0" stroke="#5b00c0" points="973.5819,-38.6753 967.5,-30 966.8444,-40.5745 973.5819,-38.6753"/>
<text text-anchor="middle" x="1004" y="-51.8" font-family="Times,serif" font-size="14.00" fill="#5b00c0">rw</text>
</g>
<!-- T472&#45;&gt;T471 -->
<g id="edge2" class="edge">
<title>T472:f3&#45;&gt;T471:f1</title>
<path fill="none" stroke="#5b00c0" d="M1518.5,-30C1518.5,-74.7113 1436.7613,-39.2679 1423.3511,-70.8288"/>
<polygon fill="#5b00c0" stroke="#5b00c0" points="1419.8472,-70.5349 1421.5,-81 1426.734,-71.7883 1419.8472,-70.5349"/>
<text text-anchor="middle" x="1517" y="-51.8" font-family="Times,serif" font-size="14.00" fill="#5b00c0">rw</text>
</g>
</g>
</svg>
