<?xml version="1.0" encoding="UTF-8" standalone="no"?>
<!DOCTYPE svg PUBLIC "-//W3C//DTD SVG 1.1//EN"
 "http://www.w3.org/Graphics/SVG/1.1/DTD/svg11.dtd">
<!-- Generated by graphviz version 2.40.1 (20161225.0304)
 -->
<!-- Title: a_graph Pages: 1 -->
<svg width="1562pt" height="119pt"
 viewBox="0.00 0.00 1562.00 119.00" xmlns="http://www.w3.org/2000/svg" xmlns:xlink="http://www.w3.org/1999/xlink">
<g id="graph0" class="graph" transform="scale(1 1) rotate(0) translate(4 115)">
<title>a_graph</title>
<polygon fill="#ffffff" stroke="transparent" points="-4,4 -4,-115 1558,-115 1558,4 -4,4"/>
<!-- T5005 -->
<g id="node1" class="node">
<title>T5005</title>
<polygon fill="none" stroke="#0058ad" points="586,-81.5 586,-110.5 1554,-110.5 1554,-81.5 586,-81.5"/>
<text text-anchor="middle" x="611" y="-92.3" font-family="Times,serif" font-size="14.00" fill="#0058ad">a 5 93</text>
<polyline fill="none" stroke="#0058ad" points="636,-81.5 636,-110.5 "/>
<text text-anchor="middle" x="865.5" y="-92.3" font-family="Times,serif" font-size="14.00" fill="#0058ad">r 29 [1 2 5 6 7 8 9 3 13 14 15 16 17 18 19 20 21 22 24 25 23 26 27 28 29 31 32]</text>
<polyline fill="none" stroke="#0058ad" points="1095,-81.5 1095,-110.5 "/>
<text text-anchor="middle" x="1324.5" y="-92.3" font-family="Times,serif" font-size="14.00" fill="#0058ad">r 29 [1 2 5 6 7 8 9 3 13 14 15 16 17 18 19 20 21 22 24 25 23 26 27 28 29 31 32]</text>
</g>
<!-- T5007 -->
<g id="node2" class="node">
<title>T5007</title>
<polygon fill="none" stroke="#0058ad" points="0,-.5 0,-29.5 1458,-29.5 1458,-.5 0,-.5"/>
<text text-anchor="middle" x="462.5" y="-11.3" font-family="Times,serif" font-size="14.00" fill="#0058ad">r 5 [1 2 3 4 5 6 9 10 11 12 13 48 49 50 51 52 53 54 56 55 57 58 59 60 62 63 64 65 66 67 68 69 70 71 73 74 75 76 77 78 79 80 81 82 83 84 85 86 87 88 89 90 91 92]</text>
<polyline fill="none" stroke="#0058ad" points="925,-.5 925,-29.5 "/>
<text text-anchor="middle" x="953.5" y="-11.3" font-family="Times,serif" font-size="14.00" fill="#0058ad">a 29 30</text>
<polyline fill="none" stroke="#0058ad" points="982,-.5 982,-29.5 "/>
<text text-anchor="middle" x="1220" y="-11.3" font-family="Times,serif" font-size="14.00" fill="#0058ad">r 29 [1 2 5 6 7 8 9 3 13 14 15 16 17 18 19 20 21 22 24 25 23 26 27 28 29 31 32 30]</text>
</g>
<!-- T5005&#45;&gt;T5007 -->
<g id="edge1" class="edge">
<title>T5005:f1&#45;&gt;T5007:f1</title>
<path fill="none" stroke="#5b00c0" d="M865,-81C865,-39.3282 939.3604,-69.3173 952.1411,-39.9622"/>
<polygon fill="#5b00c0" stroke="#5b00c0" points="955.6062,-40.4724 954,-30 948.725,-39.1883 955.6062,-40.4724"/>
<text text-anchor="middle" x="951.5" y="-51.8" font-family="Times,serif" font-size="14.00" fill="#5b00c0">rw</text>
</g>
<!-- T5007&#45;&gt;T5005 -->
<g id="edge2" class="edge">
<title>T5007:f0&#45;&gt;T5005:f0</title>
<path fill="none" stroke="#5b00c0" d="M462,-30C462,-89.0172 517.0187,-95.4336 575.775,-95.9589"/>
<polygon fill="#5b00c0" stroke="#5b00c0" points="575.986,-99.4597 586,-96 576.0142,-92.4598 575.986,-99.4597"/>
<text text-anchor="middle" x="476.5" y="-51.8" font-family="Times,serif" font-size="14.00" fill="#5b00c0">rw</text>
</g>
</g>
</svg>
