<?xml version="1.0" encoding="UTF-8" standalone="no"?>
<!DOCTYPE svg PUBLIC "-//W3C//DTD SVG 1.1//EN"
 "http://www.w3.org/Graphics/SVG/1.1/DTD/svg11.dtd">
<!-- Generated by graphviz version 2.40.1 (20161225.0304)
 -->
<!-- Title: a_graph Pages: 1 -->
<svg width="2389pt" height="119pt"
 viewBox="0.00 0.00 2389.00 119.00" xmlns="http://www.w3.org/2000/svg" xmlns:xlink="http://www.w3.org/1999/xlink">
<g id="graph0" class="graph" transform="scale(1 1) rotate(0) translate(4 115)">
<title>a_graph</title>
<polygon fill="#ffffff" stroke="transparent" points="-4,4 -4,-115 2385,-115 2385,4 -4,4"/>
<!-- T14457 -->
<g id="node1" class="node">
<title>T14457</title>
<polygon fill="none" stroke="#0058ad" points="0,-81.5 0,-110.5 2381,-110.5 2381,-81.5 0,-81.5"/>
<text text-anchor="middle" x="28.5" y="-92.3" font-family="Times,serif" font-size="14.00" fill="#0058ad">a 73 88</text>
<polyline fill="none" stroke="#0058ad" points="57,-81.5 57,-110.5 "/>
<text text-anchor="middle" x="85.5" y="-92.3" font-family="Times,serif" font-size="14.00" fill="#0058ad">a 72 14</text>
<polyline fill="none" stroke="#0058ad" points="114,-81.5 114,-110.5 "/>
<text text-anchor="middle" x="217.5" y="-92.3" font-family="Times,serif" font-size="14.00" fill="#0058ad">r 72 [1 2 3 4 5 6 8 10 11 12 13 14]</text>
<polyline fill="none" stroke="#0058ad" points="321,-81.5 321,-110.5 "/>
<text text-anchor="middle" x="1351" y="-92.3" font-family="Times,serif" font-size="14.00" fill="#0058ad">r 75 [2 1 4 5 6 3 9 11 12 13 16 18 19 20 23 24 22 25 26 27 21 28 29 30 31 32 33 34 35 36 37 38 41 42 43 39 40 44 45 47 48 46 51 49 50 52 54 55 53 56 57 59 60 61 62 58 63 64 66 65 67 68 69 70 71 72 73 74 75 76 77 78 80 81 82 79 83 84 85 86 87 88 90 91 89 92 93 94 95 96 97 98 100 101 102 99 103 104 106 107 108 109 105 110 111 112 113 114 115 116 117 118]</text>
</g>
<!-- T14455 -->
<g id="node2" class="node">
<title>T14455</title>
<polygon fill="none" stroke="#0058ad" points="227,-.5 227,-29.5 1780,-29.5 1780,-.5 227,-.5"/>
<text text-anchor="middle" x="255.5" y="-11.3" font-family="Times,serif" font-size="14.00" fill="#0058ad">a 70 82</text>
<polyline fill="none" stroke="#0058ad" points="284,-.5 284,-29.5 "/>
<text text-anchor="middle" x="316" y="-11.3" font-family="Times,serif" font-size="14.00" fill="#0058ad">a 75 119</text>
<polyline fill="none" stroke="#0058ad" points="348,-.5 348,-29.5 "/>
<text text-anchor="middle" x="1064" y="-11.3" font-family="Times,serif" font-size="14.00" fill="#0058ad">r 73 [2 3 5 4 7 9 8 11 12 14 15 16 17 18 19 20 22 23 24 25 26 27 21 28 29 30 31 32 33 34 35 36 37 38 39 41 42 40 43 45 44 47 48 49 46 50 51 52 53 54 55 56 57 58 59 60 61 62 63 64 65 66 67 68 69 70 71 72 73 74 75 76 77 78 80 79 81 82 83 84 85 86 87]</text>
</g>
<!-- T14457&#45;&gt;T14455 -->
<g id="edge1" class="edge">
<title>T14457:f3&#45;&gt;T14455:f1</title>
<path fill="none" stroke="#5b00c0" d="M1351.5,-81C1351.5,-26.1322 412.2762,-81.7553 322.3896,-37.4619"/>
<polygon fill="#5b00c0" stroke="#5b00c0" points="324.8553,-34.9729 315.5,-30 319.7122,-39.7215 324.8553,-34.9729"/>
<text text-anchor="middle" x="1287" y="-51.8" font-family="Times,serif" font-size="14.00" fill="#5b00c0">rw</text>
</g>
<!-- T14455&#45;&gt;T14457 -->
<g id="edge2" class="edge">
<title>T14455:f2&#45;&gt;T14457:f0</title>
<path fill="none" stroke="#5b00c0" d="M1064.5,-30C1064.5,-49.3676 386.831,-46.811 367.5,-48 219.9479,-57.0754 37.2879,64.4695 28.8068,-70.8107"/>
<polygon fill="#5b00c0" stroke="#5b00c0" points="25.3026,-70.8992 28.5,-81 32.2994,-71.1099 25.3026,-70.8992"/>
<text text-anchor="middle" x="375" y="-51.8" font-family="Times,serif" font-size="14.00" fill="#5b00c0">rw</text>
</g>
</g>
</svg>
