<?xml version="1.0" encoding="UTF-8" standalone="no"?>
<!DOCTYPE svg PUBLIC "-//W3C//DTD SVG 1.1//EN"
 "http://www.w3.org/Graphics/SVG/1.1/DTD/svg11.dtd">
<!-- Generated by graphviz version 2.40.1 (20161225.0304)
 -->
<!-- Title: a_graph Pages: 1 -->
<svg width="2591pt" height="119pt"
 viewBox="0.00 0.00 2590.50 119.00" xmlns="http://www.w3.org/2000/svg" xmlns:xlink="http://www.w3.org/1999/xlink">
<g id="graph0" class="graph" transform="scale(1 1) rotate(0) translate(4 115)">
<title>a_graph</title>
<polygon fill="#ffffff" stroke="transparent" points="-4,4 -4,-115 2586.5,-115 2586.5,4 -4,4"/>
<!-- T12215 -->
<g id="node1" class="node">
<title>T12215</title>
<polygon fill="none" stroke="#0058ad" points="0,-81.5 0,-110.5 1189,-110.5 1189,-81.5 0,-81.5"/>
<text text-anchor="middle" x="502" y="-92.3" font-family="Times,serif" font-size="14.00" fill="#0058ad">r 63 [2 3 4 5 6 7 8 9 10 1 11 12 13 14 15 16 17 18 19 20 21 22 23 24 25 26 27 28 29 30 31 32 33 34 35 36 37 38 39 40 41 42 43 45 46 47 48 49 53 44 55 56 57 58 59 54 60 61 62]</text>
<polyline fill="none" stroke="#0058ad" points="1004,-81.5 1004,-110.5 "/>
<text text-anchor="middle" x="1036" y="-92.3" font-family="Times,serif" font-size="14.00" fill="#0058ad">a 60 125</text>
<polyline fill="none" stroke="#0058ad" points="1068,-81.5 1068,-110.5 "/>
<text text-anchor="middle" x="1100" y="-92.3" font-family="Times,serif" font-size="14.00" fill="#0058ad">a 51 126</text>
<polyline fill="none" stroke="#0058ad" points="1132,-81.5 1132,-110.5 "/>
<text text-anchor="middle" x="1160.5" y="-92.3" font-family="Times,serif" font-size="14.00" fill="#0058ad">a 62 43</text>
</g>
<!-- T12213 -->
<g id="node2" class="node">
<title>T12213</title>
<polygon fill="none" stroke="#0058ad" points="324.5,-.5 324.5,-29.5 2582.5,-29.5 2582.5,-.5 324.5,-.5"/>
<text text-anchor="middle" x="353" y="-11.3" font-family="Times,serif" font-size="14.00" fill="#0058ad">a 63 63</text>
<polyline fill="none" stroke="#0058ad" points="381.5,-.5 381.5,-29.5 "/>
<text text-anchor="middle" x="1482" y="-11.3" font-family="Times,serif" font-size="14.00" fill="#0058ad">r 60 [1 2 3 4 5 6 7 8 9 10 11 12 13 14 15 16 17 18 19 20 21 22 24 25 26 27 28 29 31 30 32 33 35 36 38 37 39 40 43 45 46 47 44 49 50 48 51 53 52 54 55 57 56 58 59 60 61 62 63 64 66 67 68 69 65 70 71 72 73 74 75 76 77 78 79 80 81 82 83 84 85 86 87 88 89 91 90 92 94 95 96 97 98 99 93 100 101 102 103 104 106 105 107 108 109 110 111 112 113 114 117 118 121 119 120 115 122 123 124]</text>
</g>
<!-- T12215&#45;&gt;T12213 -->
<g id="edge1" class="edge">
<title>T12215:f0&#45;&gt;T12213:f0</title>
<path fill="none" stroke="#5b00c0" d="M501.5,-81C501.5,-14.8338 368.3513,-90.7364 353.7881,-40.109"/>
<polygon fill="#5b00c0" stroke="#5b00c0" points="357.236,-39.4774 352.5,-30 350.2922,-40.3622 357.236,-39.4774"/>
<text text-anchor="middle" x="504" y="-51.8" font-family="Times,serif" font-size="14.00" fill="#5b00c0">rw</text>
</g>
<!-- T12213&#45;&gt;T12215 -->
<g id="edge2" class="edge">
<title>T12213:f1&#45;&gt;T12215:f1</title>
<path fill="none" stroke="#5b00c0" d="M1482.5,-30C1482.5,-226.0069 1052.0419,106.4478 1036.9086,-70.9804"/>
<polygon fill="#5b00c0" stroke="#5b00c0" points="1033.4104,-70.8657 1036.5,-81 1040.4046,-71.1509 1033.4104,-70.8657"/>
<text text-anchor="middle" x="1487" y="-51.8" font-family="Times,serif" font-size="14.00" fill="#5b00c0">rw</text>
</g>
</g>
</svg>
