<?xml version="1.0" encoding="UTF-8" standalone="no"?>
<!DOCTYPE svg PUBLIC "-//W3C//DTD SVG 1.1//EN"
 "http://www.w3.org/Graphics/SVG/1.1/DTD/svg11.dtd">
<!-- Generated by graphviz version 2.40.1 (20161225.0304)
 -->
<!-- Title: a_graph Pages: 1 -->
<svg width="3082pt" height="119pt"
 viewBox="0.00 0.00 3081.50 119.00" xmlns="http://www.w3.org/2000/svg" xmlns:xlink="http://www.w3.org/1999/xlink">
<g id="graph0" class="graph" transform="scale(1 1) rotate(0) translate(4 115)">
<title>a_graph</title>
<polygon fill="#ffffff" stroke="transparent" points="-4,4 -4,-115 3077.5,-115 3077.5,4 -4,4"/>
<!-- T10543 -->
<g id="node1" class="node">
<title>T10543</title>
<polygon fill="none" stroke="#0058ad" points="887.5,-81.5 887.5,-110.5 3073.5,-110.5 3073.5,-81.5 887.5,-81.5"/>
<text text-anchor="middle" x="1243" y="-92.3" font-family="Times,serif" font-size="14.00" fill="#0058ad">r 56 [1 2 3 4 5 6 7 8 9 10 11 12 13 14 15 16 17 18 19 20 21 23 24 25 26 27 28 29 30 34 35 36 37 38 39 40 41 42 44 45 46 47]</text>
<polyline fill="none" stroke="#0058ad" points="1598.5,-81.5 1598.5,-110.5 "/>
<text text-anchor="middle" x="2307.5" y="-92.3" font-family="Times,serif" font-size="14.00" fill="#0058ad">r 53 [3 2 1 4 5 6 7 8 9 10 11 12 13 14 16 17 18 19 23 22 25 26 27 28 29 30 32 33 31 34 36 35 37 38 39 40 41 42 43 44 45 46 47 48 49 50 51 52 53 54 55 56 57 58 59 60 61 63 62 65 66 64 67 69 68 70 71 72 73 74 75 76 77 78 79 80 81 82 83 84 85 86 87]</text>
<polyline fill="none" stroke="#0058ad" points="3016.5,-81.5 3016.5,-110.5 "/>
<text text-anchor="middle" x="3045" y="-92.3" font-family="Times,serif" font-size="14.00" fill="#0058ad">a 53 88</text>
</g>
<!-- T10545 -->
<g id="node2" class="node">
<title>T10545</title>
<polygon fill="none" stroke="#0058ad" points="0,-.5 0,-29.5 2897,-29.5 2897,-.5 0,-.5"/>
<text text-anchor="middle" x="355.5" y="-11.3" font-family="Times,serif" font-size="14.00" fill="#0058ad">r 56 [1 2 3 4 5 6 7 8 9 10 11 12 13 14 15 16 17 18 19 20 21 23 24 25 26 27 28 29 30 34 35 36 37 38 39 40 41 42 44 45 46 47]</text>
<polyline fill="none" stroke="#0058ad" points="711,-.5 711,-29.5 "/>
<text text-anchor="middle" x="1420" y="-11.3" font-family="Times,serif" font-size="14.00" fill="#0058ad">r 53 [3 2 1 4 5 6 7 8 9 10 11 12 13 14 16 17 18 19 23 22 25 26 27 28 29 30 32 33 31 34 36 35 37 38 39 40 41 42 43 44 45 46 47 48 49 50 51 52 53 54 55 56 57 58 59 60 61 63 62 65 66 64 67 69 68 70 71 72 73 74 75 76 77 78 79 80 81 82 83 84 85 86 87]</text>
<polyline fill="none" stroke="#0058ad" points="2129,-.5 2129,-29.5 "/>
<text text-anchor="middle" x="2484.5" y="-11.3" font-family="Times,serif" font-size="14.00" fill="#0058ad">r 56 [1 2 3 4 5 6 7 8 9 10 11 12 13 14 15 16 17 18 19 20 21 23 24 25 26 27 28 29 30 34 35 36 37 38 39 40 41 42 44 45 46 47]</text>
<polyline fill="none" stroke="#0058ad" points="2840,-.5 2840,-29.5 "/>
<text text-anchor="middle" x="2868.5" y="-11.3" font-family="Times,serif" font-size="14.00" fill="#0058ad">a 56 48</text>
</g>
<!-- T10543&#45;&gt;T10545 -->
<g id="edge1" class="edge">
<title>T10543:f0&#45;&gt;T10545:f3</title>
<path fill="none" stroke="#5b00c0" d="M1242.5,-81C1242.5,-59.4426 2722.6637,-53.1632 2858.5381,-33.0083"/>
<polygon fill="#5b00c0" stroke="#5b00c0" points="2859.9388,-36.2415 2868.5,-30 2857.9151,-29.5404 2859.9388,-36.2415"/>
<text text-anchor="middle" x="2439" y="-51.8" font-family="Times,serif" font-size="14.00" fill="#5b00c0">rw</text>
</g>
<!-- T10545&#45;&gt;T10543 -->
<g id="edge2" class="edge">
<title>T10545:f1&#45;&gt;T10543:f2</title>
<path fill="none" stroke="#5b00c0" d="M1419.5,-30C1419.5,-44.3216 2436.1879,-47.4784 2450.5,-48 2579.3482,-52.6962 3021.3314,46.0038 3044.5496,-71.0122"/>
<polygon fill="#5b00c0" stroke="#5b00c0" points="3041.0683,-71.3766 3045.5,-81 3048.0369,-70.7134 3041.0683,-71.3766"/>
<text text-anchor="middle" x="3048" y="-51.8" font-family="Times,serif" font-size="14.00" fill="#5b00c0">rw</text>
</g>
</g>
</svg>
