<?xml version="1.0" encoding="UTF-8" standalone="no"?>
<!DOCTYPE svg PUBLIC "-//W3C//DTD SVG 1.1//EN"
 "http://www.w3.org/Graphics/SVG/1.1/DTD/svg11.dtd">
<!-- Generated by graphviz version 2.40.1 (20161225.0304)
 -->
<!-- Title: a_graph Pages: 1 -->
<svg width="4278pt" height="119pt"
 viewBox="0.00 0.00 4278.00 119.00" xmlns="http://www.w3.org/2000/svg" xmlns:xlink="http://www.w3.org/1999/xlink">
<g id="graph0" class="graph" transform="scale(1 1) rotate(0) translate(4 115)">
<title>a_graph</title>
<polygon fill="#ffffff" stroke="transparent" points="-4,4 -4,-115 4274,-115 4274,4 -4,4"/>
<!-- T331 -->
<g id="node1" class="node">
<title>T331</title>
<polygon fill="none" stroke="#0058ad" points="0,-81.5 0,-110.5 4270,-110.5 4270,-81.5 0,-81.5"/>
<text text-anchor="middle" x="858.5" y="-92.3" font-family="Times,serif" font-size="14.00" fill="#0058ad">r 9 [6 12 9 10 13 14 15 16 17 18 19 20 21 22 23 24 25 26 27 28 29 32 33 34 30 31 35 36 37 38 39 40 41 42 43 44 45 46 47 49 50 48 51 52 53 54 55 56 57 58 59 60 61 62 63 64 65 66 67 68 69 70 71 72 73 74 75 76 77 78 79 80 81 82 83 84 85 86 87 88 89 90 91 92 93 94 95 96 97 98 99 100 101 102 103 104]</text>
<polyline fill="none" stroke="#0058ad" points="1717,-81.5 1717,-110.5 "/>
<text text-anchor="middle" x="2575.5" y="-92.3" font-family="Times,serif" font-size="14.00" fill="#0058ad">r 9 [6 12 9 10 13 14 15 16 17 18 19 20 21 22 23 24 25 26 27 28 29 32 33 34 30 31 35 36 37 38 39 40 41 42 43 44 45 46 47 49 50 48 51 52 53 54 55 56 57 58 59 60 61 62 63 64 65 66 67 68 69 70 71 72 73 74 75 76 77 78 79 80 81 82 83 84 85 86 87 88 89 90 91 92 93 94 95 96 97 98 99 100 101 102 103 104]</text>
<polyline fill="none" stroke="#0058ad" points="3434,-81.5 3434,-110.5 "/>
<text text-anchor="middle" x="3827" y="-92.3" font-family="Times,serif" font-size="14.00" fill="#0058ad">r 8 [10 11 4 5 12 13 14 15 16 17 18 19 20 21 22 23 24 25 26 27 28 29 30 31 32 33 34 35 36 37 38 39 40 41 42 43 44 45 46 47 48 49 51 50]</text>
<polyline fill="none" stroke="#0058ad" points="4220,-81.5 4220,-110.5 "/>
<text text-anchor="middle" x="4245" y="-92.3" font-family="Times,serif" font-size="14.00" fill="#0058ad">a 7 32</text>
</g>
<!-- T332 -->
<g id="node2" class="node">
<title>T332</title>
<polygon fill="none" stroke="#0058ad" points="1321.5,-.5 1321.5,-29.5 2668.5,-29.5 2668.5,-.5 1321.5,-.5"/>
<text text-anchor="middle" x="1573.5" y="-11.3" font-family="Times,serif" font-size="14.00" fill="#0058ad">r 7 [1 3 4 5 6 8 7 9 10 11 12 13 14 15 16 17 18 19 20 21 22 23 24 25 26 27 28 29 30 31]</text>
<polyline fill="none" stroke="#0058ad" points="1825.5,-.5 1825.5,-29.5 "/>
<text text-anchor="middle" x="1854" y="-11.3" font-family="Times,serif" font-size="14.00" fill="#0058ad">a 9 105</text>
<polyline fill="none" stroke="#0058ad" points="1882.5,-.5 1882.5,-29.5 "/>
<text text-anchor="middle" x="2275.5" y="-11.3" font-family="Times,serif" font-size="14.00" fill="#0058ad">r 8 [10 11 4 5 12 13 14 15 16 17 18 19 20 21 22 23 24 25 26 27 28 29 30 31 32 33 34 35 36 37 38 39 40 41 42 43 44 45 46 47 48 49 51 50]</text>
</g>
<!-- T331&#45;&gt;T332 -->
<g id="edge1" class="edge">
<title>T331:f0&#45;&gt;T332:f1</title>
<path fill="none" stroke="#5b00c0" d="M858,-81C858,137.0522 1822.1609,-239.1419 1853.2325,-40.2402"/>
<polygon fill="#5b00c0" stroke="#5b00c0" points="1856.7428,-40.2336 1854,-30 1849.7623,-39.7104 1856.7428,-40.2336"/>
<text text-anchor="middle" x="1857.5" y="-51.8" font-family="Times,serif" font-size="14.00" fill="#5b00c0">rw</text>
</g>
<!-- T332&#45;&gt;T331 -->
<g id="edge2" class="edge">
<title>T332:f0&#45;&gt;T331:f3</title>
<path fill="none" stroke="#5b00c0" d="M1573,-30C1573,-65.8311 4062.9458,-45.4207 4235.5885,-77.3522"/>
<polygon fill="#5b00c0" stroke="#5b00c0" points="4234.411,-80.6494 4245,-81 4236.9408,-74.1225 4234.411,-80.6494"/>
<text text-anchor="middle" x="3804.5" y="-51.8" font-family="Times,serif" font-size="14.00" fill="#5b00c0">rw</text>
</g>
</g>
</svg>
