<?xml version="1.0" encoding="UTF-8" standalone="no"?>
<!DOCTYPE svg PUBLIC "-//W3C//DTD SVG 1.1//EN"
 "http://www.w3.org/Graphics/SVG/1.1/DTD/svg11.dtd">
<!-- Generated by graphviz version 2.40.1 (20161225.0304)
 -->
<!-- Title: a_graph Pages: 1 -->
<svg width="1415pt" height="119pt"
 viewBox="0.00 0.00 1415.00 119.00" xmlns="http://www.w3.org/2000/svg" xmlns:xlink="http://www.w3.org/1999/xlink">
<g id="graph0" class="graph" transform="scale(1 1) rotate(0) translate(4 115)">
<title>a_graph</title>
<polygon fill="#ffffff" stroke="transparent" points="-4,4 -4,-115 1411,-115 1411,4 -4,4"/>
<!-- T3783 -->
<g id="node1" class="node">
<title>T3783</title>
<polygon fill="none" stroke="#0058ad" points="342,-81.5 342,-110.5 1407,-110.5 1407,-81.5 342,-81.5"/>
<text text-anchor="middle" x="594" y="-92.3" font-family="Times,serif" font-size="14.00" fill="#0058ad">r 25 [1 2 3 4 5 7 8 9 10 11 12 13 6 14 15 16 17 18 20 21 22 23 24 25 26 27 28 30 34 31]</text>
<polyline fill="none" stroke="#0058ad" points="846,-81.5 846,-110.5 "/>
<text text-anchor="middle" x="874.5" y="-92.3" font-family="Times,serif" font-size="14.00" fill="#0058ad">a 18 55</text>
<polyline fill="none" stroke="#0058ad" points="903,-81.5 903,-110.5 "/>
<text text-anchor="middle" x="1155" y="-92.3" font-family="Times,serif" font-size="14.00" fill="#0058ad">r 25 [1 2 3 4 5 7 8 9 10 11 12 13 6 14 15 16 17 18 20 21 22 23 24 25 26 27 28 30 34 31]</text>
</g>
<!-- T3781 -->
<g id="node2" class="node">
<title>T3781</title>
<polygon fill="none" stroke="#0058ad" points="0,-.5 0,-29.5 1055,-29.5 1055,-.5 0,-.5"/>
<text text-anchor="middle" x="28.5" y="-11.3" font-family="Times,serif" font-size="14.00" fill="#0058ad">a 24 31</text>
<polyline fill="none" stroke="#0058ad" points="57,-.5 57,-29.5 "/>
<text text-anchor="middle" x="499" y="-11.3" font-family="Times,serif" font-size="14.00" fill="#0058ad">r 18 [1 2 3 4 5 6 7 8 9 10 11 12 13 16 14 15 17 18 19 21 23 22 24 26 25 28 27 29 30 31 32 33 34 36 37 35 38 39 40 42 43 44 45 46 47 49 48 51 50 52 53 54]</text>
<polyline fill="none" stroke="#0058ad" points="941,-.5 941,-29.5 "/>
<text text-anchor="middle" x="969.5" y="-11.3" font-family="Times,serif" font-size="14.00" fill="#0058ad">a 25 32</text>
<polyline fill="none" stroke="#0058ad" points="998,-.5 998,-29.5 "/>
<text text-anchor="middle" x="1026.5" y="-11.3" font-family="Times,serif" font-size="14.00" fill="#0058ad">a 25 33</text>
</g>
<!-- T3783&#45;&gt;T3781 -->
<g id="edge1" class="edge">
<title>T3783:f0&#45;&gt;T3781:f2</title>
<path fill="none" stroke="#5b00c0" d="M593.5,-81C593.5,1.6452 694.6146,-59.1808 776.5,-48 795.1721,-45.4505 928.9336,-50.071 962.0823,-36.8375"/>
<polygon fill="#5b00c0" stroke="#5b00c0" points="964.5194,-39.3512 969.5,-30 959.775,-34.2042 964.5194,-39.3512"/>
<text text-anchor="middle" x="784" y="-51.8" font-family="Times,serif" font-size="14.00" fill="#5b00c0">rw</text>
</g>
<!-- T3781&#45;&gt;T3783 -->
<g id="edge2" class="edge">
<title>T3781:f1&#45;&gt;T3783:f1</title>
<path fill="none" stroke="#5b00c0" d="M498.5,-30C498.5,-46.3085 775.5842,-44.4427 791.5,-48 826.4584,-55.8134 865.9084,-44.0727 873.2801,-70.8713"/>
<polygon fill="#5b00c0" stroke="#5b00c0" points="869.8293,-71.4903 874.5,-81 876.7791,-70.6532 869.8293,-71.4903"/>
<text text-anchor="middle" x="876" y="-51.8" font-family="Times,serif" font-size="14.00" fill="#5b00c0">rw</text>
</g>
</g>
</svg>
