<?xml version="1.0" encoding="UTF-8" standalone="no"?>
<!DOCTYPE svg PUBLIC "-//W3C//DTD SVG 1.1//EN"
 "http://www.w3.org/Graphics/SVG/1.1/DTD/svg11.dtd">
<!-- Generated by graphviz version 2.40.1 (20161225.0304)
 -->
<!-- Title: a_graph Pages: 1 -->
<svg width="3938pt" height="200pt"
 viewBox="0.00 0.00 3937.50 200.00" xmlns="http://www.w3.org/2000/svg" xmlns:xlink="http://www.w3.org/1999/xlink">
<g id="graph0" class="graph" transform="scale(1 1) rotate(0) translate(4 196)">
<title>a_graph</title>
<polygon fill="#ffffff" stroke="transparent" points="-4,4 -4,-196 3933.5,-196 3933.5,4 -4,4"/>
<!-- T7435 -->
<g id="node1" class="node">
<title>T7435</title>
<polygon fill="none" stroke="#0058ad" points="2932.5,-162.5 2932.5,-191.5 2990.5,-191.5 2990.5,-162.5 2932.5,-162.5"/>
<text text-anchor="middle" x="2961.5" y="-173.3" font-family="Times,serif" font-size="14.00" fill="#0058ad">r 42 [1]</text>
</g>
<!-- T7437 -->
<g id="node3" class="node">
<title>T7437</title>
<polygon fill="none" stroke="#0058ad" points="0,-81.5 0,-110.5 3905,-110.5 3905,-81.5 0,-81.5"/>
<text text-anchor="middle" x="25" y="-92.3" font-family="Times,serif" font-size="14.00" fill="#0058ad">a 42 2</text>
<polyline fill="none" stroke="#0058ad" points="50,-81.5 50,-110.5 "/>
<text text-anchor="middle" x="500.5" y="-92.3" font-family="Times,serif" font-size="14.00" fill="#0058ad">r 38 [1 2 3 4 5 6 7 8 9 10 11 12 13 15 16 17 18 19 20 21 22 23 24 25 26 27 28 29 30 31 33 35 36 37 38 39 41 40 42 43 44 45 46 47 49 50 48 51 52 53 54 55 56]</text>
<polyline fill="none" stroke="#0058ad" points="951,-81.5 951,-110.5 "/>
<text text-anchor="middle" x="1689.5" y="-92.3" font-family="Times,serif" font-size="14.00" fill="#0058ad">r 40 [1 2 3 4 5 6 7 8 11 12 13 14 15 16 17 18 19 21 22 23 24 26 29 25 30 31 33 32 34 35 36 38 39 37 40 41 42 43 44 45 46 49 47 48 50 51 52 53 54 55 56 57 58 60 59 61 62 63 64 65 67 68 69 70 71 72 75 73 74 77 76 78 79 80 81 83 84 82 85 86 87 88 89 90 91 92]</text>
<polyline fill="none" stroke="#0058ad" points="2428,-81.5 2428,-110.5 "/>
<text text-anchor="middle" x="3166.5" y="-92.3" font-family="Times,serif" font-size="14.00" fill="#0058ad">r 40 [1 2 3 4 5 6 7 8 11 12 13 14 15 16 17 18 19 21 22 23 24 26 29 25 30 31 33 32 34 35 36 38 39 37 40 41 42 43 44 45 46 49 47 48 50 51 52 53 54 55 56 57 58 60 59 61 62 63 64 65 67 68 69 70 71 72 75 73 74 77 76 78 79 80 81 83 84 82 85 86 87 88 89 90 91 92]</text>
</g>
<!-- T7435&#45;&gt;T7437 -->
<g id="edge1" class="edge">
<title>T7435:f0&#45;&gt;T7437:f0</title>
<path fill="none" stroke="#5b00c0" d="M2934.1517,-162.4515C2933.6005,-162.2897 2933.0496,-162.1388 2932.5,-162 2856.5418,-142.8116 193.3062,-188.852 32.1252,-117.9845"/>
<polygon fill="#5b00c0" stroke="#5b00c0" points="34.2382,-115.1736 24.5,-111 29.51,-120.3355 34.2382,-115.1736"/>
<text text-anchor="middle" x="274" y="-132.8" font-family="Times,serif" font-size="14.00" fill="#5b00c0">rw</text>
</g>
<!-- T7433 -->
<g id="node2" class="node">
<title>T7433</title>
<polygon fill="none" stroke="#0058ad" points="1661.5,-.5 1661.5,-29.5 1833.5,-29.5 1833.5,-.5 1661.5,-.5"/>
<text text-anchor="middle" x="1690" y="-11.3" font-family="Times,serif" font-size="14.00" fill="#0058ad">a 40 93</text>
<polyline fill="none" stroke="#0058ad" points="1718.5,-.5 1718.5,-29.5 "/>
<text text-anchor="middle" x="1747.5" y="-11.3" font-family="Times,serif" font-size="14.00" fill="#0058ad">r 42 [1]</text>
<polyline fill="none" stroke="#0058ad" points="1776.5,-.5 1776.5,-29.5 "/>
<text text-anchor="middle" x="1805" y="-11.3" font-family="Times,serif" font-size="14.00" fill="#0058ad">a 40 94</text>
</g>
<!-- T7433&#45;&gt;T7435 -->
<g id="edge3" class="edge">
<title>T7433&#45;&gt;T7435</title>
<path fill="none" stroke="#0050c0" d="M1833.5117,-15.9977C2231.6188,-20.8153 3877.6471,-43.0076 3914.5,-81 3923.7835,-90.5705 3923.5966,-101.2517 3914.5,-111 3882.8117,-144.9588 3176.6362,-170.0299 3000.851,-175.7592"/>
<polygon fill="#0050c0" stroke="#0050c0" points="3000.6338,-172.2643 2990.7522,-176.086 3000.8602,-179.2607 3000.6338,-172.2643"/>
<text text-anchor="middle" x="3925" y="-92.3" font-family="Times,serif" font-size="14.00" fill="#0050c0">rt</text>
</g>
<!-- T7433&#45;&gt;T7437 -->
<g id="edge2" class="edge">
<title>T7433:f1&#45;&gt;T7437:f0</title>
<path fill="none" stroke="#5b00c0" d="M1747.5,-30C1747.5,-52.7058 1729.7784,-55.0763 1708.5,-63 1687.5649,-70.7958 170.5177,-58.7836 34.2628,-78.0661"/>
<polygon fill="#5b00c0" stroke="#5b00c0" points="33.0696,-74.77 24.5,-81 35.0842,-81.4738 33.0696,-74.77"/>
<text text-anchor="middle" x="1748" y="-51.8" font-family="Times,serif" font-size="14.00" fill="#5b00c0">rw</text>
</g>
<!-- T7437&#45;&gt;T7433 -->
<g id="edge4" class="edge">
<title>T7437:f2&#45;&gt;T7433:f0</title>
<path fill="none" stroke="#5b00c0" d="M1689.5,-81C1689.5,-62.2292 1689.5,-55.1168 1689.5,-40.3535"/>
<polygon fill="#5b00c0" stroke="#5b00c0" points="1693.0001,-40 1689.5,-30 1686.0001,-40 1693.0001,-40"/>
<text text-anchor="middle" x="1697" y="-51.8" font-family="Times,serif" font-size="14.00" fill="#5b00c0">rw</text>
</g>
</g>
</svg>
