<?xml version="1.0" encoding="UTF-8" standalone="no"?>
<!DOCTYPE svg PUBLIC "-//W3C//DTD SVG 1.1//EN"
 "http://www.w3.org/Graphics/SVG/1.1/DTD/svg11.dtd">
<!-- Generated by graphviz version 2.40.1 (20161225.0304)
 -->
<!-- Title: a_graph Pages: 1 -->
<svg width="1978pt" height="119pt"
 viewBox="0.00 0.00 1978.00 119.00" xmlns="http://www.w3.org/2000/svg" xmlns:xlink="http://www.w3.org/1999/xlink">
<g id="graph0" class="graph" transform="scale(1 1) rotate(0) translate(4 115)">
<title>a_graph</title>
<polygon fill="#ffffff" stroke="transparent" points="-4,4 -4,-115 1974,-115 1974,4 -4,4"/>
<!-- T13561 -->
<g id="node1" class="node">
<title>T13561</title>
<polygon fill="none" stroke="#0058ad" points="1297.5,-81.5 1297.5,-110.5 1624.5,-110.5 1624.5,-81.5 1297.5,-81.5"/>
<text text-anchor="middle" x="1368.5" y="-92.3" font-family="Times,serif" font-size="14.00" fill="#0058ad">r 70 [1 2 3 4 5 6 7 8 9]</text>
<polyline fill="none" stroke="#0058ad" points="1439.5,-81.5 1439.5,-110.5 "/>
<text text-anchor="middle" x="1468" y="-92.3" font-family="Times,serif" font-size="14.00" fill="#0058ad">a 68 75</text>
<polyline fill="none" stroke="#0058ad" points="1496.5,-81.5 1496.5,-110.5 "/>
<text text-anchor="middle" x="1528.5" y="-92.3" font-family="Times,serif" font-size="14.00" fill="#0058ad">a 69 114</text>
<polyline fill="none" stroke="#0058ad" points="1560.5,-81.5 1560.5,-110.5 "/>
<text text-anchor="middle" x="1592.5" y="-92.3" font-family="Times,serif" font-size="14.00" fill="#0058ad">a 69 115</text>
</g>
<!-- T13559 -->
<g id="node2" class="node">
<title>T13559</title>
<polygon fill="none" stroke="#0058ad" points="0,-.5 0,-29.5 1970,-29.5 1970,-.5 0,-.5"/>
<text text-anchor="middle" x="956.5" y="-11.3" font-family="Times,serif" font-size="14.00" fill="#0058ad">r 69 [1 2 3 4 5 6 7 8 10 11 9 12 13 14 15 16 17 18 19 20 21 22 23 24 25 27 28 26 30 29 31 32 33 34 35 36 37 40 41 42 43 38 39 44 46 47 48 49 50 52 53 54 55 56 57 58 59 60 61 62 63 64 65 66 67 68 69 70 71 72 73 74 75 76 77 78 79 80 81 82 83 84 87 88 89 90 91 93 94 95 96 97 98 92 99 100 101 102 103 106 107 108 109 110 111 112 113]</text>
<polyline fill="none" stroke="#0058ad" points="1913,-.5 1913,-29.5 "/>
<text text-anchor="middle" x="1941.5" y="-11.3" font-family="Times,serif" font-size="14.00" fill="#0058ad">a 70 10</text>
</g>
<!-- T13561&#45;&gt;T13559 -->
<g id="edge1" class="edge">
<title>T13561:f0&#45;&gt;T13559:f1</title>
<path fill="none" stroke="#5b00c0" d="M1368,-81C1368,-37.1416 1417.9242,-56.2482 1461,-48 1485.1606,-43.3737 1871.9187,-54.6561 1933.7055,-35.6752"/>
<polygon fill="#5b00c0" stroke="#5b00c0" points="1935.7234,-38.5355 1942,-30 1931.7705,-32.7583 1935.7234,-38.5355"/>
<text text-anchor="middle" x="1468.5" y="-51.8" font-family="Times,serif" font-size="14.00" fill="#5b00c0">rw</text>
</g>
<!-- T13559&#45;&gt;T13561 -->
<g id="edge2" class="edge">
<title>T13559:f0&#45;&gt;T13561:f2</title>
<path fill="none" stroke="#5b00c0" d="M956,-30C956,-58.9062 1448.3488,-39.575 1476,-48 1498.811,-54.9502 1521.5574,-53.8332 1527.5038,-70.9927"/>
<polygon fill="#5b00c0" stroke="#5b00c0" points="1524.0597,-71.6275 1529,-81 1530.9828,-70.5924 1524.0597,-71.6275"/>
<text text-anchor="middle" x="1528.5" y="-51.8" font-family="Times,serif" font-size="14.00" fill="#5b00c0">rw</text>
</g>
</g>
</svg>
