<?xml version="1.0" encoding="UTF-8" standalone="no"?>
<!DOCTYPE svg PUBLIC "-//W3C//DTD SVG 1.1//EN"
 "http://www.w3.org/Graphics/SVG/1.1/DTD/svg11.dtd">
<!-- Generated by graphviz version 2.40.1 (20161225.0304)
 -->
<!-- Title: a_graph Pages: 1 -->
<svg width="2729pt" height="119pt"
 viewBox="0.00 0.00 2729.00 119.00" xmlns="http://www.w3.org/2000/svg" xmlns:xlink="http://www.w3.org/1999/xlink">
<g id="graph0" class="graph" transform="scale(1 1) rotate(0) translate(4 115)">
<title>a_graph</title>
<polygon fill="#ffffff" stroke="transparent" points="-4,4 -4,-115 2725,-115 2725,4 -4,4"/>
<!-- T19415 -->
<g id="node1" class="node">
<title>T19415</title>
<polygon fill="none" stroke="#0058ad" points="113.5,-81.5 113.5,-110.5 2719.5,-110.5 2719.5,-81.5 113.5,-81.5"/>
<text text-anchor="middle" x="667.5" y="-92.3" font-family="Times,serif" font-size="14.00" fill="#0058ad">r 94 [1 2 3 4 5 7 6 9 8 10 11 12 15 16 17 18 20 21 22 25 23 26 27 28 29 30 32 31 33 34 35 36 37 38 39 40 41 42 43 47 46 48 49 50 52 51 53 54 55 56 57 61 60 62 63 64 65 66 67 68 69 70 71 72 73]</text>
<polyline fill="none" stroke="#0058ad" points="1221.5,-81.5 1221.5,-110.5 "/>
<text text-anchor="middle" x="1913.5" y="-92.3" font-family="Times,serif" font-size="14.00" fill="#0058ad">r 98 [2 1 3 5 6 7 4 8 9 11 12 14 15 16 17 18 19 20 10 24 21 22 23 25 26 27 28 29 30 33 34 31 32 36 35 39 37 38 40 42 43 44 41 45 48 49 50 52 53 51 54 55 56 60 57 58 59 61 65 66 67 70 71 72 75 73 74 78 76 77 79 80 81 82 84 85 88 86 87 89 90]</text>
<polyline fill="none" stroke="#0058ad" points="2605.5,-81.5 2605.5,-110.5 "/>
<text text-anchor="middle" x="2634" y="-92.3" font-family="Times,serif" font-size="14.00" fill="#0058ad">a 98 83</text>
<polyline fill="none" stroke="#0058ad" points="2662.5,-81.5 2662.5,-110.5 "/>
<text text-anchor="middle" x="2691" y="-92.3" font-family="Times,serif" font-size="14.00" fill="#0058ad">a 97 80</text>
</g>
<!-- T19409 -->
<g id="node2" class="node">
<title>T19409</title>
<polygon fill="none" stroke="#0058ad" points="0,-.5 0,-29.5 2721,-29.5 2721,-.5 0,-.5"/>
<text text-anchor="middle" x="666" y="-11.3" font-family="Times,serif" font-size="14.00" fill="#0058ad">r 97 [3 4 5 1 2 7 6 8 9 10 12 11 13 14 15 16 17 18 20 19 21 22 23 24 25 26 27 28 29 30 31 32 33 34 35 38 39 40 37 41 42 44 43 45 46 48 49 51 50 52 47 53 55 56 54 57 58 59 60 61 62 63 64 66 67 68 69 70 72 71 73 75 78 79 77 81 82 83]</text>
<polyline fill="none" stroke="#0058ad" points="1332,-.5 1332,-29.5 "/>
<text text-anchor="middle" x="1998" y="-11.3" font-family="Times,serif" font-size="14.00" fill="#0058ad">r 97 [3 4 5 1 2 7 6 8 9 10 12 11 13 14 15 16 17 18 20 19 21 22 23 24 25 26 27 28 29 30 31 32 33 34 35 38 39 40 37 41 42 44 43 45 46 48 49 51 50 52 47 53 55 56 54 57 58 59 60 61 62 63 64 66 67 68 69 70 72 71 73 75 78 79 77 81 82 83]</text>
<polyline fill="none" stroke="#0058ad" points="2664,-.5 2664,-29.5 "/>
<text text-anchor="middle" x="2692.5" y="-11.3" font-family="Times,serif" font-size="14.00" fill="#0058ad">a 94 74</text>
</g>
<!-- T19415&#45;&gt;T19409 -->
<g id="edge1" class="edge">
<title>T19415:f0&#45;&gt;T19409:f2</title>
<path fill="none" stroke="#5b00c0" d="M667.5,-81C667.5,-67.51 2529.7933,-45.9279 2682.5596,-31.7741"/>
<polygon fill="#5b00c0" stroke="#5b00c0" points="2683.2705,-35.2026 2692.5,-30 2682.0406,-28.3115 2683.2705,-35.2026"/>
<text text-anchor="middle" x="2045" y="-51.8" font-family="Times,serif" font-size="14.00" fill="#5b00c0">rw</text>
</g>
<!-- T19409&#45;&gt;T19415 -->
<g id="edge2" class="edge">
<title>T19409:f0&#45;&gt;T19415:f3</title>
<path fill="none" stroke="#5b00c0" d="M665.5,-30C665.5,-49.3211 2037.1891,-47.3735 2056.5,-48 2194.1414,-52.4654 2666.6529,54.6449 2690.5589,-70.7223"/>
<polygon fill="#5b00c0" stroke="#5b00c0" points="2687.1026,-71.3609 2691.5,-81 2694.0734,-70.7225 2687.1026,-71.3609"/>
<text text-anchor="middle" x="2693" y="-51.8" font-family="Times,serif" font-size="14.00" fill="#5b00c0">rw</text>
</g>
</g>
</svg>
