<?xml version="1.0" encoding="UTF-8" standalone="no"?>
<!DOCTYPE svg PUBLIC "-//W3C//DTD SVG 1.1//EN"
 "http://www.w3.org/Graphics/SVG/1.1/DTD/svg11.dtd">
<!-- Generated by graphviz version 2.40.1 (20161225.0304)
 -->
<!-- Title: a_graph Pages: 1 -->
<svg width="854pt" height="119pt"
 viewBox="0.00 0.00 854.00 119.00" xmlns="http://www.w3.org/2000/svg" xmlns:xlink="http://www.w3.org/1999/xlink">
<g id="graph0" class="graph" transform="scale(1 1) rotate(0) translate(4 115)">
<title>a_graph</title>
<polygon fill="#ffffff" stroke="transparent" points="-4,4 -4,-115 850,-115 850,4 -4,4"/>
<!-- T18867 -->
<g id="node1" class="node">
<title>T18867</title>
<polygon fill="none" stroke="#0058ad" points="527,-81.5 527,-110.5 709,-110.5 709,-81.5 527,-81.5"/>
<text text-anchor="middle" x="561" y="-92.3" font-family="Times,serif" font-size="14.00" fill="#0058ad">r 96 [1 2]</text>
<polyline fill="none" stroke="#0058ad" points="595,-81.5 595,-110.5 "/>
<text text-anchor="middle" x="623.5" y="-92.3" font-family="Times,serif" font-size="14.00" fill="#0058ad">a 94 31</text>
<polyline fill="none" stroke="#0058ad" points="652,-81.5 652,-110.5 "/>
<text text-anchor="middle" x="680.5" y="-92.3" font-family="Times,serif" font-size="14.00" fill="#0058ad">a 95 43</text>
</g>
<!-- T18869 -->
<g id="node2" class="node">
<title>T18869</title>
<polygon fill="none" stroke="#0058ad" points="0,-.5 0,-29.5 846,-29.5 846,-.5 0,-.5"/>
<text text-anchor="middle" x="25" y="-11.3" font-family="Times,serif" font-size="14.00" fill="#0058ad">a 97 4</text>
<polyline fill="none" stroke="#0058ad" points="50,-.5 50,-29.5 "/>
<text text-anchor="middle" x="423" y="-11.3" font-family="Times,serif" font-size="14.00" fill="#0058ad">r 95 [1 2 3 4 5 6 7 8 9 10 11 12 13 15 16 17 18 20 21 22 19 23 24 25 26 27 30 31 29 33 34 35 37 36 38 39 40 41 42 32 45 46 47 48]</text>
<polyline fill="none" stroke="#0058ad" points="796,-.5 796,-29.5 "/>
<text text-anchor="middle" x="821" y="-11.3" font-family="Times,serif" font-size="14.00" fill="#0058ad">a 96 3</text>
</g>
<!-- T18867&#45;&gt;T18869 -->
<g id="edge1" class="edge">
<title>T18867:f0&#45;&gt;T18869:f2</title>
<path fill="none" stroke="#5b00c0" d="M561,-81C561,-49.3913 593.6825,-56.9421 624,-48 642.4469,-42.5591 779.4399,-49.687 813.3999,-36.8291"/>
<polygon fill="#5b00c0" stroke="#5b00c0" points="815.901,-39.2871 821,-30 811.2224,-34.0803 815.901,-39.2871"/>
<text text-anchor="middle" x="631.5" y="-51.8" font-family="Times,serif" font-size="14.00" fill="#5b00c0">rw</text>
</g>
<!-- T18869&#45;&gt;T18867 -->
<g id="edge2" class="edge">
<title>T18869:f1&#45;&gt;T18867:f2</title>
<path fill="none" stroke="#5b00c0" d="M423,-30C423,-54.0832 616.5865,-39.189 639,-48 657.4688,-55.2603 674.4093,-56.8536 679.4708,-71.0482"/>
<polygon fill="#5b00c0" stroke="#5b00c0" points="676.0217,-71.6476 681,-81 682.9405,-70.5844 676.0217,-71.6476"/>
<text text-anchor="middle" x="681.5" y="-51.8" font-family="Times,serif" font-size="14.00" fill="#5b00c0">rw</text>
</g>
</g>
</svg>
