<?xml version="1.0" encoding="UTF-8" standalone="no"?>
<!DOCTYPE svg PUBLIC "-//W3C//DTD SVG 1.1//EN"
 "http://www.w3.org/Graphics/SVG/1.1/DTD/svg11.dtd">
<!-- Generated by graphviz version 2.40.1 (20161225.0304)
 -->
<!-- Title: a_graph Pages: 1 -->
<svg width="2159pt" height="119pt"
 viewBox="0.00 0.00 2158.50 119.00" xmlns="http://www.w3.org/2000/svg" xmlns:xlink="http://www.w3.org/1999/xlink">
<g id="graph0" class="graph" transform="scale(1 1) rotate(0) translate(4 115)">
<title>a_graph</title>
<polygon fill="#ffffff" stroke="transparent" points="-4,4 -4,-115 2154.5,-115 2154.5,4 -4,4"/>
<!-- T17925 -->
<g id="node1" class="node">
<title>T17925</title>
<polygon fill="none" stroke="#0058ad" points="160.5,-81.5 160.5,-110.5 2150.5,-110.5 2150.5,-81.5 160.5,-81.5"/>
<text text-anchor="middle" x="317.5" y="-92.3" font-family="Times,serif" font-size="14.00" fill="#0058ad">r 91 [1 2 3 4 5 6 7 9 8 10 11 12 13 14 15 16 17 18 19]</text>
<polyline fill="none" stroke="#0058ad" points="474.5,-81.5 474.5,-110.5 "/>
<text text-anchor="middle" x="631.5" y="-92.3" font-family="Times,serif" font-size="14.00" fill="#0058ad">r 91 [1 2 3 4 5 6 7 9 8 10 11 12 13 14 15 16 17 18 19]</text>
<polyline fill="none" stroke="#0058ad" points="788.5,-81.5 788.5,-110.5 "/>
<text text-anchor="middle" x="820.5" y="-92.3" font-family="Times,serif" font-size="14.00" fill="#0058ad">a 89 107</text>
<polyline fill="none" stroke="#0058ad" points="852.5,-81.5 852.5,-110.5 "/>
<text text-anchor="middle" x="1501.5" y="-92.3" font-family="Times,serif" font-size="14.00" fill="#0058ad">r 87 [1 2 3 4 5 6 7 8 9 10 11 13 14 15 16 17 18 19 20 21 22 24 25 26 27 28 29 30 31 32 33 34 35 36 37 38 39 40 41 42 43 44 45 46 47 48 49 50 51 52 53 54 55 56 58 57 59 60 61 62 63 64 65 67 68 69 70 71 73 75 74 76 77 78 79 80]</text>
</g>
<!-- T17927 -->
<g id="node2" class="node">
<title>T17927</title>
<polygon fill="none" stroke="#0058ad" points="0,-.5 0,-29.5 1873,-29.5 1873,-.5 0,-.5"/>
<text text-anchor="middle" x="28.5" y="-11.3" font-family="Times,serif" font-size="14.00" fill="#0058ad">a 91 20</text>
<polyline fill="none" stroke="#0058ad" points="57,-.5 57,-29.5 "/>
<text text-anchor="middle" x="85.5" y="-11.3" font-family="Times,serif" font-size="14.00" fill="#0058ad">a 91 21</text>
<polyline fill="none" stroke="#0058ad" points="114,-.5 114,-29.5 "/>
<text text-anchor="middle" x="993.5" y="-11.3" font-family="Times,serif" font-size="14.00" fill="#0058ad">r 89 [1 2 3 4 5 6 7 8 9 10 11 12 13 14 15 16 17 18 19 20 21 23 24 25 26 22 27 28 29 30 31 32 34 33 35 37 38 36 39 40 41 42 43 44 45 46 47 50 51 52 53 55 54 58 56 57 61 59 60 62 63 66 67 68 64 65 69 70 72 71 73 74 78 79 80 81 82 83 84 85 87 88 89 90 91 92 93 94 95 96 97 99 100 101 102 98 103 104 105 106]</text>
</g>
<!-- T17925&#45;&gt;T17927 -->
<g id="edge1" class="edge">
<title>T17925:f0&#45;&gt;T17927:f0</title>
<path fill="none" stroke="#5b00c0" d="M160.5,-96C98.4957,-96 35.761,-95.6348 29.0848,-40.1868"/>
<polygon fill="#5b00c0" stroke="#5b00c0" points="32.5675,-39.7829 28.5,-30 25.579,-40.1842 32.5675,-39.7829"/>
<text text-anchor="middle" x="44" y="-51.8" font-family="Times,serif" font-size="14.00" fill="#5b00c0">rw</text>
</g>
<!-- T17927&#45;&gt;T17925 -->
<g id="edge2" class="edge">
<title>T17927:f2&#45;&gt;T17925:f2</title>
<path fill="none" stroke="#5b00c0" d="M993.5,-30C993.5,-106.4028 836.3386,-10.6721 821.6047,-70.9374"/>
<polygon fill="#5b00c0" stroke="#5b00c0" points="818.1123,-70.6777 820.5,-81 825.0705,-71.4417 818.1123,-70.6777"/>
<text text-anchor="middle" x="996" y="-51.8" font-family="Times,serif" font-size="14.00" fill="#5b00c0">rw</text>
</g>
</g>
</svg>
