<?xml version="1.0" encoding="UTF-8" standalone="no"?>
<!DOCTYPE svg PUBLIC "-//W3C//DTD SVG 1.1//EN"
 "http://www.w3.org/Graphics/SVG/1.1/DTD/svg11.dtd">
<!-- Generated by graphviz version 2.40.1 (20161225.0304)
 -->
<!-- Title: a_graph Pages: 1 -->
<svg width="5483pt" height="119pt"
 viewBox="0.00 0.00 5482.50 119.00" xmlns="http://www.w3.org/2000/svg" xmlns:xlink="http://www.w3.org/1999/xlink">
<g id="graph0" class="graph" transform="scale(1 1) rotate(0) translate(4 115)">
<title>a_graph</title>
<polygon fill="#ffffff" stroke="transparent" points="-4,4 -4,-115 5478.5,-115 5478.5,4 -4,4"/>
<!-- T13045 -->
<g id="node1" class="node">
<title>T13045</title>
<polygon fill="none" stroke="#0058ad" points="80.5,-81.5 80.5,-110.5 5474.5,-110.5 5474.5,-81.5 80.5,-81.5"/>
<text text-anchor="middle" x="112.5" y="-92.3" font-family="Times,serif" font-size="14.00" fill="#0058ad">a 64 128</text>
<polyline fill="none" stroke="#0058ad" points="144.5,-81.5 144.5,-110.5 "/>
<text text-anchor="middle" x="1260.5" y="-92.3" font-family="Times,serif" font-size="14.00" fill="#0058ad">r 64 [1 2 4 3 5 6 7 8 9 10 11 13 15 16 17 18 19 21 22 23 24 25 26 27 28 29 30 31 32 33 34 35 36 37 38 39 40 41 42 43 44 45 46 47 48 49 50 51 52 53 54 55 57 56 58 59 60 61 62 63 64 65 66 67 68 69 70 71 72 73 74 75 76 78 79 77 80 81 82 83 84 85 86 87 88 91 92 94 95 96 97 93 98 99 101 102 100 103 104 105 107 108 106 109 110 112 113 115 116 117 118 120 121 122 123 124 125 126 127 128]</text>
<polyline fill="none" stroke="#0058ad" points="2376.5,-81.5 2376.5,-110.5 "/>
<text text-anchor="middle" x="2809.5" y="-92.3" font-family="Times,serif" font-size="14.00" fill="#0058ad">r 67 [2 1 3 4 5 6 7 8 9 10 11 12 13 14 15 20 21 23 24 25 26 31 32 34 35 33 36 38 39 41 43 44 45 46 47 48 40 49 50 51 52 53 54 55 56 57 58 60 59 61 63]</text>
<polyline fill="none" stroke="#0058ad" points="3242.5,-81.5 3242.5,-110.5 "/>
<text text-anchor="middle" x="4358.5" y="-92.3" font-family="Times,serif" font-size="14.00" fill="#0058ad">r 64 [1 2 4 3 5 6 7 8 9 10 11 13 15 16 17 18 19 21 22 23 24 25 26 27 28 29 30 31 32 33 34 35 36 37 38 39 40 41 42 43 44 45 46 47 48 49 50 51 52 53 54 55 57 56 58 59 60 61 62 63 64 65 66 67 68 69 70 71 72 73 74 75 76 78 79 77 80 81 82 83 84 85 86 87 88 91 92 94 95 96 97 93 98 99 101 102 100 103 104 105 107 108 106 109 110 112 113 115 116 117 118 120 121 122 123 124 125 126 127 128]</text>
</g>
<!-- T13043 -->
<g id="node2" class="node">
<title>T13043</title>
<polygon fill="none" stroke="#0058ad" points="0,-.5 0,-29.5 3131,-29.5 3131,-.5 0,-.5"/>
<text text-anchor="middle" x="433" y="-11.3" font-family="Times,serif" font-size="14.00" fill="#0058ad">r 67 [2 1 3 4 5 6 7 8 9 10 11 12 13 14 15 20 21 23 24 25 26 31 32 34 35 33 36 38 39 41 43 44 45 46 47 48 40 49 50 51 52 53 54 55 56 57 58 60 59 61 63]</text>
<polyline fill="none" stroke="#0058ad" points="866,-.5 866,-29.5 "/>
<text text-anchor="middle" x="894.5" y="-11.3" font-family="Times,serif" font-size="14.00" fill="#0058ad">a 67 62</text>
<polyline fill="none" stroke="#0058ad" points="923,-.5 923,-29.5 "/>
<text text-anchor="middle" x="2027" y="-11.3" font-family="Times,serif" font-size="14.00" fill="#0058ad">r 64 [1 2 4 3 5 6 7 8 9 10 11 13 15 16 17 18 19 21 22 23 24 25 26 27 28 29 30 31 32 33 34 35 36 37 38 39 40 41 42 43 44 45 46 47 48 49 50 51 52 53 54 55 57 56 58 59 60 61 62 63 64 65 66 67 68 69 70 71 72 73 74 75 76 78 79 77 80 81 82 83 84 85 86 87 88 91 92 94 95 96 97 93 98 99 101 102 100 103 104 105 107 108 106 109 110 112 113 115 116 117 118 120 121 122 123 124 125 126 127]</text>
</g>
<!-- T13045&#45;&gt;T13043 -->
<g id="edge1" class="edge">
<title>T13045:f2&#45;&gt;T13043:f1</title>
<path fill="none" stroke="#5b00c0" d="M2809.5,-81C2809.5,128.3195 957.5562,-230.5737 896.0659,-40.1206"/>
<polygon fill="#5b00c0" stroke="#5b00c0" points="899.4879,-39.3472 894.5,-30 892.5702,-40.4176 899.4879,-39.3472"/>
<text text-anchor="middle" x="2808" y="-51.8" font-family="Times,serif" font-size="14.00" fill="#5b00c0">rw</text>
</g>
<!-- T13043&#45;&gt;T13045 -->
<g id="edge2" class="edge">
<title>T13043:f2&#45;&gt;T13045:f0</title>
<path fill="none" stroke="#5b00c0" d="M2027.5,-30C2027.5,-45.8909 899.3841,-47.5352 883.5,-48 801.307,-50.4052 167.7067,.3098 115.8699,-71.1472"/>
<polygon fill="#5b00c0" stroke="#5b00c0" points="112.4246,-70.4054 112.5,-81 119.0479,-72.6708 112.4246,-70.4054"/>
<text text-anchor="middle" x="891" y="-51.8" font-family="Times,serif" font-size="14.00" fill="#5b00c0">rw</text>
</g>
</g>
</svg>
