<?xml version="1.0" encoding="UTF-8" standalone="no"?>
<!DOCTYPE svg PUBLIC "-//W3C//DTD SVG 1.1//EN"
 "http://www.w3.org/Graphics/SVG/1.1/DTD/svg11.dtd">
<!-- Generated by graphviz version 2.40.1 (20161225.0304)
 -->
<!-- Title: a_graph Pages: 1 -->
<svg width="3858pt" height="200pt"
 viewBox="0.00 0.00 3857.92 200.00" xmlns="http://www.w3.org/2000/svg" xmlns:xlink="http://www.w3.org/1999/xlink">
<g id="graph0" class="graph" transform="scale(1 1) rotate(0) translate(4 196)">
<title>a_graph</title>
<polygon fill="#ffffff" stroke="transparent" points="-4,4 -4,-196 3853.9247,-196 3853.9247,4 -4,4"/>
<!-- T19733 -->
<g id="node1" class="node">
<title>T19733</title>
<polygon fill="none" stroke="#0058ad" points="1486.5,-162.5 1486.5,-191.5 3379.5,-191.5 3379.5,-162.5 1486.5,-162.5"/>
<text text-anchor="middle" x="1945.5" y="-173.3" font-family="Times,serif" font-size="14.00" fill="#0058ad">r 99 [1 3 4 2 5 6 7 8 11 9 10 13 14 15 16 18 19 20 17 21 12 26 24 25 29 31 30 34 35 36 33 37 38 39 32 40 41 44 46 45 49 51 50 53 47 48 55 56 57 58 59 60 61 54]</text>
<polyline fill="none" stroke="#0058ad" points="2404.5,-162.5 2404.5,-191.5 "/>
<text text-anchor="middle" x="2863.5" y="-173.3" font-family="Times,serif" font-size="14.00" fill="#0058ad">r 99 [1 3 4 2 5 6 7 8 11 9 10 13 14 15 16 18 19 20 17 21 12 26 24 25 29 31 30 34 35 36 33 37 38 39 32 40 41 44 46 45 49 51 50 53 47 48 55 56 57 58 59 60 61 54]</text>
<polyline fill="none" stroke="#0058ad" points="3322.5,-162.5 3322.5,-191.5 "/>
<text text-anchor="middle" x="3351" y="-173.3" font-family="Times,serif" font-size="14.00" fill="#0058ad">a 99 62</text>
</g>
<!-- T19739 -->
<g id="node2" class="node">
<title>T19739</title>
<polygon fill="none" stroke="#0058ad" points="0,-81.5 0,-110.5 3708,-110.5 3708,-81.5 0,-81.5"/>
<text text-anchor="middle" x="1088.5" y="-92.3" font-family="Times,serif" font-size="14.00" fill="#0058ad">r 97 [3 4 5 1 2 7 6 8 9 10 12 11 13 14 15 16 17 18 20 19 21 22 23 24 25 26 27 28 29 30 31 32 33 34 35 38 39 40 37 41 42 44 43 45 46 48 49 51 50 52 47 53 55 56 54 57 58 59 60 61 62 63 64 66 67 68 69 70 72 71 73 75 78 79 77 81 82 83 80 84 85 86 87 88 89 90 91 93 92 94 95 96 97 98 99 100 101 102 103 104 105 106 107 109 110 108 111 112 113 114 116 118 117 119 115 120 123 122]</text>
<polyline fill="none" stroke="#0058ad" points="2177,-81.5 2177,-110.5 "/>
<text text-anchor="middle" x="2205.5" y="-92.3" font-family="Times,serif" font-size="14.00" fill="#0058ad">a 99 63</text>
<polyline fill="none" stroke="#0058ad" points="2234,-81.5 2234,-110.5 "/>
<text text-anchor="middle" x="2710.5" y="-92.3" font-family="Times,serif" font-size="14.00" fill="#0058ad">r 99 [1 3 4 2 5 6 7 8 11 9 10 13 14 15 16 18 19 20 17 21 12 26 24 25 29 31 30 34 35 36 33 37 38 39 32 40 41 44 46 45 49 51 50 53 47 48 55 56 57 58 59 60 61 54 62 63]</text>
<polyline fill="none" stroke="#0058ad" points="3187,-81.5 3187,-110.5 "/>
<text text-anchor="middle" x="3447.5" y="-92.3" font-family="Times,serif" font-size="14.00" fill="#0058ad">r 96 [1 2 3 5 4 6 7 8 9 10 11 13 14 15 16 17 18 19 20 21 22 23 24 25 27 26 28 29 30 31 32]</text>
</g>
<!-- T19733&#45;&gt;T19739 -->
<g id="edge1" class="edge">
<title>T19733:f2&#45;&gt;T19739:f1</title>
<path fill="none" stroke="#c02700" d="M3351,-162C3351,89.2145 2237.0946,-353.2958 2206.6362,-121.0503"/>
<polygon fill="#c02700" stroke="#c02700" points="2210.1249,-120.7589 2206,-111 2203.1389,-121.2012 2210.1249,-120.7589"/>
<text text-anchor="middle" x="3355" y="-132.8" font-family="Times,serif" font-size="14.00" fill="#c02700">ww</text>
</g>
<!-- T19735 -->
<g id="node3" class="node">
<title>T19735</title>
<polygon fill="none" stroke="#0058ad" points="2124,-.5 2124,-29.5 3846,-29.5 3846,-.5 2124,-.5"/>
<text text-anchor="middle" x="2156" y="-11.3" font-family="Times,serif" font-size="14.00" fill="#0058ad">a 97 124</text>
<polyline fill="none" stroke="#0058ad" points="2188,-.5 2188,-29.5 "/>
<text text-anchor="middle" x="2216.5" y="-11.3" font-family="Times,serif" font-size="14.00" fill="#0058ad">a 96 33</text>
<polyline fill="none" stroke="#0058ad" points="2245,-.5 2245,-29.5 "/>
<text text-anchor="middle" x="2586.5" y="-11.3" font-family="Times,serif" font-size="14.00" fill="#0058ad">r 74 [2 3 4 5 6 7 8 9 10 11 12 13 26 27 28 29 30 31 32 33 34 35 36 37 39 40 41 42 43 44 45 46 47 48 49 50 51 52 53 54]</text>
<polyline fill="none" stroke="#0058ad" points="2928,-.5 2928,-29.5 "/>
<text text-anchor="middle" x="3387" y="-11.3" font-family="Times,serif" font-size="14.00" fill="#0058ad">r 99 [1 3 4 2 5 6 7 8 11 9 10 13 14 15 16 18 19 20 17 21 12 26 24 25 29 31 30 34 35 36 33 37 38 39 32 40 41 44 46 45 49 51 50 53 47 48 55 56 57 58 59 60 61 54]</text>
</g>
<!-- T19739&#45;&gt;T19735 -->
<g id="edge2" class="edge">
<title>T19739:f0&#45;&gt;T19735:f0</title>
<path fill="none" stroke="#5b00c0" d="M1088,-81C1088,-25.4679 1995.0648,-15.686 2113.873,-15.0365"/>
<polygon fill="#5b00c0" stroke="#5b00c0" points="2114.0127,-18.5361 2124,-15 2113.9874,-11.5362 2114.0127,-18.5361"/>
<text text-anchor="middle" x="1217.5" y="-51.8" font-family="Times,serif" font-size="14.00" fill="#5b00c0">rw</text>
</g>
<!-- T19735&#45;&gt;T19733 -->
<g id="edge3" class="edge">
<title>T19735:f3&#45;&gt;T19733:f2</title>
<path fill="none" stroke="#5b00c0" d="M3846,-15C3852.6667,-15 3849.2257,-24.1657 3846,-30 3813.2436,-89.2464 3779.9434,-86.0752 3717,-111 3578.2847,-165.9295 3534.5813,-176.536 3390.1198,-176.9847"/>
<polygon fill="#5b00c0" stroke="#5b00c0" points="3389.9947,-173.4848 3380,-177 3390.0053,-180.4848 3389.9947,-173.4848"/>
<text text-anchor="middle" x="3803.5" y="-92.3" font-family="Times,serif" font-size="14.00" fill="#5b00c0">rw</text>
</g>
</g>
</svg>
