<?xml version="1.0" encoding="UTF-8" standalone="no"?>
<!DOCTYPE svg PUBLIC "-//W3C//DTD SVG 1.1//EN"
 "http://www.w3.org/Graphics/SVG/1.1/DTD/svg11.dtd">
<!-- Generated by graphviz version 2.40.1 (20161225.0304)
 -->
<!-- Title: a_graph Pages: 1 -->
<svg width="572pt" height="119pt"
 viewBox="0.00 0.00 572.00 119.00" xmlns="http://www.w3.org/2000/svg" xmlns:xlink="http://www.w3.org/1999/xlink">
<g id="graph0" class="graph" transform="scale(1 1) rotate(0) translate(4 115)">
<title>a_graph</title>
<polygon fill="#ffffff" stroke="transparent" points="-4,4 -4,-115 568,-115 568,4 -4,4"/>
<!-- T3665 -->
<g id="node1" class="node">
<title>T3665</title>
<polygon fill="none" stroke="#0058ad" points="0,-81.5 0,-110.5 564,-110.5 564,-81.5 0,-81.5"/>
<text text-anchor="middle" x="157" y="-92.3" font-family="Times,serif" font-size="14.00" fill="#0058ad">r 24 [1 2 3 4 5 6 7 8 9 10 11 12 13 14 15 16 17 18 19]</text>
<polyline fill="none" stroke="#0058ad" points="314,-81.5 314,-110.5 "/>
<text text-anchor="middle" x="339" y="-92.3" font-family="Times,serif" font-size="14.00" fill="#0058ad">a 25 5</text>
<polyline fill="none" stroke="#0058ad" points="364,-81.5 364,-110.5 "/>
<text text-anchor="middle" x="414" y="-92.3" font-family="Times,serif" font-size="14.00" fill="#0058ad">r 25 [1 2 3 4 5]</text>
<polyline fill="none" stroke="#0058ad" points="464,-81.5 464,-110.5 "/>
<text text-anchor="middle" x="514" y="-92.3" font-family="Times,serif" font-size="14.00" fill="#0058ad">r 25 [1 2 3 4 5]</text>
</g>
<!-- T3663 -->
<g id="node2" class="node">
<title>T3663</title>
<polygon fill="none" stroke="#0058ad" points="131,-.5 131,-29.5 423,-29.5 423,-.5 131,-.5"/>
<text text-anchor="middle" x="175.5" y="-11.3" font-family="Times,serif" font-size="14.00" fill="#0058ad">r 25 [1 2 3 4]</text>
<polyline fill="none" stroke="#0058ad" points="220,-.5 220,-29.5 "/>
<text text-anchor="middle" x="248.5" y="-11.3" font-family="Times,serif" font-size="14.00" fill="#0058ad">a 24 20</text>
<polyline fill="none" stroke="#0058ad" points="277,-.5 277,-29.5 "/>
<text text-anchor="middle" x="321.5" y="-11.3" font-family="Times,serif" font-size="14.00" fill="#0058ad">r 25 [1 2 3 4]</text>
<polyline fill="none" stroke="#0058ad" points="366,-.5 366,-29.5 "/>
<text text-anchor="middle" x="394.5" y="-11.3" font-family="Times,serif" font-size="14.00" fill="#0058ad">a 24 21</text>
</g>
<!-- T3665&#45;&gt;T3663 -->
<g id="edge1" class="edge">
<title>T3665:f0&#45;&gt;T3663:f1</title>
<path fill="none" stroke="#5b00c0" d="M157,-81C157,-38.6213 233.0314,-69.8419 246.0993,-40.1131"/>
<polygon fill="#5b00c0" stroke="#5b00c0" points="249.5926,-40.4744 248,-30 242.7131,-39.1814 249.5926,-40.4744"/>
<text text-anchor="middle" x="246.5" y="-51.8" font-family="Times,serif" font-size="14.00" fill="#5b00c0">rw</text>
</g>
<!-- T3663&#45;&gt;T3665 -->
<g id="edge2" class="edge">
<title>T3663:f0&#45;&gt;T3665:f1</title>
<path fill="none" stroke="#5b00c0" d="M175,-30C175,-48.8732 239.971,-42.4187 258,-48 291.3628,-58.3283 330.1592,-45.3573 337.6956,-70.8071"/>
<polygon fill="#5b00c0" stroke="#5b00c0" points="334.2589,-71.5252 339,-81 341.2022,-70.6366 334.2589,-71.5252"/>
<text text-anchor="middle" x="340.5" y="-51.8" font-family="Times,serif" font-size="14.00" fill="#5b00c0">rw</text>
</g>
</g>
</svg>
