<?xml version="1.0" encoding="UTF-8" standalone="no"?>
<!DOCTYPE svg PUBLIC "-//W3C//DTD SVG 1.1//EN"
 "http://www.w3.org/Graphics/SVG/1.1/DTD/svg11.dtd">
<!-- Generated by graphviz version 2.40.1 (20161225.0304)
 -->
<!-- Title: a_graph Pages: 1 -->
<svg width="1864pt" height="119pt"
 viewBox="0.00 0.00 1863.50 119.00" xmlns="http://www.w3.org/2000/svg" xmlns:xlink="http://www.w3.org/1999/xlink">
<g id="graph0" class="graph" transform="scale(1 1) rotate(0) translate(4 115)">
<title>a_graph</title>
<polygon fill="#ffffff" stroke="transparent" points="-4,4 -4,-115 1859.5,-115 1859.5,4 -4,4"/>
<!-- T20577 -->
<g id="node1" class="node">
<title>T20577</title>
<polygon fill="none" stroke="#0058ad" points="0,-81.5 0,-110.5 1143,-110.5 1143,-81.5 0,-81.5"/>
<text text-anchor="middle" x="37.5" y="-92.3" font-family="Times,serif" font-size="14.00" fill="#0058ad">r 105 [1 2]</text>
<polyline fill="none" stroke="#0058ad" points="75,-81.5 75,-110.5 "/>
<text text-anchor="middle" x="580.5" y="-92.3" font-family="Times,serif" font-size="14.00" fill="#0058ad">r 103 [1 3 4 5 6 7 8 10 2 11 12 13 14 15 16 17 18 19 9 20 21 22 23 24 26 25 27 28 29 30 31 32 33 34 37 40 41 38 39 42 43 44 35 36 46 47 48 49 50 51 52 53 54 55 56 45 58 59 57]</text>
<polyline fill="none" stroke="#0058ad" points="1086,-81.5 1086,-110.5 "/>
<text text-anchor="middle" x="1114.5" y="-92.3" font-family="Times,serif" font-size="14.00" fill="#0058ad">a 105 3</text>
</g>
<!-- T20575 -->
<g id="node2" class="node">
<title>T20575</title>
<polygon fill="none" stroke="#0058ad" points="613.5,-.5 613.5,-29.5 1855.5,-29.5 1855.5,-.5 613.5,-.5"/>
<text text-anchor="middle" x="651" y="-11.3" font-family="Times,serif" font-size="14.00" fill="#0058ad">r 105 [1 2]</text>
<polyline fill="none" stroke="#0058ad" points="688.5,-.5 688.5,-29.5 "/>
<text text-anchor="middle" x="726" y="-11.3" font-family="Times,serif" font-size="14.00" fill="#0058ad">r 105 [1 2]</text>
<polyline fill="none" stroke="#0058ad" points="763.5,-.5 763.5,-29.5 "/>
<text text-anchor="middle" x="795.5" y="-11.3" font-family="Times,serif" font-size="14.00" fill="#0058ad">a 103 60</text>
<polyline fill="none" stroke="#0058ad" points="827.5,-.5 827.5,-29.5 "/>
<text text-anchor="middle" x="1341.5" y="-11.3" font-family="Times,serif" font-size="14.00" fill="#0058ad">r 103 [1 3 4 5 6 7 8 10 2 11 12 13 14 15 16 17 18 19 9 20 21 22 23 24 26 25 27 28 29 30 31 32 33 34 37 40 41 38 39 42 43 44 35 36 46 47 48 49 50 51 52 53 54 55 56 45 58 59 57 60]</text>
</g>
<!-- T20577&#45;&gt;T20575 -->
<g id="edge1" class="edge">
<title>T20577:f1&#45;&gt;T20575:f2</title>
<path fill="none" stroke="#5b00c0" d="M580.5,-81C580.5,13.3709 779.0312,-117.2184 794.5414,-40.4225"/>
<polygon fill="#5b00c0" stroke="#5b00c0" points="798.0694,-40.2785 795.5,-30 791.0988,-39.6374 798.0694,-40.2785"/>
<text text-anchor="middle" x="800" y="-51.8" font-family="Times,serif" font-size="14.00" fill="#5b00c0">rw</text>
</g>
<!-- T20575&#45;&gt;T20577 -->
<g id="edge2" class="edge">
<title>T20575:f0&#45;&gt;T20577:f2</title>
<path fill="none" stroke="#5b00c0" d="M650.5,-30C650.5,-31.4784 1036.5218,-71.3406 1104.3772,-79.5661"/>
<polygon fill="#5b00c0" stroke="#5b00c0" points="1104.1079,-83.0628 1114.5,-81 1105.0898,-76.132 1104.1079,-83.0628"/>
<text text-anchor="middle" x="958" y="-51.8" font-family="Times,serif" font-size="14.00" fill="#5b00c0">rw</text>
</g>
</g>
</svg>
