<?xml version="1.0" encoding="UTF-8" standalone="no"?>
<!DOCTYPE svg PUBLIC "-//W3C//DTD SVG 1.1//EN"
 "http://www.w3.org/Graphics/SVG/1.1/DTD/svg11.dtd">
<!-- Generated by graphviz version 2.40.1 (20161225.0304)
 -->
<!-- Title: a_graph Pages: 1 -->
<svg width="2673pt" height="119pt"
 viewBox="0.00 0.00 2673.00 119.00" xmlns="http://www.w3.org/2000/svg" xmlns:xlink="http://www.w3.org/1999/xlink">
<g id="graph0" class="graph" transform="scale(1 1) rotate(0) translate(4 115)">
<title>a_graph</title>
<polygon fill="#ffffff" stroke="transparent" points="-4,4 -4,-115 2669,-115 2669,4 -4,4"/>
<!-- T6973 -->
<g id="node1" class="node">
<title>T6973</title>
<polygon fill="none" stroke="#0058ad" points="0,-81.5 0,-110.5 2665,-110.5 2665,-81.5 0,-81.5"/>
<text text-anchor="middle" x="28.5" y="-92.3" font-family="Times,serif" font-size="14.00" fill="#0058ad">a 40 14</text>
<polyline fill="none" stroke="#0058ad" points="57,-81.5 57,-110.5 "/>
<text text-anchor="middle" x="1022.5" y="-92.3" font-family="Times,serif" font-size="14.00" fill="#0058ad">r 37 [1 2 3 4 5 6 8 9 7 10 12 11 14 15 13 16 17 18 20 19 21 22 23 24 25 26 27 28 29 30 31 32 34 33 36 37 35 38 39 41 40 42 43 44 45 46 47 49 48 50 51 52 54 56 55 57 58 59 60 61 62 53 63 64 66 68 69 70 71 72 74 75 76 77 78 79 80 81 73 82 83 84 85 86 87 88 89 90 91 92 94 93 95 96 97 98 101 100 103 104 105 106 107 102 108 109 110 111]</text>
<polyline fill="none" stroke="#0058ad" points="1988,-81.5 1988,-110.5 "/>
<text text-anchor="middle" x="2326.5" y="-92.3" font-family="Times,serif" font-size="14.00" fill="#0058ad">r 34 [1 2 3 5 4 6 7 8 9 10 11 12 13 14 15 16 17 20 21 23 22 24 26 27 28 29 30 31 32 33 34 36 37 35 39 40 41 42 43 44]</text>
</g>
<!-- T6971 -->
<g id="node2" class="node">
<title>T6971</title>
<polygon fill="none" stroke="#0058ad" points="481,-.5 481,-29.5 728,-29.5 728,-.5 481,-.5"/>
<text text-anchor="middle" x="572.5" y="-11.3" font-family="Times,serif" font-size="14.00" fill="#0058ad">r 40 [1 2 3 4 5 6 7 8 11 12 13]</text>
<polyline fill="none" stroke="#0058ad" points="664,-.5 664,-29.5 "/>
<text text-anchor="middle" x="696" y="-11.3" font-family="Times,serif" font-size="14.00" fill="#0058ad">a 37 112</text>
</g>
<!-- T6973&#45;&gt;T6971 -->
<g id="edge1" class="edge">
<title>T6973:f1&#45;&gt;T6971:f1</title>
<path fill="none" stroke="#5b00c0" d="M1022.5,-81C1022.5,-49.8744 797.3274,-19.5779 738.76,-15.4714"/>
<polygon fill="#5b00c0" stroke="#5b00c0" points="738.6501,-11.9627 728.5,-15 738.3288,-18.9553 738.6501,-11.9627"/>
<text text-anchor="middle" x="1002" y="-51.8" font-family="Times,serif" font-size="14.00" fill="#5b00c0">rw</text>
</g>
<!-- T6971&#45;&gt;T6973 -->
<g id="edge2" class="edge">
<title>T6971:f0&#45;&gt;T6973:f0</title>
<path fill="none" stroke="#5b00c0" d="M480.5,-15C432.9174,-15 77.2865,-28.3991 33.0186,-71.8947"/>
<polygon fill="#5b00c0" stroke="#5b00c0" points="29.8101,-70.4865 28.5,-81 36.0805,-73.5982 29.8101,-70.4865"/>
<text text-anchor="middle" x="105" y="-51.8" font-family="Times,serif" font-size="14.00" fill="#5b00c0">rw</text>
</g>
</g>
</svg>
