<?xml version="1.0" encoding="UTF-8" standalone="no"?>
<!DOCTYPE svg PUBLIC "-//W3C//DTD SVG 1.1//EN"
 "http://www.w3.org/Graphics/SVG/1.1/DTD/svg11.dtd">
<!-- Generated by graphviz version 2.40.1 (20161225.0304)
 -->
<!-- Title: a_graph Pages: 1 -->
<svg width="1583pt" height="119pt"
 viewBox="0.00 0.00 1583.00 119.00" xmlns="http://www.w3.org/2000/svg" xmlns:xlink="http://www.w3.org/1999/xlink">
<g id="graph0" class="graph" transform="scale(1 1) rotate(0) translate(4 115)">
<title>a_graph</title>
<polygon fill="#ffffff" stroke="transparent" points="-4,4 -4,-115 1579,-115 1579,4 -4,4"/>
<!-- T12893 -->
<g id="node1" class="node">
<title>T12893</title>
<polygon fill="none" stroke="#0058ad" points="0,-81.5 0,-110.5 1575,-110.5 1575,-81.5 0,-81.5"/>
<text text-anchor="middle" x="759" y="-92.3" font-family="Times,serif" font-size="14.00" fill="#0058ad">r 62 [1 2 3 4 7 8 9 10 12 13 11 14 15 16 17 18 20 19 21 22 23 26 27 24 25 28 29 30 31 32 33 35 34 36 37 38 39 40 41 42 43 44 45 46 48 50 49 51 52 54 55 56 57 58 59 60 61 62 63 65 64 66 67 68 69 70 71 72 73 74 75 77 78 79 76 80 81 82 83 86 87 88 89 90 91 92 94 93]</text>
<polyline fill="none" stroke="#0058ad" points="1518,-81.5 1518,-110.5 "/>
<text text-anchor="middle" x="1546.5" y="-92.3" font-family="Times,serif" font-size="14.00" fill="#0058ad">a 67 12</text>
</g>
<!-- T12895 -->
<g id="node2" class="node">
<title>T12895</title>
<polygon fill="none" stroke="#0058ad" points="217,-.5 217,-29.5 1426,-29.5 1426,-.5 217,-.5"/>
<text text-anchor="middle" x="705" y="-11.3" font-family="Times,serif" font-size="14.00" fill="#0058ad">r 3 [1 2 11 13 14 15 16 17 18 19 20 21 22 23 24 25 26 27 28 29 30 31 32 33 34 35 36 37 38 39 40 47 48 49 50 51 52 53 54 55 56 57 58 59 60 61 63 64 65 66 67 68 69 70 71]</text>
<polyline fill="none" stroke="#0058ad" points="1193,-.5 1193,-29.5 "/>
<text text-anchor="middle" x="1281" y="-11.3" font-family="Times,serif" font-size="14.00" fill="#0058ad">r 67 [2 1 3 4 5 6 7 8 9 10 11]</text>
<polyline fill="none" stroke="#0058ad" points="1369,-.5 1369,-29.5 "/>
<text text-anchor="middle" x="1397.5" y="-11.3" font-family="Times,serif" font-size="14.00" fill="#0058ad">a 62 95</text>
</g>
<!-- T12893&#45;&gt;T12895 -->
<g id="edge1" class="edge">
<title>T12893:f0&#45;&gt;T12895:f2</title>
<path fill="none" stroke="#5b00c0" d="M758.5,-81C758.5,-47.752 1315.4507,-63.1729 1389.4207,-36.3887"/>
<polygon fill="#5b00c0" stroke="#5b00c0" points="1391.827,-38.948 1397.5,-30 1387.4851,-33.4573 1391.827,-38.948"/>
<text text-anchor="middle" x="1297" y="-51.8" font-family="Times,serif" font-size="14.00" fill="#5b00c0">rw</text>
</g>
<!-- T12895&#45;&gt;T12893 -->
<g id="edge2" class="edge">
<title>T12895:f1&#45;&gt;T12893:f1</title>
<path fill="none" stroke="#5b00c0" d="M1281.5,-30C1281.5,-57.1151 1498.2045,-52.3753 1539.6831,-73.3932"/>
<polygon fill="#5b00c0" stroke="#5b00c0" points="1537.2196,-75.8887 1546.5,-81 1542.4327,-71.217 1537.2196,-75.8887"/>
<text text-anchor="middle" x="1496" y="-51.8" font-family="Times,serif" font-size="14.00" fill="#5b00c0">rw</text>
</g>
</g>
</svg>
