<?xml version="1.0" encoding="UTF-8" standalone="no"?>
<!DOCTYPE svg PUBLIC "-//W3C//DTD SVG 1.1//EN"
 "http://www.w3.org/Graphics/SVG/1.1/DTD/svg11.dtd">
<!-- Generated by graphviz version 2.40.1 (20161225.0304)
 -->
<!-- Title: a_graph Pages: 1 -->
<svg width="2689pt" height="200pt"
 viewBox="0.00 0.00 2689.00 200.00" xmlns="http://www.w3.org/2000/svg" xmlns:xlink="http://www.w3.org/1999/xlink">
<g id="graph0" class="graph" transform="scale(1 1) rotate(0) translate(4 196)">
<title>a_graph</title>
<polygon fill="#ffffff" stroke="transparent" points="-4,4 -4,-196 2685,-196 2685,4 -4,4"/>
<!-- T3115 -->
<g id="node1" class="node">
<title>T3115</title>
<polygon fill="none" stroke="#0058ad" points="1661.5,-162.5 1661.5,-191.5 2450.5,-191.5 2450.5,-162.5 1661.5,-162.5"/>
<text text-anchor="middle" x="2056" y="-173.3" font-family="Times,serif" font-size="14.00" fill="#0058ad">r 14 [50 51 52 55 56 57 58 59 60 61 62 63 64 66 69 70 72 71 73 74 75 76 77 78 79 80 82 81 83 84 85 86 88 89 90 91 92 93 95 96 97 98 99]</text>
</g>
<!-- T3117 -->
<g id="node2" class="node">
<title>T3117</title>
<polygon fill="none" stroke="#0058ad" points="0,-81.5 0,-110.5 2052,-110.5 2052,-81.5 0,-81.5"/>
<text text-anchor="middle" x="394.5" y="-92.3" font-family="Times,serif" font-size="14.00" fill="#0058ad">r 14 [50 51 52 55 56 57 58 59 60 61 62 63 64 66 69 70 72 71 73 74 75 76 77 78 79 80 82 81 83 84 85 86 88 89 90 91 92 93 95 96 97 98 99]</text>
<polyline fill="none" stroke="#0058ad" points="789,-81.5 789,-110.5 "/>
<text text-anchor="middle" x="1360" y="-92.3" font-family="Times,serif" font-size="14.00" fill="#0058ad">r 20 [1 2 3 4 5 6 8 9 10 7 12 13 14 11 15 16 17 18 19 20 21 22 23 24 25 26 27 28 29 31 34 32 33 35 36 37 38 39 41 42 43 44 45 46 47 48 49 50 40 51 54 52 55 53 56 57 58 59 60 62 64 63 66 65 67 68 69]</text>
<polyline fill="none" stroke="#0058ad" points="1931,-81.5 1931,-110.5 "/>
<text text-anchor="middle" x="1963" y="-92.3" font-family="Times,serif" font-size="14.00" fill="#0058ad">a 14 101</text>
<polyline fill="none" stroke="#0058ad" points="1995,-81.5 1995,-110.5 "/>
<text text-anchor="middle" x="2023.5" y="-92.3" font-family="Times,serif" font-size="14.00" fill="#0058ad">a 18 22</text>
</g>
<!-- T3115&#45;&gt;T3117 -->
<g id="edge1" class="edge">
<title>T3115:f0&#45;&gt;T3117:f2</title>
<path fill="none" stroke="#5b00c0" d="M2008.1379,-162.4037C1988.5551,-153.6299 1969.2948,-140.3234 1964.265,-120.9847"/>
<polygon fill="#5b00c0" stroke="#5b00c0" points="1967.7293,-120.4807 1963,-111 1960.7848,-121.3606 1967.7293,-120.4807"/>
<text text-anchor="middle" x="1985.5" y="-132.8" font-family="Times,serif" font-size="14.00" fill="#5b00c0">rw</text>
</g>
<!-- T3113 -->
<g id="node3" class="node">
<title>T3113</title>
<polygon fill="none" stroke="#0058ad" points="1407,-.5 1407,-29.5 2681,-29.5 2681,-.5 1407,-.5"/>
<text text-anchor="middle" x="1435.5" y="-11.3" font-family="Times,serif" font-size="14.00" fill="#0058ad">a 21 77</text>
<polyline fill="none" stroke="#0058ad" points="1464,-.5 1464,-29.5 "/>
<text text-anchor="middle" x="1492.5" y="-11.3" font-family="Times,serif" font-size="14.00" fill="#0058ad">a 20 70</text>
<polyline fill="none" stroke="#0058ad" points="1521,-.5 1521,-29.5 "/>
<text text-anchor="middle" x="2101" y="-11.3" font-family="Times,serif" font-size="14.00" fill="#0058ad">r 21 [1 2 4 5 3 6 7 8 9 10 11 12 14 13 15 16 17 18 19 20 22 23 24 25 26 27 29 30 28 21 31 32 33 36 37 34 38 39 40 41 42 43 44 45 46 47 48 49 50 51 52 55 53 57 54 61 65 58 66 67 68 69 71 72 73 74 70 77]</text>
</g>
<!-- T3117&#45;&gt;T3113 -->
<g id="edge2" class="edge">
<title>T3117:f1&#45;&gt;T3113:f1</title>
<path fill="none" stroke="#5b00c0" d="M1360,-81C1360,-21.9148 1476.4995,-84.3418 1490.6069,-39.9709"/>
<polygon fill="#5b00c0" stroke="#5b00c0" points="1494.0825,-40.3881 1492,-30 1487.1499,-39.4195 1494.0825,-40.3881"/>
<text text-anchor="middle" x="1491.5" y="-51.8" font-family="Times,serif" font-size="14.00" fill="#5b00c0">rw</text>
</g>
<!-- T3113&#45;&gt;T3115 -->
<g id="edge3" class="edge">
<title>T3113&#45;&gt;T3115</title>
<path fill="none" stroke="#0050c0" d="M2048.9362,-29.7329C2053.0964,-42.9732 2058.7241,-63.0402 2061,-81 2064.0484,-105.0559 2062.026,-132.7289 2059.7067,-152.1644"/>
<polygon fill="#0050c0" stroke="#0050c0" points="2056.2072,-151.9329 2058.3806,-162.3024 2063.1481,-152.8409 2056.2072,-151.9329"/>
<text text-anchor="middle" x="2066.5" y="-92.3" font-family="Times,serif" font-size="14.00" fill="#0050c0">rt</text>
</g>
</g>
</svg>
