<?xml version="1.0" encoding="UTF-8" standalone="no"?>
<!DOCTYPE svg PUBLIC "-//W3C//DTD SVG 1.1//EN"
 "http://www.w3.org/Graphics/SVG/1.1/DTD/svg11.dtd">
<!-- Generated by graphviz version 2.40.1 (20161225.0304)
 -->
<!-- Title: a_graph Pages: 1 -->
<svg width="1827pt" height="119pt"
 viewBox="0.00 0.00 1826.89 119.00" xmlns="http://www.w3.org/2000/svg" xmlns:xlink="http://www.w3.org/1999/xlink">
<g id="graph0" class="graph" transform="scale(1 1) rotate(0) translate(4 115)">
<title>a_graph</title>
<polygon fill="#ffffff" stroke="transparent" points="-4,4 -4,-115 1822.8854,-115 1822.8854,4 -4,4"/>
<!-- T7238 -->
<g id="node1" class="node">
<title>T7238</title>
<polygon fill="none" stroke="#0058ad" points="18.3854,-81.5 18.3854,-110.5 1350.3854,-110.5 1350.3854,-81.5 18.3854,-81.5"/>
<text text-anchor="middle" x="43.3854" y="-92.3" font-family="Times,serif" font-size="14.00" fill="#0058ad">a 3 38</text>
<polyline fill="none" stroke="#0058ad" points="68.3854,-81.5 68.3854,-110.5 "/>
<text text-anchor="middle" x="680.8854" y="-92.3" font-family="Times,serif" font-size="14.00" fill="#0058ad">r 41 [2 3 4 6 7 8 9 10 11 12 13 14 15 16 17 18 20 21 22 23 24 25 26 27 19 29 31 32 33 34 35 30 28 36 37 38 39 40 41 42 44 43 47 48 49 45 46 50 51 52 53 54 55 56 57 58 60 61 62 63 59 65 66 67 68 69 70 71 72 73 64]</text>
<polyline fill="none" stroke="#0058ad" points="1293.3854,-81.5 1293.3854,-110.5 "/>
<text text-anchor="middle" x="1321.8854" y="-92.3" font-family="Times,serif" font-size="14.00" fill="#0058ad">a 40 63</text>
</g>
<!-- T7235 -->
<g id="node2" class="node">
<title>T7235</title>
<polygon fill="none" stroke="#0058ad" points="9.8854,-.5 9.8854,-29.5 1818.8854,-29.5 1818.8854,-.5 9.8854,-.5"/>
<text text-anchor="middle" x="264.8854" y="-11.3" font-family="Times,serif" font-size="14.00" fill="#0058ad">r 3 [1 2 11 13 14 15 16 17 18 19 20 21 22 23 24 25 26 27 28 29 30 31 32 33 34 35 36 37]</text>
<polyline fill="none" stroke="#0058ad" points="519.8854,-.5 519.8854,-29.5 "/>
<text text-anchor="middle" x="548.3854" y="-11.3" font-family="Times,serif" font-size="14.00" fill="#0058ad">a 41 76</text>
<polyline fill="none" stroke="#0058ad" points="576.8854,-.5 576.8854,-29.5 "/>
<text text-anchor="middle" x="1197.8854" y="-11.3" font-family="Times,serif" font-size="14.00" fill="#0058ad">r 41 [2 3 4 6 7 8 9 10 11 12 13 14 15 16 17 18 20 21 22 23 24 25 26 27 19 29 31 32 33 34 35 30 28 36 37 38 39 40 41 42 44 43 47 48 49 45 46 50 51 52 53 54 55 56 57 58 60 61 62 63 59 65 66 67 68 69 70 71 72 73 64 76]</text>
</g>
<!-- T7238&#45;&gt;T7235 -->
<g id="edge1" class="edge">
<title>T7238:f1&#45;&gt;T7235:f1</title>
<path fill="none" stroke="#5b00c0" d="M680.3854,-81C680.3854,-21.9148 563.8858,-84.3418 549.7785,-39.9709"/>
<polygon fill="#5b00c0" stroke="#5b00c0" points="553.2355,-39.4195 548.3854,-30 546.3029,-40.3881 553.2355,-39.4195"/>
<text text-anchor="middle" x="679.8854" y="-51.8" font-family="Times,serif" font-size="14.00" fill="#5b00c0">rw</text>
</g>
<!-- T7235&#45;&gt;T7238 -->
<g id="edge2" class="edge">
<title>T7235:f0&#45;&gt;T7238:f0</title>
<path fill="none" stroke="#5b00c0" d="M9.3854,-15C-20.2602,-15 30.8081,-41.6398 41.4871,-70.9807"/>
<polygon fill="#5b00c0" stroke="#5b00c0" points="38.085,-71.8263 43.3854,-81 44.9626,-70.5232 38.085,-71.8263"/>
<text text-anchor="middle" x="44.8854" y="-51.8" font-family="Times,serif" font-size="14.00" fill="#5b00c0">rw</text>
</g>
</g>
</svg>
