<?xml version="1.0" encoding="UTF-8" standalone="no"?>
<!DOCTYPE svg PUBLIC "-//W3C//DTD SVG 1.1//EN"
 "http://www.w3.org/Graphics/SVG/1.1/DTD/svg11.dtd">
<!-- Generated by graphviz version 2.40.1 (20161225.0304)
 -->
<!-- Title: a_graph Pages: 1 -->
<svg width="1689pt" height="281pt"
 viewBox="0.00 0.00 1689.00 281.00" xmlns="http://www.w3.org/2000/svg" xmlns:xlink="http://www.w3.org/1999/xlink">
<g id="graph0" class="graph" transform="scale(1 1) rotate(0) translate(4 277)">
<title>a_graph</title>
<polygon fill="#ffffff" stroke="transparent" points="-4,4 -4,-277 1685,-277 1685,4 -4,4"/>
<!-- T14359 -->
<g id="node1" class="node">
<title>T14359</title>
<polygon fill="none" stroke="#0058ad" points="0,-243.5 0,-272.5 1511,-272.5 1511,-243.5 0,-243.5"/>
<text text-anchor="middle" x="698.5" y="-254.3" font-family="Times,serif" font-size="14.00" fill="#0058ad">r 75 [2 1 4 5 6 3 9 11 12 13 16 18 19 20 23 24 22 25 26 27 21 28 29 30 31 32 33 34 35 36 37 38 41 42 43 39 40 44 45 47 48 46 51 49 50 52 54 55 53 56 57 59 60 61 62 58 63 64 66 65 67 68 69 70 71 72 73 74 75 76 77 78 80 81 82 79 83 84 85 86 87]</text>
<polyline fill="none" stroke="#0058ad" points="1397,-243.5 1397,-272.5 "/>
<text text-anchor="middle" x="1425.5" y="-254.3" font-family="Times,serif" font-size="14.00" fill="#0058ad">a 65 92</text>
<polyline fill="none" stroke="#0058ad" points="1454,-243.5 1454,-272.5 "/>
<text text-anchor="middle" x="1482.5" y="-254.3" font-family="Times,serif" font-size="14.00" fill="#0058ad">a 73 71</text>
</g>
<!-- T14353 -->
<g id="node3" class="node">
<title>T14353</title>
<polygon fill="none" stroke="#0058ad" points="688,-162.5 688,-191.5 745,-191.5 745,-162.5 688,-162.5"/>
<text text-anchor="middle" x="716.5" y="-173.3" font-family="Times,serif" font-size="14.00" fill="#0058ad">a 75 88</text>
</g>
<!-- T14359&#45;&gt;T14353 -->
<g id="edge1" class="edge">
<title>T14359:f0&#45;&gt;T14353:f0</title>
<path fill="none" stroke="#5b00c0" d="M698.5,-243C698.5,-228.8035 702.4242,-213.4753 706.6081,-201.1673"/>
<polygon fill="#5b00c0" stroke="#5b00c0" points="709.9485,-202.2238 710.1032,-191.6301 703.376,-199.8152 709.9485,-202.2238"/>
<text text-anchor="middle" x="712" y="-213.8" font-family="Times,serif" font-size="14.00" fill="#5b00c0">rw</text>
</g>
<!-- T14357 -->
<g id="node2" class="node">
<title>T14357</title>
<polygon fill="none" stroke="#0058ad" points="542,-.5 542,-29.5 1681,-29.5 1681,-.5 542,-.5"/>
<text text-anchor="middle" x="1111.5" y="-11.3" font-family="Times,serif" font-size="14.00" fill="#0058ad">r 73 [2 3 5 4 7 9 8 11 12 14 15 16 17 18 19 20 22 23 24 25 26 27 21 28 29 30 31 32 33 34 35 36 37 38 39 41 42 40 43 45 44 47 48 49 46 50 51 52 53 54 55 56 57 58 59 60 61 62 63 64 65 66 67 68 69 70]</text>
</g>
<!-- T14357&#45;&gt;T14359 -->
<g id="edge2" class="edge">
<title>T14357:f0&#45;&gt;T14359:f2</title>
<path fill="none" stroke="#5b00c0" d="M1378.0106,-29.6183C1408.1963,-41.1425 1436.0988,-57.6639 1458.5,-81 1506.542,-131.0471 1484.8067,-166.7383 1482.6634,-232.997"/>
<polygon fill="#5b00c0" stroke="#5b00c0" points="1479.1639,-232.9441 1482.5,-243 1486.163,-233.0585 1479.1639,-232.9441"/>
<text text-anchor="middle" x="1496" y="-132.8" font-family="Times,serif" font-size="14.00" fill="#5b00c0">rw</text>
</g>
<!-- T14355 -->
<g id="node4" class="node">
<title>T14355</title>
<polygon fill="none" stroke="#0058ad" points="35,-81.5 35,-110.5 1450,-110.5 1450,-81.5 35,-81.5"/>
<text text-anchor="middle" x="742.5" y="-92.3" font-family="Times,serif" font-size="14.00" fill="#0058ad">r 75 [2 1 4 5 6 3 9 11 12 13 16 18 19 20 23 24 22 25 26 27 21 28 29 30 31 32 33 34 35 36 37 38 41 42 43 39 40 44 45 47 48 46 51 49 50 52 54 55 53 56 57 59 60 61 62 58 63 64 66 65 67 68 69 70 71 72 73 74 75 76 77 78 80 81 82 79 83 84 85 86 87 88]</text>
</g>
<!-- T14353&#45;&gt;T14355 -->
<g id="edge3" class="edge">
<title>T14353:f0&#45;&gt;T14355:f0</title>
<path fill="none" stroke="#c000a5" d="M721.2688,-162.1434C725.0071,-150.497 730.2881,-134.0446 734.6479,-120.4623"/>
<polygon fill="#c000a5" stroke="#c000a5" points="738.0376,-121.3537 737.7614,-110.7625 731.3725,-119.2143 738.0376,-121.3537"/>
<text text-anchor="middle" x="740" y="-132.8" font-family="Times,serif" font-size="14.00" fill="#c000a5">wr</text>
</g>
<!-- T14355&#45;&gt;T14357 -->
<g id="edge4" class="edge">
<title>T14355&#45;&gt;T14357</title>
<path fill="none" stroke="#0050c0" d="M808.896,-81.4253C872.5457,-67.4534 968.5475,-46.3798 1035.2881,-31.7294"/>
<polygon fill="#0050c0" stroke="#0050c0" points="1036.3098,-35.0886 1045.3268,-29.5258 1034.8089,-28.2514 1036.3098,-35.0886"/>
<text text-anchor="middle" x="965" y="-51.8" font-family="Times,serif" font-size="14.00" fill="#0050c0">rt</text>
</g>
</g>
</svg>
