<?xml version="1.0" encoding="UTF-8" standalone="no"?>
<!DOCTYPE svg PUBLIC "-//W3C//DTD SVG 1.1//EN"
 "http://www.w3.org/Graphics/SVG/1.1/DTD/svg11.dtd">
<!-- Generated by graphviz version 2.40.1 (20161225.0304)
 -->
<!-- Title: a_graph Pages: 1 -->
<svg width="3892pt" height="119pt"
 viewBox="0.00 0.00 3892.00 119.00" xmlns="http://www.w3.org/2000/svg" xmlns:xlink="http://www.w3.org/1999/xlink">
<g id="graph0" class="graph" transform="scale(1 1) rotate(0) translate(4 115)">
<title>a_graph</title>
<polygon fill="#ffffff" stroke="transparent" points="-4,4 -4,-115 3888,-115 3888,4 -4,4"/>
<!-- T5167 -->
<g id="node1" class="node">
<title>T5167</title>
<polygon fill="none" stroke="#0058ad" points="0,-81.5 0,-110.5 3884,-110.5 3884,-81.5 0,-81.5"/>
<text text-anchor="middle" x="1095.5" y="-92.3" font-family="Times,serif" font-size="14.00" fill="#0058ad">r 27 [1 2 3 4 5 7 6 8 11 9 10 12 13 14 15 16 17 18 19 20 21 22 24 23 25 27 28 26 29 30 31 32 33 34 35 36 38 37 39 40 42 41 43 45 46 47 48 49 50 51 52 53 55 56 57 54 59 60 61 58 62 63 64 65 66 67 68 69 70 71 72 73 74 75 76 79 80 83 85 86 87 88 89 90 91 92 93 94 95 96 97 98 99 100 102 103 104 101 105 106 107 108 109 110 111 112 113 114 115 116 117 118 119 120 121 122 123 124]</text>
<polyline fill="none" stroke="#0058ad" points="2191,-81.5 2191,-110.5 "/>
<text text-anchor="middle" x="2305" y="-92.3" font-family="Times,serif" font-size="14.00" fill="#0058ad">r 30 [1 2 3 4 5 6 7 8 9 10 11 12 13 14]</text>
<polyline fill="none" stroke="#0058ad" points="2419,-81.5 2419,-110.5 "/>
<text text-anchor="middle" x="2447.5" y="-92.3" font-family="Times,serif" font-size="14.00" fill="#0058ad">a 29 86</text>
<polyline fill="none" stroke="#0058ad" points="2476,-81.5 2476,-110.5 "/>
<text text-anchor="middle" x="3180" y="-92.3" font-family="Times,serif" font-size="14.00" fill="#0058ad">r 29 [1 2 5 6 7 8 9 3 13 14 15 16 17 18 19 20 21 22 24 25 23 26 27 28 29 31 32 30 35 33 36 37 34 39 38 40 41 42 43 44 46 47 48 49 45 50 53 51 52 54 55 56 57 58 60 61 59 62 63 64 65 66 67 68 69 70 71 74 72 73 75 76 77 78 79 80 81 82 83 84 85 86]</text>
</g>
<!-- T5169 -->
<g id="node2" class="node">
<title>T5169</title>
<polygon fill="none" stroke="#0058ad" points="384,-.5 384,-29.5 3578,-29.5 3578,-.5 384,-.5"/>
<text text-anchor="middle" x="1079.5" y="-11.3" font-family="Times,serif" font-size="14.00" fill="#0058ad">r 29 [1 2 5 6 7 8 9 3 13 14 15 16 17 18 19 20 21 22 24 25 23 26 27 28 29 31 32 30 35 33 36 37 34 39 38 40 41 42 43 44 46 47 48 49 45 50 53 51 52 54 55 56 57 58 60 61 59 62 63 64 65 66 67 68 69 70 71 74 72 73 75 76 77 78 79 80 81 82 83 84 85]</text>
<polyline fill="none" stroke="#0058ad" points="1775,-.5 1775,-29.5 "/>
<text text-anchor="middle" x="1807" y="-11.3" font-family="Times,serif" font-size="14.00" fill="#0058ad">a 27 125</text>
<polyline fill="none" stroke="#0058ad" points="1839,-.5 1839,-29.5 "/>
<text text-anchor="middle" x="2708.5" y="-11.3" font-family="Times,serif" font-size="14.00" fill="#0058ad">r 18 [1 2 3 4 5 6 7 8 9 10 11 12 13 16 14 15 17 18 19 21 23 22 24 26 25 28 27 29 30 31 32 33 34 36 37 35 38 39 40 42 43 44 45 46 47 49 48 51 50 52 53 54 55 56 57 58 59 60 61 62 64 65 66 67 68 69 70 71 72 73 74 75 76 78 77 79 80 81 82 83 84 85 86 87 88 89 90 91 92 93 94 96 95 97 98 99 100 101 102 103]</text>
</g>
<!-- T5167&#45;&gt;T5169 -->
<g id="edge1" class="edge">
<title>T5167:f0&#45;&gt;T5169:f1</title>
<path fill="none" stroke="#5b00c0" d="M1095,-81C1095,74.0647 1775.3748,-176.8813 1805.9385,-40.0554"/>
<polygon fill="#5b00c0" stroke="#5b00c0" points="1809.4308,-40.3122 1807,-30 1802.4695,-39.5773 1809.4308,-40.3122"/>
<text text-anchor="middle" x="1807.5" y="-51.8" font-family="Times,serif" font-size="14.00" fill="#5b00c0">rw</text>
</g>
<!-- T5169&#45;&gt;T5167 -->
<g id="edge2" class="edge">
<title>T5169:f0&#45;&gt;T5167:f2</title>
<path fill="none" stroke="#5b00c0" d="M1079,-30C1079,-50.5616 1798.4535,-47.2113 1819,-48 1955.3157,-53.2327 2423.3864,53.3412 2447.0677,-70.8201"/>
<polygon fill="#5b00c0" stroke="#5b00c0" points="2443.6025,-71.3609 2448,-81 2450.5733,-70.7224 2443.6025,-71.3609"/>
<text text-anchor="middle" x="2449.5" y="-51.8" font-family="Times,serif" font-size="14.00" fill="#5b00c0">rw</text>
</g>
</g>
</svg>
