<?xml version="1.0" encoding="UTF-8" standalone="no"?>
<!DOCTYPE svg PUBLIC "-//W3C//DTD SVG 1.1//EN"
 "http://www.w3.org/Graphics/SVG/1.1/DTD/svg11.dtd">
<!-- Generated by graphviz version 2.40.1 (20161225.0304)
 -->
<!-- Title: a_graph Pages: 1 -->
<svg width="296pt" height="200pt"
 viewBox="0.00 0.00 295.50 200.00" xmlns="http://www.w3.org/2000/svg" xmlns:xlink="http://www.w3.org/1999/xlink">
<g id="graph0" class="graph" transform="scale(1 1) rotate(0) translate(4 196)">
<title>a_graph</title>
<polygon fill="#ffffff" stroke="transparent" points="-4,4 -4,-196 291.5,-196 291.5,4 -4,4"/>
<!-- T21621 -->
<g id="node1" class="node">
<title>T21621</title>
<polygon fill="none" stroke="#0058ad" points="138.5,-162.5 138.5,-191.5 287.5,-191.5 287.5,-162.5 138.5,-162.5"/>
<text text-anchor="middle" x="213" y="-173.3" font-family="Times,serif" font-size="14.00" fill="#0058ad">r 108 [1 2 3 4 5 7 8 6 9]</text>
</g>
<!-- T21625 -->
<g id="node2" class="node">
<title>T21625</title>
<polygon fill="none" stroke="#0058ad" points="0,-81.5 0,-110.5 194,-110.5 194,-81.5 0,-81.5"/>
<text text-anchor="middle" x="32.5" y="-92.3" font-family="Times,serif" font-size="14.00" fill="#0058ad">r 109 [1]</text>
<polyline fill="none" stroke="#0058ad" points="65,-81.5 65,-110.5 "/>
<text text-anchor="middle" x="97.5" y="-92.3" font-family="Times,serif" font-size="14.00" fill="#0058ad">r 109 [1]</text>
<polyline fill="none" stroke="#0058ad" points="130,-81.5 130,-110.5 "/>
<text text-anchor="middle" x="162" y="-92.3" font-family="Times,serif" font-size="14.00" fill="#0058ad">a 108 10</text>
</g>
<!-- T21621&#45;&gt;T21625 -->
<g id="edge1" class="edge">
<title>T21621:f0&#45;&gt;T21625:f2</title>
<path fill="none" stroke="#5b00c0" d="M192.5502,-162.3781C180.6894,-152.3502 167.3102,-137.8576 163.2393,-121.1069"/>
<polygon fill="#5b00c0" stroke="#5b00c0" points="166.6912,-120.4996 162,-111 159.7432,-121.3517 166.6912,-120.4996"/>
<text text-anchor="middle" x="181.5" y="-132.8" font-family="Times,serif" font-size="14.00" fill="#5b00c0">rw</text>
</g>
<!-- T21619 -->
<g id="node3" class="node">
<title>T21619</title>
<polygon fill="none" stroke="#0058ad" points="124,-.5 124,-29.5 256,-29.5 256,-.5 124,-.5"/>
<text text-anchor="middle" x="152.5" y="-11.3" font-family="Times,serif" font-size="14.00" fill="#0058ad">a 109 2</text>
<polyline fill="none" stroke="#0058ad" points="181,-.5 181,-29.5 "/>
<text text-anchor="middle" x="218.5" y="-11.3" font-family="Times,serif" font-size="14.00" fill="#0058ad">r 109 [1 2]</text>
</g>
<!-- T21625&#45;&gt;T21619 -->
<g id="edge2" class="edge">
<title>T21625:f0&#45;&gt;T21619:f0</title>
<path fill="none" stroke="#5b00c0" d="M32,-81C32,-34.1176 68.1742,-17.3053 113.8117,-15.2258"/>
<polygon fill="#5b00c0" stroke="#5b00c0" points="114.0801,-18.7209 124,-15 113.9249,-11.7226 114.0801,-18.7209"/>
<text text-anchor="middle" x="47.5" y="-51.8" font-family="Times,serif" font-size="14.00" fill="#5b00c0">rw</text>
</g>
<!-- T21619&#45;&gt;T21621 -->
<g id="edge3" class="edge">
<title>T21619&#45;&gt;T21621</title>
<path fill="none" stroke="#0050c0" d="M193.2741,-29.6132C196.1661,-42.9435 200.3277,-63.2148 203,-81 206.6175,-105.0763 209.3499,-132.7465 211.0366,-152.1758"/>
<polygon fill="#0050c0" stroke="#0050c0" points="207.563,-152.6375 211.8864,-162.3101 214.5385,-152.0526 207.563,-152.6375"/>
<text text-anchor="middle" x="210.5" y="-92.3" font-family="Times,serif" font-size="14.00" fill="#0050c0">rt</text>
</g>
</g>
</svg>
