<?xml version="1.0" encoding="UTF-8" standalone="no"?>
<!DOCTYPE svg PUBLIC "-//W3C//DTD SVG 1.1//EN"
 "http://www.w3.org/Graphics/SVG/1.1/DTD/svg11.dtd">
<!-- Generated by graphviz version 2.40.1 (20161225.0304)
 -->
<!-- Title: a_graph Pages: 1 -->
<svg width="1753pt" height="362pt"
 viewBox="0.00 0.00 1752.50 362.00" xmlns="http://www.w3.org/2000/svg" xmlns:xlink="http://www.w3.org/1999/xlink">
<g id="graph0" class="graph" transform="scale(1 1) rotate(0) translate(4 358)">
<title>a_graph</title>
<polygon fill="#ffffff" stroke="transparent" points="-4,4 -4,-358 1748.5,-358 1748.5,4 -4,4"/>
<!-- T6577 -->
<g id="node1" class="node">
<title>T6577</title>
<polygon fill="none" stroke="#0058ad" points="197.5,-324.5 197.5,-353.5 373.5,-353.5 373.5,-324.5 197.5,-324.5"/>
<text text-anchor="middle" x="285.5" y="-335.3" font-family="Times,serif" font-size="14.00" fill="#0058ad">r 37 [1 2 3 4 5 6 8 9 7 10 12]</text>
</g>
<!-- T6579 -->
<g id="node3" class="node">
<title>T6579</title>
<polygon fill="none" stroke="#0058ad" points="332.5,-243.5 332.5,-272.5 1744.5,-272.5 1744.5,-243.5 332.5,-243.5"/>
<text text-anchor="middle" x="981.5" y="-254.3" font-family="Times,serif" font-size="14.00" fill="#0058ad">r 35 [1 2 4 5 3 6 7 8 9 10 11 12 13 14 15 16 17 18 19 20 21 22 24 23 27 26 29 30 28 32 31 34 33 35 36 37 38 39 40 41 43 44 45 46 47 49 50 51 52 53 42 55 56 57 58 59 60 61 62 63 65 64 67 69 70 71 72 73 74 75 76 77 78 79 80 81]</text>
<polyline fill="none" stroke="#0058ad" points="1630.5,-243.5 1630.5,-272.5 "/>
<text text-anchor="middle" x="1659" y="-254.3" font-family="Times,serif" font-size="14.00" fill="#0058ad">a 34 30</text>
<polyline fill="none" stroke="#0058ad" points="1687.5,-243.5 1687.5,-272.5 "/>
<text text-anchor="middle" x="1716" y="-254.3" font-family="Times,serif" font-size="14.00" fill="#0058ad">a 37 11</text>
</g>
<!-- T6577&#45;&gt;T6579 -->
<g id="edge1" class="edge">
<title>T6577:f0&#45;&gt;T6579:f2</title>
<path fill="none" stroke="#5b00c0" d="M369.3067,-324.4564C370.714,-324.2963 372.1126,-324.144 373.5,-324 408.8562,-320.3313 1594.4296,-311.2581 1707.8117,-278.1726"/>
<polygon fill="#5b00c0" stroke="#5b00c0" points="1709.6979,-281.123 1716.5,-273 1706.117,-275.1082 1709.6979,-281.123"/>
<text text-anchor="middle" x="1587" y="-294.8" font-family="Times,serif" font-size="14.00" fill="#5b00c0">rw</text>
</g>
<!-- T6573 -->
<g id="node2" class="node">
<title>T6573</title>
<polygon fill="none" stroke="#0058ad" points="632,-.5 632,-29.5 865,-29.5 865,-.5 632,-.5"/>
<text text-anchor="middle" x="720" y="-11.3" font-family="Times,serif" font-size="14.00" fill="#0058ad">r 37 [1 2 3 4 5 6 8 9 7 10 12]</text>
<polyline fill="none" stroke="#0058ad" points="808,-.5 808,-29.5 "/>
<text text-anchor="middle" x="836.5" y="-11.3" font-family="Times,serif" font-size="14.00" fill="#0058ad">a 5 122</text>
</g>
<!-- T6573&#45;&gt;T6577 -->
<g id="edge2" class="edge">
<title>T6573&#45;&gt;T6577</title>
<path fill="none" stroke="#0050c0" d="M631.7383,-28.6428C595.5745,-33.7197 555.7216,-40.187 519.5,-48 467.9391,-59.1217 453.0011,-58.0682 405.5,-81 349.5273,-108.0216 323.669,-108.8186 291.5,-162 262.8008,-209.4452 271.5592,-277.8838 279.2427,-314.1916"/>
<polygon fill="#0050c0" stroke="#0050c0" points="275.9256,-315.3906 281.55,-324.3692 282.7523,-313.8428 275.9256,-315.3906"/>
<text text-anchor="middle" x="296" y="-173.3" font-family="Times,serif" font-size="14.00" fill="#0050c0">rt</text>
</g>
<!-- T6573&#45;&gt;T6579 -->
<g id="edge3" class="edge">
<title>T6573:f0&#45;&gt;T6579:f2</title>
<path fill="none" stroke="#5b00c0" d="M719.5,-30C719.5,-66.6956 708.7697,-85.8592 735.5,-111 754.4138,-128.7891 1612.4324,-206.1744 1707.8954,-237.8893"/>
<polygon fill="#5b00c0" stroke="#5b00c0" points="1706.1148,-240.9025 1716.5,-243 1709.6895,-234.8841 1706.1148,-240.9025"/>
<text text-anchor="middle" x="973" y="-132.8" font-family="Times,serif" font-size="14.00" fill="#5b00c0">rw</text>
</g>
<!-- T6570 -->
<g id="node4" class="node">
<title>T6570</title>
<polygon fill="none" stroke="#0058ad" points="333,-162.5 333,-191.5 772,-191.5 772,-162.5 333,-162.5"/>
<text text-anchor="middle" x="412.5" y="-173.3" font-family="Times,serif" font-size="14.00" fill="#0058ad">r 37 [1 2 3 4 5 6 8 9 7 10]</text>
<polyline fill="none" stroke="#0058ad" points="492,-162.5 492,-191.5 "/>
<text text-anchor="middle" x="520.5" y="-173.3" font-family="Times,serif" font-size="14.00" fill="#0058ad">a 35 82</text>
<polyline fill="none" stroke="#0058ad" points="549,-162.5 549,-191.5 "/>
<text text-anchor="middle" x="581" y="-173.3" font-family="Times,serif" font-size="14.00" fill="#0058ad">a 30 128</text>
<polyline fill="none" stroke="#0058ad" points="613,-162.5 613,-191.5 "/>
<text text-anchor="middle" x="692.5" y="-173.3" font-family="Times,serif" font-size="14.00" fill="#0058ad">r 37 [1 2 3 4 5 6 8 9 7 10]</text>
</g>
<!-- T6579&#45;&gt;T6570 -->
<g id="edge4" class="edge">
<title>T6579:f0&#45;&gt;T6570:f1</title>
<path fill="none" stroke="#5b00c0" d="M332.5,-258C325.8333,-258 328.4498,-248.2953 332.5,-243 382.8372,-177.1882 509.0167,-269.9282 519.7673,-202.1315"/>
<polygon fill="#5b00c0" stroke="#5b00c0" points="523.2695,-202.2264 520.5,-192 516.2877,-201.7215 523.2695,-202.2264"/>
<text text-anchor="middle" x="525" y="-213.8" font-family="Times,serif" font-size="14.00" fill="#5b00c0">rw</text>
</g>
<!-- T6570&#45;&gt;T6573 -->
<g id="edge5" class="edge">
<title>T6570&#45;&gt;T6573</title>
<path fill="none" stroke="#0050c0" d="M570.2394,-162.3379C605.1504,-133.4828 682.8725,-69.2432 723.1719,-35.9344"/>
<polygon fill="#0050c0" stroke="#0050c0" points="725.4638,-38.581 730.9419,-29.5123 721.0041,-33.1854 725.4638,-38.581"/>
<text text-anchor="middle" x="671" y="-92.3" font-family="Times,serif" font-size="14.00" fill="#0050c0">rt</text>
</g>
<!-- T6569 -->
<g id="node5" class="node">
<title>T6569</title>
<polygon fill="none" stroke="#0058ad" points="495,-81.5 495,-110.5 552,-110.5 552,-81.5 495,-81.5"/>
<text text-anchor="middle" x="523.5" y="-92.3" font-family="Times,serif" font-size="14.00" fill="#0058ad">a 37 12</text>
</g>
<!-- T6570&#45;&gt;T6569 -->
<g id="edge7" class="edge">
<title>T6570:f0&#45;&gt;T6569:f0</title>
<path fill="none" stroke="#5b00c0" d="M412.5,-162C412.5,-157.5555 455.0984,-133.2889 487.5166,-115.465"/>
<polygon fill="#5b00c0" stroke="#5b00c0" points="489.256,-118.503 496.3463,-110.6305 485.8941,-112.3631 489.256,-118.503"/>
<text text-anchor="middle" x="469" y="-132.8" font-family="Times,serif" font-size="14.00" fill="#5b00c0">rw</text>
</g>
<!-- T6575 -->
<g id="node6" class="node">
<title>T6575</title>
<polygon fill="none" stroke="#0058ad" points="0,-.5 0,-29.5 611,-29.5 611,-.5 0,-.5"/>
<text text-anchor="middle" x="217.5" y="-11.3" font-family="Times,serif" font-size="14.00" fill="#0058ad">r 34 [1 2 3 5 4 6 7 8 9 10 11 12 13 14 15 16 17 20 21 23 22 24 26 27 28 29]</text>
<polyline fill="none" stroke="#0058ad" points="435,-.5 435,-29.5 "/>
<text text-anchor="middle" x="523" y="-11.3" font-family="Times,serif" font-size="14.00" fill="#0058ad">r 37 [1 2 3 4 5 6 8 9 7 10 12]</text>
</g>
<!-- T6570&#45;&gt;T6575 -->
<g id="edge6" class="edge">
<title>T6570&#45;&gt;T6575</title>
<path fill="none" stroke="#0050c0" d="M530.1448,-162.3379C485.7823,-133.2419 386.5645,-68.1678 336.1562,-35.1065"/>
<polygon fill="#0050c0" stroke="#0050c0" points="337.9083,-32.07 327.6268,-29.5123 334.0692,-37.9234 337.9083,-32.07"/>
<text text-anchor="middle" x="454" y="-92.3" font-family="Times,serif" font-size="14.00" fill="#0050c0">rt</text>
</g>
<!-- T6569&#45;&gt;T6577 -->
<g id="edge8" class="edge">
<title>T6569:f0&#45;&gt;T6577:f0</title>
<path fill="none" stroke="#c000a5" d="M496.421,-110.6157C496.1131,-110.746 495.806,-110.8742 495.5,-111 421.7541,-141.3163 377.6753,-103.4972 323.5,-162 284.4335,-204.1871 281.7964,-276.4685 283.4729,-314.2887"/>
<polygon fill="#c000a5" stroke="#c000a5" points="279.9874,-314.6403 284.0646,-324.4192 286.9755,-314.2321 279.9874,-314.6403"/>
<text text-anchor="middle" x="304" y="-213.8" font-family="Times,serif" font-size="14.00" fill="#c000a5">wr</text>
</g>
<!-- T6569&#45;&gt;T6573 -->
<g id="edge10" class="edge">
<title>T6569:f0&#45;&gt;T6573:f0</title>
<path fill="none" stroke="#c000a5" d="M549.9858,-81.3552C570.5629,-69.2164 599.104,-50.654 620.5,-30 622.8234,-27.7571 623.7487,-24.9777 624.5063,-22.4231"/>
<polygon fill="#c000a5" stroke="#c000a5" points="627.19,-24.6786 631.5,-15 622.0951,-19.8784 627.19,-24.6786"/>
<text text-anchor="middle" x="606" y="-51.8" font-family="Times,serif" font-size="14.00" fill="#c000a5">wr</text>
</g>
<!-- T6569&#45;&gt;T6579 -->
<g id="edge9" class="edge">
<title>T6569:f0&#45;&gt;T6579:f2</title>
<path fill="none" stroke="#c02700" d="M549.9067,-110.5118C550.4385,-110.6848 550.9699,-110.8479 551.5,-111 608.8744,-127.4633 768.1783,-98.5214 819.5,-129 862.9646,-154.8125 836.459,-200.1837 880.5,-225 899.4516,-235.6789 1616.1416,-221.7707 1707.0513,-239.0412"/>
<polygon fill="#c02700" stroke="#c02700" points="1705.9243,-242.3637 1716.5,-243 1708.6293,-235.9075 1705.9243,-242.3637"/>
<text text-anchor="middle" x="863.5" y="-173.3" font-family="Times,serif" font-size="14.00" fill="#c02700">ww</text>
</g>
<!-- T6569&#45;&gt;T6575 -->
<g id="edge11" class="edge">
<title>T6569:f0&#45;&gt;T6575:f1</title>
<path fill="none" stroke="#c000a5" d="M523.5,-81.3204C523.5,-70.4532 523.5,-55.0147 523.5,-40.1425"/>
<polygon fill="#c000a5" stroke="#c000a5" points="527.0001,-40 523.5,-30 520.0001,-40 527.0001,-40"/>
<text text-anchor="middle" x="531" y="-51.8" font-family="Times,serif" font-size="14.00" fill="#c000a5">wr</text>
</g>
<!-- T6575&#45;&gt;T6577 -->
<g id="edge12" class="edge">
<title>T6575&#45;&gt;T6577</title>
<path fill="none" stroke="#0050c0" d="M275.7288,-29.5429C268.4094,-34.4507 261.3034,-40.6022 256.5,-48 228.4867,-91.1437 240.9613,-110.7533 236.5,-162 230.9153,-226.1512 223.773,-248.3691 252.5,-306 254.4112,-309.8341 256.9407,-313.4922 259.7515,-316.8834"/>
<polygon fill="#0050c0" stroke="#0050c0" points="257.2741,-319.3585 266.6622,-324.2691 262.3855,-314.5758 257.2741,-319.3585"/>
<text text-anchor="middle" x="241" y="-173.3" font-family="Times,serif" font-size="14.00" fill="#0050c0">rt</text>
</g>
<!-- T6575&#45;&gt;T6579 -->
<g id="edge13" class="edge">
<title>T6575:f0&#45;&gt;T6579:f1</title>
<path fill="none" stroke="#5b00c0" d="M217.5,-30C217.5,-120.9809 317.835,-86.661 405.5,-111 567.9949,-156.1145 626.8538,-94.7358 781.5,-162 822.0477,-179.6364 817.0261,-209.6679 858.5,-225 878.0294,-232.2196 1562.0911,-222.2059 1650.1898,-239.1088"/>
<polygon fill="#5b00c0" stroke="#5b00c0" points="1648.9237,-242.373 1659.5,-243 1651.6231,-235.9144 1648.9237,-242.373"/>
<text text-anchor="middle" x="738" y="-132.8" font-family="Times,serif" font-size="14.00" fill="#5b00c0">rw</text>
</g>
</g>
</svg>
