<?xml version="1.0" encoding="UTF-8" standalone="no"?>
<!DOCTYPE svg PUBLIC "-//W3C//DTD SVG 1.1//EN"
 "http://www.w3.org/Graphics/SVG/1.1/DTD/svg11.dtd">
<!-- Generated by graphviz version 2.40.1 (20161225.0304)
 -->
<!-- Title: a_graph Pages: 1 -->
<svg width="4638pt" height="200pt"
 viewBox="0.00 0.00 4638.00 200.00" xmlns="http://www.w3.org/2000/svg" xmlns:xlink="http://www.w3.org/1999/xlink">
<g id="graph0" class="graph" transform="scale(1 1) rotate(0) translate(4 196)">
<title>a_graph</title>
<polygon fill="#ffffff" stroke="transparent" points="-4,4 -4,-196 4634,-196 4634,4 -4,4"/>
<!-- T13847 -->
<g id="node1" class="node">
<title>T13847</title>
<polygon fill="none" stroke="#0058ad" points="78,-162.5 78,-191.5 4630,-191.5 4630,-162.5 78,-162.5"/>
<text text-anchor="middle" x="692.5" y="-173.3" font-family="Times,serif" font-size="14.00" fill="#0058ad">r 71 [1 2 3 4 5 6 7 8 9 12 10 11 13 14 15 16 17 18 19 20 21 23 22 24 26 25 27 28 29 30 31 32 33 34 35 36 37 38 39 40 41 42 43 44 45 46 47 48 49 50 51 52 53 54 55 59 57 58 60 61 62 56 63 64 65 66 67 69 68 70 72 71]</text>
<polyline fill="none" stroke="#0058ad" points="1307,-162.5 1307,-191.5 "/>
<text text-anchor="middle" x="1921.5" y="-173.3" font-family="Times,serif" font-size="14.00" fill="#0058ad">r 71 [1 2 3 4 5 6 7 8 9 12 10 11 13 14 15 16 17 18 19 20 21 23 22 24 26 25 27 28 29 30 31 32 33 34 35 36 37 38 39 40 41 42 43 44 45 46 47 48 49 50 51 52 53 54 55 59 57 58 60 61 62 56 63 64 65 66 67 69 68 70 72 71]</text>
<polyline fill="none" stroke="#0058ad" points="2536,-162.5 2536,-191.5 "/>
<text text-anchor="middle" x="2568" y="-173.3" font-family="Times,serif" font-size="14.00" fill="#0058ad">a 68 118</text>
<polyline fill="none" stroke="#0058ad" points="2600,-162.5 2600,-191.5 "/>
<text text-anchor="middle" x="3615" y="-173.3" font-family="Times,serif" font-size="14.00" fill="#0058ad">r 68 [1 2 3 4 5 6 7 8 9 10 11 12 13 14 15 16 17 18 19 20 21 22 23 24 25 26 27 28 29 30 31 32 33 34 35 36 38 37 39 41 42 43 44 45 46 47 48 50 51 52 53 54 55 56 57 58 59 60 61 63 64 65 69 70 72 73 74 75 76 77 78 79 80 81 82 83 84 85 86 87 88 89 90 92 93 91 94 95 96 97 98 99 100 101 102 103 104 105 106 107 110 109 111 108 112 115 116 113 114 117 118]</text>
</g>
<!-- T13845 -->
<g id="node2" class="node">
<title>T13845</title>
<polygon fill="none" stroke="#0058ad" points="1236,-81.5 1236,-110.5 1400,-110.5 1400,-81.5 1236,-81.5"/>
<text text-anchor="middle" x="1261" y="-92.3" font-family="Times,serif" font-size="14.00" fill="#0058ad">a 72 1</text>
<polyline fill="none" stroke="#0058ad" points="1286,-81.5 1286,-110.5 "/>
<text text-anchor="middle" x="1314.5" y="-92.3" font-family="Times,serif" font-size="14.00" fill="#0058ad">a 70 34</text>
<polyline fill="none" stroke="#0058ad" points="1343,-81.5 1343,-110.5 "/>
<text text-anchor="middle" x="1371.5" y="-92.3" font-family="Times,serif" font-size="14.00" fill="#0058ad">a 71 73</text>
</g>
<!-- T13847&#45;&gt;T13845 -->
<g id="edge1" class="edge">
<title>T13847:f0&#45;&gt;T13845:f2</title>
<path fill="none" stroke="#5b00c0" d="M692,-162C692,-14.0161 1340.4985,-250.9414 1370.8969,-121.0001"/>
<polygon fill="#5b00c0" stroke="#5b00c0" points="1374.3824,-121.3235 1372,-111 1367.4246,-120.5559 1374.3824,-121.3235"/>
<text text-anchor="middle" x="1372.5" y="-132.8" font-family="Times,serif" font-size="14.00" fill="#5b00c0">rw</text>
</g>
<!-- T13851 -->
<g id="node3" class="node">
<title>T13851</title>
<polygon fill="none" stroke="#0058ad" points="0,-.5 0,-29.5 3302,-29.5 3302,-.5 0,-.5"/>
<text text-anchor="middle" x="25" y="-11.3" font-family="Times,serif" font-size="14.00" fill="#0058ad">a 3 77</text>
<polyline fill="none" stroke="#0058ad" points="50,-.5 50,-29.5 "/>
<text text-anchor="middle" x="1053" y="-11.3" font-family="Times,serif" font-size="14.00" fill="#0058ad">r 68 [1 2 3 4 5 6 7 8 9 10 11 12 13 14 15 16 17 18 19 20 21 22 23 24 25 26 27 28 29 30 31 32 33 34 35 36 38 37 39 41 42 43 44 45 46 47 48 50 51 52 53 54 55 56 57 58 59 60 61 63 64 65 69 70 72 73 74 75 76 77 78 79 80 81 82 83 84 85 86 87 88 89 90 92 93 91 94 95 96 97 98 99 100 101 102 103 104 105 106 107 110 109 111 108 112 115 116 113 114 117]</text>
<polyline fill="none" stroke="#0058ad" points="2056,-.5 2056,-29.5 "/>
<text text-anchor="middle" x="2679" y="-11.3" font-family="Times,serif" font-size="14.00" fill="#0058ad">r 71 [1 2 3 4 5 6 7 8 9 12 10 11 13 14 15 16 17 18 19 20 21 23 22 24 26 25 27 28 29 30 31 32 33 34 35 36 37 38 39 40 41 42 43 44 45 46 47 48 49 50 51 52 53 54 55 59 57 58 60 61 62 56 63 64 65 66 67 69 68 70 72 71 73]</text>
</g>
<!-- T13845&#45;&gt;T13851 -->
<g id="edge2" class="edge">
<title>T13845:f2&#45;&gt;T13851:f2</title>
<path fill="none" stroke="#c000a5" d="M1372,-81C1372,-72.3868 2547.2064,-42.4184 2668.8586,-31.5947"/>
<polygon fill="#c000a5" stroke="#c000a5" points="2669.6651,-35.011 2679,-30 2668.5777,-28.0959 2669.6651,-35.011"/>
<text text-anchor="middle" x="2264.5" y="-51.8" font-family="Times,serif" font-size="14.00" fill="#c000a5">wr</text>
</g>
<!-- T13851&#45;&gt;T13847 -->
<g id="edge3" class="edge">
<title>T13851:f1&#45;&gt;T13847:f2</title>
<path fill="none" stroke="#5b00c0" d="M1053,-30C1053,-46.988 2259.329,-44.7339 2276,-48 2409.2471,-74.1051 2560.1266,-25.2774 2567.7025,-151.7537"/>
<polygon fill="#5b00c0" stroke="#5b00c0" points="2564.2112,-152.1058 2568,-162 2571.2082,-151.9026 2564.2112,-152.1058"/>
<text text-anchor="middle" x="2564.5" y="-92.3" font-family="Times,serif" font-size="14.00" fill="#5b00c0">rw</text>
</g>
</g>
</svg>
