<?xml version="1.0" encoding="UTF-8" standalone="no"?>
<!DOCTYPE svg PUBLIC "-//W3C//DTD SVG 1.1//EN"
 "http://www.w3.org/Graphics/SVG/1.1/DTD/svg11.dtd">
<!-- Generated by graphviz version 2.40.1 (20161225.0304)
 -->
<!-- Title: a_graph Pages: 1 -->
<svg width="5086pt" height="119pt"
 viewBox="0.00 0.00 5085.50 119.00" xmlns="http://www.w3.org/2000/svg" xmlns:xlink="http://www.w3.org/1999/xlink">
<g id="graph0" class="graph" transform="scale(1 1) rotate(0) translate(4 115)">
<title>a_graph</title>
<polygon fill="#ffffff" stroke="transparent" points="-4,4 -4,-115 5081.5,-115 5081.5,4 -4,4"/>
<!-- T18591 -->
<g id="node1" class="node">
<title>T18591</title>
<polygon fill="none" stroke="#0058ad" points="2107.5,-81.5 2107.5,-110.5 5077.5,-110.5 5077.5,-81.5 2107.5,-81.5"/>
<text text-anchor="middle" x="2136" y="-92.3" font-family="Times,serif" font-size="14.00" fill="#0058ad">a 93 99</text>
<polyline fill="none" stroke="#0058ad" points="2164.5,-81.5 2164.5,-110.5 "/>
<text text-anchor="middle" x="2799.5" y="-92.3" font-family="Times,serif" font-size="14.00" fill="#0058ad">r 92 [1 3 4 2 5 6 9 7 13 15 14 16 17 18 19 20 22 24 25 23 26 28 27 30 31 32 33 35 34 36 37 38 39 40 42 44 45 46 47 48 49 50 52 54 53 51 55 56 57 59 62 60 61 58 65 63 64 66 67 68 69 70 71 72 73 74 75 76 77 80 81 82 83 84]</text>
<polyline fill="none" stroke="#0058ad" points="3434.5,-81.5 3434.5,-110.5 "/>
<text text-anchor="middle" x="4176.5" y="-92.3" font-family="Times,serif" font-size="14.00" fill="#0058ad">r 80 [1 2 3 4 5 6 7 51 52 53 54 55 56 57 58 59 60 61 62 63 64 65 67 68 69 70 71 72 73 74 75 76 77 78 79 80 81 82 83 85 86 87 88 89 90 91 92 93 94 95 96 97 99 98 100 101 102 103 104 105 106 108 109 110 111 112 113 114 115 116 117 118 119 120 121 122 123]</text>
<polyline fill="none" stroke="#0058ad" points="4918.5,-81.5 4918.5,-110.5 "/>
<text text-anchor="middle" x="4998" y="-92.3" font-family="Times,serif" font-size="14.00" fill="#0058ad">r 94 [1 2 3 4 5 7 6 9 8 10]</text>
</g>
<!-- T18589 -->
<g id="node2" class="node">
<title>T18589</title>
<polygon fill="none" stroke="#0058ad" points="0,-.5 0,-29.5 3273,-29.5 3273,-.5 0,-.5"/>
<text text-anchor="middle" x="804" y="-11.3" font-family="Times,serif" font-size="14.00" fill="#0058ad">r 93 [1 2 3 4 6 5 10 7 8 9 13 11 14 15 19 20 21 22 23 27 16 17 18 29 30 32 33 31 34 35 28 37 38 39 40 36 41 42 43 44 46 45 47 48 49 51 50 53 54 55 56 57 58 60 61 52 62 63 64 65 59 66 67 68 71 73 69 70 74 75 76 77 72 79 80 81 78 82 84 85 88 86 87 90 89 91 93 92 83 94 96 97 98 95]</text>
<polyline fill="none" stroke="#0058ad" points="1608,-.5 1608,-29.5 "/>
<text text-anchor="middle" x="2412" y="-11.3" font-family="Times,serif" font-size="14.00" fill="#0058ad">r 93 [1 2 3 4 6 5 10 7 8 9 13 11 14 15 19 20 21 22 23 27 16 17 18 29 30 32 33 31 34 35 28 37 38 39 40 36 41 42 43 44 46 45 47 48 49 51 50 53 54 55 56 57 58 60 61 52 62 63 64 65 59 66 67 68 71 73 69 70 74 75 76 77 72 79 80 81 78 82 84 85 88 86 87 90 89 91 93 92 83 94 96 97 98 95]</text>
<polyline fill="none" stroke="#0058ad" points="3216,-.5 3216,-29.5 "/>
<text text-anchor="middle" x="3244.5" y="-11.3" font-family="Times,serif" font-size="14.00" fill="#0058ad">a 92 85</text>
</g>
<!-- T18591&#45;&gt;T18589 -->
<g id="edge1" class="edge">
<title>T18591:f1&#45;&gt;T18589:f2</title>
<path fill="none" stroke="#5b00c0" d="M2799.5,-81C2799.5,114.5731 3228.993,-217.0369 3244.0923,-39.9976"/>
<polygon fill="#5b00c0" stroke="#5b00c0" points="3247.5896,-40.1343 3244.5,-30 3240.5954,-39.8491 3247.5896,-40.1343"/>
<text text-anchor="middle" x="3249" y="-51.8" font-family="Times,serif" font-size="14.00" fill="#5b00c0">rw</text>
</g>
<!-- T18589&#45;&gt;T18591 -->
<g id="edge2" class="edge">
<title>T18589:f0&#45;&gt;T18591:f0</title>
<path fill="none" stroke="#5b00c0" d="M803.5,-30C803.5,-64.8164 1971.7462,-93.6087 2097.3814,-95.8585"/>
<polygon fill="#5b00c0" stroke="#5b00c0" points="2097.452,-99.3597 2107.5,-96 2097.55,-92.3604 2097.452,-99.3597"/>
<text text-anchor="middle" x="1118" y="-51.8" font-family="Times,serif" font-size="14.00" fill="#5b00c0">rw</text>
</g>
</g>
</svg>
