<?xml version="1.0" encoding="UTF-8" standalone="no"?>
<!DOCTYPE svg PUBLIC "-//W3C//DTD SVG 1.1//EN"
 "http://www.w3.org/Graphics/SVG/1.1/DTD/svg11.dtd">
<!-- Generated by graphviz version 2.40.1 (20161225.0304)
 -->
<!-- Title: a_graph Pages: 1 -->
<svg width="2215pt" height="119pt"
 viewBox="0.00 0.00 2215.00 119.00" xmlns="http://www.w3.org/2000/svg" xmlns:xlink="http://www.w3.org/1999/xlink">
<g id="graph0" class="graph" transform="scale(1 1) rotate(0) translate(4 115)">
<title>a_graph</title>
<polygon fill="#ffffff" stroke="transparent" points="-4,4 -4,-115 2211,-115 2211,4 -4,4"/>
<!-- T12985 -->
<g id="node1" class="node">
<title>T12985</title>
<polygon fill="none" stroke="#0058ad" points="0,-81.5 0,-110.5 2207,-110.5 2207,-81.5 0,-81.5"/>
<text text-anchor="middle" x="797" y="-92.3" font-family="Times,serif" font-size="14.00" fill="#0058ad">r 62 [1 2 3 4 7 8 9 10 12 13 11 14 15 16 17 18 20 19 21 22 23 26 27 24 25 28 29 30 31 32 33 35 34 36 37 38 39 40 41 42 43 44 45 46 48 50 49 51 52 54 55 56 57 58 59 60 61 62 63 65 64 66 67 68 69 70 71 72 73 74 75 77 78 79 76 80 81 82 83 86 87 88 89 90 91 92 94 93 95 96 97 100]</text>
<polyline fill="none" stroke="#0058ad" points="1594,-81.5 1594,-110.5 "/>
<text text-anchor="middle" x="1872" y="-92.3" font-family="Times,serif" font-size="14.00" fill="#0058ad">r 67 [2 1 3 4 5 6 7 8 9 10 11 12 13 14 15 20 21 23 24 25 26 31 32 34 35 33 36 38 39 41 43 44 45]</text>
<polyline fill="none" stroke="#0058ad" points="2150,-81.5 2150,-110.5 "/>
<text text-anchor="middle" x="2178.5" y="-92.3" font-family="Times,serif" font-size="14.00" fill="#0058ad">a 67 46</text>
</g>
<!-- T12983 -->
<g id="node2" class="node">
<title>T12983</title>
<polygon fill="none" stroke="#0058ad" points="1568.5,-.5 1568.5,-29.5 2188.5,-29.5 2188.5,-.5 1568.5,-.5"/>
<text text-anchor="middle" x="1600.5" y="-11.3" font-family="Times,serif" font-size="14.00" fill="#0058ad">a 62 102</text>
<polyline fill="none" stroke="#0058ad" points="1632.5,-.5 1632.5,-29.5 "/>
<text text-anchor="middle" x="1910.5" y="-11.3" font-family="Times,serif" font-size="14.00" fill="#0058ad">r 67 [2 1 3 4 5 6 7 8 9 10 11 12 13 14 15 20 21 23 24 25 26 31 32 34 35 33 36 38 39 41 43 44 45]</text>
</g>
<!-- T12985&#45;&gt;T12983 -->
<g id="edge1" class="edge">
<title>T12985:f0&#45;&gt;T12983:f0</title>
<path fill="none" stroke="#5b00c0" d="M796.5,-81C796.5,-39.9304 1460.0746,-17.1495 1558.3747,-15.1448"/>
<polygon fill="#5b00c0" stroke="#5b00c0" points="1558.5511,-18.6427 1568.5,-15 1558.4509,-11.6434 1558.5511,-18.6427"/>
<text text-anchor="middle" x="945" y="-51.8" font-family="Times,serif" font-size="14.00" fill="#5b00c0">rw</text>
</g>
<!-- T12983&#45;&gt;T12985 -->
<g id="edge2" class="edge">
<title>T12983:f1&#45;&gt;T12985:f2</title>
<path fill="none" stroke="#5b00c0" d="M1910.5,-30C1910.5,-147.578 2162.5191,28.9407 2177.778,-70.8307"/>
<polygon fill="#5b00c0" stroke="#5b00c0" points="2174.3005,-71.273 2178.5,-81 2181.2829,-70.7772 2174.3005,-71.273"/>
<text text-anchor="middle" x="2183" y="-51.8" font-family="Times,serif" font-size="14.00" fill="#5b00c0">rw</text>
</g>
</g>
</svg>
