<?xml version="1.0" encoding="UTF-8" standalone="no"?>
<!DOCTYPE svg PUBLIC "-//W3C//DTD SVG 1.1//EN"
 "http://www.w3.org/Graphics/SVG/1.1/DTD/svg11.dtd">
<!-- Generated by graphviz version 2.40.1 (20161225.0304)
 -->
<!-- Title: a_graph Pages: 1 -->
<svg width="1406pt" height="200pt"
 viewBox="0.00 0.00 1406.00 200.00" xmlns="http://www.w3.org/2000/svg" xmlns:xlink="http://www.w3.org/1999/xlink">
<g id="graph0" class="graph" transform="scale(1 1) rotate(0) translate(4 196)">
<title>a_graph</title>
<polygon fill="#ffffff" stroke="transparent" points="-4,4 -4,-196 1402,-196 1402,4 -4,4"/>
<!-- T18907 -->
<g id="node1" class="node">
<title>T18907</title>
<polygon fill="none" stroke="#0058ad" points="0,-162.5 0,-191.5 54,-191.5 54,-162.5 0,-162.5"/>
<text text-anchor="middle" x="27" y="-173.3" font-family="Times,serif" font-size="14.00" fill="#0058ad">a 97 9</text>
</g>
<!-- T18909 -->
<g id="node2" class="node">
<title>T18909</title>
<polygon fill="none" stroke="#0058ad" points="44,-81.5 44,-110.5 1014,-110.5 1014,-81.5 44,-81.5"/>
<text text-anchor="middle" x="529" y="-92.3" font-family="Times,serif" font-size="14.00" fill="#0058ad">r 95 [1 2 3 4 5 6 7 8 9 10 11 12 13 15 16 17 18 20 21 22 19 23 24 25 26 27 30 31 29 33 34 35 37 36 38 39 40 41 42 32 45 46 47 48 43 49 50 51 44 52 54 55 56 57 58 59 60]</text>
</g>
<!-- T18907&#45;&gt;T18909 -->
<g id="edge1" class="edge">
<title>T18907&#45;&gt;T18909</title>
<path fill="none" stroke="#0050c0" d="M54.3462,-172.5876C124.1276,-161.328 311.5608,-131.0848 428.9382,-112.1454"/>
<polygon fill="#0050c0" stroke="#0050c0" points="429.7035,-115.5673 439.0182,-110.519 428.5883,-108.6567 429.7035,-115.5673"/>
<text text-anchor="middle" x="327.5" y="-132.8" font-family="Times,serif" font-size="14.00" fill="#0050c0">rt</text>
</g>
<!-- T18911 -->
<g id="node3" class="node">
<title>T18911</title>
<polygon fill="none" stroke="#0058ad" points="92,-.5 92,-29.5 1398,-29.5 1398,-.5 92,-.5"/>
<text text-anchor="middle" x="157.5" y="-11.3" font-family="Times,serif" font-size="14.00" fill="#0058ad">r 97 [3 4 5 1 2 7 6 8]</text>
<polyline fill="none" stroke="#0058ad" points="223,-.5 223,-29.5 "/>
<text text-anchor="middle" x="288.5" y="-11.3" font-family="Times,serif" font-size="14.00" fill="#0058ad">r 97 [3 4 5 1 2 7 6 8]</text>
<polyline fill="none" stroke="#0058ad" points="354,-.5 354,-29.5 "/>
<text text-anchor="middle" x="382.5" y="-11.3" font-family="Times,serif" font-size="14.00" fill="#0058ad">a 95 53</text>
<polyline fill="none" stroke="#0058ad" points="411,-.5 411,-29.5 "/>
<text text-anchor="middle" x="904.5" y="-11.3" font-family="Times,serif" font-size="14.00" fill="#0058ad">r 95 [1 2 3 4 5 6 7 8 9 10 11 12 13 15 16 17 18 20 21 22 19 23 24 25 26 27 30 31 29 33 34 35 37 36 38 39 40 41 42 32 45 46 47 48 43 49 50 51 44 52 54 55 56 57 58 59 60 53]</text>
</g>
<!-- T18909&#45;&gt;T18911 -->
<g id="edge2" class="edge">
<title>T18909:f0&#45;&gt;T18911:f2</title>
<path fill="none" stroke="#5b00c0" d="M426.1048,-81.4447C404.7777,-73.1541 387.4039,-60.2275 383.0519,-40.1096"/>
<polygon fill="#5b00c0" stroke="#5b00c0" points="386.5162,-39.5841 382,-30 379.5538,-40.3085 386.5162,-39.5841"/>
<text text-anchor="middle" x="402.5" y="-51.8" font-family="Times,serif" font-size="14.00" fill="#5b00c0">rw</text>
</g>
<!-- T18911&#45;&gt;T18907 -->
<g id="edge3" class="edge">
<title>T18911:f0&#45;&gt;T18907:f0</title>
<path fill="none" stroke="#5b00c0" d="M92,-15C48.5898,-15 37.4797,-41.2646 20,-81 9.9724,-103.7951 13.9915,-132.5823 19.1014,-152.6609"/>
<polygon fill="#5b00c0" stroke="#5b00c0" points="15.7317,-153.6072 21.8045,-162.289 22.4712,-151.7151 15.7317,-153.6072"/>
<text text-anchor="middle" x="27.5" y="-92.3" font-family="Times,serif" font-size="14.00" fill="#5b00c0">rw</text>
</g>
</g>
</svg>
