<?xml version="1.0" encoding="UTF-8" standalone="no"?>
<!DOCTYPE svg PUBLIC "-//W3C//DTD SVG 1.1//EN"
 "http://www.w3.org/Graphics/SVG/1.1/DTD/svg11.dtd">
<!-- Generated by graphviz version 2.40.1 (20161225.0304)
 -->
<!-- Title: a_graph Pages: 1 -->
<svg width="3806pt" height="200pt"
 viewBox="0.00 0.00 3805.50 200.00" xmlns="http://www.w3.org/2000/svg" xmlns:xlink="http://www.w3.org/1999/xlink">
<g id="graph0" class="graph" transform="scale(1 1) rotate(0) translate(4 196)">
<title>a_graph</title>
<polygon fill="#ffffff" stroke="transparent" points="-4,4 -4,-196 3801.5,-196 3801.5,4 -4,4"/>
<!-- T21954 -->
<g id="node1" class="node">
<title>T21954</title>
<polygon fill="none" stroke="#0058ad" points="1055.5,-162.5 1055.5,-191.5 3797.5,-191.5 3797.5,-162.5 1055.5,-162.5"/>
<text text-anchor="middle" x="1087.5" y="-173.3" font-family="Times,serif" font-size="14.00" fill="#0058ad">a 110 15</text>
<polyline fill="none" stroke="#0058ad" points="1119.5,-162.5 1119.5,-191.5 "/>
<text text-anchor="middle" x="1694" y="-173.3" font-family="Times,serif" font-size="14.00" fill="#0058ad">r 108 [1 2 3 4 5 7 8 6 9 10 11 13 12 14 15 17 16 18 19 20 21 22 24 23 25 26 27 28 29 30 33 34 35 36 31 38 39 40 41 42 43 44 45 46 48 49 47 50 51 52 53 55 56 58 57 59 60 63 64 65 66 67 62 70 71 72 74]</text>
<polyline fill="none" stroke="#0058ad" points="2268.5,-162.5 2268.5,-191.5 "/>
<text text-anchor="middle" x="3033" y="-173.3" font-family="Times,serif" font-size="14.00" fill="#0058ad">r 109 [1 2 4 3 6 7 5 8 11 12 13 9 10 14 15 16 19 21 22 25 28 29 26 27 30 31 32 34 36 33 37 38 39 40 41 42 35 44 45 43 46 47 48 49 50 51 52 53 55 56 57 58 59 60 54 61 62 64 65 66 63 68 69 70 73 74 71 72 76 75 77 78 79 82 81 83 84 85 86 88 89 90 80 91 93 94 92 96 95]</text>
</g>
<!-- T21952 -->
<g id="node2" class="node">
<title>T21952</title>
<polygon fill="none" stroke="#0058ad" points="0,-81.5 0,-110.5 1431,-110.5 1431,-81.5 0,-81.5"/>
<text text-anchor="middle" x="566" y="-92.3" font-family="Times,serif" font-size="14.00" fill="#0058ad">r 108 [1 2 3 4 5 7 8 6 9 10 11 13 12 14 15 17 16 18 19 20 21 22 24 23 25 26 27 28 29 30 33 34 35 36 31 38 39 40 41 42 43 44 45 46 48 49 47 50 51 52 53 55 56 58 57 59 60 63 64 65 66 67 62 70 71 72]</text>
<polyline fill="none" stroke="#0058ad" points="1132,-81.5 1132,-110.5 "/>
<text text-anchor="middle" x="1164" y="-92.3" font-family="Times,serif" font-size="14.00" fill="#0058ad">a 109 98</text>
<polyline fill="none" stroke="#0058ad" points="1196,-81.5 1196,-110.5 "/>
<text text-anchor="middle" x="1313.5" y="-92.3" font-family="Times,serif" font-size="14.00" fill="#0058ad">r 110 [1 2 3 4 5 6 7 8 9 10 11 12 13 14]</text>
</g>
<!-- T21954&#45;&gt;T21952 -->
<g id="edge1" class="edge">
<title>T21954:f2&#45;&gt;T21952:f1</title>
<path fill="none" stroke="#5b00c0" d="M3033.5,-162C3033.5,-136.8321 1245.7737,-150.6491 1221.5,-144 1197.017,-137.2936 1172.1319,-139.4156 1165.9537,-121.0078"/>
<polygon fill="#5b00c0" stroke="#5b00c0" points="1169.4012,-120.393 1164.5,-111 1162.4739,-121.3993 1169.4012,-120.393"/>
<text text-anchor="middle" x="1229" y="-132.8" font-family="Times,serif" font-size="14.00" fill="#5b00c0">rw</text>
</g>
<!-- T21952&#45;&gt;T21954 -->
<g id="edge3" class="edge">
<title>T21952:f2&#45;&gt;T21954:f0</title>
<path fill="none" stroke="#5b00c0" d="M1313.5,-111C1313.5,-148.2327 1272.4567,-134.3362 1236.5,-144 1222.7861,-147.6858 1124.38,-146.0544 1095.4679,-155.7865"/>
<polygon fill="#5b00c0" stroke="#5b00c0" points="1093.2335,-153.0905 1087.5,-162 1097.5381,-158.6106 1093.2335,-153.0905"/>
<text text-anchor="middle" x="1314" y="-132.8" font-family="Times,serif" font-size="14.00" fill="#5b00c0">rw</text>
</g>
<!-- T21950 -->
<g id="node3" class="node">
<title>T21950</title>
<polygon fill="none" stroke="#0058ad" points="133,-.5 133,-29.5 3490,-29.5 3490,-.5 133,-.5"/>
<text text-anchor="middle" x="897.5" y="-11.3" font-family="Times,serif" font-size="14.00" fill="#0058ad">r 109 [1 2 4 3 6 7 5 8 11 12 13 9 10 14 15 16 19 21 22 25 28 29 26 27 30 31 32 34 36 33 37 38 39 40 41 42 35 44 45 43 46 47 48 49 50 51 52 53 55 56 57 58 59 60 54 61 62 64 65 66 63 68 69 70 73 74 71 72 76 75 77 78 79 82 81 83 84 85 86 88 89 90 80 91 93 94 92 96 95]</text>
<polyline fill="none" stroke="#0058ad" points="1662,-.5 1662,-29.5 "/>
<text text-anchor="middle" x="1694" y="-11.3" font-family="Times,serif" font-size="14.00" fill="#0058ad">a 108 74</text>
<polyline fill="none" stroke="#0058ad" points="1726,-.5 1726,-29.5 "/>
<text text-anchor="middle" x="1843.5" y="-11.3" font-family="Times,serif" font-size="14.00" fill="#0058ad">r 110 [1 2 3 4 5 6 7 8 9 10 11 12 13 14]</text>
<polyline fill="none" stroke="#0058ad" points="1961,-.5 1961,-29.5 "/>
<text text-anchor="middle" x="2725.5" y="-11.3" font-family="Times,serif" font-size="14.00" fill="#0058ad">r 109 [1 2 4 3 6 7 5 8 11 12 13 9 10 14 15 16 19 21 22 25 28 29 26 27 30 31 32 34 36 33 37 38 39 40 41 42 35 44 45 43 46 47 48 49 50 51 52 53 55 56 57 58 59 60 54 61 62 64 65 66 63 68 69 70 73 74 71 72 76 75 77 78 79 82 81 83 84 85 86 88 89 90 80 91 93 94 92 96 95]</text>
</g>
<!-- T21952&#45;&gt;T21950 -->
<g id="edge2" class="edge">
<title>T21952:f0&#45;&gt;T21950:f1</title>
<path fill="none" stroke="#5b00c0" d="M565.5,-81C565.5,14.615 899.0106,-52.8989 994.5,-48 1012.5526,-47.0738 1602.4322,-49.1042 1684.1451,-33.7336"/>
<polygon fill="#5b00c0" stroke="#5b00c0" points="1685.5097,-36.9575 1693.5,-30 1682.915,-30.4561 1685.5097,-36.9575"/>
<text text-anchor="middle" x="1002" y="-51.8" font-family="Times,serif" font-size="14.00" fill="#5b00c0">rw</text>
</g>
<!-- T21950&#45;&gt;T21954 -->
<g id="edge4" class="edge">
<title>T21950:f1&#45;&gt;T21954:f1</title>
<path fill="none" stroke="#c000a5" d="M1693.5,-30C1693.5,-85.1146 1693.5,-101.396 1693.5,-151.8081"/>
<polygon fill="#c000a5" stroke="#c000a5" points="1690.0001,-152 1693.5,-162 1697.0001,-152 1690.0001,-152"/>
<text text-anchor="middle" x="1701" y="-92.3" font-family="Times,serif" font-size="14.00" fill="#c000a5">wr</text>
</g>
<!-- T21950&#45;&gt;T21952 -->
<g id="edge5" class="edge">
<title>T21950:f0&#45;&gt;T21952:f1</title>
<path fill="none" stroke="#5b00c0" d="M897.5,-30C897.5,-55.2083 984.7198,-43.3739 1009.5,-48 1075.0855,-60.2439 1155.5006,-15.7024 1163.7995,-70.838"/>
<polygon fill="#5b00c0" stroke="#5b00c0" points="1160.3205,-71.2644 1164.5,-81 1167.3039,-70.7829 1160.3205,-71.2644"/>
<text text-anchor="middle" x="1168" y="-51.8" font-family="Times,serif" font-size="14.00" fill="#5b00c0">rw</text>
</g>
</g>
</svg>
