<?xml version="1.0" encoding="UTF-8" standalone="no"?>
<!DOCTYPE svg PUBLIC "-//W3C//DTD SVG 1.1//EN"
 "http://www.w3.org/Graphics/SVG/1.1/DTD/svg11.dtd">
<!-- Generated by graphviz version 2.40.1 (20161225.0304)
 -->
<!-- Title: a_graph Pages: 1 -->
<svg width="3967pt" height="119pt"
 viewBox="0.00 0.00 3967.00 119.00" xmlns="http://www.w3.org/2000/svg" xmlns:xlink="http://www.w3.org/1999/xlink">
<g id="graph0" class="graph" transform="scale(1 1) rotate(0) translate(4 115)">
<title>a_graph</title>
<polygon fill="#ffffff" stroke="transparent" points="-4,4 -4,-115 3963,-115 3963,4 -4,4"/>
<!-- T12221 -->
<g id="node1" class="node">
<title>T12221</title>
<polygon fill="none" stroke="#0058ad" points="0,-81.5 0,-110.5 3720,-110.5 3720,-81.5 0,-81.5"/>
<text text-anchor="middle" x="1124.5" y="-92.3" font-family="Times,serif" font-size="14.00" fill="#0058ad">r 60 [1 2 3 4 5 6 7 8 9 10 11 12 13 14 15 16 17 18 19 20 21 22 24 25 26 27 28 29 31 30 32 33 35 36 38 37 39 40 43 45 46 47 44 49 50 48 51 53 52 54 55 57 56 58 59 60 61 62 63 64 66 67 68 69 65 70 71 72 73 74 75 76 77 78 79 80 81 82 83 84 85 86 87 88 89 91 90 92 94 95 96 97 98 99 93 100 101 102 103 104 106 105 107 108 109 110 111 112 113 114 117 118 121 119 120 115 122 123 124 125 126]</text>
<polyline fill="none" stroke="#0058ad" points="2249,-81.5 2249,-110.5 "/>
<text text-anchor="middle" x="2277.5" y="-92.3" font-family="Times,serif" font-size="14.00" fill="#0058ad">a 63 64</text>
<polyline fill="none" stroke="#0058ad" points="2306,-81.5 2306,-110.5 "/>
<text text-anchor="middle" x="2659.5" y="-92.3" font-family="Times,serif" font-size="14.00" fill="#0058ad">r 62 [1 2 3 4 7 8 9 10 12 13 11 14 15 16 17 18 20 19 21 22 23 26 27 24 25 28 29 30 31 32 33 35 34 36 37 38 39 40 41 42 43]</text>
<polyline fill="none" stroke="#0058ad" points="3013,-81.5 3013,-110.5 "/>
<text text-anchor="middle" x="3366.5" y="-92.3" font-family="Times,serif" font-size="14.00" fill="#0058ad">r 62 [1 2 3 4 7 8 9 10 12 13 11 14 15 16 17 18 20 19 21 22 23 26 27 24 25 28 29 30 31 32 33 35 34 36 37 38 39 40 41 42 43]</text>
</g>
<!-- T12223 -->
<g id="node2" class="node">
<title>T12223</title>
<polygon fill="none" stroke="#0058ad" points="1765,-.5 1765,-29.5 3959,-29.5 3959,-.5 1765,-.5"/>
<text text-anchor="middle" x="2276" y="-11.3" font-family="Times,serif" font-size="14.00" fill="#0058ad">r 63 [2 3 4 5 6 7 8 9 10 1 11 12 13 14 15 16 17 18 19 20 21 22 23 24 25 26 27 28 29 30 31 32 33 34 35 36 37 38 39 40 41 42 43 45 46 47 48 49 53 44 55 56 57 58 59 54 60 61 62 63]</text>
<polyline fill="none" stroke="#0058ad" points="2787,-.5 2787,-29.5 "/>
<text text-anchor="middle" x="2833.5" y="-11.3" font-family="Times,serif" font-size="14.00" fill="#0058ad">r 0 [1 2 3 4 6]</text>
<polyline fill="none" stroke="#0058ad" points="2880,-.5 2880,-29.5 "/>
<text text-anchor="middle" x="3391" y="-11.3" font-family="Times,serif" font-size="14.00" fill="#0058ad">r 63 [2 3 4 5 6 7 8 9 10 1 11 12 13 14 15 16 17 18 19 20 21 22 23 24 25 26 27 28 29 30 31 32 33 34 35 36 37 38 39 40 41 42 43 45 46 47 48 49 53 44 55 56 57 58 59 54 60 61 62 63]</text>
<polyline fill="none" stroke="#0058ad" points="3902,-.5 3902,-29.5 "/>
<text text-anchor="middle" x="3930.5" y="-11.3" font-family="Times,serif" font-size="14.00" fill="#0058ad">a 62 44</text>
</g>
<!-- T12221&#45;&gt;T12223 -->
<g id="edge1" class="edge">
<title>T12221:f2&#45;&gt;T12223:f3</title>
<path fill="none" stroke="#5b00c0" d="M2660,-81C2660,56.7473 3867.2764,-159.8118 3928.5834,-40.0566"/>
<polygon fill="#5b00c0" stroke="#5b00c0" points="3932.0666,-40.541 3931,-30 3925.2603,-38.9054 3932.0666,-40.541"/>
<text text-anchor="middle" x="3924.5" y="-51.8" font-family="Times,serif" font-size="14.00" fill="#5b00c0">rw</text>
</g>
<!-- T12219 -->
<g id="node3" class="node">
<title>T12219</title>
<polygon fill="none" stroke="#0058ad" points="655,-.5 655,-29.5 1741,-29.5 1741,-.5 655,-.5"/>
<text text-anchor="middle" x="1166" y="-11.3" font-family="Times,serif" font-size="14.00" fill="#0058ad">r 63 [2 3 4 5 6 7 8 9 10 1 11 12 13 14 15 16 17 18 19 20 21 22 23 24 25 26 27 28 29 30 31 32 33 34 35 36 37 38 39 40 41 42 43 45 46 47 48 49 53 44 55 56 57 58 59 54 60 61 62 63]</text>
<polyline fill="none" stroke="#0058ad" points="1677,-.5 1677,-29.5 "/>
<text text-anchor="middle" x="1709" y="-11.3" font-family="Times,serif" font-size="14.00" fill="#0058ad">a 60 127</text>
</g>
<!-- T12221&#45;&gt;T12219 -->
<g id="edge2" class="edge">
<title>T12221:f0&#45;&gt;T12219:f1</title>
<path fill="none" stroke="#5b00c0" d="M1124,-81C1124,51.8123 1288.6847,-59.479 1421,-48 1435.2244,-46.766 1652.5569,-46.1684 1699.9282,-34.7271"/>
<polygon fill="#5b00c0" stroke="#5b00c0" points="1701.7491,-37.725 1709,-30 1698.5143,-31.5172 1701.7491,-37.725"/>
<text text-anchor="middle" x="1428.5" y="-51.8" font-family="Times,serif" font-size="14.00" fill="#5b00c0">rw</text>
</g>
<!-- T12223&#45;&gt;T12221 -->
<g id="edge3" class="edge">
<title>T12223:f0&#45;&gt;T12221:f1</title>
<path fill="none" stroke="#5b00c0" d="M2276,-30C2276,-48.7853 2277.3716,-55.8762 2277.8431,-70.6416"/>
<polygon fill="#5b00c0" stroke="#5b00c0" points="2274.3488,-71.0542 2278,-81 2281.348,-70.9481 2274.3488,-71.0542"/>
<text text-anchor="middle" x="2284.5" y="-51.8" font-family="Times,serif" font-size="14.00" fill="#5b00c0">rw</text>
</g>
<!-- T12219&#45;&gt;T12221 -->
<g id="edge4" class="edge">
<title>T12219:f0&#45;&gt;T12221:f1</title>
<path fill="none" stroke="#5b00c0" d="M1166,-30C1166,-44.6001 2157.6486,-63.3183 2268.047,-78.3769"/>
<polygon fill="#5b00c0" stroke="#5b00c0" points="2267.4382,-81.8358 2278,-81 2269.2222,-75.067 2267.4382,-81.8358"/>
<text text-anchor="middle" x="1956.5" y="-51.8" font-family="Times,serif" font-size="14.00" fill="#5b00c0">rw</text>
</g>
</g>
</svg>
