<?xml version="1.0" encoding="UTF-8" standalone="no"?>
<!DOCTYPE svg PUBLIC "-//W3C//DTD SVG 1.1//EN"
 "http://www.w3.org/Graphics/SVG/1.1/DTD/svg11.dtd">
<!-- Generated by graphviz version 2.40.1 (20161225.0304)
 -->
<!-- Title: a_graph Pages: 1 -->
<svg width="4380pt" height="443pt"
 viewBox="0.00 0.00 4380.00 443.00" xmlns="http://www.w3.org/2000/svg" xmlns:xlink="http://www.w3.org/1999/xlink">
<g id="graph0" class="graph" transform="scale(1 1) rotate(0) translate(4 439)">
<title>a_graph</title>
<polygon fill="#ffffff" stroke="transparent" points="-4,4 -4,-439 4376,-439 4376,4 -4,4"/>
<!-- T6825 -->
<g id="node1" class="node">
<title>T6825</title>
<polygon fill="none" stroke="#0058ad" points="2404,-405.5 2404,-434.5 4372,-434.5 4372,-405.5 2404,-405.5"/>
<text text-anchor="middle" x="3388" y="-416.3" font-family="Times,serif" font-size="14.00" fill="#0058ad">r 35 [1 2 4 5 3 6 7 8 9 10 11 12 13 14 15 16 17 18 19 20 21 22 24 23 27 26 29 30 28 32 31 34 33 35 36 37 38 39 40 41 43 44 45 46 47 49 50 51 52 53 42 55 56 57 58 59 60 61 62 63 65 64 67 69 70 71 72 73 74 75 76 77 78 79 80 81 82 83 84 85 86 87 88 89 90 91 93 92 94 95 97 96 98 99 100 101 102 105 107 104 108 109 111 112 113 114 115 116 110]</text>
</g>
<!-- T6835 -->
<g id="node2" class="node">
<title>T6835</title>
<polygon fill="none" stroke="#0058ad" points="0,-324.5 0,-353.5 3352,-353.5 3352,-324.5 0,-324.5"/>
<text text-anchor="middle" x="692" y="-335.3" font-family="Times,serif" font-size="14.00" fill="#0058ad">r 37 [1 2 3 4 5 6 8 9 7 10 12 11 14 15 13 16 17 18 20 19 21 22 23 24 25 26 27 28 29 30 31 32 34 33 36 37 35 38 39 41 40 42 43 44 45 46 47 49 48 50 51 52 54 56 55 57 58 59 60 61 62 53 63 64 66 68 69 70 71 72 74 75 76 77 78 79 80 81 73 82 83]</text>
<polyline fill="none" stroke="#0058ad" points="1384,-324.5 1384,-353.5 "/>
<text text-anchor="middle" x="2368" y="-335.3" font-family="Times,serif" font-size="14.00" fill="#0058ad">r 35 [1 2 4 5 3 6 7 8 9 10 11 12 13 14 15 16 17 18 19 20 21 22 24 23 27 26 29 30 28 32 31 34 33 35 36 37 38 39 40 41 43 44 45 46 47 49 50 51 52 53 42 55 56 57 58 59 60 61 62 63 65 64 67 69 70 71 72 73 74 75 76 77 78 79 80 81 82 83 84 85 86 87 88 89 90 91 93 92 94 95 97 96 98 99 100 101 102 105 107 104 108 109 111 112 113 114 115 116 110]</text>
</g>
<!-- T6825&#45;&gt;T6835 -->
<g id="edge2" class="edge">
<title>T6825&#45;&gt;T6835</title>
<path fill="none" stroke="#0050c0" d="M3081.4348,-405.4955C2774.1628,-390.9575 2303.3048,-368.6797 1992.5475,-353.9768"/>
<polygon fill="#0050c0" stroke="#0050c0" points="1992.6354,-350.4772 1982.4811,-353.5006 1992.3045,-357.4694 1992.6354,-350.4772"/>
<text text-anchor="middle" x="2689.5" y="-375.8" font-family="Times,serif" font-size="14.00" fill="#0050c0">rt</text>
</g>
<!-- T6833 -->
<g id="node5" class="node">
<title>T6833</title>
<polygon fill="none" stroke="#0058ad" points="2426,-243.5 2426,-272.5 3960,-272.5 3960,-243.5 2426,-243.5"/>
<text text-anchor="middle" x="2458" y="-254.3" font-family="Times,serif" font-size="14.00" fill="#0058ad">a 35 117</text>
<polyline fill="none" stroke="#0058ad" points="2490,-243.5 2490,-272.5 "/>
<text text-anchor="middle" x="3164.5" y="-254.3" font-family="Times,serif" font-size="14.00" fill="#0058ad">r 37 [1 2 3 4 5 6 8 9 7 10 12 11 14 15 13 16 17 18 20 19 21 22 23 24 25 26 27 28 29 30 31 32 34 33 36 37 35 38 39 41 40 42 43 44 45 46 47 49 48 50 51 52 54 56 55 57 58 59 60 61 62 53 63 64 66 68 69 70 71 72 74 75 76 77 78 79 80 81 73]</text>
<polyline fill="none" stroke="#0058ad" points="3839,-243.5 3839,-272.5 "/>
<text text-anchor="middle" x="3871" y="-254.3" font-family="Times,serif" font-size="14.00" fill="#0058ad">a 35 118</text>
<polyline fill="none" stroke="#0058ad" points="3903,-243.5 3903,-272.5 "/>
<text text-anchor="middle" x="3931.5" y="-254.3" font-family="Times,serif" font-size="14.00" fill="#0058ad">a 38 22</text>
</g>
<!-- T6825&#45;&gt;T6833 -->
<g id="edge1" class="edge">
<title>T6825:f0&#45;&gt;T6833:f0</title>
<path fill="none" stroke="#5b00c0" d="M3388.6975,-405.1607C3388.8146,-383.4857 3385.4352,-343.6197 3361,-324 3285.3949,-263.2945 2515.0601,-365.8061 2460.9894,-282.8263"/>
<polygon fill="#5b00c0" stroke="#5b00c0" points="2464.2591,-281.5484 2458,-273 2457.5621,-283.5858 2464.2591,-281.5484"/>
<text text-anchor="middle" x="3387.5" y="-335.3" font-family="Times,serif" font-size="14.00" fill="#5b00c0">rw</text>
</g>
<!-- T6835&#45;&gt;T6833 -->
<g id="edge3" class="edge">
<title>T6835:f1&#45;&gt;T6833:f0</title>
<path fill="none" stroke="#5b00c0" d="M2368,-324C2368,-281.9752 2443.1959,-312.5793 2456.1202,-283.0375"/>
<polygon fill="#5b00c0" stroke="#5b00c0" points="2459.5994,-283.4734 2458,-273 2452.719,-282.1848 2459.5994,-283.4734"/>
<text text-anchor="middle" x="2455.5" y="-294.8" font-family="Times,serif" font-size="14.00" fill="#5b00c0">rw</text>
</g>
<!-- T6823 -->
<g id="node3" class="node">
<title>T6823</title>
<polygon fill="none" stroke="#0058ad" points="3960,-.5 3960,-29.5 4292,-29.5 4292,-.5 3960,-.5"/>
<text text-anchor="middle" x="4126" y="-11.3" font-family="Times,serif" font-size="14.00" fill="#0058ad">r 38 [1 2 3 4 5 6 7 8 9 10 11 12 13 15 16 17 18 19 20 21]</text>
</g>
<!-- T6823&#45;&gt;T6825 -->
<g id="edge5" class="edge">
<title>T6823&#45;&gt;T6825</title>
<path fill="none" stroke="#0050c0" d="M4137.6077,-29.5646C4148.7828,-45.0839 4164,-70.8364 4164,-96 4164,-339 4164,-339 4164,-339 4164,-365.5063 3873.8147,-389.8846 3648.3493,-404.8254"/>
<polygon fill="#0050c0" stroke="#0050c0" points="3648.0859,-401.3351 3638.3379,-405.4855 3648.5465,-408.3199 3648.0859,-401.3351"/>
<text text-anchor="middle" x="4168.5" y="-213.8" font-family="Times,serif" font-size="14.00" fill="#0050c0">rt</text>
</g>
<!-- T6823&#45;&gt;T6833 -->
<g id="edge4" class="edge">
<title>T6823:f0&#45;&gt;T6833:f3</title>
<path fill="none" stroke="#5b00c0" d="M4125.7192,-29.5376C4124.7825,-49.1386 4121.0832,-84.6218 4107,-111 4065.1415,-189.402 4053.287,-252.988 3970.2094,-257.7177"/>
<polygon fill="#5b00c0" stroke="#5b00c0" points="3969.8994,-254.2249 3960,-258 3970.0929,-261.2222 3969.8994,-254.2249"/>
<text text-anchor="middle" x="4104.5" y="-132.8" font-family="Times,serif" font-size="14.00" fill="#5b00c0">rw</text>
</g>
<!-- T6819 -->
<g id="node4" class="node">
<title>T6819</title>
<polygon fill="none" stroke="#0058ad" points="1401.5,-162.5 1401.5,-191.5 1458.5,-191.5 1458.5,-162.5 1401.5,-162.5"/>
<text text-anchor="middle" x="1430" y="-173.3" font-family="Times,serif" font-size="14.00" fill="#0058ad">a 37 82</text>
</g>
<!-- T6821 -->
<g id="node6" class="node">
<title>T6821</title>
<polygon fill="none" stroke="#0058ad" points="746.5,-81.5 746.5,-110.5 4097.5,-110.5 4097.5,-81.5 746.5,-81.5"/>
<text text-anchor="middle" x="1430" y="-92.3" font-family="Times,serif" font-size="14.00" fill="#0058ad">r 37 [1 2 3 4 5 6 8 9 7 10 12 11 14 15 13 16 17 18 20 19 21 22 23 24 25 26 27 28 29 30 31 32 34 33 36 37 35 38 39 41 40 42 43 44 45 46 47 49 48 50 51 52 54 56 55 57 58 59 60 61 62 53 63 64 66 68 69 70 71 72 74 75 76 77 78 79 80 81 73 82]</text>
<polyline fill="none" stroke="#0058ad" points="2113.5,-81.5 2113.5,-110.5 "/>
<text text-anchor="middle" x="2939.5" y="-92.3" font-family="Times,serif" font-size="14.00" fill="#0058ad">r 5 [1 2 3 4 5 6 9 10 11 12 13 48 49 50 51 52 53 54 56 55 57 58 59 60 62 63 64 65 66 67 68 69 70 71 73 74 75 76 77 78 79 80 81 82 83 84 85 86 87 88 89 90 91 92 93 94 95 96 97 98 100 101 102 103 104 105 106 107 108 109 110 111 113 115 114 116 117 118 119 122 123 124 125 126 127 128]</text>
<polyline fill="none" stroke="#0058ad" points="3765.5,-81.5 3765.5,-110.5 "/>
<text text-anchor="middle" x="3931.5" y="-92.3" font-family="Times,serif" font-size="14.00" fill="#0058ad">r 38 [1 2 3 4 5 6 7 8 9 10 11 12 13 15 16 17 18 19 20 21]</text>
</g>
<!-- T6819&#45;&gt;T6821 -->
<g id="edge7" class="edge">
<title>T6819:f0&#45;&gt;T6821:f0</title>
<path fill="none" stroke="#c000a5" d="M1430,-162.3204C1430,-151.4532 1430,-136.0147 1430,-121.1425"/>
<polygon fill="#c000a5" stroke="#c000a5" points="1433.5001,-121 1430,-111 1426.5001,-121 1433.5001,-121"/>
<text text-anchor="middle" x="1437.5" y="-132.8" font-family="Times,serif" font-size="14.00" fill="#c000a5">wr</text>
</g>
<!-- T6827 -->
<g id="node7" class="node">
<title>T6827</title>
<polygon fill="none" stroke="#0058ad" points="680,-.5 680,-29.5 794,-29.5 794,-.5 680,-.5"/>
<text text-anchor="middle" x="708.5" y="-11.3" font-family="Times,serif" font-size="14.00" fill="#0058ad">a 37 83</text>
<polyline fill="none" stroke="#0058ad" points="737,-.5 737,-29.5 "/>
<text text-anchor="middle" x="765.5" y="-11.3" font-family="Times,serif" font-size="14.00" fill="#0058ad">a 34 41</text>
</g>
<!-- T6819&#45;&gt;T6827 -->
<g id="edge6" class="edge">
<title>T6819:f0&#45;&gt;T6827:f0</title>
<path fill="none" stroke="#c02700" d="M1403.5917,-162.4936C1403.0604,-162.3189 1402.5295,-162.154 1402,-162 1328.7155,-140.6835 771.9393,-163.9781 717,-111 693.4726,-88.3125 705.0768,-70.1091 707.5676,-40.1578"/>
<polygon fill="#c02700" stroke="#c02700" points="711.0714,-40.1398 708,-30 704.0778,-39.8421 711.0714,-40.1398"/>
<text text-anchor="middle" x="727" y="-92.3" font-family="Times,serif" font-size="14.00" fill="#c02700">ww</text>
</g>
<!-- T6833&#45;&gt;T6819 -->
<g id="edge8" class="edge">
<title>T6833:f1&#45;&gt;T6819:f0</title>
<path fill="none" stroke="#5b00c0" d="M3164,-243C3164,-197.1641 1612.2232,-203.7153 1466.3356,-192.7353"/>
<polygon fill="#5b00c0" stroke="#5b00c0" points="1466.7458,-189.2595 1456.3992,-191.5391 1465.9091,-196.2093 1466.7458,-189.2595"/>
<text text-anchor="middle" x="3056.5" y="-213.8" font-family="Times,serif" font-size="14.00" fill="#5b00c0">rw</text>
</g>
<!-- T6821&#45;&gt;T6823 -->
<g id="edge10" class="edge">
<title>T6821&#45;&gt;T6823</title>
<path fill="none" stroke="#0050c0" d="M2727.1326,-81.4955C3083.5301,-64.554 3661.0352,-37.1022 3949.8146,-23.375"/>
<polygon fill="#0050c0" stroke="#0050c0" points="3950.1422,-26.8635 3959.9647,-22.8925 3949.8098,-19.8714 3950.1422,-26.8635"/>
<text text-anchor="middle" x="3430.5" y="-51.8" font-family="Times,serif" font-size="14.00" fill="#0050c0">rt</text>
</g>
<!-- T6821&#45;&gt;T6833 -->
<g id="edge11" class="edge">
<title>T6821:f2&#45;&gt;T6833:f3</title>
<path fill="none" stroke="#5b00c0" d="M3932,-111C3932,-166.1146 3932,-182.396 3932,-232.8081"/>
<polygon fill="#5b00c0" stroke="#5b00c0" points="3928.5001,-233 3932,-243 3935.5001,-233 3928.5001,-233"/>
<text text-anchor="middle" x="3939.5" y="-173.3" font-family="Times,serif" font-size="14.00" fill="#5b00c0">rw</text>
</g>
<!-- T6821&#45;&gt;T6827 -->
<g id="edge9" class="edge">
<title>T6821:f0&#45;&gt;T6827:f0</title>
<path fill="none" stroke="#5b00c0" d="M746,-96C734.0743,-96 728.3584,-58.0892 722,-48 719.1293,-43.445 715.3576,-41.5099 712.4523,-39.1771"/>
<polygon fill="#5b00c0" stroke="#5b00c0" points="715.514,-37.4693 708,-30 709.216,-40.5248 715.514,-37.4693"/>
<text text-anchor="middle" x="735.5" y="-51.8" font-family="Times,serif" font-size="14.00" fill="#5b00c0">rw</text>
</g>
<!-- T6827&#45;&gt;T6835 -->
<g id="edge12" class="edge">
<title>T6827:f0&#45;&gt;T6835:f0</title>
<path fill="none" stroke="#c000a5" d="M680,-15C643.1218,-15 662,-59.1218 662,-96 662,-258 662,-258 662,-258 662,-286.4455 685.3807,-290.9925 690.8606,-313.8368"/>
<polygon fill="#c000a5" stroke="#c000a5" points="687.4076,-314.4522 692,-324 694.364,-313.6723 687.4076,-314.4522"/>
<text text-anchor="middle" x="669.5" y="-173.3" font-family="Times,serif" font-size="14.00" fill="#c000a5">wr</text>
</g>
</g>
</svg>
