<?xml version="1.0" encoding="UTF-8" standalone="no"?>
<!DOCTYPE svg PUBLIC "-//W3C//DTD SVG 1.1//EN"
 "http://www.w3.org/Graphics/SVG/1.1/DTD/svg11.dtd">
<!-- Generated by graphviz version 2.40.1 (20161225.0304)
 -->
<!-- Title: a_graph Pages: 1 -->
<svg width="3180pt" height="200pt"
 viewBox="0.00 0.00 3179.50 200.00" xmlns="http://www.w3.org/2000/svg" xmlns:xlink="http://www.w3.org/1999/xlink">
<g id="graph0" class="graph" transform="scale(1 1) rotate(0) translate(4 196)">
<title>a_graph</title>
<polygon fill="#ffffff" stroke="transparent" points="-4,4 -4,-196 3175.5,-196 3175.5,4 -4,4"/>
<!-- T5755 -->
<g id="node1" class="node">
<title>T5755</title>
<polygon fill="none" stroke="#0058ad" points="836.5,-162.5 836.5,-191.5 3171.5,-191.5 3171.5,-162.5 836.5,-162.5"/>
<text text-anchor="middle" x="861.5" y="-173.3" font-family="Times,serif" font-size="14.00" fill="#0058ad">a 33 4</text>
<polyline fill="none" stroke="#0058ad" points="886.5,-162.5 886.5,-191.5 "/>
<text text-anchor="middle" x="1570" y="-173.3" font-family="Times,serif" font-size="14.00" fill="#0058ad">r 31 [1 2 3 4 5 6 7 8 9 10 11 13 14 12 15 16 18 17 19 22 23 24 20 21 25 26 28 29 27 30 31 32 34 35 36 37 38 39 40 41 42 44 45 46 47 43 49 50 51 52 53 55 54 56 57 59 58 60 63 64 61 62 65 66 67 68 69 71 72 73 70 74 75 76 77 78 81 82 83 84]</text>
<polyline fill="none" stroke="#0058ad" points="2253.5,-162.5 2253.5,-191.5 "/>
<text text-anchor="middle" x="2712.5" y="-173.3" font-family="Times,serif" font-size="14.00" fill="#0058ad">r 30 [1 2 3 4 5 6 7 8 9 10 11 12 13 14 15 16 19 20 21 23 22 24 25 26 27 28 29 30 31 32 33 35 34 36 37 38 41 43 42 44 45 48 46 47 49 50 51 52 53 54 55 56 57 58]</text>
</g>
<!-- T5753 -->
<g id="node2" class="node">
<title>T5753</title>
<polygon fill="none" stroke="#0058ad" points="49,-81.5 49,-110.5 2449,-110.5 2449,-81.5 49,-81.5"/>
<text text-anchor="middle" x="78" y="-92.3" font-family="Times,serif" font-size="14.00" fill="#0058ad">r 33 [1]</text>
<polyline fill="none" stroke="#0058ad" points="107,-81.5 107,-110.5 "/>
<text text-anchor="middle" x="790.5" y="-92.3" font-family="Times,serif" font-size="14.00" fill="#0058ad">r 31 [1 2 3 4 5 6 7 8 9 10 11 13 14 12 15 16 18 17 19 22 23 24 20 21 25 26 28 29 27 30 31 32 34 35 36 37 38 39 40 41 42 44 45 46 47 43 49 50 51 52 53 55 54 56 57 59 58 60 63 64 61 62 65 66 67 68 69 71 72 73 70 74 75 76 77 78 81 82 83 84]</text>
<polyline fill="none" stroke="#0058ad" points="1474,-81.5 1474,-110.5 "/>
<text text-anchor="middle" x="1933" y="-92.3" font-family="Times,serif" font-size="14.00" fill="#0058ad">r 30 [1 2 3 4 5 6 7 8 9 10 11 12 13 14 15 16 19 20 21 23 22 24 25 26 27 28 29 30 31 32 33 35 34 36 37 38 41 43 42 44 45 48 46 47 49 50 51 52 53 54 55 56 57 58]</text>
<polyline fill="none" stroke="#0058ad" points="2392,-81.5 2392,-110.5 "/>
<text text-anchor="middle" x="2420.5" y="-92.3" font-family="Times,serif" font-size="14.00" fill="#0058ad">a 31 85</text>
</g>
<!-- T5755&#45;&gt;T5753 -->
<g id="edge1" class="edge">
<title>T5755:f1&#45;&gt;T5753:f3</title>
<path fill="none" stroke="#5b00c0" d="M1570,-162C1570,23.9352 2389.7129,-288.4603 2420.1319,-121.0179"/>
<polygon fill="#5b00c0" stroke="#5b00c0" points="2423.6236,-121.2648 2421,-111 2416.6497,-120.6605 2423.6236,-121.2648"/>
<text text-anchor="middle" x="2424.5" y="-132.8" font-family="Times,serif" font-size="14.00" fill="#5b00c0">rw</text>
</g>
<!-- T5751 -->
<g id="node3" class="node">
<title>T5751</title>
<polygon fill="none" stroke="#0058ad" points="0,-.5 0,-29.5 54,-29.5 54,-.5 0,-.5"/>
<text text-anchor="middle" x="27" y="-11.3" font-family="Times,serif" font-size="14.00" fill="#0058ad">a 33 3</text>
</g>
<!-- T5753&#45;&gt;T5751 -->
<g id="edge2" class="edge">
<title>T5753:f0&#45;&gt;T5751:f0</title>
<path fill="none" stroke="#5b00c0" d="M78,-81C78,-63.6119 66.7793,-48.0149 54.8643,-36.3544"/>
<polygon fill="#5b00c0" stroke="#5b00c0" points="57.206,-33.7531 47.4498,-29.6219 52.5003,-38.9355 57.206,-33.7531"/>
<text text-anchor="middle" x="80.5" y="-51.8" font-family="Times,serif" font-size="14.00" fill="#5b00c0">rw</text>
</g>
<!-- T5751&#45;&gt;T5755 -->
<g id="edge3" class="edge">
<title>T5751:f0&#45;&gt;T5755:f0</title>
<path fill="none" stroke="#c02700" d="M20.1232,-29.5131C11.3517,-50.4111 -.3941,-88.8897 20,-111 49.4514,-142.9296 725.4932,-174.0722 825.7952,-176.8057"/>
<polygon fill="#c02700" stroke="#c02700" points="825.9352,-180.3089 836,-177 826.0685,-173.3102 825.9352,-180.3089"/>
<text text-anchor="middle" x="30" y="-92.3" font-family="Times,serif" font-size="14.00" fill="#c02700">ww</text>
</g>
</g>
</svg>
