<?xml version="1.0" encoding="UTF-8" standalone="no"?>
<!DOCTYPE svg PUBLIC "-//W3C//DTD SVG 1.1//EN"
 "http://www.w3.org/Graphics/SVG/1.1/DTD/svg11.dtd">
<!-- Generated by graphviz version 2.40.1 (20161225.0304)
 -->
<!-- Title: a_graph Pages: 1 -->
<svg width="1693pt" height="200pt"
 viewBox="0.00 0.00 1693.00 200.00" xmlns="http://www.w3.org/2000/svg" xmlns:xlink="http://www.w3.org/1999/xlink">
<g id="graph0" class="graph" transform="scale(1 1) rotate(0) translate(4 196)">
<title>a_graph</title>
<polygon fill="#ffffff" stroke="transparent" points="-4,4 -4,-196 1689,-196 1689,4 -4,4"/>
<!-- T5195 -->
<g id="node1" class="node">
<title>T5195</title>
<polygon fill="none" stroke="#0058ad" points="4,-162.5 4,-191.5 1633,-191.5 1633,-162.5 4,-162.5"/>
<text text-anchor="middle" x="29" y="-173.3" font-family="Times,serif" font-size="14.00" fill="#0058ad">a 31 2</text>
<polyline fill="none" stroke="#0058ad" points="54,-162.5 54,-191.5 "/>
<text text-anchor="middle" x="79" y="-173.3" font-family="Times,serif" font-size="14.00" fill="#0058ad">a 3 29</text>
<polyline fill="none" stroke="#0058ad" points="104,-162.5 104,-191.5 "/>
<text text-anchor="middle" x="868.5" y="-173.3" font-family="Times,serif" font-size="14.00" fill="#0058ad">r 29 [1 2 5 6 7 8 9 3 13 14 15 16 17 18 19 20 21 22 24 25 23 26 27 28 29 31 32 30 35 33 36 37 34 39 38 40 41 42 43 44 46 47 48 49 45 50 53 51 52 54 55 56 57 58 60 61 59 62 63 64 65 66 67 68 69 70 71 74 72 73 75 76 77 78 79 80 81 82 83 84 85 86 88 90 87 92 93 94 91]</text>
</g>
<!-- T5193 -->
<g id="node2" class="node">
<title>T5193</title>
<polygon fill="none" stroke="#0058ad" points="760,-81.5 760,-110.5 1177,-110.5 1177,-81.5 760,-81.5"/>
<text text-anchor="middle" x="788.5" y="-92.3" font-family="Times,serif" font-size="14.00" fill="#0058ad">a 29 95</text>
<polyline fill="none" stroke="#0058ad" points="817,-81.5 817,-110.5 "/>
<text text-anchor="middle" x="846" y="-92.3" font-family="Times,serif" font-size="14.00" fill="#0058ad">r 31 [1]</text>
<polyline fill="none" stroke="#0058ad" points="875,-81.5 875,-110.5 "/>
<text text-anchor="middle" x="903.5" y="-92.3" font-family="Times,serif" font-size="14.00" fill="#0058ad">a 29 96</text>
<polyline fill="none" stroke="#0058ad" points="932,-81.5 932,-110.5 "/>
<text text-anchor="middle" x="1054.5" y="-92.3" font-family="Times,serif" font-size="14.00" fill="#0058ad">r 30 [1 2 3 4 5 6 7 8 9 10 11 12 13 14 15]</text>
</g>
<!-- T5195&#45;&gt;T5193 -->
<g id="edge1" class="edge">
<title>T5195:f2&#45;&gt;T5193:f0</title>
<path fill="none" stroke="#5b00c0" d="M868.5,-162C868.5,-123.787 802.7969,-147.5798 790.4775,-120.9929"/>
<polygon fill="#5b00c0" stroke="#5b00c0" points="793.8748,-120.1303 788.5,-111 787.008,-121.4892 793.8748,-120.1303"/>
<text text-anchor="middle" x="866" y="-132.8" font-family="Times,serif" font-size="14.00" fill="#5b00c0">rw</text>
</g>
<!-- T5193&#45;&gt;T5195 -->
<g id="edge3" class="edge">
<title>T5193:f1&#45;&gt;T5195:f0</title>
<path fill="none" stroke="#5b00c0" d="M845.5,-111C845.5,-153.9458 116.9236,-120.7061 35.8126,-155.1703"/>
<polygon fill="#5b00c0" stroke="#5b00c0" points="33.4193,-152.6164 28.5,-162 38.1973,-157.7322 33.4193,-152.6164"/>
<text text-anchor="middle" x="768" y="-132.8" font-family="Times,serif" font-size="14.00" fill="#5b00c0">rw</text>
</g>
<!-- T5197 -->
<g id="node3" class="node">
<title>T5197</title>
<polygon fill="none" stroke="#0058ad" points="0,-.5 0,-29.5 1685,-29.5 1685,-.5 0,-.5"/>
<text text-anchor="middle" x="29" y="-11.3" font-family="Times,serif" font-size="14.00" fill="#0058ad">r 31 [1]</text>
<polyline fill="none" stroke="#0058ad" points="58,-.5 58,-29.5 "/>
<text text-anchor="middle" x="90" y="-11.3" font-family="Times,serif" font-size="14.00" fill="#0058ad">a 18 106</text>
<polyline fill="none" stroke="#0058ad" points="122,-.5 122,-29.5 "/>
<text text-anchor="middle" x="903.5" y="-11.3" font-family="Times,serif" font-size="14.00" fill="#0058ad">r 29 [1 2 5 6 7 8 9 3 13 14 15 16 17 18 19 20 21 22 24 25 23 26 27 28 29 31 32 30 35 33 36 37 34 39 38 40 41 42 43 44 46 47 48 49 45 50 53 51 52 54 55 56 57 58 60 61 59 62 63 64 65 66 67 68 69 70 71 74 72 73 75 76 77 78 79 80 81 82 83 84 85 86 88 90 87 92 93 94 91 95 96]</text>
</g>
<!-- T5193&#45;&gt;T5197 -->
<g id="edge2" class="edge">
<title>T5193:f2&#45;&gt;T5197:f2</title>
<path fill="none" stroke="#c000a5" d="M903.5,-81C903.5,-62.2292 903.5,-55.1168 903.5,-40.3535"/>
<polygon fill="#c000a5" stroke="#c000a5" points="907.0001,-40 903.5,-30 900.0001,-40 907.0001,-40"/>
<text text-anchor="middle" x="911" y="-51.8" font-family="Times,serif" font-size="14.00" fill="#c000a5">wr</text>
</g>
<!-- T5197&#45;&gt;T5195 -->
<g id="edge4" class="edge">
<title>T5197:f0&#45;&gt;T5195:f0</title>
<path fill="none" stroke="#5b00c0" d="M28.5,-30C28.5,-85.1146 28.5,-101.396 28.5,-151.8081"/>
<polygon fill="#5b00c0" stroke="#5b00c0" points="25.0001,-152 28.5,-162 32.0001,-152 25.0001,-152"/>
<text text-anchor="middle" x="36" y="-92.3" font-family="Times,serif" font-size="14.00" fill="#5b00c0">rw</text>
</g>
</g>
</svg>
