<?xml version="1.0" encoding="UTF-8" standalone="no"?>
<!DOCTYPE svg PUBLIC "-//W3C//DTD SVG 1.1//EN"
 "http://www.w3.org/Graphics/SVG/1.1/DTD/svg11.dtd">
<!-- Generated by graphviz version 2.40.1 (20161225.0304)
 -->
<!-- Title: a_graph Pages: 1 -->
<svg width="7654pt" height="524pt"
 viewBox="0.00 0.00 7654.00 524.00" xmlns="http://www.w3.org/2000/svg" xmlns:xlink="http://www.w3.org/1999/xlink">
<g id="graph0" class="graph" transform="scale(1 1) rotate(0) translate(4 520)">
<title>a_graph</title>
<polygon fill="#ffffff" stroke="transparent" points="-4,4 -4,-520 7650,-520 7650,4 -4,4"/>
<!-- T15235 -->
<g id="node1" class="node">
<title>T15235</title>
<polygon fill="none" stroke="#0058ad" points="5692.5,-486.5 5692.5,-515.5 7483.5,-515.5 7483.5,-486.5 5692.5,-486.5"/>
<text text-anchor="middle" x="5724.5" y="-497.3" font-family="Times,serif" font-size="14.00" fill="#0058ad">a 78 106</text>
<polyline fill="none" stroke="#0058ad" points="5756.5,-486.5 5756.5,-515.5 "/>
<text text-anchor="middle" x="6591.5" y="-497.3" font-family="Times,serif" font-size="14.00" fill="#0058ad">r 78 [1 2 3 4 5 6 7 8 9 12 13 10 11 14 15 16 17 20 18 19 21 22 23 24 25 27 26 28 29 30 31 32 33 34 37 38 39 35 36 40 41 42 43 44 45 46 48 49 50 51 52 53 55 54 58 57 61 47 62 63 64 65 66 68 69 67 70 71 72 73 74 75 76 77 78 79 80 81 82 83 84 85 86 87 88 89 93 94 95 96 97 98 100 101 102 106]</text>
<polyline fill="none" stroke="#0058ad" points="7426.5,-486.5 7426.5,-515.5 "/>
<text text-anchor="middle" x="7455" y="-497.3" font-family="Times,serif" font-size="14.00" fill="#0058ad">a 77 77</text>
</g>
<!-- T15257 -->
<g id="node2" class="node">
<title>T15257</title>
<polygon fill="none" stroke="#0058ad" points="6305,-405.5 6305,-434.5 7603,-434.5 7603,-405.5 6305,-405.5"/>
<text text-anchor="middle" x="6954" y="-416.3" font-family="Times,serif" font-size="14.00" fill="#0058ad">r 77 [1 2 3 5 6 4 7 8 9 10 11 12 13 15 14 16 17 18 19 20 21 22 23 24 25 26 27 28 30 31 29 32 33 34 36 35 37 38 39 40 41 42 43 44 45 46 47 48 50 49 51 52 53 54 55 56 57 58 59 60 62 61 63 64 65 66 67 68 69 70 71 72 73 74 75 76]</text>
</g>
<!-- T15235&#45;&gt;T15257 -->
<g id="edge2" class="edge">
<title>T15235&#45;&gt;T15257</title>
<path fill="none" stroke="#0050c0" d="M6653.8562,-486.4253C6716.9884,-472.4534 6812.2097,-451.3798 6878.4077,-436.7294"/>
<polygon fill="#0050c0" stroke="#0050c0" points="6879.3574,-440.104 6888.3648,-434.5258 6877.8447,-433.2694 6879.3574,-440.104"/>
<text text-anchor="middle" x="6807.5" y="-456.8" font-family="Times,serif" font-size="14.00" fill="#0050c0">rt</text>
</g>
<!-- T15245 -->
<g id="node3" class="node">
<title>T15245</title>
<polygon fill="none" stroke="#0058ad" points="1775,-162.5 1775,-191.5 6211,-191.5 6211,-162.5 1775,-162.5"/>
<text text-anchor="middle" x="1807" y="-173.3" font-family="Times,serif" font-size="14.00" fill="#0058ad">a 78 109</text>
<polyline fill="none" stroke="#0058ad" points="1839,-162.5 1839,-191.5 "/>
<text text-anchor="middle" x="2496.5" y="-173.3" font-family="Times,serif" font-size="14.00" fill="#0058ad">r 77 [1 2 3 5 6 4 7 8 9 10 11 12 13 15 14 16 17 18 19 20 21 22 23 24 25 26 27 28 30 31 29 32 33 34 36 35 37 38 39 40 41 42 43 44 45 46 47 48 50 49 51 52 53 54 55 56 57 58 59 60 62 61 63 64 65 66 67 68 69 70 71 72 73 74 75 76 77]</text>
<polyline fill="none" stroke="#0058ad" points="3154,-162.5 3154,-191.5 "/>
<text text-anchor="middle" x="4025" y="-173.3" font-family="Times,serif" font-size="14.00" fill="#0058ad">r 78 [1 2 3 4 5 6 7 8 9 12 13 10 11 14 15 16 17 20 18 19 21 22 23 24 25 27 26 28 29 30 31 32 33 34 37 38 39 35 36 40 41 42 43 44 45 46 48 49 50 51 52 53 55 54 58 57 61 47 62 63 64 65 66 68 69 67 70 71 72 73 74 75 76 77 78 79 80 81 82 83 84 85 86 87 88 89 93 94 95 96 97 98 100 101 102 106 107 108 109]</text>
<polyline fill="none" stroke="#0058ad" points="4896,-162.5 4896,-191.5 "/>
<text text-anchor="middle" x="5553.5" y="-173.3" font-family="Times,serif" font-size="14.00" fill="#0058ad">r 77 [1 2 3 5 6 4 7 8 9 10 11 12 13 15 14 16 17 18 19 20 21 22 23 24 25 26 27 28 30 31 29 32 33 34 36 35 37 38 39 40 41 42 43 44 45 46 47 48 50 49 51 52 53 54 55 56 57 58 59 60 62 61 63 64 65 66 67 68 69 70 71 72 73 74 75 76 77]</text>
</g>
<!-- T15235&#45;&gt;T15245 -->
<g id="edge4" class="edge">
<title>T15235:f2&#45;&gt;T15245:f1</title>
<path fill="none" stroke="#c000a5" d="M7484,-501C7558.5952,-501 7631,-494.5952 7631,-420 7631,-420 7631,-420 7631,-258 7631,-118.2051 2699.5426,-326.0151 2502.0916,-200.138"/>
<polygon fill="#c000a5" stroke="#c000a5" points="2504.7945,-197.9082 2496,-192 2499.1906,-202.103 2504.7945,-197.9082"/>
<text text-anchor="middle" x="7638.5" y="-335.3" font-family="Times,serif" font-size="14.00" fill="#c000a5">wr</text>
</g>
<!-- T15243 -->
<g id="node4" class="node">
<title>T15243</title>
<polygon fill="none" stroke="#0058ad" points="2603,-243.5 2603,-272.5 2667,-272.5 2667,-243.5 2603,-243.5"/>
<text text-anchor="middle" x="2635" y="-254.3" font-family="Times,serif" font-size="14.00" fill="#0058ad">a 78 108</text>
</g>
<!-- T15235&#45;&gt;T15243 -->
<g id="edge1" class="edge">
<title>T15235&#45;&gt;T15243</title>
<path fill="none" stroke="#0050c0" d="M6488.49,-486.4844C6416.7007,-474.5456 6327.161,-456.1854 6296,-435 6267.9652,-415.94 6282.7228,-388.303 6253,-372 6088.2137,-281.6145 3071.2321,-260.6013 2677.2909,-258.2393"/>
<polygon fill="#0050c0" stroke="#0050c0" points="2677.1966,-254.7387 2667.176,-258.1793 2677.155,-261.7386 2677.1966,-254.7387"/>
<text text-anchor="middle" x="6272.5" y="-375.8" font-family="Times,serif" font-size="14.00" fill="#0050c0">rt</text>
</g>
<!-- T15239 -->
<g id="node5" class="node">
<title>T15239</title>
<polygon fill="none" stroke="#0058ad" points="0,-405.5 0,-434.5 3404,-434.5 3404,-405.5 0,-405.5"/>
<text text-anchor="middle" x="835" y="-416.3" font-family="Times,serif" font-size="14.00" fill="#0058ad">r 78 [1 2 3 4 5 6 7 8 9 12 13 10 11 14 15 16 17 20 18 19 21 22 23 24 25 27 26 28 29 30 31 32 33 34 37 38 39 35 36 40 41 42 43 44 45 46 48 49 50 51 52 53 55 54 58 57 61 47 62 63 64 65 66 68 69 67 70 71 72 73 74 75 76 77 78 79 80 81 82 83 84 85 86 87 88 89 93 94 95 96 97 98 100 101 102 106]</text>
<polyline fill="none" stroke="#0058ad" points="1670,-405.5 1670,-434.5 "/>
<text text-anchor="middle" x="2505" y="-416.3" font-family="Times,serif" font-size="14.00" fill="#0058ad">r 78 [1 2 3 4 5 6 7 8 9 12 13 10 11 14 15 16 17 20 18 19 21 22 23 24 25 27 26 28 29 30 31 32 33 34 37 38 39 35 36 40 41 42 43 44 45 46 48 49 50 51 52 53 55 54 58 57 61 47 62 63 64 65 66 68 69 67 70 71 72 73 74 75 76 77 78 79 80 81 82 83 84 85 86 87 88 89 93 94 95 96 97 98 100 101 102 106]</text>
<polyline fill="none" stroke="#0058ad" points="3340,-405.5 3340,-434.5 "/>
<text text-anchor="middle" x="3372" y="-416.3" font-family="Times,serif" font-size="14.00" fill="#0058ad">a 78 107</text>
</g>
<!-- T15235&#45;&gt;T15239 -->
<g id="edge3" class="edge">
<title>T15235:f0&#45;&gt;T15239:f2</title>
<path fill="none" stroke="#c02700" d="M5692,-501C4677.8277,-501 4423.2016,-420.5331 3414.0361,-420.0026"/>
<polygon fill="#c02700" stroke="#c02700" points="3414.001,-416.5027 3404,-420 3413.999,-423.5027 3414.001,-416.5027"/>
<text text-anchor="middle" x="4672" y="-456.8" font-family="Times,serif" font-size="14.00" fill="#c02700">ww</text>
</g>
<!-- T15257&#45;&gt;T15235 -->
<g id="edge5" class="edge">
<title>T15257:f0&#45;&gt;T15235:f2</title>
<path fill="none" stroke="#5b00c0" d="M7398.5028,-434.5052C7427.9807,-444.2856 7448.2235,-457.7327 7453.5836,-476.0012"/>
<polygon fill="#5b00c0" stroke="#5b00c0" points="7450.1319,-476.5898 7455,-486 7457.0627,-475.6079 7450.1319,-476.5898"/>
<text text-anchor="middle" x="7456.5" y="-456.8" font-family="Times,serif" font-size="14.00" fill="#5b00c0">rw</text>
</g>
<!-- T15251 -->
<g id="node6" class="node">
<title>T15251</title>
<polygon fill="none" stroke="#0058ad" points="3170,-.5 3170,-29.5 4816,-29.5 4816,-.5 3170,-.5"/>
<text text-anchor="middle" x="3993" y="-11.3" font-family="Times,serif" font-size="14.00" fill="#0058ad">r 78 [1 2 3 4 5 6 7 8 9 12 13 10 11 14 15 16 17 20 18 19 21 22 23 24 25 27 26 28 29 30 31 32 33 34 37 38 39 35 36 40 41 42 43 44 45 46 48 49 50 51 52 53 55 54 58 57 61 47 62 63 64 65 66 68 69 67 70 71 72 73 74 75 76 77 78 79 80 81 82 83 84 85 86 87 88 89 93 94 95 96 97 98 100 101 102]</text>
</g>
<!-- T15245&#45;&gt;T15251 -->
<g id="edge6" class="edge">
<title>T15245&#45;&gt;T15251</title>
<path fill="none" stroke="#0050c0" d="M3993,-162.3379C3993,-134.5069 3993,-73.7584 3993,-39.5948"/>
<polygon fill="#0050c0" stroke="#0050c0" points="3996.5001,-39.5123 3993,-29.5123 3989.5001,-39.5123 3996.5001,-39.5123"/>
<text text-anchor="middle" x="3997.5" y="-92.3" font-family="Times,serif" font-size="14.00" fill="#0050c0">rt</text>
</g>
<!-- T15247 -->
<g id="node7" class="node">
<title>T15247</title>
<polygon fill="none" stroke="#0058ad" points="744,-81.5 744,-110.5 2660,-110.5 2660,-81.5 744,-81.5"/>
<text text-anchor="middle" x="1615" y="-92.3" font-family="Times,serif" font-size="14.00" fill="#0058ad">r 78 [1 2 3 4 5 6 7 8 9 12 13 10 11 14 15 16 17 20 18 19 21 22 23 24 25 27 26 28 29 30 31 32 33 34 37 38 39 35 36 40 41 42 43 44 45 46 48 49 50 51 52 53 55 54 58 57 61 47 62 63 64 65 66 68 69 67 70 71 72 73 74 75 76 77 78 79 80 81 82 83 84 85 86 87 88 89 93 94 95 96 97 98 100 101 102 106 107 108 109]</text>
<polyline fill="none" stroke="#0058ad" points="2486,-81.5 2486,-110.5 "/>
<text text-anchor="middle" x="2541" y="-92.3" font-family="Times,serif" font-size="14.00" fill="#0058ad">r 79 [1 2 3 4 5 6]</text>
<polyline fill="none" stroke="#0058ad" points="2596,-81.5 2596,-110.5 "/>
<text text-anchor="middle" x="2628" y="-92.3" font-family="Times,serif" font-size="14.00" fill="#0058ad">a 78 111</text>
</g>
<!-- T15245&#45;&gt;T15247 -->
<g id="edge7" class="edge">
<title>T15245:f0&#45;&gt;T15247:f2</title>
<path fill="none" stroke="#c02700" d="M1807,-162C1807,17.2259 2596.2429,-281.6971 2627.0727,-121.1489"/>
<polygon fill="#c02700" stroke="#c02700" points="2630.5755,-121.277 2628,-111 2623.6045,-120.64 2630.5755,-121.277"/>
<text text-anchor="middle" x="2634" y="-132.8" font-family="Times,serif" font-size="14.00" fill="#c02700">ww</text>
</g>
<!-- T15243&#45;&gt;T15245 -->
<g id="edge8" class="edge">
<title>T15243:f0&#45;&gt;T15245:f0</title>
<path fill="none" stroke="#c02700" d="M2604.789,-243.4893C2604.191,-243.3159 2603.5943,-243.1525 2603,-243 2520.5082,-221.8344 1861.5282,-276.0901 1810.1713,-201.7208"/>
<polygon fill="#c02700" stroke="#c02700" points="1813.429,-200.4213 1807,-192 1806.7742,-202.5924 1813.429,-200.4213"/>
<text text-anchor="middle" x="1866" y="-213.8" font-family="Times,serif" font-size="14.00" fill="#c02700">ww</text>
</g>
<!-- T15243&#45;&gt;T15247 -->
<g id="edge9" class="edge">
<title>T15243&#45;&gt;T15247</title>
<path fill="none" stroke="#0050c0" d="M2602.8863,-257.6049C2460.7169,-255.7345 1891.6213,-246.9295 1815,-225 1786.4867,-216.8393 1778.0027,-212.9402 1757,-192 1745.8322,-180.8654 1726.3629,-144.5186 1713.8362,-119.8837"/>
<polygon fill="#0050c0" stroke="#0050c0" points="1716.8746,-118.1355 1709.2503,-110.7788 1710.6228,-121.2844 1716.8746,-118.1355"/>
<text text-anchor="middle" x="1761.5" y="-173.3" font-family="Times,serif" font-size="14.00" fill="#0050c0">rt</text>
</g>
<!-- T15239&#45;&gt;T15245 -->
<g id="edge12" class="edge">
<title>T15239&#45;&gt;T15245</title>
<path fill="none" stroke="#0050c0" d="M1702.6793,-405.3192C1704.0653,-385.864 1708.2695,-350.8692 1721,-324 1749.1177,-264.6545 1755.8168,-238.4577 1815,-210 1830.9306,-202.3399 2023.4388,-196.339 2287.9935,-191.6817"/>
<polygon fill="#0050c0" stroke="#0050c0" points="2288.2971,-195.177 2298.2344,-191.5027 2288.1747,-188.1781 2288.2971,-195.177"/>
<text text-anchor="middle" x="1739.5" y="-294.8" font-family="Times,serif" font-size="14.00" fill="#0050c0">rt</text>
</g>
<!-- T15239&#45;&gt;T15243 -->
<g id="edge10" class="edge">
<title>T15239:f2&#45;&gt;T15243:f0</title>
<path fill="none" stroke="#c02700" d="M3404,-420C3461.5809,-420 3530.4382,-365.9546 3491,-324 3430.1353,-259.2518 2797.3006,-293.3955 2675.3782,-274.5107"/>
<polygon fill="#c02700" stroke="#c02700" points="2675.6978,-271.0066 2665.2105,-272.5125 2674.3479,-277.8752 2675.6978,-271.0066"/>
<text text-anchor="middle" x="3512" y="-335.3" font-family="Times,serif" font-size="14.00" fill="#c02700">ww</text>
</g>
<!-- T15239&#45;&gt;T15247 -->
<g id="edge13" class="edge">
<title>T15239&#45;&gt;T15247</title>
<path fill="none" stroke="#0050c0" d="M1690.3923,-405.4354C1679.2172,-389.9161 1664,-364.1636 1664,-339 1664,-339 1664,-339 1664,-177 1664,-155.9648 1674.6336,-134.5181 1684.6507,-118.9815"/>
<polygon fill="#0050c0" stroke="#0050c0" points="1687.6484,-120.798 1690.3923,-110.5646 1681.8656,-116.8533 1687.6484,-120.798"/>
<text text-anchor="middle" x="1668.5" y="-254.3" font-family="Times,serif" font-size="14.00" fill="#0050c0">rt</text>
</g>
<!-- T15241 -->
<g id="node8" class="node">
<title>T15241</title>
<polygon fill="none" stroke="#0058ad" points="1730,-324.5 1730,-353.5 3482,-353.5 3482,-324.5 1730,-324.5"/>
<text text-anchor="middle" x="1759" y="-335.3" font-family="Times,serif" font-size="14.00" fill="#0058ad">r 80 [1]</text>
<polyline fill="none" stroke="#0058ad" points="1788,-324.5 1788,-353.5 "/>
<text text-anchor="middle" x="2635" y="-335.3" font-family="Times,serif" font-size="14.00" fill="#0058ad">r 78 [1 2 3 4 5 6 7 8 9 12 13 10 11 14 15 16 17 20 18 19 21 22 23 24 25 27 26 28 29 30 31 32 33 34 37 38 39 35 36 40 41 42 43 44 45 46 48 49 50 51 52 53 55 54 58 57 61 47 62 63 64 65 66 68 69 67 70 71 72 73 74 75 76 77 78 79 80 81 82 83 84 85 86 87 88 89 93 94 95 96 97 98 100 101 102 106 107]</text>
</g>
<!-- T15239&#45;&gt;T15241 -->
<g id="edge11" class="edge">
<title>T15239:f2&#45;&gt;T15241:f1</title>
<path fill="none" stroke="#c000a5" d="M3372,-405C3372,-244.3576 2666.3278,-506.4563 2636.0059,-363.9786"/>
<polygon fill="#c000a5" stroke="#c000a5" points="2639.4854,-363.5985 2635,-354 2632.5207,-364.3007 2639.4854,-363.5985"/>
<text text-anchor="middle" x="3371.5" y="-375.8" font-family="Times,serif" font-size="14.00" fill="#c000a5">wr</text>
</g>
<!-- T15251&#45;&gt;T15235 -->
<g id="edge14" class="edge">
<title>T15251:f0&#45;&gt;T15235:f0</title>
<path fill="none" stroke="#5b00c0" d="M4592.3049,-29.5003C5257.6435,-46.6193 6239,-75.3667 6239,-96 6239,-420 6239,-420 6239,-420 6239,-531.7748 5755.6846,-380.6436 5725.4774,-475.9867"/>
<polygon fill="#5b00c0" stroke="#5b00c0" points="5721.9972,-475.5962 5724,-486 5728.9222,-476.618 5721.9972,-475.5962"/>
<text text-anchor="middle" x="6246.5" y="-254.3" font-family="Times,serif" font-size="14.00" fill="#5b00c0">rw</text>
</g>
<!-- T15247&#45;&gt;T15251 -->
<g id="edge15" class="edge">
<title>T15247&#45;&gt;T15251</title>
<path fill="none" stroke="#0050c0" d="M2112.2458,-81.4955C2524.5537,-66.918 3156.9629,-44.5587 3572.7779,-29.8573"/>
<polygon fill="#0050c0" stroke="#0050c0" points="3572.9966,-33.3518 3582.8667,-29.5006 3572.7492,-26.3562 3572.9966,-33.3518"/>
<text text-anchor="middle" x="3056.5" y="-51.8" font-family="Times,serif" font-size="14.00" fill="#0050c0">rt</text>
</g>
<!-- T15241&#45;&gt;T15243 -->
<g id="edge16" class="edge">
<title>T15241:f1&#45;&gt;T15243:f0</title>
<path fill="none" stroke="#5b00c0" d="M2635,-324C2635,-310.3521 2635,-295.1166 2635,-282.7254"/>
<polygon fill="#5b00c0" stroke="#5b00c0" points="2638.5001,-282.6796 2635,-272.6796 2631.5001,-282.6797 2638.5001,-282.6796"/>
<text text-anchor="middle" x="2642.5" y="-294.8" font-family="Times,serif" font-size="14.00" fill="#5b00c0">rw</text>
</g>
<!-- T15241&#45;&gt;T15247 -->
<g id="edge17" class="edge">
<title>T15241&#45;&gt;T15247</title>
<path fill="none" stroke="#0050c0" d="M2377.7307,-324.4908C2166.3781,-308.1181 1869.5038,-276.7847 1765,-225 1726.0447,-205.6965 1710.9266,-152.8069 1705.2474,-121.0633"/>
<polygon fill="#0050c0" stroke="#0050c0" points="1708.6426,-120.1294 1703.6086,-110.8068 1701.7303,-121.2338 1708.6426,-120.1294"/>
<text text-anchor="middle" x="1769.5" y="-213.8" font-family="Times,serif" font-size="14.00" fill="#0050c0">rt</text>
</g>
</g>
</svg>
