<?xml version="1.0" encoding="UTF-8" standalone="no"?>
<!DOCTYPE svg PUBLIC "-//W3C//DTD SVG 1.1//EN"
 "http://www.w3.org/Graphics/SVG/1.1/DTD/svg11.dtd">
<!-- Generated by graphviz version 2.40.1 (20161225.0304)
 -->
<!-- Title: a_graph Pages: 1 -->
<svg width="2355pt" height="119pt"
 viewBox="0.00 0.00 2355.00 119.00" xmlns="http://www.w3.org/2000/svg" xmlns:xlink="http://www.w3.org/1999/xlink">
<g id="graph0" class="graph" transform="scale(1 1) rotate(0) translate(4 115)">
<title>a_graph</title>
<polygon fill="#ffffff" stroke="transparent" points="-4,4 -4,-115 2351,-115 2351,4 -4,4"/>
<!-- T5579 -->
<g id="node1" class="node">
<title>T5579</title>
<polygon fill="none" stroke="#0058ad" points="0,-81.5 0,-110.5 2347,-110.5 2347,-81.5 0,-81.5"/>
<text text-anchor="middle" x="493.5" y="-92.3" font-family="Times,serif" font-size="14.00" fill="#0058ad">r 31 [1 2 3 4 5 6 7 8 9 10 11 13 14 12 15 16 18 17 19 22 23 24 20 21 25 26 28 29 27 30 31 32 34 35 36 37 38 39 40 41 42 44 45 46 47 43 49 50 51 52 53 55 54 56 57 59 58 60]</text>
<polyline fill="none" stroke="#0058ad" points="987,-81.5 987,-110.5 "/>
<text text-anchor="middle" x="1015.5" y="-92.3" font-family="Times,serif" font-size="14.00" fill="#0058ad">a 32 73</text>
<polyline fill="none" stroke="#0058ad" points="1044,-81.5 1044,-110.5 "/>
<text text-anchor="middle" x="1072.5" y="-92.3" font-family="Times,serif" font-size="14.00" fill="#0058ad">a 30 47</text>
<polyline fill="none" stroke="#0058ad" points="1101,-81.5 1101,-110.5 "/>
<text text-anchor="middle" x="1724" y="-92.3" font-family="Times,serif" font-size="14.00" fill="#0058ad">r 32 [2 3 4 1 5 6 7 9 10 8 11 12 13 15 14 16 17 20 21 22 18 23 26 27 24 25 28 29 32 31 33 34 35 30 36 37 38 40 39 45 46 48 49 50 51 53 56 54 55 58 57 59 60 61 62 63 64 65 66 69 67 68 52 70 71 74 75 76 77 78 72 79 73]</text>
</g>
<!-- T5571 -->
<g id="node2" class="node">
<title>T5571</title>
<polygon fill="none" stroke="#0058ad" points="582,-.5 582,-29.5 1367,-29.5 1367,-.5 582,-.5"/>
<text text-anchor="middle" x="610.5" y="-11.3" font-family="Times,serif" font-size="14.00" fill="#0058ad">a 31 63</text>
<polyline fill="none" stroke="#0058ad" points="639,-.5 639,-29.5 "/>
<text text-anchor="middle" x="1003" y="-11.3" font-family="Times,serif" font-size="14.00" fill="#0058ad">r 30 [1 2 3 4 5 6 7 8 9 10 11 12 13 14 15 16 19 20 21 23 22 24 25 26 27 28 29 30 31 32 33 35 34 36 37 38 41 43 42 44 45 48 46]</text>
</g>
<!-- T5579&#45;&gt;T5571 -->
<g id="edge1" class="edge">
<title>T5579:f0&#45;&gt;T5571:f0</title>
<path fill="none" stroke="#5b00c0" d="M493.5,-81C493.5,-35.5486 527.3045,-17.5634 571.3427,-15.2589"/>
<polygon fill="#5b00c0" stroke="#5b00c0" points="571.5925,-18.7538 581.5,-15 571.414,-11.756 571.5925,-18.7538"/>
<text text-anchor="middle" x="509" y="-51.8" font-family="Times,serif" font-size="14.00" fill="#5b00c0">rw</text>
</g>
<!-- T5571&#45;&gt;T5579 -->
<g id="edge2" class="edge">
<title>T5571:f1&#45;&gt;T5579:f2</title>
<path fill="none" stroke="#5b00c0" d="M1003.5,-30C1003.5,-64.1123 1058.7128,-47.4905 1070.3593,-70.9011"/>
<polygon fill="#5b00c0" stroke="#5b00c0" points="1067.0023,-71.9432 1072.5,-81 1073.8502,-70.4916 1067.0023,-71.9432"/>
<text text-anchor="middle" x="1070" y="-51.8" font-family="Times,serif" font-size="14.00" fill="#5b00c0">rw</text>
</g>
</g>
</svg>
