<?xml version="1.0" encoding="UTF-8" standalone="no"?>
<!DOCTYPE svg PUBLIC "-//W3C//DTD SVG 1.1//EN"
 "http://www.w3.org/Graphics/SVG/1.1/DTD/svg11.dtd">
<!-- Generated by graphviz version 2.40.1 (20161225.0304)
 -->
<!-- Title: a_graph Pages: 1 -->
<svg width="1012pt" height="200pt"
 viewBox="0.00 0.00 1012.00 200.00" xmlns="http://www.w3.org/2000/svg" xmlns:xlink="http://www.w3.org/1999/xlink">
<g id="graph0" class="graph" transform="scale(1 1) rotate(0) translate(4 196)">
<title>a_graph</title>
<polygon fill="#ffffff" stroke="transparent" points="-4,4 -4,-196 1008,-196 1008,4 -4,4"/>
<!-- T18075 -->
<g id="node1" class="node">
<title>T18075</title>
<polygon fill="none" stroke="#0058ad" points="0,-162.5 0,-191.5 1004,-191.5 1004,-162.5 0,-162.5"/>
<text text-anchor="middle" x="502" y="-173.3" font-family="Times,serif" font-size="14.00" fill="#0058ad">r 91 [1 2 3 4 5 6 7 9 8 10 11 12 13 14 15 16 17 18 19 20 21 22 23 25 24 27 28 29 26 30 31 32 33 34 35 37 36 39 41 40 42 43 38 46 47 48 49 44 45 51 52 50 54 55 56 57 53 58 59]</text>
</g>
<!-- T18077 -->
<g id="node2" class="node">
<title>T18077</title>
<polygon fill="none" stroke="#0058ad" points="275,-81.5 275,-110.5 511,-110.5 511,-81.5 275,-81.5"/>
<text text-anchor="middle" x="307" y="-92.3" font-family="Times,serif" font-size="14.00" fill="#0058ad">a 80 100</text>
<polyline fill="none" stroke="#0058ad" points="339,-81.5 339,-110.5 "/>
<text text-anchor="middle" x="367.5" y="-92.3" font-family="Times,serif" font-size="14.00" fill="#0058ad">a 91 62</text>
<polyline fill="none" stroke="#0058ad" points="396,-81.5 396,-110.5 "/>
<text text-anchor="middle" x="424.5" y="-92.3" font-family="Times,serif" font-size="14.00" fill="#0058ad">a 91 63</text>
<polyline fill="none" stroke="#0058ad" points="453,-81.5 453,-110.5 "/>
<text text-anchor="middle" x="482" y="-92.3" font-family="Times,serif" font-size="14.00" fill="#0058ad">r 92 [1]</text>
</g>
<!-- T18075&#45;&gt;T18077 -->
<g id="edge1" class="edge">
<title>T18075:f0&#45;&gt;T18077:f1</title>
<path fill="none" stroke="#5b00c0" d="M412.7048,-162.4075C391.0318,-154.1706 372.7169,-141.2861 368.114,-121.1326"/>
<polygon fill="#5b00c0" stroke="#5b00c0" points="371.572,-120.5576 367,-111 364.6139,-121.3226 371.572,-120.5576"/>
<text text-anchor="middle" x="389.5" y="-132.8" font-family="Times,serif" font-size="14.00" fill="#5b00c0">rw</text>
</g>
<!-- T18073 -->
<g id="node3" class="node">
<title>T18073</title>
<polygon fill="none" stroke="#0058ad" points="496,-.5 496,-29.5 550,-29.5 550,-.5 496,-.5"/>
<text text-anchor="middle" x="523" y="-11.3" font-family="Times,serif" font-size="14.00" fill="#0058ad">a 92 3</text>
</g>
<!-- T18077&#45;&gt;T18073 -->
<g id="edge2" class="edge">
<title>T18077:f3&#45;&gt;T18073:f0</title>
<path fill="none" stroke="#5b00c0" d="M482,-81C482,-64.7792 491.0464,-49.2346 500.6405,-37.31"/>
<polygon fill="#5b00c0" stroke="#5b00c0" points="503.359,-39.5173 507.2656,-29.669 498.0702,-34.9316 503.359,-39.5173"/>
<text text-anchor="middle" x="499.5" y="-51.8" font-family="Times,serif" font-size="14.00" fill="#5b00c0">rw</text>
</g>
<!-- T18073&#45;&gt;T18075 -->
<g id="edge3" class="edge">
<title>T18073&#45;&gt;T18075</title>
<path fill="none" stroke="#0050c0" d="M523.6066,-29.7337C524.1422,-48.6595 524.2751,-82.4711 520,-111 517.8961,-125.0398 513.8327,-140.3575 510.0983,-152.699"/>
<polygon fill="#0050c0" stroke="#0050c0" points="506.7488,-151.6831 507.089,-162.2724 513.4267,-153.7822 506.7488,-151.6831"/>
<text text-anchor="middle" x="527.5" y="-92.3" font-family="Times,serif" font-size="14.00" fill="#0050c0">rt</text>
</g>
</g>
</svg>
