<?xml version="1.0" encoding="UTF-8" standalone="no"?>
<!DOCTYPE svg PUBLIC "-//W3C//DTD SVG 1.1//EN"
 "http://www.w3.org/Graphics/SVG/1.1/DTD/svg11.dtd">
<!-- Generated by graphviz version 2.40.1 (20161225.0304)
 -->
<!-- Title: a_graph Pages: 1 -->
<svg width="429pt" height="119pt"
 viewBox="0.00 0.00 429.00 119.00" xmlns="http://www.w3.org/2000/svg" xmlns:xlink="http://www.w3.org/1999/xlink">
<g id="graph0" class="graph" transform="scale(1 1) rotate(0) translate(4 115)">
<title>a_graph</title>
<polygon fill="#ffffff" stroke="transparent" points="-4,4 -4,-115 425,-115 425,4 -4,4"/>
<!-- T2563 -->
<g id="node1" class="node">
<title>T2563</title>
<polygon fill="none" stroke="#0058ad" points="0,-81.5 0,-110.5 421,-110.5 421,-81.5 0,-81.5"/>
<text text-anchor="middle" x="29" y="-92.3" font-family="Times,serif" font-size="14.00" fill="#0058ad">r 18 [1]</text>
<polyline fill="none" stroke="#0058ad" points="58,-81.5 58,-110.5 "/>
<text text-anchor="middle" x="86.5" y="-92.3" font-family="Times,serif" font-size="14.00" fill="#0058ad">a 19 14</text>
<polyline fill="none" stroke="#0058ad" points="115,-81.5 115,-110.5 "/>
<text text-anchor="middle" x="268" y="-92.3" font-family="Times,serif" font-size="14.00" fill="#0058ad">r 14 [50 51 52 55 56 57 58 59 60 61 62 63 64 66 69]</text>
</g>
<!-- T2564 -->
<g id="node2" class="node">
<title>T2564</title>
<polygon fill="none" stroke="#0058ad" points="91,-.5 91,-29.5 374,-29.5 374,-.5 91,-.5"/>
<text text-anchor="middle" x="147.5" y="-11.3" font-family="Times,serif" font-size="14.00" fill="#0058ad">r 19 [3 4 5 11 12]</text>
<polyline fill="none" stroke="#0058ad" points="204,-.5 204,-29.5 "/>
<text text-anchor="middle" x="232.5" y="-11.3" font-family="Times,serif" font-size="14.00" fill="#0058ad">a 14 70</text>
<polyline fill="none" stroke="#0058ad" points="261,-.5 261,-29.5 "/>
<text text-anchor="middle" x="317.5" y="-11.3" font-family="Times,serif" font-size="14.00" fill="#0058ad">r 19 [3 4 5 11 12]</text>
</g>
<!-- T2563&#45;&gt;T2564 -->
<g id="edge1" class="edge">
<title>T2563:f2&#45;&gt;T2564:f1</title>
<path fill="none" stroke="#5b00c0" d="M268.5,-81C268.5,-57.1568 241.9131,-57.1196 234.4355,-39.9718"/>
<polygon fill="#5b00c0" stroke="#5b00c0" points="237.8414,-39.1499 232.5,-30 230.9696,-40.4837 237.8414,-39.1499"/>
<text text-anchor="middle" x="268" y="-51.8" font-family="Times,serif" font-size="14.00" fill="#5b00c0">rw</text>
</g>
<!-- T2564&#45;&gt;T2563 -->
<g id="edge2" class="edge">
<title>T2564:f0&#45;&gt;T2563:f1</title>
<path fill="none" stroke="#5b00c0" d="M90.5,-15C64.4419,-15 81.4511,-43.7876 85.6392,-70.7985"/>
<polygon fill="#5b00c0" stroke="#5b00c0" points="82.1715,-71.3297 86.5,-81 89.1467,-70.7411 82.1715,-71.3297"/>
<text text-anchor="middle" x="92" y="-51.8" font-family="Times,serif" font-size="14.00" fill="#5b00c0">rw</text>
</g>
</g>
</svg>
