<?xml version="1.0" encoding="UTF-8" standalone="no"?>
<!DOCTYPE svg PUBLIC "-//W3C//DTD SVG 1.1//EN"
 "http://www.w3.org/Graphics/SVG/1.1/DTD/svg11.dtd">
<!-- Generated by graphviz version 2.40.1 (20161225.0304)
 -->
<!-- Title: a_graph Pages: 1 -->
<svg width="2729pt" height="119pt"
 viewBox="0.00 0.00 2729.00 119.00" xmlns="http://www.w3.org/2000/svg" xmlns:xlink="http://www.w3.org/1999/xlink">
<g id="graph0" class="graph" transform="scale(1 1) rotate(0) translate(4 115)">
<title>a_graph</title>
<polygon fill="#ffffff" stroke="transparent" points="-4,4 -4,-115 2725,-115 2725,4 -4,4"/>
<!-- T6345 -->
<g id="node1" class="node">
<title>T6345</title>
<polygon fill="none" stroke="#0058ad" points="0,-81.5 0,-110.5 2721,-110.5 2721,-81.5 0,-81.5"/>
<text text-anchor="middle" x="666" y="-92.3" font-family="Times,serif" font-size="14.00" fill="#0058ad">r 36 [1 2 3 6 7 8 4 9 5 10 11 12 13 16 17 18 19 20 21 22 23 24 25 28 29 30 34 31 32 35 36 37 38 40 33 41 42 39 43 45 46 47 48 49 50 52 53 54 44 55 56 57 58 51 60 61 62 59 63 64 65 69 70 66 67 68 71 72 73 74 75 76 79 80 81 82 83 84]</text>
<polyline fill="none" stroke="#0058ad" points="1332,-81.5 1332,-110.5 "/>
<text text-anchor="middle" x="1360.5" y="-92.3" font-family="Times,serif" font-size="14.00" fill="#0058ad">a 35 47</text>
<polyline fill="none" stroke="#0058ad" points="1389,-81.5 1389,-110.5 "/>
<text text-anchor="middle" x="2055" y="-92.3" font-family="Times,serif" font-size="14.00" fill="#0058ad">r 36 [1 2 3 6 7 8 4 9 5 10 11 12 13 16 17 18 19 20 21 22 23 24 25 28 29 30 34 31 32 35 36 37 38 40 33 41 42 39 43 45 46 47 48 49 50 52 53 54 44 55 56 57 58 51 60 61 62 59 63 64 65 69 70 66 67 68 71 72 73 74 75 76 79 80 81 82 83 84]</text>
</g>
<!-- T6347 -->
<g id="node2" class="node">
<title>T6347</title>
<polygon fill="none" stroke="#0058ad" points="609.5,-.5 609.5,-29.5 1749.5,-29.5 1749.5,-.5 609.5,-.5"/>
<text text-anchor="middle" x="638" y="-11.3" font-family="Times,serif" font-size="14.00" fill="#0058ad">a 36 85</text>
<polyline fill="none" stroke="#0058ad" points="666.5,-.5 666.5,-29.5 "/>
<text text-anchor="middle" x="695" y="-11.3" font-family="Times,serif" font-size="14.00" fill="#0058ad">a 36 86</text>
<polyline fill="none" stroke="#0058ad" points="723.5,-.5 723.5,-29.5 "/>
<text text-anchor="middle" x="863.5" y="-11.3" font-family="Times,serif" font-size="14.00" fill="#0058ad">r 34 [1 2 3 5 4 6 7 8 9 10 11 12 13 14 15 16 17]</text>
<polyline fill="none" stroke="#0058ad" points="1003.5,-.5 1003.5,-29.5 "/>
<text text-anchor="middle" x="1376.5" y="-11.3" font-family="Times,serif" font-size="14.00" fill="#0058ad">r 35 [1 2 4 5 3 6 7 8 9 10 11 12 13 14 15 16 17 18 19 20 21 22 24 23 27 26 29 30 28 32 31 34 33 35 36 37 38 39 40 41 43 44 45 46]</text>
</g>
<!-- T6345&#45;&gt;T6347 -->
<g id="edge1" class="edge">
<title>T6345:f0&#45;&gt;T6347:f0</title>
<path fill="none" stroke="#5b00c0" d="M665.5,-81C665.5,-58.9802 645.1956,-56.231 639.1677,-39.9322"/>
<polygon fill="#5b00c0" stroke="#5b00c0" points="642.6076,-39.2824 637.5,-30 635.7043,-40.4415 642.6076,-39.2824"/>
<text text-anchor="middle" x="667" y="-51.8" font-family="Times,serif" font-size="14.00" fill="#5b00c0">rw</text>
</g>
<!-- T6347&#45;&gt;T6345 -->
<g id="edge2" class="edge">
<title>T6347:f3&#45;&gt;T6345:f1</title>
<path fill="none" stroke="#5b00c0" d="M1376.5,-30C1376.5,-49.8585 1365.3193,-55.554 1361.6507,-70.7652"/>
<polygon fill="#5b00c0" stroke="#5b00c0" points="1358.1392,-70.6715 1360.5,-81 1365.0954,-71.4537 1358.1392,-70.6715"/>
<text text-anchor="middle" x="1379" y="-51.8" font-family="Times,serif" font-size="14.00" fill="#5b00c0">rw</text>
</g>
</g>
</svg>
