<?xml version="1.0" encoding="UTF-8" standalone="no"?>
<!DOCTYPE svg PUBLIC "-//W3C//DTD SVG 1.1//EN"
 "http://www.w3.org/Graphics/SVG/1.1/DTD/svg11.dtd">
<!-- Generated by graphviz version 2.40.1 (20161225.0304)
 -->
<!-- Title: a_graph Pages: 1 -->
<svg width="4585pt" height="443pt"
 viewBox="0.00 0.00 4585.00 443.00" xmlns="http://www.w3.org/2000/svg" xmlns:xlink="http://www.w3.org/1999/xlink">
<g id="graph0" class="graph" transform="scale(1 1) rotate(0) translate(4 439)">
<title>a_graph</title>
<polygon fill="#ffffff" stroke="transparent" points="-4,4 -4,-439 4581,-439 4581,4 -4,4"/>
<!-- T6455 -->
<g id="node1" class="node">
<title>T6455</title>
<polygon fill="none" stroke="#0058ad" points="1083,-405.5 1083,-434.5 2852,-434.5 2852,-405.5 1083,-405.5"/>
<text text-anchor="middle" x="1967.5" y="-416.3" font-family="Times,serif" font-size="14.00" fill="#0058ad">r 36 [1 2 3 6 7 8 4 9 5 10 11 12 13 16 17 18 19 20 21 22 23 24 25 28 29 30 34 31 32 35 36 37 38 40 33 41 42 39 43 45 46 47 48 49 50 52 53 54 44 55 56 57 58 51 60 61 62 59 63 64 65 69 70 66 67 68 71 72 73 74 75 76 79 80 81 82 83 84 85 86 87 88 89 90 91 77 78 92 93 94 95 96 97 98 99 101 100 106 103 104 102]</text>
</g>
<!-- T6461 -->
<g id="node2" class="node">
<title>T6461</title>
<polygon fill="none" stroke="#0058ad" points="1935.5,-324.5 1935.5,-353.5 3937.5,-353.5 3937.5,-324.5 1935.5,-324.5"/>
<text text-anchor="middle" x="1967.5" y="-335.3" font-family="Times,serif" font-size="14.00" fill="#0058ad">a 36 108</text>
<polyline fill="none" stroke="#0058ad" points="1999.5,-324.5 1999.5,-353.5 "/>
<text text-anchor="middle" x="2031.5" y="-335.3" font-family="Times,serif" font-size="14.00" fill="#0058ad">a 36 109</text>
<polyline fill="none" stroke="#0058ad" points="2063.5,-324.5 2063.5,-353.5 "/>
<text text-anchor="middle" x="2972" y="-335.3" font-family="Times,serif" font-size="14.00" fill="#0058ad">r 36 [1 2 3 6 7 8 4 9 5 10 11 12 13 16 17 18 19 20 21 22 23 24 25 28 29 30 34 31 32 35 36 37 38 40 33 41 42 39 43 45 46 47 48 49 50 52 53 54 44 55 56 57 58 51 60 61 62 59 63 64 65 69 70 66 67 68 71 72 73 74 75 76 79 80 81 82 83 84 85 86 87 88 89 90 91 77 78 92 93 94 95 96 97 98 99 101 100 106 103 104 102 108 109]</text>
<polyline fill="none" stroke="#0058ad" points="3880.5,-324.5 3880.5,-353.5 "/>
<text text-anchor="middle" x="3909" y="-335.3" font-family="Times,serif" font-size="14.00" fill="#0058ad">a 35 64</text>
</g>
<!-- T6455&#45;&gt;T6461 -->
<g id="edge1" class="edge">
<title>T6455:f0&#45;&gt;T6461:f0</title>
<path fill="none" stroke="#5b00c0" d="M1967.5,-405.3204C1967.5,-394.4532 1967.5,-379.0147 1967.5,-364.1425"/>
<polygon fill="#5b00c0" stroke="#5b00c0" points="1971.0001,-364 1967.5,-354 1964.0001,-364 1971.0001,-364"/>
<text text-anchor="middle" x="1975" y="-375.8" font-family="Times,serif" font-size="14.00" fill="#5b00c0">rw</text>
</g>
<!-- T6465 -->
<g id="node4" class="node">
<title>T6465</title>
<polygon fill="none" stroke="#0058ad" points="1817,-243.5 1817,-272.5 1938,-272.5 1938,-243.5 1817,-243.5"/>
<text text-anchor="middle" x="1845.5" y="-254.3" font-family="Times,serif" font-size="14.00" fill="#0058ad">a 34 26</text>
<polyline fill="none" stroke="#0058ad" points="1874,-243.5 1874,-272.5 "/>
<text text-anchor="middle" x="1906" y="-254.3" font-family="Times,serif" font-size="14.00" fill="#0058ad">a 36 112</text>
</g>
<!-- T6455&#45;&gt;T6465 -->
<g id="edge2" class="edge">
<title>T6455&#45;&gt;T6465</title>
<path fill="none" stroke="#0050c0" d="M1954.6239,-405.2972C1943.7674,-392.4011 1928.3149,-372.8205 1917.5,-354 1904.094,-330.6705 1892.7412,-301.971 1885.594,-282.0592"/>
<polygon fill="#0050c0" stroke="#0050c0" points="1888.8622,-280.8018 1882.2513,-272.5225 1882.2562,-283.1174 1888.8622,-280.8018"/>
<text text-anchor="middle" x="1922" y="-335.3" font-family="Times,serif" font-size="14.00" fill="#0050c0">rt</text>
</g>
<!-- T6461&#45;&gt;T6465 -->
<g id="edge4" class="edge">
<title>T6461:f1&#45;&gt;T6465:f1</title>
<path fill="none" stroke="#c02700" d="M2031.5,-324C2031.5,-301.6393 1951.6597,-317.5285 1932.5,-306 1919.8758,-298.4039 1910.986,-293.8745 1907.7974,-283.1283"/>
<polygon fill="#c02700" stroke="#c02700" points="1911.2423,-282.4742 1906.5,-273 1904.299,-283.3637 1911.2423,-282.4742"/>
<text text-anchor="middle" x="1942.5" y="-294.8" font-family="Times,serif" font-size="14.00" fill="#c02700">ww</text>
</g>
<!-- T6469 -->
<g id="node6" class="node">
<title>T6469</title>
<polygon fill="none" stroke="#0058ad" points="1956.5,-162.5 1956.5,-191.5 3900.5,-191.5 3900.5,-162.5 1956.5,-162.5"/>
<text text-anchor="middle" x="2928.5" y="-173.3" font-family="Times,serif" font-size="14.00" fill="#0058ad">r 30 [1 2 3 4 5 6 7 8 9 10 11 12 13 14 15 16 19 20 21 23 22 24 25 26 27 28 29 30 31 32 33 35 34 36 37 38 41 43 42 44 45 48 46 47 49 50 51 52 53 54 55 56 57 58 59 60 62 63 64 61 66 65 67 68 69 72 70 73 74 75 76 77 78 79 80 81 83 82 84 85 86 87 89 88 90 91 92 93 94 95 96 97 98 99 100 101 102 103 104 105 106 108 109 110 111 112 113 114]</text>
</g>
<!-- T6461&#45;&gt;T6469 -->
<g id="edge3" class="edge">
<title>T6461&#45;&gt;T6469</title>
<path fill="none" stroke="#0050c0" d="M2935.7759,-324.3379C2934.4016,-296.5069 2931.4016,-235.7584 2929.7146,-201.5948"/>
<polygon fill="#0050c0" stroke="#0050c0" points="2933.2057,-201.3275 2929.2167,-191.5123 2926.2142,-201.6728 2933.2057,-201.3275"/>
<text text-anchor="middle" x="2937" y="-254.3" font-family="Times,serif" font-size="14.00" fill="#0050c0">rt</text>
</g>
<!-- T6453 -->
<g id="node3" class="node">
<title>T6453</title>
<polygon fill="none" stroke="#0058ad" points="3598.5,-81.5 3598.5,-110.5 3726.5,-110.5 3726.5,-81.5 3598.5,-81.5"/>
<text text-anchor="middle" x="3630.5" y="-92.3" font-family="Times,serif" font-size="14.00" fill="#0058ad">a 30 115</text>
<polyline fill="none" stroke="#0058ad" points="3662.5,-81.5 3662.5,-110.5 "/>
<text text-anchor="middle" x="3694.5" y="-92.3" font-family="Times,serif" font-size="14.00" fill="#0058ad">a 36 102</text>
</g>
<!-- T6453&#45;&gt;T6455 -->
<g id="edge5" class="edge">
<title>T6453:f1&#45;&gt;T6455:f0</title>
<path fill="none" stroke="#c000a5" d="M3726.5,-96C3775.057,-96 3903.2468,-100.4174 3942.5,-129 3961.7813,-143.0399 3966.5,-153.1486 3966.5,-177 3966.5,-339 3966.5,-339 3966.5,-339 3966.5,-350.1111 3956.9809,-350.3111 3946.5,-354 3887.621,-374.723 3258.3904,-393.1785 2725.0231,-405.2675"/>
<polygon fill="#c000a5" stroke="#c000a5" points="2724.7315,-401.7732 2714.8132,-405.4985 2724.8898,-408.7714 2724.7315,-401.7732"/>
<text text-anchor="middle" x="3974" y="-254.3" font-family="Times,serif" font-size="14.00" fill="#c000a5">wr</text>
</g>
<!-- T6453&#45;&gt;T6461 -->
<g id="edge7" class="edge">
<title>T6453:f1&#45;&gt;T6461:f0</title>
<path fill="none" stroke="#c02700" d="M3726.5,-96C3938.1061,-96 3961.913,-135.9035 3909.5,-192 3837.8361,-268.7003 2075.4232,-218.9786 1972.2183,-314.9087"/>
<polygon fill="#c02700" stroke="#c02700" points="1969,-313.5119 1967.5,-324 1975.2131,-316.7364 1969,-313.5119"/>
<text text-anchor="middle" x="3855.5" y="-213.8" font-family="Times,serif" font-size="14.00" fill="#c02700">ww</text>
</g>
<!-- T6457 -->
<g id="node5" class="node">
<title>T6457</title>
<polygon fill="none" stroke="#0058ad" points="0,-.5 0,-29.5 4577,-29.5 4577,-.5 0,-.5"/>
<text text-anchor="middle" x="519.5" y="-11.3" font-family="Times,serif" font-size="14.00" fill="#0058ad">r 35 [1 2 4 5 3 6 7 8 9 10 11 12 13 14 15 16 17 18 19 20 21 22 24 23 27 26 29 30 28 32 31 34 33 35 36 37 38 39 40 41 43 44 45 46 47 49 50 51 52 53 42 55 56 57 58 59 60 61 62 63 65]</text>
<polyline fill="none" stroke="#0058ad" points="1039,-.5 1039,-29.5 "/>
<text text-anchor="middle" x="1923.5" y="-11.3" font-family="Times,serif" font-size="14.00" fill="#0058ad">r 36 [1 2 3 6 7 8 4 9 5 10 11 12 13 16 17 18 19 20 21 22 23 24 25 28 29 30 34 31 32 35 36 37 38 40 33 41 42 39 43 45 46 47 48 49 50 52 53 54 44 55 56 57 58 51 60 61 62 59 63 64 65 69 70 66 67 68 71 72 73 74 75 76 79 80 81 82 83 84 85 86 87 88 89 90 91 77 78 92 93 94 95 96 97 98 99 101 100 106 103 104 102]</text>
<polyline fill="none" stroke="#0058ad" points="2808,-.5 2808,-29.5 "/>
<text text-anchor="middle" x="3692.5" y="-11.3" font-family="Times,serif" font-size="14.00" fill="#0058ad">r 36 [1 2 3 6 7 8 4 9 5 10 11 12 13 16 17 18 19 20 21 22 23 24 25 28 29 30 34 31 32 35 36 37 38 40 33 41 42 39 43 45 46 47 48 49 50 52 53 54 44 55 56 57 58 51 60 61 62 59 63 64 65 69 70 66 67 68 71 72 73 74 75 76 79 80 81 82 83 84 85 86 87 88 89 90 91 77 78 92 93 94 95 96 97 98 99 101 100 106 103 104 102]</text>
</g>
<!-- T6453&#45;&gt;T6457 -->
<g id="edge6" class="edge">
<title>T6453:f1&#45;&gt;T6457:f1</title>
<path fill="none" stroke="#c000a5" d="M3694.5,-81C3694.5,-33.8037 2065.798,-75.4867 1932.1936,-35.5813"/>
<polygon fill="#c000a5" stroke="#c000a5" points="1933.8059,-32.4573 1923.5,-30 1930.0242,-38.3478 1933.8059,-32.4573"/>
<text text-anchor="middle" x="3550" y="-51.8" font-family="Times,serif" font-size="14.00" fill="#c000a5">wr</text>
</g>
<!-- T6465&#45;&gt;T6469 -->
<g id="edge8" class="edge">
<title>T6465&#45;&gt;T6469</title>
<path fill="none" stroke="#0050c0" d="M1938.1646,-253.3246C2089.1807,-241.6859 2487.2666,-211.0056 2730.2603,-192.2782"/>
<polygon fill="#0050c0" stroke="#0050c0" points="2730.573,-195.7646 2740.2745,-191.5064 2730.0351,-188.7853 2730.573,-195.7646"/>
<text text-anchor="middle" x="2501" y="-213.8" font-family="Times,serif" font-size="14.00" fill="#0050c0">rt</text>
</g>
<!-- T6457&#45;&gt;T6461 -->
<g id="edge9" class="edge">
<title>T6457:f1&#45;&gt;T6461:f0</title>
<path fill="none" stroke="#5b00c0" d="M1923.5,-30C1923.5,-102.111 1909.6965,-123.5895 1932.5,-192 1935.5405,-201.1214 1940.8131,-201.1202 1944.5,-210 1962.9653,-254.4732 1966.9875,-270.1647 1967.4511,-313.8978"/>
<polygon fill="#5b00c0" stroke="#5b00c0" points="1963.9516,-314.0171 1967.5,-324 1970.9515,-313.9831 1963.9516,-314.0171"/>
<text text-anchor="middle" x="1940" y="-173.3" font-family="Times,serif" font-size="14.00" fill="#5b00c0">rw</text>
</g>
<!-- T6457&#45;&gt;T6465 -->
<g id="edge10" class="edge">
<title>T6457&#45;&gt;T6465</title>
<path fill="none" stroke="#0050c0" d="M2160.9824,-29.5298C2123.4665,-34.8505 2087.8409,-41.2374 2070.5,-48 1986.0894,-80.9186 1953.4896,-87.7985 1901.5,-162 1886.7095,-183.1096 1881.0121,-212.45 1878.8296,-233.1227"/>
<polygon fill="#0050c0" stroke="#0050c0" points="1875.3215,-233.07 1877.961,-243.3308 1882.2963,-233.6635 1875.3215,-233.07"/>
<text text-anchor="middle" x="1932" y="-132.8" font-family="Times,serif" font-size="14.00" fill="#0050c0">rt</text>
</g>
<!-- T6469&#45;&gt;T6453 -->
<g id="edge11" class="edge">
<title>T6469:f0&#45;&gt;T6453:f0</title>
<path fill="none" stroke="#5b00c0" d="M3001.0228,-162.4253C3121.66,-139.4692 3371.7207,-97.3422 3588.2167,-96.0313"/>
<polygon fill="#5b00c0" stroke="#5b00c0" points="3588.5107,-99.5305 3598.5,-96 3588.4893,-92.5306 3588.5107,-99.5305"/>
<text text-anchor="middle" x="3206" y="-132.8" font-family="Times,serif" font-size="14.00" fill="#5b00c0">rw</text>
</g>
</g>
</svg>
