<?xml version="1.0" encoding="UTF-8" standalone="no"?>
<!DOCTYPE svg PUBLIC "-//W3C//DTD SVG 1.1//EN"
 "http://www.w3.org/Graphics/SVG/1.1/DTD/svg11.dtd">
<!-- Generated by graphviz version 2.40.1 (20161225.0304)
 -->
<!-- Title: a_graph Pages: 1 -->
<svg width="2231pt" height="119pt"
 viewBox="0.00 0.00 2231.00 119.00" xmlns="http://www.w3.org/2000/svg" xmlns:xlink="http://www.w3.org/1999/xlink">
<g id="graph0" class="graph" transform="scale(1 1) rotate(0) translate(4 115)">
<title>a_graph</title>
<polygon fill="#ffffff" stroke="transparent" points="-4,4 -4,-115 2227,-115 2227,4 -4,4"/>
<!-- T14003 -->
<g id="node1" class="node">
<title>T14003</title>
<polygon fill="none" stroke="#0058ad" points="1726.5,-81.5 1726.5,-110.5 2014.5,-110.5 2014.5,-81.5 1726.5,-81.5"/>
<text text-anchor="middle" x="1758.5" y="-92.3" font-family="Times,serif" font-size="14.00" fill="#0058ad">a 71 122</text>
<polyline fill="none" stroke="#0058ad" points="1790.5,-81.5 1790.5,-110.5 "/>
<text text-anchor="middle" x="1902.5" y="-92.3" font-family="Times,serif" font-size="14.00" fill="#0058ad">r 73 [2 3 5 4 7 9 8 11 12 14 15 16 17]</text>
</g>
<!-- T14001 -->
<g id="node2" class="node">
<title>T14001</title>
<polygon fill="none" stroke="#0058ad" points="0,-.5 0,-29.5 2223,-29.5 2223,-.5 0,-.5"/>
<text text-anchor="middle" x="1054.5" y="-11.3" font-family="Times,serif" font-size="14.00" fill="#0058ad">r 71 [1 2 3 4 5 6 7 8 9 12 10 11 13 14 15 16 17 18 19 20 21 23 22 24 26 25 27 28 29 30 31 32 33 34 35 36 37 38 39 40 41 42 43 44 45 46 47 48 49 50 51 52 53 54 55 59 57 58 60 61 62 56 63 64 65 66 67 69 68 70 72 71 73 74 75 76 77 78 79 80 81 82 83 84 85 86 87 88 89 92 90 91 93 94 96 95 99 97 101 102 103 104 105 106 107 111 108 100 112 113 114 115 116 117 118 119]</text>
<polyline fill="none" stroke="#0058ad" points="2109,-.5 2109,-29.5 "/>
<text text-anchor="middle" x="2137.5" y="-11.3" font-family="Times,serif" font-size="14.00" fill="#0058ad">a 73 18</text>
<polyline fill="none" stroke="#0058ad" points="2166,-.5 2166,-29.5 "/>
<text text-anchor="middle" x="2194.5" y="-11.3" font-family="Times,serif" font-size="14.00" fill="#0058ad">a 73 19</text>
</g>
<!-- T14003&#45;&gt;T14001 -->
<g id="edge1" class="edge">
<title>T14003:f1&#45;&gt;T14001:f1</title>
<path fill="none" stroke="#5b00c0" d="M2014.5,-96C2073.0255,-96 2130.5908,-92.4754 2136.9242,-39.9927"/>
<polygon fill="#5b00c0" stroke="#5b00c0" points="2140.4188,-40.1848 2137.5,-30 2133.4304,-39.7821 2140.4188,-40.1848"/>
<text text-anchor="middle" x="2142" y="-51.8" font-family="Times,serif" font-size="14.00" fill="#5b00c0">rw</text>
</g>
<!-- T14001&#45;&gt;T14003 -->
<g id="edge2" class="edge">
<title>T14001:f0&#45;&gt;T14003:f0</title>
<path fill="none" stroke="#5b00c0" d="M1054.5,-30C1054.5,-65.608 1626.1831,-93.0835 1716.3281,-95.7822"/>
<polygon fill="#5b00c0" stroke="#5b00c0" points="1716.4273,-99.285 1726.5,-96 1716.5773,-92.2866 1716.4273,-99.285"/>
<text text-anchor="middle" x="1216" y="-51.8" font-family="Times,serif" font-size="14.00" fill="#5b00c0">rw</text>
</g>
</g>
</svg>
