<?xml version="1.0" encoding="UTF-8" standalone="no"?>
<!DOCTYPE svg PUBLIC "-//W3C//DTD SVG 1.1//EN"
 "http://www.w3.org/Graphics/SVG/1.1/DTD/svg11.dtd">
<!-- Generated by graphviz version 2.40.1 (20161225.0304)
 -->
<!-- Title: a_graph Pages: 1 -->
<svg width="3248pt" height="281pt"
 viewBox="0.00 0.00 3248.15 281.00" xmlns="http://www.w3.org/2000/svg" xmlns:xlink="http://www.w3.org/1999/xlink">
<g id="graph0" class="graph" transform="scale(1 1) rotate(0) translate(4 277)">
<title>a_graph</title>
<polygon fill="#ffffff" stroke="transparent" points="-4,4 -4,-277 3244.153,-277 3244.153,4 -4,4"/>
<!-- T12927 -->
<g id="node1" class="node">
<title>T12927</title>
<polygon fill="none" stroke="#0058ad" points="2303,-243.5 2303,-272.5 2583,-272.5 2583,-243.5 2303,-243.5"/>
<text text-anchor="middle" x="2443" y="-254.3" font-family="Times,serif" font-size="14.00" fill="#0058ad">r 67 [2 1 3 4 5 6 7 8 9 10 11 12 13 14 15 20 21]</text>
</g>
<!-- T12935 -->
<g id="node4" class="node">
<title>T12935</title>
<polygon fill="none" stroke="#0058ad" points="0,-162.5 0,-191.5 3220,-191.5 3220,-162.5 0,-162.5"/>
<text text-anchor="middle" x="28.5" y="-173.3" font-family="Times,serif" font-size="14.00" fill="#0058ad">a 67 23</text>
<polyline fill="none" stroke="#0058ad" points="57,-162.5 57,-191.5 "/>
<text text-anchor="middle" x="833.5" y="-173.3" font-family="Times,serif" font-size="14.00" fill="#0058ad">r 62 [1 2 3 4 7 8 9 10 12 13 11 14 15 16 17 18 20 19 21 22 23 26 27 24 25 28 29 30 31 32 33 35 34 36 37 38 39 40 41 42 43 44 45 46 48 50 49 51 52 54 55 56 57 58 59 60 61 62 63 65 64 66 67 68 69 70 71 72 73 74 75 77 78 79 76 80 81 82 83 86 87 88 89 90 91 92 94 93 95 96]</text>
<polyline fill="none" stroke="#0058ad" points="1610,-162.5 1610,-191.5 "/>
<text text-anchor="middle" x="2386.5" y="-173.3" font-family="Times,serif" font-size="14.00" fill="#0058ad">r 62 [1 2 3 4 7 8 9 10 12 13 11 14 15 16 17 18 20 19 21 22 23 26 27 24 25 28 29 30 31 32 33 35 34 36 37 38 39 40 41 42 43 44 45 46 48 50 49 51 52 54 55 56 57 58 59 60 61 62 63 65 64 66 67 68 69 70 71 72 73 74 75 77 78 79 76 80 81 82 83 86 87 88 89 90 91 92 94 93 95 96]</text>
<polyline fill="none" stroke="#0058ad" points="3163,-162.5 3163,-191.5 "/>
<text text-anchor="middle" x="3191.5" y="-173.3" font-family="Times,serif" font-size="14.00" fill="#0058ad">a 67 24</text>
</g>
<!-- T12927&#45;&gt;T12935 -->
<g id="edge1" class="edge">
<title>T12927:f0&#45;&gt;T12935:f0</title>
<path fill="none" stroke="#5b00c0" d="M2310.0099,-243.4773C2307.6556,-243.3092 2305.3174,-243.1499 2303,-243 2242.139,-239.0644 180.8698,-254.0902 36.0121,-198.3763"/>
<polygon fill="#5b00c0" stroke="#5b00c0" points="38.0041,-195.4885 28,-192 33.6451,-200.9657 38.0041,-195.4885"/>
<text text-anchor="middle" x="310.5" y="-213.8" font-family="Times,serif" font-size="14.00" fill="#5b00c0">rw</text>
</g>
<!-- T12921 -->
<g id="node2" class="node">
<title>T12921</title>
<polygon fill="none" stroke="#0058ad" points="653,-.5 653,-29.5 767,-29.5 767,-.5 653,-.5"/>
<text text-anchor="middle" x="681.5" y="-11.3" font-family="Times,serif" font-size="14.00" fill="#0058ad">a 67 20</text>
<polyline fill="none" stroke="#0058ad" points="710,-.5 710,-29.5 "/>
<text text-anchor="middle" x="738.5" y="-11.3" font-family="Times,serif" font-size="14.00" fill="#0058ad">a 67 21</text>
</g>
<!-- T12921&#45;&gt;T12927 -->
<g id="edge2" class="edge">
<title>T12921:f1&#45;&gt;T12927:f0</title>
<path fill="none" stroke="#c000a5" d="M767,-15C904.0214,-15 3135.043,-62.2657 3229,-162 3326.077,-265.0461 2752.5651,-231.1531 2588.087,-242.6575"/>
<polygon fill="#c000a5" stroke="#c000a5" points="2587.5422,-239.19 2577.8561,-243.4829 2588.1052,-246.1673 2587.5422,-239.19"/>
<text text-anchor="middle" x="3187.5" y="-132.8" font-family="Times,serif" font-size="14.00" fill="#c000a5">wr</text>
</g>
<!-- T12921&#45;&gt;T12935 -->
<g id="edge3" class="edge">
<title>T12921:f1&#45;&gt;T12935:f0</title>
<path fill="none" stroke="#c02700" d="M739,-30C739,-32.3368 123.1776,-142.4791 37.7803,-159.7656"/>
<polygon fill="#c02700" stroke="#c02700" points="36.9693,-156.3606 28,-162 38.5284,-163.1848 36.9693,-156.3606"/>
<text text-anchor="middle" x="476" y="-92.3" font-family="Times,serif" font-size="14.00" fill="#c02700">ww</text>
</g>
<!-- T12933 -->
<g id="node3" class="node">
<title>T12933</title>
<polygon fill="none" stroke="#0058ad" points="495,-81.5 495,-110.5 911,-110.5 911,-81.5 495,-81.5"/>
<text text-anchor="middle" x="527" y="-92.3" font-family="Times,serif" font-size="14.00" fill="#0058ad">a 64 112</text>
<polyline fill="none" stroke="#0058ad" points="559,-81.5 559,-110.5 "/>
<text text-anchor="middle" x="681.5" y="-92.3" font-family="Times,serif" font-size="14.00" fill="#0058ad">r 67 [2 1 3 4 5 6 7 8 9 10 11 12 13 14 15]</text>
<polyline fill="none" stroke="#0058ad" points="804,-81.5 804,-110.5 "/>
<text text-anchor="middle" x="832.5" y="-92.3" font-family="Times,serif" font-size="14.00" fill="#0058ad">a 62 97</text>
<polyline fill="none" stroke="#0058ad" points="861,-81.5 861,-110.5 "/>
<text text-anchor="middle" x="886" y="-92.3" font-family="Times,serif" font-size="14.00" fill="#0058ad">a 2 29</text>
</g>
<!-- T12933&#45;&gt;T12921 -->
<g id="edge4" class="edge">
<title>T12933:f1&#45;&gt;T12921:f0</title>
<path fill="none" stroke="#5b00c0" d="M681,-81C681,-62.2292 681,-55.1168 681,-40.3535"/>
<polygon fill="#5b00c0" stroke="#5b00c0" points="684.5001,-40 681,-30 677.5001,-40 684.5001,-40"/>
<text text-anchor="middle" x="688.5" y="-51.8" font-family="Times,serif" font-size="14.00" fill="#5b00c0">rw</text>
</g>
<!-- T12935&#45;&gt;T12933 -->
<g id="edge5" class="edge">
<title>T12935:f1&#45;&gt;T12933:f2</title>
<path fill="none" stroke="#5b00c0" d="M833,-162C833,-143.2292 833,-136.1168 833,-121.3535"/>
<polygon fill="#5b00c0" stroke="#5b00c0" points="836.5001,-121 833,-111 829.5001,-121 836.5001,-121"/>
<text text-anchor="middle" x="840.5" y="-132.8" font-family="Times,serif" font-size="14.00" fill="#5b00c0">rw</text>
</g>
</g>
</svg>
