<?xml version="1.0" encoding="UTF-8" standalone="no"?>
<!DOCTYPE svg PUBLIC "-//W3C//DTD SVG 1.1//EN"
 "http://www.w3.org/Graphics/SVG/1.1/DTD/svg11.dtd">
<!-- Generated by graphviz version 2.40.1 (20161225.0304)
 -->
<!-- Title: a_graph Pages: 1 -->
<svg width="1307pt" height="120pt"
 viewBox="0.00 0.00 1307.00 119.77" xmlns="http://www.w3.org/2000/svg" xmlns:xlink="http://www.w3.org/1999/xlink">
<g id="graph0" class="graph" transform="scale(1 1) rotate(0) translate(4 115.7705)">
<title>a_graph</title>
<polygon fill="#ffffff" stroke="transparent" points="-4,4 -4,-115.7705 1303,-115.7705 1303,4 -4,4"/>
<!-- T2853 -->
<g id="node1" class="node">
<title>T2853</title>
<polygon fill="none" stroke="#0058ad" points="0,-81.9043 0,-110.9043 1299,-110.9043 1299,-81.9043 0,-81.9043"/>
<text text-anchor="middle" x="299.5" y="-92.7043" font-family="Times,serif" font-size="14.00" fill="#0058ad">r 14 [50 51 52 55 56 57 58 59 60 61 62 63 64 66 69 70 72 71 73 74 75 76 77 78 79 80 82 81 83 84 85 86]</text>
<polyline fill="none" stroke="#0058ad" points="599,-81.9043 599,-110.9043 "/>
<text text-anchor="middle" x="898.5" y="-92.7043" font-family="Times,serif" font-size="14.00" fill="#0058ad">r 14 [50 51 52 55 56 57 58 59 60 61 62 63 64 66 69 70 72 71 73 74 75 76 77 78 79 80 82 81 83 84 85 86]</text>
<polyline fill="none" stroke="#0058ad" points="1198,-81.9043 1198,-110.9043 "/>
<text text-anchor="middle" x="1223.5" y="-92.7043" font-family="Times,serif" font-size="14.00" fill="#0058ad">r 21 []</text>
<polyline fill="none" stroke="#0058ad" points="1249,-81.9043 1249,-110.9043 "/>
<text text-anchor="middle" x="1274" y="-92.7043" font-family="Times,serif" font-size="14.00" fill="#0058ad">a 21 1</text>
</g>
<!-- T2859 -->
<g id="node2" class="node">
<title>T2859</title>
<polygon fill="none" stroke="#0058ad" points="668,-.9043 668,-29.9043 907,-29.9043 907,-.9043 668,-.9043"/>
<text text-anchor="middle" x="693.5" y="-11.7043" font-family="Times,serif" font-size="14.00" fill="#0058ad">r 21 []</text>
<polyline fill="none" stroke="#0058ad" points="719,-.9043 719,-29.9043 "/>
<text text-anchor="middle" x="784.5" y="-11.7043" font-family="Times,serif" font-size="14.00" fill="#0058ad">r 18 [1 2 3 4 5 6 7 8]</text>
<polyline fill="none" stroke="#0058ad" points="850,-.9043 850,-29.9043 "/>
<text text-anchor="middle" x="878.5" y="-11.7043" font-family="Times,serif" font-size="14.00" fill="#0058ad">a 14 88</text>
</g>
<!-- T2853&#45;&gt;T2859 -->
<g id="edge1" class="edge">
<title>T2853:f0&#45;&gt;T2859:f2</title>
<path fill="none" stroke="#5b00c0" d="M299.5,-81.4043C299.5,173.3935 862.7762,-276.1364 878.1783,-40.5975"/>
<polygon fill="#5b00c0" stroke="#5b00c0" points="881.6827,-40.5097 878.5,-30.4043 874.6862,-40.2889 881.6827,-40.5097"/>
<text text-anchor="middle" x="884" y="-52.2043" font-family="Times,serif" font-size="14.00" fill="#5b00c0">rw</text>
</g>
<!-- T2859&#45;&gt;T2853 -->
<g id="edge2" class="edge">
<title>T2859:f0&#45;&gt;T2853:f3</title>
<path fill="none" stroke="#5b00c0" d="M693.5,-30.4043C693.5,-31.3377 1187.2649,-73.0321 1264.4157,-80.3345"/>
<polygon fill="#5b00c0" stroke="#5b00c0" points="1264.1865,-83.8297 1274.5,-81.4043 1264.9251,-76.8688 1264.1865,-83.8297"/>
<text text-anchor="middle" x="1077" y="-52.2043" font-family="Times,serif" font-size="14.00" fill="#5b00c0">rw</text>
</g>
</g>
</svg>
