<?xml version="1.0" encoding="UTF-8" standalone="no"?>
<!DOCTYPE svg PUBLIC "-//W3C//DTD SVG 1.1//EN"
 "http://www.w3.org/Graphics/SVG/1.1/DTD/svg11.dtd">
<!-- Generated by graphviz version 2.40.1 (20161225.0304)
 -->
<!-- Title: a_graph Pages: 1 -->
<svg width="3716pt" height="119pt"
 viewBox="0.00 0.00 3716.00 119.00" xmlns="http://www.w3.org/2000/svg" xmlns:xlink="http://www.w3.org/1999/xlink">
<g id="graph0" class="graph" transform="scale(1 1) rotate(0) translate(4 115)">
<title>a_graph</title>
<polygon fill="#ffffff" stroke="transparent" points="-4,4 -4,-115 3712,-115 3712,4 -4,4"/>
<!-- T2737 -->
<g id="node1" class="node">
<title>T2737</title>
<polygon fill="none" stroke="#0058ad" points="0,-81.5 0,-110.5 3708,-110.5 3708,-81.5 0,-81.5"/>
<text text-anchor="middle" x="608.5" y="-92.3" font-family="Times,serif" font-size="14.00" fill="#0058ad">r 19 [3 4 5 11 12 14 16 17 18 15 19 20 21 22 23 24 25 28 26 27 30 29 32 33 34 35 31 38 39 40 41 42 43 36 37 44 45 47 48 49 50 51 52 53 46 54 55 56 57 58 60 59 61 62 63 64 65 66 67 68 69 74 72 73 75 76 70 71 77]</text>
<polyline fill="none" stroke="#0058ad" points="1217,-81.5 1217,-110.5 "/>
<text text-anchor="middle" x="1825.5" y="-92.3" font-family="Times,serif" font-size="14.00" fill="#0058ad">r 19 [3 4 5 11 12 14 16 17 18 15 19 20 21 22 23 24 25 28 26 27 30 29 32 33 34 35 31 38 39 40 41 42 43 36 37 44 45 47 48 49 50 51 52 53 46 54 55 56 57 58 60 59 61 62 63 64 65 66 67 68 69 74 72 73 75 76 70 71 77]</text>
<polyline fill="none" stroke="#0058ad" points="2434,-81.5 2434,-110.5 "/>
<text text-anchor="middle" x="2462.5" y="-92.3" font-family="Times,serif" font-size="14.00" fill="#0058ad">a 20 16</text>
<polyline fill="none" stroke="#0058ad" points="2491,-81.5 2491,-110.5 "/>
<text text-anchor="middle" x="3099.5" y="-92.3" font-family="Times,serif" font-size="14.00" fill="#0058ad">r 19 [3 4 5 11 12 14 16 17 18 15 19 20 21 22 23 24 25 28 26 27 30 29 32 33 34 35 31 38 39 40 41 42 43 36 37 44 45 47 48 49 50 51 52 53 46 54 55 56 57 58 60 59 61 62 63 64 65 66 67 68 69 74 72 73 75 76 70 71 77]</text>
</g>
<!-- T2739 -->
<g id="node2" class="node">
<title>T2739</title>
<polygon fill="none" stroke="#0058ad" points="1337.5,-.5 1337.5,-29.5 1792.5,-29.5 1792.5,-.5 1337.5,-.5"/>
<text text-anchor="middle" x="1460" y="-11.3" font-family="Times,serif" font-size="14.00" fill="#0058ad">r 20 [1 2 3 4 5 6 8 9 10 7 12 13 14 11 15]</text>
<polyline fill="none" stroke="#0058ad" points="1582.5,-.5 1582.5,-29.5 "/>
<text text-anchor="middle" x="1611" y="-11.3" font-family="Times,serif" font-size="14.00" fill="#0058ad">a 19 78</text>
<polyline fill="none" stroke="#0058ad" points="1639.5,-.5 1639.5,-29.5 "/>
<text text-anchor="middle" x="1687.5" y="-11.3" font-family="Times,serif" font-size="14.00" fill="#0058ad">r 3 [1 2 11 13]</text>
<polyline fill="none" stroke="#0058ad" points="1735.5,-.5 1735.5,-29.5 "/>
<text text-anchor="middle" x="1764" y="-11.3" font-family="Times,serif" font-size="14.00" fill="#0058ad">a 14 81</text>
</g>
<!-- T2737&#45;&gt;T2739 -->
<g id="edge1" class="edge">
<title>T2737:f0&#45;&gt;T2739:f1</title>
<path fill="none" stroke="#5b00c0" d="M608,-81C608,138.6897 1579.9011,-240.973 1610.273,-40.0131"/>
<polygon fill="#5b00c0" stroke="#5b00c0" points="1613.7666,-40.2272 1611,-30 1606.785,-39.7203 1613.7666,-40.2272"/>
<text text-anchor="middle" x="1614.5" y="-51.8" font-family="Times,serif" font-size="14.00" fill="#5b00c0">rw</text>
</g>
<!-- T2739&#45;&gt;T2737 -->
<g id="edge2" class="edge">
<title>T2739:f0&#45;&gt;T2737:f2</title>
<path fill="none" stroke="#5b00c0" d="M1460,-30C1460,-56.317 2352.5967,-53.5411 2453.7112,-76.5624"/>
<polygon fill="#5b00c0" stroke="#5b00c0" points="2452.468,-79.8474 2463,-81 2455.4855,-73.5312 2452.468,-79.8474"/>
<text text-anchor="middle" x="2253.5" y="-51.8" font-family="Times,serif" font-size="14.00" fill="#5b00c0">rw</text>
</g>
</g>
</svg>
