<?xml version="1.0" encoding="UTF-8" standalone="no"?>
<!DOCTYPE svg PUBLIC "-//W3C//DTD SVG 1.1//EN"
 "http://www.w3.org/Graphics/SVG/1.1/DTD/svg11.dtd">
<!-- Generated by graphviz version 2.40.1 (20161225.0304)
 -->
<!-- Title: a_graph Pages: 1 -->
<svg width="2092pt" height="119pt"
 viewBox="0.00 0.00 2092.00 119.00" xmlns="http://www.w3.org/2000/svg" xmlns:xlink="http://www.w3.org/1999/xlink">
<g id="graph0" class="graph" transform="scale(1 1) rotate(0) translate(4 115)">
<title>a_graph</title>
<polygon fill="#ffffff" stroke="transparent" points="-4,4 -4,-115 2088,-115 2088,4 -4,4"/>
<!-- T4975 -->
<g id="node1" class="node">
<title>T4975</title>
<polygon fill="none" stroke="#0058ad" points="0,-81.5 0,-110.5 2084,-110.5 2084,-81.5 0,-81.5"/>
<text text-anchor="middle" x="143.5" y="-92.3" font-family="Times,serif" font-size="14.00" fill="#0058ad">r 29 [1 2 5 6 7 8 9 3 13 14 15 16 17 18 19 20 21]</text>
<polyline fill="none" stroke="#0058ad" points="287,-81.5 287,-110.5 "/>
<text text-anchor="middle" x="1005" y="-92.3" font-family="Times,serif" font-size="14.00" fill="#0058ad">r 27 [1 2 3 4 5 7 6 8 11 9 10 12 13 14 15 16 17 18 19 20 21 22 24 23 25 27 28 26 29 30 31 32 33 34 35 36 38 37 39 40 42 41 43 45 46 47 48 49 50 51 52 53 55 56 57 54 59 60 61 58 62 63 64 65 66 67 68 69 70 71 72 73 74 75 76 79 80 83 85 86 87 88 89 90]</text>
<polyline fill="none" stroke="#0058ad" points="1723,-81.5 1723,-110.5 "/>
<text text-anchor="middle" x="1751.5" y="-92.3" font-family="Times,serif" font-size="14.00" fill="#0058ad">a 29 22</text>
<polyline fill="none" stroke="#0058ad" points="1780,-81.5 1780,-110.5 "/>
<text text-anchor="middle" x="1932" y="-92.3" font-family="Times,serif" font-size="14.00" fill="#0058ad">r 29 [1 2 5 6 7 8 9 3 13 14 15 16 17 18 19 20 21 22]</text>
</g>
<!-- T4973 -->
<g id="node2" class="node">
<title>T4973</title>
<polygon fill="none" stroke="#0058ad" points="1408,-.5 1408,-29.5 1898,-29.5 1898,-.5 1408,-.5"/>
<text text-anchor="middle" x="1436.5" y="-11.3" font-family="Times,serif" font-size="14.00" fill="#0058ad">a 27 91</text>
<polyline fill="none" stroke="#0058ad" points="1465,-.5 1465,-29.5 "/>
<text text-anchor="middle" x="1608.5" y="-11.3" font-family="Times,serif" font-size="14.00" fill="#0058ad">r 29 [1 2 5 6 7 8 9 3 13 14 15 16 17 18 19 20 21]</text>
<polyline fill="none" stroke="#0058ad" points="1752,-.5 1752,-29.5 "/>
<text text-anchor="middle" x="1780.5" y="-11.3" font-family="Times,serif" font-size="14.00" fill="#0058ad">a 18 95</text>
<polyline fill="none" stroke="#0058ad" points="1809,-.5 1809,-29.5 "/>
<text text-anchor="middle" x="1853.5" y="-11.3" font-family="Times,serif" font-size="14.00" fill="#0058ad">r 30 [1 2 3 4]</text>
</g>
<!-- T4975&#45;&gt;T4973 -->
<g id="edge1" class="edge">
<title>T4975:f1&#45;&gt;T4973:f0</title>
<path fill="none" stroke="#5b00c0" d="M1005,-81C1005,-38.1071 1324.5799,-17.33 1397.8638,-15.1857"/>
<polygon fill="#5b00c0" stroke="#5b00c0" points="1398.0658,-18.6827 1408,-15 1397.9375,-11.6839 1398.0658,-18.6827"/>
<text text-anchor="middle" x="1082.5" y="-51.8" font-family="Times,serif" font-size="14.00" fill="#5b00c0">rw</text>
</g>
<!-- T4973&#45;&gt;T4975 -->
<g id="edge2" class="edge">
<title>T4973:f1&#45;&gt;T4975:f2</title>
<path fill="none" stroke="#5b00c0" d="M1608,-30C1608,-94.0497 1736.1495,-22.22 1750.6664,-70.8771"/>
<polygon fill="#5b00c0" stroke="#5b00c0" points="1747.2238,-71.5428 1752,-81 1754.1638,-70.6285 1747.2238,-71.5428"/>
<text text-anchor="middle" x="1753.5" y="-51.8" font-family="Times,serif" font-size="14.00" fill="#5b00c0">rw</text>
</g>
</g>
</svg>
