<?xml version="1.0" encoding="UTF-8" standalone="no"?>
<!DOCTYPE svg PUBLIC "-//W3C//DTD SVG 1.1//EN"
 "http://www.w3.org/Graphics/SVG/1.1/DTD/svg11.dtd">
<!-- Generated by graphviz version 2.40.1 (20161225.0304)
 -->
<!-- Title: a_graph Pages: 1 -->
<svg width="2255pt" height="119pt"
 viewBox="0.00 0.00 2255.00 119.00" xmlns="http://www.w3.org/2000/svg" xmlns:xlink="http://www.w3.org/1999/xlink">
<g id="graph0" class="graph" transform="scale(1 1) rotate(0) translate(4 115)">
<title>a_graph</title>
<polygon fill="#ffffff" stroke="transparent" points="-4,4 -4,-115 2251,-115 2251,4 -4,4"/>
<!-- T3301 -->
<g id="node1" class="node">
<title>T3301</title>
<polygon fill="none" stroke="#0058ad" points="0,-81.5 0,-110.5 2247,-110.5 2247,-81.5 0,-81.5"/>
<text text-anchor="middle" x="25.5" y="-92.3" font-family="Times,serif" font-size="14.00" fill="#0058ad">r 22 []</text>
<polyline fill="none" stroke="#0058ad" points="51,-81.5 51,-110.5 "/>
<text text-anchor="middle" x="863.5" y="-92.3" font-family="Times,serif" font-size="14.00" fill="#0058ad">r 20 [1 2 3 4 5 6 8 9 10 7 12 13 14 11 15 16 17 18 19 20 21 22 23 24 25 26 27 28 29 31 34 32 33 35 36 37 38 39 41 42 43 44 45 46 47 48 49 50 40 51 54 52 55 53 56 57 58 59 60 62 64 63 66 65 67 68 69 70 72 71 73 74 76 75 77 78 80 79 81 82 83 84 85 87 86 88 89 93 90 91 92 94 95 96 98]</text>
<polyline fill="none" stroke="#0058ad" points="1676,-81.5 1676,-110.5 "/>
<text text-anchor="middle" x="1701" y="-92.3" font-family="Times,serif" font-size="14.00" fill="#0058ad">a 22 1</text>
<polyline fill="none" stroke="#0058ad" points="1726,-81.5 1726,-110.5 "/>
<text text-anchor="middle" x="1986.5" y="-92.3" font-family="Times,serif" font-size="14.00" fill="#0058ad">r 18 [1 2 3 4 5 6 7 8 9 10 11 12 13 16 14 15 17 18 19 21 23 22 24 26 25 28 27 29 30 31 32]</text>
</g>
<!-- T3299 -->
<g id="node2" class="node">
<title>T3299</title>
<polygon fill="none" stroke="#0058ad" points="184.5,-.5 184.5,-29.5 1588.5,-29.5 1588.5,-.5 184.5,-.5"/>
<text text-anchor="middle" x="807" y="-11.3" font-family="Times,serif" font-size="14.00" fill="#0058ad">r 14 [50 51 52 55 56 57 58 59 60 61 62 63 64 66 69 70 72 71 73 74 75 76 77 78 79 80 82 81 83 84 85 86 88 89 90 91 92 93 95 96 97 98 99 101 102 103 107 106 104 105 108 110 109 111 112 113 114 115 116 117 118 119]</text>
<polyline fill="none" stroke="#0058ad" points="1429.5,-.5 1429.5,-29.5 "/>
<text text-anchor="middle" x="1455" y="-11.3" font-family="Times,serif" font-size="14.00" fill="#0058ad">r 22 []</text>
<polyline fill="none" stroke="#0058ad" points="1480.5,-.5 1480.5,-29.5 "/>
<text text-anchor="middle" x="1509" y="-11.3" font-family="Times,serif" font-size="14.00" fill="#0058ad">a 20 99</text>
<polyline fill="none" stroke="#0058ad" points="1537.5,-.5 1537.5,-29.5 "/>
<text text-anchor="middle" x="1563" y="-11.3" font-family="Times,serif" font-size="14.00" fill="#0058ad">r 22 []</text>
</g>
<!-- T3301&#45;&gt;T3299 -->
<g id="edge1" class="edge">
<title>T3301:f1&#45;&gt;T3299:f2</title>
<path fill="none" stroke="#5b00c0" d="M863.5,-81C863.5,-47.3901 1426.5518,-63.4627 1501.3322,-36.4513"/>
<polygon fill="#5b00c0" stroke="#5b00c0" points="1503.8219,-38.9449 1509.5,-30 1499.4832,-33.4516 1503.8219,-38.9449"/>
<text text-anchor="middle" x="1409" y="-51.8" font-family="Times,serif" font-size="14.00" fill="#5b00c0">rw</text>
</g>
<!-- T3299&#45;&gt;T3301 -->
<g id="edge2" class="edge">
<title>T3299:f1&#45;&gt;T3301:f2</title>
<path fill="none" stroke="#5b00c0" d="M1455.5,-30C1455.5,-137.9508 1685.4353,19.5284 1700.7044,-70.7962"/>
<polygon fill="#5b00c0" stroke="#5b00c0" points="1697.2332,-71.3024 1701.5,-81 1704.212,-70.7582 1697.2332,-71.3024"/>
<text text-anchor="middle" x="1704" y="-51.8" font-family="Times,serif" font-size="14.00" fill="#5b00c0">rw</text>
</g>
</g>
</svg>
