<?xml version="1.0" encoding="UTF-8" standalone="no"?>
<!DOCTYPE svg PUBLIC "-//W3C//DTD SVG 1.1//EN"
 "http://www.w3.org/Graphics/SVG/1.1/DTD/svg11.dtd">
<!-- Generated by graphviz version 2.40.1 (20161225.0304)
 -->
<!-- Title: a_graph Pages: 1 -->
<svg width="3362pt" height="362pt"
 viewBox="0.00 0.00 3361.50 362.00" xmlns="http://www.w3.org/2000/svg" xmlns:xlink="http://www.w3.org/1999/xlink">
<g id="graph0" class="graph" transform="scale(1 1) rotate(0) translate(4 358)">
<title>a_graph</title>
<polygon fill="#ffffff" stroke="transparent" points="-4,4 -4,-358 3357.5,-358 3357.5,4 -4,4"/>
<!-- T20087 -->
<g id="node1" class="node">
<title>T20087</title>
<polygon fill="none" stroke="#0058ad" points="0,-324.5 0,-353.5 701,-353.5 701,-324.5 0,-324.5"/>
<text text-anchor="middle" x="350.5" y="-335.3" font-family="Times,serif" font-size="14.00" fill="#0058ad">r 101 [1 2 3 4 6 8 9 5 7 10 11 12 14 13 16 17 18 19 20 21 22 23 24 25 27 26 28 29 30 31 34 35 15 37 38 39 40 41 42 43 44]</text>
</g>
<!-- T20093 -->
<g id="node2" class="node">
<title>T20093</title>
<polygon fill="none" stroke="#0058ad" points="377.5,-243.5 377.5,-272.5 3353.5,-272.5 3353.5,-243.5 377.5,-243.5"/>
<text text-anchor="middle" x="772.5" y="-254.3" font-family="Times,serif" font-size="14.00" fill="#0058ad">r 100 [1 2 4 5 6 7 11 12 13 14 15 16 17 18 19 20 21 22 23 24 26 27 28 29 30 25 31 32 33 35 34 36 37 38 39 40 41 43 44 45 46 48 47 49 42]</text>
<polyline fill="none" stroke="#0058ad" points="1167.5,-243.5 1167.5,-272.5 "/>
<text text-anchor="middle" x="2228.5" y="-254.3" font-family="Times,serif" font-size="14.00" fill="#0058ad">r 94 [1 2 3 4 5 7 6 9 8 10 11 12 15 16 17 18 20 21 22 25 23 26 27 28 29 30 32 31 33 34 35 36 37 38 39 40 41 42 43 47 46 48 49 50 52 51 53 54 55 56 57 61 60 62 63 64 65 66 67 68 69 70 71 72 73 74 75 77 76 78 79 80 81 82 83 84 85 86 87 88 89 92 93 94 95 96 97 98 99 101 102 103 105 106 107 104 108 109 110 111 112 113 114 115 116 117 118 120 119 121 122 123 124 125]</text>
<polyline fill="none" stroke="#0058ad" points="3289.5,-243.5 3289.5,-272.5 "/>
<text text-anchor="middle" x="3321.5" y="-254.3" font-family="Times,serif" font-size="14.00" fill="#0058ad">a 101 33</text>
</g>
<!-- T20087&#45;&gt;T20093 -->
<g id="edge1" class="edge">
<title>T20087:f0&#45;&gt;T20093:f2</title>
<path fill="none" stroke="#5b00c0" d="M684.8789,-324.4999C690.1229,-324.3278 695.3328,-324.161 700.5,-324 735.6126,-322.9061 3142.9192,-310.3406 3312.1396,-276.7554"/>
<polygon fill="#5b00c0" stroke="#5b00c0" points="3313.5223,-279.9719 3321.5,-273 3310.9158,-273.4753 3313.5223,-279.9719"/>
<text text-anchor="middle" x="3059" y="-294.8" font-family="Times,serif" font-size="14.00" fill="#5b00c0">rw</text>
</g>
<!-- T20091 -->
<g id="node4" class="node">
<title>T20091</title>
<polygon fill="none" stroke="#0058ad" points="1074,-81.5 1074,-110.5 1889,-110.5 1889,-81.5 1074,-81.5"/>
<text text-anchor="middle" x="1424.5" y="-92.3" font-family="Times,serif" font-size="14.00" fill="#0058ad">r 101 [1 2 3 4 6 8 9 5 7 10 11 12 14 13 16 17 18 19 20 21 22 23 24 25 27 26 28 29 30 31 34 35 15 37 38 39 40 41 42 43 44]</text>
<polyline fill="none" stroke="#0058ad" points="1775,-81.5 1775,-110.5 "/>
<text text-anchor="middle" x="1800" y="-92.3" font-family="Times,serif" font-size="14.00" fill="#0058ad">a 2 46</text>
<polyline fill="none" stroke="#0058ad" points="1825,-81.5 1825,-110.5 "/>
<text text-anchor="middle" x="1857" y="-92.3" font-family="Times,serif" font-size="14.00" fill="#0058ad">a 94 127</text>
</g>
<!-- T20087&#45;&gt;T20091 -->
<g id="edge2" class="edge">
<title>T20087&#45;&gt;T20091</title>
<path fill="none" stroke="#0050c0" d="M343.6103,-324.3975C335.1465,-304.0785 323.9334,-267.0679 341.5,-243 366.6171,-208.5872 390.0231,-219.7355 431.5,-210 668.0584,-154.4748 941.0647,-125.8873 1149.3973,-111.2274"/>
<polygon fill="#0050c0" stroke="#0050c0" points="1149.8478,-114.7046 1159.5805,-110.5183 1149.3615,-107.7215 1149.8478,-114.7046"/>
<text text-anchor="middle" x="436" y="-213.8" font-family="Times,serif" font-size="14.00" fill="#0050c0">rt</text>
</g>
<!-- T20095 -->
<g id="node3" class="node">
<title>T20095</title>
<polygon fill="none" stroke="#0058ad" points="788,-.5 788,-29.5 2441,-29.5 2441,-.5 788,-.5"/>
<text text-anchor="middle" x="820" y="-11.3" font-family="Times,serif" font-size="14.00" fill="#0058ad">a 100 51</text>
<polyline fill="none" stroke="#0058ad" points="852,-.5 852,-29.5 "/>
<text text-anchor="middle" x="1202.5" y="-11.3" font-family="Times,serif" font-size="14.00" fill="#0058ad">r 101 [1 2 3 4 6 8 9 5 7 10 11 12 14 13 16 17 18 19 20 21 22 23 24 25 27 26 28 29 30 31 34 35 15 37 38 39 40 41 42 43 44]</text>
<polyline fill="none" stroke="#0058ad" points="1553,-.5 1553,-29.5 "/>
<text text-anchor="middle" x="1585" y="-11.3" font-family="Times,serif" font-size="14.00" fill="#0058ad">a 100 52</text>
<polyline fill="none" stroke="#0058ad" points="1617,-.5 1617,-29.5 "/>
<text text-anchor="middle" x="2029" y="-11.3" font-family="Times,serif" font-size="14.00" fill="#0058ad">r 100 [1 2 4 5 6 7 11 12 13 14 15 16 17 18 19 20 21 22 23 24 26 27 28 29 30 25 31 32 33 35 34 36 37 38 39 40 41 43 44 45 46 48 47 49 42 51 52]</text>
</g>
<!-- T20093&#45;&gt;T20095 -->
<g id="edge4" class="edge">
<title>T20093:f0&#45;&gt;T20095:f0</title>
<path fill="none" stroke="#5b00c0" d="M377.5,-258C370.8333,-258 374.1203,-248.7465 377.5,-243 481.4455,-66.2594 575.8138,-16.6391 777.2082,-15.0403"/>
<polygon fill="#5b00c0" stroke="#5b00c0" points="777.5138,-18.5392 787.5,-15 777.4863,-11.5393 777.5138,-18.5392"/>
<text text-anchor="middle" x="465" y="-132.8" font-family="Times,serif" font-size="14.00" fill="#5b00c0">rw</text>
</g>
<!-- T20085 -->
<g id="node5" class="node">
<title>T20085</title>
<polygon fill="none" stroke="#0058ad" points="876,-162.5 876,-191.5 1787,-191.5 1787,-162.5 876,-162.5"/>
<text text-anchor="middle" x="1271" y="-173.3" font-family="Times,serif" font-size="14.00" fill="#0058ad">r 100 [1 2 4 5 6 7 11 12 13 14 15 16 17 18 19 20 21 22 23 24 26 27 28 29 30 25 31 32 33 35 34 36 37 38 39 40 41 43 44 45 46 48 47 49 42]</text>
<polyline fill="none" stroke="#0058ad" points="1666,-162.5 1666,-191.5 "/>
<text text-anchor="middle" x="1698" y="-173.3" font-family="Times,serif" font-size="14.00" fill="#0058ad">a 94 126</text>
<polyline fill="none" stroke="#0058ad" points="1730,-162.5 1730,-191.5 "/>
<text text-anchor="middle" x="1758.5" y="-173.3" font-family="Times,serif" font-size="14.00" fill="#0058ad">a 96 46</text>
</g>
<!-- T20093&#45;&gt;T20085 -->
<g id="edge3" class="edge">
<title>T20093:f1&#45;&gt;T20085:f1</title>
<path fill="none" stroke="#5b00c0" d="M2228.5,-243C2228.5,-226.6361 1950.7821,-226.6343 1934.5,-225 1832.722,-214.7841 1707.3996,-292.3121 1698.9516,-202.2074"/>
<polygon fill="#5b00c0" stroke="#5b00c0" points="1702.4386,-201.8355 1698.5,-192 1695.4455,-202.1449 1702.4386,-201.8355"/>
<text text-anchor="middle" x="1942" y="-213.8" font-family="Times,serif" font-size="14.00" fill="#5b00c0">rw</text>
</g>
<!-- T20095&#45;&gt;T20093 -->
<g id="edge5" class="edge">
<title>T20095:f1&#45;&gt;T20093:f2</title>
<path fill="none" stroke="#5b00c0" d="M1202.5,-30C1202.5,-50.5799 1551.9776,-46.4632 1572.5,-48 1959.0553,-76.9477 3297.6859,144.1345 3321.1866,-232.8307"/>
<polygon fill="#5b00c0" stroke="#5b00c0" points="3317.6936,-233.1126 3321.5,-243 3324.6902,-232.8969 3317.6936,-233.1126"/>
<text text-anchor="middle" x="3290" y="-132.8" font-family="Times,serif" font-size="14.00" fill="#5b00c0">rw</text>
</g>
<!-- T20091&#45;&gt;T20093 -->
<g id="edge6" class="edge">
<title>T20091:f0&#45;&gt;T20093:f2</title>
<path fill="none" stroke="#5b00c0" d="M1424.5,-111C1424.5,-136.02 1850.2957,-122.6634 1874.5,-129 1965.2601,-152.7607 1971.4422,-202.4067 2062.5,-225 2078.5782,-228.9893 3193.9118,-225.8803 3311.4999,-240.4059"/>
<polygon fill="#5b00c0" stroke="#5b00c0" points="3310.9415,-243.8768 3321.5,-243 3312.6993,-237.1011 3310.9415,-243.8768"/>
<text text-anchor="middle" x="1995" y="-173.3" font-family="Times,serif" font-size="14.00" fill="#5b00c0">rw</text>
</g>
<!-- T20091&#45;&gt;T20095 -->
<g id="edge7" class="edge">
<title>T20091&#45;&gt;T20095</title>
<path fill="none" stroke="#0050c0" d="M1505.5853,-81.3315C1526.9588,-68.3146 1558.3651,-49.1874 1581.9674,-34.8131"/>
<polygon fill="#0050c0" stroke="#0050c0" points="1583.8737,-37.7502 1590.5939,-29.5594 1580.2326,-31.7717 1583.8737,-37.7502"/>
<text text-anchor="middle" x="1564" y="-51.8" font-family="Times,serif" font-size="14.00" fill="#0050c0">rt</text>
</g>
<!-- T20085&#45;&gt;T20087 -->
<g id="edge10" class="edge">
<title>T20085&#45;&gt;T20087</title>
<path fill="none" stroke="#0050c0" d="M951.7445,-191.5038C688.5098,-203.3814 381.3876,-221.6673 359.5,-243 340.9564,-261.0734 341.5366,-292.3563 344.9002,-314.2862"/>
<polygon fill="#0050c0" stroke="#0050c0" points="341.4705,-314.9892 346.7033,-324.2015 348.3576,-313.7366 341.4705,-314.9892"/>
<text text-anchor="middle" x="364" y="-254.3" font-family="Times,serif" font-size="14.00" fill="#0050c0">rt</text>
</g>
<!-- T20085&#45;&gt;T20095 -->
<g id="edge8" class="edge">
<title>T20085:f0&#45;&gt;T20095:f0</title>
<path fill="none" stroke="#5b00c0" d="M875.5,-177C809.0002,-177 818.3411,-107.2577 819.4119,-40.2827"/>
<polygon fill="#5b00c0" stroke="#5b00c0" points="822.9141,-40.0297 819.5,-30 815.9143,-39.9696 822.9141,-40.0297"/>
<text text-anchor="middle" x="826" y="-92.3" font-family="Times,serif" font-size="14.00" fill="#5b00c0">rw</text>
</g>
<!-- T20085&#45;&gt;T20091 -->
<g id="edge9" class="edge">
<title>T20085:f1&#45;&gt;T20091:f2</title>
<path fill="none" stroke="#c02700" d="M1698.5,-162C1698.5,-91.5557 1841.7616,-175.7607 1856.3116,-121.023"/>
<polygon fill="#c02700" stroke="#c02700" points="1859.7981,-121.3426 1857.5,-111 1852.8468,-120.5183 1859.7981,-121.3426"/>
<text text-anchor="middle" x="1860.5" y="-132.8" font-family="Times,serif" font-size="14.00" fill="#c02700">ww</text>
</g>
</g>
</svg>
