<?xml version="1.0" encoding="UTF-8" standalone="no"?>
<!DOCTYPE svg PUBLIC "-//W3C//DTD SVG 1.1//EN"
 "http://www.w3.org/Graphics/SVG/1.1/DTD/svg11.dtd">
<!-- Generated by graphviz version 2.40.1 (20161225.0304)
 -->
<!-- Title: a_graph Pages: 1 -->
<svg width="1920pt" height="119pt"
 viewBox="0.00 0.00 1920.00 119.00" xmlns="http://www.w3.org/2000/svg" xmlns:xlink="http://www.w3.org/1999/xlink">
<g id="graph0" class="graph" transform="scale(1 1) rotate(0) translate(4 115)">
<title>a_graph</title>
<polygon fill="#ffffff" stroke="transparent" points="-4,4 -4,-115 1916,-115 1916,4 -4,4"/>
<!-- T5087 -->
<g id="node1" class="node">
<title>T5087</title>
<polygon fill="none" stroke="#0058ad" points="630.5,-81.5 630.5,-110.5 1755.5,-110.5 1755.5,-81.5 630.5,-81.5"/>
<text text-anchor="middle" x="1136" y="-92.3" font-family="Times,serif" font-size="14.00" fill="#0058ad">r 29 [1 2 5 6 7 8 9 3 13 14 15 16 17 18 19 20 21 22 24 25 23 26 27 28 29 31 32 30 35 33 36 37 34 39 38 40 41 42 43 44 46 47 48 49 45 50 53 51 52 54 55 56 57 58 60 61 59 62 63]</text>
<polyline fill="none" stroke="#0058ad" points="1641.5,-81.5 1641.5,-110.5 "/>
<text text-anchor="middle" x="1673.5" y="-92.3" font-family="Times,serif" font-size="14.00" fill="#0058ad">a 27 111</text>
<polyline fill="none" stroke="#0058ad" points="1705.5,-81.5 1705.5,-110.5 "/>
<text text-anchor="middle" x="1730.5" y="-92.3" font-family="Times,serif" font-size="14.00" fill="#0058ad">a 4 45</text>
</g>
<!-- T5085 -->
<g id="node2" class="node">
<title>T5085</title>
<polygon fill="none" stroke="#0058ad" points="0,-.5 0,-29.5 1912,-29.5 1912,-.5 0,-.5"/>
<text text-anchor="middle" x="927.5" y="-11.3" font-family="Times,serif" font-size="14.00" fill="#0058ad">r 27 [1 2 3 4 5 7 6 8 11 9 10 12 13 14 15 16 17 18 19 20 21 22 24 23 25 27 28 26 29 30 31 32 33 34 35 36 38 37 39 40 42 41 43 45 46 47 48 49 50 51 52 53 55 56 57 54 59 60 61 58 62 63 64 65 66 67 68 69 70 71 72 73 74 75 76 79 80 83 85 86 87 88 89 90 91 92 93 94 95 96 97 98 99 100 102 103 104 101 105 106 107 108 109 110]</text>
<polyline fill="none" stroke="#0058ad" points="1855,-.5 1855,-29.5 "/>
<text text-anchor="middle" x="1883.5" y="-11.3" font-family="Times,serif" font-size="14.00" fill="#0058ad">a 29 64</text>
</g>
<!-- T5087&#45;&gt;T5085 -->
<g id="edge1" class="edge">
<title>T5087:f0&#45;&gt;T5085:f1</title>
<path fill="none" stroke="#5b00c0" d="M1136,-81C1136,2.8767 1428.3168,-53.6947 1512,-48 1530.7078,-46.7269 1821.0272,-49.9713 1875.2977,-35.1907"/>
<polygon fill="#5b00c0" stroke="#5b00c0" points="1877.2047,-38.1286 1884,-30 1873.6188,-32.1168 1877.2047,-38.1286"/>
<text text-anchor="middle" x="1519.5" y="-51.8" font-family="Times,serif" font-size="14.00" fill="#5b00c0">rw</text>
</g>
<!-- T5085&#45;&gt;T5087 -->
<g id="edge2" class="edge">
<title>T5085:f0&#45;&gt;T5087:f1</title>
<path fill="none" stroke="#5b00c0" d="M927,-30C927,-46.6742 1510.4568,-45.9144 1527,-48 1589.8004,-55.9173 1665.2303,-18.5193 1673.2926,-70.9689"/>
<polygon fill="#5b00c0" stroke="#5b00c0" points="1669.8051,-71.271 1674,-81 1676.7878,-70.7785 1669.8051,-71.271"/>
<text text-anchor="middle" x="1677.5" y="-51.8" font-family="Times,serif" font-size="14.00" fill="#5b00c0">rw</text>
</g>
</g>
</svg>
