<?xml version="1.0" encoding="UTF-8" standalone="no"?>
<!DOCTYPE svg PUBLIC "-//W3C//DTD SVG 1.1//EN"
 "http://www.w3.org/Graphics/SVG/1.1/DTD/svg11.dtd">
<!-- Generated by graphviz version 2.40.1 (20161225.0304)
 -->
<!-- Title: a_graph Pages: 1 -->
<svg width="1614pt" height="119pt"
 viewBox="0.00 0.00 1614.00 119.00" xmlns="http://www.w3.org/2000/svg" xmlns:xlink="http://www.w3.org/1999/xlink">
<g id="graph0" class="graph" transform="scale(1 1) rotate(0) translate(4 115)">
<title>a_graph</title>
<polygon fill="#ffffff" stroke="transparent" points="-4,4 -4,-115 1610,-115 1610,4 -4,4"/>
<!-- T20639 -->
<g id="node1" class="node">
<title>T20639</title>
<polygon fill="none" stroke="#0058ad" points="0,-81.5 0,-110.5 1606,-110.5 1606,-81.5 0,-81.5"/>
<text text-anchor="middle" x="81" y="-92.3" font-family="Times,serif" font-size="14.00" fill="#0058ad">r 105 [1 2 3 4 5 6 10 9 11]</text>
<polyline fill="none" stroke="#0058ad" points="162,-81.5 162,-110.5 "/>
<text text-anchor="middle" x="771" y="-92.3" font-family="Times,serif" font-size="14.00" fill="#0058ad">r 103 [1 3 4 5 6 7 8 10 2 11 12 13 14 15 16 17 18 19 9 20 21 22 23 24 26 25 27 28 29 30 31 32 33 34 37 40 41 38 39 42 43 44 35 36 46 47 48 49 50 51 52 53 54 55 56 45 58 59 57 60 61 62 64 63 65 69 70 66 72 73 74]</text>
<polyline fill="none" stroke="#0058ad" points="1380,-81.5 1380,-110.5 "/>
<text text-anchor="middle" x="1412" y="-92.3" font-family="Times,serif" font-size="14.00" fill="#0058ad">a 102 29</text>
<polyline fill="none" stroke="#0058ad" points="1444,-81.5 1444,-110.5 "/>
<text text-anchor="middle" x="1525" y="-92.3" font-family="Times,serif" font-size="14.00" fill="#0058ad">r 105 [1 2 3 4 5 6 10 9 11]</text>
</g>
<!-- T20631 -->
<g id="node2" class="node">
<title>T20631</title>
<polygon fill="none" stroke="#0058ad" points="403,-.5 403,-29.5 905,-29.5 905,-.5 403,-.5"/>
<text text-anchor="middle" x="622" y="-11.3" font-family="Times,serif" font-size="14.00" fill="#0058ad">r 102 [2 3 5 7 8 4 9 11 12 13 15 14 16 17 18 19 20 21 22 23 24 25 26 27 28]</text>
<polyline fill="none" stroke="#0058ad" points="841,-.5 841,-29.5 "/>
<text text-anchor="middle" x="873" y="-11.3" font-family="Times,serif" font-size="14.00" fill="#0058ad">a 105 12</text>
</g>
<!-- T20639&#45;&gt;T20631 -->
<g id="edge1" class="edge">
<title>T20639:f0&#45;&gt;T20631:f1</title>
<path fill="none" stroke="#5b00c0" d="M81,-81C81,91.7477 840.8487,-194.19 872.0144,-40.2556"/>
<polygon fill="#5b00c0" stroke="#5b00c0" points="875.5272,-40.289 873,-30 868.5593,-39.6193 875.5272,-40.289"/>
<text text-anchor="middle" x="876.5" y="-51.8" font-family="Times,serif" font-size="14.00" fill="#5b00c0">rw</text>
</g>
<!-- T20631&#45;&gt;T20639 -->
<g id="edge2" class="edge">
<title>T20631:f0&#45;&gt;T20639:f2</title>
<path fill="none" stroke="#5b00c0" d="M622,-30C622,-32.5662 1310.5619,-72.3965 1402.0115,-79.9118"/>
<polygon fill="#5b00c0" stroke="#5b00c0" points="1401.6797,-83.3963 1412,-81 1402.4379,-76.4375 1401.6797,-83.3963"/>
<text text-anchor="middle" x="1140.5" y="-51.8" font-family="Times,serif" font-size="14.00" fill="#5b00c0">rw</text>
</g>
</g>
</svg>
