<?xml version="1.0" encoding="UTF-8" standalone="no"?>
<!DOCTYPE svg PUBLIC "-//W3C//DTD SVG 1.1//EN"
 "http://www.w3.org/Graphics/SVG/1.1/DTD/svg11.dtd">
<!-- Generated by graphviz version 2.40.1 (20161225.0304)
 -->
<!-- Title: a_graph Pages: 1 -->
<svg width="4047pt" height="119pt"
 viewBox="0.00 0.00 4046.59 119.00" xmlns="http://www.w3.org/2000/svg" xmlns:xlink="http://www.w3.org/1999/xlink">
<g id="graph0" class="graph" transform="scale(1 1) rotate(0) translate(4 115)">
<title>a_graph</title>
<polygon fill="#ffffff" stroke="transparent" points="-4,4 -4,-115 4042.5948,-115 4042.5948,4 -4,4"/>
<!-- T11507 -->
<g id="node1" class="node">
<title>T11507</title>
<polygon fill="none" stroke="#0058ad" points="4.0948,-81.5 4.0948,-110.5 1846.0948,-110.5 1846.0948,-81.5 4.0948,-81.5"/>
<text text-anchor="middle" x="816.5948" y="-92.3" font-family="Times,serif" font-size="14.00" fill="#0058ad">r 59 [1 2 4 5 6 3 7 8 9 10 11 12 13 14 15 16 17 18 19 20 21 22 23 24 25 26 27 28 29 30 32 33 34 31 35 36 37 38 40 39 41 42 43 44 45 46 47 48 49 50 51 52 53 54 56 57 58 59 60 61 62 63 55 64 66 67 68 71 69 70 72 73 74 75 65 76 77 78 79 80 81 82 83 84 85 86 87 88 89 91 92 93 90 94 95]</text>
<polyline fill="none" stroke="#0058ad" points="1629.0948,-81.5 1629.0948,-110.5 "/>
<text text-anchor="middle" x="1661.0948" y="-92.3" font-family="Times,serif" font-size="14.00" fill="#0058ad">a 51 102</text>
<polyline fill="none" stroke="#0058ad" points="1693.0948,-81.5 1693.0948,-110.5 "/>
<text text-anchor="middle" x="1737.5948" y="-92.3" font-family="Times,serif" font-size="14.00" fill="#0058ad">r 60 [1 2 3 4]</text>
<polyline fill="none" stroke="#0058ad" points="1782.0948,-81.5 1782.0948,-110.5 "/>
<text text-anchor="middle" x="1814.0948" y="-92.3" font-family="Times,serif" font-size="14.00" fill="#0058ad">a 55 121</text>
</g>
<!-- T11503 -->
<g id="node2" class="node">
<title>T11503</title>
<polygon fill="none" stroke="#0058ad" points="107.5948,-.5 107.5948,-29.5 4038.5948,-29.5 4038.5948,-.5 107.5948,-.5"/>
<text text-anchor="middle" x="136.0948" y="-11.3" font-family="Times,serif" font-size="14.00" fill="#0058ad">a 59 98</text>
<polyline fill="none" stroke="#0058ad" points="164.5948,-.5 164.5948,-29.5 "/>
<text text-anchor="middle" x="986.0948" y="-11.3" font-family="Times,serif" font-size="14.00" fill="#0058ad">r 59 [1 2 4 5 6 3 7 8 9 10 11 12 13 14 15 16 17 18 19 20 21 22 23 24 25 26 27 28 29 30 32 33 34 31 35 36 37 38 40 39 41 42 43 44 45 46 47 48 49 50 51 52 53 54 56 57 58 59 60 61 62 63 55 64 66 67 68 71 69 70 72 73 74 75 65 76 77 78 79 80 81 82 83 84 85 86 87 88 89 91 92 93 90 94 95 98]</text>
<polyline fill="none" stroke="#0058ad" points="1807.5948,-.5 1807.5948,-29.5 "/>
<text text-anchor="middle" x="1832.5948" y="-11.3" font-family="Times,serif" font-size="14.00" fill="#0058ad">a 60 5</text>
<polyline fill="none" stroke="#0058ad" points="1857.5948,-.5 1857.5948,-29.5 "/>
<text text-anchor="middle" x="2948.0948" y="-11.3" font-family="Times,serif" font-size="14.00" fill="#0058ad">r 55 [1 2 3 4 6 7 5 8 9 10 11 12 13 14 15 16 17 18 19 20 21 22 23 24 25 26 27 28 29 30 31 32 33 34 35 36 37 38 39 40 41 42 43 44 45 46 47 48 49 50 51 52 53 54 55 56 57 58 59 60 61 62 63 64 65 66 67 68 69 70 71 72 73 74 75 76 77 78 79 80 81 83 84 82 85 86 87 88 89 90 91 93 94 95 96 97 98 99 100 101 102 103 104 105 106 107 108 109 110 111 113 114 112 115 116 117 118 120 119]</text>
</g>
<!-- T11507&#45;&gt;T11503 -->
<g id="edge1" class="edge">
<title>T11507:f0&#45;&gt;T11503:f0</title>
<path fill="none" stroke="#5b00c0" d="M4.0948,-96C-2.5719,-96 .3248,-86.4983 4.0948,-81 37.508,-32.2699 124.6405,-85.5957 135.0692,-40.0848"/>
<polygon fill="#5b00c0" stroke="#5b00c0" points="138.565,-40.3028 136.0948,-30 131.6009,-39.5945 138.565,-40.3028"/>
<text text-anchor="middle" x="138.5948" y="-51.8" font-family="Times,serif" font-size="14.00" fill="#5b00c0">rw</text>
</g>
<!-- T11503&#45;&gt;T11507 -->
<g id="edge2" class="edge">
<title>T11503:f3&#45;&gt;T11507:f3</title>
<path fill="none" stroke="#5b00c0" d="M2948.0948,-30C2948.0948,-89.1757 1979.3125,-95.6017 1856.1069,-95.9804"/>
<polygon fill="#5b00c0" stroke="#5b00c0" points="1856.0879,-92.4804 1846.0948,-96 1856.1017,-99.4803 1856.0879,-92.4804"/>
<text text-anchor="middle" x="2913.5948" y="-51.8" font-family="Times,serif" font-size="14.00" fill="#5b00c0">rw</text>
</g>
</g>
</svg>
