<?xml version="1.0" encoding="UTF-8" standalone="no"?>
<!DOCTYPE svg PUBLIC "-//W3C//DTD SVG 1.1//EN"
 "http://www.w3.org/Graphics/SVG/1.1/DTD/svg11.dtd">
<!-- Generated by graphviz version 2.40.1 (20161225.0304)
 -->
<!-- Title: a_graph Pages: 1 -->
<svg width="4504pt" height="200pt"
 viewBox="0.00 0.00 4503.50 200.00" xmlns="http://www.w3.org/2000/svg" xmlns:xlink="http://www.w3.org/1999/xlink">
<g id="graph0" class="graph" transform="scale(1 1) rotate(0) translate(4 196)">
<title>a_graph</title>
<polygon fill="#ffffff" stroke="transparent" points="-4,4 -4,-196 4499.5,-196 4499.5,4 -4,4"/>
<!-- T5065 -->
<g id="node1" class="node">
<title>T5065</title>
<polygon fill="none" stroke="#0058ad" points="904.5,-162.5 904.5,-191.5 2812.5,-191.5 2812.5,-162.5 904.5,-162.5"/>
<text text-anchor="middle" x="1349.5" y="-173.3" font-family="Times,serif" font-size="14.00" fill="#0058ad">r 29 [1 2 5 6 7 8 9 3 13 14 15 16 17 18 19 20 21 22 24 25 23 26 27 28 29 31 32 30 35 33 36 37 34 39 38 40 41 42 43 44 46 47 48 49 45 50 53 51 52 54 55 56]</text>
<polyline fill="none" stroke="#0058ad" points="1794.5,-162.5 1794.5,-191.5 "/>
<text text-anchor="middle" x="1826.5" y="-173.3" font-family="Times,serif" font-size="14.00" fill="#0058ad">a 27 107</text>
<polyline fill="none" stroke="#0058ad" points="1858.5,-162.5 1858.5,-191.5 "/>
<text text-anchor="middle" x="1890.5" y="-173.3" font-family="Times,serif" font-size="14.00" fill="#0058ad">a 27 108</text>
<polyline fill="none" stroke="#0058ad" points="1922.5,-162.5 1922.5,-191.5 "/>
<text text-anchor="middle" x="2367.5" y="-173.3" font-family="Times,serif" font-size="14.00" fill="#0058ad">r 29 [1 2 5 6 7 8 9 3 13 14 15 16 17 18 19 20 21 22 24 25 23 26 27 28 29 31 32 30 35 33 36 37 34 39 38 40 41 42 43 44 46 47 48 49 45 50 53 51 52 54 55 56]</text>
</g>
<!-- T5057 -->
<g id="node2" class="node">
<title>T5057</title>
<polygon fill="none" stroke="#0058ad" points="0,-81.5 0,-110.5 4465,-110.5 4465,-81.5 0,-81.5"/>
<text text-anchor="middle" x="445" y="-92.3" font-family="Times,serif" font-size="14.00" fill="#0058ad">r 29 [1 2 5 6 7 8 9 3 13 14 15 16 17 18 19 20 21 22 24 25 23 26 27 28 29 31 32 30 35 33 36 37 34 39 38 40 41 42 43 44 46 47 48 49 45 50 53 51 52 54 55 56]</text>
<polyline fill="none" stroke="#0058ad" points="890,-81.5 890,-110.5 "/>
<text text-anchor="middle" x="918.5" y="-92.3" font-family="Times,serif" font-size="14.00" fill="#0058ad">a 29 57</text>
<polyline fill="none" stroke="#0058ad" points="947,-81.5 947,-110.5 "/>
<text text-anchor="middle" x="1826.5" y="-92.3" font-family="Times,serif" font-size="14.00" fill="#0058ad">r 27 [1 2 3 4 5 7 6 8 11 9 10 12 13 14 15 16 17 18 19 20 21 22 24 23 25 27 28 26 29 30 31 32 33 34 35 36 38 37 39 40 42 41 43 45 46 47 48 49 50 51 52 53 55 56 57 54 59 60 61 58 62 63 64 65 66 67 68 69 70 71 72 73 74 75 76 79 80 83 85 86 87 88 89 90 91 92 93 94 95 96 97 98 99 100 102 103 104 101 105 106]</text>
<polyline fill="none" stroke="#0058ad" points="2706,-81.5 2706,-110.5 "/>
<text text-anchor="middle" x="3585.5" y="-92.3" font-family="Times,serif" font-size="14.00" fill="#0058ad">r 27 [1 2 3 4 5 7 6 8 11 9 10 12 13 14 15 16 17 18 19 20 21 22 24 23 25 27 28 26 29 30 31 32 33 34 35 36 38 37 39 40 42 41 43 45 46 47 48 49 50 51 52 53 55 56 57 54 59 60 61 58 62 63 64 65 66 67 68 69 70 71 72 73 74 75 76 79 80 83 85 86 87 88 89 90 91 92 93 94 95 96 97 98 99 100 102 103 104 101 105 106]</text>
</g>
<!-- T5065&#45;&gt;T5057 -->
<g id="edge1" class="edge">
<title>T5065:f0&#45;&gt;T5057:f1</title>
<path fill="none" stroke="#5b00c0" d="M1349.5,-162C1349.5,27.3129 934.3458,-291.65 918.9396,-121.1989"/>
<polygon fill="#5b00c0" stroke="#5b00c0" points="922.4275,-120.84 918.5,-111 915.434,-121.1415 922.4275,-120.84"/>
<text text-anchor="middle" x="1355" y="-132.8" font-family="Times,serif" font-size="14.00" fill="#5b00c0">rw</text>
</g>
<!-- T5057&#45;&gt;T5065 -->
<g id="edge3" class="edge">
<title>T5057:f2&#45;&gt;T5065:f1</title>
<path fill="none" stroke="#5b00c0" d="M1826.5,-111C1826.5,-129.7708 1826.5,-136.8832 1826.5,-151.6465"/>
<polygon fill="#5b00c0" stroke="#5b00c0" points="1823.0001,-152 1826.5,-162 1830.0001,-152 1823.0001,-152"/>
<text text-anchor="middle" x="1834" y="-132.8" font-family="Times,serif" font-size="14.00" fill="#5b00c0">rw</text>
</g>
<!-- T5059 -->
<g id="node3" class="node">
<title>T5059</title>
<polygon fill="none" stroke="#0058ad" points="2488,-.5 2488,-29.5 4247,-29.5 4247,-.5 2488,-.5"/>
<text text-anchor="middle" x="3367.5" y="-11.3" font-family="Times,serif" font-size="14.00" fill="#0058ad">r 27 [1 2 3 4 5 7 6 8 11 9 10 12 13 14 15 16 17 18 19 20 21 22 24 23 25 27 28 26 29 30 31 32 33 34 35 36 38 37 39 40 42 41 43 45 46 47 48 49 50 51 52 53 55 56 57 54 59 60 61 58 62 63 64 65 66 67 68 69 70 71 72 73 74 75 76 79 80 83 85 86 87 88 89 90 91 92 93 94 95 96 97 98 99 100 102 103 104 101 105 106]</text>
</g>
<!-- T5057&#45;&gt;T5059 -->
<g id="edge2" class="edge">
<title>T5057&#45;&gt;T5059</title>
<path fill="none" stroke="#0050c0" d="M2435.7427,-81.4955C2638.2695,-67.042 2947.991,-44.9385 3154.0349,-30.2341"/>
<polygon fill="#0050c0" stroke="#0050c0" points="3154.3484,-33.7207 3164.0738,-29.5176 3153.85,-26.7385 3154.3484,-33.7207"/>
<text text-anchor="middle" x="2906" y="-51.8" font-family="Times,serif" font-size="14.00" fill="#0050c0">rt</text>
</g>
<!-- T5059&#45;&gt;T5065 -->
<g id="edge4" class="edge">
<title>T5059:f0&#45;&gt;T5065:f1</title>
<path fill="none" stroke="#5b00c0" d="M4228.2359,-29.5079C4354.8059,-39.86 4450.983,-56.0392 4474.5,-81 4483.6432,-90.7046 4483.8369,-101.4816 4474.5,-111 4424.6423,-161.8272 1991.2083,-93.138 1834.4177,-155.3413"/>
<polygon fill="#5b00c0" stroke="#5b00c0" points="1831.9006,-152.8849 1826.5,-162 1836.4061,-158.2422 1831.9006,-152.8849"/>
<text text-anchor="middle" x="4488" y="-92.3" font-family="Times,serif" font-size="14.00" fill="#5b00c0">rw</text>
</g>
</g>
</svg>
