<?xml version="1.0" encoding="UTF-8" standalone="no"?>
<!DOCTYPE svg PUBLIC "-//W3C//DTD SVG 1.1//EN"
 "http://www.w3.org/Graphics/SVG/1.1/DTD/svg11.dtd">
<!-- Generated by graphviz version 2.40.1 (20161225.0304)
 -->
<!-- Title: a_graph Pages: 1 -->
<svg width="5651pt" height="200pt"
 viewBox="0.00 0.00 5650.50 200.00" xmlns="http://www.w3.org/2000/svg" xmlns:xlink="http://www.w3.org/1999/xlink">
<g id="graph0" class="graph" transform="scale(1 1) rotate(0) translate(4 196)">
<title>a_graph</title>
<polygon fill="#ffffff" stroke="transparent" points="-4,4 -4,-196 5646.5,-196 5646.5,4 -4,4"/>
<!-- T20369 -->
<g id="node1" class="node">
<title>T20369</title>
<polygon fill="none" stroke="#0058ad" points="1572,-162.5 1572,-191.5 5584,-191.5 5584,-162.5 1572,-162.5"/>
<text text-anchor="middle" x="2384.5" y="-173.3" font-family="Times,serif" font-size="14.00" fill="#0058ad">r 100 [1 2 4 5 6 7 11 12 13 14 15 16 17 18 19 20 21 22 23 24 26 27 28 29 30 25 31 32 33 35 34 36 37 38 39 40 41 43 44 45 46 48 47 49 42 51 52 53 54 50 55 57 56 58 59 62 60 61 64 65 66 67 63 69 70 71 72 73 68 74 75 77 79 80 81 82 76 83 84 85 86 87 89 91 90 92 93 95 96 97 98 99 100]</text>
<polyline fill="none" stroke="#0058ad" points="3197,-162.5 3197,-191.5 "/>
<text text-anchor="middle" x="4301" y="-173.3" font-family="Times,serif" font-size="14.00" fill="#0058ad">r 101 [1 2 3 4 6 8 9 5 7 10 11 12 14 13 16 17 18 19 20 21 22 23 24 25 27 26 28 29 30 31 34 35 15 37 38 39 40 41 42 43 44 33 46 48 47 49 50 52 51 53 54 55 56 45 57 58 59 60 61 62 63 64 65 68 69 66 70 71 72 73 74 75 76 78 79 80 81 82 77 83 85 87 86 88 89 90 92 93 94 95 96 97 98 84 99 100 101 102 104 105 107 106 109 108 112 114 113 116 115 117 118 119 120 121 122 123 124 125 126]</text>
<polyline fill="none" stroke="#0058ad" points="5405,-162.5 5405,-191.5 "/>
<text text-anchor="middle" x="5494.5" y="-173.3" font-family="Times,serif" font-size="14.00" fill="#0058ad">r 102 [2 3 5 7 8 4 9 11 12 13]</text>
</g>
<!-- T20371 -->
<g id="node3" class="node">
<title>T20371</title>
<polygon fill="none" stroke="#0058ad" points="0,-81.5 0,-110.5 4432,-110.5 4432,-81.5 0,-81.5"/>
<text text-anchor="middle" x="1092" y="-92.3" font-family="Times,serif" font-size="14.00" fill="#0058ad">r 101 [1 2 3 4 6 8 9 5 7 10 11 12 14 13 16 17 18 19 20 21 22 23 24 25 27 26 28 29 30 31 34 35 15 37 38 39 40 41 42 43 44 33 46 48 47 49 50 52 51 53 54 55 56 45 57 58 59 60 61 62 63 64 65 68 69 66 70 71 72 73 74 75 76 78 79 80 81 82 77 83 85 87 86 88 89 90 92 93 94 95 96 97 98 84 99 100 101 102 104 105 107 106 109 108 112 114 113 116 115 117 118 119 120 121 122 123 124 125]</text>
<polyline fill="none" stroke="#0058ad" points="2184,-81.5 2184,-110.5 "/>
<text text-anchor="middle" x="2216" y="-92.3" font-family="Times,serif" font-size="14.00" fill="#0058ad">a 100 94</text>
<polyline fill="none" stroke="#0058ad" points="2248,-81.5 2248,-110.5 "/>
<text text-anchor="middle" x="3340" y="-92.3" font-family="Times,serif" font-size="14.00" fill="#0058ad">r 101 [1 2 3 4 6 8 9 5 7 10 11 12 14 13 16 17 18 19 20 21 22 23 24 25 27 26 28 29 30 31 34 35 15 37 38 39 40 41 42 43 44 33 46 48 47 49 50 52 51 53 54 55 56 45 57 58 59 60 61 62 63 64 65 68 69 66 70 71 72 73 74 75 76 78 79 80 81 82 77 83 85 87 86 88 89 90 92 93 94 95 96 97 98 84 99 100 101 102 104 105 107 106 109 108 112 114 113 116 115 117 118 119 120 121 122 123 124 125]</text>
</g>
<!-- T20369&#45;&gt;T20371 -->
<g id="edge1" class="edge">
<title>T20369:f0&#45;&gt;T20371:f1</title>
<path fill="none" stroke="#5b00c0" d="M2384,-162C2384,-87.7788 2232.0057,-179.2078 2217.1625,-121.1634"/>
<polygon fill="#5b00c0" stroke="#5b00c0" points="2220.6138,-120.5374 2216,-111 2213.6592,-121.333 2220.6138,-120.5374"/>
<text text-anchor="middle" x="2387.5" y="-132.8" font-family="Times,serif" font-size="14.00" fill="#5b00c0">rw</text>
</g>
<!-- T20365 -->
<g id="node2" class="node">
<title>T20365</title>
<polygon fill="none" stroke="#0058ad" points="1403.5,-.5 1403.5,-29.5 5642.5,-29.5 5642.5,-.5 1403.5,-.5"/>
<text text-anchor="middle" x="2216" y="-11.3" font-family="Times,serif" font-size="14.00" fill="#0058ad">r 100 [1 2 4 5 6 7 11 12 13 14 15 16 17 18 19 20 21 22 23 24 26 27 28 29 30 25 31 32 33 35 34 36 37 38 39 40 41 43 44 45 46 48 47 49 42 51 52 53 54 50 55 57 56 58 59 62 60 61 64 65 66 67 63 69 70 71 72 73 68 74 75 77 79 80 81 82 76 83 84 85 86 87 89 91 90 92 93 95 96 97 98 99 100]</text>
<polyline fill="none" stroke="#0058ad" points="3028.5,-.5 3028.5,-29.5 "/>
<text text-anchor="middle" x="3487.5" y="-11.3" font-family="Times,serif" font-size="14.00" fill="#0058ad">r 96 [1 2 3 5 4 6 7 8 9 10 11 13 14 15 16 17 18 19 20 21 22 23 24 25 27 26 28 29 30 31 32 33 35 36 37 38 39 40 41 42 43 44 45 46 48 47 49 50 51 52 53 54 55 56]</text>
<polyline fill="none" stroke="#0058ad" points="3946.5,-.5 3946.5,-29.5 "/>
<text text-anchor="middle" x="3982" y="-11.3" font-family="Times,serif" font-size="14.00" fill="#0058ad">a 101 126</text>
<polyline fill="none" stroke="#0058ad" points="4017.5,-.5 4017.5,-29.5 "/>
<text text-anchor="middle" x="4830" y="-11.3" font-family="Times,serif" font-size="14.00" fill="#0058ad">r 100 [1 2 4 5 6 7 11 12 13 14 15 16 17 18 19 20 21 22 23 24 26 27 28 29 30 25 31 32 33 35 34 36 37 38 39 40 41 43 44 45 46 48 47 49 42 51 52 53 54 50 55 57 56 58 59 62 60 61 64 65 66 67 63 69 70 71 72 73 68 74 75 77 79 80 81 82 76 83 84 85 86 87 89 91 90 92 93 95 96 97 98 99 100]</text>
</g>
<!-- T20365&#45;&gt;T20369 -->
<g id="edge3" class="edge">
<title>T20365:f2&#45;&gt;T20369:f1</title>
<path fill="none" stroke="#c000a5" d="M3982,-30C3982,-132.6277 4372.5554,-4.5292 4441,-81 4449.8923,-90.935 4448.6462,-100.0769 4441,-111 4405.175,-162.1785 4312.3519,-103.2509 4301.9518,-152.0063"/>
<polygon fill="#c000a5" stroke="#c000a5" points="4298.4639,-151.7132 4301,-162 4305.4324,-152.3769 4298.4639,-151.7132"/>
<text text-anchor="middle" x="4454.5" y="-92.3" font-family="Times,serif" font-size="14.00" fill="#c000a5">wr</text>
</g>
<!-- T20365&#45;&gt;T20371 -->
<g id="edge2" class="edge">
<title>T20365:f0&#45;&gt;T20371:f1</title>
<path fill="none" stroke="#5b00c0" d="M2216,-30C2216,-48.7708 2216,-55.8832 2216,-70.6465"/>
<polygon fill="#5b00c0" stroke="#5b00c0" points="2212.5001,-71 2216,-81 2219.5001,-71 2212.5001,-71"/>
<text text-anchor="middle" x="2223.5" y="-51.8" font-family="Times,serif" font-size="14.00" fill="#5b00c0">rw</text>
</g>
<!-- T20371&#45;&gt;T20365 -->
<g id="edge4" class="edge">
<title>T20371:f0&#45;&gt;T20365:f2</title>
<path fill="none" stroke="#5b00c0" d="M1092,-81C1092,41.8325 2074.192,-50.4527 2197,-48 2208.8493,-47.7633 3829.6039,-42.8573 3972.0301,-31.5937"/>
<polygon fill="#5b00c0" stroke="#5b00c0" points="3972.6778,-35.0347 3982,-30 3971.5729,-28.1224 3972.6778,-35.0347"/>
<text text-anchor="middle" x="2204.5" y="-51.8" font-family="Times,serif" font-size="14.00" fill="#5b00c0">rw</text>
</g>
</g>
</svg>
