<?xml version="1.0" encoding="UTF-8" standalone="no"?>
<!DOCTYPE svg PUBLIC "-//W3C//DTD SVG 1.1//EN"
 "http://www.w3.org/Graphics/SVG/1.1/DTD/svg11.dtd">
<!-- Generated by graphviz version 2.40.1 (20161225.0304)
 -->
<!-- Title: a_graph Pages: 1 -->
<svg width="1674pt" height="119pt"
 viewBox="0.00 0.00 1673.50 119.00" xmlns="http://www.w3.org/2000/svg" xmlns:xlink="http://www.w3.org/1999/xlink">
<g id="graph0" class="graph" transform="scale(1 1) rotate(0) translate(4 115)">
<title>a_graph</title>
<polygon fill="#ffffff" stroke="transparent" points="-4,4 -4,-115 1669.5,-115 1669.5,4 -4,4"/>
<!-- T20907 -->
<g id="node1" class="node">
<title>T20907</title>
<polygon fill="none" stroke="#0058ad" points="36.5,-81.5 36.5,-110.5 1665.5,-110.5 1665.5,-81.5 36.5,-81.5"/>
<text text-anchor="middle" x="68.5" y="-92.3" font-family="Times,serif" font-size="14.00" fill="#0058ad">a 104 12</text>
<polyline fill="none" stroke="#0058ad" points="100.5,-81.5 100.5,-110.5 "/>
<text text-anchor="middle" x="457.5" y="-92.3" font-family="Times,serif" font-size="14.00" fill="#0058ad">r 106 [1 5 6 4 7 8 9 12 10 11 14 15 16 17 19 20 21 23 24 27 26 28 29 30 31 32 35 33 34 36 37 18 38 40 41 42 43 44 45 46 47]</text>
<polyline fill="none" stroke="#0058ad" points="814.5,-81.5 814.5,-110.5 "/>
<text text-anchor="middle" x="846.5" y="-92.3" font-family="Times,serif" font-size="14.00" fill="#0058ad">a 105 48</text>
<polyline fill="none" stroke="#0058ad" points="878.5,-81.5 878.5,-110.5 "/>
<text text-anchor="middle" x="1272" y="-92.3" font-family="Times,serif" font-size="14.00" fill="#0058ad">r 74 [2 3 4 5 6 7 8 9 10 11 12 13 26 27 28 29 30 31 32 33 34 35 36 37 39 40 41 42 43 44 45 46 47 48 49 50 51 52 53 54 56 57 58 59 60 61]</text>
</g>
<!-- T20903 -->
<g id="node2" class="node">
<title>T20903</title>
<polygon fill="none" stroke="#0058ad" points="0,-.5 0,-29.5 1590,-29.5 1590,-.5 0,-.5"/>
<text text-anchor="middle" x="365.5" y="-11.3" font-family="Times,serif" font-size="14.00" fill="#0058ad">r 105 [1 2 3 4 5 6 10 9 11 12 13 14 15 16 17 18 19 20 21 23 22 24 25 26 27 29 30 31 33 34 35 36 37 39 40 41 43 44 45 46 42 47]</text>
<polyline fill="none" stroke="#0058ad" points="731,-.5 731,-29.5 "/>
<text text-anchor="middle" x="763" y="-11.3" font-family="Times,serif" font-size="14.00" fill="#0058ad">a 106 48</text>
<polyline fill="none" stroke="#0058ad" points="795,-.5 795,-29.5 "/>
<text text-anchor="middle" x="827" y="-11.3" font-family="Times,serif" font-size="14.00" fill="#0058ad">a 106 49</text>
<polyline fill="none" stroke="#0058ad" points="859,-.5 859,-29.5 "/>
<text text-anchor="middle" x="1224.5" y="-11.3" font-family="Times,serif" font-size="14.00" fill="#0058ad">r 105 [1 2 3 4 5 6 10 9 11 12 13 14 15 16 17 18 19 20 21 23 22 24 25 26 27 29 30 31 33 34 35 36 37 39 40 41 43 44 45 46 42 47]</text>
</g>
<!-- T20907&#45;&gt;T20903 -->
<g id="edge1" class="edge">
<title>T20907:f1&#45;&gt;T20903:f1</title>
<path fill="none" stroke="#5b00c0" d="M457,-81C457,-.9778 555.0189,-60.8661 634,-48 645.9405,-46.0549 728.0621,-44.8966 754.6868,-36.115"/>
<polygon fill="#5b00c0" stroke="#5b00c0" points="757.0184,-38.7448 763,-30 752.8707,-33.106 757.0184,-38.7448"/>
<text text-anchor="middle" x="641.5" y="-51.8" font-family="Times,serif" font-size="14.00" fill="#5b00c0">rw</text>
</g>
<!-- T20903&#45;&gt;T20907 -->
<g id="edge2" class="edge">
<title>T20903:f0&#45;&gt;T20907:f2</title>
<path fill="none" stroke="#5b00c0" d="M365,-30C365,-45.8094 633.2943,-46.1917 649,-48 733.5755,-57.7379 837.1091,2.4952 845.4598,-70.8413"/>
<polygon fill="#5b00c0" stroke="#5b00c0" points="841.9738,-71.2 846,-81 848.964,-70.8282 841.9738,-71.2"/>
<text text-anchor="middle" x="850.5" y="-51.8" font-family="Times,serif" font-size="14.00" fill="#5b00c0">rw</text>
</g>
</g>
</svg>
