<?xml version="1.0" encoding="UTF-8" standalone="no"?>
<!DOCTYPE svg PUBLIC "-//W3C//DTD SVG 1.1//EN"
 "http://www.w3.org/Graphics/SVG/1.1/DTD/svg11.dtd">
<!-- Generated by graphviz version 2.40.1 (20161225.0304)
 -->
<!-- Title: a_graph Pages: 1 -->
<svg width="2315pt" height="119pt"
 viewBox="0.00 0.00 2315.00 119.00" xmlns="http://www.w3.org/2000/svg" xmlns:xlink="http://www.w3.org/1999/xlink">
<g id="graph0" class="graph" transform="scale(1 1) rotate(0) translate(4 115)">
<title>a_graph</title>
<polygon fill="#ffffff" stroke="transparent" points="-4,4 -4,-115 2311,-115 2311,4 -4,4"/>
<!-- T17711 -->
<g id="node1" class="node">
<title>T17711</title>
<polygon fill="none" stroke="#0058ad" points="91,-81.5 91,-110.5 1710,-110.5 1710,-81.5 91,-81.5"/>
<text text-anchor="middle" x="119.5" y="-92.3" font-family="Times,serif" font-size="14.00" fill="#0058ad">a 89 69</text>
<polyline fill="none" stroke="#0058ad" points="148,-81.5 148,-110.5 "/>
<text text-anchor="middle" x="900.5" y="-92.3" font-family="Times,serif" font-size="14.00" fill="#0058ad">r 90 [1 2 3 4 5 7 6 8 9 10 11 12 13 14 15 16 17 18 19 20 21 23 24 25 26 22 27 28 29 30 31 32 34 35 33 36 37 38 39 40 41 42 43 45 44 46 48 49 50 51 52 47 53 54 55 57 59 60 66 67 68 69 70 71 72 73 74 76 75 77 78 79 80 81 82 83 84 85 86 87 90 88 89 92 93 91 94 95]</text>
<polyline fill="none" stroke="#0058ad" points="1653,-81.5 1653,-110.5 "/>
<text text-anchor="middle" x="1681.5" y="-92.3" font-family="Times,serif" font-size="14.00" fill="#0058ad">a 89 70</text>
</g>
<!-- T17709 -->
<g id="node2" class="node">
<title>T17709</title>
<polygon fill="none" stroke="#0058ad" points="0,-.5 0,-29.5 2307,-29.5 2307,-.5 0,-.5"/>
<text text-anchor="middle" x="28.5" y="-11.3" font-family="Times,serif" font-size="14.00" fill="#0058ad">a 90 96</text>
<polyline fill="none" stroke="#0058ad" points="57,-.5 57,-29.5 "/>
<text text-anchor="middle" x="619.5" y="-11.3" font-family="Times,serif" font-size="14.00" fill="#0058ad">r 89 [1 2 3 4 5 6 7 8 9 10 11 12 13 14 15 16 17 18 19 20 21 23 24 25 26 22 27 28 29 30 31 32 34 33 35 37 38 36 39 40 41 42 43 44 45 46 47 50 51 52 53 55 54 58 56 57 61 59 60 62 63 66 67 68 64 65]</text>
<polyline fill="none" stroke="#0058ad" points="1182,-.5 1182,-29.5 "/>
<text text-anchor="middle" x="1744.5" y="-11.3" font-family="Times,serif" font-size="14.00" fill="#0058ad">r 89 [1 2 3 4 5 6 7 8 9 10 11 12 13 14 15 16 17 18 19 20 21 23 24 25 26 22 27 28 29 30 31 32 34 33 35 37 38 36 39 40 41 42 43 44 45 46 47 50 51 52 53 55 54 58 56 57 61 59 60 62 63 66 67 68 64 65]</text>
</g>
<!-- T17711&#45;&gt;T17709 -->
<g id="edge1" class="edge">
<title>T17711:f1&#45;&gt;T17709:f0</title>
<path fill="none" stroke="#5b00c0" d="M900.5,-81C900.5,-78.1596 135.6896,-38.5686 38.5945,-31.0626"/>
<polygon fill="#5b00c0" stroke="#5b00c0" points="38.8115,-27.5662 28.5,-30 38.0786,-34.5277 38.8115,-27.5662"/>
<text text-anchor="middle" x="601" y="-51.8" font-family="Times,serif" font-size="14.00" fill="#5b00c0">rw</text>
</g>
<!-- T17709&#45;&gt;T17711 -->
<g id="edge2" class="edge">
<title>T17709:f1&#45;&gt;T17711:f0</title>
<path fill="none" stroke="#5b00c0" d="M619.5,-30C619.5,-46.863 333.2561,-46.1043 316.5,-48 231.9053,-57.5704 128.3893,2.5089 120.0401,-70.8405"/>
<polygon fill="#5b00c0" stroke="#5b00c0" points="116.5359,-70.8283 119.5,-81 123.526,-71.1999 116.5359,-70.8283"/>
<text text-anchor="middle" x="324" y="-51.8" font-family="Times,serif" font-size="14.00" fill="#5b00c0">rw</text>
</g>
</g>
</svg>
