<?xml version="1.0" encoding="UTF-8" standalone="no"?>
<!DOCTYPE svg PUBLIC "-//W3C//DTD SVG 1.1//EN"
 "http://www.w3.org/Graphics/SVG/1.1/DTD/svg11.dtd">
<!-- Generated by graphviz version 2.40.1 (20161225.0304)
 -->
<!-- Title: a_graph Pages: 1 -->
<svg width="5685pt" height="119pt"
 viewBox="0.00 0.00 5684.50 119.00" xmlns="http://www.w3.org/2000/svg" xmlns:xlink="http://www.w3.org/1999/xlink">
<g id="graph0" class="graph" transform="scale(1 1) rotate(0) translate(4 115)">
<title>a_graph</title>
<polygon fill="#ffffff" stroke="transparent" points="-4,4 -4,-115 5680.5,-115 5680.5,4 -4,4"/>
<!-- T5963 -->
<g id="node1" class="node">
<title>T5963</title>
<polygon fill="none" stroke="#0058ad" points="2106.5,-81.5 2106.5,-110.5 5676.5,-110.5 5676.5,-81.5 2106.5,-81.5"/>
<text text-anchor="middle" x="2135" y="-92.3" font-family="Times,serif" font-size="14.00" fill="#0058ad">a 30 79</text>
<polyline fill="none" stroke="#0058ad" points="2163.5,-81.5 2163.5,-110.5 "/>
<text text-anchor="middle" x="2657" y="-92.3" font-family="Times,serif" font-size="14.00" fill="#0058ad">r 33 [1 3 4 5 2 6 7 8 9 10 14 11 12 13 15 16 17 18 19 20 23 21 22 24 25 26 27 28 30 31 32 33 29 35 36 39 41 42 43 44 45 46 47 48 49 50 51 52 53 54 55 56 57 58 59 62 65 66]</text>
<polyline fill="none" stroke="#0058ad" points="3150.5,-81.5 3150.5,-110.5 "/>
<text text-anchor="middle" x="3782" y="-92.3" font-family="Times,serif" font-size="14.00" fill="#0058ad">r 30 [1 2 3 4 5 6 7 8 9 10 11 12 13 14 15 16 19 20 21 23 22 24 25 26 27 28 29 30 31 32 33 35 34 36 37 38 41 43 42 44 45 48 46 47 49 50 51 52 53 54 55 56 57 58 59 60 62 63 64 61 66 65 67 68 69 72 70 73 74 75 76 77 78 79]</text>
<polyline fill="none" stroke="#0058ad" points="4413.5,-81.5 4413.5,-110.5 "/>
<text text-anchor="middle" x="5045" y="-92.3" font-family="Times,serif" font-size="14.00" fill="#0058ad">r 30 [1 2 3 4 5 6 7 8 9 10 11 12 13 14 15 16 19 20 21 23 22 24 25 26 27 28 29 30 31 32 33 35 34 36 37 38 41 43 42 44 45 48 46 47 49 50 51 52 53 54 55 56 57 58 59 60 62 63 64 61 66 65 67 68 69 72 70 73 74 75 76 77 78 79]</text>
</g>
<!-- T5965 -->
<g id="node2" class="node">
<title>T5965</title>
<polygon fill="none" stroke="#0058ad" points="0,-.5 0,-29.5 3345,-29.5 3345,-.5 0,-.5"/>
<text text-anchor="middle" x="992.5" y="-11.3" font-family="Times,serif" font-size="14.00" fill="#0058ad">r 31 [1 2 3 4 5 6 7 8 9 10 11 13 14 12 15 16 18 17 19 22 23 24 20 21 25 26 28 29 27 30 31 32 34 35 36 37 38 39 40 41 42 44 45 46 47 43 49 50 51 52 53 55 54 56 57 59 58 60 63 64 61 62 65 66 67 68 69 71 72 73 70 74 75 76 77 78 81 82 83 84 85 86 87 88 89 90 91 92 93 94 96 97 98 95 99 100 101 102 103 104 105 107 106 108 109 110 111 113 114 115]</text>
<polyline fill="none" stroke="#0058ad" points="1985,-.5 1985,-29.5 "/>
<text text-anchor="middle" x="2013.5" y="-11.3" font-family="Times,serif" font-size="14.00" fill="#0058ad">a 5 108</text>
<polyline fill="none" stroke="#0058ad" points="2042,-.5 2042,-29.5 "/>
<text text-anchor="middle" x="2070.5" y="-11.3" font-family="Times,serif" font-size="14.00" fill="#0058ad">a 33 63</text>
<polyline fill="none" stroke="#0058ad" points="2099,-.5 2099,-29.5 "/>
<text text-anchor="middle" x="2722" y="-11.3" font-family="Times,serif" font-size="14.00" fill="#0058ad">r 30 [1 2 3 4 5 6 7 8 9 10 11 12 13 14 15 16 19 20 21 23 22 24 25 26 27 28 29 30 31 32 33 35 34 36 37 38 41 43 42 44 45 48 46 47 49 50 51 52 53 54 55 56 57 58 59 60 62 63 64 61 66 65 67 68 69 72 70 73 74 75 76 77 78]</text>
</g>
<!-- T5963&#45;&gt;T5965 -->
<g id="edge1" class="edge">
<title>T5963:f1&#45;&gt;T5965:f2</title>
<path fill="none" stroke="#5b00c0" d="M2656.5,-81C2656.5,-65.9053 2156.3734,-49.119 2080.1822,-33.7665"/>
<polygon fill="#5b00c0" stroke="#5b00c0" points="2081.0886,-30.3637 2070.5,-30 2078.5507,-36.8874 2081.0886,-30.3637"/>
<text text-anchor="middle" x="2491" y="-51.8" font-family="Times,serif" font-size="14.00" fill="#5b00c0">rw</text>
</g>
<!-- T5965&#45;&gt;T5963 -->
<g id="edge2" class="edge">
<title>T5965:f3&#45;&gt;T5963:f0</title>
<path fill="none" stroke="#5b00c0" d="M2722.5,-30C2722.5,-128.8717 2600.8887,-53.2393 2502.5,-63 2484.0407,-64.8313 2196.8045,-61.3157 2143.11,-75.8753"/>
<polygon fill="#5b00c0" stroke="#5b00c0" points="2141.3029,-72.8777 2134.5,-81 2144.8832,-78.8929 2141.3029,-72.8777"/>
<text text-anchor="middle" x="2728" y="-51.8" font-family="Times,serif" font-size="14.00" fill="#5b00c0">rw</text>
</g>
</g>
</svg>
