<?xml version="1.0" encoding="UTF-8" standalone="no"?>
<!DOCTYPE svg PUBLIC "-//W3C//DTD SVG 1.1//EN"
 "http://www.w3.org/Graphics/SVG/1.1/DTD/svg11.dtd">
<!-- Generated by graphviz version 2.40.1 (20161225.0304)
 -->
<!-- Title: a_graph Pages: 1 -->
<svg width="4468pt" height="119pt"
 viewBox="0.00 0.00 4468.00 119.00" xmlns="http://www.w3.org/2000/svg" xmlns:xlink="http://www.w3.org/1999/xlink">
<g id="graph0" class="graph" transform="scale(1 1) rotate(0) translate(4 115)">
<title>a_graph</title>
<polygon fill="#ffffff" stroke="transparent" points="-4,4 -4,-115 4464,-115 4464,4 -4,4"/>
<!-- T12037 -->
<g id="node1" class="node">
<title>T12037</title>
<polygon fill="none" stroke="#0058ad" points="0,-81.5 0,-110.5 2675,-110.5 2675,-81.5 0,-81.5"/>
<text text-anchor="middle" x="1064.5" y="-92.3" font-family="Times,serif" font-size="14.00" fill="#0058ad">r 51 [1 2 3 4 5 6 7 8 9 10 11 13 14 15 16 17 18 19 20 21 22 23 24 25 26 27 28 29 30 31 32 34 33 35 36 37 38 41 39 40 42 43 45 44 46 47 48 49 50 51 52 53 54 55 56 57 58 59 60 61 62 64 65 67 68 69 70 71 72 73 74 75 76 77 78 79 80 81 82 83 84 85 86 87 88 89 90 92 93 94 95 96 97 98 99 100 101 102 103 104 105 106 109 110 111 112 113 114 115 116 117 118 119 120 121 122]</text>
<polyline fill="none" stroke="#0058ad" points="2129,-81.5 2129,-110.5 "/>
<text text-anchor="middle" x="2344.5" y="-92.3" font-family="Times,serif" font-size="14.00" fill="#0058ad">r 62 [1 2 3 4 7 8 9 10 12 13 11 14 15 16 17 18 20 19 21 22 23 26 27 24 25]</text>
<polyline fill="none" stroke="#0058ad" points="2560,-81.5 2560,-110.5 "/>
<text text-anchor="middle" x="2589" y="-92.3" font-family="Times,serif" font-size="14.00" fill="#0058ad">r 63 [2]</text>
<polyline fill="none" stroke="#0058ad" points="2618,-81.5 2618,-110.5 "/>
<text text-anchor="middle" x="2646.5" y="-92.3" font-family="Times,serif" font-size="14.00" fill="#0058ad">a 60 94</text>
</g>
<!-- T12035 -->
<g id="node2" class="node">
<title>T12035</title>
<polygon fill="none" stroke="#0058ad" points="1263,-.5 1263,-29.5 4460,-29.5 4460,-.5 1263,-.5"/>
<text text-anchor="middle" x="2015.5" y="-11.3" font-family="Times,serif" font-size="14.00" fill="#0058ad">r 60 [1 2 3 4 5 6 7 8 9 10 11 12 13 14 15 16 17 18 19 20 21 22 24 25 26 27 28 29 31 30 32 33 35 36 38 37 39 40 43 45 46 47 44 49 50 48 51 53 52 54 55 57 56 58 59 60 61 62 63 64 66 67 68 69 65 70 71 72 73 74 75 76 77 78 79 80 81 82 83 84 85 86 87 88 89 91 90 92]</text>
<polyline fill="none" stroke="#0058ad" points="2768,-.5 2768,-29.5 "/>
<text text-anchor="middle" x="2983.5" y="-11.3" font-family="Times,serif" font-size="14.00" fill="#0058ad">r 62 [1 2 3 4 7 8 9 10 12 13 11 14 15 16 17 18 20 19 21 22 23 26 27 24 25]</text>
<polyline fill="none" stroke="#0058ad" points="3199,-.5 3199,-29.5 "/>
<text text-anchor="middle" x="3224" y="-11.3" font-family="Times,serif" font-size="14.00" fill="#0058ad">a 63 3</text>
<polyline fill="none" stroke="#0058ad" points="3249,-.5 3249,-29.5 "/>
<text text-anchor="middle" x="3854.5" y="-11.3" font-family="Times,serif" font-size="14.00" fill="#0058ad">r 39 [1 2 3 4 5 6 7 8 9 10 11 12 13 35 36 37 38 39 40 41 43 44 45 46 47 48 49 50 51 52 53 54 55 56 57 58 59 60 61 62 63 64 65 66 68 69 70 71 72 73 74 75 76 77 78 79 80 81 82 83 84 85 86 87 88 89 90 91 92 93 94]</text>
</g>
<!-- T12037&#45;&gt;T12035 -->
<g id="edge1" class="edge">
<title>T12037:f2&#45;&gt;T12035:f2</title>
<path fill="none" stroke="#5b00c0" d="M2589.5,-81C2589.5,-64.8893 2591.0825,-56.9178 2604.5,-48 2631.2366,-30.2298 3146.287,-59.8561 3216.5791,-36.1254"/>
<polygon fill="#5b00c0" stroke="#5b00c0" points="3218.7305,-38.8862 3224.5,-30 3214.4483,-33.3487 3218.7305,-38.8862"/>
<text text-anchor="middle" x="2612" y="-51.8" font-family="Times,serif" font-size="14.00" fill="#5b00c0">rw</text>
</g>
<!-- T12035&#45;&gt;T12037 -->
<g id="edge2" class="edge">
<title>T12035:f0&#45;&gt;T12037:f3</title>
<path fill="none" stroke="#5b00c0" d="M2015.5,-30C2015.5,-63.5705 2589.3809,-33.1738 2619.5,-48 2633.0484,-54.6692 2642.1493,-59.6311 2645.2875,-70.961"/>
<polygon fill="#5b00c0" stroke="#5b00c0" points="2641.8261,-71.4918 2646.5,-81 2648.7756,-70.6525 2641.8261,-71.4918"/>
<text text-anchor="middle" x="2649" y="-51.8" font-family="Times,serif" font-size="14.00" fill="#5b00c0">rw</text>
</g>
</g>
</svg>
