<?xml version="1.0" encoding="UTF-8" standalone="no"?>
<!DOCTYPE svg PUBLIC "-//W3C//DTD SVG 1.1//EN"
 "http://www.w3.org/Graphics/SVG/1.1/DTD/svg11.dtd">
<!-- Generated by graphviz version 2.40.1 (20161225.0304)
 -->
<!-- Title: a_graph Pages: 1 -->
<svg width="2362pt" height="119pt"
 viewBox="0.00 0.00 2362.00 119.00" xmlns="http://www.w3.org/2000/svg" xmlns:xlink="http://www.w3.org/1999/xlink">
<g id="graph0" class="graph" transform="scale(1 1) rotate(0) translate(4 115)">
<title>a_graph</title>
<polygon fill="#ffffff" stroke="transparent" points="-4,4 -4,-115 2358,-115 2358,4 -4,4"/>
<!-- T24762 -->
<g id="node1" class="node">
<title>T24762</title>
<polygon fill="none" stroke="#0058ad" points="0,-81.5 0,-110.5 1231,-110.5 1231,-81.5 0,-81.5"/>
<text text-anchor="middle" x="28.5" y="-92.3" font-family="Times,serif" font-size="14.00" fill="#0058ad">a 124 1</text>
<polyline fill="none" stroke="#0058ad" points="57,-81.5 57,-110.5 "/>
<text text-anchor="middle" x="89" y="-92.3" font-family="Times,serif" font-size="14.00" fill="#0058ad">a 123 15</text>
<polyline fill="none" stroke="#0058ad" points="121,-81.5 121,-110.5 "/>
<text text-anchor="middle" x="153" y="-92.3" font-family="Times,serif" font-size="14.00" fill="#0058ad">a 123 16</text>
<polyline fill="none" stroke="#0058ad" points="185,-81.5 185,-110.5 "/>
<text text-anchor="middle" x="708" y="-92.3" font-family="Times,serif" font-size="14.00" fill="#0058ad">r 122 [1 2 3 4 5 6 8 9 7 10 11 13 14 12 15 16 17 18 19 20 21 22 23 24 25 26 27 28 29 30 31 32 33 34 35 36 37 38 41 42 43 39 40 44 45 46 47 48 49 50 51 52 53 54 55 56 57 58 59 61 62]</text>
</g>
<!-- T24757 -->
<g id="node2" class="node">
<title>T24757</title>
<polygon fill="none" stroke="#0058ad" points="147,-.5 147,-29.5 2354,-29.5 2354,-.5 147,-.5"/>
<text text-anchor="middle" x="179" y="-11.3" font-family="Times,serif" font-size="14.00" fill="#0058ad">a 122 63</text>
<polyline fill="none" stroke="#0058ad" points="211,-.5 211,-29.5 "/>
<text text-anchor="middle" x="328.5" y="-11.3" font-family="Times,serif" font-size="14.00" fill="#0058ad">r 123 [1 2 4 3 5 6 7 8 9 10 11 12 13 14]</text>
<polyline fill="none" stroke="#0058ad" points="446,-.5 446,-29.5 "/>
<text text-anchor="middle" x="868.5" y="-11.3" font-family="Times,serif" font-size="14.00" fill="#0058ad">r 117 [1 2 3 4 5 6 8 9 11 12 13 14 16 17 19 20 21 22 23 24 26 25 27 28 29 30 31 32 33 34 35 36 37 38 39 40 41 42 49 50 51 52 53 54 55 56 57 58 59]</text>
<polyline fill="none" stroke="#0058ad" points="1291,-.5 1291,-29.5 "/>
<text text-anchor="middle" x="1822.5" y="-11.3" font-family="Times,serif" font-size="14.00" fill="#0058ad">r 122 [1 2 3 4 5 6 8 9 7 10 11 13 14 12 15 16 17 18 19 20 21 22 23 24 25 26 27 28 29 30 31 32 33 34 35 36 37 38 41 42 43 39 40 44 45 46 47 48 49 50 51 52 53 54 55 56 57 58 59 61 62 63]</text>
</g>
<!-- T24762&#45;&gt;T24757 -->
<g id="edge1" class="edge">
<title>T24762:f3&#45;&gt;T24757:f0</title>
<path fill="none" stroke="#5b00c0" d="M708.5,-81C708.5,-53.615 254.2524,-58.577 186.825,-35.9934"/>
<polygon fill="#5b00c0" stroke="#5b00c0" points="188.6606,-33.0022 178.5,-30 184.5707,-38.6832 188.6606,-33.0022"/>
<text text-anchor="middle" x="601" y="-51.8" font-family="Times,serif" font-size="14.00" fill="#5b00c0">rw</text>
</g>
<!-- T24757&#45;&gt;T24762 -->
<g id="edge2" class="edge">
<title>T24757:f1&#45;&gt;T24762:f1</title>
<path fill="none" stroke="#5b00c0" d="M328.5,-30C328.5,-42.0603 140.6255,-62.0323 97.3264,-75.916"/>
<polygon fill="#5b00c0" stroke="#5b00c0" points="95.4184,-72.9759 88.5,-81 98.9123,-79.0416 95.4184,-72.9759"/>
<text text-anchor="middle" x="258" y="-51.8" font-family="Times,serif" font-size="14.00" fill="#5b00c0">rw</text>
</g>
</g>
</svg>
