<?xml version="1.0" encoding="UTF-8" standalone="no"?>
<!DOCTYPE svg PUBLIC "-//W3C//DTD SVG 1.1//EN"
 "http://www.w3.org/Graphics/SVG/1.1/DTD/svg11.dtd">
<!-- Generated by graphviz version 2.40.1 (20161225.0304)
 -->
<!-- Title: a_graph Pages: 1 -->
<svg width="1694pt" height="119pt"
 viewBox="0.00 0.00 1693.50 119.00" xmlns="http://www.w3.org/2000/svg" xmlns:xlink="http://www.w3.org/1999/xlink">
<g id="graph0" class="graph" transform="scale(1 1) rotate(0) translate(4 115)">
<title>a_graph</title>
<polygon fill="#ffffff" stroke="transparent" points="-4,4 -4,-115 1689.5,-115 1689.5,4 -4,4"/>
<!-- T5133 -->
<g id="node1" class="node">
<title>T5133</title>
<polygon fill="none" stroke="#0058ad" points="1343.5,-81.5 1343.5,-110.5 1685.5,-110.5 1685.5,-81.5 1343.5,-81.5"/>
<text text-anchor="middle" x="1372" y="-92.3" font-family="Times,serif" font-size="14.00" fill="#0058ad">a 29 14</text>
<polyline fill="none" stroke="#0058ad" points="1400.5,-81.5 1400.5,-110.5 "/>
<text text-anchor="middle" x="1514.5" y="-92.3" font-family="Times,serif" font-size="14.00" fill="#0058ad">r 31 [1 2 3 4 5 7 8 9 10 11 6 12 13 14]</text>
<polyline fill="none" stroke="#0058ad" points="1628.5,-81.5 1628.5,-110.5 "/>
<text text-anchor="middle" x="1657" y="-92.3" font-family="Times,serif" font-size="14.00" fill="#0058ad">a 30 22</text>
</g>
<!-- T5131 -->
<g id="node2" class="node">
<title>T5131</title>
<polygon fill="none" stroke="#0058ad" points="0,-.5 0,-29.5 1595,-29.5 1595,-.5 0,-.5"/>
<text text-anchor="middle" x="649" y="-11.3" font-family="Times,serif" font-size="14.00" fill="#0058ad">r 21 [1 2 3 4 5 6 7 8 9 10 11 12 13 14 15 16 18 19 20 22 23 25 27 28 29 30 31 32 33 34 35 36 37 40 41 42 43 44 45 46 47 48 49 50 51 52 53 54 55 56 57 58 59 60 61 62 63 64 65 66 67 68 69 70 71 72 73 74 75 76 77 78 79 80 81 82]</text>
<polyline fill="none" stroke="#0058ad" points="1298,-.5 1298,-29.5 "/>
<text text-anchor="middle" x="1326.5" y="-11.3" font-family="Times,serif" font-size="14.00" fill="#0058ad">a 5 117</text>
<polyline fill="none" stroke="#0058ad" points="1355,-.5 1355,-29.5 "/>
<text text-anchor="middle" x="1383.5" y="-11.3" font-family="Times,serif" font-size="14.00" fill="#0058ad">a 31 15</text>
<polyline fill="none" stroke="#0058ad" points="1412,-.5 1412,-29.5 "/>
<text text-anchor="middle" x="1503.5" y="-11.3" font-family="Times,serif" font-size="14.00" fill="#0058ad">r 29 [2 1 3 4 6 7 8 9 10 12 13]</text>
</g>
<!-- T5133&#45;&gt;T5131 -->
<g id="edge1" class="edge">
<title>T5133:f1&#45;&gt;T5131:f2</title>
<path fill="none" stroke="#5b00c0" d="M1514.5,-81C1514.5,-67.6378 1418.6307,-51.2453 1390.9185,-37.0071"/>
<polygon fill="#5b00c0" stroke="#5b00c0" points="1393.1731,-34.3222 1383.5,-30 1388.3664,-39.4111 1393.1731,-34.3222"/>
<text text-anchor="middle" x="1483" y="-51.8" font-family="Times,serif" font-size="14.00" fill="#5b00c0">rw</text>
</g>
<!-- T5131&#45;&gt;T5133 -->
<g id="edge2" class="edge">
<title>T5131:f3&#45;&gt;T5133:f0</title>
<path fill="none" stroke="#5b00c0" d="M1503.5,-30C1503.5,-52.5794 1423.4285,-37.3848 1403.5,-48 1388.9903,-55.7288 1377.1115,-59.1584 1373.0248,-70.8484"/>
<polygon fill="#5b00c0" stroke="#5b00c0" points="1369.5242,-70.591 1371.5,-81 1376.4466,-71.6308 1369.5242,-70.591"/>
<text text-anchor="middle" x="1411" y="-51.8" font-family="Times,serif" font-size="14.00" fill="#5b00c0">rw</text>
</g>
</g>
</svg>
