<?xml version="1.0" encoding="UTF-8" standalone="no"?>
<!DOCTYPE svg PUBLIC "-//W3C//DTD SVG 1.1//EN"
 "http://www.w3.org/Graphics/SVG/1.1/DTD/svg11.dtd">
<!-- Generated by graphviz version 2.40.1 (20161225.0304)
 -->
<!-- Title: a_graph Pages: 1 -->
<svg width="3750pt" height="119pt"
 viewBox="0.00 0.00 3749.50 119.00" xmlns="http://www.w3.org/2000/svg" xmlns:xlink="http://www.w3.org/1999/xlink">
<g id="graph0" class="graph" transform="scale(1 1) rotate(0) translate(4 115)">
<title>a_graph</title>
<polygon fill="#ffffff" stroke="transparent" points="-4,4 -4,-115 3745.5,-115 3745.5,4 -4,4"/>
<!-- T24649 -->
<g id="node1" class="node">
<title>T24649</title>
<polygon fill="none" stroke="#0058ad" points="0,-81.5 0,-110.5 2597,-110.5 2597,-81.5 0,-81.5"/>
<text text-anchor="middle" x="367.5" y="-92.3" font-family="Times,serif" font-size="14.00" fill="#0058ad">r 122 [1 2 3 4 5 6 8 9 7 10 11 13 14 12 15 16 17 18 19 20 21 22 23 24 25 26 27 28 29 30 31 32 33 34 35 36 37 38 41 42 43 39 40]</text>
<polyline fill="none" stroke="#0058ad" points="735,-81.5 735,-110.5 "/>
<text text-anchor="middle" x="1634" y="-92.3" font-family="Times,serif" font-size="14.00" fill="#0058ad">r 121 [5 6 17 18 20 19 21 22 23 24 25 26 28 29 30 31 32 27 33 34 35 36 37 38 39 40 42 43 44 41 45 46 47 48 49 50 51 52 53 54 55 56 59 61 60 64 62 67 69 68 66 70 71 73 72 74 75 76 77 78 79 80 81 82 84 85 86 87 83 89 90 91 88 92 93 94 95 96 97 98 99 100 102 101 103 104 106 107 105 108 109 111 112 113 114 110]</text>
<polyline fill="none" stroke="#0058ad" points="2533,-81.5 2533,-110.5 "/>
<text text-anchor="middle" x="2565" y="-92.3" font-family="Times,serif" font-size="14.00" fill="#0058ad">a 122 44</text>
</g>
<!-- T24653 -->
<g id="node2" class="node">
<title>T24653</title>
<polygon fill="none" stroke="#0058ad" points="1113.5,-.5 1113.5,-29.5 3741.5,-29.5 3741.5,-.5 1113.5,-.5"/>
<text text-anchor="middle" x="1149" y="-11.3" font-family="Times,serif" font-size="14.00" fill="#0058ad">a 121 115</text>
<polyline fill="none" stroke="#0058ad" points="1184.5,-.5 1184.5,-29.5 "/>
<text text-anchor="middle" x="2095.5" y="-11.3" font-family="Times,serif" font-size="14.00" fill="#0058ad">r 121 [5 6 17 18 20 19 21 22 23 24 25 26 28 29 30 31 32 27 33 34 35 36 37 38 39 40 42 43 44 41 45 46 47 48 49 50 51 52 53 54 55 56 59 61 60 64 62 67 69 68 66 70 71 73 72 74 75 76 77 78 79 80 81 82 84 85 86 87 83 89 90 91 88 92 93 94 95 96 97 98 99 100 102 101 103 104 106 107 105 108 109 111 112 113 114 110 115]</text>
<polyline fill="none" stroke="#0058ad" points="3006.5,-.5 3006.5,-29.5 "/>
<text text-anchor="middle" x="3374" y="-11.3" font-family="Times,serif" font-size="14.00" fill="#0058ad">r 122 [1 2 3 4 5 6 8 9 7 10 11 13 14 12 15 16 17 18 19 20 21 22 23 24 25 26 27 28 29 30 31 32 33 34 35 36 37 38 41 42 43 39 40]</text>
</g>
<!-- T24649&#45;&gt;T24653 -->
<g id="edge1" class="edge">
<title>T24649:f1&#45;&gt;T24653:f0</title>
<path fill="none" stroke="#5b00c0" d="M1634.5,-81C1634.5,132.6865 1164.0359,-234.9872 1148.8745,-40.036"/>
<polygon fill="#5b00c0" stroke="#5b00c0" points="1152.3705,-39.8625 1148.5,-30 1145.3754,-40.1236 1152.3705,-39.8625"/>
<text text-anchor="middle" x="1640" y="-51.8" font-family="Times,serif" font-size="14.00" fill="#5b00c0">rw</text>
</g>
<!-- T24653&#45;&gt;T24649 -->
<g id="edge2" class="edge">
<title>T24653:f2&#45;&gt;T24649:f2</title>
<path fill="none" stroke="#5b00c0" d="M3374.5,-30C3374.5,-71.3337 2706.6258,-93.8748 2607.6906,-95.8569"/>
<polygon fill="#5b00c0" stroke="#5b00c0" points="2607.4498,-92.3598 2597.5,-96 2607.5482,-99.3591 2607.4498,-92.3598"/>
<text text-anchor="middle" x="3331" y="-51.8" font-family="Times,serif" font-size="14.00" fill="#5b00c0">rw</text>
</g>
</g>
</svg>
