<?xml version="1.0" encoding="UTF-8" standalone="no"?>
<!DOCTYPE svg PUBLIC "-//W3C//DTD SVG 1.1//EN"
 "http://www.w3.org/Graphics/SVG/1.1/DTD/svg11.dtd">
<!-- Generated by graphviz version 2.40.1 (20161225.0304)
 -->
<!-- Title: a_graph Pages: 1 -->
<svg width="3008pt" height="119pt"
 viewBox="0.00 0.00 3008.00 119.00" xmlns="http://www.w3.org/2000/svg" xmlns:xlink="http://www.w3.org/1999/xlink">
<g id="graph0" class="graph" transform="scale(1 1) rotate(0) translate(4 115)">
<title>a_graph</title>
<polygon fill="#ffffff" stroke="transparent" points="-4,4 -4,-115 3004,-115 3004,4 -4,4"/>
<!-- T16109 -->
<g id="node1" class="node">
<title>T16109</title>
<polygon fill="none" stroke="#0058ad" points="1846,-81.5 1846,-110.5 2442,-110.5 2442,-81.5 1846,-81.5"/>
<text text-anchor="middle" x="1874.5" y="-92.3" font-family="Times,serif" font-size="14.00" fill="#0058ad">a 82 26</text>
<polyline fill="none" stroke="#0058ad" points="1903,-81.5 1903,-110.5 "/>
<text text-anchor="middle" x="2115.5" y="-92.3" font-family="Times,serif" font-size="14.00" fill="#0058ad">r 74 [1 2 3 4 6 7 8 9 10 11 12 13 14 16 17 18 19 20 21 22 24 25 26 27 28]</text>
<polyline fill="none" stroke="#0058ad" points="2328,-81.5 2328,-110.5 "/>
<text text-anchor="middle" x="2356.5" y="-92.3" font-family="Times,serif" font-size="14.00" fill="#0058ad">a 83 65</text>
<polyline fill="none" stroke="#0058ad" points="2385,-81.5 2385,-110.5 "/>
<text text-anchor="middle" x="2413.5" y="-92.3" font-family="Times,serif" font-size="14.00" fill="#0058ad">a 83 66</text>
</g>
<!-- T16107 -->
<g id="node2" class="node">
<title>T16107</title>
<polygon fill="none" stroke="#0058ad" points="0,-.5 0,-29.5 3000,-29.5 3000,-.5 0,-.5"/>
<text text-anchor="middle" x="28.5" y="-11.3" font-family="Times,serif" font-size="14.00" fill="#0058ad">a 78 97</text>
<polyline fill="none" stroke="#0058ad" points="57,-.5 57,-29.5 "/>
<text text-anchor="middle" x="974" y="-11.3" font-family="Times,serif" font-size="14.00" fill="#0058ad">r 69 [1 3 5 6 7 8 9 10 11 12 13 14 15 16 17 18 19 20 21 23 24 25 26 27 28 29 30 33 34 35 36 37 38 39 40 41 42 43 44 45 46 47 48 49 50 51 52 53 54 55 56 57 58 59 61 62 63 65 64 66 67 69 70 71 72 73 74 76 77 78 79 80 81 82 83 84 85 86 87 88 89 90 91 93 92 95 94 96 97 98 99 101 102 103 104 107 108 109 110 111 113 112]</text>
<polyline fill="none" stroke="#0058ad" points="1891,-.5 1891,-29.5 "/>
<text text-anchor="middle" x="1919.5" y="-11.3" font-family="Times,serif" font-size="14.00" fill="#0058ad">a 74 29</text>
<polyline fill="none" stroke="#0058ad" points="1948,-.5 1948,-29.5 "/>
<text text-anchor="middle" x="2474" y="-11.3" font-family="Times,serif" font-size="14.00" fill="#0058ad">r 83 [1 2 4 5 6 7 8 10 11 12 13 15 16 17 18 14 19 20 21 22 23 24 25 26 27 28 29 30 31 32 33 34 35 36 37 38 39 40 41 42 43 44 45 46 47 48 49 51 52 53 50 54 55 56 57 58 59 60 61 62 64]</text>
</g>
<!-- T16109&#45;&gt;T16107 -->
<g id="edge1" class="edge">
<title>T16109:f1&#45;&gt;T16107:f2</title>
<path fill="none" stroke="#5b00c0" d="M2115,-81C2115,4.7325 1936.3978,-108.9697 1921.0492,-40.3761"/>
<polygon fill="#5b00c0" stroke="#5b00c0" points="1924.4883,-39.5971 1920,-30 1917.5238,-40.3014 1924.4883,-39.5971"/>
<text text-anchor="middle" x="2117.5" y="-51.8" font-family="Times,serif" font-size="14.00" fill="#5b00c0">rw</text>
</g>
<!-- T16107&#45;&gt;T16109 -->
<g id="edge2" class="edge">
<title>T16107:f3&#45;&gt;T16109:f2</title>
<path fill="none" stroke="#5b00c0" d="M2474,-30C2474,-82.737 2372.8747,-32.4675 2358.6539,-70.7192"/>
<polygon fill="#5b00c0" stroke="#5b00c0" points="2355.1329,-70.571 2357,-81 2362.044,-71.6829 2355.1329,-70.571"/>
<text text-anchor="middle" x="2472.5" y="-51.8" font-family="Times,serif" font-size="14.00" fill="#5b00c0">rw</text>
</g>
</g>
</svg>
