<?xml version="1.0" encoding="UTF-8" standalone="no"?>
<!DOCTYPE svg PUBLIC "-//W3C//DTD SVG 1.1//EN"
 "http://www.w3.org/Graphics/SVG/1.1/DTD/svg11.dtd">
<!-- Generated by graphviz version 2.40.1 (20161225.0304)
 -->
<!-- Title: a_graph Pages: 1 -->
<svg width="2727pt" height="119pt"
 viewBox="0.00 0.00 2727.00 119.00" xmlns="http://www.w3.org/2000/svg" xmlns:xlink="http://www.w3.org/1999/xlink">
<g id="graph0" class="graph" transform="scale(1 1) rotate(0) translate(4 115)">
<title>a_graph</title>
<polygon fill="#ffffff" stroke="transparent" points="-4,4 -4,-115 2723,-115 2723,4 -4,4"/>
<!-- T24949 -->
<g id="node1" class="node">
<title>T24949</title>
<polygon fill="none" stroke="#0058ad" points="77.5,-81.5 77.5,-110.5 1751.5,-110.5 1751.5,-81.5 77.5,-81.5"/>
<text text-anchor="middle" x="109.5" y="-92.3" font-family="Times,serif" font-size="14.00" fill="#0058ad">a 123 69</text>
<polyline fill="none" stroke="#0058ad" points="141.5,-81.5 141.5,-110.5 "/>
<text text-anchor="middle" x="173.5" y="-92.3" font-family="Times,serif" font-size="14.00" fill="#0058ad">a 124 18</text>
<polyline fill="none" stroke="#0058ad" points="205.5,-81.5 205.5,-110.5 "/>
<text text-anchor="middle" x="978.5" y="-92.3" font-family="Times,serif" font-size="14.00" fill="#0058ad">r 122 [1 2 3 4 5 6 8 9 7 10 11 13 14 12 15 16 17 18 19 20 21 22 23 24 25 26 27 28 29 30 31 32 33 34 35 36 37 38 41 42 43 39 40 44 45 46 47 48 49 50 51 52 53 54 55 56 57 58 59 61 62 63 65 66 67 68 70 72 73 71 74 76 78 77 81 79 80 82 83 84 86 87 88 89 91 90 92 93 94 95]</text>
</g>
<!-- T24951 -->
<g id="node2" class="node">
<title>T24951</title>
<polygon fill="none" stroke="#0058ad" points="0,-.5 0,-29.5 2719,-29.5 2719,-.5 0,-.5"/>
<text text-anchor="middle" x="32" y="-11.3" font-family="Times,serif" font-size="14.00" fill="#0058ad">a 122 96</text>
<polyline fill="none" stroke="#0058ad" points="64,-.5 64,-29.5 "/>
<text text-anchor="middle" x="96" y="-11.3" font-family="Times,serif" font-size="14.00" fill="#0058ad">a 117 65</text>
<polyline fill="none" stroke="#0058ad" points="128,-.5 128,-29.5 "/>
<text text-anchor="middle" x="642" y="-11.3" font-family="Times,serif" font-size="14.00" fill="#0058ad">r 123 [1 2 4 3 5 6 7 8 9 10 11 12 13 14 15 16 19 21 22 25 23 24 26 27 28 29 30 31 32 33 37 38 41 34 44 42 47 48 49 45 46 51 52 53 50 54 55 56 57 58 59 60 61 62 63 64 66 65 67 68]</text>
<polyline fill="none" stroke="#0058ad" points="1156,-.5 1156,-29.5 "/>
<text text-anchor="middle" x="1937.5" y="-11.3" font-family="Times,serif" font-size="14.00" fill="#0058ad">r 122 [1 2 3 4 5 6 8 9 7 10 11 13 14 12 15 16 17 18 19 20 21 22 23 24 25 26 27 28 29 30 31 32 33 34 35 36 37 38 41 42 43 39 40 44 45 46 47 48 49 50 51 52 53 54 55 56 57 58 59 61 62 63 65 66 67 68 70 72 73 71 74 76 78 77 81 79 80 82 83 84 86 87 88 89 91 90 92 93 94 95 96]</text>
</g>
<!-- T24949&#45;&gt;T24951 -->
<g id="edge1" class="edge">
<title>T24949:f2&#45;&gt;T24951:f0</title>
<path fill="none" stroke="#5b00c0" d="M978.5,-81C978.5,-74.8128 142.7042,-41.0521 41.4945,-31.526"/>
<polygon fill="#5b00c0" stroke="#5b00c0" points="41.9137,-28.0495 31.5,-30 40.8571,-34.9693 41.9137,-28.0495"/>
<text text-anchor="middle" x="652" y="-51.8" font-family="Times,serif" font-size="14.00" fill="#5b00c0">rw</text>
</g>
<!-- T24951&#45;&gt;T24949 -->
<g id="edge2" class="edge">
<title>T24951:f2&#45;&gt;T24949:f0</title>
<path fill="none" stroke="#5b00c0" d="M641.5,-30C641.5,-46.4748 361.8928,-46.358 345.5,-48 243.7199,-58.1949 118.3995,19.3136 109.9516,-70.7925"/>
<polygon fill="#5b00c0" stroke="#5b00c0" points="106.4455,-70.8551 109.5,-81 113.4386,-71.1645 106.4455,-70.8551"/>
<text text-anchor="middle" x="353" y="-51.8" font-family="Times,serif" font-size="14.00" fill="#5b00c0">rw</text>
</g>
</g>
</svg>
