<?xml version="1.0" encoding="UTF-8" standalone="no"?>
<!DOCTYPE svg PUBLIC "-//W3C//DTD SVG 1.1//EN"
 "http://www.w3.org/Graphics/SVG/1.1/DTD/svg11.dtd">
<!-- Generated by graphviz version 2.40.1 (20161225.0304)
 -->
<!-- Title: a_graph Pages: 1 -->
<svg width="1740pt" height="119pt"
 viewBox="0.00 0.00 1740.00 119.00" xmlns="http://www.w3.org/2000/svg" xmlns:xlink="http://www.w3.org/1999/xlink">
<g id="graph0" class="graph" transform="scale(1 1) rotate(0) translate(4 115)">
<title>a_graph</title>
<polygon fill="#ffffff" stroke="transparent" points="-4,4 -4,-115 1736,-115 1736,4 -4,4"/>
<!-- T14825 -->
<g id="node1" class="node">
<title>T14825</title>
<polygon fill="none" stroke="#0058ad" points="0,-81.5 0,-110.5 1563,-110.5 1563,-81.5 0,-81.5"/>
<text text-anchor="middle" x="28.5" y="-92.3" font-family="Times,serif" font-size="14.00" fill="#0058ad">a 75 83</text>
<polyline fill="none" stroke="#0058ad" points="57,-81.5 57,-110.5 "/>
<text text-anchor="middle" x="531.5" y="-92.3" font-family="Times,serif" font-size="14.00" fill="#0058ad">r 69 [1 3 5 6 7 8 9 10 11 12 13 14 15 16 17 18 19 20 21 23 24 25 26 27 28 29 30 33 34 35 36 37 38 39 40 41 42 43 44 45 46 47 48 49 50 51 52 53 54 55 56 57 58 59 61]</text>
<polyline fill="none" stroke="#0058ad" points="1006,-81.5 1006,-110.5 "/>
<text text-anchor="middle" x="1256" y="-92.3" font-family="Times,serif" font-size="14.00" fill="#0058ad">r 77 [1 2 4 5 8 9 3 13 14 12 15 16 10 17 18 19 20 21 23 24 25 26 28 29 22 30 31 33 27]</text>
<polyline fill="none" stroke="#0058ad" points="1506,-81.5 1506,-110.5 "/>
<text text-anchor="middle" x="1534.5" y="-92.3" font-family="Times,serif" font-size="14.00" fill="#0058ad">a 77 32</text>
</g>
<!-- T14823 -->
<g id="node2" class="node">
<title>T14823</title>
<polygon fill="none" stroke="#0058ad" points="611,-.5 611,-29.5 1732,-29.5 1732,-.5 611,-.5"/>
<text text-anchor="middle" x="861" y="-11.3" font-family="Times,serif" font-size="14.00" fill="#0058ad">r 77 [1 2 4 5 8 9 3 13 14 12 15 16 10 17 18 19 20 21 23 24 25 26 28 29 22 30 31 33 27]</text>
<polyline fill="none" stroke="#0058ad" points="1111,-.5 1111,-29.5 "/>
<text text-anchor="middle" x="1143" y="-11.3" font-family="Times,serif" font-size="14.00" fill="#0058ad">a 68 120</text>
<polyline fill="none" stroke="#0058ad" points="1175,-.5 1175,-29.5 "/>
<text text-anchor="middle" x="1203.5" y="-11.3" font-family="Times,serif" font-size="14.00" fill="#0058ad">a 69 62</text>
<polyline fill="none" stroke="#0058ad" points="1232,-.5 1232,-29.5 "/>
<text text-anchor="middle" x="1482" y="-11.3" font-family="Times,serif" font-size="14.00" fill="#0058ad">r 77 [1 2 4 5 8 9 3 13 14 12 15 16 10 17 18 19 20 21 23 24 25 26 28 29 22 30 31 33 27]</text>
</g>
<!-- T14825&#45;&gt;T14823 -->
<g id="edge1" class="edge">
<title>T14825:f1&#45;&gt;T14823:f2</title>
<path fill="none" stroke="#5b00c0" d="M531.5,-81C531.5,65.1065 1171.088,-167.8651 1202.3179,-40.2683"/>
<polygon fill="#5b00c0" stroke="#5b00c0" points="1205.8333,-40.3347 1203.5,-30 1198.8793,-39.5341 1205.8333,-40.3347"/>
<text text-anchor="middle" x="1205" y="-51.8" font-family="Times,serif" font-size="14.00" fill="#5b00c0">rw</text>
</g>
<!-- T14823&#45;&gt;T14825 -->
<g id="edge2" class="edge">
<title>T14823:f0&#45;&gt;T14825:f3</title>
<path fill="none" stroke="#5b00c0" d="M860.5,-30C860.5,-49.803 1196.7556,-46.4774 1216.5,-48 1354.5746,-58.6474 1525.5682,55.0821 1534.1624,-70.6771"/>
<polygon fill="#5b00c0" stroke="#5b00c0" points="1530.6749,-71.1198 1534.5,-81 1537.6712,-70.8909 1530.6749,-71.1198"/>
<text text-anchor="middle" x="1540" y="-51.8" font-family="Times,serif" font-size="14.00" fill="#5b00c0">rw</text>
</g>
</g>
</svg>
