<?xml version="1.0" encoding="UTF-8" standalone="no"?>
<!DOCTYPE svg PUBLIC "-//W3C//DTD SVG 1.1//EN"
 "http://www.w3.org/Graphics/SVG/1.1/DTD/svg11.dtd">
<!-- Generated by graphviz version 2.40.1 (20161225.0304)
 -->
<!-- Title: a_graph Pages: 1 -->
<svg width="1960pt" height="200pt"
 viewBox="0.00 0.00 1959.99 200.00" xmlns="http://www.w3.org/2000/svg" xmlns:xlink="http://www.w3.org/1999/xlink">
<g id="graph0" class="graph" transform="scale(1 1) rotate(0) translate(4 196)">
<title>a_graph</title>
<polygon fill="#ffffff" stroke="transparent" points="-4,4 -4,-196 1955.9946,-196 1955.9946,4 -4,4"/>
<!-- T26973 -->
<g id="node1" class="node">
<title>T26973</title>
<polygon fill="none" stroke="#0058ad" points="302,-162.5 302,-191.5 1836,-191.5 1836,-162.5 302,-162.5"/>
<text text-anchor="middle" x="334" y="-173.3" font-family="Times,serif" font-size="14.00" fill="#0058ad">a 133 20</text>
<polyline fill="none" stroke="#0058ad" points="366,-162.5 366,-191.5 "/>
<text text-anchor="middle" x="733.5" y="-173.3" font-family="Times,serif" font-size="14.00" fill="#0058ad">r 134 [1 2 3 4 5 6 7 8 9 10 11 12 13 14 15 17 18 21 22 23 24 25 26 27 29 30 31 32 33 34 35 36 37 38 40 39 41 42 43 44 45 46 47]</text>
<polyline fill="none" stroke="#0058ad" points="1101,-162.5 1101,-191.5 "/>
<text text-anchor="middle" x="1468.5" y="-173.3" font-family="Times,serif" font-size="14.00" fill="#0058ad">r 134 [1 2 3 4 5 6 7 8 9 10 11 12 13 14 15 17 18 21 22 23 24 25 26 27 29 30 31 32 33 34 35 36 37 38 40 39 41 42 43 44 45 46 47]</text>
</g>
<!-- T26975 -->
<g id="node2" class="node">
<title>T26975</title>
<polygon fill="none" stroke="#0058ad" points="179,-81.5 179,-110.5 1881,-110.5 1881,-81.5 179,-81.5"/>
<text text-anchor="middle" x="334.5" y="-92.3" font-family="Times,serif" font-size="14.00" fill="#0058ad">r 133 [1 2 3 5 6 7 8 9 10 11 13 14 15 16 17 18 19 20]</text>
<polyline fill="none" stroke="#0058ad" points="490,-81.5 490,-110.5 "/>
<text text-anchor="middle" x="857.5" y="-92.3" font-family="Times,serif" font-size="14.00" fill="#0058ad">r 134 [1 2 3 4 5 6 7 8 9 10 11 12 13 14 15 17 18 21 22 23 24 25 26 27 29 30 31 32 33 34 35 36 37 38 40 39 41 42 43 44 45 46 47]</text>
<polyline fill="none" stroke="#0058ad" points="1225,-81.5 1225,-110.5 "/>
<text text-anchor="middle" x="1553" y="-92.3" font-family="Times,serif" font-size="14.00" fill="#0058ad">r 131 [1 2 3 4 5 6 7 8 10 11 13 14 15 16 17 18 20 21 22 23 24 25 26 28 27 29 30 31 32 33 34 35 36 37 38 39 40 41]</text>
</g>
<!-- T26973&#45;&gt;T26975 -->
<g id="edge1" class="edge">
<title>T26973:f0&#45;&gt;T26975:f0</title>
<path fill="none" stroke="#c000a5" d="M334,-162C334,-143.2292 334,-136.1168 334,-121.3535"/>
<polygon fill="#c000a5" stroke="#c000a5" points="337.5001,-121 334,-111 330.5001,-121 337.5001,-121"/>
<text text-anchor="middle" x="341.5" y="-132.8" font-family="Times,serif" font-size="14.00" fill="#c000a5">wr</text>
</g>
<!-- T26976 -->
<g id="node3" class="node">
<title>T26976</title>
<polygon fill="none" stroke="#0058ad" points="0,-.5 0,-29.5 1748,-29.5 1748,-.5 0,-.5"/>
<text text-anchor="middle" x="146.5" y="-11.3" font-family="Times,serif" font-size="14.00" fill="#0058ad">r 133 [1 2 3 5 6 7 8 9 10 11 13 14 15 16 17 18 19]</text>
<polyline fill="none" stroke="#0058ad" points="293,-.5 293,-29.5 "/>
<text text-anchor="middle" x="660.5" y="-11.3" font-family="Times,serif" font-size="14.00" fill="#0058ad">r 134 [1 2 3 4 5 6 7 8 9 10 11 12 13 14 15 17 18 21 22 23 24 25 26 27 29 30 31 32 33 34 35 36 37 38 40 39 41 42 43 44 45 46 47]</text>
<polyline fill="none" stroke="#0058ad" points="1028,-.5 1028,-29.5 "/>
<text text-anchor="middle" x="1356" y="-11.3" font-family="Times,serif" font-size="14.00" fill="#0058ad">r 131 [1 2 3 4 5 6 7 8 10 11 13 14 15 16 17 18 20 21 22 23 24 25 26 28 27 29 30 31 32 33 34 35 36 37 38 39 40 41]</text>
<polyline fill="none" stroke="#0058ad" points="1684,-.5 1684,-29.5 "/>
<text text-anchor="middle" x="1716" y="-11.3" font-family="Times,serif" font-size="14.00" fill="#0058ad">a 134 48</text>
</g>
<!-- T26973&#45;&gt;T26976 -->
<g id="edge2" class="edge">
<title>T26973:f1&#45;&gt;T26976:f3</title>
<path fill="none" stroke="#5b00c0" d="M733,-162C733,-33.3196 1801.0353,-203.9727 1890,-111 1976.5084,-20.5943 2003.6351,-15.135 1758.3573,-15.0026"/>
<polygon fill="#5b00c0" stroke="#5b00c0" points="1758.0009,-11.5027 1748,-15 1757.9991,-18.5027 1758.0009,-11.5027"/>
<text text-anchor="middle" x="1926.5" y="-92.3" font-family="Times,serif" font-size="14.00" fill="#5b00c0">rw</text>
</g>
<!-- T26975&#45;&gt;T26976 -->
<g id="edge3" class="edge">
<title>T26975:f1&#45;&gt;T26976:f3</title>
<path fill="none" stroke="#5b00c0" d="M857,-81C857,106.6769 1684.4188,-209.1051 1715.1238,-40.1112"/>
<polygon fill="#5b00c0" stroke="#5b00c0" points="1718.6235,-40.2649 1716,-30 1711.6496,-39.6605 1718.6235,-40.2649"/>
<text text-anchor="middle" x="1718.5" y="-51.8" font-family="Times,serif" font-size="14.00" fill="#5b00c0">rw</text>
</g>
<!-- T26976&#45;&gt;T26973 -->
<g id="edge4" class="edge">
<title>T26976:f0&#45;&gt;T26973:f0</title>
<path fill="none" stroke="#5b00c0" d="M146,-30C146,-66.2215 133.6683,-81.7261 155,-111 195.117,-166.0534 227.1194,-176.0884 291.7785,-176.9371"/>
<polygon fill="#5b00c0" stroke="#5b00c0" points="291.9786,-180.4383 302,-177 292.0218,-173.4384 291.9786,-180.4383"/>
<text text-anchor="middle" x="162.5" y="-92.3" font-family="Times,serif" font-size="14.00" fill="#5b00c0">rw</text>
</g>
</g>
</svg>
