<?xml version="1.0" encoding="UTF-8" standalone="no"?>
<!DOCTYPE svg PUBLIC "-//W3C//DTD SVG 1.1//EN"
 "http://www.w3.org/Graphics/SVG/1.1/DTD/svg11.dtd">
<!-- Generated by graphviz version 2.40.1 (20161225.0304)
 -->
<!-- Title: a_graph Pages: 1 -->
<svg width="3412pt" height="200pt"
 viewBox="0.00 0.00 3412.00 200.00" xmlns="http://www.w3.org/2000/svg" xmlns:xlink="http://www.w3.org/1999/xlink">
<g id="graph0" class="graph" transform="scale(1 1) rotate(0) translate(4 196)">
<title>a_graph</title>
<polygon fill="#ffffff" stroke="transparent" points="-4,4 -4,-196 3408,-196 3408,4 -4,4"/>
<!-- T36571 -->
<g id="node1" class="node">
<title>T36571</title>
<polygon fill="none" stroke="#0058ad" points="0,-162.5 0,-191.5 3404,-191.5 3404,-162.5 0,-162.5"/>
<text text-anchor="middle" x="112" y="-173.3" font-family="Times,serif" font-size="14.00" fill="#0058ad">r 181 [2 3 4 5 6 7 8 9 11 12 10 13 14]</text>
<polyline fill="none" stroke="#0058ad" points="224,-162.5 224,-191.5 "/>
<text text-anchor="middle" x="256" y="-173.3" font-family="Times,serif" font-size="14.00" fill="#0058ad">a 179 94</text>
<polyline fill="none" stroke="#0058ad" points="288,-162.5 288,-191.5 "/>
<text text-anchor="middle" x="1073" y="-173.3" font-family="Times,serif" font-size="14.00" fill="#0058ad">r 179 [1 2 3 5 6 7 8 9 10 11 12 13 14 15 16 17 19 18 20 21 22 23 24 25 26 27 29 28 30 31 32 33 34 35 36 37 38 39 40 41 42 43 44 45 48 46 47 49 50 52 53 54 51 56 55 57 58 59 60 61 62 63 64 67 68 66 70 71 69 72 73 74 76 77 78 80 75 81 82 83 85 86 87 88 89 92 93 90 91 95 94]</text>
<polyline fill="none" stroke="#0058ad" points="1858,-162.5 1858,-191.5 "/>
<text text-anchor="middle" x="2631" y="-173.3" font-family="Times,serif" font-size="14.00" fill="#0058ad">r 180 [1 2 3 4 5 6 8 9 10 11 7 13 12 14 15 16 17 18 19 20 21 22 23 24 25 27 26 28 29 30 31 32 33 34 35 36 37 40 41 39 43 42 44 45 47 46 48 50 49 52 51 53 54 55 56 57 58 59 60 61 62 63 64 65 67 66 69 70 72 68 76 75 77 78 79 81 73 74 82 83 84 86 89 90 91 85 92 93 95 94]</text>
</g>
<!-- T36573 -->
<g id="node2" class="node">
<title>T36573</title>
<polygon fill="none" stroke="#0058ad" points="929,-81.5 929,-110.5 2475,-110.5 2475,-81.5 929,-81.5"/>
<text text-anchor="middle" x="1702" y="-92.3" font-family="Times,serif" font-size="14.00" fill="#0058ad">r 180 [1 2 3 4 5 6 8 9 10 11 7 13 12 14 15 16 17 18 19 20 21 22 23 24 25 27 26 28 29 30 31 32 33 34 35 36 37 40 41 39 43 42 44 45 47 46 48 50 49 52 51 53 54 55 56 57 58 59 60 61 62 63 64 65 67 66 69 70 72 68 76 75 77 78 79 81 73 74 82 83 84 86 89 90 91 85 92 93 95 94]</text>
</g>
<!-- T36571&#45;&gt;T36573 -->
<g id="edge2" class="edge">
<title>T36571&#45;&gt;T36573</title>
<path fill="none" stroke="#0050c0" d="M1702,-162.1434C1702,-150.6112 1702,-134.3668 1702,-120.8626"/>
<polygon fill="#0050c0" stroke="#0050c0" points="1705.5001,-120.7624 1702,-110.7625 1698.5001,-120.7625 1705.5001,-120.7624"/>
<text text-anchor="middle" x="1706.5" y="-132.8" font-family="Times,serif" font-size="14.00" fill="#0050c0">rt</text>
</g>
<!-- T36575 -->
<g id="node3" class="node">
<title>T36575</title>
<polygon fill="none" stroke="#0058ad" points="117,-.5 117,-29.5 3361,-29.5 3361,-.5 117,-.5"/>
<text text-anchor="middle" x="893.5" y="-11.3" font-family="Times,serif" font-size="14.00" fill="#0058ad">r 179 [1 2 3 5 6 7 8 9 10 11 12 13 14 15 16 17 19 18 20 21 22 23 24 25 26 27 29 28 30 31 32 33 34 35 36 37 38 39 40 41 42 43 44 45 48 46 47 49 50 52 53 54 51 56 55 57 58 59 60 61 62 63 64 67 68 66 70 71 69 72 73 74 76 77 78 80 75 81 82 83 85 86 87 88 89 92 93 90 91 95]</text>
<polyline fill="none" stroke="#0058ad" points="1670,-.5 1670,-29.5 "/>
<text text-anchor="middle" x="1702" y="-11.3" font-family="Times,serif" font-size="14.00" fill="#0058ad">a 180 97</text>
<polyline fill="none" stroke="#0058ad" points="1734,-.5 1734,-29.5 "/>
<text text-anchor="middle" x="1766" y="-11.3" font-family="Times,serif" font-size="14.00" fill="#0058ad">a 181 15</text>
<polyline fill="none" stroke="#0058ad" points="1798,-.5 1798,-29.5 "/>
<text text-anchor="middle" x="2579.5" y="-11.3" font-family="Times,serif" font-size="14.00" fill="#0058ad">r 180 [1 2 3 4 5 6 8 9 10 11 7 13 12 14 15 16 17 18 19 20 21 22 23 24 25 27 26 28 29 30 31 32 33 34 35 36 37 40 41 39 43 42 44 45 47 46 48 50 49 52 51 53 54 55 56 57 58 59 60 61 62 63 64 65 67 66 69 70 72 68 76 75 77 78 79 81 73 74 82 83 84 86 89 90 91 85 92 93 95 94 97]</text>
</g>
<!-- T36571&#45;&gt;T36575 -->
<g id="edge1" class="edge">
<title>T36571:f3&#45;&gt;T36575:f1</title>
<path fill="none" stroke="#5b00c0" d="M2631,-162C2631,-87.4048 2555.5992,-101.9283 2484,-81 2444.6604,-69.5011 1786.3457,-73.0382 1709.3345,-37.1687"/>
<polygon fill="#5b00c0" stroke="#5b00c0" points="1711.5979,-34.4868 1702,-30 1706.705,-39.4928 1711.5979,-34.4868"/>
<text text-anchor="middle" x="2612.5" y="-92.3" font-family="Times,serif" font-size="14.00" fill="#5b00c0">rw</text>
</g>
<!-- T36573&#45;&gt;T36575 -->
<g id="edge3" class="edge">
<title>T36573:f0&#45;&gt;T36575:f1</title>
<path fill="none" stroke="#5b00c0" d="M1702,-81.3204C1702,-70.4532 1702,-55.0147 1702,-40.1425"/>
<polygon fill="#5b00c0" stroke="#5b00c0" points="1705.5001,-40 1702,-30 1698.5001,-40 1705.5001,-40"/>
<text text-anchor="middle" x="1709.5" y="-51.8" font-family="Times,serif" font-size="14.00" fill="#5b00c0">rw</text>
</g>
<!-- T36575&#45;&gt;T36571 -->
<g id="edge4" class="edge">
<title>T36575:f0&#45;&gt;T36571:f1</title>
<path fill="none" stroke="#5b00c0" d="M893,-30C893,-315.5963 271.4568,116.3405 256.2824,-151.738"/>
<polygon fill="#5b00c0" stroke="#5b00c0" points="252.7765,-151.9075 256,-162 259.7739,-152.1001 252.7765,-151.9075"/>
<text text-anchor="middle" x="889.5" y="-92.3" font-family="Times,serif" font-size="14.00" fill="#5b00c0">rw</text>
</g>
</g>
</svg>
