<?xml version="1.0" encoding="UTF-8" standalone="no"?>
<!DOCTYPE svg PUBLIC "-//W3C//DTD SVG 1.1//EN"
 "http://www.w3.org/Graphics/SVG/1.1/DTD/svg11.dtd">
<!-- Generated by graphviz version 2.40.1 (20161225.0304)
 -->
<!-- Title: a_graph Pages: 1 -->
<svg width="4718pt" height="119pt"
 viewBox="0.00 0.00 4717.50 119.00" xmlns="http://www.w3.org/2000/svg" xmlns:xlink="http://www.w3.org/1999/xlink">
<g id="graph0" class="graph" transform="scale(1 1) rotate(0) translate(4 115)">
<title>a_graph</title>
<polygon fill="#ffffff" stroke="transparent" points="-4,4 -4,-115 4713.5,-115 4713.5,4 -4,4"/>
<!-- T15385 -->
<g id="node1" class="node">
<title>T15385</title>
<polygon fill="none" stroke="#0058ad" points="0,-81.5 0,-110.5 4084,-110.5 4084,-81.5 0,-81.5"/>
<text text-anchor="middle" x="629.5" y="-92.3" font-family="Times,serif" font-size="14.00" fill="#0058ad">r 69 [1 3 5 6 7 8 9 10 11 12 13 14 15 16 17 18 19 20 21 23 24 25 26 27 28 29 30 33 34 35 36 37 38 39 40 41 42 43 44 45 46 47 48 49 50 51 52 53 54 55 56 57 58 59 61 62 63 65 64 66 67 69 70 71 72 73 74 76 77 78 79 80 81]</text>
<polyline fill="none" stroke="#0058ad" points="1259,-81.5 1259,-110.5 "/>
<text text-anchor="middle" x="1287.5" y="-92.3" font-family="Times,serif" font-size="14.00" fill="#0058ad">a 78 43</text>
<polyline fill="none" stroke="#0058ad" points="1316,-81.5 1316,-110.5 "/>
<text text-anchor="middle" x="2008" y="-92.3" font-family="Times,serif" font-size="14.00" fill="#0058ad">r 80 [1 2 3 4 5 6 7 8 9 10 11 12 14 15 16 17 18 13 19 24 25 27 29 30 31 32 34 35 36 37 38 33 41 39 40 42 43 44 45 46 47 48 49 50 51 52 53 54 55 56 57 58 59 60 61 63 62 64 65 66 67 68 69 70 71 72 73 74 75 76 79 77 78 80 81 82 83 84 85 86 87]</text>
<polyline fill="none" stroke="#0058ad" points="2700,-81.5 2700,-110.5 "/>
<text text-anchor="middle" x="3392" y="-92.3" font-family="Times,serif" font-size="14.00" fill="#0058ad">r 80 [1 2 3 4 5 6 7 8 9 10 11 12 14 15 16 17 18 13 19 24 25 27 29 30 31 32 34 35 36 37 38 33 41 39 40 42 43 44 45 46 47 48 49 50 51 52 53 54 55 56 57 58 59 60 61 63 62 64 65 66 67 68 69 70 71 72 73 74 75 76 79 77 78 80 81 82 83 84 85 86 87]</text>
</g>
<!-- T15389 -->
<g id="node2" class="node">
<title>T15389</title>
<polygon fill="none" stroke="#0058ad" points="1156.5,-.5 1156.5,-29.5 4709.5,-29.5 4709.5,-.5 1156.5,-.5"/>
<text text-anchor="middle" x="1503.5" y="-11.3" font-family="Times,serif" font-size="14.00" fill="#0058ad">r 78 [1 2 3 4 5 6 7 8 9 11 12 13 14 15 16 17 18 19 20 21 22 23 24 25 26 27 28 30 29 31 32 33 34 35 37 36 38 40 39 41 42]</text>
<polyline fill="none" stroke="#0058ad" points="1850.5,-.5 1850.5,-29.5 "/>
<text text-anchor="middle" x="1879" y="-11.3" font-family="Times,serif" font-size="14.00" fill="#0058ad">a 80 88</text>
<polyline fill="none" stroke="#0058ad" points="1907.5,-.5 1907.5,-29.5 "/>
<text text-anchor="middle" x="2608" y="-11.3" font-family="Times,serif" font-size="14.00" fill="#0058ad">r 80 [1 2 3 4 5 6 7 8 9 10 11 12 14 15 16 17 18 13 19 24 25 27 29 30 31 32 34 35 36 37 38 33 41 39 40 42 43 44 45 46 47 48 49 50 51 52 53 54 55 56 57 58 59 60 61 63 62 64 65 66 67 68 69 70 71 72 73 74 75 76 79 77 78 80 81 82 83 84 85 86 87 88]</text>
<polyline fill="none" stroke="#0058ad" points="3308.5,-.5 3308.5,-29.5 "/>
<text text-anchor="middle" x="4009" y="-11.3" font-family="Times,serif" font-size="14.00" fill="#0058ad">r 80 [1 2 3 4 5 6 7 8 9 10 11 12 14 15 16 17 18 13 19 24 25 27 29 30 31 32 34 35 36 37 38 33 41 39 40 42 43 44 45 46 47 48 49 50 51 52 53 54 55 56 57 58 59 60 61 63 62 64 65 66 67 68 69 70 71 72 73 74 75 76 79 77 78 80 81 82 83 84 85 86 87 88]</text>
</g>
<!-- T15385&#45;&gt;T15389 -->
<g id="edge1" class="edge">
<title>T15385:f2&#45;&gt;T15389:f1</title>
<path fill="none" stroke="#5b00c0" d="M2008,-81C2008,-23.2019 1894.6211,-83.1368 1880.4487,-40.0553"/>
<polygon fill="#5b00c0" stroke="#5b00c0" points="1883.8904,-39.3987 1879,-30 1876.9619,-40.3969 1883.8904,-39.3987"/>
<text text-anchor="middle" x="2008.5" y="-51.8" font-family="Times,serif" font-size="14.00" fill="#5b00c0">rw</text>
</g>
<!-- T15389&#45;&gt;T15385 -->
<g id="edge2" class="edge">
<title>T15389:f0&#45;&gt;T15385:f1</title>
<path fill="none" stroke="#5b00c0" d="M1503,-30C1503,-124.9792 1302.7338,7.1203 1287.8703,-71.0054"/>
<polygon fill="#5b00c0" stroke="#5b00c0" points="1284.3808,-70.734 1287,-81 1291.3544,-71.3413 1284.3808,-70.734"/>
<text text-anchor="middle" x="1507.5" y="-51.8" font-family="Times,serif" font-size="14.00" fill="#5b00c0">rw</text>
</g>
</g>
</svg>
