<?xml version="1.0" encoding="UTF-8" standalone="no"?>
<!DOCTYPE svg PUBLIC "-//W3C//DTD SVG 1.1//EN"
 "http://www.w3.org/Graphics/SVG/1.1/DTD/svg11.dtd">
<!-- Generated by graphviz version 2.40.1 (20161225.0304)
 -->
<!-- Title: a_graph Pages: 1 -->
<svg width="1502pt" height="200pt"
 viewBox="0.00 0.00 1501.50 200.00" xmlns="http://www.w3.org/2000/svg" xmlns:xlink="http://www.w3.org/1999/xlink">
<g id="graph0" class="graph" transform="scale(1 1) rotate(0) translate(4 196)">
<title>a_graph</title>
<polygon fill="#ffffff" stroke="transparent" points="-4,4 -4,-196 1497.5,-196 1497.5,4 -4,4"/>
<!-- T38025 -->
<g id="node1" class="node">
<title>T38025</title>
<polygon fill="none" stroke="#0058ad" points="0,-162.5 0,-191.5 1439,-191.5 1439,-162.5 0,-162.5"/>
<text text-anchor="middle" x="32" y="-173.3" font-family="Times,serif" font-size="14.00" fill="#0058ad">a 182 54</text>
<polyline fill="none" stroke="#0058ad" points="64,-162.5 64,-191.5 "/>
<text text-anchor="middle" x="492" y="-173.3" font-family="Times,serif" font-size="14.00" fill="#0058ad">r 187 [2 3 1 4 5 6 7 8 9 10 11 12 13 15 14 16 17 18 19 20 21 22 23 24 26 27 28 25 29 30 31 32 34 33 35 36 37 38 39 40 41 42 43 44 46 45 47 48 49 51]</text>
<polyline fill="none" stroke="#0058ad" points="920,-162.5 920,-191.5 "/>
<text text-anchor="middle" x="952" y="-173.3" font-family="Times,serif" font-size="14.00" fill="#0058ad">a 187 50</text>
<polyline fill="none" stroke="#0058ad" points="984,-162.5 984,-191.5 "/>
<text text-anchor="middle" x="1211.5" y="-173.3" font-family="Times,serif" font-size="14.00" fill="#0058ad">r 188 [1 4 2 3 5 7 9 10 11 12 13 15 16 14 18 19 17 21 22 23 24 26 20 25 27 28]</text>
</g>
<!-- T38021 -->
<g id="node2" class="node">
<title>T38021</title>
<polygon fill="none" stroke="#0058ad" points="1106.5,-81.5 1106.5,-110.5 1170.5,-110.5 1170.5,-81.5 1106.5,-81.5"/>
<text text-anchor="middle" x="1138.5" y="-92.3" font-family="Times,serif" font-size="14.00" fill="#0058ad">a 188 29</text>
</g>
<!-- T38025&#45;&gt;T38021 -->
<g id="edge1" class="edge">
<title>T38025:f3&#45;&gt;T38021:f0</title>
<path fill="none" stroke="#5b00c0" d="M1211.5,-162C1211.5,-149.8907 1189.1185,-130.9561 1169.1413,-116.4675"/>
<polygon fill="#5b00c0" stroke="#5b00c0" points="1170.9835,-113.4834 1160.7991,-110.5631 1166.9395,-119.1971 1170.9835,-113.4834"/>
<text text-anchor="middle" x="1208" y="-132.8" font-family="Times,serif" font-size="14.00" fill="#5b00c0">rw</text>
</g>
<!-- T38023 -->
<g id="node3" class="node">
<title>T38023</title>
<polygon fill="none" stroke="#0058ad" points="637.5,-.5 637.5,-29.5 1493.5,-29.5 1493.5,-.5 637.5,-.5"/>
<text text-anchor="middle" x="1065.5" y="-11.3" font-family="Times,serif" font-size="14.00" fill="#0058ad">r 187 [2 3 1 4 5 6 7 8 9 10 11 12 13 15 14 16 17 18 19 20 21 22 23 24 26 27 28 25 29 30 31 32 34 33 35 36 37 38 39 40 41 42 43 44 46 45 47 48 49 51]</text>
</g>
<!-- T38021&#45;&gt;T38023 -->
<g id="edge2" class="edge">
<title>T38021&#45;&gt;T38023</title>
<path fill="none" stroke="#0050c0" d="M1125.1107,-81.1434C1114.1001,-68.9261 1098.323,-51.4201 1085.7656,-37.4865"/>
<polygon fill="#0050c0" stroke="#0050c0" points="1088.0991,-34.8477 1078.8044,-29.7625 1082.8992,-39.534 1088.0991,-34.8477"/>
<text text-anchor="middle" x="1113" y="-51.8" font-family="Times,serif" font-size="14.00" fill="#0050c0">rt</text>
</g>
<!-- T38023&#45;&gt;T38025 -->
<g id="edge3" class="edge">
<title>T38023:f0&#45;&gt;T38025:f2</title>
<path fill="none" stroke="#5b00c0" d="M1043.1748,-29.6725C1012.1728,-51.9035 959.1816,-97.3461 953.0781,-151.7424"/>
<polygon fill="#5b00c0" stroke="#5b00c0" points="949.5684,-151.8189 952.5,-162 956.5573,-152.2128 949.5684,-151.8189"/>
<text text-anchor="middle" x="992" y="-92.3" font-family="Times,serif" font-size="14.00" fill="#5b00c0">rw</text>
</g>
</g>
</svg>
