<?xml version="1.0" encoding="UTF-8" standalone="no"?>
<!DOCTYPE svg PUBLIC "-//W3C//DTD SVG 1.1//EN"
 "http://www.w3.org/Graphics/SVG/1.1/DTD/svg11.dtd">
<!-- Generated by graphviz version 2.40.1 (20161225.0304)
 -->
<!-- Title: a_graph Pages: 1 -->
<svg width="1404pt" height="200pt"
 viewBox="0.00 0.00 1404.00 200.00" xmlns="http://www.w3.org/2000/svg" xmlns:xlink="http://www.w3.org/1999/xlink">
<g id="graph0" class="graph" transform="scale(1 1) rotate(0) translate(4 196)">
<title>a_graph</title>
<polygon fill="#ffffff" stroke="transparent" points="-4,4 -4,-196 1400,-196 1400,4 -4,4"/>
<!-- T3205 -->
<g id="node1" class="node">
<title>T3205</title>
<polygon fill="none" stroke="#0058ad" points="0,-162.5 0,-191.5 1071,-191.5 1071,-162.5 0,-162.5"/>
<text text-anchor="middle" x="462.5" y="-173.3" font-family="Times,serif" font-size="14.00" fill="#0058ad">r 20 [1 2 3 4 5 6 7 8 10 13 14 15 17 18 19 21 22 23 25 26 27 28 20 33 29 30 31 32 35 34 36 37 38 40 39 41 43 42 44 45 46 47 50 51 52 49 56 53 54 55 57 58 59 60]</text>
<polyline fill="none" stroke="#0058ad" points="925,-162.5 925,-191.5 "/>
<text text-anchor="middle" x="953.5" y="-173.3" font-family="Times,serif" font-size="14.00" fill="#0058ad">a 20 61</text>
<polyline fill="none" stroke="#0058ad" points="982,-162.5 982,-191.5 "/>
<text text-anchor="middle" x="1026.5" y="-173.3" font-family="Times,serif" font-size="14.00" fill="#0058ad">r 22 [1 2 3 4]</text>
</g>
<!-- T3201 -->
<g id="node3" class="node">
<title>T3201</title>
<polygon fill="none" stroke="#0058ad" points="950.5,-81.5 950.5,-110.5 1210.5,-110.5 1210.5,-81.5 950.5,-81.5"/>
<text text-anchor="middle" x="975.5" y="-92.3" font-family="Times,serif" font-size="14.00" fill="#0058ad">a 23 7</text>
<polyline fill="none" stroke="#0058ad" points="1000.5,-81.5 1000.5,-110.5 "/>
<text text-anchor="middle" x="1055.5" y="-92.3" font-family="Times,serif" font-size="14.00" fill="#0058ad">r 23 [2 1 4 5 6 7]</text>
<polyline fill="none" stroke="#0058ad" points="1110.5,-81.5 1110.5,-110.5 "/>
<text text-anchor="middle" x="1135.5" y="-92.3" font-family="Times,serif" font-size="14.00" fill="#0058ad">a 22 5</text>
<polyline fill="none" stroke="#0058ad" points="1160.5,-81.5 1160.5,-110.5 "/>
<text text-anchor="middle" x="1185.5" y="-92.3" font-family="Times,serif" font-size="14.00" fill="#0058ad">a 23 8</text>
</g>
<!-- T3205&#45;&gt;T3201 -->
<g id="edge1" class="edge">
<title>T3205:f2&#45;&gt;T3201:f2</title>
<path fill="none" stroke="#5b00c0" d="M1071.5,-177C1108.8485,-177 1131.3919,-155.9952 1134.9908,-121.1799"/>
<polygon fill="#5b00c0" stroke="#5b00c0" points="1138.4959,-121.1624 1135.5,-111 1131.5047,-120.8126 1138.4959,-121.1624"/>
<text text-anchor="middle" x="1141" y="-132.8" font-family="Times,serif" font-size="14.00" fill="#5b00c0">rw</text>
</g>
<!-- T3203 -->
<g id="node2" class="node">
<title>T3203</title>
<polygon fill="none" stroke="#0058ad" points="471,-.5 471,-29.5 1396,-29.5 1396,-.5 471,-.5"/>
<text text-anchor="middle" x="933.5" y="-11.3" font-family="Times,serif" font-size="14.00" fill="#0058ad">r 20 [1 2 3 4 5 6 7 8 10 13 14 15 17 18 19 21 22 23 25 26 27 28 20 33 29 30 31 32 35 34 36 37 38 40 39 41 43 42 44 45 46 47 50 51 52 49 56 53 54 55 57 58 59 60]</text>
</g>
<!-- T3203&#45;&gt;T3205 -->
<g id="edge2" class="edge">
<title>T3203:f0&#45;&gt;T3205:f1</title>
<path fill="none" stroke="#5b00c0" d="M929.6481,-29.5529C925.2436,-48.5722 919.4909,-82.7804 926.5,-111 931.7163,-132.0017 947.3518,-135.6121 952.1105,-151.6332"/>
<polygon fill="#5b00c0" stroke="#5b00c0" points="948.7025,-152.5536 953.5,-162 955.6404,-151.6236 948.7025,-152.5536"/>
<text text-anchor="middle" x="934" y="-92.3" font-family="Times,serif" font-size="14.00" fill="#5b00c0">rw</text>
</g>
<!-- T3201&#45;&gt;T3203 -->
<g id="edge3" class="edge">
<title>T3201&#45;&gt;T3203</title>
<path fill="none" stroke="#0050c0" d="M1053.8794,-81.3315C1030.0479,-68.1999 994.9314,-48.8499 968.7696,-34.4343"/>
<polygon fill="#0050c0" stroke="#0050c0" points="970.3701,-31.32 959.9225,-29.5594 966.9918,-37.4509 970.3701,-31.32"/>
<text text-anchor="middle" x="1024" y="-51.8" font-family="Times,serif" font-size="14.00" fill="#0050c0">rt</text>
</g>
</g>
</svg>
