<?xml version="1.0" encoding="UTF-8" standalone="no"?>
<!DOCTYPE svg PUBLIC "-//W3C//DTD SVG 1.1//EN"
 "http://www.w3.org/Graphics/SVG/1.1/DTD/svg11.dtd">
<!-- Generated by graphviz version 2.40.1 (20161225.0304)
 -->
<!-- Title: a_graph Pages: 1 -->
<svg width="2386pt" height="119pt"
 viewBox="0.00 0.00 2386.00 119.00" xmlns="http://www.w3.org/2000/svg" xmlns:xlink="http://www.w3.org/1999/xlink">
<g id="graph0" class="graph" transform="scale(1 1) rotate(0) translate(4 115)">
<title>a_graph</title>
<polygon fill="#ffffff" stroke="transparent" points="-4,4 -4,-115 2382,-115 2382,4 -4,4"/>
<!-- T12381 -->
<g id="node1" class="node">
<title>T12381</title>
<polygon fill="none" stroke="#0058ad" points="0,-81.5 0,-110.5 2378,-110.5 2378,-81.5 0,-81.5"/>
<text text-anchor="middle" x="566" y="-92.3" font-family="Times,serif" font-size="14.00" fill="#0058ad">r 64 [1 2 3 4 5 6 8 9 10 12 14 13 15 16 17 20 18 19 21 22 23 24 25 26 27 28 29 30 32 33 34 35 36 37 38 39 40 41 42 43 44 45 46 49 50 51 52 53 54 55 56 58 57 61 62 63 59 60 64 66 67 68 70 65 73 74]</text>
<polyline fill="none" stroke="#0058ad" points="1132,-81.5 1132,-110.5 "/>
<text text-anchor="middle" x="1160.5" y="-92.3" font-family="Times,serif" font-size="14.00" fill="#0058ad">a 61 56</text>
<polyline fill="none" stroke="#0058ad" points="1189,-81.5 1189,-110.5 "/>
<text text-anchor="middle" x="1755" y="-92.3" font-family="Times,serif" font-size="14.00" fill="#0058ad">r 64 [1 2 3 4 5 6 8 9 10 12 14 13 15 16 17 20 18 19 21 22 23 24 25 26 27 28 29 30 32 33 34 35 36 37 38 39 40 41 42 43 44 45 46 49 50 51 52 53 54 55 56 58 57 61 62 63 59 60 64 66 67 68 70 65 73 74]</text>
<polyline fill="none" stroke="#0058ad" points="2321,-81.5 2321,-110.5 "/>
<text text-anchor="middle" x="2349.5" y="-92.3" font-family="Times,serif" font-size="14.00" fill="#0058ad">a 63 55</text>
</g>
<!-- T12379 -->
<g id="node2" class="node">
<title>T12379</title>
<polygon fill="none" stroke="#0058ad" points="553,-.5 553,-29.5 1413,-29.5 1413,-.5 553,-.5"/>
<text text-anchor="middle" x="581.5" y="-11.3" font-family="Times,serif" font-size="14.00" fill="#0058ad">a 52 97</text>
<polyline fill="none" stroke="#0058ad" points="610,-.5 610,-29.5 "/>
<text text-anchor="middle" x="638.5" y="-11.3" font-family="Times,serif" font-size="14.00" fill="#0058ad">a 64 72</text>
<polyline fill="none" stroke="#0058ad" points="667,-.5 667,-29.5 "/>
<text text-anchor="middle" x="1040" y="-11.3" font-family="Times,serif" font-size="14.00" fill="#0058ad">r 61 [2 3 1 4 5 6 7 8 9 10 11 12 13 14 15 25 27 26 28 29 30 31 32 33 34 35 36 37 38 39 40 41 42 43 44 45 46 47 48 49 50 51 52 53]</text>
</g>
<!-- T12381&#45;&gt;T12379 -->
<g id="edge1" class="edge">
<title>T12381:f0&#45;&gt;T12379:f1</title>
<path fill="none" stroke="#5b00c0" d="M566,-81C566,-45.7682 624.1177,-64.3304 635.9228,-40.0255"/>
<polygon fill="#5b00c0" stroke="#5b00c0" points="639.3983,-40.5021 638,-30 632.5439,-39.0819 639.3983,-40.5021"/>
<text text-anchor="middle" x="635.5" y="-51.8" font-family="Times,serif" font-size="14.00" fill="#5b00c0">rw</text>
</g>
<!-- T12379&#45;&gt;T12381 -->
<g id="edge2" class="edge">
<title>T12379:f2&#45;&gt;T12381:f1</title>
<path fill="none" stroke="#5b00c0" d="M1040,-30C1040,-84.1019 1144.5917,-31.1277 1158.4828,-71.0085"/>
<polygon fill="#5b00c0" stroke="#5b00c0" points="1155.0383,-71.6388 1160,-81 1161.9589,-70.5878 1155.0383,-71.6388"/>
<text text-anchor="middle" x="1158.5" y="-51.8" font-family="Times,serif" font-size="14.00" fill="#5b00c0">rw</text>
</g>
</g>
</svg>
