<?xml version="1.0" encoding="UTF-8" standalone="no"?>
<!DOCTYPE svg PUBLIC "-//W3C//DTD SVG 1.1//EN"
 "http://www.w3.org/Graphics/SVG/1.1/DTD/svg11.dtd">
<!-- Generated by graphviz version 2.40.1 (20161225.0304)
 -->
<!-- Title: a_graph Pages: 1 -->
<svg width="2420pt" height="119pt"
 viewBox="0.00 0.00 2420.00 119.00" xmlns="http://www.w3.org/2000/svg" xmlns:xlink="http://www.w3.org/1999/xlink">
<g id="graph0" class="graph" transform="scale(1 1) rotate(0) translate(4 115)">
<title>a_graph</title>
<polygon fill="#ffffff" stroke="transparent" points="-4,4 -4,-115 2416,-115 2416,4 -4,4"/>
<!-- T28989 -->
<g id="node1" class="node">
<title>T28989</title>
<polygon fill="none" stroke="#0058ad" points="0,-81.5 0,-110.5 2412,-110.5 2412,-81.5 0,-81.5"/>
<text text-anchor="middle" x="410.5" y="-92.3" font-family="Times,serif" font-size="14.00" fill="#0058ad">r 144 [1 2 3 4 5 6 7 8 9 10 11 12 13 14 15 16 17 18 19 20 21 23 24 22 25 26 27 28 29 30 31 32 33 34 35 36 37 38 39 40 41 43 42 44 45 46 48 50]</text>
<polyline fill="none" stroke="#0058ad" points="821,-81.5 821,-110.5 "/>
<text text-anchor="middle" x="1559.5" y="-92.3" font-family="Times,serif" font-size="14.00" fill="#0058ad">r 132 [1 2 4 5 3 6 7 8 9 10 11 12 13 14 15 16 17 19 20 21 22 23 24 25 26 27 28 30 29 31 32 33 36 37 38 39 40 41 42 43 44 45 46 47 48 49 50 51 52 54 55 56 57 58 60 61 62 63 64 65 66 67 68 69 71 73 75 74 76 77 78 79 80 81 82 83 84 85 86 87 88 89 90 91 92 93]</text>
<polyline fill="none" stroke="#0058ad" points="2298,-81.5 2298,-110.5 "/>
<text text-anchor="middle" x="2323" y="-92.3" font-family="Times,serif" font-size="14.00" fill="#0058ad">a 2 78</text>
<polyline fill="none" stroke="#0058ad" points="2348,-81.5 2348,-110.5 "/>
<text text-anchor="middle" x="2380" y="-92.3" font-family="Times,serif" font-size="14.00" fill="#0058ad">a 141 62</text>
</g>
<!-- T28983 -->
<g id="node2" class="node">
<title>T28983</title>
<polygon fill="none" stroke="#0058ad" points="741,-.5 741,-29.5 2273,-29.5 2273,-.5 741,-.5"/>
<text text-anchor="middle" x="773" y="-11.3" font-family="Times,serif" font-size="14.00" fill="#0058ad">a 144 51</text>
<polyline fill="none" stroke="#0058ad" points="805,-.5 805,-29.5 "/>
<text text-anchor="middle" x="837" y="-11.3" font-family="Times,serif" font-size="14.00" fill="#0058ad">a 145 27</text>
<polyline fill="none" stroke="#0058ad" points="869,-.5 869,-29.5 "/>
<text text-anchor="middle" x="1074" y="-11.3" font-family="Times,serif" font-size="14.00" fill="#0058ad">r 145 [1 2 6 7 8 9 10 13 11 12 16 17 18 20 19 21 22 23 24 25 26 29 27]</text>
<polyline fill="none" stroke="#0058ad" points="1279,-.5 1279,-29.5 "/>
<text text-anchor="middle" x="1776" y="-11.3" font-family="Times,serif" font-size="14.00" fill="#0058ad">r 141 [1 2 3 4 5 6 7 8 10 9 11 12 13 14 15 16 17 18 19 20 21 22 23 24 25 26 27 29 28 30 32 31 33 34 35 36 37 38 39 41 40 42 43 45 46 44 47 48 49 50 51 52 53 54 55 57 60 61]</text>
</g>
<!-- T28989&#45;&gt;T28983 -->
<g id="edge1" class="edge">
<title>T28989:f0&#45;&gt;T28983:f0</title>
<path fill="none" stroke="#5b00c0" d="M410,-81C410,-45.9153 666.8837,-18.711 730.7054,-15.3499"/>
<polygon fill="#5b00c0" stroke="#5b00c0" points="731.1247,-18.8378 741,-15 730.8868,-11.8418 731.1247,-18.8378"/>
<text text-anchor="middle" x="490.5" y="-51.8" font-family="Times,serif" font-size="14.00" fill="#5b00c0">rw</text>
</g>
<!-- T28983&#45;&gt;T28989 -->
<g id="edge2" class="edge">
<title>T28983:f3&#45;&gt;T28989:f3</title>
<path fill="none" stroke="#5b00c0" d="M2273,-15C2325.2733,-15 2373.3899,-23.8622 2379.3753,-70.7567"/>
<polygon fill="#5b00c0" stroke="#5b00c0" points="2375.8976,-71.2316 2380,-81 2382.8846,-70.8054 2375.8976,-71.2316"/>
<text text-anchor="middle" x="2384.5" y="-51.8" font-family="Times,serif" font-size="14.00" fill="#5b00c0">rw</text>
</g>
</g>
</svg>
