<?xml version="1.0" encoding="UTF-8" standalone="no"?>
<!DOCTYPE svg PUBLIC "-//W3C//DTD SVG 1.1//EN"
 "http://www.w3.org/Graphics/SVG/1.1/DTD/svg11.dtd">
<!-- Generated by graphviz version 2.40.1 (20161225.0304)
 -->
<!-- Title: a_graph Pages: 1 -->
<svg width="3287pt" height="119pt"
 viewBox="0.00 0.00 3287.00 119.00" xmlns="http://www.w3.org/2000/svg" xmlns:xlink="http://www.w3.org/1999/xlink">
<g id="graph0" class="graph" transform="scale(1 1) rotate(0) translate(4 115)">
<title>a_graph</title>
<polygon fill="#ffffff" stroke="transparent" points="-4,4 -4,-115 3283,-115 3283,4 -4,4"/>
<!-- T16465 -->
<g id="node1" class="node">
<title>T16465</title>
<polygon fill="none" stroke="#0058ad" points="120.5,-81.5 120.5,-110.5 2916.5,-110.5 2916.5,-81.5 120.5,-81.5"/>
<text text-anchor="middle" x="496.5" y="-92.3" font-family="Times,serif" font-size="14.00" fill="#0058ad">r 84 [2 3 4 7 5 6 8 9 10 11 12 13 15 16 17 18 19 20 14 21 22 23 24 25 26 27 30 34 28 35 36 37 38 39 40 41 42 43 44 45 46 47 48 49]</text>
<polyline fill="none" stroke="#0058ad" points="872.5,-81.5 872.5,-110.5 "/>
<text text-anchor="middle" x="1248.5" y="-92.3" font-family="Times,serif" font-size="14.00" fill="#0058ad">r 84 [2 3 4 7 5 6 8 9 10 11 12 13 15 16 17 18 19 20 14 21 22 23 24 25 26 27 30 34 28 35 36 37 38 39 40 41 42 43 44 45 46 47 48 49]</text>
<polyline fill="none" stroke="#0058ad" points="1624.5,-81.5 1624.5,-110.5 "/>
<text text-anchor="middle" x="2242" y="-92.3" font-family="Times,serif" font-size="14.00" fill="#0058ad">r 82 [1 2 3 5 6 7 8 9 10 11 12 13 14 15 16 17 19 18 20 21 22 23 24 25 26 27 30 29 28 31 32 33 34 35 36 37 38 39 40 41 42 43 44 45 46 47 48 49 50 51 52 54 53 56 55 58 59 57 60 61 63 64 65 66 67 68 69 70 71 73 74 75]</text>
<polyline fill="none" stroke="#0058ad" points="2859.5,-81.5 2859.5,-110.5 "/>
<text text-anchor="middle" x="2888" y="-92.3" font-family="Times,serif" font-size="14.00" fill="#0058ad">a 82 72</text>
</g>
<!-- T16461 -->
<g id="node2" class="node">
<title>T16461</title>
<polygon fill="none" stroke="#0058ad" points="0,-.5 0,-29.5 3279,-29.5 3279,-.5 0,-.5"/>
<text text-anchor="middle" x="376" y="-11.3" font-family="Times,serif" font-size="14.00" fill="#0058ad">r 84 [2 3 4 7 5 6 8 9 10 11 12 13 15 16 17 18 19 20 14 21 22 23 24 25 26 27 30 34 28 35 36 37 38 39 40 41 42 43 44 45 46 47 48 49]</text>
<polyline fill="none" stroke="#0058ad" points="752,-.5 752,-29.5 "/>
<text text-anchor="middle" x="1369.5" y="-11.3" font-family="Times,serif" font-size="14.00" fill="#0058ad">r 82 [1 2 3 5 6 7 8 9 10 11 12 13 14 15 16 17 19 18 20 21 22 23 24 25 26 27 30 29 28 31 32 33 34 35 36 37 38 39 40 41 42 43 44 45 46 47 48 49 50 51 52 54 53 56 55 58 59 57 60 61 63 64 65 66 67 68 69 70 71 73 74 75]</text>
<polyline fill="none" stroke="#0058ad" points="1987,-.5 1987,-29.5 "/>
<text text-anchor="middle" x="2015.5" y="-11.3" font-family="Times,serif" font-size="14.00" fill="#0058ad">a 84 50</text>
<polyline fill="none" stroke="#0058ad" points="2044,-.5 2044,-29.5 "/>
<text text-anchor="middle" x="2661.5" y="-11.3" font-family="Times,serif" font-size="14.00" fill="#0058ad">r 82 [1 2 3 5 6 7 8 9 10 11 12 13 14 15 16 17 19 18 20 21 22 23 24 25 26 27 30 29 28 31 32 33 34 35 36 37 38 39 40 41 42 43 44 45 46 47 48 49 50 51 52 54 53 56 55 58 59 57 60 61 63 64 65 66 67 68 69 70 71 73 74 75]</text>
</g>
<!-- T16465&#45;&gt;T16461 -->
<g id="edge1" class="edge">
<title>T16465:f0&#45;&gt;T16461:f2</title>
<path fill="none" stroke="#5b00c0" d="M496.5,-81C496.5,84.4097 1953.8361,-187.3034 2013.6097,-39.8226"/>
<polygon fill="#5b00c0" stroke="#5b00c0" points="2017.0471,-40.4813 2015.5,-30 2010.1732,-39.1584 2017.0471,-40.4813"/>
<text text-anchor="middle" x="2015" y="-51.8" font-family="Times,serif" font-size="14.00" fill="#5b00c0">rw</text>
</g>
<!-- T16461&#45;&gt;T16465 -->
<g id="edge2" class="edge">
<title>T16461:f1&#45;&gt;T16465:f3</title>
<path fill="none" stroke="#5b00c0" d="M1369.5,-30C1369.5,-48.2568 2008.253,-47.4008 2026.5,-48 2118.7414,-51.0291 2832.5565,10.0452 2885.408,-70.9862"/>
<polygon fill="#5b00c0" stroke="#5b00c0" points="2882.2054,-72.4778 2888.5,-81 2888.8938,-70.4125 2882.2054,-72.4778"/>
<text text-anchor="middle" x="2882" y="-51.8" font-family="Times,serif" font-size="14.00" fill="#5b00c0">rw</text>
</g>
</g>
</svg>
