<?xml version="1.0" encoding="UTF-8" standalone="no"?>
<!DOCTYPE svg PUBLIC "-//W3C//DTD SVG 1.1//EN"
 "http://www.w3.org/Graphics/SVG/1.1/DTD/svg11.dtd">
<!-- Generated by graphviz version 2.40.1 (20161225.0304)
 -->
<!-- Title: a_graph Pages: 1 -->
<svg width="2739pt" height="119pt"
 viewBox="0.00 0.00 2739.00 119.00" xmlns="http://www.w3.org/2000/svg" xmlns:xlink="http://www.w3.org/1999/xlink">
<g id="graph0" class="graph" transform="scale(1 1) rotate(0) translate(4 115)">
<title>a_graph</title>
<polygon fill="#ffffff" stroke="transparent" points="-4,4 -4,-115 2735,-115 2735,4 -4,4"/>
<!-- T21881 -->
<g id="node1" class="node">
<title>T21881</title>
<polygon fill="none" stroke="#0058ad" points="0,-81.5 0,-110.5 1439,-110.5 1439,-81.5 0,-81.5"/>
<text text-anchor="middle" x="652" y="-92.3" font-family="Times,serif" font-size="14.00" fill="#0058ad">r 100 [1 2 3 4 5 6 7 8 9 10 11 12 13 15 16 17 20 21 22 23 24 25 26 27 28 29 30 31 32 33 34 35 36 37 38 39 40 41 42 43 44 45 46 47 48 49 50 51 52 53 54 55 56 57 58 59 60 61 62 63 64 65 66 67 68 69 70 71 72 74 75 76 77 78 79 80]</text>
<polyline fill="none" stroke="#0058ad" points="1304,-81.5 1304,-110.5 "/>
<text text-anchor="middle" x="1339.5" y="-92.3" font-family="Times,serif" font-size="14.00" fill="#0058ad">a 106 120</text>
<polyline fill="none" stroke="#0058ad" points="1375,-81.5 1375,-110.5 "/>
<text text-anchor="middle" x="1407" y="-92.3" font-family="Times,serif" font-size="14.00" fill="#0058ad">a 110 12</text>
</g>
<!-- T21882 -->
<g id="node2" class="node">
<title>T21882</title>
<polygon fill="none" stroke="#0058ad" points="420,-.5 420,-29.5 2731,-29.5 2731,-.5 420,-.5"/>
<text text-anchor="middle" x="452" y="-11.3" font-family="Times,serif" font-size="14.00" fill="#0058ad">a 100 81</text>
<polyline fill="none" stroke="#0058ad" points="484,-.5 484,-29.5 "/>
<text text-anchor="middle" x="516" y="-11.3" font-family="Times,serif" font-size="14.00" fill="#0058ad">a 109 10</text>
<polyline fill="none" stroke="#0058ad" points="548,-.5 548,-29.5 "/>
<text text-anchor="middle" x="580" y="-11.3" font-family="Times,serif" font-size="14.00" fill="#0058ad">a 109 11</text>
<polyline fill="none" stroke="#0058ad" points="612,-.5 612,-29.5 "/>
<text text-anchor="middle" x="1671.5" y="-11.3" font-family="Times,serif" font-size="14.00" fill="#0058ad">r 106 [1 2 3 4 5 7 8 10 11 9 12 14 15 16 17 18 19 20 21 22 23 24 25 26 27 28 29 30 31 32 33 34 35 36 37 38 39 40 41 43 44 45 46 47 48 50 51 52 53 54 55 56 57 58 59 60 61 62 63 64 65 66 67 68 69 70 73 74 71 72 75 76 79 77 78 80 81 82 84 85 83 86 87 88 89 90 91 92 93 94 95 96 97 98 99 101 103 104 102 100 105 106 107 108 109 110 111 113 114 112 115 116 117 118 119]</text>
</g>
<!-- T21881&#45;&gt;T21882 -->
<g id="edge1" class="edge">
<title>T21881:f0&#45;&gt;T21882:f0</title>
<path fill="none" stroke="#5b00c0" d="M651.5,-81C651.5,6.9709 467.5698,-111.2441 452.4818,-40.1869"/>
<polygon fill="#5b00c0" stroke="#5b00c0" points="455.9433,-39.6181 451.5,-30 448.9755,-40.2897 455.9433,-39.6181"/>
<text text-anchor="middle" x="654" y="-51.8" font-family="Times,serif" font-size="14.00" fill="#5b00c0">rw</text>
</g>
<!-- T21882&#45;&gt;T21881 -->
<g id="edge2" class="edge">
<title>T21882:f3&#45;&gt;T21881:f1</title>
<path fill="none" stroke="#5b00c0" d="M1671.5,-30C1671.5,-175.6417 1355.5131,56.4344 1340.084,-70.764"/>
<polygon fill="#5b00c0" stroke="#5b00c0" points="1336.5754,-70.8168 1339.5,-81 1343.564,-71.2156 1336.5754,-70.8168"/>
<text text-anchor="middle" x="1675" y="-51.8" font-family="Times,serif" font-size="14.00" fill="#5b00c0">rw</text>
</g>
</g>
</svg>
