<?xml version="1.0" encoding="UTF-8" standalone="no"?>
<!DOCTYPE svg PUBLIC "-//W3C//DTD SVG 1.1//EN"
 "http://www.w3.org/Graphics/SVG/1.1/DTD/svg11.dtd">
<!-- Generated by graphviz version 2.40.1 (20161225.0304)
 -->
<!-- Title: a_graph Pages: 1 -->
<svg width="889pt" height="200pt"
 viewBox="0.00 0.00 889.00 200.00" xmlns="http://www.w3.org/2000/svg" xmlns:xlink="http://www.w3.org/1999/xlink">
<g id="graph0" class="graph" transform="scale(1 1) rotate(0) translate(4 196)">
<title>a_graph</title>
<polygon fill="#ffffff" stroke="transparent" points="-4,4 -4,-196 885,-196 885,4 -4,4"/>
<!-- T165 -->
<g id="node1" class="node">
<title>T165</title>
<polygon fill="none" stroke="#0058ad" points="0,-162.5 0,-191.5 607,-191.5 607,-162.5 0,-162.5"/>
<text text-anchor="middle" x="25" y="-173.3" font-family="Times,serif" font-size="14.00" fill="#0058ad">a 7 10</text>
<polyline fill="none" stroke="#0058ad" points="50,-162.5 50,-191.5 "/>
<text text-anchor="middle" x="232.5" y="-173.3" font-family="Times,serif" font-size="14.00" fill="#0058ad">r 8 [1 8 9 10 11 12 13 14 15 16 17 18 19 20 21 22 24 23 26 25]</text>
<polyline fill="none" stroke="#0058ad" points="415,-162.5 415,-191.5 "/>
<text text-anchor="middle" x="486" y="-173.3" font-family="Times,serif" font-size="14.00" fill="#0058ad">r 7 [2 3 4 5 6 7 8 9 10]</text>
<polyline fill="none" stroke="#0058ad" points="557,-162.5 557,-191.5 "/>
<text text-anchor="middle" x="582" y="-173.3" font-family="Times,serif" font-size="14.00" fill="#0058ad">a 7 11</text>
</g>
<!-- T164 -->
<g id="node2" class="node">
<title>T164</title>
<polygon fill="none" stroke="#0058ad" points="114,-81.5 114,-110.5 881,-110.5 881,-81.5 114,-81.5"/>
<text text-anchor="middle" x="139" y="-92.3" font-family="Times,serif" font-size="14.00" fill="#0058ad">a 8 27</text>
<polyline fill="none" stroke="#0058ad" points="164,-81.5 164,-110.5 "/>
<text text-anchor="middle" x="522.5" y="-92.3" font-family="Times,serif" font-size="14.00" fill="#0058ad">r 9 [7 9 13 15 16 17 18 14 19 20 23 24 25 21 22 26 27 28 29 30 31 32 33 34 35 36 37 38 39 40 41 42 43 44 45 46 47 48 49 50]</text>
</g>
<!-- T165&#45;&gt;T164 -->
<g id="edge1" class="edge">
<title>T165:f1&#45;&gt;T164:f0</title>
<path fill="none" stroke="#5b00c0" d="M232.5,-162C232.5,-118.3684 153.2893,-151.9182 140.2938,-120.9491"/>
<polygon fill="#5b00c0" stroke="#5b00c0" points="143.7189,-120.2202 138.5,-111 136.83,-121.4624 143.7189,-120.2202"/>
<text text-anchor="middle" x="230" y="-132.8" font-family="Times,serif" font-size="14.00" fill="#5b00c0">rw</text>
</g>
<!-- T163 -->
<g id="node3" class="node">
<title>T163</title>
<polygon fill="none" stroke="#0058ad" points="88,-.5 88,-29.5 263,-29.5 263,-.5 88,-.5"/>
<text text-anchor="middle" x="150.5" y="-11.3" font-family="Times,serif" font-size="14.00" fill="#0058ad">r 7 [2 3 4 5 6 7 8 9]</text>
<polyline fill="none" stroke="#0058ad" points="213,-.5 213,-29.5 "/>
<text text-anchor="middle" x="238" y="-11.3" font-family="Times,serif" font-size="14.00" fill="#0058ad">a 9 51</text>
</g>
<!-- T164&#45;&gt;T163 -->
<g id="edge2" class="edge">
<title>T164:f1&#45;&gt;T163:f1</title>
<path fill="none" stroke="#5b00c0" d="M522.5,-81C522.5,-24.6213 342.6526,-15.807 273.5886,-15.0571"/>
<polygon fill="#5b00c0" stroke="#5b00c0" points="273.5197,-11.5568 263.5,-15 273.48,-18.5567 273.5197,-11.5568"/>
<text text-anchor="middle" x="521" y="-51.8" font-family="Times,serif" font-size="14.00" fill="#5b00c0">rw</text>
</g>
<!-- T163&#45;&gt;T165 -->
<g id="edge3" class="edge">
<title>T163:f0&#45;&gt;T165:f0</title>
<path fill="none" stroke="#5b00c0" d="M87.5,-15C19.7514,-15 23.9164,-83.9688 24.4557,-151.9807"/>
<polygon fill="#5b00c0" stroke="#5b00c0" points="20.9557,-152.0156 24.5,-162 27.9557,-151.9846 20.9557,-152.0156"/>
<text text-anchor="middle" x="34" y="-92.3" font-family="Times,serif" font-size="14.00" fill="#5b00c0">rw</text>
</g>
</g>
</svg>
