<?xml version="1.0" encoding="UTF-8" standalone="no"?>
<!DOCTYPE svg PUBLIC "-//W3C//DTD SVG 1.1//EN"
 "http://www.w3.org/Graphics/SVG/1.1/DTD/svg11.dtd">
<!-- Generated by graphviz version 2.40.1 (20161225.0304)
 -->
<!-- Title: a_graph Pages: 1 -->
<svg width="3052pt" height="119pt"
 viewBox="0.00 0.00 3052.00 119.00" xmlns="http://www.w3.org/2000/svg" xmlns:xlink="http://www.w3.org/1999/xlink">
<g id="graph0" class="graph" transform="scale(1 1) rotate(0) translate(4 115)">
<title>a_graph</title>
<polygon fill="#ffffff" stroke="transparent" points="-4,4 -4,-115 3048,-115 3048,4 -4,4"/>
<!-- T19553 -->
<g id="node1" class="node">
<title>T19553</title>
<polygon fill="none" stroke="#0058ad" points="0,-81.5 0,-110.5 3044,-110.5 3044,-81.5 0,-81.5"/>
<text text-anchor="middle" x="735" y="-92.3" font-family="Times,serif" font-size="14.00" fill="#0058ad">r 70 [1 2 3 4 5 6 7 8 9 10 11 12 13 14 15 16 18 19 20 21 22 23 24 25 26 27 28 29 30 31 32 33 34 35 36 37 38 40 41 42 43 44 46 47 48 49 50 51 52 53 54 55 57 56 58 62 61 63 64 65 66 67 68 69 70 71 72 73 74 75 78 79 80 81 82 83 84 86 87 88 89 90 91 92 93 94]</text>
<polyline fill="none" stroke="#0058ad" points="1470,-81.5 1470,-110.5 "/>
<text text-anchor="middle" x="1502" y="-92.3" font-family="Times,serif" font-size="14.00" fill="#0058ad">a 97 112</text>
<polyline fill="none" stroke="#0058ad" points="1534,-81.5 1534,-110.5 "/>
<text text-anchor="middle" x="2260.5" y="-92.3" font-family="Times,serif" font-size="14.00" fill="#0058ad">r 93 [1 2 3 4 5 6 7 8 9 11 10 12 13 14 15 16 17 18 19 20 21 22 24 23 25 26 27 28 29 30 31 33 32 34 35 36 37 38 39 40 41 42 43 44 45 46 47 48 49 50 51 52 55 56 57 58 60 59 61 62 63 64 65 66 67 53 54 71 73 74 75 72 76 77 78 79 80 81 82 83 84 85 86 87 88]</text>
<polyline fill="none" stroke="#0058ad" points="2987,-81.5 2987,-110.5 "/>
<text text-anchor="middle" x="3015.5" y="-92.3" font-family="Times,serif" font-size="14.00" fill="#0058ad">a 98 38</text>
</g>
<!-- T19554 -->
<g id="node2" class="node">
<title>T19554</title>
<polygon fill="none" stroke="#0058ad" points="501.5,-.5 501.5,-29.5 2442.5,-29.5 2442.5,-.5 501.5,-.5"/>
<text text-anchor="middle" x="1411.5" y="-11.3" font-family="Times,serif" font-size="14.00" fill="#0058ad">r 97 [1 2 3 4 5 6 7 8 9 10 11 13 14 15 12 16 17 18 19 20 25 21 22 23 24 26 27 28 29 31 32 33 30 34 35 36 37 46 47 48 49 50 51 52 53 55 56 54 57 58 59 60 61 62 63 64 65 66 67 68 69 70 71 72 73 74 75 76 77 78 79 80 81 82 83 84 85 86 87 88 89 90 91 92 93 94 95 96 97 98 99 100 101 102 103 104 106 107 108 109 110 111]</text>
<polyline fill="none" stroke="#0058ad" points="2321.5,-.5 2321.5,-29.5 "/>
<text text-anchor="middle" x="2353.5" y="-11.3" font-family="Times,serif" font-size="14.00" fill="#0058ad">a 86 112</text>
<polyline fill="none" stroke="#0058ad" points="2385.5,-.5 2385.5,-29.5 "/>
<text text-anchor="middle" x="2414" y="-11.3" font-family="Times,serif" font-size="14.00" fill="#0058ad">a 93 89</text>
</g>
<!-- T19553&#45;&gt;T19554 -->
<g id="edge1" class="edge">
<title>T19553:f2&#45;&gt;T19554:f2</title>
<path fill="none" stroke="#5b00c0" d="M2261,-81C2261,-13.1016 2398.2888,-92.3937 2412.7684,-40.0193"/>
<polygon fill="#5b00c0" stroke="#5b00c0" points="2416.2538,-40.3523 2414,-30 2409.3061,-39.4983 2416.2538,-40.3523"/>
<text text-anchor="middle" x="2414.5" y="-51.8" font-family="Times,serif" font-size="14.00" fill="#5b00c0">rw</text>
</g>
<!-- T19554&#45;&gt;T19553 -->
<g id="edge2" class="edge">
<title>T19554:f0&#45;&gt;T19553:f1</title>
<path fill="none" stroke="#5b00c0" d="M1411,-30C1411,-72.3787 1487.0314,-41.1581 1500.0993,-70.8869"/>
<polygon fill="#5b00c0" stroke="#5b00c0" points="1496.7131,-71.8186 1502,-81 1503.5926,-70.5256 1496.7131,-71.8186"/>
<text text-anchor="middle" x="1499.5" y="-51.8" font-family="Times,serif" font-size="14.00" fill="#5b00c0">rw</text>
</g>
</g>
</svg>
