<?xml version="1.0" encoding="UTF-8" standalone="no"?>
<!DOCTYPE svg PUBLIC "-//W3C//DTD SVG 1.1//EN"
 "http://www.w3.org/Graphics/SVG/1.1/DTD/svg11.dtd">
<!-- Generated by graphviz version 2.40.1 (20161225.0304)
 -->
<!-- Title: a_graph Pages: 1 -->
<svg width="1496pt" height="119pt"
 viewBox="0.00 0.00 1495.50 119.00" xmlns="http://www.w3.org/2000/svg" xmlns:xlink="http://www.w3.org/1999/xlink">
<g id="graph0" class="graph" transform="scale(1 1) rotate(0) translate(4 115)">
<title>a_graph</title>
<polygon fill="#ffffff" stroke="transparent" points="-4,4 -4,-115 1491.5,-115 1491.5,4 -4,4"/>
<!-- T22381 -->
<g id="node1" class="node">
<title>T22381</title>
<polygon fill="none" stroke="#0058ad" points="132.5,-81.5 132.5,-110.5 1487.5,-110.5 1487.5,-81.5 132.5,-81.5"/>
<text text-anchor="middle" x="164.5" y="-92.3" font-family="Times,serif" font-size="14.00" fill="#0058ad">a 112 45</text>
<polyline fill="none" stroke="#0058ad" points="196.5,-81.5 196.5,-110.5 "/>
<text text-anchor="middle" x="232" y="-92.3" font-family="Times,serif" font-size="14.00" fill="#0058ad">a 100 100</text>
<polyline fill="none" stroke="#0058ad" points="267.5,-81.5 267.5,-110.5 "/>
<text text-anchor="middle" x="299.5" y="-92.3" font-family="Times,serif" font-size="14.00" fill="#0058ad">a 112 46</text>
<polyline fill="none" stroke="#0058ad" points="331.5,-81.5 331.5,-110.5 "/>
<text text-anchor="middle" x="909.5" y="-92.3" font-family="Times,serif" font-size="14.00" fill="#0058ad">r 111 [2 3 4 5 6 7 8 9 10 11 12 13 14 15 16 17 18 19 20 21 22 24 23 26 27 28 29 30 31 33 32 34 35 36 37 38 39 41 42 43 40 44 45 48 49 55 56 50 51 52 57 60 61 58 59 62 63 64 65 66 67 68 69 70 71 72 73]</text>
</g>
<!-- T22383 -->
<g id="node2" class="node">
<title>T22383</title>
<polygon fill="none" stroke="#0058ad" points="0,-.5 0,-29.5 816,-29.5 816,-.5 0,-.5"/>
<text text-anchor="middle" x="376" y="-11.3" font-family="Times,serif" font-size="14.00" fill="#0058ad">r 112 [1 2 5 3 4 7 8 9 6 10 11 12 13 17 14 15 16 18 19 20 22 23 24 25 21 26 27 28 29 30 31 33 34 35 36 38 40 37 41 39 42 43 44 48]</text>
<polyline fill="none" stroke="#0058ad" points="752,-.5 752,-29.5 "/>
<text text-anchor="middle" x="784" y="-11.3" font-family="Times,serif" font-size="14.00" fill="#0058ad">a 111 74</text>
</g>
<!-- T22381&#45;&gt;T22383 -->
<g id="edge1" class="edge">
<title>T22381:f3&#45;&gt;T22383:f1</title>
<path fill="none" stroke="#5b00c0" d="M910,-81C910,-33.3426 872.5625,-17.1451 826.0523,-15.204"/>
<polygon fill="#5b00c0" stroke="#5b00c0" points="826.069,-11.7037 816,-15 825.9269,-18.7023 826.069,-11.7037"/>
<text text-anchor="middle" x="914.5" y="-51.8" font-family="Times,serif" font-size="14.00" fill="#5b00c0">rw</text>
</g>
<!-- T22383&#45;&gt;T22381 -->
<g id="edge2" class="edge">
<title>T22383:f0&#45;&gt;T22381:f0</title>
<path fill="none" stroke="#5b00c0" d="M376,-30C376,-123.1247 180.239,5.1182 164.9452,-70.7121"/>
<polygon fill="#5b00c0" stroke="#5b00c0" points="161.4297,-70.7217 164,-81 168.4003,-71.3622 161.4297,-70.7217"/>
<text text-anchor="middle" x="379.5" y="-51.8" font-family="Times,serif" font-size="14.00" fill="#5b00c0">rw</text>
</g>
</g>
</svg>
