<?xml version="1.0" encoding="UTF-8" standalone="no"?>
<!DOCTYPE svg PUBLIC "-//W3C//DTD SVG 1.1//EN"
 "http://www.w3.org/Graphics/SVG/1.1/DTD/svg11.dtd">
<!-- Generated by graphviz version 2.40.1 (20161225.0304)
 -->
<!-- Title: a_graph Pages: 1 -->
<svg width="1463pt" height="200pt"
 viewBox="0.00 0.00 1463.24 200.00" xmlns="http://www.w3.org/2000/svg" xmlns:xlink="http://www.w3.org/1999/xlink">
<g id="graph0" class="graph" transform="scale(1 1) rotate(0) translate(4 196)">
<title>a_graph</title>
<polygon fill="#ffffff" stroke="transparent" points="-4,4 -4,-196 1459.2431,-196 1459.2431,4 -4,4"/>
<!-- T36801 -->
<g id="node1" class="node">
<title>T36801</title>
<polygon fill="none" stroke="#0058ad" points="0,-162.5 0,-191.5 1224,-191.5 1224,-162.5 0,-162.5"/>
<text text-anchor="middle" x="290" y="-173.3" font-family="Times,serif" font-size="14.00" fill="#0058ad">r 183 [1 2 3 4 5 8 6 7 9 10 11 13 14 12 15 16 18 20 17 19 21 22 23 24 25 26 27 28 29 30 31 32 33 34]</text>
<polyline fill="none" stroke="#0058ad" points="580,-162.5 580,-191.5 "/>
<text text-anchor="middle" x="870" y="-173.3" font-family="Times,serif" font-size="14.00" fill="#0058ad">r 183 [1 2 3 4 5 8 6 7 9 10 11 13 14 12 15 16 18 20 17 19 21 22 23 24 25 26 27 28 29 30 31 32 33 34]</text>
<polyline fill="none" stroke="#0058ad" points="1160,-162.5 1160,-191.5 "/>
<text text-anchor="middle" x="1192" y="-173.3" font-family="Times,serif" font-size="14.00" fill="#0058ad">a 183 35</text>
</g>
<!-- T36805 -->
<g id="node3" class="node">
<title>T36805</title>
<polygon fill="none" stroke="#0058ad" points="673.5,-81.5 673.5,-110.5 1356.5,-110.5 1356.5,-81.5 673.5,-81.5"/>
<text text-anchor="middle" x="716.5" y="-92.3" font-family="Times,serif" font-size="14.00" fill="#0058ad">r 184 [1 2 3]</text>
<polyline fill="none" stroke="#0058ad" points="759.5,-81.5 759.5,-110.5 "/>
<text text-anchor="middle" x="1058" y="-92.3" font-family="Times,serif" font-size="14.00" fill="#0058ad">r 183 [1 2 3 4 5 8 6 7 9 10 11 13 14 12 15 16 18 20 17 19 21 22 23 24 25 26 27 28 29 30 31 32 33 34 35]</text>
</g>
<!-- T36801&#45;&gt;T36805 -->
<g id="edge1" class="edge">
<title>T36801:f2&#45;&gt;T36805:f1</title>
<path fill="none" stroke="#c000a5" d="M1192,-162C1192,-102.1351 1073.7353,-165.9798 1059.4142,-121.0954"/>
<polygon fill="#c000a5" stroke="#c000a5" points="1062.8535,-120.4177 1058,-111 1055.9212,-121.3889 1062.8535,-120.4177"/>
<text text-anchor="middle" x="1192.5" y="-132.8" font-family="Times,serif" font-size="14.00" fill="#c000a5">wr</text>
</g>
<!-- T36807 -->
<g id="node4" class="node">
<title>T36807</title>
<polygon fill="none" stroke="#0058ad" points="569,-81.5 569,-110.5 655,-110.5 655,-81.5 569,-81.5"/>
<text text-anchor="middle" x="612" y="-92.3" font-family="Times,serif" font-size="14.00" fill="#0058ad">r 184 [1 2 3]</text>
</g>
<!-- T36801&#45;&gt;T36807 -->
<g id="edge2" class="edge">
<title>T36801&#45;&gt;T36807</title>
<path fill="none" stroke="#0050c0" d="M612,-162.1434C612,-150.6112 612,-134.3668 612,-120.8626"/>
<polygon fill="#0050c0" stroke="#0050c0" points="615.5001,-120.7624 612,-110.7625 608.5001,-120.7625 615.5001,-120.7624"/>
<text text-anchor="middle" x="616.5" y="-132.8" font-family="Times,serif" font-size="14.00" fill="#0050c0">rt</text>
</g>
<!-- T36811 -->
<g id="node2" class="node">
<title>T36811</title>
<polygon fill="none" stroke="#0058ad" points="153,-.5 153,-29.5 1421,-29.5 1421,-.5 153,-.5"/>
<text text-anchor="middle" x="420.5" y="-11.3" font-family="Times,serif" font-size="14.00" fill="#0058ad">r 181 [2 3 4 5 6 7 8 9 11 12 10 13 14 15 16 17 18 19 20 21 22 23 24 25 26 29 27 28 30 31 32]</text>
<polyline fill="none" stroke="#0058ad" points="688,-.5 688,-29.5 "/>
<text text-anchor="middle" x="716.5" y="-11.3" font-family="Times,serif" font-size="14.00" fill="#0058ad">a 184 5</text>
<polyline fill="none" stroke="#0058ad" points="745,-.5 745,-29.5 "/>
<text text-anchor="middle" x="793" y="-11.3" font-family="Times,serif" font-size="14.00" fill="#0058ad">r 184 [1 2 3 5]</text>
<polyline fill="none" stroke="#0058ad" points="841,-.5 841,-29.5 "/>
<text text-anchor="middle" x="1131" y="-11.3" font-family="Times,serif" font-size="14.00" fill="#0058ad">r 183 [1 2 3 4 5 8 6 7 9 10 11 13 14 12 15 16 18 20 17 19 21 22 23 24 25 26 27 28 29 30 31 32 33 34]</text>
</g>
<!-- T36811&#45;&gt;T36801 -->
<g id="edge3" class="edge">
<title>T36811:f3&#45;&gt;T36801:f2</title>
<path fill="none" stroke="#5b00c0" d="M1421,-15C1531.0367,-15 1348.6343,-167.6469 1234.1685,-176.591"/>
<polygon fill="#5b00c0" stroke="#5b00c0" points="1233.8512,-173.1008 1224,-177 1234.1326,-180.0952 1233.8512,-173.1008"/>
<text text-anchor="middle" x="1429.5" y="-92.3" font-family="Times,serif" font-size="14.00" fill="#5b00c0">rw</text>
</g>
<!-- T36805&#45;&gt;T36811 -->
<g id="edge4" class="edge">
<title>T36805:f0&#45;&gt;T36811:f1</title>
<path fill="none" stroke="#5b00c0" d="M716,-81C716,-62.2292 716,-55.1168 716,-40.3535"/>
<polygon fill="#5b00c0" stroke="#5b00c0" points="719.5001,-40 716,-30 712.5001,-40 719.5001,-40"/>
<text text-anchor="middle" x="723.5" y="-51.8" font-family="Times,serif" font-size="14.00" fill="#5b00c0">rw</text>
</g>
<!-- T36807&#45;&gt;T36811 -->
<g id="edge5" class="edge">
<title>T36807:f0&#45;&gt;T36811:f1</title>
<path fill="none" stroke="#5b00c0" d="M630.4845,-81.4643C643.6281,-71.4548 661.9123,-58.1784 679,-48 690.5379,-41.1274 705.0838,-44.5038 711.9973,-39.5397"/>
<polygon fill="#5b00c0" stroke="#5b00c0" points="715.3583,-40.5754 716,-30 708.9035,-37.867 715.3583,-40.5754"/>
<text text-anchor="middle" x="686.5" y="-51.8" font-family="Times,serif" font-size="14.00" fill="#5b00c0">rw</text>
</g>
</g>
</svg>
