<?xml version="1.0" encoding="UTF-8" standalone="no"?>
<!DOCTYPE svg PUBLIC "-//W3C//DTD SVG 1.1//EN"
 "http://www.w3.org/Graphics/SVG/1.1/DTD/svg11.dtd">
<!-- Generated by graphviz version 2.40.1 (20161225.0304)
 -->
<!-- Title: a_graph Pages: 1 -->
<svg width="4944pt" height="200pt"
 viewBox="0.00 0.00 4944.00 200.00" xmlns="http://www.w3.org/2000/svg" xmlns:xlink="http://www.w3.org/1999/xlink">
<g id="graph0" class="graph" transform="scale(1 1) rotate(0) translate(4 196)">
<title>a_graph</title>
<polygon fill="#ffffff" stroke="transparent" points="-4,4 -4,-196 4940,-196 4940,4 -4,4"/>
<!-- T35701 -->
<g id="node1" class="node">
<title>T35701</title>
<polygon fill="none" stroke="#0058ad" points="3429,-162.5 3429,-191.5 4711,-191.5 4711,-162.5 3429,-162.5"/>
<text text-anchor="middle" x="3461" y="-173.3" font-family="Times,serif" font-size="14.00" fill="#0058ad">a 174 74</text>
<polyline fill="none" stroke="#0058ad" points="3493,-162.5 3493,-191.5 "/>
<text text-anchor="middle" x="4102" y="-173.3" font-family="Times,serif" font-size="14.00" fill="#0058ad">r 174 [1 2 3 4 5 6 7 8 10 9 13 11 12 15 14 16 17 18 20 19 21 22 23 24 25 26 27 28 29 30 31 32 33 34 35 36 37 38 39 40 41 42 43 44 46 47 45 48 49 50 51 52 53 54 55 56 57 58 59 60 61 62 64 66 67 68 69 70 71 73 74]</text>
</g>
<!-- T35705 -->
<g id="node2" class="node">
<title>T35705</title>
<polygon fill="none" stroke="#0058ad" points="0,-81.5 0,-110.5 3594,-110.5 3594,-81.5 0,-81.5"/>
<text text-anchor="middle" x="643.5" y="-92.3" font-family="Times,serif" font-size="14.00" fill="#0058ad">r 176 [1 2 3 6 4 5 7 8 9 10 11 15 14 16 17 18 12 13 20 19 22 21 23 24 25 26 27 28 29 30 31 32 33 35 36 37 38 39 40 41 42 43 44 45 46 47 50 51 48 49 52 53 55 56 57 58 60 59 61 62 63 66 64 65 67 68 69 70 71 72 75 76 77 80 78]</text>
<polyline fill="none" stroke="#0058ad" points="1287,-81.5 1287,-110.5 "/>
<text text-anchor="middle" x="1319" y="-92.3" font-family="Times,serif" font-size="14.00" fill="#0058ad">a 177 63</text>
<polyline fill="none" stroke="#0058ad" points="1351,-81.5 1351,-110.5 "/>
<text text-anchor="middle" x="1863.5" y="-92.3" font-family="Times,serif" font-size="14.00" fill="#0058ad">r 177 [1 2 3 4 8 7 10 13 14 15 16 17 18 9 11 12 19 20 21 23 24 25 26 27 29 30 31 32 28 33 36 37 38 40 41 42 34 39 44 45 43 46 49 50 51 47 48 52 55 53 54 56 57 58 59 61 62 60 63]</text>
<polyline fill="none" stroke="#0058ad" points="2376,-81.5 2376,-110.5 "/>
<text text-anchor="middle" x="2985" y="-92.3" font-family="Times,serif" font-size="14.00" fill="#0058ad">r 174 [1 2 3 4 5 6 7 8 10 9 13 11 12 15 14 16 17 18 20 19 21 22 23 24 25 26 27 28 29 30 31 32 33 34 35 36 37 38 39 40 41 42 43 44 46 47 45 48 49 50 51 52 53 54 55 56 57 58 59 60 61 62 64 66 67 68 69 70 71 73 74]</text>
</g>
<!-- T35701&#45;&gt;T35705 -->
<g id="edge1" class="edge">
<title>T35701:f0&#45;&gt;T35705:f3</title>
<path fill="none" stroke="#c000a5" d="M3429,-177C3422.3333,-177 3425.0427,-167.3651 3429,-162 3474.5617,-100.2288 3548.4383,-172.7712 3594,-111 3595.113,-109.4911 3596.1272,-107.6444 3596.862,-105.7693"/>
<polygon fill="#c000a5" stroke="#c000a5" points="3600.1703,-104.6126 3594,-96 3593.4526,-106.5807 3600.1703,-104.6126"/>
<text text-anchor="middle" x="3581.5" y="-132.8" font-family="Times,serif" font-size="14.00" fill="#c000a5">wr</text>
</g>
<!-- T35703 -->
<g id="node3" class="node">
<title>T35703</title>
<polygon fill="none" stroke="#0058ad" points="816,-.5 816,-29.5 4936,-29.5 4936,-.5 816,-.5"/>
<text text-anchor="middle" x="1319.5" y="-11.3" font-family="Times,serif" font-size="14.00" fill="#0058ad">r 177 [1 2 3 4 8 7 10 13 14 15 16 17 18 9 11 12 19 20 21 23 24 25 26 27 29 30 31 32 28 33 36 37 38 40 41 42 34 39 44 45 43 46 49 50 51 47 48 52 55 53 54 56 57 58 59 61 62 60]</text>
<polyline fill="none" stroke="#0058ad" points="1823,-.5 1823,-29.5 "/>
<text text-anchor="middle" x="2423.5" y="-11.3" font-family="Times,serif" font-size="14.00" fill="#0058ad">r 174 [1 2 3 4 5 6 7 8 10 9 13 11 12 15 14 16 17 18 20 19 21 22 23 24 25 26 27 28 29 30 31 32 33 34 35 36 37 38 39 40 41 42 43 44 46 47 45 48 49 50 51 52 53 54 55 56 57 58 59 60 61 62 64 66 67 68 69 70 71 73]</text>
<polyline fill="none" stroke="#0058ad" points="3024,-.5 3024,-29.5 "/>
<text text-anchor="middle" x="3056" y="-11.3" font-family="Times,serif" font-size="14.00" fill="#0058ad">a 176 79</text>
<polyline fill="none" stroke="#0058ad" points="3088,-.5 3088,-29.5 "/>
<text text-anchor="middle" x="4012" y="-11.3" font-family="Times,serif" font-size="14.00" fill="#0058ad">r 166 [1 2 3 4 5 6 8 9 10 11 12 13 14 15 16 17 18 19 20 21 22 23 24 25 26 27 28 29 30 31 32 33 34 35 36 37 38 39 40 41 42 43 44 45 46 47 48 49 50 51 52 53 54 55 56 58 59 60 57 61 62 63 65 64 66 67 68 69 70 71 72 73 74 76 77 78 79 80 81 82 83 84 85 86 87 88 89 90 91 92 93 94 96 97 98 99 100 101 103 102 104 105 106 107]</text>
</g>
<!-- T35705&#45;&gt;T35703 -->
<g id="edge2" class="edge">
<title>T35705:f0&#45;&gt;T35703:f2</title>
<path fill="none" stroke="#5b00c0" d="M643,-81C643,-72.9347 2877.9647,-40.9184 3046.0236,-31.0522"/>
<polygon fill="#5b00c0" stroke="#5b00c0" points="3046.4223,-34.5296 3056,-30 3045.688,-27.5682 3046.4223,-34.5296"/>
<text text-anchor="middle" x="2214.5" y="-51.8" font-family="Times,serif" font-size="14.00" fill="#5b00c0">rw</text>
</g>
<!-- T35703&#45;&gt;T35701 -->
<g id="edge4" class="edge">
<title>T35703:f1&#45;&gt;T35701:f0</title>
<path fill="none" stroke="#5b00c0" d="M2423,-30C2423,-161.2335 3512.2295,13.7784 3603,-81 3622.6093,-101.4751 3614.5729,-125.6053 3593,-144 3573.3766,-160.7324 3487.7787,-139.508 3466.0365,-153.3266"/>
<polygon fill="#5b00c0" stroke="#5b00c0" points="3462.995,-151.5947 3461,-162 3469.0484,-155.1098 3462.995,-151.5947"/>
<text text-anchor="middle" x="3622.5" y="-92.3" font-family="Times,serif" font-size="14.00" fill="#5b00c0">rw</text>
</g>
<!-- T35703&#45;&gt;T35705 -->
<g id="edge3" class="edge">
<title>T35703:f0&#45;&gt;T35705:f1</title>
<path fill="none" stroke="#5b00c0" d="M1319,-30C1319,-48.7708 1319,-55.8832 1319,-70.6465"/>
<polygon fill="#5b00c0" stroke="#5b00c0" points="1315.5001,-71 1319,-81 1322.5001,-71 1315.5001,-71"/>
<text text-anchor="middle" x="1326.5" y="-51.8" font-family="Times,serif" font-size="14.00" fill="#5b00c0">rw</text>
</g>
</g>
</svg>
