<?xml version="1.0" encoding="UTF-8" standalone="no"?>
<!DOCTYPE svg PUBLIC "-//W3C//DTD SVG 1.1//EN"
 "http://www.w3.org/Graphics/SVG/1.1/DTD/svg11.dtd">
<!-- Generated by graphviz version 2.40.1 (20161225.0304)
 -->
<!-- Title: a_graph Pages: 1 -->
<svg width="1434pt" height="119pt"
 viewBox="0.00 0.00 1434.00 119.00" xmlns="http://www.w3.org/2000/svg" xmlns:xlink="http://www.w3.org/1999/xlink">
<g id="graph0" class="graph" transform="scale(1 1) rotate(0) translate(4 115)">
<title>a_graph</title>
<polygon fill="#ffffff" stroke="transparent" points="-4,4 -4,-115 1430,-115 1430,4 -4,4"/>
<!-- T27721 -->
<g id="node1" class="node">
<title>T27721</title>
<polygon fill="none" stroke="#0058ad" points="404,-81.5 404,-110.5 1426,-110.5 1426,-81.5 404,-81.5"/>
<text text-anchor="middle" x="457.5" y="-92.3" font-family="Times,serif" font-size="14.00" fill="#0058ad">r 138 [2 4 3 6 5]</text>
<polyline fill="none" stroke="#0058ad" points="511,-81.5 511,-110.5 "/>
<text text-anchor="middle" x="543" y="-92.3" font-family="Times,serif" font-size="14.00" fill="#0058ad">a 137 40</text>
<polyline fill="none" stroke="#0058ad" points="575,-81.5 575,-110.5 "/>
<text text-anchor="middle" x="607" y="-92.3" font-family="Times,serif" font-size="14.00" fill="#0058ad">a 132 49</text>
<polyline fill="none" stroke="#0058ad" points="639,-81.5 639,-110.5 "/>
<text text-anchor="middle" x="1032.5" y="-92.3" font-family="Times,serif" font-size="14.00" fill="#0058ad">r 132 [1 2 4 5 3 6 7 8 9 10 11 12 13 14 15 16 17 19 20 21 22 23 24 25 26 27 28 30 29 31 32 33 36 37 38 39 40 41 42 43 44 45 46 47 48 49]</text>
</g>
<!-- T27722 -->
<g id="node2" class="node">
<title>T27722</title>
<polygon fill="none" stroke="#0058ad" points="0,-.5 0,-29.5 1378,-29.5 1378,-.5 0,-.5"/>
<text text-anchor="middle" x="316" y="-11.3" font-family="Times,serif" font-size="14.00" fill="#0058ad">r 137 [1 3 2 4 5 6 8 9 10 11 12 13 14 15 7 16 17 19 20 21 22 23 24 25 26 28 31 32 33 30 29 34 35 36 37 38 39]</text>
<polyline fill="none" stroke="#0058ad" points="632,-.5 632,-29.5 "/>
<text text-anchor="middle" x="660.5" y="-11.3" font-family="Times,serif" font-size="14.00" fill="#0058ad">a 138 7</text>
<polyline fill="none" stroke="#0058ad" points="689,-.5 689,-29.5 "/>
<text text-anchor="middle" x="717.5" y="-11.3" font-family="Times,serif" font-size="14.00" fill="#0058ad">a 138 8</text>
<polyline fill="none" stroke="#0058ad" points="746,-.5 746,-29.5 "/>
<text text-anchor="middle" x="1062" y="-11.3" font-family="Times,serif" font-size="14.00" fill="#0058ad">r 137 [1 3 2 4 5 6 8 9 10 11 12 13 14 15 7 16 17 19 20 21 22 23 24 25 26 28 31 32 33 30 29 34 35 36 37 38 39]</text>
</g>
<!-- T27721&#45;&gt;T27722 -->
<g id="edge1" class="edge">
<title>T27721:f0&#45;&gt;T27722:f1</title>
<path fill="none" stroke="#5b00c0" d="M457,-81C457,-62.5998 465.9559,-57.0086 482,-48 497.0311,-39.5601 619.8512,-47.1709 652.2101,-36.3778"/>
<polygon fill="#5b00c0" stroke="#5b00c0" points="654.4797,-39.0431 660,-30 650.0452,-33.6268 654.4797,-39.0431"/>
<text text-anchor="middle" x="489.5" y="-51.8" font-family="Times,serif" font-size="14.00" fill="#5b00c0">rw</text>
</g>
<!-- T27722&#45;&gt;T27721 -->
<g id="edge2" class="edge">
<title>T27722:f0&#45;&gt;T27721:f1</title>
<path fill="none" stroke="#5b00c0" d="M316,-30C316,-50.2103 478.0903,-40.867 497,-48 516.8635,-55.4929 535.9554,-55.9221 541.4367,-70.987"/>
<polygon fill="#5b00c0" stroke="#5b00c0" points="537.9992,-71.6596 543,-81 544.9154,-70.5798 537.9992,-71.6596"/>
<text text-anchor="middle" x="543.5" y="-51.8" font-family="Times,serif" font-size="14.00" fill="#5b00c0">rw</text>
</g>
</g>
</svg>
