<?xml version="1.0" encoding="UTF-8" standalone="no"?>
<!DOCTYPE svg PUBLIC "-//W3C//DTD SVG 1.1//EN"
 "http://www.w3.org/Graphics/SVG/1.1/DTD/svg11.dtd">
<!-- Generated by graphviz version 2.40.1 (20161225.0304)
 -->
<!-- Title: a_graph Pages: 1 -->
<svg width="1487pt" height="119pt"
 viewBox="0.00 0.00 1487.00 119.00" xmlns="http://www.w3.org/2000/svg" xmlns:xlink="http://www.w3.org/1999/xlink">
<g id="graph0" class="graph" transform="scale(1 1) rotate(0) translate(4 115)">
<title>a_graph</title>
<polygon fill="#ffffff" stroke="transparent" points="-4,4 -4,-115 1483,-115 1483,4 -4,4"/>
<!-- T36133 -->
<g id="node1" class="node">
<title>T36133</title>
<polygon fill="none" stroke="#0058ad" points="945,-81.5 945,-110.5 1164,-110.5 1164,-81.5 945,-81.5"/>
<text text-anchor="middle" x="1022.5" y="-92.3" font-family="Times,serif" font-size="14.00" fill="#0058ad">r 179 [1 2 3 5 6 7 8 9 10]</text>
<polyline fill="none" stroke="#0058ad" points="1100,-81.5 1100,-110.5 "/>
<text text-anchor="middle" x="1132" y="-92.3" font-family="Times,serif" font-size="14.00" fill="#0058ad">a 178 88</text>
</g>
<!-- T36131 -->
<g id="node2" class="node">
<title>T36131</title>
<polygon fill="none" stroke="#0058ad" points="0,-.5 0,-29.5 1479,-29.5 1479,-.5 0,-.5"/>
<text text-anchor="middle" x="707.5" y="-11.3" font-family="Times,serif" font-size="14.00" fill="#0058ad">r 178 [1 2 3 4 6 8 9 10 11 7 12 13 14 15 17 16 18 19 20 21 22 23 24 25 27 28 29 30 31 33 34 35 36 26 32 38 39 41 42 43 37 47 49 50 51 48 52 53 54 55 56 57 58 59 60 61 62 63 64 65 66 67 68 69 70 71 72 73 74 75 76 78 79 77 80 81 82 83 84 85 86 87]</text>
<polyline fill="none" stroke="#0058ad" points="1415,-.5 1415,-29.5 "/>
<text text-anchor="middle" x="1447" y="-11.3" font-family="Times,serif" font-size="14.00" fill="#0058ad">a 179 11</text>
</g>
<!-- T36133&#45;&gt;T36131 -->
<g id="edge1" class="edge">
<title>T36133:f0&#45;&gt;T36131:f1</title>
<path fill="none" stroke="#5b00c0" d="M1022.5,-81C1022.5,-52.4931 1050.2205,-56.2749 1077.5,-48 1095.3475,-42.5862 1384.7234,-49.1037 1438.8245,-35.0559"/>
<polygon fill="#5b00c0" stroke="#5b00c0" points="1440.6224,-38.0591 1447.5,-30 1437.0978,-32.0112 1440.6224,-38.0591"/>
<text text-anchor="middle" x="1085" y="-51.8" font-family="Times,serif" font-size="14.00" fill="#5b00c0">rw</text>
</g>
<!-- T36131&#45;&gt;T36133 -->
<g id="edge2" class="edge">
<title>T36131:f0&#45;&gt;T36133:f1</title>
<path fill="none" stroke="#5b00c0" d="M707.5,-30C707.5,-51.4123 1072.5233,-40.2918 1092.5,-48 1110.3061,-54.8707 1126.0525,-57.1875 1130.9393,-70.8698"/>
<polygon fill="#5b00c0" stroke="#5b00c0" points="1127.5181,-71.6496 1132.5,-81 1134.4364,-70.5836 1127.5181,-71.6496"/>
<text text-anchor="middle" x="1132" y="-51.8" font-family="Times,serif" font-size="14.00" fill="#5b00c0">rw</text>
</g>
</g>
</svg>
