<?xml version="1.0" encoding="UTF-8" standalone="no"?>
<!DOCTYPE svg PUBLIC "-//W3C//DTD SVG 1.1//EN"
 "http://www.w3.org/Graphics/SVG/1.1/DTD/svg11.dtd">
<!-- Generated by graphviz version 2.40.1 (20161225.0304)
 -->
<!-- Title: a_graph Pages: 1 -->
<svg width="2772pt" height="119pt"
 viewBox="0.00 0.00 2772.00 119.00" xmlns="http://www.w3.org/2000/svg" xmlns:xlink="http://www.w3.org/1999/xlink">
<g id="graph0" class="graph" transform="scale(1 1) rotate(0) translate(4 115)">
<title>a_graph</title>
<polygon fill="#ffffff" stroke="transparent" points="-4,4 -4,-115 2768,-115 2768,4 -4,4"/>
<!-- T2023 -->
<g id="node1" class="node">
<title>T2023</title>
<polygon fill="none" stroke="#0058ad" points="0,-81.5 0,-110.5 2764,-110.5 2764,-81.5 0,-81.5"/>
<text text-anchor="middle" x="662.5" y="-92.3" font-family="Times,serif" font-size="14.00" fill="#0058ad">r 16 [3 4 6 8 9 10 12 13 15 16 18 17 19 20 21 22 23 24 25 28 26 27 29 31 32 33 34 30 35 36 37 38 39 40 41 42 43 44 47 45 46 49 50 51 52 53 48 55 57 56 58 59 60 61 62 63 64 65 66 67 69 68 70 71 72 73 74 75 76 77 80 78 79 81 82 84]</text>
<polyline fill="none" stroke="#0058ad" points="1325,-81.5 1325,-110.5 "/>
<text text-anchor="middle" x="1987.5" y="-92.3" font-family="Times,serif" font-size="14.00" fill="#0058ad">r 16 [3 4 6 8 9 10 12 13 15 16 18 17 19 20 21 22 23 24 25 28 26 27 29 31 32 33 34 30 35 36 37 38 39 40 41 42 43 44 47 45 46 49 50 51 52 53 48 55 57 56 58 59 60 61 62 63 64 65 66 67 69 68 70 71 72 73 74 75 76 77 80 78 79 81 82 84]</text>
<polyline fill="none" stroke="#0058ad" points="2650,-81.5 2650,-110.5 "/>
<text text-anchor="middle" x="2678.5" y="-92.3" font-family="Times,serif" font-size="14.00" fill="#0058ad">a 14 45</text>
<polyline fill="none" stroke="#0058ad" points="2707,-81.5 2707,-110.5 "/>
<text text-anchor="middle" x="2735.5" y="-92.3" font-family="Times,serif" font-size="14.00" fill="#0058ad">a 14 46</text>
</g>
<!-- T2019 -->
<g id="node2" class="node">
<title>T2019</title>
<polygon fill="none" stroke="#0058ad" points="672.5,-.5 672.5,-29.5 2553.5,-29.5 2553.5,-.5 672.5,-.5"/>
<text text-anchor="middle" x="998.5" y="-11.3" font-family="Times,serif" font-size="14.00" fill="#0058ad">r 14 [4 6 7 5 9 10 11 15 16 17 18 19 20 21 22 24 25 26 27 23 28 29 30 32 31 33 34 35 36 37 38 39 40 41 42 43 44]</text>
<polyline fill="none" stroke="#0058ad" points="1324.5,-.5 1324.5,-29.5 "/>
<text text-anchor="middle" x="1353" y="-11.3" font-family="Times,serif" font-size="14.00" fill="#0058ad">a 16 83</text>
<polyline fill="none" stroke="#0058ad" points="1381.5,-.5 1381.5,-29.5 "/>
<text text-anchor="middle" x="1410" y="-11.3" font-family="Times,serif" font-size="14.00" fill="#0058ad">a 15 63</text>
<polyline fill="none" stroke="#0058ad" points="1438.5,-.5 1438.5,-29.5 "/>
<text text-anchor="middle" x="1996" y="-11.3" font-family="Times,serif" font-size="14.00" fill="#0058ad">r 6 [3 4 5 6 8 7 9 10 11 12 13 14 15 16 17 18 19 20 21 22 23 24 25 26 27 28 29 33 34 35 36 37 38 41 42 43 44 45 46 47 48 54 55 53 56 57 58 59 61 62 66 69 70 71 72 73 74 75 77 78 80 81 82 83 84]</text>
</g>
<!-- T2023&#45;&gt;T2019 -->
<g id="edge1" class="edge">
<title>T2023:f0&#45;&gt;T2019:f1</title>
<path fill="none" stroke="#5b00c0" d="M662,-81C662,69.3645 1320.989,-172.1546 1351.8791,-40.1596"/>
<polygon fill="#5b00c0" stroke="#5b00c0" points="1355.3821,-40.3235 1353,-30 1348.4244,-39.5558 1355.3821,-40.3235"/>
<text text-anchor="middle" x="1353.5" y="-51.8" font-family="Times,serif" font-size="14.00" fill="#5b00c0">rw</text>
</g>
<!-- T2019&#45;&gt;T2023 -->
<g id="edge2" class="edge">
<title>T2019:f0&#45;&gt;T2023:f2</title>
<path fill="none" stroke="#5b00c0" d="M998,-30C998,-52.3087 2531.3649,-57.2186 2669.1281,-77.9642"/>
<polygon fill="#5b00c0" stroke="#5b00c0" points="2668.4129,-81.4059 2679,-81 2670.4706,-74.7152 2668.4129,-81.4059"/>
<text text-anchor="middle" x="2235.5" y="-51.8" font-family="Times,serif" font-size="14.00" fill="#5b00c0">rw</text>
</g>
</g>
</svg>
