<?xml version="1.0" encoding="UTF-8" standalone="no"?>
<!DOCTYPE svg PUBLIC "-//W3C//DTD SVG 1.1//EN"
 "http://www.w3.org/Graphics/SVG/1.1/DTD/svg11.dtd">
<!-- Generated by graphviz version 2.40.1 (20161225.0304)
 -->
<!-- Title: a_graph Pages: 1 -->
<svg width="1775pt" height="119pt"
 viewBox="0.00 0.00 1775.00 119.00" xmlns="http://www.w3.org/2000/svg" xmlns:xlink="http://www.w3.org/1999/xlink">
<g id="graph0" class="graph" transform="scale(1 1) rotate(0) translate(4 115)">
<title>a_graph</title>
<polygon fill="#ffffff" stroke="transparent" points="-4,4 -4,-115 1771,-115 1771,4 -4,4"/>
<!-- T36981 -->
<g id="node1" class="node">
<title>T36981</title>
<polygon fill="none" stroke="#0058ad" points="944.5,-81.5 944.5,-110.5 1388.5,-110.5 1388.5,-81.5 944.5,-81.5"/>
<text text-anchor="middle" x="1134.5" y="-92.3" font-family="Times,serif" font-size="14.00" fill="#0058ad">r 184 [1 2 3 5 6 7 8 9 10 13 11 14 15 16 17 18 19 21 20 22 24 25]</text>
<polyline fill="none" stroke="#0058ad" points="1324.5,-81.5 1324.5,-110.5 "/>
<text text-anchor="middle" x="1356.5" y="-92.3" font-family="Times,serif" font-size="14.00" fill="#0058ad">a 183 92</text>
</g>
<!-- T36985 -->
<g id="node2" class="node">
<title>T36985</title>
<polygon fill="none" stroke="#0058ad" points="0,-.5 0,-29.5 1767,-29.5 1767,-.5 0,-.5"/>
<text text-anchor="middle" x="819.5" y="-11.3" font-family="Times,serif" font-size="14.00" fill="#0058ad">r 183 [1 2 3 4 5 8 6 7 9 10 11 13 14 12 15 16 18 20 17 19 21 22 23 24 25 26 27 28 29 30 31 32 33 34 35 36 40 41 44 42 43 45 46 47 49 50 51 52 48 54 55 56 57 58 59 53 60 61 63 64 65 66 62 67 69 70 71 68 72 73 75 76 77 74 78 79 80 81 83 84 82 85 87 88 89 90 91 86 93 94 95 96 97 98 100]</text>
<polyline fill="none" stroke="#0058ad" points="1639,-.5 1639,-29.5 "/>
<text text-anchor="middle" x="1671" y="-11.3" font-family="Times,serif" font-size="14.00" fill="#0058ad">a 184 26</text>
<polyline fill="none" stroke="#0058ad" points="1703,-.5 1703,-29.5 "/>
<text text-anchor="middle" x="1735" y="-11.3" font-family="Times,serif" font-size="14.00" fill="#0058ad">a 181 42</text>
</g>
<!-- T36981&#45;&gt;T36985 -->
<g id="edge1" class="edge">
<title>T36981:f0&#45;&gt;T36985:f1</title>
<path fill="none" stroke="#5b00c0" d="M1134.5,-81C1134.5,-17.5051 1210.6188,-56.8065 1273.5,-48 1293.4504,-45.2059 1606.7818,-50.9222 1662.9225,-35.284"/>
<polygon fill="#5b00c0" stroke="#5b00c0" points="1664.8216,-38.225 1671.5,-30 1661.1501,-32.2651 1664.8216,-38.225"/>
<text text-anchor="middle" x="1281" y="-51.8" font-family="Times,serif" font-size="14.00" fill="#5b00c0">rw</text>
</g>
<!-- T36985&#45;&gt;T36981 -->
<g id="edge2" class="edge">
<title>T36985:f0&#45;&gt;T36981:f1</title>
<path fill="none" stroke="#5b00c0" d="M819.5,-30C819.5,-56.0747 1263.2045,-41.6732 1288.5,-48 1317.2701,-55.1959 1348.2393,-49.2243 1355.1026,-70.8389"/>
<polygon fill="#5b00c0" stroke="#5b00c0" points="1351.6702,-71.5701 1356.5,-81 1358.6049,-70.6164 1351.6702,-71.5701"/>
<text text-anchor="middle" x="1357" y="-51.8" font-family="Times,serif" font-size="14.00" fill="#5b00c0">rw</text>
</g>
</g>
</svg>
