<?xml version="1.0" encoding="UTF-8" standalone="no"?>
<!DOCTYPE svg PUBLIC "-//W3C//DTD SVG 1.1//EN"
 "http://www.w3.org/Graphics/SVG/1.1/DTD/svg11.dtd">
<!-- Generated by graphviz version 2.40.1 (20161225.0304)
 -->
<!-- Title: a_graph Pages: 1 -->
<svg width="3381pt" height="119pt"
 viewBox="0.00 0.00 3381.00 119.00" xmlns="http://www.w3.org/2000/svg" xmlns:xlink="http://www.w3.org/1999/xlink">
<g id="graph0" class="graph" transform="scale(1 1) rotate(0) translate(4 115)">
<title>a_graph</title>
<polygon fill="#ffffff" stroke="transparent" points="-4,4 -4,-115 3377,-115 3377,4 -4,4"/>
<!-- T37824 -->
<g id="node1" class="node">
<title>T37824</title>
<polygon fill="none" stroke="#0058ad" points="0,-81.5 0,-110.5 1625,-110.5 1625,-81.5 0,-81.5"/>
<text text-anchor="middle" x="745" y="-92.3" font-family="Times,serif" font-size="14.00" fill="#0058ad">r 186 [1 2 3 4 5 8 9 10 11 12 13 14 15 16 17 18 19 20 23 24 25 26 27 28 31 32 33 34 35 36 38 39 40 41 42 43 44 45 49 50 37 51 52 46 47 53 54 55 56 57 58 59 60 61 62 63 65 66 64 67 68 69 70 71 72 73 74 75 76 77 78 79 80 81 82 83 84 85 86 87 88 89 90 91 92 93]</text>
<polyline fill="none" stroke="#0058ad" points="1490,-81.5 1490,-110.5 "/>
<text text-anchor="middle" x="1525.5" y="-92.3" font-family="Times,serif" font-size="14.00" fill="#0058ad">a 181 117</text>
<polyline fill="none" stroke="#0058ad" points="1561,-81.5 1561,-110.5 "/>
<text text-anchor="middle" x="1593" y="-92.3" font-family="Times,serif" font-size="14.00" fill="#0058ad">a 187 14</text>
</g>
<!-- T37823 -->
<g id="node2" class="node">
<title>T37823</title>
<polygon fill="none" stroke="#0058ad" points="648,-.5 648,-29.5 3373,-29.5 3373,-.5 648,-.5"/>
<text text-anchor="middle" x="680" y="-11.3" font-family="Times,serif" font-size="14.00" fill="#0058ad">a 186 96</text>
<polyline fill="none" stroke="#0058ad" points="712,-.5 712,-29.5 "/>
<text text-anchor="middle" x="1718" y="-11.3" font-family="Times,serif" font-size="14.00" fill="#0058ad">r 181 [2 3 4 5 6 7 8 9 11 12 10 13 14 15 16 17 18 19 20 21 22 23 24 25 26 29 27 28 30 31 32 34 35 36 37 38 40 39 41 42 43 45 47 48 50 51 52 53 54 55 57 56 58 59 60 61 62 63 64 65 66 67 68 69 70 71 72 73 74 75 76 77 78 80 79 81 82 83 84 86 85 87 88 89 90 91 92 93 96 95 98 97 99 100 101 102 103 104 105 106 107 108 109 110 111 112 113 114 115 116]</text>
<polyline fill="none" stroke="#0058ad" points="2724,-.5 2724,-29.5 "/>
<text text-anchor="middle" x="3048.5" y="-11.3" font-family="Times,serif" font-size="14.00" fill="#0058ad">r 182 [1 2 3 4 5 6 8 7 9 10 11 12 13 15 17 18 19 22 23 24 25 26 27 30 31 32 33 34 35 36 38 39 40 41 42 43 44 45]</text>
</g>
<!-- T37824&#45;&gt;T37823 -->
<g id="edge1" class="edge">
<title>T37824:f0&#45;&gt;T37823:f0</title>
<path fill="none" stroke="#5b00c0" d="M744.5,-81C744.5,-48.2964 692.9412,-62.5189 681.6627,-40.0804"/>
<polygon fill="#5b00c0" stroke="#5b00c0" points="685.0199,-39.0433 679.5,-30 678.1756,-40.5117 685.0199,-39.0433"/>
<text text-anchor="middle" x="742" y="-51.8" font-family="Times,serif" font-size="14.00" fill="#5b00c0">rw</text>
</g>
<!-- T37823&#45;&gt;T37824 -->
<g id="edge2" class="edge">
<title>T37823:f1&#45;&gt;T37824:f1</title>
<path fill="none" stroke="#5b00c0" d="M1717.5,-30C1717.5,-114.4986 1541.6455,-3.1051 1526.533,-70.7693"/>
<polygon fill="#5b00c0" stroke="#5b00c0" points="1523.0224,-70.6989 1525.5,-81 1529.987,-71.4022 1523.0224,-70.6989"/>
<text text-anchor="middle" x="1719" y="-51.8" font-family="Times,serif" font-size="14.00" fill="#5b00c0">rw</text>
</g>
</g>
</svg>
