<?xml version="1.0" encoding="UTF-8" standalone="no"?>
<!DOCTYPE svg PUBLIC "-//W3C//DTD SVG 1.1//EN"
 "http://www.w3.org/Graphics/SVG/1.1/DTD/svg11.dtd">
<!-- Generated by graphviz version 2.40.1 (20161225.0304)
 -->
<!-- Title: a_graph Pages: 1 -->
<svg width="1596pt" height="119pt"
 viewBox="0.00 0.00 1596.00 119.00" xmlns="http://www.w3.org/2000/svg" xmlns:xlink="http://www.w3.org/1999/xlink">
<g id="graph0" class="graph" transform="scale(1 1) rotate(0) translate(4 115)">
<title>a_graph</title>
<polygon fill="#ffffff" stroke="transparent" points="-4,4 -4,-115 1592,-115 1592,4 -4,4"/>
<!-- T17227 -->
<g id="node1" class="node">
<title>T17227</title>
<polygon fill="none" stroke="#0058ad" points="38,-81.5 38,-110.5 1052,-110.5 1052,-81.5 38,-81.5"/>
<text text-anchor="middle" x="191.5" y="-92.3" font-family="Times,serif" font-size="14.00" fill="#0058ad">r 86 [1 2 4 5 6 10 12 13 14 15 16 17 18 19 20 21 22]</text>
<polyline fill="none" stroke="#0058ad" points="345,-81.5 345,-110.5 "/>
<text text-anchor="middle" x="373.5" y="-92.3" font-family="Times,serif" font-size="14.00" fill="#0058ad">a 88 61</text>
<polyline fill="none" stroke="#0058ad" points="402,-81.5 402,-110.5 "/>
<text text-anchor="middle" x="430.5" y="-92.3" font-family="Times,serif" font-size="14.00" fill="#0058ad">a 88 62</text>
<polyline fill="none" stroke="#0058ad" points="459,-81.5 459,-110.5 "/>
<text text-anchor="middle" x="755.5" y="-92.3" font-family="Times,serif" font-size="14.00" fill="#0058ad">r 89 [1 4 6 7 8 10 11 9 13 12 14 15 17 16 18 19 20 21 22 23 24 25 28 29 26 27 30 31 33 34 35 36 32 39]</text>
</g>
<!-- T17229 -->
<g id="node2" class="node">
<title>T17229</title>
<polygon fill="none" stroke="#0058ad" points="0,-.5 0,-29.5 1588,-29.5 1588,-.5 0,-.5"/>
<text text-anchor="middle" x="368.5" y="-11.3" font-family="Times,serif" font-size="14.00" fill="#0058ad">r 88 [18 19 17 21 22 23 20 24 25 26 28 29 30 31 32 33 34 35 36 37 38 40 41 42 43 44 45 46 48 47 50 52 53 54 55 56 57 58 59 60]</text>
<polyline fill="none" stroke="#0058ad" points="737,-.5 737,-29.5 "/>
<text text-anchor="middle" x="765.5" y="-11.3" font-family="Times,serif" font-size="14.00" fill="#0058ad">a 89 37</text>
<polyline fill="none" stroke="#0058ad" points="794,-.5 794,-29.5 "/>
<text text-anchor="middle" x="822.5" y="-11.3" font-family="Times,serif" font-size="14.00" fill="#0058ad">a 89 38</text>
<polyline fill="none" stroke="#0058ad" points="851,-.5 851,-29.5 "/>
<text text-anchor="middle" x="1219.5" y="-11.3" font-family="Times,serif" font-size="14.00" fill="#0058ad">r 88 [18 19 17 21 22 23 20 24 25 26 28 29 30 31 32 33 34 35 36 37 38 40 41 42 43 44 45 46 48 47 50 52 53 54 55 56 57 58 59 60]</text>
</g>
<!-- T17227&#45;&gt;T17229 -->
<g id="edge1" class="edge">
<title>T17227:f3&#45;&gt;T17229:f1</title>
<path fill="none" stroke="#5b00c0" d="M756,-81C756,-61.7593 762.2891,-55.1323 764.3527,-40.0305"/>
<polygon fill="#5b00c0" stroke="#5b00c0" points="767.8487,-40.2047 765,-30 760.8632,-39.7538 767.8487,-40.2047"/>
<text text-anchor="middle" x="770.5" y="-51.8" font-family="Times,serif" font-size="14.00" fill="#5b00c0">rw</text>
</g>
<!-- T17229&#45;&gt;T17227 -->
<g id="edge2" class="edge">
<title>T17229:f0&#45;&gt;T17227:f1</title>
<path fill="none" stroke="#5b00c0" d="M368,-30C368,-48.8608 371.429,-55.8396 372.6077,-70.616"/>
<polygon fill="#5b00c0" stroke="#5b00c0" points="369.1248,-71.1393 373,-81 376.1198,-70.875 369.1248,-71.1393"/>
<text text-anchor="middle" x="379.5" y="-51.8" font-family="Times,serif" font-size="14.00" fill="#5b00c0">rw</text>
</g>
</g>
</svg>
