<?xml version="1.0" encoding="UTF-8" standalone="no"?>
<!DOCTYPE svg PUBLIC "-//W3C//DTD SVG 1.1//EN"
 "http://www.w3.org/Graphics/SVG/1.1/DTD/svg11.dtd">
<!-- Generated by graphviz version 2.40.1 (20161225.0304)
 -->
<!-- Title: a_graph Pages: 1 -->
<svg width="2119pt" height="119pt"
 viewBox="0.00 0.00 2119.00 119.00" xmlns="http://www.w3.org/2000/svg" xmlns:xlink="http://www.w3.org/1999/xlink">
<g id="graph0" class="graph" transform="scale(1 1) rotate(0) translate(4 115)">
<title>a_graph</title>
<polygon fill="#ffffff" stroke="transparent" points="-4,4 -4,-115 2115,-115 2115,4 -4,4"/>
<!-- T8449 -->
<g id="node1" class="node">
<title>T8449</title>
<polygon fill="none" stroke="#0058ad" points="421,-81.5 421,-110.5 1646,-110.5 1646,-81.5 421,-81.5"/>
<text text-anchor="middle" x="518" y="-92.3" font-family="Times,serif" font-size="14.00" fill="#0058ad">r 47 [1 2 3 4 5 6 7 8 9 10 11 12]</text>
<polyline fill="none" stroke="#0058ad" points="615,-81.5 615,-110.5 "/>
<text text-anchor="middle" x="643.5" y="-92.3" font-family="Times,serif" font-size="14.00" fill="#0058ad">a 47 13</text>
<polyline fill="none" stroke="#0058ad" points="672,-81.5 672,-110.5 "/>
<text text-anchor="middle" x="1027.5" y="-92.3" font-family="Times,serif" font-size="14.00" fill="#0058ad">r 45 [1 2 3 4 5 6 7 8 9 10 12 13 14 15 17 18 19 23 24 25 26 27 28 31 32 33 34 35 36 37 38 39 40 41 42 43 44 45 46 47 48 49]</text>
<polyline fill="none" stroke="#0058ad" points="1383,-81.5 1383,-110.5 "/>
<text text-anchor="middle" x="1514.5" y="-92.3" font-family="Times,serif" font-size="14.00" fill="#0058ad">r 46 [1 2 3 4 5 6 7 8 9 10 11 12 13 14 15 16]</text>
</g>
<!-- T8447 -->
<g id="node2" class="node">
<title>T8447</title>
<polygon fill="none" stroke="#0058ad" points="0,-.5 0,-29.5 2111,-29.5 2111,-.5 0,-.5"/>
<text text-anchor="middle" x="97" y="-11.3" font-family="Times,serif" font-size="14.00" fill="#0058ad">r 47 [1 2 3 4 5 6 7 8 9 10 11 12]</text>
<polyline fill="none" stroke="#0058ad" points="194,-.5 194,-29.5 "/>
<text text-anchor="middle" x="760" y="-11.3" font-family="Times,serif" font-size="14.00" fill="#0058ad">r 4 [1 2 3 4 5 6 9 10 11 13 14 15 17 18 19 21 22 23 24 25 26 27 28 30 31 32 33 34 35 36 38 39 40 41 42 43 44 45 46 48 49 50 51 53 54 57 58 59 60 61 62 63 64 66 67 68 69 70 71 72 73 74 75 76 77 78]</text>
<polyline fill="none" stroke="#0058ad" points="1326,-.5 1326,-29.5 "/>
<text text-anchor="middle" x="1354.5" y="-11.3" font-family="Times,serif" font-size="14.00" fill="#0058ad">a 45 50</text>
<polyline fill="none" stroke="#0058ad" points="1383,-.5 1383,-29.5 "/>
<text text-anchor="middle" x="1747" y="-11.3" font-family="Times,serif" font-size="14.00" fill="#0058ad">r 45 [1 2 3 4 5 6 7 8 9 10 12 13 14 15 17 18 19 23 24 25 26 27 28 31 32 33 34 35 36 37 38 39 40 41 42 43 44 45 46 47 48 49 50]</text>
</g>
<!-- T8449&#45;&gt;T8447 -->
<g id="edge1" class="edge">
<title>T8449:f2&#45;&gt;T8447:f2</title>
<path fill="none" stroke="#5b00c0" d="M1027.5,-81C1027.5,62.4992 1338.7281,-165.4489 1353.9248,-40.0867"/>
<polygon fill="#5b00c0" stroke="#5b00c0" points="1357.4249,-40.1831 1354.5,-30 1350.4362,-39.7845 1357.4249,-40.1831"/>
<text text-anchor="middle" x="1358" y="-51.8" font-family="Times,serif" font-size="14.00" fill="#5b00c0">rw</text>
</g>
<!-- T8447&#45;&gt;T8449 -->
<g id="edge2" class="edge">
<title>T8447:f0&#45;&gt;T8449:f1</title>
<path fill="none" stroke="#5b00c0" d="M96.5,-30C96.5,-270.5889 627.592,150.4993 643.1513,-70.7045"/>
<polygon fill="#5b00c0" stroke="#5b00c0" points="639.6634,-71.1242 643.5,-81 646.6594,-70.8872 639.6634,-71.1242"/>
<text text-anchor="middle" x="649" y="-51.8" font-family="Times,serif" font-size="14.00" fill="#5b00c0">rw</text>
</g>
</g>
</svg>
