<?xml version="1.0" encoding="UTF-8" standalone="no"?>
<!DOCTYPE svg PUBLIC "-//W3C//DTD SVG 1.1//EN"
 "http://www.w3.org/Graphics/SVG/1.1/DTD/svg11.dtd">
<!-- Generated by graphviz version 2.40.1 (20161225.0304)
 -->
<!-- Title: a_graph Pages: 1 -->
<svg width="4352pt" height="119pt"
 viewBox="0.00 0.00 4352.00 119.00" xmlns="http://www.w3.org/2000/svg" xmlns:xlink="http://www.w3.org/1999/xlink">
<g id="graph0" class="graph" transform="scale(1 1) rotate(0) translate(4 115)">
<title>a_graph</title>
<polygon fill="#ffffff" stroke="transparent" points="-4,4 -4,-115 4348,-115 4348,4 -4,4"/>
<!-- T14975 -->
<g id="node1" class="node">
<title>T14975</title>
<polygon fill="none" stroke="#0058ad" points="0,-81.5 0,-110.5 4344,-110.5 4344,-81.5 0,-81.5"/>
<text text-anchor="middle" x="604" y="-92.3" font-family="Times,serif" font-size="14.00" fill="#0058ad">r 77 [1 2 4 5 8 9 3 13 14 12 15 16 10 17 18 19 20 21 23 24 25 26 28 29 22 30 31 33 27 32 34 35 36 37 38 40 41 44 45 46 47 42 43 48 49 50 52 51 53 54 55 56 57 58 59 60 62 61 65 66 63 64 69 67 68 70 71 72 73 75]</text>
<polyline fill="none" stroke="#0058ad" points="1208,-81.5 1208,-110.5 "/>
<text text-anchor="middle" x="1236.5" y="-92.3" font-family="Times,serif" font-size="14.00" fill="#0058ad">a 77 76</text>
<polyline fill="none" stroke="#0058ad" points="1265,-81.5 1265,-110.5 "/>
<text text-anchor="middle" x="2192" y="-92.3" font-family="Times,serif" font-size="14.00" fill="#0058ad">r 75 [1 2 3 4 5 8 9 10 11 13 14 16 15 17 18 19 20 21 22 23 25 27 28 29 30 31 32 33 34 35 37 38 36 39 40 41 43 42 44 45 46 47 48 50 51 52 49 53 54 55 56 57 60 61 62 65 66 70 71 63 64 72 69 74 75 76 77 78 80 79 81 82 83 84 85 86 87 88 90 91 92 93 94 95 96 97 98 99 100 101 103 102 105 104 106 108 109 107 110 111 112 113]</text>
<polyline fill="none" stroke="#0058ad" points="3119,-81.5 3119,-110.5 "/>
<text text-anchor="middle" x="3731.5" y="-92.3" font-family="Times,serif" font-size="14.00" fill="#0058ad">r 77 [1 2 4 5 8 9 3 13 14 12 15 16 10 17 18 19 20 21 23 24 25 26 28 29 22 30 31 33 27 32 34 35 36 37 38 40 41 44 45 46 47 42 43 48 49 50 52 51 53 54 55 56 57 58 59 60 62 61 65 66 63 64 69 67 68 70 71 72 73 75 76]</text>
</g>
<!-- T14981 -->
<g id="node2" class="node">
<title>T14981</title>
<polygon fill="none" stroke="#0058ad" points="832,-.5 832,-29.5 2104,-29.5 2104,-.5 832,-.5"/>
<text text-anchor="middle" x="1436" y="-11.3" font-family="Times,serif" font-size="14.00" fill="#0058ad">r 77 [1 2 4 5 8 9 3 13 14 12 15 16 10 17 18 19 20 21 23 24 25 26 28 29 22 30 31 33 27 32 34 35 36 37 38 40 41 44 45 46 47 42 43 48 49 50 52 51 53 54 55 56 57 58 59 60 62 61 65 66 63 64 69 67 68 70 71 72 73 75]</text>
<polyline fill="none" stroke="#0058ad" points="2040,-.5 2040,-29.5 "/>
<text text-anchor="middle" x="2072" y="-11.3" font-family="Times,serif" font-size="14.00" fill="#0058ad">a 75 114</text>
</g>
<!-- T14975&#45;&gt;T14981 -->
<g id="edge1" class="edge">
<title>T14975:f2&#45;&gt;T14981:f1</title>
<path fill="none" stroke="#5b00c0" d="M2192,-81C2192,-35.5486 2158.1955,-17.5634 2114.1573,-15.2589"/>
<polygon fill="#5b00c0" stroke="#5b00c0" points="2114.086,-11.756 2104,-15 2113.9075,-18.7538 2114.086,-11.756"/>
<text text-anchor="middle" x="2196.5" y="-51.8" font-family="Times,serif" font-size="14.00" fill="#5b00c0">rw</text>
</g>
<!-- T14981&#45;&gt;T14975 -->
<g id="edge2" class="edge">
<title>T14981:f0&#45;&gt;T14975:f1</title>
<path fill="none" stroke="#5b00c0" d="M1436,-30C1436,-117.9709 1252.0698,.2441 1236.9818,-70.8131"/>
<polygon fill="#5b00c0" stroke="#5b00c0" points="1233.4755,-70.7103 1236,-81 1240.4433,-71.3819 1233.4755,-70.7103"/>
<text text-anchor="middle" x="1437.5" y="-51.8" font-family="Times,serif" font-size="14.00" fill="#5b00c0">rw</text>
</g>
</g>
</svg>
