<?xml version="1.0" encoding="UTF-8" standalone="no"?>
<!DOCTYPE svg PUBLIC "-//W3C//DTD SVG 1.1//EN"
 "http://www.w3.org/Graphics/SVG/1.1/DTD/svg11.dtd">
<!-- Generated by graphviz version 2.40.1 (20161225.0304)
 -->
<!-- Title: a_graph Pages: 1 -->
<svg width="2867pt" height="200pt"
 viewBox="0.00 0.00 2867.00 200.00" xmlns="http://www.w3.org/2000/svg" xmlns:xlink="http://www.w3.org/1999/xlink">
<g id="graph0" class="graph" transform="scale(1 1) rotate(0) translate(4 196)">
<title>a_graph</title>
<polygon fill="#ffffff" stroke="transparent" points="-4,4 -4,-196 2863,-196 2863,4 -4,4"/>
<!-- T4448 -->
<g id="node1" class="node">
<title>T4448</title>
<polygon fill="none" stroke="#0058ad" points="1749.5,-162.5 1749.5,-191.5 1813.5,-191.5 1813.5,-162.5 1749.5,-162.5"/>
<text text-anchor="middle" x="1781.5" y="-173.3" font-family="Times,serif" font-size="14.00" fill="#0058ad">a 22 100</text>
</g>
<!-- T4453 -->
<g id="node3" class="node">
<title>T4453</title>
<polygon fill="none" stroke="#0058ad" points="1990,-81.5 1990,-110.5 2859,-110.5 2859,-81.5 1990,-81.5"/>
<text text-anchor="middle" x="2424.5" y="-92.3" font-family="Times,serif" font-size="14.00" fill="#0058ad">r 26 [1 2 3 7 8 9 11 13 10 12 14 15 16 19 20 17 18 21 22 23 24 25 26 28 27 29 32 34 33 31 35 36 37 39 41 40 42 43 44 45 46 47 48 49 50 51 52 53 54 55]</text>
</g>
<!-- T4448&#45;&gt;T4453 -->
<g id="edge1" class="edge">
<title>T4448&#45;&gt;T4453</title>
<path fill="none" stroke="#0050c0" d="M1813.8271,-172.9277C1901.4564,-161.8889 2147.1195,-130.9422 2298.8218,-111.8319"/>
<polygon fill="#0050c0" stroke="#0050c0" points="2299.6429,-115.2563 2309.127,-110.5338 2298.7679,-108.3111 2299.6429,-115.2563"/>
<text text-anchor="middle" x="2165" y="-132.8" font-family="Times,serif" font-size="14.00" fill="#0050c0">rt</text>
</g>
<!-- T4459 -->
<g id="node2" class="node">
<title>T4459</title>
<polygon fill="none" stroke="#0058ad" points="0,-.5 0,-29.5 2549,-29.5 2549,-.5 0,-.5"/>
<text text-anchor="middle" x="424.5" y="-11.3" font-family="Times,serif" font-size="14.00" fill="#0058ad">r 27 [1 2 4 5 6 7 3 8 9 12 10 11 14 15 17 18 19 20 16 21 23 24 25 26 22 27 28 30 31 32 29 35 36 34 37 38 41 42 39 33 43 44 45 46 47 48 49 50 51 52]</text>
<polyline fill="none" stroke="#0058ad" points="849,-.5 849,-29.5 "/>
<text text-anchor="middle" x="1670.5" y="-11.3" font-family="Times,serif" font-size="14.00" fill="#0058ad">r 22 [1 2 3 4 5 6 7 8 9 10 11 13 12 14 15 16 17 18 19 20 21 22 23 24 25 26 27 28 29 30 31 32 33 34 35 36 37 38 39 40 41 42 43 44 45 48 49 50 52 53 51 54 55 56 57 58 59 60 61 62 63 64 65 66 67 68 69 70 71 72 73 74 75 76 77 78 79 80 81 82 83 84 86 85 87 88 89 90 91 92 93 94 95 96 97 98]</text>
<polyline fill="none" stroke="#0058ad" points="2492,-.5 2492,-29.5 "/>
<text text-anchor="middle" x="2520.5" y="-11.3" font-family="Times,serif" font-size="14.00" fill="#0058ad">a 26 56</text>
</g>
<!-- T4459&#45;&gt;T4448 -->
<g id="edge2" class="edge">
<title>T4459:f1&#45;&gt;T4448:f0</title>
<path fill="none" stroke="#5b00c0" d="M1670.5,-30C1670.5,-84.0975 1718.9685,-130.8881 1751.8497,-156.4066"/>
<polygon fill="#5b00c0" stroke="#5b00c0" points="1749.7429,-159.2014 1759.8346,-162.4276 1753.9574,-153.6123 1749.7429,-159.2014"/>
<text text-anchor="middle" x="1711" y="-92.3" font-family="Times,serif" font-size="14.00" fill="#5b00c0">rw</text>
</g>
<!-- T4453&#45;&gt;T4459 -->
<g id="edge3" class="edge">
<title>T4453:f0&#45;&gt;T4459:f2</title>
<path fill="none" stroke="#5b00c0" d="M2474.7493,-81.4573C2494.7102,-72.7698 2514.1514,-59.5334 2519.2244,-40.0651"/>
<polygon fill="#5b00c0" stroke="#5b00c0" points="2522.7149,-40.3607 2520.5,-30 2515.7704,-39.4806 2522.7149,-40.3607"/>
<text text-anchor="middle" x="2522" y="-51.8" font-family="Times,serif" font-size="14.00" fill="#5b00c0">rw</text>
</g>
</g>
</svg>
