<?xml version="1.0" encoding="UTF-8" standalone="no"?>
<!DOCTYPE svg PUBLIC "-//W3C//DTD SVG 1.1//EN"
 "http://www.w3.org/Graphics/SVG/1.1/DTD/svg11.dtd">
<!-- Generated by graphviz version 2.40.1 (20161225.0304)
 -->
<!-- Title: a_graph Pages: 1 -->
<svg width="1948pt" height="200pt"
 viewBox="0.00 0.00 1947.50 200.00" xmlns="http://www.w3.org/2000/svg" xmlns:xlink="http://www.w3.org/1999/xlink">
<g id="graph0" class="graph" transform="scale(1 1) rotate(0) translate(4 196)">
<title>a_graph</title>
<polygon fill="#ffffff" stroke="transparent" points="-4,4 -4,-196 1943.5,-196 1943.5,4 -4,4"/>
<!-- T29407 -->
<g id="node1" class="node">
<title>T29407</title>
<polygon fill="none" stroke="#0058ad" points="0,-162.5 0,-191.5 1892,-191.5 1892,-162.5 0,-162.5"/>
<text text-anchor="middle" x="946" y="-173.3" font-family="Times,serif" font-size="14.00" fill="#0058ad">r 144 [1 2 3 4 5 6 7 8 9 10 11 12 13 14 15 16 17 18 19 20 21 23 24 22 25 26 27 28 29 30 31 32 33 34 35 36 37 38 39 40 41 43 42 44 45 46 48 50 51 53 52 54 55 57 58 56 60 61 59 62 65 67 68 69 70 73 72 74 75 76 77 78 79 80 81 71 83 84 82 85 86 87 88 89 90 91 92 95 96 97 98 99 100 101 102 103 104 105 106 107 108 109 112 111 113]</text>
</g>
<!-- T29411 -->
<g id="node2" class="node">
<title>T29411</title>
<polygon fill="none" stroke="#0058ad" points="2,-81.5 2,-110.5 1400,-110.5 1400,-81.5 2,-81.5"/>
<text text-anchor="middle" x="209" y="-92.3" font-family="Times,serif" font-size="14.00" fill="#0058ad">r 139 [1 2 3 4 6 7 8 9 10 11 12 13 14 15 16 17 18 19 20 21 22 23 24 25]</text>
<polyline fill="none" stroke="#0058ad" points="416,-81.5 416,-110.5 "/>
<text text-anchor="middle" x="451.5" y="-92.3" font-family="Times,serif" font-size="14.00" fill="#0058ad">a 144 114</text>
<polyline fill="none" stroke="#0058ad" points="487,-81.5 487,-110.5 "/>
<text text-anchor="middle" x="515.5" y="-92.3" font-family="Times,serif" font-size="14.00" fill="#0058ad">a 142 9</text>
<polyline fill="none" stroke="#0058ad" points="544,-81.5 544,-110.5 "/>
<text text-anchor="middle" x="972" y="-92.3" font-family="Times,serif" font-size="14.00" fill="#0058ad">r 146 [1 2 3 4 5 6 7 8 9 10 11 12 13 14 15 16 17 18 19 20 21 22 23 24 25 26 27 28 29 30 31 32 33 34 35 36 37 38 41 40 42 39 46 45 48 49 50 51 52 53]</text>
</g>
<!-- T29407&#45;&gt;T29411 -->
<g id="edge1" class="edge">
<title>T29407:f0&#45;&gt;T29411:f1</title>
<path fill="none" stroke="#5b00c0" d="M508.2664,-162.453C478.4301,-152.726 457.8815,-139.3071 452.4386,-121.0157"/>
<polygon fill="#5b00c0" stroke="#5b00c0" points="455.8863,-120.4008 451,-111 448.9574,-121.3961 455.8863,-120.4008"/>
<text text-anchor="middle" x="472.5" y="-132.8" font-family="Times,serif" font-size="14.00" fill="#5b00c0">rw</text>
</g>
<!-- T29405 -->
<g id="node3" class="node">
<title>T29405</title>
<polygon fill="none" stroke="#0058ad" points="938.5,-.5 938.5,-29.5 1939.5,-29.5 1939.5,-.5 938.5,-.5"/>
<text text-anchor="middle" x="970.5" y="-11.3" font-family="Times,serif" font-size="14.00" fill="#0058ad">a 146 54</text>
<polyline fill="none" stroke="#0058ad" points="1002.5,-.5 1002.5,-29.5 "/>
<text text-anchor="middle" x="1439" y="-11.3" font-family="Times,serif" font-size="14.00" fill="#0058ad">r 146 [1 2 3 4 5 6 7 8 9 10 11 12 13 14 15 16 17 18 19 20 21 22 23 24 25 26 27 28 29 30 31 32 33 34 35 36 37 38 41 40 42 39 46 45 48 49 50 51 52 53 54]</text>
<polyline fill="none" stroke="#0058ad" points="1875.5,-.5 1875.5,-29.5 "/>
<text text-anchor="middle" x="1907.5" y="-11.3" font-family="Times,serif" font-size="14.00" fill="#0058ad">a 141 89</text>
</g>
<!-- T29411&#45;&gt;T29405 -->
<g id="edge2" class="edge">
<title>T29411:f3&#45;&gt;T29405:f0</title>
<path fill="none" stroke="#5b00c0" d="M972,-81C972,-62.2147 970.6284,-55.1238 970.1569,-40.3584"/>
<polygon fill="#5b00c0" stroke="#5b00c0" points="973.6512,-39.9458 970,-30 966.652,-40.0519 973.6512,-39.9458"/>
<text text-anchor="middle" x="979.5" y="-51.8" font-family="Times,serif" font-size="14.00" fill="#5b00c0">rw</text>
</g>
<!-- T29405&#45;&gt;T29407 -->
<g id="edge3" class="edge">
<title>T29405&#45;&gt;T29407</title>
<path fill="none" stroke="#0050c0" d="M1438.9834,-29.619C1438.1039,-51.013 1433.0761,-90.5246 1409,-111 1386.4962,-130.1382 1239.9456,-148.8467 1117.6599,-161.4288"/>
<polygon fill="#0050c0" stroke="#0050c0" points="1117.0004,-157.9779 1107.4075,-162.4753 1117.7113,-164.9417 1117.0004,-157.9779"/>
<text text-anchor="middle" x="1433.5" y="-92.3" font-family="Times,serif" font-size="14.00" fill="#0050c0">rt</text>
</g>
</g>
</svg>
