<?xml version="1.0" encoding="UTF-8" standalone="no"?>
<!DOCTYPE svg PUBLIC "-//W3C//DTD SVG 1.1//EN"
 "http://www.w3.org/Graphics/SVG/1.1/DTD/svg11.dtd">
<!-- Generated by graphviz version 2.40.1 (20161225.0304)
 -->
<!-- Title: a_graph Pages: 1 -->
<svg width="1021pt" height="119pt"
 viewBox="0.00 0.00 1021.00 119.00" xmlns="http://www.w3.org/2000/svg" xmlns:xlink="http://www.w3.org/1999/xlink">
<g id="graph0" class="graph" transform="scale(1 1) rotate(0) translate(4 115)">
<title>a_graph</title>
<polygon fill="#ffffff" stroke="transparent" points="-4,4 -4,-115 1017,-115 1017,4 -4,4"/>
<!-- T33621 -->
<g id="node1" class="node">
<title>T33621</title>
<polygon fill="none" stroke="#0058ad" points="0,-81.5 0,-110.5 1013,-110.5 1013,-81.5 0,-81.5"/>
<text text-anchor="middle" x="190" y="-92.3" font-family="Times,serif" font-size="14.00" fill="#0058ad">r 166 [1 2 3 4 5 6 8 9 10 11 12 13 14 15 16 17 18 19 20 21 22 23]</text>
<polyline fill="none" stroke="#0058ad" points="380,-81.5 380,-110.5 "/>
<text text-anchor="middle" x="412" y="-92.3" font-family="Times,serif" font-size="14.00" fill="#0058ad">a 167 45</text>
<polyline fill="none" stroke="#0058ad" points="444,-81.5 444,-110.5 "/>
<text text-anchor="middle" x="699.5" y="-92.3" font-family="Times,serif" font-size="14.00" fill="#0058ad">r 164 [1 2 3 4 5 6 7 8 9 10 11 12 13 14 15 16 17 18 19 20 21 22 23 24 25 26 27 28 29 30]</text>
<polyline fill="none" stroke="#0058ad" points="955,-81.5 955,-110.5 "/>
<text text-anchor="middle" x="984" y="-92.3" font-family="Times,serif" font-size="14.00" fill="#0058ad">r 168 []</text>
</g>
<!-- T33619 -->
<g id="node2" class="node">
<title>T33619</title>
<polygon fill="none" stroke="#0058ad" points="99,-.5 99,-29.5 856,-29.5 856,-.5 99,-.5"/>
<text text-anchor="middle" x="131" y="-11.3" font-family="Times,serif" font-size="14.00" fill="#0058ad">a 166 24</text>
<polyline fill="none" stroke="#0058ad" points="163,-.5 163,-29.5 "/>
<text text-anchor="middle" x="509.5" y="-11.3" font-family="Times,serif" font-size="14.00" fill="#0058ad">r 167 [1 3 2 4 5 10 11 13 14 12 15 16 17 18 19 22 23 24 20 28 27 29 25 26 30 32 31 33 34 35 36 37 38 39 41 40 42 43 44]</text>
</g>
<!-- T33621&#45;&gt;T33619 -->
<g id="edge1" class="edge">
<title>T33621:f0&#45;&gt;T33619:f0</title>
<path fill="none" stroke="#5b00c0" d="M189.5,-81C189.5,-50.2655 143.1101,-61.1898 132.5998,-39.8936"/>
<polygon fill="#5b00c0" stroke="#5b00c0" points="136,-39.0554 130.5,-30 129.1525,-40.5088 136,-39.0554"/>
<text text-anchor="middle" x="188" y="-51.8" font-family="Times,serif" font-size="14.00" fill="#5b00c0">rw</text>
</g>
<!-- T33619&#45;&gt;T33621 -->
<g id="edge2" class="edge">
<title>T33619:f1&#45;&gt;T33621:f1</title>
<path fill="none" stroke="#5b00c0" d="M509.5,-30C509.5,-75.0728 426.9187,-38.9954 413.3702,-70.7544"/>
<polygon fill="#5b00c0" stroke="#5b00c0" points="409.8526,-70.534 411.5,-81 416.7389,-71.7911 409.8526,-70.534"/>
<text text-anchor="middle" x="509" y="-51.8" font-family="Times,serif" font-size="14.00" fill="#5b00c0">rw</text>
</g>
</g>
</svg>
