<?xml version="1.0" encoding="UTF-8" standalone="no"?>
<!DOCTYPE svg PUBLIC "-//W3C//DTD SVG 1.1//EN"
 "http://www.w3.org/Graphics/SVG/1.1/DTD/svg11.dtd">
<!-- Generated by graphviz version 2.40.1 (20161225.0304)
 -->
<!-- Title: a_graph Pages: 1 -->
<svg width="4361pt" height="119pt"
 viewBox="0.00 0.00 4361.00 119.00" xmlns="http://www.w3.org/2000/svg" xmlns:xlink="http://www.w3.org/1999/xlink">
<g id="graph0" class="graph" transform="scale(1 1) rotate(0) translate(4 115)">
<title>a_graph</title>
<polygon fill="#ffffff" stroke="transparent" points="-4,4 -4,-115 4357,-115 4357,4 -4,4"/>
<!-- T33597 -->
<g id="node1" class="node">
<title>T33597</title>
<polygon fill="none" stroke="#0058ad" points="2148.5,-81.5 2148.5,-110.5 2880.5,-110.5 2880.5,-81.5 2148.5,-81.5"/>
<text text-anchor="middle" x="2443.5" y="-92.3" font-family="Times,serif" font-size="14.00" fill="#0058ad">r 167 [1 3 2 4 5 10 11 13 14 12 15 16 17 18 19 22 23 24 20 28 27 29 25 26 30 32 31 33 34 35 36 37 38]</text>
<polyline fill="none" stroke="#0058ad" points="2738.5,-81.5 2738.5,-110.5 "/>
<text text-anchor="middle" x="2774" y="-92.3" font-family="Times,serif" font-size="14.00" fill="#0058ad">a 139 115</text>
<polyline fill="none" stroke="#0058ad" points="2809.5,-81.5 2809.5,-110.5 "/>
<text text-anchor="middle" x="2845" y="-92.3" font-family="Times,serif" font-size="14.00" fill="#0058ad">a 163 128</text>
</g>
<!-- T33595 -->
<g id="node2" class="node">
<title>T33595</title>
<polygon fill="none" stroke="#0058ad" points="0,-.5 0,-29.5 4353,-29.5 4353,-.5 0,-.5"/>
<text text-anchor="middle" x="955" y="-11.3" font-family="Times,serif" font-size="14.00" fill="#0058ad">r 139 [1 2 3 4 6 7 8 9 10 11 12 13 14 15 16 17 18 19 20 21 22 23 24 25 26 27 28 29 31 32 33 34 35 36 37 38 39 40 41 42 43 44 45 46 47 48 49 50 51 52 53 54 55 57 58 59 60 61 62 63 65 66 67 68 69 70 71 72 73 74 75 76 77 78 79 80 81 82 83 85 86 87 88 89 90 91 92 93 94 95 96 97 98 99 100 101 102 103 104 105 106 107 108 109 113 114]</text>
<polyline fill="none" stroke="#0058ad" points="1910,-.5 1910,-29.5 "/>
<text text-anchor="middle" x="3070.5" y="-11.3" font-family="Times,serif" font-size="14.00" fill="#0058ad">r 163 [1 2 3 5 4 6 7 8 9 11 12 13 14 15 16 17 18 19 20 21 22 23 24 25 26 27 28 30 31 32 33 34 35 36 37 38 39 40 42 41 43 44 45 46 47 48 49 50 51 52 53 54 56 57 58 59 60 61 62 63 64 65 66 67 68 69 70 71 72 73 74 75 76 77 78 79 80 82 83 81 84 86 85 87 88 89 90 91 92 93 94 95 96 97 98 99 100 101 102 103 104 105 106 107 108 109 110 111 112 113 115 114 116 118 117 119 121 120 122 123 124 125 126 127]</text>
<polyline fill="none" stroke="#0058ad" points="4231,-.5 4231,-29.5 "/>
<text text-anchor="middle" x="4263" y="-11.3" font-family="Times,serif" font-size="14.00" fill="#0058ad">a 167 39</text>
<polyline fill="none" stroke="#0058ad" points="4295,-.5 4295,-29.5 "/>
<text text-anchor="middle" x="4324" y="-11.3" font-family="Times,serif" font-size="14.00" fill="#0058ad">r 168 []</text>
</g>
<!-- T33597&#45;&gt;T33595 -->
<g id="edge1" class="edge">
<title>T33597:f0&#45;&gt;T33595:f2</title>
<path fill="none" stroke="#5b00c0" d="M2443.5,-81C2443.5,17.8717 2564.9451,-55.9082 2663.5,-48 2684.6357,-46.304 4121.9359,-51.6891 4253.831,-32.8852"/>
<polygon fill="#5b00c0" stroke="#5b00c0" points="4254.9183,-36.2133 4263.5,-30 4252.9167,-29.5056 4254.9183,-36.2133"/>
<text text-anchor="middle" x="2671" y="-51.8" font-family="Times,serif" font-size="14.00" fill="#5b00c0">rw</text>
</g>
<!-- T33595&#45;&gt;T33597 -->
<g id="edge2" class="edge">
<title>T33595:f0&#45;&gt;T33597:f1</title>
<path fill="none" stroke="#5b00c0" d="M954.5,-30C954.5,-53.9457 2654.9026,-43.9307 2678.5,-48 2719.14,-55.0083 2765.694,-39.0806 2773.3953,-70.7476"/>
<polygon fill="#5b00c0" stroke="#5b00c0" points="2769.9488,-71.4325 2774.5,-81 2776.9085,-70.6826 2769.9488,-71.4325"/>
<text text-anchor="middle" x="2777" y="-51.8" font-family="Times,serif" font-size="14.00" fill="#5b00c0">rw</text>
</g>
</g>
</svg>
