<?xml version="1.0" encoding="UTF-8" standalone="no"?>
<!DOCTYPE svg PUBLIC "-//W3C//DTD SVG 1.1//EN"
 "http://www.w3.org/Graphics/SVG/1.1/DTD/svg11.dtd">
<!-- Generated by graphviz version 2.40.1 (20161225.0304)
 -->
<!-- Title: a_graph Pages: 1 -->
<svg width="4076pt" height="119pt"
 viewBox="0.00 0.00 4076.00 119.00" xmlns="http://www.w3.org/2000/svg" xmlns:xlink="http://www.w3.org/1999/xlink">
<g id="graph0" class="graph" transform="scale(1 1) rotate(0) translate(4 115)">
<title>a_graph</title>
<polygon fill="#ffffff" stroke="transparent" points="-4,4 -4,-115 4072,-115 4072,4 -4,4"/>
<!-- T16611 -->
<g id="node1" class="node">
<title>T16611</title>
<polygon fill="none" stroke="#0058ad" points="2805,-81.5 2805,-110.5 3085,-110.5 3085,-81.5 2805,-81.5"/>
<text text-anchor="middle" x="2888" y="-92.3" font-family="Times,serif" font-size="14.00" fill="#0058ad">r 85 [1 2 3 4 5 6 8 9 10 11]</text>
<polyline fill="none" stroke="#0058ad" points="2971,-81.5 2971,-110.5 "/>
<text text-anchor="middle" x="2999.5" y="-92.3" font-family="Times,serif" font-size="14.00" fill="#0058ad">a 82 98</text>
<polyline fill="none" stroke="#0058ad" points="3028,-81.5 3028,-110.5 "/>
<text text-anchor="middle" x="3056.5" y="-92.3" font-family="Times,serif" font-size="14.00" fill="#0058ad">a 82 99</text>
</g>
<!-- T16613 -->
<g id="node2" class="node">
<title>T16613</title>
<polygon fill="none" stroke="#0058ad" points="0,-.5 0,-29.5 4068,-29.5 4068,-.5 0,-.5"/>
<text text-anchor="middle" x="764.5" y="-11.3" font-family="Times,serif" font-size="14.00" fill="#0058ad">r 84 [2 3 4 7 5 6 8 9 10 11 12 13 15 16 17 18 19 20 14 21 22 23 24 25 26 27 30 34 28 35 36 37 38 39 40 41 42 43 44 45 46 47 48 49 50 51 52 53 54 55 56 57 59 58 61 63 64 65 66 62 60 67 68 69 71 72 73 75 76 77 78 79 80 81 83 82 84 85 86 88 89 87 90 92 93 94 95 96 97]</text>
<polyline fill="none" stroke="#0058ad" points="1529,-.5 1529,-29.5 "/>
<text text-anchor="middle" x="1971" y="-11.3" font-family="Times,serif" font-size="14.00" fill="#0058ad">r 70 [1 2 3 4 5 6 7 8 9 10 11 12 13 14 15 16 18 19 20 21 22 23 24 25 26 27 28 29 30 31 32 33 34 35 36 37 38 40 41 42 43 44 46 47 48 49 50 51 52 53 54 55]</text>
<polyline fill="none" stroke="#0058ad" points="2413,-.5 2413,-29.5 "/>
<text text-anchor="middle" x="2441.5" y="-11.3" font-family="Times,serif" font-size="14.00" fill="#0058ad">a 85 12</text>
<polyline fill="none" stroke="#0058ad" points="2470,-.5 2470,-29.5 "/>
<text text-anchor="middle" x="3269" y="-11.3" font-family="Times,serif" font-size="14.00" fill="#0058ad">r 82 [1 2 3 5 6 7 8 9 10 11 12 13 14 15 16 17 19 18 20 21 22 23 24 25 26 27 30 29 28 31 32 33 34 35 36 37 38 39 40 41 42 43 44 45 46 47 48 49 50 51 52 54 53 56 55 58 59 57 60 61 63 64 65 66 67 68 69 70 71 73 74 75 72 76 77 78 79 81 84 85 86 82 87 88 89 90 91 92 93 94 95 96 97]</text>
</g>
<!-- T16611&#45;&gt;T16613 -->
<g id="edge1" class="edge">
<title>T16611:f0&#45;&gt;T16613:f2</title>
<path fill="none" stroke="#5b00c0" d="M2805,-96C2767.048,-96 2488.2498,-74.5686 2447.0747,-38.8598"/>
<polygon fill="#5b00c0" stroke="#5b00c0" points="2450.0074,-36.9378 2442,-30 2443.9332,-40.417 2450.0074,-36.9378"/>
<text text-anchor="middle" x="2520.5" y="-51.8" font-family="Times,serif" font-size="14.00" fill="#5b00c0">rw</text>
</g>
<!-- T16613&#45;&gt;T16611 -->
<g id="edge2" class="edge">
<title>T16613:f3&#45;&gt;T16611:f1</title>
<path fill="none" stroke="#5b00c0" d="M3269,-30C3269,-148.0015 3016.0406,29.3257 3000.7247,-70.7946"/>
<polygon fill="#5b00c0" stroke="#5b00c0" points="2997.2172,-70.7772 3000,-81 3004.1996,-71.2731 2997.2172,-70.7772"/>
<text text-anchor="middle" x="3273.5" y="-51.8" font-family="Times,serif" font-size="14.00" fill="#5b00c0">rw</text>
</g>
</g>
</svg>
