<?xml version="1.0" encoding="UTF-8" standalone="no"?>
<!DOCTYPE svg PUBLIC "-//W3C//DTD SVG 1.1//EN"
 "http://www.w3.org/Graphics/SVG/1.1/DTD/svg11.dtd">
<!-- Generated by graphviz version 2.40.1 (20161225.0304)
 -->
<!-- Title: a_graph Pages: 1 -->
<svg width="6042pt" height="119pt"
 viewBox="0.00 0.00 6042.00 119.00" xmlns="http://www.w3.org/2000/svg" xmlns:xlink="http://www.w3.org/1999/xlink">
<g id="graph0" class="graph" transform="scale(1 1) rotate(0) translate(4 115)">
<title>a_graph</title>
<polygon fill="#ffffff" stroke="transparent" points="-4,4 -4,-115 6038,-115 6038,4 -4,4"/>
<!-- T3767 -->
<g id="node1" class="node">
<title>T3767</title>
<polygon fill="none" stroke="#0058ad" points="2648,-81.5 2648,-110.5 6034,-110.5 6034,-81.5 2648,-81.5"/>
<text text-anchor="middle" x="3539.5" y="-92.3" font-family="Times,serif" font-size="14.00" fill="#0058ad">r 24 [2 3 4 1 6 8 5 10 11 12 13 16 17 19 20 22 23 9 24 25 26 14 15 28 29 30 27 31 33 34 35 32 36 37 38 39 40 41 42 43 44 45 46 47 48 49 50 52 51 53 54 55 56 58 59 57 60 61 63 64 65 66 67 69 70 68 71 72 73 74 75 76 77 78 79 80 81 82 83 84 85 86 87 88 89 90 91 94 95 96 97 99 100 101 92 93 104 106 105 108 109]</text>
<polyline fill="none" stroke="#0058ad" points="4431,-81.5 4431,-110.5 "/>
<text text-anchor="middle" x="4459.5" y="-92.3" font-family="Times,serif" font-size="14.00" fill="#0058ad">a 23 98</text>
<polyline fill="none" stroke="#0058ad" points="4488,-81.5 4488,-110.5 "/>
<text text-anchor="middle" x="5261" y="-92.3" font-family="Times,serif" font-size="14.00" fill="#0058ad">r 23 [2 1 4 5 6 7 8 9 10 11 12 13 15 14 16 20 21 18 19 17 22 23 24 25 26 28 29 31 32 33 34 35 36 38 37 39 41 42 44 43 46 47 48 49 51 52 53 55 45 56 57 58 60 59 61 62 63 64 65 66 67 68 69 70 71 72 75 76 77 73 74 78 79 80 81 82 83 84 85 86 87 88 89 90 91 94 96 95 97 98]</text>
</g>
<!-- T3768 -->
<g id="node2" class="node">
<title>T3768</title>
<polygon fill="none" stroke="#0058ad" points="0,-.5 0,-29.5 4650,-29.5 4650,-.5 0,-.5"/>
<text text-anchor="middle" x="637" y="-11.3" font-family="Times,serif" font-size="14.00" fill="#0058ad">r 5 [1 2 3 4 5 6 7 8 9 10 11 12 13 14 15 16 17 18 19 21 22 23 24 25 26 20 31 32 33 29 36 37 38 39 40 41 42 43 44 45 46 47 49 50 52 53 54 55 56 57 58 59 60 61 62 63 64 65 66 67 68 70 71 72 74 75 76 77 78 79 80 81 82 84 85]</text>
<polyline fill="none" stroke="#0058ad" points="1274,-.5 1274,-29.5 "/>
<text text-anchor="middle" x="2165.5" y="-11.3" font-family="Times,serif" font-size="14.00" fill="#0058ad">r 24 [2 3 4 1 6 8 5 10 11 12 13 16 17 19 20 22 23 9 24 25 26 14 15 28 29 30 27 31 33 34 35 32 36 37 38 39 40 41 42 43 44 45 46 47 48 49 50 52 51 53 54 55 56 58 59 57 60 61 63 64 65 66 67 69 70 68 71 72 73 74 75 76 77 78 79 80 81 82 83 84 85 86 87 88 89 90 91 94 95 96 97 99 100 101 92 93 104 106 105 108 109]</text>
<polyline fill="none" stroke="#0058ad" points="3057,-.5 3057,-29.5 "/>
<text text-anchor="middle" x="3821.5" y="-11.3" font-family="Times,serif" font-size="14.00" fill="#0058ad">r 23 [2 1 4 5 6 7 8 9 10 11 12 13 15 14 16 20 21 18 19 17 22 23 24 25 26 28 29 31 32 33 34 35 36 38 37 39 41 42 44 43 46 47 48 49 51 52 53 55 45 56 57 58 60 59 61 62 63 64 65 66 67 68 69 70 71 72 75 76 77 73 74 78 79 80 81 82 83 84 85 86 87 88 89 90 91 94 96 95 97]</text>
<polyline fill="none" stroke="#0058ad" points="4586,-.5 4586,-29.5 "/>
<text text-anchor="middle" x="4618" y="-11.3" font-family="Times,serif" font-size="14.00" fill="#0058ad">a 24 107</text>
</g>
<!-- T3767&#45;&gt;T3768 -->
<g id="edge1" class="edge">
<title>T3767:f0&#45;&gt;T3768:f3</title>
<path fill="none" stroke="#5b00c0" d="M3539,-81C3539,66.5157 4054.6436,-54.8552 4202,-48 4212.4933,-47.5118 4547.057,-42.6037 4608.3924,-33.0422"/>
<polygon fill="#5b00c0" stroke="#5b00c0" points="4609.5231,-36.3555 4618,-30 4607.4099,-29.682 4609.5231,-36.3555"/>
<text text-anchor="middle" x="4209.5" y="-51.8" font-family="Times,serif" font-size="14.00" fill="#5b00c0">rw</text>
</g>
<!-- T3768&#45;&gt;T3767 -->
<g id="edge2" class="edge">
<title>T3768:f2&#45;&gt;T3767:f1</title>
<path fill="none" stroke="#5b00c0" d="M3822,-30C3822,-51.9672 4195.1222,-46.02 4217,-48 4321.9436,-57.4977 4451.1001,22.3981 4459.5612,-70.7771"/>
<polygon fill="#5b00c0" stroke="#5b00c0" points="4456.0743,-71.1593 4460,-81 4463.0678,-70.8591 4456.0743,-71.1593"/>
<text text-anchor="middle" x="4464.5" y="-51.8" font-family="Times,serif" font-size="14.00" fill="#5b00c0">rw</text>
</g>
</g>
</svg>
