<?xml version="1.0" encoding="UTF-8" standalone="no"?>
<!DOCTYPE svg PUBLIC "-//W3C//DTD SVG 1.1//EN"
 "http://www.w3.org/Graphics/SVG/1.1/DTD/svg11.dtd">
<!-- Generated by graphviz version 2.40.1 (20161225.0304)
 -->
<!-- Title: a_graph Pages: 1 -->
<svg width="1289pt" height="119pt"
 viewBox="0.00 0.00 1288.50 119.00" xmlns="http://www.w3.org/2000/svg" xmlns:xlink="http://www.w3.org/1999/xlink">
<g id="graph0" class="graph" transform="scale(1 1) rotate(0) translate(4 115)">
<title>a_graph</title>
<polygon fill="#ffffff" stroke="transparent" points="-4,4 -4,-115 1284.5,-115 1284.5,4 -4,4"/>
<!-- T17146 -->
<g id="node1" class="node">
<title>T17146</title>
<polygon fill="none" stroke="#0058ad" points="0,-81.5 0,-110.5 1014,-110.5 1014,-81.5 0,-81.5"/>
<text text-anchor="middle" x="89.5" y="-92.3" font-family="Times,serif" font-size="14.00" fill="#0058ad">r 89 [1 4 6 7 8 10 11 9 13 12]</text>
<polyline fill="none" stroke="#0058ad" points="179,-81.5 179,-110.5 "/>
<text text-anchor="middle" x="268.5" y="-92.3" font-family="Times,serif" font-size="14.00" fill="#0058ad">r 89 [1 4 6 7 8 10 11 9 13 12]</text>
<polyline fill="none" stroke="#0058ad" points="358,-81.5 358,-110.5 "/>
<text text-anchor="middle" x="386.5" y="-92.3" font-family="Times,serif" font-size="14.00" fill="#0058ad">a 89 14</text>
<polyline fill="none" stroke="#0058ad" points="415,-81.5 415,-110.5 "/>
<text text-anchor="middle" x="714.5" y="-92.3" font-family="Times,serif" font-size="14.00" fill="#0058ad">r 88 [18 19 17 21 22 23 20 24 25 26 28 29 30 31 32 33 34 35 36 37 38 40 41 42 43 44 45 46 48 47 50 52]</text>
</g>
<!-- T17149 -->
<g id="node2" class="node">
<title>T17149</title>
<polygon fill="none" stroke="#0058ad" points="427.5,-.5 427.5,-29.5 1280.5,-29.5 1280.5,-.5 427.5,-.5"/>
<text text-anchor="middle" x="517" y="-11.3" font-family="Times,serif" font-size="14.00" fill="#0058ad">r 89 [1 4 6 7 8 10 11 9 13 12]</text>
<polyline fill="none" stroke="#0058ad" points="606.5,-.5 606.5,-29.5 "/>
<text text-anchor="middle" x="635" y="-11.3" font-family="Times,serif" font-size="14.00" fill="#0058ad">a 88 53</text>
<polyline fill="none" stroke="#0058ad" points="663.5,-.5 663.5,-29.5 "/>
<text text-anchor="middle" x="972" y="-11.3" font-family="Times,serif" font-size="14.00" fill="#0058ad">r 88 [18 19 17 21 22 23 20 24 25 26 28 29 30 31 32 33 34 35 36 37 38 40 41 42 43 44 45 46 48 47 50 52 53]</text>
</g>
<!-- T17146&#45;&gt;T17149 -->
<g id="edge1" class="edge">
<title>T17146:f3&#45;&gt;T17149:f1</title>
<path fill="none" stroke="#5b00c0" d="M715,-81C715,-42.787 649.2969,-66.5798 636.9775,-39.9929"/>
<polygon fill="#5b00c0" stroke="#5b00c0" points="640.3748,-39.1303 635,-30 633.508,-40.4892 640.3748,-39.1303"/>
<text text-anchor="middle" x="712.5" y="-51.8" font-family="Times,serif" font-size="14.00" fill="#5b00c0">rw</text>
</g>
<!-- T17149&#45;&gt;T17146 -->
<g id="edge2" class="edge">
<title>T17149:f0&#45;&gt;T17146:f2</title>
<path fill="none" stroke="#5b00c0" d="M427,-15C395.8398,-15 387.5308,-40.6216 386.2052,-70.9972"/>
<polygon fill="#5b00c0" stroke="#5b00c0" points="382.7059,-70.9303 386,-81 389.7044,-71.0739 382.7059,-70.9303"/>
<text text-anchor="middle" x="396.5" y="-51.8" font-family="Times,serif" font-size="14.00" fill="#5b00c0">rw</text>
</g>
</g>
</svg>
