<?xml version="1.0" encoding="UTF-8" standalone="no"?>
<!DOCTYPE svg PUBLIC "-//W3C//DTD SVG 1.1//EN"
 "http://www.w3.org/Graphics/SVG/1.1/DTD/svg11.dtd">
<!-- Generated by graphviz version 2.40.1 (20161225.0304)
 -->
<!-- Title: a_graph Pages: 1 -->
<svg width="1438pt" height="119pt"
 viewBox="0.00 0.00 1438.00 119.00" xmlns="http://www.w3.org/2000/svg" xmlns:xlink="http://www.w3.org/1999/xlink">
<g id="graph0" class="graph" transform="scale(1 1) rotate(0) translate(4 115)">
<title>a_graph</title>
<polygon fill="#ffffff" stroke="transparent" points="-4,4 -4,-115 1434,-115 1434,4 -4,4"/>
<!-- T5979 -->
<g id="node1" class="node">
<title>T5979</title>
<polygon fill="none" stroke="#0058ad" points="0,-81.5 0,-110.5 1430,-110.5 1430,-81.5 0,-81.5"/>
<text text-anchor="middle" x="28.5" y="-92.3" font-family="Times,serif" font-size="14.00" fill="#0058ad">a 33 31</text>
<polyline fill="none" stroke="#0058ad" points="57,-81.5 57,-110.5 "/>
<text text-anchor="middle" x="298.5" y="-92.3" font-family="Times,serif" font-size="14.00" fill="#0058ad">r 33 [1 2 4 5 7 8 9 10 11 12 13 14 15 16 17 18 19 20 21 22 23 24 25 26 28 29 30 31]</text>
<polyline fill="none" stroke="#0058ad" points="540,-81.5 540,-110.5 "/>
<text text-anchor="middle" x="743.5" y="-92.3" font-family="Times,serif" font-size="14.00" fill="#0058ad">r 34 [2 1 3 4 5 7 8 9 10 11 13 12 14 16 17 18 19 21 20 24 25 26 22 23]</text>
<polyline fill="none" stroke="#0058ad" points="947,-81.5 947,-110.5 "/>
<text text-anchor="middle" x="1188.5" y="-92.3" font-family="Times,serif" font-size="14.00" fill="#0058ad">r 33 [1 2 4 5 7 8 9 10 11 12 13 14 15 16 17 18 19 20 21 22 23 24 25 26 28 29 30 31]</text>
</g>
<!-- T5977 -->
<g id="node2" class="node">
<title>T5977</title>
<polygon fill="none" stroke="#0058ad" points="79,-.5 79,-29.5 1077,-29.5 1077,-.5 79,-.5"/>
<text text-anchor="middle" x="312" y="-11.3" font-family="Times,serif" font-size="14.00" fill="#0058ad">r 33 [1 2 4 5 7 8 9 10 11 12 13 14 15 16 17 18 19 20 21 22 23 24 25 26 28 29 30]</text>
<polyline fill="none" stroke="#0058ad" points="545,-.5 545,-29.5 "/>
<text text-anchor="middle" x="573.5" y="-11.3" font-family="Times,serif" font-size="14.00" fill="#0058ad">a 34 27</text>
<polyline fill="none" stroke="#0058ad" points="602,-.5 602,-29.5 "/>
<text text-anchor="middle" x="814.5" y="-11.3" font-family="Times,serif" font-size="14.00" fill="#0058ad">r 34 [2 1 3 4 5 7 8 9 10 11 13 12 14 16 17 18 19 21 20 24 25 26 22 23 27]</text>
<polyline fill="none" stroke="#0058ad" points="1027,-.5 1027,-29.5 "/>
<text text-anchor="middle" x="1052" y="-11.3" font-family="Times,serif" font-size="14.00" fill="#0058ad">a 4 60</text>
</g>
<!-- T5979&#45;&gt;T5977 -->
<g id="edge1" class="edge">
<title>T5979:f2&#45;&gt;T5977:f1</title>
<path fill="none" stroke="#5b00c0" d="M744,-81C744,-5.4094 588.6555,-99.6298 574.092,-39.959"/>
<polygon fill="#5b00c0" stroke="#5b00c0" points="577.5692,-39.5589 573,-30 570.6109,-40.3219 577.5692,-39.5589"/>
<text text-anchor="middle" x="746.5" y="-51.8" font-family="Times,serif" font-size="14.00" fill="#5b00c0">rw</text>
</g>
<!-- T5977&#45;&gt;T5979 -->
<g id="edge2" class="edge">
<title>T5977:f0&#45;&gt;T5979:f0</title>
<path fill="none" stroke="#5b00c0" d="M79,-15C45.4049,-15 30.8152,-38.7595 28.3749,-70.8057"/>
<polygon fill="#5b00c0" stroke="#5b00c0" points="24.8699,-70.8781 28,-81 31.8652,-71.1354 24.8699,-70.8781"/>
<text text-anchor="middle" x="40.5" y="-51.8" font-family="Times,serif" font-size="14.00" fill="#5b00c0">rw</text>
</g>
</g>
</svg>
