<?xml version="1.0" encoding="UTF-8" standalone="no"?>
<!DOCTYPE svg PUBLIC "-//W3C//DTD SVG 1.1//EN"
 "http://www.w3.org/Graphics/SVG/1.1/DTD/svg11.dtd">
<!-- Generated by graphviz version 2.40.1 (20161225.0304)
 -->
<!-- Title: a_graph Pages: 1 -->
<svg width="4462pt" height="119pt"
 viewBox="0.00 0.00 4462.00 119.00" xmlns="http://www.w3.org/2000/svg" xmlns:xlink="http://www.w3.org/1999/xlink">
<g id="graph0" class="graph" transform="scale(1 1) rotate(0) translate(4 115)">
<title>a_graph</title>
<polygon fill="#ffffff" stroke="transparent" points="-4,4 -4,-115 4458,-115 4458,4 -4,4"/>
<!-- T32927 -->
<g id="node1" class="node">
<title>T32927</title>
<polygon fill="none" stroke="#0058ad" points="0,-81.5 0,-110.5 4454,-110.5 4454,-81.5 0,-81.5"/>
<text text-anchor="middle" x="901" y="-92.3" font-family="Times,serif" font-size="14.00" fill="#0058ad">r 158 [1 2 3 4 5 6 7 8 10 11 12 14 16 17 18 15 20 21 23 24 25 26 27 28 29 33 34 35 36 38 41 42 43 44 45 46 47 48 49 50 51 52 53 54 55 56 57 58 59 60 61 64 65 66 67 68 69 71 70 72 73 74 75 76 78 77 79 80 82 83 84 85 86 87 88 89 90 91 92 93 95 96 97 98 99 100 101 102 103 104 105 106 107 108 109 110 111 112 113]</text>
<polyline fill="none" stroke="#0058ad" points="1802,-81.5 1802,-110.5 "/>
<text text-anchor="middle" x="2449" y="-92.3" font-family="Times,serif" font-size="14.00" fill="#0058ad">r 162 [2 3 4 5 6 7 8 9 10 11 12 13 14 16 17 18 19 15 20 21 22 23 24 25 26 27 29 30 31 28 32 33 36 34 35 38 37 40 39 41 42 43 44 45 47 46 48 49 50 51 52 54 55 53 56 57 58 59 60 62 63 64 66 65 67 68 69 70 71 74 72 73 76 75 77]</text>
<polyline fill="none" stroke="#0058ad" points="3096,-81.5 3096,-110.5 "/>
<text text-anchor="middle" x="3743" y="-92.3" font-family="Times,serif" font-size="14.00" fill="#0058ad">r 162 [2 3 4 5 6 7 8 9 10 11 12 13 14 16 17 18 19 15 20 21 22 23 24 25 26 27 29 30 31 28 32 33 36 34 35 38 37 40 39 41 42 43 44 45 47 46 48 49 50 51 52 54 55 53 56 57 58 59 60 62 63 64 66 65 67 68 69 70 71 74 72 73 76 75 77]</text>
<polyline fill="none" stroke="#0058ad" points="4390,-81.5 4390,-110.5 "/>
<text text-anchor="middle" x="4422" y="-92.3" font-family="Times,serif" font-size="14.00" fill="#0058ad">a 163 15</text>
</g>
<!-- T32925 -->
<g id="node2" class="node">
<title>T32925</title>
<polygon fill="none" stroke="#0058ad" points="3080,-.5 3080,-29.5 3426,-29.5 3426,-.5 3080,-.5"/>
<text text-anchor="middle" x="3112" y="-11.3" font-family="Times,serif" font-size="14.00" fill="#0058ad">a 162 78</text>
<polyline fill="none" stroke="#0058ad" points="3144,-.5 3144,-29.5 "/>
<text text-anchor="middle" x="3176" y="-11.3" font-family="Times,serif" font-size="14.00" fill="#0058ad">a 162 79</text>
<polyline fill="none" stroke="#0058ad" points="3208,-.5 3208,-29.5 "/>
<text text-anchor="middle" x="3317" y="-11.3" font-family="Times,serif" font-size="14.00" fill="#0058ad">r 163 [1 2 3 5 4 6 7 8 9 11 12 13 14]</text>
</g>
<!-- T32927&#45;&gt;T32925 -->
<g id="edge1" class="edge">
<title>T32927:f1&#45;&gt;T32925:f0</title>
<path fill="none" stroke="#5b00c0" d="M2449,-81C2449,-47.6119 2983.5766,-18.256 3069.9173,-15.2527"/>
<polygon fill="#5b00c0" stroke="#5b00c0" points="3070.0909,-18.7496 3080,-15 3069.9154,-11.7518 3070.0909,-18.7496"/>
<text text-anchor="middle" x="2602.5" y="-51.8" font-family="Times,serif" font-size="14.00" fill="#5b00c0">rw</text>
</g>
<!-- T32925&#45;&gt;T32927 -->
<g id="edge2" class="edge">
<title>T32925:f2&#45;&gt;T32927:f3</title>
<path fill="none" stroke="#5b00c0" d="M3426,-15C3478.7469,-15 4332.2601,-24.5406 4415.4852,-73.194"/>
<polygon fill="#5b00c0" stroke="#5b00c0" points="4412.9053,-75.5651 4422,-81 4418.2796,-71.0798 4412.9053,-75.5651"/>
<text text-anchor="middle" x="4391.5" y="-51.8" font-family="Times,serif" font-size="14.00" fill="#5b00c0">rw</text>
</g>
</g>
</svg>
