<?xml version="1.0" encoding="UTF-8" standalone="no"?>
<!DOCTYPE svg PUBLIC "-//W3C//DTD SVG 1.1//EN"
 "http://www.w3.org/Graphics/SVG/1.1/DTD/svg11.dtd">
<!-- Generated by graphviz version 2.40.1 (20161225.0304)
 -->
<!-- Title: a_graph Pages: 1 -->
<svg width="962pt" height="119pt"
 viewBox="0.00 0.00 962.00 119.00" xmlns="http://www.w3.org/2000/svg" xmlns:xlink="http://www.w3.org/1999/xlink">
<g id="graph0" class="graph" transform="scale(1 1) rotate(0) translate(4 115)">
<title>a_graph</title>
<polygon fill="#ffffff" stroke="transparent" points="-4,4 -4,-115 958,-115 958,4 -4,4"/>
<!-- T27283 -->
<g id="node1" class="node">
<title>T27283</title>
<polygon fill="none" stroke="#0058ad" points="0,-81.5 0,-110.5 870,-110.5 870,-81.5 0,-81.5"/>
<text text-anchor="middle" x="32" y="-92.3" font-family="Times,serif" font-size="14.00" fill="#0058ad">a 136 27</text>
<polyline fill="none" stroke="#0058ad" points="64,-81.5 64,-110.5 "/>
<text text-anchor="middle" x="271" y="-92.3" font-family="Times,serif" font-size="14.00" fill="#0058ad">r 136 [2 3 4 5 6 7 8 9 10 11 12 13 14 15 16 17 18 19 20 21 22 23 24 27]</text>
<polyline fill="none" stroke="#0058ad" points="478,-81.5 478,-110.5 "/>
<text text-anchor="middle" x="513.5" y="-92.3" font-family="Times,serif" font-size="14.00" fill="#0058ad">a 108 114</text>
<polyline fill="none" stroke="#0058ad" points="549,-81.5 549,-110.5 "/>
<text text-anchor="middle" x="709.5" y="-92.3" font-family="Times,serif" font-size="14.00" fill="#0058ad">r 132 [1 2 4 5 3 6 7 8 9 10 11 12 13 14 15 16 17 19 20]</text>
</g>
<!-- T27285 -->
<g id="node2" class="node">
<title>T27285</title>
<polygon fill="none" stroke="#0058ad" points="32,-.5 32,-29.5 954,-29.5 954,-.5 32,-.5"/>
<text text-anchor="middle" x="64" y="-11.3" font-family="Times,serif" font-size="14.00" fill="#0058ad">a 132 21</text>
<polyline fill="none" stroke="#0058ad" points="96,-.5 96,-29.5 "/>
<text text-anchor="middle" x="128" y="-11.3" font-family="Times,serif" font-size="14.00" fill="#0058ad">a 133 73</text>
<polyline fill="none" stroke="#0058ad" points="160,-.5 160,-29.5 "/>
<text text-anchor="middle" x="358.5" y="-11.3" font-family="Times,serif" font-size="14.00" fill="#0058ad">r 136 [2 3 4 5 6 7 8 9 10 11 12 13 14 15 16 17 18 19 20 21 22 23 24]</text>
<polyline fill="none" stroke="#0058ad" points="557,-.5 557,-29.5 "/>
<text text-anchor="middle" x="755.5" y="-11.3" font-family="Times,serif" font-size="14.00" fill="#0058ad">r 136 [2 3 4 5 6 7 8 9 10 11 12 13 14 15 16 17 18 19 20 21 22 23 24]</text>
</g>
<!-- T27283&#45;&gt;T27285 -->
<g id="edge1" class="edge">
<title>T27283:f3&#45;&gt;T27285:f0</title>
<path fill="none" stroke="#5b00c0" d="M710,-81C710,-64.2829 152.8224,-50.1541 73.3811,-33.8061"/>
<polygon fill="#5b00c0" stroke="#5b00c0" points="74.5823,-30.5164 64,-30 71.9505,-37.0029 74.5823,-30.5164"/>
<text text-anchor="middle" x="526.5" y="-51.8" font-family="Times,serif" font-size="14.00" fill="#5b00c0">rw</text>
</g>
<!-- T27285&#45;&gt;T27283 -->
<g id="edge2" class="edge">
<title>T27285:f2&#45;&gt;T27283:f0</title>
<path fill="none" stroke="#5b00c0" d="M358,-30C358,-57.6245 262.3008,-43.7836 235,-48 148.3696,-61.3793 41.2044,4.6161 32.5593,-70.5619"/>
<polygon fill="#5b00c0" stroke="#5b00c0" points="29.0402,-70.827 32,-81 36.0301,-71.2016 29.0402,-70.827"/>
<text text-anchor="middle" x="242.5" y="-51.8" font-family="Times,serif" font-size="14.00" fill="#5b00c0">rw</text>
</g>
</g>
</svg>
