<?xml version="1.0" encoding="UTF-8" standalone="no"?>
<!DOCTYPE svg PUBLIC "-//W3C//DTD SVG 1.1//EN"
 "http://www.w3.org/Graphics/SVG/1.1/DTD/svg11.dtd">
<!-- Generated by graphviz version 2.40.1 (20161225.0304)
 -->
<!-- Title: a_graph Pages: 1 -->
<svg width="3562pt" height="119pt"
 viewBox="0.00 0.00 3562.00 119.00" xmlns="http://www.w3.org/2000/svg" xmlns:xlink="http://www.w3.org/1999/xlink">
<g id="graph0" class="graph" transform="scale(1 1) rotate(0) translate(4 115)">
<title>a_graph</title>
<polygon fill="#ffffff" stroke="transparent" points="-4,4 -4,-115 3558,-115 3558,4 -4,4"/>
<!-- T37861 -->
<g id="node1" class="node">
<title>T37861</title>
<polygon fill="none" stroke="#0058ad" points="0,-81.5 0,-110.5 3554,-110.5 3554,-81.5 0,-81.5"/>
<text text-anchor="middle" x="872.5" y="-92.3" font-family="Times,serif" font-size="14.00" fill="#0058ad">r 186 [1 2 3 4 5 8 9 10 11 12 13 14 15 16 17 18 19 20 23 24 25 26 27 28 31 32 33 34 35 36 38 39 40 41 42 43 44 45 49 50 37 51 52 46 47 53 54 55 56 57 58 59 60 61 62 63 65 66 64 67 68 69 70 71 72 73 74 75 76 77 78 79 80 81 82 83 84 85 86 87 88 89 90 91 92 93 96 95 97 99 100 98 101 105 106 107 108 104]</text>
<polyline fill="none" stroke="#0058ad" points="1745,-81.5 1745,-110.5 "/>
<text text-anchor="middle" x="1777" y="-92.3" font-family="Times,serif" font-size="14.00" fill="#0058ad">a 187 23</text>
<polyline fill="none" stroke="#0058ad" points="1809,-81.5 1809,-110.5 "/>
<text text-anchor="middle" x="2681.5" y="-92.3" font-family="Times,serif" font-size="14.00" fill="#0058ad">r 186 [1 2 3 4 5 8 9 10 11 12 13 14 15 16 17 18 19 20 23 24 25 26 27 28 31 32 33 34 35 36 38 39 40 41 42 43 44 45 49 50 37 51 52 46 47 53 54 55 56 57 58 59 60 61 62 63 65 66 64 67 68 69 70 71 72 73 74 75 76 77 78 79 80 81 82 83 84 85 86 87 88 89 90 91 92 93 96 95 97 99 100 98 101 105 106 107 108 104]</text>
</g>
<!-- T37863 -->
<g id="node2" class="node">
<title>T37863</title>
<polygon fill="none" stroke="#0058ad" points="1264,-.5 1264,-29.5 1708,-29.5 1708,-.5 1264,-.5"/>
<text text-anchor="middle" x="1299.5" y="-11.3" font-family="Times,serif" font-size="14.00" fill="#0058ad">a 186 109</text>
<polyline fill="none" stroke="#0058ad" points="1335,-.5 1335,-29.5 "/>
<text text-anchor="middle" x="1521.5" y="-11.3" font-family="Times,serif" font-size="14.00" fill="#0058ad">r 187 [2 3 1 4 5 6 7 8 9 10 11 12 13 15 14 16 17 18 19 20 21 22]</text>
</g>
<!-- T37861&#45;&gt;T37863 -->
<g id="edge1" class="edge">
<title>T37861:f0&#45;&gt;T37863:f0</title>
<path fill="none" stroke="#5b00c0" d="M872,-81C872,-39.3331 1181.5445,-17.5448 1253.6906,-15.2102"/>
<polygon fill="#5b00c0" stroke="#5b00c0" points="1254.0735,-18.7032 1264,-15 1253.9307,-11.7047 1254.0735,-18.7032"/>
<text text-anchor="middle" x="947.5" y="-51.8" font-family="Times,serif" font-size="14.00" fill="#5b00c0">rw</text>
</g>
<!-- T37863&#45;&gt;T37861 -->
<g id="edge2" class="edge">
<title>T37863:f1&#45;&gt;T37861:f1</title>
<path fill="none" stroke="#5b00c0" d="M1522,-30C1522,-141.966 1761.3115,23.6069 1776.2685,-71.0129"/>
<polygon fill="#5b00c0" stroke="#5b00c0" points="1772.7788,-71.2824 1777,-81 1779.7601,-70.771 1772.7788,-71.2824"/>
<text text-anchor="middle" x="1779.5" y="-51.8" font-family="Times,serif" font-size="14.00" fill="#5b00c0">rw</text>
</g>
</g>
</svg>
