<?xml version="1.0" encoding="UTF-8" standalone="no"?>
<!DOCTYPE svg PUBLIC "-//W3C//DTD SVG 1.1//EN"
 "http://www.w3.org/Graphics/SVG/1.1/DTD/svg11.dtd">
<!-- Generated by graphviz version 2.40.1 (20161225.0304)
 -->
<!-- Title: a_graph Pages: 1 -->
<svg width="1620pt" height="119pt"
 viewBox="0.00 0.00 1620.00 119.00" xmlns="http://www.w3.org/2000/svg" xmlns:xlink="http://www.w3.org/1999/xlink">
<g id="graph0" class="graph" transform="scale(1 1) rotate(0) translate(4 115)">
<title>a_graph</title>
<polygon fill="#ffffff" stroke="transparent" points="-4,4 -4,-115 1616,-115 1616,4 -4,4"/>
<!-- T37157 -->
<g id="node1" class="node">
<title>T37157</title>
<polygon fill="none" stroke="#0058ad" points="0,-81.5 0,-110.5 858,-110.5 858,-81.5 0,-81.5"/>
<text text-anchor="middle" x="397" y="-92.3" font-family="Times,serif" font-size="14.00" fill="#0058ad">r 184 [1 2 3 5 6 7 8 9 10 13 11 14 15 16 17 18 19 21 20 22 24 25 26 27 28 29 30 31 32 33 34 35 36 37 38 40 41 42 43 44 45 46 47 48 50 49]</text>
<polyline fill="none" stroke="#0058ad" points="794,-81.5 794,-110.5 "/>
<text text-anchor="middle" x="826" y="-92.3" font-family="Times,serif" font-size="14.00" fill="#0058ad">a 185 34</text>
</g>
<!-- T37159 -->
<g id="node2" class="node">
<title>T37159</title>
<polygon fill="none" stroke="#0058ad" points="394,-.5 394,-29.5 1612,-29.5 1612,-.5 394,-.5"/>
<text text-anchor="middle" x="426" y="-11.3" font-family="Times,serif" font-size="14.00" fill="#0058ad">a 142 94</text>
<polyline fill="none" stroke="#0058ad" points="458,-.5 458,-29.5 "/>
<text text-anchor="middle" x="490" y="-11.3" font-family="Times,serif" font-size="14.00" fill="#0058ad">a 184 51</text>
<polyline fill="none" stroke="#0058ad" points="522,-.5 522,-29.5 "/>
<text text-anchor="middle" x="794.5" y="-11.3" font-family="Times,serif" font-size="14.00" fill="#0058ad">r 185 [1 2 3 4 5 7 8 9 10 6 11 12 13 14 15 16 17 18 19 20 21 22 23 25 24 26 27 29 30 31 32 28]</text>
<polyline fill="none" stroke="#0058ad" points="1067,-.5 1067,-29.5 "/>
<text text-anchor="middle" x="1339.5" y="-11.3" font-family="Times,serif" font-size="14.00" fill="#0058ad">r 185 [1 2 3 4 5 7 8 9 10 6 11 12 13 14 15 16 17 18 19 20 21 22 23 25 24 26 27 29 30 31 32 28]</text>
</g>
<!-- T37157&#45;&gt;T37159 -->
<g id="edge1" class="edge">
<title>T37157:f0&#45;&gt;T37159:f1</title>
<path fill="none" stroke="#5b00c0" d="M397,-81C397,-37.7265 475.368,-70.6481 488.2252,-39.8754"/>
<polygon fill="#5b00c0" stroke="#5b00c0" points="491.6759,-40.4614 490,-30 484.7863,-39.2232 491.6759,-40.4614"/>
<text text-anchor="middle" x="488.5" y="-51.8" font-family="Times,serif" font-size="14.00" fill="#5b00c0">rw</text>
</g>
<!-- T37159&#45;&gt;T37157 -->
<g id="edge2" class="edge">
<title>T37159:f2&#45;&gt;T37157:f1</title>
<path fill="none" stroke="#5b00c0" d="M794,-30C794,-52.787 817.2051,-54.3434 824.0941,-70.8276"/>
<polygon fill="#5b00c0" stroke="#5b00c0" points="820.7182,-71.8156 826,-81 827.5985,-70.5265 820.7182,-71.8156"/>
<text text-anchor="middle" x="825.5" y="-51.8" font-family="Times,serif" font-size="14.00" fill="#5b00c0">rw</text>
</g>
</g>
</svg>
