<?xml version="1.0" encoding="UTF-8" standalone="no"?>
<!DOCTYPE svg PUBLIC "-//W3C//DTD SVG 1.1//EN"
 "http://www.w3.org/Graphics/SVG/1.1/DTD/svg11.dtd">
<!-- Generated by graphviz version 2.40.1 (20161225.0304)
 -->
<!-- Title: a_graph Pages: 1 -->
<svg width="3019pt" height="200pt"
 viewBox="0.00 0.00 3019.00 200.00" xmlns="http://www.w3.org/2000/svg" xmlns:xlink="http://www.w3.org/1999/xlink">
<g id="graph0" class="graph" transform="scale(1 1) rotate(0) translate(4 196)">
<title>a_graph</title>
<polygon fill="#ffffff" stroke="transparent" points="-4,4 -4,-196 3015,-196 3015,4 -4,4"/>
<!-- T26139 -->
<g id="node1" class="node">
<title>T26139</title>
<polygon fill="none" stroke="#0058ad" points="0,-162.5 0,-191.5 2276,-191.5 2276,-162.5 0,-162.5"/>
<text text-anchor="middle" x="365.5" y="-173.3" font-family="Times,serif" font-size="14.00" fill="#0058ad">r 129 [1 2 5 7 6 8 9 11 13 14 15 16 19 20 18 21 22 23 24 25 26 27 28 29 30 31 32 33 34 36 37 38 35 39 40 41 42 43 44 45 46 47]</text>
<polyline fill="none" stroke="#0058ad" points="731,-162.5 731,-191.5 "/>
<text text-anchor="middle" x="960.5" y="-173.3" font-family="Times,serif" font-size="14.00" fill="#0058ad">r 128 [1 3 2 4 5 6 7 8 9 10 13 14 16 17 18 19 20 21 22 24 23 25 26 27 28 29 30]</text>
<polyline fill="none" stroke="#0058ad" points="1190,-162.5 1190,-191.5 "/>
<text text-anchor="middle" x="1222" y="-173.3" font-family="Times,serif" font-size="14.00" fill="#0058ad">a 128 31</text>
<polyline fill="none" stroke="#0058ad" points="1254,-162.5 1254,-191.5 "/>
<text text-anchor="middle" x="1765" y="-173.3" font-family="Times,serif" font-size="14.00" fill="#0058ad">r 2 [1 2 3 5 6 7 8 9 10 11 12 13 14 15 16 18 19 20 21 22 23 24 25 26 27 28 29 30 31 32 33 34 35 36 37 38 39 41 42 43 44 46 47 48 49 50 52 53 54 55 56 57 58 59 60 61 63 64 65 67]</text>
</g>
<!-- T26137 -->
<g id="node2" class="node">
<title>T26137</title>
<polygon fill="none" stroke="#0058ad" points="333.5,-81.5 333.5,-110.5 2980.5,-110.5 2980.5,-81.5 333.5,-81.5"/>
<text text-anchor="middle" x="365.5" y="-92.3" font-family="Times,serif" font-size="14.00" fill="#0058ad">a 129 48</text>
<polyline fill="none" stroke="#0058ad" points="397.5,-81.5 397.5,-110.5 "/>
<text text-anchor="middle" x="1314.5" y="-92.3" font-family="Times,serif" font-size="14.00" fill="#0058ad">r 124 [1 2 3 4 5 6 7 9 11 8 12 13 14 15 16 17 18 19 20 22 23 21 28 29 30 31 32 33 34 35 36 37 38 39 40 41 42 43 44 45 46 48 49 50 52 51 53 54 55 56 57 58 59 60 62 61 64 65 66 67 68 69 70 72 73 74 75 77 78 79 76 80 81 82 83 84 85 86 87 89 90 91 92 93 94 95 97 96 98 99 100 101 102 103 104 105 106 107 108 109 110 111]</text>
<polyline fill="none" stroke="#0058ad" points="2231.5,-81.5 2231.5,-110.5 "/>
<text text-anchor="middle" x="2606" y="-92.3" font-family="Times,serif" font-size="14.00" fill="#0058ad">r 129 [1 2 5 7 6 8 9 11 13 14 15 16 19 20 18 21 22 23 24 25 26 27 28 29 30 31 32 33 34 36 37 38 35 39 40 41 42 43 44 45 46 47 48]</text>
</g>
<!-- T26139&#45;&gt;T26137 -->
<g id="edge1" class="edge">
<title>T26139:f0&#45;&gt;T26137:f0</title>
<path fill="none" stroke="#5b00c0" d="M365,-162C365,-143.2292 365,-136.1168 365,-121.3535"/>
<polygon fill="#5b00c0" stroke="#5b00c0" points="368.5001,-121 365,-111 361.5001,-121 368.5001,-121"/>
<text text-anchor="middle" x="372.5" y="-132.8" font-family="Times,serif" font-size="14.00" fill="#5b00c0">rw</text>
</g>
<!-- T26141 -->
<g id="node3" class="node">
<title>T26141</title>
<polygon fill="none" stroke="#0058ad" points="71,-.5 71,-29.5 1103,-29.5 1103,-.5 71,-.5"/>
<text text-anchor="middle" x="300.5" y="-11.3" font-family="Times,serif" font-size="14.00" fill="#0058ad">r 128 [1 3 2 4 5 6 7 8 9 10 13 14 16 17 18 19 20 21 22 24 23 25 26 27 28 29 30]</text>
<polyline fill="none" stroke="#0058ad" points="530,-.5 530,-29.5 "/>
<text text-anchor="middle" x="759.5" y="-11.3" font-family="Times,serif" font-size="14.00" fill="#0058ad">r 128 [1 3 2 4 5 6 7 8 9 10 13 14 16 17 18 19 20 21 22 24 23 25 26 27 28 29 30]</text>
<polyline fill="none" stroke="#0058ad" points="989,-.5 989,-29.5 "/>
<text text-anchor="middle" x="1014" y="-11.3" font-family="Times,serif" font-size="14.00" fill="#0058ad">a 2 69</text>
<polyline fill="none" stroke="#0058ad" points="1039,-.5 1039,-29.5 "/>
<text text-anchor="middle" x="1071" y="-11.3" font-family="Times,serif" font-size="14.00" fill="#0058ad">a 129 50</text>
</g>
<!-- T26139&#45;&gt;T26141 -->
<g id="edge2" class="edge">
<title>T26139:f3&#45;&gt;T26141:f2</title>
<path fill="none" stroke="#5b00c0" d="M2276,-177C2355.6715,-177 2936.319,-169.872 2990,-111 2998.9837,-101.1476 2999.3057,-90.5489 2990,-81 2953.1384,-43.1747 1158.8415,-81.734 1022.2201,-35.8565"/>
<polygon fill="#5b00c0" stroke="#5b00c0" points="1024.1753,-32.9521 1014,-30 1020.1135,-38.6531 1024.1753,-32.9521"/>
<text text-anchor="middle" x="3003.5" y="-92.3" font-family="Times,serif" font-size="14.00" fill="#5b00c0">rw</text>
</g>
<!-- T26137&#45;&gt;T26141 -->
<g id="edge3" class="edge">
<title>T26137:f0&#45;&gt;T26141:f3</title>
<path fill="none" stroke="#c02700" d="M365,-81C365,72.7647 1039.6413,-175.6688 1069.9475,-39.9717"/>
<polygon fill="#c02700" stroke="#c02700" points="1073.4309,-40.3122 1071,-30 1066.4696,-39.5773 1073.4309,-40.3122"/>
<text text-anchor="middle" x="1073" y="-51.8" font-family="Times,serif" font-size="14.00" fill="#c02700">ww</text>
</g>
<!-- T26141&#45;&gt;T26139 -->
<g id="edge4" class="edge">
<title>T26141:f0&#45;&gt;T26139:f2</title>
<path fill="none" stroke="#5b00c0" d="M300,-30C300,-66.2215 289.8215,-80.2724 309,-111 323.4929,-134.2204 334.7959,-136.0892 361,-144 382.4697,-150.4816 1120.422,-139.6054 1212.5822,-157.9316"/>
<polygon fill="#5b00c0" stroke="#5b00c0" points="1211.4319,-161.2473 1222,-162 1214.2079,-154.8212 1211.4319,-161.2473"/>
<text text-anchor="middle" x="316.5" y="-92.3" font-family="Times,serif" font-size="14.00" fill="#5b00c0">rw</text>
</g>
</g>
</svg>
