<?xml version="1.0" encoding="UTF-8" standalone="no"?>
<!DOCTYPE svg PUBLIC "-//W3C//DTD SVG 1.1//EN"
 "http://www.w3.org/Graphics/SVG/1.1/DTD/svg11.dtd">
<!-- Generated by graphviz version 2.40.1 (20161225.0304)
 -->
<!-- Title: a_graph Pages: 1 -->
<svg width="2966pt" height="119pt"
 viewBox="0.00 0.00 2966.00 119.00" xmlns="http://www.w3.org/2000/svg" xmlns:xlink="http://www.w3.org/1999/xlink">
<g id="graph0" class="graph" transform="scale(1 1) rotate(0) translate(4 115)">
<title>a_graph</title>
<polygon fill="#ffffff" stroke="transparent" points="-4,4 -4,-115 2962,-115 2962,4 -4,4"/>
<!-- T32959 -->
<g id="node1" class="node">
<title>T32959</title>
<polygon fill="none" stroke="#0058ad" points="803.5,-81.5 803.5,-110.5 1358.5,-110.5 1358.5,-81.5 803.5,-81.5"/>
<text text-anchor="middle" x="839" y="-92.3" font-family="Times,serif" font-size="14.00" fill="#0058ad">a 158 115</text>
<polyline fill="none" stroke="#0058ad" points="874.5,-81.5 874.5,-110.5 "/>
<text text-anchor="middle" x="906.5" y="-92.3" font-family="Times,serif" font-size="14.00" fill="#0058ad">a 162 88</text>
<polyline fill="none" stroke="#0058ad" points="938.5,-81.5 938.5,-110.5 "/>
<text text-anchor="middle" x="1116.5" y="-92.3" font-family="Times,serif" font-size="14.00" fill="#0058ad">r 163 [1 2 3 5 4 6 7 8 9 11 12 13 14 15 16 17 18 19 20 21 22]</text>
<polyline fill="none" stroke="#0058ad" points="1294.5,-81.5 1294.5,-110.5 "/>
<text text-anchor="middle" x="1326.5" y="-92.3" font-family="Times,serif" font-size="14.00" fill="#0058ad">a 162 89</text>
</g>
<!-- T32961 -->
<g id="node2" class="node">
<title>T32961</title>
<polygon fill="none" stroke="#0058ad" points="0,-.5 0,-29.5 2958,-29.5 2958,-.5 0,-.5"/>
<text text-anchor="middle" x="707.5" y="-11.3" font-family="Times,serif" font-size="14.00" fill="#0058ad">r 162 [2 3 4 5 6 7 8 9 10 11 12 13 14 16 17 18 19 15 20 21 22 23 24 25 26 27 29 30 31 28 32 33 36 34 35 38 37 40 39 41 42 43 44 45 47 46 48 49 50 51 52 54 55 53 56 57 58 59 60 62 63 64 66 65 67 68 69 70 71 74 72 73 76 75 77 78 79 80 81 82 83 84]</text>
<polyline fill="none" stroke="#0058ad" points="1415,-.5 1415,-29.5 "/>
<text text-anchor="middle" x="1447" y="-11.3" font-family="Times,serif" font-size="14.00" fill="#0058ad">a 163 23</text>
<polyline fill="none" stroke="#0058ad" points="1479,-.5 1479,-29.5 "/>
<text text-anchor="middle" x="2186.5" y="-11.3" font-family="Times,serif" font-size="14.00" fill="#0058ad">r 162 [2 3 4 5 6 7 8 9 10 11 12 13 14 16 17 18 19 15 20 21 22 23 24 25 26 27 29 30 31 28 32 33 36 34 35 38 37 40 39 41 42 43 44 45 47 46 48 49 50 51 52 54 55 53 56 57 58 59 60 62 63 64 66 65 67 68 69 70 71 74 72 73 76 75 77 78 79 80 81 82 83 84]</text>
<polyline fill="none" stroke="#0058ad" points="2894,-.5 2894,-29.5 "/>
<text text-anchor="middle" x="2926" y="-11.3" font-family="Times,serif" font-size="14.00" fill="#0058ad">a 163 24</text>
</g>
<!-- T32959&#45;&gt;T32961 -->
<g id="edge1" class="edge">
<title>T32959:f2&#45;&gt;T32961:f1</title>
<path fill="none" stroke="#5b00c0" d="M1117,-81C1117,63.7846 1431.0834,-166.6401 1446.4195,-40.1763"/>
<polygon fill="#5b00c0" stroke="#5b00c0" points="1449.9247,-40.1831 1447,-30 1442.9361,-39.7844 1449.9247,-40.1831"/>
<text text-anchor="middle" x="1450.5" y="-51.8" font-family="Times,serif" font-size="14.00" fill="#5b00c0">rw</text>
</g>
<!-- T32961&#45;&gt;T32959 -->
<g id="edge2" class="edge">
<title>T32961:f0&#45;&gt;T32959:f1</title>
<path fill="none" stroke="#5b00c0" d="M707,-30C707,-117.5579 890.0106,-.118 905.0231,-70.8597"/>
<polygon fill="#5b00c0" stroke="#5b00c0" points="901.5571,-71.3817 906,-81 908.5249,-70.7104 901.5571,-71.3817"/>
<text text-anchor="middle" x="908.5" y="-51.8" font-family="Times,serif" font-size="14.00" fill="#5b00c0">rw</text>
</g>
</g>
</svg>
