<?xml version="1.0" encoding="UTF-8" standalone="no"?>
<!DOCTYPE svg PUBLIC "-//W3C//DTD SVG 1.1//EN"
 "http://www.w3.org/Graphics/SVG/1.1/DTD/svg11.dtd">
<!-- Generated by graphviz version 2.40.1 (20161225.0304)
 -->
<!-- Title: a_graph Pages: 1 -->
<svg width="3199pt" height="119pt"
 viewBox="0.00 0.00 3199.00 119.00" xmlns="http://www.w3.org/2000/svg" xmlns:xlink="http://www.w3.org/1999/xlink">
<g id="graph0" class="graph" transform="scale(1 1) rotate(0) translate(4 115)">
<title>a_graph</title>
<polygon fill="#ffffff" stroke="transparent" points="-4,4 -4,-115 3195,-115 3195,4 -4,4"/>
<!-- T4415 -->
<g id="node1" class="node">
<title>T4415</title>
<polygon fill="none" stroke="#0058ad" points="623.5,-81.5 623.5,-110.5 3101.5,-110.5 3101.5,-81.5 623.5,-81.5"/>
<text text-anchor="middle" x="1022" y="-92.3" font-family="Times,serif" font-size="14.00" fill="#0058ad">r 27 [1 2 4 5 6 7 3 8 9 12 10 11 14 15 17 18 19 20 16 21 23 24 25 26 22 27 28 30 31 32 29 35 36 34 37 38 41 42 39 33 43 44 45 46 47 48 49]</text>
<polyline fill="none" stroke="#0058ad" points="1420.5,-81.5 1420.5,-110.5 "/>
<text text-anchor="middle" x="1445.5" y="-92.3" font-family="Times,serif" font-size="14.00" fill="#0058ad">a 5 99</text>
<polyline fill="none" stroke="#0058ad" points="1470.5,-81.5 1470.5,-110.5 "/>
<text text-anchor="middle" x="2257.5" y="-92.3" font-family="Times,serif" font-size="14.00" fill="#0058ad">r 22 [1 2 3 4 5 6 7 8 9 10 11 13 12 14 15 16 17 18 19 20 21 22 23 24 25 26 27 28 29 30 31 32 33 34 35 36 37 38 39 40 41 42 43 44 45 48 49 50 52 53 51 54 55 56 57 58 59 60 61 62 63 64 65 66 67 68 69 70 71 72 73 74 75 76 77 78 79 80 81 82 83 84 86 85 87 88 89 90 91 92 93 94]</text>
<polyline fill="none" stroke="#0058ad" points="3044.5,-81.5 3044.5,-110.5 "/>
<text text-anchor="middle" x="3073" y="-92.3" font-family="Times,serif" font-size="14.00" fill="#0058ad">a 22 95</text>
</g>
<!-- T4417 -->
<g id="node2" class="node">
<title>T4417</title>
<polygon fill="none" stroke="#0058ad" points="0,-.5 0,-29.5 3191,-29.5 3191,-.5 0,-.5"/>
<text text-anchor="middle" x="749" y="-11.3" font-family="Times,serif" font-size="14.00" fill="#0058ad">r 5 [1 2 3 4 5 6 7 8 9 10 11 12 13 14 15 16 17 18 19 21 22 23 24 25 26 20 31 32 33 29 36 37 38 39 40 41 42 43 44 45 46 47 49 50 52 53 54 55 56 57 58 59 60 61 62 63 64 65 66 67 68 70 71 72 74 75 76 77 78 79 80 81 82 84 85 86 87 88 89 90 91 92 94 93 96 95 97 98]</text>
<polyline fill="none" stroke="#0058ad" points="1498,-.5 1498,-29.5 "/>
<text text-anchor="middle" x="1526.5" y="-11.3" font-family="Times,serif" font-size="14.00" fill="#0058ad">a 27 50</text>
<polyline fill="none" stroke="#0058ad" points="1555,-.5 1555,-29.5 "/>
<text text-anchor="middle" x="1964" y="-11.3" font-family="Times,serif" font-size="14.00" fill="#0058ad">r 26 [1 2 3 7 8 9 11 13 10 12 14 15 16 19 20 17 18 21 22 23 24 25 26 28 27 29 32 34 33 31 35 36 37 39 41 40 42 43 44 45 46 47 48 49 50 51 52]</text>
<polyline fill="none" stroke="#0058ad" points="2373,-.5 2373,-29.5 "/>
<text text-anchor="middle" x="2782" y="-11.3" font-family="Times,serif" font-size="14.00" fill="#0058ad">r 26 [1 2 3 7 8 9 11 13 10 12 14 15 16 19 20 17 18 21 22 23 24 25 26 28 27 29 32 34 33 31 35 36 37 39 41 40 42 43 44 45 46 47 48 49 50 51 52]</text>
</g>
<!-- T4415&#45;&gt;T4417 -->
<g id="edge1" class="edge">
<title>T4415:f0&#45;&gt;T4417:f1</title>
<path fill="none" stroke="#5b00c0" d="M1021.5,-81C1021.5,6.4607 1128.5985,-57.8752 1215.5,-48 1230.916,-46.2482 1468.6374,-47.0801 1517.688,-34.8018"/>
<polygon fill="#5b00c0" stroke="#5b00c0" points="1519.3938,-37.8583 1526.5,-30 1516.0443,-31.7116 1519.3938,-37.8583"/>
<text text-anchor="middle" x="1223" y="-51.8" font-family="Times,serif" font-size="14.00" fill="#5b00c0">rw</text>
</g>
<!-- T4417&#45;&gt;T4415 -->
<g id="edge2" class="edge">
<title>T4417:f0&#45;&gt;T4415:f1</title>
<path fill="none" stroke="#5b00c0" d="M748.5,-30C748.5,-43.3982 1217.162,-46.7316 1230.5,-48 1323.169,-56.8127 1436.7168,10.3824 1445.0166,-70.9248"/>
<polygon fill="#5b00c0" stroke="#5b00c0" points="1441.5247,-71.1793 1445.5,-81 1448.5166,-70.8437 1441.5247,-71.1793"/>
<text text-anchor="middle" x="1451" y="-51.8" font-family="Times,serif" font-size="14.00" fill="#5b00c0">rw</text>
</g>
</g>
</svg>
