<?xml version="1.0" encoding="UTF-8" standalone="no"?>
<!DOCTYPE svg PUBLIC "-//W3C//DTD SVG 1.1//EN"
 "http://www.w3.org/Graphics/SVG/1.1/DTD/svg11.dtd">
<!-- Generated by graphviz version 2.40.1 (20161225.0304)
 -->
<!-- Title: a_graph Pages: 1 -->
<svg width="3439pt" height="119pt"
 viewBox="0.00 0.00 3438.50 119.00" xmlns="http://www.w3.org/2000/svg" xmlns:xlink="http://www.w3.org/1999/xlink">
<g id="graph0" class="graph" transform="scale(1 1) rotate(0) translate(4 115)">
<title>a_graph</title>
<polygon fill="#ffffff" stroke="transparent" points="-4,4 -4,-115 3434.5,-115 3434.5,4 -4,4"/>
<!-- T24127 -->
<g id="node1" class="node">
<title>T24127</title>
<polygon fill="none" stroke="#0058ad" points="595.5,-81.5 595.5,-110.5 3430.5,-110.5 3430.5,-81.5 595.5,-81.5"/>
<text text-anchor="middle" x="627.5" y="-92.3" font-family="Times,serif" font-size="14.00" fill="#0058ad">a 120 82</text>
<polyline fill="none" stroke="#0058ad" points="659.5,-81.5 659.5,-110.5 "/>
<text text-anchor="middle" x="1375.5" y="-92.3" font-family="Times,serif" font-size="14.00" fill="#0058ad">r 119 [1 2 3 5 6 7 8 9 10 11 12 13 14 15 16 18 17 19 20 21 22 23 24 25 26 27 28 29 31 32 33 34 35 36 38 39 40 41 42 43 44 46 45 47 48 49 50 51 52 54 53 55 56 57 59 58 60 61 62 63 64 65 66 67 68 69 70 71 72 73 74 75 77 78 76 80 82 83 81 84 85 87 88]</text>
<polyline fill="none" stroke="#0058ad" points="2091.5,-81.5 2091.5,-110.5 "/>
<text text-anchor="middle" x="2761" y="-92.3" font-family="Times,serif" font-size="14.00" fill="#0058ad">r 120 [1 2 3 4 5 6 8 7 10 9 11 13 14 12 15 16 19 20 17 18 22 23 21 25 26 27 29 28 30 31 32 33 34 35 36 38 37 39 40 41 42 43 44 45 46 47 48 50 51 52 53 49 54 55 56 58 57 60 61 59 62 63 64 65 66 67 68 69 70 73 74 76 75 77 79 80 81 82]</text>
</g>
<!-- T24125 -->
<g id="node2" class="node">
<title>T24125</title>
<polygon fill="none" stroke="#0058ad" points="0,-.5 0,-29.5 1386,-29.5 1386,-.5 0,-.5"/>
<text text-anchor="middle" x="661" y="-11.3" font-family="Times,serif" font-size="14.00" fill="#0058ad">r 120 [1 2 3 4 5 6 8 7 10 9 11 13 14 12 15 16 19 20 17 18 22 23 21 25 26 27 29 28 30 31 32 33 34 35 36 38 37 39 40 41 42 43 44 45 46 47 48 50 51 52 53 49 54 55 56 58 57 60 61 59 62 63 64 65 66 67 68 69 70 73 74 76 75 77 79 80 81]</text>
<polyline fill="none" stroke="#0058ad" points="1322,-.5 1322,-29.5 "/>
<text text-anchor="middle" x="1354" y="-11.3" font-family="Times,serif" font-size="14.00" fill="#0058ad">a 119 89</text>
</g>
<!-- T24127&#45;&gt;T24125 -->
<g id="edge1" class="edge">
<title>T24127:f1&#45;&gt;T24125:f1</title>
<path fill="none" stroke="#5b00c0" d="M1375,-81C1375,-60.3171 1360.0498,-55.6802 1355.3779,-40.0116"/>
<polygon fill="#5b00c0" stroke="#5b00c0" points="1358.8308,-39.4294 1354,-30 1351.8962,-40.3838 1358.8308,-39.4294"/>
<text text-anchor="middle" x="1376.5" y="-51.8" font-family="Times,serif" font-size="14.00" fill="#5b00c0">rw</text>
</g>
<!-- T24125&#45;&gt;T24127 -->
<g id="edge2" class="edge">
<title>T24125:f0&#45;&gt;T24127:f0</title>
<path fill="none" stroke="#5b00c0" d="M661,-30C661,-53.411 635.8901,-54.1303 628.828,-71.1593"/>
<polygon fill="#5b00c0" stroke="#5b00c0" points="625.3853,-70.5289 627,-81 632.2675,-71.8074 625.3853,-70.5289"/>
<text text-anchor="middle" x="659.5" y="-51.8" font-family="Times,serif" font-size="14.00" fill="#5b00c0">rw</text>
</g>
</g>
</svg>
