<?xml version="1.0" encoding="UTF-8" standalone="no"?>
<!DOCTYPE svg PUBLIC "-//W3C//DTD SVG 1.1//EN"
 "http://www.w3.org/Graphics/SVG/1.1/DTD/svg11.dtd">
<!-- Generated by graphviz version 2.40.1 (20161225.0304)
 -->
<!-- Title: a_graph Pages: 1 -->
<svg width="1723pt" height="119pt"
 viewBox="0.00 0.00 1723.00 119.00" xmlns="http://www.w3.org/2000/svg" xmlns:xlink="http://www.w3.org/1999/xlink">
<g id="graph0" class="graph" transform="scale(1 1) rotate(0) translate(4 115)">
<title>a_graph</title>
<polygon fill="#ffffff" stroke="transparent" points="-4,4 -4,-115 1719,-115 1719,4 -4,4"/>
<!-- T157 -->
<g id="node1" class="node">
<title>T157</title>
<polygon fill="none" stroke="#0058ad" points="335,-81.5 335,-110.5 1715,-110.5 1715,-81.5 335,-81.5"/>
<text text-anchor="middle" x="667.5" y="-92.3" font-family="Times,serif" font-size="14.00" fill="#0058ad">r 9 [7 9 13 15 16 17 18 14 19 20 23 24 25 21 22 26 27 28 29 30 31 32 33 34 35 36 37 38 39 40 41 42 43 44 45 46 47]</text>
<polyline fill="none" stroke="#0058ad" points="1000,-81.5 1000,-110.5 "/>
<text text-anchor="middle" x="1025" y="-92.3" font-family="Times,serif" font-size="14.00" fill="#0058ad">a 8 26</text>
<polyline fill="none" stroke="#0058ad" points="1050,-81.5 1050,-110.5 "/>
<text text-anchor="middle" x="1382.5" y="-92.3" font-family="Times,serif" font-size="14.00" fill="#0058ad">r 9 [7 9 13 15 16 17 18 14 19 20 23 24 25 21 22 26 27 28 29 30 31 32 33 34 35 36 37 38 39 40 41 42 43 44 45 46 47]</text>
</g>
<!-- T159 -->
<g id="node2" class="node">
<title>T159</title>
<polygon fill="none" stroke="#0058ad" points="0,-.5 0,-29.5 1096,-29.5 1096,-.5 0,-.5"/>
<text text-anchor="middle" x="332.5" y="-11.3" font-family="Times,serif" font-size="14.00" fill="#0058ad">r 9 [7 9 13 15 16 17 18 14 19 20 23 24 25 21 22 26 27 28 29 30 31 32 33 34 35 36 37 38 39 40 41 42 43 44 45 46 47]</text>
<polyline fill="none" stroke="#0058ad" points="665,-.5 665,-29.5 "/>
<text text-anchor="middle" x="830.5" y="-11.3" font-family="Times,serif" font-size="14.00" fill="#0058ad">r 8 [1 8 9 10 11 12 13 14 15 16 17 18 19 20 21 22 24 23]</text>
<polyline fill="none" stroke="#0058ad" points="996,-.5 996,-29.5 "/>
<text text-anchor="middle" x="1021" y="-11.3" font-family="Times,serif" font-size="14.00" fill="#0058ad">a 9 48</text>
<polyline fill="none" stroke="#0058ad" points="1046,-.5 1046,-29.5 "/>
<text text-anchor="middle" x="1071" y="-11.3" font-family="Times,serif" font-size="14.00" fill="#0058ad">a 9 49</text>
</g>
<!-- T157&#45;&gt;T159 -->
<g id="edge1" class="edge">
<title>T157:f0&#45;&gt;T159:f2</title>
<path fill="none" stroke="#5b00c0" d="M667,-81C667,-72.0353 955.2354,-45.8129 1011.5314,-33.4775"/>
<polygon fill="#5b00c0" stroke="#5b00c0" points="1012.8197,-36.733 1021,-30 1010.4064,-30.1622 1012.8197,-36.733"/>
<text text-anchor="middle" x="913.5" y="-51.8" font-family="Times,serif" font-size="14.00" fill="#5b00c0">rw</text>
</g>
<!-- T159&#45;&gt;T157 -->
<g id="edge2" class="edge">
<title>T159:f1&#45;&gt;T157:f1</title>
<path fill="none" stroke="#5b00c0" d="M831,-30C831,-50.8321 902.8314,-42.7844 923,-48 965.3453,-58.9505 1015.8993,-37.4542 1023.9083,-70.7105"/>
<polygon fill="#5b00c0" stroke="#5b00c0" points="1020.4644,-71.4251 1025,-81 1027.4253,-70.6865 1020.4644,-71.4251"/>
<text text-anchor="middle" x="1026.5" y="-51.8" font-family="Times,serif" font-size="14.00" fill="#5b00c0">rw</text>
</g>
</g>
</svg>
