<?xml version="1.0" encoding="UTF-8" standalone="no"?>
<!DOCTYPE svg PUBLIC "-//W3C//DTD SVG 1.1//EN"
 "http://www.w3.org/Graphics/SVG/1.1/DTD/svg11.dtd">
<!-- Generated by graphviz version 2.40.1 (20161225.0304)
 -->
<!-- Title: a_graph Pages: 1 -->
<svg width="3728pt" height="119pt"
 viewBox="0.00 0.00 3728.00 119.00" xmlns="http://www.w3.org/2000/svg" xmlns:xlink="http://www.w3.org/1999/xlink">
<g id="graph0" class="graph" transform="scale(1 1) rotate(0) translate(4 115)">
<title>a_graph</title>
<polygon fill="#ffffff" stroke="transparent" points="-4,4 -4,-115 3724,-115 3724,4 -4,4"/>
<!-- T4983 -->
<g id="node1" class="node">
<title>T4983</title>
<polygon fill="none" stroke="#0058ad" points="0,-81.5 0,-110.5 3720,-110.5 3720,-81.5 0,-81.5"/>
<text text-anchor="middle" x="1083" y="-92.3" font-family="Times,serif" font-size="14.00" fill="#0058ad">r 26 [1 2 3 7 8 9 11 13 10 12 14 15 16 19 20 17 18 21 22 23 24 25 26 28 27 29 32 34 33 31 35 36 37 39 41 40 42 43 44 45 46 47 48 49 50 51 52 53 54 55 56 58 59 60 62 63 65 66 67 68 69 70 71 72 73 74 75 76 77 78 79 80 82 83 84 85 86 87 89 90 88 91 92 93 94 96 95 98 100 99 102 101 103 105 106 104 107 108 110 109 111 114 115 116 117 118 119 120 121 122 124 125 123 126 127]</text>
<polyline fill="none" stroke="#0058ad" points="2166,-81.5 2166,-110.5 "/>
<text text-anchor="middle" x="2191" y="-92.3" font-family="Times,serif" font-size="14.00" fill="#0058ad">a 29 4</text>
<polyline fill="none" stroke="#0058ad" points="2216,-81.5 2216,-110.5 "/>
<text text-anchor="middle" x="2260.5" y="-92.3" font-family="Times,serif" font-size="14.00" fill="#0058ad">r 29 [2 1 3 4]</text>
<polyline fill="none" stroke="#0058ad" points="2305,-81.5 2305,-110.5 "/>
<text text-anchor="middle" x="3012.5" y="-92.3" font-family="Times,serif" font-size="14.00" fill="#0058ad">r 28 [2 1 3 4 6 8 9 10 11 12 13 14 15 17 18 16 19 20 21 22 23 25 26 28 29 30 31 33 32 36 38 34 35 37 39 40 41 44 42 43 45 46 47 51 52 53 54 55 57 58 56 60 59 62 63 61 64 65 69 68 66 67 70 71 72 73 74 76 75 77 78 79 80 83 85 84 81 82 87 88 86 89]</text>
</g>
<!-- T4981 -->
<g id="node2" class="node">
<title>T4981</title>
<polygon fill="none" stroke="#0058ad" points="2588,-.5 2588,-29.5 2774,-29.5 2774,-.5 2588,-.5"/>
<text text-anchor="middle" x="2613" y="-11.3" font-family="Times,serif" font-size="14.00" fill="#0058ad">a 4 51</text>
<polyline fill="none" stroke="#0058ad" points="2638,-.5 2638,-29.5 "/>
<text text-anchor="middle" x="2666.5" y="-11.3" font-family="Times,serif" font-size="14.00" fill="#0058ad">a 28 90</text>
<polyline fill="none" stroke="#0058ad" points="2695,-.5 2695,-29.5 "/>
<text text-anchor="middle" x="2734.5" y="-11.3" font-family="Times,serif" font-size="14.00" fill="#0058ad">r 29 [2 1 3]</text>
</g>
<!-- T4983&#45;&gt;T4981 -->
<g id="edge1" class="edge">
<title>T4983:f3&#45;&gt;T4981:f1</title>
<path fill="none" stroke="#5b00c0" d="M3013,-81C3013,71.2256 2682.075,-173.8849 2666.5629,-40.2844"/>
<polygon fill="#5b00c0" stroke="#5b00c0" points="2670.0414,-39.7937 2666,-30 2663.0518,-40.1764 2670.0414,-39.7937"/>
<text text-anchor="middle" x="3016.5" y="-51.8" font-family="Times,serif" font-size="14.00" fill="#5b00c0">rw</text>
</g>
<!-- T4981&#45;&gt;T4983 -->
<g id="edge2" class="edge">
<title>T4981:f2&#45;&gt;T4983:f1</title>
<path fill="none" stroke="#5b00c0" d="M2735,-30C2735,-58.1611 2266.7841,-51.8394 2199.1122,-75.0166"/>
<polygon fill="#5b00c0" stroke="#5b00c0" points="2196.9702,-72.2474 2191,-81 2201.1253,-77.8809 2196.9702,-72.2474"/>
<text text-anchor="middle" x="2625.5" y="-51.8" font-family="Times,serif" font-size="14.00" fill="#5b00c0">rw</text>
</g>
</g>
</svg>
