<?xml version="1.0" encoding="UTF-8" standalone="no"?>
<!DOCTYPE svg PUBLIC "-//W3C//DTD SVG 1.1//EN"
 "http://www.w3.org/Graphics/SVG/1.1/DTD/svg11.dtd">
<!-- Generated by graphviz version 2.40.1 (20161225.0304)
 -->
<!-- Title: a_graph Pages: 1 -->
<svg width="1311pt" height="119pt"
 viewBox="0.00 0.00 1311.00 119.00" xmlns="http://www.w3.org/2000/svg" xmlns:xlink="http://www.w3.org/1999/xlink">
<g id="graph0" class="graph" transform="scale(1 1) rotate(0) translate(4 115)">
<title>a_graph</title>
<polygon fill="#ffffff" stroke="transparent" points="-4,4 -4,-115 1307,-115 1307,4 -4,4"/>
<!-- T4271 -->
<g id="node1" class="node">
<title>T4271</title>
<polygon fill="none" stroke="#0058ad" points="143.5,-81.5 143.5,-110.5 499.5,-110.5 499.5,-81.5 143.5,-81.5"/>
<text text-anchor="middle" x="172" y="-92.3" font-family="Times,serif" font-size="14.00" fill="#0058ad">a 26 29</text>
<polyline fill="none" stroke="#0058ad" points="200.5,-81.5 200.5,-110.5 "/>
<text text-anchor="middle" x="261" y="-92.3" font-family="Times,serif" font-size="14.00" fill="#0058ad">r 27 [1 2 4 5 6 7 3]</text>
<polyline fill="none" stroke="#0058ad" points="321.5,-81.5 321.5,-110.5 "/>
<text text-anchor="middle" x="350" y="-92.3" font-family="Times,serif" font-size="14.00" fill="#0058ad">a 21 48</text>
<polyline fill="none" stroke="#0058ad" points="378.5,-81.5 378.5,-110.5 "/>
<text text-anchor="middle" x="439" y="-92.3" font-family="Times,serif" font-size="14.00" fill="#0058ad">r 27 [1 2 4 5 6 7 3]</text>
</g>
<!-- T4269 -->
<g id="node2" class="node">
<title>T4269</title>
<polygon fill="none" stroke="#0058ad" points="0,-.5 0,-29.5 1303,-29.5 1303,-.5 0,-.5"/>
<text text-anchor="middle" x="60.5" y="-11.3" font-family="Times,serif" font-size="14.00" fill="#0058ad">r 27 [1 2 4 5 6 7 3]</text>
<polyline fill="none" stroke="#0058ad" points="121,-.5 121,-29.5 "/>
<text text-anchor="middle" x="146" y="-11.3" font-family="Times,serif" font-size="14.00" fill="#0058ad">a 27 8</text>
<polyline fill="none" stroke="#0058ad" points="171,-.5 171,-29.5 "/>
<text text-anchor="middle" x="390" y="-11.3" font-family="Times,serif" font-size="14.00" fill="#0058ad">r 26 [1 2 3 7 8 9 11 13 10 12 14 15 16 19 20 17 18 21 22 23 24 25 26 28 27]</text>
<polyline fill="none" stroke="#0058ad" points="609,-.5 609,-29.5 "/>
<text text-anchor="middle" x="956" y="-11.3" font-family="Times,serif" font-size="14.00" fill="#0058ad">r 21 [1 2 3 4 5 6 7 8 9 10 11 12 13 14 15 16 18 19 20 22 23 25 27 28 29 30 31 32 33 34 35 36 37 40 41 42 43 44 45 46 47]</text>
</g>
<!-- T4271&#45;&gt;T4269 -->
<g id="edge1" class="edge">
<title>T4271:f1&#45;&gt;T4269:f1</title>
<path fill="none" stroke="#5b00c0" d="M260.5,-81C260.5,-56.5386 172.4531,-57.2415 150.4414,-39.0712"/>
<polygon fill="#5b00c0" stroke="#5b00c0" points="153.3573,-37.1073 145.5,-30 147.2102,-40.4559 153.3573,-37.1073"/>
<text text-anchor="middle" x="244" y="-51.8" font-family="Times,serif" font-size="14.00" fill="#5b00c0">rw</text>
</g>
<!-- T4269&#45;&gt;T4271 -->
<g id="edge2" class="edge">
<title>T4269:f2&#45;&gt;T4271:f0</title>
<path fill="none" stroke="#5b00c0" d="M389.5,-30C389.5,-91.3349 315.2714,-49.2394 255.5,-63 240.3844,-66.4799 194.3785,-63.5851 177.6577,-72.6169"/>
<polygon fill="#5b00c0" stroke="#5b00c0" points="174.5992,-70.8686 171.5,-81 180.2408,-75.0126 174.5992,-70.8686"/>
<text text-anchor="middle" x="392" y="-51.8" font-family="Times,serif" font-size="14.00" fill="#5b00c0">rw</text>
</g>
</g>
</svg>
