<?xml version="1.0" encoding="UTF-8" standalone="no"?>
<!DOCTYPE svg PUBLIC "-//W3C//DTD SVG 1.1//EN"
 "http://www.w3.org/Graphics/SVG/1.1/DTD/svg11.dtd">
<!-- Generated by graphviz version 2.40.1 (20161225.0304)
 -->
<!-- Title: a_graph Pages: 1 -->
<svg width="1090pt" height="119pt"
 viewBox="0.00 0.00 1090.00 119.00" xmlns="http://www.w3.org/2000/svg" xmlns:xlink="http://www.w3.org/1999/xlink">
<g id="graph0" class="graph" transform="scale(1 1) rotate(0) translate(4 115)">
<title>a_graph</title>
<polygon fill="#ffffff" stroke="transparent" points="-4,4 -4,-115 1086,-115 1086,4 -4,4"/>
<!-- T33945 -->
<g id="node1" class="node">
<title>T33945</title>
<polygon fill="none" stroke="#0058ad" points="214.5,-81.5 214.5,-110.5 565.5,-110.5 565.5,-81.5 214.5,-81.5"/>
<text text-anchor="middle" x="246.5" y="-92.3" font-family="Times,serif" font-size="14.00" fill="#0058ad">a 168 55</text>
<polyline fill="none" stroke="#0058ad" points="278.5,-81.5 278.5,-110.5 "/>
<text text-anchor="middle" x="422" y="-92.3" font-family="Times,serif" font-size="14.00" fill="#0058ad">r 169 [1 2 3 4 7 5 6 8 9 10 11 12 13 16 14 15 17]</text>
</g>
<!-- T33947 -->
<g id="node2" class="node">
<title>T33947</title>
<polygon fill="none" stroke="#0058ad" points="0,-.5 0,-29.5 1082,-29.5 1082,-.5 0,-.5"/>
<text text-anchor="middle" x="32" y="-11.3" font-family="Times,serif" font-size="14.00" fill="#0058ad">a 164 56</text>
<polyline fill="none" stroke="#0058ad" points="64,-.5 64,-29.5 "/>
<text text-anchor="middle" x="96" y="-11.3" font-family="Times,serif" font-size="14.00" fill="#0058ad">a 169 19</text>
<polyline fill="none" stroke="#0058ad" points="128,-.5 128,-29.5 "/>
<text text-anchor="middle" x="573" y="-11.3" font-family="Times,serif" font-size="14.00" fill="#0058ad">r 168 [1 3 2 4 5 6 7 8 9 10 12 13 11 14 15 16 17 18 19 20 21 22 23 24 25 27 28 26 31 30 32 33 34 35 36 37 39 41 38 42 43 44 45 46 47 48 49 50 51 52 53 54]</text>
<polyline fill="none" stroke="#0058ad" points="1018,-.5 1018,-29.5 "/>
<text text-anchor="middle" x="1050" y="-11.3" font-family="Times,serif" font-size="14.00" fill="#0058ad">a 169 20</text>
</g>
<!-- T33945&#45;&gt;T33947 -->
<g id="edge1" class="edge">
<title>T33945:f1&#45;&gt;T33947:f1</title>
<path fill="none" stroke="#5b00c0" d="M422,-81C422,-24.8292 355.3022,-57.84 300,-48 280.31,-44.4965 137.6462,-50.8244 103.3835,-36.9594"/>
<polygon fill="#5b00c0" stroke="#5b00c0" points="105.6777,-34.312 96,-30 100.8764,-39.4059 105.6777,-34.312"/>
<text text-anchor="middle" x="425.5" y="-51.8" font-family="Times,serif" font-size="14.00" fill="#5b00c0">rw</text>
</g>
<!-- T33947&#45;&gt;T33945 -->
<g id="edge2" class="edge">
<title>T33947:f2&#45;&gt;T33945:f0</title>
<path fill="none" stroke="#5b00c0" d="M573,-30C573,-62.506 310.8277,-35.0792 281,-48 265.0603,-54.9048 251.9172,-58.2606 247.5488,-70.7438"/>
<polygon fill="#5b00c0" stroke="#5b00c0" points="244.0325,-70.5895 246,-81 250.9541,-71.6348 244.0325,-70.5895"/>
<text text-anchor="middle" x="288.5" y="-51.8" font-family="Times,serif" font-size="14.00" fill="#5b00c0">rw</text>
</g>
</g>
</svg>
