<?xml version="1.0" encoding="UTF-8" standalone="no"?>
<!DOCTYPE svg PUBLIC "-//W3C//DTD SVG 1.1//EN"
 "http://www.w3.org/Graphics/SVG/1.1/DTD/svg11.dtd">
<!-- Generated by graphviz version 2.40.1 (20161225.0304)
 -->
<!-- Title: a_graph Pages: 1 -->
<svg width="2442pt" height="281pt"
 viewBox="0.00 0.00 2441.50 281.00" xmlns="http://www.w3.org/2000/svg" xmlns:xlink="http://www.w3.org/1999/xlink">
<g id="graph0" class="graph" transform="scale(1 1) rotate(0) translate(4 277)">
<title>a_graph</title>
<polygon fill="#ffffff" stroke="transparent" points="-4,4 -4,-277 2437.5,-277 2437.5,4 -4,4"/>
<!-- T24826 -->
<g id="node1" class="node">
<title>T24826</title>
<polygon fill="none" stroke="#0058ad" points="0,-243.5 0,-272.5 2402,-272.5 2402,-243.5 0,-243.5"/>
<text text-anchor="middle" x="600.5" y="-254.3" font-family="Times,serif" font-size="14.00" fill="#0058ad">r 122 [1 2 3 4 5 6 8 9 7 10 11 13 14 12 15 16 17 18 19 20 21 22 23 24 25 26 27 28 29 30 31 32 33 34 35 36 37 38 41 42 43 39 40 44 45 46 47 48 49 50 51 52 53 54 55 56 57 58 59 61 62 63 65 66 67 68 70 72 73 71]</text>
<polyline fill="none" stroke="#0058ad" points="1201,-243.5 1201,-272.5 "/>
<text text-anchor="middle" x="1801.5" y="-254.3" font-family="Times,serif" font-size="14.00" fill="#0058ad">r 122 [1 2 3 4 5 6 8 9 7 10 11 13 14 12 15 16 17 18 19 20 21 22 23 24 25 26 27 28 29 30 31 32 33 34 35 36 37 38 41 42 43 39 40 44 45 46 47 48 49 50 51 52 53 54 55 56 57 58 59 61 62 63 65 66 67 68 70 72 73 71]</text>
</g>
<!-- T24825 -->
<g id="node2" class="node">
<title>T24825</title>
<polygon fill="none" stroke="#0058ad" points="1085,-162.5 1085,-191.5 2033,-191.5 2033,-162.5 1085,-162.5"/>
<text text-anchor="middle" x="1306" y="-173.3" font-family="Times,serif" font-size="14.00" fill="#0058ad">r 123 [1 2 4 3 5 6 7 8 9 10 11 12 13 14 15 16 19 21 22 25 23 24 26 27 28 29]</text>
<polyline fill="none" stroke="#0058ad" points="1527,-162.5 1527,-191.5 "/>
<text text-anchor="middle" x="1559" y="-173.3" font-family="Times,serif" font-size="14.00" fill="#0058ad">a 122 74</text>
<polyline fill="none" stroke="#0058ad" points="1591,-162.5 1591,-191.5 "/>
<text text-anchor="middle" x="1812" y="-173.3" font-family="Times,serif" font-size="14.00" fill="#0058ad">r 123 [1 2 4 3 5 6 7 8 9 10 11 12 13 14 15 16 19 21 22 25 23 24 26 27 28 29]</text>
</g>
<!-- T24826&#45;&gt;T24825 -->
<g id="edge1" class="edge">
<title>T24826:f0&#45;&gt;T24825:f1</title>
<path fill="none" stroke="#5b00c0" d="M600,-243C600,-139.8368 1496.3737,-288.2176 1555.8985,-201.7586"/>
<polygon fill="#5b00c0" stroke="#5b00c0" points="1559.3066,-202.5904 1559,-192 1552.6354,-200.4701 1559.3066,-202.5904"/>
<text text-anchor="middle" x="1548.5" y="-213.8" font-family="Times,serif" font-size="14.00" fill="#5b00c0">rw</text>
</g>
<!-- T24821 -->
<g id="node4" class="node">
<title>T24821</title>
<polygon fill="none" stroke="#0058ad" points="719.5,-81.5 719.5,-110.5 1396.5,-110.5 1396.5,-81.5 719.5,-81.5"/>
<text text-anchor="middle" x="773" y="-92.3" font-family="Times,serif" font-size="14.00" fill="#0058ad">r 124 [1 2 3 4 5]</text>
<polyline fill="none" stroke="#0058ad" points="826.5,-81.5 826.5,-110.5 "/>
<text text-anchor="middle" x="1047.5" y="-92.3" font-family="Times,serif" font-size="14.00" fill="#0058ad">r 123 [1 2 4 3 5 6 7 8 9 10 11 12 13 14 15 16 19 21 22 25 23 24 26 27 28 29]</text>
<polyline fill="none" stroke="#0058ad" points="1268.5,-81.5 1268.5,-110.5 "/>
<text text-anchor="middle" x="1300.5" y="-92.3" font-family="Times,serif" font-size="14.00" fill="#0058ad">a 123 30</text>
<polyline fill="none" stroke="#0058ad" points="1332.5,-81.5 1332.5,-110.5 "/>
<text text-anchor="middle" x="1364.5" y="-92.3" font-family="Times,serif" font-size="14.00" fill="#0058ad">a 123 31</text>
</g>
<!-- T24825&#45;&gt;T24821 -->
<g id="edge2" class="edge">
<title>T24825:f0&#45;&gt;T24821:f2</title>
<path fill="none" stroke="#5b00c0" d="M1306,-162C1306,-143.1392 1302.571,-136.1604 1301.3923,-121.384"/>
<polygon fill="#5b00c0" stroke="#5b00c0" points="1304.8752,-120.8607 1301,-111 1297.8802,-121.125 1304.8752,-120.8607"/>
<text text-anchor="middle" x="1312.5" y="-132.8" font-family="Times,serif" font-size="14.00" fill="#5b00c0">rw</text>
</g>
<!-- T24829 -->
<g id="node3" class="node">
<title>T24829</title>
<polygon fill="none" stroke="#0058ad" points="196.5,-.5 196.5,-29.5 2433.5,-29.5 2433.5,-.5 196.5,-.5"/>
<text text-anchor="middle" x="650.5" y="-11.3" font-family="Times,serif" font-size="14.00" fill="#0058ad">r 108 [1 2 3 4 5 6 7 8 9 11 12 13 14 15 16 17 18 19 20 21 22 23 24 25 26 28 29 30 31 32 33 34 35 36 37 38 40 41 42 43 44 45 46 47 48 54 53 55 56 57 58 59 61]</text>
<polyline fill="none" stroke="#0058ad" points="1104.5,-.5 1104.5,-29.5 "/>
<text text-anchor="middle" x="1136.5" y="-11.3" font-family="Times,serif" font-size="14.00" fill="#0058ad">a 108 62</text>
<polyline fill="none" stroke="#0058ad" points="1168.5,-.5 1168.5,-29.5 "/>
<text text-anchor="middle" x="1200.5" y="-11.3" font-family="Times,serif" font-size="14.00" fill="#0058ad">a 123 32</text>
<polyline fill="none" stroke="#0058ad" points="1232.5,-.5 1232.5,-29.5 "/>
<text text-anchor="middle" x="1833" y="-11.3" font-family="Times,serif" font-size="14.00" fill="#0058ad">r 122 [1 2 3 4 5 6 8 9 7 10 11 13 14 12 15 16 17 18 19 20 21 22 23 24 25 26 27 28 29 30 31 32 33 34 35 36 37 38 41 42 43 39 40 44 45 46 47 48 49 50 51 52 53 54 55 56 57 58 59 61 62 63 65 66 67 68 70 72 73 71]</text>
</g>
<!-- T24829&#45;&gt;T24825 -->
<g id="edge3" class="edge">
<title>T24829:f3&#45;&gt;T24825:f1</title>
<path fill="none" stroke="#5b00c0" d="M1833,-30C1833,-161.6084 1573.2587,-33.9329 1559.5614,-151.8681"/>
<polygon fill="#5b00c0" stroke="#5b00c0" points="1556.0587,-151.8216 1559,-162 1563.048,-152.209 1556.0587,-151.8216"/>
<text text-anchor="middle" x="1814.5" y="-92.3" font-family="Times,serif" font-size="14.00" fill="#5b00c0">rw</text>
</g>
<!-- T24821&#45;&gt;T24826 -->
<g id="edge5" class="edge">
<title>T24821&#45;&gt;T24826</title>
<path fill="none" stroke="#0050c0" d="M1055.2396,-110.8134C1052.3222,-131.0493 1050.1892,-167.6013 1067,-192 1082.5907,-214.6279 1108.2328,-229.8313 1132.9343,-239.8796"/>
<polygon fill="#0050c0" stroke="#0050c0" points="1131.7421,-243.171 1142.3324,-243.4831 1134.2482,-236.6349 1131.7421,-243.171"/>
<text text-anchor="middle" x="1071.5" y="-173.3" font-family="Times,serif" font-size="14.00" fill="#0050c0">rt</text>
</g>
<!-- T24821&#45;&gt;T24829 -->
<g id="edge4" class="edge">
<title>T24821:f3&#45;&gt;T24829:f2</title>
<path fill="none" stroke="#c02700" d="M1365,-81C1365,-7.9914 1215.7199,-97.1729 1201.1418,-40.0031"/>
<polygon fill="#c02700" stroke="#c02700" points="1204.6115,-39.5385 1200,-30 1197.6567,-40.3324 1204.6115,-39.5385"/>
<text text-anchor="middle" x="1371" y="-51.8" font-family="Times,serif" font-size="14.00" fill="#c02700">ww</text>
</g>
</g>
</svg>
