<?xml version="1.0" encoding="UTF-8" standalone="no"?>
<!DOCTYPE svg PUBLIC "-//W3C//DTD SVG 1.1//EN"
 "http://www.w3.org/Graphics/SVG/1.1/DTD/svg11.dtd">
<!-- Generated by graphviz version 2.40.1 (20161225.0304)
 -->
<!-- Title: a_graph Pages: 1 -->
<svg width="6135pt" height="524pt"
 viewBox="0.00 0.00 6135.00 524.00" xmlns="http://www.w3.org/2000/svg" xmlns:xlink="http://www.w3.org/1999/xlink">
<g id="graph0" class="graph" transform="scale(1 1) rotate(0) translate(4 520)">
<title>a_graph</title>
<polygon fill="#ffffff" stroke="transparent" points="-4,4 -4,-520 6131,-520 6131,4 -4,4"/>
<!-- T13431 -->
<g id="node1" class="node">
<title>T13431</title>
<polygon fill="none" stroke="#0058ad" points="551,-486.5 551,-515.5 2659,-515.5 2659,-486.5 551,-486.5"/>
<text text-anchor="middle" x="583" y="-497.3" font-family="Times,serif" font-size="14.00" fill="#0058ad">a 67 112</text>
<polyline fill="none" stroke="#0058ad" points="615,-486.5 615,-515.5 "/>
<text text-anchor="middle" x="647" y="-497.3" font-family="Times,serif" font-size="14.00" fill="#0058ad">a 66 109</text>
<polyline fill="none" stroke="#0058ad" points="679,-486.5 679,-515.5 "/>
<text text-anchor="middle" x="711" y="-497.3" font-family="Times,serif" font-size="14.00" fill="#0058ad">a 67 113</text>
<polyline fill="none" stroke="#0058ad" points="743,-486.5 743,-515.5 "/>
<text text-anchor="middle" x="1701" y="-497.3" font-family="Times,serif" font-size="14.00" fill="#0058ad">r 67 [2 3 4 5 6 7 8 9 10 11 12 13 14 15 16 17 20 21 22 23 24 25 26 27 28 29 30 32 31 33 34 35 36 37 38 39 41 43 44 45 40 47 51 52 53 54 55 50 56 57 58 59 60 61 62 63 65 64 66 67 68 69 70 71 72 73 74 75 76 77 78 79 80 81 82 83 84 85 86 87 88 89 90 91 92 93 94 95 98 96 97 99 100 101 102 103 104 105 107 108 109 110 111 106 112 113]</text>
</g>
<!-- T13451 -->
<g id="node2" class="node">
<title>T13451</title>
<polygon fill="none" stroke="#0058ad" points="2167,-324.5 2167,-353.5 6127,-353.5 6127,-324.5 2167,-324.5"/>
<text text-anchor="middle" x="2199" y="-335.3" font-family="Times,serif" font-size="14.00" fill="#0058ad">a 66 111</text>
<polyline fill="none" stroke="#0058ad" points="2231,-324.5 2231,-353.5 "/>
<text text-anchor="middle" x="3189" y="-335.3" font-family="Times,serif" font-size="14.00" fill="#0058ad">r 67 [2 3 4 5 6 7 8 9 10 11 12 13 14 15 16 17 20 21 22 23 24 25 26 27 28 29 30 32 31 33 34 35 36 37 38 39 41 43 44 45 40 47 51 52 53 54 55 50 56 57 58 59 60 61 62 63 65 64 66 67 68 69 70 71 72 73 74 75 76 77 78 79 80 81 82 83 84 85 86 87 88 89 90 91 92 93 94 95 98 96 97 99 100 101 102 103 104 105 107 108 109 110 111 106 112 113]</text>
<polyline fill="none" stroke="#0058ad" points="4147,-324.5 4147,-353.5 "/>
<text text-anchor="middle" x="5105" y="-335.3" font-family="Times,serif" font-size="14.00" fill="#0058ad">r 67 [2 3 4 5 6 7 8 9 10 11 12 13 14 15 16 17 20 21 22 23 24 25 26 27 28 29 30 32 31 33 34 35 36 37 38 39 41 43 44 45 40 47 51 52 53 54 55 50 56 57 58 59 60 61 62 63 65 64 66 67 68 69 70 71 72 73 74 75 76 77 78 79 80 81 82 83 84 85 86 87 88 89 90 91 92 93 94 95 98 96 97 99 100 101 102 103 104 105 107 108 109 110 111 106 112 113]</text>
<polyline fill="none" stroke="#0058ad" points="6063,-324.5 6063,-353.5 "/>
<text text-anchor="middle" x="6095" y="-335.3" font-family="Times,serif" font-size="14.00" fill="#0058ad">a 66 112</text>
</g>
<!-- T13431&#45;&gt;T13451 -->
<g id="edge2" class="edge">
<title>T13431:f2&#45;&gt;T13451:f1</title>
<path fill="none" stroke="#c000a5" d="M711,-486C711,-465.9707 2133.008,-469.2218 2153,-468 2380.6812,-454.0851 3164.7668,-581.657 3188.4516,-364.2695"/>
<polygon fill="#c000a5" stroke="#c000a5" points="3191.9617,-364.1724 3189,-354 3184.9716,-363.7991 3191.9617,-364.1724"/>
<text text-anchor="middle" x="3177.5" y="-416.3" font-family="Times,serif" font-size="14.00" fill="#c000a5">wr</text>
</g>
<!-- T13435 -->
<g id="node6" class="node">
<title>T13435</title>
<polygon fill="none" stroke="#0058ad" points="116.5,-324.5 116.5,-353.5 2073.5,-353.5 2073.5,-324.5 116.5,-324.5"/>
<text text-anchor="middle" x="1095" y="-335.3" font-family="Times,serif" font-size="14.00" fill="#0058ad">r 4 [1 2 3 4 5 6 9 10 11 13 14 15 17 18 19 21 22 23 24 25 26 27 28 30 31 32 33 34 35 36 38 39 40 41 42 43 44 45 46 48 49 50 51 53 54 57 58 59 60 61 62 63 64 66 67 68 69 70 71 72 73 74 75 76 77 78 79 80 81 82 83 84 85 86 87 88 89 90 91 92 93 94 96 97 98 99 100 101 102 103 104 105 106 108 110 111 112 113 114 115 116 117 118 119 120 121]</text>
</g>
<!-- T13431&#45;&gt;T13435 -->
<g id="edge1" class="edge">
<title>T13431&#45;&gt;T13435</title>
<path fill="none" stroke="#0050c0" d="M1272.1705,-486.4908C1186.7938,-481.2689 1116.5443,-474.9362 1109,-468 1080.6422,-441.9278 1083.9221,-393.1289 1089.2264,-363.5977"/>
<polygon fill="#0050c0" stroke="#0050c0" points="1092.6832,-364.1603 1091.2174,-353.6674 1085.8198,-362.7842 1092.6832,-364.1603"/>
<text text-anchor="middle" x="1094.5" y="-416.3" font-family="Times,serif" font-size="14.00" fill="#0050c0">rt</text>
</g>
<!-- T13433 -->
<g id="node7" class="node">
<title>T13433</title>
<polygon fill="none" stroke="#0058ad" points="1122,-405.5 1122,-434.5 1186,-434.5 1186,-405.5 1122,-405.5"/>
<text text-anchor="middle" x="1154" y="-416.3" font-family="Times,serif" font-size="14.00" fill="#0058ad">a 66 110</text>
</g>
<!-- T13431&#45;&gt;T13433 -->
<g id="edge3" class="edge">
<title>T13431:f1&#45;&gt;T13433:f0</title>
<path fill="none" stroke="#c02700" d="M647,-486C647,-460.3139 1085.6339,-478.6679 1109,-468 1120.8945,-462.5695 1131.149,-452.3984 1138.8521,-442.812"/>
<polygon fill="#c02700" stroke="#c02700" points="1141.754,-444.7758 1144.9418,-434.6719 1136.1489,-440.5826 1141.754,-444.7758"/>
<text text-anchor="middle" x="1140" y="-456.8" font-family="Times,serif" font-size="14.00" fill="#c02700">ww</text>
</g>
<!-- T13443 -->
<g id="node9" class="node">
<title>T13443</title>
<polygon fill="none" stroke="#0058ad" points="2135,-243.5 2135,-272.5 2263,-272.5 2263,-243.5 2135,-243.5"/>
<text text-anchor="middle" x="2167" y="-254.3" font-family="Times,serif" font-size="14.00" fill="#0058ad">a 67 114</text>
<polyline fill="none" stroke="#0058ad" points="2199,-243.5 2199,-272.5 "/>
<text text-anchor="middle" x="2231" y="-254.3" font-family="Times,serif" font-size="14.00" fill="#0058ad">a 67 115</text>
</g>
<!-- T13431&#45;&gt;T13443 -->
<g id="edge4" class="edge">
<title>T13431:f2&#45;&gt;T13443:f0</title>
<path fill="none" stroke="#c02700" d="M711,-486C711,-446.9968 2084.428,-492.2199 2115,-468 2115.4964,-467.6067 2158.7942,-291.5989 2159,-291 2160.3334,-287.119 2162.1746,-284.8449 2163.7545,-282.6224"/>
<polygon fill="#c02700" stroke="#c02700" points="2167.1204,-283.5942 2167,-273 2160.4875,-281.3569 2167.1204,-283.5942"/>
<text text-anchor="middle" x="2148" y="-375.8" font-family="Times,serif" font-size="14.00" fill="#c02700">ww</text>
</g>
<!-- T13451&#45;&gt;T13443 -->
<g id="edge5" class="edge">
<title>T13451:f1&#45;&gt;T13443:f0</title>
<path fill="none" stroke="#5b00c0" d="M3189,-324C3189,-295.6623 2189.4629,-325.6036 2169,-306 2161.1252,-298.4558 2163.8378,-292.0261 2165.76,-283.205"/>
<polygon fill="#5b00c0" stroke="#5b00c0" points="2169.2681,-283.3492 2167,-273 2162.3193,-282.5048 2169.2681,-283.3492"/>
<text text-anchor="middle" x="2176.5" y="-294.8" font-family="Times,serif" font-size="14.00" fill="#5b00c0">rw</text>
</g>
<!-- T13447 -->
<g id="node3" class="node">
<title>T13447</title>
<polygon fill="none" stroke="#0058ad" points="157,-.5 157,-29.5 2025,-29.5 2025,-.5 157,-.5"/>
<text text-anchor="middle" x="1091" y="-11.3" font-family="Times,serif" font-size="14.00" fill="#0058ad">r 67 [2 3 4 5 6 7 8 9 10 11 12 13 14 15 16 17 20 21 22 23 24 25 26 27 28 29 30 32 31 33 34 35 36 37 38 39 41 43 44 45 40 47 51 52 53 54 55 50 56 57 58 59 60 61 62 63 65 64 66 67 68 69 70 71 72 73 74 75 76 77 78 79 80 81 82 83 84 85 86 87 88 89 90 91 92 93 94 95 98 96 97 99 100 101 102 103 104 105 107 108 109 110 111 106]</text>
</g>
<!-- T13447&#45;&gt;T13431 -->
<g id="edge6" class="edge">
<title>T13447:f0&#45;&gt;T13431:f0</title>
<path fill="none" stroke="#5b00c0" d="M191.2861,-29.5056C77.5443,-42.7084 0,-63.593 0,-96 0,-420 0,-420 0,-420 0,-455.201 30.0468,-455.6227 63,-468 111.3916,-486.176 460.0646,-499.631 540.7669,-500.9017"/>
<polygon fill="#5b00c0" stroke="#5b00c0" points="540.9668,-504.4036 551,-501 541.0341,-497.404 540.9668,-504.4036"/>
<text text-anchor="middle" x="7.5" y="-254.3" font-family="Times,serif" font-size="14.00" fill="#5b00c0">rw</text>
</g>
<!-- T13441 -->
<g id="node4" class="node">
<title>T13441</title>
<polygon fill="none" stroke="#0058ad" points="96,-162.5 96,-191.5 1964,-191.5 1964,-162.5 96,-162.5"/>
<text text-anchor="middle" x="1030" y="-173.3" font-family="Times,serif" font-size="14.00" fill="#0058ad">r 67 [2 3 4 5 6 7 8 9 10 11 12 13 14 15 16 17 20 21 22 23 24 25 26 27 28 29 30 32 31 33 34 35 36 37 38 39 41 43 44 45 40 47 51 52 53 54 55 50 56 57 58 59 60 61 62 63 65 64 66 67 68 69 70 71 72 73 74 75 76 77 78 79 80 81 82 83 84 85 86 87 88 89 90 91 92 93 94 95 98 96 97 99 100 101 102 103 104 105 107 108 109 110 111 106]</text>
</g>
<!-- T13441&#45;&gt;T13431 -->
<g id="edge8" class="edge">
<title>T13441:f0&#45;&gt;T13431:f0</title>
<path fill="none" stroke="#5b00c0" d="M264.6869,-191.5144C137.4956,-203.9656 46,-224.548 46,-258 46,-420 46,-420 46,-420 46,-465.3333 92.4909,-455.2692 136,-468 221.6689,-493.0667 442.234,-500.483 540.7317,-500.9735"/>
<polygon fill="#5b00c0" stroke="#5b00c0" points="540.991,-504.474 551,-501 541.0091,-497.4741 540.991,-504.474"/>
<text text-anchor="middle" x="53.5" y="-335.3" font-family="Times,serif" font-size="14.00" fill="#5b00c0">rw</text>
</g>
<!-- T13445 -->
<g id="node8" class="node">
<title>T13445</title>
<polygon fill="none" stroke="#0058ad" points="157,-81.5 157,-110.5 2025,-110.5 2025,-81.5 157,-81.5"/>
<text text-anchor="middle" x="1091" y="-92.3" font-family="Times,serif" font-size="14.00" fill="#0058ad">r 67 [2 3 4 5 6 7 8 9 10 11 12 13 14 15 16 17 20 21 22 23 24 25 26 27 28 29 30 32 31 33 34 35 36 37 38 39 41 43 44 45 40 47 51 52 53 54 55 50 56 57 58 59 60 61 62 63 65 64 66 67 68 69 70 71 72 73 74 75 76 77 78 79 80 81 82 83 84 85 86 87 88 89 90 91 92 93 94 95 98 96 97 99 100 101 102 103 104 105 107 108 109 110 111 106]</text>
</g>
<!-- T13441&#45;&gt;T13445 -->
<g id="edge7" class="edge">
<title>T13441&#45;&gt;T13445</title>
<path fill="none" stroke="#0050c0" d="M1041.1883,-162.1434C1050.303,-150.0403 1063.3265,-132.7468 1073.7708,-118.8781"/>
<polygon fill="#0050c0" stroke="#0050c0" points="1076.6626,-120.8562 1079.8826,-110.7625 1071.0709,-116.6451 1076.6626,-120.8562"/>
<text text-anchor="middle" x="1070.5" y="-132.8" font-family="Times,serif" font-size="14.00" fill="#0050c0">rt</text>
</g>
<!-- T13439 -->
<g id="node5" class="node">
<title>T13439</title>
<polygon fill="none" stroke="#0058ad" points="96,-243.5 96,-272.5 1964,-272.5 1964,-243.5 96,-243.5"/>
<text text-anchor="middle" x="1030" y="-254.3" font-family="Times,serif" font-size="14.00" fill="#0058ad">r 67 [2 3 4 5 6 7 8 9 10 11 12 13 14 15 16 17 20 21 22 23 24 25 26 27 28 29 30 32 31 33 34 35 36 37 38 39 41 43 44 45 40 47 51 52 53 54 55 50 56 57 58 59 60 61 62 63 65 64 66 67 68 69 70 71 72 73 74 75 76 77 78 79 80 81 82 83 84 85 86 87 88 89 90 91 92 93 94 95 98 96 97 99 100 101 102 103 104 105 107 108 109 110 111 106]</text>
</g>
<!-- T13439&#45;&gt;T13431 -->
<g id="edge10" class="edge">
<title>T13439:f0&#45;&gt;T13431:f0</title>
<path fill="none" stroke="#5b00c0" d="M390.9381,-272.5033C248.0069,-282.205 131.1181,-298.0957 107,-324 -35.4968,-477.05 326.9315,-500.2948 540.9247,-500.9838"/>
<polygon fill="#5b00c0" stroke="#5b00c0" points="540.9944,-504.4838 551,-501 541.0057,-497.4838 540.9944,-504.4838"/>
<text text-anchor="middle" x="84.5" y="-375.8" font-family="Times,serif" font-size="14.00" fill="#5b00c0">rw</text>
</g>
<!-- T13439&#45;&gt;T13441 -->
<g id="edge9" class="edge">
<title>T13439&#45;&gt;T13441</title>
<path fill="none" stroke="#0050c0" d="M1030,-243.1434C1030,-231.6112 1030,-215.3668 1030,-201.8626"/>
<polygon fill="#0050c0" stroke="#0050c0" points="1033.5001,-201.7624 1030,-191.7625 1026.5001,-201.7625 1033.5001,-201.7624"/>
<text text-anchor="middle" x="1034.5" y="-213.8" font-family="Times,serif" font-size="14.00" fill="#0050c0">rt</text>
</g>
<!-- T13435&#45;&gt;T13439 -->
<g id="edge11" class="edge">
<title>T13435&#45;&gt;T13439</title>
<path fill="none" stroke="#0050c0" d="M1083.078,-324.1434C1073.3657,-312.0403 1059.4882,-294.7468 1048.359,-280.8781"/>
<polygon fill="#0050c0" stroke="#0050c0" points="1050.8349,-278.3712 1041.8464,-272.7625 1045.3754,-282.7523 1050.8349,-278.3712"/>
<text text-anchor="middle" x="1073.5" y="-294.8" font-family="Times,serif" font-size="14.00" fill="#0050c0">rt</text>
</g>
<!-- T13435&#45;&gt;T13443 -->
<g id="edge12" class="edge">
<title>T13435&#45;&gt;T13443</title>
<path fill="none" stroke="#0050c0" d="M1847.107,-324.4941C2031.5144,-319.3354 2179.4344,-313.0386 2188,-306 2194.8561,-300.3661 2197.9609,-291.4099 2199.2292,-282.7516"/>
<polygon fill="#0050c0" stroke="#0050c0" points="2202.7341,-282.8159 2199.9941,-272.5815 2195.7539,-282.2908 2202.7341,-282.8159"/>
<text text-anchor="middle" x="2201.5" y="-294.8" font-family="Times,serif" font-size="14.00" fill="#0050c0">rt</text>
</g>
<!-- T13433&#45;&gt;T13451 -->
<g id="edge14" class="edge">
<title>T13433:f0&#45;&gt;T13451:f0</title>
<path fill="none" stroke="#c02700" d="M1184.2018,-405.4517C1184.8026,-405.2899 1185.4024,-405.1389 1186,-405 1291.7548,-380.419 2062.1786,-427.2909 2163,-387 2179.5336,-380.3927 2193.1666,-377.025 2197.5322,-364.0469"/>
<polygon fill="#c02700" stroke="#c02700" points="2201.0175,-364.401 2199,-354 2194.091,-363.3889 2201.0175,-364.401"/>
<text text-anchor="middle" x="2202" y="-375.8" font-family="Times,serif" font-size="14.00" fill="#c02700">ww</text>
</g>
<!-- T13433&#45;&gt;T13435 -->
<g id="edge13" class="edge">
<title>T13433&#45;&gt;T13435</title>
<path fill="none" stroke="#0050c0" d="M1143.1785,-405.1434C1134.3627,-393.0403 1121.7662,-375.7468 1111.6643,-361.8781"/>
<polygon fill="#0050c0" stroke="#0050c0" points="1114.4697,-359.7848 1105.7529,-353.7625 1108.8115,-363.9062 1114.4697,-359.7848"/>
<text text-anchor="middle" x="1134.5" y="-375.8" font-family="Times,serif" font-size="14.00" fill="#0050c0">rt</text>
</g>
<!-- T13445&#45;&gt;T13431 -->
<g id="edge16" class="edge">
<title>T13445:f0&#45;&gt;T13431:f0</title>
<path fill="none" stroke="#5b00c0" d="M1889.2709,-110.5005C2013.1513,-123.1332 2101,-143.7969 2101,-177 2101,-420 2101,-420 2101,-420 2101,-525.3573 1259.2684,-463.6733 1154,-468 1139.3831,-468.6008 666.4498,-469.9049 592.6431,-482.5377"/>
<polygon fill="#5b00c0" stroke="#5b00c0" points="591.229,-479.3266 583,-486 593.5945,-485.9148 591.229,-479.3266"/>
<text text-anchor="middle" x="2108.5" y="-294.8" font-family="Times,serif" font-size="14.00" fill="#5b00c0">rw</text>
</g>
<!-- T13445&#45;&gt;T13447 -->
<g id="edge15" class="edge">
<title>T13445&#45;&gt;T13447</title>
<path fill="none" stroke="#0050c0" d="M1091,-81.1434C1091,-69.6112 1091,-53.3668 1091,-39.8626"/>
<polygon fill="#0050c0" stroke="#0050c0" points="1094.5001,-39.7624 1091,-29.7625 1087.5001,-39.7625 1094.5001,-39.7624"/>
<text text-anchor="middle" x="1095.5" y="-51.8" font-family="Times,serif" font-size="14.00" fill="#0050c0">rt</text>
</g>
<!-- T13443&#45;&gt;T13447 -->
<g id="edge17" class="edge">
<title>T13443&#45;&gt;T13447</title>
<path fill="none" stroke="#0050c0" d="M2192.2433,-243.2997C2179.871,-217.6091 2151.4629,-163.9545 2115,-129 2084.792,-100.0417 2073.9473,-93.4629 2034,-81 1951.8747,-55.3782 1778.8596,-39.673 1603.1727,-30.0593"/>
<polygon fill="#0050c0" stroke="#0050c0" points="1603.113,-26.551 1592.9387,-29.5062 1602.7352,-33.5408 1603.113,-26.551"/>
<text text-anchor="middle" x="2132.5" y="-132.8" font-family="Times,serif" font-size="14.00" fill="#0050c0">rt</text>
</g>
</g>
</svg>
