<?xml version="1.0" encoding="UTF-8" standalone="no"?>
<!DOCTYPE svg PUBLIC "-//W3C//DTD SVG 1.1//EN"
 "http://www.w3.org/Graphics/SVG/1.1/DTD/svg11.dtd">
<!-- Generated by graphviz version 2.40.1 (20161225.0304)
 -->
<!-- Title: a_graph Pages: 1 -->
<svg width="2996pt" height="119pt"
 viewBox="0.00 0.00 2996.00 119.00" xmlns="http://www.w3.org/2000/svg" xmlns:xlink="http://www.w3.org/1999/xlink">
<g id="graph0" class="graph" transform="scale(1 1) rotate(0) translate(4 115)">
<title>a_graph</title>
<polygon fill="#ffffff" stroke="transparent" points="-4,4 -4,-115 2992,-115 2992,4 -4,4"/>
<!-- T33269 -->
<g id="node1" class="node">
<title>T33269</title>
<polygon fill="none" stroke="#0058ad" points="0,-81.5 0,-110.5 2793,-110.5 2793,-81.5 0,-81.5"/>
<text text-anchor="middle" x="403.5" y="-92.3" font-family="Times,serif" font-size="14.00" fill="#0058ad">r 165 [1 2 3 4 5 12 14 15 13 6 16 17 18 19 20 21 22 24 25 26 29 30 31 32 33 34 35 36 37 38 39 40 42 43 44 45 46 47 48 49 50 51 52 53 54 56]</text>
<polyline fill="none" stroke="#0058ad" points="807,-81.5 807,-110.5 "/>
<text text-anchor="middle" x="1364.5" y="-92.3" font-family="Times,serif" font-size="14.00" fill="#0058ad">r 163 [1 2 3 5 4 6 7 8 9 11 12 13 14 15 16 17 18 19 20 21 22 23 24 25 26 27 28 30 31 32 33 34 35 36 37 38 39 40 42 41 43 44 45 46 47 48 49 50 51 52 53 54 56 57 58 59 60 61 62 63 64 65 66 67 68]</text>
<polyline fill="none" stroke="#0058ad" points="1922,-81.5 1922,-110.5 "/>
<text text-anchor="middle" x="2325.5" y="-92.3" font-family="Times,serif" font-size="14.00" fill="#0058ad">r 165 [1 2 3 4 5 12 14 15 13 6 16 17 18 19 20 21 22 24 25 26 29 30 31 32 33 34 35 36 37 38 39 40 42 43 44 45 46 47 48 49 50 51 52 53 54 56]</text>
<polyline fill="none" stroke="#0058ad" points="2729,-81.5 2729,-110.5 "/>
<text text-anchor="middle" x="2761" y="-92.3" font-family="Times,serif" font-size="14.00" fill="#0058ad">a 165 55</text>
</g>
<!-- T33267 -->
<g id="node2" class="node">
<title>T33267</title>
<polygon fill="none" stroke="#0058ad" points="2053,-.5 2053,-29.5 2988,-29.5 2988,-.5 2053,-.5"/>
<text text-anchor="middle" x="2085" y="-11.3" font-family="Times,serif" font-size="14.00" fill="#0058ad">a 163 69</text>
<polyline fill="none" stroke="#0058ad" points="2117,-.5 2117,-29.5 "/>
<text text-anchor="middle" x="2520.5" y="-11.3" font-family="Times,serif" font-size="14.00" fill="#0058ad">r 165 [1 2 3 4 5 12 14 15 13 6 16 17 18 19 20 21 22 24 25 26 29 30 31 32 33 34 35 36 37 38 39 40 42 43 44 45 46 47 48 49 50 51 52 53 54 56]</text>
<polyline fill="none" stroke="#0058ad" points="2924,-.5 2924,-29.5 "/>
<text text-anchor="middle" x="2956" y="-11.3" font-family="Times,serif" font-size="14.00" fill="#0058ad">a 164 13</text>
</g>
<!-- T33269&#45;&gt;T33267 -->
<g id="edge1" class="edge">
<title>T33269:f1&#45;&gt;T33267:f0</title>
<path fill="none" stroke="#5b00c0" d="M1364.5,-81C1364.5,-44.5147 1951.0072,-17.7762 2042.3703,-15.2033"/>
<polygon fill="#5b00c0" stroke="#5b00c0" points="2042.5723,-18.7001 2052.5,-15 2042.4317,-11.7015 2042.5723,-18.7001"/>
<text text-anchor="middle" x="1531" y="-51.8" font-family="Times,serif" font-size="14.00" fill="#5b00c0">rw</text>
</g>
<!-- T33267&#45;&gt;T33269 -->
<g id="edge2" class="edge">
<title>T33267:f1&#45;&gt;T33269:f3</title>
<path fill="none" stroke="#5b00c0" d="M2520.5,-30C2520.5,-135.848 2745.7618,17.635 2760.7206,-70.9918"/>
<polygon fill="#5b00c0" stroke="#5b00c0" points="2757.234,-71.302 2761.5,-81 2764.2129,-70.7584 2757.234,-71.302"/>
<text text-anchor="middle" x="2764" y="-51.8" font-family="Times,serif" font-size="14.00" fill="#5b00c0">rw</text>
</g>
</g>
</svg>
