<?xml version="1.0" encoding="UTF-8" standalone="no"?>
<!DOCTYPE svg PUBLIC "-//W3C//DTD SVG 1.1//EN"
 "http://www.w3.org/Graphics/SVG/1.1/DTD/svg11.dtd">
<!-- Generated by graphviz version 2.40.1 (20161225.0304)
 -->
<!-- Title: a_graph Pages: 1 -->
<svg width="2496pt" height="119pt"
 viewBox="0.00 0.00 2495.50 119.00" xmlns="http://www.w3.org/2000/svg" xmlns:xlink="http://www.w3.org/1999/xlink">
<g id="graph0" class="graph" transform="scale(1 1) rotate(0) translate(4 115)">
<title>a_graph</title>
<polygon fill="#ffffff" stroke="transparent" points="-4,4 -4,-115 2491.5,-115 2491.5,4 -4,4"/>
<!-- T16755 -->
<g id="node1" class="node">
<title>T16755</title>
<polygon fill="none" stroke="#0058ad" points="1891.5,-81.5 1891.5,-110.5 2487.5,-110.5 2487.5,-81.5 1891.5,-81.5"/>
<text text-anchor="middle" x="1923.5" y="-92.3" font-family="Times,serif" font-size="14.00" fill="#0058ad">a 82 122</text>
<polyline fill="none" stroke="#0058ad" points="1955.5,-81.5 1955.5,-110.5 "/>
<text text-anchor="middle" x="2088.5" y="-92.3" font-family="Times,serif" font-size="14.00" fill="#0058ad">r 87 [1 2 3 7 8 9 10 11 12 13 14 15 16 17 18]</text>
<polyline fill="none" stroke="#0058ad" points="2221.5,-81.5 2221.5,-110.5 "/>
<text text-anchor="middle" x="2354.5" y="-92.3" font-family="Times,serif" font-size="14.00" fill="#0058ad">r 87 [1 2 3 7 8 9 10 11 12 13 14 15 16 17 18]</text>
</g>
<!-- T16756 -->
<g id="node2" class="node">
<title>T16756</title>
<polygon fill="none" stroke="#0058ad" points="0,-.5 0,-29.5 2411,-29.5 2411,-.5 0,-.5"/>
<text text-anchor="middle" x="1044" y="-11.3" font-family="Times,serif" font-size="14.00" fill="#0058ad">r 82 [1 2 3 5 6 7 8 9 10 11 12 13 14 15 16 17 19 18 20 21 22 23 24 25 26 27 30 29 28 31 32 33 34 35 36 37 38 39 40 41 42 43 44 45 46 47 48 49 50 51 52 54 53 56 55 58 59 57 60 61 63 64 65 66 67 68 69 70 71 73 74 75 72 76 77 78 79 81 84 85 86 82 87 88 89 90 91 92 93 94 95 96 97 98 99 101 102 100 103 104 105 106 107 108 109 110 112 113 114 116 117 118 119 120]</text>
<polyline fill="none" stroke="#0058ad" points="2088,-.5 2088,-29.5 "/>
<text text-anchor="middle" x="2221" y="-11.3" font-family="Times,serif" font-size="14.00" fill="#0058ad">r 87 [1 2 3 7 8 9 10 11 12 13 14 15 16 17 18]</text>
<polyline fill="none" stroke="#0058ad" points="2354,-.5 2354,-29.5 "/>
<text text-anchor="middle" x="2382.5" y="-11.3" font-family="Times,serif" font-size="14.00" fill="#0058ad">a 87 19</text>
</g>
<!-- T16755&#45;&gt;T16756 -->
<g id="edge1" class="edge">
<title>T16755:f1&#45;&gt;T16756:f2</title>
<path fill="none" stroke="#5b00c0" d="M2088.5,-81C2088.5,47.9918 2366.6417,-151.1614 2381.8526,-40.115"/>
<polygon fill="#5b00c0" stroke="#5b00c0" points="2385.354,-40.2032 2382.5,-30 2378.3683,-39.756 2385.354,-40.2032"/>
<text text-anchor="middle" x="2386" y="-51.8" font-family="Times,serif" font-size="14.00" fill="#5b00c0">rw</text>
</g>
<!-- T16756&#45;&gt;T16755 -->
<g id="edge2" class="edge">
<title>T16756:f0&#45;&gt;T16755:f0</title>
<path fill="none" stroke="#5b00c0" d="M1043.5,-30C1043.5,-75.2232 1776.9107,-94.3363 1881.3585,-95.8954"/>
<polygon fill="#5b00c0" stroke="#5b00c0" points="1881.4644,-99.3966 1891.5,-96 1881.5367,-92.3969 1881.4644,-99.3966"/>
<text text-anchor="middle" x="1186" y="-51.8" font-family="Times,serif" font-size="14.00" fill="#5b00c0">rw</text>
</g>
</g>
</svg>
