<?xml version="1.0" encoding="UTF-8" standalone="no"?>
<!DOCTYPE svg PUBLIC "-//W3C//DTD SVG 1.1//EN"
 "http://www.w3.org/Graphics/SVG/1.1/DTD/svg11.dtd">
<!-- Generated by graphviz version 2.40.1 (20161225.0304)
 -->
<!-- Title: a_graph Pages: 1 -->
<svg width="1234pt" height="119pt"
 viewBox="0.00 0.00 1234.00 119.00" xmlns="http://www.w3.org/2000/svg" xmlns:xlink="http://www.w3.org/1999/xlink">
<g id="graph0" class="graph" transform="scale(1 1) rotate(0) translate(4 115)">
<title>a_graph</title>
<polygon fill="#ffffff" stroke="transparent" points="-4,4 -4,-115 1230,-115 1230,4 -4,4"/>
<!-- T493 -->
<g id="node1" class="node">
<title>T493</title>
<polygon fill="none" stroke="#0058ad" points="115,-81.5 115,-110.5 1007,-110.5 1007,-81.5 115,-81.5"/>
<text text-anchor="middle" x="341" y="-92.3" font-family="Times,serif" font-size="14.00" fill="#0058ad">r 7 [2 3 4 5 6 7 8 9 10 11 12 13 14 15 16 17 18 19 23 21 22 24 25 26 27 28 29]</text>
<polyline fill="none" stroke="#0058ad" points="567,-81.5 567,-110.5 "/>
<text text-anchor="middle" x="762" y="-92.3" font-family="Times,serif" font-size="14.00" fill="#0058ad">r 6 [3 4 5 6 8 7 9 10 11 12 13 14 15 16 17 18 19 20 21 22 23 24 25]</text>
<polyline fill="none" stroke="#0058ad" points="957,-81.5 957,-110.5 "/>
<text text-anchor="middle" x="982" y="-92.3" font-family="Times,serif" font-size="14.00" fill="#0058ad">a 8 79</text>
</g>
<!-- T491 -->
<g id="node2" class="node">
<title>T491</title>
<polygon fill="none" stroke="#0058ad" points="0,-.5 0,-29.5 1226,-29.5 1226,-.5 0,-.5"/>
<text text-anchor="middle" x="588" y="-11.3" font-family="Times,serif" font-size="14.00" fill="#0058ad">r 8 [1 8 9 10 11 12 13 14 15 16 17 18 19 20 21 22 24 23 26 25 27 28 29 30 31 32 33 34 35 36 37 38 39 40 42 41 43 47 48 49 50 53 54 56 55 57 58 59 60 61 62 65 66 63 64 67 68 70 69 71 72 73 74 75 76 77 78]</text>
<polyline fill="none" stroke="#0058ad" points="1176,-.5 1176,-29.5 "/>
<text text-anchor="middle" x="1201" y="-11.3" font-family="Times,serif" font-size="14.00" fill="#0058ad">a 6 26</text>
</g>
<!-- T493&#45;&gt;T491 -->
<g id="edge1" class="edge">
<title>T493:f1&#45;&gt;T491:f1</title>
<path fill="none" stroke="#5b00c0" d="M762,-81C762,-18.3696 837.0538,-57.2326 899,-48 913.8706,-45.7837 1143.793,-46.5783 1192.1268,-34.7399"/>
<polygon fill="#5b00c0" stroke="#5b00c0" points="1193.8287,-37.7989 1201,-30 1190.5305,-31.6246 1193.8287,-37.7989"/>
<text text-anchor="middle" x="906.5" y="-51.8" font-family="Times,serif" font-size="14.00" fill="#5b00c0">rw</text>
</g>
<!-- T491&#45;&gt;T493 -->
<g id="edge2" class="edge">
<title>T491:f0&#45;&gt;T493:f2</title>
<path fill="none" stroke="#5b00c0" d="M588,-30C588,-48.1387 896.4409,-43.4512 914,-48 942.7087,-55.4372 973.7249,-49.2809 980.6001,-70.8488"/>
<polygon fill="#5b00c0" stroke="#5b00c0" points="977.1666,-71.5719 982,-81 984.101,-70.6156 977.1666,-71.5719"/>
<text text-anchor="middle" x="982.5" y="-51.8" font-family="Times,serif" font-size="14.00" fill="#5b00c0">rw</text>
</g>
</g>
</svg>
