<?xml version="1.0" encoding="UTF-8" standalone="no"?>
<!DOCTYPE svg PUBLIC "-//W3C//DTD SVG 1.1//EN"
 "http://www.w3.org/Graphics/SVG/1.1/DTD/svg11.dtd">
<!-- Generated by graphviz version 2.40.1 (20161225.0304)
 -->
<!-- Title: a_graph Pages: 1 -->
<svg width="1632pt" height="119pt"
 viewBox="0.00 0.00 1631.50 119.00" xmlns="http://www.w3.org/2000/svg" xmlns:xlink="http://www.w3.org/1999/xlink">
<g id="graph0" class="graph" transform="scale(1 1) rotate(0) translate(4 115)">
<title>a_graph</title>
<polygon fill="#ffffff" stroke="transparent" points="-4,4 -4,-115 1627.5,-115 1627.5,4 -4,4"/>
<!-- T3513 -->
<g id="node1" class="node">
<title>T3513</title>
<polygon fill="none" stroke="#0058ad" points="0,-81.5 0,-110.5 1372,-110.5 1372,-81.5 0,-81.5"/>
<text text-anchor="middle" x="212.5" y="-92.3" font-family="Times,serif" font-size="14.00" fill="#0058ad">r 24 [2 3 4 1 6 8 5 10 11 12 13 16 17 19 20 22 23 9 24 25 26 14 15 28 29]</text>
<polyline fill="none" stroke="#0058ad" points="425,-81.5 425,-110.5 "/>
<text text-anchor="middle" x="870" y="-92.3" font-family="Times,serif" font-size="14.00" fill="#0058ad">r 23 [2 1 4 5 6 7 8 9 10 11 12 13 15 14 16 20 21 18 19 17 22 23 24 25 26 28 29 31 32 33 34 35 36 38 37 39 41 42 44 43 46 47 48 49 51 52 53 55 45 56 57 58]</text>
<polyline fill="none" stroke="#0058ad" points="1315,-81.5 1315,-110.5 "/>
<text text-anchor="middle" x="1343.5" y="-92.3" font-family="Times,serif" font-size="14.00" fill="#0058ad">a 23 60</text>
</g>
<!-- T3509 -->
<g id="node2" class="node">
<title>T3509</title>
<polygon fill="none" stroke="#0058ad" points="676.5,-.5 676.5,-29.5 1623.5,-29.5 1623.5,-.5 676.5,-.5"/>
<text text-anchor="middle" x="705" y="-11.3" font-family="Times,serif" font-size="14.00" fill="#0058ad">a 24 30</text>
<polyline fill="none" stroke="#0058ad" points="733.5,-.5 733.5,-29.5 "/>
<text text-anchor="middle" x="1178.5" y="-11.3" font-family="Times,serif" font-size="14.00" fill="#0058ad">r 23 [2 1 4 5 6 7 8 9 10 11 12 13 15 14 16 20 21 18 19 17 22 23 24 25 26 28 29 31 32 33 34 35 36 38 37 39 41 42 44 43 46 47 48 49 51 52 53 55 45 56 57 58]</text>
</g>
<!-- T3513&#45;&gt;T3509 -->
<g id="edge1" class="edge">
<title>T3513:f0&#45;&gt;T3509:f0</title>
<path fill="none" stroke="#5b00c0" d="M212,-81C212,-31.4682 584.6805,-16.4509 665.8879,-15.1024"/>
<polygon fill="#5b00c0" stroke="#5b00c0" points="666.036,-18.6012 676,-15 665.965,-11.6016 666.036,-18.6012"/>
<text text-anchor="middle" x="280.5" y="-51.8" font-family="Times,serif" font-size="14.00" fill="#5b00c0">rw</text>
</g>
<!-- T3509&#45;&gt;T3513 -->
<g id="edge2" class="edge">
<title>T3509:f1&#45;&gt;T3513:f2</title>
<path fill="none" stroke="#5b00c0" d="M1179,-30C1179,-103.0086 1328.2801,-13.8271 1342.8582,-70.9969"/>
<polygon fill="#5b00c0" stroke="#5b00c0" points="1339.3885,-71.4615 1344,-81 1346.3433,-70.6676 1339.3885,-71.4615"/>
<text text-anchor="middle" x="1346.5" y="-51.8" font-family="Times,serif" font-size="14.00" fill="#5b00c0">rw</text>
</g>
</g>
</svg>
