<?xml version="1.0" encoding="UTF-8" standalone="no"?>
<!DOCTYPE svg PUBLIC "-//W3C//DTD SVG 1.1//EN"
 "http://www.w3.org/Graphics/SVG/1.1/DTD/svg11.dtd">
<!-- Generated by graphviz version 2.40.1 (20161225.0304)
 -->
<!-- Title: a_graph Pages: 1 -->
<svg width="5508pt" height="119pt"
 viewBox="0.00 0.00 5507.50 119.00" xmlns="http://www.w3.org/2000/svg" xmlns:xlink="http://www.w3.org/1999/xlink">
<g id="graph0" class="graph" transform="scale(1 1) rotate(0) translate(4 115)">
<title>a_graph</title>
<polygon fill="#ffffff" stroke="transparent" points="-4,4 -4,-115 5503.5,-115 5503.5,4 -4,4"/>
<!-- T2953 -->
<g id="node1" class="node">
<title>T2953</title>
<polygon fill="none" stroke="#0058ad" points="0,-81.5 0,-110.5 2883,-110.5 2883,-81.5 0,-81.5"/>
<text text-anchor="middle" x="25" y="-92.3" font-family="Times,serif" font-size="14.00" fill="#0058ad">a 5 65</text>
<polyline fill="none" stroke="#0058ad" points="50,-81.5 50,-110.5 "/>
<text text-anchor="middle" x="540" y="-92.3" font-family="Times,serif" font-size="14.00" fill="#0058ad">r 5 [1 2 3 4 5 6 7 8 9 10 11 12 13 14 15 16 17 18 19 21 22 23 24 25 26 20 31 32 33 29 36 37 38 39 40 41 42 43 44 45 46 47 49 50 52 53 54 55 56 57 58 59 60 61 62 63 64 65]</text>
<polyline fill="none" stroke="#0058ad" points="1030,-81.5 1030,-110.5 "/>
<text text-anchor="middle" x="1928" y="-92.3" font-family="Times,serif" font-size="14.00" fill="#0058ad">r 19 [1 2 4 3 5 7 6 8 10 11 14 13 15 16 17 18 19 20 21 22 23 25 26 27 28 29 30 31 32 33 34 35 36 37 38 39 40 42 43 44 45 46 47 48 49 50 53 54 51 52 55 56 57 58 59 60 61 62 63 64 65 66 67 71 68 69 70 72 73 75 74 76 77 79 80 81 82 84 83 85 87 88 90 91 92 93 94 95 96 98 99 100 101 102 103 97 104 105 107 106 108]</text>
<polyline fill="none" stroke="#0058ad" points="2826,-81.5 2826,-110.5 "/>
<text text-anchor="middle" x="2854.5" y="-92.3" font-family="Times,serif" font-size="14.00" fill="#0058ad">a 18 95</text>
</g>
<!-- T2955 -->
<g id="node2" class="node">
<title>T2955</title>
<polygon fill="none" stroke="#0058ad" points="1989.5,-.5 1989.5,-29.5 5499.5,-29.5 5499.5,-.5 1989.5,-.5"/>
<text text-anchor="middle" x="2021.5" y="-11.3" font-family="Times,serif" font-size="14.00" fill="#0058ad">a 19 109</text>
<polyline fill="none" stroke="#0058ad" points="2053.5,-.5 2053.5,-29.5 "/>
<text text-anchor="middle" x="2823" y="-11.3" font-family="Times,serif" font-size="14.00" fill="#0058ad">r 18 [1 2 3 4 5 6 7 8 9 10 12 13 14 16 17 19 20 21 22 23 24 25 26 27 28 29 30 32 31 35 33 36 34 37 38 39 40 41 43 44 42 45 46 47 48 49 50 51 52 53 54 55 56 57 58 59 60 61 62 63 64 66 67 68 65 69 70 71 72 73 74 75 76 77 78 79 80 81 83 84 85 86 87 90 91 88 89 93 92 94]</text>
<polyline fill="none" stroke="#0058ad" points="3592.5,-.5 3592.5,-29.5 "/>
<text text-anchor="middle" x="3624.5" y="-11.3" font-family="Times,serif" font-size="14.00" fill="#0058ad">a 14 118</text>
<polyline fill="none" stroke="#0058ad" points="3656.5,-.5 3656.5,-29.5 "/>
<text text-anchor="middle" x="4578" y="-11.3" font-family="Times,serif" font-size="14.00" fill="#0058ad">r 6 [3 4 5 6 8 7 9 10 11 12 13 14 15 16 17 18 19 20 21 22 23 24 25 26 27 28 29 33 34 35 36 37 38 41 42 43 44 45 46 47 48 54 55 53 56 57 58 59 61 62 66 69 70 71 72 73 74 75 77 78 80 81 82 83 84 86 87 88 89 90 91 92 93 94 95 96 99 98 100 102 103 104 105 106 107 108 109 110 111 112 114 115 116 117 119 120 118 121 122]</text>
</g>
<!-- T2953&#45;&gt;T2955 -->
<g id="edge1" class="edge">
<title>T2953:f2&#45;&gt;T2955:f0</title>
<path fill="none" stroke="#5b00c0" d="M1928.5,-81C1928.5,-44.6455 1945.9431,-19.7942 1979.193,-15.6222"/>
<polygon fill="#5b00c0" stroke="#5b00c0" points="1979.7291,-19.0963 1989.5,-15 1979.3073,-12.109 1979.7291,-19.0963"/>
<text text-anchor="middle" x="1942" y="-51.8" font-family="Times,serif" font-size="14.00" fill="#5b00c0">rw</text>
</g>
<!-- T2955&#45;&gt;T2953 -->
<g id="edge2" class="edge">
<title>T2955:f1&#45;&gt;T2953:f3</title>
<path fill="none" stroke="#5b00c0" d="M2822.5,-30C2822.5,-52.787 2845.7051,-54.3434 2852.5941,-70.8276"/>
<polygon fill="#5b00c0" stroke="#5b00c0" points="2849.2182,-71.8156 2854.5,-81 2856.0985,-70.5265 2849.2182,-71.8156"/>
<text text-anchor="middle" x="2854" y="-51.8" font-family="Times,serif" font-size="14.00" fill="#5b00c0">rw</text>
</g>
</g>
</svg>
