<?xml version="1.0" encoding="UTF-8" standalone="no"?>
<!DOCTYPE svg PUBLIC "-//W3C//DTD SVG 1.1//EN"
 "http://www.w3.org/Graphics/SVG/1.1/DTD/svg11.dtd">
<!-- Generated by graphviz version 2.40.1 (20161225.0304)
 -->
<!-- Title: a_graph Pages: 1 -->
<svg width="3513pt" height="119pt"
 viewBox="0.00 0.00 3513.00 119.00" xmlns="http://www.w3.org/2000/svg" xmlns:xlink="http://www.w3.org/1999/xlink">
<g id="graph0" class="graph" transform="scale(1 1) rotate(0) translate(4 115)">
<title>a_graph</title>
<polygon fill="#ffffff" stroke="transparent" points="-4,4 -4,-115 3509,-115 3509,4 -4,4"/>
<!-- T14099 -->
<g id="node1" class="node">
<title>T14099</title>
<polygon fill="none" stroke="#0058ad" points="309,-81.5 309,-110.5 3505,-110.5 3505,-81.5 309,-81.5"/>
<text text-anchor="middle" x="337.5" y="-92.3" font-family="Times,serif" font-size="14.00" fill="#0058ad">a 73 57</text>
<polyline fill="none" stroke="#0058ad" points="366,-81.5 366,-110.5 "/>
<text text-anchor="middle" x="1064.5" y="-92.3" font-family="Times,serif" font-size="14.00" fill="#0058ad">r 72 [1 3 4 5 6 9 10 8 11 12 13 14 15 16 17 18 19 20 21 22 23 24 25 26 27 28 29 32 33 34 30 35 36 37 38 39 40 41 42 43 44 45 47 48 49 50 51 52 53 56 57 54 55 58 60 62 64 65 63 66 67 69 68 70 71 72 73 74 76 77 78 79 80 81 82 83 84 85 86 87 88]</text>
<polyline fill="none" stroke="#0058ad" points="1763,-81.5 1763,-110.5 "/>
<text text-anchor="middle" x="2461.5" y="-92.3" font-family="Times,serif" font-size="14.00" fill="#0058ad">r 72 [1 3 4 5 6 9 10 8 11 12 13 14 15 16 17 18 19 20 21 22 23 24 25 26 27 28 29 32 33 34 30 35 36 37 38 39 40 41 42 43 44 45 47 48 49 50 51 52 53 56 57 54 55 58 60 62 64 65 63 66 67 69 68 70 71 72 73 74 76 77 78 79 80 81 82 83 84 85 86 87 88]</text>
<polyline fill="none" stroke="#0058ad" points="3160,-81.5 3160,-110.5 "/>
<text text-anchor="middle" x="3332.5" y="-92.3" font-family="Times,serif" font-size="14.00" fill="#0058ad">r 69 [1 3 5 6 7 8 9 10 11 12 13 14 15 16 17 18 19 20 21 23]</text>
</g>
<!-- T14097 -->
<g id="node2" class="node">
<title>T14097</title>
<polygon fill="none" stroke="#0058ad" points="0,-.5 0,-29.5 2482,-29.5 2482,-.5 0,-.5"/>
<text text-anchor="middle" x="476.5" y="-11.3" font-family="Times,serif" font-size="14.00" fill="#0058ad">r 73 [1 2 3 4 5 7 8 9 6 10 11 13 14 12 15 16 17 18 19 20 21 22 23 24 25 26 27 28 29 30 31 34 35 32 33 36 37 38 39 40 41 42 43 44 45 46 47 48 49 51 50 52 53 54 55 56]</text>
<polyline fill="none" stroke="#0058ad" points="953,-.5 953,-29.5 "/>
<text text-anchor="middle" x="981.5" y="-11.3" font-family="Times,serif" font-size="14.00" fill="#0058ad">a 72 89</text>
<polyline fill="none" stroke="#0058ad" points="1010,-.5 1010,-29.5 "/>
<text text-anchor="middle" x="1717.5" y="-11.3" font-family="Times,serif" font-size="14.00" fill="#0058ad">r 72 [1 3 4 5 6 9 10 8 11 12 13 14 15 16 17 18 19 20 21 22 23 24 25 26 27 28 29 32 33 34 30 35 36 37 38 39 40 41 42 43 44 45 47 48 49 50 51 52 53 56 57 54 55 58 60 62 64 65 63 66 67 69 68 70 71 72 73 74 76 77 78 79 80 81 82 83 84 85 86 87 88 89]</text>
<polyline fill="none" stroke="#0058ad" points="2425,-.5 2425,-29.5 "/>
<text text-anchor="middle" x="2453.5" y="-11.3" font-family="Times,serif" font-size="14.00" fill="#0058ad">a 72 90</text>
</g>
<!-- T14099&#45;&gt;T14097 -->
<g id="edge1" class="edge">
<title>T14099:f1&#45;&gt;T14097:f1</title>
<path fill="none" stroke="#5b00c0" d="M1064,-81C1064,-41.5936 995.2441,-67.5375 982.8895,-39.8738"/>
<polygon fill="#5b00c0" stroke="#5b00c0" points="986.3173,-39.1639 981,-30 979.442,-40.4797 986.3173,-39.1639"/>
<text text-anchor="middle" x="1061.5" y="-51.8" font-family="Times,serif" font-size="14.00" fill="#5b00c0">rw</text>
</g>
<!-- T14097&#45;&gt;T14099 -->
<g id="edge2" class="edge">
<title>T14097:f0&#45;&gt;T14099:f0</title>
<path fill="none" stroke="#5b00c0" d="M476,-30C476,-91.949 352.8118,-24.139 338.3757,-70.8819"/>
<polygon fill="#5b00c0" stroke="#5b00c0" points="334.8793,-70.6196 337,-81 341.8154,-71.5627 334.8793,-70.6196"/>
<text text-anchor="middle" x="476.5" y="-51.8" font-family="Times,serif" font-size="14.00" fill="#5b00c0">rw</text>
</g>
</g>
</svg>
