<?xml version="1.0" encoding="UTF-8" standalone="no"?>
<!DOCTYPE svg PUBLIC "-//W3C//DTD SVG 1.1//EN"
 "http://www.w3.org/Graphics/SVG/1.1/DTD/svg11.dtd">
<!-- Generated by graphviz version 2.40.1 (20161225.0304)
 -->
<!-- Title: a_graph Pages: 1 -->
<svg width="3226pt" height="119pt"
 viewBox="0.00 0.00 3226.00 119.00" xmlns="http://www.w3.org/2000/svg" xmlns:xlink="http://www.w3.org/1999/xlink">
<g id="graph0" class="graph" transform="scale(1 1) rotate(0) translate(4 115)">
<title>a_graph</title>
<polygon fill="#ffffff" stroke="transparent" points="-4,4 -4,-115 3222,-115 3222,4 -4,4"/>
<!-- T28993 -->
<g id="node1" class="node">
<title>T28993</title>
<polygon fill="none" stroke="#0058ad" points="0,-81.5 0,-110.5 1676,-110.5 1676,-81.5 0,-81.5"/>
<text text-anchor="middle" x="172.5" y="-92.3" font-family="Times,serif" font-size="14.00" fill="#0058ad">r 139 [1 2 3 4 6 7 8 9 10 11 12 13 14 15 16 17 18 19 20 21]</text>
<polyline fill="none" stroke="#0058ad" points="345,-81.5 345,-110.5 "/>
<text text-anchor="middle" x="764.5" y="-92.3" font-family="Times,serif" font-size="14.00" fill="#0058ad">r 144 [1 2 3 4 5 6 7 8 9 10 11 12 13 14 15 16 17 18 19 20 21 23 24 22 25 26 27 28 29 30 31 32 33 34 35 36 37 38 39 40 41 43 42 44 45 46 48 50 51]</text>
<polyline fill="none" stroke="#0058ad" points="1184,-81.5 1184,-110.5 "/>
<text text-anchor="middle" x="1398" y="-92.3" font-family="Times,serif" font-size="14.00" fill="#0058ad">r 145 [1 2 6 7 8 9 10 13 11 12 16 17 18 20 19 21 22 23 24 25 26 29 27 30]</text>
<polyline fill="none" stroke="#0058ad" points="1612,-81.5 1612,-110.5 "/>
<text text-anchor="middle" x="1644" y="-92.3" font-family="Times,serif" font-size="14.00" fill="#0058ad">a 145 28</text>
</g>
<!-- T28995 -->
<g id="node2" class="node">
<title>T28995</title>
<polygon fill="none" stroke="#0058ad" points="676,-.5 676,-29.5 3218,-29.5 3218,-.5 676,-.5"/>
<text text-anchor="middle" x="708" y="-11.3" font-family="Times,serif" font-size="14.00" fill="#0058ad">a 144 53</text>
<polyline fill="none" stroke="#0058ad" points="740,-.5 740,-29.5 "/>
<text text-anchor="middle" x="1168" y="-11.3" font-family="Times,serif" font-size="14.00" fill="#0058ad">r 144 [1 2 3 4 5 6 7 8 9 10 11 12 13 14 15 16 17 18 19 20 21 23 24 22 25 26 27 28 29 30 31 32 33 34 35 36 37 38 39 40 41 43 42 44 45 46 48 50 51 53]</text>
<polyline fill="none" stroke="#0058ad" points="1596,-.5 1596,-29.5 "/>
<text text-anchor="middle" x="1810" y="-11.3" font-family="Times,serif" font-size="14.00" fill="#0058ad">r 145 [1 2 6 7 8 9 10 13 11 12 16 17 18 20 19 21 22 23 24 25 26 29 27 30]</text>
<polyline fill="none" stroke="#0058ad" points="2024,-.5 2024,-29.5 "/>
<text text-anchor="middle" x="2621" y="-11.3" font-family="Times,serif" font-size="14.00" fill="#0058ad">r 2 [1 2 3 5 6 7 8 9 10 11 12 13 14 15 16 18 19 20 21 22 23 24 25 26 27 28 29 30 31 32 33 34 35 36 37 38 39 41 42 43 44 46 47 48 49 50 52 53 54 55 56 57 58 59 60 61 63 64 65 67 69 70 71 72 73 74 75 76 77 78]</text>
</g>
<!-- T28993&#45;&gt;T28995 -->
<g id="edge1" class="edge">
<title>T28993:f1&#45;&gt;T28995:f0</title>
<path fill="none" stroke="#5b00c0" d="M764,-81C764,-51.2814 720.356,-60.5234 710.1269,-39.9362"/>
<polygon fill="#5b00c0" stroke="#5b00c0" points="713.5157,-39.0459 708,-30 706.6707,-40.5111 713.5157,-39.0459"/>
<text text-anchor="middle" x="761.5" y="-51.8" font-family="Times,serif" font-size="14.00" fill="#5b00c0">rw</text>
</g>
<!-- T28995&#45;&gt;T28993 -->
<g id="edge2" class="edge">
<title>T28995:f2&#45;&gt;T28993:f3</title>
<path fill="none" stroke="#5b00c0" d="M1810,-30C1810,-60.2764 1726.1349,-90.2303 1686.2048,-95.2617"/>
<polygon fill="#5b00c0" stroke="#5b00c0" points="1685.7214,-91.7875 1676,-96 1686.2265,-98.7692 1685.7214,-91.7875"/>
<text text-anchor="middle" x="1806.5" y="-51.8" font-family="Times,serif" font-size="14.00" fill="#5b00c0">rw</text>
</g>
</g>
</svg>
