<?xml version="1.0" encoding="UTF-8" standalone="no"?>
<!DOCTYPE svg PUBLIC "-//W3C//DTD SVG 1.1//EN"
 "http://www.w3.org/Graphics/SVG/1.1/DTD/svg11.dtd">
<!-- Generated by graphviz version 2.40.1 (20161225.0304)
 -->
<!-- Title: a_graph Pages: 1 -->
<svg width="1203pt" height="119pt"
 viewBox="0.00 0.00 1202.50 119.00" xmlns="http://www.w3.org/2000/svg" xmlns:xlink="http://www.w3.org/1999/xlink">
<g id="graph0" class="graph" transform="scale(1 1) rotate(0) translate(4 115)">
<title>a_graph</title>
<polygon fill="#ffffff" stroke="transparent" points="-4,4 -4,-115 1198.5,-115 1198.5,4 -4,4"/>
<!-- T33720 -->
<g id="node1" class="node">
<title>T33720</title>
<polygon fill="none" stroke="#0058ad" points="0,-81.5 0,-110.5 1188,-110.5 1188,-81.5 0,-81.5"/>
<text text-anchor="middle" x="562" y="-92.3" font-family="Times,serif" font-size="14.00" fill="#0058ad">r 167 [1 3 2 4 5 10 11 13 14 12 15 16 17 18 19 22 23 24 20 28 27 29 25 26 30 32 31 33 34 35 36 37 38 39 41 40 42 43 44 45 46 47 49 50 52 55 56 57 53 54 58 59 60 61 62 63 64 65 66 67 68 70 71 69]</text>
<polyline fill="none" stroke="#0058ad" points="1124,-81.5 1124,-110.5 "/>
<text text-anchor="middle" x="1156" y="-92.3" font-family="Times,serif" font-size="14.00" fill="#0058ad">a 168 18</text>
</g>
<!-- T33719 -->
<g id="node2" class="node">
<title>T33719</title>
<polygon fill="none" stroke="#0058ad" points="843.5,-.5 843.5,-29.5 1194.5,-29.5 1194.5,-.5 843.5,-.5"/>
<text text-anchor="middle" x="875.5" y="-11.3" font-family="Times,serif" font-size="14.00" fill="#0058ad">a 167 72</text>
<polyline fill="none" stroke="#0058ad" points="907.5,-.5 907.5,-29.5 "/>
<text text-anchor="middle" x="1051" y="-11.3" font-family="Times,serif" font-size="14.00" fill="#0058ad">r 168 [1 3 2 4 5 6 7 8 9 10 12 13 11 14 15 16 17]</text>
</g>
<!-- T33720&#45;&gt;T33719 -->
<g id="edge1" class="edge">
<title>T33720:f0&#45;&gt;T33719:f0</title>
<path fill="none" stroke="#5b00c0" d="M562,-81C562,-19.9883 758.1959,-15.3298 832.5547,-15.0203"/>
<polygon fill="#5b00c0" stroke="#5b00c0" points="833.0069,-18.5195 843,-15 832.9932,-11.5195 833.0069,-18.5195"/>
<text text-anchor="middle" x="593.5" y="-51.8" font-family="Times,serif" font-size="14.00" fill="#5b00c0">rw</text>
</g>
<!-- T33719&#45;&gt;T33720 -->
<g id="edge2" class="edge">
<title>T33719:f1&#45;&gt;T33720:f1</title>
<path fill="none" stroke="#5b00c0" d="M1051,-30C1051,-78.0297 1140.9924,-36.375 1154.3507,-71.0922"/>
<polygon fill="#5b00c0" stroke="#5b00c0" points="1150.9054,-71.7105 1156,-81 1157.8104,-70.561 1150.9054,-71.7105"/>
<text text-anchor="middle" x="1154.5" y="-51.8" font-family="Times,serif" font-size="14.00" fill="#5b00c0">rw</text>
</g>
</g>
</svg>
