<?xml version="1.0" encoding="UTF-8" standalone="no"?>
<!DOCTYPE svg PUBLIC "-//W3C//DTD SVG 1.1//EN"
 "http://www.w3.org/Graphics/SVG/1.1/DTD/svg11.dtd">
<!-- Generated by graphviz version 2.40.1 (20161225.0304)
 -->
<!-- Title: a_graph Pages: 1 -->
<svg width="3655pt" height="119pt"
 viewBox="0.00 0.00 3655.00 119.00" xmlns="http://www.w3.org/2000/svg" xmlns:xlink="http://www.w3.org/1999/xlink">
<g id="graph0" class="graph" transform="scale(1 1) rotate(0) translate(4 115)">
<title>a_graph</title>
<polygon fill="#ffffff" stroke="transparent" points="-4,4 -4,-115 3651,-115 3651,4 -4,4"/>
<!-- T29483 -->
<g id="node1" class="node">
<title>T29483</title>
<polygon fill="none" stroke="#0058ad" points="0,-81.5 0,-110.5 3590,-110.5 3590,-81.5 0,-81.5"/>
<text text-anchor="middle" x="661" y="-92.3" font-family="Times,serif" font-size="14.00" fill="#0058ad">r 146 [1 2 3 4 5 6 7 8 9 10 11 12 13 14 15 16 17 18 19 20 21 22 23 24 25 26 27 28 29 30 31 32 33 34 35 36 37 38 41 40 42 39 46 45 48 49 50 51 52 53 54 55 56 57 58 59 60 61 63 62 64 65 66 67 68 69 70 73 74 71 72 77 79 78 80 75 76]</text>
<polyline fill="none" stroke="#0058ad" points="1322,-81.5 1322,-110.5 "/>
<text text-anchor="middle" x="2424" y="-92.3" font-family="Times,serif" font-size="14.00" fill="#0058ad">r 144 [1 2 3 4 5 6 7 8 9 10 11 12 13 14 15 16 17 18 19 20 21 23 24 22 25 26 27 28 29 30 31 32 33 34 35 36 37 38 39 40 41 43 42 44 45 46 48 50 51 53 52 54 55 57 58 56 60 61 59 62 65 67 68 69 70 73 72 74 75 76 77 78 79 80 81 71 83 84 82 85 86 87 88 89 90 91 92 95 96 97 98 99 100 101 102 103 104 105 106 107 108 109 112 111 113 114 115 116 117 118 119 120 121 122 124 123 125 126]</text>
<polyline fill="none" stroke="#0058ad" points="3526,-81.5 3526,-110.5 "/>
<text text-anchor="middle" x="3558" y="-92.3" font-family="Times,serif" font-size="14.00" fill="#0058ad">a 146 81</text>
</g>
<!-- T29491 -->
<g id="node2" class="node">
<title>T29491</title>
<polygon fill="none" stroke="#0058ad" points="2119,-.5 2119,-29.5 3647,-29.5 3647,-.5 2119,-.5"/>
<text text-anchor="middle" x="2780" y="-11.3" font-family="Times,serif" font-size="14.00" fill="#0058ad">r 146 [1 2 3 4 5 6 7 8 9 10 11 12 13 14 15 16 17 18 19 20 21 22 23 24 25 26 27 28 29 30 31 32 33 34 35 36 37 38 41 40 42 39 46 45 48 49 50 51 52 53 54 55 56 57 58 59 60 61 63 62 64 65 66 67 68 69 70 73 74 71 72 77 79 78 80 75 76]</text>
<polyline fill="none" stroke="#0058ad" points="3441,-.5 3441,-29.5 "/>
<text text-anchor="middle" x="3476.5" y="-11.3" font-family="Times,serif" font-size="14.00" fill="#0058ad">a 144 127</text>
<polyline fill="none" stroke="#0058ad" points="3512,-.5 3512,-29.5 "/>
<text text-anchor="middle" x="3544" y="-11.3" font-family="Times,serif" font-size="14.00" fill="#0058ad">a 139 29</text>
<polyline fill="none" stroke="#0058ad" points="3576,-.5 3576,-29.5 "/>
<text text-anchor="middle" x="3611.5" y="-11.3" font-family="Times,serif" font-size="14.00" fill="#0058ad">a 144 128</text>
</g>
<!-- T29483&#45;&gt;T29491 -->
<g id="edge1" class="edge">
<title>T29483:f1&#45;&gt;T29491:f1</title>
<path fill="none" stroke="#5b00c0" d="M2424,-81C2424,-67.1872 3361.093,-47.0794 3467.2481,-32.5535"/>
<polygon fill="#5b00c0" stroke="#5b00c0" points="3468.2128,-35.919 3477,-30 3466.4395,-29.1473 3468.2128,-35.919"/>
<text text-anchor="middle" x="3143.5" y="-51.8" font-family="Times,serif" font-size="14.00" fill="#5b00c0">rw</text>
</g>
<!-- T29491&#45;&gt;T29483 -->
<g id="edge2" class="edge">
<title>T29491:f0&#45;&gt;T29483:f2</title>
<path fill="none" stroke="#5b00c0" d="M2780,-30C2780,-50.8573 3134.1865,-46.6487 3155,-48 3240.9888,-53.5828 3532.6731,3.8291 3556.4557,-70.6981"/>
<polygon fill="#5b00c0" stroke="#5b00c0" points="3553.0561,-71.6294 3558,-81 3559.9788,-70.5916 3553.0561,-71.6294"/>
<text text-anchor="middle" x="3559.5" y="-51.8" font-family="Times,serif" font-size="14.00" fill="#5b00c0">rw</text>
</g>
</g>
</svg>
