<?xml version="1.0" encoding="UTF-8" standalone="no"?>
<!DOCTYPE svg PUBLIC "-//W3C//DTD SVG 1.1//EN"
 "http://www.w3.org/Graphics/SVG/1.1/DTD/svg11.dtd">
<!-- Generated by graphviz version 2.40.1 (20161225.0304)
 -->
<!-- Title: a_graph Pages: 1 -->
<svg width="4070pt" height="281pt"
 viewBox="0.00 0.00 4069.50 281.00" xmlns="http://www.w3.org/2000/svg" xmlns:xlink="http://www.w3.org/1999/xlink">
<g id="graph0" class="graph" transform="scale(1 1) rotate(0) translate(4 277)">
<title>a_graph</title>
<polygon fill="#ffffff" stroke="transparent" points="-4,4 -4,-277 4065.5,-277 4065.5,4 -4,4"/>
<!-- T34115 -->
<g id="node1" class="node">
<title>T34115</title>
<polygon fill="none" stroke="#0058ad" points="0,-243.5 0,-272.5 2557,-272.5 2557,-243.5 0,-243.5"/>
<text text-anchor="middle" x="652" y="-254.3" font-family="Times,serif" font-size="14.00" fill="#0058ad">r 168 [1 3 2 4 5 6 7 8 9 10 12 13 11 14 15 16 17 18 19 20 21 22 23 24 25 27 28 26 31 30 32 33 34 35 36 37 39 41 38 42 43 44 45 46 47 48 49 50 51 52 53 54 55 56 57 58 59 61 62 63 60 65 64 66 67 69 70 71 72 73 74 75 76 77 78 79]</text>
<polyline fill="none" stroke="#0058ad" points="1304,-243.5 1304,-272.5 "/>
<text text-anchor="middle" x="1930.5" y="-254.3" font-family="Times,serif" font-size="14.00" fill="#0058ad">r 164 [1 2 3 4 5 6 7 8 9 10 11 12 13 14 15 16 17 18 19 20 21 22 23 24 25 26 27 28 29 30 32 33 34 35 36 37 38 39 40 41 42 43 44 46 47 48 49 50 51 52 53 54 55 56 57 59 58 60 61 62 63 64 65 66 69 70 71 72 74 76 77 78 75]</text>
</g>
<!-- T34119 -->
<g id="node4" class="node">
<title>T34119</title>
<polygon fill="none" stroke="#0058ad" points="710,-162.5 710,-191.5 4031,-191.5 4031,-162.5 710,-162.5"/>
<text text-anchor="middle" x="1215.5" y="-173.3" font-family="Times,serif" font-size="14.00" fill="#0058ad">r 169 [1 2 3 4 7 5 6 8 9 10 11 12 13 16 14 15 17 19 20 18 21 22 23 24 25 27 26 28 29 30 31 32 33 34 35 36 37 38 40 39 41 42 43 44 45 46 47 48 49 50 51 54 55 52 56 57 58 59 60]</text>
<polyline fill="none" stroke="#0058ad" points="1721,-162.5 1721,-191.5 "/>
<text text-anchor="middle" x="2226.5" y="-173.3" font-family="Times,serif" font-size="14.00" fill="#0058ad">r 169 [1 2 3 4 7 5 6 8 9 10 11 12 13 16 14 15 17 19 20 18 21 22 23 24 25 27 26 28 29 30 31 32 33 34 35 36 37 38 40 39 41 42 43 44 45 46 47 48 49 50 51 54 55 52 56 57 58 59 60]</text>
<polyline fill="none" stroke="#0058ad" points="2732,-162.5 2732,-191.5 "/>
<text text-anchor="middle" x="3349.5" y="-173.3" font-family="Times,serif" font-size="14.00" fill="#0058ad">r 164 [1 2 3 4 5 6 7 8 9 10 11 12 13 14 15 16 17 18 19 20 21 22 23 24 25 26 27 28 29 30 32 33 34 35 36 37 38 39 40 41 42 43 44 46 47 48 49 50 51 52 53 54 55 56 57 59 58 60 61 62 63 64 65 66 69 70 71 72 74 76 77 78]</text>
<polyline fill="none" stroke="#0058ad" points="3967,-162.5 3967,-191.5 "/>
<text text-anchor="middle" x="3999" y="-173.3" font-family="Times,serif" font-size="14.00" fill="#0058ad">a 168 80</text>
</g>
<!-- T34115&#45;&gt;T34119 -->
<g id="edge1" class="edge">
<title>T34115:f0&#45;&gt;T34119:f3</title>
<path fill="none" stroke="#5b00c0" d="M651.5,-243C651.5,-60.43 3876.4104,-366.2824 3996.0849,-201.8375"/>
<polygon fill="#5b00c0" stroke="#5b00c0" points="3999.5268,-202.5948 3999.5,-192 3992.914,-200.2991 3999.5268,-202.5948"/>
<text text-anchor="middle" x="3991" y="-213.8" font-family="Times,serif" font-size="14.00" fill="#5b00c0">rw</text>
</g>
<!-- T34117 -->
<g id="node2" class="node">
<title>T34117</title>
<polygon fill="none" stroke="#0058ad" points="1564,-81.5 1564,-110.5 3381,-110.5 3381,-81.5 1564,-81.5"/>
<text text-anchor="middle" x="1952" y="-92.3" font-family="Times,serif" font-size="14.00" fill="#0058ad">r 166 [1 2 3 4 5 6 8 9 10 11 12 13 14 15 16 17 18 19 20 21 22 23 24 25 26 27 28 29 30 31 32 33 34 35 36 37 38 39 40 41 42 43 44 45 46]</text>
<polyline fill="none" stroke="#0058ad" points="2340,-81.5 2340,-110.5 "/>
<text text-anchor="middle" x="2828.5" y="-92.3" font-family="Times,serif" font-size="14.00" fill="#0058ad">r 169 [1 2 3 4 7 5 6 8 9 10 11 12 13 16 14 15 17 19 20 18 21 22 23 24 25 27 26 28 29 30 31 32 33 34 35 36 37 38 40 39 41 42 43 44 45 46 47 48 49 50 51 54 55 52 56 57 58]</text>
<polyline fill="none" stroke="#0058ad" points="3317,-81.5 3317,-110.5 "/>
<text text-anchor="middle" x="3349" y="-92.3" font-family="Times,serif" font-size="14.00" fill="#0058ad">a 164 75</text>
</g>
<!-- T34117&#45;&gt;T34115 -->
<g id="edge3" class="edge">
<title>T34117:f2&#45;&gt;T34115:f1</title>
<path fill="none" stroke="#c000a5" d="M3381.5,-96C3455.0885,-96 3991.1258,-107.4339 4040.5,-162 4049.446,-171.8867 4049.7161,-182.3646 4040.5,-192 3985.1657,-249.8516 2717.5884,-257.5792 2567.9314,-257.9823"/>
<polygon fill="#c000a5" stroke="#c000a5" points="2567.494,-254.483 2557.5,-258 2567.5059,-261.483 2567.494,-254.483"/>
<text text-anchor="middle" x="4054" y="-173.3" font-family="Times,serif" font-size="14.00" fill="#c000a5">wr</text>
</g>
<!-- T34113 -->
<g id="node3" class="node">
<title>T34113</title>
<polygon fill="none" stroke="#0058ad" points="1119.5,-.5 1119.5,-29.5 1247.5,-29.5 1247.5,-.5 1119.5,-.5"/>
<text text-anchor="middle" x="1151.5" y="-11.3" font-family="Times,serif" font-size="14.00" fill="#0058ad">a 169 59</text>
<polyline fill="none" stroke="#0058ad" points="1183.5,-.5 1183.5,-29.5 "/>
<text text-anchor="middle" x="1215.5" y="-11.3" font-family="Times,serif" font-size="14.00" fill="#0058ad">a 169 60</text>
</g>
<!-- T34117&#45;&gt;T34113 -->
<g id="edge2" class="edge">
<title>T34117:f1&#45;&gt;T34113:f0</title>
<path fill="none" stroke="#5b00c0" d="M2828.5,-81C2828.5,101.9605 1213.1551,-204.6512 1153.2106,-39.8584"/>
<polygon fill="#5b00c0" stroke="#5b00c0" points="1156.6582,-39.2544 1151.5,-30 1149.7613,-40.4512 1156.6582,-39.2544"/>
<text text-anchor="middle" x="2828" y="-51.8" font-family="Times,serif" font-size="14.00" fill="#5b00c0">rw</text>
</g>
<!-- T34113&#45;&gt;T34115 -->
<g id="edge4" class="edge">
<title>T34113&#45;&gt;T34115</title>
<path fill="none" stroke="#0050c0" d="M1119.248,-17.0391C962.1101,-24.1653 579.8431,-55.6341 701.5,-192 722.7412,-215.8093 864.0487,-232.2096 1001.4928,-242.7065"/>
<polygon fill="#0050c0" stroke="#0050c0" points="1001.5674,-246.222 1011.8022,-243.4835 1002.0936,-239.2418 1001.5674,-246.222"/>
<text text-anchor="middle" x="684" y="-132.8" font-family="Times,serif" font-size="14.00" fill="#0050c0">rt</text>
</g>
<!-- T34113&#45;&gt;T34119 -->
<g id="edge5" class="edge">
<title>T34113:f1&#45;&gt;T34119:f0</title>
<path fill="none" stroke="#c000a5" d="M1215.5,-30C1215.5,-85.1146 1215.5,-101.396 1215.5,-151.8081"/>
<polygon fill="#c000a5" stroke="#c000a5" points="1212.0001,-152 1215.5,-162 1219.0001,-152 1212.0001,-152"/>
<text text-anchor="middle" x="1223" y="-92.3" font-family="Times,serif" font-size="14.00" fill="#c000a5">wr</text>
</g>
<!-- T34119&#45;&gt;T34117 -->
<g id="edge6" class="edge">
<title>T34119:f2&#45;&gt;T34117:f2</title>
<path fill="none" stroke="#5b00c0" d="M3349.5,-162C3349.5,-143.2292 3349.5,-136.1168 3349.5,-121.3535"/>
<polygon fill="#5b00c0" stroke="#5b00c0" points="3353.0001,-121 3349.5,-111 3346.0001,-121 3353.0001,-121"/>
<text text-anchor="middle" x="3357" y="-132.8" font-family="Times,serif" font-size="14.00" fill="#5b00c0">rw</text>
</g>
</g>
</svg>
