<?xml version="1.0" encoding="UTF-8" standalone="no"?>
<!DOCTYPE svg PUBLIC "-//W3C//DTD SVG 1.1//EN"
 "http://www.w3.org/Graphics/SVG/1.1/DTD/svg11.dtd">
<!-- Generated by graphviz version 2.40.1 (20161225.0304)
 -->
<!-- Title: a_graph Pages: 1 -->
<svg width="1517pt" height="119pt"
 viewBox="0.00 0.00 1517.00 119.00" xmlns="http://www.w3.org/2000/svg" xmlns:xlink="http://www.w3.org/1999/xlink">
<g id="graph0" class="graph" transform="scale(1 1) rotate(0) translate(4 115)">
<title>a_graph</title>
<polygon fill="#ffffff" stroke="transparent" points="-4,4 -4,-115 1513,-115 1513,4 -4,4"/>
<!-- T30679 -->
<g id="node1" class="node">
<title>T30679</title>
<polygon fill="none" stroke="#0058ad" points="0,-81.5 0,-110.5 1058,-110.5 1058,-81.5 0,-81.5"/>
<text text-anchor="middle" x="497" y="-92.3" font-family="Times,serif" font-size="14.00" fill="#0058ad">r 149 [1 2 3 4 5 6 7 8 9 10 11 12 14 13 15 17 16 18 20 21 19 22 23 25 27 28 29 30 31 32 33 34 35 36 37 38 39 40 41 42 43 44 46 47 49 50 52 53 54 55 57 58 60 61 59 62 63 65]</text>
<polyline fill="none" stroke="#0058ad" points="994,-81.5 994,-110.5 "/>
<text text-anchor="middle" x="1026" y="-92.3" font-family="Times,serif" font-size="14.00" fill="#0058ad">a 152 62</text>
</g>
<!-- T30675 -->
<g id="node2" class="node">
<title>T30675</title>
<polygon fill="none" stroke="#0058ad" points="397,-.5 397,-29.5 1509,-29.5 1509,-.5 397,-.5"/>
<text text-anchor="middle" x="432.5" y="-11.3" font-family="Times,serif" font-size="14.00" fill="#0058ad">a 153 105</text>
<polyline fill="none" stroke="#0058ad" points="468,-.5 468,-29.5 "/>
<text text-anchor="middle" x="500" y="-11.3" font-family="Times,serif" font-size="14.00" fill="#0058ad">a 149 64</text>
<polyline fill="none" stroke="#0058ad" points="532,-.5 532,-29.5 "/>
<text text-anchor="middle" x="1020.5" y="-11.3" font-family="Times,serif" font-size="14.00" fill="#0058ad">r 152 [1 2 3 5 4 6 7 8 9 10 11 13 14 15 16 12 17 18 20 22 23 24 26 27 28 29 30 31 32 33 34 36 37 38 39 40 41 42 43 44 45 46 47 48 49 51 52 50 53 54 55 56 58 59 57 60 61]</text>
</g>
<!-- T30679&#45;&gt;T30675 -->
<g id="edge1" class="edge">
<title>T30679:f0&#45;&gt;T30675:f1</title>
<path fill="none" stroke="#5b00c0" d="M497,-81C497,-62.1967 499.0574,-55.1325 499.7646,-40.3645"/>
<polygon fill="#5b00c0" stroke="#5b00c0" points="503.2719,-40.0769 500,-30 496.2737,-39.9179 503.2719,-40.0769"/>
<text text-anchor="middle" x="507.5" y="-51.8" font-family="Times,serif" font-size="14.00" fill="#5b00c0">rw</text>
</g>
<!-- T30675&#45;&gt;T30679 -->
<g id="edge2" class="edge">
<title>T30675:f2&#45;&gt;T30679:f1</title>
<path fill="none" stroke="#5b00c0" d="M1021,-30C1021,-48.8608 1024.429,-55.8396 1025.6077,-70.616"/>
<polygon fill="#5b00c0" stroke="#5b00c0" points="1022.1248,-71.1393 1026,-81 1029.1198,-70.875 1022.1248,-71.1393"/>
<text text-anchor="middle" x="1031.5" y="-51.8" font-family="Times,serif" font-size="14.00" fill="#5b00c0">rw</text>
</g>
</g>
</svg>
