<?xml version="1.0" encoding="UTF-8" standalone="no"?>
<!DOCTYPE svg PUBLIC "-//W3C//DTD SVG 1.1//EN"
 "http://www.w3.org/Graphics/SVG/1.1/DTD/svg11.dtd">
<!-- Generated by graphviz version 2.40.1 (20161225.0304)
 -->
<!-- Title: a_graph Pages: 1 -->
<svg width="1000pt" height="119pt"
 viewBox="0.00 0.00 1000.00 119.00" xmlns="http://www.w3.org/2000/svg" xmlns:xlink="http://www.w3.org/1999/xlink">
<g id="graph0" class="graph" transform="scale(1 1) rotate(0) translate(4 115)">
<title>a_graph</title>
<polygon fill="#ffffff" stroke="transparent" points="-4,4 -4,-115 996,-115 996,4 -4,4"/>
<!-- T6043 -->
<g id="node1" class="node">
<title>T6043</title>
<polygon fill="none" stroke="#0058ad" points="0,-81.5 0,-110.5 992,-110.5 992,-81.5 0,-81.5"/>
<text text-anchor="middle" x="28.5" y="-92.3" font-family="Times,serif" font-size="14.00" fill="#0058ad">a 33 41</text>
<polyline fill="none" stroke="#0058ad" points="57,-81.5 57,-110.5 "/>
<text text-anchor="middle" x="85.5" y="-92.3" font-family="Times,serif" font-size="14.00" fill="#0058ad">a 29 88</text>
<polyline fill="none" stroke="#0058ad" points="114,-81.5 114,-110.5 "/>
<text text-anchor="middle" x="524.5" y="-92.3" font-family="Times,serif" font-size="14.00" fill="#0058ad">r 34 [2 1 3 4 5 7 8 9 10 11 13 12 14 16 17 18 19 21 20 24 25 26 22 23 27 28 29 30 31 33 35 36 34 32 39 40 41 42 37 38 45 43 44 46 47 48 50 49]</text>
<polyline fill="none" stroke="#0058ad" points="935,-81.5 935,-110.5 "/>
<text text-anchor="middle" x="963.5" y="-92.3" font-family="Times,serif" font-size="14.00" fill="#0058ad">a 33 42</text>
</g>
<!-- T6041 -->
<g id="node2" class="node">
<title>T6041</title>
<polygon fill="none" stroke="#0058ad" points="78.5,-.5 78.5,-29.5 813.5,-29.5 813.5,-.5 78.5,-.5"/>
<text text-anchor="middle" x="107" y="-11.3" font-family="Times,serif" font-size="14.00" fill="#0058ad">a 34 51</text>
<polyline fill="none" stroke="#0058ad" points="135.5,-.5 135.5,-29.5 "/>
<text text-anchor="middle" x="446" y="-11.3" font-family="Times,serif" font-size="14.00" fill="#0058ad">r 33 [1 2 4 5 7 8 9 10 11 12 13 14 15 16 17 18 19 20 21 22 23 24 25 26 28 29 30 31 32 34 36 37 35 33 38 39]</text>
<polyline fill="none" stroke="#0058ad" points="756.5,-.5 756.5,-29.5 "/>
<text text-anchor="middle" x="785" y="-11.3" font-family="Times,serif" font-size="14.00" fill="#0058ad">a 34 52</text>
</g>
<!-- T6043&#45;&gt;T6041 -->
<g id="edge1" class="edge">
<title>T6043:f2&#45;&gt;T6041:f0</title>
<path fill="none" stroke="#5b00c0" d="M525,-81C525,-59.5703 174.2626,-54.2371 115.3497,-35.5111"/>
<polygon fill="#5b00c0" stroke="#5b00c0" points="117.274,-32.5876 107,-30 113.4179,-38.4298 117.274,-32.5876"/>
<text text-anchor="middle" x="419.5" y="-51.8" font-family="Times,serif" font-size="14.00" fill="#5b00c0">rw</text>
</g>
<!-- T6041&#45;&gt;T6043 -->
<g id="edge2" class="edge">
<title>T6041:f1&#45;&gt;T6043:f0</title>
<path fill="none" stroke="#5b00c0" d="M446,-30C446,-43.7032 213.5853,-46.206 200,-48 126.4486,-57.7131 36.8516,-8.177 28.6135,-70.9094"/>
<polygon fill="#5b00c0" stroke="#5b00c0" points="25.1134,-70.806 28,-81 32.1005,-71.2309 25.1134,-70.806"/>
<text text-anchor="middle" x="207.5" y="-51.8" font-family="Times,serif" font-size="14.00" fill="#5b00c0">rw</text>
</g>
</g>
</svg>
