<?xml version="1.0" encoding="UTF-8" standalone="no"?>
<!DOCTYPE svg PUBLIC "-//W3C//DTD SVG 1.1//EN"
 "http://www.w3.org/Graphics/SVG/1.1/DTD/svg11.dtd">
<!-- Generated by graphviz version 2.40.1 (20161225.0304)
 -->
<!-- Title: a_graph Pages: 1 -->
<svg width="4514pt" height="119pt"
 viewBox="0.00 0.00 4514.00 119.00" xmlns="http://www.w3.org/2000/svg" xmlns:xlink="http://www.w3.org/1999/xlink">
<g id="graph0" class="graph" transform="scale(1 1) rotate(0) translate(4 115)">
<title>a_graph</title>
<polygon fill="#ffffff" stroke="transparent" points="-4,4 -4,-115 4510,-115 4510,4 -4,4"/>
<!-- T6364 -->
<g id="node1" class="node">
<title>T6364</title>
<polygon fill="none" stroke="#0058ad" points="2198,-81.5 2198,-110.5 4506,-110.5 4506,-81.5 2198,-81.5"/>
<text text-anchor="middle" x="2364" y="-92.3" font-family="Times,serif" font-size="14.00" fill="#0058ad">r 36 [1 2 3 4 5 6 7 8 9 10 11 12 13 14 15 20 21 22 23 24]</text>
<polyline fill="none" stroke="#0058ad" points="2530,-81.5 2530,-110.5 "/>
<text text-anchor="middle" x="2558.5" y="-92.3" font-family="Times,serif" font-size="14.00" fill="#0058ad">a 36 25</text>
<polyline fill="none" stroke="#0058ad" points="2587,-81.5 2587,-110.5 "/>
<text text-anchor="middle" x="3372" y="-92.3" font-family="Times,serif" font-size="14.00" fill="#0058ad">r 33 [1 2 4 5 7 8 9 10 11 12 13 14 15 16 17 18 19 20 21 22 23 24 25 26 28 29 30 31 32 34 36 37 35 33 38 39 41 42 40 43 44 46 45 48 47 49 51 53 54 50 56 57 58 59 55 61 60 62 65 67 68 71 69 72 73 74 75 76 66 77 78 79 80 82 83 81 84 85 86 87 88 89 90 91 92 93 94 95 96 97 99]</text>
<polyline fill="none" stroke="#0058ad" points="4157,-81.5 4157,-110.5 "/>
<text text-anchor="middle" x="4331.5" y="-92.3" font-family="Times,serif" font-size="14.00" fill="#0058ad">r 36 [1 2 3 4 5 6 7 8 9 10 11 12 13 14 15 20 21 22 23 24 25]</text>
</g>
<!-- T6366 -->
<g id="node2" class="node">
<title>T6366</title>
<polygon fill="none" stroke="#0058ad" points="0,-.5 0,-29.5 4198,-29.5 4198,-.5 0,-.5"/>
<text text-anchor="middle" x="166" y="-11.3" font-family="Times,serif" font-size="14.00" fill="#0058ad">r 36 [1 2 3 4 5 6 7 8 9 10 11 12 13 14 15 20 21 22 23 24]</text>
<polyline fill="none" stroke="#0058ad" points="332,-.5 332,-29.5 "/>
<text text-anchor="middle" x="1233.5" y="-11.3" font-family="Times,serif" font-size="14.00" fill="#0058ad">r 29 [2 1 3 4 6 7 8 9 10 12 13 14 15 16 17 18 19 21 22 23 26 24 25 27 28 29 30 31 32 33 34 35 36 38 37 39 40 41 42 43 44 45 46 47 48 49 50 51 52 53 54 55 57 58 56 60 61 62 63 64 65 66 69 70 72 74 75 73 76 77 78 79 80 81 82 83 84 85 86 87 88 89 90 91 93 92 94 95 96 97 98 100 101 102 103 104 105 107 106 109 108]</text>
<polyline fill="none" stroke="#0058ad" points="2135,-.5 2135,-29.5 "/>
<text text-anchor="middle" x="3138" y="-11.3" font-family="Times,serif" font-size="14.00" fill="#0058ad">r 21 [1 2 3 4 5 6 7 8 9 10 11 12 13 14 15 16 18 19 20 22 23 25 27 28 29 30 31 32 33 34 35 36 37 40 41 42 43 44 45 46 47 48 49 50 51 52 53 54 55 56 57 58 59 60 61 62 63 64 65 66 67 68 69 70 71 72 73 74 75 76 77 78 79 80 81 82 83 84 85 86 87 88 89 90 91 93 94 95 96 97 98 99 100 101 102 103 104 105 106 107 108 110 111 112 113 115 116 117 118 119]</text>
<polyline fill="none" stroke="#0058ad" points="4141,-.5 4141,-29.5 "/>
<text text-anchor="middle" x="4169.5" y="-11.3" font-family="Times,serif" font-size="14.00" fill="#0058ad">a 33 98</text>
</g>
<!-- T6364&#45;&gt;T6366 -->
<g id="edge1" class="edge">
<title>T6364:f2&#45;&gt;T6366:f3</title>
<path fill="none" stroke="#5b00c0" d="M3372,-81C3372,93.051 4137.6051,-195.4131 4169.0069,-40.3325"/>
<polygon fill="#5b00c0" stroke="#5b00c0" points="4172.5271,-40.289 4170,-30 4165.5593,-39.6192 4172.5271,-40.289"/>
<text text-anchor="middle" x="4173.5" y="-51.8" font-family="Times,serif" font-size="14.00" fill="#5b00c0">rw</text>
</g>
<!-- T6366&#45;&gt;T6364 -->
<g id="edge2" class="edge">
<title>T6366:f0&#45;&gt;T6364:f1</title>
<path fill="none" stroke="#5b00c0" d="M166,-30C166,-159.674 2442.6289,41.6362 2553.7924,-71.8764"/>
<polygon fill="#5b00c0" stroke="#5b00c0" points="2550.6337,-73.3849 2558,-81 2556.9903,-70.4534 2550.6337,-73.3849"/>
<text text-anchor="middle" x="2540.5" y="-51.8" font-family="Times,serif" font-size="14.00" fill="#5b00c0">rw</text>
</g>
</g>
</svg>
