<?xml version="1.0" encoding="UTF-8" standalone="no"?>
<!DOCTYPE svg PUBLIC "-//W3C//DTD SVG 1.1//EN"
 "http://www.w3.org/Graphics/SVG/1.1/DTD/svg11.dtd">
<!-- Generated by graphviz version 2.40.1 (20161225.0304)
 -->
<!-- Title: a_graph Pages: 1 -->
<svg width="4385pt" height="119pt"
 viewBox="0.00 0.00 4385.00 119.00" xmlns="http://www.w3.org/2000/svg" xmlns:xlink="http://www.w3.org/1999/xlink">
<g id="graph0" class="graph" transform="scale(1 1) rotate(0) translate(4 115)">
<title>a_graph</title>
<polygon fill="#ffffff" stroke="transparent" points="-4,4 -4,-115 4381,-115 4381,4 -4,4"/>
<!-- T30696 -->
<g id="node1" class="node">
<title>T30696</title>
<polygon fill="none" stroke="#0058ad" points="0,-81.5 0,-110.5 3049,-110.5 3049,-81.5 0,-81.5"/>
<text text-anchor="middle" x="32" y="-92.3" font-family="Times,serif" font-size="14.00" fill="#0058ad">a 152 65</text>
<polyline fill="none" stroke="#0058ad" points="64,-81.5 64,-110.5 "/>
<text text-anchor="middle" x="595.5" y="-92.3" font-family="Times,serif" font-size="14.00" fill="#0058ad">r 149 [1 2 3 4 5 6 7 8 9 10 11 12 14 13 15 17 16 18 20 21 19 22 23 25 27 28 29 30 31 32 33 34 35 36 37 38 39 40 41 42 43 44 46 47 49 50 52 53 54 55 57 58 60 61 59 62 63 65 64 66 67 68]</text>
<polyline fill="none" stroke="#0058ad" points="1127,-81.5 1127,-110.5 "/>
<text text-anchor="middle" x="2052.5" y="-92.3" font-family="Times,serif" font-size="14.00" fill="#0058ad">r 153 [1 2 4 3 5 6 7 8 9 10 11 15 16 17 18 19 20 21 22 25 23 24 27 28 30 26 31 29 32 33 34 36 37 35 38 39 40 41 43 42 46 47 48 44 45 49 50 51 52 53 54 55 56 57 58 59 60 61 62 63 64 65 66 67 68 69 70 71 73 77 78 79 80 82 83 84 85 86 87 88 89 90 91 92 93 94 95 96 97 99 100 101 102 103 98 104 106 105 107 108 109 111 110]</text>
<polyline fill="none" stroke="#0058ad" points="2978,-81.5 2978,-110.5 "/>
<text text-anchor="middle" x="3013.5" y="-92.3" font-family="Times,serif" font-size="14.00" fill="#0058ad">a 153 112</text>
</g>
<!-- T30695 -->
<g id="node2" class="node">
<title>T30695</title>
<polygon fill="none" stroke="#0058ad" points="302,-.5 302,-29.5 4377,-29.5 4377,-.5 302,-.5"/>
<text text-anchor="middle" x="334" y="-11.3" font-family="Times,serif" font-size="14.00" fill="#0058ad">a 149 69</text>
<polyline fill="none" stroke="#0058ad" points="366,-.5 366,-29.5 "/>
<text text-anchor="middle" x="906" y="-11.3" font-family="Times,serif" font-size="14.00" fill="#0058ad">r 149 [1 2 3 4 5 6 7 8 9 10 11 12 14 13 15 17 16 18 20 21 19 22 23 25 27 28 29 30 31 32 33 34 35 36 37 38 39 40 41 42 43 44 46 47 49 50 52 53 54 55 57 58 60 61 59 62 63 65 64 66 67 68 69]</text>
<polyline fill="none" stroke="#0058ad" points="1446,-.5 1446,-29.5 "/>
<text text-anchor="middle" x="1986" y="-11.3" font-family="Times,serif" font-size="14.00" fill="#0058ad">r 149 [1 2 3 4 5 6 7 8 9 10 11 12 14 13 15 17 16 18 20 21 19 22 23 25 27 28 29 30 31 32 33 34 35 36 37 38 39 40 41 42 43 44 46 47 49 50 52 53 54 55 57 58 60 61 59 62 63 65 64 66 67 68 69]</text>
<polyline fill="none" stroke="#0058ad" points="2526,-.5 2526,-29.5 "/>
<text text-anchor="middle" x="3451.5" y="-11.3" font-family="Times,serif" font-size="14.00" fill="#0058ad">r 153 [1 2 4 3 5 6 7 8 9 10 11 15 16 17 18 19 20 21 22 25 23 24 27 28 30 26 31 29 32 33 34 36 37 35 38 39 40 41 43 42 46 47 48 44 45 49 50 51 52 53 54 55 56 57 58 59 60 61 62 63 64 65 66 67 68 69 70 71 73 77 78 79 80 82 83 84 85 86 87 88 89 90 91 92 93 94 95 96 97 99 100 101 102 103 98 104 106 105 107 108 109 111 110]</text>
</g>
<!-- T30696&#45;&gt;T30695 -->
<g id="edge1" class="edge">
<title>T30696:f1&#45;&gt;T30695:f0</title>
<path fill="none" stroke="#5b00c0" d="M595.5,-81C595.5,33.9229 349.6191,-137.2865 334.2516,-40.2469"/>
<polygon fill="#5b00c0" stroke="#5b00c0" points="337.7222,-39.7171 333.5,-30 330.741,-40.2293 337.7222,-39.7171"/>
<text text-anchor="middle" x="601" y="-51.8" font-family="Times,serif" font-size="14.00" fill="#5b00c0">rw</text>
</g>
<!-- T30695&#45;&gt;T30696 -->
<g id="edge2" class="edge">
<title>T30695:f3&#45;&gt;T30696:f3</title>
<path fill="none" stroke="#5b00c0" d="M3451.5,-30C3451.5,-72.7892 3132.7157,-93.6587 3059.6115,-95.8133"/>
<polygon fill="#5b00c0" stroke="#5b00c0" points="3059.4337,-92.3159 3049.5,-96 3059.5629,-99.3147 3059.4337,-92.3159"/>
<text text-anchor="middle" x="3435" y="-51.8" font-family="Times,serif" font-size="14.00" fill="#5b00c0">rw</text>
</g>
</g>
</svg>
