<?xml version="1.0" encoding="UTF-8" standalone="no"?>
<!DOCTYPE svg PUBLIC "-//W3C//DTD SVG 1.1//EN"
 "http://www.w3.org/Graphics/SVG/1.1/DTD/svg11.dtd">
<!-- Generated by graphviz version 2.40.1 (20161225.0304)
 -->
<!-- Title: a_graph Pages: 1 -->
<svg width="1520pt" height="119pt"
 viewBox="0.00 0.00 1520.00 119.00" xmlns="http://www.w3.org/2000/svg" xmlns:xlink="http://www.w3.org/1999/xlink">
<g id="graph0" class="graph" transform="scale(1 1) rotate(0) translate(4 115)">
<title>a_graph</title>
<polygon fill="#ffffff" stroke="transparent" points="-4,4 -4,-115 1516,-115 1516,4 -4,4"/>
<!-- T20545 -->
<g id="node1" class="node">
<title>T20545</title>
<polygon fill="none" stroke="#0058ad" points="101.5,-81.5 101.5,-110.5 964.5,-110.5 964.5,-81.5 101.5,-81.5"/>
<text text-anchor="middle" x="133.5" y="-92.3" font-family="Times,serif" font-size="14.00" fill="#0058ad">a 102 33</text>
<polyline fill="none" stroke="#0058ad" points="165.5,-81.5 165.5,-110.5 "/>
<text text-anchor="middle" x="197.5" y="-92.3" font-family="Times,serif" font-size="14.00" fill="#0058ad">a 103 71</text>
<polyline fill="none" stroke="#0058ad" points="229.5,-81.5 229.5,-110.5 "/>
<text text-anchor="middle" x="505.5" y="-92.3" font-family="Times,serif" font-size="14.00" fill="#0058ad">r 102 [1 2 3 5 6 7 8 9 10 11 12 13 15 14 16 17 18 19 20 21 22 24 23 25 26 27 28 30 31 32 34 33]</text>
<polyline fill="none" stroke="#0058ad" points="781.5,-81.5 781.5,-110.5 "/>
<text text-anchor="middle" x="873" y="-92.3" font-family="Times,serif" font-size="14.00" fill="#0058ad">r 104 [1 2 3 4 5 6 8 9 7 10 11]</text>
</g>
<!-- T20541 -->
<g id="node2" class="node">
<title>T20541</title>
<polygon fill="none" stroke="#0058ad" points="0,-.5 0,-29.5 1512,-29.5 1512,-.5 0,-.5"/>
<text text-anchor="middle" x="32" y="-11.3" font-family="Times,serif" font-size="14.00" fill="#0058ad">a 104 12</text>
<polyline fill="none" stroke="#0058ad" points="64,-.5 64,-29.5 "/>
<text text-anchor="middle" x="96" y="-11.3" font-family="Times,serif" font-size="14.00" fill="#0058ad">a 100 24</text>
<polyline fill="none" stroke="#0058ad" points="128,-.5 128,-29.5 "/>
<text text-anchor="middle" x="720" y="-11.3" font-family="Times,serif" font-size="14.00" fill="#0058ad">r 103 [1 2 3 4 5 6 7 8 9 11 10 12 13 14 15 16 17 18 19 20 21 22 23 24 25 26 27 28 29 30 31 32 33 35 36 37 38 39 40 41 42 43 44 45 46 47 48 49 50 51 53 54 55 56 57 58 59 60 61 62 63 64 65 66 67 68 69 70 72]</text>
<polyline fill="none" stroke="#0058ad" points="1312,-.5 1312,-29.5 "/>
<text text-anchor="middle" x="1412" y="-11.3" font-family="Times,serif" font-size="14.00" fill="#0058ad">r 104 [1 2 3 4 5 6 8 9 7 10 11 12]</text>
</g>
<!-- T20545&#45;&gt;T20541 -->
<g id="edge1" class="edge">
<title>T20545:f3&#45;&gt;T20541:f0</title>
<path fill="none" stroke="#5b00c0" d="M873,-81C873,29.6876 486.4931,-54.5588 376,-48 358.762,-46.9768 92.5401,-48.7261 40.708,-35.0172"/>
<polygon fill="#5b00c0" stroke="#5b00c0" points="42.412,-31.9597 32,-30 38.9174,-38.025 42.412,-31.9597"/>
<text text-anchor="middle" x="872.5" y="-51.8" font-family="Times,serif" font-size="14.00" fill="#5b00c0">rw</text>
</g>
<!-- T20541&#45;&gt;T20545 -->
<g id="edge2" class="edge">
<title>T20541:f2&#45;&gt;T20545:f1</title>
<path fill="none" stroke="#5b00c0" d="M720,-30C720,-50.1914 377.0302,-45.4531 357,-48 288.6297,-56.6933 205.8935,-13.1956 197.667,-70.8541"/>
<polygon fill="#5b00c0" stroke="#5b00c0" points="194.1636,-70.7919 197,-81 201.1485,-71.2512 194.1636,-70.7919"/>
<text text-anchor="middle" x="364.5" y="-51.8" font-family="Times,serif" font-size="14.00" fill="#5b00c0">rw</text>
</g>
</g>
</svg>
