<?xml version="1.0" encoding="UTF-8" standalone="no"?>
<!DOCTYPE svg PUBLIC "-//W3C//DTD SVG 1.1//EN"
 "http://www.w3.org/Graphics/SVG/1.1/DTD/svg11.dtd">
<!-- Generated by graphviz version 2.40.1 (20161225.0304)
 -->
<!-- Title: a_graph Pages: 1 -->
<svg width="818pt" height="119pt"
 viewBox="0.00 0.00 818.00 119.00" xmlns="http://www.w3.org/2000/svg" xmlns:xlink="http://www.w3.org/1999/xlink">
<g id="graph0" class="graph" transform="scale(1 1) rotate(0) translate(4 115)">
<title>a_graph</title>
<polygon fill="#ffffff" stroke="transparent" points="-4,4 -4,-115 814,-115 814,4 -4,4"/>
<!-- T4293 -->
<g id="node1" class="node">
<title>T4293</title>
<polygon fill="none" stroke="#0058ad" points="82,-81.5 82,-110.5 440,-110.5 440,-81.5 82,-81.5"/>
<text text-anchor="middle" x="110.5" y="-92.3" font-family="Times,serif" font-size="14.00" fill="#0058ad">a 26 36</text>
<polyline fill="none" stroke="#0058ad" points="139,-81.5 139,-110.5 "/>
<text text-anchor="middle" x="164" y="-92.3" font-family="Times,serif" font-size="14.00" fill="#0058ad">a 5 97</text>
<polyline fill="none" stroke="#0058ad" points="189,-81.5 189,-110.5 "/>
<text text-anchor="middle" x="217.5" y="-92.3" font-family="Times,serif" font-size="14.00" fill="#0058ad">a 21 49</text>
<polyline fill="none" stroke="#0058ad" points="246,-81.5 246,-110.5 "/>
<text text-anchor="middle" x="343" y="-92.3" font-family="Times,serif" font-size="14.00" fill="#0058ad">r 27 [1 2 4 5 6 7 3 8 9 12 10 11]</text>
</g>
<!-- T4291 -->
<g id="node2" class="node">
<title>T4291</title>
<polygon fill="none" stroke="#0058ad" points="0,-.5 0,-29.5 810,-29.5 810,-.5 0,-.5"/>
<text text-anchor="middle" x="28.5" y="-11.3" font-family="Times,serif" font-size="14.00" fill="#0058ad">a 27 14</text>
<polyline fill="none" stroke="#0058ad" points="57,-.5 57,-29.5 "/>
<text text-anchor="middle" x="328" y="-11.3" font-family="Times,serif" font-size="14.00" fill="#0058ad">r 26 [1 2 3 7 8 9 11 13 10 12 14 15 16 19 20 17 18 21 22 23 24 25 26 28 27 29 32 34 33 31 35]</text>
<polyline fill="none" stroke="#0058ad" points="599,-.5 599,-29.5 "/>
<text text-anchor="middle" x="704.5" y="-11.3" font-family="Times,serif" font-size="14.00" fill="#0058ad">r 27 [1 2 4 5 6 7 3 8 9 12 10 11 14]</text>
</g>
<!-- T4293&#45;&gt;T4291 -->
<g id="edge1" class="edge">
<title>T4293:f3&#45;&gt;T4291:f0</title>
<path fill="none" stroke="#5b00c0" d="M343,-81C343,-6.2144 251.8492,-59.7975 178,-48 163.8845,-45.745 65.0356,-46.4504 36.0009,-36.3437"/>
<polygon fill="#5b00c0" stroke="#5b00c0" points="38.0104,-33.4703 28,-30 33.6614,-38.9554 38.0104,-33.4703"/>
<text text-anchor="middle" x="347.5" y="-51.8" font-family="Times,serif" font-size="14.00" fill="#5b00c0">rw</text>
</g>
<!-- T4291&#45;&gt;T4293 -->
<g id="edge2" class="edge">
<title>T4291:f1&#45;&gt;T4293:f0</title>
<path fill="none" stroke="#5b00c0" d="M328,-30C328,-48.884 176.743,-41.5353 159,-48 137.9923,-55.6542 117.2306,-55.1627 111.5298,-71.0618"/>
<polygon fill="#5b00c0" stroke="#5b00c0" points="108.0622,-70.5839 110,-81 114.9807,-71.6489 108.0622,-70.5839"/>
<text text-anchor="middle" x="166.5" y="-51.8" font-family="Times,serif" font-size="14.00" fill="#5b00c0">rw</text>
</g>
</g>
</svg>
