<?xml version="1.0" encoding="UTF-8" standalone="no"?>
<!DOCTYPE svg PUBLIC "-//W3C//DTD SVG 1.1//EN"
 "http://www.w3.org/Graphics/SVG/1.1/DTD/svg11.dtd">
<!-- Generated by graphviz version 2.40.1 (20161225.0304)
 -->
<!-- Title: a_graph Pages: 1 -->
<svg width="4055pt" height="119pt"
 viewBox="0.00 0.00 4055.00 119.00" xmlns="http://www.w3.org/2000/svg" xmlns:xlink="http://www.w3.org/1999/xlink">
<g id="graph0" class="graph" transform="scale(1 1) rotate(0) translate(4 115)">
<title>a_graph</title>
<polygon fill="#ffffff" stroke="transparent" points="-4,4 -4,-115 4051,-115 4051,4 -4,4"/>
<!-- T13197 -->
<g id="node1" class="node">
<title>T13197</title>
<polygon fill="none" stroke="#0058ad" points="0,-81.5 0,-110.5 4047,-110.5 4047,-81.5 0,-81.5"/>
<text text-anchor="middle" x="649" y="-92.3" font-family="Times,serif" font-size="14.00" fill="#0058ad">r 66 [1 2 3 4 5 6 7 8 9 10 11 12 13 14 15 16 17 18 19 20 22 21 25 23 26 27 28 29 30 32 33 34 31 35 37 36 38 39 40 41 42 43 44 45 46 47 48 49 50 51 52 53 54 56 57 58 59 60 61 62 63 64 65 66 67 68 69 70 71 72 73 74 75 76 77 78]</text>
<polyline fill="none" stroke="#0058ad" points="1298,-81.5 1298,-110.5 "/>
<text text-anchor="middle" x="2302.5" y="-92.3" font-family="Times,serif" font-size="14.00" fill="#0058ad">r 61 [2 3 1 4 5 6 7 8 9 10 11 12 13 14 15 25 27 26 28 29 30 31 32 33 34 35 36 37 38 39 40 41 42 43 44 45 46 47 48 49 50 51 52 53 56 57 58 59 60 61 62 63 64 65 66 67 68 69 70 71 72 73 74 75 76 77 79 78 80 81 82 83 84 85 86 87 88 89 90 91 92 93 94 95 96 97 98 99 101 102 104 105 106 107 108 109 110 111 112 113 114 115 116 117 118 119 120 121 122]</text>
<polyline fill="none" stroke="#0058ad" points="3307,-81.5 3307,-110.5 "/>
<text text-anchor="middle" x="3648.5" y="-92.3" font-family="Times,serif" font-size="14.00" fill="#0058ad">r 67 [2 3 4 5 6 7 8 9 10 11 12 13 14 15 16 17 20 21 22 23 24 25 26 27 28 29 30 32 31 33 34 35 36 37 38 39 41 43 44 45]</text>
<polyline fill="none" stroke="#0058ad" points="3990,-81.5 3990,-110.5 "/>
<text text-anchor="middle" x="4018.5" y="-92.3" font-family="Times,serif" font-size="14.00" fill="#0058ad">a 67 40</text>
</g>
<!-- T13195 -->
<g id="node2" class="node">
<title>T13195</title>
<polygon fill="none" stroke="#0058ad" points="1807.5,-.5 1807.5,-29.5 2547.5,-29.5 2547.5,-.5 1807.5,-.5"/>
<text text-anchor="middle" x="2149" y="-11.3" font-family="Times,serif" font-size="14.00" fill="#0058ad">r 67 [2 3 4 5 6 7 8 9 10 11 12 13 14 15 16 17 20 21 22 23 24 25 26 27 28 29 30 32 31 33 34 35 36 37 38 39 41 43 44 45]</text>
<polyline fill="none" stroke="#0058ad" points="2490.5,-.5 2490.5,-29.5 "/>
<text text-anchor="middle" x="2519" y="-11.3" font-family="Times,serif" font-size="14.00" fill="#0058ad">a 66 79</text>
</g>
<!-- T13197&#45;&gt;T13195 -->
<g id="edge1" class="edge">
<title>T13197:f0&#45;&gt;T13195:f1</title>
<path fill="none" stroke="#5b00c0" d="M648.5,-81C648.5,123.5135 2457.8926,-226.0071 2517.9701,-39.8892"/>
<polygon fill="#5b00c0" stroke="#5b00c0" points="2521.4299,-40.4176 2519.5,-30 2514.5122,-39.3473 2521.4299,-40.4176"/>
<text text-anchor="middle" x="2518" y="-51.8" font-family="Times,serif" font-size="14.00" fill="#5b00c0">rw</text>
</g>
<!-- T13195&#45;&gt;T13197 -->
<g id="edge2" class="edge">
<title>T13195:f0&#45;&gt;T13197:f3</title>
<path fill="none" stroke="#5b00c0" d="M2148.5,-30C2148.5,-54.8908 3864.7467,-55.0515 4008.8846,-77.8654"/>
<polygon fill="#5b00c0" stroke="#5b00c0" points="4007.9076,-81.2282 4018.5,-81 4010.0772,-74.5729 4007.9076,-81.2282"/>
<text text-anchor="middle" x="3574" y="-51.8" font-family="Times,serif" font-size="14.00" fill="#5b00c0">rw</text>
</g>
</g>
</svg>
