<?xml version="1.0" encoding="UTF-8" standalone="no"?>
<!DOCTYPE svg PUBLIC "-//W3C//DTD SVG 1.1//EN"
 "http://www.w3.org/Graphics/SVG/1.1/DTD/svg11.dtd">
<!-- Generated by graphviz version 2.40.1 (20161225.0304)
 -->
<!-- Title: a_graph Pages: 1 -->
<svg width="2726pt" height="119pt"
 viewBox="0.00 0.00 2726.00 119.00" xmlns="http://www.w3.org/2000/svg" xmlns:xlink="http://www.w3.org/1999/xlink">
<g id="graph0" class="graph" transform="scale(1 1) rotate(0) translate(4 115)">
<title>a_graph</title>
<polygon fill="#ffffff" stroke="transparent" points="-4,4 -4,-115 2722,-115 2722,4 -4,4"/>
<!-- T36727 -->
<g id="node1" class="node">
<title>T36727</title>
<polygon fill="none" stroke="#0058ad" points="0,-81.5 0,-110.5 2718,-110.5 2718,-81.5 0,-81.5"/>
<text text-anchor="middle" x="109" y="-92.3" font-family="Times,serif" font-size="14.00" fill="#0058ad">r 182 [1 2 3 4 5 6 8 7 9 10 11 12 13]</text>
<polyline fill="none" stroke="#0058ad" points="218,-81.5 218,-110.5 "/>
<text text-anchor="middle" x="1301.5" y="-92.3" font-family="Times,serif" font-size="14.00" fill="#0058ad">r 179 [1 2 3 5 6 7 8 9 10 11 12 13 14 15 16 17 19 18 20 21 22 23 24 25 26 27 29 28 30 31 32 33 34 35 36 37 38 39 40 41 42 43 44 45 48 46 47 49 50 52 53 54 51 56 55 57 58 59 60 61 62 63 64 67 68 66 70 71 69 72 73 74 76 77 78 80 75 81 82 83 85 86 87 88 89 92 93 90 91 95 94 96 98 97 99 100 102 101 103 104 106 107 108 105 109 110 111 112 113 114 115 117 118 116 119 120 121]</text>
<polyline fill="none" stroke="#0058ad" points="2385,-81.5 2385,-110.5 "/>
<text text-anchor="middle" x="2417" y="-92.3" font-family="Times,serif" font-size="14.00" fill="#0058ad">a 183 16</text>
<polyline fill="none" stroke="#0058ad" points="2449,-81.5 2449,-110.5 "/>
<text text-anchor="middle" x="2583.5" y="-92.3" font-family="Times,serif" font-size="14.00" fill="#0058ad">r 183 [1 2 3 4 5 8 6 7 9 10 11 13 14 12 15 16]</text>
</g>
<!-- T36729 -->
<g id="node2" class="node">
<title>T36729</title>
<polygon fill="none" stroke="#0058ad" points="1382,-.5 1382,-29.5 2028,-29.5 2028,-.5 1382,-.5"/>
<text text-anchor="middle" x="1508" y="-11.3" font-family="Times,serif" font-size="14.00" fill="#0058ad">r 183 [1 2 3 4 5 8 6 7 9 10 11 13 14 12 15]</text>
<polyline fill="none" stroke="#0058ad" points="1634,-.5 1634,-29.5 "/>
<text text-anchor="middle" x="1669.5" y="-11.3" font-family="Times,serif" font-size="14.00" fill="#0058ad">a 179 122</text>
<polyline fill="none" stroke="#0058ad" points="1705,-.5 1705,-29.5 "/>
<text text-anchor="middle" x="1740.5" y="-11.3" font-family="Times,serif" font-size="14.00" fill="#0058ad">a 179 123</text>
<polyline fill="none" stroke="#0058ad" points="1776,-.5 1776,-29.5 "/>
<text text-anchor="middle" x="1902" y="-11.3" font-family="Times,serif" font-size="14.00" fill="#0058ad">r 183 [1 2 3 4 5 8 6 7 9 10 11 13 14 12 15]</text>
</g>
<!-- T36727&#45;&gt;T36729 -->
<g id="edge1" class="edge">
<title>T36727:f1&#45;&gt;T36729:f1</title>
<path fill="none" stroke="#5b00c0" d="M1301,-81C1301,80.5713 1653.3574,-183.3254 1668.4977,-40.0359"/>
<polygon fill="#5b00c0" stroke="#5b00c0" points="1671.9957,-40.1625 1669,-30 1665.0044,-39.8125 1671.9957,-40.1625"/>
<text text-anchor="middle" x="1673.5" y="-51.8" font-family="Times,serif" font-size="14.00" fill="#5b00c0">rw</text>
</g>
<!-- T36729&#45;&gt;T36727 -->
<g id="edge2" class="edge">
<title>T36729:f0&#45;&gt;T36727:f2</title>
<path fill="none" stroke="#5b00c0" d="M1508,-30C1508,-53.7832 2311.9269,-55.5719 2407.7072,-76.7347"/>
<polygon fill="#5b00c0" stroke="#5b00c0" points="2406.4516,-80.0094 2417,-81 2409.3717,-73.6475 2406.4516,-80.0094"/>
<text text-anchor="middle" x="2204.5" y="-51.8" font-family="Times,serif" font-size="14.00" fill="#5b00c0">rw</text>
</g>
</g>
</svg>
