<?xml version="1.0" encoding="UTF-8" standalone="no"?>
<!DOCTYPE svg PUBLIC "-//W3C//DTD SVG 1.1//EN"
 "http://www.w3.org/Graphics/SVG/1.1/DTD/svg11.dtd">
<!-- Generated by graphviz version 2.40.1 (20161225.0304)
 -->
<!-- Title: a_graph Pages: 1 -->
<svg width="4348pt" height="119pt"
 viewBox="0.00 0.00 4347.50 119.00" xmlns="http://www.w3.org/2000/svg" xmlns:xlink="http://www.w3.org/1999/xlink">
<g id="graph0" class="graph" transform="scale(1 1) rotate(0) translate(4 115)">
<title>a_graph</title>
<polygon fill="#ffffff" stroke="transparent" points="-4,4 -4,-115 4343.5,-115 4343.5,4 -4,4"/>
<!-- T2585 -->
<g id="node1" class="node">
<title>T2585</title>
<polygon fill="none" stroke="#0058ad" points="1749.5,-81.5 1749.5,-110.5 4339.5,-110.5 4339.5,-81.5 1749.5,-81.5"/>
<text text-anchor="middle" x="1778" y="-92.3" font-family="Times,serif" font-size="14.00" fill="#0058ad">a 18 27</text>
<polyline fill="none" stroke="#0058ad" points="1806.5,-81.5 1806.5,-110.5 "/>
<text text-anchor="middle" x="2872.5" y="-92.3" font-family="Times,serif" font-size="14.00" fill="#0058ad">r 17 [1 2 3 4 5 6 7 8 9 10 11 12 13 14 15 16 18 19 20 17 22 23 21 25 26 28 29 30 31 32 33 34 35 36 39 37 38 40 41 42 43 46 44 48 49 50 52 51 53 55 56 57 54 59 60 61 63 64 65 68 58 69 70 71 72 73 74 75 76 77 79 80 81 78 82 83 84 85 86 87 88 89 90 91 92 94 95 97 98 96 99 100 101 102 103 105 106 107 108 109 110 113 111 112 115 116 117 114 118 119 120 121 122 123 124]</text>
<polyline fill="none" stroke="#0058ad" points="3938.5,-81.5 3938.5,-110.5 "/>
<text text-anchor="middle" x="4139" y="-92.3" font-family="Times,serif" font-size="14.00" fill="#0058ad">r 18 [1 2 3 4 5 6 7 8 9 10 12 13 14 16 17 19 20 21 22 23 24 25 26 27]</text>
</g>
<!-- T2587 -->
<g id="node2" class="node">
<title>T2587</title>
<polygon fill="none" stroke="#0058ad" points="0,-.5 0,-29.5 2629,-29.5 2629,-.5 0,-.5"/>
<text text-anchor="middle" x="25" y="-11.3" font-family="Times,serif" font-size="14.00" fill="#0058ad">a 5 56</text>
<polyline fill="none" stroke="#0058ad" points="50,-.5 50,-29.5 "/>
<text text-anchor="middle" x="1116" y="-11.3" font-family="Times,serif" font-size="14.00" fill="#0058ad">r 17 [1 2 3 4 5 6 7 8 9 10 11 12 13 14 15 16 18 19 20 17 22 23 21 25 26 28 29 30 31 32 33 34 35 36 39 37 38 40 41 42 43 46 44 48 49 50 52 51 53 55 56 57 54 59 60 61 63 64 65 68 58 69 70 71 72 73 74 75 76 77 79 80 81 78 82 83 84 85 86 87 88 89 90 91 92 94 95 97 98 96 99 100 101 102 103 105 106 107 108 109 110 113 111 112 115 116 117 114 118 119 120 121 122 123 124]</text>
<polyline fill="none" stroke="#0058ad" points="2182,-.5 2182,-29.5 "/>
<text text-anchor="middle" x="2214" y="-11.3" font-family="Times,serif" font-size="14.00" fill="#0058ad">a 17 125</text>
<polyline fill="none" stroke="#0058ad" points="2246,-.5 2246,-29.5 "/>
<text text-anchor="middle" x="2437.5" y="-11.3" font-family="Times,serif" font-size="14.00" fill="#0058ad">r 18 [1 2 3 4 5 6 7 8 9 10 12 13 14 16 17 19 20 21 22 23 24 25 26]</text>
</g>
<!-- T2585&#45;&gt;T2587 -->
<g id="edge1" class="edge">
<title>T2585:f1&#45;&gt;T2587:f2</title>
<path fill="none" stroke="#5b00c0" d="M2872.5,-81C2872.5,-66.5747 2367.7962,-64.9255 2353.5,-63 2294.2604,-55.0212 2223.3697,-89.091 2215.2656,-40.136"/>
<polygon fill="#5b00c0" stroke="#5b00c0" points="2218.7433,-39.708 2214.5,-30 2211.7632,-40.2352 2218.7433,-39.708"/>
<text text-anchor="middle" x="2361" y="-51.8" font-family="Times,serif" font-size="14.00" fill="#5b00c0">rw</text>
</g>
<!-- T2587&#45;&gt;T2585 -->
<g id="edge2" class="edge">
<title>T2587:f3&#45;&gt;T2585:f0</title>
<path fill="none" stroke="#5b00c0" d="M2437.5,-30C2437.5,-63.9935 2401.533,-54.9766 2368.5,-63 2353.7555,-66.5813 1861.8598,-64.8904 1787.0082,-77.5617"/>
<polygon fill="#5b00c0" stroke="#5b00c0" points="1785.7138,-74.3079 1777.5,-81 1788.0943,-80.8907 1785.7138,-74.3079"/>
<text text-anchor="middle" x="2439" y="-51.8" font-family="Times,serif" font-size="14.00" fill="#5b00c0">rw</text>
</g>
</g>
</svg>
