<?xml version="1.0" encoding="UTF-8" standalone="no"?>
<!DOCTYPE svg PUBLIC "-//W3C//DTD SVG 1.1//EN"
 "http://www.w3.org/Graphics/SVG/1.1/DTD/svg11.dtd">
<!-- Generated by graphviz version 2.40.1 (20161225.0304)
 -->
<!-- Title: a_graph Pages: 1 -->
<svg width="2899pt" height="119pt"
 viewBox="0.00 0.00 2899.15 119.00" xmlns="http://www.w3.org/2000/svg" xmlns:xlink="http://www.w3.org/1999/xlink">
<g id="graph0" class="graph" transform="scale(1 1) rotate(0) translate(4 115)">
<title>a_graph</title>
<polygon fill="#ffffff" stroke="transparent" points="-4,4 -4,-115 2895.1535,-115 2895.1535,4 -4,4"/>
<!-- T30879 -->
<g id="node1" class="node">
<title>T30879</title>
<polygon fill="none" stroke="#0058ad" points="488.5,-81.5 488.5,-110.5 2874.5,-110.5 2874.5,-81.5 488.5,-81.5"/>
<text text-anchor="middle" x="830" y="-92.3" font-family="Times,serif" font-size="14.00" fill="#0058ad">r 154 [1 2 3 4 5 8 9 10 11 12 13 15 16 17 18 20 21 19 22 23 24 25 6 7 26 27 28 14 31 32 33 34 35 36 37 38 39 40 41 42]</text>
<polyline fill="none" stroke="#0058ad" points="1171.5,-81.5 1171.5,-110.5 "/>
<text text-anchor="middle" x="1991" y="-92.3" font-family="Times,serif" font-size="14.00" fill="#0058ad">r 152 [1 2 3 5 4 6 7 8 9 10 11 13 14 15 16 12 17 18 20 22 23 24 26 27 28 29 30 31 32 33 34 36 37 38 39 40 41 42 43 44 45 46 47 48 49 51 52 50 53 54 55 56 58 59 57 60 61 62 63 64 65 66 67 68 69 70 71 72 74 75 76 77 78 79 80 82 83 84 85 87 88 89 81 86 91 92 93 94 95 96 97 98 90 99 100]</text>
<polyline fill="none" stroke="#0058ad" points="2810.5,-81.5 2810.5,-110.5 "/>
<text text-anchor="middle" x="2842.5" y="-92.3" font-family="Times,serif" font-size="14.00" fill="#0058ad">a 154 43</text>
</g>
<!-- T30881 -->
<g id="node2" class="node">
<title>T30881</title>
<polygon fill="none" stroke="#0058ad" points="0,-.5 0,-29.5 2887,-29.5 2887,-.5 0,-.5"/>
<text text-anchor="middle" x="819.5" y="-11.3" font-family="Times,serif" font-size="14.00" fill="#0058ad">r 152 [1 2 3 5 4 6 7 8 9 10 11 13 14 15 16 12 17 18 20 22 23 24 26 27 28 29 30 31 32 33 34 36 37 38 39 40 41 42 43 44 45 46 47 48 49 51 52 50 53 54 55 56 58 59 57 60 61 62 63 64 65 66 67 68 69 70 71 72 74 75 76 77 78 79 80 82 83 84 85 87 88 89 81 86 91 92 93 94 95 96 97 98 90 99 100]</text>
<polyline fill="none" stroke="#0058ad" points="1639,-.5 1639,-29.5 "/>
<text text-anchor="middle" x="1886" y="-11.3" font-family="Times,serif" font-size="14.00" fill="#0058ad">r 150 [1 2 3 4 5 6 7 8 9 10 11 12 13 14 15 16 17 18 20 21 22 24 23 25 26 27 28 29 30]</text>
<polyline fill="none" stroke="#0058ad" points="2133,-.5 2133,-29.5 "/>
<text text-anchor="middle" x="2168.5" y="-11.3" font-family="Times,serif" font-size="14.00" fill="#0058ad">a 152 101</text>
<polyline fill="none" stroke="#0058ad" points="2204,-.5 2204,-29.5 "/>
<text text-anchor="middle" x="2545.5" y="-11.3" font-family="Times,serif" font-size="14.00" fill="#0058ad">r 154 [1 2 3 4 5 8 9 10 11 12 13 15 16 17 18 20 21 19 22 23 24 25 6 7 26 27 28 14 31 32 33 34 35 36 37 38 39 40 41 42]</text>
</g>
<!-- T30879&#45;&gt;T30881 -->
<g id="edge1" class="edge">
<title>T30879:f1&#45;&gt;T30881:f2</title>
<path fill="none" stroke="#5b00c0" d="M1991.5,-81C1991.5,-2.9704 2152.2952,-101.7259 2167.3697,-40.2699"/>
<polygon fill="#5b00c0" stroke="#5b00c0" points="2170.8849,-40.3229 2168.5,-30 2163.9269,-39.5571 2170.8849,-40.3229"/>
<text text-anchor="middle" x="2172" y="-51.8" font-family="Times,serif" font-size="14.00" fill="#5b00c0">rw</text>
</g>
<!-- T30881&#45;&gt;T30879 -->
<g id="edge2" class="edge">
<title>T30881:f3&#45;&gt;T30879:f2</title>
<path fill="none" stroke="#5b00c0" d="M2887.5,-15C2894.1667,-15 2889.8578,-23.7642 2887.5,-30 2878.2289,-54.5198 2851.1967,-52.1333 2844.1798,-70.7802"/>
<polygon fill="#5b00c0" stroke="#5b00c0" points="2840.6684,-70.5647 2842.5,-81 2847.5757,-71.7001 2840.6684,-70.5647"/>
<text text-anchor="middle" x="2879" y="-51.8" font-family="Times,serif" font-size="14.00" fill="#5b00c0">rw</text>
</g>
</g>
</svg>
