<?xml version="1.0" encoding="UTF-8" standalone="no"?>
<!DOCTYPE svg PUBLIC "-//W3C//DTD SVG 1.1//EN"
 "http://www.w3.org/Graphics/SVG/1.1/DTD/svg11.dtd">
<!-- Generated by graphviz version 2.40.1 (20161225.0304)
 -->
<!-- Title: a_graph Pages: 1 -->
<svg width="326pt" height="119pt"
 viewBox="0.00 0.00 325.50 119.00" xmlns="http://www.w3.org/2000/svg" xmlns:xlink="http://www.w3.org/1999/xlink">
<g id="graph0" class="graph" transform="scale(1 1) rotate(0) translate(4 115)">
<title>a_graph</title>
<polygon fill="#ffffff" stroke="transparent" points="-4,4 -4,-115 321.5,-115 321.5,4 -4,4"/>
<!-- T24749 -->
<g id="node1" class="node">
<title>T24749</title>
<polygon fill="none" stroke="#0058ad" points="18.5,-81.5 18.5,-110.5 317.5,-110.5 317.5,-81.5 18.5,-81.5"/>
<text text-anchor="middle" x="50.5" y="-92.3" font-family="Times,serif" font-size="14.00" fill="#0058ad">a 123 14</text>
<polyline fill="none" stroke="#0058ad" points="82.5,-81.5 82.5,-110.5 "/>
<text text-anchor="middle" x="200" y="-92.3" font-family="Times,serif" font-size="14.00" fill="#0058ad">r 123 [1 2 4 3 5 6 7 8 9 10 11 12 13 14]</text>
</g>
<!-- T24753 -->
<g id="node2" class="node">
<title>T24753</title>
<polygon fill="none" stroke="#0058ad" points="0,-.5 0,-29.5 218,-29.5 218,-.5 0,-.5"/>
<text text-anchor="middle" x="109" y="-11.3" font-family="Times,serif" font-size="14.00" fill="#0058ad">r 123 [1 2 4 3 5 6 7 8 9 10 11 12 13]</text>
</g>
<!-- T24749&#45;&gt;T24753 -->
<g id="edge1" class="edge">
<title>T24749&#45;&gt;T24753</title>
<path fill="none" stroke="#0050c0" d="M157.1785,-81.1434C148.3627,-69.0403 135.7662,-51.7468 125.6643,-37.8781"/>
<polygon fill="#0050c0" stroke="#0050c0" points="128.4697,-35.7848 119.7529,-29.7625 122.8115,-39.9062 128.4697,-35.7848"/>
<text text-anchor="middle" x="147.5" y="-51.8" font-family="Times,serif" font-size="14.00" fill="#0050c0">rt</text>
</g>
<!-- T24753&#45;&gt;T24749 -->
<g id="edge2" class="edge">
<title>T24753:f0&#45;&gt;T24749:f0</title>
<path fill="none" stroke="#5b00c0" d="M84.3205,-29.624C70.6792,-39.4385 55.6243,-53.7293 51.2527,-71.0649"/>
<polygon fill="#5b00c0" stroke="#5b00c0" points="47.7786,-70.6407 50,-81 54.7236,-71.5164 47.7786,-70.6407"/>
<text text-anchor="middle" x="70.5" y="-51.8" font-family="Times,serif" font-size="14.00" fill="#5b00c0">rw</text>
</g>
</g>
</svg>
