<?xml version="1.0" encoding="UTF-8" standalone="no"?>
<!DOCTYPE svg PUBLIC "-//W3C//DTD SVG 1.1//EN"
 "http://www.w3.org/Graphics/SVG/1.1/DTD/svg11.dtd">
<!-- Generated by graphviz version 2.40.1 (20161225.0304)
 -->
<!-- Title: a_graph Pages: 1 -->
<svg width="2598pt" height="119pt"
 viewBox="0.00 0.00 2598.00 119.00" xmlns="http://www.w3.org/2000/svg" xmlns:xlink="http://www.w3.org/1999/xlink">
<g id="graph0" class="graph" transform="scale(1 1) rotate(0) translate(4 115)">
<title>a_graph</title>
<polygon fill="#ffffff" stroke="transparent" points="-4,4 -4,-115 2594,-115 2594,4 -4,4"/>
<!-- T1993 -->
<g id="node1" class="node">
<title>T1993</title>
<polygon fill="none" stroke="#0058ad" points="0,-81.5 0,-110.5 2590,-110.5 2590,-81.5 0,-81.5"/>
<text text-anchor="middle" x="619" y="-92.3" font-family="Times,serif" font-size="14.00" fill="#0058ad">r 16 [3 4 6 8 9 10 12 13 15 16 18 17 19 20 21 22 23 24 25 28 26 27 29 31 32 33 34 30 35 36 37 38 39 40 41 42 43 44 47 45 46 49 50 51 52 53 48 55 57 56 58 59 60 61 62 63 64 65 66 67 69 68 70 71 72 73 74 75 76 77 80]</text>
<polyline fill="none" stroke="#0058ad" points="1238,-81.5 1238,-110.5 "/>
<text text-anchor="middle" x="1266.5" y="-92.3" font-family="Times,serif" font-size="14.00" fill="#0058ad">a 15 61</text>
<polyline fill="none" stroke="#0058ad" points="1295,-81.5 1295,-110.5 "/>
<text text-anchor="middle" x="1914" y="-92.3" font-family="Times,serif" font-size="14.00" fill="#0058ad">r 16 [3 4 6 8 9 10 12 13 15 16 18 17 19 20 21 22 23 24 25 28 26 27 29 31 32 33 34 30 35 36 37 38 39 40 41 42 43 44 47 45 46 49 50 51 52 53 48 55 57 56 58 59 60 61 62 63 64 65 66 67 69 68 70 71 72 73 74 75 76 77 80]</text>
<polyline fill="none" stroke="#0058ad" points="2533,-81.5 2533,-110.5 "/>
<text text-anchor="middle" x="2561.5" y="-92.3" font-family="Times,serif" font-size="14.00" fill="#0058ad">a 14 43</text>
</g>
<!-- T1996 -->
<g id="node2" class="node">
<title>T1996</title>
<polygon fill="none" stroke="#0058ad" points="253.5,-.5 253.5,-29.5 1268.5,-29.5 1268.5,-.5 253.5,-.5"/>
<text text-anchor="middle" x="704" y="-11.3" font-family="Times,serif" font-size="14.00" fill="#0058ad">r 15 [2 3 1 4 6 5 7 8 9 10 11 13 16 17 12 18 20 22 19 25 26 27 28 29 31 30 34 32 33 35 36 37 39 40 41 42 43 47 48 49 50 45 46 51 52 53 54 55 57 56 58 59 60]</text>
<polyline fill="none" stroke="#0058ad" points="1154.5,-.5 1154.5,-29.5 "/>
<text text-anchor="middle" x="1183" y="-11.3" font-family="Times,serif" font-size="14.00" fill="#0058ad">a 16 78</text>
<polyline fill="none" stroke="#0058ad" points="1211.5,-.5 1211.5,-29.5 "/>
<text text-anchor="middle" x="1240" y="-11.3" font-family="Times,serif" font-size="14.00" fill="#0058ad">a 16 79</text>
</g>
<!-- T1993&#45;&gt;T1996 -->
<g id="edge1" class="edge">
<title>T1993:f0&#45;&gt;T1996:f1</title>
<path fill="none" stroke="#5b00c0" d="M619,-81C619,-66.4676 1100.3505,-48.6851 1173.6813,-33.6576"/>
<polygon fill="#5b00c0" stroke="#5b00c0" points="1174.9702,-36.9117 1183,-30 1172.4126,-30.3957 1174.9702,-36.9117"/>
<text text-anchor="middle" x="1023.5" y="-51.8" font-family="Times,serif" font-size="14.00" fill="#5b00c0">rw</text>
</g>
<!-- T1996&#45;&gt;T1993 -->
<g id="edge2" class="edge">
<title>T1996:f0&#45;&gt;T1993:f1</title>
<path fill="none" stroke="#5b00c0" d="M704,-30C704,-48.4161 1016.6725,-46.1961 1035,-48 1134.6826,-57.8116 1257.2931,17.2873 1265.5582,-71.0017"/>
<polygon fill="#5b00c0" stroke="#5b00c0" points="1262.0619,-71.1643 1266,-81 1269.0551,-70.8552 1262.0619,-71.1643"/>
<text text-anchor="middle" x="1270.5" y="-51.8" font-family="Times,serif" font-size="14.00" fill="#5b00c0">rw</text>
</g>
</g>
</svg>
