<?xml version="1.0" encoding="UTF-8" standalone="no"?>
<!DOCTYPE svg PUBLIC "-//W3C//DTD SVG 1.1//EN"
 "http://www.w3.org/Graphics/SVG/1.1/DTD/svg11.dtd">
<!-- Generated by graphviz version 2.40.1 (20161225.0304)
 -->
<!-- Title: a_graph Pages: 1 -->
<svg width="4159pt" height="200pt"
 viewBox="0.00 0.00 4159.00 200.00" xmlns="http://www.w3.org/2000/svg" xmlns:xlink="http://www.w3.org/1999/xlink">
<g id="graph0" class="graph" transform="scale(1 1) rotate(0) translate(4 196)">
<title>a_graph</title>
<polygon fill="#ffffff" stroke="transparent" points="-4,4 -4,-196 4155,-196 4155,4 -4,4"/>
<!-- T1195 -->
<g id="node1" class="node">
<title>T1195</title>
<polygon fill="none" stroke="#0058ad" points="835,-162.5 835,-191.5 2123,-191.5 2123,-162.5 835,-162.5"/>
<text text-anchor="middle" x="1454" y="-173.3" font-family="Times,serif" font-size="14.00" fill="#0058ad">r 12 [5 6 10 11 12 14 13 16 18 17 20 19 21 22 23 24 25 26 27 28 29 30 31 32 33 34 35 36 37 38 39 40 41 42 43 44 45 46 47 48 49 50 52 53 54 55 56 57 58 59 60 61 81 82 83 85 86 87 88 89 84 91 95 96 97 98 100 101 99]</text>
<polyline fill="none" stroke="#0058ad" points="2073,-162.5 2073,-191.5 "/>
<text text-anchor="middle" x="2098" y="-173.3" font-family="Times,serif" font-size="14.00" fill="#0058ad">a 6 58</text>
</g>
<!-- T1197 -->
<g id="node3" class="node">
<title>T1197</title>
<polygon fill="none" stroke="#0058ad" points="1289,-81.5 1289,-110.5 4151,-110.5 4151,-81.5 1289,-81.5"/>
<text text-anchor="middle" x="1321" y="-92.3" font-family="Times,serif" font-size="14.00" fill="#0058ad">a 12 102</text>
<polyline fill="none" stroke="#0058ad" points="1353,-81.5 1353,-110.5 "/>
<text text-anchor="middle" x="1727.5" y="-92.3" font-family="Times,serif" font-size="14.00" fill="#0058ad">r 11 [1 2 6 8 7 9 10 12 13 14 15 16 17 18 19 20 21 22 23 24 25 26 27 28 29 30 31 38 39 41 42 43 40 45 46 47 48 49 50 51 52 53 54]</text>
<polyline fill="none" stroke="#0058ad" points="2102,-81.5 2102,-110.5 "/>
<text text-anchor="middle" x="2495.5" y="-92.3" font-family="Times,serif" font-size="14.00" fill="#0058ad">r 6 [3 4 5 6 8 7 9 10 11 12 13 14 15 16 17 18 19 20 21 22 23 24 25 26 27 28 29 33 34 35 36 37 38 41 42 43 44 45 46 47 48 54 55 53 56 57]</text>
<polyline fill="none" stroke="#0058ad" points="2889,-81.5 2889,-110.5 "/>
<text text-anchor="middle" x="3520" y="-92.3" font-family="Times,serif" font-size="14.00" fill="#0058ad">r 12 [5 6 10 11 12 14 13 16 18 17 20 19 21 22 23 24 25 26 27 28 29 30 31 32 33 34 35 36 37 38 39 40 41 42 43 44 45 46 47 48 49 50 52 53 54 55 56 57 58 59 60 61 81 82 83 85 86 87 88 89 84 91 95 96 97 98 100 101 99 102]</text>
</g>
<!-- T1195&#45;&gt;T1197 -->
<g id="edge1" class="edge">
<title>T1195:f0&#45;&gt;T1197:f0</title>
<path fill="none" stroke="#5b00c0" d="M1454,-162C1454,-102.5251 1336.6179,-165.6606 1322.4037,-121.0331"/>
<polygon fill="#5b00c0" stroke="#5b00c0" points="1325.8519,-120.4186 1321,-111 1318.9194,-121.3885 1325.8519,-120.4186"/>
<text text-anchor="middle" x="1454.5" y="-132.8" font-family="Times,serif" font-size="14.00" fill="#5b00c0">rw</text>
</g>
<!-- T1199 -->
<g id="node2" class="node">
<title>T1199</title>
<polygon fill="none" stroke="#0058ad" points="0,-.5 0,-29.5 3548,-29.5 3548,-.5 0,-.5"/>
<text text-anchor="middle" x="28.5" y="-11.3" font-family="Times,serif" font-size="14.00" fill="#0058ad">a 11 55</text>
<polyline fill="none" stroke="#0058ad" points="57,-.5 57,-29.5 "/>
<text text-anchor="middle" x="440" y="-11.3" font-family="Times,serif" font-size="14.00" fill="#0058ad">r 11 [1 2 6 8 7 9 10 12 13 14 15 16 17 18 19 20 21 22 23 24 25 26 27 28 29 30 31 38 39 41 42 43 40 45 46 47 48 49 50 51 52 53 54 55]</text>
<polyline fill="none" stroke="#0058ad" points="823,-.5 823,-29.5 "/>
<text text-anchor="middle" x="1566.5" y="-11.3" font-family="Times,serif" font-size="14.00" fill="#0058ad">r 7 [2 3 4 5 6 7 8 9 10 11 12 13 14 15 16 17 18 19 23 21 22 24 25 26 27 28 29 30 31 32 33 34 35 36 37 38 39 40 41 42 43 44 45 46 47 51 52 53 55 56 57 59 60 58 61 62 63 64 65 66 68 67 69 72 73 75 74 76 77 78 79 80 81 82 83 84 85 87 90 91 92 93 94 96 97 98 99]</text>
<polyline fill="none" stroke="#0058ad" points="2310,-.5 2310,-29.5 "/>
<text text-anchor="middle" x="2929" y="-11.3" font-family="Times,serif" font-size="14.00" fill="#0058ad">r 12 [5 6 10 11 12 14 13 16 18 17 20 19 21 22 23 24 25 26 27 28 29 30 31 32 33 34 35 36 37 38 39 40 41 42 43 44 45 46 47 48 49 50 52 53 54 55 56 57 58 59 60 61 81 82 83 85 86 87 88 89 84 91 95 96 97 98 100 101 99]</text>
</g>
<!-- T1199&#45;&gt;T1197 -->
<g id="edge2" class="edge">
<title>T1199:f3&#45;&gt;T1197:f0</title>
<path fill="none" stroke="#5b00c0" d="M2929,-30C2929,-49.7655 1525.6771,-46.1333 1506,-48 1426.4259,-55.5491 1329.7185,-2.377 1321.5546,-71.0034"/>
<polygon fill="#5b00c0" stroke="#5b00c0" points="1318.0594,-70.8214 1321,-81 1325.0486,-71.2093 1318.0594,-70.8214"/>
<text text-anchor="middle" x="1513.5" y="-51.8" font-family="Times,serif" font-size="14.00" fill="#5b00c0">rw</text>
</g>
<!-- T1197&#45;&gt;T1195 -->
<g id="edge4" class="edge">
<title>T1197:f2&#45;&gt;T1195:f1</title>
<path fill="none" stroke="#5b00c0" d="M2495,-111C2495,-150.5191 2202.5201,-174.1234 2133.2215,-176.7538"/>
<polygon fill="#5b00c0" stroke="#5b00c0" points="2132.9128,-173.2601 2123,-177 2133.0814,-180.2581 2132.9128,-173.2601"/>
<text text-anchor="middle" x="2479.5" y="-132.8" font-family="Times,serif" font-size="14.00" fill="#5b00c0">rw</text>
</g>
<!-- T1197&#45;&gt;T1199 -->
<g id="edge3" class="edge">
<title>T1197:f1&#45;&gt;T1199:f0</title>
<path fill="none" stroke="#5b00c0" d="M1727,-81C1727,11.7229 1613.3846,-55.9135 1521,-48 1501.3268,-46.3148 165.5833,-50.3206 37.7936,-32.807"/>
<polygon fill="#5b00c0" stroke="#5b00c0" points="38.5773,-29.3908 28,-30 36.6486,-36.1198 38.5773,-29.3908"/>
<text text-anchor="middle" x="1732.5" y="-51.8" font-family="Times,serif" font-size="14.00" fill="#5b00c0">rw</text>
</g>
</g>
</svg>
