<?xml version="1.0" encoding="UTF-8" standalone="no"?>
<!DOCTYPE svg PUBLIC "-//W3C//DTD SVG 1.1//EN"
 "http://www.w3.org/Graphics/SVG/1.1/DTD/svg11.dtd">
<!-- Generated by graphviz version 2.40.1 (20161225.0304)
 -->
<!-- Title: a_graph Pages: 1 -->
<svg width="2084pt" height="119pt"
 viewBox="0.00 0.00 2084.00 119.00" xmlns="http://www.w3.org/2000/svg" xmlns:xlink="http://www.w3.org/1999/xlink">
<g id="graph0" class="graph" transform="scale(1 1) rotate(0) translate(4 115)">
<title>a_graph</title>
<polygon fill="#ffffff" stroke="transparent" points="-4,4 -4,-115 2080,-115 2080,4 -4,4"/>
<!-- T21432 -->
<g id="node1" class="node">
<title>T21432</title>
<polygon fill="none" stroke="#0058ad" points="295.5,-81.5 295.5,-110.5 1236.5,-110.5 1236.5,-81.5 295.5,-81.5"/>
<text text-anchor="middle" x="331" y="-92.3" font-family="Times,serif" font-size="14.00" fill="#0058ad">a 102 111</text>
<polyline fill="none" stroke="#0058ad" points="366.5,-81.5 366.5,-110.5 "/>
<text text-anchor="middle" x="430.5" y="-92.3" font-family="Times,serif" font-size="14.00" fill="#0058ad">r 107 [2 3 5 6 7 4 8]</text>
<polyline fill="none" stroke="#0058ad" points="494.5,-81.5 494.5,-110.5 "/>
<text text-anchor="middle" x="865.5" y="-92.3" font-family="Times,serif" font-size="14.00" fill="#0058ad">r 106 [1 2 3 4 5 7 8 10 11 9 12 14 15 16 17 18 19 20 21 22 23 24 25 26 27 28 29 30 31 32 33 34 35 36 37 38 39 40 41 43 44 45 46]</text>
</g>
<!-- T21431 -->
<g id="node2" class="node">
<title>T21431</title>
<polygon fill="none" stroke="#0058ad" points="0,-.5 0,-29.5 2076,-29.5 2076,-.5 0,-.5"/>
<text text-anchor="middle" x="32" y="-11.3" font-family="Times,serif" font-size="14.00" fill="#0058ad">a 106 47</text>
<polyline fill="none" stroke="#0058ad" points="64,-.5 64,-29.5 "/>
<text text-anchor="middle" x="96" y="-11.3" font-family="Times,serif" font-size="14.00" fill="#0058ad">a 106 48</text>
<polyline fill="none" stroke="#0058ad" points="128,-.5 128,-29.5 "/>
<text text-anchor="middle" x="192" y="-11.3" font-family="Times,serif" font-size="14.00" fill="#0058ad">r 107 [2 3 5 6 7 4 8]</text>
<polyline fill="none" stroke="#0058ad" points="256,-.5 256,-29.5 "/>
<text text-anchor="middle" x="1166" y="-11.3" font-family="Times,serif" font-size="14.00" fill="#0058ad">r 102 [1 2 3 5 6 7 8 9 10 11 12 13 15 14 16 17 18 19 20 21 22 24 23 25 26 27 28 30 31 32 34 33 35 36 37 38 39 40 42 41 43 44 45 46 47 48 49 50 51 52 53 54 55 56 57 58 60 61 62 63 64 65 67 68 69 70 71 72 73 74 75 76 77 78 79 80 81 82 83 85 86 87 88 89 90 91 92 93 94 95 96 97 99 100 102 103 104 105 106 107 108 109]</text>
</g>
<!-- T21432&#45;&gt;T21431 -->
<g id="edge1" class="edge">
<title>T21432:f2&#45;&gt;T21431:f0</title>
<path fill="none" stroke="#5b00c0" d="M866,-81C866,6.1978 562.0281,-53.438 475,-48 463.8126,-47.3009 106.0155,-43.1656 41.8141,-33.1426"/>
<polygon fill="#5b00c0" stroke="#5b00c0" points="42.591,-29.7164 32,-30 40.4563,-36.383 42.591,-29.7164"/>
<text text-anchor="middle" x="867.5" y="-51.8" font-family="Times,serif" font-size="14.00" fill="#5b00c0">rw</text>
</g>
<!-- T21431&#45;&gt;T21432 -->
<g id="edge2" class="edge">
<title>T21431:f3&#45;&gt;T21432:f0</title>
<path fill="none" stroke="#5b00c0" d="M1166,-30C1166,-49.7286 475.5307,-45.2132 456,-48 402.7835,-55.5932 339.7341,-27.5712 331.8277,-70.9768"/>
<polygon fill="#5b00c0" stroke="#5b00c0" points="328.3349,-70.7459 331,-81 335.3112,-71.322 328.3349,-70.7459"/>
<text text-anchor="middle" x="463.5" y="-51.8" font-family="Times,serif" font-size="14.00" fill="#5b00c0">rw</text>
</g>
</g>
</svg>
