<?xml version="1.0" encoding="UTF-8" standalone="no"?>
<!DOCTYPE svg PUBLIC "-//W3C//DTD SVG 1.1//EN"
 "http://www.w3.org/Graphics/SVG/1.1/DTD/svg11.dtd">
<!-- Generated by graphviz version 2.40.1 (20161225.0304)
 -->
<!-- Title: a_graph Pages: 1 -->
<svg width="2942pt" height="119pt"
 viewBox="0.00 0.00 2942.00 119.00" xmlns="http://www.w3.org/2000/svg" xmlns:xlink="http://www.w3.org/1999/xlink">
<g id="graph0" class="graph" transform="scale(1 1) rotate(0) translate(4 115)">
<title>a_graph</title>
<polygon fill="#ffffff" stroke="transparent" points="-4,4 -4,-115 2938,-115 2938,4 -4,4"/>
<!-- T3969 -->
<g id="node1" class="node">
<title>T3969</title>
<polygon fill="none" stroke="#0058ad" points="35,-81.5 35,-110.5 1763,-110.5 1763,-81.5 35,-81.5"/>
<text text-anchor="middle" x="67" y="-92.3" font-family="Times,serif" font-size="14.00" fill="#0058ad">a 23 118</text>
<polyline fill="none" stroke="#0058ad" points="99,-81.5 99,-110.5 "/>
<text text-anchor="middle" x="515" y="-92.3" font-family="Times,serif" font-size="14.00" fill="#0058ad">r 25 [1 2 3 4 7 5 6 8 9 10 11 13 14 16 19 17 18 15 23 20 21 24 25 22 26 27 30 28 29 31 32 33 34 36 37 38 35 39 40 41 42 43 44 47 48 49 45 46 50]</text>
<polyline fill="none" stroke="#0058ad" points="931,-81.5 931,-110.5 "/>
<text text-anchor="middle" x="1347" y="-92.3" font-family="Times,serif" font-size="14.00" fill="#0058ad">r 25 [1 2 3 4 7 5 6 8 9 10 11 13 14 16 19 17 18 15 23 20 21 24 25 22 26 27 30 28 29 31 32 33 34 36 37 38 35 39 40 41 42 43 44 47 48 49 45 46 50]</text>
</g>
<!-- T3973 -->
<g id="node2" class="node">
<title>T3973</title>
<polygon fill="none" stroke="#0058ad" points="0,-.5 0,-29.5 2934,-29.5 2934,-.5 0,-.5"/>
<text text-anchor="middle" x="28.5" y="-11.3" font-family="Times,serif" font-size="14.00" fill="#0058ad">a 25 51</text>
<polyline fill="none" stroke="#0058ad" points="57,-.5 57,-29.5 "/>
<text text-anchor="middle" x="1042.5" y="-11.3" font-family="Times,serif" font-size="14.00" fill="#0058ad">r 23 [2 1 4 5 6 7 8 9 10 11 12 13 15 14 16 20 21 18 19 17 22 23 24 25 26 28 29 31 32 33 34 35 36 38 37 39 41 42 44 43 46 47 48 49 51 52 53 55 45 56 57 58 60 59 61 62 63 64 65 66 67 68 69 70 71 72 75 76 77 73 74 78 79 80 81 82 83 84 85 86 87 88 89 90 91 94 96 95 97 98 99 100 101 102 103 104 105 106 107 108 110 111 112 113 114 115 116 117]</text>
<polyline fill="none" stroke="#0058ad" points="2028,-.5 2028,-29.5 "/>
<text text-anchor="middle" x="2452.5" y="-11.3" font-family="Times,serif" font-size="14.00" fill="#0058ad">r 25 [1 2 3 4 7 5 6 8 9 10 11 13 14 16 19 17 18 15 23 20 21 24 25 22 26 27 30 28 29 31 32 33 34 36 37 38 35 39 40 41 42 43 44 47 48 49 45 46 50 51]</text>
<polyline fill="none" stroke="#0058ad" points="2877,-.5 2877,-29.5 "/>
<text text-anchor="middle" x="2905.5" y="-11.3" font-family="Times,serif" font-size="14.00" fill="#0058ad">a 22 55</text>
</g>
<!-- T3969&#45;&gt;T3973 -->
<g id="edge1" class="edge">
<title>T3969:f1&#45;&gt;T3973:f0</title>
<path fill="none" stroke="#5b00c0" d="M515,-81C515,133.1214 43.5679,-235.4011 28.3753,-40.0563"/>
<polygon fill="#5b00c0" stroke="#5b00c0" points="31.8706,-39.8625 28,-30 24.8754,-40.1236 31.8706,-39.8625"/>
<text text-anchor="middle" x="520.5" y="-51.8" font-family="Times,serif" font-size="14.00" fill="#5b00c0">rw</text>
</g>
<!-- T3973&#45;&gt;T3969 -->
<g id="edge2" class="edge">
<title>T3973:f1&#45;&gt;T3969:f0</title>
<path fill="none" stroke="#5b00c0" d="M1042,-30C1042,-143.5703 645.4189,-57.1364 532,-63 520.2255,-63.6087 143.0765,-67.328 76.8718,-77.7859"/>
<polygon fill="#5b00c0" stroke="#5b00c0" points="75.4251,-74.576 67,-81 77.5923,-81.2321 75.4251,-74.576"/>
<text text-anchor="middle" x="1044.5" y="-51.8" font-family="Times,serif" font-size="14.00" fill="#5b00c0">rw</text>
</g>
</g>
</svg>
