<?xml version="1.0" encoding="UTF-8" standalone="no"?>
<!DOCTYPE svg PUBLIC "-//W3C//DTD SVG 1.1//EN"
 "http://www.w3.org/Graphics/SVG/1.1/DTD/svg11.dtd">
<!-- Generated by graphviz version 2.40.1 (20161225.0304)
 -->
<!-- Title: a_graph Pages: 1 -->
<svg width="2371pt" height="119pt"
 viewBox="0.00 0.00 2371.00 119.00" xmlns="http://www.w3.org/2000/svg" xmlns:xlink="http://www.w3.org/1999/xlink">
<g id="graph0" class="graph" transform="scale(1 1) rotate(0) translate(4 115)">
<title>a_graph</title>
<polygon fill="#ffffff" stroke="transparent" points="-4,4 -4,-115 2367,-115 2367,4 -4,4"/>
<!-- T20037 -->
<g id="node1" class="node">
<title>T20037</title>
<polygon fill="none" stroke="#0058ad" points="104,-81.5 104,-110.5 2363,-110.5 2363,-81.5 104,-81.5"/>
<text text-anchor="middle" x="1201.5" y="-92.3" font-family="Times,serif" font-size="14.00" fill="#0058ad">r 93 [1 2 3 4 5 6 7 8 9 11 10 12 13 14 15 16 17 18 19 20 21 22 24 23 25 26 27 28 29 30 31 33 32 34 35 36 37 38 39 40 41 42 43 44 45 46 47 48 49 50 51 52 55 56 57 58 60 59 61 62 63 64 65 66 67 53 54 71 73 74 75 72 76 77 78 79 80 81 82 83 84 85 86 87 88 89 90 91 92 94 93 95 96 97 98 99 100 101 102 103 104 105 106 108 109 111 112 113 114 115 116 117 118 119 120 121 122 123 124]</text>
<polyline fill="none" stroke="#0058ad" points="2299,-81.5 2299,-110.5 "/>
<text text-anchor="middle" x="2331" y="-92.3" font-family="Times,serif" font-size="14.00" fill="#0058ad">a 99 122</text>
</g>
<!-- T20038 -->
<g id="node2" class="node">
<title>T20038</title>
<polygon fill="none" stroke="#0058ad" points="0,-.5 0,-29.5 2357,-29.5 2357,-.5 0,-.5"/>
<text text-anchor="middle" x="32" y="-11.3" font-family="Times,serif" font-size="14.00" fill="#0058ad">a 98 118</text>
<polyline fill="none" stroke="#0058ad" points="64,-.5 64,-29.5 "/>
<text text-anchor="middle" x="93" y="-11.3" font-family="Times,serif" font-size="14.00" fill="#0058ad">r 100 []</text>
<polyline fill="none" stroke="#0058ad" points="122,-.5 122,-29.5 "/>
<text text-anchor="middle" x="1207.5" y="-11.3" font-family="Times,serif" font-size="14.00" fill="#0058ad">r 99 [1 2 3 4 5 6 7 8 9 10 11 12 13 14 15 16 17 18 19 20 21 22 23 24 25 26 27 28 29 30 31 32 33 34 35 36 37 38 39 40 41 42 43 44 45 46 47 48 49 50 51 52 54 56 57 58 59 60 61 63 64 65 66 67 68 62 69 70 71 72 73 74 75 76 79 80 77 78 81 82 83 84 85 87 88 89 90 91 92 93 94 95 96 97 98 99 100 102 103 104 105 106 107 108 109 110 111 112 113 114 115 116 117 119 120 121 118 123]</text>
<polyline fill="none" stroke="#0058ad" points="2293,-.5 2293,-29.5 "/>
<text text-anchor="middle" x="2325" y="-11.3" font-family="Times,serif" font-size="14.00" fill="#0058ad">a 93 125</text>
</g>
<!-- T20037&#45;&gt;T20038 -->
<g id="edge1" class="edge">
<title>T20037:f0&#45;&gt;T20038:f3</title>
<path fill="none" stroke="#5b00c0" d="M1201.5,-81C1201.5,-66.2274 2205.9241,-47.7745 2315.783,-32.5994"/>
<polygon fill="#5b00c0" stroke="#5b00c0" points="2316.7442,-35.9654 2325.5,-30 2314.9352,-29.2032 2316.7442,-35.9654"/>
<text text-anchor="middle" x="2000" y="-51.8" font-family="Times,serif" font-size="14.00" fill="#5b00c0">rw</text>
</g>
<!-- T20038&#45;&gt;T20037 -->
<g id="edge2" class="edge">
<title>T20038:f2&#45;&gt;T20037:f1</title>
<path fill="none" stroke="#5b00c0" d="M1207.5,-30C1207.5,-52.3389 1989.2048,-46.6031 2011.5,-48 2150.7129,-56.7224 2322.8632,56.2462 2331.186,-70.9907"/>
<polygon fill="#5b00c0" stroke="#5b00c0" points="2327.6881,-71.1147 2331.5,-81 2334.6847,-70.8952 2327.6881,-71.1147"/>
<text text-anchor="middle" x="2337" y="-51.8" font-family="Times,serif" font-size="14.00" fill="#5b00c0">rw</text>
</g>
</g>
</svg>
