<?xml version="1.0" encoding="UTF-8" standalone="no"?>
<!DOCTYPE svg PUBLIC "-//W3C//DTD SVG 1.1//EN"
 "http://www.w3.org/Graphics/SVG/1.1/DTD/svg11.dtd">
<!-- Generated by graphviz version 2.40.1 (20161225.0304)
 -->
<!-- Title: a_graph Pages: 1 -->
<svg width="3947pt" height="200pt"
 viewBox="0.00 0.00 3946.50 200.00" xmlns="http://www.w3.org/2000/svg" xmlns:xlink="http://www.w3.org/1999/xlink">
<g id="graph0" class="graph" transform="scale(1 1) rotate(0) translate(4 196)">
<title>a_graph</title>
<polygon fill="#ffffff" stroke="transparent" points="-4,4 -4,-196 3942.5,-196 3942.5,4 -4,4"/>
<!-- T32845 -->
<g id="node1" class="node">
<title>T32845</title>
<polygon fill="none" stroke="#0058ad" points="1449.5,-162.5 1449.5,-191.5 1520.5,-191.5 1520.5,-162.5 1449.5,-162.5"/>
<text text-anchor="middle" x="1485" y="-173.3" font-family="Times,serif" font-size="14.00" fill="#0058ad">a 159 128</text>
</g>
<!-- T32851 -->
<g id="node2" class="node">
<title>T32851</title>
<polygon fill="none" stroke="#0058ad" points="0,-81.5 0,-110.5 1956,-110.5 1956,-81.5 0,-81.5"/>
<text text-anchor="middle" x="474.5" y="-92.3" font-family="Times,serif" font-size="14.00" fill="#0058ad">r 162 [2 3 4 5 6 7 8 9 10 11 12 13 14 16 17 18 19 15 20 21 22 23 24 25 26 27 29 30 31 28 32 33 36 34 35 38 37 40 39 41 42 43 44 45 47 46 48 49 50 51 52 54 55 53 56]</text>
<polyline fill="none" stroke="#0058ad" points="949,-81.5 949,-110.5 "/>
<text text-anchor="middle" x="1423.5" y="-92.3" font-family="Times,serif" font-size="14.00" fill="#0058ad">r 162 [2 3 4 5 6 7 8 9 10 11 12 13 14 16 17 18 19 15 20 21 22 23 24 25 26 27 29 30 31 28 32 33 36 34 35 38 37 40 39 41 42 43 44 45 47 46 48 49 50 51 52 54 55 53 56]</text>
<polyline fill="none" stroke="#0058ad" points="1898,-81.5 1898,-110.5 "/>
<text text-anchor="middle" x="1927" y="-92.3" font-family="Times,serif" font-size="14.00" fill="#0058ad">r 163 []</text>
</g>
<!-- T32845&#45;&gt;T32851 -->
<g id="edge1" class="edge">
<title>T32845&#45;&gt;T32851</title>
<path fill="none" stroke="#0050c0" d="M1449.3487,-171.3042C1373.4269,-159.1747 1193.3979,-130.4127 1079.1009,-112.1522"/>
<polygon fill="#0050c0" stroke="#0050c0" points="1079.3633,-108.6498 1068.9363,-110.5283 1078.2589,-115.5622 1079.3633,-108.6498"/>
<text text-anchor="middle" x="1281.5" y="-132.8" font-family="Times,serif" font-size="14.00" fill="#0050c0">rt</text>
</g>
<!-- T32849 -->
<g id="node3" class="node">
<title>T32849</title>
<polygon fill="none" stroke="#0058ad" points="745.5,-.5 745.5,-29.5 3938.5,-29.5 3938.5,-.5 745.5,-.5"/>
<text text-anchor="middle" x="777.5" y="-11.3" font-family="Times,serif" font-size="14.00" fill="#0058ad">a 162 57</text>
<polyline fill="none" stroke="#0058ad" points="809.5,-.5 809.5,-29.5 "/>
<text text-anchor="middle" x="1891" y="-11.3" font-family="Times,serif" font-size="14.00" fill="#0058ad">r 159 [1 2 3 4 5 6 7 8 10 9 11 12 13 14 15 16 17 18 19 20 25 26 27 28 29 30 31 32 33 34 35 36 37 39 40 38 42 43 45 44 46 47 48 49 50 52 53 54 55 56 57 58 59 60 61 62 63 64 65 66 67 69 70 68 71 72 74 76 75 77 79 80 81 82 84 83 85 86 87 88 89 90 91 92 93 94 96 97 98 95 99 100 101 103 104 106 105 107 108 109 110 111 112 113 114 115 116 117 118 119 120 121 122 123 124 127]</text>
<polyline fill="none" stroke="#0058ad" points="2972.5,-.5 2972.5,-29.5 "/>
<text text-anchor="middle" x="3455.5" y="-11.3" font-family="Times,serif" font-size="14.00" fill="#0058ad">r 162 [2 3 4 5 6 7 8 9 10 11 12 13 14 16 17 18 19 15 20 21 22 23 24 25 26 27 29 30 31 28 32 33 36 34 35 38 37 40 39 41 42 43 44 45 47 46 48 49 50 51 52 54 55 53 56 57]</text>
</g>
<!-- T32851&#45;&gt;T32849 -->
<g id="edge2" class="edge">
<title>T32851:f0&#45;&gt;T32849:f0</title>
<path fill="none" stroke="#5b00c0" d="M474,-81C474,-22.044 663.104,-15.5305 734.9103,-15.035"/>
<polygon fill="#5b00c0" stroke="#5b00c0" points="735.0122,-18.5348 745,-15 734.9879,-11.5348 735.0122,-18.5348"/>
<text text-anchor="middle" x="504.5" y="-51.8" font-family="Times,serif" font-size="14.00" fill="#5b00c0">rw</text>
</g>
<!-- T32849&#45;&gt;T32845 -->
<g id="edge3" class="edge">
<title>T32849:f1&#45;&gt;T32845:f0</title>
<path fill="none" stroke="#5b00c0" d="M1891,-30C1891,-69.9432 1946.4248,-45.6388 1965,-81 1971.2006,-92.8039 1973.8751,-101.0496 1965,-111 1900.8804,-182.8878 1634.1896,-139.4782 1528.4726,-160.1411"/>
<polygon fill="#5b00c0" stroke="#5b00c0" points="1527.4315,-156.7886 1518.4604,-162.4251 1528.9884,-163.6133 1527.4315,-156.7886"/>
<text text-anchor="middle" x="1977.5" y="-92.3" font-family="Times,serif" font-size="14.00" fill="#5b00c0">rw</text>
</g>
</g>
</svg>
