<?xml version="1.0" encoding="UTF-8" standalone="no"?>
<!DOCTYPE svg PUBLIC "-//W3C//DTD SVG 1.1//EN"
 "http://www.w3.org/Graphics/SVG/1.1/DTD/svg11.dtd">
<!-- Generated by graphviz version 2.40.1 (20161225.0304)
 -->
<!-- Title: a_graph Pages: 1 -->
<svg width="2253pt" height="119pt"
 viewBox="0.00 0.00 2253.00 119.00" xmlns="http://www.w3.org/2000/svg" xmlns:xlink="http://www.w3.org/1999/xlink">
<g id="graph0" class="graph" transform="scale(1 1) rotate(0) translate(4 115)">
<title>a_graph</title>
<polygon fill="#ffffff" stroke="transparent" points="-4,4 -4,-115 2249,-115 2249,4 -4,4"/>
<!-- T15425 -->
<g id="node1" class="node">
<title>T15425</title>
<polygon fill="none" stroke="#0058ad" points="490,-81.5 490,-110.5 1513,-110.5 1513,-81.5 490,-81.5"/>
<text text-anchor="middle" x="969.5" y="-92.3" font-family="Times,serif" font-size="14.00" fill="#0058ad">r 79 [1 2 3 5 6 7 8 9 10 11 12 13 14 15 17 18 20 21 22 23 25 24 26 27 28 29 30 34 35 32 33 31 36 37 38 39 40 41 42 44 45 46 47 49 50 48 51 52 53 54 55 56 57 59 58 60]</text>
<polyline fill="none" stroke="#0058ad" points="1449,-81.5 1449,-110.5 "/>
<text text-anchor="middle" x="1481" y="-92.3" font-family="Times,serif" font-size="14.00" fill="#0058ad">a 80 101</text>
</g>
<!-- T15429 -->
<g id="node2" class="node">
<title>T15429</title>
<polygon fill="none" stroke="#0058ad" points="0,-.5 0,-29.5 2245,-29.5 2245,-.5 0,-.5"/>
<text text-anchor="middle" x="807.5" y="-11.3" font-family="Times,serif" font-size="14.00" fill="#0058ad">r 80 [1 2 3 4 5 6 7 8 9 10 11 12 14 15 16 17 18 13 19 24 25 27 29 30 31 32 34 35 36 37 38 33 41 39 40 42 43 44 45 46 47 48 49 50 51 52 53 54 55 56 57 58 59 60 61 63 62 64 65 66 67 68 69 70 71 72 73 74 75 76 79 77 78 80 81 82 83 84 85 86 87 88 89 90 91 93 94 92 96 97 98 99 100 95]</text>
<polyline fill="none" stroke="#0058ad" points="1615,-.5 1615,-29.5 "/>
<text text-anchor="middle" x="1643.5" y="-11.3" font-family="Times,serif" font-size="14.00" fill="#0058ad">a 79 61</text>
<polyline fill="none" stroke="#0058ad" points="1672,-.5 1672,-29.5 "/>
<text text-anchor="middle" x="1958.5" y="-11.3" font-family="Times,serif" font-size="14.00" fill="#0058ad">r 70 [1 2 3 4 5 6 7 8 9 10 11 12 13 14 15 16 18 19 20 21 22 23 24 25 26 27 28 29 30 31 32 33 34 35]</text>
</g>
<!-- T15425&#45;&gt;T15429 -->
<g id="edge1" class="edge">
<title>T15425:f0&#45;&gt;T15429:f1</title>
<path fill="none" stroke="#5b00c0" d="M969.5,-81C969.5,77.9005 1167.0401,-59.8252 1325.5,-48 1341.3193,-46.8195 1584.3467,-47.5104 1634.4914,-34.9171"/>
<polygon fill="#5b00c0" stroke="#5b00c0" points="1636.3993,-37.8632 1643.5,-30 1633.0455,-31.7189 1636.3993,-37.8632"/>
<text text-anchor="middle" x="1333" y="-51.8" font-family="Times,serif" font-size="14.00" fill="#5b00c0">rw</text>
</g>
<!-- T15429&#45;&gt;T15425 -->
<g id="edge2" class="edge">
<title>T15429:f0&#45;&gt;T15425:f1</title>
<path fill="none" stroke="#5b00c0" d="M807.5,-30C807.5,-44.814 1325.8145,-46.0527 1340.5,-48 1400.5633,-55.9644 1472.4993,-21.1406 1480.7231,-70.7291"/>
<polygon fill="#5b00c0" stroke="#5b00c0" points="1477.2556,-71.2925 1481.5,-81 1484.2357,-70.7645 1477.2556,-71.2925"/>
<text text-anchor="middle" x="1485" y="-51.8" font-family="Times,serif" font-size="14.00" fill="#5b00c0">rw</text>
</g>
</g>
</svg>
