<?xml version="1.0" encoding="UTF-8" standalone="no"?>
<!DOCTYPE svg PUBLIC "-//W3C//DTD SVG 1.1//EN"
 "http://www.w3.org/Graphics/SVG/1.1/DTD/svg11.dtd">
<!-- Generated by graphviz version 2.40.1 (20161225.0304)
 -->
<!-- Title: a_graph Pages: 1 -->
<svg width="2005pt" height="200pt"
 viewBox="0.00 0.00 2005.00 200.00" xmlns="http://www.w3.org/2000/svg" xmlns:xlink="http://www.w3.org/1999/xlink">
<g id="graph0" class="graph" transform="scale(1 1) rotate(0) translate(4 196)">
<title>a_graph</title>
<polygon fill="#ffffff" stroke="transparent" points="-4,4 -4,-196 2001,-196 2001,4 -4,4"/>
<!-- T25321 -->
<g id="node1" class="node">
<title>T25321</title>
<polygon fill="none" stroke="#0058ad" points="0,-162.5 0,-191.5 1997,-191.5 1997,-162.5 0,-162.5"/>
<text text-anchor="middle" x="443.5" y="-173.3" font-family="Times,serif" font-size="14.00" fill="#0058ad">r 126 [1 3 4 6 7 5 2 11 12 13 14 15 16 17 18 19 20 22 21 23 24 26 25 27 28 29 30 31 33 34 35 36 37 38 32 39 40 42 41 43 44 45 46 49 50 51 47 48 52 53 54]</text>
<polyline fill="none" stroke="#0058ad" points="887,-162.5 887,-191.5 "/>
<text text-anchor="middle" x="919" y="-173.3" font-family="Times,serif" font-size="14.00" fill="#0058ad">a 126 55</text>
<polyline fill="none" stroke="#0058ad" points="951,-162.5 951,-191.5 "/>
<text text-anchor="middle" x="1284" y="-173.3" font-family="Times,serif" font-size="14.00" fill="#0058ad">r 124 [1 2 3 4 5 6 7 9 11 8 12 13 14 15 16 17 18 19 20 22 23 21 28 29 30 31 32 33 34 35 36 37 38 39 40 41 42 43 44]</text>
<polyline fill="none" stroke="#0058ad" points="1617,-162.5 1617,-191.5 "/>
<text text-anchor="middle" x="1807" y="-173.3" font-family="Times,serif" font-size="14.00" fill="#0058ad">r 125 [1 2 3 4 6 5 8 9 10 11 13 14 15 16 17 18 19 20 21 23 22 24]</text>
</g>
<!-- T25327 -->
<g id="node2" class="node">
<title>T25327</title>
<polygon fill="none" stroke="#0058ad" points="176,-81.5 176,-110.5 1045,-110.5 1045,-81.5 176,-81.5"/>
<text text-anchor="middle" x="610.5" y="-92.3" font-family="Times,serif" font-size="14.00" fill="#0058ad">r 126 [1 3 4 6 7 5 2 11 12 13 14 15 16 17 18 19 20 22 21 23 24 26 25 27 28 29 30 31 33 34 35 36 37 38 32 39 40 42 41 43 44 45 46 49 50 51 47 48 52 53]</text>
</g>
<!-- T25321&#45;&gt;T25327 -->
<g id="edge1" class="edge">
<title>T25321&#45;&gt;T25327</title>
<path fill="none" stroke="#0050c0" d="M928.6853,-162.4253C861.6208,-148.4247 760.3985,-127.2932 690.2041,-112.6393"/>
<polygon fill="#0050c0" stroke="#0050c0" points="690.5847,-109.1433 680.0805,-110.5258 689.1542,-115.9956 690.5847,-109.1433"/>
<text text-anchor="middle" x="843" y="-132.8" font-family="Times,serif" font-size="14.00" fill="#0050c0">rt</text>
</g>
<!-- T25319 -->
<g id="node3" class="node">
<title>T25319</title>
<polygon fill="none" stroke="#0058ad" points="579,-.5 579,-29.5 1658,-29.5 1658,-.5 579,-.5"/>
<text text-anchor="middle" x="611" y="-11.3" font-family="Times,serif" font-size="14.00" fill="#0058ad">a 126 54</text>
<polyline fill="none" stroke="#0058ad" points="643,-.5 643,-29.5 "/>
<text text-anchor="middle" x="675" y="-11.3" font-family="Times,serif" font-size="14.00" fill="#0058ad">a 117 78</text>
<polyline fill="none" stroke="#0058ad" points="707,-.5 707,-29.5 "/>
<text text-anchor="middle" x="739" y="-11.3" font-family="Times,serif" font-size="14.00" fill="#0058ad">a 125 24</text>
<polyline fill="none" stroke="#0058ad" points="771,-.5 771,-29.5 "/>
<text text-anchor="middle" x="1214.5" y="-11.3" font-family="Times,serif" font-size="14.00" fill="#0058ad">r 126 [1 3 4 6 7 5 2 11 12 13 14 15 16 17 18 19 20 22 21 23 24 26 25 27 28 29 30 31 33 34 35 36 37 38 32 39 40 42 41 43 44 45 46 49 50 51 47 48 52 53 54]</text>
</g>
<!-- T25327&#45;&gt;T25319 -->
<g id="edge2" class="edge">
<title>T25327:f0&#45;&gt;T25319:f0</title>
<path fill="none" stroke="#5b00c0" d="M610.5,-81.3204C610.5,-70.4532 610.5,-55.0147 610.5,-40.1425"/>
<polygon fill="#5b00c0" stroke="#5b00c0" points="614.0001,-40 610.5,-30 607.0001,-40 614.0001,-40"/>
<text text-anchor="middle" x="618" y="-51.8" font-family="Times,serif" font-size="14.00" fill="#5b00c0">rw</text>
</g>
<!-- T25319&#45;&gt;T25321 -->
<g id="edge3" class="edge">
<title>T25319:f0&#45;&gt;T25321:f1</title>
<path fill="none" stroke="#c02700" d="M610.5,-30C610.5,-47.3622 905.3362,-45.3831 922.5,-48 982.2813,-57.1148 1017.2847,-33.3355 1054.5,-81 1062.7055,-91.5094 1062.0946,-100.041 1054.5,-111 1019.8845,-160.9502 929.9141,-104.8408 919.4895,-151.953"/>
<polygon fill="#c02700" stroke="#c02700" points="915.9971,-151.7051 918.5,-162 922.9634,-152.3912 915.9971,-151.7051"/>
<text text-anchor="middle" x="1069.5" y="-92.3" font-family="Times,serif" font-size="14.00" fill="#c02700">ww</text>
</g>
<!-- T25319&#45;&gt;T25327 -->
<g id="edge4" class="edge">
<title>T25319&#45;&gt;T25327</title>
<path fill="none" stroke="#0050c0" d="M1027.2912,-29.5431C938.4143,-43.7145 803.5815,-65.2134 711.504,-79.895"/>
<polygon fill="#0050c0" stroke="#0050c0" points="710.9375,-76.4411 701.6134,-81.4721 712.0398,-83.3537 710.9375,-76.4411"/>
<text text-anchor="middle" x="914" y="-51.8" font-family="Times,serif" font-size="14.00" fill="#0050c0">rt</text>
</g>
</g>
</svg>
