<?xml version="1.0" encoding="UTF-8" standalone="no"?>
<!DOCTYPE svg PUBLIC "-//W3C//DTD SVG 1.1//EN"
 "http://www.w3.org/Graphics/SVG/1.1/DTD/svg11.dtd">
<!-- Generated by graphviz version 2.40.1 (20161225.0304)
 -->
<!-- Title: a_graph Pages: 1 -->
<svg width="3234pt" height="119pt"
 viewBox="0.00 0.00 3234.00 119.00" xmlns="http://www.w3.org/2000/svg" xmlns:xlink="http://www.w3.org/1999/xlink">
<g id="graph0" class="graph" transform="scale(1 1) rotate(0) translate(4 115)">
<title>a_graph</title>
<polygon fill="#ffffff" stroke="transparent" points="-4,4 -4,-115 3230,-115 3230,4 -4,4"/>
<!-- T2509 -->
<g id="node1" class="node">
<title>T2509</title>
<polygon fill="none" stroke="#0058ad" points="2421,-81.5 2421,-110.5 2729,-110.5 2729,-81.5 2421,-81.5"/>
<text text-anchor="middle" x="2453" y="-92.3" font-family="Times,serif" font-size="14.00" fill="#0058ad">a 17 100</text>
<polyline fill="none" stroke="#0058ad" points="2485,-81.5 2485,-110.5 "/>
<text text-anchor="middle" x="2582" y="-92.3" font-family="Times,serif" font-size="14.00" fill="#0058ad">r 18 [1 2 3 4 5 6 7 8 9 10 12 13]</text>
<polyline fill="none" stroke="#0058ad" points="2679,-81.5 2679,-110.5 "/>
<text text-anchor="middle" x="2704" y="-92.3" font-family="Times,serif" font-size="14.00" fill="#0058ad">a 4 24</text>
</g>
<!-- T2511 -->
<g id="node2" class="node">
<title>T2511</title>
<polygon fill="none" stroke="#0058ad" points="0,-.5 0,-29.5 3226,-29.5 3226,-.5 0,-.5"/>
<text text-anchor="middle" x="778" y="-11.3" font-family="Times,serif" font-size="14.00" fill="#0058ad">r 17 [1 2 3 4 5 6 7 8 9 10 11 12 13 14 15 16 18 19 20 17 22 23 21 25 26 28 29 30 31 32 33 34 35 36 39 37 38 40 41 42 43 46 44 48 49 50 52 51 53 55 56 57 54 59 60 61 63 64 65 68 58 69 70 71 72 73 74 75 76 77 79 80 81 78 82 83 84 85 86 87 88 89 90 91 92 94 95 97 98 96 99]</text>
<polyline fill="none" stroke="#0058ad" points="1556,-.5 1556,-29.5 "/>
<text text-anchor="middle" x="2334" y="-11.3" font-family="Times,serif" font-size="14.00" fill="#0058ad">r 17 [1 2 3 4 5 6 7 8 9 10 11 12 13 14 15 16 18 19 20 17 22 23 21 25 26 28 29 30 31 32 33 34 35 36 39 37 38 40 41 42 43 46 44 48 49 50 52 51 53 55 56 57 54 59 60 61 63 64 65 68 58 69 70 71 72 73 74 75 76 77 79 80 81 78 82 83 84 85 86 87 88 89 90 91 92 94 95 97 98 96 99]</text>
<polyline fill="none" stroke="#0058ad" points="3112,-.5 3112,-29.5 "/>
<text text-anchor="middle" x="3140.5" y="-11.3" font-family="Times,serif" font-size="14.00" fill="#0058ad">a 18 14</text>
<polyline fill="none" stroke="#0058ad" points="3169,-.5 3169,-29.5 "/>
<text text-anchor="middle" x="3197.5" y="-11.3" font-family="Times,serif" font-size="14.00" fill="#0058ad">a 14 83</text>
</g>
<!-- T2509&#45;&gt;T2511 -->
<g id="edge1" class="edge">
<title>T2509:f1&#45;&gt;T2511:f2</title>
<path fill="none" stroke="#5b00c0" d="M2582,-81C2582,164.9437 3125.281,-266.93 3140.6669,-40.1823"/>
<polygon fill="#5b00c0" stroke="#5b00c0" points="3144.1711,-40.1091 3141,-30 3137.1748,-39.8802 3144.1711,-40.1091"/>
<text text-anchor="middle" x="3145.5" y="-51.8" font-family="Times,serif" font-size="14.00" fill="#5b00c0">rw</text>
</g>
<!-- T2511&#45;&gt;T2509 -->
<g id="edge2" class="edge">
<title>T2511:f0&#45;&gt;T2509:f0</title>
<path fill="none" stroke="#5b00c0" d="M778,-30C778,-74.0699 2264.9867,-94.5396 2410.5661,-95.9244"/>
<polygon fill="#5b00c0" stroke="#5b00c0" points="2410.9749,-99.4274 2421,-96 2411.0256,-92.4276 2410.9749,-99.4274"/>
<text text-anchor="middle" x="1091.5" y="-51.8" font-family="Times,serif" font-size="14.00" fill="#5b00c0">rw</text>
</g>
</g>
</svg>
