<?xml version="1.0" encoding="UTF-8" standalone="no"?>
<!DOCTYPE svg PUBLIC "-//W3C//DTD SVG 1.1//EN"
 "http://www.w3.org/Graphics/SVG/1.1/DTD/svg11.dtd">
<!-- Generated by graphviz version 2.40.1 (20161225.0304)
 -->
<!-- Title: a_graph Pages: 1 -->
<svg width="2076pt" height="119pt"
 viewBox="0.00 0.00 2076.00 119.00" xmlns="http://www.w3.org/2000/svg" xmlns:xlink="http://www.w3.org/1999/xlink">
<g id="graph0" class="graph" transform="scale(1 1) rotate(0) translate(4 115)">
<title>a_graph</title>
<polygon fill="#ffffff" stroke="transparent" points="-4,4 -4,-115 2072,-115 2072,4 -4,4"/>
<!-- T20522 -->
<g id="node1" class="node">
<title>T20522</title>
<polygon fill="none" stroke="#0058ad" points="857,-81.5 857,-110.5 2068,-110.5 2068,-81.5 857,-81.5"/>
<text text-anchor="middle" x="885.5" y="-92.3" font-family="Times,serif" font-size="14.00" fill="#0058ad">a 104 8</text>
<polyline fill="none" stroke="#0058ad" points="914,-81.5 914,-110.5 "/>
<text text-anchor="middle" x="1462.5" y="-92.3" font-family="Times,serif" font-size="14.00" fill="#0058ad">r 103 [1 2 3 4 5 6 7 8 9 11 10 12 13 14 15 16 17 18 19 20 21 22 23 24 25 26 27 28 29 30 31 32 33 35 36 37 38 39 40 41 42 43 44 45 46 47 48 49 50 51 53 54 55 56 57 58 59 60 61 62 63 64 65 66]</text>
<polyline fill="none" stroke="#0058ad" points="2011,-81.5 2011,-110.5 "/>
<text text-anchor="middle" x="2039.5" y="-92.3" font-family="Times,serif" font-size="14.00" fill="#0058ad">a 104 9</text>
</g>
<!-- T20521 -->
<g id="node2" class="node">
<title>T20521</title>
<polygon fill="none" stroke="#0058ad" points="0,-.5 0,-29.5 1395,-29.5 1395,-.5 0,-.5"/>
<text text-anchor="middle" x="548.5" y="-11.3" font-family="Times,serif" font-size="14.00" fill="#0058ad">r 74 [1 2 3 4 6 7 8 9 10 11 12 13 14 16 17 18 19 20 21 22 24 25 26 27 28 29 30 31 32 33 34 35 36 37 38 39 40 41 42 43 44 45 46 47 49 50 51 52 53 54 55 56 57 58 59 60 61 62 63 64 65 66 67 68]</text>
<polyline fill="none" stroke="#0058ad" points="1097,-.5 1097,-29.5 "/>
<text text-anchor="middle" x="1129" y="-11.3" font-family="Times,serif" font-size="14.00" fill="#0058ad">a 103 67</text>
<polyline fill="none" stroke="#0058ad" points="1161,-.5 1161,-29.5 "/>
<text text-anchor="middle" x="1219.5" y="-11.3" font-family="Times,serif" font-size="14.00" fill="#0058ad">r 104 [1 2 3 4 5 6]</text>
<polyline fill="none" stroke="#0058ad" points="1278,-.5 1278,-29.5 "/>
<text text-anchor="middle" x="1336.5" y="-11.3" font-family="Times,serif" font-size="14.00" fill="#0058ad">r 104 [1 2 3 4 5 6]</text>
</g>
<!-- T20522&#45;&gt;T20521 -->
<g id="edge1" class="edge">
<title>T20522:f1&#45;&gt;T20521:f1</title>
<path fill="none" stroke="#5b00c0" d="M1462.5,-81C1462.5,65.0703 1145.5613,-167.8316 1130.0858,-40.2658"/>
<polygon fill="#5b00c0" stroke="#5b00c0" points="1133.5641,-39.7843 1129.5,-30 1126.5754,-40.1832 1133.5641,-39.7843"/>
<text text-anchor="middle" x="1466" y="-51.8" font-family="Times,serif" font-size="14.00" fill="#5b00c0">rw</text>
</g>
<!-- T20521&#45;&gt;T20522 -->
<g id="edge2" class="edge">
<title>T20521:f2&#45;&gt;T20522:f0</title>
<path fill="none" stroke="#5b00c0" d="M1219.5,-30C1219.5,-38.4321 949.8986,-65.3037 895.1358,-77.4814"/>
<polygon fill="#5b00c0" stroke="#5b00c0" points="893.6928,-74.2822 885.5,-81 896.0939,-80.8575 893.6928,-74.2822"/>
<text text-anchor="middle" x="1118" y="-51.8" font-family="Times,serif" font-size="14.00" fill="#5b00c0">rw</text>
</g>
</g>
</svg>
