<?xml version="1.0" encoding="UTF-8" standalone="no"?>
<!DOCTYPE svg PUBLIC "-//W3C//DTD SVG 1.1//EN"
 "http://www.w3.org/Graphics/SVG/1.1/DTD/svg11.dtd">
<!-- Generated by graphviz version 2.40.1 (20161225.0304)
 -->
<!-- Title: a_graph Pages: 1 -->
<svg width="6210pt" height="200pt"
 viewBox="0.00 0.00 6209.50 200.00" xmlns="http://www.w3.org/2000/svg" xmlns:xlink="http://www.w3.org/1999/xlink">
<g id="graph0" class="graph" transform="scale(1 1) rotate(0) translate(4 196)">
<title>a_graph</title>
<polygon fill="#ffffff" stroke="transparent" points="-4,4 -4,-196 6205.5,-196 6205.5,4 -4,4"/>
<!-- T19507 -->
<g id="node1" class="node">
<title>T19507</title>
<polygon fill="none" stroke="#0058ad" points="175.5,-162.5 175.5,-191.5 3716.5,-191.5 3716.5,-162.5 175.5,-162.5"/>
<text text-anchor="middle" x="415" y="-173.3" font-family="Times,serif" font-size="14.00" fill="#0058ad">r 98 [5 6 8 9 7 11 12 10 13 14 15 16 17 18 19 20 21 22 23 24 25 26 27 29 28 30 31]</text>
<polyline fill="none" stroke="#0058ad" points="654.5,-162.5 654.5,-191.5 "/>
<text text-anchor="middle" x="1444.5" y="-173.3" font-family="Times,serif" font-size="14.00" fill="#0058ad">r 97 [1 2 3 4 5 6 7 8 9 10 11 13 14 15 12 16 17 18 19 20 25 21 22 23 24 26 27 28 29 31 32 33 30 34 35 36 37 46 47 48 49 50 51 52 53 55 56 54 57 58 59 60 61 62 63 64 65 66 67 68 69 70 71 72 73 74 75 76 77 78 79 80 81 82 83 84 85 86 87 88 89 90 91 92 93 94 95 96 97 98 99 100]</text>
<polyline fill="none" stroke="#0058ad" points="2234.5,-162.5 2234.5,-191.5 "/>
<text text-anchor="middle" x="2266.5" y="-173.3" font-family="Times,serif" font-size="14.00" fill="#0058ad">a 86 108</text>
<polyline fill="none" stroke="#0058ad" points="2298.5,-162.5 2298.5,-191.5 "/>
<text text-anchor="middle" x="3007.5" y="-173.3" font-family="Times,serif" font-size="14.00" fill="#0058ad">r 93 [1 2 3 4 5 6 7 8 9 11 10 12 13 14 15 16 17 18 19 20 21 22 24 23 25 26 27 28 29 30 31 33 32 34 35 36 37 38 39 40 41 42 43 44 45 46 47 48 49 50 51 52 55 56 57 58 60 59 61 62 63 64 65 66 67 53 54 71 73 74 75 72 76 77 78 79 80 81 82 83 84 85 86]</text>
</g>
<!-- T19505 -->
<g id="node2" class="node">
<title>T19505</title>
<polygon fill="none" stroke="#0058ad" points="0,-81.5 0,-110.5 536,-110.5 536,-81.5 0,-81.5"/>
<text text-anchor="middle" x="239.5" y="-92.3" font-family="Times,serif" font-size="14.00" fill="#0058ad">r 98 [5 6 8 9 7 11 12 10 13 14 15 16 17 18 19 20 21 22 23 24 25 26 27 29 28 30 31]</text>
<polyline fill="none" stroke="#0058ad" points="479,-81.5 479,-110.5 "/>
<text text-anchor="middle" x="507.5" y="-92.3" font-family="Times,serif" font-size="14.00" fill="#0058ad">a 98 32</text>
</g>
<!-- T19507&#45;&gt;T19505 -->
<g id="edge1" class="edge">
<title>T19507:f0&#45;&gt;T19505:f1</title>
<path fill="none" stroke="#5b00c0" d="M415,-162C415,-118.7265 493.368,-151.6481 506.2252,-120.8754"/>
<polygon fill="#5b00c0" stroke="#5b00c0" points="509.6759,-121.4614 508,-111 502.7863,-120.2232 509.6759,-121.4614"/>
<text text-anchor="middle" x="506.5" y="-132.8" font-family="Times,serif" font-size="14.00" fill="#5b00c0">rw</text>
</g>
<!-- T19509 -->
<g id="node3" class="node">
<title>T19509</title>
<polygon fill="none" stroke="#0058ad" points="1220.5,-.5 1220.5,-29.5 6201.5,-29.5 6201.5,-.5 1220.5,-.5"/>
<text text-anchor="middle" x="1249" y="-11.3" font-family="Times,serif" font-size="14.00" fill="#0058ad">a 98 33</text>
<polyline fill="none" stroke="#0058ad" points="1277.5,-.5 1277.5,-29.5 "/>
<text text-anchor="middle" x="2113.5" y="-11.3" font-family="Times,serif" font-size="14.00" fill="#0058ad">r 86 [1 2 4 5 6 10 12 13 14 15 16 17 18 19 20 21 22 23 24 25 26 27 28 29 31 30 32 33 34 35 36 37 39 40 42 44 46 47 50 51 52 53 54 55 56 57 58 59 60 61 62 63 64 65 66 68 69 70 67 72 74 75 76 77 78 79 80 81 82 83 84 86 87 88 89 90 91 92 93 94 95 96 97 98 99 100 101 102 103 104 105 106 107]</text>
<polyline fill="none" stroke="#0058ad" points="2949.5,-.5 2949.5,-29.5 "/>
<text text-anchor="middle" x="3785.5" y="-11.3" font-family="Times,serif" font-size="14.00" fill="#0058ad">r 86 [1 2 4 5 6 10 12 13 14 15 16 17 18 19 20 21 22 23 24 25 26 27 28 29 31 30 32 33 34 35 36 37 39 40 42 44 46 47 50 51 52 53 54 55 56 57 58 59 60 61 62 63 64 65 66 68 69 70 67 72 74 75 76 77 78 79 80 81 82 83 84 86 87 88 89 90 91 92 93 94 95 96 97 98 99 100 101 102 103 104 105 106 107]</text>
<polyline fill="none" stroke="#0058ad" points="4621.5,-.5 4621.5,-29.5 "/>
<text text-anchor="middle" x="5411.5" y="-11.3" font-family="Times,serif" font-size="14.00" fill="#0058ad">r 97 [1 2 3 4 5 6 7 8 9 10 11 13 14 15 12 16 17 18 19 20 25 21 22 23 24 26 27 28 29 31 32 33 30 34 35 36 37 46 47 48 49 50 51 52 53 55 56 54 57 58 59 60 61 62 63 64 65 66 67 68 69 70 71 72 73 74 75 76 77 78 79 80 81 82 83 84 85 86 87 88 89 90 91 92 93 94 95 96 97 98 99 100]</text>
</g>
<!-- T19505&#45;&gt;T19509 -->
<g id="edge2" class="edge">
<title>T19505:f1&#45;&gt;T19509:f0</title>
<path fill="none" stroke="#c02700" d="M536,-96C838.6862,-96 912.2347,-16.8091 1209.7743,-15.0304"/>
<polygon fill="#c02700" stroke="#c02700" points="1210.0105,-18.5298 1220,-15 1209.9896,-11.5299 1210.0105,-18.5298"/>
<text text-anchor="middle" x="923" y="-51.8" font-family="Times,serif" font-size="14.00" fill="#c02700">ww</text>
</g>
<!-- T19509&#45;&gt;T19507 -->
<g id="edge3" class="edge">
<title>T19509:f1&#45;&gt;T19507:f2</title>
<path fill="none" stroke="#5b00c0" d="M2113,-30C2113,-116.4492 2254.6263,-75.582 2266.244,-151.5873"/>
<polygon fill="#5b00c0" stroke="#5b00c0" points="2262.785,-152.2797 2267,-162 2269.7666,-151.7728 2262.785,-152.2797"/>
<text text-anchor="middle" x="2240.5" y="-92.3" font-family="Times,serif" font-size="14.00" fill="#5b00c0">rw</text>
</g>
</g>
</svg>
