<?xml version="1.0" encoding="UTF-8" standalone="no"?>
<!DOCTYPE svg PUBLIC "-//W3C//DTD SVG 1.1//EN"
 "http://www.w3.org/Graphics/SVG/1.1/DTD/svg11.dtd">
<!-- Generated by graphviz version 2.40.1 (20161225.0304)
 -->
<!-- Title: a_graph Pages: 1 -->
<svg width="2544pt" height="119pt"
 viewBox="0.00 0.00 2544.00 119.00" xmlns="http://www.w3.org/2000/svg" xmlns:xlink="http://www.w3.org/1999/xlink">
<g id="graph0" class="graph" transform="scale(1 1) rotate(0) translate(4 115)">
<title>a_graph</title>
<polygon fill="#ffffff" stroke="transparent" points="-4,4 -4,-115 2540,-115 2540,4 -4,4"/>
<!-- T16555 -->
<g id="node1" class="node">
<title>T16555</title>
<polygon fill="none" stroke="#0058ad" points="218,-81.5 218,-110.5 326,-110.5 326,-81.5 218,-81.5"/>
<text text-anchor="middle" x="243.5" y="-92.3" font-family="Times,serif" font-size="14.00" fill="#0058ad">r 85 []</text>
<polyline fill="none" stroke="#0058ad" points="269,-81.5 269,-110.5 "/>
<text text-anchor="middle" x="297.5" y="-92.3" font-family="Times,serif" font-size="14.00" fill="#0058ad">a 84 79</text>
</g>
<!-- T16559 -->
<g id="node2" class="node">
<title>T16559</title>
<polygon fill="none" stroke="#0058ad" points="0,-.5 0,-29.5 2536,-29.5 2536,-.5 0,-.5"/>
<text text-anchor="middle" x="25" y="-11.3" font-family="Times,serif" font-size="14.00" fill="#0058ad">a 85 1</text>
<polyline fill="none" stroke="#0058ad" points="50,-.5 50,-29.5 "/>
<text text-anchor="middle" x="659" y="-11.3" font-family="Times,serif" font-size="14.00" fill="#0058ad">r 84 [2 3 4 7 5 6 8 9 10 11 12 13 15 16 17 18 19 20 14 21 22 23 24 25 26 27 30 34 28 35 36 37 38 39 40 41 42 43 44 45 46 47 48 49 50 51 52 53 54 55 56 57 59 58 61 63 64 65 66 62 60 67 68 69 71 72 73 75 76 77 78]</text>
<polyline fill="none" stroke="#0058ad" points="1268,-.5 1268,-29.5 "/>
<text text-anchor="middle" x="1293" y="-11.3" font-family="Times,serif" font-size="14.00" fill="#0058ad">a 85 2</text>
<polyline fill="none" stroke="#0058ad" points="1318,-.5 1318,-29.5 "/>
<text text-anchor="middle" x="1927" y="-11.3" font-family="Times,serif" font-size="14.00" fill="#0058ad">r 84 [2 3 4 7 5 6 8 9 10 11 12 13 15 16 17 18 19 20 14 21 22 23 24 25 26 27 30 34 28 35 36 37 38 39 40 41 42 43 44 45 46 47 48 49 50 51 52 53 54 55 56 57 59 58 61 63 64 65 66 62 60 67 68 69 71 72 73 75 76 77 78]</text>
</g>
<!-- T16555&#45;&gt;T16559 -->
<g id="edge1" class="edge">
<title>T16555:f0&#45;&gt;T16559:f0</title>
<path fill="none" stroke="#5b00c0" d="M218,-96C176.2139,-96 47.4492,-78.4313 27.5847,-40.1741"/>
<polygon fill="#5b00c0" stroke="#5b00c0" points="30.8546,-38.8303 25,-30 24.0701,-40.5539 30.8546,-38.8303"/>
<text text-anchor="middle" x="62.5" y="-51.8" font-family="Times,serif" font-size="14.00" fill="#5b00c0">rw</text>
</g>
<!-- T16559&#45;&gt;T16555 -->
<g id="edge2" class="edge">
<title>T16559:f1&#45;&gt;T16555:f1</title>
<path fill="none" stroke="#5b00c0" d="M659,-30C659,-65.2886 400.5565,-92.3153 336.3553,-95.6526"/>
<polygon fill="#5b00c0" stroke="#5b00c0" points="335.877,-92.1666 326,-96 336.1118,-99.1626 335.877,-92.1666"/>
<text text-anchor="middle" x="640.5" y="-51.8" font-family="Times,serif" font-size="14.00" fill="#5b00c0">rw</text>
</g>
</g>
</svg>
