<?xml version="1.0" encoding="UTF-8" standalone="no"?>
<!DOCTYPE svg PUBLIC "-//W3C//DTD SVG 1.1//EN"
 "http://www.w3.org/Graphics/SVG/1.1/DTD/svg11.dtd">
<!-- Generated by graphviz version 2.40.1 (20161225.0304)
 -->
<!-- Title: a_graph Pages: 1 -->
<svg width="1499pt" height="119pt"
 viewBox="0.00 0.00 1499.00 119.00" xmlns="http://www.w3.org/2000/svg" xmlns:xlink="http://www.w3.org/1999/xlink">
<g id="graph0" class="graph" transform="scale(1 1) rotate(0) translate(4 115)">
<title>a_graph</title>
<polygon fill="#ffffff" stroke="transparent" points="-4,4 -4,-115 1495,-115 1495,4 -4,4"/>
<!-- T21491 -->
<g id="node1" class="node">
<title>T21491</title>
<polygon fill="none" stroke="#0058ad" points="13,-81.5 13,-110.5 1168,-110.5 1168,-81.5 13,-81.5"/>
<text text-anchor="middle" x="45" y="-92.3" font-family="Times,serif" font-size="14.00" fill="#0058ad">a 107 26</text>
<polyline fill="none" stroke="#0058ad" points="77,-81.5 77,-110.5 "/>
<text text-anchor="middle" x="112.5" y="-92.3" font-family="Times,serif" font-size="14.00" fill="#0058ad">a 102 114</text>
<polyline fill="none" stroke="#0058ad" points="148,-81.5 148,-110.5 "/>
<text text-anchor="middle" x="622.5" y="-92.3" font-family="Times,serif" font-size="14.00" fill="#0058ad">r 106 [1 2 3 4 5 7 8 10 11 9 12 14 15 16 17 18 19 20 21 22 23 24 25 26 27 28 29 30 31 32 33 34 35 36 37 38 39 40 41 43 44 45 46 47 48 50 51 52 53 54 55 56 57 58 59]</text>
<polyline fill="none" stroke="#0058ad" points="1097,-81.5 1097,-110.5 "/>
<text text-anchor="middle" x="1132.5" y="-92.3" font-family="Times,serif" font-size="14.00" fill="#0058ad">a 102 115</text>
</g>
<!-- T21493 -->
<g id="node2" class="node">
<title>T21493</title>
<polygon fill="none" stroke="#0058ad" points="0,-.5 0,-29.5 1491,-29.5 1491,-.5 0,-.5"/>
<text text-anchor="middle" x="32" y="-11.3" font-family="Times,serif" font-size="14.00" fill="#0058ad">a 100 62</text>
<polyline fill="none" stroke="#0058ad" points="64,-.5 64,-29.5 "/>
<text text-anchor="middle" x="262.5" y="-11.3" font-family="Times,serif" font-size="14.00" fill="#0058ad">r 107 [2 3 5 6 7 4 8 9 10 12 13 14 15 16 17 18 19 20 21 22 23 24 25]</text>
<polyline fill="none" stroke="#0058ad" points="461,-.5 461,-29.5 "/>
<text text-anchor="middle" x="493" y="-11.3" font-family="Times,serif" font-size="14.00" fill="#0058ad">a 106 60</text>
<polyline fill="none" stroke="#0058ad" points="525,-.5 525,-29.5 "/>
<text text-anchor="middle" x="1008" y="-11.3" font-family="Times,serif" font-size="14.00" fill="#0058ad">r 106 [1 2 3 4 5 7 8 10 11 9 12 14 15 16 17 18 19 20 21 22 23 24 25 26 27 28 29 30 31 32 33 34 35 36 37 38 39 40 41 43 44 45 46 47 48 50 51 52 53 54 55 56 57 58 59 60]</text>
</g>
<!-- T21491&#45;&gt;T21493 -->
<g id="edge1" class="edge">
<title>T21491:f2&#45;&gt;T21493:f2</title>
<path fill="none" stroke="#5b00c0" d="M622.5,-81C622.5,-22.8142 508.2422,-83.4518 493.96,-40.1189"/>
<polygon fill="#5b00c0" stroke="#5b00c0" points="497.3922,-39.3977 492.5,-30 490.464,-40.3974 497.3922,-39.3977"/>
<text text-anchor="middle" x="623" y="-51.8" font-family="Times,serif" font-size="14.00" fill="#5b00c0">rw</text>
</g>
<!-- T21493&#45;&gt;T21491 -->
<g id="edge2" class="edge">
<title>T21493:f1&#45;&gt;T21491:f0</title>
<path fill="none" stroke="#5b00c0" d="M262.5,-30C262.5,-125.8124 60.3795,7.8607 45.3783,-70.9196"/>
<polygon fill="#5b00c0" stroke="#5b00c0" points="41.8813,-70.7339 44.5,-81 48.8549,-71.3416 41.8813,-70.7339"/>
<text text-anchor="middle" x="267" y="-51.8" font-family="Times,serif" font-size="14.00" fill="#5b00c0">rw</text>
</g>
</g>
</svg>
