<?xml version="1.0" encoding="UTF-8" standalone="no"?>
<!DOCTYPE svg PUBLIC "-//W3C//DTD SVG 1.1//EN"
 "http://www.w3.org/Graphics/SVG/1.1/DTD/svg11.dtd">
<!-- Generated by graphviz version 2.40.1 (20161225.0304)
 -->
<!-- Title: a_graph Pages: 1 -->
<svg width="3396pt" height="119pt"
 viewBox="0.00 0.00 3395.50 119.00" xmlns="http://www.w3.org/2000/svg" xmlns:xlink="http://www.w3.org/1999/xlink">
<g id="graph0" class="graph" transform="scale(1 1) rotate(0) translate(4 115)">
<title>a_graph</title>
<polygon fill="#ffffff" stroke="transparent" points="-4,4 -4,-115 3391.5,-115 3391.5,4 -4,4"/>
<!-- T17397 -->
<g id="node1" class="node">
<title>T17397</title>
<polygon fill="none" stroke="#0058ad" points="2110.5,-81.5 2110.5,-110.5 3387.5,-110.5 3387.5,-81.5 2110.5,-81.5"/>
<text text-anchor="middle" x="2139" y="-92.3" font-family="Times,serif" font-size="14.00" fill="#0058ad">a 89 95</text>
<polyline fill="none" stroke="#0058ad" points="2167.5,-81.5 2167.5,-110.5 "/>
<text text-anchor="middle" x="2777.5" y="-92.3" font-family="Times,serif" font-size="14.00" fill="#0058ad">r 88 [18 19 17 21 22 23 20 24 25 26 28 29 30 31 32 33 34 35 36 37 38 40 41 42 43 44 45 46 48 47 50 52 53 54 55 56 57 58 59 60 61 62 63 64 65 66 67 68 69 70 72 73 74 75 76 77 78 79 80 81 82 83 84 86 87 88 89 90]</text>
</g>
<!-- T17401 -->
<g id="node2" class="node">
<title>T17401</title>
<polygon fill="none" stroke="#0058ad" points="0,-.5 0,-29.5 2842,-29.5 2842,-.5 0,-.5"/>
<text text-anchor="middle" x="610" y="-11.3" font-family="Times,serif" font-size="14.00" fill="#0058ad">r 88 [18 19 17 21 22 23 20 24 25 26 28 29 30 31 32 33 34 35 36 37 38 40 41 42 43 44 45 46 48 47 50 52 53 54 55 56 57 58 59 60 61 62 63 64 65 66 67 68 69 70 72 73 74 75 76 77 78 79 80 81 82 83 84 86 87 88 89 90]</text>
<polyline fill="none" stroke="#0058ad" points="1220,-.5 1220,-29.5 "/>
<text text-anchor="middle" x="1248.5" y="-11.3" font-family="Times,serif" font-size="14.00" fill="#0058ad">a 86 27</text>
<polyline fill="none" stroke="#0058ad" points="1277,-.5 1277,-29.5 "/>
<text text-anchor="middle" x="2031" y="-11.3" font-family="Times,serif" font-size="14.00" fill="#0058ad">r 89 [1 4 6 7 8 10 11 9 13 12 14 15 17 16 18 19 20 21 22 23 24 25 28 29 26 27 30 31 33 34 35 36 32 39 37 38 41 40 42 43 44 45 46 47 48 49 50 51 52 53 54 55 56 57 58 59 60 61 62 63 64 65 66 67 68 70 71 72 73 69 77 78 79 80 83 85 86 87 88 81 82 89 90 91 92 93 94]</text>
<polyline fill="none" stroke="#0058ad" points="2785,-.5 2785,-29.5 "/>
<text text-anchor="middle" x="2813.5" y="-11.3" font-family="Times,serif" font-size="14.00" fill="#0058ad">a 88 91</text>
</g>
<!-- T17397&#45;&gt;T17401 -->
<g id="edge1" class="edge">
<title>T17397:f1&#45;&gt;T17401:f3</title>
<path fill="none" stroke="#5b00c0" d="M2778,-81C2778,-57.1568 2804.5869,-57.1196 2812.0645,-39.9718"/>
<polygon fill="#5b00c0" stroke="#5b00c0" points="2815.5304,-40.4837 2814,-30 2808.6586,-39.1499 2815.5304,-40.4837"/>
<text text-anchor="middle" x="2813.5" y="-51.8" font-family="Times,serif" font-size="14.00" fill="#5b00c0">rw</text>
</g>
<!-- T17401&#45;&gt;T17397 -->
<g id="edge2" class="edge">
<title>T17401:f2&#45;&gt;T17397:f0</title>
<path fill="none" stroke="#5b00c0" d="M2031,-30C2031,-72.2669 2059.3759,-92.7673 2099.7718,-95.6452"/>
<polygon fill="#5b00c0" stroke="#5b00c0" points="2099.8847,-99.1512 2110,-96 2100.1274,-92.1554 2099.8847,-99.1512"/>
<text text-anchor="middle" x="2046.5" y="-51.8" font-family="Times,serif" font-size="14.00" fill="#5b00c0">rw</text>
</g>
</g>
</svg>
