<?xml version="1.0" encoding="UTF-8" standalone="no"?>
<!DOCTYPE svg PUBLIC "-//W3C//DTD SVG 1.1//EN"
 "http://www.w3.org/Graphics/SVG/1.1/DTD/svg11.dtd">
<!-- Generated by graphviz version 2.40.1 (20161225.0304)
 -->
<!-- Title: a_graph Pages: 1 -->
<svg width="1769pt" height="200pt"
 viewBox="0.00 0.00 1769.00 200.00" xmlns="http://www.w3.org/2000/svg" xmlns:xlink="http://www.w3.org/1999/xlink">
<g id="graph0" class="graph" transform="scale(1 1) rotate(0) translate(4 196)">
<title>a_graph</title>
<polygon fill="#ffffff" stroke="transparent" points="-4,4 -4,-196 1765,-196 1765,4 -4,4"/>
<!-- T18369 -->
<g id="node1" class="node">
<title>T18369</title>
<polygon fill="none" stroke="#0058ad" points="620.5,-162.5 620.5,-191.5 748.5,-191.5 748.5,-162.5 620.5,-162.5"/>
<text text-anchor="middle" x="652.5" y="-173.3" font-family="Times,serif" font-size="14.00" fill="#0058ad">a 91 104</text>
<polyline fill="none" stroke="#0058ad" points="684.5,-162.5 684.5,-191.5 "/>
<text text-anchor="middle" x="716.5" y="-173.3" font-family="Times,serif" font-size="14.00" fill="#0058ad">a 91 105</text>
</g>
<!-- T18371 -->
<g id="node2" class="node">
<title>T18371</title>
<polygon fill="none" stroke="#0058ad" points="686,-81.5 686,-110.5 897,-110.5 897,-81.5 686,-81.5"/>
<text text-anchor="middle" x="791.5" y="-92.3" font-family="Times,serif" font-size="14.00" fill="#0058ad">r 94 [1 2 3 4 5 6 7 8 9 10 11 12 13]</text>
</g>
<!-- T18369&#45;&gt;T18371 -->
<g id="edge1" class="edge">
<title>T18369&#45;&gt;T18371</title>
<path fill="none" stroke="#0050c0" d="M704.1254,-162.1434C720.8676,-149.4694 745.1283,-131.1038 763.8394,-116.9393"/>
<polygon fill="#0050c0" stroke="#0050c0" points="766.1384,-119.5888 771.999,-110.7625 761.9133,-114.0076 766.1384,-119.5888"/>
<text text-anchor="middle" x="752" y="-132.8" font-family="Times,serif" font-size="14.00" fill="#0050c0">rt</text>
</g>
<!-- T18373 -->
<g id="node3" class="node">
<title>T18373</title>
<polygon fill="none" stroke="#0058ad" points="0,-.5 0,-29.5 1761,-29.5 1761,-.5 0,-.5"/>
<text text-anchor="middle" x="28.5" y="-11.3" font-family="Times,serif" font-size="14.00" fill="#0058ad">a 94 14</text>
<polyline fill="none" stroke="#0058ad" points="57,-.5 57,-29.5 "/>
<text text-anchor="middle" x="852" y="-11.3" font-family="Times,serif" font-size="14.00" fill="#0058ad">r 91 [1 2 3 4 6 7 8 9 10 11 12 13 14 15 16 17 18 19 20 22 23 24 25 26 27 28 29 30 31 32 34 35 36 37 38 39 40 41 42 43 45 44 46 49 47 48 51 50 56 58 59 60 61 62 63 64 65 67 68 66 71 69 70 73 72 75 77 76 78 79 80 81 84 85 86 87 88 89 90 91 93 94 95 96 97 98 99 100 101 102 103]</text>
<polyline fill="none" stroke="#0058ad" points="1647,-.5 1647,-29.5 "/>
<text text-anchor="middle" x="1675.5" y="-11.3" font-family="Times,serif" font-size="14.00" fill="#0058ad">a 94 15</text>
<polyline fill="none" stroke="#0058ad" points="1704,-.5 1704,-29.5 "/>
<text text-anchor="middle" x="1732.5" y="-11.3" font-family="Times,serif" font-size="14.00" fill="#0058ad">a 86 64</text>
</g>
<!-- T18371&#45;&gt;T18373 -->
<g id="edge2" class="edge">
<title>T18371:f0&#45;&gt;T18373:f0</title>
<path fill="none" stroke="#5b00c0" d="M690.9238,-81.4968C689.4396,-81.3269 687.9643,-81.1612 686.5,-81 617.0265,-73.3533 82.2286,-100.5691 32.2439,-39.6433"/>
<polygon fill="#5b00c0" stroke="#5b00c0" points="35.382,-38.0553 28.5,-30 28.8565,-40.5888 35.382,-38.0553"/>
<text text-anchor="middle" x="98" y="-51.8" font-family="Times,serif" font-size="14.00" fill="#5b00c0">rw</text>
</g>
<!-- T18373&#45;&gt;T18369 -->
<g id="edge3" class="edge">
<title>T18373:f1&#45;&gt;T18369:f0</title>
<path fill="none" stroke="#5b00c0" d="M851.5,-30C851.5,-117.0045 719.5439,-15.3054 662.5,-81 641.0402,-105.7142 650.1664,-122.2446 652.1535,-151.8878"/>
<polygon fill="#5b00c0" stroke="#5b00c0" points="648.6595,-152.1258 652.5,-162 655.6554,-151.886 648.6595,-152.1258"/>
<text text-anchor="middle" x="670" y="-92.3" font-family="Times,serif" font-size="14.00" fill="#5b00c0">rw</text>
</g>
</g>
</svg>
