<?xml version="1.0" encoding="UTF-8" standalone="no"?>
<!DOCTYPE svg PUBLIC "-//W3C//DTD SVG 1.1//EN"
 "http://www.w3.org/Graphics/SVG/1.1/DTD/svg11.dtd">
<!-- Generated by graphviz version 2.40.1 (20161225.0304)
 -->
<!-- Title: a_graph Pages: 1 -->
<svg width="1848pt" height="119pt"
 viewBox="0.00 0.00 1848.00 119.00" xmlns="http://www.w3.org/2000/svg" xmlns:xlink="http://www.w3.org/1999/xlink">
<g id="graph0" class="graph" transform="scale(1 1) rotate(0) translate(4 115)">
<title>a_graph</title>
<polygon fill="#ffffff" stroke="transparent" points="-4,4 -4,-115 1844,-115 1844,4 -4,4"/>
<!-- T35895 -->
<g id="node1" class="node">
<title>T35895</title>
<polygon fill="none" stroke="#0058ad" points="410.5,-81.5 410.5,-110.5 577.5,-110.5 577.5,-81.5 410.5,-81.5"/>
<text text-anchor="middle" x="446" y="-92.3" font-family="Times,serif" font-size="14.00" fill="#0058ad">a 176 107</text>
<polyline fill="none" stroke="#0058ad" points="481.5,-81.5 481.5,-110.5 "/>
<text text-anchor="middle" x="529.5" y="-92.3" font-family="Times,serif" font-size="14.00" fill="#0058ad">r 178 [1 2 3 4]</text>
</g>
<!-- T35897 -->
<g id="node2" class="node">
<title>T35897</title>
<polygon fill="none" stroke="#0058ad" points="0,-.5 0,-29.5 1840,-29.5 1840,-.5 0,-.5"/>
<text text-anchor="middle" x="28.5" y="-11.3" font-family="Times,serif" font-size="14.00" fill="#0058ad">a 178 6</text>
<polyline fill="none" stroke="#0058ad" points="57,-.5 57,-29.5 "/>
<text text-anchor="middle" x="948.5" y="-11.3" font-family="Times,serif" font-size="14.00" fill="#0058ad">r 176 [1 2 3 6 4 5 7 8 9 10 11 15 14 16 17 18 12 13 20 19 22 21 23 24 25 26 27 28 29 30 31 32 33 35 36 37 38 39 40 41 42 43 44 45 46 47 50 51 48 49 52 53 55 56 57 58 60 59 61 62 63 66 64 65 67 68 69 70 71 72 75 76 77 80 78 79 81 82 83 84 85 86 87 88 89 90 91 92 93 94 96 97 98 99 100 101 103 102 105 104 106]</text>
</g>
<!-- T35895&#45;&gt;T35897 -->
<g id="edge1" class="edge">
<title>T35895:f1&#45;&gt;T35897:f0</title>
<path fill="none" stroke="#5b00c0" d="M530,-81C530,-53.2516 503.5215,-56.16 477,-48 455.1433,-41.2752 96.5798,-52.7142 36.5065,-35.495"/>
<polygon fill="#5b00c0" stroke="#5b00c0" points="38.299,-32.4862 28,-30 34.5007,-38.3661 38.299,-32.4862"/>
<text text-anchor="middle" x="529.5" y="-51.8" font-family="Times,serif" font-size="14.00" fill="#5b00c0">rw</text>
</g>
<!-- T35897&#45;&gt;T35895 -->
<g id="edge2" class="edge">
<title>T35897:f1&#45;&gt;T35895:f0</title>
<path fill="none" stroke="#5b00c0" d="M949,-30C949,-57.2961 480.0667,-31.9333 458,-48 448.4391,-54.9612 446.4776,-61.3607 446.0883,-70.8439"/>
<polygon fill="#5b00c0" stroke="#5b00c0" points="442.5871,-70.9699 446,-81 449.5869,-71.0308 442.5871,-70.9699"/>
<text text-anchor="middle" x="465.5" y="-51.8" font-family="Times,serif" font-size="14.00" fill="#5b00c0">rw</text>
</g>
</g>
</svg>
