<?xml version="1.0" encoding="UTF-8" standalone="no"?>
<!DOCTYPE svg PUBLIC "-//W3C//DTD SVG 1.1//EN"
 "http://www.w3.org/Graphics/SVG/1.1/DTD/svg11.dtd">
<!-- Generated by graphviz version 2.40.1 (20161225.0304)
 -->
<!-- Title: a_graph Pages: 1 -->
<svg width="3339pt" height="119pt"
 viewBox="0.00 0.00 3338.50 119.00" xmlns="http://www.w3.org/2000/svg" xmlns:xlink="http://www.w3.org/1999/xlink">
<g id="graph0" class="graph" transform="scale(1 1) rotate(0) translate(4 115)">
<title>a_graph</title>
<polygon fill="#ffffff" stroke="transparent" points="-4,4 -4,-115 3334.5,-115 3334.5,4 -4,4"/>
<!-- T19411 -->
<g id="node1" class="node">
<title>T19411</title>
<polygon fill="none" stroke="#0058ad" points="0,-81.5 0,-110.5 1453,-110.5 1453,-81.5 0,-81.5"/>
<text text-anchor="middle" x="666" y="-92.3" font-family="Times,serif" font-size="14.00" fill="#0058ad">r 99 [1 3 4 2 6 7 5 8 9 10 12 14 15 16 17 18 19 20 21 22 23 26 24 27 25 28 29 31 33 34 30 36 35 37 38 39 40 41 42 43 44 47 45 46 49 50 48 51 52 53 54 55 56 57 58 59 60 61 62 63 64 66 65 68 69 70 71 72 73 74 75 76 77 78 79 80 82 81]</text>
<polyline fill="none" stroke="#0058ad" points="1332,-81.5 1332,-110.5 "/>
<text text-anchor="middle" x="1364" y="-92.3" font-family="Times,serif" font-size="14.00" fill="#0058ad">a 100 80</text>
<polyline fill="none" stroke="#0058ad" points="1396,-81.5 1396,-110.5 "/>
<text text-anchor="middle" x="1424.5" y="-92.3" font-family="Times,serif" font-size="14.00" fill="#0058ad">a 98 37</text>
</g>
<!-- T19413 -->
<g id="node2" class="node">
<title>T19413</title>
<polygon fill="none" stroke="#0058ad" points="628.5,-.5 628.5,-29.5 3330.5,-29.5 3330.5,-.5 628.5,-.5"/>
<text text-anchor="middle" x="657" y="-11.3" font-family="Times,serif" font-size="14.00" fill="#0058ad">a 99 84</text>
<polyline fill="none" stroke="#0058ad" points="685.5,-.5 685.5,-29.5 "/>
<text text-anchor="middle" x="714" y="-11.3" font-family="Times,serif" font-size="14.00" fill="#0058ad">a 99 85</text>
<polyline fill="none" stroke="#0058ad" points="742.5,-.5 742.5,-29.5 "/>
<text text-anchor="middle" x="1389.5" y="-11.3" font-family="Times,serif" font-size="14.00" fill="#0058ad">r 100 [1 2 3 4 6 8 5 10 9 11 12 13 14 15 16 19 18 21 22 20 23 25 17 26 27 29 24 31 28 32 33 34 36 37 38 39 40 41 42 43 44 45 46 47 49 50 51 52 53 48 54 56 58 59 62 57 63 64 66 67 65 69 70 68 71 72 73 74 75 76 77 78 79 81 82]</text>
<polyline fill="none" stroke="#0058ad" points="2036.5,-.5 2036.5,-29.5 "/>
<text text-anchor="middle" x="2683.5" y="-11.3" font-family="Times,serif" font-size="14.00" fill="#0058ad">r 100 [1 2 3 4 6 8 5 10 9 11 12 13 14 15 16 19 18 21 22 20 23 25 17 26 27 29 24 31 28 32 33 34 36 37 38 39 40 41 42 43 44 45 46 47 49 50 51 52 53 48 54 56 58 59 62 57 63 64 66 67 65 69 70 68 71 72 73 74 75 76 77 78 79 81 82]</text>
</g>
<!-- T19411&#45;&gt;T19413 -->
<g id="edge1" class="edge">
<title>T19411:f0&#45;&gt;T19413:f0</title>
<path fill="none" stroke="#5b00c0" d="M665.5,-81C665.5,-61.7593 659.2109,-55.1323 657.1473,-40.0305"/>
<polygon fill="#5b00c0" stroke="#5b00c0" points="660.6368,-39.7538 656.5,-30 653.6513,-40.2047 660.6368,-39.7538"/>
<text text-anchor="middle" x="671" y="-51.8" font-family="Times,serif" font-size="14.00" fill="#5b00c0">rw</text>
</g>
<!-- T19413&#45;&gt;T19411 -->
<g id="edge2" class="edge">
<title>T19413:f2&#45;&gt;T19411:f1</title>
<path fill="none" stroke="#5b00c0" d="M1389.5,-30C1389.5,-51.2992 1371.7021,-54.9924 1366.1403,-70.7897"/>
<polygon fill="#5b00c0" stroke="#5b00c0" points="1362.6306,-70.5714 1364.5,-81 1369.542,-71.6818 1362.6306,-70.5714"/>
<text text-anchor="middle" x="1390" y="-51.8" font-family="Times,serif" font-size="14.00" fill="#5b00c0">rw</text>
</g>
</g>
</svg>
