<?xml version="1.0" encoding="UTF-8" standalone="no"?>
<!DOCTYPE svg PUBLIC "-//W3C//DTD SVG 1.1//EN"
 "http://www.w3.org/Graphics/SVG/1.1/DTD/svg11.dtd">
<!-- Generated by graphviz version 2.40.1 (20161225.0304)
 -->
<!-- Title: a_graph Pages: 1 -->
<svg width="1792pt" height="119pt"
 viewBox="0.00 0.00 1792.00 119.00" xmlns="http://www.w3.org/2000/svg" xmlns:xlink="http://www.w3.org/1999/xlink">
<g id="graph0" class="graph" transform="scale(1 1) rotate(0) translate(4 115)">
<title>a_graph</title>
<polygon fill="#ffffff" stroke="transparent" points="-4,4 -4,-115 1788,-115 1788,4 -4,4"/>
<!-- T6197 -->
<g id="node1" class="node">
<title>T6197</title>
<polygon fill="none" stroke="#0058ad" points="0,-81.5 0,-110.5 1361,-110.5 1361,-81.5 0,-81.5"/>
<text text-anchor="middle" x="652" y="-92.3" font-family="Times,serif" font-size="14.00" fill="#0058ad">r 25 [1 2 3 4 5 7 8 9 10 11 12 13 14 15 16 17 19 20 21 22 23 24 25 26 27 28 29 30 31 32 33 34 35 36 39 40 41 42 43 44 45 46 48 47 49 50 53 54 55 56 57 58 59 60 61 62 63 64 65 66 67 69 68 70 71 73 74 75 76 77 78 79 80 81 82 83]</text>
<polyline fill="none" stroke="#0058ad" points="1304,-81.5 1304,-110.5 "/>
<text text-anchor="middle" x="1332.5" y="-92.3" font-family="Times,serif" font-size="14.00" fill="#0058ad">a 35 37</text>
</g>
<!-- T6199 -->
<g id="node2" class="node">
<title>T6199</title>
<polygon fill="none" stroke="#0058ad" points="271,-.5 271,-29.5 1784,-29.5 1784,-.5 271,-.5"/>
<text text-anchor="middle" x="635" y="-11.3" font-family="Times,serif" font-size="14.00" fill="#0058ad">r 35 [1 2 3 4 7 5 6 9 11 10 8 12 13 17 15 16 18 19 20 21 22 23 24 25 26 27 28 29 31 32 33 34 35 36 38 39 40 41 42 43 44 45 46]</text>
<polyline fill="none" stroke="#0058ad" points="999,-.5 999,-29.5 "/>
<text text-anchor="middle" x="1027.5" y="-11.3" font-family="Times,serif" font-size="14.00" fill="#0058ad">a 25 84</text>
<polyline fill="none" stroke="#0058ad" points="1056,-.5 1056,-29.5 "/>
<text text-anchor="middle" x="1420" y="-11.3" font-family="Times,serif" font-size="14.00" fill="#0058ad">r 35 [1 2 3 4 7 5 6 9 11 10 8 12 13 17 15 16 18 19 20 21 22 23 24 25 26 27 28 29 31 32 33 34 35 36 38 39 40 41 42 43 44 45 46]</text>
</g>
<!-- T6197&#45;&gt;T6199 -->
<g id="edge1" class="edge">
<title>T6197:f0&#45;&gt;T6199:f1</title>
<path fill="none" stroke="#5b00c0" d="M651.5,-81C651.5,84.0182 1011.5173,-186.5501 1026.9868,-40.2485"/>
<polygon fill="#5b00c0" stroke="#5b00c0" points="1030.4954,-40.1626 1027.5,-30 1023.5042,-39.8124 1030.4954,-40.1626"/>
<text text-anchor="middle" x="1034" y="-51.8" font-family="Times,serif" font-size="14.00" fill="#5b00c0">rw</text>
</g>
<!-- T6199&#45;&gt;T6197 -->
<g id="edge2" class="edge">
<title>T6199:f0&#45;&gt;T6197:f1</title>
<path fill="none" stroke="#5b00c0" d="M634.5,-30C634.5,-52.8552 1022.7163,-46.1935 1045.5,-48 1169.9944,-57.8711 1323.8276,41.7105 1332.1472,-70.9851"/>
<polygon fill="#5b00c0" stroke="#5b00c0" points="1328.65,-71.1294 1332.5,-81 1335.6457,-70.883 1328.65,-71.1294"/>
<text text-anchor="middle" x="1338" y="-51.8" font-family="Times,serif" font-size="14.00" fill="#5b00c0">rw</text>
</g>
</g>
</svg>
