<?xml version="1.0" encoding="UTF-8" standalone="no"?>
<!DOCTYPE svg PUBLIC "-//W3C//DTD SVG 1.1//EN"
 "http://www.w3.org/Graphics/SVG/1.1/DTD/svg11.dtd">
<!-- Generated by graphviz version 2.40.1 (20161225.0304)
 -->
<!-- Title: a_graph Pages: 1 -->
<svg width="4661pt" height="119pt"
 viewBox="0.00 0.00 4661.00 119.00" xmlns="http://www.w3.org/2000/svg" xmlns:xlink="http://www.w3.org/1999/xlink">
<g id="graph0" class="graph" transform="scale(1 1) rotate(0) translate(4 115)">
<title>a_graph</title>
<polygon fill="#ffffff" stroke="transparent" points="-4,4 -4,-115 4657,-115 4657,4 -4,4"/>
<!-- T21003 -->
<g id="node1" class="node">
<title>T21003</title>
<polygon fill="none" stroke="#0058ad" points="927,-81.5 927,-110.5 4653,-110.5 4653,-81.5 927,-81.5"/>
<text text-anchor="middle" x="962.5" y="-92.3" font-family="Times,serif" font-size="14.00" fill="#0058ad">a 106 112</text>
<polyline fill="none" stroke="#0058ad" points="998,-81.5 998,-110.5 "/>
<text text-anchor="middle" x="1703.5" y="-92.3" font-family="Times,serif" font-size="14.00" fill="#0058ad">r 66 [1 2 3 4 6 7 8 9 10 11 12 13 14 16 17 18 20 21 22 23 24 25 26 27 28 29 30 31 32 33 34 35 36 37 38 39 40 41 60 61 62 63 64 65 66 67 68 69 70 71 72 73 74 75 76 77 78 79 80 81 82 83 84 85 86 87 88 89 90 91 92 93 94 95 96 97 98 99 100 101 102]</text>
<polyline fill="none" stroke="#0058ad" points="2409,-81.5 2409,-110.5 "/>
<text text-anchor="middle" x="2590" y="-92.3" font-family="Times,serif" font-size="14.00" fill="#0058ad">r 108 [2 3 4 5 6 7 8 9 10 11 12 13 14 15 16 18 17 19 20 22 21]</text>
<polyline fill="none" stroke="#0058ad" points="2771,-81.5 2771,-110.5 "/>
<text text-anchor="middle" x="3712" y="-92.3" font-family="Times,serif" font-size="14.00" fill="#0058ad">r 106 [1 3 4 5 6 7 8 10 2 13 14 15 16 20 17 18 19 21 22 23 25 24 26 27 29 32 33 34 30 31 28 35 36 41 42 43 44 45 46 37 49 50 52 56 53 54 55 57 58 59 60 61 62 63 51 64 66 67 65 68 70 71 73 74 75 69 76 77 78 72 79 81 82 80 84 85 86 87 88 91 83 92 89 90 94 93 95 96 97 99 100 98 101 102 104 105 106 103 107 108 110 111 109 112]</text>
</g>
<!-- T21001 -->
<g id="node2" class="node">
<title>T21001</title>
<polygon fill="none" stroke="#0058ad" points="0,-.5 0,-29.5 2634,-29.5 2634,-.5 0,-.5"/>
<text text-anchor="middle" x="929" y="-11.3" font-family="Times,serif" font-size="14.00" fill="#0058ad">r 106 [1 3 4 5 6 7 8 10 2 13 14 15 16 20 17 18 19 21 22 23 25 24 26 27 29 32 33 34 30 31 28 35 36 41 42 43 44 45 46 37 49 50 52 56 53 54 55 57 58 59 60 61 62 63 51 64 66 67 65 68 70 71 73 74 75 69 76 77 78 72 79 81 82 80 84 85 86 87 88 91 83 92 89 90 94 93 95 96 97 99 100 98 101 102 104 105 106 103 107 108 110 111 109]</text>
<polyline fill="none" stroke="#0058ad" points="1858,-.5 1858,-29.5 "/>
<text text-anchor="middle" x="2036" y="-11.3" font-family="Times,serif" font-size="14.00" fill="#0058ad">r 105 [1 2 4 3 5 6 7 8 9 10 11 12 13 14 15 16 17 18 19 20 21]</text>
<polyline fill="none" stroke="#0058ad" points="2214,-.5 2214,-29.5 "/>
<text text-anchor="middle" x="2392" y="-11.3" font-family="Times,serif" font-size="14.00" fill="#0058ad">r 107 [1 3 4 2 5 6 7 8 9 10 12 11 14 13 15 16 17 18 19 20 21]</text>
<polyline fill="none" stroke="#0058ad" points="2570,-.5 2570,-29.5 "/>
<text text-anchor="middle" x="2602" y="-11.3" font-family="Times,serif" font-size="14.00" fill="#0058ad">a 108 23</text>
</g>
<!-- T21003&#45;&gt;T21001 -->
<g id="edge1" class="edge">
<title>T21003:f2&#45;&gt;T21001:f3</title>
<path fill="none" stroke="#5b00c0" d="M2590,-81C2590,-61.5346 2598.3855,-55.2464 2601.137,-40.1048"/>
<polygon fill="#5b00c0" stroke="#5b00c0" points="2604.6362,-40.2616 2602,-30 2597.6616,-39.6659 2604.6362,-40.2616"/>
<text text-anchor="middle" x="2605.5" y="-51.8" font-family="Times,serif" font-size="14.00" fill="#5b00c0">rw</text>
</g>
<!-- T21001&#45;&gt;T21003 -->
<g id="edge2" class="edge">
<title>T21001:f0&#45;&gt;T21003:f0</title>
<path fill="none" stroke="#5b00c0" d="M929,-30C929,-52.9904 952.9302,-54.2306 960.0345,-70.7639"/>
<polygon fill="#5b00c0" stroke="#5b00c0" points="956.677,-71.8394 962,-81 963.5514,-70.5194 956.677,-71.8394"/>
<text text-anchor="middle" x="961.5" y="-51.8" font-family="Times,serif" font-size="14.00" fill="#5b00c0">rw</text>
</g>
</g>
</svg>
