<?xml version="1.0" encoding="UTF-8" standalone="no"?>
<!DOCTYPE svg PUBLIC "-//W3C//DTD SVG 1.1//EN"
 "http://www.w3.org/Graphics/SVG/1.1/DTD/svg11.dtd">
<!-- Generated by graphviz version 2.40.1 (20161225.0304)
 -->
<!-- Title: a_graph Pages: 1 -->
<svg width="2931pt" height="119pt"
 viewBox="0.00 0.00 2931.00 119.00" xmlns="http://www.w3.org/2000/svg" xmlns:xlink="http://www.w3.org/1999/xlink">
<g id="graph0" class="graph" transform="scale(1 1) rotate(0) translate(4 115)">
<title>a_graph</title>
<polygon fill="#ffffff" stroke="transparent" points="-4,4 -4,-115 2927,-115 2927,4 -4,4"/>
<!-- T13153 -->
<g id="node1" class="node">
<title>T13153</title>
<polygon fill="none" stroke="#0058ad" points="0,-81.5 0,-110.5 2923,-110.5 2923,-81.5 0,-81.5"/>
<text text-anchor="middle" x="545.5" y="-92.3" font-family="Times,serif" font-size="14.00" fill="#0058ad">r 70 [1 2 3 4 5 6 7 8 9 10 11 12 13 14 15 16 17 18 19 20 22 21 23 24 25 27 26 29 30 31 32 33 34 37 36 38 39 40 41 42 43 44 45 46 47 48 50 51 53 54 55 57 58 60 56 62 63 64 67 68 69 72 70 71]</text>
<polyline fill="none" stroke="#0058ad" points="1091,-81.5 1091,-110.5 "/>
<text text-anchor="middle" x="1950" y="-92.3" font-family="Times,serif" font-size="14.00" fill="#0058ad">r 67 [1 2 3 4 5 6 7 8 9 10 12 13 14 15 16 18 19 20 21 22 23 24 26 27 28 30 31 32 29 34 35 36 37 38 39 33 40 41 42 43 44 45 46 47 48 49 50 51 52 53 56 57 54 55 58 59 60 61 62 63 64 65 66 67 68 69 70 71 72 73 75 76 77 74 78 79 80 81 82 83 85 86 88 89 91 90 92 93 94 95 96 98 100 101 102 103 104 105]</text>
<polyline fill="none" stroke="#0058ad" points="2809,-81.5 2809,-110.5 "/>
<text text-anchor="middle" x="2837.5" y="-92.3" font-family="Times,serif" font-size="14.00" fill="#0058ad">a 70 75</text>
<polyline fill="none" stroke="#0058ad" points="2866,-81.5 2866,-110.5 "/>
<text text-anchor="middle" x="2894.5" y="-92.3" font-family="Times,serif" font-size="14.00" fill="#0058ad">a 70 76</text>
</g>
<!-- T13155 -->
<g id="node2" class="node">
<title>T13155</title>
<polygon fill="none" stroke="#0058ad" points="1665,-.5 1665,-29.5 2820,-29.5 2820,-.5 1665,-.5"/>
<text text-anchor="middle" x="2210.5" y="-11.3" font-family="Times,serif" font-size="14.00" fill="#0058ad">r 70 [1 2 3 4 5 6 7 8 9 10 11 12 13 14 15 16 17 18 19 20 22 21 23 24 25 27 26 29 30 31 32 33 34 37 36 38 39 40 41 42 43 44 45 46 47 48 50 51 53 54 55 57 58 60 56 62 63 64 67 68 69 72 70 71]</text>
<polyline fill="none" stroke="#0058ad" points="2756,-.5 2756,-29.5 "/>
<text text-anchor="middle" x="2788" y="-11.3" font-family="Times,serif" font-size="14.00" fill="#0058ad">a 67 106</text>
</g>
<!-- T13153&#45;&gt;T13155 -->
<g id="edge1" class="edge">
<title>T13153:f1&#45;&gt;T13155:f1</title>
<path fill="none" stroke="#5b00c0" d="M1950.5,-81C1950.5,-59.1139 2688.5587,-53.9289 2779.3745,-34.0978"/>
<polygon fill="#5b00c0" stroke="#5b00c0" points="2780.8113,-37.2894 2788.5,-30 2777.9438,-30.9037 2780.8113,-37.2894"/>
<text text-anchor="middle" x="2571" y="-51.8" font-family="Times,serif" font-size="14.00" fill="#5b00c0">rw</text>
</g>
<!-- T13155&#45;&gt;T13153 -->
<g id="edge2" class="edge">
<title>T13155:f0&#45;&gt;T13153:f2</title>
<path fill="none" stroke="#5b00c0" d="M2210.5,-30C2210.5,-50.6908 2561.8902,-46.1708 2582.5,-48 2692.7737,-57.7873 2828.7036,27.6662 2837.0916,-70.8795"/>
<polygon fill="#5b00c0" stroke="#5b00c0" points="2833.5995,-71.1493 2837.5,-81 2840.5938,-70.867 2833.5995,-71.1493"/>
<text text-anchor="middle" x="2843" y="-51.8" font-family="Times,serif" font-size="14.00" fill="#5b00c0">rw</text>
</g>
</g>
</svg>
