<?xml version="1.0" encoding="UTF-8" standalone="no"?>
<!DOCTYPE svg PUBLIC "-//W3C//DTD SVG 1.1//EN"
 "http://www.w3.org/Graphics/SVG/1.1/DTD/svg11.dtd">
<!-- Generated by graphviz version 2.40.1 (20161225.0304)
 -->
<!-- Title: a_graph Pages: 1 -->
<svg width="4528pt" height="119pt"
 viewBox="0.00 0.00 4527.50 119.00" xmlns="http://www.w3.org/2000/svg" xmlns:xlink="http://www.w3.org/1999/xlink">
<g id="graph0" class="graph" transform="scale(1 1) rotate(0) translate(4 115)">
<title>a_graph</title>
<polygon fill="#ffffff" stroke="transparent" points="-4,4 -4,-115 4523.5,-115 4523.5,4 -4,4"/>
<!-- T6803 -->
<g id="node1" class="node">
<title>T6803</title>
<polygon fill="none" stroke="#0058ad" points="1399.5,-81.5 1399.5,-110.5 4519.5,-110.5 4519.5,-81.5 1399.5,-81.5"/>
<text text-anchor="middle" x="2351" y="-92.3" font-family="Times,serif" font-size="14.00" fill="#0058ad">r 37 [2 3 1 4 5 6 7 8 9 10 14 15 13 16 17 11 12 18 19 20 22 23 24 21 26 27 25 29 30 31 32 33 28 35 36 34 37 40 41 45 39 46 47 49 50 51 52 53 48 54 55 58 59 60 61 62 56 57 64 63 65 66 67 68 69 70 71 72 73 75 76 78 79 77 80 81 82 83 84 85 86 74 87 88 89 90 91 92 93 95 97 99 102 96 106 103 104 105 107 108 109 111 112 113 114 115]</text>
<polyline fill="none" stroke="#0058ad" points="3302.5,-81.5 3302.5,-110.5 "/>
<text text-anchor="middle" x="3331" y="-92.3" font-family="Times,serif" font-size="14.00" fill="#0058ad">a 38 17</text>
<polyline fill="none" stroke="#0058ad" points="3359.5,-81.5 3359.5,-110.5 "/>
<text text-anchor="middle" x="3649.5" y="-92.3" font-family="Times,serif" font-size="14.00" fill="#0058ad">r 39 [2 3 4 1 6 7 5 9 10 11 12 13 14 15 16 17 18 19 20 21 22 23 24 25 26 27 28 29 30 34 32 35 36 37]</text>
<polyline fill="none" stroke="#0058ad" points="3939.5,-81.5 3939.5,-110.5 "/>
<text text-anchor="middle" x="4229.5" y="-92.3" font-family="Times,serif" font-size="14.00" fill="#0058ad">r 39 [2 3 4 1 6 7 5 9 10 11 12 13 14 15 16 17 18 19 20 21 22 23 24 25 26 27 28 29 30 34 32 35 36 37]</text>
</g>
<!-- T6801 -->
<g id="node2" class="node">
<title>T6801</title>
<polygon fill="none" stroke="#0058ad" points="0,-.5 0,-29.5 4157,-29.5 4157,-.5 0,-.5"/>
<text text-anchor="middle" x="951.5" y="-11.3" font-family="Times,serif" font-size="14.00" fill="#0058ad">r 37 [2 3 1 4 5 6 7 8 9 10 14 15 13 16 17 11 12 18 19 20 22 23 24 21 26 27 25 29 30 31 32 33 28 35 36 34 37 40 41 45 39 46 47 49 50 51 52 53 48 54 55 58 59 60 61 62 56 57 64 63 65 66 67 68 69 70 71 72 73 75 76 78 79 77 80 81 82 83 84 85 86 74 87 88 89 90 91 92 93 95 97 99 102 96 106 103 104 105 107 108 109 111 112 113 114 115]</text>
<polyline fill="none" stroke="#0058ad" points="1903,-.5 1903,-29.5 "/>
<text text-anchor="middle" x="1935" y="-11.3" font-family="Times,serif" font-size="14.00" fill="#0058ad">a 37 116</text>
<polyline fill="none" stroke="#0058ad" points="1967,-.5 1967,-29.5 "/>
<text text-anchor="middle" x="2930.5" y="-11.3" font-family="Times,serif" font-size="14.00" fill="#0058ad">r 37 [2 3 1 4 5 6 7 8 9 10 14 15 13 16 17 11 12 18 19 20 22 23 24 21 26 27 25 29 30 31 32 33 28 35 36 34 37 40 41 45 39 46 47 49 50 51 52 53 48 54 55 58 59 60 61 62 56 57 64 63 65 66 67 68 69 70 71 72 73 75 76 78 79 77 80 81 82 83 84 85 86 74 87 88 89 90 91 92 93 95 97 99 102 96 106 103 104 105 107 108 109 111 112 113 114 115 116]</text>
<polyline fill="none" stroke="#0058ad" points="3894,-.5 3894,-29.5 "/>
<text text-anchor="middle" x="4025.5" y="-11.3" font-family="Times,serif" font-size="14.00" fill="#0058ad">r 38 [1 2 3 4 5 6 7 8 9 10 11 12 13 14 15 16]</text>
</g>
<!-- T6803&#45;&gt;T6801 -->
<g id="edge1" class="edge">
<title>T6803:f0&#45;&gt;T6801:f1</title>
<path fill="none" stroke="#5b00c0" d="M2350.5,-81C2350.5,101.635 1950.5913,-203.9064 1934.9699,-40.3409"/>
<polygon fill="#5b00c0" stroke="#5b00c0" points="1938.4504,-39.8308 1934.5,-30 1931.4576,-40.1486 1938.4504,-39.8308"/>
<text text-anchor="middle" x="2357" y="-51.8" font-family="Times,serif" font-size="14.00" fill="#5b00c0">rw</text>
</g>
<!-- T6801&#45;&gt;T6803 -->
<g id="edge2" class="edge">
<title>T6801:f3&#45;&gt;T6803:f1</title>
<path fill="none" stroke="#5b00c0" d="M4025.5,-30C4025.5,-181.0138 3363.65,61.7582 3332.6258,-70.7968"/>
<polygon fill="#5b00c0" stroke="#5b00c0" points="3329.1179,-70.6764 3331.5,-81 3336.0757,-71.4442 3329.1179,-70.6764"/>
<text text-anchor="middle" x="4025" y="-51.8" font-family="Times,serif" font-size="14.00" fill="#5b00c0">rw</text>
</g>
</g>
</svg>
