<?xml version="1.0" encoding="UTF-8" standalone="no"?>
<!DOCTYPE svg PUBLIC "-//W3C//DTD SVG 1.1//EN"
 "http://www.w3.org/Graphics/SVG/1.1/DTD/svg11.dtd">
<!-- Generated by graphviz version 2.40.1 (20161225.0304)
 -->
<!-- Title: a_graph Pages: 1 -->
<svg width="844pt" height="119pt"
 viewBox="0.00 0.00 844.00 119.00" xmlns="http://www.w3.org/2000/svg" xmlns:xlink="http://www.w3.org/1999/xlink">
<g id="graph0" class="graph" transform="scale(1 1) rotate(0) translate(4 115)">
<title>a_graph</title>
<polygon fill="#ffffff" stroke="transparent" points="-4,4 -4,-115 840,-115 840,4 -4,4"/>
<!-- T9851 -->
<g id="node1" class="node">
<title>T9851</title>
<polygon fill="none" stroke="#0058ad" points="0,-81.5 0,-110.5 354,-110.5 354,-81.5 0,-81.5"/>
<text text-anchor="middle" x="148.5" y="-92.3" font-family="Times,serif" font-size="14.00" fill="#0058ad">r 52 [1 2 3 4 6 5 7 8 9 10 11 12 13 14 15 16 17 18]</text>
<polyline fill="none" stroke="#0058ad" points="297,-81.5 297,-110.5 "/>
<text text-anchor="middle" x="325.5" y="-92.3" font-family="Times,serif" font-size="14.00" fill="#0058ad">a 53 40</text>
</g>
<!-- T9849 -->
<g id="node2" class="node">
<title>T9849</title>
<polygon fill="none" stroke="#0058ad" points="68,-.5 68,-29.5 836,-29.5 836,-.5 68,-.5"/>
<text text-anchor="middle" x="96.5" y="-11.3" font-family="Times,serif" font-size="14.00" fill="#0058ad">a 52 19</text>
<polyline fill="none" stroke="#0058ad" points="125,-.5 125,-29.5 "/>
<text text-anchor="middle" x="480.5" y="-11.3" font-family="Times,serif" font-size="14.00" fill="#0058ad">r 53 [1 2 3 4 5 10 8 9 11 12 14 15 16 17 13 6 7 18 19 20 21 22 23 24 27 25 26 30 31 32 28 29 35 33 34 36 37 38 39 41 42 43]</text>
</g>
<!-- T9851&#45;&gt;T9849 -->
<g id="edge1" class="edge">
<title>T9851:f0&#45;&gt;T9849:f0</title>
<path fill="none" stroke="#5b00c0" d="M148,-81C148,-52.5487 107.8312,-59.7192 98.1029,-39.8951"/>
<polygon fill="#5b00c0" stroke="#5b00c0" points="101.5024,-39.054 96,-30 94.6553,-40.5091 101.5024,-39.054"/>
<text text-anchor="middle" x="146.5" y="-51.8" font-family="Times,serif" font-size="14.00" fill="#5b00c0">rw</text>
</g>
<!-- T9849&#45;&gt;T9851 -->
<g id="edge2" class="edge">
<title>T9849:f1&#45;&gt;T9851:f1</title>
<path fill="none" stroke="#5b00c0" d="M481,-30C481,-90.257 424.1207,-95.5778 364.0524,-95.9714"/>
<polygon fill="#5b00c0" stroke="#5b00c0" points="363.99,-92.4715 354,-96 364.0099,-99.4715 363.99,-92.4715"/>
<text text-anchor="middle" x="485.5" y="-51.8" font-family="Times,serif" font-size="14.00" fill="#5b00c0">rw</text>
</g>
</g>
</svg>
