<?xml version="1.0" encoding="UTF-8" standalone="no"?>
<!DOCTYPE svg PUBLIC "-//W3C//DTD SVG 1.1//EN"
 "http://www.w3.org/Graphics/SVG/1.1/DTD/svg11.dtd">
<!-- Generated by graphviz version 2.40.1 (20161225.0304)
 -->
<!-- Title: a_graph Pages: 1 -->
<svg width="1872pt" height="200pt"
 viewBox="0.00 0.00 1872.00 200.00" xmlns="http://www.w3.org/2000/svg" xmlns:xlink="http://www.w3.org/1999/xlink">
<g id="graph0" class="graph" transform="scale(1 1) rotate(0) translate(4 196)">
<title>a_graph</title>
<polygon fill="#ffffff" stroke="transparent" points="-4,4 -4,-196 1868,-196 1868,4 -4,4"/>
<!-- T5307 -->
<g id="node1" class="node">
<title>T5307</title>
<polygon fill="none" stroke="#0058ad" points="572,-162.5 572,-191.5 1168,-191.5 1168,-162.5 572,-162.5"/>
<text text-anchor="middle" x="841.5" y="-173.3" font-family="Times,serif" font-size="14.00" fill="#0058ad">r 32 [1 2 3 4 5 6 7 9 10 11 8 14 15 16 17 12 20 21 19 22 24 25 26 27 28 30 31 32 33 34 29 35]</text>
<polyline fill="none" stroke="#0058ad" points="1111,-162.5 1111,-191.5 "/>
<text text-anchor="middle" x="1139.5" y="-173.3" font-family="Times,serif" font-size="14.00" fill="#0058ad">a 30 77</text>
</g>
<!-- T5309 -->
<g id="node2" class="node">
<title>T5309</title>
<polygon fill="none" stroke="#0058ad" points="600.5,-81.5 600.5,-110.5 1139.5,-110.5 1139.5,-81.5 600.5,-81.5"/>
<text text-anchor="middle" x="870" y="-92.3" font-family="Times,serif" font-size="14.00" fill="#0058ad">r 32 [1 2 3 4 5 6 7 9 10 11 8 14 15 16 17 12 20 21 19 22 24 25 26 27 28 30 31 32 33 34 29 35]</text>
</g>
<!-- T5307&#45;&gt;T5309 -->
<g id="edge2" class="edge">
<title>T5307&#45;&gt;T5309</title>
<path fill="none" stroke="#0050c0" d="M870,-162.1434C870,-150.6112 870,-134.3668 870,-120.8626"/>
<polygon fill="#0050c0" stroke="#0050c0" points="873.5001,-120.7624 870,-110.7625 866.5001,-120.7625 873.5001,-120.7624"/>
<text text-anchor="middle" x="874.5" y="-132.8" font-family="Times,serif" font-size="14.00" fill="#0050c0">rt</text>
</g>
<!-- T5311 -->
<g id="node3" class="node">
<title>T5311</title>
<polygon fill="none" stroke="#0058ad" points="0,-.5 0,-29.5 1864,-29.5 1864,-.5 0,-.5"/>
<text text-anchor="middle" x="269.5" y="-11.3" font-family="Times,serif" font-size="14.00" fill="#0058ad">r 32 [1 2 3 4 5 6 7 9 10 11 8 14 15 16 17 12 20 21 19 22 24 25 26 27 28 30 31 32 33 34 29 35]</text>
<polyline fill="none" stroke="#0058ad" points="539,-.5 539,-29.5 "/>
<text text-anchor="middle" x="567.5" y="-11.3" font-family="Times,serif" font-size="14.00" fill="#0058ad">a 32 37</text>
<polyline fill="none" stroke="#0058ad" points="596,-.5 596,-29.5 "/>
<text text-anchor="middle" x="1201.5" y="-11.3" font-family="Times,serif" font-size="14.00" fill="#0058ad">r 30 [1 2 3 4 5 6 7 8 9 11 12 13 14 10 15 16 17 18 19 20 21 22 23 24 25 26 27 28 29 31 32 33 35 36 38 37 40 41 42 43 44 45 46 48 49 50 47 51 52 53 54 55 56 58 57 61 59 60 62 63 64 65 66 67 68 69 71 73 72 75 74]</text>
<polyline fill="none" stroke="#0058ad" points="1807,-.5 1807,-29.5 "/>
<text text-anchor="middle" x="1835.5" y="-11.3" font-family="Times,serif" font-size="14.00" fill="#0058ad">a 32 38</text>
</g>
<!-- T5307&#45;&gt;T5311 -->
<g id="edge1" class="edge">
<title>T5307:f0&#45;&gt;T5311:f1</title>
<path fill="none" stroke="#5b00c0" d="M572,-177C509.9485,-177 561.1928,-103.451 566.5573,-40.0718"/>
<polygon fill="#5b00c0" stroke="#5b00c0" points="570.0574,-40.1441 567,-30 563.0642,-39.8366 570.0574,-40.1441"/>
<text text-anchor="middle" x="566.5" y="-92.3" font-family="Times,serif" font-size="14.00" fill="#5b00c0">rw</text>
</g>
<!-- T5309&#45;&gt;T5311 -->
<g id="edge3" class="edge">
<title>T5309:f0&#45;&gt;T5311:f1</title>
<path fill="none" stroke="#5b00c0" d="M755.0166,-81.496C681.3541,-70.8075 595.444,-55.2447 572.7385,-38.3724"/>
<polygon fill="#5b00c0" stroke="#5b00c0" points="575.5406,-36.2697 567,-30 569.7666,-40.2272 575.5406,-36.2697"/>
<text text-anchor="middle" x="648.5" y="-51.8" font-family="Times,serif" font-size="14.00" fill="#5b00c0">rw</text>
</g>
<!-- T5311&#45;&gt;T5307 -->
<g id="edge4" class="edge">
<title>T5311:f2&#45;&gt;T5307:f1</title>
<path fill="none" stroke="#5b00c0" d="M1202,-30C1202,-93.3909 1231.5412,-168.2949 1178.1252,-176.2979"/>
<polygon fill="#5b00c0" stroke="#5b00c0" points="1177.7339,-172.8166 1168,-177 1178.2182,-179.7998 1177.7339,-172.8166"/>
<text text-anchor="middle" x="1216.5" y="-92.3" font-family="Times,serif" font-size="14.00" fill="#5b00c0">rw</text>
</g>
</g>
</svg>
