<?xml version="1.0" encoding="UTF-8" standalone="no"?>
<!DOCTYPE svg PUBLIC "-//W3C//DTD SVG 1.1//EN"
 "http://www.w3.org/Graphics/SVG/1.1/DTD/svg11.dtd">
<!-- Generated by graphviz version 2.40.1 (20161225.0304)
 -->
<!-- Title: a_graph Pages: 1 -->
<svg width="4361pt" height="119pt"
 viewBox="0.00 0.00 4361.00 119.00" xmlns="http://www.w3.org/2000/svg" xmlns:xlink="http://www.w3.org/1999/xlink">
<g id="graph0" class="graph" transform="scale(1 1) rotate(0) translate(4 115)">
<title>a_graph</title>
<polygon fill="#ffffff" stroke="transparent" points="-4,4 -4,-115 4357,-115 4357,4 -4,4"/>
<!-- T9839 -->
<g id="node1" class="node">
<title>T9839</title>
<polygon fill="none" stroke="#0058ad" points="28.5,-81.5 28.5,-110.5 1858.5,-110.5 1858.5,-81.5 28.5,-81.5"/>
<text text-anchor="middle" x="349.5" y="-92.3" font-family="Times,serif" font-size="14.00" fill="#0058ad">r 53 [1 2 3 4 5 10 8 9 11 12 14 15 16 17 13 6 7 18 19 20 21 22 23 24 27 25 26 30 31 32 28 29 35 33 34 36 37 38]</text>
<polyline fill="none" stroke="#0058ad" points="670.5,-81.5 670.5,-110.5 "/>
<text text-anchor="middle" x="702.5" y="-92.3" font-family="Times,serif" font-size="14.00" fill="#0058ad">a 50 118</text>
<polyline fill="none" stroke="#0058ad" points="734.5,-81.5 734.5,-110.5 "/>
<text text-anchor="middle" x="1264.5" y="-92.3" font-family="Times,serif" font-size="14.00" fill="#0058ad">r 41 [56 57 58 59 61 60 62 63 64 65 66 67 68 69 70 71 72 74 76 77 78 79 81 82 80 83 84 85 86 87 88 89 90 91 92 93 94 95 96 97 98 99 100 101 102 103 104 105 106 107 108 109 110 111]</text>
<polyline fill="none" stroke="#0058ad" points="1794.5,-81.5 1794.5,-110.5 "/>
<text text-anchor="middle" x="1826.5" y="-92.3" font-family="Times,serif" font-size="14.00" fill="#0058ad">a 50 119</text>
</g>
<!-- T9841 -->
<g id="node2" class="node">
<title>T9841</title>
<polygon fill="none" stroke="#0058ad" points="0,-.5 0,-29.5 4353,-29.5 4353,-.5 0,-.5"/>
<text text-anchor="middle" x="22" y="-11.3" font-family="Times,serif" font-size="14.00" fill="#0058ad">a 1 9</text>
<polyline fill="none" stroke="#0058ad" points="44,-.5 44,-29.5 "/>
<text text-anchor="middle" x="72.5" y="-11.3" font-family="Times,serif" font-size="14.00" fill="#0058ad">a 53 39</text>
<polyline fill="none" stroke="#0058ad" points="101,-.5 101,-29.5 "/>
<text text-anchor="middle" x="1164" y="-11.3" font-family="Times,serif" font-size="14.00" fill="#0058ad">r 50 [1 2 3 4 5 6 7 8 9 10 11 12 13 14 15 16 17 18 19 21 20 22 24 25 23 26 27 28 29 30 31 32 33 34 35 38 36 37 39 40 41 42 43 44 45 46 47 48 49 50 52 51 53 54 55 56 57 58 59 60 61 62 63 64 65 66 67 68 69 70 71 72 73 74 75 76 77 78 79 80 81 82 83 84 85 86 87 88 89 90 91 92 93 94 95 96 97 98 99 100 101 102 104 103 105 106 107 108 109 110 112 111 113 114 115 116 117]</text>
<polyline fill="none" stroke="#0058ad" points="2227,-.5 2227,-29.5 "/>
<text text-anchor="middle" x="3290" y="-11.3" font-family="Times,serif" font-size="14.00" fill="#0058ad">r 50 [1 2 3 4 5 6 7 8 9 10 11 12 13 14 15 16 17 18 19 21 20 22 24 25 23 26 27 28 29 30 31 32 33 34 35 38 36 37 39 40 41 42 43 44 45 46 47 48 49 50 52 51 53 54 55 56 57 58 59 60 61 62 63 64 65 66 67 68 69 70 71 72 73 74 75 76 77 78 79 80 81 82 83 84 85 86 87 88 89 90 91 92 93 94 95 96 97 98 99 100 101 102 104 103 105 106 107 108 109 110 112 111 113 114 115 116 117]</text>
</g>
<!-- T9839&#45;&gt;T9841 -->
<g id="edge1" class="edge">
<title>T9839:f0&#45;&gt;T9841:f1</title>
<path fill="none" stroke="#5b00c0" d="M28.5,-96C21.8333,-96 26.177,-87.2488 28.5,-81 37.5461,-56.6665 63.9915,-58.6964 70.8565,-40.1421"/>
<polygon fill="#5b00c0" stroke="#5b00c0" points="74.3552,-40.4311 72.5,-30 67.4454,-39.3113 74.3552,-40.4311"/>
<text text-anchor="middle" x="74" y="-51.8" font-family="Times,serif" font-size="14.00" fill="#5b00c0">rw</text>
</g>
<!-- T9841&#45;&gt;T9839 -->
<g id="edge2" class="edge">
<title>T9841:f2&#45;&gt;T9839:f1</title>
<path fill="none" stroke="#5b00c0" d="M1163.5,-30C1163.5,-232.616 718.1222,112.9562 702.8993,-70.9229"/>
<polygon fill="#5b00c0" stroke="#5b00c0" points="699.3988,-70.8692 702.5,-81 706.3933,-71.1465 699.3988,-70.8692"/>
<text text-anchor="middle" x="1168" y="-51.8" font-family="Times,serif" font-size="14.00" fill="#5b00c0">rw</text>
</g>
</g>
</svg>
