<?xml version="1.0" encoding="UTF-8" standalone="no"?>
<!DOCTYPE svg PUBLIC "-//W3C//DTD SVG 1.1//EN"
 "http://www.w3.org/Graphics/SVG/1.1/DTD/svg11.dtd">
<!-- Generated by graphviz version 2.40.1 (20161225.0304)
 -->
<!-- Title: a_graph Pages: 1 -->
<svg width="1400pt" height="119pt"
 viewBox="0.00 0.00 1400.00 119.00" xmlns="http://www.w3.org/2000/svg" xmlns:xlink="http://www.w3.org/1999/xlink">
<g id="graph0" class="graph" transform="scale(1 1) rotate(0) translate(4 115)">
<title>a_graph</title>
<polygon fill="#ffffff" stroke="transparent" points="-4,4 -4,-115 1396,-115 1396,4 -4,4"/>
<!-- T6653 -->
<g id="node1" class="node">
<title>T6653</title>
<polygon fill="none" stroke="#0058ad" points="0,-81.5 0,-110.5 1392,-110.5 1392,-81.5 0,-81.5"/>
<text text-anchor="middle" x="100" y="-92.3" font-family="Times,serif" font-size="14.00" fill="#0058ad">r 39 [2 3 4 1 6 7 5 9 10 11 12 13]</text>
<polyline fill="none" stroke="#0058ad" points="200,-81.5 200,-110.5 "/>
<text text-anchor="middle" x="300" y="-92.3" font-family="Times,serif" font-size="14.00" fill="#0058ad">r 39 [2 3 4 1 6 7 5 9 10 11 12 13]</text>
<polyline fill="none" stroke="#0058ad" points="400,-81.5 400,-110.5 "/>
<text text-anchor="middle" x="428.5" y="-92.3" font-family="Times,serif" font-size="14.00" fill="#0058ad">a 37 48</text>
<polyline fill="none" stroke="#0058ad" points="457,-81.5 457,-110.5 "/>
<text text-anchor="middle" x="924.5" y="-92.3" font-family="Times,serif" font-size="14.00" fill="#0058ad">r 4 [1 2 3 4 5 6 7 9 10 11 12 13 21 22 23 24 25 26 27 28 29 30 31 32 33 34 35 36 37 38 39 40 41 42 44 45 46 47 48 49 50 51 52 53 54 55 56 57 58 59 60 61 62 63 64]</text>
</g>
<!-- T6651 -->
<g id="node2" class="node">
<title>T6651</title>
<polygon fill="none" stroke="#0058ad" points="31,-.5 31,-29.5 903,-29.5 903,-.5 31,-.5"/>
<text text-anchor="middle" x="59.5" y="-11.3" font-family="Times,serif" font-size="14.00" fill="#0058ad">a 39 14</text>
<polyline fill="none" stroke="#0058ad" points="88,-.5 88,-29.5 "/>
<text text-anchor="middle" x="495.5" y="-11.3" font-family="Times,serif" font-size="14.00" fill="#0058ad">r 37 [2 3 1 4 5 6 7 8 9 10 14 15 13 16 17 11 12 18 19 20 22 23 24 21 26 27 25 29 30 31 32 33 28 35 36 34 37 40 41 45 39 46 47 49 50 51 52 53]</text>
</g>
<!-- T6653&#45;&gt;T6651 -->
<g id="edge1" class="edge">
<title>T6653:f0&#45;&gt;T6651:f0</title>
<path fill="none" stroke="#5b00c0" d="M100,-81C100,-55.7795 69.1674,-57.819 60.9775,-39.8394"/>
<polygon fill="#5b00c0" stroke="#5b00c0" points="64.4019,-39.1143 59,-30 57.5391,-40.4936 64.4019,-39.1143"/>
<text text-anchor="middle" x="99.5" y="-51.8" font-family="Times,serif" font-size="14.00" fill="#5b00c0">rw</text>
</g>
<!-- T6651&#45;&gt;T6653 -->
<g id="edge2" class="edge">
<title>T6651:f1&#45;&gt;T6653:f2</title>
<path fill="none" stroke="#5b00c0" d="M496,-30C496,-63.7934 441.5873,-47.7085 430.1097,-70.9807"/>
<polygon fill="#5b00c0" stroke="#5b00c0" points="426.6356,-70.4934 428,-81 433.4854,-71.9357 426.6356,-70.4934"/>
<text text-anchor="middle" x="494.5" y="-51.8" font-family="Times,serif" font-size="14.00" fill="#5b00c0">rw</text>
</g>
</g>
</svg>
