<?xml version="1.0" encoding="UTF-8" standalone="no"?>
<!DOCTYPE svg PUBLIC "-//W3C//DTD SVG 1.1//EN"
 "http://www.w3.org/Graphics/SVG/1.1/DTD/svg11.dtd">
<!-- Generated by graphviz version 2.40.1 (20161225.0304)
 -->
<!-- Title: a_graph Pages: 1 -->
<svg width="2725pt" height="200pt"
 viewBox="0.00 0.00 2724.50 200.00" xmlns="http://www.w3.org/2000/svg" xmlns:xlink="http://www.w3.org/1999/xlink">
<g id="graph0" class="graph" transform="scale(1 1) rotate(0) translate(4 196)">
<title>a_graph</title>
<polygon fill="#ffffff" stroke="transparent" points="-4,4 -4,-196 2720.5,-196 2720.5,4 -4,4"/>
<!-- T17955 -->
<g id="node1" class="node">
<title>T17955</title>
<polygon fill="none" stroke="#0058ad" points="0,-162.5 0,-191.5 385,-191.5 385,-162.5 0,-162.5"/>
<text text-anchor="middle" x="77.5" y="-173.3" font-family="Times,serif" font-size="14.00" fill="#0058ad">r 93 [2 3 1 7 8 9 10 4 14]</text>
<polyline fill="none" stroke="#0058ad" points="155,-162.5 155,-191.5 "/>
<text text-anchor="middle" x="183.5" y="-173.3" font-family="Times,serif" font-size="14.00" fill="#0058ad">a 93 12</text>
<polyline fill="none" stroke="#0058ad" points="212,-162.5 212,-191.5 "/>
<text text-anchor="middle" x="298.5" y="-173.3" font-family="Times,serif" font-size="14.00" fill="#0058ad">r 93 [2 3 1 7 8 9 10 4 14 12]</text>
</g>
<!-- T17961 -->
<g id="node2" class="node">
<title>T17961</title>
<polygon fill="none" stroke="#0058ad" points="201,-81.5 201,-110.5 2442,-110.5 2442,-81.5 201,-81.5"/>
<text text-anchor="middle" x="1169.5" y="-92.3" font-family="Times,serif" font-size="14.00" fill="#0058ad">r 89 [1 2 3 4 5 7 8 9 10 11 12 13 16 18 19 14 15 17 22 23 24 26 27 30 28 31 32 33 34 35 36 37 38 39 40 41 42 43 44 45 46 48 49 50 51 53 54 55 56 57 58 59 60 61 62 63 64 65 66 67 68 69 70 71 72 73 74 76 77 78 79 80 81 83 82 84 85 86 87 88 89 90 91 92 93 94 96 97 95 101 103 104 107 105 106 102 109 108 111 112 114 115 113 110 116 117]</text>
<polyline fill="none" stroke="#0058ad" points="2138,-81.5 2138,-110.5 "/>
<text text-anchor="middle" x="2166.5" y="-92.3" font-family="Times,serif" font-size="14.00" fill="#0058ad">a 90 50</text>
<polyline fill="none" stroke="#0058ad" points="2195,-81.5 2195,-110.5 "/>
<text text-anchor="middle" x="2223.5" y="-92.3" font-family="Times,serif" font-size="14.00" fill="#0058ad">a 93 15</text>
<polyline fill="none" stroke="#0058ad" points="2252,-81.5 2252,-110.5 "/>
<text text-anchor="middle" x="2347" y="-92.3" font-family="Times,serif" font-size="14.00" fill="#0058ad">r 93 [2 3 1 7 8 9 10 4 14 12 15]</text>
</g>
<!-- T17955&#45;&gt;T17961 -->
<g id="edge1" class="edge">
<title>T17955:f1&#45;&gt;T17961:f2</title>
<path fill="none" stroke="#c02700" d="M183.5,-162C183.5,61.1947 2160.248,-325.3138 2222.0214,-121.1723"/>
<polygon fill="#c02700" stroke="#c02700" points="2225.5251,-121.3995 2223.5,-111 2218.5979,-120.3925 2225.5251,-121.3995"/>
<text text-anchor="middle" x="2223.5" y="-132.8" font-family="Times,serif" font-size="14.00" fill="#c02700">ww</text>
</g>
<!-- T17959 -->
<g id="node3" class="node">
<title>T17959</title>
<polygon fill="none" stroke="#0058ad" points="536.5,-.5 536.5,-29.5 2716.5,-29.5 2716.5,-.5 536.5,-.5"/>
<text text-anchor="middle" x="614" y="-11.3" font-family="Times,serif" font-size="14.00" fill="#0058ad">r 93 [2 3 1 7 8 9 10 4 14]</text>
<polyline fill="none" stroke="#0058ad" points="691.5,-.5 691.5,-29.5 "/>
<text text-anchor="middle" x="723.5" y="-11.3" font-family="Times,serif" font-size="14.00" fill="#0058ad">a 89 118</text>
<polyline fill="none" stroke="#0058ad" points="755.5,-.5 755.5,-29.5 "/>
<text text-anchor="middle" x="1736" y="-11.3" font-family="Times,serif" font-size="14.00" fill="#0058ad">r 89 [1 2 3 4 5 7 8 9 10 11 12 13 16 18 19 14 15 17 22 23 24 26 27 30 28 31 32 33 34 35 36 37 38 39 40 41 42 43 44 45 46 48 49 50 51 53 54 55 56 57 58 59 60 61 62 63 64 65 66 67 68 69 70 71 72 73 74 76 77 78 79 80 81 83 82 84 85 86 87 88 89 90 91 92 93 94 96 97 95 101 103 104 107 105 106 102 109 108 111 112 114 115 113 110 116 117 118]</text>
</g>
<!-- T17961&#45;&gt;T17959 -->
<g id="edge2" class="edge">
<title>T17961:f0&#45;&gt;T17959:f1</title>
<path fill="none" stroke="#5b00c0" d="M1169.5,-81C1169.5,115.0069 739.0419,-217.4478 723.9086,-40.0196"/>
<polygon fill="#5b00c0" stroke="#5b00c0" points="727.4046,-39.8491 723.5,-30 720.4104,-40.1343 727.4046,-39.8491"/>
<text text-anchor="middle" x="1174" y="-51.8" font-family="Times,serif" font-size="14.00" fill="#5b00c0">rw</text>
</g>
<!-- T17959&#45;&gt;T17955 -->
<g id="edge3" class="edge">
<title>T17959:f0&#45;&gt;T17955:f1</title>
<path fill="none" stroke="#5b00c0" d="M536.5,-15C455.1667,-15 228.5683,-18.518 176.5,-81 155.6265,-106.0482 178.1227,-122.4231 182.7156,-151.9306"/>
<polygon fill="#5b00c0" stroke="#5b00c0" points="179.2338,-152.3021 183.5,-162 186.2127,-151.7583 179.2338,-152.3021"/>
<text text-anchor="middle" x="184" y="-92.3" font-family="Times,serif" font-size="14.00" fill="#5b00c0">rw</text>
</g>
</g>
</svg>
