<?xml version="1.0" encoding="UTF-8" standalone="no"?>
<!DOCTYPE svg PUBLIC "-//W3C//DTD SVG 1.1//EN"
 "http://www.w3.org/Graphics/SVG/1.1/DTD/svg11.dtd">
<!-- Generated by graphviz version 2.40.1 (20161225.0304)
 -->
<!-- Title: a_graph Pages: 1 -->
<svg width="2091pt" height="200pt"
 viewBox="0.00 0.00 2091.00 200.00" xmlns="http://www.w3.org/2000/svg" xmlns:xlink="http://www.w3.org/1999/xlink">
<g id="graph0" class="graph" transform="scale(1 1) rotate(0) translate(4 196)">
<title>a_graph</title>
<polygon fill="#ffffff" stroke="transparent" points="-4,4 -4,-196 2087,-196 2087,4 -4,4"/>
<!-- T5767 -->
<g id="node1" class="node">
<title>T5767</title>
<polygon fill="none" stroke="#0058ad" points="401.5,-162.5 401.5,-191.5 1485.5,-191.5 1485.5,-162.5 401.5,-162.5"/>
<text text-anchor="middle" x="430" y="-173.3" font-family="Times,serif" font-size="14.00" fill="#0058ad">a 33 46</text>
<polyline fill="none" stroke="#0058ad" points="458.5,-162.5 458.5,-191.5 "/>
<text text-anchor="middle" x="487" y="-173.3" font-family="Times,serif" font-size="14.00" fill="#0058ad">a 33 47</text>
<polyline fill="none" stroke="#0058ad" points="515.5,-162.5 515.5,-191.5 "/>
<text text-anchor="middle" x="869" y="-173.3" font-family="Times,serif" font-size="14.00" fill="#0058ad">r 33 [3 5 2 6 7 9 4 12 13 10 11 14 17 18 16 19 20 21 15 22 23 24 25 26 27 28 29 30 32 31 33 34 35 36 38 39 42 40 41 46 47]</text>
<polyline fill="none" stroke="#0058ad" points="1222.5,-162.5 1222.5,-191.5 "/>
<text text-anchor="middle" x="1354" y="-173.3" font-family="Times,serif" font-size="14.00" fill="#0058ad">r 34 [1 2 3 4 6 7 5 8 10 9 13 14 15 11 12 16]</text>
</g>
<!-- T5769 -->
<g id="node3" class="node">
<title>T5769</title>
<polygon fill="none" stroke="#0058ad" points="234,-81.5 234,-110.5 2083,-110.5 2083,-81.5 234,-81.5"/>
<text text-anchor="middle" x="782.5" y="-92.3" font-family="Times,serif" font-size="14.00" fill="#0058ad">r 25 [1 2 3 4 5 7 8 9 10 11 12 13 14 15 16 17 19 20 21 22 23 24 25 26 27 28 29 30 31 32 33 34 35 36 39 40 41 42 43 44 45 46 48 47 49 50 53 54 55 56 57 58 59 60 61 62 63 64 65 66 67 69 68 70]</text>
<polyline fill="none" stroke="#0058ad" points="1331,-81.5 1331,-110.5 "/>
<text text-anchor="middle" x="1650" y="-92.3" font-family="Times,serif" font-size="14.00" fill="#0058ad">r 33 [3 5 2 6 7 9 4 12 13 10 11 14 17 18 16 19 20 21 15 22 23 24 25 26 27 28 29 30 32 31 33 34 35 36 38 39 42]</text>
<polyline fill="none" stroke="#0058ad" points="1969,-81.5 1969,-110.5 "/>
<text text-anchor="middle" x="1997.5" y="-92.3" font-family="Times,serif" font-size="14.00" fill="#0058ad">a 25 71</text>
<polyline fill="none" stroke="#0058ad" points="2026,-81.5 2026,-110.5 "/>
<text text-anchor="middle" x="2054.5" y="-92.3" font-family="Times,serif" font-size="14.00" fill="#0058ad">a 34 18</text>
</g>
<!-- T5767&#45;&gt;T5769 -->
<g id="edge1" class="edge">
<title>T5767:f3&#45;&gt;T5769:f3</title>
<path fill="none" stroke="#5b00c0" d="M1485.5,-177C1545.7898,-177 2002.4293,-174.8878 2050.4228,-120.5663"/>
<polygon fill="#5b00c0" stroke="#5b00c0" points="2053.799,-121.5716 2054.5,-111 2047.3594,-118.8271 2053.799,-121.5716"/>
<text text-anchor="middle" x="2041" y="-132.8" font-family="Times,serif" font-size="14.00" fill="#5b00c0">rw</text>
</g>
<!-- T5765 -->
<g id="node2" class="node">
<title>T5765</title>
<polygon fill="none" stroke="#0058ad" points="0,-.5 0,-29.5 1809,-29.5 1809,-.5 0,-.5"/>
<text text-anchor="middle" x="28.5" y="-11.3" font-family="Times,serif" font-size="14.00" fill="#0058ad">a 33 40</text>
<polyline fill="none" stroke="#0058ad" points="57,-.5 57,-29.5 "/>
<text text-anchor="middle" x="568" y="-11.3" font-family="Times,serif" font-size="14.00" fill="#0058ad">r 31 [2 1 3 4 5 6 7 8 9 10 11 12 13 14 15 16 17 18 19 20 21 23 22 24 25 26 28 27 30 31 32 34 35 36 33 37 39 38 40 42 41 43 44 45 46 49 47 48 50 51 52 53 54 55 56 57 58 59 60 61]</text>
<polyline fill="none" stroke="#0058ad" points="1079,-.5 1079,-29.5 "/>
<text text-anchor="middle" x="1107.5" y="-11.3" font-family="Times,serif" font-size="14.00" fill="#0058ad">a 33 41</text>
<polyline fill="none" stroke="#0058ad" points="1136,-.5 1136,-29.5 "/>
<text text-anchor="middle" x="1472.5" y="-11.3" font-family="Times,serif" font-size="14.00" fill="#0058ad">r 33 [3 5 2 6 7 9 4 12 13 10 11 14 17 18 16 19 20 21 15 22 23 24 25 26 27 28 29 30 32 31 33 34 35 36 38 39 42 40 41]</text>
</g>
<!-- T5765&#45;&gt;T5767 -->
<g id="edge2" class="edge">
<title>T5765:f2&#45;&gt;T5767:f0</title>
<path fill="none" stroke="#c02700" d="M1107.5,-30C1107.5,-48.0069 477.4515,-46.5882 459.5,-48 346.0128,-56.9253 280.6312,4.5238 205.5,-81 143.6702,-151.3824 293.6224,-175.3609 391.3341,-176.9179"/>
<polygon fill="#c02700" stroke="#c02700" points="391.472,-180.419 401.5,-177 391.5286,-173.4192 391.472,-180.419"/>
<text text-anchor="middle" x="215.5" y="-92.3" font-family="Times,serif" font-size="14.00" fill="#c02700">ww</text>
</g>
<!-- T5769&#45;&gt;T5765 -->
<g id="edge3" class="edge">
<title>T5769:f1&#45;&gt;T5765:f0</title>
<path fill="none" stroke="#5b00c0" d="M1650.5,-81C1650.5,-59.4956 173.9775,-53.1176 38.4374,-33.0017"/>
<polygon fill="#5b00c0" stroke="#5b00c0" points="39.0849,-29.5412 28.5,-30 37.0607,-36.2421 39.0849,-29.5412"/>
<text text-anchor="middle" x="1222" y="-51.8" font-family="Times,serif" font-size="14.00" fill="#5b00c0">rw</text>
</g>
</g>
</svg>
