<?xml version="1.0" encoding="UTF-8" standalone="no"?>
<!DOCTYPE svg PUBLIC "-//W3C//DTD SVG 1.1//EN"
 "http://www.w3.org/Graphics/SVG/1.1/DTD/svg11.dtd">
<!-- Generated by graphviz version 2.40.1 (20161225.0304)
 -->
<!-- Title: a_graph Pages: 1 -->
<svg width="3596pt" height="119pt"
 viewBox="0.00 0.00 3596.00 119.00" xmlns="http://www.w3.org/2000/svg" xmlns:xlink="http://www.w3.org/1999/xlink">
<g id="graph0" class="graph" transform="scale(1 1) rotate(0) translate(4 115)">
<title>a_graph</title>
<polygon fill="#ffffff" stroke="transparent" points="-4,4 -4,-115 3592,-115 3592,4 -4,4"/>
<!-- T17367 -->
<g id="node1" class="node">
<title>T17367</title>
<polygon fill="none" stroke="#0058ad" points="0,-81.5 0,-110.5 3588,-110.5 3588,-81.5 0,-81.5"/>
<text text-anchor="middle" x="28.5" y="-92.3" font-family="Times,serif" font-size="14.00" fill="#0058ad">a 89 22</text>
<polyline fill="none" stroke="#0058ad" points="57,-81.5 57,-110.5 "/>
<text text-anchor="middle" x="645.5" y="-92.3" font-family="Times,serif" font-size="14.00" fill="#0058ad">r 88 [1 2 4 3 5 6 7 8 9 10 11 12 13 14 15 16 17 18 19 20 21 22 23 25 28 29 24 30 31 32 26 27 33 36 37 38 34 35 40 41 39 42 43 44 46 47 49 50 51 52 53 55 54 56 57 58 59 62 63 64 65 48 68 69 71 72 66 67 70]</text>
<polyline fill="none" stroke="#0058ad" points="1234,-81.5 1234,-110.5 "/>
<text text-anchor="middle" x="1822.5" y="-92.3" font-family="Times,serif" font-size="14.00" fill="#0058ad">r 88 [1 2 4 3 5 6 7 8 9 10 11 12 13 14 15 16 17 18 19 20 21 22 23 25 28 29 24 30 31 32 26 27 33 36 37 38 34 35 40 41 39 42 43 44 46 47 49 50 51 52 53 55 54 56 57 58 59 62 63 64 65 48 68 69 71 72 66 67 70]</text>
<polyline fill="none" stroke="#0058ad" points="2411,-81.5 2411,-110.5 "/>
<text text-anchor="middle" x="2999.5" y="-92.3" font-family="Times,serif" font-size="14.00" fill="#0058ad">r 88 [1 2 4 3 5 6 7 8 9 10 11 12 13 14 15 16 17 18 19 20 21 22 23 25 28 29 24 30 31 32 26 27 33 36 37 38 34 35 40 41 39 42 43 44 46 47 49 50 51 52 53 55 54 56 57 58 59 62 63 64 65 48 68 69 71 72 66 67 70]</text>
</g>
<!-- T17365 -->
<g id="node2" class="node">
<title>T17365</title>
<polygon fill="none" stroke="#0058ad" points="149.5,-.5 149.5,-29.5 578.5,-29.5 578.5,-.5 149.5,-.5"/>
<text text-anchor="middle" x="183.5" y="-11.3" font-family="Times,serif" font-size="14.00" fill="#0058ad">r 90 [1 2]</text>
<polyline fill="none" stroke="#0058ad" points="217.5,-.5 217.5,-29.5 "/>
<text text-anchor="middle" x="246" y="-11.3" font-family="Times,serif" font-size="14.00" fill="#0058ad">a 88 73</text>
<polyline fill="none" stroke="#0058ad" points="274.5,-.5 274.5,-29.5 "/>
<text text-anchor="middle" x="426.5" y="-11.3" font-family="Times,serif" font-size="14.00" fill="#0058ad">r 89 [1 2 3 4 5 7 8 9 10 11 12 13 16 18 19 14 15 17]</text>
</g>
<!-- T17367&#45;&gt;T17365 -->
<g id="edge1" class="edge">
<title>T17367:f1&#45;&gt;T17365:f1</title>
<path fill="none" stroke="#5b00c0" d="M645,-81C645,94.1098 262.1974,-196.4068 246.4965,-40.3949"/>
<polygon fill="#5b00c0" stroke="#5b00c0" points="249.9732,-39.8216 246,-30 242.9812,-40.1556 249.9732,-39.8216"/>
<text text-anchor="middle" x="650.5" y="-51.8" font-family="Times,serif" font-size="14.00" fill="#5b00c0">rw</text>
</g>
<!-- T17365&#45;&gt;T17367 -->
<g id="edge2" class="edge">
<title>T17365:f2&#45;&gt;T17367:f0</title>
<path fill="none" stroke="#5b00c0" d="M427,-30C427,-52.2014 250.023,-45.1909 228,-48 142.2987,-58.9314 37.0396,3.6069 28.5492,-70.6985"/>
<polygon fill="#5b00c0" stroke="#5b00c0" points="25.0375,-70.8278 28,-81 32.0275,-71.2006 25.0375,-70.8278"/>
<text text-anchor="middle" x="235.5" y="-51.8" font-family="Times,serif" font-size="14.00" fill="#5b00c0">rw</text>
</g>
</g>
</svg>
