<?xml version="1.0" encoding="UTF-8" standalone="no"?>
<!DOCTYPE svg PUBLIC "-//W3C//DTD SVG 1.1//EN"
 "http://www.w3.org/Graphics/SVG/1.1/DTD/svg11.dtd">
<!-- Generated by graphviz version 2.40.1 (20161225.0304)
 -->
<!-- Title: a_graph Pages: 1 -->
<svg width="1503pt" height="119pt"
 viewBox="0.00 0.00 1502.50 119.00" xmlns="http://www.w3.org/2000/svg" xmlns:xlink="http://www.w3.org/1999/xlink">
<g id="graph0" class="graph" transform="scale(1 1) rotate(0) translate(4 115)">
<title>a_graph</title>
<polygon fill="#ffffff" stroke="transparent" points="-4,4 -4,-115 1498.5,-115 1498.5,4 -4,4"/>
<!-- T5673 -->
<g id="node1" class="node">
<title>T5673</title>
<polygon fill="none" stroke="#0058ad" points="401.5,-81.5 401.5,-110.5 1494.5,-110.5 1494.5,-81.5 401.5,-81.5"/>
<text text-anchor="middle" x="430" y="-92.3" font-family="Times,serif" font-size="14.00" fill="#0058ad">a 33 25</text>
<polyline fill="none" stroke="#0058ad" points="458.5,-81.5 458.5,-110.5 "/>
<text text-anchor="middle" x="492.5" y="-92.3" font-family="Times,serif" font-size="14.00" fill="#0058ad">r 34 [1 2]</text>
<polyline fill="none" stroke="#0058ad" points="526.5,-81.5 526.5,-110.5 "/>
<text text-anchor="middle" x="985.5" y="-92.3" font-family="Times,serif" font-size="14.00" fill="#0058ad">r 31 [2 1 3 4 5 6 7 8 9 10 11 12 13 14 15 16 17 18 19 20 21 23 22 24 25 26 28 27 30 31 32 34 35 36 33 37 39 38 40 42 41 43 44 45 46 49 47 48 50 51 52 53 54 55]</text>
<polyline fill="none" stroke="#0058ad" points="1444.5,-81.5 1444.5,-110.5 "/>
<text text-anchor="middle" x="1469.5" y="-92.3" font-family="Times,serif" font-size="14.00" fill="#0058ad">a 34 3</text>
</g>
<!-- T5677 -->
<g id="node2" class="node">
<title>T5677</title>
<polygon fill="none" stroke="#0058ad" points="0,-.5 0,-29.5 1414,-29.5 1414,-.5 0,-.5"/>
<text text-anchor="middle" x="190" y="-11.3" font-family="Times,serif" font-size="14.00" fill="#0058ad">r 33 [3 5 2 6 7 9 4 12 13 10 11 14 17 18 16 19 20 21 15 22 23 24]</text>
<polyline fill="none" stroke="#0058ad" points="380,-.5 380,-29.5 "/>
<text text-anchor="middle" x="868.5" y="-11.3" font-family="Times,serif" font-size="14.00" fill="#0058ad">r 25 [1 2 3 4 5 7 8 9 10 11 12 13 14 15 16 17 19 20 21 22 23 24 25 26 27 28 29 30 31 32 33 34 35 36 39 40 41 42 43 44 45 46 48 47 49 50 53 54 55 56 57 58 59 60 61 62 63]</text>
<polyline fill="none" stroke="#0058ad" points="1357,-.5 1357,-29.5 "/>
<text text-anchor="middle" x="1385.5" y="-11.3" font-family="Times,serif" font-size="14.00" fill="#0058ad">a 31 56</text>
</g>
<!-- T5673&#45;&gt;T5677 -->
<g id="edge1" class="edge">
<title>T5673:f2&#45;&gt;T5677:f2</title>
<path fill="none" stroke="#5b00c0" d="M986,-81C986,94.5416 1369.762,-196.812 1385.5022,-40.4204"/>
<polygon fill="#5b00c0" stroke="#5b00c0" points="1389.0188,-40.1556 1386,-30 1382.0267,-39.8216 1389.0188,-40.1556"/>
<text text-anchor="middle" x="1391.5" y="-51.8" font-family="Times,serif" font-size="14.00" fill="#5b00c0">rw</text>
</g>
<!-- T5677&#45;&gt;T5673 -->
<g id="edge2" class="edge">
<title>T5677:f0&#45;&gt;T5673:f0</title>
<path fill="none" stroke="#5b00c0" d="M190,-30C190,-76.1546 332.8627,-93.8388 390.8972,-95.811"/>
<polygon fill="#5b00c0" stroke="#5b00c0" points="390.9363,-99.3123 401,-96 391.0672,-92.3135 390.9363,-99.3123"/>
<text text-anchor="middle" x="225.5" y="-51.8" font-family="Times,serif" font-size="14.00" fill="#5b00c0">rw</text>
</g>
</g>
</svg>
