<?xml version="1.0" encoding="UTF-8" standalone="no"?>
<!DOCTYPE svg PUBLIC "-//W3C//DTD SVG 1.1//EN"
 "http://www.w3.org/Graphics/SVG/1.1/DTD/svg11.dtd">
<!-- Generated by graphviz version 2.40.1 (20161225.0304)
 -->
<!-- Title: a_graph Pages: 1 -->
<svg width="3010pt" height="119pt"
 viewBox="0.00 0.00 3010.00 119.00" xmlns="http://www.w3.org/2000/svg" xmlns:xlink="http://www.w3.org/1999/xlink">
<g id="graph0" class="graph" transform="scale(1 1) rotate(0) translate(4 115)">
<title>a_graph</title>
<polygon fill="#ffffff" stroke="transparent" points="-4,4 -4,-115 3006,-115 3006,4 -4,4"/>
<!-- T20949 -->
<g id="node1" class="node">
<title>T20949</title>
<polygon fill="none" stroke="#0058ad" points="1166,-81.5 1166,-110.5 3002,-110.5 3002,-81.5 1166,-81.5"/>
<text text-anchor="middle" x="1198" y="-92.3" font-family="Times,serif" font-size="14.00" fill="#0058ad">a 106 93</text>
<polyline fill="none" stroke="#0058ad" points="1230,-81.5 1230,-110.5 "/>
<text text-anchor="middle" x="1342" y="-92.3" font-family="Times,serif" font-size="14.00" fill="#0058ad">r 108 [2 3 4 5 6 7 8 9 10 11 12 13 14]</text>
<polyline fill="none" stroke="#0058ad" points="1454,-81.5 1454,-110.5 "/>
<text text-anchor="middle" x="2196" y="-92.3" font-family="Times,serif" font-size="14.00" fill="#0058ad">r 106 [1 3 4 5 6 7 8 10 2 13 14 15 16 20 17 18 19 21 22 23 25 24 26 27 29 32 33 34 30 31 28 35 36 41 42 43 44 45 46 37 49 50 52 56 53 54 55 57 58 59 60 61 62 63 51 64 66 67 65 68 70 71 73 74 75 69 76 77 78 72 79 81 82 80 84 85 86 87 88 91 83 92 89 90 94 93]</text>
<polyline fill="none" stroke="#0058ad" points="2938,-81.5 2938,-110.5 "/>
<text text-anchor="middle" x="2970" y="-92.3" font-family="Times,serif" font-size="14.00" fill="#0058ad">a 107 13</text>
</g>
<!-- T20947 -->
<g id="node2" class="node">
<title>T20947</title>
<polygon fill="none" stroke="#0058ad" points="0,-.5 0,-29.5 1530,-29.5 1530,-.5 0,-.5"/>
<text text-anchor="middle" x="733" y="-11.3" font-family="Times,serif" font-size="14.00" fill="#0058ad">r 106 [1 3 4 5 6 7 8 10 2 13 14 15 16 20 17 18 19 21 22 23 25 24 26 27 29 32 33 34 30 31 28 35 36 41 42 43 44 45 46 37 49 50 52 56 53 54 55 57 58 59 60 61 62 63 51 64 66 67 65 68 70 71 73 74 75 69 76 77 78 72 79 81 82 80 84 85 86 87 88 91 83 92 89 90 94]</text>
<polyline fill="none" stroke="#0058ad" points="1466,-.5 1466,-29.5 "/>
<text text-anchor="middle" x="1498" y="-11.3" font-family="Times,serif" font-size="14.00" fill="#0058ad">a 108 15</text>
</g>
<!-- T20949&#45;&gt;T20947 -->
<g id="edge1" class="edge">
<title>T20949:f1&#45;&gt;T20947:f1</title>
<path fill="none" stroke="#5b00c0" d="M1342,-81C1342,-11.9023 1481.9807,-93.4033 1496.7443,-40.1891"/>
<polygon fill="#5b00c0" stroke="#5b00c0" points="1500.2505,-40.353 1498,-30 1493.303,-39.4968 1500.2505,-40.353"/>
<text text-anchor="middle" x="1498.5" y="-51.8" font-family="Times,serif" font-size="14.00" fill="#5b00c0">rw</text>
</g>
<!-- T20947&#45;&gt;T20949 -->
<g id="edge2" class="edge">
<title>T20947:f0&#45;&gt;T20949:f0</title>
<path fill="none" stroke="#5b00c0" d="M733,-30C733,-76.1004 1077.8669,-94.0848 1155.606,-95.8533"/>
<polygon fill="#5b00c0" stroke="#5b00c0" points="1155.9516,-99.3585 1166,-96 1156.0504,-92.3592 1155.9516,-99.3585"/>
<text text-anchor="middle" x="805.5" y="-51.8" font-family="Times,serif" font-size="14.00" fill="#5b00c0">rw</text>
</g>
</g>
</svg>
