<?xml version="1.0" encoding="UTF-8" standalone="no"?>
<!DOCTYPE svg PUBLIC "-//W3C//DTD SVG 1.1//EN"
 "http://www.w3.org/Graphics/SVG/1.1/DTD/svg11.dtd">
<!-- Generated by graphviz version 2.40.1 (20161225.0304)
 -->
<!-- Title: a_graph Pages: 1 -->
<svg width="3624pt" height="119pt"
 viewBox="0.00 0.00 3623.50 119.00" xmlns="http://www.w3.org/2000/svg" xmlns:xlink="http://www.w3.org/1999/xlink">
<g id="graph0" class="graph" transform="scale(1 1) rotate(0) translate(4 115)">
<title>a_graph</title>
<polygon fill="#ffffff" stroke="transparent" points="-4,4 -4,-115 3619.5,-115 3619.5,4 -4,4"/>
<!-- T20599 -->
<g id="node1" class="node">
<title>T20599</title>
<polygon fill="none" stroke="#0058ad" points="0,-81.5 0,-110.5 1565,-110.5 1565,-81.5 0,-81.5"/>
<text text-anchor="middle" x="750.5" y="-92.3" font-family="Times,serif" font-size="14.00" fill="#0058ad">r 102 [1 2 3 4 5 6 7 8 10 11 12 13 14 16 18 17 19 20 21 22 23 24 25 27 26 28 29 31 30 32 33 34 35 37 39 40 41 42 43 44 45 46 47 48 49 50 51 52 53 55 56 54 57 58 59 60 61 62 63 64 67 65 69 68 71 72 73 74 76 77 79 80 81 82 83 85 86 84 87 90 88 89 93 91 92 94 95]</text>
<polyline fill="none" stroke="#0058ad" points="1501,-81.5 1501,-110.5 "/>
<text text-anchor="middle" x="1533" y="-92.3" font-family="Times,serif" font-size="14.00" fill="#0058ad">a 104 86</text>
</g>
<!-- T20601 -->
<g id="node2" class="node">
<title>T20601</title>
<polygon fill="none" stroke="#0058ad" points="757.5,-.5 757.5,-29.5 3615.5,-29.5 3615.5,-.5 757.5,-.5"/>
<text text-anchor="middle" x="789.5" y="-11.3" font-family="Times,serif" font-size="14.00" fill="#0058ad">a 102 96</text>
<polyline fill="none" stroke="#0058ad" points="821.5,-.5 821.5,-29.5 "/>
<text text-anchor="middle" x="1520" y="-11.3" font-family="Times,serif" font-size="14.00" fill="#0058ad">r 104 [1 2 5 6 4 7 8 9 10 11 12 13 14 15 16 18 17 20 21 22 23 19 24 25 28 26 27 29 30 31 34 35 32 38 36 40 41 42 37 44 45 46 48 47 43 50 51 52 49 54 56 53 55 57 58 60 61 63 64 65 66 62 59 67 68 69 70 71 72 78 76 77 82 83 84 85 87 88 89 90 91]</text>
<polyline fill="none" stroke="#0058ad" points="2218.5,-.5 2218.5,-29.5 "/>
<text text-anchor="middle" x="2917" y="-11.3" font-family="Times,serif" font-size="14.00" fill="#0058ad">r 104 [1 2 5 6 4 7 8 9 10 11 12 13 14 15 16 18 17 20 21 22 23 19 24 25 28 26 27 29 30 31 34 35 32 38 36 40 41 42 37 44 45 46 48 47 43 50 51 52 49 54 56 53 55 57 58 60 61 63 64 65 66 62 59 67 68 69 70 71 72 78 76 77 82 83 84 85 87 88 89 90 91]</text>
</g>
<!-- T20599&#45;&gt;T20601 -->
<g id="edge1" class="edge">
<title>T20599:f0&#45;&gt;T20601:f0</title>
<path fill="none" stroke="#5b00c0" d="M750.5,-81C750.5,-56.4781 779.3025,-57.5119 787.4032,-40.1776"/>
<polygon fill="#5b00c0" stroke="#5b00c0" points="790.9101,-40.5006 789.5,-30 784.0541,-39.088 790.9101,-40.5006"/>
<text text-anchor="middle" x="789" y="-51.8" font-family="Times,serif" font-size="14.00" fill="#5b00c0">rw</text>
</g>
<!-- T20601&#45;&gt;T20599 -->
<g id="edge2" class="edge">
<title>T20601:f1&#45;&gt;T20599:f1</title>
<path fill="none" stroke="#5b00c0" d="M1519.5,-30C1519.5,-49.6489 1529.2831,-55.6604 1532.4932,-70.8346"/>
<polygon fill="#5b00c0" stroke="#5b00c0" points="1529.0313,-71.3937 1533.5,-81 1535.9972,-70.7037 1529.0313,-71.3937"/>
<text text-anchor="middle" x="1537" y="-51.8" font-family="Times,serif" font-size="14.00" fill="#5b00c0">rw</text>
</g>
</g>
</svg>
