<?xml version="1.0" encoding="UTF-8" standalone="no"?>
<!DOCTYPE svg PUBLIC "-//W3C//DTD SVG 1.1//EN"
 "http://www.w3.org/Graphics/SVG/1.1/DTD/svg11.dtd">
<!-- Generated by graphviz version 2.40.1 (20161225.0304)
 -->
<!-- Title: a_graph Pages: 1 -->
<svg width="5925pt" height="281pt"
 viewBox="0.00 0.00 5925.00 281.00" xmlns="http://www.w3.org/2000/svg" xmlns:xlink="http://www.w3.org/1999/xlink">
<g id="graph0" class="graph" transform="scale(1 1) rotate(0) translate(4 277)">
<title>a_graph</title>
<polygon fill="#ffffff" stroke="transparent" points="-4,4 -4,-277 5921,-277 5921,4 -4,4"/>
<!-- T19501 -->
<g id="node1" class="node">
<title>T19501</title>
<polygon fill="none" stroke="#0058ad" points="1950.5,-243.5 1950.5,-272.5 3482.5,-272.5 3482.5,-243.5 1950.5,-243.5"/>
<text text-anchor="middle" x="1979" y="-254.3" font-family="Times,serif" font-size="14.00" fill="#0058ad">a 91 83</text>
<polyline fill="none" stroke="#0058ad" points="2007.5,-243.5 2007.5,-272.5 "/>
<text text-anchor="middle" x="2036" y="-254.3" font-family="Times,serif" font-size="14.00" fill="#0058ad">a 98 46</text>
<polyline fill="none" stroke="#0058ad" points="2064.5,-243.5 2064.5,-272.5 "/>
<text text-anchor="middle" x="2773.5" y="-254.3" font-family="Times,serif" font-size="14.00" fill="#0058ad">r 99 [1 3 4 2 6 7 5 8 9 10 12 14 15 16 17 18 19 20 21 22 23 26 24 27 25 28 29 31 33 34 30 36 35 37 38 39 40 41 42 43 44 47 45 46 49 50 48 51 52 53 54 55 56 57 58 59 60 61 62 63 64 66 65 68 69 70 71 72 73 74 75 76 77 78 79 80 82 81 84 85 86 87 83]</text>
</g>
<!-- T19499 -->
<g id="node4" class="node">
<title>T19499</title>
<polygon fill="none" stroke="#0058ad" points="3698,-162.5 3698,-191.5 3755,-191.5 3755,-162.5 3698,-162.5"/>
<text text-anchor="middle" x="3726.5" y="-173.3" font-family="Times,serif" font-size="14.00" fill="#0058ad">a 99 89</text>
</g>
<!-- T19501&#45;&gt;T19499 -->
<g id="edge1" class="edge">
<title>T19501:f2&#45;&gt;T19499:f0</title>
<path fill="none" stroke="#5b00c0" d="M3482.5,-258C3560.3776,-258 3645.4427,-220.3735 3691.7217,-196.41"/>
<polygon fill="#5b00c0" stroke="#5b00c0" points="3693.5043,-199.4269 3700.7194,-191.6685 3690.2409,-193.2341 3693.5043,-199.4269"/>
<text text-anchor="middle" x="3671" y="-213.8" font-family="Times,serif" font-size="14.00" fill="#5b00c0">rw</text>
</g>
<!-- T19503 -->
<g id="node2" class="node">
<title>T19503</title>
<polygon fill="none" stroke="#0058ad" points="0,-.5 0,-29.5 5105,-29.5 5105,-.5 0,-.5"/>
<text text-anchor="middle" x="35.5" y="-11.3" font-family="Times,serif" font-size="14.00" fill="#0058ad">a 100 112</text>
<polyline fill="none" stroke="#0058ad" points="71,-.5 71,-29.5 "/>
<text text-anchor="middle" x="1005" y="-11.3" font-family="Times,serif" font-size="14.00" fill="#0058ad">r 100 [1 2 3 4 6 8 5 10 9 11 12 13 14 15 16 19 18 21 22 20 23 25 17 26 27 29 24 31 28 32 33 34 36 37 38 39 40 41 42 43 44 45 46 47 49 50 51 52 53 48 54 56 58 59 62 57 63 64 66 67 65 69 70 68 71 72 73 74 75 76 77 78 79 81 82 80 84 86 85 87 89 88 90 91 92 83 97 93 94 95 96 99 100 101 102 105 98 107 109 110 111 108 113 112]</text>
<polyline fill="none" stroke="#0058ad" points="1939,-.5 1939,-29.5 "/>
<text text-anchor="middle" x="2588" y="-11.3" font-family="Times,serif" font-size="14.00" fill="#0058ad">r 91 [1 2 3 4 5 6 7 8 9 10 11 12 13 14 16 17 18 19 20 21 22 23 24 25 26 27 28 29 30 31 32 33 35 36 37 38 39 40 41 42 43 45 44 46 47 48 50 49 52 53 54 56 57 58 59 60 61 62 63 64 67 68 69 70 71 72 73 74 75 77 76 78 79 80 82 81]</text>
<polyline fill="none" stroke="#0058ad" points="3237,-.5 3237,-29.5 "/>
<text text-anchor="middle" x="4171" y="-11.3" font-family="Times,serif" font-size="14.00" fill="#0058ad">r 100 [1 2 3 4 6 8 5 10 9 11 12 13 14 15 16 19 18 21 22 20 23 25 17 26 27 29 24 31 28 32 33 34 36 37 38 39 40 41 42 43 44 45 46 47 49 50 51 52 53 48 54 56 58 59 62 57 63 64 66 67 65 69 70 68 71 72 73 74 75 76 77 78 79 81 82 80 84 86 85 87 89 88 90 91 92 83 97 93 94 95 96 99 100 101 102 105 98 107 109 110 111 108 113 112]</text>
</g>
<!-- T19503&#45;&gt;T19501 -->
<g id="edge2" class="edge">
<title>T19503:f2&#45;&gt;T19501:f0</title>
<path fill="none" stroke="#5b00c0" d="M2588.5,-30C2588.5,-54.1263 875.406,-44.7473 851.5,-48 794.9913,-55.6887 762.2557,-35.7851 727.5,-81 719.3742,-91.5711 718.6523,-101.0252 727.5,-111 816.3259,-211.1417 1770.3304,-256.0118 1940.2533,-257.9352"/>
<polygon fill="#5b00c0" stroke="#5b00c0" points="1940.478,-261.4366 1950.5,-258 1940.5224,-254.4368 1940.478,-261.4366"/>
<text text-anchor="middle" x="793" y="-132.8" font-family="Times,serif" font-size="14.00" fill="#5b00c0">rw</text>
</g>
<!-- T19505 -->
<g id="node3" class="node">
<title>T19505</title>
<polygon fill="none" stroke="#0058ad" points="736,-81.5 736,-110.5 5917,-110.5 5917,-81.5 736,-81.5"/>
<text text-anchor="middle" x="1454" y="-92.3" font-family="Times,serif" font-size="14.00" fill="#0058ad">r 99 [1 3 4 2 6 7 5 8 9 10 12 14 15 16 17 18 19 20 21 22 23 26 24 27 25 28 29 31 33 34 30 36 35 37 38 39 40 41 42 43 44 47 45 46 49 50 48 51 52 53 54 55 56 57 58 59 60 61 62 63 64 66 65 68 69 70 71 72 73 74 75 76 77 78 79 80 82 81 84 85 86 87 83 89]</text>
<polyline fill="none" stroke="#0058ad" points="2172,-81.5 2172,-110.5 "/>
<text text-anchor="middle" x="3094" y="-92.3" font-family="Times,serif" font-size="14.00" fill="#0058ad">r 100 [1 2 3 4 6 8 5 10 9 11 12 13 14 15 16 19 18 21 22 20 23 25 17 26 27 29 24 31 28 32 33 34 36 37 38 39 40 41 42 43 44 45 46 47 49 50 51 52 53 48 54 56 58 59 62 57 63 64 66 67 65 69 70 68 71 72 73 74 75 76 77 78 79 81 82 80 84 86 85 87 89 88 90 91 92 83 97 93 94 95 96 99 100 101 102 105 98 107 109 110 111 108 113]</text>
<polyline fill="none" stroke="#0058ad" points="4016,-81.5 4016,-110.5 "/>
<text text-anchor="middle" x="4044.5" y="-92.3" font-family="Times,serif" font-size="14.00" fill="#0058ad">a 99 90</text>
<polyline fill="none" stroke="#0058ad" points="4073,-81.5 4073,-110.5 "/>
<text text-anchor="middle" x="4995" y="-92.3" font-family="Times,serif" font-size="14.00" fill="#0058ad">r 100 [1 2 3 4 6 8 5 10 9 11 12 13 14 15 16 19 18 21 22 20 23 25 17 26 27 29 24 31 28 32 33 34 36 37 38 39 40 41 42 43 44 45 46 47 49 50 51 52 53 48 54 56 58 59 62 57 63 64 66 67 65 69 70 68 71 72 73 74 75 76 77 78 79 81 82 80 84 86 85 87 89 88 90 91 92 83 97 93 94 95 96 99 100 101 102 105 98 107 109 110 111 108 113]</text>
</g>
<!-- T19505&#45;&gt;T19503 -->
<g id="edge3" class="edge">
<title>T19505:f1&#45;&gt;T19503:f0</title>
<path fill="none" stroke="#5b00c0" d="M3093.5,-81C3093.5,-60.4661 235.199,-51.819 45.39,-32.0745"/>
<polygon fill="#5b00c0" stroke="#5b00c0" points="46.0056,-28.6275 35.5,-30 44.5685,-35.4784 46.0056,-28.6275"/>
<text text-anchor="middle" x="2280" y="-51.8" font-family="Times,serif" font-size="14.00" fill="#5b00c0">rw</text>
</g>
<!-- T19499&#45;&gt;T19505 -->
<g id="edge4" class="edge">
<title>T19499:f0&#45;&gt;T19505:f2</title>
<path fill="none" stroke="#c02700" d="M3753.2458,-162.449C3753.6648,-162.294 3754.0831,-162.1442 3754.5,-162 3812.9582,-141.784 4020.0424,-172.6868 4042.5174,-120.8526"/>
<polygon fill="#c02700" stroke="#c02700" points="4045.9585,-121.494 4044.5,-111 4039.096,-120.113 4045.9585,-121.494"/>
<text text-anchor="middle" x="4044.5" y="-132.8" font-family="Times,serif" font-size="14.00" fill="#c02700">ww</text>
</g>
</g>
</svg>
