<?xml version="1.0" encoding="UTF-8" standalone="no"?>
<!DOCTYPE svg PUBLIC "-//W3C//DTD SVG 1.1//EN"
 "http://www.w3.org/Graphics/SVG/1.1/DTD/svg11.dtd">
<!-- Generated by graphviz version 2.40.1 (20161225.0304)
 -->
<!-- Title: a_graph Pages: 1 -->
<svg width="2320pt" height="200pt"
 viewBox="0.00 0.00 2320.00 200.00" xmlns="http://www.w3.org/2000/svg" xmlns:xlink="http://www.w3.org/1999/xlink">
<g id="graph0" class="graph" transform="scale(1 1) rotate(0) translate(4 196)">
<title>a_graph</title>
<polygon fill="#ffffff" stroke="transparent" points="-4,4 -4,-196 2316,-196 2316,4 -4,4"/>
<!-- T21173 -->
<g id="node1" class="node">
<title>T21173</title>
<polygon fill="none" stroke="#0058ad" points="0,-162.5 0,-191.5 2138,-191.5 2138,-162.5 0,-162.5"/>
<text text-anchor="middle" x="298.5" y="-173.3" font-family="Times,serif" font-size="14.00" fill="#0058ad">r 109 [1 2 3 4 6 9 7 8 5 10 13 14 15 11 12 17 16 19 20 21 18 22 23 24 26 28 29 30 27 31 33 34 35 32 25]</text>
<polyline fill="none" stroke="#0058ad" points="597,-162.5 597,-191.5 "/>
<text text-anchor="middle" x="895.5" y="-173.3" font-family="Times,serif" font-size="14.00" fill="#0058ad">r 109 [1 2 3 4 6 9 7 8 5 10 13 14 15 11 12 17 16 19 20 21 18 22 23 24 26 28 29 30 27 31 33 34 35 32 25]</text>
<polyline fill="none" stroke="#0058ad" points="1194,-162.5 1194,-191.5 "/>
<text text-anchor="middle" x="1226" y="-173.3" font-family="Times,serif" font-size="14.00" fill="#0058ad">a 107 35</text>
<polyline fill="none" stroke="#0058ad" points="1258,-162.5 1258,-191.5 "/>
<text text-anchor="middle" x="1698" y="-173.3" font-family="Times,serif" font-size="14.00" fill="#0058ad">r 108 [2 3 4 5 6 7 8 9 10 11 12 13 14 15 16 18 17 19 20 22 21 23 24 25 27 28 29 26 30 32 34 31 33 36 37 35 38 39 40 41 42 43 44 45 46 47 49 48 50 51 53]</text>
</g>
<!-- T21169 -->
<g id="node2" class="node">
<title>T21169</title>
<polygon fill="none" stroke="#0058ad" points="1259.5,-81.5 1259.5,-110.5 1984.5,-110.5 1984.5,-81.5 1259.5,-81.5"/>
<text text-anchor="middle" x="1558" y="-92.3" font-family="Times,serif" font-size="14.00" fill="#0058ad">r 109 [1 2 3 4 6 9 7 8 5 10 13 14 15 11 12 17 16 19 20 21 18 22 23 24 26 28 29 30 27 31 33 34 35 32 25]</text>
<polyline fill="none" stroke="#0058ad" points="1856.5,-81.5 1856.5,-110.5 "/>
<text text-anchor="middle" x="1888.5" y="-92.3" font-family="Times,serif" font-size="14.00" fill="#0058ad">a 108 52</text>
<polyline fill="none" stroke="#0058ad" points="1920.5,-81.5 1920.5,-110.5 "/>
<text text-anchor="middle" x="1952.5" y="-92.3" font-family="Times,serif" font-size="14.00" fill="#0058ad">a 109 36</text>
</g>
<!-- T21173&#45;&gt;T21169 -->
<g id="edge1" class="edge">
<title>T21173:f3&#45;&gt;T21169:f1</title>
<path fill="none" stroke="#5b00c0" d="M1698,-162C1698,-77.9124 1872.9386,-188.5368 1887.9724,-121.1823"/>
<polygon fill="#5b00c0" stroke="#5b00c0" points="1891.4781,-121.3009 1889,-111 1884.5135,-120.598 1891.4781,-121.3009"/>
<text text-anchor="middle" x="1890.5" y="-132.8" font-family="Times,serif" font-size="14.00" fill="#5b00c0">rw</text>
</g>
<!-- T21177 -->
<g id="node3" class="node">
<title>T21177</title>
<polygon fill="none" stroke="#0058ad" points="520,-.5 520,-29.5 1100,-29.5 1100,-.5 520,-.5"/>
<text text-anchor="middle" x="810" y="-11.3" font-family="Times,serif" font-size="14.00" fill="#0058ad">r 107 [1 3 4 2 5 6 7 8 9 10 12 11 14 13 15 16 17 18 19 20 21 22 23 24 25 26 29 27 28 30 31 32 33 34]</text>
</g>
<!-- T21169&#45;&gt;T21177 -->
<g id="edge2" class="edge">
<title>T21169&#45;&gt;T21177</title>
<path fill="none" stroke="#0050c0" d="M1476.362,-81.4721C1332.3715,-67.1085 1112.809,-45.2063 965.4871,-30.5104"/>
<polygon fill="#0050c0" stroke="#0050c0" points="965.7463,-27.019 955.4482,-29.509 965.0514,-33.9844 965.7463,-27.019"/>
<text text-anchor="middle" x="1292.5" y="-51.8" font-family="Times,serif" font-size="14.00" fill="#0050c0">rt</text>
</g>
<!-- T21175 -->
<g id="node4" class="node">
<title>T21175</title>
<polygon fill="none" stroke="#0058ad" points="1118,-.5 1118,-29.5 2312,-29.5 2312,-.5 1118,-.5"/>
<text text-anchor="middle" x="1408" y="-11.3" font-family="Times,serif" font-size="14.00" fill="#0058ad">r 107 [1 3 4 2 5 6 7 8 9 10 12 11 14 13 15 16 17 18 19 20 21 22 23 24 25 26 29 27 28 30 31 32 33 34]</text>
<polyline fill="none" stroke="#0058ad" points="1698,-.5 1698,-29.5 "/>
<text text-anchor="middle" x="2005" y="-11.3" font-family="Times,serif" font-size="14.00" fill="#0058ad">r 109 [1 2 3 4 6 9 7 8 5 10 13 14 15 11 12 17 16 19 20 21 18 22 23 24 26 28 29 30 27 31 33 34 35 32 25 36]</text>
</g>
<!-- T21169&#45;&gt;T21175 -->
<g id="edge3" class="edge">
<title>T21169:f2&#45;&gt;T21175:f1</title>
<path fill="none" stroke="#c000a5" d="M1953,-81C1953,-52.5487 1993.1688,-59.7192 2002.8971,-39.8951"/>
<polygon fill="#c000a5" stroke="#c000a5" points="2006.3447,-40.5091 2005,-30 1999.4976,-39.054 2006.3447,-40.5091"/>
<text text-anchor="middle" x="2002.5" y="-51.8" font-family="Times,serif" font-size="14.00" fill="#c000a5">wr</text>
</g>
<!-- T21177&#45;&gt;T21173 -->
<g id="edge4" class="edge">
<title>T21177:f0&#45;&gt;T21173:f2</title>
<path fill="none" stroke="#5b00c0" d="M869.1609,-29.5888C975.0384,-56.4662 1188.9652,-114.5427 1221.7451,-152.7464"/>
<polygon fill="#5b00c0" stroke="#5b00c0" points="1218.6423,-154.3767 1226,-162 1225.0022,-151.4522 1218.6423,-154.3767"/>
<text text-anchor="middle" x="1149.5" y="-92.3" font-family="Times,serif" font-size="14.00" fill="#5b00c0">rw</text>
</g>
<!-- T21175&#45;&gt;T21173 -->
<g id="edge5" class="edge">
<title>T21175:f0&#45;&gt;T21173:f2</title>
<path fill="none" stroke="#5b00c0" d="M1118,-15C1111.3333,-15 1113.7523,-24.8618 1118,-30 1145.1025,-62.7847 1182.9463,-16.9313 1212,-48 1244.4831,-82.7359 1228.5924,-107.3891 1226.2681,-151.8753"/>
<polygon fill="#5b00c0" stroke="#5b00c0" points="1222.766,-151.9108 1226,-162 1229.7635,-152.0962 1222.766,-151.9108"/>
<text text-anchor="middle" x="1239.5" y="-92.3" font-family="Times,serif" font-size="14.00" fill="#5b00c0">rw</text>
</g>
</g>
</svg>
