<?xml version="1.0" encoding="UTF-8" standalone="no"?>
<!DOCTYPE svg PUBLIC "-//W3C//DTD SVG 1.1//EN"
 "http://www.w3.org/Graphics/SVG/1.1/DTD/svg11.dtd">
<!-- Generated by graphviz version 2.40.1 (20161225.0304)
 -->
<!-- Title: a_graph Pages: 1 -->
<svg width="2369pt" height="200pt"
 viewBox="0.00 0.00 2368.50 200.00" xmlns="http://www.w3.org/2000/svg" xmlns:xlink="http://www.w3.org/1999/xlink">
<g id="graph0" class="graph" transform="scale(1 1) rotate(0) translate(4 196)">
<title>a_graph</title>
<polygon fill="#ffffff" stroke="transparent" points="-4,4 -4,-196 2364.5,-196 2364.5,4 -4,4"/>
<!-- T21211 -->
<g id="node1" class="node">
<title>T21211</title>
<polygon fill="none" stroke="#0058ad" points="0,-162.5 0,-191.5 2269,-191.5 2269,-162.5 0,-162.5"/>
<text text-anchor="middle" x="367.5" y="-173.3" font-family="Times,serif" font-size="14.00" fill="#0058ad">r 109 [1 2 3 4 6 9 7 8 5 10 13 14 15 11 12 17 16 19 20 21 18 22 23 24 26 28 29 30 27 31 33 34 35 32 25 36 37 38 40 41 42 43 44]</text>
<polyline fill="none" stroke="#0058ad" points="735,-162.5 735,-191.5 "/>
<text text-anchor="middle" x="1102.5" y="-173.3" font-family="Times,serif" font-size="14.00" fill="#0058ad">r 109 [1 2 3 4 6 9 7 8 5 10 13 14 15 11 12 17 16 19 20 21 18 22 23 24 26 28 29 30 27 31 33 34 35 32 25 36 37 38 40 41 42 43 44]</text>
<polyline fill="none" stroke="#0058ad" points="1470,-162.5 1470,-191.5 "/>
<text text-anchor="middle" x="1837.5" y="-173.3" font-family="Times,serif" font-size="14.00" fill="#0058ad">r 109 [1 2 3 4 6 9 7 8 5 10 13 14 15 11 12 17 16 19 20 21 18 22 23 24 26 28 29 30 27 31 33 34 35 32 25 36 37 38 40 41 42 43 44]</text>
<polyline fill="none" stroke="#0058ad" points="2205,-162.5 2205,-191.5 "/>
<text text-anchor="middle" x="2237" y="-173.3" font-family="Times,serif" font-size="14.00" fill="#0058ad">a 108 56</text>
</g>
<!-- T21209 -->
<g id="node3" class="node">
<title>T21209</title>
<polygon fill="none" stroke="#0058ad" points="951.5,-81.5 951.5,-110.5 1831.5,-110.5 1831.5,-81.5 951.5,-81.5"/>
<text text-anchor="middle" x="983.5" y="-92.3" font-family="Times,serif" font-size="14.00" fill="#0058ad">a 109 45</text>
<polyline fill="none" stroke="#0058ad" points="1015.5,-81.5 1015.5,-110.5 "/>
<text text-anchor="middle" x="1047.5" y="-92.3" font-family="Times,serif" font-size="14.00" fill="#0058ad">a 107 40</text>
<polyline fill="none" stroke="#0058ad" points="1079.5,-81.5 1079.5,-110.5 "/>
<text text-anchor="middle" x="1455.5" y="-92.3" font-family="Times,serif" font-size="14.00" fill="#0058ad">r 109 [1 2 3 4 6 9 7 8 5 10 13 14 15 11 12 17 16 19 20 21 18 22 23 24 26 28 29 30 27 31 33 34 35 32 25 36 37 38 40 41 42 43 44 45]</text>
</g>
<!-- T21211&#45;&gt;T21209 -->
<g id="edge1" class="edge">
<title>T21211:f0&#45;&gt;T21209:f0</title>
<path fill="none" stroke="#5b00c0" d="M367.5,-162C367.5,-99.3764 844.5212,-96.1659 941.2437,-96.0079"/>
<polygon fill="#5b00c0" stroke="#5b00c0" points="941.5027,-99.5078 951.5,-96 941.4973,-92.5078 941.5027,-99.5078"/>
<text text-anchor="middle" x="430" y="-132.8" font-family="Times,serif" font-size="14.00" fill="#5b00c0">rw</text>
</g>
<!-- T21213 -->
<g id="node2" class="node">
<title>T21213</title>
<polygon fill="none" stroke="#0058ad" points="1364.5,-.5 1364.5,-29.5 2360.5,-29.5 2360.5,-.5 1364.5,-.5"/>
<text text-anchor="middle" x="1396.5" y="-11.3" font-family="Times,serif" font-size="14.00" fill="#0058ad">a 109 46</text>
<polyline fill="none" stroke="#0058ad" points="1428.5,-.5 1428.5,-29.5 "/>
<text text-anchor="middle" x="1894.5" y="-11.3" font-family="Times,serif" font-size="14.00" fill="#0058ad">r 108 [2 3 4 5 6 7 8 9 10 11 12 13 14 15 16 18 17 19 20 22 21 23 24 25 27 28 29 26 30 32 34 31 33 36 37 35 38 39 40 41 42 43 44 45 46 47 49 48 50 51 53 52 54 55]</text>
</g>
<!-- T21213&#45;&gt;T21211 -->
<g id="edge2" class="edge">
<title>T21213:f1&#45;&gt;T21211:f3</title>
<path fill="none" stroke="#5b00c0" d="M1894.5,-30C1894.5,-189.8341 2222.92,-6.8567 2237.0318,-151.9607"/>
<polygon fill="#5b00c0" stroke="#5b00c0" points="2233.5379,-152.1739 2237.5,-162 2240.5303,-151.8478 2233.5379,-152.1739"/>
<text text-anchor="middle" x="2223" y="-92.3" font-family="Times,serif" font-size="14.00" fill="#5b00c0">rw</text>
</g>
<!-- T21209&#45;&gt;T21213 -->
<g id="edge3" class="edge">
<title>T21209:f0&#45;&gt;T21213:f0</title>
<path fill="none" stroke="#c02700" d="M983.5,-81C983.5,-40.4697 1284.3275,-17.6735 1354.4746,-15.2211"/>
<polygon fill="#c02700" stroke="#c02700" points="1354.5797,-18.7198 1364.5,-15 1354.4252,-11.7215 1354.5797,-18.7198"/>
<text text-anchor="middle" x="1059.5" y="-51.8" font-family="Times,serif" font-size="14.00" fill="#c02700">ww</text>
</g>
</g>
</svg>
