<?xml version="1.0" encoding="UTF-8" standalone="no"?>
<!DOCTYPE svg PUBLIC "-//W3C//DTD SVG 1.1//EN"
 "http://www.w3.org/Graphics/SVG/1.1/DTD/svg11.dtd">
<!-- Generated by graphviz version 2.40.1 (20161225.0304)
 -->
<!-- Title: a_graph Pages: 1 -->
<svg width="3518pt" height="119pt"
 viewBox="0.00 0.00 3518.00 119.00" xmlns="http://www.w3.org/2000/svg" xmlns:xlink="http://www.w3.org/1999/xlink">
<g id="graph0" class="graph" transform="scale(1 1) rotate(0) translate(4 115)">
<title>a_graph</title>
<polygon fill="#ffffff" stroke="transparent" points="-4,4 -4,-115 3514,-115 3514,4 -4,4"/>
<!-- T20819 -->
<g id="node1" class="node">
<title>T20819</title>
<polygon fill="none" stroke="#0058ad" points="568,-81.5 568,-110.5 3510,-110.5 3510,-81.5 568,-81.5"/>
<text text-anchor="middle" x="930.5" y="-92.3" font-family="Times,serif" font-size="14.00" fill="#0058ad">r 106 [1 3 4 5 6 7 8 10 2 13 14 15 16 20 17 18 19 21 22 23 25 24 26 27 29 32 33 34 30 31 28 35 36 41 42 43 44 45 46 37 49 50]</text>
<polyline fill="none" stroke="#0058ad" points="1293,-81.5 1293,-110.5 "/>
<text text-anchor="middle" x="1328.5" y="-92.3" font-family="Times,serif" font-size="14.00" fill="#0058ad">a 102 124</text>
<polyline fill="none" stroke="#0058ad" points="1364,-81.5 1364,-110.5 "/>
<text text-anchor="middle" x="2437" y="-92.3" font-family="Times,serif" font-size="14.00" fill="#0058ad">r 102 [1 2 3 4 5 6 7 8 10 11 12 13 14 16 18 17 19 20 21 22 23 24 25 27 26 28 29 31 30 32 33 34 35 37 39 40 41 42 43 44 45 46 47 48 49 50 51 52 53 55 56 54 57 58 59 60 61 62 63 64 67 65 69 68 71 72 73 74 76 77 79 80 81 82 83 85 86 84 87 90 88 89 93 91 92 94 95 96 98 99 100 97 101 102 103 104 105 106 107 108 109 110 111 112 113 114 115 116 117 118 119 121 122 123 124]</text>
</g>
<!-- T20817 -->
<g id="node2" class="node">
<title>T20817</title>
<polygon fill="none" stroke="#0058ad" points="0,-.5 0,-29.5 2928,-29.5 2928,-.5 0,-.5"/>
<text text-anchor="middle" x="32" y="-11.3" font-family="Times,serif" font-size="14.00" fill="#0058ad">a 106 52</text>
<polyline fill="none" stroke="#0058ad" points="64,-.5 64,-29.5 "/>
<text text-anchor="middle" x="435" y="-11.3" font-family="Times,serif" font-size="14.00" fill="#0058ad">r 106 [1 3 4 5 6 7 8 10 2 13 14 15 16 20 17 18 19 21 22 23 25 24 26 27 29 32 33 34 30 31 28 35 36 41 42 43 44 45 46 37 49 50 52]</text>
<polyline fill="none" stroke="#0058ad" points="806,-.5 806,-29.5 "/>
<text text-anchor="middle" x="1867" y="-11.3" font-family="Times,serif" font-size="14.00" fill="#0058ad">r 102 [1 2 3 4 5 6 7 8 10 11 12 13 14 16 18 17 19 20 21 22 23 24 25 27 26 28 29 31 30 32 33 34 35 37 39 40 41 42 43 44 45 46 47 48 49 50 51 52 53 55 56 54 57 58 59 60 61 62 63 64 67 65 69 68 71 72 73 74 76 77 79 80 81 82 83 85 86 84 87 90 88 89 93 91 92 94 95 96 98 99 100 97 101 102 103 104 105 106 107 108 109 110 111 112 113 114 115 116 117 118 119 121 122 123]</text>
</g>
<!-- T20819&#45;&gt;T20817 -->
<g id="edge1" class="edge">
<title>T20819:f0&#45;&gt;T20817:f0</title>
<path fill="none" stroke="#5b00c0" d="M568,-96C511.2762,-96 82.8178,-90.6431 36.1248,-39.3679"/>
<polygon fill="#5b00c0" stroke="#5b00c0" points="39.2331,-37.7416 32,-30 32.8266,-40.5625 39.2331,-37.7416"/>
<text text-anchor="middle" x="99.5" y="-51.8" font-family="Times,serif" font-size="14.00" fill="#5b00c0">rw</text>
</g>
<!-- T20817&#45;&gt;T20819 -->
<g id="edge2" class="edge">
<title>T20817:f2&#45;&gt;T20819:f1</title>
<path fill="none" stroke="#5b00c0" d="M1867,-30C1867,-267.1007 1343.6754,147.1645 1328.3436,-70.8533"/>
<polygon fill="#5b00c0" stroke="#5b00c0" points="1324.8405,-70.8872 1328,-81 1331.8365,-71.1242 1324.8405,-70.8872"/>
<text text-anchor="middle" x="1871.5" y="-51.8" font-family="Times,serif" font-size="14.00" fill="#5b00c0">rw</text>
</g>
</g>
</svg>
