<?xml version="1.0" encoding="UTF-8" standalone="no"?>
<!DOCTYPE svg PUBLIC "-//W3C//DTD SVG 1.1//EN"
 "http://www.w3.org/Graphics/SVG/1.1/DTD/svg11.dtd">
<!-- Generated by graphviz version 2.40.1 (20161225.0304)
 -->
<!-- Title: a_graph Pages: 1 -->
<svg width="3663pt" height="119pt"
 viewBox="0.00 0.00 3662.50 119.00" xmlns="http://www.w3.org/2000/svg" xmlns:xlink="http://www.w3.org/1999/xlink">
<g id="graph0" class="graph" transform="scale(1 1) rotate(0) translate(4 115)">
<title>a_graph</title>
<polygon fill="#ffffff" stroke="transparent" points="-4,4 -4,-115 3658.5,-115 3658.5,4 -4,4"/>
<!-- T4003 -->
<g id="node1" class="node">
<title>T4003</title>
<polygon fill="none" stroke="#0058ad" points="0,-81.5 0,-110.5 2189,-110.5 2189,-81.5 0,-81.5"/>
<text text-anchor="middle" x="1069.5" y="-92.3" font-family="Times,serif" font-size="14.00" fill="#0058ad">r 22 [2 3 1 4 5 6 7 8 9 10 11 12 14 15 17 18 19 20 22 23 24 25 26 27 28 29 32 33 35 34 36 37 39 38 40 41 42 44 43 45 46 47 49 50 51 48 53 54 52 56 55 57 58 60 61 63 59 65 64 66 67 71 72 73 68 69 70 74 75 76 79 80 78 81 82 77 83 84 85 88 89 90 87 93 94 95 98 91 92 100 101 103 102 104 96 106 107 108 105 109 110 111 112 113 114 115 118 116 117 120 121 122 119 123 124]</text>
<polyline fill="none" stroke="#0058ad" points="2139,-81.5 2139,-110.5 "/>
<text text-anchor="middle" x="2164" y="-92.3" font-family="Times,serif" font-size="14.00" fill="#0058ad">a 26 3</text>
</g>
<!-- T4001 -->
<g id="node2" class="node">
<title>T4001</title>
<polygon fill="none" stroke="#0058ad" points="1210.5,-.5 1210.5,-29.5 3654.5,-29.5 3654.5,-.5 1210.5,-.5"/>
<text text-anchor="middle" x="1244.5" y="-11.3" font-family="Times,serif" font-size="14.00" fill="#0058ad">r 26 [1 2]</text>
<polyline fill="none" stroke="#0058ad" points="1278.5,-.5 1278.5,-29.5 "/>
<text text-anchor="middle" x="1353" y="-11.3" font-family="Times,serif" font-size="14.00" fill="#0058ad">r 25 [1 2 3 4 5 7 8 9 10]</text>
<polyline fill="none" stroke="#0058ad" points="1427.5,-.5 1427.5,-29.5 "/>
<text text-anchor="middle" x="1459.5" y="-11.3" font-family="Times,serif" font-size="14.00" fill="#0058ad">a 22 125</text>
<polyline fill="none" stroke="#0058ad" points="1491.5,-.5 1491.5,-29.5 "/>
<text text-anchor="middle" x="2573" y="-11.3" font-family="Times,serif" font-size="14.00" fill="#0058ad">r 22 [2 3 1 4 5 6 7 8 9 10 11 12 14 15 17 18 19 20 22 23 24 25 26 27 28 29 32 33 35 34 36 37 39 38 40 41 42 44 43 45 46 47 49 50 51 48 53 54 52 56 55 57 58 60 61 63 59 65 64 66 67 71 72 73 68 69 70 74 75 76 79 80 78 81 82 77 83 84 85 88 89 90 87 93 94 95 98 91 92 100 101 103 102 104 96 106 107 108 105 109 110 111 112 113 114 115 118 116 117 120 121 122 119 123 124 125]</text>
</g>
<!-- T4003&#45;&gt;T4001 -->
<g id="edge1" class="edge">
<title>T4003:f0&#45;&gt;T4001:f2</title>
<path fill="none" stroke="#5b00c0" d="M1069.5,-81C1069.5,90.2241 1443.6679,-192.7602 1459.0147,-40.1657"/>
<polygon fill="#5b00c0" stroke="#5b00c0" points="1462.519,-40.1556 1459.5,-30 1455.527,-39.8217 1462.519,-40.1556"/>
<text text-anchor="middle" x="1466" y="-51.8" font-family="Times,serif" font-size="14.00" fill="#5b00c0">rw</text>
</g>
<!-- T4001&#45;&gt;T4003 -->
<g id="edge2" class="edge">
<title>T4001:f0&#45;&gt;T4003:f1</title>
<path fill="none" stroke="#5b00c0" d="M1244.5,-30C1244.5,-42.0226 2056.4664,-65.1724 2154.7905,-78.5424"/>
<polygon fill="#5b00c0" stroke="#5b00c0" points="2153.9469,-81.9392 2164.5,-81 2155.6645,-75.1532 2153.9469,-81.9392"/>
<text text-anchor="middle" x="1874" y="-51.8" font-family="Times,serif" font-size="14.00" fill="#5b00c0">rw</text>
</g>
</g>
</svg>
