<?xml version="1.0" encoding="UTF-8" standalone="no"?>
<!DOCTYPE svg PUBLIC "-//W3C//DTD SVG 1.1//EN"
 "http://www.w3.org/Graphics/SVG/1.1/DTD/svg11.dtd">
<!-- Generated by graphviz version 2.40.1 (20161225.0304)
 -->
<!-- Title: a_graph Pages: 1 -->
<svg width="3767pt" height="119pt"
 viewBox="0.00 0.00 3767.00 119.00" xmlns="http://www.w3.org/2000/svg" xmlns:xlink="http://www.w3.org/1999/xlink">
<g id="graph0" class="graph" transform="scale(1 1) rotate(0) translate(4 115)">
<title>a_graph</title>
<polygon fill="#ffffff" stroke="transparent" points="-4,4 -4,-115 3763,-115 3763,4 -4,4"/>
<!-- T19787 -->
<g id="node1" class="node">
<title>T19787</title>
<polygon fill="none" stroke="#0058ad" points="1830,-81.5 1830,-110.5 3193,-110.5 3193,-81.5 1830,-81.5"/>
<text text-anchor="middle" x="2447.5" y="-92.3" font-family="Times,serif" font-size="14.00" fill="#0058ad">r 101 [1 2 3 4 5 6 7 8 9 10 11 12 13 14 15 16 18 19 17 20 21 22 23 24 25 26 27 28 29 31 32 33 34 35 36 37 38 39 41 40 30 42 43 44 47 46 45 53 54 55 50 51 52 56 57 60 48 61 62 63 58 59 66 69 65 70 64 71 72 74 75 76]</text>
<polyline fill="none" stroke="#0058ad" points="3065,-81.5 3065,-110.5 "/>
<text text-anchor="middle" x="3097" y="-92.3" font-family="Times,serif" font-size="14.00" fill="#0058ad">a 99 126</text>
<polyline fill="none" stroke="#0058ad" points="3129,-81.5 3129,-110.5 "/>
<text text-anchor="middle" x="3161" y="-92.3" font-family="Times,serif" font-size="14.00" fill="#0058ad">a 99 127</text>
</g>
<!-- T19789 -->
<g id="node2" class="node">
<title>T19789</title>
<polygon fill="none" stroke="#0058ad" points="0,-.5 0,-29.5 3759,-29.5 3759,-.5 0,-.5"/>
<text text-anchor="middle" x="617.5" y="-11.3" font-family="Times,serif" font-size="14.00" fill="#0058ad">r 101 [1 2 3 4 5 6 7 8 9 10 11 12 13 14 15 16 18 19 17 20 21 22 23 24 25 26 27 28 29 31 32 33 34 35 36 37 38 39 41 40 30 42 43 44 47 46 45 53 54 55 50 51 52 56 57 60 48 61 62 63 58 59 66 69 65 70 64 71 72 74 75 76]</text>
<polyline fill="none" stroke="#0058ad" points="1235,-.5 1235,-29.5 "/>
<text text-anchor="middle" x="2351" y="-11.3" font-family="Times,serif" font-size="14.00" fill="#0058ad">r 99 [1 3 4 2 6 7 5 8 9 10 12 14 15 16 17 18 19 20 21 22 23 26 24 27 25 28 29 31 33 34 30 36 35 37 38 39 40 41 42 43 44 47 45 46 49 50 48 51 52 53 54 55 56 57 58 59 60 61 62 63 64 66 65 68 69 70 71 72 73 74 75 76 77 78 79 80 82 81 84 85 86 87 83 89 90 91 92 93 94 96 95 97 98 99 100 101 102 103 104 105 106 107 108 109 111 112 113 114 115 110 117 116 118 122 121 119 120 123 124 125]</text>
<polyline fill="none" stroke="#0058ad" points="3467,-.5 3467,-29.5 "/>
<text text-anchor="middle" x="3499" y="-11.3" font-family="Times,serif" font-size="14.00" fill="#0058ad">a 101 73</text>
<polyline fill="none" stroke="#0058ad" points="3531,-.5 3531,-29.5 "/>
<text text-anchor="middle" x="3645" y="-11.3" font-family="Times,serif" font-size="14.00" fill="#0058ad">r 96 [1 2 3 4 5 6 7 8 9 10 11 12 13 14]</text>
</g>
<!-- T19787&#45;&gt;T19789 -->
<g id="edge1" class="edge">
<title>T19787:f0&#45;&gt;T19789:f2</title>
<path fill="none" stroke="#5b00c0" d="M2447.5,-81C2447.5,21.4849 2805.1484,-53.2251 2907.5,-48 2922.6791,-47.2251 3415.0598,-46.5608 3489.9829,-33.4925"/>
<polygon fill="#5b00c0" stroke="#5b00c0" points="3491.318,-36.7309 3499.5,-30 3488.9064,-30.1594 3491.318,-36.7309"/>
<text text-anchor="middle" x="2915" y="-51.8" font-family="Times,serif" font-size="14.00" fill="#5b00c0">rw</text>
</g>
<!-- T19789&#45;&gt;T19787 -->
<g id="edge2" class="edge">
<title>T19789:f1&#45;&gt;T19787:f1</title>
<path fill="none" stroke="#5b00c0" d="M2351.5,-30C2351.5,-45.869 2906.7251,-46.2745 2922.5,-48 2997.4912,-56.2026 3088.5087,-6.8455 3096.8768,-70.7321"/>
<polygon fill="#5b00c0" stroke="#5b00c0" points="3093.4005,-71.2304 3097.5,-81 3100.3877,-70.8063 3093.4005,-71.2304"/>
<text text-anchor="middle" x="3102" y="-51.8" font-family="Times,serif" font-size="14.00" fill="#5b00c0">rw</text>
</g>
</g>
</svg>
