<?xml version="1.0" encoding="UTF-8" standalone="no"?>
<!DOCTYPE svg PUBLIC "-//W3C//DTD SVG 1.1//EN"
 "http://www.w3.org/Graphics/SVG/1.1/DTD/svg11.dtd">
<!-- Generated by graphviz version 2.40.1 (20161225.0304)
 -->
<!-- Title: a_graph Pages: 1 -->
<svg width="3143pt" height="200pt"
 viewBox="0.00 0.00 3143.00 200.00" xmlns="http://www.w3.org/2000/svg" xmlns:xlink="http://www.w3.org/1999/xlink">
<g id="graph0" class="graph" transform="scale(1 1) rotate(0) translate(4 196)">
<title>a_graph</title>
<polygon fill="#ffffff" stroke="transparent" points="-4,4 -4,-196 3139,-196 3139,4 -4,4"/>
<!-- T4531 -->
<g id="node1" class="node">
<title>T4531</title>
<polygon fill="none" stroke="#0058ad" points="830,-162.5 830,-191.5 887,-191.5 887,-162.5 830,-162.5"/>
<text text-anchor="middle" x="858.5" y="-173.3" font-family="Times,serif" font-size="14.00" fill="#0058ad">a 21 97</text>
</g>
<!-- T4533 -->
<g id="node3" class="node">
<title>T4533</title>
<polygon fill="none" stroke="#0058ad" points="913,-81.5 913,-110.5 2148,-110.5 2148,-81.5 913,-81.5"/>
<text text-anchor="middle" x="1530.5" y="-92.3" font-family="Times,serif" font-size="14.00" fill="#0058ad">r 27 [1 2 3 4 5 6 7 8 11 12 13 14 16 17 18 20 15 21 23 22 24 25 27 28 26 29 30 31 32 33 34 36 37 35 40 41 44 45 46 47 48 49 50 42 51 52 53 54 55 56 57 58 59 60 61 63 62 64 65 66 67 68 69 70 71 72 73 75 76 77 78 74]</text>
</g>
<!-- T4531&#45;&gt;T4533 -->
<g id="edge1" class="edge">
<title>T4531&#45;&gt;T4533</title>
<path fill="none" stroke="#0050c0" d="M887.375,-173.5195C974.4833,-163.0199 1238.568,-131.1882 1399.9716,-111.7333"/>
<polygon fill="#0050c0" stroke="#0050c0" points="1400.4628,-115.1996 1409.972,-110.5279 1399.625,-108.2499 1400.4628,-115.1996"/>
<text text-anchor="middle" x="1259" y="-132.8" font-family="Times,serif" font-size="14.00" fill="#0050c0">rt</text>
</g>
<!-- T4535 -->
<g id="node2" class="node">
<title>T4535</title>
<polygon fill="none" stroke="#0058ad" points="0,-.5 0,-29.5 3135,-29.5 3135,-.5 0,-.5"/>
<text text-anchor="middle" x="769.5" y="-11.3" font-family="Times,serif" font-size="14.00" fill="#0058ad">r 21 [1 2 3 4 5 6 7 8 9 10 11 12 13 14 15 16 17 18 19 20 21 22 23 24 25 26 27 28 29 30 32 33 34 35 36 37 39 40 41 42 44 43 46 45 48 47 50 51 49 52 53 54 55 56 57 58 59 60 62 63 64 65 66 67 68 69 70 71 72 73 74 75 76 77 79 82 80 81 84 85 86 87 88 89 90 91 92 93 95 94]</text>
<polyline fill="none" stroke="#0058ad" points="1539,-.5 1539,-29.5 "/>
<text text-anchor="middle" x="1567.5" y="-11.3" font-family="Times,serif" font-size="14.00" fill="#0058ad">a 27 80</text>
<polyline fill="none" stroke="#0058ad" points="1596,-.5 1596,-29.5 "/>
<text text-anchor="middle" x="2365.5" y="-11.3" font-family="Times,serif" font-size="14.00" fill="#0058ad">r 21 [1 2 3 4 5 6 7 8 9 10 11 12 13 14 15 16 17 18 19 20 21 22 23 24 25 26 27 28 29 30 32 33 34 35 36 37 39 40 41 42 44 43 46 45 48 47 50 51 49 52 53 54 55 56 57 58 59 60 62 63 64 65 66 67 68 69 70 71 72 73 74 75 76 77 79 82 80 81 84 85 86 87 88 89 90 91 92 93 95 94]</text>
</g>
<!-- T4535&#45;&gt;T4531 -->
<g id="edge2" class="edge">
<title>T4535:f0&#45;&gt;T4531:f0</title>
<path fill="none" stroke="#5b00c0" d="M769.5,-30C769.5,-80.5054 808.4196,-128.4967 834.7848,-155.213"/>
<polygon fill="#5b00c0" stroke="#5b00c0" points="832.5929,-157.9665 842.176,-162.4848 837.5022,-152.9766 832.5929,-157.9665"/>
<text text-anchor="middle" x="806" y="-92.3" font-family="Times,serif" font-size="14.00" fill="#5b00c0">rw</text>
</g>
<!-- T4533&#45;&gt;T4535 -->
<g id="edge3" class="edge">
<title>T4533:f0&#45;&gt;T4535:f1</title>
<path fill="none" stroke="#5b00c0" d="M1544.4881,-81.3062C1553.165,-70.8831 1563.2521,-55.9607 1566.4633,-40.0233"/>
<polygon fill="#5b00c0" stroke="#5b00c0" points="1569.9525,-40.3071 1567.5,-30 1562.9897,-39.5868 1569.9525,-40.3071"/>
<text text-anchor="middle" x="1571" y="-51.8" font-family="Times,serif" font-size="14.00" fill="#5b00c0">rw</text>
</g>
</g>
</svg>
