<?xml version="1.0" encoding="UTF-8" standalone="no"?>
<!DOCTYPE svg PUBLIC "-//W3C//DTD SVG 1.1//EN"
 "http://www.w3.org/Graphics/SVG/1.1/DTD/svg11.dtd">
<!-- Generated by graphviz version 2.40.1 (20161225.0304)
 -->
<!-- Title: a_graph Pages: 1 -->
<svg width="4085pt" height="200pt"
 viewBox="0.00 0.00 4085.00 200.00" xmlns="http://www.w3.org/2000/svg" xmlns:xlink="http://www.w3.org/1999/xlink">
<g id="graph0" class="graph" transform="scale(1 1) rotate(0) translate(4 196)">
<title>a_graph</title>
<polygon fill="#ffffff" stroke="transparent" points="-4,4 -4,-196 4081,-196 4081,4 -4,4"/>
<!-- T4551 -->
<g id="node1" class="node">
<title>T4551</title>
<polygon fill="none" stroke="#0058ad" points="1686,-162.5 1686,-191.5 2875,-191.5 2875,-162.5 1686,-162.5"/>
<text text-anchor="middle" x="2248.5" y="-173.3" font-family="Times,serif" font-size="14.00" fill="#0058ad">r 28 [1 2 3 4 5 6 7 9 10 8 11 12 13 16 17 18 14 15 21 22 19 20 23 24 26 27 25 28 30 31 29 34 32 33 36 35 37 38 39 40 42 43 44 45 41 46 48 49 50 52 47 51 53 54 57 55 58 59 60 61 63 56 64 62 65 66]</text>
<polyline fill="none" stroke="#0058ad" points="2811,-162.5 2811,-191.5 "/>
<text text-anchor="middle" x="2843" y="-173.3" font-family="Times,serif" font-size="14.00" fill="#0058ad">a 21 101</text>
</g>
<!-- T4549 -->
<g id="node3" class="node">
<title>T4549</title>
<polygon fill="none" stroke="#0058ad" points="1632,-81.5 1632,-110.5 2881,-110.5 2881,-81.5 1632,-81.5"/>
<text text-anchor="middle" x="1660.5" y="-92.3" font-family="Times,serif" font-size="14.00" fill="#0058ad">a 28 67</text>
<polyline fill="none" stroke="#0058ad" points="1689,-81.5 1689,-110.5 "/>
<text text-anchor="middle" x="1714" y="-92.3" font-family="Times,serif" font-size="14.00" fill="#0058ad">a 5 90</text>
<polyline fill="none" stroke="#0058ad" points="1739,-81.5 1739,-110.5 "/>
<text text-anchor="middle" x="2310" y="-92.3" font-family="Times,serif" font-size="14.00" fill="#0058ad">r 28 [1 2 3 4 5 6 7 9 10 8 11 12 13 16 17 18 14 15 21 22 19 20 23 24 26 27 25 28 30 31 29 34 32 33 36 35 37 38 39 40 42 43 44 45 41 46 48 49 50 52 47 51 53 54 57 55 58 59 60 61 63 56 64 62 65 66 67]</text>
</g>
<!-- T4551&#45;&gt;T4549 -->
<g id="edge1" class="edge">
<title>T4551:f0&#45;&gt;T4549:f0</title>
<path fill="none" stroke="#5b00c0" d="M1685.5,-177C1657.5636,-177 1659.5586,-149.5288 1660.3292,-121.36"/>
<polygon fill="#5b00c0" stroke="#5b00c0" points="1663.8346,-121.0564 1660.5,-111 1656.8355,-120.9409 1663.8346,-121.0564"/>
<text text-anchor="middle" x="1668" y="-132.8" font-family="Times,serif" font-size="14.00" fill="#5b00c0">rw</text>
</g>
<!-- T4553 -->
<g id="node2" class="node">
<title>T4553</title>
<polygon fill="none" stroke="#0058ad" points="0,-.5 0,-29.5 4077,-29.5 4077,-.5 0,-.5"/>
<text text-anchor="middle" x="571" y="-11.3" font-family="Times,serif" font-size="14.00" fill="#0058ad">r 28 [1 2 3 4 5 6 7 9 10 8 11 12 13 16 17 18 14 15 21 22 19 20 23 24 26 27 25 28 30 31 29 34 32 33 36 35 37 38 39 40 42 43 44 45 41 46 48 49 50 52 47 51 53 54 57 55 58 59 60 61 63 56 64 62 65 66 67]</text>
<polyline fill="none" stroke="#0058ad" points="1142,-.5 1142,-29.5 "/>
<text text-anchor="middle" x="1785.5" y="-11.3" font-family="Times,serif" font-size="14.00" fill="#0058ad">r 27 [1 2 3 4 5 6 7 8 11 12 13 14 16 17 18 20 15 21 23 22 24 25 27 28 26 29 30 31 32 33 34 36 37 35 40 41 44 45 46 47 48 49 50 42 51 52 53 54 55 56 57 58 59 60 61 63 62 64 65 66 67 68 69 70 71 72 73 75 76 77 78 74 80 81 82]</text>
<polyline fill="none" stroke="#0058ad" points="2429,-.5 2429,-29.5 "/>
<text text-anchor="middle" x="2457.5" y="-11.3" font-family="Times,serif" font-size="14.00" fill="#0058ad">a 27 83</text>
<polyline fill="none" stroke="#0058ad" points="2486,-.5 2486,-29.5 "/>
<text text-anchor="middle" x="3281.5" y="-11.3" font-family="Times,serif" font-size="14.00" fill="#0058ad">r 21 [1 2 3 4 5 6 7 8 9 10 11 12 13 14 15 16 17 18 19 20 21 22 23 24 25 26 27 28 29 30 32 33 34 35 36 37 39 40 41 42 44 43 46 45 48 47 50 51 49 52 53 54 55 56 57 58 59 60 62 63 64 65 66 67 68 69 70 71 72 73 74 75 76 77 79 82 80 81 84 85 86 87 88 89 90 91 92 93 95 94 97 98 99]</text>
</g>
<!-- T4553&#45;&gt;T4551 -->
<g id="edge2" class="edge">
<title>T4553:f3&#45;&gt;T4551:f1</title>
<path fill="none" stroke="#5b00c0" d="M3281.5,-30C3281.5,-122.768 2991.7011,-173.5607 2885.7468,-176.8314"/>
<polygon fill="#5b00c0" stroke="#5b00c0" points="2885.441,-173.3359 2875.5,-177 2885.5563,-180.3349 2885.441,-173.3359"/>
<text text-anchor="middle" x="3255" y="-92.3" font-family="Times,serif" font-size="14.00" fill="#5b00c0">rw</text>
</g>
<!-- T4549&#45;&gt;T4553 -->
<g id="edge3" class="edge">
<title>T4549:f0&#45;&gt;T4553:f0</title>
<path fill="none" stroke="#c000a5" d="M1631.5,-96C1575.21,-96 662.3603,-89.6939 576.9043,-37.9662"/>
<polygon fill="#c000a5" stroke="#c000a5" points="579.4935,-35.6008 570.5,-30 574.0379,-39.9867 579.4935,-35.6008"/>
<text text-anchor="middle" x="703" y="-51.8" font-family="Times,serif" font-size="14.00" fill="#c000a5">wr</text>
</g>
</g>
</svg>
