<?xml version="1.0" encoding="UTF-8" standalone="no"?>
<!DOCTYPE svg PUBLIC "-//W3C//DTD SVG 1.1//EN"
 "http://www.w3.org/Graphics/SVG/1.1/DTD/svg11.dtd">
<!-- Generated by graphviz version 2.40.1 (20161225.0304)
 -->
<!-- Title: a_graph Pages: 1 -->
<svg width="2402pt" height="119pt"
 viewBox="0.00 0.00 2401.50 119.00" xmlns="http://www.w3.org/2000/svg" xmlns:xlink="http://www.w3.org/1999/xlink">
<g id="graph0" class="graph" transform="scale(1 1) rotate(0) translate(4 115)">
<title>a_graph</title>
<polygon fill="#ffffff" stroke="transparent" points="-4,4 -4,-115 2397.5,-115 2397.5,4 -4,4"/>
<!-- T18597 -->
<g id="node1" class="node">
<title>T18597</title>
<polygon fill="none" stroke="#0058ad" points="610.5,-81.5 610.5,-110.5 2393.5,-110.5 2393.5,-81.5 610.5,-81.5"/>
<text text-anchor="middle" x="639" y="-92.3" font-family="Times,serif" font-size="14.00" fill="#0058ad">a 95 88</text>
<polyline fill="none" stroke="#0058ad" points="667.5,-81.5 667.5,-110.5 "/>
<text text-anchor="middle" x="696" y="-92.3" font-family="Times,serif" font-size="14.00" fill="#0058ad">a 95 89</text>
<polyline fill="none" stroke="#0058ad" points="724.5,-81.5 724.5,-110.5 "/>
<text text-anchor="middle" x="1559" y="-92.3" font-family="Times,serif" font-size="14.00" fill="#0058ad">r 90 [1 2 6 7 8 9 10 11 12 13 14 15 16 18 19 17 20 21 22 23 24 25 26 27 29 30 28 31 32 33 34 35 36 37 38 39 43 44 45 47 49 50 52 53 51 54 55 57 56 58 59 60 61 62 64 66 65 67 68 69 70 71 72 73 74 75 77 76 78 79 80 81 82 84 83 86 85 87 89 90 91 92 95 96 97 94 98 99 100 101 102 103 105 106]</text>
</g>
<!-- T18598 -->
<g id="node2" class="node">
<title>T18598</title>
<polygon fill="none" stroke="#0058ad" points="0,-.5 0,-29.5 1558,-29.5 1558,-.5 0,-.5"/>
<text text-anchor="middle" x="693.5" y="-11.3" font-family="Times,serif" font-size="14.00" fill="#0058ad">r 95 [1 8 4 5 9 10 11 3 12 13 15 14 19 16 17 18 21 24 25 23 26 27 20 30 29 33 28 31 35 37 36 39 38 34 40 41 43 42 46 47 48 49 44 45 50 51 53 54 55 56 52 57 58 59 61 62 60 63 64 66 67 65 68 69 70 71 72 74 75 73 77 80 81 79 82 83 86 84 85 87]</text>
<polyline fill="none" stroke="#0058ad" points="1387,-.5 1387,-29.5 "/>
<text text-anchor="middle" x="1415.5" y="-11.3" font-family="Times,serif" font-size="14.00" fill="#0058ad">a 94 88</text>
<polyline fill="none" stroke="#0058ad" points="1444,-.5 1444,-29.5 "/>
<text text-anchor="middle" x="1469" y="-11.3" font-family="Times,serif" font-size="14.00" fill="#0058ad">a 3 90</text>
<polyline fill="none" stroke="#0058ad" points="1494,-.5 1494,-29.5 "/>
<text text-anchor="middle" x="1526" y="-11.3" font-family="Times,serif" font-size="14.00" fill="#0058ad">a 90 107</text>
</g>
<!-- T18597&#45;&gt;T18598 -->
<g id="edge1" class="edge">
<title>T18597:f2&#45;&gt;T18598:f3</title>
<path fill="none" stroke="#5b00c0" d="M1559,-81C1559,-58.0096 1535.0698,-56.7694 1527.9655,-40.2361"/>
<polygon fill="#5b00c0" stroke="#5b00c0" points="1531.323,-39.1606 1526,-30 1524.4486,-40.4806 1531.323,-39.1606"/>
<text text-anchor="middle" x="1558.5" y="-51.8" font-family="Times,serif" font-size="14.00" fill="#5b00c0">rw</text>
</g>
<!-- T18598&#45;&gt;T18597 -->
<g id="edge2" class="edge">
<title>T18598:f0&#45;&gt;T18597:f0</title>
<path fill="none" stroke="#5b00c0" d="M693,-30C693,-59.0143 651.2863,-50.9224 641.1837,-70.95"/>
<polygon fill="#5b00c0" stroke="#5b00c0" points="637.7032,-70.4848 639,-81 644.5436,-71.9712 637.7032,-70.4848"/>
<text text-anchor="middle" x="689.5" y="-51.8" font-family="Times,serif" font-size="14.00" fill="#5b00c0">rw</text>
</g>
</g>
</svg>
