<?xml version="1.0" encoding="UTF-8" standalone="no"?>
<!DOCTYPE svg PUBLIC "-//W3C//DTD SVG 1.1//EN"
 "http://www.w3.org/Graphics/SVG/1.1/DTD/svg11.dtd">
<!-- Generated by graphviz version 2.40.1 (20161225.0304)
 -->
<!-- Title: a_graph Pages: 1 -->
<svg width="1899pt" height="119pt"
 viewBox="0.00 0.00 1899.00 119.00" xmlns="http://www.w3.org/2000/svg" xmlns:xlink="http://www.w3.org/1999/xlink">
<g id="graph0" class="graph" transform="scale(1 1) rotate(0) translate(4 115)">
<title>a_graph</title>
<polygon fill="#ffffff" stroke="transparent" points="-4,4 -4,-115 1895,-115 1895,4 -4,4"/>
<!-- T3907 -->
<g id="node1" class="node">
<title>T3907</title>
<polygon fill="none" stroke="#0058ad" points="0,-81.5 0,-110.5 1891,-110.5 1891,-81.5 0,-81.5"/>
<text text-anchor="middle" x="913.5" y="-92.3" font-family="Times,serif" font-size="14.00" fill="#0058ad">r 22 [2 3 1 4 5 6 7 8 9 10 11 12 14 15 17 18 19 20 22 23 24 25 26 27 28 29 32 33 35 34 36 37 39 38 40 41 42 44 43 45 46 47 49 50 51 48 53 54 52 56 55 57 58 60 61 63 59 65 64 66 67 71 72 73 68 69 70 74 75 76 79 80 78 81 82 77 83 84 85 88 89 90 87 93 94 95 98 91 92 100 101 103 102 104 96 106 107 108 105 109 110 111]</text>
<polyline fill="none" stroke="#0058ad" points="1827,-81.5 1827,-110.5 "/>
<text text-anchor="middle" x="1859" y="-92.3" font-family="Times,serif" font-size="14.00" fill="#0058ad">a 24 103</text>
</g>
<!-- T3905 -->
<g id="node2" class="node">
<title>T3905</title>
<polygon fill="none" stroke="#0058ad" points="157.5,-.5 157.5,-29.5 1839.5,-29.5 1839.5,-.5 157.5,-.5"/>
<text text-anchor="middle" x="966.5" y="-11.3" font-family="Times,serif" font-size="14.00" fill="#0058ad">r 24 [1 2 3 4 5 7 9 10 12 13 17 11 6 18 19 21 22 23 20 24 25 26 28 29 30 27 32 33 31 34 36 35 38 40 37 41 42 43 44 45 46 39 47 48 49 51 52 53 54 55 50 58 59 60 61 63 64 66 67 57 69 70 71 73 74 75 76 72 77 78 79 80 81 84 82 83 86 87 88 85 89 91 90 92 93 94 95 96 97 98 100 102 101]</text>
<polyline fill="none" stroke="#0058ad" points="1775.5,-.5 1775.5,-29.5 "/>
<text text-anchor="middle" x="1807.5" y="-11.3" font-family="Times,serif" font-size="14.00" fill="#0058ad">a 22 112</text>
</g>
<!-- T3907&#45;&gt;T3905 -->
<g id="edge1" class="edge">
<title>T3907:f0&#45;&gt;T3905:f1</title>
<path fill="none" stroke="#5b00c0" d="M913.5,-81C913.5,-69.3283 1700.88,-45.5998 1797.7647,-32.4445"/>
<polygon fill="#5b00c0" stroke="#5b00c0" points="1798.6535,-35.8301 1807.5,-30 1796.9487,-29.0409 1798.6535,-35.8301"/>
<text text-anchor="middle" x="1525" y="-51.8" font-family="Times,serif" font-size="14.00" fill="#5b00c0">rw</text>
</g>
<!-- T3905&#45;&gt;T3907 -->
<g id="edge2" class="edge">
<title>T3905:f0&#45;&gt;T3907:f1</title>
<path fill="none" stroke="#5b00c0" d="M966.5,-30C966.5,-45.8412 1520.694,-46.9443 1536.5,-48 1676.9669,-57.3818 1850.7798,57.4764 1859.183,-70.8994"/>
<polygon fill="#5b00c0" stroke="#5b00c0" points="1855.6879,-71.1147 1859.5,-81 1862.6845,-70.8951 1855.6879,-71.1147"/>
<text text-anchor="middle" x="1865" y="-51.8" font-family="Times,serif" font-size="14.00" fill="#5b00c0">rw</text>
</g>
</g>
</svg>
