<?xml version="1.0" encoding="UTF-8" standalone="no"?>
<!DOCTYPE svg PUBLIC "-//W3C//DTD SVG 1.1//EN"
 "http://www.w3.org/Graphics/SVG/1.1/DTD/svg11.dtd">
<!-- Generated by graphviz version 2.40.1 (20161225.0304)
 -->
<!-- Title: a_graph Pages: 1 -->
<svg width="1770pt" height="119pt"
 viewBox="0.00 0.00 1770.00 119.00" xmlns="http://www.w3.org/2000/svg" xmlns:xlink="http://www.w3.org/1999/xlink">
<g id="graph0" class="graph" transform="scale(1 1) rotate(0) translate(4 115)">
<title>a_graph</title>
<polygon fill="#ffffff" stroke="transparent" points="-4,4 -4,-115 1766,-115 1766,4 -4,4"/>
<!-- T19245 -->
<g id="node1" class="node">
<title>T19245</title>
<polygon fill="none" stroke="#0058ad" points="0,-81.5 0,-110.5 1762,-110.5 1762,-81.5 0,-81.5"/>
<text text-anchor="middle" x="267.5" y="-92.3" font-family="Times,serif" font-size="14.00" fill="#0058ad">r 100 [1 2 3 4 6 8 5 10 9 11 12 13 14 15 16 19 18 21 22 20 23 25 17 26 27 29 24 31 28 32 33]</text>
<polyline fill="none" stroke="#0058ad" points="535,-81.5 535,-110.5 "/>
<text text-anchor="middle" x="567" y="-92.3" font-family="Times,serif" font-size="14.00" fill="#0058ad">a 100 34</text>
<polyline fill="none" stroke="#0058ad" points="599,-81.5 599,-110.5 "/>
<text text-anchor="middle" x="997.5" y="-92.3" font-family="Times,serif" font-size="14.00" fill="#0058ad">r 99 [1 3 4 2 6 7 5 8 9 10 12 14 15 16 17 18 19 20 21 22 23 26 24 27 25 28 29 31 33 34 30 36 35 37 38 39 40 41 42 43 44 47 45 46 49 50 48]</text>
<polyline fill="none" stroke="#0058ad" points="1396,-81.5 1396,-110.5 "/>
<text text-anchor="middle" x="1579" y="-92.3" font-family="Times,serif" font-size="14.00" fill="#0058ad">r 98 [1 2 4 3 5 6 7 8 11 12 9 13 14 15 16 17 18 20 21 19 22 24]</text>
</g>
<!-- T19247 -->
<g id="node2" class="node">
<title>T19247</title>
<polygon fill="none" stroke="#0058ad" points="549.5,-.5 549.5,-29.5 1198.5,-29.5 1198.5,-.5 549.5,-.5"/>
<text text-anchor="middle" x="578" y="-11.3" font-family="Times,serif" font-size="14.00" fill="#0058ad">a 91 67</text>
<polyline fill="none" stroke="#0058ad" points="606.5,-.5 606.5,-29.5 "/>
<text text-anchor="middle" x="635" y="-11.3" font-family="Times,serif" font-size="14.00" fill="#0058ad">a 99 51</text>
<polyline fill="none" stroke="#0058ad" points="663.5,-.5 663.5,-29.5 "/>
<text text-anchor="middle" x="931" y="-11.3" font-family="Times,serif" font-size="14.00" fill="#0058ad">r 100 [1 2 3 4 6 8 5 10 9 11 12 13 14 15 16 19 18 21 22 20 23 25 17 26 27 29 24 31 28 32 33]</text>
</g>
<!-- T19245&#45;&gt;T19247 -->
<g id="edge1" class="edge">
<title>T19245:f2&#45;&gt;T19247:f1</title>
<path fill="none" stroke="#5b00c0" d="M998,-81C998,-62.5047 698.5857,-52.3354 643.615,-35.3687"/>
<polygon fill="#5b00c0" stroke="#5b00c0" points="645.3381,-32.3185 635,-30 641.6358,-38.2593 645.3381,-32.3185"/>
<text text-anchor="middle" x="907.5" y="-51.8" font-family="Times,serif" font-size="14.00" fill="#5b00c0">rw</text>
</g>
<!-- T19247&#45;&gt;T19245 -->
<g id="edge2" class="edge">
<title>T19247:f2&#45;&gt;T19245:f1</title>
<path fill="none" stroke="#5b00c0" d="M931,-30C931,-54.3047 737.0232,-44.3118 713,-48 650.9691,-57.5234 576.0437,-19.2433 567.7551,-70.7261"/>
<polygon fill="#5b00c0" stroke="#5b00c0" points="564.2425,-70.7703 567,-81 571.2237,-71.2835 564.2425,-70.7703"/>
<text text-anchor="middle" x="720.5" y="-51.8" font-family="Times,serif" font-size="14.00" fill="#5b00c0">rw</text>
</g>
</g>
</svg>
