<?xml version="1.0" encoding="UTF-8" standalone="no"?>
<!DOCTYPE svg PUBLIC "-//W3C//DTD SVG 1.1//EN"
 "http://www.w3.org/Graphics/SVG/1.1/DTD/svg11.dtd">
<!-- Generated by graphviz version 2.40.1 (20161225.0304)
 -->
<!-- Title: a_graph Pages: 1 -->
<svg width="3241pt" height="200pt"
 viewBox="0.00 0.00 3241.00 200.00" xmlns="http://www.w3.org/2000/svg" xmlns:xlink="http://www.w3.org/1999/xlink">
<g id="graph0" class="graph" transform="scale(1 1) rotate(0) translate(4 196)">
<title>a_graph</title>
<polygon fill="#ffffff" stroke="transparent" points="-4,4 -4,-196 3237,-196 3237,4 -4,4"/>
<!-- T10973 -->
<g id="node1" class="node">
<title>T10973</title>
<polygon fill="none" stroke="#0058ad" points="666.5,-162.5 666.5,-191.5 1131.5,-191.5 1131.5,-162.5 666.5,-162.5"/>
<text text-anchor="middle" x="698.5" y="-173.3" font-family="Times,serif" font-size="14.00" fill="#0058ad">a 52 112</text>
<polyline fill="none" stroke="#0058ad" points="730.5,-162.5 730.5,-191.5 "/>
<text text-anchor="middle" x="931" y="-173.3" font-family="Times,serif" font-size="14.00" fill="#0058ad">r 58 [1 2 3 4 5 6 7 8 9 10 11 12 13 14 15 16 17 18 19 20 21 22 23 24]</text>
</g>
<!-- T10977 -->
<g id="node3" class="node">
<title>T10977</title>
<polygon fill="none" stroke="#0058ad" points="731,-81.5 731,-110.5 3233,-110.5 3233,-81.5 731,-81.5"/>
<text text-anchor="middle" x="759.5" y="-92.3" font-family="Times,serif" font-size="14.00" fill="#0058ad">a 58 25</text>
<polyline fill="none" stroke="#0058ad" points="788,-81.5 788,-110.5 "/>
<text text-anchor="middle" x="1762" y="-92.3" font-family="Times,serif" font-size="14.00" fill="#0058ad">r 52 [1 2 3 4 6 5 7 8 9 10 11 12 13 14 15 16 17 18 19 20 21 24 22 23 25 26 27 28 29 30 31 32 33 34 35 37 38 39 40 36 41 43 44 45 46 47 48 49 50 51 52 53 54 55 56 57 58 59 60 61 62 63 64 65 66 67 68 69 70 71 72 73 74 77 75 76 78 79 80 81 82 83 84 85 86 87 88 89 91 92 93 94 95 96 97 98 99 100 101 102 103 104 105 106 108 107 109 110 111]</text>
<polyline fill="none" stroke="#0058ad" points="2736,-81.5 2736,-110.5 "/>
<text text-anchor="middle" x="2801.5" y="-92.3" font-family="Times,serif" font-size="14.00" fill="#0058ad">r 59 [1 2 3 4 5 6 7 8]</text>
<polyline fill="none" stroke="#0058ad" points="2867,-81.5 2867,-110.5 "/>
<text text-anchor="middle" x="3050" y="-92.3" font-family="Times,serif" font-size="14.00" fill="#0058ad">r 56 [1 2 3 4 5 6 7 8 9 10 12 13 14 15 17 18 19 21 22 23 24 25]</text>
</g>
<!-- T10973&#45;&gt;T10977 -->
<g id="edge1" class="edge">
<title>T10973:f1&#45;&gt;T10977:f0</title>
<path fill="none" stroke="#5b00c0" d="M931,-162C931,-144.5582 799.3125,-133.8543 766.3906,-118.0969"/>
<polygon fill="#5b00c0" stroke="#5b00c0" points="768.6372,-115.4018 759,-111 763.7887,-120.4509 768.6372,-115.4018"/>
<text text-anchor="middle" x="887.5" y="-132.8" font-family="Times,serif" font-size="14.00" fill="#5b00c0">rw</text>
</g>
<!-- T10975 -->
<g id="node2" class="node">
<title>T10975</title>
<polygon fill="none" stroke="#0058ad" points="0,-.5 0,-29.5 2214,-29.5 2214,-.5 0,-.5"/>
<text text-anchor="middle" x="974" y="-11.3" font-family="Times,serif" font-size="14.00" fill="#0058ad">r 52 [1 2 3 4 6 5 7 8 9 10 11 12 13 14 15 16 17 18 19 20 21 24 22 23 25 26 27 28 29 30 31 32 33 34 35 37 38 39 40 36 41 43 44 45 46 47 48 49 50 51 52 53 54 55 56 57 58 59 60 61 62 63 64 65 66 67 68 69 70 71 72 73 74 77 75 76 78 79 80 81 82 83 84 85 86 87 88 89 91 92 93 94 95 96 97 98 99 100 101 102 103 104 105 106 108 107 109 110 111]</text>
<polyline fill="none" stroke="#0058ad" points="1948,-.5 1948,-29.5 "/>
<text text-anchor="middle" x="1973" y="-11.3" font-family="Times,serif" font-size="14.00" fill="#0058ad">a 59 9</text>
<polyline fill="none" stroke="#0058ad" points="1998,-.5 1998,-29.5 "/>
<text text-anchor="middle" x="2026.5" y="-11.3" font-family="Times,serif" font-size="14.00" fill="#0058ad">a 59 10</text>
<polyline fill="none" stroke="#0058ad" points="2055,-.5 2055,-29.5 "/>
<text text-anchor="middle" x="2134.5" y="-11.3" font-family="Times,serif" font-size="14.00" fill="#0058ad">r 59 [1 2 3 4 5 6 7 8 9 10]</text>
</g>
<!-- T10975&#45;&gt;T10973 -->
<g id="edge2" class="edge">
<title>T10975:f0&#45;&gt;T10973:f0</title>
<path fill="none" stroke="#5b00c0" d="M974,-30C974,-150.8121 789.0277,7.6962 707,-81 684.8084,-104.9957 695.3377,-122.1464 697.6058,-151.8796"/>
<polygon fill="#5b00c0" stroke="#5b00c0" points="694.1134,-152.1438 698,-162 701.1081,-151.8713 694.1134,-152.1438"/>
<text text-anchor="middle" x="714.5" y="-92.3" font-family="Times,serif" font-size="14.00" fill="#5b00c0">rw</text>
</g>
<!-- T10977&#45;&gt;T10973 -->
<g id="edge3" class="edge">
<title>T10977:f1&#45;&gt;T10973:f0</title>
<path fill="none" stroke="#5b00c0" d="M1762,-111C1762,-137.9769 817.5422,-124.1768 791,-129 772.7954,-132.3081 719.1031,-137.9153 702.7686,-152.7591"/>
<polygon fill="#5b00c0" stroke="#5b00c0" points="699.4755,-151.5084 698,-162 705.6961,-154.7185 699.4755,-151.5084"/>
<text text-anchor="middle" x="798.5" y="-132.8" font-family="Times,serif" font-size="14.00" fill="#5b00c0">rw</text>
</g>
<!-- T10977&#45;&gt;T10975 -->
<g id="edge4" class="edge">
<title>T10977:f2&#45;&gt;T10975:f1</title>
<path fill="none" stroke="#5b00c0" d="M2802,-81C2802,99.9656 2005.0666,-202.3349 1973.9364,-40.2469"/>
<polygon fill="#5b00c0" stroke="#5b00c0" points="1977.3956,-39.64 1973,-30 1970.4246,-40.277 1977.3956,-39.64"/>
<text text-anchor="middle" x="2805.5" y="-51.8" font-family="Times,serif" font-size="14.00" fill="#5b00c0">rw</text>
</g>
</g>
</svg>
