<?xml version="1.0" encoding="UTF-8" standalone="no"?>
<!DOCTYPE svg PUBLIC "-//W3C//DTD SVG 1.1//EN"
 "http://www.w3.org/Graphics/SVG/1.1/DTD/svg11.dtd">
<!-- Generated by graphviz version 2.40.1 (20161225.0304)
 -->
<!-- Title: a_graph Pages: 1 -->
<svg width="2520pt" height="200pt"
 viewBox="0.00 0.00 2520.00 200.00" xmlns="http://www.w3.org/2000/svg" xmlns:xlink="http://www.w3.org/1999/xlink">
<g id="graph0" class="graph" transform="scale(1 1) rotate(0) translate(4 196)">
<title>a_graph</title>
<polygon fill="#ffffff" stroke="transparent" points="-4,4 -4,-196 2516,-196 2516,4 -4,4"/>
<!-- T18289 -->
<g id="node1" class="node">
<title>T18289</title>
<polygon fill="none" stroke="#0058ad" points="46,-162.5 46,-191.5 609,-191.5 609,-162.5 46,-162.5"/>
<text text-anchor="middle" x="327.5" y="-173.3" font-family="Times,serif" font-size="14.00" fill="#0058ad">r 94 [1 2 4 6 5 3 8 9 10 11 12 14 15 13 16 17 18 19 20 21 22 23 24 25 26 27 28 29 30 31 32 33 34]</text>
</g>
<!-- T18293 -->
<g id="node2" class="node">
<title>T18293</title>
<polygon fill="none" stroke="#0058ad" points="339,-81.5 339,-110.5 2512,-110.5 2512,-81.5 339,-81.5"/>
<text text-anchor="middle" x="367.5" y="-92.3" font-family="Times,serif" font-size="14.00" fill="#0058ad">a 94 35</text>
<polyline fill="none" stroke="#0058ad" points="396,-81.5 396,-110.5 "/>
<text text-anchor="middle" x="1397" y="-92.3" font-family="Times,serif" font-size="14.00" fill="#0058ad">r 93 [2 3 1 7 8 9 10 4 14 12 15 16 17 18 19 20 21 22 25 26 23 24 27 29 28 31 32 33 35 34 30 36 37 39 40 38 42 43 44 41 47 48 51 52 53 45 46 57 56 55 59 60 62 63 61 65 66 64 67 68 69 71 72 73 74 75 76 77 70 79 78 80 81 82 83 84 87 89 90 91 92 93 88 94 85 86 96 95 97 98 101 99 100 102 103 104 105 107 108 106 109 110 111 112 114 113 115 116 117]</text>
<polyline fill="none" stroke="#0058ad" points="2398,-81.5 2398,-110.5 "/>
<text text-anchor="middle" x="2426.5" y="-92.3" font-family="Times,serif" font-size="14.00" fill="#0058ad">a 94 36</text>
<polyline fill="none" stroke="#0058ad" points="2455,-81.5 2455,-110.5 "/>
<text text-anchor="middle" x="2483.5" y="-92.3" font-family="Times,serif" font-size="14.00" fill="#0058ad">a 94 37</text>
</g>
<!-- T18289&#45;&gt;T18293 -->
<g id="edge1" class="edge">
<title>T18289:f0&#45;&gt;T18293:f0</title>
<path fill="none" stroke="#5b00c0" d="M342.8506,-162.2592C352.1921,-151.9335 362.9661,-137.1557 366.3937,-121.1191"/>
<polygon fill="#5b00c0" stroke="#5b00c0" points="369.8924,-121.3212 367.5,-111 362.9338,-120.5603 369.8924,-121.3212"/>
<text text-anchor="middle" x="372" y="-132.8" font-family="Times,serif" font-size="14.00" fill="#5b00c0">rw</text>
</g>
<!-- T18287 -->
<g id="node3" class="node">
<title>T18287</title>
<polygon fill="none" stroke="#0058ad" points="0,-.5 0,-29.5 627,-29.5 627,-.5 0,-.5"/>
<text text-anchor="middle" x="281.5" y="-11.3" font-family="Times,serif" font-size="14.00" fill="#0058ad">r 94 [1 2 4 6 5 3 8 9 10 11 12 14 15 13 16 17 18 19 20 21 22 23 24 25 26 27 28 29 30 31 32 33 34]</text>
<polyline fill="none" stroke="#0058ad" points="563,-.5 563,-29.5 "/>
<text text-anchor="middle" x="595" y="-11.3" font-family="Times,serif" font-size="14.00" fill="#0058ad">a 93 118</text>
</g>
<!-- T18293&#45;&gt;T18287 -->
<g id="edge2" class="edge">
<title>T18293:f1&#45;&gt;T18287:f1</title>
<path fill="none" stroke="#5b00c0" d="M1396.5,-81C1396.5,-40.0888 735.5052,-17.164 637.5861,-15.1458"/>
<polygon fill="#5b00c0" stroke="#5b00c0" points="637.5496,-11.645 627.5,-15 637.4483,-18.6443 637.5496,-11.645"/>
<text text-anchor="middle" x="1354" y="-51.8" font-family="Times,serif" font-size="14.00" fill="#5b00c0">rw</text>
</g>
<!-- T18287&#45;&gt;T18289 -->
<g id="edge3" class="edge">
<title>T18287&#45;&gt;T18289</title>
<path fill="none" stroke="#0050c0" d="M314.418,-29.6498C315.6328,-48.487 317.9239,-82.2051 320.5,-111 321.723,-124.6699 323.3233,-139.9069 324.685,-152.2935"/>
<polygon fill="#0050c0" stroke="#0050c0" points="321.2179,-152.7835 325.8048,-162.3339 328.1747,-152.0075 321.2179,-152.7835"/>
<text text-anchor="middle" x="325" y="-92.3" font-family="Times,serif" font-size="14.00" fill="#0050c0">rt</text>
</g>
<!-- T18287&#45;&gt;T18293 -->
<g id="edge4" class="edge">
<title>T18287:f0&#45;&gt;T18293:f0</title>
<path fill="none" stroke="#5b00c0" d="M281.5,-30C281.5,-30.9557 316.2352,-71.4961 331.4842,-88.5565"/>
<polygon fill="#5b00c0" stroke="#5b00c0" points="329.0941,-91.1236 338.5,-96 334.188,-86.3223 329.0941,-91.1236"/>
<text text-anchor="middle" x="316" y="-51.8" font-family="Times,serif" font-size="14.00" fill="#5b00c0">rw</text>
</g>
</g>
</svg>
