<?xml version="1.0" encoding="UTF-8" standalone="no"?>
<!DOCTYPE svg PUBLIC "-//W3C//DTD SVG 1.1//EN"
 "http://www.w3.org/Graphics/SVG/1.1/DTD/svg11.dtd">
<!-- Generated by graphviz version 2.40.1 (20161225.0304)
 -->
<!-- Title: a_graph Pages: 1 -->
<svg width="2274pt" height="119pt"
 viewBox="0.00 0.00 2274.00 119.00" xmlns="http://www.w3.org/2000/svg" xmlns:xlink="http://www.w3.org/1999/xlink">
<g id="graph0" class="graph" transform="scale(1 1) rotate(0) translate(4 115)">
<title>a_graph</title>
<polygon fill="#ffffff" stroke="transparent" points="-4,4 -4,-115 2270,-115 2270,4 -4,4"/>
<!-- T8893 -->
<g id="node1" class="node">
<title>T8893</title>
<polygon fill="none" stroke="#0058ad" points="0,-81.5 0,-110.5 2266,-110.5 2266,-81.5 0,-81.5"/>
<text text-anchor="middle" x="28.5" y="-92.3" font-family="Times,serif" font-size="14.00" fill="#0058ad">a 48 91</text>
<polyline fill="none" stroke="#0058ad" points="57,-81.5 57,-110.5 "/>
<text text-anchor="middle" x="790" y="-92.3" font-family="Times,serif" font-size="14.00" fill="#0058ad">r 48 [1 10 9 11 12 13 14 15 16 17 18 19 20 21 24 22 23 25 26 27 28 29 30 31 32 33 34 35 36 37 38 39 40 41 42 43 46 44 45 49 47 48 50 51 52 54 55 53 56 57 58 60 61 62 63 59 64 65 66 67 68 69 70 71 72 73 74 75 76 77 78 79 80 81 82 84 85 86 87 88 89 90 91]</text>
<polyline fill="none" stroke="#0058ad" points="1523,-81.5 1523,-110.5 "/>
<text text-anchor="middle" x="1894.5" y="-92.3" font-family="Times,serif" font-size="14.00" fill="#0058ad">r 45 [68 69 64 71 72 73 74 75 76 77 78 79 80 81 82 83 84 85 86 87 88 89 90 91 92 93 94 95 96 97 98 99 100 101 102 103 104 105]</text>
</g>
<!-- T8894 -->
<g id="node2" class="node">
<title>T8894</title>
<polygon fill="none" stroke="#0058ad" points="552,-.5 552,-29.5 2064,-29.5 2064,-.5 552,-.5"/>
<text text-anchor="middle" x="584" y="-11.3" font-family="Times,serif" font-size="14.00" fill="#0058ad">a 45 108</text>
<polyline fill="none" stroke="#0058ad" points="616,-.5 616,-29.5 "/>
<text text-anchor="middle" x="1340" y="-11.3" font-family="Times,serif" font-size="14.00" fill="#0058ad">r 48 [1 10 9 11 12 13 14 15 16 17 18 19 20 21 24 22 23 25 26 27 28 29 30 31 32 33 34 35 36 37 38 39 40 41 42 43 46 44 45 49 47 48 50 51 52 54 55 53 56 57 58 60 61 62 63 59 64 65 66 67 68 69 70 71 72 73 74 75 76 77 78 79 80 81 82 84 85 86 87 88 89 90]</text>
</g>
<!-- T8893&#45;&gt;T8894 -->
<g id="edge1" class="edge">
<title>T8893:f2&#45;&gt;T8894:f0</title>
<path fill="none" stroke="#5b00c0" d="M1895,-81C1895,61.2178 647.2323,-164.2613 586.3061,-39.9974"/>
<polygon fill="#5b00c0" stroke="#5b00c0" points="589.6582,-38.9574 584,-30 582.8373,-40.5308 589.6582,-38.9574"/>
<text text-anchor="middle" x="1888.5" y="-51.8" font-family="Times,serif" font-size="14.00" fill="#5b00c0">rw</text>
</g>
<!-- T8894&#45;&gt;T8893 -->
<g id="edge2" class="edge">
<title>T8894:f1&#45;&gt;T8893:f0</title>
<path fill="none" stroke="#5b00c0" d="M1340,-30C1340,-51.1726 599.1541,-47.1158 578,-48 459.2488,-52.9635 52.7964,35.9872 29.0828,-70.7893"/>
<polygon fill="#5b00c0" stroke="#5b00c0" points="25.5741,-70.6866 28,-81 32.5351,-71.4249 25.5741,-70.6866"/>
<text text-anchor="middle" x="585.5" y="-51.8" font-family="Times,serif" font-size="14.00" fill="#5b00c0">rw</text>
</g>
</g>
</svg>
