<?xml version="1.0" encoding="UTF-8" standalone="no"?>
<!DOCTYPE svg PUBLIC "-//W3C//DTD SVG 1.1//EN"
 "http://www.w3.org/Graphics/SVG/1.1/DTD/svg11.dtd">
<!-- Generated by graphviz version 2.40.1 (20161225.0304)
 -->
<!-- Title: a_graph Pages: 1 -->
<svg width="924pt" height="281pt"
 viewBox="0.00 0.00 924.00 281.00" xmlns="http://www.w3.org/2000/svg" xmlns:xlink="http://www.w3.org/1999/xlink">
<g id="graph0" class="graph" transform="scale(1 1) rotate(0) translate(4 277)">
<title>a_graph</title>
<polygon fill="#ffffff" stroke="transparent" points="-4,4 -4,-277 920,-277 920,4 -4,4"/>
<!-- T6623 -->
<g id="node1" class="node">
<title>T6623</title>
<polygon fill="none" stroke="#0058ad" points="617.5,-243.5 617.5,-272.5 766.5,-272.5 766.5,-243.5 617.5,-243.5"/>
<text text-anchor="middle" x="692" y="-254.3" font-family="Times,serif" font-size="14.00" fill="#0058ad">r 39 [2 3 4 1 6 7 5 9 10]</text>
</g>
<!-- T6625 -->
<g id="node3" class="node">
<title>T6625</title>
<polygon fill="none" stroke="#0058ad" points="132,-162.5 132,-191.5 860,-191.5 860,-162.5 132,-162.5"/>
<text text-anchor="middle" x="496" y="-173.3" font-family="Times,serif" font-size="14.00" fill="#0058ad">r 37 [2 3 1 4 5 6 7 8 9 10 14 15 13 16 17 11 12 18 19 20 22 23 24 21 26 27 25 29 30 31 32 33 28 35 36 34 37 40 41 45 39 46 47]</text>
</g>
<!-- T6623&#45;&gt;T6625 -->
<g id="edge1" class="edge">
<title>T6623&#45;&gt;T6625</title>
<path fill="none" stroke="#0050c0" d="M656.5059,-243.3315C624.0368,-229.9132 575.8567,-210.002 540.7587,-195.4972"/>
<polygon fill="#0050c0" stroke="#0050c0" points="541.8088,-192.1441 531.2301,-191.5594 539.1352,-198.6134 541.8088,-192.1441"/>
<text text-anchor="middle" x="615.5" y="-213.8" font-family="Times,serif" font-size="14.00" fill="#0050c0">rt</text>
</g>
<!-- T6627 -->
<g id="node2" class="node">
<title>T6627</title>
<polygon fill="none" stroke="#0058ad" points="368,-81.5 368,-110.5 756,-110.5 756,-81.5 368,-81.5"/>
<text text-anchor="middle" x="418" y="-92.3" font-family="Times,serif" font-size="14.00" fill="#0058ad">r 38 [1 2 3 4 5]</text>
<polyline fill="none" stroke="#0058ad" points="468,-81.5 468,-110.5 "/>
<text text-anchor="middle" x="496.5" y="-92.3" font-family="Times,serif" font-size="14.00" fill="#0058ad">a 37 49</text>
<polyline fill="none" stroke="#0058ad" points="525,-81.5 525,-110.5 "/>
<text text-anchor="middle" x="590.5" y="-92.3" font-family="Times,serif" font-size="14.00" fill="#0058ad">r 39 [2 3 4 1 6 7 5 9]</text>
<polyline fill="none" stroke="#0058ad" points="656,-81.5 656,-110.5 "/>
<text text-anchor="middle" x="706" y="-92.3" font-family="Times,serif" font-size="14.00" fill="#0058ad">r 38 [1 2 3 4 5]</text>
</g>
<!-- T6621 -->
<g id="node4" class="node">
<title>T6621</title>
<polygon fill="none" stroke="#0058ad" points="0,-.5 0,-29.5 916,-29.5 916,-.5 0,-.5"/>
<text text-anchor="middle" x="65.5" y="-11.3" font-family="Times,serif" font-size="14.00" fill="#0058ad">r 39 [2 3 4 1 6 7 5 9]</text>
<polyline fill="none" stroke="#0058ad" points="131,-.5 131,-29.5 "/>
<text text-anchor="middle" x="495" y="-11.3" font-family="Times,serif" font-size="14.00" fill="#0058ad">r 37 [2 3 1 4 5 6 7 8 9 10 14 15 13 16 17 11 12 18 19 20 22 23 24 21 26 27 25 29 30 31 32 33 28 35 36 34 37 40 41 45 39 46 47]</text>
<polyline fill="none" stroke="#0058ad" points="859,-.5 859,-29.5 "/>
<text text-anchor="middle" x="887.5" y="-11.3" font-family="Times,serif" font-size="14.00" fill="#0058ad">a 39 10</text>
</g>
<!-- T6627&#45;&gt;T6621 -->
<g id="edge2" class="edge">
<title>T6627:f2&#45;&gt;T6621:f2</title>
<path fill="none" stroke="#5b00c0" d="M591,-81C591,-50.4598 838.0872,-61.0585 881.5205,-37.7497"/>
<polygon fill="#5b00c0" stroke="#5b00c0" points="884.2708,-39.9168 888,-30 878.9005,-35.4268 884.2708,-39.9168"/>
<text text-anchor="middle" x="838.5" y="-51.8" font-family="Times,serif" font-size="14.00" fill="#5b00c0">rw</text>
</g>
<!-- T6625&#45;&gt;T6627 -->
<g id="edge3" class="edge">
<title>T6625:f0&#45;&gt;T6627:f1</title>
<path fill="none" stroke="#5b00c0" d="M496,-162.3204C496,-151.4532 496,-136.0147 496,-121.1425"/>
<polygon fill="#5b00c0" stroke="#5b00c0" points="499.5001,-121 496,-111 492.5001,-121 499.5001,-121"/>
<text text-anchor="middle" x="503.5" y="-132.8" font-family="Times,serif" font-size="14.00" fill="#5b00c0">rw</text>
</g>
<!-- T6621&#45;&gt;T6623 -->
<g id="edge5" class="edge">
<title>T6621:f2&#45;&gt;T6623:f0</title>
<path fill="none" stroke="#c000a5" d="M888,-30C888,-102.4935 913.7509,-134.9678 869,-192 854.8837,-209.9903 803.6237,-227.9655 759.8762,-240.6035"/>
<polygon fill="#c000a5" stroke="#c000a5" points="758.7638,-237.2809 750.0985,-243.3771 760.6741,-244.0152 758.7638,-237.2809"/>
<text text-anchor="middle" x="902.5" y="-132.8" font-family="Times,serif" font-size="14.00" fill="#c000a5">wr</text>
</g>
<!-- T6621&#45;&gt;T6627 -->
<g id="edge4" class="edge">
<title>T6621:f1&#45;&gt;T6627:f1</title>
<path fill="none" stroke="#5b00c0" d="M495,-30C495,-48.7744 495.6858,-55.8815 495.9215,-70.6452"/>
<polygon fill="#5b00c0" stroke="#5b00c0" points="492.4242,-71.0268 496,-81 499.424,-70.9737 492.4242,-71.0268"/>
<text text-anchor="middle" x="503.5" y="-51.8" font-family="Times,serif" font-size="14.00" fill="#5b00c0">rw</text>
</g>
</g>
</svg>
