<?xml version="1.0" encoding="UTF-8" standalone="no"?>
<!DOCTYPE svg PUBLIC "-//W3C//DTD SVG 1.1//EN"
 "http://www.w3.org/Graphics/SVG/1.1/DTD/svg11.dtd">
<!-- Generated by graphviz version 2.40.1 (20161225.0304)
 -->
<!-- Title: a_graph Pages: 1 -->
<svg width="1554pt" height="281pt"
 viewBox="0.00 0.00 1554.00 281.00" xmlns="http://www.w3.org/2000/svg" xmlns:xlink="http://www.w3.org/1999/xlink">
<g id="graph0" class="graph" transform="scale(1 1) rotate(0) translate(4 277)">
<title>a_graph</title>
<polygon fill="#ffffff" stroke="transparent" points="-4,4 -4,-277 1550,-277 1550,4 -4,4"/>
<!-- T2485 -->
<g id="node1" class="node">
<title>T2485</title>
<polygon fill="none" stroke="#0058ad" points="902,-243.5 902,-272.5 1546,-272.5 1546,-243.5 902,-243.5"/>
<text text-anchor="middle" x="1089.5" y="-254.3" font-family="Times,serif" font-size="14.00" fill="#0058ad">r 16 [37 40 42 43 46 44 45 51 52 53 55 59 58 60 61 62 63 64 66]</text>
<polyline fill="none" stroke="#0058ad" points="1277,-243.5 1277,-272.5 "/>
<text text-anchor="middle" x="1411.5" y="-254.3" font-family="Times,serif" font-size="14.00" fill="#0058ad">r 18 [1 3 4 5 6 7 9 8 12 10 11 14 13 15 16 17]</text>
</g>
<!-- T2489 -->
<g id="node3" class="node">
<title>T2489</title>
<polygon fill="none" stroke="#0058ad" points="94,-162.5 94,-191.5 1440,-191.5 1440,-162.5 94,-162.5"/>
<text text-anchor="middle" x="281.5" y="-173.3" font-family="Times,serif" font-size="14.00" fill="#0058ad">r 16 [37 40 42 43 46 44 45 51 52 53 55 59 58 60 61 62 63 64 66]</text>
<polyline fill="none" stroke="#0058ad" points="469,-162.5 469,-191.5 "/>
<text text-anchor="middle" x="738.5" y="-173.3" font-family="Times,serif" font-size="14.00" fill="#0058ad">r 19 [2 3 4 5 1 6 9 10 13 14 15 7 16 17 18 19 20 8 22 21 23 25 26 27 28 29 33 34 30 31 32 35]</text>
<polyline fill="none" stroke="#0058ad" points="1008,-162.5 1008,-191.5 "/>
<text text-anchor="middle" x="1195.5" y="-173.3" font-family="Times,serif" font-size="14.00" fill="#0058ad">r 16 [37 40 42 43 46 44 45 51 52 53 55 59 58 60 61 62 63 64 66]</text>
<polyline fill="none" stroke="#0058ad" points="1383,-162.5 1383,-191.5 "/>
<text text-anchor="middle" x="1411.5" y="-173.3" font-family="Times,serif" font-size="14.00" fill="#0058ad">a 18 18</text>
</g>
<!-- T2485&#45;&gt;T2489 -->
<g id="edge1" class="edge">
<title>T2485:f1&#45;&gt;T2489:f3</title>
<path fill="none" stroke="#5b00c0" d="M1412,-243C1412,-224.2292 1412,-217.1168 1412,-202.3535"/>
<polygon fill="#5b00c0" stroke="#5b00c0" points="1415.5001,-202 1412,-192 1408.5001,-202 1415.5001,-202"/>
<text text-anchor="middle" x="1419.5" y="-213.8" font-family="Times,serif" font-size="14.00" fill="#5b00c0">rw</text>
</g>
<!-- T2487 -->
<g id="node4" class="node">
<title>T2487</title>
<polygon fill="none" stroke="#0058ad" points="0,-81.5 0,-110.5 366,-110.5 366,-81.5 0,-81.5"/>
<text text-anchor="middle" x="126" y="-92.3" font-family="Times,serif" font-size="14.00" fill="#0058ad">r 18 [1 3 4 5 6 7 9 8 12 10 11 14 13 15 16]</text>
<polyline fill="none" stroke="#0058ad" points="252,-81.5 252,-110.5 "/>
<text text-anchor="middle" x="280.5" y="-92.3" font-family="Times,serif" font-size="14.00" fill="#0058ad">a 16 65</text>
<polyline fill="none" stroke="#0058ad" points="309,-81.5 309,-110.5 "/>
<text text-anchor="middle" x="337.5" y="-92.3" font-family="Times,serif" font-size="14.00" fill="#0058ad">a 19 24</text>
</g>
<!-- T2485&#45;&gt;T2487 -->
<g id="edge2" class="edge">
<title>T2485:f0&#45;&gt;T2487:f1</title>
<path fill="none" stroke="#5b00c0" d="M902,-258C855.6326,-258 101.4637,-226.0584 70,-192 60.9524,-182.2062 61.7535,-172.4772 70,-162 97.5045,-127.0555 253.6167,-154.1936 277.8413,-120.8538"/>
<polygon fill="#5b00c0" stroke="#5b00c0" points="281.2803,-121.5911 281,-111 274.6144,-119.4543 281.2803,-121.5911"/>
<text text-anchor="middle" x="77.5" y="-173.3" font-family="Times,serif" font-size="14.00" fill="#5b00c0">rw</text>
</g>
<!-- T2483 -->
<g id="node2" class="node">
<title>T2483</title>
<polygon fill="none" stroke="#0058ad" points="1383.5,-.5 1383.5,-29.5 1440.5,-29.5 1440.5,-.5 1383.5,-.5"/>
<text text-anchor="middle" x="1412" y="-11.3" font-family="Times,serif" font-size="14.00" fill="#0058ad">a 18 17</text>
</g>
<!-- T2483&#45;&gt;T2485 -->
<g id="edge4" class="edge">
<title>T2483:f0&#45;&gt;T2485:f1</title>
<path fill="none" stroke="#c000a5" d="M1418.613,-29.6507C1421.0704,-35.3278 1423.7944,-41.915 1426,-48 1443.6134,-96.594 1444.8916,-110.476 1449,-162 1450.0598,-175.2911 1452.2945,-179.0801 1449,-192 1444.872,-208.1886 1441.1887,-211.7598 1431,-225 1426.8988,-230.3295 1421.1892,-231.6251 1417.1018,-234.0173"/>
<polygon fill="#c000a5" stroke="#c000a5" points="1413.8953,-232.576 1412,-243 1419.9821,-236.0331 1413.8953,-232.576"/>
<text text-anchor="middle" x="1454.5" y="-132.8" font-family="Times,serif" font-size="14.00" fill="#c000a5">wr</text>
</g>
<!-- T2483&#45;&gt;T2489 -->
<g id="edge3" class="edge">
<title>T2483:f0&#45;&gt;T2489:f3</title>
<path fill="none" stroke="#c02700" d="M1412,-29.6051C1412,-54.2178 1412,-105.7961 1412,-151.9425"/>
<polygon fill="#c02700" stroke="#c02700" points="1408.5001,-152 1412,-162 1415.5001,-152 1408.5001,-152"/>
<text text-anchor="middle" x="1422" y="-92.3" font-family="Times,serif" font-size="14.00" fill="#c02700">ww</text>
</g>
<!-- T2489&#45;&gt;T2487 -->
<g id="edge5" class="edge">
<title>T2489:f0&#45;&gt;T2487:f1</title>
<path fill="none" stroke="#5b00c0" d="M281,-162C281,-143.2292 281,-136.1168 281,-121.3535"/>
<polygon fill="#5b00c0" stroke="#5b00c0" points="284.5001,-121 281,-111 277.5001,-121 284.5001,-121"/>
<text text-anchor="middle" x="288.5" y="-132.8" font-family="Times,serif" font-size="14.00" fill="#5b00c0">rw</text>
</g>
<!-- T2487&#45;&gt;T2483 -->
<g id="edge6" class="edge">
<title>T2487:f0&#45;&gt;T2483:f0</title>
<path fill="none" stroke="#5b00c0" d="M126,-81C126,-13.3078 1241.0206,-46.1026 1375.5033,-31.1857"/>
<polygon fill="#5b00c0" stroke="#5b00c0" points="1376.2964,-34.6025 1385.5987,-29.5313 1375.1643,-27.6946 1376.2964,-34.6025"/>
<text text-anchor="middle" x="281.5" y="-51.8" font-family="Times,serif" font-size="14.00" fill="#5b00c0">rw</text>
</g>
</g>
</svg>
