<?xml version="1.0" encoding="UTF-8" standalone="no"?>
<!DOCTYPE svg PUBLIC "-//W3C//DTD SVG 1.1//EN"
 "http://www.w3.org/Graphics/SVG/1.1/DTD/svg11.dtd">
<!-- Generated by graphviz version 2.40.1 (20161225.0304)
 -->
<!-- Title: a_graph Pages: 1 -->
<svg width="4837pt" height="200pt"
 viewBox="0.00 0.00 4836.50 200.00" xmlns="http://www.w3.org/2000/svg" xmlns:xlink="http://www.w3.org/1999/xlink">
<g id="graph0" class="graph" transform="scale(1 1) rotate(0) translate(4 196)">
<title>a_graph</title>
<polygon fill="#ffffff" stroke="transparent" points="-4,4 -4,-196 4832.5,-196 4832.5,4 -4,4"/>
<!-- T6035 -->
<g id="node1" class="node">
<title>T6035</title>
<polygon fill="none" stroke="#0058ad" points="1295.5,-162.5 1295.5,-191.5 4828.5,-191.5 4828.5,-162.5 1295.5,-162.5"/>
<text text-anchor="middle" x="1327.5" y="-173.3" font-family="Times,serif" font-size="14.00" fill="#0058ad">a 33 119</text>
<polyline fill="none" stroke="#0058ad" points="1359.5,-162.5 1359.5,-191.5 "/>
<text text-anchor="middle" x="2410.5" y="-173.3" font-family="Times,serif" font-size="14.00" fill="#0058ad">r 33 [3 5 2 6 7 9 4 12 13 10 11 14 17 18 16 19 20 21 15 22 23 24 25 26 27 28 29 30 32 31 33 34 35 36 38 39 42 40 41 46 47 43 44 45 48 50 51 49 54 55 57 52 53 58 61 62 60 63 64 65 67 66 71 69 70 73 74 72 68 75 76 77 78 79 80 81 82 83 85 86 87 88 84 89 90 92 93 94 91 95 97 98 99 96 101 102 103 104 105 106 107 108 100 109 110 113 111 112 114 115 117 116 118 119]</text>
<polyline fill="none" stroke="#0058ad" points="3461.5,-162.5 3461.5,-191.5 "/>
<text text-anchor="middle" x="4145" y="-173.3" font-family="Times,serif" font-size="14.00" fill="#0058ad">r 31 [2 1 3 4 5 6 7 8 9 10 11 12 13 14 15 16 17 18 19 20 21 23 22 24 25 26 28 27 30 31 32 34 35 36 33 37 39 38 40 42 41 43 44 45 46 49 47 48 50 51 52 53 54 55 56 57 58 59 60 61 64 65 66 67 68 69 70 71 72 74 75 73 76 77 78 79 80 81 83 82]</text>
</g>
<!-- T6029 -->
<g id="node3" class="node">
<title>T6029</title>
<polygon fill="none" stroke="#0058ad" points="2038.5,-81.5 2038.5,-110.5 4173.5,-110.5 4173.5,-81.5 2038.5,-81.5"/>
<text text-anchor="middle" x="3077.5" y="-92.3" font-family="Times,serif" font-size="14.00" fill="#0058ad">r 33 [3 5 2 6 7 9 4 12 13 10 11 14 17 18 16 19 20 21 15 22 23 24 25 26 27 28 29 30 32 31 33 34 35 36 38 39 42 40 41 46 47 43 44 45 48 50 51 49 54 55 57 52 53 58 61 62 60 63 64 65 67 66 71 69 70 73 74 72 68 75 76 77 78 79 80 81 82 83 85 86 87 88 84 89 90 92 93 94 91 95 97 98 99 96 101 102 103 104 105 106 107 108 100 109 110 113 111 112 114 115 117 116 118]</text>
<polyline fill="none" stroke="#0058ad" points="4116.5,-81.5 4116.5,-110.5 "/>
<text text-anchor="middle" x="4145" y="-92.3" font-family="Times,serif" font-size="14.00" fill="#0058ad">a 31 85</text>
</g>
<!-- T6035&#45;&gt;T6029 -->
<g id="edge1" class="edge">
<title>T6035:f2&#45;&gt;T6029:f1</title>
<path fill="none" stroke="#5b00c0" d="M4145,-162C4145,-143.2292 4145,-136.1168 4145,-121.3535"/>
<polygon fill="#5b00c0" stroke="#5b00c0" points="4148.5001,-121 4145,-111 4141.5001,-121 4148.5001,-121"/>
<text text-anchor="middle" x="4152.5" y="-132.8" font-family="Times,serif" font-size="14.00" fill="#5b00c0">rw</text>
</g>
<!-- T6031 -->
<g id="node2" class="node">
<title>T6031</title>
<polygon fill="none" stroke="#0058ad" points="0,-.5 0,-29.5 4270,-29.5 4270,-.5 0,-.5"/>
<text text-anchor="middle" x="1039" y="-11.3" font-family="Times,serif" font-size="14.00" fill="#0058ad">r 33 [3 5 2 6 7 9 4 12 13 10 11 14 17 18 16 19 20 21 15 22 23 24 25 26 27 28 29 30 32 31 33 34 35 36 38 39 42 40 41 46 47 43 44 45 48 50 51 49 54 55 57 52 53 58 61 62 60 63 64 65 67 66 71 69 70 73 74 72 68 75 76 77 78 79 80 81 82 83 85 86 87 88 84 89 90 92 93 94 91 95 97 98 99 96 101 102 103 104 105 106 107 108 100 109 110 113 111 112 114 115 117 116 118]</text>
<polyline fill="none" stroke="#0058ad" points="2078,-.5 2078,-29.5 "/>
<text text-anchor="middle" x="3117" y="-11.3" font-family="Times,serif" font-size="14.00" fill="#0058ad">r 33 [3 5 2 6 7 9 4 12 13 10 11 14 17 18 16 19 20 21 15 22 23 24 25 26 27 28 29 30 32 31 33 34 35 36 38 39 42 40 41 46 47 43 44 45 48 50 51 49 54 55 57 52 53 58 61 62 60 63 64 65 67 66 71 69 70 73 74 72 68 75 76 77 78 79 80 81 82 83 85 86 87 88 84 89 90 92 93 94 91 95 97 98 99 96 101 102 103 104 105 106 107 108 100 109 110 113 111 112 114 115 117 116 118]</text>
<polyline fill="none" stroke="#0058ad" points="4156,-.5 4156,-29.5 "/>
<text text-anchor="middle" x="4184.5" y="-11.3" font-family="Times,serif" font-size="14.00" fill="#0058ad">a 34 62</text>
<polyline fill="none" stroke="#0058ad" points="4213,-.5 4213,-29.5 "/>
<text text-anchor="middle" x="4241.5" y="-11.3" font-family="Times,serif" font-size="14.00" fill="#0058ad">a 31 84</text>
</g>
<!-- T6031&#45;&gt;T6035 -->
<g id="edge2" class="edge">
<title>T6031:f0&#45;&gt;T6035:f0</title>
<path fill="none" stroke="#5b00c0" d="M1039,-30C1039,-157.7421 1157.3041,-176.0866 1284.6373,-176.9652"/>
<polygon fill="#5b00c0" stroke="#5b00c0" points="1284.9883,-180.4663 1295,-177 1285.0118,-173.4664 1284.9883,-180.4663"/>
<text text-anchor="middle" x="1069.5" y="-92.3" font-family="Times,serif" font-size="14.00" fill="#5b00c0">rw</text>
</g>
<!-- T6029&#45;&gt;T6035 -->
<g id="edge4" class="edge">
<title>T6029:f0&#45;&gt;T6035:f0</title>
<path fill="none" stroke="#5b00c0" d="M2038,-96C2000.7321,-96 1405.9783,-119.2383 1334.0939,-154.9439"/>
<polygon fill="#5b00c0" stroke="#5b00c0" points="1331.6217,-152.4664 1327,-162 1336.5582,-157.4293 1331.6217,-152.4664"/>
<text text-anchor="middle" x="1481.5" y="-132.8" font-family="Times,serif" font-size="14.00" fill="#5b00c0">rw</text>
</g>
<!-- T6029&#45;&gt;T6031 -->
<g id="edge3" class="edge">
<title>T6029:f1&#45;&gt;T6031:f3</title>
<path fill="none" stroke="#c02700" d="M4174,-96C4212.6619,-96 4237.6443,-75.8744 4241.4828,-39.9935"/>
<polygon fill="#c02700" stroke="#c02700" points="4244.9784,-40.1676 4242,-30 4237.9878,-39.8057 4244.9784,-40.1676"/>
<text text-anchor="middle" x="4250" y="-51.8" font-family="Times,serif" font-size="14.00" fill="#c02700">ww</text>
</g>
</g>
</svg>
