<?xml version="1.0" encoding="UTF-8" standalone="no"?>
<!DOCTYPE svg PUBLIC "-//W3C//DTD SVG 1.1//EN"
 "http://www.w3.org/Graphics/SVG/1.1/DTD/svg11.dtd">
<!-- Generated by graphviz version 2.40.1 (20161225.0304)
 -->
<!-- Title: a_graph Pages: 1 -->
<svg width="1433pt" height="200pt"
 viewBox="0.00 0.00 1433.00 200.00" xmlns="http://www.w3.org/2000/svg" xmlns:xlink="http://www.w3.org/1999/xlink">
<g id="graph0" class="graph" transform="scale(1 1) rotate(0) translate(4 196)">
<title>a_graph</title>
<polygon fill="#ffffff" stroke="transparent" points="-4,4 -4,-196 1429,-196 1429,4 -4,4"/>
<!-- T9521 -->
<g id="node1" class="node">
<title>T9521</title>
<polygon fill="none" stroke="#0058ad" points="98,-162.5 98,-191.5 1413,-191.5 1413,-162.5 98,-162.5"/>
<text text-anchor="middle" x="755.5" y="-173.3" font-family="Times,serif" font-size="14.00" fill="#0058ad">r 50 [1 2 3 4 5 6 7 8 9 10 11 12 13 14 15 16 17 18 19 21 20 22 24 25 23 26 27 28 29 30 31 32 33 34 35 38 36 37 39 40 41 42 43 44 45 46 47 48 49 50 52 51 53 54 55 56 57 58 59 60 61 62 63 64 65 66 67 68 69 70 71 72 73 74 75 76 77]</text>
</g>
<!-- T9517 -->
<g id="node3" class="node">
<title>T9517</title>
<polygon fill="none" stroke="#0058ad" points="86,-81.5 86,-110.5 1425,-110.5 1425,-81.5 86,-81.5"/>
<text text-anchor="middle" x="394.5" y="-92.3" font-family="Times,serif" font-size="14.00" fill="#0058ad">r 41 [56 57 58 59 61 60 62 63 64 65 66 67 68 69 70 71 72 74 76 77 78 79 81 82 80 83 84 85 86 87 88 89 90]</text>
<polyline fill="none" stroke="#0058ad" points="703,-81.5 703,-110.5 "/>
<text text-anchor="middle" x="1007" y="-92.3" font-family="Times,serif" font-size="14.00" fill="#0058ad">r 51 [2 3 1 4 5 6 8 7 9 10 11 12 14 13 15 16 17 18 19 20 21 25 26 27 28 29 31 32 34 35 36 37 38 39 40 41]</text>
<polyline fill="none" stroke="#0058ad" points="1311,-81.5 1311,-110.5 "/>
<text text-anchor="middle" x="1339.5" y="-92.3" font-family="Times,serif" font-size="14.00" fill="#0058ad">a 51 44</text>
<polyline fill="none" stroke="#0058ad" points="1368,-81.5 1368,-110.5 "/>
<text text-anchor="middle" x="1396.5" y="-92.3" font-family="Times,serif" font-size="14.00" fill="#0058ad">a 50 78</text>
</g>
<!-- T9521&#45;&gt;T9517 -->
<g id="edge1" class="edge">
<title>T9521:f0&#45;&gt;T9517:f3</title>
<path fill="none" stroke="#5b00c0" d="M1203.7444,-162.4757C1298.1859,-154.0755 1374.9333,-140.9056 1392.6445,-120.296"/>
<polygon fill="#5b00c0" stroke="#5b00c0" points="1395.9018,-121.5779 1396.5,-111 1389.4359,-118.8961 1395.9018,-121.5779"/>
<text text-anchor="middle" x="1386" y="-132.8" font-family="Times,serif" font-size="14.00" fill="#5b00c0">rw</text>
</g>
<!-- T9515 -->
<g id="node2" class="node">
<title>T9515</title>
<polygon fill="none" stroke="#0058ad" points="0,-.5 0,-29.5 665,-29.5 665,-.5 0,-.5"/>
<text text-anchor="middle" x="28.5" y="-11.3" font-family="Times,serif" font-size="14.00" fill="#0058ad">a 41 91</text>
<polyline fill="none" stroke="#0058ad" points="57,-.5 57,-29.5 "/>
<text text-anchor="middle" x="361" y="-11.3" font-family="Times,serif" font-size="14.00" fill="#0058ad">r 51 [2 3 1 4 5 6 8 7 9 10 11 12 14 13 15 16 17 18 19 20 21 25 26 27 28 29 31 32 34 35 36 37 38 39 40 41]</text>
</g>
<!-- T9515&#45;&gt;T9521 -->
<g id="edge2" class="edge">
<title>T9515&#45;&gt;T9521</title>
<path fill="none" stroke="#0050c0" d="M160.7994,-29.5085C87.3488,-42.2631 26.7773,-66.1838 67.5,-111 90.3759,-136.1754 227.9734,-151.9974 374.1729,-161.8127"/>
<polygon fill="#0050c0" stroke="#0050c0" points="374.0538,-165.3124 384.263,-162.4798 374.5157,-158.3276 374.0538,-165.3124"/>
<text text-anchor="middle" x="72" y="-92.3" font-family="Times,serif" font-size="14.00" fill="#0050c0">rt</text>
</g>
<!-- T9515&#45;&gt;T9517 -->
<g id="edge3" class="edge">
<title>T9515:f1&#45;&gt;T9517:f2</title>
<path fill="none" stroke="#5b00c0" d="M665.5,-15C700.6986,-15 1259.9544,-39.8364 1331.8998,-73.8455"/>
<polygon fill="#5b00c0" stroke="#5b00c0" points="1329.8196,-76.6941 1339.5,-81 1334.6177,-71.5971 1329.8196,-76.6941"/>
<text text-anchor="middle" x="1292" y="-51.8" font-family="Times,serif" font-size="14.00" fill="#5b00c0">rw</text>
</g>
<!-- T9517&#45;&gt;T9521 -->
<g id="edge5" class="edge">
<title>T9517&#45;&gt;T9521</title>
<path fill="none" stroke="#0050c0" d="M755.5,-110.7625C755.5,-122.2689 755.5,-138.5079 755.5,-152.0269"/>
<polygon fill="#0050c0" stroke="#0050c0" points="752.0001,-152.1433 755.5,-162.1434 759.0001,-152.1434 752.0001,-152.1433"/>
<text text-anchor="middle" x="760" y="-132.8" font-family="Times,serif" font-size="14.00" fill="#0050c0">rt</text>
</g>
<!-- T9517&#45;&gt;T9515 -->
<g id="edge4" class="edge">
<title>T9517:f0&#45;&gt;T9515:f0</title>
<path fill="none" stroke="#5b00c0" d="M85.5,-96C84.5443,-96 49.6075,-55.6612 34.9111,-38.0483"/>
<polygon fill="#5b00c0" stroke="#5b00c0" points="37.4683,-35.641 28.5,-30 31.993,-40.0025 37.4683,-35.641"/>
<text text-anchor="middle" x="63" y="-51.8" font-family="Times,serif" font-size="14.00" fill="#5b00c0">rw</text>
</g>
</g>
</svg>
