<?xml version="1.0" encoding="UTF-8" standalone="no"?>
<!DOCTYPE svg PUBLIC "-//W3C//DTD SVG 1.1//EN"
 "http://www.w3.org/Graphics/SVG/1.1/DTD/svg11.dtd">
<!-- Generated by graphviz version 2.40.1 (20161225.0304)
 -->
<!-- Title: a_graph Pages: 1 -->
<svg width="1978pt" height="119pt"
 viewBox="0.00 0.00 1977.50 119.00" xmlns="http://www.w3.org/2000/svg" xmlns:xlink="http://www.w3.org/1999/xlink">
<g id="graph0" class="graph" transform="scale(1 1) rotate(0) translate(4 115)">
<title>a_graph</title>
<polygon fill="#ffffff" stroke="transparent" points="-4,4 -4,-115 1973.5,-115 1973.5,4 -4,4"/>
<!-- T6167 -->
<g id="node1" class="node">
<title>T6167</title>
<polygon fill="none" stroke="#0058ad" points="0,-81.5 0,-110.5 1755,-110.5 1755,-81.5 0,-81.5"/>
<text text-anchor="middle" x="243.5" y="-92.3" font-family="Times,serif" font-size="14.00" fill="#0058ad">r 35 [1 2 3 4 7 5 6 9 11 10 8 12 13 17 15 16 18 19 20 21 22 23 24 25 26 27 28 29 31]</text>
<polyline fill="none" stroke="#0058ad" points="487,-81.5 487,-110.5 "/>
<text text-anchor="middle" x="1092.5" y="-92.3" font-family="Times,serif" font-size="14.00" fill="#0058ad">r 34 [1 2 3 4 6 7 5 8 10 9 13 14 15 11 12 16 18 20 19 21 22 23 24 26 25 29 27 30 31 32 34 35 36 37 38 39 40 41 42 43 44 45 46 48 49 50 51 47 52 53 55 56 54 58 59 57 60 61 62 63 64 66 69 65 72 73 74 75 76 77 78]</text>
<polyline fill="none" stroke="#0058ad" points="1698,-81.5 1698,-110.5 "/>
<text text-anchor="middle" x="1726.5" y="-92.3" font-family="Times,serif" font-size="14.00" fill="#0058ad">a 35 32</text>
</g>
<!-- T6169 -->
<g id="node2" class="node">
<title>T6169</title>
<polygon fill="none" stroke="#0058ad" points="881.5,-.5 881.5,-29.5 1969.5,-29.5 1969.5,-.5 881.5,-.5"/>
<text text-anchor="middle" x="1125" y="-11.3" font-family="Times,serif" font-size="14.00" fill="#0058ad">r 35 [1 2 3 4 7 5 6 9 11 10 8 12 13 17 15 16 18 19 20 21 22 23 24 25 26 27 28 29 31]</text>
<polyline fill="none" stroke="#0058ad" points="1368.5,-.5 1368.5,-29.5 "/>
<text text-anchor="middle" x="1397" y="-11.3" font-family="Times,serif" font-size="14.00" fill="#0058ad">a 34 80</text>
<polyline fill="none" stroke="#0058ad" points="1425.5,-.5 1425.5,-29.5 "/>
<text text-anchor="middle" x="1669" y="-11.3" font-family="Times,serif" font-size="14.00" fill="#0058ad">r 35 [1 2 3 4 7 5 6 9 11 10 8 12 13 17 15 16 18 19 20 21 22 23 24 25 26 27 28 29 31]</text>
<polyline fill="none" stroke="#0058ad" points="1912.5,-.5 1912.5,-29.5 "/>
<text text-anchor="middle" x="1941" y="-11.3" font-family="Times,serif" font-size="14.00" fill="#0058ad">a 25 82</text>
</g>
<!-- T6167&#45;&gt;T6169 -->
<g id="edge1" class="edge">
<title>T6167:f1&#45;&gt;T6169:f1</title>
<path fill="none" stroke="#5b00c0" d="M1092.5,-81C1092.5,52.3869 1380.6801,-155.4898 1395.8771,-40.0992"/>
<polygon fill="#5b00c0" stroke="#5b00c0" points="1399.3777,-40.1965 1396.5,-30 1392.3909,-39.7655 1399.3777,-40.1965"/>
<text text-anchor="middle" x="1401" y="-51.8" font-family="Times,serif" font-size="14.00" fill="#5b00c0">rw</text>
</g>
<!-- T6169&#45;&gt;T6167 -->
<g id="edge2" class="edge">
<title>T6169:f0&#45;&gt;T6167:f2</title>
<path fill="none" stroke="#5b00c0" d="M1124.5,-30C1124.5,-46.0312 1396.5247,-46.6619 1412.5,-48 1548.784,-59.4152 1717.6778,53.3636 1726.1666,-70.8065"/>
<polygon fill="#5b00c0" stroke="#5b00c0" points="1722.6748,-71.1198 1726.5,-81 1729.6711,-70.8909 1722.6748,-71.1198"/>
<text text-anchor="middle" x="1732" y="-51.8" font-family="Times,serif" font-size="14.00" fill="#5b00c0">rw</text>
</g>
</g>
</svg>
