<?xml version="1.0" encoding="UTF-8" standalone="no"?>
<!DOCTYPE svg PUBLIC "-//W3C//DTD SVG 1.1//EN"
 "http://www.w3.org/Graphics/SVG/1.1/DTD/svg11.dtd">
<!-- Generated by graphviz version 2.40.1 (20161225.0304)
 -->
<!-- Title: a_graph Pages: 1 -->
<svg width="2622pt" height="119pt"
 viewBox="0.00 0.00 2622.00 119.00" xmlns="http://www.w3.org/2000/svg" xmlns:xlink="http://www.w3.org/1999/xlink">
<g id="graph0" class="graph" transform="scale(1 1) rotate(0) translate(4 115)">
<title>a_graph</title>
<polygon fill="#ffffff" stroke="transparent" points="-4,4 -4,-115 2618,-115 2618,4 -4,4"/>
<!-- T5979 -->
<g id="node1" class="node">
<title>T5979</title>
<polygon fill="none" stroke="#0058ad" points="0,-81.5 0,-110.5 2614,-110.5 2614,-81.5 0,-81.5"/>
<text text-anchor="middle" x="871" y="-92.3" font-family="Times,serif" font-size="14.00" fill="#0058ad">r 33 [3 5 2 6 7 9 4 12 13 10 11 14 17 18 16 19 20 21 15 22 23 24 25 26 27 28 29 30 32 31 33 34 35 36 38 39 42 40 41 46 47 43 44 45 48 50 51 49 54 55 57 52 53 58 61 62 60 63 64 65 67 66 71 69 70 73 74 72 68 75 76 77 78 79 80 81 82 83 85 86 87 88 84 89 90 92 93 94 91 95 97 98 99 96 101 102 103 104 105]</text>
<polyline fill="none" stroke="#0058ad" points="1742,-81.5 1742,-110.5 "/>
<text text-anchor="middle" x="1770.5" y="-92.3" font-family="Times,serif" font-size="14.00" fill="#0058ad">a 34 51</text>
<polyline fill="none" stroke="#0058ad" points="1799,-81.5 1799,-110.5 "/>
<text text-anchor="middle" x="2206.5" y="-92.3" font-family="Times,serif" font-size="14.00" fill="#0058ad">r 4 [1 2 3 4 5 6 7 9 10 11 12 13 21 22 23 24 25 26 27 28 29 30 31 32 33 34 35 36 37 38 39 40 41 42 44 45 46 47 48 49 50 51 52 53 54 55 56 57]</text>
</g>
<!-- T5981 -->
<g id="node2" class="node">
<title>T5981</title>
<polygon fill="none" stroke="#0058ad" points="1138,-.5 1138,-29.5 2046,-29.5 2046,-.5 1138,-.5"/>
<text text-anchor="middle" x="1170" y="-11.3" font-family="Times,serif" font-size="14.00" fill="#0058ad">a 33 106</text>
<polyline fill="none" stroke="#0058ad" points="1202,-.5 1202,-29.5 "/>
<text text-anchor="middle" x="1592" y="-11.3" font-family="Times,serif" font-size="14.00" fill="#0058ad">r 34 [1 2 3 4 6 7 5 8 10 9 13 14 15 11 12 16 18 20 19 21 22 23 24 26 25 29 27 30 31 32 34 35 36 37 38 39 40 41 42 43 44 45 46 48 49 50]</text>
<polyline fill="none" stroke="#0058ad" points="1982,-.5 1982,-29.5 "/>
<text text-anchor="middle" x="2014" y="-11.3" font-family="Times,serif" font-size="14.00" fill="#0058ad">a 33 107</text>
</g>
<!-- T5979&#45;&gt;T5981 -->
<g id="edge1" class="edge">
<title>T5979:f0&#45;&gt;T5981:f0</title>
<path fill="none" stroke="#5b00c0" d="M871,-81C871,-22.9845 1056.502,-15.6407 1127.6149,-15.0445"/>
<polygon fill="#5b00c0" stroke="#5b00c0" points="1128.0151,-18.5429 1138,-15 1127.9851,-11.543 1128.0151,-18.5429"/>
<text text-anchor="middle" x="905.5" y="-51.8" font-family="Times,serif" font-size="14.00" fill="#5b00c0">rw</text>
</g>
<!-- T5981&#45;&gt;T5979 -->
<g id="edge2" class="edge">
<title>T5981:f1&#45;&gt;T5979:f1</title>
<path fill="none" stroke="#5b00c0" d="M1592,-30C1592,-109.0056 1755.2792,-8.1625 1769.9488,-71.0098"/>
<polygon fill="#5b00c0" stroke="#5b00c0" points="1766.4727,-71.4212 1771,-81 1773.4342,-70.6886 1766.4727,-71.4212"/>
<text text-anchor="middle" x="1772.5" y="-51.8" font-family="Times,serif" font-size="14.00" fill="#5b00c0">rw</text>
</g>
</g>
</svg>
