<?xml version="1.0" encoding="UTF-8" standalone="no"?>
<!DOCTYPE svg PUBLIC "-//W3C//DTD SVG 1.1//EN"
 "http://www.w3.org/Graphics/SVG/1.1/DTD/svg11.dtd">
<!-- Generated by graphviz version 2.40.1 (20161225.0304)
 -->
<!-- Title: a_graph Pages: 1 -->
<svg width="805pt" height="200pt"
 viewBox="0.00 0.00 805.00 200.00" xmlns="http://www.w3.org/2000/svg" xmlns:xlink="http://www.w3.org/1999/xlink">
<g id="graph0" class="graph" transform="scale(1 1) rotate(0) translate(4 196)">
<title>a_graph</title>
<polygon fill="#ffffff" stroke="transparent" points="-4,4 -4,-196 801,-196 801,4 -4,4"/>
<!-- T2409 -->
<g id="node1" class="node">
<title>T2409</title>
<polygon fill="none" stroke="#0058ad" points="0,-162.5 0,-191.5 440,-191.5 440,-162.5 0,-162.5"/>
<text text-anchor="middle" x="91.5" y="-173.3" font-family="Times,serif" font-size="14.00" fill="#0058ad">r 18 [1 3 4 5 6 7 9 8 12 10 11]</text>
<polyline fill="none" stroke="#0058ad" points="183,-162.5 183,-191.5 "/>
<text text-anchor="middle" x="211.5" y="-173.3" font-family="Times,serif" font-size="14.00" fill="#0058ad">a 16 61</text>
<polyline fill="none" stroke="#0058ad" points="240,-162.5 240,-191.5 "/>
<text text-anchor="middle" x="290" y="-173.3" font-family="Times,serif" font-size="14.00" fill="#0058ad">r 19 [2 3 4 5 1]</text>
<polyline fill="none" stroke="#0058ad" points="340,-162.5 340,-191.5 "/>
<text text-anchor="middle" x="390" y="-173.3" font-family="Times,serif" font-size="14.00" fill="#0058ad">r 19 [2 3 4 5 1]</text>
</g>
<!-- T2407 -->
<g id="node2" class="node">
<title>T2407</title>
<polygon fill="none" stroke="#0058ad" points="255,-81.5 255,-110.5 797,-110.5 797,-81.5 255,-81.5"/>
<text text-anchor="middle" x="280" y="-92.3" font-family="Times,serif" font-size="14.00" fill="#0058ad">a 19 6</text>
<polyline fill="none" stroke="#0058ad" points="305,-81.5 305,-110.5 "/>
<text text-anchor="middle" x="441" y="-92.3" font-family="Times,serif" font-size="14.00" fill="#0058ad">r 16 [37 40 42 43 46 44 45 51 52 53 55 59 58]</text>
<polyline fill="none" stroke="#0058ad" points="577,-81.5 577,-110.5 "/>
<text text-anchor="middle" x="632" y="-92.3" font-family="Times,serif" font-size="14.00" fill="#0058ad">r 19 [2 3 4 5 1 6]</text>
<polyline fill="none" stroke="#0058ad" points="687,-81.5 687,-110.5 "/>
<text text-anchor="middle" x="742" y="-92.3" font-family="Times,serif" font-size="14.00" fill="#0058ad">r 19 [2 3 4 5 1 6]</text>
</g>
<!-- T2409&#45;&gt;T2407 -->
<g id="edge1" class="edge">
<title>T2409:f2&#45;&gt;T2407:f0</title>
<path fill="none" stroke="#5b00c0" d="M290,-162C290,-142.6913 283.0121,-136.1668 280.7192,-121.053"/>
<polygon fill="#5b00c0" stroke="#5b00c0" points="284.2047,-120.7247 280,-111 277.2226,-121.2243 284.2047,-120.7247"/>
<text text-anchor="middle" x="294.5" y="-132.8" font-family="Times,serif" font-size="14.00" fill="#5b00c0">rw</text>
</g>
<!-- T2405 -->
<g id="node3" class="node">
<title>T2405</title>
<polygon fill="none" stroke="#0058ad" points="200.5,-.5 200.5,-29.5 257.5,-29.5 257.5,-.5 200.5,-.5"/>
<text text-anchor="middle" x="229" y="-11.3" font-family="Times,serif" font-size="14.00" fill="#0058ad">a 16 60</text>
</g>
<!-- T2407&#45;&gt;T2405 -->
<g id="edge2" class="edge">
<title>T2407:f1&#45;&gt;T2405:f0</title>
<path fill="none" stroke="#5b00c0" d="M441,-81C441,.5461 343.8331,-56.6812 265.5244,-32.9356"/>
<polygon fill="#5b00c0" stroke="#5b00c0" points="266.6707,-29.6286 256.0758,-29.6236 264.3551,-36.2345 266.6707,-29.6286"/>
<text text-anchor="middle" x="444.5" y="-51.8" font-family="Times,serif" font-size="14.00" fill="#5b00c0">rw</text>
</g>
<!-- T2405&#45;&gt;T2409 -->
<g id="edge3" class="edge">
<title>T2405:f0&#45;&gt;T2409:f1</title>
<path fill="none" stroke="#c02700" d="M226.0277,-29.5329C221.2646,-54.0389 212.3331,-105.4576 211.1343,-151.8756"/>
<polygon fill="#c02700" stroke="#c02700" points="207.633,-151.9544 211,-162 214.6324,-152.0473 207.633,-151.9544"/>
<text text-anchor="middle" x="228" y="-92.3" font-family="Times,serif" font-size="14.00" fill="#c02700">ww</text>
</g>
</g>
</svg>
