<?xml version="1.0" encoding="UTF-8" standalone="no"?>
<!DOCTYPE svg PUBLIC "-//W3C//DTD SVG 1.1//EN"
 "http://www.w3.org/Graphics/SVG/1.1/DTD/svg11.dtd">
<!-- Generated by graphviz version 2.40.1 (20161225.0304)
 -->
<!-- Title: a_graph Pages: 1 -->
<svg width="1958pt" height="119pt"
 viewBox="0.00 0.00 1958.00 119.00" xmlns="http://www.w3.org/2000/svg" xmlns:xlink="http://www.w3.org/1999/xlink">
<g id="graph0" class="graph" transform="scale(1 1) rotate(0) translate(4 115)">
<title>a_graph</title>
<polygon fill="#ffffff" stroke="transparent" points="-4,4 -4,-115 1954,-115 1954,4 -4,4"/>
<!-- T5319 -->
<g id="node1" class="node">
<title>T5319</title>
<polygon fill="none" stroke="#0058ad" points="1282.5,-81.5 1282.5,-110.5 1929.5,-110.5 1929.5,-81.5 1282.5,-81.5"/>
<text text-anchor="middle" x="1311" y="-92.3" font-family="Times,serif" font-size="14.00" fill="#0058ad">a 30 80</text>
<polyline fill="none" stroke="#0058ad" points="1339.5,-81.5 1339.5,-110.5 "/>
<text text-anchor="middle" x="1634.5" y="-92.3" font-family="Times,serif" font-size="14.00" fill="#0058ad">r 32 [1 2 3 4 5 6 7 9 10 11 8 14 15 16 17 12 20 21 19 22 24 25 26 27 28 30 31 32 33 34 29 35 37 38 39]</text>
</g>
<!-- T5321 -->
<g id="node2" class="node">
<title>T5321</title>
<polygon fill="none" stroke="#0058ad" points="0,-.5 0,-29.5 1950,-29.5 1950,-.5 0,-.5"/>
<text text-anchor="middle" x="623" y="-11.3" font-family="Times,serif" font-size="14.00" fill="#0058ad">r 30 [1 2 3 4 5 6 7 8 9 11 12 13 14 10 15 16 17 18 19 20 21 22 23 24 25 26 27 28 29 31 32 33 35 36 38 37 40 41 42 43 44 45 46 48 49 50 47 51 52 53 54 55 56 58 57 61 59 60 62 63 64 65 66 67 68 69 71 73 72 75 74 77 78]</text>
<polyline fill="none" stroke="#0058ad" points="1246,-.5 1246,-29.5 "/>
<text text-anchor="middle" x="1541" y="-11.3" font-family="Times,serif" font-size="14.00" fill="#0058ad">r 32 [1 2 3 4 5 6 7 9 10 11 8 14 15 16 17 12 20 21 19 22 24 25 26 27 28 30 31 32 33 34 29 35 37 38 39]</text>
<polyline fill="none" stroke="#0058ad" points="1836,-.5 1836,-29.5 "/>
<text text-anchor="middle" x="1864.5" y="-11.3" font-family="Times,serif" font-size="14.00" fill="#0058ad">a 32 40</text>
<polyline fill="none" stroke="#0058ad" points="1893,-.5 1893,-29.5 "/>
<text text-anchor="middle" x="1921.5" y="-11.3" font-family="Times,serif" font-size="14.00" fill="#0058ad">a 32 41</text>
</g>
<!-- T5319&#45;&gt;T5321 -->
<g id="edge1" class="edge">
<title>T5319:f1&#45;&gt;T5321:f2</title>
<path fill="none" stroke="#5b00c0" d="M1635,-81C1635,20.0241 1849.1124,-123.8921 1864.1672,-40.0904"/>
<polygon fill="#5b00c0" stroke="#5b00c0" points="1867.6655,-40.254 1865,-30 1860.6892,-39.6782 1867.6655,-40.254"/>
<text text-anchor="middle" x="1867.5" y="-51.8" font-family="Times,serif" font-size="14.00" fill="#5b00c0">rw</text>
</g>
<!-- T5321&#45;&gt;T5319 -->
<g id="edge2" class="edge">
<title>T5321:f0&#45;&gt;T5319:f0</title>
<path fill="none" stroke="#5b00c0" d="M623,-30C623,-64.8899 1182.4645,-92.9564 1271.7495,-95.7683"/>
<polygon fill="#5b00c0" stroke="#5b00c0" points="1271.9234,-99.273 1282,-96 1272.0817,-92.2748 1271.9234,-99.273"/>
<text text-anchor="middle" x="781.5" y="-51.8" font-family="Times,serif" font-size="14.00" fill="#5b00c0">rw</text>
</g>
</g>
</svg>
