<?xml version="1.0" encoding="UTF-8" standalone="no"?>
<!DOCTYPE svg PUBLIC "-//W3C//DTD SVG 1.1//EN"
 "http://www.w3.org/Graphics/SVG/1.1/DTD/svg11.dtd">
<!-- Generated by graphviz version 2.40.1 (20161225.0304)
 -->
<!-- Title: a_graph Pages: 1 -->
<svg width="2628pt" height="281pt"
 viewBox="0.00 0.00 2628.00 281.00" xmlns="http://www.w3.org/2000/svg" xmlns:xlink="http://www.w3.org/1999/xlink">
<g id="graph0" class="graph" transform="scale(1 1) rotate(0) translate(4 277)">
<title>a_graph</title>
<polygon fill="#ffffff" stroke="transparent" points="-4,4 -4,-277 2624,-277 2624,4 -4,4"/>
<!-- T3061 -->
<g id="node1" class="node">
<title>T3061</title>
<polygon fill="none" stroke="#0058ad" points="784,-243.5 784,-272.5 2125,-272.5 2125,-243.5 784,-243.5"/>
<text text-anchor="middle" x="816" y="-254.3" font-family="Times,serif" font-size="14.00" fill="#0058ad">a 18 102</text>
<polyline fill="none" stroke="#0058ad" points="848,-243.5 848,-272.5 "/>
<text text-anchor="middle" x="1486.5" y="-254.3" font-family="Times,serif" font-size="14.00" fill="#0058ad">r 20 [2 1 3 4 5 6 9 11 13 14 15 12 16 17 18 19 22 21 20 23 24 25 26 28 30 31 27 32 33 34 35 36 37 38 39 40 41 42 43 44 45 46 47 48 49 50 51 52 53 54 55 56 58 59 60 61 62 63 65 66 67 68 57 69 70 64 71 72 73 74 75 76 77 78]</text>
</g>
<!-- T3053 -->
<g id="node2" class="node">
<title>T3053</title>
<polygon fill="none" stroke="#0058ad" points="843,-162.5 843,-191.5 2620,-191.5 2620,-162.5 843,-162.5"/>
<text text-anchor="middle" x="871.5" y="-173.3" font-family="Times,serif" font-size="14.00" fill="#0058ad">a 20 79</text>
<polyline fill="none" stroke="#0058ad" points="900,-162.5 900,-191.5 "/>
<text text-anchor="middle" x="1731.5" y="-173.3" font-family="Times,serif" font-size="14.00" fill="#0058ad">r 18 [1 3 4 5 6 7 9 8 12 10 11 14 13 15 16 17 18 19 20 21 22 23 24 25 26 27 28 29 30 31 32 33 34 36 37 35 38 39 41 42 44 43 45 46 47 48 50 49 51 53 54 55 52 57 58 59 60 56 62 61 63 64 68 69 66 67 70 71 73 74 72 76 77 79 80 78 81 82 83 84 85 87 88 90 89 91 92 93 95 94 96 97 98 99 100 101]</text>
<polyline fill="none" stroke="#0058ad" points="2563,-162.5 2563,-191.5 "/>
<text text-anchor="middle" x="2591.5" y="-173.3" font-family="Times,serif" font-size="14.00" fill="#0058ad">a 20 80</text>
</g>
<!-- T3061&#45;&gt;T3053 -->
<g id="edge1" class="edge">
<title>T3061:f1&#45;&gt;T3053:f0</title>
<path fill="none" stroke="#5b00c0" d="M1486.5,-243C1486.5,-100.4656 1309.5565,-221.6618 1167.5,-210 1152.8442,-208.7969 928.5294,-208.5264 880.5058,-196.7667"/>
<polygon fill="#5b00c0" stroke="#5b00c0" points="881.9757,-193.5847 871.5,-192 878.701,-199.7715 881.9757,-193.5847"/>
<text text-anchor="middle" x="1492" y="-213.8" font-family="Times,serif" font-size="14.00" fill="#5b00c0">rw</text>
</g>
<!-- T3053&#45;&gt;T3061 -->
<g id="edge3" class="edge">
<title>T3053:f1&#45;&gt;T3061:f0</title>
<path fill="none" stroke="#5b00c0" d="M1731.5,-192C1731.5,-208.2022 1164.6681,-208.9505 1148.5,-210 1114.4405,-212.2109 862.3041,-206.8393 821.1672,-234.7044"/>
<polygon fill="#5b00c0" stroke="#5b00c0" points="818.251,-232.7685 815.5,-243 824.031,-236.7172 818.251,-232.7685"/>
<text text-anchor="middle" x="1156" y="-213.8" font-family="Times,serif" font-size="14.00" fill="#5b00c0">rw</text>
</g>
<!-- T3057 -->
<g id="node3" class="node">
<title>T3057</title>
<polygon fill="none" stroke="#0058ad" points="1264,-81.5 1264,-110.5 1357,-110.5 1357,-81.5 1264,-81.5"/>
<text text-anchor="middle" x="1310.5" y="-92.3" font-family="Times,serif" font-size="14.00" fill="#0058ad">r 3 [1 2 6 7 8]</text>
</g>
<!-- T3053&#45;&gt;T3057 -->
<g id="edge2" class="edge">
<title>T3053&#45;&gt;T3057</title>
<path fill="none" stroke="#0050c0" d="M1655.7474,-162.4253C1572.8815,-146.4819 1441.9529,-121.2914 1367.4104,-106.9495"/>
<polygon fill="#0050c0" stroke="#0050c0" points="1367.7585,-103.4524 1357.2773,-104.9999 1366.4359,-110.3263 1367.7585,-103.4524"/>
<text text-anchor="middle" x="1563" y="-132.8" font-family="Times,serif" font-size="14.00" fill="#0050c0">rt</text>
</g>
<!-- T3059 -->
<g id="node4" class="node">
<title>T3059</title>
<polygon fill="none" stroke="#0058ad" points="0,-.5 0,-29.5 1663,-29.5 1663,-.5 0,-.5"/>
<text text-anchor="middle" x="831.5" y="-11.3" font-family="Times,serif" font-size="14.00" fill="#0058ad">r 18 [1 3 4 5 6 7 9 8 12 10 11 14 13 15 16 17 18 19 20 21 22 23 24 25 26 27 28 29 30 31 32 33 34 36 37 35 38 39 41 42 44 43 45 46 47 48 50 49 51 53 54 55 52 57 58 59 60 56 62 61 63 64 68 69 66 67 70 71 73 74 72 76 77 79 80 78 81 82 83 84 85 87 88 90 89 91 92 93 95 94 96 97 98 99 100 101]</text>
</g>
<!-- T3057&#45;&gt;T3059 -->
<g id="edge4" class="edge">
<title>T3057&#45;&gt;T3059</title>
<path fill="none" stroke="#0050c0" d="M1263.6993,-88.0859C1186.1261,-74.9681 1029.3763,-48.4613 927.5002,-31.2339"/>
<polygon fill="#0050c0" stroke="#0050c0" points="927.954,-27.761 917.5104,-29.5446 926.7868,-34.663 927.954,-27.761"/>
<text text-anchor="middle" x="1119" y="-51.8" font-family="Times,serif" font-size="14.00" fill="#0050c0">rt</text>
</g>
<!-- T3059&#45;&gt;T3061 -->
<g id="edge5" class="edge">
<title>T3059:f0&#45;&gt;T3061:f0</title>
<path fill="none" stroke="#5b00c0" d="M829.7573,-29.6457C825.7805,-64.3233 816.3193,-154.4399 815.5499,-232.99"/>
<polygon fill="#5b00c0" stroke="#5b00c0" points="812.05,-232.9826 815.5,-243 819.0499,-233.0176 812.05,-232.9826"/>
<text text-anchor="middle" x="828" y="-132.8" font-family="Times,serif" font-size="14.00" fill="#5b00c0">rw</text>
</g>
</g>
</svg>
