<?xml version="1.0" encoding="UTF-8" standalone="no"?>
<!DOCTYPE svg PUBLIC "-//W3C//DTD SVG 1.1//EN"
 "http://www.w3.org/Graphics/SVG/1.1/DTD/svg11.dtd">
<!-- Generated by graphviz version 2.40.1 (20161225.0304)
 -->
<!-- Title: a_graph Pages: 1 -->
<svg width="345pt" height="119pt"
 viewBox="0.00 0.00 345.00 119.00" xmlns="http://www.w3.org/2000/svg" xmlns:xlink="http://www.w3.org/1999/xlink">
<g id="graph0" class="graph" transform="scale(1 1) rotate(0) translate(4 115)">
<title>a_graph</title>
<polygon fill="#ffffff" stroke="transparent" points="-4,4 -4,-115 341,-115 341,4 -4,4"/>
<!-- T2085 -->
<g id="node1" class="node">
<title>T2085</title>
<polygon fill="none" stroke="#0058ad" points="61.5,-81.5 61.5,-110.5 217.5,-110.5 217.5,-81.5 61.5,-81.5"/>
<text text-anchor="middle" x="111" y="-92.3" font-family="Times,serif" font-size="14.00" fill="#0058ad">r 17 [10 15 16]</text>
<polyline fill="none" stroke="#0058ad" points="160.5,-81.5 160.5,-110.5 "/>
<text text-anchor="middle" x="189" y="-92.3" font-family="Times,serif" font-size="14.00" fill="#0058ad">a 15 83</text>
</g>
<!-- T2087 -->
<g id="node2" class="node">
<title>T2087</title>
<polygon fill="none" stroke="#0058ad" points="0,-.5 0,-29.5 337,-29.5 337,-.5 0,-.5"/>
<text text-anchor="middle" x="58" y="-11.3" font-family="Times,serif" font-size="14.00" fill="#0058ad">r 15 [75 80 81 82]</text>
<polyline fill="none" stroke="#0058ad" points="116,-.5 116,-29.5 "/>
<text text-anchor="middle" x="165.5" y="-11.3" font-family="Times,serif" font-size="14.00" fill="#0058ad">r 17 [10 15 16]</text>
<polyline fill="none" stroke="#0058ad" points="215,-.5 215,-29.5 "/>
<text text-anchor="middle" x="243.5" y="-11.3" font-family="Times,serif" font-size="14.00" fill="#0058ad">a 17 17</text>
<polyline fill="none" stroke="#0058ad" points="272,-.5 272,-29.5 "/>
<text text-anchor="middle" x="304.5" y="-11.3" font-family="Times,serif" font-size="14.00" fill="#0058ad">r 16 [37]</text>
</g>
<!-- T2085&#45;&gt;T2087 -->
<g id="edge1" class="edge">
<title>T2085:f0&#45;&gt;T2087:f2</title>
<path fill="none" stroke="#5b00c0" d="M110.5,-81C110.5,-60.5701 124.4603,-57.5891 142.5,-48 159.4067,-39.0131 219.1545,-48.5057 237.8588,-38.2718"/>
<polygon fill="#5b00c0" stroke="#5b00c0" points="240.7573,-40.2337 243.5,-30 234.9741,-36.2897 240.7573,-40.2337"/>
<text text-anchor="middle" x="150" y="-51.8" font-family="Times,serif" font-size="14.00" fill="#5b00c0">rw</text>
</g>
<!-- T2087&#45;&gt;T2085 -->
<g id="edge2" class="edge">
<title>T2087:f0&#45;&gt;T2085:f1</title>
<path fill="none" stroke="#5b00c0" d="M57.5,-30C57.5,-52.5794 137.5715,-37.3848 157.5,-48 172.0097,-55.7288 183.8885,-59.1584 187.9752,-70.8484"/>
<polygon fill="#5b00c0" stroke="#5b00c0" points="184.5534,-71.6308 189.5,-81 191.4758,-70.591 184.5534,-71.6308"/>
<text text-anchor="middle" x="191" y="-51.8" font-family="Times,serif" font-size="14.00" fill="#5b00c0">rw</text>
</g>
</g>
</svg>
