<?xml version="1.0" encoding="UTF-8" standalone="no"?>
<!DOCTYPE svg PUBLIC "-//W3C//DTD SVG 1.1//EN"
 "http://www.w3.org/Graphics/SVG/1.1/DTD/svg11.dtd">
<!-- Generated by graphviz version 2.40.1 (20161225.0304)
 -->
<!-- Title: a_graph Pages: 1 -->
<svg width="3285pt" height="119pt"
 viewBox="0.00 0.00 3285.00 119.00" xmlns="http://www.w3.org/2000/svg" xmlns:xlink="http://www.w3.org/1999/xlink">
<g id="graph0" class="graph" transform="scale(1 1) rotate(0) translate(4 115)">
<title>a_graph</title>
<polygon fill="#ffffff" stroke="transparent" points="-4,4 -4,-115 3281,-115 3281,4 -4,4"/>
<!-- T14369 -->
<g id="node1" class="node">
<title>T14369</title>
<polygon fill="none" stroke="#0058ad" points="709,-81.5 709,-110.5 1344,-110.5 1344,-81.5 709,-81.5"/>
<text text-anchor="middle" x="969.5" y="-92.3" font-family="Times,serif" font-size="14.00" fill="#0058ad">r 74 [1 2 3 4 5 6 7 8 9 10 11 12 15 13 14 16 17 18 19 20 21 22 23 24 25 26 27 28 29 30 32]</text>
<polyline fill="none" stroke="#0058ad" points="1230,-81.5 1230,-110.5 "/>
<text text-anchor="middle" x="1258.5" y="-92.3" font-family="Times,serif" font-size="14.00" fill="#0058ad">a 76 41</text>
<polyline fill="none" stroke="#0058ad" points="1287,-81.5 1287,-110.5 "/>
<text text-anchor="middle" x="1315.5" y="-92.3" font-family="Times,serif" font-size="14.00" fill="#0058ad">a 75 87</text>
</g>
<!-- T14370 -->
<g id="node2" class="node">
<title>T14370</title>
<polygon fill="none" stroke="#0058ad" points="0,-.5 0,-29.5 3277,-29.5 3277,-.5 0,-.5"/>
<text text-anchor="middle" x="295" y="-11.3" font-family="Times,serif" font-size="14.00" fill="#0058ad">r 76 [2 3 4 1 5 6 7 8 9 12 10 11 14 13 15 16 17 18 21 22 23 24 26 28 29 27 31 30 32 33 34 36 37 39 40]</text>
<polyline fill="none" stroke="#0058ad" points="590,-.5 590,-29.5 "/>
<text text-anchor="middle" x="1247.5" y="-11.3" font-family="Times,serif" font-size="14.00" fill="#0058ad">r 75 [1 2 3 4 6 8 5 7 11 9 10 13 12 14 15 16 18 19 20 21 22 23 17 24 25 26 27 29 30 31 32 28 33 35 36 34 37 38 43 39 40 44 45 46 47 50 51 52 53 49 55 54 56 57 59 60 64 61 65 66 67 70 68 69 73 75 76 77 79 80 82 83 84 85 86 88 89]</text>
<polyline fill="none" stroke="#0058ad" points="1905,-.5 1905,-29.5 "/>
<text text-anchor="middle" x="1933.5" y="-11.3" font-family="Times,serif" font-size="14.00" fill="#0058ad">a 74 33</text>
<polyline fill="none" stroke="#0058ad" points="1962,-.5 1962,-29.5 "/>
<text text-anchor="middle" x="2619.5" y="-11.3" font-family="Times,serif" font-size="14.00" fill="#0058ad">r 75 [1 2 3 4 6 8 5 7 11 9 10 13 12 14 15 16 18 19 20 21 22 23 17 24 25 26 27 29 30 31 32 28 33 35 36 34 37 38 43 39 40 44 45 46 47 50 51 52 53 49 55 54 56 57 59 60 64 61 65 66 67 70 68 69 73 75 76 77 79 80 82 83 84 85 86 88 89]</text>
</g>
<!-- T14369&#45;&gt;T14370 -->
<g id="edge1" class="edge">
<title>T14369:f0&#45;&gt;T14370:f2</title>
<path fill="none" stroke="#5b00c0" d="M969.5,-81C969.5,4.2708 1073.6387,-56.3467 1158.5,-48 1178.528,-46.0301 1838.0226,-50.8285 1924.238,-33.8876"/>
<polygon fill="#5b00c0" stroke="#5b00c0" points="1925.6339,-37.0975 1933.5,-30 1922.9247,-30.643 1925.6339,-37.0975"/>
<text text-anchor="middle" x="1166" y="-51.8" font-family="Times,serif" font-size="14.00" fill="#5b00c0">rw</text>
</g>
<!-- T14370&#45;&gt;T14369 -->
<g id="edge2" class="edge">
<title>T14370:f0&#45;&gt;T14369:f1</title>
<path fill="none" stroke="#5b00c0" d="M294.5,-30C294.5,-54.4218 1149.543,-43.2583 1173.5,-48 1209.5269,-55.1306 1250.0646,-43.1568 1257.3488,-71.0115"/>
<polygon fill="#5b00c0" stroke="#5b00c0" points="1253.878,-71.4665 1258.5,-81 1260.8319,-70.665 1253.878,-71.4665"/>
<text text-anchor="middle" x="1261" y="-51.8" font-family="Times,serif" font-size="14.00" fill="#5b00c0">rw</text>
</g>
</g>
</svg>
