<?xml version="1.0" encoding="UTF-8" standalone="no"?>
<!DOCTYPE svg PUBLIC "-//W3C//DTD SVG 1.1//EN"
 "http://www.w3.org/Graphics/SVG/1.1/DTD/svg11.dtd">
<!-- Generated by graphviz version 2.40.1 (20161225.0304)
 -->
<!-- Title: a_graph Pages: 1 -->
<svg width="1859pt" height="119pt"
 viewBox="0.00 0.00 1859.00 119.00" xmlns="http://www.w3.org/2000/svg" xmlns:xlink="http://www.w3.org/1999/xlink">
<g id="graph0" class="graph" transform="scale(1 1) rotate(0) translate(4 115)">
<title>a_graph</title>
<polygon fill="#ffffff" stroke="transparent" points="-4,4 -4,-115 1855,-115 1855,4 -4,4"/>
<!-- T18121 -->
<g id="node1" class="node">
<title>T18121</title>
<polygon fill="none" stroke="#0058ad" points="328.5,-81.5 328.5,-110.5 1506.5,-110.5 1506.5,-81.5 328.5,-81.5"/>
<text text-anchor="middle" x="357" y="-92.3" font-family="Times,serif" font-size="14.00" fill="#0058ad">a 94 12</text>
<polyline fill="none" stroke="#0058ad" points="385.5,-81.5 385.5,-110.5 "/>
<text text-anchor="middle" x="414" y="-92.3" font-family="Times,serif" font-size="14.00" fill="#0058ad">a 93 62</text>
<polyline fill="none" stroke="#0058ad" points="442.5,-81.5 442.5,-110.5 "/>
<text text-anchor="middle" x="946" y="-92.3" font-family="Times,serif" font-size="14.00" fill="#0058ad">r 90 [1 2 6 7 8 9 10 11 12 13 14 15 16 18 19 17 20 21 22 23 24 25 26 27 29 30 28 31 32 33 34 35 36 37 38 39 43 44 45 47 49 50 52 53 51 54 55 57 56 58 59 60 61 62 64 66 65 67]</text>
<polyline fill="none" stroke="#0058ad" points="1449.5,-81.5 1449.5,-110.5 "/>
<text text-anchor="middle" x="1478" y="-92.3" font-family="Times,serif" font-size="14.00" fill="#0058ad">a 93 63</text>
</g>
<!-- T18119 -->
<g id="node2" class="node">
<title>T18119</title>
<polygon fill="none" stroke="#0058ad" points="0,-.5 0,-29.5 1851,-29.5 1851,-.5 0,-.5"/>
<text text-anchor="middle" x="448.5" y="-11.3" font-family="Times,serif" font-size="14.00" fill="#0058ad">r 93 [2 3 1 7 8 9 10 4 14 12 15 16 17 18 19 20 21 22 25 26 23 24 27 29 28 31 32 33 35 34 30 36 37 39 40 38 42 43 44 41 47 48 51 52 53 45 46 57 56 55 59 60]</text>
<polyline fill="none" stroke="#0058ad" points="897,-.5 897,-29.5 "/>
<text text-anchor="middle" x="925.5" y="-11.3" font-family="Times,serif" font-size="14.00" fill="#0058ad">a 90 68</text>
<polyline fill="none" stroke="#0058ad" points="954,-.5 954,-29.5 "/>
<text text-anchor="middle" x="1402.5" y="-11.3" font-family="Times,serif" font-size="14.00" fill="#0058ad">r 93 [2 3 1 7 8 9 10 4 14 12 15 16 17 18 19 20 21 22 25 26 23 24 27 29 28 31 32 33 35 34 30 36 37 39 40 38 42 43 44 41 47 48 51 52 53 45 46 57 56 55 59 60]</text>
</g>
<!-- T18121&#45;&gt;T18119 -->
<g id="edge1" class="edge">
<title>T18121:f2&#45;&gt;T18119:f1</title>
<path fill="none" stroke="#5b00c0" d="M946.5,-81C946.5,-60.3171 931.5498,-55.6802 926.8779,-40.0116"/>
<polygon fill="#5b00c0" stroke="#5b00c0" points="930.3308,-39.4294 925.5,-30 923.3962,-40.3838 930.3308,-39.4294"/>
<text text-anchor="middle" x="948" y="-51.8" font-family="Times,serif" font-size="14.00" fill="#5b00c0">rw</text>
</g>
<!-- T18119&#45;&gt;T18121 -->
<g id="edge2" class="edge">
<title>T18119:f0&#45;&gt;T18121:f1</title>
<path fill="none" stroke="#5b00c0" d="M448.5,-30C448.5,-53.625 422.6516,-54.0066 415.3818,-71.0944"/>
<polygon fill="#5b00c0" stroke="#5b00c0" points="411.9279,-70.5225 413.5,-81 418.8049,-71.8289 411.9279,-70.5225"/>
<text text-anchor="middle" x="448" y="-51.8" font-family="Times,serif" font-size="14.00" fill="#5b00c0">rw</text>
</g>
</g>
</svg>
