<?xml version="1.0" encoding="UTF-8" standalone="no"?>
<!DOCTYPE svg PUBLIC "-//W3C//DTD SVG 1.1//EN"
 "http://www.w3.org/Graphics/SVG/1.1/DTD/svg11.dtd">
<!-- Generated by graphviz version 2.40.1 (20161225.0304)
 -->
<!-- Title: a_graph Pages: 1 -->
<svg width="3012pt" height="119pt"
 viewBox="0.00 0.00 3011.50 119.00" xmlns="http://www.w3.org/2000/svg" xmlns:xlink="http://www.w3.org/1999/xlink">
<g id="graph0" class="graph" transform="scale(1 1) rotate(0) translate(4 115)">
<title>a_graph</title>
<polygon fill="#ffffff" stroke="transparent" points="-4,4 -4,-115 3007.5,-115 3007.5,4 -4,4"/>
<!-- T14693 -->
<g id="node1" class="node">
<title>T14693</title>
<polygon fill="none" stroke="#0058ad" points="0,-81.5 0,-110.5 1962,-110.5 1962,-81.5 0,-81.5"/>
<text text-anchor="middle" x="424.5" y="-92.3" font-family="Times,serif" font-size="14.00" fill="#0058ad">r 78 [1 2 3 4 5 6 7 8 9 10 11 12 13 15 14 16 17 18 19 20 21 22 23 24 25 26 27 28 29 30 31 32 34 35 33 36 37 38 39 40 41 42 43 44 45 46 47 48 49 50]</text>
<polyline fill="none" stroke="#0058ad" points="849,-81.5 849,-110.5 "/>
<text text-anchor="middle" x="1377" y="-92.3" font-family="Times,serif" font-size="14.00" fill="#0058ad">r 74 [1 2 3 4 5 6 7 8 9 10 11 12 15 13 14 16 17 18 19 20 21 22 23 24 25 26 27 28 29 30 32 33 34 36 37 38 39 40 42 41 43 44 45 46 47 48 49 50 51 52 53 55 54 56 57 58 59 60 61 62 64 63]</text>
<polyline fill="none" stroke="#0058ad" points="1905,-81.5 1905,-110.5 "/>
<text text-anchor="middle" x="1933.5" y="-92.3" font-family="Times,serif" font-size="14.00" fill="#0058ad">a 78 52</text>
</g>
<!-- T14689 -->
<g id="node2" class="node">
<title>T14689</title>
<polygon fill="none" stroke="#0058ad" points="960.5,-.5 960.5,-29.5 3003.5,-29.5 3003.5,-.5 960.5,-.5"/>
<text text-anchor="middle" x="989" y="-11.3" font-family="Times,serif" font-size="14.00" fill="#0058ad">a 74 65</text>
<polyline fill="none" stroke="#0058ad" points="1017.5,-.5 1017.5,-29.5 "/>
<text text-anchor="middle" x="1554" y="-11.3" font-family="Times,serif" font-size="14.00" fill="#0058ad">r 74 [1 2 3 4 5 6 7 8 9 10 11 12 15 13 14 16 17 18 19 20 21 22 23 24 25 26 27 28 29 30 32 33 34 36 37 38 39 40 42 41 43 44 45 46 47 48 49 50 51 52 53 55 54 56 57 58 59 60 61 62 64 63 65]</text>
<polyline fill="none" stroke="#0058ad" points="2090.5,-.5 2090.5,-29.5 "/>
<text text-anchor="middle" x="2122.5" y="-11.3" font-family="Times,serif" font-size="14.00" fill="#0058ad">a 76 107</text>
<polyline fill="none" stroke="#0058ad" points="2154.5,-.5 2154.5,-29.5 "/>
<text text-anchor="middle" x="2579" y="-11.3" font-family="Times,serif" font-size="14.00" fill="#0058ad">r 78 [1 2 3 4 5 6 7 8 9 10 11 12 13 15 14 16 17 18 19 20 21 22 23 24 25 26 27 28 29 30 31 32 34 35 33 36 37 38 39 40 41 42 43 44 45 46 47 48 49 50]</text>
</g>
<!-- T14693&#45;&gt;T14689 -->
<g id="edge1" class="edge">
<title>T14693:f1&#45;&gt;T14689:f0</title>
<path fill="none" stroke="#5b00c0" d="M1377,-81C1377,89.3609 1004.7509,-191.95 989.4829,-40.1148"/>
<polygon fill="#5b00c0" stroke="#5b00c0" points="992.9729,-39.8217 989,-30 985.9809,-40.1555 992.9729,-39.8217"/>
<text text-anchor="middle" x="1383.5" y="-51.8" font-family="Times,serif" font-size="14.00" fill="#5b00c0">rw</text>
</g>
<!-- T14689&#45;&gt;T14693 -->
<g id="edge2" class="edge">
<title>T14689:f3&#45;&gt;T14693:f2</title>
<path fill="none" stroke="#5b00c0" d="M2579,-30C2579,-62.6217 2057.3689,-92.6048 1972.1228,-95.7316"/>
<polygon fill="#5b00c0" stroke="#5b00c0" points="1971.9037,-92.2361 1962,-96 1972.0893,-99.2336 1971.9037,-92.2361"/>
<text text-anchor="middle" x="2535.5" y="-51.8" font-family="Times,serif" font-size="14.00" fill="#5b00c0">rw</text>
</g>
</g>
</svg>
