<?xml version="1.0" encoding="UTF-8" standalone="no"?>
<!DOCTYPE svg PUBLIC "-//W3C//DTD SVG 1.1//EN"
 "http://www.w3.org/Graphics/SVG/1.1/DTD/svg11.dtd">
<!-- Generated by graphviz version 2.40.1 (20161225.0304)
 -->
<!-- Title: a_graph Pages: 1 -->
<svg width="2984pt" height="119pt"
 viewBox="0.00 0.00 2983.50 119.00" xmlns="http://www.w3.org/2000/svg" xmlns:xlink="http://www.w3.org/1999/xlink">
<g id="graph0" class="graph" transform="scale(1 1) rotate(0) translate(4 115)">
<title>a_graph</title>
<polygon fill="#ffffff" stroke="transparent" points="-4,4 -4,-115 2979.5,-115 2979.5,4 -4,4"/>
<!-- T18805 -->
<g id="node1" class="node">
<title>T18805</title>
<polygon fill="none" stroke="#0058ad" points="224.5,-81.5 224.5,-110.5 2975.5,-110.5 2975.5,-81.5 224.5,-81.5"/>
<text text-anchor="middle" x="402.5" y="-92.3" font-family="Times,serif" font-size="14.00" fill="#0058ad">r 97 [1 4 2 5 6 8 9 7 12 10 11 13 15 16 14 18 17 19 22 20 23]</text>
<polyline fill="none" stroke="#0058ad" points="580.5,-81.5 580.5,-110.5 "/>
<text text-anchor="middle" x="1568" y="-92.3" font-family="Times,serif" font-size="14.00" fill="#0058ad">r 94 [1 2 4 6 5 3 8 9 10 11 12 14 15 13 16 17 18 19 20 21 22 23 24 25 26 27 28 29 30 31 32 33 34 35 36 37 38 39 41 40 43 44 42 45 46 48 49 50 51 52 53 54 55 57 60 61 56 58 62 65 66 67 68 70 69 71 72 74 73 76 77 75 78 79 82 80 81 83 84 85 86 87 88 90 91 89 92 93 95 96 97 94 99 98 101 102 103 104 100 106 105 109 110 111 112 113 114 115 116]</text>
<polyline fill="none" stroke="#0058ad" points="2555.5,-81.5 2555.5,-110.5 "/>
<text text-anchor="middle" x="2733.5" y="-92.3" font-family="Times,serif" font-size="14.00" fill="#0058ad">r 97 [1 4 2 5 6 8 9 7 12 10 11 13 15 16 14 18 17 19 22 20 23]</text>
<polyline fill="none" stroke="#0058ad" points="2911.5,-81.5 2911.5,-110.5 "/>
<text text-anchor="middle" x="2943.5" y="-92.3" font-family="Times,serif" font-size="14.00" fill="#0058ad">a 94 117</text>
</g>
<!-- T18801 -->
<g id="node2" class="node">
<title>T18801</title>
<polygon fill="none" stroke="#0058ad" points="0,-.5 0,-29.5 2388,-29.5 2388,-.5 0,-.5"/>
<text text-anchor="middle" x="987.5" y="-11.3" font-family="Times,serif" font-size="14.00" fill="#0058ad">r 94 [1 2 4 6 5 3 8 9 10 11 12 14 15 13 16 17 18 19 20 21 22 23 24 25 26 27 28 29 30 31 32 33 34 35 36 37 38 39 41 40 43 44 42 45 46 48 49 50 51 52 53 54 55 57 60 61 56 58 62 65 66 67 68 70 69 71 72 74 73 76 77 75 78 79 82 80 81 83 84 85 86 87 88 90 91 89 92 93 95 96 97 94 99 98 101 102 103 104 100 106 105 109 110 111 112 113 114 115 116]</text>
<polyline fill="none" stroke="#0058ad" points="1975,-.5 1975,-29.5 "/>
<text text-anchor="middle" x="2153" y="-11.3" font-family="Times,serif" font-size="14.00" fill="#0058ad">r 97 [1 4 2 5 6 8 9 7 12 10 11 13 15 16 14 18 17 19 22 20 23]</text>
<polyline fill="none" stroke="#0058ad" points="2331,-.5 2331,-29.5 "/>
<text text-anchor="middle" x="2359.5" y="-11.3" font-family="Times,serif" font-size="14.00" fill="#0058ad">a 97 24</text>
</g>
<!-- T18805&#45;&gt;T18801 -->
<g id="edge1" class="edge">
<title>T18805:f0&#45;&gt;T18801:f2</title>
<path fill="none" stroke="#5b00c0" d="M402,-81C402,-28.6648 2213.6956,-80.1663 2351.6959,-35.7405"/>
<polygon fill="#5b00c0" stroke="#5b00c0" points="2353.7644,-38.5655 2360,-30 2349.7839,-32.8074 2353.7644,-38.5655"/>
<text text-anchor="middle" x="2232.5" y="-51.8" font-family="Times,serif" font-size="14.00" fill="#5b00c0">rw</text>
</g>
<!-- T18801&#45;&gt;T18805 -->
<g id="edge2" class="edge">
<title>T18801:f0&#45;&gt;T18805:f3</title>
<path fill="none" stroke="#5b00c0" d="M987,-30C987,-47.4601 2226.5481,-47.4638 2244,-48 2396.1587,-52.6748 2919.7431,69.067 2943.1867,-70.9306"/>
<polygon fill="#5b00c0" stroke="#5b00c0" points="2939.7062,-71.3143 2944,-81 2946.6835,-70.7507 2939.7062,-71.3143"/>
<text text-anchor="middle" x="2945.5" y="-51.8" font-family="Times,serif" font-size="14.00" fill="#5b00c0">rw</text>
</g>
</g>
</svg>
