<?xml version="1.0" encoding="UTF-8" standalone="no"?>
<!DOCTYPE svg PUBLIC "-//W3C//DTD SVG 1.1//EN"
 "http://www.w3.org/Graphics/SVG/1.1/DTD/svg11.dtd">
<!-- Generated by graphviz version 2.40.1 (20161225.0304)
 -->
<!-- Title: a_graph Pages: 1 -->
<svg width="4740pt" height="119pt"
 viewBox="0.00 0.00 4739.50 119.00" xmlns="http://www.w3.org/2000/svg" xmlns:xlink="http://www.w3.org/1999/xlink">
<g id="graph0" class="graph" transform="scale(1 1) rotate(0) translate(4 115)">
<title>a_graph</title>
<polygon fill="#ffffff" stroke="transparent" points="-4,4 -4,-115 4735.5,-115 4735.5,4 -4,4"/>
<!-- T18715 -->
<g id="node1" class="node">
<title>T18715</title>
<polygon fill="none" stroke="#0058ad" points="834.5,-81.5 834.5,-110.5 4731.5,-110.5 4731.5,-81.5 834.5,-81.5"/>
<text text-anchor="middle" x="1859.5" y="-92.3" font-family="Times,serif" font-size="14.00" fill="#0058ad">r 95 [1 8 4 5 9 10 11 3 12 13 15 14 19 16 17 18 21 24 25 23 26 27 20 30 29 33 28 31 35 37 36 39 38 34 40 41 43 42 46 47 48 49 44 45 50 51 53 54 55 56 52 57 58 59 61 62 60 63 64 66 67 65 68 69 70 71 72 74 75 73 77 80 81 79 82 83 86 84 85 87 88 89 90 91 92 93 94 95 97 98 99 100 102 96 103 104 105 101 107 108 106 109 112 111 113 114 115 110 116 118 117]</text>
<polyline fill="none" stroke="#0058ad" points="2884.5,-81.5 2884.5,-110.5 "/>
<text text-anchor="middle" x="2916.5" y="-92.3" font-family="Times,serif" font-size="14.00" fill="#0058ad">a 94 105</text>
<polyline fill="none" stroke="#0058ad" points="2948.5,-81.5 2948.5,-110.5 "/>
<text text-anchor="middle" x="3840" y="-92.3" font-family="Times,serif" font-size="14.00" fill="#0058ad">r 94 [1 2 4 6 5 3 8 9 10 11 12 14 15 13 16 17 18 19 20 21 22 23 24 25 26 27 28 29 30 31 32 33 34 35 36 37 38 39 41 40 43 44 42 45 46 48 49 50 51 52 53 54 55 57 60 61 56 58 62 65 66 67 68 70 69 71 72 74 73 76 77 75 78 79 82 80 81 83 84 85 86 87 88 90 91 89 92 93 95 96 97 94 99 98 101 102 103 104 100 106 105]</text>
</g>
<!-- T18713 -->
<g id="node2" class="node">
<title>T18713</title>
<polygon fill="none" stroke="#0058ad" points="0,-.5 0,-29.5 3930,-29.5 3930,-.5 0,-.5"/>
<text text-anchor="middle" x="879.5" y="-11.3" font-family="Times,serif" font-size="14.00" fill="#0058ad">r 94 [1 2 4 6 5 3 8 9 10 11 12 14 15 13 16 17 18 19 20 21 22 23 24 25 26 27 28 29 30 31 32 33 34 35 36 37 38 39 41 40 43 44 42 45 46 48 49 50 51 52 53 54 55 57 60 61 56 58 62 65 66 67 68 70 69 71 72 74 73 76 77 75 78 79 82 80 81 83 84 85 86 87 88 90 91 89 92 93 95 96 97 94 99 98 101 102 103 104 100 106]</text>
<polyline fill="none" stroke="#0058ad" points="1759,-.5 1759,-29.5 "/>
<text text-anchor="middle" x="1787.5" y="-11.3" font-family="Times,serif" font-size="14.00" fill="#0058ad">a 91 48</text>
<polyline fill="none" stroke="#0058ad" points="1816,-.5 1816,-29.5 "/>
<text text-anchor="middle" x="2841" y="-11.3" font-family="Times,serif" font-size="14.00" fill="#0058ad">r 95 [1 8 4 5 9 10 11 3 12 13 15 14 19 16 17 18 21 24 25 23 26 27 20 30 29 33 28 31 35 37 36 39 38 34 40 41 43 42 46 47 48 49 44 45 50 51 53 54 55 56 52 57 58 59 61 62 60 63 64 66 67 65 68 69 70 71 72 74 75 73 77 80 81 79 82 83 86 84 85 87 88 89 90 91 92 93 94 95 97 98 99 100 102 96 103 104 105 101 107 108 106 109 112 111 113 114 115 110 116 118 117]</text>
<polyline fill="none" stroke="#0058ad" points="3866,-.5 3866,-29.5 "/>
<text text-anchor="middle" x="3898" y="-11.3" font-family="Times,serif" font-size="14.00" fill="#0058ad">a 95 119</text>
</g>
<!-- T18715&#45;&gt;T18713 -->
<g id="edge1" class="edge">
<title>T18715:f0&#45;&gt;T18713:f3</title>
<path fill="none" stroke="#5b00c0" d="M1859,-81C1859,4.1901 2539.8448,-50.4358 2625,-48 2641.7603,-47.5206 3771.3698,-47.6647 3888.2571,-32.6046"/>
<polygon fill="#5b00c0" stroke="#5b00c0" points="3889.2432,-35.9639 3898,-30 3887.4353,-29.2014 3889.2432,-35.9639"/>
<text text-anchor="middle" x="2632.5" y="-51.8" font-family="Times,serif" font-size="14.00" fill="#5b00c0">rw</text>
</g>
<!-- T18713&#45;&gt;T18715 -->
<g id="edge2" class="edge">
<title>T18713:f0&#45;&gt;T18715:f1</title>
<path fill="none" stroke="#5b00c0" d="M879,-30C879,-42.2298 2627.7955,-47.213 2640,-48 2760.2208,-55.7527 2908.3421,37.4623 2916.6354,-70.9953"/>
<polygon fill="#5b00c0" stroke="#5b00c0" points="2913.138,-71.1342 2917,-81 2920.1333,-70.8791 2913.138,-71.1342"/>
<text text-anchor="middle" x="2922.5" y="-51.8" font-family="Times,serif" font-size="14.00" fill="#5b00c0">rw</text>
</g>
</g>
</svg>
