<?xml version="1.0" encoding="UTF-8" standalone="no"?>
<!DOCTYPE svg PUBLIC "-//W3C//DTD SVG 1.1//EN"
 "http://www.w3.org/Graphics/SVG/1.1/DTD/svg11.dtd">
<!-- Generated by graphviz version 2.40.1 (20161225.0304)
 -->
<!-- Title: a_graph Pages: 1 -->
<svg width="1713pt" height="119pt"
 viewBox="0.00 0.00 1713.00 119.00" xmlns="http://www.w3.org/2000/svg" xmlns:xlink="http://www.w3.org/1999/xlink">
<g id="graph0" class="graph" transform="scale(1 1) rotate(0) translate(4 115)">
<title>a_graph</title>
<polygon fill="#ffffff" stroke="transparent" points="-4,4 -4,-115 1709,-115 1709,4 -4,4"/>
<!-- T16917 -->
<g id="node1" class="node">
<title>T16917</title>
<polygon fill="none" stroke="#0058ad" points="0,-81.5 0,-110.5 1705,-110.5 1705,-81.5 0,-81.5"/>
<text text-anchor="middle" x="412" y="-92.3" font-family="Times,serif" font-size="14.00" fill="#0058ad">r 87 [10 11 12 13 14 15 16 17 18 19 20 21 23 25 9 7 8 3 4 34 35 33 36 37 38 39 40 41 44 45 46 47 42 43 50 51 49 52 53 56 57 54 55 59 58 61 62]</text>
<polyline fill="none" stroke="#0058ad" points="824,-81.5 824,-110.5 "/>
<text text-anchor="middle" x="852.5" y="-92.3" font-family="Times,serif" font-size="14.00" fill="#0058ad">a 86 80</text>
<polyline fill="none" stroke="#0058ad" points="881,-81.5 881,-110.5 "/>
<text text-anchor="middle" x="1293" y="-92.3" font-family="Times,serif" font-size="14.00" fill="#0058ad">r 87 [10 11 12 13 14 15 16 17 18 19 20 21 23 25 9 7 8 3 4 34 35 33 36 37 38 39 40 41 44 45 46 47 42 43 50 51 49 52 53 56 57 54 55 59 58 61 62]</text>
</g>
<!-- T16913 -->
<g id="node2" class="node">
<title>T16913</title>
<polygon fill="none" stroke="#0058ad" points="229.5,-.5 229.5,-29.5 1533.5,-29.5 1533.5,-.5 229.5,-.5"/>
<text text-anchor="middle" x="400" y="-11.3" font-family="Times,serif" font-size="14.00" fill="#0058ad">r 86 [59 60 61 62 63 64 65 66 67 68 69 70 72 74 75 73 78]</text>
<polyline fill="none" stroke="#0058ad" points="570.5,-.5 570.5,-29.5 "/>
<text text-anchor="middle" x="602.5" y="-11.3" font-family="Times,serif" font-size="14.00" fill="#0058ad">a 77 106</text>
<polyline fill="none" stroke="#0058ad" points="634.5,-.5 634.5,-29.5 "/>
<text text-anchor="middle" x="663" y="-11.3" font-family="Times,serif" font-size="14.00" fill="#0058ad">a 87 60</text>
<polyline fill="none" stroke="#0058ad" points="691.5,-.5 691.5,-29.5 "/>
<text text-anchor="middle" x="1112.5" y="-11.3" font-family="Times,serif" font-size="14.00" fill="#0058ad">r 87 [10 11 12 13 14 15 16 17 18 19 20 21 23 25 9 7 8 3 4 34 35 33 36 37 38 39 40 41 44 45 46 47 42 43 50 51 49 52 53 56 57 54 55 59 58 61 62 60]</text>
</g>
<!-- T16917&#45;&gt;T16913 -->
<g id="edge1" class="edge">
<title>T16917:f0&#45;&gt;T16913:f2</title>
<path fill="none" stroke="#5b00c0" d="M411.5,-81C411.5,-55.3204 615.8703,-57.6308 655.7864,-37.418"/>
<polygon fill="#5b00c0" stroke="#5b00c0" points="658.3847,-39.763 662.5,-30 653.1947,-35.0657 658.3847,-39.763"/>
<text text-anchor="middle" x="616" y="-51.8" font-family="Times,serif" font-size="14.00" fill="#5b00c0">rw</text>
</g>
<!-- T16913&#45;&gt;T16917 -->
<g id="edge2" class="edge">
<title>T16913:f0&#45;&gt;T16917:f1</title>
<path fill="none" stroke="#5b00c0" d="M399.5,-30C399.5,-55.4122 602.2476,-45.1546 627.5,-48 724.4034,-58.919 843.7713,14.6001 852.0446,-70.9976"/>
<polygon fill="#5b00c0" stroke="#5b00c0" points="848.5487,-71.1696 852.5,-81 855.5414,-70.8511 848.5487,-71.1696"/>
<text text-anchor="middle" x="857" y="-51.8" font-family="Times,serif" font-size="14.00" fill="#5b00c0">rw</text>
</g>
</g>
</svg>
