<?xml version="1.0" encoding="UTF-8" standalone="no"?>
<!DOCTYPE svg PUBLIC "-//W3C//DTD SVG 1.1//EN"
 "http://www.w3.org/Graphics/SVG/1.1/DTD/svg11.dtd">
<!-- Generated by graphviz version 2.40.1 (20161225.0304)
 -->
<!-- Title: a_graph Pages: 1 -->
<svg width="1212pt" height="119pt"
 viewBox="0.00 0.00 1212.00 119.00" xmlns="http://www.w3.org/2000/svg" xmlns:xlink="http://www.w3.org/1999/xlink">
<g id="graph0" class="graph" transform="scale(1 1) rotate(0) translate(4 115)">
<title>a_graph</title>
<polygon fill="#ffffff" stroke="transparent" points="-4,4 -4,-115 1208,-115 1208,4 -4,4"/>
<!-- T126 -->
<g id="node1" class="node">
<title>T126</title>
<polygon fill="none" stroke="#0058ad" points="390.5,-81.5 390.5,-110.5 1105.5,-110.5 1105.5,-81.5 390.5,-81.5"/>
<text text-anchor="middle" x="437" y="-92.3" font-family="Times,serif" font-size="14.00" fill="#0058ad">r 6 [3 6 7 8 9]</text>
<polyline fill="none" stroke="#0058ad" points="483.5,-81.5 483.5,-110.5 "/>
<text text-anchor="middle" x="508.5" y="-92.3" font-family="Times,serif" font-size="14.00" fill="#0058ad">a 9 35</text>
<polyline fill="none" stroke="#0058ad" points="533.5,-81.5 533.5,-110.5 "/>
<text text-anchor="middle" x="819.5" y="-92.3" font-family="Times,serif" font-size="14.00" fill="#0058ad">r 9 [1 2 7 10 11 12 15 13 14 16 17 18 20 19 21 22 23 24 25 26 27 28 29 30 31 32 33 34 36 37 38 35]</text>
</g>
<!-- T125 -->
<g id="node2" class="node">
<title>T125</title>
<polygon fill="none" stroke="#0058ad" points="0,-.5 0,-29.5 1204,-29.5 1204,-.5 0,-.5"/>
<text text-anchor="middle" x="22" y="-11.3" font-family="Times,serif" font-size="14.00" fill="#0058ad">a 7 5</text>
<polyline fill="none" stroke="#0058ad" points="44,-.5 44,-29.5 "/>
<text text-anchor="middle" x="321.5" y="-11.3" font-family="Times,serif" font-size="14.00" fill="#0058ad">r 9 [1 2 7 10 11 12 15 13 14 16 17 18 20 19 21 22 23 24 25 26 27 28 29 30 31 32 33 34 36 37 38]</text>
<polyline fill="none" stroke="#0058ad" points="599,-.5 599,-29.5 "/>
<text text-anchor="middle" x="624" y="-11.3" font-family="Times,serif" font-size="14.00" fill="#0058ad">a 6 10</text>
<polyline fill="none" stroke="#0058ad" points="649,-.5 649,-29.5 "/>
<text text-anchor="middle" x="926.5" y="-11.3" font-family="Times,serif" font-size="14.00" fill="#0058ad">r 9 [1 2 7 10 11 12 15 13 14 16 17 18 20 19 21 22 23 24 25 26 27 28 29 30 31 32 33 34 36 37 38]</text>
</g>
<!-- T126&#45;&gt;T125 -->
<g id="edge1" class="edge">
<title>T126:f0&#45;&gt;T125:f2</title>
<path fill="none" stroke="#5b00c0" d="M437,-81C437,-62.328 446.6806,-57.0731 463,-48 491.1462,-32.3516 597.7671,-59.1031 619.9443,-39.151"/>
<polygon fill="#5b00c0" stroke="#5b00c0" points="623.1479,-40.5605 624,-30 616.7483,-37.7242 623.1479,-40.5605"/>
<text text-anchor="middle" x="470.5" y="-51.8" font-family="Times,serif" font-size="14.00" fill="#5b00c0">rw</text>
</g>
<!-- T125&#45;&gt;T126 -->
<g id="edge2" class="edge">
<title>T125:f1&#45;&gt;T126:f1</title>
<path fill="none" stroke="#5b00c0" d="M321,-30C321,-65.1174 446.7473,-31.9842 478,-48 492.1947,-55.2742 502.9705,-59.3749 506.6383,-71.0273"/>
<polygon fill="#5b00c0" stroke="#5b00c0" points="503.1792,-71.5655 508,-81 510.1148,-70.6184 503.1792,-71.5655"/>
<text text-anchor="middle" x="509.5" y="-51.8" font-family="Times,serif" font-size="14.00" fill="#5b00c0">rw</text>
</g>
</g>
</svg>
