<?xml version="1.0" encoding="UTF-8" standalone="no"?>
<!DOCTYPE svg PUBLIC "-//W3C//DTD SVG 1.1//EN"
 "http://www.w3.org/Graphics/SVG/1.1/DTD/svg11.dtd">
<!-- Generated by graphviz version 2.40.1 (20161225.0304)
 -->
<!-- Title: a_graph Pages: 1 -->
<svg width="1822pt" height="119pt"
 viewBox="0.00 0.00 1821.50 119.00" xmlns="http://www.w3.org/2000/svg" xmlns:xlink="http://www.w3.org/1999/xlink">
<g id="graph0" class="graph" transform="scale(1 1) rotate(0) translate(4 115)">
<title>a_graph</title>
<polygon fill="#ffffff" stroke="transparent" points="-4,4 -4,-115 1817.5,-115 1817.5,4 -4,4"/>
<!-- T20399 -->
<g id="node1" class="node">
<title>T20399</title>
<polygon fill="none" stroke="#0058ad" points="1163.5,-81.5 1163.5,-110.5 1813.5,-110.5 1813.5,-81.5 1163.5,-81.5"/>
<text text-anchor="middle" x="1195.5" y="-92.3" font-family="Times,serif" font-size="14.00" fill="#0058ad">a 102 74</text>
<polyline fill="none" stroke="#0058ad" points="1227.5,-81.5 1227.5,-110.5 "/>
<text text-anchor="middle" x="1374" y="-92.3" font-family="Times,serif" font-size="14.00" fill="#0058ad">r 104 [1 2 5 6 4 7 8 9 10 11 12 13 14 15 16 18 17]</text>
<polyline fill="none" stroke="#0058ad" points="1520.5,-81.5 1520.5,-110.5 "/>
<text text-anchor="middle" x="1667" y="-92.3" font-family="Times,serif" font-size="14.00" fill="#0058ad">r 104 [1 2 5 6 4 7 8 9 10 11 12 13 14 15 16 18 17]</text>
</g>
<!-- T20402 -->
<g id="node2" class="node">
<title>T20402</title>
<polygon fill="none" stroke="#0058ad" points="0,-.5 0,-29.5 1577,-29.5 1577,-.5 0,-.5"/>
<text text-anchor="middle" x="146.5" y="-11.3" font-family="Times,serif" font-size="14.00" fill="#0058ad">r 104 [1 2 5 6 4 7 8 9 10 11 12 13 14 15 16 18 17]</text>
<polyline fill="none" stroke="#0058ad" points="293,-.5 293,-29.5 "/>
<text text-anchor="middle" x="871" y="-11.3" font-family="Times,serif" font-size="14.00" fill="#0058ad">r 102 [1 2 3 4 5 6 7 8 10 11 12 13 14 16 18 17 19 20 21 22 23 24 25 27 26 28 29 31 30 32 33 34 35 37 39 40 41 42 43 44 45 46 47 48 49 50 51 52 53 55 56 54 57 58 59 60 61 62 63 64 67 65 69 68 71 72 73]</text>
<polyline fill="none" stroke="#0058ad" points="1449,-.5 1449,-29.5 "/>
<text text-anchor="middle" x="1481" y="-11.3" font-family="Times,serif" font-size="14.00" fill="#0058ad">a 104 20</text>
<polyline fill="none" stroke="#0058ad" points="1513,-.5 1513,-29.5 "/>
<text text-anchor="middle" x="1545" y="-11.3" font-family="Times,serif" font-size="14.00" fill="#0058ad">a 104 21</text>
</g>
<!-- T20399&#45;&gt;T20402 -->
<g id="edge1" class="edge">
<title>T20399:f1&#45;&gt;T20402:f2</title>
<path fill="none" stroke="#5b00c0" d="M1373.5,-81C1373.5,-31.857 1466.0637,-75.4904 1479.8036,-40.1189"/>
<polygon fill="#5b00c0" stroke="#5b00c0" points="1483.2983,-40.4411 1481.5,-30 1476.3947,-39.2836 1483.2983,-40.4411"/>
<text text-anchor="middle" x="1481" y="-51.8" font-family="Times,serif" font-size="14.00" fill="#5b00c0">rw</text>
</g>
<!-- T20402&#45;&gt;T20399 -->
<g id="edge2" class="edge">
<title>T20402:f1&#45;&gt;T20399:f0</title>
<path fill="none" stroke="#5b00c0" d="M871.5,-30C871.5,-60.9241 1095.1314,-91.3937 1153.3078,-95.5257"/>
<polygon fill="#5b00c0" stroke="#5b00c0" points="1153.3481,-99.0312 1163.5,-96 1153.6736,-92.0388 1153.3481,-99.0312"/>
<text text-anchor="middle" x="950" y="-51.8" font-family="Times,serif" font-size="14.00" fill="#5b00c0">rw</text>
</g>
</g>
</svg>
