<?xml version="1.0" encoding="UTF-8" standalone="no"?>
<!DOCTYPE svg PUBLIC "-//W3C//DTD SVG 1.1//EN"
 "http://www.w3.org/Graphics/SVG/1.1/DTD/svg11.dtd">
<!-- Generated by graphviz version 2.40.1 (20161225.0304)
 -->
<!-- Title: a_graph Pages: 1 -->
<svg width="1788pt" height="119pt"
 viewBox="0.00 0.00 1788.00 119.00" xmlns="http://www.w3.org/2000/svg" xmlns:xlink="http://www.w3.org/1999/xlink">
<g id="graph0" class="graph" transform="scale(1 1) rotate(0) translate(4 115)">
<title>a_graph</title>
<polygon fill="#ffffff" stroke="transparent" points="-4,4 -4,-115 1784,-115 1784,4 -4,4"/>
<!-- T6935 -->
<g id="node1" class="node">
<title>T6935</title>
<polygon fill="none" stroke="#0058ad" points="0,-81.5 0,-110.5 1780,-110.5 1780,-81.5 0,-81.5"/>
<text text-anchor="middle" x="190" y="-92.3" font-family="Times,serif" font-size="14.00" fill="#0058ad">r 40 [1 2 3 7 8 9 10 4 11 13 14 15 16 17 18 19 12 20 21 22 23 24]</text>
<polyline fill="none" stroke="#0058ad" points="380,-81.5 380,-110.5 "/>
<text text-anchor="middle" x="816.5" y="-92.3" font-family="Times,serif" font-size="14.00" fill="#0058ad">r 39 [2 3 4 1 6 7 5 9 10 11 12 13 14 15 16 17 18 19 20 21 22 23 24 25 26 27 28 29 30 34 32 35 36 37 40 41 42 44 45 46 47 48 49 51 52 50 53 54 56 57 58]</text>
<polyline fill="none" stroke="#0058ad" points="1253,-81.5 1253,-110.5 "/>
<text text-anchor="middle" x="1488" y="-92.3" font-family="Times,serif" font-size="14.00" fill="#0058ad">r 38 [1 2 3 4 5 6 7 8 9 10 11 12 13 14 15 16 17 18 19 20 21 22 23 25 24 26 27 28]</text>
<polyline fill="none" stroke="#0058ad" points="1723,-81.5 1723,-110.5 "/>
<text text-anchor="middle" x="1751.5" y="-92.3" font-family="Times,serif" font-size="14.00" fill="#0058ad">a 39 55</text>
</g>
<!-- T6937 -->
<g id="node2" class="node">
<title>T6937</title>
<polygon fill="none" stroke="#0058ad" points="527.5,-.5 527.5,-29.5 1578.5,-29.5 1578.5,-.5 527.5,-.5"/>
<text text-anchor="middle" x="556" y="-11.3" font-family="Times,serif" font-size="14.00" fill="#0058ad">a 40 25</text>
<polyline fill="none" stroke="#0058ad" points="584.5,-.5 584.5,-29.5 "/>
<text text-anchor="middle" x="616.5" y="-11.3" font-family="Times,serif" font-size="14.00" fill="#0058ad">a 25 109</text>
<polyline fill="none" stroke="#0058ad" points="648.5,-.5 648.5,-29.5 "/>
<text text-anchor="middle" x="677" y="-11.3" font-family="Times,serif" font-size="14.00" fill="#0058ad">a 40 26</text>
<polyline fill="none" stroke="#0058ad" points="705.5,-.5 705.5,-29.5 "/>
<text text-anchor="middle" x="1142" y="-11.3" font-family="Times,serif" font-size="14.00" fill="#0058ad">r 39 [2 3 4 1 6 7 5 9 10 11 12 13 14 15 16 17 18 19 20 21 22 23 24 25 26 27 28 29 30 34 32 35 36 37 40 41 42 44 45 46 47 48 49 51 52 50 53 54 56 57 58]</text>
</g>
<!-- T6935&#45;&gt;T6937 -->
<g id="edge1" class="edge">
<title>T6935:f0&#45;&gt;T6937:f0</title>
<path fill="none" stroke="#5b00c0" d="M190,-81C190,-45.2289 452.656,-18.5208 516.9275,-15.322"/>
<polygon fill="#5b00c0" stroke="#5b00c0" points="517.117,-18.8178 527,-15 516.8932,-11.8214 517.117,-18.8178"/>
<text text-anchor="middle" x="271.5" y="-51.8" font-family="Times,serif" font-size="14.00" fill="#5b00c0">rw</text>
</g>
<!-- T6937&#45;&gt;T6935 -->
<g id="edge2" class="edge">
<title>T6937:f3&#45;&gt;T6935:f3</title>
<path fill="none" stroke="#5b00c0" d="M1579,-15C1616.7718,-15 1730.9783,-35.9427 1749.4611,-71.2076"/>
<polygon fill="#5b00c0" stroke="#5b00c0" points="1746.1022,-72.1985 1752,-81 1752.8781,-70.4416 1746.1022,-72.1985"/>
<text text-anchor="middle" x="1749.5" y="-51.8" font-family="Times,serif" font-size="14.00" fill="#5b00c0">rw</text>
</g>
</g>
</svg>
