<?xml version="1.0" encoding="UTF-8" standalone="no"?>
<!DOCTYPE svg PUBLIC "-//W3C//DTD SVG 1.1//EN"
 "http://www.w3.org/Graphics/SVG/1.1/DTD/svg11.dtd">
<!-- Generated by graphviz version 2.40.1 (20161225.0304)
 -->
<!-- Title: a_graph Pages: 1 -->
<svg width="1976pt" height="119pt"
 viewBox="0.00 0.00 1976.00 119.00" xmlns="http://www.w3.org/2000/svg" xmlns:xlink="http://www.w3.org/1999/xlink">
<g id="graph0" class="graph" transform="scale(1 1) rotate(0) translate(4 115)">
<title>a_graph</title>
<polygon fill="#ffffff" stroke="transparent" points="-4,4 -4,-115 1972,-115 1972,4 -4,4"/>
<!-- T17417 -->
<g id="node1" class="node">
<title>T17417</title>
<polygon fill="none" stroke="#0058ad" points="486,-81.5 486,-110.5 956,-110.5 956,-81.5 486,-81.5"/>
<text text-anchor="middle" x="664" y="-92.3" font-family="Times,serif" font-size="14.00" fill="#0058ad">r 89 [1 2 3 4 5 7 8 9 10 11 12 13 16 18 19 14 15 17 22 23 24]</text>
<polyline fill="none" stroke="#0058ad" points="842,-81.5 842,-110.5 "/>
<text text-anchor="middle" x="870.5" y="-92.3" font-family="Times,serif" font-size="14.00" fill="#0058ad">a 88 93</text>
<polyline fill="none" stroke="#0058ad" points="899,-81.5 899,-110.5 "/>
<text text-anchor="middle" x="927.5" y="-92.3" font-family="Times,serif" font-size="14.00" fill="#0058ad">a 88 94</text>
</g>
<!-- T17415 -->
<g id="node2" class="node">
<title>T17415</title>
<polygon fill="none" stroke="#0058ad" points="0,-.5 0,-29.5 1968,-29.5 1968,-.5 0,-.5"/>
<text text-anchor="middle" x="178" y="-11.3" font-family="Times,serif" font-size="14.00" fill="#0058ad">r 89 [1 2 3 4 5 7 8 9 10 11 12 13 16 18 19 14 15 17 22 23 24]</text>
<polyline fill="none" stroke="#0058ad" points="356,-.5 356,-29.5 "/>
<text text-anchor="middle" x="390" y="-11.3" font-family="Times,serif" font-size="14.00" fill="#0058ad">r 90 [1 2]</text>
<polyline fill="none" stroke="#0058ad" points="424,-.5 424,-29.5 "/>
<text text-anchor="middle" x="452.5" y="-11.3" font-family="Times,serif" font-size="14.00" fill="#0058ad">a 89 26</text>
<polyline fill="none" stroke="#0058ad" points="481,-.5 481,-29.5 "/>
<text text-anchor="middle" x="1224.5" y="-11.3" font-family="Times,serif" font-size="14.00" fill="#0058ad">r 88 [1 2 4 3 5 6 7 8 9 10 11 12 13 14 15 16 17 18 19 20 21 22 23 25 28 29 24 30 31 32 26 27 33 36 37 38 34 35 40 41 39 42 43 44 46 47 49 50 51 52 53 55 54 56 57 58 59 62 63 64 65 48 68 69 71 72 66 67 70 73 74 76 79 80 81 77 78 75 83 84 86 87 88 89 82 90 91]</text>
</g>
<!-- T17417&#45;&gt;T17415 -->
<g id="edge1" class="edge">
<title>T17417:f0&#45;&gt;T17415:f2</title>
<path fill="none" stroke="#5b00c0" d="M486,-96C456.3544,-96 452.5338,-69.3602 452.0635,-40.0193"/>
<polygon fill="#5b00c0" stroke="#5b00c0" points="455.5634,-39.9776 452,-30 448.5636,-40.022 455.5634,-39.9776"/>
<text text-anchor="middle" x="461.5" y="-51.8" font-family="Times,serif" font-size="14.00" fill="#5b00c0">rw</text>
</g>
<!-- T17415&#45;&gt;T17417 -->
<g id="edge2" class="edge">
<title>T17415:f3&#45;&gt;T17417:f1</title>
<path fill="none" stroke="#5b00c0" d="M1225,-30C1225,-185.3874 886.7238,66.1822 871.5277,-70.9239"/>
<polygon fill="#5b00c0" stroke="#5b00c0" points="868.0279,-70.8306 871,-81 875.0183,-71.1968 868.0279,-70.8306"/>
<text text-anchor="middle" x="1228.5" y="-51.8" font-family="Times,serif" font-size="14.00" fill="#5b00c0">rw</text>
</g>
</g>
</svg>
