<?xml version="1.0" encoding="UTF-8" standalone="no"?>
<!DOCTYPE svg PUBLIC "-//W3C//DTD SVG 1.1//EN"
 "http://www.w3.org/Graphics/SVG/1.1/DTD/svg11.dtd">
<!-- Generated by graphviz version 2.40.1 (20161225.0304)
 -->
<!-- Title: a_graph Pages: 1 -->
<svg width="1854pt" height="119pt"
 viewBox="0.00 0.00 1854.00 119.00" xmlns="http://www.w3.org/2000/svg" xmlns:xlink="http://www.w3.org/1999/xlink">
<g id="graph0" class="graph" transform="scale(1 1) rotate(0) translate(4 115)">
<title>a_graph</title>
<polygon fill="#ffffff" stroke="transparent" points="-4,4 -4,-115 1850,-115 1850,4 -4,4"/>
<!-- T9481 -->
<g id="node1" class="node">
<title>T9481</title>
<polygon fill="none" stroke="#0058ad" points="926.5,-81.5 926.5,-110.5 1361.5,-110.5 1361.5,-81.5 926.5,-81.5"/>
<text text-anchor="middle" x="1144" y="-92.3" font-family="Times,serif" font-size="14.00" fill="#0058ad">r 51 [2 3 1 4 5 6 8 7 9 10 11 12 14 13 15 16 17 18 19 20 21 25 26 27 28 29]</text>
</g>
<!-- T9477 -->
<g id="node2" class="node">
<title>T9477</title>
<polygon fill="none" stroke="#0058ad" points="0,-.5 0,-29.5 1846,-29.5 1846,-.5 0,-.5"/>
<text text-anchor="middle" x="640" y="-11.3" font-family="Times,serif" font-size="14.00" fill="#0058ad">r 50 [1 2 3 4 5 6 7 8 9 10 11 12 13 14 15 16 17 18 19 21 20 22 24 25 23 26 27 28 29 30 31 32 33 34 35 38 36 37 39 40 41 42 43 44 45 46 47 48 49 50 52 51 53 54 55 56 57 58 59 60 61 62 63 64 65 66 67 68 69 70 71 72 73 74 75]</text>
<polyline fill="none" stroke="#0058ad" points="1280,-.5 1280,-29.5 "/>
<text text-anchor="middle" x="1308.5" y="-11.3" font-family="Times,serif" font-size="14.00" fill="#0058ad">a 36 78</text>
<polyline fill="none" stroke="#0058ad" points="1337,-.5 1337,-29.5 "/>
<text text-anchor="middle" x="1365.5" y="-11.3" font-family="Times,serif" font-size="14.00" fill="#0058ad">a 51 31</text>
<polyline fill="none" stroke="#0058ad" points="1394,-.5 1394,-29.5 "/>
<text text-anchor="middle" x="1620" y="-11.3" font-family="Times,serif" font-size="14.00" fill="#0058ad">r 51 [2 3 1 4 5 6 8 7 9 10 11 12 14 13 15 16 17 18 19 20 21 25 26 27 28 29 31]</text>
</g>
<!-- T9481&#45;&gt;T9477 -->
<g id="edge1" class="edge">
<title>T9481:f0&#45;&gt;T9477:f2</title>
<path fill="none" stroke="#5b00c0" d="M1335.5973,-81.3255C1351.2748,-71.9305 1362.2983,-58.6661 1365.2255,-40.1616"/>
<polygon fill="#5b00c0" stroke="#5b00c0" points="1368.7298,-40.2371 1366,-30 1361.7501,-39.7051 1368.7298,-40.2371"/>
<text text-anchor="middle" x="1368.5" y="-51.8" font-family="Times,serif" font-size="14.00" fill="#5b00c0">rw</text>
</g>
<!-- T9477&#45;&gt;T9481 -->
<g id="edge2" class="edge">
<title>T9477&#45;&gt;T9481</title>
<path fill="none" stroke="#0050c0" d="M962.8185,-29.5941C999.8034,-43.1497 1054.9939,-63.3778 1094.7374,-77.9445"/>
<polygon fill="#0050c0" stroke="#0050c0" points="1093.6407,-81.2701 1104.2344,-81.4253 1096.0496,-74.6977 1093.6407,-81.2701"/>
<text text-anchor="middle" x="1057.5" y="-51.8" font-family="Times,serif" font-size="14.00" fill="#0050c0">rt</text>
</g>
</g>
</svg>
