<?xml version="1.0" encoding="UTF-8" standalone="no"?>
<!DOCTYPE svg PUBLIC "-//W3C//DTD SVG 1.1//EN"
 "http://www.w3.org/Graphics/SVG/1.1/DTD/svg11.dtd">
<!-- Generated by graphviz version 2.40.1 (20161225.0304)
 -->
<!-- Title: a_graph Pages: 1 -->
<svg width="3096pt" height="200pt"
 viewBox="0.00 0.00 3095.50 200.00" xmlns="http://www.w3.org/2000/svg" xmlns:xlink="http://www.w3.org/1999/xlink">
<g id="graph0" class="graph" transform="scale(1 1) rotate(0) translate(4 196)">
<title>a_graph</title>
<polygon fill="#ffffff" stroke="transparent" points="-4,4 -4,-196 3091.5,-196 3091.5,4 -4,4"/>
<!-- T18569 -->
<g id="node1" class="node">
<title>T18569</title>
<polygon fill="none" stroke="#0058ad" points="0,-162.5 0,-191.5 2593,-191.5 2593,-162.5 0,-162.5"/>
<text text-anchor="middle" x="607" y="-173.3" font-family="Times,serif" font-size="14.00" fill="#0058ad">r 95 [1 8 4 5 9 10 11 3 12 13 15 14 19 16 17 18 21 24 25 23 26 27 20 30 29 33 28 31 35 37 36 39 38 34 40 41 43 42 46 47 48 49 44 45 50 51 53 54 55 56 52 57 58 59 61 62 60 63 64 66 67 65 68 69 70 71 72 74 75 73]</text>
<polyline fill="none" stroke="#0058ad" points="1214,-162.5 1214,-191.5 "/>
<text text-anchor="middle" x="1875" y="-173.3" font-family="Times,serif" font-size="14.00" fill="#0058ad">r 94 [1 2 4 6 5 3 8 9 10 11 12 14 15 13 16 17 18 19 20 21 22 23 24 25 26 27 28 29 30 31 32 33 34 35 36 37 38 39 41 40 43 44 42 45 46 48 49 50 51 52 53 54 55 57 60 61 56 58 62 65 66 67 68 70 69 71 72 74 73 76 77 75 78 79 82 80 81]</text>
<polyline fill="none" stroke="#0058ad" points="2536,-162.5 2536,-191.5 "/>
<text text-anchor="middle" x="2564.5" y="-173.3" font-family="Times,serif" font-size="14.00" fill="#0058ad">a 94 83</text>
</g>
<!-- T18567 -->
<g id="node2" class="node">
<title>T18567</title>
<polygon fill="none" stroke="#0058ad" points="150,-81.5 150,-110.5 2671,-110.5 2671,-81.5 150,-81.5"/>
<text text-anchor="middle" x="178.5" y="-92.3" font-family="Times,serif" font-size="14.00" fill="#0058ad">a 95 77</text>
<polyline fill="none" stroke="#0058ad" points="207,-81.5 207,-110.5 "/>
<text text-anchor="middle" x="823" y="-92.3" font-family="Times,serif" font-size="14.00" fill="#0058ad">r 95 [1 8 4 5 9 10 11 3 12 13 15 14 19 16 17 18 21 24 25 23 26 27 20 30 29 33 28 31 35 37 36 39 38 34 40 41 43 42 46 47 48 49 44 45 50 51 53 54 55 56 52 57 58 59 61 62 60 63 64 66 67 65 68 69 70 71 72 74 75 73 77]</text>
<polyline fill="none" stroke="#0058ad" points="1439,-81.5 1439,-110.5 "/>
<text text-anchor="middle" x="2055" y="-92.3" font-family="Times,serif" font-size="14.00" fill="#0058ad">r 95 [1 8 4 5 9 10 11 3 12 13 15 14 19 16 17 18 21 24 25 23 26 27 20 30 29 33 28 31 35 37 36 39 38 34 40 41 43 42 46 47 48 49 44 45 50 51 53 54 55 56 52 57 58 59 61 62 60 63 64 66 67 65 68 69 70 71 72 74 75 73 77]</text>
</g>
<!-- T18569&#45;&gt;T18567 -->
<g id="edge1" class="edge">
<title>T18569:f0&#45;&gt;T18567:f0</title>
<path fill="none" stroke="#5b00c0" d="M606.5,-162C606.5,26.0134 194.2355,-290.4229 178.9366,-121.1292"/>
<polygon fill="#5b00c0" stroke="#5b00c0" points="182.4275,-120.84 178.5,-111 175.434,-121.1415 182.4275,-120.84"/>
<text text-anchor="middle" x="613" y="-132.8" font-family="Times,serif" font-size="14.00" fill="#5b00c0">rw</text>
</g>
<!-- T18571 -->
<g id="node3" class="node">
<title>T18571</title>
<polygon fill="none" stroke="#0058ad" points="1415.5,-.5 1415.5,-29.5 3087.5,-29.5 3087.5,-.5 1415.5,-.5"/>
<text text-anchor="middle" x="1441" y="-11.3" font-family="Times,serif" font-size="14.00" fill="#0058ad">r 96 []</text>
<polyline fill="none" stroke="#0058ad" points="1466.5,-.5 1466.5,-29.5 "/>
<text text-anchor="middle" x="1584" y="-11.3" font-family="Times,serif" font-size="14.00" fill="#0058ad">r 1 [2 3 4 6 7 8 9 10 11 12 13 14 15 17]</text>
<polyline fill="none" stroke="#0058ad" points="1701.5,-.5 1701.5,-29.5 "/>
<text text-anchor="middle" x="1733.5" y="-11.3" font-family="Times,serif" font-size="14.00" fill="#0058ad">a 90 105</text>
<polyline fill="none" stroke="#0058ad" points="1765.5,-.5 1765.5,-29.5 "/>
<text text-anchor="middle" x="2426.5" y="-11.3" font-family="Times,serif" font-size="14.00" fill="#0058ad">r 94 [1 2 4 6 5 3 8 9 10 11 12 14 15 13 16 17 18 19 20 21 22 23 24 25 26 27 28 29 30 31 32 33 34 35 36 37 38 39 41 40 43 44 42 45 46 48 49 50 51 52 53 54 55 57 60 61 56 58 62 65 66 67 68 70 69 71 72 74 73 76 77 75 78 79 82 80 81]</text>
</g>
<!-- T18567&#45;&gt;T18571 -->
<g id="edge2" class="edge">
<title>T18567&#45;&gt;T18571</title>
<path fill="none" stroke="#0050c0" d="M1561.3393,-81.4721C1710.4724,-67.1085 1937.8764,-45.2063 2090.4598,-30.5104"/>
<polygon fill="#0050c0" stroke="#0050c0" points="2091.2389,-33.9517 2100.8572,-29.509 2090.5677,-26.9839 2091.2389,-33.9517"/>
<text text-anchor="middle" x="1911" y="-51.8" font-family="Times,serif" font-size="14.00" fill="#0050c0">rt</text>
</g>
<!-- T18571&#45;&gt;T18569 -->
<g id="edge3" class="edge">
<title>T18571:f3&#45;&gt;T18569:f2</title>
<path fill="none" stroke="#5b00c0" d="M2426.5,-30C2426.5,-145.142 2607.535,8.0718 2680.5,-81 2714.8508,-122.9335 2658.4529,-170.9937 2603.6851,-176.4818"/>
<polygon fill="#5b00c0" stroke="#5b00c0" points="2603.3092,-172.9963 2593.5,-177 2603.665,-179.9872 2603.3092,-172.9963"/>
<text text-anchor="middle" x="2698" y="-92.3" font-family="Times,serif" font-size="14.00" fill="#5b00c0">rw</text>
</g>
</g>
</svg>
