<?xml version="1.0" encoding="UTF-8" standalone="no"?>
<!DOCTYPE svg PUBLIC "-//W3C//DTD SVG 1.1//EN"
 "http://www.w3.org/Graphics/SVG/1.1/DTD/svg11.dtd">
<!-- Generated by graphviz version 2.40.1 (20161225.0304)
 -->
<!-- Title: a_graph Pages: 1 -->
<svg width="1276pt" height="119pt"
 viewBox="0.00 0.00 1276.00 119.00" xmlns="http://www.w3.org/2000/svg" xmlns:xlink="http://www.w3.org/1999/xlink">
<g id="graph0" class="graph" transform="scale(1 1) rotate(0) translate(4 115)">
<title>a_graph</title>
<polygon fill="#ffffff" stroke="transparent" points="-4,4 -4,-115 1272,-115 1272,4 -4,4"/>
<!-- T17717 -->
<g id="node1" class="node">
<title>T17717</title>
<polygon fill="none" stroke="#0058ad" points="0,-81.5 0,-110.5 1268,-110.5 1268,-81.5 0,-81.5"/>
<text text-anchor="middle" x="28.5" y="-92.3" font-family="Times,serif" font-size="14.00" fill="#0058ad">a 89 69</text>
<polyline fill="none" stroke="#0058ad" points="57,-81.5 57,-110.5 "/>
<text text-anchor="middle" x="662.5" y="-92.3" font-family="Times,serif" font-size="14.00" fill="#0058ad">r 92 [1 2 3 4 6 7 5 8 9 11 10 13 14 12 15 16 17 18 19 20 21 22 23 24 25 26 27 28 29 30 32 33 34 31 35 36 37 38 39 40 43 44 41 42 45 46 47 48 49 50 52 51 53 55 56 57 58 59 54 61 62 63 60 65 64 66 67 69 70 71 72]</text>
</g>
<!-- T17715 -->
<g id="node2" class="node">
<title>T17715</title>
<polygon fill="none" stroke="#0058ad" points="41.5,-.5 41.5,-29.5 1144.5,-29.5 1144.5,-.5 41.5,-.5"/>
<text text-anchor="middle" x="70" y="-11.3" font-family="Times,serif" font-size="14.00" fill="#0058ad">a 92 73</text>
<polyline fill="none" stroke="#0058ad" points="98.5,-.5 98.5,-29.5 "/>
<text text-anchor="middle" x="621.5" y="-11.3" font-family="Times,serif" font-size="14.00" fill="#0058ad">r 89 [1 2 3 4 5 7 8 9 10 11 12 13 16 18 19 14 15 17 22 23 24 26 27 30 28 31 32 33 34 35 36 37 38 39 40 41 42 43 44 45 46 48 49 50 51 53 54 55 56 57 58 59 60 61 62 63 64 65 66 67 68]</text>
</g>
<!-- T17717&#45;&gt;T17715 -->
<g id="edge1" class="edge">
<title>T17717:f1&#45;&gt;T17715:f0</title>
<path fill="none" stroke="#5b00c0" d="M663,-81C663,-65.694 154.7569,-49.1874 79.3146,-33.7032"/>
<polygon fill="#5b00c0" stroke="#5b00c0" points="80.5856,-30.4421 70,-30 77.9995,-36.9469 80.5856,-30.4421"/>
<text text-anchor="middle" x="494.5" y="-51.8" font-family="Times,serif" font-size="14.00" fill="#5b00c0">rw</text>
</g>
<!-- T17715&#45;&gt;T17717 -->
<g id="edge2" class="edge">
<title>T17715:f1&#45;&gt;T17717:f0</title>
<path fill="none" stroke="#5b00c0" d="M622,-30C622,-52.0227 247.9008,-45.6856 226,-48 140.9191,-56.9911 36.9298,2.9596 28.5426,-70.7879"/>
<polygon fill="#5b00c0" stroke="#5b00c0" points="25.0356,-70.8284 28,-81 32.0257,-71.1998 25.0356,-70.8284"/>
<text text-anchor="middle" x="233.5" y="-51.8" font-family="Times,serif" font-size="14.00" fill="#5b00c0">rw</text>
</g>
</g>
</svg>
