<?xml version="1.0" encoding="UTF-8" standalone="no"?>
<!DOCTYPE svg PUBLIC "-//W3C//DTD SVG 1.1//EN"
 "http://www.w3.org/Graphics/SVG/1.1/DTD/svg11.dtd">
<!-- Generated by graphviz version 2.40.1 (20161225.0304)
 -->
<!-- Title: a_graph Pages: 1 -->
<svg width="2112pt" height="119pt"
 viewBox="0.00 0.00 2112.00 119.00" xmlns="http://www.w3.org/2000/svg" xmlns:xlink="http://www.w3.org/1999/xlink">
<g id="graph0" class="graph" transform="scale(1 1) rotate(0) translate(4 115)">
<title>a_graph</title>
<polygon fill="#ffffff" stroke="transparent" points="-4,4 -4,-115 2108,-115 2108,4 -4,4"/>
<!-- T11191 -->
<g id="node1" class="node">
<title>T11191</title>
<polygon fill="none" stroke="#0058ad" points="0,-81.5 0,-110.5 2104,-110.5 2104,-81.5 0,-81.5"/>
<text text-anchor="middle" x="217.5" y="-92.3" font-family="Times,serif" font-size="14.00" fill="#0058ad">r 56 [1 2 3 4 5 6 7 8 9 10 12 13 14 15 17 18 19 21 22 23 24 25 26 27 28 29]</text>
<polyline fill="none" stroke="#0058ad" points="435,-81.5 435,-110.5 "/>
<text text-anchor="middle" x="1023.5" y="-92.3" font-family="Times,serif" font-size="14.00" fill="#0058ad">r 59 [1 2 3 4 5 6 7 8 9 10 11 12 13 14 15 16 17 18 19 20 21 22 23 24 25 27 26 28 29 30 31 32 33 34 35 36 37 38 39 40 41 42 43 44 45 47 48 49 46 51 50 52 53 54 55 56 57 58 59 60 61 62 63 64 65 66 67 70 71]</text>
<polyline fill="none" stroke="#0058ad" points="1612,-81.5 1612,-110.5 "/>
<text text-anchor="middle" x="1829.5" y="-92.3" font-family="Times,serif" font-size="14.00" fill="#0058ad">r 56 [1 2 3 4 5 6 7 8 9 10 12 13 14 15 17 18 19 21 22 23 24 25 26 27 28 29]</text>
<polyline fill="none" stroke="#0058ad" points="2047,-81.5 2047,-110.5 "/>
<text text-anchor="middle" x="2075.5" y="-92.3" font-family="Times,serif" font-size="14.00" fill="#0058ad">a 59 69</text>
</g>
<!-- T11189 -->
<g id="node2" class="node">
<title>T11189</title>
<polygon fill="none" stroke="#0058ad" points="574.5,-.5 574.5,-29.5 1887.5,-29.5 1887.5,-.5 574.5,-.5"/>
<text text-anchor="middle" x="614" y="-11.3" font-family="Times,serif" font-size="14.00" fill="#0058ad">r 60 [1 2 4]</text>
<polyline fill="none" stroke="#0058ad" points="653.5,-.5 653.5,-29.5 "/>
<text text-anchor="middle" x="682" y="-11.3" font-family="Times,serif" font-size="14.00" fill="#0058ad">a 56 30</text>
<polyline fill="none" stroke="#0058ad" points="710.5,-.5 710.5,-29.5 "/>
<text text-anchor="middle" x="1299" y="-11.3" font-family="Times,serif" font-size="14.00" fill="#0058ad">r 59 [1 2 3 4 5 6 7 8 9 10 11 12 13 14 15 16 17 18 19 20 21 22 23 24 25 27 26 28 29 30 31 32 33 34 35 36 37 38 39 40 41 42 43 44 45 47 48 49 46 51 50 52 53 54 55 56 57 58 59 60 61 62 63 64 65 66 67 70 71]</text>
</g>
<!-- T11191&#45;&gt;T11189 -->
<g id="edge1" class="edge">
<title>T11191:f0&#45;&gt;T11189:f1</title>
<path fill="none" stroke="#5b00c0" d="M217,-81C217,123.3529 666.2423,-225.6041 681.5972,-40.1631"/>
<polygon fill="#5b00c0" stroke="#5b00c0" points="685.1012,-40.1308 682,-30 678.1066,-39.8535 685.1012,-40.1308"/>
<text text-anchor="middle" x="687.5" y="-51.8" font-family="Times,serif" font-size="14.00" fill="#5b00c0">rw</text>
</g>
<!-- T11189&#45;&gt;T11191 -->
<g id="edge2" class="edge">
<title>T11189:f2&#45;&gt;T11191:f3</title>
<path fill="none" stroke="#5b00c0" d="M1888,-15C1928.8183,-15 2054.1503,-33.461 2073.4843,-71.0351"/>
<polygon fill="#5b00c0" stroke="#5b00c0" points="2070.1587,-72.1609 2076,-81 2076.9457,-70.4475 2070.1587,-72.1609"/>
<text text-anchor="middle" x="2072.5" y="-51.8" font-family="Times,serif" font-size="14.00" fill="#5b00c0">rw</text>
</g>
</g>
</svg>
