<?xml version="1.0" encoding="UTF-8" standalone="no"?>
<!DOCTYPE svg PUBLIC "-//W3C//DTD SVG 1.1//EN"
 "http://www.w3.org/Graphics/SVG/1.1/DTD/svg11.dtd">
<!-- Generated by graphviz version 2.40.1 (20161225.0304)
 -->
<!-- Title: a_graph Pages: 1 -->
<svg width="3819pt" height="119pt"
 viewBox="0.00 0.00 3819.00 119.00" xmlns="http://www.w3.org/2000/svg" xmlns:xlink="http://www.w3.org/1999/xlink">
<g id="graph0" class="graph" transform="scale(1 1) rotate(0) translate(4 115)">
<title>a_graph</title>
<polygon fill="#ffffff" stroke="transparent" points="-4,4 -4,-115 3815,-115 3815,4 -4,4"/>
<!-- T5575 -->
<g id="node1" class="node">
<title>T5575</title>
<polygon fill="none" stroke="#0058ad" points="765,-81.5 765,-110.5 3811,-110.5 3811,-81.5 765,-81.5"/>
<text text-anchor="middle" x="793.5" y="-92.3" font-family="Times,serif" font-size="14.00" fill="#0058ad">a 31 50</text>
<polyline fill="none" stroke="#0058ad" points="822,-81.5 822,-110.5 "/>
<text text-anchor="middle" x="1845.5" y="-92.3" font-family="Times,serif" font-size="14.00" fill="#0058ad">r 32 [1 2 3 4 5 6 7 9 10 11 8 14 15 16 17 12 20 21 19 22 24 25 26 27 28 30 31 32 33 34 29 35 37 38 39 40 41 42 43 44 45 46 49 50 51 53 52 54 55 58 59 57 60 56 61 62 63 64 65 66 67 68 69 70 71 72 73 74 75 77 78 79 80 81 82 83 84 85 86 87 88 76 89 90 91 92 94 95 96 97 98 99 93 100 101 103 102 104 106 107 108 109 110 105 111 112 113 114 115 116 117 118]</text>
<polyline fill="none" stroke="#0058ad" points="2869,-81.5 2869,-110.5 "/>
<text text-anchor="middle" x="3340" y="-92.3" font-family="Times,serif" font-size="14.00" fill="#0058ad">r 25 [1 2 3 4 5 7 8 9 10 11 12 13 14 15 16 17 19 20 21 22 23 24 25 26 27 28 29 30 31 32 33 34 35 36 39 40 41 42 43 44 45 46 48 47 49 50 53 54 55 56 57 58 59 60 61]</text>
</g>
<!-- T5577 -->
<g id="node2" class="node">
<title>T5577</title>
<polygon fill="none" stroke="#0058ad" points="0,-.5 0,-29.5 3014,-29.5 3014,-.5 0,-.5"/>
<text text-anchor="middle" x="32" y="-11.3" font-family="Times,serif" font-size="14.00" fill="#0058ad">a 32 121</text>
<polyline fill="none" stroke="#0058ad" points="64,-.5 64,-29.5 "/>
<text text-anchor="middle" x="1099.5" y="-11.3" font-family="Times,serif" font-size="14.00" fill="#0058ad">r 32 [1 2 3 4 5 6 7 9 10 11 8 14 15 16 17 12 20 21 19 22 24 25 26 27 28 30 31 32 33 34 29 35 37 38 39 40 41 42 43 44 45 46 49 50 51 53 52 54 55 58 59 57 60 56 61 62 63 64 65 66 67 68 69 70 71 72 73 74 75 77 78 79 80 81 82 83 84 85 86 87 88 76 89 90 91 92 94 95 96 97 98 99 93 100 101 103 102 104 106 107 108 109 110 105 111 112 113 114 115 116 117 118 121]</text>
<polyline fill="none" stroke="#0058ad" points="2135,-.5 2135,-29.5 "/>
<text text-anchor="middle" x="2167" y="-11.3" font-family="Times,serif" font-size="14.00" fill="#0058ad">a 30 115</text>
<polyline fill="none" stroke="#0058ad" points="2199,-.5 2199,-29.5 "/>
<text text-anchor="middle" x="2606.5" y="-11.3" font-family="Times,serif" font-size="14.00" fill="#0058ad">r 31 [2 1 3 4 5 6 7 8 9 10 11 12 13 14 15 16 17 18 19 20 21 23 22 24 25 26 28 27 30 31 32 34 35 36 33 37 39 38 40 42 41 43 44 45 46 49 47 48]</text>
</g>
<!-- T5575&#45;&gt;T5577 -->
<g id="edge1" class="edge">
<title>T5575:f1&#45;&gt;T5577:f0</title>
<path fill="none" stroke="#5b00c0" d="M1845,-81C1845,5.6332 1152.5945,-50.5875 1066,-48 1052.4703,-47.5957 146.1606,-44.7237 41.7675,-32.3732"/>
<polygon fill="#5b00c0" stroke="#5b00c0" points="42.5437,-28.96 32,-30 40.8909,-35.7621 42.5437,-28.96"/>
<text text-anchor="middle" x="1840.5" y="-51.8" font-family="Times,serif" font-size="14.00" fill="#5b00c0">rw</text>
</g>
<!-- T5577&#45;&gt;T5575 -->
<g id="edge2" class="edge">
<title>T5577:f3&#45;&gt;T5575:f0</title>
<path fill="none" stroke="#5b00c0" d="M2607,-30C2607,-51.6681 1068.6145,-46.4765 1047,-48 936.9927,-55.7538 801.7515,27.3796 793.4064,-70.9124"/>
<polygon fill="#5b00c0" stroke="#5b00c0" points="789.9054,-70.8672 793,-81 796.8998,-71.149 789.9054,-70.8672"/>
<text text-anchor="middle" x="1054.5" y="-51.8" font-family="Times,serif" font-size="14.00" fill="#5b00c0">rw</text>
</g>
</g>
</svg>
