<?xml version="1.0" encoding="UTF-8" standalone="no"?>
<!DOCTYPE svg PUBLIC "-//W3C//DTD SVG 1.1//EN"
 "http://www.w3.org/Graphics/SVG/1.1/DTD/svg11.dtd">
<!-- Generated by graphviz version 2.40.1 (20161225.0304)
 -->
<!-- Title: a_graph Pages: 1 -->
<svg width="506pt" height="119pt"
 viewBox="0.00 0.00 505.50 119.00" xmlns="http://www.w3.org/2000/svg" xmlns:xlink="http://www.w3.org/1999/xlink">
<g id="graph0" class="graph" transform="scale(1 1) rotate(0) translate(4 115)">
<title>a_graph</title>
<polygon fill="#ffffff" stroke="transparent" points="-4,4 -4,-115 501.5,-115 501.5,4 -4,4"/>
<!-- T19109 -->
<g id="node1" class="node">
<title>T19109</title>
<polygon fill="none" stroke="#0058ad" points="0,-81.5 0,-110.5 398,-110.5 398,-81.5 0,-81.5"/>
<text text-anchor="middle" x="28.5" y="-92.3" font-family="Times,serif" font-size="14.00" fill="#0058ad">a 100 4</text>
<polyline fill="none" stroke="#0058ad" points="57,-81.5 57,-110.5 "/>
<text text-anchor="middle" x="179.5" y="-92.3" font-family="Times,serif" font-size="14.00" fill="#0058ad">r 98 [1 2 4 3 5 6 7 8 11 12 9 13 14 15 16]</text>
<polyline fill="none" stroke="#0058ad" points="302,-81.5 302,-110.5 "/>
<text text-anchor="middle" x="350" y="-92.3" font-family="Times,serif" font-size="14.00" fill="#0058ad">r 100 [1 2 3 4]</text>
</g>
<!-- T19111 -->
<g id="node2" class="node">
<title>T19111</title>
<polygon fill="none" stroke="#0058ad" points="34.5,-.5 34.5,-29.5 497.5,-29.5 497.5,-.5 34.5,-.5"/>
<text text-anchor="middle" x="77.5" y="-11.3" font-family="Times,serif" font-size="14.00" fill="#0058ad">r 100 [1 2 3]</text>
<polyline fill="none" stroke="#0058ad" points="120.5,-.5 120.5,-29.5 "/>
<text text-anchor="middle" x="149" y="-11.3" font-family="Times,serif" font-size="14.00" fill="#0058ad">a 98 17</text>
<polyline fill="none" stroke="#0058ad" points="177.5,-.5 177.5,-29.5 "/>
<text text-anchor="middle" x="206" y="-11.3" font-family="Times,serif" font-size="14.00" fill="#0058ad">a 99 28</text>
<polyline fill="none" stroke="#0058ad" points="234.5,-.5 234.5,-29.5 "/>
<text text-anchor="middle" x="366" y="-11.3" font-family="Times,serif" font-size="14.00" fill="#0058ad">r 98 [1 2 4 3 5 6 7 8 11 12 9 13 14 15 16 17]</text>
</g>
<!-- T19109&#45;&gt;T19111 -->
<g id="edge1" class="edge">
<title>T19109:f1&#45;&gt;T19111:f1</title>
<path fill="none" stroke="#5b00c0" d="M179,-81C179,-58.6061 157.2452,-56.4385 150.7868,-40.0493"/>
<polygon fill="#5b00c0" stroke="#5b00c0" points="154.1966,-39.2329 149,-30 147.3047,-40.4583 154.1966,-39.2329"/>
<text text-anchor="middle" x="178.5" y="-51.8" font-family="Times,serif" font-size="14.00" fill="#5b00c0">rw</text>
</g>
<!-- T19111&#45;&gt;T19109 -->
<g id="edge2" class="edge">
<title>T19111:f0&#45;&gt;T19109:f0</title>
<path fill="none" stroke="#5b00c0" d="M34,-15C7.8823,-15 23.3651,-43.7348 27.2081,-70.7806"/>
<polygon fill="#5b00c0" stroke="#5b00c0" points="23.7378,-71.3003 28,-81 30.7168,-70.7594 23.7378,-71.3003"/>
<text text-anchor="middle" x="33.5" y="-51.8" font-family="Times,serif" font-size="14.00" fill="#5b00c0">rw</text>
</g>
</g>
</svg>
