<?xml version="1.0" encoding="UTF-8" standalone="no"?>
<!DOCTYPE svg PUBLIC "-//W3C//DTD SVG 1.1//EN"
 "http://www.w3.org/Graphics/SVG/1.1/DTD/svg11.dtd">
<!-- Generated by graphviz version 2.40.1 (20161225.0304)
 -->
<!-- Title: a_graph Pages: 1 -->
<svg width="1894pt" height="119pt"
 viewBox="0.00 0.00 1894.00 119.00" xmlns="http://www.w3.org/2000/svg" xmlns:xlink="http://www.w3.org/1999/xlink">
<g id="graph0" class="graph" transform="scale(1 1) rotate(0) translate(4 115)">
<title>a_graph</title>
<polygon fill="#ffffff" stroke="transparent" points="-4,4 -4,-115 1890,-115 1890,4 -4,4"/>
<!-- T17601 -->
<g id="node1" class="node">
<title>T17601</title>
<polygon fill="none" stroke="#0058ad" points="1308.5,-81.5 1308.5,-110.5 1631.5,-110.5 1631.5,-81.5 1308.5,-81.5"/>
<text text-anchor="middle" x="1337" y="-92.3" font-family="Times,serif" font-size="14.00" fill="#0058ad">a 92 33</text>
<polyline fill="none" stroke="#0058ad" points="1365.5,-81.5 1365.5,-110.5 "/>
<text text-anchor="middle" x="1498.5" y="-92.3" font-family="Times,serif" font-size="14.00" fill="#0058ad">r 90 [1 2 6 7 8 9 10 11 12 13 14 15 16 18 19]</text>
</g>
<!-- T17603 -->
<g id="node2" class="node">
<title>T17603</title>
<polygon fill="none" stroke="#0058ad" points="0,-.5 0,-29.5 1886,-29.5 1886,-.5 0,-.5"/>
<text text-anchor="middle" x="260.5" y="-11.3" font-family="Times,serif" font-size="14.00" fill="#0058ad">r 92 [1 2 3 4 6 7 5 8 9 11 10 13 14 12 15 16 17 18 19 20 21 22 23 24 25 26 27 28 29 30 32]</text>
<polyline fill="none" stroke="#0058ad" points="521,-.5 521,-29.5 "/>
<text text-anchor="middle" x="914.5" y="-11.3" font-family="Times,serif" font-size="14.00" fill="#0058ad">r 89 [1 2 3 4 5 7 8 9 10 11 12 13 16 18 19 14 15 17 22 23 24 26 27 30 28 31 32 33 34 35 36 37 38 39 40 41 42 43 44 45 46 48 49 50 51 53]</text>
<polyline fill="none" stroke="#0058ad" points="1308,-.5 1308,-29.5 "/>
<text text-anchor="middle" x="1568.5" y="-11.3" font-family="Times,serif" font-size="14.00" fill="#0058ad">r 92 [1 2 3 4 6 7 5 8 9 11 10 13 14 12 15 16 17 18 19 20 21 22 23 24 25 26 27 28 29 30 32]</text>
<polyline fill="none" stroke="#0058ad" points="1829,-.5 1829,-29.5 "/>
<text text-anchor="middle" x="1857.5" y="-11.3" font-family="Times,serif" font-size="14.00" fill="#0058ad">a 90 17</text>
</g>
<!-- T17601&#45;&gt;T17603 -->
<g id="edge1" class="edge">
<title>T17601:f1&#45;&gt;T17603:f3</title>
<path fill="none" stroke="#5b00c0" d="M1632,-96C1680.8456,-96 1835.4683,-84.0766 1855.7887,-39.9193"/>
<polygon fill="#5b00c0" stroke="#5b00c0" points="1859.2402,-40.522 1858,-30 1852.4079,-38.9988 1859.2402,-40.522"/>
<text text-anchor="middle" x="1855.5" y="-51.8" font-family="Times,serif" font-size="14.00" fill="#5b00c0">rw</text>
</g>
<!-- T17603&#45;&gt;T17601 -->
<g id="edge2" class="edge">
<title>T17603:f0&#45;&gt;T17601:f0</title>
<path fill="none" stroke="#5b00c0" d="M260,-30C260,-86.1727 1177.5738,-95.3615 1297.756,-95.9661"/>
<polygon fill="#5b00c0" stroke="#5b00c0" points="1297.9885,-99.4668 1308,-96 1298.0117,-92.4669 1297.9885,-99.4668"/>
<text text-anchor="middle" x="390.5" y="-51.8" font-family="Times,serif" font-size="14.00" fill="#5b00c0">rw</text>
</g>
</g>
</svg>
