<?xml version="1.0" encoding="UTF-8" standalone="no"?>
<!DOCTYPE svg PUBLIC "-//W3C//DTD SVG 1.1//EN"
 "http://www.w3.org/Graphics/SVG/1.1/DTD/svg11.dtd">
<!-- Generated by graphviz version 2.40.1 (20161225.0304)
 -->
<!-- Title: a_graph Pages: 1 -->
<svg width="2806pt" height="119pt"
 viewBox="0.00 0.00 2806.00 119.00" xmlns="http://www.w3.org/2000/svg" xmlns:xlink="http://www.w3.org/1999/xlink">
<g id="graph0" class="graph" transform="scale(1 1) rotate(0) translate(4 115)">
<title>a_graph</title>
<polygon fill="#ffffff" stroke="transparent" points="-4,4 -4,-115 2802,-115 2802,4 -4,4"/>
<!-- T5995 -->
<g id="node1" class="node">
<title>T5995</title>
<polygon fill="none" stroke="#0058ad" points="0,-81.5 0,-110.5 2798,-110.5 2798,-81.5 0,-81.5"/>
<text text-anchor="middle" x="407.5" y="-92.3" font-family="Times,serif" font-size="14.00" fill="#0058ad">r 34 [1 2 3 4 6 7 5 8 10 9 13 14 15 11 12 16 18 20 19 21 22 23 24 26 25 29 27 30 31 32 34 35 36 37 38 39 40 41 42 43 44 45 46 48 49 50 51 47]</text>
<polyline fill="none" stroke="#0058ad" points="815,-81.5 815,-110.5 "/>
<text text-anchor="middle" x="1746" y="-92.3" font-family="Times,serif" font-size="14.00" fill="#0058ad">r 33 [3 5 2 6 7 9 4 12 13 10 11 14 17 18 16 19 20 21 15 22 23 24 25 26 27 28 29 30 32 31 33 34 35 36 38 39 42 40 41 46 47 43 44 45 48 50 51 49 54 55 57 52 53 58 61 62 60 63 64 65 67 66 71 69 70 73 74 72 68 75 76 77 78 79 80 81 82 83 85 86 87 88 84 89 90 92 93 94 91 95 97 98 99 96 101 102 103 104 105 106 107 108 100 109]</text>
<polyline fill="none" stroke="#0058ad" points="2677,-81.5 2677,-110.5 "/>
<text text-anchor="middle" x="2709" y="-92.3" font-family="Times,serif" font-size="14.00" fill="#0058ad">a 33 110</text>
<polyline fill="none" stroke="#0058ad" points="2741,-81.5 2741,-110.5 "/>
<text text-anchor="middle" x="2769.5" y="-92.3" font-family="Times,serif" font-size="14.00" fill="#0058ad">a 31 80</text>
</g>
<!-- T5993 -->
<g id="node2" class="node">
<title>T5993</title>
<polygon fill="none" stroke="#0058ad" points="600,-.5 600,-29.5 2012,-29.5 2012,-.5 600,-.5"/>
<text text-anchor="middle" x="1249" y="-11.3" font-family="Times,serif" font-size="14.00" fill="#0058ad">r 31 [2 1 3 4 5 6 7 8 9 10 11 12 13 14 15 16 17 18 19 20 21 23 22 24 25 26 28 27 30 31 32 34 35 36 33 37 39 38 40 42 41 43 44 45 46 49 47 48 50 51 52 53 54 55 56 57 58 59 60 61 64 65 66 67 68 69 70 71 72 74 75 73 76 77 78 79]</text>
<polyline fill="none" stroke="#0058ad" points="1898,-.5 1898,-29.5 "/>
<text text-anchor="middle" x="1926.5" y="-11.3" font-family="Times,serif" font-size="14.00" fill="#0058ad">a 34 52</text>
<polyline fill="none" stroke="#0058ad" points="1955,-.5 1955,-29.5 "/>
<text text-anchor="middle" x="1983.5" y="-11.3" font-family="Times,serif" font-size="14.00" fill="#0058ad">a 25 77</text>
</g>
<!-- T5995&#45;&gt;T5993 -->
<g id="edge1" class="edge">
<title>T5995:f0&#45;&gt;T5993:f1</title>
<path fill="none" stroke="#5b00c0" d="M407,-81C407,84.5184 1865.2955,-187.4055 1925.1084,-39.8291"/>
<polygon fill="#5b00c0" stroke="#5b00c0" points="1928.5471,-40.4813 1927,-30 1921.6732,-39.1584 1928.5471,-40.4813"/>
<text text-anchor="middle" x="1926.5" y="-51.8" font-family="Times,serif" font-size="14.00" fill="#5b00c0">rw</text>
</g>
<!-- T5993&#45;&gt;T5995 -->
<g id="edge2" class="edge">
<title>T5993:f0&#45;&gt;T5995:f3</title>
<path fill="none" stroke="#5b00c0" d="M1249,-30C1249,-49.1454 1918.8649,-47.3706 1938,-48 2027.0357,-50.9286 2716.0039,6.9644 2767.0156,-71.3296"/>
<polygon fill="#5b00c0" stroke="#5b00c0" points="2763.7067,-72.4768 2770,-81 2770.3954,-70.4125 2763.7067,-72.4768"/>
<text text-anchor="middle" x="2763.5" y="-51.8" font-family="Times,serif" font-size="14.00" fill="#5b00c0">rw</text>
</g>
</g>
</svg>
