<?xml version="1.0" encoding="UTF-8" standalone="no"?>
<!DOCTYPE svg PUBLIC "-//W3C//DTD SVG 1.1//EN"
 "http://www.w3.org/Graphics/SVG/1.1/DTD/svg11.dtd">
<!-- Generated by graphviz version 2.40.1 (20161225.0304)
 -->
<!-- Title: a_graph Pages: 1 -->
<svg width="5125pt" height="119pt"
 viewBox="0.00 0.00 5125.00 119.00" xmlns="http://www.w3.org/2000/svg" xmlns:xlink="http://www.w3.org/1999/xlink">
<g id="graph0" class="graph" transform="scale(1 1) rotate(0) translate(4 115)">
<title>a_graph</title>
<polygon fill="#ffffff" stroke="transparent" points="-4,4 -4,-115 5121,-115 5121,4 -4,4"/>
<!-- T2795 -->
<g id="node1" class="node">
<title>T2795</title>
<polygon fill="none" stroke="#0058ad" points="2829,-81.5 2829,-110.5 5117,-110.5 5117,-81.5 2829,-81.5"/>
<text text-anchor="middle" x="2857.5" y="-92.3" font-family="Times,serif" font-size="14.00" fill="#0058ad">a 18 68</text>
<polyline fill="none" stroke="#0058ad" points="2886,-81.5 2886,-110.5 "/>
<text text-anchor="middle" x="3973" y="-92.3" font-family="Times,serif" font-size="14.00" fill="#0058ad">r 19 [2 3 4 5 1 6 9 10 13 14 15 7 16 17 18 19 20 8 22 21 23 25 26 27 28 29 33 34 30 31 32 35 24 36 37 38 39 40 41 42 43 44 45 46 47 48 49 50 51 52 55 53 54 56 57 58 59 60 61 62 63 65 66 67 68 64 69 71 70 73 77 78 72 80 79 83 82 84 85 86 87 90 89 92 88 93 94 95 96 100 101 102 103 97 104 98 99 105 107 108 106 110 111 109 112 115 116 117 118 113 114 120 119 122 123 124 126]</text>
<polyline fill="none" stroke="#0058ad" points="5060,-81.5 5060,-110.5 "/>
<text text-anchor="middle" x="5088.5" y="-92.3" font-family="Times,serif" font-size="14.00" fill="#0058ad">a 18 69</text>
</g>
<!-- T2799 -->
<g id="node2" class="node">
<title>T2799</title>
<polygon fill="none" stroke="#0058ad" points="0,-.5 0,-29.5 4056,-29.5 4056,-.5 0,-.5"/>
<text text-anchor="middle" x="1087" y="-11.3" font-family="Times,serif" font-size="14.00" fill="#0058ad">r 19 [2 3 4 5 1 6 9 10 13 14 15 7 16 17 18 19 20 8 22 21 23 25 26 27 28 29 33 34 30 31 32 35 24 36 37 38 39 40 41 42 43 44 45 46 47 48 49 50 51 52 55 53 54 56 57 58 59 60 61 62 63 65 66 67 68 64 69 71 70 73 77 78 72 80 79 83 82 84 85 86 87 90 89 92 88 93 94 95 96 100 101 102 103 97 104 98 99 105 107 108 106 110 111 109 112 115 116 117 118 113 114 120 119 122 123 124 126]</text>
<polyline fill="none" stroke="#0058ad" points="2174,-.5 2174,-29.5 "/>
<text text-anchor="middle" x="2705.5" y="-11.3" font-family="Times,serif" font-size="14.00" fill="#0058ad">r 18 [1 3 4 5 6 7 9 8 12 10 11 14 13 15 16 17 18 19 20 21 22 23 24 25 26 27 28 29 30 31 32 33 34 36 37 35 38 39 41 42 44 43 45 46 47 48 50 49 51 53 54 55 52 57 58 59 60 56 62 61 63 64]</text>
<polyline fill="none" stroke="#0058ad" points="3237,-.5 3237,-29.5 "/>
<text text-anchor="middle" x="3614.5" y="-11.3" font-family="Times,serif" font-size="14.00" fill="#0058ad">r 16 [37 40 42 43 46 44 45 51 52 53 55 59 58 60 61 62 63 64 66 65 67 68 69 70 72 71 73 74 75 76 77 78 79 80 81 83 84 82 85 86 87]</text>
<polyline fill="none" stroke="#0058ad" points="3992,-.5 3992,-29.5 "/>
<text text-anchor="middle" x="4024" y="-11.3" font-family="Times,serif" font-size="14.00" fill="#0058ad">a 19 121</text>
</g>
<!-- T2795&#45;&gt;T2799 -->
<g id="edge1" class="edge">
<title>T2795:f1&#45;&gt;T2799:f3</title>
<path fill="none" stroke="#5b00c0" d="M3973,-81C3973,-52.8262 4012.3963,-59.5425 4021.9376,-39.8186"/>
<polygon fill="#5b00c0" stroke="#5b00c0" points="4025.3695,-40.5059 4024,-30 4018.519,-39.0669 4025.3695,-40.5059"/>
<text text-anchor="middle" x="4021.5" y="-51.8" font-family="Times,serif" font-size="14.00" fill="#5b00c0">rw</text>
</g>
<!-- T2799&#45;&gt;T2795 -->
<g id="edge2" class="edge">
<title>T2799:f1&#45;&gt;T2795:f0</title>
<path fill="none" stroke="#5b00c0" d="M2706,-30C2706,-88.6466 2760.4753,-95.3931 2818.8411,-95.9556"/>
<polygon fill="#5b00c0" stroke="#5b00c0" points="2818.9848,-99.4562 2829,-96 2819.0154,-92.4562 2818.9848,-99.4562"/>
<text text-anchor="middle" x="2720.5" y="-51.8" font-family="Times,serif" font-size="14.00" fill="#5b00c0">rw</text>
</g>
</g>
</svg>
