<?xml version="1.0" encoding="UTF-8" standalone="no"?>
<!DOCTYPE svg PUBLIC "-//W3C//DTD SVG 1.1//EN"
 "http://www.w3.org/Graphics/SVG/1.1/DTD/svg11.dtd">
<!-- Generated by graphviz version 2.40.1 (20161225.0304)
 -->
<!-- Title: a_graph Pages: 1 -->
<svg width="2014pt" height="200pt"
 viewBox="0.00 0.00 2013.50 200.00" xmlns="http://www.w3.org/2000/svg" xmlns:xlink="http://www.w3.org/1999/xlink">
<g id="graph0" class="graph" transform="scale(1 1) rotate(0) translate(4 196)">
<title>a_graph</title>
<polygon fill="#ffffff" stroke="transparent" points="-4,4 -4,-196 2009.5,-196 2009.5,4 -4,4"/>
<!-- T20075 -->
<g id="node1" class="node">
<title>T20075</title>
<polygon fill="none" stroke="#0058ad" points="1323.5,-162.5 1323.5,-191.5 1387.5,-191.5 1387.5,-162.5 1323.5,-162.5"/>
<text text-anchor="middle" x="1355.5" y="-173.3" font-family="Times,serif" font-size="14.00" fill="#0058ad">a 102 43</text>
</g>
<!-- T20079 -->
<g id="node2" class="node">
<title>T20079</title>
<polygon fill="none" stroke="#0058ad" points="0,-81.5 0,-110.5 1783,-110.5 1783,-81.5 0,-81.5"/>
<text text-anchor="middle" x="891.5" y="-92.3" font-family="Times,serif" font-size="14.00" fill="#0058ad">r 91 [1 2 3 4 5 6 7 8 9 10 11 12 13 14 16 17 18 19 20 21 22 23 24 25 26 27 28 29 30 31 32 33 35 36 37 38 39 40 41 42 43 45 44 46 47 48 50 49 52 53 54 56 57 58 59 60 61 62 63 64 67 68 69 70 71 72 73 74 75 77 76 78 79 80 82 81 83 84 85 86 87 88 89 90 91 92 94 93 95 96 97 98 99 100 102 101 103 104 105 106 107]</text>
</g>
<!-- T20075&#45;&gt;T20079 -->
<g id="edge1" class="edge">
<title>T20075&#45;&gt;T20079</title>
<path fill="none" stroke="#0050c0" d="M1323.2408,-171.3685C1254.1549,-159.3083 1089.6782,-130.5958 984.8498,-112.296"/>
<polygon fill="#0050c0" stroke="#0050c0" points="985.3495,-108.8304 974.8966,-110.5584 984.1457,-115.7261 985.3495,-108.8304"/>
<text text-anchor="middle" x="1170" y="-132.8" font-family="Times,serif" font-size="14.00" fill="#0050c0">rt</text>
</g>
<!-- T20081 -->
<g id="node3" class="node">
<title>T20081</title>
<polygon fill="none" stroke="#0058ad" points="1157.5,-.5 1157.5,-29.5 2005.5,-29.5 2005.5,-.5 1157.5,-.5"/>
<text text-anchor="middle" x="1189.5" y="-11.3" font-family="Times,serif" font-size="14.00" fill="#0058ad">a 103 42</text>
<polyline fill="none" stroke="#0058ad" points="1221.5,-.5 1221.5,-29.5 "/>
<text text-anchor="middle" x="1253.5" y="-11.3" font-family="Times,serif" font-size="14.00" fill="#0058ad">a 103 43</text>
<polyline fill="none" stroke="#0058ad" points="1285.5,-.5 1285.5,-29.5 "/>
<text text-anchor="middle" x="1317.5" y="-11.3" font-family="Times,serif" font-size="14.00" fill="#0058ad">a 91 109</text>
<polyline fill="none" stroke="#0058ad" points="1349.5,-.5 1349.5,-29.5 "/>
<text text-anchor="middle" x="1677.5" y="-11.3" font-family="Times,serif" font-size="14.00" fill="#0058ad">r 102 [1 2 3 4 5 6 7 8 10 11 12 13 14 16 18 17 19 20 21 22 23 24 25 27 26 28 29 31 30 32 33 34 35 37 39 40 41 42]</text>
</g>
<!-- T20079&#45;&gt;T20081 -->
<g id="edge2" class="edge">
<title>T20079:f0&#45;&gt;T20081:f2</title>
<path fill="none" stroke="#5b00c0" d="M1248.1076,-81.4684C1283.6136,-72.341 1309.1543,-59.1014 1315.7954,-40.1201"/>
<polygon fill="#5b00c0" stroke="#5b00c0" points="1319.2904,-40.4425 1317.5,-30 1312.3876,-39.2797 1319.2904,-40.4425"/>
<text text-anchor="middle" x="1318" y="-51.8" font-family="Times,serif" font-size="14.00" fill="#5b00c0">rw</text>
</g>
<!-- T20081&#45;&gt;T20075 -->
<g id="edge3" class="edge">
<title>T20081:f3&#45;&gt;T20075:f0</title>
<path fill="none" stroke="#5b00c0" d="M1677.5,-30C1677.5,-85.5058 1761.3109,-34.422 1791.5,-81 1798.7519,-92.1887 1800.3179,-100.9989 1791.5,-111 1733.7586,-176.4888 1492.2602,-139.6435 1396.0079,-159.9702"/>
<polygon fill="#5b00c0" stroke="#5b00c0" points="1394.9468,-156.6271 1386.0808,-162.4275 1396.6289,-163.422 1394.9468,-156.6271"/>
<text text-anchor="middle" x="1806" y="-92.3" font-family="Times,serif" font-size="14.00" fill="#5b00c0">rw</text>
</g>
</g>
</svg>
