<?xml version="1.0" encoding="UTF-8" standalone="no"?>
<!DOCTYPE svg PUBLIC "-//W3C//DTD SVG 1.1//EN"
 "http://www.w3.org/Graphics/SVG/1.1/DTD/svg11.dtd">
<!-- Generated by graphviz version 2.40.1 (20161225.0304)
 -->
<!-- Title: a_graph Pages: 1 -->
<svg width="1241pt" height="200pt"
 viewBox="0.00 0.00 1240.50 200.00" xmlns="http://www.w3.org/2000/svg" xmlns:xlink="http://www.w3.org/1999/xlink">
<g id="graph0" class="graph" transform="scale(1 1) rotate(0) translate(4 196)">
<title>a_graph</title>
<polygon fill="#ffffff" stroke="transparent" points="-4,4 -4,-196 1236.5,-196 1236.5,4 -4,4"/>
<!-- T16785 -->
<g id="node1" class="node">
<title>T16785</title>
<polygon fill="none" stroke="#0058ad" points="168,-162.5 168,-191.5 746,-191.5 746,-162.5 168,-162.5"/>
<text text-anchor="middle" x="295" y="-173.3" font-family="Times,serif" font-size="14.00" fill="#0058ad">r 87 [10 11 12 13 14 15 16 17 18 19 20 21]</text>
<polyline fill="none" stroke="#0058ad" points="422,-162.5 422,-191.5 "/>
<text text-anchor="middle" x="480" y="-173.3" font-family="Times,serif" font-size="14.00" fill="#0058ad">r 86 [59 60 61 62]</text>
<polyline fill="none" stroke="#0058ad" points="538,-162.5 538,-191.5 "/>
<text text-anchor="middle" x="613.5" y="-173.3" font-family="Times,serif" font-size="14.00" fill="#0058ad">r 82 [86 88 87 89 90 91]</text>
<polyline fill="none" stroke="#0058ad" points="689,-162.5 689,-191.5 "/>
<text text-anchor="middle" x="717.5" y="-173.3" font-family="Times,serif" font-size="14.00" fill="#0058ad">a 77 96</text>
</g>
<!-- T16787 -->
<g id="node2" class="node">
<title>T16787</title>
<polygon fill="none" stroke="#0058ad" points="0,-.5 0,-29.5 1086,-29.5 1086,-.5 0,-.5"/>
<text text-anchor="middle" x="127" y="-11.3" font-family="Times,serif" font-size="14.00" fill="#0058ad">r 87 [10 11 12 13 14 15 16 17 18 19 20 21]</text>
<polyline fill="none" stroke="#0058ad" points="254,-.5 254,-29.5 "/>
<text text-anchor="middle" x="514.5" y="-11.3" font-family="Times,serif" font-size="14.00" fill="#0058ad">r 77 [1 2 3 4 5 6 7 8 9 10 11 12 13 14 15 16 17 19 18 20 21 22 23 24 25 26 27 28 29 94 95]</text>
<polyline fill="none" stroke="#0058ad" points="775,-.5 775,-29.5 "/>
<text text-anchor="middle" x="803.5" y="-11.3" font-family="Times,serif" font-size="14.00" fill="#0058ad">a 86 63</text>
<polyline fill="none" stroke="#0058ad" points="832,-.5 832,-29.5 "/>
<text text-anchor="middle" x="959" y="-11.3" font-family="Times,serif" font-size="14.00" fill="#0058ad">r 87 [10 11 12 13 14 15 16 17 18 19 20 21]</text>
</g>
<!-- T16785&#45;&gt;T16787 -->
<g id="edge2" class="edge">
<title>T16785:f1&#45;&gt;T16787:f2</title>
<path fill="none" stroke="#5b00c0" d="M480,-162C480,-84.8188 540.0491,-78.3795 611,-48 628.2467,-40.6154 761.8957,-48.7804 796.0654,-36.7721"/>
<polygon fill="#5b00c0" stroke="#5b00c0" points="798.6659,-39.1541 804,-30 794.1215,-33.8297 798.6659,-39.1541"/>
<text text-anchor="middle" x="536.5" y="-92.3" font-family="Times,serif" font-size="14.00" fill="#5b00c0">rw</text>
</g>
<!-- T16789 -->
<g id="node3" class="node">
<title>T16789</title>
<polygon fill="none" stroke="#0058ad" points="689.5,-81.5 689.5,-110.5 1232.5,-110.5 1232.5,-81.5 689.5,-81.5"/>
<text text-anchor="middle" x="718" y="-92.3" font-family="Times,serif" font-size="14.00" fill="#0058ad">a 77 97</text>
<polyline fill="none" stroke="#0058ad" points="746.5,-81.5 746.5,-110.5 "/>
<text text-anchor="middle" x="804.5" y="-92.3" font-family="Times,serif" font-size="14.00" fill="#0058ad">r 86 [59 60 61 62]</text>
<polyline fill="none" stroke="#0058ad" points="862.5,-81.5 862.5,-110.5 "/>
<text text-anchor="middle" x="989.5" y="-92.3" font-family="Times,serif" font-size="14.00" fill="#0058ad">r 87 [10 11 12 13 14 15 16 17 18 19 20 21]</text>
<polyline fill="none" stroke="#0058ad" points="1116.5,-81.5 1116.5,-110.5 "/>
<text text-anchor="middle" x="1174.5" y="-92.3" font-family="Times,serif" font-size="14.00" fill="#0058ad">r 86 [59 60 61 62]</text>
</g>
<!-- T16785&#45;&gt;T16789 -->
<g id="edge1" class="edge">
<title>T16785:f3&#45;&gt;T16789:f0</title>
<path fill="none" stroke="#c02700" d="M718,-162C718,-143.2292 718,-136.1168 718,-121.3535"/>
<polygon fill="#c02700" stroke="#c02700" points="721.5001,-121 718,-111 714.5001,-121 721.5001,-121"/>
<text text-anchor="middle" x="728" y="-132.8" font-family="Times,serif" font-size="14.00" fill="#c02700">ww</text>
</g>
<!-- T16787&#45;&gt;T16785 -->
<g id="edge3" class="edge">
<title>T16787:f1&#45;&gt;T16785:f3</title>
<path fill="none" stroke="#5b00c0" d="M514,-30C514,-51.0502 588.6177,-37.7432 607,-48 640.2355,-66.5444 638.3868,-83.7928 665,-111 685.1801,-131.6305 711.0357,-130.1052 716.8185,-151.9561"/>
<polygon fill="#5b00c0" stroke="#5b00c0" points="713.3556,-152.4774 718,-162 720.3076,-151.6595 713.3556,-152.4774"/>
<text text-anchor="middle" x="672.5" y="-92.3" font-family="Times,serif" font-size="14.00" fill="#5b00c0">rw</text>
</g>
<!-- T16789&#45;&gt;T16787 -->
<g id="edge4" class="edge">
<title>T16789:f1&#45;&gt;T16787:f2</title>
<path fill="none" stroke="#5b00c0" d="M804,-81C804,-62.2292 804,-55.1168 804,-40.3535"/>
<polygon fill="#5b00c0" stroke="#5b00c0" points="807.5001,-40 804,-30 800.5001,-40 807.5001,-40"/>
<text text-anchor="middle" x="811.5" y="-51.8" font-family="Times,serif" font-size="14.00" fill="#5b00c0">rw</text>
</g>
</g>
</svg>
