<?xml version="1.0" encoding="UTF-8" standalone="no"?>
<!DOCTYPE svg PUBLIC "-//W3C//DTD SVG 1.1//EN"
 "http://www.w3.org/Graphics/SVG/1.1/DTD/svg11.dtd">
<!-- Generated by graphviz version 2.40.1 (20161225.0304)
 -->
<!-- Title: a_graph Pages: 1 -->
<svg width="4120pt" height="200pt"
 viewBox="0.00 0.00 4119.50 200.00" xmlns="http://www.w3.org/2000/svg" xmlns:xlink="http://www.w3.org/1999/xlink">
<g id="graph0" class="graph" transform="scale(1 1) rotate(0) translate(4 196)">
<title>a_graph</title>
<polygon fill="#ffffff" stroke="transparent" points="-4,4 -4,-196 4115.5,-196 4115.5,4 -4,4"/>
<!-- T12379 -->
<g id="node1" class="node">
<title>T12379</title>
<polygon fill="none" stroke="#0058ad" points="2117.5,-162.5 2117.5,-191.5 4111.5,-191.5 4111.5,-162.5 2117.5,-162.5"/>
<text text-anchor="middle" x="3086" y="-173.3" font-family="Times,serif" font-size="14.00" fill="#0058ad">r 62 [1 2 3 4 5 6 7 8 9 10 11 12 14 13 15 16 17 18 19 20 21 22 23 24 26 27 28 29 30 31 34 35 37 36 40 38 39 41 42 43 45 46 47 48 49 50 51 52 53 54 55 56 57 58 59 61 60 62 63 64 65 66 67 68 69 70 71 72 73 74 75 77 76 79 80 78 81 82 83 84 85 86 87 88 89 90 91 92 93 94 95 96 97 100 98 99 101 102 103 104 105 106 107 108 109 110 111 112]</text>
<polyline fill="none" stroke="#0058ad" points="4054.5,-162.5 4054.5,-191.5 "/>
<text text-anchor="middle" x="4083" y="-173.3" font-family="Times,serif" font-size="14.00" fill="#0058ad">a 65 53</text>
</g>
<!-- T12377 -->
<g id="node2" class="node">
<title>T12377</title>
<polygon fill="none" stroke="#0058ad" points="0,-81.5 0,-110.5 3699,-110.5 3699,-81.5 0,-81.5"/>
<text text-anchor="middle" x="968.5" y="-92.3" font-family="Times,serif" font-size="14.00" fill="#0058ad">r 62 [1 2 3 4 5 6 7 8 9 10 11 12 14 13 15 16 17 18 19 20 21 22 23 24 26 27 28 29 30 31 34 35 37 36 40 38 39 41 42 43 45 46 47 48 49 50 51 52 53 54 55 56 57 58 59 61 60 62 63 64 65 66 67 68 69 70 71 72 73 74 75 77 76 79 80 78 81 82 83 84 85 86 87 88 89 90 91 92 93 94 95 96 97 100 98 99 101 102 103 104 105 106 107 108 109 110 111 112]</text>
<polyline fill="none" stroke="#0058ad" points="1937,-81.5 1937,-110.5 "/>
<text text-anchor="middle" x="2361.5" y="-92.3" font-family="Times,serif" font-size="14.00" fill="#0058ad">r 65 [1 2 3 4 5 6 7 8 9 10 11 12 13 14 15 16 17 18 19 21 22 20 23 24 25 26 27 28 29 30 31 32 33 34 35 36 37 38 39 40 41 42 43 44 45 46 47 48 49 50]</text>
<polyline fill="none" stroke="#0058ad" points="2786,-81.5 2786,-110.5 "/>
<text text-anchor="middle" x="3210.5" y="-92.3" font-family="Times,serif" font-size="14.00" fill="#0058ad">r 65 [1 2 3 4 5 6 7 8 9 10 11 12 13 14 15 16 17 18 19 21 22 20 23 24 25 26 27 28 29 30 31 32 33 34 35 36 37 38 39 40 41 42 43 44 45 46 47 48 49 50]</text>
<polyline fill="none" stroke="#0058ad" points="3635,-81.5 3635,-110.5 "/>
<text text-anchor="middle" x="3667" y="-92.3" font-family="Times,serif" font-size="14.00" fill="#0058ad">a 62 113</text>
</g>
<!-- T12379&#45;&gt;T12377 -->
<g id="edge1" class="edge">
<title>T12379:f0&#45;&gt;T12377:f3</title>
<path fill="none" stroke="#5b00c0" d="M3085.5,-162C3085.5,-35.8478 3635.0019,-229.2819 3666.1261,-121.2313"/>
<polygon fill="#5b00c0" stroke="#5b00c0" points="3669.6379,-121.3769 3667.5,-111 3662.7001,-120.4452 3669.6379,-121.3769"/>
<text text-anchor="middle" x="3668" y="-132.8" font-family="Times,serif" font-size="14.00" fill="#5b00c0">rw</text>
</g>
<!-- T12375 -->
<g id="node3" class="node">
<title>T12375</title>
<polygon fill="none" stroke="#0058ad" points="3495,-.5 3495,-29.5 3918,-29.5 3918,-.5 3495,-.5"/>
<text text-anchor="middle" x="3523.5" y="-11.3" font-family="Times,serif" font-size="14.00" fill="#0058ad">a 65 51</text>
<polyline fill="none" stroke="#0058ad" points="3552,-.5 3552,-29.5 "/>
<text text-anchor="middle" x="3580.5" y="-11.3" font-family="Times,serif" font-size="14.00" fill="#0058ad">a 65 52</text>
<polyline fill="none" stroke="#0058ad" points="3609,-.5 3609,-29.5 "/>
<text text-anchor="middle" x="3637.5" y="-11.3" font-family="Times,serif" font-size="14.00" fill="#0058ad">a 63 16</text>
<polyline fill="none" stroke="#0058ad" points="3666,-.5 3666,-29.5 "/>
<text text-anchor="middle" x="3792" y="-11.3" font-family="Times,serif" font-size="14.00" fill="#0058ad">r 63 [1 2 3 4 5 7 8 9 10 11 12 13 14 15 16]</text>
</g>
<!-- T12377&#45;&gt;T12375 -->
<g id="edge2" class="edge">
<title>T12377:f1&#45;&gt;T12375:f0</title>
<path fill="none" stroke="#5b00c0" d="M2361.5,-81C2361.5,-20.1655 3357.5405,-15.2816 3484.2069,-15.0134"/>
<polygon fill="#5b00c0" stroke="#5b00c0" points="3484.5046,-18.5131 3494.5,-15 3484.4954,-11.5131 3484.5046,-18.5131"/>
<text text-anchor="middle" x="2481" y="-51.8" font-family="Times,serif" font-size="14.00" fill="#5b00c0">rw</text>
</g>
<!-- T12375&#45;&gt;T12379 -->
<g id="edge3" class="edge">
<title>T12375:f1&#45;&gt;T12379:f1</title>
<path fill="none" stroke="#c02700" d="M3580.5,-30C3580.5,-84.6214 4029.9887,-102.2972 4079.1515,-152.8777"/>
<polygon fill="#c02700" stroke="#c02700" points="4076.0376,-154.4792 4083.5,-162 4082.3564,-151.4671 4076.0376,-154.4792"/>
<text text-anchor="middle" x="3931.5" y="-92.3" font-family="Times,serif" font-size="14.00" fill="#c02700">ww</text>
</g>
</g>
</svg>
