<?xml version="1.0" encoding="UTF-8" standalone="no"?>
<!DOCTYPE svg PUBLIC "-//W3C//DTD SVG 1.1//EN"
 "http://www.w3.org/Graphics/SVG/1.1/DTD/svg11.dtd">
<!-- Generated by graphviz version 2.40.1 (20161225.0304)
 -->
<!-- Title: a_graph Pages: 1 -->
<svg width="2249pt" height="200pt"
 viewBox="0.00 0.00 2249.00 200.00" xmlns="http://www.w3.org/2000/svg" xmlns:xlink="http://www.w3.org/1999/xlink">
<g id="graph0" class="graph" transform="scale(1 1) rotate(0) translate(4 196)">
<title>a_graph</title>
<polygon fill="#ffffff" stroke="transparent" points="-4,4 -4,-196 2245,-196 2245,4 -4,4"/>
<!-- T14231 -->
<g id="node1" class="node">
<title>T14231</title>
<polygon fill="none" stroke="#0058ad" points="0,-162.5 0,-191.5 2241,-191.5 2241,-162.5 0,-162.5"/>
<text text-anchor="middle" x="364" y="-173.3" font-family="Times,serif" font-size="14.00" fill="#0058ad">r 75 [1 2 3 4 6 8 5 7 11 9 10 13 12 14 15 16 18 19 20 21 22 23 17 24 25 26 27 29 30 31 32 28 33 35 36 34 37 38 43 39 40 44 45]</text>
<polyline fill="none" stroke="#0058ad" points="728,-162.5 728,-191.5 "/>
<text text-anchor="middle" x="1092" y="-173.3" font-family="Times,serif" font-size="14.00" fill="#0058ad">r 75 [1 2 3 4 6 8 5 7 11 9 10 13 12 14 15 16 18 19 20 21 22 23 17 24 25 26 27 29 30 31 32 28 33 35 36 34 37 38 43 39 40 44 45]</text>
<polyline fill="none" stroke="#0058ad" points="1456,-162.5 1456,-191.5 "/>
<text text-anchor="middle" x="1484.5" y="-173.3" font-family="Times,serif" font-size="14.00" fill="#0058ad">a 76 18</text>
<polyline fill="none" stroke="#0058ad" points="1513,-162.5 1513,-191.5 "/>
<text text-anchor="middle" x="1877" y="-173.3" font-family="Times,serif" font-size="14.00" fill="#0058ad">r 75 [1 2 3 4 6 8 5 7 11 9 10 13 12 14 15 16 18 19 20 21 22 23 17 24 25 26 27 29 30 31 32 28 33 35 36 34 37 38 43 39 40 44 45]</text>
</g>
<!-- T14229 -->
<g id="node2" class="node">
<title>T14229</title>
<polygon fill="none" stroke="#0058ad" points="203,-81.5 203,-110.5 1052,-110.5 1052,-81.5 203,-81.5"/>
<text text-anchor="middle" x="231.5" y="-92.3" font-family="Times,serif" font-size="14.00" fill="#0058ad">a 74 24</text>
<polyline fill="none" stroke="#0058ad" points="260,-81.5 260,-110.5 "/>
<text text-anchor="middle" x="627.5" y="-92.3" font-family="Times,serif" font-size="14.00" fill="#0058ad">r 63 [1 2 3 4 5 7 8 9 10 11 12 13 14 15 16 17 18 20 21 22 23 24 25 26 27 28 29 31 33 34 35 36 37 38 39 40 41 42 43 44 45 46 47]</text>
<polyline fill="none" stroke="#0058ad" points="995,-81.5 995,-110.5 "/>
<text text-anchor="middle" x="1023.5" y="-92.3" font-family="Times,serif" font-size="14.00" fill="#0058ad">a 75 46</text>
</g>
<!-- T14231&#45;&gt;T14229 -->
<g id="edge1" class="edge">
<title>T14231:f0&#45;&gt;T14229:f2</title>
<path fill="none" stroke="#5b00c0" d="M363.5,-162C363.5,-18.4875 991.6668,-246.4612 1022.339,-121.0876"/>
<polygon fill="#5b00c0" stroke="#5b00c0" points="1025.8336,-121.3346 1023.5,-111 1018.8795,-120.5342 1025.8336,-121.3346"/>
<text text-anchor="middle" x="1025" y="-132.8" font-family="Times,serif" font-size="14.00" fill="#5b00c0">rw</text>
</g>
<!-- T14233 -->
<g id="node3" class="node">
<title>T14233</title>
<polygon fill="none" stroke="#0058ad" points="899,-.5 899,-29.5 1300,-29.5 1300,-.5 899,-.5"/>
<text text-anchor="middle" x="931" y="-11.3" font-family="Times,serif" font-size="14.00" fill="#0058ad">a 56 125</text>
<polyline fill="none" stroke="#0058ad" points="963,-.5 963,-29.5 "/>
<text text-anchor="middle" x="1103" y="-11.3" font-family="Times,serif" font-size="14.00" fill="#0058ad">r 76 [2 3 4 1 5 6 7 8 9 12 10 11 14 13 15 16 17]</text>
<polyline fill="none" stroke="#0058ad" points="1243,-.5 1243,-29.5 "/>
<text text-anchor="middle" x="1271.5" y="-11.3" font-family="Times,serif" font-size="14.00" fill="#0058ad">a 75 47</text>
</g>
<!-- T14229&#45;&gt;T14233 -->
<g id="edge2" class="edge">
<title>T14229:f2&#45;&gt;T14233:f2</title>
<path fill="none" stroke="#c02700" d="M1052.5,-96C1099.8541,-96 1249.0562,-82.832 1269.2336,-39.9305"/>
<polygon fill="#c02700" stroke="#c02700" points="1272.6871,-40.5281 1271.5,-30 1265.8626,-38.9705 1272.6871,-40.5281"/>
<text text-anchor="middle" x="1272.5" y="-51.8" font-family="Times,serif" font-size="14.00" fill="#c02700">ww</text>
</g>
<!-- T14233&#45;&gt;T14231 -->
<g id="edge3" class="edge">
<title>T14233:f1&#45;&gt;T14231:f2</title>
<path fill="none" stroke="#5b00c0" d="M1103.5,-30C1103.5,-50.4315 1267.0438,-41.7628 1286.5,-48 1379.8914,-77.9389 1477.5803,-61.666 1484.1492,-152.0019"/>
<polygon fill="#5b00c0" stroke="#5b00c0" points="1480.6514,-152.1289 1484.5,-162 1487.6471,-151.8834 1480.6514,-152.1289"/>
<text text-anchor="middle" x="1478" y="-92.3" font-family="Times,serif" font-size="14.00" fill="#5b00c0">rw</text>
</g>
</g>
</svg>
