<?xml version="1.0" encoding="UTF-8" standalone="no"?>
<!DOCTYPE svg PUBLIC "-//W3C//DTD SVG 1.1//EN"
 "http://www.w3.org/Graphics/SVG/1.1/DTD/svg11.dtd">
<!-- Generated by graphviz version 2.40.1 (20161225.0304)
 -->
<!-- Title: a_graph Pages: 1 -->
<svg width="3113pt" height="119pt"
 viewBox="0.00 0.00 3113.00 119.00" xmlns="http://www.w3.org/2000/svg" xmlns:xlink="http://www.w3.org/1999/xlink">
<g id="graph0" class="graph" transform="scale(1 1) rotate(0) translate(4 115)">
<title>a_graph</title>
<polygon fill="#ffffff" stroke="transparent" points="-4,4 -4,-115 3109,-115 3109,4 -4,4"/>
<!-- T4207 -->
<g id="node1" class="node">
<title>T4207</title>
<polygon fill="none" stroke="#0058ad" points="708,-81.5 708,-110.5 2221,-110.5 2221,-81.5 708,-81.5"/>
<text text-anchor="middle" x="1210" y="-92.3" font-family="Times,serif" font-size="14.00" fill="#0058ad">r 26 [1 2 3 4 5 6 7 8 9 10 11 12 13 14 17 16 20 21 23 24 22 28 15 30 31 29 32 37 39 40 38 42 43 44 45 33 47 48 46 50 51 52 49 54 53 55 56 57 58 59 60 63 64 62 61 65 66 67 69]</text>
<polyline fill="none" stroke="#0058ad" points="1712,-81.5 1712,-110.5 "/>
<text text-anchor="middle" x="1737" y="-92.3" font-family="Times,serif" font-size="14.00" fill="#0058ad">a 5 84</text>
<polyline fill="none" stroke="#0058ad" points="1762,-81.5 1762,-110.5 "/>
<text text-anchor="middle" x="1991.5" y="-92.3" font-family="Times,serif" font-size="14.00" fill="#0058ad">r 27 [1 2 3 4 5 6 7 8 11 12 13 14 16 17 18 20 15 21 23 22 24 25 27 28 26 29 30]</text>
</g>
<!-- T4203 -->
<g id="node2" class="node">
<title>T4203</title>
<polygon fill="none" stroke="#0058ad" points="0,-.5 0,-29.5 3105,-29.5 3105,-.5 0,-.5"/>
<text text-anchor="middle" x="580" y="-11.3" font-family="Times,serif" font-size="14.00" fill="#0058ad">r 21 [1 2 3 4 5 6 7 8 9 10 11 12 13 14 15 16 17 18 19 20 21 22 23 24 25 26 27 28 29 30 32 33 34 35 36 37 39 40 41 42 44 43 46 45 48 47 50 51 49 52 53 54 55 56 57 58 59 60 62 63 64 65 66 67 68 69 70 71]</text>
<polyline fill="none" stroke="#0058ad" points="1160,-.5 1160,-29.5 "/>
<text text-anchor="middle" x="1602" y="-11.3" font-family="Times,serif" font-size="14.00" fill="#0058ad">r 5 [2 3 4 5 6 7 8 9 10 11 12 13 14 15 16 17 47 48 49 50 52 53 54 55 56 57 58 59 60 61 62 63 64 65 67 66 68 69 70 71 72 73 74 75 76 77 78 79 80 81 82 83]</text>
<polyline fill="none" stroke="#0058ad" points="2044,-.5 2044,-29.5 "/>
<text text-anchor="middle" x="2072.5" y="-11.3" font-family="Times,serif" font-size="14.00" fill="#0058ad">a 27 31</text>
<polyline fill="none" stroke="#0058ad" points="2101,-.5 2101,-29.5 "/>
<text text-anchor="middle" x="2603" y="-11.3" font-family="Times,serif" font-size="14.00" fill="#0058ad">r 26 [1 2 3 4 5 6 7 8 9 10 11 12 13 14 17 16 20 21 23 24 22 28 15 30 31 29 32 37 39 40 38 42 43 44 45 33 47 48 46 50 51 52 49 54 53 55 56 57 58 59 60 63 64 62 61 65 66 67 69]</text>
</g>
<!-- T4207&#45;&gt;T4203 -->
<g id="edge1" class="edge">
<title>T4207:f2&#45;&gt;T4203:f2</title>
<path fill="none" stroke="#5b00c0" d="M1991.5,-81C1991.5,-42.4468 2058.0244,-66.8244 2070.4977,-40.0707"/>
<polygon fill="#5b00c0" stroke="#5b00c0" points="2073.9827,-40.4906 2072.5,-30 2067.1171,-39.1255 2073.9827,-40.4906"/>
<text text-anchor="middle" x="2069" y="-51.8" font-family="Times,serif" font-size="14.00" fill="#5b00c0">rw</text>
</g>
<!-- T4203&#45;&gt;T4207 -->
<g id="edge2" class="edge">
<title>T4203:f1&#45;&gt;T4207:f1</title>
<path fill="none" stroke="#5b00c0" d="M1602.5,-30C1602.5,-90.2553 1721.6472,-25.7007 1736.0752,-70.8423"/>
<polygon fill="#5b00c0" stroke="#5b00c0" points="1732.6448,-71.5831 1737.5,-81 1739.5769,-70.6107 1732.6448,-71.5831"/>
<text text-anchor="middle" x="1737" y="-51.8" font-family="Times,serif" font-size="14.00" fill="#5b00c0">rw</text>
</g>
</g>
</svg>
