<?xml version="1.0" encoding="UTF-8" standalone="no"?>
<!DOCTYPE svg PUBLIC "-//W3C//DTD SVG 1.1//EN"
 "http://www.w3.org/Graphics/SVG/1.1/DTD/svg11.dtd">
<!-- Generated by graphviz version 2.40.1 (20161225.0304)
 -->
<!-- Title: a_graph Pages: 1 -->
<svg width="4835pt" height="119pt"
 viewBox="0.00 0.00 4835.00 119.00" xmlns="http://www.w3.org/2000/svg" xmlns:xlink="http://www.w3.org/1999/xlink">
<g id="graph0" class="graph" transform="scale(1 1) rotate(0) translate(4 115)">
<title>a_graph</title>
<polygon fill="#ffffff" stroke="transparent" points="-4,4 -4,-115 4831,-115 4831,4 -4,4"/>
<!-- T14429 -->
<g id="node1" class="node">
<title>T14429</title>
<polygon fill="none" stroke="#0058ad" points="0,-81.5 0,-110.5 4827,-110.5 4827,-81.5 0,-81.5"/>
<text text-anchor="middle" x="795" y="-92.3" font-family="Times,serif" font-size="14.00" fill="#0058ad">r 75 [1 2 3 4 6 8 5 7 11 9 10 13 12 14 15 16 18 19 20 21 22 23 17 24 25 26 27 29 30 31 32 28 33 35 36 34 37 38 43 39 40 44 45 46 47 50 51 52 53 49 55 54 56 57 59 60 64 61 65 66 67 70 68 69 73 75 76 77 79 80 82 83 84 85 86 88 89 87 90 92 93 94 98 99 96 97 100 101 102 103 104]</text>
<polyline fill="none" stroke="#0058ad" points="1590,-81.5 1590,-110.5 "/>
<text text-anchor="middle" x="2385" y="-92.3" font-family="Times,serif" font-size="14.00" fill="#0058ad">r 75 [1 2 3 4 6 8 5 7 11 9 10 13 12 14 15 16 18 19 20 21 22 23 17 24 25 26 27 29 30 31 32 28 33 35 36 34 37 38 43 39 40 44 45 46 47 50 51 52 53 49 55 54 56 57 59 60 64 61 65 66 67 70 68 69 73 75 76 77 79 80 82 83 84 85 86 88 89 87 90 92 93 94 98 99 96 97 100 101 102 103 104]</text>
<polyline fill="none" stroke="#0058ad" points="3180,-81.5 3180,-110.5 "/>
<text text-anchor="middle" x="3208.5" y="-92.3" font-family="Times,serif" font-size="14.00" fill="#0058ad">a 76 53</text>
<polyline fill="none" stroke="#0058ad" points="3237,-81.5 3237,-110.5 "/>
<text text-anchor="middle" x="4032" y="-92.3" font-family="Times,serif" font-size="14.00" fill="#0058ad">r 75 [1 2 3 4 6 8 5 7 11 9 10 13 12 14 15 16 18 19 20 21 22 23 17 24 25 26 27 29 30 31 32 28 33 35 36 34 37 38 43 39 40 44 45 46 47 50 51 52 53 49 55 54 56 57 59 60 64 61 65 66 67 70 68 69 73 75 76 77 79 80 82 83 84 85 86 88 89 87 90 92 93 94 98 99 96 97 100 101 102 103 104]</text>
</g>
<!-- T14427 -->
<g id="node2" class="node">
<title>T14427</title>
<polygon fill="none" stroke="#0058ad" points="1010.5,-.5 1010.5,-29.5 2634.5,-29.5 2634.5,-.5 1010.5,-.5"/>
<text text-anchor="middle" x="1400.5" y="-11.3" font-family="Times,serif" font-size="14.00" fill="#0058ad">r 76 [2 3 4 1 5 6 7 8 9 12 10 11 14 13 15 16 17 18 21 22 23 24 26 28 29 27 31 30 32 33 34 36 37 39 40 41 42 43 44 46 47 48 49 51 52 50]</text>
<polyline fill="none" stroke="#0058ad" points="1790.5,-.5 1790.5,-29.5 "/>
<text text-anchor="middle" x="2180.5" y="-11.3" font-family="Times,serif" font-size="14.00" fill="#0058ad">r 76 [2 3 4 1 5 6 7 8 9 12 10 11 14 13 15 16 17 18 21 22 23 24 26 28 29 27 31 30 32 33 34 36 37 39 40 41 42 43 44 46 47 48 49 51 52 50]</text>
<polyline fill="none" stroke="#0058ad" points="2570.5,-.5 2570.5,-29.5 "/>
<text text-anchor="middle" x="2602.5" y="-11.3" font-family="Times,serif" font-size="14.00" fill="#0058ad">a 75 105</text>
</g>
<!-- T14429&#45;&gt;T14427 -->
<g id="edge1" class="edge">
<title>T14429:f0&#45;&gt;T14427:f2</title>
<path fill="none" stroke="#5b00c0" d="M794.5,-81C794.5,16.3443 2491.2656,-121.3559 2597.3135,-38.7019"/>
<polygon fill="#5b00c0" stroke="#5b00c0" points="2600.3867,-40.3819 2602.5,-30 2594.3737,-36.7981 2600.3867,-40.3819"/>
<text text-anchor="middle" x="2577" y="-51.8" font-family="Times,serif" font-size="14.00" fill="#5b00c0">rw</text>
</g>
<!-- T14427&#45;&gt;T14429 -->
<g id="edge2" class="edge">
<title>T14427:f0&#45;&gt;T14429:f2</title>
<path fill="none" stroke="#5b00c0" d="M1400.5,-30C1400.5,-46.5019 2572.0077,-47.4364 2588.5,-48 2722.8911,-52.593 3184.2399,51.4766 3207.5811,-70.9634"/>
<polygon fill="#5b00c0" stroke="#5b00c0" points="3204.1028,-71.3608 3208.5,-81 3211.0736,-70.7225 3204.1028,-71.3608"/>
<text text-anchor="middle" x="3210" y="-51.8" font-family="Times,serif" font-size="14.00" fill="#5b00c0">rw</text>
</g>
</g>
</svg>
