<?xml version="1.0" encoding="UTF-8" standalone="no"?>
<!DOCTYPE svg PUBLIC "-//W3C//DTD SVG 1.1//EN"
 "http://www.w3.org/Graphics/SVG/1.1/DTD/svg11.dtd">
<!-- Generated by graphviz version 2.40.1 (20161225.0304)
 -->
<!-- Title: a_graph Pages: 1 -->
<svg width="2278pt" height="119pt"
 viewBox="0.00 0.00 2278.00 119.00" xmlns="http://www.w3.org/2000/svg" xmlns:xlink="http://www.w3.org/1999/xlink">
<g id="graph0" class="graph" transform="scale(1 1) rotate(0) translate(4 115)">
<title>a_graph</title>
<polygon fill="#ffffff" stroke="transparent" points="-4,4 -4,-115 2274,-115 2274,4 -4,4"/>
<!-- T6559 -->
<g id="node1" class="node">
<title>T6559</title>
<polygon fill="none" stroke="#0058ad" points="413.5,-81.5 413.5,-110.5 964.5,-110.5 964.5,-81.5 413.5,-81.5"/>
<text text-anchor="middle" x="445.5" y="-92.3" font-family="Times,serif" font-size="14.00" fill="#0058ad">a 34 127</text>
<polyline fill="none" stroke="#0058ad" points="477.5,-81.5 477.5,-110.5 "/>
<text text-anchor="middle" x="721" y="-92.3" font-family="Times,serif" font-size="14.00" fill="#0058ad">r 37 [2 3 1 4 5 6 7 8 9 10 14 15 13 16 17 11 12 18 19 20 22 23 24 21 26 27 25 29 30]</text>
</g>
<!-- T6561 -->
<g id="node2" class="node">
<title>T6561</title>
<polygon fill="none" stroke="#0058ad" points="0,-.5 0,-29.5 2270,-29.5 2270,-.5 0,-.5"/>
<text text-anchor="middle" x="28.5" y="-11.3" font-family="Times,serif" font-size="14.00" fill="#0058ad">a 37 31</text>
<polyline fill="none" stroke="#0058ad" points="57,-.5 57,-29.5 "/>
<text text-anchor="middle" x="1138.5" y="-11.3" font-family="Times,serif" font-size="14.00" fill="#0058ad">r 34 [1 2 3 4 6 7 5 8 10 9 13 14 15 11 12 16 18 20 19 21 22 23 24 26 25 29 27 30 31 32 34 35 36 37 38 39 40 41 42 43 44 45 46 48 49 50 51 47 52 53 55 56 54 58 59 57 60 61 62 63 64 66 69 65 72 73 74 75 76 77 78 80 81 82 83 84 85 79 86 87 88 89 90 91 92 93 95 94 96 99 100 101 102 104 103 105 106 107 108 109 110 111 112 113 114 115 116 117 118 119 120 121 122 123 124 125]</text>
<polyline fill="none" stroke="#0058ad" points="2220,-.5 2220,-29.5 "/>
<text text-anchor="middle" x="2245" y="-11.3" font-family="Times,serif" font-size="14.00" fill="#0058ad">a 36 7</text>
</g>
<!-- T6559&#45;&gt;T6561 -->
<g id="edge1" class="edge">
<title>T6559:f1&#45;&gt;T6561:f0</title>
<path fill="none" stroke="#5b00c0" d="M721,-81C721,7.7755 612.322,-56.962 524,-48 511.4355,-46.7251 105.7036,-44.2507 37.6419,-33.2473"/>
<polygon fill="#5b00c0" stroke="#5b00c0" points="38.5941,-29.8748 28,-30 36.3599,-36.5087 38.5941,-29.8748"/>
<text text-anchor="middle" x="725.5" y="-51.8" font-family="Times,serif" font-size="14.00" fill="#5b00c0">rw</text>
</g>
<!-- T6561&#45;&gt;T6559 -->
<g id="edge2" class="edge">
<title>T6561:f1&#45;&gt;T6559:f0</title>
<path fill="none" stroke="#5b00c0" d="M1139,-30C1139,-47.6182 522.0004,-43.3752 505,-48 479.4189,-54.9591 452.8766,-51.7413 446.4588,-70.9126"/>
<polygon fill="#5b00c0" stroke="#5b00c0" points="442.9673,-70.602 445,-81 449.8953,-71.6039 442.9673,-70.602"/>
<text text-anchor="middle" x="512.5" y="-51.8" font-family="Times,serif" font-size="14.00" fill="#5b00c0">rw</text>
</g>
</g>
</svg>
