<?xml version="1.0" encoding="UTF-8" standalone="no"?>
<!DOCTYPE svg PUBLIC "-//W3C//DTD SVG 1.1//EN"
 "http://www.w3.org/Graphics/SVG/1.1/DTD/svg11.dtd">
<!-- Generated by graphviz version 2.40.1 (20161225.0304)
 -->
<!-- Title: a_graph Pages: 1 -->
<svg width="2748pt" height="119pt"
 viewBox="0.00 0.00 2748.00 119.00" xmlns="http://www.w3.org/2000/svg" xmlns:xlink="http://www.w3.org/1999/xlink">
<g id="graph0" class="graph" transform="scale(1 1) rotate(0) translate(4 115)">
<title>a_graph</title>
<polygon fill="#ffffff" stroke="transparent" points="-4,4 -4,-115 2744,-115 2744,4 -4,4"/>
<!-- T21383 -->
<g id="node1" class="node">
<title>T21383</title>
<polygon fill="none" stroke="#0058ad" points="0,-81.5 0,-110.5 1575,-110.5 1575,-81.5 0,-81.5"/>
<text text-anchor="middle" x="755.5" y="-92.3" font-family="Times,serif" font-size="14.00" fill="#0058ad">r 109 [1 2 3 4 6 9 7 8 5 10 13 14 15 11 12 17 16 19 20 21 18 22 23 24 26 28 29 30 27 31 33 34 35 32 25 36 37 38 40 41 42 43 44 45 46 48 47 49 54 51 52 50 55 56 57 59 60 58 61 62 64 65 63 69 70 71 72 74 73 79 77 78 80 82 83 84 81 87 86 88 90 92 93 91 94 95 89 99]</text>
<polyline fill="none" stroke="#0058ad" points="1511,-81.5 1511,-110.5 "/>
<text text-anchor="middle" x="1543" y="-92.3" font-family="Times,serif" font-size="14.00" fill="#0058ad">a 107 48</text>
</g>
<!-- T21385 -->
<g id="node2" class="node">
<title>T21385</title>
<polygon fill="none" stroke="#0058ad" points="343,-.5 343,-29.5 2740,-29.5 2740,-.5 343,-.5"/>
<text text-anchor="middle" x="745" y="-11.3" font-family="Times,serif" font-size="14.00" fill="#0058ad">r 107 [1 3 4 2 5 6 7 8 9 10 12 11 14 13 15 16 17 18 19 20 21 22 23 24 25 26 29 27 28 30 31 32 33 34 35 36 37 38 39 40 41 42 43 44 45 46 47]</text>
<polyline fill="none" stroke="#0058ad" points="1147,-.5 1147,-29.5 "/>
<text text-anchor="middle" x="1179" y="-11.3" font-family="Times,serif" font-size="14.00" fill="#0058ad">a 109 98</text>
<polyline fill="none" stroke="#0058ad" points="1211,-.5 1211,-29.5 "/>
<text text-anchor="middle" x="1975.5" y="-11.3" font-family="Times,serif" font-size="14.00" fill="#0058ad">r 109 [1 2 3 4 6 9 7 8 5 10 13 14 15 11 12 17 16 19 20 21 18 22 23 24 26 28 29 30 27 31 33 34 35 32 25 36 37 38 40 41 42 43 44 45 46 48 47 49 54 51 52 50 55 56 57 59 60 58 61 62 64 65 63 69 70 71 72 74 73 79 77 78 80 82 83 84 81 87 86 88 90 92 93 91 94 95 89 99 98]</text>
</g>
<!-- T21383&#45;&gt;T21385 -->
<g id="edge1" class="edge">
<title>T21383:f0&#45;&gt;T21385:f1</title>
<path fill="none" stroke="#5b00c0" d="M755.5,-81C755.5,104.848 1162.9484,-207.3779 1178.0685,-40.0132"/>
<polygon fill="#5b00c0" stroke="#5b00c0" points="1181.5661,-40.1414 1178.5,-30 1174.5726,-39.84 1181.5661,-40.1414"/>
<text text-anchor="middle" x="1185" y="-51.8" font-family="Times,serif" font-size="14.00" fill="#5b00c0">rw</text>
</g>
<!-- T21385&#45;&gt;T21383 -->
<g id="edge2" class="edge">
<title>T21385:f0&#45;&gt;T21383:f1</title>
<path fill="none" stroke="#5b00c0" d="M744.5,-30C744.5,-42.5655 1183.9629,-47.1549 1196.5,-48 1347.5955,-58.1855 1534.8747,68.0452 1543.2114,-70.9911"/>
<polygon fill="#5b00c0" stroke="#5b00c0" points="1539.7131,-71.1051 1543.5,-81 1546.7102,-70.9032 1539.7131,-71.1051"/>
<text text-anchor="middle" x="1548" y="-51.8" font-family="Times,serif" font-size="14.00" fill="#5b00c0">rw</text>
</g>
</g>
</svg>
