<?xml version="1.0" encoding="UTF-8" standalone="no"?>
<!DOCTYPE svg PUBLIC "-//W3C//DTD SVG 1.1//EN"
 "http://www.w3.org/Graphics/SVG/1.1/DTD/svg11.dtd">
<!-- Generated by graphviz version 2.40.1 (20161225.0304)
 -->
<!-- Title: a_graph Pages: 1 -->
<svg width="1582pt" height="200pt"
 viewBox="0.00 0.00 1582.00 200.00" xmlns="http://www.w3.org/2000/svg" xmlns:xlink="http://www.w3.org/1999/xlink">
<g id="graph0" class="graph" transform="scale(1 1) rotate(0) translate(4 196)">
<title>a_graph</title>
<polygon fill="#ffffff" stroke="transparent" points="-4,4 -4,-196 1578,-196 1578,4 -4,4"/>
<!-- T20359 -->
<g id="node1" class="node">
<title>T20359</title>
<polygon fill="none" stroke="#0058ad" points="543.5,-162.5 543.5,-191.5 1018.5,-191.5 1018.5,-162.5 543.5,-162.5"/>
<text text-anchor="middle" x="572" y="-173.3" font-family="Times,serif" font-size="14.00" fill="#0058ad">a 98 99</text>
<polyline fill="none" stroke="#0058ad" points="600.5,-162.5 600.5,-191.5 "/>
<text text-anchor="middle" x="669.5" y="-173.3" font-family="Times,serif" font-size="14.00" fill="#0058ad">r 104 [1 2 5 6 4 7 8 9]</text>
<polyline fill="none" stroke="#0058ad" points="738.5,-162.5 738.5,-191.5 "/>
<text text-anchor="middle" x="878.5" y="-173.3" font-family="Times,serif" font-size="14.00" fill="#0058ad">r 96 [1 2 3 4 5 6 7 8 9 10 11 12 13 14 15 16 17]</text>
</g>
<!-- T20353 -->
<g id="node2" class="node">
<title>T20353</title>
<polygon fill="none" stroke="#0058ad" points="987.5,-81.5 987.5,-110.5 1166.5,-110.5 1166.5,-81.5 987.5,-81.5"/>
<text text-anchor="middle" x="1016" y="-92.3" font-family="Times,serif" font-size="14.00" fill="#0058ad">a 96 18</text>
<polyline fill="none" stroke="#0058ad" points="1044.5,-81.5 1044.5,-110.5 "/>
<text text-anchor="middle" x="1073" y="-92.3" font-family="Times,serif" font-size="14.00" fill="#0058ad">a 105 1</text>
<polyline fill="none" stroke="#0058ad" points="1101.5,-81.5 1101.5,-110.5 "/>
<text text-anchor="middle" x="1134" y="-92.3" font-family="Times,serif" font-size="14.00" fill="#0058ad">r 105 [1]</text>
</g>
<!-- T20359&#45;&gt;T20353 -->
<g id="edge2" class="edge">
<title>T20359:f2&#45;&gt;T20353:f0</title>
<path fill="none" stroke="#5b00c0" d="M879,-162C879,-112.1093 943.3999,-145.9531 979,-111 980.769,-109.2631 981.425,-107.0511 981.7748,-104.8627"/>
<polygon fill="#5b00c0" stroke="#5b00c0" points="984.9362,-106.3919 987,-96 978.9062,-102.8367 984.9362,-106.3919"/>
<text text-anchor="middle" x="940.5" y="-132.8" font-family="Times,serif" font-size="14.00" fill="#5b00c0">rw</text>
</g>
<!-- T20355 -->
<g id="node3" class="node">
<title>T20355</title>
<polygon fill="none" stroke="#0058ad" points="604.5,-81.5 604.5,-110.5 969.5,-110.5 969.5,-81.5 604.5,-81.5"/>
<text text-anchor="middle" x="636.5" y="-92.3" font-family="Times,serif" font-size="14.00" fill="#0058ad">a 104 10</text>
<polyline fill="none" stroke="#0058ad" points="668.5,-81.5 668.5,-110.5 "/>
<text text-anchor="middle" x="700.5" y="-92.3" font-family="Times,serif" font-size="14.00" fill="#0058ad">a 104 11</text>
<polyline fill="none" stroke="#0058ad" points="732.5,-81.5 732.5,-110.5 "/>
<text text-anchor="middle" x="819" y="-92.3" font-family="Times,serif" font-size="14.00" fill="#0058ad">r 104 [1 2 5 6 4 7 8 9 10 11]</text>
<polyline fill="none" stroke="#0058ad" points="905.5,-81.5 905.5,-110.5 "/>
<text text-anchor="middle" x="937.5" y="-92.3" font-family="Times,serif" font-size="14.00" fill="#0058ad">a 104 12</text>
</g>
<!-- T20359&#45;&gt;T20355 -->
<g id="edge1" class="edge">
<title>T20359:f1&#45;&gt;T20355:f0</title>
<path fill="none" stroke="#5b00c0" d="M669,-162C669,-139.0096 645.0698,-137.7694 637.9655,-121.2361"/>
<polygon fill="#5b00c0" stroke="#5b00c0" points="641.323,-120.1606 636,-111 634.4486,-121.4806 641.323,-120.1606"/>
<text text-anchor="middle" x="668.5" y="-132.8" font-family="Times,serif" font-size="14.00" fill="#5b00c0">rw</text>
</g>
<!-- T20357 -->
<g id="node4" class="node">
<title>T20357</title>
<polygon fill="none" stroke="#0058ad" points="0,-.5 0,-29.5 1574,-29.5 1574,-.5 0,-.5"/>
<text text-anchor="middle" x="787" y="-11.3" font-family="Times,serif" font-size="14.00" fill="#0058ad">r 98 [1 2 4 3 5 6 7 8 11 12 9 13 14 15 16 17 18 20 21 19 22 24 25 26 28 27 29 31 32 30 33 34 35 36 38 39 37 41 42 40 43 45 46 47 48 49 50 52 51 53 54 55 56 57 58 60 61 62 63 64 65 66 68 67 69 70 71 72 73 74 75 76 77 78 79 80 81 82 83 84 86 87 88 89 90 92 91 93 94 96 97 98]</text>
</g>
<!-- T20353&#45;&gt;T20357 -->
<g id="edge3" class="edge">
<title>T20353&#45;&gt;T20357</title>
<path fill="none" stroke="#0050c0" d="M1024.8189,-81.4253C975.489,-67.6469 901.4328,-46.9623 849.0882,-32.3419"/>
<polygon fill="#0050c0" stroke="#0050c0" points="849.8235,-28.9134 839.2506,-29.5941 847.9403,-35.6553 849.8235,-28.9134"/>
<text text-anchor="middle" x="961.5" y="-51.8" font-family="Times,serif" font-size="14.00" fill="#0050c0">rt</text>
</g>
<!-- T20355&#45;&gt;T20357 -->
<g id="edge4" class="edge">
<title>T20355&#45;&gt;T20357</title>
<path fill="none" stroke="#0050c0" d="M787,-81.1434C787,-69.6112 787,-53.3668 787,-39.8626"/>
<polygon fill="#0050c0" stroke="#0050c0" points="790.5001,-39.7624 787,-29.7625 783.5001,-39.7625 790.5001,-39.7624"/>
<text text-anchor="middle" x="791.5" y="-51.8" font-family="Times,serif" font-size="14.00" fill="#0050c0">rt</text>
</g>
<!-- T20357&#45;&gt;T20359 -->
<g id="edge5" class="edge">
<title>T20357:f0&#45;&gt;T20359:f0</title>
<path fill="none" stroke="#5b00c0" d="M665.6708,-29.5079C633.6872,-39.1828 602.2238,-55.0582 581,-81 560.3038,-106.2969 569.6298,-122.4005 571.6486,-151.9168"/>
<polygon fill="#5b00c0" stroke="#5b00c0" points="568.1537,-152.128 572,-162 575.1495,-151.8841 568.1537,-152.128"/>
<text text-anchor="middle" x="588.5" y="-92.3" font-family="Times,serif" font-size="14.00" fill="#5b00c0">rw</text>
</g>
</g>
</svg>
