<?xml version="1.0" encoding="UTF-8" standalone="no"?>
<!DOCTYPE svg PUBLIC "-//W3C//DTD SVG 1.1//EN"
 "http://www.w3.org/Graphics/SVG/1.1/DTD/svg11.dtd">
<!-- Generated by graphviz version 2.40.1 (20161225.0304)
 -->
<!-- Title: a_graph Pages: 1 -->
<svg width="2377pt" height="119pt"
 viewBox="0.00 0.00 2377.00 119.00" xmlns="http://www.w3.org/2000/svg" xmlns:xlink="http://www.w3.org/1999/xlink">
<g id="graph0" class="graph" transform="scale(1 1) rotate(0) translate(4 115)">
<title>a_graph</title>
<polygon fill="#ffffff" stroke="transparent" points="-4,4 -4,-115 2373,-115 2373,4 -4,4"/>
<!-- T17643 -->
<g id="node1" class="node">
<title>T17643</title>
<polygon fill="none" stroke="#0058ad" points="0,-81.5 0,-110.5 2369,-110.5 2369,-81.5 0,-81.5"/>
<text text-anchor="middle" x="355.5" y="-92.3" font-family="Times,serif" font-size="14.00" fill="#0058ad">r 92 [1 2 3 4 6 7 5 8 9 11 10 13 14 12 15 16 17 18 19 20 21 22 23 24 25 26 27 28 29 30 32 33 34 31 35 36 37 38 39 40 43 44]</text>
<polyline fill="none" stroke="#0058ad" points="711,-81.5 711,-110.5 "/>
<text text-anchor="middle" x="1066.5" y="-92.3" font-family="Times,serif" font-size="14.00" fill="#0058ad">r 92 [1 2 3 4 6 7 5 8 9 11 10 13 14 12 15 16 17 18 19 20 21 22 23 24 25 26 27 28 29 30 32 33 34 31 35 36 37 38 39 40 43 44]</text>
<polyline fill="none" stroke="#0058ad" points="1422,-81.5 1422,-110.5 "/>
<text text-anchor="middle" x="1450.5" y="-92.3" font-family="Times,serif" font-size="14.00" fill="#0058ad">a 89 59</text>
<polyline fill="none" stroke="#0058ad" points="1479,-81.5 1479,-110.5 "/>
<text text-anchor="middle" x="1924" y="-92.3" font-family="Times,serif" font-size="14.00" fill="#0058ad">r 89 [1 2 3 4 5 7 8 9 10 11 12 13 16 18 19 14 15 17 22 23 24 26 27 30 28 31 32 33 34 35 36 37 38 39 40 41 42 43 44 45 46 48 49 50 51 53 54 55 56 57 58 59]</text>
</g>
<!-- T17639 -->
<g id="node2" class="node">
<title>T17639</title>
<polygon fill="none" stroke="#0058ad" points="235,-.5 235,-29.5 1222,-29.5 1222,-.5 235,-.5"/>
<text text-anchor="middle" x="671.5" y="-11.3" font-family="Times,serif" font-size="14.00" fill="#0058ad">r 89 [1 2 3 4 5 7 8 9 10 11 12 13 16 18 19 14 15 17 22 23 24 26 27 30 28 31 32 33 34 35 36 37 38 39 40 41 42 43 44 45 46 48 49 50 51 53 54 55 56 57 58]</text>
<polyline fill="none" stroke="#0058ad" points="1108,-.5 1108,-29.5 "/>
<text text-anchor="middle" x="1136.5" y="-11.3" font-family="Times,serif" font-size="14.00" fill="#0058ad">a 92 41</text>
<polyline fill="none" stroke="#0058ad" points="1165,-.5 1165,-29.5 "/>
<text text-anchor="middle" x="1193.5" y="-11.3" font-family="Times,serif" font-size="14.00" fill="#0058ad">a 92 42</text>
</g>
<!-- T17643&#45;&gt;T17639 -->
<g id="edge1" class="edge">
<title>T17643:f0&#45;&gt;T17639:f1</title>
<path fill="none" stroke="#5b00c0" d="M355.5,-81C355.5,89.3584 1104.7953,-191.9477 1135.5281,-40.1146"/>
<polygon fill="#5b00c0" stroke="#5b00c0" points="1139.0274,-40.289 1136.5,-30 1132.0595,-39.6193 1139.0274,-40.289"/>
<text text-anchor="middle" x="1140" y="-51.8" font-family="Times,serif" font-size="14.00" fill="#5b00c0">rw</text>
</g>
<!-- T17639&#45;&gt;T17643 -->
<g id="edge2" class="edge">
<title>T17639:f0&#45;&gt;T17643:f2</title>
<path fill="none" stroke="#5b00c0" d="M671.5,-30C671.5,-43.3427 1138.1935,-47.0175 1151.5,-48 1281.3172,-57.5852 1441.7861,46.9502 1450.1581,-70.9272"/>
<polygon fill="#5b00c0" stroke="#5b00c0" points="1446.6627,-71.1245 1450.5,-81 1453.6587,-70.887 1446.6627,-71.1245"/>
<text text-anchor="middle" x="1456" y="-51.8" font-family="Times,serif" font-size="14.00" fill="#5b00c0">rw</text>
</g>
</g>
</svg>
