<?xml version="1.0" encoding="UTF-8" standalone="no"?>
<!DOCTYPE svg PUBLIC "-//W3C//DTD SVG 1.1//EN"
 "http://www.w3.org/Graphics/SVG/1.1/DTD/svg11.dtd">
<!-- Generated by graphviz version 2.40.1 (20161225.0304)
 -->
<!-- Title: a_graph Pages: 1 -->
<svg width="1601pt" height="119pt"
 viewBox="0.00 0.00 1600.50 119.00" xmlns="http://www.w3.org/2000/svg" xmlns:xlink="http://www.w3.org/1999/xlink">
<g id="graph0" class="graph" transform="scale(1 1) rotate(0) translate(4 115)">
<title>a_graph</title>
<polygon fill="#ffffff" stroke="transparent" points="-4,4 -4,-115 1596.5,-115 1596.5,4 -4,4"/>
<!-- T20059 -->
<g id="node1" class="node">
<title>T20059</title>
<polygon fill="none" stroke="#0058ad" points="304.5,-81.5 304.5,-110.5 1592.5,-110.5 1592.5,-81.5 304.5,-81.5"/>
<text text-anchor="middle" x="336.5" y="-92.3" font-family="Times,serif" font-size="14.00" fill="#0058ad">a 102 40</text>
<polyline fill="none" stroke="#0058ad" points="368.5,-81.5 368.5,-110.5 "/>
<text text-anchor="middle" x="658.5" y="-92.3" font-family="Times,serif" font-size="14.00" fill="#0058ad">r 103 [1 2 3 4 5 6 7 8 9 10 11 12 14 15 16 17 18 19 20 21 22 23 24 25 27 28 30 31 32 33 34 35 36 13]</text>
<polyline fill="none" stroke="#0058ad" points="948.5,-81.5 948.5,-110.5 "/>
<text text-anchor="middle" x="1238.5" y="-92.3" font-family="Times,serif" font-size="14.00" fill="#0058ad">r 103 [1 2 3 4 5 6 7 8 9 10 11 12 14 15 16 17 18 19 20 21 22 23 24 25 27 28 30 31 32 33 34 35 36 13]</text>
<polyline fill="none" stroke="#0058ad" points="1528.5,-81.5 1528.5,-110.5 "/>
<text text-anchor="middle" x="1560.5" y="-92.3" font-family="Times,serif" font-size="14.00" fill="#0058ad">a 102 41</text>
</g>
<!-- T20061 -->
<g id="node2" class="node">
<title>T20061</title>
<polygon fill="none" stroke="#0058ad" points="0,-.5 0,-29.5 1265,-29.5 1265,-.5 0,-.5"/>
<text text-anchor="middle" x="32" y="-11.3" font-family="Times,serif" font-size="14.00" fill="#0058ad">a 103 38</text>
<polyline fill="none" stroke="#0058ad" points="64,-.5 64,-29.5 "/>
<text text-anchor="middle" x="362.5" y="-11.3" font-family="Times,serif" font-size="14.00" fill="#0058ad">r 103 [1 2 3 4 5 6 7 8 9 10 11 12 14 15 16 17 18 19 20 21 22 23 24 25 27 28 30 31 32 33 34 35 36 13 38]</text>
<polyline fill="none" stroke="#0058ad" points="661,-.5 661,-29.5 "/>
<text text-anchor="middle" x="963" y="-11.3" font-family="Times,serif" font-size="14.00" fill="#0058ad">r 102 [1 2 3 4 5 6 7 8 10 11 12 13 14 16 18 17 19 20 21 22 23 24 25 27 26 28 29 31 30 32 33 34 35 37 39]</text>
</g>
<!-- T20059&#45;&gt;T20061 -->
<g id="edge1" class="edge">
<title>T20059:f1&#45;&gt;T20061:f0</title>
<path fill="none" stroke="#5b00c0" d="M658.5,-81C658.5,23.149 530.1949,-57.715 426.5,-48 406.5936,-46.135 95.7112,-50.9513 40.0102,-35.2694"/>
<polygon fill="#5b00c0" stroke="#5b00c0" points="41.8447,-32.2886 31.5,-30 38.1596,-38.2402 41.8447,-32.2886"/>
<text text-anchor="middle" x="664" y="-51.8" font-family="Times,serif" font-size="14.00" fill="#5b00c0">rw</text>
</g>
<!-- T20061&#45;&gt;T20059 -->
<g id="edge2" class="edge">
<title>T20061:f2&#45;&gt;T20059:f0</title>
<path fill="none" stroke="#5b00c0" d="M963.5,-30C963.5,-60.9051 437.5648,-40.8423 407.5,-48 377.4834,-55.1462 344.8742,-48.2058 337.8713,-70.8024"/>
<polygon fill="#5b00c0" stroke="#5b00c0" points="334.3641,-70.6227 336.5,-81 341.3016,-71.5557 334.3641,-70.6227"/>
<text text-anchor="middle" x="415" y="-51.8" font-family="Times,serif" font-size="14.00" fill="#5b00c0">rw</text>
</g>
</g>
</svg>
