<?xml version="1.0" encoding="UTF-8" standalone="no"?>
<!DOCTYPE svg PUBLIC "-//W3C//DTD SVG 1.1//EN"
 "http://www.w3.org/Graphics/SVG/1.1/DTD/svg11.dtd">
<!-- Generated by graphviz version 2.40.1 (20161225.0304)
 -->
<!-- Title: a_graph Pages: 1 -->
<svg width="2257pt" height="119pt"
 viewBox="0.00 0.00 2257.00 119.00" xmlns="http://www.w3.org/2000/svg" xmlns:xlink="http://www.w3.org/1999/xlink">
<g id="graph0" class="graph" transform="scale(1 1) rotate(0) translate(4 115)">
<title>a_graph</title>
<polygon fill="#ffffff" stroke="transparent" points="-4,4 -4,-115 2253,-115 2253,4 -4,4"/>
<!-- T14495 -->
<g id="node1" class="node">
<title>T14495</title>
<polygon fill="none" stroke="#0058ad" points="913,-81.5 913,-110.5 1802,-110.5 1802,-81.5 913,-81.5"/>
<text text-anchor="middle" x="941.5" y="-92.3" font-family="Times,serif" font-size="14.00" fill="#0058ad">a 76 67</text>
<polyline fill="none" stroke="#0058ad" points="970,-81.5 970,-110.5 "/>
<text text-anchor="middle" x="998.5" y="-92.3" font-family="Times,serif" font-size="14.00" fill="#0058ad">a 66 30</text>
<polyline fill="none" stroke="#0058ad" points="1027,-81.5 1027,-110.5 "/>
<text text-anchor="middle" x="1382.5" y="-92.3" font-family="Times,serif" font-size="14.00" fill="#0058ad">r 74 [1 2 3 4 5 6 7 8 9 10 11 12 15 13 14 16 17 18 19 20 21 22 23 24 25 26 27 28 29 30 32 33 34 36 37 38 39 40 42 41 43 44]</text>
<polyline fill="none" stroke="#0058ad" points="1738,-81.5 1738,-110.5 "/>
<text text-anchor="middle" x="1770" y="-92.3" font-family="Times,serif" font-size="14.00" fill="#0058ad">a 75 127</text>
</g>
<!-- T14493 -->
<g id="node2" class="node">
<title>T14493</title>
<polygon fill="none" stroke="#0058ad" points="0,-.5 0,-29.5 2249,-29.5 2249,-.5 0,-.5"/>
<text text-anchor="middle" x="1071" y="-11.3" font-family="Times,serif" font-size="14.00" fill="#0058ad">r 75 [1 2 3 4 6 8 5 7 11 9 10 13 12 14 15 16 18 19 20 21 22 23 17 24 25 26 27 29 30 31 32 28 33 35 36 34 37 38 43 39 40 44 45 46 47 50 51 52 53 49 55 54 56 57 59 60 64 61 65 66 67 70 68 69 73 75 76 77 79 80 82 83 84 85 86 88 89 87 90 92 93 94 98 99 96 97 100 101 102 103 104 105 106 108 107 109 110 111 113 112 114 115 117 118 119 116 120 121 122 123 124 125 126 128]</text>
<polyline fill="none" stroke="#0058ad" points="2142,-.5 2142,-29.5 "/>
<text text-anchor="middle" x="2170.5" y="-11.3" font-family="Times,serif" font-size="14.00" fill="#0058ad">a 74 45</text>
<polyline fill="none" stroke="#0058ad" points="2199,-.5 2199,-29.5 "/>
<text text-anchor="middle" x="2224" y="-11.3" font-family="Times,serif" font-size="14.00" fill="#0058ad">a 77 5</text>
</g>
<!-- T14495&#45;&gt;T14493 -->
<g id="edge1" class="edge">
<title>T14495:f2&#45;&gt;T14493:f1</title>
<path fill="none" stroke="#5b00c0" d="M1382.5,-81C1382.5,36.8054 1528.0671,-57.3613 1645.5,-48 1658.8526,-46.9356 2090.0906,-44.9535 2160.7508,-33.348"/>
<polygon fill="#5b00c0" stroke="#5b00c0" points="2162.179,-36.5583 2170.5,-30 2159.9053,-29.9378 2162.179,-36.5583"/>
<text text-anchor="middle" x="1653" y="-51.8" font-family="Times,serif" font-size="14.00" fill="#5b00c0">rw</text>
</g>
<!-- T14493&#45;&gt;T14495 -->
<g id="edge2" class="edge">
<title>T14493:f0&#45;&gt;T14495:f3</title>
<path fill="none" stroke="#5b00c0" d="M1070.5,-30C1070.5,-46.3965 1644.3155,-45.3719 1660.5,-48 1707.1423,-55.5739 1761.7013,-33.6614 1769.5429,-70.8664"/>
<polygon fill="#5b00c0" stroke="#5b00c0" points="1766.0752,-71.3734 1770.5,-81 1773.0441,-70.7152 1766.0752,-71.3734"/>
<text text-anchor="middle" x="1773" y="-51.8" font-family="Times,serif" font-size="14.00" fill="#5b00c0">rw</text>
</g>
</g>
</svg>
