<?xml version="1.0" encoding="UTF-8" standalone="no"?>
<!DOCTYPE svg PUBLIC "-//W3C//DTD SVG 1.1//EN"
 "http://www.w3.org/Graphics/SVG/1.1/DTD/svg11.dtd">
<!-- Generated by graphviz version 2.40.1 (20161225.0304)
 -->
<!-- Title: a_graph Pages: 1 -->
<svg width="2453pt" height="119pt"
 viewBox="0.00 0.00 2453.00 119.00" xmlns="http://www.w3.org/2000/svg" xmlns:xlink="http://www.w3.org/1999/xlink">
<g id="graph0" class="graph" transform="scale(1 1) rotate(0) translate(4 115)">
<title>a_graph</title>
<polygon fill="#ffffff" stroke="transparent" points="-4,4 -4,-115 2449,-115 2449,4 -4,4"/>
<!-- T20121 -->
<g id="node1" class="node">
<title>T20121</title>
<polygon fill="none" stroke="#0058ad" points="0,-81.5 0,-110.5 2438,-110.5 2438,-81.5 0,-81.5"/>
<text text-anchor="middle" x="371" y="-92.3" font-family="Times,serif" font-size="14.00" fill="#0058ad">r 102 [1 2 3 4 5 6 7 8 10 11 12 13 14 16 18 17 19 20 21 22 23 24 25 27 26 28 29 31 30 32 33 34 35 37 39 40 41 42 43 44 45 46 47]</text>
<polyline fill="none" stroke="#0058ad" points="742,-81.5 742,-110.5 "/>
<text text-anchor="middle" x="1113" y="-92.3" font-family="Times,serif" font-size="14.00" fill="#0058ad">r 102 [1 2 3 4 5 6 7 8 10 11 12 13 14 16 18 17 19 20 21 22 23 24 25 27 26 28 29 31 30 32 33 34 35 37 39 40 41 42 43 44 45 46 47]</text>
<polyline fill="none" stroke="#0058ad" points="1484,-81.5 1484,-110.5 "/>
<text text-anchor="middle" x="1516" y="-92.3" font-family="Times,serif" font-size="14.00" fill="#0058ad">a 102 48</text>
<polyline fill="none" stroke="#0058ad" points="1548,-81.5 1548,-110.5 "/>
<text text-anchor="middle" x="1993" y="-92.3" font-family="Times,serif" font-size="14.00" fill="#0058ad">r 103 [1 2 3 4 5 6 7 8 9 10 11 12 14 15 16 17 18 19 20 21 22 23 24 25 27 28 30 31 32 33 34 35 36 13 38 39 40 37 41 42 43 44 45 46 47 48 51 49 50 52 53 54]</text>
</g>
<!-- T20117 -->
<g id="node2" class="node">
<title>T20117</title>
<polygon fill="none" stroke="#0058ad" points="1575,-.5 1575,-29.5 2445,-29.5 2445,-.5 1575,-.5"/>
<text text-anchor="middle" x="1607" y="-11.3" font-family="Times,serif" font-size="14.00" fill="#0058ad">a 103 55</text>
<polyline fill="none" stroke="#0058ad" points="1639,-.5 1639,-29.5 "/>
<text text-anchor="middle" x="2010" y="-11.3" font-family="Times,serif" font-size="14.00" fill="#0058ad">r 102 [1 2 3 4 5 6 7 8 10 11 12 13 14 16 18 17 19 20 21 22 23 24 25 27 26 28 29 31 30 32 33 34 35 37 39 40 41 42 43 44 45 46 47]</text>
<polyline fill="none" stroke="#0058ad" points="2381,-.5 2381,-29.5 "/>
<text text-anchor="middle" x="2413" y="-11.3" font-family="Times,serif" font-size="14.00" fill="#0058ad">a 103 56</text>
</g>
<!-- T20121&#45;&gt;T20117 -->
<g id="edge1" class="edge">
<title>T20121:f3&#45;&gt;T20117:f0</title>
<path fill="none" stroke="#5b00c0" d="M1993,-81C1993,26.23 1860.3318,-61.8502 1754,-48 1740.1046,-46.1901 1643.2765,-46.3425 1614.8368,-36.2662"/>
<polygon fill="#5b00c0" stroke="#5b00c0" points="1616.996,-33.5114 1607,-30 1612.6245,-38.9786 1616.996,-33.5114"/>
<text text-anchor="middle" x="1997.5" y="-51.8" font-family="Times,serif" font-size="14.00" fill="#5b00c0">rw</text>
</g>
<!-- T20117&#45;&gt;T20121 -->
<g id="edge2" class="edge">
<title>T20117:f1&#45;&gt;T20121:f2</title>
<path fill="none" stroke="#5b00c0" d="M2010,-30C2010,-45.3105 1750.2222,-46.3579 1735,-48 1640.6717,-58.1758 1524.7236,12.0537 1516.4676,-71.001"/>
<polygon fill="#5b00c0" stroke="#5b00c0" points="1512.9711,-70.8474 1516,-81 1519.9635,-71.1745 1512.9711,-70.8474"/>
<text text-anchor="middle" x="1742.5" y="-51.8" font-family="Times,serif" font-size="14.00" fill="#5b00c0">rw</text>
</g>
</g>
</svg>
