<?xml version="1.0" encoding="UTF-8" standalone="no"?>
<!DOCTYPE svg PUBLIC "-//W3C//DTD SVG 1.1//EN"
 "http://www.w3.org/Graphics/SVG/1.1/DTD/svg11.dtd">
<!-- Generated by graphviz version 2.40.1 (20161225.0304)
 -->
<!-- Title: a_graph Pages: 1 -->
<svg width="2624pt" height="119pt"
 viewBox="0.00 0.00 2624.00 119.00" xmlns="http://www.w3.org/2000/svg" xmlns:xlink="http://www.w3.org/1999/xlink">
<g id="graph0" class="graph" transform="scale(1 1) rotate(0) translate(4 115)">
<title>a_graph</title>
<polygon fill="#ffffff" stroke="transparent" points="-4,4 -4,-115 2620,-115 2620,4 -4,4"/>
<!-- T9833 -->
<g id="node1" class="node">
<title>T9833</title>
<polygon fill="none" stroke="#0058ad" points="0,-81.5 0,-110.5 2616,-110.5 2616,-81.5 0,-81.5"/>
<text text-anchor="middle" x="338.5" y="-92.3" font-family="Times,serif" font-size="14.00" fill="#0058ad">r 53 [1 3 4 2 6 7 8 9 10 11 5 12 13 14 15 16 17 18 19 20 21 22 23 24 25 26 27 28 29 30 31 32 33 34 35 37 38 39 40 41]</text>
<polyline fill="none" stroke="#0058ad" points="677,-81.5 677,-110.5 "/>
<text text-anchor="middle" x="705.5" y="-92.3" font-family="Times,serif" font-size="14.00" fill="#0058ad">a 53 43</text>
<polyline fill="none" stroke="#0058ad" points="734,-81.5 734,-110.5 "/>
<text text-anchor="middle" x="1675" y="-92.3" font-family="Times,serif" font-size="14.00" fill="#0058ad">r 40 [1 2 3 4 5 6 7 8 9 10 11 12 13 14 15 16 17 18 19 20 22 24 25 26 27 28 29 31 33 34 35 36 37 38 39 40 41 42 43 44 45 48 49 50 51 52 53 54 55 56 57 58 59 60 61 62 63 64 65 66 67 68 69 70 71 72 73 74 75 76 77 82 83 84 85 86 87 88 89 90 91 92 93 94 95 96 97 98 99 100 101 102 103 104 105 106 107 108 109 110 111 112 114 115]</text>
</g>
<!-- T9837 -->
<g id="node2" class="node">
<title>T9837</title>
<polygon fill="none" stroke="#0058ad" points="668.5,-.5 668.5,-29.5 1345.5,-29.5 1345.5,-.5 668.5,-.5"/>
<text text-anchor="middle" x="1007" y="-11.3" font-family="Times,serif" font-size="14.00" fill="#0058ad">r 53 [1 3 4 2 6 7 8 9 10 11 5 12 13 14 15 16 17 18 19 20 21 22 23 24 25 26 27 28 29 30 31 32 33 34 35 37 38 39 40 41]</text>
</g>
<!-- T9833&#45;&gt;T9837 -->
<g id="edge1" class="edge">
<title>T9833&#45;&gt;T9837</title>
<path fill="none" stroke="#0050c0" d="M1253.8396,-81.4253C1202.4525,-67.5968 1125.2142,-46.8118 1070.8517,-32.1827"/>
<polygon fill="#0050c0" stroke="#0050c0" points="1071.5447,-28.7447 1060.9787,-29.5258 1069.7256,-35.5042 1071.5447,-28.7447"/>
<text text-anchor="middle" x="1188.5" y="-51.8" font-family="Times,serif" font-size="14.00" fill="#0050c0">rt</text>
</g>
<!-- T9837&#45;&gt;T9833 -->
<g id="edge2" class="edge">
<title>T9837:f0&#45;&gt;T9833:f1</title>
<path fill="none" stroke="#5b00c0" d="M802.6337,-29.5575C755.7607,-37.8415 716.7611,-50.8188 707.2287,-71.138"/>
<polygon fill="#5b00c0" stroke="#5b00c0" points="703.7904,-70.4744 705,-81 710.6183,-72.0175 703.7904,-70.4744"/>
<text text-anchor="middle" x="738.5" y="-51.8" font-family="Times,serif" font-size="14.00" fill="#5b00c0">rw</text>
</g>
</g>
</svg>
