<?xml version="1.0" encoding="UTF-8" standalone="no"?>
<!DOCTYPE svg PUBLIC "-//W3C//DTD SVG 1.1//EN"
 "http://www.w3.org/Graphics/SVG/1.1/DTD/svg11.dtd">
<!-- Generated by graphviz version 2.40.1 (20161225.0304)
 -->
<!-- Title: a_graph Pages: 1 -->
<svg width="1655pt" height="119pt"
 viewBox="0.00 0.00 1655.00 119.00" xmlns="http://www.w3.org/2000/svg" xmlns:xlink="http://www.w3.org/1999/xlink">
<g id="graph0" class="graph" transform="scale(1 1) rotate(0) translate(4 115)">
<title>a_graph</title>
<polygon fill="#ffffff" stroke="transparent" points="-4,4 -4,-115 1651,-115 1651,4 -4,4"/>
<!-- T9521 -->
<g id="node1" class="node">
<title>T9521</title>
<polygon fill="none" stroke="#0058ad" points="332,-81.5 332,-110.5 1647,-110.5 1647,-81.5 332,-81.5"/>
<text text-anchor="middle" x="989.5" y="-92.3" font-family="Times,serif" font-size="14.00" fill="#0058ad">r 50 [1 2 3 4 5 6 7 8 9 10 11 12 13 14 15 16 17 18 19 21 20 22 24 25 23 26 27 28 29 30 31 32 33 34 35 38 36 37 39 40 41 42 43 44 45 46 47 48 49 50 52 51 53 54 55 56 57 58 59 60 61 62 63 64 65 66 67 68 69 70 71 72 73 74 75 76 77]</text>
</g>
<!-- T9517 -->
<g id="node2" class="node">
<title>T9517</title>
<polygon fill="none" stroke="#0058ad" points="0,-.5 0,-29.5 1339,-29.5 1339,-.5 0,-.5"/>
<text text-anchor="middle" x="308.5" y="-11.3" font-family="Times,serif" font-size="14.00" fill="#0058ad">r 41 [56 57 58 59 61 60 62 63 64 65 66 67 68 69 70 71 72 74 76 77 78 79 81 82 80 83 84 85 86 87 88 89 90]</text>
<polyline fill="none" stroke="#0058ad" points="617,-.5 617,-29.5 "/>
<text text-anchor="middle" x="921" y="-11.3" font-family="Times,serif" font-size="14.00" fill="#0058ad">r 51 [2 3 1 4 5 6 8 7 9 10 11 12 14 13 15 16 17 18 19 20 21 25 26 27 28 29 31 32 34 35 36 37 38 39 40 41]</text>
<polyline fill="none" stroke="#0058ad" points="1225,-.5 1225,-29.5 "/>
<text text-anchor="middle" x="1253.5" y="-11.3" font-family="Times,serif" font-size="14.00" fill="#0058ad">a 51 44</text>
<polyline fill="none" stroke="#0058ad" points="1282,-.5 1282,-29.5 "/>
<text text-anchor="middle" x="1310.5" y="-11.3" font-family="Times,serif" font-size="14.00" fill="#0058ad">a 50 78</text>
</g>
<!-- T9521&#45;&gt;T9517 -->
<g id="edge1" class="edge">
<title>T9521:f0&#45;&gt;T9517:f3</title>
<path fill="none" stroke="#5b00c0" d="M1217.2223,-81.4315C1262.7441,-73.0763 1299.4602,-60.056 1308.4099,-39.8164"/>
<polygon fill="#5b00c0" stroke="#5b00c0" points="1311.8407,-40.5097 1310.5,-30 1304.9942,-39.0519 1311.8407,-40.5097"/>
<text text-anchor="middle" x="1309" y="-51.8" font-family="Times,serif" font-size="14.00" fill="#5b00c0">rw</text>
</g>
<!-- T9517&#45;&gt;T9521 -->
<g id="edge2" class="edge">
<title>T9517&#45;&gt;T9521</title>
<path fill="none" stroke="#0050c0" d="M726.886,-29.5258C781.6783,-43.3951 864.2438,-64.2945 922.132,-78.9475"/>
<polygon fill="#0050c0" stroke="#0050c0" points="921.3677,-82.3643 931.9208,-81.4253 923.0855,-75.5784 921.3677,-82.3643"/>
<text text-anchor="middle" x="862" y="-51.8" font-family="Times,serif" font-size="14.00" fill="#0050c0">rt</text>
</g>
</g>
</svg>
