<?xml version="1.0" encoding="UTF-8" standalone="no"?>
<!DOCTYPE svg PUBLIC "-//W3C//DTD SVG 1.1//EN"
 "http://www.w3.org/Graphics/SVG/1.1/DTD/svg11.dtd">
<!-- Generated by graphviz version 2.40.1 (20161225.0304)
 -->
<!-- Title: a_graph Pages: 1 -->
<svg width="2560pt" height="119pt"
 viewBox="0.00 0.00 2560.00 119.00" xmlns="http://www.w3.org/2000/svg" xmlns:xlink="http://www.w3.org/1999/xlink">
<g id="graph0" class="graph" transform="scale(1 1) rotate(0) translate(4 115)">
<title>a_graph</title>
<polygon fill="#ffffff" stroke="transparent" points="-4,4 -4,-115 2556,-115 2556,4 -4,4"/>
<!-- T4509 -->
<g id="node1" class="node">
<title>T4509</title>
<polygon fill="none" stroke="#0058ad" points="0,-81.5 0,-110.5 1995,-110.5 1995,-81.5 0,-81.5"/>
<text text-anchor="middle" x="912" y="-92.3" font-family="Times,serif" font-size="14.00" fill="#0058ad">r 23 [1 2 3 4 5 6 7 8 9 10 11 12 13 14 15 16 17 18 19 21 22 23 24 25 26 27 28 29 30 32 33 31 34 35 36 37 38 39 40 41 42 43 44 45 46 47 48 49 50 51 52 53 54 56 57 58 60 59 61 62 63 64 65 66 67 68 69 70 71 72 73 74 75 76 78 79 81 82 83 80 85 86 88 89 90 91 92 93 94 95 96 97 98 99 100 101 104 105 106 107 108 109 110]</text>
<polyline fill="none" stroke="#0058ad" points="1824,-81.5 1824,-110.5 "/>
<text text-anchor="middle" x="1852.5" y="-92.3" font-family="Times,serif" font-size="14.00" fill="#0058ad">a 27 66</text>
<polyline fill="none" stroke="#0058ad" points="1881,-81.5 1881,-110.5 "/>
<text text-anchor="middle" x="1909.5" y="-92.3" font-family="Times,serif" font-size="14.00" fill="#0058ad">a 27 67</text>
<polyline fill="none" stroke="#0058ad" points="1938,-81.5 1938,-110.5 "/>
<text text-anchor="middle" x="1966.5" y="-92.3" font-family="Times,serif" font-size="14.00" fill="#0058ad">a 28 16</text>
</g>
<!-- T4511 -->
<g id="node2" class="node">
<title>T4511</title>
<polygon fill="none" stroke="#0058ad" points="1563,-.5 1563,-29.5 2552,-29.5 2552,-.5 1563,-.5"/>
<text text-anchor="middle" x="1595" y="-11.3" font-family="Times,serif" font-size="14.00" fill="#0058ad">a 23 111</text>
<polyline fill="none" stroke="#0058ad" points="1627,-.5 1627,-29.5 "/>
<text text-anchor="middle" x="1739" y="-11.3" font-family="Times,serif" font-size="14.00" fill="#0058ad">r 28 [1 2 5 6 7 8 9 10 11 12 14 15 13]</text>
<polyline fill="none" stroke="#0058ad" points="1851,-.5 1851,-29.5 "/>
<text text-anchor="middle" x="2201.5" y="-11.3" font-family="Times,serif" font-size="14.00" fill="#0058ad">r 21 [2 3 4 5 6 7 8 9 10 11 12 13 14 16 17 18 19 20 21 23 24 25 26 27 28 29 30 31 33 34 35 36 37 38 39 40 41 42 43 44 45]</text>
</g>
<!-- T4509&#45;&gt;T4511 -->
<g id="edge1" class="edge">
<title>T4509:f0&#45;&gt;T4511:f0</title>
<path fill="none" stroke="#5b00c0" d="M911.5,-81C911.5,-46.5294 1464.1688,-18.087 1552.3734,-15.2351"/>
<polygon fill="#5b00c0" stroke="#5b00c0" points="1552.584,-18.7312 1562.5,-15 1552.4214,-11.7331 1552.584,-18.7312"/>
<text text-anchor="middle" x="1069" y="-51.8" font-family="Times,serif" font-size="14.00" fill="#5b00c0">rw</text>
</g>
<!-- T4511&#45;&gt;T4509 -->
<g id="edge2" class="edge">
<title>T4511:f1&#45;&gt;T4509:f3</title>
<path fill="none" stroke="#5b00c0" d="M1738.5,-30C1738.5,-130.1869 1950.7505,12.1433 1965.6744,-70.9917"/>
<polygon fill="#5b00c0" stroke="#5b00c0" points="1962.1896,-71.3216 1966.5,-81 1969.166,-70.7461 1962.1896,-71.3216"/>
<text text-anchor="middle" x="1969" y="-51.8" font-family="Times,serif" font-size="14.00" fill="#5b00c0">rw</text>
</g>
</g>
</svg>
