<?xml version="1.0" encoding="UTF-8" standalone="no"?>
<!DOCTYPE svg PUBLIC "-//W3C//DTD SVG 1.1//EN"
 "http://www.w3.org/Graphics/SVG/1.1/DTD/svg11.dtd">
<!-- Generated by graphviz version 2.40.1 (20161225.0304)
 -->
<!-- Title: a_graph Pages: 1 -->
<svg width="265pt" height="119pt"
 viewBox="0.00 0.00 264.50 119.00" xmlns="http://www.w3.org/2000/svg" xmlns:xlink="http://www.w3.org/1999/xlink">
<g id="graph0" class="graph" transform="scale(1 1) rotate(0) translate(4 115)">
<title>a_graph</title>
<polygon fill="#ffffff" stroke="transparent" points="-4,4 -4,-115 260.5,-115 260.5,4 -4,4"/>
<!-- T18081 -->
<g id="node1" class="node">
<title>T18081</title>
<polygon fill="none" stroke="#0058ad" points="0,-81.5 0,-110.5 228,-110.5 228,-81.5 0,-81.5"/>
<text text-anchor="middle" x="28.5" y="-92.3" font-family="Times,serif" font-size="14.00" fill="#0058ad">a 80 99</text>
<polyline fill="none" stroke="#0058ad" points="57,-81.5 57,-110.5 "/>
<text text-anchor="middle" x="117.5" y="-92.3" font-family="Times,serif" font-size="14.00" fill="#0058ad">r 94 [2 5 3 4 6 7 8]</text>
<polyline fill="none" stroke="#0058ad" points="178,-81.5 178,-110.5 "/>
<text text-anchor="middle" x="203" y="-92.3" font-family="Times,serif" font-size="14.00" fill="#0058ad">a 93 7</text>
</g>
<!-- T18079 -->
<g id="node2" class="node">
<title>T18079</title>
<polygon fill="none" stroke="#0058ad" points="49.5,-.5 49.5,-29.5 256.5,-29.5 256.5,-.5 49.5,-.5"/>
<text text-anchor="middle" x="99.5" y="-11.3" font-family="Times,serif" font-size="14.00" fill="#0058ad">r 93 [1 2 3 4 5]</text>
<polyline fill="none" stroke="#0058ad" points="149.5,-.5 149.5,-29.5 "/>
<text text-anchor="middle" x="178" y="-11.3" font-family="Times,serif" font-size="14.00" fill="#0058ad">a 92 62</text>
<polyline fill="none" stroke="#0058ad" points="206.5,-.5 206.5,-29.5 "/>
<text text-anchor="middle" x="231.5" y="-11.3" font-family="Times,serif" font-size="14.00" fill="#0058ad">a 94 9</text>
</g>
<!-- T18081&#45;&gt;T18079 -->
<g id="edge1" class="edge">
<title>T18081:f1&#45;&gt;T18079:f2</title>
<path fill="none" stroke="#5b00c0" d="M118,-81C118,-59.2949 134.7917,-58.1071 154,-48 181.5495,-33.5039 220.6061,-57.834 229.9398,-40.3086"/>
<polygon fill="#5b00c0" stroke="#5b00c0" points="233.4723,-40.492 232,-30 226.608,-39.1202 233.4723,-40.492"/>
<text text-anchor="middle" x="161.5" y="-51.8" font-family="Times,serif" font-size="14.00" fill="#5b00c0">rw</text>
</g>
<!-- T18079&#45;&gt;T18081 -->
<g id="edge2" class="edge">
<title>T18079:f0&#45;&gt;T18081:f2</title>
<path fill="none" stroke="#5b00c0" d="M99,-30C99,-62.1232 140.9816,-32.2879 169,-48 183.9236,-56.3688 197.0417,-59.0216 201.4363,-71.0175"/>
<polygon fill="#5b00c0" stroke="#5b00c0" points="197.9945,-71.6622 203,-81 204.9102,-70.5788 197.9945,-71.6622"/>
<text text-anchor="middle" x="203.5" y="-51.8" font-family="Times,serif" font-size="14.00" fill="#5b00c0">rw</text>
</g>
</g>
</svg>
