<?xml version="1.0" encoding="UTF-8" standalone="no"?>
<!DOCTYPE svg PUBLIC "-//W3C//DTD SVG 1.1//EN"
 "http://www.w3.org/Graphics/SVG/1.1/DTD/svg11.dtd">
<!-- Generated by graphviz version 2.40.1 (20161225.0304)
 -->
<!-- Title: a_graph Pages: 1 -->
<svg width="732pt" height="119pt"
 viewBox="0.00 0.00 732.00 119.00" xmlns="http://www.w3.org/2000/svg" xmlns:xlink="http://www.w3.org/1999/xlink">
<g id="graph0" class="graph" transform="scale(1 1) rotate(0) translate(4 115)">
<title>a_graph</title>
<polygon fill="#ffffff" stroke="transparent" points="-4,4 -4,-115 728,-115 728,4 -4,4"/>
<!-- T10739 -->
<g id="node1" class="node">
<title>T10739</title>
<polygon fill="none" stroke="#0058ad" points="0,-81.5 0,-110.5 669,-110.5 669,-81.5 0,-81.5"/>
<text text-anchor="middle" x="166" y="-92.3" font-family="Times,serif" font-size="14.00" fill="#0058ad">r 58 [2 3 1 4 5 6 7 9 11 10 12 8 13 15 16 19 20 14 21 23]</text>
<polyline fill="none" stroke="#0058ad" points="332,-81.5 332,-110.5 "/>
<text text-anchor="middle" x="472" y="-92.3" font-family="Times,serif" font-size="14.00" fill="#0058ad">r 57 [1 2 3 4 5 6 9 7 8 11 10 12 13 18 14 19 21]</text>
<polyline fill="none" stroke="#0058ad" points="612,-81.5 612,-110.5 "/>
<text text-anchor="middle" x="640.5" y="-92.3" font-family="Times,serif" font-size="14.00" fill="#0058ad">a 58 24</text>
</g>
<!-- T10741 -->
<g id="node2" class="node">
<title>T10741</title>
<polygon fill="none" stroke="#0058ad" points="285,-.5 285,-29.5 724,-29.5 724,-.5 285,-.5"/>
<text text-anchor="middle" x="451" y="-11.3" font-family="Times,serif" font-size="14.00" fill="#0058ad">r 58 [2 3 1 4 5 6 7 9 11 10 12 8 13 15 16 19 20 14 21 23]</text>
<polyline fill="none" stroke="#0058ad" points="617,-.5 617,-29.5 "/>
<text text-anchor="middle" x="642" y="-11.3" font-family="Times,serif" font-size="14.00" fill="#0058ad">a 4 96</text>
<polyline fill="none" stroke="#0058ad" points="667,-.5 667,-29.5 "/>
<text text-anchor="middle" x="695.5" y="-11.3" font-family="Times,serif" font-size="14.00" fill="#0058ad">a 57 22</text>
</g>
<!-- T10739&#45;&gt;T10741 -->
<g id="edge1" class="edge">
<title>T10739:f1&#45;&gt;T10741:f2</title>
<path fill="none" stroke="#5b00c0" d="M472.5,-81C472.5,-35.0413 525.7929,-58.6525 570.5,-48 594.1742,-42.359 670.7902,-54.0701 690.7238,-38.9786"/>
<polygon fill="#5b00c0" stroke="#5b00c0" points="693.8935,-40.4723 695.5,-30 687.7135,-37.1848 693.8935,-40.4723"/>
<text text-anchor="middle" x="578" y="-51.8" font-family="Times,serif" font-size="14.00" fill="#5b00c0">rw</text>
</g>
<!-- T10741&#45;&gt;T10739 -->
<g id="edge2" class="edge">
<title>T10741:f0&#45;&gt;T10739:f2</title>
<path fill="none" stroke="#5b00c0" d="M450.5,-30C450.5,-60.2655 556.9318,-38.0072 585.5,-48 608.6243,-56.0886 632.6226,-53.5932 638.9148,-70.8239"/>
<polygon fill="#5b00c0" stroke="#5b00c0" points="635.5025,-71.6579 640.5,-81 642.419,-70.5804 635.5025,-71.6579"/>
<text text-anchor="middle" x="640" y="-51.8" font-family="Times,serif" font-size="14.00" fill="#5b00c0">rw</text>
</g>
</g>
</svg>
