<?xml version="1.0" encoding="UTF-8" standalone="no"?>
<!DOCTYPE svg PUBLIC "-//W3C//DTD SVG 1.1//EN"
 "http://www.w3.org/Graphics/SVG/1.1/DTD/svg11.dtd">
<!-- Generated by graphviz version 2.40.1 (20161225.0304)
 -->
<!-- Title: a_graph Pages: 1 -->
<svg width="432pt" height="119pt"
 viewBox="0.00 0.00 431.50 119.00" xmlns="http://www.w3.org/2000/svg" xmlns:xlink="http://www.w3.org/1999/xlink">
<g id="graph0" class="graph" transform="scale(1 1) rotate(0) translate(4 115)">
<title>a_graph</title>
<polygon fill="#ffffff" stroke="transparent" points="-4,4 -4,-115 427.5,-115 427.5,4 -4,4"/>
<!-- T13843 -->
<g id="node1" class="node">
<title>T13843</title>
<polygon fill="none" stroke="#0058ad" points="0,-81.5 0,-110.5 388,-110.5 388,-81.5 0,-81.5"/>
<text text-anchor="middle" x="165.5" y="-92.3" font-family="Times,serif" font-size="14.00" fill="#0058ad">r 72 [6 7 8 9 48 49 50 51 73 74 79 80 81 82 72 83 84 85]</text>
<polyline fill="none" stroke="#0058ad" points="331,-81.5 331,-110.5 "/>
<text text-anchor="middle" x="359.5" y="-92.3" font-family="Times,serif" font-size="14.00" fill="#0058ad">a 73 23</text>
</g>
<!-- T13847 -->
<g id="node2" class="node">
<title>T13847</title>
<polygon fill="none" stroke="#0058ad" points="14.5,-.5 14.5,-29.5 423.5,-29.5 423.5,-.5 14.5,-.5"/>
<text text-anchor="middle" x="43" y="-11.3" font-family="Times,serif" font-size="14.00" fill="#0058ad">a 70 10</text>
<polyline fill="none" stroke="#0058ad" points="71.5,-.5 71.5,-29.5 "/>
<text text-anchor="middle" x="129.5" y="-11.3" font-family="Times,serif" font-size="14.00" fill="#0058ad">r 73 [19 20 21 22]</text>
<polyline fill="none" stroke="#0058ad" points="187.5,-.5 187.5,-29.5 "/>
<text text-anchor="middle" x="277" y="-11.3" font-family="Times,serif" font-size="14.00" fill="#0058ad">r 69 [5 26 25 62 63 64 61 65]</text>
<polyline fill="none" stroke="#0058ad" points="366.5,-.5 366.5,-29.5 "/>
<text text-anchor="middle" x="395" y="-11.3" font-family="Times,serif" font-size="14.00" fill="#0058ad">a 72 86</text>
</g>
<!-- T13843&#45;&gt;T13847 -->
<g id="edge1" class="edge">
<title>T13843:f0&#45;&gt;T13847:f3</title>
<path fill="none" stroke="#5b00c0" d="M165,-81C165,-26.5433 229.809,-59.6726 283,-48 304.0637,-43.3776 371.0533,-51.9391 389.9775,-38.7286"/>
<polygon fill="#5b00c0" stroke="#5b00c0" points="393.0463,-40.4131 395,-30 386.979,-36.922 393.0463,-40.4131"/>
<text text-anchor="middle" x="290.5" y="-51.8" font-family="Times,serif" font-size="14.00" fill="#5b00c0">rw</text>
</g>
<!-- T13847&#45;&gt;T13843 -->
<g id="edge2" class="edge">
<title>T13847:f1&#45;&gt;T13843:f1</title>
<path fill="none" stroke="#5b00c0" d="M129,-30C129,-48.884 279.9462,-42.4625 298,-48 324.113,-56.0095 351.997,-51.3685 358.56,-70.9952"/>
<polygon fill="#5b00c0" stroke="#5b00c0" points="355.111,-71.6007 360,-81 362.0396,-70.6033 355.111,-71.6007"/>
<text text-anchor="middle" x="360.5" y="-51.8" font-family="Times,serif" font-size="14.00" fill="#5b00c0">rw</text>
</g>
</g>
</svg>
