<?xml version="1.0" encoding="UTF-8" standalone="no"?>
<!DOCTYPE svg PUBLIC "-//W3C//DTD SVG 1.1//EN"
 "http://www.w3.org/Graphics/SVG/1.1/DTD/svg11.dtd">
<!-- Generated by graphviz version 2.40.1 (20161225.0304)
 -->
<!-- Title: a_graph Pages: 1 -->
<svg width="1394pt" height="200pt"
 viewBox="0.00 0.00 1394.00 200.00" xmlns="http://www.w3.org/2000/svg" xmlns:xlink="http://www.w3.org/1999/xlink">
<g id="graph0" class="graph" transform="scale(1 1) rotate(0) translate(4 196)">
<title>a_graph</title>
<polygon fill="#ffffff" stroke="transparent" points="-4,4 -4,-196 1390,-196 1390,4 -4,4"/>
<!-- T11375 -->
<g id="node1" class="node">
<title>T11375</title>
<polygon fill="none" stroke="#0058ad" points="985,-162.5 985,-191.5 1277,-191.5 1277,-162.5 985,-162.5"/>
<text text-anchor="middle" x="1029.5" y="-173.3" font-family="Times,serif" font-size="14.00" fill="#0058ad">r 60 [1 2 3 4]</text>
<polyline fill="none" stroke="#0058ad" points="1074,-162.5 1074,-191.5 "/>
<text text-anchor="middle" x="1102.5" y="-173.3" font-family="Times,serif" font-size="14.00" fill="#0058ad">a 59 68</text>
<polyline fill="none" stroke="#0058ad" points="1131,-162.5 1131,-191.5 "/>
<text text-anchor="middle" x="1175.5" y="-173.3" font-family="Times,serif" font-size="14.00" fill="#0058ad">r 60 [1 2 3 4]</text>
<polyline fill="none" stroke="#0058ad" points="1220,-162.5 1220,-191.5 "/>
<text text-anchor="middle" x="1248.5" y="-173.3" font-family="Times,serif" font-size="14.00" fill="#0058ad">a 59 69</text>
</g>
<!-- T11371 -->
<g id="node3" class="node">
<title>T11371</title>
<polygon fill="none" stroke="#0058ad" points="0,-81.5 0,-110.5 1154,-110.5 1154,-81.5 0,-81.5"/>
<text text-anchor="middle" x="502" y="-92.3" font-family="Times,serif" font-size="14.00" fill="#0058ad">r 59 [1 2 3 4 6 7 9 8 10 12 13 11 15 16 17 14 5 18 20 21 19 22 26 23 24 27 28 25 31 33 35 30 36 37 38 39 40 43 45 46 44 48 49 52 47 51 53 54 55 56 57 58 59 60 61 63 62 64 65]</text>
<polyline fill="none" stroke="#0058ad" points="1004,-81.5 1004,-110.5 "/>
<text text-anchor="middle" x="1029" y="-92.3" font-family="Times,serif" font-size="14.00" fill="#0058ad">a 60 5</text>
<polyline fill="none" stroke="#0058ad" points="1054,-81.5 1054,-110.5 "/>
<text text-anchor="middle" x="1104" y="-92.3" font-family="Times,serif" font-size="14.00" fill="#0058ad">r 60 [1 2 3 4 5]</text>
</g>
<!-- T11375&#45;&gt;T11371 -->
<g id="edge1" class="edge">
<title>T11375:f0&#45;&gt;T11371:f1</title>
<path fill="none" stroke="#5b00c0" d="M1029,-162C1029,-143.2292 1029,-136.1168 1029,-121.3535"/>
<polygon fill="#5b00c0" stroke="#5b00c0" points="1032.5001,-121 1029,-111 1025.5001,-121 1032.5001,-121"/>
<text text-anchor="middle" x="1036.5" y="-132.8" font-family="Times,serif" font-size="14.00" fill="#5b00c0">rw</text>
</g>
<!-- T11373 -->
<g id="node2" class="node">
<title>T11373</title>
<polygon fill="none" stroke="#0058ad" points="382,-.5 382,-29.5 1386,-29.5 1386,-.5 382,-.5"/>
<text text-anchor="middle" x="884" y="-11.3" font-family="Times,serif" font-size="14.00" fill="#0058ad">r 59 [1 2 3 4 6 7 9 8 10 12 13 11 15 16 17 14 5 18 20 21 19 22 26 23 24 27 28 25 31 33 35 30 36 37 38 39 40 43 45 46 44 48 49 52 47 51 53 54 55 56 57 58 59 60 61 63 62 64 65]</text>
</g>
<!-- T11373&#45;&gt;T11375 -->
<g id="edge2" class="edge">
<title>T11373:f0&#45;&gt;T11375:f1</title>
<path fill="none" stroke="#5b00c0" d="M1088.8478,-29.5634C1117.6177,-40.446 1143.8544,-56.7969 1163,-81 1171.272,-91.4571 1168.6457,-98.9209 1163,-111 1156.8043,-124.2558 1119.037,-138.4147 1106.2375,-152.9249"/>
<polygon fill="#5b00c0" stroke="#5b00c0" points="1103.0596,-151.4583 1102,-162 1109.4022,-154.4199 1103.0596,-151.4583"/>
<text text-anchor="middle" x="1175.5" y="-92.3" font-family="Times,serif" font-size="14.00" fill="#5b00c0">rw</text>
</g>
<!-- T11371&#45;&gt;T11375 -->
<g id="edge4" class="edge">
<title>T11371:f0&#45;&gt;T11375:f1</title>
<path fill="none" stroke="#5b00c0" d="M502,-111C502,-141.3498 1018.924,-120.2995 1048,-129 1071.1569,-135.9293 1094.3932,-134.5479 1100.4705,-151.8736"/>
<polygon fill="#5b00c0" stroke="#5b00c0" points="1097.0457,-152.6349 1102,-162 1103.9672,-151.5894 1097.0457,-152.6349"/>
<text text-anchor="middle" x="1102.5" y="-132.8" font-family="Times,serif" font-size="14.00" fill="#5b00c0">rw</text>
</g>
<!-- T11371&#45;&gt;T11373 -->
<g id="edge3" class="edge">
<title>T11371&#45;&gt;T11373</title>
<path fill="none" stroke="#0050c0" d="M632.24,-81.4253C684.7602,-67.5682 763.7564,-46.7255 819.2203,-32.0917"/>
<polygon fill="#0050c0" stroke="#0050c0" points="820.1691,-35.4612 828.9453,-29.5258 818.3833,-28.6928 820.1691,-35.4612"/>
<text text-anchor="middle" x="761.5" y="-51.8" font-family="Times,serif" font-size="14.00" fill="#0050c0">rt</text>
</g>
</g>
</svg>
