<?xml version="1.0" encoding="UTF-8" standalone="no"?>
<!DOCTYPE svg PUBLIC "-//W3C//DTD SVG 1.1//EN"
 "http://www.w3.org/Graphics/SVG/1.1/DTD/svg11.dtd">
<!-- Generated by graphviz version 2.40.1 (20161225.0304)
 -->
<!-- Title: a_graph Pages: 1 -->
<svg width="3912pt" height="119pt"
 viewBox="0.00 0.00 3912.00 119.00" xmlns="http://www.w3.org/2000/svg" xmlns:xlink="http://www.w3.org/1999/xlink">
<g id="graph0" class="graph" transform="scale(1 1) rotate(0) translate(4 115)">
<title>a_graph</title>
<polygon fill="#ffffff" stroke="transparent" points="-4,4 -4,-115 3908,-115 3908,4 -4,4"/>
<!-- T8791 -->
<g id="node1" class="node">
<title>T8791</title>
<polygon fill="none" stroke="#0058ad" points="0,-81.5 0,-110.5 3904,-110.5 3904,-81.5 0,-81.5"/>
<text text-anchor="middle" x="947.5" y="-92.3" font-family="Times,serif" font-size="14.00" fill="#0058ad">r 45 [1 2 5 7 8 9 10 11 12 13 14 19 15 20 21 22 23 25 24 26 27 28 30 31 29 16 37 38 39 35 46 47 50 48 49 51 53 54 55 52 56 57 58 59 60 61 62 63 64 65 66 67 68 69 70 71 72 73 74 75 76 78 77 80 79 81 82 83 84 85 86 87 88 89 90 92 93 94 91 95 96 97 98 104 105 108 106 110 102 111 112 113 115 116 114 117 119 120 121 118 122 123]</text>
<polyline fill="none" stroke="#0058ad" points="1895,-81.5 1895,-110.5 "/>
<text text-anchor="middle" x="1923.5" y="-92.3" font-family="Times,serif" font-size="14.00" fill="#0058ad">a 48 64</text>
<polyline fill="none" stroke="#0058ad" points="1952,-81.5 1952,-110.5 "/>
<text text-anchor="middle" x="1980.5" y="-92.3" font-family="Times,serif" font-size="14.00" fill="#0058ad">a 48 65</text>
<polyline fill="none" stroke="#0058ad" points="2009,-81.5 2009,-110.5 "/>
<text text-anchor="middle" x="2956.5" y="-92.3" font-family="Times,serif" font-size="14.00" fill="#0058ad">r 45 [1 2 5 7 8 9 10 11 12 13 14 19 15 20 21 22 23 25 24 26 27 28 30 31 29 16 37 38 39 35 46 47 50 48 49 51 53 54 55 52 56 57 58 59 60 61 62 63 64 65 66 67 68 69 70 71 72 73 74 75 76 78 77 80 79 81 82 83 84 85 86 87 88 89 90 92 93 94 91 95 96 97 98 104 105 108 106 110 102 111 112 113 115 116 114 117 119 120 121 118 122 123]</text>
</g>
<!-- T8789 -->
<g id="node2" class="node">
<title>T8789</title>
<polygon fill="none" stroke="#0058ad" points="1207.5,-.5 1207.5,-29.5 3250.5,-29.5 3250.5,-.5 1207.5,-.5"/>
<text text-anchor="middle" x="1239.5" y="-11.3" font-family="Times,serif" font-size="14.00" fill="#0058ad">a 45 124</text>
<polyline fill="none" stroke="#0058ad" points="1271.5,-.5 1271.5,-29.5 "/>
<text text-anchor="middle" x="1748" y="-11.3" font-family="Times,serif" font-size="14.00" fill="#0058ad">r 48 [1 2 3 4 5 6 7 8 9 10 11 12 13 14 15 16 17 19 20 21 23 24 25 26 27 31 32 30 33 36 37 38 39 40 41 22 43 44 45 46 47 49 50 51 48 54 55 42 56 57 52 53 58 60 61 62]</text>
<polyline fill="none" stroke="#0058ad" points="2224.5,-.5 2224.5,-29.5 "/>
<text text-anchor="middle" x="2737.5" y="-11.3" font-family="Times,serif" font-size="14.00" fill="#0058ad">r 37 [2 3 4 5 6 7 8 9 10 11 12 13 14 15 67 68 70 73 74 75 76 79 80 82 83 84 85 86 88 89 90 91 92 93 95 96 97 98 99 100 101 102 103 104 106 107 109 110 111 112 113 114 115 116]</text>
</g>
<!-- T8791&#45;&gt;T8789 -->
<g id="edge1" class="edge">
<title>T8791:f0&#45;&gt;T8789:f0</title>
<path fill="none" stroke="#5b00c0" d="M947,-81C947,-24.4168 1127.5544,-15.7862 1196.8743,-15.0556"/>
<polygon fill="#5b00c0" stroke="#5b00c0" points="1197.0194,-18.5549 1207,-15 1196.9809,-11.555 1197.0194,-18.5549"/>
<text text-anchor="middle" x="980.5" y="-51.8" font-family="Times,serif" font-size="14.00" fill="#5b00c0">rw</text>
</g>
<!-- T8789&#45;&gt;T8791 -->
<g id="edge2" class="edge">
<title>T8789:f1&#45;&gt;T8791:f1</title>
<path fill="none" stroke="#5b00c0" d="M1748,-30C1748,-107.2158 1906.9783,-9.9735 1921.8825,-70.8338"/>
<polygon fill="#5b00c0" stroke="#5b00c0" points="1918.4282,-71.4423 1923,-81 1925.3863,-70.6774 1918.4282,-71.4423"/>
<text text-anchor="middle" x="1925.5" y="-51.8" font-family="Times,serif" font-size="14.00" fill="#5b00c0">rw</text>
</g>
</g>
</svg>
