<?xml version="1.0" encoding="UTF-8" standalone="no"?>
<!DOCTYPE svg PUBLIC "-//W3C//DTD SVG 1.1//EN"
 "http://www.w3.org/Graphics/SVG/1.1/DTD/svg11.dtd">
<!-- Generated by graphviz version 2.40.1 (20161225.0304)
 -->
<!-- Title: a_graph Pages: 1 -->
<svg width="3070pt" height="119pt"
 viewBox="0.00 0.00 3070.00 119.00" xmlns="http://www.w3.org/2000/svg" xmlns:xlink="http://www.w3.org/1999/xlink">
<g id="graph0" class="graph" transform="scale(1 1) rotate(0) translate(4 115)">
<title>a_graph</title>
<polygon fill="#ffffff" stroke="transparent" points="-4,4 -4,-115 3066,-115 3066,4 -4,4"/>
<!-- T17993 -->
<g id="node1" class="node">
<title>T17993</title>
<polygon fill="none" stroke="#0058ad" points="337,-81.5 337,-110.5 1055,-110.5 1055,-81.5 337,-81.5"/>
<text text-anchor="middle" x="369" y="-92.3" font-family="Times,serif" font-size="14.00" fill="#0058ad">a 91 110</text>
<polyline fill="none" stroke="#0058ad" points="401,-81.5 401,-110.5 "/>
<text text-anchor="middle" x="433" y="-92.3" font-family="Times,serif" font-size="14.00" fill="#0058ad">a 91 111</text>
<polyline fill="none" stroke="#0058ad" points="465,-81.5 465,-110.5 "/>
<text text-anchor="middle" x="760" y="-92.3" font-family="Times,serif" font-size="14.00" fill="#0058ad">r 92 [1 2 3 4 5 6 7 8 9 10 11 12 13 14 15 16 17 18 19 20 23 24 25 26 27 28 29 30 31 32 33 35 36 37 38]</text>
</g>
<!-- T17989 -->
<g id="node2" class="node">
<title>T17989</title>
<polygon fill="none" stroke="#0058ad" points="0,-.5 0,-29.5 3062,-29.5 3062,-.5 0,-.5"/>
<text text-anchor="middle" x="28.5" y="-11.3" font-family="Times,serif" font-size="14.00" fill="#0058ad">a 92 34</text>
<polyline fill="none" stroke="#0058ad" points="57,-.5 57,-29.5 "/>
<text text-anchor="middle" x="926" y="-11.3" font-family="Times,serif" font-size="14.00" fill="#0058ad">r 91 [1 2 3 4 7 8 9 10 11 12 13 14 15 16 17 18 19 20 21 22 23 24 25 26 27 28 29 32 33 34 35 36 37 38 39 40 41 42 43 45 44 47 48 49 50 51 52 53 54 55 56 57 58 59 60 61 64 65 66 67 68 69 70 71 73 74 75 76 77 78 79 80 81 82 83 84 85 86 87 88 89 90 91 92 93 94 95 96 97 98 99 102 103 105 106 107 108 109]</text>
<polyline fill="none" stroke="#0058ad" points="1795,-.5 1795,-29.5 "/>
<text text-anchor="middle" x="1827" y="-11.3" font-family="Times,serif" font-size="14.00" fill="#0058ad">a 86 124</text>
<polyline fill="none" stroke="#0058ad" points="1859,-.5 1859,-29.5 "/>
<text text-anchor="middle" x="2460.5" y="-11.3" font-family="Times,serif" font-size="14.00" fill="#0058ad">r 70 [10 11 12 13 15 16 17 18 19 20 21 22 23 24 25 26 27 29 30 31 32 33 34 35 36 37 38 39 40 41 42 43 44 45 46 47 48 49 50 51 53 54 55 56 57 58 59 60 61 62 63 64 65 66 67 68 69 70 71 72 73 74 75 76 77 78 79]</text>
</g>
<!-- T17993&#45;&gt;T17989 -->
<g id="edge1" class="edge">
<title>T17993:f2&#45;&gt;T17989:f0</title>
<path fill="none" stroke="#5b00c0" d="M760,-81C760,45.63 603.2443,-57.8767 477,-48 465.6495,-47.112 101.4622,-43.2534 37.5325,-33.1102"/>
<polygon fill="#5b00c0" stroke="#5b00c0" points="38.5924,-29.7745 28,-30 36.4211,-36.4293 38.5924,-29.7745"/>
<text text-anchor="middle" x="765.5" y="-51.8" font-family="Times,serif" font-size="14.00" fill="#5b00c0">rw</text>
</g>
<!-- T17989&#45;&gt;T17993 -->
<g id="edge2" class="edge">
<title>T17989:f1&#45;&gt;T17993:f0</title>
<path fill="none" stroke="#5b00c0" d="M926,-30C926,-56.0192 483.5172,-42.9135 458,-48 420.344,-55.5062 377.5075,-41.7383 370.1142,-71.0112"/>
<polygon fill="#5b00c0" stroke="#5b00c0" points="366.6303,-70.6736 369,-81 373.5871,-71.4497 366.6303,-70.6736"/>
<text text-anchor="middle" x="465.5" y="-51.8" font-family="Times,serif" font-size="14.00" fill="#5b00c0">rw</text>
</g>
</g>
</svg>
