<?xml version="1.0" encoding="UTF-8" standalone="no"?>
<!DOCTYPE svg PUBLIC "-//W3C//DTD SVG 1.1//EN"
 "http://www.w3.org/Graphics/SVG/1.1/DTD/svg11.dtd">
<!-- Generated by graphviz version 2.40.1 (20161225.0304)
 -->
<!-- Title: a_graph Pages: 1 -->
<svg width="2181pt" height="119pt"
 viewBox="0.00 0.00 2181.00 119.00" xmlns="http://www.w3.org/2000/svg" xmlns:xlink="http://www.w3.org/1999/xlink">
<g id="graph0" class="graph" transform="scale(1 1) rotate(0) translate(4 115)">
<title>a_graph</title>
<polygon fill="#ffffff" stroke="transparent" points="-4,4 -4,-115 2177,-115 2177,4 -4,4"/>
<!-- T11322 -->
<g id="node1" class="node">
<title>T11322</title>
<polygon fill="none" stroke="#0058ad" points="0,-81.5 0,-110.5 2173,-110.5 2173,-81.5 0,-81.5"/>
<text text-anchor="middle" x="32" y="-92.3" font-family="Times,serif" font-size="14.00" fill="#0058ad">a 51 108</text>
<polyline fill="none" stroke="#0058ad" points="64,-81.5 64,-110.5 "/>
<text text-anchor="middle" x="1058" y="-92.3" font-family="Times,serif" font-size="14.00" fill="#0058ad">r 57 [1 2 3 4 5 6 9 7 8 11 10 12 13 18 14 19 21 22 23 24 25 26 27 28 29 31 32 33 34 35 36 37 38 39 40 41 42 43 47 46 49 48 51 50 52 53 54 55 57 56 58 59 60 61 62 66 67 68 69 63 64 71 72 73 74 75 76 77 79 80 78 70 81 82 84 85 83 86 87 88 89 91 90 92 93 94 95 96 99 100 101 98 102 97 104 103 105 109 110 111 113 114 106 107 108 116 115 118 122]</text>
<polyline fill="none" stroke="#0058ad" points="2052,-81.5 2052,-110.5 "/>
<text text-anchor="middle" x="2084" y="-92.3" font-family="Times,serif" font-size="14.00" fill="#0058ad">a 54 110</text>
<polyline fill="none" stroke="#0058ad" points="2116,-81.5 2116,-110.5 "/>
<text text-anchor="middle" x="2144.5" y="-92.3" font-family="Times,serif" font-size="14.00" fill="#0058ad">a 59 53</text>
</g>
<!-- T11321 -->
<g id="node2" class="node">
<title>T11321</title>
<polygon fill="none" stroke="#0058ad" points="192,-.5 192,-29.5 2073,-29.5 2073,-.5 192,-.5"/>
<text text-anchor="middle" x="1100.5" y="-11.3" font-family="Times,serif" font-size="14.00" fill="#0058ad">r 54 [1 2 5 3 4 6 7 8 10 9 11 12 13 14 15 16 17 18 19 20 21 22 23 24 25 29 26 30 31 32 33 34 35 36 37 39 38 41 42 43 44 45 46 47 48 49 50 51 52 53 54 55 56 57 58 59 60 61 62 63 64 65 66 67 69 70 71 72 73 74 75 76 77 78 79 80 81 82 83 84 85 86 87 88 89 90 93 91 92 94 95 96 97 98 99 100 101 102 105 106 107 108 109]</text>
<polyline fill="none" stroke="#0058ad" points="2009,-.5 2009,-29.5 "/>
<text text-anchor="middle" x="2041" y="-11.3" font-family="Times,serif" font-size="14.00" fill="#0058ad">a 57 123</text>
</g>
<!-- T11322&#45;&gt;T11321 -->
<g id="edge1" class="edge">
<title>T11322:f1&#45;&gt;T11321:f1</title>
<path fill="none" stroke="#5b00c0" d="M1057.5,-81C1057.5,-68.1168 1929.5658,-46.42 2031.761,-32.504"/>
<polygon fill="#5b00c0" stroke="#5b00c0" points="2032.6866,-35.8799 2041.5,-30 2030.9434,-29.1004 2032.6866,-35.8799"/>
<text text-anchor="middle" x="1730" y="-51.8" font-family="Times,serif" font-size="14.00" fill="#5b00c0">rw</text>
</g>
<!-- T11321&#45;&gt;T11322 -->
<g id="edge2" class="edge">
<title>T11321:f0&#45;&gt;T11322:f2</title>
<path fill="none" stroke="#5b00c0" d="M1100.5,-30C1100.5,-47.8126 1723.7216,-46.8964 1741.5,-48 1890.7716,-57.2659 2075.6074,66.1481 2084.1896,-70.6923"/>
<polygon fill="#5b00c0" stroke="#5b00c0" points="2080.7005,-71.1099 2084.5,-81 2087.6973,-70.8991 2080.7005,-71.1099"/>
<text text-anchor="middle" x="2089" y="-51.8" font-family="Times,serif" font-size="14.00" fill="#5b00c0">rw</text>
</g>
</g>
</svg>
