<?xml version="1.0" encoding="UTF-8" standalone="no"?>
<!DOCTYPE svg PUBLIC "-//W3C//DTD SVG 1.1//EN"
 "http://www.w3.org/Graphics/SVG/1.1/DTD/svg11.dtd">
<!-- Generated by graphviz version 2.40.1 (20161225.0304)
 -->
<!-- Title: a_graph Pages: 1 -->
<svg width="3824pt" height="200pt"
 viewBox="0.00 0.00 3824.00 200.00" xmlns="http://www.w3.org/2000/svg" xmlns:xlink="http://www.w3.org/1999/xlink">
<g id="graph0" class="graph" transform="scale(1 1) rotate(0) translate(4 196)">
<title>a_graph</title>
<polygon fill="#ffffff" stroke="transparent" points="-4,4 -4,-196 3820,-196 3820,4 -4,4"/>
<!-- T8541 -->
<g id="node1" class="node">
<title>T8541</title>
<polygon fill="none" stroke="#0058ad" points="2829,-162.5 2829,-191.5 2893,-191.5 2893,-162.5 2829,-162.5"/>
<text text-anchor="middle" x="2861" y="-173.3" font-family="Times,serif" font-size="14.00" fill="#0058ad">a 47 116</text>
</g>
<!-- T8543 -->
<g id="node3" class="node">
<title>T8543</title>
<polygon fill="none" stroke="#0058ad" points="678,-81.5 678,-110.5 3142,-110.5 3142,-81.5 678,-81.5"/>
<text text-anchor="middle" x="1294" y="-92.3" font-family="Times,serif" font-size="14.00" fill="#0058ad">r 45 [1 2 5 7 8 9 10 11 12 13 14 19 15 20 21 22 23 25 24 26 27 28 30 31 29 16 37 38 39 35 46 47 50 48 49 51 53 54 55 52 56 57 58 59 60 61 62 63 64 65 66 67 68 69 70 71 72 73 74 75 76 78 77 80 79 81 82 83 84 85 86]</text>
<polyline fill="none" stroke="#0058ad" points="1910,-81.5 1910,-110.5 "/>
<text text-anchor="middle" x="2526" y="-92.3" font-family="Times,serif" font-size="14.00" fill="#0058ad">r 45 [1 2 5 7 8 9 10 11 12 13 14 19 15 20 21 22 23 25 24 26 27 28 30 31 29 16 37 38 39 35 46 47 50 48 49 51 53 54 55 52 56 57 58 59 60 61 62 63 64 65 66 67 68 69 70 71 72 73 74 75 76 78 77 80 79 81 82 83 84 85 86]</text>
</g>
<!-- T8541&#45;&gt;T8543 -->
<g id="edge1" class="edge">
<title>T8541&#45;&gt;T8543</title>
<path fill="none" stroke="#0050c0" d="M2828.8136,-174.2586C2714.7029,-164.5394 2323.821,-131.2466 2090.2448,-111.3521"/>
<polygon fill="#0050c0" stroke="#0050c0" points="2090.5395,-107.8646 2080.2785,-110.5032 2089.9454,-114.8393 2090.5395,-107.8646"/>
<text text-anchor="middle" x="2475.5" y="-132.8" font-family="Times,serif" font-size="14.00" fill="#0050c0">rt</text>
</g>
<!-- T8545 -->
<g id="node2" class="node">
<title>T8545</title>
<polygon fill="none" stroke="#0058ad" points="0,-.5 0,-29.5 3816,-29.5 3816,-.5 0,-.5"/>
<text text-anchor="middle" x="381" y="-11.3" font-family="Times,serif" font-size="14.00" fill="#0058ad">r 37 [2 3 4 5 6 7 8 9 10 11 12 13 14 15 67 68 70 73 74 75 76 79 80 82 83 84 85 86 88 89 90 91 92 93 95 96 97 98 99 100 101 102 103]</text>
<polyline fill="none" stroke="#0058ad" points="762,-.5 762,-29.5 "/>
<text text-anchor="middle" x="1378" y="-11.3" font-family="Times,serif" font-size="14.00" fill="#0058ad">r 45 [1 2 5 7 8 9 10 11 12 13 14 19 15 20 21 22 23 25 24 26 27 28 30 31 29 16 37 38 39 35 46 47 50 48 49 51 53 54 55 52 56 57 58 59 60 61 62 63 64 65 66 67 68 69 70 71 72 73 74 75 76 78 77 80 79 81 82 83 84 85 86]</text>
<polyline fill="none" stroke="#0058ad" points="1994,-.5 1994,-29.5 "/>
<text text-anchor="middle" x="2022.5" y="-11.3" font-family="Times,serif" font-size="14.00" fill="#0058ad">a 45 87</text>
<polyline fill="none" stroke="#0058ad" points="2051,-.5 2051,-29.5 "/>
<text text-anchor="middle" x="2933.5" y="-11.3" font-family="Times,serif" font-size="14.00" fill="#0058ad">r 47 [1 2 3 4 5 6 8 9 7 10 12 13 11 14 15 17 27 26 28 29 31 32 33 30 34 36 37 35 39 40 42 43 41 44 45 38 46 47 48 53 55 57 60 61 58 59 56 62 63 64 65 66 67 68 69 71 72 73 74 75 76 70 77 78 79 81 82 80 84 85 86 83 88 89 90 91 87 92 93 94 95 96 97 98 100 101 102 103 99 104 105 107 106 109 108 110 111 112]</text>
</g>
<!-- T8545&#45;&gt;T8541 -->
<g id="edge2" class="edge">
<title>T8545:f3&#45;&gt;T8541:f0</title>
<path fill="none" stroke="#5b00c0" d="M2934,-30C2934,-129.0722 3089.479,-3.3439 3151,-81 3159.2796,-91.4511 3159.4647,-100.6982 3151,-111 3078.9688,-198.6638 3008.3333,-129.8868 2901.3793,-159.5149"/>
<polygon fill="#5b00c0" stroke="#5b00c0" points="2900.1539,-156.2289 2891.595,-162.4735 2902.18,-162.9292 2900.1539,-156.2289"/>
<text text-anchor="middle" x="3164.5" y="-92.3" font-family="Times,serif" font-size="14.00" fill="#5b00c0">rw</text>
</g>
<!-- T8543&#45;&gt;T8545 -->
<g id="edge3" class="edge">
<title>T8543:f0&#45;&gt;T8545:f2</title>
<path fill="none" stroke="#5b00c0" d="M1294,-81C1294,77.7484 1990.6197,-180.3168 2021.9132,-40.2924"/>
<polygon fill="#5b00c0" stroke="#5b00c0" points="2025.4305,-40.3123 2023,-30 2018.4692,-39.5772 2025.4305,-40.3123"/>
<text text-anchor="middle" x="2023.5" y="-51.8" font-family="Times,serif" font-size="14.00" fill="#5b00c0">rw</text>
</g>
</g>
</svg>
