<?xml version="1.0" encoding="UTF-8" standalone="no"?>
<!DOCTYPE svg PUBLIC "-//W3C//DTD SVG 1.1//EN"
 "http://www.w3.org/Graphics/SVG/1.1/DTD/svg11.dtd">
<!-- Generated by graphviz version 2.40.1 (20161225.0304)
 -->
<!-- Title: a_graph Pages: 1 -->
<svg width="6073pt" height="200pt"
 viewBox="0.00 0.00 6072.50 200.00" xmlns="http://www.w3.org/2000/svg" xmlns:xlink="http://www.w3.org/1999/xlink">
<g id="graph0" class="graph" transform="scale(1 1) rotate(0) translate(4 196)">
<title>a_graph</title>
<polygon fill="#ffffff" stroke="transparent" points="-4,4 -4,-196 6068.5,-196 6068.5,4 -4,4"/>
<!-- T11611 -->
<g id="node1" class="node">
<title>T11611</title>
<polygon fill="none" stroke="#0058ad" points="2995.5,-162.5 2995.5,-191.5 6064.5,-191.5 6064.5,-162.5 2995.5,-162.5"/>
<text text-anchor="middle" x="3368.5" y="-173.3" font-family="Times,serif" font-size="14.00" fill="#0058ad">r 60 [1 2 3 4 5 6 7 8 9 10 11 12 13 14 16 17 15 18 20 22 24 25 26 27 28 29 21 30 32 31 33 34 36 35 37 38 39 40 41 42 43 44 45 46]</text>
<polyline fill="none" stroke="#0058ad" points="3741.5,-162.5 3741.5,-191.5 "/>
<text text-anchor="middle" x="3847" y="-173.3" font-family="Times,serif" font-size="14.00" fill="#0058ad">r 62 [1 2 3 4 5 6 7 8 9 10 11 12 13]</text>
<polyline fill="none" stroke="#0058ad" points="3952.5,-162.5 3952.5,-191.5 "/>
<text text-anchor="middle" x="4964" y="-173.3" font-family="Times,serif" font-size="14.00" fill="#0058ad">r 51 [2 3 4 5 6 7 8 9 10 11 12 13 14 15 16 17 19 18 21 20 22 24 23 25 28 29 30 31 33 34 35 36 38 37 39 40 41 42 43 45 46 44 48 47 49 50 51 52 53 54 55 56 57 58 59 60 61 62 63 64 65 66 67 68 70 71 72 73 74 75 76 77 78 79 80 81 82 83 84 85 86 87 88 89 90 91 92 93 94 95 96 97 98 99 100 102 103 104 106 107 108 109 110 111 112 113 115 116 117 118 119]</text>
<polyline fill="none" stroke="#0058ad" points="5975.5,-162.5 5975.5,-191.5 "/>
<text text-anchor="middle" x="6020" y="-173.3" font-family="Times,serif" font-size="14.00" fill="#0058ad">r 61 [1 2 3 4]</text>
</g>
<!-- T11609 -->
<g id="node2" class="node">
<title>T11609</title>
<polygon fill="none" stroke="#0058ad" points="0,-81.5 0,-110.5 3416,-110.5 3416,-81.5 0,-81.5"/>
<text text-anchor="middle" x="1011.5" y="-92.3" font-family="Times,serif" font-size="14.00" fill="#0058ad">r 51 [2 3 4 5 6 7 8 9 10 11 12 13 14 15 16 17 19 18 21 20 22 24 23 25 28 29 30 31 33 34 35 36 38 37 39 40 41 42 43 45 46 44 48 47 49 50 51 52 53 54 55 56 57 58 59 60 61 62 63 64 65 66 67 68 70 71 72 73 74 75 76 77 78 79 80 81 82 83 84 85 86 87 88 89 90 91 92 93 94 95 96 97 98 99 100 102 103 104 106 107 108 109 110 111 112 113 115 116 117 118 119]</text>
<polyline fill="none" stroke="#0058ad" points="2023,-81.5 2023,-110.5 "/>
<text text-anchor="middle" x="2120" y="-92.3" font-family="Times,serif" font-size="14.00" fill="#0058ad">r 62 [1 2 3 4 5 6 7 8 9 10 11 12]</text>
<polyline fill="none" stroke="#0058ad" points="2217,-81.5 2217,-110.5 "/>
<text text-anchor="middle" x="2788" y="-92.3" font-family="Times,serif" font-size="14.00" fill="#0058ad">r 4 [2 3 4 6 7 23 25 26 27 28 29 30 31 32 33 34 35 36 37 38 39 40 41 42 43 44 45 46 47 48 49 50 52 53 68 70 71 72 73 74 75 76 77 78 79 80 81 82 83 84 85 86 87 88 90 91 92 93 94 95 96 97 98 100 101]</text>
<polyline fill="none" stroke="#0058ad" points="3359,-81.5 3359,-110.5 "/>
<text text-anchor="middle" x="3387.5" y="-92.3" font-family="Times,serif" font-size="14.00" fill="#0058ad">a 60 47</text>
</g>
<!-- T11611&#45;&gt;T11609 -->
<g id="edge1" class="edge">
<title>T11611:f0&#45;&gt;T11609:f3</title>
<path fill="none" stroke="#5b00c0" d="M3368,-162C3368,-141.457 3382.2383,-136.6059 3386.6877,-120.9666"/>
<polygon fill="#5b00c0" stroke="#5b00c0" points="3390.1646,-121.3713 3388,-111 3383.2245,-120.4575 3390.1646,-121.3713"/>
<text text-anchor="middle" x="3390.5" y="-132.8" font-family="Times,serif" font-size="14.00" fill="#5b00c0">rw</text>
</g>
<!-- T11605 -->
<g id="node3" class="node">
<title>T11605</title>
<polygon fill="none" stroke="#0058ad" points="3015.5,-.5 3015.5,-29.5 3818.5,-29.5 3818.5,-.5 3015.5,-.5"/>
<text text-anchor="middle" x="3388.5" y="-11.3" font-family="Times,serif" font-size="14.00" fill="#0058ad">r 60 [1 2 3 4 5 6 7 8 9 10 11 12 13 14 16 17 15 18 20 22 24 25 26 27 28 29 21 30 32 31 33 34 36 35 37 38 39 40 41 42 43 44 45 46]</text>
<polyline fill="none" stroke="#0058ad" points="3761.5,-.5 3761.5,-29.5 "/>
<text text-anchor="middle" x="3790" y="-11.3" font-family="Times,serif" font-size="14.00" fill="#0058ad">a 62 13</text>
</g>
<!-- T11609&#45;&gt;T11605 -->
<g id="edge2" class="edge">
<title>T11609:f1&#45;&gt;T11605:f1</title>
<path fill="none" stroke="#5b00c0" d="M2120,-81C2120,-69.9299 3640.2174,-44.12 3779.7686,-31.6968"/>
<polygon fill="#5b00c0" stroke="#5b00c0" points="3780.7074,-35.089 3790,-30 3779.5621,-28.1833 3780.7074,-35.089"/>
<text text-anchor="middle" x="3256.5" y="-51.8" font-family="Times,serif" font-size="14.00" fill="#5b00c0">rw</text>
</g>
<!-- T11605&#45;&gt;T11611 -->
<g id="edge4" class="edge">
<title>T11605:f1&#45;&gt;T11611:f1</title>
<path fill="none" stroke="#c000a5" d="M3819,-15C3882.1306,-15 3850.6402,-87.5246 3847.2791,-151.7721"/>
<polygon fill="#c000a5" stroke="#c000a5" points="3843.7742,-151.9082 3847,-162 3850.7716,-152.0992 3843.7742,-151.9082"/>
<text text-anchor="middle" x="3863.5" y="-92.3" font-family="Times,serif" font-size="14.00" fill="#c000a5">wr</text>
</g>
<!-- T11605&#45;&gt;T11609 -->
<g id="edge3" class="edge">
<title>T11605:f0&#45;&gt;T11609:f3</title>
<path fill="none" stroke="#5b00c0" d="M3388,-30C3388,-48.7708 3388,-55.8832 3388,-70.6465"/>
<polygon fill="#5b00c0" stroke="#5b00c0" points="3384.5001,-71 3388,-81 3391.5001,-71 3384.5001,-71"/>
<text text-anchor="middle" x="3395.5" y="-51.8" font-family="Times,serif" font-size="14.00" fill="#5b00c0">rw</text>
</g>
</g>
</svg>
