<?xml version="1.0" encoding="UTF-8" standalone="no"?>
<!DOCTYPE svg PUBLIC "-//W3C//DTD SVG 1.1//EN"
 "http://www.w3.org/Graphics/SVG/1.1/DTD/svg11.dtd">
<!-- Generated by graphviz version 2.40.1 (20161225.0304)
 -->
<!-- Title: a_graph Pages: 1 -->
<svg width="2688pt" height="119pt"
 viewBox="0.00 0.00 2688.00 119.00" xmlns="http://www.w3.org/2000/svg" xmlns:xlink="http://www.w3.org/1999/xlink">
<g id="graph0" class="graph" transform="scale(1 1) rotate(0) translate(4 115)">
<title>a_graph</title>
<polygon fill="#ffffff" stroke="transparent" points="-4,4 -4,-115 2684,-115 2684,4 -4,4"/>
<!-- T539 -->
<g id="node1" class="node">
<title>T539</title>
<polygon fill="none" stroke="#0058ad" points="0,-81.5 0,-110.5 2680,-110.5 2680,-81.5 0,-81.5"/>
<text text-anchor="middle" x="641.5" y="-92.3" font-family="Times,serif" font-size="14.00" fill="#0058ad">r 8 [4 7 6 8 9 10 11 12 13 14 15 16 17 18 19 20 21 22 23 24 25 26 27 28 29 31 32 33 34 30 35 36 38 37 39 40 41 42 43 44 45 46 47 48 49 50 51 52 53 55 58 57 59 60 61 62 63 64 65 66 67 68 69 70 71 72 73 74 75 76 77 78 79 80]</text>
<polyline fill="none" stroke="#0058ad" points="1283,-81.5 1283,-110.5 "/>
<text text-anchor="middle" x="1924.5" y="-92.3" font-family="Times,serif" font-size="14.00" fill="#0058ad">r 8 [4 7 6 8 9 10 11 12 13 14 15 16 17 18 19 20 21 22 23 24 25 26 27 28 29 31 32 33 34 30 35 36 38 37 39 40 41 42 43 44 45 46 47 48 49 50 51 52 53 55 58 57 59 60 61 62 63 64 65 66 67 68 69 70 71 72 73 74 75 76 77 78 79 80]</text>
<polyline fill="none" stroke="#0058ad" points="2566,-81.5 2566,-110.5 "/>
<text text-anchor="middle" x="2594.5" y="-92.3" font-family="Times,serif" font-size="14.00" fill="#0058ad">a 10 21</text>
<polyline fill="none" stroke="#0058ad" points="2623,-81.5 2623,-110.5 "/>
<text text-anchor="middle" x="2651.5" y="-92.3" font-family="Times,serif" font-size="14.00" fill="#0058ad">a 10 22</text>
</g>
<!-- T537 -->
<g id="node2" class="node">
<title>T537</title>
<polygon fill="none" stroke="#0058ad" points="1194.5,-.5 1194.5,-29.5 1901.5,-29.5 1901.5,-.5 1194.5,-.5"/>
<text text-anchor="middle" x="1360.5" y="-11.3" font-family="Times,serif" font-size="14.00" fill="#0058ad">r 10 [1 2 3 5 4 6 7 9 8 10 11 12 13 14 15 16 17 18 19 20]</text>
<polyline fill="none" stroke="#0058ad" points="1526.5,-.5 1526.5,-29.5 "/>
<text text-anchor="middle" x="1689" y="-11.3" font-family="Times,serif" font-size="14.00" fill="#0058ad">r 6 [1 2 3 4 5 6 7 8 9 12 13 14 15 16 17 18 19 20 21 22]</text>
<polyline fill="none" stroke="#0058ad" points="1851.5,-.5 1851.5,-29.5 "/>
<text text-anchor="middle" x="1876.5" y="-11.3" font-family="Times,serif" font-size="14.00" fill="#0058ad">a 8 81</text>
</g>
<!-- T539&#45;&gt;T537 -->
<g id="edge1" class="edge">
<title>T539:f0&#45;&gt;T537:f2</title>
<path fill="none" stroke="#5b00c0" d="M641,-81C641,52.9602 1815.0312,-156.3132 1874.65,-39.7828"/>
<polygon fill="#5b00c0" stroke="#5b00c0" points="1878.0674,-40.5409 1877,-30 1871.261,-38.9059 1878.0674,-40.5409"/>
<text text-anchor="middle" x="1871.5" y="-51.8" font-family="Times,serif" font-size="14.00" fill="#5b00c0">rw</text>
</g>
<!-- T537&#45;&gt;T539 -->
<g id="edge2" class="edge">
<title>T537:f0&#45;&gt;T539:f2</title>
<path fill="none" stroke="#5b00c0" d="M1360,-30C1360,-44.5364 1868.4755,-47.4135 1883,-48 2037.7084,-54.2473 2570.3246,71.5418 2594.1727,-70.7614"/>
<polygon fill="#5b00c0" stroke="#5b00c0" points="2590.7059,-71.3144 2595,-81 2597.6831,-70.7506 2590.7059,-71.3144"/>
<text text-anchor="middle" x="2596.5" y="-51.8" font-family="Times,serif" font-size="14.00" fill="#5b00c0">rw</text>
</g>
</g>
</svg>
