<?xml version="1.0" encoding="UTF-8" standalone="no"?>
<!DOCTYPE svg PUBLIC "-//W3C//DTD SVG 1.1//EN"
 "http://www.w3.org/Graphics/SVG/1.1/DTD/svg11.dtd">
<!-- Generated by graphviz version 2.40.1 (20161225.0304)
 -->
<!-- Title: a_graph Pages: 1 -->
<svg width="1313pt" height="281pt"
 viewBox="0.00 0.00 1313.00 281.00" xmlns="http://www.w3.org/2000/svg" xmlns:xlink="http://www.w3.org/1999/xlink">
<g id="graph0" class="graph" transform="scale(1 1) rotate(0) translate(4 277)">
<title>a_graph</title>
<polygon fill="#ffffff" stroke="transparent" points="-4,4 -4,-277 1309,-277 1309,4 -4,4"/>
<!-- T5013 -->
<g id="node1" class="node">
<title>T5013</title>
<polygon fill="none" stroke="#0058ad" points="674.5,-243.5 674.5,-272.5 1295.5,-272.5 1295.5,-243.5 674.5,-243.5"/>
<text text-anchor="middle" x="985" y="-254.3" font-family="Times,serif" font-size="14.00" fill="#0058ad">r 31 [1 3 4 5 6 8 9 10 11 12 13 14 15 16 17 18 19 20 21 22 23 24 25 26 27 28 29 30 31 32 33 34 35 36 37 38]</text>
</g>
<!-- T5015 -->
<g id="node4" class="node">
<title>T5015</title>
<polygon fill="none" stroke="#0058ad" points="234.5,-162.5 234.5,-191.5 865.5,-191.5 865.5,-162.5 234.5,-162.5"/>
<text text-anchor="middle" x="263" y="-173.3" font-family="Times,serif" font-size="14.00" fill="#0058ad">a 31 39</text>
<polyline fill="none" stroke="#0058ad" points="291.5,-162.5 291.5,-191.5 "/>
<text text-anchor="middle" x="435" y="-173.3" font-family="Times,serif" font-size="14.00" fill="#0058ad">r 30 [1 2 3 5 6 7 8 9 10 11 12 13 14 15 16 17 18]</text>
<polyline fill="none" stroke="#0058ad" points="578.5,-162.5 578.5,-191.5 "/>
<text text-anchor="middle" x="722" y="-173.3" font-family="Times,serif" font-size="14.00" fill="#0058ad">r 30 [1 2 3 5 6 7 8 9 10 11 12 13 14 15 16 17 18]</text>
</g>
<!-- T5013&#45;&gt;T5015 -->
<g id="edge1" class="edge">
<title>T5013:f0&#45;&gt;T5015:f0</title>
<path fill="none" stroke="#5b00c0" d="M771.3067,-243.484C580.4449,-229.861 323.2743,-209.6398 272.0771,-196.318"/>
<polygon fill="#5b00c0" stroke="#5b00c0" points="273.5339,-193.1352 263,-192 270.5268,-199.4564 273.5339,-193.1352"/>
<text text-anchor="middle" x="525.5" y="-213.8" font-family="Times,serif" font-size="14.00" fill="#5b00c0">rw</text>
</g>
<!-- T5009 -->
<g id="node2" class="node">
<title>T5009</title>
<polygon fill="none" stroke="#0058ad" points="0,-81.5 0,-110.5 1272,-110.5 1272,-81.5 0,-81.5"/>
<text text-anchor="middle" x="28.5" y="-92.3" font-family="Times,serif" font-size="14.00" fill="#0058ad">a 30 19</text>
<polyline fill="none" stroke="#0058ad" points="57,-81.5 57,-110.5 "/>
<text text-anchor="middle" x="82" y="-92.3" font-family="Times,serif" font-size="14.00" fill="#0058ad">a 3 19</text>
<polyline fill="none" stroke="#0058ad" points="107,-81.5 107,-110.5 "/>
<text text-anchor="middle" x="661" y="-92.3" font-family="Times,serif" font-size="14.00" fill="#0058ad">r 5 [2 3 4 5 6 7 8 9 10 11 12 13 14 39 40 41 38 42 43 44 45 46 48 51 52 53 54 55 56 57 58 59 60 61 63 64 62 65 66 67 68 69 70 71 72 73 74 75 76 79 80 81 82 83 84 86 87 88 89 91 92 93 95 96 97]</text>
<polyline fill="none" stroke="#0058ad" points="1215,-81.5 1215,-110.5 "/>
<text text-anchor="middle" x="1243.5" y="-92.3" font-family="Times,serif" font-size="14.00" fill="#0058ad">a 29 25</text>
</g>
<!-- T5011 -->
<g id="node3" class="node">
<title>T5011</title>
<polygon fill="none" stroke="#0058ad" points="512,-.5 512,-29.5 816,-29.5 816,-.5 512,-.5"/>
<text text-anchor="middle" x="664" y="-11.3" font-family="Times,serif" font-size="14.00" fill="#0058ad">r 30 [1 2 3 5 6 7 8 9 10 11 12 13 14 15 16 17 18 19]</text>
</g>
<!-- T5009&#45;&gt;T5011 -->
<g id="edge2" class="edge">
<title>T5009:f0&#45;&gt;T5011:f0</title>
<path fill="none" stroke="#c000a5" d="M28,-81C28,-79.4919 321.4403,-49.5812 509.6807,-30.5488"/>
<polygon fill="#c000a5" stroke="#c000a5" points="510.0845,-34.0259 519.6818,-29.5379 509.3804,-27.0614 510.0845,-34.0259"/>
<text text-anchor="middle" x="334.5" y="-51.8" font-family="Times,serif" font-size="14.00" fill="#c000a5">wr</text>
</g>
<!-- T5011&#45;&gt;T5013 -->
<g id="edge3" class="edge">
<title>T5011&#45;&gt;T5013</title>
<path fill="none" stroke="#0050c0" d="M816.1288,-20.8298C988.7387,-29.0424 1250.4178,-46.972 1281,-81 1352.5831,-160.6486 1179.6671,-215.3992 1068.9465,-241.1649"/>
<polygon fill="#0050c0" stroke="#0050c0" points="1068.067,-237.7756 1059.0999,-243.4185 1069.6288,-244.5992 1068.067,-237.7756"/>
<text text-anchor="middle" x="1300.5" y="-132.8" font-family="Times,serif" font-size="14.00" fill="#0050c0">rt</text>
</g>
<!-- T5015&#45;&gt;T5009 -->
<g id="edge4" class="edge">
<title>T5015:f1&#45;&gt;T5009:f0</title>
<path fill="none" stroke="#5b00c0" d="M435,-162C435,16.7429 43.7432,-281.2424 28.4597,-121.1217"/>
<polygon fill="#5b00c0" stroke="#5b00c0" points="31.9502,-120.8309 28,-111 24.9574,-121.1485 31.9502,-120.8309"/>
<text text-anchor="middle" x="441.5" y="-132.8" font-family="Times,serif" font-size="14.00" fill="#5b00c0">rw</text>
</g>
</g>
</svg>
