<?xml version="1.0" encoding="UTF-8" standalone="no"?>
<!DOCTYPE svg PUBLIC "-//W3C//DTD SVG 1.1//EN"
 "http://www.w3.org/Graphics/SVG/1.1/DTD/svg11.dtd">
<!-- Generated by graphviz version 2.40.1 (20161225.0304)
 -->
<!-- Title: a_graph Pages: 1 -->
<svg width="2680pt" height="119pt"
 viewBox="0.00 0.00 2679.50 119.00" xmlns="http://www.w3.org/2000/svg" xmlns:xlink="http://www.w3.org/1999/xlink">
<g id="graph0" class="graph" transform="scale(1 1) rotate(0) translate(4 115)">
<title>a_graph</title>
<polygon fill="#ffffff" stroke="transparent" points="-4,4 -4,-115 2675.5,-115 2675.5,4 -4,4"/>
<!-- T10511 -->
<g id="node1" class="node">
<title>T10511</title>
<polygon fill="none" stroke="#0058ad" points="174.5,-81.5 174.5,-110.5 2671.5,-110.5 2671.5,-81.5 174.5,-81.5"/>
<text text-anchor="middle" x="335" y="-92.3" font-family="Times,serif" font-size="14.00" fill="#0058ad">r 2 [1 4 5 6 7 8 9 10 11 12 13 14 15 16 17 18 22 23 24]</text>
<polyline fill="none" stroke="#0058ad" points="495.5,-81.5 495.5,-110.5 "/>
<text text-anchor="middle" x="524" y="-92.3" font-family="Times,serif" font-size="14.00" fill="#0058ad">a 56 72</text>
<polyline fill="none" stroke="#0058ad" points="552.5,-81.5 552.5,-110.5 "/>
<text text-anchor="middle" x="977" y="-92.3" font-family="Times,serif" font-size="14.00" fill="#0058ad">r 54 [1 2 5 3 4 6 7 8 10 9 11 12 13 14 15 16 17 18 19 20 21 22 23 24 25 29 26 30 31 32 33 34 35 36 37 39 38 41 42 43 44 45 46 47 48 49 50 51 52 53]</text>
<polyline fill="none" stroke="#0058ad" points="1401.5,-81.5 1401.5,-110.5 "/>
<text text-anchor="middle" x="2036.5" y="-92.3" font-family="Times,serif" font-size="14.00" fill="#0058ad">r 56 [2 3 4 5 6 7 9 10 11 12 13 14 15 16 17 8 18 19 20 21 22 25 26 27 23 29 30 31 32 33 28 36 34 35 37 39 40 41 42 43 44 45 38 46 48 49 50 47 51 53 54 52 55 56 59 60 62 63 61 65 66 64 68 69 70 71 67 73 74 75 76 77 78 72]</text>
</g>
<!-- T10507 -->
<g id="node2" class="node">
<title>T10507</title>
<polygon fill="none" stroke="#0058ad" points="0,-.5 0,-29.5 2156,-29.5 2156,-.5 0,-.5"/>
<text text-anchor="middle" x="28.5" y="-11.3" font-family="Times,serif" font-size="14.00" fill="#0058ad">a 54 54</text>
<polyline fill="none" stroke="#0058ad" points="57,-.5 57,-29.5 "/>
<text text-anchor="middle" x="451.5" y="-11.3" font-family="Times,serif" font-size="14.00" fill="#0058ad">r 40 [21 28 29 30 32 33 34 35 36 37 38 39 40 41 43 44 42 45 46 47 48 49 50 51 52 53 54 55 56 57 58 59 60 61 62 63 64 67 68 69 70 71 72]</text>
<polyline fill="none" stroke="#0058ad" points="846,-.5 846,-29.5 "/>
<text text-anchor="middle" x="1472.5" y="-11.3" font-family="Times,serif" font-size="14.00" fill="#0058ad">r 56 [2 3 4 5 6 7 9 10 11 12 13 14 15 16 17 8 18 19 20 21 22 25 26 27 23 29 30 31 32 33 28 36 34 35 37 39 40 41 42 43 44 45 38 46 48 49 50 47 51 53 54 52 55 56 59 60 62 63 61 65 66 64 68 69 70 71 67 73 74 75 76 77 78]</text>
<polyline fill="none" stroke="#0058ad" points="2099,-.5 2099,-29.5 "/>
<text text-anchor="middle" x="2127.5" y="-11.3" font-family="Times,serif" font-size="14.00" fill="#0058ad">a 51 72</text>
</g>
<!-- T10511&#45;&gt;T10507 -->
<g id="edge1" class="edge">
<title>T10511:f2&#45;&gt;T10507:f0</title>
<path fill="none" stroke="#5b00c0" d="M977,-81C977,66.3982 794.0929,-57.4814 647,-48 631.108,-46.9756 114.1141,-47.1638 37.4604,-33.5484"/>
<polygon fill="#5b00c0" stroke="#5b00c0" points="38.5922,-30.2349 28,-30 36.1338,-36.7891 38.5922,-30.2349"/>
<text text-anchor="middle" x="982.5" y="-51.8" font-family="Times,serif" font-size="14.00" fill="#5b00c0">rw</text>
</g>
<!-- T10507&#45;&gt;T10511 -->
<g id="edge2" class="edge">
<title>T10507:f2&#45;&gt;T10511:f1</title>
<path fill="none" stroke="#5b00c0" d="M1473,-30C1473,-53.4775 651.1615,-44.1605 628,-48 583.8971,-55.3111 532.7242,-35.9753 524.9976,-70.902"/>
<polygon fill="#5b00c0" stroke="#5b00c0" points="521.5001,-70.7043 524,-81 528.4662,-71.3926 521.5001,-70.7043"/>
<text text-anchor="middle" x="635.5" y="-51.8" font-family="Times,serif" font-size="14.00" fill="#5b00c0">rw</text>
</g>
</g>
</svg>
