<?xml version="1.0" encoding="UTF-8" standalone="no"?>
<!DOCTYPE svg PUBLIC "-//W3C//DTD SVG 1.1//EN"
 "http://www.w3.org/Graphics/SVG/1.1/DTD/svg11.dtd">
<!-- Generated by graphviz version 2.40.1 (20161225.0304)
 -->
<!-- Title: a_graph Pages: 1 -->
<svg width="2960pt" height="119pt"
 viewBox="0.00 0.00 2959.50 119.00" xmlns="http://www.w3.org/2000/svg" xmlns:xlink="http://www.w3.org/1999/xlink">
<g id="graph0" class="graph" transform="scale(1 1) rotate(0) translate(4 115)">
<title>a_graph</title>
<polygon fill="#ffffff" stroke="transparent" points="-4,4 -4,-115 2955.5,-115 2955.5,4 -4,4"/>
<!-- T352 -->
<g id="node1" class="node">
<title>T352</title>
<polygon fill="none" stroke="#0058ad" points="1250.5,-81.5 1250.5,-110.5 2951.5,-110.5 2951.5,-81.5 1250.5,-81.5"/>
<text text-anchor="middle" x="1275.5" y="-92.3" font-family="Times,serif" font-size="14.00" fill="#0058ad">a 8 58</text>
<polyline fill="none" stroke="#0058ad" points="1300.5,-81.5 1300.5,-110.5 "/>
<text text-anchor="middle" x="1329" y="-92.3" font-family="Times,serif" font-size="14.00" fill="#0058ad">a 9 101</text>
<polyline fill="none" stroke="#0058ad" points="1357.5,-81.5 1357.5,-110.5 "/>
<text text-anchor="middle" x="1442.5" y="-92.3" font-family="Times,serif" font-size="14.00" fill="#0058ad">r 6 [1 2 3 4 5 6 7 8 9 12 13]</text>
<polyline fill="none" stroke="#0058ad" points="1527.5,-81.5 1527.5,-110.5 "/>
<text text-anchor="middle" x="2239.5" y="-92.3" font-family="Times,serif" font-size="14.00" fill="#0058ad">r 9 [2 1 9 13 14 15 16 17 18 19 20 21 22 23 24 25 26 27 28 29 30 31 32 33 34 35 37 36 38 39 40 41 42 43 44 45 46 47 48 49 50 51 52 53 54 55 56 57 58 59 60 62 63 61 64 65 66 67 68 69 71 70 72 73 74 75 76 77 78 79 80 81 82 83 84 85 87 88 86 89 101]</text>
</g>
<!-- T353 -->
<g id="node2" class="node">
<title>T353</title>
<polygon fill="none" stroke="#0058ad" points="0,-.5 0,-29.5 1620,-29.5 1620,-.5 0,-.5"/>
<text text-anchor="middle" x="85" y="-11.3" font-family="Times,serif" font-size="14.00" fill="#0058ad">r 6 [1 2 3 4 5 6 7 8 9 12 13]</text>
<polyline fill="none" stroke="#0058ad" points="170,-.5 170,-29.5 "/>
<text text-anchor="middle" x="870" y="-11.3" font-family="Times,serif" font-size="14.00" fill="#0058ad">r 9 [2 1 9 13 14 15 16 17 18 19 20 21 22 23 24 25 26 27 28 29 30 31 32 33 34 35 37 36 38 39 40 41 42 43 44 45 46 47 48 49 50 51 52 53 54 55 56 57 58 59 60 62 63 61 64 65 66 67 68 69 71 70 72 73 74 75 76 77 78 79 80 81 82 83 84 85 87 88 86 89]</text>
<polyline fill="none" stroke="#0058ad" points="1570,-.5 1570,-29.5 "/>
<text text-anchor="middle" x="1595" y="-11.3" font-family="Times,serif" font-size="14.00" fill="#0058ad">a 6 14</text>
</g>
<!-- T352&#45;&gt;T353 -->
<g id="edge1" class="edge">
<title>T352:f2&#45;&gt;T353:f2</title>
<path fill="none" stroke="#5b00c0" d="M1442,-81C1442,-13.1016 1579.2888,-92.3937 1593.7684,-40.0193"/>
<polygon fill="#5b00c0" stroke="#5b00c0" points="1597.2538,-40.3523 1595,-30 1590.3061,-39.4983 1597.2538,-40.3523"/>
<text text-anchor="middle" x="1595.5" y="-51.8" font-family="Times,serif" font-size="14.00" fill="#5b00c0">rw</text>
</g>
<!-- T353&#45;&gt;T352 -->
<g id="edge2" class="edge">
<title>T353:f1&#45;&gt;T352:f1</title>
<path fill="none" stroke="#5b00c0" d="M870,-30C870,-231.7476 1313.4456,112.1324 1328.6024,-70.9659"/>
<polygon fill="#5b00c0" stroke="#5b00c0" points="1325.1067,-71.1464 1329,-81 1332.1012,-70.8692 1325.1067,-71.1464"/>
<text text-anchor="middle" x="1334.5" y="-51.8" font-family="Times,serif" font-size="14.00" fill="#5b00c0">rw</text>
</g>
</g>
</svg>
