<?xml version="1.0" encoding="UTF-8" standalone="no"?>
<!DOCTYPE svg PUBLIC "-//W3C//DTD SVG 1.1//EN"
 "http://www.w3.org/Graphics/SVG/1.1/DTD/svg11.dtd">
<!-- Generated by graphviz version 2.40.1 (20161225.0304)
 -->
<!-- Title: a_graph Pages: 1 -->
<svg width="2183pt" height="119pt"
 viewBox="0.00 0.00 2183.00 119.00" xmlns="http://www.w3.org/2000/svg" xmlns:xlink="http://www.w3.org/1999/xlink">
<g id="graph0" class="graph" transform="scale(1 1) rotate(0) translate(4 115)">
<title>a_graph</title>
<polygon fill="#ffffff" stroke="transparent" points="-4,4 -4,-115 2179,-115 2179,4 -4,4"/>
<!-- T12249 -->
<g id="node1" class="node">
<title>T12249</title>
<polygon fill="none" stroke="#0058ad" points="1341,-81.5 1341,-110.5 1868,-110.5 1868,-81.5 1341,-81.5"/>
<text text-anchor="middle" x="1576" y="-92.3" font-family="Times,serif" font-size="14.00" fill="#0058ad">r 65 [1 2 4 3 5 6 8 9 7 11 10 12 13 15 16 14 17 18 19 20 24 25 21 26 27 28 29 30]</text>
<polyline fill="none" stroke="#0058ad" points="1811,-81.5 1811,-110.5 "/>
<text text-anchor="middle" x="1839.5" y="-92.3" font-family="Times,serif" font-size="14.00" fill="#0058ad">a 64 77</text>
</g>
<!-- T12247 -->
<g id="node2" class="node">
<title>T12247</title>
<polygon fill="none" stroke="#0058ad" points="0,-.5 0,-29.5 2175,-29.5 2175,-.5 0,-.5"/>
<text text-anchor="middle" x="407.5" y="-11.3" font-family="Times,serif" font-size="14.00" fill="#0058ad">r 61 [1 2 3 4 5 6 8 7 9 10 11 12 13 14 15 16 17 18 19 20 21 22 23 25 24 27 26 28 30 29 33 34 31 32 36 37 38 39 40 41 42 43 44 45 46 47 48 49]</text>
<polyline fill="none" stroke="#0058ad" points="815,-.5 815,-29.5 "/>
<text text-anchor="middle" x="1438" y="-11.3" font-family="Times,serif" font-size="14.00" fill="#0058ad">r 64 [1 2 3 4 5 7 8 9 10 6 11 12 16 17 19 20 21 18 24 23 25 22 26 28 29 30 27 31 32 33 34 36 37 35 39 40 38 41 43 44 45 46 42 47 48 49 51 52 53 50 55 54 56 57 58 59 62 60 61 63 64 66 65 67 68 70 69 71 72 73 74 75 76]</text>
<polyline fill="none" stroke="#0058ad" points="2061,-.5 2061,-29.5 "/>
<text text-anchor="middle" x="2089.5" y="-11.3" font-family="Times,serif" font-size="14.00" fill="#0058ad">a 65 22</text>
<polyline fill="none" stroke="#0058ad" points="2118,-.5 2118,-29.5 "/>
<text text-anchor="middle" x="2146.5" y="-11.3" font-family="Times,serif" font-size="14.00" fill="#0058ad">a 65 23</text>
</g>
<!-- T12249&#45;&gt;T12247 -->
<g id="edge1" class="edge">
<title>T12249:f0&#45;&gt;T12247:f2</title>
<path fill="none" stroke="#5b00c0" d="M1575.5,-81C1575.5,-4.0341 1669.1062,-57.367 1745.5,-48 1762.64,-45.8984 2028.9408,-48.5155 2080.7892,-34.9864"/>
<polygon fill="#5b00c0" stroke="#5b00c0" points="2082.5601,-38.0056 2089.5,-30 2079.0825,-31.9305 2082.5601,-38.0056"/>
<text text-anchor="middle" x="1753" y="-51.8" font-family="Times,serif" font-size="14.00" fill="#5b00c0">rw</text>
</g>
<!-- T12247&#45;&gt;T12249 -->
<g id="edge2" class="edge">
<title>T12247:f1&#45;&gt;T12249:f1</title>
<path fill="none" stroke="#5b00c0" d="M1438.5,-30C1438.5,-47.9168 1743.0379,-43.9893 1760.5,-48 1793.8192,-55.6528 1831.036,-45.4771 1838.2519,-70.9264"/>
<polygon fill="#5b00c0" stroke="#5b00c0" points="1834.7969,-71.5062 1839.5,-81 1841.7438,-70.6455 1834.7969,-71.5062"/>
<text text-anchor="middle" x="1841" y="-51.8" font-family="Times,serif" font-size="14.00" fill="#5b00c0">rw</text>
</g>
</g>
</svg>
