<?xml version="1.0" encoding="UTF-8" standalone="no"?>
<!DOCTYPE svg PUBLIC "-//W3C//DTD SVG 1.1//EN"
 "http://www.w3.org/Graphics/SVG/1.1/DTD/svg11.dtd">
<!-- Generated by graphviz version 2.40.1 (20161225.0304)
 -->
<!-- Title: a_graph Pages: 1 -->
<svg width="1430pt" height="119pt"
 viewBox="0.00 0.00 1430.00 119.00" xmlns="http://www.w3.org/2000/svg" xmlns:xlink="http://www.w3.org/1999/xlink">
<g id="graph0" class="graph" transform="scale(1 1) rotate(0) translate(4 115)">
<title>a_graph</title>
<polygon fill="#ffffff" stroke="transparent" points="-4,4 -4,-115 1426,-115 1426,4 -4,4"/>
<!-- T8701 -->
<g id="node1" class="node">
<title>T8701</title>
<polygon fill="none" stroke="#0058ad" points="664,-81.5 664,-110.5 1422,-110.5 1422,-81.5 664,-81.5"/>
<text text-anchor="middle" x="692.5" y="-92.3" font-family="Times,serif" font-size="14.00" fill="#0058ad">a 40 44</text>
<polyline fill="none" stroke="#0058ad" points="721,-81.5 721,-110.5 "/>
<text text-anchor="middle" x="1007.5" y="-92.3" font-family="Times,serif" font-size="14.00" fill="#0058ad">r 48 [1 2 3 4 5 6 7 8 9 10 11 12 13 14 15 16 17 19 20 21 23 24 25 26 27 31 32 30 33 36 37 38 39 40]</text>
<polyline fill="none" stroke="#0058ad" points="1294,-81.5 1294,-110.5 "/>
<text text-anchor="middle" x="1326" y="-92.3" font-family="Times,serif" font-size="14.00" fill="#0058ad">a 45 110</text>
<polyline fill="none" stroke="#0058ad" points="1358,-81.5 1358,-110.5 "/>
<text text-anchor="middle" x="1390" y="-92.3" font-family="Times,serif" font-size="14.00" fill="#0058ad">a 37 110</text>
</g>
<!-- T8703 -->
<g id="node2" class="node">
<title>T8703</title>
<polygon fill="none" stroke="#0058ad" points="0,-.5 0,-29.5 936,-29.5 936,-.5 0,-.5"/>
<text text-anchor="middle" x="286.5" y="-11.3" font-family="Times,serif" font-size="14.00" fill="#0058ad">r 48 [1 2 3 4 5 6 7 8 9 10 11 12 13 14 15 16 17 19 20 21 23 24 25 26 27 31 32 30 33 36 37 38 39 40]</text>
<polyline fill="none" stroke="#0058ad" points="573,-.5 573,-29.5 "/>
<text text-anchor="middle" x="726" y="-11.3" font-family="Times,serif" font-size="14.00" fill="#0058ad">r 40 [21 28 29 30 32 33 34 35 36 37 38 39 40 41 43]</text>
<polyline fill="none" stroke="#0058ad" points="879,-.5 879,-29.5 "/>
<text text-anchor="middle" x="907.5" y="-11.3" font-family="Times,serif" font-size="14.00" fill="#0058ad">a 48 41</text>
</g>
<!-- T8701&#45;&gt;T8703 -->
<g id="edge1" class="edge">
<title>T8701:f1&#45;&gt;T8703:f2</title>
<path fill="none" stroke="#5b00c0" d="M1007,-81C1007,-41.4506 983.4758,-18.8954 946.2894,-15.4611"/>
<polygon fill="#5b00c0" stroke="#5b00c0" points="946.1467,-11.9513 936,-15 945.8333,-18.9443 946.1467,-11.9513"/>
<text text-anchor="middle" x="1011.5" y="-51.8" font-family="Times,serif" font-size="14.00" fill="#5b00c0">rw</text>
</g>
<!-- T8703&#45;&gt;T8701 -->
<g id="edge2" class="edge">
<title>T8703:f1&#45;&gt;T8701:f0</title>
<path fill="none" stroke="#5b00c0" d="M726,-30C726,-53.411 700.8901,-54.1303 693.828,-71.1593"/>
<polygon fill="#5b00c0" stroke="#5b00c0" points="690.3853,-70.5289 692,-81 697.2675,-71.8074 690.3853,-70.5289"/>
<text text-anchor="middle" x="725.5" y="-51.8" font-family="Times,serif" font-size="14.00" fill="#5b00c0">rw</text>
</g>
</g>
</svg>
