<?xml version="1.0" encoding="UTF-8" standalone="no"?>
<!DOCTYPE svg PUBLIC "-//W3C//DTD SVG 1.1//EN"
 "http://www.w3.org/Graphics/SVG/1.1/DTD/svg11.dtd">
<!-- Generated by graphviz version 2.40.1 (20161225.0304)
 -->
<!-- Title: a_graph Pages: 1 -->
<svg width="4158pt" height="200pt"
 viewBox="0.00 0.00 4158.00 200.00" xmlns="http://www.w3.org/2000/svg" xmlns:xlink="http://www.w3.org/1999/xlink">
<g id="graph0" class="graph" transform="scale(1 1) rotate(0) translate(4 196)">
<title>a_graph</title>
<polygon fill="#ffffff" stroke="transparent" points="-4,4 -4,-196 4154,-196 4154,4 -4,4"/>
<!-- T11218 -->
<g id="node1" class="node">
<title>T11218</title>
<polygon fill="none" stroke="#0058ad" points="329,-162.5 329,-191.5 4150,-191.5 4150,-162.5 329,-162.5"/>
<text text-anchor="middle" x="357.5" y="-173.3" font-family="Times,serif" font-size="14.00" fill="#0058ad">a 59 28</text>
<polyline fill="none" stroke="#0058ad" points="386,-162.5 386,-191.5 "/>
<text text-anchor="middle" x="1222.5" y="-173.3" font-family="Times,serif" font-size="14.00" fill="#0058ad">r 54 [1 2 5 3 4 6 7 8 10 9 11 12 13 14 15 16 17 18 19 20 21 22 23 24 25 29 26 30 31 32 33 34 35 36 37 39 38 41 42 43 44 45 46 47 48 49 50 51 52 53 54 55 56 57 58 59 60 61 62 63 64 65 66 67 69 70 71 72 73 74 75 76 77 78 79 80 81 82 83 84 85 86 87 88 89 90 93 91 92 94 95 96 97 98 99 100 101]</text>
<polyline fill="none" stroke="#0058ad" points="2059,-162.5 2059,-191.5 "/>
<text text-anchor="middle" x="2285" y="-173.3" font-family="Times,serif" font-size="14.00" fill="#0058ad">r 59 [1 2 3 4 6 7 9 8 10 12 13 11 15 16 17 14 5 18 20 21 19 22 26 23 24 27 28]</text>
<polyline fill="none" stroke="#0058ad" points="2511,-162.5 2511,-191.5 "/>
<text text-anchor="middle" x="3330.5" y="-173.3" font-family="Times,serif" font-size="14.00" fill="#0058ad">r 51 [2 3 4 5 6 7 8 9 10 11 12 13 14 15 16 17 19 18 21 20 22 24 23 25 28 29 30 31 33 34 35 36 38 37 39 40 41 42 43 45 46 44 48 47 49 50 51 52 53 54 55 56 57 58 59 60 61 62 63 64 65 66 67 68 70 71 72 73 74 75 76 77 78 79 80 81 82 83 84 85 86 87 88 89 90 91 92 93 94 95 96 97 98 99 100]</text>
</g>
<!-- T11215 -->
<g id="node2" class="node">
<title>T11215</title>
<polygon fill="none" stroke="#0058ad" points="437,-81.5 437,-110.5 3110,-110.5 3110,-81.5 437,-81.5"/>
<text text-anchor="middle" x="1275" y="-92.3" font-family="Times,serif" font-size="14.00" fill="#0058ad">r 57 [1 2 3 4 5 6 9 7 8 11 10 12 13 18 14 19 21 22 23 24 25 26 27 28 29 31 32 33 34 35 36 37 38 39 40 41 42 43 47 46 49 48 51 50 52 53 54 55 57 56 58 59 60 61 62 66 67 68 69 63 64 71 72 73 74 75 76 77 79 80 78 70 81 82 84 85 83 86 87 88 89 91 90 92 93 94 95 96 99 100 101 98 102 97 104 103]</text>
<polyline fill="none" stroke="#0058ad" points="2113,-81.5 2113,-110.5 "/>
<text text-anchor="middle" x="2141.5" y="-92.3" font-family="Times,serif" font-size="14.00" fill="#0058ad">a 59 25</text>
<polyline fill="none" stroke="#0058ad" points="2170,-81.5 2170,-110.5 "/>
<text text-anchor="middle" x="2405" y="-92.3" font-family="Times,serif" font-size="14.00" fill="#0058ad">r 59 [1 2 3 4 6 7 9 8 10 12 13 11 15 16 17 14 5 18 20 21 19 22 26 23 24 27 28 25]</text>
<polyline fill="none" stroke="#0058ad" points="2640,-81.5 2640,-110.5 "/>
<text text-anchor="middle" x="2875" y="-92.3" font-family="Times,serif" font-size="14.00" fill="#0058ad">r 59 [1 2 3 4 6 7 9 8 10 12 13 11 15 16 17 14 5 18 20 21 19 22 26 23 24 27 28 25]</text>
</g>
<!-- T11218&#45;&gt;T11215 -->
<g id="edge1" class="edge">
<title>T11218:f0&#45;&gt;T11215:f1</title>
<path fill="none" stroke="#c02700" d="M357.5,-162C357.5,32.8174 2079.3325,-297.321 2139.8657,-120.9591"/>
<polygon fill="#c02700" stroke="#c02700" points="2143.3343,-121.4348 2141.5,-111 2136.4267,-120.3012 2143.3343,-121.4348"/>
<text text-anchor="middle" x="2142.5" y="-132.8" font-family="Times,serif" font-size="14.00" fill="#c02700">ww</text>
</g>
<!-- T11221 -->
<g id="node3" class="node">
<title>T11221</title>
<polygon fill="none" stroke="#0058ad" points="0,-.5 0,-29.5 1369,-29.5 1369,-.5 0,-.5"/>
<text text-anchor="middle" x="217.5" y="-11.3" font-family="Times,serif" font-size="14.00" fill="#0058ad">r 59 [1 2 3 4 6 7 9 8 10 12 13 11 15 16 17 14 5 18 20 21 19 22 26 23 24 27]</text>
<polyline fill="none" stroke="#0058ad" points="435,-.5 435,-29.5 "/>
<text text-anchor="middle" x="652.5" y="-11.3" font-family="Times,serif" font-size="14.00" fill="#0058ad">r 59 [1 2 3 4 6 7 9 8 10 12 13 11 15 16 17 14 5 18 20 21 19 22 26 23 24 27]</text>
<polyline fill="none" stroke="#0058ad" points="870,-.5 870,-29.5 "/>
<text text-anchor="middle" x="1087.5" y="-11.3" font-family="Times,serif" font-size="14.00" fill="#0058ad">r 59 [1 2 3 4 6 7 9 8 10 12 13 11 15 16 17 14 5 18 20 21 19 22 26 23 24 27]</text>
<polyline fill="none" stroke="#0058ad" points="1305,-.5 1305,-29.5 "/>
<text text-anchor="middle" x="1337" y="-11.3" font-family="Times,serif" font-size="14.00" fill="#0058ad">a 57 105</text>
</g>
<!-- T11215&#45;&gt;T11221 -->
<g id="edge2" class="edge">
<title>T11215:f0&#45;&gt;T11221:f3</title>
<path fill="none" stroke="#5b00c0" d="M1274.5,-81C1274.5,-48.9155 1324.4724,-62.1029 1335.4039,-39.9216"/>
<polygon fill="#5b00c0" stroke="#5b00c0" points="1338.8573,-40.5075 1337.5,-30 1332.0085,-39.0605 1338.8573,-40.5075"/>
<text text-anchor="middle" x="1334" y="-51.8" font-family="Times,serif" font-size="14.00" fill="#5b00c0">rw</text>
</g>
<!-- T11221&#45;&gt;T11218 -->
<g id="edge3" class="edge">
<title>T11221:f0&#45;&gt;T11218:f0</title>
<path fill="none" stroke="#5b00c0" d="M217.5,-30C217.5,-111.8437 345.7272,-79.6064 356.7468,-151.6463"/>
<polygon fill="#5b00c0" stroke="#5b00c0" points="353.2835,-152.2803 357.5,-162 360.2651,-151.7724 353.2835,-152.2803"/>
<text text-anchor="middle" x="333" y="-92.3" font-family="Times,serif" font-size="14.00" fill="#5b00c0">rw</text>
</g>
</g>
</svg>
