<?xml version="1.0" encoding="UTF-8" standalone="no"?>
<!DOCTYPE svg PUBLIC "-//W3C//DTD SVG 1.1//EN"
 "http://www.w3.org/Graphics/SVG/1.1/DTD/svg11.dtd">
<!-- Generated by graphviz version 2.40.1 (20161225.0304)
 -->
<!-- Title: a_graph Pages: 1 -->
<svg width="4988pt" height="119pt"
 viewBox="0.00 0.00 4988.00 119.00" xmlns="http://www.w3.org/2000/svg" xmlns:xlink="http://www.w3.org/1999/xlink">
<g id="graph0" class="graph" transform="scale(1 1) rotate(0) translate(4 115)">
<title>a_graph</title>
<polygon fill="#ffffff" stroke="transparent" points="-4,4 -4,-115 4984,-115 4984,4 -4,4"/>
<!-- T4055 -->
<g id="node1" class="node">
<title>T4055</title>
<polygon fill="none" stroke="#0058ad" points="0,-81.5 0,-110.5 4980,-110.5 4980,-81.5 0,-81.5"/>
<text text-anchor="middle" x="973.5" y="-92.3" font-family="Times,serif" font-size="14.00" fill="#0058ad">r 22 [1 2 3 4 5 6 7 8 9 10 11 12 13 14 15 16 17 18 19 20 21 22 23 24 25 26 27 28 31 33 34 35 36 37 38 39 41 42 43 44 45 46 47 48 49 50 51 53 55 56 58 57 59 60 61 62 63 64 65 66 67 68 69 70 71 72 73 74 75 76 77 78 79 80 81 82 83 85 84 86 87 88 89 91 93 94 95 97 98 100 99 101 102 103 104 105 106 107 108 110 111 112 113 114 118 117 119]</text>
<polyline fill="none" stroke="#0058ad" points="1947,-81.5 1947,-110.5 "/>
<text text-anchor="middle" x="2458" y="-92.3" font-family="Times,serif" font-size="14.00" fill="#0058ad">r 23 [1 2 3 4 5 6 7 8 9 10 11 12 13 14 15 16 17 18 19 21 22 23 24 25 26 27 28 29 30 32 33 31 34 35 36 37 38 39 40 41 42 43 44 45 46 47 48 49 50 51 52 53 54 56 57 58 60 59 61 62]</text>
<polyline fill="none" stroke="#0058ad" points="2969,-81.5 2969,-110.5 "/>
<text text-anchor="middle" x="3001" y="-92.3" font-family="Times,serif" font-size="14.00" fill="#0058ad">a 25 125</text>
<polyline fill="none" stroke="#0058ad" points="3033,-81.5 3033,-110.5 "/>
<text text-anchor="middle" x="4006.5" y="-92.3" font-family="Times,serif" font-size="14.00" fill="#0058ad">r 22 [1 2 3 4 5 6 7 8 9 10 11 12 13 14 15 16 17 18 19 20 21 22 23 24 25 26 27 28 31 33 34 35 36 37 38 39 41 42 43 44 45 46 47 48 49 50 51 53 55 56 58 57 59 60 61 62 63 64 65 66 67 68 69 70 71 72 73 74 75 76 77 78 79 80 81 82 83 85 84 86 87 88 89 91 93 94 95 97 98 100 99 101 102 103 104 105 106 107 108 110 111 112 113 114 118 117 119]</text>
</g>
<!-- T4059 -->
<g id="node2" class="node">
<title>T4059</title>
<polygon fill="none" stroke="#0058ad" points="122.5,-.5 122.5,-29.5 2833.5,-29.5 2833.5,-.5 122.5,-.5"/>
<text text-anchor="middle" x="1173.5" y="-11.3" font-family="Times,serif" font-size="14.00" fill="#0058ad">r 25 [1 2 3 4 5 6 7 8 9 10 11 12 13 17 16 18 19 20 21 22 23 24 25 26 27 28 29 30 32 33 34 35 36 37 38 39 40 42 43 44 45 46 48 49 50 51 52 53 54 55 56 57 58 59 60 61 62 63 64 65 66 67 68 69 70 73 74 75 76 77 78 79 80 81 82 83 84 85 86 87 88 89 90 91 92 93 94 95 96 97 98 99 100 101 102 103 104 105 109 110 111 112 107 108 113 114 116 117 118 119 120 122 123 124]</text>
<polyline fill="none" stroke="#0058ad" points="2224.5,-.5 2224.5,-29.5 "/>
<text text-anchor="middle" x="2497" y="-11.3" font-family="Times,serif" font-size="14.00" fill="#0058ad">r 21 [2 3 4 5 6 7 8 9 10 11 12 13 14 16 17 18 19 20 21 23 24 25 26 27 28 29 30 31 33 34 35 36]</text>
<polyline fill="none" stroke="#0058ad" points="2769.5,-.5 2769.5,-29.5 "/>
<text text-anchor="middle" x="2801.5" y="-11.3" font-family="Times,serif" font-size="14.00" fill="#0058ad">a 22 121</text>
</g>
<!-- T4055&#45;&gt;T4059 -->
<g id="edge1" class="edge">
<title>T4055:f0&#45;&gt;T4059:f2</title>
<path fill="none" stroke="#5b00c0" d="M973,-81C973,-56.6793 2648.1972,-55.4743 2792.1595,-33.1401"/>
<polygon fill="#5b00c0" stroke="#5b00c0" points="2793.5373,-36.3744 2802,-30 2791.4093,-29.7056 2793.5373,-36.3744"/>
<text text-anchor="middle" x="2366.5" y="-51.8" font-family="Times,serif" font-size="14.00" fill="#5b00c0">rw</text>
</g>
<!-- T4059&#45;&gt;T4055 -->
<g id="edge2" class="edge">
<title>T4059:f0&#45;&gt;T4055:f2</title>
<path fill="none" stroke="#5b00c0" d="M1173,-30C1173,-46.738 2361.2717,-47.4322 2378,-48 2513.0406,-52.5835 2976.6225,52.1094 3000.0767,-70.9152"/>
<polygon fill="#5b00c0" stroke="#5b00c0" points="2996.6027,-71.3608 3001,-81 3003.5736,-70.7225 2996.6027,-71.3608"/>
<text text-anchor="middle" x="3002.5" y="-51.8" font-family="Times,serif" font-size="14.00" fill="#5b00c0">rw</text>
</g>
</g>
</svg>
