<?xml version="1.0" encoding="UTF-8" standalone="no"?>
<!DOCTYPE svg PUBLIC "-//W3C//DTD SVG 1.1//EN"
 "http://www.w3.org/Graphics/SVG/1.1/DTD/svg11.dtd">
<!-- Generated by graphviz version 2.40.1 (20161225.0304)
 -->
<!-- Title: a_graph Pages: 1 -->
<svg width="2529pt" height="119pt"
 viewBox="0.00 0.00 2528.50 119.00" xmlns="http://www.w3.org/2000/svg" xmlns:xlink="http://www.w3.org/1999/xlink">
<g id="graph0" class="graph" transform="scale(1 1) rotate(0) translate(4 115)">
<title>a_graph</title>
<polygon fill="#ffffff" stroke="transparent" points="-4,4 -4,-115 2524.5,-115 2524.5,4 -4,4"/>
<!-- T11699 -->
<g id="node1" class="node">
<title>T11699</title>
<polygon fill="none" stroke="#0058ad" points="1007.5,-81.5 1007.5,-110.5 2520.5,-110.5 2520.5,-81.5 1007.5,-81.5"/>
<text text-anchor="middle" x="1036" y="-92.3" font-family="Times,serif" font-size="14.00" fill="#0058ad">a 60 58</text>
<polyline fill="none" stroke="#0058ad" points="1064.5,-81.5 1064.5,-110.5 "/>
<text text-anchor="middle" x="1428.5" y="-92.3" font-family="Times,serif" font-size="14.00" fill="#0058ad">r 62 [1 2 3 4 5 6 7 8 9 10 11 12 13 14 15 16 17 18 19 20 22 23 24 25 21 26 27 28 29 30 31 32 34 35 33 37 38 36 39 40 41 42 43]</text>
<polyline fill="none" stroke="#0058ad" points="1792.5,-81.5 1792.5,-110.5 "/>
<text text-anchor="middle" x="2156.5" y="-92.3" font-family="Times,serif" font-size="14.00" fill="#0058ad">r 62 [1 2 3 4 5 6 7 8 9 10 11 12 13 14 15 16 17 18 19 20 22 23 24 25 21 26 27 28 29 30 31 32 34 35 33 37 38 36 39 40 41 42 43]</text>
</g>
<!-- T11701 -->
<g id="node2" class="node">
<title>T11701</title>
<polygon fill="none" stroke="#0058ad" points="0,-.5 0,-29.5 1948,-29.5 1948,-.5 0,-.5"/>
<text text-anchor="middle" x="114" y="-11.3" font-family="Times,serif" font-size="14.00" fill="#0058ad">r 61 [1 2 3 4 5 6 8 7 9 10 11 12 13 14]</text>
<polyline fill="none" stroke="#0058ad" points="228,-.5 228,-29.5 "/>
<text text-anchor="middle" x="592" y="-11.3" font-family="Times,serif" font-size="14.00" fill="#0058ad">r 62 [1 2 3 4 5 6 7 8 9 10 11 12 13 14 15 16 17 18 19 20 22 23 24 25 21 26 27 28 29 30 31 32 34 35 33 37 38 36 39 40 41 42 43]</text>
<polyline fill="none" stroke="#0058ad" points="956,-.5 956,-29.5 "/>
<text text-anchor="middle" x="984.5" y="-11.3" font-family="Times,serif" font-size="14.00" fill="#0058ad">a 62 44</text>
<polyline fill="none" stroke="#0058ad" points="1013,-.5 1013,-29.5 "/>
<text text-anchor="middle" x="1480.5" y="-11.3" font-family="Times,serif" font-size="14.00" fill="#0058ad">r 60 [1 2 3 4 5 6 7 8 9 10 11 12 13 14 16 17 15 18 20 22 24 25 26 27 28 29 21 30 32 31 33 34 36 35 37 38 39 40 41 42 43 44 45 46 47 48 49 50 52 51 53 54 55 56 57]</text>
</g>
<!-- T11699&#45;&gt;T11701 -->
<g id="edge1" class="edge">
<title>T11699:f1&#45;&gt;T11701:f2</title>
<path fill="none" stroke="#5b00c0" d="M1428,-81C1428,-58.2585 1054.6987,-55.1689 993.4539,-35.6516"/>
<polygon fill="#5b00c0" stroke="#5b00c0" points="995.2586,-32.648 985,-30 991.3682,-38.4674 995.2586,-32.648"/>
<text text-anchor="middle" x="1328.5" y="-51.8" font-family="Times,serif" font-size="14.00" fill="#5b00c0">rw</text>
</g>
<!-- T11701&#45;&gt;T11699 -->
<g id="edge2" class="edge">
<title>T11701:f3&#45;&gt;T11699:f0</title>
<path fill="none" stroke="#5b00c0" d="M1481,-30C1481,-94.3601 1403.6891,-53.7308 1340,-63 1325.0237,-65.1796 1093.5843,-64.3252 1044.9317,-76.2308"/>
<polygon fill="#5b00c0" stroke="#5b00c0" points="1043.1726,-73.2023 1036,-81 1046.4698,-79.3772 1043.1726,-73.2023"/>
<text text-anchor="middle" x="1485.5" y="-51.8" font-family="Times,serif" font-size="14.00" fill="#5b00c0">rw</text>
</g>
</g>
</svg>
