<?xml version="1.0" encoding="UTF-8" standalone="no"?>
<!DOCTYPE svg PUBLIC "-//W3C//DTD SVG 1.1//EN"
 "http://www.w3.org/Graphics/SVG/1.1/DTD/svg11.dtd">
<!-- Generated by graphviz version 2.40.1 (20161225.0304)
 -->
<!-- Title: a_graph Pages: 1 -->
<svg width="1708pt" height="200pt"
 viewBox="0.00 0.00 1707.50 200.00" xmlns="http://www.w3.org/2000/svg" xmlns:xlink="http://www.w3.org/1999/xlink">
<g id="graph0" class="graph" transform="scale(1 1) rotate(0) translate(4 196)">
<title>a_graph</title>
<polygon fill="#ffffff" stroke="transparent" points="-4,4 -4,-196 1703.5,-196 1703.5,4 -4,4"/>
<!-- T10859 -->
<g id="node1" class="node">
<title>T10859</title>
<polygon fill="none" stroke="#0058ad" points="393.5,-162.5 393.5,-191.5 1699.5,-191.5 1699.5,-162.5 393.5,-162.5"/>
<text text-anchor="middle" x="619.5" y="-173.3" font-family="Times,serif" font-size="14.00" fill="#0058ad">r 57 [1 2 3 4 5 6 9 7 8 11 10 12 13 18 14 19 21 22 23 24 25 26 27 28 29 31 32]</text>
<polyline fill="none" stroke="#0058ad" points="845.5,-162.5 845.5,-191.5 "/>
<text text-anchor="middle" x="874" y="-173.3" font-family="Times,serif" font-size="14.00" fill="#0058ad">a 58 54</text>
<polyline fill="none" stroke="#0058ad" points="902.5,-162.5 902.5,-191.5 "/>
<text text-anchor="middle" x="1301" y="-173.3" font-family="Times,serif" font-size="14.00" fill="#0058ad">r 58 [2 3 1 4 5 6 7 9 11 10 12 8 13 15 16 19 20 14 21 23 24 26 28 29 27 30 31 34 33 35 37 38 36 39 40 41 42 43 45 46 47 49 50 51 52 53 54]</text>
</g>
<!-- T10853 -->
<g id="node2" class="node">
<title>T10853</title>
<polygon fill="none" stroke="#0058ad" points="0,-81.5 0,-110.5 837,-110.5 837,-81.5 0,-81.5"/>
<text text-anchor="middle" x="390" y="-92.3" font-family="Times,serif" font-size="14.00" fill="#0058ad">r 58 [2 3 1 4 5 6 7 9 11 10 12 8 13 15 16 19 20 14 21 23 24 26 28 29 27 30 31 34 33 35 37 38 36 39 40 41 42 43 45 46 47 49 50 51 52 53]</text>
<polyline fill="none" stroke="#0058ad" points="780,-81.5 780,-110.5 "/>
<text text-anchor="middle" x="808.5" y="-92.3" font-family="Times,serif" font-size="14.00" fill="#0058ad">a 57 33</text>
</g>
<!-- T10859&#45;&gt;T10853 -->
<g id="edge1" class="edge">
<title>T10859:f0&#45;&gt;T10853:f1</title>
<path fill="none" stroke="#5b00c0" d="M619.5,-162C619.5,-142.7978 766.7986,-134.7041 801.3218,-118.1055"/>
<polygon fill="#5b00c0" stroke="#5b00c0" points="803.8553,-120.5225 808.5,-111 798.9307,-115.5476 803.8553,-120.5225"/>
<text text-anchor="middle" x="766" y="-132.8" font-family="Times,serif" font-size="14.00" fill="#5b00c0">rw</text>
</g>
<!-- T10853&#45;&gt;T10859 -->
<g id="edge2" class="edge">
<title>T10853:f0&#45;&gt;T10859:f1</title>
<path fill="none" stroke="#5b00c0" d="M389.5,-111C389.5,-132.4677 754.4014,-125.0362 775.5,-129 784.7631,-130.7402 844.7743,-144.1 866.0418,-155.1872"/>
<polygon fill="#5b00c0" stroke="#5b00c0" points="863.7561,-157.8397 873.5,-162 868.4772,-152.6714 863.7561,-157.8397"/>
<text text-anchor="middle" x="842" y="-132.8" font-family="Times,serif" font-size="14.00" fill="#5b00c0">rw</text>
</g>
<!-- T10855 -->
<g id="node3" class="node">
<title>T10855</title>
<polygon fill="none" stroke="#0058ad" points="256.5,-.5 256.5,-29.5 1036.5,-29.5 1036.5,-.5 256.5,-.5"/>
<text text-anchor="middle" x="646.5" y="-11.3" font-family="Times,serif" font-size="14.00" fill="#0058ad">r 58 [2 3 1 4 5 6 7 9 11 10 12 8 13 15 16 19 20 14 21 23 24 26 28 29 27 30 31 34 33 35 37 38 36 39 40 41 42 43 45 46 47 49 50 51 52 53]</text>
</g>
<!-- T10853&#45;&gt;T10855 -->
<g id="edge3" class="edge">
<title>T10853&#45;&gt;T10855</title>
<path fill="none" stroke="#0050c0" d="M459.5252,-81.4253C497.7442,-67.8474 554.8416,-47.5629 595.8783,-32.984"/>
<polygon fill="#0050c0" stroke="#0050c0" points="597.1689,-36.2399 605.4203,-29.5941 594.8255,-29.6438 597.1689,-36.2399"/>
<text text-anchor="middle" x="558" y="-51.8" font-family="Times,serif" font-size="14.00" fill="#0050c0">rt</text>
</g>
<!-- T10855&#45;&gt;T10859 -->
<g id="edge4" class="edge">
<title>T10855:f0&#45;&gt;T10859:f1</title>
<path fill="none" stroke="#5b00c0" d="M746.9632,-29.5252C781.9435,-39.0588 819.0178,-54.8488 845.5,-81 870.0618,-105.2548 873.1014,-120.7891 873.4555,-151.8389"/>
<polygon fill="#5b00c0" stroke="#5b00c0" points="869.9561,-152.0155 873.5,-162 876.9561,-151.9847 869.9561,-152.0155"/>
<text text-anchor="middle" x="875" y="-92.3" font-family="Times,serif" font-size="14.00" fill="#5b00c0">rw</text>
</g>
</g>
</svg>
