<?xml version="1.0" encoding="UTF-8" standalone="no"?>
<!DOCTYPE svg PUBLIC "-//W3C//DTD SVG 1.1//EN"
 "http://www.w3.org/Graphics/SVG/1.1/DTD/svg11.dtd">
<!-- Generated by graphviz version 2.40.1 (20161225.0304)
 -->
<!-- Title: a_graph Pages: 1 -->
<svg width="2814pt" height="119pt"
 viewBox="0.00 0.00 2814.00 119.00" xmlns="http://www.w3.org/2000/svg" xmlns:xlink="http://www.w3.org/1999/xlink">
<g id="graph0" class="graph" transform="scale(1 1) rotate(0) translate(4 115)">
<title>a_graph</title>
<polygon fill="#ffffff" stroke="transparent" points="-4,4 -4,-115 2810,-115 2810,4 -4,4"/>
<!-- T10285 -->
<g id="node1" class="node">
<title>T10285</title>
<polygon fill="none" stroke="#0058ad" points="0,-81.5 0,-110.5 1489,-110.5 1489,-81.5 0,-81.5"/>
<text text-anchor="middle" x="716" y="-92.3" font-family="Times,serif" font-size="14.00" fill="#0058ad">r 53 [1 2 4 5 3 8 9 10 11 12 13 14 16 15 17 18 19 20 21 22 23 24 25 26 27 28 29 30 32 33 31 34 36 37 38 42 39 40 41 43 44 45 46 47 48 49 50 51 52 53 54 56 55 57 58 59 60 61 62 63 64 66 67 68 65 69 70 71 72 73 74 75 77 78 80 81 84 85 86 87 88 89 90]</text>
<polyline fill="none" stroke="#0058ad" points="1432,-81.5 1432,-110.5 "/>
<text text-anchor="middle" x="1460.5" y="-92.3" font-family="Times,serif" font-size="14.00" fill="#0058ad">a 56 10</text>
</g>
<!-- T10287 -->
<g id="node2" class="node">
<title>T10287</title>
<polygon fill="none" stroke="#0058ad" points="1179,-.5 1179,-29.5 2806,-29.5 2806,-.5 1179,-.5"/>
<text text-anchor="middle" x="1207.5" y="-11.3" font-family="Times,serif" font-size="14.00" fill="#0058ad">a 53 91</text>
<polyline fill="none" stroke="#0058ad" points="1236,-.5 1236,-29.5 "/>
<text text-anchor="middle" x="1296.5" y="-11.3" font-family="Times,serif" font-size="14.00" fill="#0058ad">r 56 [2 3 4 5 6 7 9]</text>
<polyline fill="none" stroke="#0058ad" points="1357,-.5 1357,-29.5 "/>
<text text-anchor="middle" x="2081.5" y="-11.3" font-family="Times,serif" font-size="14.00" fill="#0058ad">r 53 [1 2 4 5 3 8 9 10 11 12 13 14 16 15 17 18 19 20 21 22 23 24 25 26 27 28 29 30 32 33 31 34 36 37 38 42 39 40 41 43 44 45 46 47 48 49 50 51 52 53 54 56 55 57 58 59 60 61 62 63 64 66 67 68 65 69 70 71 72 73 74 75 77 78 80 81 84 85 86 87 88 89 90 91]</text>
</g>
<!-- T10285&#45;&gt;T10287 -->
<g id="edge1" class="edge">
<title>T10285:f0&#45;&gt;T10287:f0</title>
<path fill="none" stroke="#5b00c0" d="M715.5,-81C715.5,-31.5728 1087.3753,-16.4611 1168.4094,-15.1032"/>
<polygon fill="#5b00c0" stroke="#5b00c0" points="1168.5363,-18.6022 1178.5,-15 1168.4647,-11.6025 1168.5363,-18.6022"/>
<text text-anchor="middle" x="784" y="-51.8" font-family="Times,serif" font-size="14.00" fill="#5b00c0">rw</text>
</g>
<!-- T10287&#45;&gt;T10285 -->
<g id="edge2" class="edge">
<title>T10287:f1&#45;&gt;T10285:f1</title>
<path fill="none" stroke="#5b00c0" d="M1296.5,-30C1296.5,-102.6048 1444.8754,-14.1718 1459.3652,-71.0502"/>
<polygon fill="#5b00c0" stroke="#5b00c0" points="1455.8892,-71.4611 1460.5,-81 1462.8441,-70.6678 1455.8892,-71.4611"/>
<text text-anchor="middle" x="1461" y="-51.8" font-family="Times,serif" font-size="14.00" fill="#5b00c0">rw</text>
</g>
</g>
</svg>
