<?xml version="1.0" encoding="UTF-8" standalone="no"?>
<!DOCTYPE svg PUBLIC "-//W3C//DTD SVG 1.1//EN"
 "http://www.w3.org/Graphics/SVG/1.1/DTD/svg11.dtd">
<!-- Generated by graphviz version 2.40.1 (20161225.0304)
 -->
<!-- Title: a_graph Pages: 1 -->
<svg width="2703pt" height="119pt"
 viewBox="0.00 0.00 2703.00 119.00" xmlns="http://www.w3.org/2000/svg" xmlns:xlink="http://www.w3.org/1999/xlink">
<g id="graph0" class="graph" transform="scale(1 1) rotate(0) translate(4 115)">
<title>a_graph</title>
<polygon fill="#ffffff" stroke="transparent" points="-4,4 -4,-115 2699,-115 2699,4 -4,4"/>
<!-- T8427 -->
<g id="node1" class="node">
<title>T8427</title>
<polygon fill="none" stroke="#0058ad" points="630,-81.5 630,-110.5 2695,-110.5 2695,-81.5 630,-81.5"/>
<text text-anchor="middle" x="658.5" y="-92.3" font-family="Times,serif" font-size="14.00" fill="#0058ad">a 45 67</text>
<polyline fill="none" stroke="#0058ad" points="687,-81.5 687,-110.5 "/>
<text text-anchor="middle" x="1189" y="-92.3" font-family="Times,serif" font-size="14.00" fill="#0058ad">r 47 [1 2 3 4 5 6 8 9 7 10 12 13 11 14 15 17 27 26 28 29 31 32 33 30 34 36 37 35 39 40 42 43 41 44 45 38 46 47 48 53 55 57 60 61 58 59 56 62 63 64 65 66 67 68 69 71 72 73 74]</text>
<polyline fill="none" stroke="#0058ad" points="1691,-81.5 1691,-110.5 "/>
<text text-anchor="middle" x="2193" y="-92.3" font-family="Times,serif" font-size="14.00" fill="#0058ad">r 47 [1 2 3 4 5 6 8 9 7 10 12 13 11 14 15 17 27 26 28 29 31 32 33 30 34 36 37 35 39 40 42 43 41 44 45 38 46 47 48 53 55 57 60 61 58 59 56 62 63 64 65 66 67 68 69 71 72 73 74]</text>
</g>
<!-- T8425 -->
<g id="node2" class="node">
<title>T8425</title>
<polygon fill="none" stroke="#0058ad" points="0,-.5 0,-29.5 1289,-29.5 1289,-.5 0,-.5"/>
<text text-anchor="middle" x="443.5" y="-11.3" font-family="Times,serif" font-size="14.00" fill="#0058ad">r 45 [1 2 5 7 8 9 10 11 12 13 14 19 15 20 21 22 23 25 24 26 27 28 30 31 29 16 37 38 39 35 46 47 50 48 49 51 53 54 55 52 56 57 58 59 60 61 62 63 64 65 66]</text>
<polyline fill="none" stroke="#0058ad" points="887,-.5 887,-29.5 "/>
<text text-anchor="middle" x="1059.5" y="-11.3" font-family="Times,serif" font-size="14.00" fill="#0058ad">r 46 [2 3 4 5 6 8 9 13 14 15 16 17 18 19 20 21 22 24 25 26]</text>
<polyline fill="none" stroke="#0058ad" points="1232,-.5 1232,-29.5 "/>
<text text-anchor="middle" x="1260.5" y="-11.3" font-family="Times,serif" font-size="14.00" fill="#0058ad">a 47 75</text>
</g>
<!-- T8427&#45;&gt;T8425 -->
<g id="edge1" class="edge">
<title>T8427:f1&#45;&gt;T8425:f2</title>
<path fill="none" stroke="#5b00c0" d="M1188.5,-81C1188.5,-45.7682 1246.6177,-64.3304 1258.4228,-40.0255"/>
<polygon fill="#5b00c0" stroke="#5b00c0" points="1261.8983,-40.5021 1260.5,-30 1255.0439,-39.0819 1261.8983,-40.5021"/>
<text text-anchor="middle" x="1257" y="-51.8" font-family="Times,serif" font-size="14.00" fill="#5b00c0">rw</text>
</g>
<!-- T8425&#45;&gt;T8427 -->
<g id="edge2" class="edge">
<title>T8425:f0&#45;&gt;T8427:f0</title>
<path fill="none" stroke="#5b00c0" d="M443.5,-30C443.5,-70.8602 566.8724,-92.8713 619.2046,-95.6897"/>
<polygon fill="#5b00c0" stroke="#5b00c0" points="619.3991,-99.1971 629.5,-96 619.61,-92.2003 619.3991,-99.1971"/>
<text text-anchor="middle" x="479" y="-51.8" font-family="Times,serif" font-size="14.00" fill="#5b00c0">rw</text>
</g>
</g>
</svg>
