<?xml version="1.0" encoding="UTF-8" standalone="no"?>
<!DOCTYPE svg PUBLIC "-//W3C//DTD SVG 1.1//EN"
 "http://www.w3.org/Graphics/SVG/1.1/DTD/svg11.dtd">
<!-- Generated by graphviz version 2.40.1 (20161225.0304)
 -->
<!-- Title: a_graph Pages: 1 -->
<svg width="2412pt" height="119pt"
 viewBox="0.00 0.00 2412.00 119.00" xmlns="http://www.w3.org/2000/svg" xmlns:xlink="http://www.w3.org/1999/xlink">
<g id="graph0" class="graph" transform="scale(1 1) rotate(0) translate(4 115)">
<title>a_graph</title>
<polygon fill="#ffffff" stroke="transparent" points="-4,4 -4,-115 2408,-115 2408,4 -4,4"/>
<!-- T15769 -->
<g id="node1" class="node">
<title>T15769</title>
<polygon fill="none" stroke="#0058ad" points="945.5,-81.5 945.5,-110.5 1644.5,-110.5 1644.5,-81.5 945.5,-81.5"/>
<text text-anchor="middle" x="1266.5" y="-92.3" font-family="Times,serif" font-size="14.00" fill="#0058ad">r 83 [1 2 3 4 5 6 7 8 9 11 12 13 14 15 16 18 19 20 21 22 23 24 25 26 27 28 29 30 31 32 33 34 37 38 39 40 41 42]</text>
<polyline fill="none" stroke="#0058ad" points="1587.5,-81.5 1587.5,-110.5 "/>
<text text-anchor="middle" x="1616" y="-92.3" font-family="Times,serif" font-size="14.00" fill="#0058ad">a 81 67</text>
</g>
<!-- T15770 -->
<g id="node2" class="node">
<title>T15770</title>
<polygon fill="none" stroke="#0058ad" points="0,-.5 0,-29.5 2404,-29.5 2404,-.5 0,-.5"/>
<text text-anchor="middle" x="321" y="-11.3" font-family="Times,serif" font-size="14.00" fill="#0058ad">r 83 [1 2 3 4 5 6 7 8 9 11 12 13 14 15 16 18 19 20 21 22 23 24 25 26 27 28 29 30 31 32 33 34 37 38 39 40 41 42]</text>
<polyline fill="none" stroke="#0058ad" points="642,-.5 642,-29.5 "/>
<text text-anchor="middle" x="1165" y="-11.3" font-family="Times,serif" font-size="14.00" fill="#0058ad">r 81 [1 2 3 4 5 6 7 8 10 11 12 13 14 15 16 17 19 20 21 22 23 24 25 26 27 28 29 30 31 32 33 34 35 36 37 38 39 40 41 43 44 42 45 46 47 48 49 50 52 54 55 56 57 58 59 60 61 63 64 65 66]</text>
<polyline fill="none" stroke="#0058ad" points="1688,-.5 1688,-29.5 "/>
<text text-anchor="middle" x="1716.5" y="-11.3" font-family="Times,serif" font-size="14.00" fill="#0058ad">a 83 43</text>
<polyline fill="none" stroke="#0058ad" points="1745,-.5 1745,-29.5 "/>
<text text-anchor="middle" x="2074.5" y="-11.3" font-family="Times,serif" font-size="14.00" fill="#0058ad">r 83 [1 2 3 4 5 6 7 8 9 11 12 13 14 15 16 18 19 20 21 22 23 24 25 26 27 28 29 30 31 32 33 34 37 38 39 40 41 42 43]</text>
</g>
<!-- T15769&#45;&gt;T15770 -->
<g id="edge1" class="edge">
<title>T15769:f0&#45;&gt;T15770:f2</title>
<path fill="none" stroke="#5b00c0" d="M1266,-81C1266,24.4692 1396.1837,-59.7174 1501,-48 1522.1293,-45.638 1674.2935,-52.1874 1709.6668,-37.185"/>
<polygon fill="#5b00c0" stroke="#5b00c0" points="1712.3066,-39.4986 1717,-30 1707.4076,-34.4985 1712.3066,-39.4986"/>
<text text-anchor="middle" x="1508.5" y="-51.8" font-family="Times,serif" font-size="14.00" fill="#5b00c0">rw</text>
</g>
<!-- T15770&#45;&gt;T15769 -->
<g id="edge2" class="edge">
<title>T15770:f1&#45;&gt;T15769:f1</title>
<path fill="none" stroke="#5b00c0" d="M1165,-30C1165,-49.5256 1496.8075,-44.4085 1516,-48 1558.2297,-55.9025 1607.195,-37.6661 1614.9442,-70.8242"/>
<polygon fill="#5b00c0" stroke="#5b00c0" points="1611.4865,-71.4146 1616,-81 1618.4492,-70.6921 1611.4865,-71.4146"/>
<text text-anchor="middle" x="1618.5" y="-51.8" font-family="Times,serif" font-size="14.00" fill="#5b00c0">rw</text>
</g>
</g>
</svg>
