<?xml version="1.0" encoding="UTF-8" standalone="no"?>
<!DOCTYPE svg PUBLIC "-//W3C//DTD SVG 1.1//EN"
 "http://www.w3.org/Graphics/SVG/1.1/DTD/svg11.dtd">
<!-- Generated by graphviz version 2.40.1 (20161225.0304)
 -->
<!-- Title: a_graph Pages: 1 -->
<svg width="1260pt" height="119pt"
 viewBox="0.00 0.00 1260.00 119.00" xmlns="http://www.w3.org/2000/svg" xmlns:xlink="http://www.w3.org/1999/xlink">
<g id="graph0" class="graph" transform="scale(1 1) rotate(0) translate(4 115)">
<title>a_graph</title>
<polygon fill="#ffffff" stroke="transparent" points="-4,4 -4,-115 1256,-115 1256,4 -4,4"/>
<!-- T9895 -->
<g id="node1" class="node">
<title>T9895</title>
<polygon fill="none" stroke="#0058ad" points="0,-81.5 0,-110.5 1252,-110.5 1252,-81.5 0,-81.5"/>
<text text-anchor="middle" x="284.5" y="-92.3" font-family="Times,serif" font-size="14.00" fill="#0058ad">r 53 [1 2 4 5 3 8 9 10 11 12 13 14 16 15 17 18 19 20 21 22 23 24 25 26 27 28 29 30 32 33 31 34 36]</text>
<polyline fill="none" stroke="#0058ad" points="569,-81.5 569,-110.5 "/>
<text text-anchor="middle" x="597.5" y="-92.3" font-family="Times,serif" font-size="14.00" fill="#0058ad">a 51 37</text>
<polyline fill="none" stroke="#0058ad" points="626,-81.5 626,-110.5 "/>
<text text-anchor="middle" x="654.5" y="-92.3" font-family="Times,serif" font-size="14.00" fill="#0058ad">a 55 26</text>
<polyline fill="none" stroke="#0058ad" points="683,-81.5 683,-110.5 "/>
<text text-anchor="middle" x="967.5" y="-92.3" font-family="Times,serif" font-size="14.00" fill="#0058ad">r 53 [1 2 4 5 3 8 9 10 11 12 13 14 16 15 17 18 19 20 21 22 23 24 25 26 27 28 29 30 32 33 31 34 36]</text>
</g>
<!-- T9893 -->
<g id="node2" class="node">
<title>T9893</title>
<polygon fill="none" stroke="#0058ad" points="7.5,-.5 7.5,-29.5 1138.5,-29.5 1138.5,-.5 7.5,-.5"/>
<text text-anchor="middle" x="251" y="-11.3" font-family="Times,serif" font-size="14.00" fill="#0058ad">r 55 [1 2 3 4 6 7 8 9 10 11 12 13 14 15 16 17 18 19 5 21 22 23 24 25 20 27 28 29 30]</text>
<polyline fill="none" stroke="#0058ad" points="494.5,-.5 494.5,-29.5 "/>
<text text-anchor="middle" x="523" y="-11.3" font-family="Times,serif" font-size="14.00" fill="#0058ad">a 53 37</text>
<polyline fill="none" stroke="#0058ad" points="551.5,-.5 551.5,-29.5 "/>
<text text-anchor="middle" x="845" y="-11.3" font-family="Times,serif" font-size="14.00" fill="#0058ad">r 53 [1 2 4 5 3 8 9 10 11 12 13 14 16 15 17 18 19 20 21 22 23 24 25 26 27 28 29 30 32 33 31 34 36 37]</text>
</g>
<!-- T9895&#45;&gt;T9893 -->
<g id="edge1" class="edge">
<title>T9895:f0&#45;&gt;T9893:f1</title>
<path fill="none" stroke="#5b00c0" d="M284,-81C284,-68.9878 471.0916,-48.9362 514.2104,-35.0712"/>
<polygon fill="#5b00c0" stroke="#5b00c0" points="516.0874,-38.0291 523,-30 512.5891,-31.9659 516.0874,-38.0291"/>
<text text-anchor="middle" x="453.5" y="-51.8" font-family="Times,serif" font-size="14.00" fill="#5b00c0">rw</text>
</g>
<!-- T9893&#45;&gt;T9895 -->
<g id="edge2" class="edge">
<title>T9893:f0&#45;&gt;T9895:f2</title>
<path fill="none" stroke="#5b00c0" d="M251,-30C251,-53.8617 441.3333,-44.9554 465,-48 546.3554,-58.4659 646.0142,-.6231 654.4284,-70.7611"/>
<polygon fill="#5b00c0" stroke="#5b00c0" points="650.9479,-71.2107 655,-81 657.937,-70.8204 650.9479,-71.2107"/>
<text text-anchor="middle" x="658.5" y="-51.8" font-family="Times,serif" font-size="14.00" fill="#5b00c0">rw</text>
</g>
</g>
</svg>
