<?xml version="1.0" encoding="UTF-8" standalone="no"?>
<!DOCTYPE svg PUBLIC "-//W3C//DTD SVG 1.1//EN"
 "http://www.w3.org/Graphics/SVG/1.1/DTD/svg11.dtd">
<!-- Generated by graphviz version 2.40.1 (20161225.0304)
 -->
<!-- Title: a_graph Pages: 1 -->
<svg width="806pt" height="524pt"
 viewBox="0.00 0.00 806.00 524.00" xmlns="http://www.w3.org/2000/svg" xmlns:xlink="http://www.w3.org/1999/xlink">
<g id="graph0" class="graph" transform="scale(1 1) rotate(0) translate(4 520)">
<title>a_graph</title>
<polygon fill="#ffffff" stroke="transparent" points="-4,4 -4,-520 802,-520 802,4 -4,4"/>
<!-- T13751 -->
<g id="node1" class="node">
<title>T13751</title>
<polygon fill="none" stroke="#ac6e00" points="0,-486.5 0,-515.5 212,-515.5 212,-486.5 0,-486.5"/>
<text text-anchor="middle" x="28" y="-497.3" font-family="Times,serif" font-size="14.00" fill="#ac6e00">r 72 nil</text>
<polyline fill="none" stroke="#ac6e00" points="56,-486.5 56,-515.5 "/>
<text text-anchor="middle" x="81" y="-497.3" font-family="Times,serif" font-size="14.00" fill="#ac6e00">a 72 8</text>
<polyline fill="none" stroke="#ac6e00" points="106,-486.5 106,-515.5 "/>
<text text-anchor="middle" x="134" y="-497.3" font-family="Times,serif" font-size="14.00" fill="#ac6e00">r 63 nil</text>
<polyline fill="none" stroke="#ac6e00" points="162,-486.5 162,-515.5 "/>
<text text-anchor="middle" x="187" y="-497.3" font-family="Times,serif" font-size="14.00" fill="#ac6e00">a 72 9</text>
</g>
<!-- T13803 -->
<g id="node7" class="node">
<title>T13803</title>
<polygon fill="none" stroke="#0058ad" points="127,-405.5 127,-434.5 405,-434.5 405,-405.5 127,-405.5"/>
<text text-anchor="middle" x="155.5" y="-416.3" font-family="Times,serif" font-size="14.00" fill="#0058ad">a 72 48</text>
<polyline fill="none" stroke="#0058ad" points="184,-405.5 184,-434.5 "/>
<text text-anchor="middle" x="237.5" y="-416.3" font-family="Times,serif" font-size="14.00" fill="#0058ad">r 72 [6 7 8 9 48]</text>
<polyline fill="none" stroke="#0058ad" points="291,-405.5 291,-434.5 "/>
<text text-anchor="middle" x="319.5" y="-416.3" font-family="Times,serif" font-size="14.00" fill="#0058ad">a 72 49</text>
<polyline fill="none" stroke="#0058ad" points="348,-405.5 348,-434.5 "/>
<text text-anchor="middle" x="376.5" y="-416.3" font-family="Times,serif" font-size="14.00" fill="#0058ad">a 72 50</text>
</g>
<!-- T13751&#45;&gt;T13803 -->
<g id="edge1" class="edge">
<title>T13751:f3&#45;&gt;T13803:f0</title>
<path fill="none" stroke="#c02700" d="M187,-486C187,-463.213 163.7949,-461.6566 156.9059,-445.1724"/>
<polygon fill="#c02700" stroke="#c02700" points="160.2818,-444.1844 155,-435 153.4015,-445.4735 160.2818,-444.1844"/>
<text text-anchor="middle" x="190" y="-456.8" font-family="Times,serif" font-size="14.00" fill="#c02700">ww</text>
</g>
<!-- T13749 -->
<g id="node2" class="node">
<title>T13749</title>
<polygon fill="none" stroke="#ac6e00" points="59,-.5 59,-29.5 279,-29.5 279,-.5 59,-.5"/>
<text text-anchor="middle" x="84" y="-11.3" font-family="Times,serif" font-size="14.00" fill="#ac6e00">a 72 6</text>
<polyline fill="none" stroke="#ac6e00" points="109,-.5 109,-29.5 "/>
<text text-anchor="middle" x="134" y="-11.3" font-family="Times,serif" font-size="14.00" fill="#ac6e00">a 72 7</text>
<polyline fill="none" stroke="#ac6e00" points="159,-.5 159,-29.5 "/>
<text text-anchor="middle" x="191" y="-11.3" font-family="Times,serif" font-size="14.00" fill="#ac6e00">a 67 121</text>
<polyline fill="none" stroke="#ac6e00" points="223,-.5 223,-29.5 "/>
<text text-anchor="middle" x="251" y="-11.3" font-family="Times,serif" font-size="14.00" fill="#ac6e00">r 70 nil</text>
</g>
<!-- T13749&#45;&gt;T13751 -->
<g id="edge2" class="edge">
<title>T13749:f1&#45;&gt;T13751:f1</title>
<path fill="none" stroke="#c02700" d="M134,-30C134,-46.7066 111.4741,-34.9844 101,-48 87.068,-65.3126 87,-73.7778 87,-96 87,-420 87,-420 87,-420 87,-445.7725 82.4063,-454.4234 81.2578,-475.9155"/>
<polygon fill="#c02700" stroke="#c02700" points="77.7568,-475.9138 81,-486 84.7545,-476.0927 77.7568,-475.9138"/>
<text text-anchor="middle" x="97" y="-254.3" font-family="Times,serif" font-size="14.00" fill="#c02700">ww</text>
</g>
<!-- T13799 -->
<g id="node3" class="node">
<title>T13799</title>
<polygon fill="none" stroke="#0058ad" points="254,-243.5 254,-272.5 610,-272.5 610,-243.5 254,-243.5"/>
<text text-anchor="middle" x="324.5" y="-254.3" font-family="Times,serif" font-size="14.00" fill="#0058ad">r 72 [6 7 8 9 48 49 50]</text>
<polyline fill="none" stroke="#0058ad" points="395,-243.5 395,-272.5 "/>
<text text-anchor="middle" x="423.5" y="-254.3" font-family="Times,serif" font-size="14.00" fill="#0058ad">a 72 51</text>
<polyline fill="none" stroke="#0058ad" points="452,-243.5 452,-272.5 "/>
<text text-anchor="middle" x="531" y="-254.3" font-family="Times,serif" font-size="14.00" fill="#0058ad">r 72 [6 7 8 9 48 49 50 51]</text>
</g>
<!-- T13805 -->
<g id="node4" class="node">
<title>T13805</title>
<polygon fill="none" stroke="#0058ad" points="185,-162.5 185,-191.5 299,-191.5 299,-162.5 185,-162.5"/>
<text text-anchor="middle" x="213.5" y="-173.3" font-family="Times,serif" font-size="14.00" fill="#0058ad">a 73 19</text>
<polyline fill="none" stroke="#0058ad" points="242,-162.5 242,-191.5 "/>
<text text-anchor="middle" x="270.5" y="-173.3" font-family="Times,serif" font-size="14.00" fill="#0058ad">a 69 62</text>
</g>
<!-- T13799&#45;&gt;T13805 -->
<g id="edge3" class="edge">
<title>T13799&#45;&gt;T13805</title>
<path fill="none" stroke="#0050c0" d="M397.5924,-243.3315C366.1173,-229.9132 319.4121,-210.002 285.3885,-195.4972"/>
<polygon fill="#0050c0" stroke="#0050c0" points="286.7231,-192.2614 276.1516,-191.5594 283.9779,-198.7007 286.7231,-192.2614"/>
<text text-anchor="middle" x="358.5" y="-213.8" font-family="Times,serif" font-size="14.00" fill="#0050c0">rt</text>
</g>
<!-- T13813 -->
<g id="node6" class="node">
<title>T13813</title>
<polygon fill="none" stroke="#0058ad" points="149,-81.5 149,-110.5 203,-110.5 203,-81.5 149,-81.5"/>
<text text-anchor="middle" x="176" y="-92.3" font-family="Times,serif" font-size="14.00" fill="#0058ad">r 72 []</text>
</g>
<!-- T13805&#45;&gt;T13813 -->
<g id="edge4" class="edge">
<title>T13805&#45;&gt;T13813</title>
<path fill="none" stroke="#0050c0" d="M229.8946,-162.1434C220.0328,-150.0403 205.9419,-132.7468 194.6414,-118.8781"/>
<polygon fill="#0050c0" stroke="#0050c0" points="197.0588,-116.304 188.0287,-110.7625 191.6321,-120.7257 197.0588,-116.304"/>
<text text-anchor="middle" x="218.5" y="-132.8" font-family="Times,serif" font-size="14.00" fill="#0050c0">rt</text>
</g>
<!-- T13801 -->
<g id="node5" class="node">
<title>T13801</title>
<polygon fill="none" stroke="#0058ad" points="203,-324.5 203,-353.5 763,-353.5 763,-324.5 203,-324.5"/>
<text text-anchor="middle" x="228.5" y="-335.3" font-family="Times,serif" font-size="14.00" fill="#0058ad">r 73 []</text>
<polyline fill="none" stroke="#0058ad" points="254,-324.5 254,-353.5 "/>
<text text-anchor="middle" x="324.5" y="-335.3" font-family="Times,serif" font-size="14.00" fill="#0058ad">r 72 [6 7 8 9 48 49 50]</text>
<polyline fill="none" stroke="#0058ad" points="395,-324.5 395,-353.5 "/>
<text text-anchor="middle" x="420.5" y="-335.3" font-family="Times,serif" font-size="14.00" fill="#0058ad">r 73 []</text>
<polyline fill="none" stroke="#0058ad" points="446,-324.5 446,-353.5 "/>
<text text-anchor="middle" x="604.5" y="-335.3" font-family="Times,serif" font-size="14.00" fill="#0058ad">r 63 [2 5 6 7 8 9 10 11 12 13 14 15 16 17 41 44 50 62]</text>
</g>
<!-- T13801&#45;&gt;T13799 -->
<g id="edge5" class="edge">
<title>T13801:f1&#45;&gt;T13799:f1</title>
<path fill="none" stroke="#5b00c0" d="M324,-324C324,-278.3716 408.1355,-315.5917 421.2817,-282.9084"/>
<polygon fill="#5b00c0" stroke="#5b00c0" points="424.7397,-283.451 423,-273 417.8427,-282.2549 424.7397,-283.451"/>
<text text-anchor="middle" x="421.5" y="-294.8" font-family="Times,serif" font-size="14.00" fill="#5b00c0">rw</text>
</g>
<!-- T13801&#45;&gt;T13805 -->
<g id="edge6" class="edge">
<title>T13801:f0&#45;&gt;T13805:f0</title>
<path fill="none" stroke="#5b00c0" d="M228,-324C228,-268.5307 214.7614,-252.8943 213.1583,-202.2485"/>
<polygon fill="#5b00c0" stroke="#5b00c0" points="216.6541,-201.9447 213,-192 209.655,-202.0529 216.6541,-201.9447"/>
<text text-anchor="middle" x="230.5" y="-254.3" font-family="Times,serif" font-size="14.00" fill="#5b00c0">rw</text>
</g>
<!-- T13813&#45;&gt;T13749 -->
<g id="edge7" class="edge">
<title>T13813:f0&#45;&gt;T13749:f0</title>
<path fill="none" stroke="#5b00c0" d="M151.8281,-81.4877C130.9587,-68.6481 102.286,-50.1852 89.992,-38.4866"/>
<polygon fill="#5b00c0" stroke="#5b00c0" points="92.627,-36.1503 84,-30 86.9087,-40.1878 92.627,-36.1503"/>
<text text-anchor="middle" x="129.5" y="-51.8" font-family="Times,serif" font-size="14.00" fill="#5b00c0">rw</text>
</g>
<!-- T13803&#45;&gt;T13799 -->
<g id="edge10" class="edge">
<title>T13803:f3&#45;&gt;T13799:f1</title>
<path fill="none" stroke="#c02700" d="M405,-420C487.8639,-420 718.8442,-417.5679 772,-354 780.5531,-343.7715 780.7199,-334.0867 772,-324 748.4228,-296.727 472.8805,-309.6375 428.9019,-281.3713"/>
<polygon fill="#c02700" stroke="#c02700" points="431.6227,-279.1563 423,-273 425.9016,-283.1898 431.6227,-279.1563"/>
<text text-anchor="middle" x="788" y="-335.3" font-family="Times,serif" font-size="14.00" fill="#c02700">ww</text>
</g>
<!-- T13803&#45;&gt;T13805 -->
<g id="edge8" class="edge">
<title>T13803&#45;&gt;T13805</title>
<path fill="none" stroke="#0050c0" d="M241.2939,-405.2594C224.4916,-393.6845 203.6275,-375.8855 194,-354 180.167,-322.5543 177.7208,-273.4337 209,-210 210.8947,-206.1577 213.4144,-202.4948 216.2203,-199.1011"/>
<polygon fill="#0050c0" stroke="#0050c0" points="218.8544,-201.4085 223.1269,-191.7134 213.7409,-196.6281 218.8544,-201.4085"/>
<text text-anchor="middle" x="189.5" y="-294.8" font-family="Times,serif" font-size="14.00" fill="#0050c0">rt</text>
</g>
<!-- T13803&#45;&gt;T13801 -->
<g id="edge9" class="edge">
<title>T13803:f3&#45;&gt;T13801:f1</title>
<path fill="none" stroke="#c000a5" d="M377,-405C377,-376.2685 336.0588,-383.8976 326.1433,-363.9722"/>
<polygon fill="#c000a5" stroke="#c000a5" points="329.5232,-363.0413 324,-354 322.6795,-364.5122 329.5232,-363.0413"/>
<text text-anchor="middle" x="373.5" y="-375.8" font-family="Times,serif" font-size="14.00" fill="#c000a5">wr</text>
</g>
</g>
</svg>
