<?xml version="1.0" encoding="UTF-8" standalone="no"?>
<!DOCTYPE svg PUBLIC "-//W3C//DTD SVG 1.1//EN"
 "http://www.w3.org/Graphics/SVG/1.1/DTD/svg11.dtd">
<!-- Generated by graphviz version 2.40.1 (20161225.0304)
 -->
<!-- Title: a_graph Pages: 1 -->
<svg width="1255pt" height="200pt"
 viewBox="0.00 0.00 1255.00 200.00" xmlns="http://www.w3.org/2000/svg" xmlns:xlink="http://www.w3.org/1999/xlink">
<g id="graph0" class="graph" transform="scale(1 1) rotate(0) translate(4 196)">
<title>a_graph</title>
<polygon fill="#ffffff" stroke="transparent" points="-4,4 -4,-196 1251,-196 1251,4 -4,4"/>
<!-- T9173 -->
<g id="node1" class="node">
<title>T9173</title>
<polygon fill="none" stroke="#0058ad" points="255,-162.5 255,-191.5 1247,-191.5 1247,-162.5 255,-162.5"/>
<text text-anchor="middle" x="283.5" y="-173.3" font-family="Times,serif" font-size="14.00" fill="#0058ad">a 50 51</text>
<polyline fill="none" stroke="#0058ad" points="312,-162.5 312,-191.5 "/>
<text text-anchor="middle" x="722.5" y="-173.3" font-family="Times,serif" font-size="14.00" fill="#0058ad">r 49 [1 2 3 4 6 7 8 9 10 11 12 13 14 16 15 17 18 19 20 22 21 23 24 25 26 27 28 29 30 31 33 34 35 32 36 37 38 39 40 41 42 43 44 45 46 48 49 50]</text>
<polyline fill="none" stroke="#0058ad" points="1133,-162.5 1133,-191.5 "/>
<text text-anchor="middle" x="1161.5" y="-173.3" font-family="Times,serif" font-size="14.00" fill="#0058ad">a 50 52</text>
<polyline fill="none" stroke="#0058ad" points="1190,-162.5 1190,-191.5 "/>
<text text-anchor="middle" x="1218.5" y="-173.3" font-family="Times,serif" font-size="14.00" fill="#0058ad">a 50 53</text>
</g>
<!-- T9169 -->
<g id="node2" class="node">
<title>T9169</title>
<polygon fill="none" stroke="#0058ad" points="458,-81.5 458,-110.5 572,-110.5 572,-81.5 458,-81.5"/>
<text text-anchor="middle" x="486.5" y="-92.3" font-family="Times,serif" font-size="14.00" fill="#0058ad">a 49 52</text>
<polyline fill="none" stroke="#0058ad" points="515,-81.5 515,-110.5 "/>
<text text-anchor="middle" x="543.5" y="-92.3" font-family="Times,serif" font-size="14.00" fill="#0058ad">a 46 81</text>
</g>
<!-- T9173&#45;&gt;T9169 -->
<g id="edge1" class="edge">
<title>T9173:f1&#45;&gt;T9169:f0</title>
<path fill="none" stroke="#5b00c0" d="M722,-162C722,-58.3577 501.8571,-207.4416 486.8083,-121.0756"/>
<polygon fill="#5b00c0" stroke="#5b00c0" points="490.2885,-120.6881 486,-111 483.3109,-121.2479 490.2885,-120.6881"/>
<text text-anchor="middle" x="724.5" y="-132.8" font-family="Times,serif" font-size="14.00" fill="#5b00c0">rw</text>
</g>
<!-- T9171 -->
<g id="node3" class="node">
<title>T9171</title>
<polygon fill="none" stroke="#0058ad" points="0,-.5 0,-29.5 694,-29.5 694,-.5 0,-.5"/>
<text text-anchor="middle" x="347" y="-11.3" font-family="Times,serif" font-size="14.00" fill="#0058ad">r 50 [1 2 3 4 5 7 8 6 9 11 12 13 10 14 16 15 17 18 20 21 19 23 24 25 26 27 22 28 31 29 30 32 35 36 37 38 39 41 42 46 40]</text>
</g>
<!-- T9169&#45;&gt;T9171 -->
<g id="edge2" class="edge">
<title>T9169&#45;&gt;T9171</title>
<path fill="none" stroke="#0050c0" d="M484.5765,-81.3315C457.1026,-68.0852 416.5053,-48.5115 386.5271,-34.0577"/>
<polygon fill="#0050c0" stroke="#0050c0" points="387.725,-30.7497 377.1972,-29.5594 384.6848,-37.0551 387.725,-30.7497"/>
<text text-anchor="middle" x="450.5" y="-51.8" font-family="Times,serif" font-size="14.00" fill="#0050c0">rt</text>
</g>
<!-- T9171&#45;&gt;T9173 -->
<g id="edge3" class="edge">
<title>T9171:f0&#45;&gt;T9173:f0</title>
<path fill="none" stroke="#5b00c0" d="M335.8521,-29.5289C318.6975,-53.2854 287.3821,-102.7353 283.4166,-151.86"/>
<polygon fill="#5b00c0" stroke="#5b00c0" points="279.9135,-151.8647 283,-162 286.9076,-152.1521 279.9135,-151.8647"/>
<text text-anchor="middle" x="312.5" y="-92.3" font-family="Times,serif" font-size="14.00" fill="#5b00c0">rw</text>
</g>
</g>
</svg>
