<?xml version="1.0" encoding="UTF-8" standalone="no"?>
<!DOCTYPE svg PUBLIC "-//W3C//DTD SVG 1.1//EN"
 "http://www.w3.org/Graphics/SVG/1.1/DTD/svg11.dtd">
<!-- Generated by graphviz version 2.40.1 (20161225.0304)
 -->
<!-- Title: a_graph Pages: 1 -->
<svg width="2207pt" height="119pt"
 viewBox="0.00 0.00 2206.50 119.00" xmlns="http://www.w3.org/2000/svg" xmlns:xlink="http://www.w3.org/1999/xlink">
<g id="graph0" class="graph" transform="scale(1 1) rotate(0) translate(4 115)">
<title>a_graph</title>
<polygon fill="#ffffff" stroke="transparent" points="-4,4 -4,-115 2202.5,-115 2202.5,4 -4,4"/>
<!-- T3551 -->
<g id="node1" class="node">
<title>T3551</title>
<polygon fill="none" stroke="#0058ad" points="0,-81.5 0,-110.5 2140,-110.5 2140,-81.5 0,-81.5"/>
<text text-anchor="middle" x="28.5" y="-92.3" font-family="Times,serif" font-size="14.00" fill="#0058ad">a 23 21</text>
<polyline fill="none" stroke="#0058ad" points="57,-81.5 57,-110.5 "/>
<text text-anchor="middle" x="85.5" y="-92.3" font-family="Times,serif" font-size="14.00" fill="#0058ad">a 24 79</text>
<polyline fill="none" stroke="#0058ad" points="114,-81.5 114,-110.5 "/>
<text text-anchor="middle" x="530" y="-92.3" font-family="Times,serif" font-size="14.00" fill="#0058ad">r 22 [1 2 3 4 5 6 7 8 9 10 11 12 13 14 15 16 17 18 19 20 21 22 23 24 25 26 27 28 31 33 34 35 36 37 38 39 41 42 43 44 45 46 47 48 49 50 51 53 55]</text>
<polyline fill="none" stroke="#0058ad" points="946,-81.5 946,-110.5 "/>
<text text-anchor="middle" x="1543" y="-92.3" font-family="Times,serif" font-size="14.00" fill="#0058ad">r 24 [1 2 3 4 5 6 7 8 9 10 11 12 15 16 17 19 20 21 22 23 24 25 28 26 27 29 30 31 32 34 33 35 36 37 40 41 38 39 46 47 45 48 49 50 51 52 55 56 57 58 59 61 60 62 64 63 65 66 67 68 69 70 71 72 74 73 75 77 78 79]</text>
</g>
<!-- T3553 -->
<g id="node2" class="node">
<title>T3553</title>
<polygon fill="none" stroke="#0058ad" points="115.5,-.5 115.5,-29.5 2198.5,-29.5 2198.5,-.5 115.5,-.5"/>
<text text-anchor="middle" x="144" y="-11.3" font-family="Times,serif" font-size="14.00" fill="#0058ad">a 22 56</text>
<polyline fill="none" stroke="#0058ad" points="172.5,-.5 172.5,-29.5 "/>
<text text-anchor="middle" x="761" y="-11.3" font-family="Times,serif" font-size="14.00" fill="#0058ad">r 24 [1 2 3 4 5 6 7 8 9 10 11 12 15 16 17 19 20 21 22 23 24 25 28 26 27 29 30 31 32 34 33 35 36 37 40 41 38 39 46 47 45 48 49 50 51 52 55 56 57 58 59 61 60 62 64 63 65 66 67 68 69 70 71 72 74 73 75 77 78]</text>
<polyline fill="none" stroke="#0058ad" points="1349.5,-.5 1349.5,-29.5 "/>
<text text-anchor="middle" x="1774" y="-11.3" font-family="Times,serif" font-size="14.00" fill="#0058ad">r 22 [1 2 3 4 5 6 7 8 9 10 11 12 13 14 15 16 17 18 19 20 21 22 23 24 25 26 27 28 31 33 34 35 36 37 38 39 41 42 43 44 45 46 47 48 49 50 51 53 55 56]</text>
</g>
<!-- T3551&#45;&gt;T3553 -->
<g id="edge1" class="edge">
<title>T3551:f2&#45;&gt;T3553:f0</title>
<path fill="none" stroke="#5b00c0" d="M530,-81C530,-61.2703 208.8698,-53.0984 152.4211,-35.4004"/>
<polygon fill="#5b00c0" stroke="#5b00c0" points="154.3072,-32.452 144,-30 150.5284,-38.3445 154.3072,-32.452"/>
<text text-anchor="middle" x="434.5" y="-51.8" font-family="Times,serif" font-size="14.00" fill="#5b00c0">rw</text>
</g>
<!-- T3553&#45;&gt;T3551 -->
<g id="edge2" class="edge">
<title>T3553:f1&#45;&gt;T3551:f1</title>
<path fill="none" stroke="#5b00c0" d="M761,-30C761,-170.7662 586.348,-52.1576 446,-63 427.8952,-64.3987 147.3259,-61.5664 93.789,-75.8608"/>
<polygon fill="#5b00c0" stroke="#5b00c0" points="91.8658,-72.9308 85,-81 95.3993,-78.9736 91.8658,-72.9308"/>
<text text-anchor="middle" x="767.5" y="-51.8" font-family="Times,serif" font-size="14.00" fill="#5b00c0">rw</text>
</g>
</g>
</svg>
