<?xml version="1.0" encoding="UTF-8" standalone="no"?>
<!DOCTYPE svg PUBLIC "-//W3C//DTD SVG 1.1//EN"
 "http://www.w3.org/Graphics/SVG/1.1/DTD/svg11.dtd">
<!-- Generated by graphviz version 2.40.1 (20161225.0304)
 -->
<!-- Title: a_graph Pages: 1 -->
<svg width="2473pt" height="119pt"
 viewBox="0.00 0.00 2473.00 119.00" xmlns="http://www.w3.org/2000/svg" xmlns:xlink="http://www.w3.org/1999/xlink">
<g id="graph0" class="graph" transform="scale(1 1) rotate(0) translate(4 115)">
<title>a_graph</title>
<polygon fill="#ffffff" stroke="transparent" points="-4,4 -4,-115 2469,-115 2469,4 -4,4"/>
<!-- T3569 -->
<g id="node1" class="node">
<title>T3569</title>
<polygon fill="none" stroke="#0058ad" points="0,-81.5 0,-110.5 2256,-110.5 2256,-81.5 0,-81.5"/>
<text text-anchor="middle" x="649" y="-92.3" font-family="Times,serif" font-size="14.00" fill="#0058ad">r 24 [1 2 3 4 5 6 7 8 9 10 11 12 15 16 17 19 20 21 22 23 24 25 28 26 27 29 30 31 32 34 33 35 36 37 40 41 38 39 46 47 45 48 49 50 51 52 55 56 57 58 59 61 60 62 64 63 65 66 67 68 69 70 71 72 74 73 75 77 78 79 80 81 82 83 84 86]</text>
<polyline fill="none" stroke="#0058ad" points="1298,-81.5 1298,-110.5 "/>
<text text-anchor="middle" x="1748.5" y="-92.3" font-family="Times,serif" font-size="14.00" fill="#0058ad">r 22 [1 2 3 4 5 6 7 8 9 10 11 12 13 14 15 16 17 18 19 20 21 22 23 24 25 26 27 28 31 33 34 35 36 37 38 39 41 42 43 44 45 46 47 48 49 50 51 53 55 56 58 57 59]</text>
<polyline fill="none" stroke="#0058ad" points="2199,-81.5 2199,-110.5 "/>
<text text-anchor="middle" x="2227.5" y="-92.3" font-family="Times,serif" font-size="14.00" fill="#0058ad">a 24 85</text>
</g>
<!-- T3573 -->
<g id="node2" class="node">
<title>T3573</title>
<polygon fill="none" stroke="#0058ad" points="209,-.5 209,-29.5 2465,-29.5 2465,-.5 209,-.5"/>
<text text-anchor="middle" x="659.5" y="-11.3" font-family="Times,serif" font-size="14.00" fill="#0058ad">r 22 [1 2 3 4 5 6 7 8 9 10 11 12 13 14 15 16 17 18 19 20 21 22 23 24 25 26 27 28 31 33 34 35 36 37 38 39 41 42 43 44 45 46 47 48 49 50 51 53 55 56 58 57 59]</text>
<polyline fill="none" stroke="#0058ad" points="1110,-.5 1110,-29.5 "/>
<text text-anchor="middle" x="1759" y="-11.3" font-family="Times,serif" font-size="14.00" fill="#0058ad">r 24 [1 2 3 4 5 6 7 8 9 10 11 12 15 16 17 19 20 21 22 23 24 25 28 26 27 29 30 31 32 34 33 35 36 37 40 41 38 39 46 47 45 48 49 50 51 52 55 56 57 58 59 61 60 62 64 63 65 66 67 68 69 70 71 72 74 73 75 77 78 79 80 81 82 83 84 86]</text>
<polyline fill="none" stroke="#0058ad" points="2408,-.5 2408,-29.5 "/>
<text text-anchor="middle" x="2436.5" y="-11.3" font-family="Times,serif" font-size="14.00" fill="#0058ad">a 22 60</text>
</g>
<!-- T3569&#45;&gt;T3573 -->
<g id="edge1" class="edge">
<title>T3569:f1&#45;&gt;T3573:f2</title>
<path fill="none" stroke="#5b00c0" d="M1749,-81C1749,66.8404 1932.5738,-59.059 2080,-48 2097.9077,-46.6567 2375.3654,-49.2627 2428.3085,-35.0886"/>
<polygon fill="#5b00c0" stroke="#5b00c0" points="2430.1386,-38.0729 2437,-30 2426.6019,-32.0321 2430.1386,-38.0729"/>
<text text-anchor="middle" x="2087.5" y="-51.8" font-family="Times,serif" font-size="14.00" fill="#5b00c0">rw</text>
</g>
<!-- T3573&#45;&gt;T3569 -->
<g id="edge2" class="edge">
<title>T3573:f1&#45;&gt;T3569:f2</title>
<path fill="none" stroke="#5b00c0" d="M1759,-30C1759,-48.6934 2076.5119,-45.2367 2095,-48 2151.5874,-56.4577 2219.2345,-24.3973 2227.2187,-70.9812"/>
<polygon fill="#5b00c0" stroke="#5b00c0" points="2223.733,-71.3024 2228,-81 2230.7118,-70.7581 2223.733,-71.3024"/>
<text text-anchor="middle" x="2230.5" y="-51.8" font-family="Times,serif" font-size="14.00" fill="#5b00c0">rw</text>
</g>
</g>
</svg>
