<?xml version="1.0" encoding="UTF-8" standalone="no"?>
<!DOCTYPE svg PUBLIC "-//W3C//DTD SVG 1.1//EN"
 "http://www.w3.org/Graphics/SVG/1.1/DTD/svg11.dtd">
<!-- Generated by graphviz version 2.40.1 (20161225.0304)
 -->
<!-- Title: a_graph Pages: 1 -->
<svg width="2390pt" height="119pt"
 viewBox="0.00 0.00 2390.00 119.00" xmlns="http://www.w3.org/2000/svg" xmlns:xlink="http://www.w3.org/1999/xlink">
<g id="graph0" class="graph" transform="scale(1 1) rotate(0) translate(4 115)">
<title>a_graph</title>
<polygon fill="#ffffff" stroke="transparent" points="-4,4 -4,-115 2386,-115 2386,4 -4,4"/>
<!-- T9247 -->
<g id="node1" class="node">
<title>T9247</title>
<polygon fill="none" stroke="#0058ad" points="0,-81.5 0,-110.5 2382,-110.5 2382,-81.5 0,-81.5"/>
<text text-anchor="middle" x="479.5" y="-92.3" font-family="Times,serif" font-size="14.00" fill="#0058ad">r 49 [1 2 3 4 6 7 8 9 10 11 12 13 14 16 15 17 18 19 20 22 21 23 24 25 26 27 28 29 30 31 33 34 35 32 36 37 38 39 40 41 42 43 44 45 46 48 49 50 52 53 54 55 56 57 58 59]</text>
<polyline fill="none" stroke="#0058ad" points="959,-81.5 959,-110.5 "/>
<text text-anchor="middle" x="1597.5" y="-92.3" font-family="Times,serif" font-size="14.00" fill="#0058ad">r 46 [2 3 4 5 6 8 9 13 14 15 16 17 18 19 20 21 22 24 25 26 27 28 23 30 31 29 32 33 34 36 38 39 42 45 46 44 47 48 49 50 51 52 53 54 55 56 57 58 59 60 62 61 63 64 65 66 67 68 69 70 71 72 73 74 75 76 77 81 82 84 83 85 86 87]</text>
<polyline fill="none" stroke="#0058ad" points="2236,-81.5 2236,-110.5 "/>
<text text-anchor="middle" x="2280.5" y="-92.3" font-family="Times,serif" font-size="14.00" fill="#0058ad">r 51 [2 3 4 5]</text>
<polyline fill="none" stroke="#0058ad" points="2325,-81.5 2325,-110.5 "/>
<text text-anchor="middle" x="2353.5" y="-92.3" font-family="Times,serif" font-size="14.00" fill="#0058ad">a 50 71</text>
</g>
<!-- T9245 -->
<g id="node2" class="node">
<title>T9245</title>
<polygon fill="none" stroke="#0058ad" points="10,-.5 10,-29.5 2348,-29.5 2348,-.5 10,-.5"/>
<text text-anchor="middle" x="512" y="-11.3" font-family="Times,serif" font-size="14.00" fill="#0058ad">r 50 [1 2 3 4 5 7 8 6 9 11 12 13 10 14 16 15 17 18 20 21 19 23 24 25 26 27 22 28 31 29 30 32 35 36 37 38 39 41 42 46 40 51 52 53 54 55 58 59 60 61 56 62 64 65 63 66 69 70 72]</text>
<polyline fill="none" stroke="#0058ad" points="1014,-.5 1014,-29.5 "/>
<text text-anchor="middle" x="1652.5" y="-11.3" font-family="Times,serif" font-size="14.00" fill="#0058ad">r 46 [2 3 4 5 6 8 9 13 14 15 16 17 18 19 20 21 22 24 25 26 27 28 23 30 31 29 32 33 34 36 38 39 42 45 46 44 47 48 49 50 51 52 53 54 55 56 57 58 59 60 62 61 63 64 65 66 67 68 69 70 71 72 73 74 75 76 77 81 82 84 83 85 86 87]</text>
<polyline fill="none" stroke="#0058ad" points="2291,-.5 2291,-29.5 "/>
<text text-anchor="middle" x="2319.5" y="-11.3" font-family="Times,serif" font-size="14.00" fill="#0058ad">a 49 60</text>
</g>
<!-- T9247&#45;&gt;T9245 -->
<g id="edge1" class="edge">
<title>T9247:f0&#45;&gt;T9245:f2</title>
<path fill="none" stroke="#5b00c0" d="M479,-81C479,-68.7599 2165.1881,-44.9509 2310.0949,-31.7166"/>
<polygon fill="#5b00c0" stroke="#5b00c0" points="2310.7446,-35.1563 2320,-30 2309.5492,-28.2591 2310.7446,-35.1563"/>
<text text-anchor="middle" x="1731.5" y="-51.8" font-family="Times,serif" font-size="14.00" fill="#5b00c0">rw</text>
</g>
<!-- T9245&#45;&gt;T9247 -->
<g id="edge2" class="edge">
<title>T9245:f0&#45;&gt;T9247:f3</title>
<path fill="none" stroke="#5b00c0" d="M512,-30C512,-47.099 1725.911,-47.4138 1743,-48 1875.3126,-52.5387 2329.1815,49.3776 2353.024,-70.7457"/>
<polygon fill="#5b00c0" stroke="#5b00c0" points="2349.5682,-71.3766 2354,-81 2356.5367,-70.7133 2349.5682,-71.3766"/>
<text text-anchor="middle" x="2356.5" y="-51.8" font-family="Times,serif" font-size="14.00" fill="#5b00c0">rw</text>
</g>
</g>
</svg>
