<?xml version="1.0" encoding="UTF-8" standalone="no"?>
<!DOCTYPE svg PUBLIC "-//W3C//DTD SVG 1.1//EN"
 "http://www.w3.org/Graphics/SVG/1.1/DTD/svg11.dtd">
<!-- Generated by graphviz version 2.40.1 (20161225.0304)
 -->
<!-- Title: a_graph Pages: 1 -->
<svg width="1869pt" height="119pt"
 viewBox="0.00 0.00 1868.50 119.00" xmlns="http://www.w3.org/2000/svg" xmlns:xlink="http://www.w3.org/1999/xlink">
<g id="graph0" class="graph" transform="scale(1 1) rotate(0) translate(4 115)">
<title>a_graph</title>
<polygon fill="#ffffff" stroke="transparent" points="-4,4 -4,-115 1864.5,-115 1864.5,4 -4,4"/>
<!-- T8001 -->
<g id="node1" class="node">
<title>T8001</title>
<polygon fill="none" stroke="#0058ad" points="0,-81.5 0,-110.5 1273,-110.5 1273,-81.5 0,-81.5"/>
<text text-anchor="middle" x="322.5" y="-92.3" font-family="Times,serif" font-size="14.00" fill="#0058ad">r 36 [1 2 3 4 5 6 7 8 9 10 11 12 13 14 15 16 17 18 20 19 21 23 22 24 25 26 27 28 29 30 31 32 33 34 117 118 119]</text>
<polyline fill="none" stroke="#0058ad" points="645,-81.5 645,-110.5 "/>
<text text-anchor="middle" x="893" y="-92.3" font-family="Times,serif" font-size="14.00" fill="#0058ad">r 44 [21 40 20 41 18 42 43 44 46 47 45 48 49 50 51 52 53 54 55 56 57 58 62 63 64 66]</text>
<polyline fill="none" stroke="#0058ad" points="1141,-81.5 1141,-110.5 "/>
<text text-anchor="middle" x="1173" y="-92.3" font-family="Times,serif" font-size="14.00" fill="#0058ad">a 36 121</text>
<polyline fill="none" stroke="#0058ad" points="1205,-81.5 1205,-110.5 "/>
<text text-anchor="middle" x="1239" y="-92.3" font-family="Times,serif" font-size="14.00" fill="#0058ad">r 45 [1 2]</text>
</g>
<!-- T8003 -->
<g id="node2" class="node">
<title>T8003</title>
<polygon fill="none" stroke="#0058ad" points="588.5,-.5 588.5,-29.5 1860.5,-29.5 1860.5,-.5 588.5,-.5"/>
<text text-anchor="middle" x="617" y="-11.3" font-family="Times,serif" font-size="14.00" fill="#0058ad">a 37 73</text>
<polyline fill="none" stroke="#0058ad" points="645.5,-.5 645.5,-29.5 "/>
<text text-anchor="middle" x="674" y="-11.3" font-family="Times,serif" font-size="14.00" fill="#0058ad">a 44 73</text>
<polyline fill="none" stroke="#0058ad" points="702.5,-.5 702.5,-29.5 "/>
<text text-anchor="middle" x="959" y="-11.3" font-family="Times,serif" font-size="14.00" fill="#0058ad">r 44 [21 40 20 41 18 42 43 44 46 47 45 48 49 50 51 52 53 54 55 56 57 58 62 63 64 66 73]</text>
<polyline fill="none" stroke="#0058ad" points="1215.5,-.5 1215.5,-29.5 "/>
<text text-anchor="middle" x="1538" y="-11.3" font-family="Times,serif" font-size="14.00" fill="#0058ad">r 36 [1 2 3 4 5 6 7 8 9 10 11 12 13 14 15 16 17 18 20 19 21 23 22 24 25 26 27 28 29 30 31 32 33 34 117 118 119]</text>
</g>
<!-- T8001&#45;&gt;T8003 -->
<g id="edge1" class="edge">
<title>T8001:f1&#45;&gt;T8003:f1</title>
<path fill="none" stroke="#5b00c0" d="M893.5,-81C893.5,15.646 689.5252,-119.6015 674.3864,-40.1663"/>
<polygon fill="#5b00c0" stroke="#5b00c0" points="677.8555,-39.6582 673.5,-30 670.8819,-40.2662 677.8555,-39.6582"/>
<text text-anchor="middle" x="898" y="-51.8" font-family="Times,serif" font-size="14.00" fill="#5b00c0">rw</text>
</g>
<!-- T8003&#45;&gt;T8001 -->
<g id="edge2" class="edge">
<title>T8003:f3&#45;&gt;T8001:f2</title>
<path fill="none" stroke="#5b00c0" d="M1538.5,-30C1538.5,-190.1191 1189.7123,70.5951 1174.0441,-70.6194"/>
<polygon fill="#5b00c0" stroke="#5b00c0" points="1170.5284,-70.8305 1173.5,-81 1177.5188,-71.197 1170.5284,-70.8305"/>
<text text-anchor="middle" x="1542" y="-51.8" font-family="Times,serif" font-size="14.00" fill="#5b00c0">rw</text>
</g>
</g>
</svg>
