<?xml version="1.0" encoding="UTF-8" standalone="no"?>
<!DOCTYPE svg PUBLIC "-//W3C//DTD SVG 1.1//EN"
 "http://www.w3.org/Graphics/SVG/1.1/DTD/svg11.dtd">
<!-- Generated by graphviz version 2.40.1 (20161225.0304)
 -->
<!-- Title: a_graph Pages: 1 -->
<svg width="2747pt" height="119pt"
 viewBox="0.00 0.00 2747.00 119.00" xmlns="http://www.w3.org/2000/svg" xmlns:xlink="http://www.w3.org/1999/xlink">
<g id="graph0" class="graph" transform="scale(1 1) rotate(0) translate(4 115)">
<title>a_graph</title>
<polygon fill="#ffffff" stroke="transparent" points="-4,4 -4,-115 2743,-115 2743,4 -4,4"/>
<!-- T11333 -->
<g id="node1" class="node">
<title>T11333</title>
<polygon fill="none" stroke="#0058ad" points="662,-81.5 662,-110.5 2739,-110.5 2739,-81.5 662,-81.5"/>
<text text-anchor="middle" x="694" y="-92.3" font-family="Times,serif" font-size="14.00" fill="#0058ad">a 57 126</text>
<polyline fill="none" stroke="#0058ad" points="726,-81.5 726,-110.5 "/>
<text text-anchor="middle" x="758" y="-92.3" font-family="Times,serif" font-size="14.00" fill="#0058ad">a 57 127</text>
<polyline fill="none" stroke="#0058ad" points="790,-81.5 790,-110.5 "/>
<text text-anchor="middle" x="1348.5" y="-92.3" font-family="Times,serif" font-size="14.00" fill="#0058ad">r 40 [21 28 29 30 32 33 34 35 36 37 38 39 40 41 43 44 42 45 46 47 48 49 50 51 52 53 54 55 56 57 58 59 60 61 62 63 64 67 68 69 70 71 72 73 74 75 76 77 78 82 81 80 83 84 85 86 87 88 89 90 91 92]</text>
<polyline fill="none" stroke="#0058ad" points="1907,-81.5 1907,-110.5 "/>
<text text-anchor="middle" x="2323" y="-92.3" font-family="Times,serif" font-size="14.00" fill="#0058ad">r 59 [1 2 3 4 6 7 9 8 10 12 13 11 15 16 17 14 5 18 20 21 19 22 26 23 24 27 28 25 31 33 35 30 36 37 38 39 40 43 45 46 44 48 49 52 47 51 53 54 55]</text>
</g>
<!-- T11331 -->
<g id="node2" class="node">
<title>T11331</title>
<polygon fill="none" stroke="#0058ad" points="0,-.5 0,-29.5 2157,-29.5 2157,-.5 0,-.5"/>
<text text-anchor="middle" x="1018" y="-11.3" font-family="Times,serif" font-size="14.00" fill="#0058ad">r 57 [1 2 3 4 5 6 9 7 8 11 10 12 13 18 14 19 21 22 23 24 25 26 27 28 29 31 32 33 34 35 36 37 38 39 40 41 42 43 47 46 49 48 51 50 52 53 54 55 57 56 58 59 60 61 62 66 67 68 69 63 64 71 72 73 74 75 76 77 79 80 78 70 81 82 84 85 83 86 87 88 89 91 90 92 93 94 95 96 99 100 101 98 102 97 104 103 105 109 110 111 113 114 106 107 108 116 115 118 122 123 124]</text>
<polyline fill="none" stroke="#0058ad" points="2036,-.5 2036,-29.5 "/>
<text text-anchor="middle" x="2068" y="-11.3" font-family="Times,serif" font-size="14.00" fill="#0058ad">a 54 111</text>
<polyline fill="none" stroke="#0058ad" points="2100,-.5 2100,-29.5 "/>
<text text-anchor="middle" x="2128.5" y="-11.3" font-family="Times,serif" font-size="14.00" fill="#0058ad">a 59 56</text>
</g>
<!-- T11333&#45;&gt;T11331 -->
<g id="edge1" class="edge">
<title>T11333:f3&#45;&gt;T11331:f2</title>
<path fill="none" stroke="#5b00c0" d="M2323.5,-81C2323.5,-44.2487 2215.2499,-18.978 2167.683,-15.4294"/>
<polygon fill="#5b00c0" stroke="#5b00c0" points="2167.6386,-11.9245 2157.5,-15 2167.3436,-18.9183 2167.6386,-11.9245"/>
<text text-anchor="middle" x="2319" y="-51.8" font-family="Times,serif" font-size="14.00" fill="#5b00c0">rw</text>
</g>
<!-- T11331&#45;&gt;T11333 -->
<g id="edge2" class="edge">
<title>T11331:f0&#45;&gt;T11333:f0</title>
<path fill="none" stroke="#5b00c0" d="M1017.5,-30C1017.5,-172.2141 709.1272,53.2579 694.0699,-71.0028"/>
<polygon fill="#5b00c0" stroke="#5b00c0" points="690.5749,-70.817 693.5,-81 697.5636,-71.2155 690.5749,-70.817"/>
<text text-anchor="middle" x="1021" y="-51.8" font-family="Times,serif" font-size="14.00" fill="#5b00c0">rw</text>
</g>
</g>
</svg>
