<?xml version="1.0" encoding="UTF-8" standalone="no"?>
<!DOCTYPE svg PUBLIC "-//W3C//DTD SVG 1.1//EN"
 "http://www.w3.org/Graphics/SVG/1.1/DTD/svg11.dtd">
<!-- Generated by graphviz version 2.40.1 (20161225.0304)
 -->
<!-- Title: a_graph Pages: 1 -->
<svg width="516pt" height="119pt"
 viewBox="0.00 0.00 516.00 119.00" xmlns="http://www.w3.org/2000/svg" xmlns:xlink="http://www.w3.org/1999/xlink">
<g id="graph0" class="graph" transform="scale(1 1) rotate(0) translate(4 115)">
<title>a_graph</title>
<polygon fill="#ffffff" stroke="transparent" points="-4,4 -4,-115 512,-115 512,4 -4,4"/>
<!-- T9821 -->
<g id="node1" class="node">
<title>T9821</title>
<polygon fill="none" stroke="#0058ad" points="323,-81.5 323,-110.5 491,-110.5 491,-81.5 323,-81.5"/>
<text text-anchor="middle" x="348" y="-92.3" font-family="Times,serif" font-size="14.00" fill="#0058ad">a 54 2</text>
<polyline fill="none" stroke="#0058ad" points="373,-81.5 373,-110.5 "/>
<text text-anchor="middle" x="407" y="-92.3" font-family="Times,serif" font-size="14.00" fill="#0058ad">r 55 [1 2]</text>
<polyline fill="none" stroke="#0058ad" points="441,-81.5 441,-110.5 "/>
<text text-anchor="middle" x="466" y="-92.3" font-family="Times,serif" font-size="14.00" fill="#0058ad">a 4 87</text>
</g>
<!-- T9823 -->
<g id="node2" class="node">
<title>T9823</title>
<polygon fill="none" stroke="#0058ad" points="0,-.5 0,-29.5 508,-29.5 508,-.5 0,-.5"/>
<text text-anchor="middle" x="160.5" y="-11.3" font-family="Times,serif" font-size="14.00" fill="#0058ad">r 2 [1 4 5 6 7 8 9 10 11 12 13 14 15 16 17 18 22 23 24]</text>
<polyline fill="none" stroke="#0058ad" points="321,-.5 321,-29.5 "/>
<text text-anchor="middle" x="350" y="-11.3" font-family="Times,serif" font-size="14.00" fill="#0058ad">r 54 [1]</text>
<polyline fill="none" stroke="#0058ad" points="379,-.5 379,-29.5 "/>
<text text-anchor="middle" x="404" y="-11.3" font-family="Times,serif" font-size="14.00" fill="#0058ad">a 55 3</text>
<polyline fill="none" stroke="#0058ad" points="429,-.5 429,-29.5 "/>
<text text-anchor="middle" x="468.5" y="-11.3" font-family="Times,serif" font-size="14.00" fill="#0058ad">r 55 [1 2 3]</text>
</g>
<!-- T9821&#45;&gt;T9823 -->
<g id="edge1" class="edge">
<title>T9821:f1&#45;&gt;T9823:f2</title>
<path fill="none" stroke="#5b00c0" d="M407,-81C407,-62.1967 404.9426,-55.1325 404.2354,-40.3645"/>
<polygon fill="#5b00c0" stroke="#5b00c0" points="407.7263,-39.9179 404,-30 400.7281,-40.0769 407.7263,-39.9179"/>
<text text-anchor="middle" x="413.5" y="-51.8" font-family="Times,serif" font-size="14.00" fill="#5b00c0">rw</text>
</g>
<!-- T9823&#45;&gt;T9821 -->
<g id="edge2" class="edge">
<title>T9823:f1&#45;&gt;T9821:f0</title>
<path fill="none" stroke="#5b00c0" d="M350,-30C350,-48.7853 348.6284,-55.8762 348.1569,-70.6416"/>
<polygon fill="#5b00c0" stroke="#5b00c0" points="344.652,-70.9481 348,-81 351.6512,-71.0542 344.652,-70.9481"/>
<text text-anchor="middle" x="357.5" y="-51.8" font-family="Times,serif" font-size="14.00" fill="#5b00c0">rw</text>
</g>
</g>
</svg>
