<?xml version="1.0" encoding="UTF-8" standalone="no"?>
<!DOCTYPE svg PUBLIC "-//W3C//DTD SVG 1.1//EN"
 "http://www.w3.org/Graphics/SVG/1.1/DTD/svg11.dtd">
<!-- Generated by graphviz version 2.40.1 (20161225.0304)
 -->
<!-- Title: a_graph Pages: 1 -->
<svg width="1602pt" height="119pt"
 viewBox="0.00 0.00 1602.00 119.00" xmlns="http://www.w3.org/2000/svg" xmlns:xlink="http://www.w3.org/1999/xlink">
<g id="graph0" class="graph" transform="scale(1 1) rotate(0) translate(4 115)">
<title>a_graph</title>
<polygon fill="#ffffff" stroke="transparent" points="-4,4 -4,-115 1598,-115 1598,4 -4,4"/>
<!-- T11079 -->
<g id="node1" class="node">
<title>T11079</title>
<polygon fill="none" stroke="#0058ad" points="84,-81.5 84,-110.5 1594,-110.5 1594,-81.5 84,-81.5"/>
<text text-anchor="middle" x="116" y="-92.3" font-family="Times,serif" font-size="14.00" fill="#0058ad">a 58 118</text>
<polyline fill="none" stroke="#0058ad" points="148,-81.5 148,-110.5 "/>
<text text-anchor="middle" x="814" y="-92.3" font-family="Times,serif" font-size="14.00" fill="#0058ad">r 57 [1 2 3 4 5 6 9 7 8 11 10 12 13 18 14 19 21 22 23 24 25 26 27 28 29 31 32 33 34 35 36 37 38 39 40 41 42 43 47 46 49 48 51 50 52 53 54 55 57 56 58 59 60 61 62 66 67 68 69 63 64 71 72 73 74 75 76 77 79 80 78 70 81 82 84 85 83 86]</text>
<polyline fill="none" stroke="#0058ad" points="1480,-81.5 1480,-110.5 "/>
<text text-anchor="middle" x="1508.5" y="-92.3" font-family="Times,serif" font-size="14.00" fill="#0058ad">a 51 95</text>
<polyline fill="none" stroke="#0058ad" points="1537,-81.5 1537,-110.5 "/>
<text text-anchor="middle" x="1565.5" y="-92.3" font-family="Times,serif" font-size="14.00" fill="#0058ad">a 54 89</text>
</g>
<!-- T11075 -->
<g id="node2" class="node">
<title>T11075</title>
<polygon fill="none" stroke="#0058ad" points="0,-.5 0,-29.5 1586,-29.5 1586,-.5 0,-.5"/>
<text text-anchor="middle" x="764.5" y="-11.3" font-family="Times,serif" font-size="14.00" fill="#0058ad">r 51 [2 3 4 5 6 7 8 9 10 11 12 13 14 15 16 17 19 18 21 20 22 24 23 25 28 29 30 31 33 34 35 36 38 37 39 40 41 42 43 45 46 44 48 47 49 50 51 52 53 54 55 56 57 58 59 60 61 62 63 64 65 66 67 68 70 71 72 73 74 75 76 77 78 79 80 81 82 83 84 85 86 87 88 89 90 91 92 93 94]</text>
<polyline fill="none" stroke="#0058ad" points="1529,-.5 1529,-29.5 "/>
<text text-anchor="middle" x="1557.5" y="-11.3" font-family="Times,serif" font-size="14.00" fill="#0058ad">a 57 87</text>
</g>
<!-- T11079&#45;&gt;T11075 -->
<g id="edge1" class="edge">
<title>T11079:f1&#45;&gt;T11075:f1</title>
<path fill="none" stroke="#5b00c0" d="M814,-81C814,-78.5876 1459.758,-38.652 1548.0452,-31.1095"/>
<polygon fill="#5b00c0" stroke="#5b00c0" points="1548.4492,-34.5862 1558,-30 1547.6738,-27.6293 1548.4492,-34.5862"/>
<text text-anchor="middle" x="1303.5" y="-51.8" font-family="Times,serif" font-size="14.00" fill="#5b00c0">rw</text>
</g>
<!-- T11075&#45;&gt;T11079 -->
<g id="edge2" class="edge">
<title>T11075:f0&#45;&gt;T11079:f2</title>
<path fill="none" stroke="#5b00c0" d="M764,-30C764,-45.3137 1299.7637,-46.4624 1315,-48 1398.4497,-56.4212 1500.2578,1.3941 1508.4688,-70.9834"/>
<polygon fill="#5b00c0" stroke="#5b00c0" points="1504.9753,-71.1994 1509,-81 1511.9655,-70.8287 1504.9753,-71.1994"/>
<text text-anchor="middle" x="1514.5" y="-51.8" font-family="Times,serif" font-size="14.00" fill="#5b00c0">rw</text>
</g>
</g>
</svg>
