<?xml version="1.0" encoding="UTF-8" standalone="no"?>
<!DOCTYPE svg PUBLIC "-//W3C//DTD SVG 1.1//EN"
 "http://www.w3.org/Graphics/SVG/1.1/DTD/svg11.dtd">
<!-- Generated by graphviz version 2.40.1 (20161225.0304)
 -->
<!-- Title: a_graph Pages: 1 -->
<svg width="802pt" height="119pt"
 viewBox="0.00 0.00 801.50 119.00" xmlns="http://www.w3.org/2000/svg" xmlns:xlink="http://www.w3.org/1999/xlink">
<g id="graph0" class="graph" transform="scale(1 1) rotate(0) translate(4 115)">
<title>a_graph</title>
<polygon fill="#ffffff" stroke="transparent" points="-4,4 -4,-115 797.5,-115 797.5,4 -4,4"/>
<!-- T8231 -->
<g id="node1" class="node">
<title>T8231</title>
<polygon fill="none" stroke="#0058ad" points="314.5,-81.5 314.5,-110.5 793.5,-110.5 793.5,-81.5 314.5,-81.5"/>
<text text-anchor="middle" x="420" y="-92.3" font-family="Times,serif" font-size="14.00" fill="#0058ad">r 47 [1 2 3 4 5 6 8 9 7 10 12 13 11]</text>
<polyline fill="none" stroke="#0058ad" points="525.5,-81.5 525.5,-110.5 "/>
<text text-anchor="middle" x="554" y="-92.3" font-family="Times,serif" font-size="14.00" fill="#0058ad">a 45 39</text>
<polyline fill="none" stroke="#0058ad" points="582.5,-81.5 582.5,-110.5 "/>
<text text-anchor="middle" x="688" y="-92.3" font-family="Times,serif" font-size="14.00" fill="#0058ad">r 47 [1 2 3 4 5 6 8 9 7 10 12 13 11]</text>
</g>
<!-- T8233 -->
<g id="node2" class="node">
<title>T8233</title>
<polygon fill="none" stroke="#0058ad" points="0,-.5 0,-29.5 758,-29.5 758,-.5 0,-.5"/>
<text text-anchor="middle" x="245" y="-11.3" font-family="Times,serif" font-size="14.00" fill="#0058ad">r 45 [1 2 5 7 8 9 10 11 12 13 14 19 15 20 21 22 23 25 24 26 27 28 30 31 29 16 37 38]</text>
<polyline fill="none" stroke="#0058ad" points="490,-.5 490,-29.5 "/>
<text text-anchor="middle" x="595.5" y="-11.3" font-family="Times,serif" font-size="14.00" fill="#0058ad">r 47 [1 2 3 4 5 6 8 9 7 10 12 13 11]</text>
<polyline fill="none" stroke="#0058ad" points="701,-.5 701,-29.5 "/>
<text text-anchor="middle" x="729.5" y="-11.3" font-family="Times,serif" font-size="14.00" fill="#0058ad">a 47 14</text>
</g>
<!-- T8231&#45;&gt;T8233 -->
<g id="edge1" class="edge">
<title>T8231:f0&#45;&gt;T8233:f2</title>
<path fill="none" stroke="#5b00c0" d="M420,-81C420,-45.3945 458.503,-56.8152 493,-48 515.7884,-42.1767 685.9764,-53.3964 722.9324,-37.2635"/>
<polygon fill="#5b00c0" stroke="#5b00c0" points="725.5347,-39.6079 730,-30 720.5177,-34.7263 725.5347,-39.6079"/>
<text text-anchor="middle" x="500.5" y="-51.8" font-family="Times,serif" font-size="14.00" fill="#5b00c0">rw</text>
</g>
<!-- T8233&#45;&gt;T8231 -->
<g id="edge2" class="edge">
<title>T8233:f0&#45;&gt;T8231:f1</title>
<path fill="none" stroke="#5b00c0" d="M245,-30C245,-59.2906 480.4385,-38.0852 508,-48 527.9765,-55.1862 546.9907,-55.8262 552.4449,-70.9646"/>
<polygon fill="#5b00c0" stroke="#5b00c0" points="549.0099,-71.6539 554,-81 555.9273,-70.582 549.0099,-71.6539"/>
<text text-anchor="middle" x="554.5" y="-51.8" font-family="Times,serif" font-size="14.00" fill="#5b00c0">rw</text>
</g>
</g>
</svg>
