<?xml version="1.0" encoding="UTF-8" standalone="no"?>
<!DOCTYPE svg PUBLIC "-//W3C//DTD SVG 1.1//EN"
 "http://www.w3.org/Graphics/SVG/1.1/DTD/svg11.dtd">
<!-- Generated by graphviz version 2.40.1 (20161225.0304)
 -->
<!-- Title: a_graph Pages: 1 -->
<svg width="3529pt" height="200pt"
 viewBox="0.00 0.00 3528.50 200.00" xmlns="http://www.w3.org/2000/svg" xmlns:xlink="http://www.w3.org/1999/xlink">
<g id="graph0" class="graph" transform="scale(1 1) rotate(0) translate(4 196)">
<title>a_graph</title>
<polygon fill="#ffffff" stroke="transparent" points="-4,4 -4,-196 3524.5,-196 3524.5,4 -4,4"/>
<!-- T11543 -->
<g id="node1" class="node">
<title>T11543</title>
<polygon fill="none" stroke="#0058ad" points="186,-162.5 186,-191.5 2877,-191.5 2877,-162.5 186,-162.5"/>
<text text-anchor="middle" x="472.5" y="-173.3" font-family="Times,serif" font-size="14.00" fill="#0058ad">r 60 [1 2 3 4 5 6 7 8 9 10 11 12 13 14 16 17 15 18 20 22 24 25 26 27 28 29 21 30 32 31 33 34 36 35]</text>
<polyline fill="none" stroke="#0058ad" points="759,-162.5 759,-191.5 "/>
<text text-anchor="middle" x="1786" y="-173.3" font-family="Times,serif" font-size="14.00" fill="#0058ad">r 59 [1 2 3 4 6 7 9 8 10 12 13 11 15 16 17 14 5 18 20 21 19 22 26 23 24 27 28 25 31 33 35 30 36 37 38 39 40 43 45 46 44 48 49 52 47 51 53 54 55 56 57 58 59 60 61 63 62 64 65 68 69 66 67 72 73 74 75 76 70 77 78 79 80 82 83 84 85 86 87 81 88 89 90 91 92 93 96 97 94 95 98 99 101 103 104 105 106 107 108 109 102 110 111 112 113 114 115 116 117 118 119 120]</text>
<polyline fill="none" stroke="#0058ad" points="2813,-162.5 2813,-191.5 "/>
<text text-anchor="middle" x="2845" y="-173.3" font-family="Times,serif" font-size="14.00" fill="#0058ad">a 59 121</text>
</g>
<!-- T11544 -->
<g id="node3" class="node">
<title>T11544</title>
<polygon fill="none" stroke="#0058ad" points="0,-81.5 0,-110.5 2739,-110.5 2739,-81.5 0,-81.5"/>
<text text-anchor="middle" x="286.5" y="-92.3" font-family="Times,serif" font-size="14.00" fill="#0058ad">r 60 [1 2 3 4 5 6 7 8 9 10 11 12 13 14 16 17 15 18 20 22 24 25 26 27 28 29 21 30 32 31 33 34 36 35]</text>
<polyline fill="none" stroke="#0058ad" points="573,-81.5 573,-110.5 "/>
<text text-anchor="middle" x="612.5" y="-92.3" font-family="Times,serif" font-size="14.00" fill="#0058ad">r 61 [1 2 3]</text>
<polyline fill="none" stroke="#0058ad" points="652,-81.5 652,-110.5 "/>
<text text-anchor="middle" x="680.5" y="-92.3" font-family="Times,serif" font-size="14.00" fill="#0058ad">a 60 37</text>
<polyline fill="none" stroke="#0058ad" points="709,-81.5 709,-110.5 "/>
<text text-anchor="middle" x="1724" y="-92.3" font-family="Times,serif" font-size="14.00" fill="#0058ad">r 59 [1 2 3 4 6 7 9 8 10 12 13 11 15 16 17 14 5 18 20 21 19 22 26 23 24 27 28 25 31 33 35 30 36 37 38 39 40 43 45 46 44 48 49 52 47 51 53 54 55 56 57 58 59 60 61 63 62 64 65 68 69 66 67 72 73 74 75 76 70 77 78 79 80 82 83 84 85 86 87 81 88 89 90 91 92 93 96 97 94 95 98 99 101 103 104 105 106 107 108 109 102 110 111 112 113 114 115 116 117 118 119]</text>
</g>
<!-- T11543&#45;&gt;T11544 -->
<g id="edge1" class="edge">
<title>T11543:f0&#45;&gt;T11544:f2</title>
<path fill="none" stroke="#5b00c0" d="M472.5,-162C472.5,-70.5353 664.5674,-195.6527 679.5726,-121.1085"/>
<polygon fill="#5b00c0" stroke="#5b00c0" points="683.0717,-121.278 680.5,-111 676.101,-120.6384 683.0717,-121.278"/>
<text text-anchor="middle" x="685" y="-132.8" font-family="Times,serif" font-size="14.00" fill="#5b00c0">rw</text>
</g>
<!-- T11541 -->
<g id="node2" class="node">
<title>T11541</title>
<polygon fill="none" stroke="#0058ad" points="2174.5,-.5 2174.5,-29.5 3520.5,-29.5 3520.5,-.5 2174.5,-.5"/>
<text text-anchor="middle" x="2214" y="-11.3" font-family="Times,serif" font-size="14.00" fill="#0058ad">r 61 [1 2 3]</text>
<polyline fill="none" stroke="#0058ad" points="2253.5,-.5 2253.5,-29.5 "/>
<text text-anchor="middle" x="2285.5" y="-11.3" font-family="Times,serif" font-size="14.00" fill="#0058ad">a 59 120</text>
<polyline fill="none" stroke="#0058ad" points="2317.5,-.5 2317.5,-29.5 "/>
<text text-anchor="middle" x="2919" y="-11.3" font-family="Times,serif" font-size="14.00" fill="#0058ad">r 40 [21 28 29 30 32 33 34 35 36 37 38 39 40 41 43 44 42 45 46 47 48 49 50 51 52 53 54 55 56 57 58 59 60 61 62 63 64 67 68 69 70 71 72 73 74 75 76 77 78 82 81 80 83 84 85 86 87 88 89 90 91 92 93 94 95 96 97]</text>
</g>
<!-- T11541&#45;&gt;T11543 -->
<g id="edge2" class="edge">
<title>T11541:f1&#45;&gt;T11543:f2</title>
<path fill="none" stroke="#c02700" d="M2285.5,-30C2285.5,-54.2429 2699.0991,-38.7308 2721.5,-48 2787.4316,-75.2815 2840.3285,-86.1123 2845.1428,-151.8882"/>
<polygon fill="#c02700" stroke="#c02700" points="2841.649,-152.1298 2845.5,-162 2848.6447,-151.8826 2841.649,-152.1298"/>
<text text-anchor="middle" x="2841.5" y="-92.3" font-family="Times,serif" font-size="14.00" fill="#c02700">ww</text>
</g>
<!-- T11544&#45;&gt;T11541 -->
<g id="edge3" class="edge">
<title>T11544:f3&#45;&gt;T11541:f1</title>
<path fill="none" stroke="#5b00c0" d="M2739.5,-96C2746.1667,-96 2743.9431,-85.9702 2739.5,-81 2674.2824,-8.046 2313.0029,-122.6662 2286.9799,-40.1333"/>
<polygon fill="#5b00c0" stroke="#5b00c0" points="2290.4085,-39.3892 2285.5,-30 2283.482,-40.4009 2290.4085,-39.3892"/>
<text text-anchor="middle" x="2710" y="-51.8" font-family="Times,serif" font-size="14.00" fill="#5b00c0">rw</text>
</g>
</g>
</svg>
