<?xml version="1.0" encoding="UTF-8" standalone="no"?>
<!DOCTYPE svg PUBLIC "-//W3C//DTD SVG 1.1//EN"
 "http://www.w3.org/Graphics/SVG/1.1/DTD/svg11.dtd">
<!-- Generated by graphviz version 2.40.1 (20161225.0304)
 -->
<!-- Title: a_graph Pages: 1 -->
<svg width="2023pt" height="119pt"
 viewBox="0.00 0.00 2022.50 119.00" xmlns="http://www.w3.org/2000/svg" xmlns:xlink="http://www.w3.org/1999/xlink">
<g id="graph0" class="graph" transform="scale(1 1) rotate(0) translate(4 115)">
<title>a_graph</title>
<polygon fill="#ffffff" stroke="transparent" points="-4,4 -4,-115 2018.5,-115 2018.5,4 -4,4"/>
<!-- T10395 -->
<g id="node1" class="node">
<title>T10395</title>
<polygon fill="none" stroke="#0058ad" points="0,-81.5 0,-110.5 1740,-110.5 1740,-81.5 0,-81.5"/>
<text text-anchor="middle" x="841.5" y="-92.3" font-family="Times,serif" font-size="14.00" fill="#0058ad">r 53 [1 2 4 5 3 8 9 10 11 12 13 14 16 15 17 18 19 20 21 22 23 24 25 26 27 28 29 30 32 33 31 34 36 37 38 42 39 40 41 43 44 45 46 47 48 49 50 51 52 53 54 56 55 57 58 59 60 61 62 63 64 66 67 68 65 69 70 71 72 73 74 75 77 78 80 81 84 85 86 87 88 89 90 91 92 93 94 95 96 97 99 98 100 101 102 103]</text>
<polyline fill="none" stroke="#0058ad" points="1683,-81.5 1683,-110.5 "/>
<text text-anchor="middle" x="1711.5" y="-92.3" font-family="Times,serif" font-size="14.00" fill="#0058ad">a 56 38</text>
</g>
<!-- T10397 -->
<g id="node2" class="node">
<title>T10397</title>
<polygon fill="none" stroke="#0058ad" points="1111.5,-.5 1111.5,-29.5 2014.5,-29.5 2014.5,-.5 1111.5,-.5"/>
<text text-anchor="middle" x="1140" y="-11.3" font-family="Times,serif" font-size="14.00" fill="#0058ad">a 54 46</text>
<polyline fill="none" stroke="#0058ad" points="1168.5,-.5 1168.5,-29.5 "/>
<text text-anchor="middle" x="1200.5" y="-11.3" font-family="Times,serif" font-size="14.00" fill="#0058ad">a 53 104</text>
<polyline fill="none" stroke="#0058ad" points="1232.5,-.5 1232.5,-29.5 "/>
<text text-anchor="middle" x="1591.5" y="-11.3" font-family="Times,serif" font-size="14.00" fill="#0058ad">r 56 [2 3 4 5 6 7 9 10 11 12 13 14 15 16 17 8 18 19 20 21 22 25 26 27 23 29 30 31 32 33 28 36 34 35 37 39 40 41 42 43 44 45]</text>
<polyline fill="none" stroke="#0058ad" points="1950.5,-.5 1950.5,-29.5 "/>
<text text-anchor="middle" x="1982.5" y="-11.3" font-family="Times,serif" font-size="14.00" fill="#0058ad">a 53 105</text>
</g>
<!-- T10395&#45;&gt;T10397 -->
<g id="edge1" class="edge">
<title>T10395:f0&#45;&gt;T10397:f1</title>
<path fill="none" stroke="#5b00c0" d="M841,-81C841,76.5378 1184.0542,-179.1877 1199.4648,-40.2145"/>
<polygon fill="#5b00c0" stroke="#5b00c0" points="1202.9719,-40.1695 1200,-30 1195.9815,-39.8031 1202.9719,-40.1695"/>
<text text-anchor="middle" x="1204.5" y="-51.8" font-family="Times,serif" font-size="14.00" fill="#5b00c0">rw</text>
</g>
<!-- T10397&#45;&gt;T10395 -->
<g id="edge2" class="edge">
<title>T10397:f2&#45;&gt;T10395:f1</title>
<path fill="none" stroke="#5b00c0" d="M1592,-30C1592,-84.1019 1696.5917,-31.1277 1710.4828,-71.0085"/>
<polygon fill="#5b00c0" stroke="#5b00c0" points="1707.0383,-71.6388 1712,-81 1713.9589,-70.5878 1707.0383,-71.6388"/>
<text text-anchor="middle" x="1710.5" y="-51.8" font-family="Times,serif" font-size="14.00" fill="#5b00c0">rw</text>
</g>
</g>
</svg>
