<?xml version="1.0" encoding="UTF-8" standalone="no"?>
<!DOCTYPE svg PUBLIC "-//W3C//DTD SVG 1.1//EN"
 "http://www.w3.org/Graphics/SVG/1.1/DTD/svg11.dtd">
<!-- Generated by graphviz version 2.40.1 (20161225.0304)
 -->
<!-- Title: a_graph Pages: 1 -->
<svg width="3562pt" height="119pt"
 viewBox="0.00 0.00 3562.00 119.00" xmlns="http://www.w3.org/2000/svg" xmlns:xlink="http://www.w3.org/1999/xlink">
<g id="graph0" class="graph" transform="scale(1 1) rotate(0) translate(4 115)">
<title>a_graph</title>
<polygon fill="#ffffff" stroke="transparent" points="-4,4 -4,-115 3558,-115 3558,4 -4,4"/>
<!-- T5593 -->
<g id="node1" class="node">
<title>T5593</title>
<polygon fill="none" stroke="#0058ad" points="891,-81.5 891,-110.5 2265,-110.5 2265,-81.5 891,-81.5"/>
<text text-anchor="middle" x="923" y="-92.3" font-family="Times,serif" font-size="14.00" fill="#0058ad">a 30 125</text>
<polyline fill="none" stroke="#0058ad" points="955,-81.5 955,-110.5 "/>
<text text-anchor="middle" x="1578" y="-92.3" font-family="Times,serif" font-size="14.00" fill="#0058ad">r 32 [1 2 3 4 5 6 7 8 9 10 11 12 13 14 15 16 17 18 19 20 21 22 23 24 25 26 27 28 29 30 31 32 33 34 35 36 37 38 39 41 42 43 44 40 45 46 47 48 50 51 52 53 54 55 56 57 58 59 60 61 62 63 64 65 66 67 68 69 72 74 73 75 76]</text>
<polyline fill="none" stroke="#0058ad" points="2201,-81.5 2201,-110.5 "/>
<text text-anchor="middle" x="2233" y="-92.3" font-family="Times,serif" font-size="14.00" fill="#0058ad">a 30 126</text>
</g>
<!-- T5595 -->
<g id="node2" class="node">
<title>T5595</title>
<polygon fill="none" stroke="#0058ad" points="0,-.5 0,-29.5 3554,-29.5 3554,-.5 0,-.5"/>
<text text-anchor="middle" x="28.5" y="-11.3" font-family="Times,serif" font-size="14.00" fill="#0058ad">a 32 77</text>
<polyline fill="none" stroke="#0058ad" points="57,-.5 57,-29.5 "/>
<text text-anchor="middle" x="85.5" y="-11.3" font-family="Times,serif" font-size="14.00" fill="#0058ad">a 32 78</text>
<polyline fill="none" stroke="#0058ad" points="114,-.5 114,-29.5 "/>
<text text-anchor="middle" x="754" y="-11.3" font-family="Times,serif" font-size="14.00" fill="#0058ad">r 32 [1 2 3 4 5 6 7 8 9 10 11 12 13 14 15 16 17 18 19 20 21 22 23 24 25 26 27 28 29 30 31 32 33 34 35 36 37 38 39 41 42 43 44 40 45 46 47 48 50 51 52 53 54 55 56 57 58 59 60 61 62 63 64 65 66 67 68 69 72 74 73 75 76 77 78]</text>
<polyline fill="none" stroke="#0058ad" points="1394,-.5 1394,-29.5 "/>
<text text-anchor="middle" x="2474" y="-11.3" font-family="Times,serif" font-size="14.00" fill="#0058ad">r 30 [1 2 3 5 6 7 8 9 10 11 12 13 14 15 16 17 18 19 20 21 23 24 26 25 27 28 29 30 31 32 34 35 36 37 39 40 41 42 44 45 46 43 47 48 49 51 50 52 53 54 55 56 57 58 59 60 61 62 63 64 65 66 67 68 69 70 71 72 73 74 75 76 77 78 79 80 81 82 83 84 85 86 87 88 89 90 91 92 93 94 95 96 97 98 101 99 100 102 103 104 105 106 107 108 109 110 112 113 114 116 115 117 120 119 122 123 124]</text>
</g>
<!-- T5593&#45;&gt;T5595 -->
<g id="edge1" class="edge">
<title>T5593:f1&#45;&gt;T5595:f0</title>
<path fill="none" stroke="#5b00c0" d="M1578,-81C1578,26.1402 1204.0426,-52.5701 1097,-48 1083.0045,-47.4025 144.0827,-45.1284 37.7654,-32.4064"/>
<polygon fill="#5b00c0" stroke="#5b00c0" points="38.547,-28.9944 28,-30 36.8721,-35.7911 38.547,-28.9944"/>
<text text-anchor="middle" x="1578.5" y="-51.8" font-family="Times,serif" font-size="14.00" fill="#5b00c0">rw</text>
</g>
<!-- T5595&#45;&gt;T5593 -->
<g id="edge2" class="edge">
<title>T5595:f3&#45;&gt;T5593:f0</title>
<path fill="none" stroke="#5b00c0" d="M2474,-30C2474,-49.3905 1097.2705,-45.8457 1078,-48 1011.6944,-55.4126 931.9234,-15.1928 923.6945,-70.7977"/>
<polygon fill="#5b00c0" stroke="#5b00c0" points="920.1873,-70.7854 923,-81 927.1712,-71.2608 920.1873,-70.7854"/>
<text text-anchor="middle" x="1085.5" y="-51.8" font-family="Times,serif" font-size="14.00" fill="#5b00c0">rw</text>
</g>
</g>
</svg>
