<?xml version="1.0" encoding="UTF-8" standalone="no"?>
<!DOCTYPE svg PUBLIC "-//W3C//DTD SVG 1.1//EN"
 "http://www.w3.org/Graphics/SVG/1.1/DTD/svg11.dtd">
<!-- Generated by graphviz version 2.40.1 (20161225.0304)
 -->
<!-- Title: a_graph Pages: 1 -->
<svg width="1377pt" height="119pt"
 viewBox="0.00 0.00 1376.50 119.00" xmlns="http://www.w3.org/2000/svg" xmlns:xlink="http://www.w3.org/1999/xlink">
<g id="graph0" class="graph" transform="scale(1 1) rotate(0) translate(4 115)">
<title>a_graph</title>
<polygon fill="#ffffff" stroke="transparent" points="-4,4 -4,-115 1372.5,-115 1372.5,4 -4,4"/>
<!-- T2719 -->
<g id="node1" class="node">
<title>T2719</title>
<polygon fill="none" stroke="#0058ad" points="379.5,-81.5 379.5,-110.5 1368.5,-110.5 1368.5,-81.5 379.5,-81.5"/>
<text text-anchor="middle" x="408" y="-92.3" font-family="Times,serif" font-size="14.00" fill="#0058ad">a 18 51</text>
<polyline fill="none" stroke="#0058ad" points="436.5,-81.5 436.5,-110.5 "/>
<text text-anchor="middle" x="874" y="-92.3" font-family="Times,serif" font-size="14.00" fill="#0058ad">r 14 [34 32 36 41 42 43 44 45 46 40 49 51 53 52 54 55 56 47 57 58 59 60 61 62 63 64 65 66 67 68 69 71 73 74 75 76 77 78 79 80 81 82 83 84 85 86 87 88]</text>
<polyline fill="none" stroke="#0058ad" points="1311.5,-81.5 1311.5,-110.5 "/>
<text text-anchor="middle" x="1340" y="-92.3" font-family="Times,serif" font-size="14.00" fill="#0058ad">a 6 106</text>
</g>
<!-- T2717 -->
<g id="node2" class="node">
<title>T2717</title>
<polygon fill="none" stroke="#0058ad" points="0,-.5 0,-29.5 896,-29.5 896,-.5 0,-.5"/>
<text text-anchor="middle" x="419.5" y="-11.3" font-family="Times,serif" font-size="14.00" fill="#0058ad">r 18 [1 2 3 4 5 7 8 9 10 11 13 12 14 15 16 17 18 19 20 21 22 23 24 25 26 28 27 29 30 31 32 33 34 35 36 37 38 39 40 41 42 43 44 45 46 47 48 49 50]</text>
<polyline fill="none" stroke="#0058ad" points="839,-.5 839,-29.5 "/>
<text text-anchor="middle" x="867.5" y="-11.3" font-family="Times,serif" font-size="14.00" fill="#0058ad">a 14 89</text>
</g>
<!-- T2719&#45;&gt;T2717 -->
<g id="edge1" class="edge">
<title>T2719:f1&#45;&gt;T2717:f1</title>
<path fill="none" stroke="#5b00c0" d="M874,-81C874,-62.0997 869.8853,-55.1795 868.4708,-40.3973"/>
<polygon fill="#5b00c0" stroke="#5b00c0" points="871.9489,-39.8314 868,-30 864.956,-40.1481 871.9489,-39.8314"/>
<text text-anchor="middle" x="879.5" y="-51.8" font-family="Times,serif" font-size="14.00" fill="#5b00c0">rw</text>
</g>
<!-- T2717&#45;&gt;T2719 -->
<g id="edge2" class="edge">
<title>T2717:f0&#45;&gt;T2719:f0</title>
<path fill="none" stroke="#5b00c0" d="M419,-30C419,-49.3836 411.3133,-55.7951 408.7911,-70.9223"/>
<polygon fill="#5b00c0" stroke="#5b00c0" points="405.2934,-70.7567 408,-81 412.2719,-71.3046 405.2934,-70.7567"/>
<text text-anchor="middle" x="423.5" y="-51.8" font-family="Times,serif" font-size="14.00" fill="#5b00c0">rw</text>
</g>
</g>
</svg>
