<?xml version="1.0" encoding="UTF-8" standalone="no"?>
<!DOCTYPE svg PUBLIC "-//W3C//DTD SVG 1.1//EN"
 "http://www.w3.org/Graphics/SVG/1.1/DTD/svg11.dtd">
<!-- Generated by graphviz version 2.40.1 (20161225.0304)
 -->
<!-- Title: a_graph Pages: 1 -->
<svg width="4289pt" height="200pt"
 viewBox="0.00 0.00 4289.00 200.00" xmlns="http://www.w3.org/2000/svg" xmlns:xlink="http://www.w3.org/1999/xlink">
<g id="graph0" class="graph" transform="scale(1 1) rotate(0) translate(4 196)">
<title>a_graph</title>
<polygon fill="#ffffff" stroke="transparent" points="-4,4 -4,-196 4285,-196 4285,4 -4,4"/>
<!-- T11239 -->
<g id="node1" class="node">
<title>T11239</title>
<polygon fill="none" stroke="#0058ad" points="2387.5,-162.5 2387.5,-191.5 3083.5,-191.5 3083.5,-162.5 2387.5,-162.5"/>
<text text-anchor="middle" x="2419.5" y="-173.3" font-family="Times,serif" font-size="14.00" fill="#0058ad">a 51 102</text>
<polyline fill="none" stroke="#0058ad" points="2451.5,-162.5 2451.5,-191.5 "/>
<text text-anchor="middle" x="2703.5" y="-173.3" font-family="Times,serif" font-size="14.00" fill="#0058ad">r 59 [1 2 3 4 6 7 9 8 10 12 13 11 15 16 17 14 5 18 20 21 19 22 26 23 24 27 28 25 31 33]</text>
<polyline fill="none" stroke="#0058ad" points="2955.5,-162.5 2955.5,-191.5 "/>
<text text-anchor="middle" x="2987.5" y="-173.3" font-family="Times,serif" font-size="14.00" fill="#0058ad">a 57 113</text>
<polyline fill="none" stroke="#0058ad" points="3019.5,-162.5 3019.5,-191.5 "/>
<text text-anchor="middle" x="3051.5" y="-173.3" font-family="Times,serif" font-size="14.00" fill="#0058ad">a 57 114</text>
</g>
<!-- T11237 -->
<g id="node3" class="node">
<title>T11237</title>
<polygon fill="none" stroke="#0058ad" points="2452,-81.5 2452,-110.5 4281,-110.5 4281,-81.5 2452,-81.5"/>
<text text-anchor="middle" x="2480.5" y="-92.3" font-family="Times,serif" font-size="14.00" fill="#0058ad">a 59 35</text>
<polyline fill="none" stroke="#0058ad" points="2509,-81.5 2509,-110.5 "/>
<text text-anchor="middle" x="3395" y="-92.3" font-family="Times,serif" font-size="14.00" fill="#0058ad">r 57 [1 2 3 4 5 6 9 7 8 11 10 12 13 18 14 19 21 22 23 24 25 26 27 28 29 31 32 33 34 35 36 37 38 39 40 41 42 43 47 46 49 48 51 50 52 53 54 55 57 56 58 59 60 61 62 66 67 68 69 63 64 71 72 73 74 75 76 77 79 80 78 70 81 82 84 85 83 86 87 88 89 91 90 92 93 94 95 96 99 100 101 98 102 97 104 103 105 109 110 111]</text>
</g>
<!-- T11239&#45;&gt;T11237 -->
<g id="edge1" class="edge">
<title>T11239:f1&#45;&gt;T11237:f0</title>
<path fill="none" stroke="#5b00c0" d="M2703.5,-162C2703.5,-64.1029 2496.7437,-201.7133 2481.3985,-121.2953"/>
<polygon fill="#5b00c0" stroke="#5b00c0" points="2484.8563,-120.6578 2480.5,-111 2477.8828,-121.2665 2484.8563,-120.6578"/>
<text text-anchor="middle" x="2707" y="-132.8" font-family="Times,serif" font-size="14.00" fill="#5b00c0">rw</text>
</g>
<!-- T11241 -->
<g id="node2" class="node">
<title>T11241</title>
<polygon fill="none" stroke="#0058ad" points="0,-.5 0,-29.5 3461,-29.5 3461,-.5 0,-.5"/>
<text text-anchor="middle" x="886" y="-11.3" font-family="Times,serif" font-size="14.00" fill="#0058ad">r 57 [1 2 3 4 5 6 9 7 8 11 10 12 13 18 14 19 21 22 23 24 25 26 27 28 29 31 32 33 34 35 36 37 38 39 40 41 42 43 47 46 49 48 51 50 52 53 54 55 57 56 58 59 60 61 62 66 67 68 69 63 64 71 72 73 74 75 76 77 79 80 78 70 81 82 84 85 83 86 87 88 89 91 90 92 93 94 95 96 99 100 101 98 102 97 104 103 105 109 110 111]</text>
<polyline fill="none" stroke="#0058ad" points="1772,-.5 1772,-29.5 "/>
<text text-anchor="middle" x="1797" y="-11.3" font-family="Times,serif" font-size="14.00" fill="#0058ad">a 1 14</text>
<polyline fill="none" stroke="#0058ad" points="1822,-.5 1822,-29.5 "/>
<text text-anchor="middle" x="2641.5" y="-11.3" font-family="Times,serif" font-size="14.00" fill="#0058ad">r 51 [2 3 4 5 6 7 8 9 10 11 12 13 14 15 16 17 19 18 21 20 22 24 23 25 28 29 30 31 33 34 35 36 38 37 39 40 41 42 43 45 46 44 48 47 49 50 51 52 53 54 55 56 57 58 59 60 61 62 63 64 65 66 67 68 70 71 72 73 74 75 76 77 78 79 80 81 82 83 84 85 86 87 88 89 90 91 92 93 94 95 96 97 98 99 100]</text>
</g>
<!-- T11241&#45;&gt;T11239 -->
<g id="edge2" class="edge">
<title>T11241:f2&#45;&gt;T11239:f0</title>
<path fill="none" stroke="#5b00c0" d="M2641.5,-30C2641.5,-127.3425 2492.9215,-8.0245 2428.5,-81 2406.8695,-105.5027 2416.9473,-122.2454 2419.1219,-151.8941"/>
<polygon fill="#5b00c0" stroke="#5b00c0" points="2415.6284,-152.1379 2419.5,-162 2422.6236,-151.8761 2415.6284,-152.1379"/>
<text text-anchor="middle" x="2436" y="-92.3" font-family="Times,serif" font-size="14.00" fill="#5b00c0">rw</text>
</g>
<!-- T11237&#45;&gt;T11239 -->
<g id="edge4" class="edge">
<title>T11237:f1&#45;&gt;T11239:f2</title>
<path fill="none" stroke="#5b00c0" d="M3395.5,-111C3395.5,-290.1753 3003.2819,8.6495 2987.9608,-151.8539"/>
<polygon fill="#5b00c0" stroke="#5b00c0" points="2984.4574,-151.8515 2987.5,-162 2991.4502,-152.1691 2984.4574,-151.8515"/>
<text text-anchor="middle" x="3401" y="-132.8" font-family="Times,serif" font-size="14.00" fill="#5b00c0">rw</text>
</g>
<!-- T11237&#45;&gt;T11241 -->
<g id="edge3" class="edge">
<title>T11237&#45;&gt;T11241</title>
<path fill="none" stroke="#0050c0" d="M3073.544,-81.4955C2780.0575,-66.9646 2330.4013,-44.7017 2033.435,-29.9986"/>
<polygon fill="#0050c0" stroke="#0050c0" points="2033.5365,-26.4994 2023.3756,-29.5006 2033.1903,-33.4909 2033.5365,-26.4994"/>
<text text-anchor="middle" x="2700" y="-51.8" font-family="Times,serif" font-size="14.00" fill="#0050c0">rt</text>
</g>
</g>
</svg>
