<?xml version="1.0" encoding="UTF-8" standalone="no"?>
<!DOCTYPE svg PUBLIC "-//W3C//DTD SVG 1.1//EN"
 "http://www.w3.org/Graphics/SVG/1.1/DTD/svg11.dtd">
<!-- Generated by graphviz version 2.40.1 (20161225.0304)
 -->
<!-- Title: a_graph Pages: 1 -->
<svg width="2385pt" height="119pt"
 viewBox="0.00 0.00 2385.00 119.00" xmlns="http://www.w3.org/2000/svg" xmlns:xlink="http://www.w3.org/1999/xlink">
<g id="graph0" class="graph" transform="scale(1 1) rotate(0) translate(4 115)">
<title>a_graph</title>
<polygon fill="#ffffff" stroke="transparent" points="-4,4 -4,-115 2381,-115 2381,4 -4,4"/>
<!-- T11403 -->
<g id="node1" class="node">
<title>T11403</title>
<polygon fill="none" stroke="#0058ad" points="0,-81.5 0,-110.5 2377,-110.5 2377,-81.5 0,-81.5"/>
<text text-anchor="middle" x="580" y="-92.3" font-family="Times,serif" font-size="14.00" fill="#0058ad">r 59 [1 2 3 4 6 7 9 8 10 12 13 11 15 16 17 14 5 18 20 21 19 22 26 23 24 27 28 25 31 33 35 30 36 37 38 39 40 43 45 46 44 48 49 52 47 51 53 54 55 56 57 58 59 60 61 63 62 64 65 68 69 66 67 72 73 74 75 76]</text>
<polyline fill="none" stroke="#0058ad" points="1160,-81.5 1160,-110.5 "/>
<text text-anchor="middle" x="1740" y="-92.3" font-family="Times,serif" font-size="14.00" fill="#0058ad">r 59 [1 2 3 4 6 7 9 8 10 12 13 11 15 16 17 14 5 18 20 21 19 22 26 23 24 27 28 25 31 33 35 30 36 37 38 39 40 43 45 46 44 48 49 52 47 51 53 54 55 56 57 58 59 60 61 63 62 64 65 68 69 66 67 72 73 74 75 76]</text>
<polyline fill="none" stroke="#0058ad" points="2320,-81.5 2320,-110.5 "/>
<text text-anchor="middle" x="2348.5" y="-92.3" font-family="Times,serif" font-size="14.00" fill="#0058ad">a 60 10</text>
</g>
<!-- T11407 -->
<g id="node2" class="node">
<title>T11407</title>
<polygon fill="none" stroke="#0058ad" points="763,-.5 763,-29.5 2186,-29.5 2186,-.5 763,-.5"/>
<text text-anchor="middle" x="834" y="-11.3" font-family="Times,serif" font-size="14.00" fill="#0058ad">r 60 [1 2 3 4 5 6 7 8 9]</text>
<polyline fill="none" stroke="#0058ad" points="905,-.5 905,-29.5 "/>
<text text-anchor="middle" x="1485" y="-11.3" font-family="Times,serif" font-size="14.00" fill="#0058ad">r 59 [1 2 3 4 6 7 9 8 10 12 13 11 15 16 17 14 5 18 20 21 19 22 26 23 24 27 28 25 31 33 35 30 36 37 38 39 40 43 45 46 44 48 49 52 47 51 53 54 55 56 57 58 59 60 61 63 62 64 65 68 69 66 67 72 73 74 75 76]</text>
<polyline fill="none" stroke="#0058ad" points="2065,-.5 2065,-29.5 "/>
<text text-anchor="middle" x="2093.5" y="-11.3" font-family="Times,serif" font-size="14.00" fill="#0058ad">a 59 70</text>
<polyline fill="none" stroke="#0058ad" points="2122,-.5 2122,-29.5 "/>
<text text-anchor="middle" x="2154" y="-11.3" font-family="Times,serif" font-size="14.00" fill="#0058ad">a 54 116</text>
</g>
<!-- T11403&#45;&gt;T11407 -->
<g id="edge1" class="edge">
<title>T11403:f0&#45;&gt;T11407:f2</title>
<path fill="none" stroke="#5b00c0" d="M579.5,-81C579.5,-60.9465 1954.8892,-51.9026 2083.8319,-32.8813"/>
<polygon fill="#5b00c0" stroke="#5b00c0" points="2084.9162,-36.2104 2093.5,-30 2082.9169,-29.5019 2084.9162,-36.2104"/>
<text text-anchor="middle" x="1695" y="-51.8" font-family="Times,serif" font-size="14.00" fill="#5b00c0">rw</text>
</g>
<!-- T11407&#45;&gt;T11403 -->
<g id="edge2" class="edge">
<title>T11407:f0&#45;&gt;T11403:f2</title>
<path fill="none" stroke="#5b00c0" d="M833.5,-30C833.5,-42.1276 1694.3803,-47.5637 1706.5,-48 1845.7771,-53.0142 2324.3356,56.3116 2347.6197,-70.9926"/>
<polygon fill="#5b00c0" stroke="#5b00c0" points="2344.1372,-71.3452 2348.5,-81 2351.1102,-70.7318 2344.1372,-71.3452"/>
<text text-anchor="middle" x="2350" y="-51.8" font-family="Times,serif" font-size="14.00" fill="#5b00c0">rw</text>
</g>
</g>
</svg>
