<?xml version="1.0" encoding="UTF-8" standalone="no"?>
<!DOCTYPE svg PUBLIC "-//W3C//DTD SVG 1.1//EN"
 "http://www.w3.org/Graphics/SVG/1.1/DTD/svg11.dtd">
<!-- Generated by graphviz version 2.40.1 (20161225.0304)
 -->
<!-- Title: a_graph Pages: 1 -->
<svg width="2929pt" height="119pt"
 viewBox="0.00 0.00 2928.50 119.00" xmlns="http://www.w3.org/2000/svg" xmlns:xlink="http://www.w3.org/1999/xlink">
<g id="graph0" class="graph" transform="scale(1 1) rotate(0) translate(4 115)">
<title>a_graph</title>
<polygon fill="#ffffff" stroke="transparent" points="-4,4 -4,-115 2924.5,-115 2924.5,4 -4,4"/>
<!-- T2181 -->
<g id="node1" class="node">
<title>T2181</title>
<polygon fill="none" stroke="#0058ad" points="0,-81.5 0,-110.5 1599,-110.5 1599,-81.5 0,-81.5"/>
<text text-anchor="middle" x="140" y="-92.3" font-family="Times,serif" font-size="14.00" fill="#0058ad">r 5 [2 3 4 5 6 7 8 9 10 11 12 13 14 39 40 41 38]</text>
<polyline fill="none" stroke="#0058ad" points="280,-81.5 280,-110.5 "/>
<text text-anchor="middle" x="659" y="-92.3" font-family="Times,serif" font-size="14.00" fill="#0058ad">r 16 [72 89 90 91 92 93 94 95 97 96 98 99 100 101 102 103 104 105 106 107 108 110 111 109 112 117 118 116 119 122 124 125 126]</text>
<polyline fill="none" stroke="#0058ad" points="1038,-81.5 1038,-110.5 "/>
<text text-anchor="middle" x="1286.5" y="-92.3" font-family="Times,serif" font-size="14.00" fill="#0058ad">r 6 [1 2 3 4 5 6 7 8 9 12 13 14 15 16 17 18 19 20 21 22 23 24 25 26 27 28 77 80 81 83]</text>
<polyline fill="none" stroke="#0058ad" points="1535,-81.5 1535,-110.5 "/>
<text text-anchor="middle" x="1567" y="-92.3" font-family="Times,serif" font-size="14.00" fill="#0058ad">a 16 123</text>
</g>
<!-- T2177 -->
<g id="node2" class="node">
<title>T2177</title>
<polygon fill="none" stroke="#0058ad" points="996.5,-.5 996.5,-29.5 2920.5,-29.5 2920.5,-.5 996.5,-.5"/>
<text text-anchor="middle" x="1375.5" y="-11.3" font-family="Times,serif" font-size="14.00" fill="#0058ad">r 16 [72 89 90 91 92 93 94 95 97 96 98 99 100 101 102 103 104 105 106 107 108 110 111 109 112 117 118 116 119 122 124 125 126]</text>
<polyline fill="none" stroke="#0058ad" points="1754.5,-.5 1754.5,-29.5 "/>
<text text-anchor="middle" x="2133.5" y="-11.3" font-family="Times,serif" font-size="14.00" fill="#0058ad">r 16 [72 89 90 91 92 93 94 95 97 96 98 99 100 101 102 103 104 105 106 107 108 110 111 109 112 117 118 116 119 122 124 125 126]</text>
<polyline fill="none" stroke="#0058ad" points="2512.5,-.5 2512.5,-29.5 "/>
<text text-anchor="middle" x="2691.5" y="-11.3" font-family="Times,serif" font-size="14.00" fill="#0058ad">r 15 [47 63 64 65 66 67 68 69 71 70 72 73 74 75 76 77 78 61]</text>
<polyline fill="none" stroke="#0058ad" points="2870.5,-.5 2870.5,-29.5 "/>
<text text-anchor="middle" x="2895.5" y="-11.3" font-family="Times,serif" font-size="14.00" fill="#0058ad">a 6 84</text>
</g>
<!-- T2181&#45;&gt;T2177 -->
<g id="edge2" class="edge">
<title>T2181:f2&#45;&gt;T2177:f3</title>
<path fill="none" stroke="#5b00c0" d="M1286.5,-81C1286.5,1.6452 1387.2316,-55.882 1469.5,-48 1488.2541,-46.2032 2761.4735,-49.4595 2885.7666,-32.7367"/>
<polygon fill="#5b00c0" stroke="#5b00c0" points="2886.8207,-36.0761 2895.5,-30 2884.9259,-29.3374 2886.8207,-36.0761"/>
<text text-anchor="middle" x="1477" y="-51.8" font-family="Times,serif" font-size="14.00" fill="#5b00c0">rw</text>
</g>
<!-- T2179 -->
<g id="node3" class="node">
<title>T2179</title>
<polygon fill="none" stroke="#0058ad" points="10.5,-.5 10.5,-29.5 818.5,-29.5 818.5,-.5 10.5,-.5"/>
<text text-anchor="middle" x="389.5" y="-11.3" font-family="Times,serif" font-size="14.00" fill="#0058ad">r 16 [72 89 90 91 92 93 94 95 97 96 98 99 100 101 102 103 104 105 106 107 108 110 111 109 112 117 118 116 119 122 124 125 126]</text>
<polyline fill="none" stroke="#0058ad" points="768.5,-.5 768.5,-29.5 "/>
<text text-anchor="middle" x="793.5" y="-11.3" font-family="Times,serif" font-size="14.00" fill="#0058ad">a 5 42</text>
</g>
<!-- T2181&#45;&gt;T2179 -->
<g id="edge1" class="edge">
<title>T2181:f0&#45;&gt;T2179:f1</title>
<path fill="none" stroke="#5b00c0" d="M139.5,-81C139.5,-64.0772 703.5776,-50.3159 784.0027,-33.8438"/>
<polygon fill="#5b00c0" stroke="#5b00c0" points="785.5435,-36.9961 793.5,-30 782.9173,-30.5074 785.5435,-36.9961"/>
<text text-anchor="middle" x="607" y="-51.8" font-family="Times,serif" font-size="14.00" fill="#5b00c0">rw</text>
</g>
<!-- T2177&#45;&gt;T2181 -->
<g id="edge3" class="edge">
<title>T2177:f0&#45;&gt;T2181:f3</title>
<path fill="none" stroke="#5b00c0" d="M1375.5,-30C1375.5,-54.5503 1460.846,-41.427 1484.5,-48 1519.0131,-57.5906 1558.8215,-44.4198 1566.2674,-70.9222"/>
<polygon fill="#5b00c0" stroke="#5b00c0" points="1562.8118,-71.4989 1567.5,-81 1569.76,-70.649 1562.8118,-71.4989"/>
<text text-anchor="middle" x="1569" y="-51.8" font-family="Times,serif" font-size="14.00" fill="#5b00c0">rw</text>
</g>
<!-- T2179&#45;&gt;T2181 -->
<g id="edge4" class="edge">
<title>T2179:f0&#45;&gt;T2181:f3</title>
<path fill="none" stroke="#5b00c0" d="M389.5,-30C389.5,-45.4968 1444.3554,-62.6688 1557.6699,-78.3456"/>
<polygon fill="#5b00c0" stroke="#5b00c0" points="1556.9333,-81.772 1567.5,-81 1558.7582,-75.014 1556.9333,-81.772"/>
<text text-anchor="middle" x="1226" y="-51.8" font-family="Times,serif" font-size="14.00" fill="#5b00c0">rw</text>
</g>
</g>
</svg>
