<?xml version="1.0" encoding="UTF-8" standalone="no"?>
<!DOCTYPE svg PUBLIC "-//W3C//DTD SVG 1.1//EN"
 "http://www.w3.org/Graphics/SVG/1.1/DTD/svg11.dtd">
<!-- Generated by graphviz version 2.40.1 (20161225.0304)
 -->
<!-- Title: a_graph Pages: 1 -->
<svg width="4317pt" height="281pt"
 viewBox="0.00 0.00 4317.00 281.00" xmlns="http://www.w3.org/2000/svg" xmlns:xlink="http://www.w3.org/1999/xlink">
<g id="graph0" class="graph" transform="scale(1 1) rotate(0) translate(4 277)">
<title>a_graph</title>
<polygon fill="#ffffff" stroke="transparent" points="-4,4 -4,-277 4313,-277 4313,4 -4,4"/>
<!-- T3081 -->
<g id="node1" class="node">
<title>T3081</title>
<polygon fill="none" stroke="#0058ad" points="2152.5,-243.5 2152.5,-272.5 3976.5,-272.5 3976.5,-243.5 2152.5,-243.5"/>
<text text-anchor="middle" x="2592.5" y="-254.3" font-family="Times,serif" font-size="14.00" fill="#0058ad">r 20 [1 2 3 4 5 8 9 10 11 12 13 14 15 16 17 18 19 20 21 22 23 24 25 26 27 28 29 30 31 32 35 36 37 34 38 40 41 42 43 44 45 46 47 48 49 50 51 52 53 54 55]</text>
<polyline fill="none" stroke="#0058ad" points="3032.5,-243.5 3032.5,-272.5 "/>
<text text-anchor="middle" x="3064.5" y="-254.3" font-family="Times,serif" font-size="14.00" fill="#0058ad">a 18 107</text>
<polyline fill="none" stroke="#0058ad" points="3096.5,-243.5 3096.5,-272.5 "/>
<text text-anchor="middle" x="3536.5" y="-254.3" font-family="Times,serif" font-size="14.00" fill="#0058ad">r 20 [1 2 3 4 5 8 9 10 11 12 13 14 15 16 17 18 19 20 21 22 23 24 25 26 27 28 29 30 31 32 35 36 37 34 38 40 41 42 43 44 45 46 47 48 49 50 51 52 53 54 55]</text>
</g>
<!-- T3082 -->
<g id="node4" class="node">
<title>T3082</title>
<polygon fill="none" stroke="#0058ad" points="2005,-162.5 2005,-191.5 2126,-191.5 2126,-162.5 2005,-162.5"/>
<text text-anchor="middle" x="2033.5" y="-173.3" font-family="Times,serif" font-size="14.00" fill="#0058ad">a 20 56</text>
<polyline fill="none" stroke="#0058ad" points="2062,-162.5 2062,-191.5 "/>
<text text-anchor="middle" x="2094" y="-173.3" font-family="Times,serif" font-size="14.00" fill="#0058ad">a 14 120</text>
</g>
<!-- T3081&#45;&gt;T3082 -->
<g id="edge1" class="edge">
<title>T3081:f0&#45;&gt;T3082:f0</title>
<path fill="none" stroke="#5b00c0" d="M2152.5,-258C2095.5649,-258 2040.3647,-253.1068 2034.0914,-202.0749"/>
<polygon fill="#5b00c0" stroke="#5b00c0" points="2037.58,-201.7777 2033.5,-192 2030.5921,-202.1879 2037.58,-201.7777"/>
<text text-anchor="middle" x="2048" y="-213.8" font-family="Times,serif" font-size="14.00" fill="#5b00c0">rw</text>
</g>
<!-- T3087 -->
<g id="node2" class="node">
<title>T3087</title>
<polygon fill="none" stroke="#0058ad" points="1101,-81.5 1101,-110.5 1998,-110.5 1998,-81.5 1101,-81.5"/>
<text text-anchor="middle" x="1549.5" y="-92.3" font-family="Times,serif" font-size="14.00" fill="#0058ad">r 20 [1 2 3 4 5 8 9 10 11 12 13 14 15 16 17 18 19 20 21 22 23 24 25 26 27 28 29 30 31 32 35 36 37 34 38 40 41 42 43 44 45 46 47 48 49 50 51 52 53 54 55 56]</text>
</g>
<!-- T3089 -->
<g id="node3" class="node">
<title>T3089</title>
<polygon fill="none" stroke="#0058ad" points="0,-.5 0,-29.5 4309,-29.5 4309,-.5 0,-.5"/>
<text text-anchor="middle" x="760.5" y="-11.3" font-family="Times,serif" font-size="14.00" fill="#0058ad">r 14 [34 32 36 41 42 43 44 45 46 40 49 51 53 52 54 55 56 47 57 58 59 60 61 62 63 64 65 66 67 68 69 71 73 74 75 76 77 78 79 80 81 82 83 84 85 86 87 88 89 90 91 92 93 94 95 96 97 98 99 100 101 102 103 104 105 106 107 109 110 111 113 114 115 116 117 118 119 120]</text>
<polyline fill="none" stroke="#0058ad" points="1521,-.5 1521,-29.5 "/>
<text text-anchor="middle" x="1549.5" y="-11.3" font-family="Times,serif" font-size="14.00" fill="#0058ad">a 20 57</text>
<polyline fill="none" stroke="#0058ad" points="1578,-.5 1578,-29.5 "/>
<text text-anchor="middle" x="2035" y="-11.3" font-family="Times,serif" font-size="14.00" fill="#0058ad">r 20 [1 2 3 4 5 8 9 10 11 12 13 14 15 16 17 18 19 20 21 22 23 24 25 26 27 28 29 30 31 32 35 36 37 34 38 40 41 42 43 44 45 46 47 48 49 50 51 52 53 54 55 56 57]</text>
<polyline fill="none" stroke="#0058ad" points="2492,-.5 2492,-29.5 "/>
<text text-anchor="middle" x="3400.5" y="-11.3" font-family="Times,serif" font-size="14.00" fill="#0058ad">r 18 [1 2 3 4 5 7 8 9 10 11 13 12 14 15 16 17 18 19 20 21 22 23 24 25 26 28 27 29 30 31 32 33 34 35 36 37 38 39 40 41 42 43 44 45 46 47 48 49 50 51 53 54 52 55 56 57 58 59 60 61 62 63 64 65 66 67 68 69 70 71 72 73 74 75 76 77 78 79 80 81 84 85 86 87 88 89 90 91 92 93 94 95 96 97 98 99 100 101 102 103 104 105 106]</text>
</g>
<!-- T3087&#45;&gt;T3089 -->
<g id="edge2" class="edge">
<title>T3087:f0&#45;&gt;T3089:f1</title>
<path fill="none" stroke="#5b00c0" d="M1549.5,-81.3204C1549.5,-70.4532 1549.5,-55.0147 1549.5,-40.1425"/>
<polygon fill="#5b00c0" stroke="#5b00c0" points="1553.0001,-40 1549.5,-30 1546.0001,-40 1553.0001,-40"/>
<text text-anchor="middle" x="1557" y="-51.8" font-family="Times,serif" font-size="14.00" fill="#5b00c0">rw</text>
</g>
<!-- T3089&#45;&gt;T3081 -->
<g id="edge3" class="edge">
<title>T3089:f3&#45;&gt;T3081:f1</title>
<path fill="none" stroke="#5b00c0" d="M3400.5,-30C3400.5,-203.3579 3077.4968,-71.5607 3064.8795,-232.9985"/>
<polygon fill="#5b00c0" stroke="#5b00c0" points="3061.3818,-232.8744 3064.5,-243 3068.3768,-233.1399 3061.3818,-232.8744"/>
<text text-anchor="middle" x="3297" y="-132.8" font-family="Times,serif" font-size="14.00" fill="#5b00c0">rw</text>
</g>
<!-- T3082&#45;&gt;T3087 -->
<g id="edge5" class="edge">
<title>T3082:f0&#45;&gt;T3087:f0</title>
<path fill="none" stroke="#c000a5" d="M2004.5,-177C1860.3679,-177 1694.4735,-137.116 1608.3283,-113.3219"/>
<polygon fill="#c000a5" stroke="#c000a5" points="1609.0499,-109.8896 1598.4772,-110.5747 1607.1695,-116.6323 1609.0499,-109.8896"/>
<text text-anchor="middle" x="1741" y="-132.8" font-family="Times,serif" font-size="14.00" fill="#c000a5">wr</text>
</g>
<!-- T3082&#45;&gt;T3089 -->
<g id="edge4" class="edge">
<title>T3082:f0&#45;&gt;T3089:f1</title>
<path fill="none" stroke="#c02700" d="M2033.5,-162C2033.5,-124.0527 2036.0046,-104.8637 2006.5,-81 1969.3349,-50.9404 1601.7209,-77.2065 1554.4875,-38.8805"/>
<polygon fill="#c02700" stroke="#c02700" points="1557.4485,-37.0051 1549.5,-30 1551.3452,-40.4329 1557.4485,-37.0051"/>
<text text-anchor="middle" x="2039.5" y="-92.3" font-family="Times,serif" font-size="14.00" fill="#c02700">ww</text>
</g>
</g>
</svg>
