<?xml version="1.0" encoding="UTF-8" standalone="no"?>
<!DOCTYPE svg PUBLIC "-//W3C//DTD SVG 1.1//EN"
 "http://www.w3.org/Graphics/SVG/1.1/DTD/svg11.dtd">
<!-- Generated by graphviz version 2.40.1 (20161225.0304)
 -->
<!-- Title: a_graph Pages: 1 -->
<svg width="2159pt" height="119pt"
 viewBox="0.00 0.00 2159.00 119.00" xmlns="http://www.w3.org/2000/svg" xmlns:xlink="http://www.w3.org/1999/xlink">
<g id="graph0" class="graph" transform="scale(1 1) rotate(0) translate(4 115)">
<title>a_graph</title>
<polygon fill="#ffffff" stroke="transparent" points="-4,4 -4,-115 2155,-115 2155,4 -4,4"/>
<!-- T11745 -->
<g id="node1" class="node">
<title>T11745</title>
<polygon fill="none" stroke="#0058ad" points="120,-81.5 120,-110.5 2151,-110.5 2151,-81.5 120,-81.5"/>
<text text-anchor="middle" x="587.5" y="-92.3" font-family="Times,serif" font-size="14.00" fill="#0058ad">r 62 [1 2 3 4 5 6 7 8 9 10 11 12 13 14 15 16 17 18 19 20 22 23 24 25 21 26 27 28 29 30 31 32 34 35 33 37 38 36 39 40 41 42 43 44 45 46 47 48 49 50 52 51 53 54 55]</text>
<polyline fill="none" stroke="#0058ad" points="1055,-81.5 1055,-110.5 "/>
<text text-anchor="middle" x="1574.5" y="-92.3" font-family="Times,serif" font-size="14.00" fill="#0058ad">r 60 [1 2 3 4 5 6 7 8 9 10 11 12 13 14 16 17 15 18 20 22 24 25 26 27 28 29 21 30 32 31 33 34 36 35 37 38 39 40 41 42 43 44 45 46 47 48 49 50 52 51 53 54 55 56 57 58 59 60 61 62 63]</text>
<polyline fill="none" stroke="#0058ad" points="2094,-81.5 2094,-110.5 "/>
<text text-anchor="middle" x="2122.5" y="-92.3" font-family="Times,serif" font-size="14.00" fill="#0058ad">a 60 64</text>
</g>
<!-- T11741 -->
<g id="node2" class="node">
<title>T11741</title>
<polygon fill="none" stroke="#0058ad" points="0,-.5 0,-29.5 2031,-29.5 2031,-.5 0,-.5"/>
<text text-anchor="middle" x="467.5" y="-11.3" font-family="Times,serif" font-size="14.00" fill="#0058ad">r 62 [1 2 3 4 5 6 7 8 9 10 11 12 13 14 15 16 17 18 19 20 22 23 24 25 21 26 27 28 29 30 31 32 34 35 33 37 38 36 39 40 41 42 43 44 45 46 47 48 49 50 52 51 53 54 55]</text>
<polyline fill="none" stroke="#0058ad" points="935,-.5 935,-29.5 "/>
<text text-anchor="middle" x="1454.5" y="-11.3" font-family="Times,serif" font-size="14.00" fill="#0058ad">r 60 [1 2 3 4 5 6 7 8 9 10 11 12 13 14 16 17 15 18 20 22 24 25 26 27 28 29 21 30 32 31 33 34 36 35 37 38 39 40 41 42 43 44 45 46 47 48 49 50 52 51 53 54 55 56 57 58 59 60 61 62 63]</text>
<polyline fill="none" stroke="#0058ad" points="1974,-.5 1974,-29.5 "/>
<text text-anchor="middle" x="2002.5" y="-11.3" font-family="Times,serif" font-size="14.00" fill="#0058ad">a 62 56</text>
</g>
<!-- T11745&#45;&gt;T11741 -->
<g id="edge1" class="edge">
<title>T11745:f0&#45;&gt;T11741:f2</title>
<path fill="none" stroke="#5b00c0" d="M587.5,-81C587.5,-62.2947 1867.69,-50.8241 1992.7086,-32.8254"/>
<polygon fill="#5b00c0" stroke="#5b00c0" points="1993.8624,-36.1353 2002.5,-30 1991.9216,-29.4097 1993.8624,-36.1353"/>
<text text-anchor="middle" x="1592" y="-51.8" font-family="Times,serif" font-size="14.00" fill="#5b00c0">rw</text>
</g>
<!-- T11741&#45;&gt;T11745 -->
<g id="edge2" class="edge">
<title>T11741:f1&#45;&gt;T11745:f2</title>
<path fill="none" stroke="#5b00c0" d="M1454.5,-30C1454.5,-47.3011 2031.865,-60.4286 2113.0569,-77.1428"/>
<polygon fill="#5b00c0" stroke="#5b00c0" points="2111.919,-80.4587 2122.5,-81 2114.566,-73.9784 2111.919,-80.4587"/>
<text text-anchor="middle" x="1933" y="-51.8" font-family="Times,serif" font-size="14.00" fill="#5b00c0">rw</text>
</g>
</g>
</svg>
