<?xml version="1.0" encoding="UTF-8" standalone="no"?>
<!DOCTYPE svg PUBLIC "-//W3C//DTD SVG 1.1//EN"
 "http://www.w3.org/Graphics/SVG/1.1/DTD/svg11.dtd">
<!-- Generated by graphviz version 2.40.1 (20161225.0304)
 -->
<!-- Title: a_graph Pages: 1 -->
<svg width="1925pt" height="119pt"
 viewBox="0.00 0.00 1925.00 119.00" xmlns="http://www.w3.org/2000/svg" xmlns:xlink="http://www.w3.org/1999/xlink">
<g id="graph0" class="graph" transform="scale(1 1) rotate(0) translate(4 115)">
<title>a_graph</title>
<polygon fill="#ffffff" stroke="transparent" points="-4,4 -4,-115 1921,-115 1921,4 -4,4"/>
<!-- T9439 -->
<g id="node1" class="node">
<title>T9439</title>
<polygon fill="none" stroke="#0058ad" points="1582.5,-81.5 1582.5,-110.5 1770.5,-110.5 1770.5,-81.5 1582.5,-81.5"/>
<text text-anchor="middle" x="1611" y="-92.3" font-family="Times,serif" font-size="14.00" fill="#0058ad">a 49 99</text>
<polyline fill="none" stroke="#0058ad" points="1639.5,-81.5 1639.5,-110.5 "/>
<text text-anchor="middle" x="1705" y="-92.3" font-family="Times,serif" font-size="14.00" fill="#0058ad">r 52 [1 2 3 4 5 7 8 9]</text>
</g>
<!-- T9441 -->
<g id="node2" class="node">
<title>T9441</title>
<polygon fill="none" stroke="#0058ad" points="0,-.5 0,-29.5 1917,-29.5 1917,-.5 0,-.5"/>
<text text-anchor="middle" x="65.5" y="-11.3" font-family="Times,serif" font-size="14.00" fill="#0058ad">r 52 [1 2 3 4 5 7 8 9]</text>
<polyline fill="none" stroke="#0058ad" points="131,-.5 131,-29.5 "/>
<text text-anchor="middle" x="196.5" y="-11.3" font-family="Times,serif" font-size="14.00" fill="#0058ad">r 52 [1 2 3 4 5 7 8 9]</text>
<polyline fill="none" stroke="#0058ad" points="262,-.5 262,-29.5 "/>
<text text-anchor="middle" x="1061" y="-11.3" font-family="Times,serif" font-size="14.00" fill="#0058ad">r 49 [1 2 3 4 6 7 8 9 10 11 12 13 14 16 15 17 18 19 20 22 21 23 24 25 26 27 28 29 30 31 33 34 35 32 36 37 38 39 40 41 42 43 44 45 46 48 49 50 52 53 54 55 56 57 58 59 60 63 64 61 62 65 66 67 68 69 70 71 72 73 74 75 76 77 78 79 80 81 82 83 85 84 87 86 89 90 92 93 94 91 96 97 98]</text>
<polyline fill="none" stroke="#0058ad" points="1860,-.5 1860,-29.5 "/>
<text text-anchor="middle" x="1888.5" y="-11.3" font-family="Times,serif" font-size="14.00" fill="#0058ad">a 52 10</text>
</g>
<!-- T9439&#45;&gt;T9441 -->
<g id="edge1" class="edge">
<title>T9439:f1&#45;&gt;T9441:f3</title>
<path fill="none" stroke="#5b00c0" d="M1770.5,-96C1827.0695,-96 1881.7062,-90.7627 1887.9148,-40.0144"/>
<polygon fill="#5b00c0" stroke="#5b00c0" points="1891.4105,-40.1872 1888.5,-30 1884.4225,-39.7787 1891.4105,-40.1872"/>
<text text-anchor="middle" x="1893" y="-51.8" font-family="Times,serif" font-size="14.00" fill="#5b00c0">rw</text>
</g>
<!-- T9441&#45;&gt;T9439 -->
<g id="edge2" class="edge">
<title>T9441:f2&#45;&gt;T9439:f0</title>
<path fill="none" stroke="#5b00c0" d="M1061.5,-30C1061.5,-85.7303 1483.516,-95.2105 1572.2672,-95.9498"/>
<polygon fill="#5b00c0" stroke="#5b00c0" points="1572.4829,-99.4508 1582.5,-96 1572.5173,-92.4509 1572.4829,-99.4508"/>
<text text-anchor="middle" x="1126" y="-51.8" font-family="Times,serif" font-size="14.00" fill="#5b00c0">rw</text>
</g>
</g>
</svg>
