<?xml version="1.0" encoding="UTF-8" standalone="no"?>
<!DOCTYPE svg PUBLIC "-//W3C//DTD SVG 1.1//EN"
 "http://www.w3.org/Graphics/SVG/1.1/DTD/svg11.dtd">
<!-- Generated by graphviz version 2.40.1 (20161225.0304)
 -->
<!-- Title: a_graph Pages: 1 -->
<svg width="1887pt" height="443pt"
 viewBox="0.00 0.00 1887.00 443.00" xmlns="http://www.w3.org/2000/svg" xmlns:xlink="http://www.w3.org/1999/xlink">
<g id="graph0" class="graph" transform="scale(1 1) rotate(0) translate(4 439)">
<title>a_graph</title>
<polygon fill="#ffffff" stroke="transparent" points="-4,4 -4,-439 1883,-439 1883,4 -4,4"/>
<!-- T12486 -->
<g id="node1" class="node">
<title>T12486</title>
<polygon fill="none" stroke="#0058ad" points="356,-405.5 356,-434.5 784,-434.5 784,-405.5 356,-405.5"/>
<text text-anchor="middle" x="384.5" y="-416.3" font-family="Times,serif" font-size="14.00" fill="#0058ad">a 4 107</text>
<polyline fill="none" stroke="#0058ad" points="413,-405.5 413,-434.5 "/>
<text text-anchor="middle" x="570" y="-416.3" font-family="Times,serif" font-size="14.00" fill="#0058ad">r 66 [1 2 3 4 5 6 9 10 7 8 11 12 13 14 15 16 17 19 20]</text>
<polyline fill="none" stroke="#0058ad" points="727,-405.5 727,-434.5 "/>
<text text-anchor="middle" x="755.5" y="-416.3" font-family="Times,serif" font-size="14.00" fill="#0058ad">a 61 77</text>
</g>
<!-- T12484 -->
<g id="node6" class="node">
<title>T12484</title>
<polygon fill="none" stroke="#0058ad" points="128.5,-324.5 128.5,-353.5 1189.5,-353.5 1189.5,-324.5 128.5,-324.5"/>
<text text-anchor="middle" x="630.5" y="-335.3" font-family="Times,serif" font-size="14.00" fill="#0058ad">r 65 [1 2 4 3 5 6 8 9 7 11 10 12 13 15 16 14 17 18 19 20 24 25 21 26 27 28 29 30 22 23 36 37 38 40 32 43 44 45 42 46 47 49 50 48 51 52 54 53 55 56 57 58 61 62 63 64 65 66 67]</text>
<polyline fill="none" stroke="#0058ad" points="1132.5,-324.5 1132.5,-353.5 "/>
<text text-anchor="middle" x="1161" y="-335.3" font-family="Times,serif" font-size="14.00" fill="#0058ad">a 66 18</text>
</g>
<!-- T12486&#45;&gt;T12484 -->
<g id="edge1" class="edge">
<title>T12486:f1&#45;&gt;T12484:f1</title>
<path fill="none" stroke="#5b00c0" d="M570,-405C570,-276.7831 1129.1216,-474.4501 1159.6985,-364.0549"/>
<polygon fill="#5b00c0" stroke="#5b00c0" points="1163.1873,-364.3666 1161,-354 1156.2452,-363.468 1163.1873,-364.3666"/>
<text text-anchor="middle" x="1161.5" y="-375.8" font-family="Times,serif" font-size="14.00" fill="#5b00c0">rw</text>
</g>
<!-- T12476 -->
<g id="node2" class="node">
<title>T12476</title>
<polygon fill="none" stroke="#0058ad" points="169.5,-162.5 169.5,-191.5 226.5,-191.5 226.5,-162.5 169.5,-162.5"/>
<text text-anchor="middle" x="198" y="-173.3" font-family="Times,serif" font-size="14.00" fill="#0058ad">a 66 20</text>
</g>
<!-- T12476&#45;&gt;T12486 -->
<g id="edge4" class="edge">
<title>T12476:f0&#45;&gt;T12486:f1</title>
<path fill="none" stroke="#c000a5" d="M187.5993,-191.6662C161.507,-229.3113 96.9608,-328.2022 120,-354 184.5491,-426.2779 542.012,-313.3401 568.4536,-394.7052"/>
<polygon fill="#c000a5" stroke="#c000a5" points="565.0533,-395.6309 570,-405 571.9756,-394.591 565.0533,-395.6309"/>
<text text-anchor="middle" x="135.5" y="-294.8" font-family="Times,serif" font-size="14.00" fill="#c000a5">wr</text>
</g>
<!-- T12478 -->
<g id="node3" class="node">
<title>T12478</title>
<polygon fill="none" stroke="#0058ad" points="0,-81.5 0,-110.5 314,-110.5 314,-81.5 0,-81.5"/>
<text text-anchor="middle" x="157" y="-92.3" font-family="Times,serif" font-size="14.00" fill="#0058ad">r 66 [1 2 3 4 5 6 9 10 7 8 11 12 13 14 15 16 17 19 20]</text>
</g>
<!-- T12476&#45;&gt;T12478 -->
<g id="edge2" class="edge">
<title>T12476:f0&#45;&gt;T12478:f0</title>
<path fill="none" stroke="#c000a5" d="M190.48,-162.1434C184.5271,-150.3828 176.0936,-133.7216 169.1804,-120.0637"/>
<polygon fill="#c000a5" stroke="#c000a5" points="172.1113,-118.1039 164.4724,-110.7625 165.8658,-121.2653 172.1113,-118.1039"/>
<text text-anchor="middle" x="188.5" y="-132.8" font-family="Times,serif" font-size="14.00" fill="#c000a5">wr</text>
</g>
<!-- T12482 -->
<g id="node4" class="node">
<title>T12482</title>
<polygon fill="none" stroke="#0058ad" points="1399.5,-.5 1399.5,-29.5 1770.5,-29.5 1770.5,-.5 1399.5,-.5"/>
<text text-anchor="middle" x="1428" y="-11.3" font-family="Times,serif" font-size="14.00" fill="#0058ad">a 65 69</text>
<polyline fill="none" stroke="#0058ad" points="1456.5,-.5 1456.5,-29.5 "/>
<text text-anchor="middle" x="1613.5" y="-11.3" font-family="Times,serif" font-size="14.00" fill="#0058ad">r 66 [1 2 3 4 5 6 9 10 7 8 11 12 13 14 15 16 17 19 20]</text>
</g>
<!-- T12476&#45;&gt;T12482 -->
<g id="edge5" class="edge">
<title>T12476:f0&#45;&gt;T12482:f1</title>
<path fill="none" stroke="#c000a5" d="M224.7306,-162.4022C225.1544,-162.2618 225.5777,-162.1276 226,-162 370.9707,-118.2154 1558.861,-181.9332 1612.1502,-40.1057"/>
<polygon fill="#c000a5" stroke="#c000a5" points="1615.6421,-40.4668 1614,-30 1608.7565,-39.2063 1615.6421,-40.4668"/>
<text text-anchor="middle" x="1550.5" y="-92.3" font-family="Times,serif" font-size="14.00" fill="#c000a5">wr</text>
</g>
<!-- T12476&#45;&gt;T12484 -->
<g id="edge3" class="edge">
<title>T12476:f0&#45;&gt;T12484:f1</title>
<path fill="none" stroke="#c02700" d="M194.1635,-191.8397C189.6491,-213.1445 185.2712,-252.1249 207,-273 281.0073,-344.0998 1103.6147,-226.1717 1158.1594,-314.187"/>
<polygon fill="#c02700" stroke="#c02700" points="1154.8574,-315.3676 1161,-324 1161.5813,-313.4211 1154.8574,-315.3676"/>
<text text-anchor="middle" x="217" y="-254.3" font-family="Times,serif" font-size="14.00" fill="#c02700">ww</text>
</g>
<!-- T12478&#45;&gt;T12486 -->
<g id="edge7" class="edge">
<title>T12478&#45;&gt;T12486</title>
<path fill="none" stroke="#0050c0" d="M119.1805,-110.6193C92.6881,-123.6099 62,-145.4639 62,-177 62,-339 62,-339 62,-339 62,-383.551 107.295,-374.3084 150,-387 187.3155,-398.0899 266.2157,-405.6628 345.6662,-410.7261"/>
<polygon fill="#0050c0" stroke="#0050c0" points="345.6617,-414.2326 355.8603,-411.3621 346.0977,-407.2462 345.6617,-414.2326"/>
<text text-anchor="middle" x="66.5" y="-254.3" font-family="Times,serif" font-size="14.00" fill="#0050c0">rt</text>
</g>
<!-- T12478&#45;&gt;T12482 -->
<g id="edge8" class="edge">
<title>T12478&#45;&gt;T12482</title>
<path fill="none" stroke="#0050c0" d="M314.2482,-87.0805C576.6442,-72.1967 1103.1317,-42.3329 1389.1726,-26.1079"/>
<polygon fill="#0050c0" stroke="#0050c0" points="1389.46,-29.5973 1399.2457,-25.5365 1389.0635,-22.6085 1389.46,-29.5973"/>
<text text-anchor="middle" x="1002.5" y="-51.8" font-family="Times,serif" font-size="14.00" fill="#0050c0">rt</text>
</g>
<!-- T12478&#45;&gt;T12484 -->
<g id="edge6" class="edge">
<title>T12478:f0&#45;&gt;T12484:f1</title>
<path fill="none" stroke="#5b00c0" d="M152.1091,-110.7196C140.2991,-149.3675 115.0706,-254.3035 170,-306 188.8942,-323.7821 1052.2699,-299.5836 1151.6977,-319.7783"/>
<polygon fill="#5b00c0" stroke="#5b00c0" points="1150.4474,-323.0544 1161,-324 1153.3403,-316.6802 1150.4474,-323.0544"/>
<text text-anchor="middle" x="143.5" y="-213.8" font-family="Times,serif" font-size="14.00" fill="#5b00c0">rw</text>
</g>
<!-- T12482&#45;&gt;T12484 -->
<g id="edge9" class="edge">
<title>T12482:f1&#45;&gt;T12484:f1</title>
<path fill="none" stroke="#5b00c0" d="M1771,-15C1825.8128,-15 1864,-41.1872 1864,-96 1864,-258 1864,-258 1864,-258 1864,-268.7589 1855.0179,-269.0764 1845,-273 1710.09,-325.8387 1309.1336,-234.7466 1195,-324 1193.2701,-325.3528 1192.8194,-327.3249 1192.8028,-329.3972"/>
<polygon fill="#5b00c0" stroke="#5b00c0" points="1189.4421,-328.4199 1190,-339 1196.1617,-330.3812 1189.4421,-328.4199"/>
<text text-anchor="middle" x="1871.5" y="-173.3" font-family="Times,serif" font-size="14.00" fill="#5b00c0">rw</text>
</g>
<!-- T12480 -->
<g id="node5" class="node">
<title>T12480</title>
<polygon fill="none" stroke="#0058ad" points="236,-243.5 236,-272.5 1836,-272.5 1836,-243.5 236,-243.5"/>
<text text-anchor="middle" x="859" y="-254.3" font-family="Times,serif" font-size="14.00" fill="#0058ad">r 61 [1 2 3 4 5 6 8 7 9 10 11 12 13 14 15 16 17 18 19 20 21 22 23 25 24 27 26 28 30 29 33 34 31 32 36 37 38 39 40 41 42 43 44 45 46 47 48 49 50 51 55 54 56 57 59 58 60 61 62 63 65 64 66 67 68 70 71 72 69 73 75 74 76]</text>
<polyline fill="none" stroke="#0058ad" points="1482,-243.5 1482,-272.5 "/>
<text text-anchor="middle" x="1630.5" y="-254.3" font-family="Times,serif" font-size="14.00" fill="#0058ad">r 66 [1 2 3 4 5 6 9 10 7 8 11 12 13 14 15 16 17 19]</text>
<polyline fill="none" stroke="#0058ad" points="1779,-243.5 1779,-272.5 "/>
<text text-anchor="middle" x="1807.5" y="-254.3" font-family="Times,serif" font-size="14.00" fill="#0058ad">a 65 68</text>
</g>
<!-- T12480&#45;&gt;T12486 -->
<g id="edge11" class="edge">
<title>T12480:f0&#45;&gt;T12486:f2</title>
<path fill="none" stroke="#5b00c0" d="M859,-273C859,-349.4008 1149.1442,-266.108 1199,-324 1207.7008,-334.1032 1203.3666,-341.402 1199,-354 1192.885,-371.6422 1189.4391,-378.1457 1173,-387 1137.0475,-406.3645 862.4803,-418.5154 794.2373,-419.8728"/>
<polygon fill="#5b00c0" stroke="#5b00c0" points="793.9557,-416.376 784,-420 794.0427,-423.3754 793.9557,-416.376"/>
<text text-anchor="middle" x="1211.5" y="-335.3" font-family="Times,serif" font-size="14.00" fill="#5b00c0">rw</text>
</g>
<!-- T12480&#45;&gt;T12476 -->
<g id="edge10" class="edge">
<title>T12480:f1&#45;&gt;T12476:f0</title>
<path fill="none" stroke="#5b00c0" d="M1631,-243C1631,-224.3123 361.413,-199.3504 234.3827,-192.3645"/>
<polygon fill="#5b00c0" stroke="#5b00c0" points="234.6561,-188.8752 224.4004,-191.5344 234.076,-195.8511 234.6561,-188.8752"/>
<text text-anchor="middle" x="1338.5" y="-213.8" font-family="Times,serif" font-size="14.00" fill="#5b00c0">rw</text>
</g>
<!-- T12480&#45;&gt;T12482 -->
<g id="edge12" class="edge">
<title>T12480:f2&#45;&gt;T12482:f0</title>
<path fill="none" stroke="#c02700" d="M1808,-243C1808,-52.8868 1441.6064,-217.436 1428.3676,-40.1377"/>
<polygon fill="#c02700" stroke="#c02700" points="1431.8602,-39.8666 1428,-30 1424.8648,-40.1203 1431.8602,-39.8666"/>
<text text-anchor="middle" x="1712" y="-132.8" font-family="Times,serif" font-size="14.00" fill="#c02700">ww</text>
</g>
<!-- T12484&#45;&gt;T12480 -->
<g id="edge13" class="edge">
<title>T12484:f0&#45;&gt;T12480:f2</title>
<path fill="none" stroke="#5b00c0" d="M128,-339C121.3333,-339 123.3593,-328.7862 128,-324 210.7221,-238.6849 1078.2197,-294.583 1197,-291 1212.6791,-290.527 1720.8517,-290.0571 1798.1776,-276.6007"/>
<polygon fill="#5b00c0" stroke="#5b00c0" points="1799.8156,-279.7281 1808,-273 1797.4063,-273.1557 1799.8156,-279.7281"/>
<text text-anchor="middle" x="1204.5" y="-294.8" font-family="Times,serif" font-size="14.00" fill="#5b00c0">rw</text>
</g>
</g>
</svg>
