<?xml version="1.0" encoding="UTF-8" standalone="no"?>
<!DOCTYPE svg PUBLIC "-//W3C//DTD SVG 1.1//EN"
 "http://www.w3.org/Graphics/SVG/1.1/DTD/svg11.dtd">
<!-- Generated by graphviz version 2.40.1 (20161225.0304)
 -->
<!-- Title: a_graph Pages: 1 -->
<svg width="192pt" height="200pt"
 viewBox="0.00 0.00 191.50 200.00" xmlns="http://www.w3.org/2000/svg" xmlns:xlink="http://www.w3.org/1999/xlink">
<g id="graph0" class="graph" transform="scale(1 1) rotate(0) translate(4 196)">
<title>a_graph</title>
<polygon fill="#ffffff" stroke="transparent" points="-4,4 -4,-196 187.5,-196 187.5,4 -4,4"/>
<!-- T14941 -->
<g id="node1" class="node">
<title>T14941</title>
<polygon fill="none" stroke="#0058ad" points="109.5,-162.5 109.5,-191.5 163.5,-191.5 163.5,-162.5 109.5,-162.5"/>
<text text-anchor="middle" x="136.5" y="-173.3" font-family="Times,serif" font-size="14.00" fill="#0058ad">a 78 1</text>
</g>
<!-- T14945 -->
<g id="node3" class="node">
<title>T14945</title>
<polygon fill="none" stroke="#0058ad" points="0,-81.5 0,-110.5 157,-110.5 157,-81.5 0,-81.5"/>
<text text-anchor="middle" x="28.5" y="-92.3" font-family="Times,serif" font-size="14.00" fill="#0058ad">a 77 10</text>
<polyline fill="none" stroke="#0058ad" points="57,-81.5 57,-110.5 "/>
<text text-anchor="middle" x="82" y="-92.3" font-family="Times,serif" font-size="14.00" fill="#0058ad">a 78 3</text>
<polyline fill="none" stroke="#0058ad" points="107,-81.5 107,-110.5 "/>
<text text-anchor="middle" x="132" y="-92.3" font-family="Times,serif" font-size="14.00" fill="#0058ad">a 78 4</text>
</g>
<!-- T14941&#45;&gt;T14945 -->
<g id="edge1" class="edge">
<title>T14941&#45;&gt;T14945</title>
<path fill="none" stroke="#0050c0" d="M125.8619,-162.1434C117.2773,-150.1545 105.0459,-133.0727 95.1636,-119.2715"/>
<polygon fill="#0050c0" stroke="#0050c0" points="97.7383,-116.8554 89.0707,-110.7625 92.0469,-120.9307 97.7383,-116.8554"/>
<text text-anchor="middle" x="118" y="-132.8" font-family="Times,serif" font-size="14.00" fill="#0050c0">rt</text>
</g>
<!-- T14951 -->
<g id="node2" class="node">
<title>T14951</title>
<polygon fill="none" stroke="#0058ad" points="109.5,-.5 109.5,-29.5 163.5,-29.5 163.5,-.5 109.5,-.5"/>
<text text-anchor="middle" x="136.5" y="-11.3" font-family="Times,serif" font-size="14.00" fill="#0058ad">r 78 []</text>
</g>
<!-- T14951&#45;&gt;T14941 -->
<g id="edge2" class="edge">
<title>T14951:f0&#45;&gt;T14941:f0</title>
<path fill="none" stroke="#5b00c0" d="M145.0338,-29.6096C152.0996,-42.6056 161.5901,-62.3823 165.5,-81 168.2403,-94.0487 168.2403,-97.9513 165.5,-111 162.4149,-125.6905 155.8551,-141.1027 149.7537,-153.3358"/>
<polygon fill="#5b00c0" stroke="#5b00c0" points="146.5526,-151.905 145.0338,-162.3904 152.7599,-155.1407 146.5526,-151.905"/>
<text text-anchor="middle" x="176" y="-92.3" font-family="Times,serif" font-size="14.00" fill="#5b00c0">rw</text>
</g>
<!-- T14945&#45;&gt;T14951 -->
<g id="edge3" class="edge">
<title>T14945&#45;&gt;T14951</title>
<path fill="none" stroke="#0050c0" d="M89.1381,-81.1434C97.7227,-69.1545 109.9541,-52.0727 119.8364,-38.2715"/>
<polygon fill="#0050c0" stroke="#0050c0" points="122.9531,-39.9307 125.9293,-29.7625 117.2617,-35.8554 122.9531,-39.9307"/>
<text text-anchor="middle" x="118" y="-51.8" font-family="Times,serif" font-size="14.00" fill="#0050c0">rt</text>
</g>
</g>
</svg>
