<?xml version="1.0" encoding="UTF-8" standalone="no"?>
<!DOCTYPE svg PUBLIC "-//W3C//DTD SVG 1.1//EN"
 "http://www.w3.org/Graphics/SVG/1.1/DTD/svg11.dtd">
<!-- Generated by graphviz version 2.40.1 (20161225.0304)
 -->
<!-- Title: a_graph Pages: 1 -->
<svg width="178pt" height="200pt"
 viewBox="0.00 0.00 178.00 200.00" xmlns="http://www.w3.org/2000/svg" xmlns:xlink="http://www.w3.org/1999/xlink">
<g id="graph0" class="graph" transform="scale(1 1) rotate(0) translate(4 196)">
<title>a_graph</title>
<polygon fill="#ffffff" stroke="transparent" points="-4,4 -4,-196 174,-196 174,4 -4,4"/>
<!-- T3585 -->
<g id="node1" class="node">
<title>T3585</title>
<polygon fill="none" stroke="#0058ad" points="70.5,-162.5 70.5,-191.5 127.5,-191.5 127.5,-162.5 70.5,-162.5"/>
<text text-anchor="middle" x="99" y="-173.3" font-family="Times,serif" font-size="14.00" fill="#0058ad">a 22 58</text>
</g>
<!-- T3587 -->
<g id="node3" class="node">
<title>T3587</title>
<polygon fill="none" stroke="#0058ad" points="116,-81.5 116,-110.5 170,-110.5 170,-81.5 116,-81.5"/>
<text text-anchor="middle" x="143" y="-92.3" font-family="Times,serif" font-size="14.00" fill="#0058ad">r 25 []</text>
</g>
<!-- T3585&#45;&gt;T3587 -->
<g id="edge1" class="edge">
<title>T3585&#45;&gt;T3587</title>
<path fill="none" stroke="#0050c0" d="M107.0703,-162.1434C113.5207,-150.2687 122.6853,-133.3976 130.144,-119.6667"/>
<polygon fill="#0050c0" stroke="#0050c0" points="133.2831,-121.2204 134.9809,-110.7625 127.132,-117.879 133.2831,-121.2204"/>
<text text-anchor="middle" x="128.5" y="-132.8" font-family="Times,serif" font-size="14.00" fill="#0050c0">rt</text>
</g>
<!-- T3589 -->
<g id="node2" class="node">
<title>T3589</title>
<polygon fill="none" stroke="#0058ad" points="0,-.5 0,-29.5 166,-29.5 166,-.5 0,-.5"/>
<text text-anchor="middle" x="25.5" y="-11.3" font-family="Times,serif" font-size="14.00" fill="#0058ad">r 25 []</text>
<polyline fill="none" stroke="#0058ad" points="51,-.5 51,-29.5 "/>
<text text-anchor="middle" x="83.5" y="-11.3" font-family="Times,serif" font-size="14.00" fill="#0058ad">r 22 [47]</text>
<polyline fill="none" stroke="#0058ad" points="116,-.5 116,-29.5 "/>
<text text-anchor="middle" x="141" y="-11.3" font-family="Times,serif" font-size="14.00" fill="#0058ad">a 25 1</text>
</g>
<!-- T3589&#45;&gt;T3585 -->
<g id="edge2" class="edge">
<title>T3589:f1&#45;&gt;T3585:f0</title>
<path fill="none" stroke="#5b00c0" d="M84,-30C84,-73.2199 90.4967,-123.2201 94.9389,-152.3571"/>
<polygon fill="#5b00c0" stroke="#5b00c0" points="91.514,-153.1091 96.5231,-162.4451 98.4293,-152.0231 91.514,-153.1091"/>
<text text-anchor="middle" x="96.5" y="-92.3" font-family="Times,serif" font-size="14.00" fill="#5b00c0">rw</text>
</g>
<!-- T3587&#45;&gt;T3589 -->
<g id="edge3" class="edge">
<title>T3587:f0&#45;&gt;T3589:f2</title>
<path fill="none" stroke="#5b00c0" d="M142.3005,-81.3242C141.8319,-70.4592 141.2662,-55.0222 141.0706,-40.1461"/>
<polygon fill="#5b00c0" stroke="#5b00c0" points="144.5696,-39.9754 141,-30 137.5698,-40.0241 144.5696,-39.9754"/>
<text text-anchor="middle" x="148.5" y="-51.8" font-family="Times,serif" font-size="14.00" fill="#5b00c0">rw</text>
</g>
</g>
</svg>
