<?xml version="1.0" encoding="UTF-8" standalone="no"?>
<!DOCTYPE svg PUBLIC "-//W3C//DTD SVG 1.1//EN"
 "http://www.w3.org/Graphics/SVG/1.1/DTD/svg11.dtd">
<!-- Generated by graphviz version 2.40.1 (20161225.0304)
 -->
<!-- Title: a_graph Pages: 1 -->
<svg width="1700pt" height="119pt"
 viewBox="0.00 0.00 1700.00 119.00" xmlns="http://www.w3.org/2000/svg" xmlns:xlink="http://www.w3.org/1999/xlink">
<g id="graph0" class="graph" transform="scale(1 1) rotate(0) translate(4 115)">
<title>a_graph</title>
<polygon fill="#ffffff" stroke="transparent" points="-4,4 -4,-115 1696,-115 1696,4 -4,4"/>
<!-- T36523 -->
<g id="node1" class="node">
<title>T36523</title>
<polygon fill="none" stroke="#0058ad" points="0,-81.5 0,-110.5 1692,-110.5 1692,-81.5 0,-81.5"/>
<text text-anchor="middle" x="84.5" y="-92.3" font-family="Times,serif" font-size="14.00" fill="#0058ad">r 183 [1 2 3 8 5 10 11 4 13]</text>
<polyline fill="none" stroke="#0058ad" points="169,-81.5 169,-110.5 "/>
<text text-anchor="middle" x="197.5" y="-92.3" font-family="Times,serif" font-size="14.00" fill="#0058ad">a 183 9</text>
<polyline fill="none" stroke="#0058ad" points="226,-81.5 226,-110.5 "/>
<text text-anchor="middle" x="835" y="-92.3" font-family="Times,serif" font-size="14.00" fill="#0058ad">r 163 [1 2 3 4 5 6 7 8 9 10 11 12 13 14 15 16 17 19 18 20 21 22 23 24 25 26 27 29 31 33 34 35 36 37 38 39 40 41 42 43 44 45 47 48 49 50 51 53 52 54 55 56 57 58 59 60 61 62 63 65 66 67 68 69 70 71 72 73 74 75 76]</text>
<polyline fill="none" stroke="#0058ad" points="1444,-81.5 1444,-110.5 "/>
<text text-anchor="middle" x="1568" y="-92.3" font-family="Times,serif" font-size="14.00" fill="#0058ad">r 181 [1 4 6 5 2 3 7 10 11 12 13 15 14 17]</text>
</g>
<!-- T36527 -->
<g id="node2" class="node">
<title>T36527</title>
<polygon fill="none" stroke="#0058ad" points="684.5,-.5 684.5,-29.5 1255.5,-29.5 1255.5,-.5 684.5,-.5"/>
<text text-anchor="middle" x="769" y="-11.3" font-family="Times,serif" font-size="14.00" fill="#0058ad">r 183 [1 2 3 8 5 10 11 4 13]</text>
<polyline fill="none" stroke="#0058ad" points="853.5,-.5 853.5,-29.5 "/>
<text text-anchor="middle" x="938" y="-11.3" font-family="Times,serif" font-size="14.00" fill="#0058ad">r 183 [1 2 3 8 5 10 11 4 13]</text>
<polyline fill="none" stroke="#0058ad" points="1022.5,-.5 1022.5,-29.5 "/>
<text text-anchor="middle" x="1107" y="-11.3" font-family="Times,serif" font-size="14.00" fill="#0058ad">r 183 [1 2 3 8 5 10 11 4 13]</text>
<polyline fill="none" stroke="#0058ad" points="1191.5,-.5 1191.5,-29.5 "/>
<text text-anchor="middle" x="1223.5" y="-11.3" font-family="Times,serif" font-size="14.00" fill="#0058ad">a 181 18</text>
</g>
<!-- T36523&#45;&gt;T36527 -->
<g id="edge1" class="edge">
<title>T36523:f3&#45;&gt;T36527:f3</title>
<path fill="none" stroke="#5b00c0" d="M1568,-81C1568,-47.9192 1326.9457,-19.081 1266.0975,-15.3968"/>
<polygon fill="#5b00c0" stroke="#5b00c0" points="1266.1298,-11.8955 1256,-15 1265.8548,-18.8901 1266.1298,-11.8955"/>
<text text-anchor="middle" x="1551.5" y="-51.8" font-family="Times,serif" font-size="14.00" fill="#5b00c0">rw</text>
</g>
<!-- T36527&#45;&gt;T36523 -->
<g id="edge2" class="edge">
<title>T36527:f0&#45;&gt;T36523:f1</title>
<path fill="none" stroke="#5b00c0" d="M684,-15C632.5938,-15 246.3742,-25.0981 201.2905,-71.84"/>
<polygon fill="#5b00c0" stroke="#5b00c0" points="198.0723,-70.4596 197,-81 204.4113,-73.4288 198.0723,-70.4596"/>
<text text-anchor="middle" x="268.5" y="-51.8" font-family="Times,serif" font-size="14.00" fill="#5b00c0">rw</text>
</g>
</g>
</svg>
