<?xml version="1.0" encoding="UTF-8" standalone="no"?>
<!DOCTYPE svg PUBLIC "-//W3C//DTD SVG 1.1//EN"
 "http://www.w3.org/Graphics/SVG/1.1/DTD/svg11.dtd">
<!-- Generated by graphviz version 2.40.1 (20161225.0304)
 -->
<!-- Title: a_graph Pages: 1 -->
<svg width="3191pt" height="119pt"
 viewBox="0.00 0.00 3191.04 119.00" xmlns="http://www.w3.org/2000/svg" xmlns:xlink="http://www.w3.org/1999/xlink">
<g id="graph0" class="graph" transform="scale(1 1) rotate(0) translate(4 115)">
<title>a_graph</title>
<polygon fill="#ffffff" stroke="transparent" points="-4,4 -4,-115 3187.038,-115 3187.038,4 -4,4"/>
<!-- T31747 -->
<g id="node1" class="node">
<title>T31747</title>
<polygon fill="none" stroke="#0058ad" points="1017.5,-81.5 1017.5,-110.5 3178.5,-110.5 3178.5,-81.5 1017.5,-81.5"/>
<text text-anchor="middle" x="1049.5" y="-92.3" font-family="Times,serif" font-size="14.00" fill="#0058ad">a 159 62</text>
<polyline fill="none" stroke="#0058ad" points="1081.5,-81.5 1081.5,-110.5 "/>
<text text-anchor="middle" x="1113.5" y="-92.3" font-family="Times,serif" font-size="14.00" fill="#0058ad">a 158 20</text>
<polyline fill="none" stroke="#0058ad" points="1145.5,-81.5 1145.5,-110.5 "/>
<text text-anchor="middle" x="2162" y="-92.3" font-family="Times,serif" font-size="14.00" fill="#0058ad">r 156 [1 4 5 6 7 8 9 10 11 13 12 14 16 15 17 18 19 20 21 22 23 24 25 26 27 28 29 30 31 32 33 35 37 38 39 40 41 42 43 44 45 46 47 48 49 50 51 52 53 54 55 56 57 60 58 59 62 63 64 66 65 67 68 69 70 71 72 73 74 75 76 78 81 82 79 80 85 87 84 88 89 90 91 92 93 95 94 96 97 98 99 100 101 102 104 105 103 106 108 109 110 111 112 113 114 117 115 116 118 119]</text>
</g>
<!-- T31749 -->
<g id="node2" class="node">
<title>T31749</title>
<polygon fill="none" stroke="#0058ad" points="0,-.5 0,-29.5 3104,-29.5 3104,-.5 0,-.5"/>
<text text-anchor="middle" x="505.5" y="-11.3" font-family="Times,serif" font-size="14.00" fill="#0058ad">r 159 [2 3 1 4 5 6 7 8 9 10 11 12 13 15 14 16 17 18 19 20 21 22 24 25 26 23 29 27 28 33 34 31 32 35 36 37 38 39 40 41 42 44 45 43 46 47 48 49 51 52 53 50 54 55 56 57 58 59 60]</text>
<polyline fill="none" stroke="#0058ad" points="1011,-.5 1011,-29.5 "/>
<text text-anchor="middle" x="1516.5" y="-11.3" font-family="Times,serif" font-size="14.00" fill="#0058ad">r 159 [2 3 1 4 5 6 7 8 9 10 11 12 13 15 14 16 17 18 19 20 21 22 24 25 26 23 29 27 28 33 34 31 32 35 36 37 38 39 40 41 42 44 45 43 46 47 48 49 51 52 53 50 54 55 56 57 58 59 60]</text>
<polyline fill="none" stroke="#0058ad" points="2022,-.5 2022,-29.5 "/>
<text text-anchor="middle" x="2527.5" y="-11.3" font-family="Times,serif" font-size="14.00" fill="#0058ad">r 159 [2 3 1 4 5 6 7 8 9 10 11 12 13 15 14 16 17 18 19 20 21 22 24 25 26 23 29 27 28 33 34 31 32 35 36 37 38 39 40 41 42 44 45 43 46 47 48 49 51 52 53 50 54 55 56 57 58 59 60]</text>
<polyline fill="none" stroke="#0058ad" points="3033,-.5 3033,-29.5 "/>
<text text-anchor="middle" x="3068.5" y="-11.3" font-family="Times,serif" font-size="14.00" fill="#0058ad">a 156 121</text>
</g>
<!-- T31747&#45;&gt;T31749 -->
<g id="edge1" class="edge">
<title>T31747:f2&#45;&gt;T31749:f3</title>
<path fill="none" stroke="#5b00c0" d="M3179,-96C3185.6667,-96 3182.5882,-86.6187 3179,-81 3152.1488,-38.954 3080.7365,-77.2339 3070.2841,-40.3898"/>
<polygon fill="#5b00c0" stroke="#5b00c0" points="3073.7003,-39.4951 3069,-30 3066.7531,-40.3538 3073.7003,-39.4951"/>
<text text-anchor="middle" x="3160.5" y="-51.8" font-family="Times,serif" font-size="14.00" fill="#5b00c0">rw</text>
</g>
<!-- T31749&#45;&gt;T31747 -->
<g id="edge2" class="edge">
<title>T31749:f0&#45;&gt;T31747:f0</title>
<path fill="none" stroke="#5b00c0" d="M505,-30C505,-84.7829 919.7113,-95.1254 1006.942,-95.9441"/>
<polygon fill="#5b00c0" stroke="#5b00c0" points="1006.9807,-99.4442 1017,-96 1007.0197,-92.4443 1006.9807,-99.4442"/>
<text text-anchor="middle" x="568.5" y="-51.8" font-family="Times,serif" font-size="14.00" fill="#5b00c0">rw</text>
</g>
</g>
</svg>
