<?xml version="1.0" encoding="UTF-8" standalone="no"?>
<!DOCTYPE svg PUBLIC "-//W3C//DTD SVG 1.1//EN"
 "http://www.w3.org/Graphics/SVG/1.1/DTD/svg11.dtd">
<!-- Generated by graphviz version 2.40.1 (20161225.0304)
 -->
<!-- Title: a_graph Pages: 1 -->
<svg width="1205pt" height="119pt"
 viewBox="0.00 0.00 1205.00 119.00" xmlns="http://www.w3.org/2000/svg" xmlns:xlink="http://www.w3.org/1999/xlink">
<g id="graph0" class="graph" transform="scale(1 1) rotate(0) translate(4 115)">
<title>a_graph</title>
<polygon fill="#ffffff" stroke="transparent" points="-4,4 -4,-115 1201,-115 1201,4 -4,4"/>
<!-- T165 -->
<g id="node1" class="node">
<title>T165</title>
<polygon fill="none" stroke="#0058ad" points="0,-81.5 0,-110.5 1197,-110.5 1197,-81.5 0,-81.5"/>
<text text-anchor="middle" x="344.5" y="-92.3" font-family="Times,serif" font-size="14.00" fill="#0058ad">r 9 [5 13 18 19 20 21 22 23 24 25 26 27 28 29 30 31 33 34 32 35 36 37 38 39 40 41 42 43 44 45 46 47 48 49 52 54 55 56]</text>
<polyline fill="none" stroke="#0058ad" points="689,-81.5 689,-110.5 "/>
<text text-anchor="middle" x="711" y="-92.3" font-family="Times,serif" font-size="14.00" fill="#0058ad">a 5 5</text>
<polyline fill="none" stroke="#0058ad" points="733,-81.5 733,-110.5 "/>
<text text-anchor="middle" x="940" y="-92.3" font-family="Times,serif" font-size="14.00" fill="#0058ad">r 8 [2 5 6 7 8 9 10 11 12 13 14 15 16 17 18 19 20 21 22 23 24 25 26 27]</text>
<polyline fill="none" stroke="#0058ad" points="1147,-81.5 1147,-110.5 "/>
<text text-anchor="middle" x="1172" y="-92.3" font-family="Times,serif" font-size="14.00" fill="#0058ad">a 7 13</text>
</g>
<!-- T163 -->
<g id="node2" class="node">
<title>T163</title>
<polygon fill="none" stroke="#0058ad" points="641.5,-.5 641.5,-29.5 929.5,-29.5 929.5,-.5 641.5,-.5"/>
<text text-anchor="middle" x="710.5" y="-11.3" font-family="Times,serif" font-size="14.00" fill="#0058ad">r 7 [2 5 6 7 8 9 10 11]</text>
<polyline fill="none" stroke="#0058ad" points="779.5,-.5 779.5,-29.5 "/>
<text text-anchor="middle" x="804.5" y="-11.3" font-family="Times,serif" font-size="14.00" fill="#0058ad">a 9 50</text>
<polyline fill="none" stroke="#0058ad" points="829.5,-.5 829.5,-29.5 "/>
<text text-anchor="middle" x="854.5" y="-11.3" font-family="Times,serif" font-size="14.00" fill="#0058ad">a 9 51</text>
<polyline fill="none" stroke="#0058ad" points="879.5,-.5 879.5,-29.5 "/>
<text text-anchor="middle" x="904.5" y="-11.3" font-family="Times,serif" font-size="14.00" fill="#0058ad">a 8 28</text>
</g>
<!-- T165&#45;&gt;T163 -->
<g id="edge1" class="edge">
<title>T165:f0&#45;&gt;T163:f1</title>
<path fill="none" stroke="#5b00c0" d="M344.5,-81C344.5,121.1818 788.9117,-223.5443 804.1015,-40.0556"/>
<polygon fill="#5b00c0" stroke="#5b00c0" points="807.6012,-40.1308 804.5,-30 800.6067,-39.8535 807.6012,-40.1308"/>
<text text-anchor="middle" x="810" y="-51.8" font-family="Times,serif" font-size="14.00" fill="#5b00c0">rw</text>
</g>
<!-- T163&#45;&gt;T165 -->
<g id="edge2" class="edge">
<title>T163:f0&#45;&gt;T165:f3</title>
<path fill="none" stroke="#5b00c0" d="M710.5,-30C710.5,-41.8017 1096.5057,-63.8519 1162.8505,-77.4151"/>
<polygon fill="#5b00c0" stroke="#5b00c0" points="1161.9071,-80.7983 1172.5,-81 1164.3449,-74.2365 1161.9071,-80.7983"/>
<text text-anchor="middle" x="1030" y="-51.8" font-family="Times,serif" font-size="14.00" fill="#5b00c0">rw</text>
</g>
</g>
</svg>
