<?xml version="1.0" encoding="UTF-8" standalone="no"?>
<!DOCTYPE svg PUBLIC "-//W3C//DTD SVG 1.1//EN"
 "http://www.w3.org/Graphics/SVG/1.1/DTD/svg11.dtd">
<!-- Generated by graphviz version 2.40.1 (20161225.0304)
 -->
<!-- Title: a_graph Pages: 1 -->
<svg width="2285pt" height="119pt"
 viewBox="0.00 0.00 2285.00 119.00" xmlns="http://www.w3.org/2000/svg" xmlns:xlink="http://www.w3.org/1999/xlink">
<g id="graph0" class="graph" transform="scale(1 1) rotate(0) translate(4 115)">
<title>a_graph</title>
<polygon fill="#ffffff" stroke="transparent" points="-4,4 -4,-115 2281,-115 2281,4 -4,4"/>
<!-- T11817 -->
<g id="node1" class="node">
<title>T11817</title>
<polygon fill="none" stroke="#0058ad" points="0,-81.5 0,-110.5 1092,-110.5 1092,-81.5 0,-81.5"/>
<text text-anchor="middle" x="514" y="-92.3" font-family="Times,serif" font-size="14.00" fill="#0058ad">r 60 [2 3 4 5 6 7 8 9 10 11 12 13 14 16 17 18 19 20 21 24 25 22 23 26 27 28 29 30 31 32 33 34 35 36 37 38 39 40 41 42 43 44 45 46 47 48 49 50 51 52 53 54 55 56 57 58 59 60 61 62]</text>
<polyline fill="none" stroke="#0058ad" points="1028,-81.5 1028,-110.5 "/>
<text text-anchor="middle" x="1060" y="-92.3" font-family="Times,serif" font-size="14.00" fill="#0058ad">a 51 112</text>
</g>
<!-- T11819 -->
<g id="node2" class="node">
<title>T11819</title>
<polygon fill="none" stroke="#0058ad" points="267,-.5 267,-29.5 2277,-29.5 2277,-.5 267,-.5"/>
<text text-anchor="middle" x="295.5" y="-11.3" font-family="Times,serif" font-size="14.00" fill="#0058ad">a 62 19</text>
<polyline fill="none" stroke="#0058ad" points="324,-.5 324,-29.5 "/>
<text text-anchor="middle" x="352.5" y="-11.3" font-family="Times,serif" font-size="14.00" fill="#0058ad">a 60 63</text>
<polyline fill="none" stroke="#0058ad" points="381,-.5 381,-29.5 "/>
<text text-anchor="middle" x="1329" y="-11.3" font-family="Times,serif" font-size="14.00" fill="#0058ad">r 51 [1 2 3 4 5 7 6 8 9 10 11 12 13 14 15 16 17 18 19 20 21 22 23 24 25 26 27 28 29 30 31 32 33 34 35 37 38 39 40 41 43 44 45 46 47 48 49 50 51 52 53 54 55 56 57 58 59 62 61 63 64 65 66 67 68 69 71 72 73 74 75 77 78 79 80 81 82 83 84 85 86 87 88 89 90 91 92 93 94 95 97 96 98 99 100 101 102 103 104 105 106 107 108 109 110 111]</text>
</g>
<!-- T11817&#45;&gt;T11819 -->
<g id="edge1" class="edge">
<title>T11817:f0&#45;&gt;T11819:f1</title>
<path fill="none" stroke="#5b00c0" d="M514,-81C514,-9.3495 368.0354,-95.7831 353.2108,-40.1881"/>
<polygon fill="#5b00c0" stroke="#5b00c0" points="356.6558,-39.517 352,-30 349.7047,-40.3432 356.6558,-39.517"/>
<text text-anchor="middle" x="515.5" y="-51.8" font-family="Times,serif" font-size="14.00" fill="#5b00c0">rw</text>
</g>
<!-- T11819&#45;&gt;T11817 -->
<g id="edge2" class="edge">
<title>T11819:f2&#45;&gt;T11817:f1</title>
<path fill="none" stroke="#5b00c0" d="M1329,-30C1329,-81.6809 1166.0677,-94.6312 1102.0641,-95.8931"/>
<polygon fill="#5b00c0" stroke="#5b00c0" points="1101.9622,-92.3939 1092,-96 1102.0366,-99.3935 1101.9622,-92.3939"/>
<text text-anchor="middle" x="1326.5" y="-51.8" font-family="Times,serif" font-size="14.00" fill="#5b00c0">rw</text>
</g>
</g>
</svg>
