<?xml version="1.0" encoding="UTF-8" standalone="no"?>
<!DOCTYPE svg PUBLIC "-//W3C//DTD SVG 1.1//EN"
 "http://www.w3.org/Graphics/SVG/1.1/DTD/svg11.dtd">
<!-- Generated by graphviz version 2.40.1 (20161225.0304)
 -->
<!-- Title: a_graph Pages: 1 -->
<svg width="5172pt" height="119pt"
 viewBox="0.00 0.00 5172.00 119.00" xmlns="http://www.w3.org/2000/svg" xmlns:xlink="http://www.w3.org/1999/xlink">
<g id="graph0" class="graph" transform="scale(1 1) rotate(0) translate(4 115)">
<title>a_graph</title>
<polygon fill="#ffffff" stroke="transparent" points="-4,4 -4,-115 5168,-115 5168,4 -4,4"/>
<!-- T18263 -->
<g id="node1" class="node">
<title>T18263</title>
<polygon fill="none" stroke="#0058ad" points="837.5,-81.5 837.5,-110.5 952.5,-110.5 952.5,-81.5 837.5,-81.5"/>
<text text-anchor="middle" x="863" y="-92.3" font-family="Times,serif" font-size="14.00" fill="#0058ad">r 94 []</text>
<polyline fill="none" stroke="#0058ad" points="888.5,-81.5 888.5,-110.5 "/>
<text text-anchor="middle" x="920.5" y="-92.3" font-family="Times,serif" font-size="14.00" fill="#0058ad">a 91 108</text>
</g>
<!-- T18265 -->
<g id="node2" class="node">
<title>T18265</title>
<polygon fill="none" stroke="#0058ad" points="0,-.5 0,-29.5 5164,-29.5 5164,-.5 0,-.5"/>
<text text-anchor="middle" x="25" y="-11.3" font-family="Times,serif" font-size="14.00" fill="#0058ad">a 94 1</text>
<polyline fill="none" stroke="#0058ad" points="50,-.5 50,-29.5 "/>
<text text-anchor="middle" x="756" y="-11.3" font-family="Times,serif" font-size="14.00" fill="#0058ad">r 3 [1 2 3 4 5 6 7 8 9 10 11 12 14 15 16 17 18 19 20 21 22 23 24 25 26 27 28 29 30 31 32 33 34 35 36 37 38 39 40 41 42 43 44 45 46 47 48 49 50 51 52 53 54 55 56 58 59 60 61 62 63 65 66 67 68 69 70 71 72 73 75 76 77 78 79 80 81 82 83 84 85 86 87]</text>
<polyline fill="none" stroke="#0058ad" points="1462,-.5 1462,-29.5 "/>
<text text-anchor="middle" x="2317" y="-11.3" font-family="Times,serif" font-size="14.00" fill="#0058ad">r 91 [1 3 4 5 7 8 9 10 11 12 13 14 15 16 17 18 19 20 21 22 23 24 25 26 29 27 28 30 31 32 33 34 35 36 37 38 39 40 41 43 42 44 45 46 47 48 49 50 51 53 54 55 56 57 58 59 60 61 62 63 64 66 68 69 70 71 72 73 74 75 76 77 78 79 80 81 82 83 86 87 88 89 90 92 93 94 95 98 100 101 102 103 104 105 106 107]</text>
<polyline fill="none" stroke="#0058ad" points="3172,-.5 3172,-29.5 "/>
<text text-anchor="middle" x="4168" y="-11.3" font-family="Times,serif" font-size="14.00" fill="#0058ad">r 84 [1 2 3 4 5 6 7 8 9 10 12 13 14 16 17 18 19 20 21 22 23 24 25 26 27 28 29 31 32 33 34 35 36 37 38 39 41 40 42 43 44 45 46 48 49 50 51 52 53 54 55 57 56 58 59 60 61 62 63 64 65 66 67 68 69 70 71 72 73 74 75 76 77 78 79 80 81 82 83 84 85 86 87 88 89 90 91 92 93 94 95 96 97 98 100 101 102 103 104 105 106 107 108 109 110 111 112 113 114 115]</text>
</g>
<!-- T18263&#45;&gt;T18265 -->
<g id="edge1" class="edge">
<title>T18263:f0&#45;&gt;T18265:f0</title>
<path fill="none" stroke="#5b00c0" d="M837,-96C794.3037,-96 109.5427,-77.5428 32.109,-37.4553"/>
<polygon fill="#5b00c0" stroke="#5b00c0" points="34.434,-34.8218 25,-30 29.368,-39.6525 34.434,-34.8218"/>
<text text-anchor="middle" x="180.5" y="-51.8" font-family="Times,serif" font-size="14.00" fill="#5b00c0">rw</text>
</g>
<!-- T18265&#45;&gt;T18263 -->
<g id="edge2" class="edge">
<title>T18265:f2&#45;&gt;T18263:f1</title>
<path fill="none" stroke="#5b00c0" d="M2317,-30C2317,-66.4515 1092.5088,-93.7922 963.1861,-95.8726"/>
<polygon fill="#5b00c0" stroke="#5b00c0" points="962.9554,-92.3751 953,-96 963.043,-99.3746 962.9554,-92.3751"/>
<text text-anchor="middle" x="2210.5" y="-51.8" font-family="Times,serif" font-size="14.00" fill="#5b00c0">rw</text>
</g>
</g>
</svg>
