<?xml version="1.0" encoding="UTF-8" standalone="no"?>
<!DOCTYPE svg PUBLIC "-//W3C//DTD SVG 1.1//EN"
 "http://www.w3.org/Graphics/SVG/1.1/DTD/svg11.dtd">
<!-- Generated by graphviz version 2.40.1 (20161225.0304)
 -->
<!-- Title: a_graph Pages: 1 -->
<svg width="3933pt" height="119pt"
 viewBox="0.00 0.00 3932.50 119.00" xmlns="http://www.w3.org/2000/svg" xmlns:xlink="http://www.w3.org/1999/xlink">
<g id="graph0" class="graph" transform="scale(1 1) rotate(0) translate(4 115)">
<title>a_graph</title>
<polygon fill="#ffffff" stroke="transparent" points="-4,4 -4,-115 3928.5,-115 3928.5,4 -4,4"/>
<!-- T16059 -->
<g id="node1" class="node">
<title>T16059</title>
<polygon fill="none" stroke="#0058ad" points="0,-81.5 0,-110.5 3515,-110.5 3515,-81.5 0,-81.5"/>
<text text-anchor="middle" x="975.5" y="-92.3" font-family="Times,serif" font-size="14.00" fill="#0058ad">r 83 [1 2 3 4 5 6 7 8 9 10 11 12 13 14 15 16 17 18 19 20 22 23 24 25 26 27 30 28 29 31 32 33 34 35 36 37 38 39 40 41 42 43 44 47 48 45 46 50 51 52 49 53 54 55 56 57 58 59 60 61 62 63 64 65 67 66 68 69 70 71 73 75 78 79 80 77 81 83 82 84 86 87 85 90 91 92 89 94 95 97 96 98 99 100 101 102 103 104 105 106 107 108 109 110 111 113 114 115]</text>
<polyline fill="none" stroke="#0058ad" points="1951,-81.5 1951,-110.5 "/>
<text text-anchor="middle" x="1983" y="-92.3" font-family="Times,serif" font-size="14.00" fill="#0058ad">a 83 116</text>
<polyline fill="none" stroke="#0058ad" points="2015,-81.5 2015,-110.5 "/>
<text text-anchor="middle" x="2733" y="-92.3" font-family="Times,serif" font-size="14.00" fill="#0058ad">r 80 [1 2 3 4 5 6 7 8 9 10 11 13 14 12 15 16 17 18 19 20 22 21 23 24 25 26 27 28 29 30 31 32 33 34 35 36 37 38 40 41 42 43 44 45 46 47 48 51 52 53 54 55 56 57 58 59 60 61 62 63 64 65 66 67 69 70 71 72 73 74 75 76 77 78 79 80 82 83 84 86 87 88 89 90]</text>
<polyline fill="none" stroke="#0058ad" points="3451,-81.5 3451,-110.5 "/>
<text text-anchor="middle" x="3483" y="-92.3" font-family="Times,serif" font-size="14.00" fill="#0058ad">a 83 117</text>
</g>
<!-- T16057 -->
<g id="node2" class="node">
<title>T16057</title>
<polygon fill="none" stroke="#0058ad" points="1916.5,-.5 1916.5,-29.5 3924.5,-29.5 3924.5,-.5 1916.5,-.5"/>
<text text-anchor="middle" x="1945" y="-11.3" font-family="Times,serif" font-size="14.00" fill="#0058ad">a 80 92</text>
<polyline fill="none" stroke="#0058ad" points="1973.5,-.5 1973.5,-29.5 "/>
<text text-anchor="middle" x="2949" y="-11.3" font-family="Times,serif" font-size="14.00" fill="#0058ad">r 83 [1 2 3 4 5 6 7 8 9 10 11 12 13 14 15 16 17 18 19 20 22 23 24 25 26 27 30 28 29 31 32 33 34 35 36 37 38 39 40 41 42 43 44 47 48 45 46 50 51 52 49 53 54 55 56 57 58 59 60 61 62 63 64 65 67 66 68 69 70 71 73 75 78 79 80 77 81 83 82 84 86 87 85 90 91 92 89 94 95 97 96 98 99 100 101 102 103 104 105 106 107 108 109 110 111 113 114 115]</text>
</g>
<!-- T16059&#45;&gt;T16057 -->
<g id="edge1" class="edge">
<title>T16059:f2&#45;&gt;T16057:f0</title>
<path fill="none" stroke="#5b00c0" d="M2733.5,-81C2733.5,2.6554 2441.9754,-53.4849 2358.5,-48 2337.5468,-46.6232 2010.3922,-51.9358 1953.0464,-35.4108"/>
<polygon fill="#5b00c0" stroke="#5b00c0" points="1954.8213,-32.3921 1944.5,-30 1951.0768,-38.3064 1954.8213,-32.3921"/>
<text text-anchor="middle" x="2732" y="-51.8" font-family="Times,serif" font-size="14.00" fill="#5b00c0">rw</text>
</g>
<!-- T16057&#45;&gt;T16059 -->
<g id="edge2" class="edge">
<title>T16057:f1&#45;&gt;T16059:f1</title>
<path fill="none" stroke="#5b00c0" d="M2949.5,-30C2949.5,-46.9518 2356.4203,-46.9672 2339.5,-48 2184.4571,-57.4641 1992.3478,71.8832 1983.7961,-70.7335"/>
<polygon fill="#5b00c0" stroke="#5b00c0" points="1980.2898,-70.9032 1983.5,-81 1987.2869,-71.1051 1980.2898,-70.9032"/>
<text text-anchor="middle" x="2347" y="-51.8" font-family="Times,serif" font-size="14.00" fill="#5b00c0">rw</text>
</g>
</g>
</svg>
