<?xml version="1.0" encoding="UTF-8" standalone="no"?>
<!DOCTYPE svg PUBLIC "-//W3C//DTD SVG 1.1//EN"
 "http://www.w3.org/Graphics/SVG/1.1/DTD/svg11.dtd">
<!-- Generated by graphviz version 2.40.1 (20161225.0304)
 -->
<!-- Title: a_graph Pages: 1 -->
<svg width="2255pt" height="200pt"
 viewBox="0.00 0.00 2255.00 200.00" xmlns="http://www.w3.org/2000/svg" xmlns:xlink="http://www.w3.org/1999/xlink">
<g id="graph0" class="graph" transform="scale(1 1) rotate(0) translate(4 196)">
<title>a_graph</title>
<polygon fill="#ffffff" stroke="transparent" points="-4,4 -4,-196 2251,-196 2251,4 -4,4"/>
<!-- T4579 -->
<g id="node1" class="node">
<title>T4579</title>
<polygon fill="none" stroke="#0058ad" points="1277,-162.5 1277,-191.5 2247,-191.5 2247,-162.5 1277,-162.5"/>
<text text-anchor="middle" x="1762" y="-173.3" font-family="Times,serif" font-size="14.00" fill="#0058ad">r 27 [1 2 3 4 5 6 7 8 9 10 11 12 13 15 14 16 17 18 19 20 21 22 23 24 25 26 27 28 29 30 31 32 33 34 35 36 37 38 39 40 41 42 43 44 45 46 47 48 49 51 52 53 54 55 56 57 58]</text>
</g>
<!-- T4581 -->
<g id="node2" class="node">
<title>T4581</title>
<polygon fill="none" stroke="#0058ad" points="0,-81.5 0,-110.5 1750,-110.5 1750,-81.5 0,-81.5"/>
<text text-anchor="middle" x="485" y="-92.3" font-family="Times,serif" font-size="14.00" fill="#0058ad">r 27 [1 2 3 4 5 6 7 8 9 10 11 12 13 15 14 16 17 18 19 20 21 22 23 24 25 26 27 28 29 30 31 32 33 34 35 36 37 38 39 40 41 42 43 44 45 46 47 48 49 51 52 53 54 55 56 57 58]</text>
<polyline fill="none" stroke="#0058ad" points="970,-81.5 970,-110.5 "/>
<text text-anchor="middle" x="1299.5" y="-92.3" font-family="Times,serif" font-size="14.00" fill="#0058ad">r 28 [1 2 3 4 5 6 7 8 9 10 11 12 13 14 16 15 17 19 20 18 21 22 23 24 25 26 27 28 29 30 31 32 33 35 36 37 34 38 39]</text>
<polyline fill="none" stroke="#0058ad" points="1629,-81.5 1629,-110.5 "/>
<text text-anchor="middle" x="1661" y="-92.3" font-family="Times,serif" font-size="14.00" fill="#0058ad">a 24 102</text>
<polyline fill="none" stroke="#0058ad" points="1693,-81.5 1693,-110.5 "/>
<text text-anchor="middle" x="1721.5" y="-92.3" font-family="Times,serif" font-size="14.00" fill="#0058ad">a 27 59</text>
</g>
<!-- T4579&#45;&gt;T4581 -->
<g id="edge1" class="edge">
<title>T4579:f0&#45;&gt;T4581:f3</title>
<path fill="none" stroke="#5b00c0" d="M1746.6494,-162.2592C1737.3079,-151.9335 1726.5339,-137.1557 1723.1063,-121.1191"/>
<polygon fill="#5b00c0" stroke="#5b00c0" points="1726.5662,-120.5603 1722,-111 1719.6076,-121.3212 1726.5662,-120.5603"/>
<text text-anchor="middle" x="1739.5" y="-132.8" font-family="Times,serif" font-size="14.00" fill="#5b00c0">rw</text>
</g>
<!-- T4577 -->
<g id="node3" class="node">
<title>T4577</title>
<polygon fill="none" stroke="#0058ad" points="1514.5,-.5 1514.5,-29.5 1571.5,-29.5 1571.5,-.5 1514.5,-.5"/>
<text text-anchor="middle" x="1543" y="-11.3" font-family="Times,serif" font-size="14.00" fill="#0058ad">a 28 41</text>
</g>
<!-- T4581&#45;&gt;T4577 -->
<g id="edge2" class="edge">
<title>T4581:f1&#45;&gt;T4577:f0</title>
<path fill="none" stroke="#5b00c0" d="M1300,-81C1300,13.8504 1414.8941,-59.4161 1506.5989,-32.7366"/>
<polygon fill="#5b00c0" stroke="#5b00c0" points="1507.8652,-36.0038 1516.2418,-29.5167 1505.648,-29.3642 1507.8652,-36.0038"/>
<text text-anchor="middle" x="1314.5" y="-51.8" font-family="Times,serif" font-size="14.00" fill="#5b00c0">rw</text>
</g>
<!-- T4577&#45;&gt;T4579 -->
<g id="edge3" class="edge">
<title>T4577&#45;&gt;T4579</title>
<path fill="none" stroke="#0050c0" d="M1571.6302,-19.5625C1624.9195,-28.6921 1736.0177,-50.9399 1759,-81 1774.4219,-101.1713 1772.5588,-131.3117 1768.5171,-152.4249"/>
<polygon fill="#0050c0" stroke="#0050c0" points="1765.0835,-151.7431 1766.3549,-162.2614 1771.9203,-153.246 1765.0835,-151.7431"/>
<text text-anchor="middle" x="1774.5" y="-92.3" font-family="Times,serif" font-size="14.00" fill="#0050c0">rt</text>
</g>
</g>
</svg>
