<?xml version="1.0" encoding="UTF-8" standalone="no"?>
<!DOCTYPE svg PUBLIC "-//W3C//DTD SVG 1.1//EN"
 "http://www.w3.org/Graphics/SVG/1.1/DTD/svg11.dtd">
<!-- Generated by graphviz version 2.40.1 (20161225.0304)
 -->
<!-- Title: a_graph Pages: 1 -->
<svg width="2531pt" height="119pt"
 viewBox="0.00 0.00 2531.00 119.00" xmlns="http://www.w3.org/2000/svg" xmlns:xlink="http://www.w3.org/1999/xlink">
<g id="graph0" class="graph" transform="scale(1 1) rotate(0) translate(4 115)">
<title>a_graph</title>
<polygon fill="#ffffff" stroke="transparent" points="-4,4 -4,-115 2527,-115 2527,4 -4,4"/>
<!-- T12199 -->
<g id="node1" class="node">
<title>T12199</title>
<polygon fill="none" stroke="#0058ad" points="631.5,-81.5 631.5,-110.5 1023.5,-110.5 1023.5,-81.5 631.5,-81.5"/>
<text text-anchor="middle" x="663.5" y="-92.3" font-family="Times,serif" font-size="14.00" fill="#0058ad">a 60 117</text>
<polyline fill="none" stroke="#0058ad" points="695.5,-81.5 695.5,-110.5 "/>
<text text-anchor="middle" x="859.5" y="-92.3" font-family="Times,serif" font-size="14.00" fill="#0058ad">r 64 [1 2 3 4 5 6 9 10 11 12 13 14 18 19 15 16 20 21 23]</text>
</g>
<!-- T12201 -->
<g id="node2" class="node">
<title>T12201</title>
<polygon fill="none" stroke="#0058ad" points="0,-.5 0,-29.5 2523,-29.5 2523,-.5 0,-.5"/>
<text text-anchor="middle" x="28.5" y="-11.3" font-family="Times,serif" font-size="14.00" fill="#0058ad">a 64 26</text>
<polyline fill="none" stroke="#0058ad" points="57,-.5 57,-29.5 "/>
<text text-anchor="middle" x="89" y="-11.3" font-family="Times,serif" font-size="14.00" fill="#0058ad">a 51 128</text>
<polyline fill="none" stroke="#0058ad" points="121,-.5 121,-29.5 "/>
<text text-anchor="middle" x="293.5" y="-11.3" font-family="Times,serif" font-size="14.00" fill="#0058ad">r 64 [1 2 3 4 5 6 9 10 11 12 13 14 18 19 15 16 20 21 23 26]</text>
<polyline fill="none" stroke="#0058ad" points="466,-.5 466,-29.5 "/>
<text text-anchor="middle" x="1494.5" y="-11.3" font-family="Times,serif" font-size="14.00" fill="#0058ad">r 60 [2 3 4 5 6 7 8 9 10 11 12 13 14 16 17 18 19 20 21 24 25 22 23 26 27 28 29 30 31 32 33 34 35 36 37 38 39 40 41 42 43 44 45 46 47 48 49 50 51 52 53 54 55 56 57 58 59 60 61 62 63 64 65 66 67 68 69 70 71 73 74 75 76 77 78 79 80 81 82 83 84 85 86 87 88 89 90 91 92 93 94 95 96 97 98 99 100 101 102 103 104 105 106 107 108 109 110 111 112 113 114 115 116]</text>
</g>
<!-- T12199&#45;&gt;T12201 -->
<g id="edge1" class="edge">
<title>T12199:f1&#45;&gt;T12201:f0</title>
<path fill="none" stroke="#5b00c0" d="M859.5,-81C859.5,-18.3696 784.5925,-56.1906 722.5,-48 704.7256,-45.6554 120.1632,-48.7803 38.047,-33.7355"/>
<polygon fill="#5b00c0" stroke="#5b00c0" points="39.0879,-30.3845 28.5,-30 36.5372,-36.9032 39.0879,-30.3845"/>
<text text-anchor="middle" x="863" y="-51.8" font-family="Times,serif" font-size="14.00" fill="#5b00c0">rw</text>
</g>
<!-- T12201&#45;&gt;T12199 -->
<g id="edge2" class="edge">
<title>T12201:f3&#45;&gt;T12199:f0</title>
<path fill="none" stroke="#5b00c0" d="M1494.5,-30C1494.5,-51.9779 724.0977,-40.3344 703.5,-48 685.6128,-54.6568 669.9196,-57.114 665.0535,-70.8509"/>
<polygon fill="#5b00c0" stroke="#5b00c0" points="661.5534,-70.5855 663.5,-81 668.4729,-71.6447 661.5534,-70.5855"/>
<text text-anchor="middle" x="711" y="-51.8" font-family="Times,serif" font-size="14.00" fill="#5b00c0">rw</text>
</g>
</g>
</svg>
