<?xml version="1.0" encoding="UTF-8" standalone="no"?>
<!DOCTYPE svg PUBLIC "-//W3C//DTD SVG 1.1//EN"
 "http://www.w3.org/Graphics/SVG/1.1/DTD/svg11.dtd">
<!-- Generated by graphviz version 2.40.1 (20161225.0304)
 -->
<!-- Title: a_graph Pages: 1 -->
<svg width="1151pt" height="119pt"
 viewBox="0.00 0.00 1150.50 119.00" xmlns="http://www.w3.org/2000/svg" xmlns:xlink="http://www.w3.org/1999/xlink">
<g id="graph0" class="graph" transform="scale(1 1) rotate(0) translate(4 115)">
<title>a_graph</title>
<polygon fill="#ffffff" stroke="transparent" points="-4,4 -4,-115 1146.5,-115 1146.5,4 -4,4"/>
<!-- T17602 -->
<g id="node1" class="node">
<title>T17602</title>
<polygon fill="none" stroke="#0058ad" points="0,-81.5 0,-110.5 1047,-110.5 1047,-81.5 0,-81.5"/>
<text text-anchor="middle" x="495" y="-92.3" font-family="Times,serif" font-size="14.00" fill="#0058ad">r 90 [1 5 6 10 9 14 15 16 17 18 19 20 21 22 23 24 25 26 27 28 29 31 32 34 35 36 37 38 39 40 41 42 43 45 46 44 47 48 49 50 51 52 53 54 55 56 57 58 59 60 61 62 63 65 2 3 33]</text>
<polyline fill="none" stroke="#0058ad" points="990,-81.5 990,-110.5 "/>
<text text-anchor="middle" x="1018.5" y="-92.3" font-family="Times,serif" font-size="14.00" fill="#0058ad">a 91 26</text>
</g>
<!-- T17605 -->
<g id="node2" class="node">
<title>T17605</title>
<polygon fill="none" stroke="#0058ad" points="688.5,-.5 688.5,-29.5 1142.5,-29.5 1142.5,-.5 688.5,-.5"/>
<text text-anchor="middle" x="717" y="-11.3" font-family="Times,serif" font-size="14.00" fill="#0058ad">a 90 72</text>
<polyline fill="none" stroke="#0058ad" points="745.5,-.5 745.5,-29.5 "/>
<text text-anchor="middle" x="944" y="-11.3" font-family="Times,serif" font-size="14.00" fill="#0058ad">r 91 [1 3 4 5 7 8 9 10 11 12 13 14 15 16 17 18 19 20 21 22 23 24 25]</text>
</g>
<!-- T17602&#45;&gt;T17605 -->
<g id="edge1" class="edge">
<title>T17602:f0&#45;&gt;T17605:f0</title>
<path fill="none" stroke="#5b00c0" d="M494.5,-81C494.5,-38.3974 624.4414,-17.7419 678.4795,-15.2562"/>
<polygon fill="#5b00c0" stroke="#5b00c0" points="678.5928,-18.7546 688.5,-15 678.4138,-11.7569 678.5928,-18.7546"/>
<text text-anchor="middle" x="532" y="-51.8" font-family="Times,serif" font-size="14.00" fill="#5b00c0">rw</text>
</g>
<!-- T17605&#45;&gt;T17602 -->
<g id="edge2" class="edge">
<title>T17605:f1&#45;&gt;T17602:f1</title>
<path fill="none" stroke="#5b00c0" d="M944.5,-30C944.5,-66.0425 1004.7526,-46.0423 1016.5207,-71.1389"/>
<polygon fill="#5b00c0" stroke="#5b00c0" points="1013.1004,-71.8844 1018.5,-81 1019.9635,-70.5067 1013.1004,-71.8844"/>
<text text-anchor="middle" x="1015" y="-51.8" font-family="Times,serif" font-size="14.00" fill="#5b00c0">rw</text>
</g>
</g>
</svg>
