<?xml version="1.0" encoding="UTF-8" standalone="no"?>
<!DOCTYPE svg PUBLIC "-//W3C//DTD SVG 1.1//EN"
 "http://www.w3.org/Graphics/SVG/1.1/DTD/svg11.dtd">
<!-- Generated by graphviz version 2.40.1 (20161225.0304)
 -->
<!-- Title: a_graph Pages: 1 -->
<svg width="3950pt" height="119pt"
 viewBox="0.00 0.00 3950.00 119.00" xmlns="http://www.w3.org/2000/svg" xmlns:xlink="http://www.w3.org/1999/xlink">
<g id="graph0" class="graph" transform="scale(1 1) rotate(0) translate(4 115)">
<title>a_graph</title>
<polygon fill="#ffffff" stroke="transparent" points="-4,4 -4,-115 3946,-115 3946,4 -4,4"/>
<!-- T35533 -->
<g id="node1" class="node">
<title>T35533</title>
<polygon fill="none" stroke="#0058ad" points="0,-81.5 0,-110.5 3942,-110.5 3942,-81.5 0,-81.5"/>
<text text-anchor="middle" x="686.5" y="-92.3" font-family="Times,serif" font-size="14.00" fill="#0058ad">r 177 [1 2 3 5 6 7 4 8 9 10 11 12 13 14 15 16 17 19 20 25 26 27 28 29 30 32 33 34 35 36 37 38 39 41 40 42 43 44 45 48 49 50 51 55 54 57 58 52 53 56 61 59 60 62 63 64 65 67 68 69 70 71 72 73 66 74 75 76 77 78 81 79 80 82 83 85 86 87 84 89]</text>
<polyline fill="none" stroke="#0058ad" points="1373,-81.5 1373,-110.5 "/>
<text text-anchor="middle" x="2180.5" y="-92.3" font-family="Times,serif" font-size="14.00" fill="#0058ad">r 176 [1 2 4 5 6 7 3 8 9 10 11 12 13 14 15 16 17 18 19 20 21 22 23 24 25 26 27 29 28 33 30 31 35 34 36 37 38 32 39 40 41 42 43 44 47 48 49 50 45 51 52 53 57 55 58 59 62 63 60 65 66 67 68 69 70 71 72 73 74 75 76 77 78 80 79 82 81 83 84 85 87 86 88 90 89 92 93 91 94 95 97 98 96 99]</text>
<polyline fill="none" stroke="#0058ad" points="2988,-81.5 2988,-110.5 "/>
<text text-anchor="middle" x="3433" y="-92.3" font-family="Times,serif" font-size="14.00" fill="#0058ad">r 163 [1 2 3 4 5 6 7 8 9 10 11 12 13 14 15 16 17 19 18 20 21 22 23 24 25 26 27 29 31 33 34 35 36 37 38 39 40 41 42 43 44 45 47 48 49 50 51 53 52 54 55 56]</text>
<polyline fill="none" stroke="#0058ad" points="3878,-81.5 3878,-110.5 "/>
<text text-anchor="middle" x="3910" y="-92.3" font-family="Times,serif" font-size="14.00" fill="#0058ad">a 177 88</text>
</g>
<!-- T35536 -->
<g id="node2" class="node">
<title>T35536</title>
<polygon fill="none" stroke="#0058ad" points="805.5,-.5 805.5,-29.5 3864.5,-29.5 3864.5,-.5 805.5,-.5"/>
<text text-anchor="middle" x="1613" y="-11.3" font-family="Times,serif" font-size="14.00" fill="#0058ad">r 176 [1 2 4 5 6 7 3 8 9 10 11 12 13 14 15 16 17 18 19 20 21 22 23 24 25 26 27 29 28 33 30 31 35 34 36 37 38 32 39 40 41 42 43 44 47 48 49 50 45 51 52 53 57 55 58 59 62 63 60 65 66 67 68 69 70 71 72 73 74 75 76 77 78 80 79 82 81 83 84 85 87 86 88 90 89 92 93 91 94 95 97 98 96 99]</text>
<polyline fill="none" stroke="#0058ad" points="2420.5,-.5 2420.5,-29.5 "/>
<text text-anchor="middle" x="3107" y="-11.3" font-family="Times,serif" font-size="14.00" fill="#0058ad">r 177 [1 2 3 5 6 7 4 8 9 10 11 12 13 14 15 16 17 19 20 25 26 27 28 29 30 32 33 34 35 36 37 38 39 41 40 42 43 44 45 48 49 50 51 55 54 57 58 52 53 56 61 59 60 62 63 64 65 67 68 69 70 71 72 73 66 74 75 76 77 78 81 79 80 82 83 85 86 87 84 89]</text>
<polyline fill="none" stroke="#0058ad" points="3793.5,-.5 3793.5,-29.5 "/>
<text text-anchor="middle" x="3829" y="-11.3" font-family="Times,serif" font-size="14.00" fill="#0058ad">a 176 100</text>
</g>
<!-- T35533&#45;&gt;T35536 -->
<g id="edge1" class="edge">
<title>T35533:f1&#45;&gt;T35536:f2</title>
<path fill="none" stroke="#5b00c0" d="M2181,-81C2181,-59.1289 3684.2631,-53.4028 3819.3219,-32.9822"/>
<polygon fill="#5b00c0" stroke="#5b00c0" points="3820.4741,-36.2896 3829,-30 3818.4127,-29.6 3820.4741,-36.2896"/>
<text text-anchor="middle" x="3394.5" y="-51.8" font-family="Times,serif" font-size="14.00" fill="#5b00c0">rw</text>
</g>
<!-- T35536&#45;&gt;T35533 -->
<g id="edge2" class="edge">
<title>T35536:f1&#45;&gt;T35533:f3</title>
<path fill="none" stroke="#5b00c0" d="M3107,-30C3107,-46.6412 3389.3916,-46.9564 3406,-48 3514.5183,-54.8191 3885.7746,25.9385 3908.8721,-71.0502"/>
<polygon fill="#5b00c0" stroke="#5b00c0" points="3905.3958,-71.4579 3910,-81 3912.3513,-70.6694 3905.3958,-71.4579"/>
<text text-anchor="middle" x="3912.5" y="-51.8" font-family="Times,serif" font-size="14.00" fill="#5b00c0">rw</text>
</g>
</g>
</svg>
