<?xml version="1.0" encoding="UTF-8" standalone="no"?>
<!DOCTYPE svg PUBLIC "-//W3C//DTD SVG 1.1//EN"
 "http://www.w3.org/Graphics/SVG/1.1/DTD/svg11.dtd">
<!-- Generated by graphviz version 2.40.1 (20161225.0304)
 -->
<!-- Title: a_graph Pages: 1 -->
<svg width="3004pt" height="119pt"
 viewBox="0.00 0.00 3004.00 119.00" xmlns="http://www.w3.org/2000/svg" xmlns:xlink="http://www.w3.org/1999/xlink">
<g id="graph0" class="graph" transform="scale(1 1) rotate(0) translate(4 115)">
<title>a_graph</title>
<polygon fill="#ffffff" stroke="transparent" points="-4,4 -4,-115 3000,-115 3000,4 -4,4"/>
<!-- T26106 -->
<g id="node1" class="node">
<title>T26106</title>
<polygon fill="none" stroke="#0058ad" points="2022,-81.5 2022,-110.5 2762,-110.5 2762,-81.5 2022,-81.5"/>
<text text-anchor="middle" x="2191" y="-92.3" font-family="Times,serif" font-size="14.00" fill="#0058ad">r 130 [1 2 3 4 5 6 7 8 10 11 9 12 13 14 15 18 19 20 21 22]</text>
<polyline fill="none" stroke="#0058ad" points="2360,-81.5 2360,-110.5 "/>
<text text-anchor="middle" x="2529" y="-92.3" font-family="Times,serif" font-size="14.00" fill="#0058ad">r 130 [1 2 3 4 5 6 7 8 10 11 9 12 13 14 15 18 19 20 21 22]</text>
<polyline fill="none" stroke="#0058ad" points="2698,-81.5 2698,-110.5 "/>
<text text-anchor="middle" x="2730" y="-92.3" font-family="Times,serif" font-size="14.00" fill="#0058ad">a 129 77</text>
</g>
<!-- T26110 -->
<g id="node2" class="node">
<title>T26110</title>
<polygon fill="none" stroke="#0058ad" points="0,-.5 0,-29.5 2996,-29.5 2996,-.5 0,-.5"/>
<text text-anchor="middle" x="773" y="-11.3" font-family="Times,serif" font-size="14.00" fill="#0058ad">r 125 [1 2 3 4 5 7 6 8 9 10 11 12 13 14 15 16 17 18 19 20 22 23 24 25 26 27 28 29 31 32 33 35 36 37 38 39 41 42 43 44 45 46 47 49 48 50 51 52 53 54 55 56 57 58 59 60 61 62 63 64 66 65 67 68 70 72 74 73 76 75 77 79 80 81 82 83 84 85 86 87 88 89 90 91 92 93 69 95 96 97]</text>
<polyline fill="none" stroke="#0058ad" points="1546,-.5 1546,-29.5 "/>
<text text-anchor="middle" x="2207" y="-11.3" font-family="Times,serif" font-size="14.00" fill="#0058ad">r 129 [1 2 3 4 5 7 8 6 9 10 11 13 14 15 16 17 18 12 19 20 21 22 23 24 25 26 28 29 27 30 31 32 33 34 35 36 37 38 39 40 41 42 43 44 45 46 47 48 49 50 51 52 53 54 55 56 57 58 59 60 61 62 63 65 73 74 71 72 76 75 78 79 80 81 83 82 84]</text>
<polyline fill="none" stroke="#0058ad" points="2868,-.5 2868,-29.5 "/>
<text text-anchor="middle" x="2900" y="-11.3" font-family="Times,serif" font-size="14.00" fill="#0058ad">a 125 98</text>
<polyline fill="none" stroke="#0058ad" points="2932,-.5 2932,-29.5 "/>
<text text-anchor="middle" x="2964" y="-11.3" font-family="Times,serif" font-size="14.00" fill="#0058ad">a 130 23</text>
</g>
<!-- T26106&#45;&gt;T26110 -->
<g id="edge1" class="edge">
<title>T26106:f0&#45;&gt;T26110:f3</title>
<path fill="none" stroke="#5b00c0" d="M2191,-81C2191,2.8767 2483.3082,-53.5674 2567,-48 2587.0503,-46.6662 2899.4714,-51.1387 2955.4477,-35.307"/>
<polygon fill="#5b00c0" stroke="#5b00c0" points="2957.3485,-38.2467 2964,-30 2953.6575,-32.2988 2957.3485,-38.2467"/>
<text text-anchor="middle" x="2574.5" y="-51.8" font-family="Times,serif" font-size="14.00" fill="#5b00c0">rw</text>
</g>
<!-- T26110&#45;&gt;T26106 -->
<g id="edge2" class="edge">
<title>T26110:f1&#45;&gt;T26106:f2</title>
<path fill="none" stroke="#5b00c0" d="M2207,-30C2207,-50.8573 2561.3287,-45.2202 2582,-48 2645.1392,-56.4907 2721.161,-18.1945 2729.287,-70.9105"/>
<polygon fill="#5b00c0" stroke="#5b00c0" points="2725.8037,-71.2716 2730,-81 2732.7863,-70.7781 2725.8037,-71.2716"/>
<text text-anchor="middle" x="2733.5" y="-51.8" font-family="Times,serif" font-size="14.00" fill="#5b00c0">rw</text>
</g>
</g>
</svg>
