<?xml version="1.0" encoding="UTF-8" standalone="no"?>
<!DOCTYPE svg PUBLIC "-//W3C//DTD SVG 1.1//EN"
 "http://www.w3.org/Graphics/SVG/1.1/DTD/svg11.dtd">
<!-- Generated by graphviz version 2.40.1 (20161225.0304)
 -->
<!-- Title: a_graph Pages: 1 -->
<svg width="824pt" height="119pt"
 viewBox="0.00 0.00 823.50 119.00" xmlns="http://www.w3.org/2000/svg" xmlns:xlink="http://www.w3.org/1999/xlink">
<g id="graph0" class="graph" transform="scale(1 1) rotate(0) translate(4 115)">
<title>a_graph</title>
<polygon fill="#ffffff" stroke="transparent" points="-4,4 -4,-115 819.5,-115 819.5,4 -4,4"/>
<!-- T27041 -->
<g id="node1" class="node">
<title>T27041</title>
<polygon fill="none" stroke="#0058ad" points="206.5,-81.5 206.5,-110.5 815.5,-110.5 815.5,-81.5 206.5,-81.5"/>
<text text-anchor="middle" x="275.5" y="-92.3" font-family="Times,serif" font-size="14.00" fill="#0058ad">r 138 [1 2 3 4 5 6 7 8]</text>
<polyline fill="none" stroke="#0058ad" points="344.5,-81.5 344.5,-110.5 "/>
<text text-anchor="middle" x="376.5" y="-92.3" font-family="Times,serif" font-size="14.00" fill="#0058ad">a 137 28</text>
<polyline fill="none" stroke="#0058ad" points="408.5,-81.5 408.5,-110.5 "/>
<text text-anchor="middle" x="612" y="-92.3" font-family="Times,serif" font-size="14.00" fill="#0058ad">r 131 [1 2 3 4 5 6 7 8 9 10 11 12 13 14 15 16 17 18 19 21 22 23 24 25]</text>
</g>
<!-- T27035 -->
<g id="node2" class="node">
<title>T27035</title>
<polygon fill="none" stroke="#0058ad" points="0,-.5 0,-29.5 620,-29.5 620,-.5 0,-.5"/>
<text text-anchor="middle" x="207" y="-11.3" font-family="Times,serif" font-size="14.00" fill="#0058ad">r 137 [1 2 3 4 5 6 8 9 10 11 13 14 15 12 16 17 18 19 20 25 23 24 26 27]</text>
<polyline fill="none" stroke="#0058ad" points="414,-.5 414,-29.5 "/>
<text text-anchor="middle" x="442.5" y="-11.3" font-family="Times,serif" font-size="14.00" fill="#0058ad">a 138 9</text>
<polyline fill="none" stroke="#0058ad" points="471,-.5 471,-29.5 "/>
<text text-anchor="middle" x="545.5" y="-11.3" font-family="Times,serif" font-size="14.00" fill="#0058ad">r 138 [1 2 3 4 5 6 7 8 9]</text>
</g>
<!-- T27041&#45;&gt;T27035 -->
<g id="edge1" class="edge">
<title>T27041:f0&#45;&gt;T27035:f1</title>
<path fill="none" stroke="#5b00c0" d="M275,-81C275,-55.1113 298.916,-57.4965 323,-48 344.5577,-39.4997 417.6861,-52.2302 437.8272,-38.8648"/>
<polygon fill="#5b00c0" stroke="#5b00c0" points="440.983,-40.4011 443,-30 434.9371,-36.8731 440.983,-40.4011"/>
<text text-anchor="middle" x="330.5" y="-51.8" font-family="Times,serif" font-size="14.00" fill="#5b00c0">rw</text>
</g>
<!-- T27035&#45;&gt;T27041 -->
<g id="edge2" class="edge">
<title>T27035:f0&#45;&gt;T27041:f1</title>
<path fill="none" stroke="#5b00c0" d="M207,-30C207,-59.3846 311.2394,-35.8621 338,-48 354.7105,-55.5794 369.576,-57.878 374.3788,-70.8066"/>
<polygon fill="#5b00c0" stroke="#5b00c0" points="370.9726,-71.6739 376,-81 377.8857,-70.5743 370.9726,-71.6739"/>
<text text-anchor="middle" x="376.5" y="-51.8" font-family="Times,serif" font-size="14.00" fill="#5b00c0">rw</text>
</g>
</g>
</svg>
