<?xml version="1.0" encoding="UTF-8" standalone="no"?>
<!DOCTYPE svg PUBLIC "-//W3C//DTD SVG 1.1//EN"
 "http://www.w3.org/Graphics/SVG/1.1/DTD/svg11.dtd">
<!-- Generated by graphviz version 2.40.1 (20161225.0304)
 -->
<!-- Title: a_graph Pages: 1 -->
<svg width="1479pt" height="200pt"
 viewBox="0.00 0.00 1478.50 200.00" xmlns="http://www.w3.org/2000/svg" xmlns:xlink="http://www.w3.org/1999/xlink">
<g id="graph0" class="graph" transform="scale(1 1) rotate(0) translate(4 196)">
<title>a_graph</title>
<polygon fill="#ffffff" stroke="transparent" points="-4,4 -4,-196 1474.5,-196 1474.5,4 -4,4"/>
<!-- T38149 -->
<g id="node1" class="node">
<title>T38149</title>
<polygon fill="none" stroke="#0058ad" points="0,-162.5 0,-191.5 1041,-191.5 1041,-162.5 0,-162.5"/>
<text text-anchor="middle" x="164" y="-173.3" font-family="Times,serif" font-size="14.00" fill="#0058ad">r 189 [1 2 4 5 6 7 8 9 10 11 12 13 14 15 16 17 18 20 21]</text>
<polyline fill="none" stroke="#0058ad" points="328,-162.5 328,-191.5 "/>
<text text-anchor="middle" x="492" y="-173.3" font-family="Times,serif" font-size="14.00" fill="#0058ad">r 189 [1 2 4 5 6 7 8 9 10 11 12 13 14 15 16 17 18 20 21]</text>
<polyline fill="none" stroke="#0058ad" points="656,-162.5 656,-191.5 "/>
<text text-anchor="middle" x="820" y="-173.3" font-family="Times,serif" font-size="14.00" fill="#0058ad">r 189 [1 2 4 5 6 7 8 9 10 11 12 13 14 15 16 17 18 20 21]</text>
<polyline fill="none" stroke="#0058ad" points="984,-162.5 984,-191.5 "/>
<text text-anchor="middle" x="1012.5" y="-173.3" font-family="Times,serif" font-size="14.00" fill="#0058ad">a 190 3</text>
</g>
<!-- T38147 -->
<g id="node3" class="node">
<title>T38147</title>
<polygon fill="none" stroke="#0058ad" points="508,-81.5 508,-110.5 707,-110.5 707,-81.5 508,-81.5"/>
<text text-anchor="middle" x="543.5" y="-92.3" font-family="Times,serif" font-size="14.00" fill="#0058ad">a 182 122</text>
<polyline fill="none" stroke="#0058ad" points="579,-81.5 579,-110.5 "/>
<text text-anchor="middle" x="611" y="-92.3" font-family="Times,serif" font-size="14.00" fill="#0058ad">a 189 22</text>
<polyline fill="none" stroke="#0058ad" points="643,-81.5 643,-110.5 "/>
<text text-anchor="middle" x="675" y="-92.3" font-family="Times,serif" font-size="14.00" fill="#0058ad">a 189 23</text>
</g>
<!-- T38149&#45;&gt;T38147 -->
<g id="edge1" class="edge">
<title>T38149:f0&#45;&gt;T38147:f1</title>
<path fill="none" stroke="#5b00c0" d="M163.5,-162C163.5,34.8745 595.8884,-299.2697 611.0896,-121.0638"/>
<polygon fill="#5b00c0" stroke="#5b00c0" points="614.5895,-121.1343 611.5,-111 607.5953,-120.849 614.5895,-121.1343"/>
<text text-anchor="middle" x="617" y="-132.8" font-family="Times,serif" font-size="14.00" fill="#5b00c0">rw</text>
</g>
<!-- T38153 -->
<g id="node2" class="node">
<title>T38153</title>
<polygon fill="none" stroke="#0058ad" points="470.5,-.5 470.5,-29.5 1470.5,-29.5 1470.5,-.5 470.5,-.5"/>
<text text-anchor="middle" x="508" y="-11.3" font-family="Times,serif" font-size="14.00" fill="#0058ad">r 190 [1 2]</text>
<polyline fill="none" stroke="#0058ad" points="545.5,-.5 545.5,-29.5 "/>
<text text-anchor="middle" x="827" y="-11.3" font-family="Times,serif" font-size="14.00" fill="#0058ad">r 185 [1 2 3 4 5 6 7 8 9 10 12 11 13 14 15 16 17 18 19 20 21 22 23 24 25 26 27 28 29 30 31 32 33]</text>
<polyline fill="none" stroke="#0058ad" points="1108.5,-.5 1108.5,-29.5 "/>
<text text-anchor="middle" x="1289.5" y="-11.3" font-family="Times,serif" font-size="14.00" fill="#0058ad">r 189 [1 2 4 5 6 7 8 9 10 11 12 13 14 15 16 17 18 20 21 22 23]</text>
</g>
<!-- T38153&#45;&gt;T38149 -->
<g id="edge2" class="edge">
<title>T38153:f0&#45;&gt;T38149:f3</title>
<path fill="none" stroke="#5b00c0" d="M507.5,-30C507.5,-52.3002 888.3053,-38.5409 908.5,-48 967.4535,-75.6137 1008.1931,-91.7261 1012.1787,-151.9476"/>
<polygon fill="#5b00c0" stroke="#5b00c0" points="1008.6823,-152.1169 1012.5,-162 1015.6787,-151.8933 1008.6823,-152.1169"/>
<text text-anchor="middle" x="1007" y="-92.3" font-family="Times,serif" font-size="14.00" fill="#5b00c0">rw</text>
</g>
<!-- T38147&#45;&gt;T38153 -->
<g id="edge3" class="edge">
<title>T38147:f2&#45;&gt;T38153:f2</title>
<path fill="none" stroke="#c000a5" d="M707.5,-96C792.875,-96 809.0708,-60.6729 893.5,-48 913.3221,-45.0247 1225.102,-50.7977 1280.965,-35.2549"/>
<polygon fill="#c000a5" stroke="#c000a5" points="1282.8195,-38.2233 1289.5,-30 1279.1495,-32.2624 1282.8195,-38.2233"/>
<text text-anchor="middle" x="901" y="-51.8" font-family="Times,serif" font-size="14.00" fill="#c000a5">wr</text>
</g>
</g>
</svg>
