<?xml version="1.0" encoding="UTF-8" standalone="no"?>
<!DOCTYPE svg PUBLIC "-//W3C//DTD SVG 1.1//EN"
 "http://www.w3.org/Graphics/SVG/1.1/DTD/svg11.dtd">
<!-- Generated by graphviz version 2.40.1 (20161225.0304)
 -->
<!-- Title: a_graph Pages: 1 -->
<svg width="3625pt" height="119pt"
 viewBox="0.00 0.00 3624.50 119.00" xmlns="http://www.w3.org/2000/svg" xmlns:xlink="http://www.w3.org/1999/xlink">
<g id="graph0" class="graph" transform="scale(1 1) rotate(0) translate(4 115)">
<title>a_graph</title>
<polygon fill="#ffffff" stroke="transparent" points="-4,4 -4,-115 3620.5,-115 3620.5,4 -4,4"/>
<!-- T18961 -->
<g id="node1" class="node">
<title>T18961</title>
<polygon fill="none" stroke="#0058ad" points="0,-81.5 0,-110.5 3245,-110.5 3245,-81.5 0,-81.5"/>
<text text-anchor="middle" x="797" y="-92.3" font-family="Times,serif" font-size="14.00" fill="#0058ad">r 97 [1 2 3 4 5 6 7 8 9 13 14 15 16 17 18 19 20 21 22 23 24 25 26 28 29 30 31 32 33 34 36 37 38 39 40 41 42 45 47 48 49 50 46 51 52 53 54 55 56 57 58 59 60 61 62 63 64 65 66 67 68 69 70 71 72 73 74 78 79 80 81 82 83 84 85 86 87 88 89 90 91 92 93 94 95 96 97 98 101 102 99 100]</text>
<polyline fill="none" stroke="#0058ad" points="1594,-81.5 1594,-110.5 "/>
<text text-anchor="middle" x="1622.5" y="-92.3" font-family="Times,serif" font-size="14.00" fill="#0058ad">a 72 52</text>
<polyline fill="none" stroke="#0058ad" points="1651,-81.5 1651,-110.5 "/>
<text text-anchor="middle" x="2448" y="-92.3" font-family="Times,serif" font-size="14.00" fill="#0058ad">r 97 [1 2 3 4 5 6 7 8 9 13 14 15 16 17 18 19 20 21 22 23 24 25 26 28 29 30 31 32 33 34 36 37 38 39 40 41 42 45 47 48 49 50 46 51 52 53 54 55 56 57 58 59 60 61 62 63 64 65 66 67 68 69 70 71 72 73 74 78 79 80 81 82 83 84 85 86 87 88 89 90 91 92 93 94 95 96 97 98 101 102 99 100]</text>
</g>
<!-- T18965 -->
<g id="node2" class="node">
<title>T18965</title>
<polygon fill="none" stroke="#0058ad" points="1022.5,-.5 1022.5,-29.5 3616.5,-29.5 3616.5,-.5 1022.5,-.5"/>
<text text-anchor="middle" x="1054.5" y="-11.3" font-family="Times,serif" font-size="14.00" fill="#0058ad">a 97 103</text>
<polyline fill="none" stroke="#0058ad" points="1086.5,-.5 1086.5,-29.5 "/>
<text text-anchor="middle" x="1468" y="-11.3" font-family="Times,serif" font-size="14.00" fill="#0058ad">r 72 [1 2 3 4 5 6 7 8 9 10 11 12 13 15 16 17 18 21 22 23 24 25 26 27 29 30 31 32 33 34 35 36 37 38 39 40 41 42 43 44 45 48 49 50 51]</text>
<polyline fill="none" stroke="#0058ad" points="1849.5,-.5 1849.5,-29.5 "/>
<text text-anchor="middle" x="1924" y="-11.3" font-family="Times,serif" font-size="14.00" fill="#0058ad">r 96 [2 3 4 5 6 7 8 9 10]</text>
<polyline fill="none" stroke="#0058ad" points="1998.5,-.5 1998.5,-29.5 "/>
<text text-anchor="middle" x="2807.5" y="-11.3" font-family="Times,serif" font-size="14.00" fill="#0058ad">r 97 [1 2 3 4 5 6 7 8 9 13 14 15 16 17 18 19 20 21 22 23 24 25 26 28 29 30 31 32 33 34 36 37 38 39 40 41 42 45 47 48 49 50 46 51 52 53 54 55 56 57 58 59 60 61 62 63 64 65 66 67 68 69 70 71 72 73 74 78 79 80 81 82 83 84 85 86 87 88 89 90 91 92 93 94 95 96 97 98 101 102 99 100 103]</text>
</g>
<!-- T18961&#45;&gt;T18965 -->
<g id="edge1" class="edge">
<title>T18961:f0&#45;&gt;T18965:f0</title>
<path fill="none" stroke="#5b00c0" d="M796.5,-81C796.5,-31.6434 951.0625,-16.6737 1012.4953,-15.1362"/>
<polygon fill="#5b00c0" stroke="#5b00c0" points="1012.5486,-18.6359 1022.5,-15 1012.4532,-11.6365 1012.5486,-18.6359"/>
<text text-anchor="middle" x="830" y="-51.8" font-family="Times,serif" font-size="14.00" fill="#5b00c0">rw</text>
</g>
<!-- T18965&#45;&gt;T18961 -->
<g id="edge2" class="edge">
<title>T18965:f1&#45;&gt;T18961:f1</title>
<path fill="none" stroke="#5b00c0" d="M1467.5,-30C1467.5,-98.6977 1606.5834,-17.9334 1621.2523,-70.8675"/>
<polygon fill="#5b00c0" stroke="#5b00c0" points="1617.804,-71.5027 1622.5,-81 1624.7516,-70.6472 1617.804,-71.5027"/>
<text text-anchor="middle" x="1623" y="-51.8" font-family="Times,serif" font-size="14.00" fill="#5b00c0">rw</text>
</g>
</g>
</svg>
