<?xml version="1.0" encoding="UTF-8" standalone="no"?>
<!DOCTYPE svg PUBLIC "-//W3C//DTD SVG 1.1//EN"
 "http://www.w3.org/Graphics/SVG/1.1/DTD/svg11.dtd">
<!-- Generated by graphviz version 2.40.1 (20161225.0304)
 -->
<!-- Title: a_graph Pages: 1 -->
<svg width="2817pt" height="119pt"
 viewBox="0.00 0.00 2817.00 119.00" xmlns="http://www.w3.org/2000/svg" xmlns:xlink="http://www.w3.org/1999/xlink">
<g id="graph0" class="graph" transform="scale(1 1) rotate(0) translate(4 115)">
<title>a_graph</title>
<polygon fill="#ffffff" stroke="transparent" points="-4,4 -4,-115 2813,-115 2813,4 -4,4"/>
<!-- T2707 -->
<g id="node1" class="node">
<title>T2707</title>
<polygon fill="none" stroke="#0058ad" points="776,-81.5 776,-110.5 2809,-110.5 2809,-81.5 776,-81.5"/>
<text text-anchor="middle" x="988.5" y="-92.3" font-family="Times,serif" font-size="14.00" fill="#0058ad">r 19 [2 3 1 4 5 6 8 9 10 11 12 13 14 15 16 17 18 19 20 21 22 23 24 25 28]</text>
<polyline fill="none" stroke="#0058ad" points="1201,-81.5 1201,-110.5 "/>
<text text-anchor="middle" x="1229.5" y="-92.3" font-family="Times,serif" font-size="14.00" fill="#0058ad">a 18 89</text>
<polyline fill="none" stroke="#0058ad" points="1258,-81.5 1258,-110.5 "/>
<text text-anchor="middle" x="1286.5" y="-92.3" font-family="Times,serif" font-size="14.00" fill="#0058ad">a 18 90</text>
<polyline fill="none" stroke="#0058ad" points="1315,-81.5 1315,-110.5 "/>
<text text-anchor="middle" x="2062" y="-92.3" font-family="Times,serif" font-size="14.00" fill="#0058ad">r 18 [1 3 2 4 5 6 8 9 10 11 13 12 14 15 16 17 18 19 20 21 22 23 24 25 26 27 28 29 30 31 32 33 34 35 36 38 39 40 41 42 43 44 45 46 47 48 49 50 51 52 53 54 55 56 57 58 59 60 61 62 64 65 63 66 67 68 69 70 72 71 73 74 75 76 77 80 81 82 83 84 85 86 87 91 92 89 90]</text>
</g>
<!-- T2705 -->
<g id="node2" class="node">
<title>T2705</title>
<polygon fill="none" stroke="#0058ad" points="0,-.5 0,-29.5 1517,-29.5 1517,-.5 0,-.5"/>
<text text-anchor="middle" x="730" y="-11.3" font-family="Times,serif" font-size="14.00" fill="#0058ad">r 18 [1 3 2 4 5 6 8 9 10 11 13 12 14 15 16 17 18 19 20 21 22 23 24 25 26 27 28 29 30 31 32 33 34 35 36 38 39 40 41 42 43 44 45 46 47 48 49 50 51 52 53 54 55 56 57 58 59 60 61 62 64 65 63 66 67 68 69 70 72 71 73 74 75 76 77 80 81 82 83 84 85 86 87 91 92]</text>
<polyline fill="none" stroke="#0058ad" points="1460,-.5 1460,-29.5 "/>
<text text-anchor="middle" x="1488.5" y="-11.3" font-family="Times,serif" font-size="14.00" fill="#0058ad">a 19 29</text>
</g>
<!-- T2707&#45;&gt;T2705 -->
<g id="edge1" class="edge">
<title>T2707:f0&#45;&gt;T2705:f1</title>
<path fill="none" stroke="#5b00c0" d="M988.5,-81C988.5,-11.4363 1072.5426,-57.1647 1141.5,-48 1158.7667,-45.7052 1427.4082,-48.6133 1479.7126,-35.0205"/>
<polygon fill="#5b00c0" stroke="#5b00c0" points="1481.5535,-37.9998 1488.5,-30 1478.0809,-31.9218 1481.5535,-37.9998"/>
<text text-anchor="middle" x="1149" y="-51.8" font-family="Times,serif" font-size="14.00" fill="#5b00c0">rw</text>
</g>
<!-- T2705&#45;&gt;T2707 -->
<g id="edge2" class="edge">
<title>T2705:f0&#45;&gt;T2707:f1</title>
<path fill="none" stroke="#5b00c0" d="M729.5,-30C729.5,-53.7433 1133.4002,-42.5098 1156.5,-48 1187.3517,-55.3327 1221.1534,-47.5373 1228.1784,-70.898"/>
<polygon fill="#5b00c0" stroke="#5b00c0" points="1224.7323,-71.5386 1229.5,-81 1231.6731,-70.6304 1224.7323,-71.5386"/>
<text text-anchor="middle" x="1230" y="-51.8" font-family="Times,serif" font-size="14.00" fill="#5b00c0">rw</text>
</g>
</g>
</svg>
