<?xml version="1.0" encoding="UTF-8" standalone="no"?>
<!DOCTYPE svg PUBLIC "-//W3C//DTD SVG 1.1//EN"
 "http://www.w3.org/Graphics/SVG/1.1/DTD/svg11.dtd">
<!-- Generated by graphviz version 2.40.1 (20161225.0304)
 -->
<!-- Title: a_graph Pages: 1 -->
<svg width="1713pt" height="200pt"
 viewBox="0.00 0.00 1713.00 200.00" xmlns="http://www.w3.org/2000/svg" xmlns:xlink="http://www.w3.org/1999/xlink">
<g id="graph0" class="graph" transform="scale(1 1) rotate(0) translate(4 196)">
<title>a_graph</title>
<polygon fill="#ffffff" stroke="transparent" points="-4,4 -4,-196 1709,-196 1709,4 -4,4"/>
<!-- T8199 -->
<g id="node1" class="node">
<title>T8199</title>
<polygon fill="none" stroke="#0058ad" points="751.5,-162.5 751.5,-191.5 815.5,-191.5 815.5,-162.5 751.5,-162.5"/>
<text text-anchor="middle" x="783.5" y="-173.3" font-family="Times,serif" font-size="14.00" fill="#0058ad">a 43 100</text>
</g>
<!-- T8203 -->
<g id="node2" class="node">
<title>T8203</title>
<polygon fill="none" stroke="#0058ad" points="340.5,-81.5 340.5,-110.5 816.5,-110.5 816.5,-81.5 340.5,-81.5"/>
<text text-anchor="middle" x="578.5" y="-92.3" font-family="Times,serif" font-size="14.00" fill="#0058ad">r 45 [1 2 3 4 5 6 7 9 10 12 13 14 15 16 17 18 19 20 21 22 23 24 25 26 27 28 29 30]</text>
</g>
<!-- T8199&#45;&gt;T8203 -->
<g id="edge1" class="edge">
<title>T8199&#45;&gt;T8203</title>
<path fill="none" stroke="#0050c0" d="M751.4687,-164.3438C717.5222,-150.9307 663.5886,-129.6204 624.9716,-114.362"/>
<polygon fill="#0050c0" stroke="#0050c0" points="626.0918,-111.0413 615.5052,-110.6216 623.5194,-117.5515 626.0918,-111.0413"/>
<text text-anchor="middle" x="703" y="-132.8" font-family="Times,serif" font-size="14.00" fill="#0050c0">rt</text>
</g>
<!-- T8197 -->
<g id="node3" class="node">
<title>T8197</title>
<polygon fill="none" stroke="#0058ad" points="0,-.5 0,-29.5 1705,-29.5 1705,-.5 0,-.5"/>
<text text-anchor="middle" x="28.5" y="-11.3" font-family="Times,serif" font-size="14.00" fill="#0058ad">a 45 31</text>
<polyline fill="none" stroke="#0058ad" points="57,-.5 57,-29.5 "/>
<text text-anchor="middle" x="852.5" y="-11.3" font-family="Times,serif" font-size="14.00" fill="#0058ad">r 43 [1 2 3 4 5 6 7 8 9 10 11 12 13 16 17 19 20 21 22 23 24 25 26 27 28 29 30 31 32 33 34 35 36 38 37 39 40 41 42 43 44 45 46 47 48 49 50 51 52 53 54 55 56 57 58 59 60 61 62 64 65 66 69 70 72 71 73 74 75 76 77 78 79 80 81 82 83 84 85 86 87 88 89 90 91 92 93 94 95 96 97 98 99]</text>
<polyline fill="none" stroke="#0058ad" points="1648,-.5 1648,-29.5 "/>
<text text-anchor="middle" x="1676.5" y="-11.3" font-family="Times,serif" font-size="14.00" fill="#0058ad">a 36 84</text>
</g>
<!-- T8203&#45;&gt;T8197 -->
<g id="edge2" class="edge">
<title>T8203:f0&#45;&gt;T8197:f0</title>
<path fill="none" stroke="#5b00c0" d="M383.042,-81.4773C243.4818,-69.9106 74.0175,-52.9816 36.2158,-36.5181"/>
<polygon fill="#5b00c0" stroke="#5b00c0" points="38.3978,-33.7796 28.5,-30 33.8805,-39.127 38.3978,-33.7796"/>
<text text-anchor="middle" x="184" y="-51.8" font-family="Times,serif" font-size="14.00" fill="#5b00c0">rw</text>
</g>
<!-- T8197&#45;&gt;T8199 -->
<g id="edge3" class="edge">
<title>T8197:f1&#45;&gt;T8199:f0</title>
<path fill="none" stroke="#5b00c0" d="M852.5,-30C852.5,-77.5714 822.5224,-126.2962 802.0858,-153.9862"/>
<polygon fill="#5b00c0" stroke="#5b00c0" points="799.1005,-152.1298 795.8358,-162.2092 804.6735,-156.3657 799.1005,-152.1298"/>
<text text-anchor="middle" x="849" y="-92.3" font-family="Times,serif" font-size="14.00" fill="#5b00c0">rw</text>
</g>
<!-- T8197&#45;&gt;T8203 -->
<g id="edge4" class="edge">
<title>T8197&#45;&gt;T8203</title>
<path fill="none" stroke="#0050c0" d="M803.1322,-29.5941C756.599,-43.3503 686.8213,-63.978 637.4017,-78.5875"/>
<polygon fill="#0050c0" stroke="#0050c0" points="636.3997,-75.2339 627.8022,-81.4253 638.3842,-81.9467 636.3997,-75.2339"/>
<text text-anchor="middle" x="744" y="-51.8" font-family="Times,serif" font-size="14.00" fill="#0050c0">rt</text>
</g>
</g>
</svg>
