<?xml version="1.0" encoding="UTF-8" standalone="no"?>
<!DOCTYPE svg PUBLIC "-//W3C//DTD SVG 1.1//EN"
 "http://www.w3.org/Graphics/SVG/1.1/DTD/svg11.dtd">
<!-- Generated by graphviz version 2.40.1 (20161225.0304)
 -->
<!-- Title: a_graph Pages: 1 -->
<svg width="3741pt" height="119pt"
 viewBox="0.00 0.00 3740.50 119.00" xmlns="http://www.w3.org/2000/svg" xmlns:xlink="http://www.w3.org/1999/xlink">
<g id="graph0" class="graph" transform="scale(1 1) rotate(0) translate(4 115)">
<title>a_graph</title>
<polygon fill="#ffffff" stroke="transparent" points="-4,4 -4,-115 3736.5,-115 3736.5,4 -4,4"/>
<!-- T23419 -->
<g id="node1" class="node">
<title>T23419</title>
<polygon fill="none" stroke="#0058ad" points="1374.5,-81.5 1374.5,-110.5 3732.5,-110.5 3732.5,-81.5 1374.5,-81.5"/>
<text text-anchor="middle" x="1410" y="-92.3" font-family="Times,serif" font-size="14.00" fill="#0058ad">a 117 127</text>
<polyline fill="none" stroke="#0058ad" points="1445.5,-81.5 1445.5,-110.5 "/>
<text text-anchor="middle" x="2589" y="-92.3" font-family="Times,serif" font-size="14.00" fill="#0058ad">r 115 [3 1 2 4 5 6 7 9 10 8 13 11 14 15 16 18 19 17 20 21 23 22 24 25 26 27 28 29 30 31 32 33 34 36 37 35 39 40 41 42 43 44 45 46 47 48 49 52 54 53 56 57 58 59 60 61 62 63 64 65 66 67 68 69 70 71 72 74 73 75 76 77 78 79 80 81 82 83 84 85 86 87 88 89 90 91 93 94 92 95 96 97 98 99 100 101 103 102 104 106 107 108 109 110 111 105 112 113 114 116 115 117 118 119 120 121 122 123 124 125 127 128]</text>
</g>
<!-- T23425 -->
<g id="node2" class="node">
<title>T23425</title>
<polygon fill="none" stroke="#0058ad" points="0,-.5 0,-29.5 2707,-29.5 2707,-.5 0,-.5"/>
<text text-anchor="middle" x="1166" y="-11.3" font-family="Times,serif" font-size="14.00" fill="#0058ad">r 117 [1 2 3 4 5 6 7 8 9 10 11 12 13 14 15 16 17 18 19 20 21 22 23 24 25 26 27 28 29 30 31 32 33 34 35 37 36 38 39 40 41 42 43 44 45 46 47 48 49 50 51 52 53 54 55 56 57 58 59 60 62 63 61 64 65 66 67 68 69 70 71 72 73 76 74 75 78 79 80 77 81 83 82 84 85 86 87 88 89 90 92 93 91 94 97 98 96 99 100 101 103 104 105 107 102 108 109 110 106 111 112 113 114 115 116 117 118 119 120 121 123 122 124 125 126]</text>
<polyline fill="none" stroke="#0058ad" points="2332,-.5 2332,-29.5 "/>
<text text-anchor="middle" x="2484" y="-11.3" font-family="Times,serif" font-size="14.00" fill="#0058ad">r 118 [1 3 4 2 6 5 7 8 9 10 11 12 15 16 17 18 19 20]</text>
<polyline fill="none" stroke="#0058ad" points="2636,-.5 2636,-29.5 "/>
<text text-anchor="middle" x="2671.5" y="-11.3" font-family="Times,serif" font-size="14.00" fill="#0058ad">a 115 126</text>
</g>
<!-- T23419&#45;&gt;T23425 -->
<g id="edge1" class="edge">
<title>T23419:f1&#45;&gt;T23425:f2</title>
<path fill="none" stroke="#5b00c0" d="M2589.5,-81C2589.5,-42.1053 2656.8457,-67.0698 2669.473,-40.1487"/>
<polygon fill="#5b00c0" stroke="#5b00c0" points="2672.9735,-40.4919 2671.5,-30 2666.1091,-39.1208 2672.9735,-40.4919"/>
<text text-anchor="middle" x="2668" y="-51.8" font-family="Times,serif" font-size="14.00" fill="#5b00c0">rw</text>
</g>
<!-- T23425&#45;&gt;T23419 -->
<g id="edge2" class="edge">
<title>T23425:f0&#45;&gt;T23419:f0</title>
<path fill="none" stroke="#5b00c0" d="M1165.5,-30C1165.5,-75.7563 1306.9717,-93.7906 1364.4863,-95.8067"/>
<polygon fill="#5b00c0" stroke="#5b00c0" points="1364.4343,-99.3062 1374.5,-96 1364.5695,-92.3075 1364.4343,-99.3062"/>
<text text-anchor="middle" x="1200" y="-51.8" font-family="Times,serif" font-size="14.00" fill="#5b00c0">rw</text>
</g>
</g>
</svg>
