<?xml version="1.0" encoding="UTF-8" standalone="no"?>
<!DOCTYPE svg PUBLIC "-//W3C//DTD SVG 1.1//EN"
 "http://www.w3.org/Graphics/SVG/1.1/DTD/svg11.dtd">
<!-- Generated by graphviz version 2.40.1 (20161225.0304)
 -->
<!-- Title: a_graph Pages: 1 -->
<svg width="5831pt" height="200pt"
 viewBox="0.00 0.00 5831.00 200.00" xmlns="http://www.w3.org/2000/svg" xmlns:xlink="http://www.w3.org/1999/xlink">
<g id="graph0" class="graph" transform="scale(1 1) rotate(0) translate(4 196)">
<title>a_graph</title>
<polygon fill="#ffffff" stroke="transparent" points="-4,4 -4,-196 5827,-196 5827,4 -4,4"/>
<!-- T38477 -->
<g id="node1" class="node">
<title>T38477</title>
<polygon fill="none" stroke="#0058ad" points="0,-162.5 0,-191.5 3864,-191.5 3864,-162.5 0,-162.5"/>
<text text-anchor="middle" x="934" y="-173.3" font-family="Times,serif" font-size="14.00" fill="#0058ad">r 189 [1 2 4 5 6 7 8 9 10 11 12 13 14 15 16 17 18 20 21 22 23 24 25 26 27 28 29 30 31 32 19 34 35 33 37 36 38 39 40 41 42 44 45 46 47 48 49 51 52 53 54 50 55 56 57 60 61 62 58 63 65 66 68 69 71 72 73 75 76 77 74 78 79 80 81 82 83 84 85 87 88 86 89 90 92 93 91 95 96 97 94 98 100 103 101 102 104 105 99 106 107 109 110 111]</text>
<polyline fill="none" stroke="#0058ad" points="1868,-162.5 1868,-191.5 "/>
<text text-anchor="middle" x="1900" y="-173.3" font-family="Times,serif" font-size="14.00" fill="#0058ad">a 190 50</text>
<polyline fill="none" stroke="#0058ad" points="1932,-162.5 1932,-191.5 "/>
<text text-anchor="middle" x="2866" y="-173.3" font-family="Times,serif" font-size="14.00" fill="#0058ad">r 189 [1 2 4 5 6 7 8 9 10 11 12 13 14 15 16 17 18 20 21 22 23 24 25 26 27 28 29 30 31 32 19 34 35 33 37 36 38 39 40 41 42 44 45 46 47 48 49 51 52 53 54 50 55 56 57 60 61 62 58 63 65 66 68 69 71 72 73 75 76 77 74 78 79 80 81 82 83 84 85 87 88 86 89 90 92 93 91 95 96 97 94 98 100 103 101 102 104 105 99 106 107 109 110 111]</text>
<polyline fill="none" stroke="#0058ad" points="3800,-162.5 3800,-191.5 "/>
<text text-anchor="middle" x="3832" y="-173.3" font-family="Times,serif" font-size="14.00" fill="#0058ad">a 191 24</text>
</g>
<!-- T38481 -->
<g id="node2" class="node">
<title>T38481</title>
<polygon fill="none" stroke="#0058ad" points="1567.5,-.5 1567.5,-29.5 4172.5,-29.5 4172.5,-.5 1567.5,-.5"/>
<text text-anchor="middle" x="1900.5" y="-11.3" font-family="Times,serif" font-size="14.00" fill="#0058ad">r 190 [1 2 3 4 5 6 7 8 9 11 12 14 15 18 16 17 19 21 26 30 31 32 33 34 35 36 38 40 37 41 39 43 44 45 46 47 42 48 49]</text>
<polyline fill="none" stroke="#0058ad" points="2233.5,-.5 2233.5,-29.5 "/>
<text text-anchor="middle" x="3167.5" y="-11.3" font-family="Times,serif" font-size="14.00" fill="#0058ad">r 189 [1 2 4 5 6 7 8 9 10 11 12 13 14 15 16 17 18 20 21 22 23 24 25 26 27 28 29 30 31 32 19 34 35 33 37 36 38 39 40 41 42 44 45 46 47 48 49 51 52 53 54 50 55 56 57 60 61 62 58 63 65 66 68 69 71 72 73 75 76 77 74 78 79 80 81 82 83 84 85 87 88 86 89 90 92 93 91 95 96 97 94 98 100 103 101 102 104 105 99 106 107 109 110 111]</text>
<polyline fill="none" stroke="#0058ad" points="4101.5,-.5 4101.5,-29.5 "/>
<text text-anchor="middle" x="4137" y="-11.3" font-family="Times,serif" font-size="14.00" fill="#0058ad">a 189 108</text>
</g>
<!-- T38477&#45;&gt;T38481 -->
<g id="edge2" class="edge">
<title>T38477:f0&#45;&gt;T38481:f2</title>
<path fill="none" stroke="#5b00c0" d="M934,-162C934,51.067 1673.3637,-61.5394 1886,-48 1900.9914,-47.0454 3965.7466,-45.7392 4127.0327,-31.7675"/>
<polygon fill="#5b00c0" stroke="#5b00c0" points="4127.7648,-35.1924 4137,-30 4126.5425,-28.2999 4127.7648,-35.1924"/>
<text text-anchor="middle" x="990.5" y="-92.3" font-family="Times,serif" font-size="14.00" fill="#5b00c0">rw</text>
</g>
<!-- T38483 -->
<g id="node3" class="node">
<title>T38483</title>
<polygon fill="none" stroke="#0058ad" points="2525,-81.5 2525,-110.5 5823,-110.5 5823,-81.5 2525,-81.5"/>
<text text-anchor="middle" x="2866.5" y="-92.3" font-family="Times,serif" font-size="14.00" fill="#0058ad">r 190 [1 2 3 4 5 6 7 8 9 11 12 14 15 18 16 17 19 21 26 30 31 32 33 34 35 36 38 40 37 41 39 43 44 45 46 47 42 48 49 50]</text>
<polyline fill="none" stroke="#0058ad" points="3208,-81.5 3208,-110.5 "/>
<text text-anchor="middle" x="3240" y="-92.3" font-family="Times,serif" font-size="14.00" fill="#0058ad">a 191 25</text>
<polyline fill="none" stroke="#0058ad" points="3272,-81.5 3272,-110.5 "/>
<text text-anchor="middle" x="3613.5" y="-92.3" font-family="Times,serif" font-size="14.00" fill="#0058ad">r 190 [1 2 3 4 5 6 7 8 9 11 12 14 15 18 16 17 19 21 26 30 31 32 33 34 35 36 38 40 37 41 39 43 44 45 46 47 42 48 49 50]</text>
<polyline fill="none" stroke="#0058ad" points="3955,-81.5 3955,-110.5 "/>
<text text-anchor="middle" x="4889" y="-92.3" font-family="Times,serif" font-size="14.00" fill="#0058ad">r 189 [1 2 4 5 6 7 8 9 10 11 12 13 14 15 16 17 18 20 21 22 23 24 25 26 27 28 29 30 31 32 19 34 35 33 37 36 38 39 40 41 42 44 45 46 47 48 49 51 52 53 54 50 55 56 57 60 61 62 58 63 65 66 68 69 71 72 73 75 76 77 74 78 79 80 81 82 83 84 85 87 88 86 89 90 92 93 91 95 96 97 94 98 100 103 101 102 104 105 99 106 107 109 110 111]</text>
</g>
<!-- T38477&#45;&gt;T38483 -->
<g id="edge1" class="edge">
<title>T38477:f3&#45;&gt;T38483:f1</title>
<path fill="none" stroke="#c02700" d="M3832,-162C3832,-33.5677 3271.9324,-231.6478 3241.3037,-121.0716"/>
<polygon fill="#c02700" stroke="#c02700" points="3244.7548,-120.4679 3240,-111 3237.8127,-121.3666 3244.7548,-120.4679"/>
<text text-anchor="middle" x="3835" y="-132.8" font-family="Times,serif" font-size="14.00" fill="#c02700">ww</text>
</g>
<!-- T38481&#45;&gt;T38477 -->
<g id="edge3" class="edge">
<title>T38481:f0&#45;&gt;T38477:f1</title>
<path fill="none" stroke="#5b00c0" d="M1900,-30C1900,-85.1146 1900,-101.396 1900,-151.8081"/>
<polygon fill="#5b00c0" stroke="#5b00c0" points="1896.5001,-152 1900,-162 1903.5001,-152 1896.5001,-152"/>
<text text-anchor="middle" x="1907.5" y="-92.3" font-family="Times,serif" font-size="14.00" fill="#5b00c0">rw</text>
</g>
<!-- T38483&#45;&gt;T38481 -->
<g id="edge4" class="edge">
<title>T38483:f3&#45;&gt;T38481:f2</title>
<path fill="none" stroke="#5b00c0" d="M4889,-81C4889,-43.0041 4277.3554,-17.5774 4183.2486,-15.1849"/>
<polygon fill="#5b00c0" stroke="#5b00c0" points="4183.0616,-11.6811 4173,-15 4182.9352,-18.6799 4183.0616,-11.6811"/>
<text text-anchor="middle" x="4849.5" y="-51.8" font-family="Times,serif" font-size="14.00" fill="#5b00c0">rw</text>
</g>
</g>
</svg>
