<?xml version="1.0" encoding="UTF-8" standalone="no"?>
<!DOCTYPE svg PUBLIC "-//W3C//DTD SVG 1.1//EN"
 "http://www.w3.org/Graphics/SVG/1.1/DTD/svg11.dtd">
<!-- Generated by graphviz version 2.40.1 (20161225.0304)
 -->
<!-- Title: a_graph Pages: 1 -->
<svg width="5975pt" height="200pt"
 viewBox="0.00 0.00 5975.00 200.00" xmlns="http://www.w3.org/2000/svg" xmlns:xlink="http://www.w3.org/1999/xlink">
<g id="graph0" class="graph" transform="scale(1 1) rotate(0) translate(4 196)">
<title>a_graph</title>
<polygon fill="#ffffff" stroke="transparent" points="-4,4 -4,-196 5971,-196 5971,4 -4,4"/>
<!-- T35509 -->
<g id="node1" class="node">
<title>T35509</title>
<polygon fill="none" stroke="#0058ad" points="0,-162.5 0,-191.5 3667,-191.5 3667,-162.5 0,-162.5"/>
<text text-anchor="middle" x="410.5" y="-173.3" font-family="Times,serif" font-size="14.00" fill="#0058ad">r 175 [1 3 2 4 5 6 7 9 8 10 11 13 12 14 15 16 17 18 19 20 23 24 25 22 26 27 28 29 31 30 32 33 34 35 36 37 38 39 40 41 42 43 44 45 46 47 49 48]</text>
<polyline fill="none" stroke="#0058ad" points="821,-162.5 821,-191.5 "/>
<text text-anchor="middle" x="1585.5" y="-173.3" font-family="Times,serif" font-size="14.00" fill="#0058ad">r 176 [1 2 4 5 6 7 3 8 9 10 11 12 13 14 15 16 17 18 19 20 21 22 23 24 25 26 27 29 28 33 30 31 35 34 36 37 38 32 39 40 41 42 43 44 47 48 49 50 45 51 52 53 57 55 58 59 62 63 60 65 66 67 68 69 70 71 72 73 74 75 76 77 78 80 79 82 81 83 84 85 87 86 88 90 89 92 93 91 94]</text>
<polyline fill="none" stroke="#0058ad" points="2350,-162.5 2350,-191.5 "/>
<text text-anchor="middle" x="2976.5" y="-173.3" font-family="Times,serif" font-size="14.00" fill="#0058ad">r 177 [1 2 3 5 6 7 4 8 9 10 11 12 13 14 15 16 17 19 20 25 26 27 28 29 30 32 33 34 35 36 37 38 39 41 40 42 43 44 45 48 49 50 51 55 54 57 58 52 53 56 61 59 60 62 63 64 65 67 68 69 70 71 72 73 66 74 75 76 77 78 81 79 80]</text>
<polyline fill="none" stroke="#0058ad" points="3603,-162.5 3603,-191.5 "/>
<text text-anchor="middle" x="3635" y="-173.3" font-family="Times,serif" font-size="14.00" fill="#0058ad">a 176 95</text>
</g>
<!-- T35507 -->
<g id="node3" class="node">
<title>T35507</title>
<polygon fill="none" stroke="#0058ad" points="3040,-81.5 3040,-110.5 5967,-110.5 5967,-81.5 3040,-81.5"/>
<text text-anchor="middle" x="3072" y="-92.3" font-family="Times,serif" font-size="14.00" fill="#0058ad">a 177 82</text>
<polyline fill="none" stroke="#0058ad" points="3104,-81.5 3104,-110.5 "/>
<text text-anchor="middle" x="3739" y="-92.3" font-family="Times,serif" font-size="14.00" fill="#0058ad">r 177 [1 2 3 5 6 7 4 8 9 10 11 12 13 14 15 16 17 19 20 25 26 27 28 29 30 32 33 34 35 36 37 38 39 41 40 42 43 44 45 48 49 50 51 55 54 57 58 52 53 56 61 59 60 62 63 64 65 67 68 69 70 71 72 73 66 74 75 76 77 78 81 79 80 82]</text>
<polyline fill="none" stroke="#0058ad" points="4374,-81.5 4374,-110.5 "/>
<text text-anchor="middle" x="5138.5" y="-92.3" font-family="Times,serif" font-size="14.00" fill="#0058ad">r 176 [1 2 4 5 6 7 3 8 9 10 11 12 13 14 15 16 17 18 19 20 21 22 23 24 25 26 27 29 28 33 30 31 35 34 36 37 38 32 39 40 41 42 43 44 47 48 49 50 45 51 52 53 57 55 58 59 62 63 60 65 66 67 68 69 70 71 72 73 74 75 76 77 78 80 79 82 81 83 84 85 87 86 88 90 89 92 93 91 94]</text>
<polyline fill="none" stroke="#0058ad" points="5903,-81.5 5903,-110.5 "/>
<text text-anchor="middle" x="5935" y="-92.3" font-family="Times,serif" font-size="14.00" fill="#0058ad">a 177 83</text>
</g>
<!-- T35509&#45;&gt;T35507 -->
<g id="edge1" class="edge">
<title>T35509:f2&#45;&gt;T35507:f0</title>
<path fill="none" stroke="#5b00c0" d="M2976.5,-162C2976.5,-130.5667 3003.8868,-133.8237 3025.5,-111 3028.4392,-107.8962 3029.6953,-104.4063 3031.1397,-101.5743"/>
<polygon fill="#5b00c0" stroke="#5b00c0" points="3033.1215,-104.4596 3039.5,-96 3029.2382,-98.6355 3033.1215,-104.4596"/>
<text text-anchor="middle" x="3007" y="-132.8" font-family="Times,serif" font-size="14.00" fill="#5b00c0">rw</text>
</g>
<!-- T35511 -->
<g id="node2" class="node">
<title>T35511</title>
<polygon fill="none" stroke="#0058ad" points="2486.5,-.5 2486.5,-29.5 4900.5,-29.5 4900.5,-.5 2486.5,-.5"/>
<text text-anchor="middle" x="2897" y="-11.3" font-family="Times,serif" font-size="14.00" fill="#0058ad">r 175 [1 3 2 4 5 6 7 9 8 10 11 13 12 14 15 16 17 18 19 20 23 24 25 22 26 27 28 29 31 30 32 33 34 35 36 37 38 39 40 41 42 43 44 45 46 47 49 48]</text>
<polyline fill="none" stroke="#0058ad" points="3307.5,-.5 3307.5,-29.5 "/>
<text text-anchor="middle" x="4072" y="-11.3" font-family="Times,serif" font-size="14.00" fill="#0058ad">r 176 [1 2 4 5 6 7 3 8 9 10 11 12 13 14 15 16 17 18 19 20 21 22 23 24 25 26 27 29 28 33 30 31 35 34 36 37 38 32 39 40 41 42 43 44 47 48 49 50 45 51 52 53 57 55 58 59 62 63 60 65 66 67 68 69 70 71 72 73 74 75 76 77 78 80 79 82 81 83 84 85 87 86 88 90 89 92 93 91 94]</text>
<polyline fill="none" stroke="#0058ad" points="4836.5,-.5 4836.5,-29.5 "/>
<text text-anchor="middle" x="4868.5" y="-11.3" font-family="Times,serif" font-size="14.00" fill="#0058ad">a 177 85</text>
</g>
<!-- T35511&#45;&gt;T35509 -->
<g id="edge2" class="edge">
<title>T35511:f1&#45;&gt;T35509:f3</title>
<path fill="none" stroke="#5b00c0" d="M4072.5,-30C4072.5,-147.4701 3097.5357,4.0438 3016.5,-81 3007.3021,-90.6528 3007.4673,-101.1925 3016.5,-111 3060.8775,-159.1842 3578.7361,-99.6657 3631.2167,-152.5189"/>
<polygon fill="#5b00c0" stroke="#5b00c0" points="3628.1933,-154.3278 3635.5,-162 3634.5725,-151.4458 3628.1933,-154.3278"/>
<text text-anchor="middle" x="3024" y="-92.3" font-family="Times,serif" font-size="14.00" fill="#5b00c0">rw</text>
</g>
<!-- T35507&#45;&gt;T35509 -->
<g id="edge3" class="edge">
<title>T35507:f2&#45;&gt;T35509:f3</title>
<path fill="none" stroke="#5b00c0" d="M5138.5,-111C5138.5,-150.3844 3812.5729,-175.1155 3677.6487,-176.8968"/>
<polygon fill="#5b00c0" stroke="#5b00c0" points="3677.4639,-173.3984 3667.5,-177 3677.5351,-180.398 3677.4639,-173.3984"/>
<text text-anchor="middle" x="5047" y="-132.8" font-family="Times,serif" font-size="14.00" fill="#5b00c0">rw</text>
</g>
<!-- T35507&#45;&gt;T35511 -->
<g id="edge4" class="edge">
<title>T35507:f3&#45;&gt;T35511:f2</title>
<path fill="none" stroke="#c02700" d="M5935.5,-81C5935.5,-25.5213 5029.311,-15.69 4910.6173,-15.0367"/>
<polygon fill="#c02700" stroke="#c02700" points="4910.5127,-11.5364 4900.5,-15 4910.4872,-18.5364 4910.5127,-11.5364"/>
<text text-anchor="middle" x="5906.5" y="-51.8" font-family="Times,serif" font-size="14.00" fill="#c02700">ww</text>
</g>
</g>
</svg>
