<?xml version="1.0" encoding="UTF-8" standalone="no"?>
<!DOCTYPE svg PUBLIC "-//W3C//DTD SVG 1.1//EN"
 "http://www.w3.org/Graphics/SVG/1.1/DTD/svg11.dtd">
<!-- Generated by graphviz version 2.40.1 (20161225.0304)
 -->
<!-- Title: a_graph Pages: 1 -->
<svg width="4533pt" height="281pt"
 viewBox="0.00 0.00 4533.00 281.00" xmlns="http://www.w3.org/2000/svg" xmlns:xlink="http://www.w3.org/1999/xlink">
<g id="graph0" class="graph" transform="scale(1 1) rotate(0) translate(4 277)">
<title>a_graph</title>
<polygon fill="#ffffff" stroke="transparent" points="-4,4 -4,-277 4529,-277 4529,4 -4,4"/>
<!-- T34705 -->
<g id="node1" class="node">
<title>T34705</title>
<polygon fill="none" stroke="#0058ad" points="0,-243.5 0,-272.5 4525,-272.5 4525,-243.5 0,-243.5"/>
<text text-anchor="middle" x="743.5" y="-254.3" font-family="Times,serif" font-size="14.00" fill="#0058ad">r 173 [1 2 3 4 5 7 10 11 6 12 14 15 18 17 19 20 21 22 23 24 16 25 26 27 28 29 32 31 30 35 36 39 40 41 37 38 42 43 44 45 46 47 48 49 50 51 52 53 54 55 56 57 58 59 60 62 67 68 61 75 78 79 77 80 81 82 83 84 85 88 89 90 86 87 91 92 93 94 95 96 97 100 101 98 99]</text>
<polyline fill="none" stroke="#0058ad" points="1487,-243.5 1487,-272.5 "/>
<text text-anchor="middle" x="1519" y="-254.3" font-family="Times,serif" font-size="14.00" fill="#0058ad">a 172 72</text>
<polyline fill="none" stroke="#0058ad" points="1551,-243.5 1551,-272.5 "/>
<text text-anchor="middle" x="2294.5" y="-254.3" font-family="Times,serif" font-size="14.00" fill="#0058ad">r 173 [1 2 3 4 5 7 10 11 6 12 14 15 18 17 19 20 21 22 23 24 16 25 26 27 28 29 32 31 30 35 36 39 40 41 37 38 42 43 44 45 46 47 48 49 50 51 52 53 54 55 56 57 58 59 60 62 67 68 61 75 78 79 77 80 81 82 83 84 85 88 89 90 86 87 91 92 93 94 95 96 97 100 101 98 99]</text>
<polyline fill="none" stroke="#0058ad" points="3038,-243.5 3038,-272.5 "/>
<text text-anchor="middle" x="3781.5" y="-254.3" font-family="Times,serif" font-size="14.00" fill="#0058ad">r 173 [1 2 3 4 5 7 10 11 6 12 14 15 18 17 19 20 21 22 23 24 16 25 26 27 28 29 32 31 30 35 36 39 40 41 37 38 42 43 44 45 46 47 48 49 50 51 52 53 54 55 56 57 58 59 60 62 67 68 61 75 78 79 77 80 81 82 83 84 85 88 89 90 86 87 91 92 93 94 95 96 97 100 101 98 99]</text>
</g>
<!-- T34703 -->
<g id="node3" class="node">
<title>T34703</title>
<polygon fill="none" stroke="#0058ad" points="708.5,-162.5 708.5,-191.5 3662.5,-191.5 3662.5,-162.5 708.5,-162.5"/>
<text text-anchor="middle" x="744" y="-173.3" font-family="Times,serif" font-size="14.00" fill="#0058ad">a 173 102</text>
<polyline fill="none" stroke="#0058ad" points="779.5,-162.5 779.5,-191.5 "/>
<text text-anchor="middle" x="1276.5" y="-173.3" font-family="Times,serif" font-size="14.00" fill="#0058ad">r 172 [1 2 3 4 5 6 7 8 9 10 11 13 16 17 15 18 19 20 23 24 26 27 28 29 25 30 31 32 33 36 35 37 38 39 40 41 42 43 44 45 46 47 48 49 59 60 58 61 62 63 64 65 66 67 68 69 70 71]</text>
<polyline fill="none" stroke="#0058ad" points="1773.5,-162.5 1773.5,-191.5 "/>
<text text-anchor="middle" x="2718" y="-173.3" font-family="Times,serif" font-size="14.00" fill="#0058ad">r 166 [1 2 4 5 6 7 8 9 10 11 13 14 15 16 17 18 19 21 22 24 20 26 25 27 28 30 29 32 31 35 34 36 37 38 40 41 43 45 46 47 48 49 50 51 52 53 54 57 56 58 59 60 61 62 63 64 65 66 67 68 69 70 71 72 73 74 75 76 77 78 80 81 82 83 84 85 86 87 88 89 90 92 91 93 94 95 97 96 98 99 100 101 102 103 104 105 106 114 116 115 117 118 119 120]</text>
</g>
<!-- T34705&#45;&gt;T34703 -->
<g id="edge1" class="edge">
<title>T34705:f0&#45;&gt;T34703:f0</title>
<path fill="none" stroke="#5b00c0" d="M743.5,-243C743.5,-224.2292 743.5,-217.1168 743.5,-202.3535"/>
<polygon fill="#5b00c0" stroke="#5b00c0" points="747.0001,-202 743.5,-192 740.0001,-202 747.0001,-202"/>
<text text-anchor="middle" x="751" y="-213.8" font-family="Times,serif" font-size="14.00" fill="#5b00c0">rw</text>
</g>
<!-- T34701 -->
<g id="node2" class="node">
<title>T34701</title>
<polygon fill="none" stroke="#0058ad" points="1131.5,-81.5 1131.5,-110.5 2753.5,-110.5 2753.5,-81.5 1131.5,-81.5"/>
<text text-anchor="middle" x="1875" y="-92.3" font-family="Times,serif" font-size="14.00" fill="#0058ad">r 173 [1 2 3 4 5 7 10 11 6 12 14 15 18 17 19 20 21 22 23 24 16 25 26 27 28 29 32 31 30 35 36 39 40 41 37 38 42 43 44 45 46 47 48 49 50 51 52 53 54 55 56 57 58 59 60 62 67 68 61 75 78 79 77 80 81 82 83 84 85 88 89 90 86 87 91 92 93 94 95 96 97 100 101 98 99]</text>
<polyline fill="none" stroke="#0058ad" points="2618.5,-81.5 2618.5,-110.5 "/>
<text text-anchor="middle" x="2650.5" y="-92.3" font-family="Times,serif" font-size="14.00" fill="#0058ad">a 170 38</text>
<polyline fill="none" stroke="#0058ad" points="2682.5,-81.5 2682.5,-110.5 "/>
<text text-anchor="middle" x="2718" y="-92.3" font-family="Times,serif" font-size="14.00" fill="#0058ad">a 166 121</text>
</g>
<!-- T34701&#45;&gt;T34703 -->
<g id="edge3" class="edge">
<title>T34701:f0&#45;&gt;T34703:f0</title>
<path fill="none" stroke="#5b00c0" d="M1131.5,-96C1090.8444,-96 790.4271,-115.2481 748.3819,-153.0942"/>
<polygon fill="#5b00c0" stroke="#5b00c0" points="745.2378,-151.5486 743.5,-162 751.3761,-154.9135 745.2378,-151.5486"/>
<text text-anchor="middle" x="818" y="-132.8" font-family="Times,serif" font-size="14.00" fill="#5b00c0">rw</text>
</g>
<!-- T34707 -->
<g id="node4" class="node">
<title>T34707</title>
<polygon fill="none" stroke="#0058ad" points="3086,-.5 3086,-29.5 4151,-29.5 4151,-.5 3086,-.5"/>
<text text-anchor="middle" x="3583" y="-11.3" font-family="Times,serif" font-size="14.00" fill="#0058ad">r 172 [1 2 3 4 5 6 7 8 9 10 11 13 16 17 15 18 19 20 23 24 26 27 28 29 25 30 31 32 33 36 35 37 38 39 40 41 42 43 44 45 46 47 48 49 59 60 58 61 62 63 64 65 66 67 68 69 70 71]</text>
<polyline fill="none" stroke="#0058ad" points="4080,-.5 4080,-29.5 "/>
<text text-anchor="middle" x="4115.5" y="-11.3" font-family="Times,serif" font-size="14.00" fill="#0058ad">a 173 103</text>
</g>
<!-- T34701&#45;&gt;T34707 -->
<g id="edge2" class="edge">
<title>T34701&#45;&gt;T34707</title>
<path fill="none" stroke="#0050c0" d="M2242.6187,-81.4955C2543.2809,-66.9646 3003.9312,-44.7017 3308.1583,-29.9986"/>
<polygon fill="#0050c0" stroke="#0050c0" points="3308.6442,-33.4793 3318.4636,-29.5006 3308.3062,-26.4875 3308.6442,-33.4793"/>
<text text-anchor="middle" x="2935" y="-51.8" font-family="Times,serif" font-size="14.00" fill="#0050c0">rt</text>
</g>
<!-- T34703&#45;&gt;T34705 -->
<g id="edge6" class="edge">
<title>T34703:f1&#45;&gt;T34705:f1</title>
<path fill="none" stroke="#5b00c0" d="M1276.5,-192C1276.5,-298.2684 1502.6965,-143.9864 1517.7173,-232.9527"/>
<polygon fill="#5b00c0" stroke="#5b00c0" points="1514.2339,-233.3021 1518.5,-243 1521.2127,-232.7584 1514.2339,-233.3021"/>
<text text-anchor="middle" x="1521" y="-213.8" font-family="Times,serif" font-size="14.00" fill="#5b00c0">rw</text>
</g>
<!-- T34703&#45;&gt;T34701 -->
<g id="edge5" class="edge">
<title>T34703:f2&#45;&gt;T34701:f2</title>
<path fill="none" stroke="#5b00c0" d="M2718.5,-162C2718.5,-143.2292 2718.5,-136.1168 2718.5,-121.3535"/>
<polygon fill="#5b00c0" stroke="#5b00c0" points="2722.0001,-121 2718.5,-111 2715.0001,-121 2722.0001,-121"/>
<text text-anchor="middle" x="2726" y="-132.8" font-family="Times,serif" font-size="14.00" fill="#5b00c0">rw</text>
</g>
<!-- T34703&#45;&gt;T34707 -->
<g id="edge4" class="edge">
<title>T34703:f0&#45;&gt;T34707:f1</title>
<path fill="none" stroke="#c02700" d="M743.5,-162C743.5,-148.1522 2723.6667,-144.6338 2737.5,-144 2811.314,-140.6182 4018.1565,-109.3378 4109.9769,-38.5899"/>
<polygon fill="#c02700" stroke="#c02700" points="4113.0357,-40.3043 4115.5,-30 4107.1477,-36.5185 4113.0357,-40.3043"/>
<text text-anchor="middle" x="3895.5" y="-92.3" font-family="Times,serif" font-size="14.00" fill="#c02700">ww</text>
</g>
<!-- T34707&#45;&gt;T34705 -->
<g id="edge7" class="edge">
<title>T34707:f0&#45;&gt;T34705:f1</title>
<path fill="none" stroke="#5b00c0" d="M3582.5,-30C3582.5,-46.4984 3586.4904,-52.8537 3599.5,-63 3627.213,-84.6137 3654.6597,-53.4653 3676.5,-81 3707.1887,-119.69 3707.0759,-157.7498 3671.5,-192 3587.6646,-272.7114 1630.0477,-131.4719 1523.0532,-233.7835"/>
<polygon fill="#5b00c0" stroke="#5b00c0" points="1519.7913,-232.4841 1518.5,-243 1526.0673,-235.5847 1519.7913,-232.4841"/>
<text text-anchor="middle" x="3706" y="-132.8" font-family="Times,serif" font-size="14.00" fill="#5b00c0">rw</text>
</g>
</g>
</svg>
