<?xml version="1.0" encoding="UTF-8" standalone="no"?>
<!DOCTYPE svg PUBLIC "-//W3C//DTD SVG 1.1//EN"
 "http://www.w3.org/Graphics/SVG/1.1/DTD/svg11.dtd">
<!-- Generated by graphviz version 2.40.1 (20161225.0304)
 -->
<!-- Title: a_graph Pages: 1 -->
<svg width="3294pt" height="119pt"
 viewBox="0.00 0.00 3294.00 119.00" xmlns="http://www.w3.org/2000/svg" xmlns:xlink="http://www.w3.org/1999/xlink">
<g id="graph0" class="graph" transform="scale(1 1) rotate(0) translate(4 115)">
<title>a_graph</title>
<polygon fill="#ffffff" stroke="transparent" points="-4,4 -4,-115 3290,-115 3290,4 -4,4"/>
<!-- T19538 -->
<g id="node1" class="node">
<title>T19538</title>
<polygon fill="none" stroke="#0058ad" points="0,-81.5 0,-110.5 3286,-110.5 3286,-81.5 0,-81.5"/>
<text text-anchor="middle" x="348.5" y="-92.3" font-family="Times,serif" font-size="14.00" fill="#0058ad">r 100 [3 4 5 6 7 8 9 10 11 12 13 14 15 16 17 18 19 20 21 22 23 24 25 26 27 28 29 32 33 30 31 34 35 36 37 39 40 41 38 42]</text>
<polyline fill="none" stroke="#0058ad" points="697,-81.5 697,-110.5 "/>
<text text-anchor="middle" x="1059.5" y="-92.3" font-family="Times,serif" font-size="14.00" fill="#0058ad">r 99 [1 2 3 6 7 8 9 10 12 13 14 15 16 17 18 19 20 21 22 23 24 25 26 27 28 29 30 31 32 33 34 35 36 37 38 39 40 41 42 43 44 45]</text>
<polyline fill="none" stroke="#0058ad" points="1422,-81.5 1422,-110.5 "/>
<text text-anchor="middle" x="2325.5" y="-92.3" font-family="Times,serif" font-size="14.00" fill="#0058ad">r 93 [1 3 4 5 6 7 8 9 10 11 12 13 15 16 17 19 20 21 22 23 24 26 27 25 28 30 32 33 29 34 35 36 37 38 39 40 41 42 43 44 45 46 47 48 49 50 51 52 53 54 55 56 57 58 59 60 61 62 63 64 65 66 67 68 69 70 71 72 73 74 75 76 77 78 79 80 81 82 83 84 86 87 88 89 90 91 92 93 94 95 96 97 98 99 100 101 102 103 104 105 106 107]</text>
<polyline fill="none" stroke="#0058ad" points="3229,-81.5 3229,-110.5 "/>
<text text-anchor="middle" x="3257.5" y="-92.3" font-family="Times,serif" font-size="14.00" fill="#0058ad">a 99 46</text>
</g>
<!-- T19539 -->
<g id="node2" class="node">
<title>T19539</title>
<polygon fill="none" stroke="#0058ad" points="525.5,-.5 525.5,-29.5 2092.5,-29.5 2092.5,-.5 525.5,-.5"/>
<text text-anchor="middle" x="888" y="-11.3" font-family="Times,serif" font-size="14.00" fill="#0058ad">r 99 [1 2 3 6 7 8 9 10 12 13 14 15 16 17 18 19 20 21 22 23 24 25 26 27 28 29 30 31 32 33 34 35 36 37 38 39 40 41 42 43 44 45]</text>
<polyline fill="none" stroke="#0058ad" points="1250.5,-.5 1250.5,-29.5 "/>
<text text-anchor="middle" x="1282.5" y="-11.3" font-family="Times,serif" font-size="14.00" fill="#0058ad">a 100 43</text>
<polyline fill="none" stroke="#0058ad" points="1314.5,-.5 1314.5,-29.5 "/>
<text text-anchor="middle" x="1671.5" y="-11.3" font-family="Times,serif" font-size="14.00" fill="#0058ad">r 100 [3 4 5 6 7 8 9 10 11 12 13 14 15 16 17 18 19 20 21 22 23 24 25 26 27 28 29 32 33 30 31 34 35 36 37 39 40 41 38 42 43]</text>
<polyline fill="none" stroke="#0058ad" points="2028.5,-.5 2028.5,-29.5 "/>
<text text-anchor="middle" x="2060.5" y="-11.3" font-family="Times,serif" font-size="14.00" fill="#0058ad">a 67 125</text>
</g>
<!-- T19538&#45;&gt;T19539 -->
<g id="edge1" class="edge">
<title>T19538:f0&#45;&gt;T19539:f1</title>
<path fill="none" stroke="#5b00c0" d="M348,-81C348,123.3124 1250.349,-225.5656 1281.191,-40.1611"/>
<polygon fill="#5b00c0" stroke="#5b00c0" points="1284.6952,-40.2463 1282,-30 1277.7173,-39.6906 1284.6952,-40.2463"/>
<text text-anchor="middle" x="1285.5" y="-51.8" font-family="Times,serif" font-size="14.00" fill="#5b00c0">rw</text>
</g>
<!-- T19539&#45;&gt;T19538 -->
<g id="edge2" class="edge">
<title>T19539:f0&#45;&gt;T19538:f3</title>
<path fill="none" stroke="#5b00c0" d="M888,-30C888,-61.7025 3085.3653,-49.112 3248.451,-77.5271"/>
<polygon fill="#5b00c0" stroke="#5b00c0" points="3247.4059,-80.8712 3258,-81 3249.7985,-74.2928 3247.4059,-80.8712"/>
<text text-anchor="middle" x="2811.5" y="-51.8" font-family="Times,serif" font-size="14.00" fill="#5b00c0">rw</text>
</g>
</g>
</svg>
