<?xml version="1.0" encoding="UTF-8" standalone="no"?>
<!DOCTYPE svg PUBLIC "-//W3C//DTD SVG 1.1//EN"
 "http://www.w3.org/Graphics/SVG/1.1/DTD/svg11.dtd">
<!-- Generated by graphviz version 2.40.1 (20161225.0304)
 -->
<!-- Title: a_graph Pages: 1 -->
<svg width="3159pt" height="200pt"
 viewBox="0.00 0.00 3159.00 200.00" xmlns="http://www.w3.org/2000/svg" xmlns:xlink="http://www.w3.org/1999/xlink">
<g id="graph0" class="graph" transform="scale(1 1) rotate(0) translate(4 196)">
<title>a_graph</title>
<polygon fill="#ffffff" stroke="transparent" points="-4,4 -4,-196 3155,-196 3155,4 -4,4"/>
<!-- T20787 -->
<g id="node1" class="node">
<title>T20787</title>
<polygon fill="none" stroke="#0058ad" points="0,-162.5 0,-191.5 2796,-191.5 2796,-162.5 0,-162.5"/>
<text text-anchor="middle" x="1090" y="-173.3" font-family="Times,serif" font-size="14.00" fill="#0058ad">r 104 [1 2 3 5 6 7 8 9 10 11 12 13 14 15 16 17 19 18 22 23 21 24 25 28 29 26 27 30 31 32 33 34 35 36 37 38 39 40 41 42 43 44 45 46 47 49 48 50 51 52 53 54 55 56 57 58 59 60 61 62 63 64 65 67 68 66 70 72 73 71 74 75 78 76 77 79 80 81 82 84 85 86 83 87 88 90 91 92 93 94 96 97 99 100 103 104 101 102 106 105 108 109 110 111 112 113 115 116 117 114 118 119 120 121 122 123 124]</text>
<polyline fill="none" stroke="#0058ad" points="2180,-162.5 2180,-191.5 "/>
<text text-anchor="middle" x="2456" y="-173.3" font-family="Times,serif" font-size="14.00" fill="#0058ad">r 106 [2 3 5 4 6 7 8 11 9 10 15 16 17 18 19 20 22 21 23 25 26 27 28 24 30 29 31 32 33 34 35 36]</text>
<polyline fill="none" stroke="#0058ad" points="2732,-162.5 2732,-191.5 "/>
<text text-anchor="middle" x="2764" y="-173.3" font-family="Times,serif" font-size="14.00" fill="#0058ad">a 106 37</text>
</g>
<!-- T20789 -->
<g id="node2" class="node">
<title>T20789</title>
<polygon fill="none" stroke="#0058ad" points="448.5,-81.5 448.5,-110.5 1459.5,-110.5 1459.5,-81.5 448.5,-81.5"/>
<text text-anchor="middle" x="954" y="-92.3" font-family="Times,serif" font-size="14.00" fill="#0058ad">r 101 [1 2 3 4 5 6 7 8 9 10 11 12 13 14 16 17 18 19 20 22 23 24 25 26 27 28 29 30 31 32 33 34 35 36 37 38 39 40 41 42 43 44 45 46 47 48 50 51 52 53 54 55 56 57 58 59 60 61 62]</text>
</g>
<!-- T20787&#45;&gt;T20789 -->
<g id="edge1" class="edge">
<title>T20787&#45;&gt;T20789</title>
<path fill="none" stroke="#0050c0" d="M1318.3654,-162.4721C1241.186,-148.392 1124.2993,-127.0681 1043.8363,-112.3891"/>
<polygon fill="#0050c0" stroke="#0050c0" points="1044.1838,-108.8947 1033.7179,-110.5431 1042.9274,-115.7811 1044.1838,-108.8947"/>
<text text-anchor="middle" x="1220.5" y="-132.8" font-family="Times,serif" font-size="14.00" fill="#0050c0">rt</text>
</g>
<!-- T20793 -->
<g id="node3" class="node">
<title>T20793</title>
<polygon fill="none" stroke="#0058ad" points="291,-.5 291,-29.5 3151,-29.5 3151,-.5 291,-.5"/>
<text text-anchor="middle" x="323" y="-11.3" font-family="Times,serif" font-size="14.00" fill="#0058ad">a 101 63</text>
<polyline fill="none" stroke="#0058ad" points="355,-.5 355,-29.5 "/>
<text text-anchor="middle" x="1445" y="-11.3" font-family="Times,serif" font-size="14.00" fill="#0058ad">r 104 [1 2 3 5 6 7 8 9 10 11 12 13 14 15 16 17 19 18 22 23 21 24 25 28 29 26 27 30 31 32 33 34 35 36 37 38 39 40 41 42 43 44 45 46 47 49 48 50 51 52 53 54 55 56 57 58 59 60 61 62 63 64 65 67 68 66 70 72 73 71 74 75 78 76 77 79 80 81 82 84 85 86 83 87 88 90 91 92 93 94 96 97 99 100 103 104 101 102 106 105 108 109 110 111 112 113 115 116 117 114 118 119 120 121 122 123 124]</text>
<polyline fill="none" stroke="#0058ad" points="2535,-.5 2535,-29.5 "/>
<text text-anchor="middle" x="2567" y="-11.3" font-family="Times,serif" font-size="14.00" fill="#0058ad">a 101 64</text>
<polyline fill="none" stroke="#0058ad" points="2599,-.5 2599,-29.5 "/>
<text text-anchor="middle" x="2875" y="-11.3" font-family="Times,serif" font-size="14.00" fill="#0058ad">r 106 [2 3 5 4 6 7 8 11 9 10 15 16 17 18 19 20 22 21 23 25 26 27 28 24 30 29 31 32 33 34 35 36]</text>
</g>
<!-- T20789&#45;&gt;T20793 -->
<g id="edge2" class="edge">
<title>T20789:f0&#45;&gt;T20793:f0</title>
<path fill="none" stroke="#5b00c0" d="M518.331,-81.4857C423.0502,-73.1065 344.9605,-59.948 326.9268,-39.3104"/>
<polygon fill="#5b00c0" stroke="#5b00c0" points="330.1111,-37.8538 323,-30 323.6613,-40.5742 330.1111,-37.8538"/>
<text text-anchor="middle" x="384.5" y="-51.8" font-family="Times,serif" font-size="14.00" fill="#5b00c0">rw</text>
</g>
<!-- T20793&#45;&gt;T20787 -->
<g id="edge3" class="edge">
<title>T20793:f3&#45;&gt;T20787:f2</title>
<path fill="none" stroke="#5b00c0" d="M2875,-30C2875,-100.5487 2870.6304,-169.8845 2806.3763,-176.4874"/>
<polygon fill="#5b00c0" stroke="#5b00c0" points="2805.8151,-173.0108 2796,-177 2806.1605,-180.0022 2805.8151,-173.0108"/>
<text text-anchor="middle" x="2880.5" y="-92.3" font-family="Times,serif" font-size="14.00" fill="#5b00c0">rw</text>
</g>
</g>
</svg>
