<?xml version="1.0" encoding="UTF-8" standalone="no"?>
<!DOCTYPE svg PUBLIC "-//W3C//DTD SVG 1.1//EN"
 "http://www.w3.org/Graphics/SVG/1.1/DTD/svg11.dtd">
<!-- Generated by graphviz version 2.40.1 (20161225.0304)
 -->
<!-- Title: a_graph Pages: 1 -->
<svg width="673pt" height="200pt"
 viewBox="0.00 0.00 672.50 200.00" xmlns="http://www.w3.org/2000/svg" xmlns:xlink="http://www.w3.org/1999/xlink">
<g id="graph0" class="graph" transform="scale(1 1) rotate(0) translate(4 196)">
<title>a_graph</title>
<polygon fill="#ffffff" stroke="transparent" points="-4,4 -4,-196 668.5,-196 668.5,4 -4,4"/>
<!-- T16587 -->
<g id="node1" class="node">
<title>T16587</title>
<polygon fill="none" stroke="#0058ad" points="214.5,-162.5 214.5,-191.5 268.5,-191.5 268.5,-162.5 214.5,-162.5"/>
<text text-anchor="middle" x="241.5" y="-173.3" font-family="Times,serif" font-size="14.00" fill="#0058ad">a 88 5</text>
</g>
<!-- T16589 -->
<g id="node3" class="node">
<title>T16589</title>
<polygon fill="none" stroke="#0058ad" points="0,-81.5 0,-110.5 297,-110.5 297,-81.5 0,-81.5"/>
<text text-anchor="middle" x="148.5" y="-92.3" font-family="Times,serif" font-size="14.00" fill="#0058ad">r 87 [2 3 4 1 5 7 8 9 10 11 12 14 15 13 6 16 17 18]</text>
</g>
<!-- T16587&#45;&gt;T16589 -->
<g id="edge1" class="edge">
<title>T16587&#45;&gt;T16589</title>
<path fill="none" stroke="#0050c0" d="M224.4424,-162.1434C210.153,-149.6978 189.5622,-131.7638 173.4252,-117.709"/>
<polygon fill="#0050c0" stroke="#0050c0" points="175.2891,-114.691 165.4495,-110.7625 170.6916,-119.9696 175.2891,-114.691"/>
<text text-anchor="middle" x="208" y="-132.8" font-family="Times,serif" font-size="14.00" fill="#0050c0">rt</text>
</g>
<!-- T16591 -->
<g id="node2" class="node">
<title>T16591</title>
<polygon fill="none" stroke="#0058ad" points="204.5,-.5 204.5,-29.5 664.5,-29.5 664.5,-.5 204.5,-.5"/>
<text text-anchor="middle" x="233" y="-11.3" font-family="Times,serif" font-size="14.00" fill="#0058ad">a 87 19</text>
<polyline fill="none" stroke="#0058ad" points="261.5,-.5 261.5,-29.5 "/>
<text text-anchor="middle" x="306" y="-11.3" font-family="Times,serif" font-size="14.00" fill="#0058ad">r 88 [1 3 4 2]</text>
<polyline fill="none" stroke="#0058ad" points="350.5,-.5 350.5,-29.5 "/>
<text text-anchor="middle" x="507.5" y="-11.3" font-family="Times,serif" font-size="14.00" fill="#0058ad">r 87 [2 3 4 1 5 7 8 9 10 11 12 14 15 13 6 16 17 18 19]</text>
</g>
<!-- T16591&#45;&gt;T16587 -->
<g id="edge2" class="edge">
<title>T16591:f1&#45;&gt;T16587:f0</title>
<path fill="none" stroke="#5b00c0" d="M305.5,-30C305.5,-66 319.0204,-77.6354 305.5,-111 298.3517,-128.64 283.9758,-144.1672 270.6569,-155.7221"/>
<polygon fill="#5b00c0" stroke="#5b00c0" points="268.0632,-153.3244 262.5747,-162.3868 272.5166,-158.7251 268.0632,-153.3244"/>
<text text-anchor="middle" x="320" y="-92.3" font-family="Times,serif" font-size="14.00" fill="#5b00c0">rw</text>
</g>
<!-- T16589&#45;&gt;T16591 -->
<g id="edge3" class="edge">
<title>T16589:f0&#45;&gt;T16591:f0</title>
<path fill="none" stroke="#5b00c0" d="M151.6387,-81.1434C156.8787,-60.4083 169.3868,-24.439 194.3235,-16.5558"/>
<polygon fill="#5b00c0" stroke="#5b00c0" points="195.1438,-19.9712 204.5,-15 194.0859,-13.0516 195.1438,-19.9712"/>
<text text-anchor="middle" x="171" y="-51.8" font-family="Times,serif" font-size="14.00" fill="#5b00c0">rw</text>
</g>
</g>
</svg>
