<?xml version="1.0" encoding="UTF-8" standalone="no"?>
<!DOCTYPE svg PUBLIC "-//W3C//DTD SVG 1.1//EN"
 "http://www.w3.org/Graphics/SVG/1.1/DTD/svg11.dtd">
<!-- Generated by graphviz version 2.40.1 (20161225.0304)
 -->
<!-- Title: a_graph Pages: 1 -->
<svg width="3713pt" height="200pt"
 viewBox="0.00 0.00 3712.50 200.00" xmlns="http://www.w3.org/2000/svg" xmlns:xlink="http://www.w3.org/1999/xlink">
<g id="graph0" class="graph" transform="scale(1 1) rotate(0) translate(4 196)">
<title>a_graph</title>
<polygon fill="#ffffff" stroke="transparent" points="-4,4 -4,-196 3708.5,-196 3708.5,4 -4,4"/>
<!-- T12909 -->
<g id="node1" class="node">
<title>T12909</title>
<polygon fill="none" stroke="#0058ad" points="1188,-162.5 1188,-191.5 2679,-191.5 2679,-162.5 1188,-162.5"/>
<text text-anchor="middle" x="1933.5" y="-173.3" font-family="Times,serif" font-size="14.00" fill="#0058ad">r 68 [1 2 3 4 5 6 7 8 9 10 11 12 13 14 15 16 17 19 20 21 22 18 23 24 25 26 27 28 29 30 31 32 33 34 35 36 38 39 40 41 42 43 45 46 47 48 49 50 51 52 53 54 55 56 57 58 59 97 102 103 105 107 104 108 110 111 112 115 116 117 118 114 119 121 122 123 124 125 128]</text>
</g>
<!-- T12915 -->
<g id="node2" class="node">
<title>T12915</title>
<polygon fill="none" stroke="#0058ad" points="2296.5,-81.5 2296.5,-110.5 3704.5,-110.5 3704.5,-81.5 2296.5,-81.5"/>
<text text-anchor="middle" x="2328.5" y="-92.3" font-family="Times,serif" font-size="14.00" fill="#0058ad">a 68 126</text>
<polyline fill="none" stroke="#0058ad" points="2360.5,-81.5 2360.5,-110.5 "/>
<text text-anchor="middle" x="3000.5" y="-92.3" font-family="Times,serif" font-size="14.00" fill="#0058ad">r 66 [1 2 3 4 5 6 7 8 9 10 11 12 13 14 15 16 17 18 20 21 22 23 24 25 26 27 28 29 30 31 32 33 34 36 37 38 39 41 42 43 44 45 46 47 48 49 50 51 52 53 54 55 56 57 58 59 60 61 62 63 64 66 67 68 69 70 83 90 89 91 92 93 96 97 98]</text>
<polyline fill="none" stroke="#0058ad" points="3640.5,-81.5 3640.5,-110.5 "/>
<text text-anchor="middle" x="3672.5" y="-92.3" font-family="Times,serif" font-size="14.00" fill="#0058ad">a 68 127</text>
</g>
<!-- T12909&#45;&gt;T12915 -->
<g id="edge1" class="edge">
<title>T12909:f0&#45;&gt;T12915:f0</title>
<path fill="none" stroke="#5b00c0" d="M1972.3449,-162.4253C2036.2257,-139.7653 2168.1654,-98.4256 2286.2155,-96.1023"/>
<polygon fill="#5b00c0" stroke="#5b00c0" points="2286.5353,-99.5994 2296.5,-96 2286.4657,-92.5997 2286.5353,-99.5994"/>
<text text-anchor="middle" x="2086" y="-132.8" font-family="Times,serif" font-size="14.00" fill="#5b00c0">rw</text>
</g>
<!-- T12907 -->
<g id="node3" class="node">
<title>T12907</title>
<polygon fill="none" stroke="#0058ad" points="0,-.5 0,-29.5 3131,-29.5 3131,-.5 0,-.5"/>
<text text-anchor="middle" x="791.5" y="-11.3" font-family="Times,serif" font-size="14.00" fill="#0058ad">r 62 [1 2 3 4 5 6 7 8 9 10 11 12 13 14 15 16 18 19 20 21 22 23 24 25 26 27 28 29 30 31 32 34 35 36 37 38 39 40 41 42 43 44 45 46 48 49 50 51 52 53 54 55 56 57 58 59 61 62 63 64 65 66 68 72 73 74 75 76 77 78 79 80 81 82 83 84 85 86 87 88 89 90 92 93 94 95 96 101 103 104 106]</text>
<polyline fill="none" stroke="#0058ad" points="1583,-.5 1583,-29.5 "/>
<text text-anchor="middle" x="2328.5" y="-11.3" font-family="Times,serif" font-size="14.00" fill="#0058ad">r 68 [1 2 3 4 5 6 7 8 9 10 11 12 13 14 15 16 17 19 20 21 22 18 23 24 25 26 27 28 29 30 31 32 33 34 35 36 38 39 40 41 42 43 45 46 47 48 49 50 51 52 53 54 55 56 57 58 59 97 102 103 105 107 104 108 110 111 112 115 116 117 118 114 119 121 122 123 124 125 128]</text>
<polyline fill="none" stroke="#0058ad" points="3074,-.5 3074,-29.5 "/>
<text text-anchor="middle" x="3102.5" y="-11.3" font-family="Times,serif" font-size="14.00" fill="#0058ad">a 66 99</text>
</g>
<!-- T12915&#45;&gt;T12907 -->
<g id="edge2" class="edge">
<title>T12915:f1&#45;&gt;T12907:f2</title>
<path fill="none" stroke="#5b00c0" d="M3000.5,-81C3000.5,-34.2755 3087.1851,-73.4309 3100.7296,-40.1252"/>
<polygon fill="#5b00c0" stroke="#5b00c0" points="3104.2252,-40.4534 3102.5,-30 3097.3298,-39.2477 3104.2252,-40.4534"/>
<text text-anchor="middle" x="3101" y="-51.8" font-family="Times,serif" font-size="14.00" fill="#5b00c0">rw</text>
</g>
<!-- T12907&#45;&gt;T12909 -->
<g id="edge3" class="edge">
<title>T12907&#45;&gt;T12909</title>
<path fill="none" stroke="#0050c0" d="M1598.5397,-29.5447C1665.4485,-58.9991 1816.888,-125.6654 1891.0162,-158.2979"/>
<polygon fill="#0050c0" stroke="#0050c0" points="1889.956,-161.6553 1900.5186,-162.481 1892.7764,-155.2486 1889.956,-161.6553"/>
<text text-anchor="middle" x="1784" y="-92.3" font-family="Times,serif" font-size="14.00" fill="#0050c0">rt</text>
</g>
<!-- T12907&#45;&gt;T12915 -->
<g id="edge4" class="edge">
<title>T12907:f1&#45;&gt;T12915:f0</title>
<path fill="none" stroke="#5b00c0" d="M2328.5,-30C2328.5,-48.7708 2328.5,-55.8832 2328.5,-70.6465"/>
<polygon fill="#5b00c0" stroke="#5b00c0" points="2325.0001,-71 2328.5,-81 2332.0001,-71 2325.0001,-71"/>
<text text-anchor="middle" x="2336" y="-51.8" font-family="Times,serif" font-size="14.00" fill="#5b00c0">rw</text>
</g>
</g>
</svg>
