<?xml version="1.0" encoding="UTF-8" standalone="no"?>
<!DOCTYPE svg PUBLIC "-//W3C//DTD SVG 1.1//EN"
 "http://www.w3.org/Graphics/SVG/1.1/DTD/svg11.dtd">
<!-- Generated by graphviz version 2.40.1 (20161225.0304)
 -->
<!-- Title: a_graph Pages: 1 -->
<svg width="2190pt" height="200pt"
 viewBox="0.00 0.00 2190.00 200.00" xmlns="http://www.w3.org/2000/svg" xmlns:xlink="http://www.w3.org/1999/xlink">
<g id="graph0" class="graph" transform="scale(1 1) rotate(0) translate(4 196)">
<title>a_graph</title>
<polygon fill="#ffffff" stroke="transparent" points="-4,4 -4,-196 2186,-196 2186,4 -4,4"/>
<!-- T17219 -->
<g id="node1" class="node">
<title>T17219</title>
<polygon fill="none" stroke="#0058ad" points="45.5,-162.5 45.5,-191.5 1539.5,-191.5 1539.5,-162.5 45.5,-162.5"/>
<text text-anchor="middle" x="792.5" y="-173.3" font-family="Times,serif" font-size="14.00" fill="#0058ad">r 86 [1 2 3 4 5 6 7 9 10 11 12 13 14 15 8 16 17 18 19 20 25 26 27 28 29 31 30 35 36 38 39 40 41 42 43 45 46 47 48 49 51 53 50 54 55 56 58 57 59 60 62 63 64 65 66 67 68 69 71 72 74 73 75 76 77 78 79 80 81 82 83 84 85 86 88 89 90 91 92 93 94 95 96 97 98 99 100]</text>
</g>
<!-- T17223 -->
<g id="node2" class="node">
<title>T17223</title>
<polygon fill="none" stroke="#0058ad" points="803,-81.5 803,-110.5 2182,-110.5 2182,-81.5 803,-81.5"/>
<text text-anchor="middle" x="1460.5" y="-92.3" font-family="Times,serif" font-size="14.00" fill="#0058ad">r 89 [1 2 3 4 5 6 7 8 9 10 11 12 13 14 15 17 18 19 20 16 21 22 23 24 25 27 28 29 30 26 31 32 33 34 35 36 37 38 39 40 44 42 43 45 46 41 47 48 49 50 51 52 53 54 55 56 57 63 58 59 65 66 67 68 69 70 71 72 73 74 75 76 77 78 79 80 81]</text>
<polyline fill="none" stroke="#0058ad" points="2118,-81.5 2118,-110.5 "/>
<text text-anchor="middle" x="2150" y="-92.3" font-family="Times,serif" font-size="14.00" fill="#0058ad">a 86 101</text>
</g>
<!-- T17219&#45;&gt;T17223 -->
<g id="edge1" class="edge">
<title>T17219:f0&#45;&gt;T17223:f1</title>
<path fill="none" stroke="#5b00c0" d="M1340.4472,-162.4928C1685.794,-151.6112 2078.1575,-135.3532 2141.6265,-116.307"/>
<polygon fill="#5b00c0" stroke="#5b00c0" points="2143.7143,-119.1366 2150.5,-111 2140.1213,-113.1291 2143.7143,-119.1366"/>
<text text-anchor="middle" x="2041" y="-132.8" font-family="Times,serif" font-size="14.00" fill="#5b00c0">rw</text>
</g>
<!-- T17217 -->
<g id="node3" class="node">
<title>T17217</title>
<polygon fill="none" stroke="#0058ad" points="0,-.5 0,-29.5 1551,-29.5 1551,-.5 0,-.5"/>
<text text-anchor="middle" x="747" y="-11.3" font-family="Times,serif" font-size="14.00" fill="#0058ad">r 86 [1 2 3 4 5 6 7 9 10 11 12 13 14 15 8 16 17 18 19 20 25 26 27 28 29 31 30 35 36 38 39 40 41 42 43 45 46 47 48 49 51 53 50 54 55 56 58 57 59 60 62 63 64 65 66 67 68 69 71 72 74 73 75 76 77 78 79 80 81 82 83 84 85 86 88 89 90 91 92 93 94 95 96 97 98 99 100]</text>
<polyline fill="none" stroke="#0058ad" points="1494,-.5 1494,-29.5 "/>
<text text-anchor="middle" x="1522.5" y="-11.3" font-family="Times,serif" font-size="14.00" fill="#0058ad">a 89 82</text>
</g>
<!-- T17223&#45;&gt;T17217 -->
<g id="edge2" class="edge">
<title>T17223:f0&#45;&gt;T17217:f1</title>
<path fill="none" stroke="#5b00c0" d="M1460.5,-81C1460.5,-49.2222 1509.6792,-61.8969 1520.4371,-39.843"/>
<polygon fill="#5b00c0" stroke="#5b00c0" points="1523.8743,-40.5053 1522.5,-30 1517.0232,-39.0694 1523.8743,-40.5053"/>
<text text-anchor="middle" x="1519" y="-51.8" font-family="Times,serif" font-size="14.00" fill="#5b00c0">rw</text>
</g>
<!-- T17217&#45;&gt;T17219 -->
<g id="edge4" class="edge">
<title>T17217&#45;&gt;T17219</title>
<path fill="none" stroke="#0050c0" d="M777.0162,-29.6385C778.9681,-48.4639 782.4695,-82.1695 785.5,-111 786.9347,-124.6493 788.5497,-139.8848 789.8666,-152.2758"/>
<polygon fill="#0050c0" stroke="#0050c0" points="786.397,-152.7475 790.9352,-162.3212 793.3577,-152.007 786.397,-152.7475"/>
<text text-anchor="middle" x="790" y="-92.3" font-family="Times,serif" font-size="14.00" fill="#0050c0">rt</text>
</g>
<!-- T17217&#45;&gt;T17223 -->
<g id="edge3" class="edge">
<title>T17217:f0&#45;&gt;T17223:f1</title>
<path fill="none" stroke="#5b00c0" d="M746.5,-30C746.5,-108.4191 1373.1324,-60.1572 1451.5,-63 1469.5645,-63.6553 2059.4338,-61.8583 2141.1453,-77.2625"/>
<polygon fill="#5b00c0" stroke="#5b00c0" points="2139.9151,-80.54 2150.5,-81 2142.5123,-74.0396 2139.9151,-80.54"/>
<text text-anchor="middle" x="1459" y="-51.8" font-family="Times,serif" font-size="14.00" fill="#5b00c0">rw</text>
</g>
</g>
</svg>
