<?xml version="1.0" encoding="UTF-8" standalone="no"?>
<!DOCTYPE svg PUBLIC "-//W3C//DTD SVG 1.1//EN"
 "http://www.w3.org/Graphics/SVG/1.1/DTD/svg11.dtd">
<!-- Generated by graphviz version 2.40.1 (20161225.0304)
 -->
<!-- Title: a_graph Pages: 1 -->
<svg width="5652pt" height="119pt"
 viewBox="0.00 0.00 5651.50 119.00" xmlns="http://www.w3.org/2000/svg" xmlns:xlink="http://www.w3.org/1999/xlink">
<g id="graph0" class="graph" transform="scale(1 1) rotate(0) translate(4 115)">
<title>a_graph</title>
<polygon fill="#ffffff" stroke="transparent" points="-4,4 -4,-115 5647.5,-115 5647.5,4 -4,4"/>
<!-- T37141 -->
<g id="node1" class="node">
<title>T37141</title>
<polygon fill="none" stroke="#0058ad" points="2262.5,-81.5 2262.5,-110.5 4748.5,-110.5 4748.5,-81.5 2262.5,-81.5"/>
<text text-anchor="middle" x="2294.5" y="-92.3" font-family="Times,serif" font-size="14.00" fill="#0058ad">a 184 73</text>
<polyline fill="none" stroke="#0058ad" points="2326.5,-81.5 2326.5,-110.5 "/>
<text text-anchor="middle" x="3175" y="-92.3" font-family="Times,serif" font-size="14.00" fill="#0058ad">r 181 [1 4 6 5 2 3 7 10 11 12 13 15 14 17 18 19 20 21 22 23 24 25 27 28 29 26 32 31 33 34 35 36 37 38 40 39 41 42 43 44 45 46 47 48 49 50 51 52 53 54 55 58 56 57 59 60 63 64 61 62 65 66 69 67 68 70 71 72 74 73 75 76 78 79 80 77 82 84 85 88 87 89 90 92 93 94 95 96 97 98 99 100 101 102 103 104]</text>
<polyline fill="none" stroke="#0058ad" points="4023.5,-81.5 4023.5,-110.5 "/>
<text text-anchor="middle" x="4386" y="-92.3" font-family="Times,serif" font-size="14.00" fill="#0058ad">r 182 [2 3 4 5 7 6 8 9 10 11 12 13 14 15 16 17 18 19 20 21 22 23 24 25 26 28 29 30 31 32 33 34 35 36 37 38 39 40 41 43 42 44]</text>
</g>
<!-- T37143 -->
<g id="node2" class="node">
<title>T37143</title>
<polygon fill="none" stroke="#0058ad" points="3719.5,-.5 3719.5,-29.5 5643.5,-29.5 5643.5,-.5 3719.5,-.5"/>
<text text-anchor="middle" x="4278.5" y="-11.3" font-family="Times,serif" font-size="14.00" fill="#0058ad">r 184 [4 5 8 9 10 6 7 11 12 13 17 19 20 14 15 16 21 18 23 26 27 28 29 32 33 34 35 30 37 36 38 39 40 41 43 42 44 45 46 47 48 50 52 53 54 55 56 51 57 58 59 61 60 62 63 64 65 66 67 68 69 71 70 72]</text>
<polyline fill="none" stroke="#0058ad" points="4837.5,-.5 4837.5,-29.5 "/>
<text text-anchor="middle" x="4869.5" y="-11.3" font-family="Times,serif" font-size="14.00" fill="#0058ad">a 182 45</text>
<polyline fill="none" stroke="#0058ad" points="4901.5,-.5 4901.5,-29.5 "/>
<text text-anchor="middle" x="5272.5" y="-11.3" font-family="Times,serif" font-size="14.00" fill="#0058ad">r 182 [2 3 4 5 7 6 8 9 10 11 12 13 14 15 16 17 18 19 20 21 22 23 24 25 26 28 29 30 31 32 33 34 35 36 37 38 39 40 41 43 42 44 45]</text>
</g>
<!-- T37141&#45;&gt;T37143 -->
<g id="edge2" class="edge">
<title>T37141:f2&#45;&gt;T37143:f1</title>
<path fill="none" stroke="#5b00c0" d="M4748.5,-96C4806.1683,-96 4862.4937,-91.7971 4868.8964,-40.1963"/>
<polygon fill="#5b00c0" stroke="#5b00c0" points="4872.4028,-40.1894 4869.5,-30 4865.4151,-39.7757 4872.4028,-40.1894"/>
<text text-anchor="middle" x="4874" y="-51.8" font-family="Times,serif" font-size="14.00" fill="#5b00c0">rw</text>
</g>
<!-- T37145 -->
<g id="node3" class="node">
<title>T37145</title>
<polygon fill="none" stroke="#0058ad" points="0,-.5 0,-29.5 3701,-29.5 3701,-.5 0,-.5"/>
<text text-anchor="middle" x="559" y="-11.3" font-family="Times,serif" font-size="14.00" fill="#0058ad">r 184 [4 5 8 9 10 6 7 11 12 13 17 19 20 14 15 16 21 18 23 26 27 28 29 32 33 34 35 30 37 36 38 39 40 41 43 42 44 45 46 47 48 50 52 53 54 55 56 51 57 58 59 61 60 62 63 64 65 66 67 68 69 71 70 72]</text>
<polyline fill="none" stroke="#0058ad" points="1118,-.5 1118,-29.5 "/>
<text text-anchor="middle" x="1677" y="-11.3" font-family="Times,serif" font-size="14.00" fill="#0058ad">r 184 [4 5 8 9 10 6 7 11 12 13 17 19 20 14 15 16 21 18 23 26 27 28 29 32 33 34 35 30 37 36 38 39 40 41 43 42 44 45 46 47 48 50 52 53 54 55 56 51 57 58 59 61 60 62 63 64 65 66 67 68 69 71 70 72]</text>
<polyline fill="none" stroke="#0058ad" points="2236,-.5 2236,-29.5 "/>
<text text-anchor="middle" x="2271.5" y="-11.3" font-family="Times,serif" font-size="14.00" fill="#0058ad">a 181 105</text>
<polyline fill="none" stroke="#0058ad" points="2307,-.5 2307,-29.5 "/>
<text text-anchor="middle" x="3004" y="-11.3" font-family="Times,serif" font-size="14.00" fill="#0058ad">r 2 [1 2 3 4 5 6 7 8 9 10 11 12 13 14 15 16 17 18 19 20 21 22 23 24 25 26 27 28 29 30 31 32 33 34 35 36 38 39 40 41 42 43 44 45 46 48 49 50 51 52 53 54 55 56 57 58 59 60 61 62 63 64 65 66 67 68 69 70 71 72 73 74 75 76 77 78 79 81 82 83 84 85]</text>
</g>
<!-- T37141&#45;&gt;T37145 -->
<g id="edge1" class="edge">
<title>T37141:f1&#45;&gt;T37145:f2</title>
<path fill="none" stroke="#5b00c0" d="M3174.5,-81C3174.5,17.7172 2830.0584,-53.5975 2731.5,-48 2719.8551,-47.3386 2346.759,-43.5473 2281.2657,-33.1824"/>
<polygon fill="#5b00c0" stroke="#5b00c0" points="2282.0924,-29.7707 2271.5,-30 2279.9234,-36.4263 2282.0924,-29.7707"/>
<text text-anchor="middle" x="3175" y="-51.8" font-family="Times,serif" font-size="14.00" fill="#5b00c0">rw</text>
</g>
<!-- T37143&#45;&gt;T37141 -->
<g id="edge3" class="edge">
<title>T37143:f0&#45;&gt;T37141:f0</title>
<path fill="none" stroke="#5b00c0" d="M3719.5,-15C3711.7254,-15 3717.2305,-26.1084 3710.5,-30 3686.593,-43.8232 2744.0837,-46.6729 2716.5,-48 2672.7337,-50.1056 2344.2396,-36.1087 2299.5329,-72.2163"/>
<polygon fill="#5b00c0" stroke="#5b00c0" points="2296.4348,-70.5833 2294.5,-81 2302.5084,-74.0634 2296.4348,-70.5833"/>
<text text-anchor="middle" x="2724" y="-51.8" font-family="Times,serif" font-size="14.00" fill="#5b00c0">rw</text>
</g>
<!-- T37145&#45;&gt;T37141 -->
<g id="edge4" class="edge">
<title>T37145:f0&#45;&gt;T37141:f0</title>
<path fill="none" stroke="#5b00c0" d="M558.5,-30C558.5,-75.7498 2103.8203,-94.6928 2252.1332,-95.9343"/>
<polygon fill="#5b00c0" stroke="#5b00c0" points="2252.478,-99.4365 2262.5,-96 2252.5224,-92.4366 2252.478,-99.4365"/>
<text text-anchor="middle" x="844" y="-51.8" font-family="Times,serif" font-size="14.00" fill="#5b00c0">rw</text>
</g>
</g>
</svg>
