<?xml version="1.0" encoding="UTF-8" standalone="no"?>
<!DOCTYPE svg PUBLIC "-//W3C//DTD SVG 1.1//EN"
 "http://www.w3.org/Graphics/SVG/1.1/DTD/svg11.dtd">
<!-- Generated by graphviz version 2.40.1 (20161225.0304)
 -->
<!-- Title: a_graph Pages: 1 -->
<svg width="2739pt" height="119pt"
 viewBox="0.00 0.00 2739.00 119.00" xmlns="http://www.w3.org/2000/svg" xmlns:xlink="http://www.w3.org/1999/xlink">
<g id="graph0" class="graph" transform="scale(1 1) rotate(0) translate(4 115)">
<title>a_graph</title>
<polygon fill="#ffffff" stroke="transparent" points="-4,4 -4,-115 2735,-115 2735,4 -4,4"/>
<!-- T11744 -->
<g id="node1" class="node">
<title>T11744</title>
<polygon fill="none" stroke="#0058ad" points="0,-81.5 0,-110.5 2731,-110.5 2731,-81.5 0,-81.5"/>
<text text-anchor="middle" x="419.5" y="-92.3" font-family="Times,serif" font-size="14.00" fill="#0058ad">r 60 [2 3 4 5 6 7 8 9 10 11 12 13 14 16 17 18 19 20 21 24 25 22 23 26 27 28 29 30 31 32 33 34 35 36 37 38 39 40 41 42 43 44 45 46 47 48 49 50 51]</text>
<polyline fill="none" stroke="#0058ad" points="839,-81.5 839,-110.5 "/>
<text text-anchor="middle" x="867.5" y="-92.3" font-family="Times,serif" font-size="14.00" fill="#0058ad">a 60 52</text>
<polyline fill="none" stroke="#0058ad" points="896,-81.5 896,-110.5 "/>
<text text-anchor="middle" x="924.5" y="-92.3" font-family="Times,serif" font-size="14.00" fill="#0058ad">a 60 53</text>
<polyline fill="none" stroke="#0058ad" points="953,-81.5 953,-110.5 "/>
<text text-anchor="middle" x="1842" y="-92.3" font-family="Times,serif" font-size="14.00" fill="#0058ad">r 61 [1 2 3 6 10 11 12 13 14 15 16 17 18 19 20 21 22 23 24 25 26 27 28 29 31 32 34 35 37 38 39 40 41 42 36 43 44 47 48 49 50 51 52 53 54 55 56 57 58 59 60 61 62 63 64 65 66 67 68 69 70 71 72 73 74 75 76 77 78 79 80 81 82 83 84 85 86 87 88 89 90 91 92 93 94 97 98 99 100 101 102 103 104 105 107 106 109 108]</text>
</g>
<!-- T11743 -->
<g id="node2" class="node">
<title>T11743</title>
<polygon fill="none" stroke="#0058ad" points="1034,-.5 1034,-29.5 2065,-29.5 2065,-.5 1034,-.5"/>
<text text-anchor="middle" x="1066" y="-11.3" font-family="Times,serif" font-size="14.00" fill="#0058ad">a 51 108</text>
<polyline fill="none" stroke="#0058ad" points="1098,-.5 1098,-29.5 "/>
<text text-anchor="middle" x="1130" y="-11.3" font-family="Times,serif" font-size="14.00" fill="#0058ad">a 61 110</text>
<polyline fill="none" stroke="#0058ad" points="1162,-.5 1162,-29.5 "/>
<text text-anchor="middle" x="1581.5" y="-11.3" font-family="Times,serif" font-size="14.00" fill="#0058ad">r 60 [2 3 4 5 6 7 8 9 10 11 12 13 14 16 17 18 19 20 21 24 25 22 23 26 27 28 29 30 31 32 33 34 35 36 37 38 39 40 41 42 43 44 45 46 47 48 49 50 51]</text>
<polyline fill="none" stroke="#0058ad" points="2001,-.5 2001,-29.5 "/>
<text text-anchor="middle" x="2033" y="-11.3" font-family="Times,serif" font-size="14.00" fill="#0058ad">a 39 114</text>
</g>
<!-- T11744&#45;&gt;T11743 -->
<g id="edge1" class="edge">
<title>T11744:f3&#45;&gt;T11743:f1</title>
<path fill="none" stroke="#5b00c0" d="M1842.5,-81C1842.5,74.2814 1161.1696,-177.0833 1130.563,-40.0693"/>
<polygon fill="#5b00c0" stroke="#5b00c0" points="1134.0306,-39.5773 1129.5,-30 1127.0692,-40.3122 1134.0306,-39.5773"/>
<text text-anchor="middle" x="1842" y="-51.8" font-family="Times,serif" font-size="14.00" fill="#5b00c0">rw</text>
</g>
<!-- T11743&#45;&gt;T11744 -->
<g id="edge2" class="edge">
<title>T11743:f2&#45;&gt;T11744:f1</title>
<path fill="none" stroke="#5b00c0" d="M1581.5,-30C1581.5,-42.8986 1130.352,-46.9048 1117.5,-48 1009.4285,-57.2091 876.3881,25.4669 867.9255,-70.7798"/>
<polygon fill="#5b00c0" stroke="#5b00c0" points="864.4191,-70.863 867.5,-81 871.413,-71.1543 864.4191,-70.863"/>
<text text-anchor="middle" x="1125" y="-51.8" font-family="Times,serif" font-size="14.00" fill="#5b00c0">rw</text>
</g>
</g>
</svg>
