<?xml version="1.0" encoding="UTF-8" standalone="no"?>
<!DOCTYPE svg PUBLIC "-//W3C//DTD SVG 1.1//EN"
 "http://www.w3.org/Graphics/SVG/1.1/DTD/svg11.dtd">
<!-- Generated by graphviz version 2.40.1 (20161225.0304)
 -->
<!-- Title: a_graph Pages: 1 -->
<svg width="5038pt" height="119pt"
 viewBox="0.00 0.00 5038.00 119.00" xmlns="http://www.w3.org/2000/svg" xmlns:xlink="http://www.w3.org/1999/xlink">
<g id="graph0" class="graph" transform="scale(1 1) rotate(0) translate(4 115)">
<title>a_graph</title>
<polygon fill="#ffffff" stroke="transparent" points="-4,4 -4,-115 5034,-115 5034,4 -4,4"/>
<!-- T32459 -->
<g id="node1" class="node">
<title>T32459</title>
<polygon fill="none" stroke="#0058ad" points="781,-81.5 781,-110.5 5030,-110.5 5030,-81.5 781,-81.5"/>
<text text-anchor="middle" x="816.5" y="-92.3" font-family="Times,serif" font-size="14.00" fill="#0058ad">a 160 105</text>
<polyline fill="none" stroke="#0058ad" points="852,-81.5 852,-110.5 "/>
<text text-anchor="middle" x="884" y="-92.3" font-family="Times,serif" font-size="14.00" fill="#0058ad">a 152 80</text>
<polyline fill="none" stroke="#0058ad" points="916,-81.5 916,-110.5 "/>
<text text-anchor="middle" x="1944.5" y="-92.3" font-family="Times,serif" font-size="14.00" fill="#0058ad">r 131 [1 2 3 4 5 6 7 8 9 10 11 12 13 14 15 16 17 18 19 21 22 23 24 25 26 27 28 29 30 31 32 34 37 38 39 40 41 42 43 44 45 46 47 48 49 51 52 53 54 55 56 57 58 59 61 63 64 65 66 67 68 70 72 73 74 75 76 77 78 79 80 81 83 84 85 86 87 88 89 90 91 92 93 94 95 96 97 98 99 100 101 102 103 104 105 106 107 108 109 111 112 113 114 115 116 117 118 119 120 123 124]</text>
<polyline fill="none" stroke="#0058ad" points="2973,-81.5 2973,-110.5 "/>
<text text-anchor="middle" x="4001.5" y="-92.3" font-family="Times,serif" font-size="14.00" fill="#0058ad">r 131 [1 2 3 4 5 6 7 8 9 10 11 12 13 14 15 16 17 18 19 21 22 23 24 25 26 27 28 29 30 31 32 34 37 38 39 40 41 42 43 44 45 46 47 48 49 51 52 53 54 55 56 57 58 59 61 63 64 65 66 67 68 70 72 73 74 75 76 77 78 79 80 81 83 84 85 86 87 88 89 90 91 92 93 94 95 96 97 98 99 100 101 102 103 104 105 106 107 108 109 111 112 113 114 115 116 117 118 119 120 123 124]</text>
</g>
<!-- T32457 -->
<g id="node2" class="node">
<title>T32457</title>
<polygon fill="none" stroke="#0058ad" points="0,-.5 0,-29.5 1917,-29.5 1917,-.5 0,-.5"/>
<text text-anchor="middle" x="32" y="-11.3" font-family="Times,serif" font-size="14.00" fill="#0058ad">a 162 26</text>
<polyline fill="none" stroke="#0058ad" points="64,-.5 64,-29.5 "/>
<text text-anchor="middle" x="923" y="-11.3" font-family="Times,serif" font-size="14.00" fill="#0058ad">r 160 [1 2 3 4 5 6 7 8 9 10 11 12 13 15 14 16 17 18 20 21 19 22 23 24 25 26 27 28 29 30 31 32 33 34 35 36 37 38 39 42 43 40 45 46 47 48 49 50 51 52 54 55 56 57 59 60 58 61 62 63 64 65 67 68 69 70 73 71 72 75 76 77 74 79 78 80 82 81 84 85 83 88 89 91 87 92 93 94 96 97 98 95 99 100 101 102 103 104]</text>
<polyline fill="none" stroke="#0058ad" points="1782,-.5 1782,-29.5 "/>
<text text-anchor="middle" x="1814" y="-11.3" font-family="Times,serif" font-size="14.00" fill="#0058ad">a 162 27</text>
<polyline fill="none" stroke="#0058ad" points="1846,-.5 1846,-29.5 "/>
<text text-anchor="middle" x="1881.5" y="-11.3" font-family="Times,serif" font-size="14.00" fill="#0058ad">a 131 125</text>
</g>
<!-- T32459&#45;&gt;T32457 -->
<g id="edge1" class="edge">
<title>T32459:f2&#45;&gt;T32457:f3</title>
<path fill="none" stroke="#5b00c0" d="M1944.5,-81C1944.5,-53.1448 1948.1252,-23.2704 1927.4857,-16.4436"/>
<polygon fill="#5b00c0" stroke="#5b00c0" points="1927.8979,-12.9669 1917.5,-15 1926.8963,-19.8949 1927.8979,-12.9669"/>
<text text-anchor="middle" x="1952" y="-51.8" font-family="Times,serif" font-size="14.00" fill="#5b00c0">rw</text>
</g>
<!-- T32457&#45;&gt;T32459 -->
<g id="edge2" class="edge">
<title>T32457:f1&#45;&gt;T32459:f0</title>
<path fill="none" stroke="#5b00c0" d="M922.5,-30C922.5,-78.4002 831.6505,-36.0871 818.165,-71.022"/>
<polygon fill="#5b00c0" stroke="#5b00c0" points="814.6937,-70.5603 816.5,-81 821.5983,-71.7125 814.6937,-70.5603"/>
<text text-anchor="middle" x="920" y="-51.8" font-family="Times,serif" font-size="14.00" fill="#5b00c0">rw</text>
</g>
</g>
</svg>
