<?xml version="1.0" encoding="UTF-8" standalone="no"?>
<!DOCTYPE svg PUBLIC "-//W3C//DTD SVG 1.1//EN"
 "http://www.w3.org/Graphics/SVG/1.1/DTD/svg11.dtd">
<!-- Generated by graphviz version 2.40.1 (20161225.0304)
 -->
<!-- Title: a_graph Pages: 1 -->
<svg width="5405pt" height="200pt"
 viewBox="0.00 0.00 5405.46 200.00" xmlns="http://www.w3.org/2000/svg" xmlns:xlink="http://www.w3.org/1999/xlink">
<g id="graph0" class="graph" transform="scale(1 1) rotate(0) translate(4 196)">
<title>a_graph</title>
<polygon fill="#ffffff" stroke="transparent" points="-4,4 -4,-196 5401.4573,-196 5401.4573,4 -4,4"/>
<!-- T30961 -->
<g id="node1" class="node">
<title>T30961</title>
<polygon fill="none" stroke="#0058ad" points="2977.5,-162.5 2977.5,-191.5 5197.5,-191.5 5197.5,-162.5 2977.5,-162.5"/>
<text text-anchor="middle" x="3009.5" y="-173.3" font-family="Times,serif" font-size="14.00" fill="#0058ad">a 135 46</text>
<polyline fill="none" stroke="#0058ad" points="3041.5,-162.5 3041.5,-191.5 "/>
<text text-anchor="middle" x="3806" y="-173.3" font-family="Times,serif" font-size="14.00" fill="#0058ad">r 131 [1 2 3 4 5 6 7 8 9 10 11 12 13 14 15 16 17 18 19 21 22 23 24 25 26 27 28 29 30 31 32 34 37 38 39 40 41 42 43 44 45 46 47 48 49 51 52 53 54 55 56 57 58 59 61 63 64 65 66 67 68 70 72 73 74 75 76 77 78 79 80 81 83 84 85 86 87 88 89 90 91 92 93 94 95 96 97 98 99]</text>
<polyline fill="none" stroke="#0058ad" points="4570.5,-162.5 4570.5,-191.5 "/>
<text text-anchor="middle" x="4852" y="-173.3" font-family="Times,serif" font-size="14.00" fill="#0058ad">r 152 [1 2 3 4 5 6 7 8 9 10 11 12 13 14 15 16 17 19 18 20 21 22 23 24 25 26 27 28 29 30 31 32 33]</text>
<polyline fill="none" stroke="#0058ad" points="5133.5,-162.5 5133.5,-191.5 "/>
<text text-anchor="middle" x="5165.5" y="-173.3" font-family="Times,serif" font-size="14.00" fill="#0058ad">a 155 83</text>
</g>
<!-- T30959 -->
<g id="node2" class="node">
<title>T30959</title>
<polygon fill="none" stroke="#0058ad" points="1745.5,-81.5 1745.5,-110.5 5129.5,-110.5 5129.5,-81.5 1745.5,-81.5"/>
<text text-anchor="middle" x="2746.5" y="-92.3" font-family="Times,serif" font-size="14.00" fill="#0058ad">r 153 [1 2 3 4 5 6 7 8 9 12 10 11 13 14 15 16 17 18 19 20 21 22 23 24 25 26 27 28 29 30 31 32 33 34 36 38 40 41 42 43 44 45 46 47 48 49 50 51 52 53 54 55 56 58 59 57 60 61 62 63 64 65 67 68 66 69 71 72 70 74 75 77 78 80 83 84 85 86 87 89 90 91 92 93 94 95 96 97 98 100 99 101 102 103 105 106 108 109 110 111 112 113 114 115 116 117 119 118 120]</text>
<polyline fill="none" stroke="#0058ad" points="3747.5,-81.5 3747.5,-110.5 "/>
<text text-anchor="middle" x="4406.5" y="-92.3" font-family="Times,serif" font-size="14.00" fill="#0058ad">r 155 [2 4 6 7 5 10 11 12 13 8 9 15 14 16 19 17 18 21 22 20 25 26 28 30 31 32 35 36 37 38 34 39 40 41 42 44 45 43 46 47 48 49 50 51 52 53 54 55 56 57 58 59 60 61 63 64 62 69 70 71 72 73 74 75 76 77 78 79 80 81 84 85 82 86 87 88]</text>
<polyline fill="none" stroke="#0058ad" points="5065.5,-81.5 5065.5,-110.5 "/>
<text text-anchor="middle" x="5097.5" y="-92.3" font-family="Times,serif" font-size="14.00" fill="#0058ad">a 152 34</text>
</g>
<!-- T30961&#45;&gt;T30959 -->
<g id="edge1" class="edge">
<title>T30961:f2&#45;&gt;T30959:f2</title>
<path fill="none" stroke="#5b00c0" d="M4852.5,-162C4852.5,-54.4699 5081.5006,-211.1496 5096.7076,-121.1647"/>
<polygon fill="#5b00c0" stroke="#5b00c0" points="5100.2122,-121.2418 5097.5,-111 5093.2333,-120.6977 5100.2122,-121.2418"/>
<text text-anchor="middle" x="5100" y="-132.8" font-family="Times,serif" font-size="14.00" fill="#5b00c0">rw</text>
</g>
<!-- T30959&#45;&gt;T30961 -->
<g id="edge2" class="edge">
<title>T30959:f1&#45;&gt;T30961:f3</title>
<path fill="none" stroke="#5b00c0" d="M4406.5,-111C4406.5,-207.0581 4741.6486,-137.7012 4837.5,-144 4853.8609,-145.0751 5105.5816,-144.0169 5156.5436,-157.0256"/>
<polygon fill="#5b00c0" stroke="#5b00c0" points="5155.0584,-160.2043 5165.5,-162 5158.4572,-154.0848 5155.0584,-160.2043"/>
<text text-anchor="middle" x="4845" y="-132.8" font-family="Times,serif" font-size="14.00" fill="#5b00c0">rw</text>
</g>
<!-- T30957 -->
<g id="node3" class="node">
<title>T30957</title>
<polygon fill="none" stroke="#0058ad" points="0,-.5 0,-29.5 5393,-29.5 5393,-.5 0,-.5"/>
<text text-anchor="middle" x="1001" y="-11.3" font-family="Times,serif" font-size="14.00" fill="#0058ad">r 153 [1 2 3 4 5 6 7 8 9 12 10 11 13 14 15 16 17 18 19 20 21 22 23 24 25 26 27 28 29 30 31 32 33 34 36 38 40 41 42 43 44 45 46 47 48 49 50 51 52 53 54 55 56 58 59 57 60 61 62 63 64 65 67 68 66 69 71 72 70 74 75 77 78 80 83 84 85 86 87 89 90 91 92 93 94 95 96 97 98 100 99 101 102 103 105 106 108 109 110 111 112 113 114 115 116 117 119 118 120]</text>
<polyline fill="none" stroke="#0058ad" points="2002,-.5 2002,-29.5 "/>
<text text-anchor="middle" x="3003" y="-11.3" font-family="Times,serif" font-size="14.00" fill="#0058ad">r 153 [1 2 3 4 5 6 7 8 9 12 10 11 13 14 15 16 17 18 19 20 21 22 23 24 25 26 27 28 29 30 31 32 33 34 36 38 40 41 42 43 44 45 46 47 48 49 50 51 52 53 54 55 56 58 59 57 60 61 62 63 64 65 67 68 66 69 71 72 70 74 75 77 78 80 83 84 85 86 87 89 90 91 92 93 94 95 96 97 98 100 99 101 102 103 105 106 108 109 110 111 112 113 114 115 116 117 119 118 120]</text>
<polyline fill="none" stroke="#0058ad" points="4004,-.5 4004,-29.5 "/>
<text text-anchor="middle" x="4039.5" y="-11.3" font-family="Times,serif" font-size="14.00" fill="#0058ad">a 153 121</text>
<polyline fill="none" stroke="#0058ad" points="4075,-.5 4075,-29.5 "/>
<text text-anchor="middle" x="4734" y="-11.3" font-family="Times,serif" font-size="14.00" fill="#0058ad">r 155 [2 4 6 7 5 10 11 12 13 8 9 15 14 16 19 17 18 21 22 20 25 26 28 30 31 32 35 36 37 38 34 39 40 41 42 44 45 43 46 47 48 49 50 51 52 53 54 55 56 57 58 59 60 61 63 64 62 69 70 71 72 73 74 75 76 77 78 79 80 81 84 85 82 86 87 88]</text>
</g>
<!-- T30959&#45;&gt;T30957 -->
<g id="edge3" class="edge">
<title>T30959:f0&#45;&gt;T30957:f2</title>
<path fill="none" stroke="#5b00c0" d="M2746.5,-81C2746.5,59.2682 3977.1359,-162.4545 4037.2256,-39.8616"/>
<polygon fill="#5b00c0" stroke="#5b00c0" points="4040.663,-40.5308 4039.5,-30 4033.8421,-38.9576 4040.663,-40.5308"/>
<text text-anchor="middle" x="4033" y="-51.8" font-family="Times,serif" font-size="14.00" fill="#5b00c0">rw</text>
</g>
<!-- T30957&#45;&gt;T30961 -->
<g id="edge4" class="edge">
<title>T30957:f3&#45;&gt;T30961:f3</title>
<path fill="none" stroke="#5b00c0" d="M5393.5,-15C5400.1667,-15 5396.8299,-24.2245 5393.5,-30 5336.7859,-128.3676 5175.6619,-49.9761 5165.9583,-151.9148"/>
<polygon fill="#5b00c0" stroke="#5b00c0" points="5162.4577,-151.8514 5165.5,-162 5169.4504,-152.1692 5162.4577,-151.8514"/>
<text text-anchor="middle" x="5325" y="-92.3" font-family="Times,serif" font-size="14.00" fill="#5b00c0">rw</text>
</g>
</g>
</svg>
