<?xml version="1.0" encoding="UTF-8" standalone="no"?>
<!DOCTYPE svg PUBLIC "-//W3C//DTD SVG 1.1//EN"
 "http://www.w3.org/Graphics/SVG/1.1/DTD/svg11.dtd">
<!-- Generated by graphviz version 2.40.1 (20161225.0304)
 -->
<!-- Title: a_graph Pages: 1 -->
<svg width="2918pt" height="119pt"
 viewBox="0.00 0.00 2918.00 119.00" xmlns="http://www.w3.org/2000/svg" xmlns:xlink="http://www.w3.org/1999/xlink">
<g id="graph0" class="graph" transform="scale(1 1) rotate(0) translate(4 115)">
<title>a_graph</title>
<polygon fill="#ffffff" stroke="transparent" points="-4,4 -4,-115 2914,-115 2914,4 -4,4"/>
<!-- T34959 -->
<g id="node1" class="node">
<title>T34959</title>
<polygon fill="none" stroke="#0058ad" points="0,-81.5 0,-110.5 2910,-110.5 2910,-81.5 0,-81.5"/>
<text text-anchor="middle" x="874" y="-92.3" font-family="Times,serif" font-size="14.00" fill="#0058ad">r 172 [1 2 3 4 5 6 7 8 9 10 11 13 16 17 15 18 19 20 23 24 26 27 28 29 25 30 31 32 33 36 35 37 38 39 40 41 42 43 44 45 46 47 48 49 59 60 58 61 62 63 64 65 66 67 68 69 70 71 72 75 76 73 74 77 80 79 83 81 82 84 85 86 88 90 87 89 91 92 94 93 95 96 97 98 99 100 101 104 105 107 106 109 108 110 111 113 114]</text>
<polyline fill="none" stroke="#0058ad" points="1748,-81.5 1748,-110.5 "/>
<text text-anchor="middle" x="1783.5" y="-92.3" font-family="Times,serif" font-size="14.00" fill="#0058ad">a 172 112</text>
<polyline fill="none" stroke="#0058ad" points="1819,-81.5 1819,-110.5 "/>
<text text-anchor="middle" x="1893.5" y="-92.3" font-family="Times,serif" font-size="14.00" fill="#0058ad">r 175 [1 3 2 4 5 6 7 9 8]</text>
<polyline fill="none" stroke="#0058ad" points="1968,-81.5 1968,-110.5 "/>
<text text-anchor="middle" x="2439" y="-92.3" font-family="Times,serif" font-size="14.00" fill="#0058ad">r 174 [1 2 3 5 4 7 8 9 10 11 12 14 15 13 16 6 17 20 21 22 24 25 26 23 28 27 29 30 31 32 33 34 35 38 39 40 36 42 43 47 48 49 50 51 52 53 41 54 55 56 58 59 57 60 61]</text>
</g>
<!-- T34957 -->
<g id="node2" class="node">
<title>T34957</title>
<polygon fill="none" stroke="#0058ad" points="816,-.5 816,-29.5 2628,-29.5 2628,-.5 816,-.5"/>
<text text-anchor="middle" x="1690" y="-11.3" font-family="Times,serif" font-size="14.00" fill="#0058ad">r 172 [1 2 3 4 5 6 7 8 9 10 11 13 16 17 15 18 19 20 23 24 26 27 28 29 25 30 31 32 33 36 35 37 38 39 40 41 42 43 44 45 46 47 48 49 59 60 58 61 62 63 64 65 66 67 68 69 70 71 72 75 76 73 74 77 80 79 83 81 82 84 85 86 88 90 87 89 91 92 94 93 95 96 97 98 99 100 101 104 105 107 106 109 108 110 111 113 114]</text>
<polyline fill="none" stroke="#0058ad" points="2564,-.5 2564,-29.5 "/>
<text text-anchor="middle" x="2596" y="-11.3" font-family="Times,serif" font-size="14.00" fill="#0058ad">a 174 62</text>
</g>
<!-- T34959&#45;&gt;T34957 -->
<g id="edge1" class="edge">
<title>T34959:f3&#45;&gt;T34957:f1</title>
<path fill="none" stroke="#5b00c0" d="M2439,-81C2439,-11.502 2579.878,-93.7403 2594.7362,-40.2457"/>
<polygon fill="#5b00c0" stroke="#5b00c0" points="2598.2494,-40.3533 2596,-30 2591.3021,-39.4963 2598.2494,-40.3533"/>
<text text-anchor="middle" x="2596.5" y="-51.8" font-family="Times,serif" font-size="14.00" fill="#5b00c0">rw</text>
</g>
<!-- T34957&#45;&gt;T34959 -->
<g id="edge2" class="edge">
<title>T34957:f0&#45;&gt;T34959:f1</title>
<path fill="none" stroke="#5b00c0" d="M1690,-30C1690,-73.6316 1769.2107,-40.0818 1782.2062,-71.0509"/>
<polygon fill="#5b00c0" stroke="#5b00c0" points="1778.7811,-71.7798 1784,-81 1785.67,-70.5376 1778.7811,-71.7798"/>
<text text-anchor="middle" x="1781.5" y="-51.8" font-family="Times,serif" font-size="14.00" fill="#5b00c0">rw</text>
</g>
</g>
</svg>
