<?xml version="1.0" encoding="UTF-8" standalone="no"?>
<!DOCTYPE svg PUBLIC "-//W3C//DTD SVG 1.1//EN"
 "http://www.w3.org/Graphics/SVG/1.1/DTD/svg11.dtd">
<!-- Generated by graphviz version 2.40.1 (20161225.0304)
 -->
<!-- Title: a_graph Pages: 1 -->
<svg width="4723pt" height="281pt"
 viewBox="0.00 0.00 4722.50 281.00" xmlns="http://www.w3.org/2000/svg" xmlns:xlink="http://www.w3.org/1999/xlink">
<g id="graph0" class="graph" transform="scale(1 1) rotate(0) translate(4 277)">
<title>a_graph</title>
<polygon fill="#ffffff" stroke="transparent" points="-4,4 -4,-277 4718.5,-277 4718.5,4 -4,4"/>
<!-- T23699 -->
<g id="node1" class="node">
<title>T23699</title>
<polygon fill="none" stroke="#0058ad" points="1300,-243.5 1300,-272.5 3714,-272.5 3714,-243.5 1300,-243.5"/>
<text text-anchor="middle" x="1332" y="-254.3" font-family="Times,serif" font-size="14.00" fill="#0058ad">a 118 49</text>
<polyline fill="none" stroke="#0058ad" points="1364,-243.5 1364,-272.5 "/>
<text text-anchor="middle" x="2130" y="-254.3" font-family="Times,serif" font-size="14.00" fill="#0058ad">r 120 [1 2 5 6 7 8 10 11 12 13 14 15 16 17 18 19 21 22 23 24 25 26 27 28 29 31 33 34 35 36 37 38 39 40 41 42 43 44 45 46 47 48 49 50 51 53 52 54 55 56 57 58 59 60 61 62 63 64 65 66 68 69 70 71 67 72 75 74 76 77 78 79 73 81 82 83 84 85 86 87 88 80 91 94 95 92 93 96]</text>
<polyline fill="none" stroke="#0058ad" points="2896,-243.5 2896,-272.5 "/>
<text text-anchor="middle" x="3305" y="-254.3" font-family="Times,serif" font-size="14.00" fill="#0058ad">r 119 [1 2 5 6 7 8 9 10 11 12 13 14 16 17 18 19 20 21 22 23 24 25 26 27 28 30 29 31 32 34 33 35 36 37 38 39 40 41 42 43 44 45 46 47 48 49 50]</text>
</g>
<!-- T23698 -->
<g id="node4" class="node">
<title>T23698</title>
<polygon fill="none" stroke="#0058ad" points="0,-162.5 0,-191.5 2460,-191.5 2460,-162.5 0,-162.5"/>
<text text-anchor="middle" x="766" y="-173.3" font-family="Times,serif" font-size="14.00" fill="#0058ad">r 120 [1 2 5 6 7 8 10 11 12 13 14 15 16 17 18 19 21 22 23 24 25 26 27 28 29 31 33 34 35 36 37 38 39 40 41 42 43 44 45 46 47 48 49 50 51 53 52 54 55 56 57 58 59 60 61 62 63 64 65 66 68 69 70 71 67 72 75 74 76 77 78 79 73 81 82 83 84 85 86 87 88 80 91 94 95 92 93 96]</text>
<polyline fill="none" stroke="#0058ad" points="1532,-162.5 1532,-191.5 "/>
<text text-anchor="middle" x="1932" y="-173.3" font-family="Times,serif" font-size="14.00" fill="#0058ad">r 119 [1 2 5 6 7 8 9 10 11 12 13 14 16 17 18 19 20 21 22 23 24 25 26 27 28 30 29 31 32 34 33 35 36 37 38 39 40 41 42 43 44 45 46 47 48 49]</text>
<polyline fill="none" stroke="#0058ad" points="2332,-162.5 2332,-191.5 "/>
<text text-anchor="middle" x="2364" y="-173.3" font-family="Times,serif" font-size="14.00" fill="#0058ad">a 120 89</text>
<polyline fill="none" stroke="#0058ad" points="2396,-162.5 2396,-191.5 "/>
<text text-anchor="middle" x="2428" y="-173.3" font-family="Times,serif" font-size="14.00" fill="#0058ad">a 120 90</text>
</g>
<!-- T23699&#45;&gt;T23698 -->
<g id="edge1" class="edge">
<title>T23699:f1&#45;&gt;T23698:f2</title>
<path fill="none" stroke="#5b00c0" d="M2130,-243C2130,-140.1967 2348.2773,-287.6887 2363.1986,-201.9954"/>
<polygon fill="#5b00c0" stroke="#5b00c0" points="2366.6895,-202.2478 2364,-192 2359.7119,-201.6882 2366.6895,-202.2478"/>
<text text-anchor="middle" x="2367.5" y="-213.8" font-family="Times,serif" font-size="14.00" fill="#5b00c0">rw</text>
</g>
<!-- T23697 -->
<g id="node2" class="node">
<title>T23697</title>
<polygon fill="none" stroke="#0058ad" points="1796,-.5 1796,-29.5 3456,-29.5 3456,-.5 1796,-.5"/>
<text text-anchor="middle" x="2562" y="-11.3" font-family="Times,serif" font-size="14.00" fill="#0058ad">r 120 [1 2 5 6 7 8 10 11 12 13 14 15 16 17 18 19 21 22 23 24 25 26 27 28 29 31 33 34 35 36 37 38 39 40 41 42 43 44 45 46 47 48 49 50 51 53 52 54 55 56 57 58 59 60 61 62 63 64 65 66 68 69 70 71 67 72 75 74 76 77 78 79 73 81 82 83 84 85 86 87 88 80 91 94 95 92 93 96]</text>
<polyline fill="none" stroke="#0058ad" points="3328,-.5 3328,-29.5 "/>
<text text-anchor="middle" x="3360" y="-11.3" font-family="Times,serif" font-size="14.00" fill="#0058ad">a 102 94</text>
<polyline fill="none" stroke="#0058ad" points="3392,-.5 3392,-29.5 "/>
<text text-anchor="middle" x="3424" y="-11.3" font-family="Times,serif" font-size="14.00" fill="#0058ad">a 102 95</text>
</g>
<!-- T23697&#45;&gt;T23698 -->
<g id="edge2" class="edge">
<title>T23697:f0&#45;&gt;T23698:f2</title>
<path fill="none" stroke="#5b00c0" d="M2562,-30C2562,-117.0045 2429.6428,-14.9593 2373,-81 2351.7214,-105.809 2361.516,-122.3052 2363.6319,-151.9029"/>
<polygon fill="#5b00c0" stroke="#5b00c0" points="2360.138,-152.1342 2364,-162 2367.1333,-151.8791 2360.138,-152.1342"/>
<text text-anchor="middle" x="2380.5" y="-92.3" font-family="Times,serif" font-size="14.00" fill="#5b00c0">rw</text>
</g>
<!-- T23695 -->
<g id="node3" class="node">
<title>T23695</title>
<polygon fill="none" stroke="#0058ad" points="2397.5,-81.5 2397.5,-110.5 4714.5,-110.5 4714.5,-81.5 2397.5,-81.5"/>
<text text-anchor="middle" x="2765" y="-92.3" font-family="Times,serif" font-size="14.00" fill="#0058ad">r 118 [1 3 4 2 6 5 7 8 9 10 11 12 15 16 17 18 19 20 21 22 23 24 25 26 27 29 30 31 33 34 36 37 38 39 40 41 42 43 44 45 47 46 48]</text>
<polyline fill="none" stroke="#0058ad" points="3132.5,-81.5 3132.5,-110.5 "/>
<text text-anchor="middle" x="3164.5" y="-92.3" font-family="Times,serif" font-size="14.00" fill="#0058ad">a 119 50</text>
<polyline fill="none" stroke="#0058ad" points="3196.5,-81.5 3196.5,-110.5 "/>
<text text-anchor="middle" x="3955.5" y="-92.3" font-family="Times,serif" font-size="14.00" fill="#0058ad">r 102 [1 2 3 4 5 7 8 9 10 11 12 13 14 15 16 17 18 19 20 21 22 23 24 25 26 27 28 29 31 32 33 34 35 36 37 38 39 40 41 42 43 44 45 46 47 48 49 50 51 52 53 54 55 56 57 58 59 60 62 63 65 67 66 68 69 70 71 72 73 74 75 76 77 78 79 80 81 82 83 84 85 86 88 89 90 91 92 93]</text>
</g>
<!-- T23695&#45;&gt;T23699 -->
<g id="edge4" class="edge">
<title>T23695:f1&#45;&gt;T23699:f2</title>
<path fill="none" stroke="#c000a5" d="M3164,-111C3164,-193.1537 3293.1431,-160.3364 3304.2414,-232.6098"/>
<polygon fill="#c000a5" stroke="#c000a5" points="3300.781,-233.2814 3305,-243 3307.7624,-232.7717 3300.781,-233.2814"/>
<text text-anchor="middle" x="3279.5" y="-173.3" font-family="Times,serif" font-size="14.00" fill="#c000a5">wr</text>
</g>
<!-- T23695&#45;&gt;T23697 -->
<g id="edge3" class="edge">
<title>T23695:f2&#45;&gt;T23697:f1</title>
<path fill="none" stroke="#5b00c0" d="M3956,-81C3956,48.2937 3392.1481,-151.4385 3361.3125,-40.1384"/>
<polygon fill="#5b00c0" stroke="#5b00c0" points="3364.755,-39.4679 3360,-30 3357.8129,-40.3666 3364.755,-39.4679"/>
<text text-anchor="middle" x="3956.5" y="-51.8" font-family="Times,serif" font-size="14.00" fill="#5b00c0">rw</text>
</g>
<!-- T23698&#45;&gt;T23695 -->
<g id="edge5" class="edge">
<title>T23698:f1&#45;&gt;T23695:f1</title>
<path fill="none" stroke="#5b00c0" d="M1932,-162C1932,-28.4725 3102.2318,-236.9134 3161.6576,-120.7515"/>
<polygon fill="#5b00c0" stroke="#5b00c0" points="3165.0674,-121.5409 3164,-111 3158.2611,-119.9059 3165.0674,-121.5409"/>
<text text-anchor="middle" x="3158.5" y="-132.8" font-family="Times,serif" font-size="14.00" fill="#5b00c0">rw</text>
</g>
</g>
</svg>
