<?xml version="1.0" encoding="UTF-8" standalone="no"?>
<!DOCTYPE svg PUBLIC "-//W3C//DTD SVG 1.1//EN"
 "http://www.w3.org/Graphics/SVG/1.1/DTD/svg11.dtd">
<!-- Generated by graphviz version 2.40.1 (20161225.0304)
 -->
<!-- Title: a_graph Pages: 1 -->
<svg width="2037pt" height="200pt"
 viewBox="0.00 0.00 2036.68 200.00" xmlns="http://www.w3.org/2000/svg" xmlns:xlink="http://www.w3.org/1999/xlink">
<g id="graph0" class="graph" transform="scale(1 1) rotate(0) translate(4 196)">
<title>a_graph</title>
<polygon fill="#ffffff" stroke="transparent" points="-4,4 -4,-196 2032.6769,-196 2032.6769,4 -4,4"/>
<!-- T34691 -->
<g id="node1" class="node">
<title>T34691</title>
<polygon fill="none" stroke="#0058ad" points="115.1769,-162.5 115.1769,-191.5 179.1769,-191.5 179.1769,-162.5 115.1769,-162.5"/>
<text text-anchor="middle" x="147.1769" y="-173.3" font-family="Times,serif" font-size="14.00" fill="#0058ad">a 170 37</text>
</g>
<!-- T34695 -->
<g id="node2" class="node">
<title>T34695</title>
<polygon fill="none" stroke="#0058ad" points="163.6769,-81.5 163.6769,-110.5 2028.6769,-110.5 2028.6769,-81.5 163.6769,-81.5"/>
<text text-anchor="middle" x="1096.1769" y="-92.3" font-family="Times,serif" font-size="14.00" fill="#0058ad">r 166 [1 2 4 5 6 7 8 9 10 11 13 14 15 16 17 18 19 21 22 24 20 26 25 27 28 30 29 32 31 35 34 36 37 38 40 41 43 45 46 47 48 49 50 51 52 53 54 57 56 58 59 60 61 62 63 64 65 66 67 68 69 70 71 72 73 74 75 76 77 78 80 81 82 83 84 85 86 87 88 89 90 92 91 93 94 95 97 96 98 99 100 101 102 103 104 105 106 114 116 115 117 118 119]</text>
</g>
<!-- T34691&#45;&gt;T34695 -->
<g id="edge1" class="edge">
<title>T34691&#45;&gt;T34695</title>
<path fill="none" stroke="#0050c0" d="M179.2957,-174.2586C293.1099,-164.5442 682.8399,-131.2796 915.9647,-111.3817"/>
<polygon fill="#0050c0" stroke="#0050c0" points="916.5904,-114.8411 926.2565,-110.5032 915.995,-107.8664 916.5904,-114.8411"/>
<text text-anchor="middle" x="710.6769" y="-132.8" font-family="Times,serif" font-size="14.00" fill="#0050c0">rt</text>
</g>
<!-- T34697 -->
<g id="node3" class="node">
<title>T34697</title>
<polygon fill="none" stroke="#0058ad" points="8.6769,-.5 8.6769,-29.5 749.6769,-29.5 749.6769,-.5 8.6769,-.5"/>
<text text-anchor="middle" x="279.6769" y="-11.3" font-family="Times,serif" font-size="14.00" fill="#0058ad">r 170 [2 3 4 5 6 7 9 10 11 12 13 15 16 18 19 21 22 23 24 25 26 27 28 29 30 31 32 33 34 35 36]</text>
<polyline fill="none" stroke="#0058ad" points="550.6769,-.5 550.6769,-29.5 "/>
<text text-anchor="middle" x="582.6769" y="-11.3" font-family="Times,serif" font-size="14.00" fill="#0058ad">a 173 98</text>
<polyline fill="none" stroke="#0058ad" points="614.6769,-.5 614.6769,-29.5 "/>
<text text-anchor="middle" x="650.1769" y="-11.3" font-family="Times,serif" font-size="14.00" fill="#0058ad">a 166 120</text>
<polyline fill="none" stroke="#0058ad" points="685.6769,-.5 685.6769,-29.5 "/>
<text text-anchor="middle" x="717.6769" y="-11.3" font-family="Times,serif" font-size="14.00" fill="#0058ad">a 173 99</text>
</g>
<!-- T34695&#45;&gt;T34697 -->
<g id="edge2" class="edge">
<title>T34695:f0&#45;&gt;T34697:f2</title>
<path fill="none" stroke="#5b00c0" d="M715.5068,-81.4109C681.8181,-72.0902 657.9585,-58.7788 651.7653,-39.9958"/>
<polygon fill="#5b00c0" stroke="#5b00c0" points="655.203,-39.3268 650.1769,-30 648.2898,-40.4254 655.203,-39.3268"/>
<text text-anchor="middle" x="674.6769" y="-51.8" font-family="Times,serif" font-size="14.00" fill="#5b00c0">rw</text>
</g>
<!-- T34697&#45;&gt;T34691 -->
<g id="edge3" class="edge">
<title>T34697:f0&#45;&gt;T34691:f0</title>
<path fill="none" stroke="#5b00c0" d="M8.1769,-15C-28.4197,-15 74.1878,-111.4252 122.9894,-155.4909"/>
<polygon fill="#5b00c0" stroke="#5b00c0" points="120.8294,-158.2555 130.6062,-162.3379 125.5091,-153.0497 120.8294,-158.2555"/>
<text text-anchor="middle" x="81.6769" y="-92.3" font-family="Times,serif" font-size="14.00" fill="#5b00c0">rw</text>
</g>
</g>
</svg>
