<?xml version="1.0" encoding="UTF-8" standalone="no"?>
<!DOCTYPE svg PUBLIC "-//W3C//DTD SVG 1.1//EN"
 "http://www.w3.org/Graphics/SVG/1.1/DTD/svg11.dtd">
<!-- Generated by graphviz version 2.40.1 (20161225.0304)
 -->
<!-- Title: a_graph Pages: 1 -->
<svg width="3697pt" height="119pt"
 viewBox="0.00 0.00 3697.00 119.00" xmlns="http://www.w3.org/2000/svg" xmlns:xlink="http://www.w3.org/1999/xlink">
<g id="graph0" class="graph" transform="scale(1 1) rotate(0) translate(4 115)">
<title>a_graph</title>
<polygon fill="#ffffff" stroke="transparent" points="-4,4 -4,-115 3693,-115 3693,4 -4,4"/>
<!-- T680 -->
<g id="node1" class="node">
<title>T680</title>
<polygon fill="none" stroke="#0058ad" points="0,-81.5 0,-110.5 3689,-110.5 3689,-81.5 0,-81.5"/>
<text text-anchor="middle" x="872.5" y="-92.3" font-family="Times,serif" font-size="14.00" fill="#0058ad">r 10 [1 5 6 4 7 8 9 10 11 12 13 14 15 18 16 17 19 20 21 22 23 24 25 26 27 28 29 31 30 32 33 34 35 36 37 38 39 40 41 42 43 44 45 46 47 50 51 49 48 52 53 54 55 56 57 58 59 60 61 62 63 64 65 66 67 69 68 70 71 73 74 75 72 76 77 79 80 78 81 83 85 86 87 82 84 88 89 91 92 93 94 95 90 97 98 99 96 101 102 103]</text>
<polyline fill="none" stroke="#0058ad" points="1745,-81.5 1745,-110.5 "/>
<text text-anchor="middle" x="1773.5" y="-92.3" font-family="Times,serif" font-size="14.00" fill="#0058ad">a 8 100</text>
<polyline fill="none" stroke="#0058ad" points="1802,-81.5 1802,-110.5 "/>
<text text-anchor="middle" x="1873" y="-92.3" font-family="Times,serif" font-size="14.00" fill="#0058ad">r 5 [1 2 3 4 5 6 8 9 10]</text>
<polyline fill="none" stroke="#0058ad" points="1944,-81.5 1944,-110.5 "/>
<text text-anchor="middle" x="2816.5" y="-92.3" font-family="Times,serif" font-size="14.00" fill="#0058ad">r 10 [1 5 6 4 7 8 9 10 11 12 13 14 15 18 16 17 19 20 21 22 23 24 25 26 27 28 29 31 30 32 33 34 35 36 37 38 39 40 41 42 43 44 45 46 47 50 51 49 48 52 53 54 55 56 57 58 59 60 61 62 63 64 65 66 67 69 68 70 71 73 74 75 72 76 77 79 80 78 81 83 85 86 87 82 84 88 89 91 92 93 94 95 90 97 98 99 96 101 102 103]</text>
</g>
<!-- T682 -->
<g id="node2" class="node">
<title>T682</title>
<polygon fill="none" stroke="#0058ad" points="126.5,-.5 126.5,-29.5 2554.5,-29.5 2554.5,-.5 126.5,-.5"/>
<text text-anchor="middle" x="480" y="-11.3" font-family="Times,serif" font-size="14.00" fill="#0058ad">r 7 [2 5 6 7 8 9 10 11 13 12 14 15 16 17 18 19 23 24 25 26 27 28 29 30 31 32 33 34 35 36 37 38 39 41 40 42 43 44 45 47 46]</text>
<polyline fill="none" stroke="#0058ad" points="833.5,-.5 833.5,-29.5 "/>
<text text-anchor="middle" x="865.5" y="-11.3" font-family="Times,serif" font-size="14.00" fill="#0058ad">a 10 106</text>
<polyline fill="none" stroke="#0058ad" points="897.5,-.5 897.5,-29.5 "/>
<text text-anchor="middle" x="949.5" y="-11.3" font-family="Times,serif" font-size="14.00" fill="#0058ad">r 4 [1 2 3 4 5 6]</text>
<polyline fill="none" stroke="#0058ad" points="1001.5,-.5 1001.5,-29.5 "/>
<text text-anchor="middle" x="1778" y="-11.3" font-family="Times,serif" font-size="14.00" fill="#0058ad">r 8 [2 5 6 7 8 9 10 11 12 13 14 15 16 17 18 19 20 21 22 23 24 25 26 27 28 29 30 31 32 34 35 33 36 37 38 39 40 41 42 43 44 46 47 45 48 51 53 55 54 57 60 61 62 63 64 65 66 67 68 71 69 70 72 73 74 75 76 77 79 78 80 81 82 83 84 85 86 87 88 89 90 91 92 93 95 96 94 97 98 99]</text>
</g>
<!-- T680&#45;&gt;T682 -->
<g id="edge1" class="edge">
<title>T680:f0&#45;&gt;T682:f1</title>
<path fill="none" stroke="#5b00c0" d="M872.5,-81C872.5,-61.8744 867.6085,-55.0738 866.0034,-39.9924"/>
<polygon fill="#5b00c0" stroke="#5b00c0" points="869.4988,-39.8112 865.5,-30 862.5077,-40.1635 869.4988,-39.8112"/>
<text text-anchor="middle" x="879" y="-51.8" font-family="Times,serif" font-size="14.00" fill="#5b00c0">rw</text>
</g>
<!-- T682&#45;&gt;T680 -->
<g id="edge2" class="edge">
<title>T682:f3&#45;&gt;T680:f1</title>
<path fill="none" stroke="#5b00c0" d="M1778.5,-30C1778.5,-48.8608 1775.071,-55.8396 1773.8923,-70.616"/>
<polygon fill="#5b00c0" stroke="#5b00c0" points="1770.3802,-70.875 1773.5,-81 1777.3752,-71.1393 1770.3802,-70.875"/>
<text text-anchor="middle" x="1785" y="-51.8" font-family="Times,serif" font-size="14.00" fill="#5b00c0">rw</text>
</g>
</g>
</svg>
