<?xml version="1.0" encoding="UTF-8" standalone="no"?>
<!DOCTYPE svg PUBLIC "-//W3C//DTD SVG 1.1//EN"
 "http://www.w3.org/Graphics/SVG/1.1/DTD/svg11.dtd">
<!-- Generated by graphviz version 2.40.1 (20161225.0304)
 -->
<!-- Title: a_graph Pages: 1 -->
<svg width="2019pt" height="200pt"
 viewBox="0.00 0.00 2019.00 200.00" xmlns="http://www.w3.org/2000/svg" xmlns:xlink="http://www.w3.org/1999/xlink">
<g id="graph0" class="graph" transform="scale(1 1) rotate(0) translate(4 196)">
<title>a_graph</title>
<polygon fill="#ffffff" stroke="transparent" points="-4,4 -4,-196 2015,-196 2015,4 -4,4"/>
<!-- T22755 -->
<g id="node1" class="node">
<title>T22755</title>
<polygon fill="none" stroke="#0058ad" points="193,-162.5 193,-191.5 1815,-191.5 1815,-162.5 193,-162.5"/>
<text text-anchor="middle" x="1004" y="-173.3" font-family="Times,serif" font-size="14.00" fill="#0058ad">r 110 [1 2 3 4 6 7 8 9 10 11 12 13 14 15 16 17 18 19 20 22 23 25 24 26 27 28 29 30 31 32 33 34 35 36 37 38 39 40 41 42 43 44 45 46 47 48 49 50 51 52 53 54 55 56 57 58 59 60 61 62 63 64 65 66 67 68 69 70 71 72 73 74 75 76 77 78 79 80 81 82 83 84 85 86 87 88 89 91 90 93 92 94 95 96]</text>
</g>
<!-- T22757 -->
<g id="node3" class="node">
<title>T22757</title>
<polygon fill="none" stroke="#0058ad" points="1015,-81.5 1015,-110.5 2011,-110.5 2011,-81.5 1015,-81.5"/>
<text text-anchor="middle" x="1050.5" y="-92.3" font-family="Times,serif" font-size="14.00" fill="#0058ad">a 110 100</text>
<polyline fill="none" stroke="#0058ad" points="1086,-81.5 1086,-110.5 "/>
<text text-anchor="middle" x="1548.5" y="-92.3" font-family="Times,serif" font-size="14.00" fill="#0058ad">r 114 [1 2 3 6 4 5 7 8 9 10 11 12 13 14 15 16 17 18 19 20 21 22 25 24 23 26 28 29 30 31 32 33 34 27 35 36 38 39 40 41 37 42 43 44 45 46 48 49 50 52 53 54 51 55]</text>
</g>
<!-- T22755&#45;&gt;T22757 -->
<g id="edge1" class="edge">
<title>T22755:f0&#45;&gt;T22757:f0</title>
<path fill="none" stroke="#5b00c0" d="M1021.9165,-162.46C1032.7135,-152.2495 1045.0838,-137.4969 1048.8522,-120.9378"/>
<polygon fill="#5b00c0" stroke="#5b00c0" points="1052.3294,-121.3356 1050,-111 1045.3756,-120.5323 1052.3294,-121.3356"/>
<text text-anchor="middle" x="1053.5" y="-132.8" font-family="Times,serif" font-size="14.00" fill="#5b00c0">rw</text>
</g>
<!-- T22751 -->
<g id="node2" class="node">
<title>T22751</title>
<polygon fill="none" stroke="#0058ad" points="0,-.5 0,-29.5 1988,-29.5 1988,-.5 0,-.5"/>
<text text-anchor="middle" x="462.5" y="-11.3" font-family="Times,serif" font-size="14.00" fill="#0058ad">r 114 [1 2 3 6 4 5 7 8 9 10 11 12 13 14 15 16 17 18 19 20 21 22 25 24 23 26 28 29 30 31 32 33 34 27 35 36 38 39 40 41 37 42 43 44 45 46 48 49 50 52 53 54 51 55]</text>
<polyline fill="none" stroke="#0058ad" points="925,-.5 925,-29.5 "/>
<text text-anchor="middle" x="953.5" y="-11.3" font-family="Times,serif" font-size="14.00" fill="#0058ad">a 116 2</text>
<polyline fill="none" stroke="#0058ad" points="982,-.5 982,-29.5 "/>
<text text-anchor="middle" x="1014" y="-11.3" font-family="Times,serif" font-size="14.00" fill="#0058ad">a 114 56</text>
<polyline fill="none" stroke="#0058ad" points="1046,-.5 1046,-29.5 "/>
<text text-anchor="middle" x="1517" y="-11.3" font-family="Times,serif" font-size="14.00" fill="#0058ad">r 114 [1 2 3 6 4 5 7 8 9 10 11 12 13 14 15 16 17 18 19 20 21 22 25 24 23 26 28 29 30 31 32 33 34 27 35 36 38 39 40 41 37 42 43 44 45 46 48 49 50 52 53 54 51 55 56]</text>
</g>
<!-- T22751&#45;&gt;T22755 -->
<g id="edge2" class="edge">
<title>T22751&#45;&gt;T22755</title>
<path fill="none" stroke="#0050c0" d="M994.1193,-29.6545C994.3505,-48.4968 995.0269,-82.2202 997,-111 997.9387,-124.6924 999.5193,-139.9309 1000.9412,-152.3127"/>
<polygon fill="#0050c0" stroke="#0050c0" points="997.4778,-152.8288 1002.1298,-162.3477 1004.4292,-152.0054 997.4778,-152.8288"/>
<text text-anchor="middle" x="1001.5" y="-92.3" font-family="Times,serif" font-size="14.00" fill="#0050c0">rt</text>
</g>
<!-- T22757&#45;&gt;T22751 -->
<g id="edge3" class="edge">
<title>T22757:f1&#45;&gt;T22751:f2</title>
<path fill="none" stroke="#5b00c0" d="M1549,-81C1549,154.3568 1029.559,-256.4972 1014.341,-40.0723"/>
<polygon fill="#5b00c0" stroke="#5b00c0" points="1017.8365,-39.8758 1014,-30 1010.8405,-40.1127 1017.8365,-39.8758"/>
<text text-anchor="middle" x="1553.5" y="-51.8" font-family="Times,serif" font-size="14.00" fill="#5b00c0">rw</text>
</g>
</g>
</svg>
