<?xml version="1.0" encoding="UTF-8" standalone="no"?>
<!DOCTYPE svg PUBLIC "-//W3C//DTD SVG 1.1//EN"
 "http://www.w3.org/Graphics/SVG/1.1/DTD/svg11.dtd">
<!-- Generated by graphviz version 2.40.1 (20161225.0304)
 -->
<!-- Title: a_graph Pages: 1 -->
<svg width="2417pt" height="119pt"
 viewBox="0.00 0.00 2417.00 119.00" xmlns="http://www.w3.org/2000/svg" xmlns:xlink="http://www.w3.org/1999/xlink">
<g id="graph0" class="graph" transform="scale(1 1) rotate(0) translate(4 115)">
<title>a_graph</title>
<polygon fill="#ffffff" stroke="transparent" points="-4,4 -4,-115 2413,-115 2413,4 -4,4"/>
<!-- T25617 -->
<g id="node1" class="node">
<title>T25617</title>
<polygon fill="none" stroke="#0058ad" points="0,-81.5 0,-110.5 2409,-110.5 2409,-81.5 0,-81.5"/>
<text text-anchor="middle" x="32" y="-92.3" font-family="Times,serif" font-size="14.00" fill="#0058ad">a 125 59</text>
<polyline fill="none" stroke="#0058ad" points="64,-81.5 64,-110.5 "/>
<text text-anchor="middle" x="543.5" y="-92.3" font-family="Times,serif" font-size="14.00" fill="#0058ad">r 128 [1 2 3 4 5 6 7 8 9 10 11 12 13 14 15 16 17 18 19 20 21 22 23 24 25 26 27 28 29 30 31 32 33 34 35 36 37 38 39 40 41 42 43 44 45 46 47 48 49 50 51 52 53 55 56 57]</text>
<polyline fill="none" stroke="#0058ad" points="1023,-81.5 1023,-110.5 "/>
<text text-anchor="middle" x="1055" y="-92.3" font-family="Times,serif" font-size="14.00" fill="#0058ad">a 128 54</text>
<polyline fill="none" stroke="#0058ad" points="1087,-81.5 1087,-110.5 "/>
<text text-anchor="middle" x="1748" y="-92.3" font-family="Times,serif" font-size="14.00" fill="#0058ad">r 126 [1 2 3 4 5 6 7 8 9 10 12 13 14 15 16 17 18 19 20 21 22 23 25 26 27 28 30 32 33 34 35 36 38 39 37 40 41 42 43 44 47 45 46 48 49 50 51 52 53 54 55 56 57 58 59 60 61 62 63 64 65 66 67 68 69 70 71 72 73 74 75 76 77 78 79 80 81]</text>
</g>
<!-- T25613 -->
<g id="node2" class="node">
<title>T25613</title>
<polygon fill="none" stroke="#0058ad" points="1114,-.5 1114,-29.5 2137,-29.5 2137,-.5 1114,-.5"/>
<text text-anchor="middle" x="1146" y="-11.3" font-family="Times,serif" font-size="14.00" fill="#0058ad">a 126 84</text>
<polyline fill="none" stroke="#0058ad" points="1178,-.5 1178,-29.5 "/>
<text text-anchor="middle" x="1657.5" y="-11.3" font-family="Times,serif" font-size="14.00" fill="#0058ad">r 128 [1 2 3 4 5 6 7 8 9 10 11 12 13 14 15 16 17 18 19 20 21 22 23 24 25 26 27 28 29 30 31 32 33 34 35 36 37 38 39 40 41 42 43 44 45 46 47 48 49 50 51 52 53 55 56 57]</text>
</g>
<!-- T25617&#45;&gt;T25613 -->
<g id="edge1" class="edge">
<title>T25617:f3&#45;&gt;T25613:f0</title>
<path fill="none" stroke="#5b00c0" d="M1748.5,-81C1748.5,-49.6786 1225.1236,-61.6324 1153.5682,-36.2275"/>
<polygon fill="#5b00c0" stroke="#5b00c0" points="1155.5548,-33.3395 1145.5,-30 1151.2776,-38.8809 1155.5548,-33.3395"/>
<text text-anchor="middle" x="1640" y="-51.8" font-family="Times,serif" font-size="14.00" fill="#5b00c0">rw</text>
</g>
<!-- T25613&#45;&gt;T25617 -->
<g id="edge2" class="edge">
<title>T25613:f1&#45;&gt;T25617:f2</title>
<path fill="none" stroke="#5b00c0" d="M1657.5,-30C1657.5,-53.1327 1264.4956,-45.4845 1241.5,-48 1161.21,-56.783 1063.3251,-1.6814 1055.0614,-70.9069"/>
<polygon fill="#5b00c0" stroke="#5b00c0" points="1051.5608,-70.821 1054.5,-81 1058.55,-71.2098 1051.5608,-70.821"/>
<text text-anchor="middle" x="1249" y="-51.8" font-family="Times,serif" font-size="14.00" fill="#5b00c0">rw</text>
</g>
</g>
</svg>
