<?xml version="1.0" encoding="UTF-8" standalone="no"?>
<!DOCTYPE svg PUBLIC "-//W3C//DTD SVG 1.1//EN"
 "http://www.w3.org/Graphics/SVG/1.1/DTD/svg11.dtd">
<!-- Generated by graphviz version 2.40.1 (20161225.0304)
 -->
<!-- Title: a_graph Pages: 1 -->
<svg width="3123pt" height="119pt"
 viewBox="0.00 0.00 3122.50 119.00" xmlns="http://www.w3.org/2000/svg" xmlns:xlink="http://www.w3.org/1999/xlink">
<g id="graph0" class="graph" transform="scale(1 1) rotate(0) translate(4 115)">
<title>a_graph</title>
<polygon fill="#ffffff" stroke="transparent" points="-4,4 -4,-115 3118.5,-115 3118.5,4 -4,4"/>
<!-- T35157 -->
<g id="node1" class="node">
<title>T35157</title>
<polygon fill="none" stroke="#0058ad" points="0,-81.5 0,-110.5 2428,-110.5 2428,-81.5 0,-81.5"/>
<text text-anchor="middle" x="1030" y="-92.3" font-family="Times,serif" font-size="14.00" fill="#0058ad">r 174 [1 2 3 5 4 7 8 9 10 11 12 14 15 13 16 6 17 20 21 22 24 25 26 23 28 27 29 30 31 32 33 34 35 38 39 40 36 42 43 47 48 49 50 51 52 53 41 54 55 56 58 59 57 60 61 62 63 64 65 66 67 69 70 71 74 73 75 76 77 79 78 80 72 81 82 85 86 87 83 84 90 91 92 88 89 93 97 96 94 95 99 98 100 101 102 103 104 105 106 107 108 109 110 112 113 111 114 116 117 118 119 120]</text>
<polyline fill="none" stroke="#0058ad" points="2060,-81.5 2060,-110.5 "/>
<text text-anchor="middle" x="2212" y="-92.3" font-family="Times,serif" font-size="14.00" fill="#0058ad">r 176 [1 2 4 5 6 7 3 8 9 10 11 12 13 14 15 16 17 18]</text>
<polyline fill="none" stroke="#0058ad" points="2364,-81.5 2364,-110.5 "/>
<text text-anchor="middle" x="2396" y="-92.3" font-family="Times,serif" font-size="14.00" fill="#0058ad">a 176 19</text>
</g>
<!-- T35155 -->
<g id="node2" class="node">
<title>T35155</title>
<polygon fill="none" stroke="#0058ad" points="655.5,-.5 655.5,-29.5 3114.5,-29.5 3114.5,-.5 655.5,-.5"/>
<text text-anchor="middle" x="691" y="-11.3" font-family="Times,serif" font-size="14.00" fill="#0058ad">a 174 121</text>
<polyline fill="none" stroke="#0058ad" points="726.5,-.5 726.5,-29.5 "/>
<text text-anchor="middle" x="1768.5" y="-11.3" font-family="Times,serif" font-size="14.00" fill="#0058ad">r 174 [1 2 3 5 4 7 8 9 10 11 12 14 15 13 16 6 17 20 21 22 24 25 26 23 28 27 29 30 31 32 33 34 35 38 39 40 36 42 43 47 48 49 50 51 52 53 41 54 55 56 58 59 57 60 61 62 63 64 65 66 67 69 70 71 74 73 75 76 77 79 78 80 72 81 82 85 86 87 83 84 90 91 92 88 89 93 97 96 94 95 99 98 100 101 102 103 104 105 106 107 108 109 110 112 113 111 114 116 117 118 119 120 121]</text>
<polyline fill="none" stroke="#0058ad" points="2810.5,-.5 2810.5,-29.5 "/>
<text text-anchor="middle" x="2962.5" y="-11.3" font-family="Times,serif" font-size="14.00" fill="#0058ad">r 176 [1 2 4 5 6 7 3 8 9 10 11 12 13 14 15 16 17 18]</text>
</g>
<!-- T35157&#45;&gt;T35155 -->
<g id="edge1" class="edge">
<title>T35157:f0&#45;&gt;T35155:f0</title>
<path fill="none" stroke="#5b00c0" d="M1030,-81C1030,67.7912 706.7044,-170.6919 691.5499,-40.0542"/>
<polygon fill="#5b00c0" stroke="#5b00c0" points="695.041,-39.7939 691,-30 688.0515,-40.1763 695.041,-39.7939"/>
<text text-anchor="middle" x="1034.5" y="-51.8" font-family="Times,serif" font-size="14.00" fill="#5b00c0">rw</text>
</g>
<!-- T35155&#45;&gt;T35157 -->
<g id="edge2" class="edge">
<title>T35155:f2&#45;&gt;T35157:f2</title>
<path fill="none" stroke="#5b00c0" d="M2963,-30C2963,-87.263 2528.7348,-95.3596 2438.2263,-95.9606"/>
<polygon fill="#5b00c0" stroke="#5b00c0" points="2437.9864,-92.4614 2428,-96 2438.0135,-99.4613 2437.9864,-92.4614"/>
<text text-anchor="middle" x="2952.5" y="-51.8" font-family="Times,serif" font-size="14.00" fill="#5b00c0">rw</text>
</g>
</g>
</svg>
