<?xml version="1.0" encoding="UTF-8" standalone="no"?>
<!DOCTYPE svg PUBLIC "-//W3C//DTD SVG 1.1//EN"
 "http://www.w3.org/Graphics/SVG/1.1/DTD/svg11.dtd">
<!-- Generated by graphviz version 2.40.1 (20161225.0304)
 -->
<!-- Title: a_graph Pages: 1 -->
<svg width="536pt" height="119pt"
 viewBox="0.00 0.00 536.00 119.00" xmlns="http://www.w3.org/2000/svg" xmlns:xlink="http://www.w3.org/1999/xlink">
<g id="graph0" class="graph" transform="scale(1 1) rotate(0) translate(4 115)">
<title>a_graph</title>
<polygon fill="#ffffff" stroke="transparent" points="-4,4 -4,-115 532,-115 532,4 -4,4"/>
<!-- T24291 -->
<g id="node1" class="node">
<title>T24291</title>
<polygon fill="none" stroke="#0058ad" points="263,-81.5 263,-110.5 423,-110.5 423,-81.5 263,-81.5"/>
<text text-anchor="middle" x="311" y="-92.3" font-family="Times,serif" font-size="14.00" fill="#0058ad">r 123 [1 2 3 4]</text>
<polyline fill="none" stroke="#0058ad" points="359,-81.5 359,-110.5 "/>
<text text-anchor="middle" x="391" y="-92.3" font-family="Times,serif" font-size="14.00" fill="#0058ad">a 122 25</text>
</g>
<!-- T24289 -->
<g id="node2" class="node">
<title>T24289</title>
<polygon fill="none" stroke="#0058ad" points="0,-.5 0,-29.5 528,-29.5 528,-.5 0,-.5"/>
<text text-anchor="middle" x="203.5" y="-11.3" font-family="Times,serif" font-size="14.00" fill="#0058ad">r 122 [1 2 3 4 5 6 7 8 9 10 11 13 12 14 15 16 17 18 20 19 22 23 24 21]</text>
<polyline fill="none" stroke="#0058ad" points="407,-.5 407,-29.5 "/>
<text text-anchor="middle" x="439" y="-11.3" font-family="Times,serif" font-size="14.00" fill="#0058ad">a 116 55</text>
<polyline fill="none" stroke="#0058ad" points="471,-.5 471,-29.5 "/>
<text text-anchor="middle" x="499.5" y="-11.3" font-family="Times,serif" font-size="14.00" fill="#0058ad">a 123 5</text>
</g>
<!-- T24291&#45;&gt;T24289 -->
<g id="edge1" class="edge">
<title>T24291:f0&#45;&gt;T24289:f2</title>
<path fill="none" stroke="#5b00c0" d="M311,-81C311,-60.2582 325.3243,-57.0245 344,-48 371.9839,-34.4775 473.8627,-58.4446 495.8139,-39.1962"/>
<polygon fill="#5b00c0" stroke="#5b00c0" points="499.0425,-40.5515 500,-30 492.6715,-37.6514 499.0425,-40.5515"/>
<text text-anchor="middle" x="351.5" y="-51.8" font-family="Times,serif" font-size="14.00" fill="#5b00c0">rw</text>
</g>
<!-- T24289&#45;&gt;T24291 -->
<g id="edge2" class="edge">
<title>T24289:f0&#45;&gt;T24291:f1</title>
<path fill="none" stroke="#5b00c0" d="M203,-30C203,-64.8967 327.6972,-32.5756 359,-48 373.7467,-55.2664 385.4811,-58.9778 389.5023,-70.7955"/>
<polygon fill="#5b00c0" stroke="#5b00c0" points="386.0849,-71.6142 391,-81 393.0107,-70.5977 386.0849,-71.6142"/>
<text text-anchor="middle" x="391.5" y="-51.8" font-family="Times,serif" font-size="14.00" fill="#5b00c0">rw</text>
</g>
</g>
</svg>
