<?xml version="1.0" encoding="UTF-8" standalone="no"?>
<!DOCTYPE svg PUBLIC "-//W3C//DTD SVG 1.1//EN"
 "http://www.w3.org/Graphics/SVG/1.1/DTD/svg11.dtd">
<!-- Generated by graphviz version 2.40.1 (20161225.0304)
 -->
<!-- Title: a_graph Pages: 1 -->
<svg width="3454pt" height="119pt"
 viewBox="0.00 0.00 3454.00 119.00" xmlns="http://www.w3.org/2000/svg" xmlns:xlink="http://www.w3.org/1999/xlink">
<g id="graph0" class="graph" transform="scale(1 1) rotate(0) translate(4 115)">
<title>a_graph</title>
<polygon fill="#ffffff" stroke="transparent" points="-4,4 -4,-115 3450,-115 3450,4 -4,4"/>
<!-- T4827 -->
<g id="node1" class="node">
<title>T4827</title>
<polygon fill="none" stroke="#0058ad" points="0,-81.5 0,-110.5 3446,-110.5 3446,-81.5 0,-81.5"/>
<text text-anchor="middle" x="25" y="-92.3" font-family="Times,serif" font-size="14.00" fill="#0058ad">a 29 8</text>
<polyline fill="none" stroke="#0058ad" points="50,-81.5 50,-110.5 "/>
<text text-anchor="middle" x="724.5" y="-92.3" font-family="Times,serif" font-size="14.00" fill="#0058ad">r 5 [1 2 3 4 5 6 8 9 10 11 12 13 16 17 18 20 21 22 23 24 25 26 27 28 32 33 34 35 36 37 38 39 40 41 42 43 44 45 46 47 48 49 50 53 54 55 56 57 58 59 60 61 62 63 64 65 66 67 68 70 71 73 74 76 77 78 79 80 81 82 83 84 85 86 87 88 89 90 91]</text>
<polyline fill="none" stroke="#0058ad" points="1399,-81.5 1399,-110.5 "/>
<text text-anchor="middle" x="2422.5" y="-92.3" font-family="Times,serif" font-size="14.00" fill="#0058ad">r 24 [1 2 4 5 6 7 8 9 10 11 12 13 14 15 16 17 18 19 20 21 22 23 24 25 26 27 28 29 31 32 33 34 35 36 37 38 39 40 42 41 44 45 46 47 48 49 50 51 52 53 54 55 56 57 58 59 60 61 62 63 65 66 67 68 69 70 71 72 73 74 75 76 77 78 79 80 81 82 84 85 86 87 88 89 90 91 92 93 94 95 96 97 98 99 101 102 103 104 106 107 108 109 110 111 112 114 115 116 117 118 119 120]</text>
</g>
<!-- T4825 -->
<g id="node2" class="node">
<title>T4825</title>
<polygon fill="none" stroke="#0058ad" points="1145.5,-.5 1145.5,-29.5 1330.5,-29.5 1330.5,-.5 1145.5,-.5"/>
<text text-anchor="middle" x="1177.5" y="-11.3" font-family="Times,serif" font-size="14.00" fill="#0058ad">a 24 121</text>
<polyline fill="none" stroke="#0058ad" points="1209.5,-.5 1209.5,-29.5 "/>
<text text-anchor="middle" x="1270" y="-11.3" font-family="Times,serif" font-size="14.00" fill="#0058ad">r 29 [1 2 3 4 5 6 7]</text>
</g>
<!-- T4827&#45;&gt;T4825 -->
<g id="edge1" class="edge">
<title>T4827:f2&#45;&gt;T4825:f0</title>
<path fill="none" stroke="#5b00c0" d="M2423,-81C2423,54.0422 1239.4702,-157.3128 1179.369,-39.861"/>
<polygon fill="#5b00c0" stroke="#5b00c0" points="1182.7392,-38.9057 1177,-30 1175.9329,-40.541 1182.7392,-38.9057"/>
<text text-anchor="middle" x="2417.5" y="-51.8" font-family="Times,serif" font-size="14.00" fill="#5b00c0">rw</text>
</g>
<!-- T4825&#45;&gt;T4827 -->
<g id="edge2" class="edge">
<title>T4825:f1&#45;&gt;T4827:f0</title>
<path fill="none" stroke="#5b00c0" d="M1270,-30C1270,-62.8885 145.9254,-48.0719 33.9571,-76.2086"/>
<polygon fill="#5b00c0" stroke="#5b00c0" points="32.1668,-73.1969 25,-81 35.4686,-79.3693 32.1668,-73.1969"/>
<text text-anchor="middle" x="1068.5" y="-51.8" font-family="Times,serif" font-size="14.00" fill="#5b00c0">rw</text>
</g>
</g>
</svg>
