<?xml version="1.0" encoding="UTF-8" standalone="no"?>
<!DOCTYPE svg PUBLIC "-//W3C//DTD SVG 1.1//EN"
 "http://www.w3.org/Graphics/SVG/1.1/DTD/svg11.dtd">
<!-- Generated by graphviz version 2.40.1 (20161225.0304)
 -->
<!-- Title: a_graph Pages: 1 -->
<svg width="4058pt" height="119pt"
 viewBox="0.00 0.00 4057.50 119.00" xmlns="http://www.w3.org/2000/svg" xmlns:xlink="http://www.w3.org/1999/xlink">
<g id="graph0" class="graph" transform="scale(1 1) rotate(0) translate(4 115)">
<title>a_graph</title>
<polygon fill="#ffffff" stroke="transparent" points="-4,4 -4,-115 4053.5,-115 4053.5,4 -4,4"/>
<!-- T25629 -->
<g id="node1" class="node">
<title>T25629</title>
<polygon fill="none" stroke="#0058ad" points="0,-81.5 0,-110.5 2087,-110.5 2087,-81.5 0,-81.5"/>
<text text-anchor="middle" x="488.5" y="-92.3" font-family="Times,serif" font-size="14.00" fill="#0058ad">r 125 [1 2 3 4 5 7 6 8 9 10 11 12 13 14 15 16 17 18 19 20 22 23 24 25 26 27 28 29 31 32 33 35 36 37 38 39 41 42 43 44 45 46 47 49 48 50 51 52 53 54 55 56 57 58 59 60 61]</text>
<polyline fill="none" stroke="#0058ad" points="977,-81.5 977,-110.5 "/>
<text text-anchor="middle" x="1500" y="-92.3" font-family="Times,serif" font-size="14.00" fill="#0058ad">r 128 [1 2 3 4 5 6 7 8 9 10 11 12 13 14 15 16 17 18 19 20 21 22 23 24 25 26 27 28 29 30 31 32 33 34 35 36 37 38 39 40 41 42 43 44 45 46 47 48 49 50 51 52 53 55 56 57 54 62 65 66 67]</text>
<polyline fill="none" stroke="#0058ad" points="2023,-81.5 2023,-110.5 "/>
<text text-anchor="middle" x="2055" y="-92.3" font-family="Times,serif" font-size="14.00" fill="#0058ad">a 126 87</text>
</g>
<!-- T25631 -->
<g id="node2" class="node">
<title>T25631</title>
<polygon fill="none" stroke="#0058ad" points="721.5,-.5 721.5,-29.5 4049.5,-29.5 4049.5,-.5 721.5,-.5"/>
<text text-anchor="middle" x="753.5" y="-11.3" font-family="Times,serif" font-size="14.00" fill="#0058ad">a 128 63</text>
<polyline fill="none" stroke="#0058ad" points="785.5,-.5 785.5,-29.5 "/>
<text text-anchor="middle" x="1699" y="-11.3" font-family="Times,serif" font-size="14.00" fill="#0058ad">r 116 [2 4 3 5 6 7 8 9 10 11 12 13 14 15 16 17 18 19 20 21 22 23 24 25 26 27 28 29 30 31 33 34 35 36 37 38 39 40 41 42 43 45 46 49 50 51 52 53 54 55 56 57 58 59 60 61 62 63 64 65 66 68 67 69 70 71 72 73 75 74 76 78 77 79 80 84 83 85 86 87 88 89 90 91 92 93 94 95 97 96 98 99 100 101 102 103 104 105 106 107 108 109]</text>
<polyline fill="none" stroke="#0058ad" points="2612.5,-.5 2612.5,-29.5 "/>
<text text-anchor="middle" x="3299" y="-11.3" font-family="Times,serif" font-size="14.00" fill="#0058ad">r 126 [1 2 3 4 5 6 7 8 9 10 12 13 14 15 16 17 18 19 20 21 22 23 25 26 27 28 30 32 33 34 35 36 38 39 37 40 41 42 43 44 47 45 46 48 49 50 51 52 53 54 55 56 57 58 59 60 61 62 63 64 65 66 67 68 69 70 71 72 73 74 75 76 77 78 79 80 81 84 85 86]</text>
<polyline fill="none" stroke="#0058ad" points="3985.5,-.5 3985.5,-29.5 "/>
<text text-anchor="middle" x="4017.5" y="-11.3" font-family="Times,serif" font-size="14.00" fill="#0058ad">a 128 64</text>
</g>
<!-- T25629&#45;&gt;T25631 -->
<g id="edge1" class="edge">
<title>T25629:f1&#45;&gt;T25631:f0</title>
<path fill="none" stroke="#5b00c0" d="M1500.5,-81C1500.5,81.8117 785.2529,-184.4859 754.5196,-40.1124"/>
<polygon fill="#5b00c0" stroke="#5b00c0" points="757.9856,-39.5984 753.5,-30 751.0209,-40.3007 757.9856,-39.5984"/>
<text text-anchor="middle" x="1501" y="-51.8" font-family="Times,serif" font-size="14.00" fill="#5b00c0">rw</text>
</g>
<!-- T25631&#45;&gt;T25629 -->
<g id="edge2" class="edge">
<title>T25631:f2&#45;&gt;T25629:f2</title>
<path fill="none" stroke="#5b00c0" d="M3299.5,-30C3299.5,-62.3007 2218.0962,-93.2862 2097.6303,-95.8315"/>
<polygon fill="#5b00c0" stroke="#5b00c0" points="2097.4404,-92.3341 2087.5,-96 2097.5569,-99.3331 2097.4404,-92.3341"/>
<text text-anchor="middle" x="3184" y="-51.8" font-family="Times,serif" font-size="14.00" fill="#5b00c0">rw</text>
</g>
</g>
</svg>
