<?xml version="1.0" encoding="UTF-8" standalone="no"?>
<!DOCTYPE svg PUBLIC "-//W3C//DTD SVG 1.1//EN"
 "http://www.w3.org/Graphics/SVG/1.1/DTD/svg11.dtd">
<!-- Generated by graphviz version 2.40.1 (20161225.0304)
 -->
<!-- Title: a_graph Pages: 1 -->
<svg width="2568pt" height="200pt"
 viewBox="0.00 0.00 2568.00 200.00" xmlns="http://www.w3.org/2000/svg" xmlns:xlink="http://www.w3.org/1999/xlink">
<g id="graph0" class="graph" transform="scale(1 1) rotate(0) translate(4 196)">
<title>a_graph</title>
<polygon fill="#ffffff" stroke="transparent" points="-4,4 -4,-196 2564,-196 2564,4 -4,4"/>
<!-- T32627 -->
<g id="node1" class="node">
<title>T32627</title>
<polygon fill="none" stroke="#0058ad" points="1202,-162.5 1202,-191.5 2560,-191.5 2560,-162.5 1202,-162.5"/>
<text text-anchor="middle" x="1234" y="-173.3" font-family="Times,serif" font-size="14.00" fill="#0058ad">a 162 77</text>
<polyline fill="none" stroke="#0058ad" points="1266,-162.5 1266,-191.5 "/>
<text text-anchor="middle" x="1913" y="-173.3" font-family="Times,serif" font-size="14.00" fill="#0058ad">r 162 [2 3 1 5 6 7 8 9 11 13 10 14 15 17 16 12 18 19 20 21 23 22 24 26 27 25 30 28 29 32 33 31 34 35 37 38 39 40 41 42 43 44 45 46 48 49 50 51 52 53 54 55 56 57 58 59 60 61 62 63 47 64 65 67 68 69 70 71 66 72 73 74 75 76 77]</text>
</g>
<!-- T32629 -->
<g id="node3" class="node">
<title>T32629</title>
<polygon fill="none" stroke="#0058ad" points="0,-81.5 0,-110.5 1610,-110.5 1610,-81.5 0,-81.5"/>
<text text-anchor="middle" x="32" y="-92.3" font-family="Times,serif" font-size="14.00" fill="#0058ad">a 162 79</text>
<polyline fill="none" stroke="#0058ad" points="64,-81.5 64,-110.5 "/>
<text text-anchor="middle" x="837" y="-92.3" font-family="Times,serif" font-size="14.00" fill="#0058ad">r 158 [2 1 3 4 5 7 6 8 9 12 11 13 14 15 16 17 18 19 20 21 22 23 24 25 27 26 28 29 30 32 31 33 35 34 36 40 42 43 44 45 46 47 48 49 50 51 52 53 55 56 57 58 59 60 61 62 65 66 67 68 69 70 71 72 73 75 74 76 77 78 79 80 81 82 84 85 86 87 88 89 90 91 92 94 95 93 96 97 98 99]</text>
</g>
<!-- T32627&#45;&gt;T32629 -->
<g id="edge1" class="edge">
<title>T32627:f0&#45;&gt;T32629:f0</title>
<path fill="none" stroke="#c02700" d="M1202,-177C1139.6941,-177 125.0323,-176.1787 37.9498,-119.0416"/>
<polygon fill="#c02700" stroke="#c02700" points="40.7615,-116.9572 32,-111 35.1342,-121.1207 40.7615,-116.9572"/>
<text text-anchor="middle" x="158" y="-132.8" font-family="Times,serif" font-size="14.00" fill="#c02700">ww</text>
</g>
<!-- T32631 -->
<g id="node2" class="node">
<title>T32631</title>
<polygon fill="none" stroke="#0058ad" points="840,-.5 840,-29.5 2304,-29.5 2304,-.5 840,-.5"/>
<text text-anchor="middle" x="875.5" y="-11.3" font-family="Times,serif" font-size="14.00" fill="#0058ad">a 158 100</text>
<polyline fill="none" stroke="#0058ad" points="911,-.5 911,-29.5 "/>
<text text-anchor="middle" x="940" y="-11.3" font-family="Times,serif" font-size="14.00" fill="#0058ad">r 164 []</text>
<polyline fill="none" stroke="#0058ad" points="969,-.5 969,-29.5 "/>
<text text-anchor="middle" x="1607.5" y="-11.3" font-family="Times,serif" font-size="14.00" fill="#0058ad">r 162 [2 3 1 5 6 7 8 9 11 13 10 14 15 17 16 12 18 19 20 21 23 22 24 26 27 25 30 28 29 32 33 31 34 35 37 38 39 40 41 42 43 44 45 46 48 49 50 51 52 53 54 55 56 57 58 59 60 61 62 63 47 64 65 67 68 69 70 71 66 72 73 74 75 76]</text>
<polyline fill="none" stroke="#0058ad" points="2246,-.5 2246,-29.5 "/>
<text text-anchor="middle" x="2275" y="-11.3" font-family="Times,serif" font-size="14.00" fill="#0058ad">r 164 []</text>
</g>
<!-- T32631&#45;&gt;T32627 -->
<g id="edge2" class="edge">
<title>T32631:f2&#45;&gt;T32627:f0</title>
<path fill="none" stroke="#5b00c0" d="M1608,-30C1608,-38.9103 1629.05,-99.5309 1619,-111 1564.5665,-173.1197 1261.6972,-84.0041 1235.7699,-151.8802"/>
<polygon fill="#5b00c0" stroke="#5b00c0" points="1232.2752,-151.5465 1234,-162 1239.1705,-152.7525 1232.2752,-151.5465"/>
<text text-anchor="middle" x="1628.5" y="-92.3" font-family="Times,serif" font-size="14.00" fill="#5b00c0">rw</text>
</g>
<!-- T32629&#45;&gt;T32631 -->
<g id="edge3" class="edge">
<title>T32629:f1&#45;&gt;T32631:f0</title>
<path fill="none" stroke="#5b00c0" d="M837,-81C837,-56.7082 865.064,-57.3789 872.957,-40.1078"/>
<polygon fill="#5b00c0" stroke="#5b00c0" points="876.4494,-40.4952 875,-30 869.5881,-39.1083 876.4494,-40.4952"/>
<text text-anchor="middle" x="873.5" y="-51.8" font-family="Times,serif" font-size="14.00" fill="#5b00c0">rw</text>
</g>
</g>
</svg>
