<?xml version="1.0" encoding="UTF-8" standalone="no"?>
<!DOCTYPE svg PUBLIC "-//W3C//DTD SVG 1.1//EN"
 "http://www.w3.org/Graphics/SVG/1.1/DTD/svg11.dtd">
<!-- Generated by graphviz version 2.40.1 (20161225.0304)
 -->
<!-- Title: a_graph Pages: 1 -->
<svg width="2944pt" height="281pt"
 viewBox="0.00 0.00 2944.00 281.00" xmlns="http://www.w3.org/2000/svg" xmlns:xlink="http://www.w3.org/1999/xlink">
<g id="graph0" class="graph" transform="scale(1 1) rotate(0) translate(4 277)">
<title>a_graph</title>
<polygon fill="#ffffff" stroke="transparent" points="-4,4 -4,-277 2940,-277 2940,4 -4,4"/>
<!-- T34015 -->
<g id="node1" class="node">
<title>T34015</title>
<polygon fill="none" stroke="#0058ad" points="408.5,-243.5 408.5,-272.5 833.5,-272.5 833.5,-243.5 408.5,-243.5"/>
<text text-anchor="middle" x="467" y="-254.3" font-family="Times,serif" font-size="14.00" fill="#0058ad">r 170 [2 3 4 5 6 7]</text>
<polyline fill="none" stroke="#0058ad" points="525.5,-243.5 525.5,-272.5 "/>
<text text-anchor="middle" x="608.5" y="-254.3" font-family="Times,serif" font-size="14.00" fill="#0058ad">r 171 [1 2 3 4 5 6 7 8 10 9]</text>
<polyline fill="none" stroke="#0058ad" points="691.5,-243.5 691.5,-272.5 "/>
<text text-anchor="middle" x="727" y="-254.3" font-family="Times,serif" font-size="14.00" fill="#0058ad">a 168 101</text>
<polyline fill="none" stroke="#0058ad" points="762.5,-243.5 762.5,-272.5 "/>
<text text-anchor="middle" x="798" y="-254.3" font-family="Times,serif" font-size="14.00" fill="#0058ad">a 168 102</text>
</g>
<!-- T34021 -->
<g id="node2" class="node">
<title>T34021</title>
<polygon fill="none" stroke="#0058ad" points="0,-.5 0,-29.5 2936,-29.5 2936,-.5 0,-.5"/>
<text text-anchor="middle" x="32" y="-11.3" font-family="Times,serif" font-size="14.00" fill="#0058ad">a 171 11</text>
<polyline fill="none" stroke="#0058ad" points="64,-.5 64,-29.5 "/>
<text text-anchor="middle" x="96" y="-11.3" font-family="Times,serif" font-size="14.00" fill="#0058ad">a 171 12</text>
<polyline fill="none" stroke="#0058ad" points="128,-.5 128,-29.5 "/>
<text text-anchor="middle" x="688.5" y="-11.3" font-family="Times,serif" font-size="14.00" fill="#0058ad">r 166 [1 2 4 5 6 7 8 9 10 11 13 14 15 16 17 18 19 21 22 24 20 26 25 27 28 30 29 32 31 35 34 36 37 38 40 41 43 45 46 47 48 49 50 51 52 53 54 57 56 58 59 60 61 62 63 64 65 66 67 68 69 70 71 72 73]</text>
<polyline fill="none" stroke="#0058ad" points="1249,-.5 1249,-29.5 "/>
<text text-anchor="middle" x="2092.5" y="-11.3" font-family="Times,serif" font-size="14.00" fill="#0058ad">r 168 [1 2 3 6 7 8 9 10 11 13 12 14 16 17 18 15 19 21 20 22 23 24 25 26 27 28 29 30 31 32 33 35 36 34 37 38 40 39 41 42 43 44 45 46 47 48 49 50 51 52 53 54 55 56 57 58 59 60 61 62 63 64 65 67 66 69 70 68 71 72 73 74 75 76 77 78 79 80 81 82 83 84 85 86 87 89 90 91 92 93 94 95 96 98 97 99 100]</text>
</g>
<!-- T34015&#45;&gt;T34021 -->
<g id="edge1" class="edge">
<title>T34015:f1&#45;&gt;T34021:f0</title>
<path fill="none" stroke="#5b00c0" d="M608,-243C608,-118.7045 140.0012,-278.765 51,-192 1.626,-143.8665 28.9885,-106.3204 31.7783,-40.3842"/>
<polygon fill="#5b00c0" stroke="#5b00c0" points="35.2857,-40.0725 32,-30 28.2873,-39.923 35.2857,-40.0725"/>
<text text-anchor="middle" x="31.5" y="-132.8" font-family="Times,serif" font-size="14.00" fill="#5b00c0">rw</text>
</g>
<!-- T34017 -->
<g id="node3" class="node">
<title>T34017</title>
<polygon fill="none" stroke="#0058ad" points="60.5,-162.5 60.5,-191.5 1181.5,-191.5 1181.5,-162.5 60.5,-162.5"/>
<text text-anchor="middle" x="621" y="-173.3" font-family="Times,serif" font-size="14.00" fill="#0058ad">r 166 [1 2 4 5 6 7 8 9 10 11 13 14 15 16 17 18 19 21 22 24 20 26 25 27 28 30 29 32 31 35 34 36 37 38 40 41 43 45 46 47 48 49 50 51 52 53 54 57 56 58 59 60 61 62 63 64 65 66 67 68 69 70 71 72 73]</text>
</g>
<!-- T34015&#45;&gt;T34017 -->
<g id="edge2" class="edge">
<title>T34015&#45;&gt;T34017</title>
<path fill="none" stroke="#0050c0" d="M621,-243.1434C621,-231.6112 621,-215.3668 621,-201.8626"/>
<polygon fill="#0050c0" stroke="#0050c0" points="624.5001,-201.7624 621,-191.7625 617.5001,-201.7625 624.5001,-201.7624"/>
<text text-anchor="middle" x="625.5" y="-213.8" font-family="Times,serif" font-size="14.00" fill="#0050c0">rt</text>
</g>
<!-- T34021&#45;&gt;T34015 -->
<g id="edge3" class="edge">
<title>T34021:f3&#45;&gt;T34015:f2</title>
<path fill="none" stroke="#5b00c0" d="M2093,-30C2093,-437.3032 1594.1115,-133.716 1191,-192 1142.876,-198.958 777.172,-192.1086 731.647,-233.9615"/>
<polygon fill="#5b00c0" stroke="#5b00c0" points="728.4598,-232.5062 727,-243 734.6852,-235.7069 728.4598,-232.5062"/>
<text text-anchor="middle" x="2085.5" y="-132.8" font-family="Times,serif" font-size="14.00" fill="#5b00c0">rw</text>
</g>
<!-- T34019 -->
<g id="node4" class="node">
<title>T34019</title>
<polygon fill="none" stroke="#0058ad" points="220,-81.5 220,-110.5 386,-110.5 386,-81.5 220,-81.5"/>
<text text-anchor="middle" x="303" y="-92.3" font-family="Times,serif" font-size="14.00" fill="#0058ad">r 171 [1 2 3 4 5 6 7 8 10 9]</text>
</g>
<!-- T34017&#45;&gt;T34019 -->
<g id="edge4" class="edge">
<title>T34017&#45;&gt;T34019</title>
<path fill="none" stroke="#0050c0" d="M563.7807,-162.4253C509.266,-148.5395 427.2131,-127.6392 369.7443,-113.0009"/>
<polygon fill="#0050c0" stroke="#0050c0" points="370.5818,-109.6026 360.0273,-110.5258 368.8539,-116.386 370.5818,-109.6026"/>
<text text-anchor="middle" x="495.5" y="-132.8" font-family="Times,serif" font-size="14.00" fill="#0050c0">rt</text>
</g>
<!-- T34019&#45;&gt;T34021 -->
<g id="edge5" class="edge">
<title>T34019:f0&#45;&gt;T34021:f0</title>
<path fill="none" stroke="#5b00c0" d="M228.5896,-81.4979C161.2117,-67.9277 68.3456,-47.9897 40.3277,-35.9365"/>
<polygon fill="#5b00c0" stroke="#5b00c0" points="42.1745,-32.9548 32,-30 38.1112,-38.6547 42.1745,-32.9548"/>
<text text-anchor="middle" x="143.5" y="-51.8" font-family="Times,serif" font-size="14.00" fill="#5b00c0">rw</text>
</g>
</g>
</svg>
