<?xml version="1.0" encoding="UTF-8" standalone="no"?>
<!DOCTYPE svg PUBLIC "-//W3C//DTD SVG 1.1//EN"
 "http://www.w3.org/Graphics/SVG/1.1/DTD/svg11.dtd">
<!-- Generated by graphviz version 2.40.1 (20161225.0304)
 -->
<!-- Title: a_graph Pages: 1 -->
<svg width="2457pt" height="200pt"
 viewBox="0.00 0.00 2457.00 200.00" xmlns="http://www.w3.org/2000/svg" xmlns:xlink="http://www.w3.org/1999/xlink">
<g id="graph0" class="graph" transform="scale(1 1) rotate(0) translate(4 196)">
<title>a_graph</title>
<polygon fill="#ffffff" stroke="transparent" points="-4,4 -4,-196 2453,-196 2453,4 -4,4"/>
<!-- T37441 -->
<g id="node1" class="node">
<title>T37441</title>
<polygon fill="none" stroke="#0058ad" points="0,-162.5 0,-191.5 1884,-191.5 1884,-162.5 0,-162.5"/>
<text text-anchor="middle" x="367.5" y="-173.3" font-family="Times,serif" font-size="14.00" fill="#0058ad">r 186 [1 2 3 4 5 7 8 9 6 13 10 11 12 14 16 17 18 20 15 19 21 24 25 26 27 30 31 29 33 32 35 36 37 38 39 34 40 42 43 44 45 48 46]</text>
<polyline fill="none" stroke="#0058ad" points="735,-162.5 735,-191.5 "/>
<text text-anchor="middle" x="1102.5" y="-173.3" font-family="Times,serif" font-size="14.00" fill="#0058ad">r 186 [1 2 3 4 5 7 8 9 6 13 10 11 12 14 16 17 18 20 15 19 21 24 25 26 27 30 31 29 33 32 35 36 37 38 39 34 40 42 43 44 45 48 46]</text>
<polyline fill="none" stroke="#0058ad" points="1470,-162.5 1470,-191.5 "/>
<text text-anchor="middle" x="1573.5" y="-173.3" font-family="Times,serif" font-size="14.00" fill="#0058ad">r 187 [3 1 2 4 5 6 9 10 7 11 12 14]</text>
<polyline fill="none" stroke="#0058ad" points="1677,-162.5 1677,-191.5 "/>
<text text-anchor="middle" x="1780.5" y="-173.3" font-family="Times,serif" font-size="14.00" fill="#0058ad">r 187 [3 1 2 4 5 6 9 10 7 11 12 14]</text>
</g>
<!-- T37445 -->
<g id="node2" class="node">
<title>T37445</title>
<polygon fill="none" stroke="#0058ad" points="885,-81.5 885,-110.5 2449,-110.5 2449,-81.5 885,-81.5"/>
<text text-anchor="middle" x="917" y="-92.3" font-family="Times,serif" font-size="14.00" fill="#0058ad">a 182 66</text>
<polyline fill="none" stroke="#0058ad" points="949,-81.5 949,-110.5 "/>
<text text-anchor="middle" x="981" y="-92.3" font-family="Times,serif" font-size="14.00" fill="#0058ad">a 187 15</text>
<polyline fill="none" stroke="#0058ad" points="1013,-81.5 1013,-110.5 "/>
<text text-anchor="middle" x="1372" y="-92.3" font-family="Times,serif" font-size="14.00" fill="#0058ad">r 186 [1 2 3 4 5 7 8 9 6 13 10 11 12 14 16 17 18 20 15 19 21 24 25 26 27 30 31 29 33 32 35 36 37 38 39 34 40 42 43 44 45 48]</text>
<polyline fill="none" stroke="#0058ad" points="1731,-81.5 1731,-110.5 "/>
<text text-anchor="middle" x="2090" y="-92.3" font-family="Times,serif" font-size="14.00" fill="#0058ad">r 186 [1 2 3 4 5 7 8 9 6 13 10 11 12 14 16 17 18 20 15 19 21 24 25 26 27 30 31 29 33 32 35 36 37 38 39 34 40 42 43 44 45 48]</text>
</g>
<!-- T37441&#45;&gt;T37445 -->
<g id="edge1" class="edge">
<title>T37441:f2&#45;&gt;T37445:f1</title>
<path fill="none" stroke="#5b00c0" d="M1574,-162C1574,-33.3524 1012.9863,-231.8454 982.3059,-121.0883"/>
<polygon fill="#5b00c0" stroke="#5b00c0" points="985.7549,-120.4679 981,-111 978.8128,-121.3666 985.7549,-120.4679"/>
<text text-anchor="middle" x="1574.5" y="-132.8" font-family="Times,serif" font-size="14.00" fill="#5b00c0">rw</text>
</g>
<!-- T37439 -->
<g id="node3" class="node">
<title>T37439</title>
<polygon fill="none" stroke="#0058ad" points="122,-.5 122,-29.5 1404,-29.5 1404,-.5 122,-.5"/>
<text text-anchor="middle" x="648" y="-11.3" font-family="Times,serif" font-size="14.00" fill="#0058ad">r 182 [2 3 4 5 7 6 8 9 10 11 12 13 14 15 16 17 18 19 20 21 22 23 24 25 26 28 29 30 31 32 33 34 35 36 37 38 39 40 41 43 42 44 45 46 47 48 50 52 51 53 55 54 56 57 58 59 60 61 62 63 64]</text>
<polyline fill="none" stroke="#0058ad" points="1174,-.5 1174,-29.5 "/>
<text text-anchor="middle" x="1257" y="-11.3" font-family="Times,serif" font-size="14.00" fill="#0058ad">r 185 [1 2 3 4 5 6 7 8 9 10]</text>
<polyline fill="none" stroke="#0058ad" points="1340,-.5 1340,-29.5 "/>
<text text-anchor="middle" x="1372" y="-11.3" font-family="Times,serif" font-size="14.00" fill="#0058ad">a 186 46</text>
</g>
<!-- T37445&#45;&gt;T37439 -->
<g id="edge2" class="edge">
<title>T37445:f2&#45;&gt;T37439:f2</title>
<path fill="none" stroke="#5b00c0" d="M1372,-81C1372,-62.2292 1372,-55.1168 1372,-40.3535"/>
<polygon fill="#5b00c0" stroke="#5b00c0" points="1375.5001,-40 1372,-30 1368.5001,-40 1375.5001,-40"/>
<text text-anchor="middle" x="1379.5" y="-51.8" font-family="Times,serif" font-size="14.00" fill="#5b00c0">rw</text>
</g>
<!-- T37439&#45;&gt;T37441 -->
<g id="edge3" class="edge">
<title>T37439:f2&#45;&gt;T37441:f0</title>
<path fill="none" stroke="#c000a5" d="M1372,-30C1372,-49.9785 672.5716,-43.9885 653,-48 522.3535,-74.7779 374.7047,-27.6679 367.2911,-151.9345"/>
<polygon fill="#c000a5" stroke="#c000a5" points="363.7906,-151.903 367,-162 370.7877,-152.1054 363.7906,-151.903"/>
<text text-anchor="middle" x="411.5" y="-92.3" font-family="Times,serif" font-size="14.00" fill="#c000a5">wr</text>
</g>
<!-- T37439&#45;&gt;T37445 -->
<g id="edge4" class="edge">
<title>T37439:f0&#45;&gt;T37445:f0</title>
<path fill="none" stroke="#5b00c0" d="M648,-30C648,-81.6809 810.9323,-94.6312 874.9359,-95.8931"/>
<polygon fill="#5b00c0" stroke="#5b00c0" points="874.9634,-99.3935 885,-96 875.0378,-92.3939 874.9634,-99.3935"/>
<text text-anchor="middle" x="682.5" y="-51.8" font-family="Times,serif" font-size="14.00" fill="#5b00c0">rw</text>
</g>
</g>
</svg>
