<?xml version="1.0" encoding="UTF-8" standalone="no"?>
<!DOCTYPE svg PUBLIC "-//W3C//DTD SVG 1.1//EN"
 "http://www.w3.org/Graphics/SVG/1.1/DTD/svg11.dtd">
<!-- Generated by graphviz version 2.40.1 (20161225.0304)
 -->
<!-- Title: a_graph Pages: 1 -->
<svg width="2026pt" height="119pt"
 viewBox="0.00 0.00 2026.00 119.00" xmlns="http://www.w3.org/2000/svg" xmlns:xlink="http://www.w3.org/1999/xlink">
<g id="graph0" class="graph" transform="scale(1 1) rotate(0) translate(4 115)">
<title>a_graph</title>
<polygon fill="#ffffff" stroke="transparent" points="-4,4 -4,-115 2022,-115 2022,4 -4,4"/>
<!-- T499 -->
<g id="node1" class="node">
<title>T499</title>
<polygon fill="none" stroke="#0058ad" points="0,-81.5 0,-110.5 2018,-110.5 2018,-81.5 0,-81.5"/>
<text text-anchor="middle" x="328" y="-92.3" font-family="Times,serif" font-size="14.00" fill="#0058ad">r 10 [1 5 6 4 7 8 9 10 11 12 13 14 15 18 16 17 19 20 21 22 23 24 25 26 27 28 29 31 30 32 33 34 35 36 37 38 39 40]</text>
<polyline fill="none" stroke="#0058ad" points="656,-81.5 656,-110.5 "/>
<text text-anchor="middle" x="984" y="-92.3" font-family="Times,serif" font-size="14.00" fill="#0058ad">r 10 [1 5 6 4 7 8 9 10 11 12 13 14 15 18 16 17 19 20 21 22 23 24 25 26 27 28 29 31 30 32 33 34 35 36 37 38 39 40]</text>
<polyline fill="none" stroke="#0058ad" points="1312,-81.5 1312,-110.5 "/>
<text text-anchor="middle" x="1640" y="-92.3" font-family="Times,serif" font-size="14.00" fill="#0058ad">r 10 [1 5 6 4 7 8 9 10 11 12 13 14 15 18 16 17 19 20 21 22 23 24 25 26 27 28 29 31 30 32 33 34 35 36 37 38 39 40]</text>
<polyline fill="none" stroke="#0058ad" points="1968,-81.5 1968,-110.5 "/>
<text text-anchor="middle" x="1993" y="-92.3" font-family="Times,serif" font-size="14.00" fill="#0058ad">a 8 75</text>
</g>
<!-- T501 -->
<g id="node2" class="node">
<title>T501</title>
<polygon fill="none" stroke="#0058ad" points="306,-.5 306,-29.5 1484,-29.5 1484,-.5 306,-.5"/>
<text text-anchor="middle" x="866.5" y="-11.3" font-family="Times,serif" font-size="14.00" fill="#0058ad">r 8 [2 5 6 7 8 9 10 11 12 13 14 15 16 17 18 19 20 21 22 23 24 25 26 27 28 29 30 31 32 34 35 33 36 37 38 39 40 41 42 43 44 46 47 45 48 51 53 55 54 57 60 61 62 63 64 65 66 67 68 71 69 70 72 73 74]</text>
<polyline fill="none" stroke="#0058ad" points="1427,-.5 1427,-29.5 "/>
<text text-anchor="middle" x="1455.5" y="-11.3" font-family="Times,serif" font-size="14.00" fill="#0058ad">a 10 41</text>
</g>
<!-- T499&#45;&gt;T501 -->
<g id="edge1" class="edge">
<title>T499:f0&#45;&gt;T501:f1</title>
<path fill="none" stroke="#5b00c0" d="M328,-81C328,166.3696 1424.2809,-268.2954 1455.3279,-40.2412"/>
<polygon fill="#5b00c0" stroke="#5b00c0" points="1458.8375,-40.2078 1456,-30 1451.8525,-39.7493 1458.8375,-40.2078"/>
<text text-anchor="middle" x="1457.5" y="-51.8" font-family="Times,serif" font-size="14.00" fill="#5b00c0">rw</text>
</g>
<!-- T501&#45;&gt;T499 -->
<g id="edge2" class="edge">
<title>T501:f0&#45;&gt;T499:f3</title>
<path fill="none" stroke="#5b00c0" d="M866,-30C866,-46.7575 1452.2605,-47.2233 1469,-48 1582.0214,-53.2443 1968.5968,30.368 1991.8991,-70.9609"/>
<polygon fill="#5b00c0" stroke="#5b00c0" points="1988.4307,-71.4411 1993,-81 1995.389,-70.678 1988.4307,-71.4411"/>
<text text-anchor="middle" x="1995.5" y="-51.8" font-family="Times,serif" font-size="14.00" fill="#5b00c0">rw</text>
</g>
</g>
</svg>
