<?xml version="1.0" encoding="UTF-8" standalone="no"?>
<!DOCTYPE svg PUBLIC "-//W3C//DTD SVG 1.1//EN"
 "http://www.w3.org/Graphics/SVG/1.1/DTD/svg11.dtd">
<!-- Generated by graphviz version 2.40.1 (20161225.0304)
 -->
<!-- Title: a_graph Pages: 1 -->
<svg width="4361pt" height="200pt"
 viewBox="0.00 0.00 4360.50 200.00" xmlns="http://www.w3.org/2000/svg" xmlns:xlink="http://www.w3.org/1999/xlink">
<g id="graph0" class="graph" transform="scale(1 1) rotate(0) translate(4 196)">
<title>a_graph</title>
<polygon fill="#ffffff" stroke="transparent" points="-4,4 -4,-196 4356.5,-196 4356.5,4 -4,4"/>
<!-- T24891 -->
<g id="node1" class="node">
<title>T24891</title>
<polygon fill="none" stroke="#0058ad" points="1659.5,-162.5 1659.5,-191.5 1723.5,-191.5 1723.5,-162.5 1659.5,-162.5"/>
<text text-anchor="middle" x="1691.5" y="-173.3" font-family="Times,serif" font-size="14.00" fill="#0058ad">a 124 88</text>
</g>
<!-- T24893 -->
<g id="node3" class="node">
<title>T24893</title>
<polygon fill="none" stroke="#0058ad" points="0,-81.5 0,-110.5 1903,-110.5 1903,-81.5 0,-81.5"/>
<text text-anchor="middle" x="951.5" y="-92.3" font-family="Times,serif" font-size="14.00" fill="#0058ad">r 123 [1 2 3 4 5 6 7 10 8 9 11 12 13 14 15 16 17 18 19 20 21 22 23 24 25 26 27 28 29 30 31 32 33 34 35 36 38 41 42 43 45 46 47 48 49 51 50 53 52 54 55 56 58 59 57 61 62 63 64 65 66 67 68 69 71 72 70 73 74 76 75 77 78 79 80 81 82 83 84 85 86 87 88 89 90 91 92 93 94 95 97 96 98 99 100 101 102 103 104 105 106 107 108 109 110 111]</text>
</g>
<!-- T24891&#45;&gt;T24893 -->
<g id="edge1" class="edge">
<title>T24891&#45;&gt;T24893</title>
<path fill="none" stroke="#0050c0" d="M1659.2273,-173.4674C1562.6947,-162.901 1271.9127,-131.0722 1094.5337,-111.6564"/>
<polygon fill="#0050c0" stroke="#0050c0" points="1094.6555,-108.1489 1084.334,-110.5399 1093.8938,-115.1073 1094.6555,-108.1489"/>
<text text-anchor="middle" x="1393" y="-132.8" font-family="Times,serif" font-size="14.00" fill="#0050c0">rt</text>
</g>
<!-- T24897 -->
<g id="node2" class="node">
<title>T24897</title>
<polygon fill="none" stroke="#0058ad" points="1080.5,-.5 1080.5,-29.5 4352.5,-29.5 4352.5,-.5 1080.5,-.5"/>
<text text-anchor="middle" x="1116" y="-11.3" font-family="Times,serif" font-size="14.00" fill="#0058ad">a 123 112</text>
<polyline fill="none" stroke="#0058ad" points="1151.5,-.5 1151.5,-29.5 "/>
<text text-anchor="middle" x="1884.5" y="-11.3" font-family="Times,serif" font-size="14.00" fill="#0058ad">r 124 [1 2 5 6 3 4 9 10 7 11 12 13 14 15 16 17 18 19 20 21 22 23 24 25 26 27 28 29 30 31 34 33 32 35 36 37 38 39 42 43 44 45 40 41 46 47 48 49 50 51 52 53 54 55 56 57 58 59 60 61 62 63 64 65 66 67 68 69 70 71 72 73 74 75 76 77 78 79 80 81 83 82 84 85 86]</text>
<polyline fill="none" stroke="#0058ad" points="2617.5,-.5 2617.5,-29.5 "/>
<text text-anchor="middle" x="2752" y="-11.3" font-family="Times,serif" font-size="14.00" fill="#0058ad">r 125 [1 2 3 4 5 7 6 8 9 10 11 12 13 14 15 16]</text>
<polyline fill="none" stroke="#0058ad" points="2886.5,-.5 2886.5,-29.5 "/>
<text text-anchor="middle" x="3619.5" y="-11.3" font-family="Times,serif" font-size="14.00" fill="#0058ad">r 124 [1 2 5 6 3 4 9 10 7 11 12 13 14 15 16 17 18 19 20 21 22 23 24 25 26 27 28 29 30 31 34 33 32 35 36 37 38 39 42 43 44 45 40 41 46 47 48 49 50 51 52 53 54 55 56 57 58 59 60 61 62 63 64 65 66 67 68 69 70 71 72 73 74 75 76 77 78 79 80 81 83 82 84 85 86]</text>
</g>
<!-- T24897&#45;&gt;T24891 -->
<g id="edge2" class="edge">
<title>T24897:f1&#45;&gt;T24891:f0</title>
<path fill="none" stroke="#5b00c0" d="M1884.5,-30C1884.5,-67.9473 1934.5542,-80.8586 1911.5,-111 1860.9574,-177.0804 1809.0046,-135.7219 1731.9786,-159.1919"/>
<polygon fill="#5b00c0" stroke="#5b00c0" points="1730.8258,-155.8869 1722.4593,-162.3871 1733.0532,-162.5231 1730.8258,-155.8869"/>
<text text-anchor="middle" x="1926" y="-92.3" font-family="Times,serif" font-size="14.00" fill="#5b00c0">rw</text>
</g>
<!-- T24893&#45;&gt;T24897 -->
<g id="edge3" class="edge">
<title>T24893:f0&#45;&gt;T24897:f0</title>
<path fill="none" stroke="#5b00c0" d="M964.1277,-81.1434C984.0413,-59.3579 1025.1638,-20.7555 1070.4668,-15.5796"/>
<polygon fill="#5b00c0" stroke="#5b00c0" points="1070.7185,-19.071 1080.5,-15 1070.3148,-12.0826 1070.7185,-19.071"/>
<text text-anchor="middle" x="1008" y="-51.8" font-family="Times,serif" font-size="14.00" fill="#5b00c0">rw</text>
</g>
</g>
</svg>
