<?xml version="1.0" encoding="UTF-8" standalone="no"?>
<!DOCTYPE svg PUBLIC "-//W3C//DTD SVG 1.1//EN"
 "http://www.w3.org/Graphics/SVG/1.1/DTD/svg11.dtd">
<!-- Generated by graphviz version 2.40.1 (20161225.0304)
 -->
<!-- Title: a_graph Pages: 1 -->
<svg width="1666pt" height="119pt"
 viewBox="0.00 0.00 1666.00 119.00" xmlns="http://www.w3.org/2000/svg" xmlns:xlink="http://www.w3.org/1999/xlink">
<g id="graph0" class="graph" transform="scale(1 1) rotate(0) translate(4 115)">
<title>a_graph</title>
<polygon fill="#ffffff" stroke="transparent" points="-4,4 -4,-115 1662,-115 1662,4 -4,4"/>
<!-- T36767 -->
<g id="node1" class="node">
<title>T36767</title>
<polygon fill="none" stroke="#0058ad" points="152.5,-81.5 152.5,-110.5 1309.5,-110.5 1309.5,-81.5 152.5,-81.5"/>
<text text-anchor="middle" x="587" y="-92.3" font-family="Times,serif" font-size="14.00" fill="#0058ad">r 181 [1 4 6 5 2 3 7 10 11 12 13 15 14 17 18 19 20 21 22 23 24 25 27 28 29 26 32 31 33 34 35 36 37 38 40 39 41 42 43 44 45 46 47 48 49 50 51 52 53 54]</text>
<polyline fill="none" stroke="#0058ad" points="1021.5,-81.5 1021.5,-110.5 "/>
<text text-anchor="middle" x="1053.5" y="-92.3" font-family="Times,serif" font-size="14.00" fill="#0058ad">a 183 97</text>
<polyline fill="none" stroke="#0058ad" points="1085.5,-81.5 1085.5,-110.5 "/>
<text text-anchor="middle" x="1197.5" y="-92.3" font-family="Times,serif" font-size="14.00" fill="#0058ad">r 182 [2 3 4 5 7 6 8 9 10 11 12 13 14]</text>
</g>
<!-- T36763 -->
<g id="node2" class="node">
<title>T36763</title>
<polygon fill="none" stroke="#0058ad" points="0,-.5 0,-29.5 1658,-29.5 1658,-.5 0,-.5"/>
<text text-anchor="middle" x="797" y="-11.3" font-family="Times,serif" font-size="14.00" fill="#0058ad">r 183 [1 2 3 8 5 10 11 4 13 9 14 15 16 19 17 20 21 22 23 24 25 26 18 27 29 28 30 31 32 33 34 36 35 38 37 39 42 43 40 44 41 46 45 48 47 50 49 51 52 53 54 55 56 57 58 59 61 60 62 63 64 66 67 68 69 70 65 71 73 74 75 76 77 72 78 79 80 81 82 83 84 85 86 87 88 89 90 94 91 92 95 96]</text>
<polyline fill="none" stroke="#0058ad" points="1594,-.5 1594,-29.5 "/>
<text text-anchor="middle" x="1626" y="-11.3" font-family="Times,serif" font-size="14.00" fill="#0058ad">a 182 15</text>
</g>
<!-- T36767&#45;&gt;T36763 -->
<g id="edge1" class="edge">
<title>T36767:f2&#45;&gt;T36763:f1</title>
<path fill="none" stroke="#5b00c0" d="M1310,-96C1342.9264,-96 1581.6846,-70.6094 1620.6343,-38.6978"/>
<polygon fill="#5b00c0" stroke="#5b00c0" points="1623.7284,-40.3485 1626,-30 1617.7708,-36.6732 1623.7284,-40.3485"/>
<text text-anchor="middle" x="1608.5" y="-51.8" font-family="Times,serif" font-size="14.00" fill="#5b00c0">rw</text>
</g>
<!-- T36763&#45;&gt;T36767 -->
<g id="edge2" class="edge">
<title>T36763:f0&#45;&gt;T36767:f1</title>
<path fill="none" stroke="#5b00c0" d="M797,-30C797,-142.8105 1038.1885,24.3722 1053.2628,-70.9387"/>
<polygon fill="#5b00c0" stroke="#5b00c0" points="1049.7785,-71.2825 1054,-81 1056.7598,-70.7709 1049.7785,-71.2825"/>
<text text-anchor="middle" x="1056.5" y="-51.8" font-family="Times,serif" font-size="14.00" fill="#5b00c0">rw</text>
</g>
</g>
</svg>
