<?xml version="1.0" encoding="UTF-8" standalone="no"?>
<!DOCTYPE svg PUBLIC "-//W3C//DTD SVG 1.1//EN"
 "http://www.w3.org/Graphics/SVG/1.1/DTD/svg11.dtd">
<!-- Generated by graphviz version 2.40.1 (20161225.0304)
 -->
<!-- Title: a_graph Pages: 1 -->
<svg width="2189pt" height="119pt"
 viewBox="0.00 0.00 2189.00 119.00" xmlns="http://www.w3.org/2000/svg" xmlns:xlink="http://www.w3.org/1999/xlink">
<g id="graph0" class="graph" transform="scale(1 1) rotate(0) translate(4 115)">
<title>a_graph</title>
<polygon fill="#ffffff" stroke="transparent" points="-4,4 -4,-115 2185,-115 2185,4 -4,4"/>
<!-- T38134 -->
<g id="node1" class="node">
<title>T38134</title>
<polygon fill="none" stroke="#0058ad" points="0,-81.5 0,-110.5 2181,-110.5 2181,-81.5 0,-81.5"/>
<text text-anchor="middle" x="28.5" y="-92.3" font-family="Times,serif" font-size="14.00" fill="#0058ad">a 190 1</text>
<polyline fill="none" stroke="#0058ad" points="57,-81.5 57,-110.5 "/>
<text text-anchor="middle" x="1087" y="-92.3" font-family="Times,serif" font-size="14.00" fill="#0058ad">r 182 [2 3 4 5 7 6 8 9 10 11 12 13 14 15 16 17 18 19 20 21 22 23 24 25 26 28 29 30 31 32 33 34 35 36 37 38 39 40 41 43 42 44 45 46 47 48 50 52 51 53 55 54 56 57 58 59 60 61 62 63 64 66 67 68 69 70 71 72 73 74 75 76 77 79 78 80 81 83 82 84 85 86 87 89 91 92 93 94 95 96 97 98 100 99 102 103 104 101 105 106 107 108 109 110 113 114 115 112 116 117 118 119]</text>
<polyline fill="none" stroke="#0058ad" points="2117,-81.5 2117,-110.5 "/>
<text text-anchor="middle" x="2149" y="-92.3" font-family="Times,serif" font-size="14.00" fill="#0058ad">a 189 16</text>
</g>
<!-- T38133 -->
<g id="node2" class="node">
<title>T38133</title>
<polygon fill="none" stroke="#0058ad" points="1730,-.5 1730,-29.5 2043,-29.5 2043,-.5 1730,-.5"/>
<text text-anchor="middle" x="1765.5" y="-11.3" font-family="Times,serif" font-size="14.00" fill="#0058ad">a 182 120</text>
<polyline fill="none" stroke="#0058ad" points="1801,-.5 1801,-29.5 "/>
<text text-anchor="middle" x="1922" y="-11.3" font-family="Times,serif" font-size="14.00" fill="#0058ad">r 189 [1 2 4 5 6 7 8 9 10 11 12 13 14 15]</text>
</g>
<!-- T38134&#45;&gt;T38133 -->
<g id="edge1" class="edge">
<title>T38134:f1&#45;&gt;T38133:f0</title>
<path fill="none" stroke="#5b00c0" d="M1086.5,-81C1086.5,-46.9487 1632.3731,-18.1304 1719.4972,-15.2385"/>
<polygon fill="#5b00c0" stroke="#5b00c0" points="1719.5863,-18.7374 1729.5,-15 1719.4194,-11.7394 1719.5863,-18.7374"/>
<text text-anchor="middle" x="1242" y="-51.8" font-family="Times,serif" font-size="14.00" fill="#5b00c0">rw</text>
</g>
<!-- T38133&#45;&gt;T38134 -->
<g id="edge2" class="edge">
<title>T38133:f1&#45;&gt;T38134:f2</title>
<path fill="none" stroke="#5b00c0" d="M2043.5,-15C2095.4199,-15 2142.9691,-24.1929 2148.8828,-70.8207"/>
<polygon fill="#5b00c0" stroke="#5b00c0" points="2145.4011,-71.2302 2149.5,-81 2152.3883,-70.8065 2145.4011,-71.2302"/>
<text text-anchor="middle" x="2154" y="-51.8" font-family="Times,serif" font-size="14.00" fill="#5b00c0">rw</text>
</g>
</g>
</svg>
