<?xml version="1.0" encoding="UTF-8" standalone="no"?>
<!DOCTYPE svg PUBLIC "-//W3C//DTD SVG 1.1//EN"
 "http://www.w3.org/Graphics/SVG/1.1/DTD/svg11.dtd">
<!-- Generated by graphviz version 2.40.1 (20161225.0304)
 -->
<!-- Title: a_graph Pages: 1 -->
<svg width="1870pt" height="119pt"
 viewBox="0.00 0.00 1870.00 119.00" xmlns="http://www.w3.org/2000/svg" xmlns:xlink="http://www.w3.org/1999/xlink">
<g id="graph0" class="graph" transform="scale(1 1) rotate(0) translate(4 115)">
<title>a_graph</title>
<polygon fill="#ffffff" stroke="transparent" points="-4,4 -4,-115 1866,-115 1866,4 -4,4"/>
<!-- T6156 -->
<g id="node1" class="node">
<title>T6156</title>
<polygon fill="none" stroke="#0058ad" points="692,-81.5 692,-110.5 1862,-110.5 1862,-81.5 692,-81.5"/>
<text text-anchor="middle" x="720.5" y="-92.3" font-family="Times,serif" font-size="14.00" fill="#0058ad">a 35 38</text>
<polyline fill="none" stroke="#0058ad" points="749,-81.5 749,-110.5 "/>
<text text-anchor="middle" x="1013" y="-92.3" font-family="Times,serif" font-size="14.00" fill="#0058ad">r 34 [1 2 3 4 5 6 7 8 10 11 12 13 14 15 16 17 18 19 20 21 22 23 24 25 26 27 28 29 30 31 32]</text>
<polyline fill="none" stroke="#0058ad" points="1277,-81.5 1277,-110.5 "/>
<text text-anchor="middle" x="1305.5" y="-92.3" font-family="Times,serif" font-size="14.00" fill="#0058ad">a 30 79</text>
<polyline fill="none" stroke="#0058ad" points="1334,-81.5 1334,-110.5 "/>
<text text-anchor="middle" x="1598" y="-92.3" font-family="Times,serif" font-size="14.00" fill="#0058ad">r 34 [1 2 3 4 5 6 7 8 10 11 12 13 14 15 16 17 18 19 20 21 22 23 24 25 26 27 28 29 30 31 32]</text>
</g>
<!-- T6155 -->
<g id="node2" class="node">
<title>T6155</title>
<polygon fill="none" stroke="#0058ad" points="0,-.5 0,-29.5 1182,-29.5 1182,-.5 0,-.5"/>
<text text-anchor="middle" x="298.5" y="-11.3" font-family="Times,serif" font-size="14.00" fill="#0058ad">r 35 [1 3 4 5 6 7 8 9 11 10 12 13 14 15 19 20 21 16 17 18 22 23 24 25 26 27 28 29 30 31 32 33 36 35 37]</text>
<polyline fill="none" stroke="#0058ad" points="597,-.5 597,-29.5 "/>
<text text-anchor="middle" x="861" y="-11.3" font-family="Times,serif" font-size="14.00" fill="#0058ad">r 34 [1 2 3 4 5 6 7 8 10 11 12 13 14 15 16 17 18 19 20 21 22 23 24 25 26 27 28 29 30 31 32]</text>
<polyline fill="none" stroke="#0058ad" points="1125,-.5 1125,-29.5 "/>
<text text-anchor="middle" x="1153.5" y="-11.3" font-family="Times,serif" font-size="14.00" fill="#0058ad">a 34 33</text>
</g>
<!-- T6156&#45;&gt;T6155 -->
<g id="edge1" class="edge">
<title>T6156:f1&#45;&gt;T6155:f2</title>
<path fill="none" stroke="#5b00c0" d="M1013,-81C1013,-18.1345 1138.4797,-87.797 1152.6942,-39.9444"/>
<polygon fill="#5b00c0" stroke="#5b00c0" points="1156.1682,-40.3706 1154,-30 1149.2278,-39.4592 1156.1682,-40.3706"/>
<text text-anchor="middle" x="1155.5" y="-51.8" font-family="Times,serif" font-size="14.00" fill="#5b00c0">rw</text>
</g>
<!-- T6155&#45;&gt;T6156 -->
<g id="edge2" class="edge">
<title>T6155:f0&#45;&gt;T6156:f0</title>
<path fill="none" stroke="#5b00c0" d="M298,-30C298,-71.8736 609.1294,-93.4787 681.6389,-95.7918"/>
<polygon fill="#5b00c0" stroke="#5b00c0" points="681.9317,-99.2983 692,-96 682.0724,-92.2997 681.9317,-99.2983"/>
<text text-anchor="middle" x="372.5" y="-51.8" font-family="Times,serif" font-size="14.00" fill="#5b00c0">rw</text>
</g>
</g>
</svg>
