<?xml version="1.0" encoding="UTF-8" standalone="no"?>
<!DOCTYPE svg PUBLIC "-//W3C//DTD SVG 1.1//EN"
 "http://www.w3.org/Graphics/SVG/1.1/DTD/svg11.dtd">
<!-- Generated by graphviz version 2.40.1 (20161225.0304)
 -->
<!-- Title: a_graph Pages: 1 -->
<svg width="2864pt" height="119pt"
 viewBox="0.00 0.00 2863.61 119.00" xmlns="http://www.w3.org/2000/svg" xmlns:xlink="http://www.w3.org/1999/xlink">
<g id="graph0" class="graph" transform="scale(1 1) rotate(0) translate(4 115)">
<title>a_graph</title>
<polygon fill="#ffffff" stroke="transparent" points="-4,4 -4,-115 2859.6074,-115 2859.6074,4 -4,4"/>
<!-- T22843 -->
<g id="node1" class="node">
<title>T22843</title>
<polygon fill="none" stroke="#0058ad" points="1005.5,-81.5 1005.5,-110.5 2851.5,-110.5 2851.5,-81.5 1005.5,-81.5"/>
<text text-anchor="middle" x="1037.5" y="-92.3" font-family="Times,serif" font-size="14.00" fill="#0058ad">a 115 36</text>
<polyline fill="none" stroke="#0058ad" points="1069.5,-81.5 1069.5,-110.5 "/>
<text text-anchor="middle" x="1101.5" y="-92.3" font-family="Times,serif" font-size="14.00" fill="#0058ad">a 114 81</text>
<polyline fill="none" stroke="#0058ad" points="1133.5,-81.5 1133.5,-110.5 "/>
<text text-anchor="middle" x="1992.5" y="-92.3" font-family="Times,serif" font-size="14.00" fill="#0058ad">r 110 [1 2 3 4 6 7 8 9 10 11 12 13 14 15 16 17 18 19 20 22 23 25 24 26 27 28 29 30 31 32 33 34 35 36 37 38 39 40 41 42 43 44 45 46 47 48 49 50 51 52 53 54 55 56 57 58 59 60 61 62 63 64 65 66 67 68 69 70 71 72 73 74 75 76 77 78 79 80 81 82 83 84 85 86 87 88 89 91 90 93 92 94 95 96 100 101 102 103]</text>
</g>
<!-- T22841 -->
<g id="node2" class="node">
<title>T22841</title>
<polygon fill="none" stroke="#0058ad" points="0,-.5 0,-29.5 2749,-29.5 2749,-.5 0,-.5"/>
<text text-anchor="middle" x="669.5" y="-11.3" font-family="Times,serif" font-size="14.00" fill="#0058ad">r 114 [1 2 3 6 4 5 7 8 9 10 11 12 13 14 15 16 17 18 19 20 21 22 25 24 23 26 28 29 30 31 32 33 34 27 35 36 38 39 40 41 37 42 43 44 45 46 48 49 50 52 53 54 51 55 56 57 58 59 60 61 62 63 64 65 67 68 69 70 71 66 72 73 74 75 76 77 78 79]</text>
<polyline fill="none" stroke="#0058ad" points="1339,-.5 1339,-29.5 "/>
<text text-anchor="middle" x="2008.5" y="-11.3" font-family="Times,serif" font-size="14.00" fill="#0058ad">r 114 [1 2 3 6 4 5 7 8 9 10 11 12 13 14 15 16 17 18 19 20 21 22 25 24 23 26 28 29 30 31 32 33 34 27 35 36 38 39 40 41 37 42 43 44 45 46 48 49 50 52 53 54 51 55 56 57 58 59 60 61 62 63 64 65 67 68 69 70 71 66 72 73 74 75 76 77 78 79]</text>
<polyline fill="none" stroke="#0058ad" points="2678,-.5 2678,-29.5 "/>
<text text-anchor="middle" x="2713.5" y="-11.3" font-family="Times,serif" font-size="14.00" fill="#0058ad">a 110 104</text>
</g>
<!-- T22843&#45;&gt;T22841 -->
<g id="edge1" class="edge">
<title>T22843:f2&#45;&gt;T22841:f2</title>
<path fill="none" stroke="#5b00c0" d="M2851.5,-96C2858.1667,-96 2855.3104,-86.4704 2851.5,-81 2816.3171,-30.489 2725.0751,-87.8318 2714.5035,-40.171"/>
<polygon fill="#5b00c0" stroke="#5b00c0" points="2717.965,-39.608 2713.5,-30 2710.9988,-40.2954 2717.965,-39.608"/>
<text text-anchor="middle" x="2833" y="-51.8" font-family="Times,serif" font-size="14.00" fill="#5b00c0">rw</text>
</g>
<!-- T22841&#45;&gt;T22843 -->
<g id="edge2" class="edge">
<title>T22841:f0&#45;&gt;T22843:f1</title>
<path fill="none" stroke="#5b00c0" d="M669.5,-30C669.5,-219.7461 1085.6175,100.0591 1101.0593,-70.7779"/>
<polygon fill="#5b00c0" stroke="#5b00c0" points="1097.5725,-71.1601 1101.5,-81 1104.566,-70.8585 1097.5725,-71.1601"/>
<text text-anchor="middle" x="1106" y="-51.8" font-family="Times,serif" font-size="14.00" fill="#5b00c0">rw</text>
</g>
</g>
</svg>
