<?xml version="1.0" encoding="UTF-8" standalone="no"?>
<!DOCTYPE svg PUBLIC "-//W3C//DTD SVG 1.1//EN"
 "http://www.w3.org/Graphics/SVG/1.1/DTD/svg11.dtd">
<!-- Generated by graphviz version 2.40.1 (20161225.0304)
 -->
<!-- Title: a_graph Pages: 1 -->
<svg width="2785pt" height="119pt"
 viewBox="0.00 0.00 2784.50 119.00" xmlns="http://www.w3.org/2000/svg" xmlns:xlink="http://www.w3.org/1999/xlink">
<g id="graph0" class="graph" transform="scale(1 1) rotate(0) translate(4 115)">
<title>a_graph</title>
<polygon fill="#ffffff" stroke="transparent" points="-4,4 -4,-115 2780.5,-115 2780.5,4 -4,4"/>
<!-- T21115 -->
<g id="node1" class="node">
<title>T21115</title>
<polygon fill="none" stroke="#0058ad" points="0,-81.5 0,-110.5 1338,-110.5 1338,-81.5 0,-81.5"/>
<text text-anchor="middle" x="37.5" y="-92.3" font-family="Times,serif" font-size="14.00" fill="#0058ad">r 108 [1 2]</text>
<polyline fill="none" stroke="#0058ad" points="75,-81.5 75,-110.5 "/>
<text text-anchor="middle" x="649.5" y="-92.3" font-family="Times,serif" font-size="14.00" fill="#0058ad">r 96 [2 3 4 5 6 7 8 9 10 11 12 13 14 15 16 17 18 19 20 21 22 23 24 25 26 27 28 29 30 32 33 34 35 36 37 38 39 40 41 42 43 45 46 47 48 49 50 51 52 53 54 55 56 57 58 59 60 61 62 63 64 65 66 67 68 70 71]</text>
<polyline fill="none" stroke="#0058ad" points="1224,-81.5 1224,-110.5 "/>
<text text-anchor="middle" x="1252.5" y="-92.3" font-family="Times,serif" font-size="14.00" fill="#0058ad">a 108 4</text>
<polyline fill="none" stroke="#0058ad" points="1281,-81.5 1281,-110.5 "/>
<text text-anchor="middle" x="1309.5" y="-92.3" font-family="Times,serif" font-size="14.00" fill="#0058ad">a 108 5</text>
</g>
<!-- T21113 -->
<g id="node2" class="node">
<title>T21113</title>
<polygon fill="none" stroke="#0058ad" points="1023.5,-.5 1023.5,-29.5 2776.5,-29.5 2776.5,-.5 1023.5,-.5"/>
<text text-anchor="middle" x="1052" y="-11.3" font-family="Times,serif" font-size="14.00" fill="#0058ad">a 96 72</text>
<polyline fill="none" stroke="#0058ad" points="1080.5,-.5 1080.5,-29.5 "/>
<text text-anchor="middle" x="1118" y="-11.3" font-family="Times,serif" font-size="14.00" fill="#0058ad">r 108 [1 2]</text>
<polyline fill="none" stroke="#0058ad" points="1155.5,-.5 1155.5,-29.5 "/>
<text text-anchor="middle" x="1193" y="-11.3" font-family="Times,serif" font-size="14.00" fill="#0058ad">r 108 [1 2]</text>
<polyline fill="none" stroke="#0058ad" points="1230.5,-.5 1230.5,-29.5 "/>
<text text-anchor="middle" x="2003.5" y="-11.3" font-family="Times,serif" font-size="14.00" fill="#0058ad">r 101 [1 2 3 4 5 6 7 8 9 10 11 12 13 14 16 17 18 19 20 22 23 24 25 26 27 28 29 30 31 32 33 34 35 36 37 38 39 40 41 42 43 44 45 46 47 48 50 51 52 53 54 55 56 57 58 59 60 61 62 63 64 65 66 67 68 69 70 71 72 73 74 75 76 77 78 79 80 81 82 83 84 85 86 87 89 90 88 92 91 93]</text>
</g>
<!-- T21115&#45;&gt;T21113 -->
<g id="edge1" class="edge">
<title>T21115:f1&#45;&gt;T21113:f0</title>
<path fill="none" stroke="#5b00c0" d="M649,-81C649,-41.2749 943.0584,-17.8525 1012.7246,-15.2441"/>
<polygon fill="#5b00c0" stroke="#5b00c0" points="1013.086,-18.7366 1023,-15 1012.9197,-11.7385 1013.086,-18.7366"/>
<text text-anchor="middle" x="729.5" y="-51.8" font-family="Times,serif" font-size="14.00" fill="#5b00c0">rw</text>
</g>
<!-- T21113&#45;&gt;T21115 -->
<g id="edge2" class="edge">
<title>T21113:f1&#45;&gt;T21115:f2</title>
<path fill="none" stroke="#5b00c0" d="M1118,-30C1118,-90.2553 1237.1472,-25.7007 1251.5752,-70.8423"/>
<polygon fill="#5b00c0" stroke="#5b00c0" points="1248.1448,-71.5831 1253,-81 1255.0769,-70.6107 1248.1448,-71.5831"/>
<text text-anchor="middle" x="1252.5" y="-51.8" font-family="Times,serif" font-size="14.00" fill="#5b00c0">rw</text>
</g>
</g>
</svg>
