<?xml version="1.0" encoding="UTF-8" standalone="no"?>
<!DOCTYPE svg PUBLIC "-//W3C//DTD SVG 1.1//EN"
 "http://www.w3.org/Graphics/SVG/1.1/DTD/svg11.dtd">
<!-- Generated by graphviz version 2.40.1 (20161225.0304)
 -->
<!-- Title: a_graph Pages: 1 -->
<svg width="1448pt" height="119pt"
 viewBox="0.00 0.00 1448.00 119.00" xmlns="http://www.w3.org/2000/svg" xmlns:xlink="http://www.w3.org/1999/xlink">
<g id="graph0" class="graph" transform="scale(1 1) rotate(0) translate(4 115)">
<title>a_graph</title>
<polygon fill="#ffffff" stroke="transparent" points="-4,4 -4,-115 1444,-115 1444,4 -4,4"/>
<!-- T2853 -->
<g id="node1" class="node">
<title>T2853</title>
<polygon fill="none" stroke="#0058ad" points="0,-81.5 0,-110.5 1291,-110.5 1291,-81.5 0,-81.5"/>
<text text-anchor="middle" x="588.5" y="-92.3" font-family="Times,serif" font-size="14.00" fill="#0058ad">r 16 [1 2 3 4 5 6 7 8 9 10 11 12 13 14 15 16 17 18 19 20 21 22 25 26 27 28 29 30 31 33 35 36 37 38 39 42 43 44 45 46 47 48 49 50 51 52 53 54 56 57 58 59 60 61 64 62 63 65 66 67 68 69 70 71 73 74 75 76 78]</text>
<polyline fill="none" stroke="#0058ad" points="1177,-81.5 1177,-110.5 "/>
<text text-anchor="middle" x="1205.5" y="-92.3" font-family="Times,serif" font-size="14.00" fill="#0058ad">a 20 18</text>
<polyline fill="none" stroke="#0058ad" points="1234,-81.5 1234,-110.5 "/>
<text text-anchor="middle" x="1262.5" y="-92.3" font-family="Times,serif" font-size="14.00" fill="#0058ad">a 20 19</text>
</g>
<!-- T2851 -->
<g id="node2" class="node">
<title>T2851</title>
<polygon fill="none" stroke="#0058ad" points="913,-.5 913,-29.5 1440,-29.5 1440,-.5 913,-.5"/>
<text text-anchor="middle" x="941.5" y="-11.3" font-family="Times,serif" font-size="14.00" fill="#0058ad">a 16 79</text>
<polyline fill="none" stroke="#0058ad" points="970,-.5 970,-29.5 "/>
<text text-anchor="middle" x="1087.5" y="-11.3" font-family="Times,serif" font-size="14.00" fill="#0058ad">r 20 [1 2 3 4 5 6 8 7 10 11 12 13 15 16]</text>
<polyline fill="none" stroke="#0058ad" points="1205,-.5 1205,-29.5 "/>
<text text-anchor="middle" x="1322.5" y="-11.3" font-family="Times,serif" font-size="14.00" fill="#0058ad">r 20 [1 2 3 4 5 6 8 7 10 11 12 13 15 16]</text>
</g>
<!-- T2853&#45;&gt;T2851 -->
<g id="edge1" class="edge">
<title>T2853:f0&#45;&gt;T2851:f0</title>
<path fill="none" stroke="#5b00c0" d="M588.5,-81C588.5,-46.6286 839.9243,-18.803 902.4179,-15.3588"/>
<polygon fill="#5b00c0" stroke="#5b00c0" points="902.6309,-18.8536 912.5,-15 902.3818,-11.858 902.6309,-18.8536"/>
<text text-anchor="middle" x="667" y="-51.8" font-family="Times,serif" font-size="14.00" fill="#5b00c0">rw</text>
</g>
<!-- T2851&#45;&gt;T2853 -->
<g id="edge2" class="edge">
<title>T2851:f1&#45;&gt;T2853:f1</title>
<path fill="none" stroke="#5b00c0" d="M1087.5,-30C1087.5,-83.116 1189.4896,-32.1684 1203.8319,-70.6505"/>
<polygon fill="#5b00c0" stroke="#5b00c0" points="1200.4533,-71.6844 1205.5,-81 1207.3641,-70.5705 1200.4533,-71.6844"/>
<text text-anchor="middle" x="1204" y="-51.8" font-family="Times,serif" font-size="14.00" fill="#5b00c0">rw</text>
</g>
</g>
</svg>
