<?xml version="1.0" encoding="UTF-8" standalone="no"?>
<!DOCTYPE svg PUBLIC "-//W3C//DTD SVG 1.1//EN"
 "http://www.w3.org/Graphics/SVG/1.1/DTD/svg11.dtd">
<!-- Generated by graphviz version 2.40.1 (20161225.0304)
 -->
<!-- Title: a_graph Pages: 1 -->
<svg width="1552pt" height="119pt"
 viewBox="0.00 0.00 1552.00 119.00" xmlns="http://www.w3.org/2000/svg" xmlns:xlink="http://www.w3.org/1999/xlink">
<g id="graph0" class="graph" transform="scale(1 1) rotate(0) translate(4 115)">
<title>a_graph</title>
<polygon fill="#ffffff" stroke="transparent" points="-4,4 -4,-115 1548,-115 1548,4 -4,4"/>
<!-- T9269 -->
<g id="node1" class="node">
<title>T9269</title>
<polygon fill="none" stroke="#0058ad" points="0,-81.5 0,-110.5 1544,-110.5 1544,-81.5 0,-81.5"/>
<text text-anchor="middle" x="743.5" y="-92.3" font-family="Times,serif" font-size="14.00" fill="#0058ad">r 49 [1 3 2 5 4 7 6 8 9 10 11 12 13 14 15 16 17 18 19 20 21 23 24 25 22 27 28 29 30 31 32 33 34 35 36 37 38 39 40 41 42 44 45 43 46 47 48 49 50 51 52 53 54 55 56 57 58 59 60 61 62 64 65 66 67 68 69 70 71 72 73 74 75 76 77 78 79 83 84 85 86 87 88 89 90 91 92]</text>
<polyline fill="none" stroke="#0058ad" points="1487,-81.5 1487,-110.5 "/>
<text text-anchor="middle" x="1515.5" y="-92.3" font-family="Times,serif" font-size="14.00" fill="#0058ad">a 50 14</text>
</g>
<!-- T9271 -->
<g id="node2" class="node">
<title>T9271</title>
<polygon fill="none" stroke="#0058ad" points="956.5,-.5 956.5,-29.5 1281.5,-29.5 1281.5,-.5 956.5,-.5"/>
<text text-anchor="middle" x="1062" y="-11.3" font-family="Times,serif" font-size="14.00" fill="#0058ad">r 50 [1 3 4 2 5 6 7 8 9 10 11 12 13]</text>
<polyline fill="none" stroke="#0058ad" points="1167.5,-.5 1167.5,-29.5 "/>
<text text-anchor="middle" x="1196" y="-11.3" font-family="Times,serif" font-size="14.00" fill="#0058ad">a 49 95</text>
<polyline fill="none" stroke="#0058ad" points="1224.5,-.5 1224.5,-29.5 "/>
<text text-anchor="middle" x="1253" y="-11.3" font-family="Times,serif" font-size="14.00" fill="#0058ad">a 46 73</text>
</g>
<!-- T9269&#45;&gt;T9271 -->
<g id="edge1" class="edge">
<title>T9269:f0&#45;&gt;T9271:f1</title>
<path fill="none" stroke="#5b00c0" d="M743,-81C743,118.0438 1180.2142,-220.3246 1195.585,-40.1742"/>
<polygon fill="#5b00c0" stroke="#5b00c0" points="1199.0894,-40.1344 1196,-30 1192.0953,-39.849 1199.0894,-40.1344"/>
<text text-anchor="middle" x="1201.5" y="-51.8" font-family="Times,serif" font-size="14.00" fill="#5b00c0">rw</text>
</g>
<!-- T9271&#45;&gt;T9269 -->
<g id="edge2" class="edge">
<title>T9271:f0&#45;&gt;T9269:f1</title>
<path fill="none" stroke="#5b00c0" d="M1062,-30C1062,-35.7875 1439.7024,-68.1676 1506.0953,-78.6296"/>
<polygon fill="#5b00c0" stroke="#5b00c0" points="1505.46,-82.0763 1516,-81 1507.0893,-75.2685 1505.46,-82.0763"/>
<text text-anchor="middle" x="1363.5" y="-51.8" font-family="Times,serif" font-size="14.00" fill="#5b00c0">rw</text>
</g>
</g>
</svg>
