<?xml version="1.0" encoding="UTF-8" standalone="no"?>
<!DOCTYPE svg PUBLIC "-//W3C//DTD SVG 1.1//EN"
 "http://www.w3.org/Graphics/SVG/1.1/DTD/svg11.dtd">
<!-- Generated by graphviz version 2.40.1 (20161225.0304)
 -->
<!-- Title: a_graph Pages: 1 -->
<svg width="957pt" height="119pt"
 viewBox="0.00 0.00 957.00 119.00" xmlns="http://www.w3.org/2000/svg" xmlns:xlink="http://www.w3.org/1999/xlink">
<g id="graph0" class="graph" transform="scale(1 1) rotate(0) translate(4 115)">
<title>a_graph</title>
<polygon fill="#ffffff" stroke="transparent" points="-4,4 -4,-115 953,-115 953,4 -4,4"/>
<!-- T27065 -->
<g id="node1" class="node">
<title>T27065</title>
<polygon fill="none" stroke="#0058ad" points="45,-81.5 45,-110.5 842,-110.5 842,-81.5 45,-81.5"/>
<text text-anchor="middle" x="73.5" y="-92.3" font-family="Times,serif" font-size="14.00" fill="#0058ad">a 135 6</text>
<polyline fill="none" stroke="#0058ad" points="102,-81.5 102,-110.5 "/>
<text text-anchor="middle" x="271" y="-92.3" font-family="Times,serif" font-size="14.00" fill="#0058ad">r 138 [1 2 3 4 5 6 7 8 9 10 11 13 14 15 16 17 12 19 20 18]</text>
<polyline fill="none" stroke="#0058ad" points="440,-81.5 440,-110.5 "/>
<text text-anchor="middle" x="609" y="-92.3" font-family="Times,serif" font-size="14.00" fill="#0058ad">r 138 [1 2 3 4 5 6 7 8 9 10 11 13 14 15 16 17 12 19 20 18]</text>
<polyline fill="none" stroke="#0058ad" points="778,-81.5 778,-110.5 "/>
<text text-anchor="middle" x="810" y="-92.3" font-family="Times,serif" font-size="14.00" fill="#0058ad">a 137 30</text>
</g>
<!-- T27069 -->
<g id="node2" class="node">
<title>T27069</title>
<polygon fill="none" stroke="#0058ad" points="0,-.5 0,-29.5 949,-29.5 949,-.5 0,-.5"/>
<text text-anchor="middle" x="169" y="-11.3" font-family="Times,serif" font-size="14.00" fill="#0058ad">r 138 [1 2 3 4 5 6 7 8 9 10 11 13 14 15 16 17 12 19 20 18]</text>
<polyline fill="none" stroke="#0058ad" points="338,-.5 338,-29.5 "/>
<text text-anchor="middle" x="370" y="-11.3" font-family="Times,serif" font-size="14.00" fill="#0058ad">a 138 21</text>
<polyline fill="none" stroke="#0058ad" points="402,-.5 402,-29.5 "/>
<text text-anchor="middle" x="643.5" y="-11.3" font-family="Times,serif" font-size="14.00" fill="#0058ad">r 137 [1 2 3 4 5 6 8 9 10 11 13 14 15 12 16 17 18 19 20 25 23 24 26 27 28 29 32 31]</text>
<polyline fill="none" stroke="#0058ad" points="885,-.5 885,-29.5 "/>
<text text-anchor="middle" x="917" y="-11.3" font-family="Times,serif" font-size="14.00" fill="#0058ad">a 133 33</text>
</g>
<!-- T27065&#45;&gt;T27069 -->
<g id="edge1" class="edge">
<title>T27065:f1&#45;&gt;T27069:f1</title>
<path fill="none" stroke="#5b00c0" d="M270.5,-81C270.5,-35.3716 354.6355,-72.5917 367.7817,-39.9084"/>
<polygon fill="#5b00c0" stroke="#5b00c0" points="371.2397,-40.451 369.5,-30 364.3427,-39.2549 371.2397,-40.451"/>
<text text-anchor="middle" x="369" y="-51.8" font-family="Times,serif" font-size="14.00" fill="#5b00c0">rw</text>
</g>
<!-- T27069&#45;&gt;T27065 -->
<g id="edge2" class="edge">
<title>T27069:f2&#45;&gt;T27065:f3</title>
<path fill="none" stroke="#5b00c0" d="M643.5,-30C643.5,-103.8168 794.5896,-13.1373 809.3444,-70.89"/>
<polygon fill="#5b00c0" stroke="#5b00c0" points="805.8869,-71.4622 810.5,-81 812.8416,-70.6672 805.8869,-71.4622"/>
<text text-anchor="middle" x="813" y="-51.8" font-family="Times,serif" font-size="14.00" fill="#5b00c0">rw</text>
</g>
</g>
</svg>
