<?xml version="1.0" encoding="UTF-8" standalone="no"?>
<!DOCTYPE svg PUBLIC "-//W3C//DTD SVG 1.1//EN"
 "http://www.w3.org/Graphics/SVG/1.1/DTD/svg11.dtd">
<!-- Generated by graphviz version 2.40.1 (20161225.0304)
 -->
<!-- Title: a_graph Pages: 1 -->
<svg width="3113pt" height="119pt"
 viewBox="0.00 0.00 3113.00 119.00" xmlns="http://www.w3.org/2000/svg" xmlns:xlink="http://www.w3.org/1999/xlink">
<g id="graph0" class="graph" transform="scale(1 1) rotate(0) translate(4 115)">
<title>a_graph</title>
<polygon fill="#ffffff" stroke="transparent" points="-4,4 -4,-115 3109,-115 3109,4 -4,4"/>
<!-- T16363 -->
<g id="node1" class="node">
<title>T16363</title>
<polygon fill="none" stroke="#0058ad" points="0,-81.5 0,-110.5 3105,-110.5 3105,-81.5 0,-81.5"/>
<text text-anchor="middle" x="28.5" y="-92.3" font-family="Times,serif" font-size="14.00" fill="#0058ad">a 85 78</text>
<polyline fill="none" stroke="#0058ad" points="57,-81.5 57,-110.5 "/>
<text text-anchor="middle" x="706" y="-92.3" font-family="Times,serif" font-size="14.00" fill="#0058ad">r 85 [1 2 3 4 5 6 7 9 10 11 8 13 14 12 15 16 17 18 19 20 21 22 23 24 25 26 27 28 29 30 31 32 33 35 36 37 38 39 40 41 42 43 44 45 46 47 48 49 50 51 52 53 54 55 56 57 58 59 60 61 63 62 64 65 66 67 68 69 70 72 74 71 75 76 77 78]</text>
<polyline fill="none" stroke="#0058ad" points="1355,-81.5 1355,-110.5 "/>
<text text-anchor="middle" x="2004" y="-92.3" font-family="Times,serif" font-size="14.00" fill="#0058ad">r 85 [1 2 3 4 5 6 7 9 10 11 8 13 14 12 15 16 17 18 19 20 21 22 23 24 25 26 27 28 29 30 31 32 33 35 36 37 38 39 40 41 42 43 44 45 46 47 48 49 50 51 52 53 54 55 56 57 58 59 60 61 63 62 64 65 66 67 68 69 70 72 74 71 75 76 77 78]</text>
<polyline fill="none" stroke="#0058ad" points="2653,-81.5 2653,-110.5 "/>
<text text-anchor="middle" x="2879" y="-92.3" font-family="Times,serif" font-size="14.00" fill="#0058ad">r 84 [1 2 3 4 5 6 7 8 9 10 12 13 14 16 17 18 19 20 21 22 23 24 25 26 27 28 29]</text>
</g>
<!-- T16365 -->
<g id="node2" class="node">
<title>T16365</title>
<polygon fill="none" stroke="#0058ad" points="360.5,-.5 360.5,-29.5 3034.5,-29.5 3034.5,-.5 360.5,-.5"/>
<text text-anchor="middle" x="389" y="-11.3" font-family="Times,serif" font-size="14.00" fill="#0058ad">a 84 31</text>
<polyline fill="none" stroke="#0058ad" points="417.5,-.5 417.5,-29.5 "/>
<text text-anchor="middle" x="446" y="-11.3" font-family="Times,serif" font-size="14.00" fill="#0058ad">a 84 32</text>
<polyline fill="none" stroke="#0058ad" points="474.5,-.5 474.5,-29.5 "/>
<text text-anchor="middle" x="1114.5" y="-11.3" font-family="Times,serif" font-size="14.00" fill="#0058ad">r 85 [1 2 3 4 5 6 7 9 10 11 8 13 14 12 15 16 17 18 19 20 21 22 23 24 25 26 27 28 29 30 31 32 33 35 36 37 38 39 40 41 42 43 44 45 46 47 48 49 50 51 52 53 54 55 56 57 58 59 60 61 63 62 64 65 66 67 68 69 70 72 74 71 75 76 77]</text>
<polyline fill="none" stroke="#0058ad" points="1754.5,-.5 1754.5,-29.5 "/>
<text text-anchor="middle" x="2394.5" y="-11.3" font-family="Times,serif" font-size="14.00" fill="#0058ad">r 85 [1 2 3 4 5 6 7 9 10 11 8 13 14 12 15 16 17 18 19 20 21 22 23 24 25 26 27 28 29 30 31 32 33 35 36 37 38 39 40 41 42 43 44 45 46 47 48 49 50 51 52 53 54 55 56 57 58 59 60 61 63 62 64 65 66 67 68 69 70 72 74 71 75 76 77]</text>
</g>
<!-- T16363&#45;&gt;T16365 -->
<g id="edge1" class="edge">
<title>T16363:f3&#45;&gt;T16365:f0</title>
<path fill="none" stroke="#5b00c0" d="M2879.5,-81C2879.5,-47.6459 565.2615,-63.3575 398.0216,-33.5492"/>
<polygon fill="#5b00c0" stroke="#5b00c0" points="399.0927,-30.2133 388.5,-30 396.6477,-36.7724 399.0927,-30.2133"/>
<text text-anchor="middle" x="2469" y="-51.8" font-family="Times,serif" font-size="14.00" fill="#5b00c0">rw</text>
</g>
<!-- T16365&#45;&gt;T16363 -->
<g id="edge2" class="edge">
<title>T16365:f2&#45;&gt;T16363:f0</title>
<path fill="none" stroke="#5b00c0" d="M1114.5,-30C1114.5,-37.1223 148.0394,-69.4742 38.5575,-79.4545"/>
<polygon fill="#5b00c0" stroke="#5b00c0" points="37.8524,-76.0217 28.5,-81 38.9156,-82.9405 37.8524,-76.0217"/>
<text text-anchor="middle" x="739" y="-51.8" font-family="Times,serif" font-size="14.00" fill="#5b00c0">rw</text>
</g>
</g>
</svg>
