<?xml version="1.0" encoding="UTF-8" standalone="no"?>
<!DOCTYPE svg PUBLIC "-//W3C//DTD SVG 1.1//EN"
 "http://www.w3.org/Graphics/SVG/1.1/DTD/svg11.dtd">
<!-- Generated by graphviz version 2.40.1 (20161225.0304)
 -->
<!-- Title: a_graph Pages: 1 -->
<svg width="4633pt" height="119pt"
 viewBox="0.00 0.00 4633.00 119.00" xmlns="http://www.w3.org/2000/svg" xmlns:xlink="http://www.w3.org/1999/xlink">
<g id="graph0" class="graph" transform="scale(1 1) rotate(0) translate(4 115)">
<title>a_graph</title>
<polygon fill="#ffffff" stroke="transparent" points="-4,4 -4,-115 4629,-115 4629,4 -4,4"/>
<!-- T752 -->
<g id="node1" class="node">
<title>T752</title>
<polygon fill="none" stroke="#0058ad" points="2710,-81.5 2710,-110.5 4625,-110.5 4625,-81.5 2710,-81.5"/>
<text text-anchor="middle" x="2742" y="-92.3" font-family="Times,serif" font-size="14.00" fill="#0058ad">a 10 127</text>
<polyline fill="none" stroke="#0058ad" points="2774,-81.5 2774,-110.5 "/>
<text text-anchor="middle" x="3622.5" y="-92.3" font-family="Times,serif" font-size="14.00" fill="#0058ad">r 8 [2 5 6 7 8 9 10 11 12 13 14 15 16 17 18 19 20 21 22 23 24 25 26 27 28 29 30 31 32 34 35 33 36 37 38 39 40 41 42 43 44 46 47 45 48 51 53 55 54 57 60 61 62 63 64 65 66 67 68 71 69 70 72 73 74 75 76 77 79 78 80 81 82 83 84 85 86 87 88 89 90 91 92 93 95 96 94 97 98 99 100 102 103 109 110 111]</text>
<polyline fill="none" stroke="#0058ad" points="4471,-81.5 4471,-110.5 "/>
<text text-anchor="middle" x="4523" y="-92.3" font-family="Times,serif" font-size="14.00" fill="#0058ad">r 4 [1 2 3 4 5 6]</text>
<polyline fill="none" stroke="#0058ad" points="4575,-81.5 4575,-110.5 "/>
<text text-anchor="middle" x="4600" y="-92.3" font-family="Times,serif" font-size="14.00" fill="#0058ad">a 6 29</text>
</g>
<!-- T751 -->
<g id="node2" class="node">
<title>T751</title>
<polygon fill="none" stroke="#0058ad" points="0,-.5 0,-29.5 4219,-29.5 4219,-.5 0,-.5"/>
<text text-anchor="middle" x="1040.5" y="-11.3" font-family="Times,serif" font-size="14.00" fill="#0058ad">r 10 [1 5 6 4 7 8 9 10 11 12 13 14 15 18 16 17 19 20 21 22 23 24 25 26 27 28 29 31 30 32 33 34 35 36 37 38 39 40 41 42 43 44 45 46 47 50 51 49 48 52 53 54 55 56 57 58 59 60 61 62 63 64 65 66 67 69 68 70 71 73 74 75 72 76 77 79 80 78 81 83 85 86 87 82 84 88 89 91 92 93 94 95 90 97 98 99 96 101 102 103 106 107 108 109 110 111 113 114 121 122 124 123 126 125]</text>
<polyline fill="none" stroke="#0058ad" points="2081,-.5 2081,-29.5 "/>
<text text-anchor="middle" x="3121.5" y="-11.3" font-family="Times,serif" font-size="14.00" fill="#0058ad">r 10 [1 5 6 4 7 8 9 10 11 12 13 14 15 18 16 17 19 20 21 22 23 24 25 26 27 28 29 31 30 32 33 34 35 36 37 38 39 40 41 42 43 44 45 46 47 50 51 49 48 52 53 54 55 56 57 58 59 60 61 62 63 64 65 66 67 69 68 70 71 73 74 75 72 76 77 79 80 78 81 83 85 86 87 82 84 88 89 91 92 93 94 95 90 97 98 99 96 101 102 103 106 107 108 109 110 111 113 114 121 122 124 123 126 125]</text>
<polyline fill="none" stroke="#0058ad" points="4162,-.5 4162,-29.5 "/>
<text text-anchor="middle" x="4190.5" y="-11.3" font-family="Times,serif" font-size="14.00" fill="#0058ad">a 8 113</text>
</g>
<!-- T752&#45;&gt;T751 -->
<g id="edge1" class="edge">
<title>T752:f1&#45;&gt;T751:f2</title>
<path fill="none" stroke="#5b00c0" d="M3622.5,-81C3622.5,168.9947 4175.0749,-271.126 4190.1844,-40.0017"/>
<polygon fill="#5b00c0" stroke="#5b00c0" points="4193.6828,-40.1054 4190.5,-30 4186.6862,-39.8846 4193.6828,-40.1054"/>
<text text-anchor="middle" x="4195" y="-51.8" font-family="Times,serif" font-size="14.00" fill="#5b00c0">rw</text>
</g>
<!-- T751&#45;&gt;T752 -->
<g id="edge2" class="edge">
<title>T751:f0&#45;&gt;T752:f0</title>
<path fill="none" stroke="#5b00c0" d="M1040.5,-30C1040.5,-74.8115 2554.0782,-94.6287 2699.346,-95.931"/>
<polygon fill="#5b00c0" stroke="#5b00c0" points="2699.4764,-99.4319 2709.5,-96 2699.524,-92.432 2699.4764,-99.4319"/>
<text text-anchor="middle" x="1359" y="-51.8" font-family="Times,serif" font-size="14.00" fill="#5b00c0">rw</text>
</g>
</g>
</svg>
