<?xml version="1.0" encoding="UTF-8" standalone="no"?>
<!DOCTYPE svg PUBLIC "-//W3C//DTD SVG 1.1//EN"
 "http://www.w3.org/Graphics/SVG/1.1/DTD/svg11.dtd">
<!-- Generated by graphviz version 2.40.1 (20161225.0304)
 -->
<!-- Title: a_graph Pages: 1 -->
<svg width="5924pt" height="200pt"
 viewBox="0.00 0.00 5924.00 200.00" xmlns="http://www.w3.org/2000/svg" xmlns:xlink="http://www.w3.org/1999/xlink">
<g id="graph0" class="graph" transform="scale(1 1) rotate(0) translate(4 196)">
<title>a_graph</title>
<polygon fill="#ffffff" stroke="transparent" points="-4,4 -4,-196 5920,-196 5920,4 -4,4"/>
<!-- T36057 -->
<g id="node1" class="node">
<title>T36057</title>
<polygon fill="none" stroke="#0058ad" points="0,-162.5 0,-191.5 3158,-191.5 3158,-162.5 0,-162.5"/>
<text text-anchor="middle" x="989.5" y="-173.3" font-family="Times,serif" font-size="14.00" fill="#0058ad">r 179 [1 2 3 5 4 8 9 6 7 11 12 13 14 15 16 19 20 21 17 22 24 18 25 23 26 27 28 29 30 31 32 33 34 35 36 38 39 37 41 42 40 43 44 45 46 47 48 50 49 52 53 54 55 56 51 57 58 59 62 60 63 64 65 66 67 61 68 69 70 72 74 71 76 77 78 75 79 80 82 83 81 84 85 87 88 89 86 92 93 94 90 91 97 95 96 98 99 100 101 103 104 105 106 107 108 102 109 110 111 112]</text>
<polyline fill="none" stroke="#0058ad" points="1979,-162.5 1979,-191.5 "/>
<text text-anchor="middle" x="2011" y="-173.3" font-family="Times,serif" font-size="14.00" fill="#0058ad">a 178 67</text>
<polyline fill="none" stroke="#0058ad" points="2043,-162.5 2043,-191.5 "/>
<text text-anchor="middle" x="2600.5" y="-173.3" font-family="Times,serif" font-size="14.00" fill="#0058ad">r 163 [1 2 3 4 5 6 7 8 9 10 11 12 13 14 15 16 17 19 18 20 21 22 23 24 25 26 27 29 31 33 34 35 36 37 38 39 40 41 42 43 44 45 47 48 49 50 51 53 52 54 55 56 57 58 59 60 61 62 63 65 66 67 68 69 70]</text>
</g>
<!-- T36059 -->
<g id="node2" class="node">
<title>T36059</title>
<polygon fill="none" stroke="#0058ad" points="3152,-.5 3152,-29.5 5916,-29.5 5916,-.5 3152,-.5"/>
<text text-anchor="middle" x="3187.5" y="-11.3" font-family="Times,serif" font-size="14.00" fill="#0058ad">a 179 113</text>
<polyline fill="none" stroke="#0058ad" points="3223,-.5 3223,-29.5 "/>
<text text-anchor="middle" x="3258.5" y="-11.3" font-family="Times,serif" font-size="14.00" fill="#0058ad">a 179 114</text>
<polyline fill="none" stroke="#0058ad" points="3294,-.5 3294,-29.5 "/>
<text text-anchor="middle" x="3832" y="-11.3" font-family="Times,serif" font-size="14.00" fill="#0058ad">r 178 [1 2 4 3 7 8 9 10 12 11 13 14 15 16 17 18 19 20 21 22 23 24 25 26 27 28 29 30 31 34 32 35 36 33 38 37 39 41 42 40 43 44 45 46 47 48 50 49 51 53 52 56 57 58 59 60 62 61 64 63 65 66]</text>
<polyline fill="none" stroke="#0058ad" points="4370,-.5 4370,-29.5 "/>
<text text-anchor="middle" x="5143" y="-11.3" font-family="Times,serif" font-size="14.00" fill="#0058ad">r 175 [1 3 2 4 5 6 7 9 8 10 11 13 12 14 15 16 17 18 19 20 23 24 25 22 26 27 28 29 31 30 32 33 34 35 36 37 38 39 40 41 42 43 44 45 46 47 49 48 52 53 54 55 56 57 58 59 60 61 62 63 65 66 67 68 70 71 73 72 74 75 76 78 77 79 80 81 82 83 84 85 86 87 88 89 90 91 92 93 94 95]</text>
</g>
<!-- T36057&#45;&gt;T36059 -->
<g id="edge1" class="edge">
<title>T36057:f0&#45;&gt;T36059:f0</title>
<path fill="none" stroke="#5b00c0" d="M989,-162C989,-125.7785 971.3834,-105.5674 998,-81 1040.7205,-41.5684 2975.6796,-16.476 3141.9665,-15.063"/>
<polygon fill="#5b00c0" stroke="#5b00c0" points="3142.0222,-18.5628 3152,-15 3141.9782,-11.563 3142.0222,-18.5628"/>
<text text-anchor="middle" x="1005.5" y="-92.3" font-family="Times,serif" font-size="14.00" fill="#5b00c0">rw</text>
</g>
<!-- T36061 -->
<g id="node3" class="node">
<title>T36061</title>
<polygon fill="none" stroke="#0058ad" points="1022,-81.5 1022,-110.5 4176,-110.5 4176,-81.5 1022,-81.5"/>
<text text-anchor="middle" x="1054" y="-92.3" font-family="Times,serif" font-size="14.00" fill="#0058ad">a 178 68</text>
<polyline fill="none" stroke="#0058ad" points="1086,-81.5 1086,-110.5 "/>
<text text-anchor="middle" x="1641.5" y="-92.3" font-family="Times,serif" font-size="14.00" fill="#0058ad">r 178 [1 2 4 3 7 8 9 10 12 11 13 14 15 16 17 18 19 20 21 22 23 24 25 26 27 28 29 30 31 34 32 35 36 33 38 37 39 41 42 40 43 44 45 46 47 48 50 49 51 53 52 56 57 58 59 60 62 61 64 63 65 66 67 68]</text>
<polyline fill="none" stroke="#0058ad" points="2197,-81.5 2197,-110.5 "/>
<text text-anchor="middle" x="3186.5" y="-92.3" font-family="Times,serif" font-size="14.00" fill="#0058ad">r 179 [1 2 3 5 4 8 9 6 7 11 12 13 14 15 16 19 20 21 17 22 24 18 25 23 26 27 28 29 30 31 32 33 34 35 36 38 39 37 41 42 40 43 44 45 46 47 48 50 49 52 53 54 55 56 51 57 58 59 62 60 63 64 65 66 67 61 68 69 70 72 74 71 76 77 78 75 79 80 82 83 81 84 85 87 88 89 86 92 93 94 90 91 97 95 96 98 99 100 101 103 104 105 106 107 108 102 109 110 111 112]</text>
</g>
<!-- T36057&#45;&gt;T36061 -->
<g id="edge2" class="edge">
<title>T36057:f1&#45;&gt;T36061:f0</title>
<path fill="none" stroke="#c02700" d="M2011,-162C2011,47.4328 1085.5116,-311.6814 1054.7825,-121.1261"/>
<polygon fill="#c02700" stroke="#c02700" points="1058.2602,-120.7006 1054,-111 1051.281,-121.24 1058.2602,-120.7006"/>
<text text-anchor="middle" x="2016" y="-132.8" font-family="Times,serif" font-size="14.00" fill="#c02700">ww</text>
</g>
<!-- T36059&#45;&gt;T36057 -->
<g id="edge3" class="edge">
<title>T36059:f2&#45;&gt;T36057:f1</title>
<path fill="none" stroke="#5b00c0" d="M3832,-30C3832,-109.2589 4133.1169,-21.0824 4185,-81 4193.728,-91.0796 4194.3169,-101.462 4185,-111 4102.8897,-195.0591 2123.7748,-49.5516 2015.6033,-152.7005"/>
<polygon fill="#5b00c0" stroke="#5b00c0" points="2012.2996,-151.4852 2011,-162 2018.5731,-154.5906 2012.2996,-151.4852"/>
<text text-anchor="middle" x="4198.5" y="-92.3" font-family="Times,serif" font-size="14.00" fill="#5b00c0">rw</text>
</g>
<!-- T36061&#45;&gt;T36059 -->
<g id="edge4" class="edge">
<title>T36061:f2&#45;&gt;T36059:f0</title>
<path fill="none" stroke="#5b00c0" d="M3187,-81C3187,-62.2292 3187,-55.1168 3187,-40.3535"/>
<polygon fill="#5b00c0" stroke="#5b00c0" points="3190.5001,-40 3187,-30 3183.5001,-40 3190.5001,-40"/>
<text text-anchor="middle" x="3194.5" y="-51.8" font-family="Times,serif" font-size="14.00" fill="#5b00c0">rw</text>
</g>
</g>
</svg>
