<?xml version="1.0" encoding="UTF-8" standalone="no"?>
<!DOCTYPE svg PUBLIC "-//W3C//DTD SVG 1.1//EN"
 "http://www.w3.org/Graphics/SVG/1.1/DTD/svg11.dtd">
<!-- Generated by graphviz version 2.40.1 (20161225.0304)
 -->
<!-- Title: a_graph Pages: 1 -->
<svg width="3119pt" height="200pt"
 viewBox="0.00 0.00 3119.00 200.00" xmlns="http://www.w3.org/2000/svg" xmlns:xlink="http://www.w3.org/1999/xlink">
<g id="graph0" class="graph" transform="scale(1 1) rotate(0) translate(4 196)">
<title>a_graph</title>
<polygon fill="#ffffff" stroke="transparent" points="-4,4 -4,-196 3115,-196 3115,4 -4,4"/>
<!-- T36045 -->
<g id="node1" class="node">
<title>T36045</title>
<polygon fill="none" stroke="#0058ad" points="986.5,-162.5 986.5,-191.5 2116.5,-191.5 2116.5,-162.5 986.5,-162.5"/>
<text text-anchor="middle" x="1022" y="-173.3" font-family="Times,serif" font-size="14.00" fill="#0058ad">a 179 110</text>
<polyline fill="none" stroke="#0058ad" points="1057.5,-162.5 1057.5,-191.5 "/>
<text text-anchor="middle" x="1587" y="-173.3" font-family="Times,serif" font-size="14.00" fill="#0058ad">r 178 [1 2 4 3 7 8 9 10 12 11 13 14 15 16 17 18 19 20 21 22 23 24 25 26 27 28 29 30 31 34 32 35 36 33 38 37 39 41 42 40 43 44 45 46 47 48 50 49 51 53 52 56 57 58 59 60 62 61 64 63 65]</text>
</g>
<!-- T36049 -->
<g id="node2" class="node">
<title>T36049</title>
<polygon fill="none" stroke="#0058ad" points="0,-.5 0,-29.5 3111,-29.5 3111,-.5 0,-.5"/>
<text text-anchor="middle" x="953.5" y="-11.3" font-family="Times,serif" font-size="14.00" fill="#0058ad">r 179 [1 2 3 5 4 8 9 6 7 11 12 13 14 15 16 19 20 21 17 22 24 18 25 23 26 27 28 29 30 31 32 33 34 35 36 38 39 37 41 42 40 43 44 45 46 47 48 50 49 52 53 54 55 56 51 57 58 59 62 60 63 64 65 66 67 61 68 69 70 72 74 71 76 77 78 75 79 80 82 83 81 84 85 87 88 89 86 92 93 94 90 91 97 95 96 98 99 100 101 103 104 105 106 107 108 102 109]</text>
<polyline fill="none" stroke="#0058ad" points="1907,-.5 1907,-29.5 "/>
<text text-anchor="middle" x="1939" y="-11.3" font-family="Times,serif" font-size="14.00" fill="#0058ad">a 178 66</text>
<polyline fill="none" stroke="#0058ad" points="1971,-.5 1971,-29.5 "/>
<text text-anchor="middle" x="2003" y="-11.3" font-family="Times,serif" font-size="14.00" fill="#0058ad">a 175 94</text>
<polyline fill="none" stroke="#0058ad" points="2035,-.5 2035,-29.5 "/>
<text text-anchor="middle" x="2573" y="-11.3" font-family="Times,serif" font-size="14.00" fill="#0058ad">r 178 [1 2 4 3 7 8 9 10 12 11 13 14 15 16 17 18 19 20 21 22 23 24 25 26 27 28 29 30 31 34 32 35 36 33 38 37 39 41 42 40 43 44 45 46 47 48 50 49 51 53 52 56 57 58 59 60 62 61 64 63 65 66]</text>
</g>
<!-- T36045&#45;&gt;T36049 -->
<g id="edge2" class="edge">
<title>T36045:f1&#45;&gt;T36049:f1</title>
<path fill="none" stroke="#5b00c0" d="M2116.5,-177C2172.0396,-177 2231.7436,-123.9247 2196.5,-81 2179.8303,-60.6973 1983.9886,-59.2132 1945.8972,-37.7278"/>
<polygon fill="#5b00c0" stroke="#5b00c0" points="1948.5729,-35.4712 1939.5,-30 1943.1807,-39.935 1948.5729,-35.4712"/>
<text text-anchor="middle" x="2214" y="-92.3" font-family="Times,serif" font-size="14.00" fill="#5b00c0">rw</text>
</g>
<!-- T36051 -->
<g id="node3" class="node">
<title>T36051</title>
<polygon fill="none" stroke="#0058ad" points="986,-81.5 986,-110.5 2187,-110.5 2187,-81.5 986,-81.5"/>
<text text-anchor="middle" x="1021.5" y="-92.3" font-family="Times,serif" font-size="14.00" fill="#0058ad">a 179 111</text>
<polyline fill="none" stroke="#0058ad" points="1057,-81.5 1057,-110.5 "/>
<text text-anchor="middle" x="1586.5" y="-92.3" font-family="Times,serif" font-size="14.00" fill="#0058ad">r 178 [1 2 4 3 7 8 9 10 12 11 13 14 15 16 17 18 19 20 21 22 23 24 25 26 27 28 29 30 31 34 32 35 36 33 38 37 39 41 42 40 43 44 45 46 47 48 50 49 51 53 52 56 57 58 59 60 62 61 64 63 65]</text>
<polyline fill="none" stroke="#0058ad" points="2116,-81.5 2116,-110.5 "/>
<text text-anchor="middle" x="2151.5" y="-92.3" font-family="Times,serif" font-size="14.00" fill="#0058ad">a 179 112</text>
</g>
<!-- T36045&#45;&gt;T36051 -->
<g id="edge1" class="edge">
<title>T36045:f0&#45;&gt;T36051:f0</title>
<path fill="none" stroke="#c02700" d="M1021.5,-162C1021.5,-143.2292 1021.5,-136.1168 1021.5,-121.3535"/>
<polygon fill="#c02700" stroke="#c02700" points="1025.0001,-121 1021.5,-111 1018.0001,-121 1025.0001,-121"/>
<text text-anchor="middle" x="1031.5" y="-132.8" font-family="Times,serif" font-size="14.00" fill="#c02700">ww</text>
</g>
<!-- T36049&#45;&gt;T36045 -->
<g id="edge3" class="edge">
<title>T36049:f0&#45;&gt;T36045:f0</title>
<path fill="none" stroke="#5b00c0" d="M953.5,-30C953.5,-32.3195 955.0327,-147.1097 977.3159,-172.1923"/>
<polygon fill="#5b00c0" stroke="#5b00c0" points="976.0172,-175.463 986.5,-177 979.2637,-169.2613 976.0172,-175.463"/>
<text text-anchor="middle" x="966" y="-92.3" font-family="Times,serif" font-size="14.00" fill="#5b00c0">rw</text>
</g>
<!-- T36051&#45;&gt;T36049 -->
<g id="edge4" class="edge">
<title>T36051:f1&#45;&gt;T36049:f1</title>
<path fill="none" stroke="#5b00c0" d="M1586.5,-81C1586.5,73.9574 1923.8207,-176.7812 1938.9737,-40.0484"/>
<polygon fill="#5b00c0" stroke="#5b00c0" points="1942.4721,-40.1694 1939.5,-30 1935.4817,-39.8032 1942.4721,-40.1694"/>
<text text-anchor="middle" x="1943" y="-51.8" font-family="Times,serif" font-size="14.00" fill="#5b00c0">rw</text>
</g>
</g>
</svg>
