<?xml version="1.0" encoding="UTF-8" standalone="no"?>
<!DOCTYPE svg PUBLIC "-//W3C//DTD SVG 1.1//EN"
 "http://www.w3.org/Graphics/SVG/1.1/DTD/svg11.dtd">
<!-- Generated by graphviz version 2.40.1 (20161225.0304)
 -->
<!-- Title: a_graph Pages: 1 -->
<svg width="3102pt" height="119pt"
 viewBox="0.00 0.00 3101.50 119.00" xmlns="http://www.w3.org/2000/svg" xmlns:xlink="http://www.w3.org/1999/xlink">
<g id="graph0" class="graph" transform="scale(1 1) rotate(0) translate(4 115)">
<title>a_graph</title>
<polygon fill="#ffffff" stroke="transparent" points="-4,4 -4,-115 3097.5,-115 3097.5,4 -4,4"/>
<!-- T26845 -->
<g id="node1" class="node">
<title>T26845</title>
<polygon fill="none" stroke="#0058ad" points="0,-81.5 0,-110.5 2948,-110.5 2948,-81.5 0,-81.5"/>
<text text-anchor="middle" x="721" y="-92.3" font-family="Times,serif" font-size="14.00" fill="#0058ad">r 136 [1 2 3 4 5 7 6 9 8 12 13 14 15 10 11 17 18 19 20 21 16 22 23 24 25 26 27 28 29 30 32 36 37 38 39 40 41 42 43 44 45 46 47 48 49 50 51 52 53 54 55 56 57 59 58 60 61 63 64 65 66 67 68 62 69 70 71 73 74 75 76 77 78 80 79 84 85 86 88 91 72 92 93 94]</text>
<polyline fill="none" stroke="#0058ad" points="1442,-81.5 1442,-110.5 "/>
<text text-anchor="middle" x="2163" y="-92.3" font-family="Times,serif" font-size="14.00" fill="#0058ad">r 136 [1 2 3 4 5 7 6 9 8 12 13 14 15 10 11 17 18 19 20 21 16 22 23 24 25 26 27 28 29 30 32 36 37 38 39 40 41 42 43 44 45 46 47 48 49 50 51 52 53 54 55 56 57 59 58 60 61 63 64 65 66 67 68 62 69 70 71 73 74 75 76 77 78 80 79 84 85 86 88 91 72 92 93 94]</text>
<polyline fill="none" stroke="#0058ad" points="2884,-81.5 2884,-110.5 "/>
<text text-anchor="middle" x="2916" y="-92.3" font-family="Times,serif" font-size="14.00" fill="#0058ad">a 134 24</text>
</g>
<!-- T26847 -->
<g id="node2" class="node">
<title>T26847</title>
<polygon fill="none" stroke="#0058ad" points="330.5,-.5 330.5,-29.5 3093.5,-29.5 3093.5,-.5 330.5,-.5"/>
<text text-anchor="middle" x="362.5" y="-11.3" font-family="Times,serif" font-size="14.00" fill="#0058ad">a 131 22</text>
<polyline fill="none" stroke="#0058ad" points="394.5,-.5 394.5,-29.5 "/>
<text text-anchor="middle" x="575.5" y="-11.3" font-family="Times,serif" font-size="14.00" fill="#0058ad">r 134 [2 1 4 5 6 7 8 9 10 11 12 13 14 15 16 17 18 19 20 22 23]</text>
<polyline fill="none" stroke="#0058ad" points="756.5,-.5 756.5,-29.5 "/>
<text text-anchor="middle" x="1893" y="-11.3" font-family="Times,serif" font-size="14.00" fill="#0058ad">r 130 [1 2 3 4 5 6 7 8 10 11 9 12 13 14 15 18 19 20 21 22 23 24 25 26 27 28 29 30 31 32 34 35 37 36 38 39 40 41 42 43 44 45 46 47 49 48 50 51 52 54 55 53 56 57 58 59 60 61 62 63 64 65 66 67 68 70 69 71 72 73 75 76 77 74 78 79 80 81 82 83 84 85 86 87 88 89 90 91 92 93 95 94 96 97 98 99 100 101 102 103 104 105 106 107 108 109 110 112 113 114 116 117 118 115 120 121 119 122 123 126 128 127]</text>
<polyline fill="none" stroke="#0058ad" points="3029.5,-.5 3029.5,-29.5 "/>
<text text-anchor="middle" x="3061.5" y="-11.3" font-family="Times,serif" font-size="14.00" fill="#0058ad">a 136 95</text>
</g>
<!-- T26845&#45;&gt;T26847 -->
<g id="edge1" class="edge">
<title>T26845:f0&#45;&gt;T26847:f3</title>
<path fill="none" stroke="#5b00c0" d="M721,-81C721,-73.1872 2882.6815,-40.8038 3051.5628,-31.0714"/>
<polygon fill="#5b00c0" stroke="#5b00c0" points="3052.4097,-34.503 3062,-30 3051.6948,-27.5396 3052.4097,-34.503"/>
<text text-anchor="middle" x="2244.5" y="-51.8" font-family="Times,serif" font-size="14.00" fill="#5b00c0">rw</text>
</g>
<!-- T26847&#45;&gt;T26845 -->
<g id="edge2" class="edge">
<title>T26847:f1&#45;&gt;T26845:f2</title>
<path fill="none" stroke="#5b00c0" d="M575,-30C575,-41.6743 2244.3311,-47.6459 2256,-48 2399.1988,-52.345 2891.159,60.1465 2915.0951,-70.7129"/>
<polygon fill="#5b00c0" stroke="#5b00c0" points="2911.6371,-71.3452 2916,-81 2918.6102,-70.7317 2911.6371,-71.3452"/>
<text text-anchor="middle" x="2917.5" y="-51.8" font-family="Times,serif" font-size="14.00" fill="#5b00c0">rw</text>
</g>
</g>
</svg>
