<?xml version="1.0" encoding="UTF-8" standalone="no"?>
<!DOCTYPE svg PUBLIC "-//W3C//DTD SVG 1.1//EN"
 "http://www.w3.org/Graphics/SVG/1.1/DTD/svg11.dtd">
<!-- Generated by graphviz version 2.40.1 (20161225.0304)
 -->
<!-- Title: a_graph Pages: 1 -->
<svg width="3697pt" height="119pt"
 viewBox="0.00 0.00 3697.00 119.00" xmlns="http://www.w3.org/2000/svg" xmlns:xlink="http://www.w3.org/1999/xlink">
<g id="graph0" class="graph" transform="scale(1 1) rotate(0) translate(4 115)">
<title>a_graph</title>
<polygon fill="#ffffff" stroke="transparent" points="-4,4 -4,-115 3693,-115 3693,4 -4,4"/>
<!-- T623 -->
<g id="node1" class="node">
<title>T623</title>
<polygon fill="none" stroke="#0058ad" points="657,-81.5 657,-110.5 3689,-110.5 3689,-81.5 657,-81.5"/>
<text text-anchor="middle" x="1390" y="-92.3" font-family="Times,serif" font-size="14.00" fill="#0058ad">r 10 [1 5 6 4 7 8 9 10 11 12 13 14 15 18 16 17 19 20 21 22 23 24 25 26 27 28 29 31 30 32 33 34 35 36 37 38 39 40 41 42 43 44 45 46 47 50 51 49 48 52 53 54 55 56 57 58 59 60 61 62 63 64 65 66 67 69 68 70 71 73 74 75 72 76 77 79 80 78 81 83 85 86 87 82 84]</text>
<polyline fill="none" stroke="#0058ad" points="2123,-81.5 2123,-110.5 "/>
<text text-anchor="middle" x="2148" y="-92.3" font-family="Times,serif" font-size="14.00" fill="#0058ad">a 8 89</text>
<polyline fill="none" stroke="#0058ad" points="2173,-81.5 2173,-110.5 "/>
<text text-anchor="middle" x="2906" y="-92.3" font-family="Times,serif" font-size="14.00" fill="#0058ad">r 10 [1 5 6 4 7 8 9 10 11 12 13 14 15 18 16 17 19 20 21 22 23 24 25 26 27 28 29 31 30 32 33 34 35 36 37 38 39 40 41 42 43 44 45 46 47 50 51 49 48 52 53 54 55 56 57 58 59 60 61 62 63 64 65 66 67 69 68 70 71 73 74 75 72 76 77 79 80 78 81 83 85 86 87 82 84]</text>
<polyline fill="none" stroke="#0058ad" points="3639,-81.5 3639,-110.5 "/>
<text text-anchor="middle" x="3664" y="-92.3" font-family="Times,serif" font-size="14.00" fill="#0058ad">a 7 45</text>
</g>
<!-- T625 -->
<g id="node2" class="node">
<title>T625</title>
<polygon fill="none" stroke="#0058ad" points="0,-.5 0,-29.5 2886,-29.5 2886,-.5 0,-.5"/>
<text text-anchor="middle" x="681.5" y="-11.3" font-family="Times,serif" font-size="14.00" fill="#0058ad">r 8 [2 5 6 7 8 9 10 11 12 13 14 15 16 17 18 19 20 21 22 23 24 25 26 27 28 29 30 31 32 34 35 33 36 37 38 39 40 41 42 43 44 46 47 45 48 51 53 55 54 57 60 61 62 63 64 65 66 67 68 71 69 70 72 73 74 75 76 77 79 78 80 81 82 83 84 85 86 87 88]</text>
<polyline fill="none" stroke="#0058ad" points="1363,-.5 1363,-29.5 "/>
<text text-anchor="middle" x="2096" y="-11.3" font-family="Times,serif" font-size="14.00" fill="#0058ad">r 10 [1 5 6 4 7 8 9 10 11 12 13 14 15 18 16 17 19 20 21 22 23 24 25 26 27 28 29 31 30 32 33 34 35 36 37 38 39 40 41 42 43 44 45 46 47 50 51 49 48 52 53 54 55 56 57 58 59 60 61 62 63 64 65 66 67 69 68 70 71 73 74 75 72 76 77 79 80 78 81 83 85 86 87 82 84]</text>
<polyline fill="none" stroke="#0058ad" points="2829,-.5 2829,-29.5 "/>
<text text-anchor="middle" x="2857.5" y="-11.3" font-family="Times,serif" font-size="14.00" fill="#0058ad">a 10 88</text>
</g>
<!-- T623&#45;&gt;T625 -->
<g id="edge1" class="edge">
<title>T623:f0&#45;&gt;T625:f2</title>
<path fill="none" stroke="#5b00c0" d="M1390,-81C1390,39.4457 1810.6515,-52.8369 1931,-48 1943.0754,-47.5147 2748.9302,-43.4286 2848.0424,-32.2838"/>
<polygon fill="#5b00c0" stroke="#5b00c0" points="2849.0355,-35.647 2858,-30 2847.4706,-28.8242 2849.0355,-35.647"/>
<text text-anchor="middle" x="1938.5" y="-51.8" font-family="Times,serif" font-size="14.00" fill="#5b00c0">rw</text>
</g>
<!-- T625&#45;&gt;T623 -->
<g id="edge2" class="edge">
<title>T625:f0&#45;&gt;T623:f1</title>
<path fill="none" stroke="#5b00c0" d="M681,-30C681,-47.5712 1928.4969,-46.4543 1946,-48 2032.8986,-55.6741 2138.8979,4.6807 2147.447,-70.5828"/>
<polygon fill="#5b00c0" stroke="#5b00c0" points="2143.9747,-71.1996 2148,-81 2150.9649,-70.8285 2143.9747,-71.1996"/>
<text text-anchor="middle" x="2152.5" y="-51.8" font-family="Times,serif" font-size="14.00" fill="#5b00c0">rw</text>
</g>
</g>
</svg>
