<?xml version="1.0" encoding="UTF-8" standalone="no"?>
<!DOCTYPE svg PUBLIC "-//W3C//DTD SVG 1.1//EN"
 "http://www.w3.org/Graphics/SVG/1.1/DTD/svg11.dtd">
<!-- Generated by graphviz version 2.40.1 (20161225.0304)
 -->
<!-- Title: a_graph Pages: 1 -->
<svg width="1375pt" height="119pt"
 viewBox="0.00 0.00 1375.00 119.00" xmlns="http://www.w3.org/2000/svg" xmlns:xlink="http://www.w3.org/1999/xlink">
<g id="graph0" class="graph" transform="scale(1 1) rotate(0) translate(4 115)">
<title>a_graph</title>
<polygon fill="#ffffff" stroke="transparent" points="-4,4 -4,-115 1371,-115 1371,4 -4,4"/>
<!-- T15787 -->
<g id="node1" class="node">
<title>T15787</title>
<polygon fill="none" stroke="#0058ad" points="0,-81.5 0,-110.5 1242,-110.5 1242,-81.5 0,-81.5"/>
<text text-anchor="middle" x="243.5" y="-92.3" font-family="Times,serif" font-size="14.00" fill="#0058ad">r 83 [1 2 3 4 5 6 7 8 9 10 11 12 13 14 15 16 17 18 19 20 22 23 24 25 26 27 30 28 29]</text>
<polyline fill="none" stroke="#0058ad" points="487,-81.5 487,-110.5 "/>
<text text-anchor="middle" x="515.5" y="-92.3" font-family="Times,serif" font-size="14.00" fill="#0058ad">a 83 31</text>
<polyline fill="none" stroke="#0058ad" points="544,-81.5 544,-110.5 "/>
<text text-anchor="middle" x="718.5" y="-92.3" font-family="Times,serif" font-size="14.00" fill="#0058ad">r 82 [1 2 3 4 5 6 7 8 9 10 11 12 13 14 15 16 17 18 19 20 22]</text>
<polyline fill="none" stroke="#0058ad" points="893,-81.5 893,-110.5 "/>
<text text-anchor="middle" x="1067.5" y="-92.3" font-family="Times,serif" font-size="14.00" fill="#0058ad">r 82 [1 2 3 4 5 6 7 8 9 10 11 12 13 14 15 16 17 18 19 20 22]</text>
</g>
<!-- T15789 -->
<g id="node2" class="node">
<title>T15789</title>
<polygon fill="none" stroke="#0058ad" points="383,-.5 383,-29.5 1367,-29.5 1367,-.5 383,-.5"/>
<text text-anchor="middle" x="411.5" y="-11.3" font-family="Times,serif" font-size="14.00" fill="#0058ad">a 82 23</text>
<polyline fill="none" stroke="#0058ad" points="440,-.5 440,-29.5 "/>
<text text-anchor="middle" x="468.5" y="-11.3" font-family="Times,serif" font-size="14.00" fill="#0058ad">a 82 24</text>
<polyline fill="none" stroke="#0058ad" points="497,-.5 497,-29.5 "/>
<text text-anchor="middle" x="740.5" y="-11.3" font-family="Times,serif" font-size="14.00" fill="#0058ad">r 83 [1 2 3 4 5 6 7 8 9 10 11 12 13 14 15 16 17 18 19 20 22 23 24 25 26 27 30 28 29]</text>
<polyline fill="none" stroke="#0058ad" points="984,-.5 984,-29.5 "/>
<text text-anchor="middle" x="1175.5" y="-11.3" font-family="Times,serif" font-size="14.00" fill="#0058ad">r 82 [1 2 3 4 5 6 7 8 9 10 11 12 13 14 15 16 17 18 19 20 22 23 24]</text>
</g>
<!-- T15787&#45;&gt;T15789 -->
<g id="edge1" class="edge">
<title>T15787:f2&#45;&gt;T15789:f0</title>
<path fill="none" stroke="#5b00c0" d="M719,-81C719,-15.7741 640.3106,-58.8891 576,-48 560.3737,-45.3541 449.7484,-47.5824 418.9441,-36.5567"/>
<polygon fill="#5b00c0" stroke="#5b00c0" points="420.9403,-33.6662 411,-30 416.4845,-39.0649 420.9403,-33.6662"/>
<text text-anchor="middle" x="722.5" y="-51.8" font-family="Times,serif" font-size="14.00" fill="#5b00c0">rw</text>
</g>
<!-- T15789&#45;&gt;T15787 -->
<g id="edge2" class="edge">
<title>T15789:f2&#45;&gt;T15787:f1</title>
<path fill="none" stroke="#5b00c0" d="M740,-30C740,-50.4315 575.9587,-40.3835 557,-48 538.5858,-55.3977 521.6086,-56.8987 516.5336,-71.0593"/>
<polygon fill="#5b00c0" stroke="#5b00c0" points="513.0657,-70.5832 515,-81 519.9839,-71.6506 513.0657,-70.5832"/>
<text text-anchor="middle" x="564.5" y="-51.8" font-family="Times,serif" font-size="14.00" fill="#5b00c0">rw</text>
</g>
</g>
</svg>
