<?xml version="1.0" encoding="UTF-8" standalone="no"?>
<!DOCTYPE svg PUBLIC "-//W3C//DTD SVG 1.1//EN"
 "http://www.w3.org/Graphics/SVG/1.1/DTD/svg11.dtd">
<!-- Generated by graphviz version 2.40.1 (20161225.0304)
 -->
<!-- Title: a_graph Pages: 1 -->
<svg width="6536pt" height="119pt"
 viewBox="0.00 0.00 6535.50 119.00" xmlns="http://www.w3.org/2000/svg" xmlns:xlink="http://www.w3.org/1999/xlink">
<g id="graph0" class="graph" transform="scale(1 1) rotate(0) translate(4 115)">
<title>a_graph</title>
<polygon fill="#ffffff" stroke="transparent" points="-4,4 -4,-115 6531.5,-115 6531.5,4 -4,4"/>
<!-- T6451 -->
<g id="node1" class="node">
<title>T6451</title>
<polygon fill="none" stroke="#0058ad" points="2813.5,-81.5 2813.5,-110.5 6527.5,-110.5 6527.5,-81.5 2813.5,-81.5"/>
<text text-anchor="middle" x="2838.5" y="-92.3" font-family="Times,serif" font-size="14.00" fill="#0058ad">a 36 2</text>
<polyline fill="none" stroke="#0058ad" points="2863.5,-81.5 2863.5,-110.5 "/>
<text text-anchor="middle" x="3576" y="-92.3" font-family="Times,serif" font-size="14.00" fill="#0058ad">r 34 [1 2 3 4 5 6 7 8 10 11 12 13 14 15 16 17 18 19 20 21 22 23 24 25 26 27 28 29 30 31 32 33 34 35 36 37 39 40 41 42 43 44 45 46 47 48 49 50 51 52 53 54 55 56 57 58 59 60 61 62 63 64 65 66 67 68 69 70 71 72 73 74 75 76 77 78 79 80 81 82 84 85 86]</text>
<polyline fill="none" stroke="#0058ad" points="4288.5,-81.5 4288.5,-110.5 "/>
<text text-anchor="middle" x="5408" y="-92.3" font-family="Times,serif" font-size="14.00" fill="#0058ad">r 35 [1 3 4 5 6 7 8 9 11 10 12 13 14 15 19 20 21 16 17 18 22 23 24 25 26 27 28 29 30 31 32 33 36 35 37 38 39 40 41 42 43 44 45 46 47 48 49 50 51 52 53 54 55 56 57 58 59 60 61 62 63 64 65 66 67 68 69 70 71 72 73 75 74 77 76 80 81 82 83 84 85 86 87 89 90 91 92 93 94 95 96 97 98 99 100 101 102 103 104 105 107 108 109 106 110 111 112 113 114 115 116 117 118 119 120 121 122 124 125 126]</text>
</g>
<!-- T6449 -->
<g id="node2" class="node">
<title>T6449</title>
<polygon fill="none" stroke="#0058ad" points="0,-.5 0,-29.5 3265,-29.5 3265,-.5 0,-.5"/>
<text text-anchor="middle" x="1119.5" y="-11.3" font-family="Times,serif" font-size="14.00" fill="#0058ad">r 35 [1 3 4 5 6 7 8 9 11 10 12 13 14 15 19 20 21 16 17 18 22 23 24 25 26 27 28 29 30 31 32 33 36 35 37 38 39 40 41 42 43 44 45 46 47 48 49 50 51 52 53 54 55 56 57 58 59 60 61 62 63 64 65 66 67 68 69 70 71 72 73 75 74 77 76 80 81 82 83 84 85 86 87 89 90 91 92 93 94 95 96 97 98 99 100 101 102 103 104 105 107 108 109 106 110 111 112 113 114 115 116 117 118 119 120 121 122 124 125 126]</text>
<polyline fill="none" stroke="#0058ad" points="2239,-.5 2239,-29.5 "/>
<text text-anchor="middle" x="2694.5" y="-11.3" font-family="Times,serif" font-size="14.00" fill="#0058ad">r 4 [1 2 3 4 5 6 7 8 9 10 12 13 14 15 16 17 18 19 20 22 21 23 24 25 26 27 28 29 31 32 34 35 36 37 38 39 40 41 42 44 45 48 49 50 51 52 53 54 55 56 57 58 59 60]</text>
<polyline fill="none" stroke="#0058ad" points="3150,-.5 3150,-29.5 "/>
<text text-anchor="middle" x="3178.5" y="-11.3" font-family="Times,serif" font-size="14.00" fill="#0058ad">a 34 87</text>
<polyline fill="none" stroke="#0058ad" points="3207,-.5 3207,-29.5 "/>
<text text-anchor="middle" x="3236" y="-11.3" font-family="Times,serif" font-size="14.00" fill="#0058ad">r 36 [1]</text>
</g>
<!-- T6451&#45;&gt;T6449 -->
<g id="edge1" class="edge">
<title>T6451:f1&#45;&gt;T6449:f2</title>
<path fill="none" stroke="#5b00c0" d="M3575.5,-81C3575.5,-59.8097 3212.1867,-74.6708 3194.5,-63 3184.0839,-56.1268 3180.2385,-49.9888 3179.0082,-40.1739"/>
<polygon fill="#5b00c0" stroke="#5b00c0" points="3182.4946,-39.8129 3178.5,-30 3175.5034,-40.1622 3182.4946,-39.8129"/>
<text text-anchor="middle" x="3202" y="-51.8" font-family="Times,serif" font-size="14.00" fill="#5b00c0">rw</text>
</g>
<!-- T6449&#45;&gt;T6451 -->
<g id="edge2" class="edge">
<title>T6449:f3&#45;&gt;T6451:f0</title>
<path fill="none" stroke="#5b00c0" d="M3236.5,-30C3236.5,-48.9502 3226.423,-54.4723 3209.5,-63 3192.7997,-71.4155 2901.6705,-62.4135 2847.2305,-76.0104"/>
<polygon fill="#5b00c0" stroke="#5b00c0" points="2845.4455,-72.9993 2838.5,-81 2848.9188,-79.0768 2845.4455,-72.9993"/>
<text text-anchor="middle" x="3239" y="-51.8" font-family="Times,serif" font-size="14.00" fill="#5b00c0">rw</text>
</g>
</g>
</svg>
