<?xml version="1.0" encoding="UTF-8" standalone="no"?>
<!DOCTYPE svg PUBLIC "-//W3C//DTD SVG 1.1//EN"
 "http://www.w3.org/Graphics/SVG/1.1/DTD/svg11.dtd">
<!-- Generated by graphviz version 2.40.1 (20161225.0304)
 -->
<!-- Title: a_graph Pages: 1 -->
<svg width="4211pt" height="119pt"
 viewBox="0.00 0.00 4211.00 119.00" xmlns="http://www.w3.org/2000/svg" xmlns:xlink="http://www.w3.org/1999/xlink">
<g id="graph0" class="graph" transform="scale(1 1) rotate(0) translate(4 115)">
<title>a_graph</title>
<polygon fill="#ffffff" stroke="transparent" points="-4,4 -4,-115 4207,-115 4207,4 -4,4"/>
<!-- T25835 -->
<g id="node1" class="node">
<title>T25835</title>
<polygon fill="none" stroke="#0058ad" points="0,-81.5 0,-110.5 3103,-110.5 3103,-81.5 0,-81.5"/>
<text text-anchor="middle" x="907" y="-92.3" font-family="Times,serif" font-size="14.00" fill="#0058ad">r 126 [1 2 3 4 5 6 7 8 9 10 12 13 14 15 16 17 18 19 20 21 22 23 25 26 27 28 30 32 33 34 35 36 38 39 37 40 41 42 43 44 47 45 46 48 49 50 51 52 53 54 55 56 57 58 59 60 61 62 63 64 65 66 67 68 69 70 71 72 73 74 75 76 77 78 79 80 81 84 85 86 87 88 90 89 91 92 93 94 95 96 97 98 99 100 101 102 103 105 104 106 107 108]</text>
<polyline fill="none" stroke="#0058ad" points="1814,-81.5 1814,-110.5 "/>
<text text-anchor="middle" x="2423" y="-92.3" font-family="Times,serif" font-size="14.00" fill="#0058ad">r 125 [1 2 3 4 5 7 6 8 9 10 11 12 13 14 15 16 17 18 19 20 22 23 24 25 26 27 28 29 31 32 33 35 36 37 38 39 41 42 43 44 45 46 47 49 48 50 51 52 53 54 55 56 57 58 59 60 61 62 63 64 66 65 67 68 70 72 74 73 76 75 77]</text>
<polyline fill="none" stroke="#0058ad" points="3032,-81.5 3032,-110.5 "/>
<text text-anchor="middle" x="3067.5" y="-92.3" font-family="Times,serif" font-size="14.00" fill="#0058ad">a 126 109</text>
</g>
<!-- T25833 -->
<g id="node2" class="node">
<title>T25833</title>
<polygon fill="none" stroke="#0058ad" points="2254,-.5 2254,-29.5 4203,-29.5 4203,-.5 2254,-.5"/>
<text text-anchor="middle" x="2286" y="-11.3" font-family="Times,serif" font-size="14.00" fill="#0058ad">a 125 79</text>
<polyline fill="none" stroke="#0058ad" points="2318,-.5 2318,-29.5 "/>
<text text-anchor="middle" x="2353.5" y="-11.3" font-family="Times,serif" font-size="14.00" fill="#0058ad">a 128 125</text>
<polyline fill="none" stroke="#0058ad" points="2389,-.5 2389,-29.5 "/>
<text text-anchor="middle" x="3296" y="-11.3" font-family="Times,serif" font-size="14.00" fill="#0058ad">r 126 [1 2 3 4 5 6 7 8 9 10 12 13 14 15 16 17 18 19 20 21 22 23 25 26 27 28 30 32 33 34 35 36 38 39 37 40 41 42 43 44 47 45 46 48 49 50 51 52 53 54 55 56 57 58 59 60 61 62 63 64 65 66 67 68 69 70 71 72 73 74 75 76 77 78 79 80 81 84 85 86 87 88 90 89 91 92 93 94 95 96 97 98 99 100 101 102 103 105 104 106 107 108]</text>
</g>
<!-- T25835&#45;&gt;T25833 -->
<g id="edge1" class="edge">
<title>T25835:f1&#45;&gt;T25833:f0</title>
<path fill="none" stroke="#5b00c0" d="M2423.5,-81C2423.5,-19.4436 2301.1981,-86.5374 2286.8658,-40.0572"/>
<polygon fill="#5b00c0" stroke="#5b00c0" points="2290.314,-39.438 2285.5,-30 2283.3776,-40.3801 2290.314,-39.438"/>
<text text-anchor="middle" x="2424" y="-51.8" font-family="Times,serif" font-size="14.00" fill="#5b00c0">rw</text>
</g>
<!-- T25833&#45;&gt;T25835 -->
<g id="edge2" class="edge">
<title>T25833:f2&#45;&gt;T25835:f2</title>
<path fill="none" stroke="#5b00c0" d="M3296.5,-30C3296.5,-72.3173 3167.7889,-93.1457 3113.8108,-95.7253"/>
<polygon fill="#5b00c0" stroke="#5b00c0" points="3113.4032,-92.2349 3103.5,-96 3113.5897,-99.2324 3113.4032,-92.2349"/>
<text text-anchor="middle" x="3293" y="-51.8" font-family="Times,serif" font-size="14.00" fill="#5b00c0">rw</text>
</g>
</g>
</svg>
