<?xml version="1.0" encoding="UTF-8" standalone="no"?>
<!DOCTYPE svg PUBLIC "-//W3C//DTD SVG 1.1//EN"
 "http://www.w3.org/Graphics/SVG/1.1/DTD/svg11.dtd">
<!-- Generated by graphviz version 2.40.1 (20161225.0304)
 -->
<!-- Title: a_graph Pages: 1 -->
<svg width="3151pt" height="200pt"
 viewBox="0.00 0.00 3150.77 200.00" xmlns="http://www.w3.org/2000/svg" xmlns:xlink="http://www.w3.org/1999/xlink">
<g id="graph0" class="graph" transform="scale(1 1) rotate(0) translate(4 196)">
<title>a_graph</title>
<polygon fill="#ffffff" stroke="transparent" points="-4,4 -4,-196 3146.7737,-196 3146.7737,4 -4,4"/>
<!-- T37877 -->
<g id="node1" class="node">
<title>T37877</title>
<polygon fill="none" stroke="#0058ad" points="1431,-162.5 1431,-191.5 3138,-191.5 3138,-162.5 1431,-162.5"/>
<text text-anchor="middle" x="1463" y="-173.3" font-family="Times,serif" font-size="14.00" fill="#0058ad">a 187 89</text>
<polyline fill="none" stroke="#0058ad" points="1495,-162.5 1495,-191.5 "/>
<text text-anchor="middle" x="1742" y="-173.3" font-family="Times,serif" font-size="14.00" fill="#0058ad">r 185 [1 2 3 4 5 6 7 8 9 10 12 11 13 14 15 16 17 18 19 20 21 22 23 24 25 26 27 28 29]</text>
<polyline fill="none" stroke="#0058ad" points="1989,-162.5 1989,-191.5 "/>
<text text-anchor="middle" x="2563.5" y="-173.3" font-family="Times,serif" font-size="14.00" fill="#0058ad">r 188 [1 3 4 5 2 6 8 7 9 10 13 14 15 11 12 16 17 18 19 21 20 22 23 28 29 25 26 31 24 34 32 33 35 36 37 38 39 40 41 42 43 44 45 46 49 50 51 52 53 59 60 64 65 66 67 68 69 70 61 62 71 75 76 72 73 74 78]</text>
</g>
<!-- T37873 -->
<g id="node2" class="node">
<title>T37873</title>
<polygon fill="none" stroke="#0058ad" points="1229.5,-81.5 1229.5,-110.5 2791.5,-110.5 2791.5,-81.5 1229.5,-81.5"/>
<text text-anchor="middle" x="1261.5" y="-92.3" font-family="Times,serif" font-size="14.00" fill="#0058ad">a 182 92</text>
<polyline fill="none" stroke="#0058ad" points="1293.5,-81.5 1293.5,-110.5 "/>
<text text-anchor="middle" x="1329" y="-92.3" font-family="Times,serif" font-size="14.00" fill="#0058ad">a 163 104</text>
<polyline fill="none" stroke="#0058ad" points="1364.5,-81.5 1364.5,-110.5 "/>
<text text-anchor="middle" x="2046" y="-92.3" font-family="Times,serif" font-size="14.00" fill="#0058ad">r 187 [3 1 2 4 5 6 9 10 7 11 12 14 15 16 17 18 20 19 21 23 22 25 26 27 28 29 30 31 32 33 34 35 36 37 38 39 40 41 42 43 44 45 48 47 46 51 52 53 50 54 56 55 58 57 59 60 62 61 63 64 65 66 67 68 74 75 69 70 77 78 79 80 82 84 85 86 87 88 83]</text>
<polyline fill="none" stroke="#0058ad" points="2727.5,-81.5 2727.5,-110.5 "/>
<text text-anchor="middle" x="2759.5" y="-92.3" font-family="Times,serif" font-size="14.00" fill="#0058ad">a 188 77</text>
</g>
<!-- T37877&#45;&gt;T37873 -->
<g id="edge2" class="edge">
<title>T37877:f2&#45;&gt;T37873:f3</title>
<path fill="none" stroke="#5b00c0" d="M3138.5,-177C3145.1667,-177 3142.8426,-167.0583 3138.5,-162 3040.9705,-48.3964 2937.8943,-180.9252 2805.5,-111 2801.7202,-109.0036 2800.4115,-105.583 2799.1485,-102.5119"/>
<polygon fill="#5b00c0" stroke="#5b00c0" points="2801.3831,-99.8177 2791.5,-96 2796.8452,-105.1476 2801.3831,-99.8177"/>
<text text-anchor="middle" x="3122" y="-132.8" font-family="Times,serif" font-size="14.00" fill="#5b00c0">rw</text>
</g>
<!-- T37875 -->
<g id="node3" class="node">
<title>T37875</title>
<polygon fill="none" stroke="#0058ad" points="0,-.5 0,-29.5 2657,-29.5 2657,-.5 0,-.5"/>
<text text-anchor="middle" x="583" y="-11.3" font-family="Times,serif" font-size="14.00" fill="#0058ad">r 188 [1 3 4 5 2 6 8 7 9 10 13 14 15 11 12 16 17 18 19 21 20 22 23 28 29 25 26 31 24 34 32 33 35 36 37 38 39 40 41 42 43 44 45 46 49 50 51 52 53 59 60 64 65 66 67 68 69 70 61 62 71 75 76 72 73 74 78 77]</text>
<polyline fill="none" stroke="#0058ad" points="1166,-.5 1166,-29.5 "/>
<text text-anchor="middle" x="1198" y="-11.3" font-family="Times,serif" font-size="14.00" fill="#0058ad">a 185 30</text>
<polyline fill="none" stroke="#0058ad" points="1230,-.5 1230,-29.5 "/>
<text text-anchor="middle" x="1262" y="-11.3" font-family="Times,serif" font-size="14.00" fill="#0058ad">a 182 93</text>
<polyline fill="none" stroke="#0058ad" points="1294,-.5 1294,-29.5 "/>
<text text-anchor="middle" x="1975.5" y="-11.3" font-family="Times,serif" font-size="14.00" fill="#0058ad">r 187 [3 1 2 4 5 6 9 10 7 11 12 14 15 16 17 18 20 19 21 23 22 25 26 27 28 29 30 31 32 33 34 35 36 37 38 39 40 41 42 43 44 45 48 47 46 51 52 53 50 54 56 55 58 57 59 60 62 61 63 64 65 66 67 68 74 75 69 70 77 78 79 80 82 84 85 86 87 88 83]</text>
</g>
<!-- T37877&#45;&gt;T37875 -->
<g id="edge1" class="edge">
<title>T37877:f1&#45;&gt;T37875:f1</title>
<path fill="none" stroke="#5b00c0" d="M1741.5,-162C1741.5,-42.3509 1290.2561,-195.453 1205.5,-111 1182.377,-87.9597 1194.47,-70.0025 1197.0524,-40.1367"/>
<polygon fill="#5b00c0" stroke="#5b00c0" points="1200.5554,-40.1447 1197.5,-30 1193.5622,-39.8358 1200.5554,-40.1447"/>
<text text-anchor="middle" x="1213" y="-92.3" font-family="Times,serif" font-size="14.00" fill="#5b00c0">rw</text>
</g>
<!-- T37873&#45;&gt;T37877 -->
<g id="edge3" class="edge">
<title>T37873:f2&#45;&gt;T37877:f0</title>
<path fill="none" stroke="#5b00c0" d="M2046.5,-111C2046.5,-179.6786 1477.0165,-111.4731 1430.5,-162 1429.1595,-163.4561 1428.0274,-165.3696 1427.2724,-167.3407"/>
<polygon fill="#5b00c0" stroke="#5b00c0" points="1424.0112,-168.6247 1430.5,-177 1430.6504,-166.4062 1424.0112,-168.6247"/>
<text text-anchor="middle" x="2031" y="-132.8" font-family="Times,serif" font-size="14.00" fill="#5b00c0">rw</text>
</g>
<!-- T37873&#45;&gt;T37875 -->
<g id="edge4" class="edge">
<title>T37873:f0&#45;&gt;T37875:f2</title>
<path fill="none" stroke="#c02700" d="M1261.5,-81C1261.5,-62.2292 1261.5,-55.1168 1261.5,-40.3535"/>
<polygon fill="#c02700" stroke="#c02700" points="1265.0001,-40 1261.5,-30 1258.0001,-40 1265.0001,-40"/>
<text text-anchor="middle" x="1271.5" y="-51.8" font-family="Times,serif" font-size="14.00" fill="#c02700">ww</text>
</g>
<!-- T37875&#45;&gt;T37877 -->
<g id="edge5" class="edge">
<title>T37875:f3&#45;&gt;T37877:f0</title>
<path fill="none" stroke="#5b00c0" d="M2657.5,-15C2920.5232,-15 2889.2253,-18.8284 2800.5,-111 2775.9401,-136.5138 1585.1366,-125.9584 1471.2292,-156.9955"/>
<polygon fill="#5b00c0" stroke="#5b00c0" points="1469.4347,-153.9899 1462.5,-162 1472.9162,-160.0627 1469.4347,-153.9899"/>
<text text-anchor="middle" x="2837" y="-92.3" font-family="Times,serif" font-size="14.00" fill="#5b00c0">rw</text>
</g>
</g>
</svg>
