<?xml version="1.0" encoding="UTF-8" standalone="no"?>
<!DOCTYPE svg PUBLIC "-//W3C//DTD SVG 1.1//EN"
 "http://www.w3.org/Graphics/SVG/1.1/DTD/svg11.dtd">
<!-- Generated by graphviz version 2.40.1 (20161225.0304)
 -->
<!-- Title: a_graph Pages: 1 -->
<svg width="1280pt" height="119pt"
 viewBox="0.00 0.00 1280.00 119.00" xmlns="http://www.w3.org/2000/svg" xmlns:xlink="http://www.w3.org/1999/xlink">
<g id="graph0" class="graph" transform="scale(1 1) rotate(0) translate(4 115)">
<title>a_graph</title>
<polygon fill="#ffffff" stroke="transparent" points="-4,4 -4,-115 1276,-115 1276,4 -4,4"/>
<!-- T13945 -->
<g id="node1" class="node">
<title>T13945</title>
<polygon fill="none" stroke="#0058ad" points="0,-81.5 0,-110.5 1067,-110.5 1067,-81.5 0,-81.5"/>
<text text-anchor="middle" x="471" y="-92.3" font-family="Times,serif" font-size="14.00" fill="#0058ad">r 65 [1 2 3 4 5 7 8 9 10 11 12 13 14 15 19 20 21 22 23 24 25 26 27 28 29 30 31 32 33 34 35 36 37 38 39 40 41 42 43 44 45 46 47 48 49 50 51 52 53 54 55 56 57 58 59]</text>
<polyline fill="none" stroke="#0058ad" points="942,-81.5 942,-110.5 "/>
<text text-anchor="middle" x="976" y="-92.3" font-family="Times,serif" font-size="14.00" fill="#0058ad">r 75 [1 4]</text>
<polyline fill="none" stroke="#0058ad" points="1010,-81.5 1010,-110.5 "/>
<text text-anchor="middle" x="1038.5" y="-92.3" font-family="Times,serif" font-size="14.00" fill="#0058ad">a 74 64</text>
</g>
<!-- T13949 -->
<g id="node2" class="node">
<title>T13949</title>
<polygon fill="none" stroke="#0058ad" points="257,-.5 257,-29.5 1272,-29.5 1272,-.5 257,-.5"/>
<text text-anchor="middle" x="291" y="-11.3" font-family="Times,serif" font-size="14.00" fill="#0058ad">r 75 [1 4]</text>
<polyline fill="none" stroke="#0058ad" points="325,-.5 325,-29.5 "/>
<text text-anchor="middle" x="773.5" y="-11.3" font-family="Times,serif" font-size="14.00" fill="#0058ad">r 74 [2 3 4 1 5 6 7 13 14 15 16 17 18 20 21 22 23 24 25 26 27 28 29 30 31 32 33 34 36 37 41 38 39 40 42 43 44 45 46 47 48 49 50 51 52 53 54 58 60 61 59 62]</text>
<polyline fill="none" stroke="#0058ad" points="1222,-.5 1222,-29.5 "/>
<text text-anchor="middle" x="1247" y="-11.3" font-family="Times,serif" font-size="14.00" fill="#0058ad">a 75 6</text>
</g>
<!-- T13945&#45;&gt;T13949 -->
<g id="edge1" class="edge">
<title>T13945:f1&#45;&gt;T13949:f2</title>
<path fill="none" stroke="#5b00c0" d="M976.5,-81C976.5,-64.0761 981.1598,-56.9876 995.5,-48 1016.7772,-34.6647 1201.6351,-53.246 1240.3918,-37.2206"/>
<polygon fill="#5b00c0" stroke="#5b00c0" points="1242.9789,-39.5818 1247.5,-30 1237.9904,-34.671 1242.9789,-39.5818"/>
<text text-anchor="middle" x="1003" y="-51.8" font-family="Times,serif" font-size="14.00" fill="#5b00c0">rw</text>
</g>
<!-- T13949&#45;&gt;T13945 -->
<g id="edge2" class="edge">
<title>T13949:f1&#45;&gt;T13945:f2</title>
<path fill="none" stroke="#5b00c0" d="M773.5,-30C773.5,-56.4092 986.9723,-36.0045 1010.5,-48 1024.1553,-54.9621 1033.8277,-59.5694 1037.1938,-70.8871"/>
<polygon fill="#5b00c0" stroke="#5b00c0" points="1033.7477,-71.5308 1038.5,-81 1040.6901,-70.634 1033.7477,-71.5308"/>
<text text-anchor="middle" x="1040" y="-51.8" font-family="Times,serif" font-size="14.00" fill="#5b00c0">rw</text>
</g>
</g>
</svg>
