<?xml version="1.0" encoding="UTF-8" standalone="no"?>
<!DOCTYPE svg PUBLIC "-//W3C//DTD SVG 1.1//EN"
 "http://www.w3.org/Graphics/SVG/1.1/DTD/svg11.dtd">
<!-- Generated by graphviz version 2.40.1 (20161225.0304)
 -->
<!-- Title: a_graph Pages: 1 -->
<svg width="4341pt" height="119pt"
 viewBox="0.00 0.00 4341.00 119.00" xmlns="http://www.w3.org/2000/svg" xmlns:xlink="http://www.w3.org/1999/xlink">
<g id="graph0" class="graph" transform="scale(1 1) rotate(0) translate(4 115)">
<title>a_graph</title>
<polygon fill="#ffffff" stroke="transparent" points="-4,4 -4,-115 4337,-115 4337,4 -4,4"/>
<!-- T25373 -->
<g id="node1" class="node">
<title>T25373</title>
<polygon fill="none" stroke="#0058ad" points="0,-81.5 0,-110.5 4333,-110.5 4333,-81.5 0,-81.5"/>
<text text-anchor="middle" x="35.5" y="-92.3" font-family="Times,serif" font-size="14.00" fill="#0058ad">a 127 108</text>
<polyline fill="none" stroke="#0058ad" points="71,-81.5 71,-110.5 "/>
<text text-anchor="middle" x="948.5" y="-92.3" font-family="Times,serif" font-size="14.00" fill="#0058ad">r 127 [1 2 3 4 5 6 7 8 9 10 12 13 14 11 15 16 17 18 19 20 21 22 23 24 25 26 27 28 29 31 32 33 34 35 36 37 30 39 40 41 43 44 38 48 50 51 52 53 54 55 56 58 59 60 62 57 63 64 65 66 69 70 71 72 73 74 75 76 77 78 79 80 82 83 84 85 81 86 87 88 89 90 91 92 93 94 95 96 97 98 99 100 101 102 103 104 105 106 108]</text>
<polyline fill="none" stroke="#0058ad" points="1826,-81.5 1826,-110.5 "/>
<text text-anchor="middle" x="2703.5" y="-92.3" font-family="Times,serif" font-size="14.00" fill="#0058ad">r 127 [1 2 3 4 5 6 7 8 9 10 12 13 14 11 15 16 17 18 19 20 21 22 23 24 25 26 27 28 29 31 32 33 34 35 36 37 30 39 40 41 43 44 38 48 50 51 52 53 54 55 56 58 59 60 62 57 63 64 65 66 69 70 71 72 73 74 75 76 77 78 79 80 82 83 84 85 81 86 87 88 89 90 91 92 93 94 95 96 97 98 99 100 101 102 103 104 105 106 108]</text>
<polyline fill="none" stroke="#0058ad" points="3581,-81.5 3581,-110.5 "/>
<text text-anchor="middle" x="3957" y="-92.3" font-family="Times,serif" font-size="14.00" fill="#0058ad">r 126 [1 2 3 4 5 6 7 8 9 10 12 13 14 15 16 17 18 19 20 21 22 23 25 26 27 28 30 32 33 34 35 36 38 39 37 40 41 42 43 44 47 45 46 48]</text>
</g>
<!-- T25377 -->
<g id="node2" class="node">
<title>T25377</title>
<polygon fill="none" stroke="#0058ad" points="1115.5,-.5 1115.5,-29.5 3709.5,-29.5 3709.5,-.5 1115.5,-.5"/>
<text text-anchor="middle" x="1147.5" y="-11.3" font-family="Times,serif" font-size="14.00" fill="#0058ad">a 126 49</text>
<polyline fill="none" stroke="#0058ad" points="1179.5,-.5 1179.5,-29.5 "/>
<text text-anchor="middle" x="1211.5" y="-11.3" font-family="Times,serif" font-size="14.00" fill="#0058ad">a 125 47</text>
<polyline fill="none" stroke="#0058ad" points="1243.5,-.5 1243.5,-29.5 "/>
<text text-anchor="middle" x="1611" y="-11.3" font-family="Times,serif" font-size="14.00" fill="#0058ad">r 125 [1 2 3 4 5 7 6 8 9 10 11 12 13 14 15 16 17 18 19 20 22 23 24 25 26 27 28 29 31 32 33 35 36 37 38 39 41 42 43 44 45 46 47]</text>
<polyline fill="none" stroke="#0058ad" points="1978.5,-.5 1978.5,-29.5 "/>
<text text-anchor="middle" x="2844" y="-11.3" font-family="Times,serif" font-size="14.00" fill="#0058ad">r 127 [1 2 3 4 5 6 7 8 9 10 12 13 14 11 15 16 17 18 19 20 21 22 23 24 25 26 27 28 29 31 32 33 34 35 36 37 30 39 40 41 43 44 38 48 50 51 52 53 54 55 56 58 59 60 62 57 63 64 65 66 69 70 71 72 73 74 75 76 77 78 79 80 82 83 84 85 81 86 87 88 89 90 91 92 93 94 95 96 97 98 99 100 101 102 103 104 105 106]</text>
</g>
<!-- T25373&#45;&gt;T25377 -->
<g id="edge1" class="edge">
<title>T25373:f3&#45;&gt;T25377:f0</title>
<path fill="none" stroke="#5b00c0" d="M3957.5,-81C3957.5,71.7823 1266.9452,-175.1029 1151.3354,-39.4938"/>
<polygon fill="#5b00c0" stroke="#5b00c0" points="1154.491,-37.9609 1147.5,-30 1148.0006,-40.583 1154.491,-37.9609"/>
<text text-anchor="middle" x="3935" y="-51.8" font-family="Times,serif" font-size="14.00" fill="#5b00c0">rw</text>
</g>
<!-- T25377&#45;&gt;T25373 -->
<g id="edge2" class="edge">
<title>T25377:f3&#45;&gt;T25373:f0</title>
<path fill="none" stroke="#5b00c0" d="M2844.5,-30C2844.5,-41.7159 1169.2136,-47.7653 1157.5,-48 1036.3359,-50.428 91.2881,38.4615 37.8572,-70.9232"/>
<polygon fill="#5b00c0" stroke="#5b00c0" points="34.3698,-70.4656 35.5,-81 41.1858,-72.0601 34.3698,-70.4656"/>
<text text-anchor="middle" x="1165" y="-51.8" font-family="Times,serif" font-size="14.00" fill="#5b00c0">rw</text>
</g>
</g>
</svg>
