<?xml version="1.0" encoding="UTF-8" standalone="no"?>
<!DOCTYPE svg PUBLIC "-//W3C//DTD SVG 1.1//EN"
 "http://www.w3.org/Graphics/SVG/1.1/DTD/svg11.dtd">
<!-- Generated by graphviz version 2.40.1 (20161225.0304)
 -->
<!-- Title: a_graph Pages: 1 -->
<svg width="301pt" height="119pt"
 viewBox="0.00 0.00 301.00 119.00" xmlns="http://www.w3.org/2000/svg" xmlns:xlink="http://www.w3.org/1999/xlink">
<g id="graph0" class="graph" transform="scale(1 1) rotate(0) translate(4 115)">
<title>a_graph</title>
<polygon fill="#ffffff" stroke="transparent" points="-4,4 -4,-115 297,-115 297,4 -4,4"/>
<!-- T387 -->
<g id="node1" class="node">
<title>T387</title>
<polygon fill="none" stroke="#0058ad" points="0,-81.5 0,-110.5 293,-110.5 293,-81.5 0,-81.5"/>
<text text-anchor="middle" x="44.5" y="-92.3" font-family="Times,serif" font-size="14.00" fill="#0058ad">r 10 [1 5 6 4]</text>
<polyline fill="none" stroke="#0058ad" points="89,-81.5 89,-110.5 "/>
<text text-anchor="middle" x="114" y="-92.3" font-family="Times,serif" font-size="14.00" fill="#0058ad">a 10 7</text>
<polyline fill="none" stroke="#0058ad" points="139,-81.5 139,-110.5 "/>
<text text-anchor="middle" x="191" y="-92.3" font-family="Times,serif" font-size="14.00" fill="#0058ad">r 5 [1 2 3 4 5 6]</text>
<polyline fill="none" stroke="#0058ad" points="243,-81.5 243,-110.5 "/>
<text text-anchor="middle" x="268" y="-92.3" font-family="Times,serif" font-size="14.00" fill="#0058ad">a 8 61</text>
</g>
<!-- T383 -->
<g id="node2" class="node">
<title>T383</title>
<polygon fill="none" stroke="#0058ad" points="97,-.5 97,-29.5 230,-29.5 230,-.5 97,-.5"/>
<text text-anchor="middle" x="119" y="-11.3" font-family="Times,serif" font-size="14.00" fill="#0058ad">a 5 8</text>
<polyline fill="none" stroke="#0058ad" points="141,-.5 141,-29.5 "/>
<text text-anchor="middle" x="185.5" y="-11.3" font-family="Times,serif" font-size="14.00" fill="#0058ad">r 10 [1 5 6 4]</text>
</g>
<!-- T387&#45;&gt;T383 -->
<g id="edge1" class="edge">
<title>T387:f2&#45;&gt;T383:f0</title>
<path fill="none" stroke="#5b00c0" d="M191.5,-81C191.5,-77.0383 144.6887,-49.8902 126.0373,-36.6901"/>
<polygon fill="#5b00c0" stroke="#5b00c0" points="128.3023,-34.0207 118.5,-30 123.6555,-39.2559 128.3023,-34.0207"/>
<text text-anchor="middle" x="173" y="-51.8" font-family="Times,serif" font-size="14.00" fill="#5b00c0">rw</text>
</g>
<!-- T383&#45;&gt;T387 -->
<g id="edge2" class="edge">
<title>T383:f1&#45;&gt;T387:f1</title>
<path fill="none" stroke="#5b00c0" d="M185.5,-30C185.5,-58.2668 144.8325,-28.3633 124.5,-48 116.1596,-56.055 114.1423,-61.8937 113.6549,-70.8319"/>
<polygon fill="#5b00c0" stroke="#5b00c0" points="110.1529,-70.9478 113.5,-81 117.152,-71.0545 110.1529,-70.9478"/>
<text text-anchor="middle" x="132" y="-51.8" font-family="Times,serif" font-size="14.00" fill="#5b00c0">rw</text>
</g>
</g>
</svg>
