<?xml version="1.0" encoding="UTF-8" standalone="no"?>
<!DOCTYPE svg PUBLIC "-//W3C//DTD SVG 1.1//EN"
 "http://www.w3.org/Graphics/SVG/1.1/DTD/svg11.dtd">
<!-- Generated by graphviz version 2.40.1 (20161225.0304)
 -->
<!-- Title: a_graph Pages: 1 -->
<svg width="4340pt" height="281pt"
 viewBox="0.00 0.00 4339.50 281.00" xmlns="http://www.w3.org/2000/svg" xmlns:xlink="http://www.w3.org/1999/xlink">
<g id="graph0" class="graph" transform="scale(1 1) rotate(0) translate(4 277)">
<title>a_graph</title>
<polygon fill="#ffffff" stroke="transparent" points="-4,4 -4,-277 4335.5,-277 4335.5,4 -4,4"/>
<!-- T21736 -->
<g id="node1" class="node">
<title>T21736</title>
<polygon fill="none" stroke="#0058ad" points="846.5,-243.5 846.5,-272.5 2444.5,-272.5 2444.5,-243.5 846.5,-243.5"/>
<text text-anchor="middle" x="1645.5" y="-254.3" font-family="Times,serif" font-size="14.00" fill="#0058ad">r 96 [2 3 4 5 6 7 8 9 10 11 12 13 14 15 16 17 18 19 20 21 22 23 24 25 26 27 28 29 30 32 33 34 35 36 37 38 39 40 41 42 43 45 46 47 48 49 50 51 52 53 54 55 56 57 58 59 60 61 62 63 64 65 66 67 68 70 71 72 73 74 75 76 77 78 79 80 81 83 84 85 86 87 88 89 90 91 92 93 94 95 96 97 98]</text>
</g>
<!-- T21741 -->
<g id="node2" class="node">
<title>T21741</title>
<polygon fill="none" stroke="#0058ad" points="0,-162.5 0,-191.5 1563,-191.5 1563,-162.5 0,-162.5"/>
<text text-anchor="middle" x="781.5" y="-173.3" font-family="Times,serif" font-size="14.00" fill="#0058ad">r 109 [1 2 5 3 4 6 7 8 9 11 12 10 13 17 18 14 15 16 19 20 21 22 23 24 25 26 27 28 29 30 32 31 34 35 38 33 36 37 40 39 42 43 44 45 48 49 50 51 52 53 54 55 56 57 58 59 60 61 62 63 64 65 66 67 68 69 70 71 72 73 75 76 77 74 78 79 80 81 83 84 85 86 87 88 89 90 91 92 93 94 95]</text>
</g>
<!-- T21736&#45;&gt;T21741 -->
<g id="edge1" class="edge">
<title>T21736&#45;&gt;T21741</title>
<path fill="none" stroke="#0050c0" d="M1490.5355,-243.4721C1337.1708,-229.0941 1103.2338,-207.1625 946.4748,-192.4664"/>
<polygon fill="#0050c0" stroke="#0050c0" points="946.5457,-188.9578 936.2626,-191.509 945.8922,-195.9272 946.5457,-188.9578"/>
<text text-anchor="middle" x="1296" y="-213.8" font-family="Times,serif" font-size="14.00" fill="#0050c0">rt</text>
</g>
<!-- T21733 -->
<g id="node3" class="node">
<title>T21733</title>
<polygon fill="none" stroke="#0058ad" points="610,-81.5 610,-110.5 2681,-110.5 2681,-81.5 610,-81.5"/>
<text text-anchor="middle" x="642" y="-92.3" font-family="Times,serif" font-size="14.00" fill="#0058ad">a 109 96</text>
<polyline fill="none" stroke="#0058ad" points="674,-81.5 674,-110.5 "/>
<text text-anchor="middle" x="706" y="-92.3" font-family="Times,serif" font-size="14.00" fill="#0058ad">a 109 97</text>
<polyline fill="none" stroke="#0058ad" points="738,-81.5 738,-110.5 "/>
<text text-anchor="middle" x="910.5" y="-92.3" font-family="Times,serif" font-size="14.00" fill="#0058ad">r 110 [1 2 3 4 6 7 8 9 10 11 12 13 14 15 16 17 18 19 20 22]</text>
<polyline fill="none" stroke="#0058ad" points="1083,-81.5 1083,-110.5 "/>
<text text-anchor="middle" x="1882" y="-92.3" font-family="Times,serif" font-size="14.00" fill="#0058ad">r 109 [1 2 5 3 4 6 7 8 9 11 12 10 13 17 18 14 15 16 19 20 21 22 23 24 25 26 27 28 29 30 32 31 34 35 38 33 36 37 40 39 42 43 44 45 48 49 50 51 52 53 54 55 56 57 58 59 60 61 62 63 64 65 66 67 68 69 70 71 72 73 75 76 77 74 78 79 80 81 83 84 85 86 87 88 89 90 91 92 93 94 95 96 97]</text>
</g>
<!-- T21741&#45;&gt;T21733 -->
<g id="edge2" class="edge">
<title>T21741:f0&#45;&gt;T21733:f0</title>
<path fill="none" stroke="#5b00c0" d="M686.5675,-162.4103C665.0133,-154.1598 647.087,-141.2655 642.5882,-121.1248"/>
<polygon fill="#5b00c0" stroke="#5b00c0" points="646.0487,-120.5687 641.5,-111 639.0888,-121.3168 646.0487,-120.5687"/>
<text text-anchor="middle" x="661" y="-132.8" font-family="Times,serif" font-size="14.00" fill="#5b00c0">rw</text>
</g>
<!-- T21733&#45;&gt;T21736 -->
<g id="edge3" class="edge">
<title>T21733&#45;&gt;T21736</title>
<path fill="none" stroke="#0050c0" d="M1645.5,-110.5123C1645.5,-138.2246 1645.5,-198.9616 1645.5,-233.2206"/>
<polygon fill="#0050c0" stroke="#0050c0" points="1642.0001,-233.3378 1645.5,-243.3379 1649.0001,-233.3379 1642.0001,-233.3378"/>
<text text-anchor="middle" x="1650" y="-173.3" font-family="Times,serif" font-size="14.00" fill="#0050c0">rt</text>
</g>
<!-- T21734 -->
<g id="node4" class="node">
<title>T21734</title>
<polygon fill="none" stroke="#0058ad" points="921.5,-.5 921.5,-29.5 4331.5,-29.5 4331.5,-.5 921.5,-.5"/>
<text text-anchor="middle" x="957" y="-11.3" font-family="Times,serif" font-size="14.00" fill="#0058ad">a 109 100</text>
<polyline fill="none" stroke="#0058ad" points="992.5,-.5 992.5,-29.5 "/>
<text text-anchor="middle" x="1803.5" y="-11.3" font-family="Times,serif" font-size="14.00" fill="#0058ad">r 109 [1 2 5 3 4 6 7 8 9 11 12 10 13 17 18 14 15 16 19 20 21 22 23 24 25 26 27 28 29 30 32 31 34 35 38 33 36 37 40 39 42 43 44 45 48 49 50 51 52 53 54 55 56 57 58 59 60 61 62 63 64 65 66 67 68 69 70 71 72 73 75 76 77 74 78 79 80 81 83 84 85 86 87 88 89 90 91 92 93 94 95 96 97 100]</text>
<polyline fill="none" stroke="#0058ad" points="2614.5,-.5 2614.5,-29.5 "/>
<text text-anchor="middle" x="2650" y="-11.3" font-family="Times,serif" font-size="14.00" fill="#0058ad">a 109 101</text>
<polyline fill="none" stroke="#0058ad" points="2685.5,-.5 2685.5,-29.5 "/>
<text text-anchor="middle" x="3508.5" y="-11.3" font-family="Times,serif" font-size="14.00" fill="#0058ad">r 109 [1 2 5 3 4 6 7 8 9 11 12 10 13 17 18 14 15 16 19 20 21 22 23 24 25 26 27 28 29 30 32 31 34 35 38 33 36 37 40 39 42 43 44 45 48 49 50 51 52 53 54 55 56 57 58 59 60 61 62 63 64 65 66 67 68 69 70 71 72 73 75 76 77 74 78 79 80 81 83 84 85 86 87 88 89 90 91 92 93 94 95 96 97 100 101]</text>
</g>
<!-- T21733&#45;&gt;T21734 -->
<g id="edge4" class="edge">
<title>T21733:f1&#45;&gt;T21734:f0</title>
<path fill="none" stroke="#c02700" d="M705.5,-81C705.5,-33.8481 851.8386,-17.0404 911.1742,-15.178"/>
<polygon fill="#c02700" stroke="#c02700" points="911.5618,-18.6719 921.5,-15 911.4411,-11.673 911.5618,-18.6719"/>
<text text-anchor="middle" x="744.5" y="-51.8" font-family="Times,serif" font-size="14.00" fill="#c02700">ww</text>
</g>
<!-- T21734&#45;&gt;T21736 -->
<g id="edge5" class="edge">
<title>T21734&#45;&gt;T21736</title>
<path fill="none" stroke="#0050c0" d="M2648.5736,-29.8046C2675.1448,-49.3968 2713.4958,-84.543 2690.5,-111 2636.8823,-172.688 2150.2607,-219.8015 1860.3439,-242.6855"/>
<polygon fill="#0050c0" stroke="#0050c0" points="1859.8098,-239.2166 1850.1147,-243.4893 1860.3582,-246.1951 1859.8098,-239.2166"/>
<text text-anchor="middle" x="2662" y="-132.8" font-family="Times,serif" font-size="14.00" fill="#0050c0">rt</text>
</g>
</g>
</svg>
