<?xml version="1.0" encoding="UTF-8" standalone="no"?>
<!DOCTYPE svg PUBLIC "-//W3C//DTD SVG 1.1//EN"
 "http://www.w3.org/Graphics/SVG/1.1/DTD/svg11.dtd">
<!-- Generated by graphviz version 2.40.1 (20161225.0304)
 -->
<!-- Title: a_graph Pages: 1 -->
<svg width="2515pt" height="119pt"
 viewBox="0.00 0.00 2515.00 119.00" xmlns="http://www.w3.org/2000/svg" xmlns:xlink="http://www.w3.org/1999/xlink">
<g id="graph0" class="graph" transform="scale(1 1) rotate(0) translate(4 115)">
<title>a_graph</title>
<polygon fill="#ffffff" stroke="transparent" points="-4,4 -4,-115 2511,-115 2511,4 -4,4"/>
<!-- T2164 -->
<g id="node1" class="node">
<title>T2164</title>
<polygon fill="none" stroke="#0058ad" points="0,-81.5 0,-110.5 2507,-110.5 2507,-81.5 0,-81.5"/>
<text text-anchor="middle" x="28.5" y="-92.3" font-family="Times,serif" font-size="14.00" fill="#0058ad">a 17 31</text>
<polyline fill="none" stroke="#0058ad" points="57,-81.5 57,-110.5 "/>
<text text-anchor="middle" x="317.5" y="-92.3" font-family="Times,serif" font-size="14.00" fill="#0058ad">r 17 [1 2 3 5 4 7 6 10 11 12 8 9 13 14 15 16 17 18 19 20 21 22 23 24 25 26 27 28 29 30 31]</text>
<polyline fill="none" stroke="#0058ad" points="578,-81.5 578,-110.5 "/>
<text text-anchor="middle" x="1282" y="-92.3" font-family="Times,serif" font-size="14.00" fill="#0058ad">r 6 [1 4 5 6 7 8 9 10 12 11 13 18 19 20 21 22 23 24 25 30 29 32 31 33 34 35 36 37 38 39 44 45 46 42 49 48 51 52 53 55 56 54 58 59 60 61 62 63 64 65 66 67 68 69 70 71 72 73 74 75 76 77 79 80 81 82 83 84 85 87 88 89 90 91 92 93 94 95 96 97 98 99]</text>
<polyline fill="none" stroke="#0058ad" points="1986,-81.5 1986,-110.5 "/>
<text text-anchor="middle" x="2246.5" y="-92.3" font-family="Times,serif" font-size="14.00" fill="#0058ad">r 17 [1 2 3 5 4 7 6 10 11 12 8 9 13 14 15 16 17 18 19 20 21 22 23 24 25 26 27 28 29 30 31]</text>
</g>
<!-- T2169 -->
<g id="node2" class="node">
<title>T2169</title>
<polygon fill="none" stroke="#0058ad" points="34.5,-.5 34.5,-29.5 1156.5,-29.5 1156.5,-.5 34.5,-.5"/>
<text text-anchor="middle" x="286.5" y="-11.3" font-family="Times,serif" font-size="14.00" fill="#0058ad">r 17 [1 2 3 5 4 7 6 10 11 12 8 9 13 14 15 16 17 18 19 20 21 22 23 24 25 26 27 28 29 30]</text>
<polyline fill="none" stroke="#0058ad" points="538.5,-.5 538.5,-29.5 "/>
<text text-anchor="middle" x="567" y="-11.3" font-family="Times,serif" font-size="14.00" fill="#0058ad">a 16 27</text>
<polyline fill="none" stroke="#0058ad" points="595.5,-.5 595.5,-29.5 "/>
<text text-anchor="middle" x="847.5" y="-11.3" font-family="Times,serif" font-size="14.00" fill="#0058ad">r 17 [1 2 3 5 4 7 6 10 11 12 8 9 13 14 15 16 17 18 19 20 21 22 23 24 25 26 27 28 29 30]</text>
<polyline fill="none" stroke="#0058ad" points="1099.5,-.5 1099.5,-29.5 "/>
<text text-anchor="middle" x="1128" y="-11.3" font-family="Times,serif" font-size="14.00" fill="#0058ad">a 6 100</text>
</g>
<!-- T2164&#45;&gt;T2169 -->
<g id="edge1" class="edge">
<title>T2164:f2&#45;&gt;T2169:f3</title>
<path fill="none" stroke="#5b00c0" d="M1282.5,-81C1282.5,-21.2398 1226.3965,-15.4851 1166.8575,-15.0344"/>
<polygon fill="#5b00c0" stroke="#5b00c0" points="1166.5116,-11.5333 1156.5,-15 1166.4883,-18.5333 1166.5116,-11.5333"/>
<text text-anchor="middle" x="1287" y="-51.8" font-family="Times,serif" font-size="14.00" fill="#5b00c0">rw</text>
</g>
<!-- T2169&#45;&gt;T2164 -->
<g id="edge2" class="edge">
<title>T2169:f0&#45;&gt;T2164:f0</title>
<path fill="none" stroke="#5b00c0" d="M34.5,-15C8.3823,-15 23.8651,-43.7348 27.7081,-70.7806"/>
<polygon fill="#5b00c0" stroke="#5b00c0" points="24.2378,-71.3003 28.5,-81 31.2168,-70.7594 24.2378,-71.3003"/>
<text text-anchor="middle" x="34" y="-51.8" font-family="Times,serif" font-size="14.00" fill="#5b00c0">rw</text>
</g>
</g>
</svg>
