<?xml version="1.0" encoding="UTF-8" standalone="no"?>
<!DOCTYPE svg PUBLIC "-//W3C//DTD SVG 1.1//EN"
 "http://www.w3.org/Graphics/SVG/1.1/DTD/svg11.dtd">
<!-- Generated by graphviz version 2.40.1 (20161225.0304)
 -->
<!-- Title: a_graph Pages: 1 -->
<svg width="2671pt" height="119pt"
 viewBox="0.00 0.00 2671.00 119.00" xmlns="http://www.w3.org/2000/svg" xmlns:xlink="http://www.w3.org/1999/xlink">
<g id="graph0" class="graph" transform="scale(1 1) rotate(0) translate(4 115)">
<title>a_graph</title>
<polygon fill="#ffffff" stroke="transparent" points="-4,4 -4,-115 2667,-115 2667,4 -4,4"/>
<!-- T38326 -->
<g id="node1" class="node">
<title>T38326</title>
<polygon fill="none" stroke="#0058ad" points="935,-81.5 935,-110.5 1320,-110.5 1320,-81.5 935,-81.5"/>
<text text-anchor="middle" x="1095.5" y="-92.3" font-family="Times,serif" font-size="14.00" fill="#0058ad">r 190 [1 2 3 4 5 6 7 8 9 11 12 14 15 18 16 17 19 21 26]</text>
<polyline fill="none" stroke="#0058ad" points="1256,-81.5 1256,-110.5 "/>
<text text-anchor="middle" x="1288" y="-92.3" font-family="Times,serif" font-size="14.00" fill="#0058ad">a 189 73</text>
</g>
<!-- T38325 -->
<g id="node2" class="node">
<title>T38325</title>
<polygon fill="none" stroke="#0058ad" points="0,-.5 0,-29.5 2663,-29.5 2663,-.5 0,-.5"/>
<text text-anchor="middle" x="160.5" y="-11.3" font-family="Times,serif" font-size="14.00" fill="#0058ad">r 190 [1 2 3 4 5 6 7 8 9 11 12 14 15 18 16 17 19 21 26]</text>
<polyline fill="none" stroke="#0058ad" points="321,-.5 321,-29.5 "/>
<text text-anchor="middle" x="890.5" y="-11.3" font-family="Times,serif" font-size="14.00" fill="#0058ad">r 189 [1 2 4 5 6 7 8 9 10 11 12 13 14 15 16 17 18 20 21 22 23 24 25 26 27 28 29 30 31 32 19 34 35 33 37 36 38 39 40 41 42 44 45 46 47 48 49 51 52 53 54 50 55 56 57 60 61 62 58 63 65 66 68 69 71 72]</text>
<polyline fill="none" stroke="#0058ad" points="1460,-.5 1460,-29.5 "/>
<text text-anchor="middle" x="1492" y="-11.3" font-family="Times,serif" font-size="14.00" fill="#0058ad">a 190 30</text>
<polyline fill="none" stroke="#0058ad" points="1524,-.5 1524,-29.5 "/>
<text text-anchor="middle" x="2093.5" y="-11.3" font-family="Times,serif" font-size="14.00" fill="#0058ad">r 189 [1 2 4 5 6 7 8 9 10 11 12 13 14 15 16 17 18 20 21 22 23 24 25 26 27 28 29 30 31 32 19 34 35 33 37 36 38 39 40 41 42 44 45 46 47 48 49 51 52 53 54 50 55 56 57 60 61 62 58 63 65 66 68 69 71 72]</text>
</g>
<!-- T38326&#45;&gt;T38325 -->
<g id="edge1" class="edge">
<title>T38326:f0&#45;&gt;T38325:f2</title>
<path fill="none" stroke="#5b00c0" d="M1095.5,-81C1095.5,-26.9712 1159.246,-57.1169 1212.5,-48 1226.1537,-45.6625 1436.6666,-45.5744 1483.3694,-34.6441"/>
<polygon fill="#5b00c0" stroke="#5b00c0" points="1485.1735,-37.6533 1492.5,-30 1481.9999,-31.414 1485.1735,-37.6533"/>
<text text-anchor="middle" x="1220" y="-51.8" font-family="Times,serif" font-size="14.00" fill="#5b00c0">rw</text>
</g>
<!-- T38325&#45;&gt;T38326 -->
<g id="edge2" class="edge">
<title>T38325:f1&#45;&gt;T38326:f1</title>
<path fill="none" stroke="#5b00c0" d="M890.5,-30C890.5,-48.7489 1209.4537,-42.9155 1227.5,-48 1253.4604,-55.3143 1280.6932,-51.4945 1287.0958,-71.075"/>
<polygon fill="#5b00c0" stroke="#5b00c0" points="1283.6336,-71.5889 1288.5,-81 1290.5645,-70.6083 1283.6336,-71.5889"/>
<text text-anchor="middle" x="1290" y="-51.8" font-family="Times,serif" font-size="14.00" fill="#5b00c0">rw</text>
</g>
</g>
</svg>
