<?xml version="1.0" encoding="UTF-8" standalone="no"?>
<!DOCTYPE svg PUBLIC "-//W3C//DTD SVG 1.1//EN"
 "http://www.w3.org/Graphics/SVG/1.1/DTD/svg11.dtd">
<!-- Generated by graphviz version 2.40.1 (20161225.0304)
 -->
<!-- Title: a_graph Pages: 1 -->
<svg width="4922pt" height="281pt"
 viewBox="0.00 0.00 4922.37 281.00" xmlns="http://www.w3.org/2000/svg" xmlns:xlink="http://www.w3.org/1999/xlink">
<g id="graph0" class="graph" transform="scale(1 1) rotate(0) translate(4 277)">
<title>a_graph</title>
<polygon fill="#ffffff" stroke="transparent" points="-4,4 -4,-277 4918.3746,-277 4918.3746,4 -4,4"/>
<!-- T36209 -->
<g id="node1" class="node">
<title>T36209</title>
<polygon fill="none" stroke="#0058ad" points="415.3746,-243.5 415.3746,-272.5 1077.3746,-272.5 1077.3746,-243.5 415.3746,-243.5"/>
<text text-anchor="middle" x="746.3746" y="-254.3" font-family="Times,serif" font-size="14.00" fill="#0058ad">r 180 [1 2 5 6 7 8 9 11 12 13 10 15 19 20 21 24 16 25 26 22 23 27 28 29 30 31 32 33 34 35 36 37 38 39 40 41 42 43]</text>
</g>
<!-- T36211 -->
<g id="node3" class="node">
<title>T36211</title>
<polygon fill="none" stroke="#0058ad" points="52.8746,-162.5 52.8746,-191.5 3917.8746,-191.5 3917.8746,-162.5 52.8746,-162.5"/>
<text text-anchor="middle" x="383.8746" y="-173.3" font-family="Times,serif" font-size="14.00" fill="#0058ad">r 180 [1 2 5 6 7 8 9 11 12 13 10 15 19 20 21 24 16 25 26 22 23 27 28 29 30 31 32 33 34 35 36 37 38 39 40 41 42 43]</text>
<polyline fill="none" stroke="#0058ad" points="714.8746,-162.5 714.8746,-191.5 "/>
<text text-anchor="middle" x="746.8746" y="-173.3" font-family="Times,serif" font-size="14.00" fill="#0058ad">a 180 44</text>
<polyline fill="none" stroke="#0058ad" points="778.8746,-162.5 778.8746,-191.5 "/>
<text text-anchor="middle" x="1646.3746" y="-173.3" font-family="Times,serif" font-size="14.00" fill="#0058ad">r 175 [1 3 2 4 5 6 7 9 8 10 11 13 12 14 15 16 17 18 19 20 23 24 25 22 26 27 28 29 31 30 32 33 34 35 36 37 38 39 40 41 42 43 44 45 46 47 49 48 52 53 54 55 56 57 58 59 60 61 62 63 65 66 67 68 70 71 73 72 74 75 76 78 77 79 80 81 82 83 84 85 86 87 88 89 90 91 92 93 94 95 96 97 98 99 101 100 102 103 104]</text>
<polyline fill="none" stroke="#0058ad" points="2513.8746,-162.5 2513.8746,-191.5 "/>
<text text-anchor="middle" x="3215.8746" y="-173.3" font-family="Times,serif" font-size="14.00" fill="#0058ad">r 178 [1 2 4 3 7 8 9 10 12 11 13 14 15 16 17 18 19 20 21 22 23 24 25 26 27 28 29 30 31 34 32 35 36 33 38 37 39 41 42 40 43 44 45 46 47 48 50 49 51 53 52 56 57 58 59 60 62 61 64 63 65 66 67 68 69 70 72 73 75 74 76 77 79 78 80 81 82 83 84 85 86]</text>
</g>
<!-- T36209&#45;&gt;T36211 -->
<g id="edge1" class="edge">
<title>T36209:f0&#45;&gt;T36211:f1</title>
<path fill="none" stroke="#5b00c0" d="M746.3746,-243.3204C746.3746,-232.4532 746.3746,-217.0147 746.3746,-202.1425"/>
<polygon fill="#5b00c0" stroke="#5b00c0" points="749.8747,-202 746.3746,-192 742.8747,-202 749.8747,-202"/>
<text text-anchor="middle" x="753.8746" y="-213.8" font-family="Times,serif" font-size="14.00" fill="#5b00c0">rw</text>
</g>
<!-- T36201 -->
<g id="node2" class="node">
<title>T36201</title>
<polygon fill="none" stroke="#0058ad" points="714.3746,-.5 714.3746,-29.5 778.3746,-29.5 778.3746,-.5 714.3746,-.5"/>
<text text-anchor="middle" x="746.3746" y="-11.3" font-family="Times,serif" font-size="14.00" fill="#0058ad">a 180 43</text>
</g>
<!-- T36201&#45;&gt;T36209 -->
<g id="edge2" class="edge">
<title>T36201:f0&#45;&gt;T36209:f0</title>
<path fill="none" stroke="#c000a5" d="M715.7798,-29.5271C715.3097,-29.6895 714.8411,-29.8473 714.3746,-30 422.8019,-125.4246 -163.1718,34.8459 43.3746,-192 59.0916,-209.2617 305.0827,-229.3529 501.6993,-242.7924"/>
<polygon fill="#c000a5" stroke="#c000a5" points="501.6942,-246.3 511.9088,-243.4873 502.1696,-239.3162 501.6942,-246.3"/>
<text text-anchor="middle" x="14.8746" y="-132.8" font-family="Times,serif" font-size="14.00" fill="#c000a5">wr</text>
</g>
<!-- T36201&#45;&gt;T36211 -->
<g id="edge3" class="edge">
<title>T36201:f0&#45;&gt;T36211:f1</title>
<path fill="none" stroke="#c02700" d="M746.3746,-29.6051C746.3746,-54.2178 746.3746,-105.7961 746.3746,-151.9425"/>
<polygon fill="#c02700" stroke="#c02700" points="742.8747,-152 746.3746,-162 749.8747,-152 742.8747,-152"/>
<text text-anchor="middle" x="756.3746" y="-92.3" font-family="Times,serif" font-size="14.00" fill="#c02700">ww</text>
</g>
<!-- T36207 -->
<g id="node4" class="node">
<title>T36207</title>
<polygon fill="none" stroke="#0058ad" points="2992.3746,-81.5 2992.3746,-110.5 4914.3746,-110.5 4914.3746,-81.5 2992.3746,-81.5"/>
<text text-anchor="middle" x="3024.3746" y="-92.3" font-family="Times,serif" font-size="14.00" fill="#0058ad">a 178 87</text>
<polyline fill="none" stroke="#0058ad" points="3056.3746,-81.5 3056.3746,-110.5 "/>
<text text-anchor="middle" x="3088.3746" y="-92.3" font-family="Times,serif" font-size="14.00" fill="#0058ad">a 178 88</text>
<polyline fill="none" stroke="#0058ad" points="3120.3746,-81.5 3120.3746,-110.5 "/>
<text text-anchor="middle" x="3694.8746" y="-92.3" font-family="Times,serif" font-size="14.00" fill="#0058ad">r 163 [1 2 3 4 5 6 7 8 9 10 11 12 13 14 15 16 17 19 18 20 21 22 23 24 25 26 27 29 31 33 34 35 36 37 38 39 40 41 42 43 44 45 47 48 49 50 51 53 52 54 55 56 57 58 59 60 61 62 63 65 66 67 68 69 70 71 72]</text>
<polyline fill="none" stroke="#0058ad" points="4269.3746,-81.5 4269.3746,-110.5 "/>
<text text-anchor="middle" x="4591.8746" y="-92.3" font-family="Times,serif" font-size="14.00" fill="#0058ad">r 180 [1 2 5 6 7 8 9 11 12 13 10 15 19 20 21 24 16 25 26 22 23 27 28 29 30 31 32 33 34 35 36 37 38 39 40 41 42]</text>
</g>
<!-- T36211&#45;&gt;T36207 -->
<g id="edge4" class="edge">
<title>T36211:f3&#45;&gt;T36207:f0</title>
<path fill="none" stroke="#5b00c0" d="M3216.3746,-162C3216.3746,-77.5014 3040.5201,-188.8949 3025.4076,-121.2307"/>
<polygon fill="#5b00c0" stroke="#5b00c0" points="3028.8616,-120.5978 3024.3746,-111 3021.897,-121.3011 3028.8616,-120.5978"/>
<text text-anchor="middle" x="3218.8746" y="-132.8" font-family="Times,serif" font-size="14.00" fill="#5b00c0">rw</text>
</g>
<!-- T36207&#45;&gt;T36209 -->
<g id="edge5" class="edge">
<title>T36207&#45;&gt;T36209</title>
<path fill="none" stroke="#0050c0" d="M3954.157,-110.5924C3954.4271,-132.3283 3951.2927,-172.7132 3926.3746,-192 3870.8782,-234.9547 1897.2563,-251.3117 1087.6448,-256.2235"/>
<polygon fill="#0050c0" stroke="#0050c0" points="1087.5617,-252.7239 1077.5831,-256.2844 1087.6041,-259.7237 1087.5617,-252.7239"/>
<text text-anchor="middle" x="3950.8746" y="-173.3" font-family="Times,serif" font-size="14.00" fill="#0050c0">rt</text>
</g>
<!-- T36207&#45;&gt;T36201 -->
<g id="edge6" class="edge">
<title>T36207:f3&#45;&gt;T36201:f0</title>
<path fill="none" stroke="#5b00c0" d="M4592.3746,-81C4592.3746,-29.2906 1007.8876,-41.2395 786.6777,-30.3925"/>
<polygon fill="#5b00c0" stroke="#5b00c0" points="786.8311,-26.8933 776.5754,-29.5525 786.251,-33.8692 786.8311,-26.8933"/>
<text text-anchor="middle" x="4398.8746" y="-51.8" font-family="Times,serif" font-size="14.00" fill="#5b00c0">rw</text>
</g>
</g>
</svg>
