<?xml version="1.0" encoding="UTF-8" standalone="no"?>
<!DOCTYPE svg PUBLIC "-//W3C//DTD SVG 1.1//EN"
 "http://www.w3.org/Graphics/SVG/1.1/DTD/svg11.dtd">
<!-- Generated by graphviz version 2.40.1 (20161225.0304)
 -->
<!-- Title: a_graph Pages: 1 -->
<svg width="2803pt" height="119pt"
 viewBox="0.00 0.00 2803.00 119.00" xmlns="http://www.w3.org/2000/svg" xmlns:xlink="http://www.w3.org/1999/xlink">
<g id="graph0" class="graph" transform="scale(1 1) rotate(0) translate(4 115)">
<title>a_graph</title>
<polygon fill="#ffffff" stroke="transparent" points="-4,4 -4,-115 2799,-115 2799,4 -4,4"/>
<!-- T4292 -->
<g id="node1" class="node">
<title>T4292</title>
<polygon fill="none" stroke="#0058ad" points="971,-81.5 971,-110.5 2795,-110.5 2795,-81.5 971,-81.5"/>
<text text-anchor="middle" x="1154" y="-92.3" font-family="Times,serif" font-size="14.00" fill="#0058ad">r 27 [1 2 3 4 5 6 7 8 9 10 11 12 13 15 14 16 17 18 19 20 21 22]</text>
<polyline fill="none" stroke="#0058ad" points="1337,-81.5 1337,-110.5 "/>
<text text-anchor="middle" x="1365.5" y="-92.3" font-family="Times,serif" font-size="14.00" fill="#0058ad">a 24 73</text>
<polyline fill="none" stroke="#0058ad" points="1394,-81.5 1394,-110.5 "/>
<text text-anchor="middle" x="2094.5" y="-92.3" font-family="Times,serif" font-size="14.00" fill="#0058ad">r 26 [1 2 3 4 5 6 7 8 9 10 11 12 13 14 15 16 17 18 19 23 24 25 26 27 28 29 30 31 32 33 34 38 39 41 40 42 44 45 43 46 47 48 51 52 49 50 53 54 55 56 57 58 59 60 62 63 61 65 66 64 67 68 69 70 71 72 75 73 74 76 77 78 79 80 82 83 84 85 86 87 88 89]</text>
</g>
<!-- T4291 -->
<g id="node2" class="node">
<title>T4291</title>
<polygon fill="none" stroke="#0058ad" points="0,-.5 0,-29.5 2624,-29.5 2624,-.5 0,-.5"/>
<text text-anchor="middle" x="28.5" y="-11.3" font-family="Times,serif" font-size="14.00" fill="#0058ad">a 27 23</text>
<polyline fill="none" stroke="#0058ad" points="57,-.5 57,-29.5 "/>
<text text-anchor="middle" x="757.5" y="-11.3" font-family="Times,serif" font-size="14.00" fill="#0058ad">r 26 [1 2 3 4 5 6 7 8 9 10 11 12 13 14 15 16 17 18 19 23 24 25 26 27 28 29 30 31 32 33 34 38 39 41 40 42 44 45 43 46 47 48 51 52 49 50 53 54 55 56 57 58 59 60 62 63 61 65 66 64 67 68 69 70 71 72 75 73 74 76 77 78 79 80 82 83 84 85 86 87 88 89]</text>
<polyline fill="none" stroke="#0058ad" points="1458,-.5 1458,-29.5 "/>
<text text-anchor="middle" x="2041" y="-11.3" font-family="Times,serif" font-size="14.00" fill="#0058ad">r 24 [1 2 4 5 6 7 8 9 10 11 12 13 14 15 16 17 18 19 20 21 22 23 24 25 26 27 28 29 31 32 33 34 35 36 37 38 39 40 42 41 44 45 46 47 48 49 50 51 52 53 54 55 56 57 58 59 60 61 62 63 65 66 67 68 69 70 71 72]</text>
</g>
<!-- T4292&#45;&gt;T4291 -->
<g id="edge1" class="edge">
<title>T4292:f0&#45;&gt;T4291:f0</title>
<path fill="none" stroke="#5b00c0" d="M971,-96C921.1498,-96 116.2788,-83.8516 34.6626,-37.702"/>
<polygon fill="#5b00c0" stroke="#5b00c0" points="37.1894,-35.2731 28,-30 31.8953,-39.8528 37.1894,-35.2731"/>
<text text-anchor="middle" x="165.5" y="-51.8" font-family="Times,serif" font-size="14.00" fill="#5b00c0">rw</text>
</g>
<!-- T4291&#45;&gt;T4292 -->
<g id="edge2" class="edge">
<title>T4291:f2&#45;&gt;T4292:f1</title>
<path fill="none" stroke="#5b00c0" d="M2041,-30C2041,-177.1183 1396.3162,58.1366 1366.0966,-71.0579"/>
<polygon fill="#5b00c0" stroke="#5b00c0" points="1362.6175,-70.6765 1365,-81 1369.5753,-71.444 1362.6175,-70.6765"/>
<text text-anchor="middle" x="2041.5" y="-51.8" font-family="Times,serif" font-size="14.00" fill="#5b00c0">rw</text>
</g>
</g>
</svg>
