<?xml version="1.0" encoding="UTF-8" standalone="no"?>
<!DOCTYPE svg PUBLIC "-//W3C//DTD SVG 1.1//EN"
 "http://www.w3.org/Graphics/SVG/1.1/DTD/svg11.dtd">
<!-- Generated by graphviz version 2.40.1 (20161225.0304)
 -->
<!-- Title: a_graph Pages: 1 -->
<svg width="2687pt" height="119pt"
 viewBox="0.00 0.00 2687.00 119.00" xmlns="http://www.w3.org/2000/svg" xmlns:xlink="http://www.w3.org/1999/xlink">
<g id="graph0" class="graph" transform="scale(1 1) rotate(0) translate(4 115)">
<title>a_graph</title>
<polygon fill="#ffffff" stroke="transparent" points="-4,4 -4,-115 2683,-115 2683,4 -4,4"/>
<!-- T6063 -->
<g id="node1" class="node">
<title>T6063</title>
<polygon fill="none" stroke="#0058ad" points="2139.5,-81.5 2139.5,-110.5 2247.5,-110.5 2247.5,-81.5 2139.5,-81.5"/>
<text text-anchor="middle" x="2168" y="-92.3" font-family="Times,serif" font-size="14.00" fill="#0058ad">a 34 18</text>
<polyline fill="none" stroke="#0058ad" points="2196.5,-81.5 2196.5,-110.5 "/>
<text text-anchor="middle" x="2222" y="-92.3" font-family="Times,serif" font-size="14.00" fill="#0058ad">r 35 []</text>
</g>
<!-- T6065 -->
<g id="node2" class="node">
<title>T6065</title>
<polygon fill="none" stroke="#0058ad" points="0,-.5 0,-29.5 2679,-29.5 2679,-.5 0,-.5"/>
<text text-anchor="middle" x="1045.5" y="-11.3" font-family="Times,serif" font-size="14.00" fill="#0058ad">r 33 [1 3 2 4 5 6 7 8 9 10 11 12 13 14 15 16 17 18 19 20 21 22 23 24 25 26 27 29 28 30 33 34 31 32 35 36 38 39 40 37 41 42 43 44 45 46 48 47 49 50 51 52 54 55 56 57 58 59 60 61 64 65 67 69 70 71 73 75 76 77 78 79 80 81 82 83 84 85 86 87 88 89 90 91 92 95 96 97 98 99 100 101 103 104 107 108 102 109 110 111 112 113 114 115 116 118 119 120 124 125 126 127 128]</text>
<polyline fill="none" stroke="#0058ad" points="2091,-.5 2091,-29.5 "/>
<text text-anchor="middle" x="2116" y="-11.3" font-family="Times,serif" font-size="14.00" fill="#0058ad">a 35 1</text>
<polyline fill="none" stroke="#0058ad" points="2141,-.5 2141,-29.5 "/>
<text text-anchor="middle" x="2275.5" y="-11.3" font-family="Times,serif" font-size="14.00" fill="#0058ad">r 34 [1 2 3 4 5 6 7 8 10 11 12 13 14 15 16 17]</text>
<polyline fill="none" stroke="#0058ad" points="2410,-.5 2410,-29.5 "/>
<text text-anchor="middle" x="2544.5" y="-11.3" font-family="Times,serif" font-size="14.00" fill="#0058ad">r 34 [1 2 3 4 5 6 7 8 10 11 12 13 14 15 16 17]</text>
</g>
<!-- T6063&#45;&gt;T6065 -->
<g id="edge1" class="edge">
<title>T6063:f1&#45;&gt;T6065:f1</title>
<path fill="none" stroke="#5b00c0" d="M2222.5,-81C2222.5,-60.8769 2208.902,-58.1049 2191.5,-48 2165.5611,-32.9378 2127.5934,-56.6988 2118.5068,-39.9095"/>
<polygon fill="#5b00c0" stroke="#5b00c0" points="2121.9153,-39.1063 2116.5,-30 2115.0545,-40.4958 2121.9153,-39.1063"/>
<text text-anchor="middle" x="2223" y="-51.8" font-family="Times,serif" font-size="14.00" fill="#5b00c0">rw</text>
</g>
<!-- T6065&#45;&gt;T6063 -->
<g id="edge2" class="edge">
<title>T6065:f2&#45;&gt;T6063:f0</title>
<path fill="none" stroke="#5b00c0" d="M2275.5,-30C2275.5,-53.2358 2188.7431,-31.3849 2172.5,-48 2164.8036,-55.8726 2165.7773,-62.0659 2166.791,-70.8006"/>
<polygon fill="#5b00c0" stroke="#5b00c0" points="2163.3148,-71.2668 2167.5,-81 2170.298,-70.7813 2163.3148,-71.2668"/>
<text text-anchor="middle" x="2180" y="-51.8" font-family="Times,serif" font-size="14.00" fill="#5b00c0">rw</text>
</g>
</g>
</svg>
