<?xml version="1.0" encoding="UTF-8" standalone="no"?>
<!DOCTYPE svg PUBLIC "-//W3C//DTD SVG 1.1//EN"
 "http://www.w3.org/Graphics/SVG/1.1/DTD/svg11.dtd">
<!-- Generated by graphviz version 2.40.1 (20161225.0304)
 -->
<!-- Title: a_graph Pages: 1 -->
<svg width="5946pt" height="200pt"
 viewBox="0.00 0.00 5946.00 200.00" xmlns="http://www.w3.org/2000/svg" xmlns:xlink="http://www.w3.org/1999/xlink">
<g id="graph0" class="graph" transform="scale(1 1) rotate(0) translate(4 196)">
<title>a_graph</title>
<polygon fill="#ffffff" stroke="transparent" points="-4,4 -4,-196 5942,-196 5942,4 -4,4"/>
<!-- T35517 -->
<g id="node1" class="node">
<title>T35517</title>
<polygon fill="none" stroke="#0058ad" points="0,-162.5 0,-191.5 4254,-191.5 4254,-162.5 0,-162.5"/>
<text text-anchor="middle" x="661" y="-173.3" font-family="Times,serif" font-size="14.00" fill="#0058ad">r 177 [1 2 3 5 6 7 4 8 9 10 11 12 13 14 15 16 17 19 20 25 26 27 28 29 30 32 33 34 35 36 37 38 39 41 40 42 43 44 45 48 49 50 51 55 54 57 58 52 53 56 61 59 60 62 63 64 65 67 68 69 70 71 72 73 66 74 75 76 77 78 81 79 80 82 83 85 86]</text>
<polyline fill="none" stroke="#0058ad" points="1322,-162.5 1322,-191.5 "/>
<text text-anchor="middle" x="1983" y="-173.3" font-family="Times,serif" font-size="14.00" fill="#0058ad">r 177 [1 2 3 5 6 7 4 8 9 10 11 12 13 14 15 16 17 19 20 25 26 27 28 29 30 32 33 34 35 36 37 38 39 41 40 42 43 44 45 48 49 50 51 55 54 57 58 52 53 56 61 59 60 62 63 64 65 67 68 69 70 71 72 73 66 74 75 76 77 78 81 79 80 82 83 85 86]</text>
<polyline fill="none" stroke="#0058ad" points="2644,-162.5 2644,-191.5 "/>
<text text-anchor="middle" x="3417" y="-173.3" font-family="Times,serif" font-size="14.00" fill="#0058ad">r 176 [1 2 4 5 6 7 3 8 9 10 11 12 13 14 15 16 17 18 19 20 21 22 23 24 25 26 27 29 28 33 30 31 35 34 36 37 38 32 39 40 41 42 43 44 47 48 49 50 45 51 52 53 57 55 58 59 62 63 60 65 66 67 68 69 70 71 72 73 74 75 76 77 78 80 79 82 81 83 84 85 87 86 88 90 89 92 93 91 94 95]</text>
<polyline fill="none" stroke="#0058ad" points="4190,-162.5 4190,-191.5 "/>
<text text-anchor="middle" x="4222" y="-173.3" font-family="Times,serif" font-size="14.00" fill="#0058ad">a 177 87</text>
</g>
<!-- T35515 -->
<g id="node2" class="node">
<title>T35515</title>
<polygon fill="none" stroke="#0058ad" points="1667.5,-81.5 1667.5,-110.5 5902.5,-110.5 5902.5,-81.5 1667.5,-81.5"/>
<text text-anchor="middle" x="1699.5" y="-92.3" font-family="Times,serif" font-size="14.00" fill="#0058ad">a 176 97</text>
<polyline fill="none" stroke="#0058ad" points="1731.5,-81.5 1731.5,-110.5 "/>
<text text-anchor="middle" x="2383.5" y="-92.3" font-family="Times,serif" font-size="14.00" fill="#0058ad">r 177 [1 2 3 5 6 7 4 8 9 10 11 12 13 14 15 16 17 19 20 25 26 27 28 29 30 32 33 34 35 36 37 38 39 41 40 42 43 44 45 48 49 50 51 55 54 57 58 52 53 56 61 59 60 62 63 64 65 67 68 69 70 71 72 73 66 74 75 76 77 78 81 79 80 82 83 85]</text>
<polyline fill="none" stroke="#0058ad" points="3035.5,-81.5 3035.5,-110.5 "/>
<text text-anchor="middle" x="3817" y="-92.3" font-family="Times,serif" font-size="14.00" fill="#0058ad">r 176 [1 2 4 5 6 7 3 8 9 10 11 12 13 14 15 16 17 18 19 20 21 22 23 24 25 26 27 29 28 33 30 31 35 34 36 37 38 32 39 40 41 42 43 44 47 48 49 50 45 51 52 53 57 55 58 59 62 63 60 65 66 67 68 69 70 71 72 73 74 75 76 77 78 80 79 82 81 83 84 85 87 86 88 90 89 92 93 91 94 95 97]</text>
<polyline fill="none" stroke="#0058ad" points="4598.5,-81.5 4598.5,-110.5 "/>
<text text-anchor="middle" x="5250.5" y="-92.3" font-family="Times,serif" font-size="14.00" fill="#0058ad">r 177 [1 2 3 5 6 7 4 8 9 10 11 12 13 14 15 16 17 19 20 25 26 27 28 29 30 32 33 34 35 36 37 38 39 41 40 42 43 44 45 48 49 50 51 55 54 57 58 52 53 56 61 59 60 62 63 64 65 67 68 69 70 71 72 73 66 74 75 76 77 78 81 79 80 82 83 85]</text>
</g>
<!-- T35517&#45;&gt;T35515 -->
<g id="edge1" class="edge">
<title>T35517:f2&#45;&gt;T35515:f0</title>
<path fill="none" stroke="#5b00c0" d="M3417,-162C3417,25.4295 1762.1624,-289.8715 1700.7525,-121.0979"/>
<polygon fill="#5b00c0" stroke="#5b00c0" points="1704.1584,-120.2542 1699,-111 1697.2615,-121.4512 1704.1584,-120.2542"/>
<text text-anchor="middle" x="3416.5" y="-132.8" font-family="Times,serif" font-size="14.00" fill="#5b00c0">rw</text>
</g>
<!-- T35513 -->
<g id="node3" class="node">
<title>T35513</title>
<polygon fill="none" stroke="#0058ad" points="4129,-.5 4129,-29.5 4193,-29.5 4193,-.5 4129,-.5"/>
<text text-anchor="middle" x="4161" y="-11.3" font-family="Times,serif" font-size="14.00" fill="#0058ad">a 177 86</text>
</g>
<!-- T35515&#45;&gt;T35513 -->
<g id="edge2" class="edge">
<title>T35515:f1&#45;&gt;T35513:f0</title>
<path fill="none" stroke="#5b00c0" d="M2383,-81C2383,-34.0904 3970.861,-40.721 4120.5817,-30.64"/>
<polygon fill="#5b00c0" stroke="#5b00c0" points="4121.2287,-34.0907 4130.7961,-29.5394 4120.4787,-27.1309 4121.2287,-34.0907"/>
<text text-anchor="middle" x="2848.5" y="-51.8" font-family="Times,serif" font-size="14.00" fill="#5b00c0">rw</text>
</g>
<!-- T35513&#45;&gt;T35517 -->
<g id="edge3" class="edge">
<title>T35513:f0&#45;&gt;T35517:f3</title>
<path fill="none" stroke="#c02700" d="M4191.204,-29.539C4191.8041,-29.7037 4192.4032,-29.8577 4193,-30 4285.9382,-52.1532 5845.4509,-12.4472 5912,-81 5921.2872,-90.5669 5921.2387,-101.3862 5912,-111 5881.1856,-143.0655 4409.2704,-174.6956 4264.4148,-176.8799"/>
<polygon fill="#c02700" stroke="#c02700" points="4263.9589,-173.3848 4254,-177 4264.0397,-180.3844 4263.9589,-173.3848"/>
<text text-anchor="middle" x="5928" y="-92.3" font-family="Times,serif" font-size="14.00" fill="#c02700">ww</text>
</g>
</g>
</svg>
