<?xml version="1.0" encoding="UTF-8" standalone="no"?>
<!DOCTYPE svg PUBLIC "-//W3C//DTD SVG 1.1//EN"
 "http://www.w3.org/Graphics/SVG/1.1/DTD/svg11.dtd">
<!-- Generated by graphviz version 2.40.1 (20161225.0304)
 -->
<!-- Title: a_graph Pages: 1 -->
<svg width="3758pt" height="119pt"
 viewBox="0.00 0.00 3758.00 119.00" xmlns="http://www.w3.org/2000/svg" xmlns:xlink="http://www.w3.org/1999/xlink">
<g id="graph0" class="graph" transform="scale(1 1) rotate(0) translate(4 115)">
<title>a_graph</title>
<polygon fill="#ffffff" stroke="transparent" points="-4,4 -4,-115 3754,-115 3754,4 -4,4"/>
<!-- T39005 -->
<g id="node1" class="node">
<title>T39005</title>
<polygon fill="none" stroke="#0058ad" points="1325,-81.5 1325,-110.5 3750,-110.5 3750,-81.5 1325,-81.5"/>
<text text-anchor="middle" x="1357" y="-92.3" font-family="Times,serif" font-size="14.00" fill="#0058ad">a 193 25</text>
<polyline fill="none" stroke="#0058ad" points="1389,-81.5 1389,-110.5 "/>
<text text-anchor="middle" x="2371" y="-92.3" font-family="Times,serif" font-size="14.00" fill="#0058ad">r 190 [1 2 3 4 5 6 7 8 9 11 12 14 15 18 16 17 19 21 26 30 31 32 33 34 35 36 38 40 37 41 39 43 44 45 46 47 42 48 49 50 51 52 54 55 53 56 58 59 61 62 60 63 64 66 65 68 67 69 70 72 73 74 76 75 77 71 78 82 83 84 81 85 86 87 88 89 90 91 93 94 95 96 97 98 99 100 101 102 103 104 106 105 110 111 107 108 109 112 113 114 115 116 117 118 119 121]</text>
<polyline fill="none" stroke="#0058ad" points="3353,-81.5 3353,-110.5 "/>
<text text-anchor="middle" x="3551.5" y="-92.3" font-family="Times,serif" font-size="14.00" fill="#0058ad">r 193 [1 2 3 4 5 6 7 12 13 9 10 16 14 17 18 15 19 20 21 22 24 23 25]</text>
</g>
<!-- T39007 -->
<g id="node2" class="node">
<title>T39007</title>
<polygon fill="none" stroke="#0058ad" points="0,-.5 0,-29.5 2795,-29.5 2795,-.5 0,-.5"/>
<text text-anchor="middle" x="190" y="-11.3" font-family="Times,serif" font-size="14.00" fill="#0058ad">r 193 [1 2 3 4 5 6 7 12 13 9 10 16 14 17 18 15 19 20 21 22 24 23]</text>
<polyline fill="none" stroke="#0058ad" points="380,-.5 380,-29.5 "/>
<text text-anchor="middle" x="570" y="-11.3" font-family="Times,serif" font-size="14.00" fill="#0058ad">r 193 [1 2 3 4 5 6 7 12 13 9 10 16 14 17 18 15 19 20 21 22 24 23]</text>
<polyline fill="none" stroke="#0058ad" points="760,-.5 760,-29.5 "/>
<text text-anchor="middle" x="1742" y="-11.3" font-family="Times,serif" font-size="14.00" fill="#0058ad">r 190 [1 2 3 4 5 6 7 8 9 11 12 14 15 18 16 17 19 21 26 30 31 32 33 34 35 36 38 40 37 41 39 43 44 45 46 47 42 48 49 50 51 52 54 55 53 56 58 59 61 62 60 63 64 66 65 68 67 69 70 72 73 74 76 75 77 71 78 82 83 84 81 85 86 87 88 89 90 91 93 94 95 96 97 98 99 100 101 102 103 104 106 105 110 111 107 108 109 112 113 114 115 116 117 118 119 121]</text>
<polyline fill="none" stroke="#0058ad" points="2724,-.5 2724,-29.5 "/>
<text text-anchor="middle" x="2759.5" y="-11.3" font-family="Times,serif" font-size="14.00" fill="#0058ad">a 190 122</text>
</g>
<!-- T39005&#45;&gt;T39007 -->
<g id="edge1" class="edge">
<title>T39005:f1&#45;&gt;T39007:f3</title>
<path fill="none" stroke="#5b00c0" d="M2370.5,-81C2370.5,89.7925 2743.7085,-192.3551 2759.0159,-40.1402"/>
<polygon fill="#5b00c0" stroke="#5b00c0" points="2762.5191,-40.1556 2759.5,-30 2755.527,-39.8217 2762.5191,-40.1556"/>
<text text-anchor="middle" x="2765" y="-51.8" font-family="Times,serif" font-size="14.00" fill="#5b00c0">rw</text>
</g>
<!-- T39007&#45;&gt;T39005 -->
<g id="edge2" class="edge">
<title>T39007:f0&#45;&gt;T39005:f0</title>
<path fill="none" stroke="#5b00c0" d="M189.5,-30C189.5,-90.9415 1187.2991,-95.7259 1314.1887,-95.987"/>
<polygon fill="#5b00c0" stroke="#5b00c0" points="1314.4956,-99.4873 1324.5,-96 1314.5045,-92.4873 1314.4956,-99.4873"/>
<text text-anchor="middle" x="308" y="-51.8" font-family="Times,serif" font-size="14.00" fill="#5b00c0">rw</text>
</g>
</g>
</svg>
