<?xml version="1.0" encoding="UTF-8" standalone="no"?>
<!DOCTYPE svg PUBLIC "-//W3C//DTD SVG 1.1//EN"
 "http://www.w3.org/Graphics/SVG/1.1/DTD/svg11.dtd">
<!-- Generated by graphviz version 2.40.1 (20161225.0304)
 -->
<!-- Title: a_graph Pages: 1 -->
<svg width="2417pt" height="119pt"
 viewBox="0.00 0.00 2416.50 119.00" xmlns="http://www.w3.org/2000/svg" xmlns:xlink="http://www.w3.org/1999/xlink">
<g id="graph0" class="graph" transform="scale(1 1) rotate(0) translate(4 115)">
<title>a_graph</title>
<polygon fill="#ffffff" stroke="transparent" points="-4,4 -4,-115 2412.5,-115 2412.5,4 -4,4"/>
<!-- T32109 -->
<g id="node1" class="node">
<title>T32109</title>
<polygon fill="none" stroke="#0058ad" points=".5,-81.5 .5,-110.5 2408.5,-110.5 2408.5,-81.5 .5,-81.5"/>
<text text-anchor="middle" x="394" y="-92.3" font-family="Times,serif" font-size="14.00" fill="#0058ad">r 161 [1 2 3 4 5 6 7 8 9 11 13 12 14 15 16 17 18 10 19 20 21 22 23 25 24 26 27 28 31 29 35 32 33 36 37 38 39 40 43 44 45 46 47 48 41 42]</text>
<polyline fill="none" stroke="#0058ad" points="787.5,-81.5 787.5,-110.5 "/>
<text text-anchor="middle" x="819.5" y="-92.3" font-family="Times,serif" font-size="14.00" fill="#0058ad">a 158 52</text>
<polyline fill="none" stroke="#0058ad" points="851.5,-81.5 851.5,-110.5 "/>
<text text-anchor="middle" x="1236.5" y="-92.3" font-family="Times,serif" font-size="14.00" fill="#0058ad">r 160 [1 2 3 4 5 6 7 8 9 10 11 12 13 15 14 16 17 18 20 21 19 22 23 24 25 26 27 28 29 30 31 32 33 34 35 36 37 38 39 42 43 40 45 46 47]</text>
<polyline fill="none" stroke="#0058ad" points="1621.5,-81.5 1621.5,-110.5 "/>
<text text-anchor="middle" x="2015" y="-92.3" font-family="Times,serif" font-size="14.00" fill="#0058ad">r 161 [1 2 3 4 5 6 7 8 9 11 13 12 14 15 16 17 18 10 19 20 21 22 23 25 24 26 27 28 31 29 35 32 33 36 37 38 39 40 43 44 45 46 47 48 41 42]</text>
</g>
<!-- T32111 -->
<g id="node2" class="node">
<title>T32111</title>
<polygon fill="none" stroke="#0058ad" points="0,-.5 0,-29.5 915,-29.5 915,-.5 0,-.5"/>
<text text-anchor="middle" x="393.5" y="-11.3" font-family="Times,serif" font-size="14.00" fill="#0058ad">r 158 [2 1 3 4 5 7 6 8 9 12 11 13 14 15 16 17 18 19 20 21 22 23 24 25 27 26 28 29 30 32 31 33 35 34 36 40 42 43 44 45 46 47 48 49 50 51]</text>
<polyline fill="none" stroke="#0058ad" points="787,-.5 787,-29.5 "/>
<text text-anchor="middle" x="819" y="-11.3" font-family="Times,serif" font-size="14.00" fill="#0058ad">a 161 49</text>
<polyline fill="none" stroke="#0058ad" points="851,-.5 851,-29.5 "/>
<text text-anchor="middle" x="883" y="-11.3" font-family="Times,serif" font-size="14.00" fill="#0058ad">a 161 50</text>
</g>
<!-- T32109&#45;&gt;T32111 -->
<g id="edge1" class="edge">
<title>T32109:f0&#45;&gt;T32111:f1</title>
<path fill="none" stroke="#5b00c0" d="M393.5,-81C393.5,-75.5881 744.8788,-42.855 809.3898,-32.4271"/>
<polygon fill="#5b00c0" stroke="#5b00c0" points="810.5933,-35.7377 819.5,-30 808.9592,-28.9311 810.5933,-35.7377"/>
<text text-anchor="middle" x="677" y="-51.8" font-family="Times,serif" font-size="14.00" fill="#5b00c0">rw</text>
</g>
<!-- T32111&#45;&gt;T32109 -->
<g id="edge2" class="edge">
<title>T32111:f0&#45;&gt;T32109:f1</title>
<path fill="none" stroke="#5b00c0" d="M393.5,-30C393.5,-46.4194 672.2746,-45.4837 688.5,-48 744.1236,-56.6263 810.5897,-25.3117 818.6806,-70.836"/>
<polygon fill="#5b00c0" stroke="#5b00c0" points="815.2077,-71.3136 819.5,-81 822.1851,-70.7511 815.2077,-71.3136"/>
<text text-anchor="middle" x="823" y="-51.8" font-family="Times,serif" font-size="14.00" fill="#5b00c0">rw</text>
</g>
</g>
</svg>
