<?xml version="1.0" encoding="UTF-8" standalone="no"?>
<!DOCTYPE svg PUBLIC "-//W3C//DTD SVG 1.1//EN"
 "http://www.w3.org/Graphics/SVG/1.1/DTD/svg11.dtd">
<!-- Generated by graphviz version 2.40.1 (20161225.0304)
 -->
<!-- Title: a_graph Pages: 1 -->
<svg width="4574pt" height="119pt"
 viewBox="0.00 0.00 4574.00 119.00" xmlns="http://www.w3.org/2000/svg" xmlns:xlink="http://www.w3.org/1999/xlink">
<g id="graph0" class="graph" transform="scale(1 1) rotate(0) translate(4 115)">
<title>a_graph</title>
<polygon fill="#ffffff" stroke="transparent" points="-4,4 -4,-115 4570,-115 4570,4 -4,4"/>
<!-- T36176 -->
<g id="node1" class="node">
<title>T36176</title>
<polygon fill="none" stroke="#0058ad" points="0,-81.5 0,-110.5 4566,-110.5 4566,-81.5 0,-81.5"/>
<text text-anchor="middle" x="855.5" y="-92.3" font-family="Times,serif" font-size="14.00" fill="#0058ad">r 175 [1 3 2 4 5 6 7 9 8 10 11 13 12 14 15 16 17 18 19 20 23 24 25 22 26 27 28 29 31 30 32 33 34 35 36 37 38 39 40 41 42 43 44 45 46 47 49 48 52 53 54 55 56 57 58 59 60 61 62 63 65 66 67 68 70 71 73 72 74 75 76 78 77 79 80 81 82 83 84 85 86 87 88 89 90 91 92 93 94 95 96 97 98 99 101 100 102 103]</text>
<polyline fill="none" stroke="#0058ad" points="1711,-81.5 1711,-110.5 "/>
<text text-anchor="middle" x="2447.5" y="-92.3" font-family="Times,serif" font-size="14.00" fill="#0058ad">r 170 [2 3 4 5 6 7 9 10 11 12 13 15 16 18 19 21 22 23 24 25 26 27 28 29 30 31 32 33 34 35 36 37 38 39 40 42 43 44 45 46 47 48 49 50 51 52 53 54 56 55 57 58 60 61 62 64 63 65 66 68 67 69 71 72 73 74 75 76 78 79 77 80 81 82 83 85 86 87 88 89 90 91 92 93 94]</text>
<polyline fill="none" stroke="#0058ad" points="3184,-81.5 3184,-110.5 "/>
<text text-anchor="middle" x="3216" y="-92.3" font-family="Times,serif" font-size="14.00" fill="#0058ad">a 180 37</text>
<polyline fill="none" stroke="#0058ad" points="3248,-81.5 3248,-110.5 "/>
<text text-anchor="middle" x="3907" y="-92.3" font-family="Times,serif" font-size="14.00" fill="#0058ad">r 178 [1 2 4 3 7 8 9 10 12 11 13 14 15 16 17 18 19 20 21 22 23 24 25 26 27 28 29 30 31 34 32 35 36 33 38 37 39 41 42 40 43 44 45 46 47 48 50 49 51 53 52 56 57 58 59 60 62 61 64 63 65 66 67 68 69 70 72 73 75 74 76 77 79 78 80 81]</text>
</g>
<!-- T36175 -->
<g id="node2" class="node">
<title>T36175</title>
<polygon fill="none" stroke="#0058ad" points="3187,-.5 3187,-29.5 3793,-29.5 3793,-.5 3187,-.5"/>
<text text-anchor="middle" x="3458" y="-11.3" font-family="Times,serif" font-size="14.00" fill="#0058ad">r 180 [1 2 5 6 7 8 9 11 12 13 10 15 19 20 21 24 16 25 26 22 23 27 28 29 30 31 32 33 34 35 36]</text>
<polyline fill="none" stroke="#0058ad" points="3729,-.5 3729,-29.5 "/>
<text text-anchor="middle" x="3761" y="-11.3" font-family="Times,serif" font-size="14.00" fill="#0058ad">a 178 82</text>
</g>
<!-- T36176&#45;&gt;T36175 -->
<g id="edge1" class="edge">
<title>T36176:f3&#45;&gt;T36175:f1</title>
<path fill="none" stroke="#5b00c0" d="M3907,-81C3907,-25.8851 3857.8535,-16.049 3803.2488,-15.0856"/>
<polygon fill="#5b00c0" stroke="#5b00c0" points="3803.0289,-11.5837 3793,-15 3802.9704,-18.5835 3803.0289,-11.5837"/>
<text text-anchor="middle" x="3911.5" y="-51.8" font-family="Times,serif" font-size="14.00" fill="#5b00c0">rw</text>
</g>
<!-- T36175&#45;&gt;T36176 -->
<g id="edge2" class="edge">
<title>T36175:f0&#45;&gt;T36176:f2</title>
<path fill="none" stroke="#5b00c0" d="M3187,-15C3158.3391,-15 3204.1597,-42.1742 3214.1438,-70.8403"/>
<polygon fill="#5b00c0" stroke="#5b00c0" points="3210.7597,-71.7919 3216,-81 3217.6457,-70.5338 3210.7597,-71.7919"/>
<text text-anchor="middle" x="3217.5" y="-51.8" font-family="Times,serif" font-size="14.00" fill="#5b00c0">rw</text>
</g>
</g>
</svg>
