<?xml version="1.0" encoding="UTF-8" standalone="no"?>
<!DOCTYPE svg PUBLIC "-//W3C//DTD SVG 1.1//EN"
 "http://www.w3.org/Graphics/SVG/1.1/DTD/svg11.dtd">
<!-- Generated by graphviz version 2.40.1 (20161225.0304)
 -->
<!-- Title: a_graph Pages: 1 -->
<svg width="2076pt" height="119pt"
 viewBox="0.00 0.00 2075.50 119.00" xmlns="http://www.w3.org/2000/svg" xmlns:xlink="http://www.w3.org/1999/xlink">
<g id="graph0" class="graph" transform="scale(1 1) rotate(0) translate(4 115)">
<title>a_graph</title>
<polygon fill="#ffffff" stroke="transparent" points="-4,4 -4,-115 2071.5,-115 2071.5,4 -4,4"/>
<!-- T36277 -->
<g id="node1" class="node">
<title>T36277</title>
<polygon fill="none" stroke="#0058ad" points="165.5,-81.5 165.5,-110.5 2067.5,-110.5 2067.5,-81.5 165.5,-81.5"/>
<text text-anchor="middle" x="197.5" y="-92.3" font-family="Times,serif" font-size="14.00" fill="#0058ad">a 180 60</text>
<polyline fill="none" stroke="#0058ad" points="229.5,-81.5 229.5,-110.5 "/>
<text text-anchor="middle" x="1091.5" y="-92.3" font-family="Times,serif" font-size="14.00" fill="#0058ad">r 178 [1 2 4 3 7 8 9 10 12 11 13 14 15 16 17 18 19 20 21 22 23 24 25 26 27 28 29 30 31 34 32 35 36 33 38 37 39 41 42 40 43 44 45 46 47 48 50 49 51 53 52 56 57 58 59 60 62 61 64 63 65 66 67 68 69 70 72 73 75 74 76 77 79 78 80 81 82 83 84 85 86 87 88 89 90 91 92 93 94 95 96 97 99 98 100 101 103 102]</text>
<polyline fill="none" stroke="#0058ad" points="1953.5,-81.5 1953.5,-110.5 "/>
<text text-anchor="middle" x="1985.5" y="-92.3" font-family="Times,serif" font-size="14.00" fill="#0058ad">a 180 61</text>
<polyline fill="none" stroke="#0058ad" points="2017.5,-81.5 2017.5,-110.5 "/>
<text text-anchor="middle" x="2042.5" y="-92.3" font-family="Times,serif" font-size="14.00" fill="#0058ad">a 1 34</text>
</g>
<!-- T36275 -->
<g id="node2" class="node">
<title>T36275</title>
<polygon fill="none" stroke="#0058ad" points="0,-.5 0,-29.5 1879,-29.5 1879,-.5 0,-.5"/>
<text text-anchor="middle" x="452" y="-11.3" font-family="Times,serif" font-size="14.00" fill="#0058ad">r 180 [1 2 5 6 7 8 9 11 12 13 10 15 19 20 21 24 16 25 26 22 23 27 28 29 30 31 32 33 34 35 36 37 38 39 40 41 42 43 44 45 49 51 52 47 48 50 53 54 55 56 57 58]</text>
<polyline fill="none" stroke="#0058ad" points="904,-.5 904,-29.5 "/>
<text text-anchor="middle" x="939.5" y="-11.3" font-family="Times,serif" font-size="14.00" fill="#0058ad">a 178 105</text>
<polyline fill="none" stroke="#0058ad" points="975,-.5 975,-29.5 "/>
<text text-anchor="middle" x="1427" y="-11.3" font-family="Times,serif" font-size="14.00" fill="#0058ad">r 180 [1 2 5 6 7 8 9 11 12 13 10 15 19 20 21 24 16 25 26 22 23 27 28 29 30 31 32 33 34 35 36 37 38 39 40 41 42 43 44 45 49 51 52 47 48 50 53 54 55 56 57 58]</text>
</g>
<!-- T36277&#45;&gt;T36275 -->
<g id="edge1" class="edge">
<title>T36277:f1&#45;&gt;T36275:f1</title>
<path fill="none" stroke="#5b00c0" d="M1091.5,-81C1091.5,-13.5009 955.1086,-92.0576 940.7235,-39.9628"/>
<polygon fill="#5b00c0" stroke="#5b00c0" points="944.1929,-39.4988 939.5,-30 937.2451,-40.3521 944.1929,-39.4988"/>
<text text-anchor="middle" x="1092" y="-51.8" font-family="Times,serif" font-size="14.00" fill="#5b00c0">rw</text>
</g>
<!-- T36275&#45;&gt;T36277 -->
<g id="edge2" class="edge">
<title>T36275:f0&#45;&gt;T36277:f0</title>
<path fill="none" stroke="#5b00c0" d="M451.5,-30C451.5,-141.4314 213.6073,22.8924 198.2744,-70.7657"/>
<polygon fill="#5b00c0" stroke="#5b00c0" points="194.7646,-70.7644 197.5,-81 201.7446,-71.2926 194.7646,-70.7644"/>
<text text-anchor="middle" x="455" y="-51.8" font-family="Times,serif" font-size="14.00" fill="#5b00c0">rw</text>
</g>
</g>
</svg>
