<?xml version="1.0" encoding="UTF-8" standalone="no"?>
<!DOCTYPE svg PUBLIC "-//W3C//DTD SVG 1.1//EN"
 "http://www.w3.org/Graphics/SVG/1.1/DTD/svg11.dtd">
<!-- Generated by graphviz version 2.40.1 (20161225.0304)
 -->
<!-- Title: a_graph Pages: 1 -->
<svg width="1527pt" height="119pt"
 viewBox="0.00 0.00 1526.50 119.00" xmlns="http://www.w3.org/2000/svg" xmlns:xlink="http://www.w3.org/1999/xlink">
<g id="graph0" class="graph" transform="scale(1 1) rotate(0) translate(4 115)">
<title>a_graph</title>
<polygon fill="#ffffff" stroke="transparent" points="-4,4 -4,-115 1522.5,-115 1522.5,4 -4,4"/>
<!-- T22023 -->
<g id="node1" class="node">
<title>T22023</title>
<polygon fill="none" stroke="#0058ad" points="0,-81.5 0,-110.5 1110,-110.5 1110,-81.5 0,-81.5"/>
<text text-anchor="middle" x="523" y="-92.3" font-family="Times,serif" font-size="14.00" fill="#0058ad">r 112 [1 2 3 4 5 6 7 8 9 10 11 12 13 14 15 16 17 20 18 19 22 21 23 24 26 25 27 28 29 30 31 32 33 34 35 36 37 38 39 40 42 41 44 45 43 48 50 49 46 47 51 52 53 54 55 56 57 58 59 60 61]</text>
<polyline fill="none" stroke="#0058ad" points="1046,-81.5 1046,-110.5 "/>
<text text-anchor="middle" x="1078" y="-92.3" font-family="Times,serif" font-size="14.00" fill="#0058ad">a 111 48</text>
</g>
<!-- T22025 -->
<g id="node2" class="node">
<title>T22025</title>
<polygon fill="none" stroke="#0058ad" points="539.5,-.5 539.5,-29.5 1518.5,-29.5 1518.5,-.5 539.5,-.5"/>
<text text-anchor="middle" x="571.5" y="-11.3" font-family="Times,serif" font-size="14.00" fill="#0058ad">a 112 62</text>
<polyline fill="none" stroke="#0058ad" points="603.5,-.5 603.5,-29.5 "/>
<text text-anchor="middle" x="635.5" y="-11.3" font-family="Times,serif" font-size="14.00" fill="#0058ad">a 112 63</text>
<polyline fill="none" stroke="#0058ad" points="667.5,-.5 667.5,-29.5 "/>
<text text-anchor="middle" x="1061" y="-11.3" font-family="Times,serif" font-size="14.00" fill="#0058ad">r 111 [1 2 3 4 5 6 7 8 9 10 12 13 14 15 16 17 18 19 20 21 22 23 24 25 26 27 28 29 30 31 32 33 34 35 36 37 38 39 41 40 42 43 44 45 46 47]</text>
<polyline fill="none" stroke="#0058ad" points="1454.5,-.5 1454.5,-29.5 "/>
<text text-anchor="middle" x="1486.5" y="-11.3" font-family="Times,serif" font-size="14.00" fill="#0058ad">a 96 107</text>
</g>
<!-- T22023&#45;&gt;T22025 -->
<g id="edge1" class="edge">
<title>T22023:f0&#45;&gt;T22025:f0</title>
<path fill="none" stroke="#5b00c0" d="M523,-81C523,-55.0615 512.5255,-24.9621 528.7358,-17.0096"/>
<polygon fill="#5b00c0" stroke="#5b00c0" points="529.8588,-20.3563 539,-15 528.5138,-13.4867 529.8588,-20.3563"/>
<text text-anchor="middle" x="529.5" y="-51.8" font-family="Times,serif" font-size="14.00" fill="#5b00c0">rw</text>
</g>
<!-- T22025&#45;&gt;T22023 -->
<g id="edge2" class="edge">
<title>T22025:f2&#45;&gt;T22023:f1</title>
<path fill="none" stroke="#5b00c0" d="M1061,-30C1061,-49.9729 1072.8795,-55.4959 1076.7774,-70.7274"/>
<polygon fill="#5b00c0" stroke="#5b00c0" points="1073.3426,-71.4837 1078,-81 1080.2936,-70.6564 1073.3426,-71.4837"/>
<text text-anchor="middle" x="1080.5" y="-51.8" font-family="Times,serif" font-size="14.00" fill="#5b00c0">rw</text>
</g>
</g>
</svg>
