<?xml version="1.0" encoding="UTF-8" standalone="no"?>
<!DOCTYPE svg PUBLIC "-//W3C//DTD SVG 1.1//EN"
 "http://www.w3.org/Graphics/SVG/1.1/DTD/svg11.dtd">
<!-- Generated by graphviz version 2.40.1 (20161225.0304)
 -->
<!-- Title: a_graph Pages: 1 -->
<svg width="3498pt" height="119pt"
 viewBox="0.00 0.00 3498.00 119.00" xmlns="http://www.w3.org/2000/svg" xmlns:xlink="http://www.w3.org/1999/xlink">
<g id="graph0" class="graph" transform="scale(1 1) rotate(0) translate(4 115)">
<title>a_graph</title>
<polygon fill="#ffffff" stroke="transparent" points="-4,4 -4,-115 3494,-115 3494,4 -4,4"/>
<!-- T13019 -->
<g id="node1" class="node">
<title>T13019</title>
<polygon fill="none" stroke="#0058ad" points="1686,-81.5 1686,-110.5 2266,-110.5 2266,-81.5 1686,-81.5"/>
<text text-anchor="middle" x="1718" y="-92.3" font-family="Times,serif" font-size="14.00" fill="#0058ad">a 66 118</text>
<polyline fill="none" stroke="#0058ad" points="1750,-81.5 1750,-110.5 "/>
<text text-anchor="middle" x="1782" y="-92.3" font-family="Times,serif" font-size="14.00" fill="#0058ad">a 62 112</text>
<polyline fill="none" stroke="#0058ad" points="1814,-81.5 1814,-110.5 "/>
<text text-anchor="middle" x="2040" y="-92.3" font-family="Times,serif" font-size="14.00" fill="#0058ad">r 69 [1 2 3 4 5 6 7 8 9 10 11 12 13 16 14 15 17 18 19 20 22 23 24 25 26 27 28]</text>
</g>
<!-- T13017 -->
<g id="node2" class="node">
<title>T13017</title>
<polygon fill="none" stroke="#0058ad" points="0,-.5 0,-29.5 3490,-29.5 3490,-.5 0,-.5"/>
<text text-anchor="middle" x="865" y="-11.3" font-family="Times,serif" font-size="14.00" fill="#0058ad">r 66 [1 2 3 4 5 6 7 8 9 10 11 12 13 14 15 16 17 18 20 21 22 23 24 25 26 27 28 29 30 31 32 33 34 36 37 38 39 41 42 43 44 45 46 47 48 49 50 51 52 53 54 55 56 57 58 59 60 61 62 63 64 66 67 68 69 70 83 90 89 91 92 93 96 97 98 99 100 101 102 103 105 104 106 107 108 109 110 111 112 113 114 116 115 117]</text>
<polyline fill="none" stroke="#0058ad" points="1730,-.5 1730,-29.5 "/>
<text text-anchor="middle" x="2581.5" y="-11.3" font-family="Times,serif" font-size="14.00" fill="#0058ad">r 62 [1 2 3 4 5 6 7 8 9 10 11 12 13 14 15 16 18 19 20 21 22 23 24 25 26 27 28 29 30 31 32 34 35 36 37 38 39 40 41 42 43 44 45 46 48 49 50 51 52 53 54 55 56 57 58 59 61 62 63 64 65 66 68 72 73 74 75 76 77 78 79 80 81 82 83 84 85 86 87 88 89 90 92 93 94 95 96 101 103 104 106 107 108 109 110 111]</text>
<polyline fill="none" stroke="#0058ad" points="3433,-.5 3433,-29.5 "/>
<text text-anchor="middle" x="3461.5" y="-11.3" font-family="Times,serif" font-size="14.00" fill="#0058ad">a 69 29</text>
</g>
<!-- T13019&#45;&gt;T13017 -->
<g id="edge1" class="edge">
<title>T13019:f2&#45;&gt;T13017:f2</title>
<path fill="none" stroke="#5b00c0" d="M2266,-96C2297.5831,-96 3346.8231,-66.5122 3453.3051,-35.0605"/>
<polygon fill="#5b00c0" stroke="#5b00c0" points="3455.1178,-38.0552 3462,-30 3451.5966,-32.0052 3455.1178,-38.0552"/>
<text text-anchor="middle" x="3347.5" y="-51.8" font-family="Times,serif" font-size="14.00" fill="#5b00c0">rw</text>
</g>
<!-- T13017&#45;&gt;T13019 -->
<g id="edge2" class="edge">
<title>T13017:f0&#45;&gt;T13019:f0</title>
<path fill="none" stroke="#5b00c0" d="M865,-30C865,-73.7474 1573.6024,-94.1717 1675.8688,-95.8823"/>
<polygon fill="#5b00c0" stroke="#5b00c0" points="1675.96,-99.3835 1686,-96 1676.0414,-92.384 1675.96,-99.3835"/>
<text text-anchor="middle" x="1021.5" y="-51.8" font-family="Times,serif" font-size="14.00" fill="#5b00c0">rw</text>
</g>
</g>
</svg>
