<?xml version="1.0" encoding="UTF-8" standalone="no"?>
<!DOCTYPE svg PUBLIC "-//W3C//DTD SVG 1.1//EN"
 "http://www.w3.org/Graphics/SVG/1.1/DTD/svg11.dtd">
<!-- Generated by graphviz version 2.40.1 (20161225.0304)
 -->
<!-- Title: a_graph Pages: 1 -->
<svg width="3077pt" height="119pt"
 viewBox="0.00 0.00 3077.00 119.00" xmlns="http://www.w3.org/2000/svg" xmlns:xlink="http://www.w3.org/1999/xlink">
<g id="graph0" class="graph" transform="scale(1 1) rotate(0) translate(4 115)">
<title>a_graph</title>
<polygon fill="#ffffff" stroke="transparent" points="-4,4 -4,-115 3073,-115 3073,4 -4,4"/>
<!-- T22315 -->
<g id="node1" class="node">
<title>T22315</title>
<polygon fill="none" stroke="#0058ad" points="797,-81.5 797,-110.5 2678,-110.5 2678,-81.5 797,-81.5"/>
<text text-anchor="middle" x="1383.5" y="-92.3" font-family="Times,serif" font-size="14.00" fill="#0058ad">r 110 [1 2 3 4 6 7 8 9 10 11 12 13 14 15 16 17 18 19 20 22 23 25 24 26 27 28 29 30 31 32 33 34 35 36 37 38 39 40 41 42 43 44 45 46 47 48 49 50 51 52 53 54 55 56 57 58 59 60 61 62 63 64 65 66 67 68 69 70]</text>
<polyline fill="none" stroke="#0058ad" points="1970,-81.5 1970,-110.5 "/>
<text text-anchor="middle" x="2260" y="-92.3" font-family="Times,serif" font-size="14.00" fill="#0058ad">r 113 [1 2 3 4 5 6 7 9 8 10 11 12 13 14 17 18 15 16 19 20 21 22 23 26 27 28 29 30 31 32 33 34 35 36]</text>
<polyline fill="none" stroke="#0058ad" points="2550,-81.5 2550,-110.5 "/>
<text text-anchor="middle" x="2582" y="-92.3" font-family="Times,serif" font-size="14.00" fill="#0058ad">a 113 24</text>
<polyline fill="none" stroke="#0058ad" points="2614,-81.5 2614,-110.5 "/>
<text text-anchor="middle" x="2646" y="-92.3" font-family="Times,serif" font-size="14.00" fill="#0058ad">a 113 25</text>
</g>
<!-- T22317 -->
<g id="node2" class="node">
<title>T22317</title>
<polygon fill="none" stroke="#0058ad" points="0,-.5 0,-29.5 3069,-29.5 3069,-.5 0,-.5"/>
<text text-anchor="middle" x="617.5" y="-11.3" font-family="Times,serif" font-size="14.00" fill="#0058ad">r 111 [1 2 3 4 5 6 7 8 9 10 12 13 14 15 16 17 18 19 20 21 22 23 24 25 26 27 28 29 30 31 32 33 34 35 36 37 38 39 41 40 42 43 44 45 46 47 48 49 50 51 52 53 54 55 56 57 58 59 60 61 62 63 64 67 68 66 69 70 71 72 73 74]</text>
<polyline fill="none" stroke="#0058ad" points="1235,-.5 1235,-29.5 "/>
<text text-anchor="middle" x="1267" y="-11.3" font-family="Times,serif" font-size="14.00" fill="#0058ad">a 110 71</text>
<polyline fill="none" stroke="#0058ad" points="1299,-.5 1299,-29.5 "/>
<text text-anchor="middle" x="1894" y="-11.3" font-family="Times,serif" font-size="14.00" fill="#0058ad">r 110 [1 2 3 4 6 7 8 9 10 11 12 13 14 15 16 17 18 19 20 22 23 25 24 26 27 28 29 30 31 32 33 34 35 36 37 38 39 40 41 42 43 44 45 46 47 48 49 50 51 52 53 54 55 56 57 58 59 60 61 62 63 64 65 66 67 68 69 70 71]</text>
<polyline fill="none" stroke="#0058ad" points="2489,-.5 2489,-29.5 "/>
<text text-anchor="middle" x="2779" y="-11.3" font-family="Times,serif" font-size="14.00" fill="#0058ad">r 113 [1 2 3 4 5 6 7 9 8 10 11 12 13 14 17 18 15 16 19 20 21 22 23 26 27 28 29 30 31 32 33 34 35 36]</text>
</g>
<!-- T22315&#45;&gt;T22317 -->
<g id="edge1" class="edge">
<title>T22315:f0&#45;&gt;T22317:f1</title>
<path fill="none" stroke="#5b00c0" d="M1383.5,-81C1383.5,-28.263 1282.3747,-78.5325 1268.1539,-40.2808"/>
<polygon fill="#5b00c0" stroke="#5b00c0" points="1271.544,-39.3171 1266.5,-30 1264.6329,-40.429 1271.544,-39.3171"/>
<text text-anchor="middle" x="1383" y="-51.8" font-family="Times,serif" font-size="14.00" fill="#5b00c0">rw</text>
</g>
<!-- T22317&#45;&gt;T22315 -->
<g id="edge2" class="edge">
<title>T22317:f3&#45;&gt;T22315:f2</title>
<path fill="none" stroke="#5b00c0" d="M2779.5,-30C2779.5,-116.7325 2598.3287,-.8419 2583.467,-70.9529"/>
<polygon fill="#5b00c0" stroke="#5b00c0" points="2579.9743,-70.7106 2582.5,-81 2586.9421,-71.3814 2579.9743,-70.7106"/>
<text text-anchor="middle" x="2782" y="-51.8" font-family="Times,serif" font-size="14.00" fill="#5b00c0">rw</text>
</g>
</g>
</svg>
