<?xml version="1.0" encoding="UTF-8" standalone="no"?>
<!DOCTYPE svg PUBLIC "-//W3C//DTD SVG 1.1//EN"
 "http://www.w3.org/Graphics/SVG/1.1/DTD/svg11.dtd">
<!-- Generated by graphviz version 2.40.1 (20161225.0304)
 -->
<!-- Title: a_graph Pages: 1 -->
<svg width="1318pt" height="119pt"
 viewBox="0.00 0.00 1318.00 119.00" xmlns="http://www.w3.org/2000/svg" xmlns:xlink="http://www.w3.org/1999/xlink">
<g id="graph0" class="graph" transform="scale(1 1) rotate(0) translate(4 115)">
<title>a_graph</title>
<polygon fill="#ffffff" stroke="transparent" points="-4,4 -4,-115 1314,-115 1314,4 -4,4"/>
<!-- T15955 -->
<g id="node1" class="node">
<title>T15955</title>
<polygon fill="none" stroke="#0058ad" points="387,-81.5 387,-110.5 1310,-110.5 1310,-81.5 387,-81.5"/>
<text text-anchor="middle" x="415.5" y="-92.3" font-family="Times,serif" font-size="14.00" fill="#0058ad">a 83 80</text>
<polyline fill="none" stroke="#0058ad" points="444,-81.5 444,-110.5 "/>
<text text-anchor="middle" x="877" y="-92.3" font-family="Times,serif" font-size="14.00" fill="#0058ad">r 82 [1 2 3 4 5 6 7 8 9 10 11 12 13 14 15 16 17 18 19 20 22 23 24 25 26 27 28 29 30 31 32 33 34 35 36 37 38 39 40 41 42 43 44 45 46 47 48 49 51 54 56]</text>
</g>
<!-- T15959 -->
<g id="node2" class="node">
<title>T15959</title>
<polygon fill="none" stroke="#0058ad" points="0,-.5 0,-29.5 1263,-29.5 1263,-.5 0,-.5"/>
<text text-anchor="middle" x="631.5" y="-11.3" font-family="Times,serif" font-size="14.00" fill="#0058ad">r 83 [1 2 3 4 5 6 7 8 9 10 11 12 13 14 15 16 17 18 19 20 22 23 24 25 26 27 30 28 29 31 32 33 34 35 36 37 38 39 40 41 42 43 44 47 48 45 46 50 51 52 49 53 54 55 56 57 58 59 60 61 62 63 64 65 67 66 68 69 70 71 73 75 78 79]</text>
</g>
<!-- T15955&#45;&gt;T15959 -->
<g id="edge1" class="edge">
<title>T15955&#45;&gt;T15959</title>
<path fill="none" stroke="#0050c0" d="M809.4541,-81.4253C773.2324,-67.9047 719.1945,-47.7339 680.1746,-33.1689"/>
<polygon fill="#0050c0" stroke="#0050c0" points="681.1904,-29.8122 670.5978,-29.5941 678.7425,-36.3702 681.1904,-29.8122"/>
<text text-anchor="middle" x="763" y="-51.8" font-family="Times,serif" font-size="14.00" fill="#0050c0">rt</text>
</g>
<!-- T15959&#45;&gt;T15955 -->
<g id="edge2" class="edge">
<title>T15959:f0&#45;&gt;T15955:f0</title>
<path fill="none" stroke="#5b00c0" d="M446.9083,-29.6422C430.7037,-38.9712 419.2387,-52.2758 416.2631,-71.0242"/>
<polygon fill="#5b00c0" stroke="#5b00c0" points="412.773,-70.7621 415.5,-81 419.7526,-71.2961 412.773,-70.7621"/>
<text text-anchor="middle" x="432" y="-51.8" font-family="Times,serif" font-size="14.00" fill="#5b00c0">rw</text>
</g>
</g>
</svg>
