<?xml version="1.0" encoding="UTF-8" standalone="no"?>
<!DOCTYPE svg PUBLIC "-//W3C//DTD SVG 1.1//EN"
 "http://www.w3.org/Graphics/SVG/1.1/DTD/svg11.dtd">
<!-- Generated by graphviz version 2.40.1 (20161225.0304)
 -->
<!-- Title: a_graph Pages: 1 -->
<svg width="1913pt" height="119pt"
 viewBox="0.00 0.00 1913.00 119.00" xmlns="http://www.w3.org/2000/svg" xmlns:xlink="http://www.w3.org/1999/xlink">
<g id="graph0" class="graph" transform="scale(1 1) rotate(0) translate(4 115)">
<title>a_graph</title>
<polygon fill="#ffffff" stroke="transparent" points="-4,4 -4,-115 1909,-115 1909,4 -4,4"/>
<!-- T29909 -->
<g id="node1" class="node">
<title>T29909</title>
<polygon fill="none" stroke="#0058ad" points="76,-81.5 76,-110.5 1905,-110.5 1905,-81.5 76,-81.5"/>
<text text-anchor="middle" x="108" y="-92.3" font-family="Times,serif" font-size="14.00" fill="#0058ad">a 149 79</text>
<polyline fill="none" stroke="#0058ad" points="140,-81.5 140,-110.5 "/>
<text text-anchor="middle" x="321" y="-92.3" font-family="Times,serif" font-size="14.00" fill="#0058ad">r 151 [1 3 4 5 6 7 8 9 10 11 13 14 15 16 17 18 12 20 21 24 25]</text>
<polyline fill="none" stroke="#0058ad" points="502,-81.5 502,-110.5 "/>
<text text-anchor="middle" x="1171.5" y="-92.3" font-family="Times,serif" font-size="14.00" fill="#0058ad">r 149 [1 2 3 4 5 6 7 8 9 10 11 12 13 14 15 16 17 18 19 20 21 22 23 24 25 26 27 28 29 30 31 33 32 34 36 35 37 38 39 40 41 42 43 44 46 45 47 48 49 50 51 52 53 54 55 56 57 58 59 60 62 63 64 65 66 67 68 70 71 72 69 73 75 74 76 77 78 79]</text>
<polyline fill="none" stroke="#0058ad" points="1841,-81.5 1841,-110.5 "/>
<text text-anchor="middle" x="1873" y="-92.3" font-family="Times,serif" font-size="14.00" fill="#0058ad">a 149 80</text>
</g>
<!-- T29914 -->
<g id="node2" class="node">
<title>T29914</title>
<polygon fill="none" stroke="#0058ad" points="0,-.5 0,-29.5 1605,-29.5 1605,-.5 0,-.5"/>
<text text-anchor="middle" x="32" y="-11.3" font-family="Times,serif" font-size="14.00" fill="#0058ad">a 151 26</text>
<polyline fill="none" stroke="#0058ad" points="64,-.5 64,-29.5 "/>
<text text-anchor="middle" x="725" y="-11.3" font-family="Times,serif" font-size="14.00" fill="#0058ad">r 149 [1 2 3 4 5 6 7 8 9 10 11 12 13 14 15 16 17 18 19 20 21 22 23 24 25 26 27 28 29 30 31 33 32 34 36 35 37 38 39 40 41 42 43 44 46 45 47 48 49 50 51 52 53 54 55 56 57 58 59 60 62 63 64 65 66 67 68 70 71 72 69 73 75 74 76 77 78]</text>
<polyline fill="none" stroke="#0058ad" points="1386,-.5 1386,-29.5 "/>
<text text-anchor="middle" x="1463.5" y="-11.3" font-family="Times,serif" font-size="14.00" fill="#0058ad">r 150 [1 2 3 4 5 6 8 9 10]</text>
<polyline fill="none" stroke="#0058ad" points="1541,-.5 1541,-29.5 "/>
<text text-anchor="middle" x="1573" y="-11.3" font-family="Times,serif" font-size="14.00" fill="#0058ad">a 135 33</text>
</g>
<!-- T29909&#45;&gt;T29914 -->
<g id="edge1" class="edge">
<title>T29909:f1&#45;&gt;T29914:f0</title>
<path fill="none" stroke="#5b00c0" d="M320.5,-81C320.5,45.7353 47.6374,-148.8155 32.1822,-40.2781"/>
<polygon fill="#5b00c0" stroke="#5b00c0" points="35.6547,-39.7462 31.5,-30 28.6701,-40.2099 35.6547,-39.7462"/>
<text text-anchor="middle" x="326" y="-51.8" font-family="Times,serif" font-size="14.00" fill="#5b00c0">rw</text>
</g>
<!-- T29914&#45;&gt;T29909 -->
<g id="edge2" class="edge">
<title>T29914:f1&#45;&gt;T29909:f0</title>
<path fill="none" stroke="#5b00c0" d="M724.5,-30C724.5,-116.3121 423.525,-55.9662 337.5,-63 326.2976,-63.916 157.8624,-67.2115 116.5812,-76.6526"/>
<polygon fill="#5b00c0" stroke="#5b00c0" points="115.0084,-73.525 107.5,-81 118.031,-79.8388 115.0084,-73.525"/>
<text text-anchor="middle" x="727" y="-51.8" font-family="Times,serif" font-size="14.00" fill="#5b00c0">rw</text>
</g>
</g>
</svg>
