<?xml version="1.0" encoding="UTF-8" standalone="no"?>
<!DOCTYPE svg PUBLIC "-//W3C//DTD SVG 1.1//EN"
 "http://www.w3.org/Graphics/SVG/1.1/DTD/svg11.dtd">
<!-- Generated by graphviz version 2.40.1 (20161225.0304)
 -->
<!-- Title: a_graph Pages: 1 -->
<svg width="4436pt" height="119pt"
 viewBox="0.00 0.00 4436.00 119.00" xmlns="http://www.w3.org/2000/svg" xmlns:xlink="http://www.w3.org/1999/xlink">
<g id="graph0" class="graph" transform="scale(1 1) rotate(0) translate(4 115)">
<title>a_graph</title>
<polygon fill="#ffffff" stroke="transparent" points="-4,4 -4,-115 4432,-115 4432,4 -4,4"/>
<!-- T24083 -->
<g id="node1" class="node">
<title>T24083</title>
<polygon fill="none" stroke="#0058ad" points="600,-81.5 600,-110.5 4428,-110.5 4428,-81.5 600,-81.5"/>
<text text-anchor="middle" x="1355.5" y="-92.3" font-family="Times,serif" font-size="14.00" fill="#0058ad">r 121 [1 2 3 4 5 6 7 8 9 10 11 12 15 13 16 17 18 19 20 21 22 23 24 25 26 27 28 29 30 31 32 33 34 35 36 37 38 39 40 41 42 43 45 46 47 44 48 49 51 50 52 53 54 55 56 57 61 59 63 64 60 66 72 73 69 70 71 76 77 78 75 79 80 81 82 83 86 87 88 89 90 91 85 93 94 96 98 99]</text>
<polyline fill="none" stroke="#0058ad" points="2111,-81.5 2111,-110.5 "/>
<text text-anchor="middle" x="2143" y="-92.3" font-family="Times,serif" font-size="14.00" fill="#0058ad">a 118 76</text>
<polyline fill="none" stroke="#0058ad" points="2175,-81.5 2175,-110.5 "/>
<text text-anchor="middle" x="2930.5" y="-92.3" font-family="Times,serif" font-size="14.00" fill="#0058ad">r 121 [1 2 3 4 5 6 7 8 9 10 11 12 15 13 16 17 18 19 20 21 22 23 24 25 26 27 28 29 30 31 32 33 34 35 36 37 38 39 40 41 42 43 45 46 47 44 48 49 51 50 52 53 54 55 56 57 61 59 63 64 60 66 72 73 69 70 71 76 77 78 75 79 80 81 82 83 86 87 88 89 90 91 85 93 94 96 98 99]</text>
<polyline fill="none" stroke="#0058ad" points="3686,-81.5 3686,-110.5 "/>
<text text-anchor="middle" x="4057" y="-92.3" font-family="Times,serif" font-size="14.00" fill="#0058ad">r 116 [2 4 3 5 6 7 8 9 10 11 12 13 14 15 16 17 18 19 20 21 22 23 24 25 26 27 28 29 30 31 33 34 35 36 37 38 39 40 41 42 43 45 46]</text>
</g>
<!-- T24085 -->
<g id="node2" class="node">
<title>T24085</title>
<polygon fill="none" stroke="#0058ad" points="0,-.5 0,-29.5 2940,-29.5 2940,-.5 0,-.5"/>
<text text-anchor="middle" x="592" y="-11.3" font-family="Times,serif" font-size="14.00" fill="#0058ad">r 118 [1 3 4 2 6 5 7 8 9 10 11 12 15 16 17 18 19 20 21 22 23 24 25 26 27 29 30 31 33 34 36 37 38 39 40 41 42 43 44 45 47 46 48 49 50 51 52 53 54 55 56 57 58 59 60 61 62 63 64 66 67 68 69 71 70 72 73 74 75]</text>
<polyline fill="none" stroke="#0058ad" points="1184,-.5 1184,-29.5 "/>
<text text-anchor="middle" x="2005" y="-11.3" font-family="Times,serif" font-size="14.00" fill="#0058ad">r 119 [1 2 5 6 7 8 9 10 11 12 13 14 16 17 18 19 20 21 22 23 24 25 26 27 28 30 29 31 32 34 33 35 36 37 38 39 40 41 42 43 44 45 46 47 48 49 50 51 52 53 54 55 56 57 58 59 60 61 62 63 64 65 66 67 68 69 70 71 72 74 75 76 78 79 80 81 82 83 84 85 86 87 90 89 92 93 91 94 95 97 99 98 100 102]</text>
<polyline fill="none" stroke="#0058ad" points="2826,-.5 2826,-29.5 "/>
<text text-anchor="middle" x="2851" y="-11.3" font-family="Times,serif" font-size="14.00" fill="#0058ad">a 1 25</text>
<polyline fill="none" stroke="#0058ad" points="2876,-.5 2876,-29.5 "/>
<text text-anchor="middle" x="2908" y="-11.3" font-family="Times,serif" font-size="14.00" fill="#0058ad">a 121 95</text>
</g>
<!-- T24083&#45;&gt;T24085 -->
<g id="edge1" class="edge">
<title>T24083:f0&#45;&gt;T24085:f3</title>
<path fill="none" stroke="#5b00c0" d="M1355,-81C1355,44.5477 1793.5445,-52.8099 1919,-48 1931.9105,-47.505 2795.2177,-44.172 2898.0268,-32.3501"/>
<polygon fill="#5b00c0" stroke="#5b00c0" points="2899.0694,-35.7004 2908,-30 2897.4638,-28.887 2899.0694,-35.7004"/>
<text text-anchor="middle" x="1926.5" y="-51.8" font-family="Times,serif" font-size="14.00" fill="#5b00c0">rw</text>
</g>
<!-- T24085&#45;&gt;T24083 -->
<g id="edge2" class="edge">
<title>T24085:f0&#45;&gt;T24083:f1</title>
<path fill="none" stroke="#5b00c0" d="M592,-30C592,-48.6406 1915.4267,-46.4173 1934,-48 2024.0399,-55.6725 2134.0252,7.7647 2142.4804,-70.7119"/>
<polygon fill="#5b00c0" stroke="#5b00c0" points="2138.9999,-71.1893 2143,-81 2145.991,-70.8361 2138.9999,-71.1893"/>
<text text-anchor="middle" x="2147.5" y="-51.8" font-family="Times,serif" font-size="14.00" fill="#5b00c0">rw</text>
</g>
</g>
</svg>
