<?xml version="1.0" encoding="UTF-8" standalone="no"?>
<!DOCTYPE svg PUBLIC "-//W3C//DTD SVG 1.1//EN"
 "http://www.w3.org/Graphics/SVG/1.1/DTD/svg11.dtd">
<!-- Generated by graphviz version 2.40.1 (20161225.0304)
 -->
<!-- Title: a_graph Pages: 1 -->
<svg width="2224pt" height="119pt"
 viewBox="0.00 0.00 2224.00 119.00" xmlns="http://www.w3.org/2000/svg" xmlns:xlink="http://www.w3.org/1999/xlink">
<g id="graph0" class="graph" transform="scale(1 1) rotate(0) translate(4 115)">
<title>a_graph</title>
<polygon fill="#ffffff" stroke="transparent" points="-4,4 -4,-115 2220,-115 2220,4 -4,4"/>
<!-- T32375 -->
<g id="node1" class="node">
<title>T32375</title>
<polygon fill="none" stroke="#0058ad" points="1578.5,-81.5 1578.5,-110.5 1735.5,-110.5 1735.5,-81.5 1578.5,-81.5"/>
<text text-anchor="middle" x="1621.5" y="-92.3" font-family="Times,serif" font-size="14.00" fill="#0058ad">r 162 [2 3 1]</text>
<polyline fill="none" stroke="#0058ad" points="1664.5,-81.5 1664.5,-110.5 "/>
<text text-anchor="middle" x="1700" y="-92.3" font-family="Times,serif" font-size="14.00" fill="#0058ad">a 131 123</text>
</g>
<!-- T32377 -->
<g id="node2" class="node">
<title>T32377</title>
<polygon fill="none" stroke="#0058ad" points="0,-.5 0,-29.5 2216,-29.5 2216,-.5 0,-.5"/>
<text text-anchor="middle" x="43" y="-11.3" font-family="Times,serif" font-size="14.00" fill="#0058ad">r 162 [2 3 1]</text>
<polyline fill="none" stroke="#0058ad" points="86,-.5 86,-29.5 "/>
<text text-anchor="middle" x="118" y="-11.3" font-family="Times,serif" font-size="14.00" fill="#0058ad">a 158 84</text>
<polyline fill="none" stroke="#0058ad" points="150,-.5 150,-29.5 "/>
<text text-anchor="middle" x="1154.5" y="-11.3" font-family="Times,serif" font-size="14.00" fill="#0058ad">r 131 [1 2 3 4 5 6 7 8 9 10 11 12 13 14 15 16 17 18 19 21 22 23 24 25 26 27 28 29 30 31 32 34 37 38 39 40 41 42 43 44 45 46 47 48 49 51 52 53 54 55 56 57 58 59 61 63 64 65 66 67 68 70 72 73 74 75 76 77 78 79 80 81 83 84 85 86 87 88 89 90 91 92 93 94 95 96 97 98 99 100 101 102 103 104 105 106 107 108 109 111 112 113 114 115 116 117 118 119 120]</text>
<polyline fill="none" stroke="#0058ad" points="2159,-.5 2159,-29.5 "/>
<text text-anchor="middle" x="2187.5" y="-11.3" font-family="Times,serif" font-size="14.00" fill="#0058ad">a 162 5</text>
</g>
<!-- T32375&#45;&gt;T32377 -->
<g id="edge1" class="edge">
<title>T32375:f0&#45;&gt;T32377:f3</title>
<path fill="none" stroke="#5b00c0" d="M1621,-81C1621,-60.5701 1634.3224,-56.2784 1653,-48 1678.1172,-36.8674 2113.4267,-56.3228 2179.5976,-35.9036"/>
<polygon fill="#5b00c0" stroke="#5b00c0" points="2181.8299,-38.6128 2188,-30 2177.8056,-32.8852 2181.8299,-38.6128"/>
<text text-anchor="middle" x="1660.5" y="-51.8" font-family="Times,serif" font-size="14.00" fill="#5b00c0">rw</text>
</g>
<!-- T32377&#45;&gt;T32375 -->
<g id="edge2" class="edge">
<title>T32377:f2&#45;&gt;T32375:f1</title>
<path fill="none" stroke="#5b00c0" d="M1155,-30C1155,-58.5175 1641.9369,-36.4257 1668,-48 1683.1707,-54.7371 1694.814,-58.8246 1698.6469,-71.0787"/>
<polygon fill="#5b00c0" stroke="#5b00c0" points="1695.1807,-71.5647 1700,-81 1702.1165,-70.6187 1695.1807,-71.5647"/>
<text text-anchor="middle" x="1701.5" y="-51.8" font-family="Times,serif" font-size="14.00" fill="#5b00c0">rw</text>
</g>
</g>
</svg>
