<?xml version="1.0" encoding="UTF-8" standalone="no"?>
<!DOCTYPE svg PUBLIC "-//W3C//DTD SVG 1.1//EN"
 "http://www.w3.org/Graphics/SVG/1.1/DTD/svg11.dtd">
<!-- Generated by graphviz version 2.40.1 (20161225.0304)
 -->
<!-- Title: a_graph Pages: 1 -->
<svg width="5519pt" height="200pt"
 viewBox="0.00 0.00 5519.00 200.00" xmlns="http://www.w3.org/2000/svg" xmlns:xlink="http://www.w3.org/1999/xlink">
<g id="graph0" class="graph" transform="scale(1 1) rotate(0) translate(4 196)">
<title>a_graph</title>
<polygon fill="#ffffff" stroke="transparent" points="-4,4 -4,-196 5515,-196 5515,4 -4,4"/>
<!-- T38545 -->
<g id="node1" class="node">
<title>T38545</title>
<polygon fill="none" stroke="#0058ad" points="0,-162.5 0,-191.5 1401,-191.5 1401,-162.5 0,-162.5"/>
<text text-anchor="middle" x="402" y="-173.3" font-family="Times,serif" font-size="14.00" fill="#0058ad">r 190 [1 2 3 4 5 6 7 8 9 11 12 14 15 18 16 17 19 21 26 30 31 32 33 34 35 36 38 40 37 41 39 43 44 45 46 47 42 48 49 50 51 52 54 55 53 56 58]</text>
<polyline fill="none" stroke="#0058ad" points="804,-162.5 804,-191.5 "/>
<text text-anchor="middle" x="836" y="-173.3" font-family="Times,serif" font-size="14.00" fill="#0058ad">a 190 59</text>
<polyline fill="none" stroke="#0058ad" points="868,-162.5 868,-191.5 "/>
<text text-anchor="middle" x="903.5" y="-173.3" font-family="Times,serif" font-size="14.00" fill="#0058ad">a 163 117</text>
<polyline fill="none" stroke="#0058ad" points="939,-162.5 939,-191.5 "/>
<text text-anchor="middle" x="1170" y="-173.3" font-family="Times,serif" font-size="14.00" fill="#0058ad">r 191 [1 2 4 5 8 9 10 11 12 13 15 14 17 18 19 20 21 22 23 24 25 26 27 28 29 30]</text>
</g>
<!-- T38553 -->
<g id="node2" class="node">
<title>T38553</title>
<polygon fill="none" stroke="#0058ad" points="854,-81.5 854,-110.5 5511,-110.5 5511,-81.5 854,-81.5"/>
<text text-anchor="middle" x="1264.5" y="-92.3" font-family="Times,serif" font-size="14.00" fill="#0058ad">r 190 [1 2 3 4 5 6 7 8 9 11 12 14 15 18 16 17 19 21 26 30 31 32 33 34 35 36 38 40 37 41 39 43 44 45 46 47 42 48 49 50 51 52 54 55 53 56 58 59]</text>
<polyline fill="none" stroke="#0058ad" points="1675,-81.5 1675,-110.5 "/>
<text text-anchor="middle" x="2789" y="-92.3" font-family="Times,serif" font-size="14.00" fill="#0058ad">r 189 [1 2 4 5 6 7 8 9 10 11 12 13 14 15 16 17 18 20 21 22 23 24 25 26 27 28 29 30 31 32 19 34 35 33 37 36 38 39 40 41 42 44 45 46 47 48 49 51 52 53 54 50 55 56 57 60 61 62 58 63 65 66 68 69 71 72 73 75 76 77 74 78 79 80 81 82 83 84 85 87 88 86 89 90 92 93 91 95 96 97 94 98 100 103 101 102 104 105 99 106 107 109 110 111 108 112 115 116 117 118 119 113 114 120 121 122 123 124 126]</text>
<polyline fill="none" stroke="#0058ad" points="3903,-81.5 3903,-110.5 "/>
<text text-anchor="middle" x="4296.5" y="-92.3" font-family="Times,serif" font-size="14.00" fill="#0058ad">r 185 [1 2 3 4 5 6 7 8 9 10 12 11 13 14 15 16 17 18 19 20 21 22 23 24 25 26 27 28 29 30 31 32 33 34 35 36 37 38 39 40 41 42 43 44 45 46]</text>
<polyline fill="none" stroke="#0058ad" points="4690,-81.5 4690,-110.5 "/>
<text text-anchor="middle" x="5100.5" y="-92.3" font-family="Times,serif" font-size="14.00" fill="#0058ad">r 190 [1 2 3 4 5 6 7 8 9 11 12 14 15 18 16 17 19 21 26 30 31 32 33 34 35 36 38 40 37 41 39 43 44 45 46 47 42 48 49 50 51 52 54 55 53 56 58 59]</text>
</g>
<!-- T38545&#45;&gt;T38553 -->
<g id="edge1" class="edge">
<title>T38545:f1&#45;&gt;T38553:f0</title>
<path fill="none" stroke="#c000a5" d="M836.5,-162C836.5,26.0134 1248.7645,-290.4229 1264.0634,-121.1292"/>
<polygon fill="#c000a5" stroke="#c000a5" points="1267.566,-121.1415 1264.5,-111 1260.5725,-120.84 1267.566,-121.1415"/>
<text text-anchor="middle" x="1270" y="-132.8" font-family="Times,serif" font-size="14.00" fill="#c000a5">wr</text>
</g>
<!-- T38551 -->
<g id="node3" class="node">
<title>T38551</title>
<polygon fill="none" stroke="#0058ad" points="1184,-.5 1184,-29.5 4311,-29.5 4311,-.5 1184,-.5"/>
<text text-anchor="middle" x="1586" y="-11.3" font-family="Times,serif" font-size="14.00" fill="#0058ad">r 190 [1 2 3 4 5 6 7 8 9 11 12 14 15 18 16 17 19 21 26 30 31 32 33 34 35 36 38 40 37 41 39 43 44 45 46 47 42 48 49 50 51 52 54 55 53 56 58]</text>
<polyline fill="none" stroke="#0058ad" points="1988,-.5 1988,-29.5 "/>
<text text-anchor="middle" x="2023.5" y="-11.3" font-family="Times,serif" font-size="14.00" fill="#0058ad">a 189 128</text>
<polyline fill="none" stroke="#0058ad" points="2059,-.5 2059,-29.5 "/>
<text text-anchor="middle" x="3185" y="-11.3" font-family="Times,serif" font-size="14.00" fill="#0058ad">r 189 [1 2 4 5 6 7 8 9 10 11 12 13 14 15 16 17 18 20 21 22 23 24 25 26 27 28 29 30 31 32 19 34 35 33 37 36 38 39 40 41 42 44 45 46 47 48 49 51 52 53 54 50 55 56 57 60 61 62 58 63 65 66 68 69 71 72 73 75 76 77 74 78 79 80 81 82 83 84 85 87 88 86 89 90 92 93 91 95 96 97 94 98 100 103 101 102 104 105 99 106 107 109 110 111 108 112 115 116 117 118 119 113 114 120 121 122 123 124 126 128]</text>
</g>
<!-- T38553&#45;&gt;T38551 -->
<g id="edge2" class="edge">
<title>T38553:f1&#45;&gt;T38551:f1</title>
<path fill="none" stroke="#5b00c0" d="M2788.5,-81C2788.5,85.7169 2056.018,-188.1393 2024.5441,-40.3533"/>
<polygon fill="#5b00c0" stroke="#5b00c0" points="2027.9858,-39.5983 2023.5,-30 2021.0212,-40.3008 2027.9858,-39.5983"/>
<text text-anchor="middle" x="2792" y="-51.8" font-family="Times,serif" font-size="14.00" fill="#5b00c0">rw</text>
</g>
<!-- T38551&#45;&gt;T38545 -->
<g id="edge3" class="edge">
<title>T38551:f0&#45;&gt;T38545:f1</title>
<path fill="none" stroke="#5b00c0" d="M1183.5,-15C1103.4778,-15 880.6366,-19.4483 829.5,-81 808.6642,-106.0795 831.1301,-122.4292 835.7166,-151.9314"/>
<polygon fill="#5b00c0" stroke="#5b00c0" points="832.2348,-152.3016 836.5,-162 839.2137,-151.7586 832.2348,-152.3016"/>
<text text-anchor="middle" x="837" y="-92.3" font-family="Times,serif" font-size="14.00" fill="#5b00c0">rw</text>
</g>
</g>
</svg>
