<?xml version="1.0" encoding="UTF-8" standalone="no"?>
<!DOCTYPE svg PUBLIC "-//W3C//DTD SVG 1.1//EN"
 "http://www.w3.org/Graphics/SVG/1.1/DTD/svg11.dtd">
<!-- Generated by graphviz version 2.40.1 (20161225.0304)
 -->
<!-- Title: a_graph Pages: 1 -->
<svg width="3330pt" height="362pt"
 viewBox="0.00 0.00 3329.50 362.00" xmlns="http://www.w3.org/2000/svg" xmlns:xlink="http://www.w3.org/1999/xlink">
<g id="graph0" class="graph" transform="scale(1 1) rotate(0) translate(4 358)">
<title>a_graph</title>
<polygon fill="#ffffff" stroke="transparent" points="-4,4 -4,-358 3325.5,-358 3325.5,4 -4,4"/>
<!-- T9163 -->
<g id="node1" class="node">
<title>T9163</title>
<polygon fill="none" stroke="#0058ad" points="2152,-324.5 2152,-353.5 3203,-353.5 3203,-324.5 2152,-324.5"/>
<text text-anchor="middle" x="2184" y="-335.3" font-family="Times,serif" font-size="14.00" fill="#0058ad">a 47 125</text>
<polyline fill="none" stroke="#0058ad" points="2216,-324.5 2216,-353.5 "/>
<text text-anchor="middle" x="2709.5" y="-335.3" font-family="Times,serif" font-size="14.00" fill="#0058ad">r 49 [1 3 2 5 4 7 6 8 9 10 11 12 13 14 15 16 17 18 19 20 21 23 24 25 22 27 28 29 30 31 32 33 34 35 36 37 38 39 40 41 42 44 45 43 46 47 48 49 50 51 52 53 54 55 56 57 58 59]</text>
</g>
<!-- T9171 -->
<g id="node5" class="node">
<title>T9171</title>
<polygon fill="none" stroke="#0058ad" points="0,-243.5 0,-272.5 2147,-272.5 2147,-243.5 0,-243.5"/>
<text text-anchor="middle" x="1073.5" y="-254.3" font-family="Times,serif" font-size="14.00" fill="#0058ad">r 47 [1 2 3 4 5 6 7 8 9 10 11 12 13 14 15 16 17 18 19 20 21 22 23 24 25 26 27 28 29 30 31 34 32 33 35 36 37 38 39 40 41 42 43 44 45 46 47 48 49 50 51 52 53 54 56 57 58 59 60 61 62 63 64 65 66 67 69 68 70 71 72 73 75 76 77 78 79 80 81 83 84 85 86 88 87 89 90 91 92 93 94 95 96 98 97 99 100 101 105 106 107 108 109 110 111 112 113 114 115 116 117 118 119 120 121 122 123]</text>
</g>
<!-- T9163&#45;&gt;T9171 -->
<g id="edge1" class="edge">
<title>T9163&#45;&gt;T9171</title>
<path fill="none" stroke="#0050c0" d="M2390.2742,-324.4955C2102.6704,-309.9718 1662.1027,-287.7237 1370.941,-273.0204"/>
<polygon fill="#0050c0" stroke="#0050c0" points="1370.8109,-269.5095 1360.647,-272.5006 1370.4577,-276.5005 1370.8109,-269.5095"/>
<text text-anchor="middle" x="2023" y="-294.8" font-family="Times,serif" font-size="14.00" fill="#0050c0">rt</text>
</g>
<!-- T9161 -->
<g id="node2" class="node">
<title>T9161</title>
<polygon fill="none" stroke="#0058ad" points="3247,-81.5 3247,-110.5 3304,-110.5 3304,-81.5 3247,-81.5"/>
<text text-anchor="middle" x="3275.5" y="-92.3" font-family="Times,serif" font-size="14.00" fill="#0058ad">a 49 59</text>
</g>
<!-- T9161&#45;&gt;T9163 -->
<g id="edge2" class="edge">
<title>T9161:f0&#45;&gt;T9163:f1</title>
<path fill="none" stroke="#c000a5" d="M3288.2329,-110.7759C3302.7339,-129.4662 3323.2336,-162.746 3313.5,-192 3288.8449,-266.0997 3285.3694,-333.0065 3213.5895,-338.6195"/>
<polygon fill="#c000a5" stroke="#c000a5" points="3213.361,-335.1256 3203.5,-339 3213.6248,-342.1206 3213.361,-335.1256"/>
<text text-anchor="middle" x="3314" y="-213.8" font-family="Times,serif" font-size="14.00" fill="#c000a5">wr</text>
</g>
<!-- T9165 -->
<g id="node3" class="node">
<title>T9165</title>
<polygon fill="none" stroke="#0058ad" points="2166,-.5 2166,-29.5 2223,-29.5 2223,-.5 2166,-.5"/>
<text text-anchor="middle" x="2194.5" y="-11.3" font-family="Times,serif" font-size="14.00" fill="#0058ad">a 46 65</text>
</g>
<!-- T9161&#45;&gt;T9165 -->
<g id="edge3" class="edge">
<title>T9161&#45;&gt;T9165</title>
<path fill="none" stroke="#0050c0" d="M3246.8643,-93.8543C3097.1581,-82.6367 2404.8415,-30.761 2233.1226,-17.894"/>
<polygon fill="#0050c0" stroke="#0050c0" points="2233.2646,-14.3949 2223.031,-17.1378 2232.7415,-21.3754 2233.2646,-14.3949"/>
<text text-anchor="middle" x="2836" y="-51.8" font-family="Times,serif" font-size="14.00" fill="#0050c0">rt</text>
</g>
<!-- T9165&#45;&gt;T9171 -->
<g id="edge4" class="edge">
<title>T9165&#45;&gt;T9171</title>
<path fill="none" stroke="#0050c0" d="M2165.9571,-16.58C1998.8655,-26.1078 1152.2452,-78.3171 1076.5,-162 1059.2867,-181.0172 1061.6768,-211.8426 1066.3265,-233.4188"/>
<polygon fill="#0050c0" stroke="#0050c0" points="1062.9374,-234.2943 1068.7146,-243.1754 1069.7367,-232.63 1062.9374,-234.2943"/>
<text text-anchor="middle" x="1151" y="-132.8" font-family="Times,serif" font-size="14.00" fill="#0050c0">rt</text>
</g>
<!-- T9159 -->
<g id="node4" class="node">
<title>T9159</title>
<polygon fill="none" stroke="#0058ad" points="1085,-162.5 1085,-191.5 3304,-191.5 3304,-162.5 1085,-162.5"/>
<text text-anchor="middle" x="1117" y="-173.3" font-family="Times,serif" font-size="14.00" fill="#0058ad">a 47 124</text>
<polyline fill="none" stroke="#0058ad" points="1149,-162.5 1149,-191.5 "/>
<text text-anchor="middle" x="2198" y="-173.3" font-family="Times,serif" font-size="14.00" fill="#0058ad">r 36 [1 2 3 4 5 6 7 9 11 12 13 14 15 16 17 18 19 20 21 22 23 25 26 27 28 29 30 31 32 33 34 35 36 37 38 39 40 41 42 43 44 45 46 47 48 49 50 51 52 53 55 56 57 58 60 61 62 63 64 66 67 68 69 70 71 72 73 74 75 76 78 79 81 82 83 84 85 86 87 88 89 90 91 92 93 95 96 97 98 99 100 101 102 103 104 105 106 107 108 109 110 112 113 114 115 116 117 118 119 120 121 122 123]</text>
<polyline fill="none" stroke="#0058ad" points="3247,-162.5 3247,-191.5 "/>
<text text-anchor="middle" x="3275.5" y="-173.3" font-family="Times,serif" font-size="14.00" fill="#0058ad">a 49 58</text>
</g>
<!-- T9159&#45;&gt;T9163 -->
<g id="edge6" class="edge">
<title>T9159:f0&#45;&gt;T9163:f0</title>
<path fill="none" stroke="#c02700" d="M1116.5,-192C1116.5,-249.8472 2110.4146,-208.0367 2156.5,-243 2183.8975,-263.7854 2183.8118,-282.256 2183.555,-313.7804"/>
<polygon fill="#c02700" stroke="#c02700" points="2180.0539,-313.9813 2183.5,-324 2187.0538,-314.019 2180.0539,-313.9813"/>
<text text-anchor="middle" x="2189.5" y="-254.3" font-family="Times,serif" font-size="14.00" fill="#c02700">ww</text>
</g>
<!-- T9159&#45;&gt;T9161 -->
<g id="edge5" class="edge">
<title>T9159:f2&#45;&gt;T9161:f0</title>
<path fill="none" stroke="#c02700" d="M3275.5,-162C3275.5,-148.3521 3275.5,-133.1166 3275.5,-120.7254"/>
<polygon fill="#c02700" stroke="#c02700" points="3279.0001,-120.6796 3275.5,-110.6796 3272.0001,-120.6797 3279.0001,-120.6796"/>
<text text-anchor="middle" x="3285.5" y="-132.8" font-family="Times,serif" font-size="14.00" fill="#c02700">ww</text>
</g>
<!-- T9159&#45;&gt;T9165 -->
<g id="edge7" class="edge">
<title>T9159&#45;&gt;T9165</title>
<path fill="none" stroke="#0050c0" d="M2194.5,-162.3379C2194.5,-134.5069 2194.5,-73.7584 2194.5,-39.5948"/>
<polygon fill="#0050c0" stroke="#0050c0" points="2198.0001,-39.5123 2194.5,-29.5123 2191.0001,-39.5123 2198.0001,-39.5123"/>
<text text-anchor="middle" x="2199" y="-92.3" font-family="Times,serif" font-size="14.00" fill="#0050c0">rt</text>
</g>
<!-- T9171&#45;&gt;T9159 -->
<g id="edge8" class="edge">
<title>T9171:f0&#45;&gt;T9159:f0</title>
<path fill="none" stroke="#5b00c0" d="M1090.0019,-243.4783C1100.044,-233.2578 1111.626,-218.542 1115.3107,-202.2907"/>
<polygon fill="#5b00c0" stroke="#5b00c0" points="1118.8287,-202.3357 1116.5,-192 1111.875,-201.532 1118.8287,-202.3357"/>
<text text-anchor="middle" x="1120" y="-213.8" font-family="Times,serif" font-size="14.00" fill="#5b00c0">rw</text>
</g>
</g>
</svg>
