<?xml version="1.0" encoding="UTF-8" standalone="no"?>
<!DOCTYPE svg PUBLIC "-//W3C//DTD SVG 1.1//EN"
 "http://www.w3.org/Graphics/SVG/1.1/DTD/svg11.dtd">
<!-- Generated by graphviz version 2.40.1 (20161225.0304)
 -->
<!-- Title: a_graph Pages: 1 -->
<svg width="2660pt" height="200pt"
 viewBox="0.00 0.00 2660.00 200.00" xmlns="http://www.w3.org/2000/svg" xmlns:xlink="http://www.w3.org/1999/xlink">
<g id="graph0" class="graph" transform="scale(1 1) rotate(0) translate(4 196)">
<title>a_graph</title>
<polygon fill="#ffffff" stroke="transparent" points="-4,4 -4,-196 2656,-196 2656,4 -4,4"/>
<!-- T16129 -->
<g id="node1" class="node">
<title>T16129</title>
<polygon fill="none" stroke="#0058ad" points="0,-162.5 0,-191.5 2652,-191.5 2652,-162.5 0,-162.5"/>
<text text-anchor="middle" x="25" y="-173.3" font-family="Times,serif" font-size="14.00" fill="#0058ad">a 85 6</text>
<polyline fill="none" stroke="#0058ad" points="50,-162.5 50,-191.5 "/>
<text text-anchor="middle" x="105" y="-173.3" font-family="Times,serif" font-size="14.00" fill="#0058ad">r 85 [1 2 3 4 5 6]</text>
<polyline fill="none" stroke="#0058ad" points="160,-162.5 160,-191.5 "/>
<text text-anchor="middle" x="783" y="-173.3" font-family="Times,serif" font-size="14.00" fill="#0058ad">r 82 [1 2 3 4 5 6 7 8 9 10 11 12 13 14 15 16 17 18 19 20 22 23 24 25 26 27 28 29 30 31 32 33 34 35 36 37 38 39 40 41 42 43 44 45 46 47 48 49 51 54 56 55 58 59 60 61 62 63 64 65 66 67 68 69 70 71 72 73 74 75 76 77 79]</text>
<polyline fill="none" stroke="#0058ad" points="1406,-162.5 1406,-191.5 "/>
<text text-anchor="middle" x="2029" y="-173.3" font-family="Times,serif" font-size="14.00" fill="#0058ad">r 82 [1 2 3 4 5 6 7 8 9 10 11 12 13 14 15 16 17 18 19 20 22 23 24 25 26 27 28 29 30 31 32 33 34 35 36 37 38 39 40 41 42 43 44 45 46 47 48 49 51 54 56 55 58 59 60 61 62 63 64 65 66 67 68 69 70 71 72 73 74 75 76 77 79]</text>
</g>
<!-- T16127 -->
<g id="node3" class="node">
<title>T16127</title>
<polygon fill="none" stroke="#0058ad" points="344,-81.5 344,-110.5 458,-110.5 458,-81.5 344,-81.5"/>
<text text-anchor="middle" x="372.5" y="-92.3" font-family="Times,serif" font-size="14.00" fill="#0058ad">a 80 98</text>
<polyline fill="none" stroke="#0058ad" points="401,-81.5 401,-110.5 "/>
<text text-anchor="middle" x="429.5" y="-92.3" font-family="Times,serif" font-size="14.00" fill="#0058ad">a 82 78</text>
</g>
<!-- T16129&#45;&gt;T16127 -->
<g id="edge1" class="edge">
<title>T16129:f2&#45;&gt;T16127:f1</title>
<path fill="none" stroke="#5b00c0" d="M783,-162C783,-127.5268 530.7957,-99.7898 468.1124,-96.3576"/>
<polygon fill="#5b00c0" stroke="#5b00c0" points="468.1175,-92.8556 458,-96 467.87,-99.8513 468.1175,-92.8556"/>
<text text-anchor="middle" x="765.5" y="-132.8" font-family="Times,serif" font-size="14.00" fill="#5b00c0">rw</text>
</g>
<!-- T16131 -->
<g id="node2" class="node">
<title>T16131</title>
<polygon fill="none" stroke="#0058ad" points="74,-.5 74,-29.5 374,-29.5 374,-.5 74,-.5"/>
<text text-anchor="middle" x="124" y="-11.3" font-family="Times,serif" font-size="14.00" fill="#0058ad">r 85 [1 2 3 4 5]</text>
<polyline fill="none" stroke="#0058ad" points="174,-.5 174,-29.5 "/>
<text text-anchor="middle" x="224" y="-11.3" font-family="Times,serif" font-size="14.00" fill="#0058ad">r 85 [1 2 3 4 5]</text>
<polyline fill="none" stroke="#0058ad" points="274,-.5 274,-29.5 "/>
<text text-anchor="middle" x="324" y="-11.3" font-family="Times,serif" font-size="14.00" fill="#0058ad">r 85 [1 2 3 4 5]</text>
</g>
<!-- T16131&#45;&gt;T16129 -->
<g id="edge2" class="edge">
<title>T16131:f0&#45;&gt;T16129:f0</title>
<path fill="none" stroke="#5b00c0" d="M74,-15C8.4953,-15 23.2714,-85.6888 24.8705,-151.8559"/>
<polygon fill="#5b00c0" stroke="#5b00c0" points="21.3726,-152.0455 25,-162 28.372,-151.9561 21.3726,-152.0455"/>
<text text-anchor="middle" x="30.5" y="-92.3" font-family="Times,serif" font-size="14.00" fill="#5b00c0">rw</text>
</g>
<!-- T16127&#45;&gt;T16131 -->
<g id="edge3" class="edge">
<title>T16127&#45;&gt;T16131</title>
<path fill="none" stroke="#0050c0" d="M368.9466,-81.3315C339.8756,-68.0278 296.8582,-48.3419 265.2351,-33.8703"/>
<polygon fill="#0050c0" stroke="#0050c0" points="266.3644,-30.5381 255.8149,-29.5594 263.4515,-36.9032 266.3644,-30.5381"/>
<text text-anchor="middle" x="332.5" y="-51.8" font-family="Times,serif" font-size="14.00" fill="#0050c0">rt</text>
</g>
</g>
</svg>
