<?xml version="1.0" encoding="UTF-8" standalone="no"?>
<!DOCTYPE svg PUBLIC "-//W3C//DTD SVG 1.1//EN"
 "http://www.w3.org/Graphics/SVG/1.1/DTD/svg11.dtd">
<!-- Generated by graphviz version 2.40.1 (20161225.0304)
 -->
<!-- Title: a_graph Pages: 1 -->
<svg width="3887pt" height="119pt"
 viewBox="0.00 0.00 3887.00 119.00" xmlns="http://www.w3.org/2000/svg" xmlns:xlink="http://www.w3.org/1999/xlink">
<g id="graph0" class="graph" transform="scale(1 1) rotate(0) translate(4 115)">
<title>a_graph</title>
<polygon fill="#ffffff" stroke="transparent" points="-4,4 -4,-115 3883,-115 3883,4 -4,4"/>
<!-- T35573 -->
<g id="node1" class="node">
<title>T35573</title>
<polygon fill="none" stroke="#0058ad" points="1325.5,-81.5 1325.5,-110.5 3179.5,-110.5 3179.5,-81.5 1325.5,-81.5"/>
<text text-anchor="middle" x="1361" y="-92.3" font-family="Times,serif" font-size="14.00" fill="#0058ad">a 177 100</text>
<polyline fill="none" stroke="#0058ad" points="1396.5,-81.5 1396.5,-110.5 "/>
<text text-anchor="middle" x="2288" y="-92.3" font-family="Times,serif" font-size="14.00" fill="#0058ad">r 176 [1 2 4 5 6 7 3 8 9 10 11 12 13 14 15 16 17 18 19 20 21 22 23 24 25 26 27 29 28 33 30 31 35 34 36 37 38 32 39 40 41 42 43 44 47 48 49 50 45 51 52 53 57 55 58 59 62 63 60 65 66 67 68 69 70 71 72 73 74 75 76 77 78 80 79 82 81 83 84 85 87 86 88 90 89 92 93 91 94 95 97 98 96 99 100 103 104 101 102 106 107]</text>
</g>
<!-- T35575 -->
<g id="node2" class="node">
<title>T35575</title>
<polygon fill="none" stroke="#0058ad" points="0,-.5 0,-29.5 3879,-29.5 3879,-.5 0,-.5"/>
<text text-anchor="middle" x="245" y="-11.3" font-family="Times,serif" font-size="14.00" fill="#0058ad">r 146 [1 3 4 5 7 8 9 10 11 12 13 14 15 16 17 18 19 21 22 23 25 26 27 28 29 30 31 32]</text>
<polyline fill="none" stroke="#0058ad" points="490,-.5 490,-29.5 "/>
<text text-anchor="middle" x="525.5" y="-11.3" font-family="Times,serif" font-size="14.00" fill="#0058ad">a 176 108</text>
<polyline fill="none" stroke="#0058ad" points="561,-.5 561,-29.5 "/>
<text text-anchor="middle" x="1464.5" y="-11.3" font-family="Times,serif" font-size="14.00" fill="#0058ad">r 176 [1 2 4 5 6 7 3 8 9 10 11 12 13 14 15 16 17 18 19 20 21 22 23 24 25 26 27 29 28 33 30 31 35 34 36 37 38 32 39 40 41 42 43 44 47 48 49 50 45 51 52 53 57 55 58 59 62 63 60 65 66 67 68 69 70 71 72 73 74 75 76 77 78 80 79 82 81 83 84 85 87 86 88 90 89 92 93 91 94 95 97 98 96 99 100 103 104 101 102 106 107 108]</text>
<polyline fill="none" stroke="#0058ad" points="2368,-.5 2368,-29.5 "/>
<text text-anchor="middle" x="3123.5" y="-11.3" font-family="Times,serif" font-size="14.00" fill="#0058ad">r 177 [1 2 3 5 6 7 4 8 9 10 11 12 13 14 15 16 17 19 20 25 26 27 28 29 30 32 33 34 35 36 37 38 39 41 40 42 43 44 45 48 49 50 51 55 54 57 58 52 53 56 61 59 60 62 63 64 65 67 68 69 70 71 72 73 66 74 75 76 77 78 81 79 80 82 83 85 86 87 84 89 88 93 94 92 95 97 98 99]</text>
</g>
<!-- T35573&#45;&gt;T35575 -->
<g id="edge1" class="edge">
<title>T35573:f1&#45;&gt;T35575:f1</title>
<path fill="none" stroke="#5b00c0" d="M2288.5,-81C2288.5,71.6207 1755.0407,-52.9425 1602.5,-48 1588.3943,-47.543 642.4508,-45.2432 535.3384,-32.4246"/>
<polygon fill="#5b00c0" stroke="#5b00c0" points="536.047,-28.9946 525.5,-30 534.372,-35.7912 536.047,-28.9946"/>
<text text-anchor="middle" x="2290" y="-51.8" font-family="Times,serif" font-size="14.00" fill="#5b00c0">rw</text>
</g>
<!-- T35575&#45;&gt;T35573 -->
<g id="edge2" class="edge">
<title>T35575:f3&#45;&gt;T35573:f0</title>
<path fill="none" stroke="#5b00c0" d="M3123.5,-30C3123.5,-51.3903 1604.8231,-46.3055 1583.5,-48 1487.2332,-55.6502 1369.3673,13.8698 1360.9753,-70.814"/>
<polygon fill="#5b00c0" stroke="#5b00c0" points="1357.4701,-70.8477 1360.5,-81 1364.4624,-71.1741 1357.4701,-70.8477"/>
<text text-anchor="middle" x="1591" y="-51.8" font-family="Times,serif" font-size="14.00" fill="#5b00c0">rw</text>
</g>
</g>
</svg>
