<?xml version="1.0" encoding="UTF-8" standalone="no"?>
<!DOCTYPE svg PUBLIC "-//W3C//DTD SVG 1.1//EN"
 "http://www.w3.org/Graphics/SVG/1.1/DTD/svg11.dtd">
<!-- Generated by graphviz version 2.40.1 (20161225.0304)
 -->
<!-- Title: a_graph Pages: 1 -->
<svg width="2474pt" height="119pt"
 viewBox="0.00 0.00 2473.50 119.00" xmlns="http://www.w3.org/2000/svg" xmlns:xlink="http://www.w3.org/1999/xlink">
<g id="graph0" class="graph" transform="scale(1 1) rotate(0) translate(4 115)">
<title>a_graph</title>
<polygon fill="#ffffff" stroke="transparent" points="-4,4 -4,-115 2469.5,-115 2469.5,4 -4,4"/>
<!-- T26172 -->
<g id="node1" class="node">
<title>T26172</title>
<polygon fill="none" stroke="#0058ad" points="162.5,-81.5 162.5,-110.5 2465.5,-110.5 2465.5,-81.5 162.5,-81.5"/>
<text text-anchor="middle" x="383.5" y="-92.3" font-family="Times,serif" font-size="14.00" fill="#0058ad">r 130 [1 2 3 4 5 6 7 8 10 11 9 12 13 14 15 18 19 20 21 22 23 24 25 26 27 28]</text>
<polyline fill="none" stroke="#0058ad" points="604.5,-81.5 604.5,-110.5 "/>
<text text-anchor="middle" x="1499.5" y="-92.3" font-family="Times,serif" font-size="14.00" fill="#0058ad">r 129 [1 2 3 4 5 7 8 6 9 10 11 13 14 15 16 17 18 12 19 20 21 22 23 24 25 26 28 29 27 30 31 32 33 34 35 36 37 38 39 40 41 42 43 44 45 46 47 48 49 50 51 52 53 54 55 56 57 58 59 60 61 62 63 65 73 74 71 72 76 75 78 79 80 81 83 82 84 77 85 86 87 88 89 90 91 92 95 96 97 98 99 100 101 102 103 93 94 104 105 106 107]</text>
<polyline fill="none" stroke="#0058ad" points="2394.5,-81.5 2394.5,-110.5 "/>
<text text-anchor="middle" x="2430" y="-92.3" font-family="Times,serif" font-size="14.00" fill="#0058ad">a 129 108</text>
</g>
<!-- T26176 -->
<g id="node2" class="node">
<title>T26176</title>
<polygon fill="none" stroke="#0058ad" points="0,-.5 0,-29.5 1950,-29.5 1950,-.5 0,-.5"/>
<text text-anchor="middle" x="895" y="-11.3" font-family="Times,serif" font-size="14.00" fill="#0058ad">r 129 [1 2 3 4 5 7 8 6 9 10 11 13 14 15 16 17 18 12 19 20 21 22 23 24 25 26 28 29 27 30 31 32 33 34 35 36 37 38 39 40 41 42 43 44 45 46 47 48 49 50 51 52 53 54 55 56 57 58 59 60 61 62 63 65 73 74 71 72 76 75 78 79 80 81 83 82 84 77 85 86 87 88 89 90 91 92 95 96 97 98 99 100 101 102 103 93 94 104 105 106 107]</text>
<polyline fill="none" stroke="#0058ad" points="1790,-.5 1790,-29.5 "/>
<text text-anchor="middle" x="1838" y="-11.3" font-family="Times,serif" font-size="14.00" fill="#0058ad">r 131 [1 2 3 4]</text>
<polyline fill="none" stroke="#0058ad" points="1886,-.5 1886,-29.5 "/>
<text text-anchor="middle" x="1918" y="-11.3" font-family="Times,serif" font-size="14.00" fill="#0058ad">a 130 29</text>
</g>
<!-- T26172&#45;&gt;T26176 -->
<g id="edge1" class="edge">
<title>T26172:f0&#45;&gt;T26176:f2</title>
<path fill="none" stroke="#5b00c0" d="M383,-81C383,1.2418 1809.0763,-106.9459 1912.1326,-38.4656"/>
<polygon fill="#5b00c0" stroke="#5b00c0" points="1915.1802,-40.2127 1918,-30 1909.4269,-36.2252 1915.1802,-40.2127"/>
<text text-anchor="middle" x="1882.5" y="-51.8" font-family="Times,serif" font-size="14.00" fill="#5b00c0">rw</text>
</g>
<!-- T26176&#45;&gt;T26172 -->
<g id="edge2" class="edge">
<title>T26176:f0&#45;&gt;T26172:f2</title>
<path fill="none" stroke="#5b00c0" d="M895,-30C895,-43.8773 1880.1337,-47.4485 1894,-48 2009.7489,-52.6038 2405.836,33.0822 2428.9448,-71.0455"/>
<polygon fill="#5b00c0" stroke="#5b00c0" points="2425.4653,-71.4247 2430,-81 2432.4263,-70.6868 2425.4653,-71.4247"/>
<text text-anchor="middle" x="2432.5" y="-51.8" font-family="Times,serif" font-size="14.00" fill="#5b00c0">rw</text>
</g>
</g>
</svg>
