<?xml version="1.0" encoding="UTF-8" standalone="no"?>
<!DOCTYPE svg PUBLIC "-//W3C//DTD SVG 1.1//EN"
 "http://www.w3.org/Graphics/SVG/1.1/DTD/svg11.dtd">
<!-- Generated by graphviz version 2.40.1 (20161225.0304)
 -->
<!-- Title: a_graph Pages: 1 -->
<svg width="3634pt" height="200pt"
 viewBox="0.00 0.00 3634.00 200.00" xmlns="http://www.w3.org/2000/svg" xmlns:xlink="http://www.w3.org/1999/xlink">
<g id="graph0" class="graph" transform="scale(1 1) rotate(0) translate(4 196)">
<title>a_graph</title>
<polygon fill="#ffffff" stroke="transparent" points="-4,4 -4,-196 3630,-196 3630,4 -4,4"/>
<!-- T12215 -->
<g id="node1" class="node">
<title>T12215</title>
<polygon fill="none" stroke="#0058ad" points="2066,-162.5 2066,-191.5 2625,-191.5 2625,-162.5 2066,-162.5"/>
<text text-anchor="middle" x="2098" y="-173.3" font-family="Times,serif" font-size="14.00" fill="#0058ad">a 60 118</text>
<polyline fill="none" stroke="#0058ad" points="2130,-162.5 2130,-191.5 "/>
<text text-anchor="middle" x="2345.5" y="-173.3" font-family="Times,serif" font-size="14.00" fill="#0058ad">r 64 [1 2 3 4 5 6 9 10 11 12 13 14 18 19 15 16 20 21 23 26 27 28 29 24 25]</text>
<polyline fill="none" stroke="#0058ad" points="2561,-162.5 2561,-191.5 "/>
<text text-anchor="middle" x="2593" y="-173.3" font-family="Times,serif" font-size="14.00" fill="#0058ad">a 60 119</text>
</g>
<!-- T12211 -->
<g id="node3" class="node">
<title>T12211</title>
<polygon fill="none" stroke="#0058ad" points="1057,-81.5 1057,-110.5 3626,-110.5 3626,-81.5 1057,-81.5"/>
<text text-anchor="middle" x="2097.5" y="-92.3" font-family="Times,serif" font-size="14.00" fill="#0058ad">r 60 [2 3 4 5 6 7 8 9 10 11 12 13 14 16 17 18 19 20 21 24 25 22 23 26 27 28 29 30 31 32 33 34 35 36 37 38 39 40 41 42 43 44 45 46 47 48 49 50 51 52 53 54 55 56 57 58 59 60 61 62 63 64 65 66 67 68 69 70 71 73 74 75 76 77 78 79 80 81 82 83 84 85 86 87 88 89 90 91 92 93 94 95 96 97 98 99 100 101 102 103 104 105 106 107 108 109 110 111 112 113 114 115 116 117]</text>
<polyline fill="none" stroke="#0058ad" points="3138,-81.5 3138,-110.5 "/>
<text text-anchor="middle" x="3353.5" y="-92.3" font-family="Times,serif" font-size="14.00" fill="#0058ad">r 64 [1 2 3 4 5 6 9 10 11 12 13 14 18 19 15 16 20 21 23 26 27 28 29 24 25]</text>
<polyline fill="none" stroke="#0058ad" points="3569,-81.5 3569,-110.5 "/>
<text text-anchor="middle" x="3597.5" y="-92.3" font-family="Times,serif" font-size="14.00" fill="#0058ad">a 64 30</text>
</g>
<!-- T12215&#45;&gt;T12211 -->
<g id="edge1" class="edge">
<title>T12215:f1&#45;&gt;T12211:f2</title>
<path fill="none" stroke="#5b00c0" d="M2345.5,-162C2345.5,-26.3086 3534.729,-238.9125 3595.1196,-120.908"/>
<polygon fill="#5b00c0" stroke="#5b00c0" points="3598.567,-121.541 3597.5,-111 3591.7607,-119.9057 3598.567,-121.541"/>
<text text-anchor="middle" x="3592" y="-132.8" font-family="Times,serif" font-size="14.00" fill="#5b00c0">rw</text>
</g>
<!-- T12213 -->
<g id="node2" class="node">
<title>T12213</title>
<polygon fill="none" stroke="#0058ad" points="0,-.5 0,-29.5 2081,-29.5 2081,-.5 0,-.5"/>
<text text-anchor="middle" x="1040.5" y="-11.3" font-family="Times,serif" font-size="14.00" fill="#0058ad">r 60 [2 3 4 5 6 7 8 9 10 11 12 13 14 16 17 18 19 20 21 24 25 22 23 26 27 28 29 30 31 32 33 34 35 36 37 38 39 40 41 42 43 44 45 46 47 48 49 50 51 52 53 54 55 56 57 58 59 60 61 62 63 64 65 66 67 68 69 70 71 73 74 75 76 77 78 79 80 81 82 83 84 85 86 87 88 89 90 91 92 93 94 95 96 97 98 99 100 101 102 103 104 105 106 107 108 109 110 111 112 113 114 115 116 117]</text>
</g>
<!-- T12213&#45;&gt;T12215 -->
<g id="edge2" class="edge">
<title>T12213:f0&#45;&gt;T12215:f0</title>
<path fill="none" stroke="#5b00c0" d="M1033.5741,-29.5587C1024.7416,-50.5135 1012.9204,-89.0622 1033.5,-111 1071.3089,-151.3041 1938.1099,-175.1384 2055.214,-176.8955"/>
<polygon fill="#5b00c0" stroke="#5b00c0" points="2055.4649,-180.3981 2065.5,-177 2055.5361,-173.3985 2055.4649,-180.3981"/>
<text text-anchor="middle" x="1041" y="-92.3" font-family="Times,serif" font-size="14.00" fill="#5b00c0">rw</text>
</g>
<!-- T12211&#45;&gt;T12215 -->
<g id="edge4" class="edge">
<title>T12211:f0&#45;&gt;T12215:f0</title>
<path fill="none" stroke="#5b00c0" d="M2097.5,-111C2097.5,-129.7708 2097.5,-136.8832 2097.5,-151.6465"/>
<polygon fill="#5b00c0" stroke="#5b00c0" points="2094.0001,-152 2097.5,-162 2101.0001,-152 2094.0001,-152"/>
<text text-anchor="middle" x="2105" y="-132.8" font-family="Times,serif" font-size="14.00" fill="#5b00c0">rw</text>
</g>
<!-- T12211&#45;&gt;T12213 -->
<g id="edge3" class="edge">
<title>T12211&#45;&gt;T12213</title>
<path fill="none" stroke="#0050c0" d="M2108.532,-81.4955C1875.8336,-67.0077 1519.6788,-44.8336 1283.506,-30.1295"/>
<polygon fill="#0050c0" stroke="#0050c0" points="1283.6024,-26.6288 1273.4042,-29.5006 1283.1673,-33.6153 1283.6024,-26.6288"/>
<text text-anchor="middle" x="1813" y="-51.8" font-family="Times,serif" font-size="14.00" fill="#0050c0">rt</text>
</g>
</g>
</svg>
