<?xml version="1.0" encoding="UTF-8" standalone="no"?>
<!DOCTYPE svg PUBLIC "-//W3C//DTD SVG 1.1//EN"
 "http://www.w3.org/Graphics/SVG/1.1/DTD/svg11.dtd">
<!-- Generated by graphviz version 2.40.1 (20161225.0304)
 -->
<!-- Title: a_graph Pages: 1 -->
<svg width="1014pt" height="119pt"
 viewBox="0.00 0.00 1014.00 119.00" xmlns="http://www.w3.org/2000/svg" xmlns:xlink="http://www.w3.org/1999/xlink">
<g id="graph0" class="graph" transform="scale(1 1) rotate(0) translate(4 115)">
<title>a_graph</title>
<polygon fill="#ffffff" stroke="transparent" points="-4,4 -4,-115 1010,-115 1010,4 -4,4"/>
<!-- T37505 -->
<g id="node1" class="node">
<title>T37505</title>
<polygon fill="none" stroke="#0058ad" points="0,-81.5 0,-110.5 1006,-110.5 1006,-81.5 0,-81.5"/>
<text text-anchor="middle" x="32" y="-92.3" font-family="Times,serif" font-size="14.00" fill="#0058ad">a 187 26</text>
<polyline fill="none" stroke="#0058ad" points="64,-81.5 64,-110.5 "/>
<text text-anchor="middle" x="535" y="-92.3" font-family="Times,serif" font-size="14.00" fill="#0058ad">r 186 [1 2 3 4 5 7 8 9 6 13 10 11 12 14 16 17 18 20 15 19 21 24 25 26 27 30 31 29 33 32 35 36 37 38 39 34 40 42 43 44 45 48 46 55 52 53 54 56 58 59 57 60 61 62 64]</text>
</g>
<!-- T37507 -->
<g id="node2" class="node">
<title>T37507</title>
<polygon fill="none" stroke="#0058ad" points="141,-.5 141,-29.5 585,-29.5 585,-.5 141,-.5"/>
<text text-anchor="middle" x="173" y="-11.3" font-family="Times,serif" font-size="14.00" fill="#0058ad">a 186 65</text>
<polyline fill="none" stroke="#0058ad" points="205,-.5 205,-29.5 "/>
<text text-anchor="middle" x="395" y="-11.3" font-family="Times,serif" font-size="14.00" fill="#0058ad">r 187 [3 1 2 4 5 6 9 10 7 11 12 14 15 16 17 18 20 19 21 23 22 25]</text>
</g>
<!-- T37505&#45;&gt;T37507 -->
<g id="edge1" class="edge">
<title>T37505:f1&#45;&gt;T37507:f0</title>
<path fill="none" stroke="#5b00c0" d="M535,-81C535,77.8283 189.0791,-180.3913 173.5397,-40.2976"/>
<polygon fill="#5b00c0" stroke="#5b00c0" points="177.0187,-39.8031 173,-30 170.0283,-40.1695 177.0187,-39.8031"/>
<text text-anchor="middle" x="538.5" y="-51.8" font-family="Times,serif" font-size="14.00" fill="#5b00c0">rw</text>
</g>
<!-- T37507&#45;&gt;T37505 -->
<g id="edge2" class="edge">
<title>T37507:f1&#45;&gt;T37505:f0</title>
<path fill="none" stroke="#5b00c0" d="M395,-30C395,-56.52 183.1519,-43.597 157,-48 103.9905,-56.9248 40.7608,-27.7428 32.8303,-70.9934"/>
<polygon fill="#5b00c0" stroke="#5b00c0" points="29.3389,-70.7448 32,-81 36.315,-71.3237 29.3389,-70.7448"/>
<text text-anchor="middle" x="164.5" y="-51.8" font-family="Times,serif" font-size="14.00" fill="#5b00c0">rw</text>
</g>
</g>
</svg>
