<?xml version="1.0" encoding="UTF-8" standalone="no"?>
<!DOCTYPE svg PUBLIC "-//W3C//DTD SVG 1.1//EN"
 "http://www.w3.org/Graphics/SVG/1.1/DTD/svg11.dtd">
<!-- Generated by graphviz version 2.40.1 (20161225.0304)
 -->
<!-- Title: a_graph Pages: 1 -->
<svg width="2820pt" height="281pt"
 viewBox="0.00 0.00 2820.00 281.00" xmlns="http://www.w3.org/2000/svg" xmlns:xlink="http://www.w3.org/1999/xlink">
<g id="graph0" class="graph" transform="scale(1 1) rotate(0) translate(4 277)">
<title>a_graph</title>
<polygon fill="#ffffff" stroke="transparent" points="-4,4 -4,-277 2816,-277 2816,4 -4,4"/>
<!-- T17789 -->
<g id="node1" class="node">
<title>T17789</title>
<polygon fill="none" stroke="#0058ad" points="0,-243.5 0,-272.5 2812,-272.5 2812,-243.5 0,-243.5"/>
<text text-anchor="middle" x="371" y="-254.3" font-family="Times,serif" font-size="14.00" fill="#0058ad">r 72 [1 2 3 4 5 6 8 10 11 12 13 14 15 16 17 18 19 20 21 22 23 24 25 26 27 28 29 54 55 56 58 59 60 61 63 64 65 66 67 68 69 70 71]</text>
<polyline fill="none" stroke="#0058ad" points="742,-243.5 742,-272.5 "/>
<text text-anchor="middle" x="774" y="-254.3" font-family="Times,serif" font-size="14.00" fill="#0058ad">a 90 115</text>
<polyline fill="none" stroke="#0058ad" points="806,-243.5 806,-272.5 "/>
<text text-anchor="middle" x="1809" y="-254.3" font-family="Times,serif" font-size="14.00" fill="#0058ad">r 90 [1 2 3 4 5 7 6 8 9 10 11 12 13 14 15 16 17 18 19 20 21 23 24 25 26 22 27 28 29 30 31 32 34 35 33 36 37 38 39 40 41 42 43 45 44 46 48 49 50 51 52 47 53 54 55 57 59 60 66 67 68 69 70 71 72 73 74 76 75 77 78 79 80 81 82 83 84 85 86 87 90 88 89 92 93 91 94 95 96 98 99 97 100 101 102 104 103 107 106 109 110 111 112 113 114 116 117 118 119 115]</text>
</g>
<!-- T17797 -->
<g id="node4" class="node">
<title>T17797</title>
<polygon fill="none" stroke="#0058ad" points="744.5,-162.5 744.5,-191.5 1835.5,-191.5 1835.5,-162.5 744.5,-162.5"/>
<text text-anchor="middle" x="1290" y="-173.3" font-family="Times,serif" font-size="14.00" fill="#0058ad">r 87 [1 2 3 4 5 6 7 8 9 10 11 13 14 15 16 17 18 19 20 21 22 24 25 26 27 28 29 30 31 32 33 34 35 36 37 38 39 40 41 42 43 44 45 46 47 48 49 50 51 52 53 54 55 56 58 57 59 60 61 62 63 64 65 67]</text>
</g>
<!-- T17789&#45;&gt;T17797 -->
<g id="edge1" class="edge">
<title>T17789&#45;&gt;T17797</title>
<path fill="none" stroke="#0050c0" d="M1384.9933,-243.3315C1366.5981,-230.4866 1339.6823,-211.6919 1319.194,-197.3855"/>
<polygon fill="#0050c0" stroke="#0050c0" points="1321.0532,-194.4149 1310.8504,-191.5594 1317.0456,-200.1542 1321.0532,-194.4149"/>
<text text-anchor="middle" x="1362.5" y="-213.8" font-family="Times,serif" font-size="14.00" fill="#0050c0">rt</text>
</g>
<!-- T17775 -->
<g id="node2" class="node">
<title>T17775</title>
<polygon fill="none" stroke="#0058ad" points="855.5,-81.5 855.5,-110.5 1040.5,-110.5 1040.5,-81.5 855.5,-81.5"/>
<text text-anchor="middle" x="887.5" y="-92.3" font-family="Times,serif" font-size="14.00" fill="#0058ad">a 90 112</text>
<polyline fill="none" stroke="#0058ad" points="919.5,-81.5 919.5,-110.5 "/>
<text text-anchor="middle" x="948" y="-92.3" font-family="Times,serif" font-size="14.00" fill="#0058ad">a 87 68</text>
<polyline fill="none" stroke="#0058ad" points="976.5,-81.5 976.5,-110.5 "/>
<text text-anchor="middle" x="1008.5" y="-92.3" font-family="Times,serif" font-size="14.00" fill="#0058ad">a 90 113</text>
</g>
<!-- T17777 -->
<g id="node3" class="node">
<title>T17777</title>
<polygon fill="none" stroke="#0058ad" points="576,-.5 576,-29.5 754,-29.5 754,-.5 576,-.5"/>
<text text-anchor="middle" x="604.5" y="-11.3" font-family="Times,serif" font-size="14.00" fill="#0058ad">a 80 91</text>
<polyline fill="none" stroke="#0058ad" points="633,-.5 633,-29.5 "/>
<text text-anchor="middle" x="661.5" y="-11.3" font-family="Times,serif" font-size="14.00" fill="#0058ad">a 72 71</text>
<polyline fill="none" stroke="#0058ad" points="690,-.5 690,-29.5 "/>
<text text-anchor="middle" x="722" y="-11.3" font-family="Times,serif" font-size="14.00" fill="#0058ad">a 90 114</text>
</g>
<!-- T17775&#45;&gt;T17777 -->
<g id="edge2" class="edge">
<title>T17775:f2&#45;&gt;T17777:f2</title>
<path fill="none" stroke="#c02700" d="M1009,-81C1009,-25.5528 832.7086,-15.9295 764.3619,-15.0687"/>
<polygon fill="#c02700" stroke="#c02700" points="764.023,-11.5665 754,-15 763.9765,-18.5663 764.023,-11.5665"/>
<text text-anchor="middle" x="1011" y="-51.8" font-family="Times,serif" font-size="14.00" fill="#c02700">ww</text>
</g>
<!-- T17777&#45;&gt;T17789 -->
<g id="edge3" class="edge">
<title>T17777:f1&#45;&gt;T17789:f0</title>
<path fill="none" stroke="#c000a5" d="M661,-30C661,-186.3272 383.881,-87.7457 371.4323,-232.6219"/>
<polygon fill="#c000a5" stroke="#c000a5" points="367.9193,-232.863 371,-243 374.9133,-233.1544 367.9193,-232.863"/>
<text text-anchor="middle" x="560.5" y="-132.8" font-family="Times,serif" font-size="14.00" fill="#c000a5">wr</text>
</g>
<!-- T17797&#45;&gt;T17775 -->
<g id="edge4" class="edge">
<title>T17797:f0&#45;&gt;T17775:f1</title>
<path fill="none" stroke="#5b00c0" d="M1036.5183,-162.4835C992.8428,-154.0404 958.6071,-141.0159 950.0622,-121.0292"/>
<polygon fill="#5b00c0" stroke="#5b00c0" points="953.4424,-120.0901 948,-111 946.5858,-121.5 953.4424,-120.0901"/>
<text text-anchor="middle" x="978.5" y="-132.8" font-family="Times,serif" font-size="14.00" fill="#5b00c0">rw</text>
</g>
</g>
</svg>
