<?xml version="1.0" encoding="UTF-8" standalone="no"?>
<!DOCTYPE svg PUBLIC "-//W3C//DTD SVG 1.1//EN"
 "http://www.w3.org/Graphics/SVG/1.1/DTD/svg11.dtd">
<!-- Generated by graphviz version 2.40.1 (20161225.0304)
 -->
<!-- Title: a_graph Pages: 1 -->
<svg width="5528pt" height="200pt"
 viewBox="0.00 0.00 5528.00 200.00" xmlns="http://www.w3.org/2000/svg" xmlns:xlink="http://www.w3.org/1999/xlink">
<g id="graph0" class="graph" transform="scale(1 1) rotate(0) translate(4 196)">
<title>a_graph</title>
<polygon fill="#ffffff" stroke="transparent" points="-4,4 -4,-196 5524,-196 5524,4 -4,4"/>
<!-- T15235 -->
<g id="node1" class="node">
<title>T15235</title>
<polygon fill="none" stroke="#0058ad" points="652.5,-162.5 652.5,-191.5 2443.5,-191.5 2443.5,-162.5 652.5,-162.5"/>
<text text-anchor="middle" x="684.5" y="-173.3" font-family="Times,serif" font-size="14.00" fill="#0058ad">a 78 106</text>
<polyline fill="none" stroke="#0058ad" points="716.5,-162.5 716.5,-191.5 "/>
<text text-anchor="middle" x="1551.5" y="-173.3" font-family="Times,serif" font-size="14.00" fill="#0058ad">r 78 [1 2 3 4 5 6 7 8 9 12 13 10 11 14 15 16 17 20 18 19 21 22 23 24 25 27 26 28 29 30 31 32 33 34 37 38 39 35 36 40 41 42 43 44 45 46 48 49 50 51 52 53 55 54 58 57 61 47 62 63 64 65 66 68 69 67 70 71 72 73 74 75 76 77 78 79 80 81 82 83 84 85 86 87 88 89 93 94 95 96 97 98 100 101 102 106]</text>
<polyline fill="none" stroke="#0058ad" points="2386.5,-162.5 2386.5,-191.5 "/>
<text text-anchor="middle" x="2415" y="-173.3" font-family="Times,serif" font-size="14.00" fill="#0058ad">a 77 77</text>
</g>
<!-- T15245 -->
<g id="node2" class="node">
<title>T15245</title>
<polygon fill="none" stroke="#0058ad" points="1084,-81.5 1084,-110.5 5520,-110.5 5520,-81.5 1084,-81.5"/>
<text text-anchor="middle" x="1116" y="-92.3" font-family="Times,serif" font-size="14.00" fill="#0058ad">a 78 109</text>
<polyline fill="none" stroke="#0058ad" points="1148,-81.5 1148,-110.5 "/>
<text text-anchor="middle" x="1805.5" y="-92.3" font-family="Times,serif" font-size="14.00" fill="#0058ad">r 77 [1 2 3 5 6 4 7 8 9 10 11 12 13 15 14 16 17 18 19 20 21 22 23 24 25 26 27 28 30 31 29 32 33 34 36 35 37 38 39 40 41 42 43 44 45 46 47 48 50 49 51 52 53 54 55 56 57 58 59 60 62 61 63 64 65 66 67 68 69 70 71 72 73 74 75 76 77]</text>
<polyline fill="none" stroke="#0058ad" points="2463,-81.5 2463,-110.5 "/>
<text text-anchor="middle" x="3334" y="-92.3" font-family="Times,serif" font-size="14.00" fill="#0058ad">r 78 [1 2 3 4 5 6 7 8 9 12 13 10 11 14 15 16 17 20 18 19 21 22 23 24 25 27 26 28 29 30 31 32 33 34 37 38 39 35 36 40 41 42 43 44 45 46 48 49 50 51 52 53 55 54 58 57 61 47 62 63 64 65 66 68 69 67 70 71 72 73 74 75 76 77 78 79 80 81 82 83 84 85 86 87 88 89 93 94 95 96 97 98 100 101 102 106 107 108 109]</text>
<polyline fill="none" stroke="#0058ad" points="4205,-81.5 4205,-110.5 "/>
<text text-anchor="middle" x="4862.5" y="-92.3" font-family="Times,serif" font-size="14.00" fill="#0058ad">r 77 [1 2 3 5 6 4 7 8 9 10 11 12 13 15 14 16 17 18 19 20 21 22 23 24 25 26 27 28 30 31 29 32 33 34 36 35 37 38 39 40 41 42 43 44 45 46 47 48 50 49 51 52 53 54 55 56 57 58 59 60 62 61 63 64 65 66 67 68 69 70 71 72 73 74 75 76 77]</text>
</g>
<!-- T15235&#45;&gt;T15245 -->
<g id="edge1" class="edge">
<title>T15235:f2&#45;&gt;T15245:f1</title>
<path fill="none" stroke="#c000a5" d="M2415,-162C2415,-29.5582 1836.7439,-235.6195 1806.2499,-121.0284"/>
<polygon fill="#c000a5" stroke="#c000a5" points="1809.71,-120.4903 1805,-111 1802.7638,-121.3561 1809.71,-120.4903"/>
<text text-anchor="middle" x="2415.5" y="-132.8" font-family="Times,serif" font-size="14.00" fill="#c000a5">wr</text>
</g>
<!-- T15251 -->
<g id="node3" class="node">
<title>T15251</title>
<polygon fill="none" stroke="#0058ad" points="0,-.5 0,-29.5 1646,-29.5 1646,-.5 0,-.5"/>
<text text-anchor="middle" x="823" y="-11.3" font-family="Times,serif" font-size="14.00" fill="#0058ad">r 78 [1 2 3 4 5 6 7 8 9 12 13 10 11 14 15 16 17 20 18 19 21 22 23 24 25 27 26 28 29 30 31 32 33 34 37 38 39 35 36 40 41 42 43 44 45 46 48 49 50 51 52 53 55 54 58 57 61 47 62 63 64 65 66 68 69 67 70 71 72 73 74 75 76 77 78 79 80 81 82 83 84 85 86 87 88 89 93 94 95 96 97 98 100 101 102]</text>
</g>
<!-- T15245&#45;&gt;T15251 -->
<g id="edge2" class="edge">
<title>T15245&#45;&gt;T15251</title>
<path fill="none" stroke="#0050c0" d="M2858.0893,-81.4955C2411.7277,-66.9108 1726.9688,-44.5367 1277.0413,-29.8356"/>
<polygon fill="#0050c0" stroke="#0050c0" points="1276.898,-26.3291 1266.789,-29.5006 1276.6693,-33.3254 1276.898,-26.3291"/>
<text text-anchor="middle" x="2288.5" y="-51.8" font-family="Times,serif" font-size="14.00" fill="#0050c0">rt</text>
</g>
<!-- T15251&#45;&gt;T15235 -->
<g id="edge3" class="edge">
<title>T15251:f0&#45;&gt;T15235:f0</title>
<path fill="none" stroke="#5b00c0" d="M793.181,-29.6453C754.5718,-50.8232 691.3923,-93.8963 684.5975,-151.8026"/>
<polygon fill="#5b00c0" stroke="#5b00c0" points="681.091,-151.8124 684,-162 688.079,-152.2219 681.091,-151.8124"/>
<text text-anchor="middle" x="729.5" y="-92.3" font-family="Times,serif" font-size="14.00" fill="#5b00c0">rw</text>
</g>
</g>
</svg>
