<?xml version="1.0" encoding="UTF-8" standalone="no"?>
<!DOCTYPE svg PUBLIC "-//W3C//DTD SVG 1.1//EN"
 "http://www.w3.org/Graphics/SVG/1.1/DTD/svg11.dtd">
<!-- Generated by graphviz version 2.40.1 (20161225.0304)
 -->
<!-- Title: a_graph Pages: 1 -->
<svg width="413pt" height="362pt"
 viewBox="0.00 0.00 413.00 362.00" xmlns="http://www.w3.org/2000/svg" xmlns:xlink="http://www.w3.org/1999/xlink">
<g id="graph0" class="graph" transform="scale(1 1) rotate(0) translate(4 358)">
<title>a_graph</title>
<polygon fill="#ffffff" stroke="transparent" points="-4,4 -4,-358 409,-358 409,4 -4,4"/>
<!-- T13751 -->
<g id="node1" class="node">
<title>T13751</title>
<polygon fill="none" stroke="#ac6e00" points="0,-324.5 0,-353.5 212,-353.5 212,-324.5 0,-324.5"/>
<text text-anchor="middle" x="28" y="-335.3" font-family="Times,serif" font-size="14.00" fill="#ac6e00">r 72 nil</text>
<polyline fill="none" stroke="#ac6e00" points="56,-324.5 56,-353.5 "/>
<text text-anchor="middle" x="81" y="-335.3" font-family="Times,serif" font-size="14.00" fill="#ac6e00">a 72 8</text>
<polyline fill="none" stroke="#ac6e00" points="106,-324.5 106,-353.5 "/>
<text text-anchor="middle" x="134" y="-335.3" font-family="Times,serif" font-size="14.00" fill="#ac6e00">r 63 nil</text>
<polyline fill="none" stroke="#ac6e00" points="162,-324.5 162,-353.5 "/>
<text text-anchor="middle" x="187" y="-335.3" font-family="Times,serif" font-size="14.00" fill="#ac6e00">a 72 9</text>
</g>
<!-- T13803 -->
<g id="node5" class="node">
<title>T13803</title>
<polygon fill="none" stroke="#0058ad" points="127,-243.5 127,-272.5 405,-272.5 405,-243.5 127,-243.5"/>
<text text-anchor="middle" x="155.5" y="-254.3" font-family="Times,serif" font-size="14.00" fill="#0058ad">a 72 48</text>
<polyline fill="none" stroke="#0058ad" points="184,-243.5 184,-272.5 "/>
<text text-anchor="middle" x="237.5" y="-254.3" font-family="Times,serif" font-size="14.00" fill="#0058ad">r 72 [6 7 8 9 48]</text>
<polyline fill="none" stroke="#0058ad" points="291,-243.5 291,-272.5 "/>
<text text-anchor="middle" x="319.5" y="-254.3" font-family="Times,serif" font-size="14.00" fill="#0058ad">a 72 49</text>
<polyline fill="none" stroke="#0058ad" points="348,-243.5 348,-272.5 "/>
<text text-anchor="middle" x="376.5" y="-254.3" font-family="Times,serif" font-size="14.00" fill="#0058ad">a 72 50</text>
</g>
<!-- T13751&#45;&gt;T13803 -->
<g id="edge1" class="edge">
<title>T13751:f3&#45;&gt;T13803:f0</title>
<path fill="none" stroke="#c02700" d="M187,-324C187,-301.213 163.7949,-299.6566 156.9059,-283.1724"/>
<polygon fill="#c02700" stroke="#c02700" points="160.2818,-282.1844 155,-273 153.4015,-283.4735 160.2818,-282.1844"/>
<text text-anchor="middle" x="189" y="-294.8" font-family="Times,serif" font-size="14.00" fill="#c02700">ww</text>
</g>
<!-- T13749 -->
<g id="node2" class="node">
<title>T13749</title>
<polygon fill="none" stroke="#ac6e00" points="59,-.5 59,-29.5 279,-29.5 279,-.5 59,-.5"/>
<text text-anchor="middle" x="84" y="-11.3" font-family="Times,serif" font-size="14.00" fill="#ac6e00">a 72 6</text>
<polyline fill="none" stroke="#ac6e00" points="109,-.5 109,-29.5 "/>
<text text-anchor="middle" x="134" y="-11.3" font-family="Times,serif" font-size="14.00" fill="#ac6e00">a 72 7</text>
<polyline fill="none" stroke="#ac6e00" points="159,-.5 159,-29.5 "/>
<text text-anchor="middle" x="191" y="-11.3" font-family="Times,serif" font-size="14.00" fill="#ac6e00">a 67 121</text>
<polyline fill="none" stroke="#ac6e00" points="223,-.5 223,-29.5 "/>
<text text-anchor="middle" x="251" y="-11.3" font-family="Times,serif" font-size="14.00" fill="#ac6e00">r 70 nil</text>
</g>
<!-- T13749&#45;&gt;T13751 -->
<g id="edge2" class="edge">
<title>T13749:f1&#45;&gt;T13751:f1</title>
<path fill="none" stroke="#c02700" d="M134,-30C134,-46.7066 111.4741,-34.9844 101,-48 87.068,-65.3126 87,-73.7778 87,-96 87,-258 87,-258 87,-258 87,-283.7725 82.4062,-292.4234 81.2578,-313.9155"/>
<polygon fill="#c02700" stroke="#c02700" points="77.7568,-313.9138 81,-324 84.7545,-314.0927 77.7568,-313.9138"/>
<text text-anchor="middle" x="97" y="-173.3" font-family="Times,serif" font-size="14.00" fill="#c02700">ww</text>
</g>
<!-- T13805 -->
<g id="node3" class="node">
<title>T13805</title>
<polygon fill="none" stroke="#0058ad" points="161,-162.5 161,-191.5 275,-191.5 275,-162.5 161,-162.5"/>
<text text-anchor="middle" x="189.5" y="-173.3" font-family="Times,serif" font-size="14.00" fill="#0058ad">a 73 19</text>
<polyline fill="none" stroke="#0058ad" points="218,-162.5 218,-191.5 "/>
<text text-anchor="middle" x="246.5" y="-173.3" font-family="Times,serif" font-size="14.00" fill="#0058ad">a 69 62</text>
</g>
<!-- T13813 -->
<g id="node4" class="node">
<title>T13813</title>
<polygon fill="none" stroke="#0058ad" points="135,-81.5 135,-110.5 189,-110.5 189,-81.5 135,-81.5"/>
<text text-anchor="middle" x="162" y="-92.3" font-family="Times,serif" font-size="14.00" fill="#0058ad">r 72 []</text>
</g>
<!-- T13805&#45;&gt;T13813 -->
<g id="edge3" class="edge">
<title>T13805&#45;&gt;T13813</title>
<path fill="none" stroke="#0050c0" d="M207.7287,-162.1434C199.4401,-150.1545 187.6305,-133.0727 178.089,-119.2715"/>
<polygon fill="#0050c0" stroke="#0050c0" points="180.772,-116.9977 172.2061,-110.7625 175.014,-120.9785 180.772,-116.9977"/>
<text text-anchor="middle" x="199.5" y="-132.8" font-family="Times,serif" font-size="14.00" fill="#0050c0">rt</text>
</g>
<!-- T13813&#45;&gt;T13749 -->
<g id="edge4" class="edge">
<title>T13813:f0&#45;&gt;T13749:f0</title>
<path fill="none" stroke="#5b00c0" d="M143.1184,-81.2108C126.1658,-67.8094 102.2294,-48.5537 90.7093,-37.7417"/>
<polygon fill="#5b00c0" stroke="#5b00c0" points="93.1942,-35.2648 84,-30 87.9043,-39.8492 93.1942,-35.2648"/>
<text text-anchor="middle" x="126.5" y="-51.8" font-family="Times,serif" font-size="14.00" fill="#5b00c0">rw</text>
</g>
<!-- T13803&#45;&gt;T13805 -->
<g id="edge5" class="edge">
<title>T13803&#45;&gt;T13805</title>
<path fill="none" stroke="#0050c0" d="M257.1961,-243.1434C250.1592,-231.2687 240.1615,-214.3976 232.0247,-200.6667"/>
<polygon fill="#0050c0" stroke="#0050c0" points="234.8572,-198.5811 226.7481,-191.7625 228.8352,-202.1497 234.8572,-198.5811"/>
<text text-anchor="middle" x="250.5" y="-213.8" font-family="Times,serif" font-size="14.00" fill="#0050c0">rt</text>
</g>
</g>
</svg>
