<?xml version="1.0" encoding="UTF-8" standalone="no"?>
<!DOCTYPE svg PUBLIC "-//W3C//DTD SVG 1.1//EN"
 "http://www.w3.org/Graphics/SVG/1.1/DTD/svg11.dtd">
<!-- Generated by graphviz version 2.40.1 (20161225.0304)
 -->
<!-- Title: a_graph Pages: 1 -->
<svg width="1202pt" height="119pt"
 viewBox="0.00 0.00 1202.00 119.00" xmlns="http://www.w3.org/2000/svg" xmlns:xlink="http://www.w3.org/1999/xlink">
<g id="graph0" class="graph" transform="scale(1 1) rotate(0) translate(4 115)">
<title>a_graph</title>
<polygon fill="#ffffff" stroke="transparent" points="-4,4 -4,-115 1198,-115 1198,4 -4,4"/>
<!-- T14073 -->
<g id="node1" class="node">
<title>T14073</title>
<polygon fill="none" stroke="#0058ad" points="223,-81.5 223,-110.5 1194,-110.5 1194,-81.5 223,-81.5"/>
<text text-anchor="middle" x="251.5" y="-92.3" font-family="Times,serif" font-size="14.00" fill="#0058ad">a 74 21</text>
<polyline fill="none" stroke="#0058ad" points="280,-81.5 280,-110.5 "/>
<text text-anchor="middle" x="737" y="-92.3" font-family="Times,serif" font-size="14.00" fill="#0058ad">r 72 [1 2 3 7 8 6 11 5 12 15 18 19 20 21 22 25 23 24 26 27 29 30 31 32 33 34 35 36 37 38 28 39 41 40 42 43 44 46 45 47 48 49 50 51 52 53 54 56 57 55 58 59 60]</text>
</g>
<!-- T14075 -->
<g id="node2" class="node">
<title>T14075</title>
<polygon fill="none" stroke="#0058ad" points="0,-.5 0,-29.5 839,-29.5 839,-.5 0,-.5"/>
<text text-anchor="middle" x="183" y="-11.3" font-family="Times,serif" font-size="14.00" fill="#0058ad">r 74 [1 2 3 4 5 6 7 11 12 8 9 10 16 14 15 13 17 19 20 18 22 23]</text>
<polyline fill="none" stroke="#0058ad" points="366,-.5 366,-29.5 "/>
<text text-anchor="middle" x="549" y="-11.3" font-family="Times,serif" font-size="14.00" fill="#0058ad">r 74 [1 2 3 4 5 6 7 11 12 8 9 10 16 14 15 13 17 19 20 18 22 23]</text>
<polyline fill="none" stroke="#0058ad" points="732,-.5 732,-29.5 "/>
<text text-anchor="middle" x="760.5" y="-11.3" font-family="Times,serif" font-size="14.00" fill="#0058ad">a 72 61</text>
<polyline fill="none" stroke="#0058ad" points="789,-.5 789,-29.5 "/>
<text text-anchor="middle" x="814" y="-11.3" font-family="Times,serif" font-size="14.00" fill="#0058ad">a 73 8</text>
</g>
<!-- T14073&#45;&gt;T14075 -->
<g id="edge1" class="edge">
<title>T14073:f1&#45;&gt;T14075:f2</title>
<path fill="none" stroke="#5b00c0" d="M737.5,-81C737.5,-60.0201 753.874,-55.838 758.9909,-40.1074"/>
<polygon fill="#5b00c0" stroke="#5b00c0" points="762.4848,-40.4072 760.5,-30 755.5616,-39.3735 762.4848,-40.4072"/>
<text text-anchor="middle" x="762" y="-51.8" font-family="Times,serif" font-size="14.00" fill="#5b00c0">rw</text>
</g>
<!-- T14075&#45;&gt;T14073 -->
<g id="edge2" class="edge">
<title>T14075:f0&#45;&gt;T14073:f0</title>
<path fill="none" stroke="#5b00c0" d="M182.5,-30C182.5,-60.5485 187.0213,-89.0345 212.2418,-94.9004"/>
<polygon fill="#5b00c0" stroke="#5b00c0" points="212.1839,-98.4142 222.5,-96 212.93,-91.454 212.1839,-98.4142"/>
<text text-anchor="middle" x="192" y="-51.8" font-family="Times,serif" font-size="14.00" fill="#5b00c0">rw</text>
</g>
</g>
</svg>
