<?xml version="1.0" encoding="UTF-8" standalone="no"?>
<!DOCTYPE svg PUBLIC "-//W3C//DTD SVG 1.1//EN"
 "http://www.w3.org/Graphics/SVG/1.1/DTD/svg11.dtd">
<!-- Generated by graphviz version 2.40.1 (20161225.0304)
 -->
<!-- Title: a_graph Pages: 1 -->
<svg width="6619pt" height="281pt"
 viewBox="0.00 0.00 6619.00 281.00" xmlns="http://www.w3.org/2000/svg" xmlns:xlink="http://www.w3.org/1999/xlink">
<g id="graph0" class="graph" transform="scale(1 1) rotate(0) translate(4 277)">
<title>a_graph</title>
<polygon fill="#ffffff" stroke="transparent" points="-4,4 -4,-277 6615,-277 6615,4 -4,4"/>
<!-- T14367 -->
<g id="node1" class="node">
<title>T14367</title>
<polygon fill="none" stroke="#0058ad" points="3957.5,-243.5 3957.5,-272.5 4021.5,-272.5 4021.5,-243.5 3957.5,-243.5"/>
<text text-anchor="middle" x="3989.5" y="-254.3" font-family="Times,serif" font-size="14.00" fill="#0058ad">a 74 127</text>
</g>
<!-- T14375 -->
<g id="node4" class="node">
<title>T14375</title>
<polygon fill="none" stroke="#0058ad" points="1475.5,-162.5 1475.5,-191.5 4105.5,-191.5 4105.5,-162.5 1475.5,-162.5"/>
<text text-anchor="middle" x="2517.5" y="-173.3" font-family="Times,serif" font-size="14.00" fill="#0058ad">r 74 [1 2 3 4 5 6 7 11 12 8 9 10 16 14 15 13 17 19 20 18 22 23 21 24 25 27 28 29 30 31 32 33 34 35 36 37 26 38 39 40 43 44 41 42 45 46 47 48 49 50 51 52 53 55 56 57 54 58 59 61 62 63 64 65 66 60 67 68 69 71 72 70 73 74 75 76 77 79 80 81 82 83 78 86 88 92 93 89 99 100 97 98 104 105 109 110 111 112 113 115 116 117 118 114 121 119 120 122 123 124 125 126 127]</text>
<polyline fill="none" stroke="#0058ad" points="3559.5,-162.5 3559.5,-191.5 "/>
<text text-anchor="middle" x="3591.5" y="-173.3" font-family="Times,serif" font-size="14.00" fill="#0058ad">a 74 128</text>
<polyline fill="none" stroke="#0058ad" points="3623.5,-162.5 3623.5,-191.5 "/>
<text text-anchor="middle" x="3655.5" y="-173.3" font-family="Times,serif" font-size="14.00" fill="#0058ad">a 67 112</text>
<polyline fill="none" stroke="#0058ad" points="3687.5,-162.5 3687.5,-191.5 "/>
<text text-anchor="middle" x="3896.5" y="-173.3" font-family="Times,serif" font-size="14.00" fill="#0058ad">r 73 [1 2 3 4 5 6 7 8 9 10 11 12 13 14 16 15 17 18 19 20 21 22 24 25 27]</text>
</g>
<!-- T14367&#45;&gt;T14375 -->
<g id="edge1" class="edge">
<title>T14367:f0&#45;&gt;T14375:f1</title>
<path fill="none" stroke="#c02700" d="M3958.9167,-243.4361C3958.443,-243.2851 3957.9706,-243.1396 3957.5,-243 3882.3088,-220.6934 3616.8888,-269.382 3593.1942,-202.2593"/>
<polygon fill="#c02700" stroke="#c02700" points="3596.5826,-201.2961 3591.5,-192 3589.6761,-202.4367 3596.5826,-201.2961"/>
<text text-anchor="middle" x="3627.5" y="-213.8" font-family="Times,serif" font-size="14.00" fill="#c02700">ww</text>
</g>
<!-- T14373 -->
<g id="node2" class="node">
<title>T14373</title>
<polygon fill="none" stroke="#0058ad" points="0,-81.5 0,-110.5 3925,-110.5 3925,-81.5 0,-81.5"/>
<text text-anchor="middle" x="1018" y="-92.3" font-family="Times,serif" font-size="14.00" fill="#0058ad">r 74 [1 2 3 4 5 6 7 11 12 8 9 10 16 14 15 13 17 19 20 18 22 23 21 24 25 27 28 29 30 31 32 33 34 35 36 37 26 38 39 40 43 44 41 42 45 46 47 48 49 50 51 52 53 55 56 57 54 58 59 61 62 63 64 65 66 60 67 68 69 71 72 70 73 74 75 76 77 79 80 81 82 83 78 86 88 92 93 89 99 100 97 98 104 105 109 110 111 112 113 115 116 117 118 114 121 119 120 122 123 124 125]</text>
<polyline fill="none" stroke="#0058ad" points="2036,-81.5 2036,-110.5 "/>
<text text-anchor="middle" x="2184.5" y="-92.3" font-family="Times,serif" font-size="14.00" fill="#0058ad">r 69 [1 3 2 4 5 6 7 8 9 10 11 12 13 14 15 16 17 18]</text>
<polyline fill="none" stroke="#0058ad" points="2333,-81.5 2333,-110.5 "/>
<text text-anchor="middle" x="3100.5" y="-92.3" font-family="Times,serif" font-size="14.00" fill="#0058ad">r 72 [1 2 3 7 8 6 11 5 12 15 18 19 20 21 22 25 23 24 26 27 29 30 31 32 33 34 35 36 37 38 28 39 41 40 42 43 44 46 45 47 48 49 50 51 52 53 54 56 57 55 58 59 60 61 62 64 65 63 66 67 68 69 70 72 71 73 75 76 77 74 78 79 81 80 82 83 84 85 86 88 87 89 91 92 94 95 96 97 98]</text>
<polyline fill="none" stroke="#0058ad" points="3868,-81.5 3868,-110.5 "/>
<text text-anchor="middle" x="3896.5" y="-92.3" font-family="Times,serif" font-size="14.00" fill="#0058ad">a 73 26</text>
</g>
<!-- T14369 -->
<g id="node3" class="node">
<title>T14369</title>
<polygon fill="none" stroke="#0058ad" points="3072,-.5 3072,-29.5 6611,-29.5 6611,-.5 3072,-.5"/>
<text text-anchor="middle" x="3100.5" y="-11.3" font-family="Times,serif" font-size="14.00" fill="#0058ad">a 72 99</text>
<polyline fill="none" stroke="#0058ad" points="3129,-.5 3129,-29.5 "/>
<text text-anchor="middle" x="3161" y="-11.3" font-family="Times,serif" font-size="14.00" fill="#0058ad">a 74 126</text>
<polyline fill="none" stroke="#0058ad" points="3193,-.5 3193,-29.5 "/>
<text text-anchor="middle" x="3969.5" y="-11.3" font-family="Times,serif" font-size="14.00" fill="#0058ad">r 72 [1 2 3 7 8 6 11 5 12 15 18 19 20 21 22 25 23 24 26 27 29 30 31 32 33 34 35 36 37 38 28 39 41 40 42 43 44 46 45 47 48 49 50 51 52 53 54 56 57 55 58 59 60 61 62 64 65 63 66 67 68 69 70 72 71 73 75 76 77 74 78 79 81 80 82 83 84 85 86 88 87 89 91 92 94 95 96 97 98 99]</text>
<polyline fill="none" stroke="#0058ad" points="4746,-.5 4746,-29.5 "/>
<text text-anchor="middle" x="5678.5" y="-11.3" font-family="Times,serif" font-size="14.00" fill="#0058ad">r 67 [1 2 3 4 5 6 7 8 9 11 10 12 13 14 15 16 17 18 21 22 23 24 26 25 27 28 29 30 31 32 33 34 35 36 38 37 39 40 41 42 43 44 45 46 47 48 49 50 51 52 53 54 55 56 57 59 61 62 64 63 65 67 68 69 70 66 71 72 73 74 75 76 77 78 79 80 81 82 83 84 86 85 87 88 89 91 90 92 93 94 95 96 97 98 99 100 101 102 104 103 105 106 107 110 111]</text>
</g>
<!-- T14373&#45;&gt;T14369 -->
<g id="edge2" class="edge">
<title>T14373:f2&#45;&gt;T14369:f0</title>
<path fill="none" stroke="#5b00c0" d="M3100.5,-81C3100.5,-62.2292 3100.5,-55.1168 3100.5,-40.3535"/>
<polygon fill="#5b00c0" stroke="#5b00c0" points="3104.0001,-40 3100.5,-30 3097.0001,-40 3104.0001,-40"/>
<text text-anchor="middle" x="3108" y="-51.8" font-family="Times,serif" font-size="14.00" fill="#5b00c0">rw</text>
</g>
<!-- T14369&#45;&gt;T14367 -->
<g id="edge3" class="edge">
<title>T14369:f1&#45;&gt;T14367:f0</title>
<path fill="none" stroke="#c02700" d="M3160.5,-30C3160.5,-56.4214 4092.7484,-29.3864 4111.5,-48 4176.4349,-112.4572 4132.7268,-161.7648 4114.5,-192 4111.9704,-196.1962 4063.936,-220.8494 4028.1654,-238.7984"/>
<polygon fill="#c02700" stroke="#c02700" points="4026.2868,-235.8246 4018.9108,-243.4303 4029.4198,-242.0844 4026.2868,-235.8246"/>
<text text-anchor="middle" x="4155.5" y="-132.8" font-family="Times,serif" font-size="14.00" fill="#c02700">ww</text>
</g>
<!-- T14369&#45;&gt;T14375 -->
<g id="edge4" class="edge">
<title>T14369:f3&#45;&gt;T14375:f2</title>
<path fill="none" stroke="#5b00c0" d="M5678.5,-30C5678.5,-51.6542 4140.605,-43.1542 4119.5,-48 4021.837,-70.424 4012.4771,-118.7742 3915.5,-144 3890.3209,-150.5496 3700.5161,-136.4852 3662.2217,-154.5614"/>
<polygon fill="#5b00c0" stroke="#5b00c0" points="3659.6077,-152.2339 3655.5,-162 3664.8014,-156.927 3659.6077,-152.2339"/>
<text text-anchor="middle" x="4045" y="-92.3" font-family="Times,serif" font-size="14.00" fill="#5b00c0">rw</text>
</g>
<!-- T14375&#45;&gt;T14373 -->
<g id="edge5" class="edge">
<title>T14375:f3&#45;&gt;T14373:f3</title>
<path fill="none" stroke="#5b00c0" d="M3896.5,-162C3896.5,-143.2292 3896.5,-136.1168 3896.5,-121.3535"/>
<polygon fill="#5b00c0" stroke="#5b00c0" points="3900.0001,-121 3896.5,-111 3893.0001,-121 3900.0001,-121"/>
<text text-anchor="middle" x="3904" y="-132.8" font-family="Times,serif" font-size="14.00" fill="#5b00c0">rw</text>
</g>
</g>
</svg>
