<?xml version="1.0" encoding="UTF-8" standalone="no"?>
<!DOCTYPE svg PUBLIC "-//W3C//DTD SVG 1.1//EN"
 "http://www.w3.org/Graphics/SVG/1.1/DTD/svg11.dtd">
<!-- Generated by graphviz version 2.40.1 (20161225.0304)
 -->
<!-- Title: a_graph Pages: 1 -->
<svg width="1492pt" height="119pt"
 viewBox="0.00 0.00 1492.00 119.00" xmlns="http://www.w3.org/2000/svg" xmlns:xlink="http://www.w3.org/1999/xlink">
<g id="graph0" class="graph" transform="scale(1 1) rotate(0) translate(4 115)">
<title>a_graph</title>
<polygon fill="#ffffff" stroke="transparent" points="-4,4 -4,-115 1488,-115 1488,4 -4,4"/>
<!-- T5915 -->
<g id="node1" class="node">
<title>T5915</title>
<polygon fill="none" stroke="#0058ad" points="178.5,-81.5 178.5,-110.5 991.5,-110.5 991.5,-81.5 178.5,-81.5"/>
<text text-anchor="middle" x="207" y="-92.3" font-family="Times,serif" font-size="14.00" fill="#0058ad">a 31 90</text>
<polyline fill="none" stroke="#0058ad" points="235.5,-81.5 235.5,-110.5 "/>
<text text-anchor="middle" x="267.5" y="-92.3" font-family="Times,serif" font-size="14.00" fill="#0058ad">a 29 103</text>
<polyline fill="none" stroke="#0058ad" points="299.5,-81.5 299.5,-110.5 "/>
<text text-anchor="middle" x="620.5" y="-92.3" font-family="Times,serif" font-size="14.00" fill="#0058ad">r 33 [1 2 3 4 5 6 7 8 9 10 11 12 14 17 18 20 23 25 24 26 27 28 29 30 31 32 33 34 35 36 37 38 41 42 39 40 43 44]</text>
<polyline fill="none" stroke="#0058ad" points="941.5,-81.5 941.5,-110.5 "/>
<text text-anchor="middle" x="966.5" y="-92.3" font-family="Times,serif" font-size="14.00" fill="#0058ad">a 4 57</text>
</g>
<!-- T5917 -->
<g id="node2" class="node">
<title>T5917</title>
<polygon fill="none" stroke="#0058ad" points="0,-.5 0,-29.5 1484,-29.5 1484,-.5 0,-.5"/>
<text text-anchor="middle" x="28.5" y="-11.3" font-family="Times,serif" font-size="14.00" fill="#0058ad">a 33 45</text>
<polyline fill="none" stroke="#0058ad" points="57,-.5 57,-29.5 "/>
<text text-anchor="middle" x="85.5" y="-11.3" font-family="Times,serif" font-size="14.00" fill="#0058ad">a 26 61</text>
<polyline fill="none" stroke="#0058ad" points="114,-.5 114,-29.5 "/>
<text text-anchor="middle" x="799" y="-11.3" font-family="Times,serif" font-size="14.00" fill="#0058ad">r 31 [2 3 4 5 11 6 7 12 13 14 16 15 17 18 19 20 21 22 23 24 26 25 27 28 29 30 31 32 33 34 35 36 37 38 39 40 41 42 43 44 45 46 47 48 49 51 50 52 53 54 55 57 58 59 60 61 62 63 64 66 65 67 68 69 70 71 72 73 76 77 79 81 83 84 85 86 87 88 89]</text>
</g>
<!-- T5915&#45;&gt;T5917 -->
<g id="edge1" class="edge">
<title>T5915:f2&#45;&gt;T5917:f0</title>
<path fill="none" stroke="#5b00c0" d="M621,-81C621,53.5794 454.0891,-59.4767 320,-48 305.5458,-46.7629 84.2595,-46.3424 36.8843,-34.7086"/>
<polygon fill="#5b00c0" stroke="#5b00c0" points="38.4748,-31.5904 28,-30 35.1967,-37.7755 38.4748,-31.5904"/>
<text text-anchor="middle" x="626.5" y="-51.8" font-family="Times,serif" font-size="14.00" fill="#5b00c0">rw</text>
</g>
<!-- T5917&#45;&gt;T5915 -->
<g id="edge2" class="edge">
<title>T5917:f2&#45;&gt;T5915:f0</title>
<path fill="none" stroke="#5b00c0" d="M799,-30C799,-57.6847 328.2027,-42.8565 301,-48 261.2323,-55.5194 215.627,-39.87 208.0822,-70.9398"/>
<polygon fill="#5b00c0" stroke="#5b00c0" points="204.5898,-70.683 207,-81 211.5496,-71.4318 204.5898,-70.683"/>
<text text-anchor="middle" x="308.5" y="-51.8" font-family="Times,serif" font-size="14.00" fill="#5b00c0">rw</text>
</g>
</g>
</svg>
