<?xml version="1.0" encoding="UTF-8" standalone="no"?>
<!DOCTYPE svg PUBLIC "-//W3C//DTD SVG 1.1//EN"
 "http://www.w3.org/Graphics/SVG/1.1/DTD/svg11.dtd">
<!-- Generated by graphviz version 2.40.1 (20161225.0304)
 -->
<!-- Title: a_graph Pages: 1 -->
<svg width="3409pt" height="119pt"
 viewBox="0.00 0.00 3409.00 119.00" xmlns="http://www.w3.org/2000/svg" xmlns:xlink="http://www.w3.org/1999/xlink">
<g id="graph0" class="graph" transform="scale(1 1) rotate(0) translate(4 115)">
<title>a_graph</title>
<polygon fill="#ffffff" stroke="transparent" points="-4,4 -4,-115 3405,-115 3405,4 -4,4"/>
<!-- T7281 -->
<g id="node1" class="node">
<title>T7281</title>
<polygon fill="none" stroke="#0058ad" points="1645,-81.5 1645,-110.5 3401,-110.5 3401,-81.5 1645,-81.5"/>
<text text-anchor="middle" x="1673.5" y="-92.3" font-family="Times,serif" font-size="14.00" fill="#0058ad">a 39 44</text>
<polyline fill="none" stroke="#0058ad" points="1702,-81.5 1702,-110.5 "/>
<text text-anchor="middle" x="2178.5" y="-92.3" font-family="Times,serif" font-size="14.00" fill="#0058ad">r 40 [1 2 4 5 6 3 7 10 12 13 11 14 8 9 15 17 18 20 16 19 22 23 24 25 26 27 28 29 21 30 31 32 33 35 36 37 38 34 39 40 41 42 43 44 47 48 49 45 46 50 51 52 53 55 56 57]</text>
<polyline fill="none" stroke="#0058ad" points="2655,-81.5 2655,-110.5 "/>
<text text-anchor="middle" x="3028" y="-92.3" font-family="Times,serif" font-size="14.00" fill="#0058ad">r 39 [1 4 5 2 3 6 7 8 9 10 11 12 13 14 15 18 19 20 16 17 22 21 24 23 25 26 27 28 30 31 32 29 33 34 36 37 38 40 35 39 41 42 43 44]</text>
</g>
<!-- T7275 -->
<g id="node2" class="node">
<title>T7275</title>
<polygon fill="none" stroke="#0058ad" points="0,-.5 0,-29.5 2122,-29.5 2122,-.5 0,-.5"/>
<text text-anchor="middle" x="28.5" y="-11.3" font-family="Times,serif" font-size="14.00" fill="#0058ad">a 37 75</text>
<polyline fill="none" stroke="#0058ad" points="57,-.5 57,-29.5 "/>
<text text-anchor="middle" x="697" y="-11.3" font-family="Times,serif" font-size="14.00" fill="#0058ad">r 37 [1 2 3 4 5 6 7 8 9 10 11 12 13 14 15 16 17 18 19 21 20 22 23 24 25 26 27 28 29 30 31 32 33 34 35 37 38 36 39 40 41 43 42 44 45 46 47 48 49 51 50 52 53 54 55 58 56 57 59 60 61 62 63 64 65 66 67 68 69 72 70 71 73 74 75]</text>
<polyline fill="none" stroke="#0058ad" points="1337,-.5 1337,-29.5 "/>
<text text-anchor="middle" x="1701" y="-11.3" font-family="Times,serif" font-size="14.00" fill="#0058ad">r 39 [1 4 5 2 3 6 7 8 9 10 11 12 13 14 15 18 19 20 16 17 22 21 24 23 25 26 27 28 30 31 32 29 33 34 36 37 38 40 35 39 41 42 43]</text>
<polyline fill="none" stroke="#0058ad" points="2065,-.5 2065,-29.5 "/>
<text text-anchor="middle" x="2093.5" y="-11.3" font-family="Times,serif" font-size="14.00" fill="#0058ad">a 40 54</text>
</g>
<!-- T7281&#45;&gt;T7275 -->
<g id="edge1" class="edge">
<title>T7281:f1&#45;&gt;T7275:f3</title>
<path fill="none" stroke="#5b00c0" d="M2178,-81C2178,-46.137 2163.6024,-20.2581 2132.2702,-15.7122"/>
<polygon fill="#5b00c0" stroke="#5b00c0" points="2132.2182,-12.2003 2122,-15 2131.7339,-19.1835 2132.2182,-12.2003"/>
<text text-anchor="middle" x="2183.5" y="-51.8" font-family="Times,serif" font-size="14.00" fill="#5b00c0">rw</text>
</g>
<!-- T7275&#45;&gt;T7281 -->
<g id="edge2" class="edge">
<title>T7275:f2&#45;&gt;T7281:f0</title>
<path fill="none" stroke="#5b00c0" d="M1701,-30C1701,-52.0198 1680.6956,-54.769 1674.6677,-71.0678"/>
<polygon fill="#5b00c0" stroke="#5b00c0" points="1671.2043,-70.5585 1673,-81 1678.1076,-71.7176 1671.2043,-70.5585"/>
<text text-anchor="middle" x="1702.5" y="-51.8" font-family="Times,serif" font-size="14.00" fill="#5b00c0">rw</text>
</g>
</g>
</svg>
