<?xml version="1.0" encoding="UTF-8" standalone="no"?>
<!DOCTYPE svg PUBLIC "-//W3C//DTD SVG 1.1//EN"
 "http://www.w3.org/Graphics/SVG/1.1/DTD/svg11.dtd">
<!-- Generated by graphviz version 2.40.1 (20161225.0304)
 -->
<!-- Title: a_graph Pages: 1 -->
<svg width="1930pt" height="119pt"
 viewBox="0.00 0.00 1930.00 119.00" xmlns="http://www.w3.org/2000/svg" xmlns:xlink="http://www.w3.org/1999/xlink">
<g id="graph0" class="graph" transform="scale(1 1) rotate(0) translate(4 115)">
<title>a_graph</title>
<polygon fill="#ffffff" stroke="transparent" points="-4,4 -4,-115 1926,-115 1926,4 -4,4"/>
<!-- T13577 -->
<g id="node1" class="node">
<title>T13577</title>
<polygon fill="none" stroke="#0058ad" points="0,-81.5 0,-110.5 1922,-110.5 1922,-81.5 0,-81.5"/>
<text text-anchor="middle" x="891.5" y="-92.3" font-family="Times,serif" font-size="14.00" fill="#0058ad">r 66 [1 2 3 4 5 6 7 8 9 10 12 11 14 13 16 17 15 18 19 20 21 22 23 24 27 26 28 25 29 30 31 32 33 34 36 35 37 38 39 40 42 44 43 48 49 52 53 57 54 58 59 55 56 60 61 62 63 64 65 67 68 66 70 71 69 72 73 74 75 76 78 77 80 81 82 79 84 83 85 86 87 88 89 90 91 92 93 96 97 94 95 98 99 100 101 102 103 104 105 106 107]</text>
<polyline fill="none" stroke="#0058ad" points="1783,-81.5 1783,-110.5 "/>
<text text-anchor="middle" x="1808" y="-92.3" font-family="Times,serif" font-size="14.00" fill="#0058ad">a 70 4</text>
<polyline fill="none" stroke="#0058ad" points="1833,-81.5 1833,-110.5 "/>
<text text-anchor="middle" x="1877.5" y="-92.3" font-family="Times,serif" font-size="14.00" fill="#0058ad">r 70 [1 2 3 4]</text>
</g>
<!-- T13579 -->
<g id="node2" class="node">
<title>T13579</title>
<polygon fill="none" stroke="#0058ad" points="900.5,-.5 900.5,-29.5 1789.5,-29.5 1789.5,-.5 900.5,-.5"/>
<text text-anchor="middle" x="940" y="-11.3" font-family="Times,serif" font-size="14.00" fill="#0058ad">r 70 [1 2 3]</text>
<polyline fill="none" stroke="#0058ad" points="979.5,-.5 979.5,-29.5 "/>
<text text-anchor="middle" x="1352.5" y="-11.3" font-family="Times,serif" font-size="14.00" fill="#0058ad">r 67 [1 2 3 4 5 6 7 8 9 11 10 12 13 14 15 16 17 18 21 22 23 24 26 25 27 28 29 30 31 32 33 34 35 36 38 37 39 40 41 42 43 44 45 46]</text>
<polyline fill="none" stroke="#0058ad" points="1725.5,-.5 1725.5,-29.5 "/>
<text text-anchor="middle" x="1757.5" y="-11.3" font-family="Times,serif" font-size="14.00" fill="#0058ad">a 66 108</text>
</g>
<!-- T13577&#45;&gt;T13579 -->
<g id="edge1" class="edge">
<title>T13577:f0&#45;&gt;T13579:f2</title>
<path fill="none" stroke="#5b00c0" d="M891,-81C891,-58.3357 1656.1901,-54.5363 1748.8498,-34.1565"/>
<polygon fill="#5b00c0" stroke="#5b00c0" points="1750.3429,-37.3225 1758,-30 1747.4478,-30.9492 1750.3429,-37.3225"/>
<text text-anchor="middle" x="1533.5" y="-51.8" font-family="Times,serif" font-size="14.00" fill="#5b00c0">rw</text>
</g>
<!-- T13579&#45;&gt;T13577 -->
<g id="edge2" class="edge">
<title>T13579:f0&#45;&gt;T13577:f1</title>
<path fill="none" stroke="#5b00c0" d="M940,-30C940,-46.813 1528.2372,-46.7019 1545,-48 1658.8981,-56.82 1799.2134,31.2144 1807.6046,-70.8742"/>
<polygon fill="#5b00c0" stroke="#5b00c0" points="1804.1124,-71.1442 1808,-81 1811.1071,-70.871 1804.1124,-71.1442"/>
<text text-anchor="middle" x="1813.5" y="-51.8" font-family="Times,serif" font-size="14.00" fill="#5b00c0">rw</text>
</g>
</g>
</svg>
