<?xml version="1.0" encoding="UTF-8" standalone="no"?>
<!DOCTYPE svg PUBLIC "-//W3C//DTD SVG 1.1//EN"
 "http://www.w3.org/Graphics/SVG/1.1/DTD/svg11.dtd">
<!-- Generated by graphviz version 2.40.1 (20161225.0304)
 -->
<!-- Title: a_graph Pages: 1 -->
<svg width="4484pt" height="119pt"
 viewBox="0.00 0.00 4484.00 119.00" xmlns="http://www.w3.org/2000/svg" xmlns:xlink="http://www.w3.org/1999/xlink">
<g id="graph0" class="graph" transform="scale(1 1) rotate(0) translate(4 115)">
<title>a_graph</title>
<polygon fill="#ffffff" stroke="transparent" points="-4,4 -4,-115 4480,-115 4480,4 -4,4"/>
<!-- T13351 -->
<g id="node1" class="node">
<title>T13351</title>
<polygon fill="none" stroke="#0058ad" points="1841,-81.5 1841,-110.5 4476,-110.5 4476,-81.5 1841,-81.5"/>
<text text-anchor="middle" x="1869.5" y="-92.3" font-family="Times,serif" font-size="14.00" fill="#0058ad">a 68 67</text>
<polyline fill="none" stroke="#0058ad" points="1898,-81.5 1898,-110.5 "/>
<text text-anchor="middle" x="2124" y="-92.3" font-family="Times,serif" font-size="14.00" fill="#0058ad">r 67 [1 2 3 4 5 6 7 8 9 11 10 12 13 14 15 16 17 18 21 22 23 24 26 25 27 28 29]</text>
<polyline fill="none" stroke="#0058ad" points="2350,-81.5 2350,-110.5 "/>
<text text-anchor="middle" x="2881.5" y="-92.3" font-family="Times,serif" font-size="14.00" fill="#0058ad">r 68 [1 2 5 3 6 8 9 10 11 12 13 15 17 19 14 7 21 22 23 24 25 26 28 29 30 31 32 33 34 35 36 38 39 40 41 42 43 37 45 44 47 48 49 46 50 52 51 54 53 55 56 57 58 59 60 62 61 65 66 63 64 67]</text>
<polyline fill="none" stroke="#0058ad" points="3413,-81.5 3413,-110.5 "/>
<text text-anchor="middle" x="3944.5" y="-92.3" font-family="Times,serif" font-size="14.00" fill="#0058ad">r 68 [1 2 5 3 6 8 9 10 11 12 13 15 17 19 14 7 21 22 23 24 25 26 28 29 30 31 32 33 34 35 36 38 39 40 41 42 43 37 45 44 47 48 49 46 50 52 51 54 53 55 56 57 58 59 60 62 61 65 66 63 64 67]</text>
</g>
<!-- T13349 -->
<g id="node2" class="node">
<title>T13349</title>
<polygon fill="none" stroke="#0058ad" points="0,-.5 0,-29.5 2601,-29.5 2601,-.5 0,-.5"/>
<text text-anchor="middle" x="523" y="-11.3" font-family="Times,serif" font-size="14.00" fill="#0058ad">r 68 [1 2 5 3 6 8 9 10 11 12 13 15 17 19 14 7 21 22 23 24 25 26 28 29 30 31 32 33 34 35 36 38 39 40 41 42 43 37 45 44 47 48 49 46 50 52 51 54 53 55 56 57 58 59 60 62 61 65 66 63 64]</text>
<polyline fill="none" stroke="#0058ad" points="1046,-.5 1046,-29.5 "/>
<text text-anchor="middle" x="1272" y="-11.3" font-family="Times,serif" font-size="14.00" fill="#0058ad">r 67 [1 2 3 4 5 6 7 8 9 11 10 12 13 14 15 16 17 18 21 22 23 24 26 25 27 28 29]</text>
<polyline fill="none" stroke="#0058ad" points="1498,-.5 1498,-29.5 "/>
<text text-anchor="middle" x="2021" y="-11.3" font-family="Times,serif" font-size="14.00" fill="#0058ad">r 68 [1 2 5 3 6 8 9 10 11 12 13 15 17 19 14 7 21 22 23 24 25 26 28 29 30 31 32 33 34 35 36 38 39 40 41 42 43 37 45 44 47 48 49 46 50 52 51 54 53 55 56 57 58 59 60 62 61 65 66 63 64]</text>
<polyline fill="none" stroke="#0058ad" points="2544,-.5 2544,-29.5 "/>
<text text-anchor="middle" x="2572.5" y="-11.3" font-family="Times,serif" font-size="14.00" fill="#0058ad">a 67 30</text>
</g>
<!-- T13351&#45;&gt;T13349 -->
<g id="edge1" class="edge">
<title>T13351:f1&#45;&gt;T13349:f3</title>
<path fill="none" stroke="#5b00c0" d="M2123.5,-81C2123.5,116.3084 2556.8536,-218.6806 2572.0887,-40.0859"/>
<polygon fill="#5b00c0" stroke="#5b00c0" points="2575.5895,-40.1343 2572.5,-30 2568.5953,-39.849 2575.5895,-40.1343"/>
<text text-anchor="middle" x="2577" y="-51.8" font-family="Times,serif" font-size="14.00" fill="#5b00c0">rw</text>
</g>
<!-- T13349&#45;&gt;T13351 -->
<g id="edge2" class="edge">
<title>T13349:f0&#45;&gt;T13351:f0</title>
<path fill="none" stroke="#5b00c0" d="M522.5,-30C522.5,-65.1893 1703.2896,-93.6385 1830.2728,-95.8603"/>
<polygon fill="#5b00c0" stroke="#5b00c0" points="1830.4531,-99.363 1840.5,-96 1830.5488,-92.3636 1830.4531,-99.363"/>
<text text-anchor="middle" x="840" y="-51.8" font-family="Times,serif" font-size="14.00" fill="#5b00c0">rw</text>
</g>
</g>
</svg>
