<?xml version="1.0" encoding="UTF-8" standalone="no"?>
<!DOCTYPE svg PUBLIC "-//W3C//DTD SVG 1.1//EN"
 "http://www.w3.org/Graphics/SVG/1.1/DTD/svg11.dtd">
<!-- Generated by graphviz version 2.40.1 (20161225.0304)
 -->
<!-- Title: a_graph Pages: 1 -->
<svg width="2420pt" height="119pt"
 viewBox="0.00 0.00 2419.50 119.00" xmlns="http://www.w3.org/2000/svg" xmlns:xlink="http://www.w3.org/1999/xlink">
<g id="graph0" class="graph" transform="scale(1 1) rotate(0) translate(4 115)">
<title>a_graph</title>
<polygon fill="#ffffff" stroke="transparent" points="-4,4 -4,-115 2415.5,-115 2415.5,4 -4,4"/>
<!-- T4161 -->
<g id="node1" class="node">
<title>T4161</title>
<polygon fill="none" stroke="#0058ad" points="0,-81.5 0,-110.5 2003,-110.5 2003,-81.5 0,-81.5"/>
<text text-anchor="middle" x="948" y="-92.3" font-family="Times,serif" font-size="14.00" fill="#0058ad">r 23 [1 2 3 4 5 6 7 8 9 11 12 13 14 15 16 17 18 19 20 21 22 23 25 26 27 29 30 31 32 33 34 35 37 36 38 40 41 42 39 44 43 45 46 47 48 49 50 51 52 53 54 55 56 57 58 59 60 61 62 63 64 65 66 67 68 69 70 71 72 73 74 75 76 77 79 80 81 82 83 84 85 86 87 88 89 91 90 92 93 94 95 97 98 99 100 101 104 105 106 108 107 109 110 111 112 113]</text>
<polyline fill="none" stroke="#0058ad" points="1896,-81.5 1896,-110.5 "/>
<text text-anchor="middle" x="1924.5" y="-92.3" font-family="Times,serif" font-size="14.00" fill="#0058ad">a 25 33</text>
<polyline fill="none" stroke="#0058ad" points="1953,-81.5 1953,-110.5 "/>
<text text-anchor="middle" x="1978" y="-92.3" font-family="Times,serif" font-size="14.00" fill="#0058ad">a 5 88</text>
</g>
<!-- T4163 -->
<g id="node2" class="node">
<title>T4163</title>
<polygon fill="none" stroke="#0058ad" points="1457.5,-.5 1457.5,-29.5 2411.5,-29.5 2411.5,-.5 1457.5,-.5"/>
<text text-anchor="middle" x="1489.5" y="-11.3" font-family="Times,serif" font-size="14.00" fill="#0058ad">a 23 114</text>
<polyline fill="none" stroke="#0058ad" points="1521.5,-.5 1521.5,-29.5 "/>
<text text-anchor="middle" x="1744" y="-11.3" font-family="Times,serif" font-size="14.00" fill="#0058ad">r 25 [1 4 5 7 10 12 13 9 14 16 18 19 17 20 21 22 23 24 25 26 27 28 29 30 31]</text>
<polyline fill="none" stroke="#0058ad" points="1966.5,-.5 1966.5,-29.5 "/>
<text text-anchor="middle" x="2189" y="-11.3" font-family="Times,serif" font-size="14.00" fill="#0058ad">r 25 [1 4 5 7 10 12 13 9 14 16 18 19 17 20 21 22 23 24 25 26 27 28 29 30 31]</text>
</g>
<!-- T4161&#45;&gt;T4163 -->
<g id="edge1" class="edge">
<title>T4161:f0&#45;&gt;T4163:f0</title>
<path fill="none" stroke="#5b00c0" d="M947.5,-81C947.5,-26.4276 1360.5879,-15.8935 1447.4809,-15.0572"/>
<polygon fill="#5b00c0" stroke="#5b00c0" points="1447.5202,-18.5571 1457.5,-15 1447.4801,-11.5573 1447.5202,-18.5571"/>
<text text-anchor="middle" x="1012" y="-51.8" font-family="Times,serif" font-size="14.00" fill="#5b00c0">rw</text>
</g>
<!-- T4163&#45;&gt;T4161 -->
<g id="edge2" class="edge">
<title>T4163:f1&#45;&gt;T4161:f1</title>
<path fill="none" stroke="#5b00c0" d="M1743.5,-30C1743.5,-109.8224 1908.6035,-7.4558 1923.4371,-70.9097"/>
<polygon fill="#5b00c0" stroke="#5b00c0" points="1919.9715,-71.4217 1924.5,-81 1926.933,-70.6883 1919.9715,-71.4217"/>
<text text-anchor="middle" x="1926" y="-51.8" font-family="Times,serif" font-size="14.00" fill="#5b00c0">rw</text>
</g>
</g>
</svg>
