<?xml version="1.0" encoding="UTF-8" standalone="no"?>
<!DOCTYPE svg PUBLIC "-//W3C//DTD SVG 1.1//EN"
 "http://www.w3.org/Graphics/SVG/1.1/DTD/svg11.dtd">
<!-- Generated by graphviz version 2.40.1 (20161225.0304)
 -->
<!-- Title: a_graph Pages: 1 -->
<svg width="3844pt" height="119pt"
 viewBox="0.00 0.00 3844.00 119.00" xmlns="http://www.w3.org/2000/svg" xmlns:xlink="http://www.w3.org/1999/xlink">
<g id="graph0" class="graph" transform="scale(1 1) rotate(0) translate(4 115)">
<title>a_graph</title>
<polygon fill="#ffffff" stroke="transparent" points="-4,4 -4,-115 3840,-115 3840,4 -4,4"/>
<!-- T11041 -->
<g id="node1" class="node">
<title>T11041</title>
<polygon fill="none" stroke="#0058ad" points="273.5,-81.5 273.5,-110.5 3512.5,-110.5 3512.5,-81.5 273.5,-81.5"/>
<text text-anchor="middle" x="302" y="-92.3" font-family="Times,serif" font-size="14.00" fill="#0058ad">a 56 24</text>
<polyline fill="none" stroke="#0058ad" points="330.5,-81.5 330.5,-110.5 "/>
<text text-anchor="middle" x="1266" y="-92.3" font-family="Times,serif" font-size="14.00" fill="#0058ad">r 57 [2 1 3 4 5 6 7 8 10 9 11 12 13 14 15 16 17 18 19 20 21 22 23 24 25 26 27 28 29 31 32 30 33 34 35 36 37 38 39 42 43 44 40 41 45 47 48 49 50 51 53 54 52 55 56 57 58 46 60 61 62 63 66 64 69 70 71 73 74 77 80 81 82 83 84 87 88 89 91 92 93 95 94 96 97 98 100 101 102 103 99 104 105 107 106 109 110 111 108 112 113 114 115]</text>
<polyline fill="none" stroke="#0058ad" points="2201.5,-81.5 2201.5,-110.5 "/>
<text text-anchor="middle" x="2825" y="-92.3" font-family="Times,serif" font-size="14.00" fill="#0058ad">r 52 [30 35 36 37 38 39 40 41 43 44 42 46 45 47 48 49 50 51 52 53 54 55 57 58 60 59 61 62 63 64 65 66 67 68 69 70 71 72 73 74 75 77 76 78 79 80 81 82 83 84 85 86 87 88 89 90 91 92 93 95 94 96 97 99 100 101 102 103]</text>
<polyline fill="none" stroke="#0058ad" points="3448.5,-81.5 3448.5,-110.5 "/>
<text text-anchor="middle" x="3480.5" y="-92.3" font-family="Times,serif" font-size="14.00" fill="#0058ad">a 55 110</text>
</g>
<!-- T11039 -->
<g id="node2" class="node">
<title>T11039</title>
<polygon fill="none" stroke="#0058ad" points="0,-.5 0,-29.5 3836,-29.5 3836,-.5 0,-.5"/>
<text text-anchor="middle" x="943" y="-11.3" font-family="Times,serif" font-size="14.00" fill="#0058ad">r 55 [2 3 4 5 8 10 9 11 12 14 13 15 16 17 18 19 20 21 22 23 25 24 26 27 28 29 30 31 32 33 34 35 36 37 38 39 40 41 42 43 44 45 46 47 48 49 50 51 52 53 54 55 57 58 59 60 56 61 62 63 64 65 66 67 69 70 68 71 73 72 74 75 76 77 78 79 80 81 82 83 84 85 86 87 88 89 90 92 93 94 95 96 97 98 99 100 101 102 103 104 105 106 107 108 109]</text>
<polyline fill="none" stroke="#0058ad" points="1886,-.5 1886,-29.5 "/>
<text text-anchor="middle" x="2829" y="-11.3" font-family="Times,serif" font-size="14.00" fill="#0058ad">r 55 [2 3 4 5 8 10 9 11 12 14 13 15 16 17 18 19 20 21 22 23 25 24 26 27 28 29 30 31 32 33 34 35 36 37 38 39 40 41 42 43 44 45 46 47 48 49 50 51 52 53 54 55 57 58 59 60 56 61 62 63 64 65 66 67 69 70 68 71 73 72 74 75 76 77 78 79 80 81 82 83 84 85 86 87 88 89 90 92 93 94 95 96 97 98 99 100 101 102 103 104 105 106 107 108 109]</text>
<polyline fill="none" stroke="#0058ad" points="3772,-.5 3772,-29.5 "/>
<text text-anchor="middle" x="3804" y="-11.3" font-family="Times,serif" font-size="14.00" fill="#0058ad">a 57 116</text>
</g>
<!-- T11041&#45;&gt;T11039 -->
<g id="edge1" class="edge">
<title>T11041:f1&#45;&gt;T11039:f2</title>
<path fill="none" stroke="#5b00c0" d="M1266,-81C1266,9.7407 2808.2775,-49.8189 2899,-48 2910.7838,-47.7637 3695.8831,-43.1997 3793.9745,-32.2712"/>
<polygon fill="#5b00c0" stroke="#5b00c0" points="3795.0204,-35.623 3804,-30 3793.4738,-28.796 3795.0204,-35.623"/>
<text text-anchor="middle" x="2906.5" y="-51.8" font-family="Times,serif" font-size="14.00" fill="#5b00c0">rw</text>
</g>
<!-- T11039&#45;&gt;T11041 -->
<g id="edge2" class="edge">
<title>T11039:f0&#45;&gt;T11041:f3</title>
<path fill="none" stroke="#5b00c0" d="M943,-30C943,-43.6881 2900.3197,-47.5397 2914,-48 3036.5695,-52.124 3456.2819,39.7747 3479.9564,-70.8076"/>
<polygon fill="#5b00c0" stroke="#5b00c0" points="3476.4995,-71.4085 3481,-81 3483.4631,-70.6955 3476.4995,-71.4085"/>
<text text-anchor="middle" x="3483.5" y="-51.8" font-family="Times,serif" font-size="14.00" fill="#5b00c0">rw</text>
</g>
</g>
</svg>
