<?xml version="1.0" encoding="UTF-8" standalone="no"?>
<!DOCTYPE svg PUBLIC "-//W3C//DTD SVG 1.1//EN"
 "http://www.w3.org/Graphics/SVG/1.1/DTD/svg11.dtd">
<!-- Generated by graphviz version 2.40.1 (20161225.0304)
 -->
<!-- Title: a_graph Pages: 1 -->
<svg width="3408pt" height="119pt"
 viewBox="0.00 0.00 3408.00 119.00" xmlns="http://www.w3.org/2000/svg" xmlns:xlink="http://www.w3.org/1999/xlink">
<g id="graph0" class="graph" transform="scale(1 1) rotate(0) translate(4 115)">
<title>a_graph</title>
<polygon fill="#ffffff" stroke="transparent" points="-4,4 -4,-115 3404,-115 3404,4 -4,4"/>
<!-- T5701 -->
<g id="node1" class="node">
<title>T5701</title>
<polygon fill="none" stroke="#0058ad" points="108.5,-81.5 108.5,-110.5 2459.5,-110.5 2459.5,-81.5 108.5,-81.5"/>
<text text-anchor="middle" x="612" y="-92.3" font-family="Times,serif" font-size="14.00" fill="#0058ad">r 31 [2 3 4 5 11 6 7 12 13 14 16 15 17 18 19 20 21 22 23 24 26 25 27 28 29 30 31 32 33 34 35 36 37 38 39 40 41 42 43 44 45 46 47 48 49 51 50 52 53 54 55 57 58 59 60 61 62 63]</text>
<polyline fill="none" stroke="#0058ad" points="1115.5,-81.5 1115.5,-110.5 "/>
<text text-anchor="middle" x="1755.5" y="-92.3" font-family="Times,serif" font-size="14.00" fill="#0058ad">r 29 [1 2 3 4 5 6 7 8 9 10 11 12 13 14 15 16 17 19 20 18 21 22 23 24 25 26 27 28 29 32 31 34 35 37 36 38 39 40 41 42 43 44 45 46 47 48 50 49 51 52 54 53 55 56 58 59 57 60 61 62 63 65 64 66 67 68 69 70 71 72 73 74 77 75 78]</text>
<polyline fill="none" stroke="#0058ad" points="2395.5,-81.5 2395.5,-110.5 "/>
<text text-anchor="middle" x="2427.5" y="-92.3" font-family="Times,serif" font-size="14.00" fill="#0058ad">a 32 113</text>
</g>
<!-- T5699 -->
<g id="node2" class="node">
<title>T5699</title>
<polygon fill="none" stroke="#0058ad" points="0,-.5 0,-29.5 3400,-29.5 3400,-.5 0,-.5"/>
<text text-anchor="middle" x="1003" y="-11.3" font-family="Times,serif" font-size="14.00" fill="#0058ad">r 32 [1 3 4 2 5 6 7 8 9 10 11 12 13 14 15 17 18 19 20 16 21 22 23 24 25 26 27 28 29 30 31 32 37 38 39 34 35 36 33 41 42 43 40 44 45 47 48 49 46 51 50 52 53 54 55 56 57 58 59 60 61 62 64 65 66 63 67 68 69 70 71 72 73 74 75 76 77 79 78 81 82 83 84 80 85 86 87 89 88 90 91 92 93 94 95 96 97 98 101 102 99 103 104 107 108 109 111 110 112 114 115 116]</text>
<polyline fill="none" stroke="#0058ad" points="2006,-.5 2006,-29.5 "/>
<text text-anchor="middle" x="2034.5" y="-11.3" font-family="Times,serif" font-size="14.00" fill="#0058ad">a 31 64</text>
<polyline fill="none" stroke="#0058ad" points="2063,-.5 2063,-29.5 "/>
<text text-anchor="middle" x="2091.5" y="-11.3" font-family="Times,serif" font-size="14.00" fill="#0058ad">a 26 55</text>
<polyline fill="none" stroke="#0058ad" points="2120,-.5 2120,-29.5 "/>
<text text-anchor="middle" x="2760" y="-11.3" font-family="Times,serif" font-size="14.00" fill="#0058ad">r 29 [1 2 3 4 5 6 7 8 9 10 11 12 13 14 15 16 17 19 20 18 21 22 23 24 25 26 27 28 29 32 31 34 35 37 36 38 39 40 41 42 43 44 45 46 47 48 50 49 51 52 54 53 55 56 58 59 57 60 61 62 63 65 64 66 67 68 69 70 71 72 73 74 77 75 78]</text>
</g>
<!-- T5701&#45;&gt;T5699 -->
<g id="edge1" class="edge">
<title>T5701:f0&#45;&gt;T5699:f1</title>
<path fill="none" stroke="#5b00c0" d="M612,-81C612,-43.2623 1907.3708,-67.1156 2026.2818,-35.0318"/>
<polygon fill="#5b00c0" stroke="#5b00c0" points="2028.0886,-38.0301 2035,-30 2024.5894,-31.9675 2028.0886,-38.0301"/>
<text text-anchor="middle" x="1836.5" y="-51.8" font-family="Times,serif" font-size="14.00" fill="#5b00c0">rw</text>
</g>
<!-- T5699&#45;&gt;T5701 -->
<g id="edge2" class="edge">
<title>T5699:f0&#45;&gt;T5701:f2</title>
<path fill="none" stroke="#5b00c0" d="M1003,-30C1003,-41.7388 1836.2702,-47.5415 1848,-48 1973.4715,-52.9043 2403.5766,42.6457 2427.0042,-70.9195"/>
<polygon fill="#5b00c0" stroke="#5b00c0" points="2423.5338,-71.3925 2428,-81 2430.4999,-70.7043 2423.5338,-71.3925"/>
<text text-anchor="middle" x="2430.5" y="-51.8" font-family="Times,serif" font-size="14.00" fill="#5b00c0">rw</text>
</g>
</g>
</svg>
