<?xml version="1.0" encoding="UTF-8" standalone="no"?>
<!DOCTYPE svg PUBLIC "-//W3C//DTD SVG 1.1//EN"
 "http://www.w3.org/Graphics/SVG/1.1/DTD/svg11.dtd">
<!-- Generated by graphviz version 2.40.1 (20161225.0304)
 -->
<!-- Title: a_graph Pages: 1 -->
<svg width="2722pt" height="200pt"
 viewBox="0.00 0.00 2721.60 200.00" xmlns="http://www.w3.org/2000/svg" xmlns:xlink="http://www.w3.org/1999/xlink">
<g id="graph0" class="graph" transform="scale(1 1) rotate(0) translate(4 196)">
<title>a_graph</title>
<polygon fill="#ffffff" stroke="transparent" points="-4,4 -4,-196 2717.6011,-196 2717.6011,4 -4,4"/>
<!-- T5665 -->
<g id="node1" class="node">
<title>T5665</title>
<polygon fill="none" stroke="#0058ad" points="3.6011,-162.5 3.6011,-191.5 2713.6011,-191.5 2713.6011,-162.5 3.6011,-162.5"/>
<text text-anchor="middle" x="447.1011" y="-173.3" font-family="Times,serif" font-size="14.00" fill="#0058ad">r 31 [2 3 4 5 11 6 7 12 13 14 16 15 17 18 19 20 21 22 23 24 26 25 27 28 29 30 31 32 33 34 35 36 37 38 39 40 41 42 43 44 45 46 47 48 49 51 50 52 53 54 55]</text>
<polyline fill="none" stroke="#0058ad" points="890.6011,-162.5 890.6011,-191.5 "/>
<text text-anchor="middle" x="1773.6011" y="-173.3" font-family="Times,serif" font-size="14.00" fill="#0058ad">r 32 [1 3 4 2 5 6 7 8 9 10 11 12 13 14 15 17 18 19 20 16 21 22 23 24 25 26 27 28 29 30 31 32 37 38 39 34 35 36 33 41 42 43 40 44 45 47 48 49 46 51 50 52 53 54 55 56 57 58 59 60 61 62 64 65 66 63 67 68 69 70 71 72 73 74 75 76 77 79 78 81 82 83 84 80 85 86 87 89 88 90 91 92 93 94 95 96 97 98 101 102 99 103]</text>
<polyline fill="none" stroke="#0058ad" points="2656.6011,-162.5 2656.6011,-191.5 "/>
<text text-anchor="middle" x="2685.1011" y="-173.3" font-family="Times,serif" font-size="14.00" fill="#0058ad">a 29 73</text>
</g>
<!-- T5661 -->
<g id="node2" class="node">
<title>T5661</title>
<polygon fill="none" stroke="#0058ad" points="15.6011,-81.5 15.6011,-110.5 1871.6011,-110.5 1871.6011,-81.5 15.6011,-81.5"/>
<text text-anchor="middle" x="44.1011" y="-92.3" font-family="Times,serif" font-size="14.00" fill="#0058ad">a 31 57</text>
<polyline fill="none" stroke="#0058ad" points="72.6011,-81.5 72.6011,-110.5 "/>
<text text-anchor="middle" x="101.1011" y="-92.3" font-family="Times,serif" font-size="14.00" fill="#0058ad">a 31 58</text>
<polyline fill="none" stroke="#0058ad" points="129.6011,-81.5 129.6011,-110.5 "/>
<text text-anchor="middle" x="1000.6011" y="-92.3" font-family="Times,serif" font-size="14.00" fill="#0058ad">r 32 [1 3 4 2 5 6 7 8 9 10 11 12 13 14 15 17 18 19 20 16 21 22 23 24 25 26 27 28 29 30 31 32 37 38 39 34 35 36 33 41 42 43 40 44 45 47 48 49 46 51 50 52 53 54 55 56 57 58 59 60 61 62 64 65 66 63 67 68 69 70 71 72 73 74 75 76 77 79 78 81 82 83 84 80 85 86 87 89 88 90 91 92 93 94 95 96 97 98 101 102 99]</text>
</g>
<!-- T5665&#45;&gt;T5661 -->
<g id="edge1" class="edge">
<title>T5665:f0&#45;&gt;T5661:f0</title>
<path fill="none" stroke="#5b00c0" d="M3.6011,-177C-3.0656,-177 1.4247,-168.3014 3.6011,-162 11.6827,-138.6005 35.4151,-139.0286 41.93,-121.329"/>
<polygon fill="#5b00c0" stroke="#5b00c0" points="45.4589,-121.4307 43.6011,-111 38.5488,-120.3126 45.4589,-121.4307"/>
<text text-anchor="middle" x="45.1011" y="-132.8" font-family="Times,serif" font-size="14.00" fill="#5b00c0">rw</text>
</g>
<!-- T5655 -->
<g id="node3" class="node">
<title>T5655</title>
<polygon fill="none" stroke="#0058ad" points="1422.6011,-.5 1422.6011,-29.5 1486.6011,-29.5 1486.6011,-.5 1422.6011,-.5"/>
<text text-anchor="middle" x="1454.6011" y="-11.3" font-family="Times,serif" font-size="14.00" fill="#0058ad">a 32 103</text>
</g>
<!-- T5661&#45;&gt;T5655 -->
<g id="edge2" class="edge">
<title>T5661:f2&#45;&gt;T5655:f0</title>
<path fill="none" stroke="#5b00c0" d="M1871.6011,-96C1878.2677,-96 1875.9947,-86.014 1871.6011,-81 1816.7787,-18.4366 1586.9031,-51.6421 1494.9288,-32.0072"/>
<polygon fill="#5b00c0" stroke="#5b00c0" points="1495.7336,-28.6007 1485.1831,-29.5684 1494.0343,-35.3913 1495.7336,-28.6007"/>
<text text-anchor="middle" x="1851.1011" y="-51.8" font-family="Times,serif" font-size="14.00" fill="#5b00c0">rw</text>
</g>
<!-- T5655&#45;&gt;T5665 -->
<g id="edge3" class="edge">
<title>T5655:f0&#45;&gt;T5665:f1</title>
<path fill="none" stroke="#c000a5" d="M1484.8087,-29.524C1485.4077,-29.6933 1486.0056,-29.8523 1486.6011,-30 1527.197,-40.0674 1827.1562,-25.7955 1862.6011,-48 1887.279,-63.4596 1896.1436,-86.3742 1880.6011,-111 1854.5703,-152.2436 1785.0306,-115.6812 1774.8516,-151.8272"/>
<polygon fill="#c000a5" stroke="#c000a5" points="1771.3474,-151.6476 1773.6011,-162 1778.2951,-152.5018 1771.3474,-151.6476"/>
<text text-anchor="middle" x="1896.1011" y="-92.3" font-family="Times,serif" font-size="14.00" fill="#c000a5">wr</text>
</g>
</g>
</svg>
