<?xml version="1.0" encoding="UTF-8" standalone="no"?>
<!DOCTYPE svg PUBLIC "-//W3C//DTD SVG 1.1//EN"
 "http://www.w3.org/Graphics/SVG/1.1/DTD/svg11.dtd">
<!-- Generated by graphviz version 2.40.1 (20161225.0304)
 -->
<!-- Title: a_graph Pages: 1 -->
<svg width="2916pt" height="119pt"
 viewBox="0.00 0.00 2916.00 119.00" xmlns="http://www.w3.org/2000/svg" xmlns:xlink="http://www.w3.org/1999/xlink">
<g id="graph0" class="graph" transform="scale(1 1) rotate(0) translate(4 115)">
<title>a_graph</title>
<polygon fill="#ffffff" stroke="transparent" points="-4,4 -4,-115 2912,-115 2912,4 -4,4"/>
<!-- T556 -->
<g id="node1" class="node">
<title>T556</title>
<polygon fill="none" stroke="#0058ad" points="0,-81.5 0,-110.5 2908,-110.5 2908,-81.5 0,-81.5"/>
<text text-anchor="middle" x="698.5" y="-92.3" font-family="Times,serif" font-size="14.00" fill="#0058ad">r 8 [9 10 11 12 14 15 16 13 17 18 19 20 21 22 23 24 25 26 27 29 30 28 31 32 33 34 35 36 37 38 39 40 41 42 43 44 45 46 47 48 49 50 51 52 53 54 55 56 57 58 60 59 61 62 65 67 68 69 70 71 72 73 74 75 76 77 78 79 80 81 82 83 84 85 86 87 88 89 90]</text>
<polyline fill="none" stroke="#0058ad" points="1397,-81.5 1397,-110.5 "/>
<text text-anchor="middle" x="1425.5" y="-92.3" font-family="Times,serif" font-size="14.00" fill="#0058ad">a 10 48</text>
<polyline fill="none" stroke="#0058ad" points="1454,-81.5 1454,-110.5 "/>
<text text-anchor="middle" x="2152.5" y="-92.3" font-family="Times,serif" font-size="14.00" fill="#0058ad">r 8 [9 10 11 12 14 15 16 13 17 18 19 20 21 22 23 24 25 26 27 29 30 28 31 32 33 34 35 36 37 38 39 40 41 42 43 44 45 46 47 48 49 50 51 52 53 54 55 56 57 58 60 59 61 62 65 67 68 69 70 71 72 73 74 75 76 77 78 79 80 81 82 83 84 85 86 87 88 89 90]</text>
<polyline fill="none" stroke="#0058ad" points="2851,-81.5 2851,-110.5 "/>
<text text-anchor="middle" x="2879.5" y="-92.3" font-family="Times,serif" font-size="14.00" fill="#0058ad">a 10 49</text>
</g>
<!-- T558 -->
<g id="node2" class="node">
<title>T558</title>
<polygon fill="none" stroke="#0058ad" points="768.5,-.5 768.5,-29.5 1665.5,-29.5 1665.5,-.5 768.5,-.5"/>
<text text-anchor="middle" x="793.5" y="-11.3" font-family="Times,serif" font-size="14.00" fill="#0058ad">a 8 91</text>
<polyline fill="none" stroke="#0058ad" points="818.5,-.5 818.5,-29.5 "/>
<text text-anchor="middle" x="843.5" y="-11.3" font-family="Times,serif" font-size="14.00" fill="#0058ad">a 8 92</text>
<polyline fill="none" stroke="#0058ad" points="868.5,-.5 868.5,-29.5 "/>
<text text-anchor="middle" x="1267" y="-11.3" font-family="Times,serif" font-size="14.00" fill="#0058ad">r 10 [1 2 3 4 5 6 7 8 9 10 11 12 13 14 15 16 17 18 19 20 21 22 24 25 26 27 29 28 30 31 32 33 34 35 36 37 23 39 40 38 41 44 45 42 43 46 47]</text>
</g>
<!-- T556&#45;&gt;T558 -->
<g id="edge1" class="edge">
<title>T556:f0&#45;&gt;T558:f0</title>
<path fill="none" stroke="#5b00c0" d="M698,-81C698,-41.7484 720.9549,-18.9443 757.797,-15.4671"/>
<polygon fill="#5b00c0" stroke="#5b00c0" points="758.1706,-18.9538 768,-15 757.8504,-11.9611 758.1706,-18.9538"/>
<text text-anchor="middle" x="712.5" y="-51.8" font-family="Times,serif" font-size="14.00" fill="#5b00c0">rw</text>
</g>
<!-- T558&#45;&gt;T556 -->
<g id="edge2" class="edge">
<title>T558:f2&#45;&gt;T556:f1</title>
<path fill="none" stroke="#5b00c0" d="M1267,-30C1267,-100.0427 1409.3606,-16.5797 1423.8191,-71.032"/>
<polygon fill="#5b00c0" stroke="#5b00c0" points="1420.3477,-71.4813 1425,-81 1427.2991,-70.6576 1420.3477,-71.4813"/>
<text text-anchor="middle" x="1425.5" y="-51.8" font-family="Times,serif" font-size="14.00" fill="#5b00c0">rw</text>
</g>
</g>
</svg>
