<?xml version="1.0" encoding="UTF-8" standalone="no"?>
<!DOCTYPE svg PUBLIC "-//W3C//DTD SVG 1.1//EN"
 "http://www.w3.org/Graphics/SVG/1.1/DTD/svg11.dtd">
<!-- Generated by graphviz version 2.40.1 (20161225.0304)
 -->
<!-- Title: a_graph Pages: 1 -->
<svg width="1828pt" height="200pt"
 viewBox="0.00 0.00 1828.00 200.00" xmlns="http://www.w3.org/2000/svg" xmlns:xlink="http://www.w3.org/1999/xlink">
<g id="graph0" class="graph" transform="scale(1 1) rotate(0) translate(4 196)">
<title>a_graph</title>
<polygon fill="#ffffff" stroke="transparent" points="-4,4 -4,-196 1824,-196 1824,4 -4,4"/>
<!-- T4599 -->
<g id="node1" class="node">
<title>T4599</title>
<polygon fill="none" stroke="#0058ad" points="0,-162.5 0,-191.5 1820,-191.5 1820,-162.5 0,-162.5"/>
<text text-anchor="middle" x="910" y="-173.3" font-family="Times,serif" font-size="14.00" fill="#0058ad">r 21 [2 1 3 4 5 6 8 7 9 10 11 12 13 15 14 16 17 18 19 21 23 24 25 26 27 28 29 33 34 36 35 37 38 39 40 41 42 43 44 45 46 47 48 49 50 51 52 53 54 55 56 57 58 59 60 61 62 63 64 66 68 69 70 71 72 73 75 76 78 77 79 80 81 82 83 84 86 87 88 89 90 85 91 92 93 94 95 96 97 98 99 100 101 102 103 104 105 107 106 108 109 110]</text>
</g>
<!-- T4601 -->
<g id="node2" class="node">
<title>T4601</title>
<polygon fill="none" stroke="#0058ad" points="297.5,-81.5 297.5,-110.5 912.5,-110.5 912.5,-81.5 297.5,-81.5"/>
<text text-anchor="middle" x="544.5" y="-92.3" font-family="Times,serif" font-size="14.00" fill="#0058ad">r 28 [1 2 3 5 4 8 6 9 10 11 12 13 14 16 17 18 19 20 23 24 25 21 22 27 28 26 29 30 31]</text>
<polyline fill="none" stroke="#0058ad" points="791.5,-81.5 791.5,-110.5 "/>
<text text-anchor="middle" x="823.5" y="-92.3" font-family="Times,serif" font-size="14.00" fill="#0058ad">a 21 111</text>
<polyline fill="none" stroke="#0058ad" points="855.5,-81.5 855.5,-110.5 "/>
<text text-anchor="middle" x="884" y="-92.3" font-family="Times,serif" font-size="14.00" fill="#0058ad">a 26 17</text>
</g>
<!-- T4599&#45;&gt;T4601 -->
<g id="edge1" class="edge">
<title>T4599:f0&#45;&gt;T4601:f1</title>
<path fill="none" stroke="#5b00c0" d="M867.7558,-162.4336C849.1503,-153.4875 830.356,-140.0437 825.3119,-121.0859"/>
<polygon fill="#5b00c0" stroke="#5b00c0" points="828.7607,-120.465 824,-111 821.8192,-121.3679 828.7607,-120.465"/>
<text text-anchor="middle" x="845.5" y="-132.8" font-family="Times,serif" font-size="14.00" fill="#5b00c0">rw</text>
</g>
<!-- T4597 -->
<g id="node3" class="node">
<title>T4597</title>
<polygon fill="none" stroke="#0058ad" points="559.5,-.5 559.5,-29.5 1310.5,-29.5 1310.5,-.5 559.5,-.5"/>
<text text-anchor="middle" x="588" y="-11.3" font-family="Times,serif" font-size="14.00" fill="#0058ad">a 28 32</text>
<polyline fill="none" stroke="#0058ad" points="616.5,-.5 616.5,-29.5 "/>
<text text-anchor="middle" x="963.5" y="-11.3" font-family="Times,serif" font-size="14.00" fill="#0058ad">r 27 [1 2 3 4 5 6 7 8 9 10 11 13 14 12 15 16 17 18 19 20 21 22 23 24 25 26 27 28 32 33 34 35 36 38 39 37 40 41 42 43 44]</text>
</g>
<!-- T4601&#45;&gt;T4597 -->
<g id="edge2" class="edge">
<title>T4601:f0&#45;&gt;T4597:f0</title>
<path fill="none" stroke="#5b00c0" d="M544,-81C544,-55.0394 577.0886,-58.2642 585.8778,-40.056"/>
<polygon fill="#5b00c0" stroke="#5b00c0" points="589.3596,-40.5072 588,-30 582.5104,-39.0617 589.3596,-40.5072"/>
<text text-anchor="middle" x="586.5" y="-51.8" font-family="Times,serif" font-size="14.00" fill="#5b00c0">rw</text>
</g>
<!-- T4597&#45;&gt;T4599 -->
<g id="edge3" class="edge">
<title>T4597&#45;&gt;T4599</title>
<path fill="none" stroke="#0050c0" d="M933.2232,-29.6678C930.8911,-48.5241 926.5559,-82.2624 922,-111 919.828,-124.7006 917.0794,-139.9397 914.761,-152.3198"/>
<polygon fill="#0050c0" stroke="#0050c0" points="911.2828,-151.8759 912.8596,-162.3528 918.1604,-153.1794 911.2828,-151.8759"/>
<text text-anchor="middle" x="930.5" y="-92.3" font-family="Times,serif" font-size="14.00" fill="#0050c0">rt</text>
</g>
</g>
</svg>
