<?xml version="1.0" encoding="UTF-8" standalone="no"?>
<!DOCTYPE svg PUBLIC "-//W3C//DTD SVG 1.1//EN"
 "http://www.w3.org/Graphics/SVG/1.1/DTD/svg11.dtd">
<!-- Generated by graphviz version 2.40.1 (20161225.0304)
 -->
<!-- Title: a_graph Pages: 1 -->
<svg width="1102pt" height="200pt"
 viewBox="0.00 0.00 1102.00 200.00" xmlns="http://www.w3.org/2000/svg" xmlns:xlink="http://www.w3.org/1999/xlink">
<g id="graph0" class="graph" transform="scale(1 1) rotate(0) translate(4 196)">
<title>a_graph</title>
<polygon fill="#ffffff" stroke="transparent" points="-4,4 -4,-196 1098,-196 1098,4 -4,4"/>
<!-- T12149 -->
<g id="node1" class="node">
<title>T12149</title>
<polygon fill="none" stroke="#0058ad" points="922.5,-162.5 922.5,-191.5 979.5,-191.5 979.5,-162.5 922.5,-162.5"/>
<text text-anchor="middle" x="951" y="-173.3" font-family="Times,serif" font-size="14.00" fill="#0058ad">a 63 13</text>
</g>
<!-- T12151 -->
<g id="node2" class="node">
<title>T12151</title>
<polygon fill="none" stroke="#0058ad" points="0,-81.5 0,-110.5 1056,-110.5 1056,-81.5 0,-81.5"/>
<text text-anchor="middle" x="528" y="-92.3" font-family="Times,serif" font-size="14.00" fill="#0058ad">r 62 [1 2 3 4 5 6 8 7 10 11 12 9 16 13 14 15 17 18 19 20 21 22 26 27 28 29 30 25 23 24 31 32 33 35 36 37 39 41 42 44 45 46 47 43 50 53 54 52 55 56 57 58 59 60 61 63 64 65 66 67 62 69]</text>
</g>
<!-- T12149&#45;&gt;T12151 -->
<g id="edge1" class="edge">
<title>T12149&#45;&gt;T12151</title>
<path fill="none" stroke="#0050c0" d="M922.258,-171.4962C859.8493,-159.5456 709.8485,-130.8221 613.9079,-112.4505"/>
<polygon fill="#0050c0" stroke="#0050c0" points="614.4113,-108.9833 603.9315,-110.5401 613.0948,-115.8584 614.4113,-108.9833"/>
<text text-anchor="middle" x="782.5" y="-132.8" font-family="Times,serif" font-size="14.00" fill="#0050c0">rt</text>
</g>
<!-- T12153 -->
<g id="node3" class="node">
<title>T12153</title>
<polygon fill="none" stroke="#0058ad" points="836,-.5 836,-29.5 1066,-29.5 1066,-.5 836,-.5"/>
<text text-anchor="middle" x="864.5" y="-11.3" font-family="Times,serif" font-size="14.00" fill="#0058ad">a 62 68</text>
<polyline fill="none" stroke="#0058ad" points="893,-.5 893,-29.5 "/>
<text text-anchor="middle" x="979.5" y="-11.3" font-family="Times,serif" font-size="14.00" fill="#0058ad">r 63 [4 3 5 6 7 8 10 9 11 12]</text>
</g>
<!-- T12151&#45;&gt;T12153 -->
<g id="edge2" class="edge">
<title>T12151:f0&#45;&gt;T12153:f0</title>
<path fill="none" stroke="#5b00c0" d="M560.9762,-81.3315C614.7537,-58.7418 725.448,-17.7504 825.992,-15.1318"/>
<polygon fill="#5b00c0" stroke="#5b00c0" points="826.047,-18.6315 836,-15 825.9547,-11.6321 826.047,-18.6315"/>
<text text-anchor="middle" x="658.5" y="-51.8" font-family="Times,serif" font-size="14.00" fill="#5b00c0">rw</text>
</g>
<!-- T12153&#45;&gt;T12149 -->
<g id="edge3" class="edge">
<title>T12153:f1&#45;&gt;T12149:f0</title>
<path fill="none" stroke="#5b00c0" d="M1066,-15C1108.669,-15 1086.5401,-74.1671 1065,-111 1062.7048,-114.9247 1019.2592,-139.4478 986.6807,-157.4597"/>
<polygon fill="#5b00c0" stroke="#5b00c0" points="984.8895,-154.4506 977.8233,-162.3449 988.2702,-160.5801 984.8895,-154.4506"/>
<text text-anchor="middle" x="1086.5" y="-92.3" font-family="Times,serif" font-size="14.00" fill="#5b00c0">rw</text>
</g>
</g>
</svg>
