<?xml version="1.0" encoding="UTF-8" standalone="no"?>
<!DOCTYPE svg PUBLIC "-//W3C//DTD SVG 1.1//EN"
 "http://www.w3.org/Graphics/SVG/1.1/DTD/svg11.dtd">
<!-- Generated by graphviz version 2.40.1 (20161225.0304)
 -->
<!-- Title: a_graph Pages: 1 -->
<svg width="3442pt" height="200pt"
 viewBox="0.00 0.00 3442.00 200.00" xmlns="http://www.w3.org/2000/svg" xmlns:xlink="http://www.w3.org/1999/xlink">
<g id="graph0" class="graph" transform="scale(1 1) rotate(0) translate(4 196)">
<title>a_graph</title>
<polygon fill="#ffffff" stroke="transparent" points="-4,4 -4,-196 3438,-196 3438,4 -4,4"/>
<!-- T3789 -->
<g id="node1" class="node">
<title>T3789</title>
<polygon fill="none" stroke="#0058ad" points="1583,-162.5 1583,-191.5 3434,-191.5 3434,-162.5 1583,-162.5"/>
<text text-anchor="middle" x="1611.5" y="-173.3" font-family="Times,serif" font-size="14.00" fill="#0058ad">a 23 62</text>
<polyline fill="none" stroke="#0058ad" points="1640,-162.5 1640,-191.5 "/>
<text text-anchor="middle" x="2004" y="-173.3" font-family="Times,serif" font-size="14.00" fill="#0058ad">r 24 [1 2 4 5 3 6 8 9 10 11 7 12 13 14 15 16 18 19 20 17 21 22 23 24 25 26 27 28 29 30 31 32 33 35 34 36 37 38 39 40 41 42 43]</text>
<polyline fill="none" stroke="#0058ad" points="2368,-162.5 2368,-191.5 "/>
<text text-anchor="middle" x="2870" y="-173.3" font-family="Times,serif" font-size="14.00" fill="#0058ad">r 23 [1 2 3 4 5 6 7 8 9 11 12 13 14 15 16 17 18 19 20 21 22 23 25 26 27 29 30 31 32 33 34 35 37 36 38 40 41 42 39 44 43 45 46 47 48 49 50 51 52 53 54 55 56 57 58 59 60 61 62]</text>
<polyline fill="none" stroke="#0058ad" points="3372,-162.5 3372,-191.5 "/>
<text text-anchor="middle" x="3403" y="-173.3" font-family="Times,serif" font-size="14.00" fill="#0058ad">r 2 [1 2]</text>
</g>
<!-- T3791 -->
<g id="node2" class="node">
<title>T3791</title>
<polygon fill="none" stroke="#0058ad" points="1132,-81.5 1132,-110.5 1917,-110.5 1917,-81.5 1132,-81.5"/>
<text text-anchor="middle" x="1160.5" y="-92.3" font-family="Times,serif" font-size="14.00" fill="#0058ad">a 23 63</text>
<polyline fill="none" stroke="#0058ad" points="1189,-81.5 1189,-110.5 "/>
<text text-anchor="middle" x="1553" y="-92.3" font-family="Times,serif" font-size="14.00" fill="#0058ad">r 24 [1 2 4 5 3 6 8 9 10 11 7 12 13 14 15 16 18 19 20 17 21 22 23 24 25 26 27 28 29 30 31 32 33 35 34 36 37 38 39 40 41 42 43]</text>
</g>
<!-- T3789&#45;&gt;T3791 -->
<g id="edge2" class="edge">
<title>T3789:f0&#45;&gt;T3791:f0</title>
<path fill="none" stroke="#c02700" d="M1582.5,-177C1538.1927,-177 1208.8014,-160.8396 1165.2495,-120.0752"/>
<polygon fill="#c02700" stroke="#c02700" points="1168.2379,-118.2371 1160.5,-111 1162.0359,-121.4829 1168.2379,-118.2371"/>
<text text-anchor="middle" x="1234.5" y="-132.8" font-family="Times,serif" font-size="14.00" fill="#c02700">ww</text>
</g>
<!-- T3793 -->
<g id="node3" class="node">
<title>T3793</title>
<polygon fill="none" stroke="#0058ad" points="0,-.5 0,-29.5 2569,-29.5 2569,-.5 0,-.5"/>
<text text-anchor="middle" x="364" y="-11.3" font-family="Times,serif" font-size="14.00" fill="#0058ad">r 24 [1 2 4 5 3 6 8 9 10 11 7 12 13 14 15 16 18 19 20 17 21 22 23 24 25 26 27 28 29 30 31 32 33 35 34 36 37 38 39 40 41 42 43]</text>
<polyline fill="none" stroke="#0058ad" points="728,-.5 728,-29.5 "/>
<text text-anchor="middle" x="1126.5" y="-11.3" font-family="Times,serif" font-size="14.00" fill="#0058ad">r 21 [2 1 3 4 5 6 8 7 9 10 11 12 13 15 14 16 17 18 19 21 23 24 25 26 27 28 29 33 34 36 35 37 38 39 40 41 42 43 44 45 46 47 48 49 50 51 52]</text>
<polyline fill="none" stroke="#0058ad" points="1525,-.5 1525,-29.5 "/>
<text text-anchor="middle" x="1553.5" y="-11.3" font-family="Times,serif" font-size="14.00" fill="#0058ad">a 24 44</text>
<polyline fill="none" stroke="#0058ad" points="1582,-.5 1582,-29.5 "/>
<text text-anchor="middle" x="2075.5" y="-11.3" font-family="Times,serif" font-size="14.00" fill="#0058ad">r 23 [1 2 3 4 5 6 7 8 9 11 12 13 14 15 16 17 18 19 20 21 22 23 25 26 27 29 30 31 32 33 34 35 37 36 38 40 41 42 39 44 43 45 46 47 48 49 50 51 52 53 54 55 56 57 58 59 60 61]</text>
</g>
<!-- T3789&#45;&gt;T3793 -->
<g id="edge1" class="edge">
<title>T3789:f1&#45;&gt;T3793:f2</title>
<path fill="none" stroke="#5b00c0" d="M2003.5,-162C2003.5,-108.7315 2008.8978,-80.2483 1966.5,-48 1949.8271,-35.3184 1619.9766,-49.9024 1562.1238,-35.1367"/>
<polygon fill="#5b00c0" stroke="#5b00c0" points="1563.8825,-32.1104 1553.5,-30 1560.3003,-38.1244 1563.8825,-32.1104"/>
<text text-anchor="middle" x="2011" y="-92.3" font-family="Times,serif" font-size="14.00" fill="#5b00c0">rw</text>
</g>
<!-- T3791&#45;&gt;T3793 -->
<g id="edge3" class="edge">
<title>T3791:f1&#45;&gt;T3793:f2</title>
<path fill="none" stroke="#5b00c0" d="M1553.5,-81C1553.5,-62.2292 1553.5,-55.1168 1553.5,-40.3535"/>
<polygon fill="#5b00c0" stroke="#5b00c0" points="1557.0001,-40 1553.5,-30 1550.0001,-40 1557.0001,-40"/>
<text text-anchor="middle" x="1561" y="-51.8" font-family="Times,serif" font-size="14.00" fill="#5b00c0">rw</text>
</g>
<!-- T3793&#45;&gt;T3789 -->
<g id="edge4" class="edge">
<title>T3793:f3&#45;&gt;T3789:f0</title>
<path fill="none" stroke="#5b00c0" d="M2075.5,-30C2075.5,-54.5503 1987.052,-34.5713 1966.5,-48 1938.5334,-66.2734 1953.4908,-92.7636 1925.5,-111 1869.3931,-147.5544 1637.8265,-97.1853 1613.5594,-151.8592"/>
<polygon fill="#5b00c0" stroke="#5b00c0" points="1610.0603,-151.5034 1611.5,-162 1616.9203,-152.8966 1610.0603,-151.5034"/>
<text text-anchor="middle" x="1954" y="-92.3" font-family="Times,serif" font-size="14.00" fill="#5b00c0">rw</text>
</g>
</g>
</svg>
