<?xml version="1.0" encoding="UTF-8" standalone="no"?>
<!DOCTYPE svg PUBLIC "-//W3C//DTD SVG 1.1//EN"
 "http://www.w3.org/Graphics/SVG/1.1/DTD/svg11.dtd">
<!-- Generated by graphviz version 2.40.1 (20161225.0304)
 -->
<!-- Title: a_graph Pages: 1 -->
<svg width="4226pt" height="119pt"
 viewBox="0.00 0.00 4226.00 119.00" xmlns="http://www.w3.org/2000/svg" xmlns:xlink="http://www.w3.org/1999/xlink">
<g id="graph0" class="graph" transform="scale(1 1) rotate(0) translate(4 115)">
<title>a_graph</title>
<polygon fill="#ffffff" stroke="transparent" points="-4,4 -4,-115 4222,-115 4222,4 -4,4"/>
<!-- T16159 -->
<g id="node1" class="node">
<title>T16159</title>
<polygon fill="none" stroke="#0058ad" points="1307,-81.5 1307,-110.5 4218,-110.5 4218,-81.5 1307,-81.5"/>
<text text-anchor="middle" x="1498.5" y="-92.3" font-family="Times,serif" font-size="14.00" fill="#0058ad">r 82 [2 3 4 5 1 6 7 8 9 10 11 12 13 14 15 17 16 20 21 18 19 22 23]</text>
<polyline fill="none" stroke="#0058ad" points="1690,-81.5 1690,-110.5 "/>
<text text-anchor="middle" x="1722" y="-92.3" font-family="Times,serif" font-size="14.00" fill="#0058ad">a 79 126</text>
<polyline fill="none" stroke="#0058ad" points="1754,-81.5 1754,-110.5 "/>
<text text-anchor="middle" x="2794.5" y="-92.3" font-family="Times,serif" font-size="14.00" fill="#0058ad">r 79 [1 2 3 4 5 6 7 8 10 11 12 16 13 19 21 22 23 25 26 27 24 29 28 30 32 33 31 34 35 36 37 38 39 40 41 42 43 44 45 46 47 48 49 50 51 52 53 55 54 56 57 58 59 60 61 62 63 64 65 66 67 68 69 70 71 72 73 74 75 77 78 76 79 80 81 82 83 84 85 86 87 88 89 90 91 95 98 99 100 97 103 104 105 107 106 108 109 111 112 110 113 115 116 114 117 118 119 120 121 122 123 126]</text>
<polyline fill="none" stroke="#0058ad" points="3835,-81.5 3835,-110.5 "/>
<text text-anchor="middle" x="4026.5" y="-92.3" font-family="Times,serif" font-size="14.00" fill="#0058ad">r 82 [2 3 4 5 1 6 7 8 9 10 11 12 13 14 15 17 16 20 21 18 19 22 23]</text>
</g>
<!-- T16161 -->
<g id="node2" class="node">
<title>T16161</title>
<polygon fill="none" stroke="#0058ad" points="0,-.5 0,-29.5 2221,-29.5 2221,-.5 0,-.5"/>
<text text-anchor="middle" x="1028.5" y="-11.3" font-family="Times,serif" font-size="14.00" fill="#0058ad">r 79 [1 2 3 4 5 6 7 8 10 11 12 16 13 19 21 22 23 25 26 27 24 29 28 30 32 33 31 34 35 36 37 38 39 40 41 42 43 44 45 46 47 48 49 50 51 52 53 55 54 56 57 58 59 60 61 62 63 64 65 66 67 68 69 70 71 72 73 74 75 77 78 76 79 80 81 82 83 84 85 86 87 88 89 90 91 95 98 99 100 97 103 104 105 107 106 108 109 111 112 110 113 115 116 114 117 118 119 120 121 122 123]</text>
<polyline fill="none" stroke="#0058ad" points="2057,-.5 2057,-29.5 "/>
<text text-anchor="middle" x="2082" y="-11.3" font-family="Times,serif" font-size="14.00" fill="#0058ad">a 3 74</text>
<polyline fill="none" stroke="#0058ad" points="2107,-.5 2107,-29.5 "/>
<text text-anchor="middle" x="2135.5" y="-11.3" font-family="Times,serif" font-size="14.00" fill="#0058ad">a 71 24</text>
<polyline fill="none" stroke="#0058ad" points="2164,-.5 2164,-29.5 "/>
<text text-anchor="middle" x="2192.5" y="-11.3" font-family="Times,serif" font-size="14.00" fill="#0058ad">a 82 24</text>
</g>
<!-- T16159&#45;&gt;T16161 -->
<g id="edge1" class="edge">
<title>T16159:f0&#45;&gt;T16161:f3</title>
<path fill="none" stroke="#5b00c0" d="M1498.5,-81C1498.5,-17.0726 1575.1286,-56.4129 1638.5,-48 1652.5409,-46.136 2109.5747,-45.4987 2182.6815,-33.4221"/>
<polygon fill="#5b00c0" stroke="#5b00c0" points="2184.2091,-36.5963 2192.5,-30 2181.9052,-29.9863 2184.2091,-36.5963"/>
<text text-anchor="middle" x="1646" y="-51.8" font-family="Times,serif" font-size="14.00" fill="#5b00c0">rw</text>
</g>
<!-- T16161&#45;&gt;T16159 -->
<g id="edge2" class="edge">
<title>T16161:f0&#45;&gt;T16159:f1</title>
<path fill="none" stroke="#5b00c0" d="M1028.5,-30C1028.5,-47.3683 1636.6308,-43.8664 1653.5,-48 1682.3042,-55.0581 1713.2473,-49.192 1720.1041,-70.8332"/>
<polygon fill="#5b00c0" stroke="#5b00c0" points="1716.6722,-71.5691 1721.5,-81 1723.6071,-70.6168 1716.6722,-71.5691"/>
<text text-anchor="middle" x="1722" y="-51.8" font-family="Times,serif" font-size="14.00" fill="#5b00c0">rw</text>
</g>
</g>
</svg>
