<?xml version="1.0" encoding="UTF-8" standalone="no"?>
<!DOCTYPE svg PUBLIC "-//W3C//DTD SVG 1.1//EN"
 "http://www.w3.org/Graphics/SVG/1.1/DTD/svg11.dtd">
<!-- Generated by graphviz version 2.40.1 (20161225.0304)
 -->
<!-- Title: a_graph Pages: 1 -->
<svg width="2296pt" height="200pt"
 viewBox="0.00 0.00 2296.00 200.00" xmlns="http://www.w3.org/2000/svg" xmlns:xlink="http://www.w3.org/1999/xlink">
<g id="graph0" class="graph" transform="scale(1 1) rotate(0) translate(4 196)">
<title>a_graph</title>
<polygon fill="#ffffff" stroke="transparent" points="-4,4 -4,-196 2292,-196 2292,4 -4,4"/>
<!-- T12395 -->
<g id="node1" class="node">
<title>T12395</title>
<polygon fill="none" stroke="#0058ad" points="0,-162.5 0,-191.5 2288,-191.5 2288,-162.5 0,-162.5"/>
<text text-anchor="middle" x="131.5" y="-173.3" font-family="Times,serif" font-size="14.00" fill="#0058ad">r 64 [1 2 3 4 5 8 9 10 6 7 12 11 13 14 15 16]</text>
<polyline fill="none" stroke="#0058ad" points="263,-162.5 263,-191.5 "/>
<text text-anchor="middle" x="618" y="-173.3" font-family="Times,serif" font-size="14.00" fill="#0058ad">r 3 [2 8 9 10 11 12 13 14 15 16 17 18 19 20 21 22 23 24 25 26 27 28 29 30 31 32 33 34 35 40 42 43 44 45 46 47 48 49 50 51]</text>
<polyline fill="none" stroke="#0058ad" points="973,-162.5 973,-191.5 "/>
<text text-anchor="middle" x="1630.5" y="-173.3" font-family="Times,serif" font-size="14.00" fill="#0058ad">r 60 [2 3 1 4 5 6 7 8 9 10 11 13 12 15 16 17 18 19 20 21 22 23 24 25 26 27 29 28 30 31 32 33 34 35 36 37 38 39 40 41 42 45 44 43 46 47 48 49 50 51 52 54 56 55 58 61 62 63 64 65 66 67 68 69 70 71 72 73 74 75 76 77 78 79 80 81 82]</text>
</g>
<!-- T12397 -->
<g id="node2" class="node">
<title>T12397</title>
<polygon fill="none" stroke="#0058ad" points="704,-81.5 704,-110.5 1782,-110.5 1782,-81.5 704,-81.5"/>
<text text-anchor="middle" x="732.5" y="-92.3" font-family="Times,serif" font-size="14.00" fill="#0058ad">a 60 83</text>
<polyline fill="none" stroke="#0058ad" points="761,-81.5 761,-110.5 "/>
<text text-anchor="middle" x="883.5" y="-92.3" font-family="Times,serif" font-size="14.00" fill="#0058ad">r 64 [1 2 3 4 5 8 9 10 6 7 12 11 13 14 15]</text>
<polyline fill="none" stroke="#0058ad" points="1006,-81.5 1006,-110.5 "/>
<text text-anchor="middle" x="1394" y="-92.3" font-family="Times,serif" font-size="14.00" fill="#0058ad">r 63 [4 3 5 6 7 8 10 9 11 12 13 14 15 16 17 18 19 20 21 22 23 24 25 26 27 28 29 30 31 32 33 34 37 35 36 38 39 40 41 42 43 44 46 45 47]</text>
</g>
<!-- T12395&#45;&gt;T12397 -->
<g id="edge1" class="edge">
<title>T12395:f2&#45;&gt;T12397:f0</title>
<path fill="none" stroke="#5b00c0" d="M1631,-162C1631,34.5816 763.3277,-298.9922 732.8236,-121.0489"/>
<polygon fill="#5b00c0" stroke="#5b00c0" points="736.3052,-120.6807 732,-111 729.3286,-121.2525 736.3052,-120.6807"/>
<text text-anchor="middle" x="1633.5" y="-132.8" font-family="Times,serif" font-size="14.00" fill="#5b00c0">rw</text>
</g>
<!-- T12393 -->
<g id="node3" class="node">
<title>T12393</title>
<polygon fill="none" stroke="#0058ad" points="298.5,-.5 298.5,-29.5 355.5,-29.5 355.5,-.5 298.5,-.5"/>
<text text-anchor="middle" x="327" y="-11.3" font-family="Times,serif" font-size="14.00" fill="#0058ad">a 64 16</text>
</g>
<!-- T12397&#45;&gt;T12393 -->
<g id="edge2" class="edge">
<title>T12397:f1&#45;&gt;T12393:f0</title>
<path fill="none" stroke="#5b00c0" d="M883,-81C883,-24.6504 451.9475,-45.0455 363.6579,-31.6667"/>
<polygon fill="#5b00c0" stroke="#5b00c0" points="364.2348,-28.2117 353.7309,-29.597 362.806,-35.0644 364.2348,-28.2117"/>
<text text-anchor="middle" x="864.5" y="-51.8" font-family="Times,serif" font-size="14.00" fill="#5b00c0">rw</text>
</g>
<!-- T12393&#45;&gt;T12395 -->
<g id="edge3" class="edge">
<title>T12393:f0&#45;&gt;T12395:f0</title>
<path fill="none" stroke="#c000a5" d="M303.3578,-29.7254C257.1332,-58.8624 157.3652,-123.5666 135.3548,-152.717"/>
<polygon fill="#c000a5" stroke="#c000a5" points="132.0784,-151.4602 131,-162 138.4157,-154.4331 132.0784,-151.4602"/>
<text text-anchor="middle" x="229.5" y="-92.3" font-family="Times,serif" font-size="14.00" fill="#c000a5">wr</text>
</g>
</g>
</svg>
