<?xml version="1.0" encoding="UTF-8" standalone="no"?>
<!DOCTYPE svg PUBLIC "-//W3C//DTD SVG 1.1//EN"
 "http://www.w3.org/Graphics/SVG/1.1/DTD/svg11.dtd">
<!-- Generated by graphviz version 2.40.1 (20161225.0304)
 -->
<!-- Title: a_graph Pages: 1 -->
<svg width="1853pt" height="119pt"
 viewBox="0.00 0.00 1853.00 119.00" xmlns="http://www.w3.org/2000/svg" xmlns:xlink="http://www.w3.org/1999/xlink">
<g id="graph0" class="graph" transform="scale(1 1) rotate(0) translate(4 115)">
<title>a_graph</title>
<polygon fill="#ffffff" stroke="transparent" points="-4,4 -4,-115 1849,-115 1849,4 -4,4"/>
<!-- T14643 -->
<g id="node1" class="node">
<title>T14643</title>
<polygon fill="none" stroke="#0058ad" points="0,-81.5 0,-110.5 1845,-110.5 1845,-81.5 0,-81.5"/>
<text text-anchor="middle" x="88" y="-92.3" font-family="Times,serif" font-size="14.00" fill="#0058ad">r 76 [2 3 4 1 5 6 7 9 8 10 11]</text>
<polyline fill="none" stroke="#0058ad" points="176,-81.5 176,-110.5 "/>
<text text-anchor="middle" x="264" y="-92.3" font-family="Times,serif" font-size="14.00" fill="#0058ad">r 76 [2 3 4 1 5 6 7 9 8 10 11]</text>
<polyline fill="none" stroke="#0058ad" points="352,-81.5 352,-110.5 "/>
<text text-anchor="middle" x="1070" y="-92.3" font-family="Times,serif" font-size="14.00" fill="#0058ad">r 75 [2 3 4 5 7 6 10 11 12 8 9 1 13 14 15 16 17 18 19 20 21 23 24 25 26 22 27 28 30 31 29 32 33 34 35 37 36 38 39 40 41 42 43 44 46 45 49 51 52 53 54 50 55 56 57 58 59 60 47 48 61 63 64 62 65 68 66 67 70 69 71 72 73 74 76 75 78 79 80 81 77 83 84 82]</text>
<polyline fill="none" stroke="#0058ad" points="1788,-81.5 1788,-110.5 "/>
<text text-anchor="middle" x="1816.5" y="-92.3" font-family="Times,serif" font-size="14.00" fill="#0058ad">a 76 12</text>
</g>
<!-- T14641 -->
<g id="node2" class="node">
<title>T14641</title>
<polygon fill="none" stroke="#0058ad" points="1256.5,-.5 1256.5,-29.5 1546.5,-29.5 1546.5,-.5 1256.5,-.5"/>
<text text-anchor="middle" x="1285" y="-11.3" font-family="Times,serif" font-size="14.00" fill="#0058ad">a 75 86</text>
<polyline fill="none" stroke="#0058ad" points="1313.5,-.5 1313.5,-29.5 "/>
<text text-anchor="middle" x="1342" y="-11.3" font-family="Times,serif" font-size="14.00" fill="#0058ad">a 75 87</text>
<polyline fill="none" stroke="#0058ad" points="1370.5,-.5 1370.5,-29.5 "/>
<text text-anchor="middle" x="1458.5" y="-11.3" font-family="Times,serif" font-size="14.00" fill="#0058ad">r 76 [2 3 4 1 5 6 7 9 8 10 11]</text>
</g>
<!-- T14643&#45;&gt;T14641 -->
<g id="edge1" class="edge">
<title>T14643:f2&#45;&gt;T14641:f0</title>
<path fill="none" stroke="#5b00c0" d="M1070.5,-81C1070.5,-40.1398 1193.8724,-18.1287 1246.2046,-15.3103"/>
<polygon fill="#5b00c0" stroke="#5b00c0" points="1246.61,-18.7997 1256.5,-15 1246.3991,-11.8029 1246.61,-18.7997"/>
<text text-anchor="middle" x="1107" y="-51.8" font-family="Times,serif" font-size="14.00" fill="#5b00c0">rw</text>
</g>
<!-- T14641&#45;&gt;T14643 -->
<g id="edge2" class="edge">
<title>T14641:f2&#45;&gt;T14643:f3</title>
<path fill="none" stroke="#5b00c0" d="M1546.5,-15C1604.7681,-15 1793.3809,-18.7674 1814.5603,-71.0485"/>
<polygon fill="#5b00c0" stroke="#5b00c0" points="1811.1514,-71.8543 1816.5,-81 1818.0221,-70.5151 1811.1514,-71.8543"/>
<text text-anchor="middle" x="1815" y="-51.8" font-family="Times,serif" font-size="14.00" fill="#5b00c0">rw</text>
</g>
</g>
</svg>
