<?xml version="1.0" encoding="UTF-8" standalone="no"?>
<!DOCTYPE svg PUBLIC "-//W3C//DTD SVG 1.1//EN"
 "http://www.w3.org/Graphics/SVG/1.1/DTD/svg11.dtd">
<!-- Generated by graphviz version 2.40.1 (20161225.0304)
 -->
<!-- Title: a_graph Pages: 1 -->
<svg width="959pt" height="119pt"
 viewBox="0.00 0.00 959.00 119.00" xmlns="http://www.w3.org/2000/svg" xmlns:xlink="http://www.w3.org/1999/xlink">
<g id="graph0" class="graph" transform="scale(1 1) rotate(0) translate(4 115)">
<title>a_graph</title>
<polygon fill="#ffffff" stroke="transparent" points="-4,4 -4,-115 955,-115 955,4 -4,4"/>
<!-- T20389 -->
<g id="node1" class="node">
<title>T20389</title>
<polygon fill="none" stroke="#0058ad" points="223.5,-81.5 223.5,-110.5 677.5,-110.5 677.5,-81.5 223.5,-81.5"/>
<text text-anchor="middle" x="252" y="-92.3" font-family="Times,serif" font-size="14.00" fill="#0058ad">a 99 44</text>
<polyline fill="none" stroke="#0058ad" points="280.5,-81.5 280.5,-110.5 "/>
<text text-anchor="middle" x="415" y="-92.3" font-family="Times,serif" font-size="14.00" fill="#0058ad">r 103 [1 2 3 5 6 4 8 9 10 11 7 12 13 16 19 20]</text>
<polyline fill="none" stroke="#0058ad" points="549.5,-81.5 549.5,-110.5 "/>
<text text-anchor="middle" x="581.5" y="-92.3" font-family="Times,serif" font-size="14.00" fill="#0058ad">a 104 21</text>
<polyline fill="none" stroke="#0058ad" points="613.5,-81.5 613.5,-110.5 "/>
<text text-anchor="middle" x="645.5" y="-92.3" font-family="Times,serif" font-size="14.00" fill="#0058ad">a 104 22</text>
</g>
<!-- T20387 -->
<g id="node2" class="node">
<title>T20387</title>
<polygon fill="none" stroke="#0058ad" points="0,-.5 0,-29.5 951,-29.5 951,-.5 0,-.5"/>
<text text-anchor="middle" x="32" y="-11.3" font-family="Times,serif" font-size="14.00" fill="#0058ad">a 103 23</text>
<polyline fill="none" stroke="#0058ad" points="64,-.5 64,-29.5 "/>
<text text-anchor="middle" x="191.5" y="-11.3" font-family="Times,serif" font-size="14.00" fill="#0058ad">r 104 [2 3 4 6 7 8 10 12 13 15 16 17 18 20]</text>
<polyline fill="none" stroke="#0058ad" points="319,-.5 319,-29.5 "/>
<text text-anchor="middle" x="635" y="-11.3" font-family="Times,serif" font-size="14.00" fill="#0058ad">r 99 [1 3 4 5 6 7 8 9 11 12 13 14 15 16 17 18 19 21 22 23 24 25 26 27 28 29 30 31 33 32 34 35 37 38 39 42 43]</text>
</g>
<!-- T20389&#45;&gt;T20387 -->
<g id="edge1" class="edge">
<title>T20389:f1&#45;&gt;T20387:f0</title>
<path fill="none" stroke="#5b00c0" d="M414.5,-81C414.5,-29.1065 353.588,-57.1081 302.5,-48 289.3282,-45.6517 86.4366,-45.1789 40.6379,-34.5821"/>
<polygon fill="#5b00c0" stroke="#5b00c0" points="42.008,-31.3537 31.5,-30 38.8703,-37.6111 42.008,-31.3537"/>
<text text-anchor="middle" x="417" y="-51.8" font-family="Times,serif" font-size="14.00" fill="#5b00c0">rw</text>
</g>
<!-- T20387&#45;&gt;T20389 -->
<g id="edge2" class="edge">
<title>T20387:f2&#45;&gt;T20389:f0</title>
<path fill="none" stroke="#5b00c0" d="M635.5,-30C635.5,-49.5811 301.3316,-39.9096 283.5,-48 268.3838,-54.8584 256.7064,-58.8701 252.8588,-71.0915"/>
<polygon fill="#5b00c0" stroke="#5b00c0" points="249.3912,-70.6172 251.5,-81 256.3263,-71.5683 249.3912,-70.6172"/>
<text text-anchor="middle" x="291" y="-51.8" font-family="Times,serif" font-size="14.00" fill="#5b00c0">rw</text>
</g>
</g>
</svg>
