<?xml version="1.0" encoding="UTF-8" standalone="no"?>
<!DOCTYPE svg PUBLIC "-//W3C//DTD SVG 1.1//EN"
 "http://www.w3.org/Graphics/SVG/1.1/DTD/svg11.dtd">
<!-- Generated by graphviz version 2.40.1 (20161225.0304)
 -->
<!-- Title: a_graph Pages: 1 -->
<svg width="1521pt" height="119pt"
 viewBox="0.00 0.00 1521.00 119.00" xmlns="http://www.w3.org/2000/svg" xmlns:xlink="http://www.w3.org/1999/xlink">
<g id="graph0" class="graph" transform="scale(1 1) rotate(0) translate(4 115)">
<title>a_graph</title>
<polygon fill="#ffffff" stroke="transparent" points="-4,4 -4,-115 1517,-115 1517,4 -4,4"/>
<!-- T15487 -->
<g id="node1" class="node">
<title>T15487</title>
<polygon fill="none" stroke="#0058ad" points="0,-81.5 0,-110.5 1513,-110.5 1513,-81.5 0,-81.5"/>
<text text-anchor="middle" x="364" y="-92.3" font-family="Times,serif" font-size="14.00" fill="#0058ad">r 80 [1 2 3 4 5 6 7 8 9 10 11 13 12 14 17 15 18 19 20 21 16 22 23 25 26 27 29 28 24 33 36 39 34 35 44 45 41 42 51 52 53 50 54]</text>
<polyline fill="none" stroke="#0058ad" points="728,-81.5 728,-110.5 "/>
<text text-anchor="middle" x="756.5" y="-92.3" font-family="Times,serif" font-size="14.00" fill="#0058ad">a 79 24</text>
<polyline fill="none" stroke="#0058ad" points="785,-81.5 785,-110.5 "/>
<text text-anchor="middle" x="1149" y="-92.3" font-family="Times,serif" font-size="14.00" fill="#0058ad">r 80 [1 2 3 4 5 6 7 8 9 10 11 13 12 14 17 15 18 19 20 21 16 22 23 25 26 27 29 28 24 33 36 39 34 35 44 45 41 42 51 52 53 50 54]</text>
</g>
<!-- T15485 -->
<g id="node2" class="node">
<title>T15485</title>
<polygon fill="none" stroke="#0058ad" points="457,-.5 457,-29.5 852,-29.5 852,-.5 457,-.5"/>
<text text-anchor="middle" x="485.5" y="-11.3" font-family="Times,serif" font-size="14.00" fill="#0058ad">a 80 55</text>
<polyline fill="none" stroke="#0058ad" points="514,-.5 514,-29.5 "/>
<text text-anchor="middle" x="683" y="-11.3" font-family="Times,serif" font-size="14.00" fill="#0058ad">r 79 [1 2 3 4 5 6 7 8 10 11 12 16 13 19 21 22 23 25 26 27]</text>
</g>
<!-- T15487&#45;&gt;T15485 -->
<g id="edge1" class="edge">
<title>T15487:f0&#45;&gt;T15485:f0</title>
<path fill="none" stroke="#5b00c0" d="M363.5,-81C363.5,-33.7805 400.2282,-17.2592 446.2339,-15.2211"/>
<polygon fill="#5b00c0" stroke="#5b00c0" points="446.5777,-18.7146 456.5,-15 446.4269,-11.7162 446.5777,-18.7146"/>
<text text-anchor="middle" x="379" y="-51.8" font-family="Times,serif" font-size="14.00" fill="#5b00c0">rw</text>
</g>
<!-- T15485&#45;&gt;T15487 -->
<g id="edge2" class="edge">
<title>T15485:f1&#45;&gt;T15487:f1</title>
<path fill="none" stroke="#5b00c0" d="M683.5,-30C683.5,-65.5584 742.4249,-46.4425 754.394,-70.8952"/>
<polygon fill="#5b00c0" stroke="#5b00c0" points="751.0332,-71.9245 756.5,-81 757.886,-70.4962 751.0332,-71.9245"/>
<text text-anchor="middle" x="753" y="-51.8" font-family="Times,serif" font-size="14.00" fill="#5b00c0">rw</text>
</g>
</g>
</svg>
