<?xml version="1.0" encoding="UTF-8" standalone="no"?>
<!DOCTYPE svg PUBLIC "-//W3C//DTD SVG 1.1//EN"
 "http://www.w3.org/Graphics/SVG/1.1/DTD/svg11.dtd">
<!-- Generated by graphviz version 2.40.1 (20161225.0304)
 -->
<!-- Title: a_graph Pages: 1 -->
<svg width="2839pt" height="119pt"
 viewBox="0.00 0.00 2839.00 119.00" xmlns="http://www.w3.org/2000/svg" xmlns:xlink="http://www.w3.org/1999/xlink">
<g id="graph0" class="graph" transform="scale(1 1) rotate(0) translate(4 115)">
<title>a_graph</title>
<polygon fill="#ffffff" stroke="transparent" points="-4,4 -4,-115 2835,-115 2835,4 -4,4"/>
<!-- T12963 -->
<g id="node1" class="node">
<title>T12963</title>
<polygon fill="none" stroke="#0058ad" points="0,-81.5 0,-110.5 2831,-110.5 2831,-81.5 0,-81.5"/>
<text text-anchor="middle" x="28.5" y="-92.3" font-family="Times,serif" font-size="14.00" fill="#0058ad">a 65 78</text>
<polyline fill="none" stroke="#0058ad" points="57,-81.5 57,-110.5 "/>
<text text-anchor="middle" x="723" y="-92.3" font-family="Times,serif" font-size="14.00" fill="#0058ad">r 65 [1 2 3 4 6 7 5 8 9 11 12 13 14 15 16 17 18 19 20 10 24 23 21 22 25 27 28 29 30 26 31 32 33 35 34 37 38 36 39 42 43 40 41 44 45 46 47 50 48 49 51 52 53 54 55 56 57 59 61 62 63 60 64 65 66 58 67 68 70 69 72 73 71 74 75 76 77 78]</text>
<polyline fill="none" stroke="#0058ad" points="1389,-81.5 1389,-110.5 "/>
<text text-anchor="middle" x="2055" y="-92.3" font-family="Times,serif" font-size="14.00" fill="#0058ad">r 65 [1 2 3 4 6 7 5 8 9 11 12 13 14 15 16 17 18 19 20 10 24 23 21 22 25 27 28 29 30 26 31 32 33 35 34 37 38 36 39 42 43 40 41 44 45 46 47 50 48 49 51 52 53 54 55 56 57 59 61 62 63 60 64 65 66 58 67 68 70 69 72 73 71 74 75 76 77 78]</text>
<polyline fill="none" stroke="#0058ad" points="2721,-81.5 2721,-110.5 "/>
<text text-anchor="middle" x="2776" y="-92.3" font-family="Times,serif" font-size="14.00" fill="#0058ad">r 66 [1 2 3 4 5 6]</text>
</g>
<!-- T12959 -->
<g id="node2" class="node">
<title>T12959</title>
<polygon fill="none" stroke="#0058ad" points="24.5,-.5 24.5,-29.5 1510.5,-29.5 1510.5,-.5 24.5,-.5"/>
<text text-anchor="middle" x="56.5" y="-11.3" font-family="Times,serif" font-size="14.00" fill="#0058ad">a 60 128</text>
<polyline fill="none" stroke="#0058ad" points="88.5,-.5 88.5,-29.5 "/>
<text text-anchor="middle" x="117" y="-11.3" font-family="Times,serif" font-size="14.00" fill="#0058ad">a 56 87</text>
<polyline fill="none" stroke="#0058ad" points="145.5,-.5 145.5,-29.5 "/>
<text text-anchor="middle" x="803" y="-11.3" font-family="Times,serif" font-size="14.00" fill="#0058ad">r 65 [1 2 3 4 6 7 5 8 9 11 12 13 14 15 16 17 18 19 20 10 24 23 21 22 25 27 28 29 30 26 31 32 33 35 34 37 38 36 39 42 43 40 41 44 45 46 47 50 48 49 51 52 53 54 55 56 57 59 61 62 63 60 64 65 66 58 67 68 70 69 72 73 71 74 75 76 77]</text>
<polyline fill="none" stroke="#0058ad" points="1460.5,-.5 1460.5,-29.5 "/>
<text text-anchor="middle" x="1485.5" y="-11.3" font-family="Times,serif" font-size="14.00" fill="#0058ad">a 66 7</text>
</g>
<!-- T12963&#45;&gt;T12959 -->
<g id="edge1" class="edge">
<title>T12963:f3&#45;&gt;T12959:f3</title>
<path fill="none" stroke="#5b00c0" d="M2776.5,-81C2776.5,-47.2299 1644.6068,-17.5328 1520.6995,-15.1536"/>
<polygon fill="#5b00c0" stroke="#5b00c0" points="1520.5516,-11.651 1510.5,-15 1520.4461,-18.6502 1520.5516,-11.651"/>
<text text-anchor="middle" x="2678" y="-51.8" font-family="Times,serif" font-size="14.00" fill="#5b00c0">rw</text>
</g>
<!-- T12959&#45;&gt;T12963 -->
<g id="edge2" class="edge">
<title>T12959:f2&#45;&gt;T12963:f0</title>
<path fill="none" stroke="#5b00c0" d="M803.5,-30C803.5,-199.0552 59.9612,79.7247 29.4645,-70.9623"/>
<polygon fill="#5b00c0" stroke="#5b00c0" points="25.9726,-70.7111 28.5,-81 32.9405,-71.3806 25.9726,-70.7111"/>
<text text-anchor="middle" x="807" y="-51.8" font-family="Times,serif" font-size="14.00" fill="#5b00c0">rw</text>
</g>
</g>
</svg>
