<?xml version="1.0" encoding="UTF-8" standalone="no"?>
<!DOCTYPE svg PUBLIC "-//W3C//DTD SVG 1.1//EN"
 "http://www.w3.org/Graphics/SVG/1.1/DTD/svg11.dtd">
<!-- Generated by graphviz version 2.40.1 (20161225.0304)
 -->
<!-- Title: a_graph Pages: 1 -->
<svg width="1495pt" height="200pt"
 viewBox="0.00 0.00 1495.00 200.00" xmlns="http://www.w3.org/2000/svg" xmlns:xlink="http://www.w3.org/1999/xlink">
<g id="graph0" class="graph" transform="scale(1 1) rotate(0) translate(4 196)">
<title>a_graph</title>
<polygon fill="#ffffff" stroke="transparent" points="-4,4 -4,-196 1491,-196 1491,4 -4,4"/>
<!-- T18905 -->
<g id="node1" class="node">
<title>T18905</title>
<polygon fill="none" stroke="#0058ad" points="154,-162.5 154,-191.5 917,-191.5 917,-162.5 154,-162.5"/>
<text text-anchor="middle" x="478.5" y="-173.3" font-family="Times,serif" font-size="14.00" fill="#0058ad">r 95 [1 2 3 4 5 7 8 9 10 11 12 13 14 15 16 17 18 19 20 21 22 23 24 25 26 27 28 29 30 32 31 33 34 35 36 37 39 38]</text>
<polyline fill="none" stroke="#0058ad" points="803,-162.5 803,-191.5 "/>
<text text-anchor="middle" x="831.5" y="-173.3" font-family="Times,serif" font-size="14.00" fill="#0058ad">a 94 93</text>
<polyline fill="none" stroke="#0058ad" points="860,-162.5 860,-191.5 "/>
<text text-anchor="middle" x="888.5" y="-173.3" font-family="Times,serif" font-size="14.00" fill="#0058ad">a 94 94</text>
</g>
<!-- T18901 -->
<g id="node3" class="node">
<title>T18901</title>
<polygon fill="none" stroke="#0058ad" points="594.5,-81.5 594.5,-110.5 708.5,-110.5 708.5,-81.5 594.5,-81.5"/>
<text text-anchor="middle" x="623" y="-92.3" font-family="Times,serif" font-size="14.00" fill="#0058ad">a 95 40</text>
<polyline fill="none" stroke="#0058ad" points="651.5,-81.5 651.5,-110.5 "/>
<text text-anchor="middle" x="680" y="-92.3" font-family="Times,serif" font-size="14.00" fill="#0058ad">a 92 67</text>
</g>
<!-- T18905&#45;&gt;T18901 -->
<g id="edge1" class="edge">
<title>T18905:f0&#45;&gt;T18901:f0</title>
<path fill="none" stroke="#5b00c0" d="M478.5,-162C478.5,-106.0434 528.9444,-96.926 584.456,-96.0727"/>
<polygon fill="#5b00c0" stroke="#5b00c0" points="584.5256,-99.5724 594.5,-96 584.4749,-92.5725 584.5256,-99.5724"/>
<text text-anchor="middle" x="494" y="-132.8" font-family="Times,serif" font-size="14.00" fill="#5b00c0">rw</text>
</g>
<!-- T18903 -->
<g id="node2" class="node">
<title>T18903</title>
<polygon fill="none" stroke="#0058ad" points="0,-.5 0,-29.5 1487,-29.5 1487,-.5 0,-.5"/>
<text text-anchor="middle" x="743.5" y="-11.3" font-family="Times,serif" font-size="14.00" fill="#0058ad">r 94 [1 2 3 4 5 6 7 8 9 10 11 12 13 14 15 16 17 18 19 20 21 22 23 24 25 26 27 28 29 30 31 32 33 34 35 36 37 38 39 40 41 42 43 44 46 47 48 49 50 51 52 53 54 55 56 57 58 59 60 61 62 63 64 65 66 67 69 70 68 71 72 74 76 77 80 78 79 81 82 84 85 87 88 89 90 91 92]</text>
</g>
<!-- T18903&#45;&gt;T18905 -->
<g id="edge2" class="edge">
<title>T18903:f0&#45;&gt;T18905:f1</title>
<path fill="none" stroke="#5b00c0" d="M759.6406,-29.5526C783.5072,-52.6552 825.9518,-100.4168 831.0041,-151.9871"/>
<polygon fill="#5b00c0" stroke="#5b00c0" points="827.5095,-152.1854 831.5,-162 834.5009,-151.8391 827.5095,-152.1854"/>
<text text-anchor="middle" x="826" y="-92.3" font-family="Times,serif" font-size="14.00" fill="#5b00c0">rw</text>
</g>
<!-- T18901&#45;&gt;T18903 -->
<g id="edge3" class="edge">
<title>T18901&#45;&gt;T18903</title>
<path fill="none" stroke="#0050c0" d="M668.3742,-81.1434C682.51,-68.6978 702.8794,-50.7638 718.8429,-36.709"/>
<polygon fill="#0050c0" stroke="#0050c0" points="721.5401,-38.9976 726.7328,-29.7625 716.9144,-33.7437 721.5401,-38.9976"/>
<text text-anchor="middle" x="711" y="-51.8" font-family="Times,serif" font-size="14.00" fill="#0050c0">rt</text>
</g>
</g>
</svg>
