<?xml version="1.0" encoding="UTF-8" standalone="no"?>
<!DOCTYPE svg PUBLIC "-//W3C//DTD SVG 1.1//EN"
 "http://www.w3.org/Graphics/SVG/1.1/DTD/svg11.dtd">
<!-- Generated by graphviz version 2.40.1 (20161225.0304)
 -->
<!-- Title: a_graph Pages: 1 -->
<svg width="2225pt" height="200pt"
 viewBox="0.00 0.00 2225.00 200.00" xmlns="http://www.w3.org/2000/svg" xmlns:xlink="http://www.w3.org/1999/xlink">
<g id="graph0" class="graph" transform="scale(1 1) rotate(0) translate(4 196)">
<title>a_graph</title>
<polygon fill="#ffffff" stroke="transparent" points="-4,4 -4,-196 2221,-196 2221,4 -4,4"/>
<!-- T4137 -->
<g id="node1" class="node">
<title>T4137</title>
<polygon fill="none" stroke="#0058ad" points="0,-162.5 0,-191.5 2217,-191.5 2217,-162.5 0,-162.5"/>
<text text-anchor="middle" x="912" y="-173.3" font-family="Times,serif" font-size="14.00" fill="#0058ad">r 23 [1 2 3 4 5 6 7 8 9 11 12 13 14 15 16 17 18 19 20 21 22 23 25 26 27 29 30 31 32 33 34 35 37 36 38 40 41 42 39 44 43 45 46 47 48 49 50 51 52 53 54 55 56 57 58 59 60 61 62 63 64 65 66 67 68 69 70 71 72 73 74 75 76 77 79 80 81 82 83 84 85 86 87 88 89 91 90 92 93 94 95 97 98 99 100 101 104 105 106 108 107 109 110]</text>
<polyline fill="none" stroke="#0058ad" points="1824,-162.5 1824,-191.5 "/>
<text text-anchor="middle" x="2020.5" y="-173.3" font-family="Times,serif" font-size="14.00" fill="#0058ad">r 25 [1 4 5 7 10 12 13 9 14 16 18 19 17 20 21 22 23 24 25 26 27 28]</text>
</g>
<!-- T4139 -->
<g id="node2" class="node">
<title>T4139</title>
<polygon fill="none" stroke="#0058ad" points="1294.5,-81.5 1294.5,-110.5 1734.5,-110.5 1734.5,-81.5 1294.5,-81.5"/>
<text text-anchor="middle" x="1326.5" y="-92.3" font-family="Times,serif" font-size="14.00" fill="#0058ad">a 23 111</text>
<polyline fill="none" stroke="#0058ad" points="1358.5,-81.5 1358.5,-110.5 "/>
<text text-anchor="middle" x="1546.5" y="-92.3" font-family="Times,serif" font-size="14.00" fill="#0058ad">r 25 [1 4 5 7 10 12 13 9 14 16 18 19 17 20 21 22 23 24 25 26 27]</text>
</g>
<!-- T4137&#45;&gt;T4139 -->
<g id="edge1" class="edge">
<title>T4137:f0&#45;&gt;T4139:f0</title>
<path fill="none" stroke="#5b00c0" d="M911.5,-162C911.5,-121.2631 1213.9125,-98.6501 1284.423,-96.2192"/>
<polygon fill="#5b00c0" stroke="#5b00c0" points="1284.5785,-99.7167 1294.5,-96 1284.4262,-92.7184 1284.5785,-99.7167"/>
<text text-anchor="middle" x="985" y="-132.8" font-family="Times,serif" font-size="14.00" fill="#5b00c0">rw</text>
</g>
<!-- T4135 -->
<g id="node3" class="node">
<title>T4135</title>
<polygon fill="none" stroke="#0058ad" points="1704.5,-.5 1704.5,-29.5 1818.5,-29.5 1818.5,-.5 1704.5,-.5"/>
<text text-anchor="middle" x="1733" y="-11.3" font-family="Times,serif" font-size="14.00" fill="#0058ad">a 21 75</text>
<polyline fill="none" stroke="#0058ad" points="1761.5,-.5 1761.5,-29.5 "/>
<text text-anchor="middle" x="1790" y="-11.3" font-family="Times,serif" font-size="14.00" fill="#0058ad">a 25 28</text>
</g>
<!-- T4139&#45;&gt;T4135 -->
<g id="edge2" class="edge">
<title>T4139:f1&#45;&gt;T4135:f1</title>
<path fill="none" stroke="#5b00c0" d="M1734.5,-96C1769.5132,-96 1787.181,-73.1942 1790.073,-40.0918"/>
<polygon fill="#5b00c0" stroke="#5b00c0" points="1793.5741,-40.139 1790.5,-30 1786.5803,-39.8431 1793.5741,-40.139"/>
<text text-anchor="middle" x="1797" y="-51.8" font-family="Times,serif" font-size="14.00" fill="#5b00c0">rw</text>
</g>
<!-- T4135&#45;&gt;T4137 -->
<g id="edge3" class="edge">
<title>T4135:f1&#45;&gt;T4137:f1</title>
<path fill="none" stroke="#c000a5" d="M1818.5,-15C1926.0639,-15 2014.795,-48.7535 2020.2357,-151.8093"/>
<polygon fill="#c000a5" stroke="#c000a5" points="2016.7418,-152.0942 2020.5,-162 2023.7394,-151.9126 2016.7418,-152.0942"/>
<text text-anchor="middle" x="2020" y="-92.3" font-family="Times,serif" font-size="14.00" fill="#c000a5">wr</text>
</g>
</g>
</svg>
