<?xml version="1.0" encoding="UTF-8" standalone="no"?>
<!DOCTYPE svg PUBLIC "-//W3C//DTD SVG 1.1//EN"
 "http://www.w3.org/Graphics/SVG/1.1/DTD/svg11.dtd">
<!-- Generated by graphviz version 2.40.1 (20161225.0304)
 -->
<!-- Title: a_graph Pages: 1 -->
<svg width="1304pt" height="119pt"
 viewBox="0.00 0.00 1304.00 119.00" xmlns="http://www.w3.org/2000/svg" xmlns:xlink="http://www.w3.org/1999/xlink">
<g id="graph0" class="graph" transform="scale(1 1) rotate(0) translate(4 115)">
<title>a_graph</title>
<polygon fill="#ffffff" stroke="transparent" points="-4,4 -4,-115 1300,-115 1300,4 -4,4"/>
<!-- T12949 -->
<g id="node1" class="node">
<title>T12949</title>
<polygon fill="none" stroke="#0058ad" points="866,-81.5 866,-110.5 1126,-110.5 1126,-81.5 866,-81.5"/>
<text text-anchor="middle" x="910.5" y="-92.3" font-family="Times,serif" font-size="14.00" fill="#0058ad">r 66 [1 2 3 4]</text>
<polyline fill="none" stroke="#0058ad" points="955,-81.5 955,-110.5 "/>
<text text-anchor="middle" x="983.5" y="-92.3" font-family="Times,serif" font-size="14.00" fill="#0058ad">a 65 74</text>
<polyline fill="none" stroke="#0058ad" points="1012,-81.5 1012,-110.5 "/>
<text text-anchor="middle" x="1040.5" y="-92.3" font-family="Times,serif" font-size="14.00" fill="#0058ad">a 65 75</text>
<polyline fill="none" stroke="#0058ad" points="1069,-81.5 1069,-110.5 "/>
<text text-anchor="middle" x="1097.5" y="-92.3" font-family="Times,serif" font-size="14.00" fill="#0058ad">a 65 76</text>
</g>
<!-- T12953 -->
<g id="node2" class="node">
<title>T12953</title>
<polygon fill="none" stroke="#0058ad" points="0,-.5 0,-29.5 1296,-29.5 1296,-.5 0,-.5"/>
<text text-anchor="middle" x="623" y="-11.3" font-family="Times,serif" font-size="14.00" fill="#0058ad">r 65 [1 2 3 4 6 7 5 8 9 11 12 13 14 15 16 17 18 19 20 10 24 23 21 22 25 27 28 29 30 26 31 32 33 35 34 37 38 36 39 42 43 40 41 44 45 46 47 50 48 49 51 52 53 54 55 56 57 59 61 62 63 60 64 65 66 58 67 68 70 69 72 73 71]</text>
<polyline fill="none" stroke="#0058ad" points="1246,-.5 1246,-29.5 "/>
<text text-anchor="middle" x="1271" y="-11.3" font-family="Times,serif" font-size="14.00" fill="#0058ad">a 66 5</text>
</g>
<!-- T12949&#45;&gt;T12953 -->
<g id="edge1" class="edge">
<title>T12949:f0&#45;&gt;T12953:f1</title>
<path fill="none" stroke="#5b00c0" d="M910,-81C910,-62.0498 920.0999,-56.5731 937,-48 967.296,-32.6315 1221.2675,-61.3711 1264.6952,-38.041"/>
<polygon fill="#5b00c0" stroke="#5b00c0" points="1267.584,-40.029 1271,-30 1262.0754,-35.7098 1267.584,-40.029"/>
<text text-anchor="middle" x="944.5" y="-51.8" font-family="Times,serif" font-size="14.00" fill="#5b00c0">rw</text>
</g>
<!-- T12953&#45;&gt;T12949 -->
<g id="edge2" class="edge">
<title>T12953:f0&#45;&gt;T12949:f1</title>
<path fill="none" stroke="#5b00c0" d="M623,-30C623,-66.6102 918.8093,-32.5506 952,-48 966.6803,-54.8333 977.8077,-59.0074 981.5943,-70.8624"/>
<polygon fill="#5b00c0" stroke="#5b00c0" points="978.1596,-71.5755 983,-81 985.0933,-70.614 978.1596,-71.5755"/>
<text text-anchor="middle" x="983.5" y="-51.8" font-family="Times,serif" font-size="14.00" fill="#5b00c0">rw</text>
</g>
</g>
</svg>
