<?xml version="1.0" encoding="UTF-8" standalone="no"?>
<!DOCTYPE svg PUBLIC "-//W3C//DTD SVG 1.1//EN"
 "http://www.w3.org/Graphics/SVG/1.1/DTD/svg11.dtd">
<!-- Generated by graphviz version 2.40.1 (20161225.0304)
 -->
<!-- Title: a_graph Pages: 1 -->
<svg width="907pt" height="119pt"
 viewBox="0.00 0.00 906.50 119.00" xmlns="http://www.w3.org/2000/svg" xmlns:xlink="http://www.w3.org/1999/xlink">
<g id="graph0" class="graph" transform="scale(1 1) rotate(0) translate(4 115)">
<title>a_graph</title>
<polygon fill="#ffffff" stroke="transparent" points="-4,4 -4,-115 902.5,-115 902.5,4 -4,4"/>
<!-- T14899 -->
<g id="node1" class="node">
<title>T14899</title>
<polygon fill="none" stroke="#0058ad" points="0,-81.5 0,-110.5 283,-110.5 283,-81.5 0,-81.5"/>
<text text-anchor="middle" x="28.5" y="-92.3" font-family="Times,serif" font-size="14.00" fill="#0058ad">a 71 11</text>
<polyline fill="none" stroke="#0058ad" points="57,-81.5 57,-110.5 "/>
<text text-anchor="middle" x="141.5" y="-92.3" font-family="Times,serif" font-size="14.00" fill="#0058ad">r 78 [2 3 4 5 6 12 13 14 17]</text>
<polyline fill="none" stroke="#0058ad" points="226,-81.5 226,-110.5 "/>
<text text-anchor="middle" x="254.5" y="-92.3" font-family="Times,serif" font-size="14.00" fill="#0058ad">a 77 26</text>
</g>
<!-- T14895 -->
<g id="node2" class="node">
<title>T14895</title>
<polygon fill="none" stroke="#0058ad" points="86.5,-.5 86.5,-29.5 898.5,-29.5 898.5,-.5 86.5,-.5"/>
<text text-anchor="middle" x="115" y="-11.3" font-family="Times,serif" font-size="14.00" fill="#0058ad">a 78 10</text>
<polyline fill="none" stroke="#0058ad" points="143.5,-.5 143.5,-29.5 "/>
<text text-anchor="middle" x="335" y="-11.3" font-family="Times,serif" font-size="14.00" fill="#0058ad">r 77 [1 2 3 4 5 6 7 8 9 10 11 12 13 14 15 16 17 18 19 20 21 23 24]</text>
<polyline fill="none" stroke="#0058ad" points="526.5,-.5 526.5,-29.5 "/>
<text text-anchor="middle" x="619.5" y="-11.3" font-family="Times,serif" font-size="14.00" fill="#0058ad">r 78 [2 3 4 5 6 12 13 14 17 10]</text>
<polyline fill="none" stroke="#0058ad" points="712.5,-.5 712.5,-29.5 "/>
<text text-anchor="middle" x="805.5" y="-11.3" font-family="Times,serif" font-size="14.00" fill="#0058ad">r 78 [2 3 4 5 6 12 13 14 17 10]</text>
</g>
<!-- T14899&#45;&gt;T14895 -->
<g id="edge1" class="edge">
<title>T14899:f1&#45;&gt;T14895:f0</title>
<path fill="none" stroke="#5b00c0" d="M141.5,-81C141.5,-59.1598 121.9207,-56.1314 116.1081,-39.8759"/>
<polygon fill="#5b00c0" stroke="#5b00c0" points="119.5617,-39.3075 114.5,-30 112.6527,-40.4325 119.5617,-39.3075"/>
<text text-anchor="middle" x="143" y="-51.8" font-family="Times,serif" font-size="14.00" fill="#5b00c0">rw</text>
</g>
<!-- T14895&#45;&gt;T14899 -->
<g id="edge2" class="edge">
<title>T14895:f1&#45;&gt;T14899:f2</title>
<path fill="none" stroke="#5b00c0" d="M334.5,-30C334.5,-68.213 268.7969,-44.4202 256.4775,-71.0071"/>
<polygon fill="#5b00c0" stroke="#5b00c0" points="253.008,-70.5108 254.5,-81 259.8748,-71.8697 253.008,-70.5108"/>
<text text-anchor="middle" x="332" y="-51.8" font-family="Times,serif" font-size="14.00" fill="#5b00c0">rw</text>
</g>
</g>
</svg>
