<?xml version="1.0" encoding="UTF-8" standalone="no"?>
<!DOCTYPE svg PUBLIC "-//W3C//DTD SVG 1.1//EN"
 "http://www.w3.org/Graphics/SVG/1.1/DTD/svg11.dtd">
<!-- Generated by graphviz version 2.40.1 (20161225.0304)
 -->
<!-- Title: a_graph Pages: 1 -->
<svg width="4288pt" height="119pt"
 viewBox="0.00 0.00 4288.00 119.00" xmlns="http://www.w3.org/2000/svg" xmlns:xlink="http://www.w3.org/1999/xlink">
<g id="graph0" class="graph" transform="scale(1 1) rotate(0) translate(4 115)">
<title>a_graph</title>
<polygon fill="#ffffff" stroke="transparent" points="-4,4 -4,-115 4284,-115 4284,4 -4,4"/>
<!-- T13625 -->
<g id="node1" class="node">
<title>T13625</title>
<polygon fill="none" stroke="#0058ad" points="1513.5,-81.5 1513.5,-110.5 2194.5,-110.5 2194.5,-81.5 1513.5,-81.5"/>
<text text-anchor="middle" x="1653.5" y="-92.3" font-family="Times,serif" font-size="14.00" fill="#0058ad">r 70 [1 2 3 4 5 6 7 8 9 10 11 12 15 16 13 14 17]</text>
<polyline fill="none" stroke="#0058ad" points="1793.5,-81.5 1793.5,-110.5 "/>
<text text-anchor="middle" x="1825.5" y="-92.3" font-family="Times,serif" font-size="14.00" fill="#0058ad">a 66 114</text>
<polyline fill="none" stroke="#0058ad" points="1857.5,-81.5 1857.5,-110.5 "/>
<text text-anchor="middle" x="1997.5" y="-92.3" font-family="Times,serif" font-size="14.00" fill="#0058ad">r 70 [1 2 3 4 5 6 7 8 9 10 11 12 15 16 13 14 17]</text>
<polyline fill="none" stroke="#0058ad" points="2137.5,-81.5 2137.5,-110.5 "/>
<text text-anchor="middle" x="2166" y="-92.3" font-family="Times,serif" font-size="14.00" fill="#0058ad">a 67 48</text>
</g>
<!-- T13627 -->
<g id="node2" class="node">
<title>T13627</title>
<polygon fill="none" stroke="#0058ad" points="0,-.5 0,-29.5 4280,-29.5 4280,-.5 0,-.5"/>
<text text-anchor="middle" x="140" y="-11.3" font-family="Times,serif" font-size="14.00" fill="#0058ad">r 70 [1 2 3 4 5 6 7 8 9 10 11 12 15 16 13 14 17]</text>
<polyline fill="none" stroke="#0058ad" points="280,-.5 280,-29.5 "/>
<text text-anchor="middle" x="1243.5" y="-11.3" font-family="Times,serif" font-size="14.00" fill="#0058ad">r 66 [1 2 3 4 5 6 7 8 9 10 12 11 14 13 16 17 15 18 19 20 21 22 23 24 27 26 28 25 29 30 31 32 33 34 36 35 37 38 39 40 42 44 43 48 49 52 53 57 54 58 59 55 56 60 61 62 63 64 65 67 68 66 70 71 69 72 73 74 75 76 78 77 80 81 82 79 84 83 85 86 87 88 89 90 91 92 93 96 97 94 95 98 99 100 101 102 103 104 105 106 107 108 109 111 110 113 112]</text>
<polyline fill="none" stroke="#0058ad" points="2207,-.5 2207,-29.5 "/>
<text text-anchor="middle" x="2235.5" y="-11.3" font-family="Times,serif" font-size="14.00" fill="#0058ad">a 70 20</text>
<polyline fill="none" stroke="#0058ad" points="2264,-.5 2264,-29.5 "/>
<text text-anchor="middle" x="3272" y="-11.3" font-family="Times,serif" font-size="14.00" fill="#0058ad">r 56 [1 2 3 4 5 6 7 8 9 10 11 12 13 14 15 17 19 18 20 21 23 22 24 25 26 27 28 29 30 32 31 34 35 36 37 38 39 40 41 42 43 44 45 46 47 48 49 50 51 52 53 54 55 56 57 58 59 60 61 63 64 62 65 66 67 68 69 70 71 72 73 74 75 76 77 78 79 80 81 82 83 84 85 86 87 88 89 90 93 95 96 97 98 99 100 101 102 103 104 105 106 107 108 109 110 111 112 114 113 115 116]</text>
</g>
<!-- T13625&#45;&gt;T13627 -->
<g id="edge1" class="edge">
<title>T13625:f0&#45;&gt;T13627:f2</title>
<path fill="none" stroke="#5b00c0" d="M1653,-81C1653,-33.3532 1708.0822,-56.3029 1755,-48 1779.2232,-43.7133 2165.9288,-54.7105 2227.7067,-35.6818"/>
<polygon fill="#5b00c0" stroke="#5b00c0" points="2229.7285,-38.5393 2236,-30 2225.7722,-32.7645 2229.7285,-38.5393"/>
<text text-anchor="middle" x="1762.5" y="-51.8" font-family="Times,serif" font-size="14.00" fill="#5b00c0">rw</text>
</g>
<!-- T13627&#45;&gt;T13625 -->
<g id="edge2" class="edge">
<title>T13627:f1&#45;&gt;T13625:f1</title>
<path fill="none" stroke="#5b00c0" d="M1243,-30C1243,-59.2949 1741.9057,-39.6994 1770,-48 1793.4941,-54.9414 1817.2266,-53.2706 1823.4368,-70.7558"/>
<polygon fill="#5b00c0" stroke="#5b00c0" points="1820.0315,-71.6424 1825,-81 1826.9514,-70.5864 1820.0315,-71.6424"/>
<text text-anchor="middle" x="1826.5" y="-51.8" font-family="Times,serif" font-size="14.00" fill="#5b00c0">rw</text>
</g>
</g>
</svg>
