<?xml version="1.0" encoding="UTF-8" standalone="no"?>
<!DOCTYPE svg PUBLIC "-//W3C//DTD SVG 1.1//EN"
 "http://www.w3.org/Graphics/SVG/1.1/DTD/svg11.dtd">
<!-- Generated by graphviz version 2.40.1 (20161225.0304)
 -->
<!-- Title: a_graph Pages: 1 -->
<svg width="2901pt" height="119pt"
 viewBox="0.00 0.00 2901.00 119.00" xmlns="http://www.w3.org/2000/svg" xmlns:xlink="http://www.w3.org/1999/xlink">
<g id="graph0" class="graph" transform="scale(1 1) rotate(0) translate(4 115)">
<title>a_graph</title>
<polygon fill="#ffffff" stroke="transparent" points="-4,4 -4,-115 2897,-115 2897,4 -4,4"/>
<!-- T13879 -->
<g id="node1" class="node">
<title>T13879</title>
<polygon fill="none" stroke="#0058ad" points="0,-81.5 0,-110.5 2893,-110.5 2893,-81.5 0,-81.5"/>
<text text-anchor="middle" x="692" y="-92.3" font-family="Times,serif" font-size="14.00" fill="#0058ad">r 70 [1 2 3 4 5 6 7 8 9 10 11 12 15 16 13 14 17 20 21 22 18 19 23 24 25 26 27 28 33 34 29 30 31 32 35 36 37 38 41 39 42 43 47 44 48 49 52 51 54 60 61 62 63 64 65 66 67 68 69 70 71 72 73 76 77 79 74 75 80 78 82 83 81 85 86 87 88 91 92 93 94]</text>
<polyline fill="none" stroke="#0058ad" points="1384,-81.5 1384,-110.5 "/>
<text text-anchor="middle" x="2076" y="-92.3" font-family="Times,serif" font-size="14.00" fill="#0058ad">r 70 [1 2 3 4 5 6 7 8 9 10 11 12 15 16 13 14 17 20 21 22 18 19 23 24 25 26 27 28 33 34 29 30 31 32 35 36 37 38 41 39 42 43 47 44 48 49 52 51 54 60 61 62 63 64 65 66 67 68 69 70 71 72 73 76 77 79 74 75 80 78 82 83 81 85 86 87 88 91 92 93 94]</text>
<polyline fill="none" stroke="#0058ad" points="2768,-81.5 2768,-110.5 "/>
<text text-anchor="middle" x="2802" y="-92.3" font-family="Times,serif" font-size="14.00" fill="#0058ad">r 73 [1 2]</text>
<polyline fill="none" stroke="#0058ad" points="2836,-81.5 2836,-110.5 "/>
<text text-anchor="middle" x="2864.5" y="-92.3" font-family="Times,serif" font-size="14.00" fill="#0058ad">a 72 29</text>
</g>
<!-- T13875 -->
<g id="node2" class="node">
<title>T13875</title>
<polygon fill="none" stroke="#0058ad" points="971,-.5 971,-29.5 2848,-29.5 2848,-.5 971,-.5"/>
<text text-anchor="middle" x="1143.5" y="-11.3" font-family="Times,serif" font-size="14.00" fill="#0058ad">r 72 [1 2 3 7 8 6 11 5 12 15 18 19 20 21 22 25 23 24 26 27]</text>
<polyline fill="none" stroke="#0058ad" points="1316,-.5 1316,-29.5 "/>
<text text-anchor="middle" x="1344.5" y="-11.3" font-family="Times,serif" font-size="14.00" fill="#0058ad">a 70 89</text>
<polyline fill="none" stroke="#0058ad" points="1373,-.5 1373,-29.5 "/>
<text text-anchor="middle" x="1401.5" y="-11.3" font-family="Times,serif" font-size="14.00" fill="#0058ad">a 70 90</text>
<polyline fill="none" stroke="#0058ad" points="1430,-.5 1430,-29.5 "/>
<text text-anchor="middle" x="2139" y="-11.3" font-family="Times,serif" font-size="14.00" fill="#0058ad">r 70 [1 2 3 4 5 6 7 8 9 10 11 12 15 16 13 14 17 20 21 22 18 19 23 24 25 26 27 28 33 34 29 30 31 32 35 36 37 38 41 39 42 43 47 44 48 49 52 51 54 60 61 62 63 64 65 66 67 68 69 70 71 72 73 76 77 79 74 75 80 78 82 83 81 85 86 87 88 91 92 93 94 89 90]</text>
</g>
<!-- T13879&#45;&gt;T13875 -->
<g id="edge1" class="edge">
<title>T13879:f0&#45;&gt;T13875:f1</title>
<path fill="none" stroke="#5b00c0" d="M691.5,-81C691.5,60.9995 1313.0045,-164.059 1343.3513,-39.9822"/>
<polygon fill="#5b00c0" stroke="#5b00c0" points="1346.8338,-40.3346 1344.5,-30 1339.8797,-39.5343 1346.8338,-40.3346"/>
<text text-anchor="middle" x="1346" y="-51.8" font-family="Times,serif" font-size="14.00" fill="#5b00c0">rw</text>
</g>
<!-- T13875&#45;&gt;T13879 -->
<g id="edge2" class="edge">
<title>T13875:f0&#45;&gt;T13879:f3</title>
<path fill="none" stroke="#5b00c0" d="M1143.5,-30C1143.5,-52.8624 2716.5638,-56.7678 2854.8214,-77.964"/>
<polygon fill="#5b00c0" stroke="#5b00c0" points="2853.9108,-81.3465 2864.5,-81 2856.006,-74.6674 2853.9108,-81.3465"/>
<text text-anchor="middle" x="2410" y="-51.8" font-family="Times,serif" font-size="14.00" fill="#5b00c0">rw</text>
</g>
</g>
</svg>
