<?xml version="1.0" encoding="UTF-8" standalone="no"?>
<!DOCTYPE svg PUBLIC "-//W3C//DTD SVG 1.1//EN"
 "http://www.w3.org/Graphics/SVG/1.1/DTD/svg11.dtd">
<!-- Generated by graphviz version 2.40.1 (20161225.0304)
 -->
<!-- Title: a_graph Pages: 1 -->
<svg width="4790pt" height="200pt"
 viewBox="0.00 0.00 4790.00 200.00" xmlns="http://www.w3.org/2000/svg" xmlns:xlink="http://www.w3.org/1999/xlink">
<g id="graph0" class="graph" transform="scale(1 1) rotate(0) translate(4 196)">
<title>a_graph</title>
<polygon fill="#ffffff" stroke="transparent" points="-4,4 -4,-196 4786,-196 4786,4 -4,4"/>
<!-- T14499 -->
<g id="node1" class="node">
<title>T14499</title>
<polygon fill="none" stroke="#0058ad" points="1673.5,-162.5 1673.5,-191.5 4158.5,-191.5 4158.5,-162.5 1673.5,-162.5"/>
<text text-anchor="middle" x="1702" y="-173.3" font-family="Times,serif" font-size="14.00" fill="#0058ad">a 75 34</text>
<polyline fill="none" stroke="#0058ad" points="1730.5,-162.5 1730.5,-191.5 "/>
<text text-anchor="middle" x="1887.5" y="-173.3" font-family="Times,serif" font-size="14.00" fill="#0058ad">r 69 [1 3 2 4 5 6 7 8 9 10 11 12 13 14 15 16 17 18 19]</text>
<polyline fill="none" stroke="#0058ad" points="2044.5,-162.5 2044.5,-191.5 "/>
<text text-anchor="middle" x="2073" y="-173.3" font-family="Times,serif" font-size="14.00" fill="#0058ad">a 75 35</text>
<polyline fill="none" stroke="#0058ad" points="2101.5,-162.5 2101.5,-191.5 "/>
<text text-anchor="middle" x="3130" y="-173.3" font-family="Times,serif" font-size="14.00" fill="#0058ad">r 67 [1 2 3 4 5 6 7 8 9 11 10 12 13 14 15 16 17 18 21 22 23 24 26 25 27 28 29 30 31 32 33 34 35 36 38 37 39 40 41 42 43 44 45 46 47 48 49 50 51 52 53 54 55 56 57 59 61 62 64 63 65 67 68 69 70 66 71 72 73 74 75 76 77 78 79 80 81 82 83 84 86 85 87 88 89 91 90 92 93 94 95 96 97 98 99 100 101 102 104 103 105 106 107 110 111 112 113 114 115 116 117 118 119]</text>
</g>
<!-- T14501 -->
<g id="node2" class="node">
<title>T14501</title>
<polygon fill="none" stroke="#0058ad" points="89.5,-81.5 89.5,-110.5 2362.5,-110.5 2362.5,-81.5 89.5,-81.5"/>
<text text-anchor="middle" x="121.5" y="-92.3" font-family="Times,serif" font-size="14.00" fill="#0058ad">a 67 120</text>
<polyline fill="none" stroke="#0058ad" points="153.5,-81.5 153.5,-110.5 "/>
<text text-anchor="middle" x="185.5" y="-92.3" font-family="Times,serif" font-size="14.00" fill="#0058ad">a 67 121</text>
<polyline fill="none" stroke="#0058ad" points="217.5,-81.5 217.5,-110.5 "/>
<text text-anchor="middle" x="1258" y="-92.3" font-family="Times,serif" font-size="14.00" fill="#0058ad">r 72 [1 2 3 7 8 6 11 5 12 15 18 19 20 21 22 25 23 24 26 27 29 30 31 32 33 34 35 36 37 38 28 39 41 40 42 43 44 46 45 47 48 49 50 51 52 53 54 56 57 55 58 59 60 61 62 64 65 63 66 67 68 69 70 72 71 73 75 76 77 74 78 79 81 80 82 83 84 85 86 88 87 89 91 92 94 95 96 97 98 99 101 102 104 103 100 105 106 107 108 109 110 111 112 113 114 115 116 117 120 119 118 121]</text>
<polyline fill="none" stroke="#0058ad" points="2298.5,-81.5 2298.5,-110.5 "/>
<text text-anchor="middle" x="2330.5" y="-92.3" font-family="Times,serif" font-size="14.00" fill="#0058ad">a 67 122</text>
</g>
<!-- T14499&#45;&gt;T14501 -->
<g id="edge1" class="edge">
<title>T14499:f3&#45;&gt;T14501:f0</title>
<path fill="none" stroke="#5b00c0" d="M3130,-162C3130,-80.8537 294.7259,-187.9588 128.5966,-117.8429"/>
<polygon fill="#5b00c0" stroke="#5b00c0" points="130.7726,-115.0923 121,-111 126.0876,-120.2934 130.7726,-115.0923"/>
<text text-anchor="middle" x="3052.5" y="-132.8" font-family="Times,serif" font-size="14.00" fill="#5b00c0">rw</text>
</g>
<!-- T14503 -->
<g id="node3" class="node">
<title>T14503</title>
<polygon fill="none" stroke="#0058ad" points="0,-.5 0,-29.5 4782,-29.5 4782,-.5 0,-.5"/>
<text text-anchor="middle" x="32" y="-11.3" font-family="Times,serif" font-size="14.00" fill="#0058ad">a 72 122</text>
<polyline fill="none" stroke="#0058ad" points="64,-.5 64,-29.5 "/>
<text text-anchor="middle" x="1092.5" y="-11.3" font-family="Times,serif" font-size="14.00" fill="#0058ad">r 67 [1 2 3 4 5 6 7 8 9 11 10 12 13 14 15 16 17 18 21 22 23 24 26 25 27 28 29 30 31 32 33 34 35 36 38 37 39 40 41 42 43 44 45 46 47 48 49 50 51 52 53 54 55 56 57 59 61 62 64 63 65 67 68 69 70 66 71 72 73 74 75 76 77 78 79 80 81 82 83 84 86 85 87 88 89 91 90 92 93 94 95 96 97 98 99 100 101 102 104 103 105 106 107 110 111 112 113 114 115 116 117 118 119]</text>
<polyline fill="none" stroke="#0058ad" points="2121,-.5 2121,-29.5 "/>
<text text-anchor="middle" x="2399" y="-11.3" font-family="Times,serif" font-size="14.00" fill="#0058ad">r 75 [2 3 4 5 7 6 10 11 12 8 9 1 13 14 15 16 17 18 19 20 21 23 24 25 26 22 27 28 30 31 29 32 33]</text>
<polyline fill="none" stroke="#0058ad" points="2677,-.5 2677,-29.5 "/>
<text text-anchor="middle" x="3729.5" y="-11.3" font-family="Times,serif" font-size="14.00" fill="#0058ad">r 72 [1 2 3 7 8 6 11 5 12 15 18 19 20 21 22 25 23 24 26 27 29 30 31 32 33 34 35 36 37 38 28 39 41 40 42 43 44 46 45 47 48 49 50 51 52 53 54 56 57 55 58 59 60 61 62 64 65 63 66 67 68 69 70 72 71 73 75 76 77 74 78 79 81 80 82 83 84 85 86 88 87 89 91 92 94 95 96 97 98 99 101 102 104 103 100 105 106 107 108 109 110 111 112 113 114 115 116 117 120 119 118 121 122]</text>
</g>
<!-- T14501&#45;&gt;T14503 -->
<g id="edge2" class="edge">
<title>T14501:f2&#45;&gt;T14503:f0</title>
<path fill="none" stroke="#5b00c0" d="M1258,-81C1258,-61.8546 588.1271,-63.8373 569,-63 453.0553,-57.9245 56.2103,-144.2636 33.0572,-39.9716"/>
<polygon fill="#5b00c0" stroke="#5b00c0" points="36.5349,-39.5752 32,-30 29.5739,-40.3133 36.5349,-39.5752"/>
<text text-anchor="middle" x="576.5" y="-51.8" font-family="Times,serif" font-size="14.00" fill="#5b00c0">rw</text>
</g>
<!-- T14503&#45;&gt;T14499 -->
<g id="edge4" class="edge">
<title>T14503:f2&#45;&gt;T14499:f0</title>
<path fill="none" stroke="#5b00c0" d="M2399,-30C2399,-67.9473 2401.9196,-87.6587 2372,-111 2315.8937,-154.7704 1758.0804,-93.6098 1705.9086,-152.425"/>
<polygon fill="#5b00c0" stroke="#5b00c0" points="1702.539,-151.4189 1702,-162 1709.0199,-154.0645 1702.539,-151.4189"/>
<text text-anchor="middle" x="2402.5" y="-92.3" font-family="Times,serif" font-size="14.00" fill="#5b00c0">rw</text>
</g>
<!-- T14503&#45;&gt;T14501 -->
<g id="edge3" class="edge">
<title>T14503:f1&#45;&gt;T14501:f0</title>
<path fill="none" stroke="#5b00c0" d="M1092,-30C1092,-143.1268 696.9747,-57.1355 584,-63 572.2762,-63.6086 196.7493,-67.3742 130.8293,-77.7981"/>
<polygon fill="#5b00c0" stroke="#5b00c0" points="129.4241,-74.5747 121,-81 131.5923,-81.2305 129.4241,-74.5747"/>
<text text-anchor="middle" x="1094.5" y="-51.8" font-family="Times,serif" font-size="14.00" fill="#5b00c0">rw</text>
</g>
</g>
</svg>
