<?xml version="1.0" encoding="UTF-8" standalone="no"?>
<!DOCTYPE svg PUBLIC "-//W3C//DTD SVG 1.1//EN"
 "http://www.w3.org/Graphics/SVG/1.1/DTD/svg11.dtd">
<!-- Generated by graphviz version 2.40.1 (20161225.0304)
 -->
<!-- Title: a_graph Pages: 1 -->
<svg width="3306pt" height="119pt"
 viewBox="0.00 0.00 3306.00 119.00" xmlns="http://www.w3.org/2000/svg" xmlns:xlink="http://www.w3.org/1999/xlink">
<g id="graph0" class="graph" transform="scale(1 1) rotate(0) translate(4 115)">
<title>a_graph</title>
<polygon fill="#ffffff" stroke="transparent" points="-4,4 -4,-115 3302,-115 3302,4 -4,4"/>
<!-- T3831 -->
<g id="node1" class="node">
<title>T3831</title>
<polygon fill="none" stroke="#0058ad" points="1075.5,-81.5 1075.5,-110.5 2216.5,-110.5 2216.5,-81.5 1075.5,-81.5"/>
<text text-anchor="middle" x="1104" y="-92.3" font-family="Times,serif" font-size="14.00" fill="#0058ad">a 21 55</text>
<polyline fill="none" stroke="#0058ad" points="1132.5,-81.5 1132.5,-110.5 "/>
<text text-anchor="middle" x="1161" y="-92.3" font-family="Times,serif" font-size="14.00" fill="#0058ad">a 23 66</text>
<polyline fill="none" stroke="#0058ad" points="1189.5,-81.5 1189.5,-110.5 "/>
<text text-anchor="middle" x="1674.5" y="-92.3" font-family="Times,serif" font-size="14.00" fill="#0058ad">r 24 [1 2 4 5 3 6 8 9 10 11 7 12 13 14 15 16 18 19 20 17 21 22 23 24 25 26 27 28 29 30 31 32 33 35 34 36 37 38 39 40 41 42 43 44 45 46 48 49 50 47 51 52 53 54 57 58 56]</text>
<polyline fill="none" stroke="#0058ad" points="2159.5,-81.5 2159.5,-110.5 "/>
<text text-anchor="middle" x="2188" y="-92.3" font-family="Times,serif" font-size="14.00" fill="#0058ad">a 23 67</text>
</g>
<!-- T3829 -->
<g id="node2" class="node">
<title>T3829</title>
<polygon fill="none" stroke="#0058ad" points="0,-.5 0,-29.5 3298,-29.5 3298,-.5 0,-.5"/>
<text text-anchor="middle" x="528" y="-11.3" font-family="Times,serif" font-size="14.00" fill="#0058ad">r 23 [1 2 3 4 5 6 7 8 9 11 12 13 14 15 16 17 18 19 20 21 22 23 25 26 27 29 30 31 32 33 34 35 37 36 38 40 41 42 39 44 43 45 46 47 48 49 50 51 52 53 54 55 56 57 58 59 60 61 62 63 64 65]</text>
<polyline fill="none" stroke="#0058ad" points="1056,-.5 1056,-29.5 "/>
<text text-anchor="middle" x="1541" y="-11.3" font-family="Times,serif" font-size="14.00" fill="#0058ad">r 24 [1 2 4 5 3 6 8 9 10 11 7 12 13 14 15 16 18 19 20 17 21 22 23 24 25 26 27 28 29 30 31 32 33 35 34 36 37 38 39 40 41 42 43 44 45 46 48 49 50 47 51 52 53 54 57 58 56]</text>
<polyline fill="none" stroke="#0058ad" points="2026,-.5 2026,-29.5 "/>
<text text-anchor="middle" x="2054.5" y="-11.3" font-family="Times,serif" font-size="14.00" fill="#0058ad">a 24 55</text>
<polyline fill="none" stroke="#0058ad" points="2083,-.5 2083,-29.5 "/>
<text text-anchor="middle" x="2690.5" y="-11.3" font-family="Times,serif" font-size="14.00" fill="#0058ad">r 6 [1 2 3 4 5 6 7 8 9 10 11 14 15 16 17 18 19 20 21 22 23 24 25 26 27 28 29 30 87 88 89 90 91 92 93 94 95 96 97 98 99 100 101 102 103 104 105 106 107 109 108 110 111 113 114 115 116 117 118 119 120 121 122]</text>
</g>
<!-- T3831&#45;&gt;T3829 -->
<g id="edge1" class="edge">
<title>T3831:f2&#45;&gt;T3829:f2</title>
<path fill="none" stroke="#5b00c0" d="M1675,-81C1675,85.7421 2038.8473,-188.163 2054.4813,-40.3549"/>
<polygon fill="#5b00c0" stroke="#5b00c0" points="2057.9953,-40.1626 2055,-30 2051.004,-39.8124 2057.9953,-40.1626"/>
<text text-anchor="middle" x="2060.5" y="-51.8" font-family="Times,serif" font-size="14.00" fill="#5b00c0">rw</text>
</g>
<!-- T3829&#45;&gt;T3831 -->
<g id="edge2" class="edge">
<title>T3829:f0&#45;&gt;T3831:f1</title>
<path fill="none" stroke="#5b00c0" d="M528,-30C528,-167.5393 1129.2636,48.6196 1159.7965,-70.9584"/>
<polygon fill="#5b00c0" stroke="#5b00c0" points="1156.3348,-71.4876 1161,-81 1163.285,-70.6545 1156.3348,-71.4876"/>
<text text-anchor="middle" x="1162.5" y="-51.8" font-family="Times,serif" font-size="14.00" fill="#5b00c0">rw</text>
</g>
</g>
</svg>
