<?xml version="1.0" encoding="UTF-8" standalone="no"?>
<!DOCTYPE svg PUBLIC "-//W3C//DTD SVG 1.1//EN"
 "http://www.w3.org/Graphics/SVG/1.1/DTD/svg11.dtd">
<!-- Generated by graphviz version 2.40.1 (20161225.0304)
 -->
<!-- Title: a_graph Pages: 1 -->
<svg width="2025pt" height="200pt"
 viewBox="0.00 0.00 2025.30 200.00" xmlns="http://www.w3.org/2000/svg" xmlns:xlink="http://www.w3.org/1999/xlink">
<g id="graph0" class="graph" transform="scale(1 1) rotate(0) translate(4 196)">
<title>a_graph</title>
<polygon fill="#ffffff" stroke="transparent" points="-4,4 -4,-196 2021.3001,-196 2021.3001,4 -4,4"/>
<!-- T12435 -->
<g id="node1" class="node">
<title>T12435</title>
<polygon fill="none" stroke="#0058ad" points="54.3001,-162.5 54.3001,-191.5 2017.3001,-191.5 2017.3001,-162.5 54.3001,-162.5"/>
<text text-anchor="middle" x="289.3001" y="-173.3" font-family="Times,serif" font-size="14.00" fill="#0058ad">r 64 [1 2 3 4 5 8 9 10 6 7 12 11 13 14 15 16 17 18 19 20 21 22 26 23 24 25 28 29]</text>
<polyline fill="none" stroke="#0058ad" points="524.3001,-162.5 524.3001,-191.5 "/>
<text text-anchor="middle" x="552.8001" y="-173.3" font-family="Times,serif" font-size="14.00" fill="#0058ad">a 64 27</text>
<polyline fill="none" stroke="#0058ad" points="581.3001,-162.5 581.3001,-191.5 "/>
<text text-anchor="middle" x="1055.8001" y="-173.3" font-family="Times,serif" font-size="14.00" fill="#0058ad">r 63 [4 3 5 6 7 8 10 9 11 12 13 14 15 16 17 18 19 20 21 22 23 24 25 26 27 28 29 30 31 32 33 34 37 35 36 38 39 40 41 42 43 44 46 45 47 48 49 50 51 52 53 54 55 56 57]</text>
<polyline fill="none" stroke="#0058ad" points="1530.3001,-162.5 1530.3001,-191.5 "/>
<text text-anchor="middle" x="1773.8001" y="-173.3" font-family="Times,serif" font-size="14.00" fill="#0058ad">r 64 [1 2 3 4 5 8 9 10 6 7 12 11 13 14 15 16 17 18 19 20 21 22 26 23 24 25 28 29 27]</text>
</g>
<!-- T12437 -->
<g id="node2" class="node">
<title>T12437</title>
<polygon fill="none" stroke="#0058ad" points="29.8001,-.5 29.8001,-29.5 1083.8001,-29.5 1083.8001,-.5 29.8001,-.5"/>
<text text-anchor="middle" x="264.8001" y="-11.3" font-family="Times,serif" font-size="14.00" fill="#0058ad">r 64 [1 2 3 4 5 8 9 10 6 7 12 11 13 14 15 16 17 18 19 20 21 22 26 23 24 25 28 29]</text>
<polyline fill="none" stroke="#0058ad" points="499.8001,-.5 499.8001,-29.5 "/>
<text text-anchor="middle" x="734.8001" y="-11.3" font-family="Times,serif" font-size="14.00" fill="#0058ad">r 64 [1 2 3 4 5 8 9 10 6 7 12 11 13 14 15 16 17 18 19 20 21 22 26 23 24 25 28 29]</text>
<polyline fill="none" stroke="#0058ad" points="969.8001,-.5 969.8001,-29.5 "/>
<text text-anchor="middle" x="998.3001" y="-11.3" font-family="Times,serif" font-size="14.00" fill="#0058ad">a 60 87</text>
<polyline fill="none" stroke="#0058ad" points="1026.8001,-.5 1026.8001,-29.5 "/>
<text text-anchor="middle" x="1055.3001" y="-11.3" font-family="Times,serif" font-size="14.00" fill="#0058ad">a 63 58</text>
</g>
<!-- T12435&#45;&gt;T12437 -->
<g id="edge2" class="edge">
<title>T12435:f2&#45;&gt;T12437:f3</title>
<path fill="none" stroke="#5b00c0" d="M1055.8001,-162C1055.8001,-53.849 1467.4436,-191.3814 1539.8001,-111 1593.2922,-51.5752 1752.6425,-15.3725 1094.0473,-15.0029"/>
<polygon fill="#5b00c0" stroke="#5b00c0" points="1093.8011,-11.5029 1083.8001,-15 1093.7991,-18.5029 1093.8011,-11.5029"/>
<text text-anchor="middle" x="1580.3001" y="-92.3" font-family="Times,serif" font-size="14.00" fill="#5b00c0">rw</text>
</g>
<!-- T12439 -->
<g id="node3" class="node">
<title>T12439</title>
<polygon fill="none" stroke="#0058ad" points="37.3001,-81.5 37.3001,-110.5 1530.3001,-110.5 1530.3001,-81.5 37.3001,-81.5"/>
<text text-anchor="middle" x="280.8001" y="-92.3" font-family="Times,serif" font-size="14.00" fill="#0058ad">r 64 [1 2 3 4 5 8 9 10 6 7 12 11 13 14 15 16 17 18 19 20 21 22 26 23 24 25 28 29 27]</text>
<polyline fill="none" stroke="#0058ad" points="524.3001,-81.5 524.3001,-110.5 "/>
<text text-anchor="middle" x="552.8001" y="-92.3" font-family="Times,serif" font-size="14.00" fill="#0058ad">a 64 33</text>
<polyline fill="none" stroke="#0058ad" points="581.3001,-81.5 581.3001,-110.5 "/>
<text text-anchor="middle" x="1055.8001" y="-92.3" font-family="Times,serif" font-size="14.00" fill="#0058ad">r 63 [4 3 5 6 7 8 10 9 11 12 13 14 15 16 17 18 19 20 21 22 23 24 25 26 27 28 29 30 31 32 33 34 37 35 36 38 39 40 41 42 43 44 46 45 47 48 49 50 51 52 53 54 55 56 57]</text>
</g>
<!-- T12435&#45;&gt;T12439 -->
<g id="edge1" class="edge">
<title>T12435:f1&#45;&gt;T12439:f1</title>
<path fill="none" stroke="#c02700" d="M552.8001,-162C552.8001,-143.2292 552.8001,-136.1168 552.8001,-121.3535"/>
<polygon fill="#c02700" stroke="#c02700" points="556.3002,-121 552.8001,-111 549.3002,-121 556.3002,-121"/>
<text text-anchor="middle" x="562.8001" y="-132.8" font-family="Times,serif" font-size="14.00" fill="#c02700">ww</text>
</g>
<!-- T12437&#45;&gt;T12435 -->
<g id="edge3" class="edge">
<title>T12437:f0&#45;&gt;T12435:f1</title>
<path fill="none" stroke="#5b00c0" d="M29.8001,-15C2.3067,-15 -10.7432,-85.1284 12.8001,-111 91.4687,-197.4485 525.3628,-50.8465 551.5616,-151.8061"/>
<polygon fill="#5b00c0" stroke="#5b00c0" points="548.1195,-152.4951 552.8001,-162 555.0684,-151.6509 548.1195,-152.4951"/>
<text text-anchor="middle" x="20.3001" y="-92.3" font-family="Times,serif" font-size="14.00" fill="#5b00c0">rw</text>
</g>
<!-- T12439&#45;&gt;T12437 -->
<g id="edge4" class="edge">
<title>T12439:f2&#45;&gt;T12437:f3</title>
<path fill="none" stroke="#5b00c0" d="M1055.8001,-81C1055.8001,-62.2292 1055.8001,-55.1168 1055.8001,-40.3535"/>
<polygon fill="#5b00c0" stroke="#5b00c0" points="1059.3002,-40 1055.8001,-30 1052.3002,-40 1059.3002,-40"/>
<text text-anchor="middle" x="1063.3001" y="-51.8" font-family="Times,serif" font-size="14.00" fill="#5b00c0">rw</text>
</g>
</g>
</svg>
