<?xml version="1.0" encoding="UTF-8" standalone="no"?>
<!DOCTYPE svg PUBLIC "-//W3C//DTD SVG 1.1//EN"
 "http://www.w3.org/Graphics/SVG/1.1/DTD/svg11.dtd">
<!-- Generated by graphviz version 2.40.1 (20161225.0304)
 -->
<!-- Title: a_graph Pages: 1 -->
<svg width="953pt" height="119pt"
 viewBox="0.00 0.00 953.00 119.00" xmlns="http://www.w3.org/2000/svg" xmlns:xlink="http://www.w3.org/1999/xlink">
<g id="graph0" class="graph" transform="scale(1 1) rotate(0) translate(4 115)">
<title>a_graph</title>
<polygon fill="#ffffff" stroke="transparent" points="-4,4 -4,-115 949,-115 949,4 -4,4"/>
<!-- T20553 -->
<g id="node1" class="node">
<title>T20553</title>
<polygon fill="none" stroke="#0058ad" points="0,-81.5 0,-110.5 945,-110.5 945,-81.5 0,-81.5"/>
<text text-anchor="middle" x="28.5" y="-92.3" font-family="Times,serif" font-size="14.00" fill="#0058ad">a 99 58</text>
<polyline fill="none" stroke="#0058ad" points="57,-81.5 57,-110.5 "/>
<text text-anchor="middle" x="89" y="-92.3" font-family="Times,serif" font-size="14.00" fill="#0058ad">a 103 47</text>
<polyline fill="none" stroke="#0058ad" points="121,-81.5 121,-110.5 "/>
<text text-anchor="middle" x="533" y="-92.3" font-family="Times,serif" font-size="14.00" fill="#0058ad">r 104 [2 3 4 6 7 8 10 12 13 15 16 17 18 20 21 22 23 26 24 25 27 28 30 31 32 34 36 37 38 39 40 41 42 43 44 45 46 47 48 49 50 51 53 52 57 54 55]</text>
</g>
<!-- T20551 -->
<g id="node2" class="node">
<title>T20551</title>
<polygon fill="none" stroke="#0058ad" points="92,-.5 92,-29.5 839,-29.5 839,-.5 92,-.5"/>
<text text-anchor="middle" x="124" y="-11.3" font-family="Times,serif" font-size="14.00" fill="#0058ad">a 104 56</text>
<polyline fill="none" stroke="#0058ad" points="156,-.5 156,-29.5 "/>
<text text-anchor="middle" x="497.5" y="-11.3" font-family="Times,serif" font-size="14.00" fill="#0058ad">r 103 [1 2 3 5 6 4 8 9 10 11 7 12 13 16 19 20 23 21 24 25 26 27 28 30 31 32 33 34 35 36 37 38 39 40 41 42 43 44 45 46]</text>
</g>
<!-- T20553&#45;&gt;T20551 -->
<g id="edge1" class="edge">
<title>T20553:f2&#45;&gt;T20551:f0</title>
<path fill="none" stroke="#5b00c0" d="M533.5,-81C533.5,-60.0192 190.9408,-53.9606 132.0634,-35.5446"/>
<polygon fill="#5b00c0" stroke="#5b00c0" points="133.7964,-32.4971 123.5,-30 129.9919,-38.373 133.7964,-32.4971"/>
<text text-anchor="middle" x="431" y="-51.8" font-family="Times,serif" font-size="14.00" fill="#5b00c0">rw</text>
</g>
<!-- T20551&#45;&gt;T20553 -->
<g id="edge2" class="edge">
<title>T20551:f1&#45;&gt;T20553:f1</title>
<path fill="none" stroke="#5b00c0" d="M497.5,-30C497.5,-45.8094 229.1057,-45.4703 213.5,-48 160.4371,-56.6016 97.2539,-27.7011 89.3296,-70.9894"/>
<polygon fill="#5b00c0" stroke="#5b00c0" points="85.8379,-70.7451 88.5,-81 92.814,-71.3233 85.8379,-70.7451"/>
<text text-anchor="middle" x="221" y="-51.8" font-family="Times,serif" font-size="14.00" fill="#5b00c0">rw</text>
</g>
</g>
</svg>
