<?xml version="1.0" encoding="UTF-8" standalone="no"?>
<!DOCTYPE svg PUBLIC "-//W3C//DTD SVG 1.1//EN"
 "http://www.w3.org/Graphics/SVG/1.1/DTD/svg11.dtd">
<!-- Generated by graphviz version 2.40.1 (20161225.0304)
 -->
<!-- Title: a_graph Pages: 1 -->
<svg width="1319pt" height="200pt"
 viewBox="0.00 0.00 1319.00 200.00" xmlns="http://www.w3.org/2000/svg" xmlns:xlink="http://www.w3.org/1999/xlink">
<g id="graph0" class="graph" transform="scale(1 1) rotate(0) translate(4 196)">
<title>a_graph</title>
<polygon fill="#ffffff" stroke="transparent" points="-4,4 -4,-196 1315,-196 1315,4 -4,4"/>
<!-- T6265 -->
<g id="node1" class="node">
<title>T6265</title>
<polygon fill="none" stroke="#0058ad" points="536,-162.5 536,-191.5 925,-191.5 925,-162.5 536,-162.5"/>
<text text-anchor="middle" x="564.5" y="-173.3" font-family="Times,serif" font-size="14.00" fill="#0058ad">a 34 22</text>
<polyline fill="none" stroke="#0058ad" points="593,-162.5 593,-191.5 "/>
<text text-anchor="middle" x="759" y="-173.3" font-family="Times,serif" font-size="14.00" fill="#0058ad">r 34 [1 2 3 4 6 9 7 8 5 10 11 12 13 14 15 18 19 20 21 22]</text>
</g>
<!-- T6267 -->
<g id="node3" class="node">
<title>T6267</title>
<polygon fill="none" stroke="#0058ad" points="551.5,-81.5 551.5,-110.5 1003.5,-110.5 1003.5,-81.5 551.5,-81.5"/>
<text text-anchor="middle" x="777.5" y="-92.3" font-family="Times,serif" font-size="14.00" fill="#0058ad">r 35 [1 2 3 4 5 6 7 9 8 11 12 10 13 14 15 16 17 18 19 20 21 22 23 25 26 29 24]</text>
</g>
<!-- T6265&#45;&gt;T6267 -->
<g id="edge1" class="edge">
<title>T6265&#45;&gt;T6267</title>
<path fill="none" stroke="#0050c0" d="M739.1205,-162.1434C746.0108,-150.2687 755.8002,-133.3976 763.7674,-119.6667"/>
<polygon fill="#0050c0" stroke="#0050c0" points="766.9426,-121.1685 768.9341,-110.7625 760.888,-117.6553 766.9426,-121.1685"/>
<text text-anchor="middle" x="762" y="-132.8" font-family="Times,serif" font-size="14.00" fill="#0050c0">rt</text>
</g>
<!-- T6269 -->
<g id="node2" class="node">
<title>T6269</title>
<polygon fill="none" stroke="#0058ad" points="0,-.5 0,-29.5 1311,-29.5 1311,-.5 0,-.5"/>
<text text-anchor="middle" x="28.5" y="-11.3" font-family="Times,serif" font-size="14.00" fill="#0058ad">a 35 30</text>
<polyline fill="none" stroke="#0058ad" points="57,-.5 57,-29.5 "/>
<text text-anchor="middle" x="292" y="-11.3" font-family="Times,serif" font-size="14.00" fill="#0058ad">r 35 [1 2 3 4 5 6 7 9 8 11 12 10 13 14 15 16 17 18 19 20 21 22 23 25 26 29 24 30]</text>
<polyline fill="none" stroke="#0058ad" points="527,-.5 527,-29.5 "/>
<text text-anchor="middle" x="762" y="-11.3" font-family="Times,serif" font-size="14.00" fill="#0058ad">r 35 [1 2 3 4 5 6 7 9 8 11 12 10 13 14 15 16 17 18 19 20 21 22 23 25 26 29 24 30]</text>
<polyline fill="none" stroke="#0058ad" points="997,-.5 997,-29.5 "/>
<text text-anchor="middle" x="1154" y="-11.3" font-family="Times,serif" font-size="14.00" fill="#0058ad">r 34 [1 2 3 4 6 9 7 8 5 10 11 12 13 14 15 18 19 20 21]</text>
</g>
<!-- T6269&#45;&gt;T6265 -->
<g id="edge2" class="edge">
<title>T6269:f3&#45;&gt;T6265:f0</title>
<path fill="none" stroke="#5b00c0" d="M1154.5,-30C1154.5,-64.57 558.383,-25.0837 532.5,-48 492.2458,-83.6402 479.7007,-165.8339 525.5438,-175.9689"/>
<polygon fill="#5b00c0" stroke="#5b00c0" points="525.1926,-179.4512 535.5,-177 525.9138,-172.4884 525.1926,-179.4512"/>
<text text-anchor="middle" x="515" y="-92.3" font-family="Times,serif" font-size="14.00" fill="#5b00c0">rw</text>
</g>
<!-- T6267&#45;&gt;T6269 -->
<g id="edge3" class="edge">
<title>T6267:f0&#45;&gt;T6269:f0</title>
<path fill="none" stroke="#5b00c0" d="M717.5037,-81.4952C668.1561,-70.2312 596.2275,-55.3342 532.5,-48 519.7518,-46.5328 107.46,-44.4047 38.2978,-33.2901"/>
<polygon fill="#5b00c0" stroke="#5b00c0" points="39.094,-29.8655 28.5,-30 36.8656,-36.5013 39.094,-29.8655"/>
<text text-anchor="middle" x="634" y="-51.8" font-family="Times,serif" font-size="14.00" fill="#5b00c0">rw</text>
</g>
</g>
</svg>
