<?xml version="1.0" encoding="UTF-8" standalone="no"?>
<!DOCTYPE svg PUBLIC "-//W3C//DTD SVG 1.1//EN"
 "http://www.w3.org/Graphics/SVG/1.1/DTD/svg11.dtd">
<!-- Generated by graphviz version 2.40.1 (20161225.0304)
 -->
<!-- Title: a_graph Pages: 1 -->
<svg width="2953pt" height="119pt"
 viewBox="0.00 0.00 2953.00 119.00" xmlns="http://www.w3.org/2000/svg" xmlns:xlink="http://www.w3.org/1999/xlink">
<g id="graph0" class="graph" transform="scale(1 1) rotate(0) translate(4 115)">
<title>a_graph</title>
<polygon fill="#ffffff" stroke="transparent" points="-4,4 -4,-115 2949,-115 2949,4 -4,4"/>
<!-- T541 -->
<g id="node1" class="node">
<title>T541</title>
<polygon fill="none" stroke="#0058ad" points="537,-81.5 537,-110.5 1350,-110.5 1350,-81.5 537,-81.5"/>
<text text-anchor="middle" x="562" y="-92.3" font-family="Times,serif" font-size="14.00" fill="#0058ad">a 8 87</text>
<polyline fill="none" stroke="#0058ad" points="587,-81.5 587,-110.5 "/>
<text text-anchor="middle" x="968.5" y="-92.3" font-family="Times,serif" font-size="14.00" fill="#0058ad">r 10 [1 2 3 4 5 6 7 8 9 10 11 12 13 14 15 16 17 18 19 20 21 22 24 25 26 27 29 28 30 31 32 33 34 35 36 37 23 39 40 38 41 44 45 42 43]</text>
</g>
<!-- T543 -->
<g id="node2" class="node">
<title>T543</title>
<polygon fill="none" stroke="#0058ad" points="0,-.5 0,-29.5 2945,-29.5 2945,-.5 0,-.5"/>
<text text-anchor="middle" x="28.5" y="-11.3" font-family="Times,serif" font-size="14.00" fill="#0058ad">a 10 46</text>
<polyline fill="none" stroke="#0058ad" points="57,-.5 57,-29.5 "/>
<text text-anchor="middle" x="447" y="-11.3" font-family="Times,serif" font-size="14.00" fill="#0058ad">r 10 [1 2 3 4 5 6 7 8 9 10 11 12 13 14 15 16 17 18 19 20 21 22 24 25 26 27 29 28 30 31 32 33 34 35 36 37 23 39 40 38 41 44 45 42 43 46]</text>
<polyline fill="none" stroke="#0058ad" points="837,-.5 837,-29.5 "/>
<text text-anchor="middle" x="1501" y="-11.3" font-family="Times,serif" font-size="14.00" fill="#0058ad">r 8 [9 10 11 12 14 15 16 13 17 18 19 20 21 22 23 24 25 26 27 29 30 28 31 32 33 34 35 36 37 38 39 40 41 42 43 44 45 46 47 48 49 50 51 52 53 54 55 56 57 58 60 59 61 62 65 67 68 69 70 71 72 73 74 75 76 77 78 79 80 81 82 83 84 85 86]</text>
<polyline fill="none" stroke="#0058ad" points="2165,-.5 2165,-29.5 "/>
<text text-anchor="middle" x="2555" y="-11.3" font-family="Times,serif" font-size="14.00" fill="#0058ad">r 10 [1 2 3 4 5 6 7 8 9 10 11 12 13 14 15 16 17 18 19 20 21 22 24 25 26 27 29 28 30 31 32 33 34 35 36 37 23 39 40 38 41 44 45 42 43 46]</text>
</g>
<!-- T541&#45;&gt;T543 -->
<g id="edge1" class="edge">
<title>T541:f1&#45;&gt;T543:f0</title>
<path fill="none" stroke="#5b00c0" d="M968.5,-81C968.5,50.9289 805.109,-57.1815 673.5,-48 656.9119,-46.8428 115.9568,-47.767 37.8585,-33.5948"/>
<polygon fill="#5b00c0" stroke="#5b00c0" points="39.0901,-30.3186 28.5,-30 36.58,-36.8531 39.0901,-30.3186"/>
<text text-anchor="middle" x="974" y="-51.8" font-family="Times,serif" font-size="14.00" fill="#5b00c0">rw</text>
</g>
<!-- T543&#45;&gt;T541 -->
<g id="edge2" class="edge">
<title>T543:f2&#45;&gt;T541:f0</title>
<path fill="none" stroke="#5b00c0" d="M1501.5,-30C1501.5,-53.5331 677.6482,-43.7611 654.5,-48 615.0664,-55.2211 570.0199,-40.1689 562.5688,-71.0234"/>
<polygon fill="#5b00c0" stroke="#5b00c0" points="559.0852,-70.684 561.5,-81 566.0453,-71.4297 559.0852,-70.684"/>
<text text-anchor="middle" x="662" y="-51.8" font-family="Times,serif" font-size="14.00" fill="#5b00c0">rw</text>
</g>
</g>
</svg>
