<?xml version="1.0" encoding="UTF-8" standalone="no"?>
<!DOCTYPE svg PUBLIC "-//W3C//DTD SVG 1.1//EN"
 "http://www.w3.org/Graphics/SVG/1.1/DTD/svg11.dtd">
<!-- Generated by graphviz version 2.40.1 (20161225.0304)
 -->
<!-- Title: a_graph Pages: 1 -->
<svg width="2631pt" height="119pt"
 viewBox="0.00 0.00 2631.00 119.00" xmlns="http://www.w3.org/2000/svg" xmlns:xlink="http://www.w3.org/1999/xlink">
<g id="graph0" class="graph" transform="scale(1 1) rotate(0) translate(4 115)">
<title>a_graph</title>
<polygon fill="#ffffff" stroke="transparent" points="-4,4 -4,-115 2627,-115 2627,4 -4,4"/>
<!-- T18459 -->
<g id="node1" class="node">
<title>T18459</title>
<polygon fill="none" stroke="#0058ad" points="0,-81.5 0,-110.5 2623,-110.5 2623,-81.5 0,-81.5"/>
<text text-anchor="middle" x="641.5" y="-92.3" font-family="Times,serif" font-size="14.00" fill="#0058ad">r 91 [8 11 12 13 16 17 15 18 19 20 21 22 23 24 25 26 27 28 29 30 32 31 33 14 36 38 40 39 42 41 43 44 45 46 49 50 47 48 52 51 53 54 55 56 57 58 59 60 61 62 63 64 65 69 70 71 66 67 72 73 74 75 76 77 78 79 80 81 82 83 84 85]</text>
<polyline fill="none" stroke="#0058ad" points="1283,-81.5 1283,-110.5 "/>
<text text-anchor="middle" x="1924.5" y="-92.3" font-family="Times,serif" font-size="14.00" fill="#0058ad">r 91 [8 11 12 13 16 17 15 18 19 20 21 22 23 24 25 26 27 28 29 30 32 31 33 14 36 38 40 39 42 41 43 44 45 46 49 50 47 48 52 51 53 54 55 56 57 58 59 60 61 62 63 64 65 69 70 71 66 67 72 73 74 75 76 77 78 79 80 81 82 83 84 85]</text>
<polyline fill="none" stroke="#0058ad" points="2566,-81.5 2566,-110.5 "/>
<text text-anchor="middle" x="2594.5" y="-92.3" font-family="Times,serif" font-size="14.00" fill="#0058ad">a 92 40</text>
</g>
<!-- T18449 -->
<g id="node2" class="node">
<title>T18449</title>
<polygon fill="none" stroke="#0058ad" points="1043,-.5 1043,-29.5 2188,-29.5 2188,-.5 1043,-.5"/>
<text text-anchor="middle" x="1071.5" y="-11.3" font-family="Times,serif" font-size="14.00" fill="#0058ad">a 91 86</text>
<polyline fill="none" stroke="#0058ad" points="1100,-.5 1100,-29.5 "/>
<text text-anchor="middle" x="1305" y="-11.3" font-family="Times,serif" font-size="14.00" fill="#0058ad">r 88 [34 36 37 38 39 41 42 43 44 45 46 47 48 49 50 51 52 53 54 55 56]</text>
<polyline fill="none" stroke="#0058ad" points="1510,-.5 1510,-29.5 "/>
<text text-anchor="middle" x="1538.5" y="-11.3" font-family="Times,serif" font-size="14.00" fill="#0058ad">a 91 87</text>
<polyline fill="none" stroke="#0058ad" points="1567,-.5 1567,-29.5 "/>
<text text-anchor="middle" x="1877.5" y="-11.3" font-family="Times,serif" font-size="14.00" fill="#0058ad">r 92 [1 2 3 4 9 11 12 13 6 7 14 15 16 17 18 19 20 21 22 23 24 25 26 27 28 29 30 32 33 31 34 35 36 37 38 39]</text>
</g>
<!-- T18459&#45;&gt;T18449 -->
<g id="edge1" class="edge">
<title>T18459:f0&#45;&gt;T18449:f0</title>
<path fill="none" stroke="#5b00c0" d="M641.5,-81C641.5,-38.3144 959.4887,-17.3526 1032.4132,-15.1876"/>
<polygon fill="#5b00c0" stroke="#5b00c0" points="1032.5668,-18.6854 1042.5,-15 1032.4366,-11.6866 1032.5668,-18.6854"/>
<text text-anchor="middle" x="719" y="-51.8" font-family="Times,serif" font-size="14.00" fill="#5b00c0">rw</text>
</g>
<!-- T18449&#45;&gt;T18459 -->
<g id="edge2" class="edge">
<title>T18449:f3&#45;&gt;T18459:f2</title>
<path fill="none" stroke="#5b00c0" d="M2188.5,-15C2231.079,-15 2546.7108,-32.6166 2589.6646,-71.9818"/>
<polygon fill="#5b00c0" stroke="#5b00c0" points="2586.6899,-73.8408 2594.5,-81 2592.8591,-70.533 2586.6899,-73.8408"/>
<text text-anchor="middle" x="2577" y="-51.8" font-family="Times,serif" font-size="14.00" fill="#5b00c0">rw</text>
</g>
</g>
</svg>
