<?xml version="1.0" encoding="UTF-8" standalone="no"?>
<!DOCTYPE svg PUBLIC "-//W3C//DTD SVG 1.1//EN"
 "http://www.w3.org/Graphics/SVG/1.1/DTD/svg11.dtd">
<!-- Generated by graphviz version 2.40.1 (20161225.0304)
 -->
<!-- Title: a_graph Pages: 1 -->
<svg width="4441pt" height="119pt"
 viewBox="0.00 0.00 4440.50 119.00" xmlns="http://www.w3.org/2000/svg" xmlns:xlink="http://www.w3.org/1999/xlink">
<g id="graph0" class="graph" transform="scale(1 1) rotate(0) translate(4 115)">
<title>a_graph</title>
<polygon fill="#ffffff" stroke="transparent" points="-4,4 -4,-115 4436.5,-115 4436.5,4 -4,4"/>
<!-- T15243 -->
<g id="node1" class="node">
<title>T15243</title>
<polygon fill="none" stroke="#0058ad" points="2538.5,-81.5 2538.5,-110.5 4432.5,-110.5 4432.5,-81.5 2538.5,-81.5"/>
<text text-anchor="middle" x="2570.5" y="-92.3" font-family="Times,serif" font-size="14.00" fill="#0058ad">a 76 122</text>
<polyline fill="none" stroke="#0058ad" points="2602.5,-81.5 2602.5,-110.5 "/>
<text text-anchor="middle" x="3517.5" y="-92.3" font-family="Times,serif" font-size="14.00" fill="#0058ad">r 78 [2 3 4 5 6 12 13 14 17 10 20 21 22 23 24 25 26 27 28 29 30 31 32 33 34 35 36 37 40 39 42 41 38 44 43 45 48 49 46 47 50 52 53 54 51 56 58 59 55 60 57 62 61 63 64 65 66 67 68 69 70 71 72 73 74 77 78 79 76 75 81 82 83 84 85 86 80 89 87 88 90 91 92 93 94 98 99 100 101 95 96 102 103 97 104 105 106 107 109 108 110]</text>
</g>
<!-- T15245 -->
<g id="node2" class="node">
<title>T15245</title>
<polygon fill="none" stroke="#0058ad" points="0,-.5 0,-29.5 4111,-29.5 4111,-.5 0,-.5"/>
<text text-anchor="middle" x="1076.5" y="-11.3" font-family="Times,serif" font-size="14.00" fill="#0058ad">r 76 [2 3 4 1 5 6 7 9 8 10 11 12 13 14 15 16 17 18 19 20 21 22 23 24 25 26 27 28 29 30 32 31 33 34 35 36 38 37 39 40 45 46 48 47 50 49 51 52 53 54 55 56 57 58 60 61 59 63 62 65 64 67 68 66 69 70 72 71 73 74 76 77 78 79 80 75 81 82 83 84 85 86 87 88 89 90 91 92 93 94 95 96 97 98 99 100 101 103 104 102 105 106 107 108 109 110 111 112 113 114 115 116 117 118 119 121 120]</text>
<polyline fill="none" stroke="#0058ad" points="2153,-.5 2153,-29.5 "/>
<text text-anchor="middle" x="3068" y="-11.3" font-family="Times,serif" font-size="14.00" fill="#0058ad">r 78 [2 3 4 5 6 12 13 14 17 10 20 21 22 23 24 25 26 27 28 29 30 31 32 33 34 35 36 37 40 39 42 41 38 44 43 45 48 49 46 47 50 52 53 54 51 56 58 59 55 60 57 62 61 63 64 65 66 67 68 69 70 71 72 73 74 77 78 79 76 75 81 82 83 84 85 86 80 89 87 88 90 91 92 93 94 98 99 100 101 95 96 102 103 97 104 105 106 107 109 108 110]</text>
<polyline fill="none" stroke="#0058ad" points="3983,-.5 3983,-29.5 "/>
<text text-anchor="middle" x="4015" y="-11.3" font-family="Times,serif" font-size="14.00" fill="#0058ad">a 78 111</text>
<polyline fill="none" stroke="#0058ad" points="4047,-.5 4047,-29.5 "/>
<text text-anchor="middle" x="4079" y="-11.3" font-family="Times,serif" font-size="14.00" fill="#0058ad">a 78 112</text>
</g>
<!-- T15243&#45;&gt;T15245 -->
<g id="edge1" class="edge">
<title>T15243:f1&#45;&gt;T15245:f2</title>
<path fill="none" stroke="#5b00c0" d="M3517.5,-81C3517.5,137.9059 3999.5805,-239.9543 4015.1163,-40.2802"/>
<polygon fill="#5b00c0" stroke="#5b00c0" points="4018.6245,-40.1236 4015.5,-30 4011.6293,-39.8625 4018.6245,-40.1236"/>
<text text-anchor="middle" x="4020" y="-51.8" font-family="Times,serif" font-size="14.00" fill="#5b00c0">rw</text>
</g>
<!-- T15245&#45;&gt;T15243 -->
<g id="edge2" class="edge">
<title>T15245:f0&#45;&gt;T15243:f0</title>
<path fill="none" stroke="#5b00c0" d="M1076.5,-30C1076.5,-69.1439 2394.3142,-94.0977 2528.4133,-95.8958"/>
<polygon fill="#5b00c0" stroke="#5b00c0" points="2528.4643,-99.3964 2538.5,-96 2528.5367,-92.3968 2528.4643,-99.3964"/>
<text text-anchor="middle" x="1392" y="-51.8" font-family="Times,serif" font-size="14.00" fill="#5b00c0">rw</text>
</g>
</g>
</svg>
