<?xml version="1.0" encoding="UTF-8" standalone="no"?>
<!DOCTYPE svg PUBLIC "-//W3C//DTD SVG 1.1//EN"
 "http://www.w3.org/Graphics/SVG/1.1/DTD/svg11.dtd">
<!-- Generated by graphviz version 2.40.1 (20161225.0304)
 -->
<!-- Title: a_graph Pages: 1 -->
<svg width="1617pt" height="119pt"
 viewBox="0.00 0.00 1617.00 119.00" xmlns="http://www.w3.org/2000/svg" xmlns:xlink="http://www.w3.org/1999/xlink">
<g id="graph0" class="graph" transform="scale(1 1) rotate(0) translate(4 115)">
<title>a_graph</title>
<polygon fill="#ffffff" stroke="transparent" points="-4,4 -4,-115 1613,-115 1613,4 -4,4"/>
<!-- T4153 -->
<g id="node1" class="node">
<title>T4153</title>
<polygon fill="none" stroke="#0058ad" points="0,-81.5 0,-110.5 1609,-110.5 1609,-81.5 0,-81.5"/>
<text text-anchor="middle" x="205" y="-92.3" font-family="Times,serif" font-size="14.00" fill="#0058ad">r 25 [1 4 5 7 10 12 13 9 14 16 18 19 17 20 21 22 23 24 25 26 27 28 29]</text>
<polyline fill="none" stroke="#0058ad" points="410,-81.5 410,-110.5 "/>
<text text-anchor="middle" x="438.5" y="-92.3" font-family="Times,serif" font-size="14.00" fill="#0058ad">a 25 30</text>
<polyline fill="none" stroke="#0058ad" points="467,-81.5 467,-110.5 "/>
<text text-anchor="middle" x="1038" y="-92.3" font-family="Times,serif" font-size="14.00" fill="#0058ad">r 21 [2 1 3 4 5 6 8 7 9 10 11 12 13 15 14 16 17 18 19 21 23 24 25 26 27 28 29 33 34 36 35 37 38 39 40 41 42 43 44 45 46 47 48 49 50 51 52 53 54 55 56 57 58 59 60 61 62 63 64 66 68 69 70 71 72 73 75]</text>
</g>
<!-- T4149 -->
<g id="node2" class="node">
<title>T4149</title>
<polygon fill="none" stroke="#0058ad" points="593,-.5 593,-29.5 1060,-29.5 1060,-.5 593,-.5"/>
<text text-anchor="middle" x="621.5" y="-11.3" font-family="Times,serif" font-size="14.00" fill="#0058ad">a 21 76</text>
<polyline fill="none" stroke="#0058ad" points="650,-.5 650,-29.5 "/>
<text text-anchor="middle" x="855" y="-11.3" font-family="Times,serif" font-size="14.00" fill="#0058ad">r 25 [1 4 5 7 10 12 13 9 14 16 18 19 17 20 21 22 23 24 25 26 27 28 29]</text>
</g>
<!-- T4153&#45;&gt;T4149 -->
<g id="edge1" class="edge">
<title>T4153:f2&#45;&gt;T4149:f0</title>
<path fill="none" stroke="#5b00c0" d="M1038.5,-81C1038.5,102.0675 637.63,-204.3136 621.971,-40.3652"/>
<polygon fill="#5b00c0" stroke="#5b00c0" points="625.4504,-39.8308 621.5,-30 618.4576,-40.1486 625.4504,-39.8308"/>
<text text-anchor="middle" x="1044" y="-51.8" font-family="Times,serif" font-size="14.00" fill="#5b00c0">rw</text>
</g>
<!-- T4149&#45;&gt;T4153 -->
<g id="edge2" class="edge">
<title>T4149:f1&#45;&gt;T4153:f1</title>
<path fill="none" stroke="#5b00c0" d="M855.5,-30C855.5,-44.0357 617.4092,-46.12 603.5,-48 533.0071,-57.5282 447.3358,-11.1259 439.1376,-70.9286"/>
<polygon fill="#5b00c0" stroke="#5b00c0" points="435.6388,-70.7988 438.5,-81 442.6249,-71.2411 435.6388,-70.7988"/>
<text text-anchor="middle" x="611" y="-51.8" font-family="Times,serif" font-size="14.00" fill="#5b00c0">rw</text>
</g>
</g>
</svg>
