<?xml version="1.0" encoding="UTF-8" standalone="no"?>
<!DOCTYPE svg PUBLIC "-//W3C//DTD SVG 1.1//EN"
 "http://www.w3.org/Graphics/SVG/1.1/DTD/svg11.dtd">
<!-- Generated by graphviz version 2.40.1 (20161225.0304)
 -->
<!-- Title: a_graph Pages: 1 -->
<svg width="1737pt" height="119pt"
 viewBox="0.00 0.00 1736.50 119.00" xmlns="http://www.w3.org/2000/svg" xmlns:xlink="http://www.w3.org/1999/xlink">
<g id="graph0" class="graph" transform="scale(1 1) rotate(0) translate(4 115)">
<title>a_graph</title>
<polygon fill="#ffffff" stroke="transparent" points="-4,4 -4,-115 1732.5,-115 1732.5,4 -4,4"/>
<!-- T6555 -->
<g id="node1" class="node">
<title>T6555</title>
<polygon fill="none" stroke="#0058ad" points="0,-81.5 0,-110.5 1634,-110.5 1634,-81.5 0,-81.5"/>
<text text-anchor="middle" x="788.5" y="-92.3" font-family="Times,serif" font-size="14.00" fill="#0058ad">r 35 [1 2 3 4 5 6 7 9 8 11 12 10 13 14 15 16 17 18 19 20 21 22 23 25 26 29 24 30 31 32 33 34 35 36 37 38 39 40 41 42 43 44 46 47 48 49 50 51 53 54 52 55 58 59 60 62 61 66 67 68 72 73 75 76 77 78 79 80 74 81 82 83 84 85 86 87 88 89 91 90 93 92 95 96 97 98 99 94 100 104 105]</text>
<polyline fill="none" stroke="#0058ad" points="1577,-81.5 1577,-110.5 "/>
<text text-anchor="middle" x="1605.5" y="-92.3" font-family="Times,serif" font-size="14.00" fill="#0058ad">a 37 24</text>
</g>
<!-- T6559 -->
<g id="node2" class="node">
<title>T6559</title>
<polygon fill="none" stroke="#0058ad" points="1153.5,-.5 1153.5,-29.5 1728.5,-29.5 1728.5,-.5 1153.5,-.5"/>
<text text-anchor="middle" x="1185.5" y="-11.3" font-family="Times,serif" font-size="14.00" fill="#0058ad">a 35 101</text>
<polyline fill="none" stroke="#0058ad" points="1217.5,-.5 1217.5,-29.5 "/>
<text text-anchor="middle" x="1249.5" y="-11.3" font-family="Times,serif" font-size="14.00" fill="#0058ad">a 35 102</text>
<polyline fill="none" stroke="#0058ad" points="1281.5,-.5 1281.5,-29.5 "/>
<text text-anchor="middle" x="1473" y="-11.3" font-family="Times,serif" font-size="14.00" fill="#0058ad">r 37 [1 2 3 4 5 6 7 8 9 10 11 12 13 14 15 16 17 18 19 21 20 22 23]</text>
<polyline fill="none" stroke="#0058ad" points="1664.5,-.5 1664.5,-29.5 "/>
<text text-anchor="middle" x="1696.5" y="-11.3" font-family="Times,serif" font-size="14.00" fill="#0058ad">a 35 103</text>
</g>
<!-- T6555&#45;&gt;T6559 -->
<g id="edge1" class="edge">
<title>T6555:f0&#45;&gt;T6559:f0</title>
<path fill="none" stroke="#5b00c0" d="M788,-81C788,-42.2016 1074.9546,-17.9611 1142.967,-15.2536"/>
<polygon fill="#5b00c0" stroke="#5b00c0" points="1143.0917,-18.7517 1153,-15 1142.9147,-11.7539 1143.0917,-18.7517"/>
<text text-anchor="middle" x="867.5" y="-51.8" font-family="Times,serif" font-size="14.00" fill="#5b00c0">rw</text>
</g>
<!-- T6559&#45;&gt;T6555 -->
<g id="edge2" class="edge">
<title>T6559:f2&#45;&gt;T6555:f1</title>
<path fill="none" stroke="#5b00c0" d="M1473,-30C1473,-89.4749 1590.3821,-26.3394 1604.5963,-70.9669"/>
<polygon fill="#5b00c0" stroke="#5b00c0" points="1601.1481,-71.5814 1606,-81 1608.0806,-70.6115 1601.1481,-71.5814"/>
<text text-anchor="middle" x="1605.5" y="-51.8" font-family="Times,serif" font-size="14.00" fill="#5b00c0">rw</text>
</g>
</g>
</svg>
