<?xml version="1.0" encoding="UTF-8" standalone="no"?>
<!DOCTYPE svg PUBLIC "-//W3C//DTD SVG 1.1//EN"
 "http://www.w3.org/Graphics/SVG/1.1/DTD/svg11.dtd">
<!-- Generated by graphviz version 2.40.1 (20161225.0304)
 -->
<!-- Title: a_graph Pages: 1 -->
<svg width="2181pt" height="119pt"
 viewBox="0.00 0.00 2181.00 119.00" xmlns="http://www.w3.org/2000/svg" xmlns:xlink="http://www.w3.org/1999/xlink">
<g id="graph0" class="graph" transform="scale(1 1) rotate(0) translate(4 115)">
<title>a_graph</title>
<polygon fill="#ffffff" stroke="transparent" points="-4,4 -4,-115 2177,-115 2177,4 -4,4"/>
<!-- T14097 -->
<g id="node1" class="node">
<title>T14097</title>
<polygon fill="none" stroke="#0058ad" points="0,-81.5 0,-110.5 2173,-110.5 2173,-81.5 0,-81.5"/>
<text text-anchor="middle" x="79.5" y="-92.3" font-family="Times,serif" font-size="14.00" fill="#0058ad">r 73 [1 2 3 4 5 6 7 8 9 10]</text>
<polyline fill="none" stroke="#0058ad" points="159,-81.5 159,-110.5 "/>
<text text-anchor="middle" x="877" y="-92.3" font-family="Times,serif" font-size="14.00" fill="#0058ad">r 67 [1 2 3 4 5 6 7 8 9 11 10 12 13 14 15 16 17 18 21 22 23 24 26 25 27 28 29 30 31 32 33 34 35 36 38 37 39 40 41 42 43 44 45 46 47 48 49 50 51 52 53 54 55 56 57 59 61 62 64 63 65 67 68 69 70 66 71 72 73 74 75 76 77 78 79 80 81 82 83 84 86 85 87 88]</text>
<polyline fill="none" stroke="#0058ad" points="1595,-81.5 1595,-110.5 "/>
<text text-anchor="middle" x="1623.5" y="-92.3" font-family="Times,serif" font-size="14.00" fill="#0058ad">a 74 32</text>
<polyline fill="none" stroke="#0058ad" points="1652,-81.5 1652,-110.5 "/>
<text text-anchor="middle" x="1912.5" y="-92.3" font-family="Times,serif" font-size="14.00" fill="#0058ad">r 74 [1 2 3 4 5 6 7 11 12 8 9 10 16 14 15 13 17 19 20 18 22 23 21 24 25 27 28 29 30 31 32]</text>
</g>
<!-- T14095 -->
<g id="node2" class="node">
<title>T14095</title>
<polygon fill="none" stroke="#0058ad" points="430.5,-.5 430.5,-29.5 1552.5,-29.5 1552.5,-.5 430.5,-.5"/>
<text text-anchor="middle" x="682.5" y="-11.3" font-family="Times,serif" font-size="14.00" fill="#0058ad">r 74 [1 2 3 4 5 6 7 11 12 8 9 10 16 14 15 13 17 19 20 18 22 23 21 24 25 27 28 29 30 31]</text>
<polyline fill="none" stroke="#0058ad" points="934.5,-.5 934.5,-29.5 "/>
<text text-anchor="middle" x="963" y="-11.3" font-family="Times,serif" font-size="14.00" fill="#0058ad">a 72 65</text>
<polyline fill="none" stroke="#0058ad" points="991.5,-.5 991.5,-29.5 "/>
<text text-anchor="middle" x="1020" y="-11.3" font-family="Times,serif" font-size="14.00" fill="#0058ad">a 73 11</text>
<polyline fill="none" stroke="#0058ad" points="1048.5,-.5 1048.5,-29.5 "/>
<text text-anchor="middle" x="1300.5" y="-11.3" font-family="Times,serif" font-size="14.00" fill="#0058ad">r 74 [1 2 3 4 5 6 7 11 12 8 9 10 16 14 15 13 17 19 20 18 22 23 21 24 25 27 28 29 30 31]</text>
</g>
<!-- T14097&#45;&gt;T14095 -->
<g id="edge1" class="edge">
<title>T14097:f0&#45;&gt;T14095:f2</title>
<path fill="none" stroke="#5b00c0" d="M79.5,-81C79.5,124.8391 988.6117,-227.0141 1019.6849,-40.2367"/>
<polygon fill="#5b00c0" stroke="#5b00c0" points="1023.1951,-40.2463 1020.5,-30 1016.2172,-39.6906 1023.1951,-40.2463"/>
<text text-anchor="middle" x="1024" y="-51.8" font-family="Times,serif" font-size="14.00" fill="#5b00c0">rw</text>
</g>
<!-- T14095&#45;&gt;T14097 -->
<g id="edge2" class="edge">
<title>T14095:f0&#45;&gt;T14097:f2</title>
<path fill="none" stroke="#5b00c0" d="M682.5,-30C682.5,-49.6366 1015.8915,-46.9498 1035.5,-48 1162.6116,-54.8077 1598.7348,44.2208 1622.4903,-70.7861"/>
<polygon fill="#5b00c0" stroke="#5b00c0" points="1619.0331,-71.3929 1623.5,-81 1625.9991,-70.7041 1619.0331,-71.3929"/>
<text text-anchor="middle" x="1626" y="-51.8" font-family="Times,serif" font-size="14.00" fill="#5b00c0">rw</text>
</g>
</g>
</svg>
