<?xml version="1.0" encoding="UTF-8" standalone="no"?>
<!DOCTYPE svg PUBLIC "-//W3C//DTD SVG 1.1//EN"
 "http://www.w3.org/Graphics/SVG/1.1/DTD/svg11.dtd">
<!-- Generated by graphviz version 2.40.1 (20161225.0304)
 -->
<!-- Title: a_graph Pages: 1 -->
<svg width="3411pt" height="200pt"
 viewBox="0.00 0.00 3411.00 200.00" xmlns="http://www.w3.org/2000/svg" xmlns:xlink="http://www.w3.org/1999/xlink">
<g id="graph0" class="graph" transform="scale(1 1) rotate(0) translate(4 196)">
<title>a_graph</title>
<polygon fill="#ffffff" stroke="transparent" points="-4,4 -4,-196 3407,-196 3407,4 -4,4"/>
<!-- T4531 -->
<g id="node1" class="node">
<title>T4531</title>
<polygon fill="none" stroke="#0058ad" points="2072,-162.5 2072,-191.5 2512,-191.5 2512,-162.5 2072,-162.5"/>
<text text-anchor="middle" x="2100.5" y="-173.3" font-family="Times,serif" font-size="14.00" fill="#0058ad">a 28 18</text>
<polyline fill="none" stroke="#0058ad" points="2129,-162.5 2129,-191.5 "/>
<text text-anchor="middle" x="2263.5" y="-173.3" font-family="Times,serif" font-size="14.00" fill="#0058ad">r 28 [1 2 3 5 4 8 6 9 10 11 12 13 14 16 17 18]</text>
<polyline fill="none" stroke="#0058ad" points="2398,-162.5 2398,-191.5 "/>
<text text-anchor="middle" x="2426.5" y="-173.3" font-family="Times,serif" font-size="14.00" fill="#0058ad">a 26 14</text>
<polyline fill="none" stroke="#0058ad" points="2455,-162.5 2455,-191.5 "/>
<text text-anchor="middle" x="2483.5" y="-173.3" font-family="Times,serif" font-size="14.00" fill="#0058ad">a 27 36</text>
</g>
<!-- T4536 -->
<g id="node3" class="node">
<title>T4536</title>
<polygon fill="none" stroke="#0058ad" points="0,-81.5 0,-110.5 3138,-110.5 3138,-81.5 0,-81.5"/>
<text text-anchor="middle" x="28.5" y="-92.3" font-family="Times,serif" font-size="14.00" fill="#0058ad">a 28 19</text>
<polyline fill="none" stroke="#0058ad" points="57,-81.5 57,-110.5 "/>
<text text-anchor="middle" x="335" y="-92.3" font-family="Times,serif" font-size="14.00" fill="#0058ad">r 27 [1 2 3 4 5 6 7 8 9 10 11 13 14 12 15 16 17 18 19 20 21 22 23 24 25 26 27 28 32 33 34 35 36]</text>
<polyline fill="none" stroke="#0058ad" points="613,-81.5 613,-110.5 "/>
<text text-anchor="middle" x="1049.5" y="-92.3" font-family="Times,serif" font-size="14.00" fill="#0058ad">r 5 [1 2 3 4 5 6 9 10 11 12 13 51 53 52 54 55 56 57 58 59 60 61 62 63 64 65 66 67 70 71 69 72 73 74 75 76 77 78 79 80 81 82 83 84 86 87 88 89 90 91 92]</text>
<polyline fill="none" stroke="#0058ad" points="1486,-81.5 1486,-110.5 "/>
<text text-anchor="middle" x="2312" y="-92.3" font-family="Times,serif" font-size="14.00" fill="#0058ad">r 21 [2 1 3 4 5 6 8 7 9 10 11 12 13 15 14 16 17 18 19 21 23 24 25 26 27 28 29 33 34 36 35 37 38 39 40 41 42 43 44 45 46 47 48 49 50 51 52 53 54 55 56 57 58 59 60 61 62 63 64 66 68 69 70 71 72 73 75 76 78 77 79 80 81 82 83 84 86 87 88 89 90 85 91 92 93 94 95 96 97 98 99 100 101 102 103]</text>
</g>
<!-- T4531&#45;&gt;T4536 -->
<g id="edge1" class="edge">
<title>T4531:f0&#45;&gt;T4536:f0</title>
<path fill="none" stroke="#c02700" d="M2072,-177C2017.3007,-177 172.8286,-168.477 36.0095,-117.1295"/>
<polygon fill="#c02700" stroke="#c02700" points="38.0685,-114.2979 28,-111 33.8143,-119.8569 38.0685,-114.2979"/>
<text text-anchor="middle" x="285" y="-132.8" font-family="Times,serif" font-size="14.00" fill="#c02700">ww</text>
</g>
<!-- T4533 -->
<g id="node2" class="node">
<title>T4533</title>
<polygon fill="none" stroke="#0058ad" points="2261,-.5 2261,-29.5 3403,-29.5 3403,-.5 2261,-.5"/>
<text text-anchor="middle" x="2530.5" y="-11.3" font-family="Times,serif" font-size="14.00" fill="#0058ad">r 27 [1 2 3 4 5 6 7 8 9 10 11 13 14 12 15 16 17 18 19 20 21 22 23 24 25 26 27 28 32 33 34 35]</text>
<polyline fill="none" stroke="#0058ad" points="2800,-.5 2800,-29.5 "/>
<text text-anchor="middle" x="3069.5" y="-11.3" font-family="Times,serif" font-size="14.00" fill="#0058ad">r 27 [1 2 3 4 5 6 7 8 9 10 11 13 14 12 15 16 17 18 19 20 21 22 23 24 25 26 27 28 32 33 34 35]</text>
<polyline fill="none" stroke="#0058ad" points="3339,-.5 3339,-29.5 "/>
<text text-anchor="middle" x="3371" y="-11.3" font-family="Times,serif" font-size="14.00" fill="#0058ad">a 21 104</text>
</g>
<!-- T4533&#45;&gt;T4531 -->
<g id="edge2" class="edge">
<title>T4533:f0&#45;&gt;T4531:f3</title>
<path fill="none" stroke="#5b00c0" d="M2530,-30C2530,-65.0143 3135.5973,-22.8901 3160,-48 3179.9253,-68.5028 3168.7756,-92.4742 3147,-111 3095.0822,-155.1697 2622.0864,-175.3952 2522.2695,-176.9079"/>
<polygon fill="#5b00c0" stroke="#5b00c0" points="2521.9682,-173.4104 2512,-177 2522.031,-180.4101 2521.9682,-173.4104"/>
<text text-anchor="middle" x="3176.5" y="-92.3" font-family="Times,serif" font-size="14.00" fill="#5b00c0">rw</text>
</g>
<!-- T4536&#45;&gt;T4533 -->
<g id="edge3" class="edge">
<title>T4536:f3&#45;&gt;T4533:f2</title>
<path fill="none" stroke="#5b00c0" d="M3138,-96C3159.559,-96 3129.2657,-62.7385 3145,-48 3161.3021,-32.7297 3326.3905,-50.1941 3363.5841,-36.7839"/>
<polygon fill="#5b00c0" stroke="#5b00c0" points="3365.9839,-39.3322 3371,-30 3361.2591,-34.1673 3365.9839,-39.3322"/>
<text text-anchor="middle" x="3152.5" y="-51.8" font-family="Times,serif" font-size="14.00" fill="#5b00c0">rw</text>
</g>
</g>
</svg>
