<?xml version="1.0" encoding="UTF-8" standalone="no"?>
<!DOCTYPE svg PUBLIC "-//W3C//DTD SVG 1.1//EN"
 "http://www.w3.org/Graphics/SVG/1.1/DTD/svg11.dtd">
<!-- Generated by graphviz version 2.40.1 (20161225.0304)
 -->
<!-- Title: a_graph Pages: 1 -->
<svg width="3268pt" height="119pt"
 viewBox="0.00 0.00 3267.50 119.00" xmlns="http://www.w3.org/2000/svg" xmlns:xlink="http://www.w3.org/1999/xlink">
<g id="graph0" class="graph" transform="scale(1 1) rotate(0) translate(4 115)">
<title>a_graph</title>
<polygon fill="#ffffff" stroke="transparent" points="-4,4 -4,-115 3263.5,-115 3263.5,4 -4,4"/>
<!-- T3543 -->
<g id="node1" class="node">
<title>T3543</title>
<polygon fill="none" stroke="#0058ad" points="504.5,-81.5 504.5,-110.5 3259.5,-110.5 3259.5,-81.5 504.5,-81.5"/>
<text text-anchor="middle" x="533" y="-92.3" font-family="Times,serif" font-size="14.00" fill="#0058ad">a 23 35</text>
<polyline fill="none" stroke="#0058ad" points="561.5,-81.5 561.5,-110.5 "/>
<text text-anchor="middle" x="1236" y="-92.3" font-family="Times,serif" font-size="14.00" fill="#0058ad">r 22 [1 2 3 4 6 5 8 9 11 10 12 13 14 15 16 19 20 17 18 21 22 23 24 25 26 27 28 29 7 32 33 34 31 35 38 39 40 41 42 44 45 43 46 47 48 49 50 51 52 53 54 55 56 59 57 64 68 69 73 74 75 76 77 78 79 80 81 82 83 84 86 85 88 89 90 87 92 91 93]</text>
<polyline fill="none" stroke="#0058ad" points="1910.5,-81.5 1910.5,-110.5 "/>
<text text-anchor="middle" x="2585" y="-92.3" font-family="Times,serif" font-size="14.00" fill="#0058ad">r 22 [1 2 3 4 6 5 8 9 11 10 12 13 14 15 16 19 20 17 18 21 22 23 24 25 26 27 28 29 7 32 33 34 31 35 38 39 40 41 42 44 45 43 46 47 48 49 50 51 52 53 54 55 56 59 57 64 68 69 73 74 75 76 77 78 79 80 81 82 83 84 86 85 88 89 90 87 92 91 93]</text>
</g>
<!-- T3544 -->
<g id="node2" class="node">
<title>T3544</title>
<polygon fill="none" stroke="#0058ad" points="0,-.5 0,-29.5 2002,-29.5 2002,-.5 0,-.5"/>
<text text-anchor="middle" x="28.5" y="-11.3" font-family="Times,serif" font-size="14.00" fill="#0058ad">a 22 94</text>
<polyline fill="none" stroke="#0058ad" points="57,-.5 57,-29.5 "/>
<text text-anchor="middle" x="740.5" y="-11.3" font-family="Times,serif" font-size="14.00" fill="#0058ad">r 22 [1 2 3 4 6 5 8 9 11 10 12 13 14 15 16 19 20 17 18 21 22 23 24 25 26 27 28 29 7 32 33 34 31 35 38 39 40 41 42 44 45 43 46 47 48 49 50 51 52 53 54 55 56 59 57 64 68 69 73 74 75 76 77 78 79 80 81 82 83 84 86 85 88 89 90 87 92 91 93 94]</text>
<polyline fill="none" stroke="#0058ad" points="1424,-.5 1424,-29.5 "/>
<text text-anchor="middle" x="1452.5" y="-11.3" font-family="Times,serif" font-size="14.00" fill="#0058ad">a 22 95</text>
<polyline fill="none" stroke="#0058ad" points="1481,-.5 1481,-29.5 "/>
<text text-anchor="middle" x="1741.5" y="-11.3" font-family="Times,serif" font-size="14.00" fill="#0058ad">r 23 [1 2 3 4 5 6 7 8 9 11 12 13 14 15 16 17 18 19 20 21 22 23 25 26 27 29 30 31 32 33 34]</text>
</g>
<!-- T3543&#45;&gt;T3544 -->
<g id="edge1" class="edge">
<title>T3543:f1&#45;&gt;T3544:f0</title>
<path fill="none" stroke="#5b00c0" d="M1236,-81C1236,34.1227 834.0067,-53.1665 719,-48 701.1671,-47.1989 119.2479,-48.9254 37.5037,-33.7432"/>
<polygon fill="#5b00c0" stroke="#5b00c0" points="38.587,-30.4083 28,-30 36.0216,-36.9213 38.587,-30.4083"/>
<text text-anchor="middle" x="1239.5" y="-51.8" font-family="Times,serif" font-size="14.00" fill="#5b00c0">rw</text>
</g>
<!-- T3544&#45;&gt;T3543 -->
<g id="edge2" class="edge">
<title>T3544:f3&#45;&gt;T3543:f0</title>
<path fill="none" stroke="#5b00c0" d="M1742,-30C1742,-44.4744 714.3929,-46.466 700,-48 628.4421,-55.6269 541.9224,-10.1514 533.6438,-70.7994"/>
<polygon fill="#5b00c0" stroke="#5b00c0" points="530.1369,-70.7994 533,-81 537.123,-71.2403 530.1369,-70.7994"/>
<text text-anchor="middle" x="707.5" y="-51.8" font-family="Times,serif" font-size="14.00" fill="#5b00c0">rw</text>
</g>
</g>
</svg>
