<?xml version="1.0" encoding="UTF-8" standalone="no"?>
<!DOCTYPE svg PUBLIC "-//W3C//DTD SVG 1.1//EN"
 "http://www.w3.org/Graphics/SVG/1.1/DTD/svg11.dtd">
<!-- Generated by graphviz version 2.40.1 (20161225.0304)
 -->
<!-- Title: a_graph Pages: 1 -->
<svg width="1494pt" height="119pt"
 viewBox="0.00 0.00 1494.00 119.00" xmlns="http://www.w3.org/2000/svg" xmlns:xlink="http://www.w3.org/1999/xlink">
<g id="graph0" class="graph" transform="scale(1 1) rotate(0) translate(4 115)">
<title>a_graph</title>
<polygon fill="#ffffff" stroke="transparent" points="-4,4 -4,-115 1490,-115 1490,4 -4,4"/>
<!-- T10885 -->
<g id="node1" class="node">
<title>T10885</title>
<polygon fill="none" stroke="#0058ad" points="0,-81.5 0,-110.5 1056,-110.5 1056,-81.5 0,-81.5"/>
<text text-anchor="middle" x="528" y="-92.3" font-family="Times,serif" font-size="14.00" fill="#0058ad">r 57 [2 1 3 4 5 6 7 8 10 9 11 12 13 14 15 16 17 18 19 20 21 22 23 24 25 26 27 28 29 31 32 30 33 34 35 36 37 38 39 42 43 44 40 41 45 47 48 49 50 51 53 54 52 55 56 57 58 46 60 61 62 63]</text>
</g>
<!-- T10869 -->
<g id="node2" class="node">
<title>T10869</title>
<polygon fill="none" stroke="#0058ad" points="356,-.5 356,-29.5 1486,-29.5 1486,-.5 356,-.5"/>
<text text-anchor="middle" x="384.5" y="-11.3" font-family="Times,serif" font-size="14.00" fill="#0058ad">a 57 66</text>
<polyline fill="none" stroke="#0058ad" points="413,-.5 413,-29.5 "/>
<text text-anchor="middle" x="949.5" y="-11.3" font-family="Times,serif" font-size="14.00" fill="#0058ad">r 57 [2 1 3 4 5 6 7 8 10 9 11 12 13 14 15 16 17 18 19 20 21 22 23 24 25 26 27 28 29 31 32 30 33 34 35 36 37 38 39 42 43 44 40 41 45 47 48 49 50 51 53 54 52 55 56 57 58 46 60 61 62 63 66]</text>
</g>
<!-- T10885&#45;&gt;T10869 -->
<g id="edge1" class="edge">
<title>T10885:f0&#45;&gt;T10869:f0</title>
<path fill="none" stroke="#5b00c0" d="M428.3797,-81.3694C407.007,-73.0939 389.4614,-60.1912 385.0633,-40.0978"/>
<polygon fill="#5b00c0" stroke="#5b00c0" points="388.5281,-39.5785 384,-30 381.5666,-40.3116 388.5281,-39.5785"/>
<text text-anchor="middle" x="404.5" y="-51.8" font-family="Times,serif" font-size="14.00" fill="#5b00c0">rw</text>
</g>
<!-- T10869&#45;&gt;T10885 -->
<g id="edge2" class="edge">
<title>T10869&#45;&gt;T10885</title>
<path fill="none" stroke="#0050c0" d="M850.5229,-29.5258C782.5358,-43.5384 679.7316,-64.7271 608.5427,-79.3996"/>
<polygon fill="#0050c0" stroke="#0050c0" points="607.802,-75.9786 598.7144,-81.4253 609.2151,-82.8345 607.802,-75.9786"/>
<text text-anchor="middle" x="763.5" y="-51.8" font-family="Times,serif" font-size="14.00" fill="#0050c0">rt</text>
</g>
</g>
</svg>
