<?xml version="1.0" encoding="UTF-8" standalone="no"?>
<!DOCTYPE svg PUBLIC "-//W3C//DTD SVG 1.1//EN"
 "http://www.w3.org/Graphics/SVG/1.1/DTD/svg11.dtd">
<!-- Generated by graphviz version 2.40.1 (20161225.0304)
 -->
<!-- Title: a_graph Pages: 1 -->
<svg width="5058pt" height="119pt"
 viewBox="0.00 0.00 5057.50 119.00" xmlns="http://www.w3.org/2000/svg" xmlns:xlink="http://www.w3.org/1999/xlink">
<g id="graph0" class="graph" transform="scale(1 1) rotate(0) translate(4 115)">
<title>a_graph</title>
<polygon fill="#ffffff" stroke="transparent" points="-4,4 -4,-115 5053.5,-115 5053.5,4 -4,4"/>
<!-- T8225 -->
<g id="node1" class="node">
<title>T8225</title>
<polygon fill="none" stroke="#0058ad" points="0,-81.5 0,-110.5 1658,-110.5 1658,-81.5 0,-81.5"/>
<text text-anchor="middle" x="398.5" y="-92.3" font-family="Times,serif" font-size="14.00" fill="#0058ad">r 43 [1 2 3 4 5 6 7 8 11 9 10 12 13 14 15 16 17 18 19 20 21 22 23 24 25 26 27 31 28 33 32 34 36 37 38 41 42 44 43 45 47 48 49 46 50 51 52]</text>
<polyline fill="none" stroke="#0058ad" points="797,-81.5 797,-110.5 "/>
<text text-anchor="middle" x="1195.5" y="-92.3" font-family="Times,serif" font-size="14.00" fill="#0058ad">r 43 [1 2 3 4 5 6 7 8 11 9 10 12 13 14 15 16 17 18 19 20 21 22 23 24 25 26 27 31 28 33 32 34 36 37 38 41 42 44 43 45 47 48 49 46 50 51 52]</text>
<polyline fill="none" stroke="#0058ad" points="1594,-81.5 1594,-110.5 "/>
<text text-anchor="middle" x="1626" y="-92.3" font-family="Times,serif" font-size="14.00" fill="#0058ad">a 44 122</text>
</g>
<!-- T8227 -->
<g id="node2" class="node">
<title>T8227</title>
<polygon fill="none" stroke="#0058ad" points="474.5,-.5 474.5,-29.5 5049.5,-29.5 5049.5,-.5 474.5,-.5"/>
<text text-anchor="middle" x="503" y="-11.3" font-family="Times,serif" font-size="14.00" fill="#0058ad">a 43 53</text>
<polyline fill="none" stroke="#0058ad" points="531.5,-.5 531.5,-29.5 "/>
<text text-anchor="middle" x="1591" y="-11.3" font-family="Times,serif" font-size="14.00" fill="#0058ad">r 44 [1 2 3 4 5 6 7 8 9 10 11 12 13 17 14 20 15 16 21 22 24 23 26 28 27 30 31 32 29 34 35 33 37 38 36 41 42 39 40 45 46 47 48 43 44 50 51 52 53 49 56 57 54 55 58 59 60 61 62 63 64 65 66 67 69 70 71 72 73 74 75 77 79 80 76 81 83 84 85 86 87 88 89 91 92 93 94 90 95 96 97 98 99 101 102 103 104 105 106 107 109 108 110 100 111 112 113 114 117 118 119 115 116 121 120]</text>
<polyline fill="none" stroke="#0058ad" points="2650.5,-.5 2650.5,-29.5 "/>
<text text-anchor="middle" x="3710" y="-11.3" font-family="Times,serif" font-size="14.00" fill="#0058ad">r 44 [1 2 3 4 5 6 7 8 9 10 11 12 13 17 14 20 15 16 21 22 24 23 26 28 27 30 31 32 29 34 35 33 37 38 36 41 42 39 40 45 46 47 48 43 44 50 51 52 53 49 56 57 54 55 58 59 60 61 62 63 64 65 66 67 69 70 71 72 73 74 75 77 79 80 76 81 83 84 85 86 87 88 89 91 92 93 94 90 95 96 97 98 99 101 102 103 104 105 106 107 109 108 110 100 111 112 113 114 117 118 119 115 116 121 120]</text>
<polyline fill="none" stroke="#0058ad" points="4769.5,-.5 4769.5,-29.5 "/>
<text text-anchor="middle" x="4909.5" y="-11.3" font-family="Times,serif" font-size="14.00" fill="#0058ad">r 45 [1 3 4 2 6 5 7 8 9 10 11 12 13 14 15 16 17]</text>
</g>
<!-- T8225&#45;&gt;T8227 -->
<g id="edge1" class="edge">
<title>T8225:f0&#45;&gt;T8227:f0</title>
<path fill="none" stroke="#5b00c0" d="M398,-81C398,-39.7582 424.5691,-18.4656 463.77,-15.3904"/>
<polygon fill="#5b00c0" stroke="#5b00c0" points="464.1408,-18.8789 474,-15 463.8738,-11.884 464.1408,-18.8789"/>
<text text-anchor="middle" x="412.5" y="-51.8" font-family="Times,serif" font-size="14.00" fill="#5b00c0">rw</text>
</g>
<!-- T8227&#45;&gt;T8225 -->
<g id="edge2" class="edge">
<title>T8227:f1&#45;&gt;T8225:f2</title>
<path fill="none" stroke="#5b00c0" d="M1591,-30C1591,-53.625 1616.8484,-54.0066 1624.1182,-71.0944"/>
<polygon fill="#5b00c0" stroke="#5b00c0" points="1620.6951,-71.8289 1626,-81 1627.5721,-70.5225 1620.6951,-71.8289"/>
<text text-anchor="middle" x="1624.5" y="-51.8" font-family="Times,serif" font-size="14.00" fill="#5b00c0">rw</text>
</g>
</g>
</svg>
