<?xml version="1.0" encoding="UTF-8" standalone="no"?>
<!DOCTYPE svg PUBLIC "-//W3C//DTD SVG 1.1//EN"
 "http://www.w3.org/Graphics/SVG/1.1/DTD/svg11.dtd">
<!-- Generated by graphviz version 2.40.1 (20161225.0304)
 -->
<!-- Title: a_graph Pages: 1 -->
<svg width="4331pt" height="119pt"
 viewBox="0.00 0.00 4331.00 119.00" xmlns="http://www.w3.org/2000/svg" xmlns:xlink="http://www.w3.org/1999/xlink">
<g id="graph0" class="graph" transform="scale(1 1) rotate(0) translate(4 115)">
<title>a_graph</title>
<polygon fill="#ffffff" stroke="transparent" points="-4,4 -4,-115 4327,-115 4327,4 -4,4"/>
<!-- T6939 -->
<g id="node1" class="node">
<title>T6939</title>
<polygon fill="none" stroke="#0058ad" points="0,-81.5 0,-110.5 3595,-110.5 3595,-81.5 0,-81.5"/>
<text text-anchor="middle" x="761" y="-92.3" font-family="Times,serif" font-size="14.00" fill="#0058ad">r 38 [1 2 4 5 6 7 8 3 9 11 10 12 13 14 15 16 17 18 19 20 21 22 23 24 27 28 25 26 29 31 32 33 30 34 36 37 38 35 40 39 41 43 44 42 45 47 48 50 49 46 54 55 56 57 51 52 58 59 60 66 67 68 69 70 71 72 61 73 74 75 76 77 78 80 79 81 82 83 84 85 86 88 89 90 91 92 87 94 93]</text>
<polyline fill="none" stroke="#0058ad" points="1522,-81.5 1522,-110.5 "/>
<text text-anchor="middle" x="2530" y="-92.3" font-family="Times,serif" font-size="14.00" fill="#0058ad">r 34 [1 2 3 4 6 9 7 8 5 10 11 12 13 14 15 18 19 20 21 22 23 24 25 27 26 28 29 30 31 32 33 34 35 37 38 39 40 41 42 43 44 46 45 47 48 49 52 53 54 55 56 57 58 59 60 61 62 64 65 63 66 68 69 71 72 70 67 73 74 75 76 78 79 80 77 82 83 84 85 86 81 87 88 89 90 91 92 93 94 95 96 97 98 99 100 101 102 103 106 104 105 107 108 110 111 112 113 114 115 116 118]</text>
<polyline fill="none" stroke="#0058ad" points="3538,-81.5 3538,-110.5 "/>
<text text-anchor="middle" x="3566.5" y="-92.3" font-family="Times,serif" font-size="14.00" fill="#0058ad">a 38 95</text>
</g>
<!-- T6941 -->
<g id="node2" class="node">
<title>T6941</title>
<polygon fill="none" stroke="#0058ad" points="2680,-.5 2680,-29.5 4323,-29.5 4323,-.5 2680,-.5"/>
<text text-anchor="middle" x="2712" y="-11.3" font-family="Times,serif" font-size="14.00" fill="#0058ad">a 34 119</text>
<polyline fill="none" stroke="#0058ad" points="2744,-.5 2744,-29.5 "/>
<text text-anchor="middle" x="3505" y="-11.3" font-family="Times,serif" font-size="14.00" fill="#0058ad">r 38 [1 2 4 5 6 7 8 3 9 11 10 12 13 14 15 16 17 18 19 20 21 22 23 24 27 28 25 26 29 31 32 33 30 34 36 37 38 35 40 39 41 43 44 42 45 47 48 50 49 46 54 55 56 57 51 52 58 59 60 66 67 68 69 70 71 72 61 73 74 75 76 77 78 80 79 81 82 83 84 85 86 88 89 90 91 92 87 94 93]</text>
<polyline fill="none" stroke="#0058ad" points="4266,-.5 4266,-29.5 "/>
<text text-anchor="middle" x="4294.5" y="-11.3" font-family="Times,serif" font-size="14.00" fill="#0058ad">a 26 99</text>
</g>
<!-- T6939&#45;&gt;T6941 -->
<g id="edge1" class="edge">
<title>T6939:f1&#45;&gt;T6941:f0</title>
<path fill="none" stroke="#5b00c0" d="M2530.5,-81C2530.5,-47.6859 2625.9458,-19.8116 2669.4243,-15.561"/>
<polygon fill="#5b00c0" stroke="#5b00c0" points="2669.7101,-19.0506 2679.5,-15 2669.3209,-12.0614 2669.7101,-19.0506"/>
<text text-anchor="middle" x="2567" y="-51.8" font-family="Times,serif" font-size="14.00" fill="#5b00c0">rw</text>
</g>
<!-- T6941&#45;&gt;T6939 -->
<g id="edge2" class="edge">
<title>T6941:f1&#45;&gt;T6939:f2</title>
<path fill="none" stroke="#5b00c0" d="M3505.5,-30C3505.5,-61.3351 3553.4625,-49.4137 3564.329,-70.9485"/>
<polygon fill="#5b00c0" stroke="#5b00c0" points="3560.9676,-71.9644 3566.5,-81 3567.8098,-70.4864 3560.9676,-71.9644"/>
<text text-anchor="middle" x="3563" y="-51.8" font-family="Times,serif" font-size="14.00" fill="#5b00c0">rw</text>
</g>
</g>
</svg>
