<?xml version="1.0" encoding="UTF-8" standalone="no"?>
<!DOCTYPE svg PUBLIC "-//W3C//DTD SVG 1.1//EN"
 "http://www.w3.org/Graphics/SVG/1.1/DTD/svg11.dtd">
<!-- Generated by graphviz version 2.40.1 (20161225.0304)
 -->
<!-- Title: a_graph Pages: 1 -->
<svg width="1301pt" height="119pt"
 viewBox="0.00 0.00 1301.00 119.00" xmlns="http://www.w3.org/2000/svg" xmlns:xlink="http://www.w3.org/1999/xlink">
<g id="graph0" class="graph" transform="scale(1 1) rotate(0) translate(4 115)">
<title>a_graph</title>
<polygon fill="#ffffff" stroke="transparent" points="-4,4 -4,-115 1297,-115 1297,4 -4,4"/>
<!-- T471 -->
<g id="node1" class="node">
<title>T471</title>
<polygon fill="none" stroke="#0058ad" points="0,-81.5 0,-110.5 1293,-110.5 1293,-81.5 0,-81.5"/>
<text text-anchor="middle" x="28.5" y="-92.3" font-family="Times,serif" font-size="14.00" fill="#0058ad">a 10 17</text>
<polyline fill="none" stroke="#0058ad" points="57,-81.5 57,-110.5 "/>
<text text-anchor="middle" x="398.5" y="-92.3" font-family="Times,serif" font-size="14.00" fill="#0058ad">r 7 [3 4 5 6 7 9 10 8 11 12 13 14 15 16 17 19 18 20 21 22 24 23 25 26 28 27 30 29 31 32 33 34 35 36 39 43 44 45 46 47]</text>
<polyline fill="none" stroke="#0058ad" points="740,-81.5 740,-110.5 "/>
<text text-anchor="middle" x="880" y="-92.3" font-family="Times,serif" font-size="14.00" fill="#0058ad">r 10 [1 2 3 4 5 6 7 8 9 10 11 12 13 14 15 16 17]</text>
<polyline fill="none" stroke="#0058ad" points="1020,-81.5 1020,-110.5 "/>
<text text-anchor="middle" x="1156.5" y="-92.3" font-family="Times,serif" font-size="14.00" fill="#0058ad">r 6 [1 2 3 4 5 6 7 8 9 10 11 14 15 16 17 18 19]</text>
</g>
<!-- T475 -->
<g id="node2" class="node">
<title>T475</title>
<polygon fill="none" stroke="#0058ad" points="60,-.5 60,-29.5 423,-29.5 423,-.5 60,-.5"/>
<text text-anchor="middle" x="85" y="-11.3" font-family="Times,serif" font-size="14.00" fill="#0058ad">a 8 80</text>
<polyline fill="none" stroke="#0058ad" points="110,-.5 110,-29.5 "/>
<text text-anchor="middle" x="135" y="-11.3" font-family="Times,serif" font-size="14.00" fill="#0058ad">a 7 48</text>
<polyline fill="none" stroke="#0058ad" points="160,-.5 160,-29.5 "/>
<text text-anchor="middle" x="291.5" y="-11.3" font-family="Times,serif" font-size="14.00" fill="#0058ad">r 10 [1 2 3 4 5 6 7 8 9 10 11 12 13 14 15 16]</text>
</g>
<!-- T471&#45;&gt;T475 -->
<g id="edge1" class="edge">
<title>T471:f1&#45;&gt;T475:f1</title>
<path fill="none" stroke="#5b00c0" d="M398.5,-81C398.5,34.8849 150.2424,-138.4014 135.2112,-40.0249"/>
<polygon fill="#5b00c0" stroke="#5b00c0" points="138.699,-39.7272 134.5,-30 131.7165,-40.2226 138.699,-39.7272"/>
<text text-anchor="middle" x="403" y="-51.8" font-family="Times,serif" font-size="14.00" fill="#5b00c0">rw</text>
</g>
<!-- T475&#45;&gt;T471 -->
<g id="edge2" class="edge">
<title>T475:f2&#45;&gt;T471:f0</title>
<path fill="none" stroke="#5b00c0" d="M291.5,-30C291.5,-49.4365 136.4288,-43.5864 117.5,-48 80.1062,-56.7191 37.0546,-41.9562 29.6206,-71.0405"/>
<polygon fill="#5b00c0" stroke="#5b00c0" points="26.1401,-70.6713 28.5,-81 33.0962,-71.4541 26.1401,-70.6713"/>
<text text-anchor="middle" x="125" y="-51.8" font-family="Times,serif" font-size="14.00" fill="#5b00c0">rw</text>
</g>
</g>
</svg>
