<?xml version="1.0" encoding="UTF-8" standalone="no"?>
<!DOCTYPE svg PUBLIC "-//W3C//DTD SVG 1.1//EN"
 "http://www.w3.org/Graphics/SVG/1.1/DTD/svg11.dtd">
<!-- Generated by graphviz version 2.40.1 (20161225.0304)
 -->
<!-- Title: a_graph Pages: 1 -->
<svg width="4025pt" height="119pt"
 viewBox="0.00 0.00 4024.50 119.00" xmlns="http://www.w3.org/2000/svg" xmlns:xlink="http://www.w3.org/1999/xlink">
<g id="graph0" class="graph" transform="scale(1 1) rotate(0) translate(4 115)">
<title>a_graph</title>
<polygon fill="#ffffff" stroke="transparent" points="-4,4 -4,-115 4020.5,-115 4020.5,4 -4,4"/>
<!-- T4167 -->
<g id="node1" class="node">
<title>T4167</title>
<polygon fill="none" stroke="#0058ad" points="0,-81.5 0,-110.5 2901,-110.5 2901,-81.5 0,-81.5"/>
<text text-anchor="middle" x="960" y="-92.3" font-family="Times,serif" font-size="14.00" fill="#0058ad">r 23 [1 2 3 4 5 6 7 8 9 11 12 13 14 15 16 17 18 19 20 21 22 23 25 26 27 29 30 31 32 33 34 35 37 36 38 40 41 42 39 44 43 45 46 47 48 49 50 51 52 53 54 55 56 57 58 59 60 61 62 63 64 65 66 67 68 69 70 71 72 73 74 75 76 77 79 80 81 82 83 84 85 86 87 88 89 91 90 92 93 94 95 97 98 99 100 101 104 105 106 108 107 109 110 111 112 113 114]</text>
<polyline fill="none" stroke="#0058ad" points="1920,-81.5 1920,-110.5 "/>
<text text-anchor="middle" x="2151" y="-92.3" font-family="Times,serif" font-size="14.00" fill="#0058ad">r 25 [1 4 5 7 10 12 13 9 14 16 18 19 17 20 21 22 23 24 25 26 27 28 29 30 31 33]</text>
<polyline fill="none" stroke="#0058ad" points="2382,-81.5 2382,-110.5 "/>
<text text-anchor="middle" x="2613" y="-92.3" font-family="Times,serif" font-size="14.00" fill="#0058ad">r 25 [1 4 5 7 10 12 13 9 14 16 18 19 17 20 21 22 23 24 25 26 27 28 29 30 31 33]</text>
<polyline fill="none" stroke="#0058ad" points="2844,-81.5 2844,-110.5 "/>
<text text-anchor="middle" x="2872.5" y="-92.3" font-family="Times,serif" font-size="14.00" fill="#0058ad">a 25 32</text>
</g>
<!-- T4169 -->
<g id="node2" class="node">
<title>T4169</title>
<polygon fill="none" stroke="#0058ad" points="1084.5,-.5 1084.5,-29.5 4016.5,-29.5 4016.5,-.5 1084.5,-.5"/>
<text text-anchor="middle" x="1315.5" y="-11.3" font-family="Times,serif" font-size="14.00" fill="#0058ad">r 25 [1 4 5 7 10 12 13 9 14 16 18 19 17 20 21 22 23 24 25 26 27 28 29 30 31 33]</text>
<polyline fill="none" stroke="#0058ad" points="1546.5,-.5 1546.5,-29.5 "/>
<text text-anchor="middle" x="1578.5" y="-11.3" font-family="Times,serif" font-size="14.00" fill="#0058ad">a 23 115</text>
<polyline fill="none" stroke="#0058ad" points="1610.5,-.5 1610.5,-29.5 "/>
<text text-anchor="middle" x="1841.5" y="-11.3" font-family="Times,serif" font-size="14.00" fill="#0058ad">r 25 [1 4 5 7 10 12 13 9 14 16 18 19 17 20 21 22 23 24 25 26 27 28 29 30 31 33]</text>
<polyline fill="none" stroke="#0058ad" points="2072.5,-.5 2072.5,-29.5 "/>
<text text-anchor="middle" x="3044.5" y="-11.3" font-family="Times,serif" font-size="14.00" fill="#0058ad">r 23 [1 2 3 4 5 6 7 8 9 11 12 13 14 15 16 17 18 19 20 21 22 23 25 26 27 29 30 31 32 33 34 35 37 36 38 40 41 42 39 44 43 45 46 47 48 49 50 51 52 53 54 55 56 57 58 59 60 61 62 63 64 65 66 67 68 69 70 71 72 73 74 75 76 77 79 80 81 82 83 84 85 86 87 88 89 91 90 92 93 94 95 97 98 99 100 101 104 105 106 108 107 109 110 111 112 113 114 115]</text>
</g>
<!-- T4167&#45;&gt;T4169 -->
<g id="edge1" class="edge">
<title>T4167:f0&#45;&gt;T4169:f1</title>
<path fill="none" stroke="#5b00c0" d="M959.5,-81C959.5,53.3824 1546.2878,-156.4065 1577.2317,-40.1738"/>
<polygon fill="#5b00c0" stroke="#5b00c0" points="1580.7359,-40.3562 1578.5,-30 1573.7897,-39.4902 1580.7359,-40.3562"/>
<text text-anchor="middle" x="1580" y="-51.8" font-family="Times,serif" font-size="14.00" fill="#5b00c0">rw</text>
</g>
<!-- T4169&#45;&gt;T4167 -->
<g id="edge2" class="edge">
<title>T4169:f0&#45;&gt;T4167:f3</title>
<path fill="none" stroke="#5b00c0" d="M1315.5,-30C1315.5,-50.6224 2729.9524,-58.6085 2862.5573,-78.0462"/>
<polygon fill="#5b00c0" stroke="#5b00c0" points="2861.9173,-81.5072 2872.5,-81 2863.9108,-74.797 2861.9173,-81.5072"/>
<text text-anchor="middle" x="2462" y="-51.8" font-family="Times,serif" font-size="14.00" fill="#5b00c0">rw</text>
</g>
</g>
</svg>
