<?xml version="1.0" encoding="UTF-8" standalone="no"?>
<!DOCTYPE svg PUBLIC "-//W3C//DTD SVG 1.1//EN"
 "http://www.w3.org/Graphics/SVG/1.1/DTD/svg11.dtd">
<!-- Generated by graphviz version 2.40.1 (20161225.0304)
 -->
<!-- Title: a_graph Pages: 1 -->
<svg width="1768pt" height="200pt"
 viewBox="0.00 0.00 1767.50 200.00" xmlns="http://www.w3.org/2000/svg" xmlns:xlink="http://www.w3.org/1999/xlink">
<g id="graph0" class="graph" transform="scale(1 1) rotate(0) translate(4 196)">
<title>a_graph</title>
<polygon fill="#ffffff" stroke="transparent" points="-4,4 -4,-196 1763.5,-196 1763.5,4 -4,4"/>
<!-- T8431 -->
<g id="node1" class="node">
<title>T8431</title>
<polygon fill="none" stroke="#0058ad" points="153.5,-162.5 153.5,-191.5 1759.5,-191.5 1759.5,-162.5 153.5,-162.5"/>
<text text-anchor="middle" x="423" y="-173.3" font-family="Times,serif" font-size="14.00" fill="#0058ad">r 45 [1 3 4 2 6 5 7 8 9 10 11 12 13 14 15 16 17 18 19 20 21 22 23 24 25 26 27 28 29 31 30 32]</text>
<polyline fill="none" stroke="#0058ad" points="692.5,-162.5 692.5,-191.5 "/>
<text text-anchor="middle" x="721" y="-173.3" font-family="Times,serif" font-size="14.00" fill="#0058ad">a 43 89</text>
<polyline fill="none" stroke="#0058ad" points="749.5,-162.5 749.5,-191.5 "/>
<text text-anchor="middle" x="778" y="-173.3" font-family="Times,serif" font-size="14.00" fill="#0058ad">a 46 48</text>
<polyline fill="none" stroke="#0058ad" points="806.5,-162.5 806.5,-191.5 "/>
<text text-anchor="middle" x="1283" y="-173.3" font-family="Times,serif" font-size="14.00" fill="#0058ad">r 46 [1 2 3 4 7 8 5 6 9 11 12 10 13 14 15 16 17 18 19 20 22 21 23 24 25 26 29 31 27 28 30 32 33 34 35 36 37 38 39 40 42 43 44 45 46 41 47 49 51 50 52 53 54 55 56 48]</text>
</g>
<!-- T8429 -->
<g id="node2" class="node">
<title>T8429</title>
<polygon fill="none" stroke="#0058ad" points="611,-81.5 611,-110.5 668,-110.5 668,-81.5 611,-81.5"/>
<text text-anchor="middle" x="639.5" y="-92.3" font-family="Times,serif" font-size="14.00" fill="#0058ad">a 45 34</text>
</g>
<!-- T8431&#45;&gt;T8429 -->
<g id="edge1" class="edge">
<title>T8431:f0&#45;&gt;T8429:f0</title>
<path fill="none" stroke="#5b00c0" d="M422.5,-162C422.5,-78.3941 522.3451,-138.0019 602.7272,-113.9852"/>
<polygon fill="#5b00c0" stroke="#5b00c0" points="604.1214,-117.2064 612.4254,-110.6266 601.8306,-110.5918 604.1214,-117.2064"/>
<text text-anchor="middle" x="438" y="-132.8" font-family="Times,serif" font-size="14.00" fill="#5b00c0">rw</text>
</g>
<!-- T8437 -->
<g id="node3" class="node">
<title>T8437</title>
<polygon fill="none" stroke="#0058ad" points="0,-.5 0,-29.5 1565,-29.5 1565,-.5 0,-.5"/>
<text text-anchor="middle" x="467.5" y="-11.3" font-family="Times,serif" font-size="14.00" fill="#0058ad">r 46 [1 2 3 4 7 8 5 6 9 11 12 10 13 14 15 16 17 18 19 20 22 21 23 24 25 26 29 31 27 28 30 32 33 34 35 36 37 38 39 40 42 43 44 45 46 41 47 49 51 50 52 53 54 55 56]</text>
<polyline fill="none" stroke="#0058ad" points="935,-.5 935,-29.5 "/>
<text text-anchor="middle" x="963.5" y="-11.3" font-family="Times,serif" font-size="14.00" fill="#0058ad">a 45 33</text>
<polyline fill="none" stroke="#0058ad" points="992,-.5 992,-29.5 "/>
<text text-anchor="middle" x="1278.5" y="-11.3" font-family="Times,serif" font-size="14.00" fill="#0058ad">r 45 [1 3 4 2 6 5 7 8 9 10 11 12 13 14 15 16 17 18 19 20 21 22 23 24 25 26 27 28 29 31 30 32 34 33]</text>
</g>
<!-- T8429&#45;&gt;T8437 -->
<g id="edge2" class="edge">
<title>T8429:f0&#45;&gt;T8437:f1</title>
<path fill="none" stroke="#c02700" d="M654.5743,-81.4117C667.296,-70.0993 686.5763,-55.1779 706.5,-48 730.6433,-39.302 918.0453,-54.7388 956.5846,-37.4035"/>
<polygon fill="#c02700" stroke="#c02700" points="959.2317,-39.697 963.5,-30 954.1161,-34.9188 959.2317,-39.697"/>
<text text-anchor="middle" x="716.5" y="-51.8" font-family="Times,serif" font-size="14.00" fill="#c02700">ww</text>
</g>
<!-- T8437&#45;&gt;T8431 -->
<g id="edge3" class="edge">
<title>T8437:f0&#45;&gt;T8431:f2</title>
<path fill="none" stroke="#5b00c0" d="M467.5,-30C467.5,-58.8472 702.8515,-31.4801 726.5,-48 769.1589,-77.7999 776.6566,-103.1359 777.4272,-151.9219"/>
<polygon fill="#5b00c0" stroke="#5b00c0" points="773.9277,-152.0256 777.5,-162 780.9275,-151.9749 773.9277,-152.0256"/>
<text text-anchor="middle" x="782" y="-92.3" font-family="Times,serif" font-size="14.00" fill="#5b00c0">rw</text>
</g>
</g>
</svg>
