<?xml version="1.0" encoding="UTF-8" standalone="no"?>
<!DOCTYPE svg PUBLIC "-//W3C//DTD SVG 1.1//EN"
 "http://www.w3.org/Graphics/SVG/1.1/DTD/svg11.dtd">
<!-- Generated by graphviz version 2.40.1 (20161225.0304)
 -->
<!-- Title: a_graph Pages: 1 -->
<svg width="7745pt" height="281pt"
 viewBox="0.00 0.00 7745.00 281.00" xmlns="http://www.w3.org/2000/svg" xmlns:xlink="http://www.w3.org/1999/xlink">
<g id="graph0" class="graph" transform="scale(1 1) rotate(0) translate(4 277)">
<title>a_graph</title>
<polygon fill="#ffffff" stroke="transparent" points="-4,4 -4,-277 7741,-277 7741,4 -4,4"/>
<!-- T5283 -->
<g id="node1" class="node">
<title>T5283</title>
<polygon fill="none" stroke="#0058ad" points="7501,-243.5 7501,-272.5 7737,-272.5 7737,-243.5 7501,-243.5"/>
<text text-anchor="middle" x="7529.5" y="-254.3" font-family="Times,serif" font-size="14.00" fill="#0058ad">a 31 14</text>
<polyline fill="none" stroke="#0058ad" points="7558,-243.5 7558,-272.5 "/>
<text text-anchor="middle" x="7647.5" y="-254.3" font-family="Times,serif" font-size="14.00" fill="#0058ad">r 31 [2 3 4 5 11 6 7 12 13 14]</text>
</g>
<!-- T5286 -->
<g id="node4" class="node">
<title>T5286</title>
<polygon fill="none" stroke="#0058ad" points="0,-162.5 0,-191.5 7516,-191.5 7516,-162.5 0,-162.5"/>
<text text-anchor="middle" x="939.5" y="-173.3" font-family="Times,serif" font-size="14.00" fill="#0058ad">r 30 [1 2 4 5 3 6 8 9 10 7 11 12 13 14 15 16 17 18 19 20 21 22 23 25 24 26 27 28 29 32 30 31 33 34 35 36 37 38 39 40 41 42 43 44 45 46 48 49 50 47 51 52 53 54 55 56 57 58 59 60 61 62 63 64 65 66 67 68 72 69 70 71 74 73 77 78 79 75 76 80 81 82 83 84 85 86 87 88 89 92 94 91 90 100 102 103 107 110 105 111 112 113 106 116 117]</text>
<polyline fill="none" stroke="#0058ad" points="1879,-162.5 1879,-191.5 "/>
<text text-anchor="middle" x="2818.5" y="-173.3" font-family="Times,serif" font-size="14.00" fill="#0058ad">r 30 [1 2 4 5 3 6 8 9 10 7 11 12 13 14 15 16 17 18 19 20 21 22 23 25 24 26 27 28 29 32 30 31 33 34 35 36 37 38 39 40 41 42 43 44 45 46 48 49 50 47 51 52 53 54 55 56 57 58 59 60 61 62 63 64 65 66 67 68 72 69 70 71 74 73 77 78 79 75 76 80 81 82 83 84 85 86 87 88 89 92 94 91 90 100 102 103 107 110 105 111 112 113 106 116 117]</text>
<polyline fill="none" stroke="#0058ad" points="3758,-162.5 3758,-191.5 "/>
<text text-anchor="middle" x="4697.5" y="-173.3" font-family="Times,serif" font-size="14.00" fill="#0058ad">r 30 [1 2 4 5 3 6 8 9 10 7 11 12 13 14 15 16 17 18 19 20 21 22 23 25 24 26 27 28 29 32 30 31 33 34 35 36 37 38 39 40 41 42 43 44 45 46 48 49 50 47 51 52 53 54 55 56 57 58 59 60 61 62 63 64 65 66 67 68 72 69 70 71 74 73 77 78 79 75 76 80 81 82 83 84 85 86 87 88 89 92 94 91 90 100 102 103 107 110 105 111 112 113 106 116 117]</text>
<polyline fill="none" stroke="#0058ad" points="5637,-162.5 5637,-191.5 "/>
<text text-anchor="middle" x="6576.5" y="-173.3" font-family="Times,serif" font-size="14.00" fill="#0058ad">r 30 [1 2 4 5 3 6 8 9 10 7 11 12 13 14 15 16 17 18 19 20 21 22 23 25 24 26 27 28 29 32 30 31 33 34 35 36 37 38 39 40 41 42 43 44 45 46 48 49 50 47 51 52 53 54 55 56 57 58 59 60 61 62 63 64 65 66 67 68 72 69 70 71 74 73 77 78 79 75 76 80 81 82 83 84 85 86 87 88 89 92 94 91 90 100 102 103 107 110 105 111 112 113 106 116 117]</text>
</g>
<!-- T5283&#45;&gt;T5286 -->
<g id="edge1" class="edge">
<title>T5283&#45;&gt;T5286</title>
<path fill="none" stroke="#0050c0" d="M7500.81,-255.5205C7049.5543,-246.0536 5412.7866,-211.7158 4459.7409,-191.7218"/>
<polygon fill="#0050c0" stroke="#0050c0" points="4459.6807,-188.2199 4449.6095,-191.5093 4459.5338,-195.2184 4459.6807,-188.2199"/>
<text text-anchor="middle" x="6038.5" y="-213.8" font-family="Times,serif" font-size="14.00" fill="#0050c0">rt</text>
</g>
<!-- T5281 -->
<g id="node2" class="node">
<title>T5281</title>
<polygon fill="none" stroke="#0058ad" points="3701,-.5 3701,-29.5 3815,-29.5 3815,-.5 3701,-.5"/>
<text text-anchor="middle" x="3729.5" y="-11.3" font-family="Times,serif" font-size="14.00" fill="#0058ad">a 26 39</text>
<polyline fill="none" stroke="#0058ad" points="3758,-.5 3758,-29.5 "/>
<text text-anchor="middle" x="3786.5" y="-11.3" font-family="Times,serif" font-size="14.00" fill="#0058ad">a 31 13</text>
</g>
<!-- T5281&#45;&gt;T5283 -->
<g id="edge2" class="edge">
<title>T5281:f1&#45;&gt;T5283:f0</title>
<path fill="none" stroke="#c02700" d="M3815,-15C4021.2728,-15 7378.4344,-16.8552 7525,-162 7548.1096,-184.8856 7532.7705,-203.0742 7529.5542,-232.8902"/>
<polygon fill="#c02700" stroke="#c02700" points="7526.0527,-232.8234 7529,-243 7533.0422,-233.2066 7526.0527,-232.8234"/>
<text text-anchor="middle" x="7494" y="-132.8" font-family="Times,serif" font-size="14.00" fill="#c02700">ww</text>
</g>
<!-- T5281&#45;&gt;T5286 -->
<g id="edge3" class="edge">
<title>T5281&#45;&gt;T5286</title>
<path fill="none" stroke="#0050c0" d="M3758,-29.5123C3758,-57.2246 3758,-117.9616 3758,-152.2206"/>
<polygon fill="#0050c0" stroke="#0050c0" points="3754.5001,-152.3378 3758,-162.3379 3761.5001,-152.3379 3754.5001,-152.3378"/>
<text text-anchor="middle" x="3762.5" y="-92.3" font-family="Times,serif" font-size="14.00" fill="#0050c0">rt</text>
</g>
<!-- T5285 -->
<g id="node3" class="node">
<title>T5285</title>
<polygon fill="none" stroke="#0058ad" points="227,-81.5 227,-110.5 2379,-110.5 2379,-81.5 227,-81.5"/>
<text text-anchor="middle" x="299.5" y="-92.3" font-family="Times,serif" font-size="14.00" fill="#0058ad">r 31 [2 3 4 5 11 6 7 12]</text>
<polyline fill="none" stroke="#0058ad" points="372,-81.5 372,-110.5 "/>
<text text-anchor="middle" x="1311.5" y="-92.3" font-family="Times,serif" font-size="14.00" fill="#0058ad">r 30 [1 2 4 5 3 6 8 9 10 7 11 12 13 14 15 16 17 18 19 20 21 22 23 25 24 26 27 28 29 32 30 31 33 34 35 36 37 38 39 40 41 42 43 44 45 46 48 49 50 47 51 52 53 54 55 56 57 58 59 60 61 62 63 64 65 66 67 68 72 69 70 71 74 73 77 78 79 75 76 80 81 82 83 84 85 86 87 88 89 92 94 91 90 100 102 103 107 110 105 111 112 113 106 116 117]</text>
<polyline fill="none" stroke="#0058ad" points="2251,-81.5 2251,-110.5 "/>
<text text-anchor="middle" x="2283" y="-92.3" font-family="Times,serif" font-size="14.00" fill="#0058ad">a 30 114</text>
<polyline fill="none" stroke="#0058ad" points="2315,-81.5 2315,-110.5 "/>
<text text-anchor="middle" x="2347" y="-92.3" font-family="Times,serif" font-size="14.00" fill="#0058ad">a 30 115</text>
</g>
<!-- T5285&#45;&gt;T5281 -->
<g id="edge4" class="edge">
<title>T5285:f0&#45;&gt;T5281:f1</title>
<path fill="none" stroke="#5b00c0" d="M299,-81C299,-34.0171 3579.0092,-75.757 3777.6035,-34.146"/>
<polygon fill="#5b00c0" stroke="#5b00c0" points="3779.2639,-37.239 3787,-30 3776.4381,-30.8347 3779.2639,-37.239"/>
<text text-anchor="middle" x="3495.5" y="-51.8" font-family="Times,serif" font-size="14.00" fill="#5b00c0">rw</text>
</g>
<!-- T5286&#45;&gt;T5285 -->
<g id="edge5" class="edge">
<title>T5286:f0&#45;&gt;T5285:f2</title>
<path fill="none" stroke="#5b00c0" d="M939,-162C939,-16.0617 2220.7383,-249.0396 2280.8198,-120.863"/>
<polygon fill="#5b00c0" stroke="#5b00c0" points="2284.259,-121.5198 2283,-111 2277.424,-120.0088 2284.259,-121.5198"/>
<text text-anchor="middle" x="2276.5" y="-132.8" font-family="Times,serif" font-size="14.00" fill="#5b00c0">rw</text>
</g>
</g>
</svg>
