<?xml version="1.0" encoding="UTF-8" standalone="no"?>
<!DOCTYPE svg PUBLIC "-//W3C//DTD SVG 1.1//EN"
 "http://www.w3.org/Graphics/SVG/1.1/DTD/svg11.dtd">
<!-- Generated by graphviz version 2.40.1 (20161225.0304)
 -->
<!-- Title: a_graph Pages: 1 -->
<svg width="1398pt" height="200pt"
 viewBox="0.00 0.00 1397.50 200.00" xmlns="http://www.w3.org/2000/svg" xmlns:xlink="http://www.w3.org/1999/xlink">
<g id="graph0" class="graph" transform="scale(1 1) rotate(0) translate(4 196)">
<title>a_graph</title>
<polygon fill="#ffffff" stroke="transparent" points="-4,4 -4,-196 1393.5,-196 1393.5,4 -4,4"/>
<!-- T18073 -->
<g id="node1" class="node">
<title>T18073</title>
<polygon fill="none" stroke="#0058ad" points="0,-162.5 0,-191.5 356,-191.5 356,-162.5 0,-162.5"/>
<text text-anchor="middle" x="28.5" y="-173.3" font-family="Times,serif" font-size="14.00" fill="#0058ad">a 90 96</text>
<polyline fill="none" stroke="#0058ad" points="57,-162.5 57,-191.5 "/>
<text text-anchor="middle" x="206.5" y="-173.3" font-family="Times,serif" font-size="14.00" fill="#0058ad">r 91 [8 11 12 13 16 17 15 18 19 20 21 22 23 24 25]</text>
</g>
<!-- T18069 -->
<g id="node2" class="node">
<title>T18069</title>
<polygon fill="none" stroke="#0058ad" points="150.5,-81.5 150.5,-110.5 1389.5,-110.5 1389.5,-81.5 150.5,-81.5"/>
<text text-anchor="middle" x="179" y="-92.3" font-family="Times,serif" font-size="14.00" fill="#0058ad">a 91 26</text>
<polyline fill="none" stroke="#0058ad" points="207.5,-81.5 207.5,-110.5 "/>
<text text-anchor="middle" x="573" y="-92.3" font-family="Times,serif" font-size="14.00" fill="#0058ad">r 90 [5 43 44 45 46 47 48 49 59 65 60 66 67 68 69 71 72 70 73 74 76 77 75 79 78 81 82 83 84 85 80 86 87 88 89 91 92 90 93 95]</text>
<polyline fill="none" stroke="#0058ad" points="938.5,-81.5 938.5,-110.5 "/>
<text text-anchor="middle" x="1097" y="-92.3" font-family="Times,serif" font-size="14.00" fill="#0058ad">r 91 [8 11 12 13 16 17 15 18 19 20 21 22 23 24 25 26]</text>
<polyline fill="none" stroke="#0058ad" points="1255.5,-81.5 1255.5,-110.5 "/>
<text text-anchor="middle" x="1322.5" y="-92.3" font-family="Times,serif" font-size="14.00" fill="#0058ad">r 88 [34 36 37 38 39]</text>
</g>
<!-- T18073&#45;&gt;T18069 -->
<g id="edge1" class="edge">
<title>T18073:f1&#45;&gt;T18069:f0</title>
<path fill="none" stroke="#5b00c0" d="M207,-162C207,-139.9802 186.6956,-137.231 180.6677,-120.9322"/>
<polygon fill="#5b00c0" stroke="#5b00c0" points="184.1076,-120.2824 179,-111 177.2043,-121.4415 184.1076,-120.2824"/>
<text text-anchor="middle" x="207.5" y="-132.8" font-family="Times,serif" font-size="14.00" fill="#5b00c0">rw</text>
</g>
<!-- T18067 -->
<g id="node3" class="node">
<title>T18067</title>
<polygon fill="none" stroke="#0058ad" points="30,-.5 30,-29.5 386,-29.5 386,-.5 30,-.5"/>
<text text-anchor="middle" x="179.5" y="-11.3" font-family="Times,serif" font-size="14.00" fill="#0058ad">r 91 [8 11 12 13 16 17 15 18 19 20 21 22 23 24 25]</text>
<polyline fill="none" stroke="#0058ad" points="329,-.5 329,-29.5 "/>
<text text-anchor="middle" x="357.5" y="-11.3" font-family="Times,serif" font-size="14.00" fill="#0058ad">a 90 94</text>
</g>
<!-- T18069&#45;&gt;T18067 -->
<g id="edge2" class="edge">
<title>T18069:f1&#45;&gt;T18067:f1</title>
<path fill="none" stroke="#5b00c0" d="M573,-81C573,-39.8585 448.4207,-18.0105 396.0162,-15.2902"/>
<polygon fill="#5b00c0" stroke="#5b00c0" points="396.0972,-11.7912 386,-15 395.8944,-18.7882 396.0972,-11.7912"/>
<text text-anchor="middle" x="570.5" y="-51.8" font-family="Times,serif" font-size="14.00" fill="#5b00c0">rw</text>
</g>
<!-- T18067&#45;&gt;T18073 -->
<g id="edge3" class="edge">
<title>T18067:f1&#45;&gt;T18073:f0</title>
<path fill="none" stroke="#c02700" d="M358,-30C358,-50.4315 194.3457,-41.4282 175,-48 100.08,-73.4507 33.923,-78.8758 28.3759,-151.7662"/>
<polygon fill="#c02700" stroke="#c02700" points="24.8695,-151.8782 28,-162 31.8648,-152.1353 24.8695,-151.8782"/>
<text text-anchor="middle" x="87" y="-92.3" font-family="Times,serif" font-size="14.00" fill="#c02700">ww</text>
</g>
<!-- T18067&#45;&gt;T18069 -->
<g id="edge4" class="edge">
<title>T18067:f0&#45;&gt;T18069:f0</title>
<path fill="none" stroke="#5b00c0" d="M179,-30C179,-48.7708 179,-55.8832 179,-70.6465"/>
<polygon fill="#5b00c0" stroke="#5b00c0" points="175.5001,-71 179,-81 182.5001,-71 175.5001,-71"/>
<text text-anchor="middle" x="186.5" y="-51.8" font-family="Times,serif" font-size="14.00" fill="#5b00c0">rw</text>
</g>
</g>
</svg>
