<?xml version="1.0" encoding="UTF-8" standalone="no"?>
<!DOCTYPE svg PUBLIC "-//W3C//DTD SVG 1.1//EN"
 "http://www.w3.org/Graphics/SVG/1.1/DTD/svg11.dtd">
<!-- Generated by graphviz version 2.40.1 (20161225.0304)
 -->
<!-- Title: a_graph Pages: 1 -->
<svg width="3611pt" height="119pt"
 viewBox="0.00 0.00 3611.00 119.00" xmlns="http://www.w3.org/2000/svg" xmlns:xlink="http://www.w3.org/1999/xlink">
<g id="graph0" class="graph" transform="scale(1 1) rotate(0) translate(4 115)">
<title>a_graph</title>
<polygon fill="#ffffff" stroke="transparent" points="-4,4 -4,-115 3607,-115 3607,4 -4,4"/>
<!-- T10793 -->
<g id="node1" class="node">
<title>T10793</title>
<polygon fill="none" stroke="#0058ad" points="355,-81.5 355,-110.5 3603,-110.5 3603,-81.5 355,-81.5"/>
<text text-anchor="middle" x="615.5" y="-92.3" font-family="Times,serif" font-size="14.00" fill="#0058ad">r 57 [2 1 3 4 5 6 7 8 10 9 11 12 13 14 15 16 17 18 19 20 21 22 23 24 25 26 27 28 29 31 32]</text>
<polyline fill="none" stroke="#0058ad" points="876,-81.5 876,-110.5 "/>
<text text-anchor="middle" x="904.5" y="-92.3" font-family="Times,serif" font-size="14.00" fill="#0058ad">a 55 80</text>
<polyline fill="none" stroke="#0058ad" points="933,-81.5 933,-110.5 "/>
<text text-anchor="middle" x="1600.5" y="-92.3" font-family="Times,serif" font-size="14.00" fill="#0058ad">r 55 [2 3 4 5 8 10 9 11 12 14 13 15 16 17 18 19 20 21 22 23 25 24 26 27 28 29 30 31 32 33 34 35 36 37 38 39 40 41 42 43 44 45 46 47 48 49 50 51 52 53 54 55 57 58 59 60 56 61 62 63 64 65 66 67 69 70 68 71 73 72 74 75 76 77 78 79 80]</text>
<polyline fill="none" stroke="#0058ad" points="2268,-81.5 2268,-110.5 "/>
<text text-anchor="middle" x="2935.5" y="-92.3" font-family="Times,serif" font-size="14.00" fill="#0058ad">r 55 [2 3 4 5 8 10 9 11 12 14 13 15 16 17 18 19 20 21 22 23 25 24 26 27 28 29 30 31 32 33 34 35 36 37 38 39 40 41 42 43 44 45 46 47 48 49 50 51 52 53 54 55 57 58 59 60 56 61 62 63 64 65 66 67 69 70 68 71 73 72 74 75 76 77 78 79 80]</text>
</g>
<!-- T10795 -->
<g id="node2" class="node">
<title>T10795</title>
<polygon fill="none" stroke="#0058ad" points="0,-.5 0,-29.5 1914,-29.5 1914,-.5 0,-.5"/>
<text text-anchor="middle" x="28.5" y="-11.3" font-family="Times,serif" font-size="14.00" fill="#0058ad">a 57 30</text>
<polyline fill="none" stroke="#0058ad" points="57,-.5 57,-29.5 "/>
<text text-anchor="middle" x="326.5" y="-11.3" font-family="Times,serif" font-size="14.00" fill="#0058ad">r 57 [2 1 3 4 5 6 7 8 10 9 11 12 13 14 15 16 17 18 19 20 21 22 23 24 25 26 27 28 29 31 32 30]</text>
<polyline fill="none" stroke="#0058ad" points="596,-.5 596,-29.5 "/>
<text text-anchor="middle" x="1255" y="-11.3" font-family="Times,serif" font-size="14.00" fill="#0058ad">r 55 [2 3 4 5 8 10 9 11 12 14 13 15 16 17 18 19 20 21 22 23 25 24 26 27 28 29 30 31 32 33 34 35 36 37 38 39 40 41 42 43 44 45 46 47 48 49 50 51 52 53 54 55 57 58 59 60 56 61 62 63 64 65 66 67 69 70 68 71 73 72 74 75 76 77 78 79]</text>
</g>
<!-- T10793&#45;&gt;T10795 -->
<g id="edge1" class="edge">
<title>T10793:f0&#45;&gt;T10795:f0</title>
<path fill="none" stroke="#5b00c0" d="M355,-96C320.9022,-96 72.8132,-71.5144 33.2989,-38.7374"/>
<polygon fill="#5b00c0" stroke="#5b00c0" points="36.1782,-36.7355 28,-30 30.1929,-40.3654 36.1782,-36.7355"/>
<text text-anchor="middle" x="107.5" y="-51.8" font-family="Times,serif" font-size="14.00" fill="#5b00c0">rw</text>
</g>
<!-- T10795&#45;&gt;T10793 -->
<g id="edge2" class="edge">
<title>T10795:f2&#45;&gt;T10793:f1</title>
<path fill="none" stroke="#5b00c0" d="M1255,-30C1255,-184.0974 919.5905,64.9792 904.5233,-71.0069"/>
<polygon fill="#5b00c0" stroke="#5b00c0" points="901.0278,-70.8306 904,-81 908.0182,-71.1967 901.0278,-70.8306"/>
<text text-anchor="middle" x="1258.5" y="-51.8" font-family="Times,serif" font-size="14.00" fill="#5b00c0">rw</text>
</g>
</g>
</svg>
