<?xml version="1.0" encoding="UTF-8" standalone="no"?>
<!DOCTYPE svg PUBLIC "-//W3C//DTD SVG 1.1//EN"
 "http://www.w3.org/Graphics/SVG/1.1/DTD/svg11.dtd">
<!-- Generated by graphviz version 2.40.1 (20161225.0304)
 -->
<!-- Title: a_graph Pages: 1 -->
<svg width="2176pt" height="119pt"
 viewBox="0.00 0.00 2176.00 119.00" xmlns="http://www.w3.org/2000/svg" xmlns:xlink="http://www.w3.org/1999/xlink">
<g id="graph0" class="graph" transform="scale(1 1) rotate(0) translate(4 115)">
<title>a_graph</title>
<polygon fill="#ffffff" stroke="transparent" points="-4,4 -4,-115 2172,-115 2172,4 -4,4"/>
<!-- T11105 -->
<g id="node1" class="node">
<title>T11105</title>
<polygon fill="none" stroke="#0058ad" points="0,-81.5 0,-110.5 2168,-110.5 2168,-81.5 0,-81.5"/>
<text text-anchor="middle" x="1027" y="-92.3" font-family="Times,serif" font-size="14.00" fill="#0058ad">r 55 [2 3 4 5 8 10 9 11 12 14 13 15 16 17 18 19 20 21 22 23 25 24 26 27 28 29 30 31 32 33 34 35 36 37 38 39 40 41 42 43 44 45 46 47 48 49 50 51 52 53 54 55 57 58 59 60 56 61 62 63 64 65 66 67 69 70 68 71 73 72 74 75 76 77 78 79 80 81 82 83 84 85 86 87 88 89 90 92 93 94 95 96 97 98 99 100 101 102 103 104 105 106 107 108 109 110 111 113 112 114 115 116]</text>
<polyline fill="none" stroke="#0058ad" points="2054,-81.5 2054,-110.5 "/>
<text text-anchor="middle" x="2086" y="-92.3" font-family="Times,serif" font-size="14.00" fill="#0058ad">a 52 110</text>
<polyline fill="none" stroke="#0058ad" points="2118,-81.5 2118,-110.5 "/>
<text text-anchor="middle" x="2143" y="-92.3" font-family="Times,serif" font-size="14.00" fill="#0058ad">a 58 6</text>
</g>
<!-- T11109 -->
<g id="node2" class="node">
<title>T11109</title>
<polygon fill="none" stroke="#0058ad" points="1485.5,-.5 1485.5,-29.5 1716.5,-29.5 1716.5,-.5 1485.5,-.5"/>
<text text-anchor="middle" x="1540.5" y="-11.3" font-family="Times,serif" font-size="14.00" fill="#0058ad">r 58 [1 2 3 4 5 7]</text>
<polyline fill="none" stroke="#0058ad" points="1595.5,-.5 1595.5,-29.5 "/>
<text text-anchor="middle" x="1627.5" y="-11.3" font-family="Times,serif" font-size="14.00" fill="#0058ad">a 55 117</text>
<polyline fill="none" stroke="#0058ad" points="1659.5,-.5 1659.5,-29.5 "/>
<text text-anchor="middle" x="1688" y="-11.3" font-family="Times,serif" font-size="14.00" fill="#0058ad">a 36 89</text>
</g>
<!-- T11105&#45;&gt;T11109 -->
<g id="edge1" class="edge">
<title>T11105:f0&#45;&gt;T11109:f1</title>
<path fill="none" stroke="#5b00c0" d="M1027,-81C1027,49.3705 1595.5822,-152.427 1626.6765,-40.2219"/>
<polygon fill="#5b00c0" stroke="#5b00c0" points="1630.1869,-40.3667 1628,-30 1623.2448,-39.4678 1630.1869,-40.3667"/>
<text text-anchor="middle" x="1629.5" y="-51.8" font-family="Times,serif" font-size="14.00" fill="#5b00c0">rw</text>
</g>
<!-- T11109&#45;&gt;T11105 -->
<g id="edge2" class="edge">
<title>T11109:f0&#45;&gt;T11105:f2</title>
<path fill="none" stroke="#5b00c0" d="M1540,-30C1540,-61.3214 2063.3764,-49.3676 2134.9318,-74.7725"/>
<polygon fill="#5b00c0" stroke="#5b00c0" points="2132.9452,-77.6605 2143,-81 2137.2224,-72.1191 2132.9452,-77.6605"/>
<text text-anchor="middle" x="2034.5" y="-51.8" font-family="Times,serif" font-size="14.00" fill="#5b00c0">rw</text>
</g>
</g>
</svg>
