<?xml version="1.0" encoding="UTF-8" standalone="no"?>
<!DOCTYPE svg PUBLIC "-//W3C//DTD SVG 1.1//EN"
 "http://www.w3.org/Graphics/SVG/1.1/DTD/svg11.dtd">
<!-- Generated by graphviz version 2.40.1 (20161225.0304)
 -->
<!-- Title: a_graph Pages: 1 -->
<svg width="1928pt" height="119pt"
 viewBox="0.00 0.00 1928.00 119.00" xmlns="http://www.w3.org/2000/svg" xmlns:xlink="http://www.w3.org/1999/xlink">
<g id="graph0" class="graph" transform="scale(1 1) rotate(0) translate(4 115)">
<title>a_graph</title>
<polygon fill="#ffffff" stroke="transparent" points="-4,4 -4,-115 1924,-115 1924,4 -4,4"/>
<!-- T15031 -->
<g id="node1" class="node">
<title>T15031</title>
<polygon fill="none" stroke="#0058ad" points="29,-81.5 29,-110.5 1251,-110.5 1251,-81.5 29,-81.5"/>
<text text-anchor="middle" x="57.5" y="-92.3" font-family="Times,serif" font-size="14.00" fill="#0058ad">a 78 53</text>
<polyline fill="none" stroke="#0058ad" points="86,-81.5 86,-110.5 "/>
<text text-anchor="middle" x="114.5" y="-92.3" font-family="Times,serif" font-size="14.00" fill="#0058ad">a 78 54</text>
<polyline fill="none" stroke="#0058ad" points="143,-81.5 143,-110.5 "/>
<text text-anchor="middle" x="697" y="-92.3" font-family="Times,serif" font-size="14.00" fill="#0058ad">r 76 [2 3 4 1 5 6 7 9 8 10 11 12 13 14 15 16 17 18 19 20 21 22 23 24 25 26 27 28 29 30 32 31 33 34 35 36 38 37 39 40 45 46 48 47 50 49 51 52 53 54 55 56 57 58 60 61 59 63 62 65 64 67 68 66 69]</text>
</g>
<!-- T15033 -->
<g id="node2" class="node">
<title>T15033</title>
<polygon fill="none" stroke="#0058ad" points="0,-.5 0,-29.5 1920,-29.5 1920,-.5 0,-.5"/>
<text text-anchor="middle" x="28.5" y="-11.3" font-family="Times,serif" font-size="14.00" fill="#0058ad">a 76 70</text>
<polyline fill="none" stroke="#0058ad" points="57,-.5 57,-29.5 "/>
<text text-anchor="middle" x="426" y="-11.3" font-family="Times,serif" font-size="14.00" fill="#0058ad">r 78 [2 3 4 5 6 12 13 14 17 10 20 21 22 23 24 25 26 27 28 29 30 31 32 33 34 35 36 37 40 39 42 41 38 44 43 45 48 49 46 47 50 52]</text>
<polyline fill="none" stroke="#0058ad" points="795,-.5 795,-29.5 "/>
<text text-anchor="middle" x="1357.5" y="-11.3" font-family="Times,serif" font-size="14.00" fill="#0058ad">r 76 [2 3 4 1 5 6 7 9 8 10 11 12 13 14 15 16 17 18 19 20 21 22 23 24 25 26 27 28 29 30 32 31 33 34 35 36 38 37 39 40 45 46 48 47 50 49 51 52 53 54 55 56 57 58 60 61 59 63 62 65 64 67 68 66 69 70]</text>
</g>
<!-- T15031&#45;&gt;T15033 -->
<g id="edge1" class="edge">
<title>T15031:f2&#45;&gt;T15033:f0</title>
<path fill="none" stroke="#5b00c0" d="M697,-81C697,-72.3548 121.1977,-43.8757 37.9762,-32.3639"/>
<polygon fill="#5b00c0" stroke="#5b00c0" points="38.5376,-28.9 28,-30 36.9236,-35.7114 38.5376,-28.9"/>
<text text-anchor="middle" x="487.5" y="-51.8" font-family="Times,serif" font-size="14.00" fill="#5b00c0">rw</text>
</g>
<!-- T15033&#45;&gt;T15031 -->
<g id="edge2" class="edge">
<title>T15033:f1&#45;&gt;T15031:f0</title>
<path fill="none" stroke="#5b00c0" d="M426,-30C426,-52.4227 247.1982,-44.8347 225,-48 153.3468,-58.2171 66.0083,-10.0099 57.65,-70.7602"/>
<polygon fill="#5b00c0" stroke="#5b00c0" points="54.1406,-70.7983 57,-81 61.1266,-71.2418 54.1406,-70.7983"/>
<text text-anchor="middle" x="232.5" y="-51.8" font-family="Times,serif" font-size="14.00" fill="#5b00c0">rw</text>
</g>
</g>
</svg>
