<?xml version="1.0" encoding="UTF-8" standalone="no"?>
<!DOCTYPE svg PUBLIC "-//W3C//DTD SVG 1.1//EN"
 "http://www.w3.org/Graphics/SVG/1.1/DTD/svg11.dtd">
<!-- Generated by graphviz version 2.40.1 (20161225.0304)
 -->
<!-- Title: a_graph Pages: 1 -->
<svg width="1622pt" height="281pt"
 viewBox="0.00 0.00 1622.00 281.00" xmlns="http://www.w3.org/2000/svg" xmlns:xlink="http://www.w3.org/1999/xlink">
<g id="graph0" class="graph" transform="scale(1 1) rotate(0) translate(4 277)">
<title>a_graph</title>
<polygon fill="#ffffff" stroke="transparent" points="-4,4 -4,-277 1618,-277 1618,4 -4,4"/>
<!-- T19947 -->
<g id="node1" class="node">
<title>T19947</title>
<polygon fill="none" stroke="#0058ad" points="178,-243.5 178,-272.5 1286,-272.5 1286,-243.5 178,-243.5"/>
<text text-anchor="middle" x="732" y="-254.3" font-family="Times,serif" font-size="14.00" fill="#0058ad">r 97 [1 2 3 4 5 6 7 8 9 10 11 12 13 14 15 16 17 18 19 20 21 22 23 24 25 26 27 28 29 30 31 32 33 34 35 36 37 38 39 40 41 42 43 46 47 48 49 50 51 52 53 54 55 56 58 59 60 63 66 67 68 69 70 71 72]</text>
</g>
<!-- T19938 -->
<g id="node2" class="node">
<title>T19938</title>
<polygon fill="none" stroke="#0058ad" points="638.5,-162.5 638.5,-191.5 695.5,-191.5 695.5,-162.5 638.5,-162.5"/>
<text text-anchor="middle" x="667" y="-173.3" font-family="Times,serif" font-size="14.00" fill="#0058ad">a 97 73</text>
</g>
<!-- T19947&#45;&gt;T19938 -->
<g id="edge1" class="edge">
<title>T19947:f0&#45;&gt;T19938:f0</title>
<path fill="none" stroke="#5b00c0" d="M718.7593,-243.4251C713.7253,-237.7573 708.0014,-231.1566 703,-225 696.4402,-216.9251 689.5194,-207.8449 683.5177,-199.7728"/>
<polygon fill="#5b00c0" stroke="#5b00c0" points="686.1758,-197.4799 677.4266,-191.5048 680.54,-201.6319 686.1758,-197.4799"/>
<text text-anchor="middle" x="710.5" y="-213.8" font-family="Times,serif" font-size="14.00" fill="#5b00c0">rw</text>
</g>
<!-- T19941 -->
<g id="node3" class="node">
<title>T19941</title>
<polygon fill="none" stroke="#0058ad" points="641,-81.5 641,-110.5 779,-110.5 779,-81.5 641,-81.5"/>
<text text-anchor="middle" x="710" y="-92.3" font-family="Times,serif" font-size="14.00" fill="#0058ad">r 100 [1 2 3 5 6 7 8 9]</text>
</g>
<!-- T19938&#45;&gt;T19941 -->
<g id="edge2" class="edge">
<title>T19938&#45;&gt;T19941</title>
<path fill="none" stroke="#0050c0" d="M674.8869,-162.1434C681.1907,-150.2687 690.147,-133.3976 697.4362,-119.6667"/>
<polygon fill="#0050c0" stroke="#0050c0" points="700.5656,-121.2362 702.1631,-110.7625 694.3828,-117.9539 700.5656,-121.2362"/>
<text text-anchor="middle" x="697.5" y="-132.8" font-family="Times,serif" font-size="14.00" fill="#0050c0">rt</text>
</g>
<!-- T19942 -->
<g id="node4" class="node">
<title>T19942</title>
<polygon fill="none" stroke="#0058ad" points="0,-.5 0,-29.5 1614,-29.5 1614,-.5 0,-.5"/>
<text text-anchor="middle" x="69" y="-11.3" font-family="Times,serif" font-size="14.00" fill="#0058ad">r 100 [1 2 3 5 6 7 8 9]</text>
<polyline fill="none" stroke="#0058ad" points="138,-.5 138,-29.5 "/>
<text text-anchor="middle" x="170" y="-11.3" font-family="Times,serif" font-size="14.00" fill="#0058ad">a 100 11</text>
<polyline fill="none" stroke="#0058ad" points="202,-.5 202,-29.5 "/>
<text text-anchor="middle" x="764.5" y="-11.3" font-family="Times,serif" font-size="14.00" fill="#0058ad">r 97 [1 2 3 4 5 6 7 8 9 10 11 12 13 14 15 16 17 18 19 20 21 22 23 24 25 26 27 28 29 30 31 32 33 34 35 36 37 38 39 40 41 42 43 46 47 48 49 50 51 52 53 54 55 56 58 59 60 63 66 67 68 69 70 71 72 73]</text>
<polyline fill="none" stroke="#0058ad" points="1327,-.5 1327,-29.5 "/>
<text text-anchor="middle" x="1470.5" y="-11.3" font-family="Times,serif" font-size="14.00" fill="#0058ad">r 99 [1 3 4 5 6 7 8 9 11 12 13 14 15 16 17 18 19]</text>
</g>
<!-- T19938&#45;&gt;T19942 -->
<g id="edge3" class="edge">
<title>T19938:f0&#45;&gt;T19942:f2</title>
<path fill="none" stroke="#c000a5" d="M651.4299,-162.4394C639.4291,-150.0751 623.7766,-131.1672 617,-111 608.0534,-84.3749 601.8991,-67.6186 622,-48 642.0066,-28.4734 736.537,-53.9373 759.1377,-38.7951"/>
<polygon fill="#c000a5" stroke="#c000a5" points="762.2247,-40.4451 764,-30 756.0986,-37.0582 762.2247,-40.4451"/>
<text text-anchor="middle" x="624.5" y="-92.3" font-family="Times,serif" font-size="14.00" fill="#c000a5">wr</text>
</g>
<!-- T19941&#45;&gt;T19947 -->
<g id="edge5" class="edge">
<title>T19941&#45;&gt;T19947</title>
<path fill="none" stroke="#0050c0" d="M711.9708,-110.5123C715.7342,-138.2246 723.9824,-198.9616 728.6349,-233.2206"/>
<polygon fill="#0050c0" stroke="#0050c0" points="725.1949,-233.8998 730.0088,-243.3379 732.1313,-232.9578 725.1949,-233.8998"/>
<text text-anchor="middle" x="727.5" y="-173.3" font-family="Times,serif" font-size="14.00" fill="#0050c0">rt</text>
</g>
<!-- T19941&#45;&gt;T19942 -->
<g id="edge4" class="edge">
<title>T19941:f0&#45;&gt;T19942:f1</title>
<path fill="none" stroke="#5b00c0" d="M689.83,-81.4725C672.704,-70.0333 646.9936,-54.9057 622,-48 599.811,-41.8692 239.0067,-52.9537 178.5593,-35.5428"/>
<polygon fill="#5b00c0" stroke="#5b00c0" points="180.2962,-32.4978 170,-30 176.4913,-38.3734 180.2962,-32.4978"/>
<text text-anchor="middle" x="665.5" y="-51.8" font-family="Times,serif" font-size="14.00" fill="#5b00c0">rw</text>
</g>
<!-- T19942&#45;&gt;T19947 -->
<g id="edge6" class="edge">
<title>T19942&#45;&gt;T19947</title>
<path fill="none" stroke="#0050c0" d="M804.8621,-29.8215C801.9383,-48.84 796.1139,-82.7495 788,-111 775.2541,-155.3779 754.919,-205.2539 742.5779,-234.0107"/>
<polygon fill="#0050c0" stroke="#0050c0" points="739.3355,-232.6906 738.5717,-243.2579 745.7586,-235.4734 739.3355,-232.6906"/>
<text text-anchor="middle" x="786.5" y="-132.8" font-family="Times,serif" font-size="14.00" fill="#0050c0">rt</text>
</g>
</g>
</svg>
