<?xml version="1.0" encoding="UTF-8" standalone="no"?>
<!DOCTYPE svg PUBLIC "-//W3C//DTD SVG 1.1//EN"
 "http://www.w3.org/Graphics/SVG/1.1/DTD/svg11.dtd">
<!-- Generated by graphviz version 2.40.1 (20161225.0304)
 -->
<!-- Title: a_graph Pages: 1 -->
<svg width="3407pt" height="119pt"
 viewBox="0.00 0.00 3407.00 119.00" xmlns="http://www.w3.org/2000/svg" xmlns:xlink="http://www.w3.org/1999/xlink">
<g id="graph0" class="graph" transform="scale(1 1) rotate(0) translate(4 115)">
<title>a_graph</title>
<polygon fill="#ffffff" stroke="transparent" points="-4,4 -4,-115 3403,-115 3403,4 -4,4"/>
<!-- T7295 -->
<g id="node1" class="node">
<title>T7295</title>
<polygon fill="none" stroke="#0058ad" points="0,-81.5 0,-110.5 3399,-110.5 3399,-81.5 0,-81.5"/>
<text text-anchor="middle" x="28.5" y="-92.3" font-family="Times,serif" font-size="14.00" fill="#0058ad">a 39 46</text>
<polyline fill="none" stroke="#0058ad" points="57,-81.5 57,-110.5 "/>
<text text-anchor="middle" x="706" y="-92.3" font-family="Times,serif" font-size="14.00" fill="#0058ad">r 37 [1 2 3 4 5 6 7 8 9 10 11 12 13 14 15 16 17 18 19 21 20 22 23 24 25 26 27 28 29 30 31 32 33 34 35 37 38 36 39 40 41 43 42 44 45 46 47 48 49 51 50 52 53 54 55 58 56 57 59 60 61 62 63 64 65 66 67 68 69 72 70 71 73 74 75 76]</text>
<polyline fill="none" stroke="#0058ad" points="1355,-81.5 1355,-110.5 "/>
<text text-anchor="middle" x="1866" y="-92.3" font-family="Times,serif" font-size="14.00" fill="#0058ad">r 40 [1 2 4 5 6 3 7 10 12 13 11 14 8 9 15 17 18 20 16 19 22 23 24 25 26 27 28 29 21 30 31 32 33 35 36 37 38 34 39 40 41 42 43 44 47 48 49 45 46 50 51 52 53 55 56 57 54 58 59 60]</text>
<polyline fill="none" stroke="#0058ad" points="2377,-81.5 2377,-110.5 "/>
<text text-anchor="middle" x="2888" y="-92.3" font-family="Times,serif" font-size="14.00" fill="#0058ad">r 40 [1 2 4 5 6 3 7 10 12 13 11 14 8 9 15 17 18 20 16 19 22 23 24 25 26 27 28 29 21 30 31 32 33 35 36 37 38 34 39 40 41 42 43 44 47 48 49 45 46 50 51 52 53 55 56 57 54 58 59 60]</text>
</g>
<!-- T7297 -->
<g id="node2" class="node">
<title>T7297</title>
<polygon fill="none" stroke="#0058ad" points="264.5,-.5 264.5,-29.5 1904.5,-29.5 1904.5,-.5 264.5,-.5"/>
<text text-anchor="middle" x="293" y="-11.3" font-family="Times,serif" font-size="14.00" fill="#0058ad">a 40 61</text>
<polyline fill="none" stroke="#0058ad" points="321.5,-.5 321.5,-29.5 "/>
<text text-anchor="middle" x="703" y="-11.3" font-family="Times,serif" font-size="14.00" fill="#0058ad">r 39 [1 4 5 2 3 6 7 8 9 10 11 12 13 14 15 18 19 20 16 17 22 21 24 23 25 26 27 28 30 31 32 29 33 34 36 37 38 40 35 39 41 42 43 44 45]</text>
<polyline fill="none" stroke="#0058ad" points="1084.5,-.5 1084.5,-29.5 "/>
<text text-anchor="middle" x="1466" y="-11.3" font-family="Times,serif" font-size="14.00" fill="#0058ad">r 39 [1 4 5 2 3 6 7 8 9 10 11 12 13 14 15 18 19 20 16 17 22 21 24 23 25 26 27 28 30 31 32 29 33 34 36 37 38 40 35 39 41 42 43 44 45]</text>
<polyline fill="none" stroke="#0058ad" points="1847.5,-.5 1847.5,-29.5 "/>
<text text-anchor="middle" x="1876" y="-11.3" font-family="Times,serif" font-size="14.00" fill="#0058ad">a 40 62</text>
</g>
<!-- T7295&#45;&gt;T7297 -->
<g id="edge1" class="edge">
<title>T7295:f2&#45;&gt;T7297:f0</title>
<path fill="none" stroke="#5b00c0" d="M1866.5,-81C1866.5,-60.1313 433.6724,-52.5693 302.1433,-32.9222"/>
<polygon fill="#5b00c0" stroke="#5b00c0" points="303.0853,-29.5505 292.5,-30 301.0552,-36.2497 303.0853,-29.5505"/>
<text text-anchor="middle" x="1451" y="-51.8" font-family="Times,serif" font-size="14.00" fill="#5b00c0">rw</text>
</g>
<!-- T7297&#45;&gt;T7295 -->
<g id="edge2" class="edge">
<title>T7297:f1&#45;&gt;T7295:f0</title>
<path fill="none" stroke="#5b00c0" d="M702.5,-30C702.5,-101.5825 90.2065,-14.8146 32.804,-71.5517"/>
<polygon fill="#5b00c0" stroke="#5b00c0" points="29.4605,-70.4488 28.5,-81 35.8307,-73.3507 29.4605,-70.4488"/>
<text text-anchor="middle" x="683" y="-51.8" font-family="Times,serif" font-size="14.00" fill="#5b00c0">rw</text>
</g>
</g>
</svg>
