<?xml version="1.0" encoding="UTF-8" standalone="no"?>
<!DOCTYPE svg PUBLIC "-//W3C//DTD SVG 1.1//EN"
 "http://www.w3.org/Graphics/SVG/1.1/DTD/svg11.dtd">
<!-- Generated by graphviz version 2.40.1 (20161225.0304)
 -->
<!-- Title: a_graph Pages: 1 -->
<svg width="4491pt" height="200pt"
 viewBox="0.00 0.00 4491.00 200.00" xmlns="http://www.w3.org/2000/svg" xmlns:xlink="http://www.w3.org/1999/xlink">
<g id="graph0" class="graph" transform="scale(1 1) rotate(0) translate(4 196)">
<title>a_graph</title>
<polygon fill="#ffffff" stroke="transparent" points="-4,4 -4,-196 4487,-196 4487,4 -4,4"/>
<!-- T7505 -->
<g id="node1" class="node">
<title>T7505</title>
<polygon fill="none" stroke="#0058ad" points="0,-162.5 0,-191.5 4483,-191.5 4483,-162.5 0,-162.5"/>
<text text-anchor="middle" x="1063" y="-173.3" font-family="Times,serif" font-size="14.00" fill="#0058ad">r 26 [2 3 4 5 6 7 8 9 10 12 11 13 14 15 16 17 19 20 21 22 23 24 25 26 27 28 29 30 31 32 34 35 36 37 38 39 40 41 42 43 44 45 46 47 48 49 50 51 52 53 54 55 56 57 58 59 60 61 62 63 64 65 66 67 68 69 70 71 72 73 74 75 77 79 81 82 83 80 84 85 86 87 88 89 90 91 92 93 95 96 97 98 99 100 101 103 104 102 105 106 107 108 109 110 111 112 113 114 115 116 117 118 119 121 120]</text>
<polyline fill="none" stroke="#0058ad" points="2126,-162.5 2126,-191.5 "/>
<text text-anchor="middle" x="2158" y="-173.3" font-family="Times,serif" font-size="14.00" fill="#0058ad">a 26 122</text>
<polyline fill="none" stroke="#0058ad" points="2190,-162.5 2190,-191.5 "/>
<text text-anchor="middle" x="3308" y="-173.3" font-family="Times,serif" font-size="14.00" fill="#0058ad">r 40 [1 2 4 5 6 3 7 10 12 13 11 14 8 9 15 17 18 20 16 19 22 23 24 25 26 27 28 29 21 30 31 32 33 35 36 37 38 34 39 40 41 42 43 44 47 48 49 45 46 50 51 52 53 55 56 57 54 58 59 60 61 62 63 64 66 67 68 69 65 70 71 73 75 74 72 76 77 78 79 80 81 82 83 84 85 86 89 87 90 91 93 92 94 95 97 98 102 103 99 100 104 105 106 107 108 109 112 113 114 116 117 110 111 115 118 119 122 120 121 124 126]</text>
<polyline fill="none" stroke="#0058ad" points="4426,-162.5 4426,-191.5 "/>
<text text-anchor="middle" x="4454.5" y="-173.3" font-family="Times,serif" font-size="14.00" fill="#0058ad">a 39 74</text>
</g>
<!-- T7507 -->
<g id="node3" class="node">
<title>T7507</title>
<polygon fill="none" stroke="#0058ad" points="1917.5,-81.5 1917.5,-110.5 4153.5,-110.5 4153.5,-81.5 1917.5,-81.5"/>
<text text-anchor="middle" x="3035.5" y="-92.3" font-family="Times,serif" font-size="14.00" fill="#0058ad">r 40 [1 2 4 5 6 3 7 10 12 13 11 14 8 9 15 17 18 20 16 19 22 23 24 25 26 27 28 29 21 30 31 32 33 35 36 37 38 34 39 40 41 42 43 44 47 48 49 45 46 50 51 52 53 55 56 57 54 58 59 60 61 62 63 64 66 67 68 69 65 70 71 73 75 74 72 76 77 78 79 80 81 82 83 84 85 86 89 87 90 91 93 92 94 95 97 98 102 103 99 100 104 105 106 107 108 109 112 113 114 116 117 110 111 115 118 119 122 120 121 124 126]</text>
</g>
<!-- T7505&#45;&gt;T7507 -->
<g id="edge1" class="edge">
<title>T7505&#45;&gt;T7507</title>
<path fill="none" stroke="#0050c0" d="M2383.9095,-162.4721C2524.5676,-148.1228 2738.9746,-126.2501 2883.0278,-111.5545"/>
<polygon fill="#0050c0" stroke="#0050c0" points="2883.6829,-115.0059 2893.276,-110.509 2882.9724,-108.042 2883.6829,-115.0059"/>
<text text-anchor="middle" x="2715" y="-132.8" font-family="Times,serif" font-size="14.00" fill="#0050c0">rt</text>
</g>
<!-- T7512 -->
<g id="node2" class="node">
<title>T7512</title>
<polygon fill="none" stroke="#0058ad" points="3130,-.5 3130,-29.5 4359,-29.5 4359,-.5 3130,-.5"/>
<text text-anchor="middle" x="3744.5" y="-11.3" font-family="Times,serif" font-size="14.00" fill="#0058ad">r 39 [1 4 5 2 3 6 7 8 9 10 11 12 13 14 15 18 19 20 16 17 22 21 24 23 25 26 27 28 30 31 32 29 33 34 36 37 38 40 35 39 41 42 43 44 45 46 47 48 49 50 51 52 53 54 55 56 57 58 59 60 62 63 65 64 66 67 68 70 71 69 72 73]</text>
</g>
<!-- T7512&#45;&gt;T7505 -->
<g id="edge2" class="edge">
<title>T7512:f0&#45;&gt;T7505:f3</title>
<path fill="none" stroke="#5b00c0" d="M4114.3167,-29.5126C4278.9972,-45.9925 4439.4186,-80.4035 4453.4992,-151.6939"/>
<polygon fill="#5b00c0" stroke="#5b00c0" points="4450.0498,-152.3851 4454.5,-162 4457.017,-151.7085 4450.0498,-152.3851"/>
<text text-anchor="middle" x="4432" y="-92.3" font-family="Times,serif" font-size="14.00" fill="#5b00c0">rw</text>
</g>
<!-- T7507&#45;&gt;T7512 -->
<g id="edge3" class="edge">
<title>T7507&#45;&gt;T7512</title>
<path fill="none" stroke="#0050c0" d="M3162.6642,-81.4721C3287.8876,-67.1659 3478.5704,-45.3812 3607.191,-30.6869"/>
<polygon fill="#0050c0" stroke="#0050c0" points="3607.9634,-34.1215 3617.5015,-29.509 3607.1688,-27.1668 3607.9634,-34.1215"/>
<text text-anchor="middle" x="3459" y="-51.8" font-family="Times,serif" font-size="14.00" fill="#0050c0">rt</text>
</g>
</g>
</svg>
