<?xml version="1.0" encoding="UTF-8" standalone="no"?>
<!DOCTYPE svg PUBLIC "-//W3C//DTD SVG 1.1//EN"
 "http://www.w3.org/Graphics/SVG/1.1/DTD/svg11.dtd">
<!-- Generated by graphviz version 2.40.1 (20161225.0304)
 -->
<!-- Title: a_graph Pages: 1 -->
<svg width="897pt" height="119pt"
 viewBox="0.00 0.00 897.00 119.00" xmlns="http://www.w3.org/2000/svg" xmlns:xlink="http://www.w3.org/1999/xlink">
<g id="graph0" class="graph" transform="scale(1 1) rotate(0) translate(4 115)">
<title>a_graph</title>
<polygon fill="#ffffff" stroke="transparent" points="-4,4 -4,-115 893,-115 893,4 -4,4"/>
<!-- T5439 -->
<g id="node1" class="node">
<title>T5439</title>
<polygon fill="none" stroke="#0058ad" points="90.5,-81.5 90.5,-110.5 858.5,-110.5 858.5,-81.5 90.5,-81.5"/>
<text text-anchor="middle" x="446" y="-92.3" font-family="Times,serif" font-size="14.00" fill="#0058ad">r 32 [1 3 4 2 5 6 7 8 9 10 11 12 13 14 15 17 18 19 20 16 21 22 23 24 25 26 27 28 29 30 31 32 37 38 39 34 35 36 33 41 42 43]</text>
<polyline fill="none" stroke="#0058ad" points="801.5,-81.5 801.5,-110.5 "/>
<text text-anchor="middle" x="830" y="-92.3" font-family="Times,serif" font-size="14.00" fill="#0058ad">a 29 52</text>
</g>
<!-- T5437 -->
<g id="node2" class="node">
<title>T5437</title>
<polygon fill="none" stroke="#0058ad" points="0,-.5 0,-29.5 889,-29.5 889,-.5 0,-.5"/>
<text text-anchor="middle" x="416" y="-11.3" font-family="Times,serif" font-size="14.00" fill="#0058ad">r 29 [1 2 3 4 5 6 7 8 9 10 11 12 13 14 15 16 17 19 20 18 21 22 23 24 25 26 27 28 29 32 31 34 35 37 36 38 39 40 41 42 43 44 45 46 47 48 50 49 51]</text>
<polyline fill="none" stroke="#0058ad" points="832,-.5 832,-29.5 "/>
<text text-anchor="middle" x="860.5" y="-11.3" font-family="Times,serif" font-size="14.00" fill="#0058ad">a 32 40</text>
</g>
<!-- T5439&#45;&gt;T5437 -->
<g id="edge1" class="edge">
<title>T5439:f0&#45;&gt;T5437:f1</title>
<path fill="none" stroke="#5b00c0" d="M445.5,-81C445.5,35.9235 590.4322,-62.1205 706.5,-48 721.1298,-46.2202 823.4303,-46.9203 852.6959,-36.3744"/>
<polygon fill="#5b00c0" stroke="#5b00c0" points="854.9692,-39.0367 860.5,-30 850.5411,-33.6153 854.9692,-39.0367"/>
<text text-anchor="middle" x="714" y="-51.8" font-family="Times,serif" font-size="14.00" fill="#5b00c0">rw</text>
</g>
<!-- T5437&#45;&gt;T5439 -->
<g id="edge2" class="edge">
<title>T5437:f0&#45;&gt;T5439:f1</title>
<path fill="none" stroke="#5b00c0" d="M415.5,-30C415.5,-47.0294 704.7348,-45.0121 721.5,-48 767.6324,-56.2217 821.7685,-34.1223 829.5502,-70.9584"/>
<polygon fill="#5b00c0" stroke="#5b00c0" points="826.0738,-71.374 830.5,-81 833.0427,-70.7148 826.0738,-71.374"/>
<text text-anchor="middle" x="833" y="-51.8" font-family="Times,serif" font-size="14.00" fill="#5b00c0">rw</text>
</g>
</g>
</svg>
