<?xml version="1.0" encoding="UTF-8" standalone="no"?>
<!DOCTYPE svg PUBLIC "-//W3C//DTD SVG 1.1//EN"
 "http://www.w3.org/Graphics/SVG/1.1/DTD/svg11.dtd">
<!-- Generated by graphviz version 2.40.1 (20161225.0304)
 -->
<!-- Title: a_graph Pages: 1 -->
<svg width="1552pt" height="200pt"
 viewBox="0.00 0.00 1551.50 200.00" xmlns="http://www.w3.org/2000/svg" xmlns:xlink="http://www.w3.org/1999/xlink">
<g id="graph0" class="graph" transform="scale(1 1) rotate(0) translate(4 196)">
<title>a_graph</title>
<polygon fill="#ffffff" stroke="transparent" points="-4,4 -4,-196 1547.5,-196 1547.5,4 -4,4"/>
<!-- T6235 -->
<g id="node1" class="node">
<title>T6235</title>
<polygon fill="none" stroke="#0058ad" points="612,-162.5 612,-191.5 1423,-191.5 1423,-162.5 612,-162.5"/>
<text text-anchor="middle" x="743.5" y="-173.3" font-family="Times,serif" font-size="14.00" fill="#0058ad">r 35 [1 2 3 4 5 6 7 9 8 11 12 10 13 14 15 16]</text>
<polyline fill="none" stroke="#0058ad" points="875,-162.5 875,-191.5 "/>
<text text-anchor="middle" x="1006.5" y="-173.3" font-family="Times,serif" font-size="14.00" fill="#0058ad">r 35 [1 2 3 4 5 6 7 9 8 11 12 10 13 14 15 16]</text>
<polyline fill="none" stroke="#0058ad" points="1138,-162.5 1138,-191.5 "/>
<text text-anchor="middle" x="1252" y="-173.3" font-family="Times,serif" font-size="14.00" fill="#0058ad">r 34 [1 2 3 4 6 9 7 8 5 10 11 12 13 14]</text>
<polyline fill="none" stroke="#0058ad" points="1366,-162.5 1366,-191.5 "/>
<text text-anchor="middle" x="1394.5" y="-173.3" font-family="Times,serif" font-size="14.00" fill="#0058ad">a 34 15</text>
</g>
<!-- T6227 -->
<g id="node2" class="node">
<title>T6227</title>
<polygon fill="none" stroke="#0058ad" points="0,-81.5 0,-110.5 1509,-110.5 1509,-81.5 0,-81.5"/>
<text text-anchor="middle" x="131.5" y="-92.3" font-family="Times,serif" font-size="14.00" fill="#0058ad">r 35 [1 2 3 4 5 6 7 9 8 11 12 10 13 14 15 16]</text>
<polyline fill="none" stroke="#0058ad" points="263,-81.5 263,-110.5 "/>
<text text-anchor="middle" x="291.5" y="-92.3" font-family="Times,serif" font-size="14.00" fill="#0058ad">a 35 17</text>
<polyline fill="none" stroke="#0058ad" points="320,-81.5 320,-110.5 "/>
<text text-anchor="middle" x="348.5" y="-92.3" font-family="Times,serif" font-size="14.00" fill="#0058ad">a 35 18</text>
<polyline fill="none" stroke="#0058ad" points="377,-81.5 377,-110.5 "/>
<text text-anchor="middle" x="943" y="-92.3" font-family="Times,serif" font-size="14.00" fill="#0058ad">r 26 [2 3 4 5 6 7 8 9 10 12 11 13 14 15 16 17 19 20 21 22 23 24 25 26 27 28 29 30 31 32 34 35 36 37 38 39 40 41 42 43 44 45 46 47 48 49 50 51 52 53 54 55 56 57 58 59 60 61 62 63 64 65 66 67 68 69]</text>
</g>
<!-- T6235&#45;&gt;T6227 -->
<g id="edge1" class="edge">
<title>T6235:f0&#45;&gt;T6227:f1</title>
<path fill="none" stroke="#5b00c0" d="M611.5,-177C578.1032,-177 335.3493,-151.8695 296.6849,-119.5825"/>
<polygon fill="#5b00c0" stroke="#5b00c0" points="299.6667,-117.7495 291.5,-111 293.6752,-121.3692 299.6667,-117.7495"/>
<text text-anchor="middle" x="369" y="-132.8" font-family="Times,serif" font-size="14.00" fill="#5b00c0">rw</text>
</g>
<!-- T6231 -->
<g id="node3" class="node">
<title>T6231</title>
<polygon fill="none" stroke="#0058ad" points="900,-.5 900,-29.5 1475,-29.5 1475,-.5 900,-.5"/>
<text text-anchor="middle" x="1048.5" y="-11.3" font-family="Times,serif" font-size="14.00" fill="#0058ad">r 35 [1 2 3 4 5 6 7 9 8 11 12 10 13 14 15 16 17 18]</text>
<polyline fill="none" stroke="#0058ad" points="1197,-.5 1197,-29.5 "/>
<text text-anchor="middle" x="1311" y="-11.3" font-family="Times,serif" font-size="14.00" fill="#0058ad">r 34 [1 2 3 4 6 9 7 8 5 10 11 12 13 14]</text>
<polyline fill="none" stroke="#0058ad" points="1425,-.5 1425,-29.5 "/>
<text text-anchor="middle" x="1450" y="-11.3" font-family="Times,serif" font-size="14.00" fill="#0058ad">a 3 22</text>
</g>
<!-- T6227&#45;&gt;T6231 -->
<g id="edge2" class="edge">
<title>T6227:f2&#45;&gt;T6231:f0</title>
<path fill="none" stroke="#c000a5" d="M348.5,-81C348.5,-21.9896 796.6909,-15.4788 889.2555,-15.0282"/>
<polygon fill="#c000a5" stroke="#c000a5" points="889.5097,-18.5277 899.5,-15 889.4904,-11.5277 889.5097,-18.5277"/>
<text text-anchor="middle" x="418" y="-51.8" font-family="Times,serif" font-size="14.00" fill="#c000a5">wr</text>
</g>
<!-- T6231&#45;&gt;T6235 -->
<g id="edge3" class="edge">
<title>T6231:f1&#45;&gt;T6235:f3</title>
<path fill="none" stroke="#5b00c0" d="M1311.5,-30C1311.5,-124.7511 1460.0616,-6.4163 1518.5,-81 1553.4247,-125.5737 1491.3323,-171.4823 1433.793,-176.5399"/>
<polygon fill="#5b00c0" stroke="#5b00c0" points="1433.3337,-173.0569 1423.5,-177 1433.6463,-180.0499 1433.3337,-173.0569"/>
<text text-anchor="middle" x="1536" y="-92.3" font-family="Times,serif" font-size="14.00" fill="#5b00c0">rw</text>
</g>
</g>
</svg>
