<?xml version="1.0" encoding="UTF-8" standalone="no"?>
<!DOCTYPE svg PUBLIC "-//W3C//DTD SVG 1.1//EN"
 "http://www.w3.org/Graphics/SVG/1.1/DTD/svg11.dtd">
<!-- Generated by graphviz version 2.40.1 (20161225.0304)
 -->
<!-- Title: a_graph Pages: 1 -->
<svg width="2536pt" height="200pt"
 viewBox="0.00 0.00 2536.00 200.00" xmlns="http://www.w3.org/2000/svg" xmlns:xlink="http://www.w3.org/1999/xlink">
<g id="graph0" class="graph" transform="scale(1 1) rotate(0) translate(4 196)">
<title>a_graph</title>
<polygon fill="#ffffff" stroke="transparent" points="-4,4 -4,-196 2532,-196 2532,4 -4,4"/>
<!-- T8067 -->
<g id="node1" class="node">
<title>T8067</title>
<polygon fill="none" stroke="#0058ad" points="0,-162.5 0,-191.5 2013,-191.5 2013,-162.5 0,-162.5"/>
<text text-anchor="middle" x="25" y="-173.3" font-family="Times,serif" font-size="14.00" fill="#0058ad">a 45 8</text>
<polyline fill="none" stroke="#0058ad" points="50,-162.5 50,-191.5 "/>
<text text-anchor="middle" x="526.5" y="-173.3" font-family="Times,serif" font-size="14.00" fill="#0058ad">r 44 [1 2 3 4 5 6 7 8 9 10 11 12 13 17 14 20 15 16 21 22 24 23 26 28 27 30 31 32 29 34 35 33 37 38 36 41 42 39 40 45 46 47 48 43 44 50 51 52 53 49 56 57 54 55 58 59]</text>
<polyline fill="none" stroke="#0058ad" points="1003,-162.5 1003,-191.5 "/>
<text text-anchor="middle" x="1479.5" y="-173.3" font-family="Times,serif" font-size="14.00" fill="#0058ad">r 44 [1 2 3 4 5 6 7 8 9 10 11 12 13 17 14 20 15 16 21 22 24 23 26 28 27 30 31 32 29 34 35 33 37 38 36 41 42 39 40 45 46 47 48 43 44 50 51 52 53 49 56 57 54 55 58 59]</text>
<polyline fill="none" stroke="#0058ad" points="1956,-162.5 1956,-191.5 "/>
<text text-anchor="middle" x="1984.5" y="-173.3" font-family="Times,serif" font-size="14.00" fill="#0058ad">a 43 27</text>
</g>
<!-- T8063 -->
<g id="node3" class="node">
<title>T8063</title>
<polygon fill="none" stroke="#0058ad" points="678.5,-81.5 678.5,-110.5 792.5,-110.5 792.5,-81.5 678.5,-81.5"/>
<text text-anchor="middle" x="707" y="-92.3" font-family="Times,serif" font-size="14.00" fill="#0058ad">a 44 60</text>
<polyline fill="none" stroke="#0058ad" points="735.5,-81.5 735.5,-110.5 "/>
<text text-anchor="middle" x="764" y="-92.3" font-family="Times,serif" font-size="14.00" fill="#0058ad">a 44 61</text>
</g>
<!-- T8067&#45;&gt;T8063 -->
<g id="edge1" class="edge">
<title>T8067:f1&#45;&gt;T8063:f0</title>
<path fill="none" stroke="#5b00c0" d="M526.5,-162C526.5,-128.1243 623.9679,-100.7217 668.2456,-96.5502"/>
<polygon fill="#5b00c0" stroke="#5b00c0" points="668.7019,-100.0309 678.5,-96 668.3268,-93.0409 668.7019,-100.0309"/>
<text text-anchor="middle" x="564" y="-132.8" font-family="Times,serif" font-size="14.00" fill="#5b00c0">rw</text>
</g>
<!-- T8065 -->
<g id="node2" class="node">
<title>T8065</title>
<polygon fill="none" stroke="#0058ad" points="1601,-.5 1601,-29.5 2528,-29.5 2528,-.5 1601,-.5"/>
<text text-anchor="middle" x="1629.5" y="-11.3" font-family="Times,serif" font-size="14.00" fill="#0058ad">a 44 62</text>
<polyline fill="none" stroke="#0058ad" points="1658,-.5 1658,-29.5 "/>
<text text-anchor="middle" x="1875.5" y="-11.3" font-family="Times,serif" font-size="14.00" fill="#0058ad">r 43 [1 2 3 4 5 6 7 8 11 9 10 12 13 14 15 16 17 18 19 20 21 22 23 24 25 26]</text>
<polyline fill="none" stroke="#0058ad" points="2093,-.5 2093,-29.5 "/>
<text text-anchor="middle" x="2310.5" y="-11.3" font-family="Times,serif" font-size="14.00" fill="#0058ad">r 43 [1 2 3 4 5 6 7 8 11 9 10 12 13 14 15 16 17 18 19 20 21 22 23 24 25 26]</text>
</g>
<!-- T8065&#45;&gt;T8067 -->
<g id="edge2" class="edge">
<title>T8065:f1&#45;&gt;T8067:f3</title>
<path fill="none" stroke="#5b00c0" d="M1875.5,-30C1875.5,-102.5167 1974.5208,-87.596 1983.8039,-151.9154"/>
<polygon fill="#5b00c0" stroke="#5b00c0" points="1980.3196,-152.2648 1984.5,-162 1987.303,-151.7827 1980.3196,-152.2648"/>
<text text-anchor="middle" x="1964" y="-92.3" font-family="Times,serif" font-size="14.00" fill="#5b00c0">rw</text>
</g>
<!-- T8063&#45;&gt;T8065 -->
<g id="edge3" class="edge">
<title>T8063:f1&#45;&gt;T8065:f0</title>
<path fill="none" stroke="#c02700" d="M792.5,-96C1149.9746,-96 1237.923,-16.5351 1590.265,-15.0219"/>
<polygon fill="#c02700" stroke="#c02700" points="1590.5075,-18.5215 1600.5,-15 1590.4925,-11.5215 1590.5075,-18.5215"/>
<text text-anchor="middle" x="1247.5" y="-51.8" font-family="Times,serif" font-size="14.00" fill="#c02700">ww</text>
</g>
</g>
</svg>
