<?xml version="1.0" encoding="UTF-8" standalone="no"?>
<!DOCTYPE svg PUBLIC "-//W3C//DTD SVG 1.1//EN"
 "http://www.w3.org/Graphics/SVG/1.1/DTD/svg11.dtd">
<!-- Generated by graphviz version 2.40.1 (20161225.0304)
 -->
<!-- Title: a_graph Pages: 1 -->
<svg width="1027pt" height="119pt"
 viewBox="0.00 0.00 1027.00 119.00" xmlns="http://www.w3.org/2000/svg" xmlns:xlink="http://www.w3.org/1999/xlink">
<g id="graph0" class="graph" transform="scale(1 1) rotate(0) translate(4 115)">
<title>a_graph</title>
<polygon fill="#ffffff" stroke="transparent" points="-4,4 -4,-115 1023,-115 1023,4 -4,4"/>
<!-- T10765 -->
<g id="node1" class="node">
<title>T10765</title>
<polygon fill="none" stroke="#0058ad" points="0,-81.5 0,-110.5 1019,-110.5 1019,-81.5 0,-81.5"/>
<text text-anchor="middle" x="28.5" y="-92.3" font-family="Times,serif" font-size="14.00" fill="#0058ad">a 57 27</text>
<polyline fill="none" stroke="#0058ad" points="57,-81.5 57,-110.5 "/>
<text text-anchor="middle" x="538" y="-92.3" font-family="Times,serif" font-size="14.00" fill="#0058ad">r 52 [30 35 36 37 38 39 40 41 43 44 42 46 45 47 48 49 50 51 52 53 54 55 57 58 60 59 61 62 63 64 65 66 67 68 69 70 71 72 73 74 75 77 76 78 79 80 81 82 83 84 85 86 87]</text>
</g>
<!-- T10767 -->
<g id="node2" class="node">
<title>T10767</title>
<polygon fill="none" stroke="#0058ad" points="131.5,-.5 131.5,-29.5 623.5,-29.5 623.5,-.5 131.5,-.5"/>
<text text-anchor="middle" x="160" y="-11.3" font-family="Times,serif" font-size="14.00" fill="#0058ad">a 52 88</text>
<polyline fill="none" stroke="#0058ad" points="188.5,-.5 188.5,-29.5 "/>
<text text-anchor="middle" x="406" y="-11.3" font-family="Times,serif" font-size="14.00" fill="#0058ad">r 57 [2 1 3 4 5 6 7 8 10 9 11 12 13 14 15 16 17 18 19 20 21 22 23 24 25 26]</text>
</g>
<!-- T10765&#45;&gt;T10767 -->
<g id="edge1" class="edge">
<title>T10765:f1&#45;&gt;T10767:f0</title>
<path fill="none" stroke="#5b00c0" d="M538.5,-81C538.5,.3298 191.3706,-105.1345 161.5391,-39.8574"/>
<polygon fill="#5b00c0" stroke="#5b00c0" points="164.9533,-39.0836 159.5,-30 158.0984,-40.5017 164.9533,-39.0836"/>
<text text-anchor="middle" x="535" y="-51.8" font-family="Times,serif" font-size="14.00" fill="#5b00c0">rw</text>
</g>
<!-- T10767&#45;&gt;T10765 -->
<g id="edge2" class="edge">
<title>T10767:f1&#45;&gt;T10765:f0</title>
<path fill="none" stroke="#5b00c0" d="M406.5,-30C406.5,-58.5147 178.6171,-43.255 150.5,-48 98.7904,-56.7264 37.2975,-28.9634 29.3584,-70.9448"/>
<polygon fill="#5b00c0" stroke="#5b00c0" points="25.8634,-70.7385 28.5,-81 32.838,-71.334 25.8634,-70.7385"/>
<text text-anchor="middle" x="158" y="-51.8" font-family="Times,serif" font-size="14.00" fill="#5b00c0">rw</text>
</g>
</g>
</svg>
