<?xml version="1.0" encoding="UTF-8" standalone="no"?>
<!DOCTYPE svg PUBLIC "-//W3C//DTD SVG 1.1//EN"
 "http://www.w3.org/Graphics/SVG/1.1/DTD/svg11.dtd">
<!-- Generated by graphviz version 2.40.1 (20161225.0304)
 -->
<!-- Title: a_graph Pages: 1 -->
<svg width="1421pt" height="200pt"
 viewBox="0.00 0.00 1421.00 200.00" xmlns="http://www.w3.org/2000/svg" xmlns:xlink="http://www.w3.org/1999/xlink">
<g id="graph0" class="graph" transform="scale(1 1) rotate(0) translate(4 196)">
<title>a_graph</title>
<polygon fill="#ffffff" stroke="transparent" points="-4,4 -4,-196 1417,-196 1417,4 -4,4"/>
<!-- T13189 -->
<g id="node1" class="node">
<title>T13189</title>
<polygon fill="none" stroke="#0058ad" points="207.5,-162.5 207.5,-191.5 521.5,-191.5 521.5,-162.5 207.5,-162.5"/>
<text text-anchor="middle" x="364.5" y="-173.3" font-family="Times,serif" font-size="14.00" fill="#0058ad">r 67 [1 2 3 4 5 6 7 8 9 11 10 12 13 14 15 16 17 18 21]</text>
</g>
<!-- T13197 -->
<g id="node3" class="node">
<title>T13197</title>
<polygon fill="none" stroke="#0058ad" points="376,-81.5 376,-110.5 1413,-110.5 1413,-81.5 376,-81.5"/>
<text text-anchor="middle" x="404.5" y="-92.3" font-family="Times,serif" font-size="14.00" fill="#0058ad">a 67 22</text>
<polyline fill="none" stroke="#0058ad" points="433,-81.5 433,-110.5 "/>
<text text-anchor="middle" x="567.5" y="-92.3" font-family="Times,serif" font-size="14.00" fill="#0058ad">r 68 [1 2 5 3 6 8 9 10 11 12 13 15 17 19 14 7]</text>
<polyline fill="none" stroke="#0058ad" points="702,-81.5 702,-110.5 "/>
<text text-anchor="middle" x="1057.5" y="-92.3" font-family="Times,serif" font-size="14.00" fill="#0058ad">r 66 [1 2 3 4 5 6 7 8 9 10 12 11 14 13 16 17 15 18 19 20 21 22 23 24 27 26 28 25 29 30 31 32 33 34 36 35 37 38 39 40 42 44]</text>
</g>
<!-- T13189&#45;&gt;T13197 -->
<g id="edge1" class="edge">
<title>T13189:f0&#45;&gt;T13197:f0</title>
<path fill="none" stroke="#5b00c0" d="M379.8506,-162.2592C389.1921,-151.9335 399.9661,-137.1557 403.3937,-121.1191"/>
<polygon fill="#5b00c0" stroke="#5b00c0" points="406.8924,-121.3212 404.5,-111 399.9338,-120.5603 406.8924,-121.3212"/>
<text text-anchor="middle" x="408" y="-132.8" font-family="Times,serif" font-size="14.00" fill="#5b00c0">rw</text>
</g>
<!-- T13187 -->
<g id="node2" class="node">
<title>T13187</title>
<polygon fill="none" stroke="#0058ad" points="0,-.5 0,-29.5 697,-29.5 697,-.5 0,-.5"/>
<text text-anchor="middle" x="28.5" y="-11.3" font-family="Times,serif" font-size="14.00" fill="#0058ad">a 56 93</text>
<polyline fill="none" stroke="#0058ad" points="57,-.5 57,-29.5 "/>
<text text-anchor="middle" x="191.5" y="-11.3" font-family="Times,serif" font-size="14.00" fill="#0058ad">r 68 [1 2 5 3 6 8 9 10 11 12 13 15 17 19 14 7]</text>
<polyline fill="none" stroke="#0058ad" points="326,-.5 326,-29.5 "/>
<text text-anchor="middle" x="483" y="-11.3" font-family="Times,serif" font-size="14.00" fill="#0058ad">r 67 [1 2 3 4 5 6 7 8 9 11 10 12 13 14 15 16 17 18 21]</text>
<polyline fill="none" stroke="#0058ad" points="640,-.5 640,-29.5 "/>
<text text-anchor="middle" x="668.5" y="-11.3" font-family="Times,serif" font-size="14.00" fill="#0058ad">a 66 43</text>
</g>
<!-- T13187&#45;&gt;T13189 -->
<g id="edge2" class="edge">
<title>T13187&#45;&gt;T13189</title>
<path fill="none" stroke="#0050c0" d="M349.9333,-29.5123C352.6703,-57.2246 358.669,-117.9616 362.0527,-152.2206"/>
<polygon fill="#0050c0" stroke="#0050c0" points="358.5859,-152.7303 363.0519,-162.3379 365.552,-152.0422 358.5859,-152.7303"/>
<text text-anchor="middle" x="363" y="-92.3" font-family="Times,serif" font-size="14.00" fill="#0050c0">rt</text>
</g>
<!-- T13187&#45;&gt;T13197 -->
<g id="edge3" class="edge">
<title>T13187:f2&#45;&gt;T13197:f0</title>
<path fill="none" stroke="#5b00c0" d="M483.5,-30C483.5,-67.874 418.6182,-44.6638 406.4528,-71.0845"/>
<polygon fill="#5b00c0" stroke="#5b00c0" points="402.9984,-70.5121 404.5,-81 409.8665,-71.8648 402.9984,-70.5121"/>
<text text-anchor="middle" x="481" y="-51.8" font-family="Times,serif" font-size="14.00" fill="#5b00c0">rw</text>
</g>
<!-- T13197&#45;&gt;T13187 -->
<g id="edge4" class="edge">
<title>T13197:f2&#45;&gt;T13187:f3</title>
<path fill="none" stroke="#5b00c0" d="M1057.5,-81C1057.5,-42.7956 775.6653,-18.1239 707.8187,-15.2764"/>
<polygon fill="#5b00c0" stroke="#5b00c0" points="707.5902,-11.7691 697.5,-15 707.4027,-18.7666 707.5902,-11.7691"/>
<text text-anchor="middle" x="1042" y="-51.8" font-family="Times,serif" font-size="14.00" fill="#5b00c0">rw</text>
</g>
</g>
</svg>
