<?xml version="1.0" encoding="UTF-8" standalone="no"?>
<!DOCTYPE svg PUBLIC "-//W3C//DTD SVG 1.1//EN"
 "http://www.w3.org/Graphics/SVG/1.1/DTD/svg11.dtd">
<!-- Generated by graphviz version 2.40.1 (20161225.0304)
 -->
<!-- Title: a_graph Pages: 1 -->
<svg width="2023pt" height="119pt"
 viewBox="0.00 0.00 2023.00 119.00" xmlns="http://www.w3.org/2000/svg" xmlns:xlink="http://www.w3.org/1999/xlink">
<g id="graph0" class="graph" transform="scale(1 1) rotate(0) translate(4 115)">
<title>a_graph</title>
<polygon fill="#ffffff" stroke="transparent" points="-4,4 -4,-115 2019,-115 2019,4 -4,4"/>
<!-- T14413 -->
<g id="node1" class="node">
<title>T14413</title>
<polygon fill="none" stroke="#0058ad" points="0,-81.5 0,-110.5 2015,-110.5 2015,-81.5 0,-81.5"/>
<text text-anchor="middle" x="28.5" y="-92.3" font-family="Times,serif" font-size="14.00" fill="#0058ad">a 75 13</text>
<polyline fill="none" stroke="#0058ad" points="57,-81.5 57,-110.5 "/>
<text text-anchor="middle" x="85.5" y="-92.3" font-family="Times,serif" font-size="14.00" fill="#0058ad">a 75 14</text>
<polyline fill="none" stroke="#0058ad" points="114,-81.5 114,-110.5 "/>
<text text-anchor="middle" x="228" y="-92.3" font-family="Times,serif" font-size="14.00" fill="#0058ad">r 75 [2 3 4 5 7 6 10 11 12 8 9 1 13 14]</text>
<polyline fill="none" stroke="#0058ad" points="342,-81.5 342,-110.5 "/>
<text text-anchor="middle" x="1178.5" y="-92.3" font-family="Times,serif" font-size="14.00" fill="#0058ad">r 72 [1 2 3 7 8 6 11 5 12 15 18 19 20 21 22 25 23 24 26 27 29 30 31 32 33 34 35 36 37 38 28 39 41 40 42 43 44 46 45 47 48 49 50 51 52 53 54 56 57 55 58 59 60 61 62 64 65 63 66 67 68 69 70 72 71 73 75 76 77 74 78 79 81 80 82 83 84 85 86 88 87 89 91 92 94 95 96 97 98 99 101 102 104 103 100]</text>
</g>
<!-- T14411 -->
<g id="node2" class="node">
<title>T14411</title>
<polygon fill="none" stroke="#0058ad" points="228.5,-.5 228.5,-29.5 614.5,-29.5 614.5,-.5 228.5,-.5"/>
<text text-anchor="middle" x="260.5" y="-11.3" font-family="Times,serif" font-size="14.00" fill="#0058ad">a 72 105</text>
<polyline fill="none" stroke="#0058ad" points="292.5,-.5 292.5,-29.5 "/>
<text text-anchor="middle" x="389.5" y="-11.3" font-family="Times,serif" font-size="14.00" fill="#0058ad">r 75 [2 3 4 5 7 6 10 11 12 8 9 1]</text>
<polyline fill="none" stroke="#0058ad" points="486.5,-.5 486.5,-29.5 "/>
<text text-anchor="middle" x="518.5" y="-11.3" font-family="Times,serif" font-size="14.00" fill="#0058ad">a 67 114</text>
<polyline fill="none" stroke="#0058ad" points="550.5,-.5 550.5,-29.5 "/>
<text text-anchor="middle" x="582.5" y="-11.3" font-family="Times,serif" font-size="14.00" fill="#0058ad">a 72 106</text>
</g>
<!-- T14413&#45;&gt;T14411 -->
<g id="edge1" class="edge">
<title>T14413:f3&#45;&gt;T14411:f0</title>
<path fill="none" stroke="#5b00c0" d="M1178.5,-81C1178.5,-32.5651 353.0681,-76.0569 267.623,-37.1379"/>
<polygon fill="#5b00c0" stroke="#5b00c0" points="270.0412,-34.6061 260.5,-30 265.0863,-39.5508 270.0412,-34.6061"/>
<text text-anchor="middle" x="1107" y="-51.8" font-family="Times,serif" font-size="14.00" fill="#5b00c0">rw</text>
</g>
<!-- T14411&#45;&gt;T14413 -->
<g id="edge2" class="edge">
<title>T14411:f1&#45;&gt;T14413:f0</title>
<path fill="none" stroke="#5b00c0" d="M389.5,-30C389.5,-48.3954 91.7353,-58.737 37.0676,-75.6538"/>
<polygon fill="#5b00c0" stroke="#5b00c0" points="35.1309,-72.7367 28.5,-81 38.8367,-78.6754 35.1309,-72.7367"/>
<text text-anchor="middle" x="300" y="-51.8" font-family="Times,serif" font-size="14.00" fill="#5b00c0">rw</text>
</g>
</g>
</svg>
