<?xml version="1.0" encoding="UTF-8" standalone="no"?>
<!DOCTYPE svg PUBLIC "-//W3C//DTD SVG 1.1//EN"
 "http://www.w3.org/Graphics/SVG/1.1/DTD/svg11.dtd">
<!-- Generated by graphviz version 2.40.1 (20161225.0304)
 -->
<!-- Title: a_graph Pages: 1 -->
<svg width="2081pt" height="200pt"
 viewBox="0.00 0.00 2081.00 200.00" xmlns="http://www.w3.org/2000/svg" xmlns:xlink="http://www.w3.org/1999/xlink">
<g id="graph0" class="graph" transform="scale(1 1) rotate(0) translate(4 196)">
<title>a_graph</title>
<polygon fill="#ffffff" stroke="transparent" points="-4,4 -4,-196 2077,-196 2077,4 -4,4"/>
<!-- T16257 -->
<g id="node1" class="node">
<title>T16257</title>
<polygon fill="none" stroke="#0058ad" points="0,-162.5 0,-191.5 2073,-191.5 2073,-162.5 0,-162.5"/>
<text text-anchor="middle" x="1008" y="-173.3" font-family="Times,serif" font-size="14.00" fill="#0058ad">r 77 [1 2 3 4 5 6 7 8 9 10 11 12 13 14 15 16 17 18 19 20 21 23 24 26 27 28 29 30 32 31 33 34 35 36 37 38 40 39 41 42 43 44 45 46 47 48 49 50 51 52 53 54 55 56 60 62 61 63 64 65 66 67 68 69 70 71 72 73 74 76 77 75 78 79 80 82 81 83 84 85 86 87 88 89 91 90 92 93 95 94 96 97 98 100 99 102 103 104 105 106 107 108 109 110 111 112 113 114 115 116 117]</text>
<polyline fill="none" stroke="#0058ad" points="2016,-162.5 2016,-191.5 "/>
<text text-anchor="middle" x="2044.5" y="-173.3" font-family="Times,serif" font-size="14.00" fill="#0058ad">a 82 48</text>
</g>
<!-- T16255 -->
<g id="node3" class="node">
<title>T16255</title>
<polygon fill="none" stroke="#0058ad" points="468.5,-81.5 468.5,-110.5 1442.5,-110.5 1442.5,-81.5 468.5,-81.5"/>
<text text-anchor="middle" x="841.5" y="-92.3" font-family="Times,serif" font-size="14.00" fill="#0058ad">r 82 [2 3 4 5 1 6 7 8 9 10 11 12 13 14 15 17 16 20 21 18 19 22 23 24 25 26 27 28 29 30 31 32 33 35 34 36 37 39 38 41 40 42 43 44]</text>
<polyline fill="none" stroke="#0058ad" points="1214.5,-81.5 1214.5,-110.5 "/>
<text text-anchor="middle" x="1264.5" y="-92.3" font-family="Times,serif" font-size="14.00" fill="#0058ad">r 83 [1 2 3 5 4]</text>
<polyline fill="none" stroke="#0058ad" points="1314.5,-81.5 1314.5,-110.5 "/>
<text text-anchor="middle" x="1346.5" y="-92.3" font-family="Times,serif" font-size="14.00" fill="#0058ad">a 77 118</text>
<polyline fill="none" stroke="#0058ad" points="1378.5,-81.5 1378.5,-110.5 "/>
<text text-anchor="middle" x="1410.5" y="-92.3" font-family="Times,serif" font-size="14.00" fill="#0058ad">a 77 119</text>
</g>
<!-- T16257&#45;&gt;T16255 -->
<g id="edge1" class="edge">
<title>T16257:f0&#45;&gt;T16255:f2</title>
<path fill="none" stroke="#5b00c0" d="M1007.5,-162C1007.5,-13.2088 1330.7956,-251.6919 1345.9501,-121.0542"/>
<polygon fill="#5b00c0" stroke="#5b00c0" points="1349.4485,-121.1763 1346.5,-111 1342.459,-120.7939 1349.4485,-121.1763"/>
<text text-anchor="middle" x="1351" y="-132.8" font-family="Times,serif" font-size="14.00" fill="#5b00c0">rw</text>
</g>
<!-- T16253 -->
<g id="node2" class="node">
<title>T16253</title>
<polygon fill="none" stroke="#0058ad" points="1329.5,-.5 1329.5,-29.5 1443.5,-29.5 1443.5,-.5 1329.5,-.5"/>
<text text-anchor="middle" x="1358" y="-11.3" font-family="Times,serif" font-size="14.00" fill="#0058ad">a 82 45</text>
<polyline fill="none" stroke="#0058ad" points="1386.5,-.5 1386.5,-29.5 "/>
<text text-anchor="middle" x="1415" y="-11.3" font-family="Times,serif" font-size="14.00" fill="#0058ad">a 82 46</text>
</g>
<!-- T16253&#45;&gt;T16257 -->
<g id="edge2" class="edge">
<title>T16253:f1&#45;&gt;T16257:f1</title>
<path fill="none" stroke="#c02700" d="M1443.5,-15C1577.5015,-15 2021.1727,-24.0308 2043.6165,-151.7725"/>
<polygon fill="#c02700" stroke="#c02700" points="2040.1522,-152.3384 2044.5,-162 2047.1263,-151.7358 2040.1522,-152.3384"/>
<text text-anchor="middle" x="2027.5" y="-92.3" font-family="Times,serif" font-size="14.00" fill="#c02700">ww</text>
</g>
<!-- T16255&#45;&gt;T16253 -->
<g id="edge3" class="edge">
<title>T16255:f0&#45;&gt;T16253:f0</title>
<path fill="none" stroke="#5b00c0" d="M841.5,-81C841.5,-28.8489 1235.1158,-16.1533 1319.3938,-15.0777"/>
<polygon fill="#5b00c0" stroke="#5b00c0" points="1319.5272,-18.5769 1329.5,-15 1319.4734,-11.5771 1319.5272,-18.5769"/>
<text text-anchor="middle" x="913" y="-51.8" font-family="Times,serif" font-size="14.00" fill="#5b00c0">rw</text>
</g>
</g>
</svg>
