<?xml version="1.0" encoding="UTF-8" standalone="no"?>
<!DOCTYPE svg PUBLIC "-//W3C//DTD SVG 1.1//EN"
 "http://www.w3.org/Graphics/SVG/1.1/DTD/svg11.dtd">
<!-- Generated by graphviz version 2.40.1 (20161225.0304)
 -->
<!-- Title: a_graph Pages: 1 -->
<svg width="2337pt" height="119pt"
 viewBox="0.00 0.00 2337.00 119.00" xmlns="http://www.w3.org/2000/svg" xmlns:xlink="http://www.w3.org/1999/xlink">
<g id="graph0" class="graph" transform="scale(1 1) rotate(0) translate(4 115)">
<title>a_graph</title>
<polygon fill="#ffffff" stroke="transparent" points="-4,4 -4,-115 2333,-115 2333,4 -4,4"/>
<!-- T20577 -->
<g id="node1" class="node">
<title>T20577</title>
<polygon fill="none" stroke="#0058ad" points="469,-81.5 469,-110.5 2329,-110.5 2329,-81.5 469,-81.5"/>
<text text-anchor="middle" x="501" y="-92.3" font-family="Times,serif" font-size="14.00" fill="#0058ad">a 102 25</text>
<polyline fill="none" stroke="#0058ad" points="533,-81.5 533,-110.5 "/>
<text text-anchor="middle" x="909" y="-92.3" font-family="Times,serif" font-size="14.00" fill="#0058ad">r 103 [1 2 3 5 6 4 8 9 10 11 7 12 13 16 19 20 23 21 24 25 26 27 28 30 31 32 33 34 35 36 37 38 39 40 41 42 43 44 45 46 47 49 48 51]</text>
<polyline fill="none" stroke="#0058ad" points="1285,-81.5 1285,-110.5 "/>
<text text-anchor="middle" x="1317" y="-92.3" font-family="Times,serif" font-size="14.00" fill="#0058ad">a 104 65</text>
<polyline fill="none" stroke="#0058ad" points="1349,-81.5 1349,-110.5 "/>
<text text-anchor="middle" x="1839" y="-92.3" font-family="Times,serif" font-size="14.00" fill="#0058ad">r 104 [2 3 4 6 7 8 10 12 13 15 16 17 18 20 21 22 23 26 24 25 27 28 30 31 32 34 36 37 38 39 40 41 42 43 44 45 46 47 48 49 50 51 53 52 57 54 55 56 58 60 61 62 63 59 64 65]</text>
</g>
<!-- T20579 -->
<g id="node2" class="node">
<title>T20579</title>
<polygon fill="none" stroke="#0058ad" points="0,-.5 0,-29.5 1778,-29.5 1778,-.5 0,-.5"/>
<text text-anchor="middle" x="481" y="-11.3" font-family="Times,serif" font-size="14.00" fill="#0058ad">r 104 [2 3 4 6 7 8 10 12 13 15 16 17 18 20 21 22 23 26 24 25 27 28 30 31 32 34 36 37 38 39 40 41 42 43 44 45 46 47 48 49 50 51 53 52 57 54 55 56 58 60 61 62 63 59 64]</text>
<polyline fill="none" stroke="#0058ad" points="962,-.5 962,-29.5 "/>
<text text-anchor="middle" x="1338" y="-11.3" font-family="Times,serif" font-size="14.00" fill="#0058ad">r 103 [1 2 3 5 6 4 8 9 10 11 7 12 13 16 19 20 23 21 24 25 26 27 28 30 31 32 33 34 35 36 37 38 39 40 41 42 43 44 45 46 47 49 48 51]</text>
<polyline fill="none" stroke="#0058ad" points="1714,-.5 1714,-29.5 "/>
<text text-anchor="middle" x="1746" y="-11.3" font-family="Times,serif" font-size="14.00" fill="#0058ad">a 103 50</text>
</g>
<!-- T20577&#45;&gt;T20579 -->
<g id="edge1" class="edge">
<title>T20577:f1&#45;&gt;T20579:f2</title>
<path fill="none" stroke="#5b00c0" d="M909,-81C909,43.8644 1063.4865,-57.3548 1188,-48 1202.2563,-46.9289 1664.4458,-45.7149 1736.5759,-33.3818"/>
<polygon fill="#5b00c0" stroke="#5b00c0" points="1737.7698,-36.6719 1746,-30 1735.4055,-30.0833 1737.7698,-36.6719"/>
<text text-anchor="middle" x="1195.5" y="-51.8" font-family="Times,serif" font-size="14.00" fill="#5b00c0">rw</text>
</g>
<!-- T20579&#45;&gt;T20577 -->
<g id="edge2" class="edge">
<title>T20579:f0&#45;&gt;T20577:f2</title>
<path fill="none" stroke="#5b00c0" d="M481,-30C481,-50.0618 1183.1736,-44.9356 1203,-48 1251.4626,-55.4905 1308.3474,-31.9858 1316.1072,-71.0279"/>
<polygon fill="#5b00c0" stroke="#5b00c0" points="1312.6222,-71.352 1317,-81 1319.5943,-70.7277 1312.6222,-71.352"/>
<text text-anchor="middle" x="1319.5" y="-51.8" font-family="Times,serif" font-size="14.00" fill="#5b00c0">rw</text>
</g>
</g>
</svg>
