<?xml version="1.0" encoding="UTF-8" standalone="no"?>
<!DOCTYPE svg PUBLIC "-//W3C//DTD SVG 1.1//EN"
 "http://www.w3.org/Graphics/SVG/1.1/DTD/svg11.dtd">
<!-- Generated by graphviz version 2.40.1 (20161225.0304)
 -->
<!-- Title: a_graph Pages: 1 -->
<svg width="3505pt" height="200pt"
 viewBox="0.00 0.00 3505.00 200.00" xmlns="http://www.w3.org/2000/svg" xmlns:xlink="http://www.w3.org/1999/xlink">
<g id="graph0" class="graph" transform="scale(1 1) rotate(0) translate(4 196)">
<title>a_graph</title>
<polygon fill="#ffffff" stroke="transparent" points="-4,4 -4,-196 3501,-196 3501,4 -4,4"/>
<!-- T11981 -->
<g id="node1" class="node">
<title>T11981</title>
<polygon fill="none" stroke="#0058ad" points="267.5,-162.5 267.5,-191.5 459.5,-191.5 459.5,-162.5 267.5,-162.5"/>
<text text-anchor="middle" x="299.5" y="-173.3" font-family="Times,serif" font-size="14.00" fill="#0058ad">a 59 116</text>
<polyline fill="none" stroke="#0058ad" points="331.5,-162.5 331.5,-191.5 "/>
<text text-anchor="middle" x="363.5" y="-173.3" font-family="Times,serif" font-size="14.00" fill="#0058ad">a 59 117</text>
<polyline fill="none" stroke="#0058ad" points="395.5,-162.5 395.5,-191.5 "/>
<text text-anchor="middle" x="427.5" y="-173.3" font-family="Times,serif" font-size="14.00" fill="#0058ad">a 59 118</text>
</g>
<!-- T11983 -->
<g id="node3" class="node">
<title>T11983</title>
<polygon fill="none" stroke="#0058ad" points="0,-81.5 0,-110.5 263,-110.5 263,-81.5 0,-81.5"/>
<text text-anchor="middle" x="131.5" y="-92.3" font-family="Times,serif" font-size="14.00" fill="#0058ad">r 62 [1 2 3 4 5 6 8 7 10 11 12 9 16 13 14 15]</text>
</g>
<!-- T11981&#45;&gt;T11983 -->
<g id="edge2" class="edge">
<title>T11981&#45;&gt;T11983</title>
<path fill="none" stroke="#0050c0" d="M321.7551,-162.4253C282.7835,-148.8188 224.5212,-128.4772 182.7457,-113.8918"/>
<polygon fill="#0050c0" stroke="#0050c0" points="183.8953,-110.586 173.3004,-110.5941 181.5879,-117.1948 183.8953,-110.586"/>
<text text-anchor="middle" x="273" y="-132.8" font-family="Times,serif" font-size="14.00" fill="#0050c0">rt</text>
</g>
<!-- T11987 -->
<g id="node4" class="node">
<title>T11987</title>
<polygon fill="none" stroke="#0058ad" points="332,-81.5 332,-110.5 3497,-110.5 3497,-81.5 332,-81.5"/>
<text text-anchor="middle" x="463.5" y="-92.3" font-family="Times,serif" font-size="14.00" fill="#0058ad">r 62 [1 2 3 4 5 6 8 7 10 11 12 9 16 13 14 15]</text>
<polyline fill="none" stroke="#0058ad" points="595,-81.5 595,-110.5 "/>
<text text-anchor="middle" x="1598" y="-92.3" font-family="Times,serif" font-size="14.00" fill="#0058ad">r 59 [1 2 4 5 3 7 8 6 9 10 11 13 12 14 15 16 17 18 19 20 21 22 23 24 25 26 27 28 29 30 31 32 33 34 36 37 38 44 46 47 48 49 50 51 52 53 54 55 56 57 58 59 60 61 63 64 65 66 62 67 68 69 70 71 72 73 74 75 76 77 78 79 80 82 81 83 84 85 86 89 87 88 90 92 93 91 94 95 96 97 98 99 101 100 102 103 104 105 107 106 109 110 111 112 108 114 113 116 117 118]</text>
<polyline fill="none" stroke="#0058ad" points="2601,-81.5 2601,-110.5 "/>
<text text-anchor="middle" x="3017" y="-92.3" font-family="Times,serif" font-size="14.00" fill="#0058ad">r 60 [2 3 1 4 5 6 7 8 9 10 11 13 12 15 16 17 18 19 20 21 22 23 24 25 26 27 29 28 30 31 32 33 34 35 36 37 38 39 40 41 42 45 44 43 46 47 48 49 50]</text>
<polyline fill="none" stroke="#0058ad" points="3433,-81.5 3433,-110.5 "/>
<text text-anchor="middle" x="3465" y="-92.3" font-family="Times,serif" font-size="14.00" fill="#0058ad">a 59 115</text>
</g>
<!-- T11981&#45;&gt;T11987 -->
<g id="edge1" class="edge">
<title>T11981:f2&#45;&gt;T11987:f3</title>
<path fill="none" stroke="#c02700" d="M459.5,-177C499.8939,-177 3274.6785,-154.3201 3456.1886,-115.042"/>
<polygon fill="#c02700" stroke="#c02700" points="3457.7207,-118.1926 3465.5,-111 3454.9333,-111.7715 3457.7207,-118.1926"/>
<text text-anchor="middle" x="3271.5" y="-132.8" font-family="Times,serif" font-size="14.00" fill="#c02700">ww</text>
</g>
<!-- T11985 -->
<g id="node2" class="node">
<title>T11985</title>
<polygon fill="none" stroke="#0058ad" points="103,-.5 103,-29.5 2094,-29.5 2094,-.5 103,-.5"/>
<text text-anchor="middle" x="131.5" y="-11.3" font-family="Times,serif" font-size="14.00" fill="#0058ad">a 62 17</text>
<polyline fill="none" stroke="#0058ad" points="160,-.5 160,-29.5 "/>
<text text-anchor="middle" x="1127" y="-11.3" font-family="Times,serif" font-size="14.00" fill="#0058ad">r 59 [1 2 4 5 3 7 8 6 9 10 11 13 12 14 15 16 17 18 19 20 21 22 23 24 25 26 27 28 29 30 31 32 33 34 36 37 38 44 46 47 48 49 50 51 52 53 54 55 56 57 58 59 60 61 63 64 65 66 62 67 68 69 70 71 72 73 74 75 76 77 78 79 80 82 81 83 84 85 86 89 87 88 90 92 93 91 94 95 96 97 98 99 101 100 102 103 104 105 107 106 109 110 111 112 108 114 113]</text>
</g>
<!-- T11985&#45;&gt;T11981 -->
<g id="edge3" class="edge">
<title>T11985:f1&#45;&gt;T11981:f0</title>
<path fill="none" stroke="#5b00c0" d="M1127.5,-30C1127.5,-52.6166 330.4844,-33.0654 313.5,-48 277.7856,-79.4041 296.4658,-106.9336 299.1866,-151.8286"/>
<polygon fill="#5b00c0" stroke="#5b00c0" points="295.6936,-152.1126 299.5,-162 302.6903,-151.8969 295.6936,-152.1126"/>
<text text-anchor="middle" x="302" y="-92.3" font-family="Times,serif" font-size="14.00" fill="#5b00c0">rw</text>
</g>
<!-- T11983&#45;&gt;T11985 -->
<g id="edge4" class="edge">
<title>T11983:f0&#45;&gt;T11985:f0</title>
<path fill="none" stroke="#5b00c0" d="M131.5,-81.3204C131.5,-70.4532 131.5,-55.0147 131.5,-40.1425"/>
<polygon fill="#5b00c0" stroke="#5b00c0" points="135.0001,-40 131.5,-30 128.0001,-40 135.0001,-40"/>
<text text-anchor="middle" x="139" y="-51.8" font-family="Times,serif" font-size="14.00" fill="#5b00c0">rw</text>
</g>
<!-- T11987&#45;&gt;T11985 -->
<g id="edge5" class="edge">
<title>T11987:f0&#45;&gt;T11985:f0</title>
<path fill="none" stroke="#5b00c0" d="M463.5,-81C463.5,-12.7391 380.9153,-58.7111 313.5,-48 296.0963,-45.2349 172.0106,-49.0108 139.3573,-36.8106"/>
<polygon fill="#5b00c0" stroke="#5b00c0" points="141.3489,-33.9051 131.5,-30 136.764,-39.1946 141.3489,-33.9051"/>
<text text-anchor="middle" x="468" y="-51.8" font-family="Times,serif" font-size="14.00" fill="#5b00c0">rw</text>
</g>
</g>
</svg>
