<?xml version="1.0" encoding="UTF-8" standalone="no"?>
<!DOCTYPE svg PUBLIC "-//W3C//DTD SVG 1.1//EN"
 "http://www.w3.org/Graphics/SVG/1.1/DTD/svg11.dtd">
<!-- Generated by graphviz version 2.40.1 (20161225.0304)
 -->
<!-- Title: a_graph Pages: 1 -->
<svg width="1807pt" height="119pt"
 viewBox="0.00 0.00 1807.00 119.00" xmlns="http://www.w3.org/2000/svg" xmlns:xlink="http://www.w3.org/1999/xlink">
<g id="graph0" class="graph" transform="scale(1 1) rotate(0) translate(4 115)">
<title>a_graph</title>
<polygon fill="#ffffff" stroke="transparent" points="-4,4 -4,-115 1803,-115 1803,4 -4,4"/>
<!-- T18327 -->
<g id="node1" class="node">
<title>T18327</title>
<polygon fill="none" stroke="#0058ad" points="316,-81.5 316,-110.5 1799,-110.5 1799,-81.5 316,-81.5"/>
<text text-anchor="middle" x="344.5" y="-92.3" font-family="Times,serif" font-size="14.00" fill="#0058ad">a 93 48</text>
<polyline fill="none" stroke="#0058ad" points="373,-81.5 373,-110.5 "/>
<text text-anchor="middle" x="597.5" y="-92.3" font-family="Times,serif" font-size="14.00" fill="#0058ad">r 92 [1 2 3 4 9 11 12 13 6 7 14 15 16 17 18 19 20 21 22 23 24 25 26 27 28 29]</text>
<polyline fill="none" stroke="#0058ad" points="822,-81.5 822,-110.5 "/>
<text text-anchor="middle" x="1282" y="-92.3" font-family="Times,serif" font-size="14.00" fill="#0058ad">r 91 [8 11 12 13 16 17 15 18 19 20 21 22 23 24 25 26 27 28 29 30 32 31 33 14 36 38 40 39 42 41 43 44 45 46 49 50 47 48 52 51 53 54 55 56 57 58 59 60 61 62 63]</text>
<polyline fill="none" stroke="#0058ad" points="1742,-81.5 1742,-110.5 "/>
<text text-anchor="middle" x="1770.5" y="-92.3" font-family="Times,serif" font-size="14.00" fill="#0058ad">a 91 64</text>
</g>
<!-- T18329 -->
<g id="node2" class="node">
<title>T18329</title>
<polygon fill="none" stroke="#0058ad" points="0,-.5 0,-29.5 1303,-29.5 1303,-.5 0,-.5"/>
<text text-anchor="middle" x="28.5" y="-11.3" font-family="Times,serif" font-size="14.00" fill="#0058ad">a 92 30</text>
<polyline fill="none" stroke="#0058ad" points="57,-.5 57,-29.5 "/>
<text text-anchor="middle" x="290" y="-11.3" font-family="Times,serif" font-size="14.00" fill="#0058ad">r 92 [1 2 3 4 9 11 12 13 6 7 14 15 16 17 18 19 20 21 22 23 24 25 26 27 28 29 30]</text>
<polyline fill="none" stroke="#0058ad" points="523,-.5 523,-29.5 "/>
<text text-anchor="middle" x="913" y="-11.3" font-family="Times,serif" font-size="14.00" fill="#0058ad">r 93 [1 2 3 4 5 6 7 9 10 8 11 12 13 14 15 16 17 18 20 19 21 22 24 23 25 26 27 28 29 30 31 32 33 34 35 36 37 38 39 40 41 42 43 44 45 46]</text>
</g>
<!-- T18327&#45;&gt;T18329 -->
<g id="edge1" class="edge">
<title>T18327:f1&#45;&gt;T18329:f0</title>
<path fill="none" stroke="#5b00c0" d="M597.5,-81C597.5,.3333 498.3074,-57.2341 417.5,-48 397.9788,-45.7692 93.056,-50.5881 37.2386,-35.285"/>
<polygon fill="#5b00c0" stroke="#5b00c0" points="38.8681,-32.1802 28.5,-30 35.2455,-38.17 38.8681,-32.1802"/>
<text text-anchor="middle" x="602" y="-51.8" font-family="Times,serif" font-size="14.00" fill="#5b00c0">rw</text>
</g>
<!-- T18329&#45;&gt;T18327 -->
<g id="edge2" class="edge">
<title>T18329:f2&#45;&gt;T18327:f0</title>
<path fill="none" stroke="#5b00c0" d="M913.5,-30C913.5,-58.6286 425.9188,-39.7658 398.5,-48 375.35,-54.9522 352.1087,-53.5544 346.0299,-70.8749"/>
<polygon fill="#5b00c0" stroke="#5b00c0" points="342.5334,-70.5893 344.5,-81 349.4548,-71.6352 342.5334,-70.5893"/>
<text text-anchor="middle" x="406" y="-51.8" font-family="Times,serif" font-size="14.00" fill="#5b00c0">rw</text>
</g>
</g>
</svg>
