<?xml version="1.0" encoding="UTF-8" standalone="no"?>
<!DOCTYPE svg PUBLIC "-//W3C//DTD SVG 1.1//EN"
 "http://www.w3.org/Graphics/SVG/1.1/DTD/svg11.dtd">
<!-- Generated by graphviz version 2.40.1 (20161225.0304)
 -->
<!-- Title: a_graph Pages: 1 -->
<svg width="4456pt" height="119pt"
 viewBox="0.00 0.00 4456.00 119.00" xmlns="http://www.w3.org/2000/svg" xmlns:xlink="http://www.w3.org/1999/xlink">
<g id="graph0" class="graph" transform="scale(1 1) rotate(0) translate(4 115)">
<title>a_graph</title>
<polygon fill="#ffffff" stroke="transparent" points="-4,4 -4,-115 4452,-115 4452,4 -4,4"/>
<!-- T5983 -->
<g id="node1" class="node">
<title>T5983</title>
<polygon fill="none" stroke="#0058ad" points="0,-81.5 0,-110.5 4448,-110.5 4448,-81.5 0,-81.5"/>
<text text-anchor="middle" x="32" y="-92.3" font-family="Times,serif" font-size="14.00" fill="#0058ad">a 31 105</text>
<polyline fill="none" stroke="#0058ad" points="64,-81.5 64,-110.5 "/>
<text text-anchor="middle" x="883" y="-92.3" font-family="Times,serif" font-size="14.00" fill="#0058ad">r 31 [2 3 4 5 11 6 7 12 13 14 16 15 17 18 19 20 21 22 23 24 26 25 27 28 29 30 31 32 33 34 35 36 37 38 39 40 41 42 43 44 45 46 47 48 49 51 50 52 53 54 55 57 58 59 60 61 62 63 64 66 65 67 68 69 70 71 72 73 76 77 79 81 83 84 85 86 87 88 89 90 91 92 93 94 95 96 97 98 99 100 101 102 105]</text>
<polyline fill="none" stroke="#0058ad" points="1702,-81.5 1702,-110.5 "/>
<text text-anchor="middle" x="2573" y="-92.3" font-family="Times,serif" font-size="14.00" fill="#0058ad">r 29 [1 2 3 4 5 6 7 8 9 10 11 12 13 14 15 16 17 19 20 18 21 22 23 24 25 26 27 28 29 32 31 34 35 37 36 38 39 40 41 42 43 44 45 46 47 48 50 49 51 52 54 53 55 56 58 59 57 60 61 62 63 65 64 66 67 68 69 70 71 72 73 74 77 75 78 79 80 81 82 83 84 85 87 89 88 92 90 91 94 96 98 99 100 101 102 103 105 104 106]</text>
<polyline fill="none" stroke="#0058ad" points="3444,-81.5 3444,-110.5 "/>
<text text-anchor="middle" x="3946" y="-92.3" font-family="Times,serif" font-size="14.00" fill="#0058ad">r 33 [1 2 3 4 5 6 7 8 9 10 11 12 14 17 18 20 23 25 24 26 27 28 29 30 31 32 33 34 35 36 37 38 41 42 39 40 43 44 45 46 47 50 48 49 52 53 54 55 51 57 60 61 56 58 59 63 64 62 65]</text>
</g>
<!-- T5981 -->
<g id="node2" class="node">
<title>T5981</title>
<polygon fill="none" stroke="#0058ad" points="538.5,-.5 538.5,-29.5 3213.5,-29.5 3213.5,-.5 538.5,-.5"/>
<text text-anchor="middle" x="1040.5" y="-11.3" font-family="Times,serif" font-size="14.00" fill="#0058ad">r 33 [1 2 3 4 5 6 7 8 9 10 11 12 14 17 18 20 23 25 24 26 27 28 29 30 31 32 33 34 35 36 37 38 41 42 39 40 43 44 45 46 47 50 48 49 52 53 54 55 51 57 60 61 56 58 59 63 64 62 65]</text>
<polyline fill="none" stroke="#0058ad" points="1542.5,-.5 1542.5,-29.5 "/>
<text text-anchor="middle" x="1571" y="-11.3" font-family="Times,serif" font-size="14.00" fill="#0058ad">a 33 66</text>
<polyline fill="none" stroke="#0058ad" points="1599.5,-.5 1599.5,-29.5 "/>
<text text-anchor="middle" x="2406.5" y="-11.3" font-family="Times,serif" font-size="14.00" fill="#0058ad">r 31 [2 3 4 5 11 6 7 12 13 14 16 15 17 18 19 20 21 22 23 24 26 25 27 28 29 30 31 32 33 34 35 36 37 38 39 40 41 42 43 44 45 46 47 48 49 51 50 52 53 54 55 57 58 59 60 61 62 63 64 66 65 67 68 69 70 71 72 73 76 77 79 81 83 84 85 86 87 88 89 90 91 92 93 94 95 96 97 98 99 100 101 102]</text>
</g>
<!-- T5983&#45;&gt;T5981 -->
<g id="edge1" class="edge">
<title>T5983:f3&#45;&gt;T5981:f1</title>
<path fill="none" stroke="#5b00c0" d="M3946,-81C3946,47.6239 1690.0743,-151.3834 1575.5156,-39.397"/>
<polygon fill="#5b00c0" stroke="#5b00c0" points="1578.486,-37.4974 1571,-30 1572.1767,-40.5293 1578.486,-37.4974"/>
<text text-anchor="middle" x="3928.5" y="-51.8" font-family="Times,serif" font-size="14.00" fill="#5b00c0">rw</text>
</g>
<!-- T5981&#45;&gt;T5983 -->
<g id="edge2" class="edge">
<title>T5981:f2&#45;&gt;T5983:f0</title>
<path fill="none" stroke="#5b00c0" d="M2407,-30C2407,-30 209.4632,-77.1892 42.0727,-80.7837"/>
<polygon fill="#5b00c0" stroke="#5b00c0" points="41.9225,-77.286 32,-81 42.0729,-84.2844 41.9225,-77.286"/>
<text text-anchor="middle" x="1509.5" y="-51.8" font-family="Times,serif" font-size="14.00" fill="#5b00c0">rw</text>
</g>
</g>
</svg>
