<?xml version="1.0" encoding="UTF-8" standalone="no"?>
<!DOCTYPE svg PUBLIC "-//W3C//DTD SVG 1.1//EN"
 "http://www.w3.org/Graphics/SVG/1.1/DTD/svg11.dtd">
<!-- Generated by graphviz version 2.40.1 (20161225.0304)
 -->
<!-- Title: a_graph Pages: 1 -->
<svg width="2066pt" height="119pt"
 viewBox="0.00 0.00 2066.00 119.00" xmlns="http://www.w3.org/2000/svg" xmlns:xlink="http://www.w3.org/1999/xlink">
<g id="graph0" class="graph" transform="scale(1 1) rotate(0) translate(4 115)">
<title>a_graph</title>
<polygon fill="#ffffff" stroke="transparent" points="-4,4 -4,-115 2062,-115 2062,4 -4,4"/>
<!-- T13567 -->
<g id="node1" class="node">
<title>T13567</title>
<polygon fill="none" stroke="#0058ad" points="0,-81.5 0,-110.5 2058,-110.5 2058,-81.5 0,-81.5"/>
<text text-anchor="middle" x="25" y="-92.3" font-family="Times,serif" font-size="14.00" fill="#0058ad">a 70 1</text>
<polyline fill="none" stroke="#0058ad" points="50,-81.5 50,-110.5 "/>
<text text-anchor="middle" x="1022" y="-92.3" font-family="Times,serif" font-size="14.00" fill="#0058ad">r 56 [1 2 3 4 5 6 7 8 9 10 11 12 13 14 15 17 19 18 20 21 23 22 24 25 26 27 28 29 30 32 31 34 35 36 37 38 39 40 41 42 43 44 45 46 47 48 49 50 51 52 53 54 55 56 57 58 59 60 61 63 64 62 65 66 67 68 69 70 71 72 73 74 75 76 77 78 79 80 81 82 83 84 85 86 87 88 89 90 93 95 96 97 98 99 100 101 102 103 104 105 106 107 108 109 110 111 112 114]</text>
<polyline fill="none" stroke="#0058ad" points="1994,-81.5 1994,-110.5 "/>
<text text-anchor="middle" x="2026" y="-92.3" font-family="Times,serif" font-size="14.00" fill="#0058ad">a 66 107</text>
</g>
<!-- T13563 -->
<g id="node2" class="node">
<title>T13563</title>
<polygon fill="none" stroke="#0058ad" points="586.5,-.5 586.5,-29.5 701.5,-29.5 701.5,-.5 586.5,-.5"/>
<text text-anchor="middle" x="612" y="-11.3" font-family="Times,serif" font-size="14.00" fill="#0058ad">r 70 []</text>
<polyline fill="none" stroke="#0058ad" points="637.5,-.5 637.5,-29.5 "/>
<text text-anchor="middle" x="669.5" y="-11.3" font-family="Times,serif" font-size="14.00" fill="#0058ad">a 56 113</text>
</g>
<!-- T13567&#45;&gt;T13563 -->
<g id="edge1" class="edge">
<title>T13567:f1&#45;&gt;T13563:f1</title>
<path fill="none" stroke="#5b00c0" d="M1022,-81C1022,-47.1069 774.7313,-18.9731 712.3497,-15.3861"/>
<polygon fill="#5b00c0" stroke="#5b00c0" points="712.1236,-11.8753 702,-15 711.8625,-18.8705 712.1236,-11.8753"/>
<text text-anchor="middle" x="1004.5" y="-51.8" font-family="Times,serif" font-size="14.00" fill="#5b00c0">rw</text>
</g>
<!-- T13563&#45;&gt;T13567 -->
<g id="edge2" class="edge">
<title>T13563:f0&#45;&gt;T13567:f0</title>
<path fill="none" stroke="#5b00c0" d="M586,-15C526.5466,-15 76.3374,-17.9044 29.0197,-71.559"/>
<polygon fill="#5b00c0" stroke="#5b00c0" points="25.6972,-70.4281 25,-81 32.1378,-73.1704 25.6972,-70.4281"/>
<text text-anchor="middle" x="85.5" y="-51.8" font-family="Times,serif" font-size="14.00" fill="#5b00c0">rw</text>
</g>
</g>
</svg>
