<?xml version="1.0" encoding="UTF-8" standalone="no"?>
<!DOCTYPE svg PUBLIC "-//W3C//DTD SVG 1.1//EN"
 "http://www.w3.org/Graphics/SVG/1.1/DTD/svg11.dtd">
<!-- Generated by graphviz version 2.40.1 (20161225.0304)
 -->
<!-- Title: a_graph Pages: 1 -->
<svg width="2383pt" height="119pt"
 viewBox="0.00 0.00 2383.00 119.00" xmlns="http://www.w3.org/2000/svg" xmlns:xlink="http://www.w3.org/1999/xlink">
<g id="graph0" class="graph" transform="scale(1 1) rotate(0) translate(4 115)">
<title>a_graph</title>
<polygon fill="#ffffff" stroke="transparent" points="-4,4 -4,-115 2379,-115 2379,4 -4,4"/>
<!-- T10667 -->
<g id="node1" class="node">
<title>T10667</title>
<polygon fill="none" stroke="#0058ad" points="0,-81.5 0,-110.5 1023,-110.5 1023,-81.5 0,-81.5"/>
<text text-anchor="middle" x="25" y="-92.3" font-family="Times,serif" font-size="14.00" fill="#0058ad">a 57 1</text>
<polyline fill="none" stroke="#0058ad" points="50,-81.5 50,-110.5 "/>
<text text-anchor="middle" x="536.5" y="-92.3" font-family="Times,serif" font-size="14.00" fill="#0058ad">r 55 [2 3 4 5 8 10 9 11 12 14 13 15 16 17 18 19 20 21 22 23 25 24 26 27 28 29 30 31 32 33 34 35 36 37 38 39 40 41 42 43 44 45 46 47 48 49 50 51 52 53 54 55 57 58 59 60]</text>
</g>
<!-- T10669 -->
<g id="node2" class="node">
<title>T10669</title>
<polygon fill="none" stroke="#0058ad" points="280,-.5 280,-29.5 2375,-29.5 2375,-.5 280,-.5"/>
<text text-anchor="middle" x="309" y="-11.3" font-family="Times,serif" font-size="14.00" fill="#0058ad">r 57 [2]</text>
<polyline fill="none" stroke="#0058ad" points="338,-.5 338,-29.5 "/>
<text text-anchor="middle" x="366.5" y="-11.3" font-family="Times,serif" font-size="14.00" fill="#0058ad">a 55 56</text>
<polyline fill="none" stroke="#0058ad" points="395,-.5 395,-29.5 "/>
<text text-anchor="middle" x="890" y="-11.3" font-family="Times,serif" font-size="14.00" fill="#0058ad">r 55 [2 3 4 5 8 10 9 11 12 14 13 15 16 17 18 19 20 21 22 23 25 24 26 27 28 29 30 31 32 33 34 35 36 37 38 39 40 41 42 43 44 45 46 47 48 49 50 51 52 53 54 55 57 58 59 60 56]</text>
<polyline fill="none" stroke="#0058ad" points="1385,-.5 1385,-29.5 "/>
<text text-anchor="middle" x="1880" y="-11.3" font-family="Times,serif" font-size="14.00" fill="#0058ad">r 55 [2 3 4 5 8 10 9 11 12 14 13 15 16 17 18 19 20 21 22 23 25 24 26 27 28 29 30 31 32 33 34 35 36 37 38 39 40 41 42 43 44 45 46 47 48 49 50 51 52 53 54 55 57 58 59 60 56]</text>
</g>
<!-- T10667&#45;&gt;T10669 -->
<g id="edge1" class="edge">
<title>T10667:f1&#45;&gt;T10669:f1</title>
<path fill="none" stroke="#5b00c0" d="M536.5,-81C536.5,-5.9694 382.6963,-98.8987 367.6764,-40.2704"/>
<polygon fill="#5b00c0" stroke="#5b00c0" points="371.1153,-39.5367 366.5,-30 364.1608,-40.3334 371.1153,-39.5367"/>
<text text-anchor="middle" x="539" y="-51.8" font-family="Times,serif" font-size="14.00" fill="#5b00c0">rw</text>
</g>
<!-- T10669&#45;&gt;T10667 -->
<g id="edge2" class="edge">
<title>T10669:f0&#45;&gt;T10667:f0</title>
<path fill="none" stroke="#5b00c0" d="M279.5,-15C224.5101,-15 47.7852,-21.5893 26.5865,-70.9198"/>
<polygon fill="#5b00c0" stroke="#5b00c0" points="23.0996,-70.4981 24.5,-81 29.9543,-71.917 23.0996,-70.4981"/>
<text text-anchor="middle" x="57" y="-51.8" font-family="Times,serif" font-size="14.00" fill="#5b00c0">rw</text>
</g>
</g>
</svg>
