<?xml version="1.0" encoding="UTF-8" standalone="no"?>
<!DOCTYPE svg PUBLIC "-//W3C//DTD SVG 1.1//EN"
 "http://www.w3.org/Graphics/SVG/1.1/DTD/svg11.dtd">
<!-- Generated by graphviz version 2.40.1 (20161225.0304)
 -->
<!-- Title: a_graph Pages: 1 -->
<svg width="895pt" height="119pt"
 viewBox="0.00 0.00 895.00 119.00" xmlns="http://www.w3.org/2000/svg" xmlns:xlink="http://www.w3.org/1999/xlink">
<g id="graph0" class="graph" transform="scale(1 1) rotate(0) translate(4 115)">
<title>a_graph</title>
<polygon fill="#ffffff" stroke="transparent" points="-4,4 -4,-115 891,-115 891,4 -4,4"/>
<!-- T11549 -->
<g id="node1" class="node">
<title>T11549</title>
<polygon fill="none" stroke="#0058ad" points="0,-81.5 0,-110.5 783,-110.5 783,-81.5 0,-81.5"/>
<text text-anchor="middle" x="121" y="-92.3" font-family="Times,serif" font-size="14.00" fill="#0058ad">r 61 [1 2 4 5 6 3 8 10 11 12 13 15 14 16]</text>
<polyline fill="none" stroke="#0058ad" points="242,-81.5 242,-110.5 "/>
<text text-anchor="middle" x="363" y="-92.3" font-family="Times,serif" font-size="14.00" fill="#0058ad">r 61 [1 2 4 5 6 3 8 10 11 12 13 15 14 16]</text>
<polyline fill="none" stroke="#0058ad" points="484,-81.5 484,-110.5 "/>
<text text-anchor="middle" x="512.5" y="-92.3" font-family="Times,serif" font-size="14.00" fill="#0058ad">a 59 47</text>
<polyline fill="none" stroke="#0058ad" points="541,-81.5 541,-110.5 "/>
<text text-anchor="middle" x="662" y="-92.3" font-family="Times,serif" font-size="14.00" fill="#0058ad">r 61 [1 2 4 5 6 3 8 10 11 12 13 15 14 16]</text>
</g>
<!-- T11543 -->
<g id="node2" class="node">
<title>T11543</title>
<polygon fill="none" stroke="#0058ad" points="114,-.5 114,-29.5 887,-29.5 887,-.5 114,-.5"/>
<text text-anchor="middle" x="142.5" y="-11.3" font-family="Times,serif" font-size="14.00" fill="#0058ad">a 61 17</text>
<polyline fill="none" stroke="#0058ad" points="171,-.5 171,-29.5 "/>
<text text-anchor="middle" x="500.5" y="-11.3" font-family="Times,serif" font-size="14.00" fill="#0058ad">r 59 [1 2 4 5 3 7 8 6 9 10 11 13 12 14 15 16 17 18 19 20 21 22 23 24 25 26 27 28 29 30 31 32 33 34 36 37 38 44 46]</text>
<polyline fill="none" stroke="#0058ad" points="830,-.5 830,-29.5 "/>
<text text-anchor="middle" x="858.5" y="-11.3" font-family="Times,serif" font-size="14.00" fill="#0058ad">a 61 18</text>
</g>
<!-- T11549&#45;&gt;T11543 -->
<g id="edge1" class="edge">
<title>T11549:f0&#45;&gt;T11543:f0</title>
<path fill="none" stroke="#5b00c0" d="M120.5,-81C120.5,-60.1715 136.1621,-55.7575 141.0565,-40.0586"/>
<polygon fill="#5b00c0" stroke="#5b00c0" points="144.5439,-40.3958 142.5,-30 137.6149,-39.4014 144.5439,-40.3958"/>
<text text-anchor="middle" x="145" y="-51.8" font-family="Times,serif" font-size="14.00" fill="#5b00c0">rw</text>
</g>
<!-- T11543&#45;&gt;T11549 -->
<g id="edge2" class="edge">
<title>T11543:f1&#45;&gt;T11549:f2</title>
<path fill="none" stroke="#5b00c0" d="M500.5,-30C500.5,-49.4654 508.8855,-55.7536 511.637,-70.8952"/>
<polygon fill="#5b00c0" stroke="#5b00c0" points="508.1616,-71.3341 512.5,-81 515.1362,-70.7384 508.1616,-71.3341"/>
<text text-anchor="middle" x="516" y="-51.8" font-family="Times,serif" font-size="14.00" fill="#5b00c0">rw</text>
</g>
</g>
</svg>
