<?xml version="1.0" encoding="UTF-8" standalone="no"?>
<!DOCTYPE svg PUBLIC "-//W3C//DTD SVG 1.1//EN"
 "http://www.w3.org/Graphics/SVG/1.1/DTD/svg11.dtd">
<!-- Generated by graphviz version 2.40.1 (20161225.0304)
 -->
<!-- Title: a_graph Pages: 1 -->
<svg width="4076pt" height="119pt"
 viewBox="0.00 0.00 4076.00 119.00" xmlns="http://www.w3.org/2000/svg" xmlns:xlink="http://www.w3.org/1999/xlink">
<g id="graph0" class="graph" transform="scale(1 1) rotate(0) translate(4 115)">
<title>a_graph</title>
<polygon fill="#ffffff" stroke="transparent" points="-4,4 -4,-115 4072,-115 4072,4 -4,4"/>
<!-- T12721 -->
<g id="node1" class="node">
<title>T12721</title>
<polygon fill="none" stroke="#0058ad" points="273,-81.5 273,-110.5 2257,-110.5 2257,-81.5 273,-81.5"/>
<text text-anchor="middle" x="305" y="-92.3" font-family="Times,serif" font-size="14.00" fill="#0058ad">a 64 124</text>
<polyline fill="none" stroke="#0058ad" points="337,-81.5 337,-110.5 "/>
<text text-anchor="middle" x="1297" y="-92.3" font-family="Times,serif" font-size="14.00" fill="#0058ad">r 60 [2 3 1 4 5 6 7 8 9 10 11 13 12 15 16 17 18 19 20 21 22 23 24 25 26 27 29 28 30 31 32 33 34 35 36 37 38 39 40 41 42 45 44 43 46 47 48 49 50 51 52 54 56 55 58 61 62 63 64 65 66 67 68 69 70 71 72 73 74 75 76 77 78 79 80 81 82 83 84 85 86 87 88 89 90 91 92 93 94 95 96 97 98 99 100 101 102 104 106 105 107 108 109 111 112 110 113]</text>
</g>
<!-- T12719 -->
<g id="node2" class="node">
<title>T12719</title>
<polygon fill="none" stroke="#0058ad" points="0,-.5 0,-29.5 4068,-29.5 4068,-.5 0,-.5"/>
<text text-anchor="middle" x="32" y="-11.3" font-family="Times,serif" font-size="14.00" fill="#0058ad">a 60 114</text>
<polyline fill="none" stroke="#0058ad" points="64,-.5 64,-29.5 "/>
<text text-anchor="middle" x="1094" y="-11.3" font-family="Times,serif" font-size="14.00" fill="#0058ad">r 64 [1 2 3 4 5 8 9 10 6 7 12 11 13 14 15 16 17 18 19 20 21 22 26 23 24 25 28 29 27 33 30 31 32 35 34 36 37 38 39 40 41 42 43 44 45 46 50 51 47 48 49 52 53 54 55 56 57 58 59 60 61 62 64 65 66 67 63 68 69 70 72 74 75 73 77 78 76 71 79 80 83 84 81 82 94 85 96 92 97 98 99 102 104 101 108 106 107 110 109 111 112 113 116 115 117 118 114 119 121 122 123 120]</text>
<polyline fill="none" stroke="#0058ad" points="2124,-.5 2124,-29.5 "/>
<text text-anchor="middle" x="3096" y="-11.3" font-family="Times,serif" font-size="14.00" fill="#0058ad">r 60 [2 3 1 4 5 6 7 8 9 10 11 13 12 15 16 17 18 19 20 21 22 23 24 25 26 27 29 28 30 31 32 33 34 35 36 37 38 39 40 41 42 45 44 43 46 47 48 49 50 51 52 54 56 55 58 61 62 63 64 65 66 67 68 69 70 71 72 73 74 75 76 77 78 79 80 81 82 83 84 85 86 87 88 89 90 91 92 93 94 95 96 97 98 99 100 101 102 104 106 105 107 108 109 111 112 110 113 114]</text>
</g>
<!-- T12721&#45;&gt;T12719 -->
<g id="edge1" class="edge">
<title>T12721:f1&#45;&gt;T12719:f0</title>
<path fill="none" stroke="#5b00c0" d="M1297,-81C1297,82.2759 726.1491,-54.4326 563,-48 549.4627,-47.4663 113.3231,-45.1809 41.86,-33.3933"/>
<polygon fill="#5b00c0" stroke="#5b00c0" points="42.5947,-29.9447 32,-30 40.3168,-36.5637 42.5947,-29.9447"/>
<text text-anchor="middle" x="1301.5" y="-51.8" font-family="Times,serif" font-size="14.00" fill="#5b00c0">rw</text>
</g>
<!-- T12719&#45;&gt;T12721 -->
<g id="edge2" class="edge">
<title>T12719:f1&#45;&gt;T12721:f0</title>
<path fill="none" stroke="#5b00c0" d="M1094,-30C1094,-45.286 559.2308,-46.7028 544,-48 440.7043,-56.7974 313.7481,20.7983 305.4313,-70.9388"/>
<polygon fill="#5b00c0" stroke="#5b00c0" points="301.9316,-70.8592 305,-81 308.9252,-71.1591 301.9316,-70.8592"/>
<text text-anchor="middle" x="551.5" y="-51.8" font-family="Times,serif" font-size="14.00" fill="#5b00c0">rw</text>
</g>
</g>
</svg>
