<?xml version="1.0" encoding="UTF-8" standalone="no"?>
<!DOCTYPE svg PUBLIC "-//W3C//DTD SVG 1.1//EN"
 "http://www.w3.org/Graphics/SVG/1.1/DTD/svg11.dtd">
<!-- Generated by graphviz version 2.40.1 (20161225.0304)
 -->
<!-- Title: a_graph Pages: 1 -->
<svg width="1305pt" height="119pt"
 viewBox="0.00 0.00 1305.00 119.00" xmlns="http://www.w3.org/2000/svg" xmlns:xlink="http://www.w3.org/1999/xlink">
<g id="graph0" class="graph" transform="scale(1 1) rotate(0) translate(4 115)">
<title>a_graph</title>
<polygon fill="#ffffff" stroke="transparent" points="-4,4 -4,-115 1301,-115 1301,4 -4,4"/>
<!-- T7897 -->
<g id="node1" class="node">
<title>T7897</title>
<polygon fill="none" stroke="#0058ad" points="709,-81.5 709,-110.5 926,-110.5 926,-81.5 709,-81.5"/>
<text text-anchor="middle" x="738" y="-92.3" font-family="Times,serif" font-size="14.00" fill="#0058ad">r 43 [1]</text>
<polyline fill="none" stroke="#0058ad" points="767,-81.5 767,-110.5 "/>
<text text-anchor="middle" x="792.5" y="-92.3" font-family="Times,serif" font-size="14.00" fill="#0058ad">r 44 []</text>
<polyline fill="none" stroke="#0058ad" points="818,-81.5 818,-110.5 "/>
<text text-anchor="middle" x="843" y="-92.3" font-family="Times,serif" font-size="14.00" fill="#0058ad">a 44 1</text>
<polyline fill="none" stroke="#0058ad" points="868,-81.5 868,-110.5 "/>
<text text-anchor="middle" x="897" y="-92.3" font-family="Times,serif" font-size="14.00" fill="#0058ad">r 43 [1]</text>
</g>
<!-- T7901 -->
<g id="node2" class="node">
<title>T7901</title>
<polygon fill="none" stroke="#0058ad" points="0,-.5 0,-29.5 1297,-29.5 1297,-.5 0,-.5"/>
<text text-anchor="middle" x="25" y="-11.3" font-family="Times,serif" font-size="14.00" fill="#0058ad">a 43 2</text>
<polyline fill="none" stroke="#0058ad" points="50,-.5 50,-29.5 "/>
<text text-anchor="middle" x="82" y="-11.3" font-family="Times,serif" font-size="14.00" fill="#0058ad">a 41 128</text>
<polyline fill="none" stroke="#0058ad" points="114,-.5 114,-29.5 "/>
<text text-anchor="middle" x="680" y="-11.3" font-family="Times,serif" font-size="14.00" fill="#0058ad">r 4 [1 2 3 4 5 6 7 17 18 19 20 22 23 24 25 26 27 28 29 30 31 32 33 34 35 36 37 38 39 40 41 42 44 45 46 47 48 49 50 51 52 53 54 55 56 57 58 59 60 61 62 63 64 66 67 68 69 70 71 72 73 74 75 76 77 78]</text>
<polyline fill="none" stroke="#0058ad" points="1246,-.5 1246,-29.5 "/>
<text text-anchor="middle" x="1271.5" y="-11.3" font-family="Times,serif" font-size="14.00" fill="#0058ad">r 44 []</text>
</g>
<!-- T7897&#45;&gt;T7901 -->
<g id="edge1" class="edge">
<title>T7897:f0&#45;&gt;T7901:f0</title>
<path fill="none" stroke="#5b00c0" d="M708.5,-96C672.7095,-96 102.8543,-71.5457 31.7622,-37.0325"/>
<polygon fill="#5b00c0" stroke="#5b00c0" points="34.1186,-34.4422 24.5,-30 29.249,-39.4709 34.1186,-34.4422"/>
<text text-anchor="middle" x="190" y="-51.8" font-family="Times,serif" font-size="14.00" fill="#5b00c0">rw</text>
</g>
<!-- T7901&#45;&gt;T7897 -->
<g id="edge2" class="edge">
<title>T7901:f3&#45;&gt;T7897:f2</title>
<path fill="none" stroke="#5b00c0" d="M1271.5,-30C1271.5,-218.0134 859.2355,98.4229 843.9366,-70.8708"/>
<polygon fill="#5b00c0" stroke="#5b00c0" points="840.434,-70.8585 843.5,-81 847.4275,-71.16 840.434,-70.8585"/>
<text text-anchor="middle" x="1277" y="-51.8" font-family="Times,serif" font-size="14.00" fill="#5b00c0">rw</text>
</g>
</g>
</svg>
