<?xml version="1.0" encoding="UTF-8" standalone="no"?>
<!DOCTYPE svg PUBLIC "-//W3C//DTD SVG 1.1//EN"
 "http://www.w3.org/Graphics/SVG/1.1/DTD/svg11.dtd">
<!-- Generated by graphviz version 2.40.1 (20161225.0304)
 -->
<!-- Title: a_graph Pages: 1 -->
<svg width="1106pt" height="119pt"
 viewBox="0.00 0.00 1106.00 119.00" xmlns="http://www.w3.org/2000/svg" xmlns:xlink="http://www.w3.org/1999/xlink">
<g id="graph0" class="graph" transform="scale(1 1) rotate(0) translate(4 115)">
<title>a_graph</title>
<polygon fill="#ffffff" stroke="transparent" points="-4,4 -4,-115 1102,-115 1102,4 -4,4"/>
<!-- T13181 -->
<g id="node1" class="node">
<title>T13181</title>
<polygon fill="none" stroke="#0058ad" points="694.5,-81.5 694.5,-110.5 1067.5,-110.5 1067.5,-81.5 694.5,-81.5"/>
<text text-anchor="middle" x="723" y="-92.3" font-family="Times,serif" font-size="14.00" fill="#0058ad">a 67 21</text>
<polyline fill="none" stroke="#0058ad" points="751.5,-81.5 751.5,-110.5 "/>
<text text-anchor="middle" x="881" y="-92.3" font-family="Times,serif" font-size="14.00" fill="#0058ad">r 68 [1 2 5 3 6 8 9 10 11 12 13 15 17 19 14]</text>
<polyline fill="none" stroke="#0058ad" points="1010.5,-81.5 1010.5,-110.5 "/>
<text text-anchor="middle" x="1039" y="-92.3" font-family="Times,serif" font-size="14.00" fill="#0058ad">a 66 44</text>
</g>
<!-- T13183 -->
<g id="node2" class="node">
<title>T13183</title>
<polygon fill="none" stroke="#0058ad" points="0,-.5 0,-29.5 1098,-29.5 1098,-.5 0,-.5"/>
<text text-anchor="middle" x="148.5" y="-11.3" font-family="Times,serif" font-size="14.00" fill="#0058ad">r 67 [1 2 3 4 5 6 7 8 9 11 10 12 13 14 15 16 17 18]</text>
<polyline fill="none" stroke="#0058ad" points="297,-.5 297,-29.5 "/>
<text text-anchor="middle" x="644" y="-11.3" font-family="Times,serif" font-size="14.00" fill="#0058ad">r 66 [1 2 3 4 5 6 7 8 9 10 12 11 14 13 16 17 15 18 19 20 21 22 23 24 27 26 28 25 29 30 31 32 33 34 36 35 37 38 39 40 42]</text>
<polyline fill="none" stroke="#0058ad" points="991,-.5 991,-29.5 "/>
<text text-anchor="middle" x="1019.5" y="-11.3" font-family="Times,serif" font-size="14.00" fill="#0058ad">a 4 127</text>
<polyline fill="none" stroke="#0058ad" points="1048,-.5 1048,-29.5 "/>
<text text-anchor="middle" x="1073" y="-11.3" font-family="Times,serif" font-size="14.00" fill="#0058ad">a 68 7</text>
</g>
<!-- T13181&#45;&gt;T13183 -->
<g id="edge1" class="edge">
<title>T13181:f1&#45;&gt;T13183:f3</title>
<path fill="none" stroke="#5b00c0" d="M881,-81C881,3.4986 1056.8545,-107.8949 1071.967,-40.2307"/>
<polygon fill="#5b00c0" stroke="#5b00c0" points="1075.4776,-40.3011 1073,-30 1068.513,-39.5978 1075.4776,-40.3011"/>
<text text-anchor="middle" x="1074.5" y="-51.8" font-family="Times,serif" font-size="14.00" fill="#5b00c0">rw</text>
</g>
<!-- T13183&#45;&gt;T13181 -->
<g id="edge2" class="edge">
<title>T13183:f0&#45;&gt;T13181:f0</title>
<path fill="none" stroke="#5b00c0" d="M148,-30C148,-88.4825 592.1166,-95.4758 683.8475,-95.9688"/>
<polygon fill="#5b00c0" stroke="#5b00c0" points="683.9893,-99.4692 694,-96 684.0108,-92.4692 683.9893,-99.4692"/>
<text text-anchor="middle" x="215.5" y="-51.8" font-family="Times,serif" font-size="14.00" fill="#5b00c0">rw</text>
</g>
</g>
</svg>
