<?xml version="1.0" encoding="UTF-8" standalone="no"?>
<!DOCTYPE svg PUBLIC "-//W3C//DTD SVG 1.1//EN"
 "http://www.w3.org/Graphics/SVG/1.1/DTD/svg11.dtd">
<!-- Generated by graphviz version 2.40.1 (20161225.0304)
 -->
<!-- Title: a_graph Pages: 1 -->
<svg width="1212pt" height="362pt"
 viewBox="0.00 0.00 1212.00 362.00" xmlns="http://www.w3.org/2000/svg" xmlns:xlink="http://www.w3.org/1999/xlink">
<g id="graph0" class="graph" transform="scale(1 1) rotate(0) translate(4 358)">
<title>a_graph</title>
<polygon fill="#ffffff" stroke="transparent" points="-4,4 -4,-358 1208,-358 1208,4 -4,4"/>
<!-- T16289 -->
<g id="node1" class="node">
<title>T16289</title>
<polygon fill="none" stroke="#0058ad" points="30,-324.5 30,-353.5 1204,-353.5 1204,-324.5 30,-324.5"/>
<text text-anchor="middle" x="55" y="-335.3" font-family="Times,serif" font-size="14.00" fill="#0058ad">a 83 7</text>
<polyline fill="none" stroke="#0058ad" points="80,-324.5 80,-353.5 "/>
<text text-anchor="middle" x="556.5" y="-335.3" font-family="Times,serif" font-size="14.00" fill="#0058ad">r 82 [2 3 4 5 1 6 7 8 9 10 11 12 13 14 15 17 16 20 21 18 19 22 23 24 25 26 27 28 29 30 31 32 33 35 34 36 37 39 38 41 40 42 43 44 45 46 48 49 50 47 51 52 53 54 56 57]</text>
<polyline fill="none" stroke="#0058ad" points="1033,-324.5 1033,-353.5 "/>
<text text-anchor="middle" x="1093.5" y="-335.3" font-family="Times,serif" font-size="14.00" fill="#0058ad">r 83 [1 2 3 5 4 6 7]</text>
<polyline fill="none" stroke="#0058ad" points="1154,-324.5 1154,-353.5 "/>
<text text-anchor="middle" x="1179" y="-335.3" font-family="Times,serif" font-size="14.00" fill="#0058ad">a 83 8</text>
</g>
<!-- T16291 -->
<g id="node2" class="node">
<title>T16291</title>
<polygon fill="none" stroke="#0058ad" points="158,-81.5 158,-110.5 1178,-110.5 1178,-81.5 158,-81.5"/>
<text text-anchor="middle" x="643" y="-92.3" font-family="Times,serif" font-size="14.00" fill="#0058ad">r 82 [2 3 4 5 1 6 7 8 9 10 11 12 13 14 15 17 16 20 21 18 19 22 23 24 25 26 27 28 29 30 31 32 33 35 34 36 37 39 38 41 40 42 43 44 45 46 48 49 50 47 51 52 53 54 56 57 58]</text>
<polyline fill="none" stroke="#0058ad" points="1128,-81.5 1128,-110.5 "/>
<text text-anchor="middle" x="1153" y="-92.3" font-family="Times,serif" font-size="14.00" fill="#0058ad">a 83 9</text>
</g>
<!-- T16289&#45;&gt;T16291 -->
<g id="edge2" class="edge">
<title>T16289:f3&#45;&gt;T16291:f1</title>
<path fill="none" stroke="#c02700" d="M1179,-324C1179,-232.0766 1154.845,-208.0735 1153.0994,-121.0584"/>
<polygon fill="#c02700" stroke="#c02700" points="1156.5987,-120.9649 1153,-111 1149.5991,-121.0341 1156.5987,-120.9649"/>
<text text-anchor="middle" x="1177" y="-213.8" font-family="Times,serif" font-size="14.00" fill="#c02700">ww</text>
</g>
<!-- T16285 -->
<g id="node5" class="node">
<title>T16285</title>
<polygon fill="none" stroke="#0058ad" points="527.5,-243.5 527.5,-272.5 584.5,-272.5 584.5,-243.5 527.5,-243.5"/>
<text text-anchor="middle" x="556" y="-254.3" font-family="Times,serif" font-size="14.00" fill="#0058ad">a 82 58</text>
</g>
<!-- T16289&#45;&gt;T16285 -->
<g id="edge1" class="edge">
<title>T16289:f1&#45;&gt;T16285:f0</title>
<path fill="none" stroke="#5b00c0" d="M556,-324C556,-310.3521 556,-295.1166 556,-282.7254"/>
<polygon fill="#5b00c0" stroke="#5b00c0" points="559.5001,-282.6796 556,-272.6796 552.5001,-282.6797 559.5001,-282.6796"/>
<text text-anchor="middle" x="563.5" y="-294.8" font-family="Times,serif" font-size="14.00" fill="#5b00c0">rw</text>
</g>
<!-- T16293 -->
<g id="node3" class="node">
<title>T16293</title>
<polygon fill="none" stroke="#0058ad" points="0,-.5 0,-29.5 1154,-29.5 1154,-.5 0,-.5"/>
<text text-anchor="middle" x="55" y="-11.3" font-family="Times,serif" font-size="14.00" fill="#0058ad">r 83 [1 2 3 5 4 6]</text>
<polyline fill="none" stroke="#0058ad" points="110,-.5 110,-29.5 "/>
<text text-anchor="middle" x="138.5" y="-11.3" font-family="Times,serif" font-size="14.00" fill="#0058ad">a 82 55</text>
<polyline fill="none" stroke="#0058ad" points="167,-.5 167,-29.5 "/>
<text text-anchor="middle" x="660.5" y="-11.3" font-family="Times,serif" font-size="14.00" fill="#0058ad">r 82 [2 3 4 5 1 6 7 8 9 10 11 12 13 14 15 17 16 20 21 18 19 22 23 24 25 26 27 28 29 30 31 32 33 35 34 36 37 39 38 41 40 42 43 44 45 46 48 49 50 47 51 52 53 54 56 57 58 55]</text>
</g>
<!-- T16291&#45;&gt;T16293 -->
<g id="edge3" class="edge">
<title>T16291:f0&#45;&gt;T16293:f1</title>
<path fill="none" stroke="#5b00c0" d="M643,-81C643,-27.908 195.4459,-79.5609 142.9982,-38.7437"/>
<polygon fill="#5b00c0" stroke="#5b00c0" points="146.0014,-36.9447 138,-30 139.9242,-40.4187 146.0014,-36.9447"/>
<text text-anchor="middle" x="615.5" y="-51.8" font-family="Times,serif" font-size="14.00" fill="#5b00c0">rw</text>
</g>
<!-- T16293&#45;&gt;T16289 -->
<g id="edge4" class="edge">
<title>T16293:f0&#45;&gt;T16289:f0</title>
<path fill="none" stroke="#5b00c0" d="M55,-30C55,-59.3333 55,-66.6667 55,-96 55,-258 55,-258 55,-258 55,-283.6667 55,-292.4896 55,-313.9453"/>
<polygon fill="#5b00c0" stroke="#5b00c0" points="51.5001,-314 55,-324 58.5001,-314 51.5001,-314"/>
<text text-anchor="middle" x="62.5" y="-173.3" font-family="Times,serif" font-size="14.00" fill="#5b00c0">rw</text>
</g>
<!-- T16287 -->
<g id="node4" class="node">
<title>T16287</title>
<polygon fill="none" stroke="#0058ad" points="589,-162.5 589,-191.5 699,-191.5 699,-162.5 589,-162.5"/>
<text text-anchor="middle" x="644" y="-173.3" font-family="Times,serif" font-size="14.00" fill="#0058ad">r 83 [1 2 3 5 4 6]</text>
</g>
<!-- T16287&#45;&gt;T16289 -->
<g id="edge5" class="edge">
<title>T16287:f0&#45;&gt;T16289:f0</title>
<path fill="none" stroke="#5b00c0" d="M641.2487,-191.5656C635.0774,-219.6167 617.2237,-280.6039 575,-306 552.1644,-319.7348 129.5081,-298.8774 63.6074,-318.1814"/>
<polygon fill="#5b00c0" stroke="#5b00c0" points="61.3245,-315.4999 55,-324 65.2448,-321.2992 61.3245,-315.4999"/>
<text text-anchor="middle" x="631.5" y="-254.3" font-family="Times,serif" font-size="14.00" fill="#5b00c0">rw</text>
</g>
<!-- T16287&#45;&gt;T16291 -->
<g id="edge6" class="edge">
<title>T16287&#45;&gt;T16291</title>
<path fill="none" stroke="#0050c0" d="M648.402,-162.1434C651.8527,-150.497 656.7275,-134.0446 660.7519,-120.4623"/>
<polygon fill="#0050c0" stroke="#0050c0" points="664.1408,-121.3448 663.6259,-110.7625 657.4292,-119.3561 664.1408,-121.3448"/>
<text text-anchor="middle" x="662.5" y="-132.8" font-family="Times,serif" font-size="14.00" fill="#0050c0">rt</text>
</g>
<!-- T16285&#45;&gt;T16291 -->
<g id="edge9" class="edge">
<title>T16285:f0&#45;&gt;T16291:f0</title>
<path fill="none" stroke="#c000a5" d="M553.6713,-243.4651C551.2549,-223.5524 549.7005,-187.3737 565,-162 584.3823,-129.8551 632.6947,-148.1043 641.583,-120.9804"/>
<polygon fill="#c000a5" stroke="#c000a5" points="645.0594,-121.3927 643,-111 638.1289,-120.4087 645.0594,-121.3927"/>
<text text-anchor="middle" x="572.5" y="-173.3" font-family="Times,serif" font-size="14.00" fill="#c000a5">wr</text>
</g>
<!-- T16285&#45;&gt;T16293 -->
<g id="edge8" class="edge">
<title>T16285:f0&#45;&gt;T16293:f1</title>
<path fill="none" stroke="#c02700" d="M528.9123,-243.4047C528.6072,-243.2679 528.303,-243.1329 528,-243 364.6628,-171.3322 261.8922,-249.0966 149,-111 128.2514,-85.6191 135.9911,-69.6718 137.7006,-40.1067"/>
<polygon fill="#c02700" stroke="#c02700" points="141.2023,-40.0993 138,-30 134.2053,-39.8919 141.2023,-40.0993"/>
<text text-anchor="middle" x="188" y="-132.8" font-family="Times,serif" font-size="14.00" fill="#c02700">ww</text>
</g>
<!-- T16285&#45;&gt;T16287 -->
<g id="edge7" class="edge">
<title>T16285&#45;&gt;T16287</title>
<path fill="none" stroke="#0050c0" d="M572.1406,-243.1434C585.6617,-230.6978 605.1455,-212.7638 620.4149,-198.709"/>
<polygon fill="#0050c0" stroke="#0050c0" points="622.9744,-201.1101 627.9618,-191.7625 618.2338,-195.9597 622.9744,-201.1101"/>
<text text-anchor="middle" x="611.5" y="-213.8" font-family="Times,serif" font-size="14.00" fill="#0050c0">rt</text>
</g>
</g>
</svg>
