<?xml version="1.0" encoding="UTF-8" standalone="no"?>
<!DOCTYPE svg PUBLIC "-//W3C//DTD SVG 1.1//EN"
 "http://www.w3.org/Graphics/SVG/1.1/DTD/svg11.dtd">
<!-- Generated by graphviz version 2.40.1 (20161225.0304)
 -->
<!-- Title: a_graph Pages: 1 -->
<svg width="2591pt" height="200pt"
 viewBox="0.00 0.00 2591.00 200.00" xmlns="http://www.w3.org/2000/svg" xmlns:xlink="http://www.w3.org/1999/xlink">
<g id="graph0" class="graph" transform="scale(1 1) rotate(0) translate(4 196)">
<title>a_graph</title>
<polygon fill="#ffffff" stroke="transparent" points="-4,4 -4,-196 2587,-196 2587,4 -4,4"/>
<!-- T10415 -->
<g id="node1" class="node">
<title>T10415</title>
<polygon fill="none" stroke="#0058ad" points="0,-162.5 0,-191.5 792,-191.5 792,-162.5 0,-162.5"/>
<text text-anchor="middle" x="367.5" y="-173.3" font-family="Times,serif" font-size="14.00" fill="#0058ad">r 36 [1 2 3 5 6 7 8 9 10 11 12 13 14 15 16 17 18 19 20 21 22 23 24 25 26 27 29 28 30 31 32 34 35 36 37 38 39 69 70 71 73 75 76]</text>
<polyline fill="none" stroke="#0058ad" points="735,-162.5 735,-191.5 "/>
<text text-anchor="middle" x="763.5" y="-173.3" font-family="Times,serif" font-size="14.00" fill="#0058ad">a 52 64</text>
</g>
<!-- T10419 -->
<g id="node2" class="node">
<title>T10419</title>
<polygon fill="none" stroke="#0058ad" points="275,-.5 275,-29.5 1001,-29.5 1001,-.5 275,-.5"/>
<text text-anchor="middle" x="307" y="-11.3" font-family="Times,serif" font-size="14.00" fill="#0058ad">a 42 128</text>
<polyline fill="none" stroke="#0058ad" points="339,-.5 339,-29.5 "/>
<text text-anchor="middle" x="367.5" y="-11.3" font-family="Times,serif" font-size="14.00" fill="#0058ad">a 36 77</text>
<polyline fill="none" stroke="#0058ad" points="396,-.5 396,-29.5 "/>
<text text-anchor="middle" x="670" y="-11.3" font-family="Times,serif" font-size="14.00" fill="#0058ad">r 52 [30 35 36 37 38 39 40 41 43 44 42 46 45 47 48 49 50 51 52 53 54 55 57 58 60 59 61 62 63]</text>
<polyline fill="none" stroke="#0058ad" points="944,-.5 944,-29.5 "/>
<text text-anchor="middle" x="972.5" y="-11.3" font-family="Times,serif" font-size="14.00" fill="#0058ad">a 54 41</text>
</g>
<!-- T10415&#45;&gt;T10419 -->
<g id="edge1" class="edge">
<title>T10415:f0&#45;&gt;T10419:f1</title>
<path fill="none" stroke="#5b00c0" d="M367,-162C367,-106.8854 367,-90.604 367,-40.1919"/>
<polygon fill="#5b00c0" stroke="#5b00c0" points="370.5001,-40 367,-30 363.5001,-40 370.5001,-40"/>
<text text-anchor="middle" x="374.5" y="-92.3" font-family="Times,serif" font-size="14.00" fill="#5b00c0">rw</text>
</g>
<!-- T10417 -->
<g id="node3" class="node">
<title>T10417</title>
<polygon fill="none" stroke="#0058ad" points="691,-81.5 691,-110.5 2583,-110.5 2583,-81.5 691,-81.5"/>
<text text-anchor="middle" x="1008.5" y="-92.3" font-family="Times,serif" font-size="14.00" fill="#0058ad">r 54 [1 3 4 5 10 11 2 15 17 16 18 21 22 24 23 25 26 20 27 28 29 31 30 33 34 35 36 32 37 39 40 38 42 43 44 45]</text>
<polyline fill="none" stroke="#0058ad" points="1326,-81.5 1326,-110.5 "/>
<text text-anchor="middle" x="1608.5" y="-92.3" font-family="Times,serif" font-size="14.00" fill="#0058ad">r 52 [30 35 36 37 38 39 40 41 43 44 42 46 45 47 48 49 50 51 52 53 54 55 57 58 60 59 61 62 63 64]</text>
<polyline fill="none" stroke="#0058ad" points="1891,-81.5 1891,-110.5 "/>
<text text-anchor="middle" x="1919.5" y="-92.3" font-family="Times,serif" font-size="14.00" fill="#0058ad">a 55 20</text>
<polyline fill="none" stroke="#0058ad" points="1948,-81.5 1948,-110.5 "/>
<text text-anchor="middle" x="2265.5" y="-92.3" font-family="Times,serif" font-size="14.00" fill="#0058ad">r 54 [1 3 4 5 10 11 2 15 17 16 18 21 22 24 23 25 26 20 27 28 29 31 30 33 34 35 36 32 37 39 40 38 42 43 44 45]</text>
</g>
<!-- T10415&#45;&gt;T10417 -->
<g id="edge2" class="edge">
<title>T10415:f1&#45;&gt;T10417:f1</title>
<path fill="none" stroke="#c000a5" d="M792,-177C834.9053,-177 1523.0407,-158.7399 1600.8559,-118.4888"/>
<polygon fill="#c000a5" stroke="#c000a5" points="1603.6299,-120.6516 1608,-111 1598.5649,-115.8198 1603.6299,-120.6516"/>
<text text-anchor="middle" x="1561.5" y="-132.8" font-family="Times,serif" font-size="14.00" fill="#c000a5">wr</text>
</g>
<!-- T10419&#45;&gt;T10415 -->
<g id="edge3" class="edge">
<title>T10419:f2&#45;&gt;T10415:f1</title>
<path fill="none" stroke="#5b00c0" d="M670,-30C670,-52.7058 667.667,-58.3039 667,-81 666.6084,-94.3276 660.1063,-99.5871 667,-111 690.1168,-149.2715 752.5313,-119.2114 762.6156,-151.6988"/>
<polygon fill="#5b00c0" stroke="#5b00c0" points="759.1991,-152.5553 764,-162 766.1368,-151.6229 759.1991,-152.5553"/>
<text text-anchor="middle" x="674.5" y="-92.3" font-family="Times,serif" font-size="14.00" fill="#5b00c0">rw</text>
</g>
<!-- T10417&#45;&gt;T10419 -->
<g id="edge4" class="edge">
<title>T10417:f0&#45;&gt;T10419:f3</title>
<path fill="none" stroke="#5b00c0" d="M1008,-81C1008,-57.375 982.1516,-56.9934 974.8818,-39.9056"/>
<polygon fill="#5b00c0" stroke="#5b00c0" points="978.3049,-39.1711 973,-30 971.4279,-40.4775 978.3049,-39.1711"/>
<text text-anchor="middle" x="1007.5" y="-51.8" font-family="Times,serif" font-size="14.00" fill="#5b00c0">rw</text>
</g>
</g>
</svg>
