<?xml version="1.0" encoding="UTF-8" standalone="no"?>
<!DOCTYPE svg PUBLIC "-//W3C//DTD SVG 1.1//EN"
 "http://www.w3.org/Graphics/SVG/1.1/DTD/svg11.dtd">
<!-- Generated by graphviz version 2.40.1 (20161225.0304)
 -->
<!-- Title: a_graph Pages: 1 -->
<svg width="3155pt" height="119pt"
 viewBox="0.00 0.00 3155.00 119.00" xmlns="http://www.w3.org/2000/svg" xmlns:xlink="http://www.w3.org/1999/xlink">
<g id="graph0" class="graph" transform="scale(1 1) rotate(0) translate(4 115)">
<title>a_graph</title>
<polygon fill="#ffffff" stroke="transparent" points="-4,4 -4,-115 3151,-115 3151,4 -4,4"/>
<!-- T509 -->
<g id="node1" class="node">
<title>T509</title>
<polygon fill="none" stroke="#0058ad" points="2221.5,-81.5 2221.5,-110.5 2879.5,-110.5 2879.5,-81.5 2221.5,-81.5"/>
<text text-anchor="middle" x="2246.5" y="-92.3" font-family="Times,serif" font-size="14.00" fill="#0058ad">a 8 82</text>
<polyline fill="none" stroke="#0058ad" points="2271.5,-81.5 2271.5,-110.5 "/>
<text text-anchor="middle" x="2575.5" y="-92.3" font-family="Times,serif" font-size="14.00" fill="#0058ad">r 10 [1 2 3 4 5 6 7 8 9 10 11 12 13 14 15 16 17 18 19 20 21 22 24 25 26 27 29 28 30 31 32 33 34 35 36 37]</text>
</g>
<!-- T512 -->
<g id="node2" class="node">
<title>T512</title>
<polygon fill="none" stroke="#0058ad" points="0,-.5 0,-29.5 3147,-29.5 3147,-.5 0,-.5"/>
<text text-anchor="middle" x="620.5" y="-11.3" font-family="Times,serif" font-size="14.00" fill="#0058ad">r 8 [9 10 11 12 14 15 16 13 17 18 19 20 21 22 23 24 25 26 27 29 30 28 31 32 33 34 35 36 37 38 39 40 41 42 43 44 45 46 47 48 49 50 51 52 53 54 55 56 57 58 60 59 61 62 65 67 68 69 70 71 72 73 74 75 76 77 78 79 80 81]</text>
<polyline fill="none" stroke="#0058ad" points="1241,-.5 1241,-29.5 "/>
<text text-anchor="middle" x="1861.5" y="-11.3" font-family="Times,serif" font-size="14.00" fill="#0058ad">r 8 [9 10 11 12 14 15 16 13 17 18 19 20 21 22 23 24 25 26 27 29 30 28 31 32 33 34 35 36 37 38 39 40 41 42 43 44 45 46 47 48 49 50 51 52 53 54 55 56 57 58 60 59 61 62 65 67 68 69 70 71 72 73 74 75 76 77 78 79 80 81]</text>
<polyline fill="none" stroke="#0058ad" points="2482,-.5 2482,-29.5 "/>
<text text-anchor="middle" x="2786" y="-11.3" font-family="Times,serif" font-size="14.00" fill="#0058ad">r 10 [1 2 3 4 5 6 7 8 9 10 11 12 13 14 15 16 17 18 19 20 21 22 24 25 26 27 29 28 30 31 32 33 34 35 36 37]</text>
<polyline fill="none" stroke="#0058ad" points="3090,-.5 3090,-29.5 "/>
<text text-anchor="middle" x="3118.5" y="-11.3" font-family="Times,serif" font-size="14.00" fill="#0058ad">a 10 23</text>
</g>
<!-- T509&#45;&gt;T512 -->
<g id="edge1" class="edge">
<title>T509:f1&#45;&gt;T512:f3</title>
<path fill="none" stroke="#5b00c0" d="M2879.5,-96C2931.1553,-96 3096.0155,-86.4191 3116.4213,-39.8212"/>
<polygon fill="#5b00c0" stroke="#5b00c0" points="3119.8534,-40.508 3118.5,-30 3113.0051,-39.0585 3119.8534,-40.508"/>
<text text-anchor="middle" x="3116" y="-51.8" font-family="Times,serif" font-size="14.00" fill="#5b00c0">rw</text>
</g>
<!-- T512&#45;&gt;T509 -->
<g id="edge2" class="edge">
<title>T512:f0&#45;&gt;T509:f0</title>
<path fill="none" stroke="#5b00c0" d="M620.5,-30C620.5,-72.9452 2069.4731,-94.4605 2211.3327,-95.9203"/>
<polygon fill="#5b00c0" stroke="#5b00c0" points="2211.4728,-99.4214 2221.5,-96 2211.5278,-92.4216 2211.4728,-99.4214"/>
<text text-anchor="middle" x="926" y="-51.8" font-family="Times,serif" font-size="14.00" fill="#5b00c0">rw</text>
</g>
</g>
</svg>
