<?xml version="1.0" encoding="UTF-8" standalone="no"?>
<!DOCTYPE svg PUBLIC "-//W3C//DTD SVG 1.1//EN"
 "http://www.w3.org/Graphics/SVG/1.1/DTD/svg11.dtd">
<!-- Generated by graphviz version 2.40.1 (20161225.0304)
 -->
<!-- Title: a_graph Pages: 1 -->
<svg width="4049pt" height="119pt"
 viewBox="0.00 0.00 4049.00 119.00" xmlns="http://www.w3.org/2000/svg" xmlns:xlink="http://www.w3.org/1999/xlink">
<g id="graph0" class="graph" transform="scale(1 1) rotate(0) translate(4 115)">
<title>a_graph</title>
<polygon fill="#ffffff" stroke="transparent" points="-4,4 -4,-115 4045,-115 4045,4 -4,4"/>
<!-- T4185 -->
<g id="node1" class="node">
<title>T4185</title>
<polygon fill="none" stroke="#0058ad" points="0,-81.5 0,-110.5 4041,-110.5 4041,-81.5 0,-81.5"/>
<text text-anchor="middle" x="996" y="-92.3" font-family="Times,serif" font-size="14.00" fill="#0058ad">r 23 [1 2 3 4 5 6 7 8 9 11 12 13 14 15 16 17 18 19 20 21 22 23 25 26 27 29 30 31 32 33 34 35 37 36 38 40 41 42 39 44 43 45 46 47 48 49 50 51 52 53 54 55 56 57 58 59 60 61 62 63 64 65 66 67 68 69 70 71 72 73 74 75 76 77 79 80 81 82 83 84 85 86 87 88 89 91 90 92 93 94 95 97 98 99 100 101 104 105 106 108 107 109 110 111 112 113 114 115 116 117]</text>
<polyline fill="none" stroke="#0058ad" points="1992,-81.5 1992,-110.5 "/>
<text text-anchor="middle" x="2020.5" y="-92.3" font-family="Times,serif" font-size="14.00" fill="#0058ad">a 25 35</text>
<polyline fill="none" stroke="#0058ad" points="2049,-81.5 2049,-110.5 "/>
<text text-anchor="middle" x="3045" y="-92.3" font-family="Times,serif" font-size="14.00" fill="#0058ad">r 23 [1 2 3 4 5 6 7 8 9 11 12 13 14 15 16 17 18 19 20 21 22 23 25 26 27 29 30 31 32 33 34 35 37 36 38 40 41 42 39 44 43 45 46 47 48 49 50 51 52 53 54 55 56 57 58 59 60 61 62 63 64 65 66 67 68 69 70 71 72 73 74 75 76 77 79 80 81 82 83 84 85 86 87 88 89 91 90 92 93 94 95 97 98 99 100 101 104 105 106 108 107 109 110 111 112 113 114 115 116 117]</text>
</g>
<!-- T4187 -->
<g id="node2" class="node">
<title>T4187</title>
<polygon fill="none" stroke="#0058ad" points="1170,-.5 1170,-29.5 1977,-29.5 1977,-.5 1170,-.5"/>
<text text-anchor="middle" x="1202" y="-11.3" font-family="Times,serif" font-size="14.00" fill="#0058ad">a 23 118</text>
<polyline fill="none" stroke="#0058ad" points="1234,-.5 1234,-29.5 "/>
<text text-anchor="middle" x="1266" y="-11.3" font-family="Times,serif" font-size="14.00" fill="#0058ad">a 23 119</text>
<polyline fill="none" stroke="#0058ad" points="1298,-.5 1298,-29.5 "/>
<text text-anchor="middle" x="1337.5" y="-11.3" font-family="Times,serif" font-size="14.00" fill="#0058ad">r 26 [2 3 4]</text>
<polyline fill="none" stroke="#0058ad" points="1377,-.5 1377,-29.5 "/>
<text text-anchor="middle" x="1677" y="-11.3" font-family="Times,serif" font-size="14.00" fill="#0058ad">r 25 [1 4 5 7 10 12 13 9 14 16 18 19 17 20 21 22 23 24 25 26 27 28 29 30 31 33 32 34 36 37 38 39 40 41]</text>
</g>
<!-- T4185&#45;&gt;T4187 -->
<g id="edge1" class="edge">
<title>T4185:f0&#45;&gt;T4187:f0</title>
<path fill="none" stroke="#5b00c0" d="M995.5,-81C995.5,-42.5529 1110.1477,-18.5483 1159.5006,-15.3628"/>
<polygon fill="#5b00c0" stroke="#5b00c0" points="1159.6335,-18.8603 1169.5,-15 1159.3796,-11.8649 1159.6335,-18.8603"/>
<text text-anchor="middle" x="1033" y="-51.8" font-family="Times,serif" font-size="14.00" fill="#5b00c0">rw</text>
</g>
<!-- T4187&#45;&gt;T4185 -->
<g id="edge2" class="edge">
<title>T4187:f3&#45;&gt;T4185:f1</title>
<path fill="none" stroke="#5b00c0" d="M1977.5,-15C2009.0908,-15 2018.6817,-40.2331 2020.2537,-70.8834"/>
<polygon fill="#5b00c0" stroke="#5b00c0" points="2016.7575,-71.0882 2020.5,-81 2023.7555,-70.9177 2016.7575,-71.0882"/>
<text text-anchor="middle" x="2027" y="-51.8" font-family="Times,serif" font-size="14.00" fill="#5b00c0">rw</text>
</g>
</g>
</svg>
