<?xml version="1.0" encoding="UTF-8" standalone="no"?>
<!DOCTYPE svg PUBLIC "-//W3C//DTD SVG 1.1//EN"
 "http://www.w3.org/Graphics/SVG/1.1/DTD/svg11.dtd">
<!-- Generated by graphviz version 2.40.1 (20161225.0304)
 -->
<!-- Title: a_graph Pages: 1 -->
<svg width="3190pt" height="443pt"
 viewBox="0.00 0.00 3189.50 443.00" xmlns="http://www.w3.org/2000/svg" xmlns:xlink="http://www.w3.org/1999/xlink">
<g id="graph0" class="graph" transform="scale(1 1) rotate(0) translate(4 439)">
<title>a_graph</title>
<polygon fill="#ffffff" stroke="transparent" points="-4,4 -4,-439 3185.5,-439 3185.5,4 -4,4"/>
<!-- T13591 -->
<g id="node1" class="node">
<title>T13591</title>
<polygon fill="none" stroke="#0058ad" points="2915,-405.5 2915,-434.5 3036,-434.5 3036,-405.5 2915,-405.5"/>
<text text-anchor="middle" x="2975.5" y="-416.3" font-family="Times,serif" font-size="14.00" fill="#0058ad">r 70 [1 2 3 4 5 6 7]</text>
</g>
<!-- T13595 -->
<g id="node3" class="node">
<title>T13595</title>
<polygon fill="none" stroke="#0058ad" points="44,-324.5 44,-353.5 1851,-353.5 1851,-324.5 44,-324.5"/>
<text text-anchor="middle" x="947.5" y="-335.3" font-family="Times,serif" font-size="14.00" fill="#0058ad">r 66 [1 2 3 4 5 6 7 8 9 10 12 11 14 13 16 17 15 18 19 20 21 22 23 24 27 26 28 25 29 30 31 32 33 34 36 35 37 38 39 40 42 44 43 48 49 52 53 57 54 58 59 55 56 60 61 62 63 64 65 67 68 66 70 71 69 72 73 74 75 76 78 77 80 81 82 79 84 83 85 86 87 88 89 90 91 92 93 96 97 94 95 98 99 100 101 102 103 104 105 106 107 108]</text>
</g>
<!-- T13591&#45;&gt;T13595 -->
<g id="edge1" class="edge">
<title>T13591&#45;&gt;T13595</title>
<path fill="none" stroke="#0050c0" d="M2914.806,-417.5758C2680.5193,-408.2182 1823.1783,-373.9753 1320.9225,-353.9148"/>
<polygon fill="#0050c0" stroke="#0050c0" points="1320.734,-350.4046 1310.6022,-353.5026 1320.4546,-357.399 1320.734,-350.4046"/>
<text text-anchor="middle" x="2148" y="-375.8" font-family="Times,serif" font-size="14.00" fill="#0050c0">rt</text>
</g>
<!-- T13593 -->
<g id="node5" class="node">
<title>T13593</title>
<polygon fill="none" stroke="#0058ad" points="0,-.5 0,-29.5 2943,-29.5 2943,-.5 0,-.5"/>
<text text-anchor="middle" x="373" y="-11.3" font-family="Times,serif" font-size="14.00" fill="#0058ad">r 67 [1 2 3 4 5 6 7 8 9 11 10 12 13 14 15 16 17 18 21 22 23 24 26 25 27 28 29 30 31 32 33 34 35 36 38 37 39 40 41 42 43 44 45 46]</text>
<polyline fill="none" stroke="#0058ad" points="746,-.5 746,-29.5 "/>
<text text-anchor="middle" x="1754" y="-11.3" font-family="Times,serif" font-size="14.00" fill="#0058ad">r 56 [1 2 3 4 5 6 7 8 9 10 11 12 13 14 15 17 19 18 20 21 23 22 24 25 26 27 28 29 30 32 31 34 35 36 37 38 39 40 41 42 43 44 45 46 47 48 49 50 51 52 53 54 55 56 57 58 59 60 61 63 64 62 65 66 67 68 69 70 71 72 73 74 75 76 77 78 79 80 81 82 83 84 85 86 87 88 89 90 93 95 96 97 98 99 100 101 102 103 104 105 106 107 108 109 110 111 112 114 113 115 116]</text>
<polyline fill="none" stroke="#0058ad" points="2762,-.5 2762,-29.5 "/>
<text text-anchor="middle" x="2787" y="-11.3" font-family="Times,serif" font-size="14.00" fill="#0058ad">a 70 8</text>
<polyline fill="none" stroke="#0058ad" points="2812,-.5 2812,-29.5 "/>
<text text-anchor="middle" x="2877.5" y="-11.3" font-family="Times,serif" font-size="14.00" fill="#0058ad">r 70 [1 2 3 4 5 6 7 8]</text>
</g>
<!-- T13591&#45;&gt;T13593 -->
<g id="edge2" class="edge">
<title>T13591:f0&#45;&gt;T13593:f2</title>
<path fill="none" stroke="#5b00c0" d="M3021.2493,-405.3761C3077.7549,-386.6401 3166.5,-354.713 3166.5,-339 3166.5,-339 3166.5,-339 3166.5,-96 3166.5,-85.2411 3157.3906,-85.2343 3147.5,-81 3130.6714,-73.7954 2848.6806,-54.3532 2795.9552,-35.7366"/>
<polygon fill="#5b00c0" stroke="#5b00c0" points="2797.7402,-32.7182 2787.5,-30 2793.8101,-38.5108 2797.7402,-32.7182"/>
<text text-anchor="middle" x="3174" y="-213.8" font-family="Times,serif" font-size="14.00" fill="#5b00c0">rw</text>
</g>
<!-- T13599 -->
<g id="node2" class="node">
<title>T13599</title>
<polygon fill="none" stroke="#0058ad" points="916,-243.5 916,-272.5 2921,-272.5 2921,-243.5 916,-243.5"/>
<text text-anchor="middle" x="948" y="-254.3" font-family="Times,serif" font-size="14.00" fill="#0058ad">a 66 109</text>
<polyline fill="none" stroke="#0058ad" points="980,-243.5 980,-272.5 "/>
<text text-anchor="middle" x="1895.5" y="-254.3" font-family="Times,serif" font-size="14.00" fill="#0058ad">r 66 [1 2 3 4 5 6 7 8 9 10 12 11 14 13 16 17 15 18 19 20 21 22 23 24 27 26 28 25 29 30 31 32 33 34 36 35 37 38 39 40 42 44 43 48 49 52 53 57 54 58 59 55 56 60 61 62 63 64 65 67 68 66 70 71 69 72 73 74 75 76 78 77 80 81 82 79 84 83 85 86 87 88 89 90 91 92 93 96 97 94 95 98 99 100 101 102 103 104 105 106 107 108 109]</text>
<polyline fill="none" stroke="#0058ad" points="2811,-243.5 2811,-272.5 "/>
<text text-anchor="middle" x="2866" y="-254.3" font-family="Times,serif" font-size="14.00" fill="#0058ad">r 70 [1 2 3 4 5 6]</text>
</g>
<!-- T13587 -->
<g id="node6" class="node">
<title>T13587</title>
<polygon fill="none" stroke="#0058ad" points="2820.5,-162.5 2820.5,-191.5 2874.5,-191.5 2874.5,-162.5 2820.5,-162.5"/>
<text text-anchor="middle" x="2847.5" y="-173.3" font-family="Times,serif" font-size="14.00" fill="#0058ad">a 70 7</text>
</g>
<!-- T13599&#45;&gt;T13587 -->
<g id="edge3" class="edge">
<title>T13599:f2&#45;&gt;T13587:f0</title>
<path fill="none" stroke="#5b00c0" d="M2866.5,-243C2866.5,-228.7475 2862.3577,-213.4156 2857.9414,-201.1196"/>
<polygon fill="#5b00c0" stroke="#5b00c0" points="2861.128,-199.656 2854.2522,-191.5953 2854.6005,-202.1844 2861.128,-199.656"/>
<text text-anchor="middle" x="2873" y="-213.8" font-family="Times,serif" font-size="14.00" fill="#5b00c0">rw</text>
</g>
<!-- T13595&#45;&gt;T13599 -->
<g id="edge4" class="edge">
<title>T13595:f0&#45;&gt;T13599:f0</title>
<path fill="none" stroke="#5b00c0" d="M947.5,-324.3204C947.5,-313.4532 947.5,-298.0147 947.5,-283.1425"/>
<polygon fill="#5b00c0" stroke="#5b00c0" points="951.0001,-283 947.5,-273 944.0001,-283 951.0001,-283"/>
<text text-anchor="middle" x="955" y="-294.8" font-family="Times,serif" font-size="14.00" fill="#5b00c0">rw</text>
</g>
<!-- T13589 -->
<g id="node4" class="node">
<title>T13589</title>
<polygon fill="none" stroke="#0058ad" points="2776,-81.5 2776,-110.5 3139,-110.5 3139,-81.5 2776,-81.5"/>
<text text-anchor="middle" x="2836.5" y="-92.3" font-family="Times,serif" font-size="14.00" fill="#0058ad">r 70 [1 2 3 4 5 6 7]</text>
<polyline fill="none" stroke="#0058ad" points="2897,-81.5 2897,-110.5 "/>
<text text-anchor="middle" x="2957.5" y="-92.3" font-family="Times,serif" font-size="14.00" fill="#0058ad">r 70 [1 2 3 4 5 6 7]</text>
<polyline fill="none" stroke="#0058ad" points="3018,-81.5 3018,-110.5 "/>
<text text-anchor="middle" x="3078.5" y="-92.3" font-family="Times,serif" font-size="14.00" fill="#0058ad">r 70 [1 2 3 4 5 6 7]</text>
</g>
<!-- T13589&#45;&gt;T13591 -->
<g id="edge6" class="edge">
<title>T13589&#45;&gt;T13591</title>
<path fill="none" stroke="#0050c0" d="M2958.325,-110.8502C2961.1671,-162.0075 2970.5711,-331.2805 2974.1243,-395.2372"/>
<polygon fill="#0050c0" stroke="#0050c0" points="2970.6304,-395.446 2974.6798,-405.2365 2977.6196,-395.0577 2970.6304,-395.446"/>
<text text-anchor="middle" x="2972" y="-254.3" font-family="Times,serif" font-size="14.00" fill="#0050c0">rt</text>
</g>
<!-- T13589&#45;&gt;T13593 -->
<g id="edge5" class="edge">
<title>T13589:f0&#45;&gt;T13593:f2</title>
<path fill="none" stroke="#5b00c0" d="M2836.5,-81C2836.5,-53.4959 2798.9844,-59.1432 2789.6055,-39.9269"/>
<polygon fill="#5b00c0" stroke="#5b00c0" points="2792.9987,-39.0562 2787.5,-30 2786.1511,-40.5086 2792.9987,-39.0562"/>
<text text-anchor="middle" x="2835" y="-51.8" font-family="Times,serif" font-size="14.00" fill="#5b00c0">rw</text>
</g>
<!-- T13593&#45;&gt;T13595 -->
<g id="edge7" class="edge">
<title>T13593&#45;&gt;T13595</title>
<path fill="none" stroke="#0050c0" d="M1197.0277,-29.5241C1045.4255,-41.3934 887.5,-61.9335 887.5,-96 887.5,-258 887.5,-258 887.5,-258 887.5,-281.6117 904.1662,-302.8342 919.9311,-317.6273"/>
<polygon fill="#0050c0" stroke="#0050c0" points="917.716,-320.3409 927.5209,-324.3552 922.3594,-315.1026 917.716,-320.3409"/>
<text text-anchor="middle" x="892" y="-173.3" font-family="Times,serif" font-size="14.00" fill="#0050c0">rt</text>
</g>
<!-- T13587&#45;&gt;T13591 -->
<g id="edge8" class="edge">
<title>T13587:f0&#45;&gt;T13591:f0</title>
<path fill="none" stroke="#c000a5" d="M2873.6474,-191.5362C2873.933,-191.6918 2874.2173,-191.8464 2874.5,-192 2916.9521,-215.066 2945.0269,-201.947 2970.5,-243 2999.8564,-290.3115 2990.1761,-359.2763 2982.0016,-395.5725"/>
<polygon fill="#c000a5" stroke="#c000a5" points="2978.5941,-394.7732 2979.6638,-405.3139 2985.4008,-396.4068 2978.5941,-394.7732"/>
<text text-anchor="middle" x="2997" y="-294.8" font-family="Times,serif" font-size="14.00" fill="#c000a5">wr</text>
</g>
<!-- T13587&#45;&gt;T13589 -->
<g id="edge9" class="edge">
<title>T13587:f0&#45;&gt;T13589:f0</title>
<path fill="none" stroke="#c000a5" d="M2843.6527,-162.4363C2841.0754,-151.6326 2837.9643,-136.2386 2836.8883,-121.2503"/>
<polygon fill="#c000a5" stroke="#c000a5" points="2840.3761,-120.8603 2836.5,-111 2833.3811,-121.1253 2840.3761,-120.8603"/>
<text text-anchor="middle" x="2848" y="-132.8" font-family="Times,serif" font-size="14.00" fill="#c000a5">wr</text>
</g>
<!-- T13587&#45;&gt;T13593 -->
<g id="edge10" class="edge">
<title>T13587:f0&#45;&gt;T13593:f2</title>
<path fill="none" stroke="#c02700" d="M2822.649,-162.4593C2794.1395,-145.5213 2750.7491,-118.8526 2746.5,-111 2740.1546,-99.2734 2742.0716,-93.5764 2746.5,-81 2754.8766,-57.2112 2779.5576,-58.1993 2785.9658,-39.9152"/>
<polygon fill="#c02700" stroke="#c02700" points="2789.4296,-40.4176 2787.5,-30 2782.5119,-39.3472 2789.4296,-40.4176"/>
<text text-anchor="middle" x="2756.5" y="-92.3" font-family="Times,serif" font-size="14.00" fill="#c02700">ww</text>
</g>
</g>
</svg>
