<?xml version="1.0" encoding="UTF-8" standalone="no"?>
<!DOCTYPE svg PUBLIC "-//W3C//DTD SVG 1.1//EN"
 "http://www.w3.org/Graphics/SVG/1.1/DTD/svg11.dtd">
<!-- Generated by graphviz version 2.40.1 (20161225.0304)
 -->
<!-- Title: a_graph Pages: 1 -->
<svg width="4528pt" height="119pt"
 viewBox="0.00 0.00 4527.50 119.00" xmlns="http://www.w3.org/2000/svg" xmlns:xlink="http://www.w3.org/1999/xlink">
<g id="graph0" class="graph" transform="scale(1 1) rotate(0) translate(4 115)">
<title>a_graph</title>
<polygon fill="#ffffff" stroke="transparent" points="-4,4 -4,-115 4523.5,-115 4523.5,4 -4,4"/>
<!-- T7797 -->
<g id="node1" class="node">
<title>T7797</title>
<polygon fill="none" stroke="#0058ad" points="1007.5,-81.5 1007.5,-110.5 4519.5,-110.5 4519.5,-81.5 1007.5,-81.5"/>
<text text-anchor="middle" x="1869.5" y="-92.3" font-family="Times,serif" font-size="14.00" fill="#0058ad">r 41 [3 5 1 6 8 9 10 13 14 16 17 18 15 19 20 21 22 23 24 25 27 28 26 29 30 31 34 32 33 35 36 37 38 40 41 42 39 43 44 46 45 47 48 49 50 51 52 53 54 55 56 57 59 60 61 63 64 62 66 58 68 67 69 70 71 65 73 74 72 76 77 79 80 78 81 82 83 75 84 85 86 87 88 89 90 94 95 91 92 93 96 97 98 99 104 105 100 101]</text>
<polyline fill="none" stroke="#0058ad" points="2731.5,-81.5 2731.5,-110.5 "/>
<text text-anchor="middle" x="2763.5" y="-92.3" font-family="Times,serif" font-size="14.00" fill="#0058ad">a 37 116</text>
<polyline fill="none" stroke="#0058ad" points="2795.5,-81.5 2795.5,-110.5 "/>
<text text-anchor="middle" x="3657.5" y="-92.3" font-family="Times,serif" font-size="14.00" fill="#0058ad">r 41 [3 5 1 6 8 9 10 13 14 16 17 18 15 19 20 21 22 23 24 25 27 28 26 29 30 31 34 32 33 35 36 37 38 40 41 42 39 43 44 46 45 47 48 49 50 51 52 53 54 55 56 57 59 60 61 63 64 62 66 58 68 67 69 70 71 65 73 74 72 76 77 79 80 78 81 82 83 75 84 85 86 87 88 89 90 94 95 91 92 93 96 97 98 99 104 105 100 101]</text>
</g>
<!-- T7799 -->
<g id="node2" class="node">
<title>T7799</title>
<polygon fill="none" stroke="#0058ad" points="0,-.5 0,-29.5 3813,-29.5 3813,-.5 0,-.5"/>
<text text-anchor="middle" x="862" y="-11.3" font-family="Times,serif" font-size="14.00" fill="#0058ad">r 41 [3 5 1 6 8 9 10 13 14 16 17 18 15 19 20 21 22 23 24 25 27 28 26 29 30 31 34 32 33 35 36 37 38 40 41 42 39 43 44 46 45 47 48 49 50 51 52 53 54 55 56 57 59 60 61 63 64 62 66 58 68 67 69 70 71 65 73 74 72 76 77 79 80 78 81 82 83 75 84 85 86 87 88 89 90 94 95 91 92 93 96 97 98 99 104 105 100 101]</text>
<polyline fill="none" stroke="#0058ad" points="1724,-.5 1724,-29.5 "/>
<text text-anchor="middle" x="1756" y="-11.3" font-family="Times,serif" font-size="14.00" fill="#0058ad">a 41 102</text>
<polyline fill="none" stroke="#0058ad" points="1788,-.5 1788,-29.5 "/>
<text text-anchor="middle" x="1820" y="-11.3" font-family="Times,serif" font-size="14.00" fill="#0058ad">a 41 103</text>
<polyline fill="none" stroke="#0058ad" points="1852,-.5 1852,-29.5 "/>
<text text-anchor="middle" x="2832.5" y="-11.3" font-family="Times,serif" font-size="14.00" fill="#0058ad">r 37 [1 2 3 4 5 6 7 8 9 10 11 12 13 14 15 16 17 18 19 21 20 22 23 24 25 26 27 28 29 30 31 32 33 34 35 37 38 36 39 40 41 43 42 44 45 46 47 48 49 51 50 52 53 54 55 58 56 57 59 60 61 62 63 64 65 66 67 68 69 72 70 71 73 74 75 76 77 78 79 80 81 82 83 84 85 86 87 89 90 91 92 93 94 95 98 102 103 104 105 106 107 108 109 110 111 112 113 114 115]</text>
</g>
<!-- T7797&#45;&gt;T7799 -->
<g id="edge1" class="edge">
<title>T7797:f0&#45;&gt;T7799:f1</title>
<path fill="none" stroke="#5b00c0" d="M1869.5,-81C1869.5,-29.397 1770.9677,-77.6377 1757.1115,-40.0753"/>
<polygon fill="#5b00c0" stroke="#5b00c0" points="1760.5356,-39.3217 1755.5,-30 1753.6234,-40.4273 1760.5356,-39.3217"/>
<text text-anchor="middle" x="1870" y="-51.8" font-family="Times,serif" font-size="14.00" fill="#5b00c0">rw</text>
</g>
<!-- T7799&#45;&gt;T7797 -->
<g id="edge2" class="edge">
<title>T7799:f3&#45;&gt;T7797:f1</title>
<path fill="none" stroke="#5b00c0" d="M2832.5,-30C2832.5,-64.1123 2777.2872,-47.4905 2765.6407,-70.9011"/>
<polygon fill="#5b00c0" stroke="#5b00c0" points="2762.1498,-70.4916 2763.5,-81 2768.9977,-71.9432 2762.1498,-70.4916"/>
<text text-anchor="middle" x="2830" y="-51.8" font-family="Times,serif" font-size="14.00" fill="#5b00c0">rw</text>
</g>
</g>
</svg>
