<?xml version="1.0" encoding="UTF-8" standalone="no"?>
<!DOCTYPE svg PUBLIC "-//W3C//DTD SVG 1.1//EN"
 "http://www.w3.org/Graphics/SVG/1.1/DTD/svg11.dtd">
<!-- Generated by graphviz version 2.40.1 (20161225.0304)
 -->
<!-- Title: a_graph Pages: 1 -->
<svg width="3345pt" height="119pt"
 viewBox="0.00 0.00 3344.50 119.00" xmlns="http://www.w3.org/2000/svg" xmlns:xlink="http://www.w3.org/1999/xlink">
<g id="graph0" class="graph" transform="scale(1 1) rotate(0) translate(4 115)">
<title>a_graph</title>
<polygon fill="#ffffff" stroke="transparent" points="-4,4 -4,-115 3340.5,-115 3340.5,4 -4,4"/>
<!-- T8413 -->
<g id="node1" class="node">
<title>T8413</title>
<polygon fill="none" stroke="#0058ad" points="1007.5,-81.5 1007.5,-110.5 3336.5,-110.5 3336.5,-81.5 1007.5,-81.5"/>
<text text-anchor="middle" x="1036" y="-92.3" font-family="Times,serif" font-size="14.00" fill="#0058ad">a 43 88</text>
<polyline fill="none" stroke="#0058ad" points="1064.5,-81.5 1064.5,-110.5 "/>
<text text-anchor="middle" x="1093" y="-92.3" font-family="Times,serif" font-size="14.00" fill="#0058ad">a 42 34</text>
<polyline fill="none" stroke="#0058ad" points="1121.5,-81.5 1121.5,-110.5 "/>
<text text-anchor="middle" x="1830.5" y="-92.3" font-family="Times,serif" font-size="14.00" fill="#0058ad">r 43 [1 2 3 4 5 6 7 8 11 9 10 12 13 14 15 16 17 18 19 20 21 22 23 24 25 26 27 31 28 33 32 34 36 37 38 41 42 44 43 45 47 48 49 46 50 51 52 53 55 54 56 57 58 59 60 61 62 63 64 65 66 67 68 69 70 73 71 72 75 74 76 77 78 79 80 82 83 84 85 86 81 87 88]</text>
<polyline fill="none" stroke="#0058ad" points="2539.5,-81.5 2539.5,-110.5 "/>
<text text-anchor="middle" x="2938" y="-92.3" font-family="Times,serif" font-size="14.00" fill="#0058ad">r 46 [1 2 3 4 7 8 5 6 9 11 12 10 13 14 15 16 17 18 19 20 22 21 23 24 25 26 29 31 27 28 30 32 33 34 35 36 37 38 39 40 42 43 44 45 46 41 47]</text>
</g>
<!-- T8411 -->
<g id="node2" class="node">
<title>T8411</title>
<polygon fill="none" stroke="#0058ad" points="0,-.5 0,-29.5 3052,-29.5 3052,-.5 0,-.5"/>
<text text-anchor="middle" x="398.5" y="-11.3" font-family="Times,serif" font-size="14.00" fill="#0058ad">r 46 [1 2 3 4 7 8 5 6 9 11 12 10 13 14 15 16 17 18 19 20 22 21 23 24 25 26 29 31 27 28 30 32 33 34 35 36 37 38 39 40 42 43 44 45 46 41 47]</text>
<polyline fill="none" stroke="#0058ad" points="797,-.5 797,-29.5 "/>
<text text-anchor="middle" x="1195.5" y="-11.3" font-family="Times,serif" font-size="14.00" fill="#0058ad">r 46 [1 2 3 4 7 8 5 6 9 11 12 10 13 14 15 16 17 18 19 20 22 21 23 24 25 26 29 31 27 28 30 32 33 34 35 36 37 38 39 40 42 43 44 45 46 41 47]</text>
<polyline fill="none" stroke="#0058ad" points="1594,-.5 1594,-29.5 "/>
<text text-anchor="middle" x="1622.5" y="-11.3" font-family="Times,serif" font-size="14.00" fill="#0058ad">a 46 49</text>
<polyline fill="none" stroke="#0058ad" points="1651,-.5 1651,-29.5 "/>
<text text-anchor="middle" x="2351.5" y="-11.3" font-family="Times,serif" font-size="14.00" fill="#0058ad">r 43 [1 2 3 4 5 6 7 8 11 9 10 12 13 14 15 16 17 18 19 20 21 22 23 24 25 26 27 31 28 33 32 34 36 37 38 41 42 44 43 45 47 48 49 46 50 51 52 53 55 54 56 57 58 59 60 61 62 63 64 65 66 67 68 69 70 73 71 72 75 74 76 77 78 79 80 82 83 84 85 86 81 87]</text>
</g>
<!-- T8413&#45;&gt;T8411 -->
<g id="edge1" class="edge">
<title>T8413:f3&#45;&gt;T8411:f2</title>
<path fill="none" stroke="#5b00c0" d="M2938,-81C2938,61.6511 1686.4252,-164.6629 1625.3131,-40.0276"/>
<polygon fill="#5b00c0" stroke="#5b00c0" points="1628.6582,-38.9574 1623,-30 1621.8374,-40.5308 1628.6582,-38.9574"/>
<text text-anchor="middle" x="2931.5" y="-51.8" font-family="Times,serif" font-size="14.00" fill="#5b00c0">rw</text>
</g>
<!-- T8411&#45;&gt;T8413 -->
<g id="edge2" class="edge">
<title>T8411:f3&#45;&gt;T8413:f0</title>
<path fill="none" stroke="#5b00c0" d="M2352,-30C2352,-50.4228 1637.4059,-47.1708 1617,-48 1491.3206,-53.1068 1060.4659,42.8445 1036.9975,-70.9028"/>
<polygon fill="#5b00c0" stroke="#5b00c0" points="1033.5002,-70.7043 1036,-81 1040.4663,-71.3926 1033.5002,-70.7043"/>
<text text-anchor="middle" x="1624.5" y="-51.8" font-family="Times,serif" font-size="14.00" fill="#5b00c0">rw</text>
</g>
</g>
</svg>
