<?xml version="1.0" encoding="UTF-8" standalone="no"?>
<!DOCTYPE svg PUBLIC "-//W3C//DTD SVG 1.1//EN"
 "http://www.w3.org/Graphics/SVG/1.1/DTD/svg11.dtd">
<!-- Generated by graphviz version 2.40.1 (20161225.0304)
 -->
<!-- Title: a_graph Pages: 1 -->
<svg width="3033pt" height="119pt"
 viewBox="0.00 0.00 3033.00 119.00" xmlns="http://www.w3.org/2000/svg" xmlns:xlink="http://www.w3.org/1999/xlink">
<g id="graph0" class="graph" transform="scale(1 1) rotate(0) translate(4 115)">
<title>a_graph</title>
<polygon fill="#ffffff" stroke="transparent" points="-4,4 -4,-115 3029,-115 3029,4 -4,4"/>
<!-- T11191 -->
<g id="node1" class="node">
<title>T11191</title>
<polygon fill="none" stroke="#0058ad" points="1745,-81.5 1745,-110.5 3025,-110.5 3025,-81.5 1745,-81.5"/>
<text text-anchor="middle" x="1777" y="-92.3" font-family="Times,serif" font-size="14.00" fill="#0058ad">a 55 127</text>
<polyline fill="none" stroke="#0058ad" points="1809,-81.5 1809,-110.5 "/>
<text text-anchor="middle" x="2113" y="-92.3" font-family="Times,serif" font-size="14.00" fill="#0058ad">r 58 [1 2 3 4 5 7 6 8 9 10 11 12 13 14 15 17 18 19 16 22 21 24 20 25 27 26 28 29 30 31 32 23 34 35 36 33]</text>
<polyline fill="none" stroke="#0058ad" points="2417,-81.5 2417,-110.5 "/>
<text text-anchor="middle" x="2721" y="-92.3" font-family="Times,serif" font-size="14.00" fill="#0058ad">r 58 [1 2 3 4 5 7 6 8 9 10 11 12 13 14 15 17 18 19 16 22 21 24 20 25 27 26 28 29 30 31 32 23 34 35 36 33]</text>
</g>
<!-- T11189 -->
<g id="node2" class="node">
<title>T11189</title>
<polygon fill="none" stroke="#0058ad" points="0,-.5 0,-29.5 2408,-29.5 2408,-.5 0,-.5"/>
<text text-anchor="middle" x="1147" y="-11.3" font-family="Times,serif" font-size="14.00" fill="#0058ad">r 55 [2 3 4 5 8 10 9 11 12 14 13 15 16 17 18 19 20 21 22 23 25 24 26 27 28 29 30 31 32 33 34 35 36 37 38 39 40 41 42 43 44 45 46 47 48 49 50 51 52 53 54 55 57 58 59 60 56 61 62 63 64 65 66 67 69 70 68 71 73 72 74 75 76 77 78 79 80 81 82 83 84 85 86 87 88 89 90 92 93 94 95 96 97 98 99 100 101 102 103 104 105 106 107 108 109 110 111 113 112 114 115 116 117 118 119 121 120 122 123 124 125 126]</text>
<polyline fill="none" stroke="#0058ad" points="2294,-.5 2294,-29.5 "/>
<text text-anchor="middle" x="2322.5" y="-11.3" font-family="Times,serif" font-size="14.00" fill="#0058ad">a 58 37</text>
<polyline fill="none" stroke="#0058ad" points="2351,-.5 2351,-29.5 "/>
<text text-anchor="middle" x="2379.5" y="-11.3" font-family="Times,serif" font-size="14.00" fill="#0058ad">a 56 30</text>
</g>
<!-- T11191&#45;&gt;T11189 -->
<g id="edge1" class="edge">
<title>T11191:f1&#45;&gt;T11189:f1</title>
<path fill="none" stroke="#5b00c0" d="M2113,-81C2113,11.2945 2306.9142,-115.3853 2322.0637,-40.1982"/>
<polygon fill="#5b00c0" stroke="#5b00c0" points="2325.571,-40.2781 2323,-30 2318.6003,-39.6381 2325.571,-40.2781"/>
<text text-anchor="middle" x="2326.5" y="-51.8" font-family="Times,serif" font-size="14.00" fill="#5b00c0">rw</text>
</g>
<!-- T11189&#45;&gt;T11191 -->
<g id="edge2" class="edge">
<title>T11189:f0&#45;&gt;T11191:f0</title>
<path fill="none" stroke="#5b00c0" d="M1147,-30C1147,-61.5961 1651.514,-92.4345 1734.93,-95.7129"/>
<polygon fill="#5b00c0" stroke="#5b00c0" points="1734.9043,-99.2135 1745,-96 1735.1038,-92.2163 1734.9043,-99.2135"/>
<text text-anchor="middle" x="1306.5" y="-51.8" font-family="Times,serif" font-size="14.00" fill="#5b00c0">rw</text>
</g>
</g>
</svg>
