<?xml version="1.0" encoding="UTF-8" standalone="no"?>
<!DOCTYPE svg PUBLIC "-//W3C//DTD SVG 1.1//EN"
 "http://www.w3.org/Graphics/SVG/1.1/DTD/svg11.dtd">
<!-- Generated by graphviz version 2.40.1 (20161225.0304)
 -->
<!-- Title: a_graph Pages: 1 -->
<svg width="1281pt" height="119pt"
 viewBox="0.00 0.00 1280.50 119.00" xmlns="http://www.w3.org/2000/svg" xmlns:xlink="http://www.w3.org/1999/xlink">
<g id="graph0" class="graph" transform="scale(1 1) rotate(0) translate(4 115)">
<title>a_graph</title>
<polygon fill="#ffffff" stroke="transparent" points="-4,4 -4,-115 1276.5,-115 1276.5,4 -4,4"/>
<!-- T5449 -->
<g id="node1" class="node">
<title>T5449</title>
<polygon fill="none" stroke="#0058ad" points="178.5,-81.5 178.5,-110.5 1272.5,-110.5 1272.5,-81.5 178.5,-81.5"/>
<text text-anchor="middle" x="423.5" y="-92.3" font-family="Times,serif" font-size="14.00" fill="#0058ad">r 31 [2 3 4 5 11 6 7 12 13 14 16 15 17 18 19 20 21 22 23 24 26 25 27 28 29 30 31 32]</text>
<polyline fill="none" stroke="#0058ad" points="668.5,-81.5 668.5,-110.5 "/>
<text text-anchor="middle" x="697" y="-92.3" font-family="Times,serif" font-size="14.00" fill="#0058ad">a 32 44</text>
<polyline fill="none" stroke="#0058ad" points="725.5,-81.5 725.5,-110.5 "/>
<text text-anchor="middle" x="754" y="-92.3" font-family="Times,serif" font-size="14.00" fill="#0058ad">a 32 45</text>
<polyline fill="none" stroke="#0058ad" points="782.5,-81.5 782.5,-110.5 "/>
<text text-anchor="middle" x="1027.5" y="-92.3" font-family="Times,serif" font-size="14.00" fill="#0058ad">r 31 [2 3 4 5 11 6 7 12 13 14 16 15 17 18 19 20 21 22 23 24 26 25 27 28 29 30 31 32]</text>
</g>
<!-- T5445 -->
<g id="node2" class="node">
<title>T5445</title>
<polygon fill="none" stroke="#0058ad" points="0,-.5 0,-29.5 785,-29.5 785,-.5 0,-.5"/>
<text text-anchor="middle" x="364" y="-11.3" font-family="Times,serif" font-size="14.00" fill="#0058ad">r 32 [1 3 4 2 5 6 7 8 9 10 11 12 13 14 15 17 18 19 20 16 21 22 23 24 25 26 27 28 29 30 31 32 37 38 39 34 35 36 33 41 42 43 40]</text>
<polyline fill="none" stroke="#0058ad" points="728,-.5 728,-29.5 "/>
<text text-anchor="middle" x="756.5" y="-11.3" font-family="Times,serif" font-size="14.00" fill="#0058ad">a 31 33</text>
</g>
<!-- T5449&#45;&gt;T5445 -->
<g id="edge1" class="edge">
<title>T5449:f0&#45;&gt;T5445:f1</title>
<path fill="none" stroke="#5b00c0" d="M423.5,-81C423.5,-.9778 521.3716,-59.9268 600.5,-48 615.2598,-45.7753 718.9315,-46.9532 748.5908,-36.4165"/>
<polygon fill="#5b00c0" stroke="#5b00c0" points="750.9392,-39.0183 756.5,-30 746.5291,-33.5822 750.9392,-39.0183"/>
<text text-anchor="middle" x="608" y="-51.8" font-family="Times,serif" font-size="14.00" fill="#5b00c0">rw</text>
</g>
<!-- T5445&#45;&gt;T5449 -->
<g id="edge2" class="edge">
<title>T5445:f0&#45;&gt;T5449:f1</title>
<path fill="none" stroke="#5b00c0" d="M363.5,-30C363.5,-58.0713 588.1621,-41.6252 615.5,-48 649.5125,-55.9312 687.7912,-44.8704 695.2157,-70.7329"/>
<polygon fill="#5b00c0" stroke="#5b00c0" points="691.7858,-71.5118 696.5,-81 698.7316,-70.6429 691.7858,-71.5118"/>
<text text-anchor="middle" x="698" y="-51.8" font-family="Times,serif" font-size="14.00" fill="#5b00c0">rw</text>
</g>
</g>
</svg>
