<?xml version="1.0" encoding="UTF-8" standalone="no"?>
<!DOCTYPE svg PUBLIC "-//W3C//DTD SVG 1.1//EN"
 "http://www.w3.org/Graphics/SVG/1.1/DTD/svg11.dtd">
<!-- Generated by graphviz version 2.40.1 (20161225.0304)
 -->
<!-- Title: a_graph Pages: 1 -->
<svg width="3109pt" height="119pt"
 viewBox="0.00 0.00 3108.50 119.00" xmlns="http://www.w3.org/2000/svg" xmlns:xlink="http://www.w3.org/1999/xlink">
<g id="graph0" class="graph" transform="scale(1 1) rotate(0) translate(4 115)">
<title>a_graph</title>
<polygon fill="#ffffff" stroke="transparent" points="-4,4 -4,-115 3104.5,-115 3104.5,4 -4,4"/>
<!-- T12123 -->
<g id="node1" class="node">
<title>T12123</title>
<polygon fill="none" stroke="#0058ad" points="1314.5,-81.5 1314.5,-110.5 3100.5,-110.5 3100.5,-81.5 1314.5,-81.5"/>
<text text-anchor="middle" x="1343" y="-92.3" font-family="Times,serif" font-size="14.00" fill="#0058ad">a 62 59</text>
<polyline fill="none" stroke="#0058ad" points="1371.5,-81.5 1371.5,-110.5 "/>
<text text-anchor="middle" x="1400" y="-92.3" font-family="Times,serif" font-size="14.00" fill="#0058ad">a 62 60</text>
<polyline fill="none" stroke="#0058ad" points="1428.5,-81.5 1428.5,-110.5 "/>
<text text-anchor="middle" x="1492.5" y="-92.3" font-family="Times,serif" font-size="14.00" fill="#0058ad">r 63 [4 3 5 6 7 8 10]</text>
<polyline fill="none" stroke="#0058ad" points="1556.5,-81.5 1556.5,-110.5 "/>
<text text-anchor="middle" x="2328.5" y="-92.3" font-family="Times,serif" font-size="14.00" fill="#0058ad">r 4 [1 2 3 4 5 6 7 17 18 19 20 22 23 24 25 26 27 28 29 30 31 32 33 34 35 36 37 38 39 40 41 42 44 45 46 47 48 49 50 51 52 53 54 55 56 57 58 59 60 61 62 63 64 66 67 68 69 70 71 72 73 74 75 76 77 78 79 80 82 83 84 85 86 97 98 99 100 101 102 103 104 105 106 107 108 109]</text>
</g>
<!-- T12125 -->
<g id="node2" class="node">
<title>T12125</title>
<polygon fill="none" stroke="#0058ad" points="0,-.5 0,-29.5 1875,-29.5 1875,-.5 0,-.5"/>
<text text-anchor="middle" x="442" y="-11.3" font-family="Times,serif" font-size="14.00" fill="#0058ad">r 62 [1 2 3 4 5 6 8 7 10 11 12 9 16 13 14 15 17 18 19 20 21 22 26 27 28 29 30 25 23 24 31 32 33 35 36 37 39 41 42 44 45 46 47 43 50 53 54 52 55 56 57 58]</text>
<polyline fill="none" stroke="#0058ad" points="884,-.5 884,-29.5 "/>
<text text-anchor="middle" x="1326" y="-11.3" font-family="Times,serif" font-size="14.00" fill="#0058ad">r 62 [1 2 3 4 5 6 8 7 10 11 12 9 16 13 14 15 17 18 19 20 21 22 26 27 28 29 30 25 23 24 31 32 33 35 36 37 39 41 42 44 45 46 47 43 50 53 54 52 55 56 57 58]</text>
<polyline fill="none" stroke="#0058ad" points="1768,-.5 1768,-29.5 "/>
<text text-anchor="middle" x="1793" y="-11.3" font-family="Times,serif" font-size="14.00" fill="#0058ad">a 63 9</text>
<polyline fill="none" stroke="#0058ad" points="1818,-.5 1818,-29.5 "/>
<text text-anchor="middle" x="1846.5" y="-11.3" font-family="Times,serif" font-size="14.00" fill="#0058ad">a 56 54</text>
</g>
<!-- T12123&#45;&gt;T12125 -->
<g id="edge1" class="edge">
<title>T12123:f2&#45;&gt;T12125:f2</title>
<path fill="none" stroke="#5b00c0" d="M1492.5,-81C1492.5,51.1068 1777.8362,-154.311 1792.8832,-40.0033"/>
<polygon fill="#5b00c0" stroke="#5b00c0" points="1796.3779,-40.1965 1793.5,-30 1789.3912,-39.7656 1796.3779,-40.1965"/>
<text text-anchor="middle" x="1797" y="-51.8" font-family="Times,serif" font-size="14.00" fill="#5b00c0">rw</text>
</g>
<!-- T12125&#45;&gt;T12123 -->
<g id="edge2" class="edge">
<title>T12125:f0&#45;&gt;T12123:f0</title>
<path fill="none" stroke="#5b00c0" d="M441.5,-30C441.5,-76.596 1198.0817,-94.4867 1304.3876,-95.9071"/>
<polygon fill="#5b00c0" stroke="#5b00c0" points="1304.4682,-99.4079 1314.5,-96 1304.5326,-92.4082 1304.4682,-99.4079"/>
<text text-anchor="middle" x="588" y="-51.8" font-family="Times,serif" font-size="14.00" fill="#5b00c0">rw</text>
</g>
</g>
</svg>
