<?xml version="1.0" encoding="UTF-8" standalone="no"?>
<!DOCTYPE svg PUBLIC "-//W3C//DTD SVG 1.1//EN"
 "http://www.w3.org/Graphics/SVG/1.1/DTD/svg11.dtd">
<!-- Generated by graphviz version 2.40.1 (20161225.0304)
 -->
<!-- Title: a_graph Pages: 1 -->
<svg width="2674pt" height="119pt"
 viewBox="0.00 0.00 2674.00 119.00" xmlns="http://www.w3.org/2000/svg" xmlns:xlink="http://www.w3.org/1999/xlink">
<g id="graph0" class="graph" transform="scale(1 1) rotate(0) translate(4 115)">
<title>a_graph</title>
<polygon fill="#ffffff" stroke="transparent" points="-4,4 -4,-115 2670,-115 2670,4 -4,4"/>
<!-- T522 -->
<g id="node1" class="node">
<title>T522</title>
<polygon fill="none" stroke="#0058ad" points="737,-81.5 737,-110.5 2249,-110.5 2249,-81.5 737,-81.5"/>
<text text-anchor="middle" x="762" y="-92.3" font-family="Times,serif" font-size="14.00" fill="#0058ad">a 8 84</text>
<polyline fill="none" stroke="#0058ad" points="787,-81.5 787,-110.5 "/>
<text text-anchor="middle" x="1099.5" y="-92.3" font-family="Times,serif" font-size="14.00" fill="#0058ad">r 10 [1 2 3 4 5 6 7 8 9 10 11 12 13 14 15 16 17 18 19 20 21 22 24 25 26 27 29 28 30 31 32 33 34 35 36 37 23]</text>
<polyline fill="none" stroke="#0058ad" points="1412,-81.5 1412,-110.5 "/>
<text text-anchor="middle" x="1437" y="-92.3" font-family="Times,serif" font-size="14.00" fill="#0058ad">a 8 85</text>
<polyline fill="none" stroke="#0058ad" points="1462,-81.5 1462,-110.5 "/>
<text text-anchor="middle" x="1855.5" y="-92.3" font-family="Times,serif" font-size="14.00" fill="#0058ad">r 7 [3 4 5 6 7 9 10 8 11 12 13 14 15 16 17 19 18 20 21 22 24 23 25 26 28 27 30 29 31 32 33 34 35 36 39 43 44 45 46 47 48 49 50 51 52 53]</text>
</g>
<!-- T519 -->
<g id="node2" class="node">
<title>T519</title>
<polygon fill="none" stroke="#0058ad" points="0,-.5 0,-29.5 2666,-29.5 2666,-.5 0,-.5"/>
<text text-anchor="middle" x="638" y="-11.3" font-family="Times,serif" font-size="14.00" fill="#0058ad">r 8 [9 10 11 12 14 15 16 13 17 18 19 20 21 22 23 24 25 26 27 29 30 28 31 32 33 34 35 36 37 38 39 40 41 42 43 44 45 46 47 48 49 50 51 52 53 54 55 56 57 58 60 59 61 62 65 67 68 69 70 71 72 73 74 75 76 77 78 79 80 81 82 83]</text>
<polyline fill="none" stroke="#0058ad" points="1276,-.5 1276,-29.5 "/>
<text text-anchor="middle" x="1304.5" y="-11.3" font-family="Times,serif" font-size="14.00" fill="#0058ad">a 10 39</text>
<polyline fill="none" stroke="#0058ad" points="1333,-.5 1333,-29.5 "/>
<text text-anchor="middle" x="1971" y="-11.3" font-family="Times,serif" font-size="14.00" fill="#0058ad">r 8 [9 10 11 12 14 15 16 13 17 18 19 20 21 22 23 24 25 26 27 29 30 28 31 32 33 34 35 36 37 38 39 40 41 42 43 44 45 46 47 48 49 50 51 52 53 54 55 56 57 58 60 59 61 62 65 67 68 69 70 71 72 73 74 75 76 77 78 79 80 81 82 83]</text>
<polyline fill="none" stroke="#0058ad" points="2609,-.5 2609,-29.5 "/>
<text text-anchor="middle" x="2637.5" y="-11.3" font-family="Times,serif" font-size="14.00" fill="#0058ad">a 10 40</text>
</g>
<!-- T522&#45;&gt;T519 -->
<g id="edge1" class="edge">
<title>T522:f1&#45;&gt;T519:f1</title>
<path fill="none" stroke="#5b00c0" d="M1099,-81C1099,9.2208 1288.2972,-113.5546 1303.086,-39.9741"/>
<polygon fill="#5b00c0" stroke="#5b00c0" points="1306.5728,-40.2777 1304,-30 1299.602,-39.6389 1306.5728,-40.2777"/>
<text text-anchor="middle" x="1308.5" y="-51.8" font-family="Times,serif" font-size="14.00" fill="#5b00c0">rw</text>
</g>
<!-- T519&#45;&gt;T522 -->
<g id="edge2" class="edge">
<title>T519:f0&#45;&gt;T522:f0</title>
<path fill="none" stroke="#5b00c0" d="M638,-30C638,-79.473 678.3652,-94.1437 726.8697,-95.8294"/>
<polygon fill="#5b00c0" stroke="#5b00c0" points="726.9424,-99.331 737,-96 727.0604,-92.332 726.9424,-99.331"/>
<text text-anchor="middle" x="653.5" y="-51.8" font-family="Times,serif" font-size="14.00" fill="#5b00c0">rw</text>
</g>
</g>
</svg>
