<?xml version="1.0" encoding="UTF-8" standalone="no"?>
<!DOCTYPE svg PUBLIC "-//W3C//DTD SVG 1.1//EN"
 "http://www.w3.org/Graphics/SVG/1.1/DTD/svg11.dtd">
<!-- Generated by graphviz version 2.40.1 (20161225.0304)
 -->
<!-- Title: a_graph Pages: 1 -->
<svg width="1628pt" height="119pt"
 viewBox="0.00 0.00 1627.50 119.00" xmlns="http://www.w3.org/2000/svg" xmlns:xlink="http://www.w3.org/1999/xlink">
<g id="graph0" class="graph" transform="scale(1 1) rotate(0) translate(4 115)">
<title>a_graph</title>
<polygon fill="#ffffff" stroke="transparent" points="-4,4 -4,-115 1623.5,-115 1623.5,4 -4,4"/>
<!-- T4941 -->
<g id="node1" class="node">
<title>T4941</title>
<polygon fill="none" stroke="#0058ad" points="351.5,-81.5 351.5,-110.5 1619.5,-110.5 1619.5,-81.5 351.5,-81.5"/>
<text text-anchor="middle" x="380" y="-92.3" font-family="Times,serif" font-size="14.00" fill="#0058ad">a 30 11</text>
<polyline fill="none" stroke="#0058ad" points="408.5,-81.5 408.5,-110.5 "/>
<text text-anchor="middle" x="1014" y="-92.3" font-family="Times,serif" font-size="14.00" fill="#0058ad">r 27 [1 2 3 4 5 6 7 8 9 10 11 13 14 12 15 16 17 18 19 20 21 22 23 24 25 26 27 28 32 33 34 35 36 38 39 37 40 41 42 43 44 46 49 51 52 53 54 56 57 58 59 60 55 63 61 62 64 65 67 66 68 69 70 71 72 73 74 75 76 77 78]</text>
</g>
<!-- T4939 -->
<g id="node2" class="node">
<title>T4939</title>
<polygon fill="none" stroke="#0058ad" points="0,-.5 0,-29.5 1445,-29.5 1445,-.5 0,-.5"/>
<text text-anchor="middle" x="28.5" y="-11.3" font-family="Times,serif" font-size="14.00" fill="#0058ad">a 27 79</text>
<polyline fill="none" stroke="#0058ad" points="57,-.5 57,-29.5 "/>
<text text-anchor="middle" x="671.5" y="-11.3" font-family="Times,serif" font-size="14.00" fill="#0058ad">r 27 [1 2 3 4 5 6 7 8 9 10 11 13 14 12 15 16 17 18 19 20 21 22 23 24 25 26 27 28 32 33 34 35 36 38 39 37 40 41 42 43 44 46 49 51 52 53 54 56 57 58 59 60 55 63 61 62 64 65 67 66 68 69 70 71 72 73 74 75 76 77 78 79]</text>
<polyline fill="none" stroke="#0058ad" points="1286,-.5 1286,-29.5 "/>
<text text-anchor="middle" x="1365.5" y="-11.3" font-family="Times,serif" font-size="14.00" fill="#0058ad">r 30 [1 2 4 5 3 6 8 9 10 7]</text>
</g>
<!-- T4941&#45;&gt;T4939 -->
<g id="edge1" class="edge">
<title>T4941:f1&#45;&gt;T4939:f0</title>
<path fill="none" stroke="#5b00c0" d="M1014.5,-81C1014.5,22.8149 652.171,-53.4633 548.5,-48 535.2509,-47.3018 108.1397,-44.8966 38.1559,-33.3266"/>
<polygon fill="#5b00c0" stroke="#5b00c0" points="39.0947,-29.9482 28.5,-30 36.8146,-36.5665 39.0947,-29.9482"/>
<text text-anchor="middle" x="1015" y="-51.8" font-family="Times,serif" font-size="14.00" fill="#5b00c0">rw</text>
</g>
<!-- T4939&#45;&gt;T4941 -->
<g id="edge2" class="edge">
<title>T4939:f2&#45;&gt;T4941:f0</title>
<path fill="none" stroke="#5b00c0" d="M1365.5,-30C1365.5,-53.2276 552.5632,-45.2415 529.5,-48 465.4287,-55.6632 388.4498,-17.3284 380.2219,-70.7758"/>
<polygon fill="#5b00c0" stroke="#5b00c0" points="376.7131,-70.7783 379.5,-81 383.6957,-71.2714 376.7131,-70.7783"/>
<text text-anchor="middle" x="537" y="-51.8" font-family="Times,serif" font-size="14.00" fill="#5b00c0">rw</text>
</g>
</g>
</svg>
