<?xml version="1.0" encoding="UTF-8" standalone="no"?>
<!DOCTYPE svg PUBLIC "-//W3C//DTD SVG 1.1//EN"
 "http://www.w3.org/Graphics/SVG/1.1/DTD/svg11.dtd">
<!-- Generated by graphviz version 2.40.1 (20161225.0304)
 -->
<!-- Title: a_graph Pages: 1 -->
<svg width="1733pt" height="200pt"
 viewBox="0.00 0.00 1733.00 200.00" xmlns="http://www.w3.org/2000/svg" xmlns:xlink="http://www.w3.org/1999/xlink">
<g id="graph0" class="graph" transform="scale(1 1) rotate(0) translate(4 196)">
<title>a_graph</title>
<polygon fill="#ffffff" stroke="transparent" points="-4,4 -4,-196 1729,-196 1729,4 -4,4"/>
<!-- T14727 -->
<g id="node1" class="node">
<title>T14727</title>
<polygon fill="none" stroke="#0058ad" points="653.5,-162.5 653.5,-191.5 943.5,-191.5 943.5,-162.5 653.5,-162.5"/>
<text text-anchor="middle" x="741.5" y="-173.3" font-family="Times,serif" font-size="14.00" fill="#0058ad">r 77 [1 2 3 4 5 6 7 8 9 10 11]</text>
<polyline fill="none" stroke="#0058ad" points="829.5,-162.5 829.5,-191.5 "/>
<text text-anchor="middle" x="858" y="-173.3" font-family="Times,serif" font-size="14.00" fill="#0058ad">a 73 39</text>
<polyline fill="none" stroke="#0058ad" points="886.5,-162.5 886.5,-191.5 "/>
<text text-anchor="middle" x="915" y="-173.3" font-family="Times,serif" font-size="14.00" fill="#0058ad">a 75 99</text>
</g>
<!-- T14721 -->
<g id="node3" class="node">
<title>T14721</title>
<polygon fill="none" stroke="#0058ad" points="794,-81.5 794,-110.5 851,-110.5 851,-81.5 794,-81.5"/>
<text text-anchor="middle" x="822.5" y="-92.3" font-family="Times,serif" font-size="14.00" fill="#0058ad">a 77 12</text>
</g>
<!-- T14727&#45;&gt;T14721 -->
<g id="edge1" class="edge">
<title>T14727:f0&#45;&gt;T14721:f0</title>
<path fill="none" stroke="#5b00c0" d="M741.5,-162C741.5,-149.1889 766.1594,-130.4222 788.2661,-116.1722"/>
<polygon fill="#5b00c0" stroke="#5b00c0" points="790.2692,-119.0471 796.8711,-110.7607 786.5426,-113.1215 790.2692,-119.0471"/>
<text text-anchor="middle" x="776" y="-132.8" font-family="Times,serif" font-size="14.00" fill="#5b00c0">rw</text>
</g>
<!-- T14723 -->
<g id="node2" class="node">
<title>T14723</title>
<polygon fill="none" stroke="#0058ad" points="0,-.5 0,-29.5 1725,-29.5 1725,-.5 0,-.5"/>
<text text-anchor="middle" x="862.5" y="-11.3" font-family="Times,serif" font-size="14.00" fill="#0058ad">r 75 [2 3 4 5 7 6 10 11 12 8 9 1 13 14 15 16 17 18 19 20 21 23 24 25 26 22 27 28 30 31 29 32 33 34 35 37 36 38 39 40 41 42 43 44 46 45 49 51 52 53 54 50 55 56 57 58 59 60 47 48 61 63 64 62 65 68 66 67 70 69 71 72 73 74 76 75 78 79 80 81 77 83 84 82 86 87 88 89 85 90 91 92 95 93 94 96 97 98 100 101]</text>
</g>
<!-- T14723&#45;&gt;T14727 -->
<g id="edge2" class="edge">
<title>T14723:f0&#45;&gt;T14727:f2</title>
<path fill="none" stroke="#5b00c0" d="M871.7319,-29.8098C885.9084,-53.9125 911.7629,-103.774 915.1342,-151.7915"/>
<polygon fill="#5b00c0" stroke="#5b00c0" points="911.644,-152.1318 915.5,-162 918.6395,-151.881 911.644,-152.1318"/>
<text text-anchor="middle" x="915" y="-92.3" font-family="Times,serif" font-size="14.00" fill="#5b00c0">rw</text>
</g>
<!-- T14721&#45;&gt;T14723 -->
<g id="edge3" class="edge">
<title>T14721&#45;&gt;T14723</title>
<path fill="none" stroke="#0050c0" d="M829.8366,-81.1434C835.6443,-69.3828 843.8721,-52.7216 850.6167,-39.0637"/>
<polygon fill="#0050c0" stroke="#0050c0" points="853.9202,-40.2785 855.2099,-29.7625 847.6438,-37.179 853.9202,-40.2785"/>
<text text-anchor="middle" x="851" y="-51.8" font-family="Times,serif" font-size="14.00" fill="#0050c0">rt</text>
</g>
</g>
</svg>
