<?xml version="1.0" encoding="UTF-8" standalone="no"?>
<!DOCTYPE svg PUBLIC "-//W3C//DTD SVG 1.1//EN"
 "http://www.w3.org/Graphics/SVG/1.1/DTD/svg11.dtd">
<!-- Generated by graphviz version 2.40.1 (20161225.0304)
 -->
<!-- Title: a_graph Pages: 1 -->
<svg width="3687pt" height="119pt"
 viewBox="0.00 0.00 3686.50 119.00" xmlns="http://www.w3.org/2000/svg" xmlns:xlink="http://www.w3.org/1999/xlink">
<g id="graph0" class="graph" transform="scale(1 1) rotate(0) translate(4 115)">
<title>a_graph</title>
<polygon fill="#ffffff" stroke="transparent" points="-4,4 -4,-115 3682.5,-115 3682.5,4 -4,4"/>
<!-- T11257 -->
<g id="node1" class="node">
<title>T11257</title>
<polygon fill="none" stroke="#0058ad" points="0,-81.5 0,-110.5 3204,-110.5 3204,-81.5 0,-81.5"/>
<text text-anchor="middle" x="1104" y="-92.3" font-family="Times,serif" font-size="14.00" fill="#0058ad">r 55 [1 2 3 4 5 6 8 9 10 12 11 16 17 18 19 14 20 22 23 24 25 26 27 28 29 30 31 34 32 33 35 36 37 38 39 40 41 42 43 44 45 46 47 48 49 50 51 52 53 54 55 56 57 58 59 60 61 62 63 64 65 66 67 68 69 70 71 72 73 74 75 76 77 78 79 80 81 82 83 84 85 86 87 88 89 90 91 92 93 94 95 96 97 98 99 100 101 102 103 104 105 106 107 108 109 111 110 112 113 115 116 114 117 118 119 120 121 122 123]</text>
<polyline fill="none" stroke="#0058ad" points="2208,-81.5 2208,-110.5 "/>
<text text-anchor="middle" x="2598" y="-92.3" font-family="Times,serif" font-size="14.00" fill="#0058ad">r 59 [1 2 3 4 5 6 7 9 8 10 11 12 13 14 15 16 17 18 19 20 21 22 23 25 24 26 27 28 29 30 31 32 33 34 36 37 38 35 39 40 41 42 44 46 45 43]</text>
<polyline fill="none" stroke="#0058ad" points="2988,-81.5 2988,-110.5 "/>
<text text-anchor="middle" x="3016.5" y="-92.3" font-family="Times,serif" font-size="14.00" fill="#0058ad">a 59 47</text>
<polyline fill="none" stroke="#0058ad" points="3045,-81.5 3045,-110.5 "/>
<text text-anchor="middle" x="3124.5" y="-92.3" font-family="Times,serif" font-size="14.00" fill="#0058ad">r 60 [3 2 4 5 6 1 7 8 9 10]</text>
</g>
<!-- T11255 -->
<g id="node2" class="node">
<title>T11255</title>
<polygon fill="none" stroke="#0058ad" points="2841.5,-.5 2841.5,-29.5 3678.5,-29.5 3678.5,-.5 2841.5,-.5"/>
<text text-anchor="middle" x="2870" y="-11.3" font-family="Times,serif" font-size="14.00" fill="#0058ad">a 60 11</text>
<polyline fill="none" stroke="#0058ad" points="2898.5,-.5 2898.5,-29.5 "/>
<text text-anchor="middle" x="3288.5" y="-11.3" font-family="Times,serif" font-size="14.00" fill="#0058ad">r 59 [1 2 3 4 5 6 7 9 8 10 11 12 13 14 15 16 17 18 19 20 21 22 23 25 24 26 27 28 29 30 31 32 33 34 36 37 38 35 39 40 41 42 44 46 45 43]</text>
</g>
<!-- T11257&#45;&gt;T11255 -->
<g id="edge1" class="edge">
<title>T11257:f3&#45;&gt;T11255:f0</title>
<path fill="none" stroke="#5b00c0" d="M3125,-81C3125,-52.8733 3097.7083,-56.8192 3071,-48 3052.3695,-41.8481 2912.4518,-49.8482 2877.7634,-36.9228"/>
<polygon fill="#5b00c0" stroke="#5b00c0" points="2879.793,-34.0432 2870,-30 2875.1342,-39.2677 2879.793,-34.0432"/>
<text text-anchor="middle" x="3124.5" y="-51.8" font-family="Times,serif" font-size="14.00" fill="#5b00c0">rw</text>
</g>
<!-- T11255&#45;&gt;T11257 -->
<g id="edge2" class="edge">
<title>T11255:f1&#45;&gt;T11257:f2</title>
<path fill="none" stroke="#5b00c0" d="M3289,-30C3289,-56.4092 3076.1579,-37.3304 3052,-48 3036.1099,-55.0181 3022.9357,-58.3031 3018.5541,-70.7557"/>
<polygon fill="#5b00c0" stroke="#5b00c0" points="3015.0395,-70.5881 3017,-81 3021.9603,-71.6381 3015.0395,-70.5881"/>
<text text-anchor="middle" x="3059.5" y="-51.8" font-family="Times,serif" font-size="14.00" fill="#5b00c0">rw</text>
</g>
</g>
</svg>
