<?xml version="1.0" encoding="UTF-8" standalone="no"?>
<!DOCTYPE svg PUBLIC "-//W3C//DTD SVG 1.1//EN"
 "http://www.w3.org/Graphics/SVG/1.1/DTD/svg11.dtd">
<!-- Generated by graphviz version 2.40.1 (20161225.0304)
 -->
<!-- Title: a_graph Pages: 1 -->
<svg width="1868pt" height="119pt"
 viewBox="0.00 0.00 1867.50 119.00" xmlns="http://www.w3.org/2000/svg" xmlns:xlink="http://www.w3.org/1999/xlink">
<g id="graph0" class="graph" transform="scale(1 1) rotate(0) translate(4 115)">
<title>a_graph</title>
<polygon fill="#ffffff" stroke="transparent" points="-4,4 -4,-115 1863.5,-115 1863.5,4 -4,4"/>
<!-- T4537 -->
<g id="node1" class="node">
<title>T4537</title>
<polygon fill="none" stroke="#0058ad" points="121.5,-81.5 121.5,-110.5 1859.5,-110.5 1859.5,-81.5 121.5,-81.5"/>
<text text-anchor="middle" x="150" y="-92.3" font-family="Times,serif" font-size="14.00" fill="#0058ad">a 23 99</text>
<polyline fill="none" stroke="#0058ad" points="178.5,-81.5 178.5,-110.5 "/>
<text text-anchor="middle" x="741" y="-92.3" font-family="Times,serif" font-size="14.00" fill="#0058ad">r 27 [1 2 3 4 5 6 7 8 9 10 13 14 15 16 18 17 20 19 21 22 23 24 26 27 28 25 33 35 32 37 38 39 36 41 42 43 44 45 46 48 49 50 51 52 47 53 54 55 56 57 58 59 60 61 62 63 64 65 66 67 68 69 70 71 72 73]</text>
<polyline fill="none" stroke="#0058ad" points="1303.5,-81.5 1303.5,-110.5 "/>
<text text-anchor="middle" x="1581.5" y="-92.3" font-family="Times,serif" font-size="14.00" fill="#0058ad">r 28 [1 2 3 4 5 6 7 8 9 10 11 12 13 14 15 16 17 18 20 21 22 23 24 25 19 26 27 28 29 30 31 32 33]</text>
</g>
<!-- T4535 -->
<g id="node2" class="node">
<title>T4535</title>
<polygon fill="none" stroke="#0058ad" points="0,-.5 0,-29.5 1665,-29.5 1665,-.5 0,-.5"/>
<text text-anchor="middle" x="28.5" y="-11.3" font-family="Times,serif" font-size="14.00" fill="#0058ad">a 27 74</text>
<polyline fill="none" stroke="#0058ad" points="57,-.5 57,-29.5 "/>
<text text-anchor="middle" x="861" y="-11.3" font-family="Times,serif" font-size="14.00" fill="#0058ad">r 23 [1 2 3 4 5 6 9 7 8 10 11 12 13 15 14 16 17 18 19 20 23 21 22 24 25 26 27 28 29 30 31 32 33 34 35 36 38 39 42 43 45 44 47 48 46 49 50 51 52 54 53 55 56 57 58 59 60 61 62 63 64 65 66 67 68 69 70 71 72 73 74 75 76 78 79 80 81 82 83 84 86 85 87 88 89 90 91 93 94 95 96 92 97 98]</text>
</g>
<!-- T4537&#45;&gt;T4535 -->
<g id="edge1" class="edge">
<title>T4537:f1&#45;&gt;T4535:f0</title>
<path fill="none" stroke="#5b00c0" d="M740.5,-81C740.5,15.5013 403.7633,-54.7733 307.5,-48 293.731,-47.0312 84.0974,-45.8354 37.5919,-34.6804"/>
<polygon fill="#5b00c0" stroke="#5b00c0" points="38.993,-31.4652 28.5,-30 35.7891,-37.6889 38.993,-31.4652"/>
<text text-anchor="middle" x="741" y="-51.8" font-family="Times,serif" font-size="14.00" fill="#5b00c0">rw</text>
</g>
<!-- T4535&#45;&gt;T4537 -->
<g id="edge2" class="edge">
<title>T4535:f1&#45;&gt;T4537:f0</title>
<path fill="none" stroke="#5b00c0" d="M861.5,-30C861.5,-45.9245 304.2855,-45.9001 288.5,-48 229.2474,-55.8821 158.3682,-21.8977 150.2654,-70.863"/>
<polygon fill="#5b00c0" stroke="#5b00c0" points="146.763,-70.7648 149.5,-81 153.7431,-71.292 146.763,-70.7648"/>
<text text-anchor="middle" x="296" y="-51.8" font-family="Times,serif" font-size="14.00" fill="#5b00c0">rw</text>
</g>
</g>
</svg>
