<?xml version="1.0" encoding="UTF-8" standalone="no"?>
<!DOCTYPE svg PUBLIC "-//W3C//DTD SVG 1.1//EN"
 "http://www.w3.org/Graphics/SVG/1.1/DTD/svg11.dtd">
<!-- Generated by graphviz version 2.40.1 (20161225.0304)
 -->
<!-- Title: a_graph Pages: 1 -->
<svg width="1516pt" height="200pt"
 viewBox="0.00 0.00 1515.50 200.00" xmlns="http://www.w3.org/2000/svg" xmlns:xlink="http://www.w3.org/1999/xlink">
<g id="graph0" class="graph" transform="scale(1 1) rotate(0) translate(4 196)">
<title>a_graph</title>
<polygon fill="#ffffff" stroke="transparent" points="-4,4 -4,-196 1511.5,-196 1511.5,4 -4,4"/>
<!-- T18899 -->
<g id="node1" class="node">
<title>T18899</title>
<polygon fill="none" stroke="#0058ad" points="312,-162.5 312,-191.5 1097,-191.5 1097,-162.5 312,-162.5"/>
<text text-anchor="middle" x="340.5" y="-173.3" font-family="Times,serif" font-size="14.00" fill="#0058ad">a 97 57</text>
<polyline fill="none" stroke="#0058ad" points="369,-162.5 369,-191.5 "/>
<text text-anchor="middle" x="733" y="-173.3" font-family="Times,serif" font-size="14.00" fill="#0058ad">r 95 [1 3 2 4 5 6 7 8 9 10 11 14 12 15 13 16 17 18 19 20 21 22 25 23 24 27 26 28 29 30 31 32 34 33 36 35 37 38 39 40 41 42 43]</text>
</g>
<!-- T18893 -->
<g id="node2" class="node">
<title>T18893</title>
<polygon fill="none" stroke="#0058ad" points="579.5,-81.5 579.5,-110.5 1507.5,-110.5 1507.5,-81.5 579.5,-81.5"/>
<text text-anchor="middle" x="608" y="-92.3" font-family="Times,serif" font-size="14.00" fill="#0058ad">a 68 59</text>
<polyline fill="none" stroke="#0058ad" points="636.5,-81.5 636.5,-110.5 "/>
<text text-anchor="middle" x="665" y="-92.3" font-family="Times,serif" font-size="14.00" fill="#0058ad">a 95 44</text>
<polyline fill="none" stroke="#0058ad" points="693.5,-81.5 693.5,-110.5 "/>
<text text-anchor="middle" x="727.5" y="-92.3" font-family="Times,serif" font-size="14.00" fill="#0058ad">r 96 [1 2]</text>
<polyline fill="none" stroke="#0058ad" points="761.5,-81.5 761.5,-110.5 "/>
<text text-anchor="middle" x="1134.5" y="-92.3" font-family="Times,serif" font-size="14.00" fill="#0058ad">r 95 [1 3 2 4 5 6 7 8 9 10 11 14 12 15 13 16 17 18 19 20 21 22 25 23 24 27 26 28 29 30 31 32 34 33 36 35 37 38 39 40 41 42 43 44]</text>
</g>
<!-- T18899&#45;&gt;T18893 -->
<g id="edge1" class="edge">
<title>T18899:f1&#45;&gt;T18893:f1</title>
<path fill="none" stroke="#5b00c0" d="M733.5,-162C733.5,-127.8877 678.2872,-144.5095 666.6407,-121.0989"/>
<polygon fill="#5b00c0" stroke="#5b00c0" points="669.9977,-120.0568 664.5,-111 663.1498,-121.5084 669.9977,-120.0568"/>
<text text-anchor="middle" x="730" y="-132.8" font-family="Times,serif" font-size="14.00" fill="#5b00c0">rw</text>
</g>
<!-- T18895 -->
<g id="node3" class="node">
<title>T18895</title>
<polygon fill="none" stroke="#0058ad" points="0,-.5 0,-29.5 987,-29.5 987,-.5 0,-.5"/>
<text text-anchor="middle" x="493.5" y="-11.3" font-family="Times,serif" font-size="14.00" fill="#0058ad">r 97 [1 2 3 4 5 6 7 8 9 10 11 12 14 15 13 16 17 18 19 21 22 23 25 24 27 26 28 29 20 31 32 33 34 36 37 35 38 39 41 30 40 42 45 46 43 44 47 48 49 52 50 51 53 54 55 56 58 59]</text>
</g>
<!-- T18893&#45;&gt;T18895 -->
<g id="edge2" class="edge">
<title>T18893&#45;&gt;T18895</title>
<path fill="none" stroke="#0050c0" d="M944.8536,-81.4721C848.4695,-67.2773 702.0939,-45.7202 602.3567,-31.0316"/>
<polygon fill="#0050c0" stroke="#0050c0" points="602.653,-27.5376 592.2497,-29.5431 601.633,-34.4629 602.653,-27.5376"/>
<text text-anchor="middle" x="822" y="-51.8" font-family="Times,serif" font-size="14.00" fill="#0050c0">rt</text>
</g>
<!-- T18895&#45;&gt;T18899 -->
<g id="edge3" class="edge">
<title>T18895:f0&#45;&gt;T18899:f0</title>
<path fill="none" stroke="#5b00c0" d="M459.1638,-29.5459C416.4331,-50.088 348.1786,-91.8956 341.0987,-151.8235"/>
<polygon fill="#5b00c0" stroke="#5b00c0" points="337.5934,-151.8117 340.5,-162 344.5813,-152.2228 337.5934,-151.8117"/>
<text text-anchor="middle" x="388" y="-92.3" font-family="Times,serif" font-size="14.00" fill="#5b00c0">rw</text>
</g>
</g>
</svg>
