<?xml version="1.0" encoding="UTF-8" standalone="no"?>
<!DOCTYPE svg PUBLIC "-//W3C//DTD SVG 1.1//EN"
 "http://www.w3.org/Graphics/SVG/1.1/DTD/svg11.dtd">
<!-- Generated by graphviz version 2.40.1 (20161225.0304)
 -->
<!-- Title: a_graph Pages: 1 -->
<svg width="5717pt" height="119pt"
 viewBox="0.00 0.00 5717.00 119.00" xmlns="http://www.w3.org/2000/svg" xmlns:xlink="http://www.w3.org/1999/xlink">
<g id="graph0" class="graph" transform="scale(1 1) rotate(0) translate(4 115)">
<title>a_graph</title>
<polygon fill="#ffffff" stroke="transparent" points="-4,4 -4,-115 5713,-115 5713,4 -4,4"/>
<!-- T3993 -->
<g id="node1" class="node">
<title>T3993</title>
<polygon fill="none" stroke="#0058ad" points="0,-81.5 0,-110.5 5709,-110.5 5709,-81.5 0,-81.5"/>
<text text-anchor="middle" x="930.5" y="-92.3" font-family="Times,serif" font-size="14.00" fill="#0058ad">r 25 [1 2 3 4 5 9 8 6 7 10 11 12 13 14 15 16 17 18 19 20 24 26 27 28 29 30 31 32 34 35 36 22 23 37 38 40 41 42 44 48 49 50 53 55 39 58 56 62 63 60 65 64 67 68 69 70 71 73 74 75 76 77 78 79 80 81 82 83 84 85 86 87 88 90 72 91 92 89 93 94 97 98 99 100 95 96 103 101 104 105 106 108 107 102 109 110 112 111 113 114 115 116]</text>
<polyline fill="none" stroke="#0058ad" points="1861,-81.5 1861,-110.5 "/>
<text text-anchor="middle" x="2807" y="-92.3" font-family="Times,serif" font-size="14.00" fill="#0058ad">r 21 [1 2 3 4 5 6 7 8 9 10 12 13 11 15 16 21 23 24 18 19 25 26 27 28 29 30 31 32 33 34 35 36 37 38 39 40 41 42 43 45 46 44 48 49 50 47 51 52 53 54 56 57 55 58 59 60 62 61 63 65 66 64 67 68 69 70 71 72 73 74 75 76 77 78 79 80 81 82 83 84 85 87 88 92 91 94 95 96 97 99 100 101 102 103 104 98 106 105 107 108 109 110 111 112 113]</text>
<polyline fill="none" stroke="#0058ad" points="3753,-81.5 3753,-110.5 "/>
<text text-anchor="middle" x="4699" y="-92.3" font-family="Times,serif" font-size="14.00" fill="#0058ad">r 21 [1 2 3 4 5 6 7 8 9 10 12 13 11 15 16 21 23 24 18 19 25 26 27 28 29 30 31 32 33 34 35 36 37 38 39 40 41 42 43 45 46 44 48 49 50 47 51 52 53 54 56 57 55 58 59 60 62 61 63 65 66 64 67 68 69 70 71 72 73 74 75 76 77 78 79 80 81 82 83 84 85 87 88 92 91 94 95 96 97 99 100 101 102 103 104 98 106 105 107 108 109 110 111 112 113]</text>
<polyline fill="none" stroke="#0058ad" points="5645,-81.5 5645,-110.5 "/>
<text text-anchor="middle" x="5677" y="-92.3" font-family="Times,serif" font-size="14.00" fill="#0058ad">a 25 117</text>
</g>
<!-- T3995 -->
<g id="node2" class="node">
<title>T3995</title>
<polygon fill="none" stroke="#0058ad" points="2830.5,-.5 2830.5,-29.5 5552.5,-29.5 5552.5,-.5 2830.5,-.5"/>
<text text-anchor="middle" x="3761" y="-11.3" font-family="Times,serif" font-size="14.00" fill="#0058ad">r 25 [1 2 3 4 5 9 8 6 7 10 11 12 13 14 15 16 17 18 19 20 24 26 27 28 29 30 31 32 34 35 36 22 23 37 38 40 41 42 44 48 49 50 53 55 39 58 56 62 63 60 65 64 67 68 69 70 71 73 74 75 76 77 78 79 80 81 82 83 84 85 86 87 88 90 72 91 92 89 93 94 97 98 99 100 95 96 103 101 104 105 106 108 107 102 109 110 112 111 113 114 115 116]</text>
<polyline fill="none" stroke="#0058ad" points="4691.5,-.5 4691.5,-29.5 "/>
<text text-anchor="middle" x="4723.5" y="-11.3" font-family="Times,serif" font-size="14.00" fill="#0058ad">a 21 114</text>
<polyline fill="none" stroke="#0058ad" points="4755.5,-.5 4755.5,-29.5 "/>
<text text-anchor="middle" x="5154" y="-11.3" font-family="Times,serif" font-size="14.00" fill="#0058ad">r 23 [1 2 3 4 5 6 9 7 8 10 11 12 13 15 14 16 17 18 19 20 23 21 22 24 25 26 27 28 29 30 31 32 33 34 35 36 38 39 42 43 45 44 47 48 46 49 50]</text>
</g>
<!-- T3993&#45;&gt;T3995 -->
<g id="edge1" class="edge">
<title>T3993:f1&#45;&gt;T3995:f1</title>
<path fill="none" stroke="#5b00c0" d="M2806.5,-81C2806.5,128.538 4660.378,-230.7813 4721.9325,-40.1312"/>
<polygon fill="#5b00c0" stroke="#5b00c0" points="4725.4297,-40.4176 4723.5,-30 4718.5121,-39.3472 4725.4297,-40.4176"/>
<text text-anchor="middle" x="4722" y="-51.8" font-family="Times,serif" font-size="14.00" fill="#5b00c0">rw</text>
</g>
<!-- T3995&#45;&gt;T3993 -->
<g id="edge2" class="edge">
<title>T3995:f0&#45;&gt;T3993:f3</title>
<path fill="none" stroke="#5b00c0" d="M3760.5,-30C3760.5,-43.5162 4719.9886,-47.6389 4733.5,-48 4834.932,-50.7109 5622.5889,19.0741 5674.7824,-71.1306"/>
<polygon fill="#5b00c0" stroke="#5b00c0" points="5671.4708,-72.288 5677.5,-81 5678.2196,-70.4296 5671.4708,-72.288"/>
<text text-anchor="middle" x="5669" y="-51.8" font-family="Times,serif" font-size="14.00" fill="#5b00c0">rw</text>
</g>
</g>
</svg>
