<?xml version="1.0" encoding="UTF-8" standalone="no"?>
<!DOCTYPE svg PUBLIC "-//W3C//DTD SVG 1.1//EN"
 "http://www.w3.org/Graphics/SVG/1.1/DTD/svg11.dtd">
<!-- Generated by graphviz version 2.40.1 (20161225.0304)
 -->
<!-- Title: a_graph Pages: 1 -->
<svg width="1373pt" height="119pt"
 viewBox="0.00 0.00 1372.50 119.00" xmlns="http://www.w3.org/2000/svg" xmlns:xlink="http://www.w3.org/1999/xlink">
<g id="graph0" class="graph" transform="scale(1 1) rotate(0) translate(4 115)">
<title>a_graph</title>
<polygon fill="#ffffff" stroke="transparent" points="-4,4 -4,-115 1368.5,-115 1368.5,4 -4,4"/>
<!-- T2527 -->
<g id="node1" class="node">
<title>T2527</title>
<polygon fill="none" stroke="#0058ad" points="0,-81.5 0,-110.5 1017,-110.5 1017,-81.5 0,-81.5"/>
<text text-anchor="middle" x="183" y="-92.3" font-family="Times,serif" font-size="14.00" fill="#0058ad">r 18 [1 2 4 3 5 6 7 8 9 10 11 12 14 15 16 13 17 18 19 20 21 22]</text>
<polyline fill="none" stroke="#0058ad" points="366,-81.5 366,-110.5 "/>
<text text-anchor="middle" x="549" y="-92.3" font-family="Times,serif" font-size="14.00" fill="#0058ad">r 18 [1 2 4 3 5 6 7 8 9 10 11 12 14 15 16 13 17 18 19 20 21 22]</text>
<polyline fill="none" stroke="#0058ad" points="732,-81.5 732,-110.5 "/>
<text text-anchor="middle" x="760.5" y="-92.3" font-family="Times,serif" font-size="14.00" fill="#0058ad">a 15 71</text>
<polyline fill="none" stroke="#0058ad" points="789,-81.5 789,-110.5 "/>
<text text-anchor="middle" x="903" y="-92.3" font-family="Times,serif" font-size="14.00" fill="#0058ad">r 19 [1 3 4 5 6 2 7 8 9 10 11 12 13 14]</text>
</g>
<!-- T2525 -->
<g id="node2" class="node">
<title>T2525</title>
<polygon fill="none" stroke="#0058ad" points="526.5,-.5 526.5,-29.5 1364.5,-29.5 1364.5,-.5 526.5,-.5"/>
<text text-anchor="middle" x="555" y="-11.3" font-family="Times,serif" font-size="14.00" fill="#0058ad">a 19 15</text>
<polyline fill="none" stroke="#0058ad" points="583.5,-.5 583.5,-29.5 "/>
<text text-anchor="middle" x="612" y="-11.3" font-family="Times,serif" font-size="14.00" fill="#0058ad">a 19 16</text>
<polyline fill="none" stroke="#0058ad" points="640.5,-.5 640.5,-29.5 "/>
<text text-anchor="middle" x="772" y="-11.3" font-family="Times,serif" font-size="14.00" fill="#0058ad">r 19 [1 3 4 5 6 2 7 8 9 10 11 12 13 14 15 16]</text>
<polyline fill="none" stroke="#0058ad" points="903.5,-.5 903.5,-29.5 "/>
<text text-anchor="middle" x="1134" y="-11.3" font-family="Times,serif" font-size="14.00" fill="#0058ad">r 15 [44 43 47 49 51 52 53 56 55 54 57 59 58 60 61 62 63 64 65 66 67 68 69 70]</text>
</g>
<!-- T2527&#45;&gt;T2525 -->
<g id="edge1" class="edge">
<title>T2527:f3&#45;&gt;T2525:f0</title>
<path fill="none" stroke="#5b00c0" d="M903.5,-81C903.5,-45.799 865.6299,-56.6177 831.5,-48 804.5162,-41.1867 600.6896,-57.1261 561.1371,-37.6438"/>
<polygon fill="#5b00c0" stroke="#5b00c0" points="563.6991,-35.2561 554.5,-30 558.4136,-39.8456 563.6991,-35.2561"/>
<text text-anchor="middle" x="905" y="-51.8" font-family="Times,serif" font-size="14.00" fill="#5b00c0">rw</text>
</g>
<!-- T2525&#45;&gt;T2527 -->
<g id="edge2" class="edge">
<title>T2525:f3&#45;&gt;T2527:f2</title>
<path fill="none" stroke="#5b00c0" d="M1134.5,-30C1134.5,-47.9168 829.5592,-42.523 812.5,-48 790.3067,-55.1254 768.2031,-54.1964 762.1301,-70.6664"/>
<polygon fill="#5b00c0" stroke="#5b00c0" points="758.6011,-70.5767 760.5,-81 765.5156,-71.6676 758.6011,-70.5767"/>
<text text-anchor="middle" x="820" y="-51.8" font-family="Times,serif" font-size="14.00" fill="#5b00c0">rw</text>
</g>
</g>
</svg>
