<?xml version="1.0" encoding="UTF-8" standalone="no"?>
<!DOCTYPE svg PUBLIC "-//W3C//DTD SVG 1.1//EN"
 "http://www.w3.org/Graphics/SVG/1.1/DTD/svg11.dtd">
<!-- Generated by graphviz version 2.40.1 (20161225.0304)
 -->
<!-- Title: a_graph Pages: 1 -->
<svg width="3834pt" height="119pt"
 viewBox="0.00 0.00 3834.00 119.00" xmlns="http://www.w3.org/2000/svg" xmlns:xlink="http://www.w3.org/1999/xlink">
<g id="graph0" class="graph" transform="scale(1 1) rotate(0) translate(4 115)">
<title>a_graph</title>
<polygon fill="#ffffff" stroke="transparent" points="-4,4 -4,-115 3830,-115 3830,4 -4,4"/>
<!-- T6357 -->
<g id="node1" class="node">
<title>T6357</title>
<polygon fill="none" stroke="#0058ad" points="0,-81.5 0,-110.5 3826,-110.5 3826,-81.5 0,-81.5"/>
<text text-anchor="middle" x="32" y="-92.3" font-family="Times,serif" font-size="14.00" fill="#0058ad">a 33 120</text>
<polyline fill="none" stroke="#0058ad" points="64,-81.5 64,-110.5 "/>
<text text-anchor="middle" x="903" y="-92.3" font-family="Times,serif" font-size="14.00" fill="#0058ad">r 5 [1 2 3 4 6 5 7 8 9 10 11 12 13 14 15 42 43 44 45 46 47 48 49 50 51 52 53 54 55 56 57 58 59 60 61 62 63 64 65 66 67 68 69 70 71 72 73 74 75 76 77 78 79 80 81 82 83 84 85 86 87 88 90 91 92 93 94 95 96 97 98 99 100 102 103 104 105 107 106 108 109 110 111 112 113 114 115 116 117 118 119]</text>
<polyline fill="none" stroke="#0058ad" points="1742,-81.5 1742,-110.5 "/>
<text text-anchor="middle" x="1774" y="-92.3" font-family="Times,serif" font-size="14.00" fill="#0058ad">a 33 121</text>
<polyline fill="none" stroke="#0058ad" points="1806,-81.5 1806,-110.5 "/>
<text text-anchor="middle" x="2816" y="-92.3" font-family="Times,serif" font-size="14.00" fill="#0058ad">r 24 [1 2 3 4 5 6 7 8 9 10 11 12 13 14 15 16 17 18 19 20 21 24 23 22 25 26 27 28 29 30 32 31 33 34 35 36 37 39 40 41 42 43 44 45 46 47 48 49 50 51 52 53 54 55 56 57 58 59 60 61 62 63 64 65 66 67 68 69 70 71 72 73 74 75 76 77 78 79 80 81 82 83 84 85 86 87 88 89 90 91 92 93 95 96 97 98 99 100 101 102 103 104 105 106 107 108 109 110 111 112 114 113]</text>
</g>
<!-- T6361 -->
<g id="node2" class="node">
<title>T6361</title>
<polygon fill="none" stroke="#0058ad" points="847,-.5 847,-29.5 3027,-29.5 3027,-.5 847,-.5"/>
<text text-anchor="middle" x="879" y="-11.3" font-family="Times,serif" font-size="14.00" fill="#0058ad">a 24 115</text>
<polyline fill="none" stroke="#0058ad" points="911,-.5 911,-29.5 "/>
<text text-anchor="middle" x="1969" y="-11.3" font-family="Times,serif" font-size="14.00" fill="#0058ad">r 33 [2 3 1 4 5 6 7 9 10 11 8 13 14 12 16 17 15 18 20 21 19 22 23 24 25 26 27 28 29 30 31 32 33 34 35 36 37 38 39 40 41 42 43 45 44 46 49 50 51 52 53 54 55 57 58 59 60 56 61 62 63 64 65 67 66 69 68 71 72 73 70 74 75 76 77 78 79 80 81 82 83 84 85 86 87 88 89 90 91 93 94 92 95 96 97 98 99 100 101 102 103 104 105 106 107 109 108 110 111 113 112 115 114 117 118 119]</text>
</g>
<!-- T6357&#45;&gt;T6361 -->
<g id="edge1" class="edge">
<title>T6357:f3&#45;&gt;T6361:f0</title>
<path fill="none" stroke="#5b00c0" d="M2816,-81C2816,130.8277 940.9199,-233.2183 880.4925,-39.949"/>
<polygon fill="#5b00c0" stroke="#5b00c0" points="883.9449,-39.37 879,-30 877.0224,-40.4086 883.9449,-39.37"/>
<text text-anchor="middle" x="2813.5" y="-51.8" font-family="Times,serif" font-size="14.00" fill="#5b00c0">rw</text>
</g>
<!-- T6361&#45;&gt;T6357 -->
<g id="edge2" class="edge">
<title>T6361:f1&#45;&gt;T6357:f0</title>
<path fill="none" stroke="#5b00c0" d="M1969,-30C1969,-45.2798 884.2739,-47.574 869,-48 779.4164,-50.4986 86.3197,7.511 35.0023,-71.2706"/>
<polygon fill="#5b00c0" stroke="#5b00c0" points="31.6042,-70.4126 32,-81 38.293,-72.4766 31.6042,-70.4126"/>
<text text-anchor="middle" x="876.5" y="-51.8" font-family="Times,serif" font-size="14.00" fill="#5b00c0">rw</text>
</g>
</g>
</svg>
