<?xml version="1.0" encoding="UTF-8" standalone="no"?>
<!DOCTYPE svg PUBLIC "-//W3C//DTD SVG 1.1//EN"
 "http://www.w3.org/Graphics/SVG/1.1/DTD/svg11.dtd">
<!-- Generated by graphviz version 2.40.1 (20161225.0304)
 -->
<!-- Title: a_graph Pages: 1 -->
<svg width="2182pt" height="281pt"
 viewBox="0.00 0.00 2182.00 281.00" xmlns="http://www.w3.org/2000/svg" xmlns:xlink="http://www.w3.org/1999/xlink">
<g id="graph0" class="graph" transform="scale(1 1) rotate(0) translate(4 277)">
<title>a_graph</title>
<polygon fill="#ffffff" stroke="transparent" points="-4,4 -4,-277 2178,-277 2178,4 -4,4"/>
<!-- T19739 -->
<g id="node1" class="node">
<title>T19739</title>
<polygon fill="none" stroke="#0058ad" points="1616,-243.5 1616,-272.5 1890,-272.5 1890,-243.5 1616,-243.5"/>
<text text-anchor="middle" x="1664" y="-254.3" font-family="Times,serif" font-size="14.00" fill="#0058ad">r 102 [1 4 3 2]</text>
<polyline fill="none" stroke="#0058ad" points="1712,-243.5 1712,-272.5 "/>
<text text-anchor="middle" x="1740.5" y="-254.3" font-family="Times,serif" font-size="14.00" fill="#0058ad">a 101 4</text>
<polyline fill="none" stroke="#0058ad" points="1769,-243.5 1769,-272.5 "/>
<text text-anchor="middle" x="1797.5" y="-254.3" font-family="Times,serif" font-size="14.00" fill="#0058ad">a 99 43</text>
<polyline fill="none" stroke="#0058ad" points="1826,-243.5 1826,-272.5 "/>
<text text-anchor="middle" x="1858" y="-254.3" font-family="Times,serif" font-size="14.00" fill="#0058ad">a 100 60</text>
</g>
<!-- T19737 -->
<g id="node4" class="node">
<title>T19737</title>
<polygon fill="none" stroke="#0058ad" points="0,-162.5 0,-191.5 1692,-191.5 1692,-162.5 0,-162.5"/>
<text text-anchor="middle" x="338.5" y="-173.3" font-family="Times,serif" font-size="14.00" fill="#0058ad">r 99 [1 2 3 4 5 7 8 6 9 10 11 13 16 17 18 19 20 22 23 24 21 25 26 28 27 29 30 31 32 33 34 35 36 37 38 39 40 42 41 44]</text>
<polyline fill="none" stroke="#0058ad" points="677,-162.5 677,-191.5 "/>
<text text-anchor="middle" x="720" y="-173.3" font-family="Times,serif" font-size="14.00" fill="#0058ad">r 101 [1 2 3]</text>
<polyline fill="none" stroke="#0058ad" points="763,-162.5 763,-191.5 "/>
<text text-anchor="middle" x="1199" y="-173.3" font-family="Times,serif" font-size="14.00" fill="#0058ad">r 100 [1 6 7 8 14 16 18 19 20 22 21 17 23 24 26 25 27 29 30 31 32 33 34 35 28 37 38 39 36 41 40 42 43 45 44 46 47 48 49 51 50 52 53 56 57 58 55 54 59]</text>
<polyline fill="none" stroke="#0058ad" points="1635,-162.5 1635,-191.5 "/>
<text text-anchor="middle" x="1663.5" y="-173.3" font-family="Times,serif" font-size="14.00" fill="#0058ad">a 102 5</text>
</g>
<!-- T19739&#45;&gt;T19737 -->
<g id="edge1" class="edge">
<title>T19739:f0&#45;&gt;T19737:f3</title>
<path fill="none" stroke="#5b00c0" d="M1664,-243C1664,-224.2292 1664,-217.1168 1664,-202.3535"/>
<polygon fill="#5b00c0" stroke="#5b00c0" points="1667.5001,-202 1664,-192 1660.5001,-202 1667.5001,-202"/>
<text text-anchor="middle" x="1671.5" y="-213.8" font-family="Times,serif" font-size="14.00" fill="#5b00c0">rw</text>
</g>
<!-- T19733 -->
<g id="node2" class="node">
<title>T19733</title>
<polygon fill="none" stroke="#0058ad" points="815.5,-81.5 815.5,-110.5 1826.5,-110.5 1826.5,-81.5 815.5,-81.5"/>
<text text-anchor="middle" x="847.5" y="-92.3" font-family="Times,serif" font-size="14.00" fill="#0058ad">a 100 61</text>
<polyline fill="none" stroke="#0058ad" points="879.5,-81.5 879.5,-110.5 "/>
<text text-anchor="middle" x="1324.5" y="-92.3" font-family="Times,serif" font-size="14.00" fill="#0058ad">r 100 [1 6 7 8 14 16 18 19 20 22 21 17 23 24 26 25 27 29 30 31 32 33 34 35 28 37 38 39 36 41 40 42 43 45 44 46 47 48 49 51 50 52 53 56 57 58 55 54 59 61]</text>
<polyline fill="none" stroke="#0058ad" points="1769.5,-81.5 1769.5,-110.5 "/>
<text text-anchor="middle" x="1798" y="-92.3" font-family="Times,serif" font-size="14.00" fill="#0058ad">a 99 45</text>
</g>
<!-- T19733&#45;&gt;T19739 -->
<g id="edge3" class="edge">
<title>T19733:f2&#45;&gt;T19739:f2</title>
<path fill="none" stroke="#c02700" d="M1798,-111C1798,-166.1146 1798,-182.396 1798,-232.8081"/>
<polygon fill="#c02700" stroke="#c02700" points="1794.5001,-233 1798,-243 1801.5001,-233 1794.5001,-233"/>
<text text-anchor="middle" x="1808" y="-173.3" font-family="Times,serif" font-size="14.00" fill="#c02700">ww</text>
</g>
<!-- T19735 -->
<g id="node3" class="node">
<title>T19735</title>
<polygon fill="none" stroke="#0058ad" points="1480,-.5 1480,-29.5 2174,-29.5 2174,-.5 1480,-.5"/>
<text text-anchor="middle" x="1827" y="-11.3" font-family="Times,serif" font-size="14.00" fill="#0058ad">r 99 [1 2 3 4 5 7 8 6 9 10 11 13 16 17 18 19 20 22 23 24 21 25 26 28 27 29 30 31 32 33 34 35 36 37 38 39 40 42 41 44 45]</text>
</g>
<!-- T19733&#45;&gt;T19735 -->
<g id="edge2" class="edge">
<title>T19733:f2&#45;&gt;T19735:f0</title>
<path fill="none" stroke="#c000a5" d="M1798,-81C1798,-65.9401 1804.407,-50.4561 1811.1979,-38.2739"/>
<polygon fill="#c000a5" stroke="#c000a5" points="1814.2207,-40.0387 1816.3661,-29.6633 1808.2188,-36.4362 1814.2207,-40.0387"/>
<text text-anchor="middle" x="1812.5" y="-51.8" font-family="Times,serif" font-size="14.00" fill="#c000a5">wr</text>
</g>
<!-- T19735&#45;&gt;T19739 -->
<g id="edge4" class="edge">
<title>T19735:f0&#45;&gt;T19739:f2</title>
<path fill="none" stroke="#5b00c0" d="M1829.5734,-29.6213C1831.7822,-42.957 1834.7941,-63.2317 1836,-81 1839.3669,-130.6101 1833.4663,-143.6159 1822,-192 1818.466,-206.9123 1819.0448,-211.3899 1812,-225 1809.525,-229.7816 1805.7285,-231.7025 1802.7131,-233.9722"/>
<polygon fill="#5b00c0" stroke="#5b00c0" points="1799.5254,-232.5155 1798,-243 1805.7306,-235.7551 1799.5254,-232.5155"/>
<text text-anchor="middle" x="1842.5" y="-132.8" font-family="Times,serif" font-size="14.00" fill="#5b00c0">rw</text>
</g>
<!-- T19737&#45;&gt;T19739 -->
<g id="edge6" class="edge">
<title>T19737:f1&#45;&gt;T19739:f1</title>
<path fill="none" stroke="#5b00c0" d="M720,-192C720,-218.7547 1657.2271,-202.8188 1683,-210 1707.4534,-216.8136 1732.3602,-214.6129 1738.5448,-232.9979"/>
<polygon fill="#5b00c0" stroke="#5b00c0" points="1735.0966,-233.6081 1740,-243 1742.0237,-232.6002 1735.0966,-233.6081"/>
<text text-anchor="middle" x="1740.5" y="-213.8" font-family="Times,serif" font-size="14.00" fill="#5b00c0">rw</text>
</g>
<!-- T19737&#45;&gt;T19733 -->
<g id="edge5" class="edge">
<title>T19737:f2&#45;&gt;T19733:f0</title>
<path fill="none" stroke="#5b00c0" d="M1199,-162C1199,-7.4726 862.6349,-257.3802 847.5248,-121.0208"/>
<polygon fill="#5b00c0" stroke="#5b00c0" points="851.0183,-120.8032 847,-111 844.0278,-121.1694 851.0183,-120.8032"/>
<text text-anchor="middle" x="1203.5" y="-132.8" font-family="Times,serif" font-size="14.00" fill="#5b00c0">rw</text>
</g>
</g>
</svg>
