<?xml version="1.0" encoding="UTF-8" standalone="no"?>
<!DOCTYPE svg PUBLIC "-//W3C//DTD SVG 1.1//EN"
 "http://www.w3.org/Graphics/SVG/1.1/DTD/svg11.dtd">
<!-- Generated by graphviz version 2.40.1 (20161225.0304)
 -->
<!-- Title: a_graph Pages: 1 -->
<svg width="1743pt" height="119pt"
 viewBox="0.00 0.00 1743.00 119.00" xmlns="http://www.w3.org/2000/svg" xmlns:xlink="http://www.w3.org/1999/xlink">
<g id="graph0" class="graph" transform="scale(1 1) rotate(0) translate(4 115)">
<title>a_graph</title>
<polygon fill="#ffffff" stroke="transparent" points="-4,4 -4,-115 1739,-115 1739,4 -4,4"/>
<!-- T6731 -->
<g id="node1" class="node">
<title>T6731</title>
<polygon fill="none" stroke="#0058ad" points="0,-81.5 0,-110.5 1735,-110.5 1735,-81.5 0,-81.5"/>
<text text-anchor="middle" x="25" y="-92.3" font-family="Times,serif" font-size="14.00" fill="#0058ad">a 38 9</text>
<polyline fill="none" stroke="#0058ad" points="50,-81.5 50,-110.5 "/>
<text text-anchor="middle" x="457" y="-92.3" font-family="Times,serif" font-size="14.00" fill="#0058ad">r 36 [1 2 6 9 10 11 13 14 12 15 16 17 18 19 20 21 22 23 24 25 26 27 28 29 30 31 32 33 34 35 36 37 38 39 41 40 42 44 43 45 46 47 48 49 51 50]</text>
<polyline fill="none" stroke="#0058ad" points="864,-81.5 864,-110.5 "/>
<text text-anchor="middle" x="1271" y="-92.3" font-family="Times,serif" font-size="14.00" fill="#0058ad">r 36 [1 2 6 9 10 11 13 14 12 15 16 17 18 19 20 21 22 23 24 25 26 27 28 29 30 31 32 33 34 35 36 37 38 39 41 40 42 44 43 45 46 47 48 49 51 50]</text>
<polyline fill="none" stroke="#0058ad" points="1678,-81.5 1678,-110.5 "/>
<text text-anchor="middle" x="1706.5" y="-92.3" font-family="Times,serif" font-size="14.00" fill="#0058ad">a 37 45</text>
</g>
<!-- T6729 -->
<g id="node2" class="node">
<title>T6729</title>
<polygon fill="none" stroke="#0058ad" points="508,-.5 508,-29.5 1311,-29.5 1311,-.5 508,-.5"/>
<text text-anchor="middle" x="881" y="-11.3" font-family="Times,serif" font-size="14.00" fill="#0058ad">r 37 [1 2 3 5 7 8 6 4 10 9 11 13 12 14 15 16 18 19 17 22 21 20 23 26 24 25 27 28 29 30 33 34 31 32 35 37 38 39 40 41 36 42 43 44]</text>
<polyline fill="none" stroke="#0058ad" points="1254,-.5 1254,-29.5 "/>
<text text-anchor="middle" x="1282.5" y="-11.3" font-family="Times,serif" font-size="14.00" fill="#0058ad">a 36 52</text>
</g>
<!-- T6731&#45;&gt;T6729 -->
<g id="edge1" class="edge">
<title>T6731:f1&#45;&gt;T6729:f1</title>
<path fill="none" stroke="#5b00c0" d="M456.5,-81C456.5,99.3132 1250.5495,-201.7207 1281.567,-40.2101"/>
<polygon fill="#5b00c0" stroke="#5b00c0" points="1285.0754,-40.277 1282.5,-30 1278.1045,-39.64 1285.0754,-40.277"/>
<text text-anchor="middle" x="1286" y="-51.8" font-family="Times,serif" font-size="14.00" fill="#5b00c0">rw</text>
</g>
<!-- T6729&#45;&gt;T6731 -->
<g id="edge2" class="edge">
<title>T6729:f0&#45;&gt;T6731:f3</title>
<path fill="none" stroke="#5b00c0" d="M880.5,-30C880.5,-53.1882 1274.3561,-46.5673 1297.5,-48 1384.955,-53.4138 1682.0034,5.3044 1705.0768,-71.0105"/>
<polygon fill="#5b00c0" stroke="#5b00c0" points="1701.6245,-71.5936 1706.5,-81 1708.5545,-70.6063 1701.6245,-71.5936"/>
<text text-anchor="middle" x="1708" y="-51.8" font-family="Times,serif" font-size="14.00" fill="#5b00c0">rw</text>
</g>
</g>
</svg>
