<?xml version="1.0" encoding="UTF-8" standalone="no"?>
<!DOCTYPE svg PUBLIC "-//W3C//DTD SVG 1.1//EN"
 "http://www.w3.org/Graphics/SVG/1.1/DTD/svg11.dtd">
<!-- Generated by graphviz version 2.40.1 (20161225.0304)
 -->
<!-- Title: a_graph Pages: 1 -->
<svg width="4065pt" height="119pt"
 viewBox="0.00 0.00 4065.00 119.00" xmlns="http://www.w3.org/2000/svg" xmlns:xlink="http://www.w3.org/1999/xlink">
<g id="graph0" class="graph" transform="scale(1 1) rotate(0) translate(4 115)">
<title>a_graph</title>
<polygon fill="#ffffff" stroke="transparent" points="-4,4 -4,-115 4061,-115 4061,4 -4,4"/>
<!-- T4795 -->
<g id="node1" class="node">
<title>T4795</title>
<polygon fill="none" stroke="#0058ad" points="0,-81.5 0,-110.5 3935,-110.5 3935,-81.5 0,-81.5"/>
<text text-anchor="middle" x="896.5" y="-92.3" font-family="Times,serif" font-size="14.00" fill="#0058ad">r 28 [1 2 3 4 5 6 7 8 9 10 11 12 13 14 15 16 17 18 20 21 22 23 24 25 19 26 27 28 29 30 31 32 33 34 35 37 36 38 39 40 41 42 43 44 46 47 48 49 45 50 51 52 53 54 55 56 57 58 60 61 62 59 63 64 65 66 67 68 69 70 72 73 71 75 76 77 74 79 80 78 81 84 85 82 83 86 88 89 90 94 95 96 97 98 99 100 101 103 104 102 106 107]</text>
<polyline fill="none" stroke="#0058ad" points="1793,-81.5 1793,-110.5 "/>
<text text-anchor="middle" x="2832" y="-92.3" font-family="Times,serif" font-size="14.00" fill="#0058ad">r 27 [1 2 3 4 5 6 7 8 9 10 13 14 15 16 18 17 20 19 21 22 23 24 26 27 28 25 33 35 32 37 38 39 36 41 42 43 44 45 46 48 49 50 51 52 47 53 54 55 56 57 58 59 60 61 62 63 64 65 66 67 68 69 70 71 72 73 74 75 76 77 79 80 81 82 83 84 85 78 87 88 86 89 90 91 93 92 95 96 94 97 98 99 101 102 100 103 105 106 107 108 104 109 110 111 112 113 114 115 116 117 118 119 120]</text>
<polyline fill="none" stroke="#0058ad" points="3871,-81.5 3871,-110.5 "/>
<text text-anchor="middle" x="3903" y="-92.3" font-family="Times,serif" font-size="14.00" fill="#0058ad">a 28 108</text>
</g>
<!-- T4787 -->
<g id="node2" class="node">
<title>T4787</title>
<polygon fill="none" stroke="#0058ad" points="2136,-.5 2136,-29.5 4057,-29.5 4057,-.5 2136,-.5"/>
<text text-anchor="middle" x="3032.5" y="-11.3" font-family="Times,serif" font-size="14.00" fill="#0058ad">r 28 [1 2 3 4 5 6 7 8 9 10 11 12 13 14 15 16 17 18 20 21 22 23 24 25 19 26 27 28 29 30 31 32 33 34 35 37 36 38 39 40 41 42 43 44 46 47 48 49 45 50 51 52 53 54 55 56 57 58 60 61 62 59 63 64 65 66 67 68 69 70 72 73 71 75 76 77 74 79 80 78 81 84 85 82 83 86 88 89 90 94 95 96 97 98 99 100 101 103 104 102 106 107]</text>
<polyline fill="none" stroke="#0058ad" points="3929,-.5 3929,-29.5 "/>
<text text-anchor="middle" x="3961" y="-11.3" font-family="Times,serif" font-size="14.00" fill="#0058ad">a 27 121</text>
<polyline fill="none" stroke="#0058ad" points="3993,-.5 3993,-29.5 "/>
<text text-anchor="middle" x="4025" y="-11.3" font-family="Times,serif" font-size="14.00" fill="#0058ad">a 27 122</text>
</g>
<!-- T4795&#45;&gt;T4787 -->
<g id="edge1" class="edge">
<title>T4795:f1&#45;&gt;T4787:f1</title>
<path fill="none" stroke="#5b00c0" d="M2832.5,-81C2832.5,-73.5886 3839.3087,-41.6935 3951.3949,-31.5563"/>
<polygon fill="#5b00c0" stroke="#5b00c0" points="3952.1493,-34.9815 3961.5,-30 3951.0837,-28.0631 3952.1493,-34.9815"/>
<text text-anchor="middle" x="3571" y="-51.8" font-family="Times,serif" font-size="14.00" fill="#5b00c0">rw</text>
</g>
<!-- T4787&#45;&gt;T4795 -->
<g id="edge2" class="edge">
<title>T4787:f0&#45;&gt;T4795:f2</title>
<path fill="none" stroke="#5b00c0" d="M3032.5,-30C3032.5,-45.286 3567.2489,-46.9678 3582.5,-48 3722.0978,-57.4484 3894.8338,56.6315 3903.185,-70.9612"/>
<polygon fill="#5b00c0" stroke="#5b00c0" points="3899.688,-71.1147 3903.5,-81 3906.6845,-70.8951 3899.688,-71.1147"/>
<text text-anchor="middle" x="3909" y="-51.8" font-family="Times,serif" font-size="14.00" fill="#5b00c0">rw</text>
</g>
</g>
</svg>
