<?xml version="1.0" encoding="UTF-8" standalone="no"?>
<!DOCTYPE svg PUBLIC "-//W3C//DTD SVG 1.1//EN"
 "http://www.w3.org/Graphics/SVG/1.1/DTD/svg11.dtd">
<!-- Generated by graphviz version 2.40.1 (20161225.0304)
 -->
<!-- Title: a_graph Pages: 1 -->
<svg width="993pt" height="119pt"
 viewBox="0.00 0.00 992.50 119.00" xmlns="http://www.w3.org/2000/svg" xmlns:xlink="http://www.w3.org/1999/xlink">
<g id="graph0" class="graph" transform="scale(1 1) rotate(0) translate(4 115)">
<title>a_graph</title>
<polygon fill="#ffffff" stroke="transparent" points="-4,4 -4,-115 988.5,-115 988.5,4 -4,4"/>
<!-- T6605 -->
<g id="node1" class="node">
<title>T6605</title>
<polygon fill="none" stroke="#0058ad" points="44.5,-81.5 44.5,-110.5 984.5,-110.5 984.5,-81.5 44.5,-81.5"/>
<text text-anchor="middle" x="330.5" y="-92.3" font-family="Times,serif" font-size="14.00" fill="#0058ad">r 36 [1 2 6 9 10 11 13 14 12 15 16 17 18 19 20 21 22 23 24 25 26 27 28 29 30 31 32 33 34 35 36 37]</text>
<polyline fill="none" stroke="#0058ad" points="616.5,-81.5 616.5,-110.5 "/>
<text text-anchor="middle" x="641.5" y="-92.3" font-family="Times,serif" font-size="14.00" fill="#0058ad">a 37 9</text>
<polyline fill="none" stroke="#0058ad" points="666.5,-81.5 666.5,-110.5 "/>
<text text-anchor="middle" x="746" y="-92.3" font-family="Times,serif" font-size="14.00" fill="#0058ad">r 37 [1 2 3 5 7 8 6 4 10 9]</text>
<polyline fill="none" stroke="#0058ad" points="825.5,-81.5 825.5,-110.5 "/>
<text text-anchor="middle" x="905" y="-92.3" font-family="Times,serif" font-size="14.00" fill="#0058ad">r 37 [1 2 3 5 7 8 6 4 10 9]</text>
</g>
<!-- T6603 -->
<g id="node2" class="node">
<title>T6603</title>
<polygon fill="none" stroke="#0058ad" points="0,-.5 0,-29.5 927,-29.5 927,-.5 0,-.5"/>
<text text-anchor="middle" x="74.5" y="-11.3" font-family="Times,serif" font-size="14.00" fill="#0058ad">r 37 [1 2 3 5 7 8 6 4 10]</text>
<polyline fill="none" stroke="#0058ad" points="149,-.5 149,-29.5 "/>
<text text-anchor="middle" x="435" y="-11.3" font-family="Times,serif" font-size="14.00" fill="#0058ad">r 36 [1 2 6 9 10 11 13 14 12 15 16 17 18 19 20 21 22 23 24 25 26 27 28 29 30 31 32 33 34 35 36 37]</text>
<polyline fill="none" stroke="#0058ad" points="721,-.5 721,-29.5 "/>
<text text-anchor="middle" x="795.5" y="-11.3" font-family="Times,serif" font-size="14.00" fill="#0058ad">r 37 [1 2 3 5 7 8 6 4 10]</text>
<polyline fill="none" stroke="#0058ad" points="870,-.5 870,-29.5 "/>
<text text-anchor="middle" x="898.5" y="-11.3" font-family="Times,serif" font-size="14.00" fill="#0058ad">a 36 38</text>
</g>
<!-- T6605&#45;&gt;T6603 -->
<g id="edge1" class="edge">
<title>T6605:f0&#45;&gt;T6603:f3</title>
<path fill="none" stroke="#5b00c0" d="M330.5,-81C330.5,11.7229 444.2807,-57.6501 536.5,-48 554.61,-46.1049 835.9929,-49.384 889.6855,-35.1386"/>
<polygon fill="#5b00c0" stroke="#5b00c0" points="891.6236,-38.0601 898.5,-30 888.0981,-32.0127 891.6236,-38.0601"/>
<text text-anchor="middle" x="544" y="-51.8" font-family="Times,serif" font-size="14.00" fill="#5b00c0">rw</text>
</g>
<!-- T6603&#45;&gt;T6605 -->
<g id="edge2" class="edge">
<title>T6603:f0&#45;&gt;T6605:f1</title>
<path fill="none" stroke="#5b00c0" d="M74.5,-30C74.5,-56.5189 525.4816,-42.8724 551.5,-48 589.5446,-55.4976 632.8907,-41.3913 640.3724,-70.9179"/>
<polygon fill="#5b00c0" stroke="#5b00c0" points="636.9101,-71.451 641.5,-81 643.8667,-70.6729 636.9101,-71.451"/>
<text text-anchor="middle" x="643" y="-51.8" font-family="Times,serif" font-size="14.00" fill="#5b00c0">rw</text>
</g>
</g>
</svg>
