<?xml version="1.0" encoding="UTF-8" standalone="no"?>
<!DOCTYPE svg PUBLIC "-//W3C//DTD SVG 1.1//EN"
 "http://www.w3.org/Graphics/SVG/1.1/DTD/svg11.dtd">
<!-- Generated by graphviz version 2.40.1 (20161225.0304)
 -->
<!-- Title: a_graph Pages: 1 -->
<svg width="4634pt" height="362pt"
 viewBox="0.00 0.00 4633.53 362.00" xmlns="http://www.w3.org/2000/svg" xmlns:xlink="http://www.w3.org/1999/xlink">
<g id="graph0" class="graph" transform="scale(1 1) rotate(0) translate(4 358)">
<title>a_graph</title>
<polygon fill="#ffffff" stroke="transparent" points="-4,4 -4,-358 4629.5259,-358 4629.5259,4 -4,4"/>
<!-- T20273 -->
<g id="node1" class="node">
<title>T20273</title>
<polygon fill="none" stroke="#0058ad" points="1981.1627,-324.5 1981.1627,-353.5 2123.1627,-353.5 2123.1627,-324.5 1981.1627,-324.5"/>
<text text-anchor="middle" x="2016.6627" y="-335.3" font-family="Times,serif" font-size="14.00" fill="#0058ad">a 103 107</text>
<polyline fill="none" stroke="#0058ad" points="2052.1627,-324.5 2052.1627,-353.5 "/>
<text text-anchor="middle" x="2087.6627" y="-335.3" font-family="Times,serif" font-size="14.00" fill="#0058ad">a 103 108</text>
</g>
<!-- T20275 -->
<g id="node2" class="node">
<title>T20275</title>
<polygon fill="none" stroke="#0058ad" points="181.1627,-243.5 181.1627,-272.5 1071.1627,-272.5 1071.1627,-243.5 181.1627,-243.5"/>
<text text-anchor="middle" x="626.1627" y="-254.3" font-family="Times,serif" font-size="14.00" fill="#0058ad">r 96 [1 2 3 5 6 7 8 9 10 11 12 13 14 15 16 17 19 18 20 21 22 23 24 25 27 28 29 30 31 32 33 34 35 36 37 38 39 40 41 42 43 44 45 46 47 48 49 52 53 54 55 56]</text>
</g>
<!-- T20273&#45;&gt;T20275 -->
<g id="edge1" class="edge">
<title>T20273&#45;&gt;T20275</title>
<path fill="none" stroke="#0050c0" d="M1980.9592,-334.9555C1784.5412,-323.7985 1227.439,-292.1538 891.9299,-273.0962"/>
<polygon fill="#0050c0" stroke="#0050c0" points="891.7566,-269.5808 881.5742,-272.5079 891.3596,-276.5695 891.7566,-269.5808"/>
<text text-anchor="middle" x="1471.6627" y="-294.8" font-family="Times,serif" font-size="14.00" fill="#0050c0">rt</text>
</g>
<!-- T20283 -->
<g id="node3" class="node">
<title>T20283</title>
<polygon fill="none" stroke="#0058ad" points="181.1627,-162.5 181.1627,-191.5 4499.1627,-191.5 4499.1627,-162.5 181.1627,-162.5"/>
<text text-anchor="middle" x="209.6627" y="-173.3" font-family="Times,serif" font-size="14.00" fill="#0058ad">a 96 57</text>
<polyline fill="none" stroke="#0058ad" points="238.1627,-162.5 238.1627,-191.5 "/>
<text text-anchor="middle" x="1285.6627" y="-173.3" font-family="Times,serif" font-size="14.00" fill="#0058ad">r 99 [1 2 3 4 5 7 8 6 9 10 11 13 16 17 18 19 20 22 23 24 21 25 26 28 27 29 30 31 32 33 34 35 36 37 38 39 40 42 41 44 45 43 46 47 48 49 50 51 52 53 54 55 56 57 58 59 61 60 62 63 64 65 67 66 68 72 73 69 74 76 75 77 78 79 70 71 80 81 82 83 85 84 86 88 89 90 93 94 95 97 98 99 96 102 100 101 103 104 105 107 106 108 109 110 111 112 113 114 115 116 117 119 118 120]</text>
<polyline fill="none" stroke="#0058ad" points="2333.1627,-162.5 2333.1627,-191.5 "/>
<text text-anchor="middle" x="3380.6627" y="-173.3" font-family="Times,serif" font-size="14.00" fill="#0058ad">r 99 [1 2 3 4 5 7 8 6 9 10 11 13 16 17 18 19 20 22 23 24 21 25 26 28 27 29 30 31 32 33 34 35 36 37 38 39 40 42 41 44 45 43 46 47 48 49 50 51 52 53 54 55 56 57 58 59 61 60 62 63 64 65 67 66 68 72 73 69 74 76 75 77 78 79 70 71 80 81 82 83 85 84 86 88 89 90 93 94 95 97 98 99 96 102 100 101 103 104 105 107 106 108 109 110 111 112 113 114 115 116 117 119 118 120]</text>
<polyline fill="none" stroke="#0058ad" points="4428.1627,-162.5 4428.1627,-191.5 "/>
<text text-anchor="middle" x="4463.6627" y="-173.3" font-family="Times,serif" font-size="14.00" fill="#0058ad">a 103 109</text>
</g>
<!-- T20273&#45;&gt;T20283 -->
<g id="edge3" class="edge">
<title>T20273:f1&#45;&gt;T20283:f3</title>
<path fill="none" stroke="#c02700" d="M2123.1627,-339C2250.293,-339 4357.4589,-323.1166 4460.2721,-201.3426"/>
<polygon fill="#c02700" stroke="#c02700" points="4463.5493,-202.5771 4464.1627,-192 4457.0872,-199.886 4463.5493,-202.5771"/>
<text text-anchor="middle" x="4330.1627" y="-254.3" font-family="Times,serif" font-size="14.00" fill="#c02700">ww</text>
</g>
<!-- T20284 -->
<g id="node5" class="node">
<title>T20284</title>
<polygon fill="none" stroke="#0058ad" points="3.1627,-.5 3.1627,-29.5 3849.1627,-29.5 3849.1627,-.5 3.1627,-.5"/>
<text text-anchor="middle" x="1062.6627" y="-11.3" font-family="Times,serif" font-size="14.00" fill="#0058ad">r 99 [1 2 3 4 5 7 8 6 9 10 11 13 16 17 18 19 20 22 23 24 21 25 26 28 27 29 30 31 32 33 34 35 36 37 38 39 40 42 41 44 45 43 46 47 48 49 50 51 52 53 54 55 56 57 58 59 61 60 62 63 64 65 67 66 68 72 73 69 74 76 75 77 78 79 70 71 80 81 82 83 85 84 86 88 89 90 93 94 95 97 98 99 96 102 100 101 103 104 105 107 106 108 109 110 111 112 113 114 115 116 117 119 118 120 121]</text>
<polyline fill="none" stroke="#0058ad" points="2122.1627,-.5 2122.1627,-29.5 "/>
<text text-anchor="middle" x="2985.6627" y="-11.3" font-family="Times,serif" font-size="14.00" fill="#0058ad">r 103 [1 2 5 6 3 4 7 9 8 11 12 13 14 15 17 16 18 10 20 21 22 23 24 25 28 29 26 30 31 32 33 34 27 36 37 38 43 45 46 48 49 47 52 50 51 55 60 61 62 63 64 65 66 57 58 68 69 70 71 67 72 73 74 75 76 77 78 81 82 79 80 83 84 85 86 88 87 89 90 91 92 93 94 95 96 97 98 100 99 102 101 103 104 105 106 107 108]</text>
</g>
<!-- T20273&#45;&gt;T20284 -->
<g id="edge2" class="edge">
<title>T20273:f1&#45;&gt;T20284:f1</title>
<path fill="none" stroke="#c000a5" d="M2123.1627,-339C2190.2004,-339 4535.1627,-325.0378 4535.1627,-258 4535.1627,-258 4535.1627,-258 4535.1627,-96 4535.1627,-62.5363 4988.7039,-15.2894 3859.5763,-15.0013"/>
<polygon fill="#c000a5" stroke="#c000a5" points="3859.1632,-11.5014 3849.1627,-15 3859.1622,-18.5014 3859.1632,-11.5014"/>
<text text-anchor="middle" x="4542.6627" y="-173.3" font-family="Times,serif" font-size="14.00" fill="#c000a5">wr</text>
</g>
<!-- T20275&#45;&gt;T20283 -->
<g id="edge5" class="edge">
<title>T20275:f0&#45;&gt;T20283:f0</title>
<path fill="none" stroke="#5b00c0" d="M280.3737,-243.465C243.9067,-234.384 217.5262,-221.1045 210.8278,-201.9071"/>
<polygon fill="#5b00c0" stroke="#5b00c0" points="214.2719,-201.2815 209.1627,-192 207.3687,-202.4418 214.2719,-201.2815"/>
<text text-anchor="middle" x="239.6627" y="-213.8" font-family="Times,serif" font-size="14.00" fill="#5b00c0">rw</text>
</g>
<!-- T20275&#45;&gt;T20284 -->
<g id="edge4" class="edge">
<title>T20275&#45;&gt;T20284</title>
<path fill="none" stroke="#0050c0" d="M370.4736,-243.4974C295.8791,-238.0736 229.7873,-231.6155 213.1627,-225 132.2571,-192.8052 68.1586,-110.1347 129.1627,-48 135.7433,-41.2974 391.8096,-34.9665 708.6743,-29.6766"/>
<polygon fill="#0050c0" stroke="#0050c0" points="709.0775,-33.1705 719.018,-29.5046 708.9611,-26.1714 709.0775,-33.1705"/>
<text text-anchor="middle" x="120.6627" y="-132.8" font-family="Times,serif" font-size="14.00" fill="#0050c0">rt</text>
</g>
<!-- T20277 -->
<g id="node4" class="node">
<title>T20277</title>
<polygon fill="none" stroke="#0058ad" points="143.6627,-81.5 143.6627,-110.5 1950.6627,-110.5 1950.6627,-81.5 143.6627,-81.5"/>
<text text-anchor="middle" x="175.6627" y="-92.3" font-family="Times,serif" font-size="14.00" fill="#0058ad">a 99 121</text>
<polyline fill="none" stroke="#0058ad" points="207.6627,-81.5 207.6627,-110.5 "/>
<text text-anchor="middle" x="1047.1627" y="-92.3" font-family="Times,serif" font-size="14.00" fill="#0058ad">r 103 [1 2 5 6 3 4 7 9 8 11 12 13 14 15 17 16 18 10 20 21 22 23 24 25 28 29 26 30 31 32 33 34 27 36 37 38 43 45 46 48 49 47 52 50 51 55 60 61 62 63 64 65 66 57 58 68 69 70 71 67 72 73 74 75 76 77 78 81 82 79 80 83 84 85 86 88 87 89 90 91 92 93 94 95 96 97 98 100 99 102 101 103 104 105 106]</text>
<polyline fill="none" stroke="#0058ad" points="1886.6627,-81.5 1886.6627,-110.5 "/>
<text text-anchor="middle" x="1918.6627" y="-92.3" font-family="Times,serif" font-size="14.00" fill="#0058ad">a 101 19</text>
</g>
<!-- T20283&#45;&gt;T20277 -->
<g id="edge6" class="edge">
<title>T20283:f1&#45;&gt;T20277:f0</title>
<path fill="none" stroke="#5b00c0" d="M1285.1627,-162C1285.1627,81.4304 206.3757,-345.5234 175.8241,-121.0786"/>
<polygon fill="#5b00c0" stroke="#5b00c0" points="179.3101,-120.7493 175.1627,-111 172.3251,-121.2078 179.3101,-120.7493"/>
<text text-anchor="middle" x="1287.6627" y="-132.8" font-family="Times,serif" font-size="14.00" fill="#5b00c0">rw</text>
</g>
<!-- T20277&#45;&gt;T20273 -->
<g id="edge7" class="edge">
<title>T20277:f1&#45;&gt;T20273:f0</title>
<path fill="none" stroke="#5b00c0" d="M1047.1627,-111C1047.1627,-208.3872 238.9924,-91.1617 172.1627,-162 138.3089,-197.8845 137.9206,-237.4858 172.1627,-273 205.9054,-307.9962 1818.2691,-337.0139 1970.7421,-338.9023"/>
<polygon fill="#5b00c0" stroke="#5b00c0" points="1971.1303,-342.406 1981.1627,-339 1971.196,-335.4063 1971.1303,-342.406"/>
<text text-anchor="middle" x="154.6627" y="-213.8" font-family="Times,serif" font-size="14.00" fill="#5b00c0">rw</text>
</g>
<!-- T20277&#45;&gt;T20284 -->
<g id="edge8" class="edge">
<title>T20277:f0&#45;&gt;T20284:f0</title>
<path fill="none" stroke="#c000a5" d="M175.1627,-81C175.1627,-55.8388 152.5094,-57.3819 129.1627,-48 102.9182,-37.4536 21.6946,-51.3675 3.1627,-30 1.8659,-28.5048 .7516,-26.5754 0,-24.6013"/>
<polygon fill="#c000a5" stroke="#c000a5" points="3.3583,-25.593 3.1627,-15 -3.2903,-23.4029 3.3583,-25.593"/>
<text text-anchor="middle" x="175.6627" y="-51.8" font-family="Times,serif" font-size="14.00" fill="#c000a5">wr</text>
</g>
<!-- T20284&#45;&gt;T20283 -->
<g id="edge9" class="edge">
<title>T20284:f1&#45;&gt;T20283:f3</title>
<path fill="none" stroke="#5b00c0" d="M2986.1627,-30C2986.1627,-356.2095 4432.5793,156.5176 4463.6547,-151.6679"/>
<polygon fill="#5b00c0" stroke="#5b00c0" points="4460.1757,-152.184 4464.1627,-162 4467.1673,-151.8402 4460.1757,-152.184"/>
<text text-anchor="middle" x="4453.6627" y="-92.3" font-family="Times,serif" font-size="14.00" fill="#5b00c0">rw</text>
</g>
</g>
</svg>
