<?xml version="1.0" encoding="UTF-8" standalone="no"?>
<!DOCTYPE svg PUBLIC "-//W3C//DTD SVG 1.1//EN"
 "http://www.w3.org/Graphics/SVG/1.1/DTD/svg11.dtd">
<!-- Generated by graphviz version 2.40.1 (20161225.0304)
 -->
<!-- Title: a_graph Pages: 1 -->
<svg width="2435pt" height="119pt"
 viewBox="0.00 0.00 2435.00 119.00" xmlns="http://www.w3.org/2000/svg" xmlns:xlink="http://www.w3.org/1999/xlink">
<g id="graph0" class="graph" transform="scale(1 1) rotate(0) translate(4 115)">
<title>a_graph</title>
<polygon fill="#ffffff" stroke="transparent" points="-4,4 -4,-115 2431,-115 2431,4 -4,4"/>
<!-- T21333 -->
<g id="node1" class="node">
<title>T21333</title>
<polygon fill="none" stroke="#0058ad" points="1708,-81.5 1708,-110.5 2283,-110.5 2283,-81.5 1708,-81.5"/>
<text text-anchor="middle" x="1740" y="-92.3" font-family="Times,serif" font-size="14.00" fill="#0058ad">a 108 21</text>
<polyline fill="none" stroke="#0058ad" points="1772,-81.5 1772,-110.5 "/>
<text text-anchor="middle" x="2027.5" y="-92.3" font-family="Times,serif" font-size="14.00" fill="#0058ad">r 107 [1 2 3 4 5 6 7 8 9 10 15 16 19 20 21 23 25 26 27 28 29 31 32 33 34 35 36 37 38 39]</text>
</g>
<!-- T21337 -->
<g id="node2" class="node">
<title>T21337</title>
<polygon fill="none" stroke="#0058ad" points="0,-.5 0,-29.5 2427,-29.5 2427,-.5 0,-.5"/>
<text text-anchor="middle" x="245" y="-11.3" font-family="Times,serif" font-size="14.00" fill="#0058ad">r 109 [1 4 5 6 7 8 9 10 11 12 16 15 17 20 21 22 23 24 25 26 28 27 29 30 31 32 33 34]</text>
<polyline fill="none" stroke="#0058ad" points="490,-.5 490,-29.5 "/>
<text text-anchor="middle" x="636.5" y="-11.3" font-family="Times,serif" font-size="14.00" fill="#0058ad">r 108 [1 2 3 4 5 6 7 8 11 13 14 15 16 17 18 19 20]</text>
<polyline fill="none" stroke="#0058ad" points="783,-.5 783,-29.5 "/>
<text text-anchor="middle" x="1573" y="-11.3" font-family="Times,serif" font-size="14.00" fill="#0058ad">r 96 [1 2 3 5 6 7 8 9 10 11 12 13 14 15 16 17 19 18 20 21 22 23 24 25 27 28 29 30 31 32 33 34 35 36 37 38 39 40 41 42 43 44 45 46 47 48 49 52 53 54 55 56 57 58 59 60 62 61 63 64 65 67 68 69 70 71 72 73 74 75 76 77 78 79 80 81 82 84 83 85 86 87 88 89 90 91 92 93 94 95 96 97]</text>
<polyline fill="none" stroke="#0058ad" points="2363,-.5 2363,-29.5 "/>
<text text-anchor="middle" x="2395" y="-11.3" font-family="Times,serif" font-size="14.00" fill="#0058ad">a 107 30</text>
</g>
<!-- T21333&#45;&gt;T21337 -->
<g id="edge1" class="edge">
<title>T21333:f1&#45;&gt;T21337:f3</title>
<path fill="none" stroke="#5b00c0" d="M2283.5,-96C2337.6667,-96 2388.7083,-88.7734 2394.877,-40.2627"/>
<polygon fill="#5b00c0" stroke="#5b00c0" points="2398.3875,-40.1937 2395.5,-30 2391.4004,-39.7695 2398.3875,-40.1937"/>
<text text-anchor="middle" x="2400" y="-51.8" font-family="Times,serif" font-size="14.00" fill="#5b00c0">rw</text>
</g>
<!-- T21337&#45;&gt;T21333 -->
<g id="edge2" class="edge">
<title>T21337:f1&#45;&gt;T21333:f0</title>
<path fill="none" stroke="#5b00c0" d="M636.5,-30C636.5,-87.4589 1576.1191,-95.4689 1697.4028,-95.9728"/>
<polygon fill="#5b00c0" stroke="#5b00c0" points="1697.4906,-99.4729 1707.5,-96 1697.5095,-92.4729 1697.4906,-99.4729"/>
<text text-anchor="middle" x="769" y="-51.8" font-family="Times,serif" font-size="14.00" fill="#5b00c0">rw</text>
</g>
</g>
</svg>
