<?xml version="1.0" encoding="UTF-8" standalone="no"?>
<!DOCTYPE svg PUBLIC "-//W3C//DTD SVG 1.1//EN"
 "http://www.w3.org/Graphics/SVG/1.1/DTD/svg11.dtd">
<!-- Generated by graphviz version 2.40.1 (20161225.0304)
 -->
<!-- Title: a_graph Pages: 1 -->
<svg width="3408pt" height="200pt"
 viewBox="0.00 0.00 3408.00 200.00" xmlns="http://www.w3.org/2000/svg" xmlns:xlink="http://www.w3.org/1999/xlink">
<g id="graph0" class="graph" transform="scale(1 1) rotate(0) translate(4 196)">
<title>a_graph</title>
<polygon fill="#ffffff" stroke="transparent" points="-4,4 -4,-196 3404,-196 3404,4 -4,4"/>
<!-- T4919 -->
<g id="node1" class="node">
<title>T4919</title>
<polygon fill="none" stroke="#0058ad" points="2576,-162.5 2576,-191.5 2826,-191.5 2826,-162.5 2576,-162.5"/>
<text text-anchor="middle" x="2669" y="-173.3" font-family="Times,serif" font-size="14.00" fill="#0058ad">r 29 [2 6 7 8 9 10 11 12 13 14]</text>
<polyline fill="none" stroke="#0058ad" points="2762,-162.5 2762,-191.5 "/>
<text text-anchor="middle" x="2794" y="-173.3" font-family="Times,serif" font-size="14.00" fill="#0058ad">a 23 123</text>
</g>
<!-- T4925 -->
<g id="node2" class="node">
<title>T4925</title>
<polygon fill="none" stroke="#0058ad" points="2865,-81.5 2865,-110.5 3245,-110.5 3245,-81.5 2865,-81.5"/>
<text text-anchor="middle" x="2944" y="-92.3" font-family="Times,serif" font-size="14.00" fill="#0058ad">r 30 [4 5 6 7 12 11 14 13]</text>
<polyline fill="none" stroke="#0058ad" points="3023,-81.5 3023,-110.5 "/>
<text text-anchor="middle" x="3102" y="-92.3" font-family="Times,serif" font-size="14.00" fill="#0058ad">r 30 [4 5 6 7 12 11 14 13]</text>
<polyline fill="none" stroke="#0058ad" points="3181,-81.5 3181,-110.5 "/>
<text text-anchor="middle" x="3213" y="-92.3" font-family="Times,serif" font-size="14.00" fill="#0058ad">a 23 124</text>
</g>
<!-- T4919&#45;&gt;T4925 -->
<g id="edge1" class="edge">
<title>T4919:f1&#45;&gt;T4925:f2</title>
<path fill="none" stroke="#c02700" d="M2826,-177C2866.5538,-177 3166.1943,-157.6573 3208.1307,-119.8858"/>
<polygon fill="#c02700" stroke="#c02700" points="3211.2637,-121.4516 3213,-111 3205.125,-118.0877 3211.2637,-121.4516"/>
<text text-anchor="middle" x="3199" y="-132.8" font-family="Times,serif" font-size="14.00" fill="#c02700">ww</text>
</g>
<!-- T4922 -->
<g id="node3" class="node">
<title>T4922</title>
<polygon fill="none" stroke="#0058ad" points="0,-.5 0,-29.5 3400,-29.5 3400,-.5 0,-.5"/>
<text text-anchor="middle" x="528" y="-11.3" font-family="Times,serif" font-size="14.00" fill="#0058ad">r 24 [1 2 3 4 5 6 7 8 9 10 11 12 13 14 15 16 17 18 19 20 21 24 23 22 25 26 27 28 29 30 32 31 33 34 35 36 37 39 40 41 42 43 44 45 46 47 48 49 50 51 52 53 54 55 56 57 58 59 60 61 62 63]</text>
<polyline fill="none" stroke="#0058ad" points="1056,-.5 1056,-29.5 "/>
<text text-anchor="middle" x="2120.5" y="-11.3" font-family="Times,serif" font-size="14.00" fill="#0058ad">r 23 [1 2 3 4 5 6 9 7 8 10 11 12 13 15 14 16 17 18 19 20 23 21 22 24 25 26 27 28 29 30 31 32 33 34 35 36 38 39 42 43 45 44 47 48 46 49 50 51 52 54 53 55 56 57 58 59 60 61 62 63 64 65 66 67 68 69 70 71 72 73 74 75 76 78 79 80 81 82 83 84 86 85 87 88 89 90 91 93 94 95 96 92 97 98 99 100 101 102 103 105 106 107 108 104 109 110 111 112 113 114 115 116 117 118 119 122]</text>
<polyline fill="none" stroke="#0058ad" points="3185,-.5 3185,-29.5 "/>
<text text-anchor="middle" x="3264" y="-11.3" font-family="Times,serif" font-size="14.00" fill="#0058ad">r 30 [4 5 6 7 12 11 14 13]</text>
<polyline fill="none" stroke="#0058ad" points="3343,-.5 3343,-29.5 "/>
<text text-anchor="middle" x="3371.5" y="-11.3" font-family="Times,serif" font-size="14.00" fill="#0058ad">a 30 15</text>
</g>
<!-- T4925&#45;&gt;T4922 -->
<g id="edge2" class="edge">
<title>T4925:f0&#45;&gt;T4922:f3</title>
<path fill="none" stroke="#5b00c0" d="M2944,-81C2944,107.0134 3356.2645,-209.4229 3371.5634,-40.1292"/>
<polygon fill="#5b00c0" stroke="#5b00c0" points="3375.066,-40.1415 3372,-30 3368.0725,-39.84 3375.066,-40.1415"/>
<text text-anchor="middle" x="3377.5" y="-51.8" font-family="Times,serif" font-size="14.00" fill="#5b00c0">rw</text>
</g>
<!-- T4922&#45;&gt;T4919 -->
<g id="edge3" class="edge">
<title>T4922:f1&#45;&gt;T4919:f1</title>
<path fill="none" stroke="#5b00c0" d="M2121,-30C2121,-331.2382 2778.319,131.7234 2793.7249,-151.6039"/>
<polygon fill="#5b00c0" stroke="#5b00c0" points="2790.2366,-152.0961 2794,-162 2797.2342,-151.9109 2790.2366,-152.0961"/>
<text text-anchor="middle" x="2789.5" y="-92.3" font-family="Times,serif" font-size="14.00" fill="#5b00c0">rw</text>
</g>
</g>
</svg>
