<?xml version="1.0" encoding="UTF-8" standalone="no"?>
<!DOCTYPE svg PUBLIC "-//W3C//DTD SVG 1.1//EN"
 "http://www.w3.org/Graphics/SVG/1.1/DTD/svg11.dtd">
<!-- Generated by graphviz version 2.40.1 (20161225.0304)
 -->
<!-- Title: a_graph Pages: 1 -->
<svg width="4866pt" height="200pt"
 viewBox="0.00 0.00 4866.00 200.00" xmlns="http://www.w3.org/2000/svg" xmlns:xlink="http://www.w3.org/1999/xlink">
<g id="graph0" class="graph" transform="scale(1 1) rotate(0) translate(4 196)">
<title>a_graph</title>
<polygon fill="#ffffff" stroke="transparent" points="-4,4 -4,-196 4862,-196 4862,4 -4,4"/>
<!-- T4691 -->
<g id="node1" class="node">
<title>T4691</title>
<polygon fill="none" stroke="#0058ad" points="0,-162.5 0,-191.5 4858,-191.5 4858,-162.5 0,-162.5"/>
<text text-anchor="middle" x="907" y="-173.3" font-family="Times,serif" font-size="14.00" fill="#0058ad">r 27 [1 2 3 4 5 6 7 8 9 10 13 14 15 16 18 17 20 19 21 22 23 24 26 27 28 25 33 35 32 37 38 39 36 41 42 43 44 45 46 48 49 50 51 52 47 53 54 55 56 57 58 59 60 61 62 63 64 65 66 67 68 69 70 71 72 73 74 75 76 77 79 80 81 82 83 84 85 78 87 88 86 89 90 91 93 92 95 96 94 97 98 99 101 102 100 103 105 106 107 108 104 109]</text>
<polyline fill="none" stroke="#0058ad" points="1814,-162.5 1814,-191.5 "/>
<text text-anchor="middle" x="1846" y="-173.3" font-family="Times,serif" font-size="14.00" fill="#0058ad">a 27 110</text>
<polyline fill="none" stroke="#0058ad" points="1878,-162.5 1878,-191.5 "/>
<text text-anchor="middle" x="2449" y="-173.3" font-family="Times,serif" font-size="14.00" fill="#0058ad">r 28 [1 2 3 4 5 6 7 8 9 10 11 12 13 14 15 16 17 18 20 21 22 23 24 25 19 26 27 28 29 30 31 32 33 34 35 37 36 38 39 40 41 42 43 44 46 47 48 49 45 50 51 52 53 54 55 56 57 58 60 61 62 59 63 64 65 66 67]</text>
<polyline fill="none" stroke="#0058ad" points="3020,-162.5 3020,-191.5 "/>
<text text-anchor="middle" x="3939" y="-173.3" font-family="Times,serif" font-size="14.00" fill="#0058ad">r 27 [1 2 3 4 5 6 7 8 9 10 13 14 15 16 18 17 20 19 21 22 23 24 26 27 28 25 33 35 32 37 38 39 36 41 42 43 44 45 46 48 49 50 51 52 47 53 54 55 56 57 58 59 60 61 62 63 64 65 66 67 68 69 70 71 72 73 74 75 76 77 79 80 81 82 83 84 85 78 87 88 86 89 90 91 93 92 95 96 94 97 98 99 101 102 100 103 105 106 107 108 104 109 110]</text>
</g>
<!-- T4685 -->
<g id="node3" class="node">
<title>T4685</title>
<polygon fill="none" stroke="#0058ad" points="1614.5,-81.5 1614.5,-110.5 2877.5,-110.5 2877.5,-81.5 1614.5,-81.5"/>
<text text-anchor="middle" x="2185.5" y="-92.3" font-family="Times,serif" font-size="14.00" fill="#0058ad">r 28 [1 2 3 4 5 6 7 8 9 10 11 12 13 14 15 16 17 18 20 21 22 23 24 25 19 26 27 28 29 30 31 32 33 34 35 37 36 38 39 40 41 42 43 44 46 47 48 49 45 50 51 52 53 54 55 56 57 58 60 61 62 59 63 64 65 66 67]</text>
<polyline fill="none" stroke="#0058ad" points="2756.5,-81.5 2756.5,-110.5 "/>
<text text-anchor="middle" x="2785" y="-92.3" font-family="Times,serif" font-size="14.00" fill="#0058ad">a 28 68</text>
<polyline fill="none" stroke="#0058ad" points="2813.5,-81.5 2813.5,-110.5 "/>
<text text-anchor="middle" x="2845.5" y="-92.3" font-family="Times,serif" font-size="14.00" fill="#0058ad">a 23 111</text>
</g>
<!-- T4691&#45;&gt;T4685 -->
<g id="edge1" class="edge">
<title>T4691:f2&#45;&gt;T4685:f1</title>
<path fill="none" stroke="#5b00c0" d="M2449,-162C2449,-14.6438 2768.794,-250.0233 2784.409,-121.3554"/>
<polygon fill="#5b00c0" stroke="#5b00c0" points="2787.9244,-121.1832 2785,-111 2780.9358,-120.7843 2787.9244,-121.1832"/>
<text text-anchor="middle" x="2788.5" y="-132.8" font-family="Times,serif" font-size="14.00" fill="#5b00c0">rw</text>
</g>
<!-- T4687 -->
<g id="node2" class="node">
<title>T4687</title>
<polygon fill="none" stroke="#0058ad" points="569,-.5 569,-29.5 3543,-29.5 3543,-.5 569,-.5"/>
<text text-anchor="middle" x="1476" y="-11.3" font-family="Times,serif" font-size="14.00" fill="#0058ad">r 27 [1 2 3 4 5 6 7 8 9 10 13 14 15 16 18 17 20 19 21 22 23 24 26 27 28 25 33 35 32 37 38 39 36 41 42 43 44 45 46 48 49 50 51 52 47 53 54 55 56 57 58 59 60 61 62 63 64 65 66 67 68 69 70 71 72 73 74 75 76 77 79 80 81 82 83 84 85 78 87 88 86 89 90 91 93 92 95 96 94 97 98 99 101 102 100 103 105 106 107 108 104 109]</text>
<polyline fill="none" stroke="#0058ad" points="2383,-.5 2383,-29.5 "/>
<text text-anchor="middle" x="2963" y="-11.3" font-family="Times,serif" font-size="14.00" fill="#0058ad">r 28 [1 2 3 4 5 6 7 8 9 10 11 12 13 14 15 16 17 18 20 21 22 23 24 25 19 26 27 28 29 30 31 32 33 34 35 37 36 38 39 40 41 42 43 44 46 47 48 49 45 50 51 52 53 54 55 56 57 58 60 61 62 59 63 64 65 66 67 68]</text>
</g>
<!-- T4687&#45;&gt;T4691 -->
<g id="edge2" class="edge">
<title>T4687:f0&#45;&gt;T4691:f1</title>
<path fill="none" stroke="#5b00c0" d="M1476,-30C1476,-92.5168 1533.5534,-86.3375 1591,-111 1640.7832,-132.3725 1821.344,-107.7048 1843.7196,-152.1544"/>
<polygon fill="#5b00c0" stroke="#5b00c0" points="1840.3338,-153.0477 1846,-162 1847.1533,-151.4681 1840.3338,-153.0477"/>
<text text-anchor="middle" x="1598.5" y="-92.3" font-family="Times,serif" font-size="14.00" fill="#5b00c0">rw</text>
</g>
<!-- T4685&#45;&gt;T4687 -->
<g id="edge3" class="edge">
<title>T4685:f1&#45;&gt;T4687:f1</title>
<path fill="none" stroke="#c000a5" d="M2785,-81C2785,-2.5633 2946.7036,-102.0757 2961.8633,-40.3218"/>
<polygon fill="#c000a5" stroke="#c000a5" points="2965.3843,-40.3231 2963,-30 2958.4263,-39.5568 2965.3843,-40.3231"/>
<text text-anchor="middle" x="2965.5" y="-51.8" font-family="Times,serif" font-size="14.00" fill="#c000a5">wr</text>
</g>
</g>
</svg>
