<?xml version="1.0" encoding="UTF-8" standalone="no"?>
<!DOCTYPE svg PUBLIC "-//W3C//DTD SVG 1.1//EN"
 "http://www.w3.org/Graphics/SVG/1.1/DTD/svg11.dtd">
<!-- Generated by graphviz version 2.40.1 (20161225.0304)
 -->
<!-- Title: a_graph Pages: 1 -->
<svg width="4431pt" height="119pt"
 viewBox="0.00 0.00 4431.00 119.00" xmlns="http://www.w3.org/2000/svg" xmlns:xlink="http://www.w3.org/1999/xlink">
<g id="graph0" class="graph" transform="scale(1 1) rotate(0) translate(4 115)">
<title>a_graph</title>
<polygon fill="#ffffff" stroke="transparent" points="-4,4 -4,-115 4427,-115 4427,4 -4,4"/>
<!-- T10285 -->
<g id="node1" class="node">
<title>T10285</title>
<polygon fill="none" stroke="#0058ad" points="2104,-81.5 2104,-110.5 4423,-110.5 4423,-81.5 2104,-81.5"/>
<text text-anchor="middle" x="2136" y="-92.3" font-family="Times,serif" font-size="14.00" fill="#0058ad">a 52 115</text>
<polyline fill="none" stroke="#0058ad" points="2168,-81.5 2168,-110.5 "/>
<text text-anchor="middle" x="2196.5" y="-92.3" font-family="Times,serif" font-size="14.00" fill="#0058ad">a 55 38</text>
<polyline fill="none" stroke="#0058ad" points="2225,-81.5 2225,-110.5 "/>
<text text-anchor="middle" x="3324" y="-92.3" font-family="Times,serif" font-size="14.00" fill="#0058ad">r 54 [1 2 5 3 4 6 7 8 9 11 10 12 14 15 13 17 16 18 19 20 22 23 24 25 21 26 27 28 29 31 33 34 36 37 38 39 41 45 46 42 43 48 49 50 47 52 53 54 55 57 58 60 61 59 62 63 64 65 66 67 68 69 70 72 73 74 75 71 76 77 78 79 80 81 82 83 85 84 86 87 88 89 90 91 92 93 94 95 96 97 98 99 101 100 102 103 104 105 107 106 108 109 110 111 112 113 115 114 116 117 118 119 120 122 123 121 124 125]</text>
</g>
<!-- T10287 -->
<g id="node2" class="node">
<title>T10287</title>
<polygon fill="none" stroke="#0058ad" points="0,-.5 0,-29.5 4253,-29.5 4253,-.5 0,-.5"/>
<text text-anchor="middle" x="1099" y="-11.3" font-family="Times,serif" font-size="14.00" fill="#0058ad">r 54 [1 2 5 3 4 6 7 8 9 11 10 12 14 15 13 17 16 18 19 20 22 23 24 25 21 26 27 28 29 31 33 34 36 37 38 39 41 45 46 42 43 48 49 50 47 52 53 54 55 57 58 60 61 59 62 63 64 65 66 67 68 69 70 72 73 74 75 71 76 77 78 79 80 81 82 83 85 84 86 87 88 89 90 91 92 93 94 95 96 97 98 99 101 100 102 103 104 105 107 106 108 109 110 111 112 113 115 114 116 117 118 119 120 122 123 121 124 125]</text>
<polyline fill="none" stroke="#0058ad" points="2198,-.5 2198,-29.5 "/>
<text text-anchor="middle" x="2230" y="-11.3" font-family="Times,serif" font-size="14.00" fill="#0058ad">a 54 127</text>
<polyline fill="none" stroke="#0058ad" points="2262,-.5 2262,-29.5 "/>
<text text-anchor="middle" x="3229" y="-11.3" font-family="Times,serif" font-size="14.00" fill="#0058ad">r 52 [1 2 3 5 6 7 4 8 9 10 11 12 14 13 15 16 17 18 19 20 21 22 24 25 23 26 27 28 29 30 31 32 34 33 35 36 37 38 39 40 41 42 43 44 45 46 47 48 49 50 51 52 53 54 55 56 57 58 59 60 61 62 63 64 65 66 67 68 69 70 71 72 73 78 79 81 83 82 84 85 86 87 88 89 93 92 94 95 96 97 98 99 100 101 102 103 104 105 107 106 108 109 110 111 112 113 114]</text>
<polyline fill="none" stroke="#0058ad" points="4196,-.5 4196,-29.5 "/>
<text text-anchor="middle" x="4224.5" y="-11.3" font-family="Times,serif" font-size="14.00" fill="#0058ad">a 53 23</text>
</g>
<!-- T10285&#45;&gt;T10287 -->
<g id="edge1" class="edge">
<title>T10285:f2&#45;&gt;T10287:f1</title>
<path fill="none" stroke="#5b00c0" d="M3324.5,-81C3324.5,-52.2121 2344.8635,-59.4806 2239.6291,-34.566"/>
<polygon fill="#5b00c0" stroke="#5b00c0" points="2241.0094,-31.343 2230.5,-30 2237.8781,-37.6036 2241.0094,-31.343"/>
<text text-anchor="middle" x="3095" y="-51.8" font-family="Times,serif" font-size="14.00" fill="#5b00c0">rw</text>
</g>
<!-- T10287&#45;&gt;T10285 -->
<g id="edge2" class="edge">
<title>T10287:f2&#45;&gt;T10285:f0</title>
<path fill="none" stroke="#5b00c0" d="M3229.5,-30C3229.5,-51.728 2469.1832,-46.6061 2447.5,-48 2311.8803,-56.7182 2144.2557,52.6609 2135.8309,-70.8652"/>
<polygon fill="#5b00c0" stroke="#5b00c0" points="2132.3283,-70.8911 2135.5,-81 2139.3246,-71.1196 2132.3283,-70.8911"/>
<text text-anchor="middle" x="2455" y="-51.8" font-family="Times,serif" font-size="14.00" fill="#5b00c0">rw</text>
</g>
</g>
</svg>
