<?xml version="1.0" encoding="UTF-8" standalone="no"?>
<!DOCTYPE svg PUBLIC "-//W3C//DTD SVG 1.1//EN"
 "http://www.w3.org/Graphics/SVG/1.1/DTD/svg11.dtd">
<!-- Generated by graphviz version 2.40.1 (20161225.0304)
 -->
<!-- Title: a_graph Pages: 1 -->
<svg width="2146pt" height="119pt"
 viewBox="0.00 0.00 2146.00 119.00" xmlns="http://www.w3.org/2000/svg" xmlns:xlink="http://www.w3.org/1999/xlink">
<g id="graph0" class="graph" transform="scale(1 1) rotate(0) translate(4 115)">
<title>a_graph</title>
<polygon fill="#ffffff" stroke="transparent" points="-4,4 -4,-115 2142,-115 2142,4 -4,4"/>
<!-- T20521 -->
<g id="node1" class="node">
<title>T20521</title>
<polygon fill="none" stroke="#0058ad" points="0,-81.5 0,-110.5 2138,-110.5 2138,-81.5 0,-81.5"/>
<text text-anchor="middle" x="497" y="-92.3" font-family="Times,serif" font-size="14.00" fill="#0058ad">r 104 [1 2 3 6 7 5 8 4 9 10 11 12 13 14 15 16 17 18 19 20 21 23 24 25 22 27 28 29 30 31 32 33 34 35 36 37 38 39 26 41 42 40 44 43 47 45 46 48 49 51 52 53 54 50 55 56 57 58]</text>
<polyline fill="none" stroke="#0058ad" points="994,-81.5 994,-110.5 "/>
<text text-anchor="middle" x="1534" y="-92.3" font-family="Times,serif" font-size="14.00" fill="#0058ad">r 102 [1 4 3 2 5 6 7 8 9 10 11 12 13 14 16 15 17 18 19 20 21 23 22 24 27 25 28 29 30 31 26 32 33 34 35 36 37 38 40 41 42 39 43 44 45 46 47 49 48 50 51 52 53 54 55 56 57 58 59 60 61 62 63]</text>
<polyline fill="none" stroke="#0058ad" points="2074,-81.5 2074,-110.5 "/>
<text text-anchor="middle" x="2106" y="-92.3" font-family="Times,serif" font-size="14.00" fill="#0058ad">a 101 23</text>
</g>
<!-- T20525 -->
<g id="node2" class="node">
<title>T20525</title>
<polygon fill="none" stroke="#0058ad" points="561,-.5 561,-29.5 2043,-29.5 2043,-.5 561,-.5"/>
<text text-anchor="middle" x="1101" y="-11.3" font-family="Times,serif" font-size="14.00" fill="#0058ad">r 102 [1 4 3 2 5 6 7 8 9 10 11 12 13 14 16 15 17 18 19 20 21 23 22 24 27 25 28 29 30 31 26 32 33 34 35 36 37 38 40 41 42 39 43 44 45 46 47 49 48 50 51 52 53 54 55 56 57 58 59 60 61 62 63]</text>
<polyline fill="none" stroke="#0058ad" points="1641,-.5 1641,-29.5 "/>
<text text-anchor="middle" x="1673" y="-11.3" font-family="Times,serif" font-size="14.00" fill="#0058ad">a 102 64</text>
<polyline fill="none" stroke="#0058ad" points="1705,-.5 1705,-29.5 "/>
<text text-anchor="middle" x="1874" y="-11.3" font-family="Times,serif" font-size="14.00" fill="#0058ad">r 101 [1 2 3 4 5 7 6 8 9 10 12 14 15 16 17 18 19 20 21 22]</text>
</g>
<!-- T20521&#45;&gt;T20525 -->
<g id="edge1" class="edge">
<title>T20521:f1&#45;&gt;T20525:f1</title>
<path fill="none" stroke="#5b00c0" d="M1534,-81C1534,-19.051 1657.1882,-86.861 1671.6243,-40.1181"/>
<polygon fill="#5b00c0" stroke="#5b00c0" points="1675.1207,-40.3804 1673,-30 1668.1846,-39.4373 1675.1207,-40.3804"/>
<text text-anchor="middle" x="1672.5" y="-51.8" font-family="Times,serif" font-size="14.00" fill="#5b00c0">rw</text>
</g>
<!-- T20525&#45;&gt;T20521 -->
<g id="edge2" class="edge">
<title>T20525:f2&#45;&gt;T20521:f2</title>
<path fill="none" stroke="#5b00c0" d="M2043,-15C2080.0668,-15 2102.008,-36.2623 2105.5054,-70.8864"/>
<polygon fill="#5b00c0" stroke="#5b00c0" points="2102.0156,-71.1829 2106,-81 2109.0073,-70.8409 2102.0156,-71.1829"/>
<text text-anchor="middle" x="2111.5" y="-51.8" font-family="Times,serif" font-size="14.00" fill="#5b00c0">rw</text>
</g>
</g>
</svg>
