<?xml version="1.0" encoding="UTF-8" standalone="no"?>
<!DOCTYPE svg PUBLIC "-//W3C//DTD SVG 1.1//EN"
 "http://www.w3.org/Graphics/SVG/1.1/DTD/svg11.dtd">
<!-- Generated by graphviz version 2.40.1 (20161225.0304)
 -->
<!-- Title: a_graph Pages: 1 -->
<svg width="3880pt" height="281pt"
 viewBox="0.00 0.00 3879.64 281.00" xmlns="http://www.w3.org/2000/svg" xmlns:xlink="http://www.w3.org/1999/xlink">
<g id="graph0" class="graph" transform="scale(1 1) rotate(0) translate(4 277)">
<title>a_graph</title>
<polygon fill="#ffffff" stroke="transparent" points="-4,4 -4,-277 3875.6359,-277 3875.6359,4 -4,4"/>
<!-- T7237 -->
<g id="node1" class="node">
<title>T7237</title>
<polygon fill="none" stroke="#0058ad" points="656.6359,-243.5 656.6359,-272.5 3871.6359,-272.5 3871.6359,-243.5 656.6359,-243.5"/>
<text text-anchor="middle" x="1107.1359" y="-254.3" font-family="Times,serif" font-size="14.00" fill="#0058ad">r 41 [2 3 1 4 5 6 7 8 9 10 11 12 15 16 17 13 14 18 19 20 21 22 23 25 26 24 27 28 29 30 31 32 33 34 35 36 38 39 40 37 41 44 45 46 47 43 48 49 50 42 52 53 54]</text>
<polyline fill="none" stroke="#0058ad" points="1557.6359,-243.5 1557.6359,-272.5 "/>
<text text-anchor="middle" x="1589.6359" y="-254.3" font-family="Times,serif" font-size="14.00" fill="#0058ad">a 36 128</text>
<polyline fill="none" stroke="#0058ad" points="1621.6359,-243.5 1621.6359,-272.5 "/>
<text text-anchor="middle" x="1646.6359" y="-254.3" font-family="Times,serif" font-size="14.00" fill="#0058ad">a 3 32</text>
<polyline fill="none" stroke="#0058ad" points="1671.6359,-243.5 1671.6359,-272.5 "/>
<text text-anchor="middle" x="2771.6359" y="-254.3" font-family="Times,serif" font-size="14.00" fill="#0058ad">r 36 [1 2 6 9 10 11 13 14 12 15 16 17 18 19 20 21 22 23 24 25 26 27 28 29 30 31 32 33 34 35 36 37 38 39 41 40 42 44 43 45 46 47 48 49 51 50 52 53 55 54 57 58 56 59 60 61 62 63 64 65 66 67 68 69 72 73 71 74 75 76 77 79 78 80 81 82 84 85 88 92 95 96 90 91 97 99 100 101 102 103 104 106 107 108 110 105 109 111 113 115 114 112 116 117 118 119 120 121 122 124 123 125 126 127 128]</text>
</g>
<!-- T7233 -->
<g id="node3" class="node">
<title>T7233</title>
<polygon fill="none" stroke="#0058ad" points="501.6359,-162.5 501.6359,-191.5 2734.6359,-191.5 2734.6359,-162.5 501.6359,-162.5"/>
<text text-anchor="middle" x="1589.6359" y="-173.3" font-family="Times,serif" font-size="14.00" fill="#0058ad">r 36 [1 2 6 9 10 11 13 14 12 15 16 17 18 19 20 21 22 23 24 25 26 27 28 29 30 31 32 33 34 35 36 37 38 39 41 40 42 44 43 45 46 47 48 49 51 50 52 53 55 54 57 58 56 59 60 61 62 63 64 65 66 67 68 69 72 73 71 74 75 76 77 79 78 80 81 82 84 85 88 92 95 96 90 91 97 99 100 101 102 103 104 106 107 108 110 105 109 111 113 115 114 112 116 117 118 119 120 121 122 124 123 125 126 127]</text>
<polyline fill="none" stroke="#0058ad" points="2677.6359,-162.5 2677.6359,-191.5 "/>
<text text-anchor="middle" x="2706.1359" y="-173.3" font-family="Times,serif" font-size="14.00" fill="#0058ad">a 41 55</text>
</g>
<!-- T7237&#45;&gt;T7233 -->
<g id="edge1" class="edge">
<title>T7237:f0&#45;&gt;T7233:f1</title>
<path fill="none" stroke="#5b00c0" d="M1107.1359,-243C1107.1359,-143.8396 1453.075,-214.4418 1552.1359,-210 1567.2737,-209.3212 2585.0241,-208.1651 2696.2953,-194.4996"/>
<polygon fill="#5b00c0" stroke="#5b00c0" points="2697.3053,-197.8543 2706.1359,-192 2695.5819,-191.0697 2697.3053,-197.8543"/>
<text text-anchor="middle" x="1559.6359" y="-213.8" font-family="Times,serif" font-size="14.00" fill="#5b00c0">rw</text>
</g>
<!-- T7239 -->
<g id="node2" class="node">
<title>T7239</title>
<polygon fill="none" stroke="#0058ad" points="4.1359,-.5 4.1359,-29.5 2344.1359,-29.5 2344.1359,-.5 4.1359,-.5"/>
<text text-anchor="middle" x="1092.1359" y="-11.3" font-family="Times,serif" font-size="14.00" fill="#0058ad">r 36 [1 2 6 9 10 11 13 14 12 15 16 17 18 19 20 21 22 23 24 25 26 27 28 29 30 31 32 33 34 35 36 37 38 39 41 40 42 44 43 45 46 47 48 49 51 50 52 53 55 54 57 58 56 59 60 61 62 63 64 65 66 67 68 69 72 73 71 74 75 76 77 79 78 80 81 82 84 85 88 92 95 96 90 91 97 99 100 101 102 103 104 106 107 108 110 105 109 111 113 115 114 112 116 117 118 119 120 121 122 124 123 125 126 127]</text>
<polyline fill="none" stroke="#0058ad" points="2180.1359,-.5 2180.1359,-29.5 "/>
<text text-anchor="middle" x="2208.6359" y="-11.3" font-family="Times,serif" font-size="14.00" fill="#0058ad">a 41 56</text>
<polyline fill="none" stroke="#0058ad" points="2237.1359,-.5 2237.1359,-29.5 "/>
<text text-anchor="middle" x="2262.1359" y="-11.3" font-family="Times,serif" font-size="14.00" fill="#0058ad">a 40 5</text>
<polyline fill="none" stroke="#0058ad" points="2287.1359,-.5 2287.1359,-29.5 "/>
<text text-anchor="middle" x="2315.6359" y="-11.3" font-family="Times,serif" font-size="14.00" fill="#0058ad">a 38 50</text>
</g>
<!-- T7239&#45;&gt;T7237 -->
<g id="edge2" class="edge">
<title>T7239:f0&#45;&gt;T7237:f1</title>
<path fill="none" stroke="#5b00c0" d="M4.1359,-15C-2.5308,-15 .2345,-24.5941 4.1359,-30 137.8722,-215.3089 267.5915,-149.5191 492.1359,-192 761.9637,-243.0479 834.8054,-212.5209 1109.1359,-225 1121.3193,-225.5542 1512.2748,-228.9865 1579.3803,-239.7622"/>
<polygon fill="#5b00c0" stroke="#5b00c0" points="1578.5424,-243.1718 1589.1359,-243 1580.7474,-236.5282 1578.5424,-243.1718"/>
<text text-anchor="middle" x="143.6359" y="-132.8" font-family="Times,serif" font-size="14.00" fill="#5b00c0">rw</text>
</g>
<!-- T7233&#45;&gt;T7237 -->
<g id="edge4" class="edge">
<title>T7233:f0&#45;&gt;T7237:f1</title>
<path fill="none" stroke="#5b00c0" d="M1589.1359,-192C1589.1359,-210.7708 1589.1359,-217.8832 1589.1359,-232.6465"/>
<polygon fill="#5b00c0" stroke="#5b00c0" points="1585.6359,-233 1589.1359,-243 1592.6359,-233 1585.6359,-233"/>
<text text-anchor="middle" x="1596.6359" y="-213.8" font-family="Times,serif" font-size="14.00" fill="#5b00c0">rw</text>
</g>
<!-- T7233&#45;&gt;T7239 -->
<g id="edge5" class="edge">
<title>T7233:f1&#45;&gt;T7239:f1</title>
<path fill="none" stroke="#c02700" d="M2706.1359,-162C2706.1359,-52.965 2295.4865,-187.8474 2218.1359,-111 2194.9493,-87.9643 2206.2792,-70.0411 2208.7132,-40.1479"/>
<polygon fill="#c02700" stroke="#c02700" points="2212.2166,-40.137 2209.1359,-30 2205.2227,-39.8457 2212.2166,-40.137"/>
<text text-anchor="middle" x="2228.1359" y="-92.3" font-family="Times,serif" font-size="14.00" fill="#c02700">ww</text>
</g>
<!-- T7235 -->
<g id="node4" class="node">
<title>T7235</title>
<polygon fill="none" stroke="#0058ad" points="2247.1359,-81.5 2247.1359,-110.5 3165.1359,-110.5 3165.1359,-81.5 2247.1359,-81.5"/>
<text text-anchor="middle" x="2706.1359" y="-92.3" font-family="Times,serif" font-size="14.00" fill="#0058ad">r 41 [2 3 1 4 5 6 7 8 9 10 11 12 15 16 17 13 14 18 19 20 21 22 23 25 26 24 27 28 29 30 31 32 33 34 35 36 38 39 40 37 41 44 45 46 47 43 48 49 50 42 52 53 54 55]</text>
</g>
<!-- T7233&#45;&gt;T7235 -->
<g id="edge3" class="edge">
<title>T7233:f1&#45;&gt;T7235:f0</title>
<path fill="none" stroke="#c000a5" d="M2706.1359,-162C2706.1359,-148.3521 2706.1359,-133.1166 2706.1359,-120.7254"/>
<polygon fill="#c000a5" stroke="#c000a5" points="2709.636,-120.6796 2706.1359,-110.6796 2702.636,-120.6797 2709.636,-120.6796"/>
<text text-anchor="middle" x="2713.6359" y="-132.8" font-family="Times,serif" font-size="14.00" fill="#c000a5">wr</text>
</g>
<!-- T7235&#45;&gt;T7239 -->
<g id="edge6" class="edge">
<title>T7235:f0&#45;&gt;T7239:f1</title>
<path fill="none" stroke="#5b00c0" d="M2428.2122,-81.4942C2328.7198,-72.8999 2235.6088,-59.5588 2213.8856,-39.1742"/>
<polygon fill="#5b00c0" stroke="#5b00c0" points="2216.8417,-37.2712 2209.1359,-30 2210.6254,-40.4896 2216.8417,-37.2712"/>
<text text-anchor="middle" x="2288.6359" y="-51.8" font-family="Times,serif" font-size="14.00" fill="#5b00c0">rw</text>
</g>
</g>
</svg>
