<?xml version="1.0" encoding="UTF-8" standalone="no"?>
<!DOCTYPE svg PUBLIC "-//W3C//DTD SVG 1.1//EN"
 "http://www.w3.org/Graphics/SVG/1.1/DTD/svg11.dtd">
<!-- Generated by graphviz version 2.40.1 (20161225.0304)
 -->
<!-- Title: a_graph Pages: 1 -->
<svg width="3843pt" height="119pt"
 viewBox="0.00 0.00 3842.50 119.00" xmlns="http://www.w3.org/2000/svg" xmlns:xlink="http://www.w3.org/1999/xlink">
<g id="graph0" class="graph" transform="scale(1 1) rotate(0) translate(4 115)">
<title>a_graph</title>
<polygon fill="#ffffff" stroke="transparent" points="-4,4 -4,-115 3838.5,-115 3838.5,4 -4,4"/>
<!-- T5985 -->
<g id="node1" class="node">
<title>T5985</title>
<polygon fill="none" stroke="#0058ad" points="0,-81.5 0,-110.5 3674,-110.5 3674,-81.5 0,-81.5"/>
<text text-anchor="middle" x="536.5" y="-92.3" font-family="Times,serif" font-size="14.00" fill="#0058ad">r 33 [2 3 1 4 5 6 7 9 10 11 8 13 14 12 16 17 15 18 20 21 19 22 23 24 25 26 27 28 29 30 31 32 33 34 35 36 37 38 39 40 41 42 43 45 44 46 49 50 51 52 53 54 55 57 58 59 60 56 61 62 63 64 65]</text>
<polyline fill="none" stroke="#0058ad" points="1073,-81.5 1073,-110.5 "/>
<text text-anchor="middle" x="1799.5" y="-92.3" font-family="Times,serif" font-size="14.00" fill="#0058ad">r 34 [1 2 3 4 5 7 6 8 10 11 9 13 14 15 16 12 17 19 20 21 22 23 26 27 29 18 32 30 31 33 34 35 36 38 37 39 40 41 46 43 44 45 47 48 49 50 51 52 53 55 59 60 61 63 65 66 67 62 68 69 70 64 71 72 74 75 76 73 77 79 80 82 81 83 84 78 85 86 87 89 91 88 92 90 95]</text>
<polyline fill="none" stroke="#0058ad" points="2526,-81.5 2526,-110.5 "/>
<text text-anchor="middle" x="2554.5" y="-92.3" font-family="Times,serif" font-size="14.00" fill="#0058ad">a 33 67</text>
<polyline fill="none" stroke="#0058ad" points="2583,-81.5 2583,-110.5 "/>
<text text-anchor="middle" x="3128.5" y="-92.3" font-family="Times,serif" font-size="14.00" fill="#0058ad">r 33 [2 3 1 4 5 6 7 9 10 11 8 13 14 12 16 17 15 18 20 21 19 22 23 24 25 26 27 28 29 30 31 32 33 34 35 36 37 38 39 40 41 42 43 45 44 46 49 50 51 52 53 54 55 57 58 59 60 56 61 62 63 64 65 67]</text>
</g>
<!-- T5987 -->
<g id="node2" class="node">
<title>T5987</title>
<polygon fill="none" stroke="#0058ad" points="1177.5,-.5 1177.5,-29.5 3834.5,-29.5 3834.5,-.5 1177.5,-.5"/>
<text text-anchor="middle" x="1714" y="-11.3" font-family="Times,serif" font-size="14.00" fill="#0058ad">r 33 [2 3 1 4 5 6 7 9 10 11 8 13 14 12 16 17 15 18 20 21 19 22 23 24 25 26 27 28 29 30 31 32 33 34 35 36 37 38 39 40 41 42 43 45 44 46 49 50 51 52 53 54 55 57 58 59 60 56 61 62 63 64 65]</text>
<polyline fill="none" stroke="#0058ad" points="2250.5,-.5 2250.5,-29.5 "/>
<text text-anchor="middle" x="2279" y="-11.3" font-family="Times,serif" font-size="14.00" fill="#0058ad">a 34 94</text>
<polyline fill="none" stroke="#0058ad" points="2307.5,-.5 2307.5,-29.5 "/>
<text text-anchor="middle" x="3042.5" y="-11.3" font-family="Times,serif" font-size="14.00" fill="#0058ad">r 34 [1 2 3 4 5 7 6 8 10 11 9 13 14 15 16 12 17 19 20 21 22 23 26 27 29 18 32 30 31 33 34 35 36 38 37 39 40 41 46 43 44 45 47 48 49 50 51 52 53 55 59 60 61 63 65 66 67 62 68 69 70 64 71 72 74 75 76 73 77 79 80 82 81 83 84 78 85 86 87 89 91 88 92 90 95 94]</text>
<polyline fill="none" stroke="#0058ad" points="3777.5,-.5 3777.5,-29.5 "/>
<text text-anchor="middle" x="3806" y="-11.3" font-family="Times,serif" font-size="14.00" fill="#0058ad">a 31 83</text>
</g>
<!-- T5985&#45;&gt;T5987 -->
<g id="edge1" class="edge">
<title>T5985:f1&#45;&gt;T5987:f1</title>
<path fill="none" stroke="#5b00c0" d="M1799,-81C1799,129.9725 2263.1948,-232.1444 2278.6075,-40.2002"/>
<polygon fill="#5b00c0" stroke="#5b00c0" points="2282.1128,-40.1272 2279,-30 2275.118,-39.858 2282.1128,-40.1272"/>
<text text-anchor="middle" x="2284.5" y="-51.8" font-family="Times,serif" font-size="14.00" fill="#5b00c0">rw</text>
</g>
<!-- T5987&#45;&gt;T5985 -->
<g id="edge2" class="edge">
<title>T5987:f0&#45;&gt;T5985:f2</title>
<path fill="none" stroke="#5b00c0" d="M1714,-30C1714,-46.1744 2279.8758,-46.7264 2296,-48 2408.0664,-56.8519 2546.0696,29.3795 2554.5853,-70.7217"/>
<polygon fill="#5b00c0" stroke="#5b00c0" points="2551.0996,-71.1492 2555,-81 2558.094,-70.867 2551.0996,-71.1492"/>
<text text-anchor="middle" x="2560.5" y="-51.8" font-family="Times,serif" font-size="14.00" fill="#5b00c0">rw</text>
</g>
</g>
</svg>
