<?xml version="1.0" encoding="UTF-8" standalone="no"?>
<!DOCTYPE svg PUBLIC "-//W3C//DTD SVG 1.1//EN"
 "http://www.w3.org/Graphics/SVG/1.1/DTD/svg11.dtd">
<!-- Generated by graphviz version 2.40.1 (20161225.0304)
 -->
<!-- Title: a_graph Pages: 1 -->
<svg width="5953pt" height="119pt"
 viewBox="0.00 0.00 5953.00 119.00" xmlns="http://www.w3.org/2000/svg" xmlns:xlink="http://www.w3.org/1999/xlink">
<g id="graph0" class="graph" transform="scale(1 1) rotate(0) translate(4 115)">
<title>a_graph</title>
<polygon fill="#ffffff" stroke="transparent" points="-4,4 -4,-115 5949,-115 5949,4 -4,4"/>
<!-- T21023 -->
<g id="node1" class="node">
<title>T21023</title>
<polygon fill="none" stroke="#0058ad" points="430,-81.5 430,-110.5 5945,-110.5 5945,-81.5 430,-81.5"/>
<text text-anchor="middle" x="462" y="-92.3" font-family="Times,serif" font-size="14.00" fill="#0058ad">a 106 84</text>
<polyline fill="none" stroke="#0058ad" points="494,-81.5 494,-110.5 "/>
<text text-anchor="middle" x="1567.5" y="-92.3" font-family="Times,serif" font-size="14.00" fill="#0058ad">r 102 [1 4 3 2 5 6 7 8 9 10 11 12 13 14 16 15 17 18 19 20 21 23 22 24 27 25 28 29 30 31 26 32 33 34 35 36 37 38 40 41 42 39 43 44 45 46 47 49 48 50 51 52 53 54 55 56 57 58 59 60 61 62 63 64 65 66 67 68 69 70 71 73 74 75 76 77 80 79 81 82 84 83 85 86 87 88 89 90 91 92 93 94 95 96 97 98 99 100 101 102 103 104 105 106 107 108 109 110 111 112 113 114 115 116 118 117 119]</text>
<polyline fill="none" stroke="#0058ad" points="2641,-81.5 2641,-110.5 "/>
<text text-anchor="middle" x="3589" y="-92.3" font-family="Times,serif" font-size="14.00" fill="#0058ad">r 105 [2 3 4 5 6 1 8 9 10 11 12 13 14 15 16 17 7 18 20 19 21 23 22 24 25 27 28 29 30 26 31 32 33 34 35 36 37 39 40 41 42 43 44 45 46 47 49 51 48 54 50 56 57 58 59 60 61 62 64 65 63 67 68 69 66 70 71 72 73 75 76 74 77 78 79 80 81 83 84 82 85 86 87 88 89 90 91 92 93 95 94 96 97 98 99 100 101 102 103 104 106 105 107 108 109 110]</text>
<polyline fill="none" stroke="#0058ad" points="4537,-81.5 4537,-110.5 "/>
<text text-anchor="middle" x="5241" y="-92.3" font-family="Times,serif" font-size="14.00" fill="#0058ad">r 106 [1 4 2 3 6 7 8 5 9 11 12 10 13 14 15 16 17 18 19 20 22 23 24 21 26 27 28 25 30 31 32 33 34 35 29 36 37 38 39 40 41 42 43 44 45 46 47 48 49 51 52 53 54 55 50 56 57 58 59 60 61 63 64 62 65 66 67 68 69 70 71 72 74 75 73 77 78 76 79 80 81 84]</text>
</g>
<!-- T21029 -->
<g id="node2" class="node">
<title>T21029</title>
<polygon fill="none" stroke="#0058ad" points="0,-.5 0,-29.5 1533,-29.5 1533,-.5 0,-.5"/>
<text text-anchor="middle" x="695.5" y="-11.3" font-family="Times,serif" font-size="14.00" fill="#0058ad">r 106 [1 4 2 3 6 7 8 5 9 11 12 10 13 14 15 16 17 18 19 20 22 23 24 21 26 27 28 25 30 31 32 33 34 35 29 36 37 38 39 40 41 42 43 44 45 46 47 48 49 51 52 53 54 55 50 56 57 58 59 60 61 63 64 62 65 66 67 68 69 70 71 72 74 75 73 77 78 76 79 80 81]</text>
<polyline fill="none" stroke="#0058ad" points="1391,-.5 1391,-29.5 "/>
<text text-anchor="middle" x="1426.5" y="-11.3" font-family="Times,serif" font-size="14.00" fill="#0058ad">a 102 120</text>
<polyline fill="none" stroke="#0058ad" points="1462,-.5 1462,-29.5 "/>
<text text-anchor="middle" x="1497.5" y="-11.3" font-family="Times,serif" font-size="14.00" fill="#0058ad">a 102 121</text>
</g>
<!-- T21023&#45;&gt;T21029 -->
<g id="edge1" class="edge">
<title>T21023:f1&#45;&gt;T21029:f1</title>
<path fill="none" stroke="#5b00c0" d="M1567.5,-81C1567.5,-18.1345 1442.0203,-87.797 1427.8058,-39.9444"/>
<polygon fill="#5b00c0" stroke="#5b00c0" points="1431.2722,-39.4592 1426.5,-30 1424.3318,-40.3706 1431.2722,-39.4592"/>
<text text-anchor="middle" x="1569" y="-51.8" font-family="Times,serif" font-size="14.00" fill="#5b00c0">rw</text>
</g>
<!-- T21029&#45;&gt;T21023 -->
<g id="edge2" class="edge">
<title>T21029:f0&#45;&gt;T21023:f0</title>
<path fill="none" stroke="#5b00c0" d="M695.5,-30C695.5,-132.8033 477.2227,14.6887 462.3014,-71.0046"/>
<polygon fill="#5b00c0" stroke="#5b00c0" points="458.8105,-70.7522 461.5,-81 465.7881,-71.3118 458.8105,-70.7522"/>
<text text-anchor="middle" x="698" y="-51.8" font-family="Times,serif" font-size="14.00" fill="#5b00c0">rw</text>
</g>
</g>
</svg>
