<?xml version="1.0" encoding="UTF-8" standalone="no"?>
<!DOCTYPE svg PUBLIC "-//W3C//DTD SVG 1.1//EN"
 "http://www.w3.org/Graphics/SVG/1.1/DTD/svg11.dtd">
<!-- Generated by graphviz version 2.40.1 (20161225.0304)
 -->
<!-- Title: a_graph Pages: 1 -->
<svg width="3720pt" height="119pt"
 viewBox="0.00 0.00 3719.50 119.00" xmlns="http://www.w3.org/2000/svg" xmlns:xlink="http://www.w3.org/1999/xlink">
<g id="graph0" class="graph" transform="scale(1 1) rotate(0) translate(4 115)">
<title>a_graph</title>
<polygon fill="#ffffff" stroke="transparent" points="-4,4 -4,-115 3715.5,-115 3715.5,4 -4,4"/>
<!-- T22373 -->
<g id="node1" class="node">
<title>T22373</title>
<polygon fill="none" stroke="#0058ad" points="745.5,-81.5 745.5,-110.5 3711.5,-110.5 3711.5,-81.5 745.5,-81.5"/>
<text text-anchor="middle" x="777.5" y="-92.3" font-family="Times,serif" font-size="14.00" fill="#0058ad">a 111 91</text>
<polyline fill="none" stroke="#0058ad" points="809.5,-81.5 809.5,-110.5 "/>
<text text-anchor="middle" x="1530.5" y="-92.3" font-family="Times,serif" font-size="14.00" fill="#0058ad">r 112 [1 2 3 4 7 5 6 11 12 8 9 10 13 14 15 16 17 18 19 20 21 22 24 23 27 28 29 30 25 26 31 32 33 35 36 37 38 39 40 41 34 42 44 45 46 47 48 52 53 49 50 51 55 56 57 58 43 59 61 62 63 64 67 60 65 66 70 72 73 74 75 71 76 79 80 81 82 85 84 86 87 92 93 94]</text>
<polyline fill="none" stroke="#0058ad" points="2251.5,-81.5 2251.5,-110.5 "/>
<text text-anchor="middle" x="2981.5" y="-92.3" font-family="Times,serif" font-size="14.00" fill="#0058ad">r 111 [1 3 2 4 5 6 7 10 9 12 11 13 14 8 15 16 17 18 20 21 19 22 23 25 24 27 28 26 29 30 31 32 33 34 35 37 36 38 39 40 42 43 41 44 45 46 47 48 49 50 51 52 53 54 55 56 57 58 61 62 63 59 60 65 66 64 68 69 70 72 73 67 74 75 77 79 78 82 85 83 86 87 89 90 91]</text>
</g>
<!-- T22375 -->
<g id="node2" class="node">
<title>T22375</title>
<polygon fill="none" stroke="#0058ad" points="0,-.5 0,-29.5 1627,-29.5 1627,-.5 0,-.5"/>
<text text-anchor="middle" x="28.5" y="-11.3" font-family="Times,serif" font-size="14.00" fill="#0058ad">a 68 96</text>
<polyline fill="none" stroke="#0058ad" points="57,-.5 57,-29.5 "/>
<text text-anchor="middle" x="778" y="-11.3" font-family="Times,serif" font-size="14.00" fill="#0058ad">r 111 [1 3 2 4 5 6 7 10 9 12 11 13 14 8 15 16 17 18 20 21 19 22 23 25 24 27 28 26 29 30 31 32 33 34 35 37 36 38 39 40 42 43 41 44 45 46 47 48 49 50 51 52 53 54 55 56 57 58 61 62 63 59 60 65 66 64 68 69 70 72 73 67 74 75 77 79 78 82 85 83 86 87 89 90]</text>
<polyline fill="none" stroke="#0058ad" points="1499,-.5 1499,-29.5 "/>
<text text-anchor="middle" x="1531" y="-11.3" font-family="Times,serif" font-size="14.00" fill="#0058ad">a 112 95</text>
<polyline fill="none" stroke="#0058ad" points="1563,-.5 1563,-29.5 "/>
<text text-anchor="middle" x="1595" y="-11.3" font-family="Times,serif" font-size="14.00" fill="#0058ad">a 112 96</text>
</g>
<!-- T22373&#45;&gt;T22375 -->
<g id="edge1" class="edge">
<title>T22373:f1&#45;&gt;T22375:f2</title>
<path fill="none" stroke="#5b00c0" d="M1530.5,-81C1530.5,-62.2256 1531.1858,-55.1185 1531.4215,-40.3548"/>
<polygon fill="#5b00c0" stroke="#5b00c0" points="1534.924,-40.0263 1531.5,-30 1527.9242,-39.9732 1534.924,-40.0263"/>
<text text-anchor="middle" x="1538" y="-51.8" font-family="Times,serif" font-size="14.00" fill="#5b00c0">rw</text>
</g>
<!-- T22375&#45;&gt;T22373 -->
<g id="edge2" class="edge">
<title>T22375:f1&#45;&gt;T22373:f0</title>
<path fill="none" stroke="#5b00c0" d="M777.5,-30C777.5,-48.7708 777.5,-55.8832 777.5,-70.6465"/>
<polygon fill="#5b00c0" stroke="#5b00c0" points="774.0001,-71 777.5,-81 781.0001,-71 774.0001,-71"/>
<text text-anchor="middle" x="785" y="-51.8" font-family="Times,serif" font-size="14.00" fill="#5b00c0">rw</text>
</g>
</g>
</svg>
