<?xml version="1.0" encoding="UTF-8" standalone="no"?>
<!DOCTYPE svg PUBLIC "-//W3C//DTD SVG 1.1//EN"
 "http://www.w3.org/Graphics/SVG/1.1/DTD/svg11.dtd">
<!-- Generated by graphviz version 2.40.1 (20161225.0304)
 -->
<!-- Title: a_graph Pages: 1 -->
<svg width="2543pt" height="119pt"
 viewBox="0.00 0.00 2543.00 119.00" xmlns="http://www.w3.org/2000/svg" xmlns:xlink="http://www.w3.org/1999/xlink">
<g id="graph0" class="graph" transform="scale(1 1) rotate(0) translate(4 115)">
<title>a_graph</title>
<polygon fill="#ffffff" stroke="transparent" points="-4,4 -4,-115 2539,-115 2539,4 -4,4"/>
<!-- T21829 -->
<g id="node1" class="node">
<title>T21829</title>
<polygon fill="none" stroke="#0058ad" points="426,-81.5 426,-110.5 1331,-110.5 1331,-81.5 426,-81.5"/>
<text text-anchor="middle" x="458" y="-92.3" font-family="Times,serif" font-size="14.00" fill="#0058ad">a 108 58</text>
<polyline fill="none" stroke="#0058ad" points="490,-81.5 490,-110.5 "/>
<text text-anchor="middle" x="875" y="-92.3" font-family="Times,serif" font-size="14.00" fill="#0058ad">r 110 [1 2 3 4 5 6 8 9 10 11 12 7 14 13 15 16 17 19 18 20 21 22 23 24 25 28 29 30 33 31 32 38 36 40 41 48 49 44 45 50 43 51 52 53 54]</text>
<polyline fill="none" stroke="#0058ad" points="1260,-81.5 1260,-110.5 "/>
<text text-anchor="middle" x="1295.5" y="-92.3" font-family="Times,serif" font-size="14.00" fill="#0058ad">a 107 123</text>
</g>
<!-- T21827 -->
<g id="node2" class="node">
<title>T21827</title>
<polygon fill="none" stroke="#0058ad" points="0,-.5 0,-29.5 2535,-29.5 2535,-.5 0,-.5"/>
<text text-anchor="middle" x="32" y="-11.3" font-family="Times,serif" font-size="14.00" fill="#0058ad">a 110 55</text>
<polyline fill="none" stroke="#0058ad" points="64,-.5 64,-29.5 "/>
<text text-anchor="middle" x="457.5" y="-11.3" font-family="Times,serif" font-size="14.00" fill="#0058ad">r 110 [1 2 3 4 5 6 8 9 10 11 12 7 14 13 15 16 17 19 18 20 21 22 23 24 25 28 29 30 33 31 32 38 36 40 41 48 49 44 45 50 43 51 52 53 54 55]</text>
<polyline fill="none" stroke="#0058ad" points="851,-.5 851,-29.5 "/>
<text text-anchor="middle" x="1299.5" y="-11.3" font-family="Times,serif" font-size="14.00" fill="#0058ad">r 108 [1 2 3 4 5 6 7 8 11 13 14 15 16 17 18 19 20 21 22 23 24 25 26 27 28 29 31 30 32 33 34 35 36 37 38 39 40 41 42 43 44 45 46 47 48 49 50 51 52 53 55 56]</text>
<polyline fill="none" stroke="#0058ad" points="1748,-.5 1748,-29.5 "/>
<text text-anchor="middle" x="2141.5" y="-11.3" font-family="Times,serif" font-size="14.00" fill="#0058ad">r 110 [1 2 3 4 5 6 8 9 10 11 12 7 14 13 15 16 17 19 18 20 21 22 23 24 25 28 29 30 33 31 32 38 36 40 41 48 49 44 45 50 43 51 52 53 54 55]</text>
</g>
<!-- T21829&#45;&gt;T21827 -->
<g id="edge1" class="edge">
<title>T21829:f1&#45;&gt;T21827:f0</title>
<path fill="none" stroke="#5b00c0" d="M874.5,-81C874.5,54.463 706.6226,-57.5966 571.5,-48 557.7282,-47.0219 112.316,-45.3116 41.0687,-33.3602"/>
<polygon fill="#5b00c0" stroke="#5b00c0" points="42.0948,-30.011 31.5,-30 39.7755,-36.6156 42.0948,-30.011"/>
<text text-anchor="middle" x="880" y="-51.8" font-family="Times,serif" font-size="14.00" fill="#5b00c0">rw</text>
</g>
<!-- T21827&#45;&gt;T21829 -->
<g id="edge2" class="edge">
<title>T21827:f2&#45;&gt;T21829:f0</title>
<path fill="none" stroke="#5b00c0" d="M1299.5,-30C1299.5,-50.756 572.9236,-44.3002 552.5,-48 512.2984,-55.2827 466.2169,-39.4787 458.5935,-70.8441"/>
<polygon fill="#5b00c0" stroke="#5b00c0" points="455.0907,-70.6827 457.5,-81 462.0505,-71.4322 455.0907,-70.6827"/>
<text text-anchor="middle" x="560" y="-51.8" font-family="Times,serif" font-size="14.00" fill="#5b00c0">rw</text>
</g>
</g>
</svg>
