<?xml version="1.0" encoding="UTF-8" standalone="no"?>
<!DOCTYPE svg PUBLIC "-//W3C//DTD SVG 1.1//EN"
 "http://www.w3.org/Graphics/SVG/1.1/DTD/svg11.dtd">
<!-- Generated by graphviz version 2.40.1 (20161225.0304)
 -->
<!-- Title: a_graph Pages: 1 -->
<svg width="2937pt" height="200pt"
 viewBox="0.00 0.00 2936.50 200.00" xmlns="http://www.w3.org/2000/svg" xmlns:xlink="http://www.w3.org/1999/xlink">
<g id="graph0" class="graph" transform="scale(1 1) rotate(0) translate(4 196)">
<title>a_graph</title>
<polygon fill="#ffffff" stroke="transparent" points="-4,4 -4,-196 2932.5,-196 2932.5,4 -4,4"/>
<!-- T18675 -->
<g id="node1" class="node">
<title>T18675</title>
<polygon fill="none" stroke="#0058ad" points="17.5,-162.5 17.5,-191.5 2928.5,-191.5 2928.5,-162.5 17.5,-162.5"/>
<text text-anchor="middle" x="42.5" y="-173.3" font-family="Times,serif" font-size="14.00" fill="#0058ad">a 95 8</text>
<polyline fill="none" stroke="#0058ad" points="67.5,-162.5 67.5,-191.5 "/>
<text text-anchor="middle" x="857.5" y="-173.3" font-family="Times,serif" font-size="14.00" fill="#0058ad">r 94 [1 2 3 4 5 6 7 8 10 11 12 13 15 14 18 16 17 20 21 22 23 19 24 26 27 28 29 25 32 35 36 37 38 39 40 41 45 46 43 44 47 48 51 52 49 50 54 55 56 57 58 53 59 61 60 63 64 62 65 66 68 69 70 67 71 73 72 75 76 74 77 79 80 81 82 83 84 85 87 86 78 88 89 90 91 92 94 95 93 96 97 98]</text>
<polyline fill="none" stroke="#0058ad" points="1647.5,-162.5 1647.5,-191.5 "/>
<text text-anchor="middle" x="2263" y="-173.3" font-family="Times,serif" font-size="14.00" fill="#0058ad">r 72 [1 2 3 4 5 6 7 8 9 10 11 13 14 15 16 17 18 19 20 21 22 23 24 26 25 27 28 29 30 31 32 33 34 35 36 37 38 39 41 42 43 44 45 46 47 48 49 50 51 52 53 55 56 57 58 59 95 96 98 97 99 100 101 103 104 105 106 107 108]</text>
<polyline fill="none" stroke="#0058ad" points="2878.5,-162.5 2878.5,-191.5 "/>
<text text-anchor="middle" x="2903.5" y="-173.3" font-family="Times,serif" font-size="14.00" fill="#0058ad">a 95 9</text>
</g>
<!-- T18667 -->
<g id="node3" class="node">
<title>T18667</title>
<polygon fill="none" stroke="#0058ad" points="75,-81.5 75,-110.5 253,-110.5 253,-81.5 75,-81.5"/>
<text text-anchor="middle" x="103.5" y="-92.3" font-family="Times,serif" font-size="14.00" fill="#0058ad">a 94 99</text>
<polyline fill="none" stroke="#0058ad" points="132,-81.5 132,-110.5 "/>
<text text-anchor="middle" x="192.5" y="-92.3" font-family="Times,serif" font-size="14.00" fill="#0058ad">r 95 [1 3 2 4 5 6 7]</text>
</g>
<!-- T18675&#45;&gt;T18667 -->
<g id="edge1" class="edge">
<title>T18675:f1&#45;&gt;T18667:f0</title>
<path fill="none" stroke="#5b00c0" d="M857,-162C857,-142.1604 161.5852,-150.9426 143,-144 125.121,-137.3212 109.4224,-134.8784 104.5542,-121.1472"/>
<polygon fill="#5b00c0" stroke="#5b00c0" points="107.9738,-120.3548 103,-111 101.0545,-121.4147 107.9738,-120.3548"/>
<text text-anchor="middle" x="150.5" y="-132.8" font-family="Times,serif" font-size="14.00" fill="#5b00c0">rw</text>
</g>
<!-- T18677 -->
<g id="node2" class="node">
<title>T18677</title>
<polygon fill="none" stroke="#0058ad" points="0,-.5 0,-29.5 292,-29.5 292,-.5 0,-.5"/>
<text text-anchor="middle" x="60.5" y="-11.3" font-family="Times,serif" font-size="14.00" fill="#0058ad">r 95 [1 3 2 4 5 6 7]</text>
<polyline fill="none" stroke="#0058ad" points="121,-.5 121,-29.5 "/>
<text text-anchor="middle" x="146" y="-11.3" font-family="Times,serif" font-size="14.00" fill="#0058ad">a 2 40</text>
<polyline fill="none" stroke="#0058ad" points="171,-.5 171,-29.5 "/>
<text text-anchor="middle" x="231.5" y="-11.3" font-family="Times,serif" font-size="14.00" fill="#0058ad">r 95 [1 3 2 4 5 6 7]</text>
</g>
<!-- T18677&#45;&gt;T18675 -->
<g id="edge2" class="edge">
<title>T18677:f0&#45;&gt;T18675:f0</title>
<path fill="none" stroke="#5b00c0" d="M60,-30C60,-53.0169 54.2726,-58.2169 51,-81 46.373,-113.2122 42.7954,-123.6878 42.1165,-151.7516"/>
<polygon fill="#5b00c0" stroke="#5b00c0" points="38.614,-151.9608 42,-162 45.6135,-152.0405 38.614,-151.9608"/>
<text text-anchor="middle" x="58.5" y="-92.3" font-family="Times,serif" font-size="14.00" fill="#5b00c0">rw</text>
</g>
<!-- T18667&#45;&gt;T18675 -->
<g id="edge3" class="edge">
<title>T18667:f1&#45;&gt;T18675:f0</title>
<path fill="none" stroke="#5b00c0" d="M193,-111C193,-132.3796 177.2047,-134.6051 158,-144 137.9541,-153.8064 67.3136,-140.9169 47.3128,-153.3176"/>
<polygon fill="#5b00c0" stroke="#5b00c0" points="44.2341,-151.6434 42,-162 50.2049,-155.297 44.2341,-151.6434"/>
<text text-anchor="middle" x="193.5" y="-132.8" font-family="Times,serif" font-size="14.00" fill="#5b00c0">rw</text>
</g>
<!-- T18667&#45;&gt;T18677 -->
<g id="edge4" class="edge">
<title>T18667&#45;&gt;T18677</title>
<path fill="none" stroke="#0050c0" d="M160.6985,-81.1434C158.1358,-69.6112 154.5259,-53.3668 151.525,-39.8626"/>
<polygon fill="#0050c0" stroke="#0050c0" points="154.8666,-38.7651 149.2805,-29.7625 148.0333,-40.2836 154.8666,-38.7651"/>
<text text-anchor="middle" x="160.5" y="-51.8" font-family="Times,serif" font-size="14.00" fill="#0050c0">rt</text>
</g>
</g>
</svg>
