<?xml version="1.0" encoding="UTF-8" standalone="no"?>
<!DOCTYPE svg PUBLIC "-//W3C//DTD SVG 1.1//EN"
 "http://www.w3.org/Graphics/SVG/1.1/DTD/svg11.dtd">
<!-- Generated by graphviz version 2.40.1 (20161225.0304)
 -->
<!-- Title: a_graph Pages: 1 -->
<svg width="1487pt" height="119pt"
 viewBox="0.00 0.00 1487.00 119.00" xmlns="http://www.w3.org/2000/svg" xmlns:xlink="http://www.w3.org/1999/xlink">
<g id="graph0" class="graph" transform="scale(1 1) rotate(0) translate(4 115)">
<title>a_graph</title>
<polygon fill="#ffffff" stroke="transparent" points="-4,4 -4,-115 1483,-115 1483,4 -4,4"/>
<!-- T3423 -->
<g id="node1" class="node">
<title>T3423</title>
<polygon fill="none" stroke="#0058ad" points="50,-81.5 50,-110.5 1479,-110.5 1479,-81.5 50,-81.5"/>
<text text-anchor="middle" x="78.5" y="-92.3" font-family="Times,serif" font-size="14.00" fill="#0058ad">a 22 57</text>
<polyline fill="none" stroke="#0058ad" points="107,-81.5 107,-110.5 "/>
<text text-anchor="middle" x="529.5" y="-92.3" font-family="Times,serif" font-size="14.00" fill="#0058ad">r 22 [2 3 1 6 7 10 12 11 13 14 15 16 8 9 17 18 19 21 23 24 25 20 29 30 32 33 34 35 28 36 40 41 42 38 39 43 44 46 47 48 49 50 51 52 45 54 55 56 57]</text>
<polyline fill="none" stroke="#0058ad" points="952,-81.5 952,-110.5 "/>
<text text-anchor="middle" x="1187" y="-92.3" font-family="Times,serif" font-size="14.00" fill="#0058ad">r 21 [1 2 3 4 5 6 7 8 9 10 12 13 11 15 16 21 23 24 18 19 25 26 27 28 29 30 31 32]</text>
<polyline fill="none" stroke="#0058ad" points="1422,-81.5 1422,-110.5 "/>
<text text-anchor="middle" x="1450.5" y="-92.3" font-family="Times,serif" font-size="14.00" fill="#0058ad">a 22 58</text>
</g>
<!-- T3425 -->
<g id="node2" class="node">
<title>T3425</title>
<polygon fill="none" stroke="#0058ad" points="0,-.5 0,-29.5 985,-29.5 985,-.5 0,-.5"/>
<text text-anchor="middle" x="25" y="-11.3" font-family="Times,serif" font-size="14.00" fill="#0058ad">a 24 1</text>
<polyline fill="none" stroke="#0058ad" points="50,-.5 50,-29.5 "/>
<text text-anchor="middle" x="464" y="-11.3" font-family="Times,serif" font-size="14.00" fill="#0058ad">r 22 [2 3 1 6 7 10 12 11 13 14 15 16 8 9 17 18 19 21 23 24 25 20 29 30 32 33 34 35 28 36 40 41 42 38 39 43 44 46 47 48 49 50 51 52 45 54 55 56]</text>
<polyline fill="none" stroke="#0058ad" points="878,-.5 878,-29.5 "/>
<text text-anchor="middle" x="903" y="-11.3" font-family="Times,serif" font-size="14.00" fill="#0058ad">a 24 2</text>
<polyline fill="none" stroke="#0058ad" points="928,-.5 928,-29.5 "/>
<text text-anchor="middle" x="956.5" y="-11.3" font-family="Times,serif" font-size="14.00" fill="#0058ad">a 21 33</text>
</g>
<!-- T3423&#45;&gt;T3425 -->
<g id="edge1" class="edge">
<title>T3423:f2&#45;&gt;T3425:f3</title>
<path fill="none" stroke="#5b00c0" d="M1187.5,-81C1187.5,-36.7273 1051.4666,-17.4581 995.5509,-15.2224"/>
<polygon fill="#5b00c0" stroke="#5b00c0" points="995.575,-11.7222 985.5,-15 995.4201,-18.7205 995.575,-11.7222"/>
<text text-anchor="middle" x="1186" y="-51.8" font-family="Times,serif" font-size="14.00" fill="#5b00c0">rw</text>
</g>
<!-- T3425&#45;&gt;T3423 -->
<g id="edge2" class="edge">
<title>T3425:f1&#45;&gt;T3423:f0</title>
<path fill="none" stroke="#5b00c0" d="M463.5,-30C463.5,-199.0661 94.1291,79.7349 78.9791,-70.9616"/>
<polygon fill="#5b00c0" stroke="#5b00c0" points="75.4808,-70.8445 78.5,-81 82.4729,-71.1783 75.4808,-70.8445"/>
<text text-anchor="middle" x="469" y="-51.8" font-family="Times,serif" font-size="14.00" fill="#5b00c0">rw</text>
</g>
</g>
</svg>
