<?xml version="1.0" encoding="UTF-8" standalone="no"?>
<!DOCTYPE svg PUBLIC "-//W3C//DTD SVG 1.1//EN"
 "http://www.w3.org/Graphics/SVG/1.1/DTD/svg11.dtd">
<!-- Generated by graphviz version 2.40.1 (20161225.0304)
 -->
<!-- Title: a_graph Pages: 1 -->
<svg width="6536pt" height="119pt"
 viewBox="0.00 0.00 6536.00 119.00" xmlns="http://www.w3.org/2000/svg" xmlns:xlink="http://www.w3.org/1999/xlink">
<g id="graph0" class="graph" transform="scale(1 1) rotate(0) translate(4 115)">
<title>a_graph</title>
<polygon fill="#ffffff" stroke="transparent" points="-4,4 -4,-115 6532,-115 6532,4 -4,4"/>
<!-- T21177 -->
<g id="node1" class="node">
<title>T21177</title>
<polygon fill="none" stroke="#0058ad" points="2948.5,-81.5 2948.5,-110.5 3191.5,-110.5 3191.5,-81.5 2948.5,-81.5"/>
<text text-anchor="middle" x="2991.5" y="-92.3" font-family="Times,serif" font-size="14.00" fill="#0058ad">r 107 [1 2 3]</text>
<polyline fill="none" stroke="#0058ad" points="3034.5,-81.5 3034.5,-110.5 "/>
<text text-anchor="middle" x="3070" y="-92.3" font-family="Times,serif" font-size="14.00" fill="#0058ad">a 106 120</text>
<polyline fill="none" stroke="#0058ad" points="3105.5,-81.5 3105.5,-110.5 "/>
<text text-anchor="middle" x="3148.5" y="-92.3" font-family="Times,serif" font-size="14.00" fill="#0058ad">r 108 [1 2 3]</text>
</g>
<!-- T21173 -->
<g id="node2" class="node">
<title>T21173</title>
<polygon fill="none" stroke="#0058ad" points="0,-.5 0,-29.5 6528,-29.5 6528,-.5 0,-.5"/>
<text text-anchor="middle" x="1078.5" y="-11.3" font-family="Times,serif" font-size="14.00" fill="#0058ad">r 106 [1 4 2 3 6 7 8 5 9 11 12 10 13 14 15 16 17 18 19 20 22 23 24 21 26 27 28 25 30 31 32 33 34 35 29 36 37 38 39 40 41 42 43 44 45 46 47 48 49 51 52 53 54 55 50 56 57 58 59 60 61 63 64 62 65 66 67 68 69 70 71 72 74 75 73 77 78 76 79 80 81 84 82 83 85 86 87 88 89 91 90 92 93 95 96 94 97 98 99 100 101 102 103 104 105 106 107 108 109 110 111 112 114 115 117 118 119 113]</text>
<polyline fill="none" stroke="#0058ad" points="2157,-.5 2157,-29.5 "/>
<text text-anchor="middle" x="3235.5" y="-11.3" font-family="Times,serif" font-size="14.00" fill="#0058ad">r 106 [1 4 2 3 6 7 8 5 9 11 12 10 13 14 15 16 17 18 19 20 22 23 24 21 26 27 28 25 30 31 32 33 34 35 29 36 37 38 39 40 41 42 43 44 45 46 47 48 49 51 52 53 54 55 50 56 57 58 59 60 61 63 64 62 65 66 67 68 69 70 71 72 74 75 73 77 78 76 79 80 81 84 82 83 85 86 87 88 89 91 90 92 93 95 96 94 97 98 99 100 101 102 103 104 105 106 107 108 109 110 111 112 114 115 117 118 119 113]</text>
<polyline fill="none" stroke="#0058ad" points="4314,-.5 4314,-29.5 "/>
<text text-anchor="middle" x="4342.5" y="-11.3" font-family="Times,serif" font-size="14.00" fill="#0058ad">a 108 4</text>
<polyline fill="none" stroke="#0058ad" points="4371,-.5 4371,-29.5 "/>
<text text-anchor="middle" x="5449.5" y="-11.3" font-family="Times,serif" font-size="14.00" fill="#0058ad">r 106 [1 4 2 3 6 7 8 5 9 11 12 10 13 14 15 16 17 18 19 20 22 23 24 21 26 27 28 25 30 31 32 33 34 35 29 36 37 38 39 40 41 42 43 44 45 46 47 48 49 51 52 53 54 55 50 56 57 58 59 60 61 63 64 62 65 66 67 68 69 70 71 72 74 75 73 77 78 76 79 80 81 84 82 83 85 86 87 88 89 91 90 92 93 95 96 94 97 98 99 100 101 102 103 104 105 106 107 108 109 110 111 112 114 115 117 118 119 113]</text>
</g>
<!-- T21177&#45;&gt;T21173 -->
<g id="edge1" class="edge">
<title>T21177:f2&#45;&gt;T21173:f2</title>
<path fill="none" stroke="#5b00c0" d="M3192,-96C3253.2348,-96 4249.4427,-94.2171 4336.8817,-38.0894"/>
<polygon fill="#5b00c0" stroke="#5b00c0" points="4339.7592,-40.087 4343,-30 4334.1762,-35.8644 4339.7592,-40.087"/>
<text text-anchor="middle" x="4307.5" y="-51.8" font-family="Times,serif" font-size="14.00" fill="#5b00c0">rw</text>
</g>
<!-- T21173&#45;&gt;T21177 -->
<g id="edge2" class="edge">
<title>T21173:f0&#45;&gt;T21177:f1</title>
<path fill="none" stroke="#5b00c0" d="M1078,-30C1078,-247.9464 3008.2363,128.3115 3068.5562,-71.0661"/>
<polygon fill="#5b00c0" stroke="#5b00c0" points="3065.098,-71.6074 3070,-81 3072.0252,-70.6005 3065.098,-71.6074"/>
<text text-anchor="middle" x="3068.5" y="-51.8" font-family="Times,serif" font-size="14.00" fill="#5b00c0">rw</text>
</g>
</g>
</svg>
