<?xml version="1.0" encoding="UTF-8" standalone="no"?>
<!DOCTYPE svg PUBLIC "-//W3C//DTD SVG 1.1//EN"
 "http://www.w3.org/Graphics/SVG/1.1/DTD/svg11.dtd">
<!-- Generated by graphviz version 2.40.1 (20161225.0304)
 -->
<!-- Title: a_graph Pages: 1 -->
<svg width="6371pt" height="362pt"
 viewBox="0.00 0.00 6370.50 362.00" xmlns="http://www.w3.org/2000/svg" xmlns:xlink="http://www.w3.org/1999/xlink">
<g id="graph0" class="graph" transform="scale(1 1) rotate(0) translate(4 358)">
<title>a_graph</title>
<polygon fill="#ffffff" stroke="transparent" points="-4,4 -4,-358 6366.5,-358 6366.5,4 -4,4"/>
<!-- T21535 -->
<g id="node1" class="node">
<title>T21535</title>
<polygon fill="none" stroke="#0058ad" points="3684.5,-324.5 3684.5,-353.5 5418.5,-353.5 5418.5,-324.5 3684.5,-324.5"/>
<text text-anchor="middle" x="3716.5" y="-335.3" font-family="Times,serif" font-size="14.00" fill="#0058ad">a 109 95</text>
<polyline fill="none" stroke="#0058ad" points="3748.5,-324.5 3748.5,-353.5 "/>
<text text-anchor="middle" x="3780.5" y="-335.3" font-family="Times,serif" font-size="14.00" fill="#0058ad">a 107 79</text>
<polyline fill="none" stroke="#0058ad" points="3812.5,-324.5 3812.5,-353.5 "/>
<text text-anchor="middle" x="4583.5" y="-335.3" font-family="Times,serif" font-size="14.00" fill="#0058ad">r 109 [1 4 5 6 7 8 9 10 11 12 16 15 17 20 21 22 23 24 25 26 28 27 29 30 31 32 33 34 35 36 37 38 39 40 41 42 45 46 47 48 43 44 50 51 53 52 54 55 49 56 57 60 61 58 59 62 63 64 65 67 66 70 71 68 69 72 73 74 75 76 77 78 79 80 81 83 82 84 85 86 87 88 89 90 91 92 93 94 95]</text>
<polyline fill="none" stroke="#0058ad" points="5354.5,-324.5 5354.5,-353.5 "/>
<text text-anchor="middle" x="5386.5" y="-335.3" font-family="Times,serif" font-size="14.00" fill="#0058ad">a 107 80</text>
</g>
<!-- T21537 -->
<g id="node3" class="node">
<title>T21537</title>
<polygon fill="none" stroke="#0058ad" points="0,-243.5 0,-272.5 3547,-272.5 3547,-243.5 0,-243.5"/>
<text text-anchor="middle" x="771" y="-254.3" font-family="Times,serif" font-size="14.00" fill="#0058ad">r 109 [1 4 5 6 7 8 9 10 11 12 16 15 17 20 21 22 23 24 25 26 28 27 29 30 31 32 33 34 35 36 37 38 39 40 41 42 45 46 47 48 43 44 50 51 53 52 54 55 49 56 57 60 61 58 59 62 63 64 65 67 66 70 71 68 69 72 73 74 75 76 77 78 79 80 81 83 82 84 85 86 87 88 89 90 91 92 93 94 95]</text>
<polyline fill="none" stroke="#0058ad" points="1542,-243.5 1542,-272.5 "/>
<text text-anchor="middle" x="1927" y="-254.3" font-family="Times,serif" font-size="14.00" fill="#0058ad">r 101 [1 2 3 4 5 7 6 8 9 10 12 14 15 16 17 18 19 20 21 22 23 24 25 26 27 28 29 30 31 32 33 34 35 36 37 38 39 40 41 42 43 44 45 46 47]</text>
<polyline fill="none" stroke="#0058ad" points="2312,-243.5 2312,-272.5 "/>
<text text-anchor="middle" x="2929.5" y="-254.3" font-family="Times,serif" font-size="14.00" fill="#0058ad">r 107 [1 2 3 4 5 6 7 8 9 10 15 16 19 20 21 23 25 26 27 28 29 31 32 33 34 35 36 37 38 39 30 40 41 42 45 43 44 46 47 48 49 50 51 52 53 55 56 54 57 59 60 61 58 62 63 64 65 66 67 68 70 69 71 72 73 74 76 75 77 78 79 80]</text>
</g>
<!-- T21535&#45;&gt;T21537 -->
<g id="edge1" class="edge">
<title>T21535:f0&#45;&gt;T21537:f0</title>
<path fill="none" stroke="#c000a5" d="M3684.5,-339C3645.3615,-339 958.1962,-315.149 779.7948,-276.9826"/>
<polygon fill="#c000a5" stroke="#c000a5" points="781.0703,-273.7214 770.5,-273 778.3133,-280.1556 781.0703,-273.7214"/>
<text text-anchor="middle" x="1400" y="-294.8" font-family="Times,serif" font-size="14.00" fill="#c000a5">wr</text>
</g>
<!-- T21533 -->
<g id="node2" class="node">
<title>T21533</title>
<polygon fill="none" stroke="#0058ad" points="1964.5,-81.5 1964.5,-110.5 4702.5,-110.5 4702.5,-81.5 1964.5,-81.5"/>
<text text-anchor="middle" x="2718.5" y="-92.3" font-family="Times,serif" font-size="14.00" fill="#0058ad">r 109 [1 4 5 6 7 8 9 10 11 12 16 15 17 20 21 22 23 24 25 26 28 27 29 30 31 32 33 34 35 36 37 38 39 40 41 42 45 46 47 48 43 44 50 51 53 52 54 55 49 56 57 60 61 58 59 62 63 64 65 67 66 70 71 68 69 72 73 74 75 76 77 78 79 80 81 83 82 84 85 86 87 88 89 90 91 92 93]</text>
<polyline fill="none" stroke="#0058ad" points="3472.5,-81.5 3472.5,-110.5 "/>
<text text-anchor="middle" x="3504.5" y="-92.3" font-family="Times,serif" font-size="14.00" fill="#0058ad">a 109 94</text>
<polyline fill="none" stroke="#0058ad" points="3536.5,-81.5 3536.5,-110.5 "/>
<text text-anchor="middle" x="4119.5" y="-92.3" font-family="Times,serif" font-size="14.00" fill="#0058ad">r 107 [1 2 3 4 5 6 7 8 9 10 15 16 19 20 21 23 25 26 27 28 29 31 32 33 34 35 36 37 38 39 30 40 41 42 45 43 44 46 47 48 49 50 51 52 53 55 56 54 57 59 60 61 58 62 63 64 65 66 67 68 70 69 71 72 73 74 76 75]</text>
</g>
<!-- T21533&#45;&gt;T21535 -->
<g id="edge2" class="edge">
<title>T21533:f1&#45;&gt;T21535:f0</title>
<path fill="none" stroke="#c02700" d="M3504.5,-111C3504.5,-147.9771 3504.7873,-160.1073 3523.5,-192 3546.3893,-231.011 3624.6404,-325.306 3674.3548,-337.6575"/>
<polygon fill="#c02700" stroke="#c02700" points="3674.1272,-341.1578 3684.5,-339 3675.0456,-334.2183 3674.1272,-341.1578"/>
<text text-anchor="middle" x="3556.5" y="-213.8" font-family="Times,serif" font-size="14.00" fill="#c02700">ww</text>
</g>
<!-- T21533&#45;&gt;T21537 -->
<g id="edge4" class="edge">
<title>T21533&#45;&gt;T21537</title>
<path fill="none" stroke="#0050c0" d="M3193.7208,-110.5155C2900.8312,-140.931 2224.9605,-211.1176 1923.4405,-242.4293"/>
<polygon fill="#0050c0" stroke="#0050c0" points="1922.8974,-238.9667 1913.3125,-243.481 1923.6205,-245.9293 1922.8974,-238.9667"/>
<text text-anchor="middle" x="2688" y="-173.3" font-family="Times,serif" font-size="14.00" fill="#0050c0">rt</text>
</g>
<!-- T21531 -->
<g id="node4" class="node">
<title>T21531</title>
<polygon fill="none" stroke="#0058ad" points="3038.5,-.5 3038.5,-29.5 4674.5,-29.5 4674.5,-.5 3038.5,-.5"/>
<text text-anchor="middle" x="3792.5" y="-11.3" font-family="Times,serif" font-size="14.00" fill="#0058ad">r 109 [1 4 5 6 7 8 9 10 11 12 16 15 17 20 21 22 23 24 25 26 28 27 29 30 31 32 33 34 35 36 37 38 39 40 41 42 45 46 47 48 43 44 50 51 53 52 54 55 49 56 57 60 61 58 59 62 63 64 65 67 66 70 71 68 69 72 73 74 75 76 77 78 79 80 81 83 82 84 85 86 87 88 89 90 91 92 93]</text>
<polyline fill="none" stroke="#0058ad" points="4546.5,-.5 4546.5,-29.5 "/>
<text text-anchor="middle" x="4578.5" y="-11.3" font-family="Times,serif" font-size="14.00" fill="#0058ad">a 107 77</text>
<polyline fill="none" stroke="#0058ad" points="4610.5,-.5 4610.5,-29.5 "/>
<text text-anchor="middle" x="4642.5" y="-11.3" font-family="Times,serif" font-size="14.00" fill="#0058ad">a 107 78</text>
</g>
<!-- T21533&#45;&gt;T21531 -->
<g id="edge3" class="edge">
<title>T21533:f2&#45;&gt;T21531:f1</title>
<path fill="none" stroke="#5b00c0" d="M4119.5,-81C4119.5,120.7476 4562.9456,-223.1324 4578.1024,-40.0341"/>
<polygon fill="#5b00c0" stroke="#5b00c0" points="4581.6012,-40.1308 4578.5,-30 4574.6067,-39.8536 4581.6012,-40.1308"/>
<text text-anchor="middle" x="4584" y="-51.8" font-family="Times,serif" font-size="14.00" fill="#5b00c0">rw</text>
</g>
<!-- T21539 -->
<g id="node5" class="node">
<title>T21539</title>
<polygon fill="none" stroke="#0058ad" points="3533,-162.5 3533,-191.5 6306,-191.5 6306,-162.5 3533,-162.5"/>
<text text-anchor="middle" x="4133.5" y="-173.3" font-family="Times,serif" font-size="14.00" fill="#0058ad">r 107 [1 2 3 4 5 6 7 8 9 10 15 16 19 20 21 23 25 26 27 28 29 31 32 33 34 35 36 37 38 39 30 40 41 42 45 43 44 46 47 48 49 50 51 52 53 55 56 54 57 59 60 61 58 62 63 64 65 66 67 68 70 69 71 72 73 74 76 75 77 78]</text>
<polyline fill="none" stroke="#0058ad" points="4734,-162.5 4734,-191.5 "/>
<text text-anchor="middle" x="4766" y="-173.3" font-family="Times,serif" font-size="14.00" fill="#0058ad">a 101 48</text>
<polyline fill="none" stroke="#0058ad" points="4798,-162.5 4798,-191.5 "/>
<text text-anchor="middle" x="5552" y="-173.3" font-family="Times,serif" font-size="14.00" fill="#0058ad">r 109 [1 4 5 6 7 8 9 10 11 12 16 15 17 20 21 22 23 24 25 26 28 27 29 30 31 32 33 34 35 36 37 38 39 40 41 42 45 46 47 48 43 44 50 51 53 52 54 55 49 56 57 60 61 58 59 62 63 64 65 67 66 70 71 68 69 72 73 74 75 76 77 78 79 80 81 83 82 84 85 86 87 88 89 90 91 92 93]</text>
</g>
<!-- T21537&#45;&gt;T21539 -->
<g id="edge5" class="edge">
<title>T21537:f1&#45;&gt;T21539:f1</title>
<path fill="none" stroke="#5b00c0" d="M1927.5,-243C1927.5,-231.6382 3552.1403,-225.2184 3563.5,-225 3627.4207,-223.771 4669.9156,-255.8548 4759.387,-200.0579"/>
<polygon fill="#5b00c0" stroke="#5b00c0" points="4762.2444,-202.0823 4765.5,-192 4756.6676,-197.8515 4762.2444,-202.0823"/>
<text text-anchor="middle" x="4727" y="-213.8" font-family="Times,serif" font-size="14.00" fill="#5b00c0">rw</text>
</g>
<!-- T21531&#45;&gt;T21535 -->
<g id="edge6" class="edge">
<title>T21531:f2&#45;&gt;T21535:f1</title>
<path fill="none" stroke="#c02700" d="M4674.5,-15C4720.8879,-15 6342.5,-49.6121 6342.5,-96 6342.5,-258 6342.5,-258 6342.5,-258 6342.5,-326.8961 3942.9681,-257.5794 3788.3108,-317.5672"/>
<polygon fill="#c02700" stroke="#c02700" points="3785.9941,-314.941 3780.5,-324 3790.4442,-320.3444 3785.9941,-314.941"/>
<text text-anchor="middle" x="6352.5" y="-173.3" font-family="Times,serif" font-size="14.00" fill="#c02700">ww</text>
</g>
<!-- T21531&#45;&gt;T21533 -->
<g id="edge7" class="edge">
<title>T21531:f0&#45;&gt;T21533:f1</title>
<path fill="none" stroke="#5b00c0" d="M3792.5,-30C3792.5,-156.3101 3520.5815,37.4264 3505.1799,-70.756"/>
<polygon fill="#5b00c0" stroke="#5b00c0" points="3501.67,-70.7901 3504.5,-81 3508.6546,-71.2538 3501.67,-70.7901"/>
<text text-anchor="middle" x="3798" y="-51.8" font-family="Times,serif" font-size="14.00" fill="#5b00c0">rw</text>
</g>
<!-- T21531&#45;&gt;T21539 -->
<g id="edge8" class="edge">
<title>T21531:f2&#45;&gt;T21539:f0</title>
<path fill="none" stroke="#c000a5" d="M4674.5,-15C4735.9893,-15 4767.3126,-99.8636 4724.5,-144 4703.2816,-165.8744 4212.7649,-134.3815 4141.9807,-155.9449"/>
<polygon fill="#c000a5" stroke="#c000a5" points="4139.6047,-153.3407 4133.5,-162 4143.6723,-159.0377 4139.6047,-153.3407"/>
<text text-anchor="middle" x="4751" y="-92.3" font-family="Times,serif" font-size="14.00" fill="#c000a5">wr</text>
</g>
<!-- T21539&#45;&gt;T21535 -->
<g id="edge9" class="edge">
<title>T21539:f0&#45;&gt;T21535:f1</title>
<path fill="none" stroke="#5b00c0" d="M4133.5,-192C4133.5,-221.8449 3891.7115,-195.7287 3865.5,-210 3813.1377,-238.5096 3783.9245,-258.4377 3780.7832,-313.6616"/>
<polygon fill="#5b00c0" stroke="#5b00c0" points="3777.2753,-313.9079 3780.5,-324 3784.2726,-314.0996 3777.2753,-313.9079"/>
<text text-anchor="middle" x="3821" y="-254.3" font-family="Times,serif" font-size="14.00" fill="#5b00c0">rw</text>
</g>
<!-- T21539&#45;&gt;T21533 -->
<g id="edge10" class="edge">
<title>T21539:f2&#45;&gt;T21533:f1</title>
<path fill="none" stroke="#5b00c0" d="M5552.5,-162C5552.5,-150.289 4721.2075,-144.2853 4709.5,-144 4645.4271,-142.4386 3600.3236,-174.9788 3510.6283,-119.0758"/>
<polygon fill="#5b00c0" stroke="#5b00c0" points="3513.3332,-116.8502 3504.5,-111 3507.757,-121.0818 3513.3332,-116.8502"/>
<text text-anchor="middle" x="4717" y="-132.8" font-family="Times,serif" font-size="14.00" fill="#5b00c0">rw</text>
</g>
</g>
</svg>
