<?xml version="1.0" encoding="UTF-8" standalone="no"?>
<!DOCTYPE svg PUBLIC "-//W3C//DTD SVG 1.1//EN"
 "http://www.w3.org/Graphics/SVG/1.1/DTD/svg11.dtd">
<!-- Generated by graphviz version 2.40.1 (20161225.0304)
 -->
<!-- Title: a_graph Pages: 1 -->
<svg width="4431pt" height="119pt"
 viewBox="0.00 0.00 4431.00 119.00" xmlns="http://www.w3.org/2000/svg" xmlns:xlink="http://www.w3.org/1999/xlink">
<g id="graph0" class="graph" transform="scale(1 1) rotate(0) translate(4 115)">
<title>a_graph</title>
<polygon fill="#ffffff" stroke="transparent" points="-4,4 -4,-115 4427,-115 4427,4 -4,4"/>
<!-- T23705 -->
<g id="node1" class="node">
<title>T23705</title>
<polygon fill="none" stroke="#0058ad" points="0,-81.5 0,-110.5 2469,-110.5 2469,-81.5 0,-81.5"/>
<text text-anchor="middle" x="989" y="-92.3" font-family="Times,serif" font-size="14.00" fill="#0058ad">r 118 [3 2 4 5 6 7 8 9 10 11 12 13 14 16 17 18 19 20 22 21 26 27 30 28 29 36 37 38 31 39 40 35 41 42 43 44 45 47 48 46 50 49 51 52 53 54 55 56 59 60 57 58 61 62 63 64 65 66 67 68 69 71 72 73 70 74 75 76 77 78 79 81 80 82 83 84 85 86 87 88 90 89 91 93 94 95 96 97 98 99 92 100 101 104 103 105 106 107 108 109 102 110 112 114 115 111 113 116]</text>
<polyline fill="none" stroke="#0058ad" points="1978,-81.5 1978,-110.5 "/>
<text text-anchor="middle" x="2013.5" y="-92.3" font-family="Times,serif" font-size="14.00" fill="#0058ad">a 118 117</text>
<polyline fill="none" stroke="#0058ad" points="2049,-81.5 2049,-110.5 "/>
<text text-anchor="middle" x="2081" y="-92.3" font-family="Times,serif" font-size="14.00" fill="#0058ad">a 113 60</text>
<polyline fill="none" stroke="#0058ad" points="2113,-81.5 2113,-110.5 "/>
<text text-anchor="middle" x="2291" y="-92.3" font-family="Times,serif" font-size="14.00" fill="#0058ad">r 119 [1 2 3 4 5 6 7 8 9 10 11 12 16 14 15 13 17 18 19 20 21]</text>
</g>
<!-- T23703 -->
<g id="node2" class="node">
<title>T23703</title>
<polygon fill="none" stroke="#0058ad" points="542,-.5 542,-29.5 4423,-29.5 4423,-.5 542,-.5"/>
<text text-anchor="middle" x="720" y="-11.3" font-family="Times,serif" font-size="14.00" fill="#0058ad">r 119 [1 2 3 4 5 6 7 8 9 10 11 12 16 14 15 13 17 18 19 20 21]</text>
<polyline fill="none" stroke="#0058ad" points="898,-.5 898,-29.5 "/>
<text text-anchor="middle" x="930" y="-11.3" font-family="Times,serif" font-size="14.00" fill="#0058ad">a 119 22</text>
<polyline fill="none" stroke="#0058ad" points="962,-.5 962,-29.5 "/>
<text text-anchor="middle" x="1703.5" y="-11.3" font-family="Times,serif" font-size="14.00" fill="#0058ad">r 68 [1 2 3 4 5 6 7 8 9 10 11 12 13 14 15 16 17 18 19 20 21 22 23 24 25 26 27 28 29 30 31 32 54 56 57 58 59 60 61 62 63 64 65 66 67 68 69 70 71 73 72 74 75 76 77 78 79 80 81 82 83 84 85 86 87 88 89 90 91 92 93 94 95 96 97 98 99 100 101 102 103 104 105 106]</text>
<polyline fill="none" stroke="#0058ad" points="2445,-.5 2445,-29.5 "/>
<text text-anchor="middle" x="3434" y="-11.3" font-family="Times,serif" font-size="14.00" fill="#0058ad">r 118 [3 2 4 5 6 7 8 9 10 11 12 13 14 16 17 18 19 20 22 21 26 27 30 28 29 36 37 38 31 39 40 35 41 42 43 44 45 47 48 46 50 49 51 52 53 54 55 56 59 60 57 58 61 62 63 64 65 66 67 68 69 71 72 73 70 74 75 76 77 78 79 81 80 82 83 84 85 86 87 88 90 89 91 93 94 95 96 97 98 99 92 100 101 104 103 105 106 107 108 109 102 110 112 114 115 111 113 116]</text>
</g>
<!-- T23705&#45;&gt;T23703 -->
<g id="edge1" class="edge">
<title>T23705:f3&#45;&gt;T23703:f1</title>
<path fill="none" stroke="#5b00c0" d="M2291.5,-81C2291.5,-17.5051 2215.5081,-55.8473 2152.5,-48 2136.5313,-46.0112 1053.403,-46.8821 939.2112,-32.5399"/>
<polygon fill="#5b00c0" stroke="#5b00c0" points="940.0602,-29.1442 929.5,-30 938.289,-35.9165 940.0602,-29.1442"/>
<text text-anchor="middle" x="2295" y="-51.8" font-family="Times,serif" font-size="14.00" fill="#5b00c0">rw</text>
</g>
<!-- T23703&#45;&gt;T23705 -->
<g id="edge2" class="edge">
<title>T23703:f3&#45;&gt;T23705:f1</title>
<path fill="none" stroke="#5b00c0" d="M3434.5,-30C3434.5,-48.0712 2151.3916,-45.4586 2133.5,-48 2082.4801,-55.2471 2022.3701,-29.6239 2014.3904,-70.8144"/>
<polygon fill="#5b00c0" stroke="#5b00c0" points="2010.8842,-70.7332 2013.5,-81 2017.8576,-71.3428 2010.8842,-70.7332"/>
<text text-anchor="middle" x="2141" y="-51.8" font-family="Times,serif" font-size="14.00" fill="#5b00c0">rw</text>
</g>
</g>
</svg>
