<?xml version="1.0" encoding="UTF-8" standalone="no"?>
<!DOCTYPE svg PUBLIC "-//W3C//DTD SVG 1.1//EN"
 "http://www.w3.org/Graphics/SVG/1.1/DTD/svg11.dtd">
<!-- Generated by graphviz version 2.40.1 (20161225.0304)
 -->
<!-- Title: a_graph Pages: 1 -->
<svg width="2405pt" height="200pt"
 viewBox="0.00 0.00 2404.50 200.00" xmlns="http://www.w3.org/2000/svg" xmlns:xlink="http://www.w3.org/1999/xlink">
<g id="graph0" class="graph" transform="scale(1 1) rotate(0) translate(4 196)">
<title>a_graph</title>
<polygon fill="#ffffff" stroke="transparent" points="-4,4 -4,-196 2400.5,-196 2400.5,4 -4,4"/>
<!-- T13175 -->
<g id="node1" class="node">
<title>T13175</title>
<polygon fill="none" stroke="#0058ad" points="285.5,-162.5 285.5,-191.5 2396.5,-191.5 2396.5,-162.5 285.5,-162.5"/>
<text text-anchor="middle" x="314" y="-173.3" font-family="Times,serif" font-size="14.00" fill="#0058ad">a 67 57</text>
<polyline fill="none" stroke="#0058ad" points="342.5,-162.5 342.5,-191.5 "/>
<text text-anchor="middle" x="1369.5" y="-173.3" font-family="Times,serif" font-size="14.00" fill="#0058ad">r 69 [1 2 3 4 5 6 7 9 10 11 8 13 12 14 15 16 17 18 19 20 21 23 22 24 25 26 27 28 29 30 31 32 33 34 35 36 38 37 39 40 41 42 43 44 45 46 47 48 49 50 51 52 53 56 54 55 57 58 59 61 60 62 64 65 66 67 63 69 70 68 71 72 73 74 75 76 77 78 79 81 82 83 80 84 85 86 87 88 89 90 91 92 93 94 95 96 97 98 99 100 102 101 103 104 105 106 107 108 109 110 111 112 113 114]</text>
</g>
<!-- T13169 -->
<g id="node2" class="node">
<title>T13169</title>
<polygon fill="none" stroke="#0058ad" points="719,-81.5 719,-110.5 1287,-110.5 1287,-81.5 719,-81.5"/>
<text text-anchor="middle" x="751" y="-92.3" font-family="Times,serif" font-size="14.00" fill="#0058ad">a 69 115</text>
<polyline fill="none" stroke="#0058ad" points="783,-81.5 783,-110.5 "/>
<text text-anchor="middle" x="1035" y="-92.3" font-family="Times,serif" font-size="14.00" fill="#0058ad">r 66 [1 2 3 4 5 6 7 8 9 10 11 12 13 14 15 16 17 18 19 20 21 22 23 24 25 26 27 28 29 30]</text>
</g>
<!-- T13175&#45;&gt;T13169 -->
<g id="edge1" class="edge">
<title>T13175:f1&#45;&gt;T13169:f0</title>
<path fill="none" stroke="#5b00c0" d="M1370,-162C1370,-27.6176 783.2122,-237.4065 752.2683,-121.1738"/>
<polygon fill="#5b00c0" stroke="#5b00c0" points="755.7103,-120.4902 751,-111 748.7641,-121.3562 755.7103,-120.4902"/>
<text text-anchor="middle" x="1370.5" y="-132.8" font-family="Times,serif" font-size="14.00" fill="#5b00c0">rw</text>
</g>
<!-- T13173 -->
<g id="node3" class="node">
<title>T13173</title>
<polygon fill="none" stroke="#0058ad" points="0,-.5 0,-29.5 908,-29.5 908,-.5 0,-.5"/>
<text text-anchor="middle" x="454" y="-11.3" font-family="Times,serif" font-size="14.00" fill="#0058ad">r 67 [1 2 3 4 5 6 7 8 11 13 14 15 16 17 18 19 20 21 22 23 24 25 26 28 27 29 30 31 32 33 34 35 36 37 38 39 40 41 42 43 44 45 46 47 48 49 50 51 52 53 54 55 56]</text>
</g>
<!-- T13169&#45;&gt;T13173 -->
<g id="edge2" class="edge">
<title>T13169&#45;&gt;T13173</title>
<path fill="none" stroke="#0050c0" d="M904.533,-81.4721C808.3241,-67.2773 662.2147,-45.7202 562.6588,-31.0316"/>
<polygon fill="#0050c0" stroke="#0050c0" points="562.974,-27.5403 552.5702,-29.5431 561.9522,-34.4653 562.974,-27.5403"/>
<text text-anchor="middle" x="781.5" y="-51.8" font-family="Times,serif" font-size="14.00" fill="#0050c0">rt</text>
</g>
<!-- T13173&#45;&gt;T13175 -->
<g id="edge3" class="edge">
<title>T13173:f0&#45;&gt;T13175:f0</title>
<path fill="none" stroke="#5b00c0" d="M423.9665,-29.5878C385.0795,-50.6988 321.4454,-93.6912 314.6018,-151.77"/>
<polygon fill="#5b00c0" stroke="#5b00c0" points="311.0934,-151.8117 314,-162 318.0813,-152.2228 311.0934,-151.8117"/>
<text text-anchor="middle" x="360.5" y="-92.3" font-family="Times,serif" font-size="14.00" fill="#5b00c0">rw</text>
</g>
</g>
</svg>
