<?xml version="1.0" encoding="UTF-8" standalone="no"?>
<!DOCTYPE svg PUBLIC "-//W3C//DTD SVG 1.1//EN"
 "http://www.w3.org/Graphics/SVG/1.1/DTD/svg11.dtd">
<!-- Generated by graphviz version 2.40.1 (20161225.0304)
 -->
<!-- Title: a_graph Pages: 1 -->
<svg width="2345pt" height="119pt"
 viewBox="0.00 0.00 2345.00 119.00" xmlns="http://www.w3.org/2000/svg" xmlns:xlink="http://www.w3.org/1999/xlink">
<g id="graph0" class="graph" transform="scale(1 1) rotate(0) translate(4 115)">
<title>a_graph</title>
<polygon fill="#ffffff" stroke="transparent" points="-4,4 -4,-115 2341,-115 2341,4 -4,4"/>
<!-- T7389 -->
<g id="node1" class="node">
<title>T7389</title>
<polygon fill="none" stroke="#0058ad" points="655,-81.5 655,-110.5 2337,-110.5 2337,-81.5 655,-81.5"/>
<text text-anchor="middle" x="683.5" y="-92.3" font-family="Times,serif" font-size="14.00" fill="#0058ad">a 42 19</text>
<polyline fill="none" stroke="#0058ad" points="712,-81.5 712,-110.5 "/>
<text text-anchor="middle" x="1524.5" y="-92.3" font-family="Times,serif" font-size="14.00" fill="#0058ad">r 41 [2 3 1 4 5 6 7 8 9 10 11 12 15 16 17 13 14 18 19 20 21 22 23 25 26 24 27 28 29 30 31 32 33 34 35 36 38 39 40 37 41 44 45 46 47 43 48 49 50 42 52 53 54 55 56 58 59 60 61 57 62 63 51 65 64 66 68 67 69 71 70 73 72 74 75 76 77 78 80 81 82 79 84 85 86 83 88 89 87 90 91 93 94 92 98]</text>
</g>
<!-- T7391 -->
<g id="node2" class="node">
<title>T7391</title>
<polygon fill="none" stroke="#0058ad" points="0,-.5 0,-29.5 1398,-29.5 1398,-.5 0,-.5"/>
<text text-anchor="middle" x="493.5" y="-11.3" font-family="Times,serif" font-size="14.00" fill="#0058ad">r 38 [1 2 3 4 5 7 6 8 9 10 11 12 13 14 15 16 18 19 20 21 22 17 23 24 26 27 30 28 31 32 34 36 35 37 38 39 40 41 43 44 42 45 46 47 48 49 50 51 52 53 54 56 55 57 58 59 60 61]</text>
<polyline fill="none" stroke="#0058ad" points="987,-.5 987,-29.5 "/>
<text text-anchor="middle" x="1015.5" y="-11.3" font-family="Times,serif" font-size="14.00" fill="#0058ad">a 41 95</text>
<polyline fill="none" stroke="#0058ad" points="1044,-.5 1044,-29.5 "/>
<text text-anchor="middle" x="1192.5" y="-11.3" font-family="Times,serif" font-size="14.00" fill="#0058ad">r 42 [1 3 2 4 5 6 7 8 9 10 11 12 13 15 16 17 14 18]</text>
<polyline fill="none" stroke="#0058ad" points="1341,-.5 1341,-29.5 "/>
<text text-anchor="middle" x="1369.5" y="-11.3" font-family="Times,serif" font-size="14.00" fill="#0058ad">a 41 96</text>
</g>
<!-- T7389&#45;&gt;T7391 -->
<g id="edge1" class="edge">
<title>T7389:f1&#45;&gt;T7391:f1</title>
<path fill="none" stroke="#5b00c0" d="M1525,-81C1525,142.8025 1031.782,-244.8931 1016.3689,-40.1999"/>
<polygon fill="#5b00c0" stroke="#5b00c0" points="1019.8593,-39.8669 1016,-30 1012.8638,-40.12 1019.8593,-39.8669"/>
<text text-anchor="middle" x="1529.5" y="-51.8" font-family="Times,serif" font-size="14.00" fill="#5b00c0">rw</text>
</g>
<!-- T7391&#45;&gt;T7389 -->
<g id="edge2" class="edge">
<title>T7391:f2&#45;&gt;T7389:f0</title>
<path fill="none" stroke="#5b00c0" d="M1193,-30C1193,-51.6481 1020.5437,-45.8757 999,-48 862.0414,-61.5046 691.8882,54.0972 683.3359,-70.7466"/>
<polygon fill="#5b00c0" stroke="#5b00c0" points="679.8294,-70.8907 683,-81 686.8257,-71.12 679.8294,-70.8907"/>
<text text-anchor="middle" x="1006.5" y="-51.8" font-family="Times,serif" font-size="14.00" fill="#5b00c0">rw</text>
</g>
</g>
</svg>
