<?xml version="1.0" encoding="UTF-8" standalone="no"?>
<!DOCTYPE svg PUBLIC "-//W3C//DTD SVG 1.1//EN"
 "http://www.w3.org/Graphics/SVG/1.1/DTD/svg11.dtd">
<!-- Generated by graphviz version 2.40.1 (20161225.0304)
 -->
<!-- Title: a_graph Pages: 1 -->
<svg width="2415pt" height="119pt"
 viewBox="0.00 0.00 2415.00 119.00" xmlns="http://www.w3.org/2000/svg" xmlns:xlink="http://www.w3.org/1999/xlink">
<g id="graph0" class="graph" transform="scale(1 1) rotate(0) translate(4 115)">
<title>a_graph</title>
<polygon fill="#ffffff" stroke="transparent" points="-4,4 -4,-115 2411,-115 2411,4 -4,4"/>
<!-- T23037 -->
<g id="node1" class="node">
<title>T23037</title>
<polygon fill="none" stroke="#0058ad" points="451,-81.5 451,-110.5 1918,-110.5 1918,-81.5 451,-81.5"/>
<text text-anchor="middle" x="483" y="-92.3" font-family="Times,serif" font-size="14.00" fill="#0058ad">a 116 21</text>
<polyline fill="none" stroke="#0058ad" points="515,-81.5 515,-110.5 "/>
<text text-anchor="middle" x="547" y="-92.3" font-family="Times,serif" font-size="14.00" fill="#0058ad">a 117 41</text>
<polyline fill="none" stroke="#0058ad" points="579,-81.5 579,-110.5 "/>
<text text-anchor="middle" x="855" y="-92.3" font-family="Times,serif" font-size="14.00" fill="#0058ad">r 113 [1 2 4 5 6 7 8 9 10 11 12 13 14 15 16 17 18 19 20 21 22 23 24 25 26 28 29 31 32 33 34 35]</text>
<polyline fill="none" stroke="#0058ad" points="1131,-81.5 1131,-110.5 "/>
<text text-anchor="middle" x="1524.5" y="-92.3" font-family="Times,serif" font-size="14.00" fill="#0058ad">r 115 [1 2 3 4 5 7 6 9 8 10 11 13 14 12 15 16 17 18 19 20 21 22 23 24 25 26 27 28 29 30 31 34 32 33 39 40 41 42 43 44 46 45 47 48 49 50]</text>
</g>
<!-- T23039 -->
<g id="node2" class="node">
<title>T23039</title>
<polygon fill="none" stroke="#0058ad" points="0,-.5 0,-29.5 2407,-29.5 2407,-.5 0,-.5"/>
<text text-anchor="middle" x="32" y="-11.3" font-family="Times,serif" font-size="14.00" fill="#0058ad">a 115 51</text>
<polyline fill="none" stroke="#0058ad" points="64,-.5 64,-29.5 "/>
<text text-anchor="middle" x="466" y="-11.3" font-family="Times,serif" font-size="14.00" fill="#0058ad">r 115 [1 2 3 4 5 7 6 9 8 10 11 13 14 12 15 16 17 18 19 20 21 22 23 24 25 26 27 28 29 30 31 34 32 33 39 40 41 42 43 44 46 45 47 48 49 50 51]</text>
<polyline fill="none" stroke="#0058ad" points="868,-.5 868,-29.5 "/>
<text text-anchor="middle" x="1270" y="-11.3" font-family="Times,serif" font-size="14.00" fill="#0058ad">r 115 [1 2 3 4 5 7 6 9 8 10 11 13 14 12 15 16 17 18 19 20 21 22 23 24 25 26 27 28 29 30 31 34 32 33 39 40 41 42 43 44 46 45 47 48 49 50 51]</text>
<polyline fill="none" stroke="#0058ad" points="1672,-.5 1672,-29.5 "/>
<text text-anchor="middle" x="2039.5" y="-11.3" font-family="Times,serif" font-size="14.00" fill="#0058ad">r 117 [1 4 2 3 5 6 7 8 9 10 11 12 13 14 17 18 15 16 19 20 21 23 24 25 26 27 22 28 29 31 30 32 33 34 35 36 37 38 39 40 42 43 44]</text>
</g>
<!-- T23037&#45;&gt;T23039 -->
<g id="edge1" class="edge">
<title>T23037:f3&#45;&gt;T23039:f0</title>
<path fill="none" stroke="#5b00c0" d="M1524.5,-81C1524.5,80.0559 961.4602,-53.5514 800.5,-48 780.5638,-47.3124 127.5939,-50.8433 40.9593,-33.9286"/>
<polygon fill="#5b00c0" stroke="#5b00c0" points="42.0777,-30.6033 31.5,-30 39.3927,-37.0679 42.0777,-30.6033"/>
<text text-anchor="middle" x="1526" y="-51.8" font-family="Times,serif" font-size="14.00" fill="#5b00c0">rw</text>
</g>
<!-- T23039&#45;&gt;T23037 -->
<g id="edge2" class="edge">
<title>T23039:f3&#45;&gt;T23037:f1</title>
<path fill="none" stroke="#5b00c0" d="M2039.5,-30C2039.5,-47.474 798.9224,-46.6574 781.5,-48 679.9368,-55.8267 555.3471,19.0649 546.9489,-70.8263"/>
<polygon fill="#5b00c0" stroke="#5b00c0" points="543.4443,-70.8554 546.5,-81 550.4375,-71.164 543.4443,-70.8554"/>
<text text-anchor="middle" x="789" y="-51.8" font-family="Times,serif" font-size="14.00" fill="#5b00c0">rw</text>
</g>
</g>
</svg>
