<?xml version="1.0" encoding="UTF-8" standalone="no"?>
<!DOCTYPE svg PUBLIC "-//W3C//DTD SVG 1.1//EN"
 "http://www.w3.org/Graphics/SVG/1.1/DTD/svg11.dtd">
<!-- Generated by graphviz version 2.40.1 (20161225.0304)
 -->
<!-- Title: a_graph Pages: 1 -->
<svg width="2108pt" height="119pt"
 viewBox="0.00 0.00 2107.50 119.00" xmlns="http://www.w3.org/2000/svg" xmlns:xlink="http://www.w3.org/1999/xlink">
<g id="graph0" class="graph" transform="scale(1 1) rotate(0) translate(4 115)">
<title>a_graph</title>
<polygon fill="#ffffff" stroke="transparent" points="-4,4 -4,-115 2103.5,-115 2103.5,4 -4,4"/>
<!-- T20165 -->
<g id="node1" class="node">
<title>T20165</title>
<polygon fill="none" stroke="#0058ad" points="955.5,-81.5 955.5,-110.5 2099.5,-110.5 2099.5,-81.5 955.5,-81.5"/>
<text text-anchor="middle" x="987.5" y="-92.3" font-family="Times,serif" font-size="14.00" fill="#0058ad">a 99 102</text>
<polyline fill="none" stroke="#0058ad" points="1019.5,-81.5 1019.5,-110.5 "/>
<text text-anchor="middle" x="1559.5" y="-92.3" font-family="Times,serif" font-size="14.00" fill="#0058ad">r 103 [1 2 5 6 3 4 7 9 8 11 12 13 14 15 17 16 18 10 20 21 22 23 24 25 28 29 26 30 31 32 33 34 27 36 37 38 43 45 46 48 49 47 52 50 51 55 60 61 62 63 64 65 66 57 58 68 69 70 71 67 72 73 74]</text>
</g>
<!-- T20167 -->
<g id="node2" class="node">
<title>T20167</title>
<polygon fill="none" stroke="#0058ad" points="0,-.5 0,-29.5 1655,-29.5 1655,-.5 0,-.5"/>
<text text-anchor="middle" x="795.5" y="-11.3" font-family="Times,serif" font-size="14.00" fill="#0058ad">r 99 [1 2 3 4 5 7 8 6 9 10 11 13 16 17 18 19 20 22 23 24 21 25 26 28 27 29 30 31 32 33 34 35 36 37 38 39 40 42 41 44 45 43 46 47 48 49 50 51 52 53 54 55 56 57 58 59 61 60 62 63 64 65 67 66 68 72 73 69 74 76 75 77 78 79 70 71 80 81 82 83 85 84 86 88 89 90 93 94 95 97 98 99 96]</text>
<polyline fill="none" stroke="#0058ad" points="1591,-.5 1591,-29.5 "/>
<text text-anchor="middle" x="1623" y="-11.3" font-family="Times,serif" font-size="14.00" fill="#0058ad">a 103 75</text>
</g>
<!-- T20165&#45;&gt;T20167 -->
<g id="edge1" class="edge">
<title>T20165:f1&#45;&gt;T20167:f1</title>
<path fill="none" stroke="#5b00c0" d="M1559.5,-81C1559.5,-48.6069 1610.2656,-62.3103 1621.3706,-40.0008"/>
<polygon fill="#5b00c0" stroke="#5b00c0" points="1624.8406,-40.5097 1623.5,-30 1617.9941,-39.0518 1624.8406,-40.5097"/>
<text text-anchor="middle" x="1620" y="-51.8" font-family="Times,serif" font-size="14.00" fill="#5b00c0">rw</text>
</g>
<!-- T20167&#45;&gt;T20165 -->
<g id="edge2" class="edge">
<title>T20167:f0&#45;&gt;T20165:f0</title>
<path fill="none" stroke="#5b00c0" d="M795.5,-30C795.5,-65.5321 899.2278,-91.7413 945.3552,-95.528"/>
<polygon fill="#5b00c0" stroke="#5b00c0" points="945.3481,-99.0314 955.5,-96 945.6735,-92.0389 945.3481,-99.0314"/>
<text text-anchor="middle" x="830" y="-51.8" font-family="Times,serif" font-size="14.00" fill="#5b00c0">rw</text>
</g>
</g>
</svg>
