<?xml version="1.0" encoding="UTF-8" standalone="no"?>
<!DOCTYPE svg PUBLIC "-//W3C//DTD SVG 1.1//EN"
 "http://www.w3.org/Graphics/SVG/1.1/DTD/svg11.dtd">
<!-- Generated by graphviz version 2.40.1 (20161225.0304)
 -->
<!-- Title: a_graph Pages: 1 -->
<svg width="5913pt" height="200pt"
 viewBox="0.00 0.00 5912.50 200.00" xmlns="http://www.w3.org/2000/svg" xmlns:xlink="http://www.w3.org/1999/xlink">
<g id="graph0" class="graph" transform="scale(1 1) rotate(0) translate(4 196)">
<title>a_graph</title>
<polygon fill="#ffffff" stroke="transparent" points="-4,4 -4,-196 5908.5,-196 5908.5,4 -4,4"/>
<!-- T5571 -->
<g id="node1" class="node">
<title>T5571</title>
<polygon fill="none" stroke="#0058ad" points="3790.5,-162.5 3790.5,-191.5 5248.5,-191.5 5248.5,-162.5 3790.5,-162.5"/>
<text text-anchor="middle" x="3819" y="-173.3" font-family="Times,serif" font-size="14.00" fill="#0058ad">a 24 83</text>
<polyline fill="none" stroke="#0058ad" points="3847.5,-162.5 3847.5,-191.5 "/>
<text text-anchor="middle" x="4548" y="-173.3" font-family="Times,serif" font-size="14.00" fill="#0058ad">r 24 [1 2 3 4 5 6 7 8 9 10 11 12 13 14 15 16 17 18 19 20 21 24 23 22 25 26 27 28 29 30 32 31 33 34 35 36 37 39 40 41 42 43 44 45 46 47 48 49 50 51 52 53 54 55 56 57 58 59 60 61 62 63 64 65 66 67 68 69 70 71 72 73 74 75 76 77 78 79 80 81 82 83]</text>
</g>
<!-- T5575 -->
<g id="node3" class="node">
<title>T5575</title>
<polygon fill="none" stroke="#0058ad" points="3612.5,-81.5 3612.5,-110.5 5904.5,-110.5 5904.5,-81.5 3612.5,-81.5"/>
<text text-anchor="middle" x="4385.5" y="-92.3" font-family="Times,serif" font-size="14.00" fill="#0058ad">r 32 [1 3 4 5 7 8 9 10 11 12 13 14 2 15 16 18 19 17 22 20 21 24 26 27 28 29 30 31 32 25 34 33 35 39 40 41 42 44 43 45 48 49 50 51 52 55 57 58 53 54 59 60 61 62 63 64 66 65 69 68 70 67 71 74 75 72 73 76 78 77 79 82 80 81 84 85 83 87 86 88 89 90 91 93 94 95 96 97 98 99]</text>
<polyline fill="none" stroke="#0058ad" points="5158.5,-81.5 5158.5,-110.5 "/>
<text text-anchor="middle" x="5531.5" y="-92.3" font-family="Times,serif" font-size="14.00" fill="#0058ad">r 31 [1 3 2 4 5 6 7 8 9 10 11 12 13 14 15 16 17 18 19 21 20 24 23 25 26 27 28 29 30 31 32 33 34 35 36 37 38 39 40 41 42 43 44 45]</text>
</g>
<!-- T5571&#45;&gt;T5575 -->
<g id="edge1" class="edge">
<title>T5571&#45;&gt;T5575</title>
<path fill="none" stroke="#0050c0" d="M4562.5044,-162.4253C4602.6519,-148.8188 4662.6721,-128.4772 4705.7081,-113.8918"/>
<polygon fill="#0050c0" stroke="#0050c0" points="4707.0909,-117.1188 4715.4383,-110.5941 4704.844,-110.4892 4707.0909,-117.1188"/>
<text text-anchor="middle" x="4664" y="-132.8" font-family="Times,serif" font-size="14.00" fill="#0050c0">rt</text>
</g>
<!-- T5573 -->
<g id="node2" class="node">
<title>T5573</title>
<polygon fill="none" stroke="#0058ad" points="0,-.5 0,-29.5 4349,-29.5 4349,-.5 0,-.5"/>
<text text-anchor="middle" x="373" y="-11.3" font-family="Times,serif" font-size="14.00" fill="#0058ad">r 31 [1 3 2 4 5 6 7 8 9 10 11 12 13 14 15 16 17 18 19 21 20 24 23 25 26 27 28 29 30 31 32 33 34 35 36 37 38 39 40 41 42 43 44 45]</text>
<polyline fill="none" stroke="#0058ad" points="746,-.5 746,-29.5 "/>
<text text-anchor="middle" x="1827" y="-11.3" font-family="Times,serif" font-size="14.00" fill="#0058ad">r 29 [2 6 7 8 9 10 11 12 13 14 15 18 17 19 16 20 21 22 23 24 25 26 27 29 30 31 32 28 33 34 35 36 37 38 39 40 41 42 43 44 46 47 49 48 50 45 51 52 53 54 55 56 57 58 60 59 61 62 63 64 65 66 67 68 69 70 71 73 72 74 75 77 78 79 80 82 81 84 85 83 88 94 95 96 97 98 99 100 101 102 103 104 106 107 108 109 105 110 111 112 113 114 115 116 117 118 119 121 122 123 120 124 125 126]</text>
<polyline fill="none" stroke="#0058ad" points="2908,-.5 2908,-29.5 "/>
<text text-anchor="middle" x="3600" y="-11.3" font-family="Times,serif" font-size="14.00" fill="#0058ad">r 24 [1 2 3 4 5 6 7 8 9 10 11 12 13 14 15 16 17 18 19 20 21 24 23 22 25 26 27 28 29 30 32 31 33 34 35 36 37 39 40 41 42 43 44 45 46 47 48 49 50 51 52 53 54 55 56 57 58 59 60 61 62 63 64 65 66 67 68 69 70 71 72 73 74 75 76 77 78 79 80 81 82]</text>
<polyline fill="none" stroke="#0058ad" points="4292,-.5 4292,-29.5 "/>
<text text-anchor="middle" x="4320.5" y="-11.3" font-family="Times,serif" font-size="14.00" fill="#0058ad">a 32 92</text>
</g>
<!-- T5573&#45;&gt;T5571 -->
<g id="edge2" class="edge">
<title>T5573:f2&#45;&gt;T5571:f0</title>
<path fill="none" stroke="#5b00c0" d="M3600.5,-30C3600.5,-33.2741 3577.5898,-95.9575 3588.5,-111 3614.4393,-146.764 3727.311,-173.3766 3780.4219,-176.6585"/>
<polygon fill="#5b00c0" stroke="#5b00c0" points="3780.3872,-180.1593 3790.5,-177 3780.6243,-173.1633 3780.3872,-180.1593"/>
<text text-anchor="middle" x="3596" y="-92.3" font-family="Times,serif" font-size="14.00" fill="#5b00c0">rw</text>
</g>
<!-- T5575&#45;&gt;T5573 -->
<g id="edge3" class="edge">
<title>T5575:f0&#45;&gt;T5573:f3</title>
<path fill="none" stroke="#5b00c0" d="M4385.5,-81C4385.5,-51.3719 4383.4661,-22.3935 4359.7096,-16.2084"/>
<polygon fill="#5b00c0" stroke="#5b00c0" points="4359.8421,-12.6997 4349.5,-15 4359.0193,-19.6512 4359.8421,-12.6997"/>
<text text-anchor="middle" x="4392" y="-51.8" font-family="Times,serif" font-size="14.00" fill="#5b00c0">rw</text>
</g>
</g>
</svg>
