<?xml version="1.0" encoding="UTF-8" standalone="no"?>
<!DOCTYPE svg PUBLIC "-//W3C//DTD SVG 1.1//EN"
 "http://www.w3.org/Graphics/SVG/1.1/DTD/svg11.dtd">
<!-- Generated by graphviz version 2.40.1 (20161225.0304)
 -->
<!-- Title: a_graph Pages: 1 -->
<svg width="3960pt" height="119pt"
 viewBox="0.00 0.00 3960.00 119.00" xmlns="http://www.w3.org/2000/svg" xmlns:xlink="http://www.w3.org/1999/xlink">
<g id="graph0" class="graph" transform="scale(1 1) rotate(0) translate(4 115)">
<title>a_graph</title>
<polygon fill="#ffffff" stroke="transparent" points="-4,4 -4,-115 3956,-115 3956,4 -4,4"/>
<!-- T567 -->
<g id="node1" class="node">
<title>T567</title>
<polygon fill="none" stroke="#0058ad" points="0,-81.5 0,-110.5 3952,-110.5 3952,-81.5 0,-81.5"/>
<text text-anchor="middle" x="798.5" y="-92.3" font-family="Times,serif" font-size="14.00" fill="#0058ad">r 8 [2 1 5 9 10 11 12 13 14 15 16 17 18 19 20 21 22 23 24 26 27 25 28 29 30 31 32 33 34 35 37 38 36 39 40 41 42 43 44 45 47 46 48 49 50 51 52 53 54 55 56 57 58 59 60 61 62 66 67 68 70 69 71 72 75 76 78 77 79 80 83 84 82 81 85 86 87 88 89 90 91 93 94 95 92 97 98 96 99 100 101]</text>
<polyline fill="none" stroke="#0058ad" points="1597,-81.5 1597,-110.5 "/>
<text text-anchor="middle" x="2395.5" y="-92.3" font-family="Times,serif" font-size="14.00" fill="#0058ad">r 8 [2 1 5 9 10 11 12 13 14 15 16 17 18 19 20 21 22 23 24 26 27 25 28 29 30 31 32 33 34 35 37 38 36 39 40 41 42 43 44 45 47 46 48 49 50 51 52 53 54 55 56 57 58 59 60 61 62 66 67 68 70 69 71 72 75 76 78 77 79 80 83 84 82 81 85 86 87 88 89 90 91 93 94 95 92 97 98 96 99 100 101]</text>
<polyline fill="none" stroke="#0058ad" points="3194,-81.5 3194,-110.5 "/>
<text text-anchor="middle" x="3222.5" y="-92.3" font-family="Times,serif" font-size="14.00" fill="#0058ad">a 10 42</text>
<polyline fill="none" stroke="#0058ad" points="3251,-81.5 3251,-110.5 "/>
<text text-anchor="middle" x="3601.5" y="-92.3" font-family="Times,serif" font-size="14.00" fill="#0058ad">r 10 [2 3 4 6 5 7 8 9 11 10 13 15 14 12 16 17 21 22 20 23 24 25 18 19 26 28 27 29 30 32 33 31 35 36 37 38 34 39 40 41 42]</text>
</g>
<!-- T565 -->
<g id="node2" class="node">
<title>T565</title>
<polygon fill="none" stroke="#0058ad" points="2268,-.5 2268,-29.5 3748,-29.5 3748,-.5 2268,-.5"/>
<text text-anchor="middle" x="2296.5" y="-11.3" font-family="Times,serif" font-size="14.00" fill="#0058ad">a 8 102</text>
<polyline fill="none" stroke="#0058ad" points="2325,-.5 2325,-29.5 "/>
<text text-anchor="middle" x="2353.5" y="-11.3" font-family="Times,serif" font-size="14.00" fill="#0058ad">a 8 103</text>
<polyline fill="none" stroke="#0058ad" points="2382,-.5 2382,-29.5 "/>
<text text-anchor="middle" x="2723.5" y="-11.3" font-family="Times,serif" font-size="14.00" fill="#0058ad">r 10 [2 3 4 6 5 7 8 9 11 10 13 15 14 12 16 17 21 22 20 23 24 25 18 19 26 28 27 29 30 32 33 31 35 36 37 38 34 39 40 41]</text>
<polyline fill="none" stroke="#0058ad" points="3065,-.5 3065,-29.5 "/>
<text text-anchor="middle" x="3406.5" y="-11.3" font-family="Times,serif" font-size="14.00" fill="#0058ad">r 10 [2 3 4 6 5 7 8 9 11 10 13 15 14 12 16 17 21 22 20 23 24 25 18 19 26 28 27 29 30 32 33 31 35 36 37 38 34 39 40 41]</text>
</g>
<!-- T567&#45;&gt;T565 -->
<g id="edge1" class="edge">
<title>T567:f0&#45;&gt;T565:f0</title>
<path fill="none" stroke="#5b00c0" d="M798,-81C798,-41.6424 2123.0257,-16.8865 2257.8582,-15.1033"/>
<polygon fill="#5b00c0" stroke="#5b00c0" points="2258.0362,-18.6018 2268,-15 2257.9648,-11.6022 2258.0362,-18.6018"/>
<text text-anchor="middle" x="1115.5" y="-51.8" font-family="Times,serif" font-size="14.00" fill="#5b00c0">rw</text>
</g>
<!-- T565&#45;&gt;T567 -->
<g id="edge2" class="edge">
<title>T565:f2&#45;&gt;T567:f2</title>
<path fill="none" stroke="#5b00c0" d="M2723,-30C2723,-249.885 3207.4971,130.1592 3222.6376,-70.978"/>
<polygon fill="#5b00c0" stroke="#5b00c0" points="3219.1408,-71.133 3223,-81 3226.1363,-70.88 3219.1408,-71.133"/>
<text text-anchor="middle" x="3227.5" y="-51.8" font-family="Times,serif" font-size="14.00" fill="#5b00c0">rw</text>
</g>
</g>
</svg>
