<?xml version="1.0" encoding="UTF-8" standalone="no"?>
<!DOCTYPE svg PUBLIC "-//W3C//DTD SVG 1.1//EN"
 "http://www.w3.org/Graphics/SVG/1.1/DTD/svg11.dtd">
<!-- Generated by graphviz version 2.40.1 (20161225.0304)
 -->
<!-- Title: a_graph Pages: 1 -->
<svg width="3206pt" height="119pt"
 viewBox="0.00 0.00 3206.00 119.00" xmlns="http://www.w3.org/2000/svg" xmlns:xlink="http://www.w3.org/1999/xlink">
<g id="graph0" class="graph" transform="scale(1 1) rotate(0) translate(4 115)">
<title>a_graph</title>
<polygon fill="#ffffff" stroke="transparent" points="-4,4 -4,-115 3202,-115 3202,4 -4,4"/>
<!-- T6063 -->
<g id="node1" class="node">
<title>T6063</title>
<polygon fill="none" stroke="#0058ad" points="0,-81.5 0,-110.5 3198,-110.5 3198,-81.5 0,-81.5"/>
<text text-anchor="middle" x="649" y="-92.3" font-family="Times,serif" font-size="14.00" fill="#0058ad">r 33 [2 3 1 4 5 6 7 9 10 11 8 13 14 12 16 17 15 18 20 21 19 22 23 24 25 26 27 28 29 30 31 32 33 34 35 36 37 38 39 40 41 42 43 45 44 46 49 50 51 52 53 54 55 57 58 59 60 56 61 62 63 64 65 67 66 69 68 71 72 73 70 74 75 76 77 78]</text>
<polyline fill="none" stroke="#0058ad" points="1298,-81.5 1298,-110.5 "/>
<text text-anchor="middle" x="1330" y="-92.3" font-family="Times,serif" font-size="14.00" fill="#0058ad">a 24 101</text>
<polyline fill="none" stroke="#0058ad" points="1362,-81.5 1362,-110.5 "/>
<text text-anchor="middle" x="2248" y="-92.3" font-family="Times,serif" font-size="14.00" fill="#0058ad">r 34 [1 2 3 4 5 7 6 8 10 11 9 13 14 15 16 12 17 19 20 21 22 23 26 27 29 18 32 30 31 33 34 35 36 38 37 39 40 41 46 43 44 45 47 48 49 50 51 52 53 55 59 60 61 63 65 66 67 62 68 69 70 64 71 72 74 75 76 73 77 79 80 82 81 83 84 78 85 86 87 89 91 88 92 90 95 94 93 99 100 101 102 103 104 105 106 96 97 98 107 108]</text>
<polyline fill="none" stroke="#0058ad" points="3134,-81.5 3134,-110.5 "/>
<text text-anchor="middle" x="3166" y="-92.3" font-family="Times,serif" font-size="14.00" fill="#0058ad">a 34 109</text>
</g>
<!-- T6064 -->
<g id="node2" class="node">
<title>T6064</title>
<polygon fill="none" stroke="#0058ad" points="549.5,-.5 549.5,-29.5 2404.5,-29.5 2404.5,-.5 549.5,-.5"/>
<text text-anchor="middle" x="578" y="-11.3" font-family="Times,serif" font-size="14.00" fill="#0058ad">a 33 79</text>
<polyline fill="none" stroke="#0058ad" points="606.5,-.5 606.5,-29.5 "/>
<text text-anchor="middle" x="1448.5" y="-11.3" font-family="Times,serif" font-size="14.00" fill="#0058ad">r 24 [1 2 3 4 5 6 7 8 9 10 11 12 13 14 15 16 17 18 19 20 21 24 23 22 25 26 27 28 29 30 32 31 33 34 35 36 37 39 40 41 42 43 44 45 46 47 48 49 50 51 52 53 54 55 56 57 58 59 60 61 62 63 64 65 66 67 68 69 70 71 72 73 74 75 76 77 78 79 80 81 82 83 84 85 86 87 88 89 90 91 92 93 95 96 97 98 99 100]</text>
<polyline fill="none" stroke="#0058ad" points="2290.5,-.5 2290.5,-29.5 "/>
<text text-anchor="middle" x="2319" y="-11.3" font-family="Times,serif" font-size="14.00" fill="#0058ad">a 33 80</text>
<polyline fill="none" stroke="#0058ad" points="2347.5,-.5 2347.5,-29.5 "/>
<text text-anchor="middle" x="2376" y="-11.3" font-family="Times,serif" font-size="14.00" fill="#0058ad">a 5 111</text>
</g>
<!-- T6063&#45;&gt;T6064 -->
<g id="edge1" class="edge">
<title>T6063:f0&#45;&gt;T6064:f0</title>
<path fill="none" stroke="#5b00c0" d="M649,-81C649,-46.0933 591.6895,-64.1044 580.0483,-39.9466"/>
<polygon fill="#5b00c0" stroke="#5b00c0" points="583.4451,-39.0885 578,-30 576.589,-40.5005 583.4451,-39.0885"/>
<text text-anchor="middle" x="646.5" y="-51.8" font-family="Times,serif" font-size="14.00" fill="#5b00c0">rw</text>
</g>
<!-- T6064&#45;&gt;T6063 -->
<g id="edge2" class="edge">
<title>T6064:f1&#45;&gt;T6063:f1</title>
<path fill="none" stroke="#5b00c0" d="M1448,-30C1448,-83.116 1346.0104,-32.1684 1331.6681,-70.6505"/>
<polygon fill="#5b00c0" stroke="#5b00c0" points="1328.1359,-70.5705 1330,-81 1335.0467,-71.6844 1328.1359,-70.5705"/>
<text text-anchor="middle" x="1447.5" y="-51.8" font-family="Times,serif" font-size="14.00" fill="#5b00c0">rw</text>
</g>
</g>
</svg>
