<?xml version="1.0" encoding="UTF-8" standalone="no"?>
<!DOCTYPE svg PUBLIC "-//W3C//DTD SVG 1.1//EN"
 "http://www.w3.org/Graphics/SVG/1.1/DTD/svg11.dtd">
<!-- Generated by graphviz version 2.40.1 (20161225.0304)
 -->
<!-- Title: a_graph Pages: 1 -->
<svg width="2235pt" height="119pt"
 viewBox="0.00 0.00 2235.00 119.00" xmlns="http://www.w3.org/2000/svg" xmlns:xlink="http://www.w3.org/1999/xlink">
<g id="graph0" class="graph" transform="scale(1 1) rotate(0) translate(4 115)">
<title>a_graph</title>
<polygon fill="#ffffff" stroke="transparent" points="-4,4 -4,-115 2231,-115 2231,4 -4,4"/>
<!-- T18485 -->
<g id="node1" class="node">
<title>T18485</title>
<polygon fill="none" stroke="#0058ad" points="426.5,-81.5 426.5,-110.5 1718.5,-110.5 1718.5,-81.5 426.5,-81.5"/>
<text text-anchor="middle" x="733.5" y="-92.3" font-family="Times,serif" font-size="14.00" fill="#0058ad">r 94 [1 2 3 4 5 6 7 8 10 11 12 13 15 14 18 16 17 20 21 22 23 19 24 26 27 28 29 25 32 35 36 37 38 39 40 41]</text>
<polyline fill="none" stroke="#0058ad" points="1040.5,-81.5 1040.5,-110.5 "/>
<text text-anchor="middle" x="1072.5" y="-92.3" font-family="Times,serif" font-size="14.00" fill="#0058ad">a 91 105</text>
<polyline fill="none" stroke="#0058ad" points="1104.5,-81.5 1104.5,-110.5 "/>
<text text-anchor="middle" x="1411.5" y="-92.3" font-family="Times,serif" font-size="14.00" fill="#0058ad">r 94 [1 2 3 4 5 6 7 8 10 11 12 13 15 14 18 16 17 20 21 22 23 19 24 26 27 28 29 25 32 35 36 37 38 39 40 41]</text>
</g>
<!-- T18487 -->
<g id="node2" class="node">
<title>T18487</title>
<polygon fill="none" stroke="#0058ad" points="0,-.5 0,-29.5 2227,-29.5 2227,-.5 0,-.5"/>
<text text-anchor="middle" x="542.5" y="-11.3" font-family="Times,serif" font-size="14.00" fill="#0058ad">r 91 [43 44 45 46 47 49 48 51 50 52 53 54 55 56 57 59 58 60 61 62 63 64 65 66 67 68 69 70 72 71 73 74 75 76 77 78 79 80 81 82 83 84 86 87 88 89 90 91 93 94 95 92 96 97 98 99 100 101 103]</text>
<polyline fill="none" stroke="#0058ad" points="1085,-.5 1085,-29.5 "/>
<text text-anchor="middle" x="1113.5" y="-11.3" font-family="Times,serif" font-size="14.00" fill="#0058ad">a 94 45</text>
<polyline fill="none" stroke="#0058ad" points="1142,-.5 1142,-29.5 "/>
<text text-anchor="middle" x="1684.5" y="-11.3" font-family="Times,serif" font-size="14.00" fill="#0058ad">r 91 [43 44 45 46 47 49 48 51 50 52 53 54 55 56 57 59 58 60 61 62 63 64 65 66 67 68 69 70 72 71 73 74 75 76 77 78 79 80 81 82 83 84 86 87 88 89 90 91 93 94 95 92 96 97 98 99 100 101 103]</text>
</g>
<!-- T18485&#45;&gt;T18487 -->
<g id="edge1" class="edge">
<title>T18485:f0&#45;&gt;T18487:f1</title>
<path fill="none" stroke="#5b00c0" d="M733.5,-81C733.5,20.9494 859.4206,-61.2905 960.5,-48 975.0183,-46.091 1076.6662,-46.8022 1105.7455,-36.3313"/>
<polygon fill="#5b00c0" stroke="#5b00c0" points="1107.9674,-39.0356 1113.5,-30 1103.5403,-33.6133 1107.9674,-39.0356"/>
<text text-anchor="middle" x="968" y="-51.8" font-family="Times,serif" font-size="14.00" fill="#5b00c0">rw</text>
</g>
<!-- T18487&#45;&gt;T18485 -->
<g id="edge2" class="edge">
<title>T18487:f0&#45;&gt;T18485:f1</title>
<path fill="none" stroke="#5b00c0" d="M542.5,-30C542.5,-54.0763 951.8333,-43.5775 975.5,-48 1016.416,-55.6458 1063.5769,-38.8388 1071.3805,-70.6711"/>
<polygon fill="#5b00c0" stroke="#5b00c0" points="1067.9428,-71.4354 1072.5,-81 1074.902,-70.6811 1067.9428,-71.4354"/>
<text text-anchor="middle" x="1076" y="-51.8" font-family="Times,serif" font-size="14.00" fill="#5b00c0">rw</text>
</g>
</g>
</svg>
