<?xml version="1.0" encoding="UTF-8" standalone="no"?>
<!DOCTYPE svg PUBLIC "-//W3C//DTD SVG 1.1//EN"
 "http://www.w3.org/Graphics/SVG/1.1/DTD/svg11.dtd">
<!-- Generated by graphviz version 2.40.1 (20161225.0304)
 -->
<!-- Title: a_graph Pages: 1 -->
<svg width="2664pt" height="119pt"
 viewBox="0.00 0.00 2664.00 119.00" xmlns="http://www.w3.org/2000/svg" xmlns:xlink="http://www.w3.org/1999/xlink">
<g id="graph0" class="graph" transform="scale(1 1) rotate(0) translate(4 115)">
<title>a_graph</title>
<polygon fill="#ffffff" stroke="transparent" points="-4,4 -4,-115 2660,-115 2660,4 -4,4"/>
<!-- T4949 -->
<g id="node1" class="node">
<title>T4949</title>
<polygon fill="none" stroke="#0058ad" points="1740,-81.5 1740,-110.5 2152,-110.5 2152,-81.5 1740,-81.5"/>
<text text-anchor="middle" x="1772" y="-92.3" font-family="Times,serif" font-size="14.00" fill="#0058ad">a 23 125</text>
<polyline fill="none" stroke="#0058ad" points="1804,-81.5 1804,-110.5 "/>
<text text-anchor="middle" x="1978" y="-92.3" font-family="Times,serif" font-size="14.00" fill="#0058ad">r 30 [4 5 6 7 12 11 14 13 15 16 17 18 19 20 21 22 25 26 27]</text>
</g>
<!-- T4951 -->
<g id="node2" class="node">
<title>T4951</title>
<polygon fill="none" stroke="#0058ad" points="0,-.5 0,-29.5 2656,-29.5 2656,-.5 0,-.5"/>
<text text-anchor="middle" x="1088.5" y="-11.3" font-family="Times,serif" font-size="14.00" fill="#0058ad">r 23 [1 2 3 4 5 6 9 7 8 10 11 12 13 15 14 16 17 18 19 20 23 21 22 24 25 26 27 28 29 30 31 32 33 34 35 36 38 39 42 43 45 44 47 48 46 49 50 51 52 54 53 55 56 57 58 59 60 61 62 63 64 65 66 67 68 69 70 71 72 73 74 75 76 78 79 80 81 82 83 84 86 85 87 88 89 90 91 93 94 95 96 92 97 98 99 100 101 102 103 105 106 107 108 104 109 110 111 112 113 114 115 116 117 118 119 122 123 124]</text>
<polyline fill="none" stroke="#0058ad" points="2177,-.5 2177,-29.5 "/>
<text text-anchor="middle" x="2205.5" y="-11.3" font-family="Times,serif" font-size="14.00" fill="#0058ad">a 30 24</text>
<polyline fill="none" stroke="#0058ad" points="2234,-.5 2234,-29.5 "/>
<text text-anchor="middle" x="2416.5" y="-11.3" font-family="Times,serif" font-size="14.00" fill="#0058ad">r 30 [4 5 6 7 12 11 14 13 15 16 17 18 19 20 21 22 25 26 27 24]</text>
<polyline fill="none" stroke="#0058ad" points="2599,-.5 2599,-29.5 "/>
<text text-anchor="middle" x="2627.5" y="-11.3" font-family="Times,serif" font-size="14.00" fill="#0058ad">a 29 17</text>
</g>
<!-- T4949&#45;&gt;T4951 -->
<g id="edge1" class="edge">
<title>T4949:f1&#45;&gt;T4951:f1</title>
<path fill="none" stroke="#5b00c0" d="M2152,-96C2186.3473,-96 2202.7897,-72.9222 2205.5708,-40.386"/>
<polygon fill="#5b00c0" stroke="#5b00c0" points="2209.084,-40.136 2206,-30 2202.09,-39.8469 2209.084,-40.136"/>
<text text-anchor="middle" x="2211.5" y="-51.8" font-family="Times,serif" font-size="14.00" fill="#5b00c0">rw</text>
</g>
<!-- T4951&#45;&gt;T4949 -->
<g id="edge2" class="edge">
<title>T4951:f0&#45;&gt;T4949:f0</title>
<path fill="none" stroke="#5b00c0" d="M1088,-30C1088,-64.523 1641.5183,-92.9184 1729.8579,-95.7653"/>
<polygon fill="#5b00c0" stroke="#5b00c0" points="1729.9217,-99.2677 1740,-96 1730.0837,-92.2695 1729.9217,-99.2677"/>
<text text-anchor="middle" x="1244.5" y="-51.8" font-family="Times,serif" font-size="14.00" fill="#5b00c0">rw</text>
</g>
</g>
</svg>
