<?xml version="1.0" encoding="UTF-8" standalone="no"?>
<!DOCTYPE svg PUBLIC "-//W3C//DTD SVG 1.1//EN"
 "http://www.w3.org/Graphics/SVG/1.1/DTD/svg11.dtd">
<!-- Generated by graphviz version 2.40.1 (20161225.0304)
 -->
<!-- Title: a_graph Pages: 1 -->
<svg width="2731pt" height="200pt"
 viewBox="0.00 0.00 2730.50 200.00" xmlns="http://www.w3.org/2000/svg" xmlns:xlink="http://www.w3.org/1999/xlink">
<g id="graph0" class="graph" transform="scale(1 1) rotate(0) translate(4 196)">
<title>a_graph</title>
<polygon fill="#ffffff" stroke="transparent" points="-4,4 -4,-196 2726.5,-196 2726.5,4 -4,4"/>
<!-- T6757 -->
<g id="node1" class="node">
<title>T6757</title>
<polygon fill="none" stroke="#0058ad" points="205.5,-162.5 205.5,-191.5 2029.5,-191.5 2029.5,-162.5 205.5,-162.5"/>
<text text-anchor="middle" x="647.5" y="-173.3" font-family="Times,serif" font-size="14.00" fill="#0058ad">r 37 [1 2 3 5 7 8 6 4 10 9 11 13 12 14 15 16 18 19 17 22 21 20 23 26 24 25 27 28 29 30 33 34 31 32 35 37 38 39 40 41 36 42 43 44 45 46 47 48 49 51 50 52]</text>
<polyline fill="none" stroke="#0058ad" points="1089.5,-162.5 1089.5,-191.5 "/>
<text text-anchor="middle" x="1118" y="-173.3" font-family="Times,serif" font-size="14.00" fill="#0058ad">a 37 54</text>
<polyline fill="none" stroke="#0058ad" points="1146.5,-162.5 1146.5,-191.5 "/>
<text text-anchor="middle" x="1588" y="-173.3" font-family="Times,serif" font-size="14.00" fill="#0058ad">r 36 [1 2 6 9 10 11 13 14 12 15 16 17 18 19 20 21 22 23 24 25 26 27 28 29 30 31 32 33 34 35 36 37 38 39 41 40 42 44 43 45 46 47 48 49 51 50 52 53 55 54]</text>
</g>
<!-- T6759 -->
<g id="node3" class="node">
<title>T6759</title>
<polygon fill="none" stroke="#0058ad" points="50.5,-81.5 50.5,-110.5 2722.5,-110.5 2722.5,-81.5 50.5,-81.5"/>
<text text-anchor="middle" x="483.5" y="-92.3" font-family="Times,serif" font-size="14.00" fill="#0058ad">r 37 [1 2 3 5 7 8 6 4 10 9 11 13 12 14 15 16 18 19 17 22 21 20 23 26 24 25 27 28 29 30 33 34 31 32 35 37 38 39 40 41 36 42 43 44 45 46 47 48 49 51 50]</text>
<polyline fill="none" stroke="#0058ad" points="916.5,-81.5 916.5,-110.5 "/>
<text text-anchor="middle" x="1349.5" y="-92.3" font-family="Times,serif" font-size="14.00" fill="#0058ad">r 37 [1 2 3 5 7 8 6 4 10 9 11 13 12 14 15 16 18 19 17 22 21 20 23 26 24 25 27 28 29 30 33 34 31 32 35 37 38 39 40 41 36 42 43 44 45 46 47 48 49 51 50]</text>
<polyline fill="none" stroke="#0058ad" points="1782.5,-81.5 1782.5,-110.5 "/>
<text text-anchor="middle" x="2224" y="-92.3" font-family="Times,serif" font-size="14.00" fill="#0058ad">r 36 [1 2 6 9 10 11 13 14 12 15 16 17 18 19 20 21 22 23 24 25 26 27 28 29 30 31 32 33 34 35 36 37 38 39 41 40 42 44 43 45 46 47 48 49 51 50 52 53 55 54]</text>
<polyline fill="none" stroke="#0058ad" points="2665.5,-81.5 2665.5,-110.5 "/>
<text text-anchor="middle" x="2694" y="-92.3" font-family="Times,serif" font-size="14.00" fill="#0058ad">a 36 57</text>
</g>
<!-- T6757&#45;&gt;T6759 -->
<g id="edge1" class="edge">
<title>T6757:f2&#45;&gt;T6759:f3</title>
<path fill="none" stroke="#5b00c0" d="M2029.5,-177C2064.2331,-177 2616.0172,-151.728 2687.0013,-118.0703"/>
<polygon fill="#5b00c0" stroke="#5b00c0" points="2689.6252,-120.4068 2694.5,-111 2684.8231,-115.3137 2689.6252,-120.4068"/>
<text text-anchor="middle" x="2648" y="-132.8" font-family="Times,serif" font-size="14.00" fill="#5b00c0">rw</text>
</g>
<!-- T6755 -->
<g id="node2" class="node">
<title>T6755</title>
<polygon fill="none" stroke="#0058ad" points="0,-.5 0,-29.5 167,-29.5 167,-.5 0,-.5"/>
<text text-anchor="middle" x="28.5" y="-11.3" font-family="Times,serif" font-size="14.00" fill="#0058ad">a 37 52</text>
<polyline fill="none" stroke="#0058ad" points="57,-.5 57,-29.5 "/>
<text text-anchor="middle" x="112" y="-11.3" font-family="Times,serif" font-size="14.00" fill="#0058ad">r 39 [1 2 3 4 5 6]</text>
</g>
<!-- T6755&#45;&gt;T6757 -->
<g id="edge2" class="edge">
<title>T6755:f0&#45;&gt;T6757:f1</title>
<path fill="none" stroke="#c02700" d="M28.5,-30C28.5,-35.7198 21.8898,-75.2935 21.5,-81 20.5914,-94.3023 12.2934,-101.3555 21.5,-111 103.2859,-196.6765 1059.9564,-49.1 1115.9411,-151.9866"/>
<polygon fill="#c02700" stroke="#c02700" points="1112.633,-153.178 1118.5,-162 1119.415,-151.4448 1112.633,-153.178"/>
<text text-anchor="middle" x="31.5" y="-92.3" font-family="Times,serif" font-size="14.00" fill="#c02700">ww</text>
</g>
<!-- T6759&#45;&gt;T6755 -->
<g id="edge3" class="edge">
<title>T6759:f0&#45;&gt;T6755:f0</title>
<path fill="none" stroke="#5b00c0" d="M50.5,-96C37.5764,-96 30.886,-60.6831 29.0386,-40.0638"/>
<polygon fill="#5b00c0" stroke="#5b00c0" points="32.5295,-39.7986 28.5,-30 25.5395,-40.1728 32.5295,-39.7986"/>
<text text-anchor="middle" x="40" y="-51.8" font-family="Times,serif" font-size="14.00" fill="#5b00c0">rw</text>
</g>
</g>
</svg>
