<?xml version="1.0" encoding="UTF-8" standalone="no"?>
<!DOCTYPE svg PUBLIC "-//W3C//DTD SVG 1.1//EN"
 "http://www.w3.org/Graphics/SVG/1.1/DTD/svg11.dtd">
<!-- Generated by graphviz version 2.40.1 (20161225.0304)
 -->
<!-- Title: a_graph Pages: 1 -->
<svg width="3689pt" height="119pt"
 viewBox="0.00 0.00 3689.00 119.00" xmlns="http://www.w3.org/2000/svg" xmlns:xlink="http://www.w3.org/1999/xlink">
<g id="graph0" class="graph" transform="scale(1 1) rotate(0) translate(4 115)">
<title>a_graph</title>
<polygon fill="#ffffff" stroke="transparent" points="-4,4 -4,-115 3685,-115 3685,4 -4,4"/>
<!-- T14337 -->
<g id="node1" class="node">
<title>T14337</title>
<polygon fill="none" stroke="#0058ad" points="1304.5,-81.5 1304.5,-110.5 2666.5,-110.5 2666.5,-81.5 1304.5,-81.5"/>
<text text-anchor="middle" x="1953.5" y="-92.3" font-family="Times,serif" font-size="14.00" fill="#0058ad">r 75 [1 2 3 4 5 6 7 8 9 14 16 17 15 18 21 19 20 23 24 25 28 29 30 34 35 32 36 37 38 39 40 41 42 43 44 45 46 47 48 49 50 51 52 53 54 55 56 57 58 59 60 61 62 63 64 65 66 67 68 69 71 70 72 73 75 76 77 78 74 79 80 81 82 83 84 85]</text>
<polyline fill="none" stroke="#0058ad" points="2602.5,-81.5 2602.5,-110.5 "/>
<text text-anchor="middle" x="2634.5" y="-92.3" font-family="Times,serif" font-size="14.00" fill="#0058ad">a 73 111</text>
</g>
<!-- T14338 -->
<g id="node2" class="node">
<title>T14338</title>
<polygon fill="none" stroke="#0058ad" points="0,-.5 0,-29.5 3681,-29.5 3681,-.5 0,-.5"/>
<text text-anchor="middle" x="936" y="-11.3" font-family="Times,serif" font-size="14.00" fill="#0058ad">r 73 [1 3 2 4 5 6 7 8 9 10 11 12 13 14 15 16 17 18 19 20 21 22 23 24 25 26 27 28 29 30 31 32 33 34 35 36 37 38 39 40 41 42 45 43 44 46 47 48 49 50 51 52 53 54 55 56 57 58 59 62 63 64 65 66 69 67 70 71 72 74 75 76 78 77 80 81 79 83 82 84 85 86 89 90 91 88 92 93 94 95 96 97 98 99 100 101 102 103 104 105 106 107 108 109 110]</text>
<polyline fill="none" stroke="#0058ad" points="1872,-.5 1872,-29.5 "/>
<text text-anchor="middle" x="2748" y="-11.3" font-family="Times,serif" font-size="14.00" fill="#0058ad">r 70 [1 2 3 4 5 6 7 8 9 10 11 12 13 14 15 16 17 18 19 20 21 22 23 24 25 26 27 28 29 30 31 32 33 34 35 36 37 38 39 40 42 41 43 44 45 46 47 48 49 50 51 52 53 54 55 56 57 58 59 60 61 62 63 64 65 66 67 68 69 70 71 72 73 74 75 76 77 78 79 80 81 85 86 87 88 89 91 92 94 95 96 97 98 99 100 101 102 103 104 105]</text>
<polyline fill="none" stroke="#0058ad" points="3624,-.5 3624,-29.5 "/>
<text text-anchor="middle" x="3652.5" y="-11.3" font-family="Times,serif" font-size="14.00" fill="#0058ad">a 75 86</text>
</g>
<!-- T14337&#45;&gt;T14338 -->
<g id="edge1" class="edge">
<title>T14337:f0&#45;&gt;T14338:f2</title>
<path fill="none" stroke="#5b00c0" d="M1953.5,-81C1953.5,26.5836 2329.0091,-52.4644 2436.5,-48 2452.4698,-47.3367 3527.0985,-46.9354 3642.4911,-32.5816"/>
<polygon fill="#5b00c0" stroke="#5b00c0" points="3643.6911,-35.8867 3652.5,-30 3641.9427,-29.1085 3643.6911,-35.8867"/>
<text text-anchor="middle" x="2444" y="-51.8" font-family="Times,serif" font-size="14.00" fill="#5b00c0">rw</text>
</g>
<!-- T14338&#45;&gt;T14337 -->
<g id="edge2" class="edge">
<title>T14338:f0&#45;&gt;T14337:f1</title>
<path fill="none" stroke="#5b00c0" d="M935.5,-30C935.5,-51.057 2430.5382,-45.9996 2451.5,-48 2530.0756,-55.4985 2625.4874,-3.3887 2633.901,-70.6921"/>
<polygon fill="#5b00c0" stroke="#5b00c0" points="2630.4257,-71.2199 2634.5,-81 2637.4139,-70.8138 2630.4257,-71.2199"/>
<text text-anchor="middle" x="2639" y="-51.8" font-family="Times,serif" font-size="14.00" fill="#5b00c0">rw</text>
</g>
</g>
</svg>
