<?xml version="1.0" encoding="UTF-8" standalone="no"?>
<!DOCTYPE svg PUBLIC "-//W3C//DTD SVG 1.1//EN"
 "http://www.w3.org/Graphics/SVG/1.1/DTD/svg11.dtd">
<!-- Generated by graphviz version 2.40.1 (20161225.0304)
 -->
<!-- Title: a_graph Pages: 1 -->
<svg width="2014pt" height="119pt"
 viewBox="0.00 0.00 2014.00 119.00" xmlns="http://www.w3.org/2000/svg" xmlns:xlink="http://www.w3.org/1999/xlink">
<g id="graph0" class="graph" transform="scale(1 1) rotate(0) translate(4 115)">
<title>a_graph</title>
<polygon fill="#ffffff" stroke="transparent" points="-4,4 -4,-115 2010,-115 2010,4 -4,4"/>
<!-- T3717 -->
<g id="node1" class="node">
<title>T3717</title>
<polygon fill="none" stroke="#0058ad" points="0,-81.5 0,-110.5 1268,-110.5 1268,-81.5 0,-81.5"/>
<text text-anchor="middle" x="28.5" y="-92.3" font-family="Times,serif" font-size="14.00" fill="#0058ad">a 25 17</text>
<polyline fill="none" stroke="#0058ad" points="57,-81.5 57,-110.5 "/>
<text text-anchor="middle" x="662.5" y="-92.3" font-family="Times,serif" font-size="14.00" fill="#0058ad">r 21 [1 2 3 4 5 6 7 8 9 10 12 13 11 15 16 21 23 24 18 19 25 26 27 28 29 30 31 32 33 34 35 36 37 38 39 40 41 42 43 45 46 44 48 49 50 47 51 52 53 54 56 57 55 58 59 60 62 61 63 65 66 64 67 68 69 70 71 72 73 74 75]</text>
</g>
<!-- T3715 -->
<g id="node2" class="node">
<title>T3715</title>
<polygon fill="none" stroke="#0058ad" points="194,-.5 194,-29.5 2006,-29.5 2006,-.5 194,-.5"/>
<text text-anchor="middle" x="325.5" y="-11.3" font-family="Times,serif" font-size="14.00" fill="#0058ad">r 25 [1 2 3 4 5 9 8 6 7 10 11 12 13 14 15 16]</text>
<polyline fill="none" stroke="#0058ad" points="457,-.5 457,-29.5 "/>
<text text-anchor="middle" x="485.5" y="-11.3" font-family="Times,serif" font-size="14.00" fill="#0058ad">a 21 76</text>
<polyline fill="none" stroke="#0058ad" points="514,-.5 514,-29.5 "/>
<text text-anchor="middle" x="645.5" y="-11.3" font-family="Times,serif" font-size="14.00" fill="#0058ad">r 25 [1 2 3 4 5 9 8 6 7 10 11 12 13 14 15 16]</text>
<polyline fill="none" stroke="#0058ad" points="777,-.5 777,-29.5 "/>
<text text-anchor="middle" x="1391.5" y="-11.3" font-family="Times,serif" font-size="14.00" fill="#0058ad">r 21 [1 2 3 4 5 6 7 8 9 10 12 13 11 15 16 21 23 24 18 19 25 26 27 28 29 30 31 32 33 34 35 36 37 38 39 40 41 42 43 45 46 44 48 49 50 47 51 52 53 54 56 57 55 58 59 60 62 61 63 65 66 64 67 68 69 70 71 72 73 74 75 76]</text>
</g>
<!-- T3717&#45;&gt;T3715 -->
<g id="edge1" class="edge">
<title>T3717:f1&#45;&gt;T3715:f1</title>
<path fill="none" stroke="#5b00c0" d="M663,-81C663,-2.5633 501.2964,-102.0757 486.1367,-40.3218"/>
<polygon fill="#5b00c0" stroke="#5b00c0" points="489.5737,-39.5568 485,-30 482.6157,-40.3231 489.5737,-39.5568"/>
<text text-anchor="middle" x="665.5" y="-51.8" font-family="Times,serif" font-size="14.00" fill="#5b00c0">rw</text>
</g>
<!-- T3715&#45;&gt;T3717 -->
<g id="edge2" class="edge">
<title>T3715:f0&#45;&gt;T3717:f0</title>
<path fill="none" stroke="#5b00c0" d="M194,-15C157.7139,-15 49.0686,-36.9759 30.6632,-71.0704"/>
<polygon fill="#5b00c0" stroke="#5b00c0" points="27.2101,-70.4347 28,-81 33.9711,-72.2481 27.2101,-70.4347"/>
<text text-anchor="middle" x="64.5" y="-51.8" font-family="Times,serif" font-size="14.00" fill="#5b00c0">rw</text>
</g>
</g>
</svg>
