<?xml version="1.0" encoding="UTF-8" standalone="no"?>
<!DOCTYPE svg PUBLIC "-//W3C//DTD SVG 1.1//EN"
 "http://www.w3.org/Graphics/SVG/1.1/DTD/svg11.dtd">
<!-- Generated by graphviz version 2.40.1 (20161225.0304)
 -->
<!-- Title: a_graph Pages: 1 -->
<svg width="2820pt" height="119pt"
 viewBox="0.00 0.00 2820.00 119.00" xmlns="http://www.w3.org/2000/svg" xmlns:xlink="http://www.w3.org/1999/xlink">
<g id="graph0" class="graph" transform="scale(1 1) rotate(0) translate(4 115)">
<title>a_graph</title>
<polygon fill="#ffffff" stroke="transparent" points="-4,4 -4,-115 2816,-115 2816,4 -4,4"/>
<!-- T5771 -->
<g id="node1" class="node">
<title>T5771</title>
<polygon fill="none" stroke="#0058ad" points="2335.5,-81.5 2335.5,-110.5 2810.5,-110.5 2810.5,-81.5 2335.5,-81.5"/>
<text text-anchor="middle" x="2364" y="-92.3" font-family="Times,serif" font-size="14.00" fill="#0058ad">a 33 38</text>
<polyline fill="none" stroke="#0058ad" points="2392.5,-81.5 2392.5,-110.5 "/>
<text text-anchor="middle" x="2601.5" y="-92.3" font-family="Times,serif" font-size="14.00" fill="#0058ad">r 34 [1 2 3 4 5 7 6 8 10 11 9 13 14 15 16 12 17 19 20 21 22 23 26 27 29]</text>
</g>
<!-- T5773 -->
<g id="node2" class="node">
<title>T5773</title>
<polygon fill="none" stroke="#0058ad" points="0,-.5 0,-29.5 2812,-29.5 2812,-.5 0,-.5"/>
<text text-anchor="middle" x="752.5" y="-11.3" font-family="Times,serif" font-size="14.00" fill="#0058ad">r 24 [1 2 3 4 5 6 7 8 9 10 11 12 13 14 15 16 17 18 19 20 21 24 23 22 25 26 27 28 29 30 32 31 33 34 35 36 37 39 40 41 42 43 44 45 46 47 48 49 50 51 52 53 54 55 56 57 58 59 60 61 62 63 64 65 66 67 68 69 70 71 72 73 74 75 76 77 78 79 80 81 82 83 84 85 86 87 88 89]</text>
<polyline fill="none" stroke="#0058ad" points="1505,-.5 1505,-29.5 "/>
<text text-anchor="middle" x="1817.5" y="-11.3" font-family="Times,serif" font-size="14.00" fill="#0058ad">r 33 [2 3 1 4 5 6 7 9 10 11 8 13 14 12 16 17 15 18 20 21 19 22 23 24 25 26 27 28 29 30 31 32 33 34 35 36 37]</text>
<polyline fill="none" stroke="#0058ad" points="2130,-.5 2130,-29.5 "/>
<text text-anchor="middle" x="2442.5" y="-11.3" font-family="Times,serif" font-size="14.00" fill="#0058ad">r 33 [2 3 1 4 5 6 7 9 10 11 8 13 14 12 16 17 15 18 20 21 19 22 23 24 25 26 27 28 29 30 31 32 33 34 35 36 37]</text>
<polyline fill="none" stroke="#0058ad" points="2755,-.5 2755,-29.5 "/>
<text text-anchor="middle" x="2783.5" y="-11.3" font-family="Times,serif" font-size="14.00" fill="#0058ad">a 34 18</text>
</g>
<!-- T5771&#45;&gt;T5773 -->
<g id="edge1" class="edge">
<title>T5771:f1&#45;&gt;T5773:f3</title>
<path fill="none" stroke="#5b00c0" d="M2602,-81C2602,-.7689 2768.0157,-103.8978 2782.9312,-40.1405"/>
<polygon fill="#5b00c0" stroke="#5b00c0" points="2786.4324,-40.3118 2784,-30 2779.471,-39.578 2786.4324,-40.3118"/>
<text text-anchor="middle" x="2785.5" y="-51.8" font-family="Times,serif" font-size="14.00" fill="#5b00c0">rw</text>
</g>
<!-- T5773&#45;&gt;T5771 -->
<g id="edge2" class="edge">
<title>T5773:f1&#45;&gt;T5771:f0</title>
<path fill="none" stroke="#5b00c0" d="M1818,-30C1818,-85.3092 2236.7695,-95.1727 2324.8449,-95.9472"/>
<polygon fill="#5b00c0" stroke="#5b00c0" points="2324.9819,-99.4479 2335,-96 2325.0184,-92.448 2324.9819,-99.4479"/>
<text text-anchor="middle" x="1882.5" y="-51.8" font-family="Times,serif" font-size="14.00" fill="#5b00c0">rw</text>
</g>
</g>
</svg>
