<?xml version="1.0" encoding="UTF-8" standalone="no"?>
<!DOCTYPE svg PUBLIC "-//W3C//DTD SVG 1.1//EN"
 "http://www.w3.org/Graphics/SVG/1.1/DTD/svg11.dtd">
<!-- Generated by graphviz version 2.40.1 (20161225.0304)
 -->
<!-- Title: a_graph Pages: 1 -->
<svg width="3426pt" height="200pt"
 viewBox="0.00 0.00 3426.00 200.00" xmlns="http://www.w3.org/2000/svg" xmlns:xlink="http://www.w3.org/1999/xlink">
<g id="graph0" class="graph" transform="scale(1 1) rotate(0) translate(4 196)">
<title>a_graph</title>
<polygon fill="#ffffff" stroke="transparent" points="-4,4 -4,-196 3422,-196 3422,4 -4,4"/>
<!-- T12567 -->
<g id="node1" class="node">
<title>T12567</title>
<polygon fill="none" stroke="#0058ad" points="158,-162.5 158,-191.5 3418,-191.5 3418,-162.5 158,-162.5"/>
<text text-anchor="middle" x="531" y="-173.3" font-family="Times,serif" font-size="14.00" fill="#0058ad">r 65 [1 2 3 4 5 6 7 8 9 10 11 12 13 14 15 16 17 18 19 20 21 22 23 24 25 26 27 28 29 30 31 32 33 35 36 34 37 38 41 42 39 40 43 44]</text>
<polyline fill="none" stroke="#0058ad" points="904,-162.5 904,-191.5 "/>
<text text-anchor="middle" x="936" y="-173.3" font-family="Times,serif" font-size="14.00" fill="#0058ad">a 63 103</text>
<polyline fill="none" stroke="#0058ad" points="968,-162.5 968,-191.5 "/>
<text text-anchor="middle" x="1341" y="-173.3" font-family="Times,serif" font-size="14.00" fill="#0058ad">r 65 [1 2 3 4 5 6 7 8 9 10 11 12 13 14 15 16 17 18 19 20 21 22 23 24 25 26 27 28 29 30 31 32 33 35 36 34 37 38 41 42 39 40 43 44]</text>
<polyline fill="none" stroke="#0058ad" points="1714,-162.5 1714,-191.5 "/>
<text text-anchor="middle" x="2566" y="-173.3" font-family="Times,serif" font-size="14.00" fill="#0058ad">r 63 [1 2 3 4 5 6 7 8 9 10 11 12 13 14 15 16 17 18 19 20 22 23 26 25 28 27 30 32 33 34 31 37 38 39 40 41 42 43 44 45 46 47 48 49 50 51 52 53 54 55 56 57 58 59 60 61 62 63 64 66 67 65 68 69 70 71 72 74 75 76 73 78 79 80 81 82 83 84 85 86 77 87 89 88 90 91 92 93 94 95 96 97 98 99 100 102 101 103]</text>
</g>
<!-- T12563 -->
<g id="node3" class="node">
<title>T12563</title>
<polygon fill="none" stroke="#0058ad" points="757.5,-81.5 757.5,-110.5 814.5,-110.5 814.5,-81.5 757.5,-81.5"/>
<text text-anchor="middle" x="786" y="-92.3" font-family="Times,serif" font-size="14.00" fill="#0058ad">a 65 46</text>
</g>
<!-- T12567&#45;&gt;T12563 -->
<g id="edge1" class="edge">
<title>T12567:f0&#45;&gt;T12563:f0</title>
<path fill="none" stroke="#5b00c0" d="M531,-162C531,-113.2265 689.8939,-127.1421 749.6155,-113.3308"/>
<polygon fill="#5b00c0" stroke="#5b00c0" points="750.6237,-116.6826 759.2444,-110.5236 748.6644,-109.9624 750.6237,-116.6826"/>
<text text-anchor="middle" x="588.5" y="-132.8" font-family="Times,serif" font-size="14.00" fill="#5b00c0">rw</text>
</g>
<!-- T12565 -->
<g id="node2" class="node">
<title>T12565</title>
<polygon fill="none" stroke="#0058ad" points="0,-.5 0,-29.5 1680,-29.5 1680,-.5 0,-.5"/>
<text text-anchor="middle" x="840" y="-11.3" font-family="Times,serif" font-size="14.00" fill="#0058ad">r 63 [1 2 3 4 5 6 7 8 9 10 11 12 13 14 15 16 17 18 19 20 22 23 26 25 28 27 30 32 33 34 31 37 38 39 40 41 42 43 44 45 46 47 48 49 50 51 52 53 54 55 56 57 58 59 60 61 62 63 64 66 67 65 68 69 70 71 72 74 75 76 73 78 79 80 81 82 83 84 85 86 77 87 89 88 90 91 92 93 94 95 96 97 98 99 100 102 101]</text>
</g>
<!-- T12565&#45;&gt;T12567 -->
<g id="edge2" class="edge">
<title>T12565:f0&#45;&gt;T12567:f1</title>
<path fill="none" stroke="#5b00c0" d="M858.0569,-29.6371C884.182,-52.4809 930.0109,-99.4551 935.4647,-151.8144"/>
<polygon fill="#5b00c0" stroke="#5b00c0" points="931.9799,-152.1975 936,-162 938.9703,-151.8301 931.9799,-152.1975"/>
<text text-anchor="middle" x="929.5" y="-92.3" font-family="Times,serif" font-size="14.00" fill="#5b00c0">rw</text>
</g>
<!-- T12563&#45;&gt;T12565 -->
<g id="edge3" class="edge">
<title>T12563&#45;&gt;T12565</title>
<path fill="none" stroke="#0050c0" d="M795.9044,-81.1434C803.897,-69.1545 815.2849,-52.0727 824.4856,-38.2715"/>
<polygon fill="#0050c0" stroke="#0050c0" points="827.5235,-40.0244 830.1584,-29.7625 821.6991,-36.1415 827.5235,-40.0244"/>
<text text-anchor="middle" x="822.5" y="-51.8" font-family="Times,serif" font-size="14.00" fill="#0050c0">rt</text>
</g>
</g>
</svg>
