<?xml version="1.0" encoding="UTF-8" standalone="no"?>
<!DOCTYPE svg PUBLIC "-//W3C//DTD SVG 1.1//EN"
 "http://www.w3.org/Graphics/SVG/1.1/DTD/svg11.dtd">
<!-- Generated by graphviz version 2.40.1 (20161225.0304)
 -->
<!-- Title: a_graph Pages: 1 -->
<svg width="2793pt" height="119pt"
 viewBox="0.00 0.00 2792.50 119.00" xmlns="http://www.w3.org/2000/svg" xmlns:xlink="http://www.w3.org/1999/xlink">
<g id="graph0" class="graph" transform="scale(1 1) rotate(0) translate(4 115)">
<title>a_graph</title>
<polygon fill="#ffffff" stroke="transparent" points="-4,4 -4,-115 2788.5,-115 2788.5,4 -4,4"/>
<!-- T11087 -->
<g id="node1" class="node">
<title>T11087</title>
<polygon fill="none" stroke="#0058ad" points="0,-81.5 0,-110.5 2082,-110.5 2082,-81.5 0,-81.5"/>
<text text-anchor="middle" x="44.5" y="-92.3" font-family="Times,serif" font-size="14.00" fill="#0058ad">r 59 [1 2 3 4]</text>
<polyline fill="none" stroke="#0058ad" points="89,-81.5 89,-110.5 "/>
<text text-anchor="middle" x="117.5" y="-92.3" font-family="Times,serif" font-size="14.00" fill="#0058ad">a 53 55</text>
<polyline fill="none" stroke="#0058ad" points="146,-81.5 146,-110.5 "/>
<text text-anchor="middle" x="1082" y="-92.3" font-family="Times,serif" font-size="14.00" fill="#0058ad">r 55 [1 2 3 4 5 6 8 9 10 12 11 16 17 18 19 14 20 22 23 24 25 26 27 28 29 30 31 34 32 33 35 36 37 38 39 40 41 42 43 44 45 46 47 48 49 50 51 52 53 54 55 56 57 58 59 60 61 62 63 64 65 66 67 68 69 70 71 72 73 74 75 76 77 78 79 80 81 82 83 84 85 86 87 88 89 90 91 92 93 94 95 96 97 98 99 100 101 102 103 104 105 106 107 108 109]</text>
<polyline fill="none" stroke="#0058ad" points="2018,-81.5 2018,-110.5 "/>
<text text-anchor="middle" x="2050" y="-92.3" font-family="Times,serif" font-size="14.00" fill="#0058ad">a 57 112</text>
</g>
<!-- T11085 -->
<g id="node2" class="node">
<title>T11085</title>
<polygon fill="none" stroke="#0058ad" points="653.5,-.5 653.5,-29.5 2784.5,-29.5 2784.5,-.5 653.5,-.5"/>
<text text-anchor="middle" x="678.5" y="-11.3" font-family="Times,serif" font-size="14.00" fill="#0058ad">a 59 5</text>
<polyline fill="none" stroke="#0058ad" points="703.5,-.5 703.5,-29.5 "/>
<text text-anchor="middle" x="1669" y="-11.3" font-family="Times,serif" font-size="14.00" fill="#0058ad">r 57 [1 2 3 4 5 6 7 8 9 10 11 12 13 14 15 16 17 18 19 20 21 22 23 24 26 25 27 28 29 30 31 32 33 34 35 36 37 38 39 40 41 43 44 45 46 42 47 48 49 51 52 53 54 55 57 60 58 59 61 62 63 65 66 67 68 69 70 71 72 73 74 75 76 77 78 79 80 81 82 83 84 85 86 87 88 89 90 91 92 93 94 95 96 99 98 97 101 100 103 102 104 105 106 107 108 109 110 111]</text>
<polyline fill="none" stroke="#0058ad" points="2634.5,-.5 2634.5,-29.5 "/>
<text text-anchor="middle" x="2684.5" y="-11.3" font-family="Times,serif" font-size="14.00" fill="#0058ad">r 59 [1 2 3 4 5]</text>
<polyline fill="none" stroke="#0058ad" points="2734.5,-.5 2734.5,-29.5 "/>
<text text-anchor="middle" x="2759.5" y="-11.3" font-family="Times,serif" font-size="14.00" fill="#0058ad">a 59 6</text>
</g>
<!-- T11087&#45;&gt;T11085 -->
<g id="edge1" class="edge">
<title>T11087:f0&#45;&gt;T11085:f0</title>
<path fill="none" stroke="#5b00c0" d="M44,-81C44,-48.8297 557.8009,-18.5027 642.7459,-15.2819"/>
<polygon fill="#5b00c0" stroke="#5b00c0" points="643.1,-18.7736 653,-15 642.9075,-11.7763 643.1,-18.7736"/>
<text text-anchor="middle" x="207.5" y="-51.8" font-family="Times,serif" font-size="14.00" fill="#5b00c0">rw</text>
</g>
<!-- T11085&#45;&gt;T11087 -->
<g id="edge2" class="edge">
<title>T11085:f1&#45;&gt;T11087:f3</title>
<path fill="none" stroke="#5b00c0" d="M1669,-30C1669,-197.1732 2033.8048,77.5662 2049.48,-70.6185"/>
<polygon fill="#5b00c0" stroke="#5b00c0" points="2046.004,-71.1877 2050,-81 2052.9952,-70.8374 2046.004,-71.1877"/>
<text text-anchor="middle" x="2055.5" y="-51.8" font-family="Times,serif" font-size="14.00" fill="#5b00c0">rw</text>
</g>
</g>
</svg>
