<?xml version="1.0" encoding="UTF-8" standalone="no"?>
<!DOCTYPE svg PUBLIC "-//W3C//DTD SVG 1.1//EN"
 "http://www.w3.org/Graphics/SVG/1.1/DTD/svg11.dtd">
<!-- Generated by graphviz version 2.40.1 (20161225.0304)
 -->
<!-- Title: a_graph Pages: 1 -->
<svg width="3197pt" height="281pt"
 viewBox="0.00 0.00 3196.50 281.00" xmlns="http://www.w3.org/2000/svg" xmlns:xlink="http://www.w3.org/1999/xlink">
<g id="graph0" class="graph" transform="scale(1 1) rotate(0) translate(4 277)">
<title>a_graph</title>
<polygon fill="#ffffff" stroke="transparent" points="-4,4 -4,-277 3192.5,-277 3192.5,4 -4,4"/>
<!-- T7737 -->
<g id="node1" class="node">
<title>T7737</title>
<polygon fill="none" stroke="#0058ad" points="614,-243.5 614,-272.5 1693,-272.5 1693,-243.5 614,-243.5"/>
<text text-anchor="middle" x="642.5" y="-254.3" font-family="Times,serif" font-size="14.00" fill="#0058ad">a 43 80</text>
<polyline fill="none" stroke="#0058ad" points="671,-243.5 671,-272.5 "/>
<text text-anchor="middle" x="1182" y="-254.3" font-family="Times,serif" font-size="14.00" fill="#0058ad">r 42 [1 3 2 4 5 6 7 8 9 10 11 12 13 15 16 17 14 18 19 20 21 22 23 24 26 25 27 28 29 30 31 33 34 35 32 36 38 39 40 41 42 47 48 46 50 49 52 51 53 54 55 56 58 59 60 57 61 62 64 63]</text>
</g>
<!-- T7739 -->
<g id="node2" class="node">
<title>T7739</title>
<polygon fill="none" stroke="#0058ad" points="680.5,-162.5 680.5,-191.5 2034.5,-191.5 2034.5,-162.5 680.5,-162.5"/>
<text text-anchor="middle" x="1275.5" y="-173.3" font-family="Times,serif" font-size="14.00" fill="#0058ad">r 43 [1 2 3 4 5 9 10 11 6 14 13 12 15 22 23 24 25 26 27 28 29 30 31 32 33 34 36 35 37 38 40 41 42 43 39 44 45 47 48 49 46 50 52 54 55 53 58 59 60 61 62 63 64 51 65 56 57 69 66 70 67 68 72 73 74 76 71 75 77]</text>
<polyline fill="none" stroke="#0058ad" points="1870.5,-162.5 1870.5,-191.5 "/>
<text text-anchor="middle" x="1895.5" y="-173.3" font-family="Times,serif" font-size="14.00" fill="#0058ad">a 4 80</text>
<polyline fill="none" stroke="#0058ad" points="1920.5,-162.5 1920.5,-191.5 "/>
<text text-anchor="middle" x="1949" y="-173.3" font-family="Times,serif" font-size="14.00" fill="#0058ad">a 42 65</text>
<polyline fill="none" stroke="#0058ad" points="1977.5,-162.5 1977.5,-191.5 "/>
<text text-anchor="middle" x="2006" y="-173.3" font-family="Times,serif" font-size="14.00" fill="#0058ad">a 39 53</text>
</g>
<!-- T7737&#45;&gt;T7739 -->
<g id="edge1" class="edge">
<title>T7737:f1&#45;&gt;T7739:f2</title>
<path fill="none" stroke="#5b00c0" d="M1693.5,-258C1748.8068,-258 1926.8602,-251.5739 1947.5359,-201.8055"/>
<polygon fill="#5b00c0" stroke="#5b00c0" points="1950.9677,-202.4927 1949.5,-192 1944.1041,-201.1178 1950.9677,-202.4927"/>
<text text-anchor="middle" x="1949" y="-213.8" font-family="Times,serif" font-size="14.00" fill="#5b00c0">rw</text>
</g>
<!-- T7733 -->
<g id="node3" class="node">
<title>T7733</title>
<polygon fill="none" stroke="#0058ad" points="624.5,-81.5 624.5,-110.5 3188.5,-110.5 3188.5,-81.5 624.5,-81.5"/>
<text text-anchor="middle" x="653" y="-92.3" font-family="Times,serif" font-size="14.00" fill="#0058ad">a 43 78</text>
<polyline fill="none" stroke="#0058ad" points="681.5,-81.5 681.5,-110.5 "/>
<text text-anchor="middle" x="710" y="-92.3" font-family="Times,serif" font-size="14.00" fill="#0058ad">a 43 79</text>
<polyline fill="none" stroke="#0058ad" points="738.5,-81.5 738.5,-110.5 "/>
<text text-anchor="middle" x="1351" y="-92.3" font-family="Times,serif" font-size="14.00" fill="#0058ad">r 43 [1 2 3 4 5 9 10 11 6 14 13 12 15 22 23 24 25 26 27 28 29 30 31 32 33 34 36 35 37 38 40 41 42 43 39 44 45 47 48 49 46 50 52 54 55 53 58 59 60 61 62 63 64 51 65 56 57 69 66 70 67 68 72 73 74 76 71 75 77 78 79]</text>
<polyline fill="none" stroke="#0058ad" points="1963.5,-81.5 1963.5,-110.5 "/>
<text text-anchor="middle" x="2576" y="-92.3" font-family="Times,serif" font-size="14.00" fill="#0058ad">r 43 [1 2 3 4 5 9 10 11 6 14 13 12 15 22 23 24 25 26 27 28 29 30 31 32 33 34 36 35 37 38 40 41 42 43 39 44 45 47 48 49 46 50 52 54 55 53 58 59 60 61 62 63 64 51 65 56 57 69 66 70 67 68 72 73 74 76 71 75 77 78 79]</text>
</g>
<!-- T7739&#45;&gt;T7733 -->
<g id="edge2" class="edge">
<title>T7739:f0&#45;&gt;T7733:f0</title>
<path fill="none" stroke="#5b00c0" d="M680.5,-177C674.121,-177 660.0033,-139.7856 654.6315,-120.8675"/>
<polygon fill="#5b00c0" stroke="#5b00c0" points="658.0326,-120.0355 652.5,-111 651.1904,-121.5136 658.0326,-120.0355"/>
<text text-anchor="middle" x="669" y="-132.8" font-family="Times,serif" font-size="14.00" fill="#5b00c0">rw</text>
</g>
<!-- T7733&#45;&gt;T7737 -->
<g id="edge3" class="edge">
<title>T7733:f1&#45;&gt;T7737:f0</title>
<path fill="none" stroke="#c02700" d="M709.5,-111C709.5,-135.877 672.4668,-109.9232 656.5,-129 625.976,-165.4695 640.1754,-188.6261 642.2594,-232.8996"/>
<polygon fill="#c02700" stroke="#c02700" points="638.7628,-233.0862 642.5,-243 645.7608,-232.9195 638.7628,-233.0862"/>
<text text-anchor="middle" x="649.5" y="-173.3" font-family="Times,serif" font-size="14.00" fill="#c02700">ww</text>
</g>
<!-- T7735 -->
<g id="node4" class="node">
<title>T7735</title>
<polygon fill="none" stroke="#0058ad" points="0,-.5 0,-29.5 1225,-29.5 1225,-.5 0,-.5"/>
<text text-anchor="middle" x="612.5" y="-11.3" font-family="Times,serif" font-size="14.00" fill="#0058ad">r 43 [1 2 3 4 5 9 10 11 6 14 13 12 15 22 23 24 25 26 27 28 29 30 31 32 33 34 36 35 37 38 40 41 42 43 39 44 45 47 48 49 46 50 52 54 55 53 58 59 60 61 62 63 64 51 65 56 57 69 66 70 67 68 72 73 74 76 71 75 77 78 79]</text>
</g>
<!-- T7733&#45;&gt;T7735 -->
<g id="edge4" class="edge">
<title>T7733:f1&#45;&gt;T7735:f0</title>
<path fill="none" stroke="#c000a5" d="M709.5,-81C709.5,-59.1855 692.5234,-44.0721 672.7744,-33.8708"/>
<polygon fill="#c000a5" stroke="#c000a5" points="674.0941,-30.6235 663.5566,-29.523 671.1079,-36.9546 674.0941,-30.6235"/>
<text text-anchor="middle" x="711" y="-51.8" font-family="Times,serif" font-size="14.00" fill="#c000a5">wr</text>
</g>
<!-- T7735&#45;&gt;T7737 -->
<g id="edge5" class="edge">
<title>T7735:f0&#45;&gt;T7737:f0</title>
<path fill="none" stroke="#5b00c0" d="M606.335,-29.8349C586.0053,-80.5329 526.6329,-244.4835 603.4457,-257.2148"/>
<polygon fill="#5b00c0" stroke="#5b00c0" points="603.2578,-260.7107 613.5,-258 603.8029,-253.732 603.2578,-260.7107"/>
<text text-anchor="middle" x="582" y="-132.8" font-family="Times,serif" font-size="14.00" fill="#5b00c0">rw</text>
</g>
</g>
</svg>
