<?xml version="1.0" encoding="UTF-8" standalone="no"?>
<!DOCTYPE svg PUBLIC "-//W3C//DTD SVG 1.1//EN"
 "http://www.w3.org/Graphics/SVG/1.1/DTD/svg11.dtd">
<!-- Generated by graphviz version 2.40.1 (20161225.0304)
 -->
<!-- Title: a_graph Pages: 1 -->
<svg width="1257pt" height="119pt"
 viewBox="0.00 0.00 1257.39 119.00" xmlns="http://www.w3.org/2000/svg" xmlns:xlink="http://www.w3.org/1999/xlink">
<g id="graph0" class="graph" transform="scale(1 1) rotate(0) translate(4 115)">
<title>a_graph</title>
<polygon fill="#ffffff" stroke="transparent" points="-4,4 -4,-115 1253.3854,-115 1253.3854,4 -4,4"/>
<!-- T4237 -->
<g id="node1" class="node">
<title>T4237</title>
<polygon fill="none" stroke="#0058ad" points="15.3854,-81.5 15.3854,-110.5 1249.3854,-110.5 1249.3854,-81.5 15.3854,-81.5"/>
<text text-anchor="middle" x="43.8854" y="-92.3" font-family="Times,serif" font-size="14.00" fill="#0058ad">a 27 19</text>
<polyline fill="none" stroke="#0058ad" points="72.3854,-81.5 72.3854,-110.5 "/>
<text text-anchor="middle" x="660.8854" y="-92.3" font-family="Times,serif" font-size="14.00" fill="#0058ad">r 23 [1 2 3 4 5 6 9 7 8 10 11 12 13 15 14 16 17 18 19 20 23 21 22 24 25 26 27 28 29 30 31 32 33 34 35 36 38 39 42 43 45 44 47 48 46 49 50 51 52 54 53 55 56 57 58 59 60 61 62 63 64 65 66 67 68 69 70 71 72]</text>
</g>
<!-- T4235 -->
<g id="node2" class="node">
<title>T4235</title>
<polygon fill="none" stroke="#0058ad" points="9.8854,-.5 9.8854,-29.5 626.8854,-29.5 626.8854,-.5 9.8854,-.5"/>
<text text-anchor="middle" x="149.8854" y="-11.3" font-family="Times,serif" font-size="14.00" fill="#0058ad">r 27 [1 2 3 4 5 6 7 8 9 10 13 14 15 16 18 17 20]</text>
<polyline fill="none" stroke="#0058ad" points="289.8854,-.5 289.8854,-29.5 "/>
<text text-anchor="middle" x="429.8854" y="-11.3" font-family="Times,serif" font-size="14.00" fill="#0058ad">r 27 [1 2 3 4 5 6 7 8 9 10 13 14 15 16 18 17 20]</text>
<polyline fill="none" stroke="#0058ad" points="569.8854,-.5 569.8854,-29.5 "/>
<text text-anchor="middle" x="598.3854" y="-11.3" font-family="Times,serif" font-size="14.00" fill="#0058ad">a 23 73</text>
</g>
<!-- T4237&#45;&gt;T4235 -->
<g id="edge1" class="edge">
<title>T4237:f1&#45;&gt;T4235:f2</title>
<path fill="none" stroke="#5b00c0" d="M661.3854,-81C661.3854,-51.7411 660.5966,-22.4772 637.4125,-16.2226"/>
<polygon fill="#5b00c0" stroke="#5b00c0" points="637.7355,-12.7361 627.3854,-15 636.8882,-19.6847 637.7355,-12.7361"/>
<text text-anchor="middle" x="667.8854" y="-51.8" font-family="Times,serif" font-size="14.00" fill="#5b00c0">rw</text>
</g>
<!-- T4235&#45;&gt;T4237 -->
<g id="edge2" class="edge">
<title>T4235:f0&#45;&gt;T4237:f0</title>
<path fill="none" stroke="#5b00c0" d="M9.3854,-15C-20.2602,-15 30.8081,-41.6398 41.4871,-70.9807"/>
<polygon fill="#5b00c0" stroke="#5b00c0" points="38.085,-71.8263 43.3854,-81 44.9626,-70.5232 38.085,-71.8263"/>
<text text-anchor="middle" x="44.8854" y="-51.8" font-family="Times,serif" font-size="14.00" fill="#5b00c0">rw</text>
</g>
</g>
</svg>
