<?xml version="1.0" encoding="UTF-8" standalone="no"?>
<!DOCTYPE svg PUBLIC "-//W3C//DTD SVG 1.1//EN"
 "http://www.w3.org/Graphics/SVG/1.1/DTD/svg11.dtd">
<!-- Generated by graphviz version 2.40.1 (20161225.0304)
 -->
<!-- Title: a_graph Pages: 1 -->
<svg width="2150pt" height="119pt"
 viewBox="0.00 0.00 2150.00 119.00" xmlns="http://www.w3.org/2000/svg" xmlns:xlink="http://www.w3.org/1999/xlink">
<g id="graph0" class="graph" transform="scale(1 1) rotate(0) translate(4 115)">
<title>a_graph</title>
<polygon fill="#ffffff" stroke="transparent" points="-4,4 -4,-115 2146,-115 2146,4 -4,4"/>
<!-- T3743 -->
<g id="node1" class="node">
<title>T3743</title>
<polygon fill="none" stroke="#0058ad" points="421,-81.5 421,-110.5 2142,-110.5 2142,-81.5 421,-81.5"/>
<text text-anchor="middle" x="449.5" y="-92.3" font-family="Times,serif" font-size="14.00" fill="#0058ad">a 21 82</text>
<polyline fill="none" stroke="#0058ad" points="478,-81.5 478,-110.5 "/>
<text text-anchor="middle" x="644" y="-92.3" font-family="Times,serif" font-size="14.00" fill="#0058ad">r 25 [1 2 3 4 5 9 8 6 7 10 11 12 13 14 15 16 17 18 19 20]</text>
<polyline fill="none" stroke="#0058ad" points="810,-81.5 810,-110.5 "/>
<text text-anchor="middle" x="1476" y="-92.3" font-family="Times,serif" font-size="14.00" fill="#0058ad">r 21 [1 2 3 4 5 6 7 8 9 10 12 13 11 15 16 21 23 24 18 19 25 26 27 28 29 30 31 32 33 34 35 36 37 38 39 40 41 42 43 45 46 44 48 49 50 47 51 52 53 54 56 57 55 58 59 60 62 61 63 65 66 64 67 68 69 70 71 72 73 74 75 76 77 78 79 80 81 82]</text>
</g>
<!-- T3744 -->
<g id="node2" class="node">
<title>T3744</title>
<polygon fill="none" stroke="#0058ad" points="0,-.5 0,-29.5 1721,-29.5 1721,-.5 0,-.5"/>
<text text-anchor="middle" x="28.5" y="-11.3" font-family="Times,serif" font-size="14.00" fill="#0058ad">a 25 24</text>
<polyline fill="none" stroke="#0058ad" points="57,-.5 57,-29.5 "/>
<text text-anchor="middle" x="231.5" y="-11.3" font-family="Times,serif" font-size="14.00" fill="#0058ad">r 25 [1 2 3 4 5 9 8 6 7 10 11 12 13 14 15 16 17 18 19 20 24]</text>
<polyline fill="none" stroke="#0058ad" points="406,-.5 406,-29.5 "/>
<text text-anchor="middle" x="1063.5" y="-11.3" font-family="Times,serif" font-size="14.00" fill="#0058ad">r 21 [1 2 3 4 5 6 7 8 9 10 12 13 11 15 16 21 23 24 18 19 25 26 27 28 29 30 31 32 33 34 35 36 37 38 39 40 41 42 43 45 46 44 48 49 50 47 51 52 53 54 56 57 55 58 59 60 62 61 63 65 66 64 67 68 69 70 71 72 73 74 75 76 77 78 79 80 81]</text>
</g>
<!-- T3743&#45;&gt;T3744 -->
<g id="edge1" class="edge">
<title>T3743:f1&#45;&gt;T3744:f0</title>
<path fill="none" stroke="#5b00c0" d="M643.5,-81C643.5,-18.8016 569.1088,-56.5441 507.5,-48 483.2348,-44.6348 98.257,-54.7642 36.756,-35.6769"/>
<polygon fill="#5b00c0" stroke="#5b00c0" points="38.7231,-32.7819 28.5,-30 34.757,-38.5499 38.7231,-32.7819"/>
<text text-anchor="middle" x="647" y="-51.8" font-family="Times,serif" font-size="14.00" fill="#5b00c0">rw</text>
</g>
<!-- T3744&#45;&gt;T3743 -->
<g id="edge2" class="edge">
<title>T3744:f2&#45;&gt;T3743:f0</title>
<path fill="none" stroke="#5b00c0" d="M1063.5,-30C1063.5,-61.9601 518.3344,-36.5389 488.5,-48 470.9474,-54.743 455.7204,-57.3775 451.0047,-70.9791"/>
<polygon fill="#5b00c0" stroke="#5b00c0" points="447.5238,-70.5911 449.5,-81 454.4462,-71.6306 447.5238,-70.5911"/>
<text text-anchor="middle" x="496" y="-51.8" font-family="Times,serif" font-size="14.00" fill="#5b00c0">rw</text>
</g>
</g>
</svg>
