<?xml version="1.0" encoding="UTF-8" standalone="no"?>
<!DOCTYPE svg PUBLIC "-//W3C//DTD SVG 1.1//EN"
 "http://www.w3.org/Graphics/SVG/1.1/DTD/svg11.dtd">
<!-- Generated by graphviz version 2.40.1 (20161225.0304)
 -->
<!-- Title: a_graph Pages: 1 -->
<svg width="3302pt" height="200pt"
 viewBox="0.00 0.00 3302.00 200.00" xmlns="http://www.w3.org/2000/svg" xmlns:xlink="http://www.w3.org/1999/xlink">
<g id="graph0" class="graph" transform="scale(1 1) rotate(0) translate(4 196)">
<title>a_graph</title>
<polygon fill="#ffffff" stroke="transparent" points="-4,4 -4,-196 3298,-196 3298,4 -4,4"/>
<!-- T2705 -->
<g id="node1" class="node">
<title>T2705</title>
<polygon fill="none" stroke="#0058ad" points="591.5,-162.5 591.5,-191.5 2622.5,-191.5 2622.5,-162.5 591.5,-162.5"/>
<text text-anchor="middle" x="1231.5" y="-173.3" font-family="Times,serif" font-size="14.00" fill="#0058ad">r 19 [1 3 4 5 6 2 7 8 9 10 11 12 13 14 15 16 17 18 19 21 20 22 23 24 26 27 28 29 30 31 32 33 25 35 36 37 39 38 34 42 43 40 41 45 44 46 47 51 50 48 49 52 53 54 56 57 58 55 59 60 61 62 63 64 68 66 67 69 70 71 72 73 65 75 76]</text>
<polyline fill="none" stroke="#0058ad" points="1871.5,-162.5 1871.5,-191.5 "/>
<text text-anchor="middle" x="1900" y="-173.3" font-family="Times,serif" font-size="14.00" fill="#0058ad">a 19 78</text>
<polyline fill="none" stroke="#0058ad" points="1928.5,-162.5 1928.5,-191.5 "/>
<text text-anchor="middle" x="2275.5" y="-173.3" font-family="Times,serif" font-size="14.00" fill="#0058ad">r 18 [1 2 4 3 5 6 7 8 9 10 11 12 14 15 16 13 17 18 19 20 21 22 23 24 25 26 27 28 29 30 31 32 33 34 35 36 37 38 39 40 41]</text>
</g>
<!-- T2703 -->
<g id="node3" class="node">
<title>T2703</title>
<polygon fill="none" stroke="#0058ad" points="580,-81.5 580,-110.5 1950,-110.5 1950,-81.5 580,-81.5"/>
<text text-anchor="middle" x="605" y="-92.3" font-family="Times,serif" font-size="14.00" fill="#0058ad">a 5 54</text>
<polyline fill="none" stroke="#0058ad" points="630,-81.5 630,-110.5 "/>
<text text-anchor="middle" x="658.5" y="-92.3" font-family="Times,serif" font-size="14.00" fill="#0058ad">a 18 43</text>
<polyline fill="none" stroke="#0058ad" points="687,-81.5 687,-110.5 "/>
<text text-anchor="middle" x="1318.5" y="-92.3" font-family="Times,serif" font-size="14.00" fill="#0058ad">r 19 [1 3 4 5 6 2 7 8 9 10 11 12 13 14 15 16 17 18 19 21 20 22 23 24 26 27 28 29 30 31 32 33 25 35 36 37 39 38 34 42 43 40 41 45 44 46 47 51 50 48 49 52 53 54 56 57 58 55 59 60 61 62 63 64 68 66 67 69 70 71 72 73 65 75]</text>
</g>
<!-- T2705&#45;&gt;T2703 -->
<g id="edge1" class="edge">
<title>T2705:f2&#45;&gt;T2703:f1</title>
<path fill="none" stroke="#5b00c0" d="M2276,-162C2276,-75.1404 766.7152,-192.3799 663.5415,-119.4723"/>
<polygon fill="#5b00c0" stroke="#5b00c0" points="666.4029,-117.453 658,-111 660.5447,-121.2847 666.4029,-117.453"/>
<text text-anchor="middle" x="2237.5" y="-132.8" font-family="Times,serif" font-size="14.00" fill="#5b00c0">rw</text>
</g>
<!-- T2701 -->
<g id="node2" class="node">
<title>T2701</title>
<polygon fill="none" stroke="#0058ad" points="0,-.5 0,-29.5 3294,-29.5 3294,-.5 0,-.5"/>
<text text-anchor="middle" x="347" y="-11.3" font-family="Times,serif" font-size="14.00" fill="#0058ad">r 18 [1 2 4 3 5 6 7 8 9 10 11 12 14 15 16 13 17 18 19 20 21 22 23 24 25 26 27 28 29 30 31 32 33 34 35 36 37 38 39 40 41]</text>
<polyline fill="none" stroke="#0058ad" points="694,-.5 694,-29.5 "/>
<text text-anchor="middle" x="1325.5" y="-11.3" font-family="Times,serif" font-size="14.00" fill="#0058ad">r 19 [1 3 4 5 6 2 7 8 9 10 11 12 13 14 15 16 17 18 19 21 20 22 23 24 26 27 28 29 30 31 32 33 25 35 36 37 39 38 34 42 43 40 41 45 44 46 47 51 50 48 49 52 53 54 56 57 58 55 59 60 61 62 63 64 68 66 67 69 70 71 72 73 65 75]</text>
<polyline fill="none" stroke="#0058ad" points="1957,-.5 1957,-29.5 "/>
<text text-anchor="middle" x="1985.5" y="-11.3" font-family="Times,serif" font-size="14.00" fill="#0058ad">a 19 76</text>
<polyline fill="none" stroke="#0058ad" points="2014,-.5 2014,-29.5 "/>
<text text-anchor="middle" x="2654" y="-11.3" font-family="Times,serif" font-size="14.00" fill="#0058ad">r 19 [1 3 4 5 6 2 7 8 9 10 11 12 13 14 15 16 17 18 19 21 20 22 23 24 26 27 28 29 30 31 32 33 25 35 36 37 39 38 34 42 43 40 41 45 44 46 47 51 50 48 49 52 53 54 56 57 58 55 59 60 61 62 63 64 68 66 67 69 70 71 72 73 65 75 76]</text>
</g>
<!-- T2701&#45;&gt;T2705 -->
<g id="edge3" class="edge">
<title>T2701:f2&#45;&gt;T2705:f1</title>
<path fill="none" stroke="#c02700" d="M1986,-30C1986,-67.9473 1980.1084,-79.4654 1959,-111 1941.9037,-136.5407 1908.7367,-129.6335 1901.4417,-151.9064"/>
<polygon fill="#c02700" stroke="#c02700" points="1897.9492,-151.6056 1900,-162 1904.8789,-152.5954 1897.9492,-151.6056"/>
<text text-anchor="middle" x="1986" y="-92.3" font-family="Times,serif" font-size="14.00" fill="#c02700">ww</text>
</g>
<!-- T2701&#45;&gt;T2703 -->
<g id="edge2" class="edge">
<title>T2701:f0&#45;&gt;T2703:f1</title>
<path fill="none" stroke="#5b00c0" d="M347,-30C347,-166.3752 641.8158,47.2417 657.3628,-70.6769"/>
<polygon fill="#5b00c0" stroke="#5b00c0" points="653.8904,-71.2347 658,-81 660.8771,-70.8033 653.8904,-71.2347"/>
<text text-anchor="middle" x="661.5" y="-51.8" font-family="Times,serif" font-size="14.00" fill="#5b00c0">rw</text>
</g>
<!-- T2703&#45;&gt;T2701 -->
<g id="edge4" class="edge">
<title>T2703:f2&#45;&gt;T2701:f2</title>
<path fill="none" stroke="#5b00c0" d="M1950,-96C1971.559,-96 1945.1841,-66.0326 1957,-48 1962.5861,-39.4749 1973.7569,-41.1278 1980.4864,-38.5295"/>
<polygon fill="#5b00c0" stroke="#5b00c0" points="1983.5106,-40.2982 1986,-30 1977.6319,-36.4981 1983.5106,-40.2982"/>
<text text-anchor="middle" x="1964.5" y="-51.8" font-family="Times,serif" font-size="14.00" fill="#5b00c0">rw</text>
</g>
</g>
</svg>
