<?xml version="1.0" encoding="UTF-8" standalone="no"?>
<!DOCTYPE svg PUBLIC "-//W3C//DTD SVG 1.1//EN"
 "http://www.w3.org/Graphics/SVG/1.1/DTD/svg11.dtd">
<!-- Generated by graphviz version 2.40.1 (20161225.0304)
 -->
<!-- Title: a_graph Pages: 1 -->
<svg width="3846pt" height="362pt"
 viewBox="0.00 0.00 3846.00 362.00" xmlns="http://www.w3.org/2000/svg" xmlns:xlink="http://www.w3.org/1999/xlink">
<g id="graph0" class="graph" transform="scale(1 1) rotate(0) translate(4 358)">
<title>a_graph</title>
<polygon fill="#ffffff" stroke="transparent" points="-4,4 -4,-358 3842,-358 3842,4 -4,4"/>
<!-- T3599 -->
<g id="node1" class="node">
<title>T3599</title>
<polygon fill="none" stroke="#0058ad" points="1915,-324.5 1915,-353.5 3838,-353.5 3838,-324.5 1915,-324.5"/>
<text text-anchor="middle" x="2876.5" y="-335.3" font-family="Times,serif" font-size="14.00" fill="#0058ad">r 22 [2 3 1 6 7 10 12 11 13 14 15 16 8 9 17 18 19 21 23 24 25 20 29 30 32 33 34 35 28 36 40 41 42 38 39 43 44 46 47 48 49 50 51 52 45 54 55 56 57 58 53 59 63 60 61 62 64 66 69 65 67 68 70 71 74 75 76 77 78 72 73 79 81 82 83 80 84 85 87 86 89 90 91 88 92 93 94 95 97 96 98 99 100 104 101 102 103 105 108 109 106 107 112 110 111 114]</text>
</g>
<!-- T3603 -->
<g id="node2" class="node">
<title>T3603</title>
<polygon fill="none" stroke="#0058ad" points="0,-243.5 0,-272.5 2841,-272.5 2841,-243.5 0,-243.5"/>
<text text-anchor="middle" x="961.5" y="-254.3" font-family="Times,serif" font-size="14.00" fill="#0058ad">r 22 [2 3 1 6 7 10 12 11 13 14 15 16 8 9 17 18 19 21 23 24 25 20 29 30 32 33 34 35 28 36 40 41 42 38 39 43 44 46 47 48 49 50 51 52 45 54 55 56 57 58 53 59 63 60 61 62 64 66 69 65 67 68 70 71 74 75 76 77 78 72 73 79 81 82 83 80 84 85 87 86 89 90 91 88 92 93 94 95 97 96 98 99 100 104 101 102 103 105 108 109 106 107 112 110 111 114]</text>
<polyline fill="none" stroke="#0058ad" points="1923,-243.5 1923,-272.5 "/>
<text text-anchor="middle" x="2382" y="-254.3" font-family="Times,serif" font-size="14.00" fill="#0058ad">r 21 [1 2 3 4 5 6 7 8 9 10 12 13 11 15 16 21 23 24 18 19 25 26 27 28 29 30 31 32 33 34 35 36 37 38 39 40 41 42 43 45 46 44 48 49 50 47 51 52 53 54 56 57 55 58]</text>
</g>
<!-- T3599&#45;&gt;T3603 -->
<g id="edge2" class="edge">
<title>T3599&#45;&gt;T3603</title>
<path fill="none" stroke="#0050c0" d="M2615.7763,-324.4955C2354.9675,-309.9862 1955.5829,-287.7677 1691.2802,-273.064"/>
<polygon fill="#0050c0" stroke="#0050c0" points="1691.3312,-269.5615 1681.1522,-272.5006 1690.9423,-276.5507 1691.3312,-269.5615"/>
<text text-anchor="middle" x="2284" y="-294.8" font-family="Times,serif" font-size="14.00" fill="#0050c0">rt</text>
</g>
<!-- T3605 -->
<g id="node5" class="node">
<title>T3605</title>
<polygon fill="none" stroke="#0058ad" points="676,-162.5 676,-191.5 2809,-191.5 2809,-162.5 676,-162.5"/>
<text text-anchor="middle" x="1637.5" y="-173.3" font-family="Times,serif" font-size="14.00" fill="#0058ad">r 22 [2 3 1 6 7 10 12 11 13 14 15 16 8 9 17 18 19 21 23 24 25 20 29 30 32 33 34 35 28 36 40 41 42 38 39 43 44 46 47 48 49 50 51 52 45 54 55 56 57 58 53 59 63 60 61 62 64 66 69 65 67 68 70 71 74 75 76 77 78 72 73 79 81 82 83 80 84 85 87 86 89 90 91 88 92 93 94 95 97 96 98 99 100 104 101 102 103 105 108 109 106 107 112 110 111 114]</text>
<polyline fill="none" stroke="#0058ad" points="2599,-162.5 2599,-191.5 "/>
<text text-anchor="middle" x="2627.5" y="-173.3" font-family="Times,serif" font-size="14.00" fill="#0058ad">a 21 59</text>
<polyline fill="none" stroke="#0058ad" points="2656,-162.5 2656,-191.5 "/>
<text text-anchor="middle" x="2700.5" y="-173.3" font-family="Times,serif" font-size="14.00" fill="#0058ad">r 24 [1 2 3 4]</text>
<polyline fill="none" stroke="#0058ad" points="2745,-162.5 2745,-191.5 "/>
<text text-anchor="middle" x="2777" y="-173.3" font-family="Times,serif" font-size="14.00" fill="#0058ad">a 22 113</text>
</g>
<!-- T3599&#45;&gt;T3605 -->
<g id="edge1" class="edge">
<title>T3599:f0&#45;&gt;T3605:f3</title>
<path fill="none" stroke="#5b00c0" d="M2876.9902,-324.3379C2877.4638,-286.7188 2873.4554,-188.9564 2819.7256,-178.0024"/>
<polygon fill="#5b00c0" stroke="#5b00c0" points="2819.7938,-174.4924 2809.5,-177 2819.1108,-181.459 2819.7938,-174.4924"/>
<text text-anchor="middle" x="2882" y="-254.3" font-family="Times,serif" font-size="14.00" fill="#5b00c0">rw</text>
</g>
<!-- T3603&#45;&gt;T3605 -->
<g id="edge3" class="edge">
<title>T3603:f1&#45;&gt;T3605:f1</title>
<path fill="none" stroke="#5b00c0" d="M2382.5,-243C2382.5,-135.4699 2611.5006,-292.1496 2626.7076,-202.1647"/>
<polygon fill="#5b00c0" stroke="#5b00c0" points="2630.2122,-202.2418 2627.5,-192 2623.2333,-201.6977 2630.2122,-202.2418"/>
<text text-anchor="middle" x="2631" y="-213.8" font-family="Times,serif" font-size="14.00" fill="#5b00c0">rw</text>
</g>
<!-- T3601 -->
<g id="node3" class="node">
<title>T3601</title>
<polygon fill="none" stroke="#0058ad" points="584,-81.5 584,-110.5 2847,-110.5 2847,-81.5 584,-81.5"/>
<text text-anchor="middle" x="609" y="-92.3" font-family="Times,serif" font-size="14.00" fill="#0058ad">a 24 5</text>
<polyline fill="none" stroke="#0058ad" points="634,-81.5 634,-110.5 "/>
<text text-anchor="middle" x="1583.5" y="-92.3" font-family="Times,serif" font-size="14.00" fill="#0058ad">r 22 [2 3 1 6 7 10 12 11 13 14 15 16 8 9 17 18 19 21 23 24 25 20 29 30 32 33 34 35 28 36 40 41 42 38 39 43 44 46 47 48 49 50 51 52 45 54 55 56 57 58 53 59 63 60 61 62 64 66 69 65 67 68 70 71 74 75 76 77 78 72 73 79 81 82 83 80 84 85 87 86 89 90 91 88 92 93 94 95 97 96 98 99 100 104 101 102 103 105 108 109 106 107 112 110 111]</text>
<polyline fill="none" stroke="#0058ad" points="2533,-81.5 2533,-110.5 "/>
<text text-anchor="middle" x="2690" y="-92.3" font-family="Times,serif" font-size="14.00" fill="#0058ad">r 23 [1 2 3 4 5 6 9 7 8 10 11 12 13 15 14 16 17 18 19]</text>
</g>
<!-- T3597 -->
<g id="node4" class="node">
<title>T3597</title>
<polygon fill="none" stroke="#0058ad" points="2526.5,-.5 2526.5,-29.5 2590.5,-29.5 2590.5,-.5 2526.5,-.5"/>
<text text-anchor="middle" x="2558.5" y="-11.3" font-family="Times,serif" font-size="14.00" fill="#0058ad">a 22 114</text>
</g>
<!-- T3601&#45;&gt;T3597 -->
<g id="edge4" class="edge">
<title>T3601:f1&#45;&gt;T3597:f0</title>
<path fill="none" stroke="#5b00c0" d="M1583.5,-81C1583.5,-30.584 2407.2811,-41.7745 2518.3788,-30.9533"/>
<polygon fill="#5b00c0" stroke="#5b00c0" points="2518.8955,-34.4151 2528.2911,-29.5189 2517.8929,-27.4872 2518.8955,-34.4151"/>
<text text-anchor="middle" x="1809" y="-51.8" font-family="Times,serif" font-size="14.00" fill="#5b00c0">rw</text>
</g>
<!-- T3597&#45;&gt;T3599 -->
<g id="edge6" class="edge">
<title>T3597:f0&#45;&gt;T3599:f0</title>
<path fill="none" stroke="#c000a5" d="M2588.7125,-29.5049C2589.31,-29.68 2589.9062,-29.8454 2590.5,-30 2699.5924,-58.4006 2735.3245,-16.2853 2843.5,-48 2886.2515,-60.5338 2931.5,-51.449 2931.5,-96 2931.5,-258 2931.5,-258 2931.5,-258 2931.5,-280.8702 2916.3075,-302.0749 2901.892,-317.0474"/>
<polygon fill="#c000a5" stroke="#c000a5" points="2899.2001,-314.785 2894.5091,-324.2848 2904.1003,-319.7838 2899.2001,-314.785"/>
<text text-anchor="middle" x="2939" y="-173.3" font-family="Times,serif" font-size="14.00" fill="#c000a5">wr</text>
</g>
<!-- T3597&#45;&gt;T3603 -->
<g id="edge7" class="edge">
<title>T3597:f0&#45;&gt;T3603:f0</title>
<path fill="none" stroke="#c000a5" d="M2528.2979,-29.547C2527.6972,-29.7092 2527.0975,-29.8606 2526.5,-30 2429.2034,-52.697 1727.376,-45.4352 1627.5,-48 1510.4811,-51.005 655.9654,3.0585 574.5,-81 529.907,-127.0124 607.3937,-167.259 666.5,-192 724.5125,-216.2832 936.4618,-180.7799 959.4702,-233.0234"/>
<polygon fill="#c000a5" stroke="#c000a5" points="956.0765,-233.8986 961.5,-243 962.936,-232.5029 956.0765,-233.8986"/>
<text text-anchor="middle" x="589" y="-132.8" font-family="Times,serif" font-size="14.00" fill="#c000a5">wr</text>
</g>
<!-- T3597&#45;&gt;T3605 -->
<g id="edge5" class="edge">
<title>T3597:f0&#45;&gt;T3605:f3</title>
<path fill="none" stroke="#c02700" d="M2589.0939,-29.5298C2589.5643,-29.6914 2590.0332,-29.8483 2590.5,-30 2704.5661,-67.0716 2779.1234,11.477 2855.5,-81 2883.3919,-114.7717 2860.7646,-168.2918 2819.7121,-176.0502"/>
<polygon fill="#c02700" stroke="#c02700" points="2819.1329,-172.5888 2809.5,-177 2819.7812,-179.5588 2819.1329,-172.5888"/>
<text text-anchor="middle" x="2878.5" y="-92.3" font-family="Times,serif" font-size="14.00" fill="#c02700">ww</text>
</g>
<!-- T3605&#45;&gt;T3601 -->
<g id="edge8" class="edge">
<title>T3605:f2&#45;&gt;T3601:f0</title>
<path fill="none" stroke="#5b00c0" d="M2700.5,-162C2700.5,66.994 671.3527,-331.1276 609.9234,-121.1186"/>
<polygon fill="#5b00c0" stroke="#5b00c0" points="613.359,-120.4149 608.5,-111 606.4273,-121.3901 613.359,-120.4149"/>
<text text-anchor="middle" x="2699" y="-132.8" font-family="Times,serif" font-size="14.00" fill="#5b00c0">rw</text>
</g>
</g>
</svg>
