<?xml version="1.0" encoding="UTF-8" standalone="no"?>
<!DOCTYPE svg PUBLIC "-//W3C//DTD SVG 1.1//EN"
 "http://www.w3.org/Graphics/SVG/1.1/DTD/svg11.dtd">
<!-- Generated by graphviz version 2.40.1 (20161225.0304)
 -->
<!-- Title: a_graph Pages: 1 -->
<svg width="1803pt" height="200pt"
 viewBox="0.00 0.00 1802.50 200.00" xmlns="http://www.w3.org/2000/svg" xmlns:xlink="http://www.w3.org/1999/xlink">
<g id="graph0" class="graph" transform="scale(1 1) rotate(0) translate(4 196)">
<title>a_graph</title>
<polygon fill="#ffffff" stroke="transparent" points="-4,4 -4,-196 1798.5,-196 1798.5,4 -4,4"/>
<!-- T13473 -->
<g id="node1" class="node">
<title>T13473</title>
<polygon fill="none" stroke="#0058ad" points="1165.5,-162.5 1165.5,-191.5 1400.5,-191.5 1400.5,-162.5 1165.5,-162.5"/>
<text text-anchor="middle" x="1197.5" y="-173.3" font-family="Times,serif" font-size="14.00" fill="#0058ad">a 67 113</text>
<polyline fill="none" stroke="#0058ad" points="1229.5,-162.5 1229.5,-191.5 "/>
<text text-anchor="middle" x="1258" y="-173.3" font-family="Times,serif" font-size="14.00" fill="#0058ad">a 71 73</text>
<polyline fill="none" stroke="#0058ad" points="1286.5,-162.5 1286.5,-191.5 "/>
<text text-anchor="middle" x="1315" y="-173.3" font-family="Times,serif" font-size="14.00" fill="#0058ad">a 66 44</text>
<polyline fill="none" stroke="#0058ad" points="1343.5,-162.5 1343.5,-191.5 "/>
<text text-anchor="middle" x="1372" y="-173.3" font-family="Times,serif" font-size="14.00" fill="#0058ad">a 66 45</text>
</g>
<!-- T13477 -->
<g id="node2" class="node">
<title>T13477</title>
<polygon fill="none" stroke="#0058ad" points="0,-81.5 0,-110.5 1222,-110.5 1222,-81.5 0,-81.5"/>
<text text-anchor="middle" x="28.5" y="-92.3" font-family="Times,serif" font-size="14.00" fill="#0058ad">a 71 74</text>
<polyline fill="none" stroke="#0058ad" points="57,-81.5 57,-110.5 "/>
<text text-anchor="middle" x="611" y="-92.3" font-family="Times,serif" font-size="14.00" fill="#0058ad">r 71 [1 2 3 5 4 6 7 10 11 8 9 12 13 14 15 16 17 18 19 20 21 22 23 24 25 26 27 28 29 30 31 32 33 34 35 36 37 38 39 40 41 42 45 47 48 49 52 53 54 55 56 57 58 62 61 63 64 65 66 68 70 71 72 73 74]</text>
<polyline fill="none" stroke="#0058ad" points="1165,-81.5 1165,-110.5 "/>
<text text-anchor="middle" x="1193.5" y="-92.3" font-family="Times,serif" font-size="14.00" fill="#0058ad">a 71 75</text>
</g>
<!-- T13473&#45;&gt;T13477 -->
<g id="edge2" class="edge">
<title>T13473:f1&#45;&gt;T13477:f0</title>
<path fill="none" stroke="#c02700" d="M1258,-162C1258,-96.4799 129.1319,-172.4594 34.3246,-118.823"/>
<polygon fill="#c02700" stroke="#c02700" points="37.0088,-116.5761 28,-111 31.5652,-120.977 37.0088,-116.5761"/>
<text text-anchor="middle" x="1220" y="-132.8" font-family="Times,serif" font-size="14.00" fill="#c02700">ww</text>
</g>
<!-- T13481 -->
<g id="node3" class="node">
<title>T13481</title>
<polygon fill="none" stroke="#0058ad" points="721.5,-.5 721.5,-29.5 1794.5,-29.5 1794.5,-.5 721.5,-.5"/>
<text text-anchor="middle" x="1258" y="-11.3" font-family="Times,serif" font-size="14.00" fill="#0058ad">r 71 [1 2 3 5 4 6 7 10 11 8 9 12 13 14 15 16 17 18 19 20 21 22 23 24 25 26 27 28 29 30 31 32 33 34 35 36 37 38 39 40 41 42 45 47 48 49 52 53 54 55 56 57 58 62 61 63 64 65 66 68 70 71 72]</text>
</g>
<!-- T13473&#45;&gt;T13481 -->
<g id="edge1" class="edge">
<title>T13473&#45;&gt;T13481</title>
<path fill="none" stroke="#0050c0" d="M1283.5361,-162.3626C1284.0329,-138.0976 1283.3849,-88.2274 1272,-48 1271.1897,-45.1369 1270.1937,-42.1921 1269.1097,-39.2961"/>
<polygon fill="#0050c0" stroke="#0050c0" points="1272.2592,-37.7515 1265.2268,-29.8272 1265.7826,-40.4074 1272.2592,-37.7515"/>
<text text-anchor="middle" x="1287.5" y="-92.3" font-family="Times,serif" font-size="14.00" fill="#0050c0">rt</text>
</g>
<!-- T13477&#45;&gt;T13481 -->
<g id="edge3" class="edge">
<title>T13477&#45;&gt;T13481</title>
<path fill="none" stroke="#0050c0" d="M727.044,-81.4721C841.0878,-67.1946 1014.6273,-45.4686 1131.9912,-30.7754"/>
<polygon fill="#0050c0" stroke="#0050c0" points="1132.6194,-34.2242 1142.1072,-29.509 1131.7498,-27.2784 1132.6194,-34.2242"/>
<text text-anchor="middle" x="997.5" y="-51.8" font-family="Times,serif" font-size="14.00" fill="#0050c0">rt</text>
</g>
<!-- T13481&#45;&gt;T13473 -->
<g id="edge4" class="edge">
<title>T13481:f0&#45;&gt;T13473:f1</title>
<path fill="none" stroke="#5b00c0" d="M1258,-29.6051C1258,-54.2178 1258,-105.7961 1258,-151.9425"/>
<polygon fill="#5b00c0" stroke="#5b00c0" points="1254.5001,-152 1258,-162 1261.5001,-152 1254.5001,-152"/>
<text text-anchor="middle" x="1265.5" y="-92.3" font-family="Times,serif" font-size="14.00" fill="#5b00c0">rw</text>
</g>
</g>
</svg>
