<?xml version="1.0" encoding="UTF-8" standalone="no"?>
<!DOCTYPE svg PUBLIC "-//W3C//DTD SVG 1.1//EN"
 "http://www.w3.org/Graphics/SVG/1.1/DTD/svg11.dtd">
<!-- Generated by graphviz version 2.40.1 (20161225.0304)
 -->
<!-- Title: a_graph Pages: 1 -->
<svg width="4156pt" height="119pt"
 viewBox="0.00 0.00 4155.50 119.00" xmlns="http://www.w3.org/2000/svg" xmlns:xlink="http://www.w3.org/1999/xlink">
<g id="graph0" class="graph" transform="scale(1 1) rotate(0) translate(4 115)">
<title>a_graph</title>
<polygon fill="#ffffff" stroke="transparent" points="-4,4 -4,-115 4151.5,-115 4151.5,4 -4,4"/>
<!-- T21717 -->
<g id="node1" class="node">
<title>T21717</title>
<polygon fill="none" stroke="#0058ad" points="0,-81.5 0,-110.5 3164,-110.5 3164,-81.5 0,-81.5"/>
<text text-anchor="middle" x="720.5" y="-92.3" font-family="Times,serif" font-size="14.00" fill="#0058ad">r 3 [1 2 9 10 11 12 13 14 15 16 18 19 20 21 22 23 24 25 26 27 28 29 30 31 32 33 34 35 43 44 45 46 47 48 49 50 51 52 53 54 55 56 57 58 59 60 61 63 64 65 66 67 68 69 70 72 73 74 75 76 77 78 79 81 82 83 84 93 94 95 96 97 98 99 100 101 102 103 104 105]</text>
<polyline fill="none" stroke="#0058ad" points="1441,-81.5 1441,-110.5 "/>
<text text-anchor="middle" x="2270.5" y="-92.3" font-family="Times,serif" font-size="14.00" fill="#0058ad">r 107 [1 2 3 4 5 6 7 8 9 10 15 16 19 20 21 23 25 26 27 28 29 31 32 33 34 35 36 37 38 39 30 40 41 42 45 43 44 46 47 48 49 50 51 52 53 55 56 54 57 59 60 61 58 62 63 64 65 66 67 68 70 69 71 72 73 74 76 75 77 78 79 80 81 82 83 84 85 86 87 89 88 90 91 92 93 94 95 96 97 98 99 100 101 102 105]</text>
<polyline fill="none" stroke="#0058ad" points="3100,-81.5 3100,-110.5 "/>
<text text-anchor="middle" x="3132" y="-92.3" font-family="Times,serif" font-size="14.00" fill="#0058ad">a 96 109</text>
</g>
<!-- T21719 -->
<g id="node2" class="node">
<title>T21719</title>
<polygon fill="none" stroke="#0058ad" points="2174.5,-.5 2174.5,-29.5 4147.5,-29.5 4147.5,-.5 2174.5,-.5"/>
<text text-anchor="middle" x="2210" y="-11.3" font-family="Times,serif" font-size="14.00" fill="#0058ad">a 107 103</text>
<polyline fill="none" stroke="#0058ad" points="2245.5,-.5 2245.5,-29.5 "/>
<text text-anchor="middle" x="2281" y="-11.3" font-family="Times,serif" font-size="14.00" fill="#0058ad">a 107 104</text>
<polyline fill="none" stroke="#0058ad" points="2316.5,-.5 2316.5,-29.5 "/>
<text text-anchor="middle" x="3232" y="-11.3" font-family="Times,serif" font-size="14.00" fill="#0058ad">r 96 [1 2 3 5 6 7 8 9 10 11 12 13 14 15 16 17 19 18 20 21 22 23 24 25 27 28 29 30 31 32 33 34 35 36 37 38 39 40 41 42 43 44 45 46 47 48 49 52 53 54 55 56 57 58 59 60 62 61 63 64 65 67 68 69 70 71 72 73 74 75 76 77 78 79 80 81 82 84 83 85 86 87 88 89 90 91 92 93 94 95 96 97 98 99 100 101 102 103 104 105 106 107 108]</text>
</g>
<!-- T21717&#45;&gt;T21719 -->
<g id="edge1" class="edge">
<title>T21717:f1&#45;&gt;T21719:f0</title>
<path fill="none" stroke="#5b00c0" d="M2271,-81C2271,-49.6649 2223.0375,-61.5863 2212.171,-40.0515"/>
<polygon fill="#5b00c0" stroke="#5b00c0" points="2215.5324,-39.0356 2210,-30 2208.6902,-40.5136 2215.5324,-39.0356"/>
<text text-anchor="middle" x="2268.5" y="-51.8" font-family="Times,serif" font-size="14.00" fill="#5b00c0">rw</text>
</g>
<!-- T21719&#45;&gt;T21717 -->
<g id="edge2" class="edge">
<title>T21719:f2&#45;&gt;T21717:f2</title>
<path fill="none" stroke="#5b00c0" d="M3232,-30C3232,-68.6619 3210.1891,-91.959 3174.0316,-95.521"/>
<polygon fill="#5b00c0" stroke="#5b00c0" points="3173.8216,-92.0269 3164,-96 3174.1556,-99.019 3173.8216,-92.0269"/>
<text text-anchor="middle" x="3237.5" y="-51.8" font-family="Times,serif" font-size="14.00" fill="#5b00c0">rw</text>
</g>
</g>
</svg>
