<?xml version="1.0" encoding="UTF-8" standalone="no"?>
<!DOCTYPE svg PUBLIC "-//W3C//DTD SVG 1.1//EN"
 "http://www.w3.org/Graphics/SVG/1.1/DTD/svg11.dtd">
<!-- Generated by graphviz version 2.40.1 (20161225.0304)
 -->
<!-- Title: a_graph Pages: 1 -->
<svg width="1856pt" height="119pt"
 viewBox="0.00 0.00 1856.00 119.00" xmlns="http://www.w3.org/2000/svg" xmlns:xlink="http://www.w3.org/1999/xlink">
<g id="graph0" class="graph" transform="scale(1 1) rotate(0) translate(4 115)">
<title>a_graph</title>
<polygon fill="#ffffff" stroke="transparent" points="-4,4 -4,-115 1852,-115 1852,4 -4,4"/>
<!-- T4153 -->
<g id="node1" class="node">
<title>T4153</title>
<polygon fill="none" stroke="#0058ad" points="0,-81.5 0,-110.5 1027,-110.5 1027,-81.5 0,-81.5"/>
<text text-anchor="middle" x="485" y="-92.3" font-family="Times,serif" font-size="14.00" fill="#0058ad">r 26 [1 2 3 4 5 6 7 9 10 11 12 13 14 8 15 16 17 19 18 20 21 23 25 26 27 24 28 22 29 30 31 32 33 34 35 36 37 40 41 42 43 44 45 38 46 47 39 48 49 52 50 51 55 56 57 53 54]</text>
<polyline fill="none" stroke="#0058ad" points="970,-81.5 970,-110.5 "/>
<text text-anchor="middle" x="998.5" y="-92.3" font-family="Times,serif" font-size="14.00" fill="#0058ad">a 24 30</text>
</g>
<!-- T4159 -->
<g id="node2" class="node">
<title>T4159</title>
<polygon fill="none" stroke="#0058ad" points="243,-.5 243,-29.5 1848,-29.5 1848,-.5 243,-.5"/>
<text text-anchor="middle" x="486.5" y="-11.3" font-family="Times,serif" font-size="14.00" fill="#0058ad">r 24 [1 2 3 4 5 6 7 8 9 10 11 12 13 14 15 16 17 18 19 20 21 24 23 22 25 26 27 28 29]</text>
<polyline fill="none" stroke="#0058ad" points="730,-.5 730,-29.5 "/>
<text text-anchor="middle" x="758.5" y="-11.3" font-family="Times,serif" font-size="14.00" fill="#0058ad">a 26 58</text>
<polyline fill="none" stroke="#0058ad" points="787,-.5 787,-29.5 "/>
<text text-anchor="middle" x="815.5" y="-11.3" font-family="Times,serif" font-size="14.00" fill="#0058ad">a 26 59</text>
<polyline fill="none" stroke="#0058ad" points="844,-.5 844,-29.5 "/>
<text text-anchor="middle" x="1346" y="-11.3" font-family="Times,serif" font-size="14.00" fill="#0058ad">r 26 [1 2 3 4 5 6 7 9 10 11 12 13 14 8 15 16 17 19 18 20 21 23 25 26 27 24 28 22 29 30 31 32 33 34 35 36 37 40 41 42 43 44 45 38 46 47 39 48 49 52 50 51 55 56 57 53 54 58 59]</text>
</g>
<!-- T4153&#45;&gt;T4159 -->
<g id="edge1" class="edge">
<title>T4153:f0&#45;&gt;T4159:f1</title>
<path fill="none" stroke="#5b00c0" d="M484.5,-81C484.5,39.2403 742.6805,-142.6168 757.8083,-40.0775"/>
<polygon fill="#5b00c0" stroke="#5b00c0" points="761.3069,-40.2162 758.5,-30 754.3233,-39.7368 761.3069,-40.2162"/>
<text text-anchor="middle" x="764" y="-51.8" font-family="Times,serif" font-size="14.00" fill="#5b00c0">rw</text>
</g>
<!-- T4159&#45;&gt;T4153 -->
<g id="edge2" class="edge">
<title>T4159:f0&#45;&gt;T4153:f1</title>
<path fill="none" stroke="#5b00c0" d="M486.5,-30C486.5,-46.0867 759.5012,-46.321 775.5,-48 871.5429,-58.079 989.6165,13.6942 998.0238,-70.8235"/>
<polygon fill="#5b00c0" stroke="#5b00c0" points="994.5363,-71.1746 998.5,-81 1001.5286,-70.8473 994.5363,-71.1746"/>
<text text-anchor="middle" x="1003" y="-51.8" font-family="Times,serif" font-size="14.00" fill="#5b00c0">rw</text>
</g>
</g>
</svg>
