<?xml version="1.0" encoding="UTF-8" standalone="no"?>
<!DOCTYPE svg PUBLIC "-//W3C//DTD SVG 1.1//EN"
 "http://www.w3.org/Graphics/SVG/1.1/DTD/svg11.dtd">
<!-- Generated by graphviz version 2.40.1 (20161225.0304)
 -->
<!-- Title: a_graph Pages: 1 -->
<svg width="6129pt" height="281pt"
 viewBox="0.00 0.00 6129.00 281.00" xmlns="http://www.w3.org/2000/svg" xmlns:xlink="http://www.w3.org/1999/xlink">
<g id="graph0" class="graph" transform="scale(1 1) rotate(0) translate(4 277)">
<title>a_graph</title>
<polygon fill="#ffffff" stroke="transparent" points="-4,4 -4,-277 6125,-277 6125,4 -4,4"/>
<!-- T19469 -->
<g id="node1" class="node">
<title>T19469</title>
<polygon fill="none" stroke="#0058ad" points="2024,-243.5 2024,-272.5 6121,-272.5 6121,-243.5 2024,-243.5"/>
<text text-anchor="middle" x="3003" y="-254.3" font-family="Times,serif" font-size="14.00" fill="#0058ad">r 98 [1 2 3 5 4 7 8 9 10 11 12 13 14 6 16 18 17 19 20 21 22 23 15 25 26 27 24 28 29 30 33 31 32 34 35 38 39 40 36 37 43 41 42 44 46 47 45 49 48 50 51 53 54 55 52 56 57 58 59 60 62 63 64 61 66 67 68 69 70 71 65 74 72 73 75 76 79 80 77 78 81 82 83 84 85 86 87 88 89 92 90 91 94 93 96 97 95 98 99 100 101 102 103 104 105 108 109 110 106 107]</text>
<polyline fill="none" stroke="#0058ad" points="3982,-243.5 3982,-272.5 "/>
<text text-anchor="middle" x="4047.5" y="-254.3" font-family="Times,serif" font-size="14.00" fill="#0058ad">r 99 [1 2 3 4 5 7 8 6]</text>
<polyline fill="none" stroke="#0058ad" points="4113,-243.5 4113,-272.5 "/>
<text text-anchor="middle" x="4138" y="-254.3" font-family="Times,serif" font-size="14.00" fill="#0058ad">a 99 9</text>
<polyline fill="none" stroke="#0058ad" points="4163,-243.5 4163,-272.5 "/>
<text text-anchor="middle" x="5142" y="-254.3" font-family="Times,serif" font-size="14.00" fill="#0058ad">r 98 [1 2 3 5 4 7 8 9 10 11 12 13 14 6 16 18 17 19 20 21 22 23 15 25 26 27 24 28 29 30 33 31 32 34 35 38 39 40 36 37 43 41 42 44 46 47 45 49 48 50 51 53 54 55 52 56 57 58 59 60 62 63 64 61 66 67 68 69 70 71 65 74 72 73 75 76 79 80 77 78 81 82 83 84 85 86 87 88 89 92 90 91 94 93 96 97 95 98 99 100 101 102 103 104 105 108 109 110 106 107]</text>
</g>
<!-- T19471 -->
<g id="node2" class="node">
<title>T19471</title>
<polygon fill="none" stroke="#0058ad" points="0,-162.5 0,-191.5 4135,-191.5 4135,-162.5 0,-162.5"/>
<text text-anchor="middle" x="979" y="-173.3" font-family="Times,serif" font-size="14.00" fill="#0058ad">r 98 [1 2 3 5 4 7 8 9 10 11 12 13 14 6 16 18 17 19 20 21 22 23 15 25 26 27 24 28 29 30 33 31 32 34 35 38 39 40 36 37 43 41 42 44 46 47 45 49 48 50 51 53 54 55 52 56 57 58 59 60 62 63 64 61 66 67 68 69 70 71 65 74 72 73 75 76 79 80 77 78 81 82 83 84 85 86 87 88 89 92 90 91 94 93 96 97 95 98 99 100 101 102 103 104 105 108 109 110 106 107]</text>
<polyline fill="none" stroke="#0058ad" points="1958,-162.5 1958,-191.5 "/>
<text text-anchor="middle" x="1990" y="-173.3" font-family="Times,serif" font-size="14.00" fill="#0058ad">a 98 112</text>
<polyline fill="none" stroke="#0058ad" points="2022,-162.5 2022,-191.5 "/>
<text text-anchor="middle" x="3013" y="-173.3" font-family="Times,serif" font-size="14.00" fill="#0058ad">r 98 [1 2 3 5 4 7 8 9 10 11 12 13 14 6 16 18 17 19 20 21 22 23 15 25 26 27 24 28 29 30 33 31 32 34 35 38 39 40 36 37 43 41 42 44 46 47 45 49 48 50 51 53 54 55 52 56 57 58 59 60 62 63 64 61 66 67 68 69 70 71 65 74 72 73 75 76 79 80 77 78 81 82 83 84 85 86 87 88 89 92 90 91 94 93 96 97 95 98 99 100 101 102 103 104 105 108 109 110 106 107 112]</text>
<polyline fill="none" stroke="#0058ad" points="4004,-162.5 4004,-191.5 "/>
<text text-anchor="middle" x="4069.5" y="-173.3" font-family="Times,serif" font-size="14.00" fill="#0058ad">r 99 [1 2 3 4 5 7 8 6]</text>
</g>
<!-- T19469&#45;&gt;T19471 -->
<g id="edge2" class="edge">
<title>T19469:f0&#45;&gt;T19471:f1</title>
<path fill="none" stroke="#5b00c0" d="M2023.5,-258C1993.8544,-258 1990.0338,-231.3602 1989.5635,-202.0193"/>
<polygon fill="#5b00c0" stroke="#5b00c0" points="1993.0634,-201.9776 1989.5,-192 1986.0636,-202.022 1993.0634,-201.9776"/>
<text text-anchor="middle" x="1999" y="-213.8" font-family="Times,serif" font-size="14.00" fill="#5b00c0">rw</text>
</g>
<!-- T19477 -->
<g id="node3" class="node">
<title>T19477</title>
<polygon fill="none" stroke="#0058ad" points="1120.5,-.5 1120.5,-29.5 5252.5,-29.5 5252.5,-.5 1120.5,-.5"/>
<text text-anchor="middle" x="2099.5" y="-11.3" font-family="Times,serif" font-size="14.00" fill="#0058ad">r 98 [1 2 3 5 4 7 8 9 10 11 12 13 14 6 16 18 17 19 20 21 22 23 15 25 26 27 24 28 29 30 33 31 32 34 35 38 39 40 36 37 43 41 42 44 46 47 45 49 48 50 51 53 54 55 52 56 57 58 59 60 62 63 64 61 66 67 68 69 70 71 65 74 72 73 75 76 79 80 77 78 81 82 83 84 85 86 87 88 89 92 90 91 94 93 96 97 95 98 99 100 101 102 103 104 105 108 109 110 106 107]</text>
<polyline fill="none" stroke="#0058ad" points="3078.5,-.5 3078.5,-29.5 "/>
<text text-anchor="middle" x="3107" y="-11.3" font-family="Times,serif" font-size="14.00" fill="#0058ad">a 99 10</text>
<polyline fill="none" stroke="#0058ad" points="3135.5,-.5 3135.5,-29.5 "/>
<text text-anchor="middle" x="3215" y="-11.3" font-family="Times,serif" font-size="14.00" fill="#0058ad">r 99 [1 2 3 4 5 7 8 6 9 10]</text>
<polyline fill="none" stroke="#0058ad" points="3294.5,-.5 3294.5,-29.5 "/>
<text text-anchor="middle" x="4273.5" y="-11.3" font-family="Times,serif" font-size="14.00" fill="#0058ad">r 98 [1 2 3 5 4 7 8 9 10 11 12 13 14 6 16 18 17 19 20 21 22 23 15 25 26 27 24 28 29 30 33 31 32 34 35 38 39 40 36 37 43 41 42 44 46 47 45 49 48 50 51 53 54 55 52 56 57 58 59 60 62 63 64 61 66 67 68 69 70 71 65 74 72 73 75 76 79 80 77 78 81 82 83 84 85 86 87 88 89 92 90 91 94 93 96 97 95 98 99 100 101 102 103 104 105 108 109 110 106 107]</text>
</g>
<!-- T19469&#45;&gt;T19477 -->
<g id="edge3" class="edge">
<title>T19469:f2&#45;&gt;T19477:f1</title>
<path fill="none" stroke="#c02700" d="M4138.5,-243C4138.5,-185.3098 5130.3877,-154.3083 5168.5,-111 5177.3085,-100.9906 5177.8108,-90.5439 5168.5,-81 5090.7464,-1.2995 3217.2351,-136.5255 3111.1807,-39.1207"/>
<polygon fill="#c02700" stroke="#c02700" points="3114.1797,-37.2988 3106.5,-30 3107.9519,-40.4949 3114.1797,-37.2988"/>
<text text-anchor="middle" x="5106.5" y="-132.8" font-family="Times,serif" font-size="14.00" fill="#c02700">ww</text>
</g>
<!-- T19475 -->
<g id="node4" class="node">
<title>T19475</title>
<polygon fill="none" stroke="#0058ad" points="1034,-81.5 1034,-110.5 5159,-110.5 5159,-81.5 1034,-81.5"/>
<text text-anchor="middle" x="2034.5" y="-92.3" font-family="Times,serif" font-size="14.00" fill="#0058ad">r 93 [5 9 10 11 12 13 14 15 16 18 19 20 21 22 17 23 24 25 26 27 28 29 30 31 32 33 34 35 36 37 38 41 42 43 44 45 46 47 48 49 50 51 52 53 54 55 56 57 58 59 60 61 62 63 64 65 66 67 68 69 70 71 73 74 75 76 77 79 78 80 81 83 82 84 86 85 87 88 90 89 91 92 93 94 95 96 98 97 99 100 102 103 101 104 105 106 107 108 109 110 111 112 113 114 115 116 117]</text>
<polyline fill="none" stroke="#0058ad" points="3035,-81.5 3035,-110.5 "/>
<text text-anchor="middle" x="3106" y="-92.3" font-family="Times,serif" font-size="14.00" fill="#0058ad">r 99 [1 2 3 4 5 7 8 6 9]</text>
<polyline fill="none" stroke="#0058ad" points="3177,-81.5 3177,-110.5 "/>
<text text-anchor="middle" x="4168" y="-92.3" font-family="Times,serif" font-size="14.00" fill="#0058ad">r 98 [1 2 3 5 4 7 8 9 10 11 12 13 14 6 16 18 17 19 20 21 22 23 15 25 26 27 24 28 29 30 33 31 32 34 35 38 39 40 36 37 43 41 42 44 46 47 45 49 48 50 51 53 54 55 52 56 57 58 59 60 62 63 64 61 66 67 68 69 70 71 65 74 72 73 75 76 79 80 77 78 81 82 83 84 85 86 87 88 89 92 90 91 94 93 96 97 95 98 99 100 101 102 103 104 105 108 109 110 106 107 112]</text>
</g>
<!-- T19469&#45;&gt;T19475 -->
<g id="edge1" class="edge">
<title>T19469:f2&#45;&gt;T19475:f1</title>
<path fill="none" stroke="#c000a5" d="M4138.5,-243C4138.5,-234.2455 4144.6826,-233.5638 4146.5,-225 4149.8345,-209.2872 4152.2354,-173.4552 4144.5,-162 4124.5741,-132.4922 4106.2348,-136.826 4071.5,-129 4046.8779,-123.4525 3213.3875,-136.1579 3115.7973,-115.2977"/>
<polygon fill="#c000a5" stroke="#c000a5" points="3117.0457,-112.0189 3106.5,-111 3114.1086,-118.3729 3117.0457,-112.0189"/>
<text text-anchor="middle" x="4157" y="-173.3" font-family="Times,serif" font-size="14.00" fill="#c000a5">wr</text>
</g>
<!-- T19471&#45;&gt;T19469 -->
<g id="edge4" class="edge">
<title>T19471:f3&#45;&gt;T19469:f2</title>
<path fill="none" stroke="#5b00c0" d="M4069.5,-192C4069.5,-226.1123 4124.7128,-209.4905 4136.3593,-232.9011"/>
<polygon fill="#5b00c0" stroke="#5b00c0" points="4133.0023,-233.9432 4138.5,-243 4139.8502,-232.4916 4133.0023,-233.9432"/>
<text text-anchor="middle" x="4135" y="-213.8" font-family="Times,serif" font-size="14.00" fill="#5b00c0">rw</text>
</g>
<!-- T19471&#45;&gt;T19475 -->
<g id="edge5" class="edge">
<title>T19471:f1&#45;&gt;T19475:f2</title>
<path fill="none" stroke="#c000a5" d="M1989.5,-162C1989.5,-103.6433 4013.8781,-166.6499 4160.171,-117.0636"/>
<polygon fill="#c000a5" stroke="#c000a5" points="4162.4754,-119.7152 4168.5,-111 4158.3555,-114.0561 4162.4754,-119.7152"/>
<text text-anchor="middle" x="4060" y="-132.8" font-family="Times,serif" font-size="14.00" fill="#c000a5">wr</text>
</g>
<!-- T19477&#45;&gt;T19471 -->
<g id="edge6" class="edge">
<title>T19477:f0&#45;&gt;T19471:f1</title>
<path fill="none" stroke="#5b00c0" d="M1120.5,-15C971.9672,-15 937.951,-35.6307 1009.5,-111 1082.1508,-187.5299 1932.0363,-61.5767 1986.7386,-152.2099"/>
<polygon fill="#5b00c0" stroke="#5b00c0" points="1983.4167,-153.3257 1989.5,-162 1990.1538,-151.4254 1983.4167,-153.3257"/>
<text text-anchor="middle" x="1017" y="-92.3" font-family="Times,serif" font-size="14.00" fill="#5b00c0">rw</text>
</g>
<!-- T19475&#45;&gt;T19477 -->
<g id="edge7" class="edge">
<title>T19475:f1&#45;&gt;T19477:f1</title>
<path fill="none" stroke="#5b00c0" d="M3106.5,-81C3106.5,-62.2292 3106.5,-55.1168 3106.5,-40.3535"/>
<polygon fill="#5b00c0" stroke="#5b00c0" points="3110.0001,-40 3106.5,-30 3103.0001,-40 3110.0001,-40"/>
<text text-anchor="middle" x="3114" y="-51.8" font-family="Times,serif" font-size="14.00" fill="#5b00c0">rw</text>
</g>
</g>
</svg>
