<?xml version="1.0" encoding="UTF-8" standalone="no"?>
<!DOCTYPE svg PUBLIC "-//W3C//DTD SVG 1.1//EN"
 "http://www.w3.org/Graphics/SVG/1.1/DTD/svg11.dtd">
<!-- Generated by graphviz version 2.40.1 (20161225.0304)
 -->
<!-- Title: a_graph Pages: 1 -->
<svg width="518pt" height="119pt"
 viewBox="0.00 0.00 518.00 119.00" xmlns="http://www.w3.org/2000/svg" xmlns:xlink="http://www.w3.org/1999/xlink">
<g id="graph0" class="graph" transform="scale(1 1) rotate(0) translate(4 115)">
<title>a_graph</title>
<polygon fill="#ffffff" stroke="transparent" points="-4,4 -4,-115 514,-115 514,4 -4,4"/>
<!-- T18373 -->
<g id="node1" class="node">
<title>T18373</title>
<polygon fill="none" stroke="#0058ad" points="0,-81.5 0,-110.5 510,-110.5 510,-81.5 0,-81.5"/>
<text text-anchor="middle" x="28.5" y="-92.3" font-family="Times,serif" font-size="14.00" fill="#0058ad">a 94 12</text>
<polyline fill="none" stroke="#0058ad" points="57,-81.5 57,-110.5 "/>
<text text-anchor="middle" x="85.5" y="-92.3" font-family="Times,serif" font-size="14.00" fill="#0058ad">a 94 13</text>
<polyline fill="none" stroke="#0058ad" points="114,-81.5 114,-110.5 "/>
<text text-anchor="middle" x="312" y="-92.3" font-family="Times,serif" font-size="14.00" fill="#0058ad">r 93 [5 9 10 11 12 13 14 15 16 18 19 20 21 22 17 23 24 25 26 27 28]</text>
</g>
<!-- T18375 -->
<g id="node2" class="node">
<title>T18375</title>
<polygon fill="none" stroke="#0058ad" points="86,-.5 86,-29.5 366,-29.5 366,-.5 86,-.5"/>
<text text-anchor="middle" x="114.5" y="-11.3" font-family="Times,serif" font-size="14.00" fill="#0058ad">a 93 29</text>
<polyline fill="none" stroke="#0058ad" points="143,-.5 143,-29.5 "/>
<text text-anchor="middle" x="226" y="-11.3" font-family="Times,serif" font-size="14.00" fill="#0058ad">r 94 [1 2 3 4 5 6 7 8 10 11]</text>
<polyline fill="none" stroke="#0058ad" points="309,-.5 309,-29.5 "/>
<text text-anchor="middle" x="337.5" y="-11.3" font-family="Times,serif" font-size="14.00" fill="#0058ad">a 91 87</text>
</g>
<!-- T18373&#45;&gt;T18375 -->
<g id="edge1" class="edge">
<title>T18373:f2&#45;&gt;T18375:f0</title>
<path fill="none" stroke="#5b00c0" d="M312,-81C312,6.1451 129.9091,-110.52 114.972,-40.0937"/>
<polygon fill="#5b00c0" stroke="#5b00c0" points="118.4425,-39.6185 114,-30 111.4747,-40.2895 118.4425,-39.6185"/>
<text text-anchor="middle" x="313.5" y="-51.8" font-family="Times,serif" font-size="14.00" fill="#5b00c0">rw</text>
</g>
<!-- T18375&#45;&gt;T18373 -->
<g id="edge2" class="edge">
<title>T18375:f1&#45;&gt;T18373:f0</title>
<path fill="none" stroke="#5b00c0" d="M226,-30C226,-58.2843 127.1367,-40.0251 100,-48 69.9211,-56.8395 36.3089,-48.1878 29.3161,-71.0574"/>
<polygon fill="#5b00c0" stroke="#5b00c0" points="25.8426,-70.6272 28,-81 32.782,-71.5458 25.8426,-70.6272"/>
<text text-anchor="middle" x="107.5" y="-51.8" font-family="Times,serif" font-size="14.00" fill="#5b00c0">rw</text>
</g>
</g>
</svg>
