<?xml version="1.0" encoding="UTF-8" standalone="no"?>
<!DOCTYPE svg PUBLIC "-//W3C//DTD SVG 1.1//EN"
 "http://www.w3.org/Graphics/SVG/1.1/DTD/svg11.dtd">
<!-- Generated by graphviz version 2.40.1 (20161225.0304)
 -->
<!-- Title: a_graph Pages: 1 -->
<svg width="4333pt" height="200pt"
 viewBox="0.00 0.00 4333.00 200.00" xmlns="http://www.w3.org/2000/svg" xmlns:xlink="http://www.w3.org/1999/xlink">
<g id="graph0" class="graph" transform="scale(1 1) rotate(0) translate(4 196)">
<title>a_graph</title>
<polygon fill="#ffffff" stroke="transparent" points="-4,4 -4,-196 4329,-196 4329,4 -4,4"/>
<!-- T23641 -->
<g id="node1" class="node">
<title>T23641</title>
<polygon fill="none" stroke="#0058ad" points="0,-162.5 0,-191.5 3002,-191.5 3002,-162.5 0,-162.5"/>
<text text-anchor="middle" x="32" y="-173.3" font-family="Times,serif" font-size="14.00" fill="#0058ad">a 118 98</text>
<polyline fill="none" stroke="#0058ad" points="64,-162.5 64,-191.5 "/>
<text text-anchor="middle" x="733.5" y="-173.3" font-family="Times,serif" font-size="14.00" fill="#0058ad">r 101 [1 2 3 4 5 7 6 8 9 10 12 14 15 16 17 18 19 20 21 22 23 24 25 26 27 28 29 30 31 32 33 34 35 36 37 38 39 40 41 42 43 44 45 46 47 48 49 50 51 53 54 55 56 57 58 59 60 62 64 65 66 67 68 69 70 71 72 73 74 75 76 77 78 81 82 83 84 85]</text>
<polyline fill="none" stroke="#0058ad" points="1403,-162.5 1403,-191.5 "/>
<text text-anchor="middle" x="2170.5" y="-173.3" font-family="Times,serif" font-size="14.00" fill="#0058ad">r 118 [3 2 4 5 6 7 8 9 10 11 12 13 14 16 17 18 19 20 22 21 26 27 30 28 29 36 37 38 31 39 40 35 41 42 43 44 45 47 48 46 50 49 51 52 53 54 55 56 59 60 57 58 61 62 63 64 65 66 67 68 69 71 72 73 70 74 75 76 77 78 79 81 80 82 83 84 85 86 87 88 90 89 91 93 94 95 96 97 98]</text>
<polyline fill="none" stroke="#0058ad" points="2938,-162.5 2938,-191.5 "/>
<text text-anchor="middle" x="2970" y="-173.3" font-family="Times,serif" font-size="14.00" fill="#0058ad">a 118 99</text>
</g>
<!-- T23645 -->
<g id="node3" class="node">
<title>T23645</title>
<polygon fill="none" stroke="#0058ad" points="2219.5,-81.5 2219.5,-110.5 4100.5,-110.5 4100.5,-81.5 2219.5,-81.5"/>
<text text-anchor="middle" x="2251.5" y="-92.3" font-family="Times,serif" font-size="14.00" fill="#0058ad">a 118 92</text>
<polyline fill="none" stroke="#0058ad" points="2283.5,-81.5 2283.5,-110.5 "/>
<text text-anchor="middle" x="3068.5" y="-92.3" font-family="Times,serif" font-size="14.00" fill="#0058ad">r 118 [3 2 4 5 6 7 8 9 10 11 12 13 14 16 17 18 19 20 22 21 26 27 30 28 29 36 37 38 31 39 40 35 41 42 43 44 45 47 48 46 50 49 51 52 53 54 55 56 59 60 57 58 61 62 63 64 65 66 67 68 69 71 72 73 70 74 75 76 77 78 79 81 80 82 83 84 85 86 87 88 90 89 91 93 94 95 96 97 98 99 92]</text>
<polyline fill="none" stroke="#0058ad" points="3853.5,-81.5 3853.5,-110.5 "/>
<text text-anchor="middle" x="3885.5" y="-92.3" font-family="Times,serif" font-size="14.00" fill="#0058ad">a 113 58</text>
<polyline fill="none" stroke="#0058ad" points="3917.5,-81.5 3917.5,-110.5 "/>
<text text-anchor="middle" x="4009" y="-92.3" font-family="Times,serif" font-size="14.00" fill="#0058ad">r 119 [1 2 3 4 5 6 7 8 9 10 11]</text>
</g>
<!-- T23641&#45;&gt;T23645 -->
<g id="edge1" class="edge">
<title>T23641:f3&#45;&gt;T23645:f0</title>
<path fill="none" stroke="#c02700" d="M2970,-162C2970,-5.4186 2282.9361,-259.2958 2252.0719,-121.153"/>
<polygon fill="#c02700" stroke="#c02700" points="2255.5307,-120.5772 2251,-111 2248.5693,-121.3122 2255.5307,-120.5772"/>
<text text-anchor="middle" x="2972" y="-132.8" font-family="Times,serif" font-size="14.00" fill="#c02700">ww</text>
</g>
<!-- T23643 -->
<g id="node2" class="node">
<title>T23643</title>
<polygon fill="none" stroke="#0058ad" points="1225,-.5 1225,-29.5 4325,-29.5 4325,-.5 1225,-.5"/>
<text text-anchor="middle" x="1984" y="-11.3" font-family="Times,serif" font-size="14.00" fill="#0058ad">r 118 [3 2 4 5 6 7 8 9 10 11 12 13 14 16 17 18 19 20 22 21 26 27 30 28 29 36 37 38 31 39 40 35 41 42 43 44 45 47 48 46 50 49 51 52 53 54 55 56 59 60 57 58 61 62 63 64 65 66 67 68 69 71 72 73 70 74 75 76 77 78 79 81 80 82 83 84 85 86 87 88 90 89 91 93 94 95 96 97]</text>
<polyline fill="none" stroke="#0058ad" points="2743,-.5 2743,-29.5 "/>
<text text-anchor="middle" x="2775" y="-11.3" font-family="Times,serif" font-size="14.00" fill="#0058ad">a 119 12</text>
<polyline fill="none" stroke="#0058ad" points="2807,-.5 2807,-29.5 "/>
<text text-anchor="middle" x="3566" y="-11.3" font-family="Times,serif" font-size="14.00" fill="#0058ad">r 118 [3 2 4 5 6 7 8 9 10 11 12 13 14 16 17 18 19 20 22 21 26 27 30 28 29 36 37 38 31 39 40 35 41 42 43 44 45 47 48 46 50 49 51 52 53 54 55 56 59 60 57 58 61 62 63 64 65 66 67 68 69 71 72 73 70 74 75 76 77 78 79 81 80 82 83 84 85 86 87 88 90 89 91 93 94 95 96 97]</text>
</g>
<!-- T23643&#45;&gt;T23641 -->
<g id="edge2" class="edge">
<title>T23643:f0&#45;&gt;T23641:f0</title>
<path fill="none" stroke="#5b00c0" d="M1225,-15C1094.8331,-15 85.2029,-27.768 34.0165,-152.0572"/>
<polygon fill="#5b00c0" stroke="#5b00c0" points="30.5576,-151.5038 32,-162 37.4179,-152.8952 30.5576,-151.5038"/>
<text text-anchor="middle" x="214.5" y="-92.3" font-family="Times,serif" font-size="14.00" fill="#5b00c0">rw</text>
</g>
<!-- T23645&#45;&gt;T23643 -->
<g id="edge3" class="edge">
<title>T23645:f3&#45;&gt;T23643:f1</title>
<path fill="none" stroke="#5b00c0" d="M4009,-81C4009,52.7439 2836.8685,-156.1133 2777.3462,-39.7672"/>
<polygon fill="#5b00c0" stroke="#5b00c0" points="2780.739,-38.9059 2775,-30 2773.9326,-40.5409 2780.739,-38.9059"/>
<text text-anchor="middle" x="4003.5" y="-51.8" font-family="Times,serif" font-size="14.00" fill="#5b00c0">rw</text>
</g>
</g>
</svg>
