<?xml version="1.0" encoding="UTF-8" standalone="no"?>
<!DOCTYPE svg PUBLIC "-//W3C//DTD SVG 1.1//EN"
 "http://www.w3.org/Graphics/SVG/1.1/DTD/svg11.dtd">
<!-- Generated by graphviz version 2.40.1 (20161225.0304)
 -->
<!-- Title: a_graph Pages: 1 -->
<svg width="1063pt" height="119pt"
 viewBox="0.00 0.00 1063.00 119.00" xmlns="http://www.w3.org/2000/svg" xmlns:xlink="http://www.w3.org/1999/xlink">
<g id="graph0" class="graph" transform="scale(1 1) rotate(0) translate(4 115)">
<title>a_graph</title>
<polygon fill="#ffffff" stroke="transparent" points="-4,4 -4,-115 1059,-115 1059,4 -4,4"/>
<!-- T18809 -->
<g id="node1" class="node">
<title>T18809</title>
<polygon fill="none" stroke="#0058ad" points="0,-81.5 0,-110.5 1055,-110.5 1055,-81.5 0,-81.5"/>
<text text-anchor="middle" x="29" y="-92.3" font-family="Times,serif" font-size="14.00" fill="#0058ad">r 96 [1]</text>
<polyline fill="none" stroke="#0058ad" points="58,-81.5 58,-110.5 "/>
<text text-anchor="middle" x="293" y="-92.3" font-family="Times,serif" font-size="14.00" fill="#0058ad">r 97 [1 2 3 4 5 6 7 8 9 10 11 12 14 15 13 16 17 18 19 21 22 23 25 24 27 26 28 29]</text>
<polyline fill="none" stroke="#0058ad" points="528,-81.5 528,-110.5 "/>
<text text-anchor="middle" x="763" y="-92.3" font-family="Times,serif" font-size="14.00" fill="#0058ad">r 97 [1 2 3 4 5 6 7 8 9 10 11 12 14 15 13 16 17 18 19 21 22 23 25 24 27 26 28 29]</text>
<polyline fill="none" stroke="#0058ad" points="998,-81.5 998,-110.5 "/>
<text text-anchor="middle" x="1026.5" y="-92.3" font-family="Times,serif" font-size="14.00" fill="#0058ad">a 95 32</text>
</g>
<!-- T18807 -->
<g id="node2" class="node">
<title>T18807</title>
<polygon fill="none" stroke="#0058ad" points="254.5,-.5 254.5,-29.5 832.5,-29.5 832.5,-.5 254.5,-.5"/>
<text text-anchor="middle" x="515" y="-11.3" font-family="Times,serif" font-size="14.00" fill="#0058ad">r 95 [1 3 2 4 5 6 7 8 9 10 11 14 12 15 13 16 17 18 19 20 21 22 25 23 24 27 26 28 29 30 31]</text>
<polyline fill="none" stroke="#0058ad" points="775.5,-.5 775.5,-29.5 "/>
<text text-anchor="middle" x="804" y="-11.3" font-family="Times,serif" font-size="14.00" fill="#0058ad">a 97 20</text>
</g>
<!-- T18809&#45;&gt;T18807 -->
<g id="edge1" class="edge">
<title>T18809:f1&#45;&gt;T18807:f1</title>
<path fill="none" stroke="#5b00c0" d="M292.5,-81C292.5,144.1085 788.625,-246.1379 804.1289,-40.2592"/>
<polygon fill="#5b00c0" stroke="#5b00c0" points="807.6361,-40.12 804.5,-30 800.6407,-39.8669 807.6361,-40.12"/>
<text text-anchor="middle" x="809" y="-51.8" font-family="Times,serif" font-size="14.00" fill="#5b00c0">rw</text>
</g>
<!-- T18807&#45;&gt;T18809 -->
<g id="edge2" class="edge">
<title>T18807:f0&#45;&gt;T18809:f3</title>
<path fill="none" stroke="#5b00c0" d="M514.5,-30C514.5,-47.0294 803.5713,-46.1509 820.5,-48 909.074,-57.6751 1017.6404,6.3923 1025.987,-70.8635"/>
<polygon fill="#5b00c0" stroke="#5b00c0" points="1022.499,-71.1897 1026.5,-81 1029.49,-70.8358 1022.499,-71.1897"/>
<text text-anchor="middle" x="1031" y="-51.8" font-family="Times,serif" font-size="14.00" fill="#5b00c0">rw</text>
</g>
</g>
</svg>
