<?xml version="1.0" encoding="UTF-8" standalone="no"?>
<!DOCTYPE svg PUBLIC "-//W3C//DTD SVG 1.1//EN"
 "http://www.w3.org/Graphics/SVG/1.1/DTD/svg11.dtd">
<!-- Generated by graphviz version 2.40.1 (20161225.0304)
 -->
<!-- Title: a_graph Pages: 1 -->
<svg width="685pt" height="200pt"
 viewBox="0.00 0.00 685.00 200.00" xmlns="http://www.w3.org/2000/svg" xmlns:xlink="http://www.w3.org/1999/xlink">
<g id="graph0" class="graph" transform="scale(1 1) rotate(0) translate(4 196)">
<title>a_graph</title>
<polygon fill="#ffffff" stroke="transparent" points="-4,4 -4,-196 681,-196 681,4 -4,4"/>
<!-- T21287 -->
<g id="node1" class="node">
<title>T21287</title>
<polygon fill="none" stroke="#0058ad" points="0,-162.5 0,-191.5 634,-191.5 634,-162.5 0,-162.5"/>
<text text-anchor="middle" x="133" y="-173.3" font-family="Times,serif" font-size="14.00" fill="#0058ad">r 109 [1 4 5 6 7 8 9 10 11 12 16 15 17 20 21]</text>
<polyline fill="none" stroke="#0058ad" points="266,-162.5 266,-191.5 "/>
<text text-anchor="middle" x="418" y="-173.3" font-family="Times,serif" font-size="14.00" fill="#0058ad">r 107 [1 2 3 4 5 6 7 8 9 10 15 16 19 20 21 23 25 26]</text>
<polyline fill="none" stroke="#0058ad" points="570,-162.5 570,-191.5 "/>
<text text-anchor="middle" x="602" y="-173.3" font-family="Times,serif" font-size="14.00" fill="#0058ad">a 108 15</text>
</g>
<!-- T21285 -->
<g id="node3" class="node">
<title>T21285</title>
<polygon fill="none" stroke="#0058ad" points="8,-81.5 8,-110.5 632,-110.5 632,-81.5 8,-81.5"/>
<text text-anchor="middle" x="132" y="-92.3" font-family="Times,serif" font-size="14.00" fill="#0058ad">r 109 [1 4 5 6 7 8 9 10 11 12 16 15 17 20]</text>
<polyline fill="none" stroke="#0058ad" points="256,-81.5 256,-110.5 "/>
<text text-anchor="middle" x="288" y="-92.3" font-family="Times,serif" font-size="14.00" fill="#0058ad">a 101 42</text>
<polyline fill="none" stroke="#0058ad" points="320,-81.5 320,-110.5 "/>
<text text-anchor="middle" x="352" y="-92.3" font-family="Times,serif" font-size="14.00" fill="#0058ad">a 107 27</text>
<polyline fill="none" stroke="#0058ad" points="384,-81.5 384,-110.5 "/>
<text text-anchor="middle" x="508" y="-92.3" font-family="Times,serif" font-size="14.00" fill="#0058ad">r 109 [1 4 5 6 7 8 9 10 11 12 16 15 17 20]</text>
</g>
<!-- T21287&#45;&gt;T21285 -->
<g id="edge1" class="edge">
<title>T21287:f1&#45;&gt;T21285:f2</title>
<path fill="none" stroke="#5b00c0" d="M418,-162C418,-128.8393 365.1877,-143.859 354.0476,-120.8613"/>
<polygon fill="#5b00c0" stroke="#5b00c0" points="357.46,-120.0796 352,-111 350.6062,-121.5028 357.46,-120.0796"/>
<text text-anchor="middle" x="414.5" y="-132.8" font-family="Times,serif" font-size="14.00" fill="#5b00c0">rw</text>
</g>
<!-- T21283 -->
<g id="node2" class="node">
<title>T21283</title>
<polygon fill="none" stroke="#0058ad" points="88,-.5 88,-29.5 464,-29.5 464,-.5 88,-.5"/>
<text text-anchor="middle" x="212" y="-11.3" font-family="Times,serif" font-size="14.00" fill="#0058ad">r 109 [1 4 5 6 7 8 9 10 11 12 16 15 17 20]</text>
<polyline fill="none" stroke="#0058ad" points="336,-.5 336,-29.5 "/>
<text text-anchor="middle" x="368" y="-11.3" font-family="Times,serif" font-size="14.00" fill="#0058ad">a 108 14</text>
<polyline fill="none" stroke="#0058ad" points="400,-.5 400,-29.5 "/>
<text text-anchor="middle" x="432" y="-11.3" font-family="Times,serif" font-size="14.00" fill="#0058ad">a 109 21</text>
</g>
<!-- T21283&#45;&gt;T21287 -->
<g id="edge2" class="edge">
<title>T21283:f1&#45;&gt;T21287:f2</title>
<path fill="none" stroke="#c02700" d="M368,-30C368,-37.7145 636.0713,-75.0652 641,-81 665.9829,-111.0822 675.1884,-166.3794 643.9147,-175.6614"/>
<polygon fill="#c02700" stroke="#c02700" points="643.4418,-172.1934 634,-177 644.3784,-179.1305 643.4418,-172.1934"/>
<text text-anchor="middle" x="667" y="-92.3" font-family="Times,serif" font-size="14.00" fill="#c02700">ww</text>
</g>
<!-- T21285&#45;&gt;T21283 -->
<g id="edge3" class="edge">
<title>T21285:f0&#45;&gt;T21283:f2</title>
<path fill="none" stroke="#5b00c0" d="M132,-81C132,50.5481 415.8181,-153.508 431.3394,-40.3132"/>
<polygon fill="#5b00c0" stroke="#5b00c0" points="434.8535,-40.2033 432,-30 427.8678,-39.7558 434.8535,-40.2033"/>
<text text-anchor="middle" x="435.5" y="-51.8" font-family="Times,serif" font-size="14.00" fill="#5b00c0">rw</text>
</g>
</g>
</svg>
