<?xml version="1.0" encoding="UTF-8" standalone="no"?>
<!DOCTYPE svg PUBLIC "-//W3C//DTD SVG 1.1//EN"
 "http://www.w3.org/Graphics/SVG/1.1/DTD/svg11.dtd">
<!-- Generated by graphviz version 2.40.1 (20161225.0304)
 -->
<!-- Title: a_graph Pages: 1 -->
<svg width="3053pt" height="119pt"
 viewBox="0.00 0.00 3053.00 119.00" xmlns="http://www.w3.org/2000/svg" xmlns:xlink="http://www.w3.org/1999/xlink">
<g id="graph0" class="graph" transform="scale(1 1) rotate(0) translate(4 115)">
<title>a_graph</title>
<polygon fill="#ffffff" stroke="transparent" points="-4,4 -4,-115 3049,-115 3049,4 -4,4"/>
<!-- T20807 -->
<g id="node1" class="node">
<title>T20807</title>
<polygon fill="none" stroke="#0058ad" points="0,-81.5 0,-110.5 3045,-110.5 3045,-81.5 0,-81.5"/>
<text text-anchor="middle" x="755.5" y="-92.3" font-family="Times,serif" font-size="14.00" fill="#0058ad">r 102 [1 4 3 2 5 6 7 8 9 10 11 12 13 14 16 15 17 18 19 20 21 23 22 24 27 25 28 29 30 31 26 32 33 34 35 36 37 38 40 41 42 39 43 44 45 46 47 49 48 50 51 52 53 54 55 56 57 58 59 60 61 62 63 64 65 66 67 68 69 70 71 73 74 75 76 77 80 79 81 82 84 83 85 86 87 88 89 90]</text>
<polyline fill="none" stroke="#0058ad" points="1511,-81.5 1511,-110.5 "/>
<text text-anchor="middle" x="1645.5" y="-92.3" font-family="Times,serif" font-size="14.00" fill="#0058ad">r 106 [1 4 2 3 6 7 8 5 9 11 12 10 13 14 15 16]</text>
<polyline fill="none" stroke="#0058ad" points="1780,-81.5 1780,-110.5 "/>
<text text-anchor="middle" x="2380.5" y="-92.3" font-family="Times,serif" font-size="14.00" fill="#0058ad">r 96 [1 2 3 5 6 7 8 9 10 11 12 13 14 15 16 17 19 18 20 21 22 23 24 25 27 28 29 30 31 32 33 34 35 36 37 38 39 40 41 42 43 44 45 46 47 48 49 52 53 54 55 56 57 58 59 60 62 61 63 64 65 67 68 69 70 71 72 73 74 75]</text>
<polyline fill="none" stroke="#0058ad" points="2981,-81.5 2981,-110.5 "/>
<text text-anchor="middle" x="3013" y="-92.3" font-family="Times,serif" font-size="14.00" fill="#0058ad">a 106 17</text>
</g>
<!-- T20805 -->
<g id="node2" class="node">
<title>T20805</title>
<polygon fill="none" stroke="#0058ad" points="1112,-.5 1112,-29.5 3001,-29.5 3001,-.5 1112,-.5"/>
<text text-anchor="middle" x="1246.5" y="-11.3" font-family="Times,serif" font-size="14.00" fill="#0058ad">r 106 [1 4 2 3 6 7 8 5 9 11 12 10 13 14 15 16]</text>
<polyline fill="none" stroke="#0058ad" points="1381,-.5 1381,-29.5 "/>
<text text-anchor="middle" x="1413" y="-11.3" font-family="Times,serif" font-size="14.00" fill="#0058ad">a 102 91</text>
<polyline fill="none" stroke="#0058ad" points="1445,-.5 1445,-29.5 "/>
<text text-anchor="middle" x="2088.5" y="-11.3" font-family="Times,serif" font-size="14.00" fill="#0058ad">r 105 [2 3 4 5 6 1 8 9 10 11 12 13 14 15 16 17 7 18 20 19 21 23 22 24 25 27 28 29 30 26 31 32 33 34 35 36 37 39 40 41 42 43 44 45 46 47 49 51 48 54 50 56 57 58 59 60 61 62 64 65 63 67 68 69 66 70 71 72 73 75 76 74 77 78 79]</text>
<polyline fill="none" stroke="#0058ad" points="2732,-.5 2732,-29.5 "/>
<text text-anchor="middle" x="2866.5" y="-11.3" font-family="Times,serif" font-size="14.00" fill="#0058ad">r 106 [1 4 2 3 6 7 8 5 9 11 12 10 13 14 15 16]</text>
</g>
<!-- T20807&#45;&gt;T20805 -->
<g id="edge1" class="edge">
<title>T20807:f0&#45;&gt;T20805:f1</title>
<path fill="none" stroke="#5b00c0" d="M755.5,-81C755.5,61.864 1380.8115,-164.8602 1411.3443,-40.0425"/>
<polygon fill="#5b00c0" stroke="#5b00c0" points="1414.8337,-40.3346 1412.5,-30 1407.8796,-39.5343 1414.8337,-40.3346"/>
<text text-anchor="middle" x="1414" y="-51.8" font-family="Times,serif" font-size="14.00" fill="#5b00c0">rw</text>
</g>
<!-- T20805&#45;&gt;T20807 -->
<g id="edge2" class="edge">
<title>T20805:f0&#45;&gt;T20807:f3</title>
<path fill="none" stroke="#5b00c0" d="M1246.5,-30C1246.5,-53.4729 2861.6097,-56.2377 3003.5627,-77.8906"/>
<polygon fill="#5b00c0" stroke="#5b00c0" points="3002.9111,-81.354 3013.5,-81 3005.0015,-74.6734 3002.9111,-81.354"/>
<text text-anchor="middle" x="2593" y="-51.8" font-family="Times,serif" font-size="14.00" fill="#5b00c0">rw</text>
</g>
</g>
</svg>
