<?xml version="1.0" encoding="UTF-8" standalone="no"?>
<!DOCTYPE svg PUBLIC "-//W3C//DTD SVG 1.1//EN"
 "http://www.w3.org/Graphics/SVG/1.1/DTD/svg11.dtd">
<!-- Generated by graphviz version 2.40.1 (20161225.0304)
 -->
<!-- Title: a_graph Pages: 1 -->
<svg width="2900pt" height="119pt"
 viewBox="0.00 0.00 2899.50 119.00" xmlns="http://www.w3.org/2000/svg" xmlns:xlink="http://www.w3.org/1999/xlink">
<g id="graph0" class="graph" transform="scale(1 1) rotate(0) translate(4 115)">
<title>a_graph</title>
<polygon fill="#ffffff" stroke="transparent" points="-4,4 -4,-115 2895.5,-115 2895.5,4 -4,4"/>
<!-- T4117 -->
<g id="node1" class="node">
<title>T4117</title>
<polygon fill="none" stroke="#0058ad" points="0,-81.5 0,-110.5 2659,-110.5 2659,-81.5 0,-81.5"/>
<text text-anchor="middle" x="235" y="-92.3" font-family="Times,serif" font-size="14.00" fill="#0058ad">r 24 [1 2 3 4 5 6 7 8 9 10 11 12 13 14 15 16 17 18 19 20 21 24 23 22 25 26 27 28]</text>
<polyline fill="none" stroke="#0058ad" points="470,-81.5 470,-110.5 "/>
<text text-anchor="middle" x="1536" y="-92.3" font-family="Times,serif" font-size="14.00" fill="#0058ad">r 21 [1 2 3 4 5 6 7 8 9 10 12 13 11 15 16 21 23 24 18 19 25 26 27 28 29 30 31 32 33 34 35 36 37 38 39 40 41 42 43 45 46 44 48 49 50 47 51 52 53 54 56 57 55 58 59 60 62 61 63 65 66 64 67 68 69 70 71 72 73 74 75 76 77 78 79 80 81 82 83 84 85 87 88 92 91 94 95 96 97 99 100 101 102 103 104 98 106 105 107 108 109 110 111 112 113 114 115 116 118 119 117 120 121 122 123]</text>
<polyline fill="none" stroke="#0058ad" points="2602,-81.5 2602,-110.5 "/>
<text text-anchor="middle" x="2630.5" y="-92.3" font-family="Times,serif" font-size="14.00" fill="#0058ad">a 26 37</text>
</g>
<!-- T4115 -->
<g id="node2" class="node">
<title>T4115</title>
<polygon fill="none" stroke="#0058ad" points="1611.5,-.5 1611.5,-29.5 2891.5,-29.5 2891.5,-.5 1611.5,-.5"/>
<text text-anchor="middle" x="1915.5" y="-11.3" font-family="Times,serif" font-size="14.00" fill="#0058ad">r 26 [1 2 3 4 5 6 7 9 10 11 12 13 14 8 15 16 17 19 18 20 21 23 25 26 27 24 28 22 29 30 31 32 33 34 35 36]</text>
<polyline fill="none" stroke="#0058ad" points="2219.5,-.5 2219.5,-29.5 "/>
<text text-anchor="middle" x="2251.5" y="-11.3" font-family="Times,serif" font-size="14.00" fill="#0058ad">a 21 124</text>
<polyline fill="none" stroke="#0058ad" points="2283.5,-.5 2283.5,-29.5 "/>
<text text-anchor="middle" x="2587.5" y="-11.3" font-family="Times,serif" font-size="14.00" fill="#0058ad">r 26 [1 2 3 4 5 6 7 9 10 11 12 13 14 8 15 16 17 19 18 20 21 23 25 26 27 24 28 22 29 30 31 32 33 34 35 36]</text>
</g>
<!-- T4117&#45;&gt;T4115 -->
<g id="edge1" class="edge">
<title>T4117:f1&#45;&gt;T4115:f1</title>
<path fill="none" stroke="#5b00c0" d="M1536.5,-81C1536.5,74.7147 2219.7416,-177.4875 2250.4341,-40.0972"/>
<polygon fill="#5b00c0" stroke="#5b00c0" points="2253.9307,-40.3122 2251.5,-30 2246.9694,-39.5773 2253.9307,-40.3122"/>
<text text-anchor="middle" x="2251" y="-51.8" font-family="Times,serif" font-size="14.00" fill="#5b00c0">rw</text>
</g>
<!-- T4115&#45;&gt;T4117 -->
<g id="edge2" class="edge">
<title>T4115:f0&#45;&gt;T4117:f2</title>
<path fill="none" stroke="#5b00c0" d="M1915.5,-30C1915.5,-49.3037 2243.2444,-46.6377 2262.5,-48 2422.7832,-59.3398 2621.7445,77.1471 2630.2197,-70.8366"/>
<polygon fill="#5b00c0" stroke="#5b00c0" points="2626.7255,-71.1003 2630.5,-81 2633.7229,-70.9073 2626.7255,-71.1003"/>
<text text-anchor="middle" x="2637" y="-51.8" font-family="Times,serif" font-size="14.00" fill="#5b00c0">rw</text>
</g>
</g>
</svg>
