<?xml version="1.0" encoding="UTF-8" standalone="no"?>
<!DOCTYPE svg PUBLIC "-//W3C//DTD SVG 1.1//EN"
 "http://www.w3.org/Graphics/SVG/1.1/DTD/svg11.dtd">
<!-- Generated by graphviz version 2.40.1 (20161225.0304)
 -->
<!-- Title: a_graph Pages: 1 -->
<svg width="2301pt" height="200pt"
 viewBox="0.00 0.00 2300.50 200.00" xmlns="http://www.w3.org/2000/svg" xmlns:xlink="http://www.w3.org/1999/xlink">
<g id="graph0" class="graph" transform="scale(1 1) rotate(0) translate(4 196)">
<title>a_graph</title>
<polygon fill="#ffffff" stroke="transparent" points="-4,4 -4,-196 2296.5,-196 2296.5,4 -4,4"/>
<!-- T4441 -->
<g id="node1" class="node">
<title>T4441</title>
<polygon fill="none" stroke="#0058ad" points="1227.5,-162.5 1227.5,-191.5 2292.5,-191.5 2292.5,-162.5 1227.5,-162.5"/>
<text text-anchor="middle" x="1643.5" y="-173.3" font-family="Times,serif" font-size="14.00" fill="#0058ad">r 27 [1 2 3 4 5 6 7 8 9 10 13 14 15 16 18 17 20 19 21 22 23 24 26 27 28 25 33 35 32 37 38 39 36 41 42 43 44 45 46 48 49 50 51 52 47 53 54 55 56]</text>
<polyline fill="none" stroke="#0058ad" points="2059.5,-162.5 2059.5,-191.5 "/>
<text text-anchor="middle" x="2147.5" y="-173.3" font-family="Times,serif" font-size="14.00" fill="#0058ad">r 28 [1 2 3 4 5 6 7 8 9 10 11]</text>
<polyline fill="none" stroke="#0058ad" points="2235.5,-162.5 2235.5,-191.5 "/>
<text text-anchor="middle" x="2264" y="-173.3" font-family="Times,serif" font-size="14.00" fill="#0058ad">a 23 89</text>
</g>
<!-- T4437 -->
<g id="node3" class="node">
<title>T4437</title>
<polygon fill="none" stroke="#0058ad" points="0,-81.5 0,-110.5 1880,-110.5 1880,-81.5 0,-81.5"/>
<text text-anchor="middle" x="416" y="-92.3" font-family="Times,serif" font-size="14.00" fill="#0058ad">r 27 [1 2 3 4 5 6 7 8 9 10 13 14 15 16 18 17 20 19 21 22 23 24 26 27 28 25 33 35 32 37 38 39 36 41 42 43 44 45 46 48 49 50 51 52 47 53 54 55 56]</text>
<polyline fill="none" stroke="#0058ad" points="832,-81.5 832,-110.5 "/>
<text text-anchor="middle" x="911.5" y="-92.3" font-family="Times,serif" font-size="14.00" fill="#0058ad">r 28 [1 2 3 4 5 6 7 8 9 10]</text>
<polyline fill="none" stroke="#0058ad" points="991,-81.5 991,-110.5 "/>
<text text-anchor="middle" x="1407" y="-92.3" font-family="Times,serif" font-size="14.00" fill="#0058ad">r 27 [1 2 3 4 5 6 7 8 9 10 13 14 15 16 18 17 20 19 21 22 23 24 26 27 28 25 33 35 32 37 38 39 36 41 42 43 44 45 46 48 49 50 51 52 47 53 54 55 56]</text>
<polyline fill="none" stroke="#0058ad" points="1823,-81.5 1823,-110.5 "/>
<text text-anchor="middle" x="1851.5" y="-92.3" font-family="Times,serif" font-size="14.00" fill="#0058ad">a 27 57</text>
</g>
<!-- T4441&#45;&gt;T4437 -->
<g id="edge1" class="edge">
<title>T4441:f0&#45;&gt;T4437:f3</title>
<path fill="none" stroke="#5b00c0" d="M1643,-162C1643,-70.1205 1835.9908,-196.0189 1851.0682,-121.1533"/>
<polygon fill="#5b00c0" stroke="#5b00c0" points="1854.5714,-121.278 1852,-111 1847.6007,-120.6383 1854.5714,-121.278"/>
<text text-anchor="middle" x="1855.5" y="-132.8" font-family="Times,serif" font-size="14.00" fill="#5b00c0">rw</text>
</g>
<!-- T4435 -->
<g id="node2" class="node">
<title>T4435</title>
<polygon fill="none" stroke="#0058ad" points="1642.5,-.5 1642.5,-29.5 1915.5,-29.5 1915.5,-.5 1642.5,-.5"/>
<text text-anchor="middle" x="1722" y="-11.3" font-family="Times,serif" font-size="14.00" fill="#0058ad">r 28 [1 2 3 4 5 6 7 8 9 10]</text>
<polyline fill="none" stroke="#0058ad" points="1801.5,-.5 1801.5,-29.5 "/>
<text text-anchor="middle" x="1830" y="-11.3" font-family="Times,serif" font-size="14.00" fill="#0058ad">a 28 11</text>
<polyline fill="none" stroke="#0058ad" points="1858.5,-.5 1858.5,-29.5 "/>
<text text-anchor="middle" x="1887" y="-11.3" font-family="Times,serif" font-size="14.00" fill="#0058ad">a 23 88</text>
</g>
<!-- T4435&#45;&gt;T4441 -->
<g id="edge2" class="edge">
<title>T4435:f2&#45;&gt;T4441:f2</title>
<path fill="none" stroke="#c02700" d="M1916,-15C1996.5065,-15 2242.6426,-72.9843 2262.698,-151.7786"/>
<polygon fill="#c02700" stroke="#c02700" points="2259.2644,-152.5224 2264,-162 2266.2083,-151.6379 2259.2644,-152.5224"/>
<text text-anchor="middle" x="2239" y="-92.3" font-family="Times,serif" font-size="14.00" fill="#c02700">ww</text>
</g>
<!-- T4437&#45;&gt;T4435 -->
<g id="edge3" class="edge">
<title>T4437:f1&#45;&gt;T4435:f1</title>
<path fill="none" stroke="#5b00c0" d="M911,-81C911,120.041 1798.8573,-222.4619 1829.204,-39.9992"/>
<polygon fill="#5b00c0" stroke="#5b00c0" points="1832.6953,-40.2463 1830,-30 1825.7173,-39.6907 1832.6953,-40.2463"/>
<text text-anchor="middle" x="1832.5" y="-51.8" font-family="Times,serif" font-size="14.00" fill="#5b00c0">rw</text>
</g>
</g>
</svg>
