<?xml version="1.0" encoding="UTF-8" standalone="no"?>
<!DOCTYPE svg PUBLIC "-//W3C//DTD SVG 1.1//EN"
 "http://www.w3.org/Graphics/SVG/1.1/DTD/svg11.dtd">
<!-- Generated by graphviz version 2.40.1 (20161225.0304)
 -->
<!-- Title: a_graph Pages: 1 -->
<svg width="2752pt" height="119pt"
 viewBox="0.00 0.00 2752.00 119.00" xmlns="http://www.w3.org/2000/svg" xmlns:xlink="http://www.w3.org/1999/xlink">
<g id="graph0" class="graph" transform="scale(1 1) rotate(0) translate(4 115)">
<title>a_graph</title>
<polygon fill="#ffffff" stroke="transparent" points="-4,4 -4,-115 2748,-115 2748,4 -4,4"/>
<!-- T21577 -->
<g id="node1" class="node">
<title>T21577</title>
<polygon fill="none" stroke="#0058ad" points="0,-81.5 0,-110.5 2519,-110.5 2519,-81.5 0,-81.5"/>
<text text-anchor="middle" x="536.5" y="-92.3" font-family="Times,serif" font-size="14.00" fill="#0058ad">r 68 [1 2 3 4 5 6 7 8 9 10 11 12 13 14 15 16 17 18 19 20 21 22 23 24 25 26 27 28 29 30 31 32 54 56 57 58 59 60 61 62 63 64 65 66 67 68 69 70 71 73 72 74 75 76 77 78 79 80 81 82 83 84 85]</text>
<polyline fill="none" stroke="#0058ad" points="1073,-81.5 1073,-110.5 "/>
<text text-anchor="middle" x="1108.5" y="-92.3" font-family="Times,serif" font-size="14.00" fill="#0058ad">a 109 103</text>
<polyline fill="none" stroke="#0058ad" points="1144,-81.5 1144,-110.5 "/>
<text text-anchor="middle" x="1796" y="-92.3" font-family="Times,serif" font-size="14.00" fill="#0058ad">r 107 [1 2 3 4 5 6 7 8 9 10 15 16 19 20 21 23 25 26 27 28 29 31 32 33 34 35 36 37 38 39 30 40 41 42 45 43 44 46 47 48 49 50 51 52 53 55 56 54 57 59 60 61 58 62 63 64 65 66 67 68 70 69 71 72 73 74 76 75 77 78 79 80 81 82 83 84]</text>
<polyline fill="none" stroke="#0058ad" points="2448,-81.5 2448,-110.5 "/>
<text text-anchor="middle" x="2483.5" y="-92.3" font-family="Times,serif" font-size="14.00" fill="#0058ad">a 109 104</text>
</g>
<!-- T21579 -->
<g id="node2" class="node">
<title>T21579</title>
<polygon fill="none" stroke="#0058ad" points="957,-.5 957,-29.5 2744,-29.5 2744,-.5 957,-.5"/>
<text text-anchor="middle" x="989" y="-11.3" font-family="Times,serif" font-size="14.00" fill="#0058ad">a 107 85</text>
<polyline fill="none" stroke="#0058ad" points="1021,-.5 1021,-29.5 "/>
<text text-anchor="middle" x="1053" y="-11.3" font-family="Times,serif" font-size="14.00" fill="#0058ad">a 108 42</text>
<polyline fill="none" stroke="#0058ad" points="1085,-.5 1085,-29.5 "/>
<text text-anchor="middle" x="1914.5" y="-11.3" font-family="Times,serif" font-size="14.00" fill="#0058ad">r 109 [1 4 5 6 7 8 9 10 11 12 16 15 17 20 21 22 23 24 25 26 28 27 29 30 31 32 33 34 35 36 37 38 39 40 41 42 45 46 47 48 43 44 50 51 53 52 54 55 49 56 57 60 61 58 59 62 63 64 65 67 66 70 71 68 69 72 73 74 75 76 77 78 79 80 81 83 82 84 85 86 87 88 89 90 91 92 93 94 95 96 97 98 100 101 99]</text>
</g>
<!-- T21577&#45;&gt;T21579 -->
<g id="edge1" class="edge">
<title>T21577:f2&#45;&gt;T21579:f0</title>
<path fill="none" stroke="#5b00c0" d="M1796.5,-81C1796.5,31.9051 1402.1856,-55.0366 1289.5,-48 1274.5439,-47.0661 1045.4892,-46.8044 997.3393,-34.7686"/>
<polygon fill="#5b00c0" stroke="#5b00c0" points="998.9628,-31.6677 988.5,-30 995.6392,-37.8283 998.9628,-31.6677"/>
<text text-anchor="middle" x="1799" y="-51.8" font-family="Times,serif" font-size="14.00" fill="#5b00c0">rw</text>
</g>
<!-- T21579&#45;&gt;T21577 -->
<g id="edge2" class="edge">
<title>T21579:f2&#45;&gt;T21577:f1</title>
<path fill="none" stroke="#5b00c0" d="M1914.5,-30C1914.5,-47.8959 1288.2788,-45.9563 1270.5,-48 1201.209,-55.9651 1117.498,-12.337 1109.1748,-70.729"/>
<polygon fill="#5b00c0" stroke="#5b00c0" points="1105.6632,-70.792 1108.5,-81 1112.6481,-71.251 1105.6632,-70.792"/>
<text text-anchor="middle" x="1278" y="-51.8" font-family="Times,serif" font-size="14.00" fill="#5b00c0">rw</text>
</g>
</g>
</svg>
