<?xml version="1.0" encoding="UTF-8" standalone="no"?>
<!DOCTYPE svg PUBLIC "-//W3C//DTD SVG 1.1//EN"
 "http://www.w3.org/Graphics/SVG/1.1/DTD/svg11.dtd">
<!-- Generated by graphviz version 2.40.1 (20161225.0304)
 -->
<!-- Title: a_graph Pages: 1 -->
<svg width="2254pt" height="281pt"
 viewBox="0.00 0.00 2254.00 281.00" xmlns="http://www.w3.org/2000/svg" xmlns:xlink="http://www.w3.org/1999/xlink">
<g id="graph0" class="graph" transform="scale(1 1) rotate(0) translate(4 277)">
<title>a_graph</title>
<polygon fill="#ffffff" stroke="transparent" points="-4,4 -4,-277 2250,-277 2250,4 -4,4"/>
<!-- T4587 -->
<g id="node1" class="node">
<title>T4587</title>
<polygon fill="none" stroke="#0058ad" points="0,-243.5 0,-272.5 1552,-272.5 1552,-243.5 0,-243.5"/>
<text text-anchor="middle" x="32" y="-254.3" font-family="Times,serif" font-size="14.00" fill="#0058ad">a 23 101</text>
<polyline fill="none" stroke="#0058ad" points="64,-243.5 64,-272.5 "/>
<text text-anchor="middle" x="92.5" y="-254.3" font-family="Times,serif" font-size="14.00" fill="#0058ad">a 28 40</text>
<polyline fill="none" stroke="#0058ad" points="121,-243.5 121,-272.5 "/>
<text text-anchor="middle" x="804.5" y="-254.3" font-family="Times,serif" font-size="14.00" fill="#0058ad">r 27 [1 2 3 4 5 6 7 8 9 10 13 14 15 16 18 17 20 19 21 22 23 24 26 27 28 25 33 35 32 37 38 39 36 41 42 43 44 45 46 48 49 50 51 52 47 53 54 55 56 57 58 59 60 61 62 63 64 65 66 67 68 69 70 71 72 73 74 75 76 77 79 80 81 82 83 84 85 78 87 88]</text>
<polyline fill="none" stroke="#0058ad" points="1488,-243.5 1488,-272.5 "/>
<text text-anchor="middle" x="1520" y="-254.3" font-family="Times,serif" font-size="14.00" fill="#0058ad">a 23 102</text>
</g>
<!-- T4583 -->
<g id="node4" class="node">
<title>T4583</title>
<polygon fill="none" stroke="#0058ad" points="130,-162.5 130,-191.5 2246,-191.5 2246,-162.5 130,-162.5"/>
<text text-anchor="middle" x="813.5" y="-173.3" font-family="Times,serif" font-size="14.00" fill="#0058ad">r 27 [1 2 3 4 5 6 7 8 9 10 13 14 15 16 18 17 20 19 21 22 23 24 26 27 28 25 33 35 32 37 38 39 36 41 42 43 44 45 46 48 49 50 51 52 47 53 54 55 56 57 58 59 60 61 62 63 64 65 66 67 68 69 70 71 72 73 74 75 76 77 79 80 81 82 83 84 85 78 87 88]</text>
<polyline fill="none" stroke="#0058ad" points="1497,-162.5 1497,-191.5 "/>
<text text-anchor="middle" x="1818" y="-173.3" font-family="Times,serif" font-size="14.00" fill="#0058ad">r 28 [1 2 3 4 5 6 7 8 9 10 11 12 13 14 15 16 17 18 20 21 22 23 24 25 19 26 27 28 29 30 31 32 33 34 35 37 36 38]</text>
<polyline fill="none" stroke="#0058ad" points="2139,-162.5 2139,-191.5 "/>
<text text-anchor="middle" x="2164" y="-173.3" font-family="Times,serif" font-size="14.00" fill="#0058ad">a 4 47</text>
<polyline fill="none" stroke="#0058ad" points="2189,-162.5 2189,-191.5 "/>
<text text-anchor="middle" x="2217.5" y="-173.3" font-family="Times,serif" font-size="14.00" fill="#0058ad">a 27 86</text>
</g>
<!-- T4587&#45;&gt;T4583 -->
<g id="edge1" class="edge">
<title>T4587:f2&#45;&gt;T4583:f3</title>
<path fill="none" stroke="#5b00c0" d="M805,-243C805,-89.4264 2155.2382,-337.4906 2215.8935,-201.9594"/>
<polygon fill="#5b00c0" stroke="#5b00c0" points="2219.3548,-202.5078 2218,-192 2212.5063,-201.0593 2219.3548,-202.5078"/>
<text text-anchor="middle" x="2210.5" y="-213.8" font-family="Times,serif" font-size="14.00" fill="#5b00c0">rw</text>
</g>
<!-- T4581 -->
<g id="node2" class="node">
<title>T4581</title>
<polygon fill="none" stroke="#0058ad" points="74,-81.5 74,-110.5 1780,-110.5 1780,-81.5 74,-81.5"/>
<text text-anchor="middle" x="898.5" y="-92.3" font-family="Times,serif" font-size="14.00" fill="#0058ad">r 23 [1 2 3 4 5 6 9 7 8 10 11 12 13 15 14 16 17 18 19 20 23 21 22 24 25 26 27 28 29 30 31 32 33 34 35 36 38 39 42 43 45 44 47 48 46 49 50 51 52 54 53 55 56 57 58 59 60 61 62 63 64 65 66 67 68 69 70 71 72 73 74 75 76 78 79 80 81 82 83 84 86 85 87 88 89 90 91 93 94 95 96 92 97 98 99 100]</text>
<polyline fill="none" stroke="#0058ad" points="1723,-81.5 1723,-110.5 "/>
<text text-anchor="middle" x="1751.5" y="-92.3" font-family="Times,serif" font-size="14.00" fill="#0058ad">a 28 39</text>
</g>
<!-- T4581&#45;&gt;T4587 -->
<g id="edge2" class="edge">
<title>T4581:f1&#45;&gt;T4587:f1</title>
<path fill="none" stroke="#c02700" d="M1752,-111C1752,-202.766 168.4243,-99.7509 101,-162 76.9855,-184.1713 88.9816,-202.79 91.5537,-232.8274"/>
<polygon fill="#c02700" stroke="#c02700" points="88.0649,-233.1631 92,-243 95.0582,-232.8562 88.0649,-233.1631"/>
<text text-anchor="middle" x="111" y="-173.3" font-family="Times,serif" font-size="14.00" fill="#c02700">ww</text>
</g>
<!-- T4585 -->
<g id="node3" class="node">
<title>T4585</title>
<polygon fill="none" stroke="#0058ad" points="151,-.5 151,-29.5 1043,-29.5 1043,-.5 151,-.5"/>
<text text-anchor="middle" x="480.5" y="-11.3" font-family="Times,serif" font-size="14.00" fill="#0058ad">r 28 [1 2 3 4 5 6 7 8 9 10 11 12 13 14 15 16 17 18 20 21 22 23 24 25 19 26 27 28 29 30 31 32 33 34 35 37 36 38 39]</text>
<polyline fill="none" stroke="#0058ad" points="810,-.5 810,-29.5 "/>
<text text-anchor="middle" x="838.5" y="-11.3" font-family="Times,serif" font-size="14.00" fill="#0058ad">a 24 54</text>
<polyline fill="none" stroke="#0058ad" points="867,-.5 867,-29.5 "/>
<text text-anchor="middle" x="955" y="-11.3" font-family="Times,serif" font-size="14.00" fill="#0058ad">r 3 [1 2 9 10 11 12 13 14 15]</text>
</g>
<!-- T4581&#45;&gt;T4585 -->
<g id="edge3" class="edge">
<title>T4581:f1&#45;&gt;T4585:f0</title>
<path fill="none" stroke="#c000a5" d="M1752,-81C1752,56.8555 543.7737,-159.9117 482.4185,-40.0644"/>
<polygon fill="#c000a5" stroke="#c000a5" points="485.7397,-38.9054 480,-30 478.9334,-40.541 485.7397,-38.9054"/>
<text text-anchor="middle" x="1745.5" y="-51.8" font-family="Times,serif" font-size="14.00" fill="#c000a5">wr</text>
</g>
<!-- T4585&#45;&gt;T4587 -->
<g id="edge4" class="edge">
<title>T4585:f0&#45;&gt;T4587:f1</title>
<path fill="none" stroke="#5b00c0" d="M151,-15C102.8193,-15 86.3082,-37.7872 65,-81 59.1032,-92.9585 63.8436,-97.7169 65,-111 69.4613,-162.2467 71.1661,-175.4546 85,-225 86.0821,-228.8754 87.6878,-231.1866 89.0885,-233.4326"/>
<polygon fill="#5b00c0" stroke="#5b00c0" points="85.7402,-234.4522 92,-243 92.4369,-232.4142 85.7402,-234.4522"/>
<text text-anchor="middle" x="76.5" y="-132.8" font-family="Times,serif" font-size="14.00" fill="#5b00c0">rw</text>
</g>
<!-- T4583&#45;&gt;T4581 -->
<g id="edge5" class="edge">
<title>T4583:f1&#45;&gt;T4581:f1</title>
<path fill="none" stroke="#5b00c0" d="M1818,-162C1818,-131.8542 1814.7065,-103.0536 1790.074,-97.114"/>
<polygon fill="#5b00c0" stroke="#5b00c0" points="1790.3241,-93.6205 1780,-96 1789.5547,-100.578 1790.3241,-93.6205"/>
<text text-anchor="middle" x="1824.5" y="-132.8" font-family="Times,serif" font-size="14.00" fill="#5b00c0">rw</text>
</g>
</g>
</svg>
