<?xml version="1.0" encoding="UTF-8" standalone="no"?>
<!DOCTYPE svg PUBLIC "-//W3C//DTD SVG 1.1//EN"
 "http://www.w3.org/Graphics/SVG/1.1/DTD/svg11.dtd">
<!-- Generated by graphviz version 2.40.1 (20161225.0304)
 -->
<!-- Title: a_graph Pages: 1 -->
<svg width="2356pt" height="119pt"
 viewBox="0.00 0.00 2356.00 119.00" xmlns="http://www.w3.org/2000/svg" xmlns:xlink="http://www.w3.org/1999/xlink">
<g id="graph0" class="graph" transform="scale(1 1) rotate(0) translate(4 115)">
<title>a_graph</title>
<polygon fill="#ffffff" stroke="transparent" points="-4,4 -4,-115 2352,-115 2352,4 -4,4"/>
<!-- T3365 -->
<g id="node1" class="node">
<title>T3365</title>
<polygon fill="none" stroke="#0058ad" points="0,-81.5 0,-110.5 2348,-110.5 2348,-81.5 0,-81.5"/>
<text text-anchor="middle" x="267.5" y="-92.3" font-family="Times,serif" font-size="14.00" fill="#0058ad">r 22 [2 3 1 6 7 10 12 11 13 14 15 16 8 9 17 18 19 21 23 24 25 20 29 30 32 33 34 35 28 36 40]</text>
<polyline fill="none" stroke="#0058ad" points="535,-81.5 535,-110.5 "/>
<text text-anchor="middle" x="563.5" y="-92.3" font-family="Times,serif" font-size="14.00" fill="#0058ad">a 21 25</text>
<polyline fill="none" stroke="#0058ad" points="592,-81.5 592,-110.5 "/>
<text text-anchor="middle" x="1295.5" y="-92.3" font-family="Times,serif" font-size="14.00" fill="#0058ad">r 15 [44 43 47 49 51 52 53 56 55 54 57 59 58 60 61 62 63 64 65 66 67 68 69 70 71 72 73 74 75 76 77 79 78 80 81 83 84 85 86 89 88 90 91 92 93 94 95 96 98 97 99 100 101 102 103 104 105 106 108 107 109 110 111 113 112 114 115 116 118 121 122]</text>
<polyline fill="none" stroke="#0058ad" points="1999,-81.5 1999,-110.5 "/>
<text text-anchor="middle" x="2173.5" y="-92.3" font-family="Times,serif" font-size="14.00" fill="#0058ad">r 21 [1 2 3 4 5 6 7 8 9 10 12 13 11 15 16 21 23 24 18 19 25]</text>
</g>
<!-- T3368 -->
<g id="node2" class="node">
<title>T3368</title>
<polygon fill="none" stroke="#0058ad" points="266.5,-.5 266.5,-29.5 1281.5,-29.5 1281.5,-.5 266.5,-.5"/>
<text text-anchor="middle" x="295" y="-11.3" font-family="Times,serif" font-size="14.00" fill="#0058ad">a 22 41</text>
<polyline fill="none" stroke="#0058ad" points="323.5,-.5 323.5,-29.5 "/>
<text text-anchor="middle" x="352" y="-11.3" font-family="Times,serif" font-size="14.00" fill="#0058ad">a 22 42</text>
<polyline fill="none" stroke="#0058ad" points="380.5,-.5 380.5,-29.5 "/>
<text text-anchor="middle" x="546.5" y="-11.3" font-family="Times,serif" font-size="14.00" fill="#0058ad">r 21 [1 2 3 4 5 6 7 8 9 10 12 13 11 15 16 21 23 24 18 19]</text>
<polyline fill="none" stroke="#0058ad" points="712.5,-.5 712.5,-29.5 "/>
<text text-anchor="middle" x="997" y="-11.3" font-family="Times,serif" font-size="14.00" fill="#0058ad">r 22 [2 3 1 6 7 10 12 11 13 14 15 16 8 9 17 18 19 21 23 24 25 20 29 30 32 33 34 35 28 36 40 41 42]</text>
</g>
<!-- T3365&#45;&gt;T3368 -->
<g id="edge1" class="edge">
<title>T3365:f0&#45;&gt;T3368:f0</title>
<path fill="none" stroke="#5b00c0" d="M267,-81C267,-58.9802 287.3044,-56.231 293.3323,-39.9322"/>
<polygon fill="#5b00c0" stroke="#5b00c0" points="296.7957,-40.4415 295,-30 289.8924,-39.2824 296.7957,-40.4415"/>
<text text-anchor="middle" x="296.5" y="-51.8" font-family="Times,serif" font-size="14.00" fill="#5b00c0">rw</text>
</g>
<!-- T3368&#45;&gt;T3365 -->
<g id="edge2" class="edge">
<title>T3368:f2&#45;&gt;T3365:f1</title>
<path fill="none" stroke="#5b00c0" d="M546,-30C546,-49.9729 557.8795,-55.4959 561.7774,-70.7274"/>
<polygon fill="#5b00c0" stroke="#5b00c0" points="558.3426,-71.4837 563,-81 565.2936,-70.6564 558.3426,-71.4837"/>
<text text-anchor="middle" x="566.5" y="-51.8" font-family="Times,serif" font-size="14.00" fill="#5b00c0">rw</text>
</g>
</g>
</svg>
