<?xml version="1.0" encoding="UTF-8" standalone="no"?>
<!DOCTYPE svg PUBLIC "-//W3C//DTD SVG 1.1//EN"
 "http://www.w3.org/Graphics/SVG/1.1/DTD/svg11.dtd">
<!-- Generated by graphviz version 2.40.1 (20161225.0304)
 -->
<!-- Title: a_graph Pages: 1 -->
<svg width="4189pt" height="119pt"
 viewBox="0.00 0.00 4189.00 119.00" xmlns="http://www.w3.org/2000/svg" xmlns:xlink="http://www.w3.org/1999/xlink">
<g id="graph0" class="graph" transform="scale(1 1) rotate(0) translate(4 115)">
<title>a_graph</title>
<polygon fill="#ffffff" stroke="transparent" points="-4,4 -4,-115 4185,-115 4185,4 -4,4"/>
<!-- T11413 -->
<g id="node1" class="node">
<title>T11413</title>
<polygon fill="none" stroke="#0058ad" points="780,-81.5 780,-110.5 1979,-110.5 1979,-81.5 780,-81.5"/>
<text text-anchor="middle" x="808.5" y="-92.3" font-family="Times,serif" font-size="14.00" fill="#0058ad">a 60 41</text>
<polyline fill="none" stroke="#0058ad" points="837,-81.5 837,-110.5 "/>
<text text-anchor="middle" x="865.5" y="-92.3" font-family="Times,serif" font-size="14.00" fill="#0058ad">a 59 98</text>
<polyline fill="none" stroke="#0058ad" points="894,-81.5 894,-110.5 "/>
<text text-anchor="middle" x="1408" y="-92.3" font-family="Times,serif" font-size="14.00" fill="#0058ad">r 53 [1 2 3 4 5 6 7 8 10 11 12 13 14 15 16 17 18 19 20 21 23 22 24 25 26 27 28 29 30 31 32 33 34 35 36 37 38 39 42 43 46 47 48 49 50 51 52 53 54 55 56 57 59 58 60 61 62 63 64 66]</text>
<polyline fill="none" stroke="#0058ad" points="1922,-81.5 1922,-110.5 "/>
<text text-anchor="middle" x="1950.5" y="-92.3" font-family="Times,serif" font-size="14.00" fill="#0058ad">a 4 115</text>
</g>
<!-- T11417 -->
<g id="node2" class="node">
<title>T11417</title>
<polygon fill="none" stroke="#0058ad" points="0,-.5 0,-29.5 4181,-29.5 4181,-.5 0,-.5"/>
<text text-anchor="middle" x="769.5" y="-11.3" font-family="Times,serif" font-size="14.00" fill="#0058ad">r 59 [1 2 3 4 5 6 7 9 8 10 11 12 13 14 15 16 17 18 19 20 21 22 23 25 24 26 27 28 29 30 31 32 33 34 36 37 38 35 39 40 41 42 44 46 45 43 47 48 49 50 51 52 53 56 54 55 57 59 60 58 61 62 63 64 65 67 66 68 69 70 71 73 72 74 75 76 77 78 79 83 80 87 88 90 92 91 93 94 95 96]</text>
<polyline fill="none" stroke="#0058ad" points="1539,-.5 1539,-29.5 "/>
<text text-anchor="middle" x="1567.5" y="-11.3" font-family="Times,serif" font-size="14.00" fill="#0058ad">a 53 67</text>
<polyline fill="none" stroke="#0058ad" points="1596,-.5 1596,-29.5 "/>
<text text-anchor="middle" x="2119" y="-11.3" font-family="Times,serif" font-size="14.00" fill="#0058ad">r 53 [1 2 3 4 5 6 7 8 10 11 12 13 14 15 16 17 18 19 20 21 23 22 24 25 26 27 28 29 30 31 32 33 34 35 36 37 38 39 42 43 46 47 48 49 50 51 52 53 54 55 56 57 59 58 60 61 62 63 64 66 67]</text>
<polyline fill="none" stroke="#0058ad" points="2642,-.5 2642,-29.5 "/>
<text text-anchor="middle" x="3411.5" y="-11.3" font-family="Times,serif" font-size="14.00" fill="#0058ad">r 59 [1 2 3 4 5 6 7 9 8 10 11 12 13 14 15 16 17 18 19 20 21 22 23 25 24 26 27 28 29 30 31 32 33 34 36 37 38 35 39 40 41 42 44 46 45 43 47 48 49 50 51 52 53 56 54 55 57 59 60 58 61 62 63 64 65 67 66 68 69 70 71 73 72 74 75 76 77 78 79 83 80 87 88 90 92 91 93 94 95 96]</text>
</g>
<!-- T11413&#45;&gt;T11417 -->
<g id="edge1" class="edge">
<title>T11413:f2&#45;&gt;T11417:f1</title>
<path fill="none" stroke="#5b00c0" d="M1408.5,-81C1408.5,-10.5557 1551.7616,-94.7607 1566.3116,-40.023"/>
<polygon fill="#5b00c0" stroke="#5b00c0" points="1569.7981,-40.3426 1567.5,-30 1562.8468,-39.5183 1569.7981,-40.3426"/>
<text text-anchor="middle" x="1568" y="-51.8" font-family="Times,serif" font-size="14.00" fill="#5b00c0">rw</text>
</g>
<!-- T11417&#45;&gt;T11413 -->
<g id="edge2" class="edge">
<title>T11417:f0&#45;&gt;T11413:f1</title>
<path fill="none" stroke="#5b00c0" d="M769.5,-30C769.5,-74.3505 850.396,-39.5398 863.668,-70.903"/>
<polygon fill="#5b00c0" stroke="#5b00c0" points="860.2709,-71.7855 865.5,-81 867.1584,-70.5358 860.2709,-71.7855"/>
<text text-anchor="middle" x="865" y="-51.8" font-family="Times,serif" font-size="14.00" fill="#5b00c0">rw</text>
</g>
</g>
</svg>
