<?xml version="1.0" encoding="UTF-8" standalone="no"?>
<!DOCTYPE svg PUBLIC "-//W3C//DTD SVG 1.1//EN"
 "http://www.w3.org/Graphics/SVG/1.1/DTD/svg11.dtd">
<!-- Generated by graphviz version 2.40.1 (20161225.0304)
 -->
<!-- Title: a_graph Pages: 1 -->
<svg width="2173pt" height="119pt"
 viewBox="0.00 0.00 2173.00 119.00" xmlns="http://www.w3.org/2000/svg" xmlns:xlink="http://www.w3.org/1999/xlink">
<g id="graph0" class="graph" transform="scale(1 1) rotate(0) translate(4 115)">
<title>a_graph</title>
<polygon fill="#ffffff" stroke="transparent" points="-4,4 -4,-115 2169,-115 2169,4 -4,4"/>
<!-- T3121 -->
<g id="node1" class="node">
<title>T3121</title>
<polygon fill="none" stroke="#0058ad" points="154.5,-81.5 154.5,-110.5 1752.5,-110.5 1752.5,-81.5 154.5,-81.5"/>
<text text-anchor="middle" x="186.5" y="-92.3" font-family="Times,serif" font-size="14.00" fill="#0058ad">a 18 123</text>
<polyline fill="none" stroke="#0058ad" points="218.5,-81.5 218.5,-110.5 "/>
<text text-anchor="middle" x="953.5" y="-92.3" font-family="Times,serif" font-size="14.00" fill="#0058ad">r 20 [1 2 3 4 5 6 7 9 8 11 10 12 14 13 15 18 16 17 19 20 21 22 23 24 25 27 28 26 29 31 32 33 34 35 36 37 38 39 40 41 42 43 44 30 45 46 47 49 51 52 50 48 55 56 53 54 57 59 58 60 61 65 62 63 64 68 66 67 70 69 71 72 74 75 76 77 79 80 78 73 84 81 82 83 85 86]</text>
<polyline fill="none" stroke="#0058ad" points="1688.5,-81.5 1688.5,-110.5 "/>
<text text-anchor="middle" x="1720.5" y="-92.3" font-family="Times,serif" font-size="14.00" fill="#0058ad">a 18 124</text>
</g>
<!-- T3123 -->
<g id="node2" class="node">
<title>T3123</title>
<polygon fill="none" stroke="#0058ad" points="0,-.5 0,-29.5 2165,-29.5 2165,-.5 0,-.5"/>
<text text-anchor="middle" x="28.5" y="-11.3" font-family="Times,serif" font-size="14.00" fill="#0058ad">a 20 87</text>
<polyline fill="none" stroke="#0058ad" points="57,-.5 57,-29.5 "/>
<text text-anchor="middle" x="1111" y="-11.3" font-family="Times,serif" font-size="14.00" fill="#0058ad">r 18 [1 2 4 3 5 6 7 8 9 10 11 12 14 15 16 13 17 18 19 20 21 22 23 24 25 26 27 28 29 30 31 32 33 34 35 36 37 38 39 40 41 43 45 46 47 44 49 48 50 51 53 54 55 57 64 65 63 67 68 69 66 70 71 72 73 74 76 75 77 78 79 80 81 82 83 84 86 87 88 89 90 91 92 93 94 95 96 85 97 98 99 100 101 102 103 104 105 106 107 108 109 110 111 114 115 117 118 119 112 113 120 121 116 122]</text>
</g>
<!-- T3121&#45;&gt;T3123 -->
<g id="edge1" class="edge">
<title>T3121:f1&#45;&gt;T3123:f0</title>
<path fill="none" stroke="#5b00c0" d="M953.5,-81C953.5,44.7695 514.0852,-54.807 388.5,-48 370.418,-47.0199 90.648,-49.4683 37.2639,-35.1377"/>
<polygon fill="#5b00c0" stroke="#5b00c0" points="38.897,-32.038 28.5,-30 35.3568,-38.0768 38.897,-32.038"/>
<text text-anchor="middle" x="956" y="-51.8" font-family="Times,serif" font-size="14.00" fill="#5b00c0">rw</text>
</g>
<!-- T3123&#45;&gt;T3121 -->
<g id="edge2" class="edge">
<title>T3123:f1&#45;&gt;T3121:f0</title>
<path fill="none" stroke="#5b00c0" d="M1111.5,-30C1111.5,-50.6172 390.0114,-45.9144 369.5,-48 290.9723,-55.9847 195.5169,-3.4323 187.0993,-70.695"/>
<polygon fill="#5b00c0" stroke="#5b00c0" points="183.5866,-70.8136 186.5,-81 190.5748,-71.2201 183.5866,-70.8136"/>
<text text-anchor="middle" x="377" y="-51.8" font-family="Times,serif" font-size="14.00" fill="#5b00c0">rw</text>
</g>
</g>
</svg>
