<?xml version="1.0" encoding="UTF-8" standalone="no"?>
<!DOCTYPE svg PUBLIC "-//W3C//DTD SVG 1.1//EN"
 "http://www.w3.org/Graphics/SVG/1.1/DTD/svg11.dtd">
<!-- Generated by graphviz version 2.40.1 (20161225.0304)
 -->
<!-- Title: a_graph Pages: 1 -->
<svg width="1055pt" height="119pt"
 viewBox="0.00 0.00 1055.00 119.00" xmlns="http://www.w3.org/2000/svg" xmlns:xlink="http://www.w3.org/1999/xlink">
<g id="graph0" class="graph" transform="scale(1 1) rotate(0) translate(4 115)">
<title>a_graph</title>
<polygon fill="#ffffff" stroke="transparent" points="-4,4 -4,-115 1051,-115 1051,4 -4,4"/>
<!-- T6641 -->
<g id="node1" class="node">
<title>T6641</title>
<polygon fill="none" stroke="#0058ad" points="438,-81.5 438,-110.5 933,-110.5 933,-81.5 438,-81.5"/>
<text text-anchor="middle" x="482.5" y="-92.3" font-family="Times,serif" font-size="14.00" fill="#0058ad">r 38 [1 2 3 4]</text>
<polyline fill="none" stroke="#0058ad" points="527,-81.5 527,-110.5 "/>
<text text-anchor="middle" x="701.5" y="-92.3" font-family="Times,serif" font-size="14.00" fill="#0058ad">r 37 [1 2 3 5 7 8 6 4 10 9 11 13 12 14 15 16 18 19 17 22 21]</text>
<polyline fill="none" stroke="#0058ad" points="876,-81.5 876,-110.5 "/>
<text text-anchor="middle" x="904.5" y="-92.3" font-family="Times,serif" font-size="14.00" fill="#0058ad">a 36 42</text>
</g>
<!-- T6639 -->
<g id="node2" class="node">
<title>T6639</title>
<polygon fill="none" stroke="#0058ad" points="0,-.5 0,-29.5 1047,-29.5 1047,-.5 0,-.5"/>
<text text-anchor="middle" x="174.5" y="-11.3" font-family="Times,serif" font-size="14.00" fill="#0058ad">r 37 [1 2 3 5 7 8 6 4 10 9 11 13 12 14 15 16 18 19 17 22 21]</text>
<polyline fill="none" stroke="#0058ad" points="349,-.5 349,-29.5 "/>
<text text-anchor="middle" x="669.5" y="-11.3" font-family="Times,serif" font-size="14.00" fill="#0058ad">r 36 [1 2 6 9 10 11 13 14 12 15 16 17 18 19 20 21 22 23 24 25 26 27 28 29 30 31 32 33 34 35 36 37 38 39 41 40]</text>
<polyline fill="none" stroke="#0058ad" points="990,-.5 990,-29.5 "/>
<text text-anchor="middle" x="1018.5" y="-11.3" font-family="Times,serif" font-size="14.00" fill="#0058ad">a 37 20</text>
</g>
<!-- T6641&#45;&gt;T6639 -->
<g id="edge1" class="edge">
<title>T6641:f1&#45;&gt;T6639:f2</title>
<path fill="none" stroke="#5b00c0" d="M701.5,-81C701.5,-23.9707 769.3571,-58.0162 825.5,-48 844.0524,-44.6902 977.9037,-49.8809 1011.0767,-36.8019"/>
<polygon fill="#5b00c0" stroke="#5b00c0" points="1013.4916,-39.3363 1018.5,-30 1008.7625,-34.1752 1013.4916,-39.3363"/>
<text text-anchor="middle" x="833" y="-51.8" font-family="Times,serif" font-size="14.00" fill="#5b00c0">rw</text>
</g>
<!-- T6639&#45;&gt;T6641 -->
<g id="edge2" class="edge">
<title>T6639:f1&#45;&gt;T6641:f2</title>
<path fill="none" stroke="#5b00c0" d="M669.5,-30C669.5,-49.105 822.1954,-42.5282 840.5,-48 867.4494,-56.0559 896.4653,-50.7211 903.0974,-71.039"/>
<polygon fill="#5b00c0" stroke="#5b00c0" points="899.6398,-71.5857 904.5,-81 906.5714,-70.6096 899.6398,-71.5857"/>
<text text-anchor="middle" x="904" y="-51.8" font-family="Times,serif" font-size="14.00" fill="#5b00c0">rw</text>
</g>
</g>
</svg>
