<?xml version="1.0" encoding="UTF-8" standalone="no"?>
<!DOCTYPE svg PUBLIC "-//W3C//DTD SVG 1.1//EN"
 "http://www.w3.org/Graphics/SVG/1.1/DTD/svg11.dtd">
<!-- Generated by graphviz version 2.40.1 (20161225.0304)
 -->
<!-- Title: a_graph Pages: 1 -->
<svg width="3629pt" height="119pt"
 viewBox="0.00 0.00 3629.00 119.00" xmlns="http://www.w3.org/2000/svg" xmlns:xlink="http://www.w3.org/1999/xlink">
<g id="graph0" class="graph" transform="scale(1 1) rotate(0) translate(4 115)">
<title>a_graph</title>
<polygon fill="#ffffff" stroke="transparent" points="-4,4 -4,-115 3625,-115 3625,4 -4,4"/>
<!-- T21669 -->
<g id="node1" class="node">
<title>T21669</title>
<polygon fill="none" stroke="#0058ad" points="1288,-81.5 1288,-110.5 3621,-110.5 3621,-81.5 1288,-81.5"/>
<text text-anchor="middle" x="1659" y="-92.3" font-family="Times,serif" font-size="14.00" fill="#0058ad">r 108 [1 2 3 4 5 6 7 8 11 13 14 15 16 17 18 19 20 21 22 23 24 25 26 27 28 29 31 30 32 33 34 35 36 37 38 39 40 41 42 43 44 45 46]</text>
<polyline fill="none" stroke="#0058ad" points="2030,-81.5 2030,-110.5 "/>
<text text-anchor="middle" x="2058.5" y="-92.3" font-family="Times,serif" font-size="14.00" fill="#0058ad">a 110 2</text>
<polyline fill="none" stroke="#0058ad" points="2087,-81.5 2087,-110.5 "/>
<text text-anchor="middle" x="2825.5" y="-92.3" font-family="Times,serif" font-size="14.00" fill="#0058ad">r 107 [1 2 3 4 5 6 7 8 9 10 15 16 19 20 21 23 25 26 27 28 29 31 32 33 34 35 36 37 38 39 30 40 41 42 45 43 44 46 47 48 49 50 51 52 53 55 56 54 57 59 60 61 58 62 63 64 65 66 67 68 70 69 71 72 73 74 76 75 77 78 79 80 81 82 83 84 85 86 87 89 88 90 91 92 93 94]</text>
<polyline fill="none" stroke="#0058ad" points="3564,-81.5 3564,-110.5 "/>
<text text-anchor="middle" x="3592.5" y="-92.3" font-family="Times,serif" font-size="14.00" fill="#0058ad">a 110 3</text>
</g>
<!-- T21667 -->
<g id="node2" class="node">
<title>T21667</title>
<polygon fill="none" stroke="#0058ad" points="0,-.5 0,-29.5 2507,-29.5 2507,-.5 0,-.5"/>
<text text-anchor="middle" x="35.5" y="-11.3" font-family="Times,serif" font-size="14.00" fill="#0058ad">a 109 128</text>
<polyline fill="none" stroke="#0058ad" points="71,-.5 71,-29.5 "/>
<text text-anchor="middle" x="1224.5" y="-11.3" font-family="Times,serif" font-size="14.00" fill="#0058ad">r 109 [1 4 5 6 7 8 9 10 11 12 16 15 17 20 21 22 23 24 25 26 28 27 29 30 31 32 33 34 35 36 37 38 39 40 41 42 45 46 47 48 43 44 50 51 53 52 54 55 49 56 57 60 61 58 59 62 63 64 65 67 66 70 71 68 69 72 73 74 75 76 77 78 79 80 81 83 82 84 85 86 87 88 89 90 91 92 93 94 95 96 97 98 100 101 99 103 104 102 105 106 107 109 108 110 111 114 115 116 112 113 117 118 119 120 123 124 125 121 126 127 122 128]</text>
<polyline fill="none" stroke="#0058ad" points="2378,-.5 2378,-29.5 "/>
<text text-anchor="middle" x="2410" y="-11.3" font-family="Times,serif" font-size="14.00" fill="#0058ad">a 107 95</text>
<polyline fill="none" stroke="#0058ad" points="2442,-.5 2442,-29.5 "/>
<text text-anchor="middle" x="2474.5" y="-11.3" font-family="Times,serif" font-size="14.00" fill="#0058ad">r 110 [1]</text>
</g>
<!-- T21669&#45;&gt;T21667 -->
<g id="edge1" class="edge">
<title>T21669:f2&#45;&gt;T21667:f2</title>
<path fill="none" stroke="#5b00c0" d="M2825.5,-81C2825.5,101.2025 2426.5526,-203.4993 2410.9687,-40.3165"/>
<polygon fill="#5b00c0" stroke="#5b00c0" points="2414.4504,-39.8308 2410.5,-30 2407.4576,-40.1486 2414.4504,-39.8308"/>
<text text-anchor="middle" x="2831" y="-51.8" font-family="Times,serif" font-size="14.00" fill="#5b00c0">rw</text>
</g>
<!-- T21667&#45;&gt;T21669 -->
<g id="edge2" class="edge">
<title>T21667:f3&#45;&gt;T21669:f1</title>
<path fill="none" stroke="#5b00c0" d="M2474.5,-30C2474.5,-51.2832 2126.9277,-56.8149 2067.1888,-75.3908"/>
<polygon fill="#5b00c0" stroke="#5b00c0" points="2065.0031,-72.6358 2058.5,-81 2068.7997,-78.5168 2065.0031,-72.6358"/>
<text text-anchor="middle" x="2370" y="-51.8" font-family="Times,serif" font-size="14.00" fill="#5b00c0">rw</text>
</g>
</g>
</svg>
