<?xml version="1.0" encoding="UTF-8" standalone="no"?>
<!DOCTYPE svg PUBLIC "-//W3C//DTD SVG 1.1//EN"
 "http://www.w3.org/Graphics/SVG/1.1/DTD/svg11.dtd">
<!-- Generated by graphviz version 2.40.1 (20161225.0304)
 -->
<!-- Title: a_graph Pages: 1 -->
<svg width="3885pt" height="200pt"
 viewBox="0.00 0.00 3885.00 200.00" xmlns="http://www.w3.org/2000/svg" xmlns:xlink="http://www.w3.org/1999/xlink">
<g id="graph0" class="graph" transform="scale(1 1) rotate(0) translate(4 196)">
<title>a_graph</title>
<polygon fill="#ffffff" stroke="transparent" points="-4,4 -4,-196 3881,-196 3881,4 -4,4"/>
<!-- T7425 -->
<g id="node1" class="node">
<title>T7425</title>
<polygon fill="none" stroke="#0058ad" points="922.5,-162.5 922.5,-191.5 3402.5,-191.5 3402.5,-162.5 922.5,-162.5"/>
<text text-anchor="middle" x="954.5" y="-173.3" font-family="Times,serif" font-size="14.00" fill="#0058ad">a 41 109</text>
<polyline fill="none" stroke="#0058ad" points="986.5,-162.5 986.5,-191.5 "/>
<text text-anchor="middle" x="1195.5" y="-173.3" font-family="Times,serif" font-size="14.00" fill="#0058ad">r 42 [1 3 2 4 5 6 7 8 9 10 11 12 13 15 16 17 14 18 19 20 21 22 23 24 26]</text>
<polyline fill="none" stroke="#0058ad" points="1404.5,-162.5 1404.5,-191.5 "/>
<text text-anchor="middle" x="2371.5" y="-173.3" font-family="Times,serif" font-size="14.00" fill="#0058ad">r 41 [2 3 1 4 5 6 7 8 9 10 11 12 15 16 17 13 14 18 19 20 21 22 23 25 26 24 27 28 29 30 31 32 33 34 35 36 38 39 40 37 41 44 45 46 47 43 48 49 50 42 52 53 54 55 56 58 59 60 61 57 62 63 51 65 64 66 68 67 69 71 70 73 72 74 75 76 77 78 80 81 82 79 84 85 86 83 88 89 87 90 91 93 94 92 98 95 96 99 100 97 102 103 104 105 107 101 106 108 109]</text>
<polyline fill="none" stroke="#0058ad" points="3338.5,-162.5 3338.5,-191.5 "/>
<text text-anchor="middle" x="3370.5" y="-173.3" font-family="Times,serif" font-size="14.00" fill="#0058ad">a 41 110</text>
</g>
<!-- T7427 -->
<g id="node2" class="node">
<title>T7427</title>
<polygon fill="none" stroke="#0058ad" points="1918.5,-81.5 1918.5,-110.5 2336.5,-110.5 2336.5,-81.5 1918.5,-81.5"/>
<text text-anchor="middle" x="2127.5" y="-92.3" font-family="Times,serif" font-size="14.00" fill="#0058ad">r 42 [1 3 2 4 5 6 7 8 9 10 11 12 13 15 16 17 14 18 19 20 21 22 23 24 26]</text>
</g>
<!-- T7425&#45;&gt;T7427 -->
<g id="edge2" class="edge">
<title>T7425&#45;&gt;T7427</title>
<path fill="none" stroke="#0050c0" d="M2156.0805,-162.1434C2150.9988,-150.3828 2143.7994,-133.7216 2137.8979,-120.0637"/>
<polygon fill="#0050c0" stroke="#0050c0" points="2141.0583,-118.5539 2133.8788,-110.7625 2134.6325,-121.3305 2141.0583,-118.5539"/>
<text text-anchor="middle" x="2152" y="-132.8" font-family="Times,serif" font-size="14.00" fill="#0050c0">rt</text>
</g>
<!-- T7431 -->
<g id="node3" class="node">
<title>T7431</title>
<polygon fill="none" stroke="#0058ad" points="0,-.5 0,-29.5 3877,-29.5 3877,-.5 0,-.5"/>
<text text-anchor="middle" x="955" y="-11.3" font-family="Times,serif" font-size="14.00" fill="#0058ad">r 41 [2 3 1 4 5 6 7 8 9 10 11 12 15 16 17 13 14 18 19 20 21 22 23 25 26 24 27 28 29 30 31 32 33 34 35 36 38 39 40 37 41 44 45 46 47 43 48 49 50 42 52 53 54 55 56 58 59 60 61 57 62 63 51 65 64 66 68 67 69 71 70 73 72 74 75 76 77 78 80 81 82 79 84 85 86 83 88 89 87 90 91 93 94 92 98 95 96 99 100 97 102 103 104 105 107 101 106 108]</text>
<polyline fill="none" stroke="#0058ad" points="1910,-.5 1910,-29.5 "/>
<text text-anchor="middle" x="1938.5" y="-11.3" font-family="Times,serif" font-size="14.00" fill="#0058ad">a 42 25</text>
<polyline fill="none" stroke="#0058ad" points="1967,-.5 1967,-29.5 "/>
<text text-anchor="middle" x="2922" y="-11.3" font-family="Times,serif" font-size="14.00" fill="#0058ad">r 41 [2 3 1 4 5 6 7 8 9 10 11 12 15 16 17 13 14 18 19 20 21 22 23 25 26 24 27 28 29 30 31 32 33 34 35 36 38 39 40 37 41 44 45 46 47 43 48 49 50 42 52 53 54 55 56 58 59 60 61 57 62 63 51 65 64 66 68 67 69 71 70 73 72 74 75 76 77 78 80 81 82 79 84 85 86 83 88 89 87 90 91 93 94 92 98 95 96 99 100 97 102 103 104 105 107 101 106 108]</text>
</g>
<!-- T7425&#45;&gt;T7431 -->
<g id="edge1" class="edge">
<title>T7425:f1&#45;&gt;T7431:f1</title>
<path fill="none" stroke="#5b00c0" d="M1195.5,-162C1195.5,-81.5908 1878.8007,-111.1211 1934.8527,-39.7304"/>
<polygon fill="#5b00c0" stroke="#5b00c0" points="1938.2674,-40.5923 1938.5,-30 1931.7128,-38.1353 1938.2674,-40.5923"/>
<text text-anchor="middle" x="1764" y="-92.3" font-family="Times,serif" font-size="14.00" fill="#5b00c0">rw</text>
</g>
<!-- T7427&#45;&gt;T7431 -->
<g id="edge3" class="edge">
<title>T7427:f0&#45;&gt;T7431:f1</title>
<path fill="none" stroke="#5b00c0" d="M1974.4943,-81.2921C1956.2317,-72.4196 1942.7752,-59.2688 1939.3518,-39.9738"/>
<polygon fill="#5b00c0" stroke="#5b00c0" points="1942.8383,-39.6659 1938.5,-30 1935.8637,-40.2616 1942.8383,-39.6659"/>
<text text-anchor="middle" x="1956" y="-51.8" font-family="Times,serif" font-size="14.00" fill="#5b00c0">rw</text>
</g>
<!-- T7431&#45;&gt;T7425 -->
<g id="edge4" class="edge">
<title>T7431:f0&#45;&gt;T7425:f0</title>
<path fill="none" stroke="#5b00c0" d="M954.5,-30C954.5,-85.1146 954.5,-101.396 954.5,-151.8081"/>
<polygon fill="#5b00c0" stroke="#5b00c0" points="951.0001,-152 954.5,-162 958.0001,-152 951.0001,-152"/>
<text text-anchor="middle" x="962" y="-92.3" font-family="Times,serif" font-size="14.00" fill="#5b00c0">rw</text>
</g>
</g>
</svg>
