<?xml version="1.0" encoding="UTF-8" standalone="no"?>
<!DOCTYPE svg PUBLIC "-//W3C//DTD SVG 1.1//EN"
 "http://www.w3.org/Graphics/SVG/1.1/DTD/svg11.dtd">
<!-- Generated by graphviz version 2.40.1 (20161225.0304)
 -->
<!-- Title: a_graph Pages: 1 -->
<svg width="3818pt" height="200pt"
 viewBox="0.00 0.00 3818.00 200.00" xmlns="http://www.w3.org/2000/svg" xmlns:xlink="http://www.w3.org/1999/xlink">
<g id="graph0" class="graph" transform="scale(1 1) rotate(0) translate(4 196)">
<title>a_graph</title>
<polygon fill="#ffffff" stroke="transparent" points="-4,4 -4,-196 3814,-196 3814,4 -4,4"/>
<!-- T15651 -->
<g id="node1" class="node">
<title>T15651</title>
<polygon fill="none" stroke="#0058ad" points="533.5,-162.5 533.5,-191.5 2386.5,-191.5 2386.5,-162.5 533.5,-162.5"/>
<text text-anchor="middle" x="1431.5" y="-173.3" font-family="Times,serif" font-size="14.00" fill="#0058ad">r 80 [1 2 3 4 5 6 7 8 9 10 11 12 13 14 15 16 17 18 19 20 21 23 24 25 22 27 31 32 30 33 36 37 39 40 41 45 46 47 48 49 50 51 52 53 54 55 61 62 63 64 65 66 67 68 70 71 72 73 76 77 74 75 78 79 81 80 82 83 84 85 86 87 88 89 90 91 92 93 94 95 96 97 98 99 101 102 100 104 103 105 107 106 108 109 110 111 112 113 114]</text>
<polyline fill="none" stroke="#0058ad" points="2329.5,-162.5 2329.5,-191.5 "/>
<text text-anchor="middle" x="2358" y="-173.3" font-family="Times,serif" font-size="14.00" fill="#0058ad">a 81 57</text>
</g>
<!-- T15657 -->
<g id="node3" class="node">
<title>T15657</title>
<polygon fill="none" stroke="#0058ad" points="542.5,-81.5 542.5,-110.5 2293.5,-110.5 2293.5,-81.5 542.5,-81.5"/>
<text text-anchor="middle" x="571" y="-92.3" font-family="Times,serif" font-size="14.00" fill="#0058ad">a 78 74</text>
<polyline fill="none" stroke="#0058ad" points="599.5,-81.5 599.5,-110.5 "/>
<text text-anchor="middle" x="1007" y="-92.3" font-family="Times,serif" font-size="14.00" fill="#0058ad">r 81 [1 2 3 4 5 6 7 8 9 11 12 13 14 15 16 17 18 20 21 22 23 24 25 26 30 31 34 35 36 37 38 39 40 41 42 43 44 45 46 47 48 49 50 51 52 53 54 55]</text>
<polyline fill="none" stroke="#0058ad" points="1414.5,-81.5 1414.5,-110.5 "/>
<text text-anchor="middle" x="1446.5" y="-92.3" font-family="Times,serif" font-size="14.00" fill="#0058ad">a 80 115</text>
<polyline fill="none" stroke="#0058ad" points="1478.5,-81.5 1478.5,-110.5 "/>
<text text-anchor="middle" x="1886" y="-92.3" font-family="Times,serif" font-size="14.00" fill="#0058ad">r 81 [1 2 3 4 5 6 7 8 9 11 12 13 14 15 16 17 18 20 21 22 23 24 25 26 30 31 34 35 36 37 38 39 40 41 42 43 44 45 46 47 48 49 50 51 52 53 54 55]</text>
</g>
<!-- T15651&#45;&gt;T15657 -->
<g id="edge1" class="edge">
<title>T15651:f0&#45;&gt;T15657:f2</title>
<path fill="none" stroke="#5b00c0" d="M1431,-162C1431,-142.1415 1442.1807,-136.446 1445.8493,-121.2348"/>
<polygon fill="#5b00c0" stroke="#5b00c0" points="1449.3608,-121.3285 1447,-111 1442.4046,-120.5463 1449.3608,-121.3285"/>
<text text-anchor="middle" x="1450.5" y="-132.8" font-family="Times,serif" font-size="14.00" fill="#5b00c0">rw</text>
</g>
<!-- T15649 -->
<g id="node2" class="node">
<title>T15649</title>
<polygon fill="none" stroke="#0058ad" points="0,-.5 0,-29.5 3810,-29.5 3810,-.5 0,-.5"/>
<text text-anchor="middle" x="571" y="-11.3" font-family="Times,serif" font-size="14.00" fill="#0058ad">r 78 [1 2 3 4 5 6 7 8 9 11 13 12 16 17 18 19 20 21 22 23 24 25 26 27 28 29 30 31 32 33 34 35 36 37 38 39 40 41 42 43 44 45 46 47 48 49 50 51 52 53 56 57 58 59 60 61 63 64 65 66 67 68 69 70 71 72 73]</text>
<polyline fill="none" stroke="#0058ad" points="1142,-.5 1142,-29.5 "/>
<text text-anchor="middle" x="1549.5" y="-11.3" font-family="Times,serif" font-size="14.00" fill="#0058ad">r 81 [1 2 3 4 5 6 7 8 9 11 12 13 14 15 16 17 18 20 21 22 23 24 25 26 30 31 34 35 36 37 38 39 40 41 42 43 44 45 46 47 48 49 50 51 52 53 54 55]</text>
<polyline fill="none" stroke="#0058ad" points="1957,-.5 1957,-29.5 "/>
<text text-anchor="middle" x="1985.5" y="-11.3" font-family="Times,serif" font-size="14.00" fill="#0058ad">a 81 56</text>
<polyline fill="none" stroke="#0058ad" points="2014,-.5 2014,-29.5 "/>
<text text-anchor="middle" x="2912" y="-11.3" font-family="Times,serif" font-size="14.00" fill="#0058ad">r 80 [1 2 3 4 5 6 7 8 9 10 11 12 13 14 15 16 17 18 19 20 21 23 24 25 22 27 31 32 30 33 36 37 39 40 41 45 46 47 48 49 50 51 52 53 54 55 61 62 63 64 65 66 67 68 70 71 72 73 76 77 74 75 78 79 81 80 82 83 84 85 86 87 88 89 90 91 92 93 94 95 96 97 98 99 101 102 100 104 103 105 107 106 108 109 110 111 112 113 114]</text>
</g>
<!-- T15649&#45;&gt;T15651 -->
<g id="edge2" class="edge">
<title>T15649:f2&#45;&gt;T15651:f1</title>
<path fill="none" stroke="#c02700" d="M1986,-30C1986,-65.5655 2271.9229,-62.0192 2302,-81 2335.9759,-102.4412 2354.7635,-115.8936 2357.6172,-151.8111"/>
<polygon fill="#c02700" stroke="#c02700" points="2354.1269,-152.1385 2358,-162 2361.122,-151.8756 2354.1269,-152.1385"/>
<text text-anchor="middle" x="2351" y="-92.3" font-family="Times,serif" font-size="14.00" fill="#c02700">ww</text>
</g>
<!-- T15649&#45;&gt;T15657 -->
<g id="edge3" class="edge">
<title>T15649:f0&#45;&gt;T15657:f0</title>
<path fill="none" stroke="#5b00c0" d="M571,-30C571,-48.7708 571,-55.8832 571,-70.6465"/>
<polygon fill="#5b00c0" stroke="#5b00c0" points="567.5001,-71 571,-81 574.5001,-71 567.5001,-71"/>
<text text-anchor="middle" x="578.5" y="-51.8" font-family="Times,serif" font-size="14.00" fill="#5b00c0">rw</text>
</g>
<!-- T15657&#45;&gt;T15649 -->
<g id="edge4" class="edge">
<title>T15657:f1&#45;&gt;T15649:f2</title>
<path fill="none" stroke="#5b00c0" d="M1007,-81C1007,133.3403 1954.7044,-235.6094 1985.2456,-40.0666"/>
<polygon fill="#5b00c0" stroke="#5b00c0" points="1988.7428,-40.2336 1986,-30 1981.7624,-39.7105 1988.7428,-40.2336"/>
<text text-anchor="middle" x="1989.5" y="-51.8" font-family="Times,serif" font-size="14.00" fill="#5b00c0">rw</text>
</g>
</g>
</svg>
