<?xml version="1.0" encoding="UTF-8" standalone="no"?>
<!DOCTYPE svg PUBLIC "-//W3C//DTD SVG 1.1//EN"
 "http://www.w3.org/Graphics/SVG/1.1/DTD/svg11.dtd">
<!-- Generated by graphviz version 2.40.1 (20161225.0304)
 -->
<!-- Title: a_graph Pages: 1 -->
<svg width="2587pt" height="119pt"
 viewBox="0.00 0.00 2587.00 119.00" xmlns="http://www.w3.org/2000/svg" xmlns:xlink="http://www.w3.org/1999/xlink">
<g id="graph0" class="graph" transform="scale(1 1) rotate(0) translate(4 115)">
<title>a_graph</title>
<polygon fill="#ffffff" stroke="transparent" points="-4,4 -4,-115 2583,-115 2583,4 -4,4"/>
<!-- T2685 -->
<g id="node1" class="node">
<title>T2685</title>
<polygon fill="none" stroke="#0058ad" points="806,-81.5 806,-110.5 2025,-110.5 2025,-81.5 806,-81.5"/>
<text text-anchor="middle" x="834.5" y="-92.3" font-family="Times,serif" font-size="14.00" fill="#0058ad">a 19 72</text>
<polyline fill="none" stroke="#0058ad" points="863,-81.5 863,-110.5 "/>
<text text-anchor="middle" x="1201.5" y="-92.3" font-family="Times,serif" font-size="14.00" fill="#0058ad">r 18 [1 2 4 3 5 6 7 8 9 10 11 12 14 15 16 13 17 18 19 20 21 22 23 24 25 26 27 28 29 30 31 32 33 34 35 36 37 38 39 40]</text>
<polyline fill="none" stroke="#0058ad" points="1540,-81.5 1540,-110.5 "/>
<text text-anchor="middle" x="1754" y="-92.3" font-family="Times,serif" font-size="14.00" fill="#0058ad">r 5 [1 2 3 4 6 5 7 8 9 10 11 12 13 14 15 42 43 44 45 46 47 48 49 50 51 52]</text>
<polyline fill="none" stroke="#0058ad" points="1968,-81.5 1968,-110.5 "/>
<text text-anchor="middle" x="1996.5" y="-92.3" font-family="Times,serif" font-size="14.00" fill="#0058ad">a 19 73</text>
</g>
<!-- T2687 -->
<g id="node2" class="node">
<title>T2687</title>
<polygon fill="none" stroke="#0058ad" points="0,-.5 0,-29.5 2579,-29.5 2579,-.5 0,-.5"/>
<text text-anchor="middle" x="338.5" y="-11.3" font-family="Times,serif" font-size="14.00" fill="#0058ad">r 18 [1 2 4 3 5 6 7 8 9 10 11 12 14 15 16 13 17 18 19 20 21 22 23 24 25 26 27 28 29 30 31 32 33 34 35 36 37 38 39 40]</text>
<polyline fill="none" stroke="#0058ad" points="677,-.5 677,-29.5 "/>
<text text-anchor="middle" x="705.5" y="-11.3" font-family="Times,serif" font-size="14.00" fill="#0058ad">a 18 41</text>
<polyline fill="none" stroke="#0058ad" points="734,-.5 734,-29.5 "/>
<text text-anchor="middle" x="1331" y="-11.3" font-family="Times,serif" font-size="14.00" fill="#0058ad">r 19 [1 3 4 5 6 2 7 8 9 10 11 12 13 14 15 16 17 18 19 21 20 22 23 24 26 27 28 29 30 31 32 33 25 35 36 37 39 38 34 42 43 40 41 45 44 46 47 51 50 48 49 52 53 54 56 57 58 55 59 60 61 62 63 64 68 66 67 69 70 71]</text>
<polyline fill="none" stroke="#0058ad" points="1928,-.5 1928,-29.5 "/>
<text text-anchor="middle" x="2253.5" y="-11.3" font-family="Times,serif" font-size="14.00" fill="#0058ad">r 15 [44 43 47 49 51 52 53 56 55 54 57 59 58 60 61 62 63 64 65 66 67 68 69 70 71 72 73 74 75 76 77 79 78 80 81]</text>
</g>
<!-- T2685&#45;&gt;T2687 -->
<g id="edge1" class="edge">
<title>T2685:f1&#45;&gt;T2687:f1</title>
<path fill="none" stroke="#5b00c0" d="M1201.5,-81C1201.5,37.6875 1054.5847,-59.9467 936.5,-48 913.7878,-45.7022 749.7259,-53.5686 712.847,-37.4313"/>
<polygon fill="#5b00c0" stroke="#5b00c0" points="715.0196,-34.6506 705.5,-30 710.0417,-39.572 715.0196,-34.6506"/>
<text text-anchor="middle" x="1207" y="-51.8" font-family="Times,serif" font-size="14.00" fill="#5b00c0">rw</text>
</g>
<!-- T2687&#45;&gt;T2685 -->
<g id="edge2" class="edge">
<title>T2687:f2&#45;&gt;T2685:f0</title>
<path fill="none" stroke="#5b00c0" d="M1331.5,-30C1331.5,-53.0217 940.0114,-43.1797 917.5,-48 882.4731,-55.5001 843.0782,-44.0115 835.7179,-70.8623"/>
<polygon fill="#5b00c0" stroke="#5b00c0" points="832.2179,-70.6539 834.5,-81 839.1679,-71.4889 832.2179,-70.6539"/>
<text text-anchor="middle" x="925" y="-51.8" font-family="Times,serif" font-size="14.00" fill="#5b00c0">rw</text>
</g>
</g>
</svg>
