<?xml version="1.0" encoding="UTF-8" standalone="no"?>
<!DOCTYPE svg PUBLIC "-//W3C//DTD SVG 1.1//EN"
 "http://www.w3.org/Graphics/SVG/1.1/DTD/svg11.dtd">
<!-- Generated by graphviz version 2.40.1 (20161225.0304)
 -->
<!-- Title: a_graph Pages: 1 -->
<svg width="3881pt" height="119pt"
 viewBox="0.00 0.00 3881.00 119.00" xmlns="http://www.w3.org/2000/svg" xmlns:xlink="http://www.w3.org/1999/xlink">
<g id="graph0" class="graph" transform="scale(1 1) rotate(0) translate(4 115)">
<title>a_graph</title>
<polygon fill="#ffffff" stroke="transparent" points="-4,4 -4,-115 3877,-115 3877,4 -4,4"/>
<!-- T12671 -->
<g id="node1" class="node">
<title>T12671</title>
<polygon fill="none" stroke="#0058ad" points="0,-81.5 0,-110.5 3873,-110.5 3873,-81.5 0,-81.5"/>
<text text-anchor="middle" x="1032" y="-92.3" font-family="Times,serif" font-size="14.00" fill="#0058ad">r 63 [1 2 3 4 5 6 7 8 9 10 11 12 13 14 15 16 17 18 19 20 22 23 26 25 28 27 30 32 33 34 31 37 38 39 40 41 42 43 44 45 46 47 48 49 50 51 52 53 54 55 56 57 58 59 60 61 62 63 64 66 67 65 68 69 70 71 72 74 75 76 73 78 79 80 81 82 83 84 85 86 77 87 89 88 90 91 92 93 94 95 96 97 98 99 100 102 101 103 104 106 105 107 108 109 110 112 111 113 115 116 117 114 118]</text>
<polyline fill="none" stroke="#0058ad" points="2064,-81.5 2064,-110.5 "/>
<text text-anchor="middle" x="2092.5" y="-92.3" font-family="Times,serif" font-size="14.00" fill="#0058ad">a 65 75</text>
<polyline fill="none" stroke="#0058ad" points="2121,-81.5 2121,-110.5 "/>
<text text-anchor="middle" x="2997" y="-92.3" font-family="Times,serif" font-size="14.00" fill="#0058ad">r 61 [1 2 3 4 5 7 8 9 10 11 12 13 14 15 16 17 18 19 20 21 22 23 24 25 26 27 28 29 30 31 32 33 34 35 36 37 38 39 40 41 42 43 44 45 46 47 48 49 50 52 53 54 55 56 51 58 57 63 64 62 65 67 66 68 69 70 71 72 73 74 75 76 77 78 79 80 81 82 83 84 85 86 87 88 89 90 91 92 93 94 95 96 98 97 99 100 101 102 103 104]</text>
</g>
<!-- T12667 -->
<g id="node2" class="node">
<title>T12667</title>
<polygon fill="none" stroke="#0058ad" points="1248,-.5 1248,-29.5 2575,-29.5 2575,-.5 1248,-.5"/>
<text text-anchor="middle" x="1280" y="-11.3" font-family="Times,serif" font-size="14.00" fill="#0058ad">a 63 119</text>
<polyline fill="none" stroke="#0058ad" points="1312,-.5 1312,-29.5 "/>
<text text-anchor="middle" x="1943.5" y="-11.3" font-family="Times,serif" font-size="14.00" fill="#0058ad">r 65 [1 2 3 4 5 6 7 8 9 10 11 12 13 14 15 16 17 18 19 20 21 22 23 24 25 26 27 28 29 30 31 32 33 35 36 34 37 38 41 42 39 40 43 44 46 47 48 50 45 49 51 52 53 55 54 56 57 58 61 59 60 62 64 63 66 67 68 69 65 70 72 71 73 74]</text>
</g>
<!-- T12671&#45;&gt;T12667 -->
<g id="edge1" class="edge">
<title>T12671:f0&#45;&gt;T12667:f0</title>
<path fill="none" stroke="#5b00c0" d="M1031.5,-81C1031.5,-33.8481 1177.8386,-17.0404 1237.1742,-15.178"/>
<polygon fill="#5b00c0" stroke="#5b00c0" points="1237.5618,-18.6719 1247.5,-15 1237.4411,-11.673 1237.5618,-18.6719"/>
<text text-anchor="middle" x="1068" y="-51.8" font-family="Times,serif" font-size="14.00" fill="#5b00c0">rw</text>
</g>
<!-- T12667&#45;&gt;T12671 -->
<g id="edge2" class="edge">
<title>T12667:f1&#45;&gt;T12671:f1</title>
<path fill="none" stroke="#5b00c0" d="M1943.5,-30C1943.5,-96.1662 2076.6487,-20.2636 2091.2119,-70.891"/>
<polygon fill="#5b00c0" stroke="#5b00c0" points="2087.764,-71.5226 2092.5,-81 2094.7078,-70.6378 2087.764,-71.5226"/>
<text text-anchor="middle" x="2094" y="-51.8" font-family="Times,serif" font-size="14.00" fill="#5b00c0">rw</text>
</g>
</g>
</svg>
