<?xml version="1.0" encoding="UTF-8" standalone="no"?>
<!DOCTYPE svg PUBLIC "-//W3C//DTD SVG 1.1//EN"
 "http://www.w3.org/Graphics/SVG/1.1/DTD/svg11.dtd">
<!-- Generated by graphviz version 2.40.1 (20161225.0304)
 -->
<!-- Title: a_graph Pages: 1 -->
<svg width="2284pt" height="119pt"
 viewBox="0.00 0.00 2283.50 119.00" xmlns="http://www.w3.org/2000/svg" xmlns:xlink="http://www.w3.org/1999/xlink">
<g id="graph0" class="graph" transform="scale(1 1) rotate(0) translate(4 115)">
<title>a_graph</title>
<polygon fill="#ffffff" stroke="transparent" points="-4,4 -4,-115 2279.5,-115 2279.5,4 -4,4"/>
<!-- T3397 -->
<g id="node1" class="node">
<title>T3397</title>
<polygon fill="none" stroke="#0058ad" points="438.5,-81.5 438.5,-110.5 2275.5,-110.5 2275.5,-81.5 438.5,-81.5"/>
<text text-anchor="middle" x="467" y="-92.3" font-family="Times,serif" font-size="14.00" fill="#0058ad">a 22 49</text>
<polyline fill="none" stroke="#0058ad" points="495.5,-81.5 495.5,-110.5 "/>
<text text-anchor="middle" x="678.5" y="-92.3" font-family="Times,serif" font-size="14.00" fill="#0058ad">r 21 [1 2 3 4 5 6 7 8 9 10 12 13 11 15 16 21 23 24 18 19 25 26]</text>
<polyline fill="none" stroke="#0058ad" points="861.5,-81.5 861.5,-110.5 "/>
<text text-anchor="middle" x="1215" y="-92.3" font-family="Times,serif" font-size="14.00" fill="#0058ad">r 22 [2 3 1 6 7 10 12 11 13 14 15 16 8 9 17 18 19 21 23 24 25 20 29 30 32 33 34 35 28 36 40 41 42 38 39 43 44 46 47 48 49]</text>
<polyline fill="none" stroke="#0058ad" points="1568.5,-81.5 1568.5,-110.5 "/>
<text text-anchor="middle" x="1922" y="-92.3" font-family="Times,serif" font-size="14.00" fill="#0058ad">r 22 [2 3 1 6 7 10 12 11 13 14 15 16 8 9 17 18 19 21 23 24 25 20 29 30 32 33 34 35 28 36 40 41 42 38 39 43 44 46 47 48 49]</text>
</g>
<!-- T3395 -->
<g id="node2" class="node">
<title>T3395</title>
<polygon fill="none" stroke="#0058ad" points="0,-.5 0,-29.5 804,-29.5 804,-.5 0,-.5"/>
<text text-anchor="middle" x="345" y="-11.3" font-family="Times,serif" font-size="14.00" fill="#0058ad">r 22 [2 3 1 6 7 10 12 11 13 14 15 16 8 9 17 18 19 21 23 24 25 20 29 30 32 33 34 35 28 36 40 41 42 38 39 43 44 46 47 48]</text>
<polyline fill="none" stroke="#0058ad" points="690,-.5 690,-29.5 "/>
<text text-anchor="middle" x="718.5" y="-11.3" font-family="Times,serif" font-size="14.00" fill="#0058ad">a 21 27</text>
<polyline fill="none" stroke="#0058ad" points="747,-.5 747,-29.5 "/>
<text text-anchor="middle" x="775.5" y="-11.3" font-family="Times,serif" font-size="14.00" fill="#0058ad">a 21 28</text>
</g>
<!-- T3397&#45;&gt;T3395 -->
<g id="edge1" class="edge">
<title>T3397:f1&#45;&gt;T3395:f1</title>
<path fill="none" stroke="#5b00c0" d="M678,-81C678,-55.7795 708.8326,-57.819 717.0225,-39.8394"/>
<polygon fill="#5b00c0" stroke="#5b00c0" points="720.4609,-40.4936 719,-30 713.5981,-39.1143 720.4609,-40.4936"/>
<text text-anchor="middle" x="717.5" y="-51.8" font-family="Times,serif" font-size="14.00" fill="#5b00c0">rw</text>
</g>
<!-- T3395&#45;&gt;T3397 -->
<g id="edge2" class="edge">
<title>T3395:f0&#45;&gt;T3397:f0</title>
<path fill="none" stroke="#5b00c0" d="M345,-30C345,-77.2195 381.7282,-93.7408 427.7339,-95.7789"/>
<polygon fill="#5b00c0" stroke="#5b00c0" points="427.9269,-99.2838 438,-96 428.0777,-92.2854 427.9269,-99.2838"/>
<text text-anchor="middle" x="359.5" y="-51.8" font-family="Times,serif" font-size="14.00" fill="#5b00c0">rw</text>
</g>
</g>
</svg>
