<?xml version="1.0" encoding="UTF-8" standalone="no"?>
<!DOCTYPE svg PUBLIC "-//W3C//DTD SVG 1.1//EN"
 "http://www.w3.org/Graphics/SVG/1.1/DTD/svg11.dtd">
<!-- Generated by graphviz version 2.40.1 (20161225.0304)
 -->
<!-- Title: a_graph Pages: 1 -->
<svg width="5866pt" height="200pt"
 viewBox="0.00 0.00 5865.59 200.00" xmlns="http://www.w3.org/2000/svg" xmlns:xlink="http://www.w3.org/1999/xlink">
<g id="graph0" class="graph" transform="scale(1 1) rotate(0) translate(4 196)">
<title>a_graph</title>
<polygon fill="#ffffff" stroke="transparent" points="-4,4 -4,-196 5861.5928,-196 5861.5928,4 -4,4"/>
<!-- T21641 -->
<g id="node1" class="node">
<title>T21641</title>
<polygon fill="none" stroke="#0058ad" points="4286,-162.5 4286,-191.5 5441,-191.5 5441,-162.5 4286,-162.5"/>
<text text-anchor="middle" x="4831.5" y="-173.3" font-family="Times,serif" font-size="14.00" fill="#0058ad">r 68 [1 2 3 4 5 6 7 8 9 10 11 12 13 14 15 16 17 18 19 20 21 22 23 24 25 26 27 28 29 30 31 32 54 56 57 58 59 60 61 62 63 64 65 66 67 68 69 70 71 73 72 74 75 76 77 78 79 80 81 82 83 84 85 86]</text>
<polyline fill="none" stroke="#0058ad" points="5377,-162.5 5377,-191.5 "/>
<text text-anchor="middle" x="5409" y="-173.3" font-family="Times,serif" font-size="14.00" fill="#0058ad">a 107 91</text>
</g>
<!-- T21645 -->
<g id="node2" class="node">
<title>T21645</title>
<polygon fill="none" stroke="#0058ad" points="1955.5,-81.5 1955.5,-110.5 5567.5,-110.5 5567.5,-81.5 1955.5,-81.5"/>
<text text-anchor="middle" x="3049" y="-92.3" font-family="Times,serif" font-size="14.00" fill="#0058ad">r 109 [1 4 5 6 7 8 9 10 11 12 16 15 17 20 21 22 23 24 25 26 28 27 29 30 31 32 33 34 35 36 37 38 39 40 41 42 45 46 47 48 43 44 50 51 53 52 54 55 49 56 57 60 61 58 59 62 63 64 65 67 66 70 71 68 69 72 73 74 75 76 77 78 79 80 81 83 82 84 85 86 87 88 89 90 91 92 93 94 95 96 97 98 100 101 99 103 104 102 105 106 107 109 108 110 111 114 115 116 112 113 117 118 119 120 123 124 125]</text>
<polyline fill="none" stroke="#0058ad" points="4142.5,-81.5 4142.5,-110.5 "/>
<text text-anchor="middle" x="4855" y="-92.3" font-family="Times,serif" font-size="14.00" fill="#0058ad">r 107 [1 2 3 4 5 6 7 8 9 10 15 16 19 20 21 23 25 26 27 28 29 31 32 33 34 35 36 37 38 39 30 40 41 42 45 43 44 46 47 48 49 50 51 52 53 55 56 54 57 59 60 61 58 62 63 64 65 66 67 68 70 69 71 72 73 74 76 75 77 78 79 80 81 82 83 84 85 86 87 89 88 90 91]</text>
</g>
<!-- T21641&#45;&gt;T21645 -->
<g id="edge1" class="edge">
<title>T21641:f1&#45;&gt;T21645:f1</title>
<path fill="none" stroke="#c000a5" d="M5409.5,-162C5409.5,-88.2102 5524.0698,-170.6553 5567.5,-111 5568.6036,-109.4842 5569.6137,-107.6345 5570.3474,-105.7586"/>
<polygon fill="#c000a5" stroke="#c000a5" points="5573.661,-104.6193 5567.5,-96 5566.9412,-106.5801 5573.661,-104.6193"/>
<text text-anchor="middle" x="5549" y="-132.8" font-family="Times,serif" font-size="14.00" fill="#c000a5">wr</text>
</g>
<!-- T21643 -->
<g id="node3" class="node">
<title>T21643</title>
<polygon fill="none" stroke="#0058ad" points="0,-.5 0,-29.5 5853,-29.5 5853,-.5 0,-.5"/>
<text text-anchor="middle" x="1093.5" y="-11.3" font-family="Times,serif" font-size="14.00" fill="#0058ad">r 109 [1 4 5 6 7 8 9 10 11 12 16 15 17 20 21 22 23 24 25 26 28 27 29 30 31 32 33 34 35 36 37 38 39 40 41 42 45 46 47 48 43 44 50 51 53 52 54 55 49 56 57 60 61 58 59 62 63 64 65 67 66 70 71 68 69 72 73 74 75 76 77 78 79 80 81 83 82 84 85 86 87 88 89 90 91 92 93 94 95 96 97 98 100 101 99 103 104 102 105 106 107 109 108 110 111 114 115 116 112 113 117 118 119 120 123 124 125]</text>
<polyline fill="none" stroke="#0058ad" points="2187,-.5 2187,-29.5 "/>
<text text-anchor="middle" x="3280.5" y="-11.3" font-family="Times,serif" font-size="14.00" fill="#0058ad">r 109 [1 4 5 6 7 8 9 10 11 12 16 15 17 20 21 22 23 24 25 26 28 27 29 30 31 32 33 34 35 36 37 38 39 40 41 42 45 46 47 48 43 44 50 51 53 52 54 55 49 56 57 60 61 58 59 62 63 64 65 67 66 70 71 68 69 72 73 74 75 76 77 78 79 80 81 83 82 84 85 86 87 88 89 90 91 92 93 94 95 96 97 98 100 101 99 103 104 102 105 106 107 109 108 110 111 114 115 116 112 113 117 118 119 120 123 124 125]</text>
<polyline fill="none" stroke="#0058ad" points="4374,-.5 4374,-29.5 "/>
<text text-anchor="middle" x="4409.5" y="-11.3" font-family="Times,serif" font-size="14.00" fill="#0058ad">a 109 121</text>
<polyline fill="none" stroke="#0058ad" points="4445,-.5 4445,-29.5 "/>
<text text-anchor="middle" x="5149" y="-11.3" font-family="Times,serif" font-size="14.00" fill="#0058ad">r 107 [1 2 3 4 5 6 7 8 9 10 15 16 19 20 21 23 25 26 27 28 29 31 32 33 34 35 36 37 38 39 30 40 41 42 45 43 44 46 47 48 49 50 51 52 53 55 56 54 57 59 60 61 58 62 63 64 65 66 67 68 70 69 71 72 73 74 76 75 77 78 79 80 81 82 83 84 85 86 87 89 88 90]</text>
</g>
<!-- T21645&#45;&gt;T21643 -->
<g id="edge2" class="edge">
<title>T21645:f0&#45;&gt;T21643:f2</title>
<path fill="none" stroke="#5b00c0" d="M3048.5,-81C3048.5,66.7816 4346.4507,-169.7533 4407.2922,-39.9866"/>
<polygon fill="#5b00c0" stroke="#5b00c0" points="4410.7587,-40.5198 4409.5,-30 4403.9238,-39.0087 4410.7587,-40.5198"/>
<text text-anchor="middle" x="4402" y="-51.8" font-family="Times,serif" font-size="14.00" fill="#5b00c0">rw</text>
</g>
<!-- T21643&#45;&gt;T21641 -->
<g id="edge3" class="edge">
<title>T21643:f3&#45;&gt;T21641:f1</title>
<path fill="none" stroke="#5b00c0" d="M5853.5,-15C5860.1667,-15 5857.2636,-24.4973 5853.5,-30 5774.6165,-145.3358 5693.1037,-99.941 5560.5,-144 5511.772,-160.1904 5498.102,-174.9702 5451.6006,-176.8082"/>
<polygon fill="#5b00c0" stroke="#5b00c0" points="5451.4317,-173.3107 5441.5,-177 5451.5647,-180.3094 5451.4317,-173.3107"/>
<text text-anchor="middle" x="5812" y="-92.3" font-family="Times,serif" font-size="14.00" fill="#5b00c0">rw</text>
</g>
</g>
</svg>
