<?xml version="1.0" encoding="UTF-8" standalone="no"?>
<!DOCTYPE svg PUBLIC "-//W3C//DTD SVG 1.1//EN"
 "http://www.w3.org/Graphics/SVG/1.1/DTD/svg11.dtd">
<!-- Generated by graphviz version 2.40.1 (20161225.0304)
 -->
<!-- Title: a_graph Pages: 1 -->
<svg width="5835pt" height="119pt"
 viewBox="0.00 0.00 5835.00 119.00" xmlns="http://www.w3.org/2000/svg" xmlns:xlink="http://www.w3.org/1999/xlink">
<g id="graph0" class="graph" transform="scale(1 1) rotate(0) translate(4 115)">
<title>a_graph</title>
<polygon fill="#ffffff" stroke="transparent" points="-4,4 -4,-115 5831,-115 5831,4 -4,4"/>
<!-- T22059 -->
<g id="node1" class="node">
<title>T22059</title>
<polygon fill="none" stroke="#0058ad" points="0,-81.5 0,-110.5 5827,-110.5 5827,-81.5 0,-81.5"/>
<text text-anchor="middle" x="893" y="-92.3" font-family="Times,serif" font-size="14.00" fill="#0058ad">r 110 [1 2 3 4 5 6 8 9 10 11 12 7 14 13 15 16 17 19 18 20 21 22 23 24 25 28 29 30 33 31 32 38 36 40 41 48 49 44 45 50 43 51 52 53 54 55 56 57 58 59 60 61 62 63 65 67 68 69 66 70 71 72 73 64 75 76 74 78 80 79 82 83 84 81 85 86 88 87 77 89 90 91 93 94 92 95 96 97 98 99 100 101 102 103 104 105 106 107 111 112]</text>
<polyline fill="none" stroke="#0058ad" points="1786,-81.5 1786,-110.5 "/>
<text text-anchor="middle" x="2679" y="-92.3" font-family="Times,serif" font-size="14.00" fill="#0058ad">r 110 [1 2 3 4 5 6 8 9 10 11 12 7 14 13 15 16 17 19 18 20 21 22 23 24 25 28 29 30 33 31 32 38 36 40 41 48 49 44 45 50 43 51 52 53 54 55 56 57 58 59 60 61 62 63 65 67 68 69 66 70 71 72 73 64 75 76 74 78 80 79 82 83 84 81 85 86 88 87 77 89 90 91 93 94 92 95 96 97 98 99 100 101 102 103 104 105 106 107 111 112]</text>
<polyline fill="none" stroke="#0058ad" points="3572,-81.5 3572,-110.5 "/>
<text text-anchor="middle" x="4667.5" y="-92.3" font-family="Times,serif" font-size="14.00" fill="#0058ad">r 96 [1 2 3 5 6 7 8 9 10 11 12 13 14 15 16 17 19 18 20 21 22 23 24 25 27 28 29 30 31 32 33 34 35 36 37 38 39 40 41 42 43 44 45 46 47 48 49 52 53 54 55 56 57 58 59 60 62 61 63 64 65 67 68 69 70 71 72 73 74 75 76 77 78 79 80 81 82 84 83 85 86 87 88 89 90 91 92 93 94 95 96 97 98 99 100 101 102 103 104 105 106 107 108 109 110 111 114 115 116 117 118 119 120 121 122 123 124 125]</text>
<polyline fill="none" stroke="#0058ad" points="5763,-81.5 5763,-110.5 "/>
<text text-anchor="middle" x="5795" y="-92.3" font-family="Times,serif" font-size="14.00" fill="#0058ad">a 96 126</text>
</g>
<!-- T22057 -->
<g id="node2" class="node">
<title>T22057</title>
<polygon fill="none" stroke="#0058ad" points="1682.5,-.5 1682.5,-29.5 4008.5,-29.5 4008.5,-.5 1682.5,-.5"/>
<text text-anchor="middle" x="2778" y="-11.3" font-family="Times,serif" font-size="14.00" fill="#0058ad">r 96 [1 2 3 5 6 7 8 9 10 11 12 13 14 15 16 17 19 18 20 21 22 23 24 25 27 28 29 30 31 32 33 34 35 36 37 38 39 40 41 42 43 44 45 46 47 48 49 52 53 54 55 56 57 58 59 60 62 61 63 64 65 67 68 69 70 71 72 73 74 75 76 77 78 79 80 81 82 84 83 85 86 87 88 89 90 91 92 93 94 95 96 97 98 99 100 101 102 103 104 105 106 107 108 109 110 111 114 115 116 117 118 119 120 121 122 123 124 125]</text>
<polyline fill="none" stroke="#0058ad" points="3873.5,-.5 3873.5,-29.5 "/>
<text text-anchor="middle" x="3909" y="-11.3" font-family="Times,serif" font-size="14.00" fill="#0058ad">a 110 113</text>
<polyline fill="none" stroke="#0058ad" points="3944.5,-.5 3944.5,-29.5 "/>
<text text-anchor="middle" x="3976.5" y="-11.3" font-family="Times,serif" font-size="14.00" fill="#0058ad">a 108 79</text>
</g>
<!-- T22059&#45;&gt;T22057 -->
<g id="edge1" class="edge">
<title>T22059:f0&#45;&gt;T22057:f1</title>
<path fill="none" stroke="#5b00c0" d="M892.5,-81C892.5,83.1972 3787.0247,-186.1656 3905.7455,-39.7511"/>
<polygon fill="#5b00c0" stroke="#5b00c0" points="3909.173,-40.5898 3909.5,-30 3902.6405,-38.0745 3909.173,-40.5898"/>
<text text-anchor="middle" x="3902" y="-51.8" font-family="Times,serif" font-size="14.00" fill="#5b00c0">rw</text>
</g>
<!-- T22057&#45;&gt;T22059 -->
<g id="edge2" class="edge">
<title>T22057:f0&#45;&gt;T22059:f3</title>
<path fill="none" stroke="#5b00c0" d="M2777.5,-30C2777.5,-45.7798 3897.7224,-47.7367 3913.5,-48 4014.8918,-49.6922 5689.4146,19.2013 5790.7088,-71.9848"/>
<polygon fill="#5b00c0" stroke="#5b00c0" points="5787.7163,-73.8122 5795.5,-81 5793.8975,-70.527 5787.7163,-73.8122"/>
<text text-anchor="middle" x="5770" y="-51.8" font-family="Times,serif" font-size="14.00" fill="#5b00c0">rw</text>
</g>
</g>
</svg>
