<?xml version="1.0" encoding="UTF-8" standalone="no"?>
<!DOCTYPE svg PUBLIC "-//W3C//DTD SVG 1.1//EN"
 "http://www.w3.org/Graphics/SVG/1.1/DTD/svg11.dtd">
<!-- Generated by graphviz version 2.40.1 (20161225.0304)
 -->
<!-- Title: a_graph Pages: 1 -->
<svg width="2211pt" height="119pt"
 viewBox="0.00 0.00 2211.00 119.00" xmlns="http://www.w3.org/2000/svg" xmlns:xlink="http://www.w3.org/1999/xlink">
<g id="graph0" class="graph" transform="scale(1 1) rotate(0) translate(4 115)">
<title>a_graph</title>
<polygon fill="#ffffff" stroke="transparent" points="-4,4 -4,-115 2207,-115 2207,4 -4,4"/>
<!-- T6813 -->
<g id="node1" class="node">
<title>T6813</title>
<polygon fill="none" stroke="#0058ad" points="415,-81.5 415,-110.5 1614,-110.5 1614,-81.5 415,-81.5"/>
<text text-anchor="middle" x="443.5" y="-92.3" font-family="Times,serif" font-size="14.00" fill="#0058ad">a 36 62</text>
<polyline fill="none" stroke="#0058ad" points="472,-81.5 472,-110.5 "/>
<text text-anchor="middle" x="1043" y="-92.3" font-family="Times,serif" font-size="14.00" fill="#0058ad">r 37 [1 2 3 5 7 8 6 4 10 9 11 13 12 14 15 16 18 19 17 22 21 20 23 26 24 25 27 28 29 30 33 34 31 32 35 37 38 39 40 41 36 42 43 44 45 46 47 48 49 51 50 52 54 55 56 57 58 53 59 60 61 62 63 64 65 66 67]</text>
</g>
<!-- T6815 -->
<g id="node2" class="node">
<title>T6815</title>
<polygon fill="none" stroke="#0058ad" points="0,-.5 0,-29.5 2203,-29.5 2203,-.5 0,-.5"/>
<text text-anchor="middle" x="493" y="-11.3" font-family="Times,serif" font-size="14.00" fill="#0058ad">r 36 [1 2 6 9 10 11 13 14 12 15 16 17 18 19 20 21 22 23 24 25 26 27 28 29 30 31 32 33 34 35 36 37 38 39 41 40 42 44 43 45 46 47 48 49 51 50 52 53 55 54 57 58 56 59 60 61]</text>
<polyline fill="none" stroke="#0058ad" points="986,-.5 986,-29.5 "/>
<text text-anchor="middle" x="1014.5" y="-11.3" font-family="Times,serif" font-size="14.00" fill="#0058ad">a 37 68</text>
<polyline fill="none" stroke="#0058ad" points="1043,-.5 1043,-29.5 "/>
<text text-anchor="middle" x="1623" y="-11.3" font-family="Times,serif" font-size="14.00" fill="#0058ad">r 37 [1 2 3 5 7 8 6 4 10 9 11 13 12 14 15 16 18 19 17 22 21 20 23 26 24 25 27 28 29 30 33 34 31 32 35 37 38 39 40 41 36 42 43 44 45 46 47 48 49 51 50 52 54 55 56 57 58 53 59 60 61 62 63 64 65 66 67 68]</text>
</g>
<!-- T6813&#45;&gt;T6815 -->
<g id="edge1" class="edge">
<title>T6813:f1&#45;&gt;T6815:f1</title>
<path fill="none" stroke="#5b00c0" d="M1043.5,-81C1043.5,-58.7956 1022.4704,-56.3334 1016.2272,-39.99"/>
<polygon fill="#5b00c0" stroke="#5b00c0" points="1019.6526,-39.2575 1014.5,-30 1012.7549,-40.4501 1019.6526,-39.2575"/>
<text text-anchor="middle" x="1043" y="-51.8" font-family="Times,serif" font-size="14.00" fill="#5b00c0">rw</text>
</g>
<!-- T6815&#45;&gt;T6813 -->
<g id="edge2" class="edge">
<title>T6815:f0&#45;&gt;T6813:f0</title>
<path fill="none" stroke="#5b00c0" d="M492.5,-30C492.5,-57.5041 454.9844,-51.8568 445.6055,-71.0731"/>
<polygon fill="#5b00c0" stroke="#5b00c0" points="442.1511,-70.4914 443.5,-81 448.9987,-71.9438 442.1511,-70.4914"/>
<text text-anchor="middle" x="491" y="-51.8" font-family="Times,serif" font-size="14.00" fill="#5b00c0">rw</text>
</g>
</g>
</svg>
