<?xml version="1.0" encoding="UTF-8" standalone="no"?>
<!DOCTYPE svg PUBLIC "-//W3C//DTD SVG 1.1//EN"
 "http://www.w3.org/Graphics/SVG/1.1/DTD/svg11.dtd">
<!-- Generated by graphviz version 2.40.1 (20161225.0304)
 -->
<!-- Title: a_graph Pages: 1 -->
<svg width="1475pt" height="119pt"
 viewBox="0.00 0.00 1475.00 119.00" xmlns="http://www.w3.org/2000/svg" xmlns:xlink="http://www.w3.org/1999/xlink">
<g id="graph0" class="graph" transform="scale(1 1) rotate(0) translate(4 115)">
<title>a_graph</title>
<polygon fill="#ffffff" stroke="transparent" points="-4,4 -4,-115 1471,-115 1471,4 -4,4"/>
<!-- T2959 -->
<g id="node1" class="node">
<title>T2959</title>
<polygon fill="none" stroke="#0058ad" points="259.5,-81.5 259.5,-110.5 1389.5,-110.5 1389.5,-81.5 259.5,-81.5"/>
<text text-anchor="middle" x="288" y="-92.3" font-family="Times,serif" font-size="14.00" fill="#0058ad">a 20 29</text>
<polyline fill="none" stroke="#0058ad" points="316.5,-81.5 316.5,-110.5 "/>
<text text-anchor="middle" x="345" y="-92.3" font-family="Times,serif" font-size="14.00" fill="#0058ad">a 15 96</text>
<polyline fill="none" stroke="#0058ad" points="373.5,-81.5 373.5,-110.5 "/>
<text text-anchor="middle" x="881.5" y="-92.3" font-family="Times,serif" font-size="14.00" fill="#0058ad">r 6 [1 2 3 4 5 6 7 8 9 10 11 12 13 14 15 16 17 18 21 23 24 28 29 30 31 32 35 36 37 38 33 34 39 40 99 100 101 102 103 104 105 106 107 108 109 110 111 112 113 114 115 116 117]</text>
</g>
<!-- T2955 -->
<g id="node2" class="node">
<title>T2955</title>
<polygon fill="none" stroke="#0058ad" points="0,-.5 0,-29.5 1467,-29.5 1467,-.5 0,-.5"/>
<text text-anchor="middle" x="235" y="-11.3" font-family="Times,serif" font-size="14.00" fill="#0058ad">r 20 [1 2 3 4 5 6 7 9 8 11 10 12 14 13 15 18 16 17 19 20 21 22 23 24 25 27 28 26]</text>
<polyline fill="none" stroke="#0058ad" points="470,-.5 470,-29.5 "/>
<text text-anchor="middle" x="705" y="-11.3" font-family="Times,serif" font-size="14.00" fill="#0058ad">r 20 [1 2 3 4 5 6 7 9 8 11 10 12 14 13 15 18 16 17 19 20 21 22 23 24 25 27 28 26]</text>
<polyline fill="none" stroke="#0058ad" points="940,-.5 940,-29.5 "/>
<text text-anchor="middle" x="968.5" y="-11.3" font-family="Times,serif" font-size="14.00" fill="#0058ad">a 6 118</text>
<polyline fill="none" stroke="#0058ad" points="997,-.5 997,-29.5 "/>
<text text-anchor="middle" x="1232" y="-11.3" font-family="Times,serif" font-size="14.00" fill="#0058ad">r 20 [1 2 3 4 5 6 7 9 8 11 10 12 14 13 15 18 16 17 19 20 21 22 23 24 25 27 28 26]</text>
</g>
<!-- T2959&#45;&gt;T2955 -->
<g id="edge1" class="edge">
<title>T2959:f2&#45;&gt;T2955:f2</title>
<path fill="none" stroke="#5b00c0" d="M881.5,-81C881.5,-40.2062 953.5694,-68.551 966.5194,-40.1805"/>
<polygon fill="#5b00c0" stroke="#5b00c0" points="970.0259,-40.4844 968.5,-30 963.1547,-39.1476 970.0259,-40.4844"/>
<text text-anchor="middle" x="966" y="-51.8" font-family="Times,serif" font-size="14.00" fill="#5b00c0">rw</text>
</g>
<!-- T2955&#45;&gt;T2959 -->
<g id="edge2" class="edge">
<title>T2955:f0&#45;&gt;T2959:f0</title>
<path fill="none" stroke="#5b00c0" d="M234.5,-30C234.5,-57.4463 229.6251,-87.3928 249.42,-94.4506"/>
<polygon fill="#5b00c0" stroke="#5b00c0" points="249.0843,-97.94 259.5,-96 250.1478,-91.0213 249.0843,-97.94"/>
<text text-anchor="middle" x="242" y="-51.8" font-family="Times,serif" font-size="14.00" fill="#5b00c0">rw</text>
</g>
</g>
</svg>
