<?xml version="1.0" encoding="UTF-8" standalone="no"?>
<!DOCTYPE svg PUBLIC "-//W3C//DTD SVG 1.1//EN"
 "http://www.w3.org/Graphics/SVG/1.1/DTD/svg11.dtd">
<!-- Generated by graphviz version 2.40.1 (20161225.0304)
 -->
<!-- Title: a_graph Pages: 1 -->
<svg width="2118pt" height="119pt"
 viewBox="0.00 0.00 2118.00 119.00" xmlns="http://www.w3.org/2000/svg" xmlns:xlink="http://www.w3.org/1999/xlink">
<g id="graph0" class="graph" transform="scale(1 1) rotate(0) translate(4 115)">
<title>a_graph</title>
<polygon fill="#ffffff" stroke="transparent" points="-4,4 -4,-115 2114,-115 2114,4 -4,4"/>
<!-- T18237 -->
<g id="node1" class="node">
<title>T18237</title>
<polygon fill="none" stroke="#0058ad" points="274,-81.5 274,-110.5 2110,-110.5 2110,-81.5 274,-81.5"/>
<text text-anchor="middle" x="461.5" y="-92.3" font-family="Times,serif" font-size="14.00" fill="#0058ad">r 91 [43 44 45 46 47 49 48 51 50 52 53 54 55 56 57 59 58 60 61]</text>
<polyline fill="none" stroke="#0058ad" points="649,-81.5 649,-110.5 "/>
<text text-anchor="middle" x="681" y="-92.3" font-family="Times,serif" font-size="14.00" fill="#0058ad">a 92 110</text>
<polyline fill="none" stroke="#0058ad" points="713,-81.5 713,-110.5 "/>
<text text-anchor="middle" x="1224" y="-92.3" font-family="Times,serif" font-size="14.00" fill="#0058ad">r 72 [1 2 3 4 5 6 7 8 9 10 11 13 14 15 16 17 18 19 20 21 22 23 24 26 25 27 28 29 30 31 32 33 34 35 36 37 38 39 41 42 43 44 45 46 47 48 49 50 51 52 53 55 56 57 58 59 95 96 98 97]</text>
<polyline fill="none" stroke="#0058ad" points="1735,-81.5 1735,-110.5 "/>
<text text-anchor="middle" x="1922.5" y="-92.3" font-family="Times,serif" font-size="14.00" fill="#0058ad">r 91 [43 44 45 46 47 49 48 51 50 52 53 54 55 56 57 59 58 60 61]</text>
</g>
<!-- T18239 -->
<g id="node2" class="node">
<title>T18239</title>
<polygon fill="none" stroke="#0058ad" points="0,-.5 0,-29.5 1006,-29.5 1006,-.5 0,-.5"/>
<text text-anchor="middle" x="223" y="-11.3" font-family="Times,serif" font-size="14.00" fill="#0058ad">r 92 [81 82 90 91 92 93 94 95 96 97 98 101 99 100 102 103 104 107 108 109]</text>
<polyline fill="none" stroke="#0058ad" points="446,-.5 446,-29.5 "/>
<text text-anchor="middle" x="669" y="-11.3" font-family="Times,serif" font-size="14.00" fill="#0058ad">r 92 [81 82 90 91 92 93 94 95 96 97 98 101 99 100 102 103 104 107 108 109]</text>
<polyline fill="none" stroke="#0058ad" points="892,-.5 892,-29.5 "/>
<text text-anchor="middle" x="920.5" y="-11.3" font-family="Times,serif" font-size="14.00" fill="#0058ad">a 91 62</text>
<polyline fill="none" stroke="#0058ad" points="949,-.5 949,-29.5 "/>
<text text-anchor="middle" x="977.5" y="-11.3" font-family="Times,serif" font-size="14.00" fill="#0058ad">a 93 18</text>
</g>
<!-- T18237&#45;&gt;T18239 -->
<g id="edge1" class="edge">
<title>T18237:f0&#45;&gt;T18239:f2</title>
<path fill="none" stroke="#5b00c0" d="M461,-81C461,-17.9374 536.6018,-57.1297 599,-48 614.9276,-45.6696 862.1504,-47.4595 912.2033,-34.8537"/>
<polygon fill="#5b00c0" stroke="#5b00c0" points="913.9352,-37.8955 921,-30 910.5535,-31.7666 913.9352,-37.8955"/>
<text text-anchor="middle" x="606.5" y="-51.8" font-family="Times,serif" font-size="14.00" fill="#5b00c0">rw</text>
</g>
<!-- T18239&#45;&gt;T18237 -->
<g id="edge2" class="edge">
<title>T18239:f0&#45;&gt;T18237:f1</title>
<path fill="none" stroke="#5b00c0" d="M223,-30C223,-51.7452 592.9407,-42.5816 614,-48 642.3796,-55.3019 672.8684,-49.5604 679.6245,-70.9526"/>
<polygon fill="#5b00c0" stroke="#5b00c0" points="676.1759,-71.5672 681,-81 683.1112,-70.6177 676.1759,-71.5672"/>
<text text-anchor="middle" x="681.5" y="-51.8" font-family="Times,serif" font-size="14.00" fill="#5b00c0">rw</text>
</g>
</g>
</svg>
