<?xml version="1.0" encoding="UTF-8" standalone="no"?>
<!DOCTYPE svg PUBLIC "-//W3C//DTD SVG 1.1//EN"
 "http://www.w3.org/Graphics/SVG/1.1/DTD/svg11.dtd">
<!-- Generated by graphviz version 2.40.1 (20161225.0304)
 -->
<!-- Title: a_graph Pages: 1 -->
<svg width="668pt" height="200pt"
 viewBox="0.00 0.00 667.50 200.00" xmlns="http://www.w3.org/2000/svg" xmlns:xlink="http://www.w3.org/1999/xlink">
<g id="graph0" class="graph" transform="scale(1 1) rotate(0) translate(4 196)">
<title>a_graph</title>
<polygon fill="#ffffff" stroke="transparent" points="-4,4 -4,-196 663.5,-196 663.5,4 -4,4"/>
<!-- T23809 -->
<g id="node1" class="node">
<title>T23809</title>
<polygon fill="none" stroke="#0058ad" points="50.5,-162.5 50.5,-191.5 659.5,-191.5 659.5,-162.5 50.5,-162.5"/>
<text text-anchor="middle" x="323" y="-173.3" font-family="Times,serif" font-size="14.00" fill="#0058ad">r 119 [1 2 3 4 5 6 7 8 9 10 11 12 16 14 15 13 17 18 19 20 21 22 23 24 25 27 28 26 29 30 32 31]</text>
<polyline fill="none" stroke="#0058ad" points="595.5,-162.5 595.5,-191.5 "/>
<text text-anchor="middle" x="627.5" y="-173.3" font-family="Times,serif" font-size="14.00" fill="#0058ad">a 120 25</text>
</g>
<!-- T23807 -->
<g id="node3" class="node">
<title>T23807</title>
<polygon fill="none" stroke="#0058ad" points="0,-81.5 0,-110.5 484,-110.5 484,-81.5 0,-81.5"/>
<text text-anchor="middle" x="178" y="-92.3" font-family="Times,serif" font-size="14.00" fill="#0058ad">r 120 [1 2 3 5 6 7 4 8 11 12 13 9 10 14 15 16 18 17 19 20 21]</text>
<polyline fill="none" stroke="#0058ad" points="356,-81.5 356,-110.5 "/>
<text text-anchor="middle" x="388" y="-92.3" font-family="Times,serif" font-size="14.00" fill="#0058ad">a 119 33</text>
<polyline fill="none" stroke="#0058ad" points="420,-81.5 420,-110.5 "/>
<text text-anchor="middle" x="452" y="-92.3" font-family="Times,serif" font-size="14.00" fill="#0058ad">a 119 34</text>
</g>
<!-- T23809&#45;&gt;T23807 -->
<g id="edge1" class="edge">
<title>T23809:f0&#45;&gt;T23807:f1</title>
<path fill="none" stroke="#5b00c0" d="M323,-162C323,-129.2964 374.5588,-143.5189 385.8373,-121.0804"/>
<polygon fill="#5b00c0" stroke="#5b00c0" points="389.3244,-121.5117 388,-111 382.4801,-120.0433 389.3244,-121.5117"/>
<text text-anchor="middle" x="385.5" y="-132.8" font-family="Times,serif" font-size="14.00" fill="#5b00c0">rw</text>
</g>
<!-- T23805 -->
<g id="node2" class="node">
<title>T23805</title>
<polygon fill="none" stroke="#0058ad" points="349,-.5 349,-29.5 541,-29.5 541,-.5 349,-.5"/>
<text text-anchor="middle" x="381" y="-11.3" font-family="Times,serif" font-size="14.00" fill="#0058ad">a 120 22</text>
<polyline fill="none" stroke="#0058ad" points="413,-.5 413,-29.5 "/>
<text text-anchor="middle" x="445" y="-11.3" font-family="Times,serif" font-size="14.00" fill="#0058ad">a 120 23</text>
<polyline fill="none" stroke="#0058ad" points="477,-.5 477,-29.5 "/>
<text text-anchor="middle" x="509" y="-11.3" font-family="Times,serif" font-size="14.00" fill="#0058ad">a 120 24</text>
</g>
<!-- T23805&#45;&gt;T23809 -->
<g id="edge2" class="edge">
<title>T23805:f2&#45;&gt;T23809:f1</title>
<path fill="none" stroke="#c02700" d="M541,-15C613.5077,-15 626.8735,-79.8391 627.928,-151.8041"/>
<polygon fill="#c02700" stroke="#c02700" points="624.4294,-152.025 628,-162 631.4292,-151.9755 624.4294,-152.025"/>
<text text-anchor="middle" x="635" y="-92.3" font-family="Times,serif" font-size="14.00" fill="#c02700">ww</text>
</g>
<!-- T23807&#45;&gt;T23805 -->
<g id="edge3" class="edge">
<title>T23807:f0&#45;&gt;T23805:f0</title>
<path fill="none" stroke="#5b00c0" d="M178,-81C178,-43.2113 290.1203,-18.7327 338.8496,-15.3922"/>
<polygon fill="#5b00c0" stroke="#5b00c0" points="339.1426,-18.8836 349,-15 338.8723,-11.8888 339.1426,-18.8836"/>
<text text-anchor="middle" x="215.5" y="-51.8" font-family="Times,serif" font-size="14.00" fill="#5b00c0">rw</text>
</g>
</g>
</svg>
