<?xml version="1.0" encoding="UTF-8" standalone="no"?>
<!DOCTYPE svg PUBLIC "-//W3C//DTD SVG 1.1//EN"
 "http://www.w3.org/Graphics/SVG/1.1/DTD/svg11.dtd">
<!-- Generated by graphviz version 2.40.1 (20161225.0304)
 -->
<!-- Title: a_graph Pages: 1 -->
<svg width="2913pt" height="119pt"
 viewBox="0.00 0.00 2912.50 119.00" xmlns="http://www.w3.org/2000/svg" xmlns:xlink="http://www.w3.org/1999/xlink">
<g id="graph0" class="graph" transform="scale(1 1) rotate(0) translate(4 115)">
<title>a_graph</title>
<polygon fill="#ffffff" stroke="transparent" points="-4,4 -4,-115 2908.5,-115 2908.5,4 -4,4"/>
<!-- T4981 -->
<g id="node1" class="node">
<title>T4981</title>
<polygon fill="none" stroke="#0058ad" points="842.5,-81.5 842.5,-110.5 2904.5,-110.5 2904.5,-81.5 842.5,-81.5"/>
<text text-anchor="middle" x="1120" y="-92.3" font-family="Times,serif" font-size="14.00" fill="#0058ad">r 30 [4 5 6 7 12 11 14 13 15 16 17 18 19 20 21 22 25 26 27 24 28 29 23 32 31 33 34 35 36 37 38]</text>
<polyline fill="none" stroke="#0058ad" points="1397.5,-81.5 1397.5,-110.5 "/>
<text text-anchor="middle" x="1577" y="-92.3" font-family="Times,serif" font-size="14.00" fill="#0058ad">r 29 [2 6 7 8 9 10 11 12 13 14 15 18 17 19 16 20 21 22 23 24]</text>
<polyline fill="none" stroke="#0058ad" points="1756.5,-81.5 1756.5,-110.5 "/>
<text text-anchor="middle" x="1785" y="-92.3" font-family="Times,serif" font-size="14.00" fill="#0058ad">a 29 25</text>
<polyline fill="none" stroke="#0058ad" points="1813.5,-81.5 1813.5,-110.5 "/>
<text text-anchor="middle" x="2359" y="-92.3" font-family="Times,serif" font-size="14.00" fill="#0058ad">r 24 [1 2 3 4 5 6 7 8 9 10 11 12 13 14 15 16 17 18 19 20 21 24 23 22 25 26 27 28 29 30 32 31 33 34 35 36 37 39 40 41 42 43 44 45 46 47 48 49 50 51 52 53 54 55 56 57 58 59 60 61 62 63 64 65]</text>
</g>
<!-- T4979 -->
<g id="node2" class="node">
<title>T4979</title>
<polygon fill="none" stroke="#0058ad" points="0,-.5 0,-29.5 2753,-29.5 2753,-.5 0,-.5"/>
<text text-anchor="middle" x="179.5" y="-11.3" font-family="Times,serif" font-size="14.00" fill="#0058ad">r 29 [2 6 7 8 9 10 11 12 13 14 15 18 17 19 16 20 21 22 23 24]</text>
<polyline fill="none" stroke="#0058ad" points="359,-.5 359,-29.5 "/>
<text text-anchor="middle" x="391" y="-11.3" font-family="Times,serif" font-size="14.00" fill="#0058ad">a 23 126</text>
<polyline fill="none" stroke="#0058ad" points="423,-.5 423,-29.5 "/>
<text text-anchor="middle" x="1559.5" y="-11.3" font-family="Times,serif" font-size="14.00" fill="#0058ad">r 23 [1 2 3 4 5 6 9 7 8 10 11 12 13 15 14 16 17 18 19 20 23 21 22 24 25 26 27 28 29 30 31 32 33 34 35 36 38 39 42 43 45 44 47 48 46 49 50 51 52 54 53 55 56 57 58 59 60 61 62 63 64 65 66 67 68 69 70 71 72 73 74 75 76 78 79 80 81 82 83 84 86 85 87 88 89 90 91 93 94 95 96 92 97 98 99 100 101 102 103 105 106 107 108 104 109 110 111 112 113 114 115 116 117 118 119 122 123 124 125 127 128 126]</text>
<polyline fill="none" stroke="#0058ad" points="2696,-.5 2696,-29.5 "/>
<text text-anchor="middle" x="2724.5" y="-11.3" font-family="Times,serif" font-size="14.00" fill="#0058ad">a 30 30</text>
</g>
<!-- T4981&#45;&gt;T4979 -->
<g id="edge1" class="edge">
<title>T4981:f0&#45;&gt;T4979:f3</title>
<path fill="none" stroke="#5b00c0" d="M1119.5,-81C1119.5,23.9233 1485.6733,-52.5009 1590.5,-48 1605.3615,-47.3619 2603.4221,-45.9242 2714.4883,-32.5009"/>
<polygon fill="#5b00c0" stroke="#5b00c0" points="2715.6464,-35.8193 2724.5,-30 2713.9499,-29.028 2715.6464,-35.8193"/>
<text text-anchor="middle" x="1598" y="-51.8" font-family="Times,serif" font-size="14.00" fill="#5b00c0">rw</text>
</g>
<!-- T4979&#45;&gt;T4981 -->
<g id="edge2" class="edge">
<title>T4979:f0&#45;&gt;T4981:f2</title>
<path fill="none" stroke="#5b00c0" d="M179.5,-30C179.5,-49.8071 1585.7869,-46.0725 1605.5,-48 1682.3955,-55.5185 1775.6878,-4.9858 1783.9143,-70.9072"/>
<polygon fill="#5b00c0" stroke="#5b00c0" points="1780.4265,-71.2196 1784.5,-81 1787.4147,-70.814 1780.4265,-71.2196"/>
<text text-anchor="middle" x="1789" y="-51.8" font-family="Times,serif" font-size="14.00" fill="#5b00c0">rw</text>
</g>
</g>
</svg>
