<?xml version="1.0" encoding="UTF-8" standalone="no"?>
<!DOCTYPE svg PUBLIC "-//W3C//DTD SVG 1.1//EN"
 "http://www.w3.org/Graphics/SVG/1.1/DTD/svg11.dtd">
<!-- Generated by graphviz version 2.40.1 (20161225.0304)
 -->
<!-- Title: a_graph Pages: 1 -->
<svg width="1489pt" height="281pt"
 viewBox="0.00 0.00 1489.00 281.00" xmlns="http://www.w3.org/2000/svg" xmlns:xlink="http://www.w3.org/1999/xlink">
<g id="graph0" class="graph" transform="scale(1 1) rotate(0) translate(4 277)">
<title>a_graph</title>
<polygon fill="#ffffff" stroke="transparent" points="-4,4 -4,-277 1485,-277 1485,4 -4,4"/>
<!-- T5107 -->
<g id="node1" class="node">
<title>T5107</title>
<polygon fill="none" stroke="#0058ad" points="96,-243.5 96,-272.5 1131,-272.5 1131,-243.5 96,-243.5"/>
<text text-anchor="middle" x="491" y="-254.3" font-family="Times,serif" font-size="14.00" fill="#0058ad">r 29 [2 6 7 8 9 10 11 12 13 14 15 18 17 19 16 20 21 22 23 24 25 26 27 29 30 31 32 28 33 34 35 36 37 38 39 40 41 42 43 44 46 47 49 48 50]</text>
<polyline fill="none" stroke="#0058ad" points="886,-243.5 886,-272.5 "/>
<text text-anchor="middle" x="914.5" y="-254.3" font-family="Times,serif" font-size="14.00" fill="#0058ad">a 29 45</text>
<polyline fill="none" stroke="#0058ad" points="943,-243.5 943,-272.5 "/>
<text text-anchor="middle" x="1008.5" y="-254.3" font-family="Times,serif" font-size="14.00" fill="#0058ad">r 31 [1 3 2 4 5 6 7 8]</text>
<polyline fill="none" stroke="#0058ad" points="1074,-243.5 1074,-272.5 "/>
<text text-anchor="middle" x="1102.5" y="-254.3" font-family="Times,serif" font-size="14.00" fill="#0058ad">a 30 73</text>
</g>
<!-- T5101 -->
<g id="node4" class="node">
<title>T5101</title>
<polygon fill="none" stroke="#0058ad" points="193.5,-162.5 193.5,-191.5 1033.5,-191.5 1033.5,-162.5 193.5,-162.5"/>
<text text-anchor="middle" x="588.5" y="-173.3" font-family="Times,serif" font-size="14.00" fill="#0058ad">r 29 [2 6 7 8 9 10 11 12 13 14 15 18 17 19 16 20 21 22 23 24 25 26 27 29 30 31 32 28 33 34 35 36 37 38 39 40 41 42 43 44 46 47 49 48 50]</text>
<polyline fill="none" stroke="#0058ad" points="983.5,-162.5 983.5,-191.5 "/>
<text text-anchor="middle" x="1008.5" y="-173.3" font-family="Times,serif" font-size="14.00" fill="#0058ad">a 31 9</text>
</g>
<!-- T5107&#45;&gt;T5101 -->
<g id="edge1" class="edge">
<title>T5107:f2&#45;&gt;T5101:f1</title>
<path fill="none" stroke="#5b00c0" d="M1008.5,-243C1008.5,-224.2292 1008.5,-217.1168 1008.5,-202.3535"/>
<polygon fill="#5b00c0" stroke="#5b00c0" points="1012.0001,-202 1008.5,-192 1005.0001,-202 1012.0001,-202"/>
<text text-anchor="middle" x="1016" y="-213.8" font-family="Times,serif" font-size="14.00" fill="#5b00c0">rw</text>
</g>
<!-- T5103 -->
<g id="node2" class="node">
<title>T5103</title>
<polygon fill="none" stroke="#0058ad" points="0,-81.5 0,-110.5 1125,-110.5 1125,-81.5 0,-81.5"/>
<text text-anchor="middle" x="562.5" y="-92.3" font-family="Times,serif" font-size="14.00" fill="#0058ad">r 24 [1 2 3 4 5 6 7 8 9 10 11 12 13 14 15 16 17 18 19 20 21 24 23 22 25 26 27 28 29 30 32 31 33 34 35 36 37 39 40 41 42 43 44 45 46 47 48 49 50 51 52 53 54 55 56 57 58 59 60 61 62 63 64 65 66 67]</text>
</g>
<!-- T5105 -->
<g id="node3" class="node">
<title>T5105</title>
<polygon fill="none" stroke="#0058ad" points="236,-.5 236,-29.5 1481,-29.5 1481,-.5 236,-.5"/>
<text text-anchor="middle" x="858.5" y="-11.3" font-family="Times,serif" font-size="14.00" fill="#0058ad">r 30 [4 5 6 7 12 11 14 13 15 16 17 18 19 20 21 22 25 26 27 24 28 29 23 32 31 33 34 35 36 37 38 30 40 41 42 45 43 44 39 47 46 48 49 50 51 52 53 54 55 56 57 58 59 60 63 61 62 64 65 67 66 69 70 71 72 68 74 75 77 76 78]</text>
</g>
<!-- T5103&#45;&gt;T5105 -->
<g id="edge2" class="edge">
<title>T5103&#45;&gt;T5105</title>
<path fill="none" stroke="#0050c0" d="M615.7607,-81.4253C666.2159,-67.6183 742.014,-46.8762 795.4601,-32.2508"/>
<polygon fill="#0050c0" stroke="#0050c0" points="796.4468,-35.6095 805.1684,-29.5941 794.5992,-28.8578 796.4468,-35.6095"/>
<text text-anchor="middle" x="742" y="-51.8" font-family="Times,serif" font-size="14.00" fill="#0050c0">rt</text>
</g>
<!-- T5105&#45;&gt;T5107 -->
<g id="edge3" class="edge">
<title>T5105:f0&#45;&gt;T5107:f3</title>
<path fill="none" stroke="#5b00c0" d="M1060.1426,-29.5573C1089.0046,-40.3928 1115.3496,-56.7302 1134.5,-81 1180.9522,-139.87 1207.6043,-247.3142 1141.8765,-257.2578"/>
<polygon fill="#5b00c0" stroke="#5b00c0" points="1141.2248,-253.7954 1131.5,-258 1141.7243,-260.7775 1141.2248,-253.7954"/>
<text text-anchor="middle" x="1176" y="-132.8" font-family="Times,serif" font-size="14.00" fill="#5b00c0">rw</text>
</g>
<!-- T5101&#45;&gt;T5107 -->
<g id="edge5" class="edge">
<title>T5101:f0&#45;&gt;T5107:f1</title>
<path fill="none" stroke="#5b00c0" d="M588.5,-192C588.5,-335.0708 898.7763,-107.9482 913.9266,-232.9431"/>
<polygon fill="#5b00c0" stroke="#5b00c0" points="910.4363,-233.2155 914.5,-243 917.425,-232.8169 910.4363,-233.2155"/>
<text text-anchor="middle" x="919" y="-213.8" font-family="Times,serif" font-size="14.00" fill="#5b00c0">rw</text>
</g>
<!-- T5101&#45;&gt;T5103 -->
<g id="edge4" class="edge">
<title>T5101&#45;&gt;T5103</title>
<path fill="none" stroke="#0050c0" d="M604.1458,-162.1434C596.5973,-150.1545 585.8421,-133.0727 577.1524,-119.2715"/>
<polygon fill="#0050c0" stroke="#0050c0" points="580.0849,-117.3599 571.7949,-110.7625 574.1612,-121.0897 580.0849,-117.3599"/>
<text text-anchor="middle" x="598" y="-132.8" font-family="Times,serif" font-size="14.00" fill="#0050c0">rt</text>
</g>
</g>
</svg>
