<?xml version="1.0" encoding="UTF-8" standalone="no"?>
<!DOCTYPE svg PUBLIC "-//W3C//DTD SVG 1.1//EN"
 "http://www.w3.org/Graphics/SVG/1.1/DTD/svg11.dtd">
<!-- Generated by graphviz version 2.40.1 (20161225.0304)
 -->
<!-- Title: a_graph Pages: 1 -->
<svg width="3128pt" height="200pt"
 viewBox="0.00 0.00 3128.00 200.00" xmlns="http://www.w3.org/2000/svg" xmlns:xlink="http://www.w3.org/1999/xlink">
<g id="graph0" class="graph" transform="scale(1 1) rotate(0) translate(4 196)">
<title>a_graph</title>
<polygon fill="#ffffff" stroke="transparent" points="-4,4 -4,-196 3124,-196 3124,4 -4,4"/>
<!-- T10337 -->
<g id="node1" class="node">
<title>T10337</title>
<polygon fill="none" stroke="#0058ad" points="2713.5,-162.5 2713.5,-191.5 3062.5,-191.5 3062.5,-162.5 2713.5,-162.5"/>
<text text-anchor="middle" x="2742" y="-173.3" font-family="Times,serif" font-size="14.00" fill="#0058ad">a 40 64</text>
<polyline fill="none" stroke="#0058ad" points="2770.5,-162.5 2770.5,-191.5 "/>
<text text-anchor="middle" x="2884.5" y="-173.3" font-family="Times,serif" font-size="14.00" fill="#0058ad">r 56 [1 2 4 3 6 7 8 5 11 9 10 12 13 14]</text>
<polyline fill="none" stroke="#0058ad" points="2998.5,-162.5 2998.5,-191.5 "/>
<text text-anchor="middle" x="3030.5" y="-173.3" font-family="Times,serif" font-size="14.00" fill="#0058ad">a 52 124</text>
</g>
<!-- T10335 -->
<g id="node2" class="node">
<title>T10335</title>
<polygon fill="none" stroke="#0058ad" points="0,-81.5 0,-110.5 3076,-110.5 3076,-81.5 0,-81.5"/>
<text text-anchor="middle" x="1075" y="-92.3" font-family="Times,serif" font-size="14.00" fill="#0058ad">r 52 [1 2 3 5 6 7 4 8 9 10 11 12 14 13 15 16 17 18 19 20 21 22 24 25 23 26 27 28 29 30 31 32 34 33 35 36 37 38 39 40 41 42 43 44 45 46 47 48 49 50 51 52 53 54 55 56 57 58 59 60 61 62 63 64 65 66 67 68 69 70 71 72 73 78 79 81 83 82 84 85 86 87 88 89 93 92 94 95 96 97 98 99 100 101 102 103 104 105 107 106 108 109 110 111 112 113 114 115 116 117 119 118 120 121 122 123]</text>
<polyline fill="none" stroke="#0058ad" points="2150,-81.5 2150,-110.5 "/>
<text text-anchor="middle" x="2462" y="-92.3" font-family="Times,serif" font-size="14.00" fill="#0058ad">r 3 [1 2 9 10 11 12 13 14 15 16 18 19 20 21 22 23 24 25 26 27 28 29 30 31 32 33 34 35 43 44 45 46 47 48 49]</text>
<polyline fill="none" stroke="#0058ad" points="2774,-81.5 2774,-110.5 "/>
<text text-anchor="middle" x="2802.5" y="-92.3" font-family="Times,serif" font-size="14.00" fill="#0058ad">a 56 15</text>
<polyline fill="none" stroke="#0058ad" points="2831,-81.5 2831,-110.5 "/>
<text text-anchor="middle" x="2953.5" y="-92.3" font-family="Times,serif" font-size="14.00" fill="#0058ad">r 56 [1 2 4 3 6 7 8 5 11 9 10 12 13 14 15]</text>
</g>
<!-- T10337&#45;&gt;T10335 -->
<g id="edge1" class="edge">
<title>T10337:f1&#45;&gt;T10335:f2</title>
<path fill="none" stroke="#5b00c0" d="M2884,-162C2884,-123.4468 2817.4756,-147.8244 2805.0023,-121.0707"/>
<polygon fill="#5b00c0" stroke="#5b00c0" points="2808.3829,-120.1255 2803,-111 2801.5173,-121.4906 2808.3829,-120.1255"/>
<text text-anchor="middle" x="2880.5" y="-132.8" font-family="Times,serif" font-size="14.00" fill="#5b00c0">rw</text>
</g>
<!-- T10333 -->
<g id="node3" class="node">
<title>T10333</title>
<polygon fill="none" stroke="#0058ad" points="2570,-.5 2570,-29.5 2634,-29.5 2634,-.5 2570,-.5"/>
<text text-anchor="middle" x="2602" y="-11.3" font-family="Times,serif" font-size="14.00" fill="#0058ad">a 52 125</text>
</g>
<!-- T10335&#45;&gt;T10333 -->
<g id="edge2" class="edge">
<title>T10335:f0&#45;&gt;T10333:f0</title>
<path fill="none" stroke="#5b00c0" d="M1075,-81C1075,-.2497 2410.2368,-46.6367 2561.6365,-31.0599"/>
<polygon fill="#5b00c0" stroke="#5b00c0" points="2562.4254,-34.4808 2571.7952,-29.5353 2561.3864,-27.5583 2562.4254,-34.4808"/>
<text text-anchor="middle" x="1204.5" y="-51.8" font-family="Times,serif" font-size="14.00" fill="#5b00c0">rw</text>
</g>
<!-- T10333&#45;&gt;T10337 -->
<g id="edge3" class="edge">
<title>T10333:f0&#45;&gt;T10337:f2</title>
<path fill="none" stroke="#c02700" d="M2632.5784,-29.5811C2633.0536,-29.7267 2633.5277,-29.8665 2634,-30 2731.0583,-57.4341 3017.8068,-5.7802 3085,-81 3111.7691,-110.9668 3107.7389,-166.8124 3073.0376,-175.7729"/>
<polygon fill="#c02700" stroke="#c02700" points="3072.5014,-172.3124 3063,-177 3073.3508,-179.2606 3072.5014,-172.3124"/>
<text text-anchor="middle" x="3110" y="-92.3" font-family="Times,serif" font-size="14.00" fill="#c02700">ww</text>
</g>
</g>
</svg>
