<?xml version="1.0" encoding="UTF-8" standalone="no"?>
<!DOCTYPE svg PUBLIC "-//W3C//DTD SVG 1.1//EN"
 "http://www.w3.org/Graphics/SVG/1.1/DTD/svg11.dtd">
<!-- Generated by graphviz version 2.40.1 (20161225.0304)
 -->
<!-- Title: a_graph Pages: 1 -->
<svg width="3992pt" height="119pt"
 viewBox="0.00 0.00 3992.00 119.00" xmlns="http://www.w3.org/2000/svg" xmlns:xlink="http://www.w3.org/1999/xlink">
<g id="graph0" class="graph" transform="scale(1 1) rotate(0) translate(4 115)">
<title>a_graph</title>
<polygon fill="#ffffff" stroke="transparent" points="-4,4 -4,-115 3988,-115 3988,4 -4,4"/>
<!-- T10109 -->
<g id="node1" class="node">
<title>T10109</title>
<polygon fill="none" stroke="#0058ad" points="330,-81.5 330,-110.5 1988,-110.5 1988,-81.5 330,-81.5"/>
<text text-anchor="middle" x="1073.5" y="-92.3" font-family="Times,serif" font-size="14.00" fill="#0058ad">r 52 [1 2 3 5 6 7 4 8 9 10 11 12 14 13 15 16 17 18 19 20 21 22 24 25 23 26 27 28 29 30 31 32 34 33 35 36 37 38 39 40 41 42 43 44 45 46 47 48 49 50 51 52 53 54 55 56 57 58 59 60 61 62 63 64 65 66 67 68 69 70 71 72 73 78 79 81 83 82 84 85 86 87 88 89 93 92 94]</text>
<polyline fill="none" stroke="#0058ad" points="1817,-81.5 1817,-110.5 "/>
<text text-anchor="middle" x="1845.5" y="-92.3" font-family="Times,serif" font-size="14.00" fill="#0058ad">a 54 63</text>
<polyline fill="none" stroke="#0058ad" points="1874,-81.5 1874,-110.5 "/>
<text text-anchor="middle" x="1902.5" y="-92.3" font-family="Times,serif" font-size="14.00" fill="#0058ad">a 54 64</text>
<polyline fill="none" stroke="#0058ad" points="1931,-81.5 1931,-110.5 "/>
<text text-anchor="middle" x="1959.5" y="-92.3" font-family="Times,serif" font-size="14.00" fill="#0058ad">a 54 65</text>
</g>
<!-- T10107 -->
<g id="node2" class="node">
<title>T10107</title>
<polygon fill="none" stroke="#0058ad" points="0,-.5 0,-29.5 3984,-29.5 3984,-.5 0,-.5"/>
<text text-anchor="middle" x="467.5" y="-11.3" font-family="Times,serif" font-size="14.00" fill="#0058ad">r 54 [1 2 5 3 4 6 7 8 9 11 10 12 14 15 13 17 16 18 19 20 22 23 24 25 21 26 27 28 29 31 33 34 36 37 38 39 41 45 46 42 43 48 49 50 47 52 53 54 55 57 58 60 61 59 62]</text>
<polyline fill="none" stroke="#0058ad" points="935,-.5 935,-29.5 "/>
<text text-anchor="middle" x="1678.5" y="-11.3" font-family="Times,serif" font-size="14.00" fill="#0058ad">r 52 [1 2 3 5 6 7 4 8 9 10 11 12 14 13 15 16 17 18 19 20 21 22 24 25 23 26 27 28 29 30 31 32 34 33 35 36 37 38 39 40 41 42 43 44 45 46 47 48 49 50 51 52 53 54 55 56 57 58 59 60 61 62 63 64 65 66 67 68 69 70 71 72 73 78 79 81 83 82 84 85 86 87 88 89 93 92 94]</text>
<polyline fill="none" stroke="#0058ad" points="2422,-.5 2422,-29.5 "/>
<text text-anchor="middle" x="2450.5" y="-11.3" font-family="Times,serif" font-size="14.00" fill="#0058ad">a 52 95</text>
<polyline fill="none" stroke="#0058ad" points="2479,-.5 2479,-29.5 "/>
<text text-anchor="middle" x="3231.5" y="-11.3" font-family="Times,serif" font-size="14.00" fill="#0058ad">r 52 [1 2 3 5 6 7 4 8 9 10 11 12 14 13 15 16 17 18 19 20 21 22 24 25 23 26 27 28 29 30 31 32 34 33 35 36 37 38 39 40 41 42 43 44 45 46 47 48 49 50 51 52 53 54 55 56 57 58 59 60 61 62 63 64 65 66 67 68 69 70 71 72 73 78 79 81 83 82 84 85 86 87 88 89 93 92 94 95]</text>
</g>
<!-- T10109&#45;&gt;T10107 -->
<g id="edge1" class="edge">
<title>T10109:f0&#45;&gt;T10107:f2</title>
<path fill="none" stroke="#5b00c0" d="M1073,-81C1073,41.8857 1502.2163,-53.0062 1625,-48 1635.7152,-47.5631 2347.8485,-42.2437 2440.9919,-32.1828"/>
<polygon fill="#5b00c0" stroke="#5b00c0" points="2441.9755,-35.5506 2451,-30 2440.4838,-28.7114 2441.9755,-35.5506"/>
<text text-anchor="middle" x="1632.5" y="-51.8" font-family="Times,serif" font-size="14.00" fill="#5b00c0">rw</text>
</g>
<!-- T10107&#45;&gt;T10109 -->
<g id="edge2" class="edge">
<title>T10107:f0&#45;&gt;T10109:f1</title>
<path fill="none" stroke="#5b00c0" d="M467,-30C467,-46.2936 1623.7682,-46.5827 1640,-48 1728.7632,-55.7504 1837.1552,6.5427 1845.4879,-70.8547"/>
<polygon fill="#5b00c0" stroke="#5b00c0" points="1842.0002,-71.1892 1846,-81 1848.9913,-70.8362 1842.0002,-71.1892"/>
<text text-anchor="middle" x="1851.5" y="-51.8" font-family="Times,serif" font-size="14.00" fill="#5b00c0">rw</text>
</g>
</g>
</svg>
