<?xml version="1.0" encoding="UTF-8" standalone="no"?>
<!DOCTYPE svg PUBLIC "-//W3C//DTD SVG 1.1//EN"
 "http://www.w3.org/Graphics/SVG/1.1/DTD/svg11.dtd">
<!-- Generated by graphviz version 2.40.1 (20161225.0304)
 -->
<!-- Title: a_graph Pages: 1 -->
<svg width="3032pt" height="200pt"
 viewBox="0.00 0.00 3031.50 200.00" xmlns="http://www.w3.org/2000/svg" xmlns:xlink="http://www.w3.org/1999/xlink">
<g id="graph0" class="graph" transform="scale(1 1) rotate(0) translate(4 196)">
<title>a_graph</title>
<polygon fill="#ffffff" stroke="transparent" points="-4,4 -4,-196 3027.5,-196 3027.5,4 -4,4"/>
<!-- T513 -->
<g id="node1" class="node">
<title>T513</title>
<polygon fill="none" stroke="#0058ad" points="0,-162.5 0,-191.5 1506,-191.5 1506,-162.5 0,-162.5"/>
<text text-anchor="middle" x="671" y="-173.3" font-family="Times,serif" font-size="14.00" fill="#0058ad">r 8 [2 1 5 9 10 11 12 13 14 15 16 17 18 19 20 21 22 23 24 26 27 25 28 29 30 31 32 33 34 35 37 38 36 39 40 41 42 43 44 45 47 46 48 49 50 51 52 53 54 55 56 57 58 59 60 61 62 66 67 68 70 69 71 72 75 76 78 77 79 80 83 84 82 81 85 86 87]</text>
<polyline fill="none" stroke="#0058ad" points="1342,-162.5 1342,-191.5 "/>
<text text-anchor="middle" x="1367" y="-173.3" font-family="Times,serif" font-size="14.00" fill="#0058ad">a 7 41</text>
<polyline fill="none" stroke="#0058ad" points="1392,-162.5 1392,-191.5 "/>
<text text-anchor="middle" x="1420.5" y="-173.3" font-family="Times,serif" font-size="14.00" fill="#0058ad">a 10 18</text>
<polyline fill="none" stroke="#0058ad" points="1449,-162.5 1449,-191.5 "/>
<text text-anchor="middle" x="1477.5" y="-173.3" font-family="Times,serif" font-size="14.00" fill="#0058ad">a 10 19</text>
</g>
<!-- T511 -->
<g id="node2" class="node">
<title>T511</title>
<polygon fill="none" stroke="#0058ad" points="890.5,-.5 890.5,-29.5 2903.5,-29.5 2903.5,-.5 890.5,-.5"/>
<text text-anchor="middle" x="915.5" y="-11.3" font-family="Times,serif" font-size="14.00" fill="#0058ad">a 8 88</text>
<polyline fill="none" stroke="#0058ad" points="940.5,-.5 940.5,-29.5 "/>
<text text-anchor="middle" x="1242.5" y="-11.3" font-family="Times,serif" font-size="14.00" fill="#0058ad">r 7 [4 5 6 7 8 9 10 11 12 13 14 15 16 17 18 19 20 21 22 23 24 25 26 27 28 29 32 33 34 35 36 38 37 39 40]</text>
<polyline fill="none" stroke="#0058ad" points="1544.5,-.5 1544.5,-29.5 "/>
<text text-anchor="middle" x="2224" y="-11.3" font-family="Times,serif" font-size="14.00" fill="#0058ad">r 8 [2 1 5 9 10 11 12 13 14 15 16 17 18 19 20 21 22 23 24 26 27 25 28 29 30 31 32 33 34 35 37 38 36 39 40 41 42 43 44 45 47 46 48 49 50 51 52 53 54 55 56 57 58 59 60 61 62 66 67 68 70 69 71 72 75 76 78 77 79 80 83 84 82 81 85 86 87 88]</text>
</g>
<!-- T513&#45;&gt;T511 -->
<g id="edge2" class="edge">
<title>T513:f0&#45;&gt;T511:f0</title>
<path fill="none" stroke="#5b00c0" d="M671,-162C671,-48.2072 766.8969,-16.8196 879.7388,-15.0781"/>
<polygon fill="#5b00c0" stroke="#5b00c0" points="880.027,-18.5761 890,-15 879.9736,-11.5763 880.027,-18.5761"/>
<text text-anchor="middle" x="700.5" y="-92.3" font-family="Times,serif" font-size="14.00" fill="#5b00c0">rw</text>
</g>
<!-- T515 -->
<g id="node3" class="node">
<title>T515</title>
<polygon fill="none" stroke="#0058ad" points="1274.5,-81.5 1274.5,-110.5 3023.5,-110.5 3023.5,-81.5 1274.5,-81.5"/>
<text text-anchor="middle" x="1478" y="-92.3" font-family="Times,serif" font-size="14.00" fill="#0058ad">r 10 [2 3 4 6 5 7 8 9 11 10 13 15 14 12 16 17 21 22 20 23 24 25 18 19]</text>
<polyline fill="none" stroke="#0058ad" points="1681.5,-81.5 1681.5,-110.5 "/>
<text text-anchor="middle" x="2352.5" y="-92.3" font-family="Times,serif" font-size="14.00" fill="#0058ad">r 8 [2 1 5 9 10 11 12 13 14 15 16 17 18 19 20 21 22 23 24 26 27 25 28 29 30 31 32 33 34 35 37 38 36 39 40 41 42 43 44 45 47 46 48 49 50 51 52 53 54 55 56 57 58 59 60 61 62 66 67 68 70 69 71 72 75 76 78 77 79 80 83 84 82 81 85 86 87]</text>
</g>
<!-- T513&#45;&gt;T515 -->
<g id="edge1" class="edge">
<title>T513:f3&#45;&gt;T515:f0</title>
<path fill="none" stroke="#c000a5" d="M1478,-162C1478,-143.2292 1478,-136.1168 1478,-121.3535"/>
<polygon fill="#c000a5" stroke="#c000a5" points="1481.5001,-121 1478,-111 1474.5001,-121 1481.5001,-121"/>
<text text-anchor="middle" x="1485.5" y="-132.8" font-family="Times,serif" font-size="14.00" fill="#c000a5">wr</text>
</g>
<!-- T511&#45;&gt;T513 -->
<g id="edge3" class="edge">
<title>T511:f1&#45;&gt;T513:f1</title>
<path fill="none" stroke="#5b00c0" d="M1242,-30C1242,-66.2215 1229.5545,-81.8094 1251,-111 1281.9996,-153.1952 1355.6203,-112.337 1365.82,-151.6371"/>
<polygon fill="#5b00c0" stroke="#5b00c0" points="1362.391,-152.4602 1367,-162 1369.346,-151.6682 1362.391,-152.4602"/>
<text text-anchor="middle" x="1258.5" y="-92.3" font-family="Times,serif" font-size="14.00" fill="#5b00c0">rw</text>
</g>
<!-- T515&#45;&gt;T511 -->
<g id="edge4" class="edge">
<title>T515:f1&#45;&gt;T511:f0</title>
<path fill="none" stroke="#5b00c0" d="M2353,-81C2353,-4.1054 1022.4493,-101.9195 921.0987,-38.3329"/>
<polygon fill="#5b00c0" stroke="#5b00c0" points="923.7305,-36.0025 915,-30 918.0817,-40.1368 923.7305,-36.0025"/>
<text text-anchor="middle" x="2319.5" y="-51.8" font-family="Times,serif" font-size="14.00" fill="#5b00c0">rw</text>
</g>
</g>
</svg>
