<?xml version="1.0" encoding="UTF-8" standalone="no"?>
<!DOCTYPE svg PUBLIC "-//W3C//DTD SVG 1.1//EN"
 "http://www.w3.org/Graphics/SVG/1.1/DTD/svg11.dtd">
<!-- Generated by graphviz version 2.40.1 (20161225.0304)
 -->
<!-- Title: a_graph Pages: 1 -->
<svg width="874pt" height="200pt"
 viewBox="0.00 0.00 874.00 200.00" xmlns="http://www.w3.org/2000/svg" xmlns:xlink="http://www.w3.org/1999/xlink">
<g id="graph0" class="graph" transform="scale(1 1) rotate(0) translate(4 196)">
<title>a_graph</title>
<polygon fill="#ffffff" stroke="transparent" points="-4,4 -4,-196 870,-196 870,4 -4,4"/>
<!-- T11281 -->
<g id="node1" class="node">
<title>T11281</title>
<polygon fill="none" stroke="#0058ad" points="0,-162.5 0,-191.5 866,-191.5 866,-162.5 0,-162.5"/>
<text text-anchor="middle" x="433" y="-173.3" font-family="Times,serif" font-size="14.00" fill="#0058ad">r 59 [1 2 3 4 5 6 7 9 8 10 11 12 13 14 15 16 17 18 19 20 21 22 23 25 24 26 27 28 29 30 31 32 33 34 36 37 38 35 39 40 41 42 44 46 45 43 47 48 49 50 51]</text>
</g>
<!-- T11283 -->
<g id="node2" class="node">
<title>T11283</title>
<polygon fill="none" stroke="#0058ad" points="445,-81.5 445,-110.5 747,-110.5 747,-81.5 445,-81.5"/>
<text text-anchor="middle" x="567.5" y="-92.3" font-family="Times,serif" font-size="14.00" fill="#0058ad">r 60 [3 2 4 5 6 1 7 8 9 10 11 12 13 14 15]</text>
<polyline fill="none" stroke="#0058ad" points="690,-81.5 690,-110.5 "/>
<text text-anchor="middle" x="718.5" y="-92.3" font-family="Times,serif" font-size="14.00" fill="#0058ad">a 59 52</text>
</g>
<!-- T11281&#45;&gt;T11283 -->
<g id="edge1" class="edge">
<title>T11281:f0&#45;&gt;T11283:f1</title>
<path fill="none" stroke="#5b00c0" d="M618.1671,-162.4375C665.8481,-154.166 706.6601,-141.1982 716.6598,-120.8683"/>
<polygon fill="#5b00c0" stroke="#5b00c0" points="720.098,-121.5378 719,-111 713.2869,-119.9225 720.098,-121.5378"/>
<text text-anchor="middle" x="714.5" y="-132.8" font-family="Times,serif" font-size="14.00" fill="#5b00c0">rw</text>
</g>
<!-- T11279 -->
<g id="node3" class="node">
<title>T11279</title>
<polygon fill="none" stroke="#0058ad" points="231,-.5 231,-29.5 597,-29.5 597,-.5 231,-.5"/>
<text text-anchor="middle" x="263" y="-11.3" font-family="Times,serif" font-size="14.00" fill="#0058ad">a 55 127</text>
<polyline fill="none" stroke="#0058ad" points="295,-.5 295,-29.5 "/>
<text text-anchor="middle" x="417.5" y="-11.3" font-family="Times,serif" font-size="14.00" fill="#0058ad">r 60 [3 2 4 5 6 1 7 8 9 10 11 12 13 14 15]</text>
<polyline fill="none" stroke="#0058ad" points="540,-.5 540,-29.5 "/>
<text text-anchor="middle" x="568.5" y="-11.3" font-family="Times,serif" font-size="14.00" fill="#0058ad">a 60 16</text>
</g>
<!-- T11283&#45;&gt;T11279 -->
<g id="edge2" class="edge">
<title>T11283:f0&#45;&gt;T11279:f2</title>
<path fill="none" stroke="#5b00c0" d="M567,-81C567,-62.2147 568.3716,-55.1238 568.8431,-40.3584"/>
<polygon fill="#5b00c0" stroke="#5b00c0" points="572.348,-40.0519 569,-30 565.3488,-39.9458 572.348,-40.0519"/>
<text text-anchor="middle" x="575.5" y="-51.8" font-family="Times,serif" font-size="14.00" fill="#5b00c0">rw</text>
</g>
<!-- T11279&#45;&gt;T11281 -->
<g id="edge3" class="edge">
<title>T11279&#45;&gt;T11281</title>
<path fill="none" stroke="#0050c0" d="M415.7021,-29.5123C418.9523,-57.2246 426.0757,-117.9616 430.0938,-152.2206"/>
<polygon fill="#0050c0" stroke="#0050c0" points="426.6393,-152.8137 431.2804,-162.3379 433.5916,-151.9982 426.6393,-152.8137"/>
<text text-anchor="middle" x="429.5" y="-92.3" font-family="Times,serif" font-size="14.00" fill="#0050c0">rt</text>
</g>
</g>
</svg>
