<?xml version="1.0" encoding="UTF-8" standalone="no"?>
<!DOCTYPE svg PUBLIC "-//W3C//DTD SVG 1.1//EN"
 "http://www.w3.org/Graphics/SVG/1.1/DTD/svg11.dtd">
<!-- Generated by graphviz version 2.40.1 (20161225.0304)
 -->
<!-- Title: a_graph Pages: 1 -->
<svg width="3354pt" height="200pt"
 viewBox="0.00 0.00 3354.00 200.00" xmlns="http://www.w3.org/2000/svg" xmlns:xlink="http://www.w3.org/1999/xlink">
<g id="graph0" class="graph" transform="scale(1 1) rotate(0) translate(4 196)">
<title>a_graph</title>
<polygon fill="#ffffff" stroke="transparent" points="-4,4 -4,-196 3350,-196 3350,4 -4,4"/>
<!-- T24261 -->
<g id="node1" class="node">
<title>T24261</title>
<polygon fill="none" stroke="#0058ad" points="1061.5,-162.5 1061.5,-191.5 1132.5,-191.5 1132.5,-162.5 1061.5,-162.5"/>
<text text-anchor="middle" x="1097" y="-173.3" font-family="Times,serif" font-size="14.00" fill="#0058ad">a 116 105</text>
</g>
<!-- T24263 -->
<g id="node2" class="node">
<title>T24263</title>
<polygon fill="none" stroke="#0058ad" points="1635,-81.5 1635,-110.5 2387,-110.5 2387,-81.5 1635,-81.5"/>
<text text-anchor="middle" x="2011" y="-92.3" font-family="Times,serif" font-size="14.00" fill="#0058ad">r 121 [1 2 4 5 6 7 8 9 3 10 11 12 13 14 16 17 15 18 19 20 21 23 24 25 26 28 29 30 22 31 32 27 33 34 35 36 37 38 39 40 41 42 43 45]</text>
</g>
<!-- T24261&#45;&gt;T24263 -->
<g id="edge1" class="edge">
<title>T24261&#45;&gt;T24263</title>
<path fill="none" stroke="#0050c0" d="M1132.5494,-173.8496C1247.679,-163.6466 1615.6638,-131.0353 1837.1682,-111.4052"/>
<polygon fill="#0050c0" stroke="#0050c0" points="1837.6241,-114.8786 1847.2761,-110.5095 1837.0061,-107.906 1837.6241,-114.8786"/>
<text text-anchor="middle" x="1640.5" y="-132.8" font-family="Times,serif" font-size="14.00" fill="#0050c0">rt</text>
</g>
<!-- T24265 -->
<g id="node3" class="node">
<title>T24265</title>
<polygon fill="none" stroke="#0058ad" points="0,-.5 0,-29.5 3346,-29.5 3346,-.5 0,-.5"/>
<text text-anchor="middle" x="820.5" y="-11.3" font-family="Times,serif" font-size="14.00" fill="#0058ad">r 116 [1 6 8 9 7 10 11 12 13 14 15 16 17 19 18 20 21 22 23 24 25 26 27 28 29 30 31 32 33 34 35 36 37 38 39 40 41 42 43 44 45 47 48 50 53 54 55 57 58 59 60 61 62 63 64 65 66 67 68 69 70 71 72 73 74 75 76 77 78 79 80 81 82 83 84 85 86 87 88 89 90 94 95 96 97 98 100 99 101 102 103 104]</text>
<polyline fill="none" stroke="#0058ad" points="1641,-.5 1641,-29.5 "/>
<text text-anchor="middle" x="2461.5" y="-11.3" font-family="Times,serif" font-size="14.00" fill="#0058ad">r 116 [1 6 8 9 7 10 11 12 13 14 15 16 17 19 18 20 21 22 23 24 25 26 27 28 29 30 31 32 33 34 35 36 37 38 39 40 41 42 43 44 45 47 48 50 53 54 55 57 58 59 60 61 62 63 64 65 66 67 68 69 70 71 72 73 74 75 76 77 78 79 80 81 82 83 84 85 86 87 88 89 90 94 95 96 97 98 100 99 101 102 103 104]</text>
<polyline fill="none" stroke="#0058ad" points="3282,-.5 3282,-29.5 "/>
<text text-anchor="middle" x="3314" y="-11.3" font-family="Times,serif" font-size="14.00" fill="#0058ad">a 121 44</text>
</g>
<!-- T24263&#45;&gt;T24265 -->
<g id="edge2" class="edge">
<title>T24263:f0&#45;&gt;T24265:f2</title>
<path fill="none" stroke="#5b00c0" d="M2336.0213,-81.4832C2692.5544,-65.3037 3225.001,-40.2919 3304.0473,-31.7601"/>
<polygon fill="#5b00c0" stroke="#5b00c0" points="3304.7623,-35.188 3314,-30 3303.5433,-28.295 3304.7623,-35.188"/>
<text text-anchor="middle" x="3039.5" y="-51.8" font-family="Times,serif" font-size="14.00" fill="#5b00c0">rw</text>
</g>
<!-- T24265&#45;&gt;T24261 -->
<g id="edge3" class="edge">
<title>T24265:f0&#45;&gt;T24261:f0</title>
<path fill="none" stroke="#5b00c0" d="M820,-30C820,-43.2482 980.1825,-121.3539 1056.9276,-158.015"/>
<polygon fill="#5b00c0" stroke="#5b00c0" points="1055.765,-161.3381 1066.2978,-162.4832 1058.778,-155.0197 1055.765,-161.3381"/>
<text text-anchor="middle" x="966.5" y="-92.3" font-family="Times,serif" font-size="14.00" fill="#5b00c0">rw</text>
</g>
</g>
</svg>
