<?xml version="1.0" encoding="UTF-8" standalone="no"?>
<!DOCTYPE svg PUBLIC "-//W3C//DTD SVG 1.1//EN"
 "http://www.w3.org/Graphics/SVG/1.1/DTD/svg11.dtd">
<!-- Generated by graphviz version 2.40.1 (20161225.0304)
 -->
<!-- Title: a_graph Pages: 1 -->
<svg width="768pt" height="119pt"
 viewBox="0.00 0.00 768.00 119.00" xmlns="http://www.w3.org/2000/svg" xmlns:xlink="http://www.w3.org/1999/xlink">
<g id="graph0" class="graph" transform="scale(1 1) rotate(0) translate(4 115)">
<title>a_graph</title>
<polygon fill="#ffffff" stroke="transparent" points="-4,4 -4,-115 764,-115 764,4 -4,4"/>
<!-- T1271 -->
<g id="node1" class="node">
<title>T1271</title>
<polygon fill="none" stroke="#0058ad" points="239,-81.5 239,-110.5 760,-110.5 760,-81.5 239,-81.5"/>
<text text-anchor="middle" x="499.5" y="-92.3" font-family="Times,serif" font-size="14.00" fill="#0058ad">r 13 [1 2 3 4 5 6 7 8 9 10 11 12 13 14 15 16 17 18 19 20 22 21 23 24 26 27 25 28 29 30 33]</text>
</g>
<!-- T1259 -->
<g id="node2" class="node">
<title>T1259</title>
<polygon fill="none" stroke="#0058ad" points="0,-.5 0,-29.5 685,-29.5 685,-.5 0,-.5"/>
<text text-anchor="middle" x="260.5" y="-11.3" font-family="Times,serif" font-size="14.00" fill="#0058ad">r 13 [1 2 3 4 5 6 7 8 9 10 11 12 13 14 15 16 17 18 19 20 22 21 23 24 26 27 25 28 29 30 33]</text>
<polyline fill="none" stroke="#0058ad" points="521,-.5 521,-29.5 "/>
<text text-anchor="middle" x="549.5" y="-11.3" font-family="Times,serif" font-size="14.00" fill="#0058ad">a 12 64</text>
<polyline fill="none" stroke="#0058ad" points="578,-.5 578,-29.5 "/>
<text text-anchor="middle" x="603" y="-11.3" font-family="Times,serif" font-size="14.00" fill="#0058ad">a 6 47</text>
<polyline fill="none" stroke="#0058ad" points="628,-.5 628,-29.5 "/>
<text text-anchor="middle" x="656.5" y="-11.3" font-family="Times,serif" font-size="14.00" fill="#0058ad">a 13 31</text>
</g>
<!-- T1271&#45;&gt;T1259 -->
<g id="edge1" class="edge">
<title>T1271:f0&#45;&gt;T1259:f3</title>
<path fill="none" stroke="#5b00c0" d="M614.0135,-81.4856C634.8574,-73.0965 651.3763,-60.1027 655.5035,-40.0617"/>
<polygon fill="#5b00c0" stroke="#5b00c0" points="658.9973,-40.2963 656.5,-30 652.0314,-39.6063 658.9973,-40.2963"/>
<text text-anchor="middle" x="659" y="-51.8" font-family="Times,serif" font-size="14.00" fill="#5b00c0">rw</text>
</g>
<!-- T1259&#45;&gt;T1271 -->
<g id="edge2" class="edge">
<title>T1259&#45;&gt;T1271</title>
<path fill="none" stroke="#0050c0" d="M370.72,-29.5594C396.2165,-42.7136 433.9318,-62.1718 461.9645,-76.6346"/>
<polygon fill="#0050c0" stroke="#0050c0" points="460.5768,-79.8569 471.0685,-81.3315 463.7863,-73.636 460.5768,-79.8569"/>
<text text-anchor="middle" x="439" y="-51.8" font-family="Times,serif" font-size="14.00" fill="#0050c0">rt</text>
</g>
</g>
</svg>
