<?xml version="1.0" encoding="UTF-8" standalone="no"?>
<!DOCTYPE svg PUBLIC "-//W3C//DTD SVG 1.1//EN"
 "http://www.w3.org/Graphics/SVG/1.1/DTD/svg11.dtd">
<!-- Generated by graphviz version 2.40.1 (20161225.0304)
 -->
<!-- Title: a_graph Pages: 1 -->
<svg width="2043pt" height="362pt"
 viewBox="0.00 0.00 2043.00 362.00" xmlns="http://www.w3.org/2000/svg" xmlns:xlink="http://www.w3.org/1999/xlink">
<g id="graph0" class="graph" transform="scale(1 1) rotate(0) translate(4 358)">
<title>a_graph</title>
<polygon fill="#ffffff" stroke="transparent" points="-4,4 -4,-358 2039,-358 2039,4 -4,4"/>
<!-- T646 -->
<g id="node1" class="node">
<title>T646</title>
<polygon fill="none" stroke="#0058ad" points="582,-324.5 582,-353.5 2035,-353.5 2035,-324.5 582,-324.5"/>
<text text-anchor="middle" x="1308.5" y="-335.3" font-family="Times,serif" font-size="14.00" fill="#0058ad">r 10 [1 2 3 4 5 6 7 8 9 10 11 12 13 14 15 17 18 19 16 20 21 23 22 24 25 26 27 28 29 30 31 32 33 34 35 36 37 38 40 41 42 43 39 44 45 46 47 49 50 51 48 52 53 57 58 59 55 56 60 61 54 62 63 64 65 66 67 68 69 70 71 72 73 74 76 77 75 80 78 79 81 83 84 82 86]</text>
</g>
<!-- T676 -->
<g id="node3" class="node">
<title>T676</title>
<polygon fill="none" stroke="#0058ad" points="26.5,-243.5 26.5,-272.5 1716.5,-272.5 1716.5,-243.5 26.5,-243.5"/>
<text text-anchor="middle" x="871.5" y="-254.3" font-family="Times,serif" font-size="14.00" fill="#0058ad">r 8 [5 7 8 10 11 9 12 13 14 15 16 17 18 19 20 21 22 23 24 25 27 28 26 29 30 31 32 33 34 35 36 37 38 39 40 41 42 43 44 45 46 47 48 49 50 52 51 53 54 55 56 58 59 60 61 62 63 64 65 66 67 68 69 70 71 73 72 74 75 76 77 78 79 81 80 82 84 83 85 87 88 86 89 90 91 92 93 94 95 96 99 97 98 101 102 100]</text>
</g>
<!-- T646&#45;&gt;T676 -->
<g id="edge1" class="edge">
<title>T646&#45;&gt;T676</title>
<path fill="none" stroke="#0050c0" d="M1230.1209,-324.4721C1154.1583,-310.392 1039.1144,-289.0681 959.9199,-274.3891"/>
<polygon fill="#0050c0" stroke="#0050c0" points="960.4316,-270.9243 949.9611,-272.5431 959.1557,-277.8071 960.4316,-270.9243"/>
<text text-anchor="middle" x="1134" y="-294.8" font-family="Times,serif" font-size="14.00" fill="#0050c0">rt</text>
</g>
<!-- T638 -->
<g id="node2" class="node">
<title>T638</title>
<polygon fill="none" stroke="#0058ad" points="1324,-81.5 1324,-110.5 1531,-110.5 1531,-81.5 1324,-81.5"/>
<text text-anchor="middle" x="1352.5" y="-92.3" font-family="Times,serif" font-size="14.00" fill="#0058ad">a 10 82</text>
<polyline fill="none" stroke="#0058ad" points="1381,-81.5 1381,-110.5 "/>
<text text-anchor="middle" x="1406" y="-92.3" font-family="Times,serif" font-size="14.00" fill="#0058ad">a 8 97</text>
<polyline fill="none" stroke="#0058ad" points="1431,-81.5 1431,-110.5 "/>
<text text-anchor="middle" x="1456" y="-92.3" font-family="Times,serif" font-size="14.00" fill="#0058ad">a 8 98</text>
<polyline fill="none" stroke="#0058ad" points="1481,-81.5 1481,-110.5 "/>
<text text-anchor="middle" x="1506" y="-92.3" font-family="Times,serif" font-size="14.00" fill="#0058ad">a 7 45</text>
</g>
<!-- T640 -->
<g id="node4" class="node">
<title>T640</title>
<polygon fill="none" stroke="#0058ad" points="0,-.5 0,-29.5 1493,-29.5 1493,-.5 0,-.5"/>
<text text-anchor="middle" x="718" y="-11.3" font-family="Times,serif" font-size="14.00" fill="#0058ad">r 10 [1 2 3 4 5 6 7 8 9 10 11 12 13 14 15 17 18 19 16 20 21 23 22 24 25 26 27 28 29 30 31 32 33 34 35 36 37 38 40 41 42 43 39 44 45 46 47 49 50 51 48 52 53 57 58 59 55 56 60 61 54 62 63 64 65 66 67 68 69 70 71 72 73 74 76 77 75 80 78 79 81 83 84 82]</text>
<polyline fill="none" stroke="#0058ad" points="1436,-.5 1436,-29.5 "/>
<text text-anchor="middle" x="1464.5" y="-11.3" font-family="Times,serif" font-size="14.00" fill="#0058ad">a 10 86</text>
</g>
<!-- T638&#45;&gt;T640 -->
<g id="edge2" class="edge">
<title>T638:f0&#45;&gt;T640:f1</title>
<path fill="none" stroke="#c02700" d="M1352.5,-81C1352.5,-30.1502 1449.3037,-77.0434 1462.9167,-39.9387"/>
<polygon fill="#c02700" stroke="#c02700" points="1466.3831,-40.4261 1464.5,-30 1459.4703,-39.3248 1466.3831,-40.4261"/>
<text text-anchor="middle" x="1467.5" y="-51.8" font-family="Times,serif" font-size="14.00" fill="#c02700">ww</text>
</g>
<!-- T925 -->
<g id="node5" class="node">
<title>T925</title>
<polygon fill="none" stroke="#0058ad" points="853,-162.5 853,-191.5 1592,-191.5 1592,-162.5 853,-162.5"/>
<text text-anchor="middle" x="1222.5" y="-173.3" font-family="Times,serif" font-size="14.00" fill="#0058ad">r 7 [1 2 3 4 5 6 7 8 9 10 11 12 13 14 15 16 17 18 19 20 21 22 23 24 25 26 27 28 29 30 31 32 33 34 35 36 37 38 39 40 41 42 43 44]</text>
</g>
<!-- T676&#45;&gt;T925 -->
<g id="edge3" class="edge">
<title>T676&#45;&gt;T925</title>
<path fill="none" stroke="#0050c0" d="M934.6571,-243.4253C995.0776,-229.4821 1086.1459,-208.4663 1149.6144,-193.8198"/>
<polygon fill="#0050c0" stroke="#0050c0" points="1150.5979,-197.1849 1159.5548,-191.5258 1149.0238,-190.3641 1150.5979,-197.1849"/>
<text text-anchor="middle" x="1083" y="-213.8" font-family="Times,serif" font-size="14.00" fill="#0050c0">rt</text>
</g>
<!-- T640&#45;&gt;T646 -->
<g id="edge4" class="edge">
<title>T640:f1&#45;&gt;T646:f0</title>
<path fill="none" stroke="#c000a5" d="M1493.5,-15C1552.1102,-15 1744.5,-37.3898 1744.5,-96 1744.5,-258 1744.5,-258 1744.5,-258 1744.5,-290.7248 1696.4209,-310.6476 1632.1943,-322.6622"/>
<polygon fill="#c000a5" stroke="#c000a5" points="1631.4087,-319.247 1622.1798,-324.4506 1632.6394,-326.138 1631.4087,-319.247"/>
<text text-anchor="middle" x="1752" y="-173.3" font-family="Times,serif" font-size="14.00" fill="#c000a5">wr</text>
</g>
<!-- T925&#45;&gt;T638 -->
<g id="edge5" class="edge">
<title>T925:f0&#45;&gt;T638:f3</title>
<path fill="none" stroke="#5b00c0" d="M1405.1723,-162.4594C1452.9805,-154.1881 1494.0712,-141.216 1504.1426,-120.8743"/>
<polygon fill="#5b00c0" stroke="#5b00c0" points="1507.5822,-121.5394 1506.5,-111 1500.7735,-119.9139 1507.5822,-121.5394"/>
<text text-anchor="middle" x="1503" y="-132.8" font-family="Times,serif" font-size="14.00" fill="#5b00c0">rw</text>
</g>
</g>
</svg>
