<?xml version="1.0" encoding="UTF-8" standalone="no"?>
<!DOCTYPE svg PUBLIC "-//W3C//DTD SVG 1.1//EN"
 "http://www.w3.org/Graphics/SVG/1.1/DTD/svg11.dtd">
<!-- Generated by graphviz version 2.40.1 (20161225.0304)
 -->
<!-- Title: a_graph Pages: 1 -->
<svg width="1169pt" height="119pt"
 viewBox="0.00 0.00 1169.00 119.00" xmlns="http://www.w3.org/2000/svg" xmlns:xlink="http://www.w3.org/1999/xlink">
<g id="graph0" class="graph" transform="scale(1 1) rotate(0) translate(4 115)">
<title>a_graph</title>
<polygon fill="#ffffff" stroke="transparent" points="-4,4 -4,-115 1165,-115 1165,4 -4,4"/>
<!-- T21903 -->
<g id="node1" class="node">
<title>T21903</title>
<polygon fill="none" stroke="#0058ad" points="187.5,-81.5 187.5,-110.5 837.5,-110.5 837.5,-81.5 187.5,-81.5"/>
<text text-anchor="middle" x="219.5" y="-92.3" font-family="Times,serif" font-size="14.00" fill="#0058ad">a 109 71</text>
<polyline fill="none" stroke="#0058ad" points="251.5,-81.5 251.5,-110.5 "/>
<text text-anchor="middle" x="283.5" y="-92.3" font-family="Times,serif" font-size="14.00" fill="#0058ad">a 109 72</text>
<polyline fill="none" stroke="#0058ad" points="315.5,-81.5 315.5,-110.5 "/>
<text text-anchor="middle" x="424.5" y="-92.3" font-family="Times,serif" font-size="14.00" fill="#0058ad">r 112 [1 2 3 4 5 7 8 9 10 11 6 12 13]</text>
<polyline fill="none" stroke="#0058ad" points="533.5,-81.5 533.5,-110.5 "/>
<text text-anchor="middle" x="685.5" y="-92.3" font-family="Times,serif" font-size="14.00" fill="#0058ad">r 111 [1 2 3 4 5 6 7 8 9 11 12 13 14 16 17 18 15 19]</text>
</g>
<!-- T21905 -->
<g id="node2" class="node">
<title>T21905</title>
<polygon fill="none" stroke="#0058ad" points="0,-.5 0,-29.5 1161,-29.5 1161,-.5 0,-.5"/>
<text text-anchor="middle" x="32" y="-11.3" font-family="Times,serif" font-size="14.00" fill="#0058ad">a 112 15</text>
<polyline fill="none" stroke="#0058ad" points="64,-.5 64,-29.5 "/>
<text text-anchor="middle" x="612.5" y="-11.3" font-family="Times,serif" font-size="14.00" fill="#0058ad">r 109 [1 2 3 4 5 6 7 8 9 10 11 12 13 15 16 17 18 19 21 22 23 24 25 26 27 28 29 30 31 32 33 35 36 37 38 39 40 41 42 43 44 45 46 47 48 49 50 51 52 53 54 55 56 57 58 59 60 62 64 65 66 67 69 70]</text>
</g>
<!-- T21903&#45;&gt;T21905 -->
<g id="edge1" class="edge">
<title>T21903:f2&#45;&gt;T21905:f0</title>
<path fill="none" stroke="#5b00c0" d="M424.5,-81C424.5,-15.3409 345.4343,-57.7289 280.5,-48 255.9606,-44.3234 76.0774,-55.0174 38.4062,-37.4588"/>
<polygon fill="#5b00c0" stroke="#5b00c0" points="40.8623,-34.9597 31.5,-30 35.7259,-39.7156 40.8623,-34.9597"/>
<text text-anchor="middle" x="428" y="-51.8" font-family="Times,serif" font-size="14.00" fill="#5b00c0">rw</text>
</g>
<!-- T21905&#45;&gt;T21903 -->
<g id="edge2" class="edge">
<title>T21905:f1&#45;&gt;T21903:f0</title>
<path fill="none" stroke="#5b00c0" d="M612.5,-30C612.5,-49.5256 279.7836,-41.1472 261.5,-48 242.9178,-54.9648 226.0535,-56.7566 221.02,-71.0243"/>
<polygon fill="#5b00c0" stroke="#5b00c0" points="217.5464,-70.5869 219.5,-81 224.4665,-71.6414 217.5464,-70.5869"/>
<text text-anchor="middle" x="269" y="-51.8" font-family="Times,serif" font-size="14.00" fill="#5b00c0">rw</text>
</g>
</g>
</svg>
