<?xml version="1.0" encoding="UTF-8" standalone="no"?>
<!DOCTYPE svg PUBLIC "-//W3C//DTD SVG 1.1//EN"
 "http://www.w3.org/Graphics/SVG/1.1/DTD/svg11.dtd">
<!-- Generated by graphviz version 2.40.1 (20161225.0304)
 -->
<!-- Title: a_graph Pages: 1 -->
<svg width="2295pt" height="119pt"
 viewBox="0.00 0.00 2294.50 119.00" xmlns="http://www.w3.org/2000/svg" xmlns:xlink="http://www.w3.org/1999/xlink">
<g id="graph0" class="graph" transform="scale(1 1) rotate(0) translate(4 115)">
<title>a_graph</title>
<polygon fill="#ffffff" stroke="transparent" points="-4,4 -4,-115 2290.5,-115 2290.5,4 -4,4"/>
<!-- T5267 -->
<g id="node1" class="node">
<title>T5267</title>
<polygon fill="none" stroke="#0058ad" points="1614.5,-81.5 1614.5,-110.5 2286.5,-110.5 2286.5,-81.5 1614.5,-81.5"/>
<text text-anchor="middle" x="1646.5" y="-92.3" font-family="Times,serif" font-size="14.00" fill="#0058ad">a 27 127</text>
<polyline fill="none" stroke="#0058ad" points="1678.5,-81.5 1678.5,-110.5 "/>
<text text-anchor="middle" x="1982.5" y="-92.3" font-family="Times,serif" font-size="14.00" fill="#0058ad">r 30 [1 2 3 4 5 6 7 8 9 10 11 12 13 14 15 16 17 20 21 18 19 22 23 24 25 26 27 28 29 32 30 31 34 33 35 36]</text>
</g>
<!-- T5265 -->
<g id="node2" class="node">
<title>T5265</title>
<polygon fill="none" stroke="#0058ad" points="0,-.5 0,-29.5 2203,-29.5 2203,-.5 0,-.5"/>
<text text-anchor="middle" x="1073" y="-11.3" font-family="Times,serif" font-size="14.00" fill="#0058ad">r 27 [1 2 3 4 5 6 7 9 10 13 14 16 18 19 22 23 24 25 26 27 28 29 30 31 32 33 34 36 38 35 39 40 37 41 42 43 44 45 47 46 48 50 49 51 52 53 54 55 58 56 57 59 60 61 62 63 64 65 67 68 66 70 71 69 72 73 74 75 76 79 78 80 82 81 83 84 85 86 87 88 90 91 89 92 95 96 93 94 98 99 100 101 102 104 105 106 107 108 109 111 112 113 114 115 116 117 118 119 120 121 122 123 124 125 126]</text>
<polyline fill="none" stroke="#0058ad" points="2146,-.5 2146,-29.5 "/>
<text text-anchor="middle" x="2174.5" y="-11.3" font-family="Times,serif" font-size="14.00" fill="#0058ad">a 30 37</text>
</g>
<!-- T5267&#45;&gt;T5265 -->
<g id="edge1" class="edge">
<title>T5267:f1&#45;&gt;T5265:f1</title>
<path fill="none" stroke="#5b00c0" d="M1982.5,-81C1982.5,3.4986 2158.3545,-107.8949 2173.467,-40.2307"/>
<polygon fill="#5b00c0" stroke="#5b00c0" points="2176.9776,-40.3011 2174.5,-30 2170.013,-39.5978 2176.9776,-40.3011"/>
<text text-anchor="middle" x="2176" y="-51.8" font-family="Times,serif" font-size="14.00" fill="#5b00c0">rw</text>
</g>
<!-- T5265&#45;&gt;T5267 -->
<g id="edge2" class="edge">
<title>T5265:f0&#45;&gt;T5267:f0</title>
<path fill="none" stroke="#5b00c0" d="M1072.5,-30C1072.5,-88.0603 1513.3571,-95.4395 1604.4212,-95.9665"/>
<polygon fill="#5b00c0" stroke="#5b00c0" points="1604.4884,-99.4666 1614.5,-96 1604.5117,-92.4667 1604.4884,-99.4666"/>
<text text-anchor="middle" x="1140" y="-51.8" font-family="Times,serif" font-size="14.00" fill="#5b00c0">rw</text>
</g>
</g>
</svg>
