<?xml version="1.0" encoding="UTF-8" standalone="no"?>
<!DOCTYPE svg PUBLIC "-//W3C//DTD SVG 1.1//EN"
 "http://www.w3.org/Graphics/SVG/1.1/DTD/svg11.dtd">
<!-- Generated by graphviz version 2.40.1 (20161225.0304)
 -->
<!-- Title: a_graph Pages: 1 -->
<svg width="1801pt" height="119pt"
 viewBox="0.00 0.00 1801.00 119.00" xmlns="http://www.w3.org/2000/svg" xmlns:xlink="http://www.w3.org/1999/xlink">
<g id="graph0" class="graph" transform="scale(1 1) rotate(0) translate(4 115)">
<title>a_graph</title>
<polygon fill="#ffffff" stroke="transparent" points="-4,4 -4,-115 1797,-115 1797,4 -4,4"/>
<!-- T22739 -->
<g id="node1" class="node">
<title>T22739</title>
<polygon fill="none" stroke="#0058ad" points="93.5,-81.5 93.5,-110.5 1151.5,-110.5 1151.5,-81.5 93.5,-81.5"/>
<text text-anchor="middle" x="125.5" y="-92.3" font-family="Times,serif" font-size="14.00" fill="#0058ad">a 115 43</text>
<polyline fill="none" stroke="#0058ad" points="157.5,-81.5 157.5,-110.5 "/>
<text text-anchor="middle" x="533.5" y="-92.3" font-family="Times,serif" font-size="14.00" fill="#0058ad">r 115 [1 3 4 5 6 7 8 9 10 11 12 13 14 15 16 17 2 18 19 20 21 22 23 24 25 26 28 29 30 31 27 32 33 34 36 37 35 38 39 40 41 42 44 43]</text>
<polyline fill="none" stroke="#0058ad" points="909.5,-81.5 909.5,-110.5 "/>
<text text-anchor="middle" x="1030.5" y="-92.3" font-family="Times,serif" font-size="14.00" fill="#0058ad">r 116 [1 2 3 5 6 8 9 7 10 11 12 13 14 15]</text>
</g>
<!-- T22740 -->
<g id="node2" class="node">
<title>T22740</title>
<polygon fill="none" stroke="#0058ad" points="0,-.5 0,-29.5 1793,-29.5 1793,-.5 0,-.5"/>
<text text-anchor="middle" x="32" y="-11.3" font-family="Times,serif" font-size="14.00" fill="#0058ad">a 116 16</text>
<polyline fill="none" stroke="#0058ad" points="64,-.5 64,-29.5 "/>
<text text-anchor="middle" x="193.5" y="-11.3" font-family="Times,serif" font-size="14.00" fill="#0058ad">r 116 [1 2 3 5 6 8 9 7 10 11 12 13 14 15 16]</text>
<polyline fill="none" stroke="#0058ad" points="323,-.5 323,-29.5 "/>
<text text-anchor="middle" x="690.5" y="-11.3" font-family="Times,serif" font-size="14.00" fill="#0058ad">r 115 [1 3 4 5 6 7 8 9 10 11 12 13 14 15 16 17 2 18 19 20 21 22 23 24 25 26 28 29 30 31 27 32 33 34 36 37 35 38 39 40 41 42 44]</text>
<polyline fill="none" stroke="#0058ad" points="1058,-.5 1058,-29.5 "/>
<text text-anchor="middle" x="1425.5" y="-11.3" font-family="Times,serif" font-size="14.00" fill="#0058ad">r 115 [1 3 4 5 6 7 8 9 10 11 12 13 14 15 16 17 2 18 19 20 21 22 23 24 25 26 28 29 30 31 27 32 33 34 36 37 35 38 39 40 41 42 44]</text>
</g>
<!-- T22739&#45;&gt;T22740 -->
<g id="edge1" class="edge">
<title>T22739:f2&#45;&gt;T22740:f0</title>
<path fill="none" stroke="#5b00c0" d="M1030.5,-81C1030.5,-74.4605 145.1405,-41.1915 41.3875,-31.5196"/>
<polygon fill="#5b00c0" stroke="#5b00c0" points="41.9156,-28.0597 31.5,-30 40.8523,-34.9785 41.9156,-28.0597"/>
<text text-anchor="middle" x="686" y="-51.8" font-family="Times,serif" font-size="14.00" fill="#5b00c0">rw</text>
</g>
<!-- T22740&#45;&gt;T22739 -->
<g id="edge2" class="edge">
<title>T22740:f2&#45;&gt;T22739:f0</title>
<path fill="none" stroke="#5b00c0" d="M690.5,-30C690.5,-48.1942 381.6097,-46.2491 363.5,-48 260.7352,-57.9356 134.2181,20.3112 125.9298,-70.9835"/>
<polygon fill="#5b00c0" stroke="#5b00c0" points="122.4321,-70.8591 125.5,-81 129.4256,-71.1593 122.4321,-70.8591"/>
<text text-anchor="middle" x="371" y="-51.8" font-family="Times,serif" font-size="14.00" fill="#5b00c0">rw</text>
</g>
</g>
</svg>
