<?xml version="1.0" encoding="UTF-8" standalone="no"?>
<!DOCTYPE svg PUBLIC "-//W3C//DTD SVG 1.1//EN"
 "http://www.w3.org/Graphics/SVG/1.1/DTD/svg11.dtd">
<!-- Generated by graphviz version 2.40.1 (20161225.0304)
 -->
<!-- Title: a_graph Pages: 1 -->
<svg width="3318pt" height="119pt"
 viewBox="0.00 0.00 3317.50 119.00" xmlns="http://www.w3.org/2000/svg" xmlns:xlink="http://www.w3.org/1999/xlink">
<g id="graph0" class="graph" transform="scale(1 1) rotate(0) translate(4 115)">
<title>a_graph</title>
<polygon fill="#ffffff" stroke="transparent" points="-4,4 -4,-115 3313.5,-115 3313.5,4 -4,4"/>
<!-- T14675 -->
<g id="node1" class="node">
<title>T14675</title>
<polygon fill="none" stroke="#0058ad" points="0,-81.5 0,-110.5 2802,-110.5 2802,-81.5 0,-81.5"/>
<text text-anchor="middle" x="1025.5" y="-92.3" font-family="Times,serif" font-size="14.00" fill="#0058ad">r 69 [1 2 3 4 5 6 7 8 9 10 12 11 13 14 15 16 17 18 19 20 21 23 26 27 28 29 30 31 32 33 34 35 37 38 36 39 40 41 43 42 44 45 46 47 48 49 50 51 52 53 54 55 56 57 58 59 60 62 61 63 64 65 66 67 68 69 70 71 72 73 74 75 76 77 78 79 80 81 82 83 84 86 85 87 88 89 90 91 92 93 94 95 96 97 98 99 102 104 108 109 110 111 112 113 114 115 116 117 118 119 120 121 122]</text>
<polyline fill="none" stroke="#0058ad" points="2051,-81.5 2051,-110.5 "/>
<text text-anchor="middle" x="2398" y="-92.3" font-family="Times,serif" font-size="14.00" fill="#0058ad">r 76 [1 2 3 5 6 7 8 9 4 10 11 12 13 14 15 17 16 19 18 20 21 22 23 24 25 28 29 30 31 27 32 33 26 35 36 37 34 38 39 40 41]</text>
<polyline fill="none" stroke="#0058ad" points="2745,-81.5 2745,-110.5 "/>
<text text-anchor="middle" x="2773.5" y="-92.3" font-family="Times,serif" font-size="14.00" fill="#0058ad">a 75 33</text>
</g>
<!-- T14673 -->
<g id="node2" class="node">
<title>T14673</title>
<polygon fill="none" stroke="#0058ad" points="2162.5,-.5 2162.5,-29.5 3309.5,-29.5 3309.5,-.5 2162.5,-.5"/>
<text text-anchor="middle" x="2435" y="-11.3" font-family="Times,serif" font-size="14.00" fill="#0058ad">r 75 [1 4 2 5 6 7 8 9 10 12 13 14 15 11 16 17 18 19 20 21 22 23 24 25 26 28 29 27 31 32 30 34]</text>
<polyline fill="none" stroke="#0058ad" points="2707.5,-.5 2707.5,-29.5 "/>
<text text-anchor="middle" x="2736" y="-11.3" font-family="Times,serif" font-size="14.00" fill="#0058ad">a 76 43</text>
<polyline fill="none" stroke="#0058ad" points="2764.5,-.5 2764.5,-29.5 "/>
<text text-anchor="middle" x="3037" y="-11.3" font-family="Times,serif" font-size="14.00" fill="#0058ad">r 75 [1 4 2 5 6 7 8 9 10 12 13 14 15 11 16 17 18 19 20 21 22 23 24 25 26 28 29 27 31 32 30 34]</text>
</g>
<!-- T14675&#45;&gt;T14673 -->
<g id="edge1" class="edge">
<title>T14675:f1&#45;&gt;T14673:f1</title>
<path fill="none" stroke="#5b00c0" d="M2398,-81C2398,-63.8271 2674.4005,-51.537 2727.3052,-35.2987"/>
<polygon fill="#5b00c0" stroke="#5b00c0" points="2729.2821,-38.1927 2736,-30 2725.6393,-32.2152 2729.2821,-38.1927"/>
<text text-anchor="middle" x="2643.5" y="-51.8" font-family="Times,serif" font-size="14.00" fill="#5b00c0">rw</text>
</g>
<!-- T14673&#45;&gt;T14675 -->
<g id="edge2" class="edge">
<title>T14673:f0&#45;&gt;T14675:f2</title>
<path fill="none" stroke="#5b00c0" d="M2435,-30C2435,-54.5261 2630.8531,-43.7038 2655,-48 2705.3424,-56.9568 2765.1693,-30.2295 2773.1135,-70.9146"/>
<polygon fill="#5b00c0" stroke="#5b00c0" points="2769.6377,-71.3449 2774,-81 2776.6109,-70.7319 2769.6377,-71.3449"/>
<text text-anchor="middle" x="2777.5" y="-51.8" font-family="Times,serif" font-size="14.00" fill="#5b00c0">rw</text>
</g>
</g>
</svg>
