<?xml version="1.0" encoding="UTF-8" standalone="no"?>
<!DOCTYPE svg PUBLIC "-//W3C//DTD SVG 1.1//EN"
 "http://www.w3.org/Graphics/SVG/1.1/DTD/svg11.dtd">
<!-- Generated by graphviz version 2.40.1 (20161225.0304)
 -->
<!-- Title: a_graph Pages: 1 -->
<svg width="2732pt" height="119pt"
 viewBox="0.00 0.00 2731.50 119.00" xmlns="http://www.w3.org/2000/svg" xmlns:xlink="http://www.w3.org/1999/xlink">
<g id="graph0" class="graph" transform="scale(1 1) rotate(0) translate(4 115)">
<title>a_graph</title>
<polygon fill="#ffffff" stroke="transparent" points="-4,4 -4,-115 2727.5,-115 2727.5,4 -4,4"/>
<!-- T12787 -->
<g id="node1" class="node">
<title>T12787</title>
<polygon fill="none" stroke="#0058ad" points="0,-81.5 0,-110.5 2081,-110.5 2081,-81.5 0,-81.5"/>
<text text-anchor="middle" x="943" y="-92.3" font-family="Times,serif" font-size="14.00" fill="#0058ad">r 64 [1 2 3 5 6 7 8 9 4 10 11 12 14 15 13 16 17 20 21 22 24 25 18 19 26 27 28 29 30 32 33 34 35 36 23 37 31 38 39 40 41 42 44 45 46 43 47 48 49 51 50 52 53 54 55 56 59 57 58 60 61 63 64 65 66 62 67 68 69 70 71 72 73 74 75 77 76 78 79 80 81 82 83 84 85 86 88 89 91 92 93 90 96 94 95 97 98 99 100 87 101 102 103 105 106 107 108]</text>
<polyline fill="none" stroke="#0058ad" points="1886,-81.5 1886,-110.5 "/>
<text text-anchor="middle" x="1951.5" y="-92.3" font-family="Times,serif" font-size="14.00" fill="#0058ad">r 65 [1 2 3 4 5 6 7 8]</text>
<polyline fill="none" stroke="#0058ad" points="2017,-81.5 2017,-110.5 "/>
<text text-anchor="middle" x="2049" y="-92.3" font-family="Times,serif" font-size="14.00" fill="#0058ad">a 64 104</text>
</g>
<!-- T12789 -->
<g id="node2" class="node">
<title>T12789</title>
<polygon fill="none" stroke="#0058ad" points="581.5,-.5 581.5,-29.5 2723.5,-29.5 2723.5,-.5 581.5,-.5"/>
<text text-anchor="middle" x="1524.5" y="-11.3" font-family="Times,serif" font-size="14.00" fill="#0058ad">r 64 [1 2 3 5 6 7 8 9 4 10 11 12 14 15 13 16 17 20 21 22 24 25 18 19 26 27 28 29 30 32 33 34 35 36 23 37 31 38 39 40 41 42 44 45 46 43 47 48 49 51 50 52 53 54 55 56 59 57 58 60 61 63 64 65 66 62 67 68 69 70 71 72 73 74 75 77 76 78 79 80 81 82 83 84 85 86 88 89 91 92 93 90 96 94 95 97 98 99 100 87 101 102 103 105 106 107 108]</text>
<polyline fill="none" stroke="#0058ad" points="2467.5,-.5 2467.5,-29.5 "/>
<text text-anchor="middle" x="2492.5" y="-11.3" font-family="Times,serif" font-size="14.00" fill="#0058ad">a 65 9</text>
<polyline fill="none" stroke="#0058ad" points="2517.5,-.5 2517.5,-29.5 "/>
<text text-anchor="middle" x="2549.5" y="-11.3" font-family="Times,serif" font-size="14.00" fill="#0058ad">a 60 108</text>
<polyline fill="none" stroke="#0058ad" points="2581.5,-.5 2581.5,-29.5 "/>
<text text-anchor="middle" x="2652.5" y="-11.3" font-family="Times,serif" font-size="14.00" fill="#0058ad">r 65 [1 2 3 4 5 6 7 8 9]</text>
</g>
<!-- T12787&#45;&gt;T12789 -->
<g id="edge1" class="edge">
<title>T12787:f1&#45;&gt;T12789:f1</title>
<path fill="none" stroke="#5b00c0" d="M1951.5,-81C1951.5,-55.8388 1973.6909,-56.1373 1997.5,-48 2021.4542,-39.8132 2420.2333,-54.7436 2483.9466,-35.7647"/>
<polygon fill="#5b00c0" stroke="#5b00c0" points="2486.1637,-38.4913 2492.5,-30 2482.2514,-32.6865 2486.1637,-38.4913"/>
<text text-anchor="middle" x="2005" y="-51.8" font-family="Times,serif" font-size="14.00" fill="#5b00c0">rw</text>
</g>
<!-- T12789&#45;&gt;T12787 -->
<g id="edge2" class="edge">
<title>T12789:f0&#45;&gt;T12787:f2</title>
<path fill="none" stroke="#5b00c0" d="M1524.5,-30C1524.5,-57.1295 1987.3319,-37.8718 2012.5,-48 2029.2685,-54.748 2043.424,-57.8037 2047.9696,-70.8471"/>
<polygon fill="#5b00c0" stroke="#5b00c0" points="2044.5485,-71.6334 2049.5,-81 2051.4703,-70.59 2044.5485,-71.6334"/>
<text text-anchor="middle" x="2050" y="-51.8" font-family="Times,serif" font-size="14.00" fill="#5b00c0">rw</text>
</g>
</g>
</svg>
