<?xml version="1.0" encoding="UTF-8" standalone="no"?>
<!DOCTYPE svg PUBLIC "-//W3C//DTD SVG 1.1//EN"
 "http://www.w3.org/Graphics/SVG/1.1/DTD/svg11.dtd">
<!-- Generated by graphviz version 2.40.1 (20161225.0304)
 -->
<!-- Title: a_graph Pages: 1 -->
<svg width="1845pt" height="119pt"
 viewBox="0.00 0.00 1845.00 119.00" xmlns="http://www.w3.org/2000/svg" xmlns:xlink="http://www.w3.org/1999/xlink">
<g id="graph0" class="graph" transform="scale(1 1) rotate(0) translate(4 115)">
<title>a_graph</title>
<polygon fill="#ffffff" stroke="transparent" points="-4,4 -4,-115 1841,-115 1841,4 -4,4"/>
<!-- T17451 -->
<g id="node1" class="node">
<title>T17451</title>
<polygon fill="none" stroke="#0058ad" points="146,-81.5 146,-110.5 1837,-110.5 1837,-81.5 146,-81.5"/>
<text text-anchor="middle" x="489" y="-92.3" font-family="Times,serif" font-size="14.00" fill="#0058ad">r 88 [29 30 31 33 34 32 35 36 37 38 26 27 42 43 24 44 45 46 47 48 49 50 51 52 53 55 54 56 57 58 59 61 62 63 60 64 65]</text>
<polyline fill="none" stroke="#0058ad" points="832,-81.5 832,-110.5 "/>
<text text-anchor="middle" x="1045.5" y="-92.3" font-family="Times,serif" font-size="14.00" fill="#0058ad">r 84 [71 72 73 74 76 77 75 78 79 80 81 82 83 84 85 86 87 88 89 90 91 92]</text>
<polyline fill="none" stroke="#0058ad" points="1259,-81.5 1259,-110.5 "/>
<text text-anchor="middle" x="1287.5" y="-92.3" font-family="Times,serif" font-size="14.00" fill="#0058ad">a 89 30</text>
<polyline fill="none" stroke="#0058ad" points="1316,-81.5 1316,-110.5 "/>
<text text-anchor="middle" x="1576.5" y="-92.3" font-family="Times,serif" font-size="14.00" fill="#0058ad">r 89 [1 2 3 4 5 7 6 10 8 9 13 14 11 12 15 16 17 18 20 21 19 23 24 25 26 22 28 27 29 32 30]</text>
</g>
<!-- T17449 -->
<g id="node2" class="node">
<title>T17449</title>
<polygon fill="none" stroke="#0058ad" points="0,-.5 0,-29.5 1247,-29.5 1247,-.5 0,-.5"/>
<text text-anchor="middle" x="343" y="-11.3" font-family="Times,serif" font-size="14.00" fill="#0058ad">r 88 [29 30 31 33 34 32 35 36 37 38 26 27 42 43 24 44 45 46 47 48 49 50 51 52 53 55 54 56 57 58 59 61 62 63 60 64 65]</text>
<polyline fill="none" stroke="#0058ad" points="686,-.5 686,-29.5 "/>
<text text-anchor="middle" x="938" y="-11.3" font-family="Times,serif" font-size="14.00" fill="#0058ad">r 89 [1 2 3 4 5 7 6 10 8 9 13 14 11 12 15 16 17 18 20 21 19 23 24 25 26 22 28 27 29 32]</text>
<polyline fill="none" stroke="#0058ad" points="1190,-.5 1190,-29.5 "/>
<text text-anchor="middle" x="1218.5" y="-11.3" font-family="Times,serif" font-size="14.00" fill="#0058ad">a 88 66</text>
</g>
<!-- T17451&#45;&gt;T17449 -->
<g id="edge1" class="edge">
<title>T17451:f0&#45;&gt;T17449:f2</title>
<path fill="none" stroke="#5b00c0" d="M488.5,-81C488.5,-62.0226 1124.766,-51.7452 1209.2701,-33.9234"/>
<polygon fill="#5b00c0" stroke="#5b00c0" points="1210.6661,-37.1331 1218.5,-30 1207.9277,-30.6909 1210.6661,-37.1331"/>
<text text-anchor="middle" x="1030" y="-51.8" font-family="Times,serif" font-size="14.00" fill="#5b00c0">rw</text>
</g>
<!-- T17449&#45;&gt;T17451 -->
<g id="edge2" class="edge">
<title>T17449:f1&#45;&gt;T17451:f2</title>
<path fill="none" stroke="#5b00c0" d="M938.5,-30C938.5,-38.8215 1221.4354,-65.1605 1277.8015,-77.4718"/>
<polygon fill="#5b00c0" stroke="#5b00c0" points="1276.906,-80.8704 1287.5,-81 1279.2991,-74.2921 1276.906,-80.8704"/>
<text text-anchor="middle" x="1182" y="-51.8" font-family="Times,serif" font-size="14.00" fill="#5b00c0">rw</text>
</g>
</g>
</svg>
