<?xml version="1.0" encoding="UTF-8" standalone="no"?>
<!DOCTYPE svg PUBLIC "-//W3C//DTD SVG 1.1//EN"
 "http://www.w3.org/Graphics/SVG/1.1/DTD/svg11.dtd">
<!-- Generated by graphviz version 2.40.1 (20161225.0304)
 -->
<!-- Title: a_graph Pages: 1 -->
<svg width="1385pt" height="200pt"
 viewBox="0.00 0.00 1384.50 200.00" xmlns="http://www.w3.org/2000/svg" xmlns:xlink="http://www.w3.org/1999/xlink">
<g id="graph0" class="graph" transform="scale(1 1) rotate(0) translate(4 196)">
<title>a_graph</title>
<polygon fill="#ffffff" stroke="transparent" points="-4,4 -4,-196 1380.5,-196 1380.5,4 -4,4"/>
<!-- T2395 -->
<g id="node1" class="node">
<title>T2395</title>
<polygon fill="none" stroke="#0058ad" points="0,-162.5 0,-191.5 689,-191.5 689,-162.5 0,-162.5"/>
<text text-anchor="middle" x="291" y="-173.3" font-family="Times,serif" font-size="14.00" fill="#0058ad">r 17 [47 63 66 64 65 67 72 74 75 76 79 80 81 78 82 83 84 85 86 87 88 89 90 91 93 92 94 95 96 97 98]</text>
<polyline fill="none" stroke="#0058ad" points="582,-162.5 582,-191.5 "/>
<text text-anchor="middle" x="607" y="-173.3" font-family="Times,serif" font-size="14.00" fill="#0058ad">a 5 44</text>
<polyline fill="none" stroke="#0058ad" points="632,-162.5 632,-191.5 "/>
<text text-anchor="middle" x="660.5" y="-173.3" font-family="Times,serif" font-size="14.00" fill="#0058ad">a 16 94</text>
</g>
<!-- T2397 -->
<g id="node2" class="node">
<title>T2397</title>
<polygon fill="none" stroke="#0058ad" points="147,-.5 147,-29.5 832,-29.5 832,-.5 147,-.5"/>
<text text-anchor="middle" x="172" y="-11.3" font-family="Times,serif" font-size="14.00" fill="#0058ad">a 6 96</text>
<polyline fill="none" stroke="#0058ad" points="197,-.5 197,-29.5 "/>
<text text-anchor="middle" x="341.5" y="-11.3" font-family="Times,serif" font-size="14.00" fill="#0058ad">r 16 [76 78 79 80 81 85 84 86 87 88 89 90 91 92]</text>
<polyline fill="none" stroke="#0058ad" points="486,-.5 486,-29.5 "/>
<text text-anchor="middle" x="630.5" y="-11.3" font-family="Times,serif" font-size="14.00" fill="#0058ad">r 16 [76 78 79 80 81 85 84 86 87 88 89 90 91 92]</text>
<polyline fill="none" stroke="#0058ad" points="775,-.5 775,-29.5 "/>
<text text-anchor="middle" x="803.5" y="-11.3" font-family="Times,serif" font-size="14.00" fill="#0058ad">a 17 99</text>
</g>
<!-- T2395&#45;&gt;T2397 -->
<g id="edge1" class="edge">
<title>T2395:f0&#45;&gt;T2397:f3</title>
<path fill="none" stroke="#5b00c0" d="M290.5,-162C290.5,-108.7315 280.7513,-73.536 327.5,-48 348.8193,-36.3546 732.107,-53.2212 794.8467,-35.5962"/>
<polygon fill="#5b00c0" stroke="#5b00c0" points="797.0037,-38.3695 803.5,-30 793.2023,-32.4916 797.0037,-38.3695"/>
<text text-anchor="middle" x="303" y="-92.3" font-family="Times,serif" font-size="14.00" fill="#5b00c0">rw</text>
</g>
<!-- T2393 -->
<g id="node3" class="node">
<title>T2393</title>
<polygon fill="none" stroke="#0058ad" points="374.5,-81.5 374.5,-110.5 1376.5,-110.5 1376.5,-81.5 374.5,-81.5"/>
<text text-anchor="middle" x="403" y="-92.3" font-family="Times,serif" font-size="14.00" fill="#0058ad">a 14 63</text>
<polyline fill="none" stroke="#0058ad" points="431.5,-81.5 431.5,-110.5 "/>
<text text-anchor="middle" x="584.5" y="-92.3" font-family="Times,serif" font-size="14.00" fill="#0058ad">r 16 [76 78 79 80 81 85 84 86 87 88 89 90 91 92 94]</text>
<polyline fill="none" stroke="#0058ad" points="737.5,-81.5 737.5,-110.5 "/>
<text text-anchor="middle" x="1028.5" y="-92.3" font-family="Times,serif" font-size="14.00" fill="#0058ad">r 17 [47 63 66 64 65 67 72 74 75 76 79 80 81 78 82 83 84 85 86 87 88 89 90 91 93 92 94 95 96 97 98]</text>
<polyline fill="none" stroke="#0058ad" points="1319.5,-81.5 1319.5,-110.5 "/>
<text text-anchor="middle" x="1348" y="-92.3" font-family="Times,serif" font-size="14.00" fill="#0058ad">a 16 93</text>
</g>
<!-- T2395&#45;&gt;T2393 -->
<g id="edge2" class="edge">
<title>T2395:f2&#45;&gt;T2393:f3</title>
<path fill="none" stroke="#c02700" d="M689.5,-177C723.9228,-177 1270.7257,-151.4377 1341.069,-118.0142"/>
<polygon fill="#c02700" stroke="#c02700" points="1343.6304,-120.4094 1348.5,-111 1338.8254,-115.319 1343.6304,-120.4094"/>
<text text-anchor="middle" x="1304.5" y="-132.8" font-family="Times,serif" font-size="14.00" fill="#c02700">ww</text>
</g>
<!-- T2397&#45;&gt;T2395 -->
<g id="edge3" class="edge">
<title>T2397:f1&#45;&gt;T2395:f2</title>
<path fill="none" stroke="#5b00c0" d="M341.5,-30C341.5,-66.2215 325.5672,-84.7253 350.5,-111 396.0222,-158.9723 633.4679,-99.1767 658.3845,-152.0789"/>
<polygon fill="#5b00c0" stroke="#5b00c0" points="654.9914,-152.9498 660.5,-162 661.8375,-151.4899 654.9914,-152.9498"/>
<text text-anchor="middle" x="358" y="-92.3" font-family="Times,serif" font-size="14.00" fill="#5b00c0">rw</text>
</g>
<!-- T2393&#45;&gt;T2397 -->
<g id="edge4" class="edge">
<title>T2393:f2&#45;&gt;T2397:f3</title>
<path fill="none" stroke="#5b00c0" d="M1028.5,-81C1028.5,-38.0035 897.1766,-17.6911 842.6156,-15.2513"/>
<polygon fill="#5b00c0" stroke="#5b00c0" points="842.5839,-11.7496 832.5,-15 842.4099,-18.7474 842.5839,-11.7496"/>
<text text-anchor="middle" x="1026" y="-51.8" font-family="Times,serif" font-size="14.00" fill="#5b00c0">rw</text>
</g>
</g>
</svg>
