<?xml version="1.0" encoding="UTF-8" standalone="no"?>
<!DOCTYPE svg PUBLIC "-//W3C//DTD SVG 1.1//EN"
 "http://www.w3.org/Graphics/SVG/1.1/DTD/svg11.dtd">
<!-- Generated by graphviz version 2.40.1 (20161225.0304)
 -->
<!-- Title: a_graph Pages: 1 -->
<svg width="2052pt" height="119pt"
 viewBox="0.00 0.00 2052.00 119.00" xmlns="http://www.w3.org/2000/svg" xmlns:xlink="http://www.w3.org/1999/xlink">
<g id="graph0" class="graph" transform="scale(1 1) rotate(0) translate(4 115)">
<title>a_graph</title>
<polygon fill="#ffffff" stroke="transparent" points="-4,4 -4,-115 2048,-115 2048,4 -4,4"/>
<!-- T5221 -->
<g id="node1" class="node">
<title>T5221</title>
<polygon fill="none" stroke="#0058ad" points="0,-81.5 0,-110.5 2044,-110.5 2044,-81.5 0,-81.5"/>
<text text-anchor="middle" x="965" y="-92.3" font-family="Times,serif" font-size="14.00" fill="#0058ad">r 27 [1 2 3 4 5 6 7 9 10 13 14 16 18 19 22 23 24 25 26 27 28 29 30 31 32 33 34 36 38 35 39 40 37 41 42 43 44 45 47 46 48 50 49 51 52 53 54 55 58 56 57 59 60 61 62 63 64 65 67 68 66 70 71 69 72 73 74 75 76 79 78 80 82 81 83 84 85 86 87 88 90 91 89 92 95 96 93 94 98 99 100 101 102 104 105 106 107 108 109 111 112 113 114 115 116 117]</text>
<polyline fill="none" stroke="#0058ad" points="1930,-81.5 1930,-110.5 "/>
<text text-anchor="middle" x="1958.5" y="-92.3" font-family="Times,serif" font-size="14.00" fill="#0058ad">a 30 18</text>
<polyline fill="none" stroke="#0058ad" points="1987,-81.5 1987,-110.5 "/>
<text text-anchor="middle" x="2015.5" y="-92.3" font-family="Times,serif" font-size="14.00" fill="#0058ad">a 30 19</text>
</g>
<!-- T5219 -->
<g id="node2" class="node">
<title>T5219</title>
<polygon fill="none" stroke="#0058ad" points="1177.5,-.5 1177.5,-29.5 1612.5,-29.5 1612.5,-.5 1177.5,-.5"/>
<text text-anchor="middle" x="1206" y="-11.3" font-family="Times,serif" font-size="14.00" fill="#0058ad">a 29 37</text>
<polyline fill="none" stroke="#0058ad" points="1234.5,-.5 1234.5,-29.5 "/>
<text text-anchor="middle" x="1266.5" y="-11.3" font-family="Times,serif" font-size="14.00" fill="#0058ad">a 27 118</text>
<polyline fill="none" stroke="#0058ad" points="1298.5,-.5 1298.5,-29.5 "/>
<text text-anchor="middle" x="1455.5" y="-11.3" font-family="Times,serif" font-size="14.00" fill="#0058ad">r 30 [1 2 3 4 5 6 7 8 9 10 11 12 13 14 15 16 17 20 21]</text>
</g>
<!-- T5221&#45;&gt;T5219 -->
<g id="edge1" class="edge">
<title>T5221:f0&#45;&gt;T5219:f1</title>
<path fill="none" stroke="#5b00c0" d="M965,-81C965,51.1068 1250.3362,-154.311 1265.3832,-40.0033"/>
<polygon fill="#5b00c0" stroke="#5b00c0" points="1268.8779,-40.1965 1266,-30 1261.8912,-39.7656 1268.8779,-40.1965"/>
<text text-anchor="middle" x="1270.5" y="-51.8" font-family="Times,serif" font-size="14.00" fill="#5b00c0">rw</text>
</g>
<!-- T5219&#45;&gt;T5221 -->
<g id="edge2" class="edge">
<title>T5219:f2&#45;&gt;T5221:f1</title>
<path fill="none" stroke="#5b00c0" d="M1613,-15C1649.08,-15 1912.6868,-37.8291 1953.6552,-72.0588"/>
<polygon fill="#5b00c0" stroke="#5b00c0" points="1950.8649,-74.2125 1959,-81 1956.8732,-70.6208 1950.8649,-74.2125"/>
<text text-anchor="middle" x="1939.5" y="-51.8" font-family="Times,serif" font-size="14.00" fill="#5b00c0">rw</text>
</g>
</g>
</svg>
