<?xml version="1.0" encoding="UTF-8" standalone="no"?>
<!DOCTYPE svg PUBLIC "-//W3C//DTD SVG 1.1//EN"
 "http://www.w3.org/Graphics/SVG/1.1/DTD/svg11.dtd">
<!-- Generated by graphviz version 2.40.1 (20161225.0304)
 -->
<!-- Title: a_graph Pages: 1 -->
<svg width="3221pt" height="119pt"
 viewBox="0.00 0.00 3221.00 119.00" xmlns="http://www.w3.org/2000/svg" xmlns:xlink="http://www.w3.org/1999/xlink">
<g id="graph0" class="graph" transform="scale(1 1) rotate(0) translate(4 115)">
<title>a_graph</title>
<polygon fill="#ffffff" stroke="transparent" points="-4,4 -4,-115 3217,-115 3217,4 -4,4"/>
<!-- T13973 -->
<g id="node1" class="node">
<title>T13973</title>
<polygon fill="none" stroke="#0058ad" points="677,-81.5 677,-110.5 3213,-110.5 3213,-81.5 677,-81.5"/>
<text text-anchor="middle" x="1386" y="-92.3" font-family="Times,serif" font-size="14.00" fill="#0058ad">r 73 [1 3 4 2 7 8 9 5 6 13 11 12 10 14 15 18 16 17 19 20 21 22 24 23 26 27 28 25 31 29 30 33 32 34 35 37 36 38 39 40 41 43 45 44 46 47 42 49 50 51 52 53 48 57 54 55 58 56 60 61 59 62 63 64 66 67 65 68 69 70 71 74 75 78 79 80 81 82 84 85 86 72 73]</text>
<polyline fill="none" stroke="#0058ad" points="2095,-81.5 2095,-110.5 "/>
<text text-anchor="middle" x="2597" y="-92.3" font-family="Times,serif" font-size="14.00" fill="#0058ad">r 69 [1 2 3 4 5 6 7 8 9 10 12 11 13 14 15 16 17 18 19 20 21 23 26 27 28 29 30 31 32 33 34 35 37 38 36 39 40 41 43 42 44 45 46 47 48 49 50 51 52 53 54 55 56 57 58 59 60 62 61]</text>
<polyline fill="none" stroke="#0058ad" points="3099,-81.5 3099,-110.5 "/>
<text text-anchor="middle" x="3127.5" y="-92.3" font-family="Times,serif" font-size="14.00" fill="#0058ad">a 72 55</text>
<polyline fill="none" stroke="#0058ad" points="3156,-81.5 3156,-110.5 "/>
<text text-anchor="middle" x="3184.5" y="-92.3" font-family="Times,serif" font-size="14.00" fill="#0058ad">a 70 28</text>
</g>
<!-- T13977 -->
<g id="node2" class="node">
<title>T13977</title>
<polygon fill="none" stroke="#0058ad" points="0,-.5 0,-29.5 2732,-29.5 2732,-.5 0,-.5"/>
<text text-anchor="middle" x="212.5" y="-11.3" font-family="Times,serif" font-size="14.00" fill="#0058ad">r 70 [1 2 3 4 5 7 8 9 10 11 12 13 14 15 16 17 18 19 20 21 22 23 24 25 27]</text>
<polyline fill="none" stroke="#0058ad" points="425,-.5 425,-29.5 "/>
<text text-anchor="middle" x="1134" y="-11.3" font-family="Times,serif" font-size="14.00" fill="#0058ad">r 73 [1 3 4 2 7 8 9 5 6 13 11 12 10 14 15 18 16 17 19 20 21 22 24 23 26 27 28 25 31 29 30 33 32 34 35 37 36 38 39 40 41 43 45 44 46 47 42 49 50 51 52 53 48 57 54 55 58 56 60 61 59 62 63 64 66 67 65 68 69 70 71 74 75 78 79 80 81 82 84 85 86 72 73]</text>
<polyline fill="none" stroke="#0058ad" points="1843,-.5 1843,-29.5 "/>
<text text-anchor="middle" x="1871.5" y="-11.3" font-family="Times,serif" font-size="14.00" fill="#0058ad">a 73 90</text>
<polyline fill="none" stroke="#0058ad" points="1900,-.5 1900,-29.5 "/>
<text text-anchor="middle" x="2316" y="-11.3" font-family="Times,serif" font-size="14.00" fill="#0058ad">r 72 [1 2 4 5 3 6 8 7 9 10 11 12 14 15 16 13 17 18 19 20 21 22 23 24 25 26 27 28 29 31 32 33 34 35 30 36 37 38 39 40 41 42 44 43 45 46 48 50 54]</text>
</g>
<!-- T13973&#45;&gt;T13977 -->
<g id="edge1" class="edge">
<title>T13973:f0&#45;&gt;T13977:f2</title>
<path fill="none" stroke="#5b00c0" d="M1386,-81C1386,132.6865 1856.4641,-234.9872 1871.6255,-40.036"/>
<polygon fill="#5b00c0" stroke="#5b00c0" points="1875.1246,-40.1236 1872,-30 1868.1295,-39.8625 1875.1246,-40.1236"/>
<text text-anchor="middle" x="1877.5" y="-51.8" font-family="Times,serif" font-size="14.00" fill="#5b00c0">rw</text>
</g>
<!-- T13977&#45;&gt;T13973 -->
<g id="edge2" class="edge">
<title>T13977:f3&#45;&gt;T13973:f2</title>
<path fill="none" stroke="#5b00c0" d="M2732,-15C2773.5576,-15 3081.3916,-33.5682 3123.2841,-72.1769"/>
<polygon fill="#5b00c0" stroke="#5b00c0" points="3120.1993,-73.8306 3128,-81 3126.3728,-70.5309 3120.1993,-73.8306"/>
<text text-anchor="middle" x="3110.5" y="-51.8" font-family="Times,serif" font-size="14.00" fill="#5b00c0">rw</text>
</g>
</g>
</svg>
