<?xml version="1.0" encoding="UTF-8" standalone="no"?>
<!DOCTYPE svg PUBLIC "-//W3C//DTD SVG 1.1//EN"
 "http://www.w3.org/Graphics/SVG/1.1/DTD/svg11.dtd">
<!-- Generated by graphviz version 2.40.1 (20161225.0304)
 -->
<!-- Title: a_graph Pages: 1 -->
<svg width="1311pt" height="119pt"
 viewBox="0.00 0.00 1311.00 119.00" xmlns="http://www.w3.org/2000/svg" xmlns:xlink="http://www.w3.org/1999/xlink">
<g id="graph0" class="graph" transform="scale(1 1) rotate(0) translate(4 115)">
<title>a_graph</title>
<polygon fill="#ffffff" stroke="transparent" points="-4,4 -4,-115 1307,-115 1307,4 -4,4"/>
<!-- T14785 -->
<g id="node1" class="node">
<title>T14785</title>
<polygon fill="none" stroke="#0058ad" points="318.5,-81.5 318.5,-110.5 1196.5,-110.5 1196.5,-81.5 318.5,-81.5"/>
<text text-anchor="middle" x="729" y="-92.3" font-family="Times,serif" font-size="14.00" fill="#0058ad">r 75 [1 4 2 5 6 7 8 9 10 12 13 14 15 11 16 17 18 19 20 21 22 23 24 25 26 28 29 27 31 32 30 34 33 36 37 35 38 39 40 41 42 44 46 45 47 48 43 49]</text>
<polyline fill="none" stroke="#0058ad" points="1139.5,-81.5 1139.5,-110.5 "/>
<text text-anchor="middle" x="1168" y="-92.3" font-family="Times,serif" font-size="14.00" fill="#0058ad">a 76 72</text>
</g>
<!-- T14787 -->
<g id="node2" class="node">
<title>T14787</title>
<polygon fill="none" stroke="#0058ad" points="0,-.5 0,-29.5 1303,-29.5 1303,-.5 0,-.5"/>
<text text-anchor="middle" x="623" y="-11.3" font-family="Times,serif" font-size="14.00" fill="#0058ad">r 76 [1 2 3 5 6 7 8 9 4 10 11 12 13 14 15 17 16 19 18 20 21 22 23 24 25 28 29 30 31 27 32 33 26 35 36 37 34 38 39 40 41 43 44 45 47 48 42 49 50 51 52 53 46 56 54 55 57 59 61 60 62 58 64 65 66 63 67 69 70 71 68 73 74]</text>
<polyline fill="none" stroke="#0058ad" points="1246,-.5 1246,-29.5 "/>
<text text-anchor="middle" x="1274.5" y="-11.3" font-family="Times,serif" font-size="14.00" fill="#0058ad">a 75 50</text>
</g>
<!-- T14785&#45;&gt;T14787 -->
<g id="edge1" class="edge">
<title>T14785:f0&#45;&gt;T14787:f1</title>
<path fill="none" stroke="#5b00c0" d="M728.5,-81C728.5,54.0212 896.0404,-60.302 1030.5,-48 1042.4232,-46.9091 1222.6639,-44.3201 1265.4426,-34.4287"/>
<polygon fill="#5b00c0" stroke="#5b00c0" points="1267.0539,-37.537 1274.5,-30 1263.979,-31.2484 1267.0539,-37.537"/>
<text text-anchor="middle" x="1038" y="-51.8" font-family="Times,serif" font-size="14.00" fill="#5b00c0">rw</text>
</g>
<!-- T14787&#45;&gt;T14785 -->
<g id="edge2" class="edge">
<title>T14787:f0&#45;&gt;T14785:f1</title>
<path fill="none" stroke="#5b00c0" d="M622.5,-30C622.5,-53.5213 1022.2511,-44.431 1045.5,-48 1097.7295,-56.0179 1159.6432,-28.4952 1167.6358,-70.8609"/>
<polygon fill="#5b00c0" stroke="#5b00c0" points="1164.1633,-71.3334 1168.5,-81 1171.138,-70.7389 1164.1633,-71.3334"/>
<text text-anchor="middle" x="1172" y="-51.8" font-family="Times,serif" font-size="14.00" fill="#5b00c0">rw</text>
</g>
</g>
</svg>
