<?xml version="1.0" encoding="UTF-8" standalone="no"?>
<!DOCTYPE svg PUBLIC "-//W3C//DTD SVG 1.1//EN"
 "http://www.w3.org/Graphics/SVG/1.1/DTD/svg11.dtd">
<!-- Generated by graphviz version 2.40.1 (20161225.0304)
 -->
<!-- Title: a_graph Pages: 1 -->
<svg width="598pt" height="119pt"
 viewBox="0.00 0.00 598.00 119.00" xmlns="http://www.w3.org/2000/svg" xmlns:xlink="http://www.w3.org/1999/xlink">
<g id="graph0" class="graph" transform="scale(1 1) rotate(0) translate(4 115)">
<title>a_graph</title>
<polygon fill="#ffffff" stroke="transparent" points="-4,4 -4,-115 594,-115 594,4 -4,4"/>
<!-- T19481 -->
<g id="node1" class="node">
<title>T19481</title>
<polygon fill="none" stroke="#0058ad" points="199,-81.5 199,-110.5 487,-110.5 487,-81.5 199,-81.5"/>
<text text-anchor="middle" x="227.5" y="-92.3" font-family="Times,serif" font-size="14.00" fill="#0058ad">a 99 28</text>
<polyline fill="none" stroke="#0058ad" points="256,-81.5 256,-110.5 "/>
<text text-anchor="middle" x="371.5" y="-92.3" font-family="Times,serif" font-size="14.00" fill="#0058ad">r 98 [1 2 5 6 7 8 10 11 12 13 14 15 16]</text>
</g>
<!-- T19479 -->
<g id="node2" class="node">
<title>T19479</title>
<polygon fill="none" stroke="#0058ad" points="0,-.5 0,-29.5 590,-29.5 590,-.5 0,-.5"/>
<text text-anchor="middle" x="184.5" y="-11.3" font-family="Times,serif" font-size="14.00" fill="#0058ad">r 99 [1 2 4 5 6 9 10 11 12 13 14 15 16 17 18 19 23 24 25 26 27]</text>
<polyline fill="none" stroke="#0058ad" points="369,-.5 369,-29.5 "/>
<text text-anchor="middle" x="397.5" y="-11.3" font-family="Times,serif" font-size="14.00" fill="#0058ad">a 98 19</text>
<polyline fill="none" stroke="#0058ad" points="426,-.5 426,-29.5 "/>
<text text-anchor="middle" x="454.5" y="-11.3" font-family="Times,serif" font-size="14.00" fill="#0058ad">a 100 6</text>
<polyline fill="none" stroke="#0058ad" points="483,-.5 483,-29.5 "/>
<text text-anchor="middle" x="536.5" y="-11.3" font-family="Times,serif" font-size="14.00" fill="#0058ad">r 100 [1 2 3 5 6]</text>
</g>
<!-- T19481&#45;&gt;T19479 -->
<g id="edge1" class="edge">
<title>T19481:f1&#45;&gt;T19479:f1</title>
<path fill="none" stroke="#5b00c0" d="M372,-81C372,-59.5331 390.5098,-56.0967 396.2941,-40.2643"/>
<polygon fill="#5b00c0" stroke="#5b00c0" points="399.813,-40.4385 398,-30 392.9078,-39.2908 399.813,-40.4385"/>
<text text-anchor="middle" x="398.5" y="-51.8" font-family="Times,serif" font-size="14.00" fill="#5b00c0">rw</text>
</g>
<!-- T19479&#45;&gt;T19481 -->
<g id="edge2" class="edge">
<title>T19479:f0&#45;&gt;T19481:f0</title>
<path fill="none" stroke="#5b00c0" d="M184,-30C184,-55.8512 172.862,-86.0133 188.8212,-93.9852"/>
<polygon fill="#5b00c0" stroke="#5b00c0" points="188.5107,-97.4916 199,-96 189.87,-90.6248 188.5107,-97.4916"/>
<text text-anchor="middle" x="190.5" y="-51.8" font-family="Times,serif" font-size="14.00" fill="#5b00c0">rw</text>
</g>
</g>
</svg>
