<?xml version="1.0" encoding="UTF-8" standalone="no"?>
<!DOCTYPE svg PUBLIC "-//W3C//DTD SVG 1.1//EN"
 "http://www.w3.org/Graphics/SVG/1.1/DTD/svg11.dtd">
<!-- Generated by graphviz version 2.40.1 (20161225.0304)
 -->
<!-- Title: a_graph Pages: 1 -->
<svg width="2230pt" height="200pt"
 viewBox="0.00 0.00 2230.00 200.00" xmlns="http://www.w3.org/2000/svg" xmlns:xlink="http://www.w3.org/1999/xlink">
<g id="graph0" class="graph" transform="scale(1 1) rotate(0) translate(4 196)">
<title>a_graph</title>
<polygon fill="#ffffff" stroke="transparent" points="-4,4 -4,-196 2226,-196 2226,4 -4,4"/>
<!-- T455 -->
<g id="node1" class="node">
<title>T455</title>
<polygon fill="none" stroke="#0058ad" points="1157.5,-162.5 1157.5,-191.5 1458.5,-191.5 1458.5,-162.5 1157.5,-162.5"/>
<text text-anchor="middle" x="1186" y="-173.3" font-family="Times,serif" font-size="14.00" fill="#0058ad">a 10 18</text>
<polyline fill="none" stroke="#0058ad" points="1214.5,-162.5 1214.5,-191.5 "/>
<text text-anchor="middle" x="1243" y="-173.3" font-family="Times,serif" font-size="14.00" fill="#0058ad">a 10 19</text>
<polyline fill="none" stroke="#0058ad" points="1271.5,-162.5 1271.5,-191.5 "/>
<text text-anchor="middle" x="1365" y="-173.3" font-family="Times,serif" font-size="14.00" fill="#0058ad">r 6 [1 2 3 4 5 6 7 8 9 11 10 12]</text>
</g>
<!-- T457 -->
<g id="node3" class="node">
<title>T457</title>
<polygon fill="none" stroke="#0058ad" points="788,-81.5 788,-110.5 2222,-110.5 2222,-81.5 788,-81.5"/>
<text text-anchor="middle" x="1064" y="-92.3" font-family="Times,serif" font-size="14.00" fill="#0058ad">r 7 [3 5 6 7 8 10 9 11 12 13 14 15 16 17 18 19 20 21 22 23 24 25 26 27 28 32 34 35 36 37 38 39]</text>
<polyline fill="none" stroke="#0058ad" points="1340,-81.5 1340,-110.5 "/>
<text text-anchor="middle" x="1365" y="-92.3" font-family="Times,serif" font-size="14.00" fill="#0058ad">a 6 13</text>
<polyline fill="none" stroke="#0058ad" points="1390,-81.5 1390,-110.5 "/>
<text text-anchor="middle" x="1530" y="-92.3" font-family="Times,serif" font-size="14.00" fill="#0058ad">r 10 [2 3 4 5 1 6 7 8 9 10 11 12 13 14 15 16 17]</text>
<polyline fill="none" stroke="#0058ad" points="1670,-81.5 1670,-110.5 "/>
<text text-anchor="middle" x="1946" y="-92.3" font-family="Times,serif" font-size="14.00" fill="#0058ad">r 7 [3 5 6 7 8 10 9 11 12 13 14 15 16 17 18 19 20 21 22 23 24 25 26 27 28 32 34 35 36 37 38 39]</text>
</g>
<!-- T455&#45;&gt;T457 -->
<g id="edge1" class="edge">
<title>T455:f2&#45;&gt;T457:f1</title>
<path fill="none" stroke="#5b00c0" d="M1365,-162C1365,-143.2292 1365,-136.1168 1365,-121.3535"/>
<polygon fill="#5b00c0" stroke="#5b00c0" points="1368.5001,-121 1365,-111 1361.5001,-121 1368.5001,-121"/>
<text text-anchor="middle" x="1372.5" y="-132.8" font-family="Times,serif" font-size="14.00" fill="#5b00c0">rw</text>
</g>
<!-- T456 -->
<g id="node2" class="node">
<title>T456</title>
<polygon fill="none" stroke="#0058ad" points="0,-.5 0,-29.5 1294,-29.5 1294,-.5 0,-.5"/>
<text text-anchor="middle" x="140" y="-11.3" font-family="Times,serif" font-size="14.00" fill="#0058ad">r 10 [2 3 4 5 1 6 7 8 9 10 11 12 13 14 15 16 17]</text>
<polyline fill="none" stroke="#0058ad" points="280,-.5 280,-29.5 "/>
<text text-anchor="middle" x="737" y="-11.3" font-family="Times,serif" font-size="14.00" fill="#0058ad">r 8 [8 10 11 12 13 14 15 16 17 18 19 20 21 22 23 24 25 26 27 28 29 30 31 32 33 34 35 36 37 38 39 40 41 42 43 44 45 47 48 51 54 55 56 57 58 59 60 61 63 62 65]</text>
<polyline fill="none" stroke="#0058ad" points="1194,-.5 1194,-29.5 "/>
<text text-anchor="middle" x="1219" y="-11.3" font-family="Times,serif" font-size="14.00" fill="#0058ad">a 8 64</text>
<polyline fill="none" stroke="#0058ad" points="1244,-.5 1244,-29.5 "/>
<text text-anchor="middle" x="1269" y="-11.3" font-family="Times,serif" font-size="14.00" fill="#0058ad">a 7 40</text>
</g>
<!-- T456&#45;&gt;T455 -->
<g id="edge2" class="edge">
<title>T456:f0&#45;&gt;T455:f0</title>
<path fill="none" stroke="#5b00c0" d="M140,-30C140,-141.2754 997.5611,-175.2806 1146.8055,-176.9357"/>
<polygon fill="#5b00c0" stroke="#5b00c0" points="1146.9781,-180.4368 1157,-177 1147.0223,-173.4369 1146.9781,-180.4368"/>
<text text-anchor="middle" x="333.5" y="-92.3" font-family="Times,serif" font-size="14.00" fill="#5b00c0">rw</text>
</g>
<!-- T457&#45;&gt;T455 -->
<g id="edge3" class="edge">
<title>T457:f2&#45;&gt;T455:f0</title>
<path fill="none" stroke="#5b00c0" d="M1530,-111C1530,-131.542 1366.31,-125.921 1346,-129 1277.8579,-139.3305 1194.9167,-94.3619 1186.6687,-151.8668"/>
<polygon fill="#5b00c0" stroke="#5b00c0" points="1183.1662,-151.7912 1186,-162 1190.151,-152.2522 1183.1662,-151.7912"/>
<text text-anchor="middle" x="1353.5" y="-132.8" font-family="Times,serif" font-size="14.00" fill="#5b00c0">rw</text>
</g>
<!-- T457&#45;&gt;T456 -->
<g id="edge4" class="edge">
<title>T457:f0&#45;&gt;T456:f3</title>
<path fill="none" stroke="#5b00c0" d="M1064,-81C1064,9.2208 1253.2972,-113.5546 1268.086,-39.9741"/>
<polygon fill="#5b00c0" stroke="#5b00c0" points="1271.5728,-40.2777 1269,-30 1264.602,-39.6389 1271.5728,-40.2777"/>
<text text-anchor="middle" x="1272.5" y="-51.8" font-family="Times,serif" font-size="14.00" fill="#5b00c0">rw</text>
</g>
</g>
</svg>
