<?xml version="1.0" encoding="UTF-8" standalone="no"?>
<!DOCTYPE svg PUBLIC "-//W3C//DTD SVG 1.1//EN"
 "http://www.w3.org/Graphics/SVG/1.1/DTD/svg11.dtd">
<!-- Generated by graphviz version 2.40.1 (20161225.0304)
 -->
<!-- Title: a_graph Pages: 1 -->
<svg width="3254pt" height="119pt"
 viewBox="0.00 0.00 3254.00 119.00" xmlns="http://www.w3.org/2000/svg" xmlns:xlink="http://www.w3.org/1999/xlink">
<g id="graph0" class="graph" transform="scale(1 1) rotate(0) translate(4 115)">
<title>a_graph</title>
<polygon fill="#ffffff" stroke="transparent" points="-4,4 -4,-115 3250,-115 3250,4 -4,4"/>
<!-- T17693 -->
<g id="node1" class="node">
<title>T17693</title>
<polygon fill="none" stroke="#0058ad" points="0,-81.5 0,-110.5 3246,-110.5 3246,-81.5 0,-81.5"/>
<text text-anchor="middle" x="795.5" y="-92.3" font-family="Times,serif" font-size="14.00" fill="#0058ad">r 89 [1 2 3 4 5 7 6 10 8 9 13 14 11 12 15 16 17 18 20 21 19 23 24 25 26 22 28 27 29 32 30 33 31 34 35 36 37 38 39 40 41 43 44 45 46 42 47 48 49 51 50 52 55 56 57 58 53 54 60 61 62 63 64 66 67 68 69 71 72 74 77 78 79 80 81 75 83 82 86 87 88 84 85 89 91 92 90 93 94 95 96 97 98]</text>
<polyline fill="none" stroke="#0058ad" points="1591,-81.5 1591,-110.5 "/>
<text text-anchor="middle" x="2386.5" y="-92.3" font-family="Times,serif" font-size="14.00" fill="#0058ad">r 89 [1 2 3 4 5 7 6 10 8 9 13 14 11 12 15 16 17 18 20 21 19 23 24 25 26 22 28 27 29 32 30 33 31 34 35 36 37 38 39 40 41 43 44 45 46 42 47 48 49 51 50 52 55 56 57 58 53 54 60 61 62 63 64 66 67 68 69 71 72 74 77 78 79 80 81 75 83 82 86 87 88 84 85 89 91 92 90 93 94 95 96 97 98]</text>
<polyline fill="none" stroke="#0058ad" points="3182,-81.5 3182,-110.5 "/>
<text text-anchor="middle" x="3214" y="-92.3" font-family="Times,serif" font-size="14.00" fill="#0058ad">a 88 109</text>
</g>
<!-- T17691 -->
<g id="node2" class="node">
<title>T17691</title>
<polygon fill="none" stroke="#0058ad" points="825,-.5 825,-29.5 2435,-29.5 2435,-.5 825,-.5"/>
<text text-anchor="middle" x="1601.5" y="-11.3" font-family="Times,serif" font-size="14.00" fill="#0058ad">r 88 [29 30 31 33 34 32 35 36 37 38 26 27 42 43 24 44 45 46 47 48 49 50 51 52 53 55 54 56 57 58 59 61 62 63 60 64 65 66 67 68 69 70 71 74 72 73 75 76 77 79 78 81 80 84 85 86 87 88 89 91 93 94 96 99 100 101 95 102 104 105 103 106 107 108 110 111 112 113 114 115 116]</text>
<polyline fill="none" stroke="#0058ad" points="2378,-.5 2378,-29.5 "/>
<text text-anchor="middle" x="2406.5" y="-11.3" font-family="Times,serif" font-size="14.00" fill="#0058ad">a 89 99</text>
</g>
<!-- T17693&#45;&gt;T17691 -->
<g id="edge1" class="edge">
<title>T17693:f0&#45;&gt;T17691:f1</title>
<path fill="none" stroke="#5b00c0" d="M795,-81C795,94.7007 2344.6462,-197.3785 2405.1792,-39.9504"/>
<polygon fill="#5b00c0" stroke="#5b00c0" points="2408.6428,-40.4667 2407,-30 2401.7571,-39.2067 2408.6428,-40.4667"/>
<text text-anchor="middle" x="2406.5" y="-51.8" font-family="Times,serif" font-size="14.00" fill="#5b00c0">rw</text>
</g>
<!-- T17691&#45;&gt;T17693 -->
<g id="edge2" class="edge">
<title>T17691:f0&#45;&gt;T17693:f2</title>
<path fill="none" stroke="#5b00c0" d="M1601,-30C1601,-41.35 2406.6557,-47.6399 2418,-48 2503.0198,-50.6987 3159.6693,3.0568 3210.8403,-71.2863"/>
<polygon fill="#5b00c0" stroke="#5b00c0" points="3207.5783,-72.5731 3214,-81 3214.235,-70.4078 3207.5783,-72.5731"/>
<text text-anchor="middle" x="3208.5" y="-51.8" font-family="Times,serif" font-size="14.00" fill="#5b00c0">rw</text>
</g>
</g>
</svg>
