<?xml version="1.0" encoding="UTF-8" standalone="no"?>
<!DOCTYPE svg PUBLIC "-//W3C//DTD SVG 1.1//EN"
 "http://www.w3.org/Graphics/SVG/1.1/DTD/svg11.dtd">
<!-- Generated by graphviz version 2.40.1 (20161225.0304)
 -->
<!-- Title: a_graph Pages: 1 -->
<svg width="2864pt" height="119pt"
 viewBox="0.00 0.00 2864.00 119.00" xmlns="http://www.w3.org/2000/svg" xmlns:xlink="http://www.w3.org/1999/xlink">
<g id="graph0" class="graph" transform="scale(1 1) rotate(0) translate(4 115)">
<title>a_graph</title>
<polygon fill="#ffffff" stroke="transparent" points="-4,4 -4,-115 2860,-115 2860,4 -4,4"/>
<!-- T22831 -->
<g id="node1" class="node">
<title>T22831</title>
<polygon fill="none" stroke="#0058ad" points="447,-81.5 447,-110.5 2856,-110.5 2856,-81.5 447,-81.5"/>
<text text-anchor="middle" x="723" y="-92.3" font-family="Times,serif" font-size="14.00" fill="#0058ad">r 116 [1 2 3 5 6 8 9 7 10 11 12 13 14 15 16 17 18 19 20 21 23 25 22 24 26 27 28 30 29 31 32 33]</text>
<polyline fill="none" stroke="#0058ad" points="999,-81.5 999,-110.5 "/>
<text text-anchor="middle" x="1031" y="-92.3" font-family="Times,serif" font-size="14.00" fill="#0058ad">a 115 63</text>
<polyline fill="none" stroke="#0058ad" points="1063,-81.5 1063,-110.5 "/>
<text text-anchor="middle" x="1959.5" y="-92.3" font-family="Times,serif" font-size="14.00" fill="#0058ad">r 104 [1 2 3 4 5 7 8 9 10 11 12 13 14 15 16 17 18 19 20 21 22 23 24 25 26 27 28 29 30 31 32 33 34 35 36 37 38 39 40 41 43 42 44 45 46 47 48 49 50 51 52 53 54 55 56 57 58 59 60 62 63 64 65 66 67 68 69 70 71 72 73 74 75 76 77 78 79 80 81 82 83 84 85 86 87 88 89 90 91 92 93 94 95 96 97 98 99 100 102 101 103 104]</text>
</g>
<!-- T22833 -->
<g id="node2" class="node">
<title>T22833</title>
<polygon fill="none" stroke="#0058ad" points="0,-.5 0,-29.5 1191,-29.5 1191,-.5 0,-.5"/>
<text text-anchor="middle" x="32" y="-11.3" font-family="Times,serif" font-size="14.00" fill="#0058ad">a 114 22</text>
<polyline fill="none" stroke="#0058ad" points="64,-.5 64,-29.5 "/>
<text text-anchor="middle" x="595.5" y="-11.3" font-family="Times,serif" font-size="14.00" fill="#0058ad">r 115 [1 3 4 5 6 7 8 9 10 11 12 13 14 15 16 17 2 18 19 20 21 22 23 24 25 26 28 29 30 31 27 32 33 34 36 37 35 38 39 40 41 42 44 43 45 46 49 47 48 50 51 52 53 54 55 56 57 58 59 61 60 62]</text>
<polyline fill="none" stroke="#0058ad" points="1127,-.5 1127,-29.5 "/>
<text text-anchor="middle" x="1159" y="-11.3" font-family="Times,serif" font-size="14.00" fill="#0058ad">a 116 34</text>
</g>
<!-- T22831&#45;&gt;T22833 -->
<g id="edge1" class="edge">
<title>T22831:f0&#45;&gt;T22833:f2</title>
<path fill="none" stroke="#5b00c0" d="M722.5,-81C722.5,10.8453 835.3014,-58.8799 926.5,-48 949.4632,-45.2605 1116.3418,-53.7195 1152.5718,-37.2588"/>
<polygon fill="#5b00c0" stroke="#5b00c0" points="1155.1274,-39.6505 1159.5,-30 1150.0637,-34.8174 1155.1274,-39.6505"/>
<text text-anchor="middle" x="934" y="-51.8" font-family="Times,serif" font-size="14.00" fill="#5b00c0">rw</text>
</g>
<!-- T22833&#45;&gt;T22831 -->
<g id="edge2" class="edge">
<title>T22833:f1&#45;&gt;T22831:f1</title>
<path fill="none" stroke="#5b00c0" d="M595.5,-30C595.5,-49.2482 922.6491,-44.1095 941.5,-48 979.1044,-55.7608 1021.9832,-41.7841 1029.3845,-71.0173"/>
<polygon fill="#5b00c0" stroke="#5b00c0" points="1025.911,-71.4506 1030.5,-81 1032.8677,-70.6731 1025.911,-71.4506"/>
<text text-anchor="middle" x="1032" y="-51.8" font-family="Times,serif" font-size="14.00" fill="#5b00c0">rw</text>
</g>
</g>
</svg>
