<?xml version="1.0" encoding="UTF-8" standalone="no"?>
<!DOCTYPE svg PUBLIC "-//W3C//DTD SVG 1.1//EN"
 "http://www.w3.org/Graphics/SVG/1.1/DTD/svg11.dtd">
<!-- Generated by graphviz version 2.40.1 (20161225.0304)
 -->
<!-- Title: a_graph Pages: 1 -->
<svg width="4755pt" height="119pt"
 viewBox="0.00 0.00 4755.00 119.00" xmlns="http://www.w3.org/2000/svg" xmlns:xlink="http://www.w3.org/1999/xlink">
<g id="graph0" class="graph" transform="scale(1 1) rotate(0) translate(4 115)">
<title>a_graph</title>
<polygon fill="#ffffff" stroke="transparent" points="-4,4 -4,-115 4751,-115 4751,4 -4,4"/>
<!-- T7959 -->
<g id="node1" class="node">
<title>T7959</title>
<polygon fill="none" stroke="#0058ad" points="0,-81.5 0,-110.5 4747,-110.5 4747,-81.5 0,-81.5"/>
<text text-anchor="middle" x="32" y="-92.3" font-family="Times,serif" font-size="14.00" fill="#0058ad">a 42 115</text>
<polyline fill="none" stroke="#0058ad" points="64,-81.5 64,-110.5 "/>
<text text-anchor="middle" x="1197.5" y="-92.3" font-family="Times,serif" font-size="14.00" fill="#0058ad">r 36 [1 2 3 4 5 6 7 8 9 10 11 12 13 14 15 16 17 18 20 19 21 22 23 24 25 27 26 28 29 30 31 32 33 34 35 36 37 38 39 40 41 42 44 45 47 46 48 49 50 51 52 53 54 55 56 57 58 59 60 63 61 62 64 65 66 67 68 69 71 72 73 70 74 75 76 77 78 79 80 81 82 83 84 85 86 87 88 89 90 91 92 93 94 95 96 97 100 101 102 103 104 105 106 107 108 109 110 111 112 113 114 115 116 117 118 120 119 121 122 123 124 125]</text>
<polyline fill="none" stroke="#0058ad" points="2331,-81.5 2331,-110.5 "/>
<text text-anchor="middle" x="3370" y="-92.3" font-family="Times,serif" font-size="14.00" fill="#0058ad">r 42 [1 2 3 4 5 6 7 8 9 10 11 12 13 17 14 15 16 18 19 20 21 22 23 24 25 27 28 29 30 31 32 33 34 26 36 35 37 38 39 40 41 42 43 44 45 46 47 48 52 53 54 55 49 50 51 56 57 58 59 60 61 62 63 64 65 66 67 68 70 71 72 69 73 74 75 76 77 78 79 80 81 82 83 84 85 86 87 89 90 91 92 88 93 95 96 94 97 99 98 100 101 102 104 105 103 106 107 108 109 110 111 112 113 114 115]</text>
<polyline fill="none" stroke="#0058ad" points="4409,-81.5 4409,-110.5 "/>
<text text-anchor="middle" x="4578" y="-92.3" font-family="Times,serif" font-size="14.00" fill="#0058ad">r 40 [1 2 3 4 5 6 7 8 11 13 14 15 16 17 18 19 20 21 22 23]</text>
</g>
<!-- T7964 -->
<g id="node2" class="node">
<title>T7964</title>
<polygon fill="none" stroke="#0058ad" points="27.5,-.5 27.5,-29.5 2259.5,-29.5 2259.5,-.5 27.5,-.5"/>
<text text-anchor="middle" x="59.5" y="-11.3" font-family="Times,serif" font-size="14.00" fill="#0058ad">a 36 126</text>
<polyline fill="none" stroke="#0058ad" points="91.5,-.5 91.5,-29.5 "/>
<text text-anchor="middle" x="116.5" y="-11.3" font-family="Times,serif" font-size="14.00" fill="#0058ad">a 4 82</text>
<polyline fill="none" stroke="#0058ad" points="141.5,-.5 141.5,-29.5 "/>
<text text-anchor="middle" x="1168.5" y="-11.3" font-family="Times,serif" font-size="14.00" fill="#0058ad">r 42 [1 2 3 4 5 6 7 8 9 10 11 12 13 17 14 15 16 18 19 20 21 22 23 24 25 27 28 29 30 31 32 33 34 26 36 35 37 38 39 40 41 42 43 44 45 46 47 48 52 53 54 55 49 50 51 56 57 58 59 60 61 62 63 64 65 66 67 68 70 71 72 69 73 74 75 76 77 78 79 80 81 82 83 84 85 86 87 89 90 91 92 88 93 95 96 94 97 99 98 100 101 102 104 105 103 106 107 108 109 110 111 112 113 114]</text>
<polyline fill="none" stroke="#0058ad" points="2195.5,-.5 2195.5,-29.5 "/>
<text text-anchor="middle" x="2227.5" y="-11.3" font-family="Times,serif" font-size="14.00" fill="#0058ad">a 36 127</text>
</g>
<!-- T7959&#45;&gt;T7964 -->
<g id="edge1" class="edge">
<title>T7959:f1&#45;&gt;T7964:f0</title>
<path fill="none" stroke="#5b00c0" d="M1197.5,-81C1197.5,-66.0438 180.5653,-47.928 69.3381,-32.6263"/>
<polygon fill="#5b00c0" stroke="#5b00c0" points="70.0644,-29.1977 59.5,-30 68.2589,-35.9608 70.0644,-29.1977"/>
<text text-anchor="middle" x="868" y="-51.8" font-family="Times,serif" font-size="14.00" fill="#5b00c0">rw</text>
</g>
<!-- T7964&#45;&gt;T7959 -->
<g id="edge2" class="edge">
<title>T7964:f2&#45;&gt;T7959:f0</title>
<path fill="none" stroke="#5b00c0" d="M1168.5,-30C1168.5,-52.0057 398.4673,-46.7015 376.5,-48 226.3391,-56.8762 40.4436,67.0102 31.8122,-70.6324"/>
<polygon fill="#5b00c0" stroke="#5b00c0" points="28.3027,-70.8992 31.5,-81 35.2995,-71.1099 28.3027,-70.8992"/>
<text text-anchor="middle" x="384" y="-51.8" font-family="Times,serif" font-size="14.00" fill="#5b00c0">rw</text>
</g>
</g>
</svg>
