<?xml version="1.0" encoding="UTF-8" standalone="no"?>
<!DOCTYPE svg PUBLIC "-//W3C//DTD SVG 1.1//EN"
 "http://www.w3.org/Graphics/SVG/1.1/DTD/svg11.dtd">
<!-- Generated by graphviz version 2.40.1 (20161225.0304)
 -->
<!-- Title: a_graph Pages: 1 -->
<svg width="3264pt" height="119pt"
 viewBox="0.00 0.00 3264.00 119.00" xmlns="http://www.w3.org/2000/svg" xmlns:xlink="http://www.w3.org/1999/xlink">
<g id="graph0" class="graph" transform="scale(1 1) rotate(0) translate(4 115)">
<title>a_graph</title>
<polygon fill="#ffffff" stroke="transparent" points="-4,4 -4,-115 3260,-115 3260,4 -4,4"/>
<!-- T5523 -->
<g id="node1" class="node">
<title>T5523</title>
<polygon fill="none" stroke="#0058ad" points="1045,-81.5 1045,-110.5 2995,-110.5 2995,-81.5 1045,-81.5"/>
<text text-anchor="middle" x="1504" y="-92.3" font-family="Times,serif" font-size="14.00" fill="#0058ad">r 29 [1 2 3 5 6 7 4 8 10 9 11 12 13 15 14 16 18 19 17 20 21 22 23 24 26 27 28 29 32 33 34 35 36 37 38 39 40 41 42 43 44 45 46 47 48 49 50 51 52 53 54 55 56 57]</text>
<polyline fill="none" stroke="#0058ad" points="1963,-81.5 1963,-110.5 "/>
<text text-anchor="middle" x="2422" y="-92.3" font-family="Times,serif" font-size="14.00" fill="#0058ad">r 29 [1 2 3 5 6 7 4 8 10 9 11 12 13 15 14 16 18 19 17 20 21 22 23 24 26 27 28 29 32 33 34 35 36 37 38 39 40 41 42 43 44 45 46 47 48 49 50 51 52 53 54 55 56 57]</text>
<polyline fill="none" stroke="#0058ad" points="2881,-81.5 2881,-110.5 "/>
<text text-anchor="middle" x="2909.5" y="-92.3" font-family="Times,serif" font-size="14.00" fill="#0058ad">a 31 35</text>
<polyline fill="none" stroke="#0058ad" points="2938,-81.5 2938,-110.5 "/>
<text text-anchor="middle" x="2966.5" y="-92.3" font-family="Times,serif" font-size="14.00" fill="#0058ad">a 31 36</text>
</g>
<!-- T5521 -->
<g id="node2" class="node">
<title>T5521</title>
<polygon fill="none" stroke="#0058ad" points="0,-.5 0,-29.5 3256,-29.5 3256,-.5 0,-.5"/>
<text text-anchor="middle" x="459" y="-11.3" font-family="Times,serif" font-size="14.00" fill="#0058ad">r 29 [1 2 3 5 6 7 4 8 10 9 11 12 13 15 14 16 18 19 17 20 21 22 23 24 26 27 28 29 32 33 34 35 36 37 38 39 40 41 42 43 44 45 46 47 48 49 50 51 52 53 54 55 56 57]</text>
<polyline fill="none" stroke="#0058ad" points="918,-.5 918,-29.5 "/>
<text text-anchor="middle" x="1187.5" y="-11.3" font-family="Times,serif" font-size="14.00" fill="#0058ad">r 31 [1 2 3 4 5 6 7 8 9 10 11 12 13 14 15 16 17 18 19 21 20 22 23 24 25 26 27 28 29 30 31 34]</text>
<polyline fill="none" stroke="#0058ad" points="1457,-.5 1457,-29.5 "/>
<text text-anchor="middle" x="2328" y="-11.3" font-family="Times,serif" font-size="14.00" fill="#0058ad">r 30 [1 2 3 4 5 6 7 8 9 10 11 12 13 14 15 16 17 20 21 18 19 22 23 24 25 26 27 28 29 32 30 31 34 33 35 36 37 38 39 40 41 42 43 45 46 44 47 48 49 50 51 54 52 53 55 56 57 58 59 60 61 62 63 64 65 66 67 68 69 70 71 72 73 74 75 76 77 78 79 80 81 82 83 84 85 86 87 88 89 90 91 92 94 93 95 96 97 99 98 100 101]</text>
<polyline fill="none" stroke="#0058ad" points="3199,-.5 3199,-29.5 "/>
<text text-anchor="middle" x="3227.5" y="-11.3" font-family="Times,serif" font-size="14.00" fill="#0058ad">a 29 58</text>
</g>
<!-- T5523&#45;&gt;T5521 -->
<g id="edge1" class="edge">
<title>T5523:f0&#45;&gt;T5521:f3</title>
<path fill="none" stroke="#5b00c0" d="M1504,-81C1504,33.17 2416.8779,-51.3071 2531,-48 2548.9982,-47.4784 3135.9612,-49.1087 3218.4139,-33.7778"/>
<polygon fill="#5b00c0" stroke="#5b00c0" points="3219.9797,-36.9228 3228,-30 3217.4131,-30.4102 3219.9797,-36.9228"/>
<text text-anchor="middle" x="2538.5" y="-51.8" font-family="Times,serif" font-size="14.00" fill="#5b00c0">rw</text>
</g>
<!-- T5521&#45;&gt;T5523 -->
<g id="edge2" class="edge">
<title>T5521:f1&#45;&gt;T5523:f2</title>
<path fill="none" stroke="#5b00c0" d="M1187,-30C1187,-48.8767 2527.1487,-47.0221 2546,-48 2704.7379,-56.2345 2901.3482,75.5852 2909.723,-70.9416"/>
<polygon fill="#5b00c0" stroke="#5b00c0" points="2906.2259,-71.1002 2910,-81 2913.2233,-70.9074 2906.2259,-71.1002"/>
<text text-anchor="middle" x="2916.5" y="-51.8" font-family="Times,serif" font-size="14.00" fill="#5b00c0">rw</text>
</g>
</g>
</svg>
