<?xml version="1.0" encoding="UTF-8" standalone="no"?>
<!DOCTYPE svg PUBLIC "-//W3C//DTD SVG 1.1//EN"
 "http://www.w3.org/Graphics/SVG/1.1/DTD/svg11.dtd">
<!-- Generated by graphviz version 2.40.1 (20161225.0304)
 -->
<!-- Title: a_graph Pages: 1 -->
<svg width="1921pt" height="200pt"
 viewBox="0.00 0.00 1921.00 200.00" xmlns="http://www.w3.org/2000/svg" xmlns:xlink="http://www.w3.org/1999/xlink">
<g id="graph0" class="graph" transform="scale(1 1) rotate(0) translate(4 196)">
<title>a_graph</title>
<polygon fill="#ffffff" stroke="transparent" points="-4,4 -4,-196 1917,-196 1917,4 -4,4"/>
<!-- T10897 -->
<g id="node1" class="node">
<title>T10897</title>
<polygon fill="none" stroke="#0058ad" points="41.5,-162.5 41.5,-191.5 400.5,-191.5 400.5,-162.5 41.5,-162.5"/>
<text text-anchor="middle" x="70" y="-173.3" font-family="Times,serif" font-size="14.00" fill="#0058ad">a 57 16</text>
<polyline fill="none" stroke="#0058ad" points="98.5,-162.5 98.5,-191.5 "/>
<text text-anchor="middle" x="127" y="-173.3" font-family="Times,serif" font-size="14.00" fill="#0058ad">a 52 90</text>
<polyline fill="none" stroke="#0058ad" points="155.5,-162.5 155.5,-191.5 "/>
<text text-anchor="middle" x="278" y="-173.3" font-family="Times,serif" font-size="14.00" fill="#0058ad">r 56 [1 2 3 4 5 6 7 8 9 10 11 12 13 14 16]</text>
</g>
<!-- T10891 -->
<g id="node3" class="node">
<title>T10891</title>
<polygon fill="none" stroke="#0058ad" points="159,-81.5 159,-110.5 1913,-110.5 1913,-81.5 159,-81.5"/>
<text text-anchor="middle" x="187.5" y="-92.3" font-family="Times,serif" font-size="14.00" fill="#0058ad">a 56 17</text>
<polyline fill="none" stroke="#0058ad" points="216,-81.5 216,-110.5 "/>
<text text-anchor="middle" x="1064.5" y="-92.3" font-family="Times,serif" font-size="14.00" fill="#0058ad">r 54 [1 2 3 4 5 6 7 8 9 10 11 12 14 13 20 21 26 27 28 29 30 31 32 33 34 35 36 37 38 39 40 41 42 45 43 44 46 49 47 48 50 51 52 53 54 55 56 57 58 59 60 62 61 64 63 65 66 69 70 67 68 71 72 73 74 75 76 77 78 79 80 81 82 83 84 85 86 87 88 89 90 91 92 93 94 95 97 98 101 102 103 105 106 107 108 109]</text>
</g>
<!-- T10897&#45;&gt;T10891 -->
<g id="edge1" class="edge">
<title>T10897:f2&#45;&gt;T10891:f0</title>
<path fill="none" stroke="#5b00c0" d="M278,-162C278,-119.6213 201.9686,-150.8419 188.9007,-121.1131"/>
<polygon fill="#5b00c0" stroke="#5b00c0" points="192.2869,-120.1814 187,-111 185.4074,-121.4744 192.2869,-120.1814"/>
<text text-anchor="middle" x="275.5" y="-132.8" font-family="Times,serif" font-size="14.00" fill="#5b00c0">rw</text>
</g>
<!-- T10893 -->
<g id="node2" class="node">
<title>T10893</title>
<polygon fill="none" stroke="#0058ad" points="0,-.5 0,-29.5 210,-29.5 210,-.5 0,-.5"/>
<text text-anchor="middle" x="105" y="-11.3" font-family="Times,serif" font-size="14.00" fill="#0058ad">r 57 [4 7 8 9 10 11 12 13 14 15 17]</text>
</g>
<!-- T10893&#45;&gt;T10897 -->
<g id="edge2" class="edge">
<title>T10893:f0&#45;&gt;T10897:f0</title>
<path fill="none" stroke="#5b00c0" d="M99.0627,-29.7478C89.7597,-54.1335 72.5657,-104.8351 70.2584,-151.7467"/>
<polygon fill="#5b00c0" stroke="#5b00c0" points="66.7532,-151.9149 70,-162 73.751,-152.0914 66.7532,-151.9149"/>
<text text-anchor="middle" x="89.5" y="-92.3" font-family="Times,serif" font-size="14.00" fill="#5b00c0">rw</text>
</g>
<!-- T10891&#45;&gt;T10893 -->
<g id="edge3" class="edge">
<title>T10891&#45;&gt;T10893</title>
<path fill="none" stroke="#0050c0" d="M869.2873,-81.4955C682.1259,-65.2118 383.3588,-39.2181 220.3363,-25.0346"/>
<polygon fill="#0050c0" stroke="#0050c0" points="220.5431,-21.5395 210.2774,-24.1595 219.9363,-28.5131 220.5431,-21.5395"/>
<text text-anchor="middle" x="657.5" y="-51.8" font-family="Times,serif" font-size="14.00" fill="#0050c0">rt</text>
</g>
</g>
</svg>
