<?xml version="1.0" encoding="UTF-8" standalone="no"?>
<!DOCTYPE svg PUBLIC "-//W3C//DTD SVG 1.1//EN"
 "http://www.w3.org/Graphics/SVG/1.1/DTD/svg11.dtd">
<!-- Generated by graphviz version 2.40.1 (20161225.0304)
 -->
<!-- Title: a_graph Pages: 1 -->
<svg width="838pt" height="119pt"
 viewBox="0.00 0.00 837.50 119.00" xmlns="http://www.w3.org/2000/svg" xmlns:xlink="http://www.w3.org/1999/xlink">
<g id="graph0" class="graph" transform="scale(1 1) rotate(0) translate(4 115)">
<title>a_graph</title>
<polygon fill="#ffffff" stroke="transparent" points="-4,4 -4,-115 833.5,-115 833.5,4 -4,4"/>
<!-- T10187 -->
<g id="node1" class="node">
<title>T10187</title>
<polygon fill="none" stroke="#0058ad" points="74.5,-81.5 74.5,-110.5 829.5,-110.5 829.5,-81.5 74.5,-81.5"/>
<text text-anchor="middle" x="100" y="-92.3" font-family="Times,serif" font-size="14.00" fill="#0058ad">r 54 []</text>
<polyline fill="none" stroke="#0058ad" points="125.5,-81.5 125.5,-110.5 "/>
<text text-anchor="middle" x="154" y="-92.3" font-family="Times,serif" font-size="14.00" fill="#0058ad">a 52 27</text>
<polyline fill="none" stroke="#0058ad" points="182.5,-81.5 182.5,-110.5 "/>
<text text-anchor="middle" x="211" y="-92.3" font-family="Times,serif" font-size="14.00" fill="#0058ad">a 53 36</text>
<polyline fill="none" stroke="#0058ad" points="239.5,-81.5 239.5,-110.5 "/>
<text text-anchor="middle" x="534.5" y="-92.3" font-family="Times,serif" font-size="14.00" fill="#0058ad">r 53 [1 2 3 4 5 6 7 8 9 10 11 12 13 15 14 17 18 19 16 21 22 20 23 24 25 27 28 29 30 31 26 33 34 32 36]</text>
</g>
<!-- T10189 -->
<g id="node2" class="node">
<title>T10189</title>
<polygon fill="none" stroke="#0058ad" points="0,-.5 0,-29.5 680,-29.5 680,-.5 0,-.5"/>
<text text-anchor="middle" x="25" y="-11.3" font-family="Times,serif" font-size="14.00" fill="#0058ad">a 54 1</text>
<polyline fill="none" stroke="#0058ad" points="50,-.5 50,-29.5 "/>
<text text-anchor="middle" x="336.5" y="-11.3" font-family="Times,serif" font-size="14.00" fill="#0058ad">r 53 [1 2 3 4 5 6 7 8 9 10 11 12 13 15 14 17 18 19 16 21 22 20 23 24 25 27 28 29 30 31 26 33 34 32]</text>
<polyline fill="none" stroke="#0058ad" points="623,-.5 623,-29.5 "/>
<text text-anchor="middle" x="651.5" y="-11.3" font-family="Times,serif" font-size="14.00" fill="#0058ad">a 40 66</text>
</g>
<!-- T10187&#45;&gt;T10189 -->
<g id="edge1" class="edge">
<title>T10187:f0&#45;&gt;T10189:f0</title>
<path fill="none" stroke="#5b00c0" d="M74,-96C40.8913,-96 27.5489,-71.7997 25.3383,-40.0703"/>
<polygon fill="#5b00c0" stroke="#5b00c0" points="28.8338,-39.8768 25,-30 21.8378,-40.1119 28.8338,-39.8768"/>
<text text-anchor="middle" x="37.5" y="-51.8" font-family="Times,serif" font-size="14.00" fill="#5b00c0">rw</text>
</g>
<!-- T10189&#45;&gt;T10187 -->
<g id="edge2" class="edge">
<title>T10189:f1&#45;&gt;T10187:f2</title>
<path fill="none" stroke="#5b00c0" d="M336,-30C336,-86.1344 226.594,-29.3574 212.4909,-70.9368"/>
<polygon fill="#5b00c0" stroke="#5b00c0" points="209.0034,-70.595 211,-81 215.9278,-71.6209 209.0034,-70.595"/>
<text text-anchor="middle" x="337.5" y="-51.8" font-family="Times,serif" font-size="14.00" fill="#5b00c0">rw</text>
</g>
</g>
</svg>
