<?xml version="1.0" encoding="UTF-8" standalone="no"?>
<!DOCTYPE svg PUBLIC "-//W3C//DTD SVG 1.1//EN"
 "http://www.w3.org/Graphics/SVG/1.1/DTD/svg11.dtd">
<!-- Generated by graphviz version 2.40.1 (20161225.0304)
 -->
<!-- Title: a_graph Pages: 1 -->
<svg width="1601pt" height="119pt"
 viewBox="0.00 0.00 1601.00 119.00" xmlns="http://www.w3.org/2000/svg" xmlns:xlink="http://www.w3.org/1999/xlink">
<g id="graph0" class="graph" transform="scale(1 1) rotate(0) translate(4 115)">
<title>a_graph</title>
<polygon fill="#ffffff" stroke="transparent" points="-4,4 -4,-115 1597,-115 1597,4 -4,4"/>
<!-- T3337 -->
<g id="node1" class="node">
<title>T3337</title>
<polygon fill="none" stroke="#0058ad" points="171,-81.5 171,-110.5 510,-110.5 510,-81.5 171,-81.5"/>
<text text-anchor="middle" x="283" y="-92.3" font-family="Times,serif" font-size="14.00" fill="#0058ad">r 3 [1 2 3 4 5 6 18 20 21 22 23 24 25]</text>
<polyline fill="none" stroke="#0058ad" points="395,-81.5 395,-110.5 "/>
<text text-anchor="middle" x="423.5" y="-92.3" font-family="Times,serif" font-size="14.00" fill="#0058ad">a 19 90</text>
<polyline fill="none" stroke="#0058ad" points="452,-81.5 452,-110.5 "/>
<text text-anchor="middle" x="481" y="-92.3" font-family="Times,serif" font-size="14.00" fill="#0058ad">r 23 [1]</text>
</g>
<!-- T3338 -->
<g id="node2" class="node">
<title>T3338</title>
<polygon fill="none" stroke="#0058ad" points="0,-.5 0,-29.5 1593,-29.5 1593,-.5 0,-.5"/>
<text text-anchor="middle" x="25" y="-11.3" font-family="Times,serif" font-size="14.00" fill="#0058ad">a 23 2</text>
<polyline fill="none" stroke="#0058ad" points="50,-.5 50,-29.5 "/>
<text text-anchor="middle" x="84" y="-11.3" font-family="Times,serif" font-size="14.00" fill="#0058ad">r 23 [1 2]</text>
<polyline fill="none" stroke="#0058ad" points="118,-.5 118,-29.5 "/>
<text text-anchor="middle" x="146.5" y="-11.3" font-family="Times,serif" font-size="14.00" fill="#0058ad">a 21 14</text>
<polyline fill="none" stroke="#0058ad" points="175,-.5 175,-29.5 "/>
<text text-anchor="middle" x="884" y="-11.3" font-family="Times,serif" font-size="14.00" fill="#0058ad">r 19 [1 2 3 4 6 5 8 7 9 10 11 12 13 14 16 18 15 22 23 24 26 27 28 29 30 31 32 33 34 35 36 37 38 39 40 41 42 43 44 45 46 48 49 47 50 51 52 54 55 56 53 57 58 59 60 61 62 63 64 67 68 65 66 69 70 71 73 72 74 75 76 77 79 78 80 82 83 84 85 86 87 88 89]</text>
</g>
<!-- T3337&#45;&gt;T3338 -->
<g id="edge1" class="edge">
<title>T3337:f2&#45;&gt;T3338:f0</title>
<path fill="none" stroke="#5b00c0" d="M481.5,-81C481.5,-61.4748 470.1159,-56.4211 452.5,-48 432.8737,-38.6178 91.5283,-51.2324 33.0046,-35.2945"/>
<polygon fill="#5b00c0" stroke="#5b00c0" points="34.8391,-32.3138 24.5,-30 31.1396,-38.2563 34.8391,-32.3138"/>
<text text-anchor="middle" x="483" y="-51.8" font-family="Times,serif" font-size="14.00" fill="#5b00c0">rw</text>
</g>
<!-- T3338&#45;&gt;T3337 -->
<g id="edge2" class="edge">
<title>T3338:f3&#45;&gt;T3337:f1</title>
<path fill="none" stroke="#5b00c0" d="M884.5,-30C884.5,-55.0755 453.3367,-32.661 433.5,-48 424.3127,-55.1043 423.3071,-61.5914 423.3589,-70.9864"/>
<polygon fill="#5b00c0" stroke="#5b00c0" points="419.8593,-71.0503 423.5,-81 426.8587,-70.9516 419.8593,-71.0503"/>
<text text-anchor="middle" x="441" y="-51.8" font-family="Times,serif" font-size="14.00" fill="#5b00c0">rw</text>
</g>
</g>
</svg>
