<?xml version="1.0" encoding="UTF-8" standalone="no"?>
<!DOCTYPE svg PUBLIC "-//W3C//DTD SVG 1.1//EN"
 "http://www.w3.org/Graphics/SVG/1.1/DTD/svg11.dtd">
<!-- Generated by graphviz version 2.40.1 (20161225.0304)
 -->
<!-- Title: a_graph Pages: 1 -->
<svg width="2579pt" height="119pt"
 viewBox="0.00 0.00 2579.00 119.00" xmlns="http://www.w3.org/2000/svg" xmlns:xlink="http://www.w3.org/1999/xlink">
<g id="graph0" class="graph" transform="scale(1 1) rotate(0) translate(4 115)">
<title>a_graph</title>
<polygon fill="#ffffff" stroke="transparent" points="-4,4 -4,-115 2575,-115 2575,4 -4,4"/>
<!-- T17996 -->
<g id="node1" class="node">
<title>T17996</title>
<polygon fill="none" stroke="#0058ad" points="0,-81.5 0,-110.5 1418,-110.5 1418,-81.5 0,-81.5"/>
<text text-anchor="middle" x="597" y="-92.3" font-family="Times,serif" font-size="14.00" fill="#0058ad">r 91 [1 2 3 4 5 6 7 8 9 10 11 12 13 14 15 16 17 18 19 20 21 22 23 24 25 26 27 28 29 30 31 32 33 34 35 36 37 38 39 40 41 42 43 44 45 46 48 49 47 50 52 53 51 54 55 56 57 58 59 60 62 63 61 64 65 66 67 68 69 70]</text>
<polyline fill="none" stroke="#0058ad" points="1194,-81.5 1194,-110.5 "/>
<text text-anchor="middle" x="1222.5" y="-92.3" font-family="Times,serif" font-size="14.00" fill="#0058ad">a 91 71</text>
<polyline fill="none" stroke="#0058ad" points="1251,-81.5 1251,-110.5 "/>
<text text-anchor="middle" x="1306" y="-92.3" font-family="Times,serif" font-size="14.00" fill="#0058ad">r 92 [1 2 3 6 4 5]</text>
<polyline fill="none" stroke="#0058ad" points="1361,-81.5 1361,-110.5 "/>
<text text-anchor="middle" x="1389.5" y="-92.3" font-family="Times,serif" font-size="14.00" fill="#0058ad">a 90 34</text>
</g>
<!-- T17993 -->
<g id="node2" class="node">
<title>T17993</title>
<polygon fill="none" stroke="#0058ad" points="215,-.5 215,-29.5 2571,-29.5 2571,-.5 215,-.5"/>
<text text-anchor="middle" x="812" y="-11.3" font-family="Times,serif" font-size="14.00" fill="#0058ad">r 91 [1 2 3 4 5 6 7 8 9 10 11 12 13 14 15 16 17 18 19 20 21 22 23 24 25 26 27 28 29 30 31 32 33 34 35 36 37 38 39 40 41 42 43 44 45 46 48 49 47 50 52 53 51 54 55 56 57 58 59 60 62 63 61 64 65 66 67 68 69 70]</text>
<polyline fill="none" stroke="#0058ad" points="1409,-.5 1409,-29.5 "/>
<text text-anchor="middle" x="1687" y="-11.3" font-family="Times,serif" font-size="14.00" fill="#0058ad">r 90 [1 2 3 4 5 6 7 8 9 10 11 12 13 14 15 17 16 18 19 20 21 22 23 24 25 26 27 28 30 31 29 32 33]</text>
<polyline fill="none" stroke="#0058ad" points="1965,-.5 1965,-29.5 "/>
<text text-anchor="middle" x="1990" y="-11.3" font-family="Times,serif" font-size="14.00" fill="#0058ad">a 92 7</text>
<polyline fill="none" stroke="#0058ad" points="2015,-.5 2015,-29.5 "/>
<text text-anchor="middle" x="2293" y="-11.3" font-family="Times,serif" font-size="14.00" fill="#0058ad">r 90 [1 2 3 4 5 6 7 8 9 10 11 12 13 14 15 17 16 18 19 20 21 22 23 24 25 26 27 28 30 31 29 32 33]</text>
</g>
<!-- T17996&#45;&gt;T17993 -->
<g id="edge1" class="edge">
<title>T17996:f2&#45;&gt;T17993:f2</title>
<path fill="none" stroke="#5b00c0" d="M1306,-81C1306,67.8495 1958.3132,-170.7462 1988.8904,-40.0581"/>
<polygon fill="#5b00c0" stroke="#5b00c0" points="1992.3823,-40.3235 1990,-30 1985.4245,-39.5559 1992.3823,-40.3235"/>
<text text-anchor="middle" x="1989.5" y="-51.8" font-family="Times,serif" font-size="14.00" fill="#5b00c0">rw</text>
</g>
<!-- T17993&#45;&gt;T17996 -->
<g id="edge2" class="edge">
<title>T17993:f0&#45;&gt;T17996:f1</title>
<path fill="none" stroke="#5b00c0" d="M812,-30C812,-210.4725 1207.1021,90.8707 1222.5358,-70.7809"/>
<polygon fill="#5b00c0" stroke="#5b00c0" points="1219.0497,-71.1692 1223,-81 1226.0425,-70.8514 1219.0497,-71.1692"/>
<text text-anchor="middle" x="1229.5" y="-51.8" font-family="Times,serif" font-size="14.00" fill="#5b00c0">rw</text>
</g>
</g>
</svg>
