<?xml version="1.0" encoding="UTF-8" standalone="no"?>
<!DOCTYPE svg PUBLIC "-//W3C//DTD SVG 1.1//EN"
 "http://www.w3.org/Graphics/SVG/1.1/DTD/svg11.dtd">
<!-- Generated by graphviz version 2.40.1 (20161225.0304)
 -->
<!-- Title: a_graph Pages: 1 -->
<svg width="2012pt" height="362pt"
 viewBox="0.00 0.00 2011.50 362.00" xmlns="http://www.w3.org/2000/svg" xmlns:xlink="http://www.w3.org/1999/xlink">
<g id="graph0" class="graph" transform="scale(1 1) rotate(0) translate(4 358)">
<title>a_graph</title>
<polygon fill="#ffffff" stroke="transparent" points="-4,4 -4,-358 2007.5,-358 2007.5,4 -4,4"/>
<!-- T15249 -->
<g id="node1" class="node">
<title>T15249</title>
<polygon fill="none" stroke="#0058ad" points="395.5,-324.5 395.5,-353.5 2003.5,-353.5 2003.5,-324.5 395.5,-324.5"/>
<text text-anchor="middle" x="424" y="-335.3" font-family="Times,serif" font-size="14.00" fill="#0058ad">a 78 98</text>
<polyline fill="none" stroke="#0058ad" points="452.5,-324.5 452.5,-353.5 "/>
<text text-anchor="middle" x="481" y="-335.3" font-family="Times,serif" font-size="14.00" fill="#0058ad">a 78 99</text>
<polyline fill="none" stroke="#0058ad" points="509.5,-324.5 509.5,-353.5 "/>
<text text-anchor="middle" x="1256.5" y="-335.3" font-family="Times,serif" font-size="14.00" fill="#0058ad">r 78 [1 2 3 4 5 6 7 11 8 17 18 19 20 21 22 25 14 30 31 28 29 32 33 34 35 36 37 39 38 41 42 43 44 45 46 47 48 51 52 53 40 49 50 54 55 56 57 58 59 60 61 62 63 64 66 67 65 68 69 70 71 72 73 74 75 77 78 79 80 76 82 83 84 85 81 87 88 86 89 91 90 94 96 97 95 98 99]</text>
</g>
<!-- T15251 -->
<g id="node3" class="node">
<title>T15251</title>
<polygon fill="none" stroke="#0058ad" points="905.5,-243.5 905.5,-272.5 1409.5,-272.5 1409.5,-243.5 905.5,-243.5"/>
<text text-anchor="middle" x="1157.5" y="-254.3" font-family="Times,serif" font-size="14.00" fill="#0058ad">r 77 [1 2 3 4 5 6 7 8 9 10 18 21 22 23 24 25 26 27 28 29 30 31 32 33 34 35 36 37 38 39]</text>
</g>
<!-- T15249&#45;&gt;T15251 -->
<g id="edge1" class="edge">
<title>T15249&#45;&gt;T15251</title>
<path fill="none" stroke="#0050c0" d="M1191.7966,-324.1434C1185.6393,-312.2687 1176.8913,-295.3976 1169.7716,-281.6667"/>
<polygon fill="#0050c0" stroke="#0050c0" points="1172.865,-280.0289 1165.1546,-272.7625 1166.6507,-283.2511 1172.865,-280.0289"/>
<text text-anchor="middle" x="1186" y="-294.8" font-family="Times,serif" font-size="14.00" fill="#0050c0">rt</text>
</g>
<!-- T15253 -->
<g id="node4" class="node">
<title>T15253</title>
<polygon fill="none" stroke="#0058ad" points="1022.5,-162.5 1022.5,-191.5 1150.5,-191.5 1150.5,-162.5 1022.5,-162.5"/>
<text text-anchor="middle" x="1054.5" y="-173.3" font-family="Times,serif" font-size="14.00" fill="#0058ad">a 78 100</text>
<polyline fill="none" stroke="#0058ad" points="1086.5,-162.5 1086.5,-191.5 "/>
<text text-anchor="middle" x="1118.5" y="-173.3" font-family="Times,serif" font-size="14.00" fill="#0058ad">a 78 101</text>
</g>
<!-- T15249&#45;&gt;T15253 -->
<g id="edge2" class="edge">
<title>T15249:f1&#45;&gt;T15253:f0</title>
<path fill="none" stroke="#c02700" d="M480.5,-324C480.5,-202.3729 876.7871,-178.1937 1012.4402,-177.0443"/>
<polygon fill="#c02700" stroke="#c02700" points="1012.5155,-180.5441 1022.5,-177 1012.4847,-173.5441 1012.5155,-180.5441"/>
<text text-anchor="middle" x="566.5" y="-254.3" font-family="Times,serif" font-size="14.00" fill="#c02700">ww</text>
</g>
<!-- T15257 -->
<g id="node2" class="node">
<title>T15257</title>
<polygon fill="none" stroke="#0058ad" points="0,-.5 0,-29.5 1517,-29.5 1517,-.5 0,-.5"/>
<text text-anchor="middle" x="28.5" y="-11.3" font-family="Times,serif" font-size="14.00" fill="#0058ad">a 70 80</text>
<polyline fill="none" stroke="#0058ad" points="57,-.5 57,-29.5 "/>
<text text-anchor="middle" x="787" y="-11.3" font-family="Times,serif" font-size="14.00" fill="#0058ad">r 78 [1 2 3 4 5 6 7 11 8 17 18 19 20 21 22 25 14 30 31 28 29 32 33 34 35 36 37 39 38 41 42 43 44 45 46 47 48 51 52 53 40 49 50 54 55 56 57 58 59 60 61 62 63 64 66 67 65 68 69 70 71 72 73 74 75 77 78 79 80 76 82 83 84 85 81 87 88 86 89 91 90 94 96 97 95]</text>
</g>
<!-- T15257&#45;&gt;T15249 -->
<g id="edge3" class="edge">
<title>T15257:f1&#45;&gt;T15249:f0</title>
<path fill="none" stroke="#5b00c0" d="M787.5,-30C787.5,-112.2078 423.5,-13.7922 423.5,-96 423.5,-258 423.5,-258 423.5,-258 423.5,-283.6667 423.5,-292.4896 423.5,-313.9453"/>
<polygon fill="#5b00c0" stroke="#5b00c0" points="420.0001,-314 423.5,-324 427.0001,-314 420.0001,-314"/>
<text text-anchor="middle" x="431" y="-173.3" font-family="Times,serif" font-size="14.00" fill="#5b00c0">rw</text>
</g>
<!-- T15251&#45;&gt;T15253 -->
<g id="edge4" class="edge">
<title>T15251&#45;&gt;T15253</title>
<path fill="none" stroke="#0050c0" d="M1144.4775,-243.1434C1133.7686,-230.9261 1118.4238,-213.4201 1106.2104,-199.4865"/>
<polygon fill="#0050c0" stroke="#0050c0" points="1108.6636,-196.9754 1099.4399,-191.7625 1103.3996,-201.5896 1108.6636,-196.9754"/>
<text text-anchor="middle" x="1132" y="-213.8" font-family="Times,serif" font-size="14.00" fill="#0050c0">rt</text>
</g>
<!-- T15255 -->
<g id="node5" class="node">
<title>T15255</title>
<polygon fill="none" stroke="#0058ad" points="451.5,-81.5 451.5,-110.5 1721.5,-110.5 1721.5,-81.5 451.5,-81.5"/>
<text text-anchor="middle" x="1086.5" y="-92.3" font-family="Times,serif" font-size="14.00" fill="#0058ad">r 70 [1 2 3 4 5 7 8 9 10 11 12 13 14 15 16 17 18 19 20 21 22 23 24 25 27 28 29 30 31 32 33 34 35 36 37 38 39 40 41 42 43 44 45 47 48 49 46 50 51 52 53 56 57 55 58 60 61 59 62 63 64 65 66 67 68 69 71 73 74 72 75 76 77 78]</text>
</g>
<!-- T15253&#45;&gt;T15255 -->
<g id="edge5" class="edge">
<title>T15253&#45;&gt;T15255</title>
<path fill="none" stroke="#0050c0" d="M1086.5,-162.1434C1086.5,-150.6112 1086.5,-134.3668 1086.5,-120.8626"/>
<polygon fill="#0050c0" stroke="#0050c0" points="1090.0001,-120.7624 1086.5,-110.7625 1083.0001,-120.7625 1090.0001,-120.7624"/>
<text text-anchor="middle" x="1091" y="-132.8" font-family="Times,serif" font-size="14.00" fill="#0050c0">rt</text>
</g>
<!-- T15255&#45;&gt;T15257 -->
<g id="edge6" class="edge">
<title>T15255:f0&#45;&gt;T15257:f0</title>
<path fill="none" stroke="#5b00c0" d="M463.4092,-81.4953C257.9531,-72.8499 72.0625,-59.2209 35.1366,-37.8761"/>
<polygon fill="#5b00c0" stroke="#5b00c0" points="37.6202,-35.3919 28.5,-30 32.2672,-39.9025 37.6202,-35.3919"/>
<text text-anchor="middle" x="168" y="-51.8" font-family="Times,serif" font-size="14.00" fill="#5b00c0">rw</text>
</g>
</g>
</svg>
