<?xml version="1.0" encoding="UTF-8" standalone="no"?>
<!DOCTYPE svg PUBLIC "-//W3C//DTD SVG 1.1//EN"
 "http://www.w3.org/Graphics/SVG/1.1/DTD/svg11.dtd">
<!-- Generated by graphviz version 2.40.1 (20161225.0304)
 -->
<!-- Title: a_graph Pages: 1 -->
<svg width="2248pt" height="119pt"
 viewBox="0.00 0.00 2247.82 119.00" xmlns="http://www.w3.org/2000/svg" xmlns:xlink="http://www.w3.org/1999/xlink">
<g id="graph0" class="graph" transform="scale(1 1) rotate(0) translate(4 115)">
<title>a_graph</title>
<polygon fill="#ffffff" stroke="transparent" points="-4,4 -4,-115 2243.8209,-115 2243.8209,4 -4,4"/>
<!-- T4417 -->
<g id="node1" class="node">
<title>T4417</title>
<polygon fill="none" stroke="#0058ad" points="39.8209,-81.5 39.8209,-110.5 2239.8209,-110.5 2239.8209,-81.5 39.8209,-81.5"/>
<text text-anchor="middle" x="68.3209" y="-92.3" font-family="Times,serif" font-size="14.00" fill="#0058ad">a 26 54</text>
<polyline fill="none" stroke="#0058ad" points="96.8209,-81.5 96.8209,-110.5 "/>
<text text-anchor="middle" x="1168.3209" y="-92.3" font-family="Times,serif" font-size="14.00" fill="#0058ad">r 24 [1 2 3 4 5 6 9 10 7 8 11 13 12 15 14 16 17 18 19 20 21 22 23 24 26 25 27 28 29 30 31 32 34 35 36 37 39 40 41 42 43 44 45 46 47 48 49 50 51 52 53 54 56 57 60 62 63 64 65 66 67 68 69 70 71 72 73 74 75 76 77 78 79 80 82 81 83 84 85 86 87 88 89 90 91 92 93 94 95 96 97 98 99 100 101 102 103 105 104 106 107 108 109 110 111 112 113 114 115 117 116 118 119 120 121 122]</text>
</g>
<!-- T4423 -->
<g id="node2" class="node">
<title>T4423</title>
<polygon fill="none" stroke="#0058ad" points="4.3209,-.5 4.3209,-29.5 969.3209,-29.5 969.3209,-.5 4.3209,-.5"/>
<text text-anchor="middle" x="454.8209" y="-11.3" font-family="Times,serif" font-size="14.00" fill="#0058ad">r 26 [1 2 3 4 5 6 7 8 11 12 9 10 13 14 16 15 17 18 19 20 21 22 23 24 25 26 27 28 29 30 31 32 33 35 36 37 38 39 40 34 41 42 43 44 45 46 47 48 49 50 51 52 53]</text>
<polyline fill="none" stroke="#0058ad" points="905.3209,-.5 905.3209,-29.5 "/>
<text text-anchor="middle" x="937.3209" y="-11.3" font-family="Times,serif" font-size="14.00" fill="#0058ad">a 24 124</text>
</g>
<!-- T4417&#45;&gt;T4423 -->
<g id="edge1" class="edge">
<title>T4417:f1&#45;&gt;T4423:f1</title>
<path fill="none" stroke="#5b00c0" d="M1168.8209,-81C1168.8209,-37.412 1035.4252,-17.6149 980.0794,-15.244"/>
<polygon fill="#5b00c0" stroke="#5b00c0" points="979.9014,-11.7388 969.8209,-15 979.7349,-18.7369 979.9014,-11.7388"/>
<text text-anchor="middle" x="1165.3209" y="-51.8" font-family="Times,serif" font-size="14.00" fill="#5b00c0">rw</text>
</g>
<!-- T4423&#45;&gt;T4417 -->
<g id="edge2" class="edge">
<title>T4423:f0&#45;&gt;T4417:f0</title>
<path fill="none" stroke="#5b00c0" d="M3.8209,-15C-2.8457,-15 .9273,-23.9941 3.8209,-30 17.8811,-59.1826 57.6622,-47.9874 66.1961,-70.884"/>
<polygon fill="#5b00c0" stroke="#5b00c0" points="62.7793,-71.6816 67.8209,-81 69.6907,-70.5715 62.7793,-71.6816"/>
<text text-anchor="middle" x="68.3209" y="-51.8" font-family="Times,serif" font-size="14.00" fill="#5b00c0">rw</text>
</g>
</g>
</svg>
