<?xml version="1.0" encoding="UTF-8" standalone="no"?>
<!DOCTYPE svg PUBLIC "-//W3C//DTD SVG 1.1//EN"
 "http://www.w3.org/Graphics/SVG/1.1/DTD/svg11.dtd">
<!-- Generated by graphviz version 2.40.1 (20161225.0304)
 -->
<!-- Title: a_graph Pages: 1 -->
<svg width="3905pt" height="119pt"
 viewBox="0.00 0.00 3905.00 119.00" xmlns="http://www.w3.org/2000/svg" xmlns:xlink="http://www.w3.org/1999/xlink">
<g id="graph0" class="graph" transform="scale(1 1) rotate(0) translate(4 115)">
<title>a_graph</title>
<polygon fill="#ffffff" stroke="transparent" points="-4,4 -4,-115 3901,-115 3901,4 -4,4"/>
<!-- T18909 -->
<g id="node1" class="node">
<title>T18909</title>
<polygon fill="none" stroke="#0058ad" points="2695.5,-81.5 2695.5,-110.5 3601.5,-110.5 3601.5,-81.5 2695.5,-81.5"/>
<text text-anchor="middle" x="2724" y="-92.3" font-family="Times,serif" font-size="14.00" fill="#0058ad">a 95 86</text>
<polyline fill="none" stroke="#0058ad" points="2752.5,-81.5 2752.5,-110.5 "/>
<text text-anchor="middle" x="2781" y="-92.3" font-family="Times,serif" font-size="14.00" fill="#0058ad">a 86 80</text>
<polyline fill="none" stroke="#0058ad" points="2809.5,-81.5 2809.5,-110.5 "/>
<text text-anchor="middle" x="3173.5" y="-92.3" font-family="Times,serif" font-size="14.00" fill="#0058ad">r 94 [1 2 3 5 4 6 7 8 9 10 11 12 13 14 15 16 17 18 19 20 21 22 23 24 25 26 27 28 29 31 32 33 34 35 36 37 38 39 40 41 44 46 47]</text>
<polyline fill="none" stroke="#0058ad" points="3537.5,-81.5 3537.5,-110.5 "/>
<text text-anchor="middle" x="3569.5" y="-92.3" font-family="Times,serif" font-size="14.00" fill="#0058ad">a 68 124</text>
</g>
<!-- T18910 -->
<g id="node2" class="node">
<title>T18910</title>
<polygon fill="none" stroke="#0058ad" points="0,-.5 0,-29.5 3897,-29.5 3897,-.5 0,-.5"/>
<text text-anchor="middle" x="640" y="-11.3" font-family="Times,serif" font-size="14.00" fill="#0058ad">r 95 [1 2 3 4 5 6 7 8 9 10 11 12 13 14 15 16 17 18 19 20 21 22 23 24 25 26 27 28 29 30 31 32 33 34 35 36 37 38 39 40 41 42 43 44 45 47 48 49 50 51 52 53 55 54 58 59 63 64 62 65 66 68 69 70 71 73 74 77 80 81 82 79 83 84 85]</text>
<polyline fill="none" stroke="#0058ad" points="1280,-.5 1280,-29.5 "/>
<text text-anchor="middle" x="1920" y="-11.3" font-family="Times,serif" font-size="14.00" fill="#0058ad">r 95 [1 2 3 4 5 6 7 8 9 10 11 12 13 14 15 16 17 18 19 20 21 22 23 24 25 26 27 28 29 30 31 32 33 34 35 36 37 38 39 40 41 42 43 44 45 47 48 49 50 51 52 53 55 54 58 59 63 64 62 65 66 68 69 70 71 73 74 77 80 81 82 79 83 84 85]</text>
<polyline fill="none" stroke="#0058ad" points="2560,-.5 2560,-29.5 "/>
<text text-anchor="middle" x="3200" y="-11.3" font-family="Times,serif" font-size="14.00" fill="#0058ad">r 95 [1 2 3 4 5 6 7 8 9 10 11 12 13 14 15 16 17 18 19 20 21 22 23 24 25 26 27 28 29 30 31 32 33 34 35 36 37 38 39 40 41 42 43 44 45 47 48 49 50 51 52 53 55 54 58 59 63 64 62 65 66 68 69 70 71 73 74 77 80 81 82 79 83 84 85]</text>
<polyline fill="none" stroke="#0058ad" points="3840,-.5 3840,-29.5 "/>
<text text-anchor="middle" x="3868.5" y="-11.3" font-family="Times,serif" font-size="14.00" fill="#0058ad">a 94 48</text>
</g>
<!-- T18909&#45;&gt;T18910 -->
<g id="edge1" class="edge">
<title>T18909:f2&#45;&gt;T18910:f3</title>
<path fill="none" stroke="#5b00c0" d="M3173.5,-81C3173.5,70.2302 3836.3036,-172.9594 3867.3726,-40.2177"/>
<polygon fill="#5b00c0" stroke="#5b00c0" points="3870.882,-40.3236 3868.5,-30 3863.9243,-39.5558 3870.882,-40.3236"/>
<text text-anchor="middle" x="3868" y="-51.8" font-family="Times,serif" font-size="14.00" fill="#5b00c0">rw</text>
</g>
<!-- T18910&#45;&gt;T18909 -->
<g id="edge2" class="edge">
<title>T18910:f0&#45;&gt;T18909:f0</title>
<path fill="none" stroke="#5b00c0" d="M639.5,-30C639.5,-85.4107 2519.1667,-95.4193 2685.0812,-95.9745"/>
<polygon fill="#5b00c0" stroke="#5b00c0" points="2685.4914,-99.4755 2695.5,-96 2685.5086,-92.4755 2685.4914,-99.4755"/>
<text text-anchor="middle" x="895" y="-51.8" font-family="Times,serif" font-size="14.00" fill="#5b00c0">rw</text>
</g>
</g>
</svg>
