<?xml version="1.0" encoding="UTF-8" standalone="no"?>
<!DOCTYPE svg PUBLIC "-//W3C//DTD SVG 1.1//EN"
 "http://www.w3.org/Graphics/SVG/1.1/DTD/svg11.dtd">
<!-- Generated by graphviz version 2.40.1 (20161225.0304)
 -->
<!-- Title: a_graph Pages: 1 -->
<svg width="3098pt" height="119pt"
 viewBox="0.00 0.00 3097.50 119.00" xmlns="http://www.w3.org/2000/svg" xmlns:xlink="http://www.w3.org/1999/xlink">
<g id="graph0" class="graph" transform="scale(1 1) rotate(0) translate(4 115)">
<title>a_graph</title>
<polygon fill="#ffffff" stroke="transparent" points="-4,4 -4,-115 3093.5,-115 3093.5,4 -4,4"/>
<!-- T2695 -->
<g id="node1" class="node">
<title>T2695</title>
<polygon fill="none" stroke="#0058ad" points="0,-81.5 0,-110.5 1239,-110.5 1239,-81.5 0,-81.5"/>
<text text-anchor="middle" x="502" y="-92.3" font-family="Times,serif" font-size="14.00" fill="#0058ad">r 18 [1 2 3 5 4 6 7 8 9 11 12 10 13 15 14 18 19 21 20 16 17 22 23 24 25 28 29 26 27 30 31 33 32 34 35 36 37 38 39 40 41 42 43 44 45 46 47 48 49 50 51 52 53 57 55 56 61 62 60]</text>
<polyline fill="none" stroke="#0058ad" points="1004,-81.5 1004,-110.5 "/>
<text text-anchor="middle" x="1048.5" y="-92.3" font-family="Times,serif" font-size="14.00" fill="#0058ad">r 19 [1 2 3 4]</text>
<polyline fill="none" stroke="#0058ad" points="1093,-81.5 1093,-110.5 "/>
<text text-anchor="middle" x="1137.5" y="-92.3" font-family="Times,serif" font-size="14.00" fill="#0058ad">r 19 [1 2 3 4]</text>
<polyline fill="none" stroke="#0058ad" points="1182,-81.5 1182,-110.5 "/>
<text text-anchor="middle" x="1210.5" y="-92.3" font-family="Times,serif" font-size="14.00" fill="#0058ad">a 18 66</text>
</g>
<!-- T2697 -->
<g id="node2" class="node">
<title>T2697</title>
<polygon fill="none" stroke="#0058ad" points="931.5,-.5 931.5,-29.5 3089.5,-29.5 3089.5,-.5 931.5,-.5"/>
<text text-anchor="middle" x="956.5" y="-11.3" font-family="Times,serif" font-size="14.00" fill="#0058ad">a 19 6</text>
<polyline fill="none" stroke="#0058ad" points="981.5,-.5 981.5,-29.5 "/>
<text text-anchor="middle" x="1483.5" y="-11.3" font-family="Times,serif" font-size="14.00" fill="#0058ad">r 18 [1 2 3 5 4 6 7 8 9 11 12 10 13 15 14 18 19 21 20 16 17 22 23 24 25 28 29 26 27 30 31 33 32 34 35 36 37 38 39 40 41 42 43 44 45 46 47 48 49 50 51 52 53 57 55 56 61 62 60]</text>
<polyline fill="none" stroke="#0058ad" points="1985.5,-.5 1985.5,-29.5 "/>
<text text-anchor="middle" x="2035.5" y="-11.3" font-family="Times,serif" font-size="14.00" fill="#0058ad">r 19 [1 2 3 4 6]</text>
<polyline fill="none" stroke="#0058ad" points="2085.5,-.5 2085.5,-29.5 "/>
<text text-anchor="middle" x="2587.5" y="-11.3" font-family="Times,serif" font-size="14.00" fill="#0058ad">r 18 [1 2 3 5 4 6 7 8 9 11 12 10 13 15 14 18 19 21 20 16 17 22 23 24 25 28 29 26 27 30 31 33 32 34 35 36 37 38 39 40 41 42 43 44 45 46 47 48 49 50 51 52 53 57 55 56 61 62 60]</text>
</g>
<!-- T2695&#45;&gt;T2697 -->
<g id="edge1" class="edge">
<title>T2695:f1&#45;&gt;T2697:f0</title>
<path fill="none" stroke="#5b00c0" d="M1048.5,-81C1048.5,-38.2664 971.6331,-70.1053 958.4216,-40.1889"/>
<polygon fill="#5b00c0" stroke="#5b00c0" points="961.7927,-39.1781 956.5,-30 954.914,-40.4754 961.7927,-39.1781"/>
<text text-anchor="middle" x="1047" y="-51.8" font-family="Times,serif" font-size="14.00" fill="#5b00c0">rw</text>
</g>
<!-- T2697&#45;&gt;T2695 -->
<g id="edge2" class="edge">
<title>T2697:f1&#45;&gt;T2695:f3</title>
<path fill="none" stroke="#5b00c0" d="M1483.5,-30C1483.5,-83.099 1315.6529,-94.7863 1249.8445,-95.9058"/>
<polygon fill="#5b00c0" stroke="#5b00c0" points="1249.4677,-92.409 1239.5,-96 1249.5315,-99.4087 1249.4677,-92.409"/>
<text text-anchor="middle" x="1483" y="-51.8" font-family="Times,serif" font-size="14.00" fill="#5b00c0">rw</text>
</g>
</g>
</svg>
