<?xml version="1.0" encoding="UTF-8" standalone="no"?>
<!DOCTYPE svg PUBLIC "-//W3C//DTD SVG 1.1//EN"
 "http://www.w3.org/Graphics/SVG/1.1/DTD/svg11.dtd">
<!-- Generated by graphviz version 2.40.1 (20161225.0304)
 -->
<!-- Title: a_graph Pages: 1 -->
<svg width="4293pt" height="119pt"
 viewBox="0.00 0.00 4293.00 119.00" xmlns="http://www.w3.org/2000/svg" xmlns:xlink="http://www.w3.org/1999/xlink">
<g id="graph0" class="graph" transform="scale(1 1) rotate(0) translate(4 115)">
<title>a_graph</title>
<polygon fill="#ffffff" stroke="transparent" points="-4,4 -4,-115 4289,-115 4289,4 -4,4"/>
<!-- T10819 -->
<g id="node1" class="node">
<title>T10819</title>
<polygon fill="none" stroke="#0058ad" points="568.5,-81.5 568.5,-110.5 2880.5,-110.5 2880.5,-81.5 568.5,-81.5"/>
<text text-anchor="middle" x="600.5" y="-92.3" font-family="Times,serif" font-size="14.00" fill="#0058ad">a 54 102</text>
<polyline fill="none" stroke="#0058ad" points="632.5,-81.5 632.5,-110.5 "/>
<text text-anchor="middle" x="1659.5" y="-92.3" font-family="Times,serif" font-size="14.00" fill="#0058ad">r 55 [1 4 5 2 3 6 7 8 9 10 12 13 11 14 15 16 17 18 19 20 21 22 23 24 25 26 27 28 29 30 31 32 33 34 35 36 37 38 41 39 40 43 44 42 45 48 49 50 46 47 53 54 55 51 52 58 59 60 61 56 57 62 66 67 68 63 64 65 70 71 72 73 69 76 77 74 75 79 78 80 81 82 83 84 85 87 88 86 89 90 91 92 93 94 95 97 98 96 99 100 101 104 105 106 102 107 108 109 110 103 111 115 116 117]</text>
<polyline fill="none" stroke="#0058ad" points="2686.5,-81.5 2686.5,-110.5 "/>
<text text-anchor="middle" x="2783.5" y="-92.3" font-family="Times,serif" font-size="14.00" fill="#0058ad">r 56 [1 2 3 4 5 6 7 8 9 10 11 12]</text>
</g>
<!-- T10821 -->
<g id="node2" class="node">
<title>T10821</title>
<polygon fill="none" stroke="#0058ad" points="0,-.5 0,-29.5 4285,-29.5 4285,-.5 0,-.5"/>
<text text-anchor="middle" x="764.5" y="-11.3" font-family="Times,serif" font-size="14.00" fill="#0058ad">r 54 [1 2 3 4 5 6 7 8 9 10 11 12 14 13 20 21 26 27 28 29 30 31 32 33 34 35 36 37 38 39 40 41 42 45 43 44 46 49 47 48 50 51 52 53 54 55 56 57 58 59 60 62 61 64 63 65 66 69 70 67 68 71 72 73 74 75 76 77 78 79 80 81 82 83 84 85 86 87 88 89 90 91 92 93 94 95 97 98 101]</text>
<polyline fill="none" stroke="#0058ad" points="1529,-.5 1529,-29.5 "/>
<text text-anchor="middle" x="1561" y="-11.3" font-family="Times,serif" font-size="14.00" fill="#0058ad">a 55 118</text>
<polyline fill="none" stroke="#0058ad" points="1593,-.5 1593,-29.5 "/>
<text text-anchor="middle" x="1900" y="-11.3" font-family="Times,serif" font-size="14.00" fill="#0058ad">r 40 [1 2 3 4 5 6 7 8 11 13 14 15 16 17 18 19 20 21 22 23 24 25 26 27 28 29 30 31 66 67 72 73 74 75 76 77]</text>
<polyline fill="none" stroke="#0058ad" points="2207,-.5 2207,-29.5 "/>
<text text-anchor="middle" x="3246" y="-11.3" font-family="Times,serif" font-size="14.00" fill="#0058ad">r 55 [1 4 5 2 3 6 7 8 9 10 12 13 11 14 15 16 17 18 19 20 21 22 23 24 25 26 27 28 29 30 31 32 33 34 35 36 37 38 41 39 40 43 44 42 45 48 49 50 46 47 53 54 55 51 52 58 59 60 61 56 57 62 66 67 68 63 64 65 70 71 72 73 69 76 77 74 75 79 78 80 81 82 83 84 85 87 88 86 89 90 91 92 93 94 95 97 98 96 99 100 101 104 105 106 102 107 108 109 110 103 111 115 116 117 118]</text>
</g>
<!-- T10819&#45;&gt;T10821 -->
<g id="edge1" class="edge">
<title>T10819:f1&#45;&gt;T10821:f1</title>
<path fill="none" stroke="#5b00c0" d="M1659.5,-81C1659.5,-35.3716 1575.3645,-72.5917 1562.2183,-39.9084"/>
<polygon fill="#5b00c0" stroke="#5b00c0" points="1565.6573,-39.2549 1560.5,-30 1558.7603,-40.451 1565.6573,-39.2549"/>
<text text-anchor="middle" x="1658" y="-51.8" font-family="Times,serif" font-size="14.00" fill="#5b00c0">rw</text>
</g>
<!-- T10821&#45;&gt;T10819 -->
<g id="edge2" class="edge">
<title>T10821:f0&#45;&gt;T10819:f0</title>
<path fill="none" stroke="#5b00c0" d="M764.5,-30C764.5,-102.6048 616.1246,-14.1718 601.6348,-71.0502"/>
<polygon fill="#5b00c0" stroke="#5b00c0" points="598.1559,-70.6678 600.5,-81 605.1108,-71.4611 598.1559,-70.6678"/>
<text text-anchor="middle" x="766" y="-51.8" font-family="Times,serif" font-size="14.00" fill="#5b00c0">rw</text>
</g>
</g>
</svg>
