<?xml version="1.0" encoding="UTF-8" standalone="no"?>
<!DOCTYPE svg PUBLIC "-//W3C//DTD SVG 1.1//EN"
 "http://www.w3.org/Graphics/SVG/1.1/DTD/svg11.dtd">
<!-- Generated by graphviz version 2.40.1 (20161225.0304)
 -->
<!-- Title: a_graph Pages: 1 -->
<svg width="321pt" height="200pt"
 viewBox="0.00 0.00 321.00 200.00" xmlns="http://www.w3.org/2000/svg" xmlns:xlink="http://www.w3.org/1999/xlink">
<g id="graph0" class="graph" transform="scale(1 1) rotate(0) translate(4 196)">
<title>a_graph</title>
<polygon fill="#ffffff" stroke="transparent" points="-4,4 -4,-196 317,-196 317,4 -4,4"/>
<!-- T3749 -->
<g id="node1" class="node">
<title>T3749</title>
<polygon fill="none" stroke="#0058ad" points="102,-162.5 102,-191.5 159,-191.5 159,-162.5 102,-162.5"/>
<text text-anchor="middle" x="130.5" y="-173.3" font-family="Times,serif" font-size="14.00" fill="#0058ad">a 24 17</text>
</g>
<!-- T3751 -->
<g id="node2" class="node">
<title>T3751</title>
<polygon fill="none" stroke="#0058ad" points="53.5,-81.5 53.5,-110.5 111.5,-110.5 111.5,-81.5 53.5,-81.5"/>
<text text-anchor="middle" x="82.5" y="-92.3" font-family="Times,serif" font-size="14.00" fill="#0058ad">r 25 [1]</text>
</g>
<!-- T3749&#45;&gt;T3751 -->
<g id="edge1" class="edge">
<title>T3749&#45;&gt;T3751</title>
<path fill="none" stroke="#0050c0" d="M121.6961,-162.1434C114.6592,-150.2687 104.6615,-133.3976 96.5247,-119.6667"/>
<polygon fill="#0050c0" stroke="#0050c0" points="99.3572,-117.5811 91.2481,-110.7625 93.3352,-121.1497 99.3572,-117.5811"/>
<text text-anchor="middle" x="116" y="-132.8" font-family="Times,serif" font-size="14.00" fill="#0050c0">rt</text>
</g>
<!-- T3755 -->
<g id="node3" class="node">
<title>T3755</title>
<polygon fill="none" stroke="#0058ad" points="0,-.5 0,-29.5 313,-29.5 313,-.5 0,-.5"/>
<text text-anchor="middle" x="25" y="-11.3" font-family="Times,serif" font-size="14.00" fill="#0058ad">a 25 2</text>
<polyline fill="none" stroke="#0058ad" points="50,-.5 50,-29.5 "/>
<text text-anchor="middle" x="181.5" y="-11.3" font-family="Times,serif" font-size="14.00" fill="#0058ad">r 24 [1 2 3 4 5 6 9 10 7 8 11 13 12 15 14 16]</text>
</g>
<!-- T3751&#45;&gt;T3755 -->
<g id="edge2" class="edge">
<title>T3751:f0&#45;&gt;T3755:f0</title>
<path fill="none" stroke="#5b00c0" d="M58.2388,-81.2787C44.9529,-71.5147 30.303,-57.3782 25.8536,-40.3493"/>
<polygon fill="#5b00c0" stroke="#5b00c0" points="29.2674,-39.4616 24.5,-30 22.3265,-40.3695 29.2674,-39.4616"/>
<text text-anchor="middle" x="45" y="-51.8" font-family="Times,serif" font-size="14.00" fill="#5b00c0">rw</text>
</g>
<!-- T3755&#45;&gt;T3749 -->
<g id="edge3" class="edge">
<title>T3755:f1&#45;&gt;T3749:f0</title>
<path fill="none" stroke="#5b00c0" d="M181.5,-30C181.5,-75.4285 159.4912,-124.6083 144.3897,-153.0063"/>
<polygon fill="#5b00c0" stroke="#5b00c0" points="141.1187,-151.6924 139.3835,-162.1441 147.2578,-155.0557 141.1187,-151.6924"/>
<text text-anchor="middle" x="181" y="-92.3" font-family="Times,serif" font-size="14.00" fill="#5b00c0">rw</text>
</g>
</g>
</svg>
