<?xml version="1.0" encoding="UTF-8" standalone="no"?>
<!DOCTYPE svg PUBLIC "-//W3C//DTD SVG 1.1//EN"
 "http://www.w3.org/Graphics/SVG/1.1/DTD/svg11.dtd">
<!-- Generated by graphviz version 2.40.1 (20161225.0304)
 -->
<!-- Title: a_graph Pages: 1 -->
<svg width="5572pt" height="119pt"
 viewBox="0.00 0.00 5572.00 119.00" xmlns="http://www.w3.org/2000/svg" xmlns:xlink="http://www.w3.org/1999/xlink">
<g id="graph0" class="graph" transform="scale(1 1) rotate(0) translate(4 115)">
<title>a_graph</title>
<polygon fill="#ffffff" stroke="transparent" points="-4,4 -4,-115 5568,-115 5568,4 -4,4"/>
<!-- T14445 -->
<g id="node1" class="node">
<title>T14445</title>
<polygon fill="none" stroke="#0058ad" points="0,-81.5 0,-110.5 1672,-110.5 1672,-81.5 0,-81.5"/>
<text text-anchor="middle" x="804" y="-92.3" font-family="Times,serif" font-size="14.00" fill="#0058ad">r 69 [1 2 3 4 5 6 7 8 9 10 12 11 13 14 15 16 17 18 19 20 21 23 26 27 28 29 30 31 32 33 34 35 37 38 36 39 40 41 43 42 44 45 46 47 48 49 50 51 52 53 54 55 56 57 58 59 60 62 61 63 64 65 66 67 68 69 70 71 72 73 74 75 76 77 78 79 80 81 82 83 84 86 85 87 88 89 90 91 92 93 94 95 96 97]</text>
<polyline fill="none" stroke="#0058ad" points="1608,-81.5 1608,-110.5 "/>
<text text-anchor="middle" x="1640" y="-92.3" font-family="Times,serif" font-size="14.00" fill="#0058ad">a 74 104</text>
</g>
<!-- T14455 -->
<g id="node2" class="node">
<title>T14455</title>
<polygon fill="none" stroke="#0058ad" points="350,-.5 350,-29.5 5564,-29.5 5564,-.5 350,-.5"/>
<text text-anchor="middle" x="378.5" y="-11.3" font-family="Times,serif" font-size="14.00" fill="#0058ad">a 69 98</text>
<polyline fill="none" stroke="#0058ad" points="407,-.5 407,-29.5 "/>
<text text-anchor="middle" x="1219.5" y="-11.3" font-family="Times,serif" font-size="14.00" fill="#0058ad">r 69 [1 2 3 4 5 6 7 8 9 10 12 11 13 14 15 16 17 18 19 20 21 23 26 27 28 29 30 31 32 33 34 35 37 38 36 39 40 41 43 42 44 45 46 47 48 49 50 51 52 53 54 55 56 57 58 59 60 62 61 63 64 65 66 67 68 69 70 71 72 73 74 75 76 77 78 79 80 81 82 83 84 86 85 87 88 89 90 91 92 93 94 95 96 97 98]</text>
<polyline fill="none" stroke="#0058ad" points="2032,-.5 2032,-29.5 "/>
<text text-anchor="middle" x="2915" y="-11.3" font-family="Times,serif" font-size="14.00" fill="#0058ad">r 74 [1 2 3 5 6 7 8 10 9 11 12 13 14 15 4 16 17 18 19 20 21 22 23 24 25 26 27 28 29 30 32 33 34 31 35 36 37 38 41 42 43 44 39 40 45 46 47 48 49 50 51 54 55 52 53 57 58 56 59 60 61 62 64 63 65 66 67 68 69 70 71 72 75 76 77 78 74 79 80 81 82 83 84 85 86 73 87 88 89 90 91 92 93 94 95 96 97 98 99 100 101 103]</text>
<polyline fill="none" stroke="#0058ad" points="3798,-.5 3798,-29.5 "/>
<text text-anchor="middle" x="4681" y="-11.3" font-family="Times,serif" font-size="14.00" fill="#0058ad">r 74 [1 2 3 5 6 7 8 10 9 11 12 13 14 15 4 16 17 18 19 20 21 22 23 24 25 26 27 28 29 30 32 33 34 31 35 36 37 38 41 42 43 44 39 40 45 46 47 48 49 50 51 54 55 52 53 57 58 56 59 60 61 62 64 63 65 66 67 68 69 70 71 72 75 76 77 78 74 79 80 81 82 83 84 85 86 73 87 88 89 90 91 92 93 94 95 96 97 98 99 100 101 103]</text>
</g>
<!-- T14445&#45;&gt;T14455 -->
<g id="edge1" class="edge">
<title>T14445:f0&#45;&gt;T14455:f0</title>
<path fill="none" stroke="#5b00c0" d="M804,-81C804,106.1472 393.6619,-208.6049 378.4345,-40.0828"/>
<polygon fill="#5b00c0" stroke="#5b00c0" points="381.9274,-39.84 378,-30 374.9339,-40.1415 381.9274,-39.84"/>
<text text-anchor="middle" x="810.5" y="-51.8" font-family="Times,serif" font-size="14.00" fill="#5b00c0">rw</text>
</g>
<!-- T14455&#45;&gt;T14445 -->
<g id="edge2" class="edge">
<title>T14455:f2&#45;&gt;T14445:f1</title>
<path fill="none" stroke="#5b00c0" d="M2915,-30C2915,-63.1582 1803.672,-93.417 1682.0144,-95.8434"/>
<polygon fill="#5b00c0" stroke="#5b00c0" points="1681.944,-92.3439 1672,-96 1682.0535,-99.3431 1681.944,-92.3439"/>
<text text-anchor="middle" x="2818.5" y="-51.8" font-family="Times,serif" font-size="14.00" fill="#5b00c0">rw</text>
</g>
</g>
</svg>
