<?xml version="1.0" encoding="UTF-8" standalone="no"?>
<!DOCTYPE svg PUBLIC "-//W3C//DTD SVG 1.1//EN"
 "http://www.w3.org/Graphics/SVG/1.1/DTD/svg11.dtd">
<!-- Generated by graphviz version 2.40.1 (20161225.0304)
 -->
<!-- Title: a_graph Pages: 1 -->
<svg width="2880pt" height="119pt"
 viewBox="0.00 0.00 2880.00 119.00" xmlns="http://www.w3.org/2000/svg" xmlns:xlink="http://www.w3.org/1999/xlink">
<g id="graph0" class="graph" transform="scale(1 1) rotate(0) translate(4 115)">
<title>a_graph</title>
<polygon fill="#ffffff" stroke="transparent" points="-4,4 -4,-115 2876,-115 2876,4 -4,4"/>
<!-- T19103 -->
<g id="node1" class="node">
<title>T19103</title>
<polygon fill="none" stroke="#0058ad" points="583,-81.5 583,-110.5 2872,-110.5 2872,-81.5 583,-81.5"/>
<text text-anchor="middle" x="615" y="-92.3" font-family="Times,serif" font-size="14.00" fill="#0058ad">a 92 103</text>
<polyline fill="none" stroke="#0058ad" points="647,-81.5 647,-110.5 "/>
<text text-anchor="middle" x="942" y="-92.3" font-family="Times,serif" font-size="14.00" fill="#0058ad">r 96 [1 2 5 3 4 6 7 8 9 10 13 11 12 14 15 16 17 18 19 20 21 23 24 25 22 27 28 29 26 30 32 34 31 35 33]</text>
<polyline fill="none" stroke="#0058ad" points="1237,-81.5 1237,-110.5 "/>
<text text-anchor="middle" x="2054.5" y="-92.3" font-family="Times,serif" font-size="14.00" fill="#0058ad">r 92 [1 2 3 6 4 5 7 8 9 10 11 12 13 15 14 16 17 18 19 20 21 22 23 25 27 29 30 31 32 33 34 36 37 38 39 40 41 42 43 44 45 47 49 48 50 51 52 54 55 56 57 58 59 60 61 62 63 64 65 66 67 68 69 70 71 74 75 76 77 78 80 81 82 83 84 85 86 87 88 89 90 93 91 92 94 95 96 97 98 99 100 101 102 103]</text>
</g>
<!-- T19101 -->
<g id="node2" class="node">
<title>T19101</title>
<polygon fill="none" stroke="#0058ad" points="0,-.5 0,-29.5 2001,-29.5 2001,-.5 0,-.5"/>
<text text-anchor="middle" x="138" y="-11.3" font-family="Times,serif" font-size="14.00" fill="#0058ad">r 1 [1 5 6 7 8 9 10 11 12 13 15 17 18 19 20 21]</text>
<polyline fill="none" stroke="#0058ad" points="276,-.5 276,-29.5 "/>
<text text-anchor="middle" x="304.5" y="-11.3" font-family="Times,serif" font-size="14.00" fill="#0058ad">a 94 85</text>
<polyline fill="none" stroke="#0058ad" points="333,-.5 333,-29.5 "/>
<text text-anchor="middle" x="361.5" y="-11.3" font-family="Times,serif" font-size="14.00" fill="#0058ad">a 96 36</text>
<polyline fill="none" stroke="#0058ad" points="390,-.5 390,-29.5 "/>
<text text-anchor="middle" x="1195.5" y="-11.3" font-family="Times,serif" font-size="14.00" fill="#0058ad">r 92 [1 2 3 6 4 5 7 8 9 10 11 12 13 15 14 16 17 18 19 20 21 22 23 25 27 29 30 31 32 33 34 36 37 38 39 40 41 42 43 44 45 47 49 48 50 51 52 54 55 56 57 58 59 60 61 62 63 64 65 66 67 68 69 70 71 74 75 76 77 78 80 81 82 83 84 85 86 87 88 89 90 93 91 92 94 95 96 97 98 99 100 101 102]</text>
</g>
<!-- T19103&#45;&gt;T19101 -->
<g id="edge1" class="edge">
<title>T19103:f1&#45;&gt;T19101:f2</title>
<path fill="none" stroke="#5b00c0" d="M941.5,-81C941.5,24.4692 811.4854,-58.0906 706.5,-48 689.261,-46.3431 422.2256,-48.6475 370.2347,-35.0123"/>
<polygon fill="#5b00c0" stroke="#5b00c0" points="371.9154,-31.9415 361.5,-30 368.4314,-38.0129 371.9154,-31.9415"/>
<text text-anchor="middle" x="946" y="-51.8" font-family="Times,serif" font-size="14.00" fill="#5b00c0">rw</text>
</g>
<!-- T19101&#45;&gt;T19103 -->
<g id="edge2" class="edge">
<title>T19101:f3&#45;&gt;T19103:f0</title>
<path fill="none" stroke="#5b00c0" d="M1195.5,-30C1195.5,-58.2399 714.9963,-41.5622 687.5,-48 656.6238,-55.2291 622.8413,-47.5146 615.8207,-70.8943"/>
<polygon fill="#5b00c0" stroke="#5b00c0" points="612.3255,-70.6307 614.5,-81 619.2665,-71.5379 612.3255,-70.6307"/>
<text text-anchor="middle" x="695" y="-51.8" font-family="Times,serif" font-size="14.00" fill="#5b00c0">rw</text>
</g>
</g>
</svg>
