<?xml version="1.0" encoding="UTF-8" standalone="no"?>
<!DOCTYPE svg PUBLIC "-//W3C//DTD SVG 1.1//EN"
 "http://www.w3.org/Graphics/SVG/1.1/DTD/svg11.dtd">
<!-- Generated by graphviz version 2.40.1 (20161225.0304)
 -->
<!-- Title: a_graph Pages: 1 -->
<svg width="2179pt" height="119pt"
 viewBox="0.00 0.00 2179.00 119.00" xmlns="http://www.w3.org/2000/svg" xmlns:xlink="http://www.w3.org/1999/xlink">
<g id="graph0" class="graph" transform="scale(1 1) rotate(0) translate(4 115)">
<title>a_graph</title>
<polygon fill="#ffffff" stroke="transparent" points="-4,4 -4,-115 2175,-115 2175,4 -4,4"/>
<!-- T19773 -->
<g id="node1" class="node">
<title>T19773</title>
<polygon fill="none" stroke="#0058ad" points="54.5,-81.5 54.5,-110.5 1660.5,-110.5 1660.5,-81.5 54.5,-81.5"/>
<text text-anchor="middle" x="86.5" y="-92.3" font-family="Times,serif" font-size="14.00" fill="#0058ad">a 99 118</text>
<polyline fill="none" stroke="#0058ad" points="118.5,-81.5 118.5,-110.5 "/>
<text text-anchor="middle" x="317" y="-92.3" font-family="Times,serif" font-size="14.00" fill="#0058ad">r 100 [1 2 3 5 6 7 8 9 10 11 12 13 15 16 17 18 19 20 21 22 23 24 25]</text>
<polyline fill="none" stroke="#0058ad" points="515.5,-81.5 515.5,-110.5 "/>
<text text-anchor="middle" x="1088" y="-92.3" font-family="Times,serif" font-size="14.00" fill="#0058ad">r 98 [1 2 5 6 7 8 10 11 12 13 14 15 16 19 20 21 22 23 24 25 26 27 28 29 30 31 32 33 34 35 36 37 38 39 40 41 42 43 44 45 47 48 49 50 51 52 53 54 55 56 57 58 59 60 61 62 63 64 65 66 67 68 69 70 72 73]</text>
</g>
<!-- T19775 -->
<g id="node2" class="node">
<title>T19775</title>
<polygon fill="none" stroke="#0058ad" points="0,-.5 0,-29.5 2171,-29.5 2171,-.5 0,-.5"/>
<text text-anchor="middle" x="28.5" y="-11.3" font-family="Times,serif" font-size="14.00" fill="#0058ad">a 98 71</text>
<polyline fill="none" stroke="#0058ad" points="57,-.5 57,-29.5 "/>
<text text-anchor="middle" x="89" y="-11.3" font-family="Times,serif" font-size="14.00" fill="#0058ad">a 86 115</text>
<polyline fill="none" stroke="#0058ad" points="121,-.5 121,-29.5 "/>
<text text-anchor="middle" x="1146" y="-11.3" font-family="Times,serif" font-size="14.00" fill="#0058ad">r 99 [1 2 4 5 6 9 10 11 12 13 14 15 16 17 18 19 23 24 25 26 27 28 29 30 32 33 31 34 35 36 37 38 39 40 41 42 43 44 45 46 47 48 49 50 51 52 53 54 55 56 57 58 59 60 61 62 63 64 65 66 68 69 70 71 72 73 74 75 76 77 78 79 80 81 82 83 84 85 86 87 89 88 90 93 91 92 95 94 96 97 98 99 100 101 102 103 104 105 106 107 108 109 110 111 113 112 114 115 116 117 119]</text>
</g>
<!-- T19773&#45;&gt;T19775 -->
<g id="edge1" class="edge">
<title>T19773:f2&#45;&gt;T19775:f0</title>
<path fill="none" stroke="#5b00c0" d="M1088.5,-81C1088.5,-74.055 147.1295,-41.4522 38.6513,-31.5505"/>
<polygon fill="#5b00c0" stroke="#5b00c0" points="38.9139,-28.0501 28.5,-30 37.8569,-34.9699 38.9139,-28.0501"/>
<text text-anchor="middle" x="722" y="-51.8" font-family="Times,serif" font-size="14.00" fill="#5b00c0">rw</text>
</g>
<!-- T19775&#45;&gt;T19773 -->
<g id="edge2" class="edge">
<title>T19775:f2&#45;&gt;T19773:f0</title>
<path fill="none" stroke="#5b00c0" d="M1146.5,-30C1146.5,-51.2281 403.6801,-46.5726 382.5,-48 254.0403,-56.6574 95.441,45.5371 86.8637,-70.6739"/>
<polygon fill="#5b00c0" stroke="#5b00c0" points="83.3543,-70.883 86.5,-81 90.3499,-71.1294 83.3543,-70.883"/>
<text text-anchor="middle" x="390" y="-51.8" font-family="Times,serif" font-size="14.00" fill="#5b00c0">rw</text>
</g>
</g>
</svg>
