<?xml version="1.0" encoding="UTF-8" standalone="no"?>
<!DOCTYPE svg PUBLIC "-//W3C//DTD SVG 1.1//EN"
 "http://www.w3.org/Graphics/SVG/1.1/DTD/svg11.dtd">
<!-- Generated by graphviz version 2.40.1 (20161225.0304)
 -->
<!-- Title: a_graph Pages: 1 -->
<svg width="2177pt" height="119pt"
 viewBox="0.00 0.00 2177.00 119.00" xmlns="http://www.w3.org/2000/svg" xmlns:xlink="http://www.w3.org/1999/xlink">
<g id="graph0" class="graph" transform="scale(1 1) rotate(0) translate(4 115)">
<title>a_graph</title>
<polygon fill="#ffffff" stroke="transparent" points="-4,4 -4,-115 2173,-115 2173,4 -4,4"/>
<!-- T13165 -->
<g id="node1" class="node">
<title>T13165</title>
<polygon fill="none" stroke="#0058ad" points="1722.5,-81.5 1722.5,-110.5 1986.5,-110.5 1986.5,-81.5 1722.5,-81.5"/>
<text text-anchor="middle" x="1754.5" y="-92.3" font-family="Times,serif" font-size="14.00" fill="#0058ad">a 67 100</text>
<polyline fill="none" stroke="#0058ad" points="1786.5,-81.5 1786.5,-110.5 "/>
<text text-anchor="middle" x="1818.5" y="-92.3" font-family="Times,serif" font-size="14.00" fill="#0058ad">a 56 123</text>
<polyline fill="none" stroke="#0058ad" points="1850.5,-81.5 1850.5,-110.5 "/>
<text text-anchor="middle" x="1890" y="-92.3" font-family="Times,serif" font-size="14.00" fill="#0058ad">r 69 [1 2 3]</text>
<polyline fill="none" stroke="#0058ad" points="1929.5,-81.5 1929.5,-110.5 "/>
<text text-anchor="middle" x="1958" y="-92.3" font-family="Times,serif" font-size="14.00" fill="#0058ad">a 65 62</text>
</g>
<!-- T13169 -->
<g id="node2" class="node">
<title>T13169</title>
<polygon fill="none" stroke="#0058ad" points="0,-.5 0,-29.5 2169,-29.5 2169,-.5 0,-.5"/>
<text text-anchor="middle" x="1059.5" y="-11.3" font-family="Times,serif" font-size="14.00" fill="#0058ad">r 56 [1 2 3 4 5 6 7 8 9 10 11 12 13 14 16 17 18 19 20 22 23 24 21 25 26 28 27 29 30 31 32 33 34 35 36 37 38 39 40 41 42 43 44 45 46 47 48 49 50 51 52 53 54 55 56 57 58 59 60 61 63 64 65 66 67 68 69 70 71 72 73 74 75 76 77 78 79 80 81 86 87 88 89 91 90 92 93 94 95 96 97 98 99 101 100 102 103 104 105 106 107 108 109 110 111 112 113 115 116 117 118 119 120 121 122]</text>
<polyline fill="none" stroke="#0058ad" points="2119,-.5 2119,-29.5 "/>
<text text-anchor="middle" x="2144" y="-11.3" font-family="Times,serif" font-size="14.00" fill="#0058ad">a 69 4</text>
</g>
<!-- T13165&#45;&gt;T13169 -->
<g id="edge1" class="edge">
<title>T13165:f2&#45;&gt;T13169:f1</title>
<path fill="none" stroke="#5b00c0" d="M1890.5,-81C1890.5,30.4314 2128.3927,-133.8924 2143.7256,-40.2343"/>
<polygon fill="#5b00c0" stroke="#5b00c0" points="2147.2354,-40.2356 2144.5,-30 2140.2554,-39.7074 2147.2354,-40.2356"/>
<text text-anchor="middle" x="2147" y="-51.8" font-family="Times,serif" font-size="14.00" fill="#5b00c0">rw</text>
</g>
<!-- T13169&#45;&gt;T13165 -->
<g id="edge2" class="edge">
<title>T13169:f0&#45;&gt;T13165:f1</title>
<path fill="none" stroke="#5b00c0" d="M1059.5,-30C1059.5,-195.4151 1786.2371,75.9215 1817.464,-70.727"/>
<polygon fill="#5b00c0" stroke="#5b00c0" points="1814.0142,-71.4017 1818.5,-81 1820.9789,-70.6993 1814.0142,-71.4017"/>
<text text-anchor="middle" x="1822" y="-51.8" font-family="Times,serif" font-size="14.00" fill="#5b00c0">rw</text>
</g>
</g>
</svg>
