<?xml version="1.0" encoding="UTF-8" standalone="no"?>
<!DOCTYPE svg PUBLIC "-//W3C//DTD SVG 1.1//EN"
 "http://www.w3.org/Graphics/SVG/1.1/DTD/svg11.dtd">
<!-- Generated by graphviz version 2.40.1 (20161225.0304)
 -->
<!-- Title: a_graph Pages: 1 -->
<svg width="1559pt" height="119pt"
 viewBox="0.00 0.00 1559.00 119.00" xmlns="http://www.w3.org/2000/svg" xmlns:xlink="http://www.w3.org/1999/xlink">
<g id="graph0" class="graph" transform="scale(1 1) rotate(0) translate(4 115)">
<title>a_graph</title>
<polygon fill="#ffffff" stroke="transparent" points="-4,4 -4,-115 1555,-115 1555,4 -4,4"/>
<!-- T460 -->
<g id="node1" class="node">
<title>T460</title>
<polygon fill="none" stroke="#0058ad" points="239,-81.5 239,-110.5 1551,-110.5 1551,-81.5 239,-81.5"/>
<text text-anchor="middle" x="264" y="-92.3" font-family="Times,serif" font-size="14.00" fill="#0058ad">a 8 66</text>
<polyline fill="none" stroke="#0058ad" points="289,-81.5 289,-110.5 "/>
<text text-anchor="middle" x="763" y="-92.3" font-family="Times,serif" font-size="14.00" fill="#0058ad">r 8 [8 10 11 12 13 14 15 16 17 18 19 20 21 22 23 24 25 26 27 28 29 30 31 32 33 34 35 36 37 38 39 40 41 42 43 44 45 47 48 51 54 55 56 57 58 59 60 61 63 62 65 64 66]</text>
<polyline fill="none" stroke="#0058ad" points="1237,-81.5 1237,-110.5 "/>
<text text-anchor="middle" x="1394" y="-92.3" font-family="Times,serif" font-size="14.00" fill="#0058ad">r 10 [2 3 4 5 1 6 7 8 9 10 11 12 13 14 15 16 17 18 19]</text>
</g>
<!-- T462 -->
<g id="node2" class="node">
<title>T462</title>
<polygon fill="none" stroke="#0058ad" points="0,-.5 0,-29.5 1346,-29.5 1346,-.5 0,-.5"/>
<text text-anchor="middle" x="465.5" y="-11.3" font-family="Times,serif" font-size="14.00" fill="#0058ad">r 8 [8 10 11 12 13 14 15 16 17 18 19 20 21 22 23 24 25 26 27 28 29 30 31 32 33 34 35 36 37 38 39 40 41 42 43 44 45 47 48 51 54 55 56 57 58 59 60 61 63 62 65 64]</text>
<polyline fill="none" stroke="#0058ad" points="931,-.5 931,-29.5 "/>
<text text-anchor="middle" x="1088" y="-11.3" font-family="Times,serif" font-size="14.00" fill="#0058ad">r 10 [2 3 4 5 1 6 7 8 9 10 11 12 13 14 15 16 17 18 19]</text>
<polyline fill="none" stroke="#0058ad" points="1245,-.5 1245,-29.5 "/>
<text text-anchor="middle" x="1273.5" y="-11.3" font-family="Times,serif" font-size="14.00" fill="#0058ad">a 10 20</text>
<polyline fill="none" stroke="#0058ad" points="1302,-.5 1302,-29.5 "/>
<text text-anchor="middle" x="1324" y="-11.3" font-family="Times,serif" font-size="14.00" fill="#0058ad">a 4 6</text>
</g>
<!-- T460&#45;&gt;T462 -->
<g id="edge1" class="edge">
<title>T460:f2&#45;&gt;T462:f2</title>
<path fill="none" stroke="#5b00c0" d="M1394,-81C1394,-26.8981 1289.4083,-79.8723 1275.5172,-39.9915"/>
<polygon fill="#5b00c0" stroke="#5b00c0" points="1278.9617,-39.3612 1274,-30 1272.0411,-40.4122 1278.9617,-39.3612"/>
<text text-anchor="middle" x="1392.5" y="-51.8" font-family="Times,serif" font-size="14.00" fill="#5b00c0">rw</text>
</g>
<!-- T462&#45;&gt;T460 -->
<g id="edge2" class="edge">
<title>T462:f0&#45;&gt;T460:f0</title>
<path fill="none" stroke="#5b00c0" d="M465,-30C465,-118.3839 280.1501,.6064 264.9867,-70.7664"/>
<polygon fill="#5b00c0" stroke="#5b00c0" points="261.4759,-70.7102 264,-81 268.4436,-71.3821 261.4759,-70.7102"/>
<text text-anchor="middle" x="468.5" y="-51.8" font-family="Times,serif" font-size="14.00" fill="#5b00c0">rw</text>
</g>
</g>
</svg>
