<?xml version="1.0" encoding="UTF-8" standalone="no"?>
<!DOCTYPE svg PUBLIC "-//W3C//DTD SVG 1.1//EN"
 "http://www.w3.org/Graphics/SVG/1.1/DTD/svg11.dtd">
<!-- Generated by graphviz version 2.40.1 (20161225.0304)
 -->
<!-- Title: a_graph Pages: 1 -->
<svg width="2136pt" height="119pt"
 viewBox="0.00 0.00 2136.00 119.00" xmlns="http://www.w3.org/2000/svg" xmlns:xlink="http://www.w3.org/1999/xlink">
<g id="graph0" class="graph" transform="scale(1 1) rotate(0) translate(4 115)">
<title>a_graph</title>
<polygon fill="#ffffff" stroke="transparent" points="-4,4 -4,-115 2132,-115 2132,4 -4,4"/>
<!-- T4395 -->
<g id="node1" class="node">
<title>T4395</title>
<polygon fill="none" stroke="#0058ad" points="940.5,-81.5 940.5,-110.5 1819.5,-110.5 1819.5,-81.5 940.5,-81.5"/>
<text text-anchor="middle" x="1348" y="-92.3" font-family="Times,serif" font-size="14.00" fill="#0058ad">r 26 [1 2 3 4 5 6 7 8 11 12 9 10 13 14 16 15 17 18 19 20 21 22 23 24 25 26 27 28 29 30 31 32 33 35 36 37 38 39 40 34 41 42 43 44 45 46 47 48]</text>
<polyline fill="none" stroke="#0058ad" points="1755.5,-81.5 1755.5,-110.5 "/>
<text text-anchor="middle" x="1787.5" y="-92.3" font-family="Times,serif" font-size="14.00" fill="#0058ad">a 24 120</text>
</g>
<!-- T4393 -->
<g id="node2" class="node">
<title>T4393</title>
<polygon fill="none" stroke="#0058ad" points="0,-.5 0,-29.5 2128,-29.5 2128,-.5 0,-.5"/>
<text text-anchor="middle" x="1035.5" y="-11.3" font-family="Times,serif" font-size="14.00" fill="#0058ad">r 24 [1 2 3 4 5 6 9 10 7 8 11 13 12 15 14 16 17 18 19 20 21 22 23 24 26 25 27 28 29 30 31 32 34 35 36 37 39 40 41 42 43 44 45 46 47 48 49 50 51 52 53 54 56 57 60 62 63 64 65 66 67 68 69 70 71 72 73 74 75 76 77 78 79 80 82 81 83 84 85 86 87 88 89 90 91 92 93 94 95 96 97 98 99 100 101 102 103 105 104 106 107 108 109 110 111 112 113 114 115 117 116 118 119]</text>
<polyline fill="none" stroke="#0058ad" points="2071,-.5 2071,-29.5 "/>
<text text-anchor="middle" x="2099.5" y="-11.3" font-family="Times,serif" font-size="14.00" fill="#0058ad">a 26 49</text>
</g>
<!-- T4395&#45;&gt;T4393 -->
<g id="edge1" class="edge">
<title>T4395:f0&#45;&gt;T4393:f1</title>
<path fill="none" stroke="#5b00c0" d="M1348,-81C1348,54.0212 1515.3524,-58.0375 1650,-48 1661.3789,-47.1517 2026.3748,-43.2835 2090.4463,-33.1172"/>
<polygon fill="#5b00c0" stroke="#5b00c0" points="2091.5789,-36.4293 2100,-30 2089.4076,-29.7746 2091.5789,-36.4293"/>
<text text-anchor="middle" x="1657.5" y="-51.8" font-family="Times,serif" font-size="14.00" fill="#5b00c0">rw</text>
</g>
<!-- T4393&#45;&gt;T4395 -->
<g id="edge2" class="edge">
<title>T4393:f0&#45;&gt;T4395:f1</title>
<path fill="none" stroke="#5b00c0" d="M1035,-30C1035,-47.5071 1647.6774,-45.4644 1665,-48 1717.2842,-55.653 1779.1505,-28.4468 1787.1365,-70.8561"/>
<polygon fill="#5b00c0" stroke="#5b00c0" points="1783.6644,-71.3329 1788,-81 1790.6391,-70.7391 1783.6644,-71.3329"/>
<text text-anchor="middle" x="1791.5" y="-51.8" font-family="Times,serif" font-size="14.00" fill="#5b00c0">rw</text>
</g>
</g>
</svg>
