<?xml version="1.0" encoding="UTF-8" standalone="no"?>
<!DOCTYPE svg PUBLIC "-//W3C//DTD SVG 1.1//EN"
 "http://www.w3.org/Graphics/SVG/1.1/DTD/svg11.dtd">
<!-- Generated by graphviz version 2.40.1 (20161225.0304)
 -->
<!-- Title: a_graph Pages: 1 -->
<svg width="2959pt" height="119pt"
 viewBox="0.00 0.00 2959.00 119.00" xmlns="http://www.w3.org/2000/svg" xmlns:xlink="http://www.w3.org/1999/xlink">
<g id="graph0" class="graph" transform="scale(1 1) rotate(0) translate(4 115)">
<title>a_graph</title>
<polygon fill="#ffffff" stroke="transparent" points="-4,4 -4,-115 2955,-115 2955,4 -4,4"/>
<!-- T13113 -->
<g id="node1" class="node">
<title>T13113</title>
<polygon fill="none" stroke="#0058ad" points="0,-81.5 0,-110.5 2171,-110.5 2171,-81.5 0,-81.5"/>
<text text-anchor="middle" x="25.5" y="-92.3" font-family="Times,serif" font-size="14.00" fill="#0058ad">r 69 []</text>
<polyline fill="none" stroke="#0058ad" points="51,-81.5 51,-110.5 "/>
<text text-anchor="middle" x="684" y="-92.3" font-family="Times,serif" font-size="14.00" fill="#0058ad">r 67 [1 2 3 6 7 9 10 14 15 22 23 24 28 29 30 31 25 33 34 32 35 36 37 39 40 38 42 41 45 46 47 48 49 43 44 51 52 50 53 54 55 56 57 60 61 62 63 64 65 66 67 58 59 69 70 71 72 73 74 75 76 77 68 78 79 82 81 80 85 86 87 88 89]</text>
<polyline fill="none" stroke="#0058ad" points="1317,-81.5 1317,-110.5 "/>
<text text-anchor="middle" x="1715.5" y="-92.3" font-family="Times,serif" font-size="14.00" fill="#0058ad">r 65 [1 2 3 4 5 6 7 8 9 10 11 13 14 15 12 16 17 18 19 20 21 23 22 24 27 28 29 31 32 33 34 35 37 38 36 39 41 42 43 44 40 45 46 48 49 47 50]</text>
<polyline fill="none" stroke="#0058ad" points="2114,-81.5 2114,-110.5 "/>
<text text-anchor="middle" x="2142.5" y="-92.3" font-family="Times,serif" font-size="14.00" fill="#0058ad">a 67 90</text>
</g>
<!-- T13115 -->
<g id="node2" class="node">
<title>T13115</title>
<polygon fill="none" stroke="#0058ad" points="1628,-.5 1628,-29.5 2951,-29.5 2951,-.5 1628,-.5"/>
<text text-anchor="middle" x="1656.5" y="-11.3" font-family="Times,serif" font-size="14.00" fill="#0058ad">a 65 51</text>
<polyline fill="none" stroke="#0058ad" points="1685,-.5 1685,-29.5 "/>
<text text-anchor="middle" x="2318" y="-11.3" font-family="Times,serif" font-size="14.00" fill="#0058ad">r 67 [1 2 3 6 7 9 10 14 15 22 23 24 28 29 30 31 25 33 34 32 35 36 37 39 40 38 42 41 45 46 47 48 49 43 44 51 52 50 53 54 55 56 57 60 61 62 63 64 65 66 67 58 59 69 70 71 72 73 74 75 76 77 68 78 79 82 81 80 85 86 87 88 89]</text>
</g>
<!-- T13113&#45;&gt;T13115 -->
<g id="edge1" class="edge">
<title>T13113:f2&#45;&gt;T13115:f0</title>
<path fill="none" stroke="#5b00c0" d="M1715.5,-81C1715.5,-50.2655 1669.1101,-61.1898 1658.5998,-39.8936"/>
<polygon fill="#5b00c0" stroke="#5b00c0" points="1662,-39.0554 1656.5,-30 1655.1525,-40.5088 1662,-39.0554"/>
<text text-anchor="middle" x="1714" y="-51.8" font-family="Times,serif" font-size="14.00" fill="#5b00c0">rw</text>
</g>
<!-- T13115&#45;&gt;T13113 -->
<g id="edge2" class="edge">
<title>T13115:f1&#45;&gt;T13113:f3</title>
<path fill="none" stroke="#5b00c0" d="M2318.5,-30C2318.5,-62.8707 2224.8023,-91.0089 2181.731,-95.4041"/>
<polygon fill="#5b00c0" stroke="#5b00c0" points="2181.2795,-91.9243 2171.5,-96 2181.6866,-98.9125 2181.2795,-91.9243"/>
<text text-anchor="middle" x="2316" y="-51.8" font-family="Times,serif" font-size="14.00" fill="#5b00c0">rw</text>
</g>
</g>
</svg>
