<?xml version="1.0" encoding="UTF-8" standalone="no"?>
<!DOCTYPE svg PUBLIC "-//W3C//DTD SVG 1.1//EN"
 "http://www.w3.org/Graphics/SVG/1.1/DTD/svg11.dtd">
<!-- Generated by graphviz version 2.40.1 (20161225.0304)
 -->
<!-- Title: a_graph Pages: 1 -->
<svg width="2213pt" height="119pt"
 viewBox="0.00 0.00 2213.00 119.00" xmlns="http://www.w3.org/2000/svg" xmlns:xlink="http://www.w3.org/1999/xlink">
<g id="graph0" class="graph" transform="scale(1 1) rotate(0) translate(4 115)">
<title>a_graph</title>
<polygon fill="#ffffff" stroke="transparent" points="-4,4 -4,-115 2209,-115 2209,4 -4,4"/>
<!-- T14713 -->
<g id="node1" class="node">
<title>T14713</title>
<polygon fill="none" stroke="#0058ad" points="127,-81.5 127,-110.5 1952,-110.5 1952,-81.5 127,-81.5"/>
<text text-anchor="middle" x="569" y="-92.3" font-family="Times,serif" font-size="14.00" fill="#0058ad">r 76 [1 2 3 5 6 7 8 9 4 10 11 12 13 14 15 17 16 19 18 20 21 22 23 24 25 28 29 30 31 27 32 33 26 35 36 37 34 38 39 40 41 43 44 45 47 48 42 49 50 51 52 53]</text>
<polyline fill="none" stroke="#0058ad" points="1011,-81.5 1011,-110.5 "/>
<text text-anchor="middle" x="1453" y="-92.3" font-family="Times,serif" font-size="14.00" fill="#0058ad">r 76 [1 2 3 5 6 7 8 9 4 10 11 12 13 14 15 17 16 19 18 20 21 22 23 24 25 28 29 30 31 27 32 33 26 35 36 37 34 38 39 40 41 43 44 45 47 48 42 49 50 51 52 53]</text>
<polyline fill="none" stroke="#0058ad" points="1895,-81.5 1895,-110.5 "/>
<text text-anchor="middle" x="1923.5" y="-92.3" font-family="Times,serif" font-size="14.00" fill="#0058ad">a 75 39</text>
</g>
<!-- T14717 -->
<g id="node2" class="node">
<title>T14717</title>
<polygon fill="none" stroke="#0058ad" points="0,-.5 0,-29.5 2205,-29.5 2205,-.5 0,-.5"/>
<text text-anchor="middle" x="316" y="-11.3" font-family="Times,serif" font-size="14.00" fill="#0058ad">r 75 [1 4 2 5 6 7 8 9 10 12 13 14 15 11 16 17 18 19 20 21 22 23 24 25 26 28 29 27 31 32 30 34 33 36 37 35 38]</text>
<polyline fill="none" stroke="#0058ad" points="632,-.5 632,-29.5 "/>
<text text-anchor="middle" x="948" y="-11.3" font-family="Times,serif" font-size="14.00" fill="#0058ad">r 75 [1 4 2 5 6 7 8 9 10 12 13 14 15 11 16 17 18 19 20 21 22 23 24 25 26 28 29 27 31 32 30 34 33 36 37 35 38]</text>
<polyline fill="none" stroke="#0058ad" points="1264,-.5 1264,-29.5 "/>
<text text-anchor="middle" x="1706" y="-11.3" font-family="Times,serif" font-size="14.00" fill="#0058ad">r 76 [1 2 3 5 6 7 8 9 4 10 11 12 13 14 15 17 16 19 18 20 21 22 23 24 25 28 29 30 31 27 32 33 26 35 36 37 34 38 39 40 41 43 44 45 47 48 42 49 50 51 52 53]</text>
<polyline fill="none" stroke="#0058ad" points="2148,-.5 2148,-29.5 "/>
<text text-anchor="middle" x="2176.5" y="-11.3" font-family="Times,serif" font-size="14.00" fill="#0058ad">a 76 46</text>
</g>
<!-- T14713&#45;&gt;T14717 -->
<g id="edge1" class="edge">
<title>T14713:f0&#45;&gt;T14717:f3</title>
<path fill="none" stroke="#5b00c0" d="M568.5,-81C568.5,28.839 1446.7145,-51.4271 1556.5,-48 1572.443,-47.5023 2090.2505,-47.2657 2167.0247,-33.5625"/>
<polygon fill="#5b00c0" stroke="#5b00c0" points="2168.3715,-36.7954 2176.5,-30 2165.908,-30.2432 2168.3715,-36.7954"/>
<text text-anchor="middle" x="1564" y="-51.8" font-family="Times,serif" font-size="14.00" fill="#5b00c0">rw</text>
</g>
<!-- T14717&#45;&gt;T14713 -->
<g id="edge2" class="edge">
<title>T14717:f0&#45;&gt;T14713:f2</title>
<path fill="none" stroke="#5b00c0" d="M315.5,-30C315.5,-47.4462 1554.0791,-47.06 1571.5,-48 1724.878,-56.2756 1914.7551,70.2451 1923.2074,-70.8457"/>
<polygon fill="#5b00c0" stroke="#5b00c0" points="1919.7133,-71.105 1923.5,-81 1926.7104,-70.9033 1919.7133,-71.105"/>
<text text-anchor="middle" x="1928" y="-51.8" font-family="Times,serif" font-size="14.00" fill="#5b00c0">rw</text>
</g>
</g>
</svg>
