<?xml version="1.0" encoding="UTF-8" standalone="no"?>
<!DOCTYPE svg PUBLIC "-//W3C//DTD SVG 1.1//EN"
 "http://www.w3.org/Graphics/SVG/1.1/DTD/svg11.dtd">
<!-- Generated by graphviz version 2.40.1 (20161225.0304)
 -->
<!-- Title: a_graph Pages: 1 -->
<svg width="3596pt" height="119pt"
 viewBox="0.00 0.00 3596.00 119.00" xmlns="http://www.w3.org/2000/svg" xmlns:xlink="http://www.w3.org/1999/xlink">
<g id="graph0" class="graph" transform="scale(1 1) rotate(0) translate(4 115)">
<title>a_graph</title>
<polygon fill="#ffffff" stroke="transparent" points="-4,4 -4,-115 3592,-115 3592,4 -4,4"/>
<!-- T11509 -->
<g id="node1" class="node">
<title>T11509</title>
<polygon fill="none" stroke="#0058ad" points="563.5,-81.5 563.5,-110.5 3008.5,-110.5 3008.5,-81.5 563.5,-81.5"/>
<text text-anchor="middle" x="1169" y="-92.3" font-family="Times,serif" font-size="14.00" fill="#0058ad">r 58 [1 2 3 4 5 7 8 6 9 10 11 13 14 15 12 16 17 19 18 20 21 22 23 25 26 24 27 30 33 34 31 32 28 29 35 36 37 39 41 47 48 49 50 53 54 55 56 57 58 59 60 61 62 63 65 64 66 67 68 69 70 71 72 73 74 75 76 78 77 79 80]</text>
<polyline fill="none" stroke="#0058ad" points="1774.5,-81.5 1774.5,-110.5 "/>
<text text-anchor="middle" x="2363" y="-92.3" font-family="Times,serif" font-size="14.00" fill="#0058ad">r 59 [1 2 3 4 7 6 5 8 9 10 12 13 14 15 16 18 17 21 22 19 23 28 27 31 32 33 34 36 35 37 38 39 40 41 42 45 43 44 47 48 49 50 46 51 52 53 56 54 55 58 59 57 64 65 60 61 62 66 67 68 69 72 70 71 63 75 73 74 77]</text>
<polyline fill="none" stroke="#0058ad" points="2951.5,-81.5 2951.5,-110.5 "/>
<text text-anchor="middle" x="2980" y="-92.3" font-family="Times,serif" font-size="14.00" fill="#0058ad">a 59 78</text>
</g>
<!-- T11511 -->
<g id="node2" class="node">
<title>T11511</title>
<polygon fill="none" stroke="#0058ad" points="0,-.5 0,-29.5 3588,-29.5 3588,-.5 0,-.5"/>
<text text-anchor="middle" x="588.5" y="-11.3" font-family="Times,serif" font-size="14.00" fill="#0058ad">r 59 [1 2 3 4 7 6 5 8 9 10 12 13 14 15 16 18 17 21 22 19 23 28 27 31 32 33 34 36 35 37 38 39 40 41 42 45 43 44 47 48 49 50 46 51 52 53 56 54 55 58 59 57 64 65 60 61 62 66 67 68 69 72 70 71 63 75 73 74 77]</text>
<polyline fill="none" stroke="#0058ad" points="1177,-.5 1177,-29.5 "/>
<text text-anchor="middle" x="1765.5" y="-11.3" font-family="Times,serif" font-size="14.00" fill="#0058ad">r 59 [1 2 3 4 7 6 5 8 9 10 12 13 14 15 16 18 17 21 22 19 23 28 27 31 32 33 34 36 35 37 38 39 40 41 42 45 43 44 47 48 49 50 46 51 52 53 56 54 55 58 59 57 64 65 60 61 62 66 67 68 69 72 70 71 63 75 73 74 77]</text>
<polyline fill="none" stroke="#0058ad" points="2354,-.5 2354,-29.5 "/>
<text text-anchor="middle" x="2942.5" y="-11.3" font-family="Times,serif" font-size="14.00" fill="#0058ad">r 59 [1 2 3 4 7 6 5 8 9 10 12 13 14 15 16 18 17 21 22 19 23 28 27 31 32 33 34 36 35 37 38 39 40 41 42 45 43 44 47 48 49 50 46 51 52 53 56 54 55 58 59 57 64 65 60 61 62 66 67 68 69 72 70 71 63 75 73 74 77]</text>
<polyline fill="none" stroke="#0058ad" points="3531,-.5 3531,-29.5 "/>
<text text-anchor="middle" x="3559.5" y="-11.3" font-family="Times,serif" font-size="14.00" fill="#0058ad">a 58 81</text>
</g>
<!-- T11509&#45;&gt;T11511 -->
<g id="edge1" class="edge">
<title>T11509:f0&#45;&gt;T11511:f3</title>
<path fill="none" stroke="#5b00c0" d="M1169,-81C1169,66.8233 2351.209,-51.0871 2499,-48 2512.886,-47.7099 3442.8587,-45.0698 3549.9774,-32.4319"/>
<polygon fill="#5b00c0" stroke="#5b00c0" points="3551.1073,-35.7594 3560,-30 3549.4567,-28.9568 3551.1073,-35.7594"/>
<text text-anchor="middle" x="2506.5" y="-51.8" font-family="Times,serif" font-size="14.00" fill="#5b00c0">rw</text>
</g>
<!-- T11511&#45;&gt;T11509 -->
<g id="edge2" class="edge">
<title>T11511:f0&#45;&gt;T11509:f2</title>
<path fill="none" stroke="#5b00c0" d="M588,-30C588,-43.3756 2500.6351,-47.4648 2514,-48 2614.1862,-52.0117 2955.5376,17.7825 2978.7551,-70.9712"/>
<polygon fill="#5b00c0" stroke="#5b00c0" points="2975.2947,-71.5073 2980,-81 2982.2414,-70.645 2975.2947,-71.5073"/>
<text text-anchor="middle" x="2980.5" y="-51.8" font-family="Times,serif" font-size="14.00" fill="#5b00c0">rw</text>
</g>
</g>
</svg>
