<?xml version="1.0" encoding="UTF-8" standalone="no"?>
<!DOCTYPE svg PUBLIC "-//W3C//DTD SVG 1.1//EN"
 "http://www.w3.org/Graphics/SVG/1.1/DTD/svg11.dtd">
<!-- Generated by graphviz version 2.40.1 (20161225.0304)
 -->
<!-- Title: a_graph Pages: 1 -->
<svg width="2302pt" height="119pt"
 viewBox="0.00 0.00 2302.00 119.00" xmlns="http://www.w3.org/2000/svg" xmlns:xlink="http://www.w3.org/1999/xlink">
<g id="graph0" class="graph" transform="scale(1 1) rotate(0) translate(4 115)">
<title>a_graph</title>
<polygon fill="#ffffff" stroke="transparent" points="-4,4 -4,-115 2298,-115 2298,4 -4,4"/>
<!-- T20979 -->
<g id="node1" class="node">
<title>T20979</title>
<polygon fill="none" stroke="#0058ad" points="0,-81.5 0,-110.5 2294,-110.5 2294,-81.5 0,-81.5"/>
<text text-anchor="middle" x="28.5" y="-92.3" font-family="Times,serif" font-size="14.00" fill="#0058ad">a 107 3</text>
<polyline fill="none" stroke="#0058ad" points="57,-81.5 57,-110.5 "/>
<text text-anchor="middle" x="1140" y="-92.3" font-family="Times,serif" font-size="14.00" fill="#0058ad">r 106 [1 2 3 5 6 7 10 11 12 13 14 16 17 18 19 20 21 22 23 24 25 26 27 28 29 30 31 32 33 34 35 37 38 36 41 39 40 42 43 44 46 45 47 48 49 50 52 53 54 51 55 56 59 60 61 62 63 67 66 68 69 71 72 73 74 75 76 77 80 78 79 81 82 83 84 85 86 87 88 89 90 92 93 91 94 95 97 98 99 100 96 101 102 103 104 105 106 107 108 109 110 111 112 113 114 115 116 117 118 119 120 121 122 123 124]</text>
<polyline fill="none" stroke="#0058ad" points="2223,-81.5 2223,-110.5 "/>
<text text-anchor="middle" x="2258.5" y="-92.3" font-family="Times,serif" font-size="14.00" fill="#0058ad">a 100 118</text>
</g>
<!-- T20977 -->
<g id="node2" class="node">
<title>T20977</title>
<polygon fill="none" stroke="#0058ad" points="442,-.5 442,-29.5 730,-29.5 730,-.5 442,-.5"/>
<text text-anchor="middle" x="477.5" y="-11.3" font-family="Times,serif" font-size="14.00" fill="#0058ad">a 106 125</text>
<polyline fill="none" stroke="#0058ad" points="513,-.5 513,-29.5 "/>
<text text-anchor="middle" x="548.5" y="-11.3" font-family="Times,serif" font-size="14.00" fill="#0058ad">a 106 126</text>
<polyline fill="none" stroke="#0058ad" points="584,-.5 584,-29.5 "/>
<text text-anchor="middle" x="619.5" y="-11.3" font-family="Times,serif" font-size="14.00" fill="#0058ad">a 106 127</text>
<polyline fill="none" stroke="#0058ad" points="655,-.5 655,-29.5 "/>
<text text-anchor="middle" x="692.5" y="-11.3" font-family="Times,serif" font-size="14.00" fill="#0058ad">r 107 [1 2]</text>
</g>
<!-- T20979&#45;&gt;T20977 -->
<g id="edge1" class="edge">
<title>T20979:f1&#45;&gt;T20977:f0</title>
<path fill="none" stroke="#5b00c0" d="M1140,-81C1140,63.161 508.9779,-166.0621 478.1662,-40.1328"/>
<polygon fill="#5b00c0" stroke="#5b00c0" points="481.6205,-39.5342 477,-30 474.6664,-40.3346 481.6205,-39.5342"/>
<text text-anchor="middle" x="1140.5" y="-51.8" font-family="Times,serif" font-size="14.00" fill="#5b00c0">rw</text>
</g>
<!-- T20977&#45;&gt;T20979 -->
<g id="edge2" class="edge">
<title>T20977:f3&#45;&gt;T20979:f0</title>
<path fill="none" stroke="#5b00c0" d="M693,-30C693,-32.1462 121.8448,-72.1283 38.1795,-79.8168"/>
<polygon fill="#5b00c0" stroke="#5b00c0" points="37.529,-76.3688 28,-81 38.3372,-83.322 37.529,-76.3688"/>
<text text-anchor="middle" x="465.5" y="-51.8" font-family="Times,serif" font-size="14.00" fill="#5b00c0">rw</text>
</g>
</g>
</svg>
