<?xml version="1.0" encoding="UTF-8" standalone="no"?>
<!DOCTYPE svg PUBLIC "-//W3C//DTD SVG 1.1//EN"
 "http://www.w3.org/Graphics/SVG/1.1/DTD/svg11.dtd">
<!-- Generated by graphviz version 2.40.1 (20161225.0304)
 -->
<!-- Title: a_graph Pages: 1 -->
<svg width="2106pt" height="119pt"
 viewBox="0.00 0.00 2106.00 119.00" xmlns="http://www.w3.org/2000/svg" xmlns:xlink="http://www.w3.org/1999/xlink">
<g id="graph0" class="graph" transform="scale(1 1) rotate(0) translate(4 115)">
<title>a_graph</title>
<polygon fill="#ffffff" stroke="transparent" points="-4,4 -4,-115 2102,-115 2102,4 -4,4"/>
<!-- T21535 -->
<g id="node1" class="node">
<title>T21535</title>
<polygon fill="none" stroke="#0058ad" points="0,-81.5 0,-110.5 2098,-110.5 2098,-81.5 0,-81.5"/>
<text text-anchor="middle" x="264" y="-92.3" font-family="Times,serif" font-size="14.00" fill="#0058ad">r 110 [1 2 3 5 6 4 7 8 9 10 11 12 13 14 15 16 17 18 19 20 21 22 23 24 26 27 25 28 29 30 31]</text>
<polyline fill="none" stroke="#0058ad" points="528,-81.5 528,-110.5 "/>
<text text-anchor="middle" x="1249" y="-92.3" font-family="Times,serif" font-size="14.00" fill="#0058ad">r 107 [1 2 3 4 5 6 7 8 9 10 11 12 13 14 15 16 17 18 19 20 21 22 23 25 26 24 27 28 29 30 31 32 33 34 35 36 39 40 41 42 38 43 44 46 47 49 50 51 52 53 55 56 57 58 59 60 61 62 63 64 65 66 67 68 69 70 71 72 74 75 76 77 78 79 80 81 82 83 84 85 86 87 88 89]</text>
<polyline fill="none" stroke="#0058ad" points="1970,-81.5 1970,-110.5 "/>
<text text-anchor="middle" x="2002" y="-92.3" font-family="Times,serif" font-size="14.00" fill="#0058ad">a 101 14</text>
<polyline fill="none" stroke="#0058ad" points="2034,-81.5 2034,-110.5 "/>
<text text-anchor="middle" x="2066" y="-92.3" font-family="Times,serif" font-size="14.00" fill="#0058ad">a 107 90</text>
</g>
<!-- T21533 -->
<g id="node2" class="node">
<title>T21533</title>
<polygon fill="none" stroke="#0058ad" points="68,-.5 68,-29.5 1574,-29.5 1574,-.5 68,-.5"/>
<text text-anchor="middle" x="789" y="-11.3" font-family="Times,serif" font-size="14.00" fill="#0058ad">r 107 [1 2 3 4 5 6 7 8 9 10 11 12 13 14 15 16 17 18 19 20 21 22 23 25 26 24 27 28 29 30 31 32 33 34 35 36 39 40 41 42 38 43 44 46 47 49 50 51 52 53 55 56 57 58 59 60 61 62 63 64 65 66 67 68 69 70 71 72 74 75 76 77 78 79 80 81 82 83 84 85 86 87 88 89]</text>
<polyline fill="none" stroke="#0058ad" points="1510,-.5 1510,-29.5 "/>
<text text-anchor="middle" x="1542" y="-11.3" font-family="Times,serif" font-size="14.00" fill="#0058ad">a 110 32</text>
</g>
<!-- T21535&#45;&gt;T21533 -->
<g id="edge1" class="edge">
<title>T21535:f0&#45;&gt;T21533:f1</title>
<path fill="none" stroke="#5b00c0" d="M264,-81C264,57.6435 1480.3594,-160.9488 1539.752,-39.7484"/>
<polygon fill="#5b00c0" stroke="#5b00c0" points="1543.1633,-40.5308 1542,-30 1536.3423,-38.9578 1543.1633,-40.5308"/>
<text text-anchor="middle" x="1535.5" y="-51.8" font-family="Times,serif" font-size="14.00" fill="#5b00c0">rw</text>
</g>
<!-- T21533&#45;&gt;T21535 -->
<g id="edge2" class="edge">
<title>T21533:f0&#45;&gt;T21535:f3</title>
<path fill="none" stroke="#5b00c0" d="M789,-30C789,-51.0615 1525.9585,-47.0816 1547,-48 1658.9611,-52.8869 2041.8307,29.3469 2064.9097,-71.0546"/>
<polygon fill="#5b00c0" stroke="#5b00c0" points="2061.431,-71.441 2066,-81 2068.3893,-70.6781 2061.431,-71.441"/>
<text text-anchor="middle" x="2068.5" y="-51.8" font-family="Times,serif" font-size="14.00" fill="#5b00c0">rw</text>
</g>
</g>
</svg>
