<?xml version="1.0" encoding="UTF-8" standalone="no"?>
<!DOCTYPE svg PUBLIC "-//W3C//DTD SVG 1.1//EN"
 "http://www.w3.org/Graphics/SVG/1.1/DTD/svg11.dtd">
<!-- Generated by graphviz version 2.40.1 (20161225.0304)
 -->
<!-- Title: a_graph Pages: 1 -->
<svg width="2599pt" height="200pt"
 viewBox="0.00 0.00 2598.50 200.00" xmlns="http://www.w3.org/2000/svg" xmlns:xlink="http://www.w3.org/1999/xlink">
<g id="graph0" class="graph" transform="scale(1 1) rotate(0) translate(4 196)">
<title>a_graph</title>
<polygon fill="#ffffff" stroke="transparent" points="-4,4 -4,-196 2594.5,-196 2594.5,4 -4,4"/>
<!-- T175 -->
<g id="node1" class="node">
<title>T175</title>
<polygon fill="none" stroke="#0058ad" points="1125.5,-162.5 1125.5,-191.5 2590.5,-191.5 2590.5,-162.5 1125.5,-162.5"/>
<text text-anchor="middle" x="1150.5" y="-173.3" font-family="Times,serif" font-size="14.00" fill="#0058ad">a 8 30</text>
<polyline fill="none" stroke="#0058ad" points="1175.5,-162.5 1175.5,-191.5 "/>
<text text-anchor="middle" x="1382" y="-173.3" font-family="Times,serif" font-size="14.00" fill="#0058ad">r 8 [8 10 11 12 13 14 15 16 17 18 19 20 21 22 23 24 25 26 27 28 29 30]</text>
<polyline fill="none" stroke="#0058ad" points="1588.5,-162.5 1588.5,-191.5 "/>
<text text-anchor="middle" x="1613.5" y="-173.3" font-family="Times,serif" font-size="14.00" fill="#0058ad">a 7 15</text>
<polyline fill="none" stroke="#0058ad" points="1638.5,-162.5 1638.5,-191.5 "/>
<text text-anchor="middle" x="2114.5" y="-173.3" font-family="Times,serif" font-size="14.00" fill="#0058ad">r 9 [5 6 7 11 12 13 14 15 16 17 18 19 20 21 22 23 24 26 27 25 29 28 30 32 33 31 34 35 36 37 38 39 40 41 42 43 44 45 46 47 48 49 50 51 52 53 54 55 56 57 58 59 61 60]</text>
</g>
<!-- T179 -->
<g id="node2" class="node">
<title>T179</title>
<polygon fill="none" stroke="#0058ad" points="0,-.5 0,-29.5 2350,-29.5 2350,-.5 0,-.5"/>
<text text-anchor="middle" x="476" y="-11.3" font-family="Times,serif" font-size="14.00" fill="#0058ad">r 9 [5 6 7 11 12 13 14 15 16 17 18 19 20 21 22 23 24 26 27 25 29 28 30 32 33 31 34 35 36 37 38 39 40 41 42 43 44 45 46 47 48 49 50 51 52 53 54 55 56 57 58 59 61 60]</text>
<polyline fill="none" stroke="#0058ad" points="952,-.5 952,-29.5 "/>
<text text-anchor="middle" x="1150" y="-11.3" font-family="Times,serif" font-size="14.00" fill="#0058ad">r 8 [8 10 11 12 13 14 15 16 17 18 19 20 21 22 23 24 25 26 27 28 29]</text>
<polyline fill="none" stroke="#0058ad" points="1348,-.5 1348,-29.5 "/>
<text text-anchor="middle" x="1824" y="-11.3" font-family="Times,serif" font-size="14.00" fill="#0058ad">r 9 [5 6 7 11 12 13 14 15 16 17 18 19 20 21 22 23 24 26 27 25 29 28 30 32 33 31 34 35 36 37 38 39 40 41 42 43 44 45 46 47 48 49 50 51 52 53 54 55 56 57 58 59 61 60]</text>
<polyline fill="none" stroke="#0058ad" points="2300,-.5 2300,-29.5 "/>
<text text-anchor="middle" x="2325" y="-11.3" font-family="Times,serif" font-size="14.00" fill="#0058ad">a 9 62</text>
</g>
<!-- T175&#45;&gt;T179 -->
<g id="edge2" class="edge">
<title>T175:f3&#45;&gt;T179:f3</title>
<path fill="none" stroke="#5b00c0" d="M2115,-162C2115,-68.1117 2259.9252,-183.1528 2320,-111 2340.8248,-85.9883 2328.1385,-69.5306 2325.4621,-40.0548"/>
<polygon fill="#5b00c0" stroke="#5b00c0" points="2328.9555,-39.8288 2325,-30 2321.9628,-40.1502 2328.9555,-39.8288"/>
<text text-anchor="middle" x="2338.5" y="-92.3" font-family="Times,serif" font-size="14.00" fill="#5b00c0">rw</text>
</g>
<!-- T177 -->
<g id="node3" class="node">
<title>T177</title>
<polygon fill="none" stroke="#0058ad" points="1359,-81.5 1359,-110.5 2311,-110.5 2311,-81.5 1359,-81.5"/>
<text text-anchor="middle" x="1835" y="-92.3" font-family="Times,serif" font-size="14.00" fill="#0058ad">r 9 [5 6 7 11 12 13 14 15 16 17 18 19 20 21 22 23 24 26 27 25 29 28 30 32 33 31 34 35 36 37 38 39 40 41 42 43 44 45 46 47 48 49 50 51 52 53 54 55 56 57 58 59 61 60]</text>
</g>
<!-- T175&#45;&gt;T177 -->
<g id="edge1" class="edge">
<title>T175&#45;&gt;T177</title>
<path fill="none" stroke="#0050c0" d="M1853.7814,-162.1434C1850.4745,-150.497 1845.8028,-134.0446 1841.9461,-120.4623"/>
<polygon fill="#0050c0" stroke="#0050c0" points="1845.2903,-119.4261 1839.1918,-110.7625 1838.5565,-121.3382 1845.2903,-119.4261"/>
<text text-anchor="middle" x="1852.5" y="-132.8" font-family="Times,serif" font-size="14.00" fill="#0050c0">rt</text>
</g>
<!-- T179&#45;&gt;T175 -->
<g id="edge3" class="edge">
<title>T179:f1&#45;&gt;T175:f0</title>
<path fill="none" stroke="#5b00c0" d="M1150,-30C1150,-85.1146 1150,-101.396 1150,-151.8081"/>
<polygon fill="#5b00c0" stroke="#5b00c0" points="1146.5001,-152 1150,-162 1153.5001,-152 1146.5001,-152"/>
<text text-anchor="middle" x="1157.5" y="-92.3" font-family="Times,serif" font-size="14.00" fill="#5b00c0">rw</text>
</g>
<!-- T177&#45;&gt;T179 -->
<g id="edge4" class="edge">
<title>T177:f0&#45;&gt;T179:f3</title>
<path fill="none" stroke="#5b00c0" d="M2105.4401,-81.4969C2204.7161,-72.8609 2298.3596,-59.4827 2320.2193,-39.1475"/>
<polygon fill="#5b00c0" stroke="#5b00c0" points="2323.4701,-40.4838 2325,-30 2317.2662,-37.2415 2323.4701,-40.4838"/>
<text text-anchor="middle" x="2305.5" y="-51.8" font-family="Times,serif" font-size="14.00" fill="#5b00c0">rw</text>
</g>
</g>
</svg>
