<?xml version="1.0" encoding="UTF-8" standalone="no"?>
<!DOCTYPE svg PUBLIC "-//W3C//DTD SVG 1.1//EN"
 "http://www.w3.org/Graphics/SVG/1.1/DTD/svg11.dtd">
<!-- Generated by graphviz version 2.40.1 (20161225.0304)
 -->
<!-- Title: a_graph Pages: 1 -->
<svg width="586pt" height="119pt"
 viewBox="0.00 0.00 586.00 119.00" xmlns="http://www.w3.org/2000/svg" xmlns:xlink="http://www.w3.org/1999/xlink">
<g id="graph0" class="graph" transform="scale(1 1) rotate(0) translate(4 115)">
<title>a_graph</title>
<polygon fill="#ffffff" stroke="transparent" points="-4,4 -4,-115 582,-115 582,4 -4,4"/>
<!-- T21917 -->
<g id="node1" class="node">
<title>T21917</title>
<polygon fill="none" stroke="#0058ad" points="65,-81.5 65,-110.5 578,-110.5 578,-81.5 65,-81.5"/>
<text text-anchor="middle" x="97" y="-92.3" font-family="Times,serif" font-size="14.00" fill="#0058ad">a 112 21</text>
<polyline fill="none" stroke="#0058ad" points="129,-81.5 129,-110.5 "/>
<text text-anchor="middle" x="289.5" y="-92.3" font-family="Times,serif" font-size="14.00" fill="#0058ad">r 111 [1 2 3 4 5 6 7 8 9 11 12 13 14 16 17 18 15 19 20]</text>
<polyline fill="none" stroke="#0058ad" points="450,-81.5 450,-110.5 "/>
<text text-anchor="middle" x="482" y="-92.3" font-family="Times,serif" font-size="14.00" fill="#0058ad">a 112 22</text>
<polyline fill="none" stroke="#0058ad" points="514,-81.5 514,-110.5 "/>
<text text-anchor="middle" x="546" y="-92.3" font-family="Times,serif" font-size="14.00" fill="#0058ad">a 112 23</text>
</g>
<!-- T21919 -->
<g id="node2" class="node">
<title>T21919</title>
<polygon fill="none" stroke="#0058ad" points="0,-.5 0,-29.5 523,-29.5 523,-.5 0,-.5"/>
<text text-anchor="middle" x="32" y="-11.3" font-family="Times,serif" font-size="14.00" fill="#0058ad">a 111 21</text>
<polyline fill="none" stroke="#0058ad" points="64,-.5 64,-29.5 "/>
<text text-anchor="middle" x="92.5" y="-11.3" font-family="Times,serif" font-size="14.00" fill="#0058ad">a 97 47</text>
<polyline fill="none" stroke="#0058ad" points="121,-.5 121,-29.5 "/>
<text text-anchor="middle" x="153" y="-11.3" font-family="Times,serif" font-size="14.00" fill="#0058ad">a 104 70</text>
<polyline fill="none" stroke="#0058ad" points="185,-.5 185,-29.5 "/>
<text text-anchor="middle" x="354" y="-11.3" font-family="Times,serif" font-size="14.00" fill="#0058ad">r 112 [1 2 3 4 5 7 8 9 10 11 6 12 13 15 14 16 17 18 19 20]</text>
</g>
<!-- T21917&#45;&gt;T21919 -->
<g id="edge1" class="edge">
<title>T21917:f1&#45;&gt;T21919:f0</title>
<path fill="none" stroke="#5b00c0" d="M289.5,-81C289.5,-19.2334 215.1254,-59.8184 154.5,-48 130.987,-43.4164 55.7566,-54.0202 36.1883,-38.9028"/>
<polygon fill="#5b00c0" stroke="#5b00c0" points="39.2564,-37.2173 31.5,-30 33.0627,-40.479 39.2564,-37.2173"/>
<text text-anchor="middle" x="293" y="-51.8" font-family="Times,serif" font-size="14.00" fill="#5b00c0">rw</text>
</g>
<!-- T21919&#45;&gt;T21917 -->
<g id="edge2" class="edge">
<title>T21919:f3&#45;&gt;T21917:f0</title>
<path fill="none" stroke="#5b00c0" d="M354.5,-30C354.5,-54.4154 158.0622,-38.6694 135.5,-48 118.124,-55.1859 102.7811,-57.5298 98.0203,-71.0183"/>
<polygon fill="#5b00c0" stroke="#5b00c0" points="94.5458,-70.587 96.5,-81 101.466,-71.6411 94.5458,-70.587"/>
<text text-anchor="middle" x="143" y="-51.8" font-family="Times,serif" font-size="14.00" fill="#5b00c0">rw</text>
</g>
</g>
</svg>
