<?xml version="1.0" encoding="UTF-8" standalone="no"?>
<!DOCTYPE svg PUBLIC "-//W3C//DTD SVG 1.1//EN"
 "http://www.w3.org/Graphics/SVG/1.1/DTD/svg11.dtd">
<!-- Generated by graphviz version 2.40.1 (20161225.0304)
 -->
<!-- Title: a_graph Pages: 1 -->
<svg width="2156pt" height="119pt"
 viewBox="0.00 0.00 2156.00 119.00" xmlns="http://www.w3.org/2000/svg" xmlns:xlink="http://www.w3.org/1999/xlink">
<g id="graph0" class="graph" transform="scale(1 1) rotate(0) translate(4 115)">
<title>a_graph</title>
<polygon fill="#ffffff" stroke="transparent" points="-4,4 -4,-115 2152,-115 2152,4 -4,4"/>
<!-- T15725 -->
<g id="node1" class="node">
<title>T15725</title>
<polygon fill="none" stroke="#0058ad" points="0,-81.5 0,-110.5 1353,-110.5 1353,-81.5 0,-81.5"/>
<text text-anchor="middle" x="597" y="-92.3" font-family="Times,serif" font-size="14.00" fill="#0058ad">r 77 [1 2 3 4 5 6 7 8 9 10 18 21 22 23 24 25 26 27 28 29 30 31 32 33 34 35 36 37 38 39 40 41 42 44 43 45 47 48 46 49 50 51 53 52 54 56 57 59 58 60 62 63 64 65 67 68 69 66 70 71 72 73 74 75 76 77 79 80 78 81]</text>
<polyline fill="none" stroke="#0058ad" points="1194,-81.5 1194,-110.5 "/>
<text text-anchor="middle" x="1222.5" y="-92.3" font-family="Times,serif" font-size="14.00" fill="#0058ad">a 79 69</text>
<polyline fill="none" stroke="#0058ad" points="1251,-81.5 1251,-110.5 "/>
<text text-anchor="middle" x="1276.5" y="-92.3" font-family="Times,serif" font-size="14.00" fill="#0058ad">r 81 []</text>
<polyline fill="none" stroke="#0058ad" points="1302,-81.5 1302,-110.5 "/>
<text text-anchor="middle" x="1327.5" y="-92.3" font-family="Times,serif" font-size="14.00" fill="#0058ad">r 81 []</text>
</g>
<!-- T15727 -->
<g id="node2" class="node">
<title>T15727</title>
<polygon fill="none" stroke="#0058ad" points="883,-.5 883,-29.5 2148,-29.5 2148,-.5 883,-.5"/>
<text text-anchor="middle" x="908" y="-11.3" font-family="Times,serif" font-size="14.00" fill="#0058ad">a 81 1</text>
<polyline fill="none" stroke="#0058ad" points="933,-.5 933,-29.5 "/>
<text text-anchor="middle" x="961.5" y="-11.3" font-family="Times,serif" font-size="14.00" fill="#0058ad">a 77 82</text>
<polyline fill="none" stroke="#0058ad" points="990,-.5 990,-29.5 "/>
<text text-anchor="middle" x="1015" y="-11.3" font-family="Times,serif" font-size="14.00" fill="#0058ad">a 81 2</text>
<polyline fill="none" stroke="#0058ad" points="1040,-.5 1040,-29.5 "/>
<text text-anchor="middle" x="1594" y="-11.3" font-family="Times,serif" font-size="14.00" fill="#0058ad">r 79 [1 2 3 4 5 7 6 8 9 10 11 12 13 14 15 16 17 18 19 20 21 22 24 23 25 26 27 28 29 30 34 35 36 37 38 39 40 41 42 43 44 45 46 48 47 50 51 52 53 54 55 49 56 58 57 60 61 59 62 65 63 64 67 66 68]</text>
</g>
<!-- T15725&#45;&gt;T15727 -->
<g id="edge1" class="edge">
<title>T15725:f2&#45;&gt;T15727:f0</title>
<path fill="none" stroke="#5b00c0" d="M1276.5,-81C1276.5,-62.0498 1266.4055,-56.5624 1249.5,-48 1218.4043,-32.2504 957.3099,-62.1804 913.6736,-38.071"/>
<polygon fill="#5b00c0" stroke="#5b00c0" points="916.3556,-35.8164 907.5,-30 910.7956,-40.0693 916.3556,-35.8164"/>
<text text-anchor="middle" x="1278" y="-51.8" font-family="Times,serif" font-size="14.00" fill="#5b00c0">rw</text>
</g>
<!-- T15727&#45;&gt;T15725 -->
<g id="edge2" class="edge">
<title>T15727:f3&#45;&gt;T15725:f1</title>
<path fill="none" stroke="#5b00c0" d="M1594.5,-30C1594.5,-70.4939 1261.7002,-22.1871 1230.5,-48 1221.7791,-55.2151 1221.6396,-61.6811 1222.1148,-70.8299"/>
<polygon fill="#5b00c0" stroke="#5b00c0" points="1218.624,-71.1397 1222.5,-81 1225.6189,-70.8747 1218.624,-71.1397"/>
<text text-anchor="middle" x="1238" y="-51.8" font-family="Times,serif" font-size="14.00" fill="#5b00c0">rw</text>
</g>
</g>
</svg>
