<?xml version="1.0" encoding="UTF-8" standalone="no"?>
<!DOCTYPE svg PUBLIC "-//W3C//DTD SVG 1.1//EN"
 "http://www.w3.org/Graphics/SVG/1.1/DTD/svg11.dtd">
<!-- Generated by graphviz version 2.40.1 (20161225.0304)
 -->
<!-- Title: a_graph Pages: 1 -->
<svg width="1447pt" height="119pt"
 viewBox="0.00 0.00 1447.00 119.00" xmlns="http://www.w3.org/2000/svg" xmlns:xlink="http://www.w3.org/1999/xlink">
<g id="graph0" class="graph" transform="scale(1 1) rotate(0) translate(4 115)">
<title>a_graph</title>
<polygon fill="#ffffff" stroke="transparent" points="-4,4 -4,-115 1443,-115 1443,4 -4,4"/>
<!-- T15842 -->
<g id="node1" class="node">
<title>T15842</title>
<polygon fill="none" stroke="#0058ad" points="0,-81.5 0,-110.5 1015,-110.5 1015,-81.5 0,-81.5"/>
<text text-anchor="middle" x="450.5" y="-92.3" font-family="Times,serif" font-size="14.00" fill="#0058ad">r 68 [1 2 3 4 5 6 7 9 8 10 11 12 13 14 15 16 20 21 22 23 24 25 26 27 28 30 31 32 33 34 35 36 37 38 39 40 41 43 44 45 46 47 48 49 50 51 52 53 54 55 56 57 58]</text>
<polyline fill="none" stroke="#0058ad" points="901,-81.5 901,-110.5 "/>
<text text-anchor="middle" x="929.5" y="-92.3" font-family="Times,serif" font-size="14.00" fill="#0058ad">a 77 89</text>
<polyline fill="none" stroke="#0058ad" points="958,-81.5 958,-110.5 "/>
<text text-anchor="middle" x="986.5" y="-92.3" font-family="Times,serif" font-size="14.00" fill="#0058ad">a 81 39</text>
</g>
<!-- T15844 -->
<g id="node2" class="node">
<title>T15844</title>
<polygon fill="none" stroke="#0058ad" points="98,-.5 98,-29.5 1439,-29.5 1439,-.5 98,-.5"/>
<text text-anchor="middle" x="419" y="-11.3" font-family="Times,serif" font-size="14.00" fill="#0058ad">r 81 [1 2 5 3 6 7 8 9 10 11 13 4 12 14 15 17 16 18 19 20 21 22 23 25 24 26 27 28 31 29 30 32 34 35 36 37 38 33]</text>
<polyline fill="none" stroke="#0058ad" points="740,-.5 740,-29.5 "/>
<text text-anchor="middle" x="768.5" y="-11.3" font-family="Times,serif" font-size="14.00" fill="#0058ad">a 68 59</text>
<polyline fill="none" stroke="#0058ad" points="797,-.5 797,-29.5 "/>
<text text-anchor="middle" x="1118" y="-11.3" font-family="Times,serif" font-size="14.00" fill="#0058ad">r 81 [1 2 5 3 6 7 8 9 10 11 13 4 12 14 15 17 16 18 19 20 21 22 23 25 24 26 27 28 31 29 30 32 34 35 36 37 38 33]</text>
</g>
<!-- T15842&#45;&gt;T15844 -->
<g id="edge1" class="edge">
<title>T15842:f0&#45;&gt;T15844:f1</title>
<path fill="none" stroke="#5b00c0" d="M450.5,-81C450.5,58.505 752.5566,-161.4356 767.8954,-40.1837"/>
<polygon fill="#5b00c0" stroke="#5b00c0" points="771.4011,-40.1899 768.5,-30 764.4134,-39.775 771.4011,-40.1899"/>
<text text-anchor="middle" x="773" y="-51.8" font-family="Times,serif" font-size="14.00" fill="#5b00c0">rw</text>
</g>
<!-- T15844&#45;&gt;T15842 -->
<g id="edge2" class="edge">
<title>T15844:f0&#45;&gt;T15842:f2</title>
<path fill="none" stroke="#5b00c0" d="M418.5,-30C418.5,-50.3579 764.2554,-45.8554 784.5,-48 871.2514,-57.1897 977.3858,4.5564 985.9462,-70.5904"/>
<polygon fill="#5b00c0" stroke="#5b00c0" points="982.4736,-71.2001 986.5,-81 989.4637,-70.8282 982.4736,-71.2001"/>
<text text-anchor="middle" x="991" y="-51.8" font-family="Times,serif" font-size="14.00" fill="#5b00c0">rw</text>
</g>
</g>
</svg>
