<?xml version="1.0" encoding="UTF-8" standalone="no"?>
<!DOCTYPE svg PUBLIC "-//W3C//DTD SVG 1.1//EN"
 "http://www.w3.org/Graphics/SVG/1.1/DTD/svg11.dtd">
<!-- Generated by graphviz version 2.40.1 (20161225.0304)
 -->
<!-- Title: a_graph Pages: 1 -->
<svg width="3120pt" height="119pt"
 viewBox="0.00 0.00 3120.00 119.00" xmlns="http://www.w3.org/2000/svg" xmlns:xlink="http://www.w3.org/1999/xlink">
<g id="graph0" class="graph" transform="scale(1 1) rotate(0) translate(4 115)">
<title>a_graph</title>
<polygon fill="#ffffff" stroke="transparent" points="-4,4 -4,-115 3116,-115 3116,4 -4,4"/>
<!-- T13549 -->
<g id="node1" class="node">
<title>T13549</title>
<polygon fill="none" stroke="#0058ad" points="1182,-81.5 1182,-110.5 3112,-110.5 3112,-81.5 1182,-81.5"/>
<text text-anchor="middle" x="1214" y="-92.3" font-family="Times,serif" font-size="14.00" fill="#0058ad">a 65 124</text>
<polyline fill="none" stroke="#0058ad" points="1246,-81.5 1246,-110.5 "/>
<text text-anchor="middle" x="1498" y="-92.3" font-family="Times,serif" font-size="14.00" fill="#0058ad">r 69 [1 2 3 4 5 6 7 8 9 10 12 11 13 14 15 16 17 18 19 20 21 23 26 27 28 29 30 31 32 33]</text>
<polyline fill="none" stroke="#0058ad" points="1750,-81.5 1750,-110.5 "/>
<text text-anchor="middle" x="2399" y="-92.3" font-family="Times,serif" font-size="14.00" fill="#0058ad">r 71 [1 2 3 4 6 7 8 9 5 12 10 11 13 16 17 18 19 20 21 14 15 24 23 25 26 27 28 29 30 31 32 33 34 35 36 37 22 39 38 40 41 44 47 42 49 50 51 60 52 54 62 61 66 67 63 64 65 68 71 69 70 72 73 75 76 77 74 78 79 80 82 83 81 85 86 84]</text>
<polyline fill="none" stroke="#0058ad" points="3048,-81.5 3048,-110.5 "/>
<text text-anchor="middle" x="3080" y="-92.3" font-family="Times,serif" font-size="14.00" fill="#0058ad">a 65 125</text>
</g>
<!-- T13547 -->
<g id="node2" class="node">
<title>T13547</title>
<polygon fill="none" stroke="#0058ad" points="0,-.5 0,-29.5 2684,-29.5 2684,-.5 0,-.5"/>
<text text-anchor="middle" x="1061.5" y="-11.3" font-family="Times,serif" font-size="14.00" fill="#0058ad">r 65 [1 2 3 4 5 6 7 8 9 10 11 13 14 15 12 16 17 18 19 20 21 23 22 24 27 28 29 31 32 33 34 35 37 38 36 39 41 42 43 44 40 45 46 48 49 47 50 51 52 53 54 55 56 57 58 59 60 61 62 63 64 65 66 67 68 69 70 71 72 73 74 75 76 77 78 79 80 81 83 84 85 86 87 88 82 90 91 92 93 94 89 95 96 98 97 99 101 102 100 103 105 110 106 111 113 112 115 116 117 118 119 120 114 121 122 123]</text>
<polyline fill="none" stroke="#0058ad" points="2123,-.5 2123,-29.5 "/>
<text text-anchor="middle" x="2375" y="-11.3" font-family="Times,serif" font-size="14.00" fill="#0058ad">r 69 [1 2 3 4 5 6 7 8 9 10 12 11 13 14 15 16 17 18 19 20 21 23 26 27 28 29 30 31 32 33]</text>
<polyline fill="none" stroke="#0058ad" points="2627,-.5 2627,-29.5 "/>
<text text-anchor="middle" x="2655.5" y="-11.3" font-family="Times,serif" font-size="14.00" fill="#0058ad">a 71 87</text>
</g>
<!-- T13549&#45;&gt;T13547 -->
<g id="edge1" class="edge">
<title>T13549:f2&#45;&gt;T13547:f2</title>
<path fill="none" stroke="#5b00c0" d="M2399,-81C2399,31.8105 2640.1885,-135.3722 2655.2628,-40.0613"/>
<polygon fill="#5b00c0" stroke="#5b00c0" points="2658.7598,-40.2291 2656,-30 2651.7785,-39.7175 2658.7598,-40.2291"/>
<text text-anchor="middle" x="2658.5" y="-51.8" font-family="Times,serif" font-size="14.00" fill="#5b00c0">rw</text>
</g>
<!-- T13547&#45;&gt;T13549 -->
<g id="edge2" class="edge">
<title>T13547:f0&#45;&gt;T13549:f0</title>
<path fill="none" stroke="#5b00c0" d="M1061,-30C1061,-87.9076 1114.3867,-95.3123 1171.973,-95.949"/>
<polygon fill="#5b00c0" stroke="#5b00c0" points="1171.9823,-99.449 1182,-96 1172.018,-92.4491 1171.9823,-99.449"/>
<text text-anchor="middle" x="1076.5" y="-51.8" font-family="Times,serif" font-size="14.00" fill="#5b00c0">rw</text>
</g>
</g>
</svg>
