<?xml version="1.0" encoding="UTF-8" standalone="no"?>
<!DOCTYPE svg PUBLIC "-//W3C//DTD SVG 1.1//EN"
 "http://www.w3.org/Graphics/SVG/1.1/DTD/svg11.dtd">
<!-- Generated by graphviz version 2.40.1 (20161225.0304)
 -->
<!-- Title: a_graph Pages: 1 -->
<svg width="2186pt" height="119pt"
 viewBox="0.00 0.00 2186.00 119.00" xmlns="http://www.w3.org/2000/svg" xmlns:xlink="http://www.w3.org/1999/xlink">
<g id="graph0" class="graph" transform="scale(1 1) rotate(0) translate(4 115)">
<title>a_graph</title>
<polygon fill="#ffffff" stroke="transparent" points="-4,4 -4,-115 2182,-115 2182,4 -4,4"/>
<!-- T10965 -->
<g id="node1" class="node">
<title>T10965</title>
<polygon fill="none" stroke="#0058ad" points="592,-81.5 592,-110.5 1800,-110.5 1800,-81.5 592,-81.5"/>
<text text-anchor="middle" x="624" y="-92.3" font-family="Times,serif" font-size="14.00" fill="#0058ad">a 54 116</text>
<polyline fill="none" stroke="#0058ad" points="656,-81.5 656,-110.5 "/>
<text text-anchor="middle" x="942" y="-92.3" font-family="Times,serif" font-size="14.00" fill="#0058ad">r 57 [4 7 8 9 10 11 12 13 14 15 17 16 18 20 21 22 23 24 25 19 26 27 28 29 30 33 34 31 32 35 36 37]</text>
<polyline fill="none" stroke="#0058ad" points="1228,-81.5 1228,-110.5 "/>
<text text-anchor="middle" x="1514" y="-92.3" font-family="Times,serif" font-size="14.00" fill="#0058ad">r 57 [4 7 8 9 10 11 12 13 14 15 17 16 18 20 21 22 23 24 25 19 26 27 28 29 30 33 34 31 32 35 36 37]</text>
</g>
<!-- T10966 -->
<g id="node2" class="node">
<title>T10966</title>
<polygon fill="none" stroke="#0058ad" points="0,-.5 0,-29.5 2178,-29.5 2178,-.5 0,-.5"/>
<text text-anchor="middle" x="140" y="-11.3" font-family="Times,serif" font-size="14.00" fill="#0058ad">r 56 [1 2 3 4 5 6 7 8 9 10 11 12 13 14 16 17 18]</text>
<polyline fill="none" stroke="#0058ad" points="280,-.5 280,-29.5 "/>
<text text-anchor="middle" x="308.5" y="-11.3" font-family="Times,serif" font-size="14.00" fill="#0058ad">a 57 38</text>
<polyline fill="none" stroke="#0058ad" points="337,-.5 337,-29.5 "/>
<text text-anchor="middle" x="1257.5" y="-11.3" font-family="Times,serif" font-size="14.00" fill="#0058ad">r 54 [1 2 3 4 5 6 7 8 9 10 11 12 14 13 20 21 26 27 28 29 30 31 32 33 34 35 36 37 38 39 40 41 42 45 43 44 46 49 47 48 50 51 52 53 54 55 56 57 58 59 60 62 61 64 63 65 66 69 70 67 68 71 72 73 74 75 76 77 78 79 80 81 82 83 84 85 86 87 88 89 90 91 92 93 94 95 97 98 101 102 103 105 106 107 108 109 110 112 111 113 114 115]</text>
</g>
<!-- T10965&#45;&gt;T10966 -->
<g id="edge1" class="edge">
<title>T10965:f1&#45;&gt;T10966:f1</title>
<path fill="none" stroke="#5b00c0" d="M942,-81C942,21.8291 815.3774,-57.6279 713,-48 692.5913,-46.0807 373.8371,-51.4013 316.7257,-35.392"/>
<polygon fill="#5b00c0" stroke="#5b00c0" points="318.3468,-32.2794 308,-30 314.667,-38.2342 318.3468,-32.2794"/>
<text text-anchor="middle" x="946.5" y="-51.8" font-family="Times,serif" font-size="14.00" fill="#5b00c0">rw</text>
</g>
<!-- T10966&#45;&gt;T10965 -->
<g id="edge2" class="edge">
<title>T10966:f2&#45;&gt;T10965:f0</title>
<path fill="none" stroke="#5b00c0" d="M1258,-30C1258,-45.6746 709.2394,-44.3317 694,-48 664.3483,-55.1375 632.2431,-48.5203 625.3498,-70.9097"/>
<polygon fill="#5b00c0" stroke="#5b00c0" points="621.8569,-70.6242 624,-81 628.7951,-71.5524 621.8569,-70.6242"/>
<text text-anchor="middle" x="701.5" y="-51.8" font-family="Times,serif" font-size="14.00" fill="#5b00c0">rw</text>
</g>
</g>
</svg>
