<?xml version="1.0" encoding="UTF-8" standalone="no"?>
<!DOCTYPE svg PUBLIC "-//W3C//DTD SVG 1.1//EN"
 "http://www.w3.org/Graphics/SVG/1.1/DTD/svg11.dtd">
<!-- Generated by graphviz version 2.40.1 (20161225.0304)
 -->
<!-- Title: a_graph Pages: 1 -->
<svg width="1530pt" height="119pt"
 viewBox="0.00 0.00 1530.00 119.00" xmlns="http://www.w3.org/2000/svg" xmlns:xlink="http://www.w3.org/1999/xlink">
<g id="graph0" class="graph" transform="scale(1 1) rotate(0) translate(4 115)">
<title>a_graph</title>
<polygon fill="#ffffff" stroke="transparent" points="-4,4 -4,-115 1526,-115 1526,4 -4,4"/>
<!-- T545 -->
<g id="node1" class="node">
<title>T545</title>
<polygon fill="none" stroke="#0058ad" points="295,-81.5 295,-110.5 1389,-110.5 1389,-81.5 295,-81.5"/>
<text text-anchor="middle" x="323.5" y="-92.3" font-family="Times,serif" font-size="14.00" fill="#0058ad">a 10 43</text>
<polyline fill="none" stroke="#0058ad" points="352,-81.5 352,-110.5 "/>
<text text-anchor="middle" x="380.5" y="-92.3" font-family="Times,serif" font-size="14.00" fill="#0058ad">a 10 44</text>
<polyline fill="none" stroke="#0058ad" points="409,-81.5 409,-110.5 "/>
<text text-anchor="middle" x="754" y="-92.3" font-family="Times,serif" font-size="14.00" fill="#0058ad">r 7 [3 5 6 7 8 10 9 11 12 13 14 15 16 17 18 19 20 21 22 23 24 25 26 27 28 32 34 35 36 37 38 39 40 41 43 44 45 42 46 47]</text>
<polyline fill="none" stroke="#0058ad" points="1099,-81.5 1099,-110.5 "/>
<text text-anchor="middle" x="1244" y="-92.3" font-family="Times,serif" font-size="14.00" fill="#0058ad">r 6 [1 2 3 4 5 6 7 8 9 11 10 12 13 14 15 16 17 18]</text>
</g>
<!-- T547 -->
<g id="node2" class="node">
<title>T547</title>
<polygon fill="none" stroke="#0058ad" points="0,-.5 0,-29.5 1522,-29.5 1522,-.5 0,-.5"/>
<text text-anchor="middle" x="355.5" y="-11.3" font-family="Times,serif" font-size="14.00" fill="#0058ad">r 10 [2 3 4 5 1 6 7 8 9 10 11 12 13 14 15 16 17 18 19 20 21 22 23 24 25 26 27 28 29 30 31 32 33 34 35 36 37 38 39 40 41 42]</text>
<polyline fill="none" stroke="#0058ad" points="711,-.5 711,-29.5 "/>
<text text-anchor="middle" x="736" y="-11.3" font-family="Times,serif" font-size="14.00" fill="#0058ad">a 7 48</text>
<polyline fill="none" stroke="#0058ad" points="761,-.5 761,-29.5 "/>
<text text-anchor="middle" x="786" y="-11.3" font-family="Times,serif" font-size="14.00" fill="#0058ad">a 7 49</text>
<polyline fill="none" stroke="#0058ad" points="811,-.5 811,-29.5 "/>
<text text-anchor="middle" x="1166.5" y="-11.3" font-family="Times,serif" font-size="14.00" fill="#0058ad">r 10 [2 3 4 5 1 6 7 8 9 10 11 12 13 14 15 16 17 18 19 20 21 22 23 24 25 26 27 28 29 30 31 32 33 34 35 36 37 38 39 40 41 42]</text>
</g>
<!-- T545&#45;&gt;T547 -->
<g id="edge1" class="edge">
<title>T545:f2&#45;&gt;T547:f1</title>
<path fill="none" stroke="#5b00c0" d="M754,-81C754,-60.9066 741.4218,-55.5653 737.2945,-40.3125"/>
<polygon fill="#5b00c0" stroke="#5b00c0" points="740.7183,-39.4862 736,-30 733.7729,-40.3581 740.7183,-39.4862"/>
<text text-anchor="middle" x="757.5" y="-51.8" font-family="Times,serif" font-size="14.00" fill="#5b00c0">rw</text>
</g>
<!-- T547&#45;&gt;T545 -->
<g id="edge2" class="edge">
<title>T547:f0&#45;&gt;T545:f0</title>
<path fill="none" stroke="#5b00c0" d="M355,-30C355,-52.787 331.7949,-54.3434 324.9059,-70.8276"/>
<polygon fill="#5b00c0" stroke="#5b00c0" points="321.4015,-70.5265 323,-81 328.2818,-71.8156 321.4015,-70.5265"/>
<text text-anchor="middle" x="355.5" y="-51.8" font-family="Times,serif" font-size="14.00" fill="#5b00c0">rw</text>
</g>
</g>
</svg>
