<?xml version="1.0" encoding="UTF-8" standalone="no"?>
<!DOCTYPE svg PUBLIC "-//W3C//DTD SVG 1.1//EN"
 "http://www.w3.org/Graphics/SVG/1.1/DTD/svg11.dtd">
<!-- Generated by graphviz version 2.40.1 (20161225.0304)
 -->
<!-- Title: a_graph Pages: 1 -->
<svg width="5549pt" height="200pt"
 viewBox="0.00 0.00 5548.50 200.00" xmlns="http://www.w3.org/2000/svg" xmlns:xlink="http://www.w3.org/1999/xlink">
<g id="graph0" class="graph" transform="scale(1 1) rotate(0) translate(4 196)">
<title>a_graph</title>
<polygon fill="#ffffff" stroke="transparent" points="-4,4 -4,-196 5544.5,-196 5544.5,4 -4,4"/>
<!-- T12669 -->
<g id="node1" class="node">
<title>T12669</title>
<polygon fill="none" stroke="#0058ad" points="2267,-162.5 2267,-191.5 4348,-191.5 4348,-162.5 2267,-162.5"/>
<text text-anchor="middle" x="3307.5" y="-173.3" font-family="Times,serif" font-size="14.00" fill="#0058ad">r 62 [4 3 6 7 8 5 9 10 12 11 14 13 15 17 16 18 19 20 21 22 23 24 25 26 28 29 30 27 31 32 33 34 35 36 37 38 39 40 41 42 43 44 45 46 48 49 50 51 47 52 53 54 55 56 57 58 59 60 61 62 63 64 65 66 70 71 67 74 79 77 80 81 82 83 84 85 86 87 89 90 91 88 92 93 94 95 96 97 99 100 101 102 103 98 105 104 106 107 108 109 110 111 112 113 114 115 116 117 119 120 118 121]</text>
</g>
<!-- T12671 -->
<g id="node3" class="node">
<title>T12671</title>
<polygon fill="none" stroke="#0058ad" points="0,-81.5 0,-110.5 4465,-110.5 4465,-81.5 0,-81.5"/>
<text text-anchor="middle" x="1040.5" y="-92.3" font-family="Times,serif" font-size="14.00" fill="#0058ad">r 62 [4 3 6 7 8 5 9 10 12 11 14 13 15 17 16 18 19 20 21 22 23 24 25 26 28 29 30 27 31 32 33 34 35 36 37 38 39 40 41 42 43 44 45 46 48 49 50 51 47 52 53 54 55 56 57 58 59 60 61 62 63 64 65 66 70 71 67 74 79 77 80 81 82 83 84 85 86 87 89 90 91 88 92 93 94 95 96 97 99 100 101 102 103 98 105 104 106 107 108 109 110 111 112 113 114 115 116 117 119 120 118 121]</text>
<polyline fill="none" stroke="#0058ad" points="2081,-81.5 2081,-110.5 "/>
<text text-anchor="middle" x="2113" y="-92.3" font-family="Times,serif" font-size="14.00" fill="#0058ad">a 62 122</text>
<polyline fill="none" stroke="#0058ad" points="2145,-81.5 2145,-110.5 "/>
<text text-anchor="middle" x="2725" y="-92.3" font-family="Times,serif" font-size="14.00" fill="#0058ad">r 64 [1 2 3 5 6 7 8 9 4 10 11 12 14 15 13 16 17 20 21 22 24 25 18 19 26 27 28 29 30 32 33 34 35 36 23 37 31 38 39 40 41 42 44 45 46 43 47 48 49 51 50 52 53 54 55 56 59 57 58 60 61 63 64 65 66 62 67 68]</text>
<polyline fill="none" stroke="#0058ad" points="3305,-81.5 3305,-110.5 "/>
<text text-anchor="middle" x="3885" y="-92.3" font-family="Times,serif" font-size="14.00" fill="#0058ad">r 64 [1 2 3 5 6 7 8 9 4 10 11 12 14 15 13 16 17 20 21 22 24 25 18 19 26 27 28 29 30 32 33 34 35 36 23 37 31 38 39 40 41 42 44 45 46 43 47 48 49 51 50 52 53 54 55 56 59 57 58 60 61 63 64 65 66 62 67 68]</text>
</g>
<!-- T12669&#45;&gt;T12671 -->
<g id="edge1" class="edge">
<title>T12669:f0&#45;&gt;T12671:f1</title>
<path fill="none" stroke="#5b00c0" d="M2522.0793,-162.4924C2322.1417,-154.0032 2153.4594,-140.5473 2118.9519,-119.2193"/>
<polygon fill="#5b00c0" stroke="#5b00c0" points="2121.4278,-116.7049 2112.5,-111 2115.9216,-121.0272 2121.4278,-116.7049"/>
<text text-anchor="middle" x="2245" y="-132.8" font-family="Times,serif" font-size="14.00" fill="#5b00c0">rw</text>
</g>
<!-- T12667 -->
<g id="node2" class="node">
<title>T12667</title>
<polygon fill="none" stroke="#0058ad" points="2692.5,-.5 2692.5,-29.5 5540.5,-29.5 5540.5,-.5 2692.5,-.5"/>
<text text-anchor="middle" x="3272.5" y="-11.3" font-family="Times,serif" font-size="14.00" fill="#0058ad">r 64 [1 2 3 5 6 7 8 9 4 10 11 12 14 15 13 16 17 20 21 22 24 25 18 19 26 27 28 29 30 32 33 34 35 36 23 37 31 38 39 40 41 42 44 45 46 43 47 48 49 51 50 52 53 54 55 56 59 57 58 60 61 63 64 65 66 62 67 68]</text>
<polyline fill="none" stroke="#0058ad" points="3852.5,-.5 3852.5,-29.5 "/>
<text text-anchor="middle" x="3881" y="-11.3" font-family="Times,serif" font-size="14.00" fill="#0058ad">a 64 69</text>
<polyline fill="none" stroke="#0058ad" points="3909.5,-.5 3909.5,-29.5 "/>
<text text-anchor="middle" x="4696.5" y="-11.3" font-family="Times,serif" font-size="14.00" fill="#0058ad">r 60 [1 2 4 5 3 7 8 9 6 10 11 12 13 14 16 15 17 18 19 20 21 22 23 24 25 26 27 29 30 31 32 33 34 36 37 38 39 40 41 42 43 44 45 46 47 48 49 51 50 52 53 54 55 56 57 58 59 60 61 62 63 64 65 66 67 68 69 70 71 73 74 77 78 79 80 81 82 83 84 85 86 87 88 89 90 91 92 93 95 94 96 97]</text>
<polyline fill="none" stroke="#0058ad" points="5483.5,-.5 5483.5,-29.5 "/>
<text text-anchor="middle" x="5512" y="-11.3" font-family="Times,serif" font-size="14.00" fill="#0058ad">a 64 70</text>
</g>
<!-- T12667&#45;&gt;T12669 -->
<g id="edge2" class="edge">
<title>T12667&#45;&gt;T12669</title>
<path fill="none" stroke="#0050c0" d="M4315.1542,-29.5044C4385.1,-39.0754 4451.7806,-54.8972 4473.5,-81 4482.0282,-91.2493 4482.6578,-101.3092 4473.5,-111 4450.9098,-134.9051 4151.5883,-151.5343 3861.9066,-162.1212"/>
<polygon fill="#0050c0" stroke="#0050c0" points="3861.4726,-158.6346 3851.6062,-162.4953 3861.7267,-165.63 3861.4726,-158.6346"/>
<text text-anchor="middle" x="4485" y="-92.3" font-family="Times,serif" font-size="14.00" fill="#0050c0">rt</text>
</g>
<!-- T12671&#45;&gt;T12667 -->
<g id="edge3" class="edge">
<title>T12671:f2&#45;&gt;T12667:f1</title>
<path fill="none" stroke="#5b00c0" d="M2725.5,-81C2725.5,172.4042 3849.1339,-274.3957 3879.8582,-40.1377"/>
<polygon fill="#5b00c0" stroke="#5b00c0" points="3883.3611,-40.2012 3880.5,-30 3876.3751,-39.7589 3883.3611,-40.2012"/>
<text text-anchor="middle" x="3883" y="-51.8" font-family="Times,serif" font-size="14.00" fill="#5b00c0">rw</text>
</g>
</g>
</svg>
