<?xml version="1.0" encoding="UTF-8" standalone="no"?>
<!DOCTYPE svg PUBLIC "-//W3C//DTD SVG 1.1//EN"
 "http://www.w3.org/Graphics/SVG/1.1/DTD/svg11.dtd">
<!-- Generated by graphviz version 2.40.1 (20161225.0304)
 -->
<!-- Title: a_graph Pages: 1 -->
<svg width="905pt" height="119pt"
 viewBox="0.00 0.00 905.00 119.00" xmlns="http://www.w3.org/2000/svg" xmlns:xlink="http://www.w3.org/1999/xlink">
<g id="graph0" class="graph" transform="scale(1 1) rotate(0) translate(4 115)">
<title>a_graph</title>
<polygon fill="#ffffff" stroke="transparent" points="-4,4 -4,-115 901,-115 901,4 -4,4"/>
<!-- T21057 -->
<g id="node1" class="node">
<title>T21057</title>
<polygon fill="none" stroke="#0058ad" points="0,-81.5 0,-110.5 897,-110.5 897,-81.5 0,-81.5"/>
<text text-anchor="middle" x="32" y="-92.3" font-family="Times,serif" font-size="14.00" fill="#0058ad">a 107 19</text>
<polyline fill="none" stroke="#0058ad" points="64,-81.5 64,-110.5 "/>
<text text-anchor="middle" x="348.5" y="-92.3" font-family="Times,serif" font-size="14.00" fill="#0058ad">r 104 [1 2 3 4 5 7 8 9 10 11 12 13 14 15 16 17 18 19 20 21 22 23 24 25 26 27 28 29 30 31 32 33 34]</text>
<polyline fill="none" stroke="#0058ad" points="633,-81.5 633,-110.5 "/>
<text text-anchor="middle" x="665" y="-92.3" font-family="Times,serif" font-size="14.00" fill="#0058ad">a 108 12</text>
<polyline fill="none" stroke="#0058ad" points="697,-81.5 697,-110.5 "/>
<text text-anchor="middle" x="797" y="-92.3" font-family="Times,serif" font-size="14.00" fill="#0058ad">r 108 [1 2 3 4 5 6 7 8 9 10 11 12]</text>
</g>
<!-- T21052 -->
<g id="node2" class="node">
<title>T21052</title>
<polygon fill="none" stroke="#0058ad" points="461,-.5 461,-29.5 708,-29.5 708,-.5 461,-.5"/>
<text text-anchor="middle" x="493" y="-11.3" font-family="Times,serif" font-size="14.00" fill="#0058ad">a 104 35</text>
<polyline fill="none" stroke="#0058ad" points="525,-.5 525,-29.5 "/>
<text text-anchor="middle" x="616.5" y="-11.3" font-family="Times,serif" font-size="14.00" fill="#0058ad">r 108 [1 2 3 4 5 6 7 8 9 10 11]</text>
</g>
<!-- T21057&#45;&gt;T21052 -->
<g id="edge1" class="edge">
<title>T21057:f1&#45;&gt;T21052:f0</title>
<path fill="none" stroke="#5b00c0" d="M348.5,-81C348.5,-26.6076 396.5542,-16.1337 450.3906,-15.093"/>
<polygon fill="#5b00c0" stroke="#5b00c0" points="450.5327,-18.5919 460.5,-15 450.4682,-11.5922 450.5327,-18.5919"/>
<text text-anchor="middle" x="364" y="-51.8" font-family="Times,serif" font-size="14.00" fill="#5b00c0">rw</text>
</g>
<!-- T21052&#45;&gt;T21057 -->
<g id="edge2" class="edge">
<title>T21052:f1&#45;&gt;T21057:f2</title>
<path fill="none" stroke="#5b00c0" d="M616.5,-30C616.5,-57.5041 654.0156,-51.8568 663.3945,-71.0731"/>
<polygon fill="#5b00c0" stroke="#5b00c0" points="660.0013,-71.9438 665.5,-81 666.8489,-70.4914 660.0013,-71.9438"/>
<text text-anchor="middle" x="663" y="-51.8" font-family="Times,serif" font-size="14.00" fill="#5b00c0">rw</text>
</g>
</g>
</svg>
