<?xml version="1.0" encoding="UTF-8" standalone="no"?>
<!DOCTYPE svg PUBLIC "-//W3C//DTD SVG 1.1//EN"
 "http://www.w3.org/Graphics/SVG/1.1/DTD/svg11.dtd">
<!-- Generated by graphviz version 2.40.1 (20161225.0304)
 -->
<!-- Title: a_graph Pages: 1 -->
<svg width="2245pt" height="119pt"
 viewBox="0.00 0.00 2245.00 119.00" xmlns="http://www.w3.org/2000/svg" xmlns:xlink="http://www.w3.org/1999/xlink">
<g id="graph0" class="graph" transform="scale(1 1) rotate(0) translate(4 115)">
<title>a_graph</title>
<polygon fill="#ffffff" stroke="transparent" points="-4,4 -4,-115 2241,-115 2241,4 -4,4"/>
<!-- T15217 -->
<g id="node1" class="node">
<title>T15217</title>
<polygon fill="none" stroke="#0058ad" points="0,-81.5 0,-110.5 2237,-110.5 2237,-81.5 0,-81.5"/>
<text text-anchor="middle" x="28.5" y="-92.3" font-family="Times,serif" font-size="14.00" fill="#0058ad">a 78 88</text>
<polyline fill="none" stroke="#0058ad" points="57,-81.5 57,-110.5 "/>
<text text-anchor="middle" x="1147" y="-92.3" font-family="Times,serif" font-size="14.00" fill="#0058ad">r 75 [1 4 2 5 6 7 8 9 10 12 13 14 15 11 16 17 18 19 20 21 22 23 24 25 26 28 29 27 31 32 30 34 33 36 37 35 38 39 40 41 42 44 46 45 47 48 43 49 50 51 52 53 54 55 56 57 58 59 60 61 62 63 64 65 66 67 68 69 70 71 72 73 74 76 75 79 81 82 83 84 80 77 86 91 92 93 94 95 96 97 98 99 100 101 102 103 104 105 106 107 108 109 110 111 112 114 113 115 116 117 118 119 121 122 123 120 125]</text>
</g>
<!-- T15219 -->
<g id="node2" class="node">
<title>T15219</title>
<polygon fill="none" stroke="#0058ad" points="186,-.5 186,-29.5 1611,-29.5 1611,-.5 186,-.5"/>
<text text-anchor="middle" x="218" y="-11.3" font-family="Times,serif" font-size="14.00" fill="#0058ad">a 75 126</text>
<polyline fill="none" stroke="#0058ad" points="250,-.5 250,-29.5 "/>
<text text-anchor="middle" x="278.5" y="-11.3" font-family="Times,serif" font-size="14.00" fill="#0058ad">a 70 78</text>
<polyline fill="none" stroke="#0058ad" points="307,-.5 307,-29.5 "/>
<text text-anchor="middle" x="959" y="-11.3" font-family="Times,serif" font-size="14.00" fill="#0058ad">r 78 [1 2 3 4 5 6 7 11 8 17 18 19 20 21 22 25 14 30 31 28 29 32 33 34 35 36 37 39 38 41 42 43 44 45 46 47 48 51 52 53 40 49 50 54 55 56 57 58 59 60 61 62 63 64 66 67 65 68 69 70 71 72 73 74 75 77 78 79 80 76 82 83 84 85 81 87]</text>
</g>
<!-- T15217&#45;&gt;T15219 -->
<g id="edge1" class="edge">
<title>T15217:f1&#45;&gt;T15219:f0</title>
<path fill="none" stroke="#5b00c0" d="M1147.5,-81C1147.5,-56.6438 323.2915,-55.8763 226.7045,-34.2844"/>
<polygon fill="#5b00c0" stroke="#5b00c0" points="228.043,-31.0469 217.5,-30 225.089,-37.3931 228.043,-31.0469"/>
<text text-anchor="middle" x="930" y="-51.8" font-family="Times,serif" font-size="14.00" fill="#5b00c0">rw</text>
</g>
<!-- T15219&#45;&gt;T15217 -->
<g id="edge2" class="edge">
<title>T15219:f2&#45;&gt;T15217:f0</title>
<path fill="none" stroke="#5b00c0" d="M959.5,-30C959.5,-44.925 437.3995,-47.1269 422.5,-48 338.3859,-52.9292 53.2575,2.0497 30.0096,-70.9204"/>
<polygon fill="#5b00c0" stroke="#5b00c0" points="26.5198,-70.5919 28.5,-81 33.4426,-71.6287 26.5198,-70.5919"/>
<text text-anchor="middle" x="430" y="-51.8" font-family="Times,serif" font-size="14.00" fill="#5b00c0">rw</text>
</g>
</g>
</svg>
