<?xml version="1.0" encoding="UTF-8" standalone="no"?>
<!DOCTYPE svg PUBLIC "-//W3C//DTD SVG 1.1//EN"
 "http://www.w3.org/Graphics/SVG/1.1/DTD/svg11.dtd">
<!-- Generated by graphviz version 2.40.1 (20161225.0304)
 -->
<!-- Title: a_graph Pages: 1 -->
<svg width="1930pt" height="200pt"
 viewBox="0.00 0.00 1929.50 200.00" xmlns="http://www.w3.org/2000/svg" xmlns:xlink="http://www.w3.org/1999/xlink">
<g id="graph0" class="graph" transform="scale(1 1) rotate(0) translate(4 196)">
<title>a_graph</title>
<polygon fill="#ffffff" stroke="transparent" points="-4,4 -4,-196 1925.5,-196 1925.5,4 -4,4"/>
<!-- T4945 -->
<g id="node1" class="node">
<title>T4945</title>
<polygon fill="none" stroke="#0058ad" points="515.5,-162.5 515.5,-191.5 1921.5,-191.5 1921.5,-162.5 515.5,-162.5"/>
<text text-anchor="middle" x="544" y="-173.3" font-family="Times,serif" font-size="14.00" fill="#0058ad">a 27 72</text>
<polyline fill="none" stroke="#0058ad" points="572.5,-162.5 572.5,-191.5 "/>
<text text-anchor="middle" x="1247" y="-173.3" font-family="Times,serif" font-size="14.00" fill="#0058ad">r 28 [1 2 3 4 5 8 9 10 6 7 11 13 14 15 16 12 17 18 19 20 21 22 23 24 26 25 27 28 29 30 31 32 33 34 35 36 37 40 41 42 43 46 44 45 38 39 50 47 48 49 53 52 51 55 56 57 58 59 60 61 62 63 64 65 67 68 54 66 69 70 72 73 76 77 78 74 75 71 79]</text>
</g>
<!-- T4947 -->
<g id="node3" class="node">
<title>T4947</title>
<polygon fill="none" stroke="#0058ad" points="1117,-81.5 1117,-110.5 1266,-110.5 1266,-81.5 1117,-81.5"/>
<text text-anchor="middle" x="1191.5" y="-92.3" font-family="Times,serif" font-size="14.00" fill="#0058ad">r 29 [1 2 3 5 6 7 4 8 10]</text>
</g>
<!-- T4945&#45;&gt;T4947 -->
<g id="edge1" class="edge">
<title>T4945&#45;&gt;T4947</title>
<path fill="none" stroke="#0050c0" d="M1213.5478,-162.1434C1209.6657,-150.497 1204.1815,-134.0446 1199.6541,-120.4623"/>
<polygon fill="#0050c0" stroke="#0050c0" points="1202.9036,-119.1425 1196.4208,-110.7625 1196.2628,-121.3561 1202.9036,-119.1425"/>
<text text-anchor="middle" x="1211" y="-132.8" font-family="Times,serif" font-size="14.00" fill="#0050c0">rt</text>
</g>
<!-- T4949 -->
<g id="node2" class="node">
<title>T4949</title>
<polygon fill="none" stroke="#0058ad" points="0,-.5 0,-29.5 1197,-29.5 1197,-.5 0,-.5"/>
<text text-anchor="middle" x="548.5" y="-11.3" font-family="Times,serif" font-size="14.00" fill="#0058ad">r 27 [1 2 3 4 5 6 7 9 10 13 14 16 18 19 22 23 24 25 26 27 28 29 30 31 32 33 34 36 38 35 39 40 37 41 42 43 44 45 47 46 48 50 49 51 52 53 54 55 58 56 57 59 60 61 62 63 64 65 67 68 66 70 71 69]</text>
<polyline fill="none" stroke="#0058ad" points="1097,-.5 1097,-29.5 "/>
<text text-anchor="middle" x="1122" y="-11.3" font-family="Times,serif" font-size="14.00" fill="#0058ad">a 3 33</text>
<polyline fill="none" stroke="#0058ad" points="1147,-.5 1147,-29.5 "/>
<text text-anchor="middle" x="1172" y="-11.3" font-family="Times,serif" font-size="14.00" fill="#0058ad">a 29 9</text>
</g>
<!-- T4949&#45;&gt;T4945 -->
<g id="edge2" class="edge">
<title>T4949:f0&#45;&gt;T4945:f0</title>
<path fill="none" stroke="#5b00c0" d="M548.5,-30C548.5,-85.1541 544.0871,-101.3636 543.5528,-151.8018"/>
<polygon fill="#5b00c0" stroke="#5b00c0" points="540.0519,-151.982 543.5,-162 547.0518,-152.0183 540.0519,-151.982"/>
<text text-anchor="middle" x="555" y="-92.3" font-family="Times,serif" font-size="14.00" fill="#5b00c0">rw</text>
</g>
<!-- T4947&#45;&gt;T4949 -->
<g id="edge3" class="edge">
<title>T4947:f0&#45;&gt;T4949:f2</title>
<path fill="none" stroke="#5b00c0" d="M1184.7478,-81.4047C1180.3106,-70.7204 1174.9984,-55.5064 1173.1623,-40.3914"/>
<polygon fill="#5b00c0" stroke="#5b00c0" points="1176.6291,-39.7571 1172.5,-30 1169.6432,-40.2024 1176.6291,-39.7571"/>
<text text-anchor="middle" x="1185" y="-51.8" font-family="Times,serif" font-size="14.00" fill="#5b00c0">rw</text>
</g>
</g>
</svg>
