<?xml version="1.0" encoding="UTF-8" standalone="no"?>
<!DOCTYPE svg PUBLIC "-//W3C//DTD SVG 1.1//EN"
 "http://www.w3.org/Graphics/SVG/1.1/DTD/svg11.dtd">
<!-- Generated by graphviz version 2.40.1 (20161225.0304)
 -->
<!-- Title: a_graph Pages: 1 -->
<svg width="1031pt" height="119pt"
 viewBox="0.00 0.00 1031.00 119.00" xmlns="http://www.w3.org/2000/svg" xmlns:xlink="http://www.w3.org/1999/xlink">
<g id="graph0" class="graph" transform="scale(1 1) rotate(0) translate(4 115)">
<title>a_graph</title>
<polygon fill="#ffffff" stroke="transparent" points="-4,4 -4,-115 1027,-115 1027,4 -4,4"/>
<!-- T501 -->
<g id="node1" class="node">
<title>T501</title>
<polygon fill="none" stroke="#0058ad" points="33,-81.5 33,-110.5 1023,-110.5 1023,-81.5 33,-81.5"/>
<text text-anchor="middle" x="268" y="-92.3" font-family="Times,serif" font-size="14.00" fill="#0058ad">r 10 [2 3 4 5 1 6 7 8 9 10 11 12 13 14 15 16 17 18 19 20 21 22 23 24 25 26 27 28]</text>
<polyline fill="none" stroke="#0058ad" points="503,-81.5 503,-110.5 "/>
<text text-anchor="middle" x="528" y="-92.3" font-family="Times,serif" font-size="14.00" fill="#0058ad">a 6 17</text>
<polyline fill="none" stroke="#0058ad" points="553,-81.5 553,-110.5 "/>
<text text-anchor="middle" x="788" y="-92.3" font-family="Times,serif" font-size="14.00" fill="#0058ad">r 10 [2 3 4 5 1 6 7 8 9 10 11 12 13 14 15 16 17 18 19 20 21 22 23 24 25 26 27 28]</text>
</g>
<!-- T503 -->
<g id="node2" class="node">
<title>T503</title>
<polygon fill="none" stroke="#0058ad" points="0,-.5 0,-29.5 800,-29.5 800,-.5 0,-.5"/>
<text text-anchor="middle" x="28.5" y="-11.3" font-family="Times,serif" font-size="14.00" fill="#0058ad">a 10 29</text>
<polyline fill="none" stroke="#0058ad" points="57,-.5 57,-29.5 "/>
<text text-anchor="middle" x="300.5" y="-11.3" font-family="Times,serif" font-size="14.00" fill="#0058ad">r 10 [2 3 4 5 1 6 7 8 9 10 11 12 13 14 15 16 17 18 19 20 21 22 23 24 25 26 27 28 29]</text>
<polyline fill="none" stroke="#0058ad" points="544,-.5 544,-29.5 "/>
<text text-anchor="middle" x="672" y="-11.3" font-family="Times,serif" font-size="14.00" fill="#0058ad">r 6 [1 2 3 4 5 6 7 8 9 11 10 12 13 14 15 16]</text>
</g>
<!-- T501&#45;&gt;T503 -->
<g id="edge1" class="edge">
<title>T501:f0&#45;&gt;T503:f0</title>
<path fill="none" stroke="#5b00c0" d="M33,-96C6.9151,-96 23.1588,-67.2362 27.1737,-40.2096"/>
<polygon fill="#5b00c0" stroke="#5b00c0" points="30.6818,-40.2498 28,-30 23.7046,-39.685 30.6818,-40.2498"/>
<text text-anchor="middle" x="33.5" y="-51.8" font-family="Times,serif" font-size="14.00" fill="#5b00c0">rw</text>
</g>
<!-- T503&#45;&gt;T501 -->
<g id="edge2" class="edge">
<title>T503:f2&#45;&gt;T501:f1</title>
<path fill="none" stroke="#5b00c0" d="M672,-30C672,-94.0497 543.8505,-22.22 529.3336,-70.8771"/>
<polygon fill="#5b00c0" stroke="#5b00c0" points="525.8362,-70.6285 528,-81 532.7762,-71.5428 525.8362,-70.6285"/>
<text text-anchor="middle" x="673.5" y="-51.8" font-family="Times,serif" font-size="14.00" fill="#5b00c0">rw</text>
</g>
</g>
</svg>
