<?xml version="1.0" encoding="UTF-8" standalone="no"?>
<!DOCTYPE svg PUBLIC "-//W3C//DTD SVG 1.1//EN"
 "http://www.w3.org/Graphics/SVG/1.1/DTD/svg11.dtd">
<!-- Generated by graphviz version 2.40.1 (20161225.0304)
 -->
<!-- Title: a_graph Pages: 1 -->
<svg width="2938pt" height="119pt"
 viewBox="0.00 0.00 2938.00 119.00" xmlns="http://www.w3.org/2000/svg" xmlns:xlink="http://www.w3.org/1999/xlink">
<g id="graph0" class="graph" transform="scale(1 1) rotate(0) translate(4 115)">
<title>a_graph</title>
<polygon fill="#ffffff" stroke="transparent" points="-4,4 -4,-115 2934,-115 2934,4 -4,4"/>
<!-- T11599 -->
<g id="node1" class="node">
<title>T11599</title>
<polygon fill="none" stroke="#0058ad" points="59.5,-81.5 59.5,-110.5 2002.5,-110.5 2002.5,-81.5 59.5,-81.5"/>
<text text-anchor="middle" x="88" y="-92.3" font-family="Times,serif" font-size="14.00" fill="#0058ad">a 56 47</text>
<polyline fill="none" stroke="#0058ad" points="116.5,-81.5 116.5,-110.5 "/>
<text text-anchor="middle" x="145" y="-92.3" font-family="Times,serif" font-size="14.00" fill="#0058ad">a 58 93</text>
<polyline fill="none" stroke="#0058ad" points="173.5,-81.5 173.5,-110.5 "/>
<text text-anchor="middle" x="202" y="-92.3" font-family="Times,serif" font-size="14.00" fill="#0058ad">a 58 94</text>
<polyline fill="none" stroke="#0058ad" points="230.5,-81.5 230.5,-110.5 "/>
<text text-anchor="middle" x="1116.5" y="-92.3" font-family="Times,serif" font-size="14.00" fill="#0058ad">r 59 [1 2 3 4 7 6 5 8 9 10 12 13 14 15 16 18 17 21 22 19 23 28 27 31 32 33 34 36 35 37 38 39 40 41 42 45 43 44 47 48 49 50 46 51 52 53 56 54 55 58 59 57 64 65 60 61 62 66 67 68 69 72 70 71 63 75 73 74 77 78 76 80 81 82 84 79 85 86 87 88 89 90 92 93 91 94 95 83 97 98 99 100 101 102 103 104 105 106 107 108]</text>
</g>
<!-- T11597 -->
<g id="node2" class="node">
<title>T11597</title>
<polygon fill="none" stroke="#0058ad" points="0,-.5 0,-29.5 2930,-29.5 2930,-.5 0,-.5"/>
<text text-anchor="middle" x="32" y="-11.3" font-family="Times,serif" font-size="14.00" fill="#0058ad">a 59 109</text>
<polyline fill="none" stroke="#0058ad" points="64,-.5 64,-29.5 "/>
<text text-anchor="middle" x="764.5" y="-11.3" font-family="Times,serif" font-size="14.00" fill="#0058ad">r 58 [1 2 3 4 5 7 8 6 9 10 11 13 14 15 12 16 17 19 18 20 21 22 23 25 26 24 27 30 33 34 31 32 28 29 35 36 37 39 41 47 48 49 50 53 54 55 56 57 58 59 60 61 62 63 65 64 66 67 68 69 70 71 72 73 74 75 76 78 77 79 80 81 83 84 85 86 87 88 82 90 91 92]</text>
<polyline fill="none" stroke="#0058ad" points="1465,-.5 1465,-29.5 "/>
<text text-anchor="middle" x="1497" y="-11.3" font-family="Times,serif" font-size="14.00" fill="#0058ad">a 59 110</text>
<polyline fill="none" stroke="#0058ad" points="1529,-.5 1529,-29.5 "/>
<text text-anchor="middle" x="2229.5" y="-11.3" font-family="Times,serif" font-size="14.00" fill="#0058ad">r 58 [1 2 3 4 5 7 8 6 9 10 11 13 14 15 12 16 17 19 18 20 21 22 23 25 26 24 27 30 33 34 31 32 28 29 35 36 37 39 41 47 48 49 50 53 54 55 56 57 58 59 60 61 62 63 65 64 66 67 68 69 70 71 72 73 74 75 76 78 77 79 80 81 83 84 85 86 87 88 82 90 91 92]</text>
</g>
<!-- T11599&#45;&gt;T11597 -->
<g id="edge1" class="edge">
<title>T11599:f3&#45;&gt;T11597:f0</title>
<path fill="none" stroke="#5b00c0" d="M1117,-81C1117,-77.4421 151.4293,-38.5671 42.0482,-31.0084"/>
<polygon fill="#5b00c0" stroke="#5b00c0" points="42.2995,-27.5161 32,-30 41.6005,-34.4811 42.2995,-27.5161"/>
<text text-anchor="middle" x="742.5" y="-51.8" font-family="Times,serif" font-size="14.00" fill="#5b00c0">rw</text>
</g>
<!-- T11597&#45;&gt;T11599 -->
<g id="edge2" class="edge">
<title>T11597:f1&#45;&gt;T11599:f1</title>
<path fill="none" stroke="#5b00c0" d="M764,-30C764,-50.5799 414.4962,-46.1465 394,-48 286.4023,-57.7302 153.8552,25.0206 145.4239,-70.8214"/>
<polygon fill="#5b00c0" stroke="#5b00c0" points="141.9192,-70.863 145,-81 148.9132,-71.1543 141.9192,-70.863"/>
<text text-anchor="middle" x="401.5" y="-51.8" font-family="Times,serif" font-size="14.00" fill="#5b00c0">rw</text>
</g>
</g>
</svg>
