<?xml version="1.0" encoding="UTF-8" standalone="no"?>
<!DOCTYPE svg PUBLIC "-//W3C//DTD SVG 1.1//EN"
 "http://www.w3.org/Graphics/SVG/1.1/DTD/svg11.dtd">
<!-- Generated by graphviz version 2.40.1 (20161225.0304)
 -->
<!-- Title: a_graph Pages: 1 -->
<svg width="1616pt" height="119pt"
 viewBox="0.00 0.00 1615.50 119.00" xmlns="http://www.w3.org/2000/svg" xmlns:xlink="http://www.w3.org/1999/xlink">
<g id="graph0" class="graph" transform="scale(1 1) rotate(0) translate(4 115)">
<title>a_graph</title>
<polygon fill="#ffffff" stroke="transparent" points="-4,4 -4,-115 1611.5,-115 1611.5,4 -4,4"/>
<!-- T15167 -->
<g id="node1" class="node">
<title>T15167</title>
<polygon fill="none" stroke="#0058ad" points="714.5,-81.5 714.5,-110.5 1607.5,-110.5 1607.5,-81.5 714.5,-81.5"/>
<text text-anchor="middle" x="743" y="-92.3" font-family="Times,serif" font-size="14.00" fill="#0058ad">a 78 71</text>
<polyline fill="none" stroke="#0058ad" points="771.5,-81.5 771.5,-110.5 "/>
<text text-anchor="middle" x="980.5" y="-92.3" font-family="Times,serif" font-size="14.00" fill="#0058ad">r 77 [1 2 3 4 5 6 7 8 9 10 18 21 22 23 24 25 26 27 28 29 30 31 32 33 34]</text>
<polyline fill="none" stroke="#0058ad" points="1189.5,-81.5 1189.5,-110.5 "/>
<text text-anchor="middle" x="1398.5" y="-92.3" font-family="Times,serif" font-size="14.00" fill="#0058ad">r 77 [1 2 3 4 5 6 7 8 9 10 18 21 22 23 24 25 26 27 28 29 30 31 32 33 34]</text>
</g>
<!-- T15168 -->
<g id="node2" class="node">
<title>T15168</title>
<polygon fill="none" stroke="#0058ad" points="0,-.5 0,-29.5 1520,-29.5 1520,-.5 0,-.5"/>
<text text-anchor="middle" x="514" y="-11.3" font-family="Times,serif" font-size="14.00" fill="#0058ad">r 78 [1 2 3 4 5 6 7 11 8 17 18 19 20 21 22 25 14 30 31 28 29 32 33 34 35 36 37 39 38 41 42 43 44 45 46 47 48 51 52 53 40 49 50 54 55 56 57 58 59 60 61 62 63 64 66 67 65 68 69 70]</text>
<polyline fill="none" stroke="#0058ad" points="1028,-.5 1028,-29.5 "/>
<text text-anchor="middle" x="1056.5" y="-11.3" font-family="Times,serif" font-size="14.00" fill="#0058ad">a 77 35</text>
<polyline fill="none" stroke="#0058ad" points="1085,-.5 1085,-29.5 "/>
<text text-anchor="middle" x="1302.5" y="-11.3" font-family="Times,serif" font-size="14.00" fill="#0058ad">r 77 [1 2 3 4 5 6 7 8 9 10 18 21 22 23 24 25 26 27 28 29 30 31 32 33 34 35]</text>
</g>
<!-- T15167&#45;&gt;T15168 -->
<g id="edge1" class="edge">
<title>T15167:f1&#45;&gt;T15168:f1</title>
<path fill="none" stroke="#5b00c0" d="M980,-81C980,-43.9606 1042.6953,-65.6626 1054.9404,-40.0961"/>
<polygon fill="#5b00c0" stroke="#5b00c0" points="1058.4305,-40.4978 1057,-30 1051.5718,-39.0986 1058.4305,-40.4978"/>
<text text-anchor="middle" x="1054.5" y="-51.8" font-family="Times,serif" font-size="14.00" fill="#5b00c0">rw</text>
</g>
<!-- T15168&#45;&gt;T15167 -->
<g id="edge2" class="edge">
<title>T15168:f0&#45;&gt;T15167:f0</title>
<path fill="none" stroke="#5b00c0" d="M514,-30C514,-73.7854 648.0863,-93.4106 703.6939,-95.7585"/>
<polygon fill="#5b00c0" stroke="#5b00c0" points="703.9207,-99.2647 714,-96 704.0848,-92.2666 703.9207,-99.2647"/>
<text text-anchor="middle" x="547.5" y="-51.8" font-family="Times,serif" font-size="14.00" fill="#5b00c0">rw</text>
</g>
</g>
</svg>
