<?xml version="1.0" encoding="UTF-8" standalone="no"?>
<!DOCTYPE svg PUBLIC "-//W3C//DTD SVG 1.1//EN"
 "http://www.w3.org/Graphics/SVG/1.1/DTD/svg11.dtd">
<!-- Generated by graphviz version 2.40.1 (20161225.0304)
 -->
<!-- Title: a_graph Pages: 1 -->
<svg width="3331pt" height="119pt"
 viewBox="0.00 0.00 3331.00 119.00" xmlns="http://www.w3.org/2000/svg" xmlns:xlink="http://www.w3.org/1999/xlink">
<g id="graph0" class="graph" transform="scale(1 1) rotate(0) translate(4 115)">
<title>a_graph</title>
<polygon fill="#ffffff" stroke="transparent" points="-4,4 -4,-115 3327,-115 3327,4 -4,4"/>
<!-- T5485 -->
<g id="node1" class="node">
<title>T5485</title>
<polygon fill="none" stroke="#0058ad" points="0,-81.5 0,-110.5 2151,-110.5 2151,-81.5 0,-81.5"/>
<text text-anchor="middle" x="787" y="-92.3" font-family="Times,serif" font-size="14.00" fill="#0058ad">r 30 [1 2 3 4 5 6 7 8 9 10 11 12 13 14 15 16 17 20 21 18 19 22 23 24 25 26 27 28 29 32 30 31 34 33 35 36 37 38 39 40 41 42 43 45 46 44 47 48 49 50 51 54 52 53 55 56 57 58 59 60 61 62 63 64 65 66 67 68 69 70 71 72 73 74 75 76 77 78 79 80 81 82 83 84 85 86 87 88 89 90 91 92]</text>
<polyline fill="none" stroke="#0058ad" points="1574,-81.5 1574,-110.5 "/>
<text text-anchor="middle" x="1599" y="-92.3" font-family="Times,serif" font-size="14.00" fill="#0058ad">a 5 99</text>
<polyline fill="none" stroke="#0058ad" points="1624,-81.5 1624,-110.5 "/>
<text text-anchor="middle" x="1859" y="-92.3" font-family="Times,serif" font-size="14.00" fill="#0058ad">r 31 [1 2 3 4 5 6 7 8 9 10 11 12 13 14 15 16 17 18 19 21 20 22 23 24 25 26 27 28]</text>
<polyline fill="none" stroke="#0058ad" points="2094,-81.5 2094,-110.5 "/>
<text text-anchor="middle" x="2122.5" y="-92.3" font-family="Times,serif" font-size="14.00" fill="#0058ad">a 30 94</text>
</g>
<!-- T5483 -->
<g id="node2" class="node">
<title>T5483</title>
<polygon fill="none" stroke="#0058ad" points="1692,-.5 1692,-29.5 3323,-29.5 3323,-.5 1692,-.5"/>
<text text-anchor="middle" x="1720.5" y="-11.3" font-family="Times,serif" font-size="14.00" fill="#0058ad">a 31 29</text>
<polyline fill="none" stroke="#0058ad" points="1749,-.5 1749,-29.5 "/>
<text text-anchor="middle" x="2536" y="-11.3" font-family="Times,serif" font-size="14.00" fill="#0058ad">r 30 [1 2 3 4 5 6 7 8 9 10 11 12 13 14 15 16 17 20 21 18 19 22 23 24 25 26 27 28 29 32 30 31 34 33 35 36 37 38 39 40 41 42 43 45 46 44 47 48 49 50 51 54 52 53 55 56 57 58 59 60 61 62 63 64 65 66 67 68 69 70 71 72 73 74 75 76 77 78 79 80 81 82 83 84 85 86 87 88 89 90 91 92]</text>
</g>
<!-- T5485&#45;&gt;T5483 -->
<g id="edge1" class="edge">
<title>T5485:f2&#45;&gt;T5483:f0</title>
<path fill="none" stroke="#5b00c0" d="M1859.5,-81C1859.5,-19.051 1736.3118,-86.861 1721.8757,-40.1181"/>
<polygon fill="#5b00c0" stroke="#5b00c0" points="1725.3154,-39.4373 1720.5,-30 1718.3793,-40.3804 1725.3154,-39.4373"/>
<text text-anchor="middle" x="1860" y="-51.8" font-family="Times,serif" font-size="14.00" fill="#5b00c0">rw</text>
</g>
<!-- T5483&#45;&gt;T5485 -->
<g id="edge2" class="edge">
<title>T5483:f1&#45;&gt;T5485:f3</title>
<path fill="none" stroke="#5b00c0" d="M2536.5,-30C2536.5,-70.9435 2232.5026,-93.3733 2161.6286,-95.7828"/>
<polygon fill="#5b00c0" stroke="#5b00c0" points="2161.4226,-92.2863 2151.5,-96 2161.5728,-99.2847 2161.4226,-92.2863"/>
<text text-anchor="middle" x="2520" y="-51.8" font-family="Times,serif" font-size="14.00" fill="#5b00c0">rw</text>
</g>
</g>
</svg>
