<?xml version="1.0" encoding="UTF-8" standalone="no"?>
<!DOCTYPE svg PUBLIC "-//W3C//DTD SVG 1.1//EN"
 "http://www.w3.org/Graphics/SVG/1.1/DTD/svg11.dtd">
<!-- Generated by graphviz version 2.40.1 (20161225.0304)
 -->
<!-- Title: a_graph Pages: 1 -->
<svg width="5426pt" height="119pt"
 viewBox="0.00 0.00 5426.00 119.00" xmlns="http://www.w3.org/2000/svg" xmlns:xlink="http://www.w3.org/1999/xlink">
<g id="graph0" class="graph" transform="scale(1 1) rotate(0) translate(4 115)">
<title>a_graph</title>
<polygon fill="#ffffff" stroke="transparent" points="-4,4 -4,-115 5422,-115 5422,4 -4,4"/>
<!-- T12751 -->
<g id="node1" class="node">
<title>T12751</title>
<polygon fill="none" stroke="#0058ad" points="1870,-81.5 1870,-110.5 5418,-110.5 5418,-81.5 1870,-81.5"/>
<text text-anchor="middle" x="1898.5" y="-92.3" font-family="Times,serif" font-size="14.00" fill="#0058ad">a 64 99</text>
<polyline fill="none" stroke="#0058ad" points="1927,-81.5 1927,-110.5 "/>
<text text-anchor="middle" x="2765.5" y="-92.3" font-family="Times,serif" font-size="14.00" fill="#0058ad">r 64 [1 2 3 5 6 7 8 9 4 10 11 12 14 15 13 16 17 20 21 22 24 25 18 19 26 27 28 29 30 32 33 34 35 36 23 37 31 38 39 40 41 42 44 45 46 43 47 48 49 51 50 52 53 54 55 56 59 57 58 60 61 63 64 65 66 62 67 68 69 70 71 72 73 74 75 77 76 78 79 80 81 82 83 84 85 86 88 89 91 92 93 90 96 94 95 97 98 99]</text>
<polyline fill="none" stroke="#0058ad" points="3604,-81.5 3604,-110.5 "/>
<text text-anchor="middle" x="4456" y="-92.3" font-family="Times,serif" font-size="14.00" fill="#0058ad">r 60 [1 2 4 5 3 7 8 9 6 10 11 12 13 14 16 15 17 18 19 20 21 22 23 24 25 26 27 29 30 31 32 33 34 36 37 38 39 40 41 42 43 44 45 46 47 48 49 51 50 52 53 54 55 56 57 58 59 60 61 62 63 64 65 66 67 68 69 70 71 73 74 77 78 79 80 81 82 83 84 85 86 87 88 89 90 91 92 93 95 94 96 97 98 99 100 101 102 103]</text>
<polyline fill="none" stroke="#0058ad" points="5308,-81.5 5308,-110.5 "/>
<text text-anchor="middle" x="5363" y="-92.3" font-family="Times,serif" font-size="14.00" fill="#0058ad">r 65 [1 2 3 4 5 6]</text>
</g>
<!-- T12747 -->
<g id="node2" class="node">
<title>T12747</title>
<polygon fill="none" stroke="#0058ad" points="0,-.5 0,-29.5 3428,-29.5 3428,-.5 0,-.5"/>
<text text-anchor="middle" x="852" y="-11.3" font-family="Times,serif" font-size="14.00" fill="#0058ad">r 60 [1 2 4 5 3 7 8 9 6 10 11 12 13 14 16 15 17 18 19 20 21 22 23 24 25 26 27 29 30 31 32 33 34 36 37 38 39 40 41 42 43 44 45 46 47 48 49 51 50 52 53 54 55 56 57 58 59 60 61 62 63 64 65 66 67 68 69 70 71 73 74 77 78 79 80 81 82 83 84 85 86 87 88 89 90 91 92 93 95 94 96 97 98 99 100 101 102 103]</text>
<polyline fill="none" stroke="#0058ad" points="1704,-.5 1704,-29.5 "/>
<text text-anchor="middle" x="2534" y="-11.3" font-family="Times,serif" font-size="14.00" fill="#0058ad">r 64 [1 2 3 5 6 7 8 9 4 10 11 12 14 15 13 16 17 20 21 22 24 25 18 19 26 27 28 29 30 32 33 34 35 36 23 37 31 38 39 40 41 42 44 45 46 43 47 48 49 51 50 52 53 54 55 56 59 57 58 60 61 63 64 65 66 62 67 68 69 70 71 72 73 74 75 77 76 78 79 80 81 82 83 84 85 86 88 89 91 92 93 90 96 94 95 97 98]</text>
<polyline fill="none" stroke="#0058ad" points="3364,-.5 3364,-29.5 "/>
<text text-anchor="middle" x="3396" y="-11.3" font-family="Times,serif" font-size="14.00" fill="#0058ad">a 60 104</text>
</g>
<!-- T12751&#45;&gt;T12747 -->
<g id="edge1" class="edge">
<title>T12751:f2&#45;&gt;T12747:f2</title>
<path fill="none" stroke="#5b00c0" d="M4456,-81C4456,-25.895 3555.9413,-15.7177 3438.049,-15.0383"/>
<polygon fill="#5b00c0" stroke="#5b00c0" points="3438.0133,-11.5382 3428,-15 3437.9866,-18.5382 3438.0133,-11.5382"/>
<text text-anchor="middle" x="4424.5" y="-51.8" font-family="Times,serif" font-size="14.00" fill="#5b00c0">rw</text>
</g>
<!-- T12747&#45;&gt;T12751 -->
<g id="edge2" class="edge">
<title>T12747:f1&#45;&gt;T12751:f0</title>
<path fill="none" stroke="#5b00c0" d="M2534,-30C2534,-168.1869 1929.8869,49.218 1899.2092,-70.9116"/>
<polygon fill="#5b00c0" stroke="#5b00c0" points="1895.7151,-70.6545 1898,-81 1902.6653,-71.4876 1895.7151,-70.6545"/>
<text text-anchor="middle" x="2534.5" y="-51.8" font-family="Times,serif" font-size="14.00" fill="#5b00c0">rw</text>
</g>
</g>
</svg>
