<?xml version="1.0" encoding="UTF-8" standalone="no"?>
<!DOCTYPE svg PUBLIC "-//W3C//DTD SVG 1.1//EN"
 "http://www.w3.org/Graphics/SVG/1.1/DTD/svg11.dtd">
<!-- Generated by graphviz version 2.40.1 (20161225.0304)
 -->
<!-- Title: a_graph Pages: 1 -->
<svg width="3237pt" height="200pt"
 viewBox="0.00 0.00 3236.50 200.00" xmlns="http://www.w3.org/2000/svg" xmlns:xlink="http://www.w3.org/1999/xlink">
<g id="graph0" class="graph" transform="scale(1 1) rotate(0) translate(4 196)">
<title>a_graph</title>
<polygon fill="#ffffff" stroke="transparent" points="-4,4 -4,-196 3232.5,-196 3232.5,4 -4,4"/>
<!-- T23111 -->
<g id="node1" class="node">
<title>T23111</title>
<polygon fill="none" stroke="#0058ad" points="71,-162.5 71,-191.5 1190,-191.5 1190,-162.5 71,-162.5"/>
<text text-anchor="middle" x="326.5" y="-173.3" font-family="Times,serif" font-size="14.00" fill="#0058ad">r 114 [1 2 5 6 3 4 7 8 9 10 11 12 13 14 15 16 17 18 19 20 21 22 23 24 25 26 27 28 29 30]</text>
<polyline fill="none" stroke="#0058ad" points="582,-162.5 582,-191.5 "/>
<text text-anchor="middle" x="614" y="-173.3" font-family="Times,serif" font-size="14.00" fill="#0058ad">a 116 81</text>
<polyline fill="none" stroke="#0058ad" points="646,-162.5 646,-191.5 "/>
<text text-anchor="middle" x="782" y="-173.3" font-family="Times,serif" font-size="14.00" fill="#0058ad">r 117 [1 2 3 5 6 9 11 12 13 14 15 16 18 17 19]</text>
<polyline fill="none" stroke="#0058ad" points="918,-162.5 918,-191.5 "/>
<text text-anchor="middle" x="1054" y="-173.3" font-family="Times,serif" font-size="14.00" fill="#0058ad">r 117 [1 2 3 5 6 9 11 12 13 14 15 16 18 17 19]</text>
</g>
<!-- T23105 -->
<g id="node3" class="node">
<title>T23105</title>
<polygon fill="none" stroke="#0058ad" points="646.5,-81.5 646.5,-110.5 3228.5,-110.5 3228.5,-81.5 646.5,-81.5"/>
<text text-anchor="middle" x="678.5" y="-92.3" font-family="Times,serif" font-size="14.00" fill="#0058ad">a 117 20</text>
<polyline fill="none" stroke="#0058ad" points="710.5,-81.5 710.5,-110.5 "/>
<text text-anchor="middle" x="1340" y="-92.3" font-family="Times,serif" font-size="14.00" fill="#0058ad">r 116 [1 2 3 5 6 8 9 7 10 11 12 13 14 15 16 17 18 19 20 21 23 25 22 24 26 27 28 30 29 31 32 33 34 35 36 37 38 39 40 41 42 43 44 45 47 46 48 50 51 52 49 53 54 55 56 57 58 59 62 63 66 67 68 69 70 71 75 76 77 74 78 79 80]</text>
<polyline fill="none" stroke="#0058ad" points="1969.5,-81.5 1969.5,-110.5 "/>
<text text-anchor="middle" x="2599" y="-92.3" font-family="Times,serif" font-size="14.00" fill="#0058ad">r 116 [1 2 3 5 6 8 9 7 10 11 12 13 14 15 16 17 18 19 20 21 23 25 22 24 26 27 28 30 29 31 32 33 34 35 36 37 38 39 40 41 42 43 44 45 47 46 48 50 51 52 49 53 54 55 56 57 58 59 62 63 66 67 68 69 70 71 75 76 77 74 78 79 80]</text>
</g>
<!-- T23111&#45;&gt;T23105 -->
<g id="edge1" class="edge">
<title>T23111:f2&#45;&gt;T23105:f0</title>
<path fill="none" stroke="#5b00c0" d="M782.5,-162C782.5,-160.6803 712.5171,-128.2898 687.367,-115.804"/>
<polygon fill="#5b00c0" stroke="#5b00c0" points="688.9598,-112.6863 678.5,-111 685.6252,-118.841 688.9598,-112.6863"/>
<text text-anchor="middle" x="753" y="-132.8" font-family="Times,serif" font-size="14.00" fill="#5b00c0">rw</text>
</g>
<!-- T23107 -->
<g id="node2" class="node">
<title>T23107</title>
<polygon fill="none" stroke="#0058ad" points="0,-.5 0,-29.5 1259,-29.5 1259,-.5 0,-.5"/>
<text text-anchor="middle" x="629.5" y="-11.3" font-family="Times,serif" font-size="14.00" fill="#0058ad">r 116 [1 2 3 5 6 8 9 7 10 11 12 13 14 15 16 17 18 19 20 21 23 25 22 24 26 27 28 30 29 31 32 33 34 35 36 37 38 39 40 41 42 43 44 45 47 46 48 50 51 52 49 53 54 55 56 57 58 59 62 63 66 67 68 69 70 71 75 76 77 74 78 79 80]</text>
</g>
<!-- T23107&#45;&gt;T23111 -->
<g id="edge2" class="edge">
<title>T23107:f0&#45;&gt;T23111:f1</title>
<path fill="none" stroke="#5b00c0" d="M626.8579,-29.548C622.6241,-54.0763 614.685,-105.5285 613.6194,-151.8896"/>
<polygon fill="#5b00c0" stroke="#5b00c0" points="610.1184,-151.9593 613.5,-162 617.1179,-152.0421 610.1184,-151.9593"/>
<text text-anchor="middle" x="627" y="-92.3" font-family="Times,serif" font-size="14.00" fill="#5b00c0">rw</text>
</g>
<!-- T23105&#45;&gt;T23111 -->
<g id="edge3" class="edge">
<title>T23105:f1&#45;&gt;T23111:f1</title>
<path fill="none" stroke="#5b00c0" d="M1339.5,-111C1339.5,-128.8959 713.0202,-125.3522 695.5,-129 679.5751,-132.3157 633.7909,-139.3002 618.5231,-152.7586"/>
<polygon fill="#5b00c0" stroke="#5b00c0" points="615.2005,-151.5425 613.5,-162 621.3507,-154.8854 615.2005,-151.5425"/>
<text text-anchor="middle" x="703" y="-132.8" font-family="Times,serif" font-size="14.00" fill="#5b00c0">rw</text>
</g>
<!-- T23105&#45;&gt;T23107 -->
<g id="edge4" class="edge">
<title>T23105&#45;&gt;T23107</title>
<path fill="none" stroke="#0050c0" d="M1703.2785,-81.4955C1469.3281,-67.0077 1111.257,-44.8336 873.8135,-30.1295"/>
<polygon fill="#0050c0" stroke="#0050c0" points="873.8545,-26.6254 863.6573,-29.5006 873.4218,-33.612 873.8545,-26.6254"/>
<text text-anchor="middle" x="1405" y="-51.8" font-family="Times,serif" font-size="14.00" fill="#0050c0">rt</text>
</g>
</g>
</svg>
