<?xml version="1.0" encoding="UTF-8" standalone="no"?>
<!DOCTYPE svg PUBLIC "-//W3C//DTD SVG 1.1//EN"
 "http://www.w3.org/Graphics/SVG/1.1/DTD/svg11.dtd">
<!-- Generated by graphviz version 2.40.1 (20161225.0304)
 -->
<!-- Title: a_graph Pages: 1 -->
<svg width="4102pt" height="119pt"
 viewBox="0.00 0.00 4102.00 119.00" xmlns="http://www.w3.org/2000/svg" xmlns:xlink="http://www.w3.org/1999/xlink">
<g id="graph0" class="graph" transform="scale(1 1) rotate(0) translate(4 115)">
<title>a_graph</title>
<polygon fill="#ffffff" stroke="transparent" points="-4,4 -4,-115 4098,-115 4098,4 -4,4"/>
<!-- T20923 -->
<g id="node1" class="node">
<title>T20923</title>
<polygon fill="none" stroke="#0058ad" points="0,-81.5 0,-110.5 4094,-110.5 4094,-81.5 0,-81.5"/>
<text text-anchor="middle" x="1071.5" y="-92.3" font-family="Times,serif" font-size="14.00" fill="#0058ad">r 103 [1 2 3 4 5 6 7 8 9 10 11 12 13 14 15 17 19 18 20 21 23 24 22 25 26 27 28 29 30 31 32 33 34 36 35 37 39 38 40 41 42 43 44 45 46 47 48 49 50 51 52 53 54 55 56 57 58 59 60 61 62 63 64 65 66 68 67 70 69 72 73 74 76 75 77 79 80 81 84 85 86 87 88 89 90 91 92 93 94 95 96 97 98 99 100 102 104 103 105 106 107 108 109 110 111 113 114 112 116 115 117 118 121 119 120 122]</text>
<polyline fill="none" stroke="#0058ad" points="2143,-81.5 2143,-110.5 "/>
<text text-anchor="middle" x="2178.5" y="-92.3" font-family="Times,serif" font-size="14.00" fill="#0058ad">a 106 110</text>
<polyline fill="none" stroke="#0058ad" points="2214,-81.5 2214,-110.5 "/>
<text text-anchor="middle" x="3129" y="-92.3" font-family="Times,serif" font-size="14.00" fill="#0058ad">r 106 [1 2 3 5 6 7 10 11 12 13 14 16 17 18 19 20 21 22 23 24 25 26 27 28 29 30 31 32 33 34 35 37 38 36 41 39 40 42 43 44 46 45 47 48 49 50 52 53 54 51 55 56 59 60 61 62 63 67 66 68 69 71 72 73 74 75 76 77 80 78 79 81 82 83 84 85 86 87 88 89 90 92 93 91 94 95 97 98 99 100 96 101 102 103 104 105 106 107 108 109 110]</text>
<polyline fill="none" stroke="#0058ad" points="4044,-81.5 4044,-110.5 "/>
<text text-anchor="middle" x="4069" y="-92.3" font-family="Times,serif" font-size="14.00" fill="#0058ad">a 2 53</text>
</g>
<!-- T20921 -->
<g id="node2" class="node">
<title>T20921</title>
<polygon fill="none" stroke="#0058ad" points="1141.5,-.5 1141.5,-29.5 3018.5,-29.5 3018.5,-.5 1141.5,-.5"/>
<text text-anchor="middle" x="1177" y="-11.3" font-family="Times,serif" font-size="14.00" fill="#0058ad">a 103 123</text>
<polyline fill="none" stroke="#0058ad" points="1212.5,-.5 1212.5,-29.5 "/>
<text text-anchor="middle" x="2115.5" y="-11.3" font-family="Times,serif" font-size="14.00" fill="#0058ad">r 106 [1 2 3 5 6 7 10 11 12 13 14 16 17 18 19 20 21 22 23 24 25 26 27 28 29 30 31 32 33 34 35 37 38 36 41 39 40 42 43 44 46 45 47 48 49 50 52 53 54 51 55 56 59 60 61 62 63 67 66 68 69 71 72 73 74 75 76 77 80 78 79 81 82 83 84 85 86 87 88 89 90 92 93 91 94 95 97 98 99 100 96 101 102 103 104 105 106 107 108 109]</text>
</g>
<!-- T20923&#45;&gt;T20921 -->
<g id="edge1" class="edge">
<title>T20923:f0&#45;&gt;T20921:f0</title>
<path fill="none" stroke="#5b00c0" d="M1071,-81C1071,-41.7484 1093.9549,-18.9443 1130.797,-15.4671"/>
<polygon fill="#5b00c0" stroke="#5b00c0" points="1131.1706,-18.9538 1141,-15 1130.8504,-11.9611 1131.1706,-18.9538"/>
<text text-anchor="middle" x="1085.5" y="-51.8" font-family="Times,serif" font-size="14.00" fill="#5b00c0">rw</text>
</g>
<!-- T20921&#45;&gt;T20923 -->
<g id="edge2" class="edge">
<title>T20921:f1&#45;&gt;T20923:f1</title>
<path fill="none" stroke="#5b00c0" d="M2116,-30C2116,-62.0845 2165.9724,-48.8971 2176.9039,-71.0784"/>
<polygon fill="#5b00c0" stroke="#5b00c0" points="2173.5085,-71.9395 2179,-81 2180.3573,-70.4925 2173.5085,-71.9395"/>
<text text-anchor="middle" x="2175.5" y="-51.8" font-family="Times,serif" font-size="14.00" fill="#5b00c0">rw</text>
</g>
</g>
</svg>
