<?xml version="1.0" encoding="UTF-8" standalone="no"?>
<!DOCTYPE svg PUBLIC "-//W3C//DTD SVG 1.1//EN"
 "http://www.w3.org/Graphics/SVG/1.1/DTD/svg11.dtd">
<!-- Generated by graphviz version 2.40.1 (20161225.0304)
 -->
<!-- Title: a_graph Pages: 1 -->
<svg width="3605pt" height="119pt"
 viewBox="0.00 0.00 3604.50 119.00" xmlns="http://www.w3.org/2000/svg" xmlns:xlink="http://www.w3.org/1999/xlink">
<g id="graph0" class="graph" transform="scale(1 1) rotate(0) translate(4 115)">
<title>a_graph</title>
<polygon fill="#ffffff" stroke="transparent" points="-4,4 -4,-115 3600.5,-115 3600.5,4 -4,4"/>
<!-- T17649 -->
<g id="node1" class="node">
<title>T17649</title>
<polygon fill="none" stroke="#0058ad" points="592.5,-81.5 592.5,-110.5 3596.5,-110.5 3596.5,-81.5 592.5,-81.5"/>
<text text-anchor="middle" x="624.5" y="-92.3" font-family="Times,serif" font-size="14.00" fill="#0058ad">a 88 107</text>
<polyline fill="none" stroke="#0058ad" points="656.5,-81.5 656.5,-110.5 "/>
<text text-anchor="middle" x="1391.5" y="-92.3" font-family="Times,serif" font-size="14.00" fill="#0058ad">r 89 [1 2 3 4 5 7 6 10 8 9 13 14 11 12 15 16 17 18 20 21 19 23 24 25 26 22 28 27 29 32 30 33 31 34 35 36 37 38 39 40 41 43 44 45 46 42 47 48 49 51 50 52 55 56 57 58 53 54 60 61 62 63 64 66 67 68 69 71 72 74 77 78 79 80 81 75 83 82 86 87 88 84 85 89 91 92]</text>
<polyline fill="none" stroke="#0058ad" points="2126.5,-81.5 2126.5,-110.5 "/>
<text text-anchor="middle" x="2861.5" y="-92.3" font-family="Times,serif" font-size="14.00" fill="#0058ad">r 89 [1 2 3 4 5 7 6 10 8 9 13 14 11 12 15 16 17 18 20 21 19 23 24 25 26 22 28 27 29 32 30 33 31 34 35 36 37 38 39 40 41 43 44 45 46 42 47 48 49 51 50 52 55 56 57 58 53 54 60 61 62 63 64 66 67 68 69 71 72 74 77 78 79 80 81 75 83 82 86 87 88 84 85 89 91 92]</text>
</g>
<!-- T17653 -->
<g id="node2" class="node">
<title>T17653</title>
<polygon fill="none" stroke="#0058ad" points="0,-.5 0,-29.5 2795,-29.5 2795,-.5 0,-.5"/>
<text text-anchor="middle" x="668.5" y="-11.3" font-family="Times,serif" font-size="14.00" fill="#0058ad">r 88 [29 30 31 33 34 32 35 36 37 38 26 27 42 43 24 44 45 46 47 48 49 50 51 52 53 55 54 56 57 58 59 61 62 63 60 64 65 66 67 68 69 70 71 74 72 73 75 76 77 79 78 81 80 84 85 86 87 88 89 91 93 94 96 99 100 101 95 102 104 105 103 106]</text>
<polyline fill="none" stroke="#0058ad" points="1337,-.5 1337,-29.5 "/>
<text text-anchor="middle" x="1365.5" y="-11.3" font-family="Times,serif" font-size="14.00" fill="#0058ad">a 89 90</text>
<polyline fill="none" stroke="#0058ad" points="1394,-.5 1394,-29.5 "/>
<text text-anchor="middle" x="1426" y="-11.3" font-family="Times,serif" font-size="14.00" fill="#0058ad">a 68 100</text>
<polyline fill="none" stroke="#0058ad" points="1458,-.5 1458,-29.5 "/>
<text text-anchor="middle" x="2126.5" y="-11.3" font-family="Times,serif" font-size="14.00" fill="#0058ad">r 88 [29 30 31 33 34 32 35 36 37 38 26 27 42 43 24 44 45 46 47 48 49 50 51 52 53 55 54 56 57 58 59 61 62 63 60 64 65 66 67 68 69 70 71 74 72 73 75 76 77 79 78 81 80 84 85 86 87 88 89 91 93 94 96 99 100 101 95 102 104 105 103 106]</text>
</g>
<!-- T17649&#45;&gt;T17653 -->
<g id="edge1" class="edge">
<title>T17649:f1&#45;&gt;T17653:f1</title>
<path fill="none" stroke="#5b00c0" d="M1391.5,-81C1391.5,-59.5331 1372.9902,-56.0967 1367.2059,-40.2643"/>
<polygon fill="#5b00c0" stroke="#5b00c0" points="1370.5922,-39.2908 1365.5,-30 1363.687,-40.4385 1370.5922,-39.2908"/>
<text text-anchor="middle" x="1393" y="-51.8" font-family="Times,serif" font-size="14.00" fill="#5b00c0">rw</text>
</g>
<!-- T17653&#45;&gt;T17649 -->
<g id="edge2" class="edge">
<title>T17653:f0&#45;&gt;T17649:f0</title>
<path fill="none" stroke="#5b00c0" d="M668.5,-30C668.5,-55.9606 635.4114,-52.7358 626.6222,-70.944"/>
<polygon fill="#5b00c0" stroke="#5b00c0" points="623.1404,-70.4928 624.5,-81 629.9896,-71.9383 623.1404,-70.4928"/>
<text text-anchor="middle" x="667" y="-51.8" font-family="Times,serif" font-size="14.00" fill="#5b00c0">rw</text>
</g>
</g>
</svg>
