<?xml version="1.0" encoding="UTF-8" standalone="no"?>
<!DOCTYPE svg PUBLIC "-//W3C//DTD SVG 1.1//EN"
 "http://www.w3.org/Graphics/SVG/1.1/DTD/svg11.dtd">
<!-- Generated by graphviz version 2.40.1 (20161225.0304)
 -->
<!-- Title: a_graph Pages: 1 -->
<svg width="1104pt" height="119pt"
 viewBox="0.00 0.00 1104.00 119.00" xmlns="http://www.w3.org/2000/svg" xmlns:xlink="http://www.w3.org/1999/xlink">
<g id="graph0" class="graph" transform="scale(1 1) rotate(0) translate(4 115)">
<title>a_graph</title>
<polygon fill="#ffffff" stroke="transparent" points="-4,4 -4,-115 1100,-115 1100,4 -4,4"/>
<!-- T18669 -->
<g id="node1" class="node">
<title>T18669</title>
<polygon fill="none" stroke="#0058ad" points="211.5,-81.5 211.5,-110.5 462.5,-110.5 462.5,-81.5 211.5,-81.5"/>
<text text-anchor="middle" x="240" y="-92.3" font-family="Times,serif" font-size="14.00" fill="#0058ad">a 92 68</text>
<polyline fill="none" stroke="#0058ad" points="268.5,-81.5 268.5,-110.5 "/>
<text text-anchor="middle" x="365.5" y="-92.3" font-family="Times,serif" font-size="14.00" fill="#0058ad">r 95 [1 2 3 4 5 6 7 8 9 10 11 12]</text>
</g>
<!-- T18665 -->
<g id="node2" class="node">
<title>T18665</title>
<polygon fill="none" stroke="#0058ad" points="0,-.5 0,-29.5 1096,-29.5 1096,-.5 0,-.5"/>
<text text-anchor="middle" x="28.5" y="-11.3" font-family="Times,serif" font-size="14.00" fill="#0058ad">a 95 13</text>
<polyline fill="none" stroke="#0058ad" points="57,-.5 57,-29.5 "/>
<text text-anchor="middle" x="576.5" y="-11.3" font-family="Times,serif" font-size="14.00" fill="#0058ad">r 92 [1 2 3 6 4 5 7 8 9 10 11 12 13 15 14 16 17 18 19 20 21 22 23 25 27 29 30 31 32 33 34 36 37 38 39 40 41 42 43 44 45 47 49 48 50 51 52 54 55 56 57 58 59 60 61 62 63 64 65 66 67]</text>
</g>
<!-- T18669&#45;&gt;T18665 -->
<g id="edge1" class="edge">
<title>T18669:f1&#45;&gt;T18665:f0</title>
<path fill="none" stroke="#5b00c0" d="M366,-81C366,-40.475 320.5422,-56.8704 281,-48 256.4015,-42.4819 73.3642,-54.9836 35.0283,-37.5096"/>
<polygon fill="#5b00c0" stroke="#5b00c0" points="37.3887,-34.9095 28,-30 32.2779,-39.6928 37.3887,-34.9095"/>
<text text-anchor="middle" x="367.5" y="-51.8" font-family="Times,serif" font-size="14.00" fill="#5b00c0">rw</text>
</g>
<!-- T18665&#45;&gt;T18669 -->
<g id="edge2" class="edge">
<title>T18665:f1&#45;&gt;T18669:f0</title>
<path fill="none" stroke="#5b00c0" d="M577,-30C577,-65.0571 292.4243,-30.5827 262,-48 250.0487,-54.8419 243.3436,-60.3762 240.982,-70.8753"/>
<polygon fill="#5b00c0" stroke="#5b00c0" points="237.4818,-70.7088 240,-81 244.4491,-71.3846 237.4818,-70.7088"/>
<text text-anchor="middle" x="269.5" y="-51.8" font-family="Times,serif" font-size="14.00" fill="#5b00c0">rw</text>
</g>
</g>
</svg>
