<?xml version="1.0" encoding="UTF-8" standalone="no"?>
<!DOCTYPE svg PUBLIC "-//W3C//DTD SVG 1.1//EN"
 "http://www.w3.org/Graphics/SVG/1.1/DTD/svg11.dtd">
<!-- Generated by graphviz version 2.40.1 (20161225.0304)
 -->
<!-- Title: a_graph Pages: 1 -->
<svg width="1543pt" height="119pt"
 viewBox="0.00 0.00 1543.00 119.00" xmlns="http://www.w3.org/2000/svg" xmlns:xlink="http://www.w3.org/1999/xlink">
<g id="graph0" class="graph" transform="scale(1 1) rotate(0) translate(4 115)">
<title>a_graph</title>
<polygon fill="#ffffff" stroke="transparent" points="-4,4 -4,-115 1539,-115 1539,4 -4,4"/>
<!-- T15347 -->
<g id="node1" class="node">
<title>T15347</title>
<polygon fill="none" stroke="#0058ad" points="883.5,-81.5 883.5,-110.5 991.5,-110.5 991.5,-81.5 883.5,-81.5"/>
<text text-anchor="middle" x="912" y="-92.3" font-family="Times,serif" font-size="14.00" fill="#0058ad">a 79 12</text>
<polyline fill="none" stroke="#0058ad" points="940.5,-81.5 940.5,-110.5 "/>
<text text-anchor="middle" x="966" y="-92.3" font-family="Times,serif" font-size="14.00" fill="#0058ad">r 80 []</text>
</g>
<!-- T15345 -->
<g id="node2" class="node">
<title>T15345</title>
<polygon fill="none" stroke="#0058ad" points="0,-.5 0,-29.5 1535,-29.5 1535,-.5 0,-.5"/>
<text text-anchor="middle" x="88" y="-11.3" font-family="Times,serif" font-size="14.00" fill="#0058ad">r 79 [1 2 3 4 5 7 6 8 9 10 11]</text>
<polyline fill="none" stroke="#0058ad" points="176,-.5 176,-29.5 "/>
<text text-anchor="middle" x="805.5" y="-11.3" font-family="Times,serif" font-size="14.00" fill="#0058ad">r 3 [1 2 3 4 5 6 18 20 21 22 23 24 25 26 27 28 29 30 31 32 33 35 36 37 38 39 40 41 42 43 44 45 46 58 59 60 61 62 63 64 65 66 67 68 69 70 71 72 73 74 75 76 77 78 79 80 81 82 83 84 85 86 87 88 89 90 91 92 93 96 97 98 99]</text>
<polyline fill="none" stroke="#0058ad" points="1435,-.5 1435,-29.5 "/>
<text text-anchor="middle" x="1460" y="-11.3" font-family="Times,serif" font-size="14.00" fill="#0058ad">a 80 1</text>
<polyline fill="none" stroke="#0058ad" points="1485,-.5 1485,-29.5 "/>
<text text-anchor="middle" x="1510" y="-11.3" font-family="Times,serif" font-size="14.00" fill="#0058ad">a 80 2</text>
</g>
<!-- T15347&#45;&gt;T15345 -->
<g id="edge1" class="edge">
<title>T15347:f1&#45;&gt;T15345:f2</title>
<path fill="none" stroke="#5b00c0" d="M991.5,-96C1040.9383,-96 1411.413,-84.1952 1456.094,-39.1329"/>
<polygon fill="#5b00c0" stroke="#5b00c0" points="1459.3071,-40.5275 1460.5,-30 1453.0025,-37.4858 1459.3071,-40.5275"/>
<text text-anchor="middle" x="1445" y="-51.8" font-family="Times,serif" font-size="14.00" fill="#5b00c0">rw</text>
</g>
<!-- T15345&#45;&gt;T15347 -->
<g id="edge2" class="edge">
<title>T15345:f0&#45;&gt;T15347:f0</title>
<path fill="none" stroke="#5b00c0" d="M87.5,-30C87.5,-72.3806 773.1139,-94.0111 873.3705,-95.869"/>
<polygon fill="#5b00c0" stroke="#5b00c0" points="873.4555,-99.3703 883.5,-96 873.5461,-92.3709 873.4555,-99.3703"/>
<text text-anchor="middle" x="240" y="-51.8" font-family="Times,serif" font-size="14.00" fill="#5b00c0">rw</text>
</g>
</g>
</svg>
