<?xml version="1.0" encoding="UTF-8" standalone="no"?>
<!DOCTYPE svg PUBLIC "-//W3C//DTD SVG 1.1//EN"
 "http://www.w3.org/Graphics/SVG/1.1/DTD/svg11.dtd">
<!-- Generated by graphviz version 2.40.1 (20161225.0304)
 -->
<!-- Title: a_graph Pages: 1 -->
<svg width="4351pt" height="200pt"
 viewBox="0.00 0.00 4350.78 200.00" xmlns="http://www.w3.org/2000/svg" xmlns:xlink="http://www.w3.org/1999/xlink">
<g id="graph0" class="graph" transform="scale(1 1) rotate(0) translate(4 196)">
<title>a_graph</title>
<polygon fill="#ffffff" stroke="transparent" points="-4,4 -4,-196 4346.7846,-196 4346.7846,4 -4,4"/>
<!-- T14505 -->
<g id="node1" class="node">
<title>T14505</title>
<polygon fill="none" stroke="#0058ad" points="1015.2846,-162.5 1015.2846,-191.5 1158.2846,-191.5 1158.2846,-162.5 1015.2846,-162.5"/>
<text text-anchor="middle" x="1047.2846" y="-173.3" font-family="Times,serif" font-size="14.00" fill="#0058ad">a 74 118</text>
<polyline fill="none" stroke="#0058ad" points="1079.2846,-162.5 1079.2846,-191.5 "/>
<text text-anchor="middle" x="1118.7846" y="-173.3" font-family="Times,serif" font-size="14.00" fill="#0058ad">r 75 [1 4 2]</text>
</g>
<!-- T14507 -->
<g id="node2" class="node">
<title>T14507</title>
<polygon fill="none" stroke="#0058ad" points="38.7846,-81.5 38.7846,-110.5 4342.7846,-110.5 4342.7846,-81.5 38.7846,-81.5"/>
<text text-anchor="middle" x="1089.7846" y="-92.3" font-family="Times,serif" font-size="14.00" fill="#0058ad">r 74 [1 2 3 5 6 7 8 10 9 11 12 13 14 15 4 16 17 18 19 20 21 22 23 24 25 26 27 28 29 30 32 33 34 31 35 36 37 38 41 42 43 44 39 40 45 46 47 48 49 50 51 54 55 52 53 57 58 56 59 60 61 62 64 63 65 66 67 68 69 70 71 72 75 76 77 78 74 79 80 81 82 83 84 85 86 73 87 88 89 90 91 92 93 94 95 96 97 98 99 100 101 103 104 105 106 107 109 110 112 113 116 117 111 120 121 122]</text>
<polyline fill="none" stroke="#0058ad" points="2140.7846,-81.5 2140.7846,-110.5 "/>
<text text-anchor="middle" x="2165.7846" y="-92.3" font-family="Times,serif" font-size="14.00" fill="#0058ad">a 75 5</text>
<polyline fill="none" stroke="#0058ad" points="2190.7846,-81.5 2190.7846,-110.5 "/>
<text text-anchor="middle" x="3241.7846" y="-92.3" font-family="Times,serif" font-size="14.00" fill="#0058ad">r 74 [1 2 3 5 6 7 8 10 9 11 12 13 14 15 4 16 17 18 19 20 21 22 23 24 25 26 27 28 29 30 32 33 34 31 35 36 37 38 41 42 43 44 39 40 45 46 47 48 49 50 51 54 55 52 53 57 58 56 59 60 61 62 64 63 65 66 67 68 69 70 71 72 75 76 77 78 74 79 80 81 82 83 84 85 86 73 87 88 89 90 91 92 93 94 95 96 97 98 99 100 101 103 104 105 106 107 109 110 112 113 116 117 111 120 121 122]</text>
<polyline fill="none" stroke="#0058ad" points="4292.7846,-81.5 4292.7846,-110.5 "/>
<text text-anchor="middle" x="4317.7846" y="-92.3" font-family="Times,serif" font-size="14.00" fill="#0058ad">a 75 6</text>
</g>
<!-- T14505&#45;&gt;T14507 -->
<g id="edge1" class="edge">
<title>T14505:f1&#45;&gt;T14507:f1</title>
<path fill="none" stroke="#5b00c0" d="M1158.7846,-177C1212.1116,-177 2075.0534,-168.0111 2159.1979,-118.8868"/>
<polygon fill="#5b00c0" stroke="#5b00c0" points="2162.0609,-120.9189 2165.7846,-111 2156.6881,-116.4318 2162.0609,-120.9189"/>
<text text-anchor="middle" x="2135.2846" y="-132.8" font-family="Times,serif" font-size="14.00" fill="#5b00c0">rw</text>
</g>
<!-- T14503 -->
<g id="node3" class="node">
<title>T14503</title>
<polygon fill="none" stroke="#0058ad" points="249.2846,-.5 249.2846,-29.5 2496.2846,-29.5 2496.2846,-.5 249.2846,-.5"/>
<text text-anchor="middle" x="281.2846" y="-11.3" font-family="Times,serif" font-size="14.00" fill="#0058ad">a 74 119</text>
<polyline fill="none" stroke="#0058ad" points="313.2846,-.5 313.2846,-29.5 "/>
<text text-anchor="middle" x="1376.2846" y="-11.3" font-family="Times,serif" font-size="14.00" fill="#0058ad">r 74 [1 2 3 5 6 7 8 10 9 11 12 13 14 15 4 16 17 18 19 20 21 22 23 24 25 26 27 28 29 30 32 33 34 31 35 36 37 38 41 42 43 44 39 40 45 46 47 48 49 50 51 54 55 52 53 57 58 56 59 60 61 62 64 63 65 66 67 68 69 70 71 72 75 76 77 78 74 79 80 81 82 83 84 85 86 73 87 88 89 90 91 92 93 94 95 96 97 98 99 100 101 103 104 105 106 107 109 110 112 113 116 117 111 120 121 122 119]</text>
<polyline fill="none" stroke="#0058ad" points="2439.2846,-.5 2439.2846,-29.5 "/>
<text text-anchor="middle" x="2467.7846" y="-11.3" font-family="Times,serif" font-size="14.00" fill="#0058ad">a 66 24</text>
</g>
<!-- T14507&#45;&gt;T14503 -->
<g id="edge2" class="edge">
<title>T14507:f0&#45;&gt;T14503:f0</title>
<path fill="none" stroke="#5b00c0" d="M38.7846,-96C32.118,-96 34.5847,-86.1773 38.7846,-81 105.7331,1.528 269.4269,-130.5901 280.2234,-40.1259"/>
<polygon fill="#5b00c0" stroke="#5b00c0" points="283.7257,-40.1784 280.7846,-30 276.7365,-39.7909 283.7257,-40.1784"/>
<text text-anchor="middle" x="285.2846" y="-51.8" font-family="Times,serif" font-size="14.00" fill="#5b00c0">rw</text>
</g>
<!-- T14503&#45;&gt;T14505 -->
<g id="edge3" class="edge">
<title>T14503:f0&#45;&gt;T14505:f0</title>
<path fill="none" stroke="#c02700" d="M248.7846,-15C149.2748,-15 -45.4419,-52.0277 9.7846,-111 46.5748,-150.2855 890.7194,-175.0608 1004.767,-176.891"/>
<polygon fill="#c02700" stroke="#c02700" points="1004.7471,-180.3909 1014.7846,-177 1004.8233,-173.3913 1004.7471,-180.3909"/>
<text text-anchor="middle" x="19.7846" y="-92.3" font-family="Times,serif" font-size="14.00" fill="#c02700">ww</text>
</g>
</g>
</svg>
