<?xml version="1.0" encoding="UTF-8" standalone="no"?>
<!DOCTYPE svg PUBLIC "-//W3C//DTD SVG 1.1//EN"
 "http://www.w3.org/Graphics/SVG/1.1/DTD/svg11.dtd">
<!-- Generated by graphviz version 2.40.1 (20161225.0304)
 -->
<!-- Title: a_graph Pages: 1 -->
<svg width="2927pt" height="119pt"
 viewBox="0.00 0.00 2927.00 119.00" xmlns="http://www.w3.org/2000/svg" xmlns:xlink="http://www.w3.org/1999/xlink">
<g id="graph0" class="graph" transform="scale(1 1) rotate(0) translate(4 115)">
<title>a_graph</title>
<polygon fill="#ffffff" stroke="transparent" points="-4,4 -4,-115 2923,-115 2923,4 -4,4"/>
<!-- T11901 -->
<g id="node1" class="node">
<title>T11901</title>
<polygon fill="none" stroke="#0058ad" points="318.5,-81.5 318.5,-110.5 2682.5,-110.5 2682.5,-81.5 318.5,-81.5"/>
<text text-anchor="middle" x="881" y="-92.3" font-family="Times,serif" font-size="14.00" fill="#0058ad">r 61 [1 2 4 5 3 6 7 8 9 10 11 13 12 15 16 17 19 18 14 21 22 23 24 25 26 20 28 29 27 30 31 33 32 34 35 36 37 39 42 40 41 38 45 43 46 47 49 51 50 52 53 58 59 60 61 64 67 69 66 70 71 72 73 74 75 76]</text>
<polyline fill="none" stroke="#0058ad" points="1443.5,-81.5 1443.5,-110.5 "/>
<text text-anchor="middle" x="1472" y="-92.3" font-family="Times,serif" font-size="14.00" fill="#0058ad">a 4 115</text>
<polyline fill="none" stroke="#0058ad" points="1500.5,-81.5 1500.5,-110.5 "/>
<text text-anchor="middle" x="1529" y="-92.3" font-family="Times,serif" font-size="14.00" fill="#0058ad">a 62 11</text>
<polyline fill="none" stroke="#0058ad" points="1557.5,-81.5 1557.5,-110.5 "/>
<text text-anchor="middle" x="2120" y="-92.3" font-family="Times,serif" font-size="14.00" fill="#0058ad">r 61 [1 2 4 5 3 6 7 8 9 10 11 13 12 15 16 17 19 18 14 21 22 23 24 25 26 20 28 29 27 30 31 33 32 34 35 36 37 39 42 40 41 38 45 43 46 47 49 51 50 52 53 58 59 60 61 64 67 69 66 70 71 72 73 74 75 76]</text>
</g>
<!-- T11903 -->
<g id="node2" class="node">
<title>T11903</title>
<polygon fill="none" stroke="#0058ad" points="0,-.5 0,-29.5 2919,-29.5 2919,-.5 0,-.5"/>
<text text-anchor="middle" x="28.5" y="-11.3" font-family="Times,serif" font-size="14.00" fill="#0058ad">a 61 77</text>
<polyline fill="none" stroke="#0058ad" points="57,-.5 57,-29.5 "/>
<text text-anchor="middle" x="628" y="-11.3" font-family="Times,serif" font-size="14.00" fill="#0058ad">r 61 [1 2 4 5 3 6 7 8 9 10 11 13 12 15 16 17 19 18 14 21 22 23 24 25 26 20 28 29 27 30 31 33 32 34 35 36 37 39 42 40 41 38 45 43 46 47 49 51 50 52 53 58 59 60 61 64 67 69 66 70 71 72 73 74 75 76 77]</text>
<polyline fill="none" stroke="#0058ad" points="1199,-.5 1199,-29.5 "/>
<text text-anchor="middle" x="1981.5" y="-11.3" font-family="Times,serif" font-size="14.00" fill="#0058ad">r 4 [1 2 3 4 5 6 7 8 25 26 27 28 29 30 31 32 33 34 36 37 38 39 40 41 42 43 44 45 46 47 48 49 50 51 52 53 54 55 56 57 58 59 60 61 62 63 64 65 66 67 68 69 70 71 72 73 74 75 76 77 78 79 80 81 82 83 84 85 86 87 98 99 100 101 102 103 104 105 107 108 109 110 111 112 113 114]</text>
<polyline fill="none" stroke="#0058ad" points="2764,-.5 2764,-29.5 "/>
<text text-anchor="middle" x="2841.5" y="-11.3" font-family="Times,serif" font-size="14.00" fill="#0058ad">r 62 [4 3 6 7 8 5 9 10 12]</text>
</g>
<!-- T11901&#45;&gt;T11903 -->
<g id="edge1" class="edge">
<title>T11901:f0&#45;&gt;T11903:f0</title>
<path fill="none" stroke="#5b00c0" d="M318.5,-96C288.2937,-96 71.0103,-68.4667 33.8878,-38.4968"/>
<polygon fill="#5b00c0" stroke="#5b00c0" points="36.811,-36.571 28.5,-30 30.8993,-40.3196 36.811,-36.571"/>
<text text-anchor="middle" x="107" y="-51.8" font-family="Times,serif" font-size="14.00" fill="#5b00c0">rw</text>
</g>
<!-- T11903&#45;&gt;T11901 -->
<g id="edge2" class="edge">
<title>T11903:f2&#45;&gt;T11901:f1</title>
<path fill="none" stroke="#5b00c0" d="M1981.5,-30C1981.5,-254.2378 1487.313,134.308 1471.8696,-70.7804"/>
<polygon fill="#5b00c0" stroke="#5b00c0" points="1468.3638,-70.88 1471.5,-81 1475.3593,-71.1331 1468.3638,-70.88"/>
<text text-anchor="middle" x="1986" y="-51.8" font-family="Times,serif" font-size="14.00" fill="#5b00c0">rw</text>
</g>
</g>
</svg>
