<?xml version="1.0" encoding="UTF-8" standalone="no"?>
<!DOCTYPE svg PUBLIC "-//W3C//DTD SVG 1.1//EN"
 "http://www.w3.org/Graphics/SVG/1.1/DTD/svg11.dtd">
<!-- Generated by graphviz version 2.40.1 (20161225.0304)
 -->
<!-- Title: a_graph Pages: 1 -->
<svg width="2577pt" height="200pt"
 viewBox="0.00 0.00 2577.00 200.00" xmlns="http://www.w3.org/2000/svg" xmlns:xlink="http://www.w3.org/1999/xlink">
<g id="graph0" class="graph" transform="scale(1 1) rotate(0) translate(4 196)">
<title>a_graph</title>
<polygon fill="#ffffff" stroke="transparent" points="-4,4 -4,-196 2573,-196 2573,4 -4,4"/>
<!-- T13803 -->
<g id="node1" class="node">
<title>T13803</title>
<polygon fill="none" stroke="#0058ad" points="0,-162.5 0,-191.5 2569,-191.5 2569,-162.5 0,-162.5"/>
<text text-anchor="middle" x="424.5" y="-173.3" font-family="Times,serif" font-size="14.00" fill="#0058ad">r 69 [1 2 3 4 5 6 7 8 9 10 12 11 13 14 15 16 17 18 19 20 21 23 26 27 28 29 30 31 32 33 34 35 37 38 36 39 40 41 43 42 44 45 46 47 48 49 50 51 52 53]</text>
<polyline fill="none" stroke="#0058ad" points="849,-162.5 849,-191.5 "/>
<text text-anchor="middle" x="1084" y="-173.3" font-family="Times,serif" font-size="14.00" fill="#0058ad">r 72 [1 2 4 5 3 6 8 7 9 10 11 12 14 15 16 13 17 18 19 20 21 22 23 24 25 26 27 28]</text>
<polyline fill="none" stroke="#0058ad" points="1319,-162.5 1319,-191.5 "/>
<text text-anchor="middle" x="1631.5" y="-173.3" font-family="Times,serif" font-size="14.00" fill="#0058ad">r 73 [1 3 4 2 7 8 9 5 6 13 11 12 10 14 15 18 16 17 19 20 21 22 24 23 26 27 28 25 31 29 30 33 32 34 35 37 36]</text>
<polyline fill="none" stroke="#0058ad" points="1944,-162.5 1944,-191.5 "/>
<text text-anchor="middle" x="2256.5" y="-173.3" font-family="Times,serif" font-size="14.00" fill="#0058ad">r 73 [1 3 4 2 7 8 9 5 6 13 11 12 10 14 15 18 16 17 19 20 21 22 24 23 26 27 28 25 31 29 30 33 32 34 35 37 36]</text>
</g>
<!-- T13799 -->
<g id="node2" class="node">
<title>T13799</title>
<polygon fill="none" stroke="#0058ad" points="502,-81.5 502,-110.5 1011,-110.5 1011,-81.5 502,-81.5"/>
<text text-anchor="middle" x="530.5" y="-92.3" font-family="Times,serif" font-size="14.00" fill="#0058ad">a 69 54</text>
<polyline fill="none" stroke="#0058ad" points="559,-81.5 559,-110.5 "/>
<text text-anchor="middle" x="785" y="-92.3" font-family="Times,serif" font-size="14.00" fill="#0058ad">r 72 [1 2 4 5 3 6 8 7 9 10 11 12 14 15 16 13 17 18 19 20 21 22 23 24 25 26 27]</text>
</g>
<!-- T13803&#45;&gt;T13799 -->
<g id="edge1" class="edge">
<title>T13803:f0&#45;&gt;T13799:f0</title>
<path fill="none" stroke="#5b00c0" d="M424.5,-162C424.5,-120.36 451.7481,-99.3282 491.4372,-96.3657"/>
<polygon fill="#5b00c0" stroke="#5b00c0" points="491.6337,-99.8609 501.5,-96 491.3795,-92.8656 491.6337,-99.8609"/>
<text text-anchor="middle" x="440" y="-132.8" font-family="Times,serif" font-size="14.00" fill="#5b00c0">rw</text>
</g>
<!-- T13795 -->
<g id="node3" class="node">
<title>T13795</title>
<polygon fill="none" stroke="#0058ad" points="906,-.5 906,-29.5 963,-29.5 963,-.5 906,-.5"/>
<text text-anchor="middle" x="934.5" y="-11.3" font-family="Times,serif" font-size="14.00" fill="#0058ad">a 72 28</text>
</g>
<!-- T13799&#45;&gt;T13795 -->
<g id="edge2" class="edge">
<title>T13799:f1&#45;&gt;T13795:f0</title>
<path fill="none" stroke="#5b00c0" d="M1011.5,-96C1044.8587,-96 998.6794,-59.4652 964.7512,-35.4692"/>
<polygon fill="#5b00c0" stroke="#5b00c0" points="966.6478,-32.5247 956.4452,-29.6685 962.6398,-38.2637 966.6478,-32.5247"/>
<text text-anchor="middle" x="1008" y="-51.8" font-family="Times,serif" font-size="14.00" fill="#5b00c0">rw</text>
</g>
<!-- T13795&#45;&gt;T13803 -->
<g id="edge3" class="edge">
<title>T13795:f0&#45;&gt;T13803:f1</title>
<path fill="none" stroke="#c000a5" d="M961.5822,-29.608C961.8891,-29.7408 962.1951,-29.8715 962.5,-30 986.9813,-40.3172 998.8855,-31.2424 1019.5,-48 1061.8574,-82.4324 1081.1138,-101.5009 1083.2904,-151.8607"/>
<polygon fill="#c000a5" stroke="#c000a5" points="1079.794,-152.0745 1083.5,-162 1086.7925,-151.9298 1079.794,-152.0745"/>
<text text-anchor="middle" x="1084" y="-92.3" font-family="Times,serif" font-size="14.00" fill="#c000a5">wr</text>
</g>
</g>
</svg>
