<?xml version="1.0" encoding="UTF-8" standalone="no"?>
<!DOCTYPE svg PUBLIC "-//W3C//DTD SVG 1.1//EN"
 "http://www.w3.org/Graphics/SVG/1.1/DTD/svg11.dtd">
<!-- Generated by graphviz version 2.40.1 (20161225.0304)
 -->
<!-- Title: a_graph Pages: 1 -->
<svg width="5177pt" height="200pt"
 viewBox="0.00 0.00 5177.00 200.00" xmlns="http://www.w3.org/2000/svg" xmlns:xlink="http://www.w3.org/1999/xlink">
<g id="graph0" class="graph" transform="scale(1 1) rotate(0) translate(4 196)">
<title>a_graph</title>
<polygon fill="#ffffff" stroke="transparent" points="-4,4 -4,-196 5173,-196 5173,4 -4,4"/>
<!-- T4157 -->
<g id="node1" class="node">
<title>T4157</title>
<polygon fill="none" stroke="#0058ad" points="169,-162.5 169,-191.5 2842,-191.5 2842,-162.5 169,-162.5"/>
<text text-anchor="middle" x="1154.5" y="-173.3" font-family="Times,serif" font-size="14.00" fill="#0058ad">r 25 [1 2 3 4 5 6 7 8 10 11 9 12 13 14 15 16 18 20 24 21 22 23 25 27 28 29 30 26 31 32 33 34 35 36 38 39 37 40 41 42 43 44 46 47 48 50 51 52 53 55 56 57 58 59 60 61 62 63 64 67 68 69 70 73 74 75 77 78 76 81 79 80 82 83 84 85 86 87 88 89 90 91 92 93 94 95 96 97 98 99 100 101 102 103 105 104 108 109 110 106 107 111 112 113 114 117 115 116]</text>
<polyline fill="none" stroke="#0058ad" points="2140,-162.5 2140,-191.5 "/>
<text text-anchor="middle" x="2459" y="-173.3" font-family="Times,serif" font-size="14.00" fill="#0058ad">r 5 [1 2 3 4 5 6 43 44 45 46 47 48 49 50 51 52 53 54 55 56 57 58 59 60 61 62 63 64 65 66 67 68 69 70 71 72 73]</text>
<polyline fill="none" stroke="#0058ad" points="2778,-162.5 2778,-191.5 "/>
<text text-anchor="middle" x="2810" y="-173.3" font-family="Times,serif" font-size="14.00" fill="#0058ad">a 25 118</text>
</g>
<!-- T4163 -->
<g id="node2" class="node">
<title>T4163</title>
<polygon fill="none" stroke="#0058ad" points="2145.5,-81.5 2145.5,-110.5 2665.5,-110.5 2665.5,-81.5 2145.5,-81.5"/>
<text text-anchor="middle" x="2380.5" y="-92.3" font-family="Times,serif" font-size="14.00" fill="#0058ad">r 4 [1 2 3 4 5 6 7 8 25 26 27 28 29 30 31 32 33 34 36 37 38 39 40 41 42 43 44 45]</text>
<polyline fill="none" stroke="#0058ad" points="2615.5,-81.5 2615.5,-110.5 "/>
<text text-anchor="middle" x="2640.5" y="-92.3" font-family="Times,serif" font-size="14.00" fill="#0058ad">a 5 74</text>
</g>
<!-- T4157&#45;&gt;T4163 -->
<g id="edge1" class="edge">
<title>T4157:f1&#45;&gt;T4163:f1</title>
<path fill="none" stroke="#5b00c0" d="M2459.5,-162C2459.5,-82.1776 2624.6035,-184.5442 2639.4371,-121.0903"/>
<polygon fill="#5b00c0" stroke="#5b00c0" points="2642.933,-121.3117 2640.5,-111 2635.9715,-120.5783 2642.933,-121.3117"/>
<text text-anchor="middle" x="2642" y="-132.8" font-family="Times,serif" font-size="14.00" fill="#5b00c0">rw</text>
</g>
<!-- T4161 -->
<g id="node3" class="node">
<title>T4161</title>
<polygon fill="none" stroke="#0058ad" points="0,-.5 0,-29.5 5169,-29.5 5169,-.5 0,-.5"/>
<text text-anchor="middle" x="588.5" y="-11.3" font-family="Times,serif" font-size="14.00" fill="#0058ad">r 24 [1 2 3 4 5 6 9 10 7 8 11 13 12 15 14 16 17 18 19 20 21 22 23 24 26 25 27 28 29 30 31 32 34 35 36 37 39 40 41 42 43 44 45 46 47 48 49 50 51 52 53 54 56 57 60 62 63 64 65 66 67 68 69 70 71 72 73 74 75]</text>
<polyline fill="none" stroke="#0058ad" points="1177,-.5 1177,-29.5 "/>
<text text-anchor="middle" x="2162.5" y="-11.3" font-family="Times,serif" font-size="14.00" fill="#0058ad">r 25 [1 2 3 4 5 6 7 8 10 11 9 12 13 14 15 16 18 20 24 21 22 23 25 27 28 29 30 26 31 32 33 34 35 36 38 39 37 40 41 42 43 44 46 47 48 50 51 52 53 55 56 57 58 59 60 61 62 63 64 67 68 69 70 73 74 75 77 78 76 81 79 80 82 83 84 85 86 87 88 89 90 91 92 93 94 95 96 97 98 99 100 101 102 103 105 104 108 109 110 106 107 111 112 113 114 117 115 116]</text>
<polyline fill="none" stroke="#0058ad" points="3148,-.5 3148,-29.5 "/>
<text text-anchor="middle" x="3173" y="-11.3" font-family="Times,serif" font-size="14.00" fill="#0058ad">a 4 46</text>
<polyline fill="none" stroke="#0058ad" points="3198,-.5 3198,-29.5 "/>
<text text-anchor="middle" x="4183.5" y="-11.3" font-family="Times,serif" font-size="14.00" fill="#0058ad">r 25 [1 2 3 4 5 6 7 8 10 11 9 12 13 14 15 16 18 20 24 21 22 23 25 27 28 29 30 26 31 32 33 34 35 36 38 39 37 40 41 42 43 44 46 47 48 50 51 52 53 55 56 57 58 59 60 61 62 63 64 67 68 69 70 73 74 75 77 78 76 81 79 80 82 83 84 85 86 87 88 89 90 91 92 93 94 95 96 97 98 99 100 101 102 103 105 104 108 109 110 106 107 111 112 113 114 117 115 116]</text>
</g>
<!-- T4163&#45;&gt;T4161 -->
<g id="edge2" class="edge">
<title>T4163:f0&#45;&gt;T4161:f2</title>
<path fill="none" stroke="#5b00c0" d="M2380.5,-81C2380.5,81.4413 2582.4143,-58.7414 2744.5,-48 2766.2566,-46.5582 3106.6733,-52.6435 3165.0218,-35.4823"/>
<polygon fill="#5b00c0" stroke="#5b00c0" points="3167.0032,-38.3691 3173.5,-30 3163.2021,-32.491 3167.0032,-38.3691"/>
<text text-anchor="middle" x="2752" y="-51.8" font-family="Times,serif" font-size="14.00" fill="#5b00c0">rw</text>
</g>
<!-- T4161&#45;&gt;T4157 -->
<g id="edge3" class="edge">
<title>T4161:f1&#45;&gt;T4157:f2</title>
<path fill="none" stroke="#5b00c0" d="M2162.5,-30C2162.5,-63.1817 2731.9305,-29.5352 2759.5,-48 2802.7354,-76.9571 2809.7286,-103.0306 2810.4339,-151.912"/>
<polygon fill="#5b00c0" stroke="#5b00c0" points="2806.9345,-152.0232 2810.5,-162 2813.9343,-151.9773 2806.9345,-152.0232"/>
<text text-anchor="middle" x="2814" y="-92.3" font-family="Times,serif" font-size="14.00" fill="#5b00c0">rw</text>
</g>
</g>
</svg>
