<?xml version="1.0" encoding="UTF-8" standalone="no"?>
<!DOCTYPE svg PUBLIC "-//W3C//DTD SVG 1.1//EN"
 "http://www.w3.org/Graphics/SVG/1.1/DTD/svg11.dtd">
<!-- Generated by graphviz version 2.40.1 (20161225.0304)
 -->
<!-- Title: a_graph Pages: 1 -->
<svg width="3828pt" height="200pt"
 viewBox="0.00 0.00 3827.50 200.00" xmlns="http://www.w3.org/2000/svg" xmlns:xlink="http://www.w3.org/1999/xlink">
<g id="graph0" class="graph" transform="scale(1 1) rotate(0) translate(4 196)">
<title>a_graph</title>
<polygon fill="#ffffff" stroke="transparent" points="-4,4 -4,-196 3823.5,-196 3823.5,4 -4,4"/>
<!-- T11767 -->
<g id="node1" class="node">
<title>T11767</title>
<polygon fill="none" stroke="#0058ad" points="0,-162.5 0,-191.5 3473,-191.5 3473,-162.5 0,-162.5"/>
<text text-anchor="middle" x="28.5" y="-173.3" font-family="Times,serif" font-size="14.00" fill="#0058ad">a 60 27</text>
<polyline fill="none" stroke="#0058ad" points="57,-162.5 57,-191.5 "/>
<text text-anchor="middle" x="827.5" y="-173.3" font-family="Times,serif" font-size="14.00" fill="#0058ad">r 4 [1 2 3 4 5 6 7 8 25 26 27 28 29 30 31 32 33 34 36 37 38 39 40 41 42 43 44 45 46 47 48 49 50 51 52 53 54 55 56 57 58 59 60 61 62 63 64 65 66 67 68 69 70 71 72 73 74 75 76 77 78 79 80 81 82 83 84 85 86 87 98 99 100 101 102 103 104 105 107 108 109 110 111 112 113]</text>
<polyline fill="none" stroke="#0058ad" points="1598,-162.5 1598,-191.5 "/>
<text text-anchor="middle" x="2535.5" y="-173.3" font-family="Times,serif" font-size="14.00" fill="#0058ad">r 58 [1 2 3 4 5 7 8 6 9 10 11 13 14 15 12 16 17 19 18 20 21 22 23 25 26 24 27 30 33 34 31 32 28 29 35 36 37 39 41 47 48 49 50 53 54 55 56 57 58 59 60 61 62 63 65 64 66 67 68 69 70 71 72 73 74 75 76 78 77 79 80 81 83 84 85 86 87 88 82 90 91 92 93 94 95 89 97 96 98 99 100 101 102 103 104 105 107 106 108 109 110 111 112 113]</text>
</g>
<!-- T11765 -->
<g id="node2" class="node">
<title>T11765</title>
<polygon fill="none" stroke="#0058ad" points="1233.5,-81.5 1233.5,-110.5 3819.5,-110.5 3819.5,-81.5 1233.5,-81.5"/>
<text text-anchor="middle" x="1265.5" y="-92.3" font-family="Times,serif" font-size="14.00" fill="#0058ad">a 58 114</text>
<polyline fill="none" stroke="#0058ad" points="1297.5,-81.5 1297.5,-110.5 "/>
<text text-anchor="middle" x="2247" y="-92.3" font-family="Times,serif" font-size="14.00" fill="#0058ad">r 58 [1 2 3 4 5 7 8 6 9 10 11 13 14 15 12 16 17 19 18 20 21 22 23 25 26 24 27 30 33 34 31 32 28 29 35 36 37 39 41 47 48 49 50 53 54 55 56 57 58 59 60 61 62 63 65 64 66 67 68 69 70 71 72 73 74 75 76 78 77 79 80 81 83 84 85 86 87 88 82 90 91 92 93 94 95 89 97 96 98 99 100 101 102 103 104 105 107 106 108 109 110 111 112 113 114]</text>
<polyline fill="none" stroke="#0058ad" points="3196.5,-81.5 3196.5,-110.5 "/>
<text text-anchor="middle" x="3483" y="-92.3" font-family="Times,serif" font-size="14.00" fill="#0058ad">r 61 [1 2 4 5 3 6 7 8 9 10 11 13 12 15 16 17 19 18 14 21 22 23 24 25 26 20 28 29 27 30 31 33 32 34]</text>
<polyline fill="none" stroke="#0058ad" points="3769.5,-81.5 3769.5,-110.5 "/>
<text text-anchor="middle" x="3794.5" y="-92.3" font-family="Times,serif" font-size="14.00" fill="#0058ad">a 3 73</text>
</g>
<!-- T11767&#45;&gt;T11765 -->
<g id="edge1" class="edge">
<title>T11767:f2&#45;&gt;T11765:f0</title>
<path fill="none" stroke="#5b00c0" d="M2535.5,-162C2535.5,-24.3609 1329.1734,-240.7118 1267.9147,-121.0488"/>
<polygon fill="#5b00c0" stroke="#5b00c0" points="1271.2396,-119.9054 1265.5,-111 1264.4334,-121.541 1271.2396,-119.9054"/>
<text text-anchor="middle" x="2529" y="-132.8" font-family="Times,serif" font-size="14.00" fill="#5b00c0">rw</text>
</g>
<!-- T11763 -->
<g id="node3" class="node">
<title>T11763</title>
<polygon fill="none" stroke="#0058ad" points="164,-.5 164,-29.5 1293,-29.5 1293,-.5 164,-.5"/>
<text text-anchor="middle" x="381.5" y="-11.3" font-family="Times,serif" font-size="14.00" fill="#0058ad">r 60 [1 2 4 5 3 7 8 9 6 10 11 12 13 14 16 15 17 18 19 20 21 22 23 24 25 26]</text>
<polyline fill="none" stroke="#0058ad" points="599,-.5 599,-29.5 "/>
<text text-anchor="middle" x="631" y="-11.3" font-family="Times,serif" font-size="14.00" fill="#0058ad">a 58 115</text>
<polyline fill="none" stroke="#0058ad" points="663,-.5 663,-29.5 "/>
<text text-anchor="middle" x="949.5" y="-11.3" font-family="Times,serif" font-size="14.00" fill="#0058ad">r 61 [1 2 4 5 3 6 7 8 9 10 11 13 12 15 16 17 19 18 14 21 22 23 24 25 26 20 28 29 27 30 31 33 32 34]</text>
<polyline fill="none" stroke="#0058ad" points="1236,-.5 1236,-29.5 "/>
<text text-anchor="middle" x="1264.5" y="-11.3" font-family="Times,serif" font-size="14.00" fill="#0058ad">a 61 35</text>
</g>
<!-- T11765&#45;&gt;T11763 -->
<g id="edge2" class="edge">
<title>T11765:f0&#45;&gt;T11763:f1</title>
<path fill="none" stroke="#c02700" d="M1233.5,-96C1202.1036,-96 705.8311,-67.9651 638.1281,-36.8816"/>
<polygon fill="#c02700" stroke="#c02700" points="640.2695,-34.0997 630.5,-30 635.5806,-39.2972 640.2695,-34.0997"/>
<text text-anchor="middle" x="794.5" y="-51.8" font-family="Times,serif" font-size="14.00" fill="#c02700">ww</text>
</g>
<!-- T11763&#45;&gt;T11767 -->
<g id="edge3" class="edge">
<title>T11763:f0&#45;&gt;T11767:f0</title>
<path fill="none" stroke="#5b00c0" d="M163.5,-15C78.1741,-15 32.0879,-68.9398 28.7012,-151.9987"/>
<polygon fill="#5b00c0" stroke="#5b00c0" points="25.202,-151.9316 28.5,-162 32.2006,-152.0725 25.202,-151.9316"/>
<text text-anchor="middle" x="53" y="-92.3" font-family="Times,serif" font-size="14.00" fill="#5b00c0">rw</text>
</g>
</g>
</svg>
