<?xml version="1.0" encoding="UTF-8" standalone="no"?>
<!DOCTYPE svg PUBLIC "-//W3C//DTD SVG 1.1//EN"
 "http://www.w3.org/Graphics/SVG/1.1/DTD/svg11.dtd">
<!-- Generated by graphviz version 2.40.1 (20161225.0304)
 -->
<!-- Title: a_graph Pages: 1 -->
<svg width="426pt" height="119pt"
 viewBox="0.00 0.00 426.00 119.00" xmlns="http://www.w3.org/2000/svg" xmlns:xlink="http://www.w3.org/1999/xlink">
<g id="graph0" class="graph" transform="scale(1 1) rotate(0) translate(4 115)">
<title>a_graph</title>
<polygon fill="#ffffff" stroke="transparent" points="-4,4 -4,-115 422,-115 422,4 -4,4"/>
<!-- T7989 -->
<g id="node1" class="node">
<title>T7989</title>
<polygon fill="none" stroke="#0058ad" points="0,-81.5 0,-110.5 418,-110.5 418,-81.5 0,-81.5"/>
<text text-anchor="middle" x="209" y="-92.3" font-family="Times,serif" font-size="14.00" fill="#0058ad">r 44 [1 2 3 4 5 6 7 8 9 10 11 12 13 17 14 20 15 16 21 22 24 23 26 28 27]</text>
</g>
<!-- T7983 -->
<g id="node2" class="node">
<title>T7983</title>
<polygon fill="none" stroke="#0058ad" points="109,-.5 109,-29.5 337,-29.5 337,-.5 109,-.5"/>
<text text-anchor="middle" x="137.5" y="-11.3" font-family="Times,serif" font-size="14.00" fill="#0058ad">a 43 14</text>
<polyline fill="none" stroke="#0058ad" points="166,-.5 166,-29.5 "/>
<text text-anchor="middle" x="194.5" y="-11.3" font-family="Times,serif" font-size="14.00" fill="#0058ad">a 44 30</text>
<polyline fill="none" stroke="#0058ad" points="223,-.5 223,-29.5 "/>
<text text-anchor="middle" x="251.5" y="-11.3" font-family="Times,serif" font-size="14.00" fill="#0058ad">a 44 31</text>
<polyline fill="none" stroke="#0058ad" points="280,-.5 280,-29.5 "/>
<text text-anchor="middle" x="308.5" y="-11.3" font-family="Times,serif" font-size="14.00" fill="#0058ad">a 44 32</text>
</g>
<!-- T7989&#45;&gt;T7983 -->
<g id="edge1" class="edge">
<title>T7989:f0&#45;&gt;T7983:f1</title>
<path fill="none" stroke="#5b00c0" d="M198.8903,-81.217C195.7118,-75.7424 192.6125,-69.3237 191,-63 188.3845,-52.7431 191.0786,-47.7907 192.8009,-40.348"/>
<polygon fill="#5b00c0" stroke="#5b00c0" points="196.3256,-40.3364 194,-30 189.3721,-39.5306 196.3256,-40.3364"/>
<text text-anchor="middle" x="198.5" y="-51.8" font-family="Times,serif" font-size="14.00" fill="#5b00c0">rw</text>
</g>
<!-- T7983&#45;&gt;T7989 -->
<g id="edge2" class="edge">
<title>T7983&#45;&gt;T7989</title>
<path fill="none" stroke="#0050c0" d="M220.4485,-29.7625C218.4597,-41.2689 215.653,-57.5079 213.3163,-71.0269"/>
<polygon fill="#0050c0" stroke="#0050c0" points="209.8222,-70.6933 211.5678,-81.1434 216.7199,-71.8856 209.8222,-70.6933"/>
<text text-anchor="middle" x="221.5" y="-51.8" font-family="Times,serif" font-size="14.00" fill="#0050c0">rt</text>
</g>
</g>
</svg>
