<?xml version="1.0" encoding="UTF-8" standalone="no"?>
<!DOCTYPE svg PUBLIC "-//W3C//DTD SVG 1.1//EN"
 "http://www.w3.org/Graphics/SVG/1.1/DTD/svg11.dtd">
<!-- Generated by graphviz version 2.40.1 (20161225.0304)
 -->
<!-- Title: a_graph Pages: 1 -->
<svg width="1116pt" height="200pt"
 viewBox="0.00 0.00 1116.00 200.00" xmlns="http://www.w3.org/2000/svg" xmlns:xlink="http://www.w3.org/1999/xlink">
<g id="graph0" class="graph" transform="scale(1 1) rotate(0) translate(4 196)">
<title>a_graph</title>
<polygon fill="#ffffff" stroke="transparent" points="-4,4 -4,-196 1112,-196 1112,4 -4,4"/>
<!-- T19947 -->
<g id="node1" class="node">
<title>T19947</title>
<polygon fill="none" stroke="#0058ad" points="0,-162.5 0,-191.5 1108,-191.5 1108,-162.5 0,-162.5"/>
<text text-anchor="middle" x="554" y="-173.3" font-family="Times,serif" font-size="14.00" fill="#0058ad">r 97 [1 2 3 4 5 6 7 8 9 10 11 12 13 14 15 16 17 18 19 20 21 22 23 24 25 26 27 28 29 30 31 32 33 34 35 36 37 38 39 40 41 42 43 46 47 48 49 50 51 52 53 54 55 56 58 59 60 63 66 67 68 69 70 71 72]</text>
</g>
<!-- T19938 -->
<g id="node2" class="node">
<title>T19938</title>
<polygon fill="none" stroke="#0058ad" points="492.5,-81.5 492.5,-110.5 549.5,-110.5 549.5,-81.5 492.5,-81.5"/>
<text text-anchor="middle" x="521" y="-92.3" font-family="Times,serif" font-size="14.00" fill="#0058ad">a 97 73</text>
</g>
<!-- T19947&#45;&gt;T19938 -->
<g id="edge1" class="edge">
<title>T19947:f0&#45;&gt;T19938:f0</title>
<path fill="none" stroke="#5b00c0" d="M547.9473,-162.1434C543.156,-150.3828 536.368,-133.7216 530.8037,-120.0637"/>
<polygon fill="#5b00c0" stroke="#5b00c0" points="534.0287,-118.7028 527.0143,-110.7625 527.546,-121.344 534.0287,-118.7028"/>
<text text-anchor="middle" x="548.5" y="-132.8" font-family="Times,serif" font-size="14.00" fill="#5b00c0">rw</text>
</g>
<!-- T19941 -->
<g id="node3" class="node">
<title>T19941</title>
<polygon fill="none" stroke="#0058ad" points="485,-.5 485,-29.5 623,-29.5 623,-.5 485,-.5"/>
<text text-anchor="middle" x="554" y="-11.3" font-family="Times,serif" font-size="14.00" fill="#0058ad">r 100 [1 2 3 5 6 7 8 9]</text>
</g>
<!-- T19938&#45;&gt;T19941 -->
<g id="edge2" class="edge">
<title>T19938&#45;&gt;T19941</title>
<path fill="none" stroke="#0050c0" d="M527.0527,-81.1434C531.844,-69.3828 538.632,-52.7216 544.1963,-39.0637"/>
<polygon fill="#0050c0" stroke="#0050c0" points="547.454,-40.344 547.9857,-29.7625 540.9713,-37.7028 547.454,-40.344"/>
<text text-anchor="middle" x="545.5" y="-51.8" font-family="Times,serif" font-size="14.00" fill="#0050c0">rt</text>
</g>
<!-- T19941&#45;&gt;T19947 -->
<g id="edge3" class="edge">
<title>T19941&#45;&gt;T19947</title>
<path fill="none" stroke="#0050c0" d="M555.9881,-29.7314C558.9327,-53.7182 563.7249,-102.6905 560,-144 559.7536,-146.733 559.3945,-149.5781 558.9727,-152.4014"/>
<polygon fill="#0050c0" stroke="#0050c0" points="555.5176,-151.842 557.2587,-162.2928 562.4148,-153.0373 555.5176,-151.842"/>
<text text-anchor="middle" x="566.5" y="-92.3" font-family="Times,serif" font-size="14.00" fill="#0050c0">rt</text>
</g>
</g>
</svg>
