<?xml version="1.0" encoding="UTF-8" standalone="no"?>
<!DOCTYPE svg PUBLIC "-//W3C//DTD SVG 1.1//EN"
 "http://www.w3.org/Graphics/SVG/1.1/DTD/svg11.dtd">
<!-- Generated by graphviz version 2.40.1 (20161225.0304)
 -->
<!-- Title: a_graph Pages: 1 -->
<svg width="2863pt" height="200pt"
 viewBox="0.00 0.00 2863.00 200.00" xmlns="http://www.w3.org/2000/svg" xmlns:xlink="http://www.w3.org/1999/xlink">
<g id="graph0" class="graph" transform="scale(1 1) rotate(0) translate(4 196)">
<title>a_graph</title>
<polygon fill="#ffffff" stroke="transparent" points="-4,4 -4,-196 2859,-196 2859,4 -4,4"/>
<!-- T37891 -->
<g id="node1" class="node">
<title>T37891</title>
<polygon fill="none" stroke="#0058ad" points="866,-162.5 866,-191.5 2032,-191.5 2032,-162.5 866,-162.5"/>
<text text-anchor="middle" x="1449" y="-173.3" font-family="Times,serif" font-size="14.00" fill="#0058ad">r 188 [1 3 4 5 2 6 8 7 9 10 13 14 15 11 12 16 17 18 19 21 20 22 23 28 29 25 26 31 24 34 32 33 35 36 37 38 39 40 41 42 43 44 45 46 49 50 51 52 53 59 60 64 65 66 67 68 69 70 61 62 71 75 76 72 73 74 78 77]</text>
</g>
<!-- T37885 -->
<g id="node2" class="node">
<title>T37885</title>
<polygon fill="none" stroke="#0058ad" points="0,-81.5 0,-110.5 2830,-110.5 2830,-81.5 0,-81.5"/>
<text text-anchor="middle" x="32" y="-92.3" font-family="Times,serif" font-size="14.00" fill="#0058ad">a 188 80</text>
<polyline fill="none" stroke="#0058ad" points="64,-81.5 64,-110.5 "/>
<text text-anchor="middle" x="96" y="-92.3" font-family="Times,serif" font-size="14.00" fill="#0058ad">a 188 81</text>
<polyline fill="none" stroke="#0058ad" points="128,-81.5 128,-110.5 "/>
<text text-anchor="middle" x="728.5" y="-92.3" font-family="Times,serif" font-size="14.00" fill="#0058ad">r 188 [1 3 4 5 2 6 8 7 9 10 13 14 15 11 12 16 17 18 19 21 20 22 23 28 29 25 26 31 24 34 32 33 35 36 37 38 39 40 41 42 43 44 45 46 49 50 51 52 53 59 60 64 65 66 67 68 69 70 61 62 71 75 76 72 73 74 78 77 80 81]</text>
<polyline fill="none" stroke="#0058ad" points="1329,-81.5 1329,-110.5 "/>
<text text-anchor="middle" x="2079.5" y="-92.3" font-family="Times,serif" font-size="14.00" fill="#0058ad">r 182 [2 3 4 5 7 6 8 9 10 11 12 13 14 15 16 17 18 19 20 21 22 23 24 25 26 28 29 30 31 32 33 34 35 36 37 38 39 40 41 43 42 44 45 46 47 48 50 52 51 53 55 54 56 57 58 59 60 61 62 63 64 66 67 68 69 70 71 72 73 74 75 76 77 79 78 80 81 83 82 84 85 86 87 89 91 92 93]</text>
</g>
<!-- T37891&#45;&gt;T37885 -->
<g id="edge1" class="edge">
<title>T37891:f0&#45;&gt;T37885:f0</title>
<path fill="none" stroke="#5b00c0" d="M1032.9503,-162.4974C646.714,-148.3763 119.8402,-127.1795 41.8152,-114.0694"/>
<polygon fill="#5b00c0" stroke="#5b00c0" points="42.5889,-110.6443 32,-111 40.4995,-117.3252 42.5889,-110.6443"/>
<text text-anchor="middle" x="538.5" y="-132.8" font-family="Times,serif" font-size="14.00" fill="#5b00c0">rw</text>
</g>
<!-- T37889 -->
<g id="node3" class="node">
<title>T37889</title>
<polygon fill="none" stroke="#0058ad" points="1433.5,-.5 1433.5,-29.5 2848.5,-29.5 2848.5,-.5 1433.5,-.5"/>
<text text-anchor="middle" x="2141" y="-11.3" font-family="Times,serif" font-size="14.00" fill="#0058ad">r 187 [3 1 2 4 5 6 9 10 7 11 12 14 15 16 17 18 20 19 21 23 22 25 26 27 28 29 30 31 32 33 34 35 36 37 38 39 40 41 42 43 44 45 48 47 46 51 52 53 50 54 56 55 58 57 59 60 62 61 63 64 65 66 67 68 74 75 69 70 77 78 79 80 82 84 85 86 87 88 83 89 90 91]</text>
</g>
<!-- T37885&#45;&gt;T37889 -->
<g id="edge2" class="edge">
<title>T37885&#45;&gt;T37889</title>
<path fill="none" stroke="#0050c0" d="M1545.2133,-81.4721C1673.5678,-67.1515 1869.0859,-45.3375 2000.7948,-30.6427"/>
<polygon fill="#0050c0" stroke="#0050c0" points="2001.4062,-34.0963 2010.9564,-29.509 2000.63,-27.1395 2001.4062,-34.0963"/>
<text text-anchor="middle" x="1848.5" y="-51.8" font-family="Times,serif" font-size="14.00" fill="#0050c0">rt</text>
</g>
<!-- T37889&#45;&gt;T37891 -->
<g id="edge3" class="edge">
<title>T37889&#45;&gt;T37891</title>
<path fill="none" stroke="#0050c0" d="M2522.5337,-29.5174C2672.8241,-39.2384 2815.4996,-55.1727 2839,-81 2847.9734,-90.8619 2848.2018,-101.3509 2839,-111 2810.1832,-141.2176 2407.0081,-158.0469 2042.2692,-167.1353"/>
<polygon fill="#0050c0" stroke="#0050c0" points="2041.9435,-163.6422 2032.0332,-167.3886 2042.1167,-170.64 2041.9435,-163.6422"/>
<text text-anchor="middle" x="2850.5" y="-92.3" font-family="Times,serif" font-size="14.00" fill="#0050c0">rt</text>
</g>
</g>
</svg>
