<?xml version="1.0" encoding="UTF-8" standalone="no"?>
<!DOCTYPE svg PUBLIC "-//W3C//DTD SVG 1.1//EN"
 "http://www.w3.org/Graphics/SVG/1.1/DTD/svg11.dtd">
<!-- Generated by graphviz version 2.40.1 (20161225.0304)
 -->
<!-- Title: a_graph Pages: 1 -->
<svg width="1543pt" height="200pt"
 viewBox="0.00 0.00 1543.00 200.00" xmlns="http://www.w3.org/2000/svg" xmlns:xlink="http://www.w3.org/1999/xlink">
<g id="graph0" class="graph" transform="scale(1 1) rotate(0) translate(4 196)">
<title>a_graph</title>
<polygon fill="#ffffff" stroke="transparent" points="-4,4 -4,-196 1539,-196 1539,4 -4,4"/>
<!-- T676 -->
<g id="node1" class="node">
<title>T676</title>
<polygon fill="none" stroke="#0058ad" points="0,-162.5 0,-191.5 1535,-191.5 1535,-162.5 0,-162.5"/>
<text text-anchor="middle" x="767.5" y="-173.3" font-family="Times,serif" font-size="14.00" fill="#0058ad">r 8 [2 5 6 7 8 9 10 11 12 13 14 15 16 17 18 19 20 21 22 23 24 25 26 27 28 29 30 31 32 34 35 33 36 37 38 39 40 41 42 43 44 46 47 45 48 51 53 55 54 57 60 61 62 63 64 65 66 67 68 71 69 70 72 73 74 75 76 77 79 78 80 81 82 83 84 85 86 87 88 89 90 91 92 93 95 96 94 97 98]</text>
</g>
<!-- T671 -->
<g id="node3" class="node">
<title>T671</title>
<polygon fill="none" stroke="#0058ad" points="648.5,-81.5 648.5,-110.5 824.5,-110.5 824.5,-81.5 648.5,-81.5"/>
<text text-anchor="middle" x="673.5" y="-92.3" font-family="Times,serif" font-size="14.00" fill="#0058ad">a 8 99</text>
<polyline fill="none" stroke="#0058ad" points="698.5,-81.5 698.5,-110.5 "/>
<text text-anchor="middle" x="729.5" y="-92.3" font-family="Times,serif" font-size="14.00" fill="#0058ad">r 3 [1 2]</text>
<polyline fill="none" stroke="#0058ad" points="760.5,-81.5 760.5,-110.5 "/>
<text text-anchor="middle" x="792.5" y="-92.3" font-family="Times,serif" font-size="14.00" fill="#0058ad">a 10 103</text>
</g>
<!-- T676&#45;&gt;T671 -->
<g id="edge1" class="edge">
<title>T676:f0&#45;&gt;T671:f0</title>
<path fill="none" stroke="#5b00c0" d="M718.848,-162.4207C699.1368,-153.6762 679.8136,-140.3939 674.7687,-121.0117"/>
<polygon fill="#5b00c0" stroke="#5b00c0" points="678.2295,-120.4806 673.5,-111 671.285,-121.3607 678.2295,-120.4806"/>
<text text-anchor="middle" x="697" y="-132.8" font-family="Times,serif" font-size="14.00" fill="#5b00c0">rw</text>
</g>
<!-- T673 -->
<g id="node2" class="node">
<title>T673</title>
<polygon fill="none" stroke="#0058ad" points="445,-.5 445,-29.5 1152,-29.5 1152,-.5 445,-.5"/>
<text text-anchor="middle" x="798.5" y="-11.3" font-family="Times,serif" font-size="14.00" fill="#0058ad">r 7 [2 5 6 7 8 9 10 11 13 12 14 15 16 17 18 19 23 24 25 26 27 28 29 30 31 32 33 34 35 36 37 38 39 41 40 42 43 44 45 47 46]</text>
</g>
<!-- T673&#45;&gt;T676 -->
<g id="edge2" class="edge">
<title>T673&#45;&gt;T676</title>
<path fill="none" stroke="#0050c0" d="M810.8554,-29.7889C825.1318,-48.7731 845.2445,-82.6463 833.5,-111 826.0871,-128.8962 811.2064,-144.47 797.4483,-155.988"/>
<polygon fill="#0050c0" stroke="#0050c0" points="795.1819,-153.3187 789.5424,-162.2879 799.5443,-158.7931 795.1819,-153.3187"/>
<text text-anchor="middle" x="842" y="-92.3" font-family="Times,serif" font-size="14.00" fill="#0050c0">rt</text>
</g>
<!-- T671&#45;&gt;T673 -->
<g id="edge3" class="edge">
<title>T671&#45;&gt;T673</title>
<path fill="none" stroke="#0050c0" d="M747.8718,-81.1434C757.1358,-69.0403 770.3728,-51.7468 780.9884,-37.8781"/>
<polygon fill="#0050c0" stroke="#0050c0" points="783.9014,-39.8306 787.2003,-29.7625 778.3429,-35.5759 783.9014,-39.8306"/>
<text text-anchor="middle" x="778" y="-51.8" font-family="Times,serif" font-size="14.00" fill="#0050c0">rt</text>
</g>
</g>
</svg>
