<?xml version="1.0" encoding="UTF-8" standalone="no"?>
<!DOCTYPE svg PUBLIC "-//W3C//DTD SVG 1.1//EN"
 "http://www.w3.org/Graphics/SVG/1.1/DTD/svg11.dtd">
<!-- Generated by graphviz version 2.40.1 (20161225.0304)
 -->
<!-- Title: a_graph Pages: 1 -->
<svg width="552pt" height="119pt"
 viewBox="0.00 0.00 552.00 119.00" xmlns="http://www.w3.org/2000/svg" xmlns:xlink="http://www.w3.org/1999/xlink">
<g id="graph0" class="graph" transform="scale(1 1) rotate(0) translate(4 115)">
<title>a_graph</title>
<polygon fill="#ffffff" stroke="transparent" points="-4,4 -4,-115 548,-115 548,4 -4,4"/>
<!-- T37375 -->
<g id="node1" class="node">
<title>T37375</title>
<polygon fill="none" stroke="#0058ad" points="4,-81.5 4,-110.5 360,-110.5 360,-81.5 4,-81.5"/>
<text text-anchor="middle" x="182" y="-92.3" font-family="Times,serif" font-size="14.00" fill="#0058ad">r 186 [1 2 3 4 5 7 8 9 6 13 10 11 12 14 16 17 18 20 15 19 21]</text>
</g>
<!-- T37371 -->
<g id="node2" class="node">
<title>T37371</title>
<polygon fill="none" stroke="#0058ad" points="0,-.5 0,-29.5 544,-29.5 544,-.5 0,-.5"/>
<text text-anchor="middle" x="53.5" y="-11.3" font-family="Times,serif" font-size="14.00" fill="#0058ad">r 187 [3 1 2 4 5]</text>
<polyline fill="none" stroke="#0058ad" points="107,-.5 107,-29.5 "/>
<text text-anchor="middle" x="139" y="-11.3" font-family="Times,serif" font-size="14.00" fill="#0058ad">a 186 24</text>
<polyline fill="none" stroke="#0058ad" points="171,-.5 171,-29.5 "/>
<text text-anchor="middle" x="357.5" y="-11.3" font-family="Times,serif" font-size="14.00" fill="#0058ad">r 186 [1 2 3 4 5 7 8 9 6 13 10 11 12 14 16 17 18 20 15 19 21 24]</text>
</g>
<!-- T37375&#45;&gt;T37371 -->
<g id="edge1" class="edge">
<title>T37375:f0&#45;&gt;T37371:f1</title>
<path fill="none" stroke="#5b00c0" d="M165.4981,-81.4783C155.456,-71.2578 143.874,-56.542 140.1893,-40.2907"/>
<polygon fill="#5b00c0" stroke="#5b00c0" points="143.625,-39.532 139,-30 136.6713,-40.3357 143.625,-39.532"/>
<text text-anchor="middle" x="157.5" y="-51.8" font-family="Times,serif" font-size="14.00" fill="#5b00c0">rw</text>
</g>
<!-- T37371&#45;&gt;T37375 -->
<g id="edge2" class="edge">
<title>T37371&#45;&gt;T37375</title>
<path fill="none" stroke="#0050c0" d="M255.5973,-29.7625C241.7997,-42.1803 221.8777,-60.1101 206.2395,-74.1844"/>
<polygon fill="#0050c0" stroke="#0050c0" points="203.599,-71.8521 198.5074,-81.1434 208.2817,-77.0552 203.599,-71.8521"/>
<text text-anchor="middle" x="239.5" y="-51.8" font-family="Times,serif" font-size="14.00" fill="#0050c0">rt</text>
</g>
</g>
</svg>
