<?xml version="1.0" encoding="UTF-8" standalone="no"?>
<!DOCTYPE svg PUBLIC "-//W3C//DTD SVG 1.1//EN"
 "http://www.w3.org/Graphics/SVG/1.1/DTD/svg11.dtd">
<!-- Generated by graphviz version 2.40.1 (20161225.0304)
 -->
<!-- Title: a_graph Pages: 1 -->
<svg width="1914pt" height="524pt"
 viewBox="0.00 0.00 1914.00 524.00" xmlns="http://www.w3.org/2000/svg" xmlns:xlink="http://www.w3.org/1999/xlink">
<g id="graph0" class="graph" transform="scale(1 1) rotate(0) translate(4 520)">
<title>a_graph</title>
<polygon fill="#ffffff" stroke="transparent" points="-4,4 -4,-520 1910,-520 1910,4 -4,4"/>
<!-- T34542 -->
<g id="node1" class="node">
<title>T34542</title>
<polygon fill="none" stroke="#0058ad" points="1778,-486.5 1778,-515.5 1906,-515.5 1906,-486.5 1778,-486.5"/>
<text text-anchor="middle" x="1810" y="-497.3" font-family="Times,serif" font-size="14.00" fill="#0058ad">a 173 57</text>
<polyline fill="none" stroke="#0058ad" points="1842,-486.5 1842,-515.5 "/>
<text text-anchor="middle" x="1874" y="-497.3" font-family="Times,serif" font-size="14.00" fill="#0058ad">a 172 48</text>
</g>
<!-- T34593 -->
<g id="node2" class="node">
<title>T34593</title>
<polygon fill="none" stroke="#0058ad" points="1694,-405.5 1694,-434.5 1752,-434.5 1752,-405.5 1694,-405.5"/>
<text text-anchor="middle" x="1723" y="-416.3" font-family="Times,serif" font-size="14.00" fill="#0058ad">r 173 []</text>
</g>
<!-- T34542&#45;&gt;T34593 -->
<g id="edge1" class="edge">
<title>T34542&#45;&gt;T34593</title>
<path fill="none" stroke="#0050c0" d="M1820.45,-486.3315C1801.4948,-473.4292 1773.7205,-454.524 1752.6679,-440.1941"/>
<polygon fill="#0050c0" stroke="#0050c0" points="1754.6258,-437.293 1744.3897,-434.5594 1750.6869,-443.0797 1754.6258,-437.293"/>
<text text-anchor="middle" x="1798.5" y="-456.8" font-family="Times,serif" font-size="14.00" fill="#0050c0">rt</text>
</g>
<!-- T34361 -->
<g id="node4" class="node">
<title>T34361</title>
<polygon fill="none" stroke="#0058ad" points="1303.5,-324.5 1303.5,-353.5 1482.5,-353.5 1482.5,-324.5 1303.5,-324.5"/>
<text text-anchor="middle" x="1332.5" y="-335.3" font-family="Times,serif" font-size="14.00" fill="#0058ad">r 173 []</text>
<polyline fill="none" stroke="#0058ad" points="1361.5,-324.5 1361.5,-353.5 "/>
<text text-anchor="middle" x="1393.5" y="-335.3" font-family="Times,serif" font-size="14.00" fill="#0058ad">a 170 21</text>
<polyline fill="none" stroke="#0058ad" points="1425.5,-324.5 1425.5,-353.5 "/>
<text text-anchor="middle" x="1454" y="-335.3" font-family="Times,serif" font-size="14.00" fill="#0058ad">a 173 1</text>
</g>
<!-- T34593&#45;&gt;T34361 -->
<g id="edge2" class="edge">
<title>T34593:f0&#45;&gt;T34361:f2</title>
<path fill="none" stroke="#5b00c0" d="M1697.6722,-405.3315C1656.6619,-382.9469 1572.3095,-342.4934 1493.1276,-339.2126"/>
<polygon fill="#5b00c0" stroke="#5b00c0" points="1493.0713,-335.7108 1483,-339 1492.9243,-342.7092 1493.0713,-335.7108"/>
<text text-anchor="middle" x="1669.5" y="-375.8" font-family="Times,serif" font-size="14.00" fill="#5b00c0">rw</text>
</g>
<!-- T34429 -->
<g id="node3" class="node">
<title>T34429</title>
<polygon fill="none" stroke="#0058ad" points="0,-162.5 0,-191.5 256,-191.5 256,-162.5 0,-162.5"/>
<text text-anchor="middle" x="32" y="-173.3" font-family="Times,serif" font-size="14.00" fill="#0058ad">a 172 25</text>
<polyline fill="none" stroke="#0058ad" points="64,-162.5 64,-191.5 "/>
<text text-anchor="middle" x="96" y="-173.3" font-family="Times,serif" font-size="14.00" fill="#0058ad">a 173 16</text>
<polyline fill="none" stroke="#0058ad" points="128,-162.5 128,-191.5 "/>
<text text-anchor="middle" x="160" y="-173.3" font-family="Times,serif" font-size="14.00" fill="#0058ad">a 166 99</text>
<polyline fill="none" stroke="#0058ad" points="192,-162.5 192,-191.5 "/>
<text text-anchor="middle" x="224" y="-173.3" font-family="Times,serif" font-size="14.00" fill="#0058ad">a 163 35</text>
</g>
<!-- T34528 -->
<g id="node5" class="node">
<title>T34528</title>
<polygon fill="none" stroke="#0058ad" points="57.5,-81.5 57.5,-110.5 1842.5,-110.5 1842.5,-81.5 57.5,-81.5"/>
<text text-anchor="middle" x="89.5" y="-92.3" font-family="Times,serif" font-size="14.00" fill="#0058ad">a 163 36</text>
<polyline fill="none" stroke="#0058ad" points="121.5,-81.5 121.5,-110.5 "/>
<text text-anchor="middle" x="982" y="-92.3" font-family="Times,serif" font-size="14.00" fill="#0058ad">r 166 [1 2 4 5 6 7 8 9 10 11 13 14 15 16 17 18 19 21 22 24 20 26 25 27 28 30 29 32 31 35 34 36 37 38 40 41 43 45 46 47 48 49 50 51 52 53 54 57 56 58 59 60 61 62 63 64 65 66 67 68 69 70 71 72 73 74 75 76 77 78 80 81 82 83 84 85 86 87 88 89 90 92 91 93 94 95 97 96 98 99 100 101 102 103 104 105 106]</text>
</g>
<!-- T34429&#45;&gt;T34528 -->
<g id="edge3" class="edge">
<title>T34429:f3&#45;&gt;T34528:f0</title>
<path fill="none" stroke="#c02700" d="M224,-162C224,-101.7447 104.8528,-166.2993 90.4248,-121.1577"/>
<polygon fill="#c02700" stroke="#c02700" points="93.8552,-120.4169 89,-111 86.9231,-121.3893 93.8552,-120.4169"/>
<text text-anchor="middle" x="227" y="-132.8" font-family="Times,serif" font-size="14.00" fill="#c02700">ww</text>
</g>
<!-- T34369 -->
<g id="node7" class="node">
<title>T34369</title>
<polygon fill="none" stroke="#0058ad" points="997.5,-243.5 997.5,-272.5 1700.5,-272.5 1700.5,-243.5 997.5,-243.5"/>
<text text-anchor="middle" x="1029.5" y="-254.3" font-family="Times,serif" font-size="14.00" fill="#0058ad">a 163 34</text>
<polyline fill="none" stroke="#0058ad" points="1061.5,-243.5 1061.5,-272.5 "/>
<text text-anchor="middle" x="1094" y="-254.3" font-family="Times,serif" font-size="14.00" fill="#0058ad">r 173 [1]</text>
<polyline fill="none" stroke="#0058ad" points="1126.5,-243.5 1126.5,-272.5 "/>
<text text-anchor="middle" x="1270" y="-254.3" font-family="Times,serif" font-size="14.00" fill="#0058ad">r 172 [1 2 3 4 5 6 7 8 9 10 11 13 16 17 15 18 19]</text>
<polyline fill="none" stroke="#0058ad" points="1413.5,-243.5 1413.5,-272.5 "/>
<text text-anchor="middle" x="1557" y="-254.3" font-family="Times,serif" font-size="14.00" fill="#0058ad">r 172 [1 2 3 4 5 6 7 8 9 10 11 13 16 17 15 18 19]</text>
</g>
<!-- T34361&#45;&gt;T34369 -->
<g id="edge4" class="edge">
<title>T34361:f2&#45;&gt;T34369:f1</title>
<path fill="none" stroke="#c000a5" d="M1454,-324C1454,-166.0321 1109.9903,-422.5889 1094.5367,-283.2422"/>
<polygon fill="#c000a5" stroke="#c000a5" points="1098.0186,-282.8031 1094,-273 1091.0282,-283.1695 1098.0186,-282.8031"/>
<text text-anchor="middle" x="1458.5" y="-294.8" font-family="Times,serif" font-size="14.00" fill="#c000a5">wr</text>
</g>
<!-- T34534 -->
<g id="node6" class="node">
<title>T34534</title>
<polygon fill="none" stroke="#0058ad" points="1314,-.5 1314,-29.5 1506,-29.5 1506,-.5 1314,-.5"/>
<text text-anchor="middle" x="1346" y="-11.3" font-family="Times,serif" font-size="14.00" fill="#0058ad">a 173 52</text>
<polyline fill="none" stroke="#0058ad" points="1378,-.5 1378,-29.5 "/>
<text text-anchor="middle" x="1410" y="-11.3" font-family="Times,serif" font-size="14.00" fill="#0058ad">a 173 53</text>
<polyline fill="none" stroke="#0058ad" points="1442,-.5 1442,-29.5 "/>
<text text-anchor="middle" x="1474" y="-11.3" font-family="Times,serif" font-size="14.00" fill="#0058ad">a 173 54</text>
</g>
<!-- T34528&#45;&gt;T34534 -->
<g id="edge5" class="edge">
<title>T34528&#45;&gt;T34534</title>
<path fill="none" stroke="#0050c0" d="M1032.5043,-81.4721C1112.6279,-67.3634 1234.0572,-45.9812 1317.4353,-31.2994"/>
<polygon fill="#0050c0" stroke="#0050c0" points="1318.1678,-34.7244 1327.4093,-29.5431 1316.9539,-27.8304 1318.1678,-34.7244"/>
<text text-anchor="middle" x="1226.5" y="-51.8" font-family="Times,serif" font-size="14.00" fill="#0050c0">rt</text>
</g>
<!-- T34534&#45;&gt;T34542 -->
<g id="edge6" class="edge">
<title>T34534&#45;&gt;T34542</title>
<path fill="none" stroke="#0050c0" d="M1506.151,-22.4078C1641.001,-34.1137 1870,-59.3829 1870,-96 1870,-420 1870,-420 1870,-420 1870,-440.0843 1862.2152,-461.5086 1854.8553,-477.2758"/>
<polygon fill="#0050c0" stroke="#0050c0" points="1851.6889,-475.7832 1850.4009,-486.2995 1857.9658,-478.8817 1851.6889,-475.7832"/>
<text text-anchor="middle" x="1874.5" y="-254.3" font-family="Times,serif" font-size="14.00" fill="#0050c0">rt</text>
</g>
<!-- T34369&#45;&gt;T34429 -->
<g id="edge7" class="edge">
<title>T34369:f0&#45;&gt;T34429:f3</title>
<path fill="none" stroke="#c02700" d="M997,-258C669.102,-258 588.9297,-178.6526 266.112,-177.0254"/>
<polygon fill="#c02700" stroke="#c02700" points="266.0088,-173.5252 256,-177 265.9912,-180.5252 266.0088,-173.5252"/>
<text text-anchor="middle" x="674" y="-213.8" font-family="Times,serif" font-size="14.00" fill="#c02700">ww</text>
</g>
</g>
</svg>
