<?xml version="1.0" encoding="UTF-8" standalone="no"?>
<!DOCTYPE svg PUBLIC "-//W3C//DTD SVG 1.1//EN"
 "http://www.w3.org/Graphics/SVG/1.1/DTD/svg11.dtd">
<!-- Generated by graphviz version 2.40.1 (20161225.0304)
 -->
<!-- Title: a_graph Pages: 1 -->
<svg width="1838pt" height="281pt"
 viewBox="0.00 0.00 1837.50 281.00" xmlns="http://www.w3.org/2000/svg" xmlns:xlink="http://www.w3.org/1999/xlink">
<g id="graph0" class="graph" transform="scale(1 1) rotate(0) translate(4 277)">
<title>a_graph</title>
<polygon fill="#ffffff" stroke="transparent" points="-4,4 -4,-277 1833.5,-277 1833.5,4 -4,4"/>
<!-- T15517 -->
<g id="node1" class="node">
<title>T15517</title>
<polygon fill="none" stroke="#0058ad" points="609.5,-243.5 609.5,-272.5 716.5,-272.5 716.5,-243.5 609.5,-243.5"/>
<text text-anchor="middle" x="634.5" y="-254.3" font-family="Times,serif" font-size="14.00" fill="#0058ad">a 81 9</text>
<polyline fill="none" stroke="#0058ad" points="659.5,-243.5 659.5,-272.5 "/>
<text text-anchor="middle" x="688" y="-254.3" font-family="Times,serif" font-size="14.00" fill="#0058ad">a 79 98</text>
</g>
<!-- T15531 -->
<g id="node3" class="node">
<title>T15531</title>
<polygon fill="none" stroke="#0058ad" points="455,-162.5 455,-191.5 669,-191.5 669,-162.5 455,-162.5"/>
<text text-anchor="middle" x="562" y="-173.3" font-family="Times,serif" font-size="14.00" fill="#0058ad">r 80 [4 7 5 6 8 10 11 9 12 13 14 15]</text>
</g>
<!-- T15517&#45;&gt;T15531 -->
<g id="edge1" class="edge">
<title>T15517&#45;&gt;T15531</title>
<path fill="none" stroke="#0050c0" d="M644.475,-243.1434C628.8141,-230.5836 606.1835,-212.4343 588.5881,-198.3232"/>
<polygon fill="#0050c0" stroke="#0050c0" points="590.3984,-195.2885 580.4075,-191.7625 586.0189,-200.7493 590.3984,-195.2885"/>
<text text-anchor="middle" x="626.5" y="-213.8" font-family="Times,serif" font-size="14.00" fill="#0050c0">rt</text>
</g>
<!-- T15511 -->
<g id="node2" class="node">
<title>T15511</title>
<polygon fill="none" stroke="#0058ad" points="278.5,-.5 278.5,-29.5 1829.5,-29.5 1829.5,-.5 278.5,-.5"/>
<text text-anchor="middle" x="303.5" y="-11.3" font-family="Times,serif" font-size="14.00" fill="#0058ad">a 81 4</text>
<polyline fill="none" stroke="#0058ad" points="328.5,-.5 328.5,-29.5 "/>
<text text-anchor="middle" x="353.5" y="-11.3" font-family="Times,serif" font-size="14.00" fill="#0058ad">a 81 5</text>
<polyline fill="none" stroke="#0058ad" points="378.5,-.5 378.5,-29.5 "/>
<text text-anchor="middle" x="403.5" y="-11.3" font-family="Times,serif" font-size="14.00" fill="#0058ad">a 81 6</text>
<polyline fill="none" stroke="#0058ad" points="428.5,-.5 428.5,-29.5 "/>
<text text-anchor="middle" x="1129" y="-11.3" font-family="Times,serif" font-size="14.00" fill="#0058ad">r 79 [1 2 3 4 5 6 7 8 9 10 14 11 12 13 15 19 16 17 18 20 21 22 23 24 25 26 27 28 29 30 31 34 33 32 35 37 38 36 40 41 42 43 44 53 54 58 39 61 59 60 62 64 65 63 66 67 68 69 71 72 73 70 74 75 76 77 78 79 80 82 83 84 81 85 86 87 88 89 90 91 92 94]</text>
</g>
<!-- T15511&#45;&gt;T15517 -->
<g id="edge2" class="edge">
<title>T15511&#45;&gt;T15517</title>
<path fill="none" stroke="#0050c0" d="M1073.4844,-29.5C1096.9557,-48.7551 1130.8982,-83.5289 1111,-111 1065.2037,-174.2256 838.9406,-224.8421 726.5631,-246.539"/>
<polygon fill="#0050c0" stroke="#0050c0" points="725.8718,-243.1077 716.7074,-248.4241 727.1869,-249.9831 725.8718,-243.1077"/>
<text text-anchor="middle" x="1095.5" y="-132.8" font-family="Times,serif" font-size="14.00" fill="#0050c0">rt</text>
</g>
<!-- T15499 -->
<g id="node4" class="node">
<title>T15499</title>
<polygon fill="none" stroke="#0058ad" points="0,-81.5 0,-110.5 1102,-110.5 1102,-81.5 0,-81.5"/>
<text text-anchor="middle" x="25.5" y="-92.3" font-family="Times,serif" font-size="14.00" fill="#0058ad">r 81 []</text>
<polyline fill="none" stroke="#0058ad" points="51,-81.5 51,-110.5 "/>
<text text-anchor="middle" x="76" y="-92.3" font-family="Times,serif" font-size="14.00" fill="#0058ad">a 81 3</text>
<polyline fill="none" stroke="#0058ad" points="101,-81.5 101,-110.5 "/>
<text text-anchor="middle" x="129.5" y="-92.3" font-family="Times,serif" font-size="14.00" fill="#0058ad">a 80 17</text>
<polyline fill="none" stroke="#0058ad" points="158,-81.5 158,-110.5 "/>
<text text-anchor="middle" x="630" y="-92.3" font-family="Times,serif" font-size="14.00" fill="#0058ad">r 66 [1 2 5 6 7 8 9 10 11 12 14 15 16 17 18 19 20 21 22 23 24 25 26 27 28 29 30 31 32 33 34 35 36 37 89 88 91 92 93 94 95 96 97 98 99 100 101 102 103 104 105 106]</text>
</g>
<!-- T15531&#45;&gt;T15499 -->
<g id="edge3" class="edge">
<title>T15531:f0&#45;&gt;T15499:f2</title>
<path fill="none" stroke="#5b00c0" d="M458.5609,-162.4912C347.2361,-146.7221 180.473,-122.6021 138.7343,-113.835"/>
<polygon fill="#5b00c0" stroke="#5b00c0" points="139.5798,-110.4358 129,-111 137.6224,-117.1566 139.5798,-110.4358"/>
<text text-anchor="middle" x="327.5" y="-132.8" font-family="Times,serif" font-size="14.00" fill="#5b00c0">rw</text>
</g>
<!-- T15499&#45;&gt;T15511 -->
<g id="edge4" class="edge">
<title>T15499:f1&#45;&gt;T15511:f0</title>
<path fill="none" stroke="#c02700" d="M76,-81C76,-36.7273 212.0334,-17.4581 267.9491,-15.2224"/>
<polygon fill="#c02700" stroke="#c02700" points="268.0799,-18.7205 278,-15 267.925,-11.7222 268.0799,-18.7205"/>
<text text-anchor="middle" x="113" y="-51.8" font-family="Times,serif" font-size="14.00" fill="#c02700">ww</text>
</g>
</g>
</svg>
