<?xml version="1.0" encoding="UTF-8" standalone="no"?>
<!DOCTYPE svg PUBLIC "-//W3C//DTD SVG 1.1//EN"
 "http://www.w3.org/Graphics/SVG/1.1/DTD/svg11.dtd">
<!-- Generated by graphviz version 2.40.1 (20161225.0304)
 -->
<!-- Title: a_graph Pages: 1 -->
<svg width="2381pt" height="200pt"
 viewBox="0.00 0.00 2381.00 200.00" xmlns="http://www.w3.org/2000/svg" xmlns:xlink="http://www.w3.org/1999/xlink">
<g id="graph0" class="graph" transform="scale(1 1) rotate(0) translate(4 196)">
<title>a_graph</title>
<polygon fill="#ffffff" stroke="transparent" points="-4,4 -4,-196 2377,-196 2377,4 -4,4"/>
<!-- T17311 -->
<g id="node1" class="node">
<title>T17311</title>
<polygon fill="none" stroke="#0058ad" points="0,-162.5 0,-191.5 2373,-191.5 2373,-162.5 0,-162.5"/>
<text text-anchor="middle" x="191.5" y="-173.3" font-family="Times,serif" font-size="14.00" fill="#0058ad">r 86 [1 2 3 4 5 6 7 8 9 10 11 12 13 14 15 16 17 18 20 21 22 23 24]</text>
<polyline fill="none" stroke="#0058ad" points="383,-162.5 383,-191.5 "/>
<text text-anchor="middle" x="411.5" y="-173.3" font-family="Times,serif" font-size="14.00" fill="#0058ad">a 88 44</text>
<polyline fill="none" stroke="#0058ad" points="440,-162.5 440,-191.5 "/>
<text text-anchor="middle" x="1406.5" y="-173.3" font-family="Times,serif" font-size="14.00" fill="#0058ad">r 85 [3 6 7 9 8 10 11 12 13 14 15 16 17 18 19 20 21 22 23 24 25 26 27 28 29 31 30 32 33 34 35 36 37 38 40 41 42 39 44 45 46 43 48 47 49 50 51 52 54 53 55 56 57 58 59 60 62 61 65 64 63 66 67 68 69 72 73 76 77 79 81 82 83 84 85 86 87 88 89 91 90 93 94 92 95 96 97 98 99 101 102 103 104 100 105 106 107 108 109 110 112 111 114 113 115]</text>
</g>
<!-- T17305 -->
<g id="node2" class="node">
<title>T17305</title>
<polygon fill="none" stroke="#0058ad" points="445,-81.5 445,-110.5 1358,-110.5 1358,-81.5 445,-81.5"/>
<text text-anchor="middle" x="809" y="-92.3" font-family="Times,serif" font-size="14.00" fill="#0058ad">r 88 [1 2 3 4 5 6 7 8 9 11 12 13 14 15 16 10 17 20 18 19 22 23 24 25 26 21 28 29 30 27 32 33 35 36 34 31 38 37 39 40 41 42 43]</text>
<polyline fill="none" stroke="#0058ad" points="1173,-81.5 1173,-110.5 "/>
<text text-anchor="middle" x="1205" y="-92.3" font-family="Times,serif" font-size="14.00" fill="#0058ad">a 85 116</text>
<polyline fill="none" stroke="#0058ad" points="1237,-81.5 1237,-110.5 "/>
<text text-anchor="middle" x="1269" y="-92.3" font-family="Times,serif" font-size="14.00" fill="#0058ad">a 85 117</text>
<polyline fill="none" stroke="#0058ad" points="1301,-81.5 1301,-110.5 "/>
<text text-anchor="middle" x="1329.5" y="-92.3" font-family="Times,serif" font-size="14.00" fill="#0058ad">a 89 12</text>
</g>
<!-- T17311&#45;&gt;T17305 -->
<g id="edge1" class="edge">
<title>T17311:f2&#45;&gt;T17305:f1</title>
<path fill="none" stroke="#5b00c0" d="M1406.5,-162C1406.5,-73.6161 1221.6501,-192.6064 1206.4867,-121.2336"/>
<polygon fill="#5b00c0" stroke="#5b00c0" points="1209.9436,-120.6179 1205.5,-111 1202.9759,-121.2898 1209.9436,-120.6179"/>
<text text-anchor="middle" x="1410" y="-132.8" font-family="Times,serif" font-size="14.00" fill="#5b00c0">rw</text>
</g>
<!-- T17305&#45;&gt;T17311 -->
<g id="edge3" class="edge">
<title>T17305:f0&#45;&gt;T17311:f1</title>
<path fill="none" stroke="#5b00c0" d="M808.5,-111C808.5,-152.2597 466.8056,-122.5805 417.4201,-153.5873"/>
<polygon fill="#5b00c0" stroke="#5b00c0" points="414.3927,-151.8077 411.5,-162 420.1174,-155.8362 414.3927,-151.8077"/>
<text text-anchor="middle" x="774" y="-132.8" font-family="Times,serif" font-size="14.00" fill="#5b00c0">rw</text>
</g>
<!-- T17309 -->
<g id="node3" class="node">
<title>T17309</title>
<polygon fill="none" stroke="#0058ad" points="278.5,-.5 278.5,-29.5 1070.5,-29.5 1070.5,-.5 278.5,-.5"/>
<text text-anchor="middle" x="642.5" y="-11.3" font-family="Times,serif" font-size="14.00" fill="#0058ad">r 88 [1 2 3 4 5 6 7 8 9 11 12 13 14 15 16 10 17 20 18 19 22 23 24 25 26 21 28 29 30 27 32 33 35 36 34 31 38 37 39 40 41 42 43]</text>
<polyline fill="none" stroke="#0058ad" points="1006.5,-.5 1006.5,-29.5 "/>
<text text-anchor="middle" x="1038.5" y="-11.3" font-family="Times,serif" font-size="14.00" fill="#0058ad">a 85 118</text>
</g>
<!-- T17305&#45;&gt;T17309 -->
<g id="edge2" class="edge">
<title>T17305:f2&#45;&gt;T17309:f1</title>
<path fill="none" stroke="#c02700" d="M1269.5,-81C1269.5,-37.412 1136.1043,-17.6149 1080.7584,-15.244"/>
<polygon fill="#c02700" stroke="#c02700" points="1080.5804,-11.7388 1070.5,-15 1080.4139,-18.7369 1080.5804,-11.7388"/>
<text text-anchor="middle" x="1268.5" y="-51.8" font-family="Times,serif" font-size="14.00" fill="#c02700">ww</text>
</g>
<!-- T17309&#45;&gt;T17311 -->
<g id="edge4" class="edge">
<title>T17309:f0&#45;&gt;T17311:f1</title>
<path fill="none" stroke="#5b00c0" d="M278.5,-15C193.8362,-15 394.698,-69.3833 410.5195,-151.8106"/>
<polygon fill="#5b00c0" stroke="#5b00c0" points="407.0581,-152.3813 411.5,-162 414.0259,-151.7107 407.0581,-152.3813"/>
<text text-anchor="middle" x="395" y="-92.3" font-family="Times,serif" font-size="14.00" fill="#5b00c0">rw</text>
</g>
</g>
</svg>
