<?xml version="1.0" encoding="UTF-8" standalone="no"?>
<!DOCTYPE svg PUBLIC "-//W3C//DTD SVG 1.1//EN"
 "http://www.w3.org/Graphics/SVG/1.1/DTD/svg11.dtd">
<!-- Generated by graphviz version 2.40.1 (20161225.0304)
 -->
<!-- Title: a_graph Pages: 1 -->
<svg width="4805pt" height="119pt"
 viewBox="0.00 0.00 4805.00 119.00" xmlns="http://www.w3.org/2000/svg" xmlns:xlink="http://www.w3.org/1999/xlink">
<g id="graph0" class="graph" transform="scale(1 1) rotate(0) translate(4 115)">
<title>a_graph</title>
<polygon fill="#ffffff" stroke="transparent" points="-4,4 -4,-115 4801,-115 4801,4 -4,4"/>
<!-- T18715 -->
<g id="node1" class="node">
<title>T18715</title>
<polygon fill="none" stroke="#0058ad" points="1119,-81.5 1119,-110.5 4797,-110.5 4797,-81.5 1119,-81.5"/>
<text text-anchor="middle" x="1151" y="-92.3" font-family="Times,serif" font-size="14.00" fill="#0058ad">a 89 117</text>
<polyline fill="none" stroke="#0058ad" points="1183,-81.5 1183,-110.5 "/>
<text text-anchor="middle" x="1633.5" y="-92.3" font-family="Times,serif" font-size="14.00" fill="#0058ad">r 93 [1 2 3 4 5 6 7 8 9 10 11 12 15 16 13 14 18 17 19 20 21 23 24 25 26 27 28 29 22 30 31 32 33 34 35 36 37 38 40 39 41 42 43 44 46 45 47 48 49 50 51 52 53]</text>
<polyline fill="none" stroke="#0058ad" points="2084,-81.5 2084,-110.5 "/>
<text text-anchor="middle" x="2655" y="-92.3" font-family="Times,serif" font-size="14.00" fill="#0058ad">r 94 [2 1 3 4 5 6 7 8 9 10 11 12 13 14 16 17 18 19 15 20 21 22 23 24 26 27 28 29 25 31 30 32 33 34 37 35 36 39 40 41 42 43 46 44 45 47 48 38 50 51 52 54 55 53 56 57 49 58 59 60 61 62 63 64 65 66 67]</text>
<polyline fill="none" stroke="#0058ad" points="3226,-81.5 3226,-110.5 "/>
<text text-anchor="middle" x="4011.5" y="-92.3" font-family="Times,serif" font-size="14.00" fill="#0058ad">r 72 [1 2 3 4 5 6 7 8 9 10 11 12 13 14 16 17 18 19 20 21 22 23 24 25 26 28 29 31 30 32 33 34 35 36 70 71 72 73 74 75 76 77 78 79 80 81 82 83 84 85 86 87 88 89 90 91 92 93 94 96 95 97 98 99 101 102 100 103 104 105 107 108 109 110 111 113 112 114 115 116 117 118 119 120]</text>
</g>
<!-- T18713 -->
<g id="node2" class="node">
<title>T18713</title>
<polygon fill="none" stroke="#0058ad" points="0,-.5 0,-29.5 4770,-29.5 4770,-.5 0,-.5"/>
<text text-anchor="middle" x="28.5" y="-11.3" font-family="Times,serif" font-size="14.00" fill="#0058ad">a 94 68</text>
<polyline fill="none" stroke="#0058ad" points="57,-.5 57,-29.5 "/>
<text text-anchor="middle" x="637" y="-11.3" font-family="Times,serif" font-size="14.00" fill="#0058ad">r 94 [2 1 3 4 5 6 7 8 9 10 11 12 13 14 16 17 18 19 15 20 21 22 23 24 26 27 28 29 25 31 30 32 33 34 37 35 36 39 40 41 42 43 46 44 45 47 48 38 50 51 52 54 55 53 56 57 49 58 59 60 61 62 63 64 65 66 67 68]</text>
<polyline fill="none" stroke="#0058ad" points="1217,-.5 1217,-29.5 "/>
<text text-anchor="middle" x="2002.5" y="-11.3" font-family="Times,serif" font-size="14.00" fill="#0058ad">r 72 [1 2 3 4 5 6 7 8 9 10 11 12 13 14 16 17 18 19 20 21 22 23 24 25 26 28 29 31 30 32 33 34 35 36 70 71 72 73 74 75 76 77 78 79 80 81 82 83 84 85 86 87 88 89 90 91 92 93 94 96 95 97 98 99 101 102 100 103 104 105 107 108 109 110 111 113 112 114 115 116 117 118 119 120]</text>
<polyline fill="none" stroke="#0058ad" points="2788,-.5 2788,-29.5 "/>
<text text-anchor="middle" x="3779" y="-11.3" font-family="Times,serif" font-size="14.00" fill="#0058ad">r 89 [2 3 1 4 5 7 8 6 9 10 11 12 13 14 15 17 18 19 16 20 21 22 23 24 25 27 26 28 29 30 31 33 36 37 39 38 40 41 42 43 44 46 45 48 49 47 50 52 53 51 54 55 56 57 58 59 60 61 62 63 64 65 66 67 70 68 71 69 72 73 74 76 77 80 81 83 84 85 86 87 89 88 90 91 92 93 94 95 96 97 98 101 102 100 103 99 105 106 107 108 109 104 110 111 112 113 114 115 116]</text>
</g>
<!-- T18715&#45;&gt;T18713 -->
<g id="edge1" class="edge">
<title>T18715:f2&#45;&gt;T18713:f0</title>
<path fill="none" stroke="#5b00c0" d="M2655,-81C2655,43.2763 1661.2497,-50.5746 1537,-48 1517.0474,-47.5866 167.0512,-50.6438 37.8981,-32.8447"/>
<polygon fill="#5b00c0" stroke="#5b00c0" points="38.5777,-29.3984 28,-30 36.6442,-36.1261 38.5777,-29.3984"/>
<text text-anchor="middle" x="2651.5" y="-51.8" font-family="Times,serif" font-size="14.00" fill="#5b00c0">rw</text>
</g>
<!-- T18713&#45;&gt;T18715 -->
<g id="edge2" class="edge">
<title>T18713:f3&#45;&gt;T18715:f0</title>
<path fill="none" stroke="#5b00c0" d="M3779,-30C3779,-45.7019 1533.6832,-47.2338 1518,-48 1357.9402,-55.8202 1159.7226,76.8745 1151.2793,-70.859"/>
<polygon fill="#5b00c0" stroke="#5b00c0" points="1147.7767,-70.9074 1151,-81 1154.7741,-71.1002 1147.7767,-70.9074"/>
<text text-anchor="middle" x="1525.5" y="-51.8" font-family="Times,serif" font-size="14.00" fill="#5b00c0">rw</text>
</g>
</g>
</svg>
