<?xml version="1.0" encoding="UTF-8" standalone="no"?>
<!DOCTYPE svg PUBLIC "-//W3C//DTD SVG 1.1//EN"
 "http://www.w3.org/Graphics/SVG/1.1/DTD/svg11.dtd">
<!-- Generated by graphviz version 2.40.1 (20161225.0304)
 -->
<!-- Title: a_graph Pages: 1 -->
<svg width="3978pt" height="119pt"
 viewBox="0.00 0.00 3978.00 119.00" xmlns="http://www.w3.org/2000/svg" xmlns:xlink="http://www.w3.org/1999/xlink">
<g id="graph0" class="graph" transform="scale(1 1) rotate(0) translate(4 115)">
<title>a_graph</title>
<polygon fill="#ffffff" stroke="transparent" points="-4,4 -4,-115 3974,-115 3974,4 -4,4"/>
<!-- T6872 -->
<g id="node1" class="node">
<title>T6872</title>
<polygon fill="none" stroke="#0058ad" points="0,-81.5 0,-110.5 3970,-110.5 3970,-81.5 0,-81.5"/>
<text text-anchor="middle" x="25" y="-92.3" font-family="Times,serif" font-size="14.00" fill="#0058ad">a 39 6</text>
<polyline fill="none" stroke="#0058ad" points="50,-81.5 50,-110.5 "/>
<text text-anchor="middle" x="1004.5" y="-92.3" font-family="Times,serif" font-size="14.00" fill="#0058ad">r 38 [1 2 3 4 5 6 7 8 9 11 12 13 14 15 16 17 18 19 20 21 22 23 24 28 29 30 31 32 33 34 35 36 37 38 39 40 41 42 43 44 45 47 48 49 50 51 55 57 58 61 63 62 65 67 68 70 71 72 73 74 75 76 77 78 79 80 81 82 83 84 85 86 87 88 89 90 91 92 93 94 95 96 97 98 99 100 101 102 103 104 105 106 107 108 109 110 111 112 114 115 116 117 113 118]</text>
<polyline fill="none" stroke="#0058ad" points="1959,-81.5 1959,-110.5 "/>
<text text-anchor="middle" x="1991" y="-92.3" font-family="Times,serif" font-size="14.00" fill="#0058ad">a 35 114</text>
<polyline fill="none" stroke="#0058ad" points="2023,-81.5 2023,-110.5 "/>
<text text-anchor="middle" x="2996.5" y="-92.3" font-family="Times,serif" font-size="14.00" fill="#0058ad">r 35 [1 2 3 4 5 6 7 12 13 14 15 16 17 18 19 20 21 22 23 24 25 26 27 28 29 30 31 32 33 34 35 36 37 38 39 40 41 42 43 44 45 46 47 48 49 50 51 52 54 55 56 53 57 58 59 60 61 62 63 64 65 66 67 68 69 70 71 72 73 74 75 76 77 78 79 80 81 82 83 84 86 85 87 88 92 93 94 95 96 97 98 99 100 101 102 103 104 105 106 107 108 109 110 111 112 113 114]</text>
</g>
<!-- T6871 -->
<g id="node2" class="node">
<title>T6871</title>
<polygon fill="none" stroke="#0058ad" points="932,-.5 932,-29.5 2976,-29.5 2976,-.5 932,-.5"/>
<text text-anchor="middle" x="964" y="-11.3" font-family="Times,serif" font-size="14.00" fill="#0058ad">a 38 119</text>
<polyline fill="none" stroke="#0058ad" points="996,-.5 996,-29.5 "/>
<text text-anchor="middle" x="1024.5" y="-11.3" font-family="Times,serif" font-size="14.00" fill="#0058ad">a 36 54</text>
<polyline fill="none" stroke="#0058ad" points="1053,-.5 1053,-29.5 "/>
<text text-anchor="middle" x="2014.5" y="-11.3" font-family="Times,serif" font-size="14.00" fill="#0058ad">r 35 [1 2 3 4 5 6 7 12 13 14 15 16 17 18 19 20 21 22 23 24 25 26 27 28 29 30 31 32 33 34 35 36 37 38 39 40 41 42 43 44 45 46 47 48 49 50 51 52 54 55 56 53 57 58 59 60 61 62 63 64 65 66 67 68 69 70 71 72 73 74 75 76 77 78 79 80 81 82 83 84 86 85 87 88 92 93 94 95 96 97 98 99 100 101 102 103 104 105 106 107 108 109 110 111 112 113]</text>
</g>
<!-- T6872&#45;&gt;T6871 -->
<g id="edge1" class="edge">
<title>T6872:f1&#45;&gt;T6871:f0</title>
<path fill="none" stroke="#5b00c0" d="M1004,-81C1004,-56.2442 974.459,-57.6471 966.1506,-40.2485"/>
<polygon fill="#5b00c0" stroke="#5b00c0" points="969.4792,-39.068 964,-30 962.6284,-40.5057 969.4792,-39.068"/>
<text text-anchor="middle" x="1003.5" y="-51.8" font-family="Times,serif" font-size="14.00" fill="#5b00c0">rw</text>
</g>
<!-- T6871&#45;&gt;T6872 -->
<g id="edge2" class="edge">
<title>T6871:f2&#45;&gt;T6872:f2</title>
<path fill="none" stroke="#5b00c0" d="M2015,-30C2015,-51.1368 1997.9141,-55.0787 1992.5747,-70.8421"/>
<polygon fill="#5b00c0" stroke="#5b00c0" points="1989.0733,-70.5818 1991,-81 1995.9907,-71.6542 1989.0733,-70.5818"/>
<text text-anchor="middle" x="2016.5" y="-51.8" font-family="Times,serif" font-size="14.00" fill="#5b00c0">rw</text>
</g>
</g>
</svg>
