<?xml version="1.0" encoding="UTF-8" standalone="no"?>
<!DOCTYPE svg PUBLIC "-//W3C//DTD SVG 1.1//EN"
 "http://www.w3.org/Graphics/SVG/1.1/DTD/svg11.dtd">
<!-- Generated by graphviz version 2.40.1 (20161225.0304)
 -->
<!-- Title: a_graph Pages: 1 -->
<svg width="5474pt" height="200pt"
 viewBox="0.00 0.00 5474.00 200.00" xmlns="http://www.w3.org/2000/svg" xmlns:xlink="http://www.w3.org/1999/xlink">
<g id="graph0" class="graph" transform="scale(1 1) rotate(0) translate(4 196)">
<title>a_graph</title>
<polygon fill="#ffffff" stroke="transparent" points="-4,4 -4,-196 5470,-196 5470,4 -4,4"/>
<!-- T14423 -->
<g id="node1" class="node">
<title>T14423</title>
<polygon fill="none" stroke="#0058ad" points="0,-162.5 0,-191.5 4746,-191.5 4746,-162.5 0,-162.5"/>
<text text-anchor="middle" x="673" y="-173.3" font-family="Times,serif" font-size="14.00" fill="#0058ad">r 74 [1 3 4 5 2 8 9 10 11 12 13 14 16 18 19 20 21 17 23 24 25 26 27 28 29 30 31 32 33 34 35 36 37 38 39 40 41 42 43 44 45 46 47 48 49 50 51 52 53 54 55 56 57 58 59 61 62 60 63 64 65 66 67 68 69 70 71 72 73 74 75 77 80 78 79 81 76 82]</text>
<polyline fill="none" stroke="#0058ad" points="1346,-162.5 1346,-191.5 "/>
<text text-anchor="middle" x="2373" y="-173.3" font-family="Times,serif" font-size="14.00" fill="#0058ad">r 75 [1 2 5 6 7 8 9 10 11 12 13 15 16 17 18 14 22 23 24 26 27 28 29 30 31 19 32 33 34 36 35 37 38 39 40 42 43 41 45 44 47 48 49 46 50 51 54 55 56 57 58 52 53 60 61 62 59 64 63 66 67 68 65 70 71 72 73 74 69 76 77 78 79 75 81 82 80 83 84 85 87 88 89 86 90 91 92 94 93 96 97 98 99 100 104 105 101 102 103 106 107 108 109 95 110 111 112 113 115 114 116 117]</text>
<polyline fill="none" stroke="#0058ad" points="3400,-162.5 3400,-191.5 "/>
<text text-anchor="middle" x="4073" y="-173.3" font-family="Times,serif" font-size="14.00" fill="#0058ad">r 74 [1 3 4 5 2 8 9 10 11 12 13 14 16 18 19 20 21 17 23 24 25 26 27 28 29 30 31 32 33 34 35 36 37 38 39 40 41 42 43 44 45 46 47 48 49 50 51 52 53 54 55 56 57 58 59 61 62 60 63 64 65 66 67 68 69 70 71 72 73 74 75 77 80 78 79 81 76 82]</text>
</g>
<!-- T14421 -->
<g id="node2" class="node">
<title>T14421</title>
<polygon fill="none" stroke="#0058ad" points="1932,-81.5 1932,-110.5 5466,-110.5 5466,-81.5 1932,-81.5"/>
<text text-anchor="middle" x="1964" y="-92.3" font-family="Times,serif" font-size="14.00" fill="#0058ad">a 75 118</text>
<polyline fill="none" stroke="#0058ad" points="1996,-81.5 1996,-110.5 "/>
<text text-anchor="middle" x="3035" y="-92.3" font-family="Times,serif" font-size="14.00" fill="#0058ad">r 75 [1 2 5 6 7 8 9 10 11 12 13 15 16 17 18 14 22 23 24 26 27 28 29 30 31 19 32 33 34 36 35 37 38 39 40 42 43 41 45 44 47 48 49 46 50 51 54 55 56 57 58 52 53 60 61 62 59 64 63 66 67 68 65 70 71 72 73 74 69 76 77 78 79 75 81 82 80 83 84 85 87 88 89 86 90 91 92 94 93 96 97 98 99 100 104 105 101 102 103 106 107 108 109 95 110 111 112 113 115 114 116 117 118]</text>
<polyline fill="none" stroke="#0058ad" points="4074,-81.5 4074,-110.5 "/>
<text text-anchor="middle" x="4106" y="-92.3" font-family="Times,serif" font-size="14.00" fill="#0058ad">a 75 119</text>
<polyline fill="none" stroke="#0058ad" points="4138,-81.5 4138,-110.5 "/>
<text text-anchor="middle" x="4802" y="-92.3" font-family="Times,serif" font-size="14.00" fill="#0058ad">r 74 [1 3 4 5 2 8 9 10 11 12 13 14 16 18 19 20 21 17 23 24 25 26 27 28 29 30 31 32 33 34 35 36 37 38 39 40 41 42 43 44 45 46 47 48 49 50 51 52 53 54 55 56 57 58 59 61 62 60 63 64 65 66 67 68 69 70 71 72 73 74 75 77 80 78 79 81 76]</text>
</g>
<!-- T14423&#45;&gt;T14421 -->
<g id="edge1" class="edge">
<title>T14423:f1&#45;&gt;T14421:f0</title>
<path fill="none" stroke="#5b00c0" d="M2373,-162C2373,17.6077 1979.8205,-282.0565 1964.462,-121.1704"/>
<polygon fill="#5b00c0" stroke="#5b00c0" points="1967.9502,-120.8309 1964,-111 1960.9575,-121.1485 1967.9502,-120.8309"/>
<text text-anchor="middle" x="2378.5" y="-132.8" font-family="Times,serif" font-size="14.00" fill="#5b00c0">rw</text>
</g>
<!-- T14419 -->
<g id="node3" class="node">
<title>T14419</title>
<polygon fill="none" stroke="#0058ad" points="1477.5,-.5 1477.5,-29.5 1534.5,-29.5 1534.5,-.5 1477.5,-.5"/>
<text text-anchor="middle" x="1506" y="-11.3" font-family="Times,serif" font-size="14.00" fill="#0058ad">a 74 82</text>
</g>
<!-- T14421&#45;&gt;T14419 -->
<g id="edge2" class="edge">
<title>T14421:f3&#45;&gt;T14419:f0</title>
<path fill="none" stroke="#5b00c0" d="M4802,-81C4802,-36.8025 1745.7185,-41.1241 1542.5111,-30.4511"/>
<polygon fill="#5b00c0" stroke="#5b00c0" points="1542.6676,-26.9512 1532.3964,-29.5497 1542.0462,-33.9236 1542.6676,-26.9512"/>
<text text-anchor="middle" x="4587.5" y="-51.8" font-family="Times,serif" font-size="14.00" fill="#5b00c0">rw</text>
</g>
<!-- T14419&#45;&gt;T14423 -->
<g id="edge3" class="edge">
<title>T14419:f0&#45;&gt;T14423:f0</title>
<path fill="none" stroke="#c000a5" d="M1479.2565,-29.5578C1478.8368,-29.7107 1478.4178,-29.8582 1478,-30 1309.6068,-87.1467 696.9538,15.2425 673.6814,-151.9549"/>
<polygon fill="#c000a5" stroke="#c000a5" points="670.1849,-151.786 673,-162 677.1689,-152.2599 670.1849,-151.786"/>
<text text-anchor="middle" x="754.5" y="-92.3" font-family="Times,serif" font-size="14.00" fill="#c000a5">wr</text>
</g>
</g>
</svg>
