<?xml version="1.0" encoding="UTF-8" standalone="no"?>
<!DOCTYPE svg PUBLIC "-//W3C//DTD SVG 1.1//EN"
 "http://www.w3.org/Graphics/SVG/1.1/DTD/svg11.dtd">
<!-- Generated by graphviz version 2.40.1 (20161225.0304)
 -->
<!-- Title: a_graph Pages: 1 -->
<svg width="3162pt" height="200pt"
 viewBox="0.00 0.00 3161.50 200.00" xmlns="http://www.w3.org/2000/svg" xmlns:xlink="http://www.w3.org/1999/xlink">
<g id="graph0" class="graph" transform="scale(1 1) rotate(0) translate(4 196)">
<title>a_graph</title>
<polygon fill="#ffffff" stroke="transparent" points="-4,4 -4,-196 3157.5,-196 3157.5,4 -4,4"/>
<!-- T11457 -->
<g id="node1" class="node">
<title>T11457</title>
<polygon fill="none" stroke="#0058ad" points="475.5,-162.5 475.5,-191.5 2729.5,-191.5 2729.5,-162.5 475.5,-162.5"/>
<text text-anchor="middle" x="1382.5" y="-173.3" font-family="Times,serif" font-size="14.00" fill="#0058ad">r 59 [2 3 4 1 5 6 9 8 10 11 12 7 14 15 16 13 17 18 21 22 23 24 25 19 20 26 27 28 31 29 32 33 34 35 36 37 38 39 40 30 42 43 44 41 45 46 47 49 50 51 52 48 53 54 55 56 57 58 60 61 62 64 65 63 66 68 69 70 71 67 72 73 76 59 78 80 81 82 83 84 86 87 85 89 88 90 91 93 94 98 99 100 95 101 102 103 104 105 106 107 108 109]</text>
<polyline fill="none" stroke="#0058ad" points="2289.5,-162.5 2289.5,-191.5 "/>
<text text-anchor="middle" x="2481" y="-173.3" font-family="Times,serif" font-size="14.00" fill="#0058ad">r 60 [1 2 3 4 5 6 8 7 9 11 12 14 10 17 18 19 21 22 24 25 26 27 29]</text>
<polyline fill="none" stroke="#0058ad" points="2672.5,-162.5 2672.5,-191.5 "/>
<text text-anchor="middle" x="2701" y="-173.3" font-family="Times,serif" font-size="14.00" fill="#0058ad">a 60 28</text>
</g>
<!-- T11449 -->
<g id="node3" class="node">
<title>T11449</title>
<polygon fill="none" stroke="#0058ad" points="0,-81.5 0,-110.5 3115,-110.5 3115,-81.5 0,-81.5"/>
<text text-anchor="middle" x="32" y="-92.3" font-family="Times,serif" font-size="14.00" fill="#0058ad">a 59 110</text>
<polyline fill="none" stroke="#0058ad" points="64,-81.5 64,-110.5 "/>
<text text-anchor="middle" x="626.5" y="-92.3" font-family="Times,serif" font-size="14.00" fill="#0058ad">r 53 [1 2 3 4 5 6 7 8 9 10 11 12 14 13 15 16 17 18 19 20 21 23 24 25 26 27 28 29 30 31 32 33 34 35 36 37 38 39 40 41 42 43 44 45 46 47 48 49 50 51 52 53 54 55 56 57 58 59 60 61 62 63 65 68 69 70]</text>
<polyline fill="none" stroke="#0058ad" points="1189,-81.5 1189,-110.5 "/>
<text text-anchor="middle" x="1221" y="-92.3" font-family="Times,serif" font-size="14.00" fill="#0058ad">a 59 111</text>
<polyline fill="none" stroke="#0058ad" points="1253,-81.5 1253,-110.5 "/>
<text text-anchor="middle" x="2184" y="-92.3" font-family="Times,serif" font-size="14.00" fill="#0058ad">r 59 [2 3 4 1 5 6 9 8 10 11 12 7 14 15 16 13 17 18 21 22 23 24 25 19 20 26 27 28 31 29 32 33 34 35 36 37 38 39 40 30 42 43 44 41 45 46 47 49 50 51 52 48 53 54 55 56 57 58 60 61 62 64 65 63 66 68 69 70 71 67 72 73 76 59 78 80 81 82 83 84 86 87 85 89 88 90 91 93 94 98 99 100 95 101 102 103 104 105 106 107 108 109 110 111]</text>
</g>
<!-- T11457&#45;&gt;T11449 -->
<g id="edge1" class="edge">
<title>T11457:f0&#45;&gt;T11449:f0</title>
<path fill="none" stroke="#5b00c0" d="M475.5,-177C428.8392,-177 80.875,-162.887 36.2141,-120.228"/>
<polygon fill="#5b00c0" stroke="#5b00c0" points="39.1662,-118.313 31.5,-111 32.9325,-121.4976 39.1662,-118.313"/>
<text text-anchor="middle" x="106" y="-132.8" font-family="Times,serif" font-size="14.00" fill="#5b00c0">rw</text>
</g>
<!-- T11453 -->
<g id="node2" class="node">
<title>T11453</title>
<polygon fill="none" stroke="#0058ad" points="2510.5,-.5 2510.5,-29.5 2950.5,-29.5 2950.5,-.5 2510.5,-.5"/>
<text text-anchor="middle" x="2539" y="-11.3" font-family="Times,serif" font-size="14.00" fill="#0058ad">a 56 73</text>
<polyline fill="none" stroke="#0058ad" points="2567.5,-.5 2567.5,-29.5 "/>
<text text-anchor="middle" x="2759" y="-11.3" font-family="Times,serif" font-size="14.00" fill="#0058ad">r 60 [1 2 3 4 5 6 8 7 9 11 12 14 10 17 18 19 21 22 24 25 26 27 29]</text>
</g>
<!-- T11453&#45;&gt;T11457 -->
<g id="edge2" class="edge">
<title>T11453:f1&#45;&gt;T11457:f2</title>
<path fill="none" stroke="#5b00c0" d="M2950.5,-15C3109.1268,-15 3168.8963,-57.3668 3123.5,-111 3096.4471,-142.9615 2809.3061,-173.3558 2739.6007,-176.6964"/>
<polygon fill="#5b00c0" stroke="#5b00c0" points="2739.3903,-173.201 2729.5,-177 2739.6007,-180.1979 2739.3903,-173.201"/>
<text text-anchor="middle" x="3146" y="-92.3" font-family="Times,serif" font-size="14.00" fill="#5b00c0">rw</text>
</g>
<!-- T11449&#45;&gt;T11453 -->
<g id="edge3" class="edge">
<title>T11449&#45;&gt;T11453</title>
<path fill="none" stroke="#0050c0" d="M1767.5473,-81.4955C1976.9586,-67.0348 2297.2635,-44.9166 2510.2051,-30.2122"/>
<polygon fill="#0050c0" stroke="#0050c0" points="2510.528,-33.6983 2520.2631,-29.5176 2510.0457,-26.7149 2510.528,-33.6983"/>
<text text-anchor="middle" x="2254" y="-51.8" font-family="Times,serif" font-size="14.00" fill="#0050c0">rt</text>
</g>
</g>
</svg>
