<?xml version="1.0" encoding="UTF-8" standalone="no"?>
<!DOCTYPE svg PUBLIC "-//W3C//DTD SVG 1.1//EN"
 "http://www.w3.org/Graphics/SVG/1.1/DTD/svg11.dtd">
<!-- Generated by graphviz version 2.40.1 (20161225.0304)
 -->
<!-- Title: a_graph Pages: 1 -->
<svg width="3523pt" height="281pt"
 viewBox="0.00 0.00 3522.97 281.00" xmlns="http://www.w3.org/2000/svg" xmlns:xlink="http://www.w3.org/1999/xlink">
<g id="graph0" class="graph" transform="scale(1 1) rotate(0) translate(4 277)">
<title>a_graph</title>
<polygon fill="#ffffff" stroke="transparent" points="-4,4 -4,-277 3518.9736,-277 3518.9736,4 -4,4"/>
<!-- T19549 -->
<g id="node1" class="node">
<title>T19549</title>
<polygon fill="none" stroke="#0058ad" points="109.4736,-243.5 109.4736,-272.5 1210.4736,-272.5 1210.4736,-243.5 109.4736,-243.5"/>
<text text-anchor="middle" x="609.9736" y="-254.3" font-family="Times,serif" font-size="14.00" fill="#0058ad">r 99 [1 2 4 5 7 8 10 12 13 14 3 16 17 15 22 23 24 25 26 27 29 28 30 31 32 33 36 37 39 38 40 34 35 41 42 44 43 45 46 47 48 49 50 51 53 54 55 52 58 59 57 56 60 62 64 63 61 65]</text>
<polyline fill="none" stroke="#0058ad" points="1110.4736,-243.5 1110.4736,-272.5 "/>
<text text-anchor="middle" x="1160.4736" y="-254.3" font-family="Times,serif" font-size="14.00" fill="#0058ad">r 98 [1 6 4 5 8]</text>
</g>
<!-- T19553 -->
<g id="node4" class="node">
<title>T19553</title>
<polygon fill="none" stroke="#0058ad" points="19.4736,-162.5 19.4736,-191.5 2538.4736,-191.5 2538.4736,-162.5 19.4736,-162.5"/>
<text text-anchor="middle" x="859.4736" y="-173.3" font-family="Times,serif" font-size="14.00" fill="#0058ad">r 86 [1 2 3 4 5 6 7 8 9 10 11 12 13 14 15 16 17 18 20 21 22 23 24 25 26 27 28 29 30 31 32 33 34 36 37 38 39 40 41 42 43 44 45 46 47 48 49 50 51 52 54 53 55 56 58 59 60 61 62 63 64 65 66 67 68 69 70 71 72 73 74 76 78 79 80 81 82 83 84 85 86 87 88 89 90 91 92 93 94 95 96 97 98 100 99 101 102]</text>
<polyline fill="none" stroke="#0058ad" points="1699.4736,-162.5 1699.4736,-191.5 "/>
<text text-anchor="middle" x="2118.9736" y="-173.3" font-family="Times,serif" font-size="14.00" fill="#0058ad">r 70 [2 3 4 5 6 7 8 9 10 12 11 13 15 17 16 18 19 20 21 22 23 24 39 40 41 42 43 44 45 46 47 51 52 53 54 55 56 57 58 59 60 61 62 64 65 66 67 68 69]</text>
</g>
<!-- T19549&#45;&gt;T19553 -->
<g id="edge1" class="edge">
<title>T19549&#45;&gt;T19553</title>
<path fill="none" stroke="#0050c0" d="M770.9957,-243.4721C879.9943,-229.2089 1045.7996,-207.5123 1158.0794,-192.8198"/>
<polygon fill="#0050c0" stroke="#0050c0" points="1158.6349,-196.277 1168.0962,-191.509 1157.7266,-189.3362 1158.6349,-196.277"/>
<text text-anchor="middle" x="1029.4736" y="-213.8" font-family="Times,serif" font-size="14.00" fill="#0050c0">rt</text>
</g>
<!-- T19555 -->
<g id="node2" class="node">
<title>T19555</title>
<polygon fill="none" stroke="#0058ad" points="1162.9736,-81.5 1162.9736,-110.5 3514.9736,-110.5 3514.9736,-81.5 1162.9736,-81.5"/>
<text text-anchor="middle" x="1490.9736" y="-92.3" font-family="Times,serif" font-size="14.00" fill="#0058ad">r 97 [1 2 3 4 5 6 7 10 16 14 15 20 21 22 23 24 25 26 29 30 31 27 28 32 33 34 36 35 37 38 39 40 41 42 43 45 44 46]</text>
<polyline fill="none" stroke="#0058ad" points="1818.9736,-81.5 1818.9736,-110.5 "/>
<text text-anchor="middle" x="1847.4736" y="-92.3" font-family="Times,serif" font-size="14.00" fill="#0058ad">a 70 70</text>
<polyline fill="none" stroke="#0058ad" points="1875.9736,-81.5 1875.9736,-110.5 "/>
<text text-anchor="middle" x="2203.9736" y="-92.3" font-family="Times,serif" font-size="14.00" fill="#0058ad">r 97 [1 2 3 4 5 6 7 10 16 14 15 20 21 22 23 24 25 26 29 30 31 27 28 32 33 34 36 35 37 38 39 40 41 42 43 45 44 46]</text>
<polyline fill="none" stroke="#0058ad" points="2531.9736,-81.5 2531.9736,-110.5 "/>
<text text-anchor="middle" x="3023.4736" y="-92.3" font-family="Times,serif" font-size="14.00" fill="#0058ad">r 99 [1 2 4 5 7 8 10 12 13 14 3 16 17 15 22 23 24 25 26 27 29 28 30 31 32 33 36 37 39 38 40 34 35 41 42 44 43 45 46 47 48 49 50 51 53 54 55 52 58 59 57 56 60 62 64 63 61]</text>
</g>
<!-- T19547 -->
<g id="node3" class="node">
<title>T19547</title>
<polygon fill="none" stroke="#0058ad" points="770.4736,-.5 770.4736,-29.5 3227.4736,-29.5 3227.4736,-.5 770.4736,-.5"/>
<text text-anchor="middle" x="798.9736" y="-11.3" font-family="Times,serif" font-size="14.00" fill="#0058ad">a 99 65</text>
<polyline fill="none" stroke="#0058ad" points="827.4736,-.5 827.4736,-29.5 "/>
<text text-anchor="middle" x="859.4736" y="-11.3" font-family="Times,serif" font-size="14.00" fill="#0058ad">a 86 102</text>
<polyline fill="none" stroke="#0058ad" points="891.4736,-.5 891.4736,-29.5 "/>
<text text-anchor="middle" x="1219.4736" y="-11.3" font-family="Times,serif" font-size="14.00" fill="#0058ad">r 97 [1 2 3 4 5 6 7 10 16 14 15 20 21 22 23 24 25 26 29 30 31 27 28 32 33 34 36 35 37 38 39 40 41 42 43 45 44 46]</text>
<polyline fill="none" stroke="#0058ad" points="1547.4736,-.5 1547.4736,-29.5 "/>
<text text-anchor="middle" x="2387.4736" y="-11.3" font-family="Times,serif" font-size="14.00" fill="#0058ad">r 86 [1 2 3 4 5 6 7 8 9 10 11 12 13 14 15 16 17 18 20 21 22 23 24 25 26 27 28 29 30 31 32 33 34 36 37 38 39 40 41 42 43 44 45 46 47 48 49 50 51 52 54 53 55 56 58 59 60 61 62 63 64 65 66 67 68 69 70 71 72 73 74 76 78 79 80 81 82 83 84 85 86 87 88 89 90 91 92 93 94 95 96 97 98 100 99 101 102]</text>
</g>
<!-- T19555&#45;&gt;T19547 -->
<g id="edge2" class="edge">
<title>T19555:f3&#45;&gt;T19547:f0</title>
<path fill="none" stroke="#5b00c0" d="M3023.9736,-81C3023.9736,39.3834 914.7607,-143.5149 803.5327,-39.1249"/>
<polygon fill="#5b00c0" stroke="#5b00c0" points="806.5742,-37.3812 798.9736,-30 800.3122,-40.5099 806.5742,-37.3812"/>
<text text-anchor="middle" x="3007.4736" y="-51.8" font-family="Times,serif" font-size="14.00" fill="#5b00c0">rw</text>
</g>
<!-- T19547&#45;&gt;T19549 -->
<g id="edge4" class="edge">
<title>T19547:f0&#45;&gt;T19549:f0</title>
<path fill="none" stroke="#c000a5" d="M769.9736,-15C598.1727,-15 120.2974,-29.4713 10.9736,-162 -25.7032,-206.4618 40.0513,-252.6501 98.8584,-257.569"/>
<polygon fill="#c000a5" stroke="#c000a5" points="98.8337,-261.071 108.9736,-258 99.1317,-254.0774 98.8337,-261.071"/>
<text text-anchor="middle" x="54.4736" y="-132.8" font-family="Times,serif" font-size="14.00" fill="#c000a5">wr</text>
</g>
<!-- T19547&#45;&gt;T19553 -->
<g id="edge3" class="edge">
<title>T19547:f1&#45;&gt;T19553:f0</title>
<path fill="none" stroke="#c000a5" d="M858.9736,-30C858.9736,-85.1146 858.9736,-101.396 858.9736,-151.8081"/>
<polygon fill="#c000a5" stroke="#c000a5" points="855.4737,-152 858.9736,-162 862.4737,-152 855.4737,-152"/>
<text text-anchor="middle" x="866.4736" y="-92.3" font-family="Times,serif" font-size="14.00" fill="#c000a5">wr</text>
</g>
<!-- T19553&#45;&gt;T19555 -->
<g id="edge5" class="edge">
<title>T19553:f1&#45;&gt;T19555:f1</title>
<path fill="none" stroke="#5b00c0" d="M2118.9736,-162C2118.9736,-42.6079 1862.6777,-222.8432 1847.6603,-121.0074"/>
<polygon fill="#5b00c0" stroke="#5b00c0" points="1851.1501,-120.7369 1846.9736,-111 1844.1665,-121.2162 1851.1501,-120.7369"/>
<text text-anchor="middle" x="2123.4736" y="-132.8" font-family="Times,serif" font-size="14.00" fill="#5b00c0">rw</text>
</g>
</g>
</svg>
