<?xml version="1.0" encoding="UTF-8" standalone="no"?>
<!DOCTYPE svg PUBLIC "-//W3C//DTD SVG 1.1//EN"
 "http://www.w3.org/Graphics/SVG/1.1/DTD/svg11.dtd">
<!-- Generated by graphviz version 2.40.1 (20161225.0304)
 -->
<!-- Title: a_graph Pages: 1 -->
<svg width="2482pt" height="281pt"
 viewBox="0.00 0.00 2482.00 281.00" xmlns="http://www.w3.org/2000/svg" xmlns:xlink="http://www.w3.org/1999/xlink">
<g id="graph0" class="graph" transform="scale(1 1) rotate(0) translate(4 277)">
<title>a_graph</title>
<polygon fill="#ffffff" stroke="transparent" points="-4,4 -4,-277 2478,-277 2478,4 -4,4"/>
<!-- T20747 -->
<g id="node1" class="node">
<title>T20747</title>
<polygon fill="none" stroke="#0058ad" points="1015.5,-243.5 1015.5,-272.5 1086.5,-272.5 1086.5,-243.5 1015.5,-243.5"/>
<text text-anchor="middle" x="1051" y="-254.3" font-family="Times,serif" font-size="14.00" fill="#0058ad">a 101 125</text>
</g>
<!-- T20749 -->
<g id="node2" class="node">
<title>T20749</title>
<polygon fill="none" stroke="#0058ad" points="256.5,-162.5 256.5,-191.5 1181.5,-191.5 1181.5,-162.5 256.5,-162.5"/>
<text text-anchor="middle" x="719" y="-173.3" font-family="Times,serif" font-size="14.00" fill="#0058ad">r 105 [1 2 4 5 6 7 8 3 9 10 11 12 14 15 16 17 18 19 13 20 21 22 23 24 26 27 29 25 30 28 31 33 32 34 35 36 37 38 39 41 42 43 44 45 46 40 48 47 50 51 49 53 52 54]</text>
</g>
<!-- T20747&#45;&gt;T20749 -->
<g id="edge1" class="edge">
<title>T20747&#45;&gt;T20749</title>
<path fill="none" stroke="#0050c0" d="M1015.4702,-249.3316C961.5004,-236.1643 857.8258,-210.8701 788.5188,-193.9609"/>
<polygon fill="#0050c0" stroke="#0050c0" points="789.0972,-190.4994 778.5525,-191.5294 787.438,-197.3 789.0972,-190.4994"/>
<text text-anchor="middle" x="918.5" y="-213.8" font-family="Times,serif" font-size="14.00" fill="#0050c0">rt</text>
</g>
<!-- T20755 -->
<g id="node3" class="node">
<title>T20755</title>
<polygon fill="none" stroke="#0058ad" points="0,-.5 0,-29.5 2474,-29.5 2474,-.5 0,-.5"/>
<text text-anchor="middle" x="83" y="-11.3" font-family="Times,serif" font-size="14.00" fill="#0058ad">r 104 [1 2 3 4 5 6 7 8 9 10]</text>
<polyline fill="none" stroke="#0058ad" points="166,-.5 166,-29.5 "/>
<text text-anchor="middle" x="198" y="-11.3" font-family="Times,serif" font-size="14.00" fill="#0058ad">a 105 55</text>
<polyline fill="none" stroke="#0058ad" points="230,-.5 230,-29.5 "/>
<text text-anchor="middle" x="262" y="-11.3" font-family="Times,serif" font-size="14.00" fill="#0058ad">a 105 56</text>
<polyline fill="none" stroke="#0058ad" points="294,-.5 294,-29.5 "/>
<text text-anchor="middle" x="1384" y="-11.3" font-family="Times,serif" font-size="14.00" fill="#0058ad">r 101 [1 2 3 4 5 6 8 7 10 9 11 12 13 15 16 14 18 19 17 20 21 22 23 25 26 27 24 28 30 31 29 32 34 33 35 36 37 38 39 40 43 41 42 44 45 46 47 49 50 48 51 52 54 53 55 56 57 58 59 60 61 63 64 65 62 66 67 68 71 73 69 76 77 80 83 84 74 85 86 89 90 87 88 91 92 93 94 95 96 97 99 98 100 102 103 101 104 106 105 107 108 109 110 111 112 114 116 115 113 118 119 120 117 123 124 121 122]</text>
</g>
<!-- T20749&#45;&gt;T20755 -->
<g id="edge2" class="edge">
<title>T20749:f0&#45;&gt;T20755:f1</title>
<path fill="none" stroke="#5b00c0" d="M360.7239,-162.4729C291.1776,-152.5051 232.0478,-136.4911 207,-111 184.0923,-87.6869 195.1978,-69.987 197.5853,-40.1399"/>
<polygon fill="#5b00c0" stroke="#5b00c0" points="201.0884,-40.1347 198,-30 194.0942,-39.8486 201.0884,-40.1347"/>
<text text-anchor="middle" x="214.5" y="-92.3" font-family="Times,serif" font-size="14.00" fill="#5b00c0">rw</text>
</g>
<!-- T20757 -->
<g id="node4" class="node">
<title>T20757</title>
<polygon fill="none" stroke="#0058ad" points="231.5,-81.5 231.5,-110.5 1206.5,-110.5 1206.5,-81.5 231.5,-81.5"/>
<text text-anchor="middle" x="694" y="-92.3" font-family="Times,serif" font-size="14.00" fill="#0058ad">r 105 [1 2 4 5 6 7 8 3 9 10 11 12 14 15 16 17 18 19 13 20 21 22 23 24 26 27 29 25 30 28 31 33 32 34 35 36 37 38 39 41 42 43 44 45 46 40 48 47 50 51 49 53 52 54]</text>
<polyline fill="none" stroke="#0058ad" points="1156.5,-81.5 1156.5,-110.5 "/>
<text text-anchor="middle" x="1181.5" y="-92.3" font-family="Times,serif" font-size="14.00" fill="#0058ad">a 2 52</text>
</g>
<!-- T20749&#45;&gt;T20757 -->
<g id="edge3" class="edge">
<title>T20749&#45;&gt;T20757</title>
<path fill="none" stroke="#0050c0" d="M719,-162.1434C719,-150.6112 719,-134.3668 719,-120.8626"/>
<polygon fill="#0050c0" stroke="#0050c0" points="722.5001,-120.7624 719,-110.7625 715.5001,-120.7625 722.5001,-120.7624"/>
<text text-anchor="middle" x="723.5" y="-132.8" font-family="Times,serif" font-size="14.00" fill="#0050c0">rt</text>
</g>
<!-- T20755&#45;&gt;T20747 -->
<g id="edge4" class="edge">
<title>T20755:f3&#45;&gt;T20747:f0</title>
<path fill="none" stroke="#5b00c0" d="M1384,-30C1384,-141.9903 1285.3202,-131.6218 1191,-192 1173.9337,-202.9248 1128.384,-223.8849 1093.836,-239.264"/>
<polygon fill="#5b00c0" stroke="#5b00c0" points="1092.1391,-236.1877 1084.4162,-243.4407 1094.9766,-242.5869 1092.1391,-236.1877"/>
<text text-anchor="middle" x="1331.5" y="-132.8" font-family="Times,serif" font-size="14.00" fill="#5b00c0">rw</text>
</g>
<!-- T20757&#45;&gt;T20755 -->
<g id="edge5" class="edge">
<title>T20757:f0&#45;&gt;T20755:f1</title>
<path fill="none" stroke="#5b00c0" d="M694,-81C694,-28.9527 256.2442,-78.5822 203.2347,-38.8473"/>
<polygon fill="#5b00c0" stroke="#5b00c0" points="206.1044,-36.8241 198,-30 200.08,-40.3887 206.1044,-36.8241"/>
<text text-anchor="middle" x="667.5" y="-51.8" font-family="Times,serif" font-size="14.00" fill="#5b00c0">rw</text>
</g>
</g>
</svg>
