<?xml version="1.0" encoding="UTF-8" standalone="no"?>
<!DOCTYPE svg PUBLIC "-//W3C//DTD SVG 1.1//EN"
 "http://www.w3.org/Graphics/SVG/1.1/DTD/svg11.dtd">
<!-- Generated by graphviz version 2.40.1 (20161225.0304)
 -->
<!-- Title: a_graph Pages: 1 -->
<svg width="2633pt" height="362pt"
 viewBox="0.00 0.00 2632.50 362.00" xmlns="http://www.w3.org/2000/svg" xmlns:xlink="http://www.w3.org/1999/xlink">
<g id="graph0" class="graph" transform="scale(1 1) rotate(0) translate(4 358)">
<title>a_graph</title>
<polygon fill="#ffffff" stroke="transparent" points="-4,4 -4,-358 2628.5,-358 2628.5,4 -4,4"/>
<!-- T12783 -->
<g id="node1" class="node">
<title>T12783</title>
<polygon fill="none" stroke="#0058ad" points="0,-324.5 0,-353.5 1658,-353.5 1658,-324.5 0,-324.5"/>
<text text-anchor="middle" x="743.5" y="-335.3" font-family="Times,serif" font-size="14.00" fill="#0058ad">r 63 [2 3 1 4 5 6 7 8 9 10 11 12 13 14 15 16 17 18 19 20 21 22 24 25 26 23 27 28 30 29 31 32 33 36 35 37 38 39 40 44 45 46 47 48 52 53 51 54 55 56 57 58 59 60 61 62 63 64 65 67 68 69 66 70 71 72 73 74 75 77 76 78 79 80 81 82 83 84 85 86 87 88 90 91 89 92 93]</text>
<polyline fill="none" stroke="#0058ad" points="1487,-324.5 1487,-353.5 "/>
<text text-anchor="middle" x="1515.5" y="-335.3" font-family="Times,serif" font-size="14.00" fill="#0058ad">a 66 14</text>
<polyline fill="none" stroke="#0058ad" points="1544,-324.5 1544,-353.5 "/>
<text text-anchor="middle" x="1572.5" y="-335.3" font-family="Times,serif" font-size="14.00" fill="#0058ad">a 66 15</text>
<polyline fill="none" stroke="#0058ad" points="1601,-324.5 1601,-353.5 "/>
<text text-anchor="middle" x="1629.5" y="-335.3" font-family="Times,serif" font-size="14.00" fill="#0058ad">a 66 16</text>
</g>
<!-- T12777 -->
<g id="node5" class="node">
<title>T12777</title>
<polygon fill="none" stroke="#0058ad" points="801.5,-243.5 801.5,-272.5 858.5,-272.5 858.5,-243.5 801.5,-243.5"/>
<text text-anchor="middle" x="830" y="-254.3" font-family="Times,serif" font-size="14.00" fill="#0058ad">a 63 95</text>
</g>
<!-- T12783&#45;&gt;T12777 -->
<g id="edge1" class="edge">
<title>T12783:f0&#45;&gt;T12777:f0</title>
<path fill="none" stroke="#5b00c0" d="M743,-324C743,-316.7924 773.6993,-294.8587 798.6256,-278.2375"/>
<polygon fill="#5b00c0" stroke="#5b00c0" points="800.7264,-281.0445 807.1418,-272.6128 796.8686,-275.2035 800.7264,-281.0445"/>
<text text-anchor="middle" x="785.5" y="-294.8" font-family="Times,serif" font-size="14.00" fill="#5b00c0">rw</text>
</g>
<!-- T12785 -->
<g id="node2" class="node">
<title>T12785</title>
<polygon fill="none" stroke="#0058ad" points="668,-.5 668,-29.5 2418,-29.5 2418,-.5 668,-.5"/>
<text text-anchor="middle" x="773.5" y="-11.3" font-family="Times,serif" font-size="14.00" fill="#0058ad">r 66 [1 2 3 4 7 5 6 8 9 10 11 12 13]</text>
<polyline fill="none" stroke="#0058ad" points="879,-.5 879,-29.5 "/>
<text text-anchor="middle" x="1648.5" y="-11.3" font-family="Times,serif" font-size="14.00" fill="#0058ad">r 63 [2 3 1 4 5 6 7 8 9 10 11 12 13 14 15 16 17 18 19 20 21 22 24 25 26 23 27 28 30 29 31 32 33 36 35 37 38 39 40 44 45 46 47 48 52 53 51 54 55 56 57 58 59 60 61 62 63 64 65 67 68 69 66 70 71 72 73 74 75 77 76 78 79 80 81 82 83 84 85 86 87 88 90 91 89 92 93 95 94 96]</text>
</g>
<!-- T12785&#45;&gt;T12783 -->
<g id="edge2" class="edge">
<title>T12785:f0&#45;&gt;T12783:f1</title>
<path fill="none" stroke="#5b00c0" d="M773,-30C773,-59.3333 773,-66.6667 773,-96 773,-258 773,-258 773,-258 773,-337.3193 1453.5202,-249.3554 1512.0025,-314.2988"/>
<polygon fill="#5b00c0" stroke="#5b00c0" points="1508.954,-316.0877 1516,-324 1515.4261,-313.4207 1508.954,-316.0877"/>
<text text-anchor="middle" x="780.5" y="-173.3" font-family="Times,serif" font-size="14.00" fill="#5b00c0">rw</text>
</g>
<!-- T12781 -->
<g id="node3" class="node">
<title>T12781</title>
<polygon fill="none" stroke="#0058ad" points="875.5,-81.5 875.5,-110.5 2454.5,-110.5 2454.5,-81.5 875.5,-81.5"/>
<text text-anchor="middle" x="1636.5" y="-92.3" font-family="Times,serif" font-size="14.00" fill="#0058ad">r 63 [2 3 1 4 5 6 7 8 9 10 11 12 13 14 15 16 17 18 19 20 21 22 24 25 26 23 27 28 30 29 31 32 33 36 35 37 38 39 40 44 45 46 47 48 52 53 51 54 55 56 57 58 59 60 61 62 63 64 65 67 68 69 66 70 71 72 73 74 75 77 76 78 79 80 81 82 83 84 85 86 87 88 90 91 89 92 93 95 94]</text>
<polyline fill="none" stroke="#0058ad" points="2397.5,-81.5 2397.5,-110.5 "/>
<text text-anchor="middle" x="2426" y="-92.3" font-family="Times,serif" font-size="14.00" fill="#0058ad">a 63 96</text>
</g>
<!-- T12781&#45;&gt;T12785 -->
<g id="edge3" class="edge">
<title>T12781:f1&#45;&gt;T12785:f1</title>
<path fill="none" stroke="#c000a5" d="M2426,-81C2426,-55.838 2441.6257,-25.6696 2428.0182,-17.2677"/>
<polygon fill="#c000a5" stroke="#c000a5" points="2428.526,-13.7942 2418,-15 2426.9805,-20.6215 2428.526,-13.7942"/>
<text text-anchor="middle" x="2437.5" y="-51.8" font-family="Times,serif" font-size="14.00" fill="#c000a5">wr</text>
</g>
<!-- T12779 -->
<g id="node4" class="node">
<title>T12779</title>
<polygon fill="none" stroke="#0058ad" points="851.5,-162.5 851.5,-191.5 2624.5,-191.5 2624.5,-162.5 851.5,-162.5"/>
<text text-anchor="middle" x="1604" y="-173.3" font-family="Times,serif" font-size="14.00" fill="#0058ad">r 63 [2 3 1 4 5 6 7 8 9 10 11 12 13 14 15 16 17 18 19 20 21 22 24 25 26 23 27 28 30 29 31 32 33 36 35 37 38 39 40 44 45 46 47 48 52 53 51 54 55 56 57 58 59 60 61 62 63 64 65 67 68 69 66 70 71 72 73 74 75 77 76 78 79 80 81 82 83 84 85 86 87 88 90 91 89 92 93 95]</text>
<polyline fill="none" stroke="#0058ad" points="2356.5,-162.5 2356.5,-191.5 "/>
<text text-anchor="middle" x="2385" y="-173.3" font-family="Times,serif" font-size="14.00" fill="#0058ad">a 63 94</text>
<polyline fill="none" stroke="#0058ad" points="2413.5,-162.5 2413.5,-191.5 "/>
<text text-anchor="middle" x="2519" y="-173.3" font-family="Times,serif" font-size="14.00" fill="#0058ad">r 66 [1 2 3 4 7 5 6 8 9 10 11 12 13]</text>
</g>
<!-- T12779&#45;&gt;T12783 -->
<g id="edge5" class="edge">
<title>T12779:f2&#45;&gt;T12783:f1</title>
<path fill="none" stroke="#5b00c0" d="M2519,-192C2519,-413.2981 1547.0989,-108.9824 1516.727,-313.8551"/>
<polygon fill="#5b00c0" stroke="#5b00c0" points="1513.2238,-313.7754 1516,-324 1520.2059,-314.2758 1513.2238,-313.7754"/>
<text text-anchor="middle" x="2497.5" y="-254.3" font-family="Times,serif" font-size="14.00" fill="#5b00c0">rw</text>
</g>
<!-- T12779&#45;&gt;T12785 -->
<g id="edge6" class="edge">
<title>T12779&#45;&gt;T12785</title>
<path fill="none" stroke="#0050c0" d="M1405.0475,-162.4866C1163.9767,-150.3041 877.1312,-131.6197 858,-111 848.9313,-101.2257 849.0354,-90.8698 858,-81 880.8455,-55.8476 1018.6558,-40.0163 1164.7437,-30.189"/>
<polygon fill="#0050c0" stroke="#0050c0" points="1165.0788,-33.6745 1174.8255,-29.521 1164.616,-26.6899 1165.0788,-33.6745"/>
<text text-anchor="middle" x="862.5" y="-92.3" font-family="Times,serif" font-size="14.00" fill="#0050c0">rt</text>
</g>
<!-- T12779&#45;&gt;T12781 -->
<g id="edge4" class="edge">
<title>T12779:f1&#45;&gt;T12781:f1</title>
<path fill="none" stroke="#c02700" d="M2385,-162C2385,-136.7795 2415.8326,-138.819 2424.0225,-120.8394"/>
<polygon fill="#c02700" stroke="#c02700" points="2427.4609,-121.4936 2426,-111 2420.5981,-120.1143 2427.4609,-121.4936"/>
<text text-anchor="middle" x="2427" y="-132.8" font-family="Times,serif" font-size="14.00" fill="#c02700">ww</text>
</g>
<!-- T12777&#45;&gt;T12781 -->
<g id="edge7" class="edge">
<title>T12777&#45;&gt;T12781</title>
<path fill="none" stroke="#0050c0" d="M825.3411,-243.3592C819.6555,-222.302 813.1714,-183.6271 834,-162 852.5558,-142.7328 1126.911,-123.7042 1355.3782,-111.0665"/>
<polygon fill="#0050c0" stroke="#0050c0" points="1355.7437,-114.5517 1365.5361,-110.5071 1355.3587,-107.5623 1355.7437,-114.5517"/>
<text text-anchor="middle" x="838.5" y="-173.3" font-family="Times,serif" font-size="14.00" fill="#0050c0">rt</text>
</g>
<!-- T12777&#45;&gt;T12779 -->
<g id="edge8" class="edge">
<title>T12777:f0&#45;&gt;T12779:f1</title>
<path fill="none" stroke="#c02700" d="M856.3998,-243.4634C856.9337,-243.298 857.4674,-243.1432 858,-243 862.878,-241.6888 2242.8247,-201.4481 2374.8787,-193.0206"/>
<polygon fill="#c02700" stroke="#c02700" points="2375.4016,-196.4857 2385,-192 2374.6993,-189.521 2375.4016,-196.4857"/>
<text text-anchor="middle" x="1902" y="-213.8" font-family="Times,serif" font-size="14.00" fill="#c02700">ww</text>
</g>
</g>
</svg>
