<?xml version="1.0" encoding="UTF-8" standalone="no"?>
<!DOCTYPE svg PUBLIC "-//W3C//DTD SVG 1.1//EN"
 "http://www.w3.org/Graphics/SVG/1.1/DTD/svg11.dtd">
<!-- Generated by graphviz version 2.40.1 (20161225.0304)
 -->
<!-- Title: a_graph Pages: 1 -->
<svg width="3452pt" height="281pt"
 viewBox="0.00 0.00 3451.80 281.00" xmlns="http://www.w3.org/2000/svg" xmlns:xlink="http://www.w3.org/1999/xlink">
<g id="graph0" class="graph" transform="scale(1 1) rotate(0) translate(4 277)">
<title>a_graph</title>
<polygon fill="#ffffff" stroke="transparent" points="-4,4 -4,-277 3447.796,-277 3447.796,4 -4,4"/>
<!-- T10929 -->
<g id="node1" class="node">
<title>T10929</title>
<polygon fill="none" stroke="#0058ad" points="2160.5,-243.5 2160.5,-272.5 3009.5,-272.5 3009.5,-243.5 2160.5,-243.5"/>
<text text-anchor="middle" x="2585" y="-254.3" font-family="Times,serif" font-size="14.00" fill="#0058ad">r 53 [1 2 3 4 5 6 7 8 9 10 11 12 14 13 15 16 17 18 19 20 21 23 24 25 26 27 28 29 30 31 32 33 34 35 36 37 38 39 40 41 42 43 44 45 46 47 48 49 50 51]</text>
</g>
<!-- T10931 -->
<g id="node3" class="node">
<title>T10931</title>
<polygon fill="none" stroke="#0058ad" points="0,-162.5 0,-191.5 3428,-191.5 3428,-162.5 0,-162.5"/>
<text text-anchor="middle" x="416" y="-173.3" font-family="Times,serif" font-size="14.00" fill="#0058ad">r 58 [1 2 3 4 5 6 8 9 10 7 11 13 14 12 15 16 17 18 19 20 22 25 26 27 29 30 33 28 35 38 39 34 44 42 48 49 50 46 51 52 55 53 54 56 57 59 60 61 58]</text>
<polyline fill="none" stroke="#0058ad" points="832,-162.5 832,-191.5 "/>
<text text-anchor="middle" x="1481" y="-173.3" font-family="Times,serif" font-size="14.00" fill="#0058ad">r 57 [1 2 3 4 5 6 7 8 9 11 12 13 14 15 16 17 18 10 19 21 22 20 23 24 25 26 27 29 30 28 31 32 34 35 36 37 33 39 40 38 41 43 42 44 45 46 47 48 49 50 52 51 53 54 55 56 58 62 63 64 65 66 67 68 69 73 74 71 72 76 77 78 75 79 80 81]</text>
<polyline fill="none" stroke="#0058ad" points="2130,-162.5 2130,-191.5 "/>
<text text-anchor="middle" x="2779" y="-173.3" font-family="Times,serif" font-size="14.00" fill="#0058ad">r 57 [1 2 3 4 5 6 7 8 9 11 12 13 14 15 16 17 18 10 19 21 22 20 23 24 25 26 27 29 30 28 31 32 34 35 36 37 33 39 40 38 41 43 42 44 45 46 47 48 49 50 52 51 53 54 55 56 58 62 63 64 65 66 67 68 69 73 74 71 72 76 77 78 75 79 80 81]</text>
</g>
<!-- T10929&#45;&gt;T10931 -->
<g id="edge1" class="edge">
<title>T10929&#45;&gt;T10931</title>
<path fill="none" stroke="#0050c0" d="M2429.0314,-243.4955C2274.4606,-229.1209 2038.5242,-207.1796 1880.4099,-192.4755"/>
<polygon fill="#0050c0" stroke="#0050c0" points="1880.3906,-188.9587 1870.1094,-191.5176 1879.7423,-195.9287 1880.3906,-188.9587"/>
<text text-anchor="middle" x="2231.5" y="-213.8" font-family="Times,serif" font-size="14.00" fill="#0050c0">rt</text>
</g>
<!-- T10935 -->
<g id="node2" class="node">
<title>T10935</title>
<polygon fill="none" stroke="#0058ad" points="580,-81.5 580,-110.5 2324,-110.5 2324,-81.5 580,-81.5"/>
<text text-anchor="middle" x="987.5" y="-92.3" font-family="Times,serif" font-size="14.00" fill="#0058ad">r 58 [1 2 3 4 5 6 8 9 10 7 11 13 14 12 15 16 17 18 19 20 22 25 26 27 29 30 33 28 35 38 39 34 44 42 48 49 50 46 51 52 55 53 54 56 57 59 60 61]</text>
<polyline fill="none" stroke="#0058ad" points="1395,-81.5 1395,-110.5 "/>
<text text-anchor="middle" x="1423.5" y="-92.3" font-family="Times,serif" font-size="14.00" fill="#0058ad">a 56 46</text>
<polyline fill="none" stroke="#0058ad" points="1452,-81.5 1452,-110.5 "/>
<text text-anchor="middle" x="1480.5" y="-92.3" font-family="Times,serif" font-size="14.00" fill="#0058ad">a 57 82</text>
<polyline fill="none" stroke="#0058ad" points="1509,-81.5 1509,-110.5 "/>
<text text-anchor="middle" x="1916.5" y="-92.3" font-family="Times,serif" font-size="14.00" fill="#0058ad">r 58 [1 2 3 4 5 6 8 9 10 7 11 13 14 12 15 16 17 18 19 20 22 25 26 27 29 30 33 28 35 38 39 34 44 42 48 49 50 46 51 52 55 53 54 56 57 59 60 61]</text>
</g>
<!-- T10927 -->
<g id="node4" class="node">
<title>T10927</title>
<polygon fill="none" stroke="#0058ad" points="820.5,-.5 820.5,-29.5 2175.5,-29.5 2175.5,-.5 820.5,-.5"/>
<text text-anchor="middle" x="849" y="-11.3" font-family="Times,serif" font-size="14.00" fill="#0058ad">a 58 58</text>
<polyline fill="none" stroke="#0058ad" points="877.5,-.5 877.5,-29.5 "/>
<text text-anchor="middle" x="1526.5" y="-11.3" font-family="Times,serif" font-size="14.00" fill="#0058ad">r 57 [1 2 3 4 5 6 7 8 9 11 12 13 14 15 16 17 18 10 19 21 22 20 23 24 25 26 27 29 30 28 31 32 34 35 36 37 33 39 40 38 41 43 42 44 45 46 47 48 49 50 52 51 53 54 55 56 58 62 63 64 65 66 67 68 69 73 74 71 72 76 77 78 75 79 80 81]</text>
</g>
<!-- T10935&#45;&gt;T10927 -->
<g id="edge2" class="edge">
<title>T10935:f0&#45;&gt;T10927:f0</title>
<path fill="none" stroke="#5b00c0" d="M987,-81C987,-19.4436 864.6981,-86.5374 850.3658,-40.0572"/>
<polygon fill="#5b00c0" stroke="#5b00c0" points="853.814,-39.438 849,-30 846.8776,-40.3801 853.814,-39.438"/>
<text text-anchor="middle" x="986.5" y="-51.8" font-family="Times,serif" font-size="14.00" fill="#5b00c0">rw</text>
</g>
<!-- T10931&#45;&gt;T10935 -->
<g id="edge3" class="edge">
<title>T10931:f1&#45;&gt;T10935:f2</title>
<path fill="none" stroke="#5b00c0" d="M1481,-162C1481,-143.2292 1481,-136.1168 1481,-121.3535"/>
<polygon fill="#5b00c0" stroke="#5b00c0" points="1484.5001,-121 1481,-111 1477.5001,-121 1484.5001,-121"/>
<text text-anchor="middle" x="1488.5" y="-132.8" font-family="Times,serif" font-size="14.00" fill="#5b00c0">rw</text>
</g>
<!-- T10927&#45;&gt;T10929 -->
<g id="edge6" class="edge">
<title>T10927&#45;&gt;T10929</title>
<path fill="none" stroke="#0050c0" d="M1852.1202,-29.5113C2396.9552,-53.5788 3383.9779,-104.806 3437,-162 3446.0647,-171.778 3446.0567,-182.2146 3437,-192 3418.5898,-211.8915 3143.5094,-230.5821 2910.826,-242.9598"/>
<polygon fill="#0050c0" stroke="#0050c0" points="2910.6276,-239.4653 2900.8266,-243.4892 2910.9978,-246.4555 2910.6276,-239.4653"/>
<text text-anchor="middle" x="3393.5" y="-132.8" font-family="Times,serif" font-size="14.00" fill="#0050c0">rt</text>
</g>
<!-- T10927&#45;&gt;T10935 -->
<g id="edge4" class="edge">
<title>T10927:f1&#45;&gt;T10935:f2</title>
<path fill="none" stroke="#5b00c0" d="M1527,-30C1527,-56.4706 1492.4073,-52.429 1483.2187,-70.7948"/>
<polygon fill="#5b00c0" stroke="#5b00c0" points="1479.7044,-70.4847 1481,-81 1486.5446,-71.9718 1479.7044,-70.4847"/>
<text text-anchor="middle" x="1524.5" y="-51.8" font-family="Times,serif" font-size="14.00" fill="#5b00c0">rw</text>
</g>
<!-- T10927&#45;&gt;T10931 -->
<g id="edge5" class="edge">
<title>T10927:f0&#45;&gt;T10931:f0</title>
<path fill="none" stroke="#c000a5" d="M820,-15C753.761,-15 437.3502,-53.4933 417.0253,-151.9627"/>
<polygon fill="#c000a5" stroke="#c000a5" points="413.5344,-151.6961 416,-162 420.4982,-152.4075 413.5344,-151.6961"/>
<text text-anchor="middle" x="503.5" y="-92.3" font-family="Times,serif" font-size="14.00" fill="#c000a5">wr</text>
</g>
</g>
</svg>
