<?xml version="1.0" encoding="UTF-8" standalone="no"?>
<!DOCTYPE svg PUBLIC "-//W3C//DTD SVG 1.1//EN"
 "http://www.w3.org/Graphics/SVG/1.1/DTD/svg11.dtd">
<!-- Generated by graphviz version 2.40.1 (20161225.0304)
 -->
<!-- Title: a_graph Pages: 1 -->
<svg width="2981pt" height="200pt"
 viewBox="0.00 0.00 2980.57 200.00" xmlns="http://www.w3.org/2000/svg" xmlns:xlink="http://www.w3.org/1999/xlink">
<g id="graph0" class="graph" transform="scale(1 1) rotate(0) translate(4 196)">
<title>a_graph</title>
<polygon fill="#ffffff" stroke="transparent" points="-4,4 -4,-196 2976.569,-196 2976.569,4 -4,4"/>
<!-- T17487 -->
<g id="node1" class="node">
<title>T17487</title>
<polygon fill="none" stroke="#0058ad" points="456.569,-162.5 456.569,-191.5 2344.569,-191.5 2344.569,-162.5 456.569,-162.5"/>
<text text-anchor="middle" x="481.569" y="-173.3" font-family="Times,serif" font-size="14.00" fill="#0058ad">a 90 5</text>
<polyline fill="none" stroke="#0058ad" points="506.569,-162.5 506.569,-191.5 "/>
<text text-anchor="middle" x="1425.569" y="-173.3" font-family="Times,serif" font-size="14.00" fill="#0058ad">r 88 [1 2 3 4 5 6 7 8 9 11 12 13 14 15 16 10 17 20 18 19 22 23 24 25 26 21 28 29 30 27 32 33 35 36 34 31 38 37 39 40 41 42 43 44 45 46 47 48 49 51 52 53 50 55 56 57 58 59 60 61 62 54 64 63 65 66 70 71 72 67 68 69 73 74 75 76 77 79 81 82 83 84 80 85 87 78 88 86 90 89 91 92 93 94 95 97 98 99 100 96 101 102 104 105 106]</text>
</g>
<!-- T17489 -->
<g id="node3" class="node">
<title>T17489</title>
<polygon fill="none" stroke="#0058ad" points="37.569,-81.5 37.569,-110.5 2097.569,-110.5 2097.569,-81.5 37.569,-81.5"/>
<text text-anchor="middle" x="956.569" y="-92.3" font-family="Times,serif" font-size="14.00" fill="#0058ad">r 88 [1 2 3 4 5 6 7 8 9 11 12 13 14 15 16 10 17 20 18 19 22 23 24 25 26 21 28 29 30 27 32 33 35 36 34 31 38 37 39 40 41 42 43 44 45 46 47 48 49 51 52 53 50 55 56 57 58 59 60 61 62 54 64 63 65 66 70 71 72 67 68 69 73 74 75 76 77 79 81 82 83 84 80 85 87 78 88 86 90 89 91 92 93 94 95 97 98 99 100 96 101 102 104 105 106]</text>
<polyline fill="none" stroke="#0058ad" points="1875.569,-81.5 1875.569,-110.5 "/>
<text text-anchor="middle" x="1907.569" y="-92.3" font-family="Times,serif" font-size="14.00" fill="#0058ad">a 88 103</text>
<polyline fill="none" stroke="#0058ad" points="1939.569,-81.5 1939.569,-110.5 "/>
<text text-anchor="middle" x="1979.069" y="-92.3" font-family="Times,serif" font-size="14.00" fill="#0058ad">r 90 [1 2 3]</text>
<polyline fill="none" stroke="#0058ad" points="2018.569,-81.5 2018.569,-110.5 "/>
<text text-anchor="middle" x="2058.069" y="-92.3" font-family="Times,serif" font-size="14.00" fill="#0058ad">r 90 [1 2 3]</text>
</g>
<!-- T17487&#45;&gt;T17489 -->
<g id="edge1" class="edge">
<title>T17487:f1&#45;&gt;T17489:f1</title>
<path fill="none" stroke="#5b00c0" d="M1425.569,-162C1425.569,49.8418 1891.6979,-313.9704 1907.1749,-121.2421"/>
<polygon fill="#5b00c0" stroke="#5b00c0" points="1910.6818,-121.1272 1907.569,-111 1903.687,-120.858 1910.6818,-121.1272"/>
<text text-anchor="middle" x="1913.069" y="-132.8" font-family="Times,serif" font-size="14.00" fill="#5b00c0">rw</text>
</g>
<!-- T17485 -->
<g id="node2" class="node">
<title>T17485</title>
<polygon fill="none" stroke="#0058ad" points="116.569,-.5 116.569,-29.5 2972.569,-29.5 2972.569,-.5 116.569,-.5"/>
<text text-anchor="middle" x="1035.569" y="-11.3" font-family="Times,serif" font-size="14.00" fill="#0058ad">r 88 [1 2 3 4 5 6 7 8 9 11 12 13 14 15 16 10 17 20 18 19 22 23 24 25 26 21 28 29 30 27 32 33 35 36 34 31 38 37 39 40 41 42 43 44 45 46 47 48 49 51 52 53 50 55 56 57 58 59 60 61 62 54 64 63 65 66 70 71 72 67 68 69 73 74 75 76 77 79 81 82 83 84 80 85 87 78 88 86 90 89 91 92 93 94 95 97 98 99 100 96 101 102 104 105 106]</text>
<polyline fill="none" stroke="#0058ad" points="1954.569,-.5 1954.569,-29.5 "/>
<text text-anchor="middle" x="1979.569" y="-11.3" font-family="Times,serif" font-size="14.00" fill="#0058ad">a 90 4</text>
<polyline fill="none" stroke="#0058ad" points="2004.569,-.5 2004.569,-29.5 "/>
<text text-anchor="middle" x="2463.569" y="-11.3" font-family="Times,serif" font-size="14.00" fill="#0058ad">r 72 [1 2 3 4 5 6 7 8 9 10 11 12 13 14 16 17 18 19 20 21 22 23 24 25 26 28 29 31 30 32 33 34 35 36 70 71 72 73 74 75 76 77 78 79 80 81 82 83 84 85 86 87 88 89]</text>
<polyline fill="none" stroke="#0058ad" points="2922.569,-.5 2922.569,-29.5 "/>
<text text-anchor="middle" x="2947.569" y="-11.3" font-family="Times,serif" font-size="14.00" fill="#0058ad">a 2 45</text>
</g>
<!-- T17485&#45;&gt;T17487 -->
<g id="edge2" class="edge">
<title>T17485:f1&#45;&gt;T17487:f0</title>
<path fill="none" stroke="#c02700" d="M1979.569,-30C1979.569,-43.0996 1049.6643,-47.6648 1036.569,-48 922.3253,-50.9239 88.071,1.095 8.569,-81 -60.1169,-151.9261 329.9515,-175.5698 446.4777,-176.9364"/>
<polygon fill="#c02700" stroke="#c02700" points="446.5471,-180.4368 456.569,-177 446.5913,-173.4369 446.5471,-180.4368"/>
<text text-anchor="middle" x="18.569" y="-92.3" font-family="Times,serif" font-size="14.00" fill="#c02700">ww</text>
</g>
<!-- T17485&#45;&gt;T17489 -->
<g id="edge3" class="edge">
<title>T17485:f0&#45;&gt;T17489:f1</title>
<path fill="none" stroke="#5b00c0" d="M1035.569,-30C1035.569,-220.6021 1876.3458,101.0977 1906.7254,-70.9934"/>
<polygon fill="#5b00c0" stroke="#5b00c0" points="1903.2412,-71.3294 1907.569,-81 1910.2165,-70.7413 1903.2412,-71.3294"/>
<text text-anchor="middle" x="1911.069" y="-51.8" font-family="Times,serif" font-size="14.00" fill="#5b00c0">rw</text>
</g>
<!-- T17489&#45;&gt;T17485 -->
<g id="edge4" class="edge">
<title>T17489:f2&#45;&gt;T17485:f1</title>
<path fill="none" stroke="#5b00c0" d="M1979.569,-81C1979.569,-62.2292 1979.569,-55.1168 1979.569,-40.3535"/>
<polygon fill="#5b00c0" stroke="#5b00c0" points="1983.0691,-40 1979.569,-30 1976.0691,-40 1983.0691,-40"/>
<text text-anchor="middle" x="1987.069" y="-51.8" font-family="Times,serif" font-size="14.00" fill="#5b00c0">rw</text>
</g>
</g>
</svg>
