<?xml version="1.0" encoding="UTF-8" standalone="no"?>
<!DOCTYPE svg PUBLIC "-//W3C//DTD SVG 1.1//EN"
 "http://www.w3.org/Graphics/SVG/1.1/DTD/svg11.dtd">
<!-- Generated by graphviz version 2.40.1 (20161225.0304)
 -->
<!-- Title: a_graph Pages: 1 -->
<svg width="2481pt" height="200pt"
 viewBox="0.00 0.00 2481.00 200.00" xmlns="http://www.w3.org/2000/svg" xmlns:xlink="http://www.w3.org/1999/xlink">
<g id="graph0" class="graph" transform="scale(1 1) rotate(0) translate(4 196)">
<title>a_graph</title>
<polygon fill="#ffffff" stroke="transparent" points="-4,4 -4,-196 2477,-196 2477,4 -4,4"/>
<!-- T5469 -->
<g id="node1" class="node">
<title>T5469</title>
<polygon fill="none" stroke="#0058ad" points="32.5,-162.5 32.5,-191.5 524.5,-191.5 524.5,-162.5 32.5,-162.5"/>
<text text-anchor="middle" x="250" y="-173.3" font-family="Times,serif" font-size="14.00" fill="#0058ad">r 32 [1 2 3 4 5 6 7 8 9 10 11 12 13 14 15 16 17 18 19 20 21 22 23 24 25 26]</text>
<polyline fill="none" stroke="#0058ad" points="467.5,-162.5 467.5,-191.5 "/>
<text text-anchor="middle" x="496" y="-173.3" font-family="Times,serif" font-size="14.00" fill="#0058ad">a 31 73</text>
</g>
<!-- T5473 -->
<g id="node2" class="node">
<title>T5473</title>
<polygon fill="none" stroke="#0058ad" points="0,-.5 0,-29.5 2473,-29.5 2473,-.5 0,-.5"/>
<text text-anchor="middle" x="28.5" y="-11.3" font-family="Times,serif" font-size="14.00" fill="#0058ad">a 32 27</text>
<polyline fill="none" stroke="#0058ad" points="57,-.5 57,-29.5 "/>
<text text-anchor="middle" x="661" y="-11.3" font-family="Times,serif" font-size="14.00" fill="#0058ad">r 31 [3 4 5 6 7 8 9 10 11 12 13 14 15 16 17 18 19 20 21 22 23 24 25 26 27 28 29 30 31 32 33 34 35 36 37 38 39 40 41 42 43 44 45 46 47 48 49 50 51 52 53 54 55 56 57 58 59 60 61 62 63 65 64 66 67 68 69 70 71 72]</text>
<polyline fill="none" stroke="#0058ad" points="1265,-.5 1265,-29.5 "/>
<text text-anchor="middle" x="1869" y="-11.3" font-family="Times,serif" font-size="14.00" fill="#0058ad">r 31 [3 4 5 6 7 8 9 10 11 12 13 14 15 16 17 18 19 20 21 22 23 24 25 26 27 28 29 30 31 32 33 34 35 36 37 38 39 40 41 42 43 44 45 46 47 48 49 50 51 52 53 54 55 56 57 58 59 60 61 62 63 65 64 66 67 68 69 70 71 72]</text>
</g>
<!-- T5469&#45;&gt;T5473 -->
<g id="edge1" class="edge">
<title>T5469:f0&#45;&gt;T5473:f0</title>
<path fill="none" stroke="#5b00c0" d="M32.5,-177C-29.5386,-177 22.5951,-103.4388 28.05,-40.07"/>
<polygon fill="#5b00c0" stroke="#5b00c0" points="31.5499,-40.1463 28.5,-30 24.5569,-39.8337 31.5499,-40.1463"/>
<text text-anchor="middle" x="28" y="-92.3" font-family="Times,serif" font-size="14.00" fill="#5b00c0">rw</text>
</g>
<!-- T5471 -->
<g id="node3" class="node">
<title>T5471</title>
<polygon fill="none" stroke="#0058ad" points="61,-81.5 61,-110.5 496,-110.5 496,-81.5 61,-81.5"/>
<text text-anchor="middle" x="278.5" y="-92.3" font-family="Times,serif" font-size="14.00" fill="#0058ad">r 32 [1 2 3 4 5 6 7 8 9 10 11 12 13 14 15 16 17 18 19 20 21 22 23 24 25 26]</text>
</g>
<!-- T5469&#45;&gt;T5471 -->
<g id="edge2" class="edge">
<title>T5469&#45;&gt;T5471</title>
<path fill="none" stroke="#0050c0" d="M278.5,-162.1434C278.5,-150.6112 278.5,-134.3668 278.5,-120.8626"/>
<polygon fill="#0050c0" stroke="#0050c0" points="282.0001,-120.7624 278.5,-110.7625 275.0001,-120.7625 282.0001,-120.7624"/>
<text text-anchor="middle" x="283" y="-132.8" font-family="Times,serif" font-size="14.00" fill="#0050c0">rt</text>
</g>
<!-- T5473&#45;&gt;T5469 -->
<g id="edge3" class="edge">
<title>T5473:f1&#45;&gt;T5469:f1</title>
<path fill="none" stroke="#5b00c0" d="M660.5,-30C660.5,-115.5287 617.1052,-172.4219 534.7377,-176.7361"/>
<polygon fill="#5b00c0" stroke="#5b00c0" points="534.4065,-173.2434 524.5,-177 534.5869,-180.2411 534.4065,-173.2434"/>
<text text-anchor="middle" x="662" y="-92.3" font-family="Times,serif" font-size="14.00" fill="#5b00c0">rw</text>
</g>
<!-- T5471&#45;&gt;T5473 -->
<g id="edge4" class="edge">
<title>T5471:f0&#45;&gt;T5473:f0</title>
<path fill="none" stroke="#5b00c0" d="M192.8139,-81.4745C131.4691,-70.0417 56.0599,-53.5242 34.5074,-38.1454"/>
<polygon fill="#5b00c0" stroke="#5b00c0" points="37.2524,-35.9705 28.5,-30 31.6188,-40.1254 37.2524,-35.9705"/>
<text text-anchor="middle" x="110" y="-51.8" font-family="Times,serif" font-size="14.00" fill="#5b00c0">rw</text>
</g>
</g>
</svg>
