<?xml version="1.0" encoding="UTF-8" standalone="no"?>
<!DOCTYPE svg PUBLIC "-//W3C//DTD SVG 1.1//EN"
 "http://www.w3.org/Graphics/SVG/1.1/DTD/svg11.dtd">
<!-- Generated by graphviz version 2.40.1 (20161225.0304)
 -->
<!-- Title: a_graph Pages: 1 -->
<svg width="4066pt" height="119pt"
 viewBox="0.00 0.00 4066.00 119.00" xmlns="http://www.w3.org/2000/svg" xmlns:xlink="http://www.w3.org/1999/xlink">
<g id="graph0" class="graph" transform="scale(1 1) rotate(0) translate(4 115)">
<title>a_graph</title>
<polygon fill="#ffffff" stroke="transparent" points="-4,4 -4,-115 4062,-115 4062,4 -4,4"/>
<!-- T20483 -->
<g id="node1" class="node">
<title>T20483</title>
<polygon fill="none" stroke="#0058ad" points="0,-81.5 0,-110.5 4058,-110.5 4058,-81.5 0,-81.5"/>
<text text-anchor="middle" x="1075" y="-92.3" font-family="Times,serif" font-size="14.00" fill="#0058ad">r 95 [1 2 3 4 5 6 7 8 9 10 11 12 13 14 15 16 17 18 19 21 22 20 23 24 26 25 27 29 28 30 31 32 34 35 33 36 37 38 39 41 42 43 49 51 50 52 53 54 55 56 57 58 59 60 61 62 63 64 65 66 67 68 69 70 71 72 73 74 75 76 77 78 79 80 81 83 84 85 87 82 88 89 90 91 92 93 94 95 96 97 98 99 100 101 102 103 106 107 104 105 108 110 109 111 112 114 113 116 115 118 119 117 120 121 122 123]</text>
<polyline fill="none" stroke="#0058ad" points="2150,-81.5 2150,-110.5 "/>
<text text-anchor="middle" x="2182" y="-92.3" font-family="Times,serif" font-size="14.00" fill="#0058ad">a 101 71</text>
<polyline fill="none" stroke="#0058ad" points="2214,-81.5 2214,-110.5 "/>
<text text-anchor="middle" x="2246" y="-92.3" font-family="Times,serif" font-size="14.00" fill="#0058ad">a 95 125</text>
<polyline fill="none" stroke="#0058ad" points="2278,-81.5 2278,-110.5 "/>
<text text-anchor="middle" x="3168" y="-92.3" font-family="Times,serif" font-size="14.00" fill="#0058ad">r 102 [1 2 3 4 5 7 6 8 9 10 11 12 13 14 16 17 18 15 21 20 19 22 23 24 25 27 26 28 31 32 29 30 34 35 36 37 38 33 40 41 39 42 43 44 45 48 46 47 50 51 52 53 54 55 56 49 58 59 60 57 61 62 63 66 68 69 67 70 64 65 71 72 73 75 76 77 74 78 79 81 80 82 83 87 84 85 86 88 89 90 91 93 94 95 96 92 97 100 101 102 103 99]</text>
</g>
<!-- T20485 -->
<g id="node2" class="node">
<title>T20485</title>
<polygon fill="none" stroke="#0058ad" points="1828.5,-.5 1828.5,-29.5 3065.5,-29.5 3065.5,-.5 1828.5,-.5"/>
<text text-anchor="middle" x="2411.5" y="-11.3" font-family="Times,serif" font-size="14.00" fill="#0058ad">r 101 [1 2 3 4 5 6 8 7 10 9 11 12 13 15 16 14 18 19 17 20 21 22 23 25 26 27 24 28 30 31 29 32 34 33 35 36 37 38 39 40 43 41 42 44 45 46 47 49 50 48 51 52 54 53 55 56 57 58 59 60 61 63 64 65 62 66 67 68]</text>
<polyline fill="none" stroke="#0058ad" points="2994.5,-.5 2994.5,-29.5 "/>
<text text-anchor="middle" x="3030" y="-11.3" font-family="Times,serif" font-size="14.00" fill="#0058ad">a 102 105</text>
</g>
<!-- T20483&#45;&gt;T20485 -->
<g id="edge1" class="edge">
<title>T20483:f3&#45;&gt;T20485:f1</title>
<path fill="none" stroke="#5b00c0" d="M3168,-81C3168,-30.3789 3125.8089,-16.6645 3076.0438,-15.148"/>
<polygon fill="#5b00c0" stroke="#5b00c0" points="3076.0505,-11.6478 3066,-15 3075.9473,-18.6471 3076.0505,-11.6478"/>
<text text-anchor="middle" x="3172.5" y="-51.8" font-family="Times,serif" font-size="14.00" fill="#5b00c0">rw</text>
</g>
<!-- T20485&#45;&gt;T20483 -->
<g id="edge2" class="edge">
<title>T20485:f0&#45;&gt;T20483:f1</title>
<path fill="none" stroke="#5b00c0" d="M2411,-30C2411,-130.6055 2197.8185,12.5176 2182.8292,-70.9507"/>
<polygon fill="#5b00c0" stroke="#5b00c0" points="2179.3343,-70.746 2182,-81 2186.3106,-71.3217 2179.3343,-70.746"/>
<text text-anchor="middle" x="2413.5" y="-51.8" font-family="Times,serif" font-size="14.00" fill="#5b00c0">rw</text>
</g>
</g>
</svg>
