<?xml version="1.0" encoding="UTF-8" standalone="no"?>
<!DOCTYPE svg PUBLIC "-//W3C//DTD SVG 1.1//EN"
 "http://www.w3.org/Graphics/SVG/1.1/DTD/svg11.dtd">
<!-- Generated by graphviz version 2.40.1 (20161225.0304)
 -->
<!-- Title: a_graph Pages: 1 -->
<svg width="1780pt" height="119pt"
 viewBox="0.00 0.00 1780.00 119.00" xmlns="http://www.w3.org/2000/svg" xmlns:xlink="http://www.w3.org/1999/xlink">
<g id="graph0" class="graph" transform="scale(1 1) rotate(0) translate(4 115)">
<title>a_graph</title>
<polygon fill="#ffffff" stroke="transparent" points="-4,4 -4,-115 1776,-115 1776,4 -4,4"/>
<!-- T16761 -->
<g id="node1" class="node">
<title>T16761</title>
<polygon fill="none" stroke="#0058ad" points="0,-81.5 0,-110.5 1772,-110.5 1772,-81.5 0,-81.5"/>
<text text-anchor="middle" x="28.5" y="-92.3" font-family="Times,serif" font-size="14.00" fill="#0058ad">a 80 91</text>
<polyline fill="none" stroke="#0058ad" points="57,-81.5 57,-110.5 "/>
<text text-anchor="middle" x="85.5" y="-92.3" font-family="Times,serif" font-size="14.00" fill="#0058ad">a 85 35</text>
<polyline fill="none" stroke="#0058ad" points="114,-81.5 114,-110.5 "/>
<text text-anchor="middle" x="943" y="-92.3" font-family="Times,serif" font-size="14.00" fill="#0058ad">r 84 [31 32 33 34 35 36 37 38 40 42 45 47 50 51 54 48 55 56 57 60 59 61 62 63 64 65 66 68 67 70 69 71 72 73 75 76 77 74 79 78 80 81 82 83 86 87 88 90 89 93 91 92 94 95 96 98 99 100 97 101 84 85 104 102 103 106 107 108 109 110 112 113 114 115 105 111 116 117 118 119 120 122 121 123]</text>
</g>
<!-- T16763 -->
<g id="node2" class="node">
<title>T16763</title>
<polygon fill="none" stroke="#0058ad" points="128.5,-.5 128.5,-29.5 851.5,-29.5 851.5,-.5 128.5,-.5"/>
<text text-anchor="middle" x="160.5" y="-11.3" font-family="Times,serif" font-size="14.00" fill="#0058ad">a 84 124</text>
<polyline fill="none" stroke="#0058ad" points="192.5,-.5 192.5,-29.5 "/>
<text text-anchor="middle" x="458" y="-11.3" font-family="Times,serif" font-size="14.00" fill="#0058ad">r 85 [3 6 7 9 8 10 11 12 13 14 15 16 17 18 19 20 21 22 23 24 25 26 27 28 29 31 30 32 33 34]</text>
<polyline fill="none" stroke="#0058ad" points="723.5,-.5 723.5,-29.5 "/>
<text text-anchor="middle" x="755.5" y="-11.3" font-family="Times,serif" font-size="14.00" fill="#0058ad">a 84 125</text>
<polyline fill="none" stroke="#0058ad" points="787.5,-.5 787.5,-29.5 "/>
<text text-anchor="middle" x="819.5" y="-11.3" font-family="Times,serif" font-size="14.00" fill="#0058ad">a 84 126</text>
</g>
<!-- T16761&#45;&gt;T16763 -->
<g id="edge1" class="edge">
<title>T16761:f2&#45;&gt;T16763:f0</title>
<path fill="none" stroke="#5b00c0" d="M943,-81C943,-60.6087 257.6809,-52.8108 169.3389,-34.0429"/>
<polygon fill="#5b00c0" stroke="#5b00c0" points="170.5675,-30.7609 160,-30 167.7865,-37.1848 170.5675,-30.7609"/>
<text text-anchor="middle" x="740.5" y="-51.8" font-family="Times,serif" font-size="14.00" fill="#5b00c0">rw</text>
</g>
<!-- T16763&#45;&gt;T16761 -->
<g id="edge2" class="edge">
<title>T16763:f1&#45;&gt;T16761:f1</title>
<path fill="none" stroke="#5b00c0" d="M458,-30C458,-39.4567 152.9782,-64.9638 94.5951,-77.4927"/>
<polygon fill="#5b00c0" stroke="#5b00c0" points="93.1906,-74.2795 85,-81 95.5938,-80.854 93.1906,-74.2795"/>
<text text-anchor="middle" x="344.5" y="-51.8" font-family="Times,serif" font-size="14.00" fill="#5b00c0">rw</text>
</g>
</g>
</svg>
