<?xml version="1.0" encoding="UTF-8" standalone="no"?>
<!DOCTYPE svg PUBLIC "-//W3C//DTD SVG 1.1//EN"
 "http://www.w3.org/Graphics/SVG/1.1/DTD/svg11.dtd">
<!-- Generated by graphviz version 2.40.1 (20161225.0304)
 -->
<!-- Title: a_graph Pages: 1 -->
<svg width="5438pt" height="119pt"
 viewBox="0.00 0.00 5437.50 119.00" xmlns="http://www.w3.org/2000/svg" xmlns:xlink="http://www.w3.org/1999/xlink">
<g id="graph0" class="graph" transform="scale(1 1) rotate(0) translate(4 115)">
<title>a_graph</title>
<polygon fill="#ffffff" stroke="transparent" points="-4,4 -4,-115 5433.5,-115 5433.5,4 -4,4"/>
<!-- T20445 -->
<g id="node1" class="node">
<title>T20445</title>
<polygon fill="none" stroke="#0058ad" points="0,-81.5 0,-110.5 3419,-110.5 3419,-81.5 0,-81.5"/>
<text text-anchor="middle" x="1140" y="-92.3" font-family="Times,serif" font-size="14.00" fill="#0058ad">r 86 [1 2 3 4 5 6 7 8 9 10 11 12 13 14 15 16 17 18 20 21 22 23 24 25 26 27 28 29 30 31 32 33 34 36 37 38 39 40 41 42 43 44 45 46 47 48 49 50 51 52 54 53 55 56 58 59 60 61 62 63 64 65 66 67 68 69 70 71 72 73 74 76 78 79 80 81 82 83 84 85 86 87 88 89 90 91 92 93 94 95 96 97 98 100 99 101 102 104 103 105 106 107 108 109 110 111 112 113 114 115 116 117 118 119 121 120 122 123 124 125 126 127]</text>
<polyline fill="none" stroke="#0058ad" points="2280,-81.5 2280,-110.5 "/>
<text text-anchor="middle" x="2312" y="-92.3" font-family="Times,serif" font-size="14.00" fill="#0058ad">a 95 123</text>
<polyline fill="none" stroke="#0058ad" points="2344,-81.5 2344,-110.5 "/>
<text text-anchor="middle" x="2376" y="-92.3" font-family="Times,serif" font-size="14.00" fill="#0058ad">a 102 91</text>
<polyline fill="none" stroke="#0058ad" points="2408,-81.5 2408,-110.5 "/>
<text text-anchor="middle" x="2913.5" y="-92.3" font-family="Times,serif" font-size="14.00" fill="#0058ad">r 101 [1 2 3 4 5 6 8 7 10 9 11 12 13 15 16 14 18 19 17 20 21 22 23 25 26 27 24 28 30 31 29 32 34 33 35 36 37 38 39 40 43 41 42 44 45 46 47 49 50 48 51 52 54 53 55 56 57 58 59]</text>
</g>
<!-- T20443 -->
<g id="node2" class="node">
<title>T20443</title>
<polygon fill="none" stroke="#0058ad" points="2209.5,-.5 2209.5,-29.5 5429.5,-29.5 5429.5,-.5 2209.5,-.5"/>
<text text-anchor="middle" x="2241.5" y="-11.3" font-family="Times,serif" font-size="14.00" fill="#0058ad">a 101 60</text>
<polyline fill="none" stroke="#0058ad" points="2273.5,-.5 2273.5,-29.5 "/>
<text text-anchor="middle" x="3046.5" y="-11.3" font-family="Times,serif" font-size="14.00" fill="#0058ad">r 102 [1 2 3 4 5 7 6 8 9 10 11 12 13 14 16 17 18 15 21 20 19 22 23 24 25 27 26 28 31 32 29 30 34 35 36 37 38 33 40 41 39 42 43 44 45 48 46 47 50 51 52 53 54 55 56 49 58 59 60 57 61 62 63 66 68 69 67 70 64 65 71 72 73 75 76 77 74 78 79 81 80 82 83 87 84 85 86 88 89 90]</text>
<polyline fill="none" stroke="#0058ad" points="3819.5,-.5 3819.5,-29.5 "/>
<text text-anchor="middle" x="3851.5" y="-11.3" font-family="Times,serif" font-size="14.00" fill="#0058ad">a 101 61</text>
<polyline fill="none" stroke="#0058ad" points="3883.5,-.5 3883.5,-29.5 "/>
<text text-anchor="middle" x="4656.5" y="-11.3" font-family="Times,serif" font-size="14.00" fill="#0058ad">r 102 [1 2 3 4 5 7 6 8 9 10 11 12 13 14 16 17 18 15 21 20 19 22 23 24 25 27 26 28 31 32 29 30 34 35 36 37 38 33 40 41 39 42 43 44 45 48 46 47 50 51 52 53 54 55 56 49 58 59 60 57 61 62 63 66 68 69 67 70 64 65 71 72 73 75 76 77 74 78 79 81 80 82 83 87 84 85 86 88 89 90]</text>
</g>
<!-- T20445&#45;&gt;T20443 -->
<g id="edge1" class="edge">
<title>T20445:f3&#45;&gt;T20443:f0</title>
<path fill="none" stroke="#5b00c0" d="M2913.5,-81C2913.5,-65.0242 2642.432,-64.1823 2626.5,-63 2544.5458,-56.9185 2266.8322,-110.9008 2243.1175,-40.2821"/>
<polygon fill="#5b00c0" stroke="#5b00c0" points="2246.5115,-39.3346 2241.5,-30 2239.5966,-40.4224 2246.5115,-39.3346"/>
<text text-anchor="middle" x="2634" y="-51.8" font-family="Times,serif" font-size="14.00" fill="#5b00c0">rw</text>
</g>
<!-- T20443&#45;&gt;T20445 -->
<g id="edge2" class="edge">
<title>T20443:f1&#45;&gt;T20445:f2</title>
<path fill="none" stroke="#5b00c0" d="M3046.5,-30C3046.5,-120.2983 2731.5474,-56.2735 2641.5,-63 2628.4518,-63.9747 2430.1822,-65.7714 2385.4292,-76.4539"/>
<polygon fill="#5b00c0" stroke="#5b00c0" points="2383.8235,-73.3438 2376.5,-81 2386.9995,-79.5819 2383.8235,-73.3438"/>
<text text-anchor="middle" x="3048" y="-51.8" font-family="Times,serif" font-size="14.00" fill="#5b00c0">rw</text>
</g>
</g>
</svg>
