<?xml version="1.0" encoding="UTF-8" standalone="no"?>
<!DOCTYPE svg PUBLIC "-//W3C//DTD SVG 1.1//EN"
 "http://www.w3.org/Graphics/SVG/1.1/DTD/svg11.dtd">
<!-- Generated by graphviz version 2.40.1 (20161225.0304)
 -->
<!-- Title: a_graph Pages: 1 -->
<svg width="1180pt" height="119pt"
 viewBox="0.00 0.00 1180.00 119.00" xmlns="http://www.w3.org/2000/svg" xmlns:xlink="http://www.w3.org/1999/xlink">
<g id="graph0" class="graph" transform="scale(1 1) rotate(0) translate(4 115)">
<title>a_graph</title>
<polygon fill="#ffffff" stroke="transparent" points="-4,4 -4,-115 1176,-115 1176,4 -4,4"/>
<!-- T9629 -->
<g id="node1" class="node">
<title>T9629</title>
<polygon fill="none" stroke="#0058ad" points="221,-81.5 221,-110.5 1172,-110.5 1172,-81.5 221,-81.5"/>
<text text-anchor="middle" x="260.5" y="-92.3" font-family="Times,serif" font-size="14.00" fill="#0058ad">r 52 [1 2 3]</text>
<polyline fill="none" stroke="#0058ad" points="300,-81.5 300,-110.5 "/>
<text text-anchor="middle" x="707.5" y="-92.3" font-family="Times,serif" font-size="14.00" fill="#0058ad">r 51 [1 2 4 5 6 3 8 9 7 10 11 12 13 14 15 16 17 18 19 20 21 22 23 24 25 26 28 29 30 27 33 32 31 36 37 38 34 39 40 41 35 44 43 45 46 47 48 49]</text>
<polyline fill="none" stroke="#0058ad" points="1115,-81.5 1115,-110.5 "/>
<text text-anchor="middle" x="1143.5" y="-92.3" font-family="Times,serif" font-size="14.00" fill="#0058ad">a 51 50</text>
</g>
<!-- T9631 -->
<g id="node2" class="node">
<title>T9631</title>
<polygon fill="none" stroke="#0058ad" points="0,-.5 0,-29.5 1033,-29.5 1033,-.5 0,-.5"/>
<text text-anchor="middle" x="39.5" y="-11.3" font-family="Times,serif" font-size="14.00" fill="#0058ad">r 52 [1 2 3]</text>
<polyline fill="none" stroke="#0058ad" points="79,-.5 79,-29.5 "/>
<text text-anchor="middle" x="486.5" y="-11.3" font-family="Times,serif" font-size="14.00" fill="#0058ad">r 51 [1 2 4 5 6 3 8 9 7 10 11 12 13 14 15 16 17 18 19 20 21 22 23 24 25 26 28 29 30 27 33 32 31 36 37 38 34 39 40 41 35 44 43 45 46 47 48 49]</text>
<polyline fill="none" stroke="#0058ad" points="894,-.5 894,-29.5 "/>
<text text-anchor="middle" x="919" y="-11.3" font-family="Times,serif" font-size="14.00" fill="#0058ad">a 52 4</text>
<polyline fill="none" stroke="#0058ad" points="944,-.5 944,-29.5 "/>
<text text-anchor="middle" x="988.5" y="-11.3" font-family="Times,serif" font-size="14.00" fill="#0058ad">r 52 [1 2 3 4]</text>
</g>
<!-- T9629&#45;&gt;T9631 -->
<g id="edge1" class="edge">
<title>T9629:f0&#45;&gt;T9631:f2</title>
<path fill="none" stroke="#5b00c0" d="M260.5,-81C260.5,-46.6462 837.2884,-64.0735 911.64,-36.3946"/>
<polygon fill="#5b00c0" stroke="#5b00c0" points="913.9517,-39.0259 919.5,-30 909.5341,-33.596 913.9517,-39.0259"/>
<text text-anchor="middle" x="816" y="-51.8" font-family="Times,serif" font-size="14.00" fill="#5b00c0">rw</text>
</g>
<!-- T9631&#45;&gt;T9629 -->
<g id="edge2" class="edge">
<title>T9631:f1&#45;&gt;T9629:f2</title>
<path fill="none" stroke="#5b00c0" d="M486.5,-30C486.5,-48.9708 808.5874,-46.5143 827.5,-48 964.7001,-58.7779 1134.624,54.2357 1143.1645,-70.7413"/>
<polygon fill="#5b00c0" stroke="#5b00c0" points="1139.6749,-71.1198 1143.5,-81 1146.6712,-70.8909 1139.6749,-71.1198"/>
<text text-anchor="middle" x="1149" y="-51.8" font-family="Times,serif" font-size="14.00" fill="#5b00c0">rw</text>
</g>
</g>
</svg>
