<?xml version="1.0" encoding="UTF-8" standalone="no"?>
<!DOCTYPE svg PUBLIC "-//W3C//DTD SVG 1.1//EN"
 "http://www.w3.org/Graphics/SVG/1.1/DTD/svg11.dtd">
<!-- Generated by graphviz version 2.40.1 (20161225.0304)
 -->
<!-- Title: a_graph Pages: 1 -->
<svg width="1613pt" height="119pt"
 viewBox="0.00 0.00 1612.50 119.00" xmlns="http://www.w3.org/2000/svg" xmlns:xlink="http://www.w3.org/1999/xlink">
<g id="graph0" class="graph" transform="scale(1 1) rotate(0) translate(4 115)">
<title>a_graph</title>
<polygon fill="#ffffff" stroke="transparent" points="-4,4 -4,-115 1608.5,-115 1608.5,4 -4,4"/>
<!-- T21633 -->
<g id="node1" class="node">
<title>T21633</title>
<polygon fill="none" stroke="#0058ad" points="305.5,-81.5 305.5,-110.5 1604.5,-110.5 1604.5,-81.5 305.5,-81.5"/>
<text text-anchor="middle" x="337.5" y="-92.3" font-family="Times,serif" font-size="14.00" fill="#0058ad">a 104 57</text>
<polyline fill="none" stroke="#0058ad" points="369.5,-81.5 369.5,-110.5 "/>
<text text-anchor="middle" x="987" y="-92.3" font-family="Times,serif" font-size="14.00" fill="#0058ad">r 108 [1 2 3 4 5 6 7 8 9 10 11 13 14 15 16 12 18 17 19 20 21 22 23 24 25 28 30 31 29 26 27 32 33 34 35 36 37 40 41 42 43 44 39 45 47 46 49 51 52 50 54 53 60 61 62 58 64 65 63 66 68 67 69 70 72 71 75 73 74 77 76 78]</text>
</g>
<!-- T21631 -->
<g id="node2" class="node">
<title>T21631</title>
<polygon fill="none" stroke="#0058ad" points="0,-.5 0,-29.5 954,-29.5 954,-.5 0,-.5"/>
<text text-anchor="middle" x="445" y="-11.3" font-family="Times,serif" font-size="14.00" fill="#0058ad">r 104 [1 2 3 4 5 6 7 8 9 10 12 13 11 14 15 16 17 18 19 20 21 22 23 24 25 27 28 29 30 31 33 34 35 36 37 38 39 40 41 42 43 44 45 46 47 48 49 50 51 52 53 54]</text>
<polyline fill="none" stroke="#0058ad" points="890,-.5 890,-29.5 "/>
<text text-anchor="middle" x="922" y="-11.3" font-family="Times,serif" font-size="14.00" fill="#0058ad">a 108 80</text>
</g>
<!-- T21633&#45;&gt;T21631 -->
<g id="edge1" class="edge">
<title>T21633:f1&#45;&gt;T21631:f1</title>
<path fill="none" stroke="#5b00c0" d="M987,-81C987,-51.9195 986.8393,-22.5176 963.9378,-16.2294"/>
<polygon fill="#5b00c0" stroke="#5b00c0" points="964.3541,-12.7543 954,-15 963.4946,-19.7014 964.3541,-12.7543"/>
<text text-anchor="middle" x="993.5" y="-51.8" font-family="Times,serif" font-size="14.00" fill="#5b00c0">rw</text>
</g>
<!-- T21631&#45;&gt;T21633 -->
<g id="edge2" class="edge">
<title>T21631:f0&#45;&gt;T21633:f0</title>
<path fill="none" stroke="#5b00c0" d="M445,-30C445,-79.143 352.4363,-35.5096 338.6964,-70.8811"/>
<polygon fill="#5b00c0" stroke="#5b00c0" points="335.2017,-70.5589 337,-81 342.1053,-71.7164 335.2017,-70.5589"/>
<text text-anchor="middle" x="444.5" y="-51.8" font-family="Times,serif" font-size="14.00" fill="#5b00c0">rw</text>
</g>
</g>
</svg>
