<?xml version="1.0" encoding="UTF-8" standalone="no"?>
<!DOCTYPE svg PUBLIC "-//W3C//DTD SVG 1.1//EN"
 "http://www.w3.org/Graphics/SVG/1.1/DTD/svg11.dtd">
<!-- Generated by graphviz version 2.40.1 (20161225.0304)
 -->
<!-- Title: a_graph Pages: 1 -->
<svg width="4914pt" height="200pt"
 viewBox="0.00 0.00 4913.50 200.00" xmlns="http://www.w3.org/2000/svg" xmlns:xlink="http://www.w3.org/1999/xlink">
<g id="graph0" class="graph" transform="scale(1 1) rotate(0) translate(4 196)">
<title>a_graph</title>
<polygon fill="#ffffff" stroke="transparent" points="-4,4 -4,-196 4909.5,-196 4909.5,4 -4,4"/>
<!-- T20137 -->
<g id="node1" class="node">
<title>T20137</title>
<polygon fill="none" stroke="#0058ad" points="347,-162.5 347,-191.5 2193,-191.5 2193,-162.5 347,-162.5"/>
<text text-anchor="middle" x="1234.5" y="-173.3" font-family="Times,serif" font-size="14.00" fill="#0058ad">r 100 [1 4 5 6 2 3 10 7 8 9 11 12 14 15 16 17 13 19 21 20 18 22 23 24 25 27 26 28 32 29 30 31 34 33 35 38 40 36 41 42 43 45 46 47 48 39 50 51 52 61 62 64 65 66 59 67 68 69 70 71 72 73 74 75 76 79 80 81 77 78 82 83 84 85 86 87 88 89 90 91 92 93 94 95 97 98 99 100 101 102 103 104 105 107 106 96 108 109 110]</text>
<polyline fill="none" stroke="#0058ad" points="2122,-162.5 2122,-191.5 "/>
<text text-anchor="middle" x="2157.5" y="-173.3" font-family="Times,serif" font-size="14.00" fill="#0058ad">a 100 111</text>
</g>
<!-- T20141 -->
<g id="node3" class="node">
<title>T20141</title>
<polygon fill="none" stroke="#0058ad" points="2802.5,-81.5 2802.5,-110.5 4905.5,-110.5 4905.5,-81.5 2802.5,-81.5"/>
<text text-anchor="middle" x="2954.5" y="-92.3" font-family="Times,serif" font-size="14.00" fill="#0058ad">r 101 [1 2 3 4 5 6 8 7 10 9 11 12 13 15 16 14 18 19]</text>
<polyline fill="none" stroke="#0058ad" points="3106.5,-81.5 3106.5,-110.5 "/>
<text text-anchor="middle" x="4006" y="-92.3" font-family="Times,serif" font-size="14.00" fill="#0058ad">r 100 [1 4 5 6 2 3 10 7 8 9 11 12 14 15 16 17 13 19 21 20 18 22 23 24 25 27 26 28 32 29 30 31 34 33 35 38 40 36 41 42 43 45 46 47 48 39 50 51 52 61 62 64 65 66 59 67 68 69 70 71 72 73 74 75 76 79 80 81 77 78 82 83 84 85 86 87 88 89 90 91 92 93 94 95 97 98 99 100 101 102 103 104 105 107 106 96 108 109 110 111]</text>
</g>
<!-- T20137&#45;&gt;T20141 -->
<g id="edge1" class="edge">
<title>T20137:f1&#45;&gt;T20141:f1</title>
<path fill="none" stroke="#c000a5" d="M2193,-177C2241.3767,-177 3867.5987,-162.6191 3997.746,-116.8872"/>
<polygon fill="#c000a5" stroke="#c000a5" points="3999.8911,-119.6563 4006,-111 3995.8263,-113.9574 3999.8911,-119.6563"/>
<text text-anchor="middle" x="3918.5" y="-132.8" font-family="Times,serif" font-size="14.00" fill="#c000a5">wr</text>
</g>
<!-- T20139 -->
<g id="node2" class="node">
<title>T20139</title>
<polygon fill="none" stroke="#0058ad" points="0,-.5 0,-29.5 4608,-29.5 4608,-.5 0,-.5"/>
<text text-anchor="middle" x="887.5" y="-11.3" font-family="Times,serif" font-size="14.00" fill="#0058ad">r 100 [1 4 5 6 2 3 10 7 8 9 11 12 14 15 16 17 13 19 21 20 18 22 23 24 25 27 26 28 32 29 30 31 34 33 35 38 40 36 41 42 43 45 46 47 48 39 50 51 52 61 62 64 65 66 59 67 68 69 70 71 72 73 74 75 76 79 80 81 77 78 82 83 84 85 86 87 88 89 90 91 92 93 94 95 97 98 99 100 101 102 103 104 105 107 106 96 108 109 110]</text>
<polyline fill="none" stroke="#0058ad" points="1775,-.5 1775,-29.5 "/>
<text text-anchor="middle" x="2662.5" y="-11.3" font-family="Times,serif" font-size="14.00" fill="#0058ad">r 100 [1 4 5 6 2 3 10 7 8 9 11 12 14 15 16 17 13 19 21 20 18 22 23 24 25 27 26 28 32 29 30 31 34 33 35 38 40 36 41 42 43 45 46 47 48 39 50 51 52 61 62 64 65 66 59 67 68 69 70 71 72 73 74 75 76 79 80 81 77 78 82 83 84 85 86 87 88 89 90 91 92 93 94 95 97 98 99 100 101 102 103 104 105 107 106 96 108 109 110]</text>
<polyline fill="none" stroke="#0058ad" points="3550,-.5 3550,-29.5 "/>
<text text-anchor="middle" x="3582" y="-11.3" font-family="Times,serif" font-size="14.00" fill="#0058ad">a 101 17</text>
<polyline fill="none" stroke="#0058ad" points="3614,-.5 3614,-29.5 "/>
<text text-anchor="middle" x="4111" y="-11.3" font-family="Times,serif" font-size="14.00" fill="#0058ad">r 70 [2 3 4 5 6 7 8 9 10 12 11 13 15 17 16 18 19 20 21 22 23 24 39 40 41 42 43 44 45 46 47 51 52 53 54 55 56 57 58 59 60 61 62 64 65 66 67 68 69 70 71 72 73 75 74 76 77 78]</text>
</g>
<!-- T20139&#45;&gt;T20137 -->
<g id="edge2" class="edge">
<title>T20139:f0&#45;&gt;T20137:f1</title>
<path fill="none" stroke="#5b00c0" d="M887,-30C887,-310.4972 2127.1591,111.4281 2157.4364,-151.9201"/>
<polygon fill="#5b00c0" stroke="#5b00c0" points="2153.9471,-152.211 2158,-162 2160.9362,-151.8202 2153.9471,-152.211"/>
<text text-anchor="middle" x="2143.5" y="-92.3" font-family="Times,serif" font-size="14.00" fill="#5b00c0">rw</text>
</g>
<!-- T20141&#45;&gt;T20139 -->
<g id="edge3" class="edge">
<title>T20141:f0&#45;&gt;T20139:f2</title>
<path fill="none" stroke="#5b00c0" d="M2954,-81C2954,55.4599 3550.5142,-158.6225 3580.806,-39.9635"/>
<polygon fill="#5b00c0" stroke="#5b00c0" points="3584.2852,-40.3454 3582,-30 3577.3349,-39.5125 3584.2852,-40.3454"/>
<text text-anchor="middle" x="3582.5" y="-51.8" font-family="Times,serif" font-size="14.00" fill="#5b00c0">rw</text>
</g>
</g>
</svg>
