<?xml version="1.0" encoding="UTF-8" standalone="no"?>
<!DOCTYPE svg PUBLIC "-//W3C//DTD SVG 1.1//EN"
 "http://www.w3.org/Graphics/SVG/1.1/DTD/svg11.dtd">
<!-- Generated by graphviz version 2.40.1 (20161225.0304)
 -->
<!-- Title: a_graph Pages: 1 -->
<svg width="2723pt" height="119pt"
 viewBox="0.00 0.00 2723.00 119.00" xmlns="http://www.w3.org/2000/svg" xmlns:xlink="http://www.w3.org/1999/xlink">
<g id="graph0" class="graph" transform="scale(1 1) rotate(0) translate(4 115)">
<title>a_graph</title>
<polygon fill="#ffffff" stroke="transparent" points="-4,4 -4,-115 2719,-115 2719,4 -4,4"/>
<!-- T10265 -->
<g id="node1" class="node">
<title>T10265</title>
<polygon fill="none" stroke="#0058ad" points="0,-81.5 0,-110.5 1482,-110.5 1482,-81.5 0,-81.5"/>
<text text-anchor="middle" x="709" y="-92.3" font-family="Times,serif" font-size="14.00" fill="#0058ad">r 52 [1 2 3 4 5 6 7 8 9 10 11 12 13 14 16 15 17 18 19 21 20 22 23 24 30 32 36 34 39 40 41 42 43 45 46 44 47 48 49 50 51 52 53 54 55 56 57 58 59 60 61 63 64 62 65 66 67 68 70 69 71 72 74 73 75 76 77 78 79 80 81 82 83 84 85 86 87 88 89 91 90 92 93]</text>
<polyline fill="none" stroke="#0058ad" points="1418,-81.5 1418,-110.5 "/>
<text text-anchor="middle" x="1450" y="-92.3" font-family="Times,serif" font-size="14.00" fill="#0058ad">a 54 122</text>
</g>
<!-- T10261 -->
<g id="node2" class="node">
<title>T10261</title>
<polygon fill="none" stroke="#0058ad" points="597,-.5 597,-29.5 2715,-29.5 2715,-.5 597,-.5"/>
<text text-anchor="middle" x="629" y="-11.3" font-family="Times,serif" font-size="14.00" fill="#0058ad">a 52 100</text>
<polyline fill="none" stroke="#0058ad" points="661,-.5 661,-29.5 "/>
<text text-anchor="middle" x="1688" y="-11.3" font-family="Times,serif" font-size="14.00" fill="#0058ad">r 54 [2 3 1 4 6 7 5 10 11 8 9 12 13 14 15 17 16 19 20 21 18 22 23 25 24 27 30 31 32 33 26 34 28 29 35 36 37 38 39 40 41 43 44 45 46 47 48 49 50 51 42 52 53 54 55 56 57 59 60 61 62 63 64 65 58 66 68 67 71 72 73 74 75 76 77 79 80 69 70 81 83 84 78 85 82 86 87 88 89 90 92 93 91 94 95 98 99 100 101 96 97 103 102 106 107 108 109 104 105 110 111 113 114 112]</text>
</g>
<!-- T10265&#45;&gt;T10261 -->
<g id="edge1" class="edge">
<title>T10265:f0&#45;&gt;T10261:f0</title>
<path fill="none" stroke="#5b00c0" d="M709,-81C709,-42.787 643.2969,-66.5798 630.9775,-39.9929"/>
<polygon fill="#5b00c0" stroke="#5b00c0" points="634.3748,-39.1303 629,-30 627.508,-40.4892 634.3748,-39.1303"/>
<text text-anchor="middle" x="707.5" y="-51.8" font-family="Times,serif" font-size="14.00" fill="#5b00c0">rw</text>
</g>
<!-- T10261&#45;&gt;T10265 -->
<g id="edge2" class="edge">
<title>T10261:f1&#45;&gt;T10265:f1</title>
<path fill="none" stroke="#5b00c0" d="M1688,-30C1688,-75.0655 1549.1943,-93.641 1492.2352,-95.7869"/>
<polygon fill="#5b00c0" stroke="#5b00c0" points="1491.9249,-92.2925 1482,-96 1492.0707,-99.291 1491.9249,-92.2925"/>
<text text-anchor="middle" x="1686.5" y="-51.8" font-family="Times,serif" font-size="14.00" fill="#5b00c0">rw</text>
</g>
</g>
</svg>
