<?xml version="1.0" encoding="UTF-8" standalone="no"?>
<!DOCTYPE svg PUBLIC "-//W3C//DTD SVG 1.1//EN"
 "http://www.w3.org/Graphics/SVG/1.1/DTD/svg11.dtd">
<!-- Generated by graphviz version 2.40.1 (20161225.0304)
 -->
<!-- Title: a_graph Pages: 1 -->
<svg width="2404pt" height="119pt"
 viewBox="0.00 0.00 2404.00 119.00" xmlns="http://www.w3.org/2000/svg" xmlns:xlink="http://www.w3.org/1999/xlink">
<g id="graph0" class="graph" transform="scale(1 1) rotate(0) translate(4 115)">
<title>a_graph</title>
<polygon fill="#ffffff" stroke="transparent" points="-4,4 -4,-115 2400,-115 2400,4 -4,4"/>
<!-- T14837 -->
<g id="node1" class="node">
<title>T14837</title>
<polygon fill="none" stroke="#0058ad" points="0,-81.5 0,-110.5 2396,-110.5 2396,-81.5 0,-81.5"/>
<text text-anchor="middle" x="1123" y="-92.3" font-family="Times,serif" font-size="14.00" fill="#0058ad">r 76 [2 1 3 6 4 5 7 9 10 8 11 12 13 14 15 17 16 18 19 20 21 22 23 24 25 28 29 30 26 33 34 35 32 38 39 40 41 42 43 46 45 47 49 50 51 48 52 53 56 54 55 60 59 63 61 62 64 65 67 68 71 72 66 73 74 75 69 70 76 77 78 80 81 82 79 83 84 87 88 85 89 86 90 91 92 93 94 95 96 97 98 100 101 102 103 104 105 106 99 108 109 110 107 112 113 111 115 116 117 118 114 119 120 121 124 122 123 126 125 127]</text>
<polyline fill="none" stroke="#0058ad" points="2246,-81.5 2246,-110.5 "/>
<text text-anchor="middle" x="2271" y="-92.3" font-family="Times,serif" font-size="14.00" fill="#0058ad">a 77 4</text>
<polyline fill="none" stroke="#0058ad" points="2296,-81.5 2296,-110.5 "/>
<text text-anchor="middle" x="2321" y="-92.3" font-family="Times,serif" font-size="14.00" fill="#0058ad">a 77 5</text>
<polyline fill="none" stroke="#0058ad" points="2346,-81.5 2346,-110.5 "/>
<text text-anchor="middle" x="2371" y="-92.3" font-family="Times,serif" font-size="14.00" fill="#0058ad">a 78 1</text>
</g>
<!-- T14839 -->
<g id="node2" class="node">
<title>T14839</title>
<polygon fill="none" stroke="#0058ad" points="990,-.5 990,-29.5 1716,-29.5 1716,-.5 990,-.5"/>
<text text-anchor="middle" x="1242" y="-11.3" font-family="Times,serif" font-size="14.00" fill="#0058ad">r 72 [1 2 3 4 5 6 7 8 9 10 11 12 13 14 16 17 18 19 20 21 22 23 24 25 26 28 29 31 30 32]</text>
<polyline fill="none" stroke="#0058ad" points="1494,-.5 1494,-29.5 "/>
<text text-anchor="middle" x="1526" y="-11.3" font-family="Times,serif" font-size="14.00" fill="#0058ad">a 76 128</text>
<polyline fill="none" stroke="#0058ad" points="1558,-.5 1558,-29.5 "/>
<text text-anchor="middle" x="1597.5" y="-11.3" font-family="Times,serif" font-size="14.00" fill="#0058ad">r 77 [1 2 3]</text>
<polyline fill="none" stroke="#0058ad" points="1637,-.5 1637,-29.5 "/>
<text text-anchor="middle" x="1676.5" y="-11.3" font-family="Times,serif" font-size="14.00" fill="#0058ad">r 77 [1 2 3]</text>
</g>
<!-- T14837&#45;&gt;T14839 -->
<g id="edge1" class="edge">
<title>T14837:f0&#45;&gt;T14839:f1</title>
<path fill="none" stroke="#5b00c0" d="M1123,-81C1123,96.0135 1510.4115,-198.6143 1525.5448,-40.0243"/>
<polygon fill="#5b00c0" stroke="#5b00c0" points="1529.0427,-40.1485 1526,-30 1522.0499,-39.8309 1529.0427,-40.1485"/>
<text text-anchor="middle" x="1532.5" y="-51.8" font-family="Times,serif" font-size="14.00" fill="#5b00c0">rw</text>
</g>
<!-- T14839&#45;&gt;T14837 -->
<g id="edge2" class="edge">
<title>T14839:f2&#45;&gt;T14837:f1</title>
<path fill="none" stroke="#5b00c0" d="M1598,-30C1598,-176.3226 2238.5398,57.0655 2269.8162,-70.7166"/>
<polygon fill="#5b00c0" stroke="#5b00c0" points="2266.3792,-71.4659 2271,-81 2273.3333,-70.6653 2266.3792,-71.4659"/>
<text text-anchor="middle" x="2271.5" y="-51.8" font-family="Times,serif" font-size="14.00" fill="#5b00c0">rw</text>
</g>
</g>
</svg>
