<?xml version="1.0" encoding="UTF-8" standalone="no"?>
<!DOCTYPE svg PUBLIC "-//W3C//DTD SVG 1.1//EN"
 "http://www.w3.org/Graphics/SVG/1.1/DTD/svg11.dtd">
<!-- Generated by graphviz version 2.40.1 (20161225.0304)
 -->
<!-- Title: a_graph Pages: 1 -->
<svg width="3556pt" height="119pt"
 viewBox="0.00 0.00 3556.00 119.00" xmlns="http://www.w3.org/2000/svg" xmlns:xlink="http://www.w3.org/1999/xlink">
<g id="graph0" class="graph" transform="scale(1 1) rotate(0) translate(4 115)">
<title>a_graph</title>
<polygon fill="#ffffff" stroke="transparent" points="-4,4 -4,-115 3552,-115 3552,4 -4,4"/>
<!-- T10717 -->
<g id="node1" class="node">
<title>T10717</title>
<polygon fill="none" stroke="#0058ad" points="0,-81.5 0,-110.5 3046,-110.5 3046,-81.5 0,-81.5"/>
<text text-anchor="middle" x="1107" y="-92.3" font-family="Times,serif" font-size="14.00" fill="#0058ad">r 55 [1 7 5 6 13 15 14 16 17 18 21 22 19 20 23 24 25 26 28 29 30 31 32 33 34 35 27 37 38 39 40 41 42 36 43 44 45 46 47 48 49 52 50 51 53 54 55 56 58 59 57 61 62 63 64 65 66 67 68 60 69 71 72 70 73 75 76 77 78 79 80 81 82 83 84 85 86 87 88 74 89 90 91 93 92 94 95 96 97 98 99 100 101 102 105 106 103 104 107 108 109 110 112 113 111 114 115 116 117 118 119 121 122 123 120 126 127]</text>
<polyline fill="none" stroke="#0058ad" points="2214,-81.5 2214,-110.5 "/>
<text text-anchor="middle" x="2573" y="-92.3" font-family="Times,serif" font-size="14.00" fill="#0058ad">r 37 [1 2 3 4 5 6 7 8 10 11 12 14 16 17 18 48 51 52 53 54 55 56 57 58 59 60 61 62 63 64 65 66 68 67 69 70 71 73 74 75 76 77]</text>
<polyline fill="none" stroke="#0058ad" points="2932,-81.5 2932,-110.5 "/>
<text text-anchor="middle" x="2960.5" y="-92.3" font-family="Times,serif" font-size="14.00" fill="#0058ad">a 57 40</text>
<polyline fill="none" stroke="#0058ad" points="2989,-81.5 2989,-110.5 "/>
<text text-anchor="middle" x="3017.5" y="-92.3" font-family="Times,serif" font-size="14.00" fill="#0058ad">a 53 43</text>
</g>
<!-- T10715 -->
<g id="node2" class="node">
<title>T10715</title>
<polygon fill="none" stroke="#0058ad" points="2200,-.5 2200,-29.5 3548,-29.5 3548,-.5 2200,-.5"/>
<text text-anchor="middle" x="2232" y="-11.3" font-family="Times,serif" font-size="14.00" fill="#0058ad">a 55 125</text>
<polyline fill="none" stroke="#0058ad" points="2264,-.5 2264,-29.5 "/>
<text text-anchor="middle" x="2585" y="-11.3" font-family="Times,serif" font-size="14.00" fill="#0058ad">r 57 [1 2 3 4 5 6 7 8 9 11 12 13 14 15 16 17 18 10 19 21 22 20 23 24 25 26 27 29 30 28 31 32 34 35 36 37 33 39]</text>
<polyline fill="none" stroke="#0058ad" points="2906,-.5 2906,-29.5 "/>
<text text-anchor="middle" x="3227" y="-11.3" font-family="Times,serif" font-size="14.00" fill="#0058ad">r 57 [1 2 3 4 5 6 7 8 9 11 12 13 14 15 16 17 18 10 19 21 22 20 23 24 25 26 27 29 30 28 31 32 34 35 36 37 33 39]</text>
</g>
<!-- T10717&#45;&gt;T10715 -->
<g id="edge1" class="edge">
<title>T10717:f0&#45;&gt;T10715:f0</title>
<path fill="none" stroke="#5b00c0" d="M1107,-81C1107,-22.3652 2065.9245,-15.4461 2189.6959,-15.0226"/>
<polygon fill="#5b00c0" stroke="#5b00c0" points="2190.0077,-18.522 2200,-15 2189.9923,-11.5221 2190.0077,-18.522"/>
<text text-anchor="middle" x="1243.5" y="-51.8" font-family="Times,serif" font-size="14.00" fill="#5b00c0">rw</text>
</g>
<!-- T10715&#45;&gt;T10717 -->
<g id="edge2" class="edge">
<title>T10715:f1&#45;&gt;T10717:f2</title>
<path fill="none" stroke="#5b00c0" d="M2585,-30C2585,-195.0182 2945.0173,75.5501 2960.4868,-70.7515"/>
<polygon fill="#5b00c0" stroke="#5b00c0" points="2957.0042,-71.1876 2961,-81 2963.9954,-70.8374 2957.0042,-71.1876"/>
<text text-anchor="middle" x="2966.5" y="-51.8" font-family="Times,serif" font-size="14.00" fill="#5b00c0">rw</text>
</g>
</g>
</svg>
