<?xml version="1.0" encoding="UTF-8" standalone="no"?>
<!DOCTYPE svg PUBLIC "-//W3C//DTD SVG 1.1//EN"
 "http://www.w3.org/Graphics/SVG/1.1/DTD/svg11.dtd">
<!-- Generated by graphviz version 2.40.1 (20161225.0304)
 -->
<!-- Title: a_graph Pages: 1 -->
<svg width="4706pt" height="119pt"
 viewBox="0.00 0.00 4706.00 119.00" xmlns="http://www.w3.org/2000/svg" xmlns:xlink="http://www.w3.org/1999/xlink">
<g id="graph0" class="graph" transform="scale(1 1) rotate(0) translate(4 115)">
<title>a_graph</title>
<polygon fill="#ffffff" stroke="transparent" points="-4,4 -4,-115 4702,-115 4702,4 -4,4"/>
<!-- T20385 -->
<g id="node1" class="node">
<title>T20385</title>
<polygon fill="none" stroke="#0058ad" points="1727,-81.5 1727,-110.5 3749,-110.5 3749,-81.5 1727,-81.5"/>
<text text-anchor="middle" x="1759" y="-92.3" font-family="Times,serif" font-size="14.00" fill="#0058ad">a 102 71</text>
<polyline fill="none" stroke="#0058ad" points="1791,-81.5 1791,-110.5 "/>
<text text-anchor="middle" x="2770" y="-92.3" font-family="Times,serif" font-size="14.00" fill="#0058ad">r 95 [1 2 3 4 5 6 7 8 9 10 11 12 13 14 15 16 17 18 19 21 22 20 23 24 26 25 27 29 28 30 31 32 34 35 33 36 37 38 39 41 42 43 49 51 50 52 53 54 55 56 57 58 59 60 61 62 63 64 65 66 67 68 69 70 71 72 73 74 75 76 77 78 79 80 81 83 84 85 87 82 88 89 90 91 92 93 94 95 96 97 98 99 100 101 102 103 106 107 104 105 108 110 109 111 112 114 113 116]</text>
</g>
<!-- T20391 -->
<g id="node2" class="node">
<title>T20391</title>
<polygon fill="none" stroke="#0058ad" points="0,-.5 0,-29.5 4698,-29.5 4698,-.5 0,-.5"/>
<text text-anchor="middle" x="600.5" y="-11.3" font-family="Times,serif" font-size="14.00" fill="#0058ad">r 102 [1 2 3 4 5 7 6 8 9 10 11 12 13 14 16 17 18 15 21 20 19 22 23 24 25 27 26 28 31 32 29 30 34 35 36 37 38 33 40 41 39 42 43 44 45 48 46 47 50 51 52 53 54 55 56 49 58 59 60 57 61 62 63 66 68 69 67 70 64 65]</text>
<polyline fill="none" stroke="#0058ad" points="1201,-.5 1201,-29.5 "/>
<text text-anchor="middle" x="2317" y="-11.3" font-family="Times,serif" font-size="14.00" fill="#0058ad">r 86 [1 2 3 4 5 6 7 8 9 10 11 12 13 14 15 16 17 18 20 21 22 23 24 25 26 27 28 29 30 31 32 33 34 36 37 38 39 40 41 42 43 44 45 46 47 48 49 50 51 52 54 53 55 56 58 59 60 61 62 63 64 65 66 67 68 69 70 71 72 73 74 76 78 79 80 81 82 83 84 85 86 87 88 89 90 91 92 93 94 95 96 97 98 100 99 101 102 104 103 105 106 107 108 109 110 111 112 113 114 115 116 117 118 119 121 120 122 123 124 125]</text>
<polyline fill="none" stroke="#0058ad" points="3433,-.5 3433,-29.5 "/>
<text text-anchor="middle" x="3465" y="-11.3" font-family="Times,serif" font-size="14.00" fill="#0058ad">a 95 115</text>
<polyline fill="none" stroke="#0058ad" points="3497,-.5 3497,-29.5 "/>
<text text-anchor="middle" x="4097.5" y="-11.3" font-family="Times,serif" font-size="14.00" fill="#0058ad">r 102 [1 2 3 4 5 7 6 8 9 10 11 12 13 14 16 17 18 15 21 20 19 22 23 24 25 27 26 28 31 32 29 30 34 35 36 37 38 33 40 41 39 42 43 44 45 48 46 47 50 51 52 53 54 55 56 49 58 59 60 57 61 62 63 66 68 69 67 70 64 65]</text>
</g>
<!-- T20385&#45;&gt;T20391 -->
<g id="edge1" class="edge">
<title>T20385:f1&#45;&gt;T20391:f2</title>
<path fill="none" stroke="#5b00c0" d="M2770,-81C2770,70.2302 3432.8036,-172.9594 3463.8726,-40.2177"/>
<polygon fill="#5b00c0" stroke="#5b00c0" points="3467.382,-40.3236 3465,-30 3460.4243,-39.5558 3467.382,-40.3236"/>
<text text-anchor="middle" x="3464.5" y="-51.8" font-family="Times,serif" font-size="14.00" fill="#5b00c0">rw</text>
</g>
<!-- T20391&#45;&gt;T20385 -->
<g id="edge2" class="edge">
<title>T20391:f0&#45;&gt;T20385:f0</title>
<path fill="none" stroke="#5b00c0" d="M600,-30C600,-90.5134 1590.7647,-95.6958 1716.7613,-95.9854"/>
<polygon fill="#5b00c0" stroke="#5b00c0" points="1716.995,-99.4856 1727,-96 1717.005,-92.4856 1716.995,-99.4856"/>
<text text-anchor="middle" x="719.5" y="-51.8" font-family="Times,serif" font-size="14.00" fill="#5b00c0">rw</text>
</g>
</g>
</svg>
