<?xml version="1.0" encoding="UTF-8" standalone="no"?>
<!DOCTYPE svg PUBLIC "-//W3C//DTD SVG 1.1//EN"
 "http://www.w3.org/Graphics/SVG/1.1/DTD/svg11.dtd">
<!-- Generated by graphviz version 2.40.1 (20161225.0304)
 -->
<!-- Title: a_graph Pages: 1 -->
<svg width="2576pt" height="200pt"
 viewBox="0.00 0.00 2576.00 200.00" xmlns="http://www.w3.org/2000/svg" xmlns:xlink="http://www.w3.org/1999/xlink">
<g id="graph0" class="graph" transform="scale(1 1) rotate(0) translate(4 196)">
<title>a_graph</title>
<polygon fill="#ffffff" stroke="transparent" points="-4,4 -4,-196 2572,-196 2572,4 -4,4"/>
<!-- T12255 -->
<g id="node1" class="node">
<title>T12255</title>
<polygon fill="none" stroke="#0058ad" points="809,-162.5 809,-191.5 873,-191.5 873,-162.5 809,-162.5"/>
<text text-anchor="middle" x="841" y="-173.3" font-family="Times,serif" font-size="14.00" fill="#0058ad">a 62 120</text>
</g>
<!-- T12259 -->
<g id="node2" class="node">
<title>T12259</title>
<polygon fill="none" stroke="#0058ad" points="31,-81.5 31,-110.5 823,-110.5 823,-81.5 31,-81.5"/>
<text text-anchor="middle" x="63" y="-92.3" font-family="Times,serif" font-size="14.00" fill="#0058ad">a 56 126</text>
<polyline fill="none" stroke="#0058ad" points="95,-81.5 95,-110.5 "/>
<text text-anchor="middle" x="261" y="-92.3" font-family="Times,serif" font-size="14.00" fill="#0058ad">r 63 [2 3 1 4 5 6 7 8 9 10 11 12 13 14 15 16 17 18 19 20]</text>
<polyline fill="none" stroke="#0058ad" points="427,-81.5 427,-110.5 "/>
<text text-anchor="middle" x="593" y="-92.3" font-family="Times,serif" font-size="14.00" fill="#0058ad">r 63 [2 3 1 4 5 6 7 8 9 10 11 12 13 14 15 16 17 18 19 20]</text>
<polyline fill="none" stroke="#0058ad" points="759,-81.5 759,-110.5 "/>
<text text-anchor="middle" x="791" y="-92.3" font-family="Times,serif" font-size="14.00" fill="#0058ad">a 62 104</text>
</g>
<!-- T12255&#45;&gt;T12259 -->
<g id="edge1" class="edge">
<title>T12255:f0&#45;&gt;T12259:f3</title>
<path fill="none" stroke="#c02700" d="M820.9512,-162.2918C809.323,-152.2252 796.206,-137.712 792.215,-121.0449"/>
<polygon fill="#c02700" stroke="#c02700" points="795.6756,-120.5073 791,-111 788.7263,-121.348 795.6756,-120.5073"/>
<text text-anchor="middle" x="813" y="-132.8" font-family="Times,serif" font-size="14.00" fill="#c02700">ww</text>
</g>
<!-- T12257 -->
<g id="node3" class="node">
<title>T12257</title>
<polygon fill="none" stroke="#0058ad" points="0,-.5 0,-29.5 2568,-29.5 2568,-.5 0,-.5"/>
<text text-anchor="middle" x="25" y="-11.3" font-family="Times,serif" font-size="14.00" fill="#0058ad">a 64 4</text>
<polyline fill="none" stroke="#0058ad" points="50,-.5 50,-29.5 "/>
<text text-anchor="middle" x="78.5" y="-11.3" font-family="Times,serif" font-size="14.00" fill="#0058ad">a 63 21</text>
<polyline fill="none" stroke="#0058ad" points="107,-.5 107,-29.5 "/>
<text text-anchor="middle" x="1163" y="-11.3" font-family="Times,serif" font-size="14.00" fill="#0058ad">r 62 [1 4 5 2 8 9 10 11 6 12 13 15 16 17 19 18 21 22 24 25 26 23 20 29 30 31 32 33 27 28 34 35 36 38 39 37 40 41 43 42 44 45 46 47 48 49 50 52 53 54 51 57 58 59 60 61 55 56 62 63 64 65 66 67 68 69 70 71 72 73 74 75 76 77 78 82 79 80 81 84 85 86 87 89 90 91 88 83 92 93 94 95 96 98 97 99 101 102 103 100 105 106 107 108 109 110 112 113 114 111 116 117 118 115 119]</text>
<polyline fill="none" stroke="#0058ad" points="2219,-.5 2219,-29.5 "/>
<text text-anchor="middle" x="2393.5" y="-11.3" font-family="Times,serif" font-size="14.00" fill="#0058ad">r 63 [2 3 1 4 5 6 7 8 9 10 11 12 13 14 15 16 17 18 19 20 21]</text>
</g>
<!-- T12259&#45;&gt;T12257 -->
<g id="edge2" class="edge">
<title>T12259:f1&#45;&gt;T12257:f1</title>
<path fill="none" stroke="#5b00c0" d="M261,-81C261,-.3601 94.0721,-104.2515 79.0747,-40.1906"/>
<polygon fill="#5b00c0" stroke="#5b00c0" points="82.5296,-39.5778 78,-30 75.5682,-40.312 82.5296,-39.5778"/>
<text text-anchor="middle" x="263.5" y="-51.8" font-family="Times,serif" font-size="14.00" fill="#5b00c0">rw</text>
</g>
<!-- T12257&#45;&gt;T12255 -->
<g id="edge3" class="edge">
<title>T12257:f2&#45;&gt;T12255:f0</title>
<path fill="none" stroke="#5b00c0" d="M1163,-30C1163,-168.1552 1009.3453,-105.8567 881.5359,-158.3077"/>
<polygon fill="#5b00c0" stroke="#5b00c0" points="879.7615,-155.263 871.9919,-162.466 882.5576,-161.6803 879.7615,-155.263"/>
<text text-anchor="middle" x="1159.5" y="-92.3" font-family="Times,serif" font-size="14.00" fill="#5b00c0">rw</text>
</g>
</g>
</svg>
