<?xml version="1.0" encoding="UTF-8" standalone="no"?>
<!DOCTYPE svg PUBLIC "-//W3C//DTD SVG 1.1//EN"
 "http://www.w3.org/Graphics/SVG/1.1/DTD/svg11.dtd">
<!-- Generated by graphviz version 2.40.1 (20161225.0304)
 -->
<!-- Title: a_graph Pages: 1 -->
<svg width="2633pt" height="119pt"
 viewBox="0.00 0.00 2632.50 119.00" xmlns="http://www.w3.org/2000/svg" xmlns:xlink="http://www.w3.org/1999/xlink">
<g id="graph0" class="graph" transform="scale(1 1) rotate(0) translate(4 115)">
<title>a_graph</title>
<polygon fill="#ffffff" stroke="transparent" points="-4,4 -4,-115 2628.5,-115 2628.5,4 -4,4"/>
<!-- T21389 -->
<g id="node1" class="node">
<title>T21389</title>
<polygon fill="none" stroke="#0058ad" points="1112.5,-81.5 1112.5,-110.5 2624.5,-110.5 2624.5,-81.5 1112.5,-81.5"/>
<text text-anchor="middle" x="1141" y="-92.3" font-family="Times,serif" font-size="14.00" fill="#0058ad">a 108 7</text>
<polyline fill="none" stroke="#0058ad" points="1169.5,-81.5 1169.5,-110.5 "/>
<text text-anchor="middle" x="1201.5" y="-92.3" font-family="Times,serif" font-size="14.00" fill="#0058ad">a 103 76</text>
<polyline fill="none" stroke="#0058ad" points="1233.5,-81.5 1233.5,-110.5 "/>
<text text-anchor="middle" x="1929" y="-92.3" font-family="Times,serif" font-size="14.00" fill="#0058ad">r 106 [2 1 3 4 5 6 8 7 10 11 9 12 13 14 15 16 18 19 17 20 21 22 23 25 24 26 28 29 31 30 32 34 33 35 37 38 39 40 36 41 42 43 44 46 47 45 48 49 51 50 52 53 54 55 56 57 58 59 61 60 62 63 64 65 66 67 68 69 70 71 72 73 74 75 76 77 78 79 80 82 83]</text>
</g>
<!-- T21387 -->
<g id="node2" class="node">
<title>T21387</title>
<polygon fill="none" stroke="#0058ad" points="0,-.5 0,-29.5 1525,-29.5 1525,-.5 0,-.5"/>
<text text-anchor="middle" x="28.5" y="-11.3" font-family="Times,serif" font-size="14.00" fill="#0058ad">a 70 95</text>
<polyline fill="none" stroke="#0058ad" points="57,-.5 57,-29.5 "/>
<text text-anchor="middle" x="700.5" y="-11.3" font-family="Times,serif" font-size="14.00" fill="#0058ad">r 70 [2 3 4 5 6 7 8 9 10 12 11 13 15 17 16 18 19 20 21 22 23 24 39 40 41 42 43 44 45 46 47 51 52 53 54 55 56 57 58 59 60 61 62 64 65 66 67 68 69 70 71 72 73 75 74 76 77 78 79 80 81 82 83 84 85 86 87 88 89 90 91 92 93 94 95]</text>
<polyline fill="none" stroke="#0058ad" points="1344,-.5 1344,-29.5 "/>
<text text-anchor="middle" x="1402.5" y="-11.3" font-family="Times,serif" font-size="14.00" fill="#0058ad">r 108 [1 2 3 4 5 6]</text>
<polyline fill="none" stroke="#0058ad" points="1461,-.5 1461,-29.5 "/>
<text text-anchor="middle" x="1493" y="-11.3" font-family="Times,serif" font-size="14.00" fill="#0058ad">a 106 81</text>
</g>
<!-- T21389&#45;&gt;T21387 -->
<g id="edge1" class="edge">
<title>T21389:f2&#45;&gt;T21387:f3</title>
<path fill="none" stroke="#5b00c0" d="M1929.5,-81C1929.5,-38.0034 1609.1244,-17.3186 1535.661,-15.1848"/>
<polygon fill="#5b00c0" stroke="#5b00c0" points="1535.562,-11.6825 1525.5,-15 1535.4347,-18.6814 1535.562,-11.6825"/>
<text text-anchor="middle" x="1912" y="-51.8" font-family="Times,serif" font-size="14.00" fill="#5b00c0">rw</text>
</g>
<!-- T21387&#45;&gt;T21389 -->
<g id="edge2" class="edge">
<title>T21387:f2&#45;&gt;T21389:f0</title>
<path fill="none" stroke="#5b00c0" d="M1402.5,-30C1402.5,-144.9229 1156.6191,26.2865 1141.2516,-70.7531"/>
<polygon fill="#5b00c0" stroke="#5b00c0" points="1137.741,-70.7707 1140.5,-81 1144.7222,-71.2829 1137.741,-70.7707"/>
<text text-anchor="middle" x="1407" y="-51.8" font-family="Times,serif" font-size="14.00" fill="#5b00c0">rw</text>
</g>
</g>
</svg>
