<?xml version="1.0" encoding="UTF-8" standalone="no"?>
<!DOCTYPE svg PUBLIC "-//W3C//DTD SVG 1.1//EN"
 "http://www.w3.org/Graphics/SVG/1.1/DTD/svg11.dtd">
<!-- Generated by graphviz version 2.40.1 (20161225.0304)
 -->
<!-- Title: a_graph Pages: 1 -->
<svg width="2549pt" height="119pt"
 viewBox="0.00 0.00 2549.00 119.00" xmlns="http://www.w3.org/2000/svg" xmlns:xlink="http://www.w3.org/1999/xlink">
<g id="graph0" class="graph" transform="scale(1 1) rotate(0) translate(4 115)">
<title>a_graph</title>
<polygon fill="#ffffff" stroke="transparent" points="-4,4 -4,-115 2545,-115 2545,4 -4,4"/>
<!-- T18403 -->
<g id="node1" class="node">
<title>T18403</title>
<polygon fill="none" stroke="#0058ad" points="154.5,-81.5 154.5,-110.5 2026.5,-110.5 2026.5,-81.5 154.5,-81.5"/>
<text text-anchor="middle" x="186.5" y="-92.3" font-family="Times,serif" font-size="14.00" fill="#0058ad">a 92 100</text>
<polyline fill="none" stroke="#0058ad" points="218.5,-81.5 218.5,-110.5 "/>
<text text-anchor="middle" x="306.5" y="-92.3" font-family="Times,serif" font-size="14.00" fill="#0058ad">r 93 [1 2 3 4 5 6 7 8 9 10 11]</text>
<polyline fill="none" stroke="#0058ad" points="394.5,-81.5 394.5,-110.5 "/>
<text text-anchor="middle" x="1210.5" y="-92.3" font-family="Times,serif" font-size="14.00" fill="#0058ad">r 92 [1 2 3 4 5 6 7 8 9 10 12 11 13 14 17 18 19 20 21 22 23 24 25 26 15 16 28 27 30 31 29 32 33 34 35 36 37 38 39 40 41 42 43 44 45 46 47 49 48 50 51 55 56 52 57 59 61 62 63 65 66 68 67 69 70 71 72 73 74 75 76 77 78 79 80 81 82 83 84 85 86 87 88 89 90 93 91 92 96 97 98 94 99 95 100]</text>
</g>
<!-- T18405 -->
<g id="node2" class="node">
<title>T18405</title>
<polygon fill="none" stroke="#0058ad" points="0,-.5 0,-29.5 2541,-29.5 2541,-.5 0,-.5"/>
<text text-anchor="middle" x="28.5" y="-11.3" font-family="Times,serif" font-size="14.00" fill="#0058ad">a 93 12</text>
<polyline fill="none" stroke="#0058ad" points="57,-.5 57,-29.5 "/>
<text text-anchor="middle" x="861" y="-11.3" font-family="Times,serif" font-size="14.00" fill="#0058ad">r 92 [1 2 3 4 5 6 7 8 9 10 12 11 13 14 17 18 19 20 21 22 23 24 25 26 15 16 28 27 30 31 29 32 33 34 35 36 37 38 39 40 41 42 43 44 45 46 47 49 48 50 51 55 56 52 57 59 61 62 63 65 66 68 67 69 70 71 72 73 74 75 76 77 78 79 80 81 82 83 84 85 86 87 88 89 90 93 91 92 96 97 98 94 99 95]</text>
<polyline fill="none" stroke="#0058ad" points="1665,-.5 1665,-29.5 "/>
<text text-anchor="middle" x="2103" y="-11.3" font-family="Times,serif" font-size="14.00" fill="#0058ad">r 3 [1 2 8 9 10 11 12 13 14 16 17 18 19 20 21 22 23 24 37 38 39 41 42 44 45 46 47 49 50 51 52 53 54 55 56 57 58 59 60 61 62 63 64 65 69 70 72 73 74 75]</text>
</g>
<!-- T18403&#45;&gt;T18405 -->
<g id="edge1" class="edge">
<title>T18403:f1&#45;&gt;T18405:f0</title>
<path fill="none" stroke="#5b00c0" d="M306.5,-81C306.5,40.9373 44.5505,-144.1647 29.2018,-40.2179"/>
<polygon fill="#5b00c0" stroke="#5b00c0" points="32.6771,-39.7366 28.5,-30 25.6936,-40.2164 32.6771,-39.7366"/>
<text text-anchor="middle" x="312" y="-51.8" font-family="Times,serif" font-size="14.00" fill="#5b00c0">rw</text>
</g>
<!-- T18405&#45;&gt;T18403 -->
<g id="edge2" class="edge">
<title>T18405:f1&#45;&gt;T18403:f0</title>
<path fill="none" stroke="#5b00c0" d="M860.5,-30C860.5,-47.4556 277.9491,-60.3067 196.0279,-77.1148"/>
<polygon fill="#5b00c0" stroke="#5b00c0" points="194.4382,-73.9832 186.5,-81 197.0813,-80.465 194.4382,-73.9832"/>
<text text-anchor="middle" x="669" y="-51.8" font-family="Times,serif" font-size="14.00" fill="#5b00c0">rw</text>
</g>
</g>
</svg>
