<?xml version="1.0" encoding="UTF-8" standalone="no"?>
<!DOCTYPE svg PUBLIC "-//W3C//DTD SVG 1.1//EN"
 "http://www.w3.org/Graphics/SVG/1.1/DTD/svg11.dtd">
<!-- Generated by graphviz version 2.40.1 (20161225.0304)
 -->
<!-- Title: a_graph Pages: 1 -->
<svg width="2563pt" height="119pt"
 viewBox="0.00 0.00 2563.00 119.00" xmlns="http://www.w3.org/2000/svg" xmlns:xlink="http://www.w3.org/1999/xlink">
<g id="graph0" class="graph" transform="scale(1 1) rotate(0) translate(4 115)">
<title>a_graph</title>
<polygon fill="#ffffff" stroke="transparent" points="-4,4 -4,-115 2559,-115 2559,4 -4,4"/>
<!-- T12073 -->
<g id="node1" class="node">
<title>T12073</title>
<polygon fill="none" stroke="#0058ad" points="0,-81.5 0,-110.5 2555,-110.5 2555,-81.5 0,-81.5"/>
<text text-anchor="middle" x="25" y="-92.3" font-family="Times,serif" font-size="14.00" fill="#0058ad">a 63 5</text>
<polyline fill="none" stroke="#0058ad" points="50,-81.5 50,-110.5 "/>
<text text-anchor="middle" x="819.5" y="-92.3" font-family="Times,serif" font-size="14.00" fill="#0058ad">r 53 [1 2 3 4 5 6 7 8 9 10 11 12 14 13 15 16 17 18 19 20 21 23 24 25 26 27 28 29 30 31 32 33 34 35 36 37 38 39 40 41 42 43 44 45 46 47 48 49 50 51 52 53 54 55 56 57 58 59 60 61 62 63 65 68 69 70 71 72 73 74 75 76 77 78 79 80 81 82 83 84 85 86 89 90 91 92 93 94 95 96]</text>
<polyline fill="none" stroke="#0058ad" points="1589,-81.5 1589,-110.5 "/>
<text text-anchor="middle" x="2072" y="-92.3" font-family="Times,serif" font-size="14.00" fill="#0058ad">r 62 [1 4 5 2 8 9 10 11 6 12 13 15 16 17 19 18 21 22 24 25 26 23 20 29 30 31 32 33 27 28 34 35 36 38 39 37 40 41 43 42 44 45 46 47 48 49 50 52 53 54 51 57 58 59 60 61]</text>
</g>
<!-- T12077 -->
<g id="node2" class="node">
<title>T12077</title>
<polygon fill="none" stroke="#0058ad" points="611,-.5 611,-29.5 1780,-29.5 1780,-.5 611,-.5"/>
<text text-anchor="middle" x="655.5" y="-11.3" font-family="Times,serif" font-size="14.00" fill="#0058ad">r 63 [2 3 1 4]</text>
<polyline fill="none" stroke="#0058ad" points="700,-.5 700,-29.5 "/>
<text text-anchor="middle" x="1183" y="-11.3" font-family="Times,serif" font-size="14.00" fill="#0058ad">r 62 [1 4 5 2 8 9 10 11 6 12 13 15 16 17 19 18 21 22 24 25 26 23 20 29 30 31 32 33 27 28 34 35 36 38 39 37 40 41 43 42 44 45 46 47 48 49 50 52 53 54 51 57 58 59 60 61]</text>
<polyline fill="none" stroke="#0058ad" points="1666,-.5 1666,-29.5 "/>
<text text-anchor="middle" x="1694.5" y="-11.3" font-family="Times,serif" font-size="14.00" fill="#0058ad">a 62 55</text>
<polyline fill="none" stroke="#0058ad" points="1723,-.5 1723,-29.5 "/>
<text text-anchor="middle" x="1751.5" y="-11.3" font-family="Times,serif" font-size="14.00" fill="#0058ad">a 62 56</text>
</g>
<!-- T12073&#45;&gt;T12077 -->
<g id="edge1" class="edge">
<title>T12073:f2&#45;&gt;T12077:f2</title>
<path fill="none" stroke="#5b00c0" d="M2072.5,-81C2072.5,84.8801 1710.5677,-187.3565 1695.0159,-40.3017"/>
<polygon fill="#5b00c0" stroke="#5b00c0" points="1698.4959,-39.8124 1694.5,-30 1691.5047,-40.1626 1698.4959,-39.8124"/>
<text text-anchor="middle" x="2078" y="-51.8" font-family="Times,serif" font-size="14.00" fill="#5b00c0">rw</text>
</g>
<!-- T12077&#45;&gt;T12073 -->
<g id="edge2" class="edge">
<title>T12077:f0&#45;&gt;T12073:f0</title>
<path fill="none" stroke="#5b00c0" d="M610.5,-15C548.3045,-15 76.1878,-15.43 28.3988,-71.5128"/>
<polygon fill="#5b00c0" stroke="#5b00c0" points="25.0638,-70.4202 24.5,-81 31.5384,-73.081 25.0638,-70.4202"/>
<text text-anchor="middle" x="87" y="-51.8" font-family="Times,serif" font-size="14.00" fill="#5b00c0">rw</text>
</g>
</g>
</svg>
