<?xml version="1.0" encoding="UTF-8" standalone="no"?>
<!DOCTYPE svg PUBLIC "-//W3C//DTD SVG 1.1//EN"
 "http://www.w3.org/Graphics/SVG/1.1/DTD/svg11.dtd">
<!-- Generated by graphviz version 2.40.1 (20161225.0304)
 -->
<!-- Title: a_graph Pages: 1 -->
<svg width="3601pt" height="119pt"
 viewBox="0.00 0.00 3601.00 119.00" xmlns="http://www.w3.org/2000/svg" xmlns:xlink="http://www.w3.org/1999/xlink">
<g id="graph0" class="graph" transform="scale(1 1) rotate(0) translate(4 115)">
<title>a_graph</title>
<polygon fill="#ffffff" stroke="transparent" points="-4,4 -4,-115 3597,-115 3597,4 -4,4"/>
<!-- T14307 -->
<g id="node1" class="node">
<title>T14307</title>
<polygon fill="none" stroke="#0058ad" points="1757,-81.5 1757,-110.5 2266,-110.5 2266,-81.5 1757,-81.5"/>
<text text-anchor="middle" x="1983" y="-92.3" font-family="Times,serif" font-size="14.00" fill="#0058ad">r 73 [1 2 3 5 4 6 7 8 9 10 11 13 15 16 17 18 19 20 21 22 24 25 23 26 27 28 29]</text>
<polyline fill="none" stroke="#0058ad" points="2209,-81.5 2209,-110.5 "/>
<text text-anchor="middle" x="2237.5" y="-92.3" font-family="Times,serif" font-size="14.00" fill="#0058ad">a 75 80</text>
</g>
<!-- T14309 -->
<g id="node2" class="node">
<title>T14309</title>
<polygon fill="none" stroke="#0058ad" points="0,-.5 0,-29.5 3593,-29.5 3593,-.5 0,-.5"/>
<text text-anchor="middle" x="655.5" y="-11.3" font-family="Times,serif" font-size="14.00" fill="#0058ad">r 75 [1 2 5 6 7 8 9 10 11 12 13 15 16 17 18 14 22 23 24 26 27 28 29 30 31 19 32 33 34 36 35 37 38 39 40 42 43 41 45 44 47 48 49 46 50 51 54 55 56 57 58 52 53 60 61 62 59 64 63 66 67 68 65 70 71 72 73 74 69 76 77 78 79 75 81 82]</text>
<polyline fill="none" stroke="#0058ad" points="1311,-.5 1311,-29.5 "/>
<text text-anchor="middle" x="1966.5" y="-11.3" font-family="Times,serif" font-size="14.00" fill="#0058ad">r 75 [1 2 5 6 7 8 9 10 11 12 13 15 16 17 18 14 22 23 24 26 27 28 29 30 31 19 32 33 34 36 35 37 38 39 40 42 43 41 45 44 47 48 49 46 50 51 54 55 56 57 58 52 53 60 61 62 59 64 63 66 67 68 65 70 71 72 73 74 69 76 77 78 79 75 81 82]</text>
<polyline fill="none" stroke="#0058ad" points="2622,-.5 2622,-29.5 "/>
<text text-anchor="middle" x="3079" y="-11.3" font-family="Times,serif" font-size="14.00" fill="#0058ad">r 74 [1 3 4 5 2 8 9 10 11 12 13 14 16 18 19 20 21 17 23 24 25 26 27 28 29 30 31 32 33 34 35 36 37 38 39 40 41 42 43 44 45 46 47 48 49 50 51 52 53 54 55 56 57]</text>
<polyline fill="none" stroke="#0058ad" points="3536,-.5 3536,-29.5 "/>
<text text-anchor="middle" x="3564.5" y="-11.3" font-family="Times,serif" font-size="14.00" fill="#0058ad">a 73 30</text>
</g>
<!-- T14307&#45;&gt;T14309 -->
<g id="edge1" class="edge">
<title>T14307:f0&#45;&gt;T14309:f3</title>
<path fill="none" stroke="#5b00c0" d="M1982.5,-81C1982.5,-7.0858 2072.0024,-55.8364 2145.5,-48 2164.1419,-46.0124 3431.1294,-49.3529 3554.8142,-32.7225"/>
<polygon fill="#5b00c0" stroke="#5b00c0" points="3555.8202,-36.0754 3564.5,-30 3553.926,-29.3366 3555.8202,-36.0754"/>
<text text-anchor="middle" x="2153" y="-51.8" font-family="Times,serif" font-size="14.00" fill="#5b00c0">rw</text>
</g>
<!-- T14309&#45;&gt;T14307 -->
<g id="edge2" class="edge">
<title>T14309:f0&#45;&gt;T14307:f1</title>
<path fill="none" stroke="#5b00c0" d="M655.5,-30C655.5,-50.9043 2140.0481,-43.6745 2160.5,-48 2193.085,-54.8916 2228.9877,-46.0668 2236.1985,-70.7795"/>
<polygon fill="#5b00c0" stroke="#5b00c0" points="2232.7647,-71.5223 2237.5,-81 2239.7087,-70.638 2232.7647,-71.5223"/>
<text text-anchor="middle" x="2239" y="-51.8" font-family="Times,serif" font-size="14.00" fill="#5b00c0">rw</text>
</g>
</g>
</svg>
