<?xml version="1.0" encoding="UTF-8" standalone="no"?>
<!DOCTYPE svg PUBLIC "-//W3C//DTD SVG 1.1//EN"
 "http://www.w3.org/Graphics/SVG/1.1/DTD/svg11.dtd">
<!-- Generated by graphviz version 2.40.1 (20161225.0304)
 -->
<!-- Title: a_graph Pages: 1 -->
<svg width="3749pt" height="119pt"
 viewBox="0.00 0.00 3749.00 119.00" xmlns="http://www.w3.org/2000/svg" xmlns:xlink="http://www.w3.org/1999/xlink">
<g id="graph0" class="graph" transform="scale(1 1) rotate(0) translate(4 115)">
<title>a_graph</title>
<polygon fill="#ffffff" stroke="transparent" points="-4,4 -4,-115 3745,-115 3745,4 -4,4"/>
<!-- T10605 -->
<g id="node1" class="node">
<title>T10605</title>
<polygon fill="none" stroke="#0058ad" points="0,-81.5 0,-110.5 3741,-110.5 3741,-81.5 0,-81.5"/>
<text text-anchor="middle" x="760.5" y="-92.3" font-family="Times,serif" font-size="14.00" fill="#0058ad">r 55 [1 7 5 6 13 15 14 16 17 18 21 22 19 20 23 24 25 26 28 29 30 31 32 33 34 35 27 37 38 39 40 41 42 36 43 44 45 46 47 48 49 52 50 51 53 54 55 56 58 59 57 61 62 63 64 65 66 67 68 60 69 71 72 70 73 75 76 77 78 79 80 81 82 83 84 85 86 87 88 74 89 90 91 93 92 94 95]</text>
<polyline fill="none" stroke="#0058ad" points="1521,-81.5 1521,-110.5 "/>
<text text-anchor="middle" x="1549.5" y="-92.3" font-family="Times,serif" font-size="14.00" fill="#0058ad">a 56 18</text>
<polyline fill="none" stroke="#0058ad" points="1578,-81.5 1578,-110.5 "/>
<text text-anchor="middle" x="1899" y="-92.3" font-family="Times,serif" font-size="14.00" fill="#0058ad">r 53 [1 2 3 4 5 6 7 8 9 10 11 12 14 13 15 16 17 18 19 20 21 23 24 25 26 27 28 29 30 31 32 33 34 35 36 37 38 39]</text>
<polyline fill="none" stroke="#0058ad" points="2220,-81.5 2220,-110.5 "/>
<text text-anchor="middle" x="2980.5" y="-92.3" font-family="Times,serif" font-size="14.00" fill="#0058ad">r 55 [1 7 5 6 13 15 14 16 17 18 21 22 19 20 23 24 25 26 28 29 30 31 32 33 34 35 27 37 38 39 40 41 42 36 43 44 45 46 47 48 49 52 50 51 53 54 55 56 58 59 57 61 62 63 64 65 66 67 68 60 69 71 72 70 73 75 76 77 78 79 80 81 82 83 84 85 86 87 88 74 89 90 91 93 92 94 95]</text>
</g>
<!-- T10603 -->
<g id="node2" class="node">
<title>T10603</title>
<polygon fill="none" stroke="#0058ad" points="1523,-.5 1523,-29.5 1860,-29.5 1860,-.5 1523,-.5"/>
<text text-anchor="middle" x="1663" y="-11.3" font-family="Times,serif" font-size="14.00" fill="#0058ad">r 56 [1 2 3 4 5 6 7 8 9 11 10 12 13 14 15 16 17]</text>
<polyline fill="none" stroke="#0058ad" points="1803,-.5 1803,-29.5 "/>
<text text-anchor="middle" x="1831.5" y="-11.3" font-family="Times,serif" font-size="14.00" fill="#0058ad">a 53 40</text>
</g>
<!-- T10605&#45;&gt;T10603 -->
<g id="edge1" class="edge">
<title>T10605:f2&#45;&gt;T10603:f1</title>
<path fill="none" stroke="#5b00c0" d="M1899.5,-81C1899.5,-50.6548 1895.5909,-22.0099 1870.6656,-16.1069"/>
<polygon fill="#5b00c0" stroke="#5b00c0" points="1870.8201,-12.6031 1860.5,-15 1870.0623,-19.562 1870.8201,-12.6031"/>
<text text-anchor="middle" x="1906" y="-51.8" font-family="Times,serif" font-size="14.00" fill="#5b00c0">rw</text>
</g>
<!-- T10603&#45;&gt;T10605 -->
<g id="edge2" class="edge">
<title>T10603:f0&#45;&gt;T10605:f1</title>
<path fill="none" stroke="#5b00c0" d="M1522.5,-15C1494.1496,-15 1538.1249,-42.452 1547.7163,-70.9282"/>
<polygon fill="#5b00c0" stroke="#5b00c0" points="1544.3097,-71.7636 1549.5,-81 1551.2024,-70.5428 1544.3097,-71.7636"/>
<text text-anchor="middle" x="1552" y="-51.8" font-family="Times,serif" font-size="14.00" fill="#5b00c0">rw</text>
</g>
</g>
</svg>
