<?xml version="1.0" encoding="UTF-8" standalone="no"?>
<!DOCTYPE svg PUBLIC "-//W3C//DTD SVG 1.1//EN"
 "http://www.w3.org/Graphics/SVG/1.1/DTD/svg11.dtd">
<!-- Generated by graphviz version 2.40.1 (20161225.0304)
 -->
<!-- Title: a_graph Pages: 1 -->
<svg width="2037pt" height="119pt"
 viewBox="0.00 0.00 2037.00 119.00" xmlns="http://www.w3.org/2000/svg" xmlns:xlink="http://www.w3.org/1999/xlink">
<g id="graph0" class="graph" transform="scale(1 1) rotate(0) translate(4 115)">
<title>a_graph</title>
<polygon fill="#ffffff" stroke="transparent" points="-4,4 -4,-115 2033,-115 2033,4 -4,4"/>
<!-- T18377 -->
<g id="node1" class="node">
<title>T18377</title>
<polygon fill="none" stroke="#0058ad" points="0,-81.5 0,-110.5 1622,-110.5 1622,-81.5 0,-81.5"/>
<text text-anchor="middle" x="25" y="-92.3" font-family="Times,serif" font-size="14.00" fill="#0058ad">a 93 7</text>
<polyline fill="none" stroke="#0058ad" points="50,-81.5 50,-110.5 "/>
<text text-anchor="middle" x="811" y="-92.3" font-family="Times,serif" font-size="14.00" fill="#0058ad">r 89 [2 3 1 4 5 7 8 6 9 10 11 12 13 14 15 17 18 19 16 20 21 22 23 24 25 27 26 28 29 30 31 33 36 37 39 38 40 41 42 43 44 46 45 48 49 47 50 52 53 51 54 55 56 57 58 59 60 61 62 63 64 65 66 67 70 68 71 69 72 73 74 76 77 80 81 83 84 85 86 87 89 88 90 91 92 93 94 95 96]</text>
<polyline fill="none" stroke="#0058ad" points="1572,-81.5 1572,-110.5 "/>
<text text-anchor="middle" x="1597" y="-92.3" font-family="Times,serif" font-size="14.00" fill="#0058ad">a 93 8</text>
</g>
<!-- T18375 -->
<g id="node2" class="node">
<title>T18375</title>
<polygon fill="none" stroke="#0058ad" points="409,-.5 409,-29.5 2029,-29.5 2029,-.5 409,-.5"/>
<text text-anchor="middle" x="464" y="-11.3" font-family="Times,serif" font-size="14.00" fill="#0058ad">r 93 [1 2 3 4 5 6]</text>
<polyline fill="none" stroke="#0058ad" points="519,-.5 519,-29.5 "/>
<text text-anchor="middle" x="547.5" y="-11.3" font-family="Times,serif" font-size="14.00" fill="#0058ad">a 89 97</text>
<polyline fill="none" stroke="#0058ad" points="576,-.5 576,-29.5 "/>
<text text-anchor="middle" x="1302.5" y="-11.3" font-family="Times,serif" font-size="14.00" fill="#0058ad">r 92 [1 2 3 4 5 6 7 8 9 10 12 11 13 14 17 18 19 20 21 22 23 24 25 26 15 16 28 27 30 31 29 32 33 34 35 36 37 38 39 40 41 42 43 44 45 46 47 49 48 50 51 55 56 52 57 59 61 62 63 65 66 68 67 69 70 71 72 73 74 75 76 77 78 79 80 81 82 83 84 85 86 87 88 89 90]</text>
</g>
<!-- T18377&#45;&gt;T18375 -->
<g id="edge1" class="edge">
<title>T18377:f1&#45;&gt;T18375:f1</title>
<path fill="none" stroke="#5b00c0" d="M811,-81C811,34.8849 562.7424,-138.4014 547.7112,-40.0249"/>
<polygon fill="#5b00c0" stroke="#5b00c0" points="551.199,-39.7272 547,-30 544.2165,-40.2226 551.199,-39.7272"/>
<text text-anchor="middle" x="815.5" y="-51.8" font-family="Times,serif" font-size="14.00" fill="#5b00c0">rw</text>
</g>
<!-- T18375&#45;&gt;T18377 -->
<g id="edge2" class="edge">
<title>T18375:f0&#45;&gt;T18377:f0</title>
<path fill="none" stroke="#5b00c0" d="M409,-15C368.7517,-15 71.4416,-34.6267 29.8314,-72.1741"/>
<polygon fill="#5b00c0" stroke="#5b00c0" points="26.7317,-70.5476 25,-81 32.8719,-73.9089 26.7317,-70.5476"/>
<text text-anchor="middle" x="99.5" y="-51.8" font-family="Times,serif" font-size="14.00" fill="#5b00c0">rw</text>
</g>
</g>
</svg>
