<?xml version="1.0" encoding="UTF-8" standalone="no"?>
<!DOCTYPE svg PUBLIC "-//W3C//DTD SVG 1.1//EN"
 "http://www.w3.org/Graphics/SVG/1.1/DTD/svg11.dtd">
<!-- Generated by graphviz version 2.40.1 (20161225.0304)
 -->
<!-- Title: a_graph Pages: 1 -->
<svg width="4808pt" height="200pt"
 viewBox="0.00 0.00 4807.50 200.00" xmlns="http://www.w3.org/2000/svg" xmlns:xlink="http://www.w3.org/1999/xlink">
<g id="graph0" class="graph" transform="scale(1 1) rotate(0) translate(4 196)">
<title>a_graph</title>
<polygon fill="#ffffff" stroke="transparent" points="-4,4 -4,-196 4803.5,-196 4803.5,4 -4,4"/>
<!-- T12601 -->
<g id="node1" class="node">
<title>T12601</title>
<polygon fill="none" stroke="#0058ad" points="1422.5,-162.5 1422.5,-191.5 3624.5,-191.5 3624.5,-162.5 1422.5,-162.5"/>
<text text-anchor="middle" x="1454.5" y="-173.3" font-family="Times,serif" font-size="14.00" fill="#0058ad">a 65 102</text>
<polyline fill="none" stroke="#0058ad" points="1486.5,-162.5 1486.5,-191.5 "/>
<text text-anchor="middle" x="2292" y="-173.3" font-family="Times,serif" font-size="14.00" fill="#0058ad">r 65 [1 2 3 4 5 6 7 8 11 12 13 9 10 15 14 16 18 19 20 17 23 21 22 24 25 33 34 35 37 36 40 41 38 39 45 43 42 47 48 49 50 51 52 53 54 55 56 57 58 59 61 62 63 60 64 65 66 67 68 72 71 73 74 69 70 75 76 77 79 80 81 84 78 82 83 85 88 89 86 90 87 91 92 93 94 95 98 99 96 97 101 100 102]</text>
<polyline fill="none" stroke="#0058ad" points="3097.5,-162.5 3097.5,-191.5 "/>
<text text-anchor="middle" x="3332.5" y="-173.3" font-family="Times,serif" font-size="14.00" fill="#0058ad">r 64 [1 2 3 4 5 6 7 8 9 10 11 12 13 14 15 16 18 17 20 21 19 23 22 24 25 26 27 28]</text>
<polyline fill="none" stroke="#0058ad" points="3567.5,-162.5 3567.5,-191.5 "/>
<text text-anchor="middle" x="3596" y="-173.3" font-family="Times,serif" font-size="14.00" fill="#0058ad">a 63 63</text>
</g>
<!-- T12599 -->
<g id="node3" class="node">
<title>T12599</title>
<polygon fill="none" stroke="#0058ad" points="53.5,-81.5 53.5,-110.5 4799.5,-110.5 4799.5,-81.5 53.5,-81.5"/>
<text text-anchor="middle" x="835" y="-92.3" font-family="Times,serif" font-size="14.00" fill="#0058ad">r 65 [1 2 3 4 5 6 7 8 11 12 13 9 10 15 14 16 18 19 20 17 23 21 22 24 25 33 34 35 37 36 40 41 38 39 45 43 42 47 48 49 50 51 52 53 54 55 56 57 58 59 61 62 63 60 64 65 66 67 68 72 71 73 74 69 70 75 76 77 79 80 81 84 78 82 83 85 88 89 86 90 87 91 92 93 94 95 98 99 96 97 101]</text>
<polyline fill="none" stroke="#0058ad" points="1616.5,-81.5 1616.5,-110.5 "/>
<text text-anchor="middle" x="2398" y="-92.3" font-family="Times,serif" font-size="14.00" fill="#0058ad">r 65 [1 2 3 4 5 6 7 8 11 12 13 9 10 15 14 16 18 19 20 17 23 21 22 24 25 33 34 35 37 36 40 41 38 39 45 43 42 47 48 49 50 51 52 53 54 55 56 57 58 59 61 62 63 60 64 65 66 67 68 72 71 73 74 69 70 75 76 77 79 80 81 84 78 82 83 85 88 89 86 90 87 91 92 93 94 95 98 99 96 97 101]</text>
<polyline fill="none" stroke="#0058ad" points="3179.5,-81.5 3179.5,-110.5 "/>
<text text-anchor="middle" x="3961" y="-92.3" font-family="Times,serif" font-size="14.00" fill="#0058ad">r 65 [1 2 3 4 5 6 7 8 11 12 13 9 10 15 14 16 18 19 20 17 23 21 22 24 25 33 34 35 37 36 40 41 38 39 45 43 42 47 48 49 50 51 52 53 54 55 56 57 58 59 61 62 63 60 64 65 66 67 68 72 71 73 74 69 70 75 76 77 79 80 81 84 78 82 83 85 88 89 86 90 87 91 92 93 94 95 98 99 96 97 101]</text>
<polyline fill="none" stroke="#0058ad" points="4742.5,-81.5 4742.5,-110.5 "/>
<text text-anchor="middle" x="4771" y="-92.3" font-family="Times,serif" font-size="14.00" fill="#0058ad">a 64 29</text>
</g>
<!-- T12601&#45;&gt;T12599 -->
<g id="edge1" class="edge">
<title>T12601:f2&#45;&gt;T12599:f3</title>
<path fill="none" stroke="#5b00c0" d="M3332.5,-162C3332.5,-5.6042 4707.5834,-259.1227 4769.3547,-121.141"/>
<polygon fill="#5b00c0" stroke="#5b00c0" points="4772.8545,-121.5079 4771.5,-111 4766.0061,-120.0591 4772.8545,-121.5079"/>
<text text-anchor="middle" x="4764" y="-132.8" font-family="Times,serif" font-size="14.00" fill="#5b00c0">rw</text>
</g>
<!-- T12597 -->
<g id="node2" class="node">
<title>T12597</title>
<polygon fill="none" stroke="#0058ad" points="0,-.5 0,-29.5 3873,-29.5 3873,-.5 0,-.5"/>
<text text-anchor="middle" x="32" y="-11.3" font-family="Times,serif" font-size="14.00" fill="#0058ad">a 65 100</text>
<polyline fill="none" stroke="#0058ad" points="64,-.5 64,-29.5 "/>
<text text-anchor="middle" x="381.5" y="-11.3" font-family="Times,serif" font-size="14.00" fill="#0058ad">r 3 [1 2 8 9 10 11 12 13 14 16 17 18 19 20 21 22 23 24 37 38 39 41 42 44 45 46 47 49 50 51 52 53 54 55 56 57]</text>
<polyline fill="none" stroke="#0058ad" points="699,-.5 699,-29.5 "/>
<text text-anchor="middle" x="1492.5" y="-11.3" font-family="Times,serif" font-size="14.00" fill="#0058ad">r 65 [1 2 3 4 5 6 7 8 11 12 13 9 10 15 14 16 18 19 20 17 23 21 22 24 25 33 34 35 37 36 40 41 38 39 45 43 42 47 48 49 50 51 52 53 54 55 56 57 58 59 61 62 63 60 64 65 66 67 68 72 71 73 74 69 70 75 76 77 79 80 81 84 78 82 83 85 88 89 86 90 87 91 92 93 94 95 98 99 96 97 101 100]</text>
<polyline fill="none" stroke="#0058ad" points="2286,-.5 2286,-29.5 "/>
<text text-anchor="middle" x="3079.5" y="-11.3" font-family="Times,serif" font-size="14.00" fill="#0058ad">r 65 [1 2 3 4 5 6 7 8 11 12 13 9 10 15 14 16 18 19 20 17 23 21 22 24 25 33 34 35 37 36 40 41 38 39 45 43 42 47 48 49 50 51 52 53 54 55 56 57 58 59 61 62 63 60 64 65 66 67 68 72 71 73 74 69 70 75 76 77 79 80 81 84 78 82 83 85 88 89 86 90 87 91 92 93 94 95 98 99 96 97 101 100]</text>
</g>
<!-- T12597&#45;&gt;T12601 -->
<g id="edge2" class="edge">
<title>T12597:f0&#45;&gt;T12601:f0</title>
<path fill="none" stroke="#c02700" d="M31.5,-30C31.5,-35.7198 24.8898,-75.2935 24.5,-81 23.5914,-94.3023 15.2969,-101.3522 24.5,-111 76.5431,-165.558 1269.171,-176.3677 1412.2365,-176.9722"/>
<polygon fill="#c02700" stroke="#c02700" points="1412.4905,-180.4728 1422.5,-177 1412.5095,-173.4728 1412.4905,-180.4728"/>
<text text-anchor="middle" x="34.5" y="-92.3" font-family="Times,serif" font-size="14.00" fill="#c02700">ww</text>
</g>
<!-- T12599&#45;&gt;T12597 -->
<g id="edge3" class="edge">
<title>T12599:f0&#45;&gt;T12597:f0</title>
<path fill="none" stroke="#5b00c0" d="M53.5,-96C40.5764,-96 33.886,-60.6831 32.0386,-40.0638"/>
<polygon fill="#5b00c0" stroke="#5b00c0" points="35.5295,-39.7986 31.5,-30 28.5395,-40.1728 35.5295,-39.7986"/>
<text text-anchor="middle" x="43" y="-51.8" font-family="Times,serif" font-size="14.00" fill="#5b00c0">rw</text>
</g>
</g>
</svg>
