<?xml version="1.0" encoding="UTF-8" standalone="no"?>
<!DOCTYPE svg PUBLIC "-//W3C//DTD SVG 1.1//EN"
 "http://www.w3.org/Graphics/SVG/1.1/DTD/svg11.dtd">
<!-- Generated by graphviz version 2.40.1 (20161225.0304)
 -->
<!-- Title: a_graph Pages: 1 -->
<svg width="3073pt" height="119pt"
 viewBox="0.00 0.00 3073.00 119.00" xmlns="http://www.w3.org/2000/svg" xmlns:xlink="http://www.w3.org/1999/xlink">
<g id="graph0" class="graph" transform="scale(1 1) rotate(0) translate(4 115)">
<title>a_graph</title>
<polygon fill="#ffffff" stroke="transparent" points="-4,4 -4,-115 3069,-115 3069,4 -4,4"/>
<!-- T551 -->
<g id="node1" class="node">
<title>T551</title>
<polygon fill="none" stroke="#0058ad" points="336.5,-81.5 336.5,-110.5 2874.5,-110.5 2874.5,-81.5 336.5,-81.5"/>
<text text-anchor="middle" x="654" y="-92.3" font-family="Times,serif" font-size="14.00" fill="#0058ad">r 7 [6 7 8 9 10 11 12 13 14 15 16 17 18 19 21 20 22 23 24 25 26 27 31 30 33 32 35 34 36 37 38 39 40 41 42 43]</text>
<polyline fill="none" stroke="#0058ad" points="971.5,-81.5 971.5,-110.5 "/>
<text text-anchor="middle" x="1310" y="-92.3" font-family="Times,serif" font-size="14.00" fill="#0058ad">r 10 [1 2 5 6 3 4 7 8 9 10 11 12 13 14 16 15 17 20 21 22 23 24 18 19 26 27 28 29 30 31 25 33 36 34 35 32 37 38 39 40]</text>
<polyline fill="none" stroke="#0058ad" points="1648.5,-81.5 1648.5,-110.5 "/>
<text text-anchor="middle" x="1677" y="-92.3" font-family="Times,serif" font-size="14.00" fill="#0058ad">a 10 42</text>
<polyline fill="none" stroke="#0058ad" points="1705.5,-81.5 1705.5,-110.5 "/>
<text text-anchor="middle" x="2290" y="-92.3" font-family="Times,serif" font-size="14.00" fill="#0058ad">r 8 [6 9 3 4 10 11 12 14 15 13 16 17 18 19 20 21 22 24 23 25 26 27 28 29 30 31 32 33 34 35 36 37 38 39 41 42 40 43 44 45 46 47 48 51 55 56 57 62 61 63 64 65 66 67 68 69 70 71 72 73 74 75 76 77 78 79 80]</text>
</g>
<!-- T549 -->
<g id="node2" class="node">
<title>T549</title>
<polygon fill="none" stroke="#0058ad" points="0,-.5 0,-29.5 3065,-29.5 3065,-.5 0,-.5"/>
<text text-anchor="middle" x="25" y="-11.3" font-family="Times,serif" font-size="14.00" fill="#0058ad">a 7 45</text>
<polyline fill="none" stroke="#0058ad" points="50,-.5 50,-29.5 "/>
<text text-anchor="middle" x="634.5" y="-11.3" font-family="Times,serif" font-size="14.00" fill="#0058ad">r 8 [6 9 3 4 10 11 12 14 15 13 16 17 18 19 20 21 22 24 23 25 26 27 28 29 30 31 32 33 34 35 36 37 38 39 41 42 40 43 44 45 46 47 48 51 55 56 57 62 61 63 64 65 66 67 68 69 70 71 72 73 74 75 76 77 78 79 80]</text>
<polyline fill="none" stroke="#0058ad" points="1219,-.5 1219,-29.5 "/>
<text text-anchor="middle" x="1803.5" y="-11.3" font-family="Times,serif" font-size="14.00" fill="#0058ad">r 8 [6 9 3 4 10 11 12 14 15 13 16 17 18 19 20 21 22 24 23 25 26 27 28 29 30 31 32 33 34 35 36 37 38 39 41 42 40 43 44 45 46 47 48 51 55 56 57 62 61 63 64 65 66 67 68 69 70 71 72 73 74 75 76 77 78 79 80]</text>
<polyline fill="none" stroke="#0058ad" points="2388,-.5 2388,-29.5 "/>
<text text-anchor="middle" x="2726.5" y="-11.3" font-family="Times,serif" font-size="14.00" fill="#0058ad">r 10 [1 2 5 6 3 4 7 8 9 10 11 12 13 14 16 15 17 20 21 22 23 24 18 19 26 27 28 29 30 31 25 33 36 34 35 32 37 38 39 40]</text>
</g>
<!-- T551&#45;&gt;T549 -->
<g id="edge1" class="edge">
<title>T551:f0&#45;&gt;T549:f0</title>
<path fill="none" stroke="#5b00c0" d="M336.5,-96C303.9729,-96 68.2515,-70.2429 29.7974,-38.6076"/>
<polygon fill="#5b00c0" stroke="#5b00c0" points="32.7221,-36.682 24.5,-30 26.7606,-40.3509 32.7221,-36.682"/>
<text text-anchor="middle" x="100" y="-51.8" font-family="Times,serif" font-size="14.00" fill="#5b00c0">rw</text>
</g>
<!-- T549&#45;&gt;T551 -->
<g id="edge2" class="edge">
<title>T549:f3&#45;&gt;T551:f2</title>
<path fill="none" stroke="#5b00c0" d="M2726.5,-30C2726.5,-259.8537 1709.0165,139.9483 1678.2138,-70.8436"/>
<polygon fill="#5b00c0" stroke="#5b00c0" points="1674.7097,-70.7792 1677.5,-81 1681.6925,-71.27 1674.7097,-70.7792"/>
<text text-anchor="middle" x="2729" y="-51.8" font-family="Times,serif" font-size="14.00" fill="#5b00c0">rw</text>
</g>
</g>
</svg>
