<?xml version="1.0" encoding="UTF-8" standalone="no"?>
<!DOCTYPE svg PUBLIC "-//W3C//DTD SVG 1.1//EN"
 "http://www.w3.org/Graphics/SVG/1.1/DTD/svg11.dtd">
<!-- Generated by graphviz version 2.40.1 (20161225.0304)
 -->
<!-- Title: a_graph Pages: 1 -->
<svg width="1778pt" height="119pt"
 viewBox="0.00 0.00 1777.50 119.00" xmlns="http://www.w3.org/2000/svg" xmlns:xlink="http://www.w3.org/1999/xlink">
<g id="graph0" class="graph" transform="scale(1 1) rotate(0) translate(4 115)">
<title>a_graph</title>
<polygon fill="#ffffff" stroke="transparent" points="-4,4 -4,-115 1773.5,-115 1773.5,4 -4,4"/>
<!-- T13353 -->
<g id="node1" class="node">
<title>T13353</title>
<polygon fill="none" stroke="#0058ad" points="0,-81.5 0,-110.5 1669,-110.5 1669,-81.5 0,-81.5"/>
<text text-anchor="middle" x="28.5" y="-92.3" font-family="Times,serif" font-size="14.00" fill="#0058ad">a 68 54</text>
<polyline fill="none" stroke="#0058ad" points="57,-81.5 57,-110.5 "/>
<text text-anchor="middle" x="507.5" y="-92.3" font-family="Times,serif" font-size="14.00" fill="#0058ad">r 68 [1 2 3 4 6 7 8 5 9 10 11 12 13 16 14 15 17 18 19 22 23 24 20 21 25 26 27 29 30 28 31 32 33 34 35 36 38 39 40 37 42 43 41 44 45 46 47 49 48 50 52 51 54]</text>
<polyline fill="none" stroke="#0058ad" points="958,-81.5 958,-110.5 "/>
<text text-anchor="middle" x="1313.5" y="-92.3" font-family="Times,serif" font-size="14.00" fill="#0058ad">r 67 [2 3 4 5 1 6 8 7 10 11 9 12 13 14 15 16 17 19 20 21 18 22 23 24 25 26 27 29 28 30 31 32 33 34 36 35 37 38 39 40 41 42]</text>
</g>
<!-- T13351 -->
<g id="node2" class="node">
<title>T13351</title>
<polygon fill="none" stroke="#0058ad" points="43.5,-.5 43.5,-29.5 1769.5,-29.5 1769.5,-.5 43.5,-.5"/>
<text text-anchor="middle" x="72" y="-11.3" font-family="Times,serif" font-size="14.00" fill="#0058ad">a 67 43</text>
<polyline fill="none" stroke="#0058ad" points="100.5,-.5 100.5,-29.5 "/>
<text text-anchor="middle" x="464.5" y="-11.3" font-family="Times,serif" font-size="14.00" fill="#0058ad">r 67 [2 3 4 5 1 6 8 7 10 11 9 12 13 14 15 16 17 19 20 21 18 22 23 24 25 26 27 29 28 30 31 32 33 34 36 35 37 38 39 40 41 42 43]</text>
<polyline fill="none" stroke="#0058ad" points="828.5,-.5 828.5,-29.5 "/>
<text text-anchor="middle" x="1270.5" y="-11.3" font-family="Times,serif" font-size="14.00" fill="#0058ad">r 68 [1 2 3 4 6 7 8 5 9 10 11 12 13 16 14 15 17 18 19 22 23 24 20 21 25 26 27 29 30 28 31 32 33 34 35 36 38 39 40 37 42 43 41 44 45 46 47 49 48 50 52 51]</text>
<polyline fill="none" stroke="#0058ad" points="1712.5,-.5 1712.5,-29.5 "/>
<text text-anchor="middle" x="1741" y="-11.3" font-family="Times,serif" font-size="14.00" fill="#0058ad">a 67 44</text>
</g>
<!-- T13353&#45;&gt;T13351 -->
<g id="edge1" class="edge">
<title>T13353:f2&#45;&gt;T13351:f0</title>
<path fill="none" stroke="#5b00c0" d="M1313.5,-81C1313.5,-64.629 196.7392,-48.9717 81.1371,-32.6746"/>
<polygon fill="#5b00c0" stroke="#5b00c0" points="82.0718,-29.3018 71.5,-30 80.1998,-36.0468 82.0718,-29.3018"/>
<text text-anchor="middle" x="954" y="-51.8" font-family="Times,serif" font-size="14.00" fill="#5b00c0">rw</text>
</g>
<!-- T13351&#45;&gt;T13353 -->
<g id="edge2" class="edge">
<title>T13351:f2&#45;&gt;T13353:f0</title>
<path fill="none" stroke="#5b00c0" d="M1270.5,-30C1270.5,-41.836 430.3195,-47.3757 418.5,-48 335.2071,-52.3994 53.0035,1.2785 29.9941,-71.0179"/>
<polygon fill="#5b00c0" stroke="#5b00c0" points="26.5189,-70.592 28.5,-81 33.4418,-71.6283 26.5189,-70.592"/>
<text text-anchor="middle" x="426" y="-51.8" font-family="Times,serif" font-size="14.00" fill="#5b00c0">rw</text>
</g>
</g>
</svg>
