<?xml version="1.0" encoding="UTF-8" standalone="no"?>
<!DOCTYPE svg PUBLIC "-//W3C//DTD SVG 1.1//EN"
 "http://www.w3.org/Graphics/SVG/1.1/DTD/svg11.dtd">
<!-- Generated by graphviz version 2.40.1 (20161225.0304)
 -->
<!-- Title: a_graph Pages: 1 -->
<svg width="1984pt" height="119pt"
 viewBox="0.00 0.00 1984.00 119.00" xmlns="http://www.w3.org/2000/svg" xmlns:xlink="http://www.w3.org/1999/xlink">
<g id="graph0" class="graph" transform="scale(1 1) rotate(0) translate(4 115)">
<title>a_graph</title>
<polygon fill="#ffffff" stroke="transparent" points="-4,4 -4,-115 1980,-115 1980,4 -4,4"/>
<!-- T19567 -->
<g id="node1" class="node">
<title>T19567</title>
<polygon fill="none" stroke="#0058ad" points="0,-81.5 0,-110.5 1976,-110.5 1976,-81.5 0,-81.5"/>
<text text-anchor="middle" x="416" y="-92.3" font-family="Times,serif" font-size="14.00" fill="#0058ad">r 95 [1 2 3 4 5 6 7 8 9 10 11 12 13 14 15 16 17 18 19 21 22 20 23 24 26 25 27 29 28 30 31 32 34 35 33 36 37 38 39 41 42 43 49 51 50 52 53 54 55]</text>
<polyline fill="none" stroke="#0058ad" points="832,-81.5 832,-110.5 "/>
<text text-anchor="middle" x="860.5" y="-92.3" font-family="Times,serif" font-size="14.00" fill="#0058ad">a 99 70</text>
<polyline fill="none" stroke="#0058ad" points="889,-81.5 889,-110.5 "/>
<text text-anchor="middle" x="1432.5" y="-92.3" font-family="Times,serif" font-size="14.00" fill="#0058ad">r 99 [1 2 4 5 7 8 10 12 13 14 3 16 17 15 22 23 24 25 26 27 29 28 30 31 32 33 36 37 39 38 40 34 35 41 42 44 43 45 46 47 48 49 50 51 53 54 55 52 58 59 57 56 60 62 64 63 61 65 66 67 68 69 70]</text>
</g>
<!-- T19565 -->
<g id="node2" class="node">
<title>T19565</title>
<polygon fill="none" stroke="#0058ad" points="343,-.5 343,-29.5 1527,-29.5 1527,-.5 343,-.5"/>
<text text-anchor="middle" x="371.5" y="-11.3" font-family="Times,serif" font-size="14.00" fill="#0058ad">a 95 56</text>
<polyline fill="none" stroke="#0058ad" points="400,-.5 400,-29.5 "/>
<text text-anchor="middle" x="935" y="-11.3" font-family="Times,serif" font-size="14.00" fill="#0058ad">r 99 [1 2 4 5 7 8 10 12 13 14 3 16 17 15 22 23 24 25 26 27 29 28 30 31 32 33 36 37 39 38 40 34 35 41 42 44 43 45 46 47 48 49 50 51 53 54 55 52 58 59 57 56 60 62 64 63 61 65 66 67 68 69]</text>
<polyline fill="none" stroke="#0058ad" points="1470,-.5 1470,-29.5 "/>
<text text-anchor="middle" x="1498.5" y="-11.3" font-family="Times,serif" font-size="14.00" fill="#0058ad">a 97 49</text>
</g>
<!-- T19567&#45;&gt;T19565 -->
<g id="edge1" class="edge">
<title>T19567:f0&#45;&gt;T19565:f0</title>
<path fill="none" stroke="#5b00c0" d="M416,-81C416,-54.786 382.1594,-58.4166 373.1704,-40.1301"/>
<polygon fill="#5b00c0" stroke="#5b00c0" points="376.5174,-39.0448 371,-30 369.6728,-40.5114 376.5174,-39.0448"/>
<text text-anchor="middle" x="414.5" y="-51.8" font-family="Times,serif" font-size="14.00" fill="#5b00c0">rw</text>
</g>
<!-- T19565&#45;&gt;T19567 -->
<g id="edge2" class="edge">
<title>T19565:f1&#45;&gt;T19567:f1</title>
<path fill="none" stroke="#5b00c0" d="M935,-30C935,-66.3734 873.9332,-45.8083 862.0061,-71.0609"/>
<polygon fill="#5b00c0" stroke="#5b00c0" points="858.5477,-70.5052 860,-81 865.4094,-71.8902 858.5477,-70.5052"/>
<text text-anchor="middle" x="932.5" y="-51.8" font-family="Times,serif" font-size="14.00" fill="#5b00c0">rw</text>
</g>
</g>
</svg>
