<?xml version="1.0" encoding="UTF-8" standalone="no"?>
<!DOCTYPE svg PUBLIC "-//W3C//DTD SVG 1.1//EN"
 "http://www.w3.org/Graphics/SVG/1.1/DTD/svg11.dtd">
<!-- Generated by graphviz version 2.40.1 (20161225.0304)
 -->
<!-- Title: a_graph Pages: 1 -->
<svg width="2952pt" height="119pt"
 viewBox="0.00 0.00 2952.00 119.00" xmlns="http://www.w3.org/2000/svg" xmlns:xlink="http://www.w3.org/1999/xlink">
<g id="graph0" class="graph" transform="scale(1 1) rotate(0) translate(4 115)">
<title>a_graph</title>
<polygon fill="#ffffff" stroke="transparent" points="-4,4 -4,-115 2948,-115 2948,4 -4,4"/>
<!-- T5259 -->
<g id="node1" class="node">
<title>T5259</title>
<polygon fill="none" stroke="#0058ad" points="752,-81.5 752,-110.5 2944,-110.5 2944,-81.5 752,-81.5"/>
<text text-anchor="middle" x="777.5" y="-92.3" font-family="Times,serif" font-size="14.00" fill="#0058ad">r 31 []</text>
<polyline fill="none" stroke="#0058ad" points="803,-81.5 803,-110.5 "/>
<text text-anchor="middle" x="831.5" y="-92.3" font-family="Times,serif" font-size="14.00" fill="#0058ad">a 23 68</text>
<polyline fill="none" stroke="#0058ad" points="860,-81.5 860,-110.5 "/>
<text text-anchor="middle" x="885.5" y="-92.3" font-family="Times,serif" font-size="14.00" fill="#0058ad">r 31 []</text>
<polyline fill="none" stroke="#0058ad" points="911,-81.5 911,-110.5 "/>
<text text-anchor="middle" x="1927.5" y="-92.3" font-family="Times,serif" font-size="14.00" fill="#0058ad">r 27 [1 2 3 4 5 6 7 8 9 10 11 12 13 14 15 16 17 20 21 22 23 24 25 26 27 28 29 31 30 32 33 36 34 35 38 40 41 42 43 44 45 46 47 48 49 50 51 52 53 54 55 56 58 57 59 60 61 62 64 63 65 66 67 68 69 70 71 72 73 74 75 76 77 78 79 80 81 82 83 84 85 86 87 88 89 90 91 92 93 95 94 96 97 98 99 100 101 102 103 104 105 106 107 108 109 110 111 112 113 114 115 116]</text>
</g>
<!-- T5257 -->
<g id="node2" class="node">
<title>T5257</title>
<polygon fill="none" stroke="#0058ad" points="0,-.5 0,-29.5 1106,-29.5 1106,-.5 0,-.5"/>
<text text-anchor="middle" x="528" y="-11.3" font-family="Times,serif" font-size="14.00" fill="#0058ad">r 23 [1 2 3 4 5 6 7 8 9 10 12 13 14 15 17 16 18 19 20 21 22 23 24 25 26 27 28 29 30 31 32 33 34 35 36 37 38 39 40 41 42 43 44 45 46 47 49 51 54 55 56 57 58 59 60 61 62 63 64 65 66 67]</text>
<polyline fill="none" stroke="#0058ad" points="1056,-.5 1056,-29.5 "/>
<text text-anchor="middle" x="1081" y="-11.3" font-family="Times,serif" font-size="14.00" fill="#0058ad">a 31 3</text>
</g>
<!-- T5259&#45;&gt;T5257 -->
<g id="edge1" class="edge">
<title>T5259:f0&#45;&gt;T5257:f1</title>
<path fill="none" stroke="#5b00c0" d="M777,-81C777,-65.2363 777.25,-57.2699 790,-48 813.6943,-30.7731 1032.5013,-56.4743 1074.1653,-37.5956"/>
<polygon fill="#5b00c0" stroke="#5b00c0" points="1076.9128,-39.7747 1081,-30 1071.7093,-35.0925 1076.9128,-39.7747"/>
<text text-anchor="middle" x="797.5" y="-51.8" font-family="Times,serif" font-size="14.00" fill="#5b00c0">rw</text>
</g>
<!-- T5257&#45;&gt;T5259 -->
<g id="edge2" class="edge">
<title>T5257:f0&#45;&gt;T5259:f1</title>
<path fill="none" stroke="#5b00c0" d="M528,-30C528,-60.8427 777.7026,-33.643 805,-48 818.0398,-54.8583 826.6893,-59.8142 829.7581,-70.7732"/>
<polygon fill="#5b00c0" stroke="#5b00c0" points="826.3199,-71.4949 831,-81 833.2689,-70.651 826.3199,-71.4949"/>
<text text-anchor="middle" x="832.5" y="-51.8" font-family="Times,serif" font-size="14.00" fill="#5b00c0">rw</text>
</g>
</g>
</svg>
