<?xml version="1.0" encoding="UTF-8" standalone="no"?>
<!DOCTYPE svg PUBLIC "-//W3C//DTD SVG 1.1//EN"
 "http://www.w3.org/Graphics/SVG/1.1/DTD/svg11.dtd">
<!-- Generated by graphviz version 2.40.1 (20161225.0304)
 -->
<!-- Title: a_graph Pages: 1 -->
<svg width="300pt" height="119pt"
 viewBox="0.00 0.00 300.00 119.00" xmlns="http://www.w3.org/2000/svg" xmlns:xlink="http://www.w3.org/1999/xlink">
<g id="graph0" class="graph" transform="scale(1 1) rotate(0) translate(4 115)">
<title>a_graph</title>
<polygon fill="#ffffff" stroke="transparent" points="-4,4 -4,-115 296,-115 296,4 -4,4"/>
<!-- T45 -->
<g id="node1" class="node">
<title>T45</title>
<polygon fill="none" stroke="#0058ad" points="0,-81.5 0,-110.5 292,-110.5 292,-81.5 0,-81.5"/>
<text text-anchor="middle" x="74" y="-92.3" font-family="Times,serif" font-size="14.00" fill="#0058ad">r 9 [5 11 12 9 13 15 16]</text>
<polyline fill="none" stroke="#0058ad" points="148,-81.5 148,-110.5 "/>
<text text-anchor="middle" x="170" y="-92.3" font-family="Times,serif" font-size="14.00" fill="#0058ad">a 7 7</text>
<polyline fill="none" stroke="#0058ad" points="192,-81.5 192,-110.5 "/>
<text text-anchor="middle" x="217" y="-92.3" font-family="Times,serif" font-size="14.00" fill="#0058ad">a 8 10</text>
<polyline fill="none" stroke="#0058ad" points="242,-81.5 242,-110.5 "/>
<text text-anchor="middle" x="267" y="-92.3" font-family="Times,serif" font-size="14.00" fill="#0058ad">a 8 11</text>
</g>
<!-- T39 -->
<g id="node2" class="node">
<title>T39</title>
<polygon fill="none" stroke="#0058ad" points="71.5,-.5 71.5,-29.5 216.5,-29.5 216.5,-.5 71.5,-.5"/>
<text text-anchor="middle" x="97" y="-11.3" font-family="Times,serif" font-size="14.00" fill="#0058ad">r 7 [6]</text>
<polyline fill="none" stroke="#0058ad" points="122.5,-.5 122.5,-29.5 "/>
<text text-anchor="middle" x="147.5" y="-11.3" font-family="Times,serif" font-size="14.00" fill="#0058ad">a 9 14</text>
<polyline fill="none" stroke="#0058ad" points="172.5,-.5 172.5,-29.5 "/>
<text text-anchor="middle" x="194.5" y="-11.3" font-family="Times,serif" font-size="14.00" fill="#0058ad">a 6 1</text>
</g>
<!-- T45&#45;&gt;T39 -->
<g id="edge1" class="edge">
<title>T45:f0&#45;&gt;T39:f1</title>
<path fill="none" stroke="#5b00c0" d="M74,-81C74,-56.1986 98.4485,-61.8834 119,-48 127.6421,-42.1619 138.1083,-43.0135 143.8058,-39.1864"/>
<polygon fill="#5b00c0" stroke="#5b00c0" points="147.0305,-40.5504 148,-30 140.6628,-37.6431 147.0305,-40.5504"/>
<text text-anchor="middle" x="126.5" y="-51.8" font-family="Times,serif" font-size="14.00" fill="#5b00c0">rw</text>
</g>
<!-- T39&#45;&gt;T45 -->
<g id="edge2" class="edge">
<title>T39:f0&#45;&gt;T45:f1</title>
<path fill="none" stroke="#5b00c0" d="M97,-30C97,-48.2871 118.8798,-37.7141 134,-48 148.5813,-57.9193 163.2336,-59.1761 168.2156,-70.9408"/>
<polygon fill="#5b00c0" stroke="#5b00c0" points="164.8071,-71.7651 170,-81 171.6995,-70.5424 164.8071,-71.7651"/>
<text text-anchor="middle" x="168.5" y="-51.8" font-family="Times,serif" font-size="14.00" fill="#5b00c0">rw</text>
</g>
</g>
</svg>
