<?xml version="1.0" encoding="UTF-8" standalone="no"?>
<!DOCTYPE svg PUBLIC "-//W3C//DTD SVG 1.1//EN"
 "http://www.w3.org/Graphics/SVG/1.1/DTD/svg11.dtd">
<!-- Generated by graphviz version 2.40.1 (20161225.0304)
 -->
<!-- Title: a_graph Pages: 1 -->
<svg width="1385pt" height="119pt"
 viewBox="0.00 0.00 1385.00 119.00" xmlns="http://www.w3.org/2000/svg" xmlns:xlink="http://www.w3.org/1999/xlink">
<g id="graph0" class="graph" transform="scale(1 1) rotate(0) translate(4 115)">
<title>a_graph</title>
<polygon fill="#ffffff" stroke="transparent" points="-4,4 -4,-115 1381,-115 1381,4 -4,4"/>
<!-- T20269 -->
<g id="node1" class="node">
<title>T20269</title>
<polygon fill="none" stroke="#0058ad" points="773,-81.5 773,-110.5 1377,-110.5 1377,-81.5 773,-81.5"/>
<text text-anchor="middle" x="805" y="-92.3" font-family="Times,serif" font-size="14.00" fill="#0058ad">a 101 35</text>
<polyline fill="none" stroke="#0058ad" points="837,-81.5 837,-110.5 "/>
<text text-anchor="middle" x="1075" y="-92.3" font-family="Times,serif" font-size="14.00" fill="#0058ad">r 102 [1 2 3 4 5 7 6 8 9 10 11 12 13 14 16 17 18 15 21 20 19 22 23 24 25 27 26 28]</text>
<polyline fill="none" stroke="#0058ad" points="1313,-81.5 1313,-110.5 "/>
<text text-anchor="middle" x="1345" y="-92.3" font-family="Times,serif" font-size="14.00" fill="#0058ad">a 101 36</text>
</g>
<!-- T20271 -->
<g id="node2" class="node">
<title>T20271</title>
<polygon fill="none" stroke="#0058ad" points="0,-.5 0,-29.5 1184,-29.5 1184,-.5 0,-.5"/>
<text text-anchor="middle" x="238" y="-11.3" font-family="Times,serif" font-size="14.00" fill="#0058ad">r 102 [1 2 3 4 5 7 6 8 9 10 11 12 13 14 16 17 18 15 21 20 19 22 23 24 25 27 26 28]</text>
<polyline fill="none" stroke="#0058ad" points="476,-.5 476,-29.5 "/>
<text text-anchor="middle" x="766" y="-11.3" font-family="Times,serif" font-size="14.00" fill="#0058ad">r 101 [1 2 3 4 5 6 8 7 10 9 11 12 13 15 16 14 18 19 17 20 21 22 23 25 26 27 24 28 30 31 29 32 34 33]</text>
<polyline fill="none" stroke="#0058ad" points="1056,-.5 1056,-29.5 "/>
<text text-anchor="middle" x="1088" y="-11.3" font-family="Times,serif" font-size="14.00" fill="#0058ad">a 102 31</text>
<polyline fill="none" stroke="#0058ad" points="1120,-.5 1120,-29.5 "/>
<text text-anchor="middle" x="1152" y="-11.3" font-family="Times,serif" font-size="14.00" fill="#0058ad">a 102 32</text>
</g>
<!-- T20269&#45;&gt;T20271 -->
<g id="edge1" class="edge">
<title>T20269:f1&#45;&gt;T20271:f2</title>
<path fill="none" stroke="#5b00c0" d="M1075,-81C1075,-61.4462 1084.0843,-55.2913 1087.0651,-40.134"/>
<polygon fill="#5b00c0" stroke="#5b00c0" points="1090.5664,-40.2793 1088,-30 1083.596,-39.6362 1090.5664,-40.2793"/>
<text text-anchor="middle" x="1091.5" y="-51.8" font-family="Times,serif" font-size="14.00" fill="#5b00c0">rw</text>
</g>
<!-- T20271&#45;&gt;T20269 -->
<g id="edge2" class="edge">
<title>T20271:f1&#45;&gt;T20269:f0</title>
<path fill="none" stroke="#5b00c0" d="M766,-30C766,-54.5219 794.8025,-53.4881 802.9032,-70.8224"/>
<polygon fill="#5b00c0" stroke="#5b00c0" points="799.5541,-71.912 805,-81 806.4101,-70.4994 799.5541,-71.912"/>
<text text-anchor="middle" x="804.5" y="-51.8" font-family="Times,serif" font-size="14.00" fill="#5b00c0">rw</text>
</g>
</g>
</svg>
