<?xml version="1.0" encoding="UTF-8" standalone="no"?>
<!DOCTYPE svg PUBLIC "-//W3C//DTD SVG 1.1//EN"
 "http://www.w3.org/Graphics/SVG/1.1/DTD/svg11.dtd">
<!-- Generated by graphviz version 2.40.1 (20161225.0304)
 -->
<!-- Title: a_graph Pages: 1 -->
<svg width="3113pt" height="200pt"
 viewBox="0.00 0.00 3113.00 200.00" xmlns="http://www.w3.org/2000/svg" xmlns:xlink="http://www.w3.org/1999/xlink">
<g id="graph0" class="graph" transform="scale(1 1) rotate(0) translate(4 196)">
<title>a_graph</title>
<polygon fill="#ffffff" stroke="transparent" points="-4,4 -4,-196 3109,-196 3109,4 -4,4"/>
<!-- T19259 -->
<g id="node1" class="node">
<title>T19259</title>
<polygon fill="none" stroke="#0058ad" points="0,-162.5 0,-191.5 2295,-191.5 2295,-162.5 0,-162.5"/>
<text text-anchor="middle" x="28.5" y="-173.3" font-family="Times,serif" font-size="14.00" fill="#0058ad">a 95 37</text>
<polyline fill="none" stroke="#0058ad" points="57,-162.5 57,-191.5 "/>
<text text-anchor="middle" x="89" y="-173.3" font-family="Times,serif" font-size="14.00" fill="#0058ad">a 96 115</text>
<polyline fill="none" stroke="#0058ad" points="121,-162.5 121,-191.5 "/>
<text text-anchor="middle" x="1208" y="-173.3" font-family="Times,serif" font-size="14.00" fill="#0058ad">r 93 [1 2 3 4 5 6 7 8 9 10 11 12 15 16 13 14 18 17 19 20 21 23 24 25 26 27 28 29 22 30 31 32 33 34 35 36 37 38 40 39 41 42 43 44 46 45 47 48 49 50 51 52 53 54 55 56 57 58 60 61 59 64 65 67 68 70 71 73 69 74 77 78 80 81 82 83 84 85 86 88 89 87 90 91 92 93 94 95 96 97 98 99 100 101 102 103 104 105 106 107 108 109 110 111 112 113 114 115 116 117 118 119 120 122 123 121 124]</text>
</g>
<!-- T19257 -->
<g id="node3" class="node">
<title>T19257</title>
<polygon fill="none" stroke="#0058ad" points="914,-81.5 914,-110.5 3105,-110.5 3105,-81.5 914,-81.5"/>
<text text-anchor="middle" x="946" y="-92.3" font-family="Times,serif" font-size="14.00" fill="#0058ad">a 93 126</text>
<polyline fill="none" stroke="#0058ad" points="978,-81.5 978,-110.5 "/>
<text text-anchor="middle" x="1010" y="-92.3" font-family="Times,serif" font-size="14.00" fill="#0058ad">a 93 127</text>
<polyline fill="none" stroke="#0058ad" points="1042,-81.5 1042,-110.5 "/>
<text text-anchor="middle" x="2045" y="-92.3" font-family="Times,serif" font-size="14.00" fill="#0058ad">r 96 [1 3 4 5 6 7 8 9 10 11 2 13 12 14 15 16 18 19 17 20 21 23 24 22 26 27 25 28 29 30 32 31 33 34 35 36 37 38 39 40 41 42 44 43 45 47 48 49 46 50 51 52 53 54 55 57 56 58 60 59 62 61 64 63 67 68 65 66 70 69 72 73 71 76 77 78 75 74 80 82 79 83 85 84 81 86 87 88 89 90 91 92 93 97 94 95 96 100 98 99 101 102 104 103 106 107 105 109 111 108 110 112]</text>
<polyline fill="none" stroke="#0058ad" points="3048,-81.5 3048,-110.5 "/>
<text text-anchor="middle" x="3076.5" y="-92.3" font-family="Times,serif" font-size="14.00" fill="#0058ad">a 86 90</text>
</g>
<!-- T19259&#45;&gt;T19257 -->
<g id="edge1" class="edge">
<title>T19259:f2&#45;&gt;T19257:f0</title>
<path fill="none" stroke="#5b00c0" d="M1208.5,-162C1208.5,-46.5382 961.1828,-219.0167 946.2085,-120.9888"/>
<polygon fill="#5b00c0" stroke="#5b00c0" points="949.6989,-120.7273 945.5,-111 942.7164,-121.2226 949.6989,-120.7273"/>
<text text-anchor="middle" x="1213" y="-132.8" font-family="Times,serif" font-size="14.00" fill="#5b00c0">rw</text>
</g>
<!-- T19255 -->
<g id="node2" class="node">
<title>T19255</title>
<polygon fill="none" stroke="#0058ad" points="597.5,-.5 597.5,-29.5 2691.5,-29.5 2691.5,-.5 597.5,-.5"/>
<text text-anchor="middle" x="629.5" y="-11.3" font-family="Times,serif" font-size="14.00" fill="#0058ad">a 96 114</text>
<polyline fill="none" stroke="#0058ad" points="661.5,-.5 661.5,-29.5 "/>
<text text-anchor="middle" x="1676.5" y="-11.3" font-family="Times,serif" font-size="14.00" fill="#0058ad">r 96 [1 3 4 5 6 7 8 9 10 11 2 13 12 14 15 16 18 19 17 20 21 23 24 22 26 27 25 28 29 30 32 31 33 34 35 36 37 38 39 40 41 42 44 43 45 47 48 49 46 50 51 52 53 54 55 57 56 58 60 59 62 61 64 63 67 68 65 66 70 69 72 73 71 76 77 78 75 74 80 82 79 83 85 84 81 86 87 88 89 90 91 92 93 97 94 95 96 100 98 99 101 102 104 103 106 107 105 109 111 108 110 112 114]</text>
</g>
<!-- T19255&#45;&gt;T19259 -->
<g id="edge2" class="edge">
<title>T19255:f0&#45;&gt;T19259:f1</title>
<path fill="none" stroke="#c02700" d="M629.5,-30C629.5,-273.9935 103.7128,75.3403 88.8224,-151.8499"/>
<polygon fill="#c02700" stroke="#c02700" points="85.3193,-151.8939 88.5,-162 92.3158,-152.1162 85.3193,-151.8939"/>
<text text-anchor="middle" x="626.5" y="-92.3" font-family="Times,serif" font-size="14.00" fill="#c02700">ww</text>
</g>
<!-- T19257&#45;&gt;T19255 -->
<g id="edge3" class="edge">
<title>T19257:f2&#45;&gt;T19255:f0</title>
<path fill="none" stroke="#5b00c0" d="M2045.5,-81C2045.5,72.8992 692.395,-175.7943 631.611,-39.9803"/>
<polygon fill="#5b00c0" stroke="#5b00c0" points="634.9937,-39.0592 629.5,-30 628.1452,-40.5079 634.9937,-39.0592"/>
<text text-anchor="middle" x="2038" y="-51.8" font-family="Times,serif" font-size="14.00" fill="#5b00c0">rw</text>
</g>
</g>
</svg>
