<?xml version="1.0" encoding="UTF-8" standalone="no"?>
<!DOCTYPE svg PUBLIC "-//W3C//DTD SVG 1.1//EN"
 "http://www.w3.org/Graphics/SVG/1.1/DTD/svg11.dtd">
<!-- Generated by graphviz version 2.40.1 (20161225.0304)
 -->
<!-- Title: a_graph Pages: 1 -->
<svg width="1674pt" height="119pt"
 viewBox="0.00 0.00 1674.00 119.00" xmlns="http://www.w3.org/2000/svg" xmlns:xlink="http://www.w3.org/1999/xlink">
<g id="graph0" class="graph" transform="scale(1 1) rotate(0) translate(4 115)">
<title>a_graph</title>
<polygon fill="#ffffff" stroke="transparent" points="-4,4 -4,-115 1670,-115 1670,4 -4,4"/>
<!-- T593 -->
<g id="node1" class="node">
<title>T593</title>
<polygon fill="none" stroke="#0058ad" points="0,-81.5 0,-110.5 1564,-110.5 1564,-81.5 0,-81.5"/>
<text text-anchor="middle" x="442" y="-92.3" font-family="Times,serif" font-size="14.00" fill="#0058ad">r 10 [1 2 5 6 3 4 7 8 9 10 11 12 13 14 16 15 17 20 21 22 23 24 18 19 26 27 28 29 30 31 25 33 36 34 35 32 37 38 39 40 42 43 41 44 45 46 47 48 49 50 51 52]</text>
<polyline fill="none" stroke="#0058ad" points="884,-81.5 884,-110.5 "/>
<text text-anchor="middle" x="1167" y="-92.3" font-family="Times,serif" font-size="14.00" fill="#0058ad">r 6 [1 2 3 4 5 6 7 8 9 10 11 12 13 14 15 16 17 18 19 20 21 23 22 24 25 26 27 28 29 30 31 32 33 35]</text>
<polyline fill="none" stroke="#0058ad" points="1450,-81.5 1450,-110.5 "/>
<text text-anchor="middle" x="1478.5" y="-92.3" font-family="Times,serif" font-size="14.00" fill="#0058ad">a 10 53</text>
<polyline fill="none" stroke="#0058ad" points="1507,-81.5 1507,-110.5 "/>
<text text-anchor="middle" x="1535.5" y="-92.3" font-family="Times,serif" font-size="14.00" fill="#0058ad">a 10 54</text>
</g>
<!-- T595 -->
<g id="node2" class="node">
<title>T595</title>
<polygon fill="none" stroke="#0058ad" points="682,-.5 682,-29.5 1666,-29.5 1666,-.5 682,-.5"/>
<text text-anchor="middle" x="1124" y="-11.3" font-family="Times,serif" font-size="14.00" fill="#0058ad">r 10 [1 2 5 6 3 4 7 8 9 10 11 12 13 14 16 15 17 20 21 22 23 24 18 19 26 27 28 29 30 31 25 33 36 34 35 32 37 38 39 40 42 43 41 44 45 46 47 48 49 50 51 52]</text>
<polyline fill="none" stroke="#0058ad" points="1566,-.5 1566,-29.5 "/>
<text text-anchor="middle" x="1591" y="-11.3" font-family="Times,serif" font-size="14.00" fill="#0058ad">a 6 34</text>
<polyline fill="none" stroke="#0058ad" points="1616,-.5 1616,-29.5 "/>
<text text-anchor="middle" x="1641" y="-11.3" font-family="Times,serif" font-size="14.00" fill="#0058ad">a 5 14</text>
</g>
<!-- T593&#45;&gt;T595 -->
<g id="edge1" class="edge">
<title>T593:f1&#45;&gt;T595:f1</title>
<path fill="none" stroke="#5b00c0" d="M1167,-81C1167,11.7229 1280.9508,-59.1565 1373,-48 1394.3006,-45.4183 1547.8923,-52.3085 1583.5979,-37.2366"/>
<polygon fill="#5b00c0" stroke="#5b00c0" points="1586.2962,-39.4934 1591,-30 1581.4027,-34.488 1586.2962,-39.4934"/>
<text text-anchor="middle" x="1380.5" y="-51.8" font-family="Times,serif" font-size="14.00" fill="#5b00c0">rw</text>
</g>
<!-- T595&#45;&gt;T593 -->
<g id="edge2" class="edge">
<title>T595:f0&#45;&gt;T593:f2</title>
<path fill="none" stroke="#5b00c0" d="M1124,-30C1124,-59.4014 1359.2322,-41.929 1388,-48 1426.3126,-56.0853 1470.2673,-41.151 1477.8561,-70.8389"/>
<polygon fill="#5b00c0" stroke="#5b00c0" points="1474.4032,-71.4543 1479,-81 1481.3593,-70.6712 1474.4032,-71.4543"/>
<text text-anchor="middle" x="1480.5" y="-51.8" font-family="Times,serif" font-size="14.00" fill="#5b00c0">rw</text>
</g>
</g>
</svg>
