<?xml version="1.0" encoding="UTF-8" standalone="no"?>
<!DOCTYPE svg PUBLIC "-//W3C//DTD SVG 1.1//EN"
 "http://www.w3.org/Graphics/SVG/1.1/DTD/svg11.dtd">
<!-- Generated by graphviz version 2.40.1 (20161225.0304)
 -->
<!-- Title: a_graph Pages: 1 -->
<svg width="1980pt" height="119pt"
 viewBox="0.00 0.00 1980.00 119.00" xmlns="http://www.w3.org/2000/svg" xmlns:xlink="http://www.w3.org/1999/xlink">
<g id="graph0" class="graph" transform="scale(1 1) rotate(0) translate(4 115)">
<title>a_graph</title>
<polygon fill="#ffffff" stroke="transparent" points="-4,4 -4,-115 1976,-115 1976,4 -4,4"/>
<!-- T10445 -->
<g id="node1" class="node">
<title>T10445</title>
<polygon fill="none" stroke="#0058ad" points="0,-81.5 0,-110.5 1972,-110.5 1972,-81.5 0,-81.5"/>
<text text-anchor="middle" x="25" y="-92.3" font-family="Times,serif" font-size="14.00" fill="#0058ad">a 56 3</text>
<polyline fill="none" stroke="#0058ad" points="50,-81.5 50,-110.5 "/>
<text text-anchor="middle" x="1011" y="-92.3" font-family="Times,serif" font-size="14.00" fill="#0058ad">r 52 [1 2 3 4 5 6 7 8 9 10 11 12 13 14 16 15 17 18 19 21 20 22 23 24 30 32 36 34 39 40 41 42 43 45 46 44 47 48 49 50 51 52 53 54 55 56 57 58 59 60 61 63 64 62 65 66 67 68 70 69 71 72 74 73 75 76 77 78 79 80 81 82 83 84 85 86 87 88 89 91 90 92 93 100 101 102 104 107 108 109 110 111 112 115 116 117 113 114 120 119 121 118 122 123]</text>
</g>
<!-- T10439 -->
<g id="node2" class="node">
<title>T10439</title>
<polygon fill="none" stroke="#0058ad" points="216,-.5 216,-29.5 462,-29.5 462,-.5 216,-.5"/>
<text text-anchor="middle" x="248" y="-11.3" font-family="Times,serif" font-size="14.00" fill="#0058ad">a 52 124</text>
<polyline fill="none" stroke="#0058ad" points="280,-.5 280,-29.5 "/>
<text text-anchor="middle" x="314" y="-11.3" font-family="Times,serif" font-size="14.00" fill="#0058ad">r 56 [1 2]</text>
<polyline fill="none" stroke="#0058ad" points="348,-.5 348,-29.5 "/>
<text text-anchor="middle" x="376.5" y="-11.3" font-family="Times,serif" font-size="14.00" fill="#0058ad">a 55 50</text>
<polyline fill="none" stroke="#0058ad" points="405,-.5 405,-29.5 "/>
<text text-anchor="middle" x="433.5" y="-11.3" font-family="Times,serif" font-size="14.00" fill="#0058ad">a 55 51</text>
</g>
<!-- T10445&#45;&gt;T10439 -->
<g id="edge1" class="edge">
<title>T10445:f1&#45;&gt;T10439:f0</title>
<path fill="none" stroke="#5b00c0" d="M1011,-81C1011,-41.0058 334.7945,-68.7654 255.5517,-36.7111"/>
<polygon fill="#5b00c0" stroke="#5b00c0" points="257.7998,-34.0267 248,-30 253.1498,-39.2591 257.7998,-34.0267"/>
<text text-anchor="middle" x="923.5" y="-51.8" font-family="Times,serif" font-size="14.00" fill="#5b00c0">rw</text>
</g>
<!-- T10439&#45;&gt;T10445 -->
<g id="edge2" class="edge">
<title>T10439:f1&#45;&gt;T10445:f0</title>
<path fill="none" stroke="#5b00c0" d="M314,-30C314,-156.7353 41.1374,37.8155 25.6822,-70.7219"/>
<polygon fill="#5b00c0" stroke="#5b00c0" points="22.1701,-70.7901 25,-81 29.1547,-71.2538 22.1701,-70.7901"/>
<text text-anchor="middle" x="318.5" y="-51.8" font-family="Times,serif" font-size="14.00" fill="#5b00c0">rw</text>
</g>
</g>
</svg>
