<?xml version="1.0" encoding="UTF-8" standalone="no"?>
<!DOCTYPE svg PUBLIC "-//W3C//DTD SVG 1.1//EN"
 "http://www.w3.org/Graphics/SVG/1.1/DTD/svg11.dtd">
<!-- Generated by graphviz version 2.40.1 (20161225.0304)
 -->
<!-- Title: a_graph Pages: 1 -->
<svg width="1046pt" height="200pt"
 viewBox="0.00 0.00 1046.00 200.00" xmlns="http://www.w3.org/2000/svg" xmlns:xlink="http://www.w3.org/1999/xlink">
<g id="graph0" class="graph" transform="scale(1 1) rotate(0) translate(4 196)">
<title>a_graph</title>
<polygon fill="#ffffff" stroke="transparent" points="-4,4 -4,-196 1042,-196 1042,4 -4,4"/>
<!-- T10493 -->
<g id="node1" class="node">
<title>T10493</title>
<polygon fill="none" stroke="#0058ad" points="0,-162.5 0,-191.5 1038,-191.5 1038,-162.5 0,-162.5"/>
<text text-anchor="middle" x="519" y="-173.3" font-family="Times,serif" font-size="14.00" fill="#0058ad">r 55 [1 7 5 6 13 15 14 16 17 18 21 22 19 20 23 24 25 26 28 29 30 31 32 33 34 35 27 37 38 39 40 41 42 36 43 44 45 46 47 48 49 52 50 51 53 54 55 56 58 59 57 61 62 63 64 65 66 67 68]</text>
</g>
<!-- T10495 -->
<g id="node3" class="node">
<title>T10495</title>
<polygon fill="none" stroke="#0058ad" points="536,-81.5 536,-110.5 786,-110.5 786,-81.5 536,-81.5"/>
<text text-anchor="middle" x="564.5" y="-92.3" font-family="Times,serif" font-size="14.00" fill="#0058ad">a 53 33</text>
<polyline fill="none" stroke="#0058ad" points="593,-81.5 593,-110.5 "/>
<text text-anchor="middle" x="627" y="-92.3" font-family="Times,serif" font-size="14.00" fill="#0058ad">r 57 [1 2]</text>
<polyline fill="none" stroke="#0058ad" points="661,-81.5 661,-110.5 "/>
<text text-anchor="middle" x="695" y="-92.3" font-family="Times,serif" font-size="14.00" fill="#0058ad">r 57 [1 2]</text>
<polyline fill="none" stroke="#0058ad" points="729,-81.5 729,-110.5 "/>
<text text-anchor="middle" x="757.5" y="-92.3" font-family="Times,serif" font-size="14.00" fill="#0058ad">a 55 60</text>
</g>
<!-- T10493&#45;&gt;T10495 -->
<g id="edge1" class="edge">
<title>T10493:f0&#45;&gt;T10495:f3</title>
<path fill="none" stroke="#5b00c0" d="M730.1159,-162.3038C744.6368,-152.612 754.6472,-139.2355 757.2991,-120.9908"/>
<polygon fill="#5b00c0" stroke="#5b00c0" points="760.7915,-121.2205 758,-111 753.8086,-120.7305 760.7915,-121.2205"/>
<text text-anchor="middle" x="762.5" y="-132.8" font-family="Times,serif" font-size="14.00" fill="#5b00c0">rw</text>
</g>
<!-- T10491 -->
<g id="node2" class="node">
<title>T10491</title>
<polygon fill="none" stroke="#0058ad" points="284,-.5 284,-29.5 672,-29.5 672,-.5 284,-.5"/>
<text text-anchor="middle" x="312.5" y="-11.3" font-family="Times,serif" font-size="14.00" fill="#0058ad">a 37 76</text>
<polyline fill="none" stroke="#0058ad" points="341,-.5 341,-29.5 "/>
<text text-anchor="middle" x="456.5" y="-11.3" font-family="Times,serif" font-size="14.00" fill="#0058ad">r 2 [2 3 7 8 9 10 11 12 16 17 18 19 20]</text>
<polyline fill="none" stroke="#0058ad" points="572,-.5 572,-29.5 "/>
<text text-anchor="middle" x="597" y="-11.3" font-family="Times,serif" font-size="14.00" fill="#0058ad">a 56 9</text>
<polyline fill="none" stroke="#0058ad" points="622,-.5 622,-29.5 "/>
<text text-anchor="middle" x="647" y="-11.3" font-family="Times,serif" font-size="14.00" fill="#0058ad">a 57 3</text>
</g>
<!-- T10491&#45;&gt;T10493 -->
<g id="edge2" class="edge">
<title>T10491&#45;&gt;T10493</title>
<path fill="none" stroke="#0050c0" d="M481.6729,-29.5123C488.6865,-57.2246 504.0582,-117.9616 512.7287,-152.2206"/>
<polygon fill="#0050c0" stroke="#0050c0" points="509.4426,-153.5023 515.2892,-162.3379 516.2287,-151.7848 509.4426,-153.5023"/>
<text text-anchor="middle" x="506.5" y="-92.3" font-family="Times,serif" font-size="14.00" fill="#0050c0">rt</text>
</g>
<!-- T10495&#45;&gt;T10491 -->
<g id="edge3" class="edge">
<title>T10495:f1&#45;&gt;T10491:f3</title>
<path fill="none" stroke="#5b00c0" d="M627,-81C627,-60.457 641.2383,-55.6059 645.6877,-39.9666"/>
<polygon fill="#5b00c0" stroke="#5b00c0" points="649.1646,-40.3713 647,-30 642.2245,-39.4575 649.1646,-40.3713"/>
<text text-anchor="middle" x="649.5" y="-51.8" font-family="Times,serif" font-size="14.00" fill="#5b00c0">rw</text>
</g>
</g>
</svg>
