<?xml version="1.0" encoding="UTF-8" standalone="no"?>
<!DOCTYPE svg PUBLIC "-//W3C//DTD SVG 1.1//EN"
 "http://www.w3.org/Graphics/SVG/1.1/DTD/svg11.dtd">
<!-- Generated by graphviz version 2.40.1 (20161225.0304)
 -->
<!-- Title: a_graph Pages: 1 -->
<svg width="5055pt" height="119pt"
 viewBox="0.00 0.00 5055.00 119.00" xmlns="http://www.w3.org/2000/svg" xmlns:xlink="http://www.w3.org/1999/xlink">
<g id="graph0" class="graph" transform="scale(1 1) rotate(0) translate(4 115)">
<title>a_graph</title>
<polygon fill="#ffffff" stroke="transparent" points="-4,4 -4,-115 5051,-115 5051,4 -4,4"/>
<!-- T19271 -->
<g id="node1" class="node">
<title>T19271</title>
<polygon fill="none" stroke="#0058ad" points="0,-81.5 0,-110.5 5047,-110.5 5047,-81.5 0,-81.5"/>
<text text-anchor="middle" x="1087" y="-92.3" font-family="Times,serif" font-size="14.00" fill="#0058ad">r 96 [1 3 4 5 6 7 8 9 10 11 2 13 12 14 15 16 18 19 17 20 21 23 24 22 26 27 25 28 29 30 32 31 33 34 35 36 37 38 39 40 41 42 44 43 45 47 48 49 46 50 51 52 53 54 55 57 56 58 60 59 62 61 64 63 67 68 65 66 70 69 72 73 71 76 77 78 75 74 80 82 79 83 85 84 81 86 87 88 89 90 91 92 93 97 94 95 96 100 98 99 101 102 104 103 106 107 105 109 111 108 110 112 114 115 113 117 118 119 120]</text>
<polyline fill="none" stroke="#0058ad" points="2174,-81.5 2174,-110.5 "/>
<text text-anchor="middle" x="3261" y="-92.3" font-family="Times,serif" font-size="14.00" fill="#0058ad">r 96 [1 3 4 5 6 7 8 9 10 11 2 13 12 14 15 16 18 19 17 20 21 23 24 22 26 27 25 28 29 30 32 31 33 34 35 36 37 38 39 40 41 42 44 43 45 47 48 49 46 50 51 52 53 54 55 57 56 58 60 59 62 61 64 63 67 68 65 66 70 69 72 73 71 76 77 78 75 74 80 82 79 83 85 84 81 86 87 88 89 90 91 92 93 97 94 95 96 100 98 99 101 102 104 103 106 107 105 109 111 108 110 112 114 115 113 117 118 119 120]</text>
<polyline fill="none" stroke="#0058ad" points="4348,-81.5 4348,-110.5 "/>
<text text-anchor="middle" x="4376.5" y="-92.3" font-family="Times,serif" font-size="14.00" fill="#0058ad">a 95 38</text>
<polyline fill="none" stroke="#0058ad" points="4405,-81.5 4405,-110.5 "/>
<text text-anchor="middle" x="4726" y="-92.3" font-family="Times,serif" font-size="14.00" fill="#0058ad">r 95 [1 2 3 4 5 6 7 8 9 10 11 12 13 14 15 16 17 18 19 21 22 20 23 24 26 25 27 29 28 30 31 32 34 35 33 36 37 38]</text>
</g>
<!-- T19277 -->
<g id="node2" class="node">
<title>T19277</title>
<polygon fill="none" stroke="#0058ad" points="1048,-.5 1048,-29.5 4071,-29.5 4071,-.5 1048,-.5"/>
<text text-anchor="middle" x="1080" y="-11.3" font-family="Times,serif" font-size="14.00" fill="#0058ad">a 72 128</text>
<polyline fill="none" stroke="#0058ad" points="1112,-.5 1112,-29.5 "/>
<text text-anchor="middle" x="1424.5" y="-11.3" font-family="Times,serif" font-size="14.00" fill="#0058ad">r 95 [1 2 3 4 5 6 7 8 9 10 11 12 13 14 15 16 17 18 19 21 22 20 23 24 26 25 27 29 28 30 31 32 34 35 33 36 37]</text>
<polyline fill="none" stroke="#0058ad" points="1737,-.5 1737,-29.5 "/>
<text text-anchor="middle" x="2872" y="-11.3" font-family="Times,serif" font-size="14.00" fill="#0058ad">r 93 [1 2 3 4 5 6 7 8 9 10 11 12 15 16 13 14 18 17 19 20 21 23 24 25 26 27 28 29 22 30 31 32 33 34 35 36 37 38 40 39 41 42 43 44 46 45 47 48 49 50 51 52 53 54 55 56 57 58 60 61 59 64 65 67 68 70 71 73 69 74 77 78 80 81 82 83 84 85 86 88 89 87 90 91 92 93 94 95 96 97 98 99 100 101 102 103 104 105 106 107 108 109 110 111 112 113 114 115 116 117 118 119 120 122 123 121 124 126 127 125 128]</text>
<polyline fill="none" stroke="#0058ad" points="4007,-.5 4007,-29.5 "/>
<text text-anchor="middle" x="4039" y="-11.3" font-family="Times,serif" font-size="14.00" fill="#0058ad">a 96 116</text>
</g>
<!-- T19271&#45;&gt;T19277 -->
<g id="edge1" class="edge">
<title>T19271:f0&#45;&gt;T19277:f3</title>
<path fill="none" stroke="#5b00c0" d="M1086.5,-81C1086.5,-61.181 3843.8705,-51.1944 4029.6699,-32.038"/>
<polygon fill="#5b00c0" stroke="#5b00c0" points="4030.4188,-35.4572 4039.5,-30 4028.9977,-28.603 4030.4188,-35.4572"/>
<text text-anchor="middle" x="3255" y="-51.8" font-family="Times,serif" font-size="14.00" fill="#5b00c0">rw</text>
</g>
<!-- T19277&#45;&gt;T19271 -->
<g id="edge2" class="edge">
<title>T19277:f1&#45;&gt;T19271:f2</title>
<path fill="none" stroke="#5b00c0" d="M1424.5,-30C1424.5,-42.7923 3253.7102,-47.7474 3266.5,-48 3386.3701,-50.3673 4321.3087,37.2066 4374.1681,-71.03"/>
<polygon fill="#5b00c0" stroke="#5b00c0" points="4370.8144,-72.06 4376.5,-81 4377.6304,-70.4656 4370.8144,-72.06"/>
<text text-anchor="middle" x="4373" y="-51.8" font-family="Times,serif" font-size="14.00" fill="#5b00c0">rw</text>
</g>
</g>
</svg>
