<?xml version="1.0" encoding="UTF-8" standalone="no"?>
<!DOCTYPE svg PUBLIC "-//W3C//DTD SVG 1.1//EN"
 "http://www.w3.org/Graphics/SVG/1.1/DTD/svg11.dtd">
<!-- Generated by graphviz version 2.40.1 (20161225.0304)
 -->
<!-- Title: a_graph Pages: 1 -->
<svg width="1855pt" height="200pt"
 viewBox="0.00 0.00 1855.00 200.00" xmlns="http://www.w3.org/2000/svg" xmlns:xlink="http://www.w3.org/1999/xlink">
<g id="graph0" class="graph" transform="scale(1 1) rotate(0) translate(4 196)">
<title>a_graph</title>
<polygon fill="#ffffff" stroke="transparent" points="-4,4 -4,-196 1851,-196 1851,4 -4,4"/>
<!-- T17767 -->
<g id="node1" class="node">
<title>T17767</title>
<polygon fill="none" stroke="#0058ad" points="356,-162.5 356,-191.5 1847,-191.5 1847,-162.5 356,-162.5"/>
<text text-anchor="middle" x="384.5" y="-173.3" font-family="Times,serif" font-size="14.00" fill="#0058ad">a 91 54</text>
<polyline fill="none" stroke="#0058ad" points="413,-162.5 413,-191.5 "/>
<text text-anchor="middle" x="441.5" y="-173.3" font-family="Times,serif" font-size="14.00" fill="#0058ad">a 91 55</text>
<polyline fill="none" stroke="#0058ad" points="470,-162.5 470,-191.5 "/>
<text text-anchor="middle" x="730.5" y="-173.3" font-family="Times,serif" font-size="14.00" fill="#0058ad">r 90 [1 2 3 4 5 6 7 8 9 12 13 10 14 16 18 24 26 27 28 29 30 31 32 33 34 35 36 37 38 39 40]</text>
<polyline fill="none" stroke="#0058ad" points="991,-162.5 991,-191.5 "/>
<text text-anchor="middle" x="1419" y="-173.3" font-family="Times,serif" font-size="14.00" fill="#0058ad">r 91 [1 3 4 5 6 7 8 9 10 11 12 13 14 16 17 15 18 19 23 24 25 26 27 20 21 30 28 32 31 35 36 33 37 38 39 40 41 42 43 44 45 46 47 48 50 49 52 51 54 55]</text>
</g>
<!-- T17769 -->
<g id="node2" class="node">
<title>T17769</title>
<polygon fill="none" stroke="#0058ad" points="632.5,-81.5 632.5,-110.5 1274.5,-110.5 1274.5,-81.5 632.5,-81.5"/>
<text text-anchor="middle" x="953.5" y="-92.3" font-family="Times,serif" font-size="14.00" fill="#0058ad">r 89 [2 3 1 4 5 7 8 6 9 10 11 12 13 14 15 17 18 19 16 20 21 22 23 24 25 27 26 28 29 30 31 33 36 37 39 38 40 41]</text>
</g>
<!-- T17767&#45;&gt;T17769 -->
<g id="edge1" class="edge">
<title>T17767&#45;&gt;T17769</title>
<path fill="none" stroke="#0050c0" d="M1074.6983,-162.3315C1050.7047,-149.1999 1015.3493,-129.8499 989.0096,-115.4343"/>
<polygon fill="#0050c0" stroke="#0050c0" points="990.5548,-112.2901 980.1023,-110.5594 987.1941,-118.4306 990.5548,-112.2901"/>
<text text-anchor="middle" x="1045" y="-132.8" font-family="Times,serif" font-size="14.00" fill="#0050c0">rt</text>
</g>
<!-- T17771 -->
<g id="node3" class="node">
<title>T17771</title>
<polygon fill="none" stroke="#0058ad" points="0,-.5 0,-29.5 935,-29.5 935,-.5 0,-.5"/>
<text text-anchor="middle" x="410.5" y="-11.3" font-family="Times,serif" font-size="14.00" fill="#0058ad">r 91 [1 3 4 5 6 7 8 9 10 11 12 13 14 16 17 15 18 19 23 24 25 26 27 20 21 30 28 32 31 35 36 33 37 38 39 40 41 42 43 44 45 46 47 48 50 49 52 51]</text>
<polyline fill="none" stroke="#0058ad" points="821,-.5 821,-29.5 "/>
<text text-anchor="middle" x="849.5" y="-11.3" font-family="Times,serif" font-size="14.00" fill="#0058ad">a 89 42</text>
<polyline fill="none" stroke="#0058ad" points="878,-.5 878,-29.5 "/>
<text text-anchor="middle" x="906.5" y="-11.3" font-family="Times,serif" font-size="14.00" fill="#0058ad">a 89 43</text>
</g>
<!-- T17769&#45;&gt;T17771 -->
<g id="edge2" class="edge">
<title>T17769:f0&#45;&gt;T17771:f1</title>
<path fill="none" stroke="#5b00c0" d="M896.0247,-81.3892C875.3547,-72.889 855.8516,-59.84 850.7751,-40.1872"/>
<polygon fill="#5b00c0" stroke="#5b00c0" points="854.215,-39.4879 849.5,-30 847.2692,-40.3573 854.215,-39.4879"/>
<text text-anchor="middle" x="872" y="-51.8" font-family="Times,serif" font-size="14.00" fill="#5b00c0">rw</text>
</g>
<!-- T17771&#45;&gt;T17767 -->
<g id="edge3" class="edge">
<title>T17771:f0&#45;&gt;T17767:f0</title>
<path fill="none" stroke="#5b00c0" d="M410.5,-30C410.5,-86.2903 387.4576,-100.5889 384.7573,-151.9583"/>
<polygon fill="#5b00c0" stroke="#5b00c0" points="381.2574,-151.9136 384.5,-162 388.2551,-152.093 381.2574,-151.9136"/>
<text text-anchor="middle" x="411" y="-92.3" font-family="Times,serif" font-size="14.00" fill="#5b00c0">rw</text>
</g>
</g>
</svg>
