<?xml version="1.0" encoding="UTF-8" standalone="no"?>
<!DOCTYPE svg PUBLIC "-//W3C//DTD SVG 1.1//EN"
 "http://www.w3.org/Graphics/SVG/1.1/DTD/svg11.dtd">
<!-- Generated by graphviz version 2.40.1 (20161225.0304)
 -->
<!-- Title: a_graph Pages: 1 -->
<svg width="1762pt" height="119pt"
 viewBox="0.00 0.00 1761.50 119.00" xmlns="http://www.w3.org/2000/svg" xmlns:xlink="http://www.w3.org/1999/xlink">
<g id="graph0" class="graph" transform="scale(1 1) rotate(0) translate(4 115)">
<title>a_graph</title>
<polygon fill="#ffffff" stroke="transparent" points="-4,4 -4,-115 1757.5,-115 1757.5,4 -4,4"/>
<!-- T2951 -->
<g id="node1" class="node">
<title>T2951</title>
<polygon fill="none" stroke="#0058ad" points="0,-81.5 0,-110.5 1293,-110.5 1293,-81.5 0,-81.5"/>
<text text-anchor="middle" x="373" y="-92.3" font-family="Times,serif" font-size="14.00" fill="#0058ad">r 19 [1 2 3 4 5 6 7 8 9 10 11 12 13 14 15 16 17 18 19 20 21 22 23 24 25 26 27 28 29 33 35 37 38 39 40 41 42 43 44 45 46 47 48 49]</text>
<polyline fill="none" stroke="#0058ad" points="746,-81.5 746,-110.5 "/>
<text text-anchor="middle" x="778" y="-92.3" font-family="Times,serif" font-size="14.00" fill="#0058ad">a 14 121</text>
<polyline fill="none" stroke="#0058ad" points="810,-81.5 810,-110.5 "/>
<text text-anchor="middle" x="1051.5" y="-92.3" font-family="Times,serif" font-size="14.00" fill="#0058ad">r 20 [1 3 4 6 5 8 9 10 12 13 14 16 17 18 19 20 21 23 24 25 26 27 28 29 30 31 32 33]</text>
</g>
<!-- T2953 -->
<g id="node2" class="node">
<title>T2953</title>
<polygon fill="none" stroke="#0058ad" points="107.5,-.5 107.5,-29.5 1753.5,-29.5 1753.5,-.5 107.5,-.5"/>
<text text-anchor="middle" x="136" y="-11.3" font-family="Times,serif" font-size="14.00" fill="#0058ad">a 19 50</text>
<polyline fill="none" stroke="#0058ad" points="164.5,-.5 164.5,-29.5 "/>
<text text-anchor="middle" x="406" y="-11.3" font-family="Times,serif" font-size="14.00" fill="#0058ad">r 20 [1 3 4 6 5 8 9 10 12 13 14 16 17 18 19 20 21 23 24 25 26 27 28 29 30 31 32 33]</text>
<polyline fill="none" stroke="#0058ad" points="647.5,-.5 647.5,-29.5 "/>
<text text-anchor="middle" x="1172" y="-11.3" font-family="Times,serif" font-size="14.00" fill="#0058ad">r 14 [63 66 67 68 69 70 71 73 74 76 77 78 79 80 81 82 83 84 85 86 87 88 89 90 91 92 93 94 95 96 97 98 99 100 101 102 106 108 109 107 110 111 112 113 114 115 116 117 118 119 120]</text>
<polyline fill="none" stroke="#0058ad" points="1696.5,-.5 1696.5,-29.5 "/>
<text text-anchor="middle" x="1725" y="-11.3" font-family="Times,serif" font-size="14.00" fill="#0058ad">a 6 111</text>
</g>
<!-- T2951&#45;&gt;T2953 -->
<g id="edge1" class="edge">
<title>T2951:f0&#45;&gt;T2953:f0</title>
<path fill="none" stroke="#5b00c0" d="M372.5,-81C372.5,23.0619 151.4243,-126.8182 136.3117,-40.1157"/>
<polygon fill="#5b00c0" stroke="#5b00c0" points="139.7887,-39.688 135.5,-30 132.8112,-40.2479 139.7887,-39.688"/>
<text text-anchor="middle" x="376" y="-51.8" font-family="Times,serif" font-size="14.00" fill="#5b00c0">rw</text>
</g>
<!-- T2953&#45;&gt;T2951 -->
<g id="edge2" class="edge">
<title>T2953:f2&#45;&gt;T2951:f1</title>
<path fill="none" stroke="#5b00c0" d="M1172.5,-30C1172.5,-202.9509 794.4945,83.3807 778.9903,-70.7324"/>
<polygon fill="#5b00c0" stroke="#5b00c0" points="775.4811,-70.8444 778.5,-81 782.4731,-71.1784 775.4811,-70.8444"/>
<text text-anchor="middle" x="1178" y="-51.8" font-family="Times,serif" font-size="14.00" fill="#5b00c0">rw</text>
</g>
</g>
</svg>
