<?xml version="1.0" encoding="UTF-8" standalone="no"?>
<!DOCTYPE svg PUBLIC "-//W3C//DTD SVG 1.1//EN"
 "http://www.w3.org/Graphics/SVG/1.1/DTD/svg11.dtd">
<!-- Generated by graphviz version 2.40.1 (20161225.0304)
 -->
<!-- Title: a_graph Pages: 1 -->
<svg width="2235pt" height="119pt"
 viewBox="0.00 0.00 2235.00 119.00" xmlns="http://www.w3.org/2000/svg" xmlns:xlink="http://www.w3.org/1999/xlink">
<g id="graph0" class="graph" transform="scale(1 1) rotate(0) translate(4 115)">
<title>a_graph</title>
<polygon fill="#ffffff" stroke="transparent" points="-4,4 -4,-115 2231,-115 2231,4 -4,4"/>
<!-- T11261 -->
<g id="node1" class="node">
<title>T11261</title>
<polygon fill="none" stroke="#0058ad" points="0,-81.5 0,-110.5 2227,-110.5 2227,-81.5 0,-81.5"/>
<text text-anchor="middle" x="545.5" y="-92.3" font-family="Times,serif" font-size="14.00" fill="#0058ad">r 56 [1 2 3 4 5 6 7 8 9 11 10 12 13 14 15 16 17 18 19 20 21 22 23 24 25 26 27 28 29 30 31 32 33 34 36 37 38 39 40 41 43 44 45 46 47 48 49 50 51 52 53 54 55 56 57 58 59 60 62 63 61 64 65 66]</text>
<polyline fill="none" stroke="#0058ad" points="1091,-81.5 1091,-110.5 "/>
<text text-anchor="middle" x="1119.5" y="-92.3" font-family="Times,serif" font-size="14.00" fill="#0058ad">a 59 42</text>
<polyline fill="none" stroke="#0058ad" points="1148,-81.5 1148,-110.5 "/>
<text text-anchor="middle" x="1659" y="-92.3" font-family="Times,serif" font-size="14.00" fill="#0058ad">r 53 [1 2 3 4 5 6 7 8 9 10 11 12 14 13 15 16 17 18 19 20 21 23 24 25 26 27 28 29 30 31 32 33 34 35 36 37 38 39 40 41 42 43 44 45 46 47 48 49 50 51 52 53 54 55 56 57 58 59 60 61]</text>
<polyline fill="none" stroke="#0058ad" points="2170,-81.5 2170,-110.5 "/>
<text text-anchor="middle" x="2198.5" y="-92.3" font-family="Times,serif" font-size="14.00" fill="#0058ad">a 59 43</text>
</g>
<!-- T11265 -->
<g id="node2" class="node">
<title>T11265</title>
<polygon fill="none" stroke="#0058ad" points="1239.5,-.5 1239.5,-29.5 1973.5,-29.5 1973.5,-.5 1239.5,-.5"/>
<text text-anchor="middle" x="1268" y="-11.3" font-family="Times,serif" font-size="14.00" fill="#0058ad">a 53 62</text>
<polyline fill="none" stroke="#0058ad" points="1296.5,-.5 1296.5,-29.5 "/>
<text text-anchor="middle" x="1635" y="-11.3" font-family="Times,serif" font-size="14.00" fill="#0058ad">r 59 [2 3 4 1 5 6 9 8 10 11 12 7 14 15 16 13 17 18 21 22 23 24 25 19 20 26 27 28 31 29 32 33 34 35 36 37 38 39 40 30]</text>
</g>
<!-- T11261&#45;&gt;T11265 -->
<g id="edge1" class="edge">
<title>T11261:f2&#45;&gt;T11265:f0</title>
<path fill="none" stroke="#5b00c0" d="M1659.5,-81C1659.5,-71.0488 1337.5547,-46.2667 1277.1899,-33.5347"/>
<polygon fill="#5b00c0" stroke="#5b00c0" points="1278.0939,-30.1389 1267.5,-30 1275.695,-36.715 1278.0939,-30.1389"/>
<text text-anchor="middle" x="1540" y="-51.8" font-family="Times,serif" font-size="14.00" fill="#5b00c0">rw</text>
</g>
<!-- T11265&#45;&gt;T11261 -->
<g id="edge2" class="edge">
<title>T11265:f1&#45;&gt;T11261:f1</title>
<path fill="none" stroke="#5b00c0" d="M1635.5,-30C1635.5,-44.5344 1388.9636,-46.5667 1374.5,-48 1264.3324,-58.9175 1128.303,27.5955 1119.9087,-70.8829"/>
<polygon fill="#5b00c0" stroke="#5b00c0" points="1116.4066,-70.8668 1119.5,-81 1123.4009,-71.1495 1116.4066,-70.8668"/>
<text text-anchor="middle" x="1382" y="-51.8" font-family="Times,serif" font-size="14.00" fill="#5b00c0">rw</text>
</g>
</g>
</svg>
