<?xml version="1.0" encoding="UTF-8" standalone="no"?>
<!DOCTYPE svg PUBLIC "-//W3C//DTD SVG 1.1//EN"
 "http://www.w3.org/Graphics/SVG/1.1/DTD/svg11.dtd">
<!-- Generated by graphviz version 2.40.1 (20161225.0304)
 -->
<!-- Title: a_graph Pages: 1 -->
<svg width="1358pt" height="119pt"
 viewBox="0.00 0.00 1357.50 119.00" xmlns="http://www.w3.org/2000/svg" xmlns:xlink="http://www.w3.org/1999/xlink">
<g id="graph0" class="graph" transform="scale(1 1) rotate(0) translate(4 115)">
<title>a_graph</title>
<polygon fill="#ffffff" stroke="transparent" points="-4,4 -4,-115 1353.5,-115 1353.5,4 -4,4"/>
<!-- T12057 -->
<g id="node1" class="node">
<title>T12057</title>
<polygon fill="none" stroke="#0058ad" points="0,-81.5 0,-110.5 1080,-110.5 1080,-81.5 0,-81.5"/>
<text text-anchor="middle" x="32" y="-92.3" font-family="Times,serif" font-size="14.00" fill="#0058ad">a 56 115</text>
<polyline fill="none" stroke="#0058ad" points="64,-81.5 64,-110.5 "/>
<text text-anchor="middle" x="504" y="-92.3" font-family="Times,serif" font-size="14.00" fill="#0058ad">r 62 [1 4 5 2 8 9 10 11 6 12 13 15 16 17 19 18 21 22 24 25 26 23 20 29 30 31 32 33 27 28 34 35 36 38 39 37 40 41 43 42 44 45 46 47 48 49 50 52 53 54 51]</text>
<polyline fill="none" stroke="#0058ad" points="944,-81.5 944,-110.5 "/>
<text text-anchor="middle" x="972.5" y="-92.3" font-family="Times,serif" font-size="14.00" fill="#0058ad">a 62 57</text>
<polyline fill="none" stroke="#0058ad" points="1001,-81.5 1001,-110.5 "/>
<text text-anchor="middle" x="1040.5" y="-92.3" font-family="Times,serif" font-size="14.00" fill="#0058ad">r 63 [2 3 1]</text>
</g>
<!-- T12059 -->
<g id="node2" class="node">
<title>T12059</title>
<polygon fill="none" stroke="#0058ad" points="362.5,-.5 362.5,-29.5 1349.5,-29.5 1349.5,-.5 362.5,-.5"/>
<text text-anchor="middle" x="802.5" y="-11.3" font-family="Times,serif" font-size="14.00" fill="#0058ad">r 62 [1 4 5 2 8 9 10 11 6 12 13 15 16 17 19 18 21 22 24 25 26 23 20 29 30 31 32 33 27 28 34 35 36 38 39 37 40 41 43 42 44 45 46 47 48 49 50 52 53 54 51]</text>
<polyline fill="none" stroke="#0058ad" points="1242.5,-.5 1242.5,-29.5 "/>
<text text-anchor="middle" x="1271" y="-11.3" font-family="Times,serif" font-size="14.00" fill="#0058ad">a 53 96</text>
<polyline fill="none" stroke="#0058ad" points="1299.5,-.5 1299.5,-29.5 "/>
<text text-anchor="middle" x="1324.5" y="-11.3" font-family="Times,serif" font-size="14.00" fill="#0058ad">a 63 4</text>
</g>
<!-- T12057&#45;&gt;T12059 -->
<g id="edge1" class="edge">
<title>T12057:f3&#45;&gt;T12059:f2</title>
<path fill="none" stroke="#5b00c0" d="M1080,-96C1132.8613,-96 1301.9397,-87.5496 1322.868,-40.0332"/>
<polygon fill="#5b00c0" stroke="#5b00c0" points="1326.345,-40.5091 1325,-30 1319.4978,-39.0541 1326.345,-40.5091"/>
<text text-anchor="middle" x="1324.5" y="-51.8" font-family="Times,serif" font-size="14.00" fill="#5b00c0">rw</text>
</g>
<!-- T12059&#45;&gt;T12057 -->
<g id="edge2" class="edge">
<title>T12059:f0&#45;&gt;T12057:f2</title>
<path fill="none" stroke="#5b00c0" d="M802,-30C802,-105.5906 957.3445,-11.3702 971.908,-71.041"/>
<polygon fill="#5b00c0" stroke="#5b00c0" points="968.4308,-71.4411 973,-81 975.3891,-70.6781 968.4308,-71.4411"/>
<text text-anchor="middle" x="975.5" y="-51.8" font-family="Times,serif" font-size="14.00" fill="#5b00c0">rw</text>
</g>
</g>
</svg>
