<?xml version="1.0" encoding="UTF-8" standalone="no"?>
<!DOCTYPE svg PUBLIC "-//W3C//DTD SVG 1.1//EN"
 "http://www.w3.org/Graphics/SVG/1.1/DTD/svg11.dtd">
<!-- Generated by graphviz version 2.40.1 (20161225.0304)
 -->
<!-- Title: a_graph Pages: 1 -->
<svg width="3178pt" height="119pt"
 viewBox="0.00 0.00 3178.00 119.00" xmlns="http://www.w3.org/2000/svg" xmlns:xlink="http://www.w3.org/1999/xlink">
<g id="graph0" class="graph" transform="scale(1 1) rotate(0) translate(4 115)">
<title>a_graph</title>
<polygon fill="#ffffff" stroke="transparent" points="-4,4 -4,-115 3174,-115 3174,4 -4,4"/>
<!-- T11843 -->
<g id="node1" class="node">
<title>T11843</title>
<polygon fill="none" stroke="#0058ad" points="568,-81.5 568,-110.5 3170,-110.5 3170,-81.5 568,-81.5"/>
<text text-anchor="middle" x="600" y="-92.3" font-family="Times,serif" font-size="14.00" fill="#0058ad">a 61 115</text>
<polyline fill="none" stroke="#0058ad" points="632,-81.5 632,-110.5 "/>
<text text-anchor="middle" x="1103" y="-92.3" font-family="Times,serif" font-size="14.00" fill="#0058ad">r 37 [1 2 3 4 5 6 7 8 10 11 12 14 16 17 18 48 51 52 53 54 55 56 57 58 59 60 61 62 63 64 65 66 68 67 69 70 71 73 74 75 76 77 78 79 80 81 83 84 85 86 87 88 89 90 91]</text>
<polyline fill="none" stroke="#0058ad" points="1574,-81.5 1574,-110.5 "/>
<text text-anchor="middle" x="1602.5" y="-92.3" font-family="Times,serif" font-size="14.00" fill="#0058ad">a 53 85</text>
<polyline fill="none" stroke="#0058ad" points="1631,-81.5 1631,-110.5 "/>
<text text-anchor="middle" x="2400.5" y="-92.3" font-family="Times,serif" font-size="14.00" fill="#0058ad">r 60 [1 2 3 4 5 6 8 7 9 11 12 14 10 17 18 19 21 22 24 25 26 27 29 28 30 31 32 33 34 35 36 37 38 39 40 42 43 41 44 45 47 48 49 50 52 53 46 54 51 55 56 58 57 59 60 61 62 63 64 65 66 67 68 69 70 71 72 73 74 75 76 78 79 77 80 81 82 83 85 86 87 88 84 89 90 91 92 95 96 97]</text>
</g>
<!-- T11837 -->
<g id="node2" class="node">
<title>T11837</title>
<polygon fill="none" stroke="#0058ad" points="0,-.5 0,-29.5 2216,-29.5 2216,-.5 0,-.5"/>
<text text-anchor="middle" x="1051" y="-11.3" font-family="Times,serif" font-size="14.00" fill="#0058ad">r 61 [1 2 3 4 5 6 7 8 9 10 11 12 14 15 16 13 17 18 19 20 21 22 24 23 26 27 29 28 30 31 32 33 25 36 34 35 37 38 39 40 41 42 43 44 45 46 49 50 51 47 48 52 53 54 55 56 57 58 59 60 61 63 64 65 66 62 67 69 70 71 68 72 73 74 75 76 77 78 79 80 81 82 83 84 85 86 87 88 90 91 92 93 96 97 98 94 95 100 101 99 102 104 105 106 107 103 89 108 109 110 111 112 113 114 116 117]</text>
<polyline fill="none" stroke="#0058ad" points="2102,-.5 2102,-29.5 "/>
<text text-anchor="middle" x="2130.5" y="-11.3" font-family="Times,serif" font-size="14.00" fill="#0058ad">a 60 93</text>
<polyline fill="none" stroke="#0058ad" points="2159,-.5 2159,-29.5 "/>
<text text-anchor="middle" x="2187.5" y="-11.3" font-family="Times,serif" font-size="14.00" fill="#0058ad">a 60 94</text>
</g>
<!-- T11843&#45;&gt;T11837 -->
<g id="edge1" class="edge">
<title>T11843:f3&#45;&gt;T11837:f1</title>
<path fill="none" stroke="#5b00c0" d="M2401,-81C2401,37.4249 2147.1002,-140.7107 2131.7274,-40.2416"/>
<polygon fill="#5b00c0" stroke="#5b00c0" points="2135.1997,-39.7269 2131,-30 2128.2173,-40.2229 2135.1997,-39.7269"/>
<text text-anchor="middle" x="2405.5" y="-51.8" font-family="Times,serif" font-size="14.00" fill="#5b00c0">rw</text>
</g>
<!-- T11837&#45;&gt;T11843 -->
<g id="edge2" class="edge">
<title>T11837:f0&#45;&gt;T11843:f0</title>
<path fill="none" stroke="#5b00c0" d="M1051,-30C1051,-228.1761 615.7161,108.5026 600.4132,-70.87"/>
<polygon fill="#5b00c0" stroke="#5b00c0" points="596.9105,-70.8656 600,-81 603.9047,-71.151 596.9105,-70.8656"/>
<text text-anchor="middle" x="1055.5" y="-51.8" font-family="Times,serif" font-size="14.00" fill="#5b00c0">rw</text>
</g>
</g>
</svg>
