<?xml version="1.0" encoding="UTF-8" standalone="no"?>
<!DOCTYPE svg PUBLIC "-//W3C//DTD SVG 1.1//EN"
 "http://www.w3.org/Graphics/SVG/1.1/DTD/svg11.dtd">
<!-- Generated by graphviz version 2.40.1 (20161225.0304)
 -->
<!-- Title: a_graph Pages: 1 -->
<svg width="614pt" height="119pt"
 viewBox="0.00 0.00 614.00 119.00" xmlns="http://www.w3.org/2000/svg" xmlns:xlink="http://www.w3.org/1999/xlink">
<g id="graph0" class="graph" transform="scale(1 1) rotate(0) translate(4 115)">
<title>a_graph</title>
<polygon fill="#ffffff" stroke="transparent" points="-4,4 -4,-115 610,-115 610,4 -4,4"/>
<!-- T7029 -->
<g id="node1" class="node">
<title>T7029</title>
<polygon fill="none" stroke="#0058ad" points="320,-81.5 320,-110.5 492,-110.5 492,-81.5 320,-81.5"/>
<text text-anchor="middle" x="348.5" y="-92.3" font-family="Times,serif" font-size="14.00" fill="#0058ad">a 40 35</text>
<polyline fill="none" stroke="#0058ad" points="377,-81.5 377,-110.5 "/>
<text text-anchor="middle" x="405.5" y="-92.3" font-family="Times,serif" font-size="14.00" fill="#0058ad">a 36 67</text>
<polyline fill="none" stroke="#0058ad" points="434,-81.5 434,-110.5 "/>
<text text-anchor="middle" x="463" y="-92.3" font-family="Times,serif" font-size="14.00" fill="#0058ad">r 41 [1]</text>
</g>
<!-- T7027 -->
<g id="node2" class="node">
<title>T7027</title>
<polygon fill="none" stroke="#0058ad" points="0,-.5 0,-29.5 606,-29.5 606,-.5 0,-.5"/>
<text text-anchor="middle" x="278" y="-11.3" font-family="Times,serif" font-size="14.00" fill="#0058ad">r 40 [1 2 3 4 5 6 7 8 9 10 11 12 13 14 15 16 17 18 19 20 21 22 23 24 25 26 27 28 29 30 31 33 34]</text>
<polyline fill="none" stroke="#0058ad" points="556,-.5 556,-29.5 "/>
<text text-anchor="middle" x="581" y="-11.3" font-family="Times,serif" font-size="14.00" fill="#0058ad">a 41 2</text>
</g>
<!-- T7029&#45;&gt;T7027 -->
<g id="edge1" class="edge">
<title>T7029:f2&#45;&gt;T7027:f1</title>
<path fill="none" stroke="#5b00c0" d="M492,-96C537.6864,-96 575.2046,-81.5793 580.3886,-40.1731"/>
<polygon fill="#5b00c0" stroke="#5b00c0" points="583.8937,-40.192 581,-30 576.9063,-39.772 583.8937,-40.192"/>
<text text-anchor="middle" x="585.5" y="-51.8" font-family="Times,serif" font-size="14.00" fill="#5b00c0">rw</text>
</g>
<!-- T7027&#45;&gt;T7029 -->
<g id="edge2" class="edge">
<title>T7027:f0&#45;&gt;T7029:f0</title>
<path fill="none" stroke="#5b00c0" d="M278,-30C278,-61.102 283.7861,-89.3729 309.894,-94.9903"/>
<polygon fill="#5b00c0" stroke="#5b00c0" points="309.7015,-98.4884 320,-96 310.3975,-91.5231 309.7015,-98.4884"/>
<text text-anchor="middle" x="287.5" y="-51.8" font-family="Times,serif" font-size="14.00" fill="#5b00c0">rw</text>
</g>
</g>
</svg>
