<?xml version="1.0" encoding="UTF-8" standalone="no"?>
<!DOCTYPE svg PUBLIC "-//W3C//DTD SVG 1.1//EN"
 "http://www.w3.org/Graphics/SVG/1.1/DTD/svg11.dtd">
<!-- Generated by graphviz version 2.40.1 (20161225.0304)
 -->
<!-- Title: a_graph Pages: 1 -->
<svg width="2315pt" height="119pt"
 viewBox="0.00 0.00 2315.00 119.00" xmlns="http://www.w3.org/2000/svg" xmlns:xlink="http://www.w3.org/1999/xlink">
<g id="graph0" class="graph" transform="scale(1 1) rotate(0) translate(4 115)">
<title>a_graph</title>
<polygon fill="#ffffff" stroke="transparent" points="-4,4 -4,-115 2311,-115 2311,4 -4,4"/>
<!-- T14687 -->
<g id="node1" class="node">
<title>T14687</title>
<polygon fill="none" stroke="#0058ad" points="0,-81.5 0,-110.5 2307,-110.5 2307,-81.5 0,-81.5"/>
<text text-anchor="middle" x="562.5" y="-92.3" font-family="Times,serif" font-size="14.00" fill="#0058ad">r 76 [2 1 3 6 4 5 7 9 10 8 11 12 13 14 15 17 16 18 19 20 21 22 23 24 25 28 29 30 26 33 34 35 32 38 39 40 41 42 43 46 45 47 49 50 51 48 52 53 56 54 55 60 59 63 61 62 64 65 67 68 71 72 66 73 74 75]</text>
<polyline fill="none" stroke="#0058ad" points="1125,-81.5 1125,-110.5 "/>
<text text-anchor="middle" x="1687.5" y="-92.3" font-family="Times,serif" font-size="14.00" fill="#0058ad">r 73 [1 2 3 5 4 6 7 8 9 10 11 13 15 16 17 18 19 20 21 22 24 25 23 26 27 28 29 30 31 32 34 35 36 37 33 38 39 40 41 42 43 44 45 46 47 48 49 50 51 53 52 54 55 57 58 56 59 62 64 65 66 67 68 69 70 71]</text>
<polyline fill="none" stroke="#0058ad" points="2250,-81.5 2250,-110.5 "/>
<text text-anchor="middle" x="2278.5" y="-92.3" font-family="Times,serif" font-size="14.00" fill="#0058ad">a 73 72</text>
</g>
<!-- T14685 -->
<g id="node2" class="node">
<title>T14685</title>
<polygon fill="none" stroke="#0058ad" points="562,-.5 562,-29.5 1801,-29.5 1801,-.5 562,-.5"/>
<text text-anchor="middle" x="1124.5" y="-11.3" font-family="Times,serif" font-size="14.00" fill="#0058ad">r 73 [1 2 3 5 4 6 7 8 9 10 11 13 15 16 17 18 19 20 21 22 24 25 23 26 27 28 29 30 31 32 34 35 36 37 33 38 39 40 41 42 43 44 45 46 47 48 49 50 51 53 52 54 55 57 58 56 59 62 64 65 66 67 68 69 70 71]</text>
<polyline fill="none" stroke="#0058ad" points="1687,-.5 1687,-29.5 "/>
<text text-anchor="middle" x="1715.5" y="-11.3" font-family="Times,serif" font-size="14.00" fill="#0058ad">a 76 69</text>
<polyline fill="none" stroke="#0058ad" points="1744,-.5 1744,-29.5 "/>
<text text-anchor="middle" x="1772.5" y="-11.3" font-family="Times,serif" font-size="14.00" fill="#0058ad">a 76 70</text>
</g>
<!-- T14687&#45;&gt;T14685 -->
<g id="edge1" class="edge">
<title>T14687:f0&#45;&gt;T14685:f1</title>
<path fill="none" stroke="#5b00c0" d="M562.5,-81C562.5,171.9663 1684.1882,-273.9757 1714.8593,-40.1202"/>
<polygon fill="#5b00c0" stroke="#5b00c0" points="1718.3611,-40.2012 1715.5,-30 1711.3751,-39.7589 1718.3611,-40.2012"/>
<text text-anchor="middle" x="1717" y="-51.8" font-family="Times,serif" font-size="14.00" fill="#5b00c0">rw</text>
</g>
<!-- T14685&#45;&gt;T14687 -->
<g id="edge2" class="edge">
<title>T14685:f0&#45;&gt;T14687:f2</title>
<path fill="none" stroke="#5b00c0" d="M1124.5,-30C1124.5,-46.7852 1711.7317,-47.2473 1728.5,-48 1847.2353,-53.3301 2253.7027,35.9657 2277.4172,-70.7902"/>
<polygon fill="#5b00c0" stroke="#5b00c0" points="2273.9648,-71.4249 2278.5,-81 2280.9257,-70.6866 2273.9648,-71.4249"/>
<text text-anchor="middle" x="2281" y="-51.8" font-family="Times,serif" font-size="14.00" fill="#5b00c0">rw</text>
</g>
</g>
</svg>
