<?xml version="1.0" encoding="UTF-8" standalone="no"?>
<!DOCTYPE svg PUBLIC "-//W3C//DTD SVG 1.1//EN"
 "http://www.w3.org/Graphics/SVG/1.1/DTD/svg11.dtd">
<!-- Generated by graphviz version 2.40.1 (20161225.0304)
 -->
<!-- Title: a_graph Pages: 1 -->
<svg width="2543pt" height="200pt"
 viewBox="0.00 0.00 2542.50 200.00" xmlns="http://www.w3.org/2000/svg" xmlns:xlink="http://www.w3.org/1999/xlink">
<g id="graph0" class="graph" transform="scale(1 1) rotate(0) translate(4 196)">
<title>a_graph</title>
<polygon fill="#ffffff" stroke="transparent" points="-4,4 -4,-196 2538.5,-196 2538.5,4 -4,4"/>
<!-- T18099 -->
<g id="node1" class="node">
<title>T18099</title>
<polygon fill="none" stroke="#0058ad" points="1411,-162.5 1411,-191.5 2014,-191.5 2014,-162.5 1411,-162.5"/>
<text text-anchor="middle" x="1680.5" y="-173.3" font-family="Times,serif" font-size="14.00" fill="#0058ad">r 92 [1 2 3 4 5 6 7 8 9 10 12 11 13 14 17 18 19 20 21 22 23 24 25 26 15 16 28 27 30 31 29 32]</text>
<polyline fill="none" stroke="#0058ad" points="1950,-162.5 1950,-191.5 "/>
<text text-anchor="middle" x="1982" y="-173.3" font-family="Times,serif" font-size="14.00" fill="#0058ad">a 72 102</text>
</g>
<!-- T18101 -->
<g id="node2" class="node">
<title>T18101</title>
<polygon fill="none" stroke="#0058ad" points="0,-81.5 0,-110.5 2497,-110.5 2497,-81.5 0,-81.5"/>
<text text-anchor="middle" x="28.5" y="-92.3" font-family="Times,serif" font-size="14.00" fill="#0058ad">a 92 33</text>
<polyline fill="none" stroke="#0058ad" points="57,-81.5 57,-110.5 "/>
<text text-anchor="middle" x="602.5" y="-92.3" font-family="Times,serif" font-size="14.00" fill="#0058ad">r 72 [1 2 3 4 5 6 7 8 9 10 11 12 13 14 16 17 18 19 20 21 22 23 24 25 26 28 29 31 30 32 33 34 35 36 70 71 72 73 74 75 76 77 78 79 80 81 82 83 84 85 86 87 88 89 90 91 92 93 94 96 95 97 98 99]</text>
<polyline fill="none" stroke="#0058ad" points="1148,-81.5 1148,-110.5 "/>
<text text-anchor="middle" x="1822.5" y="-92.3" font-family="Times,serif" font-size="14.00" fill="#0058ad">r 90 [1 2 3 4 5 6 7 8 9 12 13 10 14 16 18 24 26 27 28 29 30 31 32 33 34 35 36 37 38 39 40 41 42 43 44 45 47 48 49 50 51 46 52 53 54 55 56 58 57 60 59 61 62 63 64 65 66 67 68 69 70 71 72 73 74 75 76 77 78 79 80 81 82 83 85 86 88 84 87]</text>
</g>
<!-- T18099&#45;&gt;T18101 -->
<g id="edge1" class="edge">
<title>T18099:f0&#45;&gt;T18101:f0</title>
<path fill="none" stroke="#5b00c0" d="M1410.5,-177C1373.8689,-177 151.5917,-151.9565 37.0837,-116.3312"/>
<polygon fill="#5b00c0" stroke="#5b00c0" points="38.8415,-113.3029 28.5,-111 35.1483,-119.2493 38.8415,-113.3029"/>
<text text-anchor="middle" x="328" y="-132.8" font-family="Times,serif" font-size="14.00" fill="#5b00c0">rw</text>
</g>
<!-- T18097 -->
<g id="node3" class="node">
<title>T18097</title>
<polygon fill="none" stroke="#0058ad" points="570.5,-.5 570.5,-29.5 1230.5,-29.5 1230.5,-.5 570.5,-.5"/>
<text text-anchor="middle" x="602.5" y="-11.3" font-family="Times,serif" font-size="14.00" fill="#0058ad">a 72 101</text>
<polyline fill="none" stroke="#0058ad" points="634.5,-.5 634.5,-29.5 "/>
<text text-anchor="middle" x="904" y="-11.3" font-family="Times,serif" font-size="14.00" fill="#0058ad">r 92 [1 2 3 4 5 6 7 8 9 10 12 11 13 14 17 18 19 20 21 22 23 24 25 26 15 16 28 27 30 31 29 32]</text>
<polyline fill="none" stroke="#0058ad" points="1173.5,-.5 1173.5,-29.5 "/>
<text text-anchor="middle" x="1202" y="-11.3" font-family="Times,serif" font-size="14.00" fill="#0058ad">a 90 89</text>
</g>
<!-- T18101&#45;&gt;T18097 -->
<g id="edge2" class="edge">
<title>T18101:f1&#45;&gt;T18097:f0</title>
<path fill="none" stroke="#5b00c0" d="M602.5,-81C602.5,-62.2292 602.5,-55.1168 602.5,-40.3535"/>
<polygon fill="#5b00c0" stroke="#5b00c0" points="606.0001,-40 602.5,-30 599.0001,-40 606.0001,-40"/>
<text text-anchor="middle" x="610" y="-51.8" font-family="Times,serif" font-size="14.00" fill="#5b00c0">rw</text>
</g>
<!-- T18097&#45;&gt;T18099 -->
<g id="edge4" class="edge">
<title>T18097:f0&#45;&gt;T18099:f1</title>
<path fill="none" stroke="#c02700" d="M602.5,-30C602.5,-56.4539 2488.0464,-62.0455 2506.5,-81 2582.0059,-158.5555 2151.4243,-176.0323 2024.7789,-176.96"/>
<polygon fill="#c02700" stroke="#c02700" points="2024.4863,-173.461 2014.5,-177 2024.5136,-180.4609 2024.4863,-173.461"/>
<text text-anchor="middle" x="2524.5" y="-92.3" font-family="Times,serif" font-size="14.00" fill="#c02700">ww</text>
</g>
<!-- T18097&#45;&gt;T18101 -->
<g id="edge3" class="edge">
<title>T18097:f1&#45;&gt;T18101:f0</title>
<path fill="none" stroke="#5b00c0" d="M904.5,-30C904.5,-156.63 747.7908,-53.7372 621.5,-63 606.3163,-64.1137 113.086,-64.4671 38.0336,-77.5079"/>
<polygon fill="#5b00c0" stroke="#5b00c0" points="36.6861,-74.274 28.5,-81 39.0937,-80.847 36.6861,-74.274"/>
<text text-anchor="middle" x="911" y="-51.8" font-family="Times,serif" font-size="14.00" fill="#5b00c0">rw</text>
</g>
</g>
</svg>
