<?xml version="1.0" encoding="UTF-8" standalone="no"?>
<!DOCTYPE svg PUBLIC "-//W3C//DTD SVG 1.1//EN"
 "http://www.w3.org/Graphics/SVG/1.1/DTD/svg11.dtd">
<!-- Generated by graphviz version 2.40.1 (20161225.0304)
 -->
<!-- Title: a_graph Pages: 1 -->
<svg width="2200pt" height="200pt"
 viewBox="0.00 0.00 2200.00 200.00" xmlns="http://www.w3.org/2000/svg" xmlns:xlink="http://www.w3.org/1999/xlink">
<g id="graph0" class="graph" transform="scale(1 1) rotate(0) translate(4 196)">
<title>a_graph</title>
<polygon fill="#ffffff" stroke="transparent" points="-4,4 -4,-196 2196,-196 2196,4 -4,4"/>
<!-- T11697 -->
<g id="node1" class="node">
<title>T11697</title>
<polygon fill="none" stroke="#0058ad" points="0,-162.5 0,-191.5 2192,-191.5 2192,-162.5 0,-162.5"/>
<text text-anchor="middle" x="519.5" y="-173.3" font-family="Times,serif" font-size="14.00" fill="#0058ad">r 61 [1 2 3 4 5 6 7 8 9 10 11 12 14 15 16 13 17 18 19 20 21 22 24 23 26 27 29 28 30 31 32 33 25 36 34 35 37 38 39 40 41 42 43 44 45 46 49 50 51 47 48 52 53 54 55 56 57 58 59 60 61]</text>
<polyline fill="none" stroke="#0058ad" points="1039,-162.5 1039,-191.5 "/>
<text text-anchor="middle" x="1067.5" y="-173.3" font-family="Times,serif" font-size="14.00" fill="#0058ad">a 60 72</text>
<polyline fill="none" stroke="#0058ad" points="1096,-162.5 1096,-191.5 "/>
<text text-anchor="middle" x="1124.5" y="-173.3" font-family="Times,serif" font-size="14.00" fill="#0058ad">a 60 73</text>
<polyline fill="none" stroke="#0058ad" points="1153,-162.5 1153,-191.5 "/>
<text text-anchor="middle" x="1672.5" y="-173.3" font-family="Times,serif" font-size="14.00" fill="#0058ad">r 61 [1 2 3 4 5 6 7 8 9 10 11 12 14 15 16 13 17 18 19 20 21 22 24 23 26 27 29 28 30 31 32 33 25 36 34 35 37 38 39 40 41 42 43 44 45 46 49 50 51 47 48 52 53 54 55 56 57 58 59 60 61]</text>
</g>
<!-- T11695 -->
<g id="node3" class="node">
<title>T11695</title>
<polygon fill="none" stroke="#0058ad" points="483,-81.5 483,-110.5 597,-110.5 597,-81.5 483,-81.5"/>
<text text-anchor="middle" x="511.5" y="-92.3" font-family="Times,serif" font-size="14.00" fill="#0058ad">a 61 63</text>
<polyline fill="none" stroke="#0058ad" points="540,-81.5 540,-110.5 "/>
<text text-anchor="middle" x="568.5" y="-92.3" font-family="Times,serif" font-size="14.00" fill="#0058ad">a 53 80</text>
</g>
<!-- T11697&#45;&gt;T11695 -->
<g id="edge1" class="edge">
<title>T11697:f0&#45;&gt;T11695:f0</title>
<path fill="none" stroke="#5b00c0" d="M519,-162C519,-142.8204 513.4097,-136.1013 511.5753,-121.0103"/>
<polygon fill="#5b00c0" stroke="#5b00c0" points="515.0681,-120.7827 511,-111 508.0797,-121.1844 515.0681,-120.7827"/>
<text text-anchor="middle" x="524.5" y="-132.8" font-family="Times,serif" font-size="14.00" fill="#5b00c0">rw</text>
</g>
<!-- T11701 -->
<g id="node2" class="node">
<title>T11701</title>
<polygon fill="none" stroke="#0058ad" points="470,-.5 470,-29.5 1766,-29.5 1766,-.5 470,-.5"/>
<text text-anchor="middle" x="498.5" y="-11.3" font-family="Times,serif" font-size="14.00" fill="#0058ad">a 61 64</text>
<polyline fill="none" stroke="#0058ad" points="527,-.5 527,-29.5 "/>
<text text-anchor="middle" x="1089.5" y="-11.3" font-family="Times,serif" font-size="14.00" fill="#0058ad">r 60 [1 2 3 4 5 6 8 7 9 11 12 14 10 17 18 19 21 22 24 25 26 27 29 28 30 31 32 33 34 35 36 37 38 39 40 42 43 41 44 45 47 48 49 50 52 53 46 54 51 55 56 58 57 59 60 61 62 63 64 65 66 67 68 69 70 71]</text>
<polyline fill="none" stroke="#0058ad" points="1652,-.5 1652,-29.5 "/>
<text text-anchor="middle" x="1680.5" y="-11.3" font-family="Times,serif" font-size="14.00" fill="#0058ad">a 61 65</text>
<polyline fill="none" stroke="#0058ad" points="1709,-.5 1709,-29.5 "/>
<text text-anchor="middle" x="1737.5" y="-11.3" font-family="Times,serif" font-size="14.00" fill="#0058ad">a 61 66</text>
</g>
<!-- T11701&#45;&gt;T11697 -->
<g id="edge2" class="edge">
<title>T11701:f1&#45;&gt;T11697:f1</title>
<path fill="none" stroke="#5b00c0" d="M1089,-30C1089,-85.8748 1069.5834,-100.7738 1067.2322,-151.6868"/>
<polygon fill="#5b00c0" stroke="#5b00c0" points="1063.7261,-151.9237 1067,-162 1070.7243,-152.0813 1063.7261,-151.9237"/>
<text text-anchor="middle" x="1089.5" y="-92.3" font-family="Times,serif" font-size="14.00" fill="#5b00c0">rw</text>
</g>
<!-- T11695&#45;&gt;T11701 -->
<g id="edge3" class="edge">
<title>T11695:f0&#45;&gt;T11701:f0</title>
<path fill="none" stroke="#c02700" d="M511,-81C511,-61.4462 501.9157,-55.2913 498.9349,-40.134"/>
<polygon fill="#c02700" stroke="#c02700" points="502.404,-39.6362 498,-30 495.4336,-40.2793 502.404,-39.6362"/>
<text text-anchor="middle" x="518" y="-51.8" font-family="Times,serif" font-size="14.00" fill="#c02700">ww</text>
</g>
</g>
</svg>
