<?xml version="1.0" encoding="UTF-8" standalone="no"?>
<!DOCTYPE svg PUBLIC "-//W3C//DTD SVG 1.1//EN"
 "http://www.w3.org/Graphics/SVG/1.1/DTD/svg11.dtd">
<!-- Generated by graphviz version 2.40.1 (20161225.0304)
 -->
<!-- Title: a_graph Pages: 1 -->
<svg width="3337pt" height="119pt"
 viewBox="0.00 0.00 3337.00 119.00" xmlns="http://www.w3.org/2000/svg" xmlns:xlink="http://www.w3.org/1999/xlink">
<g id="graph0" class="graph" transform="scale(1 1) rotate(0) translate(4 115)">
<title>a_graph</title>
<polygon fill="#ffffff" stroke="transparent" points="-4,4 -4,-115 3333,-115 3333,4 -4,4"/>
<!-- T4412 -->
<g id="node1" class="node">
<title>T4412</title>
<polygon fill="none" stroke="#0058ad" points="0,-81.5 0,-110.5 3329,-110.5 3329,-81.5 0,-81.5"/>
<text text-anchor="middle" x="28.5" y="-92.3" font-family="Times,serif" font-size="14.00" fill="#0058ad">a 23 37</text>
<polyline fill="none" stroke="#0058ad" points="57,-81.5 57,-110.5 "/>
<text text-anchor="middle" x="593.5" y="-92.3" font-family="Times,serif" font-size="14.00" fill="#0058ad">r 5 [2 3 4 5 6 7 8 9 10 11 12 13 14 15 16 41 42 43 44 46 47 48 49 50 51 52 53 54 55 56 57 58 59 60 61 62 63 64 65 66 67 68 69 70 71 72 73 74 75 76 77 78 80 81 82 83 84 85 86 87 88 89 90]</text>
<polyline fill="none" stroke="#0058ad" points="1130,-81.5 1130,-110.5 "/>
<text text-anchor="middle" x="1345.5" y="-92.3" font-family="Times,serif" font-size="14.00" fill="#0058ad">r 4 [1 2 3 4 6 7 23 24 25 26 27 28 29 31 32 33 34 35 36 37 39 40 41 42 43]</text>
<polyline fill="none" stroke="#0058ad" points="1561,-81.5 1561,-110.5 "/>
<text text-anchor="middle" x="2445" y="-92.3" font-family="Times,serif" font-size="14.00" fill="#0058ad">r 26 [1 2 3 4 5 6 7 8 10 11 12 13 14 15 16 17 18 19 20 21 22 23 24 25 26 27 28 29 30 31 32 36 37 38 39 40 41 42 43 44 45 46 47 48 49 50 51 52 53 54 55 56 57 58 59 60 61 62 63 65 66 67 70 73 74 78 80 81 84 85 88 89 90 91 92 93 94 95 96 97 98 99 100 102 103 101 104 105 106 107 108 110 109 111 112 113 114]</text>
</g>
<!-- T4411 -->
<g id="node2" class="node">
<title>T4411</title>
<polygon fill="none" stroke="#0058ad" points="453.5,-.5 453.5,-29.5 1171.5,-29.5 1171.5,-.5 453.5,-.5"/>
<text text-anchor="middle" x="485.5" y="-11.3" font-family="Times,serif" font-size="14.00" fill="#0058ad">a 24 127</text>
<polyline fill="none" stroke="#0058ad" points="517.5,-.5 517.5,-29.5 "/>
<text text-anchor="middle" x="812.5" y="-11.3" font-family="Times,serif" font-size="14.00" fill="#0058ad">r 23 [1 2 3 4 5 6 7 8 9 10 12 13 14 15 17 16 18 19 20 21 22 23 24 25 26 27 28 29 30 31 32 33 34 35 36]</text>
<polyline fill="none" stroke="#0058ad" points="1107.5,-.5 1107.5,-29.5 "/>
<text text-anchor="middle" x="1139.5" y="-11.3" font-family="Times,serif" font-size="14.00" fill="#0058ad">a 26 115</text>
</g>
<!-- T4412&#45;&gt;T4411 -->
<g id="edge1" class="edge">
<title>T4412:f3&#45;&gt;T4411:f2</title>
<path fill="none" stroke="#5b00c0" d="M2445.5,-81C2445.5,-47.0171 1306.4537,-17.5154 1181.7639,-15.1525"/>
<polygon fill="#5b00c0" stroke="#5b00c0" points="1181.5509,-11.649 1171.5,-15 1181.4469,-18.6483 1181.5509,-11.649"/>
<text text-anchor="middle" x="2346" y="-51.8" font-family="Times,serif" font-size="14.00" fill="#5b00c0">rw</text>
</g>
<!-- T4411&#45;&gt;T4412 -->
<g id="edge2" class="edge">
<title>T4411:f1&#45;&gt;T4412:f0</title>
<path fill="none" stroke="#5b00c0" d="M812.5,-30C812.5,-201.01 60.3265,81.5592 29.4757,-70.8469"/>
<polygon fill="#5b00c0" stroke="#5b00c0" points="25.9727,-70.711 28.5,-81 32.9406,-71.3807 25.9727,-70.711"/>
<text text-anchor="middle" x="816" y="-51.8" font-family="Times,serif" font-size="14.00" fill="#5b00c0">rw</text>
</g>
</g>
</svg>
