<?xml version="1.0" encoding="UTF-8" standalone="no"?>
<!DOCTYPE svg PUBLIC "-//W3C//DTD SVG 1.1//EN"
 "http://www.w3.org/Graphics/SVG/1.1/DTD/svg11.dtd">
<!-- Generated by graphviz version 2.40.1 (20161225.0304)
 -->
<!-- Title: a_graph Pages: 1 -->
<svg width="5304pt" height="119pt"
 viewBox="0.00 0.00 5304.00 119.00" xmlns="http://www.w3.org/2000/svg" xmlns:xlink="http://www.w3.org/1999/xlink">
<g id="graph0" class="graph" transform="scale(1 1) rotate(0) translate(4 115)">
<title>a_graph</title>
<polygon fill="#ffffff" stroke="transparent" points="-4,4 -4,-115 5300,-115 5300,4 -4,4"/>
<!-- T10409 -->
<g id="node1" class="node">
<title>T10409</title>
<polygon fill="none" stroke="#0058ad" points="0,-81.5 0,-110.5 2005,-110.5 2005,-81.5 0,-81.5"/>
<text text-anchor="middle" x="25" y="-92.3" font-family="Times,serif" font-size="14.00" fill="#0058ad">a 56 1</text>
<polyline fill="none" stroke="#0058ad" points="50,-81.5 50,-110.5 "/>
<text text-anchor="middle" x="999" y="-92.3" font-family="Times,serif" font-size="14.00" fill="#0058ad">r 52 [1 2 3 4 5 6 7 8 9 10 11 12 13 14 16 15 17 18 19 21 20 22 23 24 30 32 36 34 39 40 41 42 43 45 46 44 47 48 49 50 51 52 53 54 55 56 57 58 59 60 61 63 64 62 65 66 67 68 70 69 71 72 74 73 75 76 77 78 79 80 81 82 83 84 85 86 87 88 89 91 90 92 93 100 101 102 104 107 108 109 110 111 112 115 116 117 113 114 120 119 121 118 122]</text>
<polyline fill="none" stroke="#0058ad" points="1948,-81.5 1948,-110.5 "/>
<text text-anchor="middle" x="1976.5" y="-92.3" font-family="Times,serif" font-size="14.00" fill="#0058ad">a 55 43</text>
</g>
<!-- T10407 -->
<g id="node2" class="node">
<title>T10407</title>
<polygon fill="none" stroke="#0058ad" points="781,-.5 781,-29.5 5296,-29.5 5296,-.5 781,-.5"/>
<text text-anchor="middle" x="1084.5" y="-11.3" font-family="Times,serif" font-size="14.00" fill="#0058ad">r 55 [1 7 5 6 13 15 14 16 17 18 21 22 19 20 23 24 25 26 28 29 30 31 32 33 34 35 27 37 38 39 40 41 42 36]</text>
<polyline fill="none" stroke="#0058ad" points="1388,-.5 1388,-29.5 "/>
<text text-anchor="middle" x="1420" y="-11.3" font-family="Times,serif" font-size="14.00" fill="#0058ad">a 52 123</text>
<polyline fill="none" stroke="#0058ad" points="1452,-.5 1452,-29.5 "/>
<text text-anchor="middle" x="2413" y="-11.3" font-family="Times,serif" font-size="14.00" fill="#0058ad">r 52 [1 2 3 4 5 6 7 8 9 10 11 12 13 14 16 15 17 18 19 21 20 22 23 24 30 32 36 34 39 40 41 42 43 45 46 44 47 48 49 50 51 52 53 54 55 56 57 58 59 60 61 63 64 62 65 66 67 68 70 69 71 72 74 73 75 76 77 78 79 80 81 82 83 84 85 86 87 88 89 91 90 92 93 100 101 102 104 107 108 109 110 111 112 115 116 117 113 114 120 119 121 118 122 123]</text>
<polyline fill="none" stroke="#0058ad" points="3374,-.5 3374,-29.5 "/>
<text text-anchor="middle" x="4335" y="-11.3" font-family="Times,serif" font-size="14.00" fill="#0058ad">r 52 [1 2 3 4 5 6 7 8 9 10 11 12 13 14 16 15 17 18 19 21 20 22 23 24 30 32 36 34 39 40 41 42 43 45 46 44 47 48 49 50 51 52 53 54 55 56 57 58 59 60 61 63 64 62 65 66 67 68 70 69 71 72 74 73 75 76 77 78 79 80 81 82 83 84 85 86 87 88 89 91 90 92 93 100 101 102 104 107 108 109 110 111 112 115 116 117 113 114 120 119 121 118 122 123]</text>
</g>
<!-- T10409&#45;&gt;T10407 -->
<g id="edge1" class="edge">
<title>T10409:f1&#45;&gt;T10407:f1</title>
<path fill="none" stroke="#5b00c0" d="M998.5,-81C998.5,103.7978 1403.2153,-205.9425 1419.0245,-40.4626"/>
<polygon fill="#5b00c0" stroke="#5b00c0" points="1422.5423,-40.1486 1419.5,-30 1415.5495,-39.8307 1422.5423,-40.1486"/>
<text text-anchor="middle" x="1426" y="-51.8" font-family="Times,serif" font-size="14.00" fill="#5b00c0">rw</text>
</g>
<!-- T10407&#45;&gt;T10409 -->
<g id="edge2" class="edge">
<title>T10407:f0&#45;&gt;T10409:f2</title>
<path fill="none" stroke="#5b00c0" d="M1084.5,-30C1084.5,-49.6366 1417.8942,-46.9 1437.5,-48 1553.8035,-54.5254 1952.1953,33.5966 1975.4387,-70.9954"/>
<polygon fill="#5b00c0" stroke="#5b00c0" points="1971.9645,-71.425 1976.5,-81 1978.9255,-70.6866 1971.9645,-71.425"/>
<text text-anchor="middle" x="1979" y="-51.8" font-family="Times,serif" font-size="14.00" fill="#5b00c0">rw</text>
</g>
</g>
</svg>
