<?xml version="1.0" encoding="UTF-8" standalone="no"?>
<!DOCTYPE svg PUBLIC "-//W3C//DTD SVG 1.1//EN"
 "http://www.w3.org/Graphics/SVG/1.1/DTD/svg11.dtd">
<!-- Generated by graphviz version 2.40.1 (20161225.0304)
 -->
<!-- Title: a_graph Pages: 1 -->
<svg width="2879pt" height="119pt"
 viewBox="0.00 0.00 2879.00 119.00" xmlns="http://www.w3.org/2000/svg" xmlns:xlink="http://www.w3.org/1999/xlink">
<g id="graph0" class="graph" transform="scale(1 1) rotate(0) translate(4 115)">
<title>a_graph</title>
<polygon fill="#ffffff" stroke="transparent" points="-4,4 -4,-115 2875,-115 2875,4 -4,4"/>
<!-- T13475 -->
<g id="node1" class="node">
<title>T13475</title>
<polygon fill="none" stroke="#0058ad" points="0,-81.5 0,-110.5 2871,-110.5 2871,-81.5 0,-81.5"/>
<text text-anchor="middle" x="859" y="-92.3" font-family="Times,serif" font-size="14.00" fill="#0058ad">r 64 [1 2 3 4 5 6 7 8 9 10 11 12 13 14 15 16 18 17 20 21 19 23 22 24 25 26 27 28 29 31 30 32 33 34 35 36 37 38 39 40 41 42 43 44 45 47 46 48 50 49 51 53 52 54 55 56 57 58 59 60 61 62 63 64 65 66 67 68 70 69 71 72 73 75 74 76 77 79 78 80 81 82 83 84 85 86 88 87 89 90 91 93 92 94 95 96 97 98 99 100]</text>
<polyline fill="none" stroke="#0058ad" points="1718,-81.5 1718,-110.5 "/>
<text text-anchor="middle" x="1746.5" y="-92.3" font-family="Times,serif" font-size="14.00" fill="#0058ad">a 68 98</text>
<polyline fill="none" stroke="#0058ad" points="1775,-81.5 1775,-110.5 "/>
<text text-anchor="middle" x="2294.5" y="-92.3" font-family="Times,serif" font-size="14.00" fill="#0058ad">r 67 [2 3 4 5 1 6 8 7 10 11 9 12 13 14 15 16 17 19 20 21 18 22 23 24 25 26 27 29 28 30 31 32 33 34 36 35 37 38 39 40 41 42 43 44 45 46 47 48 49 50 51 52 53 55 54 56 57 58 59 60 61]</text>
<polyline fill="none" stroke="#0058ad" points="2814,-81.5 2814,-110.5 "/>
<text text-anchor="middle" x="2842.5" y="-92.3" font-family="Times,serif" font-size="14.00" fill="#0058ad">a 68 99</text>
</g>
<!-- T13473 -->
<g id="node2" class="node">
<title>T13473</title>
<polygon fill="none" stroke="#0058ad" points="811.5,-.5 811.5,-29.5 2511.5,-29.5 2511.5,-.5 811.5,-.5"/>
<text text-anchor="middle" x="1633" y="-11.3" font-family="Times,serif" font-size="14.00" fill="#0058ad">r 68 [1 2 3 4 6 7 8 5 9 10 11 12 13 16 14 15 17 18 19 22 23 24 20 21 25 26 27 29 30 28 31 32 33 34 35 36 38 39 40 37 42 43 41 44 45 46 47 49 48 50 52 51 54 53 55 57 56 58 59 60 61 62 65 66 67 63 64 69 68 70 71 72 74 75 76 77 78 79 73 80 81 82 83 84 85 87 88 89 92 93 90 91 94 95 96 97]</text>
<polyline fill="none" stroke="#0058ad" points="2454.5,-.5 2454.5,-29.5 "/>
<text text-anchor="middle" x="2483" y="-11.3" font-family="Times,serif" font-size="14.00" fill="#0058ad">a 67 62</text>
</g>
<!-- T13475&#45;&gt;T13473 -->
<g id="edge1" class="edge">
<title>T13475:f2&#45;&gt;T13473:f1</title>
<path fill="none" stroke="#5b00c0" d="M2294.5,-81C2294.5,2.266 2467.6068,-106.8211 2482.4831,-40.0855"/>
<polygon fill="#5b00c0" stroke="#5b00c0" points="2485.9791,-40.3007 2483.5,-30 2479.0144,-39.5984 2485.9791,-40.3007"/>
<text text-anchor="middle" x="2485" y="-51.8" font-family="Times,serif" font-size="14.00" fill="#5b00c0">rw</text>
</g>
<!-- T13473&#45;&gt;T13475 -->
<g id="edge2" class="edge">
<title>T13473:f0&#45;&gt;T13475:f1</title>
<path fill="none" stroke="#5b00c0" d="M1632.5,-30C1632.5,-81.603 1731.0323,-33.3623 1744.8885,-70.9247"/>
<polygon fill="#5b00c0" stroke="#5b00c0" points="1741.4644,-71.6783 1746.5,-81 1748.3766,-70.5727 1741.4644,-71.6783"/>
<text text-anchor="middle" x="1746" y="-51.8" font-family="Times,serif" font-size="14.00" fill="#5b00c0">rw</text>
</g>
</g>
</svg>
