<?xml version="1.0" encoding="UTF-8" standalone="no"?>
<!DOCTYPE svg PUBLIC "-//W3C//DTD SVG 1.1//EN"
 "http://www.w3.org/Graphics/SVG/1.1/DTD/svg11.dtd">
<!-- Generated by graphviz version 2.40.1 (20161225.0304)
 -->
<!-- Title: a_graph Pages: 1 -->
<svg width="3383pt" height="119pt"
 viewBox="0.00 0.00 3382.50 119.00" xmlns="http://www.w3.org/2000/svg" xmlns:xlink="http://www.w3.org/1999/xlink">
<g id="graph0" class="graph" transform="scale(1 1) rotate(0) translate(4 115)">
<title>a_graph</title>
<polygon fill="#ffffff" stroke="transparent" points="-4,4 -4,-115 3378.5,-115 3378.5,4 -4,4"/>
<!-- T20781 -->
<g id="node1" class="node">
<title>T20781</title>
<polygon fill="none" stroke="#0058ad" points="1018.5,-81.5 1018.5,-110.5 3374.5,-110.5 3374.5,-81.5 1018.5,-81.5"/>
<text text-anchor="middle" x="2132.5" y="-92.3" font-family="Times,serif" font-size="14.00" fill="#0058ad">r 101 [1 2 3 4 5 6 8 7 10 9 11 12 13 15 16 14 18 19 17 20 21 22 23 25 26 27 24 28 30 31 29 32 34 33 35 36 37 38 39 40 43 41 42 44 45 46 47 49 50 48 51 52 54 53 55 56 57 58 59 60 61 63 64 65 62 66 67 68 71 73 69 76 77 80 83 84 74 85 86 89 90 87 88 91 92 93 94 95 96 97 99 98 100 102 103 101 104 106 105 107 108 109 110 111 112 114 116 115 113 118 119 120 117 123 124 121 122 125 126]</text>
<polyline fill="none" stroke="#0058ad" points="3246.5,-81.5 3246.5,-110.5 "/>
<text text-anchor="middle" x="3278.5" y="-92.3" font-family="Times,serif" font-size="14.00" fill="#0058ad">a 104 11</text>
<polyline fill="none" stroke="#0058ad" points="3310.5,-81.5 3310.5,-110.5 "/>
<text text-anchor="middle" x="3342.5" y="-92.3" font-family="Times,serif" font-size="14.00" fill="#0058ad">a 105 59</text>
</g>
<!-- T20783 -->
<g id="node2" class="node">
<title>T20783</title>
<polygon fill="none" stroke="#0058ad" points="0,-.5 0,-29.5 3345,-29.5 3345,-.5 0,-.5"/>
<text text-anchor="middle" x="1114" y="-11.3" font-family="Times,serif" font-size="14.00" fill="#0058ad">r 101 [1 2 3 4 5 6 8 7 10 9 11 12 13 15 16 14 18 19 17 20 21 22 23 25 26 27 24 28 30 31 29 32 34 33 35 36 37 38 39 40 43 41 42 44 45 46 47 49 50 48 51 52 54 53 55 56 57 58 59 60 61 63 64 65 62 66 67 68 71 73 69 76 77 80 83 84 74 85 86 89 90 87 88 91 92 93 94 95 96 97 99 98 100 102 103 101 104 106 105 107 108 109 110 111 112 114 116 115 113 118 119 120 117 123 124 121 122 125 126]</text>
<polyline fill="none" stroke="#0058ad" points="2228,-.5 2228,-29.5 "/>
<text text-anchor="middle" x="2751" y="-11.3" font-family="Times,serif" font-size="14.00" fill="#0058ad">r 105 [1 2 4 5 6 7 8 3 9 10 11 12 14 15 16 17 18 19 13 20 21 22 23 24 26 27 29 25 30 28 31 33 32 34 35 36 37 38 39 41 42 43 44 45 46 40 48 47 50 51 49 53 52 54 55 56 57 58 61 60 62]</text>
<polyline fill="none" stroke="#0058ad" points="3274,-.5 3274,-29.5 "/>
<text text-anchor="middle" x="3309.5" y="-11.3" font-family="Times,serif" font-size="14.00" fill="#0058ad">a 101 127</text>
</g>
<!-- T20781&#45;&gt;T20783 -->
<g id="edge1" class="edge">
<title>T20781:f0&#45;&gt;T20783:f2</title>
<path fill="none" stroke="#5b00c0" d="M2132.5,-81C2132.5,-65.5163 3186.4599,-48.3202 3299.6783,-32.6525"/>
<polygon fill="#5b00c0" stroke="#5b00c0" points="3300.7584,-35.9863 3309.5,-30 3298.9333,-29.2284 3300.7584,-35.9863"/>
<text text-anchor="middle" x="2969" y="-51.8" font-family="Times,serif" font-size="14.00" fill="#5b00c0">rw</text>
</g>
<!-- T20783&#45;&gt;T20781 -->
<g id="edge2" class="edge">
<title>T20783:f1&#45;&gt;T20781:f2</title>
<path fill="none" stroke="#5b00c0" d="M2751.5,-30C2751.5,-42.7615 2967.7843,-46.9207 2980.5,-48 3138.0187,-61.3699 3333.8808,74.517 3342.224,-71.0033"/>
<polygon fill="#5b00c0" stroke="#5b00c0" points="3338.7253,-71.1004 3342.5,-81 3345.7226,-70.9072 3338.7253,-71.1004"/>
<text text-anchor="middle" x="3347" y="-51.8" font-family="Times,serif" font-size="14.00" fill="#5b00c0">rw</text>
</g>
</g>
</svg>
