<?xml version="1.0" encoding="UTF-8" standalone="no"?>
<!DOCTYPE svg PUBLIC "-//W3C//DTD SVG 1.1//EN"
 "http://www.w3.org/Graphics/SVG/1.1/DTD/svg11.dtd">
<!-- Generated by graphviz version 2.40.1 (20161225.0304)
 -->
<!-- Title: a_graph Pages: 1 -->
<svg width="1968pt" height="119pt"
 viewBox="0.00 0.00 1967.50 119.00" xmlns="http://www.w3.org/2000/svg" xmlns:xlink="http://www.w3.org/1999/xlink">
<g id="graph0" class="graph" transform="scale(1 1) rotate(0) translate(4 115)">
<title>a_graph</title>
<polygon fill="#ffffff" stroke="transparent" points="-4,4 -4,-115 1963.5,-115 1963.5,4 -4,4"/>
<!-- T17819 -->
<g id="node1" class="node">
<title>T17819</title>
<polygon fill="none" stroke="#0058ad" points="0,-81.5 0,-110.5 1952,-110.5 1952,-81.5 0,-81.5"/>
<text text-anchor="middle" x="566" y="-92.3" font-family="Times,serif" font-size="14.00" fill="#0058ad">r 91 [1 3 4 5 6 7 8 9 10 11 12 13 14 16 17 15 18 19 23 24 25 26 27 20 21 30 28 32 31 35 36 33 37 38 39 40 41 42 43 44 45 46 47 48 50 49 52 51 54 55 56 53 59 60 61 57 58 62 65 66 68 69 70 71 72 67]</text>
<polyline fill="none" stroke="#0058ad" points="1132,-81.5 1132,-110.5 "/>
<text text-anchor="middle" x="1513.5" y="-92.3" font-family="Times,serif" font-size="14.00" fill="#0058ad">r 89 [2 3 1 4 5 7 8 6 9 10 11 12 13 14 15 17 18 19 16 20 21 22 23 24 25 27 26 28 29 30 31 33 36 37 39 38 40 41 42 43 44 46 45 48 49]</text>
<polyline fill="none" stroke="#0058ad" points="1895,-81.5 1895,-110.5 "/>
<text text-anchor="middle" x="1923.5" y="-92.3" font-family="Times,serif" font-size="14.00" fill="#0058ad">a 90 45</text>
</g>
<!-- T17817 -->
<g id="node2" class="node">
<title>T17817</title>
<polygon fill="none" stroke="#0058ad" points="1312.5,-.5 1312.5,-29.5 1959.5,-29.5 1959.5,-.5 1312.5,-.5"/>
<text text-anchor="middle" x="1341" y="-11.3" font-family="Times,serif" font-size="14.00" fill="#0058ad">a 91 73</text>
<polyline fill="none" stroke="#0058ad" points="1369.5,-.5 1369.5,-29.5 "/>
<text text-anchor="middle" x="1664.5" y="-11.3" font-family="Times,serif" font-size="14.00" fill="#0058ad">r 90 [1 2 3 4 5 6 7 8 9 12 13 10 14 16 18 24 26 27 28 29 30 31 32 33 34 35 36 37 38 39 40 41 42 43 44]</text>
</g>
<!-- T17819&#45;&gt;T17817 -->
<g id="edge1" class="edge">
<title>T17819:f0&#45;&gt;T17817:f0</title>
<path fill="none" stroke="#5b00c0" d="M566,-81C566,-41.344 1205.9045,-17.3247 1301.921,-15.1601"/>
<polygon fill="#5b00c0" stroke="#5b00c0" points="1302.0569,-18.6584 1312,-15 1301.9457,-11.6593 1302.0569,-18.6584"/>
<text text-anchor="middle" x="727.5" y="-51.8" font-family="Times,serif" font-size="14.00" fill="#5b00c0">rw</text>
</g>
<!-- T17817&#45;&gt;T17819 -->
<g id="edge2" class="edge">
<title>T17817:f1&#45;&gt;T17819:f2</title>
<path fill="none" stroke="#5b00c0" d="M1665,-30C1665,-143.6552 1908.0654,25.1378 1923.257,-70.8645"/>
<polygon fill="#5b00c0" stroke="#5b00c0" points="1919.7782,-71.2827 1924,-81 1926.7595,-70.7708 1919.7782,-71.2827"/>
<text text-anchor="middle" x="1926.5" y="-51.8" font-family="Times,serif" font-size="14.00" fill="#5b00c0">rw</text>
</g>
</g>
</svg>
