<?xml version="1.0" encoding="UTF-8" standalone="no"?>
<!DOCTYPE svg PUBLIC "-//W3C//DTD SVG 1.1//EN"
 "http://www.w3.org/Graphics/SVG/1.1/DTD/svg11.dtd">
<!-- Generated by graphviz version 2.40.1 (20161225.0304)
 -->
<!-- Title: a_graph Pages: 1 -->
<svg width="3859pt" height="200pt"
 viewBox="0.00 0.00 3859.00 200.00" xmlns="http://www.w3.org/2000/svg" xmlns:xlink="http://www.w3.org/1999/xlink">
<g id="graph0" class="graph" transform="scale(1 1) rotate(0) translate(4 196)">
<title>a_graph</title>
<polygon fill="#ffffff" stroke="transparent" points="-4,4 -4,-196 3855,-196 3855,4 -4,4"/>
<!-- T13639 -->
<g id="node1" class="node">
<title>T13639</title>
<polygon fill="none" stroke="#0058ad" points="3566,-162.5 3566,-191.5 3851,-191.5 3851,-162.5 3566,-162.5"/>
<text text-anchor="middle" x="3594.5" y="-173.3" font-family="Times,serif" font-size="14.00" fill="#0058ad">a 71 16</text>
<polyline fill="none" stroke="#0058ad" points="3623,-162.5 3623,-191.5 "/>
<text text-anchor="middle" x="3737" y="-173.3" font-family="Times,serif" font-size="14.00" fill="#0058ad">r 71 [1 4 2 3 5 6 10 8 9 7 11 12 13 16]</text>
</g>
<!-- T13643 -->
<g id="node2" class="node">
<title>T13643</title>
<polygon fill="none" stroke="#0058ad" points="0,-81.5 0,-110.5 3603,-110.5 3603,-81.5 0,-81.5"/>
<text text-anchor="middle" x="967" y="-92.3" font-family="Times,serif" font-size="14.00" fill="#0058ad">r 64 [1 2 3 4 5 6 7 8 9 10 11 12 13 14 15 16 18 17 20 21 19 23 22 24 25 26 27 28 29 31 30 32 33 34 35 36 37 38 39 40 41 42 43 44 45 47 46 48 50 49 51 53 52 54 55 56 57 58 59 60 61 62 63 64 65 66 67 68 70 69 71 72 73 75 74 76 77 79 78 80 81 82 83 84 85 86 88 87 89 90 91 93 92 94 95 96 97 98 99 100 102 103 104 105 106 107 108 109 110]</text>
<polyline fill="none" stroke="#0058ad" points="1934,-81.5 1934,-110.5 "/>
<text text-anchor="middle" x="1962.5" y="-92.3" font-family="Times,serif" font-size="14.00" fill="#0058ad">a 67 83</text>
<polyline fill="none" stroke="#0058ad" points="1991,-81.5 1991,-110.5 "/>
<text text-anchor="middle" x="2683" y="-92.3" font-family="Times,serif" font-size="14.00" fill="#0058ad">r 67 [2 3 4 5 1 6 8 7 10 11 9 12 13 14 15 16 17 19 20 21 18 22 23 24 25 26 27 29 28 30 31 32 33 34 36 35 37 38 39 40 41 42 43 44 45 46 47 48 49 50 51 52 53 55 54 56 57 58 59 60 61 62 63 65 66 67 68 69 70 72 73 74 75 76 77 78 79 80 81 82 83]</text>
<polyline fill="none" stroke="#0058ad" points="3375,-81.5 3375,-110.5 "/>
<text text-anchor="middle" x="3489" y="-92.3" font-family="Times,serif" font-size="14.00" fill="#0058ad">r 71 [1 4 2 3 5 6 10 8 9 7 11 12 13 16]</text>
</g>
<!-- T13639&#45;&gt;T13643 -->
<g id="edge1" class="edge">
<title>T13639:f0&#45;&gt;T13643:f3</title>
<path fill="none" stroke="#c000a5" d="M3565.5,-177C3524.2582,-177 3494.4671,-158.9294 3490.064,-121.0564"/>
<polygon fill="#c000a5" stroke="#c000a5" points="3493.5545,-120.7883 3489.5,-111 3486.5655,-121.1803 3493.5545,-120.7883"/>
<text text-anchor="middle" x="3503" y="-132.8" font-family="Times,serif" font-size="14.00" fill="#c000a5">wr</text>
</g>
<!-- T13649 -->
<g id="node3" class="node">
<title>T13649</title>
<polygon fill="none" stroke="#0058ad" points="2539,-.5 2539,-29.5 3322,-29.5 3322,-.5 2539,-.5"/>
<text text-anchor="middle" x="2687.5" y="-11.3" font-family="Times,serif" font-size="14.00" fill="#0058ad">r 69 [1 2 3 4 5 6 7 8 9 10 11 12 13 14 15 16 17 18]</text>
<polyline fill="none" stroke="#0058ad" points="2836,-.5 2836,-29.5 "/>
<text text-anchor="middle" x="2868" y="-11.3" font-family="Times,serif" font-size="14.00" fill="#0058ad">a 64 111</text>
<polyline fill="none" stroke="#0058ad" points="2900,-.5 2900,-29.5 "/>
<text text-anchor="middle" x="3005.5" y="-11.3" font-family="Times,serif" font-size="14.00" fill="#0058ad">r 71 [1 4 2 3 5 6 10 8 9 7 11 12 13]</text>
<polyline fill="none" stroke="#0058ad" points="3111,-.5 3111,-29.5 "/>
<text text-anchor="middle" x="3216.5" y="-11.3" font-family="Times,serif" font-size="14.00" fill="#0058ad">r 71 [1 4 2 3 5 6 10 8 9 7 11 12 13]</text>
</g>
<!-- T13643&#45;&gt;T13649 -->
<g id="edge2" class="edge">
<title>T13643:f0&#45;&gt;T13649:f1</title>
<path fill="none" stroke="#5b00c0" d="M966.5,-81C966.5,126.7903 2804.9048,-229.1207 2865.9456,-40.047"/>
<polygon fill="#5b00c0" stroke="#5b00c0" points="2869.4298,-40.4176 2867.5,-30 2862.5121,-39.3473 2869.4298,-40.4176"/>
<text text-anchor="middle" x="2866" y="-51.8" font-family="Times,serif" font-size="14.00" fill="#5b00c0">rw</text>
</g>
<!-- T13649&#45;&gt;T13639 -->
<g id="edge3" class="edge">
<title>T13649:f2&#45;&gt;T13639:f0</title>
<path fill="none" stroke="#5b00c0" d="M3005.5,-30C3005.5,-97.6821 3566.6888,-31.1783 3612.5,-81 3635.0237,-105.4955 3602.2431,-121.7093 3595.6259,-151.7373"/>
<polygon fill="#5b00c0" stroke="#5b00c0" points="3592.1115,-151.6779 3594.5,-162 3599.0697,-152.4413 3592.1115,-151.6779"/>
<text text-anchor="middle" x="3627" y="-92.3" font-family="Times,serif" font-size="14.00" fill="#5b00c0">rw</text>
</g>
</g>
</svg>
