<?xml version="1.0" encoding="UTF-8" standalone="no"?>
<!DOCTYPE svg PUBLIC "-//W3C//DTD SVG 1.1//EN"
 "http://www.w3.org/Graphics/SVG/1.1/DTD/svg11.dtd">
<!-- Generated by graphviz version 2.40.1 (20161225.0304)
 -->
<!-- Title: a_graph Pages: 1 -->
<svg width="3337pt" height="119pt"
 viewBox="0.00 0.00 3336.50 119.00" xmlns="http://www.w3.org/2000/svg" xmlns:xlink="http://www.w3.org/1999/xlink">
<g id="graph0" class="graph" transform="scale(1 1) rotate(0) translate(4 115)">
<title>a_graph</title>
<polygon fill="#ffffff" stroke="transparent" points="-4,4 -4,-115 3332.5,-115 3332.5,4 -4,4"/>
<!-- T11423 -->
<g id="node1" class="node">
<title>T11423</title>
<polygon fill="none" stroke="#0058ad" points="503.5,-81.5 503.5,-110.5 3328.5,-110.5 3328.5,-81.5 503.5,-81.5"/>
<text text-anchor="middle" x="678" y="-92.3" font-family="Times,serif" font-size="14.00" fill="#0058ad">r 60 [1 2 3 4 5 6 8 7 9 11 12 14 10 17 18 19 21 22 24 25 26]</text>
<polyline fill="none" stroke="#0058ad" points="852.5,-81.5 852.5,-110.5 "/>
<text text-anchor="middle" x="1642.5" y="-92.3" font-family="Times,serif" font-size="14.00" fill="#0058ad">r 59 [2 3 4 1 5 6 9 8 10 11 12 7 14 15 16 13 17 18 21 22 23 24 25 19 20 26 27 28 31 29 32 33 34 35 36 37 38 39 40 30 42 43 44 41 45 46 47 49 50 51 52 48 53 54 55 56 57 58 60 61 62 64 65 63 66 68 69 70 71 67 72 73 76 59 78 80 81 82 83 84 86 87 85 89 88 90 91 93 94 98 99 100]</text>
<polyline fill="none" stroke="#0058ad" points="2432.5,-81.5 2432.5,-110.5 "/>
<text text-anchor="middle" x="2852" y="-92.3" font-family="Times,serif" font-size="14.00" fill="#0058ad">r 37 [1 2 3 4 5 6 7 8 10 11 12 14 16 17 18 48 51 52 53 54 55 56 57 58 59 60 61 62 63 64 65 66 68 67 69 70 71 73 74 75 76 77 78 79 80 81 83 84 85]</text>
<polyline fill="none" stroke="#0058ad" points="3271.5,-81.5 3271.5,-110.5 "/>
<text text-anchor="middle" x="3300" y="-92.3" font-family="Times,serif" font-size="14.00" fill="#0058ad">a 59 95</text>
</g>
<!-- T11427 -->
<g id="node2" class="node">
<title>T11427</title>
<polygon fill="none" stroke="#0058ad" points="0,-.5 0,-29.5 3274,-29.5 3274,-.5 0,-.5"/>
<text text-anchor="middle" x="790" y="-11.3" font-family="Times,serif" font-size="14.00" fill="#0058ad">r 59 [2 3 4 1 5 6 9 8 10 11 12 7 14 15 16 13 17 18 21 22 23 24 25 19 20 26 27 28 31 29 32 33 34 35 36 37 38 39 40 30 42 43 44 41 45 46 47 49 50 51 52 48 53 54 55 56 57 58 60 61 62 64 65 63 66 68 69 70 71 67 72 73 76 59 78 80 81 82 83 84 86 87 85 89 88 90 91 93 94 98 99 100]</text>
<polyline fill="none" stroke="#0058ad" points="1580,-.5 1580,-29.5 "/>
<text text-anchor="middle" x="2370" y="-11.3" font-family="Times,serif" font-size="14.00" fill="#0058ad">r 59 [2 3 4 1 5 6 9 8 10 11 12 7 14 15 16 13 17 18 21 22 23 24 25 19 20 26 27 28 31 29 32 33 34 35 36 37 38 39 40 30 42 43 44 41 45 46 47 49 50 51 52 48 53 54 55 56 57 58 60 61 62 64 65 63 66 68 69 70 71 67 72 73 76 59 78 80 81 82 83 84 86 87 85 89 88 90 91 93 94 98 99 100]</text>
<polyline fill="none" stroke="#0058ad" points="3160,-.5 3160,-29.5 "/>
<text text-anchor="middle" x="3188.5" y="-11.3" font-family="Times,serif" font-size="14.00" fill="#0058ad">a 60 27</text>
<polyline fill="none" stroke="#0058ad" points="3217,-.5 3217,-29.5 "/>
<text text-anchor="middle" x="3245.5" y="-11.3" font-family="Times,serif" font-size="14.00" fill="#0058ad">a 53 69</text>
</g>
<!-- T11423&#45;&gt;T11427 -->
<g id="edge1" class="edge">
<title>T11423:f0&#45;&gt;T11427:f2</title>
<path fill="none" stroke="#5b00c0" d="M678,-81C678,-64.1976 3008.4564,-48.6234 3179.1441,-31.9109"/>
<polygon fill="#5b00c0" stroke="#5b00c0" points="3179.8491,-35.3395 3189,-30 3178.5166,-28.4675 3179.8491,-35.3395"/>
<text text-anchor="middle" x="2454.5" y="-51.8" font-family="Times,serif" font-size="14.00" fill="#5b00c0">rw</text>
</g>
<!-- T11427&#45;&gt;T11423 -->
<g id="edge2" class="edge">
<title>T11427:f0&#45;&gt;T11423:f3</title>
<path fill="none" stroke="#5b00c0" d="M790,-30C790,-41.6396 2454.3641,-47.7074 2466,-48 2555.2695,-50.245 3245.8755,7.2211 3297.0085,-71.3039"/>
<polygon fill="#5b00c0" stroke="#5b00c0" points="3293.7074,-72.4763 3300,-81 3300.3963,-70.4126 3293.7074,-72.4763"/>
<text text-anchor="middle" x="3293.5" y="-51.8" font-family="Times,serif" font-size="14.00" fill="#5b00c0">rw</text>
</g>
</g>
</svg>
