<?xml version="1.0" encoding="UTF-8" standalone="no"?>
<!DOCTYPE svg PUBLIC "-//W3C//DTD SVG 1.1//EN"
 "http://www.w3.org/Graphics/SVG/1.1/DTD/svg11.dtd">
<!-- Generated by graphviz version 2.40.1 (20161225.0304)
 -->
<!-- Title: a_graph Pages: 1 -->
<svg width="1712pt" height="119pt"
 viewBox="0.00 0.00 1712.00 119.00" xmlns="http://www.w3.org/2000/svg" xmlns:xlink="http://www.w3.org/1999/xlink">
<g id="graph0" class="graph" transform="scale(1 1) rotate(0) translate(4 115)">
<title>a_graph</title>
<polygon fill="#ffffff" stroke="transparent" points="-4,4 -4,-115 1708,-115 1708,4 -4,4"/>
<!-- T10633 -->
<g id="node1" class="node">
<title>T10633</title>
<polygon fill="none" stroke="#0058ad" points="0,-81.5 0,-110.5 1704,-110.5 1704,-81.5 0,-81.5"/>
<text text-anchor="middle" x="795" y="-92.3" font-family="Times,serif" font-size="14.00" fill="#0058ad">r 55 [1 7 5 6 13 15 14 16 17 18 21 22 19 20 23 24 25 26 28 29 30 31 32 33 34 35 27 37 38 39 40 41 42 36 43 44 45 46 47 48 49 52 50 51 53 54 55 56 58 59 57 61 62 63 64 65 66 67 68 60 69 71 72 70 73 75 76 77 78 79 80 81 82 83 84 85 86 87 88 74 89 90 91 93 92 94 95 96 97 98 99]</text>
<polyline fill="none" stroke="#0058ad" points="1590,-81.5 1590,-110.5 "/>
<text text-anchor="middle" x="1618.5" y="-92.3" font-family="Times,serif" font-size="14.00" fill="#0058ad">a 56 22</text>
<polyline fill="none" stroke="#0058ad" points="1647,-81.5 1647,-110.5 "/>
<text text-anchor="middle" x="1675.5" y="-92.3" font-family="Times,serif" font-size="14.00" fill="#0058ad">a 57 25</text>
</g>
<!-- T10631 -->
<g id="node2" class="node">
<title>T10631</title>
<polygon fill="none" stroke="#0058ad" points="755,-.5 755,-29.5 1581,-29.5 1581,-.5 755,-.5"/>
<text text-anchor="middle" x="929.5" y="-11.3" font-family="Times,serif" font-size="14.00" fill="#0058ad">r 56 [1 2 3 4 5 6 7 8 9 11 10 12 13 14 15 16 17 18 19 20 21]</text>
<polyline fill="none" stroke="#0058ad" points="1104,-.5 1104,-29.5 "/>
<text text-anchor="middle" x="1278.5" y="-11.3" font-family="Times,serif" font-size="14.00" fill="#0058ad">r 56 [1 2 3 4 5 6 7 8 9 11 10 12 13 14 15 16 17 18 19 20 21]</text>
<polyline fill="none" stroke="#0058ad" points="1453,-.5 1453,-29.5 "/>
<text text-anchor="middle" x="1485" y="-11.3" font-family="Times,serif" font-size="14.00" fill="#0058ad">a 55 100</text>
<polyline fill="none" stroke="#0058ad" points="1517,-.5 1517,-29.5 "/>
<text text-anchor="middle" x="1549" y="-11.3" font-family="Times,serif" font-size="14.00" fill="#0058ad">a 55 101</text>
</g>
<!-- T10633&#45;&gt;T10631 -->
<g id="edge1" class="edge">
<title>T10633:f0&#45;&gt;T10631:f2</title>
<path fill="none" stroke="#5b00c0" d="M795,-81C795,-63.0948 1393.8884,-50.9675 1475.7677,-33.8523"/>
<polygon fill="#5b00c0" stroke="#5b00c0" points="1477.119,-37.081 1485,-30 1474.4234,-30.6208 1477.119,-37.081"/>
<text text-anchor="middle" x="1288.5" y="-51.8" font-family="Times,serif" font-size="14.00" fill="#5b00c0">rw</text>
</g>
<!-- T10631&#45;&gt;T10633 -->
<g id="edge2" class="edge">
<title>T10631:f0&#45;&gt;T10633:f1</title>
<path fill="none" stroke="#5b00c0" d="M929,-30C929,-50.6354 1279.4239,-46.4377 1300,-48 1438.5167,-58.517 1610.0405,55.5086 1618.6614,-70.6448"/>
<polygon fill="#5b00c0" stroke="#5b00c0" points="1615.1749,-71.1198 1619,-81 1622.1712,-70.8909 1615.1749,-71.1198"/>
<text text-anchor="middle" x="1624.5" y="-51.8" font-family="Times,serif" font-size="14.00" fill="#5b00c0">rw</text>
</g>
</g>
</svg>
