<?xml version="1.0" encoding="UTF-8" standalone="no"?>
<!DOCTYPE svg PUBLIC "-//W3C//DTD SVG 1.1//EN"
 "http://www.w3.org/Graphics/SVG/1.1/DTD/svg11.dtd">
<!-- Generated by graphviz version 2.40.1 (20161225.0304)
 -->
<!-- Title: a_graph Pages: 1 -->
<svg width="381pt" height="119pt"
 viewBox="0.00 0.00 381.00 119.00" xmlns="http://www.w3.org/2000/svg" xmlns:xlink="http://www.w3.org/1999/xlink">
<g id="graph0" class="graph" transform="scale(1 1) rotate(0) translate(4 115)">
<title>a_graph</title>
<polygon fill="#ffffff" stroke="transparent" points="-4,4 -4,-115 377,-115 377,4 -4,4"/>
<!-- T19309 -->
<g id="node1" class="node">
<title>T19309</title>
<polygon fill="none" stroke="#0058ad" points="53,-81.5 53,-110.5 373,-110.5 373,-81.5 53,-81.5"/>
<text text-anchor="middle" x="78" y="-92.3" font-family="Times,serif" font-size="14.00" fill="#0058ad">a 99 4</text>
<polyline fill="none" stroke="#0058ad" points="103,-81.5 103,-110.5 "/>
<text text-anchor="middle" x="128" y="-92.3" font-family="Times,serif" font-size="14.00" fill="#0058ad">a 99 5</text>
<polyline fill="none" stroke="#0058ad" points="153,-81.5 153,-110.5 "/>
<text text-anchor="middle" x="208" y="-92.3" font-family="Times,serif" font-size="14.00" fill="#0058ad">r 97 [1 2 3 4 5 6]</text>
<polyline fill="none" stroke="#0058ad" points="263,-81.5 263,-110.5 "/>
<text text-anchor="middle" x="318" y="-92.3" font-family="Times,serif" font-size="14.00" fill="#0058ad">r 97 [1 2 3 4 5 6]</text>
</g>
<!-- T19311 -->
<g id="node2" class="node">
<title>T19311</title>
<polygon fill="none" stroke="#0058ad" points="0,-.5 0,-29.5 296,-29.5 296,-.5 0,-.5"/>
<text text-anchor="middle" x="25" y="-11.3" font-family="Times,serif" font-size="14.00" fill="#0058ad">a 97 7</text>
<polyline fill="none" stroke="#0058ad" points="50,-.5 50,-29.5 "/>
<text text-anchor="middle" x="78.5" y="-11.3" font-family="Times,serif" font-size="14.00" fill="#0058ad">a 95 41</text>
<polyline fill="none" stroke="#0058ad" points="107,-.5 107,-29.5 "/>
<text text-anchor="middle" x="167.5" y="-11.3" font-family="Times,serif" font-size="14.00" fill="#0058ad">r 97 [1 2 3 4 5 6 7]</text>
<polyline fill="none" stroke="#0058ad" points="228,-.5 228,-29.5 "/>
<text text-anchor="middle" x="262" y="-11.3" font-family="Times,serif" font-size="14.00" fill="#0058ad">r 99 [1 2]</text>
</g>
<!-- T19309&#45;&gt;T19311 -->
<g id="edge1" class="edge">
<title>T19309:f2&#45;&gt;T19311:f0</title>
<path fill="none" stroke="#5b00c0" d="M208,-81C208,-39.2293 160.2236,-59.2628 120,-48 102.7845,-43.1796 48.4505,-48.7944 30.6833,-38.4404"/>
<polygon fill="#5b00c0" stroke="#5b00c0" points="33.4885,-36.34 25,-30 27.6821,-40.2497 33.4885,-36.34"/>
<text text-anchor="middle" x="210.5" y="-51.8" font-family="Times,serif" font-size="14.00" fill="#5b00c0">rw</text>
</g>
<!-- T19311&#45;&gt;T19309 -->
<g id="edge2" class="edge">
<title>T19311:f3&#45;&gt;T19309:f0</title>
<path fill="none" stroke="#5b00c0" d="M262,-30C262,-66.0007 131.9386,-29.592 101,-48 88.9971,-55.1415 81.7106,-60.3545 79.0972,-70.818"/>
<polygon fill="#5b00c0" stroke="#5b00c0" points="75.5916,-70.6825 78,-81 82.5513,-71.4326 75.5916,-70.6825"/>
<text text-anchor="middle" x="108.5" y="-51.8" font-family="Times,serif" font-size="14.00" fill="#5b00c0">rw</text>
</g>
</g>
</svg>
