<?xml version="1.0" encoding="UTF-8" standalone="no"?>
<!DOCTYPE svg PUBLIC "-//W3C//DTD SVG 1.1//EN"
 "http://www.w3.org/Graphics/SVG/1.1/DTD/svg11.dtd">
<!-- Generated by graphviz version 2.40.1 (20161225.0304)
 -->
<!-- Title: a_graph Pages: 1 -->
<svg width="4257pt" height="200pt"
 viewBox="0.00 0.00 4257.00 200.00" xmlns="http://www.w3.org/2000/svg" xmlns:xlink="http://www.w3.org/1999/xlink">
<g id="graph0" class="graph" transform="scale(1 1) rotate(0) translate(4 196)">
<title>a_graph</title>
<polygon fill="#ffffff" stroke="transparent" points="-4,4 -4,-196 4253,-196 4253,4 -4,4"/>
<!-- T18521 -->
<g id="node1" class="node">
<title>T18521</title>
<polygon fill="none" stroke="#0058ad" points="1390,-162.5 1390,-191.5 1511,-191.5 1511,-162.5 1390,-162.5"/>
<text text-anchor="middle" x="1422" y="-173.3" font-family="Times,serif" font-size="14.00" fill="#0058ad">a 89 110</text>
<polyline fill="none" stroke="#0058ad" points="1454,-162.5 1454,-191.5 "/>
<text text-anchor="middle" x="1482.5" y="-173.3" font-family="Times,serif" font-size="14.00" fill="#0058ad">a 93 31</text>
</g>
<!-- T18529 -->
<g id="node2" class="node">
<title>T18529</title>
<polygon fill="none" stroke="#0058ad" points="1538,-81.5 1538,-110.5 4249,-110.5 4249,-81.5 1538,-81.5"/>
<text text-anchor="middle" x="1798.5" y="-92.3" font-family="Times,serif" font-size="14.00" fill="#0058ad">r 93 [1 2 3 4 5 6 7 8 9 10 11 12 15 16 13 14 18 17 19 20 21 23 24 25 26 27 28 29 22 30 31]</text>
<polyline fill="none" stroke="#0058ad" points="2059,-81.5 2059,-110.5 "/>
<text text-anchor="middle" x="2147" y="-92.3" font-family="Times,serif" font-size="14.00" fill="#0058ad">r 94 [2 1 3 4 5 6 7 8 9 10 11]</text>
<polyline fill="none" stroke="#0058ad" points="2235,-81.5 2235,-110.5 "/>
<text text-anchor="middle" x="2323" y="-92.3" font-family="Times,serif" font-size="14.00" fill="#0058ad">r 94 [2 1 3 4 5 6 7 8 9 10 11]</text>
<polyline fill="none" stroke="#0058ad" points="2411,-81.5 2411,-110.5 "/>
<text text-anchor="middle" x="3330" y="-92.3" font-family="Times,serif" font-size="14.00" fill="#0058ad">r 89 [2 3 1 4 5 7 8 6 9 10 11 12 13 14 15 17 18 19 16 20 21 22 23 24 25 27 26 28 29 30 31 33 36 37 39 38 40 41 42 43 44 46 45 48 49 47 50 52 53 51 54 55 56 57 58 59 60 61 62 63 64 65 66 67 70 68 71 69 72 73 74 76 77 80 81 83 84 85 86 87 89 88 90 91 92 93 94 95 96 97 98 101 102 100 103 99 105 106 107 108 109 104 110]</text>
</g>
<!-- T18521&#45;&gt;T18529 -->
<g id="edge1" class="edge">
<title>T18521:f1&#45;&gt;T18529:f0</title>
<path fill="none" stroke="#c000a5" d="M1511.5,-177C1544.8784,-177 1510.1195,-113.872 1527.5282,-99.0764"/>
<polygon fill="#c000a5" stroke="#c000a5" points="1528.9762,-102.2925 1537.5,-96 1526.9126,-95.6036 1528.9762,-102.2925"/>
<text text-anchor="middle" x="1534" y="-132.8" font-family="Times,serif" font-size="14.00" fill="#c000a5">wr</text>
</g>
<!-- T18523 -->
<g id="node3" class="node">
<title>T18523</title>
<polygon fill="none" stroke="#0058ad" points="0,-.5 0,-29.5 2375,-29.5 2375,-.5 0,-.5"/>
<text text-anchor="middle" x="907" y="-11.3" font-family="Times,serif" font-size="14.00" fill="#0058ad">r 89 [2 3 1 4 5 7 8 6 9 10 11 12 13 14 15 17 18 19 16 20 21 22 23 24 25 27 26 28 29 30 31 33 36 37 39 38 40 41 42 43 44 46 45 48 49 47 50 52 53 51 54 55 56 57 58 59 60 61 62 63 64 65 66 67 70 68 71 69 72 73 74 76 77 80 81 83 84 85 86 87 89 88 90 91 92 93 94 95 96 97 98 101 102 100 103 99 105 106 107 108 109 104]</text>
<polyline fill="none" stroke="#0058ad" points="1814,-.5 1814,-29.5 "/>
<text text-anchor="middle" x="2066" y="-11.3" font-family="Times,serif" font-size="14.00" fill="#0058ad">r 93 [1 2 3 4 5 6 7 8 9 10 11 12 15 16 13 14 18 17 19 20 21 23 24 25 26 27 28 29 22 30]</text>
<polyline fill="none" stroke="#0058ad" points="2318,-.5 2318,-29.5 "/>
<text text-anchor="middle" x="2346.5" y="-11.3" font-family="Times,serif" font-size="14.00" fill="#0058ad">a 94 12</text>
</g>
<!-- T18529&#45;&gt;T18523 -->
<g id="edge2" class="edge">
<title>T18529:f1&#45;&gt;T18523:f2</title>
<path fill="none" stroke="#5b00c0" d="M2146.5,-81C2146.5,6.9709 2330.4302,-111.2441 2345.5182,-40.1869"/>
<polygon fill="#5b00c0" stroke="#5b00c0" points="2349.0245,-40.2897 2346.5,-30 2342.0567,-39.6181 2349.0245,-40.2897"/>
<text text-anchor="middle" x="2348" y="-51.8" font-family="Times,serif" font-size="14.00" fill="#5b00c0">rw</text>
</g>
<!-- T18523&#45;&gt;T18521 -->
<g id="edge3" class="edge">
<title>T18523:f0&#45;&gt;T18521:f0</title>
<path fill="none" stroke="#5b00c0" d="M906.5,-30C906.5,-139.0169 1256.6005,-174.9665 1379.3599,-176.9153"/>
<polygon fill="#5b00c0" stroke="#5b00c0" points="1379.4711,-180.4162 1389.5,-177 1379.5296,-173.4165 1379.4711,-180.4162"/>
<text text-anchor="middle" x="992" y="-92.3" font-family="Times,serif" font-size="14.00" fill="#5b00c0">rw</text>
</g>
</g>
</svg>
