<?xml version="1.0" encoding="UTF-8" standalone="no"?>
<!DOCTYPE svg PUBLIC "-//W3C//DTD SVG 1.1//EN"
 "http://www.w3.org/Graphics/SVG/1.1/DTD/svg11.dtd">
<!-- Generated by graphviz version 2.40.1 (20161225.0304)
 -->
<!-- Title: a_graph Pages: 1 -->
<svg width="2800pt" height="119pt"
 viewBox="0.00 0.00 2800.00 119.00" xmlns="http://www.w3.org/2000/svg" xmlns:xlink="http://www.w3.org/1999/xlink">
<g id="graph0" class="graph" transform="scale(1 1) rotate(0) translate(4 115)">
<title>a_graph</title>
<polygon fill="#ffffff" stroke="transparent" points="-4,4 -4,-115 2796,-115 2796,4 -4,4"/>
<!-- T12895 -->
<g id="node1" class="node">
<title>T12895</title>
<polygon fill="none" stroke="#0058ad" points="0,-81.5 0,-110.5 2792,-110.5 2792,-81.5 0,-81.5"/>
<text text-anchor="middle" x="903.5" y="-92.3" font-family="Times,serif" font-size="14.00" fill="#0058ad">r 63 [2 3 1 4 5 6 7 8 9 10 11 12 13 14 15 16 17 18 19 20 21 22 24 25 26 23 27 28 30 29 31 32 33 36 35 37 38 39 40 44 45 46 47 48 52 53 51 54 55 56 57 58 59 60 61 62 63 64 65 67 68 69 66 70 71 72 73 74 75 77 76 78 79 80 81 82 83 84 85 86 87 88 90 91 89 92 93 95 94 96 97 98 99 101 103 102 100 105 104 106 108 109]</text>
<polyline fill="none" stroke="#0058ad" points="1807,-81.5 1807,-110.5 "/>
<text text-anchor="middle" x="1835.5" y="-92.3" font-family="Times,serif" font-size="14.00" fill="#0058ad">a 64 54</text>
<polyline fill="none" stroke="#0058ad" points="1864,-81.5 1864,-110.5 "/>
<text text-anchor="middle" x="1886" y="-92.3" font-family="Times,serif" font-size="14.00" fill="#0058ad">a 0 4</text>
<polyline fill="none" stroke="#0058ad" points="1908,-81.5 1908,-110.5 "/>
<text text-anchor="middle" x="2350" y="-92.3" font-family="Times,serif" font-size="14.00" fill="#0058ad">r 66 [1 2 3 4 7 5 6 8 9 10 11 12 13 14 15 16 17 18 19 22 20 21 23 24 26 27 25 28 29 30 31 33 34 35 36 37 38 39 32 40 41 42 46 47 49 43 44 45 50 51 52 53]</text>
</g>
<!-- T12893 -->
<g id="node2" class="node">
<title>T12893</title>
<polygon fill="none" stroke="#0058ad" points="680.5,-.5 680.5,-29.5 2603.5,-29.5 2603.5,-.5 680.5,-.5"/>
<text text-anchor="middle" x="712.5" y="-11.3" font-family="Times,serif" font-size="14.00" fill="#0058ad">a 63 107</text>
<polyline fill="none" stroke="#0058ad" points="744.5,-.5 744.5,-29.5 "/>
<text text-anchor="middle" x="773" y="-11.3" font-family="Times,serif" font-size="14.00" fill="#0058ad">a 66 48</text>
<polyline fill="none" stroke="#0058ad" points="801.5,-.5 801.5,-29.5 "/>
<text text-anchor="middle" x="1252" y="-11.3" font-family="Times,serif" font-size="14.00" fill="#0058ad">r 66 [1 2 3 4 7 5 6 8 9 10 11 12 13 14 15 16 17 18 19 22 20 21 23 24 26 27 25 28 29 30 31 33 34 35 36 37 38 39 32 40 41 42 46 47 49 43 44 45 50 51 52 53 48]</text>
<polyline fill="none" stroke="#0058ad" points="1702.5,-.5 1702.5,-29.5 "/>
<text text-anchor="middle" x="2153" y="-11.3" font-family="Times,serif" font-size="14.00" fill="#0058ad">r 64 [1 2 3 4 5 6 7 8 9 10 11 12 13 14 15 16 18 17 20 21 19 23 22 24 25 26 27 28 29 31 30 32 33 34 35 36 37 38 39 40 41 42 43 44 45 47 46 48 50 49 51 53 52]</text>
</g>
<!-- T12895&#45;&gt;T12893 -->
<g id="edge1" class="edge">
<title>T12895:f0&#45;&gt;T12893:f0</title>
<path fill="none" stroke="#5b00c0" d="M903,-81C903,3.0876 728.0614,-107.5368 713.0276,-40.1823"/>
<polygon fill="#5b00c0" stroke="#5b00c0" points="716.4865,-39.598 712,-30 709.5219,-40.3009 716.4865,-39.598"/>
<text text-anchor="middle" x="905.5" y="-51.8" font-family="Times,serif" font-size="14.00" fill="#5b00c0">rw</text>
</g>
<!-- T12893&#45;&gt;T12895 -->
<g id="edge2" class="edge">
<title>T12893:f3&#45;&gt;T12895:f1</title>
<path fill="none" stroke="#5b00c0" d="M2153,-30C2153,-169.0773 1851.8933,50.0405 1836.6027,-70.8472"/>
<polygon fill="#5b00c0" stroke="#5b00c0" points="1833.0988,-70.8101 1836,-81 1840.0865,-71.225 1833.0988,-70.8101"/>
<text text-anchor="middle" x="2156.5" y="-51.8" font-family="Times,serif" font-size="14.00" fill="#5b00c0">rw</text>
</g>
</g>
</svg>
