<?xml version="1.0" encoding="UTF-8" standalone="no"?>
<!DOCTYPE svg PUBLIC "-//W3C//DTD SVG 1.1//EN"
 "http://www.w3.org/Graphics/SVG/1.1/DTD/svg11.dtd">
<!-- Generated by graphviz version 2.40.1 (20161225.0304)
 -->
<!-- Title: a_graph Pages: 1 -->
<svg width="374pt" height="119pt"
 viewBox="0.00 0.00 373.50 119.00" xmlns="http://www.w3.org/2000/svg" xmlns:xlink="http://www.w3.org/1999/xlink">
<g id="graph0" class="graph" transform="scale(1 1) rotate(0) translate(4 115)">
<title>a_graph</title>
<polygon fill="#ffffff" stroke="transparent" points="-4,4 -4,-115 369.5,-115 369.5,4 -4,4"/>
<!-- T14847 -->
<g id="node1" class="node">
<title>T14847</title>
<polygon fill="none" stroke="#0058ad" points="0,-81.5 0,-110.5 260,-110.5 260,-81.5 0,-81.5"/>
<text text-anchor="middle" x="25" y="-92.3" font-family="Times,serif" font-size="14.00" fill="#0058ad">a 78 6</text>
<polyline fill="none" stroke="#0058ad" points="50,-81.5 50,-110.5 "/>
<text text-anchor="middle" x="75" y="-92.3" font-family="Times,serif" font-size="14.00" fill="#0058ad">a 78 7</text>
<polyline fill="none" stroke="#0058ad" points="100,-81.5 100,-110.5 "/>
<text text-anchor="middle" x="125" y="-92.3" font-family="Times,serif" font-size="14.00" fill="#0058ad">a 78 8</text>
<polyline fill="none" stroke="#0058ad" points="150,-81.5 150,-110.5 "/>
<text text-anchor="middle" x="205" y="-92.3" font-family="Times,serif" font-size="14.00" fill="#0058ad">r 77 [1 2 3 4 5 7]</text>
</g>
<!-- T14851 -->
<g id="node2" class="node">
<title>T14851</title>
<polygon fill="none" stroke="#0058ad" points="58.5,-.5 58.5,-29.5 365.5,-29.5 365.5,-.5 58.5,-.5"/>
<text text-anchor="middle" x="98" y="-11.3" font-family="Times,serif" font-size="14.00" fill="#0058ad">r 78 [1 2 3]</text>
<polyline fill="none" stroke="#0058ad" points="137.5,-.5 137.5,-29.5 "/>
<text text-anchor="middle" x="162.5" y="-11.3" font-family="Times,serif" font-size="14.00" fill="#0058ad">a 77 6</text>
<polyline fill="none" stroke="#0058ad" points="187.5,-.5 187.5,-29.5 "/>
<text text-anchor="middle" x="248" y="-11.3" font-family="Times,serif" font-size="14.00" fill="#0058ad">r 77 [1 2 3 4 5 7 6]</text>
<polyline fill="none" stroke="#0058ad" points="308.5,-.5 308.5,-29.5 "/>
<text text-anchor="middle" x="337" y="-11.3" font-family="Times,serif" font-size="14.00" fill="#0058ad">a 73 83</text>
</g>
<!-- T14847&#45;&gt;T14851 -->
<g id="edge1" class="edge">
<title>T14847:f3&#45;&gt;T14851:f1</title>
<path fill="none" stroke="#5b00c0" d="M205,-81C205,-55.2895 172.6634,-58.1137 164.074,-39.9828"/>
<polygon fill="#5b00c0" stroke="#5b00c0" points="167.461,-39.079 162,-30 160.6074,-40.5029 167.461,-39.079"/>
<text text-anchor="middle" x="202.5" y="-51.8" font-family="Times,serif" font-size="14.00" fill="#5b00c0">rw</text>
</g>
<!-- T14851&#45;&gt;T14847 -->
<g id="edge2" class="edge">
<title>T14851:f0&#45;&gt;T14847:f0</title>
<path fill="none" stroke="#5b00c0" d="M58,-15C28.6633,-15 25.4056,-41.5697 25.0448,-70.649"/>
<polygon fill="#5b00c0" stroke="#5b00c0" points="21.5434,-70.9849 25,-81 28.5434,-71.0153 21.5434,-70.9849"/>
<text text-anchor="middle" x="34.5" y="-51.8" font-family="Times,serif" font-size="14.00" fill="#5b00c0">rw</text>
</g>
</g>
</svg>
