<?xml version="1.0" encoding="UTF-8" standalone="no"?>
<!DOCTYPE svg PUBLIC "-//W3C//DTD SVG 1.1//EN"
 "http://www.w3.org/Graphics/SVG/1.1/DTD/svg11.dtd">
<!-- Generated by graphviz version 2.40.1 (20161225.0304)
 -->
<!-- Title: a_graph Pages: 1 -->
<svg width="2046pt" height="200pt"
 viewBox="0.00 0.00 2045.50 200.00" xmlns="http://www.w3.org/2000/svg" xmlns:xlink="http://www.w3.org/1999/xlink">
<g id="graph0" class="graph" transform="scale(1 1) rotate(0) translate(4 196)">
<title>a_graph</title>
<polygon fill="#ffffff" stroke="transparent" points="-4,4 -4,-196 2041.5,-196 2041.5,4 -4,4"/>
<!-- T11745 -->
<g id="node1" class="node">
<title>T11745</title>
<polygon fill="none" stroke="#0058ad" points="1249.5,-162.5 1249.5,-191.5 1420.5,-191.5 1420.5,-162.5 1249.5,-162.5"/>
<text text-anchor="middle" x="1278" y="-173.3" font-family="Times,serif" font-size="14.00" fill="#0058ad">a 61 78</text>
<polyline fill="none" stroke="#0058ad" points="1306.5,-162.5 1306.5,-191.5 "/>
<text text-anchor="middle" x="1335" y="-173.3" font-family="Times,serif" font-size="14.00" fill="#0058ad">a 61 79</text>
<polyline fill="none" stroke="#0058ad" points="1363.5,-162.5 1363.5,-191.5 "/>
<text text-anchor="middle" x="1392" y="-173.3" font-family="Times,serif" font-size="14.00" fill="#0058ad">a 61 80</text>
</g>
<!-- T11747 -->
<g id="node2" class="node">
<title>T11747</title>
<polygon fill="none" stroke="#0058ad" points="700.5,-81.5 700.5,-110.5 2037.5,-110.5 2037.5,-81.5 700.5,-81.5"/>
<text text-anchor="middle" x="1340.5" y="-92.3" font-family="Times,serif" font-size="14.00" fill="#0058ad">r 60 [1 2 3 4 5 6 8 7 9 11 12 14 10 17 18 19 21 22 24 25 26 27 29 28 30 31 32 33 34 35 36 37 38 39 40 42 43 41 44 45 47 48 49 50 52 53 46 54 51 55 56 58 57 59 60 61 62 63 64 65 66 67 68 69 70 71 72 73 74 75 76 78 79 77 80]</text>
<polyline fill="none" stroke="#0058ad" points="1980.5,-81.5 1980.5,-110.5 "/>
<text text-anchor="middle" x="2009" y="-92.3" font-family="Times,serif" font-size="14.00" fill="#0058ad">a 61 81</text>
</g>
<!-- T11745&#45;&gt;T11747 -->
<g id="edge1" class="edge">
<title>T11745:f2&#45;&gt;T11747:f1</title>
<path fill="none" stroke="#c02700" d="M1421,-177C1483.4051,-177 1957.1356,-176.769 2005.0879,-120.5175"/>
<polygon fill="#c02700" stroke="#c02700" points="2008.4354,-121.5798 2009,-111 2001.961,-118.9185 2008.4354,-121.5798"/>
<text text-anchor="middle" x="1998" y="-132.8" font-family="Times,serif" font-size="14.00" fill="#c02700">ww</text>
</g>
<!-- T11751 -->
<g id="node3" class="node">
<title>T11751</title>
<polygon fill="none" stroke="#0058ad" points="0,-.5 0,-29.5 1486,-29.5 1486,-.5 0,-.5"/>
<text text-anchor="middle" x="657.5" y="-11.3" font-family="Times,serif" font-size="14.00" fill="#0058ad">r 61 [1 2 3 4 5 6 7 8 9 10 11 12 14 15 16 13 17 18 19 20 21 22 24 23 26 27 29 28 30 31 32 33 25 36 34 35 37 38 39 40 41 42 43 44 45 46 49 50 51 47 48 52 53 54 55 56 57 58 59 60 61 63 64 65 66 62 67 69 70 71 68 72 73 74 75 76 77]</text>
<polyline fill="none" stroke="#0058ad" points="1315,-.5 1315,-29.5 "/>
<text text-anchor="middle" x="1343.5" y="-11.3" font-family="Times,serif" font-size="14.00" fill="#0058ad">a 60 81</text>
<polyline fill="none" stroke="#0058ad" points="1372,-.5 1372,-29.5 "/>
<text text-anchor="middle" x="1400.5" y="-11.3" font-family="Times,serif" font-size="14.00" fill="#0058ad">a 60 82</text>
<polyline fill="none" stroke="#0058ad" points="1429,-.5 1429,-29.5 "/>
<text text-anchor="middle" x="1457.5" y="-11.3" font-family="Times,serif" font-size="14.00" fill="#0058ad">a 60 83</text>
</g>
<!-- T11747&#45;&gt;T11751 -->
<g id="edge2" class="edge">
<title>T11747:f0&#45;&gt;T11751:f1</title>
<path fill="none" stroke="#5b00c0" d="M1340,-81C1340,-62.1715 1342.7432,-55.1447 1343.6861,-40.373"/>
<polygon fill="#5b00c0" stroke="#5b00c0" points="1347.1959,-40.1013 1344,-30 1340.1991,-39.8895 1347.1959,-40.1013"/>
<text text-anchor="middle" x="1349.5" y="-51.8" font-family="Times,serif" font-size="14.00" fill="#5b00c0">rw</text>
</g>
<!-- T11751&#45;&gt;T11745 -->
<g id="edge3" class="edge">
<title>T11751:f0&#45;&gt;T11745:f0</title>
<path fill="none" stroke="#5b00c0" d="M657,-30C657,-66.9771 648.3849,-86.409 676,-111 721.8518,-151.8306 1146.9199,-175.0025 1238.8865,-176.8766"/>
<polygon fill="#5b00c0" stroke="#5b00c0" points="1238.958,-180.3777 1249,-177 1239.0435,-173.3782 1238.958,-180.3777"/>
<text text-anchor="middle" x="683.5" y="-92.3" font-family="Times,serif" font-size="14.00" fill="#5b00c0">rw</text>
</g>
</g>
</svg>
