<?xml version="1.0" encoding="UTF-8" standalone="no"?>
<!DOCTYPE svg PUBLIC "-//W3C//DTD SVG 1.1//EN"
 "http://www.w3.org/Graphics/SVG/1.1/DTD/svg11.dtd">
<!-- Generated by graphviz version 2.40.1 (20161225.0304)
 -->
<!-- Title: a_graph Pages: 1 -->
<svg width="3904pt" height="119pt"
 viewBox="0.00 0.00 3904.00 119.00" xmlns="http://www.w3.org/2000/svg" xmlns:xlink="http://www.w3.org/1999/xlink">
<g id="graph0" class="graph" transform="scale(1 1) rotate(0) translate(4 115)">
<title>a_graph</title>
<polygon fill="#ffffff" stroke="transparent" points="-4,4 -4,-115 3900,-115 3900,4 -4,4"/>
<!-- T17143 -->
<g id="node1" class="node">
<title>T17143</title>
<polygon fill="none" stroke="#0058ad" points="0,-81.5 0,-110.5 3604,-110.5 3604,-81.5 0,-81.5"/>
<text text-anchor="middle" x="1025" y="-92.3" font-family="Times,serif" font-size="14.00" fill="#0058ad">r 87 [1 3 2 4 5 6 7 9 10 11 8 13 14 15 16 12 17 18 20 22 23 24 21 25 26 27 28 29 30 19 31 32 33 34 35 36 37 38 39 40 42 43 44 45 41 47 48 49 50 46 52 51 53 54 55 56 59 60 62 57 58 61 64 63 65 66 67 68 69 70 71 72 73 74 75 79 78 81 77 87 88 89 90 86 92 93 95 98 97 100 101 102 103 104 105 106 107 108 109 110 111 112 113 114 117 115 116 120 121 122 123]</text>
<polyline fill="none" stroke="#0058ad" points="2050,-81.5 2050,-110.5 "/>
<text text-anchor="middle" x="2078.5" y="-92.3" font-family="Times,serif" font-size="14.00" fill="#0058ad">a 85 96</text>
<polyline fill="none" stroke="#0058ad" points="2107,-81.5 2107,-110.5 "/>
<text text-anchor="middle" x="2855.5" y="-92.3" font-family="Times,serif" font-size="14.00" fill="#0058ad">r 85 [3 6 7 9 8 10 11 12 13 14 15 16 17 18 19 20 21 22 23 24 25 26 27 28 29 31 30 32 33 34 35 36 37 38 40 41 42 39 44 45 46 43 48 47 49 50 51 52 54 53 55 56 57 58 59 60 62 61 65 64 63 66 67 68 69 72 73 76 77 79 81 82 83 84 85 86 87 88 89 91 90 93 94 92 95 96]</text>
</g>
<!-- T17141 -->
<g id="node2" class="node">
<title>T17141</title>
<polygon fill="none" stroke="#0058ad" points="1170,-.5 1170,-29.5 3896,-29.5 3896,-.5 1170,-.5"/>
<text text-anchor="middle" x="1202" y="-11.3" font-family="Times,serif" font-size="14.00" fill="#0058ad">a 87 124</text>
<polyline fill="none" stroke="#0058ad" points="1234,-.5 1234,-29.5 "/>
<text text-anchor="middle" x="1974" y="-11.3" font-family="Times,serif" font-size="14.00" fill="#0058ad">r 85 [3 6 7 9 8 10 11 12 13 14 15 16 17 18 19 20 21 22 23 24 25 26 27 28 29 31 30 32 33 34 35 36 37 38 40 41 42 39 44 45 46 43 48 47 49 50 51 52 54 53 55 56 57 58 59 60 62 61 65 64 63 66 67 68 69 72 73 76 77 79 81 82 83 84 85 86 87 88 89 91 90 93 94 92 95]</text>
<polyline fill="none" stroke="#0058ad" points="2714,-.5 2714,-29.5 "/>
<text text-anchor="middle" x="3305" y="-11.3" font-family="Times,serif" font-size="14.00" fill="#0058ad">r 80 [69 70 71 72 73 74 75 76 77 78 79 80 81 82 84 85 86 83 87 88 89 90 91 92 93 94 95 96 97 99 98 100 101 102 103 104 105 106 107 109 108 110 111 112 113 115 118 117 119 121 120 122 123 124 125 126]</text>
</g>
<!-- T17143&#45;&gt;T17141 -->
<g id="edge1" class="edge">
<title>T17143:f0&#45;&gt;T17141:f0</title>
<path fill="none" stroke="#5b00c0" d="M1025,-81C1025,-48.501 1117.3536,-20.0521 1159.8912,-15.6034"/>
<polygon fill="#5b00c0" stroke="#5b00c0" points="1160.2264,-19.0898 1170,-15 1159.8092,-12.1022 1160.2264,-19.0898"/>
<text text-anchor="middle" x="1060.5" y="-51.8" font-family="Times,serif" font-size="14.00" fill="#5b00c0">rw</text>
</g>
<!-- T17141&#45;&gt;T17143 -->
<g id="edge2" class="edge">
<title>T17141:f1&#45;&gt;T17143:f1</title>
<path fill="none" stroke="#5b00c0" d="M1974,-30C1974,-78.0297 2063.9924,-36.375 2077.3507,-71.0922"/>
<polygon fill="#5b00c0" stroke="#5b00c0" points="2073.9054,-71.7105 2079,-81 2080.8104,-70.561 2073.9054,-71.7105"/>
<text text-anchor="middle" x="2077.5" y="-51.8" font-family="Times,serif" font-size="14.00" fill="#5b00c0">rw</text>
</g>
</g>
</svg>
