<?xml version="1.0" encoding="UTF-8" standalone="no"?>
<!DOCTYPE svg PUBLIC "-//W3C//DTD SVG 1.1//EN"
 "http://www.w3.org/Graphics/SVG/1.1/DTD/svg11.dtd">
<!-- Generated by graphviz version 2.40.1 (20161225.0304)
 -->
<!-- Title: a_graph Pages: 1 -->
<svg width="1059pt" height="119pt"
 viewBox="0.00 0.00 1059.00 119.00" xmlns="http://www.w3.org/2000/svg" xmlns:xlink="http://www.w3.org/1999/xlink">
<g id="graph0" class="graph" transform="scale(1 1) rotate(0) translate(4 115)">
<title>a_graph</title>
<polygon fill="#ffffff" stroke="transparent" points="-4,4 -4,-115 1055,-115 1055,4 -4,4"/>
<!-- T3697 -->
<g id="node1" class="node">
<title>T3697</title>
<polygon fill="none" stroke="#0058ad" points="199.5,-81.5 199.5,-110.5 669.5,-110.5 669.5,-81.5 199.5,-81.5"/>
<text text-anchor="middle" x="377.5" y="-92.3" font-family="Times,serif" font-size="14.00" fill="#0058ad">r 25 [1 2 3 4 5 6 8 9 10 11 12 13 14 15 16 17 18 19 20 21 22]</text>
<polyline fill="none" stroke="#0058ad" points="555.5,-81.5 555.5,-110.5 "/>
<text text-anchor="middle" x="584" y="-92.3" font-family="Times,serif" font-size="14.00" fill="#0058ad">a 21 39</text>
<polyline fill="none" stroke="#0058ad" points="612.5,-81.5 612.5,-110.5 "/>
<text text-anchor="middle" x="641" y="-92.3" font-family="Times,serif" font-size="14.00" fill="#0058ad">a 24 25</text>
</g>
<!-- T3696 -->
<g id="node2" class="node">
<title>T3696</title>
<polygon fill="none" stroke="#0058ad" points="0,-.5 0,-29.5 1051,-29.5 1051,-.5 0,-.5"/>
<text text-anchor="middle" x="310.5" y="-11.3" font-family="Times,serif" font-size="14.00" fill="#0058ad">r 21 [1 2 3 4 5 6 9 10 11 12 13 14 15 16 17 18 19 20 21 22 23 24 25 26 27 28 29 30 31 33 32 34 35 36 37 38]</text>
<polyline fill="none" stroke="#0058ad" points="621,-.5 621,-29.5 "/>
<text text-anchor="middle" x="649.5" y="-11.3" font-family="Times,serif" font-size="14.00" fill="#0058ad">a 25 23</text>
<polyline fill="none" stroke="#0058ad" points="678,-.5 678,-29.5 "/>
<text text-anchor="middle" x="864.5" y="-11.3" font-family="Times,serif" font-size="14.00" fill="#0058ad">r 25 [1 2 3 4 5 6 8 9 10 11 12 13 14 15 16 17 18 19 20 21 22 23]</text>
</g>
<!-- T3697&#45;&gt;T3696 -->
<g id="edge1" class="edge">
<title>T3697:f0&#45;&gt;T3696:f1</title>
<path fill="none" stroke="#5b00c0" d="M377.5,-81C377.5,-22.6812 447.2182,-58.9489 504.5,-48 518.0168,-45.4164 612.804,-45.9445 641.3707,-36.2774"/>
<polygon fill="#5b00c0" stroke="#5b00c0" points="643.7242,-38.8821 649.5,-30 639.4459,-33.3416 643.7242,-38.8821"/>
<text text-anchor="middle" x="512" y="-51.8" font-family="Times,serif" font-size="14.00" fill="#5b00c0">rw</text>
</g>
<!-- T3696&#45;&gt;T3697 -->
<g id="edge2" class="edge">
<title>T3696:f0&#45;&gt;T3697:f1</title>
<path fill="none" stroke="#5b00c0" d="M310.5,-30C310.5,-53.3082 497.0857,-41.6069 519.5,-48 546.8834,-55.8104 576.3429,-50.356 583.076,-70.9171"/>
<polygon fill="#5b00c0" stroke="#5b00c0" points="579.6359,-71.5877 584.5,-81 586.5671,-70.6088 579.6359,-71.5877"/>
<text text-anchor="middle" x="586" y="-51.8" font-family="Times,serif" font-size="14.00" fill="#5b00c0">rw</text>
</g>
</g>
</svg>
