<?xml version="1.0" encoding="UTF-8" standalone="no"?>
<!DOCTYPE svg PUBLIC "-//W3C//DTD SVG 1.1//EN"
 "http://www.w3.org/Graphics/SVG/1.1/DTD/svg11.dtd">
<!-- Generated by graphviz version 2.40.1 (20161225.0304)
 -->
<!-- Title: a_graph Pages: 1 -->
<svg width="1850pt" height="119pt"
 viewBox="0.00 0.00 1850.00 119.00" xmlns="http://www.w3.org/2000/svg" xmlns:xlink="http://www.w3.org/1999/xlink">
<g id="graph0" class="graph" transform="scale(1 1) rotate(0) translate(4 115)">
<title>a_graph</title>
<polygon fill="#ffffff" stroke="transparent" points="-4,4 -4,-115 1846,-115 1846,4 -4,4"/>
<!-- T9689 -->
<g id="node1" class="node">
<title>T9689</title>
<polygon fill="none" stroke="#0058ad" points="409,-81.5 409,-110.5 1842,-110.5 1842,-81.5 409,-81.5"/>
<text text-anchor="middle" x="954.5" y="-92.3" font-family="Times,serif" font-size="14.00" fill="#0058ad">r 51 [1 2 4 5 6 3 8 9 7 10 11 12 13 14 15 16 17 18 19 20 21 22 23 24 25 26 28 29 30 27 33 32 31 36 37 38 34 39 40 41 35 44 43 45 46 47 48 49 50 42 52 51 53 54 55 56 57 58 60 61 59 62 63 64]</text>
<polyline fill="none" stroke="#0058ad" points="1500,-81.5 1500,-110.5 "/>
<text text-anchor="middle" x="1528.5" y="-92.3" font-family="Times,serif" font-size="14.00" fill="#0058ad">a 52 14</text>
<polyline fill="none" stroke="#0058ad" points="1557,-81.5 1557,-110.5 "/>
<text text-anchor="middle" x="1585.5" y="-92.3" font-family="Times,serif" font-size="14.00" fill="#0058ad">a 37 65</text>
<polyline fill="none" stroke="#0058ad" points="1614,-81.5 1614,-110.5 "/>
<text text-anchor="middle" x="1728" y="-92.3" font-family="Times,serif" font-size="14.00" fill="#0058ad">r 52 [1 2 3 4 5 6 7 8 9 10 11 12 13 14]</text>
</g>
<!-- T9687 -->
<g id="node2" class="node">
<title>T9687</title>
<polygon fill="none" stroke="#0058ad" points="0,-.5 0,-29.5 1359,-29.5 1359,-.5 0,-.5"/>
<text text-anchor="middle" x="545.5" y="-11.3" font-family="Times,serif" font-size="14.00" fill="#0058ad">r 51 [1 2 4 5 6 3 8 9 7 10 11 12 13 14 15 16 17 18 19 20 21 22 23 24 25 26 28 29 30 27 33 32 31 36 37 38 34 39 40 41 35 44 43 45 46 47 48 49 50 42 52 51 53 54 55 56 57 58 60 61 59 62 63 64]</text>
<polyline fill="none" stroke="#0058ad" points="1091,-.5 1091,-29.5 "/>
<text text-anchor="middle" x="1119.5" y="-11.3" font-family="Times,serif" font-size="14.00" fill="#0058ad">a 51 65</text>
<polyline fill="none" stroke="#0058ad" points="1148,-.5 1148,-29.5 "/>
<text text-anchor="middle" x="1253.5" y="-11.3" font-family="Times,serif" font-size="14.00" fill="#0058ad">r 52 [1 2 3 4 5 6 7 8 9 10 11 12 13]</text>
</g>
<!-- T9689&#45;&gt;T9687 -->
<g id="edge1" class="edge">
<title>T9689:f0&#45;&gt;T9687:f1</title>
<path fill="none" stroke="#5b00c0" d="M954.5,-81C954.5,-7.9914 1103.7801,-97.1729 1118.3582,-40.0031"/>
<polygon fill="#5b00c0" stroke="#5b00c0" points="1121.8433,-40.3324 1119.5,-30 1114.8885,-39.5385 1121.8433,-40.3324"/>
<text text-anchor="middle" x="1123" y="-51.8" font-family="Times,serif" font-size="14.00" fill="#5b00c0">rw</text>
</g>
<!-- T9687&#45;&gt;T9689 -->
<g id="edge2" class="edge">
<title>T9687:f2&#45;&gt;T9689:f1</title>
<path fill="none" stroke="#5b00c0" d="M1359.5,-15C1396.3531,-15 1507.0354,-36.4577 1525.7867,-70.9368"/>
<polygon fill="#5b00c0" stroke="#5b00c0" points="1522.5173,-72.256 1528.5,-81 1529.276,-70.4336 1522.5173,-72.256"/>
<text text-anchor="middle" x="1527" y="-51.8" font-family="Times,serif" font-size="14.00" fill="#5b00c0">rw</text>
</g>
</g>
</svg>
