<?xml version="1.0" encoding="UTF-8" standalone="no"?>
<!DOCTYPE svg PUBLIC "-//W3C//DTD SVG 1.1//EN"
 "http://www.w3.org/Graphics/SVG/1.1/DTD/svg11.dtd">
<!-- Generated by graphviz version 2.40.1 (20161225.0304)
 -->
<!-- Title: a_graph Pages: 1 -->
<svg width="4211pt" height="200pt"
 viewBox="0.00 0.00 4211.00 200.00" xmlns="http://www.w3.org/2000/svg" xmlns:xlink="http://www.w3.org/1999/xlink">
<g id="graph0" class="graph" transform="scale(1 1) rotate(0) translate(4 196)">
<title>a_graph</title>
<polygon fill="#ffffff" stroke="transparent" points="-4,4 -4,-196 4207,-196 4207,4 -4,4"/>
<!-- T21625 -->
<g id="node1" class="node">
<title>T21625</title>
<polygon fill="none" stroke="#0058ad" points="534,-162.5 534,-191.5 1873,-191.5 1873,-162.5 534,-162.5"/>
<text text-anchor="middle" x="562.5" y="-173.3" font-family="Times,serif" font-size="14.00" fill="#0058ad">a 98 57</text>
<polyline fill="none" stroke="#0058ad" points="591,-162.5 591,-191.5 "/>
<text text-anchor="middle" x="1200" y="-173.3" font-family="Times,serif" font-size="14.00" fill="#0058ad">r 108 [1 2 3 4 5 6 7 8 9 10 11 13 14 15 16 12 18 17 19 20 21 22 23 24 25 28 30 31 29 26 27 32 33 34 35 36 37 40 41 42 43 44 39 45 47 46 49 51 52 50 54 53 60 61 62 58 64 65 63 66 68 67 69 70 72 71 75 73 74 77 76]</text>
<polyline fill="none" stroke="#0058ad" points="1809,-162.5 1809,-191.5 "/>
<text text-anchor="middle" x="1841" y="-173.3" font-family="Times,serif" font-size="14.00" fill="#0058ad">a 103 97</text>
</g>
<!-- T21617 -->
<g id="node3" class="node">
<title>T21617</title>
<polygon fill="none" stroke="#0058ad" points="787.5,-81.5 787.5,-110.5 851.5,-110.5 851.5,-81.5 787.5,-81.5"/>
<text text-anchor="middle" x="819.5" y="-92.3" font-family="Times,serif" font-size="14.00" fill="#0058ad">a 108 78</text>
</g>
<!-- T21625&#45;&gt;T21617 -->
<g id="edge1" class="edge">
<title>T21625:f1&#45;&gt;T21617:f0</title>
<path fill="none" stroke="#5b00c0" d="M1199.5,-162C1199.5,-86.8937 947.2754,-129.8099 859.8956,-112.9266"/>
<polygon fill="#5b00c0" stroke="#5b00c0" points="860.6267,-109.5026 850.0847,-110.5592 858.9847,-116.3073 860.6267,-109.5026"/>
<text text-anchor="middle" x="1200" y="-132.8" font-family="Times,serif" font-size="14.00" fill="#5b00c0">rw</text>
</g>
<!-- T21621 -->
<g id="node2" class="node">
<title>T21621</title>
<polygon fill="none" stroke="#0058ad" points="0,-.5 0,-29.5 4203,-29.5 4203,-.5 0,-.5"/>
<text text-anchor="middle" x="617.5" y="-11.3" font-family="Times,serif" font-size="14.00" fill="#0058ad">r 108 [1 2 3 4 5 6 7 8 9 10 11 13 14 15 16 12 18 17 19 20 21 22 23 24 25 28 30 31 29 26 27 32 33 34 35 36 37 40 41 42 43 44 39 45 47 46 49 51 52 50 54 53 60 61 62 58 64 65 63 66 68 67 69 70 72 71 75 73 74 77 76 78]</text>
<polyline fill="none" stroke="#0058ad" points="1235,-.5 1235,-29.5 "/>
<text text-anchor="middle" x="1977" y="-11.3" font-family="Times,serif" font-size="14.00" fill="#0058ad">r 103 [2 3 5 6 4 7 8 9 10 12 11 13 14 15 16 17 18 19 20 22 21 23 24 26 27 28 25 29 30 31 32 33 34 35 38 39 42 43 45 46 47 48 44 49 50 52 51 53 54 56 55 57 58 59 60 61 62 63 64 65 66 67 69 68 70 71 72 73 74 75 76 77 78 79 80 81 82 83 84 86 85 90 94 93 96 95]</text>
<polyline fill="none" stroke="#0058ad" points="2719,-.5 2719,-29.5 "/>
<text text-anchor="middle" x="3461" y="-11.3" font-family="Times,serif" font-size="14.00" fill="#0058ad">r 103 [2 3 5 6 4 7 8 9 10 12 11 13 14 15 16 17 18 19 20 22 21 23 24 26 27 28 25 29 30 31 32 33 34 35 38 39 42 43 45 46 47 48 44 49 50 52 51 53 54 56 55 57 58 59 60 61 62 63 64 65 66 67 69 68 70 71 72 73 74 75 76 77 78 79 80 81 82 83 84 86 85 90 94 93 96 95]</text>
</g>
<!-- T21621&#45;&gt;T21625 -->
<g id="edge2" class="edge">
<title>T21621:f1&#45;&gt;T21625:f2</title>
<path fill="none" stroke="#5b00c0" d="M1976.5,-30C1976.5,-106.1913 1955.3147,-170.9349 1883.9116,-176.598"/>
<polygon fill="#5b00c0" stroke="#5b00c0" points="1883.3575,-173.1167 1873.5,-177 1883.6276,-180.1115 1883.3575,-173.1167"/>
<text text-anchor="middle" x="1980" y="-92.3" font-family="Times,serif" font-size="14.00" fill="#5b00c0">rw</text>
</g>
<!-- T21617&#45;&gt;T21621 -->
<g id="edge3" class="edge">
<title>T21617:f0&#45;&gt;T21621:f0</title>
<path fill="none" stroke="#c000a5" d="M788.5358,-81.4002C788.1893,-81.2648 787.8439,-81.1314 787.5,-81 717.2654,-54.1701 626.4795,-103.8143 618.1226,-40.2261"/>
<polygon fill="#c000a5" stroke="#c000a5" points="621.6013,-39.7688 617.5,-30 614.6143,-40.1943 621.6013,-39.7688"/>
<text text-anchor="middle" x="636" y="-51.8" font-family="Times,serif" font-size="14.00" fill="#c000a5">wr</text>
</g>
</g>
</svg>
