<?xml version="1.0" encoding="UTF-8" standalone="no"?>
<!DOCTYPE svg PUBLIC "-//W3C//DTD SVG 1.1//EN"
 "http://www.w3.org/Graphics/SVG/1.1/DTD/svg11.dtd">
<!-- Generated by graphviz version 2.40.1 (20161225.0304)
 -->
<!-- Title: a_graph Pages: 1 -->
<svg width="2136pt" height="119pt"
 viewBox="0.00 0.00 2136.00 119.00" xmlns="http://www.w3.org/2000/svg" xmlns:xlink="http://www.w3.org/1999/xlink">
<g id="graph0" class="graph" transform="scale(1 1) rotate(0) translate(4 115)">
<title>a_graph</title>
<polygon fill="#ffffff" stroke="transparent" points="-4,4 -4,-115 2132,-115 2132,4 -4,4"/>
<!-- T13973 -->
<g id="node1" class="node">
<title>T13973</title>
<polygon fill="none" stroke="#0058ad" points="0,-81.5 0,-110.5 2128,-110.5 2128,-81.5 0,-81.5"/>
<text text-anchor="middle" x="1039" y="-92.3" font-family="Times,serif" font-size="14.00" fill="#0058ad">r 71 [1 4 2 3 5 6 10 8 9 7 11 12 13 16 14 15 17 18 19 21 20 22 23 24 25 27 28 29 26 31 30 32 33 34 35 36 37 39 40 41 42 43 38 44 47 48 45 46 49 51 52 53 54 55 56 57 58 50 59 60 62 63 61 64 65 66 69 68 67 71 70 72 73 75 74 77 76 78 79 80 82 83 81 84 85 86 87 88 89 90 91 93 92 95 96 94 101 97 98 99 100 102 104 105 103 106 107 108 109 110 112 113 111 114 115]</text>
<polyline fill="none" stroke="#0058ad" points="2078,-81.5 2078,-110.5 "/>
<text text-anchor="middle" x="2103" y="-92.3" font-family="Times,serif" font-size="14.00" fill="#0058ad">a 73 7</text>
</g>
<!-- T13971 -->
<g id="node2" class="node">
<title>T13971</title>
<polygon fill="none" stroke="#0058ad" points="1739,-.5 1739,-29.5 2023,-29.5 2023,-.5 1739,-.5"/>
<text text-anchor="middle" x="1771" y="-11.3" font-family="Times,serif" font-size="14.00" fill="#0058ad">a 71 116</text>
<polyline fill="none" stroke="#0058ad" points="1803,-.5 1803,-29.5 "/>
<text text-anchor="middle" x="1858" y="-11.3" font-family="Times,serif" font-size="14.00" fill="#0058ad">r 73 [1 2 3 5 4 6]</text>
<polyline fill="none" stroke="#0058ad" points="1913,-.5 1913,-29.5 "/>
<text text-anchor="middle" x="1968" y="-11.3" font-family="Times,serif" font-size="14.00" fill="#0058ad">r 73 [1 2 3 5 4 6]</text>
</g>
<!-- T13973&#45;&gt;T13971 -->
<g id="edge1" class="edge">
<title>T13973:f0&#45;&gt;T13971:f0</title>
<path fill="none" stroke="#5b00c0" d="M1039,-81C1039,-43.8459 1636.9696,-17.6596 1728.9794,-15.191"/>
<polygon fill="#5b00c0" stroke="#5b00c0" points="1729.0685,-18.69 1739,-15 1728.9351,-11.6913 1729.0685,-18.69"/>
<text text-anchor="middle" x="1190.5" y="-51.8" font-family="Times,serif" font-size="14.00" fill="#5b00c0">rw</text>
</g>
<!-- T13971&#45;&gt;T13973 -->
<g id="edge2" class="edge">
<title>T13971:f1&#45;&gt;T13973:f1</title>
<path fill="none" stroke="#5b00c0" d="M1858,-30C1858,-137.5301 2087.0006,19.1496 2102.2076,-70.8353"/>
<polygon fill="#5b00c0" stroke="#5b00c0" points="2098.7333,-71.3023 2103,-81 2105.7122,-70.7582 2098.7333,-71.3023"/>
<text text-anchor="middle" x="2105.5" y="-51.8" font-family="Times,serif" font-size="14.00" fill="#5b00c0">rw</text>
</g>
</g>
</svg>
