<?xml version="1.0" encoding="UTF-8" standalone="no"?>
<!DOCTYPE svg PUBLIC "-//W3C//DTD SVG 1.1//EN"
 "http://www.w3.org/Graphics/SVG/1.1/DTD/svg11.dtd">
<!-- Generated by graphviz version 2.40.1 (20161225.0304)
 -->
<!-- Title: a_graph Pages: 1 -->
<svg width="3292pt" height="200pt"
 viewBox="0.00 0.00 3291.50 200.00" xmlns="http://www.w3.org/2000/svg" xmlns:xlink="http://www.w3.org/1999/xlink">
<g id="graph0" class="graph" transform="scale(1 1) rotate(0) translate(4 196)">
<title>a_graph</title>
<polygon fill="#ffffff" stroke="transparent" points="-4,4 -4,-196 3287.5,-196 3287.5,4 -4,4"/>
<!-- T10071 -->
<g id="node1" class="node">
<title>T10071</title>
<polygon fill="none" stroke="#0058ad" points="668.5,-162.5 668.5,-191.5 1638.5,-191.5 1638.5,-162.5 668.5,-162.5"/>
<text text-anchor="middle" x="1153.5" y="-173.3" font-family="Times,serif" font-size="14.00" fill="#0058ad">r 52 [1 2 3 4 5 6 7 8 9 10 11 12 13 14 16 15 17 18 19 21 20 22 23 24 30 32 36 34 39 40 41 42 43 45 46 44 47 48 49 50 51 52 53 54 55 56 57 58 59 60 61 63 64 62 65 66 67]</text>
</g>
<!-- T10077 -->
<g id="node3" class="node">
<title>T10077</title>
<polygon fill="none" stroke="#0058ad" points="1323.5,-81.5 1323.5,-110.5 3283.5,-110.5 3283.5,-81.5 1323.5,-81.5"/>
<text text-anchor="middle" x="1352" y="-92.3" font-family="Times,serif" font-size="14.00" fill="#0058ad">a 52 68</text>
<polyline fill="none" stroke="#0058ad" points="1380.5,-81.5 1380.5,-110.5 "/>
<text text-anchor="middle" x="1405.5" y="-92.3" font-family="Times,serif" font-size="14.00" fill="#0058ad">a 53 9</text>
<polyline fill="none" stroke="#0058ad" points="1430.5,-81.5 1430.5,-110.5 "/>
<text text-anchor="middle" x="1863.5" y="-92.3" font-family="Times,serif" font-size="14.00" fill="#0058ad">r 54 [2 3 1 4 6 7 5 10 11 8 9 12 13 14 15 17 16 19 20 21 18 22 23 25 24 27 30 31 32 33 26 34 28 29 35 36 37 38 39 40 41 43 44 45 46 47 48 49 50 51 42]</text>
<polyline fill="none" stroke="#0058ad" points="2296.5,-81.5 2296.5,-110.5 "/>
<text text-anchor="middle" x="2790" y="-92.3" font-family="Times,serif" font-size="14.00" fill="#0058ad">r 52 [1 2 3 4 5 6 7 8 9 10 11 12 13 14 16 15 17 18 19 21 20 22 23 24 30 32 36 34 39 40 41 42 43 45 46 44 47 48 49 50 51 52 53 54 55 56 57 58 59 60 61 63 64 62 65 66 67 68]</text>
</g>
<!-- T10071&#45;&gt;T10077 -->
<g id="edge1" class="edge">
<title>T10071:f0&#45;&gt;T10077:f0</title>
<path fill="none" stroke="#5b00c0" d="M1171.041,-162.1434C1198.8346,-140.0838 1255.7515,-100.7817 1313.1602,-96.4002"/>
<polygon fill="#5b00c0" stroke="#5b00c0" points="1313.6429,-99.8843 1323.5,-96 1313.3721,-92.8895 1313.6429,-99.8843"/>
<text text-anchor="middle" x="1227" y="-132.8" font-family="Times,serif" font-size="14.00" fill="#5b00c0">rw</text>
</g>
<!-- T10069 -->
<g id="node2" class="node">
<title>T10069</title>
<polygon fill="none" stroke="#0058ad" points="0,-.5 0,-29.5 1957,-29.5 1957,-.5 0,-.5"/>
<text text-anchor="middle" x="433" y="-11.3" font-family="Times,serif" font-size="14.00" fill="#0058ad">r 54 [2 3 1 4 6 7 5 10 11 8 9 12 13 14 15 17 16 19 20 21 18 22 23 25 24 27 30 31 32 33 26 34 28 29 35 36 37 38 39 40 41 43 44 45 46 47 48 49 50 51 42]</text>
<polyline fill="none" stroke="#0058ad" points="866,-.5 866,-29.5 "/>
<text text-anchor="middle" x="1351" y="-11.3" font-family="Times,serif" font-size="14.00" fill="#0058ad">r 52 [1 2 3 4 5 6 7 8 9 10 11 12 13 14 16 15 17 18 19 21 20 22 23 24 30 32 36 34 39 40 41 42 43 45 46 44 47 48 49 50 51 52 53 54 55 56 57 58 59 60 61 63 64 62 65 66 67]</text>
<polyline fill="none" stroke="#0058ad" points="1836,-.5 1836,-29.5 "/>
<text text-anchor="middle" x="1864.5" y="-11.3" font-family="Times,serif" font-size="14.00" fill="#0058ad">a 54 52</text>
<polyline fill="none" stroke="#0058ad" points="1893,-.5 1893,-29.5 "/>
<text text-anchor="middle" x="1925" y="-11.3" font-family="Times,serif" font-size="14.00" fill="#0058ad">a 49 100</text>
</g>
<!-- T10069&#45;&gt;T10071 -->
<g id="edge2" class="edge">
<title>T10069&#45;&gt;T10071</title>
<path fill="none" stroke="#0050c0" d="M994.1769,-29.5123C1025.0202,-58.0644 1093.7331,-121.6729 1130.0159,-155.2605"/>
<polygon fill="#0050c0" stroke="#0050c0" points="1127.9452,-158.113 1137.6613,-162.3379 1132.7005,-152.9761 1127.9452,-158.113"/>
<text text-anchor="middle" x="1086" y="-92.3" font-family="Times,serif" font-size="14.00" fill="#0050c0">rt</text>
</g>
<!-- T10069&#45;&gt;T10077 -->
<g id="edge3" class="edge">
<title>T10069:f1&#45;&gt;T10077:f0</title>
<path fill="none" stroke="#5b00c0" d="M1351.5,-30C1351.5,-48.7708 1351.5,-55.8832 1351.5,-70.6465"/>
<polygon fill="#5b00c0" stroke="#5b00c0" points="1348.0001,-71 1351.5,-81 1355.0001,-71 1348.0001,-71"/>
<text text-anchor="middle" x="1359" y="-51.8" font-family="Times,serif" font-size="14.00" fill="#5b00c0">rw</text>
</g>
<!-- T10077&#45;&gt;T10069 -->
<g id="edge4" class="edge">
<title>T10077:f2&#45;&gt;T10069:f2</title>
<path fill="none" stroke="#5b00c0" d="M1863.5,-81C1863.5,-62.2256 1864.1858,-55.1185 1864.4215,-40.3548"/>
<polygon fill="#5b00c0" stroke="#5b00c0" points="1867.924,-40.0263 1864.5,-30 1860.9242,-39.9732 1867.924,-40.0263"/>
<text text-anchor="middle" x="1871" y="-51.8" font-family="Times,serif" font-size="14.00" fill="#5b00c0">rw</text>
</g>
</g>
</svg>
