<?xml version="1.0" encoding="UTF-8" standalone="no"?>
<!DOCTYPE svg PUBLIC "-//W3C//DTD SVG 1.1//EN"
 "http://www.w3.org/Graphics/SVG/1.1/DTD/svg11.dtd">
<!-- Generated by graphviz version 2.40.1 (20161225.0304)
 -->
<!-- Title: a_graph Pages: 1 -->
<svg width="1326pt" height="119pt"
 viewBox="0.00 0.00 1326.00 119.00" xmlns="http://www.w3.org/2000/svg" xmlns:xlink="http://www.w3.org/1999/xlink">
<g id="graph0" class="graph" transform="scale(1 1) rotate(0) translate(4 115)">
<title>a_graph</title>
<polygon fill="#ffffff" stroke="transparent" points="-4,4 -4,-115 1322,-115 1322,4 -4,4"/>
<!-- T16475 -->
<g id="node1" class="node">
<title>T16475</title>
<polygon fill="none" stroke="#0058ad" points="391,-81.5 391,-110.5 1318,-110.5 1318,-81.5 391,-81.5"/>
<text text-anchor="middle" x="419.5" y="-92.3" font-family="Times,serif" font-size="14.00" fill="#0058ad">a 85 45</text>
<polyline fill="none" stroke="#0058ad" points="448,-81.5 448,-110.5 "/>
<text text-anchor="middle" x="665.5" y="-92.3" font-family="Times,serif" font-size="14.00" fill="#0058ad">r 86 [1 2 4 5 3 6 8 9 11 7 13 12 14 15 16 17 18 10 19 20 21 22 23 25 24 26]</text>
<polyline fill="none" stroke="#0058ad" points="883,-81.5 883,-110.5 "/>
<text text-anchor="middle" x="1100.5" y="-92.3" font-family="Times,serif" font-size="14.00" fill="#0058ad">r 86 [1 2 4 5 3 6 8 9 11 7 13 12 14 15 16 17 18 10 19 20 21 22 23 25 24 26]</text>
</g>
<!-- T16471 -->
<g id="node2" class="node">
<title>T16471</title>
<polygon fill="none" stroke="#0058ad" points="0,-.5 0,-29.5 1249,-29.5 1249,-.5 0,-.5"/>
<text text-anchor="middle" x="341.5" y="-11.3" font-family="Times,serif" font-size="14.00" fill="#0058ad">r 85 [3 4 2 5 6 7 8 9 10 11 12 13 14 15 16 17 18 22 23 21 25 26 27 29 28 30 31 32 35 37 38 39 33 34 40 41 36 42 43 44]</text>
<polyline fill="none" stroke="#0058ad" points="683,-.5 683,-29.5 "/>
<text text-anchor="middle" x="711.5" y="-11.3" font-family="Times,serif" font-size="14.00" fill="#0058ad">a 86 28</text>
<polyline fill="none" stroke="#0058ad" points="740,-.5 740,-29.5 "/>
<text text-anchor="middle" x="966" y="-11.3" font-family="Times,serif" font-size="14.00" fill="#0058ad">r 86 [1 2 4 5 3 6 8 9 11 7 13 12 14 15 16 17 18 10 19 20 21 22 23 25 24 26 28]</text>
<polyline fill="none" stroke="#0058ad" points="1192,-.5 1192,-29.5 "/>
<text text-anchor="middle" x="1220.5" y="-11.3" font-family="Times,serif" font-size="14.00" fill="#0058ad">a 86 29</text>
</g>
<!-- T16475&#45;&gt;T16471 -->
<g id="edge1" class="edge">
<title>T16475:f1&#45;&gt;T16471:f1</title>
<path fill="none" stroke="#5b00c0" d="M665.5,-81C665.5,-54.5294 700.0927,-58.571 709.2813,-40.2052"/>
<polygon fill="#5b00c0" stroke="#5b00c0" points="712.7956,-40.5153 711.5,-30 705.9554,-39.0282 712.7956,-40.5153"/>
<text text-anchor="middle" x="709" y="-51.8" font-family="Times,serif" font-size="14.00" fill="#5b00c0">rw</text>
</g>
<!-- T16471&#45;&gt;T16475 -->
<g id="edge2" class="edge">
<title>T16471:f0&#45;&gt;T16475:f0</title>
<path fill="none" stroke="#5b00c0" d="M341.5,-30C341.5,-62.966 351.6503,-90.1775 380.4745,-95.1778"/>
<polygon fill="#5b00c0" stroke="#5b00c0" points="380.2474,-98.6709 390.5,-96 380.8196,-91.6943 380.2474,-98.6709"/>
<text text-anchor="middle" x="354" y="-51.8" font-family="Times,serif" font-size="14.00" fill="#5b00c0">rw</text>
</g>
</g>
</svg>
