<?xml version="1.0" encoding="UTF-8" standalone="no"?>
<!DOCTYPE svg PUBLIC "-//W3C//DTD SVG 1.1//EN"
 "http://www.w3.org/Graphics/SVG/1.1/DTD/svg11.dtd">
<!-- Generated by graphviz version 2.40.1 (20161225.0304)
 -->
<!-- Title: a_graph Pages: 1 -->
<svg width="4102pt" height="200pt"
 viewBox="0.00 0.00 4102.00 200.00" xmlns="http://www.w3.org/2000/svg" xmlns:xlink="http://www.w3.org/1999/xlink">
<g id="graph0" class="graph" transform="scale(1 1) rotate(0) translate(4 196)">
<title>a_graph</title>
<polygon fill="#ffffff" stroke="transparent" points="-4,4 -4,-196 4098,-196 4098,4 -4,4"/>
<!-- T16279 -->
<g id="node1" class="node">
<title>T16279</title>
<polygon fill="none" stroke="#0058ad" points="1456.5,-162.5 1456.5,-191.5 1570.5,-191.5 1570.5,-162.5 1456.5,-162.5"/>
<text text-anchor="middle" x="1485" y="-173.3" font-family="Times,serif" font-size="14.00" fill="#0058ad">a 85 10</text>
<polyline fill="none" stroke="#0058ad" points="1513.5,-162.5 1513.5,-191.5 "/>
<text text-anchor="middle" x="1542" y="-173.3" font-family="Times,serif" font-size="14.00" fill="#0058ad">a 83 99</text>
</g>
<!-- T16289 -->
<g id="node2" class="node">
<title>T16289</title>
<polygon fill="none" stroke="#0058ad" points="0,-81.5 0,-110.5 1923,-110.5 1923,-81.5 0,-81.5"/>
<text text-anchor="middle" x="79.5" y="-92.3" font-family="Times,serif" font-size="14.00" fill="#0058ad">r 84 [1 2 3 4 5 6 7 8 9 11]</text>
<polyline fill="none" stroke="#0058ad" points="159,-81.5 159,-110.5 "/>
<text text-anchor="middle" x="233.5" y="-92.3" font-family="Times,serif" font-size="14.00" fill="#0058ad">r 85 [3 4 2 5 6 7 8 9 10]</text>
<polyline fill="none" stroke="#0058ad" points="308,-81.5 308,-110.5 "/>
<text text-anchor="middle" x="1115.5" y="-92.3" font-family="Times,serif" font-size="14.00" fill="#0058ad">r 83 [2 3 4 5 6 7 9 10 11 8 12 13 16 14 15 17 18 19 20 21 22 23 24 26 25 27 28 32 29 30 31 33 34 35 38 36 37 39 41 42 43 44 45 46 47 40 48 51 52 53 54 55 56 49 50 58 59 60 61 57 62 63 64 66 67 65 70 71 73 74 76 77 68 80 81 82 83 79 85 86 87 88 89 90 84 91 92 93 94 95 96 97 98 99]</text>
</g>
<!-- T16279&#45;&gt;T16289 -->
<g id="edge1" class="edge">
<title>T16279:f0&#45;&gt;T16289:f1</title>
<path fill="none" stroke="#c000a5" d="M1456.5,-177C1424.206,-177 351.2773,-148.187 242.3912,-116.1633"/>
<polygon fill="#c000a5" stroke="#c000a5" points="243.9053,-112.9952 233.5,-111 240.39,-119.0485 243.9053,-112.9952"/>
<text text-anchor="middle" x="562" y="-132.8" font-family="Times,serif" font-size="14.00" fill="#c000a5">wr</text>
</g>
<!-- T16283 -->
<g id="node3" class="node">
<title>T16283</title>
<polygon fill="none" stroke="#0058ad" points="841,-.5 841,-29.5 4094,-29.5 4094,-.5 841,-.5"/>
<text text-anchor="middle" x="869.5" y="-11.3" font-family="Times,serif" font-size="14.00" fill="#0058ad">a 84 12</text>
<polyline fill="none" stroke="#0058ad" points="898,-.5 898,-29.5 "/>
<text text-anchor="middle" x="1697" y="-11.3" font-family="Times,serif" font-size="14.00" fill="#0058ad">r 83 [2 3 4 5 6 7 9 10 11 8 12 13 16 14 15 17 18 19 20 21 22 23 24 26 25 27 28 32 29 30 31 33 34 35 38 36 37 39 41 42 43 44 45 46 47 40 48 51 52 53 54 55 56 49 50 58 59 60 61 57 62 63 64 66 67 65 70 71 73 74 76 77 68 80 81 82 83 79 85 86 87 88 89 90 84 91 92 93 94 95 96 97 98]</text>
<polyline fill="none" stroke="#0058ad" points="2496,-.5 2496,-29.5 "/>
<text text-anchor="middle" x="3295" y="-11.3" font-family="Times,serif" font-size="14.00" fill="#0058ad">r 83 [2 3 4 5 6 7 9 10 11 8 12 13 16 14 15 17 18 19 20 21 22 23 24 26 25 27 28 32 29 30 31 33 34 35 38 36 37 39 41 42 43 44 45 46 47 40 48 51 52 53 54 55 56 49 50 58 59 60 61 57 62 63 64 66 67 65 70 71 73 74 76 77 68 80 81 82 83 79 85 86 87 88 89 90 84 91 92 93 94 95 96 97 98]</text>
</g>
<!-- T16289&#45;&gt;T16283 -->
<g id="edge2" class="edge">
<title>T16289:f0&#45;&gt;T16283:f0</title>
<path fill="none" stroke="#5b00c0" d="M79.5,-81C79.5,-40.5527 732.2771,-17.2505 830.2191,-15.1548"/>
<polygon fill="#5b00c0" stroke="#5b00c0" points="830.5539,-18.6503 840.5,-15 830.4484,-11.6511 830.5539,-18.6503"/>
<text text-anchor="middle" x="244" y="-51.8" font-family="Times,serif" font-size="14.00" fill="#5b00c0">rw</text>
</g>
<!-- T16283&#45;&gt;T16279 -->
<g id="edge3" class="edge">
<title>T16283:f1&#45;&gt;T16279:f1</title>
<path fill="none" stroke="#5b00c0" d="M1696.5,-30C1696.5,-137.3101 1865.109,2.5099 1932.5,-81 1940.8734,-91.3762 1941.0408,-100.7612 1932.5,-111 1882.1671,-171.3394 1669.8036,-176.6585 1580.732,-176.982"/>
<polygon fill="#5b00c0" stroke="#5b00c0" points="1580.4938,-173.4823 1570.5,-177 1580.5062,-180.4823 1580.4938,-173.4823"/>
<text text-anchor="middle" x="1946" y="-92.3" font-family="Times,serif" font-size="14.00" fill="#5b00c0">rw</text>
</g>
</g>
</svg>
