<?xml version="1.0" encoding="UTF-8" standalone="no"?>
<!DOCTYPE svg PUBLIC "-//W3C//DTD SVG 1.1//EN"
 "http://www.w3.org/Graphics/SVG/1.1/DTD/svg11.dtd">
<!-- Generated by graphviz version 2.40.1 (20161225.0304)
 -->
<!-- Title: a_graph Pages: 1 -->
<svg width="3766pt" height="281pt"
 viewBox="0.00 0.00 3765.50 281.00" xmlns="http://www.w3.org/2000/svg" xmlns:xlink="http://www.w3.org/1999/xlink">
<g id="graph0" class="graph" transform="scale(1 1) rotate(0) translate(4 277)">
<title>a_graph</title>
<polygon fill="#ffffff" stroke="transparent" points="-4,4 -4,-277 3761.5,-277 3761.5,4 -4,4"/>
<!-- T15775 -->
<g id="node1" class="node">
<title>T15775</title>
<polygon fill="none" stroke="#0058ad" points="2891.5,-243.5 2891.5,-272.5 3757.5,-272.5 3757.5,-243.5 2891.5,-243.5"/>
<text text-anchor="middle" x="3324.5" y="-254.3" font-family="Times,serif" font-size="14.00" fill="#0058ad">r 81 [1 2 3 4 5 6 8 7 9 11 12 13 14 15 16 17 18 19 20 21 22 24 25 26 28 29 27 30 31 32 35 36 37 38 39 40 41 42 43 44 45 46 47 48 49 50 51 52 53 54 55]</text>
</g>
<!-- T15781 -->
<g id="node3" class="node">
<title>T15781</title>
<polygon fill="none" stroke="#0058ad" points="0,-162.5 0,-191.5 3289,-191.5 3289,-162.5 0,-162.5"/>
<text text-anchor="middle" x="28.5" y="-173.3" font-family="Times,serif" font-size="14.00" fill="#0058ad">a 81 57</text>
<polyline fill="none" stroke="#0058ad" points="57,-162.5 57,-191.5 "/>
<text text-anchor="middle" x="619.5" y="-173.3" font-family="Times,serif" font-size="14.00" fill="#0058ad">r 82 [1 2 3 4 5 6 7 10 8 9 15 17 19 20 18 21 13 24 25 22 26 27 29 30 28 31 32 35 33 34 37 38 39 41 40 42 36 43 44 45 46 48 49 50 51 47 52 53 55 54 56 60 57 65 66 67 70 71 72 68 69 73 74 75 76 77]</text>
<polyline fill="none" stroke="#0058ad" points="1182,-162.5 1182,-191.5 "/>
<text text-anchor="middle" x="1673" y="-173.3" font-family="Times,serif" font-size="14.00" fill="#0058ad">r 67 [1 2 3 4 5 6 7 8 9 10 11 12 13 14 15 16 17 18 19 20 22 23 24 25 26 27 28 29 30 31 32 33 34 35 36 37 38 39 40 41 42 109 110 111 112 113 115 116 117 119 120 121 122]</text>
<polyline fill="none" stroke="#0058ad" points="2164,-162.5 2164,-191.5 "/>
<text text-anchor="middle" x="2726.5" y="-173.3" font-family="Times,serif" font-size="14.00" fill="#0058ad">r 82 [1 2 3 4 5 6 7 10 8 9 15 17 19 20 18 21 13 24 25 22 26 27 29 30 28 31 32 35 33 34 37 38 39 41 40 42 36 43 44 45 46 48 49 50 51 47 52 53 55 54 56 60 57 65 66 67 70 71 72 68 69 73 74 75 76 77]</text>
</g>
<!-- T15775&#45;&gt;T15781 -->
<g id="edge1" class="edge">
<title>T15775:f0&#45;&gt;T15781:f0</title>
<path fill="none" stroke="#5b00c0" d="M2909.9641,-243.495C2903.7672,-243.3254 2897.6094,-243.1602 2891.5,-243 2853.0829,-241.9925 215.5785,-232.4463 37.8997,-195.9198"/>
<polygon fill="#5b00c0" stroke="#5b00c0" points="39.0768,-192.6186 28.5,-192 36.3825,-199.0793 39.0768,-192.6186"/>
<text text-anchor="middle" x="873" y="-213.8" font-family="Times,serif" font-size="14.00" fill="#5b00c0">rw</text>
</g>
<!-- T15773 -->
<g id="node2" class="node">
<title>T15773</title>
<polygon fill="none" stroke="#0058ad" points="1647.5,-81.5 1647.5,-110.5 3333.5,-110.5 3333.5,-81.5 1647.5,-81.5"/>
<text text-anchor="middle" x="1676" y="-92.3" font-family="Times,serif" font-size="14.00" fill="#0058ad">a 82 78</text>
<polyline fill="none" stroke="#0058ad" points="1704.5,-81.5 1704.5,-110.5 "/>
<text text-anchor="middle" x="1948" y="-92.3" font-family="Times,serif" font-size="14.00" fill="#0058ad">r 68 [1 2 3 4 5 6 7 8 9 10 11 12 13 14 15 16 17 47 48 49 50 51 52 53 54 55 56 57 58]</text>
<polyline fill="none" stroke="#0058ad" points="2191.5,-81.5 2191.5,-110.5 "/>
<text text-anchor="middle" x="2762.5" y="-92.3" font-family="Times,serif" font-size="14.00" fill="#0058ad">r 82 [1 2 3 4 5 6 7 10 8 9 15 17 19 20 18 21 13 24 25 22 26 27 29 30 28 31 32 35 33 34 37 38 39 41 40 42 36 43 44 45 46 48 49 50 51 47 52 53 55 54 56 60 57 65 66 67 70 71 72 68 69 73 74 75 76 77 78]</text>
</g>
<!-- T15773&#45;&gt;T15775 -->
<g id="edge2" class="edge">
<title>T15773&#45;&gt;T15775</title>
<path fill="none" stroke="#0050c0" d="M2924.8924,-110.5121C3099.0241,-120.2527 3266.1891,-136.2045 3297.5,-162 3318.285,-179.1238 3323.7799,-210.8802 3324.8918,-233.1657"/>
<polygon fill="#0050c0" stroke="#0050c0" points="3321.3945,-233.3263 3325.1333,-243.2395 3328.3925,-233.1584 3321.3945,-233.3263"/>
<text text-anchor="middle" x="3322" y="-173.3" font-family="Times,serif" font-size="14.00" fill="#0050c0">rt</text>
</g>
<!-- T15769 -->
<g id="node4" class="node">
<title>T15769</title>
<polygon fill="none" stroke="#0058ad" points="2626,-.5 2626,-29.5 2683,-29.5 2683,-.5 2626,-.5"/>
<text text-anchor="middle" x="2654.5" y="-11.3" font-family="Times,serif" font-size="14.00" fill="#0058ad">a 68 59</text>
</g>
<!-- T15773&#45;&gt;T15769 -->
<g id="edge3" class="edge">
<title>T15773:f1&#45;&gt;T15769:f0</title>
<path fill="none" stroke="#5b00c0" d="M1947.5,-81C1947.5,-8.0767 2510.8334,-48.0025 2618.0146,-31.5973"/>
<polygon fill="#5b00c0" stroke="#5b00c0" points="2619.0115,-34.9651 2628.0916,-29.506 2617.589,-28.1111 2619.0115,-34.9651"/>
<text text-anchor="middle" x="2019" y="-51.8" font-family="Times,serif" font-size="14.00" fill="#5b00c0">rw</text>
</g>
<!-- T15781&#45;&gt;T15773 -->
<g id="edge4" class="edge">
<title>T15781:f1&#45;&gt;T15773:f0</title>
<path fill="none" stroke="#5b00c0" d="M619.5,-162C619.5,-106.895 1519.5587,-96.7177 1637.451,-96.0383"/>
<polygon fill="#5b00c0" stroke="#5b00c0" points="1637.5134,-99.5382 1647.5,-96 1637.4867,-92.5382 1637.5134,-99.5382"/>
<text text-anchor="middle" x="748" y="-132.8" font-family="Times,serif" font-size="14.00" fill="#5b00c0">rw</text>
</g>
<!-- T15769&#45;&gt;T15775 -->
<g id="edge5" class="edge">
<title>T15769&#45;&gt;T15775</title>
<path fill="none" stroke="#0050c0" d="M2683.1872,-15.5306C2807.7481,-18.1249 3297.4621,-31.4349 3342.5,-81 3380.8266,-123.1792 3354.5549,-196.505 3336.8933,-234.1684"/>
<polygon fill="#0050c0" stroke="#0050c0" points="3333.6472,-232.8402 3332.417,-243.3633 3339.941,-235.9042 3333.6472,-232.8402"/>
<text text-anchor="middle" x="3367" y="-132.8" font-family="Times,serif" font-size="14.00" fill="#0050c0">rt</text>
</g>
</g>
</svg>
