<?xml version="1.0" encoding="UTF-8" standalone="no"?>
<!DOCTYPE svg PUBLIC "-//W3C//DTD SVG 1.1//EN"
 "http://www.w3.org/Graphics/SVG/1.1/DTD/svg11.dtd">
<!-- Generated by graphviz version 2.40.1 (20161225.0304)
 -->
<!-- Title: a_graph Pages: 1 -->
<svg width="1905pt" height="119pt"
 viewBox="0.00 0.00 1905.00 119.00" xmlns="http://www.w3.org/2000/svg" xmlns:xlink="http://www.w3.org/1999/xlink">
<g id="graph0" class="graph" transform="scale(1 1) rotate(0) translate(4 115)">
<title>a_graph</title>
<polygon fill="#ffffff" stroke="transparent" points="-4,4 -4,-115 1901,-115 1901,4 -4,4"/>
<!-- T15669 -->
<g id="node1" class="node">
<title>T15669</title>
<polygon fill="none" stroke="#0058ad" points="0,-81.5 0,-110.5 1897,-110.5 1897,-81.5 0,-81.5"/>
<text text-anchor="middle" x="312.5" y="-92.3" font-family="Times,serif" font-size="14.00" fill="#0058ad">r 81 [1 2 3 4 5 6 8 7 9 11 12 13 14 15 16 17 18 19 20 21 22 24 25 26 28 29 27 30 31 32 35 36 37 38 39 40 41]</text>
<polyline fill="none" stroke="#0058ad" points="625,-81.5 625,-110.5 "/>
<text text-anchor="middle" x="653.5" y="-92.3" font-family="Times,serif" font-size="14.00" fill="#0058ad">a 82 40</text>
<polyline fill="none" stroke="#0058ad" points="682,-81.5 682,-110.5 "/>
<text text-anchor="middle" x="977" y="-92.3" font-family="Times,serif" font-size="14.00" fill="#0058ad">r 82 [1 2 3 4 5 6 7 10 8 9 15 17 19 20 18 21 13 24 25 22 26 27 29 30 28 31 32 35 33 34 37 38 39 41 40]</text>
<polyline fill="none" stroke="#0058ad" points="1272,-81.5 1272,-110.5 "/>
<text text-anchor="middle" x="1584.5" y="-92.3" font-family="Times,serif" font-size="14.00" fill="#0058ad">r 81 [1 2 3 4 5 6 8 7 9 11 12 13 14 15 16 17 18 19 20 21 22 24 25 26 28 29 27 30 31 32 35 36 37 38 39 40 41]</text>
</g>
<!-- T15665 -->
<g id="node2" class="node">
<title>T15665</title>
<polygon fill="none" stroke="#0058ad" points="39.5,-.5 39.5,-29.5 669.5,-29.5 669.5,-.5 39.5,-.5"/>
<text text-anchor="middle" x="326" y="-11.3" font-family="Times,serif" font-size="14.00" fill="#0058ad">r 82 [1 2 3 4 5 6 7 10 8 9 15 17 19 20 18 21 13 24 25 22 26 27 29 30 28 31 32 35 33 34 37 38 39 41]</text>
<polyline fill="none" stroke="#0058ad" points="612.5,-.5 612.5,-29.5 "/>
<text text-anchor="middle" x="641" y="-11.3" font-family="Times,serif" font-size="14.00" fill="#0058ad">a 81 42</text>
</g>
<!-- T15669&#45;&gt;T15665 -->
<g id="edge1" class="edge">
<title>T15669:f0&#45;&gt;T15665:f1</title>
<path fill="none" stroke="#5b00c0" d="M312.5,-81C312.5,-72.6912 578.0655,-45.6105 632.0085,-33.4887"/>
<polygon fill="#5b00c0" stroke="#5b00c0" points="633.3214,-36.7351 641.5,-30 630.9064,-30.1649 633.3214,-36.7351"/>
<text text-anchor="middle" x="542" y="-51.8" font-family="Times,serif" font-size="14.00" fill="#5b00c0">rw</text>
</g>
<!-- T15665&#45;&gt;T15669 -->
<g id="edge2" class="edge">
<title>T15665:f0&#45;&gt;T15669:f1</title>
<path fill="none" stroke="#5b00c0" d="M325.5,-30C325.5,-55.4122 528.5882,-42.9821 553.5,-48 595.6168,-56.4834 644.6765,-37.7614 652.4419,-70.836"/>
<polygon fill="#5b00c0" stroke="#5b00c0" points="648.9833,-71.4162 653.5,-81 655.9457,-70.6913 648.9833,-71.4162"/>
<text text-anchor="middle" x="656" y="-51.8" font-family="Times,serif" font-size="14.00" fill="#5b00c0">rw</text>
</g>
</g>
</svg>
