<?xml version="1.0" encoding="UTF-8" standalone="no"?>
<!DOCTYPE svg PUBLIC "-//W3C//DTD SVG 1.1//EN"
 "http://www.w3.org/Graphics/SVG/1.1/DTD/svg11.dtd">
<!-- Generated by graphviz version 2.40.1 (20161225.0304)
 -->
<!-- Title: a_graph Pages: 1 -->
<svg width="4261pt" height="200pt"
 viewBox="0.00 0.00 4261.00 200.00" xmlns="http://www.w3.org/2000/svg" xmlns:xlink="http://www.w3.org/1999/xlink">
<g id="graph0" class="graph" transform="scale(1 1) rotate(0) translate(4 196)">
<title>a_graph</title>
<polygon fill="#ffffff" stroke="transparent" points="-4,4 -4,-196 4257,-196 4257,4 -4,4"/>
<!-- T6277 -->
<g id="node1" class="node">
<title>T6277</title>
<polygon fill="none" stroke="#0058ad" points="1465,-162.5 1465,-191.5 4253,-191.5 4253,-162.5 1465,-162.5"/>
<text text-anchor="middle" x="1879" y="-173.3" font-family="Times,serif" font-size="14.00" fill="#0058ad">r 35 [1 2 4 6 7 8 9 10 11 12 13 16 17 14 15 18 19 20 21 22 24 23 28 29 30 25 26 27 31 32 33 34 36 37 35 38 39 40 41 42 43 44 45 47 48 49 50 51]</text>
<polyline fill="none" stroke="#0058ad" points="2293,-162.5 2293,-191.5 "/>
<text text-anchor="middle" x="2321.5" y="-173.3" font-family="Times,serif" font-size="14.00" fill="#0058ad">a 5 114</text>
<polyline fill="none" stroke="#0058ad" points="2350,-162.5 2350,-191.5 "/>
<text text-anchor="middle" x="3301.5" y="-173.3" font-family="Times,serif" font-size="14.00" fill="#0058ad">r 31 [1 2 3 4 5 6 8 9 10 11 12 13 14 15 16 17 18 19 20 21 22 23 24 25 26 28 29 30 31 32 33 34 35 37 36 38 39 40 41 42 43 44 46 45 48 49 50 51 53 55 56 57 59 58 60 61 62 63 64 65 66 67 68 69 70 71 72 73 74 75 76 77 78 79 80 81 82 83 84 85 86 87 88 89 90 91 92 93 94 95 96 97 98 99 100 101 102 103 104 105 106 107 108 109 110 111]</text>
</g>
<!-- T6271 -->
<g id="node3" class="node">
<title>T6271</title>
<polygon fill="none" stroke="#0058ad" points="0,-81.5 0,-110.5 2402,-110.5 2402,-81.5 0,-81.5"/>
<text text-anchor="middle" x="718" y="-92.3" font-family="Times,serif" font-size="14.00" fill="#0058ad">r 33 [1 2 3 4 5 6 7 8 9 10 11 12 13 14 18 19 20 21 22 23 24 25 26 27 28 29 30 31 32 33 34 35 36 37 38 39 40 42 43 41 44 45 46 47 48 49 50 51 52 55 56 53 54 57 58 59 60 61 62 63 64 65 66 67 68 69 70 73 74 77 80 81 82 83 84 85 86 87 88 89 90 91 92 93]</text>
<polyline fill="none" stroke="#0058ad" points="1436,-81.5 1436,-110.5 "/>
<text text-anchor="middle" x="1468" y="-92.3" font-family="Times,serif" font-size="14.00" fill="#0058ad">a 21 118</text>
<polyline fill="none" stroke="#0058ad" points="1500,-81.5 1500,-110.5 "/>
<text text-anchor="middle" x="1528.5" y="-92.3" font-family="Times,serif" font-size="14.00" fill="#0058ad">a 35 46</text>
<polyline fill="none" stroke="#0058ad" points="1557,-81.5 1557,-110.5 "/>
<text text-anchor="middle" x="1979.5" y="-92.3" font-family="Times,serif" font-size="14.00" fill="#0058ad">r 35 [1 2 4 6 7 8 9 10 11 12 13 16 17 14 15 18 19 20 21 22 24 23 28 29 30 25 26 27 31 32 33 34 36 37 35 38 39 40 41 42 43 44 45 47 48 49 50 51 46]</text>
</g>
<!-- T6277&#45;&gt;T6271 -->
<g id="edge1" class="edge">
<title>T6277:f0&#45;&gt;T6271:f2</title>
<path fill="none" stroke="#5b00c0" d="M1465,-177C1458.3333,-177 1462.1063,-168.0059 1465,-162 1479.0602,-132.8174 1518.8413,-144.0126 1527.3752,-121.116"/>
<polygon fill="#5b00c0" stroke="#5b00c0" points="1530.8698,-121.4285 1529,-111 1523.9584,-120.3184 1530.8698,-121.4285"/>
<text text-anchor="middle" x="1529.5" y="-132.8" font-family="Times,serif" font-size="14.00" fill="#5b00c0">rw</text>
</g>
<!-- T6269 -->
<g id="node2" class="node">
<title>T6269</title>
<polygon fill="none" stroke="#0058ad" points="1167.5,-.5 1167.5,-29.5 2558.5,-29.5 2558.5,-.5 1167.5,-.5"/>
<text text-anchor="middle" x="1834.5" y="-11.3" font-family="Times,serif" font-size="14.00" fill="#0058ad">r 5 [2 3 4 5 6 7 8 9 11 12 13 15 14 16 53 54 56 57 58 59 60 61 62 63 64 65 66 67 68 69 70 71 72 73 74 75 76 77 78 79 80 81 82 83 84 85 86 87 88 89 90 91 92 93 94 95 96 97 98 99 100 101 102 103 104 105 106 107 108 109 110 112 113]</text>
<polyline fill="none" stroke="#0058ad" points="2501.5,-.5 2501.5,-29.5 "/>
<text text-anchor="middle" x="2530" y="-11.3" font-family="Times,serif" font-size="14.00" fill="#0058ad">a 33 94</text>
</g>
<!-- T6269&#45;&gt;T6277 -->
<g id="edge2" class="edge">
<title>T6269:f0&#45;&gt;T6277:f1</title>
<path fill="none" stroke="#5b00c0" d="M1834,-30C1834,-61.1272 2367.6873,-31.3704 2394,-48 2418.5158,-63.494 2425.6017,-85.9425 2411,-111 2389.8413,-147.3097 2332.1674,-121.4385 2322.411,-151.8358"/>
<polygon fill="#5b00c0" stroke="#5b00c0" points="2318.9083,-151.6137 2321,-162 2325.8419,-152.5763 2318.9083,-151.6137"/>
<text text-anchor="middle" x="2425.5" y="-92.3" font-family="Times,serif" font-size="14.00" fill="#5b00c0">rw</text>
</g>
<!-- T6271&#45;&gt;T6269 -->
<g id="edge3" class="edge">
<title>T6271:f0&#45;&gt;T6269:f1</title>
<path fill="none" stroke="#5b00c0" d="M718,-81C718,-32.6628 2387.8033,-76.5333 2521.518,-35.5799"/>
<polygon fill="#5b00c0" stroke="#5b00c0" points="2523.5693,-38.42 2530,-30 2519.7221,-32.572 2523.5693,-38.42"/>
<text text-anchor="middle" x="2382.5" y="-51.8" font-family="Times,serif" font-size="14.00" fill="#5b00c0">rw</text>
</g>
</g>
</svg>
