<?xml version="1.0" encoding="UTF-8" standalone="no"?>
<!DOCTYPE svg PUBLIC "-//W3C//DTD SVG 1.1//EN"
 "http://www.w3.org/Graphics/SVG/1.1/DTD/svg11.dtd">
<!-- Generated by graphviz version 2.40.1 (20161225.0304)
 -->
<!-- Title: a_graph Pages: 1 -->
<svg width="1985pt" height="119pt"
 viewBox="0.00 0.00 1984.50 119.00" xmlns="http://www.w3.org/2000/svg" xmlns:xlink="http://www.w3.org/1999/xlink">
<g id="graph0" class="graph" transform="scale(1 1) rotate(0) translate(4 115)">
<title>a_graph</title>
<polygon fill="#ffffff" stroke="transparent" points="-4,4 -4,-115 1980.5,-115 1980.5,4 -4,4"/>
<!-- T5245 -->
<g id="node1" class="node">
<title>T5245</title>
<polygon fill="none" stroke="#0058ad" points="654.5,-81.5 654.5,-110.5 1976.5,-110.5 1976.5,-81.5 654.5,-81.5"/>
<text text-anchor="middle" x="1042.5" y="-92.3" font-family="Times,serif" font-size="14.00" fill="#0058ad">r 29 [1 2 4 3 5 7 8 10 11 13 14 15 16 17 18 19 20 21 22 23 24 25 26 27 28 29 30 31 32 33 34 35 36 37 38 40 39 41 42 43 44 45 46 47 48]</text>
<polyline fill="none" stroke="#0058ad" points="1430.5,-81.5 1430.5,-110.5 "/>
<text text-anchor="middle" x="1462.5" y="-92.3" font-family="Times,serif" font-size="14.00" fill="#0058ad">a 30 106</text>
<polyline fill="none" stroke="#0058ad" points="1494.5,-81.5 1494.5,-110.5 "/>
<text text-anchor="middle" x="1523" y="-92.3" font-family="Times,serif" font-size="14.00" fill="#0058ad">a 31 26</text>
<polyline fill="none" stroke="#0058ad" points="1551.5,-81.5 1551.5,-110.5 "/>
<text text-anchor="middle" x="1764" y="-92.3" font-family="Times,serif" font-size="14.00" fill="#0058ad">r 31 [1 2 3 4 5 6 8 9 10 11 12 13 14 15 16 17 18 19 20 21 22 23 24 25 26]</text>
</g>
<!-- T5243 -->
<g id="node2" class="node">
<title>T5243</title>
<polygon fill="none" stroke="#0058ad" points="0,-.5 0,-29.5 1709,-29.5 1709,-.5 0,-.5"/>
<text text-anchor="middle" x="826" y="-11.3" font-family="Times,serif" font-size="14.00" fill="#0058ad">r 30 [1 2 3 4 5 6 9 10 8 11 7 12 14 16 18 19 20 21 22 23 24 29 30 31 32 33 34 35 36 38 39 40 41 42 43 44 45 46 47 48 49 50 51 52 53 54 55 56 57 58 59 60 61 63 64 65 62 66 67 68 69 71 70 72 73 74 76 77 75 79 80 81 82 78 83 84 86 85 87 88 89 90 91 93 94 95 96 92 97 98 99 100 101 102 105]</text>
<polyline fill="none" stroke="#0058ad" points="1652,-.5 1652,-29.5 "/>
<text text-anchor="middle" x="1680.5" y="-11.3" font-family="Times,serif" font-size="14.00" fill="#0058ad">a 29 50</text>
</g>
<!-- T5245&#45;&gt;T5243 -->
<g id="edge1" class="edge">
<title>T5245:f0&#45;&gt;T5243:f1</title>
<path fill="none" stroke="#5b00c0" d="M1042.5,-81C1042.5,47.8375 1202.1032,-58.6472 1330.5,-48 1348.0087,-46.5481 1618.8981,-48.9135 1671.6393,-35.0844"/>
<polygon fill="#5b00c0" stroke="#5b00c0" points="1673.5684,-38.0127 1680.5,-30 1670.0845,-31.9413 1673.5684,-38.0127"/>
<text text-anchor="middle" x="1338" y="-51.8" font-family="Times,serif" font-size="14.00" fill="#5b00c0">rw</text>
</g>
<!-- T5243&#45;&gt;T5245 -->
<g id="edge2" class="edge">
<title>T5243:f0&#45;&gt;T5245:f1</title>
<path fill="none" stroke="#5b00c0" d="M825.5,-30C825.5,-44.4531 1331.2196,-45.7722 1345.5,-48 1395.1296,-55.7424 1453.6045,-30.9132 1461.5821,-70.798"/>
<polygon fill="#5b00c0" stroke="#5b00c0" points="1458.1179,-71.3539 1462.5,-81 1465.0898,-70.7266 1458.1179,-71.3539"/>
<text text-anchor="middle" x="1466" y="-51.8" font-family="Times,serif" font-size="14.00" fill="#5b00c0">rw</text>
</g>
</g>
</svg>
