<?xml version="1.0" encoding="UTF-8" standalone="no"?>
<!DOCTYPE svg PUBLIC "-//W3C//DTD SVG 1.1//EN"
 "http://www.w3.org/Graphics/SVG/1.1/DTD/svg11.dtd">
<!-- Generated by graphviz version 2.40.1 (20161225.0304)
 -->
<!-- Title: a_graph Pages: 1 -->
<svg width="5045pt" height="119pt"
 viewBox="0.00 0.00 5044.50 119.00" xmlns="http://www.w3.org/2000/svg" xmlns:xlink="http://www.w3.org/1999/xlink">
<g id="graph0" class="graph" transform="scale(1 1) rotate(0) translate(4 115)">
<title>a_graph</title>
<polygon fill="#ffffff" stroke="transparent" points="-4,4 -4,-115 5040.5,-115 5040.5,4 -4,4"/>
<!-- T10403 -->
<g id="node1" class="node">
<title>T10403</title>
<polygon fill="none" stroke="#0058ad" points="0,-81.5 0,-110.5 2756,-110.5 2756,-81.5 0,-81.5"/>
<text text-anchor="middle" x="673" y="-92.3" font-family="Times,serif" font-size="14.00" fill="#0058ad">r 56 [1 2 3 4 5 6 7 10 12 11 13 14 15 16 19 17 18 20 21 22 23 24 26 27 28 29 25 30 31 32 34 35 33 36 37 38 39 41 42 40 43 46 47 44 45 48 49 52 53 50 51 54 56 59 57 58 61 55 62 63 64 65 66 67 68 71 72 73 74 75 76 77 78 79 81 82 83 80]</text>
<polyline fill="none" stroke="#0058ad" points="1346,-81.5 1346,-110.5 "/>
<text text-anchor="middle" x="2019" y="-92.3" font-family="Times,serif" font-size="14.00" fill="#0058ad">r 56 [1 2 3 4 5 6 7 10 12 11 13 14 15 16 19 17 18 20 21 22 23 24 26 27 28 29 25 30 31 32 34 35 33 36 37 38 39 41 42 40 43 46 47 44 45 48 49 52 53 50 51 54 56 59 57 58 61 55 62 63 64 65 66 67 68 71 72 73 74 75 76 77 78 79 81 82 83 80]</text>
<polyline fill="none" stroke="#0058ad" points="2692,-81.5 2692,-110.5 "/>
<text text-anchor="middle" x="2724" y="-92.3" font-family="Times,serif" font-size="14.00" fill="#0058ad">a 52 128</text>
</g>
<!-- T10397 -->
<g id="node2" class="node">
<title>T10397</title>
<polygon fill="none" stroke="#0058ad" points="1331.5,-.5 1331.5,-29.5 5036.5,-29.5 5036.5,-.5 1331.5,-.5"/>
<text text-anchor="middle" x="1360" y="-11.3" font-family="Times,serif" font-size="14.00" fill="#0058ad">a 56 84</text>
<polyline fill="none" stroke="#0058ad" points="1388.5,-.5 1388.5,-29.5 "/>
<text text-anchor="middle" x="2494" y="-11.3" font-family="Times,serif" font-size="14.00" fill="#0058ad">r 52 [1 2 3 4 5 6 7 8 9 10 11 13 12 14 15 16 17 18 19 20 21 22 23 24 25 27 28 29 30 31 26 32 33 35 36 37 34 38 39 40 41 42 43 44 45 46 47 48 49 50 51 53 55 54 58 59 60 61 62 63 64 65 66 70 71 72 73 76 77 78 79 81 82 80 74 85 86 87 88 89 90 92 93 91 94 95 96 97 98 99 100 101 102 103 104 105 106 107 108 109 110 111 112 113 114 115 116 117 118 119 120 121 122 123 124 125 126 127]</text>
<polyline fill="none" stroke="#0058ad" points="3599.5,-.5 3599.5,-29.5 "/>
<text text-anchor="middle" x="3628" y="-11.3" font-family="Times,serif" font-size="14.00" fill="#0058ad">a 56 85</text>
<polyline fill="none" stroke="#0058ad" points="3656.5,-.5 3656.5,-29.5 "/>
<text text-anchor="middle" x="4346.5" y="-11.3" font-family="Times,serif" font-size="14.00" fill="#0058ad">r 56 [1 2 3 4 5 6 7 10 12 11 13 14 15 16 19 17 18 20 21 22 23 24 26 27 28 29 25 30 31 32 34 35 33 36 37 38 39 41 42 40 43 46 47 44 45 48 49 52 53 50 51 54 56 59 57 58 61 55 62 63 64 65 66 67 68 71 72 73 74 75 76 77 78 79 81 82 83 80 84 85]</text>
</g>
<!-- T10403&#45;&gt;T10397 -->
<g id="edge1" class="edge">
<title>T10403:f0&#45;&gt;T10397:f0</title>
<path fill="none" stroke="#5b00c0" d="M673,-81C673,-46.1625 1231.6151,-18.049 1320.765,-15.2321"/>
<polygon fill="#5b00c0" stroke="#5b00c0" points="1321.082,-18.7259 1331,-15 1320.9232,-11.7277 1321.082,-18.7259"/>
<text text-anchor="middle" x="832.5" y="-51.8" font-family="Times,serif" font-size="14.00" fill="#5b00c0">rw</text>
</g>
<!-- T10397&#45;&gt;T10403 -->
<g id="edge2" class="edge">
<title>T10397:f1&#45;&gt;T10403:f2</title>
<path fill="none" stroke="#5b00c0" d="M2494,-30C2494,-131.0241 2708.1124,12.8921 2723.1672,-70.9096"/>
<polygon fill="#5b00c0" stroke="#5b00c0" points="2719.6892,-71.3218 2724,-81 2726.6655,-70.746 2719.6892,-71.3218"/>
<text text-anchor="middle" x="2726.5" y="-51.8" font-family="Times,serif" font-size="14.00" fill="#5b00c0">rw</text>
</g>
</g>
</svg>
