<?xml version="1.0" encoding="UTF-8" standalone="no"?>
<!DOCTYPE svg PUBLIC "-//W3C//DTD SVG 1.1//EN"
 "http://www.w3.org/Graphics/SVG/1.1/DTD/svg11.dtd">
<!-- Generated by graphviz version 2.40.1 (20161225.0304)
 -->
<!-- Title: a_graph Pages: 1 -->
<svg width="3514pt" height="119pt"
 viewBox="0.00 0.00 3514.00 119.00" xmlns="http://www.w3.org/2000/svg" xmlns:xlink="http://www.w3.org/1999/xlink">
<g id="graph0" class="graph" transform="scale(1 1) rotate(0) translate(4 115)">
<title>a_graph</title>
<polygon fill="#ffffff" stroke="transparent" points="-4,4 -4,-115 3510,-115 3510,4 -4,4"/>
<!-- T16351 -->
<g id="node1" class="node">
<title>T16351</title>
<polygon fill="none" stroke="#0058ad" points="0,-81.5 0,-110.5 1926,-110.5 1926,-81.5 0,-81.5"/>
<text text-anchor="middle" x="755.5" y="-92.3" font-family="Times,serif" font-size="14.00" fill="#0058ad">r 80 [1 3 4 5 6 7 9 8 10 11 12 13 14 15 16 17 18 19 20 21 22 23 25 26 24 27 28 29 30 31 32 34 33 35 36 37 38 39 40 41 44 42 47 48 49 50 52 53 54 51 55 56 57 59 60 61 62 63 64 65 66 67 70 71 72 68 69 73 74 76 77 78 79 80 82 81 83 84 86 87 85 88 90 91 92 93 94 95]</text>
<polyline fill="none" stroke="#0058ad" points="1511,-81.5 1511,-110.5 "/>
<text text-anchor="middle" x="1654.5" y="-92.3" font-family="Times,serif" font-size="14.00" fill="#0058ad">r 85 [3 4 2 5 6 7 8 9 10 11 12 13 14 15 16 17 18]</text>
<polyline fill="none" stroke="#0058ad" points="1798,-81.5 1798,-110.5 "/>
<text text-anchor="middle" x="1830" y="-92.3" font-family="Times,serif" font-size="14.00" fill="#0058ad">a 83 116</text>
<polyline fill="none" stroke="#0058ad" points="1862,-81.5 1862,-110.5 "/>
<text text-anchor="middle" x="1894" y="-92.3" font-family="Times,serif" font-size="14.00" fill="#0058ad">a 83 117</text>
</g>
<!-- T16349 -->
<g id="node2" class="node">
<title>T16349</title>
<polygon fill="none" stroke="#0058ad" points="1408,-.5 1408,-29.5 3506,-29.5 3506,-.5 1408,-.5"/>
<text text-anchor="middle" x="1436.5" y="-11.3" font-family="Times,serif" font-size="14.00" fill="#0058ad">a 85 22</text>
<polyline fill="none" stroke="#0058ad" points="1465,-.5 1465,-29.5 "/>
<text text-anchor="middle" x="1493.5" y="-11.3" font-family="Times,serif" font-size="14.00" fill="#0058ad">a 84 18</text>
<polyline fill="none" stroke="#0058ad" points="1522,-.5 1522,-29.5 "/>
<text text-anchor="middle" x="2485.5" y="-11.3" font-family="Times,serif" font-size="14.00" fill="#0058ad">r 83 [2 3 4 5 6 7 9 10 11 8 12 13 16 14 15 17 18 19 20 21 22 23 24 26 25 27 28 32 29 30 31 33 34 35 38 36 37 39 41 42 43 44 45 46 47 40 48 51 52 53 54 55 56 49 50 58 59 60 61 57 62 63 64 66 67 65 70 71 73 74 76 77 68 80 81 82 83 79 85 86 87 88 89 90 84 91 92 93 94 95 96 97 98 99 100 101 105 106 108 109 110 111 112 113 114 107 115]</text>
<polyline fill="none" stroke="#0058ad" points="3449,-.5 3449,-29.5 "/>
<text text-anchor="middle" x="3477.5" y="-11.3" font-family="Times,serif" font-size="14.00" fill="#0058ad">a 80 96</text>
</g>
<!-- T16351&#45;&gt;T16349 -->
<g id="edge1" class="edge">
<title>T16351:f1&#45;&gt;T16349:f0</title>
<path fill="none" stroke="#5b00c0" d="M1655,-81C1655,15.2291 1451.9523,-119.231 1436.8824,-40.1234"/>
<polygon fill="#5b00c0" stroke="#5b00c0" points="1440.3552,-39.6583 1436,-30 1433.3816,-40.2662 1440.3552,-39.6583"/>
<text text-anchor="middle" x="1659.5" y="-51.8" font-family="Times,serif" font-size="14.00" fill="#5b00c0">rw</text>
</g>
<!-- T16349&#45;&gt;T16351 -->
<g id="edge2" class="edge">
<title>T16349:f2&#45;&gt;T16351:f2</title>
<path fill="none" stroke="#5b00c0" d="M2486,-30C2486,-172.6479 1861.6402,53.6599 1831.1539,-70.9726"/>
<polygon fill="#5b00c0" stroke="#5b00c0" points="1827.6663,-70.6654 1830,-81 1834.6204,-71.4657 1827.6663,-70.6654"/>
<text text-anchor="middle" x="2486.5" y="-51.8" font-family="Times,serif" font-size="14.00" fill="#5b00c0">rw</text>
</g>
</g>
</svg>
