<?xml version="1.0" encoding="UTF-8" standalone="no"?>
<!DOCTYPE svg PUBLIC "-//W3C//DTD SVG 1.1//EN"
 "http://www.w3.org/Graphics/SVG/1.1/DTD/svg11.dtd">
<!-- Generated by graphviz version 2.40.1 (20161225.0304)
 -->
<!-- Title: a_graph Pages: 1 -->
<svg width="1711pt" height="119pt"
 viewBox="0.00 0.00 1711.21 119.00" xmlns="http://www.w3.org/2000/svg" xmlns:xlink="http://www.w3.org/1999/xlink">
<g id="graph0" class="graph" transform="scale(1 1) rotate(0) translate(4 115)">
<title>a_graph</title>
<polygon fill="#ffffff" stroke="transparent" points="-4,4 -4,-115 1707.2145,-115 1707.2145,4 -4,4"/>
<!-- T235 -->
<g id="node1" class="node">
<title>T235</title>
<polygon fill="none" stroke="#0058ad" points="319.5,-81.5 319.5,-110.5 1698.5,-110.5 1698.5,-81.5 319.5,-81.5"/>
<text text-anchor="middle" x="344.5" y="-92.3" font-family="Times,serif" font-size="14.00" fill="#0058ad">a 6 15</text>
<polyline fill="none" stroke="#0058ad" points="369.5,-81.5 369.5,-110.5 "/>
<text text-anchor="middle" x="391.5" y="-92.3" font-family="Times,serif" font-size="14.00" fill="#0058ad">a 4 6</text>
<polyline fill="none" stroke="#0058ad" points="413.5,-81.5 413.5,-110.5 "/>
<text text-anchor="middle" x="435.5" y="-92.3" font-family="Times,serif" font-size="14.00" fill="#0058ad">a 4 7</text>
<polyline fill="none" stroke="#0058ad" points="457.5,-81.5 457.5,-110.5 "/>
<text text-anchor="middle" x="1078" y="-92.3" font-family="Times,serif" font-size="14.00" fill="#0058ad">r 9 [7 12 13 19 20 18 22 23 24 25 26 27 28 29 30 33 31 32 34 35 37 38 39 40 36 41 42 44 43 45 46 47 48 49 50 51 52 53 54 55 56 57 60 58 59 61 62 63 64 65 66 68 67 69 70 71 73 74 72 76 75 77 79 80 81 82 78 83 84 85]</text>
</g>
<!-- T233 -->
<g id="node2" class="node">
<title>T233</title>
<polygon fill="none" stroke="#0058ad" points="0,-.5 0,-29.5 1552,-29.5 1552,-.5 0,-.5"/>
<text text-anchor="middle" x="105.5" y="-11.3" font-family="Times,serif" font-size="14.00" fill="#0058ad">r 6 [2 3 4 5 6 7 8 9 10 11 12 13 14]</text>
<polyline fill="none" stroke="#0058ad" points="211,-.5 211,-29.5 "/>
<text text-anchor="middle" x="831.5" y="-11.3" font-family="Times,serif" font-size="14.00" fill="#0058ad">r 9 [7 12 13 19 20 18 22 23 24 25 26 27 28 29 30 33 31 32 34 35 37 38 39 40 36 41 42 44 43 45 46 47 48 49 50 51 52 53 54 55 56 57 60 58 59 61 62 63 64 65 66 68 67 69 70 71 73 74 72 76 75 77 79 80 81 82 78 83 84 85]</text>
<polyline fill="none" stroke="#0058ad" points="1452,-.5 1452,-29.5 "/>
<text text-anchor="middle" x="1477" y="-11.3" font-family="Times,serif" font-size="14.00" fill="#0058ad">a 9 86</text>
<polyline fill="none" stroke="#0058ad" points="1502,-.5 1502,-29.5 "/>
<text text-anchor="middle" x="1527" y="-11.3" font-family="Times,serif" font-size="14.00" fill="#0058ad">a 9 87</text>
</g>
<!-- T235&#45;&gt;T233 -->
<g id="edge1" class="edge">
<title>T235:f3&#45;&gt;T233:f2</title>
<path fill="none" stroke="#5b00c0" d="M1699,-96C1705.6667,-96 1703.1529,-86.2151 1699,-81 1638.2761,-4.7442 1488.664,-121.9179 1477.6436,-40.34"/>
<polygon fill="#5b00c0" stroke="#5b00c0" points="1481.1146,-39.7632 1477,-30 1474.1281,-40.1981 1481.1146,-39.7632"/>
<text text-anchor="middle" x="1679.5" y="-51.8" font-family="Times,serif" font-size="14.00" fill="#5b00c0">rw</text>
</g>
<!-- T233&#45;&gt;T235 -->
<g id="edge2" class="edge">
<title>T233:f0&#45;&gt;T235:f0</title>
<path fill="none" stroke="#5b00c0" d="M105,-30C105,-76.7527 249.9485,-93.9112 308.7635,-95.8176"/>
<polygon fill="#5b00c0" stroke="#5b00c0" points="308.9392,-99.3212 319,-96 309.064,-92.3223 308.9392,-99.3212"/>
<text text-anchor="middle" x="141.5" y="-51.8" font-family="Times,serif" font-size="14.00" fill="#5b00c0">rw</text>
</g>
</g>
</svg>
