<?xml version="1.0" encoding="UTF-8" standalone="no"?>
<!DOCTYPE svg PUBLIC "-//W3C//DTD SVG 1.1//EN"
 "http://www.w3.org/Graphics/SVG/1.1/DTD/svg11.dtd">
<!-- Generated by graphviz version 2.40.1 (20161225.0304)
 -->
<!-- Title: a_graph Pages: 1 -->
<svg width="4956pt" height="119pt"
 viewBox="0.00 0.00 4956.00 119.00" xmlns="http://www.w3.org/2000/svg" xmlns:xlink="http://www.w3.org/1999/xlink">
<g id="graph0" class="graph" transform="scale(1 1) rotate(0) translate(4 115)">
<title>a_graph</title>
<polygon fill="#ffffff" stroke="transparent" points="-4,4 -4,-115 4952,-115 4952,4 -4,4"/>
<!-- T3657 -->
<g id="node1" class="node">
<title>T3657</title>
<polygon fill="none" stroke="#0058ad" points="1670,-81.5 1670,-110.5 4948,-110.5 4948,-81.5 1670,-81.5"/>
<text text-anchor="middle" x="2172" y="-92.3" font-family="Times,serif" font-size="14.00" fill="#0058ad">r 23 [1 2 3 4 5 6 7 11 12 13 14 8 9 10 15 16 18 19 17 20 21 22 23 24 25 26 27 28 29 30 31 32 33 34 35 37 38 39 42 44 45 46 47 48 50 49 51 52 53 54 55 57 56 58 59 60 61 63 62]</text>
<polyline fill="none" stroke="#0058ad" points="2674,-81.5 2674,-110.5 "/>
<text text-anchor="middle" x="2706" y="-92.3" font-family="Times,serif" font-size="14.00" fill="#0058ad">a 22 124</text>
<polyline fill="none" stroke="#0058ad" points="2738,-81.5 2738,-110.5 "/>
<text text-anchor="middle" x="2770" y="-92.3" font-family="Times,serif" font-size="14.00" fill="#0058ad">a 22 125</text>
<polyline fill="none" stroke="#0058ad" points="2802,-81.5 2802,-110.5 "/>
<text text-anchor="middle" x="3875" y="-92.3" font-family="Times,serif" font-size="14.00" fill="#0058ad">r 22 [1 2 3 4 5 7 6 9 8 10 11 12 13 14 15 16 17 18 19 20 21 22 23 24 25 27 28 29 30 31 32 33 26 34 36 37 38 39 40 41 35 42 43 44 45 46 47 48 49 50 51 52 53 54 55 56 57 58 59 60 61 62 63 66 65 64 67 68 69 71 72 73 70 75 77 78 74 82 83 87 88 90 91 92 89 93 96 94 98 100 101 102 103 105 106 107 108 104 109 110 111 112 113 114 115 116 118 119 117 120 121 122 123 124 125]</text>
</g>
<!-- T3655 -->
<g id="node2" class="node">
<title>T3655</title>
<polygon fill="none" stroke="#0058ad" points="0,-.5 0,-29.5 3508,-29.5 3508,-.5 0,-.5"/>
<text text-anchor="middle" x="174.5" y="-11.3" font-family="Times,serif" font-size="14.00" fill="#0058ad">r 21 [1 2 3 4 5 6 7 8 9 10 11 12 13 14 15 16 17 18 19 20 21]</text>
<polyline fill="none" stroke="#0058ad" points="349,-.5 349,-29.5 "/>
<text text-anchor="middle" x="1398" y="-11.3" font-family="Times,serif" font-size="14.00" fill="#0058ad">r 22 [1 2 3 4 5 7 6 9 8 10 11 12 13 14 15 16 17 18 19 20 21 22 23 24 25 27 28 29 30 31 32 33 26 34 36 37 38 39 40 41 35 42 43 44 45 46 47 48 49 50 51 52 53 54 55 56 57 58 59 60 61 62 63 66 65 64 67 68 69 71 72 73 70 75 77 78 74 82 83 87 88 90 91 92 89 93 96 94 98 100 101 102 103 105 106 107 108 104 109 110 111 112 113 114 115 116 118 119 117 120 121 122 123]</text>
<polyline fill="none" stroke="#0058ad" points="2447,-.5 2447,-29.5 "/>
<text text-anchor="middle" x="2949" y="-11.3" font-family="Times,serif" font-size="14.00" fill="#0058ad">r 23 [1 2 3 4 5 6 7 11 12 13 14 8 9 10 15 16 18 19 17 20 21 22 23 24 25 26 27 28 29 30 31 32 33 34 35 37 38 39 42 44 45 46 47 48 50 49 51 52 53 54 55 57 56 58 59 60 61 63 62]</text>
<polyline fill="none" stroke="#0058ad" points="3451,-.5 3451,-29.5 "/>
<text text-anchor="middle" x="3479.5" y="-11.3" font-family="Times,serif" font-size="14.00" fill="#0058ad">a 23 64</text>
</g>
<!-- T3657&#45;&gt;T3655 -->
<g id="edge1" class="edge">
<title>T3657:f0&#45;&gt;T3655:f3</title>
<path fill="none" stroke="#5b00c0" d="M2172,-81C2172,2.2127 2461.9075,-52.4702 2545,-48 2557.1718,-47.3452 3369.988,-43.5056 3469.9564,-32.3"/>
<polygon fill="#5b00c0" stroke="#5b00c0" points="3471.0336,-35.644 3480,-30 3469.471,-28.8206 3471.0336,-35.644"/>
<text text-anchor="middle" x="2552.5" y="-51.8" font-family="Times,serif" font-size="14.00" fill="#5b00c0">rw</text>
</g>
<!-- T3655&#45;&gt;T3657 -->
<g id="edge2" class="edge">
<title>T3655:f1&#45;&gt;T3657:f1</title>
<path fill="none" stroke="#5b00c0" d="M1398,-30C1398,-46.1408 2543.9731,-46.0855 2560,-48 2622.3147,-55.4437 2696.9884,-19.0077 2705.2476,-70.7061"/>
<polygon fill="#5b00c0" stroke="#5b00c0" points="2701.7803,-71.2818 2706,-81 2708.7617,-70.7714 2701.7803,-71.2818"/>
<text text-anchor="middle" x="2709.5" y="-51.8" font-family="Times,serif" font-size="14.00" fill="#5b00c0">rw</text>
</g>
</g>
</svg>
