<?xml version="1.0" encoding="UTF-8" standalone="no"?>
<!DOCTYPE svg PUBLIC "-//W3C//DTD SVG 1.1//EN"
 "http://www.w3.org/Graphics/SVG/1.1/DTD/svg11.dtd">
<!-- Generated by graphviz version 2.40.1 (20161225.0304)
 -->
<!-- Title: a_graph Pages: 1 -->
<svg width="3082pt" height="119pt"
 viewBox="0.00 0.00 3082.00 119.00" xmlns="http://www.w3.org/2000/svg" xmlns:xlink="http://www.w3.org/1999/xlink">
<g id="graph0" class="graph" transform="scale(1 1) rotate(0) translate(4 115)">
<title>a_graph</title>
<polygon fill="#ffffff" stroke="transparent" points="-4,4 -4,-115 3078,-115 3078,4 -4,4"/>
<!-- T19143 -->
<g id="node1" class="node">
<title>T19143</title>
<polygon fill="none" stroke="#0058ad" points="0,-81.5 0,-110.5 3074,-110.5 3074,-81.5 0,-81.5"/>
<text text-anchor="middle" x="65.5" y="-92.3" font-family="Times,serif" font-size="14.00" fill="#0058ad">r 0 [1 2 3 4 5 6 9 10]</text>
<polyline fill="none" stroke="#0058ad" points="131,-81.5 131,-110.5 "/>
<text text-anchor="middle" x="159.5" y="-92.3" font-family="Times,serif" font-size="14.00" fill="#0058ad">a 94 70</text>
<polyline fill="none" stroke="#0058ad" points="188,-81.5 188,-110.5 "/>
<text text-anchor="middle" x="1215" y="-92.3" font-family="Times,serif" font-size="14.00" fill="#0058ad">r 84 [1 2 3 4 5 6 7 8 9 11 12 13 14 15 16 17 18 19 20 21 22 23 24 25 26 27 28 29 30 34 33 31 32 35 36 37 38 39 40 41 43 44 45 47 48 49 50 51 53 52 54 56 58 59 60 61 62 63 64 65 66 67 68 69 70 71 72 74 73 75 76 77 78 79 80 81 82 83 84 85 86 87 88 91 92 93 94 95 96 97 98 99 100 101 102 103 104 105 106 107 108 109 110 111 112 113 115 114 116 117 118 119]</text>
<polyline fill="none" stroke="#0058ad" points="2242,-81.5 2242,-110.5 "/>
<text text-anchor="middle" x="2658" y="-92.3" font-family="Times,serif" font-size="14.00" fill="#0058ad">r 97 [2 1 4 3 5 6 7 8 9 10 11 12 13 14 17 15 16 22 18 19 23 20 21 25 24 26 28 27 29 30 31 32 33 34 35 36 37 38 41 39 40 42 44 43 47 45 46 48 49]</text>
</g>
<!-- T19141 -->
<g id="node2" class="node">
<title>T19141</title>
<polygon fill="none" stroke="#0058ad" points="479,-.5 479,-29.5 2775,-29.5 2775,-.5 479,-.5"/>
<text text-anchor="middle" x="507.5" y="-11.3" font-family="Times,serif" font-size="14.00" fill="#0058ad">a 97 50</text>
<polyline fill="none" stroke="#0058ad" points="536,-.5 536,-29.5 "/>
<text text-anchor="middle" x="1081.5" y="-11.3" font-family="Times,serif" font-size="14.00" fill="#0058ad">r 94 [1 2 3 4 5 7 8 6 9 10 11 12 13 15 14 16 18 17 19 20 21 22 23 24 26 25 27 28 29 31 32 33 34 35 36 37 38 39 41 43 45 47 48 49 50 51 52 53 55 56 54 57 58 59 60 61 62 63 64 65 66 67 68 69]</text>
<polyline fill="none" stroke="#0058ad" points="1627,-.5 1627,-29.5 "/>
<text text-anchor="middle" x="2172.5" y="-11.3" font-family="Times,serif" font-size="14.00" fill="#0058ad">r 94 [1 2 3 4 5 7 8 6 9 10 11 12 13 15 14 16 18 17 19 20 21 22 23 24 26 25 27 28 29 31 32 33 34 35 36 37 38 39 41 43 45 47 48 49 50 51 52 53 55 56 54 57 58 59 60 61 62 63 64 65 66 67 68 69]</text>
<polyline fill="none" stroke="#0058ad" points="2718,-.5 2718,-29.5 "/>
<text text-anchor="middle" x="2746.5" y="-11.3" font-family="Times,serif" font-size="14.00" fill="#0058ad">a 97 51</text>
</g>
<!-- T19143&#45;&gt;T19141 -->
<g id="edge1" class="edge">
<title>T19143:f3&#45;&gt;T19141:f0</title>
<path fill="none" stroke="#5b00c0" d="M2658,-81C2658,-52.2839 671.7647,-59.2575 516.5901,-33.3296"/>
<polygon fill="#5b00c0" stroke="#5b00c0" points="517.5948,-29.9736 507,-30 515.2988,-36.5864 517.5948,-29.9736"/>
<text text-anchor="middle" x="2200.5" y="-51.8" font-family="Times,serif" font-size="14.00" fill="#5b00c0">rw</text>
</g>
<!-- T19141&#45;&gt;T19143 -->
<g id="edge2" class="edge">
<title>T19141:f1&#45;&gt;T19143:f1</title>
<path fill="none" stroke="#5b00c0" d="M1081,-30C1081,-54.1473 263.8814,-55.2959 168.1254,-76.748"/>
<polygon fill="#5b00c0" stroke="#5b00c0" points="166.5861,-73.6039 159,-81 169.5426,-79.9489 166.5861,-73.6039"/>
<text text-anchor="middle" x="865.5" y="-51.8" font-family="Times,serif" font-size="14.00" fill="#5b00c0">rw</text>
</g>
</g>
</svg>
