<?xml version="1.0" encoding="UTF-8" standalone="no"?>
<!DOCTYPE svg PUBLIC "-//W3C//DTD SVG 1.1//EN"
 "http://www.w3.org/Graphics/SVG/1.1/DTD/svg11.dtd">
<!-- Generated by graphviz version 2.40.1 (20161225.0304)
 -->
<!-- Title: a_graph Pages: 1 -->
<svg width="3354pt" height="119pt"
 viewBox="0.00 0.00 3354.00 119.00" xmlns="http://www.w3.org/2000/svg" xmlns:xlink="http://www.w3.org/1999/xlink">
<g id="graph0" class="graph" transform="scale(1 1) rotate(0) translate(4 115)">
<title>a_graph</title>
<polygon fill="#ffffff" stroke="transparent" points="-4,4 -4,-115 3350,-115 3350,4 -4,4"/>
<!-- T17989 -->
<g id="node1" class="node">
<title>T17989</title>
<polygon fill="none" stroke="#0058ad" points="0,-81.5 0,-110.5 3346,-110.5 3346,-81.5 0,-81.5"/>
<text text-anchor="middle" x="28.5" y="-92.3" font-family="Times,serif" font-size="14.00" fill="#0058ad">a 92 33</text>
<polyline fill="none" stroke="#0058ad" points="57,-81.5 57,-110.5 "/>
<text text-anchor="middle" x="740.5" y="-92.3" font-family="Times,serif" font-size="14.00" fill="#0058ad">r 91 [1 2 4 6 7 5 8 9 10 11 3 13 12 14 15 16 17 18 20 21 22 23 26 27 24 25 28 29 30 31 35 36 37 39 38 40 42 44 45 46 43 47 48 49 50 51 52 53 55 56 57 54 58 59 60 61 62 65 66 67 63 64 68 69 70 71 72 73 74 76 77 78 79 75 82 83 80 81 84 85]</text>
<polyline fill="none" stroke="#0058ad" points="1424,-81.5 1424,-110.5 "/>
<text text-anchor="middle" x="1452.5" y="-92.3" font-family="Times,serif" font-size="14.00" fill="#0058ad">a 92 34</text>
<polyline fill="none" stroke="#0058ad" points="1481,-81.5 1481,-110.5 "/>
<text text-anchor="middle" x="2413.5" y="-92.3" font-family="Times,serif" font-size="14.00" fill="#0058ad">r 87 [1 2 3 4 6 7 8 9 10 12 11 13 15 14 16 17 18 19 20 21 22 23 24 25 26 27 28 29 30 31 32 34 36 37 35 38 39 40 41 42 43 44 45 46 47 48 49 50 51 52 53 54 55 56 57 58 59 60 61 62 63 64 65 66 68 67 69 70 71 72 73 74 75 76 77 79 78 80 82 83 84 85 86 87 88 89 90 91 92 93 94 95 96 97 98 99 100 101 102 103 104 105 106 107 108]</text>
</g>
<!-- T17987 -->
<g id="node2" class="node">
<title>T17987</title>
<polygon fill="none" stroke="#0058ad" points="181,-.5 181,-29.5 823,-29.5 823,-.5 181,-.5"/>
<text text-anchor="middle" x="209.5" y="-11.3" font-family="Times,serif" font-size="14.00" fill="#0058ad">a 91 88</text>
<polyline fill="none" stroke="#0058ad" points="238,-.5 238,-29.5 "/>
<text text-anchor="middle" x="266.5" y="-11.3" font-family="Times,serif" font-size="14.00" fill="#0058ad">a 91 89</text>
<polyline fill="none" stroke="#0058ad" points="295,-.5 295,-29.5 "/>
<text text-anchor="middle" x="559" y="-11.3" font-family="Times,serif" font-size="14.00" fill="#0058ad">r 92 [1 2 3 5 6 4 8 9 10 11 12 13 14 15 16 17 18 20 19 21 22 23 25 24 26 28 29 30 31 27 32]</text>
</g>
<!-- T17989&#45;&gt;T17987 -->
<g id="edge1" class="edge">
<title>T17989:f1&#45;&gt;T17987:f0</title>
<path fill="none" stroke="#5b00c0" d="M740,-81C740,-25.0857 267.4488,-82.027 213.9176,-38.8971"/>
<polygon fill="#5b00c0" stroke="#5b00c0" points="216.9008,-37.059 209,-30 210.7743,-40.4452 216.9008,-37.059"/>
<text text-anchor="middle" x="718.5" y="-51.8" font-family="Times,serif" font-size="14.00" fill="#5b00c0">rw</text>
</g>
<!-- T17987&#45;&gt;T17989 -->
<g id="edge2" class="edge">
<title>T17987:f2&#45;&gt;T17989:f0</title>
<path fill="none" stroke="#5b00c0" d="M559,-30C559,-48.9708 236.8512,-45.8731 218,-48 136.4913,-57.1965 36.9727,-.514 28.5708,-70.7541"/>
<polygon fill="#5b00c0" stroke="#5b00c0" points="25.0617,-70.8208 28,-81 32.0509,-71.2102 25.0617,-70.8208"/>
<text text-anchor="middle" x="225.5" y="-51.8" font-family="Times,serif" font-size="14.00" fill="#5b00c0">rw</text>
</g>
</g>
</svg>
