<?xml version="1.0" encoding="UTF-8" standalone="no"?>
<!DOCTYPE svg PUBLIC "-//W3C//DTD SVG 1.1//EN"
 "http://www.w3.org/Graphics/SVG/1.1/DTD/svg11.dtd">
<!-- Generated by graphviz version 2.40.1 (20161225.0304)
 -->
<!-- Title: a_graph Pages: 1 -->
<svg width="5292pt" height="119pt"
 viewBox="0.00 0.00 5292.00 119.00" xmlns="http://www.w3.org/2000/svg" xmlns:xlink="http://www.w3.org/1999/xlink">
<g id="graph0" class="graph" transform="scale(1 1) rotate(0) translate(4 115)">
<title>a_graph</title>
<polygon fill="#ffffff" stroke="transparent" points="-4,4 -4,-115 5288,-115 5288,4 -4,4"/>
<!-- T16581 -->
<g id="node1" class="node">
<title>T16581</title>
<polygon fill="none" stroke="#0058ad" points="1852.5,-81.5 1852.5,-110.5 3451.5,-110.5 3451.5,-81.5 1852.5,-81.5"/>
<text text-anchor="middle" x="2337.5" y="-92.3" font-family="Times,serif" font-size="14.00" fill="#0058ad">r 86 [1 2 4 5 3 6 8 9 11 7 13 12 14 15 16 17 18 10 19 20 21 22 23 25 24 26 28 29 27 30 31 32 33 34 35 36 37 38 39 40 41 42 43 45 46 44 47 48 49 50 51 53 52 54 56 57 58]</text>
<polyline fill="none" stroke="#0058ad" points="2822.5,-81.5 2822.5,-110.5 "/>
<text text-anchor="middle" x="3108.5" y="-92.3" font-family="Times,serif" font-size="14.00" fill="#0058ad">r 2 [1 4 5 12 13 14 15 16 17 18 19 20 21 22 23 24 25 26 27 28 29 30 31 36 37 38 39 40 47 48 49 50]</text>
<polyline fill="none" stroke="#0058ad" points="3394.5,-81.5 3394.5,-110.5 "/>
<text text-anchor="middle" x="3423" y="-92.3" font-family="Times,serif" font-size="14.00" fill="#0058ad">a 85 64</text>
</g>
<!-- T16585 -->
<g id="node2" class="node">
<title>T16585</title>
<polygon fill="none" stroke="#0058ad" points="0,-.5 0,-29.5 5284,-29.5 5284,-.5 0,-.5"/>
<text text-anchor="middle" x="505.5" y="-11.3" font-family="Times,serif" font-size="14.00" fill="#0058ad">r 85 [3 4 2 5 6 7 8 9 10 11 12 13 14 15 16 17 18 22 23 21 25 26 27 29 28 30 31 32 35 37 38 39 33 34 40 41 36 42 43 44 45 46 49 47 48 50 51 52 53 54 55 56 58 57 59 60 61 62 63]</text>
<polyline fill="none" stroke="#0058ad" points="1011,-.5 1011,-29.5 "/>
<text text-anchor="middle" x="2065" y="-11.3" font-family="Times,serif" font-size="14.00" fill="#0058ad">r 80 [1 3 4 5 6 7 9 8 10 11 12 13 14 15 16 17 18 19 20 21 22 23 25 26 24 27 28 29 30 31 32 34 33 35 36 37 38 39 40 41 44 42 47 48 49 50 52 53 54 51 55 56 57 59 60 61 62 63 64 65 66 67 70 71 72 68 69 73 74 76 77 78 79 80 82 81 83 84 86 87 85 88 90 91 92 93 94 95 96 97 100 98 99 101 104 103 102 105 107 106 108 109 110 111 112 113 114 115 116 117 118 119 121 120]</text>
<polyline fill="none" stroke="#0058ad" points="3119,-.5 3119,-29.5 "/>
<text text-anchor="middle" x="4173" y="-11.3" font-family="Times,serif" font-size="14.00" fill="#0058ad">r 80 [1 3 4 5 6 7 9 8 10 11 12 13 14 15 16 17 18 19 20 21 22 23 25 26 24 27 28 29 30 31 32 34 33 35 36 37 38 39 40 41 44 42 47 48 49 50 52 53 54 51 55 56 57 59 60 61 62 63 64 65 66 67 70 71 72 68 69 73 74 76 77 78 79 80 82 81 83 84 86 87 85 88 90 91 92 93 94 95 96 97 100 98 99 101 104 103 102 105 107 106 108 109 110 111 112 113 114 115 116 117 118 119 121 120]</text>
<polyline fill="none" stroke="#0058ad" points="5227,-.5 5227,-29.5 "/>
<text text-anchor="middle" x="5255.5" y="-11.3" font-family="Times,serif" font-size="14.00" fill="#0058ad">a 86 55</text>
</g>
<!-- T16581&#45;&gt;T16585 -->
<g id="edge1" class="edge">
<title>T16581:f0&#45;&gt;T16585:f3</title>
<path fill="none" stroke="#5b00c0" d="M2337,-81C2337,6.5213 3036.5064,-50.2031 3124,-48 3138.2088,-47.6422 5089.8291,-45.0281 5246.0884,-31.7214"/>
<polygon fill="#5b00c0" stroke="#5b00c0" points="5246.7464,-35.1596 5256,-30 5245.5486,-28.2629 5246.7464,-35.1596"/>
<text text-anchor="middle" x="3131.5" y="-51.8" font-family="Times,serif" font-size="14.00" fill="#5b00c0">rw</text>
</g>
<!-- T16585&#45;&gt;T16581 -->
<g id="edge2" class="edge">
<title>T16585:f0&#45;&gt;T16581:f2</title>
<path fill="none" stroke="#5b00c0" d="M505,-30C505,-48.2921 3120.7422,-46.8802 3139,-48 3262.2412,-55.5587 3414.1223,40.3905 3422.6261,-70.747"/>
<polygon fill="#5b00c0" stroke="#5b00c0" points="3419.1378,-71.1342 3423,-81 3426.1331,-70.8791 3419.1378,-71.1342"/>
<text text-anchor="middle" x="3428.5" y="-51.8" font-family="Times,serif" font-size="14.00" fill="#5b00c0">rw</text>
</g>
</g>
</svg>
