<?xml version="1.0" encoding="UTF-8" standalone="no"?>
<!DOCTYPE svg PUBLIC "-//W3C//DTD SVG 1.1//EN"
 "http://www.w3.org/Graphics/SVG/1.1/DTD/svg11.dtd">
<!-- Generated by graphviz version 2.40.1 (20161225.0304)
 -->
<!-- Title: a_graph Pages: 1 -->
<svg width="3747pt" height="119pt"
 viewBox="0.00 0.00 3747.00 119.00" xmlns="http://www.w3.org/2000/svg" xmlns:xlink="http://www.w3.org/1999/xlink">
<g id="graph0" class="graph" transform="scale(1 1) rotate(0) translate(4 115)">
<title>a_graph</title>
<polygon fill="#ffffff" stroke="transparent" points="-4,4 -4,-115 3743,-115 3743,4 -4,4"/>
<!-- T6365 -->
<g id="node1" class="node">
<title>T6365</title>
<polygon fill="none" stroke="#0058ad" points="1531,-81.5 1531,-110.5 3739,-110.5 3739,-81.5 1531,-81.5"/>
<text text-anchor="middle" x="1559.5" y="-92.3" font-family="Times,serif" font-size="14.00" fill="#0058ad">a 35 82</text>
<polyline fill="none" stroke="#0058ad" points="1588,-81.5 1588,-110.5 "/>
<text text-anchor="middle" x="1620" y="-92.3" font-family="Times,serif" font-size="14.00" fill="#0058ad">a 33 108</text>
<polyline fill="none" stroke="#0058ad" points="1652,-81.5 1652,-110.5 "/>
<text text-anchor="middle" x="1684" y="-92.3" font-family="Times,serif" font-size="14.00" fill="#0058ad">a 33 109</text>
<polyline fill="none" stroke="#0058ad" points="1716,-81.5 1716,-110.5 "/>
<text text-anchor="middle" x="2727.5" y="-92.3" font-family="Times,serif" font-size="14.00" fill="#0058ad">r 31 [1 2 3 4 5 6 8 9 10 11 12 13 14 15 16 17 18 19 20 21 22 23 24 25 26 28 29 30 31 32 33 34 35 37 36 38 39 40 41 42 43 44 46 45 48 49 50 51 53 55 56 57 59 58 60 61 62 63 64 65 66 67 68 69 70 71 72 73 74 75 76 77 78 79 80 81 82 83 84 85 86 87 88 89 90 91 92 93 94 95 96 97 98 99 100 101 102 103 104 105 106 107 108 109 110 111 112 113 114 115 116]</text>
</g>
<!-- T6366 -->
<g id="node2" class="node">
<title>T6366</title>
<polygon fill="none" stroke="#0058ad" points="0,-.5 0,-29.5 3198,-29.5 3198,-.5 0,-.5"/>
<text text-anchor="middle" x="865.5" y="-11.3" font-family="Times,serif" font-size="14.00" fill="#0058ad">r 33 [1 2 3 4 5 6 7 8 9 10 11 12 13 14 18 19 20 21 22 23 24 25 26 27 28 29 30 31 32 33 34 35 36 37 38 39 40 42 43 41 44 45 46 47 48 49 50 51 52 55 56 53 54 57 58 59 60 61 62 63 64 65 66 67 68 69 70 73 74 77 80 81 82 83 84 85 86 87 88 89 90 91 92 93 94 95 96 97 98 99 100 101 102 103 104 107 105 106]</text>
<polyline fill="none" stroke="#0058ad" points="1731,-.5 1731,-29.5 "/>
<text text-anchor="middle" x="1763" y="-11.3" font-family="Times,serif" font-size="14.00" fill="#0058ad">a 31 117</text>
<polyline fill="none" stroke="#0058ad" points="1795,-.5 1795,-29.5 "/>
<text text-anchor="middle" x="1823.5" y="-11.3" font-family="Times,serif" font-size="14.00" fill="#0058ad">a 5 119</text>
<polyline fill="none" stroke="#0058ad" points="1852,-.5 1852,-29.5 "/>
<text text-anchor="middle" x="2525" y="-11.3" font-family="Times,serif" font-size="14.00" fill="#0058ad">r 35 [1 2 4 6 7 8 9 10 11 12 13 16 17 14 15 18 19 20 21 22 24 23 28 29 30 25 26 27 31 32 33 34 36 37 35 38 39 40 41 42 43 44 45 47 48 49 50 51 46 52 53 54 55 56 57 58 59 60 61 62 63 64 67 68 65 66 69 70 71 72 73 74 77 75 78 80 76 81]</text>
</g>
<!-- T6365&#45;&gt;T6366 -->
<g id="edge1" class="edge">
<title>T6365:f3&#45;&gt;T6366:f1</title>
<path fill="none" stroke="#5b00c0" d="M2728,-81C2728,-55.7037 1870.9976,-56.6315 1772.2415,-34.3571"/>
<polygon fill="#5b00c0" stroke="#5b00c0" points="1773.5377,-31.0987 1763,-30 1770.5525,-37.4303 1773.5377,-31.0987"/>
<text text-anchor="middle" x="2501.5" y="-51.8" font-family="Times,serif" font-size="14.00" fill="#5b00c0">rw</text>
</g>
<!-- T6366&#45;&gt;T6365 -->
<g id="edge2" class="edge">
<title>T6366:f3&#45;&gt;T6365:f0</title>
<path fill="none" stroke="#5b00c0" d="M2525,-30C2525,-45.2304 1992.2067,-47.1504 1977,-48 1887.6013,-52.9945 1584.0342,7.1781 1560.4544,-70.7929"/>
<polygon fill="#5b00c0" stroke="#5b00c0" points="1556.9457,-70.6062 1559,-81 1563.8757,-71.5937 1556.9457,-70.6062"/>
<text text-anchor="middle" x="1984.5" y="-51.8" font-family="Times,serif" font-size="14.00" fill="#5b00c0">rw</text>
</g>
</g>
</svg>
