<?xml version="1.0" encoding="UTF-8" standalone="no"?>
<!DOCTYPE svg PUBLIC "-//W3C//DTD SVG 1.1//EN"
 "http://www.w3.org/Graphics/SVG/1.1/DTD/svg11.dtd">
<!-- Generated by graphviz version 2.40.1 (20161225.0304)
 -->
<!-- Title: a_graph Pages: 1 -->
<svg width="2881pt" height="119pt"
 viewBox="0.00 0.00 2881.00 119.00" xmlns="http://www.w3.org/2000/svg" xmlns:xlink="http://www.w3.org/1999/xlink">
<g id="graph0" class="graph" transform="scale(1 1) rotate(0) translate(4 115)">
<title>a_graph</title>
<polygon fill="#ffffff" stroke="transparent" points="-4,4 -4,-115 2877,-115 2877,4 -4,4"/>
<!-- T5943 -->
<g id="node1" class="node">
<title>T5943</title>
<polygon fill="none" stroke="#0058ad" points="318,-81.5 318,-110.5 2729,-110.5 2729,-81.5 318,-81.5"/>
<text text-anchor="middle" x="906.5" y="-92.3" font-family="Times,serif" font-size="14.00" fill="#0058ad">r 34 [1 2 3 4 5 6 7 8 9 10 11 12 13 14 15 16 17 18 19 21 23 24 25 26 28 29 30 31 32 33 34 35 36 37 38 39 40 41 43 42 44 45 46 49 47 48 50 51 52 53 54 56 55 57 58 59 60 61 62 63 64 65 66 67 68 69 70 71 72]</text>
<polyline fill="none" stroke="#0058ad" points="1495,-81.5 1495,-110.5 "/>
<text text-anchor="middle" x="1523.5" y="-92.3" font-family="Times,serif" font-size="14.00" fill="#0058ad">a 31 88</text>
<polyline fill="none" stroke="#0058ad" points="1552,-81.5 1552,-110.5 "/>
<text text-anchor="middle" x="2140.5" y="-92.3" font-family="Times,serif" font-size="14.00" fill="#0058ad">r 34 [1 2 3 4 5 6 7 8 9 10 11 12 13 14 15 16 17 18 19 21 23 24 25 26 28 29 30 31 32 33 34 35 36 37 38 39 40 41 43 42 44 45 46 49 47 48 50 51 52 53 54 56 55 57 58 59 60 61 62 63 64 65 66 67 68 69 70 71 72]</text>
</g>
<!-- T5945 -->
<g id="node2" class="node">
<title>T5945</title>
<polygon fill="none" stroke="#0058ad" points="0,-.5 0,-29.5 2873,-29.5 2873,-.5 0,-.5"/>
<text text-anchor="middle" x="704" y="-11.3" font-family="Times,serif" font-size="14.00" fill="#0058ad">r 31 [1 2 3 4 5 6 8 9 10 11 12 13 14 15 16 17 18 19 20 21 22 23 24 25 26 28 29 30 31 32 33 34 35 37 36 38 39 40 41 42 43 44 46 45 48 49 50 51 53 55 56 57 59 58 60 61 62 63 64 65 66 67 68 69 70 71 72 73 74 75 76 77 78 79 80 81 82 83 84 85 86 87]</text>
<polyline fill="none" stroke="#0058ad" points="1408,-.5 1408,-29.5 "/>
<text text-anchor="middle" x="1436.5" y="-11.3" font-family="Times,serif" font-size="14.00" fill="#0058ad">a 34 73</text>
<polyline fill="none" stroke="#0058ad" points="1465,-.5 1465,-29.5 "/>
<text text-anchor="middle" x="2169" y="-11.3" font-family="Times,serif" font-size="14.00" fill="#0058ad">r 31 [1 2 3 4 5 6 8 9 10 11 12 13 14 15 16 17 18 19 20 21 22 23 24 25 26 28 29 30 31 32 33 34 35 37 36 38 39 40 41 42 43 44 46 45 48 49 50 51 53 55 56 57 59 58 60 61 62 63 64 65 66 67 68 69 70 71 72 73 74 75 76 77 78 79 80 81 82 83 84 85 86 87]</text>
</g>
<!-- T5943&#45;&gt;T5945 -->
<g id="edge1" class="edge">
<title>T5943:f0&#45;&gt;T5945:f1</title>
<path fill="none" stroke="#5b00c0" d="M906.5,-81C906.5,-53.615 1360.7476,-58.577 1428.175,-35.9934"/>
<polygon fill="#5b00c0" stroke="#5b00c0" points="1430.4293,-38.6832 1436.5,-30 1426.3394,-33.0022 1430.4293,-38.6832"/>
<text text-anchor="middle" x="1330" y="-51.8" font-family="Times,serif" font-size="14.00" fill="#5b00c0">rw</text>
</g>
<!-- T5945&#45;&gt;T5943 -->
<g id="edge2" class="edge">
<title>T5945:f0&#45;&gt;T5943:f1</title>
<path fill="none" stroke="#5b00c0" d="M703.5,-30C703.5,-47.7293 1323.8661,-46.1632 1341.5,-48 1419.5924,-56.1343 1514.5318,-3.8447 1522.9039,-70.7497"/>
<polygon fill="#5b00c0" stroke="#5b00c0" points="1519.4253,-71.2201 1523.5,-81 1526.4135,-70.8137 1519.4253,-71.2201"/>
<text text-anchor="middle" x="1528" y="-51.8" font-family="Times,serif" font-size="14.00" fill="#5b00c0">rw</text>
</g>
</g>
</svg>
