<?xml version="1.0" encoding="UTF-8" standalone="no"?>
<!DOCTYPE svg PUBLIC "-//W3C//DTD SVG 1.1//EN"
 "http://www.w3.org/Graphics/SVG/1.1/DTD/svg11.dtd">
<!-- Generated by graphviz version 2.40.1 (20161225.0304)
 -->
<!-- Title: a_graph Pages: 1 -->
<svg width="1506pt" height="119pt"
 viewBox="0.00 0.00 1505.50 119.00" xmlns="http://www.w3.org/2000/svg" xmlns:xlink="http://www.w3.org/1999/xlink">
<g id="graph0" class="graph" transform="scale(1 1) rotate(0) translate(4 115)">
<title>a_graph</title>
<polygon fill="#ffffff" stroke="transparent" points="-4,4 -4,-115 1501.5,-115 1501.5,4 -4,4"/>
<!-- T15357 -->
<g id="node1" class="node">
<title>T15357</title>
<polygon fill="none" stroke="#0058ad" points="0,-81.5 0,-110.5 1261,-110.5 1261,-81.5 0,-81.5"/>
<text text-anchor="middle" x="28.5" y="-92.3" font-family="Times,serif" font-size="14.00" fill="#0058ad">a 79 64</text>
<polyline fill="none" stroke="#0058ad" points="57,-81.5 57,-110.5 "/>
<text text-anchor="middle" x="296.5" y="-92.3" font-family="Times,serif" font-size="14.00" fill="#0058ad">r 76 [102 103 104 105 106 107 108 109 111 112 110 116 117 118 119 120 121 122]</text>
<polyline fill="none" stroke="#0058ad" points="536,-81.5 536,-110.5 "/>
<text text-anchor="middle" x="564.5" y="-92.3" font-family="Times,serif" font-size="14.00" fill="#0058ad">a 79 65</text>
<polyline fill="none" stroke="#0058ad" points="593,-81.5 593,-110.5 "/>
<text text-anchor="middle" x="927" y="-92.3" font-family="Times,serif" font-size="14.00" fill="#0058ad">r 79 [27 28 29 31 32 33 34 35 36 37 38 39 40 41 42 43 46 47 48 49 51 52 53 54 50 55 56 57 58 59 60 62 63 61 64 65]</text>
</g>
<!-- T15359 -->
<g id="node2" class="node">
<title>T15359</title>
<polygon fill="none" stroke="#0058ad" points="33.5,-.5 33.5,-29.5 1497.5,-29.5 1497.5,-.5 33.5,-.5"/>
<text text-anchor="middle" x="65.5" y="-11.3" font-family="Times,serif" font-size="14.00" fill="#0058ad">a 76 123</text>
<polyline fill="none" stroke="#0058ad" points="97.5,-.5 97.5,-29.5 "/>
<text text-anchor="middle" x="414.5" y="-11.3" font-family="Times,serif" font-size="14.00" fill="#0058ad">r 79 [27 28 29 31 32 33 34 35 36 37 38 39 40 41 42 43 46 47 48 49 51 52 53 54 50 55 56 57 58 59 60 62 63 61]</text>
<polyline fill="none" stroke="#0058ad" points="731.5,-.5 731.5,-29.5 "/>
<text text-anchor="middle" x="1114.5" y="-11.3" font-family="Times,serif" font-size="14.00" fill="#0058ad">r 67 [1 2 3 4 5 6 7 8 9 10 11 12 13 14 15 16 17 18 19 20 22 23 24 25 26 27 28 29 30 31 32 33 34 35 36 37 38 39 40 41 42 109 110 111]</text>
</g>
<!-- T15357&#45;&gt;T15359 -->
<g id="edge1" class="edge">
<title>T15357:f1&#45;&gt;T15359:f0</title>
<path fill="none" stroke="#5b00c0" d="M296.5,-81C296.5,-75.2245 118.058,-45.2811 74.8416,-33.6524"/>
<polygon fill="#5b00c0" stroke="#5b00c0" points="76.088,-30.3818 65.5,-30 73.5389,-36.9012 76.088,-30.3818"/>
<text text-anchor="middle" x="223" y="-51.8" font-family="Times,serif" font-size="14.00" fill="#5b00c0">rw</text>
</g>
<!-- T15359&#45;&gt;T15357 -->
<g id="edge2" class="edge">
<title>T15359:f1&#45;&gt;T15357:f0</title>
<path fill="none" stroke="#5b00c0" d="M414.5,-30C414.5,-111.3333 315.1016,-52.1147 234.5,-63 214.4878,-65.7027 70.5232,-59.8106 35.9502,-73.9433"/>
<polygon fill="#5b00c0" stroke="#5b00c0" points="33.3534,-71.5822 28.5,-81 38.1671,-76.6643 33.3534,-71.5822"/>
<text text-anchor="middle" x="420" y="-51.8" font-family="Times,serif" font-size="14.00" fill="#5b00c0">rw</text>
</g>
</g>
</svg>
