<?xml version="1.0" encoding="UTF-8" standalone="no"?>
<!DOCTYPE svg PUBLIC "-//W3C//DTD SVG 1.1//EN"
 "http://www.w3.org/Graphics/SVG/1.1/DTD/svg11.dtd">
<!-- Generated by graphviz version 2.40.1 (20161225.0304)
 -->
<!-- Title: a_graph Pages: 1 -->
<svg width="1448pt" height="200pt"
 viewBox="0.00 0.00 1448.00 200.00" xmlns="http://www.w3.org/2000/svg" xmlns:xlink="http://www.w3.org/1999/xlink">
<g id="graph0" class="graph" transform="scale(1 1) rotate(0) translate(4 196)">
<title>a_graph</title>
<polygon fill="#ffffff" stroke="transparent" points="-4,4 -4,-196 1444,-196 1444,4 -4,4"/>
<!-- T5755 -->
<g id="node1" class="node">
<title>T5755</title>
<polygon fill="none" stroke="#0058ad" points="901,-162.5 901,-191.5 1367,-191.5 1367,-162.5 901,-162.5"/>
<text text-anchor="middle" x="989" y="-173.3" font-family="Times,serif" font-size="14.00" fill="#0058ad">r 34 [1 2 3 4 5 6 7 8 9 10 11]</text>
<polyline fill="none" stroke="#0058ad" points="1077,-162.5 1077,-191.5 "/>
<text text-anchor="middle" x="1105.5" y="-173.3" font-family="Times,serif" font-size="14.00" fill="#0058ad">a 31 72</text>
<polyline fill="none" stroke="#0058ad" points="1134,-162.5 1134,-191.5 "/>
<text text-anchor="middle" x="1222" y="-173.3" font-family="Times,serif" font-size="14.00" fill="#0058ad">r 34 [1 2 3 4 5 6 7 8 9 10 11]</text>
<polyline fill="none" stroke="#0058ad" points="1310,-162.5 1310,-191.5 "/>
<text text-anchor="middle" x="1338.5" y="-173.3" font-family="Times,serif" font-size="14.00" fill="#0058ad">a 31 73</text>
</g>
<!-- T5757 -->
<g id="node2" class="node">
<title>T5757</title>
<polygon fill="none" stroke="#0058ad" points="1073,-81.5 1073,-110.5 1249,-110.5 1249,-81.5 1073,-81.5"/>
<text text-anchor="middle" x="1161" y="-92.3" font-family="Times,serif" font-size="14.00" fill="#0058ad">r 34 [1 2 3 4 5 6 7 8 9 10 11]</text>
</g>
<!-- T5755&#45;&gt;T5757 -->
<g id="edge2" class="edge">
<title>T5755&#45;&gt;T5757</title>
<path fill="none" stroke="#0050c0" d="M1138.9522,-162.1434C1142.8343,-150.497 1148.3185,-134.0446 1152.8459,-120.4623"/>
<polygon fill="#0050c0" stroke="#0050c0" points="1156.2372,-121.3561 1156.0792,-110.7625 1149.5964,-119.1425 1156.2372,-121.3561"/>
<text text-anchor="middle" x="1154.5" y="-132.8" font-family="Times,serif" font-size="14.00" fill="#0050c0">rt</text>
</g>
<!-- T5765 -->
<g id="node3" class="node">
<title>T5765</title>
<polygon fill="none" stroke="#0058ad" points="0,-.5 0,-29.5 1440,-29.5 1440,-.5 0,-.5"/>
<text text-anchor="middle" x="566" y="-11.3" font-family="Times,serif" font-size="14.00" fill="#0058ad">r 31 [1 2 3 4 5 6 8 9 10 11 12 13 14 15 16 17 18 19 20 21 22 23 24 25 26 28 29 30 31 32 33 34 35 37 36 38 39 40 41 42 43 44 46 45 48 49 50 51 53 55 56 57 59 58 60 61 62 63 64 65 66 67 68 69 70 71]</text>
<polyline fill="none" stroke="#0058ad" points="1132,-.5 1132,-29.5 "/>
<text text-anchor="middle" x="1160.5" y="-11.3" font-family="Times,serif" font-size="14.00" fill="#0058ad">a 34 12</text>
<polyline fill="none" stroke="#0058ad" points="1189,-.5 1189,-29.5 "/>
<text text-anchor="middle" x="1286" y="-11.3" font-family="Times,serif" font-size="14.00" fill="#0058ad">r 34 [1 2 3 4 5 6 7 8 9 10 11 12]</text>
<polyline fill="none" stroke="#0058ad" points="1383,-.5 1383,-29.5 "/>
<text text-anchor="middle" x="1411.5" y="-11.3" font-family="Times,serif" font-size="14.00" fill="#0058ad">a 34 13</text>
</g>
<!-- T5755&#45;&gt;T5765 -->
<g id="edge1" class="edge">
<title>T5755:f0&#45;&gt;T5765:f1</title>
<path fill="none" stroke="#5b00c0" d="M989,-162C989,-108.7315 980.5131,-75.7214 1026,-48 1048.6137,-34.2184 1135.0128,-53.9454 1156.2592,-38.8169"/>
<polygon fill="#5b00c0" stroke="#5b00c0" points="1159.3469,-40.4651 1161,-30 1153.1816,-37.15 1159.3469,-40.4651"/>
<text text-anchor="middle" x="1002.5" y="-92.3" font-family="Times,serif" font-size="14.00" fill="#5b00c0">rw</text>
</g>
<!-- T5757&#45;&gt;T5765 -->
<g id="edge3" class="edge">
<title>T5757:f0&#45;&gt;T5765:f1</title>
<path fill="none" stroke="#5b00c0" d="M1161,-81.3204C1161,-70.4532 1161,-55.0147 1161,-40.1425"/>
<polygon fill="#5b00c0" stroke="#5b00c0" points="1164.5001,-40 1161,-30 1157.5001,-40 1164.5001,-40"/>
<text text-anchor="middle" x="1168.5" y="-51.8" font-family="Times,serif" font-size="14.00" fill="#5b00c0">rw</text>
</g>
<!-- T5765&#45;&gt;T5755 -->
<g id="edge4" class="edge">
<title>T5765:f0&#45;&gt;T5755:f1</title>
<path fill="none" stroke="#5b00c0" d="M566,-30C566,-55.5751 1005.3336,-32.934 1026,-48 1050.0866,-65.5593 1032.3897,-86.2494 1049,-111 1065.5607,-135.6767 1096.5254,-130.2949 1103.5554,-151.8561"/>
<polygon fill="#5b00c0" stroke="#5b00c0" points="1100.125,-152.5934 1105,-162 1107.0551,-151.6064 1100.125,-152.5934"/>
<text text-anchor="middle" x="1056.5" y="-92.3" font-family="Times,serif" font-size="14.00" fill="#5b00c0">rw</text>
</g>
</g>
</svg>
