<?xml version="1.0" encoding="UTF-8" standalone="no"?>
<!DOCTYPE svg PUBLIC "-//W3C//DTD SVG 1.1//EN"
 "http://www.w3.org/Graphics/SVG/1.1/DTD/svg11.dtd">
<!-- Generated by graphviz version 2.40.1 (20161225.0304)
 -->
<!-- Title: a_graph Pages: 1 -->
<svg width="1497pt" height="119pt"
 viewBox="0.00 0.00 1497.00 119.00" xmlns="http://www.w3.org/2000/svg" xmlns:xlink="http://www.w3.org/1999/xlink">
<g id="graph0" class="graph" transform="scale(1 1) rotate(0) translate(4 115)">
<title>a_graph</title>
<polygon fill="#ffffff" stroke="transparent" points="-4,4 -4,-115 1493,-115 1493,4 -4,4"/>
<!-- T17349 -->
<g id="node1" class="node">
<title>T17349</title>
<polygon fill="none" stroke="#0058ad" points="121,-81.5 121,-110.5 710,-110.5 710,-81.5 121,-81.5"/>
<text text-anchor="middle" x="254" y="-92.3" font-family="Times,serif" font-size="14.00" fill="#0058ad">r 90 [2 5 7 6 8 9 12 10 11 13 14 15 16 17 18]</text>
<polyline fill="none" stroke="#0058ad" points="387,-81.5 387,-110.5 "/>
<text text-anchor="middle" x="520" y="-92.3" font-family="Times,serif" font-size="14.00" fill="#0058ad">r 90 [2 5 7 6 8 9 12 10 11 13 14 15 16 17 18]</text>
<polyline fill="none" stroke="#0058ad" points="653,-81.5 653,-110.5 "/>
<text text-anchor="middle" x="681.5" y="-92.3" font-family="Times,serif" font-size="14.00" fill="#0058ad">a 89 57</text>
</g>
<!-- T17343 -->
<g id="node2" class="node">
<title>T17343</title>
<polygon fill="none" stroke="#0058ad" points="0,-.5 0,-29.5 1489,-29.5 1489,-.5 0,-.5"/>
<text text-anchor="middle" x="28.5" y="-11.3" font-family="Times,serif" font-size="14.00" fill="#0058ad">a 90 19</text>
<polyline fill="none" stroke="#0058ad" points="57,-.5 57,-29.5 "/>
<text text-anchor="middle" x="198.5" y="-11.3" font-family="Times,serif" font-size="14.00" fill="#0058ad">r 90 [2 5 7 6 8 9 12 10 11 13 14 15 16 17 18 19]</text>
<polyline fill="none" stroke="#0058ad" points="340,-.5 340,-29.5 "/>
<text text-anchor="middle" x="481.5" y="-11.3" font-family="Times,serif" font-size="14.00" fill="#0058ad">r 90 [2 5 7 6 8 9 12 10 11 13 14 15 16 17 18 19]</text>
<polyline fill="none" stroke="#0058ad" points="623,-.5 623,-29.5 "/>
<text text-anchor="middle" x="1056" y="-11.3" font-family="Times,serif" font-size="14.00" fill="#0058ad">r 89 [1 3 4 5 6 7 2 8 9 11 12 14 15 13 17 18 19 20 21 22 25 23 24 27 28 29 30 32 31 33 34 36 35 37 38 39 40 41 42 43 44 45 46 47 48 49 50 52 53 51 56]</text>
</g>
<!-- T17349&#45;&gt;T17343 -->
<g id="edge1" class="edge">
<title>T17349:f0&#45;&gt;T17343:f0</title>
<path fill="none" stroke="#5b00c0" d="M120.5,-96C73.7159,-96 34.4036,-82.4496 29.1067,-40.1076"/>
<polygon fill="#5b00c0" stroke="#5b00c0" points="32.5929,-39.7723 28.5,-30 25.6055,-40.1918 32.5929,-39.7723"/>
<text text-anchor="middle" x="44" y="-51.8" font-family="Times,serif" font-size="14.00" fill="#5b00c0">rw</text>
</g>
<!-- T17343&#45;&gt;T17349 -->
<g id="edge2" class="edge">
<title>T17343:f3&#45;&gt;T17349:f2</title>
<path fill="none" stroke="#5b00c0" d="M1056.5,-30C1056.5,-66.6915 786.7967,-92.5943 720.8354,-95.6888"/>
<polygon fill="#5b00c0" stroke="#5b00c0" points="720.3901,-92.2005 710.5,-96 720.6009,-99.1973 720.3901,-92.2005"/>
<text text-anchor="middle" x="1037" y="-51.8" font-family="Times,serif" font-size="14.00" fill="#5b00c0">rw</text>
</g>
</g>
</svg>
