<?xml version="1.0" encoding="UTF-8" standalone="no"?>
<!DOCTYPE svg PUBLIC "-//W3C//DTD SVG 1.1//EN"
 "http://www.w3.org/Graphics/SVG/1.1/DTD/svg11.dtd">
<!-- Generated by graphviz version 2.40.1 (20161225.0304)
 -->
<!-- Title: a_graph Pages: 1 -->
<svg width="2182pt" height="119pt"
 viewBox="0.00 0.00 2181.55 119.00" xmlns="http://www.w3.org/2000/svg" xmlns:xlink="http://www.w3.org/1999/xlink">
<g id="graph0" class="graph" transform="scale(1 1) rotate(0) translate(4 115)">
<title>a_graph</title>
<polygon fill="#ffffff" stroke="transparent" points="-4,4 -4,-115 2177.5526,-115 2177.5526,4 -4,4"/>
<!-- T3633 -->
<g id="node1" class="node">
<title>T3633</title>
<polygon fill="none" stroke="#0058ad" points="90.5526,-81.5 90.5526,-110.5 2173.5526,-110.5 2173.5526,-81.5 90.5526,-81.5"/>
<text text-anchor="middle" x="119.0526" y="-92.3" font-family="Times,serif" font-size="14.00" fill="#0058ad">a 23 59</text>
<polyline fill="none" stroke="#0058ad" points="147.5526,-81.5 147.5526,-110.5 "/>
<text text-anchor="middle" x="1160.5526" y="-92.3" font-family="Times,serif" font-size="14.00" fill="#0058ad">r 22 [1 2 3 4 5 7 6 9 8 10 11 12 13 14 15 16 17 18 19 20 21 22 23 24 25 27 28 29 30 31 32 33 26 34 36 37 38 39 40 41 35 42 43 44 45 46 47 48 49 50 51 52 53 54 55 56 57 58 59 60 61 62 63 66 65 64 67 68 69 71 72 73 70 75 77 78 74 82 83 87 88 90 91 92 89 93 96 94 98 100 101 102 103 105 106 107 108 104 109 110 111 112 113 114 115 116 118 119 117 120]</text>
</g>
<!-- T3631 -->
<g id="node2" class="node">
<title>T3631</title>
<polygon fill="none" stroke="#0058ad" points="4.0526,-.5 4.0526,-29.5 986.0526,-29.5 986.0526,-.5 4.0526,-.5"/>
<text text-anchor="middle" x="463.0526" y="-11.3" font-family="Times,serif" font-size="14.00" fill="#0058ad">r 23 [1 2 3 4 5 6 7 11 12 13 14 8 9 10 15 16 18 19 17 20 21 22 23 24 25 26 27 28 29 30 31 32 33 34 35 37 38 39 42 44 45 46 47 48 50 49 51 52 53 54 55 57 56 58]</text>
<polyline fill="none" stroke="#0058ad" points="922.0526,-.5 922.0526,-29.5 "/>
<text text-anchor="middle" x="954.0526" y="-11.3" font-family="Times,serif" font-size="14.00" fill="#0058ad">a 22 121</text>
</g>
<!-- T3633&#45;&gt;T3631 -->
<g id="edge1" class="edge">
<title>T3633:f1&#45;&gt;T3631:f1</title>
<path fill="none" stroke="#5b00c0" d="M1161.0526,-81C1161.0526,-42.3597 1045.7202,-18.5212 996.1041,-15.3599"/>
<polygon fill="#5b00c0" stroke="#5b00c0" points="996.1715,-11.8602 986.0526,-15 995.9209,-18.8557 996.1715,-11.8602"/>
<text text-anchor="middle" x="1158.5526" y="-51.8" font-family="Times,serif" font-size="14.00" fill="#5b00c0">rw</text>
</g>
<!-- T3631&#45;&gt;T3633 -->
<g id="edge2" class="edge">
<title>T3631:f0&#45;&gt;T3633:f0</title>
<path fill="none" stroke="#5b00c0" d="M4.0526,-15C-2.6141,-15 .4176,-24.4115 4.0526,-30 32.395,-73.5738 107.4349,-31.8822 117.8473,-70.7316"/>
<polygon fill="#5b00c0" stroke="#5b00c0" points="114.4106,-71.4763 119.0526,-81 121.3628,-70.6601 114.4106,-71.4763"/>
<text text-anchor="middle" x="121.5526" y="-51.8" font-family="Times,serif" font-size="14.00" fill="#5b00c0">rw</text>
</g>
</g>
</svg>
