<?xml version="1.0" encoding="UTF-8" standalone="no"?>
<!DOCTYPE svg PUBLIC "-//W3C//DTD SVG 1.1//EN"
 "http://www.w3.org/Graphics/SVG/1.1/DTD/svg11.dtd">
<!-- Generated by graphviz version 2.40.1 (20161225.0304)
 -->
<!-- Title: a_graph Pages: 1 -->
<svg width="3303pt" height="119pt"
 viewBox="0.00 0.00 3302.50 119.00" xmlns="http://www.w3.org/2000/svg" xmlns:xlink="http://www.w3.org/1999/xlink">
<g id="graph0" class="graph" transform="scale(1 1) rotate(0) translate(4 115)">
<title>a_graph</title>
<polygon fill="#ffffff" stroke="transparent" points="-4,4 -4,-115 3298.5,-115 3298.5,4 -4,4"/>
<!-- T640 -->
<g id="node1" class="node">
<title>T640</title>
<polygon fill="none" stroke="#0058ad" points="310.5,-81.5 310.5,-110.5 3294.5,-110.5 3294.5,-81.5 310.5,-81.5"/>
<text text-anchor="middle" x="335.5" y="-92.3" font-family="Times,serif" font-size="14.00" fill="#0058ad">a 7 63</text>
<polyline fill="none" stroke="#0058ad" points="360.5,-81.5 360.5,-110.5 "/>
<text text-anchor="middle" x="385.5" y="-92.3" font-family="Times,serif" font-size="14.00" fill="#0058ad">a 7 64</text>
<polyline fill="none" stroke="#0058ad" points="410.5,-81.5 410.5,-110.5 "/>
<text text-anchor="middle" x="1131.5" y="-92.3" font-family="Times,serif" font-size="14.00" fill="#0058ad">r 10 [1 2 3 5 4 7 8 9 12 14 13 15 16 17 18 20 19 21 22 23 24 26 27 28 29 30 31 32 25 33 34 35 37 38 36 39 40 41 42 43 44 45 46 47 48 49 51 52 53 50 54 55 56 57 58 59 60 61 62 63 64 65 66 67 68 69 70 71 73 75 72 74 76 77 78 79 80 84 85 86 81 82 83 87]</text>
<polyline fill="none" stroke="#0058ad" points="1852.5,-81.5 1852.5,-110.5 "/>
<text text-anchor="middle" x="2573.5" y="-92.3" font-family="Times,serif" font-size="14.00" fill="#0058ad">r 10 [1 2 3 5 4 7 8 9 12 14 13 15 16 17 18 20 19 21 22 23 24 26 27 28 29 30 31 32 25 33 34 35 37 38 36 39 40 41 42 43 44 45 46 47 48 49 51 52 53 50 54 55 56 57 58 59 60 61 62 63 64 65 66 67 68 69 70 71 73 75 72 74 76 77 78 79 80 84 85 86 81 82 83 87]</text>
</g>
<!-- T638 -->
<g id="node2" class="node">
<title>T638</title>
<polygon fill="none" stroke="#0058ad" points="0,-.5 0,-29.5 2065,-29.5 2065,-.5 0,-.5"/>
<text text-anchor="middle" x="502" y="-11.3" font-family="Times,serif" font-size="14.00" fill="#0058ad">r 7 [2 3 4 5 6 7 8 9 10 11 12 13 14 15 16 17 18 19 20 21 22 23 24 25 26 27 29 28 30 31 34 35 36 37 39 38 40 41 42 43 44 45 46 47 48 49 50 51 52 53 54 56 55 57 58 59 60 61 62]</text>
<polyline fill="none" stroke="#0058ad" points="1004,-.5 1004,-29.5 "/>
<text text-anchor="middle" x="1032.5" y="-11.3" font-family="Times,serif" font-size="14.00" fill="#0058ad">a 10 88</text>
<polyline fill="none" stroke="#0058ad" points="1061,-.5 1061,-29.5 "/>
<text text-anchor="middle" x="1563" y="-11.3" font-family="Times,serif" font-size="14.00" fill="#0058ad">r 7 [2 3 4 5 6 7 8 9 10 11 12 13 14 15 16 17 18 19 20 21 22 23 24 25 26 27 29 28 30 31 34 35 36 37 39 38 40 41 42 43 44 45 46 47 48 49 50 51 52 53 54 56 55 57 58 59 60 61 62]</text>
</g>
<!-- T640&#45;&gt;T638 -->
<g id="edge1" class="edge">
<title>T640:f2&#45;&gt;T638:f1</title>
<path fill="none" stroke="#5b00c0" d="M1131.5,-81C1131.5,-35.3716 1047.3645,-72.5917 1034.2183,-39.9084"/>
<polygon fill="#5b00c0" stroke="#5b00c0" points="1037.6573,-39.2549 1032.5,-30 1030.7603,-40.451 1037.6573,-39.2549"/>
<text text-anchor="middle" x="1131" y="-51.8" font-family="Times,serif" font-size="14.00" fill="#5b00c0">rw</text>
</g>
<!-- T638&#45;&gt;T640 -->
<g id="edge2" class="edge">
<title>T638:f0&#45;&gt;T640:f0</title>
<path fill="none" stroke="#5b00c0" d="M501.5,-30C501.5,-103.4126 351.3152,-13.4823 336.6487,-70.9435"/>
<polygon fill="#5b00c0" stroke="#5b00c0" points="333.1575,-70.6674 335.5,-81 340.1123,-71.4618 333.1575,-70.6674"/>
<text text-anchor="middle" x="505" y="-51.8" font-family="Times,serif" font-size="14.00" fill="#5b00c0">rw</text>
</g>
</g>
</svg>
