<?xml version="1.0" encoding="UTF-8" standalone="no"?>
<!DOCTYPE svg PUBLIC "-//W3C//DTD SVG 1.1//EN"
 "http://www.w3.org/Graphics/SVG/1.1/DTD/svg11.dtd">
<!-- Generated by graphviz version 2.40.1 (20161225.0304)
 -->
<!-- Title: a_graph Pages: 1 -->
<svg width="2126pt" height="281pt"
 viewBox="0.00 0.00 2126.00 281.00" xmlns="http://www.w3.org/2000/svg" xmlns:xlink="http://www.w3.org/1999/xlink">
<g id="graph0" class="graph" transform="scale(1 1) rotate(0) translate(4 277)">
<title>a_graph</title>
<polygon fill="#ffffff" stroke="transparent" points="-4,4 -4,-277 2122,-277 2122,4 -4,4"/>
<!-- T3759 -->
<g id="node1" class="node">
<title>T3759</title>
<polygon fill="none" stroke="#0058ad" points="828,-243.5 828,-272.5 1343,-272.5 1343,-243.5 828,-243.5"/>
<text text-anchor="middle" x="1028.5" y="-254.3" font-family="Times,serif" font-size="14.00" fill="#0058ad">r 4 [2 3 4 5 6 7 8 9 10 22 20 21 23 25 24 26 27 28 29 30 31 32 33 34]</text>
<polyline fill="none" stroke="#0058ad" points="1229,-243.5 1229,-272.5 "/>
<text text-anchor="middle" x="1257.5" y="-254.3" font-family="Times,serif" font-size="14.00" fill="#0058ad">a 25 26</text>
<polyline fill="none" stroke="#0058ad" points="1286,-243.5 1286,-272.5 "/>
<text text-anchor="middle" x="1314.5" y="-254.3" font-family="Times,serif" font-size="14.00" fill="#0058ad">a 24 31</text>
</g>
<!-- T3763 -->
<g id="node3" class="node">
<title>T3763</title>
<polygon fill="none" stroke="#0058ad" points="723,-162.5 723,-191.5 1106,-191.5 1106,-162.5 723,-162.5"/>
<text text-anchor="middle" x="914.5" y="-173.3" font-family="Times,serif" font-size="14.00" fill="#0058ad">r 21 [1 2 3 4 5 6 7 8 9 10 11 12 13 14 15 16 17 18 19 20 21 22 23]</text>
</g>
<!-- T3759&#45;&gt;T3763 -->
<g id="edge1" class="edge">
<title>T3759&#45;&gt;T3763</title>
<path fill="none" stroke="#0050c0" d="M1054.5332,-243.3315C1026.4477,-230.0278 984.8884,-210.3419 954.3373,-195.8703"/>
<polygon fill="#0050c0" stroke="#0050c0" points="955.7721,-192.6772 945.2364,-191.5594 952.7755,-199.0034 955.7721,-192.6772"/>
<text text-anchor="middle" x="1020" y="-213.8" font-family="Times,serif" font-size="14.00" fill="#0050c0">rt</text>
</g>
<!-- T3765 -->
<g id="node2" class="node">
<title>T3765</title>
<polygon fill="none" stroke="#0058ad" points="0,-81.5 0,-110.5 1315,-110.5 1315,-81.5 0,-81.5"/>
<text text-anchor="middle" x="657.5" y="-92.3" font-family="Times,serif" font-size="14.00" fill="#0058ad">r 23 [1 2 3 4 5 6 7 11 12 13 14 8 9 10 15 16 18 19 17 20 21 22 23 24 25 26 27 28 29 30 31 32 33 34 35 37 38 39 42 44 45 46 47 48 50 49 51 52 53 54 55 57 56 58 59 60 61 63 62 64 65 66 67 68 69 70 71 72 73 74 75 76 77 78 79 81 82]</text>
</g>
<!-- T3767 -->
<g id="node4" class="node">
<title>T3767</title>
<polygon fill="none" stroke="#0058ad" points="773,-.5 773,-29.5 2118,-29.5 2118,-.5 773,-.5"/>
<text text-anchor="middle" x="1025" y="-11.3" font-family="Times,serif" font-size="14.00" fill="#0058ad">r 24 [1 2 3 4 5 6 7 8 9 10 11 12 13 14 16 15 17 18 19 20 21 22 23 24 25 26 27 28 29 30]</text>
<polyline fill="none" stroke="#0058ad" points="1277,-.5 1277,-29.5 "/>
<text text-anchor="middle" x="1305.5" y="-11.3" font-family="Times,serif" font-size="14.00" fill="#0058ad">a 23 83</text>
<polyline fill="none" stroke="#0058ad" points="1334,-.5 1334,-29.5 "/>
<text text-anchor="middle" x="1525.5" y="-11.3" font-family="Times,serif" font-size="14.00" fill="#0058ad">r 21 [1 2 3 4 5 6 7 8 9 10 11 12 13 14 15 16 17 18 19 20 21 22 23]</text>
<polyline fill="none" stroke="#0058ad" points="1717,-.5 1717,-29.5 "/>
<text text-anchor="middle" x="1917.5" y="-11.3" font-family="Times,serif" font-size="14.00" fill="#0058ad">r 4 [2 3 4 5 6 7 8 9 10 22 20 21 23 25 24 26 27 28 29 30 31 32 33 34]</text>
</g>
<!-- T3765&#45;&gt;T3767 -->
<g id="edge2" class="edge">
<title>T3765:f0&#45;&gt;T3767:f1</title>
<path fill="none" stroke="#5b00c0" d="M1114.5834,-81.4674C1208.4072,-73.0502 1284.2099,-59.8714 1301.6945,-39.2843"/>
<polygon fill="#5b00c0" stroke="#5b00c0" points="1304.9459,-40.5803 1305.5,-30 1298.4688,-37.9255 1304.9459,-40.5803"/>
<text text-anchor="middle" x="1294" y="-51.8" font-family="Times,serif" font-size="14.00" fill="#5b00c0">rw</text>
</g>
<!-- T3763&#45;&gt;T3765 -->
<g id="edge3" class="edge">
<title>T3763&#45;&gt;T3765</title>
<path fill="none" stroke="#0050c0" d="M868.2567,-162.4253C824.8129,-148.7329 759.7289,-128.22 713.3932,-113.6162"/>
<polygon fill="#0050c0" stroke="#0050c0" points="714.3944,-110.262 703.8048,-110.5941 712.2902,-116.9383 714.3944,-110.262"/>
<text text-anchor="middle" x="814" y="-132.8" font-family="Times,serif" font-size="14.00" fill="#0050c0">rt</text>
</g>
<!-- T3767&#45;&gt;T3759 -->
<g id="edge4" class="edge">
<title>T3767:f0&#45;&gt;T3759:f2</title>
<path fill="none" stroke="#5b00c0" d="M1024.5,-30C1024.5,-61.2862 1278.9293,-31.4825 1305.5,-48 1376.3042,-92.0149 1319.3422,-151.3886 1314.784,-232.9438"/>
<polygon fill="#5b00c0" stroke="#5b00c0" points="1311.2838,-232.9051 1314.5,-243 1318.281,-233.1028 1311.2838,-232.9051"/>
<text text-anchor="middle" x="1345" y="-132.8" font-family="Times,serif" font-size="14.00" fill="#5b00c0">rw</text>
</g>
</g>
</svg>
