<?xml version="1.0" encoding="UTF-8" standalone="no"?>
<!DOCTYPE svg PUBLIC "-//W3C//DTD SVG 1.1//EN"
 "http://www.w3.org/Graphics/SVG/1.1/DTD/svg11.dtd">
<!-- Generated by graphviz version 2.40.1 (20161225.0304)
 -->
<!-- Title: a_graph Pages: 1 -->
<svg width="4392pt" height="200pt"
 viewBox="0.00 0.00 4392.00 200.00" xmlns="http://www.w3.org/2000/svg" xmlns:xlink="http://www.w3.org/1999/xlink">
<g id="graph0" class="graph" transform="scale(1 1) rotate(0) translate(4 196)">
<title>a_graph</title>
<polygon fill="#ffffff" stroke="transparent" points="-4,4 -4,-196 4388,-196 4388,4 -4,4"/>
<!-- T3243 -->
<g id="node1" class="node">
<title>T3243</title>
<polygon fill="none" stroke="#0058ad" points="1826,-162.5 1826,-191.5 2012,-191.5 2012,-162.5 1826,-162.5"/>
<text text-anchor="middle" x="1858" y="-173.3" font-family="Times,serif" font-size="14.00" fill="#0058ad">a 19 118</text>
<polyline fill="none" stroke="#0058ad" points="1890,-162.5 1890,-191.5 "/>
<text text-anchor="middle" x="1922" y="-173.3" font-family="Times,serif" font-size="14.00" fill="#0058ad">a 19 119</text>
<polyline fill="none" stroke="#0058ad" points="1954,-162.5 1954,-191.5 "/>
<text text-anchor="middle" x="1983" y="-173.3" font-family="Times,serif" font-size="14.00" fill="#0058ad">r 22 [1]</text>
</g>
<!-- T3241 -->
<g id="node3" class="node">
<title>T3241</title>
<polygon fill="none" stroke="#0058ad" points="1642,-81.5 1642,-110.5 3478,-110.5 3478,-81.5 1642,-81.5"/>
<text text-anchor="middle" x="1702.5" y="-92.3" font-family="Times,serif" font-size="14.00" fill="#0058ad">r 21 [1 2 3 4 5 6 7]</text>
<polyline fill="none" stroke="#0058ad" points="1763,-81.5 1763,-110.5 "/>
<text text-anchor="middle" x="2566.5" y="-92.3" font-family="Times,serif" font-size="14.00" fill="#0058ad">r 16 [39 43 44 45 46 47 48 49 50 52 53 54 55 56 57 58 59 60 61 62 63 64 65 66 67 68 69 70 72 71 73 74 75 76 77 78 79 80 81 82 83 84 85 86 87 88 89 90 91 92 93 94 95 96 97 98 99 100 101 102 103 104 106 108 109 110 111 112 113 114 115 116 117 118 119 120 121 122 123 124 125]</text>
<polyline fill="none" stroke="#0058ad" points="3370,-81.5 3370,-110.5 "/>
<text text-anchor="middle" x="3399" y="-92.3" font-family="Times,serif" font-size="14.00" fill="#0058ad">r 22 [1]</text>
<polyline fill="none" stroke="#0058ad" points="3428,-81.5 3428,-110.5 "/>
<text text-anchor="middle" x="3453" y="-92.3" font-family="Times,serif" font-size="14.00" fill="#0058ad">a 22 2</text>
</g>
<!-- T3243&#45;&gt;T3241 -->
<g id="edge1" class="edge">
<title>T3243:f2&#45;&gt;T3241:f3</title>
<path fill="none" stroke="#5b00c0" d="M2012,-177C2050.2306,-177 3327.2659,-153.3954 3444.4132,-116.4269"/>
<polygon fill="#5b00c0" stroke="#5b00c0" points="3446.4166,-119.3012 3453,-111 3442.6768,-113.3839 3446.4166,-119.3012"/>
<text text-anchor="middle" x="3363.5" y="-132.8" font-family="Times,serif" font-size="14.00" fill="#5b00c0">rw</text>
</g>
<!-- T3245 -->
<g id="node2" class="node">
<title>T3245</title>
<polygon fill="none" stroke="#0058ad" points="0,-.5 0,-29.5 4384,-29.5 4384,-.5 0,-.5"/>
<text text-anchor="middle" x="1066.5" y="-11.3" font-family="Times,serif" font-size="14.00" fill="#0058ad">r 19 [1 2 3 4 5 6 7 8 9 10 12 11 13 14 15 16 17 18 19 20 21 22 23 24 25 26 27 28 29 30 31 32 33 34 35 37 38 39 40 41 43 42 44 45 47 46 49 48 50 52 53 51 54 55 56 57 58 59 60 61 63 62 64 65 66 67 68 69 70 71 72 73 74 75 76 77 78 79 80 81 82 83 84 85 86 87 88 89 90 91 92 93 94 95 96 97 98 99 100 101 102 103 104 105 106 107 108 109 110 112 111 113 115 116 117 120 121]</text>
<polyline fill="none" stroke="#0058ad" points="2133,-.5 2133,-29.5 "/>
<text text-anchor="middle" x="2167" y="-11.3" font-family="Times,serif" font-size="14.00" fill="#0058ad">r 22 [1 2]</text>
<polyline fill="none" stroke="#0058ad" points="2201,-.5 2201,-29.5 "/>
<text text-anchor="middle" x="3267.5" y="-11.3" font-family="Times,serif" font-size="14.00" fill="#0058ad">r 19 [1 2 3 4 5 6 7 8 9 10 12 11 13 14 15 16 17 18 19 20 21 22 23 24 25 26 27 28 29 30 31 32 33 34 35 37 38 39 40 41 43 42 44 45 47 46 49 48 50 52 53 51 54 55 56 57 58 59 60 61 63 62 64 65 66 67 68 69 70 71 72 73 74 75 76 77 78 79 80 81 82 83 84 85 86 87 88 89 90 91 92 93 94 95 96 97 98 99 100 101 102 103 104 105 106 107 108 109 110 112 111 113 115 116 117 120 121]</text>
<polyline fill="none" stroke="#0058ad" points="4334,-.5 4334,-29.5 "/>
<text text-anchor="middle" x="4359" y="-11.3" font-family="Times,serif" font-size="14.00" fill="#0058ad">a 22 3</text>
</g>
<!-- T3245&#45;&gt;T3243 -->
<g id="edge2" class="edge">
<title>T3245:f0&#45;&gt;T3243:f0</title>
<path fill="none" stroke="#5b00c0" d="M1066,-30C1066,-113.2378 1697.2496,-173.043 1815.8949,-176.8112"/>
<polygon fill="#5b00c0" stroke="#5b00c0" points="1815.9363,-180.3125 1826,-177 1816.0672,-173.3137 1815.9363,-180.3125"/>
<text text-anchor="middle" x="1272.5" y="-92.3" font-family="Times,serif" font-size="14.00" fill="#5b00c0">rw</text>
</g>
<!-- T3241&#45;&gt;T3245 -->
<g id="edge3" class="edge">
<title>T3241:f3&#45;&gt;T3245:f3</title>
<path fill="none" stroke="#c02700" d="M3478,-96C3524.4933,-96 4273.4356,-80.8189 4352.2963,-37.4988"/>
<polygon fill="#c02700" stroke="#c02700" points="4354.9445,-39.788 4359,-30 4349.7258,-35.1226 4354.9445,-39.788"/>
<text text-anchor="middle" x="4324" y="-51.8" font-family="Times,serif" font-size="14.00" fill="#c02700">ww</text>
</g>
</g>
</svg>
