<?xml version="1.0" encoding="UTF-8" standalone="no"?>
<!DOCTYPE svg PUBLIC "-//W3C//DTD SVG 1.1//EN"
 "http://www.w3.org/Graphics/SVG/1.1/DTD/svg11.dtd">
<!-- Generated by graphviz version 2.40.1 (20161225.0304)
 -->
<!-- Title: a_graph Pages: 1 -->
<svg width="1560pt" height="200pt"
 viewBox="0.00 0.00 1560.00 200.00" xmlns="http://www.w3.org/2000/svg" xmlns:xlink="http://www.w3.org/1999/xlink">
<g id="graph0" class="graph" transform="scale(1 1) rotate(0) translate(4 196)">
<title>a_graph</title>
<polygon fill="#ffffff" stroke="transparent" points="-4,4 -4,-196 1556,-196 1556,4 -4,4"/>
<!-- T17441 -->
<g id="node1" class="node">
<title>T17441</title>
<polygon fill="none" stroke="#0058ad" points="0,-162.5 0,-191.5 1034,-191.5 1034,-162.5 0,-162.5"/>
<text text-anchor="middle" x="488.5" y="-173.3" font-family="Times,serif" font-size="14.00" fill="#0058ad">r 87 [1 2 3 4 6 7 8 9 10 12 11 13 15 14 16 17 18 19 20 21 22 23 24 25 26 27 28 29 30 31 32 34 36 37 35 38 39 40 41 42 43 44 45 46 47 48 49 50 51 52 53 54 55 56 57 58 59]</text>
<polyline fill="none" stroke="#0058ad" points="977,-162.5 977,-191.5 "/>
<text text-anchor="middle" x="1005.5" y="-173.3" font-family="Times,serif" font-size="14.00" fill="#0058ad">a 89 68</text>
</g>
<!-- T17439 -->
<g id="node2" class="node">
<title>T17439</title>
<polygon fill="none" stroke="#0058ad" points="438,-81.5 438,-110.5 552,-110.5 552,-81.5 438,-81.5"/>
<text text-anchor="middle" x="466.5" y="-92.3" font-family="Times,serif" font-size="14.00" fill="#0058ad">a 87 60</text>
<polyline fill="none" stroke="#0058ad" points="495,-81.5 495,-110.5 "/>
<text text-anchor="middle" x="523.5" y="-92.3" font-family="Times,serif" font-size="14.00" fill="#0058ad">a 90 47</text>
</g>
<!-- T17441&#45;&gt;T17439 -->
<g id="edge1" class="edge">
<title>T17441:f0&#45;&gt;T17439:f0</title>
<path fill="none" stroke="#5b00c0" d="M488,-162C488,-141.1715 472.3379,-136.7575 467.4435,-121.0586"/>
<polygon fill="#5b00c0" stroke="#5b00c0" points="470.8851,-120.4014 466,-111 463.9561,-121.3958 470.8851,-120.4014"/>
<text text-anchor="middle" x="490.5" y="-132.8" font-family="Times,serif" font-size="14.00" fill="#5b00c0">rw</text>
</g>
<!-- T17443 -->
<g id="node3" class="node">
<title>T17443</title>
<polygon fill="none" stroke="#0058ad" points="434,-.5 434,-29.5 1552,-29.5 1552,-.5 434,-.5"/>
<text text-anchor="middle" x="462.5" y="-11.3" font-family="Times,serif" font-size="14.00" fill="#0058ad">a 68 96</text>
<polyline fill="none" stroke="#0058ad" points="491,-.5 491,-29.5 "/>
<text text-anchor="middle" x="519.5" y="-11.3" font-family="Times,serif" font-size="14.00" fill="#0058ad">a 90 48</text>
<polyline fill="none" stroke="#0058ad" points="548,-.5 548,-29.5 "/>
<text text-anchor="middle" x="1050" y="-11.3" font-family="Times,serif" font-size="14.00" fill="#0058ad">r 89 [1 3 4 5 6 7 2 8 9 11 12 14 15 13 17 18 19 20 21 22 25 23 24 27 28 29 30 32 31 33 34 36 35 37 38 39 40 41 42 43 44 45 46 47 48 49 50 52 53 51 56 57 58 59 60 61 65 66 67]</text>
</g>
<!-- T17439&#45;&gt;T17443 -->
<g id="edge2" class="edge">
<title>T17439:f1&#45;&gt;T17443:f1</title>
<path fill="none" stroke="#c02700" d="M524,-81C524,-62.1392 520.571,-55.1604 519.3923,-40.384"/>
<polygon fill="#c02700" stroke="#c02700" points="522.8752,-39.8607 519,-30 515.8802,-40.125 522.8752,-39.8607"/>
<text text-anchor="middle" x="533" y="-51.8" font-family="Times,serif" font-size="14.00" fill="#c02700">ww</text>
</g>
<!-- T17443&#45;&gt;T17441 -->
<g id="edge3" class="edge">
<title>T17443:f2&#45;&gt;T17441:f1</title>
<path fill="none" stroke="#5b00c0" d="M1050,-30C1050,-91.9968 1094.2464,-167.8423 1044.0861,-176.2353"/>
<polygon fill="#5b00c0" stroke="#5b00c0" points="1043.7068,-172.7539 1034,-177 1044.236,-179.7339 1043.7068,-172.7539"/>
<text text-anchor="middle" x="1070.5" y="-92.3" font-family="Times,serif" font-size="14.00" fill="#5b00c0">rw</text>
</g>
</g>
</svg>
