<?xml version="1.0" encoding="UTF-8" standalone="no"?>
<!DOCTYPE svg PUBLIC "-//W3C//DTD SVG 1.1//EN"
 "http://www.w3.org/Graphics/SVG/1.1/DTD/svg11.dtd">
<!-- Generated by graphviz version 2.40.1 (20161225.0304)
 -->
<!-- Title: a_graph Pages: 1 -->
<svg width="1740pt" height="119pt"
 viewBox="0.00 0.00 1740.00 119.00" xmlns="http://www.w3.org/2000/svg" xmlns:xlink="http://www.w3.org/1999/xlink">
<g id="graph0" class="graph" transform="scale(1 1) rotate(0) translate(4 115)">
<title>a_graph</title>
<polygon fill="#ffffff" stroke="transparent" points="-4,4 -4,-115 1736,-115 1736,4 -4,4"/>
<!-- T5009 -->
<g id="node1" class="node">
<title>T5009</title>
<polygon fill="none" stroke="#0058ad" points="0,-81.5 0,-110.5 1302,-110.5 1302,-81.5 0,-81.5"/>
<text text-anchor="middle" x="588.5" y="-92.3" font-family="Times,serif" font-size="14.00" fill="#0058ad">r 21 [1 2 3 4 5 6 7 8 9 10 11 12 13 14 15 16 17 18 19 20 21 22 23 24 25 26 27 28 29 30 31 32 33 34 35 36 39 38 40 41 42 43 44 45 46 47 48 49 50 51 52 53 54 55 56 57 59 60 61 62 63 64 66 67 68 69 70 71 73]</text>
<polyline fill="none" stroke="#0058ad" points="1177,-81.5 1177,-110.5 "/>
<text text-anchor="middle" x="1211" y="-92.3" font-family="Times,serif" font-size="14.00" fill="#0058ad">r 31 [1 2]</text>
<polyline fill="none" stroke="#0058ad" points="1245,-81.5 1245,-110.5 "/>
<text text-anchor="middle" x="1273.5" y="-92.3" font-family="Times,serif" font-size="14.00" fill="#0058ad">a 30 24</text>
</g>
<!-- T5011 -->
<g id="node2" class="node">
<title>T5011</title>
<polygon fill="none" stroke="#0058ad" points="426,-.5 426,-29.5 1732,-29.5 1732,-.5 426,-.5"/>
<text text-anchor="middle" x="454.5" y="-11.3" font-family="Times,serif" font-size="14.00" fill="#0058ad">a 21 75</text>
<polyline fill="none" stroke="#0058ad" points="483,-.5 483,-29.5 "/>
<text text-anchor="middle" x="907.5" y="-11.3" font-family="Times,serif" font-size="14.00" fill="#0058ad">r 5 [2 3 4 5 6 7 8 9 11 12 13 15 14 16 53 54 56 57 58 59 60 61 62 63 64 65 66 67 68 69 70 71 72 73 74 75 76 77 78 79 80 81 82 83 84 85 86 87 88 89]</text>
<polyline fill="none" stroke="#0058ad" points="1332,-.5 1332,-29.5 "/>
<text text-anchor="middle" x="1498" y="-11.3" font-family="Times,serif" font-size="14.00" fill="#0058ad">r 30 [1 2 3 4 5 6 9 10 8 11 7 12 14 16 18 19 20 21 22 23]</text>
<polyline fill="none" stroke="#0058ad" points="1664,-.5 1664,-29.5 "/>
<text text-anchor="middle" x="1698" y="-11.3" font-family="Times,serif" font-size="14.00" fill="#0058ad">r 31 [1 2]</text>
</g>
<!-- T5009&#45;&gt;T5011 -->
<g id="edge1" class="edge">
<title>T5009:f0&#45;&gt;T5011:f0</title>
<path fill="none" stroke="#5b00c0" d="M588,-81C588,-21.1351 469.7353,-84.9798 455.4142,-40.0954"/>
<polygon fill="#5b00c0" stroke="#5b00c0" points="458.8535,-39.4177 454,-30 451.9212,-40.3889 458.8535,-39.4177"/>
<text text-anchor="middle" x="588.5" y="-51.8" font-family="Times,serif" font-size="14.00" fill="#5b00c0">rw</text>
</g>
<!-- T5011&#45;&gt;T5009 -->
<g id="edge2" class="edge">
<title>T5011:f2&#45;&gt;T5009:f2</title>
<path fill="none" stroke="#5b00c0" d="M1498,-30C1498,-72.9965 1366.6766,-93.3089 1312.1156,-95.7487"/>
<polygon fill="#5b00c0" stroke="#5b00c0" points="1311.9099,-92.2526 1302,-96 1312.0839,-99.2504 1311.9099,-92.2526"/>
<text text-anchor="middle" x="1494.5" y="-51.8" font-family="Times,serif" font-size="14.00" fill="#5b00c0">rw</text>
</g>
</g>
</svg>
