<?xml version="1.0" encoding="UTF-8" standalone="no"?>
<!DOCTYPE svg PUBLIC "-//W3C//DTD SVG 1.1//EN"
 "http://www.w3.org/Graphics/SVG/1.1/DTD/svg11.dtd">
<!-- Generated by graphviz version 2.40.1 (20161225.0304)
 -->
<!-- Title: a_graph Pages: 1 -->
<svg width="3291pt" height="119pt"
 viewBox="0.00 0.00 3291.00 119.00" xmlns="http://www.w3.org/2000/svg" xmlns:xlink="http://www.w3.org/1999/xlink">
<g id="graph0" class="graph" transform="scale(1 1) rotate(0) translate(4 115)">
<title>a_graph</title>
<polygon fill="#ffffff" stroke="transparent" points="-4,4 -4,-115 3287,-115 3287,4 -4,4"/>
<!-- T19049 -->
<g id="node1" class="node">
<title>T19049</title>
<polygon fill="none" stroke="#0058ad" points="430,-81.5 430,-110.5 3283,-110.5 3283,-81.5 430,-81.5"/>
<text text-anchor="middle" x="552.5" y="-92.3" font-family="Times,serif" font-size="14.00" fill="#0058ad">r 97 [2 1 4 3 5 6 7 8 9 10 11 12 13 14 17]</text>
<polyline fill="none" stroke="#0058ad" points="675,-81.5 675,-110.5 "/>
<text text-anchor="middle" x="703.5" y="-92.3" font-family="Times,serif" font-size="14.00" fill="#0058ad">a 95 82</text>
<polyline fill="none" stroke="#0058ad" points="732,-81.5 732,-110.5 "/>
<text text-anchor="middle" x="1723" y="-92.3" font-family="Times,serif" font-size="14.00" fill="#0058ad">r 84 [1 2 3 4 5 6 7 8 9 11 12 13 14 15 16 17 18 19 20 21 22 23 24 25 26 27 28 29 30 34 33 31 32 35 36 37 38 39 40 41 43 44 45 47 48 49 50 51 53 52 54 56 58 59 60 61 62 63 64 65 66 67 68 69 70 71 72 74 73 75 76 77 78 79 80 81 82 83 84 85 86 87 88 91 92 93 94 95 96 97 98 99 100 101 102 103 104 105 106 107 108 109 110 111 112 113 115 114 116]</text>
<polyline fill="none" stroke="#0058ad" points="2714,-81.5 2714,-110.5 "/>
<text text-anchor="middle" x="2998.5" y="-92.3" font-family="Times,serif" font-size="14.00" fill="#0058ad">r 78 [3 4 5 6 7 8 9 10 11 12 13 14 15 16 17 18 19 20 21 22 23 24 25 26 27 29 30 31 32 33 34 35 37]</text>
</g>
<!-- T19047 -->
<g id="node2" class="node">
<title>T19047</title>
<polygon fill="none" stroke="#0058ad" points="0,-.5 0,-29.5 1657,-29.5 1657,-.5 0,-.5"/>
<text text-anchor="middle" x="28.5" y="-11.3" font-family="Times,serif" font-size="14.00" fill="#0058ad">a 97 15</text>
<polyline fill="none" stroke="#0058ad" points="57,-.5 57,-29.5 "/>
<text text-anchor="middle" x="188.5" y="-11.3" font-family="Times,serif" font-size="14.00" fill="#0058ad">r 97 [2 1 4 3 5 6 7 8 9 10 11 12 13 14 17 15]</text>
<polyline fill="none" stroke="#0058ad" points="320,-.5 320,-29.5 "/>
<text text-anchor="middle" x="348.5" y="-11.3" font-family="Times,serif" font-size="14.00" fill="#0058ad">a 97 16</text>
<polyline fill="none" stroke="#0058ad" points="377,-.5 377,-29.5 "/>
<text text-anchor="middle" x="1017" y="-11.3" font-family="Times,serif" font-size="14.00" fill="#0058ad">r 95 [1 2 3 4 5 7 6 8 9 10 11 12 13 14 16 17 18 19 21 22 23 24 25 26 27 28 30 31 29 32 34 33 35 36 38 39 41 43 44 45 46 47 48 40 50 52 53 54 56 57 51 58 59 60 61 62 63 65 66 64 67 68 69 70 71 72 74 73 75 78 77 76 79 80 81]</text>
</g>
<!-- T19049&#45;&gt;T19047 -->
<g id="edge1" class="edge">
<title>T19049:f0&#45;&gt;T19047:f0</title>
<path fill="none" stroke="#5b00c0" d="M429.5,-96C387.4318,-96 75.6988,-77.9075 33.2757,-38.9206"/>
<polygon fill="#5b00c0" stroke="#5b00c0" points="36.3054,-37.1642 28.5,-30 30.1341,-40.4681 36.3054,-37.1642"/>
<text text-anchor="middle" x="106" y="-51.8" font-family="Times,serif" font-size="14.00" fill="#5b00c0">rw</text>
</g>
<!-- T19047&#45;&gt;T19049 -->
<g id="edge2" class="edge">
<title>T19047:f3&#45;&gt;T19049:f1</title>
<path fill="none" stroke="#5b00c0" d="M1017.5,-30C1017.5,-167.7945 719.2429,48.8554 704.097,-70.94"/>
<polygon fill="#5b00c0" stroke="#5b00c0" points="700.5986,-70.8102 703.5,-81 707.5864,-71.2249 700.5986,-70.8102"/>
<text text-anchor="middle" x="1021" y="-51.8" font-family="Times,serif" font-size="14.00" fill="#5b00c0">rw</text>
</g>
</g>
</svg>
