<?xml version="1.0" encoding="UTF-8" standalone="no"?>
<!DOCTYPE svg PUBLIC "-//W3C//DTD SVG 1.1//EN"
 "http://www.w3.org/Graphics/SVG/1.1/DTD/svg11.dtd">
<!-- Generated by graphviz version 2.40.1 (20161225.0304)
 -->
<!-- Title: a_graph Pages: 1 -->
<svg width="4410pt" height="119pt"
 viewBox="0.00 0.00 4410.00 119.00" xmlns="http://www.w3.org/2000/svg" xmlns:xlink="http://www.w3.org/1999/xlink">
<g id="graph0" class="graph" transform="scale(1 1) rotate(0) translate(4 115)">
<title>a_graph</title>
<polygon fill="#ffffff" stroke="transparent" points="-4,4 -4,-115 4406,-115 4406,4 -4,4"/>
<!-- T19277 -->
<g id="node1" class="node">
<title>T19277</title>
<polygon fill="none" stroke="#0058ad" points="0,-81.5 0,-110.5 3346,-110.5 3346,-81.5 0,-81.5"/>
<text text-anchor="middle" x="657.5" y="-92.3" font-family="Times,serif" font-size="14.00" fill="#0058ad">r 94 [1 2 3 4 5 7 8 6 9 10 11 12 13 15 14 16 18 17 19 20 21 22 23 24 26 25 27 28 29 31 32 33 34 35 36 37 38 39 41 43 45 47 48 49 50 51 52 53 55 56 54 57 58 59 60 61 62 63 64 65 66 67 68 69 70 72 73 74 75 76 77 78 79 80 81 82 83]</text>
<polyline fill="none" stroke="#0058ad" points="1315,-81.5 1315,-110.5 "/>
<text text-anchor="middle" x="1347" y="-92.3" font-family="Times,serif" font-size="14.00" fill="#0058ad">a 97 100</text>
<polyline fill="none" stroke="#0058ad" points="1379,-81.5 1379,-110.5 "/>
<text text-anchor="middle" x="2330.5" y="-92.3" font-family="Times,serif" font-size="14.00" fill="#0058ad">r 95 [1 2 3 4 5 7 6 8 9 10 11 12 13 14 16 17 18 19 21 22 23 24 25 26 27 28 30 31 29 32 34 33 35 36 38 39 41 43 44 45 46 47 48 40 50 52 53 54 56 57 51 58 59 60 61 62 63 65 66 64 67 68 69 70 71 72 74 73 75 78 77 76 79 80 81 82 83 84 85 86 87 88 89 90 91 92 93 94 95 96 97 98 99 100 102 105 103 106 107 108 109 110 111 112 113 114]</text>
<polyline fill="none" stroke="#0058ad" points="3282,-81.5 3282,-110.5 "/>
<text text-anchor="middle" x="3314" y="-92.3" font-family="Times,serif" font-size="14.00" fill="#0058ad">a 97 101</text>
</g>
<!-- T19279 -->
<g id="node2" class="node">
<title>T19279</title>
<polygon fill="none" stroke="#0058ad" points="1156,-.5 1156,-29.5 4402,-29.5 4402,-.5 1156,-.5"/>
<text text-anchor="middle" x="1188" y="-11.3" font-family="Times,serif" font-size="14.00" fill="#0058ad">a 95 115</text>
<polyline fill="none" stroke="#0058ad" points="1220,-.5 1220,-29.5 "/>
<text text-anchor="middle" x="2015.5" y="-11.3" font-family="Times,serif" font-size="14.00" fill="#0058ad">r 97 [2 1 4 3 5 6 7 8 9 10 11 12 13 14 17 15 16 22 18 19 23 20 21 25 24 26 28 27 29 30 31 32 33 34 35 36 37 38 41 39 40 42 44 43 47 45 46 48 49 50 51 53 52 57 60 61 54 55 62 63 66 64 65 67 70 71 72 73 74 75 76 68 69 77 79 81 83 84 85 86 87 89 90 91 92 93 88 94 95 96 97 98 99]</text>
<polyline fill="none" stroke="#0058ad" points="2811,-.5 2811,-29.5 "/>
<text text-anchor="middle" x="3606.5" y="-11.3" font-family="Times,serif" font-size="14.00" fill="#0058ad">r 97 [2 1 4 3 5 6 7 8 9 10 11 12 13 14 17 15 16 22 18 19 23 20 21 25 24 26 28 27 29 30 31 32 33 34 35 36 37 38 41 39 40 42 44 43 47 45 46 48 49 50 51 53 52 57 60 61 54 55 62 63 66 64 65 67 70 71 72 73 74 75 76 68 69 77 79 81 83 84 85 86 87 89 90 91 92 93 88 94 95 96 97 98 99]</text>
</g>
<!-- T19277&#45;&gt;T19279 -->
<g id="edge1" class="edge">
<title>T19277:f2&#45;&gt;T19279:f0</title>
<path fill="none" stroke="#5b00c0" d="M2331,-81C2331,81.1659 1764.0065,-55.1887 1602,-48 1591.5561,-47.5366 1258.6017,-42.5625 1197.5614,-33.0302"/>
<polygon fill="#5b00c0" stroke="#5b00c0" points="1198.5901,-29.6847 1188,-30 1196.4753,-36.3576 1198.5901,-29.6847"/>
<text text-anchor="middle" x="2335.5" y="-51.8" font-family="Times,serif" font-size="14.00" fill="#5b00c0">rw</text>
</g>
<!-- T19279&#45;&gt;T19277 -->
<g id="edge2" class="edge">
<title>T19279:f1&#45;&gt;T19277:f1</title>
<path fill="none" stroke="#5b00c0" d="M2015,-30C2015,-54.0208 1606.923,-45.8342 1583,-48 1481.1272,-57.2228 1355.8931,19.38 1347.4512,-70.7891"/>
<polygon fill="#5b00c0" stroke="#5b00c0" points="1343.945,-70.8552 1347,-81 1350.9382,-71.1643 1343.945,-70.8552"/>
<text text-anchor="middle" x="1590.5" y="-51.8" font-family="Times,serif" font-size="14.00" fill="#5b00c0">rw</text>
</g>
</g>
</svg>
