<?xml version="1.0" encoding="UTF-8" standalone="no"?>
<!DOCTYPE svg PUBLIC "-//W3C//DTD SVG 1.1//EN"
 "http://www.w3.org/Graphics/SVG/1.1/DTD/svg11.dtd">
<!-- Generated by graphviz version 2.40.1 (20161225.0304)
 -->
<!-- Title: a_graph Pages: 1 -->
<svg width="1166pt" height="119pt"
 viewBox="0.00 0.00 1166.00 119.00" xmlns="http://www.w3.org/2000/svg" xmlns:xlink="http://www.w3.org/1999/xlink">
<g id="graph0" class="graph" transform="scale(1 1) rotate(0) translate(4 115)">
<title>a_graph</title>
<polygon fill="#ffffff" stroke="transparent" points="-4,4 -4,-115 1162,-115 1162,4 -4,4"/>
<!-- T5325 -->
<g id="node1" class="node">
<title>T5325</title>
<polygon fill="none" stroke="#0058ad" points="0,-81.5 0,-110.5 1158,-110.5 1158,-81.5 0,-81.5"/>
<text text-anchor="middle" x="25" y="-92.3" font-family="Times,serif" font-size="14.00" fill="#0058ad">a 5 95</text>
<polyline fill="none" stroke="#0058ad" points="50,-81.5 50,-110.5 "/>
<text text-anchor="middle" x="75" y="-92.3" font-family="Times,serif" font-size="14.00" fill="#0058ad">a 32 5</text>
<polyline fill="none" stroke="#0058ad" points="100,-81.5 100,-110.5 "/>
<text text-anchor="middle" x="128.5" y="-92.3" font-family="Times,serif" font-size="14.00" fill="#0058ad">a 31 30</text>
<polyline fill="none" stroke="#0058ad" points="157,-81.5 157,-110.5 "/>
<text text-anchor="middle" x="657.5" y="-92.3" font-family="Times,serif" font-size="14.00" fill="#0058ad">r 29 [1 2 4 3 5 7 8 10 11 13 14 15 16 17 18 19 20 21 22 23 24 25 26 27 28 29 30 31 32 33 34 35 36 37 38 40 39 41 42 43 44 45 46 47 48 50 51 54 52 53 56 57 58 59 60 61 62 63]</text>
</g>
<!-- T5323 -->
<g id="node2" class="node">
<title>T5323</title>
<polygon fill="none" stroke="#0058ad" points="349,-.5 349,-29.5 495,-29.5 495,-.5 349,-.5"/>
<text text-anchor="middle" x="393.5" y="-11.3" font-family="Times,serif" font-size="14.00" fill="#0058ad">r 32 [1 2 3 4]</text>
<polyline fill="none" stroke="#0058ad" points="438,-.5 438,-29.5 "/>
<text text-anchor="middle" x="466.5" y="-11.3" font-family="Times,serif" font-size="14.00" fill="#0058ad">a 29 64</text>
</g>
<!-- T5325&#45;&gt;T5323 -->
<g id="edge1" class="edge">
<title>T5325:f3&#45;&gt;T5323:f1</title>
<path fill="none" stroke="#5b00c0" d="M658,-81C658,-44.8215 551.7908,-19.0631 505.0179,-15.4388"/>
<polygon fill="#5b00c0" stroke="#5b00c0" points="505.1436,-11.9411 495,-15 504.8372,-18.9344 505.1436,-11.9411"/>
<text text-anchor="middle" x="654.5" y="-51.8" font-family="Times,serif" font-size="14.00" fill="#5b00c0">rw</text>
</g>
<!-- T5323&#45;&gt;T5325 -->
<g id="edge2" class="edge">
<title>T5323:f0&#45;&gt;T5325:f1</title>
<path fill="none" stroke="#5b00c0" d="M349,-15C289.917,-15 98.467,-17.9987 76.9689,-70.9179"/>
<polygon fill="#5b00c0" stroke="#5b00c0" points="73.4816,-70.5145 75,-81 80.3518,-71.8563 73.4816,-70.5145"/>
<text text-anchor="middle" x="105.5" y="-51.8" font-family="Times,serif" font-size="14.00" fill="#5b00c0">rw</text>
</g>
</g>
</svg>
