<?xml version="1.0" encoding="UTF-8" standalone="no"?>
<!DOCTYPE svg PUBLIC "-//W3C//DTD SVG 1.1//EN"
 "http://www.w3.org/Graphics/SVG/1.1/DTD/svg11.dtd">
<!-- Generated by graphviz version 2.40.1 (20161225.0304)
 -->
<!-- Title: a_graph Pages: 1 -->
<svg width="1609pt" height="119pt"
 viewBox="0.00 0.00 1609.00 119.00" xmlns="http://www.w3.org/2000/svg" xmlns:xlink="http://www.w3.org/1999/xlink">
<g id="graph0" class="graph" transform="scale(1 1) rotate(0) translate(4 115)">
<title>a_graph</title>
<polygon fill="#ffffff" stroke="transparent" points="-4,4 -4,-115 1605,-115 1605,4 -4,4"/>
<!-- T17001 -->
<g id="node1" class="node">
<title>T17001</title>
<polygon fill="none" stroke="#0058ad" points="0,-81.5 0,-110.5 1166,-110.5 1166,-81.5 0,-81.5"/>
<text text-anchor="middle" x="28.5" y="-92.3" font-family="Times,serif" font-size="14.00" fill="#0058ad">a 87 24</text>
<polyline fill="none" stroke="#0058ad" points="57,-81.5 57,-110.5 "/>
<text text-anchor="middle" x="85.5" y="-92.3" font-family="Times,serif" font-size="14.00" fill="#0058ad">a 84 39</text>
<polyline fill="none" stroke="#0058ad" points="114,-81.5 114,-110.5 "/>
<text text-anchor="middle" x="640" y="-92.3" font-family="Times,serif" font-size="14.00" fill="#0058ad">r 88 [1 2 6 7 10 5 11 12 13 14 15 16 17 8 9 18 19 20 21 22 24 25 23 27 26 29 28 32 31 30 34 35 37 36 33 38 39 40 41 42 43 44 45 46 48 49 50 47 51 52 53 54 55 56 57 58 59 60 61 62 63]</text>
</g>
<!-- T17005 -->
<g id="node2" class="node">
<title>T17005</title>
<polygon fill="none" stroke="#0058ad" points="27,-.5 27,-29.5 1601,-29.5 1601,-.5 27,-.5"/>
<text text-anchor="middle" x="55.5" y="-11.3" font-family="Times,serif" font-size="14.00" fill="#0058ad">a 88 64</text>
<polyline fill="none" stroke="#0058ad" points="84,-.5 84,-29.5 "/>
<text text-anchor="middle" x="112.5" y="-11.3" font-family="Times,serif" font-size="14.00" fill="#0058ad">a 88 65</text>
<polyline fill="none" stroke="#0058ad" points="141,-.5 141,-29.5 "/>
<text text-anchor="middle" x="327.5" y="-11.3" font-family="Times,serif" font-size="14.00" fill="#0058ad">r 87 [1 2 3 4 6 7 8 9 10 12 11 13 15 14 16 17 18 19 20 21 22 23]</text>
<polyline fill="none" stroke="#0058ad" points="514,-.5 514,-29.5 "/>
<text text-anchor="middle" x="1057.5" y="-11.3" font-family="Times,serif" font-size="14.00" fill="#0058ad">r 88 [1 2 6 7 10 5 11 12 13 14 15 16 17 8 9 18 19 20 21 22 24 25 23 27 26 29 28 32 31 30 34 35 37 36 33 38 39 40 41 42 43 44 45 46 48 49 50 47 51 52 53 54 55 56 57 58 59 60 61 62 63 64 65]</text>
</g>
<!-- T17001&#45;&gt;T17005 -->
<g id="edge1" class="edge">
<title>T17001:f2&#45;&gt;T17005:f0</title>
<path fill="none" stroke="#5b00c0" d="M640,-81C640,-65.9309 140.7268,-49.0992 64.6657,-33.7616"/>
<polygon fill="#5b00c0" stroke="#5b00c0" points="65.5885,-30.3651 55,-30 63.0498,-36.8885 65.5885,-30.3651"/>
<text text-anchor="middle" x="474.5" y="-51.8" font-family="Times,serif" font-size="14.00" fill="#5b00c0">rw</text>
</g>
<!-- T17005&#45;&gt;T17001 -->
<g id="edge2" class="edge">
<title>T17005:f2&#45;&gt;T17001:f0</title>
<path fill="none" stroke="#5b00c0" d="M327,-30C327,-56.7453 234.3788,-43.588 208,-48 131.3846,-60.8143 36.9252,-5.0629 28.5932,-70.8855"/>
<polygon fill="#5b00c0" stroke="#5b00c0" points="25.0916,-70.8122 28,-81 32.0796,-71.2221 25.0916,-70.8122"/>
<text text-anchor="middle" x="215.5" y="-51.8" font-family="Times,serif" font-size="14.00" fill="#5b00c0">rw</text>
</g>
</g>
</svg>
