<?xml version="1.0" encoding="UTF-8" standalone="no"?>
<!DOCTYPE svg PUBLIC "-//W3C//DTD SVG 1.1//EN"
 "http://www.w3.org/Graphics/SVG/1.1/DTD/svg11.dtd">
<!-- Generated by graphviz version 2.40.1 (20161225.0304)
 -->
<!-- Title: a_graph Pages: 1 -->
<svg width="3826pt" height="119pt"
 viewBox="0.00 0.00 3826.00 119.00" xmlns="http://www.w3.org/2000/svg" xmlns:xlink="http://www.w3.org/1999/xlink">
<g id="graph0" class="graph" transform="scale(1 1) rotate(0) translate(4 115)">
<title>a_graph</title>
<polygon fill="#ffffff" stroke="transparent" points="-4,4 -4,-115 3822,-115 3822,4 -4,4"/>
<!-- T16657 -->
<g id="node1" class="node">
<title>T16657</title>
<polygon fill="none" stroke="#0058ad" points="0,-81.5 0,-110.5 3818,-110.5 3818,-81.5 0,-81.5"/>
<text text-anchor="middle" x="640" y="-92.3" font-family="Times,serif" font-size="14.00" fill="#0058ad">r 86 [1 2 4 5 3 6 8 9 11 7 13 12 14 15 16 17 18 10 19 20 21 22 23 25 24 26 28 29 27 30 31 32 33 34 35 36 37 38 39 40 41 42 43 45 46 44 47 48 49 50 51 53 52 54 56 57 58 55 60 63 64 59 65 66 67 68 69 61 72 73 74 77 78 75 76]</text>
<polyline fill="none" stroke="#0058ad" points="1280,-81.5 1280,-110.5 "/>
<text text-anchor="middle" x="1880.5" y="-92.3" font-family="Times,serif" font-size="14.00" fill="#0058ad">r 85 [3 4 2 5 6 7 8 9 10 11 12 13 14 15 16 17 18 22 23 21 25 26 27 29 28 30 31 32 35 37 38 39 33 34 40 41 36 42 43 44 45 46 49 47 48 50 51 52 53 54 55 56 58 57 59 60 61 62 63 64 66 67 65 68 69 70 71 72 73 75]</text>
<polyline fill="none" stroke="#0058ad" points="2481,-81.5 2481,-110.5 "/>
<text text-anchor="middle" x="3121" y="-92.3" font-family="Times,serif" font-size="14.00" fill="#0058ad">r 86 [1 2 4 5 3 6 8 9 11 7 13 12 14 15 16 17 18 10 19 20 21 22 23 25 24 26 28 29 27 30 31 32 33 34 35 36 37 38 39 40 41 42 43 45 46 44 47 48 49 50 51 53 52 54 56 57 58 55 60 63 64 59 65 66 67 68 69 61 72 73 74 77 78 75 76]</text>
<polyline fill="none" stroke="#0058ad" points="3761,-81.5 3761,-110.5 "/>
<text text-anchor="middle" x="3789.5" y="-92.3" font-family="Times,serif" font-size="14.00" fill="#0058ad">a 85 76</text>
</g>
<!-- T16655 -->
<g id="node2" class="node">
<title>T16655</title>
<polygon fill="none" stroke="#0058ad" points="1802,-.5 1802,-29.5 3336,-29.5 3336,-.5 1802,-.5"/>
<text text-anchor="middle" x="1940" y="-11.3" font-family="Times,serif" font-size="14.00" fill="#0058ad">r 78 [3 4 5 6 7 8 9 10 11 12 13 14 15 16 17 18]</text>
<polyline fill="none" stroke="#0058ad" points="2078,-.5 2078,-29.5 "/>
<text text-anchor="middle" x="2678.5" y="-11.3" font-family="Times,serif" font-size="14.00" fill="#0058ad">r 85 [3 4 2 5 6 7 8 9 10 11 12 13 14 15 16 17 18 22 23 21 25 26 27 29 28 30 31 32 35 37 38 39 33 34 40 41 36 42 43 44 45 46 49 47 48 50 51 52 53 54 55 56 58 57 59 60 61 62 63 64 66 67 65 68 69 70 71 72 73 75]</text>
<polyline fill="none" stroke="#0058ad" points="3279,-.5 3279,-29.5 "/>
<text text-anchor="middle" x="3307.5" y="-11.3" font-family="Times,serif" font-size="14.00" fill="#0058ad">a 86 81</text>
</g>
<!-- T16657&#45;&gt;T16655 -->
<g id="edge1" class="edge">
<title>T16657:f0&#45;&gt;T16655:f2</title>
<path fill="none" stroke="#5b00c0" d="M640,-81C640,-45.2226 3126.2183,-65.5313 3298.6026,-33.6426"/>
<polygon fill="#5b00c0" stroke="#5b00c0" points="3299.9409,-36.8777 3308,-30 3297.411,-30.3508 3299.9409,-36.8777"/>
<text text-anchor="middle" x="2868.5" y="-51.8" font-family="Times,serif" font-size="14.00" fill="#5b00c0">rw</text>
</g>
<!-- T16655&#45;&gt;T16657 -->
<g id="edge2" class="edge">
<title>T16655:f1&#45;&gt;T16657:f3</title>
<path fill="none" stroke="#5b00c0" d="M2679,-30C2679,-59.2645 3675.9138,-51.1282 3781.0571,-76.448"/>
<polygon fill="#5b00c0" stroke="#5b00c0" points="3779.5003,-79.5829 3790,-81 3782.6757,-73.3446 3779.5003,-79.5829"/>
<text text-anchor="middle" x="3558.5" y="-51.8" font-family="Times,serif" font-size="14.00" fill="#5b00c0">rw</text>
</g>
</g>
</svg>
