<?xml version="1.0" encoding="UTF-8" standalone="no"?>
<!DOCTYPE svg PUBLIC "-//W3C//DTD SVG 1.1//EN"
 "http://www.w3.org/Graphics/SVG/1.1/DTD/svg11.dtd">
<!-- Generated by graphviz version 2.40.1 (20161225.0304)
 -->
<!-- Title: a_graph Pages: 1 -->
<svg width="2101pt" height="119pt"
 viewBox="0.00 0.00 2101.00 119.00" xmlns="http://www.w3.org/2000/svg" xmlns:xlink="http://www.w3.org/1999/xlink">
<g id="graph0" class="graph" transform="scale(1 1) rotate(0) translate(4 115)">
<title>a_graph</title>
<polygon fill="#ffffff" stroke="transparent" points="-4,4 -4,-115 2097,-115 2097,4 -4,4"/>
<!-- T18605 -->
<g id="node1" class="node">
<title>T18605</title>
<polygon fill="none" stroke="#0058ad" points="837.5,-81.5 837.5,-110.5 1327.5,-110.5 1327.5,-81.5 837.5,-81.5"/>
<text text-anchor="middle" x="866" y="-92.3" font-family="Times,serif" font-size="14.00" fill="#0058ad">a 96 13</text>
<polyline fill="none" stroke="#0058ad" points="894.5,-81.5 894.5,-110.5 "/>
<text text-anchor="middle" x="982.5" y="-92.3" font-family="Times,serif" font-size="14.00" fill="#0058ad">r 95 [1 2 3 4 5 7 6 8 9 10 11]</text>
<polyline fill="none" stroke="#0058ad" points="1070.5,-81.5 1070.5,-110.5 "/>
<text text-anchor="middle" x="1170.5" y="-92.3" font-family="Times,serif" font-size="14.00" fill="#0058ad">r 96 [1 2 5 6 7 8 10 3 4 11 12 13]</text>
<polyline fill="none" stroke="#0058ad" points="1270.5,-81.5 1270.5,-110.5 "/>
<text text-anchor="middle" x="1299" y="-92.3" font-family="Times,serif" font-size="14.00" fill="#0058ad">a 96 14</text>
</g>
<!-- T18609 -->
<g id="node2" class="node">
<title>T18609</title>
<polygon fill="none" stroke="#0058ad" points="0,-.5 0,-29.5 2093,-29.5 2093,-.5 0,-.5"/>
<text text-anchor="middle" x="28.5" y="-11.3" font-family="Times,serif" font-size="14.00" fill="#0058ad">a 95 12</text>
<polyline fill="none" stroke="#0058ad" points="57,-.5 57,-29.5 "/>
<text text-anchor="middle" x="892" y="-11.3" font-family="Times,serif" font-size="14.00" fill="#0058ad">r 84 [1 2 3 4 5 6 7 8 9 11 12 13 14 15 16 17 18 19 20 21 22 23 24 25 26 27 28 29 30 34 33 31 32 35 36 37 38 39 40 41 43 44 45 47 48 49 50 51 53 52 54 56 58 59 60 61 62 63 64 65 66 67 68 69 70 71 72 74 73 75 76 77 78 79 80 81 82 83 84 85 86 87 88 91 92 93 94 95 96 97 98 99 100 101 102 103]</text>
<polyline fill="none" stroke="#0058ad" points="1727,-.5 1727,-29.5 "/>
<text text-anchor="middle" x="1818.5" y="-11.3" font-family="Times,serif" font-size="14.00" fill="#0058ad">r 96 [1 2 5 6 7 8 10 3 4 11 12]</text>
<polyline fill="none" stroke="#0058ad" points="1910,-.5 1910,-29.5 "/>
<text text-anchor="middle" x="2001.5" y="-11.3" font-family="Times,serif" font-size="14.00" fill="#0058ad">r 96 [1 2 5 6 7 8 10 3 4 11 12]</text>
</g>
<!-- T18605&#45;&gt;T18609 -->
<g id="edge1" class="edge">
<title>T18605:f1&#45;&gt;T18609:f0</title>
<path fill="none" stroke="#5b00c0" d="M982.5,-81C982.5,-43.3584 941.3115,-55.8612 904.5,-48 882.1626,-43.2298 130.2247,-52.9956 37.7857,-34.0983"/>
<polygon fill="#5b00c0" stroke="#5b00c0" points="39.0618,-30.8358 28.5,-30 36.2354,-37.2398 39.0618,-30.8358"/>
<text text-anchor="middle" x="984" y="-51.8" font-family="Times,serif" font-size="14.00" fill="#5b00c0">rw</text>
</g>
<!-- T18609&#45;&gt;T18605 -->
<g id="edge2" class="edge">
<title>T18609:f2&#45;&gt;T18605:f0</title>
<path fill="none" stroke="#5b00c0" d="M1818.5,-30C1818.5,-55.9215 907.9615,-35.0614 885.5,-48 874.0061,-54.6209 868.3277,-60.4816 866.3447,-70.7323"/>
<polygon fill="#5b00c0" stroke="#5b00c0" points="862.8318,-70.7467 865.5,-81 869.8082,-71.3207 862.8318,-70.7467"/>
<text text-anchor="middle" x="893" y="-51.8" font-family="Times,serif" font-size="14.00" fill="#5b00c0">rw</text>
</g>
</g>
</svg>
