<?xml version="1.0" encoding="UTF-8" standalone="no"?>
<!DOCTYPE svg PUBLIC "-//W3C//DTD SVG 1.1//EN"
 "http://www.w3.org/Graphics/SVG/1.1/DTD/svg11.dtd">
<!-- Generated by graphviz version 2.40.1 (20161225.0304)
 -->
<!-- Title: a_graph Pages: 1 -->
<svg width="3927pt" height="119pt"
 viewBox="0.00 0.00 3926.50 119.00" xmlns="http://www.w3.org/2000/svg" xmlns:xlink="http://www.w3.org/1999/xlink">
<g id="graph0" class="graph" transform="scale(1 1) rotate(0) translate(4 115)">
<title>a_graph</title>
<polygon fill="#ffffff" stroke="transparent" points="-4,4 -4,-115 3922.5,-115 3922.5,4 -4,4"/>
<!-- T7137 -->
<g id="node1" class="node">
<title>T7137</title>
<polygon fill="none" stroke="#0058ad" points="416.5,-81.5 416.5,-110.5 3918.5,-110.5 3918.5,-81.5 416.5,-81.5"/>
<text text-anchor="middle" x="901.5" y="-92.3" font-family="Times,serif" font-size="14.00" fill="#0058ad">r 40 [1 2 3 4 5 6 7 8 9 10 11 12 14 15 16 13 17 18 19 20 21 22 23 24 25 27 28 29 26 31 32 30 33 34 35 36 37 39 38 40 41 42 43 44 45 47 48 49 50 51 53 52 54 55 46 57 58]</text>
<polyline fill="none" stroke="#0058ad" points="1386.5,-81.5 1386.5,-110.5 "/>
<text text-anchor="middle" x="1415" y="-92.3" font-family="Times,serif" font-size="14.00" fill="#0058ad">a 36 96</text>
<polyline fill="none" stroke="#0058ad" points="1443.5,-81.5 1443.5,-110.5 "/>
<text text-anchor="middle" x="1928.5" y="-92.3" font-family="Times,serif" font-size="14.00" fill="#0058ad">r 40 [1 2 3 4 5 6 7 8 9 10 11 12 14 15 16 13 17 18 19 20 21 22 23 24 25 27 28 29 26 31 32 30 33 34 35 36 37 39 38 40 41 42 43 44 45 47 48 49 50 51 53 52 54 55 46 57 58]</text>
<polyline fill="none" stroke="#0058ad" points="2413.5,-81.5 2413.5,-110.5 "/>
<text text-anchor="middle" x="3166" y="-92.3" font-family="Times,serif" font-size="14.00" fill="#0058ad">r 36 [1 2 3 4 5 6 7 8 9 10 11 12 13 14 15 16 17 18 19 20 22 23 26 28 29 30 31 32 34 35 36 37 38 39 42 40 41 43 44 45 46 47 48 49 50 51 52 53 54 55 56 57 58 59 60 61 62 63 64 65 66 67 72 71 73 74 75 76 78 77 79 80 81 83 84 85 82 86 87 88 89 90 91 92 93 94 95 96]</text>
</g>
<!-- T7138 -->
<g id="node2" class="node">
<title>T7138</title>
<polygon fill="none" stroke="#0058ad" points="0,-.5 0,-29.5 1601,-29.5 1601,-.5 0,-.5"/>
<text text-anchor="middle" x="743.5" y="-11.3" font-family="Times,serif" font-size="14.00" fill="#0058ad">r 36 [1 2 3 4 5 6 7 8 9 10 11 12 13 14 15 16 17 18 19 20 22 23 26 28 29 30 31 32 34 35 36 37 38 39 42 40 41 43 44 45 46 47 48 49 50 51 52 53 54 55 56 57 58 59 60 61 62 63 64 65 66 67 72 71 73 74 75 76 78 77 79 80 81 83 84 85 82 86 87 88 89 90 91 92 93 94 95]</text>
<polyline fill="none" stroke="#0058ad" points="1487,-.5 1487,-29.5 "/>
<text text-anchor="middle" x="1515.5" y="-11.3" font-family="Times,serif" font-size="14.00" fill="#0058ad">a 37 21</text>
<polyline fill="none" stroke="#0058ad" points="1544,-.5 1544,-29.5 "/>
<text text-anchor="middle" x="1572.5" y="-11.3" font-family="Times,serif" font-size="14.00" fill="#0058ad">a 40 56</text>
</g>
<!-- T7137&#45;&gt;T7138 -->
<g id="edge1" class="edge">
<title>T7137:f0&#45;&gt;T7138:f2</title>
<path fill="none" stroke="#5b00c0" d="M901.5,-81C901.5,78.3431 1099.6015,-59.8948 1258.5,-48 1274.1206,-46.8307 1514.0908,-47.3344 1563.6048,-34.8621"/>
<polygon fill="#5b00c0" stroke="#5b00c0" points="1565.4039,-37.8674 1572.5,-30 1562.0465,-31.7251 1565.4039,-37.8674"/>
<text text-anchor="middle" x="1266" y="-51.8" font-family="Times,serif" font-size="14.00" fill="#5b00c0">rw</text>
</g>
<!-- T7138&#45;&gt;T7137 -->
<g id="edge2" class="edge">
<title>T7138:f0&#45;&gt;T7137:f1</title>
<path fill="none" stroke="#5b00c0" d="M743.5,-30C743.5,-44.7307 1258.8973,-46.0623 1273.5,-48 1333.5625,-55.9701 1405.4992,-21.1412 1413.7231,-70.7291"/>
<polygon fill="#5b00c0" stroke="#5b00c0" points="1410.2556,-71.2925 1414.5,-81 1417.2357,-70.7645 1410.2556,-71.2925"/>
<text text-anchor="middle" x="1418" y="-51.8" font-family="Times,serif" font-size="14.00" fill="#5b00c0">rw</text>
</g>
</g>
</svg>
