<?xml version="1.0" encoding="UTF-8" standalone="no"?>
<!DOCTYPE svg PUBLIC "-//W3C//DTD SVG 1.1//EN"
 "http://www.w3.org/Graphics/SVG/1.1/DTD/svg11.dtd">
<!-- Generated by graphviz version 2.40.1 (20161225.0304)
 -->
<!-- Title: a_graph Pages: 1 -->
<svg width="7069pt" height="200pt"
 viewBox="0.00 0.00 7068.50 200.00" xmlns="http://www.w3.org/2000/svg" xmlns:xlink="http://www.w3.org/1999/xlink">
<g id="graph0" class="graph" transform="scale(1 1) rotate(0) translate(4 196)">
<title>a_graph</title>
<polygon fill="#ffffff" stroke="transparent" points="-4,4 -4,-196 7064.5,-196 7064.5,4 -4,4"/>
<!-- T17629 -->
<g id="node1" class="node">
<title>T17629</title>
<polygon fill="none" stroke="#0058ad" points="3273,-162.5 3273,-191.5 4980,-191.5 4980,-162.5 3273,-162.5"/>
<text text-anchor="middle" x="4126.5" y="-173.3" font-family="Times,serif" font-size="14.00" fill="#0058ad">r 90 [2 5 7 6 8 9 12 10 11 13 14 15 16 17 18 19 20 22 23 24 25 26 27 28 29 30 31 33 36 37 34 35 38 39 41 42 43 40 44 45 46 47 48 49 50 51 52 53 54 55 56 57 58 59 60 61 62 63 64 66 67 69 68 70 71 72 73 65 76 77 78 79 80 81 82 74 75 86 83 84 87 88 85 89 90 91 92 93 95 96 97 98 100 101 94 102 103]</text>
</g>
<!-- T17633 -->
<g id="node3" class="node">
<title>T17633</title>
<polygon fill="none" stroke="#0058ad" points="0,-81.5 0,-110.5 4545,-110.5 4545,-81.5 0,-81.5"/>
<text text-anchor="middle" x="600.5" y="-92.3" font-family="Times,serif" font-size="14.00" fill="#0058ad">r 87 [1 2 3 4 6 7 8 9 10 12 11 13 15 14 16 17 18 19 20 21 22 23 24 25 26 27 28 29 30 31 32 34 36 37 35 38 39 40 41 42 43 44 45 46 47 48 49 50 51 52 53 54 55 56 57 58 59 60 61 62 63 64 65 66 68 67 69 70 71 72]</text>
<polyline fill="none" stroke="#0058ad" points="1201,-81.5 1201,-110.5 "/>
<text text-anchor="middle" x="1982.5" y="-92.3" font-family="Times,serif" font-size="14.00" fill="#0058ad">r 89 [1 3 4 5 6 7 2 8 9 11 12 14 15 13 17 18 19 20 21 22 25 23 24 27 28 29 30 32 31 33 34 36 35 37 38 39 40 41 42 43 44 45 46 47 48 49 50 52 53 51 56 57 58 59 60 61 65 66 67 68 69 70 72 73 75 74 76 77 71 78 79 80 82 84 83 85 86 87 81 88 90 91 89 92 93 96 94 95 97 99 100]</text>
<polyline fill="none" stroke="#0058ad" points="2764,-81.5 2764,-110.5 "/>
<text text-anchor="middle" x="2792.5" y="-92.3" font-family="Times,serif" font-size="14.00" fill="#0058ad">a 90 99</text>
<polyline fill="none" stroke="#0058ad" points="2821,-81.5 2821,-110.5 "/>
<text text-anchor="middle" x="3683" y="-92.3" font-family="Times,serif" font-size="14.00" fill="#0058ad">r 90 [2 5 7 6 8 9 12 10 11 13 14 15 16 17 18 19 20 22 23 24 25 26 27 28 29 30 31 33 36 37 34 35 38 39 41 42 43 40 44 45 46 47 48 49 50 51 52 53 54 55 56 57 58 59 60 61 62 63 64 66 67 69 68 70 71 72 73 65 76 77 78 79 80 81 82 74 75 86 83 84 87 88 85 89 90 91 92 93 95 96 97 98 100 101 94 102 103 99]</text>
</g>
<!-- T17629&#45;&gt;T17633 -->
<g id="edge1" class="edge">
<title>T17629:f0&#45;&gt;T17633:f2</title>
<path fill="none" stroke="#5b00c0" d="M3594.9554,-162.4961C3254.2889,-151.5148 2864.4061,-135.1279 2801.3208,-116.2523"/>
<polygon fill="#5b00c0" stroke="#5b00c0" points="2802.8828,-113.1089 2792.5,-111 2799.3015,-119.1235 2802.8828,-113.1089"/>
<text text-anchor="middle" x="3123" y="-132.8" font-family="Times,serif" font-size="14.00" fill="#5b00c0">rw</text>
</g>
<!-- T17623 -->
<g id="node2" class="node">
<title>T17623</title>
<polygon fill="none" stroke="#0058ad" points="1882.5,-.5 1882.5,-29.5 7060.5,-29.5 7060.5,-.5 1882.5,-.5"/>
<text text-anchor="middle" x="1911" y="-11.3" font-family="Times,serif" font-size="14.00" fill="#0058ad">a 87 73</text>
<polyline fill="none" stroke="#0058ad" points="1939.5,-.5 1939.5,-29.5 "/>
<text text-anchor="middle" x="2793" y="-11.3" font-family="Times,serif" font-size="14.00" fill="#0058ad">r 90 [2 5 7 6 8 9 12 10 11 13 14 15 16 17 18 19 20 22 23 24 25 26 27 28 29 30 31 33 36 37 34 35 38 39 41 42 43 40 44 45 46 47 48 49 50 51 52 53 54 55 56 57 58 59 60 61 62 63 64 66 67 69 68 70 71 72 73 65 76 77 78 79 80 81 82 74 75 86 83 84 87 88 85 89 90 91 92 93 95 96 97 98 100 101 94 102 103]</text>
<polyline fill="none" stroke="#0058ad" points="3646.5,-.5 3646.5,-29.5 "/>
<text text-anchor="middle" x="4500" y="-11.3" font-family="Times,serif" font-size="14.00" fill="#0058ad">r 90 [2 5 7 6 8 9 12 10 11 13 14 15 16 17 18 19 20 22 23 24 25 26 27 28 29 30 31 33 36 37 34 35 38 39 41 42 43 40 44 45 46 47 48 49 50 51 52 53 54 55 56 57 58 59 60 61 62 63 64 66 67 69 68 70 71 72 73 65 76 77 78 79 80 81 82 74 75 86 83 84 87 88 85 89 90 91 92 93 95 96 97 98 100 101 94 102 103]</text>
<polyline fill="none" stroke="#0058ad" points="5353.5,-.5 5353.5,-29.5 "/>
<text text-anchor="middle" x="6207" y="-11.3" font-family="Times,serif" font-size="14.00" fill="#0058ad">r 90 [2 5 7 6 8 9 12 10 11 13 14 15 16 17 18 19 20 22 23 24 25 26 27 28 29 30 31 33 36 37 34 35 38 39 41 42 43 40 44 45 46 47 48 49 50 51 52 53 54 55 56 57 58 59 60 61 62 63 64 66 67 69 68 70 71 72 73 65 76 77 78 79 80 81 82 74 75 86 83 84 87 88 85 89 90 91 92 93 95 96 97 98 100 101 94 102 103]</text>
</g>
<!-- T17623&#45;&gt;T17629 -->
<g id="edge2" class="edge">
<title>T17623&#45;&gt;T17629</title>
<path fill="none" stroke="#0050c0" d="M4499.8418,-29.6063C4532.6854,-48.3975 4579.3132,-82.0671 4554.5,-111 4537.1438,-131.2378 4407.6239,-149.3111 4295.5636,-161.4055"/>
<polygon fill="#0050c0" stroke="#0050c0" points="4295.0401,-157.9414 4285.4685,-162.4841 4295.7838,-164.9018 4295.0401,-157.9414"/>
<text text-anchor="middle" x="4565" y="-92.3" font-family="Times,serif" font-size="14.00" fill="#0050c0">rt</text>
</g>
<!-- T17623&#45;&gt;T17633 -->
<g id="edge3" class="edge">
<title>T17623:f1&#45;&gt;T17633:f2</title>
<path fill="none" stroke="#5b00c0" d="M2792.5,-30C2792.5,-48.7708 2792.5,-55.8832 2792.5,-70.6465"/>
<polygon fill="#5b00c0" stroke="#5b00c0" points="2789.0001,-71 2792.5,-81 2796.0001,-71 2789.0001,-71"/>
<text text-anchor="middle" x="2800" y="-51.8" font-family="Times,serif" font-size="14.00" fill="#5b00c0">rw</text>
</g>
<!-- T17633&#45;&gt;T17623 -->
<g id="edge4" class="edge">
<title>T17633:f0&#45;&gt;T17623:f0</title>
<path fill="none" stroke="#5b00c0" d="M600.5,-81C600.5,-46.8043 1746.6995,-17.4979 1872.1718,-15.1514"/>
<polygon fill="#5b00c0" stroke="#5b00c0" points="1872.5524,-18.6463 1882.5,-15 1872.4497,-11.647 1872.5524,-18.6463"/>
<text text-anchor="middle" x="911" y="-51.8" font-family="Times,serif" font-size="14.00" fill="#5b00c0">rw</text>
</g>
</g>
</svg>
