<?xml version="1.0" encoding="UTF-8" standalone="no"?>
<!DOCTYPE svg PUBLIC "-//W3C//DTD SVG 1.1//EN"
 "http://www.w3.org/Graphics/SVG/1.1/DTD/svg11.dtd">
<!-- Generated by graphviz version 2.40.1 (20161225.0304)
 -->
<!-- Title: a_graph Pages: 1 -->
<svg width="4443pt" height="119pt"
 viewBox="0.00 0.00 4442.50 119.00" xmlns="http://www.w3.org/2000/svg" xmlns:xlink="http://www.w3.org/1999/xlink">
<g id="graph0" class="graph" transform="scale(1 1) rotate(0) translate(4 115)">
<title>a_graph</title>
<polygon fill="#ffffff" stroke="transparent" points="-4,4 -4,-115 4438.5,-115 4438.5,4 -4,4"/>
<!-- T18033 -->
<g id="node1" class="node">
<title>T18033</title>
<polygon fill="none" stroke="#0058ad" points="866.5,-81.5 866.5,-110.5 4434.5,-110.5 4434.5,-81.5 866.5,-81.5"/>
<text text-anchor="middle" x="1742.5" y="-92.3" font-family="Times,serif" font-size="14.00" fill="#0058ad">r 91 [1 2 4 6 7 5 8 9 10 11 3 13 12 14 15 16 17 18 20 21 22 23 26 27 24 25 28 29 30 31 35 36 37 39 38 40 42 44 45 46 43 47 48 49 50 51 52 53 55 56 57 54 58 59 60 61 62 65 66 67 63 64 68 69 70 71 72 73 74 76 77 78 79 75 82 83 80 81 84 85 88 89 90 91 93 86 87 94 95 96 92 97 98 99 103 102 104 100 101 106]</text>
<polyline fill="none" stroke="#0058ad" points="2618.5,-81.5 2618.5,-110.5 "/>
<text text-anchor="middle" x="2650.5" y="-92.3" font-family="Times,serif" font-size="14.00" fill="#0058ad">a 68 108</text>
<polyline fill="none" stroke="#0058ad" points="2682.5,-81.5 2682.5,-110.5 "/>
<text text-anchor="middle" x="3558.5" y="-92.3" font-family="Times,serif" font-size="14.00" fill="#0058ad">r 91 [1 2 4 6 7 5 8 9 10 11 3 13 12 14 15 16 17 18 20 21 22 23 26 27 24 25 28 29 30 31 35 36 37 39 38 40 42 44 45 46 43 47 48 49 50 51 52 53 55 56 57 54 58 59 60 61 62 65 66 67 63 64 68 69 70 71 72 73 74 76 77 78 79 75 82 83 80 81 84 85 88 89 90 91 93 86 87 94 95 96 92 97 98 99 103 102 104 100 101 106]</text>
</g>
<!-- T18035 -->
<g id="node2" class="node">
<title>T18035</title>
<polygon fill="none" stroke="#0058ad" points="0,-.5 0,-29.5 3173,-29.5 3173,-.5 0,-.5"/>
<text text-anchor="middle" x="876" y="-11.3" font-family="Times,serif" font-size="14.00" fill="#0058ad">r 91 [1 2 4 6 7 5 8 9 10 11 3 13 12 14 15 16 17 18 20 21 22 23 26 27 24 25 28 29 30 31 35 36 37 39 38 40 42 44 45 46 43 47 48 49 50 51 52 53 55 56 57 54 58 59 60 61 62 65 66 67 63 64 68 69 70 71 72 73 74 76 77 78 79 75 82 83 80 81 84 85 88 89 90 91 93 86 87 94 95 96 92 97 98 99 103 102 104 100 101 106]</text>
<polyline fill="none" stroke="#0058ad" points="1752,-.5 1752,-29.5 "/>
<text text-anchor="middle" x="1784" y="-11.3" font-family="Times,serif" font-size="14.00" fill="#0058ad">a 91 107</text>
<polyline fill="none" stroke="#0058ad" points="1816,-.5 1816,-29.5 "/>
<text text-anchor="middle" x="1848" y="-11.3" font-family="Times,serif" font-size="14.00" fill="#0058ad">a 91 108</text>
<polyline fill="none" stroke="#0058ad" points="1880,-.5 1880,-29.5 "/>
<text text-anchor="middle" x="2526.5" y="-11.3" font-family="Times,serif" font-size="14.00" fill="#0058ad">r 68 [1 2 3 4 5 6 7 8 9 10 11 12 13 14 15 16 17 47 48 49 50 51 52 53 54 55 56 57 58 59 60 61 62 63 64 65 66 68 70 71 72 73 74 75 77 78 79 80 81 82 83 84 85 86 88 89 90 91 92 93 94 95 96 98 97 101 99 102 103 104 105 106 107]</text>
</g>
<!-- T18033&#45;&gt;T18035 -->
<g id="edge1" class="edge">
<title>T18033:f0&#45;&gt;T18035:f1</title>
<path fill="none" stroke="#5b00c0" d="M1742.5,-81C1742.5,-55.5362 1774.0846,-57.9653 1782.4743,-39.9106"/>
<polygon fill="#5b00c0" stroke="#5b00c0" points="1785.9264,-40.4984 1784.5,-30 1779.0682,-39.0965 1785.9264,-40.4984"/>
<text text-anchor="middle" x="1783" y="-51.8" font-family="Times,serif" font-size="14.00" fill="#5b00c0">rw</text>
</g>
<!-- T18035&#45;&gt;T18033 -->
<g id="edge2" class="edge">
<title>T18035:f3&#45;&gt;T18033:f1</title>
<path fill="none" stroke="#5b00c0" d="M2526.5,-30C2526.5,-85.7496 2635.0307,-29.6678 2649.021,-71.0016"/>
<polygon fill="#5b00c0" stroke="#5b00c0" points="2645.5743,-71.6198 2650.5,-81 2652.499,-70.5955 2645.5743,-71.6198"/>
<text text-anchor="middle" x="2651" y="-51.8" font-family="Times,serif" font-size="14.00" fill="#5b00c0">rw</text>
</g>
</g>
</svg>
