<?xml version="1.0" encoding="UTF-8" standalone="no"?>
<!DOCTYPE svg PUBLIC "-//W3C//DTD SVG 1.1//EN"
 "http://www.w3.org/Graphics/SVG/1.1/DTD/svg11.dtd">
<!-- Generated by graphviz version 2.40.1 (20161225.0304)
 -->
<!-- Title: a_graph Pages: 1 -->
<svg width="4631pt" height="119pt"
 viewBox="0.00 0.00 4631.00 119.00" xmlns="http://www.w3.org/2000/svg" xmlns:xlink="http://www.w3.org/1999/xlink">
<g id="graph0" class="graph" transform="scale(1 1) rotate(0) translate(4 115)">
<title>a_graph</title>
<polygon fill="#ffffff" stroke="transparent" points="-4,4 -4,-115 4627,-115 4627,4 -4,4"/>
<!-- T7611 -->
<g id="node1" class="node">
<title>T7611</title>
<polygon fill="none" stroke="#0058ad" points="0,-81.5 0,-110.5 4623,-110.5 4623,-81.5 0,-81.5"/>
<text text-anchor="middle" x="28.5" y="-92.3" font-family="Times,serif" font-size="14.00" fill="#0058ad">a 39 77</text>
<polyline fill="none" stroke="#0058ad" points="57,-81.5 57,-110.5 "/>
<text text-anchor="middle" x="818" y="-92.3" font-family="Times,serif" font-size="14.00" fill="#0058ad">r 43 [1 2 3 4 5 6 8 9 10 11 12 7 14 13 15 16 17 18 19 20 22 21 23 24 25 26 27 28 29 30 33 31 32 34 35 36 37 38 40 41 42 39 43 45 44 46 49 50 51 52 53 54 55 56 57 58 59 60 61 62 47 48 63 64 65 67 68 69 66 72 73 70 71 74 75 76 77 78 79 80 81 82 83 84 85 86 87 89 88]</text>
<polyline fill="none" stroke="#0058ad" points="1579,-81.5 1579,-110.5 "/>
<text text-anchor="middle" x="2340" y="-92.3" font-family="Times,serif" font-size="14.00" fill="#0058ad">r 43 [1 2 3 4 5 6 8 9 10 11 12 7 14 13 15 16 17 18 19 20 22 21 23 24 25 26 27 28 29 30 33 31 32 34 35 36 37 38 40 41 42 39 43 45 44 46 49 50 51 52 53 54 55 56 57 58 59 60 61 62 47 48 63 64 65 67 68 69 66 72 73 70 71 74 75 76 77 78 79 80 81 82 83 84 85 86 87 89 88]</text>
<polyline fill="none" stroke="#0058ad" points="3101,-81.5 3101,-110.5 "/>
<text text-anchor="middle" x="3862" y="-92.3" font-family="Times,serif" font-size="14.00" fill="#0058ad">r 43 [1 2 3 4 5 6 8 9 10 11 12 7 14 13 15 16 17 18 19 20 22 21 23 24 25 26 27 28 29 30 33 31 32 34 35 36 37 38 40 41 42 39 43 45 44 46 49 50 51 52 53 54 55 56 57 58 59 60 61 62 47 48 63 64 65 67 68 69 66 72 73 70 71 74 75 76 77 78 79 80 81 82 83 84 85 86 87 89 88]</text>
</g>
<!-- T7609 -->
<g id="node2" class="node">
<title>T7609</title>
<polygon fill="none" stroke="#0058ad" points="228,-.5 228,-29.5 2267,-29.5 2267,-.5 228,-.5"/>
<text text-anchor="middle" x="256.5" y="-11.3" font-family="Times,serif" font-size="14.00" fill="#0058ad">a 43 91</text>
<polyline fill="none" stroke="#0058ad" points="285,-.5 285,-29.5 "/>
<text text-anchor="middle" x="883.5" y="-11.3" font-family="Times,serif" font-size="14.00" fill="#0058ad">r 39 [1 2 3 6 7 8 10 11 12 13 14 15 16 17 18 19 20 21 22 23 24 25 26 27 28 29 30 31 32 34 33 35 36 38 37 39 43 44 45 46 47 48 49 50 51 52 53 54 55 56 57 58 59 60 61 62 63 64 65 66 70 67 68 71 72 73 74 75 76]</text>
<polyline fill="none" stroke="#0058ad" points="1482,-.5 1482,-29.5 "/>
<text text-anchor="middle" x="1510.5" y="-11.3" font-family="Times,serif" font-size="14.00" fill="#0058ad">a 42 43</text>
<polyline fill="none" stroke="#0058ad" points="1539,-.5 1539,-29.5 "/>
<text text-anchor="middle" x="1903" y="-11.3" font-family="Times,serif" font-size="14.00" fill="#0058ad">r 42 [1 2 3 4 5 6 7 8 9 10 11 12 13 14 15 16 17 18 20 19 21 22 23 24 25 26 28 29 30 31 32 27 33 34 35 36 37 38 39 40 41 42 43]</text>
</g>
<!-- T7611&#45;&gt;T7609 -->
<g id="edge1" class="edge">
<title>T7611:f1&#45;&gt;T7609:f0</title>
<path fill="none" stroke="#5b00c0" d="M817.5,-81C817.5,-66.2439 567.1972,-64.3178 552.5,-63 424.2634,-51.5019 265.4532,-156.3818 256.8642,-40.3197"/>
<polygon fill="#5b00c0" stroke="#5b00c0" points="260.3506,-39.8703 256.5,-30 253.355,-40.1173 260.3506,-39.8703"/>
<text text-anchor="middle" x="560" y="-51.8" font-family="Times,serif" font-size="14.00" fill="#5b00c0">rw</text>
</g>
<!-- T7609&#45;&gt;T7611 -->
<g id="edge2" class="edge">
<title>T7609:f1&#45;&gt;T7611:f0</title>
<path fill="none" stroke="#5b00c0" d="M883.5,-30C883.5,-171.2082 708.3749,-53.3041 567.5,-63 553.7516,-63.9463 109.166,-65.7068 38.051,-77.6449"/>
<polygon fill="#5b00c0" stroke="#5b00c0" points="36.7748,-74.3834 28.5,-81 39.0948,-80.9878 36.7748,-74.3834"/>
<text text-anchor="middle" x="890" y="-51.8" font-family="Times,serif" font-size="14.00" fill="#5b00c0">rw</text>
</g>
</g>
</svg>
