<?xml version="1.0" encoding="UTF-8" standalone="no"?>
<!DOCTYPE svg PUBLIC "-//W3C//DTD SVG 1.1//EN"
 "http://www.w3.org/Graphics/SVG/1.1/DTD/svg11.dtd">
<!-- Generated by graphviz version 2.40.1 (20161225.0304)
 -->
<!-- Title: a_graph Pages: 1 -->
<svg width="3481pt" height="119pt"
 viewBox="0.00 0.00 3480.50 119.00" xmlns="http://www.w3.org/2000/svg" xmlns:xlink="http://www.w3.org/1999/xlink">
<g id="graph0" class="graph" transform="scale(1 1) rotate(0) translate(4 115)">
<title>a_graph</title>
<polygon fill="#ffffff" stroke="transparent" points="-4,4 -4,-115 3476.5,-115 3476.5,4 -4,4"/>
<!-- T16633 -->
<g id="node1" class="node">
<title>T16633</title>
<polygon fill="none" stroke="#0058ad" points="630.5,-81.5 630.5,-110.5 3472.5,-110.5 3472.5,-81.5 630.5,-81.5"/>
<text text-anchor="middle" x="1205" y="-92.3" font-family="Times,serif" font-size="14.00" fill="#0058ad">r 85 [3 4 2 5 6 7 8 9 10 11 12 13 14 15 16 17 18 22 23 21 25 26 27 29 28 30 31 32 35 37 38 39 33 34 40 41 36 42 43 44 45 46 49 47 48 50 51 52 53 54 55 56 58 57 59 60 61 62 63 64 66 67 65 68 69 70 71]</text>
<polyline fill="none" stroke="#0058ad" points="1779.5,-81.5 1779.5,-110.5 "/>
<text text-anchor="middle" x="1808" y="-92.3" font-family="Times,serif" font-size="14.00" fill="#0058ad">a 86 74</text>
<polyline fill="none" stroke="#0058ad" points="1836.5,-81.5 1836.5,-110.5 "/>
<text text-anchor="middle" x="2080" y="-92.3" font-family="Times,serif" font-size="14.00" fill="#0058ad">r 84 [1 2 3 4 5 6 7 8 9 11 12 13 14 15 16 17 18 19 20 21 22 23 24 25 26 27 28 29 30]</text>
<polyline fill="none" stroke="#0058ad" points="2323.5,-81.5 2323.5,-110.5 "/>
<text text-anchor="middle" x="2898" y="-92.3" font-family="Times,serif" font-size="14.00" fill="#0058ad">r 85 [3 4 2 5 6 7 8 9 10 11 12 13 14 15 16 17 18 22 23 21 25 26 27 29 28 30 31 32 35 37 38 39 33 34 40 41 36 42 43 44 45 46 49 47 48 50 51 52 53 54 55 56 58 57 59 60 61 62 63 64 66 67 65 68 69 70 71]</text>
</g>
<!-- T16631 -->
<g id="node2" class="node">
<title>T16631</title>
<polygon fill="none" stroke="#0058ad" points="0,-.5 0,-29.5 2445,-29.5 2445,-.5 0,-.5"/>
<text text-anchor="middle" x="597" y="-11.3" font-family="Times,serif" font-size="14.00" fill="#0058ad">r 86 [1 2 4 5 3 6 8 9 11 7 13 12 14 15 16 17 18 10 19 20 21 22 23 25 24 26 28 29 27 30 31 32 33 34 35 36 37 38 39 40 41 42 43 45 46 44 47 48 49 50 51 53 52 54 56 57 58 55 60 63 64 59 65 66 67 68 69 61 72 73]</text>
<polyline fill="none" stroke="#0058ad" points="1194,-.5 1194,-29.5 "/>
<text text-anchor="middle" x="1791" y="-11.3" font-family="Times,serif" font-size="14.00" fill="#0058ad">r 86 [1 2 4 5 3 6 8 9 11 7 13 12 14 15 16 17 18 10 19 20 21 22 23 25 24 26 28 29 27 30 31 32 33 34 35 36 37 38 39 40 41 42 43 45 46 44 47 48 49 50 51 53 52 54 56 57 58 55 60 63 64 59 65 66 67 68 69 61 72 73]</text>
<polyline fill="none" stroke="#0058ad" points="2388,-.5 2388,-29.5 "/>
<text text-anchor="middle" x="2416.5" y="-11.3" font-family="Times,serif" font-size="14.00" fill="#0058ad">a 85 72</text>
</g>
<!-- T16633&#45;&gt;T16631 -->
<g id="edge1" class="edge">
<title>T16633:f0&#45;&gt;T16631:f2</title>
<path fill="none" stroke="#5b00c0" d="M1204.5,-81C1204.5,13.7287 1534.8905,-52.7515 1629.5,-48 1649.9104,-46.975 2319.5537,-51.2432 2407.0955,-33.9568"/>
<polygon fill="#5b00c0" stroke="#5b00c0" points="2408.64,-37.1043 2416.5,-30 2405.9252,-30.6521 2408.64,-37.1043"/>
<text text-anchor="middle" x="1637" y="-51.8" font-family="Times,serif" font-size="14.00" fill="#5b00c0">rw</text>
</g>
<!-- T16631&#45;&gt;T16633 -->
<g id="edge2" class="edge">
<title>T16631:f0&#45;&gt;T16633:f1</title>
<path fill="none" stroke="#5b00c0" d="M596.5,-30C596.5,-44.5577 1630.0278,-46.4241 1644.5,-48 1714.2484,-55.595 1798.4495,-11.907 1806.8213,-70.6663"/>
<polygon fill="#5b00c0" stroke="#5b00c0" points="1803.352,-71.2509 1807.5,-81 1810.337,-70.7921 1803.352,-71.2509"/>
<text text-anchor="middle" x="1812" y="-51.8" font-family="Times,serif" font-size="14.00" fill="#5b00c0">rw</text>
</g>
</g>
</svg>
