<?xml version="1.0" encoding="UTF-8" standalone="no"?>
<!DOCTYPE svg PUBLIC "-//W3C//DTD SVG 1.1//EN"
 "http://www.w3.org/Graphics/SVG/1.1/DTD/svg11.dtd">
<!-- Generated by graphviz version 2.40.1 (20161225.0304)
 -->
<!-- Title: a_graph Pages: 1 -->
<svg width="2566pt" height="200pt"
 viewBox="0.00 0.00 2566.00 200.00" xmlns="http://www.w3.org/2000/svg" xmlns:xlink="http://www.w3.org/1999/xlink">
<g id="graph0" class="graph" transform="scale(1 1) rotate(0) translate(4 196)">
<title>a_graph</title>
<polygon fill="#ffffff" stroke="transparent" points="-4,4 -4,-196 2562,-196 2562,4 -4,4"/>
<!-- T7815 -->
<g id="node1" class="node">
<title>T7815</title>
<polygon fill="none" stroke="#0058ad" points="0,-162.5 0,-191.5 2558,-191.5 2558,-162.5 0,-162.5"/>
<text text-anchor="middle" x="728" y="-173.3" font-family="Times,serif" font-size="14.00" fill="#0058ad">r 39 [1 2 3 6 7 8 10 11 12 13 14 15 16 17 18 19 20 21 22 23 24 25 26 27 28 29 30 31 32 34 33 35 36 38 37 39 43 44 45 46 47 48 49 50 51 52 53 54 55 56 57 58 59 60 61 62 63 64 65 66 70 67 68 71 72 73 74 75 76 77 78 79 80 81 82 83 85 84 86 87 88 90 92 93]</text>
<polyline fill="none" stroke="#0058ad" points="1456,-162.5 1456,-191.5 "/>
<text text-anchor="middle" x="1484.5" y="-173.3" font-family="Times,serif" font-size="14.00" fill="#0058ad">a 44 36</text>
<polyline fill="none" stroke="#0058ad" points="1513,-162.5 1513,-191.5 "/>
<text text-anchor="middle" x="1773.5" y="-173.3" font-family="Times,serif" font-size="14.00" fill="#0058ad">r 3 [1 2 3 13 14 15 16 17 18 19 20 21 22 23 24 25 26 27 28 29 30 31 32 33 34 35 36 37 38]</text>
<polyline fill="none" stroke="#0058ad" points="2034,-162.5 2034,-191.5 "/>
<text text-anchor="middle" x="2296" y="-173.3" font-family="Times,serif" font-size="14.00" fill="#0058ad">r 44 [1 3 4 5 8 9 10 11 12 13 14 15 17 18 19 20 21 22 24 25 23 26 27 29 30 28 31 32 33 36]</text>
</g>
<!-- T7819 -->
<g id="node2" class="node">
<title>T7819</title>
<polygon fill="none" stroke="#0058ad" points="743.5,-.5 743.5,-29.5 1364.5,-29.5 1364.5,-.5 743.5,-.5"/>
<text text-anchor="middle" x="997" y="-11.3" font-family="Times,serif" font-size="14.00" fill="#0058ad">r 44 [1 3 4 5 8 9 10 11 12 13 14 15 17 18 19 20 21 22 24 25 23 26 27 29 30 28 31 32 33]</text>
<polyline fill="none" stroke="#0058ad" points="1250.5,-.5 1250.5,-29.5 "/>
<text text-anchor="middle" x="1279" y="-11.3" font-family="Times,serif" font-size="14.00" fill="#0058ad">a 39 94</text>
<polyline fill="none" stroke="#0058ad" points="1307.5,-.5 1307.5,-29.5 "/>
<text text-anchor="middle" x="1336" y="-11.3" font-family="Times,serif" font-size="14.00" fill="#0058ad">a 42 68</text>
</g>
<!-- T7815&#45;&gt;T7819 -->
<g id="edge2" class="edge">
<title>T7815:f0&#45;&gt;T7819:f1</title>
<path fill="none" stroke="#5b00c0" d="M728,-162C728,-69.8359 583.5914,-183.7436 527,-111 518.813,-100.4762 517.8965,-90.7418 527,-81 581.8346,-22.3206 1223.0757,-106.3027 1275.5853,-39.4311"/>
<polygon fill="#5b00c0" stroke="#5b00c0" points="1278.8865,-40.5942 1279,-30 1272.3046,-38.2111 1278.8865,-40.5942"/>
<text text-anchor="middle" x="534.5" y="-92.3" font-family="Times,serif" font-size="14.00" fill="#5b00c0">rw</text>
</g>
<!-- T7817 -->
<g id="node3" class="node">
<title>T7817</title>
<polygon fill="none" stroke="#0058ad" points="551,-81.5 551,-110.5 2007,-110.5 2007,-81.5 551,-81.5"/>
<text text-anchor="middle" x="1279" y="-92.3" font-family="Times,serif" font-size="14.00" fill="#0058ad">r 39 [1 2 3 6 7 8 10 11 12 13 14 15 16 17 18 19 20 21 22 23 24 25 26 27 28 29 30 31 32 34 33 35 36 38 37 39 43 44 45 46 47 48 49 50 51 52 53 54 55 56 57 58 59 60 61 62 63 64 65 66 70 67 68 71 72 73 74 75 76 77 78 79 80 81 82 83 85 84 86 87 88 90 92 93]</text>
</g>
<!-- T7815&#45;&gt;T7817 -->
<g id="edge1" class="edge">
<title>T7815&#45;&gt;T7817</title>
<path fill="none" stroke="#0050c0" d="M1279,-162.1434C1279,-150.6112 1279,-134.3668 1279,-120.8626"/>
<polygon fill="#0050c0" stroke="#0050c0" points="1282.5001,-120.7624 1279,-110.7625 1275.5001,-120.7625 1282.5001,-120.7624"/>
<text text-anchor="middle" x="1283.5" y="-132.8" font-family="Times,serif" font-size="14.00" fill="#0050c0">rt</text>
</g>
<!-- T7819&#45;&gt;T7815 -->
<g id="edge3" class="edge">
<title>T7819:f0&#45;&gt;T7815:f1</title>
<path fill="none" stroke="#5b00c0" d="M997,-30C997,-37.0852 2011.1168,-75.8663 2016,-81 2025.1894,-90.6609 2024.9661,-101.1315 2016,-111 1938.6983,-196.0819 1511.9834,-52.6361 1486.218,-151.9724"/>
<polygon fill="#5b00c0" stroke="#5b00c0" points="1482.7314,-151.6509 1485,-162 1489.6803,-152.495 1482.7314,-151.6509"/>
<text text-anchor="middle" x="2029.5" y="-92.3" font-family="Times,serif" font-size="14.00" fill="#5b00c0">rw</text>
</g>
<!-- T7817&#45;&gt;T7819 -->
<g id="edge4" class="edge">
<title>T7817:f0&#45;&gt;T7819:f1</title>
<path fill="none" stroke="#5b00c0" d="M1279,-81.3204C1279,-70.4532 1279,-55.0147 1279,-40.1425"/>
<polygon fill="#5b00c0" stroke="#5b00c0" points="1282.5001,-40 1279,-30 1275.5001,-40 1282.5001,-40"/>
<text text-anchor="middle" x="1286.5" y="-51.8" font-family="Times,serif" font-size="14.00" fill="#5b00c0">rw</text>
</g>
</g>
</svg>
