<?xml version="1.0" encoding="UTF-8" standalone="no"?>
<!DOCTYPE svg PUBLIC "-//W3C//DTD SVG 1.1//EN"
 "http://www.w3.org/Graphics/SVG/1.1/DTD/svg11.dtd">
<!-- Generated by graphviz version 2.40.1 (20161225.0304)
 -->
<!-- Title: a_graph Pages: 1 -->
<svg width="2419pt" height="119pt"
 viewBox="0.00 0.00 2418.50 119.00" xmlns="http://www.w3.org/2000/svg" xmlns:xlink="http://www.w3.org/1999/xlink">
<g id="graph0" class="graph" transform="scale(1 1) rotate(0) translate(4 115)">
<title>a_graph</title>
<polygon fill="#ffffff" stroke="transparent" points="-4,4 -4,-115 2414.5,-115 2414.5,4 -4,4"/>
<!-- T5425 -->
<g id="node1" class="node">
<title>T5425</title>
<polygon fill="none" stroke="#0058ad" points="1148.5,-81.5 1148.5,-110.5 2410.5,-110.5 2410.5,-81.5 1148.5,-81.5"/>
<text text-anchor="middle" x="1177" y="-92.3" font-family="Times,serif" font-size="14.00" fill="#0058ad">a 32 36</text>
<polyline fill="none" stroke="#0058ad" points="1205.5,-81.5 1205.5,-110.5 "/>
<text text-anchor="middle" x="1504" y="-92.3" font-family="Times,serif" font-size="14.00" fill="#0058ad">r 31 [1 2 3 4 5 6 8 9 10 11 12 13 14 15 16 17 18 19 20 21 22 23 24 25 26 28 29 30 31 32 33 34 35 37 36]</text>
<polyline fill="none" stroke="#0058ad" points="1802.5,-81.5 1802.5,-110.5 "/>
<text text-anchor="middle" x="2106.5" y="-92.3" font-family="Times,serif" font-size="14.00" fill="#0058ad">r 32 [1 2 3 4 5 6 7 8 9 10 11 12 13 14 15 16 17 18 19 20 21 22 24 25 26 27 28 29 23 30 31 32 33 34 35 36]</text>
</g>
<!-- T5423 -->
<g id="node2" class="node">
<title>T5423</title>
<polygon fill="none" stroke="#0058ad" points="0,-.5 0,-29.5 1827,-29.5 1827,-.5 0,-.5"/>
<text text-anchor="middle" x="295" y="-11.3" font-family="Times,serif" font-size="14.00" fill="#0058ad">r 32 [1 2 3 4 5 6 7 8 9 10 11 12 13 14 15 16 17 18 19 20 21 22 24 25 26 27 28 29 23 30 31 32 33 34 35]</text>
<polyline fill="none" stroke="#0058ad" points="590,-.5 590,-29.5 "/>
<text text-anchor="middle" x="885" y="-11.3" font-family="Times,serif" font-size="14.00" fill="#0058ad">r 32 [1 2 3 4 5 6 7 8 9 10 11 12 13 14 15 16 17 18 19 20 21 22 24 25 26 27 28 29 23 30 31 32 33 34 35]</text>
<polyline fill="none" stroke="#0058ad" points="1180,-.5 1180,-29.5 "/>
<text text-anchor="middle" x="1475" y="-11.3" font-family="Times,serif" font-size="14.00" fill="#0058ad">r 32 [1 2 3 4 5 6 7 8 9 10 11 12 13 14 15 16 17 18 19 20 21 22 24 25 26 27 28 29 23 30 31 32 33 34 35]</text>
<polyline fill="none" stroke="#0058ad" points="1770,-.5 1770,-29.5 "/>
<text text-anchor="middle" x="1798.5" y="-11.3" font-family="Times,serif" font-size="14.00" fill="#0058ad">a 31 38</text>
</g>
<!-- T5425&#45;&gt;T5423 -->
<g id="edge1" class="edge">
<title>T5425:f1&#45;&gt;T5423:f3</title>
<path fill="none" stroke="#5b00c0" d="M1503.5,-81C1503.5,48.4178 1782.5878,-151.5524 1797.8504,-40.148"/>
<polygon fill="#5b00c0" stroke="#5b00c0" points="1801.3539,-40.2032 1798.5,-30 1794.3682,-39.7559 1801.3539,-40.2032"/>
<text text-anchor="middle" x="1802" y="-51.8" font-family="Times,serif" font-size="14.00" fill="#5b00c0">rw</text>
</g>
<!-- T5423&#45;&gt;T5425 -->
<g id="edge2" class="edge">
<title>T5423:f0&#45;&gt;T5425:f0</title>
<path fill="none" stroke="#5b00c0" d="M294.5,-30C294.5,-75.5412 1033.1018,-94.3637 1138.287,-95.8972"/>
<polygon fill="#5b00c0" stroke="#5b00c0" points="1138.4652,-99.399 1148.5,-96 1138.5358,-92.3994 1138.4652,-99.399"/>
<text text-anchor="middle" x="438" y="-51.8" font-family="Times,serif" font-size="14.00" fill="#5b00c0">rw</text>
</g>
</g>
</svg>
