<?xml version="1.0" encoding="UTF-8" standalone="no"?>
<!DOCTYPE svg PUBLIC "-//W3C//DTD SVG 1.1//EN"
 "http://www.w3.org/Graphics/SVG/1.1/DTD/svg11.dtd">
<!-- Generated by graphviz version 2.40.1 (20161225.0304)
 -->
<!-- Title: a_graph Pages: 1 -->
<svg width="2528pt" height="119pt"
 viewBox="0.00 0.00 2528.00 119.00" xmlns="http://www.w3.org/2000/svg" xmlns:xlink="http://www.w3.org/1999/xlink">
<g id="graph0" class="graph" transform="scale(1 1) rotate(0) translate(4 115)">
<title>a_graph</title>
<polygon fill="#ffffff" stroke="transparent" points="-4,4 -4,-115 2524,-115 2524,4 -4,4"/>
<!-- T4939 -->
<g id="node1" class="node">
<title>T4939</title>
<polygon fill="none" stroke="#0058ad" points="1861,-81.5 1861,-110.5 1993,-110.5 1993,-81.5 1861,-81.5"/>
<text text-anchor="middle" x="1895" y="-92.3" font-family="Times,serif" font-size="14.00" fill="#0058ad">r 30 [1 2]</text>
<polyline fill="none" stroke="#0058ad" points="1929,-81.5 1929,-110.5 "/>
<text text-anchor="middle" x="1961" y="-92.3" font-family="Times,serif" font-size="14.00" fill="#0058ad">a 24 125</text>
</g>
<!-- T4943 -->
<g id="node2" class="node">
<title>T4943</title>
<polygon fill="none" stroke="#0058ad" points="0,-.5 0,-29.5 2520,-29.5 2520,-.5 0,-.5"/>
<text text-anchor="middle" x="139.5" y="-11.3" font-family="Times,serif" font-size="14.00" fill="#0058ad">r 3 [1 2 3 13 14 15 16 17 18 19 20 21 22 23 24]</text>
<polyline fill="none" stroke="#0058ad" points="279,-.5 279,-29.5 "/>
<text text-anchor="middle" x="1374.5" y="-11.3" font-family="Times,serif" font-size="14.00" fill="#0058ad">r 24 [1 2 3 4 5 6 7 8 9 10 11 12 13 14 16 15 17 18 19 20 21 22 23 24 25 26 27 28 29 30 31 32 33 34 35 36 37 38 39 40 41 42 43 44 45 46 47 48 49 50 51 54 55 56 57 58 59 60 61 62 63 64 65 66 67 69 70 71 72 73 74 75 76 78 79 77 80 81 82 83 84 87 88 90 91 92 93 94 95 96 97 98 99 100 101 102 105 103 104 106 107 108 109 110 111 112 113 114 115 117 116 118 119 120 121 122 123 124]</text>
<polyline fill="none" stroke="#0058ad" points="2470,-.5 2470,-29.5 "/>
<text text-anchor="middle" x="2495" y="-11.3" font-family="Times,serif" font-size="14.00" fill="#0058ad">a 30 3</text>
</g>
<!-- T4939&#45;&gt;T4943 -->
<g id="edge1" class="edge">
<title>T4939:f0&#45;&gt;T4943:f2</title>
<path fill="none" stroke="#5b00c0" d="M1895,-81C1895,-63.3729 1901.5899,-56.5584 1917,-48 1943.0562,-33.5289 2418.2454,-58.0672 2486.789,-36.0364"/>
<polygon fill="#5b00c0" stroke="#5b00c0" points="2489.0161,-38.7432 2495,-30 2484.8698,-33.1033 2489.0161,-38.7432"/>
<text text-anchor="middle" x="1924.5" y="-51.8" font-family="Times,serif" font-size="14.00" fill="#5b00c0">rw</text>
</g>
<!-- T4943&#45;&gt;T4939 -->
<g id="edge2" class="edge">
<title>T4943:f1&#45;&gt;T4939:f1</title>
<path fill="none" stroke="#5b00c0" d="M1375,-30C1375,-60.9606 1904.0024,-34.7828 1932,-48 1946.2081,-54.7074 1956.3282,-59.3453 1959.7393,-71.0748"/>
<polygon fill="#5b00c0" stroke="#5b00c0" points="1956.2678,-71.5207 1961,-81 1963.212,-70.6387 1956.2678,-71.5207"/>
<text text-anchor="middle" x="1962.5" y="-51.8" font-family="Times,serif" font-size="14.00" fill="#5b00c0">rw</text>
</g>
</g>
</svg>
