<?xml version="1.0" encoding="UTF-8" standalone="no"?>
<!DOCTYPE svg PUBLIC "-//W3C//DTD SVG 1.1//EN"
 "http://www.w3.org/Graphics/SVG/1.1/DTD/svg11.dtd">
<!-- Generated by graphviz version 2.40.1 (20161225.0304)
 -->
<!-- Title: a_graph Pages: 1 -->
<svg width="1038pt" height="119pt"
 viewBox="0.00 0.00 1037.50 119.00" xmlns="http://www.w3.org/2000/svg" xmlns:xlink="http://www.w3.org/1999/xlink">
<g id="graph0" class="graph" transform="scale(1 1) rotate(0) translate(4 115)">
<title>a_graph</title>
<polygon fill="#ffffff" stroke="transparent" points="-4,4 -4,-115 1033.5,-115 1033.5,4 -4,4"/>
<!-- T15537 -->
<g id="node1" class="node">
<title>T15537</title>
<polygon fill="none" stroke="#0058ad" points="583.5,-81.5 583.5,-110.5 1029.5,-110.5 1029.5,-81.5 583.5,-81.5"/>
<text text-anchor="middle" x="609" y="-92.3" font-family="Times,serif" font-size="14.00" fill="#0058ad">r 82 []</text>
<polyline fill="none" stroke="#0058ad" points="634.5,-81.5 634.5,-110.5 "/>
<text text-anchor="middle" x="663" y="-92.3" font-family="Times,serif" font-size="14.00" fill="#0058ad">a 81 18</text>
<polyline fill="none" stroke="#0058ad" points="691.5,-81.5 691.5,-110.5 "/>
<text text-anchor="middle" x="831.5" y="-92.3" font-family="Times,serif" font-size="14.00" fill="#0058ad">r 81 [1 2 3 4 5 6 8 7 9 11 12 13 14 15 16 17 18]</text>
<polyline fill="none" stroke="#0058ad" points="971.5,-81.5 971.5,-110.5 "/>
<text text-anchor="middle" x="1000.5" y="-92.3" font-family="Times,serif" font-size="14.00" fill="#0058ad">r 78 [3]</text>
</g>
<!-- T15535 -->
<g id="node2" class="node">
<title>T15535</title>
<polygon fill="none" stroke="#0058ad" points="0,-.5 0,-29.5 771,-29.5 771,-.5 0,-.5"/>
<text text-anchor="middle" x="200.5" y="-11.3" font-family="Times,serif" font-size="14.00" fill="#0058ad">r 68 [1 2 3 4 5 6 7 8 9 10 11 12 13 14 15 16 17 47 48 49 50 51 52 53]</text>
<polyline fill="none" stroke="#0058ad" points="401,-.5 401,-29.5 "/>
<text text-anchor="middle" x="532.5" y="-11.3" font-family="Times,serif" font-size="14.00" fill="#0058ad">r 81 [1 2 3 4 5 6 8 7 9 11 12 13 14 15 16 17]</text>
<polyline fill="none" stroke="#0058ad" points="664,-.5 664,-29.5 "/>
<text text-anchor="middle" x="692.5" y="-11.3" font-family="Times,serif" font-size="14.00" fill="#0058ad">a 80 38</text>
<polyline fill="none" stroke="#0058ad" points="721,-.5 721,-29.5 "/>
<text text-anchor="middle" x="746" y="-11.3" font-family="Times,serif" font-size="14.00" fill="#0058ad">a 82 1</text>
</g>
<!-- T15537&#45;&gt;T15535 -->
<g id="edge1" class="edge">
<title>T15537:f0&#45;&gt;T15535:f3</title>
<path fill="none" stroke="#5b00c0" d="M608.5,-81C608.5,-65.2363 609.1369,-57.78 621.5,-48 640.5009,-32.969 719.8524,-51.3904 741.1949,-38.6529"/>
<polygon fill="#5b00c0" stroke="#5b00c0" points="744.2569,-40.3547 746.5,-30 738.2893,-36.6959 744.2569,-40.3547"/>
<text text-anchor="middle" x="629" y="-51.8" font-family="Times,serif" font-size="14.00" fill="#5b00c0">rw</text>
</g>
<!-- T15535&#45;&gt;T15537 -->
<g id="edge2" class="edge">
<title>T15535:f1&#45;&gt;T15537:f1</title>
<path fill="none" stroke="#5b00c0" d="M532.5,-30C532.5,-53.4547 616.3518,-35.9927 636.5,-48 649.1563,-55.5425 658.0275,-60.1029 661.2069,-70.8645"/>
<polygon fill="#5b00c0" stroke="#5b00c0" points="657.7625,-71.5234 662.5,-81 664.7062,-70.6374 657.7625,-71.5234"/>
<text text-anchor="middle" x="665" y="-51.8" font-family="Times,serif" font-size="14.00" fill="#5b00c0">rw</text>
</g>
</g>
</svg>
