<?xml version="1.0" encoding="UTF-8" standalone="no"?>
<!DOCTYPE svg PUBLIC "-//W3C//DTD SVG 1.1//EN"
 "http://www.w3.org/Graphics/SVG/1.1/DTD/svg11.dtd">
<!-- Generated by graphviz version 2.40.1 (20161225.0304)
 -->
<!-- Title: a_graph Pages: 1 -->
<svg width="1860pt" height="119pt"
 viewBox="0.00 0.00 1860.00 119.00" xmlns="http://www.w3.org/2000/svg" xmlns:xlink="http://www.w3.org/1999/xlink">
<g id="graph0" class="graph" transform="scale(1 1) rotate(0) translate(4 115)">
<title>a_graph</title>
<polygon fill="#ffffff" stroke="transparent" points="-4,4 -4,-115 1856,-115 1856,4 -4,4"/>
<!-- T20339 -->
<g id="node1" class="node">
<title>T20339</title>
<polygon fill="none" stroke="#0058ad" points="723,-81.5 723,-110.5 1852,-110.5 1852,-81.5 723,-81.5"/>
<text text-anchor="middle" x="755" y="-92.3" font-family="Times,serif" font-size="14.00" fill="#0058ad">a 104 36</text>
<polyline fill="none" stroke="#0058ad" points="787,-81.5 787,-110.5 "/>
<text text-anchor="middle" x="1287.5" y="-92.3" font-family="Times,serif" font-size="14.00" fill="#0058ad">r 103 [1 2 3 4 6 5 8 9 10 14 12 13 15 16 17 18 19 20 21 22 23 24 25 26 28 27 29 30 31 32 33 34 35 36 37 38 39 40 41 43 42 44 45 46 47 48 49 50 51 52 54 56 58 59 60 61 62 63]</text>
<polyline fill="none" stroke="#0058ad" points="1788,-81.5 1788,-110.5 "/>
<text text-anchor="middle" x="1820" y="-92.3" font-family="Times,serif" font-size="14.00" fill="#0058ad">a 105 56</text>
</g>
<!-- T20341 -->
<g id="node2" class="node">
<title>T20341</title>
<polygon fill="none" stroke="#0058ad" points="0,-.5 0,-29.5 1451,-29.5 1451,-.5 0,-.5"/>
<text text-anchor="middle" x="417.5" y="-11.3" font-family="Times,serif" font-size="14.00" fill="#0058ad">r 105 [1 2 3 4 5 6 7 10 11 16 17 15 18 19 20 21 22 23 24 25 26 27 28 30 31 29 32 33 34 36 39 40 37 43 44 45 46 47 41 42 48 49 50 51 52 53 54 55]</text>
<polyline fill="none" stroke="#0058ad" points="835,-.5 835,-29.5 "/>
<text text-anchor="middle" x="867" y="-11.3" font-family="Times,serif" font-size="14.00" fill="#0058ad">a 103 64</text>
<polyline fill="none" stroke="#0058ad" points="899,-.5 899,-29.5 "/>
<text text-anchor="middle" x="1175" y="-11.3" font-family="Times,serif" font-size="14.00" fill="#0058ad">r 104 [1 2 3 6 7 4 5 8 10 11 12 13 14 15 16 17 18 19 20 21 22 24 25 26 28 29 30 31 33 34 32 35]</text>
</g>
<!-- T20339&#45;&gt;T20341 -->
<g id="edge1" class="edge">
<title>T20339:f1&#45;&gt;T20341:f1</title>
<path fill="none" stroke="#5b00c0" d="M1287.5,-81C1287.5,-37.2041 922.9592,-71.5487 873.1197,-38.436"/>
<polygon fill="#5b00c0" stroke="#5b00c0" points="875.9569,-36.3821 867.5,-30 870.1312,-40.2629 875.9569,-36.3821"/>
<text text-anchor="middle" x="1251" y="-51.8" font-family="Times,serif" font-size="14.00" fill="#5b00c0">rw</text>
</g>
<!-- T20341&#45;&gt;T20339 -->
<g id="edge2" class="edge">
<title>T20341:f2&#45;&gt;T20339:f0</title>
<path fill="none" stroke="#5b00c0" d="M1175.5,-30C1175.5,-45.754 908.0792,-45.6595 892.5,-48 833.7913,-56.8201 763.3182,-22.3908 755.2612,-70.94"/>
<polygon fill="#5b00c0" stroke="#5b00c0" points="751.7645,-70.7644 754.5,-81 758.7446,-71.2926 751.7645,-70.7644"/>
<text text-anchor="middle" x="900" y="-51.8" font-family="Times,serif" font-size="14.00" fill="#5b00c0">rw</text>
</g>
</g>
</svg>
