<?xml version="1.0" encoding="UTF-8" standalone="no"?>
<!DOCTYPE svg PUBLIC "-//W3C//DTD SVG 1.1//EN"
 "http://www.w3.org/Graphics/SVG/1.1/DTD/svg11.dtd">
<!-- Generated by graphviz version 2.40.1 (20161225.0304)
 -->
<!-- Title: a_graph Pages: 1 -->
<svg width="4908pt" height="119pt"
 viewBox="0.00 0.00 4907.50 119.00" xmlns="http://www.w3.org/2000/svg" xmlns:xlink="http://www.w3.org/1999/xlink">
<g id="graph0" class="graph" transform="scale(1 1) rotate(0) translate(4 115)">
<title>a_graph</title>
<polygon fill="#ffffff" stroke="transparent" points="-4,4 -4,-115 4903.5,-115 4903.5,4 -4,4"/>
<!-- T15829 -->
<g id="node1" class="node">
<title>T15829</title>
<polygon fill="none" stroke="#0058ad" points="0,-81.5 0,-110.5 3388,-110.5 3388,-81.5 0,-81.5"/>
<text text-anchor="middle" x="649" y="-92.3" font-family="Times,serif" font-size="14.00" fill="#0058ad">r 82 [1 2 3 4 5 6 7 10 8 9 15 17 19 20 18 21 13 24 25 22 26 27 29 30 28 31 32 35 33 34 37 38 39 41 40 42 36 43 44 45 46 48 49 50 51 47 52 53 55 54 56 60 57 65 66 67 70 71 72 68 69 73 74 75 76 77 78 79 80 81 82 83 84 86 88 89]</text>
<polyline fill="none" stroke="#0058ad" points="1298,-81.5 1298,-110.5 "/>
<text text-anchor="middle" x="1795" y="-92.3" font-family="Times,serif" font-size="14.00" fill="#0058ad">r 80 [1 3 4 5 6 7 9 8 10 11 12 13 14 15 16 17 18 19 20 21 22 23 25 26 24 27 28 29 30 31 32 34 33 35 36 37 38 39 40 41 44 42 47 48 49 50 52 53 54 51 55 56 57 59 60 61 62 63]</text>
<polyline fill="none" stroke="#0058ad" points="2292,-81.5 2292,-110.5 "/>
<text text-anchor="middle" x="2320.5" y="-92.3" font-family="Times,serif" font-size="14.00" fill="#0058ad">a 82 90</text>
<polyline fill="none" stroke="#0058ad" points="2349,-81.5 2349,-110.5 "/>
<text text-anchor="middle" x="2868.5" y="-92.3" font-family="Times,serif" font-size="14.00" fill="#0058ad">r 81 [1 2 3 4 5 6 8 7 9 11 12 13 14 15 16 17 18 19 20 21 22 24 25 26 28 29 27 30 31 32 35 36 37 38 39 40 41 42 43 44 45 46 47 48 49 50 51 52 53 54 55 57 58 59 61 62 65 66 69 67 68]</text>
</g>
<!-- T15827 -->
<g id="node2" class="node">
<title>T15827</title>
<polygon fill="none" stroke="#0058ad" points="948.5,-.5 948.5,-29.5 4899.5,-29.5 4899.5,-.5 948.5,-.5"/>
<text text-anchor="middle" x="1597.5" y="-11.3" font-family="Times,serif" font-size="14.00" fill="#0058ad">r 82 [1 2 3 4 5 6 7 10 8 9 15 17 19 20 18 21 13 24 25 22 26 27 29 30 28 31 32 35 33 34 37 38 39 41 40 42 36 43 44 45 46 48 49 50 51 47 52 53 55 54 56 60 57 65 66 67 70 71 72 68 69 73 74 75 76 77 78 79 80 81 82 83 84 86 88 89]</text>
<polyline fill="none" stroke="#0058ad" points="2246.5,-.5 2246.5,-29.5 "/>
<text text-anchor="middle" x="2275" y="-11.3" font-family="Times,serif" font-size="14.00" fill="#0058ad">a 80 64</text>
<polyline fill="none" stroke="#0058ad" points="2303.5,-.5 2303.5,-29.5 "/>
<text text-anchor="middle" x="2952.5" y="-11.3" font-family="Times,serif" font-size="14.00" fill="#0058ad">r 82 [1 2 3 4 5 6 7 10 8 9 15 17 19 20 18 21 13 24 25 22 26 27 29 30 28 31 32 35 33 34 37 38 39 41 40 42 36 43 44 45 46 48 49 50 51 47 52 53 55 54 56 60 57 65 66 67 70 71 72 68 69 73 74 75 76 77 78 79 80 81 82 83 84 86 88 89]</text>
<polyline fill="none" stroke="#0058ad" points="3601.5,-.5 3601.5,-29.5 "/>
<text text-anchor="middle" x="4250.5" y="-11.3" font-family="Times,serif" font-size="14.00" fill="#0058ad">r 82 [1 2 3 4 5 6 7 10 8 9 15 17 19 20 18 21 13 24 25 22 26 27 29 30 28 31 32 35 33 34 37 38 39 41 40 42 36 43 44 45 46 48 49 50 51 47 52 53 55 54 56 60 57 65 66 67 70 71 72 68 69 73 74 75 76 77 78 79 80 81 82 83 84 86 88 89]</text>
</g>
<!-- T15829&#45;&gt;T15827 -->
<g id="edge1" class="edge">
<title>T15829:f1&#45;&gt;T15827:f1</title>
<path fill="none" stroke="#5b00c0" d="M1795,-81C1795,-68.7177 2197.7606,-47.3944 2265.4118,-33.5935"/>
<polygon fill="#5b00c0" stroke="#5b00c0" points="2266.8644,-36.7869 2275,-30 2264.4077,-30.2322 2266.8644,-36.7869"/>
<text text-anchor="middle" x="2127.5" y="-51.8" font-family="Times,serif" font-size="14.00" fill="#5b00c0">rw</text>
</g>
<!-- T15827&#45;&gt;T15829 -->
<g id="edge2" class="edge">
<title>T15827:f0&#45;&gt;T15829:f2</title>
<path fill="none" stroke="#5b00c0" d="M1597,-30C1597,-45.0639 2124.0211,-46.402 2139,-48 2217.0718,-56.3292 2312.03,-3.8622 2320.4038,-70.7508"/>
<polygon fill="#5b00c0" stroke="#5b00c0" points="2316.9251,-71.2202 2321,-81 2323.9133,-70.8136 2316.9251,-71.2202"/>
<text text-anchor="middle" x="2325.5" y="-51.8" font-family="Times,serif" font-size="14.00" fill="#5b00c0">rw</text>
</g>
</g>
</svg>
