<?xml version="1.0" encoding="UTF-8" standalone="no"?>
<!DOCTYPE svg PUBLIC "-//W3C//DTD SVG 1.1//EN"
 "http://www.w3.org/Graphics/SVG/1.1/DTD/svg11.dtd">
<!-- Generated by graphviz version 2.40.1 (20161225.0304)
 -->
<!-- Title: a_graph Pages: 1 -->
<svg width="3360pt" height="119pt"
 viewBox="0.00 0.00 3359.50 119.00" xmlns="http://www.w3.org/2000/svg" xmlns:xlink="http://www.w3.org/1999/xlink">
<g id="graph0" class="graph" transform="scale(1 1) rotate(0) translate(4 115)">
<title>a_graph</title>
<polygon fill="#ffffff" stroke="transparent" points="-4,4 -4,-115 3355.5,-115 3355.5,4 -4,4"/>
<!-- T19287 -->
<g id="node1" class="node">
<title>T19287</title>
<polygon fill="none" stroke="#0058ad" points="0,-81.5 0,-110.5 3090,-110.5 3090,-81.5 0,-81.5"/>
<text text-anchor="middle" x="657.5" y="-92.3" font-family="Times,serif" font-size="14.00" fill="#0058ad">r 94 [1 2 3 4 5 7 8 6 9 10 11 12 13 15 14 16 18 17 19 20 21 22 23 24 26 25 27 28 29 31 32 33 34 35 36 37 38 39 41 43 45 47 48 49 50 51 52 53 55 56 54 57 58 59 60 61 62 63 64 65 66 67 68 69 70 72 73 74 75 76 77 78 79 80 81 82 83]</text>
<polyline fill="none" stroke="#0058ad" points="1315,-81.5 1315,-110.5 "/>
<text text-anchor="middle" x="1347" y="-92.3" font-family="Times,serif" font-size="14.00" fill="#0058ad">a 95 118</text>
<polyline fill="none" stroke="#0058ad" points="1379,-81.5 1379,-110.5 "/>
<text text-anchor="middle" x="2234.5" y="-92.3" font-family="Times,serif" font-size="14.00" fill="#0058ad">r 97 [2 1 4 3 5 6 7 8 9 10 11 12 13 14 17 15 16 22 18 19 23 20 21 25 24 26 28 27 29 30 31 32 33 34 35 36 37 38 41 39 40 42 44 43 47 45 46 48 49 50 51 53 52 57 60 61 54 55 62 63 66 64 65 67 70 71 72 73 74 75 76 68 69 77 79 81 83 84 85 86 87 89 90 91 92 93 88 94 95 96 97 98 99 100 101 102 103 104]</text>
</g>
<!-- T19289 -->
<g id="node2" class="node">
<title>T19289</title>
<polygon fill="none" stroke="#0058ad" points="1184.5,-.5 1184.5,-29.5 3351.5,-29.5 3351.5,-.5 1184.5,-.5"/>
<text text-anchor="middle" x="1216.5" y="-11.3" font-family="Times,serif" font-size="14.00" fill="#0058ad">a 97 107</text>
<polyline fill="none" stroke="#0058ad" points="1248.5,-.5 1248.5,-29.5 "/>
<text text-anchor="middle" x="1280.5" y="-11.3" font-family="Times,serif" font-size="14.00" fill="#0058ad">a 97 108</text>
<polyline fill="none" stroke="#0058ad" points="1312.5,-.5 1312.5,-29.5 "/>
<text text-anchor="middle" x="1344.5" y="-11.3" font-family="Times,serif" font-size="14.00" fill="#0058ad">a 97 109</text>
<polyline fill="none" stroke="#0058ad" points="1376.5,-.5 1376.5,-29.5 "/>
<text text-anchor="middle" x="2364" y="-11.3" font-family="Times,serif" font-size="14.00" fill="#0058ad">r 95 [1 2 3 4 5 7 6 8 9 10 11 12 13 14 16 17 18 19 21 22 23 24 25 26 27 28 30 31 29 32 34 33 35 36 38 39 41 43 44 45 46 47 48 40 50 52 53 54 56 57 51 58 59 60 61 62 63 65 66 64 67 68 69 70 71 72 74 73 75 78 77 76 79 80 81 82 83 84 85 86 87 88 89 90 91 92 93 94 95 96 97 98 99 100 102 105 103 106 107 108 109 110 111 112 113 114 115 117 116]</text>
</g>
<!-- T19287&#45;&gt;T19289 -->
<g id="edge1" class="edge">
<title>T19287:f2&#45;&gt;T19289:f0</title>
<path fill="none" stroke="#5b00c0" d="M2235,-81C2235,65.1841 1724.0018,-55.2966 1578,-48 1559.8138,-47.0911 1278.4925,-49.5727 1224.8124,-35.1657"/>
<polygon fill="#5b00c0" stroke="#5b00c0" points="1226.3971,-32.0376 1216,-30 1222.8571,-38.0766 1226.3971,-32.0376"/>
<text text-anchor="middle" x="2236.5" y="-51.8" font-family="Times,serif" font-size="14.00" fill="#5b00c0">rw</text>
</g>
<!-- T19289&#45;&gt;T19287 -->
<g id="edge2" class="edge">
<title>T19289:f3&#45;&gt;T19287:f1</title>
<path fill="none" stroke="#5b00c0" d="M2364,-30C2364,-52.3667 1581.2794,-46.0256 1559,-48 1467.7257,-56.0887 1356.1082,8.9485 1347.5274,-70.5712"/>
<polygon fill="#5b00c0" stroke="#5b00c0" points="1344.0096,-70.836 1347,-81 1351.0007,-71.1896 1344.0096,-70.836"/>
<text text-anchor="middle" x="1566.5" y="-51.8" font-family="Times,serif" font-size="14.00" fill="#5b00c0">rw</text>
</g>
</g>
</svg>
