<?xml version="1.0" encoding="UTF-8" standalone="no"?>
<!DOCTYPE svg PUBLIC "-//W3C//DTD SVG 1.1//EN"
 "http://www.w3.org/Graphics/SVG/1.1/DTD/svg11.dtd">
<!-- Generated by graphviz version 2.40.1 (20161225.0304)
 -->
<!-- Title: a_graph Pages: 1 -->
<svg width="2880pt" height="119pt"
 viewBox="0.00 0.00 2879.50 119.00" xmlns="http://www.w3.org/2000/svg" xmlns:xlink="http://www.w3.org/1999/xlink">
<g id="graph0" class="graph" transform="scale(1 1) rotate(0) translate(4 115)">
<title>a_graph</title>
<polygon fill="#ffffff" stroke="transparent" points="-4,4 -4,-115 2875.5,-115 2875.5,4 -4,4"/>
<!-- T16029 -->
<g id="node1" class="node">
<title>T16029</title>
<polygon fill="none" stroke="#0058ad" points="630.5,-81.5 630.5,-110.5 2871.5,-110.5 2871.5,-81.5 630.5,-81.5"/>
<text text-anchor="middle" x="1528.5" y="-92.3" font-family="Times,serif" font-size="14.00" fill="#0058ad">r 81 [1 2 3 4 5 6 8 7 9 11 12 13 14 15 16 17 18 19 20 21 22 24 25 26 28 29 27 30 31 32 35 36 37 38 39 40 41 42 43 44 45 46 47 48 49 50 51 52 53 54 55 57 58 59 61 62 65 66 69 67 68 70 71 74 72 73 75 76 79 77 78 80 81 83 82 84 85 86 87 88 89 90 91 92 93 94 95 96 98 99 100 60 101 102 103 104 105 106 107 109 108]</text>
<polyline fill="none" stroke="#0058ad" points="2426.5,-81.5 2426.5,-110.5 "/>
<text text-anchor="middle" x="2455" y="-92.3" font-family="Times,serif" font-size="14.00" fill="#0058ad">a 83 21</text>
<polyline fill="none" stroke="#0058ad" points="2483.5,-81.5 2483.5,-110.5 "/>
<text text-anchor="middle" x="2652.5" y="-92.3" font-family="Times,serif" font-size="14.00" fill="#0058ad">r 83 [2 3 4 5 6 7 9 10 11 8 12 13 16 14 15 17 18 19 20 21]</text>
<polyline fill="none" stroke="#0058ad" points="2821.5,-81.5 2821.5,-110.5 "/>
<text text-anchor="middle" x="2846.5" y="-92.3" font-family="Times,serif" font-size="14.00" fill="#0058ad">a 84 1</text>
</g>
<!-- T16027 -->
<g id="node2" class="node">
<title>T16027</title>
<polygon fill="none" stroke="#0058ad" points="0,-.5 0,-29.5 2502,-29.5 2502,-.5 0,-.5"/>
<text text-anchor="middle" x="898" y="-11.3" font-family="Times,serif" font-size="14.00" fill="#0058ad">r 81 [1 2 3 4 5 6 8 7 9 11 12 13 14 15 16 17 18 19 20 21 22 24 25 26 28 29 27 30 31 32 35 36 37 38 39 40 41 42 43 44 45 46 47 48 49 50 51 52 53 54 55 57 58 59 61 62 65 66 69 67 68 70 71 74 72 73 75 76 79 77 78 80 81 83 82 84 85 86 87 88 89 90 91 92 93 94 95 96 98 99 100 60 101 102 103 104 105 106 107 109 108]</text>
<polyline fill="none" stroke="#0058ad" points="1796,-.5 1796,-29.5 "/>
<text text-anchor="middle" x="1956.5" y="-11.3" font-family="Times,serif" font-size="14.00" fill="#0058ad">r 83 [2 3 4 5 6 7 9 10 11 8 12 13 16 14 15 17 18 19 20]</text>
<polyline fill="none" stroke="#0058ad" points="2117,-.5 2117,-29.5 "/>
<text text-anchor="middle" x="2277.5" y="-11.3" font-family="Times,serif" font-size="14.00" fill="#0058ad">r 83 [2 3 4 5 6 7 9 10 11 8 12 13 16 14 15 17 18 19 20]</text>
<polyline fill="none" stroke="#0058ad" points="2438,-.5 2438,-29.5 "/>
<text text-anchor="middle" x="2470" y="-11.3" font-family="Times,serif" font-size="14.00" fill="#0058ad">a 81 110</text>
</g>
<!-- T16029&#45;&gt;T16027 -->
<g id="edge1" class="edge">
<title>T16029:f0&#45;&gt;T16027:f3</title>
<path fill="none" stroke="#5b00c0" d="M1528,-81C1528,-68.6908 2359.383,-46.0622 2460.0583,-32.5033"/>
<polygon fill="#5b00c0" stroke="#5b00c0" points="2461.1574,-35.8359 2470,-30 2459.448,-29.0478 2461.1574,-35.8359"/>
<text text-anchor="middle" x="2172.5" y="-51.8" font-family="Times,serif" font-size="14.00" fill="#5b00c0">rw</text>
</g>
<!-- T16027&#45;&gt;T16029 -->
<g id="edge2" class="edge">
<title>T16027:f1&#45;&gt;T16029:f1</title>
<path fill="none" stroke="#5b00c0" d="M1957,-30C1957,-55.3014 2158.8254,-45.4702 2184,-48 2301.1892,-59.7761 2446.2203,34.5441 2454.6176,-70.8986"/>
<polygon fill="#5b00c0" stroke="#5b00c0" points="2451.1241,-71.1396 2455,-81 2458.1191,-70.8747 2451.1241,-71.1396"/>
<text text-anchor="middle" x="2460.5" y="-51.8" font-family="Times,serif" font-size="14.00" fill="#5b00c0">rw</text>
</g>
</g>
</svg>
