<?xml version="1.0" encoding="UTF-8" standalone="no"?>
<!DOCTYPE svg PUBLIC "-//W3C//DTD SVG 1.1//EN"
 "http://www.w3.org/Graphics/SVG/1.1/DTD/svg11.dtd">
<!-- Generated by graphviz version 2.40.1 (20161225.0304)
 -->
<!-- Title: a_graph Pages: 1 -->
<svg width="2280pt" height="200pt"
 viewBox="0.00 0.00 2279.50 200.00" xmlns="http://www.w3.org/2000/svg" xmlns:xlink="http://www.w3.org/1999/xlink">
<g id="graph0" class="graph" transform="scale(1 1) rotate(0) translate(4 196)">
<title>a_graph</title>
<polygon fill="#ffffff" stroke="transparent" points="-4,4 -4,-196 2275.5,-196 2275.5,4 -4,4"/>
<!-- T19569 -->
<g id="node1" class="node">
<title>T19569</title>
<polygon fill="none" stroke="#0058ad" points="1656.5,-162.5 1656.5,-191.5 2271.5,-191.5 2271.5,-162.5 1656.5,-162.5"/>
<text text-anchor="middle" x="1688.5" y="-173.3" font-family="Times,serif" font-size="14.00" fill="#0058ad">a 94 106</text>
<polyline fill="none" stroke="#0058ad" points="1720.5,-162.5 1720.5,-191.5 "/>
<text text-anchor="middle" x="1749" y="-173.3" font-family="Times,serif" font-size="14.00" fill="#0058ad">a 98 13</text>
<polyline fill="none" stroke="#0058ad" points="1777.5,-162.5 1777.5,-191.5 "/>
<text text-anchor="middle" x="2024.5" y="-173.3" font-family="Times,serif" font-size="14.00" fill="#0058ad">r 101 [2 1 3 4 6 5 7 8 9 10 11 12 14 15 16 13 17 18 19 20 21 22 23 25 26 27 24 28 29]</text>
</g>
<!-- T19575 -->
<g id="node2" class="node">
<title>T19575</title>
<polygon fill="none" stroke="#0058ad" points="419,-81.5 419,-110.5 1715,-110.5 1715,-81.5 419,-81.5"/>
<text text-anchor="middle" x="1035" y="-92.3" font-family="Times,serif" font-size="14.00" fill="#0058ad">r 100 [1 4 5 6 7 10 8 9 11 15 16 17 18 19 20 21 24 25 22 23 28 26 27 31 32 33 34 29 30 35 36 38 39 40 41 42 45 37 46 47 48 49 50 43 44 52 51 53 54 55 56 57 58 59 61 62 63 64 65 60 66 67 68 69 70 71 72 74 75 76 77]</text>
<polyline fill="none" stroke="#0058ad" points="1651,-81.5 1651,-110.5 "/>
<text text-anchor="middle" x="1683" y="-92.3" font-family="Times,serif" font-size="14.00" fill="#0058ad">a 94 107</text>
</g>
<!-- T19569&#45;&gt;T19575 -->
<g id="edge1" class="edge">
<title>T19569:f0&#45;&gt;T19575:f1</title>
<path fill="none" stroke="#c02700" d="M1688,-162C1688,-143.1392 1684.571,-136.1604 1683.3923,-121.384"/>
<polygon fill="#c02700" stroke="#c02700" points="1686.8752,-120.8607 1683,-111 1679.8802,-121.125 1686.8752,-120.8607"/>
<text text-anchor="middle" x="1696" y="-132.8" font-family="Times,serif" font-size="14.00" fill="#c02700">ww</text>
</g>
<!-- T19573 -->
<g id="node3" class="node">
<title>T19573</title>
<polygon fill="none" stroke="#0058ad" points="0,-.5 0,-29.5 1984,-29.5 1984,-.5 0,-.5"/>
<text text-anchor="middle" x="616" y="-11.3" font-family="Times,serif" font-size="14.00" fill="#0058ad">r 100 [1 4 5 6 7 10 8 9 11 15 16 17 18 19 20 21 24 25 22 23 28 26 27 31 32 33 34 29 30 35 36 38 39 40 41 42 45 37 46 47 48 49 50 43 44 52 51 53 54 55 56 57 58 59 61 62 63 64 65 60 66 67 68 69 70 71 72 74 75 76 77]</text>
<polyline fill="none" stroke="#0058ad" points="1232,-.5 1232,-29.5 "/>
<text text-anchor="middle" x="1329" y="-11.3" font-family="Times,serif" font-size="14.00" fill="#0058ad">r 98 [1 2 3 4 5 6 7 8 9 10 11 12]</text>
<polyline fill="none" stroke="#0058ad" points="1426,-.5 1426,-29.5 "/>
<text text-anchor="middle" x="1458" y="-11.3" font-family="Times,serif" font-size="14.00" fill="#0058ad">a 100 73</text>
<polyline fill="none" stroke="#0058ad" points="1490,-.5 1490,-29.5 "/>
<text text-anchor="middle" x="1737" y="-11.3" font-family="Times,serif" font-size="14.00" fill="#0058ad">r 101 [2 1 3 4 6 5 7 8 9 10 11 12 14 15 16 13 17 18 19 20 21 22 23 25 26 27 24 28 29]</text>
</g>
<!-- T19575&#45;&gt;T19573 -->
<g id="edge2" class="edge">
<title>T19575:f0&#45;&gt;T19573:f2</title>
<path fill="none" stroke="#5b00c0" d="M1035,-81C1035,104.848 1442.4484,-207.3779 1457.5685,-40.0132"/>
<polygon fill="#5b00c0" stroke="#5b00c0" points="1461.0661,-40.1414 1458,-30 1454.0726,-39.84 1461.0661,-40.1414"/>
<text text-anchor="middle" x="1463.5" y="-51.8" font-family="Times,serif" font-size="14.00" fill="#5b00c0">rw</text>
</g>
<!-- T19573&#45;&gt;T19569 -->
<g id="edge3" class="edge">
<title>T19573:f1&#45;&gt;T19569:f1</title>
<path fill="none" stroke="#5b00c0" d="M1329,-30C1329,-46.345 1458.787,-45.9263 1475,-48 1585.7322,-62.1633 1638.7323,-8.947 1724,-81 1750.0793,-103.0376 1749.4221,-120.7138 1749.0697,-151.8762"/>
<polygon fill="#5b00c0" stroke="#5b00c0" points="1745.569,-151.9761 1749,-162 1752.5688,-152.0244 1745.569,-151.9761"/>
<text text-anchor="middle" x="1752.5" y="-92.3" font-family="Times,serif" font-size="14.00" fill="#5b00c0">rw</text>
</g>
</g>
</svg>
