<?xml version="1.0" encoding="UTF-8" standalone="no"?>
<!DOCTYPE svg PUBLIC "-//W3C//DTD SVG 1.1//EN"
 "http://www.w3.org/Graphics/SVG/1.1/DTD/svg11.dtd">
<!-- Generated by graphviz version 2.40.1 (20161225.0304)
 -->
<!-- Title: a_graph Pages: 1 -->
<svg width="3070pt" height="119pt"
 viewBox="0.00 0.00 3070.00 119.00" xmlns="http://www.w3.org/2000/svg" xmlns:xlink="http://www.w3.org/1999/xlink">
<g id="graph0" class="graph" transform="scale(1 1) rotate(0) translate(4 115)">
<title>a_graph</title>
<polygon fill="#ffffff" stroke="transparent" points="-4,4 -4,-115 3066,-115 3066,4 -4,4"/>
<!-- T11267 -->
<g id="node1" class="node">
<title>T11267</title>
<polygon fill="none" stroke="#0058ad" points="0,-81.5 0,-110.5 3062,-110.5 3062,-81.5 0,-81.5"/>
<text text-anchor="middle" x="716" y="-92.3" font-family="Times,serif" font-size="14.00" fill="#0058ad">r 59 [3 4 5 6 7 8 9 10 11 13 14 15 16 18 19 20 21 22 23 24 25 26 27 28 29 30 31 32 33 34 35 36 37 38 39 40 41 42 43 44 45 46 47 51 53 55 56 57 58 59 60 62 64 63 65 66 67 68 69 70 72 71 73 74 75 76 77 78 79 80 81 82 83 84 85 86 87 88 89 90 92 93 94]</text>
<polyline fill="none" stroke="#0058ad" points="1432,-81.5 1432,-110.5 "/>
<text text-anchor="middle" x="1457" y="-92.3" font-family="Times,serif" font-size="14.00" fill="#0058ad">a 60 3</text>
<polyline fill="none" stroke="#0058ad" points="1482,-81.5 1482,-110.5 "/>
<text text-anchor="middle" x="2272" y="-92.3" font-family="Times,serif" font-size="14.00" fill="#0058ad">r 55 [1 2 3 6 7 8 9 11 12 10 15 16 17 18 19 20 21 22 23 24 25 26 27 28 29 30 31 32 33 34 35 36 37 38 39 40 44 41 45 47 49 50 51 54 55 56 57 58 59 60 61 62 63 64 65 66 67 68 69 70 71 72 73 74 75 76 77 78 79 80 81 82 83 84 86 87 88 89 90 91 92 93 94 95 98 99 100 101 102 103]</text>
</g>
<!-- T11269 -->
<g id="node2" class="node">
<title>T11269</title>
<polygon fill="none" stroke="#0058ad" points="1767,-.5 1767,-29.5 1963,-29.5 1963,-.5 1767,-.5"/>
<text text-anchor="middle" x="1799" y="-11.3" font-family="Times,serif" font-size="14.00" fill="#0058ad">a 55 105</text>
<polyline fill="none" stroke="#0058ad" points="1831,-.5 1831,-29.5 "/>
<text text-anchor="middle" x="1863" y="-11.3" font-family="Times,serif" font-size="14.00" fill="#0058ad">a 55 106</text>
<polyline fill="none" stroke="#0058ad" points="1895,-.5 1895,-29.5 "/>
<text text-anchor="middle" x="1929" y="-11.3" font-family="Times,serif" font-size="14.00" fill="#0058ad">r 60 [2 1]</text>
</g>
<!-- T11267&#45;&gt;T11269 -->
<g id="edge1" class="edge">
<title>T11267:f2&#45;&gt;T11269:f0</title>
<path fill="none" stroke="#5b00c0" d="M2272,-81C2272,126.9304 1814.5747,-229.2538 1799.3868,-40.0538"/>
<polygon fill="#5b00c0" stroke="#5b00c0" points="1802.8819,-39.858 1799,-30 1795.8871,-40.1272 1802.8819,-39.858"/>
<text text-anchor="middle" x="2276.5" y="-51.8" font-family="Times,serif" font-size="14.00" fill="#5b00c0">rw</text>
</g>
<!-- T11269&#45;&gt;T11267 -->
<g id="edge2" class="edge">
<title>T11269:f2&#45;&gt;T11267:f1</title>
<path fill="none" stroke="#5b00c0" d="M1929,-30C1929,-36.0271 1534.6392,-68.1378 1466.8584,-78.648"/>
<polygon fill="#5b00c0" stroke="#5b00c0" points="1465.9148,-75.2748 1457,-81 1467.5393,-82.0837 1465.9148,-75.2748"/>
<text text-anchor="middle" x="1769.5" y="-51.8" font-family="Times,serif" font-size="14.00" fill="#5b00c0">rw</text>
</g>
</g>
</svg>
