<?xml version="1.0" encoding="UTF-8" standalone="no"?>
<!DOCTYPE svg PUBLIC "-//W3C//DTD SVG 1.1//EN"
 "http://www.w3.org/Graphics/SVG/1.1/DTD/svg11.dtd">
<!-- Generated by graphviz version 2.40.1 (20161225.0304)
 -->
<!-- Title: a_graph Pages: 1 -->
<svg width="1380pt" height="119pt"
 viewBox="0.00 0.00 1380.00 119.00" xmlns="http://www.w3.org/2000/svg" xmlns:xlink="http://www.w3.org/1999/xlink">
<g id="graph0" class="graph" transform="scale(1 1) rotate(0) translate(4 115)">
<title>a_graph</title>
<polygon fill="#ffffff" stroke="transparent" points="-4,4 -4,-115 1376,-115 1376,4 -4,4"/>
<!-- T16223 -->
<g id="node1" class="node">
<title>T16223</title>
<polygon fill="none" stroke="#0058ad" points="0,-81.5 0,-110.5 1372,-110.5 1372,-81.5 0,-81.5"/>
<text text-anchor="middle" x="25" y="-92.3" font-family="Times,serif" font-size="14.00" fill="#0058ad">a 85 3</text>
<polyline fill="none" stroke="#0058ad" points="50,-81.5 50,-110.5 "/>
<text text-anchor="middle" x="711" y="-92.3" font-family="Times,serif" font-size="14.00" fill="#0058ad">r 83 [2 3 4 5 6 7 9 10 11 8 12 13 16 14 15 17 18 19 20 21 22 23 24 26 25 27 28 32 29 30 31 33 34 35 38 36 37 39 41 42 43 44 45 46 47 40 48 51 52 53 54 55 56 49 50 58 59 60 61 57 62 63 64 66 67 65 70 71 73 74 76 77 68 80 81 82 83]</text>
</g>
<!-- T16221 -->
<g id="node2" class="node">
<title>T16221</title>
<polygon fill="none" stroke="#0058ad" points="306,-.5 306,-29.5 522,-29.5 522,-.5 306,-.5"/>
<text text-anchor="middle" x="334.5" y="-11.3" font-family="Times,serif" font-size="14.00" fill="#0058ad">a 84 11</text>
<polyline fill="none" stroke="#0058ad" points="363,-.5 363,-29.5 "/>
<text text-anchor="middle" x="388.5" y="-11.3" font-family="Times,serif" font-size="14.00" fill="#0058ad">r 85 []</text>
<polyline fill="none" stroke="#0058ad" points="414,-.5 414,-29.5 "/>
<text text-anchor="middle" x="439.5" y="-11.3" font-family="Times,serif" font-size="14.00" fill="#0058ad">r 85 []</text>
<polyline fill="none" stroke="#0058ad" points="465,-.5 465,-29.5 "/>
<text text-anchor="middle" x="493.5" y="-11.3" font-family="Times,serif" font-size="14.00" fill="#0058ad">a 83 79</text>
</g>
<!-- T16223&#45;&gt;T16221 -->
<g id="edge1" class="edge">
<title>T16223:f1&#45;&gt;T16221:f3</title>
<path fill="none" stroke="#5b00c0" d="M711,-81C711,-39.467 585.043,-17.9585 532.1144,-15.285"/>
<polygon fill="#5b00c0" stroke="#5b00c0" points="532.0947,-11.7832 522,-15 531.8974,-18.7804 532.0947,-11.7832"/>
<text text-anchor="middle" x="707.5" y="-51.8" font-family="Times,serif" font-size="14.00" fill="#5b00c0">rw</text>
</g>
<!-- T16221&#45;&gt;T16223 -->
<g id="edge2" class="edge">
<title>T16221:f1&#45;&gt;T16223:f0</title>
<path fill="none" stroke="#5b00c0" d="M388,-30C388,-189.2586 41.1235,69.7925 25.5412,-70.6747"/>
<polygon fill="#5b00c0" stroke="#5b00c0" points="22.0283,-70.8305 25,-81 29.0187,-71.1969 22.0283,-70.8305"/>
<text text-anchor="middle" x="391.5" y="-51.8" font-family="Times,serif" font-size="14.00" fill="#5b00c0">rw</text>
</g>
</g>
</svg>
