<?xml version="1.0" encoding="UTF-8" standalone="no"?>
<!DOCTYPE svg PUBLIC "-//W3C//DTD SVG 1.1//EN"
 "http://www.w3.org/Graphics/SVG/1.1/DTD/svg11.dtd">
<!-- Generated by graphviz version 2.40.1 (20161225.0304)
 -->
<!-- Title: a_graph Pages: 1 -->
<svg width="3134pt" height="119pt"
 viewBox="0.00 0.00 3134.00 119.00" xmlns="http://www.w3.org/2000/svg" xmlns:xlink="http://www.w3.org/1999/xlink">
<g id="graph0" class="graph" transform="scale(1 1) rotate(0) translate(4 115)">
<title>a_graph</title>
<polygon fill="#ffffff" stroke="transparent" points="-4,4 -4,-115 3130,-115 3130,4 -4,4"/>
<!-- T19617 -->
<g id="node1" class="node">
<title>T19617</title>
<polygon fill="none" stroke="#0058ad" points="0,-81.5 0,-110.5 3126,-110.5 3126,-81.5 0,-81.5"/>
<text text-anchor="middle" x="745" y="-92.3" font-family="Times,serif" font-size="14.00" fill="#0058ad">r 100 [1 4 5 6 7 10 8 9 11 15 16 17 18 19 20 21 24 25 22 23 28 26 27 31 32 33 34 29 30 35 36 38 39 40 41 42 45 37 46 47 48 49 50 43 44 52 51 53 54 55 56 57 58 59 61 62 63 64 65 60 66 67 68 69 70 71 72 74 75 76 77 73 78 81 79 80 82 83 84 85 86 87 88 89 90 92]</text>
<polyline fill="none" stroke="#0058ad" points="1490,-81.5 1490,-110.5 "/>
<text text-anchor="middle" x="1522" y="-92.3" font-family="Times,serif" font-size="14.00" fill="#0058ad">a 100 91</text>
<polyline fill="none" stroke="#0058ad" points="1554,-81.5 1554,-110.5 "/>
<text text-anchor="middle" x="1586" y="-92.3" font-family="Times,serif" font-size="14.00" fill="#0058ad">a 94 110</text>
<polyline fill="none" stroke="#0058ad" points="1618,-81.5 1618,-110.5 "/>
<text text-anchor="middle" x="2372" y="-92.3" font-family="Times,serif" font-size="14.00" fill="#0058ad">r 100 [1 4 5 6 7 10 8 9 11 15 16 17 18 19 20 21 24 25 22 23 28 26 27 31 32 33 34 29 30 35 36 38 39 40 41 42 45 37 46 47 48 49 50 43 44 52 51 53 54 55 56 57 58 59 61 62 63 64 65 60 66 67 68 69 70 71 72 74 75 76 77 73 78 81 79 80 82 83 84 85 86 87 88 89 90 92 91]</text>
</g>
<!-- T19623 -->
<g id="node2" class="node">
<title>T19623</title>
<polygon fill="none" stroke="#0058ad" points="797,-.5 797,-29.5 2287,-29.5 2287,-.5 797,-.5"/>
<text text-anchor="middle" x="1542" y="-11.3" font-family="Times,serif" font-size="14.00" fill="#0058ad">r 100 [1 4 5 6 7 10 8 9 11 15 16 17 18 19 20 21 24 25 22 23 28 26 27 31 32 33 34 29 30 35 36 38 39 40 41 42 45 37 46 47 48 49 50 43 44 52 51 53 54 55 56 57 58 59 61 62 63 64 65 60 66 67 68 69 70 71 72 74 75 76 77 73 78 81 79 80 82 83 84 85 86 87 88 89 90 92]</text>
</g>
<!-- T19617&#45;&gt;T19623 -->
<g id="edge1" class="edge">
<title>T19617&#45;&gt;T19623</title>
<path fill="none" stroke="#0050c0" d="M1559.1483,-81.1434C1556.1289,-69.497 1551.8634,-53.0446 1548.3421,-39.4623"/>
<polygon fill="#0050c0" stroke="#0050c0" points="1551.725,-38.564 1545.8273,-29.7625 1544.949,-40.3208 1551.725,-38.564"/>
<text text-anchor="middle" x="1559.5" y="-51.8" font-family="Times,serif" font-size="14.00" fill="#0050c0">rt</text>
</g>
<!-- T19623&#45;&gt;T19617 -->
<g id="edge2" class="edge">
<title>T19623:f0&#45;&gt;T19617:f1</title>
<path fill="none" stroke="#5b00c0" d="M1534.8924,-29.5587C1530.1768,-40.326 1524.5223,-55.717 1522.6424,-71.0122"/>
<polygon fill="#5b00c0" stroke="#5b00c0" points="1519.1492,-70.7959 1522,-81 1526.1348,-71.2453 1519.1492,-70.7959"/>
<text text-anchor="middle" x="1535.5" y="-51.8" font-family="Times,serif" font-size="14.00" fill="#5b00c0">rw</text>
</g>
</g>
</svg>
