<?xml version="1.0" encoding="UTF-8" standalone="no"?>
<!DOCTYPE svg PUBLIC "-//W3C//DTD SVG 1.1//EN"
 "http://www.w3.org/Graphics/SVG/1.1/DTD/svg11.dtd">
<!-- Generated by graphviz version 2.40.1 (20161225.0304)
 -->
<!-- Title: a_graph Pages: 1 -->
<svg width="2631pt" height="119pt"
 viewBox="0.00 0.00 2631.00 119.00" xmlns="http://www.w3.org/2000/svg" xmlns:xlink="http://www.w3.org/1999/xlink">
<g id="graph0" class="graph" transform="scale(1 1) rotate(0) translate(4 115)">
<title>a_graph</title>
<polygon fill="#ffffff" stroke="transparent" points="-4,4 -4,-115 2627,-115 2627,4 -4,4"/>
<!-- T10029 -->
<g id="node1" class="node">
<title>T10029</title>
<polygon fill="none" stroke="#0058ad" points="631.5,-81.5 631.5,-110.5 2089.5,-110.5 2089.5,-81.5 631.5,-81.5"/>
<text text-anchor="middle" x="660" y="-92.3" font-family="Times,serif" font-size="14.00" fill="#0058ad">a 52 71</text>
<polyline fill="none" stroke="#0058ad" points="688.5,-81.5 688.5,-110.5 "/>
<text text-anchor="middle" x="1389" y="-92.3" font-family="Times,serif" font-size="14.00" fill="#0058ad">r 54 [1 2 3 4 5 7 8 9 11 10 12 6 13 14 15 16 17 19 20 21 22 18 23 24 25 26 27 28 30 31 32 33 34 35 36 37 38 39 40 42 43 44 45 46 48 47 49 50 52 53 54 56 58 57 61 62 60 67 66 68 69 70 71 63 72 73 74 75 76 78 79 80 81 82 84 85 83 90 91 92 93 94]</text>
</g>
<!-- T10031 -->
<g id="node2" class="node">
<title>T10031</title>
<polygon fill="none" stroke="#0058ad" points="0,-.5 0,-29.5 2623,-29.5 2623,-.5 0,-.5"/>
<text text-anchor="middle" x="28.5" y="-11.3" font-family="Times,serif" font-size="14.00" fill="#0058ad">a 54 96</text>
<polyline fill="none" stroke="#0058ad" points="57,-.5 57,-29.5 "/>
<text text-anchor="middle" x="766" y="-11.3" font-family="Times,serif" font-size="14.00" fill="#0058ad">r 54 [1 2 3 4 5 7 8 9 11 10 12 6 13 14 15 16 17 19 20 21 22 18 23 24 25 26 27 28 30 31 32 33 34 35 36 37 38 39 40 42 43 44 45 46 48 47 49 50 52 53 54 56 58 57 61 62 60 67 66 68 69 70 71 63 72 73 74 75 76 78 79 80 81 82 84 85 83 90 91 92 93 94 96]</text>
<polyline fill="none" stroke="#0058ad" points="1475,-.5 1475,-29.5 "/>
<text text-anchor="middle" x="2020.5" y="-11.3" font-family="Times,serif" font-size="14.00" fill="#0058ad">r 52 [1 2 3 4 5 6 7 8 9 10 11 13 12 14 15 16 17 18 19 20 21 22 23 24 25 27 28 29 30 31 26 32 33 35 36 37 34 38 39 40 41 42 43 44 45 46 47 48 49 50 51 53 55 54 58 59 60 61 62 63 64 65 66 70]</text>
<polyline fill="none" stroke="#0058ad" points="2566,-.5 2566,-29.5 "/>
<text text-anchor="middle" x="2594.5" y="-11.3" font-family="Times,serif" font-size="14.00" fill="#0058ad">a 54 97</text>
</g>
<!-- T10029&#45;&gt;T10031 -->
<g id="edge1" class="edge">
<title>T10029:f1&#45;&gt;T10031:f0</title>
<path fill="none" stroke="#5b00c0" d="M1389.5,-81C1389.5,38.7803 971.1768,-52.9772 851.5,-48 840.824,-47.556 131.2769,-42.2064 38.4717,-32.1755"/>
<polygon fill="#5b00c0" stroke="#5b00c0" points="39.0163,-28.7121 28.5,-30 37.5241,-35.5512 39.0163,-28.7121"/>
<text text-anchor="middle" x="1392" y="-51.8" font-family="Times,serif" font-size="14.00" fill="#5b00c0">rw</text>
</g>
<!-- T10031&#45;&gt;T10029 -->
<g id="edge2" class="edge">
<title>T10031:f2&#45;&gt;T10029:f0</title>
<path fill="none" stroke="#5b00c0" d="M2020.5,-30C2020.5,-46.5019 848.9164,-46.3227 832.5,-48 758.2803,-55.5832 668.3805,-7.5808 660.1155,-70.8396"/>
<polygon fill="#5b00c0" stroke="#5b00c0" points="656.6112,-70.8066 659.5,-81 663.5984,-71.23 656.6112,-70.8066"/>
<text text-anchor="middle" x="840" y="-51.8" font-family="Times,serif" font-size="14.00" fill="#5b00c0">rw</text>
</g>
</g>
</svg>
