<?xml version="1.0" encoding="UTF-8" standalone="no"?>
<!DOCTYPE svg PUBLIC "-//W3C//DTD SVG 1.1//EN"
 "http://www.w3.org/Graphics/SVG/1.1/DTD/svg11.dtd">
<!-- Generated by graphviz version 2.40.1 (20161225.0304)
 -->
<!-- Title: a_graph Pages: 1 -->
<svg width="2084pt" height="119pt"
 viewBox="0.00 0.00 2084.00 119.00" xmlns="http://www.w3.org/2000/svg" xmlns:xlink="http://www.w3.org/1999/xlink">
<g id="graph0" class="graph" transform="scale(1 1) rotate(0) translate(4 115)">
<title>a_graph</title>
<polygon fill="#ffffff" stroke="transparent" points="-4,4 -4,-115 2080,-115 2080,4 -4,4"/>
<!-- T19581 -->
<g id="node1" class="node">
<title>T19581</title>
<polygon fill="none" stroke="#0058ad" points="488,-81.5 488,-110.5 1046,-110.5 1046,-81.5 488,-81.5"/>
<text text-anchor="middle" x="520" y="-92.3" font-family="Times,serif" font-size="14.00" fill="#0058ad">a 100 81</text>
<polyline fill="none" stroke="#0058ad" points="552,-81.5 552,-110.5 "/>
<text text-anchor="middle" x="799" y="-92.3" font-family="Times,serif" font-size="14.00" fill="#0058ad">r 101 [2 1 3 4 6 5 7 8 9 10 11 12 14 15 16 13 17 18 19 20 21 22 23 25 26 27 24 28 29]</text>
</g>
<!-- T19583 -->
<g id="node2" class="node">
<title>T19583</title>
<polygon fill="none" stroke="#0058ad" points="0,-.5 0,-29.5 2076,-29.5 2076,-.5 0,-.5"/>
<text text-anchor="middle" x="117.5" y="-11.3" font-family="Times,serif" font-size="14.00" fill="#0058ad">r 99 [1 2 4 5 6 7 8 10 11 9 12 13 14 15]</text>
<polyline fill="none" stroke="#0058ad" points="235,-.5 235,-29.5 "/>
<text text-anchor="middle" x="267" y="-11.3" font-family="Times,serif" font-size="14.00" fill="#0058ad">a 101 31</text>
<polyline fill="none" stroke="#0058ad" points="299,-.5 299,-29.5 "/>
<text text-anchor="middle" x="932" y="-11.3" font-family="Times,serif" font-size="14.00" fill="#0058ad">r 100 [1 4 5 6 7 10 8 9 11 15 16 17 18 19 20 21 24 25 22 23 28 26 27 31 32 33 34 29 30 35 36 38 39 40 41 42 45 37 46 47 48 49 50 43 44 52 51 53 54 55 56 57 58 59 61 62 63 64 65 60 66 67 68 69 70 71 72 74 75 76 77 73 78]</text>
<polyline fill="none" stroke="#0058ad" points="1565,-.5 1565,-29.5 "/>
<text text-anchor="middle" x="1820.5" y="-11.3" font-family="Times,serif" font-size="14.00" fill="#0058ad">r 101 [2 1 3 4 6 5 7 8 9 10 11 12 14 15 16 13 17 18 19 20 21 22 23 25 26 27 24 28 29 31]</text>
</g>
<!-- T19581&#45;&gt;T19583 -->
<g id="edge1" class="edge">
<title>T19581:f1&#45;&gt;T19583:f1</title>
<path fill="none" stroke="#5b00c0" d="M799,-81C799,8.6523 689.1186,-57.7677 600,-48 583.4178,-46.1825 326.7323,-48.0652 275.7603,-34.9345"/>
<polygon fill="#5b00c0" stroke="#5b00c0" points="277.4306,-31.8583 267,-30 273.9951,-37.9573 277.4306,-31.8583"/>
<text text-anchor="middle" x="803.5" y="-51.8" font-family="Times,serif" font-size="14.00" fill="#5b00c0">rw</text>
</g>
<!-- T19583&#45;&gt;T19581 -->
<g id="edge2" class="edge">
<title>T19583:f2&#45;&gt;T19581:f0</title>
<path fill="none" stroke="#5b00c0" d="M932,-30C932,-49.5256 599.7995,-42.7248 581,-48 555.0319,-55.2867 527.8048,-51.4876 521.4038,-71.0737"/>
<polygon fill="#5b00c0" stroke="#5b00c0" points="517.9349,-70.6084 520,-81 524.8659,-71.5887 517.9349,-70.6084"/>
<text text-anchor="middle" x="588.5" y="-51.8" font-family="Times,serif" font-size="14.00" fill="#5b00c0">rw</text>
</g>
</g>
</svg>
