<?xml version="1.0" encoding="UTF-8" standalone="no"?>
<!DOCTYPE svg PUBLIC "-//W3C//DTD SVG 1.1//EN"
 "http://www.w3.org/Graphics/SVG/1.1/DTD/svg11.dtd">
<!-- Generated by graphviz version 2.40.1 (20161225.0304)
 -->
<!-- Title: a_graph Pages: 1 -->
<svg width="2632pt" height="119pt"
 viewBox="0.00 0.00 2631.50 119.00" xmlns="http://www.w3.org/2000/svg" xmlns:xlink="http://www.w3.org/1999/xlink">
<g id="graph0" class="graph" transform="scale(1 1) rotate(0) translate(4 115)">
<title>a_graph</title>
<polygon fill="#ffffff" stroke="transparent" points="-4,4 -4,-115 2627.5,-115 2627.5,4 -4,4"/>
<!-- T20466 -->
<g id="node1" class="node">
<title>T20466</title>
<polygon fill="none" stroke="#0058ad" points="0,-81.5 0,-110.5 1446,-110.5 1446,-81.5 0,-81.5"/>
<text text-anchor="middle" x="659" y="-92.3" font-family="Times,serif" font-size="14.00" fill="#0058ad">r 105 [1 2 3 4 5 6 7 10 11 16 17 15 18 19 20 21 22 23 24 25 26 27 28 30 31 29 32 33 34 36 39 40 37 43 44 45 46 47 41 42 48 49 50 51 52 53 54 55 56 58 57 59 60 61 62 63 64 66 68 69 70 67 71 72 73 74 75 76 78 79 77 80 81 83 84 85]</text>
<polyline fill="none" stroke="#0058ad" points="1318,-81.5 1318,-110.5 "/>
<text text-anchor="middle" x="1350" y="-92.3" font-family="Times,serif" font-size="14.00" fill="#0058ad">a 103 72</text>
<polyline fill="none" stroke="#0058ad" points="1382,-81.5 1382,-110.5 "/>
<text text-anchor="middle" x="1414" y="-92.3" font-family="Times,serif" font-size="14.00" fill="#0058ad">a 104 63</text>
</g>
<!-- T20470 -->
<g id="node2" class="node">
<title>T20470</title>
<polygon fill="none" stroke="#0058ad" points="206.5,-.5 206.5,-29.5 2623.5,-29.5 2623.5,-.5 206.5,-.5"/>
<text text-anchor="middle" x="238.5" y="-11.3" font-family="Times,serif" font-size="14.00" fill="#0058ad">a 105 86</text>
<polyline fill="none" stroke="#0058ad" points="270.5,-.5 270.5,-29.5 "/>
<text text-anchor="middle" x="938" y="-11.3" font-family="Times,serif" font-size="14.00" fill="#0058ad">r 105 [1 2 3 4 5 6 7 10 11 16 17 15 18 19 20 21 22 23 24 25 26 27 28 30 31 29 32 33 34 36 39 40 37 43 44 45 46 47 41 42 48 49 50 51 52 53 54 55 56 58 57 59 60 61 62 63 64 66 68 69 70 67 71 72 73 74 75 76 78 79 77 80 81 83 84 85 86]</text>
<polyline fill="none" stroke="#0058ad" points="1605.5,-.5 1605.5,-29.5 "/>
<text text-anchor="middle" x="2114.5" y="-11.3" font-family="Times,serif" font-size="14.00" fill="#0058ad">r 104 [1 2 3 6 7 4 5 8 10 11 12 13 14 15 16 17 18 19 20 21 22 24 25 26 28 29 30 31 33 34 32 35 36 38 37 39 40 41 42 44 43 45 46 47 49 48 50 51 52 53 55 56 57 54 58 59 60 61 64]</text>
</g>
<!-- T20466&#45;&gt;T20470 -->
<g id="edge1" class="edge">
<title>T20466:f0&#45;&gt;T20470:f0</title>
<path fill="none" stroke="#5b00c0" d="M659,-81C659,103.7978 254.2847,-205.9425 238.4755,-40.4626"/>
<polygon fill="#5b00c0" stroke="#5b00c0" points="241.9505,-39.8307 238,-30 234.9577,-40.1486 241.9505,-39.8307"/>
<text text-anchor="middle" x="665.5" y="-51.8" font-family="Times,serif" font-size="14.00" fill="#5b00c0">rw</text>
</g>
<!-- T20470&#45;&gt;T20466 -->
<g id="edge2" class="edge">
<title>T20470:f2&#45;&gt;T20466:f2</title>
<path fill="none" stroke="#5b00c0" d="M2115,-30C2115,-65.4506 1545.8705,-93.0675 1456.1267,-95.7809"/>
<polygon fill="#5b00c0" stroke="#5b00c0" points="1455.9219,-92.2845 1446,-96 1456.0734,-99.2828 1455.9219,-92.2845"/>
<text text-anchor="middle" x="2067.5" y="-51.8" font-family="Times,serif" font-size="14.00" fill="#5b00c0">rw</text>
</g>
</g>
</svg>
