<?xml version="1.0" encoding="UTF-8" standalone="no"?>
<!DOCTYPE svg PUBLIC "-//W3C//DTD SVG 1.1//EN"
 "http://www.w3.org/Graphics/SVG/1.1/DTD/svg11.dtd">
<!-- Generated by graphviz version 2.40.1 (20161225.0304)
 -->
<!-- Title: a_graph Pages: 1 -->
<svg width="4379pt" height="362pt"
 viewBox="0.00 0.00 4378.50 362.00" xmlns="http://www.w3.org/2000/svg" xmlns:xlink="http://www.w3.org/1999/xlink">
<g id="graph0" class="graph" transform="scale(1 1) rotate(0) translate(4 358)">
<title>a_graph</title>
<polygon fill="#ffffff" stroke="transparent" points="-4,4 -4,-358 4374.5,-358 4374.5,4 -4,4"/>
<!-- T17905 -->
<g id="node1" class="node">
<title>T17905</title>
<polygon fill="none" stroke="#0058ad" points="2140.5,-324.5 2140.5,-353.5 3418.5,-353.5 3418.5,-324.5 2140.5,-324.5"/>
<text text-anchor="middle" x="2169" y="-335.3" font-family="Times,serif" font-size="14.00" fill="#0058ad">a 91 55</text>
<polyline fill="none" stroke="#0058ad" points="2197.5,-324.5 2197.5,-353.5 "/>
<text text-anchor="middle" x="2808" y="-335.3" font-family="Times,serif" font-size="14.00" fill="#0058ad">r 68 [1 2 3 4 5 6 7 8 9 10 11 12 13 14 15 16 17 47 48 49 50 51 52 53 54 55 56 57 58 59 60 61 62 63 64 65 66 68 70 71 72 73 74 75 77 78 79 80 81 82 83 84 85 86 88 89 90 91 92 93 94 95 96 98 97 101 99 102 103 104]</text>
</g>
<!-- T17907 -->
<g id="node3" class="node">
<title>T17907</title>
<polygon fill="none" stroke="#0058ad" points="2519.5,-243.5 2519.5,-272.5 2937.5,-272.5 2937.5,-243.5 2519.5,-243.5"/>
<text text-anchor="middle" x="2548" y="-254.3" font-family="Times,serif" font-size="14.00" fill="#0058ad">a 91 56</text>
<polyline fill="none" stroke="#0058ad" points="2576.5,-243.5 2576.5,-272.5 "/>
<text text-anchor="middle" x="2728.5" y="-254.3" font-family="Times,serif" font-size="14.00" fill="#0058ad">r 92 [1 2 3 5 6 4 8 9 10 11 12 13 14 15 16 17 18 20]</text>
<polyline fill="none" stroke="#0058ad" points="2880.5,-243.5 2880.5,-272.5 "/>
<text text-anchor="middle" x="2909" y="-254.3" font-family="Times,serif" font-size="14.00" fill="#0058ad">a 91 57</text>
</g>
<!-- T17905&#45;&gt;T17907 -->
<g id="edge1" class="edge">
<title>T17905:f0&#45;&gt;T17907:f0</title>
<path fill="none" stroke="#c02700" d="M2168.5,-324C2168.5,-286.7192 2443.2593,-261.2358 2509.4339,-258.2865"/>
<polygon fill="#c02700" stroke="#c02700" points="2509.6037,-261.7832 2519.5,-258 2509.4044,-254.7861 2509.6037,-261.7832"/>
<text text-anchor="middle" x="2246.5" y="-294.8" font-family="Times,serif" font-size="14.00" fill="#c02700">ww</text>
</g>
<!-- T17911 -->
<g id="node2" class="node">
<title>T17911</title>
<polygon fill="none" stroke="#0058ad" points="2232,-162.5 2232,-191.5 4343,-191.5 4343,-162.5 2232,-162.5"/>
<text text-anchor="middle" x="2665" y="-173.3" font-family="Times,serif" font-size="14.00" fill="#0058ad">r 91 [1 2 4 6 7 5 8 9 10 11 3 13 12 14 15 16 17 18 20 21 22 23 26 27 24 25 28 29 30 31 35 36 37 39 38 40 42 44 45 46 43 47 48 49 50 51 52 53 55 56 57]</text>
<polyline fill="none" stroke="#0058ad" points="3098,-162.5 3098,-191.5 "/>
<text text-anchor="middle" x="3126.5" y="-173.3" font-family="Times,serif" font-size="14.00" fill="#0058ad">a 91 54</text>
<polyline fill="none" stroke="#0058ad" points="3155,-162.5 3155,-191.5 "/>
<text text-anchor="middle" x="3597" y="-173.3" font-family="Times,serif" font-size="14.00" fill="#0058ad">r 91 [1 2 4 6 7 5 8 9 10 11 3 13 12 14 15 16 17 18 20 21 22 23 26 27 24 25 28 29 30 31 35 36 37 39 38 40 42 44 45 46 43 47 48 49 50 51 52 53 55 56 57 54]</text>
<polyline fill="none" stroke="#0058ad" points="4039,-162.5 4039,-191.5 "/>
<text text-anchor="middle" x="4191" y="-173.3" font-family="Times,serif" font-size="14.00" fill="#0058ad">r 92 [1 2 3 5 6 4 8 9 10 11 12 13 14 15 16 17 18 20]</text>
</g>
<!-- T17909 -->
<g id="node5" class="node">
<title>T17909</title>
<polygon fill="none" stroke="#0058ad" points="0,-81.5 0,-110.5 2617,-110.5 2617,-81.5 0,-81.5"/>
<text text-anchor="middle" x="872.5" y="-92.3" font-family="Times,serif" font-size="14.00" fill="#0058ad">r 87 [1 2 3 4 6 7 8 9 10 12 11 13 15 14 16 17 18 19 20 21 22 23 24 25 26 27 28 29 30 31 32 34 36 37 35 38 39 40 41 42 43 44 45 46 47 48 49 50 51 52 53 54 55 56 57 58 59 60 61 62 63 64 65 66 68 67 69 70 71 72 73 74 75 76 77 79 78 80 82 83 84 85 86 87 88 89 90 91 92 93 94 95 96 97 98 99 100 101 102 103]</text>
<polyline fill="none" stroke="#0058ad" points="1745,-81.5 1745,-110.5 "/>
<text text-anchor="middle" x="2152.5" y="-92.3" font-family="Times,serif" font-size="14.00" fill="#0058ad">r 91 [1 2 4 6 7 5 8 9 10 11 3 13 12 14 15 16 17 18 20 21 22 23 26 27 24 25 28 29 30 31 35 36 37 39 38 40 42 44 45 46 43 47 48 49 50 51 52 53]</text>
<polyline fill="none" stroke="#0058ad" points="2560,-81.5 2560,-110.5 "/>
<text text-anchor="middle" x="2588.5" y="-92.3" font-family="Times,serif" font-size="14.00" fill="#0058ad">a 92 19</text>
</g>
<!-- T17911&#45;&gt;T17909 -->
<g id="edge2" class="edge">
<title>T17911:f3&#45;&gt;T17909:f2</title>
<path fill="none" stroke="#5b00c0" d="M4191.5,-162C4191.5,-141.0171 2764.0915,-99.5818 2627.7025,-96.2181"/>
<polygon fill="#5b00c0" stroke="#5b00c0" points="2627.5725,-92.7146 2617.5,-96 2627.4229,-99.713 2627.5725,-92.7146"/>
<text text-anchor="middle" x="3973" y="-132.8" font-family="Times,serif" font-size="14.00" fill="#5b00c0">rw</text>
</g>
<!-- T17907&#45;&gt;T17911 -->
<g id="edge5" class="edge">
<title>T17907:f2&#45;&gt;T17911:f1</title>
<path fill="none" stroke="#c02700" d="M2937.5,-258C2978.5116,-258 3104.5304,-239.7173 3123.9705,-202.0067"/>
<polygon fill="#c02700" stroke="#c02700" points="3127.4425,-202.5528 3126.5,-192 3120.6559,-200.8373 3127.4425,-202.5528"/>
<text text-anchor="middle" x="3125.5" y="-213.8" font-family="Times,serif" font-size="14.00" fill="#c02700">ww</text>
</g>
<!-- T17913 -->
<g id="node4" class="node">
<title>T17913</title>
<polygon fill="none" stroke="#0058ad" points="2428,-.5 2428,-29.5 3615,-29.5 3615,-.5 2428,-.5"/>
<text text-anchor="middle" x="2588.5" y="-11.3" font-family="Times,serif" font-size="14.00" fill="#0058ad">r 92 [1 2 3 5 6 4 8 9 10 11 12 13 14 15 16 17 18 20 19]</text>
<polyline fill="none" stroke="#0058ad" points="2749,-.5 2749,-29.5 "/>
<text text-anchor="middle" x="3182" y="-11.3" font-family="Times,serif" font-size="14.00" fill="#0058ad">r 91 [1 2 4 6 7 5 8 9 10 11 3 13 12 14 15 16 17 18 20 21 22 23 26 27 24 25 28 29 30 31 35 36 37 39 38 40 42 44 45 46 43 47 48 49 50 51 52 53 55 56 57]</text>
</g>
<!-- T17907&#45;&gt;T17913 -->
<g id="edge3" class="edge">
<title>T17907:f2&#45;&gt;T17913:f1</title>
<path fill="none" stroke="#c000a5" d="M2937.5,-258C3016.1966,-258 4298.1649,-248.9285 4352.5,-192 4466.5791,-72.4759 3809.7277,-17.1248 3625.6752,-15.0601"/>
<polygon fill="#c000a5" stroke="#c000a5" points="3625.5205,-11.5592 3615.5,-15 3625.4791,-18.5591 3625.5205,-11.5592"/>
<text text-anchor="middle" x="4363" y="-132.8" font-family="Times,serif" font-size="14.00" fill="#c000a5">wr</text>
</g>
<!-- T17907&#45;&gt;T17909 -->
<g id="edge4" class="edge">
<title>T17907:f1&#45;&gt;T17909:f2</title>
<path fill="none" stroke="#5b00c0" d="M2728.5,-243C2728.5,-126.89 2286.4924,-278.0158 2208.5,-192 2199.5439,-182.1225 2199.7213,-172.0356 2208.5,-162 2262.1863,-100.627 2561.159,-188.0513 2586.7529,-120.9939"/>
<polygon fill="#5b00c0" stroke="#5b00c0" points="2590.2255,-121.4534 2588.5,-111 2583.3301,-120.2478 2590.2255,-121.4534"/>
<text text-anchor="middle" x="2216" y="-173.3" font-family="Times,serif" font-size="14.00" fill="#5b00c0">rw</text>
</g>
<!-- T17913&#45;&gt;T17911 -->
<g id="edge6" class="edge">
<title>T17913:f1&#45;&gt;T17911:f1</title>
<path fill="none" stroke="#5b00c0" d="M3182.5,-30C3182.5,-90.1182 3132.6641,-97.5675 3127.0186,-151.7194"/>
<polygon fill="#5b00c0" stroke="#5b00c0" points="3123.5084,-151.8363 3126.5,-162 3130.4995,-152.1891 3123.5084,-151.8363"/>
<text text-anchor="middle" x="3172" y="-92.3" font-family="Times,serif" font-size="14.00" fill="#5b00c0">rw</text>
</g>
<!-- T17909&#45;&gt;T17905 -->
<g id="edge8" class="edge">
<title>T17909:f1&#45;&gt;T17905:f0</title>
<path fill="none" stroke="#5b00c0" d="M2152.5,-111C2152.5,-202.5032 2167.3646,-227.3011 2168.4388,-313.9838"/>
<polygon fill="#5b00c0" stroke="#5b00c0" points="2164.9389,-314.0216 2168.5,-324 2171.9388,-313.9788 2164.9389,-314.0216"/>
<text text-anchor="middle" x="2168" y="-213.8" font-family="Times,serif" font-size="14.00" fill="#5b00c0">rw</text>
</g>
<!-- T17909&#45;&gt;T17913 -->
<g id="edge7" class="edge">
<title>T17909:f2&#45;&gt;T17913:f0</title>
<path fill="none" stroke="#c000a5" d="M2588.5,-81C2588.5,-62.2292 2588.5,-55.1168 2588.5,-40.3535"/>
<polygon fill="#c000a5" stroke="#c000a5" points="2592.0001,-40 2588.5,-30 2585.0001,-40 2592.0001,-40"/>
<text text-anchor="middle" x="2596" y="-51.8" font-family="Times,serif" font-size="14.00" fill="#c000a5">wr</text>
</g>
</g>
</svg>
