<?xml version="1.0" encoding="UTF-8" standalone="no"?>
<!DOCTYPE svg PUBLIC "-//W3C//DTD SVG 1.1//EN"
 "http://www.w3.org/Graphics/SVG/1.1/DTD/svg11.dtd">
<!-- Generated by graphviz version 2.40.1 (20161225.0304)
 -->
<!-- Title: a_graph Pages: 1 -->
<svg width="1081pt" height="119pt"
 viewBox="0.00 0.00 1081.00 119.00" xmlns="http://www.w3.org/2000/svg" xmlns:xlink="http://www.w3.org/1999/xlink">
<g id="graph0" class="graph" transform="scale(1 1) rotate(0) translate(4 115)">
<title>a_graph</title>
<polygon fill="#ffffff" stroke="transparent" points="-4,4 -4,-115 1077,-115 1077,4 -4,4"/>
<!-- T13473 -->
<g id="node1" class="node">
<title>T13473</title>
<polygon fill="none" stroke="#0058ad" points="431,-81.5 431,-110.5 666,-110.5 666,-81.5 431,-81.5"/>
<text text-anchor="middle" x="463" y="-92.3" font-family="Times,serif" font-size="14.00" fill="#0058ad">a 67 113</text>
<polyline fill="none" stroke="#0058ad" points="495,-81.5 495,-110.5 "/>
<text text-anchor="middle" x="523.5" y="-92.3" font-family="Times,serif" font-size="14.00" fill="#0058ad">a 71 73</text>
<polyline fill="none" stroke="#0058ad" points="552,-81.5 552,-110.5 "/>
<text text-anchor="middle" x="580.5" y="-92.3" font-family="Times,serif" font-size="14.00" fill="#0058ad">a 66 44</text>
<polyline fill="none" stroke="#0058ad" points="609,-81.5 609,-110.5 "/>
<text text-anchor="middle" x="637.5" y="-92.3" font-family="Times,serif" font-size="14.00" fill="#0058ad">a 66 45</text>
</g>
<!-- T13481 -->
<g id="node2" class="node">
<title>T13481</title>
<polygon fill="none" stroke="#0058ad" points="0,-.5 0,-29.5 1073,-29.5 1073,-.5 0,-.5"/>
<text text-anchor="middle" x="536.5" y="-11.3" font-family="Times,serif" font-size="14.00" fill="#0058ad">r 71 [1 2 3 5 4 6 7 10 11 8 9 12 13 14 15 16 17 18 19 20 21 22 23 24 25 26 27 28 29 30 31 32 33 34 35 36 37 38 39 40 41 42 45 47 48 49 52 53 54 55 56 57 58 62 61 63 64 65 66 68 70 71 72]</text>
</g>
<!-- T13473&#45;&gt;T13481 -->
<g id="edge1" class="edge">
<title>T13473&#45;&gt;T13481</title>
<path fill="none" stroke="#0050c0" d="M546.299,-81.1434C544.5905,-69.6112 542.184,-53.3668 540.1834,-39.8626"/>
<polygon fill="#0050c0" stroke="#0050c0" points="543.6148,-39.1415 538.687,-29.7625 536.6904,-40.1674 543.6148,-39.1415"/>
<text text-anchor="middle" x="548" y="-51.8" font-family="Times,serif" font-size="14.00" fill="#0050c0">rt</text>
</g>
<!-- T13481&#45;&gt;T13473 -->
<g id="edge2" class="edge">
<title>T13481:f0&#45;&gt;T13473:f1</title>
<path fill="none" stroke="#5b00c0" d="M528.7698,-29.7049C526.2444,-35.277 523.765,-41.7794 522.5,-48 520.3984,-58.335 521.8344,-63.281 522.8085,-70.6939"/>
<polygon fill="#5b00c0" stroke="#5b00c0" points="519.3383,-71.2568 523.5,-81 526.3226,-70.7881 519.3383,-71.2568"/>
<text text-anchor="middle" x="530" y="-51.8" font-family="Times,serif" font-size="14.00" fill="#5b00c0">rw</text>
</g>
</g>
</svg>
