<?xml version="1.0" encoding="UTF-8" standalone="no"?>
<!DOCTYPE svg PUBLIC "-//W3C//DTD SVG 1.1//EN"
 "http://www.w3.org/Graphics/SVG/1.1/DTD/svg11.dtd">
<!-- Generated by graphviz version 2.40.1 (20161225.0304)
 -->
<!-- Title: a_graph Pages: 1 -->
<svg width="1641pt" height="119pt"
 viewBox="0.00 0.00 1640.50 119.00" xmlns="http://www.w3.org/2000/svg" xmlns:xlink="http://www.w3.org/1999/xlink">
<g id="graph0" class="graph" transform="scale(1 1) rotate(0) translate(4 115)">
<title>a_graph</title>
<polygon fill="#ffffff" stroke="transparent" points="-4,4 -4,-115 1636.5,-115 1636.5,4 -4,4"/>
<!-- T22321 -->
<g id="node1" class="node">
<title>T22321</title>
<polygon fill="none" stroke="#0058ad" points="345.5,-81.5 345.5,-110.5 1632.5,-110.5 1632.5,-81.5 345.5,-81.5"/>
<text text-anchor="middle" x="989" y="-92.3" font-family="Times,serif" font-size="14.00" fill="#0058ad">r 111 [1 3 2 4 5 6 7 10 9 12 11 13 14 8 15 16 17 18 20 21 19 22 23 25 24 27 28 26 29 30 31 32 33 34 35 37 36 38 39 40 42 43 41 44 45 46 47 48 49 50 51 52 53 54 55 56 57 58 61 62 63 59 60 65 66 64 68 69 70 72 73 67 74 75 77]</text>
</g>
<!-- T22311 -->
<g id="node2" class="node">
<title>T22311</title>
<polygon fill="none" stroke="#0058ad" points="0,-.5 0,-29.5 1340,-29.5 1340,-.5 0,-.5"/>
<text text-anchor="middle" x="37.5" y="-11.3" font-family="Times,serif" font-size="14.00" fill="#0058ad">r 113 [1 2]</text>
<polyline fill="none" stroke="#0058ad" points="75,-.5 75,-29.5 "/>
<text text-anchor="middle" x="675.5" y="-11.3" font-family="Times,serif" font-size="14.00" fill="#0058ad">r 112 [1 2 3 4 7 5 6 11 12 8 9 10 13 14 15 16 17 18 19 20 21 22 24 23 27 28 29 30 25 26 31 32 33 35 36 37 38 39 40 41 34 42 44 45 46 47 48 52 53 49 50 51 55 56 57 58 43 59 61 62 63 64 67 60 65 66 70 72 73 74]</text>
<polyline fill="none" stroke="#0058ad" points="1276,-.5 1276,-29.5 "/>
<text text-anchor="middle" x="1308" y="-11.3" font-family="Times,serif" font-size="14.00" fill="#0058ad">a 111 79</text>
</g>
<!-- T22321&#45;&gt;T22311 -->
<g id="edge1" class="edge">
<title>T22321:f0&#45;&gt;T22311:f2</title>
<path fill="none" stroke="#5b00c0" d="M1214.0148,-81.4752C1259.7904,-73.1335 1296.8521,-60.1132 1305.8892,-39.8363"/>
<polygon fill="#5b00c0" stroke="#5b00c0" points="1309.3239,-40.5118 1308,-30 1302.4797,-39.043 1309.3239,-40.5118"/>
<text text-anchor="middle" x="1306.5" y="-51.8" font-family="Times,serif" font-size="14.00" fill="#5b00c0">rw</text>
</g>
<!-- T22311&#45;&gt;T22321 -->
<g id="edge2" class="edge">
<title>T22311&#45;&gt;T22321</title>
<path fill="none" stroke="#0050c0" d="M727.2066,-29.5258C781.8278,-43.3951 864.1352,-64.2945 921.8426,-78.9475"/>
<polygon fill="#0050c0" stroke="#0050c0" points="921.0469,-82.3565 931.6008,-81.4253 922.7697,-75.5718 921.0469,-82.3565"/>
<text text-anchor="middle" x="862.5" y="-51.8" font-family="Times,serif" font-size="14.00" fill="#0050c0">rt</text>
</g>
</g>
</svg>
