<?xml version="1.0" encoding="UTF-8" standalone="no"?>
<!DOCTYPE svg PUBLIC "-//W3C//DTD SVG 1.1//EN"
 "http://www.w3.org/Graphics/SVG/1.1/DTD/svg11.dtd">
<!-- Generated by graphviz version 2.40.1 (20161225.0304)
 -->
<!-- Title: a_graph Pages: 1 -->
<svg width="412pt" height="200pt"
 viewBox="0.00 0.00 412.00 200.00" xmlns="http://www.w3.org/2000/svg" xmlns:xlink="http://www.w3.org/1999/xlink">
<g id="graph0" class="graph" transform="scale(1 1) rotate(0) translate(4 196)">
<title>a_graph</title>
<polygon fill="#ffffff" stroke="transparent" points="-4,4 -4,-196 408,-196 408,4 -4,4"/>
<!-- T26217 -->
<g id="node1" class="node">
<title>T26217</title>
<polygon fill="none" stroke="#0058ad" points="0,-162.5 0,-191.5 404,-191.5 404,-162.5 0,-162.5"/>
<text text-anchor="middle" x="141.5" y="-173.3" font-family="Times,serif" font-size="14.00" fill="#0058ad">r 128 [1 2 4 5 7 8 9 10 11 12 13 19 20 21 22 23]</text>
<polyline fill="none" stroke="#0058ad" points="283,-162.5 283,-191.5 "/>
<text text-anchor="middle" x="311.5" y="-173.3" font-family="Times,serif" font-size="14.00" fill="#0058ad">a 133 9</text>
<polyline fill="none" stroke="#0058ad" points="340,-162.5 340,-191.5 "/>
<text text-anchor="middle" x="372" y="-173.3" font-family="Times,serif" font-size="14.00" fill="#0058ad">a 133 10</text>
</g>
<!-- T26221 -->
<g id="node3" class="node">
<title>T26221</title>
<polygon fill="none" stroke="#0058ad" points="9.5,-81.5 9.5,-110.5 292.5,-110.5 292.5,-81.5 9.5,-81.5"/>
<text text-anchor="middle" x="151" y="-92.3" font-family="Times,serif" font-size="14.00" fill="#0058ad">r 128 [1 2 4 5 7 8 9 10 11 12 13 19 20 21 22 23]</text>
</g>
<!-- T26217&#45;&gt;T26221 -->
<g id="edge1" class="edge">
<title>T26217&#45;&gt;T26221</title>
<path fill="none" stroke="#0050c0" d="M192.6458,-162.1434C185.0973,-150.1545 174.3421,-133.0727 165.6524,-119.2715"/>
<polygon fill="#0050c0" stroke="#0050c0" points="168.5849,-117.3599 160.2949,-110.7625 162.6612,-121.0897 168.5849,-117.3599"/>
<text text-anchor="middle" x="186.5" y="-132.8" font-family="Times,serif" font-size="14.00" fill="#0050c0">rt</text>
</g>
<!-- T26225 -->
<g id="node2" class="node">
<title>T26225</title>
<polygon fill="none" stroke="#0058ad" points="171,-.5 171,-29.5 309,-29.5 309,-.5 171,-.5"/>
<text text-anchor="middle" x="240" y="-11.3" font-family="Times,serif" font-size="14.00" fill="#0058ad">r 133 [1 2 3 4 5 6 7 8]</text>
</g>
<!-- T26225&#45;&gt;T26217 -->
<g id="edge2" class="edge">
<title>T26225:f0&#45;&gt;T26217:f1</title>
<path fill="none" stroke="#5b00c0" d="M259.1062,-29.5743C273.4592,-41.6741 292.2547,-60.2187 302,-81 315.8367,-110.5061 312.8825,-123.0964 312.1397,-151.6552"/>
<polygon fill="#5b00c0" stroke="#5b00c0" points="308.6354,-151.9536 312,-162 315.6348,-152.0482 308.6354,-151.9536"/>
<text text-anchor="middle" x="318.5" y="-92.3" font-family="Times,serif" font-size="14.00" fill="#5b00c0">rw</text>
</g>
<!-- T26221&#45;&gt;T26225 -->
<g id="edge3" class="edge">
<title>T26221&#45;&gt;T26225</title>
<path fill="none" stroke="#0050c0" d="M167.324,-81.1434C180.9988,-68.6978 200.704,-50.7638 216.1469,-36.709"/>
<polygon fill="#0050c0" stroke="#0050c0" points="218.7397,-39.0818 223.7795,-29.7625 214.028,-33.9049 218.7397,-39.0818"/>
<text text-anchor="middle" x="208.5" y="-51.8" font-family="Times,serif" font-size="14.00" fill="#0050c0">rt</text>
</g>
</g>
</svg>
