<?xml version="1.0" encoding="UTF-8" standalone="no"?>
<!DOCTYPE svg PUBLIC "-//W3C//DTD SVG 1.1//EN"
 "http://www.w3.org/Graphics/SVG/1.1/DTD/svg11.dtd">
<!-- Generated by graphviz version 2.40.1 (20161225.0304)
 -->
<!-- Title: a_graph Pages: 1 -->
<svg width="2909pt" height="119pt"
 viewBox="0.00 0.00 2909.00 119.00" xmlns="http://www.w3.org/2000/svg" xmlns:xlink="http://www.w3.org/1999/xlink">
<g id="graph0" class="graph" transform="scale(1 1) rotate(0) translate(4 115)">
<title>a_graph</title>
<polygon fill="#ffffff" stroke="transparent" points="-4,4 -4,-115 2905,-115 2905,4 -4,4"/>
<!-- T38731 -->
<g id="node1" class="node">
<title>T38731</title>
<polygon fill="none" stroke="#0058ad" points="358,-81.5 358,-110.5 2901,-110.5 2901,-81.5 358,-81.5"/>
<text text-anchor="middle" x="393.5" y="-92.3" font-family="Times,serif" font-size="14.00" fill="#0058ad">a 185 118</text>
<polyline fill="none" stroke="#0058ad" points="429,-81.5 429,-110.5 "/>
<text text-anchor="middle" x="584.5" y="-92.3" font-family="Times,serif" font-size="14.00" fill="#0058ad">r 191 [1 2 3 4 5 7 8 9 10 11 12 14 15 16 17 18 19 20]</text>
<polyline fill="none" stroke="#0058ad" points="740,-81.5 740,-110.5 "/>
<text text-anchor="middle" x="895.5" y="-92.3" font-family="Times,serif" font-size="14.00" fill="#0058ad">r 191 [1 2 3 4 5 7 8 9 10 11 12 14 15 16 17 18 19 20]</text>
<polyline fill="none" stroke="#0058ad" points="1051,-81.5 1051,-110.5 "/>
<text text-anchor="middle" x="1976" y="-92.3" font-family="Times,serif" font-size="14.00" fill="#0058ad">r 166 [1 2 3 5 6 7 8 9 14 16 17 18 20 21 22 23 24 25 26 27 29 30 31 32 34 35 36 37 38 39 40 41 42 43 44 45 46 47 48 49 50 51 52 53 54 55 57 58 59 60 61 62 63 65 67 68 69 70 71 72 73 74 75 76 77 78 79 80 81 82 83 84 85 86 87 88 89 90 92 93 94 95 96 97 99 100 101 102 103 104 105 106 108 111 112 113 114 115 116 117 119]</text>
</g>
<!-- T38735 -->
<g id="node2" class="node">
<title>T38735</title>
<polygon fill="none" stroke="#0058ad" points="0,-.5 0,-29.5 2023,-29.5 2023,-.5 0,-.5"/>
<text text-anchor="middle" x="1011.5" y="-11.3" font-family="Times,serif" font-size="14.00" fill="#0058ad">r 185 [1 2 3 4 5 6 7 8 9 12 13 14 15 16 17 18 19 20 21 22 23 24 25 26 27 28 29 30 31 32 33 34 35 36 37 38 39 40 41 42 44 45 46 47 49 50 51 52 53 54 55 57 58 59 60 61 62 63 64 65 66 67 68 69 70 71 72 73 74 75 76 77 78 79 80 81 82 83 84 85 86 87 88 89 90 91 92 93 94 95 96 97 98 99 100 101 102 103 104 105 106 107 108 109 110 111 112 114 115 116 117]</text>
</g>
<!-- T38731&#45;&gt;T38735 -->
<g id="edge1" class="edge">
<title>T38731&#45;&gt;T38735</title>
<path fill="none" stroke="#0050c0" d="M1518.6573,-81.4721C1409.8348,-67.2089 1244.2973,-45.5123 1132.199,-30.8198"/>
<polygon fill="#0050c0" stroke="#0050c0" points="1132.5683,-27.3383 1122.1983,-29.509 1131.6586,-34.279 1132.5683,-27.3383"/>
<text text-anchor="middle" x="1380" y="-51.8" font-family="Times,serif" font-size="14.00" fill="#0050c0">rt</text>
</g>
<!-- T38735&#45;&gt;T38731 -->
<g id="edge2" class="edge">
<title>T38735:f0&#45;&gt;T38731:f0</title>
<path fill="none" stroke="#5b00c0" d="M592.0149,-29.5094C495.7498,-37.8678 415.9607,-51.0138 397.5175,-71.6764"/>
<polygon fill="#5b00c0" stroke="#5b00c0" points="394.243,-70.4312 393.5,-81 400.6716,-73.2014 394.243,-70.4312"/>
<text text-anchor="middle" x="454" y="-51.8" font-family="Times,serif" font-size="14.00" fill="#5b00c0">rw</text>
</g>
</g>
</svg>
