<?xml version="1.0" encoding="UTF-8" standalone="no"?>
<!DOCTYPE svg PUBLIC "-//W3C//DTD SVG 1.1//EN"
 "http://www.w3.org/Graphics/SVG/1.1/DTD/svg11.dtd">
<!-- Generated by graphviz version 2.40.1 (20161225.0304)
 -->
<!-- Title: a_graph Pages: 1 -->
<svg width="1903pt" height="119pt"
 viewBox="0.00 0.00 1903.00 119.00" xmlns="http://www.w3.org/2000/svg" xmlns:xlink="http://www.w3.org/1999/xlink">
<g id="graph0" class="graph" transform="scale(1 1) rotate(0) translate(4 115)">
<title>a_graph</title>
<polygon fill="#ffffff" stroke="transparent" points="-4,4 -4,-115 1899,-115 1899,4 -4,4"/>
<!-- T9369 -->
<g id="node1" class="node">
<title>T9369</title>
<polygon fill="none" stroke="#0058ad" points="877.5,-81.5 877.5,-110.5 991.5,-110.5 991.5,-81.5 877.5,-81.5"/>
<text text-anchor="middle" x="902.5" y="-92.3" font-family="Times,serif" font-size="14.00" fill="#0058ad">a 50 2</text>
<polyline fill="none" stroke="#0058ad" points="927.5,-81.5 927.5,-110.5 "/>
<text text-anchor="middle" x="959.5" y="-92.3" font-family="Times,serif" font-size="14.00" fill="#0058ad">a 49 116</text>
</g>
<!-- T9375 -->
<g id="node2" class="node">
<title>T9375</title>
<polygon fill="none" stroke="#0058ad" points="0,-.5 0,-29.5 1895,-29.5 1895,-.5 0,-.5"/>
<text text-anchor="middle" x="947.5" y="-11.3" font-family="Times,serif" font-size="14.00" fill="#0058ad">r 49 [1 4 5 7 6 9 10 11 12 13 14 15 16 17 18 19 20 21 22 23 24 25 26 30 27 28 29 32 33 34 35 31 36 37 38 39 40 41 42 43 44 46 48 47 45 49 50 52 53 56 57 58 59 60 61 62 63 67 68 69 70 71 72 74 73 75 76 77 78 79 81 82 80 83 84 85 86 87 88 89 90 91 92 93 94 95 96 97 98 99 100 101 102 103 104 105 106 107 108 109 111 110 112 115]</text>
</g>
<!-- T9369&#45;&gt;T9375 -->
<g id="edge1" class="edge">
<title>T9369&#45;&gt;T9375</title>
<path fill="none" stroke="#0050c0" d="M931.9582,-81.1285C930.7929,-71.5624 930.134,-58.923 932.5,-48 933.1582,-44.9612 934.1211,-41.8662 935.2465,-38.8499"/>
<polygon fill="#0050c0" stroke="#0050c0" points="938.4691,-40.2154 939.2216,-29.6473 932.043,-37.4396 938.4691,-40.2154"/>
<text text-anchor="middle" x="937" y="-51.8" font-family="Times,serif" font-size="14.00" fill="#0050c0">rt</text>
</g>
<!-- T9375&#45;&gt;T9369 -->
<g id="edge2" class="edge">
<title>T9375:f0&#45;&gt;T9369:f1</title>
<path fill="none" stroke="#5b00c0" d="M951.697,-29.5419C954.5086,-40.3336 957.9026,-55.7192 959.0764,-70.7294"/>
<polygon fill="#5b00c0" stroke="#5b00c0" points="955.5908,-71.1527 959.5,-81 962.5849,-70.8642 955.5908,-71.1527"/>
<text text-anchor="middle" x="965" y="-51.8" font-family="Times,serif" font-size="14.00" fill="#5b00c0">rw</text>
</g>
</g>
</svg>
