<?xml version="1.0" encoding="UTF-8" standalone="no"?>
<!DOCTYPE svg PUBLIC "-//W3C//DTD SVG 1.1//EN"
 "http://www.w3.org/Graphics/SVG/1.1/DTD/svg11.dtd">
<!-- Generated by graphviz version 2.40.1 (20161225.0304)
 -->
<!-- Title: a_graph Pages: 1 -->
<svg width="3614pt" height="119pt"
 viewBox="0.00 0.00 3613.50 119.00" xmlns="http://www.w3.org/2000/svg" xmlns:xlink="http://www.w3.org/1999/xlink">
<g id="graph0" class="graph" transform="scale(1 1) rotate(0) translate(4 115)">
<title>a_graph</title>
<polygon fill="#ffffff" stroke="transparent" points="-4,4 -4,-115 3609.5,-115 3609.5,4 -4,4"/>
<!-- T7563 -->
<g id="node1" class="node">
<title>T7563</title>
<polygon fill="none" stroke="#0058ad" points="2278.5,-81.5 2278.5,-110.5 3605.5,-110.5 3605.5,-81.5 2278.5,-81.5"/>
<text text-anchor="middle" x="2307" y="-92.3" font-family="Times,serif" font-size="14.00" fill="#0058ad">a 42 55</text>
<polyline fill="none" stroke="#0058ad" points="2335.5,-81.5 2335.5,-110.5 "/>
<text text-anchor="middle" x="2910" y="-92.3" font-family="Times,serif" font-size="14.00" fill="#0058ad">r 38 [2 3 4 5 6 7 8 9 10 11 12 13 14 15 16 17 18 19 20 21 22 23 24 26 27 28 29 30 31 32 33 34 35 36 37 38 39 40 41 42 44 45 46 49 50 51 52 53 54 55 56 57 58 59 60 61 62 63 64 65 66 67 68 69 71 72 73]</text>
<polyline fill="none" stroke="#0058ad" points="3484.5,-81.5 3484.5,-110.5 "/>
<text text-anchor="middle" x="3513" y="-92.3" font-family="Times,serif" font-size="14.00" fill="#0058ad">a 42 56</text>
<polyline fill="none" stroke="#0058ad" points="3541.5,-81.5 3541.5,-110.5 "/>
<text text-anchor="middle" x="3573.5" y="-92.3" font-family="Times,serif" font-size="14.00" fill="#0058ad">a 40 106</text>
</g>
<!-- T7567 -->
<g id="node2" class="node">
<title>T7567</title>
<polygon fill="none" stroke="#0058ad" points="0,-.5 0,-29.5 3560,-29.5 3560,-.5 0,-.5"/>
<text text-anchor="middle" x="442" y="-11.3" font-family="Times,serif" font-size="14.00" fill="#0058ad">r 42 [1 2 4 5 6 3 7 8 9 10 11 12 13 14 15 16 18 19 17 21 22 20 23 25 26 24 27 29 30 31 32 33 35 28 37 38 40 41 36 42 43 44 45 46 39 49 50 51 52 47 48 53]</text>
<polyline fill="none" stroke="#0058ad" points="884,-.5 884,-29.5 "/>
<text text-anchor="middle" x="1751.5" y="-11.3" font-family="Times,serif" font-size="14.00" fill="#0058ad">r 40 [2 3 4 5 7 8 9 10 11 12 13 14 15 16 17 18 19 20 21 22 23 24 25 26 27 28 29 30 31 32 33 34 35 36 37 38 39 40 41 42 43 44 45 46 47 48 49 50 51 52 53 54 55 56 57 58 59 60 61 62 63 64 65 66 67 68 69 70 71 72 73 74 75 76 78 77 79 80 83 84 85 86 87 89 88 90 91 92 93 94 95 96 97 99 98 100 103 104 105]</text>
<polyline fill="none" stroke="#0058ad" points="2619,-.5 2619,-29.5 "/>
<text text-anchor="middle" x="3061" y="-11.3" font-family="Times,serif" font-size="14.00" fill="#0058ad">r 42 [1 2 4 5 6 3 7 8 9 10 11 12 13 14 15 16 18 19 17 21 22 20 23 25 26 24 27 29 30 31 32 33 35 28 37 38 40 41 36 42 43 44 45 46 39 49 50 51 52 47 48 53]</text>
<polyline fill="none" stroke="#0058ad" points="3503,-.5 3503,-29.5 "/>
<text text-anchor="middle" x="3531.5" y="-11.3" font-family="Times,serif" font-size="14.00" fill="#0058ad">a 38 74</text>
</g>
<!-- T7563&#45;&gt;T7567 -->
<g id="edge1" class="edge">
<title>T7563:f1&#45;&gt;T7567:f3</title>
<path fill="none" stroke="#5b00c0" d="M2910,-81C2910,54.0293 3499.6317,-157.0023 3530.7255,-40.2223"/>
<polygon fill="#5b00c0" stroke="#5b00c0" points="3534.2358,-40.3562 3532,-30 3527.2896,-39.4901 3534.2358,-40.3562"/>
<text text-anchor="middle" x="3532.5" y="-51.8" font-family="Times,serif" font-size="14.00" fill="#5b00c0">rw</text>
</g>
<!-- T7567&#45;&gt;T7563 -->
<g id="edge2" class="edge">
<title>T7567:f0&#45;&gt;T7563:f0</title>
<path fill="none" stroke="#5b00c0" d="M442,-30C442,-79.3883 2113.7741,-94.9979 2267.7816,-95.9527"/>
<polygon fill="#5b00c0" stroke="#5b00c0" points="2267.9839,-99.4535 2278,-96 2268.0164,-92.4536 2267.9839,-99.4535"/>
<text text-anchor="middle" x="749.5" y="-51.8" font-family="Times,serif" font-size="14.00" fill="#5b00c0">rw</text>
</g>
</g>
</svg>
