<?xml version="1.0" encoding="UTF-8" standalone="no"?>
<!DOCTYPE svg PUBLIC "-//W3C//DTD SVG 1.1//EN"
 "http://www.w3.org/Graphics/SVG/1.1/DTD/svg11.dtd">
<!-- Generated by graphviz version 2.40.1 (20161225.0304)
 -->
<!-- Title: a_graph Pages: 1 -->
<svg width="1040pt" height="119pt"
 viewBox="0.00 0.00 1040.00 119.00" xmlns="http://www.w3.org/2000/svg" xmlns:xlink="http://www.w3.org/1999/xlink">
<g id="graph0" class="graph" transform="scale(1 1) rotate(0) translate(4 115)">
<title>a_graph</title>
<polygon fill="#ffffff" stroke="transparent" points="-4,4 -4,-115 1036,-115 1036,4 -4,4"/>
<!-- T7029 -->
<g id="node1" class="node">
<title>T7029</title>
<polygon fill="none" stroke="#0058ad" points="0,-81.5 0,-110.5 1032,-110.5 1032,-81.5 0,-81.5"/>
<text text-anchor="middle" x="122.5" y="-92.3" font-family="Times,serif" font-size="14.00" fill="#0058ad">r 41 [1 2 3 4 5 6 7 8 9 10 11 12 13 16 17]</text>
<polyline fill="none" stroke="#0058ad" points="245,-81.5 245,-110.5 "/>
<text text-anchor="middle" x="273.5" y="-92.3" font-family="Times,serif" font-size="14.00" fill="#0058ad">a 41 14</text>
<polyline fill="none" stroke="#0058ad" points="302,-81.5 302,-110.5 "/>
<text text-anchor="middle" x="638.5" y="-92.3" font-family="Times,serif" font-size="14.00" fill="#0058ad">r 40 [2 3 4 5 7 8 9 10 11 12 13 14 15 16 17 18 19 20 21 22 23 24 25 26 27 28 29 30 31 32 33 34 35 36 37 38 39 40 41]</text>
<polyline fill="none" stroke="#0058ad" points="975,-81.5 975,-110.5 "/>
<text text-anchor="middle" x="1003.5" y="-92.3" font-family="Times,serif" font-size="14.00" fill="#0058ad">a 41 15</text>
</g>
<!-- T7031 -->
<g id="node2" class="node">
<title>T7031</title>
<polygon fill="none" stroke="#0058ad" points="284.5,-.5 284.5,-29.5 873.5,-29.5 873.5,-.5 284.5,-.5"/>
<text text-anchor="middle" x="407" y="-11.3" font-family="Times,serif" font-size="14.00" fill="#0058ad">r 41 [1 2 3 4 5 6 7 8 9 10 11 12 13 16 17]</text>
<polyline fill="none" stroke="#0058ad" points="529.5,-.5 529.5,-29.5 "/>
<text text-anchor="middle" x="558" y="-11.3" font-family="Times,serif" font-size="14.00" fill="#0058ad">a 40 42</text>
<polyline fill="none" stroke="#0058ad" points="586.5,-.5 586.5,-29.5 "/>
<text text-anchor="middle" x="730" y="-11.3" font-family="Times,serif" font-size="14.00" fill="#0058ad">r 37 [1 2 4 5 6 7 9 10 8 11 12 13 14 15 16 17 18]</text>
</g>
<!-- T7029&#45;&gt;T7031 -->
<g id="edge1" class="edge">
<title>T7029:f2&#45;&gt;T7031:f1</title>
<path fill="none" stroke="#5b00c0" d="M639,-81C639,-42.4468 572.4756,-66.8244 560.0023,-40.0707"/>
<polygon fill="#5b00c0" stroke="#5b00c0" points="563.3829,-39.1255 558,-30 556.5173,-40.4906 563.3829,-39.1255"/>
<text text-anchor="middle" x="635.5" y="-51.8" font-family="Times,serif" font-size="14.00" fill="#5b00c0">rw</text>
</g>
<!-- T7031&#45;&gt;T7029 -->
<g id="edge2" class="edge">
<title>T7031:f0&#45;&gt;T7029:f1</title>
<path fill="none" stroke="#5b00c0" d="M284,-15C257.6308,-15 269.3768,-43.5118 272.3763,-70.7048"/>
<polygon fill="#5b00c0" stroke="#5b00c0" points="268.9016,-71.23 273,-81 275.8888,-70.8066 268.9016,-71.23"/>
<text text-anchor="middle" x="279.5" y="-51.8" font-family="Times,serif" font-size="14.00" fill="#5b00c0">rw</text>
</g>
</g>
</svg>
