<?xml version="1.0" encoding="UTF-8" standalone="no"?>
<!DOCTYPE svg PUBLIC "-//W3C//DTD SVG 1.1//EN"
 "http://www.w3.org/Graphics/SVG/1.1/DTD/svg11.dtd">
<!-- Generated by graphviz version 2.40.1 (20161225.0304)
 -->
<!-- Title: a_graph Pages: 1 -->
<svg width="3347pt" height="200pt"
 viewBox="0.00 0.00 3346.50 200.00" xmlns="http://www.w3.org/2000/svg" xmlns:xlink="http://www.w3.org/1999/xlink">
<g id="graph0" class="graph" transform="scale(1 1) rotate(0) translate(4 196)">
<title>a_graph</title>
<polygon fill="#ffffff" stroke="transparent" points="-4,4 -4,-196 3342.5,-196 3342.5,4 -4,4"/>
<!-- T28471 -->
<g id="node1" class="node">
<title>T28471</title>
<polygon fill="none" stroke="#0058ad" points="21,-162.5 21,-191.5 994,-191.5 994,-162.5 21,-162.5"/>
<text text-anchor="middle" x="507.5" y="-173.3" font-family="Times,serif" font-size="14.00" fill="#0058ad">r 143 [3 4 5 6 7 8 11 12 9 10 13 14 15 16 17 18 19 21 22 23 24 25 26 20 30 27 31 32 33 34 35 28 29 39 36 37 40 43 41 44 45 48 46 47 49 50 51 52 53 54 55 56 57 58 59 60]</text>
</g>
<!-- T28473 -->
<g id="node2" class="node">
<title>T28473</title>
<polygon fill="none" stroke="#0058ad" points="518.5,-81.5 518.5,-110.5 3338.5,-110.5 3338.5,-81.5 518.5,-81.5"/>
<text text-anchor="middle" x="550.5" y="-92.3" font-family="Times,serif" font-size="14.00" fill="#0058ad">a 143 62</text>
<polyline fill="none" stroke="#0058ad" points="582.5,-81.5 582.5,-110.5 "/>
<text text-anchor="middle" x="1077.5" y="-92.3" font-family="Times,serif" font-size="14.00" fill="#0058ad">r 143 [3 4 5 6 7 8 11 12 9 10 13 14 15 16 17 18 19 21 22 23 24 25 26 20 30 27 31 32 33 34 35 28 29 39 36 37 40 43 41 44 45 48 46 47 49 50 51 52 53 54 55 56 57 58 59 60 62]</text>
<polyline fill="none" stroke="#0058ad" points="1572.5,-81.5 1572.5,-110.5 "/>
<text text-anchor="middle" x="1960.5" y="-92.3" font-family="Times,serif" font-size="14.00" fill="#0058ad">r 142 [1 2 3 4 5 7 8 9 11 12 13 14 15 16 17 18 19 21 20 22 23 25 26 29 27 28 30 24 31 32 34 33 37 38 36 39 41 40 42 43 45 46 47 44 48]</text>
<polyline fill="none" stroke="#0058ad" points="2348.5,-81.5 2348.5,-110.5 "/>
<text text-anchor="middle" x="2843.5" y="-92.3" font-family="Times,serif" font-size="14.00" fill="#0058ad">r 143 [3 4 5 6 7 8 11 12 9 10 13 14 15 16 17 18 19 21 22 23 24 25 26 20 30 27 31 32 33 34 35 28 29 39 36 37 40 43 41 44 45 48 46 47 49 50 51 52 53 54 55 56 57 58 59 60 62]</text>
</g>
<!-- T28471&#45;&gt;T28473 -->
<g id="edge1" class="edge">
<title>T28471:f0&#45;&gt;T28473:f0</title>
<path fill="none" stroke="#5b00c0" d="M524.0019,-162.4783C534.044,-152.2578 545.626,-137.542 549.3107,-121.2907"/>
<polygon fill="#5b00c0" stroke="#5b00c0" points="552.8287,-121.3357 550.5,-111 545.875,-120.532 552.8287,-121.3357"/>
<text text-anchor="middle" x="554" y="-132.8" font-family="Times,serif" font-size="14.00" fill="#5b00c0">rw</text>
</g>
<!-- T28469 -->
<g id="node3" class="node">
<title>T28469</title>
<polygon fill="none" stroke="#0058ad" points="0,-.5 0,-29.5 1037,-29.5 1037,-.5 0,-.5"/>
<text text-anchor="middle" x="32" y="-11.3" font-family="Times,serif" font-size="14.00" fill="#0058ad">a 142 49</text>
<polyline fill="none" stroke="#0058ad" points="64,-.5 64,-29.5 "/>
<text text-anchor="middle" x="550.5" y="-11.3" font-family="Times,serif" font-size="14.00" fill="#0058ad">r 143 [3 4 5 6 7 8 11 12 9 10 13 14 15 16 17 18 19 21 22 23 24 25 26 20 30 27 31 32 33 34 35 28 29 39 36 37 40 43 41 44 45 48 46 47 49 50 51 52 53 54 55 56 57 58 59 60]</text>
</g>
<!-- T28473&#45;&gt;T28469 -->
<g id="edge2" class="edge">
<title>T28473:f2&#45;&gt;T28469:f0</title>
<path fill="none" stroke="#5b00c0" d="M1960.5,-81C1960.5,-60.9012 533.5824,-63.8117 513.5,-63 463.1104,-60.9632 81.9984,-81.0058 36.0328,-38.9315"/>
<polygon fill="#5b00c0" stroke="#5b00c0" points="39.1467,-37.3334 31.5,-30 32.9046,-40.5013 39.1467,-37.3334"/>
<text text-anchor="middle" x="521" y="-51.8" font-family="Times,serif" font-size="14.00" fill="#5b00c0">rw</text>
</g>
<!-- T28469&#45;&gt;T28471 -->
<g id="edge3" class="edge">
<title>T28469&#45;&gt;T28471</title>
<path fill="none" stroke="#0050c0" d="M513.2745,-29.7082C508.8704,-42.9322 502.912,-62.9892 500.5,-81 497.2773,-105.065 499.9675,-132.7367 502.8969,-152.1694"/>
<polygon fill="#0050c0" stroke="#0050c0" points="499.487,-153.0043 504.5596,-162.3058 506.3947,-151.8711 499.487,-153.0043"/>
<text text-anchor="middle" x="505" y="-92.3" font-family="Times,serif" font-size="14.00" fill="#0050c0">rt</text>
</g>
<!-- T28469&#45;&gt;T28473 -->
<g id="edge4" class="edge">
<title>T28469:f1&#45;&gt;T28473:f0</title>
<path fill="none" stroke="#5b00c0" d="M550.5,-30C550.5,-48.7708 550.5,-55.8832 550.5,-70.6465"/>
<polygon fill="#5b00c0" stroke="#5b00c0" points="547.0001,-71 550.5,-81 554.0001,-71 547.0001,-71"/>
<text text-anchor="middle" x="558" y="-51.8" font-family="Times,serif" font-size="14.00" fill="#5b00c0">rw</text>
</g>
</g>
</svg>
