<?xml version="1.0" encoding="UTF-8" standalone="no"?>
<!DOCTYPE svg PUBLIC "-//W3C//DTD SVG 1.1//EN"
 "http://www.w3.org/Graphics/SVG/1.1/DTD/svg11.dtd">
<!-- Generated by graphviz version 2.40.1 (20161225.0304)
 -->
<!-- Title: a_graph Pages: 1 -->
<svg width="5231pt" height="119pt"
 viewBox="0.00 0.00 5231.00 119.00" xmlns="http://www.w3.org/2000/svg" xmlns:xlink="http://www.w3.org/1999/xlink">
<g id="graph0" class="graph" transform="scale(1 1) rotate(0) translate(4 115)">
<title>a_graph</title>
<polygon fill="#ffffff" stroke="transparent" points="-4,4 -4,-115 5227,-115 5227,4 -4,4"/>
<!-- T34679 -->
<g id="node1" class="node">
<title>T34679</title>
<polygon fill="none" stroke="#0058ad" points="0,-81.5 0,-110.5 5223,-110.5 5223,-81.5 0,-81.5"/>
<text text-anchor="middle" x="927.5" y="-92.3" font-family="Times,serif" font-size="14.00" fill="#0058ad">r 171 [1 3 4 5 6 7 8 9 10 11 12 13 14 15 16 17 18 19 20 21 22 23 24 25 26 27 28 29 30 31 32 33 35 36 39 40 41 42 43 44 45 46 47 48 49 50 51 52 53 54 55 56 57 58 61 62 63 59 60 64 65 66 67 68 69 70 71 72 73 74 75 76 77 78 79 80 81 82 83 84 85 86 87 88 89 90 92 91 93 94 96 97 98 99 95 100 101 102 103 106 104 107 105 108]</text>
<polyline fill="none" stroke="#0058ad" points="1855,-81.5 1855,-110.5 "/>
<text text-anchor="middle" x="2782.5" y="-92.3" font-family="Times,serif" font-size="14.00" fill="#0058ad">r 171 [1 3 4 5 6 7 8 9 10 11 12 13 14 15 16 17 18 19 20 21 22 23 24 25 26 27 28 29 30 31 32 33 35 36 39 40 41 42 43 44 45 46 47 48 49 50 51 52 53 54 55 56 57 58 61 62 63 59 60 64 65 66 67 68 69 70 71 72 73 74 75 76 77 78 79 80 81 82 83 84 85 86 87 88 89 90 92 91 93 94 96 97 98 99 95 100 101 102 103 106 104 107 105 108]</text>
<polyline fill="none" stroke="#0058ad" points="3710,-81.5 3710,-110.5 "/>
<text text-anchor="middle" x="4434.5" y="-92.3" font-family="Times,serif" font-size="14.00" fill="#0058ad">r 173 [1 2 4 5 6 7 8 9 10 11 13 14 12 15 16 18 19 20 21 22 23 24 25 26 27 28 29 30 31 32 33 34 35 36 37 38 39 40 41 42 43 44 45 46 47 48 49 50 51 52 53 54 55 56 57 58 59 60 61 62 63 64 65 66 67 68 69 70 72 71 73 74 76 78 79 81 80 84 85 82 86 87 88 89]</text>
<polyline fill="none" stroke="#0058ad" points="5159,-81.5 5159,-110.5 "/>
<text text-anchor="middle" x="5191" y="-92.3" font-family="Times,serif" font-size="14.00" fill="#0058ad">a 170 69</text>
</g>
<!-- T34673 -->
<g id="node2" class="node">
<title>T34673</title>
<polygon fill="none" stroke="#0058ad" points="1940.5,-.5 1940.5,-29.5 3682.5,-29.5 3682.5,-.5 1940.5,-.5"/>
<text text-anchor="middle" x="2472" y="-11.3" font-family="Times,serif" font-size="14.00" fill="#0058ad">r 170 [1 2 3 4 5 6 7 8 9 10 11 12 14 15 16 17 18 19 20 21 22 23 24 25 26 27 28 29 30 31 33 36 37 38 39 40 41 42 43 44 45 46 47 48 49 50 51 52 53 54 55 56 57 58 59 60 61 62 63 64 66 68]</text>
<polyline fill="none" stroke="#0058ad" points="3003.5,-.5 3003.5,-29.5 "/>
<text text-anchor="middle" x="3307.5" y="-11.3" font-family="Times,serif" font-size="14.00" fill="#0058ad">r 1 [1 2 3 5 6 7 8 9 10 11 12 13 14 15 16 17 18 19 20 21 22 23 24 25 26 28 29 30 33 34 35 36 37 39 40 41]</text>
<polyline fill="none" stroke="#0058ad" points="3611.5,-.5 3611.5,-29.5 "/>
<text text-anchor="middle" x="3647" y="-11.3" font-family="Times,serif" font-size="14.00" fill="#0058ad">a 171 109</text>
</g>
<!-- T34679&#45;&gt;T34673 -->
<g id="edge1" class="edge">
<title>T34679:f0&#45;&gt;T34673:f2</title>
<path fill="none" stroke="#5b00c0" d="M927.5,-81C927.5,66.743 3526.6847,-170.0529 3643.445,-39.5842"/>
<polygon fill="#5b00c0" stroke="#5b00c0" points="3646.8268,-40.5734 3647.5,-30 3640.38,-37.8458 3646.8268,-40.5734"/>
<text text-anchor="middle" x="3626" y="-51.8" font-family="Times,serif" font-size="14.00" fill="#5b00c0">rw</text>
</g>
<!-- T34673&#45;&gt;T34679 -->
<g id="edge2" class="edge">
<title>T34673:f0&#45;&gt;T34679:f3</title>
<path fill="none" stroke="#5b00c0" d="M2471.5,-30C2471.5,-46.1964 3621.3063,-47.7031 3637.5,-48 3720.803,-49.5275 5090.0123,1.56 5186.1819,-72.4078"/>
<polygon fill="#5b00c0" stroke="#5b00c0" points="5183.261,-74.339 5191.5,-81 5189.2131,-70.6549 5183.261,-74.339"/>
<text text-anchor="middle" x="5172" y="-51.8" font-family="Times,serif" font-size="14.00" fill="#5b00c0">rw</text>
</g>
</g>
</svg>
