<?xml version="1.0" encoding="UTF-8" standalone="no"?>
<!DOCTYPE svg PUBLIC "-//W3C//DTD SVG 1.1//EN"
 "http://www.w3.org/Graphics/SVG/1.1/DTD/svg11.dtd">
<!-- Generated by graphviz version 2.40.1 (20161225.0304)
 -->
<!-- Title: a_graph Pages: 1 -->
<svg width="2795pt" height="200pt"
 viewBox="0.00 0.00 2795.00 200.00" xmlns="http://www.w3.org/2000/svg" xmlns:xlink="http://www.w3.org/1999/xlink">
<g id="graph0" class="graph" transform="scale(1 1) rotate(0) translate(4 196)">
<title>a_graph</title>
<polygon fill="#ffffff" stroke="transparent" points="-4,4 -4,-196 2791,-196 2791,4 -4,4"/>
<!-- T1699 -->
<g id="node1" class="node">
<title>T1699</title>
<polygon fill="none" stroke="#0058ad" points="936.5,-162.5 936.5,-191.5 1166.5,-191.5 1166.5,-162.5 936.5,-162.5"/>
<text text-anchor="middle" x="965.5" y="-173.3" font-family="Times,serif" font-size="14.00" fill="#0058ad">r 15 [1]</text>
<polyline fill="none" stroke="#0058ad" points="994.5,-162.5 994.5,-191.5 "/>
<text text-anchor="middle" x="1023.5" y="-173.3" font-family="Times,serif" font-size="14.00" fill="#0058ad">r 15 [1]</text>
<polyline fill="none" stroke="#0058ad" points="1052.5,-162.5 1052.5,-191.5 "/>
<text text-anchor="middle" x="1084.5" y="-173.3" font-family="Times,serif" font-size="14.00" fill="#0058ad">a 11 113</text>
<polyline fill="none" stroke="#0058ad" points="1116.5,-162.5 1116.5,-191.5 "/>
<text text-anchor="middle" x="1141.5" y="-173.3" font-family="Times,serif" font-size="14.00" fill="#0058ad">a 14 9</text>
</g>
<!-- T1701 -->
<g id="node2" class="node">
<title>T1701</title>
<polygon fill="none" stroke="#0058ad" points="999,-81.5 999,-110.5 2246,-110.5 2246,-81.5 999,-81.5"/>
<text text-anchor="middle" x="1031" y="-92.3" font-family="Times,serif" font-size="14.00" fill="#0058ad">a 11 114</text>
<polyline fill="none" stroke="#0058ad" points="1063,-81.5 1063,-110.5 "/>
<text text-anchor="middle" x="1092" y="-92.3" font-family="Times,serif" font-size="14.00" fill="#0058ad">r 15 [1]</text>
<polyline fill="none" stroke="#0058ad" points="1121,-81.5 1121,-110.5 "/>
<text text-anchor="middle" x="1150" y="-92.3" font-family="Times,serif" font-size="14.00" fill="#0058ad">r 15 [1]</text>
<polyline fill="none" stroke="#0058ad" points="1179,-81.5 1179,-110.5 "/>
<text text-anchor="middle" x="1712.5" y="-92.3" font-family="Times,serif" font-size="14.00" fill="#0058ad">r 6 [1 2 3 4 5 6 7 8 9 10 11 12 13 14 15 16 18 19 20 22 23 21 24 25 26 27 28 29 30 31 34 35 37 36 38 39 40 42 43 44 45 46 48 50 53 51 52 54 55 56 57 58 59 60 61 62 63 64 66 67 69 70 71]</text>
</g>
<!-- T1699&#45;&gt;T1701 -->
<g id="edge1" class="edge">
<title>T1699:f2&#45;&gt;T1701:f0</title>
<path fill="none" stroke="#c02700" d="M1084.5,-162C1084.5,-132.9857 1042.7863,-141.0776 1032.6837,-121.05"/>
<polygon fill="#c02700" stroke="#c02700" points="1036.0436,-120.0288 1030.5,-111 1029.2032,-121.5152 1036.0436,-120.0288"/>
<text text-anchor="middle" x="1084.5" y="-132.8" font-family="Times,serif" font-size="14.00" fill="#c02700">ww</text>
</g>
<!-- T1703 -->
<g id="node3" class="node">
<title>T1703</title>
<polygon fill="none" stroke="#0058ad" points="0,-.5 0,-29.5 2787,-29.5 2787,-.5 0,-.5"/>
<text text-anchor="middle" x="533.5" y="-11.3" font-family="Times,serif" font-size="14.00" fill="#0058ad">r 6 [1 2 3 4 5 6 7 8 9 10 11 12 13 14 15 16 18 19 20 22 23 21 24 25 26 27 28 29 30 31 34 35 37 36 38 39 40 42 43 44 45 46 48 50 53 51 52 54 55 56 57 58 59 60 61 62 63 64 66 67 69 70 71]</text>
<polyline fill="none" stroke="#0058ad" points="1067,-.5 1067,-29.5 "/>
<text text-anchor="middle" x="1092" y="-11.3" font-family="Times,serif" font-size="14.00" fill="#0058ad">a 15 2</text>
<polyline fill="none" stroke="#0058ad" points="1117,-.5 1117,-29.5 "/>
<text text-anchor="middle" x="1927" y="-11.3" font-family="Times,serif" font-size="14.00" fill="#0058ad">r 11 [1 2 6 7 8 9 10 11 12 13 14 15 16 17 18 19 20 21 22 23 31 32 25 24 33 34 35 36 37 39 38 41 42 44 45 40 43 47 49 50 48 51 52 53 54 55 56 57 58 59 60 61 67 68 69 70 71 72 73 74 77 78 79 80 81 82 83 84 85 86 87 88 89 90 91 92 93 94 95 96 98 100 105 106 108 107 109 110 111 112]</text>
<polyline fill="none" stroke="#0058ad" points="2737,-.5 2737,-29.5 "/>
<text text-anchor="middle" x="2762" y="-11.3" font-family="Times,serif" font-size="14.00" fill="#0058ad">a 15 3</text>
</g>
<!-- T1699&#45;&gt;T1703 -->
<g id="edge2" class="edge">
<title>T1699:f0&#45;&gt;T1703:f1</title>
<path fill="none" stroke="#5b00c0" d="M965.5,-162C965.5,-125.7785 953.0085,-110.1568 974.5,-81 1005.8564,-38.4599 1080.3377,-80.1534 1090.3741,-40.1831"/>
<polygon fill="#5b00c0" stroke="#5b00c0" points="1093.8798,-40.3241 1091.5,-30 1086.9222,-39.5548 1093.8798,-40.3241"/>
<text text-anchor="middle" x="982" y="-92.3" font-family="Times,serif" font-size="14.00" fill="#5b00c0">rw</text>
</g>
<!-- T1701&#45;&gt;T1703 -->
<g id="edge3" class="edge">
<title>T1701:f1&#45;&gt;T1703:f1</title>
<path fill="none" stroke="#5b00c0" d="M1091.5,-81C1091.5,-62.2292 1091.5,-55.1168 1091.5,-40.3535"/>
<polygon fill="#5b00c0" stroke="#5b00c0" points="1095.0001,-40 1091.5,-30 1088.0001,-40 1095.0001,-40"/>
<text text-anchor="middle" x="1099" y="-51.8" font-family="Times,serif" font-size="14.00" fill="#5b00c0">rw</text>
</g>
<!-- T1703&#45;&gt;T1699 -->
<g id="edge4" class="edge">
<title>T1703:f2&#45;&gt;T1699:f2</title>
<path fill="none" stroke="#5b00c0" d="M1927.5,-30C1927.5,-103.5451 2206.6702,-25.1323 2254.5,-81 2263.1713,-91.1285 2263.7205,-101.3688 2254.5,-111 2211.4845,-155.9314 1181.2919,-102.0961 1090.8307,-154.1333"/>
<polygon fill="#5b00c0" stroke="#5b00c0" points="1088.0428,-152.015 1084.5,-162 1093.4962,-156.4037 1088.0428,-152.015"/>
<text text-anchor="middle" x="2269" y="-92.3" font-family="Times,serif" font-size="14.00" fill="#5b00c0">rw</text>
</g>
</g>
</svg>
