<?xml version="1.0" encoding="UTF-8" standalone="no"?>
<!DOCTYPE svg PUBLIC "-//W3C//DTD SVG 1.1//EN"
 "http://www.w3.org/Graphics/SVG/1.1/DTD/svg11.dtd">
<!-- Generated by graphviz version 2.40.1 (20161225.0304)
 -->
<!-- Title: a_graph Pages: 1 -->
<svg width="5563pt" height="119pt"
 viewBox="0.00 0.00 5563.00 119.00" xmlns="http://www.w3.org/2000/svg" xmlns:xlink="http://www.w3.org/1999/xlink">
<g id="graph0" class="graph" transform="scale(1 1) rotate(0) translate(4 115)">
<title>a_graph</title>
<polygon fill="#ffffff" stroke="transparent" points="-4,4 -4,-115 5559,-115 5559,4 -4,4"/>
<!-- T2385 -->
<g id="node1" class="node">
<title>T2385</title>
<polygon fill="none" stroke="#0058ad" points="0,-81.5 0,-110.5 2731,-110.5 2731,-81.5 0,-81.5"/>
<text text-anchor="middle" x="678" y="-92.3" font-family="Times,serif" font-size="14.00" fill="#0058ad">r 17 [2 3 4 5 6 8 9 10 7 11 12 13 14 17 18 19 20 21 22 23 24 25 26 27 28 29 30 31 32 33 34 35 36 38 39 40 41 42 43 44 45 46 47 48 49 50 51 52 53 54 55 56 57 58 59 61 62 63 60 64 65 66 67 68 69 70 71 72 73 74 75 76 79 81 82 83 84 85 86]</text>
<polyline fill="none" stroke="#0058ad" points="1356,-81.5 1356,-110.5 "/>
<text text-anchor="middle" x="1384.5" y="-92.3" font-family="Times,serif" font-size="14.00" fill="#0058ad">a 17 87</text>
<polyline fill="none" stroke="#0058ad" points="1413,-81.5 1413,-110.5 "/>
<text text-anchor="middle" x="2072" y="-92.3" font-family="Times,serif" font-size="14.00" fill="#0058ad">r 16 [1 2 3 4 5 6 10 11 12 13 14 15 16 17 18 19 20 21 22 23 25 27 29 30 31 32 33 34 35 37 36 38 39 40 41 42 43 44 45 46 47 48 49 52 53 54 55 56 57 59 60 61 62 63 64 65 66 67 68 69 70 71 72 73 74 75 76 77 78 79 80 81 82 83 85 86]</text>
</g>
<!-- T2387 -->
<g id="node2" class="node">
<title>T2387</title>
<polygon fill="none" stroke="#0058ad" points="1430,-.5 1430,-29.5 5555,-29.5 5555,-.5 1430,-.5"/>
<text text-anchor="middle" x="1458.5" y="-11.3" font-family="Times,serif" font-size="14.00" fill="#0058ad">a 16 87</text>
<polyline fill="none" stroke="#0058ad" points="1487,-.5 1487,-29.5 "/>
<text text-anchor="middle" x="2165" y="-11.3" font-family="Times,serif" font-size="14.00" fill="#0058ad">r 17 [2 3 4 5 6 8 9 10 7 11 12 13 14 17 18 19 20 21 22 23 24 25 26 27 28 29 30 31 32 33 34 35 36 38 39 40 41 42 43 44 45 46 47 48 49 50 51 52 53 54 55 56 57 58 59 61 62 63 60 64 65 66 67 68 69 70 71 72 73 74 75 76 79 81 82 83 84 85 86]</text>
<polyline fill="none" stroke="#0058ad" points="2843,-.5 2843,-29.5 "/>
<text text-anchor="middle" x="3521" y="-11.3" font-family="Times,serif" font-size="14.00" fill="#0058ad">r 17 [2 3 4 5 6 8 9 10 7 11 12 13 14 17 18 19 20 21 22 23 24 25 26 27 28 29 30 31 32 33 34 35 36 38 39 40 41 42 43 44 45 46 47 48 49 50 51 52 53 54 55 56 57 58 59 61 62 63 60 64 65 66 67 68 69 70 71 72 73 74 75 76 79 81 82 83 84 85 86]</text>
<polyline fill="none" stroke="#0058ad" points="4199,-.5 4199,-29.5 "/>
<text text-anchor="middle" x="4877" y="-11.3" font-family="Times,serif" font-size="14.00" fill="#0058ad">r 17 [2 3 4 5 6 8 9 10 7 11 12 13 14 17 18 19 20 21 22 23 24 25 26 27 28 29 30 31 32 33 34 35 36 38 39 40 41 42 43 44 45 46 47 48 49 50 51 52 53 54 55 56 57 58 59 61 62 63 60 64 65 66 67 68 69 70 71 72 73 74 75 76 79 81 82 83 84 85 86]</text>
</g>
<!-- T2385&#45;&gt;T2387 -->
<g id="edge1" class="edge">
<title>T2385:f2&#45;&gt;T2387:f0</title>
<path fill="none" stroke="#5b00c0" d="M2072.5,-81C2072.5,-65.4678 1808.9809,-64.2615 1793.5,-63 1647.8796,-51.1336 1467.1931,-173.6513 1458.8035,-40.0661"/>
<polygon fill="#5b00c0" stroke="#5b00c0" points="1462.2998,-39.89 1458.5,-30 1455.303,-40.101 1462.2998,-39.89"/>
<text text-anchor="middle" x="1801" y="-51.8" font-family="Times,serif" font-size="14.00" fill="#5b00c0">rw</text>
</g>
<!-- T2387&#45;&gt;T2385 -->
<g id="edge2" class="edge">
<title>T2387:f1&#45;&gt;T2385:f1</title>
<path fill="none" stroke="#5b00c0" d="M2164.5,-30C2164.5,-188.9005 1967.0394,-52.2935 1808.5,-63 1787.0443,-64.449 1451.9844,-58.6151 1393.2529,-75.4691"/>
<polygon fill="#5b00c0" stroke="#5b00c0" points="1391.0841,-72.6993 1384.5,-81 1394.8234,-78.6169 1391.0841,-72.6993"/>
<text text-anchor="middle" x="2169" y="-51.8" font-family="Times,serif" font-size="14.00" fill="#5b00c0">rw</text>
</g>
</g>
</svg>
