<?xml version="1.0" encoding="UTF-8" standalone="no"?>
<!DOCTYPE svg PUBLIC "-//W3C//DTD SVG 1.1//EN"
 "http://www.w3.org/Graphics/SVG/1.1/DTD/svg11.dtd">
<!-- Generated by graphviz version 2.40.1 (20161225.0304)
 -->
<!-- Title: a_graph Pages: 1 -->
<svg width="4379pt" height="362pt"
 viewBox="0.00 0.00 4379.00 362.00" xmlns="http://www.w3.org/2000/svg" xmlns:xlink="http://www.w3.org/1999/xlink">
<g id="graph0" class="graph" transform="scale(1 1) rotate(0) translate(4 358)">
<title>a_graph</title>
<polygon fill="#ffffff" stroke="transparent" points="-4,4 -4,-358 4375,-358 4375,4 -4,4"/>
<!-- T38159 -->
<g id="node1" class="node">
<title>T38159</title>
<polygon fill="none" stroke="#0058ad" points="0,-324.5 0,-353.5 1525,-353.5 1525,-324.5 0,-324.5"/>
<text text-anchor="middle" x="762.5" y="-335.3" font-family="Times,serif" font-size="14.00" fill="#0058ad">r 187 [1 2 3 4 5 6 7 9 10 13 14 16 17 18 19 20 21 22 23 24 25 26 27 28 29 30 31 32 33 34 35 36 37 38 39 40 41 42 43 44 45 48 49 52 55 56 58 59 60 62 63 64 65 66 67 68 69 70 71 72 73 74 75 76 77 78 79 80 81 82 83 84 85 86 87 88 89 90 91 92 93 94 95 96 97 98 99 100]</text>
</g>
<!-- T38161 -->
<g id="node3" class="node">
<title>T38161</title>
<polygon fill="none" stroke="#0058ad" points="774,-243.5 774,-272.5 4371,-272.5 4371,-243.5 774,-243.5"/>
<text text-anchor="middle" x="1486.5" y="-254.3" font-family="Times,serif" font-size="14.00" fill="#0058ad">r 180 [1 2 3 4 5 6 7 8 9 10 11 12 13 14 15 16 18 19 20 21 22 24 25 26 27 28 29 30 31 32 33 34 35 36 37 38 39 41 42 43 44 45 46 47 48 49 50 51 52 53 54 55 57 58 59 60 61 62 63 64 65 66 67 68 69 70 71 72 73 74 75 76 77 79 80 81 82 84 85 86 87 88 89]</text>
<polyline fill="none" stroke="#0058ad" points="2199,-243.5 2199,-272.5 "/>
<text text-anchor="middle" x="2234.5" y="-254.3" font-family="Times,serif" font-size="14.00" fill="#0058ad">a 187 101</text>
<polyline fill="none" stroke="#0058ad" points="2270,-243.5 2270,-272.5 "/>
<text text-anchor="middle" x="3285" y="-254.3" font-family="Times,serif" font-size="14.00" fill="#0058ad">r 188 [1 2 3 4 7 8 9 10 11 5 6 12 13 14 16 17 18 19 20 21 23 24 25 26 29 30 31 32 34 35 36 37 38 39 40 41 42 43 44 45 46 47 48 49 50 51 52 53 54 55 56 57 58 59 60 61 62 63 64 65 66 67 68 69 70 71 72 73 74 75 76 77 78 79 81 83 84 80 87 85 86 89 90 88 91 92 93 94 95 96 97 98 99 101 102 100 103 104 105 106 107 108 109 110 111 112 113 114 115 116 117]</text>
<polyline fill="none" stroke="#0058ad" points="4300,-243.5 4300,-272.5 "/>
<text text-anchor="middle" x="4335.5" y="-254.3" font-family="Times,serif" font-size="14.00" fill="#0058ad">a 187 102</text>
</g>
<!-- T38159&#45;&gt;T38161 -->
<g id="edge1" class="edge">
<title>T38159:f0&#45;&gt;T38161:f1</title>
<path fill="none" stroke="#5b00c0" d="M1392.3652,-324.4984C1759.3103,-314.0446 2162.206,-298.2956 2225.8369,-278.4249"/>
<polygon fill="#5b00c0" stroke="#5b00c0" points="2227.8822,-281.2738 2234.5,-273 2224.167,-275.341 2227.8822,-281.2738"/>
<text text-anchor="middle" x="2142" y="-294.8" font-family="Times,serif" font-size="14.00" fill="#5b00c0">rw</text>
</g>
<!-- T38153 -->
<g id="node2" class="node">
<title>T38153</title>
<polygon fill="none" stroke="#0058ad" points="2997,-162.5 2997,-191.5 3068,-191.5 3068,-162.5 2997,-162.5"/>
<text text-anchor="middle" x="3032.5" y="-173.3" font-family="Times,serif" font-size="14.00" fill="#0058ad">a 188 118</text>
</g>
<!-- T38157 -->
<g id="node4" class="node">
<title>T38157</title>
<polygon fill="none" stroke="#0058ad" points="1207.5,-.5 1207.5,-29.5 3261.5,-29.5 3261.5,-.5 1207.5,-.5"/>
<text text-anchor="middle" x="2234.5" y="-11.3" font-family="Times,serif" font-size="14.00" fill="#0058ad">r 188 [1 2 3 4 7 8 9 10 11 5 6 12 13 14 16 17 18 19 20 21 23 24 25 26 29 30 31 32 34 35 36 37 38 39 40 41 42 43 44 45 46 47 48 49 50 51 52 53 54 55 56 57 58 59 60 61 62 63 64 65 66 67 68 69 70 71 72 73 74 75 76 77 78 79 81 83 84 80 87 85 86 89 90 88 91 92 93 94 95 96 97 98 99 101 102 100 103 104 105 106 107 108 109 110 111 112 113 114 115 116 117 118]</text>
</g>
<!-- T38153&#45;&gt;T38157 -->
<g id="edge2" class="edge">
<title>T38153:f0&#45;&gt;T38157:f0</title>
<path fill="none" stroke="#c000a5" d="M3033.1236,-162.2513C3033.1466,-140.6919 3029.6484,-100.9717 3005.5,-81 2978.4705,-58.6456 2930.3892,-42.6647 2870.9689,-31.3873"/>
<polygon fill="#c000a5" stroke="#c000a5" points="2871.4088,-27.9097 2860.9413,-29.5473 2870.1454,-34.7947 2871.4088,-27.9097"/>
<text text-anchor="middle" x="3032" y="-92.3" font-family="Times,serif" font-size="14.00" fill="#c000a5">wr</text>
</g>
<!-- T38155 -->
<g id="node5" class="node">
<title>T38155</title>
<polygon fill="none" stroke="#0058ad" points="1472,-81.5 1472,-110.5 2997,-110.5 2997,-81.5 1472,-81.5"/>
<text text-anchor="middle" x="2234.5" y="-92.3" font-family="Times,serif" font-size="14.00" fill="#0058ad">r 187 [1 2 3 4 5 6 7 9 10 13 14 16 17 18 19 20 21 22 23 24 25 26 27 28 29 30 31 32 33 34 35 36 37 38 39 40 41 42 43 44 45 48 49 52 55 56 58 59 60 62 63 64 65 66 67 68 69 70 71 72 73 74 75 76 77 78 79 80 81 82 83 84 85 86 87 88 89 90 91 92 93 94 95 96 97 98 99 100]</text>
</g>
<!-- T38153&#45;&gt;T38155 -->
<g id="edge3" class="edge">
<title>T38153&#45;&gt;T38155</title>
<path fill="none" stroke="#0050c0" d="M2996.9217,-173.3887C2891.8828,-162.7268 2578.562,-130.9236 2387.8381,-111.5644"/>
<polygon fill="#0050c0" stroke="#0050c0" points="2388.0225,-108.0652 2377.7201,-110.5374 2387.3155,-115.0294 2388.0225,-108.0652"/>
<text text-anchor="middle" x="2709" y="-132.8" font-family="Times,serif" font-size="14.00" fill="#0050c0">rt</text>
</g>
<!-- T38161&#45;&gt;T38153 -->
<g id="edge4" class="edge">
<title>T38161:f2&#45;&gt;T38153:f0</title>
<path fill="none" stroke="#5b00c0" d="M3285.5,-243C3285.5,-196.1627 3134.1896,-206.072 3076.0744,-194.1252"/>
<polygon fill="#5b00c0" stroke="#5b00c0" points="3076.9223,-190.7294 3066.3651,-191.6215 3075.1743,-197.5077 3076.9223,-190.7294"/>
<text text-anchor="middle" x="3281" y="-213.8" font-family="Times,serif" font-size="14.00" fill="#5b00c0">rw</text>
</g>
<!-- T38157&#45;&gt;T38159 -->
<g id="edge5" class="edge">
<title>T38157&#45;&gt;T38159</title>
<path fill="none" stroke="#0050c0" d="M1769.8082,-29.5007C1333.212,-44.7197 746.5,-70.0071 746.5,-96 746.5,-258 746.5,-258 746.5,-258 746.5,-277.1004 750.8349,-298.2621 754.9919,-314.1645"/>
<polygon fill="#0050c0" stroke="#0050c0" points="751.7417,-315.5421 757.786,-324.2437 758.4873,-313.6721 751.7417,-315.5421"/>
<text text-anchor="middle" x="751" y="-173.3" font-family="Times,serif" font-size="14.00" fill="#0050c0">rt</text>
</g>
<!-- T38155&#45;&gt;T38161 -->
<g id="edge6" class="edge">
<title>T38155:f0&#45;&gt;T38161:f1</title>
<path fill="none" stroke="#5b00c0" d="M2234.5,-110.6051C2234.5,-135.2178 2234.5,-186.7961 2234.5,-232.9425"/>
<polygon fill="#5b00c0" stroke="#5b00c0" points="2231.0001,-233 2234.5,-243 2238.0001,-233 2231.0001,-233"/>
<text text-anchor="middle" x="2242" y="-173.3" font-family="Times,serif" font-size="14.00" fill="#5b00c0">rw</text>
</g>
<!-- T38155&#45;&gt;T38157 -->
<g id="edge7" class="edge">
<title>T38155&#45;&gt;T38157</title>
<path fill="none" stroke="#0050c0" d="M2234.5,-81.1434C2234.5,-69.6112 2234.5,-53.3668 2234.5,-39.8626"/>
<polygon fill="#0050c0" stroke="#0050c0" points="2238.0001,-39.7624 2234.5,-29.7625 2231.0001,-39.7625 2238.0001,-39.7624"/>
<text text-anchor="middle" x="2239" y="-51.8" font-family="Times,serif" font-size="14.00" fill="#0050c0">rt</text>
</g>
</g>
</svg>
