<?xml version="1.0" encoding="UTF-8" standalone="no"?>
<!DOCTYPE svg PUBLIC "-//W3C//DTD SVG 1.1//EN"
 "http://www.w3.org/Graphics/SVG/1.1/DTD/svg11.dtd">
<!-- Generated by graphviz version 2.40.1 (20161225.0304)
 -->
<!-- Title: a_graph Pages: 1 -->
<svg width="1785pt" height="119pt"
 viewBox="0.00 0.00 1785.00 119.00" xmlns="http://www.w3.org/2000/svg" xmlns:xlink="http://www.w3.org/1999/xlink">
<g id="graph0" class="graph" transform="scale(1 1) rotate(0) translate(4 115)">
<title>a_graph</title>
<polygon fill="#ffffff" stroke="transparent" points="-4,4 -4,-115 1781,-115 1781,4 -4,4"/>
<!-- T11483 -->
<g id="node1" class="node">
<title>T11483</title>
<polygon fill="none" stroke="#0058ad" points="0,-81.5 0,-110.5 1478,-110.5 1478,-81.5 0,-81.5"/>
<text text-anchor="middle" x="614.5" y="-92.3" font-family="Times,serif" font-size="14.00" fill="#0058ad">r 58 [1 2 3 4 5 6 7 10 8 9 11 13 12 14 15 16 17 18 19 20 21 22 23 24 25 26 27 28 30 31 32 33 34 35 37 38 39 40 41 42 43 44 45 47 48 49 50 46 51 54 56 57 55 59 60 61 62 63 64 65 66 67 68 69 70 71 72 73 74 75 76 77]</text>
<polyline fill="none" stroke="#0058ad" points="1229,-81.5 1229,-110.5 "/>
<text text-anchor="middle" x="1300" y="-92.3" font-family="Times,serif" font-size="14.00" fill="#0058ad">r 60 [1 2 3 4 5 6 7 8 9]</text>
<polyline fill="none" stroke="#0058ad" points="1371,-81.5 1371,-110.5 "/>
<text text-anchor="middle" x="1396" y="-92.3" font-family="Times,serif" font-size="14.00" fill="#0058ad">a 61 5</text>
<polyline fill="none" stroke="#0058ad" points="1421,-81.5 1421,-110.5 "/>
<text text-anchor="middle" x="1449.5" y="-92.3" font-family="Times,serif" font-size="14.00" fill="#0058ad">a 60 10</text>
</g>
<!-- T11484 -->
<g id="node2" class="node">
<title>T11484</title>
<polygon fill="none" stroke="#0058ad" points="385,-.5 385,-29.5 1777,-29.5 1777,-.5 385,-.5"/>
<text text-anchor="middle" x="413.5" y="-11.3" font-family="Times,serif" font-size="14.00" fill="#0058ad">a 58 78</text>
<polyline fill="none" stroke="#0058ad" points="442,-.5 442,-29.5 "/>
<text text-anchor="middle" x="1065" y="-11.3" font-family="Times,serif" font-size="14.00" fill="#0058ad">r 58 [1 2 3 4 5 6 7 10 8 9 11 13 12 14 15 16 17 18 19 20 21 22 23 24 25 26 27 28 30 31 32 33 34 35 37 38 39 40 41 42 43 44 45 47 48 49 50 46 51 54 56 57 55 59 60 61 62 63 64 65 66 67 68 69 70 71 72 73 74 75 76 77 78]</text>
<polyline fill="none" stroke="#0058ad" points="1688,-.5 1688,-29.5 "/>
<text text-anchor="middle" x="1732.5" y="-11.3" font-family="Times,serif" font-size="14.00" fill="#0058ad">r 61 [1 2 3 4]</text>
</g>
<!-- T11483&#45;&gt;T11484 -->
<g id="edge1" class="edge">
<title>T11483:f0&#45;&gt;T11484:f0</title>
<path fill="none" stroke="#5b00c0" d="M614,-81C614,7.3839 429.1501,-111.6064 413.9867,-40.2336"/>
<polygon fill="#5b00c0" stroke="#5b00c0" points="417.4436,-39.6179 413,-30 410.4759,-40.2898 417.4436,-39.6179"/>
<text text-anchor="middle" x="618.5" y="-51.8" font-family="Times,serif" font-size="14.00" fill="#5b00c0">rw</text>
</g>
<!-- T11484&#45;&gt;T11483 -->
<g id="edge2" class="edge">
<title>T11484:f2&#45;&gt;T11483:f2</title>
<path fill="none" stroke="#5b00c0" d="M1733,-30C1733,-177.9328 1411.6118,58.8939 1396.5467,-71.0033"/>
<polygon fill="#5b00c0" stroke="#5b00c0" points="1393.0514,-70.8238 1396,-81 1400.0409,-71.2061 1393.0514,-70.8238"/>
<text text-anchor="middle" x="1737.5" y="-51.8" font-family="Times,serif" font-size="14.00" fill="#5b00c0">rw</text>
</g>
</g>
</svg>
