<?xml version="1.0" encoding="UTF-8" standalone="no"?>
<!DOCTYPE svg PUBLIC "-//W3C//DTD SVG 1.1//EN"
 "http://www.w3.org/Graphics/SVG/1.1/DTD/svg11.dtd">
<!-- Generated by graphviz version 2.40.1 (20161225.0304)
 -->
<!-- Title: a_graph Pages: 1 -->
<svg width="1390pt" height="200pt"
 viewBox="0.00 0.00 1389.50 200.00" xmlns="http://www.w3.org/2000/svg" xmlns:xlink="http://www.w3.org/1999/xlink">
<g id="graph0" class="graph" transform="scale(1 1) rotate(0) translate(4 196)">
<title>a_graph</title>
<polygon fill="#ffffff" stroke="transparent" points="-4,4 -4,-196 1385.5,-196 1385.5,4 -4,4"/>
<!-- T525 -->
<g id="node1" class="node">
<title>T525</title>
<polygon fill="none" stroke="#0058ad" points="508.5,-162.5 508.5,-191.5 1381.5,-191.5 1381.5,-162.5 508.5,-162.5"/>
<text text-anchor="middle" x="886" y="-173.3" font-family="Times,serif" font-size="14.00" fill="#0058ad">r 7 [2 7 8 9 10 11 12 13 14 15 16 17 18 19 20 21 22 23 24 25 26 27 28 29 30 31 32 33 34 39 41 40 42 43 44 45 46 47 49 48 50 51 52]</text>
<polyline fill="none" stroke="#0058ad" points="1263.5,-162.5 1263.5,-191.5 "/>
<text text-anchor="middle" x="1288.5" y="-173.3" font-family="Times,serif" font-size="14.00" fill="#0058ad">a 8 77</text>
<polyline fill="none" stroke="#0058ad" points="1313.5,-162.5 1313.5,-191.5 "/>
<text text-anchor="middle" x="1347.5" y="-173.3" font-family="Times,serif" font-size="14.00" fill="#0058ad">r 10 [1 2]</text>
</g>
<!-- T527 -->
<g id="node3" class="node">
<title>T527</title>
<polygon fill="none" stroke="#0058ad" points="0,-81.5 0,-110.5 1266,-110.5 1266,-81.5 0,-81.5"/>
<text text-anchor="middle" x="583" y="-92.3" font-family="Times,serif" font-size="14.00" fill="#0058ad">r 8 [1 3 4 6 7 8 9 10 11 12 13 14 15 16 17 18 19 22 20 21 23 24 26 25 27 28 29 30 31 32 33 34 35 36 37 38 39 40 42 41 43 44 46 47 50 51 45 55 56 57 58 59 60 61 62 63 64 65 66 68 67 70 71 72 69 73 74 75]</text>
<polyline fill="none" stroke="#0058ad" points="1166,-81.5 1166,-110.5 "/>
<text text-anchor="middle" x="1191" y="-92.3" font-family="Times,serif" font-size="14.00" fill="#0058ad">a 10 3</text>
<polyline fill="none" stroke="#0058ad" points="1216,-81.5 1216,-110.5 "/>
<text text-anchor="middle" x="1241" y="-92.3" font-family="Times,serif" font-size="14.00" fill="#0058ad">a 7 53</text>
</g>
<!-- T525&#45;&gt;T527 -->
<g id="edge1" class="edge">
<title>T525:f2&#45;&gt;T527:f1</title>
<path fill="none" stroke="#5b00c0" d="M1348,-162C1348,-92.502 1207.122,-174.7403 1192.2638,-121.2457"/>
<polygon fill="#5b00c0" stroke="#5b00c0" points="1195.6979,-120.4963 1191,-111 1188.7506,-121.3533 1195.6979,-120.4963"/>
<text text-anchor="middle" x="1349.5" y="-132.8" font-family="Times,serif" font-size="14.00" fill="#5b00c0">rw</text>
</g>
<!-- T523 -->
<g id="node2" class="node">
<title>T523</title>
<polygon fill="none" stroke="#0058ad" points="763.5,-.5 763.5,-29.5 1326.5,-29.5 1326.5,-.5 763.5,-.5"/>
<text text-anchor="middle" x="797.5" y="-11.3" font-family="Times,serif" font-size="14.00" fill="#0058ad">r 10 [1 2]</text>
<polyline fill="none" stroke="#0058ad" points="831.5,-.5 831.5,-29.5 "/>
<text text-anchor="middle" x="1020" y="-11.3" font-family="Times,serif" font-size="14.00" fill="#0058ad">r 6 [1 2 3 4 5 6 7 8 9 10 11 12 13 14 15 16 18 19 20 22 23 21 24]</text>
<polyline fill="none" stroke="#0058ad" points="1208.5,-.5 1208.5,-29.5 "/>
<text text-anchor="middle" x="1242.5" y="-11.3" font-family="Times,serif" font-size="14.00" fill="#0058ad">r 10 [1 2]</text>
<polyline fill="none" stroke="#0058ad" points="1276.5,-.5 1276.5,-29.5 "/>
<text text-anchor="middle" x="1301.5" y="-11.3" font-family="Times,serif" font-size="14.00" fill="#0058ad">a 8 76</text>
</g>
<!-- T523&#45;&gt;T525 -->
<g id="edge2" class="edge">
<title>T523:f3&#45;&gt;T525:f1</title>
<path fill="none" stroke="#c02700" d="M1302,-30C1302,-85.3812 1290.5266,-101.1778 1289.1372,-151.7656"/>
<polygon fill="#c02700" stroke="#c02700" points="1285.6345,-151.9539 1289,-162 1292.6338,-152.0478 1285.6345,-151.9539"/>
<text text-anchor="middle" x="1309" y="-92.3" font-family="Times,serif" font-size="14.00" fill="#c02700">ww</text>
</g>
<!-- T523&#45;&gt;T527 -->
<g id="edge3" class="edge">
<title>T523:f0&#45;&gt;T527:f1</title>
<path fill="none" stroke="#5b00c0" d="M797,-30C797,-202.9509 1175.0055,83.3807 1190.5097,-70.7324"/>
<polygon fill="#5b00c0" stroke="#5b00c0" points="1187.0269,-71.1784 1191,-81 1194.0189,-70.8444 1187.0269,-71.1784"/>
<text text-anchor="middle" x="1197.5" y="-51.8" font-family="Times,serif" font-size="14.00" fill="#5b00c0">rw</text>
</g>
<!-- T527&#45;&gt;T523 -->
<g id="edge4" class="edge">
<title>T527:f0&#45;&gt;T523:f3</title>
<path fill="none" stroke="#5b00c0" d="M583,-81C583,7.7755 691.67,-56.8822 780,-48 793.2516,-46.6675 1222.0461,-44.8393 1292.306,-33.3253"/>
<polygon fill="#5b00c0" stroke="#5b00c0" points="1293.6767,-36.5554 1302,-30 1291.4054,-29.9341 1293.6767,-36.5554"/>
<text text-anchor="middle" x="787.5" y="-51.8" font-family="Times,serif" font-size="14.00" fill="#5b00c0">rw</text>
</g>
</g>
</svg>
