<?xml version="1.0" encoding="UTF-8" standalone="no"?>
<!DOCTYPE svg PUBLIC "-//W3C//DTD SVG 1.1//EN"
 "http://www.w3.org/Graphics/SVG/1.1/DTD/svg11.dtd">
<!-- Generated by graphviz version 2.40.1 (20161225.0304)
 -->
<!-- Title: a_graph Pages: 1 -->
<svg width="2628pt" height="119pt"
 viewBox="0.00 0.00 2628.00 119.00" xmlns="http://www.w3.org/2000/svg" xmlns:xlink="http://www.w3.org/1999/xlink">
<g id="graph0" class="graph" transform="scale(1 1) rotate(0) translate(4 115)">
<title>a_graph</title>
<polygon fill="#ffffff" stroke="transparent" points="-4,4 -4,-115 2624,-115 2624,4 -4,4"/>
<!-- T10527 -->
<g id="node1" class="node">
<title>T10527</title>
<polygon fill="none" stroke="#0058ad" points="0,-81.5 0,-110.5 2620,-110.5 2620,-81.5 0,-81.5"/>
<text text-anchor="middle" x="626.5" y="-92.3" font-family="Times,serif" font-size="14.00" fill="#0058ad">r 56 [1 2 3 5 4 8 10 6 11 9 13 14 15 16 17 18 12 19 20 23 24 21 22 25 26 27 28 29 30 31 33 34 32 36 37 38 39 40 35 42 43 44 41 45 46 47 48 51 52 53 54 55 56 57 58 59 60 61 64 67 62 68 69 70 71 72 73 74 75 76 77 78 79]</text>
<polyline fill="none" stroke="#0058ad" points="1253,-81.5 1253,-110.5 "/>
<text text-anchor="middle" x="1879.5" y="-92.3" font-family="Times,serif" font-size="14.00" fill="#0058ad">r 56 [1 2 3 5 4 8 10 6 11 9 13 14 15 16 17 18 12 19 20 23 24 21 22 25 26 27 28 29 30 31 33 34 32 36 37 38 39 40 35 42 43 44 41 45 46 47 48 51 52 53 54 55 56 57 58 59 60 61 64 67 62 68 69 70 71 72 73 74 75 76 77 78 79]</text>
<polyline fill="none" stroke="#0058ad" points="2506,-81.5 2506,-110.5 "/>
<text text-anchor="middle" x="2534.5" y="-92.3" font-family="Times,serif" font-size="14.00" fill="#0058ad">a 55 54</text>
<polyline fill="none" stroke="#0058ad" points="2563,-81.5 2563,-110.5 "/>
<text text-anchor="middle" x="2591.5" y="-92.3" font-family="Times,serif" font-size="14.00" fill="#0058ad">a 55 55</text>
</g>
<!-- T10525 -->
<g id="node2" class="node">
<title>T10525</title>
<polygon fill="none" stroke="#0058ad" points="306,-.5 306,-29.5 2518,-29.5 2518,-.5 306,-.5"/>
<text text-anchor="middle" x="728.5" y="-11.3" font-family="Times,serif" font-size="14.00" fill="#0058ad">r 55 [1 2 3 4 5 7 9 10 11 12 14 13 16 17 18 15 19 20 23 24 21 22 25 26 27 28 30 31 32 29 33 34 35 36 37 38 39 40 41 42 46 45 48 49 50 47 51 52 53]</text>
<polyline fill="none" stroke="#0058ad" points="1151,-.5 1151,-29.5 "/>
<text text-anchor="middle" x="1777.5" y="-11.3" font-family="Times,serif" font-size="14.00" fill="#0058ad">r 56 [1 2 3 5 4 8 10 6 11 9 13 14 15 16 17 18 12 19 20 23 24 21 22 25 26 27 28 29 30 31 33 34 32 36 37 38 39 40 35 42 43 44 41 45 46 47 48 51 52 53 54 55 56 57 58 59 60 61 64 67 62 68 69 70 71 72 73 74 75 76 77 78 79]</text>
<polyline fill="none" stroke="#0058ad" points="2404,-.5 2404,-29.5 "/>
<text text-anchor="middle" x="2432.5" y="-11.3" font-family="Times,serif" font-size="14.00" fill="#0058ad">a 56 80</text>
<polyline fill="none" stroke="#0058ad" points="2461,-.5 2461,-29.5 "/>
<text text-anchor="middle" x="2489.5" y="-11.3" font-family="Times,serif" font-size="14.00" fill="#0058ad">a 54 56</text>
</g>
<!-- T10527&#45;&gt;T10525 -->
<g id="edge1" class="edge">
<title>T10527:f0&#45;&gt;T10525:f2</title>
<path fill="none" stroke="#5b00c0" d="M626,-81C626,-56.9716 2281.0472,-55.2196 2423.2778,-33.1056"/>
<polygon fill="#5b00c0" stroke="#5b00c0" points="2424.5392,-36.377 2433,-30 2422.4092,-29.7089 2424.5392,-36.377"/>
<text text-anchor="middle" x="2003.5" y="-51.8" font-family="Times,serif" font-size="14.00" fill="#5b00c0">rw</text>
</g>
<!-- T10525&#45;&gt;T10527 -->
<g id="edge2" class="edge">
<title>T10525:f0&#45;&gt;T10527:f2</title>
<path fill="none" stroke="#5b00c0" d="M728,-30C728,-47.8767 1997.1366,-47.3087 2015,-48 2127.1987,-52.3421 2510.7855,29.5884 2533.9076,-71.0342"/>
<polygon fill="#5b00c0" stroke="#5b00c0" points="2530.4312,-71.4409 2535,-81 2537.3895,-70.6781 2530.4312,-71.4409"/>
<text text-anchor="middle" x="2537.5" y="-51.8" font-family="Times,serif" font-size="14.00" fill="#5b00c0">rw</text>
</g>
</g>
</svg>
