<?xml version="1.0" encoding="UTF-8" standalone="no"?>
<!DOCTYPE svg PUBLIC "-//W3C//DTD SVG 1.1//EN"
 "http://www.w3.org/Graphics/SVG/1.1/DTD/svg11.dtd">
<!-- Generated by graphviz version 2.40.1 (20161225.0304)
 -->
<!-- Title: a_graph Pages: 1 -->
<svg width="1497pt" height="119pt"
 viewBox="0.00 0.00 1497.00 119.00" xmlns="http://www.w3.org/2000/svg" xmlns:xlink="http://www.w3.org/1999/xlink">
<g id="graph0" class="graph" transform="scale(1 1) rotate(0) translate(4 115)">
<title>a_graph</title>
<polygon fill="#ffffff" stroke="transparent" points="-4,4 -4,-115 1493,-115 1493,4 -4,4"/>
<!-- T31749 -->
<g id="node1" class="node">
<title>T31749</title>
<polygon fill="none" stroke="#0058ad" points="0,-81.5 0,-110.5 1086,-110.5 1086,-81.5 0,-81.5"/>
<text text-anchor="middle" x="385" y="-92.3" font-family="Times,serif" font-size="14.00" fill="#0058ad">r 159 [1 2 3 4 5 6 7 8 9 11 10 12 15 18 19 16 17 21 20 22 23 24 25 26 27 28 29 30 31 32 34 33 36 37 38 39 40 43 44 45 41 46 47 48 50]</text>
<polyline fill="none" stroke="#0058ad" points="770,-81.5 770,-110.5 "/>
<text text-anchor="middle" x="802" y="-92.3" font-family="Times,serif" font-size="14.00" fill="#0058ad">a 159 49</text>
<polyline fill="none" stroke="#0058ad" points="834,-81.5 834,-110.5 "/>
<text text-anchor="middle" x="960" y="-92.3" font-family="Times,serif" font-size="14.00" fill="#0058ad">r 158 [1 2 3 4 5 6 7 8 9 10 11 12 13 14 15]</text>
</g>
<!-- T31751 -->
<g id="node2" class="node">
<title>T31751</title>
<polygon fill="none" stroke="#0058ad" points="655,-.5 655,-29.5 1489,-29.5 1489,-.5 655,-.5"/>
<text text-anchor="middle" x="687" y="-11.3" font-family="Times,serif" font-size="14.00" fill="#0058ad">a 158 16</text>
<polyline fill="none" stroke="#0058ad" points="719,-.5 719,-29.5 "/>
<text text-anchor="middle" x="1104" y="-11.3" font-family="Times,serif" font-size="14.00" fill="#0058ad">r 159 [1 2 3 4 5 6 7 8 9 11 10 12 15 18 19 16 17 21 20 22 23 24 25 26 27 28 29 30 31 32 34 33 36 37 38 39 40 43 44 45 41 46 47 48 50]</text>
</g>
<!-- T31749&#45;&gt;T31751 -->
<g id="edge1" class="edge">
<title>T31749:f2&#45;&gt;T31751:f0</title>
<path fill="none" stroke="#5b00c0" d="M960,-81C960,-42.9487 917.9232,-57.1965 881,-48 862.6194,-43.4219 727.8736,-49.6486 694.4743,-36.7742"/>
<polygon fill="#5b00c0" stroke="#5b00c0" points="696.76,-34.1222 687,-30 692.0592,-39.3089 696.76,-34.1222"/>
<text text-anchor="middle" x="961.5" y="-51.8" font-family="Times,serif" font-size="14.00" fill="#5b00c0">rw</text>
</g>
<!-- T31751&#45;&gt;T31749 -->
<g id="edge2" class="edge">
<title>T31751:f1&#45;&gt;T31749:f1</title>
<path fill="none" stroke="#5b00c0" d="M1104,-30C1104,-56.9632 887.8485,-40.3275 862,-48 836.5852,-55.5438 809.9195,-51.8921 803.467,-70.9417"/>
<polygon fill="#5b00c0" stroke="#5b00c0" points="799.98,-70.5995 802,-81 806.9067,-71.6099 799.98,-70.5995"/>
<text text-anchor="middle" x="869.5" y="-51.8" font-family="Times,serif" font-size="14.00" fill="#5b00c0">rw</text>
</g>
</g>
</svg>
