<?xml version="1.0" encoding="UTF-8" standalone="no"?>
<!DOCTYPE svg PUBLIC "-//W3C//DTD SVG 1.1//EN"
 "http://www.w3.org/Graphics/SVG/1.1/DTD/svg11.dtd">
<!-- Generated by graphviz version 2.40.1 (20161225.0304)
 -->
<!-- Title: a_graph Pages: 1 -->
<svg width="1892pt" height="281pt"
 viewBox="0.00 0.00 1892.00 281.00" xmlns="http://www.w3.org/2000/svg" xmlns:xlink="http://www.w3.org/1999/xlink">
<g id="graph0" class="graph" transform="scale(1 1) rotate(0) translate(4 277)">
<title>a_graph</title>
<polygon fill="#ffffff" stroke="transparent" points="-4,4 -4,-277 1888,-277 1888,4 -4,4"/>
<!-- T22335 -->
<g id="node1" class="node">
<title>T22335</title>
<polygon fill="none" stroke="#0058ad" points="727.5,-243.5 727.5,-272.5 1586.5,-272.5 1586.5,-243.5 727.5,-243.5"/>
<text text-anchor="middle" x="1157" y="-254.3" font-family="Times,serif" font-size="14.00" fill="#0058ad">r 112 [1 2 3 4 6 5 10 11 12 13 14 15 17 16 18 19 20 21 22 24 23 25 26 29 30 27 28 31 33 37 34 35 36 39 40 38 42 43 46 45 48 47 49 53 54 55 56 57 58]</text>
</g>
<!-- T22339 -->
<g id="node2" class="node">
<title>T22339</title>
<polygon fill="none" stroke="#0058ad" points="419,-162.5 419,-191.5 1835,-191.5 1835,-162.5 419,-162.5"/>
<text text-anchor="middle" x="451" y="-173.3" font-family="Times,serif" font-size="14.00" fill="#0058ad">a 112 59</text>
<polyline fill="none" stroke="#0058ad" points="483,-162.5 483,-191.5 "/>
<text text-anchor="middle" x="721" y="-173.3" font-family="Times,serif" font-size="14.00" fill="#0058ad">r 113 [1 2 4 5 3 6 7 8 9 11 10 12 13 14 15 16 17 18 20 19 21 23 22 24 25 26 27 28]</text>
<polyline fill="none" stroke="#0058ad" points="959,-162.5 959,-191.5 "/>
<text text-anchor="middle" x="1397" y="-173.3" font-family="Times,serif" font-size="14.00" fill="#0058ad">r 112 [1 2 3 4 6 5 10 11 12 13 14 15 17 16 18 19 20 21 22 24 23 25 26 29 30 27 28 31 33 37 34 35 36 39 40 38 42 43 46 45 48 47 49 53 54 55 56 57 58 59]</text>
</g>
<!-- T22335&#45;&gt;T22339 -->
<g id="edge1" class="edge">
<title>T22335:f0&#45;&gt;T22339:f0</title>
<path fill="none" stroke="#5b00c0" d="M863.4706,-243.4991C690.7702,-233.1492 498.5154,-217.7711 458.5256,-199.0468"/>
<polygon fill="#5b00c0" stroke="#5b00c0" points="460.6918,-196.2802 451,-192 455.9073,-201.3899 460.6918,-196.2802"/>
<text text-anchor="middle" x="610.5" y="-213.8" font-family="Times,serif" font-size="14.00" fill="#5b00c0">rw</text>
</g>
<!-- T22337 -->
<g id="node3" class="node">
<title>T22337</title>
<polygon fill="none" stroke="#0058ad" points="453,-81.5 453,-110.5 1835,-110.5 1835,-81.5 453,-81.5"/>
<text text-anchor="middle" x="874" y="-92.3" font-family="Times,serif" font-size="14.00" fill="#0058ad">r 112 [1 2 3 4 6 5 10 11 12 13 14 15 17 16 18 19 20 21 22 24 23 25 26 29 30 27 28 31 33 37 34 35 36 39 40 38 42 43 46 45 48 47 49 53 54 55 56 57]</text>
<polyline fill="none" stroke="#0058ad" points="1295,-81.5 1295,-110.5 "/>
<text text-anchor="middle" x="1533" y="-92.3" font-family="Times,serif" font-size="14.00" fill="#0058ad">r 113 [1 2 4 5 3 6 7 8 9 11 10 12 13 14 15 16 17 18 20 19 21 23 22 24 25 26 27 28]</text>
<polyline fill="none" stroke="#0058ad" points="1771,-81.5 1771,-110.5 "/>
<text text-anchor="middle" x="1803" y="-92.3" font-family="Times,serif" font-size="14.00" fill="#0058ad">a 113 29</text>
</g>
<!-- T22339&#45;&gt;T22337 -->
<g id="edge2" class="edge">
<title>T22339:f1&#45;&gt;T22337:f2</title>
<path fill="none" stroke="#5b00c0" d="M721,-162C721,75.1853 1771.533,-339.2454 1802.3103,-121.1503"/>
<polygon fill="#5b00c0" stroke="#5b00c0" points="1805.8139,-121.2143 1803,-111 1798.83,-120.7397 1805.8139,-121.2143"/>
<text text-anchor="middle" x="1804.5" y="-132.8" font-family="Times,serif" font-size="14.00" fill="#5b00c0">rw</text>
</g>
<!-- T22333 -->
<g id="node4" class="node">
<title>T22333</title>
<polygon fill="none" stroke="#0058ad" points="0,-.5 0,-29.5 970,-29.5 970,-.5 0,-.5"/>
<text text-anchor="middle" x="421" y="-11.3" font-family="Times,serif" font-size="14.00" fill="#0058ad">r 112 [1 2 3 4 6 5 10 11 12 13 14 15 17 16 18 19 20 21 22 24 23 25 26 29 30 27 28 31 33 37 34 35 36 39 40 38 42 43 46 45 48 47 49 53 54 55 56 57]</text>
<polyline fill="none" stroke="#0058ad" points="842,-.5 842,-29.5 "/>
<text text-anchor="middle" x="874" y="-11.3" font-family="Times,serif" font-size="14.00" fill="#0058ad">a 112 58</text>
<polyline fill="none" stroke="#0058ad" points="906,-.5 906,-29.5 "/>
<text text-anchor="middle" x="938" y="-11.3" font-family="Times,serif" font-size="14.00" fill="#0058ad">a 102 56</text>
</g>
<!-- T22337&#45;&gt;T22333 -->
<g id="edge3" class="edge">
<title>T22337:f0&#45;&gt;T22333:f1</title>
<path fill="none" stroke="#5b00c0" d="M874,-81C874,-62.2292 874,-55.1168 874,-40.3535"/>
<polygon fill="#5b00c0" stroke="#5b00c0" points="877.5001,-40 874,-30 870.5001,-40 877.5001,-40"/>
<text text-anchor="middle" x="881.5" y="-51.8" font-family="Times,serif" font-size="14.00" fill="#5b00c0">rw</text>
</g>
<!-- T22333&#45;&gt;T22335 -->
<g id="edge4" class="edge">
<title>T22333:f1&#45;&gt;T22335:f0</title>
<path fill="none" stroke="#c000a5" d="M874,-30C874,-83.9633 1806.8574,-41.8532 1844,-81 1877.9558,-116.788 1877.1741,-155.4862 1844,-192 1821.1342,-217.1678 1683.4652,-232.9929 1537.3022,-242.8121"/>
<polygon fill="#c000a5" stroke="#c000a5" points="1536.9619,-239.3269 1527.2148,-243.4795 1537.4241,-246.3116 1536.9619,-239.3269"/>
<text text-anchor="middle" x="1876.5" y="-132.8" font-family="Times,serif" font-size="14.00" fill="#c000a5">wr</text>
</g>
<!-- T22333&#45;&gt;T22339 -->
<g id="edge5" class="edge">
<title>T22333:f1&#45;&gt;T22339:f0</title>
<path fill="none" stroke="#c02700" d="M874,-30C874,-130.6402 493.3184,-8.0383 424,-81 347.6701,-161.3416 385.2254,-174.4667 408.6911,-176.5929"/>
<polygon fill="#c02700" stroke="#c02700" points="408.8697,-180.1026 419,-177 409.1459,-173.1081 408.8697,-180.1026"/>
<text text-anchor="middle" x="434" y="-92.3" font-family="Times,serif" font-size="14.00" fill="#c02700">ww</text>
</g>
</g>
</svg>
