<?xml version="1.0" encoding="UTF-8" standalone="no"?>
<!DOCTYPE svg PUBLIC "-//W3C//DTD SVG 1.1//EN"
 "http://www.w3.org/Graphics/SVG/1.1/DTD/svg11.dtd">
<!-- Generated by graphviz version 2.40.1 (20161225.0304)
 -->
<!-- Title: a_graph Pages: 1 -->
<svg width="5487pt" height="119pt"
 viewBox="0.00 0.00 5487.00 119.00" xmlns="http://www.w3.org/2000/svg" xmlns:xlink="http://www.w3.org/1999/xlink">
<g id="graph0" class="graph" transform="scale(1 1) rotate(0) translate(4 115)">
<title>a_graph</title>
<polygon fill="#ffffff" stroke="transparent" points="-4,4 -4,-115 5483,-115 5483,4 -4,4"/>
<!-- T11065 -->
<g id="node1" class="node">
<title>T11065</title>
<polygon fill="none" stroke="#0058ad" points="3176.5,-81.5 3176.5,-110.5 3460.5,-110.5 3460.5,-81.5 3176.5,-81.5"/>
<text text-anchor="middle" x="3231.5" y="-92.3" font-family="Times,serif" font-size="14.00" fill="#0058ad">r 58 [1 2 3 4 5 6]</text>
<polyline fill="none" stroke="#0058ad" points="3286.5,-81.5 3286.5,-110.5 "/>
<text text-anchor="middle" x="3318.5" y="-92.3" font-family="Times,serif" font-size="14.00" fill="#0058ad">a 57 126</text>
<polyline fill="none" stroke="#0058ad" points="3350.5,-81.5 3350.5,-110.5 "/>
<text text-anchor="middle" x="3405.5" y="-92.3" font-family="Times,serif" font-size="14.00" fill="#0058ad">r 58 [1 2 3 4 5 6]</text>
</g>
<!-- T11067 -->
<g id="node2" class="node">
<title>T11067</title>
<polygon fill="none" stroke="#0058ad" points="0,-.5 0,-29.5 5479,-29.5 5479,-.5 0,-.5"/>
<text text-anchor="middle" x="1097.5" y="-11.3" font-family="Times,serif" font-size="14.00" fill="#0058ad">r 57 [1 4 2 3 5 6 9 10 7 8 12 11 14 15 13 17 19 20 21 16 22 18 23 24 25 26 27 30 28 29 33 34 35 36 37 38 39 41 43 40 42 45 46 44 48 49 50 51 52 53 54 55 56 57 58 59 61 60 62 63 64 65 66 67 68 69 70 71 72 73 74 75 76 77 78 79 80 81 82 83 84 85 87 88 86 89 90 91 92 93 95 96 97 98 99 94 100 101 102 104 105 108 109 110 111 112 113 114 115 116 117 118 119 121 120 122 123 124 125]</text>
<polyline fill="none" stroke="#0058ad" points="2195,-.5 2195,-29.5 "/>
<text text-anchor="middle" x="2714.5" y="-11.3" font-family="Times,serif" font-size="14.00" fill="#0058ad">r 52 [1 2 3 4 5 6 7 8 9 10 11 13 12 14 15 16 17 19 18 20 21 23 24 26 25 27 28 30 29 31 32 33 34 36 35 37 38 40 41 42 43 44 45 46 47 48 50 49 51 52 53 54 56 55 57 58 59 60 61 62 63]</text>
<polyline fill="none" stroke="#0058ad" points="3234,-.5 3234,-29.5 "/>
<text text-anchor="middle" x="4331.5" y="-11.3" font-family="Times,serif" font-size="14.00" fill="#0058ad">r 57 [1 4 2 3 5 6 9 10 7 8 12 11 14 15 13 17 19 20 21 16 22 18 23 24 25 26 27 30 28 29 33 34 35 36 37 38 39 41 43 40 42 45 46 44 48 49 50 51 52 53 54 55 56 57 58 59 61 60 62 63 64 65 66 67 68 69 70 71 72 73 74 75 76 77 78 79 80 81 82 83 84 85 87 88 86 89 90 91 92 93 95 96 97 98 99 94 100 101 102 104 105 108 109 110 111 112 113 114 115 116 117 118 119 121 120 122 123 124 125]</text>
<polyline fill="none" stroke="#0058ad" points="5429,-.5 5429,-29.5 "/>
<text text-anchor="middle" x="5454" y="-11.3" font-family="Times,serif" font-size="14.00" fill="#0058ad">a 58 7</text>
</g>
<!-- T11065&#45;&gt;T11067 -->
<g id="edge1" class="edge">
<title>T11065:f0&#45;&gt;T11067:f3</title>
<path fill="none" stroke="#5b00c0" d="M3231.5,-81C3231.5,-58.6316 3248.5786,-55.9147 3269.5,-48 3296.7762,-37.6813 5289.2619,-58.5962 5444.8832,-33.317"/>
<polygon fill="#5b00c0" stroke="#5b00c0" points="5446.1878,-36.5695 5454.5,-30 5443.9053,-29.952 5446.1878,-36.5695"/>
<text text-anchor="middle" x="3277" y="-51.8" font-family="Times,serif" font-size="14.00" fill="#5b00c0">rw</text>
</g>
<!-- T11067&#45;&gt;T11065 -->
<g id="edge2" class="edge">
<title>T11067:f0&#45;&gt;T11065:f1</title>
<path fill="none" stroke="#5b00c0" d="M1097.5,-30C1097.5,-60.376 3256.3975,-36.4696 3284.5,-48 3300.3294,-54.4948 3312.8813,-58.3188 3317.0318,-70.8198"/>
<polygon fill="#5b00c0" stroke="#5b00c0" points="3313.6083,-71.602 3318.5,-81 3320.5366,-70.6028 3313.6083,-71.602"/>
<text text-anchor="middle" x="3319" y="-51.8" font-family="Times,serif" font-size="14.00" fill="#5b00c0">rw</text>
</g>
</g>
</svg>
