<?xml version="1.0" encoding="UTF-8" standalone="no"?>
<!DOCTYPE svg PUBLIC "-//W3C//DTD SVG 1.1//EN"
 "http://www.w3.org/Graphics/SVG/1.1/DTD/svg11.dtd">
<!-- Generated by graphviz version 2.40.1 (20161225.0304)
 -->
<!-- Title: a_graph Pages: 1 -->
<svg width="2409pt" height="119pt"
 viewBox="0.00 0.00 2408.50 119.00" xmlns="http://www.w3.org/2000/svg" xmlns:xlink="http://www.w3.org/1999/xlink">
<g id="graph0" class="graph" transform="scale(1 1) rotate(0) translate(4 115)">
<title>a_graph</title>
<polygon fill="#ffffff" stroke="transparent" points="-4,4 -4,-115 2404.5,-115 2404.5,4 -4,4"/>
<!-- T14768 -->
<g id="node1" class="node">
<title>T14768</title>
<polygon fill="none" stroke="#0058ad" points="781.5,-81.5 781.5,-110.5 2400.5,-110.5 2400.5,-81.5 781.5,-81.5"/>
<text text-anchor="middle" x="810" y="-92.3" font-family="Times,serif" font-size="14.00" fill="#0058ad">a 68 91</text>
<polyline fill="none" stroke="#0058ad" points="838.5,-81.5 838.5,-110.5 "/>
<text text-anchor="middle" x="1361.5" y="-92.3" font-family="Times,serif" font-size="14.00" fill="#0058ad">r 75 [1 3 4 5 7 6 8 9 11 12 13 14 15 16 19 17 18 20 21 22 23 24 26 27 28 25 30 33 34 35 36 37 38 39 40 41 42 43 44 45 46 48 47 49 50 51 52 53 54 55 56 57 58 59 60 61 62 63 64 65 66]</text>
<polyline fill="none" stroke="#0058ad" points="1884.5,-81.5 1884.5,-110.5 "/>
<text text-anchor="middle" x="2114" y="-92.3" font-family="Times,serif" font-size="14.00" fill="#0058ad">r 77 [1 2 3 4 5 6 7 10 11 12 8 14 15 13 16 17 18 19 21 20 22 24 25 23 26 27 29]</text>
<polyline fill="none" stroke="#0058ad" points="2343.5,-81.5 2343.5,-110.5 "/>
<text text-anchor="middle" x="2372" y="-92.3" font-family="Times,serif" font-size="14.00" fill="#0058ad">a 77 28</text>
</g>
<!-- T14767 -->
<g id="node2" class="node">
<title>T14767</title>
<polygon fill="none" stroke="#0058ad" points="0,-.5 0,-29.5 2396,-29.5 2396,-.5 0,-.5"/>
<text text-anchor="middle" x="229.5" y="-11.3" font-family="Times,serif" font-size="14.00" fill="#0058ad">r 77 [1 2 3 4 5 6 7 10 11 12 8 14 15 13 16 17 18 19 21 20 22 24 25 23 26 27 29]</text>
<polyline fill="none" stroke="#0058ad" points="459,-.5 459,-29.5 "/>
<text text-anchor="middle" x="487.5" y="-11.3" font-family="Times,serif" font-size="14.00" fill="#0058ad">a 75 67</text>
<polyline fill="none" stroke="#0058ad" points="516,-.5 516,-29.5 "/>
<text text-anchor="middle" x="745.5" y="-11.3" font-family="Times,serif" font-size="14.00" fill="#0058ad">r 77 [1 2 3 4 5 6 7 10 11 12 8 14 15 13 16 17 18 19 21 20 22 24 25 23 26 27 29]</text>
<polyline fill="none" stroke="#0058ad" points="975,-.5 975,-29.5 "/>
<text text-anchor="middle" x="1685.5" y="-11.3" font-family="Times,serif" font-size="14.00" fill="#0058ad">r 68 [3 4 5 6 8 9 10 11 12 13 14 15 16 17 18 20 21 22 23 24 25 26 27 28 31 32 33 34 35 36 37 38 39 40 41 42 43 44 45 46 47 48 49 50 52 53 54 55 56 57 59 60 61 62 63 64 65 66 67 68 69 70 71 72 73 74 75 76 77 78 79 80 81 82 83 84 85 87 86 88 89 90]</text>
</g>
<!-- T14768&#45;&gt;T14767 -->
<g id="edge1" class="edge">
<title>T14768:f1&#45;&gt;T14767:f1</title>
<path fill="none" stroke="#5b00c0" d="M1361,-81C1361,8.8553 1047.6939,-53.3837 958,-48 946.0538,-47.283 562.4214,-43.7768 496.5728,-33.1803"/>
<polygon fill="#5b00c0" stroke="#5b00c0" points="497.5935,-29.8314 487,-30 495.3865,-36.4744 497.5935,-29.8314"/>
<text text-anchor="middle" x="1363.5" y="-51.8" font-family="Times,serif" font-size="14.00" fill="#5b00c0">rw</text>
</g>
<!-- T14767&#45;&gt;T14768 -->
<g id="edge2" class="edge">
<title>T14767:f3&#45;&gt;T14768:f0</title>
<path fill="none" stroke="#5b00c0" d="M1686,-30C1686,-50.756 959.5608,-45.1598 939,-48 884.041,-55.5918 818.7512,-25.9396 810.8047,-70.9659"/>
<polygon fill="#5b00c0" stroke="#5b00c0" points="807.3107,-70.7522 810,-81 814.2883,-71.3118 807.3107,-70.7522"/>
<text text-anchor="middle" x="946.5" y="-51.8" font-family="Times,serif" font-size="14.00" fill="#5b00c0">rw</text>
</g>
</g>
</svg>
