<?xml version="1.0" encoding="UTF-8" standalone="no"?>
<!DOCTYPE svg PUBLIC "-//W3C//DTD SVG 1.1//EN"
 "http://www.w3.org/Graphics/SVG/1.1/DTD/svg11.dtd">
<!-- Generated by graphviz version 2.40.1 (20161225.0304)
 -->
<!-- Title: a_graph Pages: 1 -->
<svg width="2952pt" height="119pt"
 viewBox="0.00 0.00 2952.00 119.00" xmlns="http://www.w3.org/2000/svg" xmlns:xlink="http://www.w3.org/1999/xlink">
<g id="graph0" class="graph" transform="scale(1 1) rotate(0) translate(4 115)">
<title>a_graph</title>
<polygon fill="#ffffff" stroke="transparent" points="-4,4 -4,-115 2948,-115 2948,4 -4,4"/>
<!-- T8001 -->
<g id="node1" class="node">
<title>T8001</title>
<polygon fill="none" stroke="#0058ad" points="377,-81.5 377,-110.5 2944,-110.5 2944,-81.5 377,-81.5"/>
<text text-anchor="middle" x="727.5" y="-92.3" font-family="Times,serif" font-size="14.00" fill="#0058ad">r 43 [2 3 4 6 7 5 8 9 10 11 12 13 14 15 16 17 18 19 22 23 24 25 26 27 28 30 31 32 33 34 35 36 38 37 39 40 42 43 44 45 46]</text>
<polyline fill="none" stroke="#0058ad" points="1078,-81.5 1078,-110.5 "/>
<text text-anchor="middle" x="1106.5" y="-92.3" font-family="Times,serif" font-size="14.00" fill="#0058ad">a 44 67</text>
<polyline fill="none" stroke="#0058ad" points="1135,-81.5 1135,-110.5 "/>
<text text-anchor="middle" x="1485.5" y="-92.3" font-family="Times,serif" font-size="14.00" fill="#0058ad">r 43 [2 3 4 6 7 5 8 9 10 11 12 13 14 15 16 17 18 19 22 23 24 25 26 27 28 30 31 32 33 34 35 36 38 37 39 40 42 43 44 45 46]</text>
<polyline fill="none" stroke="#0058ad" points="1836,-81.5 1836,-110.5 "/>
<text text-anchor="middle" x="2390" y="-92.3" font-family="Times,serif" font-size="14.00" fill="#0058ad">r 44 [1 3 2 4 6 7 8 5 9 10 11 12 13 14 15 16 17 18 19 20 21 22 23 24 25 26 27 28 29 31 32 33 34 35 36 37 38 39 40 41 42 44 45 46 47 48 49 51 53 54 50 52 55 56 57 58 59 60 61 62 63 64 65 66 67]</text>
</g>
<!-- T7999 -->
<g id="node2" class="node">
<title>T7999</title>
<polygon fill="none" stroke="#0058ad" points="0,-.5 0,-29.5 2289,-29.5 2289,-.5 0,-.5"/>
<text text-anchor="middle" x="545.5" y="-11.3" font-family="Times,serif" font-size="14.00" fill="#0058ad">r 44 [1 3 2 4 6 7 8 5 9 10 11 12 13 14 15 16 17 18 19 20 21 22 23 24 25 26 27 28 29 31 32 33 34 35 36 37 38 39 40 41 42 44 45 46 47 48 49 51 53 54 50 52 55 56 57 58 59 60 61 62 63 64 65 66]</text>
<polyline fill="none" stroke="#0058ad" points="1091,-.5 1091,-29.5 "/>
<text text-anchor="middle" x="1119.5" y="-11.3" font-family="Times,serif" font-size="14.00" fill="#0058ad">a 43 41</text>
<polyline fill="none" stroke="#0058ad" points="1148,-.5 1148,-29.5 "/>
<text text-anchor="middle" x="1693.5" y="-11.3" font-family="Times,serif" font-size="14.00" fill="#0058ad">r 44 [1 3 2 4 6 7 8 5 9 10 11 12 13 14 15 16 17 18 19 20 21 22 23 24 25 26 27 28 29 31 32 33 34 35 36 37 38 39 40 41 42 44 45 46 47 48 49 51 53 54 50 52 55 56 57 58 59 60 61 62 63 64 65 66]</text>
<polyline fill="none" stroke="#0058ad" points="2239,-.5 2239,-29.5 "/>
<text text-anchor="middle" x="2264" y="-11.3" font-family="Times,serif" font-size="14.00" fill="#0058ad">a 4 83</text>
</g>
<!-- T8001&#45;&gt;T7999 -->
<g id="edge1" class="edge">
<title>T8001:f0&#45;&gt;T7999:f1</title>
<path fill="none" stroke="#5b00c0" d="M727.5,-81C727.5,-3.1613 822.3758,-58.5224 899.5,-48 920.9532,-45.0731 1075.9868,-52.4002 1112.0282,-37.283"/>
<polygon fill="#5b00c0" stroke="#5b00c0" points="1114.7821,-39.4864 1119.5,-30 1109.896,-34.4737 1114.7821,-39.4864"/>
<text text-anchor="middle" x="907" y="-51.8" font-family="Times,serif" font-size="14.00" fill="#5b00c0">rw</text>
</g>
<!-- T7999&#45;&gt;T8001 -->
<g id="edge2" class="edge">
<title>T7999:f0&#45;&gt;T8001:f1</title>
<path fill="none" stroke="#5b00c0" d="M545.5,-30C545.5,-50.5244 894.0985,-45.7575 914.5,-48 996.8681,-57.0536 1097.433,.3005 1105.9232,-70.6499"/>
<polygon fill="#5b00c0" stroke="#5b00c0" points="1102.4489,-71.2103 1106.5,-81 1109.4381,-70.8207 1102.4489,-71.2103"/>
<text text-anchor="middle" x="1113" y="-51.8" font-family="Times,serif" font-size="14.00" fill="#5b00c0">rw</text>
</g>
</g>
</svg>
