<?xml version="1.0" encoding="UTF-8" standalone="no"?>
<!DOCTYPE svg PUBLIC "-//W3C//DTD SVG 1.1//EN"
 "http://www.w3.org/Graphics/SVG/1.1/DTD/svg11.dtd">
<!-- Generated by graphviz version 2.40.1 (20161225.0304)
 -->
<!-- Title: a_graph Pages: 1 -->
<svg width="4541pt" height="200pt"
 viewBox="0.00 0.00 4541.00 200.00" xmlns="http://www.w3.org/2000/svg" xmlns:xlink="http://www.w3.org/1999/xlink">
<g id="graph0" class="graph" transform="scale(1 1) rotate(0) translate(4 196)">
<title>a_graph</title>
<polygon fill="#ffffff" stroke="transparent" points="-4,4 -4,-196 4537,-196 4537,4 -4,4"/>
<!-- T30165 -->
<g id="node1" class="node">
<title>T30165</title>
<polygon fill="none" stroke="#0058ad" points="0,-162.5 0,-191.5 2788,-191.5 2788,-162.5 0,-162.5"/>
<text text-anchor="middle" x="605.5" y="-173.3" font-family="Times,serif" font-size="14.00" fill="#0058ad">r 131 [1 2 7 8 9 10 11 12 13 14 15 16 17 18 19 20 21 22 23 24 25 26 27 28 29 30 31 32 33 34 35 36 37 38 39 40 41 42 43 45 46 47 48 49 50 51 52 53 54 55 56 57 58 59 60 61 62 63 64 65 67 68 69 70 71 72 73 74 75]</text>
<polyline fill="none" stroke="#0058ad" points="1211,-162.5 1211,-191.5 "/>
<text text-anchor="middle" x="1243" y="-173.3" font-family="Times,serif" font-size="14.00" fill="#0058ad">a 150 41</text>
<polyline fill="none" stroke="#0058ad" points="1275,-162.5 1275,-191.5 "/>
<text text-anchor="middle" x="1307" y="-173.3" font-family="Times,serif" font-size="14.00" fill="#0058ad">a 150 42</text>
<polyline fill="none" stroke="#0058ad" points="1339,-162.5 1339,-191.5 "/>
<text text-anchor="middle" x="2063.5" y="-173.3" font-family="Times,serif" font-size="14.00" fill="#0058ad">r 151 [2 3 4 7 8 1 9 6 12 13 14 10 11 15 16 17 18 19 20 21 22 23 24 25 26 27 28 29 30 32 33 34 35 31 36 37 38 39 40 41 42 43 44 45 46 47 48 49 50 51 53 56 57 58 59 62 63 64 65 60 66 67 69 68 70 71 72 73 74 75 76 77 78 80 81 82 83 84 85 86 87 88 89 90]</text>
</g>
<!-- T30163 -->
<g id="node3" class="node">
<title>T30163</title>
<polygon fill="none" stroke="#0058ad" points="957,-81.5 957,-110.5 4533,-110.5 4533,-81.5 957,-81.5"/>
<text text-anchor="middle" x="1681.5" y="-92.3" font-family="Times,serif" font-size="14.00" fill="#0058ad">r 151 [2 3 4 7 8 1 9 6 12 13 14 10 11 15 16 17 18 19 20 21 22 23 24 25 26 27 28 29 30 32 33 34 35 31 36 37 38 39 40 41 42 43 44 45 46 47 48 49 50 51 53 56 57 58 59 62 63 64 65 60 66 67 69 68 70 71 72 73 74 75 76 77 78 80 81 82 83 84 85 86 87 88 89 90]</text>
<polyline fill="none" stroke="#0058ad" points="2406,-81.5 2406,-110.5 "/>
<text text-anchor="middle" x="2704.5" y="-92.3" font-family="Times,serif" font-size="14.00" fill="#0058ad">r 150 [1 2 3 4 5 6 7 8 9 10 14 15 16 17 18 19 20 21 22 23 24 25 26 30 27 28 31 32 33 34 35 36 37 38 39]</text>
<polyline fill="none" stroke="#0058ad" points="3003,-81.5 3003,-110.5 "/>
<text text-anchor="middle" x="3035" y="-92.3" font-family="Times,serif" font-size="14.00" fill="#0058ad">a 151 91</text>
<polyline fill="none" stroke="#0058ad" points="3067,-81.5 3067,-110.5 "/>
<text text-anchor="middle" x="3800" y="-92.3" font-family="Times,serif" font-size="14.00" fill="#0058ad">r 151 [2 3 4 7 8 1 9 6 12 13 14 10 11 15 16 17 18 19 20 21 22 23 24 25 26 27 28 29 30 32 33 34 35 31 36 37 38 39 40 41 42 43 44 45 46 47 48 49 50 51 53 56 57 58 59 62 63 64 65 60 66 67 69 68 70 71 72 73 74 75 76 77 78 80 81 82 83 84 85 86 87 88 89 90 91]</text>
</g>
<!-- T30165&#45;&gt;T30163 -->
<g id="edge1" class="edge">
<title>T30165:f3&#45;&gt;T30163:f2</title>
<path fill="none" stroke="#5b00c0" d="M2788,-177C2841.3747,-177 3012.4587,-168.8932 3032.9802,-120.8046"/>
<polygon fill="#5b00c0" stroke="#5b00c0" points="3036.4102,-121.5006 3035,-111 3029.5542,-120.0881 3036.4102,-121.5006"/>
<text text-anchor="middle" x="3034.5" y="-132.8" font-family="Times,serif" font-size="14.00" fill="#5b00c0">rw</text>
</g>
<!-- T30161 -->
<g id="node2" class="node">
<title>T30161</title>
<polygon fill="none" stroke="#0058ad" points="903,-.5 903,-29.5 967,-29.5 967,-.5 903,-.5"/>
<text text-anchor="middle" x="935" y="-11.3" font-family="Times,serif" font-size="14.00" fill="#0058ad">a 150 40</text>
</g>
<!-- T30161&#45;&gt;T30165 -->
<g id="edge2" class="edge">
<title>T30161:f0&#45;&gt;T30165:f1</title>
<path fill="none" stroke="#c02700" d="M928.2192,-29.6482C919.7595,-50.362 908.6124,-88.221 928,-111 971.537,-162.1528 1215.2451,-98.5282 1240.8276,-151.9498"/>
<polygon fill="#c02700" stroke="#c02700" points="1237.4662,-152.9652 1243,-162 1244.3082,-151.4862 1237.4662,-152.9652"/>
<text text-anchor="middle" x="938" y="-92.3" font-family="Times,serif" font-size="14.00" fill="#c02700">ww</text>
</g>
<!-- T30163&#45;&gt;T30161 -->
<g id="edge3" class="edge">
<title>T30163:f1&#45;&gt;T30161:f0</title>
<path fill="none" stroke="#5b00c0" d="M2704,-81C2704,-34.3319 1124.3232,-40.6863 975.3665,-30.6357"/>
<polygon fill="#5b00c0" stroke="#5b00c0" points="975.5217,-27.1322 965.2039,-29.5393 974.7708,-34.0918 975.5217,-27.1322"/>
<text text-anchor="middle" x="2594.5" y="-51.8" font-family="Times,serif" font-size="14.00" fill="#5b00c0">rw</text>
</g>
</g>
</svg>
