<?xml version="1.0" encoding="UTF-8" standalone="no"?>
<!DOCTYPE svg PUBLIC "-//W3C//DTD SVG 1.1//EN"
 "http://www.w3.org/Graphics/SVG/1.1/DTD/svg11.dtd">
<!-- Generated by graphviz version 2.40.1 (20161225.0304)
 -->
<!-- Title: a_graph Pages: 1 -->
<svg width="5751pt" height="362pt"
 viewBox="0.00 0.00 5751.00 362.00" xmlns="http://www.w3.org/2000/svg" xmlns:xlink="http://www.w3.org/1999/xlink">
<g id="graph0" class="graph" transform="scale(1 1) rotate(0) translate(4 358)">
<title>a_graph</title>
<polygon fill="#ffffff" stroke="transparent" points="-4,4 -4,-358 5747,-358 5747,4 -4,4"/>
<!-- T14619 -->
<g id="node1" class="node">
<title>T14619</title>
<polygon fill="none" stroke="#0058ad" points="2812,-324.5 2812,-353.5 4725,-353.5 4725,-324.5 2812,-324.5"/>
<text text-anchor="middle" x="3768.5" y="-335.3" font-family="Times,serif" font-size="14.00" fill="#0058ad">r 71 [1 2 3 4 5 6 7 8 9 10 12 13 11 14 15 16 17 18 19 20 21 22 23 24 26 25 28 29 30 31 32 33 34 35 36 37 38 39 40 41 42 43 44 45 46 47 48 49 50 51 52 54 53 55 56 57 58 59 60 61 62 63 64 65 66 67 68 69 70 71 72 73 74 75 76 77 78 79 82 83 85 84 86 87 88 89 90 91 92 93 94 95 96 98 99 100 102 103 104 105 107 108 109 110 112 113 114]</text>
</g>
<!-- T14623 -->
<g id="node3" class="node">
<title>T14623</title>
<polygon fill="none" stroke="#0058ad" points="1827,-243.5 1827,-272.5 3740,-272.5 3740,-243.5 1827,-243.5"/>
<text text-anchor="middle" x="2783.5" y="-254.3" font-family="Times,serif" font-size="14.00" fill="#0058ad">r 71 [1 2 3 4 5 6 7 8 9 10 12 13 11 14 15 16 17 18 19 20 21 22 23 24 26 25 28 29 30 31 32 33 34 35 36 37 38 39 40 41 42 43 44 45 46 47 48 49 50 51 52 54 53 55 56 57 58 59 60 61 62 63 64 65 66 67 68 69 70 71 72 73 74 75 76 77 78 79 82 83 85 84 86 87 88 89 90 91 92 93 94 95 96 98 99 100 102 103 104 105 107 108 109 110 112 113 114]</text>
</g>
<!-- T14619&#45;&gt;T14623 -->
<g id="edge1" class="edge">
<title>T14619&#45;&gt;T14623</title>
<path fill="none" stroke="#0050c0" d="M3592.1176,-324.4955C3416.7926,-310.0779 3148.9007,-288.0482 2970.0866,-273.3437"/>
<polygon fill="#0050c0" stroke="#0050c0" points="2970.2949,-269.8491 2960.0416,-272.5176 2969.7211,-276.8255 2970.2949,-269.8491"/>
<text text-anchor="middle" x="3368" y="-294.8" font-family="Times,serif" font-size="14.00" fill="#0050c0">rt</text>
</g>
<!-- T14625 -->
<g id="node5" class="node">
<title>T14625</title>
<polygon fill="none" stroke="#0058ad" points="3796,-162.5 3796,-191.5 5743,-191.5 5743,-162.5 3796,-162.5"/>
<text text-anchor="middle" x="4737.5" y="-173.3" font-family="Times,serif" font-size="14.00" fill="#0058ad">r 76 [1 2 3 4 5 6 7 8 9 11 12 10 13 14 15 16 17 18 20 21 22 23 24 25 27 28 26 19 29 30 31 32 33 34 35 36 37 38 39 40 41 42 43 45 44 48 49 50 46 51 52 53 54 56 55 59 57 58 60 63 64 65 66 67 61 62 68 69 70 71 72 76 75 77 78 80 81 82 84 79 83 87 85 86 88 89 90 91 92 93 94 95 96 97 98 99 100 101 102 103 104 106 107 108 109 105]</text>
<polyline fill="none" stroke="#0058ad" points="5679,-162.5 5679,-191.5 "/>
<text text-anchor="middle" x="5711" y="-173.3" font-family="Times,serif" font-size="14.00" fill="#0058ad">a 71 115</text>
</g>
<!-- T14619&#45;&gt;T14625 -->
<g id="edge2" class="edge">
<title>T14619:f0&#45;&gt;T14625:f1</title>
<path fill="none" stroke="#5b00c0" d="M4285.3611,-324.4986C4836.2333,-305.6648 5638.9149,-267.123 5706.8782,-201.0648"/>
<polygon fill="#5b00c0" stroke="#5b00c0" points="5710.0758,-202.4987 5711.5,-192 5703.8396,-199.319 5710.0758,-202.4987"/>
<text text-anchor="middle" x="5556" y="-254.3" font-family="Times,serif" font-size="14.00" fill="#5b00c0">rw</text>
</g>
<!-- T14621 -->
<g id="node2" class="node">
<title>T14621</title>
<polygon fill="none" stroke="#0058ad" points="0,-.5 0,-29.5 5721,-29.5 5721,-.5 0,-.5"/>
<text text-anchor="middle" x="953.5" y="-11.3" font-family="Times,serif" font-size="14.00" fill="#0058ad">r 76 [1 2 3 4 5 6 7 8 9 11 12 10 13 14 15 16 17 18 20 21 22 23 24 25 27 28 26 19 29 30 31 32 33 34 35 36 37 38 39 40 41 42 43 45 44 48 49 50 46 51 52 53 54 56 55 59 57 58 60 63 64 65 66 67 61 62 68 69 70 71 72 76 75 77 78 80 81 82 84 79 83 87 85 86 88 89 90 91 92 93 94 95 96 97 98 99 100 101 102 103 104 106 107 108 109 105 110]</text>
<polyline fill="none" stroke="#0058ad" points="1907,-.5 1907,-29.5 "/>
<text text-anchor="middle" x="2860.5" y="-11.3" font-family="Times,serif" font-size="14.00" fill="#0058ad">r 76 [1 2 3 4 5 6 7 8 9 11 12 10 13 14 15 16 17 18 20 21 22 23 24 25 27 28 26 19 29 30 31 32 33 34 35 36 37 38 39 40 41 42 43 45 44 48 49 50 46 51 52 53 54 56 55 59 57 58 60 63 64 65 66 67 61 62 68 69 70 71 72 76 75 77 78 80 81 82 84 79 83 87 85 86 88 89 90 91 92 93 94 95 96 97 98 99 100 101 102 103 104 106 107 108 109 105 110]</text>
<polyline fill="none" stroke="#0058ad" points="3814,-.5 3814,-29.5 "/>
<text text-anchor="middle" x="4767.5" y="-11.3" font-family="Times,serif" font-size="14.00" fill="#0058ad">r 76 [1 2 3 4 5 6 7 8 9 11 12 10 13 14 15 16 17 18 20 21 22 23 24 25 27 28 26 19 29 30 31 32 33 34 35 36 37 38 39 40 41 42 43 45 44 48 49 50 46 51 52 53 54 56 55 59 57 58 60 63 64 65 66 67 61 62 68 69 70 71 72 76 75 77 78 80 81 82 84 79 83 87 85 86 88 89 90 91 92 93 94 95 96 97 98 99 100 101 102 103 104 106 107 108 109 105 110]</text>
</g>
<!-- T14621&#45;&gt;T14623 -->
<g id="edge3" class="edge">
<title>T14621&#45;&gt;T14623</title>
<path fill="none" stroke="#0050c0" d="M2687.8295,-29.5245C2568.9013,-41.3283 2429.0685,-59.5095 2410.5,-81 2331.8644,-172.0101 2516.5726,-219.758 2653.181,-241.856"/>
<polygon fill="#0050c0" stroke="#0050c0" points="2652.9168,-245.3578 2663.3416,-243.4671 2654.0131,-238.4442 2652.9168,-245.3578"/>
<text text-anchor="middle" x="2401" y="-132.8" font-family="Times,serif" font-size="14.00" fill="#0050c0">rt</text>
</g>
<!-- T14623&#45;&gt;T14625 -->
<g id="edge4" class="edge">
<title>T14623:f0&#45;&gt;T14625:f1</title>
<path fill="none" stroke="#5b00c0" d="M3016.6581,-243.4931C3208.4854,-232.208 3487.5073,-217.2829 3731.5,-210 3744.6673,-209.607 5549.8082,-206.067 5701.3886,-193.6803"/>
<polygon fill="#5b00c0" stroke="#5b00c0" points="5702.2091,-197.092 5711.5,-192 5701.0615,-190.1867 5702.2091,-197.092"/>
<text text-anchor="middle" x="3739" y="-213.8" font-family="Times,serif" font-size="14.00" fill="#5b00c0">rw</text>
</g>
<!-- T14617 -->
<g id="node4" class="node">
<title>T14617</title>
<polygon fill="none" stroke="#0058ad" points="2419,-81.5 2419,-110.5 5118,-110.5 5118,-81.5 2419,-81.5"/>
<text text-anchor="middle" x="2795" y="-92.3" font-family="Times,serif" font-size="14.00" fill="#0058ad">r 75 [1 3 4 5 7 6 8 9 11 12 13 14 15 16 19 17 18 20 21 22 23 24 26 27 28 25 30 33 34 35 36 37 38 39 40 41 42 43 44 45 46 48 47 49]</text>
<polyline fill="none" stroke="#0058ad" points="3171,-81.5 3171,-110.5 "/>
<text text-anchor="middle" x="4112.5" y="-92.3" font-family="Times,serif" font-size="14.00" fill="#0058ad">r 76 [1 2 3 4 5 6 7 8 9 11 12 10 13 14 15 16 17 18 20 21 22 23 24 25 27 28 26 19 29 30 31 32 33 34 35 36 37 38 39 40 41 42 43 45 44 48 49 50 46 51 52 53 54 56 55 59 57 58 60 63 64 65 66 67 61 62 68 69 70 71 72 76 75 77 78 80 81 82 84 79 83 87 85 86 88 89 90 91 92 93 94 95 96 97 98 99 100 101 102 103 104 106 107 108 109 105]</text>
<polyline fill="none" stroke="#0058ad" points="5054,-81.5 5054,-110.5 "/>
<text text-anchor="middle" x="5086" y="-92.3" font-family="Times,serif" font-size="14.00" fill="#0058ad">a 76 110</text>
</g>
<!-- T14617&#45;&gt;T14619 -->
<g id="edge6" class="edge">
<title>T14617&#45;&gt;T14619</title>
<path fill="none" stroke="#0050c0" d="M3768.5,-110.6408C3768.5,-150.921 3768.5,-263.7343 3768.5,-314.1325"/>
<polygon fill="#0050c0" stroke="#0050c0" points="3765.0001,-314.165 3768.5,-324.1651 3772.0001,-314.1651 3765.0001,-314.165"/>
<text text-anchor="middle" x="3773" y="-213.8" font-family="Times,serif" font-size="14.00" fill="#0050c0">rt</text>
</g>
<!-- T14617&#45;&gt;T14621 -->
<g id="edge5" class="edge">
<title>T14617:f2&#45;&gt;T14621:f0</title>
<path fill="none" stroke="#c000a5" d="M5086.5,-81C5086.5,145.2649 1073.6971,-247.8048 956.1346,-39.6845"/>
<polygon fill="#c000a5" stroke="#c000a5" points="959.5023,-38.7306 953.5,-30 952.7478,-40.5681 959.5023,-38.7306"/>
<text text-anchor="middle" x="5074" y="-51.8" font-family="Times,serif" font-size="14.00" fill="#c000a5">wr</text>
</g>
<!-- T14625&#45;&gt;T14617 -->
<g id="edge7" class="edge">
<title>T14625:f0&#45;&gt;T14617:f2</title>
<path fill="none" stroke="#5b00c0" d="M4737.5,-162C4737.5,-8.9155 5070.3323,-255.6834 5085.9339,-121.3419"/>
<polygon fill="#5b00c0" stroke="#5b00c0" points="5089.4481,-121.1764 5086.5,-111 5082.4585,-120.7937 5089.4481,-121.1764"/>
<text text-anchor="middle" x="5090" y="-132.8" font-family="Times,serif" font-size="14.00" fill="#5b00c0">rw</text>
</g>
</g>
</svg>
