<?xml version="1.0" encoding="UTF-8" standalone="no"?>
<!DOCTYPE svg PUBLIC "-//W3C//DTD SVG 1.1//EN"
 "http://www.w3.org/Graphics/SVG/1.1/DTD/svg11.dtd">
<!-- Generated by graphviz version 2.40.1 (20161225.0304)
 -->
<!-- Title: a_graph Pages: 1 -->
<svg width="2037pt" height="119pt"
 viewBox="0.00 0.00 2037.00 119.00" xmlns="http://www.w3.org/2000/svg" xmlns:xlink="http://www.w3.org/1999/xlink">
<g id="graph0" class="graph" transform="scale(1 1) rotate(0) translate(4 115)">
<title>a_graph</title>
<polygon fill="#ffffff" stroke="transparent" points="-4,4 -4,-115 2033,-115 2033,4 -4,4"/>
<!-- T19805 -->
<g id="node1" class="node">
<title>T19805</title>
<polygon fill="none" stroke="#0058ad" points="310,-81.5 310,-110.5 1507,-110.5 1507,-81.5 310,-81.5"/>
<text text-anchor="middle" x="342" y="-92.3" font-family="Times,serif" font-size="14.00" fill="#0058ad">a 98 115</text>
<polyline fill="none" stroke="#0058ad" points="374,-81.5 374,-110.5 "/>
<text text-anchor="middle" x="402.5" y="-92.3" font-family="Times,serif" font-size="14.00" fill="#0058ad">a 102 5</text>
<polyline fill="none" stroke="#0058ad" points="431,-81.5 431,-110.5 "/>
<text text-anchor="middle" x="969" y="-92.3" font-family="Times,serif" font-size="14.00" fill="#0058ad">r 101 [3 4 5 6 7 8 9 10 11 12 13 14 15 16 17 18 19 20 21 22 23 24 25 26 27 28 29 30 31 32 33 36 34 35 37 38 39 40 41 44 42 43 47 48 49 50 52 53 45 46 54 51 55 58 59 60 56 57 61 62 64 67]</text>
</g>
<!-- T19807 -->
<g id="node2" class="node">
<title>T19807</title>
<polygon fill="none" stroke="#0058ad" points="0,-.5 0,-29.5 2029,-29.5 2029,-.5 0,-.5"/>
<text text-anchor="middle" x="32" y="-11.3" font-family="Times,serif" font-size="14.00" fill="#0058ad">a 101 65</text>
<polyline fill="none" stroke="#0058ad" points="64,-.5 64,-29.5 "/>
<text text-anchor="middle" x="986" y="-11.3" font-family="Times,serif" font-size="14.00" fill="#0058ad">r 98 [1 4 5 6 7 8 9 10 11 12 15 16 17 18 19 20 21 22 23 24 26 25 27 28 29 30 31 32 33 34 35 36 37 38 39 41 42 43 44 45 46 47 49 50 51 52 53 61 62 63 64 65 66 67 68 69 70 71 72 73 74 75 76 77 79 80 78 81 82 83 84 85 86 87 88 89 90 91 92 93 94 95 96 97 98 100 99 101 102 103 104 105 106 107 108 109 112 110 111 113 114]</text>
<polyline fill="none" stroke="#0058ad" points="1908,-.5 1908,-29.5 "/>
<text text-anchor="middle" x="1936.5" y="-11.3" font-family="Times,serif" font-size="14.00" fill="#0058ad">a 97 28</text>
<polyline fill="none" stroke="#0058ad" points="1965,-.5 1965,-29.5 "/>
<text text-anchor="middle" x="1997" y="-11.3" font-family="Times,serif" font-size="14.00" fill="#0058ad">a 101 66</text>
</g>
<!-- T19805&#45;&gt;T19807 -->
<g id="edge1" class="edge">
<title>T19805:f2&#45;&gt;T19807:f0</title>
<path fill="none" stroke="#5b00c0" d="M969.5,-81C969.5,21.7066 611.0536,-53.6039 508.5,-48 496.3981,-47.3387 107.8816,-43.9255 41.1947,-33.2175"/>
<polygon fill="#5b00c0" stroke="#5b00c0" points="42.0934,-29.8281 31.5,-30 39.8885,-36.4717 42.0934,-29.8281"/>
<text text-anchor="middle" x="970" y="-51.8" font-family="Times,serif" font-size="14.00" fill="#5b00c0">rw</text>
</g>
<!-- T19807&#45;&gt;T19805 -->
<g id="edge2" class="edge">
<title>T19807:f1&#45;&gt;T19805:f0</title>
<path fill="none" stroke="#5b00c0" d="M985.5,-30C985.5,-43.7868 503.1744,-46.2424 489.5,-48 426.3123,-56.1215 350.3337,-18.1541 342.2125,-70.9072"/>
<polygon fill="#5b00c0" stroke="#5b00c0" points="338.713,-70.7783 341.5,-81 345.6956,-71.2713 338.713,-70.7783"/>
<text text-anchor="middle" x="497" y="-51.8" font-family="Times,serif" font-size="14.00" fill="#5b00c0">rw</text>
</g>
</g>
</svg>
