<?xml version="1.0" encoding="UTF-8" standalone="no"?>
<!DOCTYPE svg PUBLIC "-//W3C//DTD SVG 1.1//EN"
 "http://www.w3.org/Graphics/SVG/1.1/DTD/svg11.dtd">
<!-- Generated by graphviz version 2.40.1 (20161225.0304)
 -->
<!-- Title: a_graph Pages: 1 -->
<svg width="3507pt" height="119pt"
 viewBox="0.00 0.00 3507.00 119.00" xmlns="http://www.w3.org/2000/svg" xmlns:xlink="http://www.w3.org/1999/xlink">
<g id="graph0" class="graph" transform="scale(1 1) rotate(0) translate(4 115)">
<title>a_graph</title>
<polygon fill="#ffffff" stroke="transparent" points="-4,4 -4,-115 3503,-115 3503,4 -4,4"/>
<!-- T20349 -->
<g id="node1" class="node">
<title>T20349</title>
<polygon fill="none" stroke="#0058ad" points="1006,-81.5 1006,-110.5 3499,-110.5 3499,-81.5 1006,-81.5"/>
<text text-anchor="middle" x="1038" y="-92.3" font-family="Times,serif" font-size="14.00" fill="#0058ad">a 104 89</text>
<polyline fill="none" stroke="#0058ad" points="1070,-81.5 1070,-110.5 "/>
<text text-anchor="middle" x="1425.5" y="-92.3" font-family="Times,serif" font-size="14.00" fill="#0058ad">r 97 [1 2 3 4 5 6 7 8 9 10 11 13 14 15 16 17 18 19 21 22 23 24 25 26 27 29 28 30 31 32 34 35 37 38 39 40 41 42 43 44 45 46]</text>
<polyline fill="none" stroke="#0058ad" points="1781,-81.5 1781,-110.5 "/>
<text text-anchor="middle" x="2210.5" y="-92.3" font-family="Times,serif" font-size="14.00" fill="#0058ad">r 100 [2 3 4 5 6 8 11 12 13 14 15 16 17 18 19 20 21 22 23 24 26 28 29 27 30 31 32 33 34 35 37 36 38 39 40 41 42 43 44 45 47 48 46 49 50 52 53 51 54]</text>
<polyline fill="none" stroke="#0058ad" points="2640,-81.5 2640,-110.5 "/>
<text text-anchor="middle" x="3069.5" y="-92.3" font-family="Times,serif" font-size="14.00" fill="#0058ad">r 100 [2 3 4 5 6 8 11 12 13 14 15 16 17 18 19 20 21 22 23 24 26 28 29 27 30 31 32 33 34 35 37 36 38 39 40 41 42 43 44 45 47 48 46 49 50 52 53 51 54]</text>
</g>
<!-- T20347 -->
<g id="node2" class="node">
<title>T20347</title>
<polygon fill="none" stroke="#0058ad" points="0,-.5 0,-29.5 1551,-29.5 1551,-.5 0,-.5"/>
<text text-anchor="middle" x="747" y="-11.3" font-family="Times,serif" font-size="14.00" fill="#0058ad">r 104 [1 2 3 6 4 5 7 8 9 11 10 12 14 16 17 15 13 19 18 20 21 22 24 27 25 26 28 23 29 30 31 32 33 34 35 36 38 39 40 42 43 41 45 44 46 47 48 50 51 49 52 53 54 56 57 58 59 55 60 61 62 63 65 66 67 68 69 70 64 71 72 73 74 75 76 77 78 79 80 82 83 81 84 87 88 85 86]</text>
<polyline fill="none" stroke="#0058ad" points="1494,-.5 1494,-29.5 "/>
<text text-anchor="middle" x="1522.5" y="-11.3" font-family="Times,serif" font-size="14.00" fill="#0058ad">a 97 47</text>
</g>
<!-- T20349&#45;&gt;T20347 -->
<g id="edge1" class="edge">
<title>T20349:f1&#45;&gt;T20347:f1</title>
<path fill="none" stroke="#5b00c0" d="M1425.5,-81C1425.5,-36.2887 1507.2387,-71.7321 1520.6489,-40.1712"/>
<polygon fill="#5b00c0" stroke="#5b00c0" points="1524.1528,-40.4651 1522.5,-30 1517.266,-39.2117 1524.1528,-40.4651"/>
<text text-anchor="middle" x="1521" y="-51.8" font-family="Times,serif" font-size="14.00" fill="#5b00c0">rw</text>
</g>
<!-- T20347&#45;&gt;T20349 -->
<g id="edge2" class="edge">
<title>T20347:f0&#45;&gt;T20349:f0</title>
<path fill="none" stroke="#5b00c0" d="M746.5,-30C746.5,-86.3787 926.3474,-95.193 995.4114,-95.9429"/>
<polygon fill="#5b00c0" stroke="#5b00c0" points="995.4803,-99.4432 1005.5,-96 995.52,-92.4433 995.4803,-99.4432"/>
<text text-anchor="middle" x="779" y="-51.8" font-family="Times,serif" font-size="14.00" fill="#5b00c0">rw</text>
</g>
</g>
</svg>
