<?xml version="1.0" encoding="UTF-8" standalone="no"?>
<!DOCTYPE svg PUBLIC "-//W3C//DTD SVG 1.1//EN"
 "http://www.w3.org/Graphics/SVG/1.1/DTD/svg11.dtd">
<!-- Generated by graphviz version 2.40.1 (20161225.0304)
 -->
<!-- Title: a_graph Pages: 1 -->
<svg width="1823pt" height="281pt"
 viewBox="0.00 0.00 1823.24 281.00" xmlns="http://www.w3.org/2000/svg" xmlns:xlink="http://www.w3.org/1999/xlink">
<g id="graph0" class="graph" transform="scale(1 1) rotate(0) translate(4 277)">
<title>a_graph</title>
<polygon fill="#ffffff" stroke="transparent" points="-4,4 -4,-277 1819.2388,-277 1819.2388,4 -4,4"/>
<!-- T15375 -->
<g id="node1" class="node">
<title>T15375</title>
<polygon fill="none" stroke="#0058ad" points="59.7388,-243.5 59.7388,-272.5 1479.7388,-272.5 1479.7388,-243.5 59.7388,-243.5"/>
<text text-anchor="middle" x="741.2388" y="-254.3" font-family="Times,serif" font-size="14.00" fill="#0058ad">r 80 [1 2 3 4 5 8 9 10 11 12 13 14 15 16 17 18 19 20 21 22 23 25 26 27 28 29 30 31 33 34 36 38 39 35 40 41 42 43 44 45 46 47 48 51 52 49 50 53 54 56 57 55 58 59 60 61 63 64 62 66 65 68 69 70 67 71 72 73 75 76 78 79 80 81 82 77 83 84 85]</text>
<polyline fill="none" stroke="#0058ad" points="1422.7388,-243.5 1422.7388,-272.5 "/>
<text text-anchor="middle" x="1451.2388" y="-254.3" font-family="Times,serif" font-size="14.00" fill="#0058ad">a 79 51</text>
</g>
<!-- T15383 -->
<g id="node3" class="node">
<title>T15383</title>
<polygon fill="none" stroke="#0058ad" points="914.2388,-.5 914.2388,-29.5 1815.2388,-29.5 1815.2388,-.5 914.2388,-.5"/>
<text text-anchor="middle" x="942.7388" y="-11.3" font-family="Times,serif" font-size="14.00" fill="#0058ad">a 80 86</text>
<polyline fill="none" stroke="#0058ad" points="971.2388,-.5 971.2388,-29.5 "/>
<text text-anchor="middle" x="999.7388" y="-11.3" font-family="Times,serif" font-size="14.00" fill="#0058ad">a 70 44</text>
<polyline fill="none" stroke="#0058ad" points="1028.2388,-.5 1028.2388,-29.5 "/>
<text text-anchor="middle" x="1421.7388" y="-11.3" font-family="Times,serif" font-size="14.00" fill="#0058ad">r 79 [1 2 3 4 6 7 8 9 10 11 12 13 14 15 16 17 18 19 20 22 23 24 25 26 27 28 30 29 32 33 34 35 31 36 37 38 39 40 41 42 43 44 45 48 49 47]</text>
</g>
<!-- T15375&#45;&gt;T15383 -->
<g id="edge2" class="edge">
<title>T15375:f0&#45;&gt;T15383:f0</title>
<path fill="none" stroke="#5b00c0" d="M59.7388,-258C-19.3798,-258 -13.0564,-139.0157 40.7388,-81 72.3886,-46.8671 798.4988,-17.6167 903.4746,-15.166"/>
<polygon fill="#5b00c0" stroke="#5b00c0" points="903.7968,-18.6614 913.7388,-15 903.6835,-11.6623 903.7968,-18.6614"/>
<text text-anchor="middle" x="19.2388" y="-132.8" font-family="Times,serif" font-size="14.00" fill="#5b00c0">rw</text>
</g>
<!-- T15377 -->
<g id="node4" class="node">
<title>T15377</title>
<polygon fill="none" stroke="#0058ad" points="88.2388,-162.5 88.2388,-191.5 1451.2388,-191.5 1451.2388,-162.5 88.2388,-162.5"/>
<text text-anchor="middle" x="769.7388" y="-173.3" font-family="Times,serif" font-size="14.00" fill="#0058ad">r 80 [1 2 3 4 5 8 9 10 11 12 13 14 15 16 17 18 19 20 21 22 23 25 26 27 28 29 30 31 33 34 36 38 39 35 40 41 42 43 44 45 46 47 48 51 52 49 50 53 54 56 57 55 58 59 60 61 63 64 62 66 65 68 69 70 67 71 72 73 75 76 78 79 80 81 82 77 83 84 85]</text>
</g>
<!-- T15375&#45;&gt;T15377 -->
<g id="edge1" class="edge">
<title>T15375&#45;&gt;T15377</title>
<path fill="none" stroke="#0050c0" d="M769.7388,-243.1434C769.7388,-231.6112 769.7388,-215.3668 769.7388,-201.8626"/>
<polygon fill="#0050c0" stroke="#0050c0" points="773.2389,-201.7624 769.7388,-191.7625 766.2389,-201.7625 773.2389,-201.7624"/>
<text text-anchor="middle" x="774.2388" y="-213.8" font-family="Times,serif" font-size="14.00" fill="#0050c0">rt</text>
</g>
<!-- T15379 -->
<g id="node2" class="node">
<title>T15379</title>
<polygon fill="none" stroke="#0058ad" points="50.2388,-81.5 50.2388,-110.5 1413.2388,-110.5 1413.2388,-81.5 50.2388,-81.5"/>
<text text-anchor="middle" x="731.7388" y="-92.3" font-family="Times,serif" font-size="14.00" fill="#0058ad">r 80 [1 2 3 4 5 8 9 10 11 12 13 14 15 16 17 18 19 20 21 22 23 25 26 27 28 29 30 31 33 34 36 38 39 35 40 41 42 43 44 45 46 47 48 51 52 49 50 53 54 56 57 55 58 59 60 61 63 64 62 66 65 68 69 70 67 71 72 73 75 76 78 79 80 81 82 77 83 84 85]</text>
</g>
<!-- T15379&#45;&gt;T15383 -->
<g id="edge3" class="edge">
<title>T15379:f0&#45;&gt;T15383:f0</title>
<path fill="none" stroke="#5b00c0" d="M750.4357,-81.3315C780.4518,-59.2205 842.2574,-19.4794 903.5183,-15.3495"/>
<polygon fill="#5b00c0" stroke="#5b00c0" points="903.8643,-18.8398 913.7388,-15 903.625,-11.8439 903.8643,-18.8398"/>
<text text-anchor="middle" x="810.2388" y="-51.8" font-family="Times,serif" font-size="14.00" fill="#5b00c0">rw</text>
</g>
<!-- T15383&#45;&gt;T15375 -->
<g id="edge4" class="edge">
<title>T15383:f2&#45;&gt;T15375:f1</title>
<path fill="none" stroke="#5b00c0" d="M1421.7388,-30C1421.7388,-55.4423 1439.4165,-56.9574 1447.7388,-81 1475.1063,-160.0627 1481.4849,-224.0875 1481.1884,-247.9488"/>
<polygon fill="#5b00c0" stroke="#5b00c0" points="1477.7022,-247.6028 1479.7388,-258 1484.6305,-248.602 1477.7022,-247.6028"/>
<text text-anchor="middle" x="1473.2388" y="-132.8" font-family="Times,serif" font-size="14.00" fill="#5b00c0">rw</text>
</g>
<!-- T15377&#45;&gt;T15379 -->
<g id="edge6" class="edge">
<title>T15377&#45;&gt;T15379</title>
<path fill="none" stroke="#0050c0" d="M762.769,-162.1434C757.2518,-150.3828 749.4354,-133.7216 743.028,-120.0637"/>
<polygon fill="#0050c0" stroke="#0050c0" points="746.0803,-118.3292 738.6644,-110.7625 739.7431,-121.3023 746.0803,-118.3292"/>
<text text-anchor="middle" x="759.2388" y="-132.8" font-family="Times,serif" font-size="14.00" fill="#0050c0">rt</text>
</g>
<!-- T15377&#45;&gt;T15383 -->
<g id="edge5" class="edge">
<title>T15377:f0&#45;&gt;T15383:f0</title>
<path fill="none" stroke="#5b00c0" d="M1302.3118,-162.4417C1356.9693,-151.1582 1400.3297,-134.6858 1421.7388,-111 1430.6796,-101.1085 1430.6539,-90.9146 1421.7388,-81 1352.6112,-4.1215 970.1979,-128.0249 944.1371,-40.1441"/>
<polygon fill="#5b00c0" stroke="#5b00c0" points="947.5716,-39.4284 942.7388,-30 940.6372,-40.3843 947.5716,-39.4284"/>
<text text-anchor="middle" x="1436.2388" y="-92.3" font-family="Times,serif" font-size="14.00" fill="#5b00c0">rw</text>
</g>
</g>
</svg>
