<?xml version="1.0" encoding="UTF-8" standalone="no"?>
<!DOCTYPE svg PUBLIC "-//W3C//DTD SVG 1.1//EN"
 "http://www.w3.org/Graphics/SVG/1.1/DTD/svg11.dtd">
<!-- Generated by graphviz version 2.40.1 (20161225.0304)
 -->
<!-- Title: a_graph Pages: 1 -->
<svg width="3375pt" height="119pt"
 viewBox="0.00 0.00 3375.00 119.00" xmlns="http://www.w3.org/2000/svg" xmlns:xlink="http://www.w3.org/1999/xlink">
<g id="graph0" class="graph" transform="scale(1 1) rotate(0) translate(4 115)">
<title>a_graph</title>
<polygon fill="#ffffff" stroke="transparent" points="-4,4 -4,-115 3371,-115 3371,4 -4,4"/>
<!-- T28694 -->
<g id="node1" class="node">
<title>T28694</title>
<polygon fill="none" stroke="#0058ad" points="0,-81.5 0,-110.5 1535,-110.5 1535,-81.5 0,-81.5"/>
<text text-anchor="middle" x="37.5" y="-92.3" font-family="Times,serif" font-size="14.00" fill="#0058ad">r 144 [2 3]</text>
<polyline fill="none" stroke="#0058ad" points="75,-81.5 75,-110.5 "/>
<text text-anchor="middle" x="739" y="-92.3" font-family="Times,serif" font-size="14.00" fill="#0058ad">r 142 [1 2 3 4 5 7 8 9 11 12 13 14 15 16 17 18 19 21 20 22 23 25 26 29 27 28 30 24 31 32 34 33 37 38 36 39 41 40 42 43 45 46 47 44 48 49 50 51 52 54 53 55 56 58 59 60 57 61 62 63 64 65 66 67 68 69 70 71 72 73 74 75 77 78 79 76 80]</text>
<polyline fill="none" stroke="#0058ad" points="1403,-81.5 1403,-110.5 "/>
<text text-anchor="middle" x="1440.5" y="-92.3" font-family="Times,serif" font-size="14.00" fill="#0058ad">r 144 [2 3]</text>
<polyline fill="none" stroke="#0058ad" points="1478,-81.5 1478,-110.5 "/>
<text text-anchor="middle" x="1506.5" y="-92.3" font-family="Times,serif" font-size="14.00" fill="#0058ad">a 144 5</text>
</g>
<!-- T28689 -->
<g id="node2" class="node">
<title>T28689</title>
<polygon fill="none" stroke="#0058ad" points="1230,-.5 1230,-29.5 3367,-29.5 3367,-.5 1230,-.5"/>
<text text-anchor="middle" x="1262" y="-11.3" font-family="Times,serif" font-size="14.00" fill="#0058ad">a 142 84</text>
<polyline fill="none" stroke="#0058ad" points="1294,-.5 1294,-29.5 "/>
<text text-anchor="middle" x="1331.5" y="-11.3" font-family="Times,serif" font-size="14.00" fill="#0058ad">r 144 [2 3]</text>
<polyline fill="none" stroke="#0058ad" points="1369,-.5 1369,-29.5 "/>
<text text-anchor="middle" x="2368" y="-11.3" font-family="Times,serif" font-size="14.00" fill="#0058ad">r 128 [1 2 4 5 7 8 9 10 11 12 13 19 20 21 22 23 24 25 26 27 28 29 31 32 34 33 35 36 37 38 40 41 42 43 44 45 46 47 48 49 51 52 53 54 55 56 57 58 59 60 61 62 63 64 65 66 67 68 69 70 71 72 73 74 75 76 77 78 79 80 81 82 83 84 85 86 87 88 89 90 91 92 93 94 95 96 97 98 99 100 101 102 103 104 105 106 107 108 109 110 111 112 113 114 115 116 117 118]</text>
</g>
<!-- T28694&#45;&gt;T28689 -->
<g id="edge1" class="edge">
<title>T28694:f1&#45;&gt;T28689:f0</title>
<path fill="none" stroke="#5b00c0" d="M738.5,-81C738.5,-28.5341 1134.541,-16.1238 1219.3324,-15.0756"/>
<polygon fill="#5b00c0" stroke="#5b00c0" points="1219.5263,-18.5744 1229.5,-15 1219.4742,-11.5746 1219.5263,-18.5744"/>
<text text-anchor="middle" x="811" y="-51.8" font-family="Times,serif" font-size="14.00" fill="#5b00c0">rw</text>
</g>
<!-- T28689&#45;&gt;T28694 -->
<g id="edge2" class="edge">
<title>T28689:f1&#45;&gt;T28694:f3</title>
<path fill="none" stroke="#5b00c0" d="M1331.5,-30C1331.5,-107.2158 1490.4783,-9.9735 1505.3825,-70.8338"/>
<polygon fill="#5b00c0" stroke="#5b00c0" points="1501.9282,-71.4423 1506.5,-81 1508.8863,-70.6774 1501.9282,-71.4423"/>
<text text-anchor="middle" x="1509" y="-51.8" font-family="Times,serif" font-size="14.00" fill="#5b00c0">rw</text>
</g>
</g>
</svg>
