<?xml version="1.0" encoding="UTF-8" standalone="no"?>
<!DOCTYPE svg PUBLIC "-//W3C//DTD SVG 1.1//EN"
 "http://www.w3.org/Graphics/SVG/1.1/DTD/svg11.dtd">
<!-- Generated by graphviz version 2.40.1 (20161225.0304)
 -->
<!-- Title: a_graph Pages: 1 -->
<svg width="2763pt" height="119pt"
 viewBox="0.00 0.00 2763.00 119.00" xmlns="http://www.w3.org/2000/svg" xmlns:xlink="http://www.w3.org/1999/xlink">
<g id="graph0" class="graph" transform="scale(1 1) rotate(0) translate(4 115)">
<title>a_graph</title>
<polygon fill="#ffffff" stroke="transparent" points="-4,4 -4,-115 2759,-115 2759,4 -4,4"/>
<!-- T11383 -->
<g id="node1" class="node">
<title>T11383</title>
<polygon fill="none" stroke="#0058ad" points="1095,-81.5 1095,-110.5 2755,-110.5 2755,-81.5 1095,-81.5"/>
<text text-anchor="middle" x="1123.5" y="-92.3" font-family="Times,serif" font-size="14.00" fill="#0058ad">a 58 66</text>
<polyline fill="none" stroke="#0058ad" points="1152,-81.5 1152,-110.5 "/>
<text text-anchor="middle" x="1925" y="-92.3" font-family="Times,serif" font-size="14.00" fill="#0058ad">r 59 [1 2 3 4 5 7 8 6 11 13 12 14 15 16 17 18 21 19 20 22 23 24 27 28 25 26 29 30 31 32 33 34 37 38 35 36 41 40 43 44 42 45 46 47 48 49 50 51 52 53 54 55 56 57 58 59 60 61 62 63 64 65 66 68 69 70 71 72 73 74 75 67 76 78 79 80 81 82 83 84 85 86 87 88 89 90 91 92 93 95]</text>
<polyline fill="none" stroke="#0058ad" points="2698,-81.5 2698,-110.5 "/>
<text text-anchor="middle" x="2726.5" y="-92.3" font-family="Times,serif" font-size="14.00" fill="#0058ad">a 58 67</text>
</g>
<!-- T11389 -->
<g id="node2" class="node">
<title>T11389</title>
<polygon fill="none" stroke="#0058ad" points="0,-.5 0,-29.5 2158,-29.5 2158,-.5 0,-.5"/>
<text text-anchor="middle" x="511" y="-11.3" font-family="Times,serif" font-size="14.00" fill="#0058ad">r 58 [1 2 3 4 5 6 7 10 8 9 11 13 12 14 15 16 17 18 19 20 21 22 23 24 25 26 27 28 30 31 32 33 34 35 37 38 39 40 41 42 43 44 45 47 48 49 50 46 51 54 56 57 55 59 60 61 62 63 64 65]</text>
<polyline fill="none" stroke="#0058ad" points="1022,-.5 1022,-29.5 "/>
<text text-anchor="middle" x="1533" y="-11.3" font-family="Times,serif" font-size="14.00" fill="#0058ad">r 58 [1 2 3 4 5 6 7 10 8 9 11 13 12 14 15 16 17 18 19 20 21 22 23 24 25 26 27 28 30 31 32 33 34 35 37 38 39 40 41 42 43 44 45 47 48 49 50 46 51 54 56 57 55 59 60 61 62 63 64 65]</text>
<polyline fill="none" stroke="#0058ad" points="2044,-.5 2044,-29.5 "/>
<text text-anchor="middle" x="2072.5" y="-11.3" font-family="Times,serif" font-size="14.00" fill="#0058ad">a 52 73</text>
<polyline fill="none" stroke="#0058ad" points="2101,-.5 2101,-29.5 "/>
<text text-anchor="middle" x="2129.5" y="-11.3" font-family="Times,serif" font-size="14.00" fill="#0058ad">a 59 94</text>
</g>
<!-- T11383&#45;&gt;T11389 -->
<g id="edge1" class="edge">
<title>T11383:f1&#45;&gt;T11389:f3</title>
<path fill="none" stroke="#5b00c0" d="M1925,-81C1925,9.2208 2114.2972,-113.5546 2129.086,-39.9741"/>
<polygon fill="#5b00c0" stroke="#5b00c0" points="2132.5728,-40.2777 2130,-30 2125.602,-39.6389 2132.5728,-40.2777"/>
<text text-anchor="middle" x="2133.5" y="-51.8" font-family="Times,serif" font-size="14.00" fill="#5b00c0">rw</text>
</g>
<!-- T11389&#45;&gt;T11383 -->
<g id="edge2" class="edge">
<title>T11389:f0&#45;&gt;T11383:f0</title>
<path fill="none" stroke="#5b00c0" d="M511,-30C511,-92.6236 988.0212,-95.8341 1084.7437,-95.9921"/>
<polygon fill="#5b00c0" stroke="#5b00c0" points="1084.9973,-99.4922 1095,-96 1085.0027,-92.4922 1084.9973,-99.4922"/>
<text text-anchor="middle" x="572.5" y="-51.8" font-family="Times,serif" font-size="14.00" fill="#5b00c0">rw</text>
</g>
</g>
</svg>
