<?xml version="1.0" encoding="UTF-8" standalone="no"?>
<!DOCTYPE svg PUBLIC "-//W3C//DTD SVG 1.1//EN"
 "http://www.w3.org/Graphics/SVG/1.1/DTD/svg11.dtd">
<!-- Generated by graphviz version 2.40.1 (20161225.0304)
 -->
<!-- Title: a_graph Pages: 1 -->
<svg width="5113pt" height="119pt"
 viewBox="0.00 0.00 5112.50 119.00" xmlns="http://www.w3.org/2000/svg" xmlns:xlink="http://www.w3.org/1999/xlink">
<g id="graph0" class="graph" transform="scale(1 1) rotate(0) translate(4 115)">
<title>a_graph</title>
<polygon fill="#ffffff" stroke="transparent" points="-4,4 -4,-115 5108.5,-115 5108.5,4 -4,4"/>
<!-- T38085 -->
<g id="node1" class="node">
<title>T38085</title>
<polygon fill="none" stroke="#0058ad" points="0,-81.5 0,-110.5 3984,-110.5 3984,-81.5 0,-81.5"/>
<text text-anchor="middle" x="773" y="-92.3" font-family="Times,serif" font-size="14.00" fill="#0058ad">r 188 [1 2 3 4 7 8 9 10 11 5 6 12 13 14 16 17 18 19 20 21 23 24 25 26 29 30 31 32 34 35 36 37 38 39 40 41 42 43 44 45 46 47 48 49 50 51 52 53 54 55 56 57 58 59 60 61 62 63 64 65 66 67 68 69 70 71 72 73 74 75 76 77 78 79 81 83 84 80 87 85 86 89 90 88 91 92 93 94 95 96]</text>
<polyline fill="none" stroke="#0058ad" points="1546,-81.5 1546,-110.5 "/>
<text text-anchor="middle" x="2227.5" y="-92.3" font-family="Times,serif" font-size="14.00" fill="#0058ad">r 187 [1 2 3 4 5 6 7 9 10 13 14 16 17 18 19 20 21 22 23 24 25 26 27 28 29 30 31 32 33 34 35 36 37 38 39 40 41 42 43 44 45 48 49 52 55 56 58 59 60 62 63 64 65 66 67 68 69 70 71 72 73 74 75 76 77 78 79 80 81 82 83 84 85 86 87 88 89 90 91]</text>
<polyline fill="none" stroke="#0058ad" points="2909,-81.5 2909,-110.5 "/>
<text text-anchor="middle" x="2941" y="-92.3" font-family="Times,serif" font-size="14.00" fill="#0058ad">a 188 97</text>
<polyline fill="none" stroke="#0058ad" points="2973,-81.5 2973,-110.5 "/>
<text text-anchor="middle" x="3478.5" y="-92.3" font-family="Times,serif" font-size="14.00" fill="#0058ad">r 185 [1 2 3 4 5 6 7 8 9 12 13 14 15 16 17 18 19 20 21 22 23 24 25 26 27 28 29 30 31 32 33 34 35 36 37 38 39 40 41 42 44 45 46 47 49 50 51 52 53 54 55 57 58 59 60 61 62 63 64]</text>
</g>
<!-- T38083 -->
<g id="node2" class="node">
<title>T38083</title>
<polygon fill="none" stroke="#0058ad" points="2067.5,-.5 2067.5,-29.5 5104.5,-29.5 5104.5,-.5 2067.5,-.5"/>
<text text-anchor="middle" x="2840.5" y="-11.3" font-family="Times,serif" font-size="14.00" fill="#0058ad">r 188 [1 2 3 4 7 8 9 10 11 5 6 12 13 14 16 17 18 19 20 21 23 24 25 26 29 30 31 32 34 35 36 37 38 39 40 41 42 43 44 45 46 47 48 49 50 51 52 53 54 55 56 57 58 59 60 61 62 63 64 65 66 67 68 69 70 71 72 73 74 75 76 77 78 79 81 83 84 80 87 85 86 89 90 88 91 92 93 94 95 96]</text>
<polyline fill="none" stroke="#0058ad" points="3613.5,-.5 3613.5,-29.5 "/>
<text text-anchor="middle" x="3645.5" y="-11.3" font-family="Times,serif" font-size="14.00" fill="#0058ad">a 185 65</text>
<polyline fill="none" stroke="#0058ad" points="3677.5,-.5 3677.5,-29.5 "/>
<text text-anchor="middle" x="4359" y="-11.3" font-family="Times,serif" font-size="14.00" fill="#0058ad">r 187 [1 2 3 4 5 6 7 9 10 13 14 16 17 18 19 20 21 22 23 24 25 26 27 28 29 30 31 32 33 34 35 36 37 38 39 40 41 42 43 44 45 48 49 52 55 56 58 59 60 62 63 64 65 66 67 68 69 70 71 72 73 74 75 76 77 78 79 80 81 82 83 84 85 86 87 88 89 90 91]</text>
<polyline fill="none" stroke="#0058ad" points="5040.5,-.5 5040.5,-29.5 "/>
<text text-anchor="middle" x="5072.5" y="-11.3" font-family="Times,serif" font-size="14.00" fill="#0058ad">a 187 92</text>
</g>
<!-- T38085&#45;&gt;T38083 -->
<g id="edge1" class="edge">
<title>T38085:f3&#45;&gt;T38083:f1</title>
<path fill="none" stroke="#5b00c0" d="M3479,-81C3479,-7.1832 3630.0896,-97.8627 3644.8444,-40.11"/>
<polygon fill="#5b00c0" stroke="#5b00c0" points="3648.3416,-40.3328 3646,-30 3641.3869,-39.5378 3648.3416,-40.3328"/>
<text text-anchor="middle" x="3648.5" y="-51.8" font-family="Times,serif" font-size="14.00" fill="#5b00c0">rw</text>
</g>
<!-- T38083&#45;&gt;T38085 -->
<g id="edge2" class="edge">
<title>T38083:f0&#45;&gt;T38085:f2</title>
<path fill="none" stroke="#5b00c0" d="M2840,-30C2840,-76.3584 2925.8352,-37.8494 2939.247,-70.9472"/>
<polygon fill="#5b00c0" stroke="#5b00c0" points="2935.834,-71.75 2941,-81 2942.73,-70.5474 2935.834,-71.75"/>
<text text-anchor="middle" x="2940.5" y="-51.8" font-family="Times,serif" font-size="14.00" fill="#5b00c0">rw</text>
</g>
</g>
</svg>
