<?xml version="1.0" encoding="UTF-8" standalone="no"?>
<!DOCTYPE svg PUBLIC "-//W3C//DTD SVG 1.1//EN"
 "http://www.w3.org/Graphics/SVG/1.1/DTD/svg11.dtd">
<!-- Generated by graphviz version 2.40.1 (20161225.0304)
 -->
<!-- Title: a_graph Pages: 1 -->
<svg width="2130pt" height="119pt"
 viewBox="0.00 0.00 2130.00 119.00" xmlns="http://www.w3.org/2000/svg" xmlns:xlink="http://www.w3.org/1999/xlink">
<g id="graph0" class="graph" transform="scale(1 1) rotate(0) translate(4 115)">
<title>a_graph</title>
<polygon fill="#ffffff" stroke="transparent" points="-4,4 -4,-115 2126,-115 2126,4 -4,4"/>
<!-- T7357 -->
<g id="node1" class="node">
<title>T7357</title>
<polygon fill="none" stroke="#0058ad" points="114,-81.5 114,-110.5 2122,-110.5 2122,-81.5 114,-81.5"/>
<text text-anchor="middle" x="142.5" y="-92.3" font-family="Times,serif" font-size="14.00" fill="#0058ad">a 40 84</text>
<polyline fill="none" stroke="#0058ad" points="171,-81.5 171,-110.5 "/>
<text text-anchor="middle" x="1146.5" y="-92.3" font-family="Times,serif" font-size="14.00" fill="#0058ad">r 41 [1 2 3 4 5 6 7 8 9 10 11 12 13 16 17 14 15 18 19 20 21 22 23 24 25 26 27 30 31 28 29 32 33 34 36 37 38 39 40 41 42 45 46 47 50 48 49 51 52 54 55 57 59 60 61 62 58 63 64 65 66 67 68 69 71 72 73 74 75 76 77 78 79 80 81 82 83 84 85 86 87 89 88 93 94 92 90 91 95 96 97 98 99 100 101 102 105 106 103 104 107 108 110 112 113 114 115 116]</text>
</g>
<!-- T7353 -->
<g id="node2" class="node">
<title>T7353</title>
<polygon fill="none" stroke="#0058ad" points="0,-.5 0,-29.5 1938,-29.5 1938,-.5 0,-.5"/>
<text text-anchor="middle" x="32" y="-11.3" font-family="Times,serif" font-size="14.00" fill="#0058ad">a 41 117</text>
<polyline fill="none" stroke="#0058ad" points="64,-.5 64,-29.5 "/>
<text text-anchor="middle" x="319.5" y="-11.3" font-family="Times,serif" font-size="14.00" fill="#0058ad">r 37 [1 2 4 5 6 7 9 10 8 11 12 13 14 15 16 17 18 19 20 22 23 24 25 26 27 28 29 30 31 32]</text>
<polyline fill="none" stroke="#0058ad" points="575,-.5 575,-29.5 "/>
<text text-anchor="middle" x="1256.5" y="-11.3" font-family="Times,serif" font-size="14.00" fill="#0058ad">r 40 [2 3 4 5 7 8 9 10 11 12 13 14 15 16 17 18 19 20 21 22 23 24 25 26 27 28 29 30 31 32 33 34 35 36 37 38 39 40 41 42 43 44 45 46 47 48 49 50 51 52 53 54 55 56 57 58 59 60 61 62 63 64 65 66 67 68 69 70 71 72 73 74 75 76 78 77 79 80 83]</text>
</g>
<!-- T7357&#45;&gt;T7353 -->
<g id="edge1" class="edge">
<title>T7357:f1&#45;&gt;T7353:f0</title>
<path fill="none" stroke="#5b00c0" d="M1147,-81C1147,-77.3402 152.676,-38.5684 41.9798,-30.9996"/>
<polygon fill="#5b00c0" stroke="#5b00c0" points="42.2991,-27.5142 32,-30 41.6014,-34.4793 42.2991,-27.5142"/>
<text text-anchor="middle" x="761.5" y="-51.8" font-family="Times,serif" font-size="14.00" fill="#5b00c0">rw</text>
</g>
<!-- T7353&#45;&gt;T7357 -->
<g id="edge2" class="edge">
<title>T7353:f2&#45;&gt;T7357:f0</title>
<path fill="none" stroke="#5b00c0" d="M1257,-30C1257,-53.6719 428.6089,-46.2741 405,-48 291.065,-56.329 150.7844,31.2442 142.3953,-70.8729"/>
<polygon fill="#5b00c0" stroke="#5b00c0" points="138.8928,-70.8711 142,-81 145.8874,-71.1441 138.8928,-70.8711"/>
<text text-anchor="middle" x="412.5" y="-51.8" font-family="Times,serif" font-size="14.00" fill="#5b00c0">rw</text>
</g>
</g>
</svg>
