<?xml version="1.0" encoding="UTF-8" standalone="no"?>
<!DOCTYPE svg PUBLIC "-//W3C//DTD SVG 1.1//EN"
 "http://www.w3.org/Graphics/SVG/1.1/DTD/svg11.dtd">
<!-- Generated by graphviz version 2.40.1 (20161225.0304)
 -->
<!-- Title: a_graph Pages: 1 -->
<svg width="4923pt" height="119pt"
 viewBox="0.00 0.00 4922.50 119.00" xmlns="http://www.w3.org/2000/svg" xmlns:xlink="http://www.w3.org/1999/xlink">
<g id="graph0" class="graph" transform="scale(1 1) rotate(0) translate(4 115)">
<title>a_graph</title>
<polygon fill="#ffffff" stroke="transparent" points="-4,4 -4,-115 4918.5,-115 4918.5,4 -4,4"/>
<!-- T28897 -->
<g id="node1" class="node">
<title>T28897</title>
<polygon fill="none" stroke="#0058ad" points="0,-81.5 0,-110.5 2217,-110.5 2217,-81.5 0,-81.5"/>
<text text-anchor="middle" x="536.5" y="-92.3" font-family="Times,serif" font-size="14.00" fill="#0058ad">r 144 [2 3 5 6 7 10 11 13 14 12 15 18 19 20 21 16 17 22 23 24 25 29 31 32 34 28 35 36 37 38 39 40 41 42 43 44 45 46 47 48 49 50 51 52 53 54 56 57 61 62 63 64 66 67 68 69 65 70 71 72 73]</text>
<polyline fill="none" stroke="#0058ad" points="1073,-81.5 1073,-110.5 "/>
<text text-anchor="middle" x="1609.5" y="-92.3" font-family="Times,serif" font-size="14.00" fill="#0058ad">r 144 [2 3 5 6 7 10 11 13 14 12 15 18 19 20 21 16 17 22 23 24 25 29 31 32 34 28 35 36 37 38 39 40 41 42 43 44 45 46 47 48 49 50 51 52 53 54 56 57 61 62 63 64 66 67 68 69 65 70 71 72 73]</text>
<polyline fill="none" stroke="#0058ad" points="2146,-81.5 2146,-110.5 "/>
<text text-anchor="middle" x="2181.5" y="-92.3" font-family="Times,serif" font-size="14.00" fill="#0058ad">a 142 118</text>
</g>
<!-- T28895 -->
<g id="node2" class="node">
<title>T28895</title>
<polygon fill="none" stroke="#0058ad" points="950.5,-.5 950.5,-29.5 4914.5,-29.5 4914.5,-.5 950.5,-.5"/>
<text text-anchor="middle" x="982.5" y="-11.3" font-family="Times,serif" font-size="14.00" fill="#0058ad">a 144 74</text>
<polyline fill="none" stroke="#0058ad" points="1014.5,-.5 1014.5,-29.5 "/>
<text text-anchor="middle" x="2032.5" y="-11.3" font-family="Times,serif" font-size="14.00" fill="#0058ad">r 142 [1 2 3 4 5 7 8 9 11 12 13 14 15 16 17 18 19 21 20 22 23 25 26 29 27 28 30 24 31 32 34 33 37 38 36 39 41 40 42 43 45 46 47 44 48 49 50 51 52 54 53 55 56 58 59 60 57 61 62 63 64 65 66 67 68 69 70 71 72 73 74 75 77 78 79 76 80 84 85 86 87 88 90 89 91 93 94 92 95 96 97 98 99 100 101 102 103 104 105 106 107 108 110 111 112 113 109 116 114 115 117]</text>
<polyline fill="none" stroke="#0058ad" points="3050.5,-.5 3050.5,-29.5 "/>
<text text-anchor="middle" x="3947" y="-11.3" font-family="Times,serif" font-size="14.00" fill="#0058ad">r 139 [1 3 4 6 7 8 9 10 11 12 13 14 15 16 18 19 20 21 22 23 24 26 25 27 28 29 30 31 32 33 34 35 36 38 37 40 42 43 44 45 46 47 48 49 50 51 52 53 54 55 57 58 59 60 61 62 63 64 65 66 67 68 69 70 71 72 73 75 74 76 77 80 81 82 83 84 85 87 86 88 89 90 91 92 93 94 95 96 97 98 99 100 101 102 103 104 105 107 108 109]</text>
<polyline fill="none" stroke="#0058ad" points="4843.5,-.5 4843.5,-29.5 "/>
<text text-anchor="middle" x="4879" y="-11.3" font-family="Times,serif" font-size="14.00" fill="#0058ad">a 139 110</text>
</g>
<!-- T28897&#45;&gt;T28895 -->
<g id="edge1" class="edge">
<title>T28897:f0&#45;&gt;T28895:f0</title>
<path fill="none" stroke="#5b00c0" d="M536.5,-81C536.5,-36.9665 864.8315,-17.2052 940.0918,-15.1755"/>
<polygon fill="#5b00c0" stroke="#5b00c0" points="940.5605,-18.6682 950.5,-15 940.4424,-11.6692 940.5605,-18.6682"/>
<text text-anchor="middle" x="616" y="-51.8" font-family="Times,serif" font-size="14.00" fill="#5b00c0">rw</text>
</g>
<!-- T28895&#45;&gt;T28897 -->
<g id="edge2" class="edge">
<title>T28895:f1&#45;&gt;T28897:f2</title>
<path fill="none" stroke="#5b00c0" d="M2032.5,-30C2032.5,-96.1662 2165.6487,-20.2636 2180.2119,-70.891"/>
<polygon fill="#5b00c0" stroke="#5b00c0" points="2176.764,-71.5226 2181.5,-81 2183.7078,-70.6378 2176.764,-71.5226"/>
<text text-anchor="middle" x="2183" y="-51.8" font-family="Times,serif" font-size="14.00" fill="#5b00c0">rw</text>
</g>
</g>
</svg>
