<?xml version="1.0" encoding="UTF-8" standalone="no"?>
<!DOCTYPE svg PUBLIC "-//W3C//DTD SVG 1.1//EN"
 "http://www.w3.org/Graphics/SVG/1.1/DTD/svg11.dtd">
<!-- Generated by graphviz version 2.40.1 (20161225.0304)
 -->
<!-- Title: a_graph Pages: 1 -->
<svg width="2672pt" height="281pt"
 viewBox="0.00 0.00 2671.78 281.00" xmlns="http://www.w3.org/2000/svg" xmlns:xlink="http://www.w3.org/1999/xlink">
<g id="graph0" class="graph" transform="scale(1 1) rotate(0) translate(4 277)">
<title>a_graph</title>
<polygon fill="#ffffff" stroke="transparent" points="-4,4 -4,-277 2667.7826,-277 2667.7826,4 -4,4"/>
<!-- T21867 -->
<g id="node1" class="node">
<title>T21867</title>
<polygon fill="none" stroke="#0058ad" points="1259.5,-243.5 1259.5,-272.5 2139.5,-272.5 2139.5,-243.5 1259.5,-243.5"/>
<text text-anchor="middle" x="1699.5" y="-254.3" font-family="Times,serif" font-size="14.00" fill="#0058ad">r 111 [1 3 4 5 6 7 8 9 10 11 12 13 15 16 14 17 18 19 20 22 23 21 24 26 25 27 28 29 30 31 32 33 34 35 36 37 39 40 41 42 43 38 45 46 47 48 44 49 50 51 52]</text>
</g>
<!-- T21871 -->
<g id="node5" class="node">
<title>T21871</title>
<polygon fill="none" stroke="#0058ad" points="964,-162.5 964,-191.5 1775,-191.5 1775,-162.5 964,-162.5"/>
<text text-anchor="middle" x="1369.5" y="-173.3" font-family="Times,serif" font-size="14.00" fill="#0058ad">r 111 [1 3 4 5 6 7 8 9 10 11 12 13 15 16 14 17 18 19 20 22 23 21 24 26 25 27 28 29 30 31 32 33 34 35 36 37 39 40 41 42 43 38 45 46 47 48 44]</text>
</g>
<!-- T21867&#45;&gt;T21871 -->
<g id="edge1" class="edge">
<title>T21867&#45;&gt;T21871</title>
<path fill="none" stroke="#0050c0" d="M1640.1215,-243.4253C1583.4328,-229.5108 1498.0484,-208.5528 1438.3936,-193.9103"/>
<polygon fill="#0050c0" stroke="#0050c0" points="1439.2254,-190.5106 1428.6793,-191.5258 1437.5567,-197.3088 1439.2254,-190.5106"/>
<text text-anchor="middle" x="1568" y="-213.8" font-family="Times,serif" font-size="14.00" fill="#0050c0">rt</text>
</g>
<!-- T21863 -->
<g id="node2" class="node">
<title>T21863</title>
<polygon fill="none" stroke="#0058ad" points="973.5,-81.5 973.5,-110.5 2647.5,-110.5 2647.5,-81.5 973.5,-81.5"/>
<text text-anchor="middle" x="1379" y="-92.3" font-family="Times,serif" font-size="14.00" fill="#0058ad">r 111 [1 3 4 5 6 7 8 9 10 11 12 13 15 16 14 17 18 19 20 22 23 21 24 26 25 27 28 29 30 31 32 33 34 35 36 37 39 40 41 42 43 38 45 46 47 48 44]</text>
<polyline fill="none" stroke="#0058ad" points="1784.5,-81.5 1784.5,-110.5 "/>
<text text-anchor="middle" x="1816.5" y="-92.3" font-family="Times,serif" font-size="14.00" fill="#0058ad">a 111 49</text>
<polyline fill="none" stroke="#0058ad" points="1848.5,-81.5 1848.5,-110.5 "/>
<text text-anchor="middle" x="1880.5" y="-92.3" font-family="Times,serif" font-size="14.00" fill="#0058ad">a 111 50</text>
<polyline fill="none" stroke="#0058ad" points="1912.5,-81.5 1912.5,-110.5 "/>
<text text-anchor="middle" x="2280" y="-92.3" font-family="Times,serif" font-size="14.00" fill="#0058ad">r 110 [1 2 3 4 5 6 7 8 9 10 11 13 12 14 15 16 17 18 20 21 22 23 25 26 27 28 29 32 33 34 35 36 37 38 39 40 41 42 43 44 45 47 46]</text>
</g>
<!-- T21863&#45;&gt;T21867 -->
<g id="edge2" class="edge">
<title>T21863&#45;&gt;T21867</title>
<path fill="none" stroke="#0050c0" d="M1809.4401,-110.5166C1807.385,-130.408 1801.4411,-166.5622 1784.5,-192 1772.0653,-210.6712 1752.5963,-226.3469 1735.427,-237.7296"/>
<polygon fill="#0050c0" stroke="#0050c0" points="1733.2614,-234.9592 1726.7076,-243.2838 1737.0222,-240.8632 1733.2614,-234.9592"/>
<text text-anchor="middle" x="1803" y="-173.3" font-family="Times,serif" font-size="14.00" fill="#0050c0">rt</text>
</g>
<!-- T21861 -->
<g id="node3" class="node">
<title>T21861</title>
<polygon fill="none" stroke="#0058ad" points="2537.5,-.5 2537.5,-29.5 2601.5,-29.5 2601.5,-.5 2537.5,-.5"/>
<text text-anchor="middle" x="2569.5" y="-11.3" font-family="Times,serif" font-size="14.00" fill="#0058ad">a 110 48</text>
</g>
<!-- T21863&#45;&gt;T21861 -->
<g id="edge4" class="edge">
<title>T21863:f3&#45;&gt;T21861:f0</title>
<path fill="none" stroke="#5b00c0" d="M2280.5,-81C2280.5,-25.732 2462.2155,-45.794 2529.1869,-32.0405"/>
<polygon fill="#5b00c0" stroke="#5b00c0" points="2530.1004,-35.4194 2538.9048,-29.526 2528.3469,-28.6426 2530.1004,-35.4194"/>
<text text-anchor="middle" x="2327" y="-51.8" font-family="Times,serif" font-size="14.00" fill="#5b00c0">rw</text>
</g>
<!-- T21865 -->
<g id="node4" class="node">
<title>T21865</title>
<polygon fill="none" stroke="#0058ad" points="0,-.5 0,-29.5 1037,-29.5 1037,-.5 0,-.5"/>
<text text-anchor="middle" x="422.5" y="-11.3" font-family="Times,serif" font-size="14.00" fill="#0058ad">r 111 [1 3 4 5 6 7 8 9 10 11 12 13 15 16 14 17 18 19 20 22 23 21 24 26 25 27 28 29 30 31 32 33 34 35 36 37 39 40 41 42 43 38 45 46 47 48 44 49 50]</text>
<polyline fill="none" stroke="#0058ad" points="845,-.5 845,-29.5 "/>
<text text-anchor="middle" x="877" y="-11.3" font-family="Times,serif" font-size="14.00" fill="#0058ad">a 108 97</text>
<polyline fill="none" stroke="#0058ad" points="909,-.5 909,-29.5 "/>
<text text-anchor="middle" x="941" y="-11.3" font-family="Times,serif" font-size="14.00" fill="#0058ad">a 111 51</text>
<polyline fill="none" stroke="#0058ad" points="973,-.5 973,-29.5 "/>
<text text-anchor="middle" x="1005" y="-11.3" font-family="Times,serif" font-size="14.00" fill="#0058ad">a 111 52</text>
</g>
<!-- T21863&#45;&gt;T21865 -->
<g id="edge3" class="edge">
<title>T21863:f2&#45;&gt;T21865:f2</title>
<path fill="none" stroke="#c02700" d="M1880.5,-81C1880.5,124.4029 973.3205,-226.6002 942.3134,-40.2151"/>
<polygon fill="#c02700" stroke="#c02700" points="945.7828,-39.6906 941.5,-30 938.8049,-40.2463 945.7828,-39.6906"/>
<text text-anchor="middle" x="1885.5" y="-51.8" font-family="Times,serif" font-size="14.00" fill="#c02700">ww</text>
</g>
<!-- T21861&#45;&gt;T21867 -->
<g id="edge5" class="edge">
<title>T21861&#45;&gt;T21867</title>
<path fill="none" stroke="#0050c0" d="M2599.2937,-29.5796C2633.481,-48.2038 2681.7671,-81.5554 2656.5,-111 2606.8522,-168.8562 2146.9654,-218.535 1883.2136,-242.571"/>
<polygon fill="#0050c0" stroke="#0050c0" points="1882.7805,-239.0958 1873.1378,-243.4855 1883.4132,-246.0672 1882.7805,-239.0958"/>
<text text-anchor="middle" x="2631" y="-132.8" font-family="Times,serif" font-size="14.00" fill="#0050c0">rt</text>
</g>
<!-- T21865&#45;&gt;T21867 -->
<g id="edge6" class="edge">
<title>T21865:f3&#45;&gt;T21867:f0</title>
<path fill="none" stroke="#c000a5" d="M1005.5,-30C1005.5,-59.0831 975.6617,-54.144 964.5,-81 944.1805,-129.8905 943.061,-178.4087 955.5,-192 978.8211,-217.4815 1111.6174,-233.185 1258.7178,-242.8356"/>
<polygon fill="#c000a5" stroke="#c000a5" points="1258.6744,-246.34 1268.8791,-243.4913 1259.1252,-239.3545 1258.6744,-246.34"/>
<text text-anchor="middle" x="958" y="-132.8" font-family="Times,serif" font-size="14.00" fill="#c000a5">wr</text>
</g>
<!-- T21865&#45;&gt;T21871 -->
<g id="edge7" class="edge">
<title>T21865&#45;&gt;T21871</title>
<path fill="none" stroke="#0050c0" d="M579.4259,-29.5591C663.6652,-49.4201 820.6034,-85.4528 955.5,-111 1057.5463,-130.3259 1174.4639,-148.6138 1257.9663,-161.0161"/>
<polygon fill="#0050c0" stroke="#0050c0" points="1257.5757,-164.4963 1267.9806,-162.499 1258.6012,-157.5718 1257.5757,-164.4963"/>
<text text-anchor="middle" x="960" y="-92.3" font-family="Times,serif" font-size="14.00" fill="#0050c0">rt</text>
</g>
<!-- T21871&#45;&gt;T21863 -->
<g id="edge8" class="edge">
<title>T21871:f0&#45;&gt;T21863:f1</title>
<path fill="none" stroke="#5b00c0" d="M1751.5024,-162.3698C1785.0368,-153.0395 1808.7629,-139.7321 1814.9207,-120.9786"/>
<polygon fill="#5b00c0" stroke="#5b00c0" points="1818.3937,-121.4242 1816.5,-111 1811.4798,-120.3299 1818.3937,-121.4242"/>
<text text-anchor="middle" x="1815" y="-132.8" font-family="Times,serif" font-size="14.00" fill="#5b00c0">rw</text>
</g>
</g>
</svg>
