<?xml version="1.0" encoding="UTF-8" standalone="no"?>
<!DOCTYPE svg PUBLIC "-//W3C//DTD SVG 1.1//EN"
 "http://www.w3.org/Graphics/SVG/1.1/DTD/svg11.dtd">
<!-- Generated by graphviz version 2.40.1 (20161225.0304)
 -->
<!-- Title: a_graph Pages: 1 -->
<svg width="3107pt" height="119pt"
 viewBox="0.00 0.00 3106.50 119.00" xmlns="http://www.w3.org/2000/svg" xmlns:xlink="http://www.w3.org/1999/xlink">
<g id="graph0" class="graph" transform="scale(1 1) rotate(0) translate(4 115)">
<title>a_graph</title>
<polygon fill="#ffffff" stroke="transparent" points="-4,4 -4,-115 3102.5,-115 3102.5,4 -4,4"/>
<!-- T763 -->
<g id="node1" class="node">
<title>T763</title>
<polygon fill="none" stroke="#0058ad" points="0,-81.5 0,-110.5 2323,-110.5 2323,-81.5 0,-81.5"/>
<text text-anchor="middle" x="554" y="-92.3" font-family="Times,serif" font-size="14.00" fill="#0058ad">r 10 [1 2 3 4 5 6 7 9 10 11 8 12 13 14 16 18 15 17 19 20 21 22 23 24 25 26 27 28 29 32 30 31 34 35 33 38 36 37 39 40 41 42 43 44 45 46 47 49 48 52 50 51 53 54 59 55 56 61 63 62 70 71 72 73 74]</text>
<polyline fill="none" stroke="#0058ad" points="1108,-81.5 1108,-110.5 "/>
<text text-anchor="middle" x="1662" y="-92.3" font-family="Times,serif" font-size="14.00" fill="#0058ad">r 10 [1 2 3 4 5 6 7 9 10 11 8 12 13 14 16 18 15 17 19 20 21 22 23 24 25 26 27 28 29 32 30 31 34 35 33 38 36 37 39 40 41 42 43 44 45 46 47 49 48 52 50 51 53 54 59 55 56 61 63 62 70 71 72 73 74]</text>
<polyline fill="none" stroke="#0058ad" points="2216,-81.5 2216,-110.5 "/>
<text text-anchor="middle" x="2244.5" y="-92.3" font-family="Times,serif" font-size="14.00" fill="#0058ad">a 8 120</text>
<polyline fill="none" stroke="#0058ad" points="2273,-81.5 2273,-110.5 "/>
<text text-anchor="middle" x="2298" y="-92.3" font-family="Times,serif" font-size="14.00" fill="#0058ad">a 5 18</text>
</g>
<!-- T761 -->
<g id="node2" class="node">
<title>T761</title>
<polygon fill="none" stroke="#0058ad" points="1044.5,-.5 1044.5,-29.5 3098.5,-29.5 3098.5,-.5 1044.5,-.5"/>
<text text-anchor="middle" x="1073" y="-11.3" font-family="Times,serif" font-size="14.00" fill="#0058ad">a 10 76</text>
<polyline fill="none" stroke="#0058ad" points="1101.5,-.5 1101.5,-29.5 "/>
<text text-anchor="middle" x="2071.5" y="-11.3" font-family="Times,serif" font-size="14.00" fill="#0058ad">r 8 [1 3 4 6 7 8 9 10 11 12 13 14 15 16 17 18 19 22 20 21 23 24 26 25 27 28 29 30 31 32 33 34 35 36 37 38 39 40 42 41 43 44 46 47 50 51 45 55 56 57 58 59 60 61 62 63 64 65 66 68 67 70 71 72 69 73 74 75 76 77 79 80 81 78 82 83 84 85 86 87 88 89 90 91 92 93 94 95 98 96 99 97 100 103 106 107 108 109 112 101 102 110 111 116 117 118 119]</text>
<polyline fill="none" stroke="#0058ad" points="3041.5,-.5 3041.5,-29.5 "/>
<text text-anchor="middle" x="3070" y="-11.3" font-family="Times,serif" font-size="14.00" fill="#0058ad">a 10 77</text>
</g>
<!-- T763&#45;&gt;T761 -->
<g id="edge1" class="edge">
<title>T763:f0&#45;&gt;T761:f0</title>
<path fill="none" stroke="#5b00c0" d="M553.5,-81C553.5,-28.5341 949.541,-16.1238 1034.3324,-15.0756"/>
<polygon fill="#5b00c0" stroke="#5b00c0" points="1034.5263,-18.5744 1044.5,-15 1034.4742,-11.5746 1034.5263,-18.5744"/>
<text text-anchor="middle" x="626" y="-51.8" font-family="Times,serif" font-size="14.00" fill="#5b00c0">rw</text>
</g>
<!-- T761&#45;&gt;T763 -->
<g id="edge2" class="edge">
<title>T761:f1&#45;&gt;T763:f2</title>
<path fill="none" stroke="#5b00c0" d="M2071.5,-30C2071.5,-106.4028 2228.6614,-10.6721 2243.3953,-70.9374"/>
<polygon fill="#5b00c0" stroke="#5b00c0" points="2239.9295,-71.4417 2244.5,-81 2246.8877,-70.6777 2239.9295,-71.4417"/>
<text text-anchor="middle" x="2247" y="-51.8" font-family="Times,serif" font-size="14.00" fill="#5b00c0">rw</text>
</g>
</g>
</svg>
