<?xml version="1.0" encoding="UTF-8" standalone="no"?>
<!DOCTYPE svg PUBLIC "-//W3C//DTD SVG 1.1//EN"
 "http://www.w3.org/Graphics/SVG/1.1/DTD/svg11.dtd">
<!-- Generated by graphviz version 2.40.1 (20161225.0304)
 -->
<!-- Title: a_graph Pages: 1 -->
<svg width="3975pt" height="362pt"
 viewBox="0.00 0.00 3974.50 362.00" xmlns="http://www.w3.org/2000/svg" xmlns:xlink="http://www.w3.org/1999/xlink">
<g id="graph0" class="graph" transform="scale(1 1) rotate(0) translate(4 358)">
<title>a_graph</title>
<polygon fill="#ffffff" stroke="transparent" points="-4,4 -4,-358 3970.5,-358 3970.5,4 -4,4"/>
<!-- T25293 -->
<g id="node1" class="node">
<title>T25293</title>
<polygon fill="none" stroke="#0058ad" points="2236,-324.5 2236,-353.5 2300,-353.5 2300,-324.5 2236,-324.5"/>
<text text-anchor="middle" x="2268" y="-335.3" font-family="Times,serif" font-size="14.00" fill="#0058ad">a 126 86</text>
</g>
<!-- T25301 -->
<g id="node2" class="node">
<title>T25301</title>
<polygon fill="none" stroke="#0058ad" points="0,-81.5 0,-110.5 3132,-110.5 3132,-81.5 0,-81.5"/>
<text text-anchor="middle" x="655.5" y="-92.3" font-family="Times,serif" font-size="14.00" fill="#0058ad">r 125 [1 2 3 4 6 10 9 7 8 11 12 13 14 15 16 17 18 21 19 20 22 23 24 25 26 28 29 30 27 31 32 33 34 35 36 37 38 39 40 41 42 43 44 45 46 49 50 48 51 52 53 54 56 57 58 59 60 62 61 63 64 65 66 67 70 71 72 73 74 75 76 77 79 78 80 81]</text>
<polyline fill="none" stroke="#0058ad" points="1311,-81.5 1311,-110.5 "/>
<text text-anchor="middle" x="1343" y="-92.3" font-family="Times,serif" font-size="14.00" fill="#0058ad">a 126 87</text>
<polyline fill="none" stroke="#0058ad" points="1375,-81.5 1375,-110.5 "/>
<text text-anchor="middle" x="1407" y="-92.3" font-family="Times,serif" font-size="14.00" fill="#0058ad">a 126 88</text>
<polyline fill="none" stroke="#0058ad" points="1439,-81.5 1439,-110.5 "/>
<text text-anchor="middle" x="2285.5" y="-92.3" font-family="Times,serif" font-size="14.00" fill="#0058ad">r 3 [1 3 4 6 7 8 9 10 11 12 13 14 15 16 17 18 19 20 21 23 26 27 28 29 30 31 33 34 35 36 37 38 40 41 42 43 44 45 46 47 48 49 50 51 53 54 55 56 57 58 59 60 61 62 63 64 65 66 67 68 69 70 71 72 74 75 76 77 78 79 80 84 85 86 87 88 89 90 92 93 94 95 96 97 98 99 100 102 103 104 105 106 107 108 109]</text>
</g>
<!-- T25293&#45;&gt;T25301 -->
<g id="edge2" class="edge">
<title>T25293:f0&#45;&gt;T25301:f1</title>
<path fill="none" stroke="#c02700" d="M2237.7889,-324.4897C2237.191,-324.3162 2236.5943,-324.1526 2236,-324 2115.6477,-293.0918 2080.2592,-321.7217 1957,-306 1676.4475,-270.2156 1351.0493,-394.231 1343.1468,-121.3014"/>
<polygon fill="#c02700" stroke="#c02700" points="1346.6423,-120.9491 1343,-111 1339.643,-121.0489 1346.6423,-120.9491"/>
<text text-anchor="middle" x="1380" y="-213.8" font-family="Times,serif" font-size="14.00" fill="#c02700">ww</text>
</g>
<!-- T25297 -->
<g id="node3" class="node">
<title>T25297</title>
<polygon fill="none" stroke="#0058ad" points="1371,-162.5 1371,-191.5 2727,-191.5 2727,-162.5 1371,-162.5"/>
<text text-anchor="middle" x="2049" y="-173.3" font-family="Times,serif" font-size="14.00" fill="#0058ad">r 126 [1 2 3 4 5 6 7 8 9 12 13 15 16 19 20 21 10 11 22 17 18 23 24 26 30 27 28 29 31 32 33 34 36 37 38 39 40 45 46 35 48 49 50 51 52 53 54 55 56 58 59 57 61 60 62 63 64 65 66 67 68 69 70 71 73 72 74 75 76 77 78 80 81 79 82 83 84 85 86]</text>
</g>
<!-- T25293&#45;&gt;T25297 -->
<g id="edge1" class="edge">
<title>T25293:f0&#45;&gt;T25297:f0</title>
<path fill="none" stroke="#c000a5" d="M2237.411,-324.4548C2236.9391,-324.298 2236.4686,-324.1462 2236,-324 2170.8207,-303.6558 1977.093,-325.1348 1933,-273 1906.7911,-242.0111 1955.0386,-213.3002 1997.0705,-195.5023"/>
<polygon fill="#c000a5" stroke="#c000a5" points="1998.5377,-198.6836 2006.4656,-191.6551 1995.8851,-192.2057 1998.5377,-198.6836"/>
<text text-anchor="middle" x="1940.5" y="-254.3" font-family="Times,serif" font-size="14.00" fill="#c000a5">wr</text>
</g>
<!-- T25295 -->
<g id="node5" class="node">
<title>T25295</title>
<polygon fill="none" stroke="#0058ad" points="1957.5,-243.5 1957.5,-272.5 3268.5,-272.5 3268.5,-243.5 1957.5,-243.5"/>
<text text-anchor="middle" x="2613" y="-254.3" font-family="Times,serif" font-size="14.00" fill="#0058ad">r 125 [1 2 3 4 6 10 9 7 8 11 12 13 14 15 16 17 18 21 19 20 22 23 24 25 26 28 29 30 27 31 32 33 34 35 36 37 38 39 40 41 42 43 44 45 46 49 50 48 51 52 53 54 56 57 58 59 60 62 61 63 64 65 66 67 70 71 72 73 74 75 76 77 79 78 80 81]</text>
</g>
<!-- T25293&#45;&gt;T25295 -->
<g id="edge3" class="edge">
<title>T25293&#45;&gt;T25295</title>
<path fill="none" stroke="#0050c0" d="M2300.147,-331.4525C2354.8178,-318.6167 2467.1699,-292.2384 2541.2871,-274.8369"/>
<polygon fill="#0050c0" stroke="#0050c0" points="2542.0951,-278.2425 2551.0303,-272.5494 2540.495,-271.4278 2542.0951,-278.2425"/>
<text text-anchor="middle" x="2475.5" y="-294.8" font-family="Times,serif" font-size="14.00" fill="#0050c0">rt</text>
</g>
<!-- T25299 -->
<g id="node4" class="node">
<title>T25299</title>
<polygon fill="none" stroke="#0058ad" points="2563.5,-.5 2563.5,-29.5 3966.5,-29.5 3966.5,-.5 2563.5,-.5"/>
<text text-anchor="middle" x="2595.5" y="-11.3" font-family="Times,serif" font-size="14.00" fill="#0058ad">a 125 82</text>
<polyline fill="none" stroke="#0058ad" points="2627.5,-.5 2627.5,-29.5 "/>
<text text-anchor="middle" x="3297" y="-11.3" font-family="Times,serif" font-size="14.00" fill="#0058ad">r 126 [1 2 3 4 5 6 7 8 9 12 13 15 16 19 20 21 10 11 22 17 18 23 24 26 30 27 28 29 31 32 33 34 36 37 38 39 40 45 46 35 48 49 50 51 52 53 54 55 56 58 59 57 61 60 62 63 64 65 66 67 68 69 70 71 73 72 74 75 76 77 78 80 81 79 82 83 84 85]</text>
</g>
<!-- T25301&#45;&gt;T25299 -->
<g id="edge4" class="edge">
<title>T25301:f0&#45;&gt;T25299:f0</title>
<path fill="none" stroke="#5b00c0" d="M655,-81C655,-29.6255 2395.8443,-15.8496 2552.8608,-15.0388"/>
<polygon fill="#5b00c0" stroke="#5b00c0" points="2553.0135,-18.5384 2563,-15 2552.9866,-11.5384 2553.0135,-18.5384"/>
<text text-anchor="middle" x="932.5" y="-51.8" font-family="Times,serif" font-size="14.00" fill="#5b00c0">rw</text>
</g>
<!-- T25297&#45;&gt;T25301 -->
<g id="edge5" class="edge">
<title>T25297:f0&#45;&gt;T25301:f1</title>
<path fill="none" stroke="#5b00c0" d="M1519.3324,-162.4883C1431.1582,-153.9214 1362.7982,-140.7098 1346.6393,-120.46"/>
<polygon fill="#5b00c0" stroke="#5b00c0" points="1349.8572,-119.0765 1343,-111 1343.324,-121.5899 1349.8572,-119.0765"/>
<text text-anchor="middle" x="1399.5" y="-132.8" font-family="Times,serif" font-size="14.00" fill="#5b00c0">rw</text>
</g>
<!-- T25299&#45;&gt;T25293 -->
<g id="edge6" class="edge">
<title>T25299:f1&#45;&gt;T25293:f0</title>
<path fill="none" stroke="#5b00c0" d="M3297,-30C3297,-59.3333 3297,-66.6667 3297,-96 3297,-258 3297,-258 3297,-258 3297,-366.2014 2452.2855,-300.5847 2308.0295,-322.5776"/>
<polygon fill="#5b00c0" stroke="#5b00c0" points="2307.3606,-319.142 2298.2085,-324.4795 2308.6916,-326.0143 2307.3606,-319.142"/>
<text text-anchor="middle" x="3304.5" y="-173.3" font-family="Times,serif" font-size="14.00" fill="#5b00c0">rw</text>
</g>
<!-- T25295&#45;&gt;T25297 -->
<g id="edge7" class="edge">
<title>T25295&#45;&gt;T25297</title>
<path fill="none" stroke="#0050c0" d="M2511.8426,-243.4721C2412.9053,-229.263 2262.6003,-207.6766 2160.3178,-192.9871"/>
<polygon fill="#0050c0" stroke="#0050c0" points="2160.6594,-189.5004 2150.2633,-191.5431 2159.6642,-196.4293 2160.6594,-189.5004"/>
<text text-anchor="middle" x="2386.5" y="-213.8" font-family="Times,serif" font-size="14.00" fill="#0050c0">rt</text>
</g>
<!-- T25295&#45;&gt;T25299 -->
<g id="edge8" class="edge">
<title>T25295:f0&#45;&gt;T25299:f0</title>
<path fill="none" stroke="#5b00c0" d="M2896.5829,-243.4918C3065.991,-224.5374 3232.068,-180.9708 3141,-81 3061.3398,6.4477 2621.856,-142.6464 2596.1733,-39.9957"/>
<polygon fill="#5b00c0" stroke="#5b00c0" points="2599.6421,-39.5237 2595,-30 2592.6898,-40.3399 2599.6421,-39.5237"/>
<text text-anchor="middle" x="3173.5" y="-132.8" font-family="Times,serif" font-size="14.00" fill="#5b00c0">rw</text>
</g>
</g>
</svg>
