<?xml version="1.0" encoding="UTF-8" standalone="no"?>
<!DOCTYPE svg PUBLIC "-//W3C//DTD SVG 1.1//EN"
 "http://www.w3.org/Graphics/SVG/1.1/DTD/svg11.dtd">
<!-- Generated by graphviz version 2.40.1 (20161225.0304)
 -->
<!-- Title: a_graph Pages: 1 -->
<svg width="5539pt" height="200pt"
 viewBox="0.00 0.00 5539.00 200.00" xmlns="http://www.w3.org/2000/svg" xmlns:xlink="http://www.w3.org/1999/xlink">
<g id="graph0" class="graph" transform="scale(1 1) rotate(0) translate(4 196)">
<title>a_graph</title>
<polygon fill="#ffffff" stroke="transparent" points="-4,4 -4,-196 5535,-196 5535,4 -4,4"/>
<!-- T31427 -->
<g id="node1" class="node">
<title>T31427</title>
<polygon fill="none" stroke="#0058ad" points="1580,-162.5 1580,-191.5 5531,-191.5 5531,-162.5 1580,-162.5"/>
<text text-anchor="middle" x="2414.5" y="-173.3" font-family="Times,serif" font-size="14.00" fill="#0058ad">r 131 [1 2 7 8 9 10 11 12 13 14 15 16 17 18 19 20 21 22 23 24 25 26 27 28 29 30 31 32 33 34 35 36 37 38 39 40 41 42 43 45 46 47 48 49 50 51 52 53 54 55 56 57 58 59 60 61 62 63 64 65 67 68 69 70 71 72 73 74 75 79 80 81 82 83 84 85 86 87 88 90 89 91 92 93 94 95 96 97 98 99 100 101 102 104]</text>
<polyline fill="none" stroke="#0058ad" points="3249,-162.5 3249,-191.5 "/>
<text text-anchor="middle" x="3281" y="-173.3" font-family="Times,serif" font-size="14.00" fill="#0058ad">a 157 76</text>
<polyline fill="none" stroke="#0058ad" points="3313,-162.5 3313,-191.5 "/>
<text text-anchor="middle" x="3827" y="-173.3" font-family="Times,serif" font-size="14.00" fill="#0058ad">r 156 [1 2 3 4 5 6 7 8 10 9 11 12 13 14 15 16 17 18 19 20 21 22 23 24 25 26 28 29 30 31 32 33 35 36 34 37 38 39 40 42 43 44 45 46 47 48 49 50 51 52 53 55 56 57 58 59 60 62 61 63]</text>
<polyline fill="none" stroke="#0058ad" points="4341,-162.5 4341,-191.5 "/>
<text text-anchor="middle" x="4936" y="-173.3" font-family="Times,serif" font-size="14.00" fill="#0058ad">r 157 [2 3 4 5 6 7 8 9 10 11 12 13 14 16 17 18 19 20 15 21 22 23 24 25 26 27 28 29 30 31 32 33 34 35 36 37 38 40 41 42 43 39 44 45 46 47 48 50 51 56 57 58 59 60 61 62 63 64 65 66 67 68 70 71 69 72 74 75 76]</text>
</g>
<!-- T31430 -->
<g id="node3" class="node">
<title>T31430</title>
<polygon fill="none" stroke="#0058ad" points="0,-81.5 0,-110.5 3015,-110.5 3015,-81.5 0,-81.5"/>
<text text-anchor="middle" x="32" y="-92.3" font-family="Times,serif" font-size="14.00" fill="#0058ad">a 156 64</text>
<polyline fill="none" stroke="#0058ad" points="64,-81.5 64,-110.5 "/>
<text text-anchor="middle" x="659" y="-92.3" font-family="Times,serif" font-size="14.00" fill="#0058ad">r 157 [2 3 4 5 6 7 8 9 10 11 12 13 14 16 17 18 19 20 15 21 22 23 24 25 26 27 28 29 30 31 32 33 34 35 36 37 38 40 41 42 43 39 44 45 46 47 48 50 51 56 57 58 59 60 61 62 63 64 65 66 67 68 70 71 69 72 74 75 76]</text>
<polyline fill="none" stroke="#0058ad" points="1254,-81.5 1254,-110.5 "/>
<text text-anchor="middle" x="2102.5" y="-92.3" font-family="Times,serif" font-size="14.00" fill="#0058ad">r 154 [1 2 3 4 5 6 7 8 9 11 10 12 13 14 15 16 17 18 19 20 21 22 24 25 26 27 28 29 23 30 31 32 34 35 36 37 38 39 40 41 42 44 43 45 46 48 50 52 51 54 55 56 57 59 60 61 63 62 64 65 67 66 68 69 70 71 72 73 74 75 76 77 78 79 80 81 82 83 84 85 86 87 88 89 90 91 92 95 99 100 101 102 103 104 107 108]</text>
<polyline fill="none" stroke="#0058ad" points="2951,-81.5 2951,-110.5 "/>
<text text-anchor="middle" x="2983" y="-92.3" font-family="Times,serif" font-size="14.00" fill="#0058ad">a 157 73</text>
</g>
<!-- T31427&#45;&gt;T31430 -->
<g id="edge1" class="edge">
<title>T31427:f1&#45;&gt;T31430:f3</title>
<path fill="none" stroke="#c02700" d="M3280.5,-162C3280.5,-133.9674 3080.2308,-101.4012 3025.7964,-96.6025"/>
<polygon fill="#c02700" stroke="#c02700" points="3025.6874,-93.0903 3015.5,-96 3025.2784,-100.0783 3025.6874,-93.0903"/>
<text text-anchor="middle" x="3265.5" y="-132.8" font-family="Times,serif" font-size="14.00" fill="#c02700">ww</text>
</g>
<!-- T31433 -->
<g id="node2" class="node">
<title>T31433</title>
<polygon fill="none" stroke="#0058ad" points="1428.5,-.5 1428.5,-29.5 4020.5,-29.5 4020.5,-.5 1428.5,-.5"/>
<text text-anchor="middle" x="1464" y="-11.3" font-family="Times,serif" font-size="14.00" fill="#0058ad">a 154 109</text>
<polyline fill="none" stroke="#0058ad" points="1499.5,-.5 1499.5,-29.5 "/>
<text text-anchor="middle" x="1535" y="-11.3" font-family="Times,serif" font-size="14.00" fill="#0058ad">a 154 110</text>
<polyline fill="none" stroke="#0058ad" points="1570.5,-.5 1570.5,-29.5 "/>
<text text-anchor="middle" x="2209" y="-11.3" font-family="Times,serif" font-size="14.00" fill="#0058ad">r 146 [1 2 3 5 6 7 8 9 10 11 12 13 14 15 16 17 18 19 20 21 22 23 24 26 27 28 29 30 31 32 33 34 35 36 37 38 39 40 41 42 44 45 46 48 49 50 51 52 53 54 55 56 57 59 58 61 62 63 64 65 66 67 68 69 70 71 72 74 76 77 78 79 80 81]</text>
<polyline fill="none" stroke="#0058ad" points="2847.5,-.5 2847.5,-29.5 "/>
<text text-anchor="middle" x="3434" y="-11.3" font-family="Times,serif" font-size="14.00" fill="#0058ad">r 157 [2 3 4 5 6 7 8 9 10 11 12 13 14 16 17 18 19 20 15 21 22 23 24 25 26 27 28 29 30 31 32 33 34 35 36 37 38 40 41 42 43 39 44 45 46 47 48 50 51 56 57 58 59 60 61 62 63 64 65 66 67 68 70 71 69 72 74 75]</text>
</g>
<!-- T31433&#45;&gt;T31427 -->
<g id="edge2" class="edge">
<title>T31433:f3&#45;&gt;T31427:f1</title>
<path fill="none" stroke="#5b00c0" d="M3434.5,-30C3434.5,-116.4492 3292.8737,-75.582 3281.256,-151.5873"/>
<polygon fill="#5b00c0" stroke="#5b00c0" points="3277.7334,-151.7728 3280.5,-162 3284.715,-152.2797 3277.7334,-151.7728"/>
<text text-anchor="middle" x="3408" y="-92.3" font-family="Times,serif" font-size="14.00" fill="#5b00c0">rw</text>
</g>
<!-- T31430&#45;&gt;T31433 -->
<g id="edge3" class="edge">
<title>T31430:f2&#45;&gt;T31433:f0</title>
<path fill="none" stroke="#5b00c0" d="M2102.5,-81C2102.5,57.8346 1495.5373,-160.8163 1464.7149,-40.1352"/>
<polygon fill="#5b00c0" stroke="#5b00c0" points="1468.1654,-39.5123 1463.5,-30 1461.2152,-40.3455 1468.1654,-39.5123"/>
<text text-anchor="middle" x="2104" y="-51.8" font-family="Times,serif" font-size="14.00" fill="#5b00c0">rw</text>
</g>
</g>
</svg>
