<?xml version="1.0" encoding="UTF-8" standalone="no"?>
<!DOCTYPE svg PUBLIC "-//W3C//DTD SVG 1.1//EN"
 "http://www.w3.org/Graphics/SVG/1.1/DTD/svg11.dtd">
<!-- Generated by graphviz version 2.40.1 (20161225.0304)
 -->
<!-- Title: a_graph Pages: 1 -->
<svg width="3267pt" height="200pt"
 viewBox="0.00 0.00 3266.50 200.00" xmlns="http://www.w3.org/2000/svg" xmlns:xlink="http://www.w3.org/1999/xlink">
<g id="graph0" class="graph" transform="scale(1 1) rotate(0) translate(4 196)">
<title>a_graph</title>
<polygon fill="#ffffff" stroke="transparent" points="-4,4 -4,-196 3262.5,-196 3262.5,4 -4,4"/>
<!-- T37995 -->
<g id="node1" class="node">
<title>T37995</title>
<polygon fill="none" stroke="#0058ad" points="0,-162.5 0,-191.5 2449,-191.5 2449,-162.5 0,-162.5"/>
<text text-anchor="middle" x="661" y="-173.3" font-family="Times,serif" font-size="14.00" fill="#0058ad">r 180 [1 2 3 4 5 6 7 8 9 10 11 12 13 14 15 16 18 19 20 21 22 24 25 26 27 28 29 30 31 32 33 34 35 36 37 38 39 41 42 43 44 45 46 47 48 49 50 51 52 53 54 55 57 58 59 60 61 62 63 64 65 66 67 68 69 70 71 72 73 74 75 76 77 79 80 81 82]</text>
<polyline fill="none" stroke="#0058ad" points="1322,-162.5 1322,-191.5 "/>
<text text-anchor="middle" x="1853.5" y="-173.3" font-family="Times,serif" font-size="14.00" fill="#0058ad">r 188 [1 2 3 4 7 8 9 10 11 5 6 12 13 14 16 17 18 19 20 21 23 24 25 26 29 30 31 32 34 35 36 37 38 39 40 41 42 43 44 45 46 47 48 49 50 51 52 53 54 55 56 57 58 59 60 61 62 63 64 65 66 67]</text>
<polyline fill="none" stroke="#0058ad" points="2385,-162.5 2385,-191.5 "/>
<text text-anchor="middle" x="2417" y="-173.3" font-family="Times,serif" font-size="14.00" fill="#0058ad">a 187 77</text>
</g>
<!-- T37993 -->
<g id="node2" class="node">
<title>T37993</title>
<polygon fill="none" stroke="#0058ad" points="1916.5,-81.5 1916.5,-110.5 3084.5,-110.5 3084.5,-81.5 1916.5,-81.5"/>
<text text-anchor="middle" x="1948.5" y="-92.3" font-family="Times,serif" font-size="14.00" fill="#0058ad">a 188 68</text>
<polyline fill="none" stroke="#0058ad" points="1980.5,-81.5 1980.5,-110.5 "/>
<text text-anchor="middle" x="2532.5" y="-92.3" font-family="Times,serif" font-size="14.00" fill="#0058ad">r 187 [1 2 3 4 5 6 7 9 10 13 14 16 17 18 19 20 21 22 23 24 25 26 27 28 29 30 31 32 33 34 35 36 37 38 39 40 41 42 43 44 45 48 49 52 55 56 58 59 60 62 63 64 65 66 67 68 69 70 71 72 73 74 75 76]</text>
</g>
<!-- T37995&#45;&gt;T37993 -->
<g id="edge1" class="edge">
<title>T37995:f1&#45;&gt;T37993:f0</title>
<path fill="none" stroke="#5b00c0" d="M1853.5,-162C1853.5,-130.5667 1880.8868,-133.8237 1902.5,-111 1905.4392,-107.8962 1906.6953,-104.4063 1908.1397,-101.5743"/>
<polygon fill="#5b00c0" stroke="#5b00c0" points="1910.1215,-104.4596 1916.5,-96 1906.2382,-98.6355 1910.1215,-104.4596"/>
<text text-anchor="middle" x="1885" y="-132.8" font-family="Times,serif" font-size="14.00" fill="#5b00c0">rw</text>
</g>
<!-- T37993&#45;&gt;T37995 -->
<g id="edge2" class="edge">
<title>T37993:f1&#45;&gt;T37995:f2</title>
<path fill="none" stroke="#5b00c0" d="M2532.5,-111C2532.5,-154.7241 2501.627,-174.1251 2459.5319,-176.7008"/>
<polygon fill="#5b00c0" stroke="#5b00c0" points="2459.3912,-173.2034 2449.5,-177 2459.5999,-180.2003 2459.3912,-173.2034"/>
<text text-anchor="middle" x="2537" y="-132.8" font-family="Times,serif" font-size="14.00" fill="#5b00c0">rw</text>
</g>
<!-- T37997 -->
<g id="node3" class="node">
<title>T37997</title>
<polygon fill="none" stroke="#0058ad" points="1074.5,-.5 1074.5,-29.5 3258.5,-29.5 3258.5,-.5 1074.5,-.5"/>
<text text-anchor="middle" x="1626.5" y="-11.3" font-family="Times,serif" font-size="14.00" fill="#0058ad">r 187 [1 2 3 4 5 6 7 9 10 13 14 16 17 18 19 20 21 22 23 24 25 26 27 28 29 30 31 32 33 34 35 36 37 38 39 40 41 42 43 44 45 48 49 52 55 56 58 59 60 62 63 64 65 66 67 68 69 70 71 72 73 74 75 76]</text>
<polyline fill="none" stroke="#0058ad" points="2178.5,-.5 2178.5,-29.5 "/>
<text text-anchor="middle" x="2718.5" y="-11.3" font-family="Times,serif" font-size="14.00" fill="#0058ad">r 188 [1 2 3 4 7 8 9 10 11 5 6 12 13 14 16 17 18 19 20 21 23 24 25 26 29 30 31 32 34 35 36 37 38 39 40 41 42 43 44 45 46 47 48 49 50 51 52 53 54 55 56 57 58 59 60 61 62 63 64 65 66 67 68]</text>
</g>
<!-- T37993&#45;&gt;T37997 -->
<g id="edge3" class="edge">
<title>T37993:f0&#45;&gt;T37997:f1</title>
<path fill="none" stroke="#c000a5" d="M1948.5,-81C1948.5,86.9692 2687.2418,-189.7055 2717.5418,-39.9737"/>
<polygon fill="#c000a5" stroke="#c000a5" points="2721.0275,-40.2889 2718.5,-30 2714.0596,-39.6194 2721.0275,-40.2889"/>
<text text-anchor="middle" x="2722" y="-51.8" font-family="Times,serif" font-size="14.00" fill="#c000a5">wr</text>
</g>
<!-- T37997&#45;&gt;T37995 -->
<g id="edge4" class="edge">
<title>T37997:f0&#45;&gt;T37995:f2</title>
<path fill="none" stroke="#5b00c0" d="M1626.5,-30C1626.5,-153.5819 1771.2894,-86.9067 1892.5,-111 1946.7274,-121.7789 2365.8546,-105.4506 2413.1599,-152.7689"/>
<polygon fill="#5b00c0" stroke="#5b00c0" points="2410.0777,-154.4395 2417.5,-162 2416.4125,-151.4611 2410.0777,-154.4395"/>
<text text-anchor="middle" x="1900" y="-92.3" font-family="Times,serif" font-size="14.00" fill="#5b00c0">rw</text>
</g>
</g>
</svg>
