<?xml version="1.0" encoding="UTF-8" standalone="no"?>
<!DOCTYPE svg PUBLIC "-//W3C//DTD SVG 1.1//EN"
 "http://www.w3.org/Graphics/SVG/1.1/DTD/svg11.dtd">
<!-- Generated by graphviz version 2.40.1 (20161225.0304)
 -->
<!-- Title: a_graph Pages: 1 -->
<svg width="2097pt" height="119pt"
 viewBox="0.00 0.00 2096.50 119.00" xmlns="http://www.w3.org/2000/svg" xmlns:xlink="http://www.w3.org/1999/xlink">
<g id="graph0" class="graph" transform="scale(1 1) rotate(0) translate(4 115)">
<title>a_graph</title>
<polygon fill="#ffffff" stroke="transparent" points="-4,4 -4,-115 2092.5,-115 2092.5,4 -4,4"/>
<!-- T18603 -->
<g id="node1" class="node">
<title>T18603</title>
<polygon fill="none" stroke="#0058ad" points="0,-81.5 0,-110.5 820,-110.5 820,-81.5 0,-81.5"/>
<text text-anchor="middle" x="381.5" y="-92.3" font-family="Times,serif" font-size="14.00" fill="#0058ad">r 94 [1 2 3 4 5 6 7 8 9 10 11 13 14 12 15 17 18 16 20 21 24 19 26 27 28 30 25 29 31 32 33 34 35 36 37 38 39 40 42 44 43 46 47 45 48]</text>
<polyline fill="none" stroke="#0058ad" points="763,-81.5 763,-110.5 "/>
<text text-anchor="middle" x="791.5" y="-92.3" font-family="Times,serif" font-size="14.00" fill="#0058ad">a 95 57</text>
</g>
<!-- T18601 -->
<g id="node2" class="node">
<title>T18601</title>
<polygon fill="none" stroke="#0058ad" points="333.5,-.5 333.5,-29.5 2088.5,-29.5 2088.5,-.5 333.5,-.5"/>
<text text-anchor="middle" x="362" y="-11.3" font-family="Times,serif" font-size="14.00" fill="#0058ad">a 94 49</text>
<polyline fill="none" stroke="#0058ad" points="390.5,-.5 390.5,-29.5 "/>
<text text-anchor="middle" x="849.5" y="-11.3" font-family="Times,serif" font-size="14.00" fill="#0058ad">r 95 [2 3 4 5 6 7 1 8 9 12 13 10 15 16 17 14 18 19 20 21 23 22 24 25 26 27 28 29 31 32 33 34 35 36 37 38 39 40 41 42 43 44 45 46 49 50 48 47 53 54 51 52 55 56]</text>
<polyline fill="none" stroke="#0058ad" points="1308.5,-.5 1308.5,-29.5 "/>
<text text-anchor="middle" x="1698.5" y="-11.3" font-family="Times,serif" font-size="14.00" fill="#0058ad">r 94 [1 2 3 4 5 6 7 8 9 10 11 13 14 12 15 17 18 16 20 21 24 19 26 27 28 30 25 29 31 32 33 34 35 36 37 38 39 40 42 44 43 46 47 45 48 49]</text>
</g>
<!-- T18603&#45;&gt;T18601 -->
<g id="edge1" class="edge">
<title>T18603:f0&#45;&gt;T18601:f0</title>
<path fill="none" stroke="#5b00c0" d="M381,-81C381,-60.5909 367.4736,-55.5347 363.2466,-39.9234"/>
<polygon fill="#5b00c0" stroke="#5b00c0" points="366.7193,-39.4857 362,-30 359.7739,-40.3583 366.7193,-39.4857"/>
<text text-anchor="middle" x="384.5" y="-51.8" font-family="Times,serif" font-size="14.00" fill="#5b00c0">rw</text>
</g>
<!-- T18601&#45;&gt;T18603 -->
<g id="edge2" class="edge">
<title>T18601:f1&#45;&gt;T18603:f1</title>
<path fill="none" stroke="#5b00c0" d="M849,-30C849,-60.0099 804.5766,-50.2877 794.1649,-70.9854"/>
<polygon fill="#5b00c0" stroke="#5b00c0" points="790.692,-70.4862 792,-81 797.534,-71.9653 790.692,-70.4862"/>
<text text-anchor="middle" x="845.5" y="-51.8" font-family="Times,serif" font-size="14.00" fill="#5b00c0">rw</text>
</g>
</g>
</svg>
