<?xml version="1.0" encoding="UTF-8" standalone="no"?>
<!DOCTYPE svg PUBLIC "-//W3C//DTD SVG 1.1//EN"
 "http://www.w3.org/Graphics/SVG/1.1/DTD/svg11.dtd">
<!-- Generated by graphviz version 2.40.1 (20161225.0304)
 -->
<!-- Title: a_graph Pages: 1 -->
<svg width="2928pt" height="119pt"
 viewBox="0.00 0.00 2928.00 119.00" xmlns="http://www.w3.org/2000/svg" xmlns:xlink="http://www.w3.org/1999/xlink">
<g id="graph0" class="graph" transform="scale(1 1) rotate(0) translate(4 115)">
<title>a_graph</title>
<polygon fill="#ffffff" stroke="transparent" points="-4,4 -4,-115 2924,-115 2924,4 -4,4"/>
<!-- T31053 -->
<g id="node1" class="node">
<title>T31053</title>
<polygon fill="none" stroke="#0058ad" points="1086,-81.5 1086,-110.5 2828,-110.5 2828,-81.5 1086,-81.5"/>
<text text-anchor="middle" x="1298.5" y="-92.3" font-family="Times,serif" font-size="14.00" fill="#0058ad">r 156 [1 2 3 4 5 6 7 8 10 9 11 12 13 14 15 16 17 18 19 20 21 22 23 24 25]</text>
<polyline fill="none" stroke="#0058ad" points="1511,-81.5 1511,-110.5 "/>
<text text-anchor="middle" x="1543" y="-92.3" font-family="Times,serif" font-size="14.00" fill="#0058ad">a 155 77</text>
<polyline fill="none" stroke="#0058ad" points="1575,-81.5 1575,-110.5 "/>
<text text-anchor="middle" x="2201.5" y="-92.3" font-family="Times,serif" font-size="14.00" fill="#0058ad">r 155 [1 2 3 4 5 6 8 7 9 10 11 12 13 14 15 16 17 19 20 18 21 22 23 25 24 27 28 29 30 34 35 36 37 38 31 32 39 40 41 43 44 42 45 49 48 50 51 52 53 54 55 56 57 59 60 61 58 63 62 64 65 66 67 68 69 70 71 72 73 74 75 76 77]</text>
</g>
<!-- T31051 -->
<g id="node2" class="node">
<title>T31051</title>
<polygon fill="none" stroke="#0058ad" points="0,-.5 0,-29.5 2920,-29.5 2920,-.5 0,-.5"/>
<text text-anchor="middle" x="32" y="-11.3" font-family="Times,serif" font-size="14.00" fill="#0058ad">a 156 26</text>
<polyline fill="none" stroke="#0058ad" points="64,-.5 64,-29.5 "/>
<text text-anchor="middle" x="874.5" y="-11.3" font-family="Times,serif" font-size="14.00" fill="#0058ad">r 131 [1 2 7 8 9 10 11 12 13 14 15 16 17 18 19 20 21 22 23 24 25 26 27 28 29 30 31 32 33 34 35 36 37 38 39 40 41 42 43 45 46 47 48 49 50 51 52 53 54 55 56 57 58 59 60 61 62 63 64 65 67 68 69 70 71 72 73 74 75 79 80 81 82 83 84 85 86 87 88 90 89 91 92 93 94 95 96 97 98 99 100 101]</text>
<polyline fill="none" stroke="#0058ad" points="1685,-.5 1685,-29.5 "/>
<text text-anchor="middle" x="2302.5" y="-11.3" font-family="Times,serif" font-size="14.00" fill="#0058ad">r 155 [1 2 3 4 5 6 8 7 9 10 11 12 13 14 15 16 17 19 20 18 21 22 23 25 24 27 28 29 30 34 35 36 37 38 31 32 39 40 41 43 44 42 45 49 48 50 51 52 53 54 55 56 57 59 60 61 58 63 62 64 65 66 67 68 69 70 71 72 73 74 75 76]</text>
</g>
<!-- T31053&#45;&gt;T31051 -->
<g id="edge1" class="edge">
<title>T31053:f0&#45;&gt;T31051:f0</title>
<path fill="none" stroke="#5b00c0" d="M1086,-96C1030.0799,-96 123.2541,-89.3413 38.362,-37.9166"/>
<polygon fill="#5b00c0" stroke="#5b00c0" points="40.9924,-35.6024 32,-30 35.536,-39.9874 40.9924,-35.6024"/>
<text text-anchor="middle" x="163.5" y="-51.8" font-family="Times,serif" font-size="14.00" fill="#5b00c0">rw</text>
</g>
<!-- T31051&#45;&gt;T31053 -->
<g id="edge2" class="edge">
<title>T31051:f2&#45;&gt;T31053:f1</title>
<path fill="none" stroke="#5b00c0" d="M2303,-30C2303,-195.6321 1575.3055,76.1245 1544.0373,-70.7136"/>
<polygon fill="#5b00c0" stroke="#5b00c0" points="1540.5211,-70.6993 1543,-81 1547.4858,-71.4017 1540.5211,-70.6993"/>
<text text-anchor="middle" x="2307.5" y="-51.8" font-family="Times,serif" font-size="14.00" fill="#5b00c0">rw</text>
</g>
</g>
</svg>
