<?xml version="1.0" encoding="UTF-8" standalone="no"?>
<!DOCTYPE svg PUBLIC "-//W3C//DTD SVG 1.1//EN"
 "http://www.w3.org/Graphics/SVG/1.1/DTD/svg11.dtd">
<!-- Generated by graphviz version 2.40.1 (20161225.0304)
 -->
<!-- Title: a_graph Pages: 1 -->
<svg width="1392pt" height="281pt"
 viewBox="0.00 0.00 1392.00 281.00" xmlns="http://www.w3.org/2000/svg" xmlns:xlink="http://www.w3.org/1999/xlink">
<g id="graph0" class="graph" transform="scale(1 1) rotate(0) translate(4 277)">
<title>a_graph</title>
<polygon fill="#ffffff" stroke="transparent" points="-4,4 -4,-277 1388,-277 1388,4 -4,4"/>
<!-- T6575 -->
<g id="node1" class="node">
<title>T6575</title>
<polygon fill="none" stroke="#0058ad" points="680.5,-243.5 680.5,-272.5 1143.5,-272.5 1143.5,-243.5 680.5,-243.5"/>
<text text-anchor="middle" x="763.5" y="-254.3" font-family="Times,serif" font-size="14.00" fill="#0058ad">r 36 [1 2 3 4 5 6 7 9 10 13]</text>
<polyline fill="none" stroke="#0058ad" points="846.5,-243.5 846.5,-272.5 "/>
<text text-anchor="middle" x="875" y="-254.3" font-family="Times,serif" font-size="14.00" fill="#0058ad">a 36 11</text>
<polyline fill="none" stroke="#0058ad" points="903.5,-243.5 903.5,-272.5 "/>
<text text-anchor="middle" x="932" y="-254.3" font-family="Times,serif" font-size="14.00" fill="#0058ad">a 34 94</text>
<polyline fill="none" stroke="#0058ad" points="960.5,-243.5 960.5,-272.5 "/>
<text text-anchor="middle" x="1052" y="-254.3" font-family="Times,serif" font-size="14.00" fill="#0058ad">r 36 [1 2 3 4 5 6 7 9 10 13 11]</text>
</g>
<!-- T6581 -->
<g id="node3" class="node">
<title>T6581</title>
<polygon fill="none" stroke="#0058ad" points="655.5,-162.5 655.5,-191.5 838.5,-191.5 838.5,-162.5 655.5,-162.5"/>
<text text-anchor="middle" x="747" y="-173.3" font-family="Times,serif" font-size="14.00" fill="#0058ad">r 36 [1 2 3 4 5 6 7 9 10 13 11]</text>
</g>
<!-- T6575&#45;&gt;T6581 -->
<g id="edge2" class="edge">
<title>T6575:f1&#45;&gt;T6581:f0</title>
<path fill="none" stroke="#c000a5" d="M875,-243C875,-240.4646 823.5839,-214.6316 785.9256,-196.0509"/>
<polygon fill="#c000a5" stroke="#c000a5" points="787.205,-192.7797 776.6875,-191.5019 784.1126,-199.0596 787.205,-192.7797"/>
<text text-anchor="middle" x="847.5" y="-213.8" font-family="Times,serif" font-size="14.00" fill="#c000a5">wr</text>
</g>
<!-- T6583 -->
<g id="node4" class="node">
<title>T6583</title>
<polygon fill="none" stroke="#0058ad" points="480.5,-81.5 480.5,-110.5 903.5,-110.5 903.5,-81.5 480.5,-81.5"/>
<text text-anchor="middle" x="572" y="-92.3" font-family="Times,serif" font-size="14.00" fill="#0058ad">r 36 [1 2 3 4 5 6 7 9 10 13 11]</text>
<polyline fill="none" stroke="#0058ad" points="663.5,-81.5 663.5,-110.5 "/>
<text text-anchor="middle" x="755" y="-92.3" font-family="Times,serif" font-size="14.00" fill="#0058ad">r 36 [1 2 3 4 5 6 7 9 10 13 11]</text>
<polyline fill="none" stroke="#0058ad" points="846.5,-81.5 846.5,-110.5 "/>
<text text-anchor="middle" x="875" y="-92.3" font-family="Times,serif" font-size="14.00" fill="#0058ad">a 36 14</text>
</g>
<!-- T6575&#45;&gt;T6583 -->
<g id="edge1" class="edge">
<title>T6575:f1&#45;&gt;T6583:f2</title>
<path fill="none" stroke="#c02700" d="M875,-243C875,-187.8854 875,-171.604 875,-121.1919"/>
<polygon fill="#c02700" stroke="#c02700" points="878.5001,-121 875,-111 871.5001,-121 878.5001,-121"/>
<text text-anchor="middle" x="885" y="-173.3" font-family="Times,serif" font-size="14.00" fill="#c02700">ww</text>
</g>
<!-- T6589 -->
<g id="node2" class="node">
<title>T6589</title>
<polygon fill="none" stroke="#0058ad" points="0,-.5 0,-29.5 1384,-29.5 1384,-.5 0,-.5"/>
<text text-anchor="middle" x="692" y="-11.3" font-family="Times,serif" font-size="14.00" fill="#0058ad">r 34 [1 2 3 4 5 6 7 8 9 10 11 14 15 12 13 16 20 18 22 23 24 25 26 27 29 30 28 31 32 34 35 37 36 38 39 40 42 44 43 45 46 48 47 49 50 51 52 53 54 55 58 62 63 64 66 67 68 69 71 72 73 74 75 76 77 78 80 81 79 82 83 84 85 86 88 89 90 87 91 92 93]</text>
</g>
<!-- T6589&#45;&gt;T6575 -->
<g id="edge3" class="edge">
<title>T6589:f0&#45;&gt;T6575:f2</title>
<path fill="none" stroke="#5b00c0" d="M828.2215,-29.5548C860.3204,-39.3811 891.43,-55.3218 913,-81 957.351,-133.7979 934.521,-167.1351 932.1857,-232.6492"/>
<polygon fill="#5b00c0" stroke="#5b00c0" points="928.6801,-232.9388 932,-243 935.679,-233.0644 928.6801,-232.9388"/>
<text text-anchor="middle" x="946.5" y="-132.8" font-family="Times,serif" font-size="14.00" fill="#5b00c0">rw</text>
</g>
<!-- T6581&#45;&gt;T6589 -->
<g id="edge5" class="edge">
<title>T6581&#45;&gt;T6589</title>
<path fill="none" stroke="#0050c0" d="M655.2693,-168.0409C581.358,-158.7023 485.9394,-141.1169 462,-111 428.3873,-68.7138 482.255,-44.8402 546.275,-31.4772"/>
<polygon fill="#0050c0" stroke="#0050c0" points="547.0796,-34.8858 556.2041,-29.5013 545.7133,-28.0204 547.0796,-34.8858"/>
<text text-anchor="middle" x="466.5" y="-92.3" font-family="Times,serif" font-size="14.00" fill="#0050c0">rt</text>
</g>
<!-- T6581&#45;&gt;T6583 -->
<g id="edge4" class="edge">
<title>T6581:f0&#45;&gt;T6583:f2</title>
<path fill="none" stroke="#5b00c0" d="M776.6875,-162.4981C805.9331,-148.1246 848.7505,-126.8239 866.6509,-116.6373"/>
<polygon fill="#5b00c0" stroke="#5b00c0" points="868.6709,-119.4966 875,-111 864.7537,-113.6952 868.6709,-119.4966"/>
<text text-anchor="middle" x="847.5" y="-132.8" font-family="Times,serif" font-size="14.00" fill="#5b00c0">rw</text>
</g>
<!-- T6583&#45;&gt;T6589 -->
<g id="edge6" class="edge">
<title>T6583&#45;&gt;T6589</title>
<path fill="none" stroke="#0050c0" d="M692,-81.1434C692,-69.6112 692,-53.3668 692,-39.8626"/>
<polygon fill="#0050c0" stroke="#0050c0" points="695.5001,-39.7624 692,-29.7625 688.5001,-39.7625 695.5001,-39.7624"/>
<text text-anchor="middle" x="696.5" y="-51.8" font-family="Times,serif" font-size="14.00" fill="#0050c0">rt</text>
</g>
</g>
</svg>
