<?xml version="1.0" encoding="UTF-8" standalone="no"?>
<!DOCTYPE svg PUBLIC "-//W3C//DTD SVG 1.1//EN"
 "http://www.w3.org/Graphics/SVG/1.1/DTD/svg11.dtd">
<!-- Generated by graphviz version 2.40.1 (20161225.0304)
 -->
<!-- Title: a_graph Pages: 1 -->
<svg width="3135pt" height="200pt"
 viewBox="0.00 0.00 3135.00 200.00" xmlns="http://www.w3.org/2000/svg" xmlns:xlink="http://www.w3.org/1999/xlink">
<g id="graph0" class="graph" transform="scale(1 1) rotate(0) translate(4 196)">
<title>a_graph</title>
<polygon fill="#ffffff" stroke="transparent" points="-4,4 -4,-196 3131,-196 3131,4 -4,4"/>
<!-- T15057 -->
<g id="node1" class="node">
<title>T15057</title>
<polygon fill="none" stroke="#0058ad" points="188,-162.5 188,-191.5 2200,-191.5 2200,-162.5 188,-162.5"/>
<text text-anchor="middle" x="1194" y="-173.3" font-family="Times,serif" font-size="14.00" fill="#0058ad">r 75 [1 3 4 5 7 6 8 9 11 12 13 14 15 16 19 17 18 20 21 22 23 24 26 27 28 25 30 33 34 35 36 37 38 39 40 41 42 43 44 45 46 48 47 49 50 51 52 53 54 55 56 57 58 59 60 61 62 63 64 65 66 67 68 69 70 71 72 73 75 76 78 79 77 81 82 80 83 85 86 84 87 88 90 91 92 93 94 95 96 97 98 99 100 101 102 103 105 106 107 108 109 110 111 112 114 115 113 116 117 119]</text>
</g>
<!-- T15059 -->
<g id="node2" class="node">
<title>T15059</title>
<polygon fill="none" stroke="#0058ad" points="1205,-81.5 1205,-110.5 3127,-110.5 3127,-81.5 1205,-81.5"/>
<text text-anchor="middle" x="2134" y="-92.3" font-family="Times,serif" font-size="14.00" fill="#0058ad">r 77 [1 2 3 4 5 6 7 10 11 12 8 14 15 13 16 17 18 19 21 20 22 24 25 23 26 27 29 28 30 31 32 33 34 35 36 37 38 39 40 41 42 43 45 44 46 47 48 49 50 51 52 55 56 53 54 59 57 63 60 65 66 67 68 69 70 64 71 72 73 74 75 76 77 80 81 84 86 87 88 89 90 91 92 93 94 95 96 97 98 99 100 101 102 103 104 105 106 108 109 110 111 112 113]</text>
<polyline fill="none" stroke="#0058ad" points="3063,-81.5 3063,-110.5 "/>
<text text-anchor="middle" x="3095" y="-92.3" font-family="Times,serif" font-size="14.00" fill="#0058ad">a 75 120</text>
</g>
<!-- T15057&#45;&gt;T15059 -->
<g id="edge1" class="edge">
<title>T15057:f0&#45;&gt;T15059:f1</title>
<path fill="none" stroke="#5b00c0" d="M1818.7622,-162.4996C2335.5364,-149.5044 2998.4451,-130.1175 3085.436,-114.3559"/>
<polygon fill="#5b00c0" stroke="#5b00c0" points="3086.7229,-117.6136 3095,-111 3084.4052,-111.0084 3086.7229,-117.6136"/>
<text text-anchor="middle" x="2866.5" y="-132.8" font-family="Times,serif" font-size="14.00" fill="#5b00c0">rw</text>
</g>
<!-- T15055 -->
<g id="node3" class="node">
<title>T15055</title>
<polygon fill="none" stroke="#0058ad" points="0,-.5 0,-29.5 2356,-29.5 2356,-.5 0,-.5"/>
<text text-anchor="middle" x="1006" y="-11.3" font-family="Times,serif" font-size="14.00" fill="#0058ad">r 75 [1 3 4 5 7 6 8 9 11 12 13 14 15 16 19 17 18 20 21 22 23 24 26 27 28 25 30 33 34 35 36 37 38 39 40 41 42 43 44 45 46 48 47 49 50 51 52 53 54 55 56 57 58 59 60 61 62 63 64 65 66 67 68 69 70 71 72 73 75 76 78 79 77 81 82 80 83 85 86 84 87 88 90 91 92 93 94 95 96 97 98 99 100 101 102 103 105 106 107 108 109 110 111 112 114 115 113 116 117 119]</text>
<polyline fill="none" stroke="#0058ad" points="2012,-.5 2012,-29.5 "/>
<text text-anchor="middle" x="2152" y="-11.3" font-family="Times,serif" font-size="14.00" fill="#0058ad">r 78 [1 2 3 4 5 6 7 8 9 10 11 12 13 14 15 16 17]</text>
<polyline fill="none" stroke="#0058ad" points="2292,-.5 2292,-29.5 "/>
<text text-anchor="middle" x="2324" y="-11.3" font-family="Times,serif" font-size="14.00" fill="#0058ad">a 77 114</text>
</g>
<!-- T15059&#45;&gt;T15055 -->
<g id="edge2" class="edge">
<title>T15059:f0&#45;&gt;T15055:f2</title>
<path fill="none" stroke="#5b00c0" d="M2134,-81C2134,2.6767 2308.0227,-107.1789 2322.9777,-40.1339"/>
<polygon fill="#5b00c0" stroke="#5b00c0" points="2326.4786,-40.3008 2324,-30 2319.5139,-39.5982 2326.4786,-40.3008"/>
<text text-anchor="middle" x="2325.5" y="-51.8" font-family="Times,serif" font-size="14.00" fill="#5b00c0">rw</text>
</g>
<!-- T15055&#45;&gt;T15057 -->
<g id="edge3" class="edge">
<title>T15055&#45;&gt;T15057</title>
<path fill="none" stroke="#0050c0" d="M1179.3169,-29.643C1181.0232,-48.4731 1184.1212,-82.1837 1187,-111 1188.3643,-124.6565 1189.9744,-139.8926 1191.3062,-152.282"/>
<polygon fill="#0050c0" stroke="#0050c0" points="1187.8374,-152.7597 1192.3918,-162.3256 1194.7969,-152.0074 1187.8374,-152.7597"/>
<text text-anchor="middle" x="1191.5" y="-92.3" font-family="Times,serif" font-size="14.00" fill="#0050c0">rt</text>
</g>
<!-- T15055&#45;&gt;T15059 -->
<g id="edge4" class="edge">
<title>T15055:f0&#45;&gt;T15059:f1</title>
<path fill="none" stroke="#5b00c0" d="M1006,-30C1006,-91.916 2058.1018,-61.5119 2120,-63 2132.7335,-63.3061 2983.8149,-66.9774 3085.1681,-78.6786"/>
<polygon fill="#5b00c0" stroke="#5b00c0" points="3084.4633,-82.1083 3095,-81 3086.0719,-75.2957 3084.4633,-82.1083"/>
<text text-anchor="middle" x="2127.5" y="-51.8" font-family="Times,serif" font-size="14.00" fill="#5b00c0">rw</text>
</g>
</g>
</svg>
