<?xml version="1.0" encoding="UTF-8" standalone="no"?>
<!DOCTYPE svg PUBLIC "-//W3C//DTD SVG 1.1//EN"
 "http://www.w3.org/Graphics/SVG/1.1/DTD/svg11.dtd">
<!-- Generated by graphviz version 2.40.1 (20161225.0304)
 -->
<!-- Title: a_graph Pages: 1 -->
<svg width="2465pt" height="119pt"
 viewBox="0.00 0.00 2465.00 119.00" xmlns="http://www.w3.org/2000/svg" xmlns:xlink="http://www.w3.org/1999/xlink">
<g id="graph0" class="graph" transform="scale(1 1) rotate(0) translate(4 115)">
<title>a_graph</title>
<polygon fill="#ffffff" stroke="transparent" points="-4,4 -4,-115 2461,-115 2461,4 -4,4"/>
<!-- T17352 -->
<g id="node1" class="node">
<title>T17352</title>
<polygon fill="none" stroke="#0058ad" points="0,-81.5 0,-110.5 2457,-110.5 2457,-81.5 0,-81.5"/>
<text text-anchor="middle" x="28.5" y="-92.3" font-family="Times,serif" font-size="14.00" fill="#0058ad">a 87 94</text>
<polyline fill="none" stroke="#0058ad" points="57,-81.5 57,-110.5 "/>
<text text-anchor="middle" x="804" y="-92.3" font-family="Times,serif" font-size="14.00" fill="#0058ad">r 87 [2 3 1 6 8 5 7 9 10 11 12 13 14 15 16 17 19 20 21 22 23 24 25 18 26 27 28 29 30 31 32 33 34 35 36 37 38 39 40 41 42 43 44 45 46 47 48 49 51 50 52 53 54 57 56 58 59 60 61 62 63 65 66 67 69 70 71 72 73 74 75 76 77 78 79 80 81 83 84 87 88 89 90 91 92 93 94]</text>
<polyline fill="none" stroke="#0058ad" points="1551,-81.5 1551,-110.5 "/>
<text text-anchor="middle" x="1579.5" y="-92.3" font-family="Times,serif" font-size="14.00" fill="#0058ad">a 86 67</text>
<polyline fill="none" stroke="#0058ad" points="1608,-81.5 1608,-110.5 "/>
<text text-anchor="middle" x="2032.5" y="-92.3" font-family="Times,serif" font-size="14.00" fill="#0058ad">r 89 [1 2 3 4 6 7 8 9 5 10 12 13 14 15 16 17 18 19 20 23 24 25 21 22 26 27 28 29 30 31 32 33 34 35 36 37 38 39 40 41 42 43 44 45 46 48 49 50 52 51]</text>
</g>
<!-- T17351 -->
<g id="node2" class="node">
<title>T17351</title>
<polygon fill="none" stroke="#0058ad" points="619,-.5 619,-29.5 2210,-29.5 2210,-.5 619,-.5"/>
<text text-anchor="middle" x="647.5" y="-11.3" font-family="Times,serif" font-size="14.00" fill="#0058ad">a 89 53</text>
<polyline fill="none" stroke="#0058ad" points="676,-.5 676,-29.5 "/>
<text text-anchor="middle" x="1414.5" y="-11.3" font-family="Times,serif" font-size="14.00" fill="#0058ad">r 87 [2 3 1 6 8 5 7 9 10 11 12 13 14 15 16 17 19 20 21 22 23 24 25 18 26 27 28 29 30 31 32 33 34 35 36 37 38 39 40 41 42 43 44 45 46 47 48 49 51 50 52 53 54 57 56 58 59 60 61 62 63 65 66 67 69 70 71 72 73 74 75 76 77 78 79 80 81 83 84 87 88 89 90 91 92 93]</text>
<polyline fill="none" stroke="#0058ad" points="2153,-.5 2153,-29.5 "/>
<text text-anchor="middle" x="2181.5" y="-11.3" font-family="Times,serif" font-size="14.00" fill="#0058ad">a 89 54</text>
</g>
<!-- T17352&#45;&gt;T17351 -->
<g id="edge1" class="edge">
<title>T17352:f3&#45;&gt;T17351:f0</title>
<path fill="none" stroke="#5b00c0" d="M2032.5,-81C2032.5,69.384 711.6611,-172.1727 649.7467,-40.161"/>
<polygon fill="#5b00c0" stroke="#5b00c0" points="653.0765,-39.0085 647.5,-30 646.2416,-40.5198 653.0765,-39.0085"/>
<text text-anchor="middle" x="2025" y="-51.8" font-family="Times,serif" font-size="14.00" fill="#5b00c0">rw</text>
</g>
<!-- T17351&#45;&gt;T17352 -->
<g id="edge2" class="edge">
<title>T17351:f1&#45;&gt;T17352:f0</title>
<path fill="none" stroke="#5b00c0" d="M1414.5,-30C1414.5,-51.4503 663.9344,-47.1743 642.5,-48 509.5601,-53.1211 53.4415,49.9779 29.4808,-70.697"/>
<polygon fill="#5b00c0" stroke="#5b00c0" points="25.9635,-70.7133 28.5,-81 32.932,-71.3767 25.9635,-70.7133"/>
<text text-anchor="middle" x="650" y="-51.8" font-family="Times,serif" font-size="14.00" fill="#5b00c0">rw</text>
</g>
</g>
</svg>
