<?xml version="1.0" encoding="UTF-8" standalone="no"?>
<!DOCTYPE svg PUBLIC "-//W3C//DTD SVG 1.1//EN"
 "http://www.w3.org/Graphics/SVG/1.1/DTD/svg11.dtd">
<!-- Generated by graphviz version 2.40.1 (20161225.0304)
 -->
<!-- Title: a_graph Pages: 1 -->
<svg width="1445pt" height="119pt"
 viewBox="0.00 0.00 1445.00 119.00" xmlns="http://www.w3.org/2000/svg" xmlns:xlink="http://www.w3.org/1999/xlink">
<g id="graph0" class="graph" transform="scale(1 1) rotate(0) translate(4 115)">
<title>a_graph</title>
<polygon fill="#ffffff" stroke="transparent" points="-4,4 -4,-115 1441,-115 1441,4 -4,4"/>
<!-- T27877 -->
<g id="node1" class="node">
<title>T27877</title>
<polygon fill="none" stroke="#0058ad" points="994,-81.5 994,-110.5 1133,-110.5 1133,-81.5 994,-81.5"/>
<text text-anchor="middle" x="1026" y="-92.3" font-family="Times,serif" font-size="14.00" fill="#0058ad">a 137 76</text>
<polyline fill="none" stroke="#0058ad" points="1058,-81.5 1058,-110.5 "/>
<text text-anchor="middle" x="1095.5" y="-92.3" font-family="Times,serif" font-size="14.00" fill="#0058ad">r 140 [1 2]</text>
</g>
<!-- T27879 -->
<g id="node2" class="node">
<title>T27879</title>
<polygon fill="none" stroke="#0058ad" points="0,-.5 0,-29.5 1437,-29.5 1437,-.5 0,-.5"/>
<text text-anchor="middle" x="604" y="-11.3" font-family="Times,serif" font-size="14.00" fill="#0058ad">r 137 [1 2 3 4 5 7 8 9 13 14 15 16 17 18 19 20 21 22 23 24 25 26 27 28 29 31 30 32 33 34 35 36 37 38 39 41 40 42 43 44 45 46 48 49 50 47 51 52 54 55 53 57 56 58 59 60 61 62 63 64 65 67 68 69 70 71 72 73 74 75]</text>
<polyline fill="none" stroke="#0058ad" points="1208,-.5 1208,-29.5 "/>
<text text-anchor="middle" x="1236.5" y="-11.3" font-family="Times,serif" font-size="14.00" fill="#0058ad">a 140 3</text>
<polyline fill="none" stroke="#0058ad" points="1265,-.5 1265,-29.5 "/>
<text text-anchor="middle" x="1308" y="-11.3" font-family="Times,serif" font-size="14.00" fill="#0058ad">r 140 [1 2 3]</text>
<polyline fill="none" stroke="#0058ad" points="1351,-.5 1351,-29.5 "/>
<text text-anchor="middle" x="1394" y="-11.3" font-family="Times,serif" font-size="14.00" fill="#0058ad">r 140 [1 2 3]</text>
</g>
<!-- T27877&#45;&gt;T27879 -->
<g id="edge1" class="edge">
<title>T27877:f1&#45;&gt;T27879:f1</title>
<path fill="none" stroke="#5b00c0" d="M1133.5,-96C1184.3653,-96 1230.2074,-85.8205 1235.9054,-39.9886"/>
<polygon fill="#5b00c0" stroke="#5b00c0" points="1239.3995,-40.1903 1236.5,-30 1232.4119,-39.7743 1239.3995,-40.1903"/>
<text text-anchor="middle" x="1241" y="-51.8" font-family="Times,serif" font-size="14.00" fill="#5b00c0">rw</text>
</g>
<!-- T27879&#45;&gt;T27877 -->
<g id="edge2" class="edge">
<title>T27879:f0&#45;&gt;T27877:f0</title>
<path fill="none" stroke="#5b00c0" d="M603.5,-30C603.5,-71.4601 911.4597,-93.4318 983.2422,-95.7878"/>
<polygon fill="#5b00c0" stroke="#5b00c0" points="983.4297,-99.2923 993.5,-96 983.5746,-92.2938 983.4297,-99.2923"/>
<text text-anchor="middle" x="678" y="-51.8" font-family="Times,serif" font-size="14.00" fill="#5b00c0">rw</text>
</g>
</g>
</svg>
