<?xml version="1.0" encoding="UTF-8" standalone="no"?>
<!DOCTYPE svg PUBLIC "-//W3C//DTD SVG 1.1//EN"
 "http://www.w3.org/Graphics/SVG/1.1/DTD/svg11.dtd">
<!-- Generated by graphviz version 2.40.1 (20161225.0304)
 -->
<!-- Title: a_graph Pages: 1 -->
<svg width="2267pt" height="200pt"
 viewBox="0.00 0.00 2267.00 200.00" xmlns="http://www.w3.org/2000/svg" xmlns:xlink="http://www.w3.org/1999/xlink">
<g id="graph0" class="graph" transform="scale(1 1) rotate(0) translate(4 196)">
<title>a_graph</title>
<polygon fill="#ffffff" stroke="transparent" points="-4,4 -4,-196 2263,-196 2263,4 -4,4"/>
<!-- T26703 -->
<g id="node1" class="node">
<title>T26703</title>
<polygon fill="none" stroke="#0058ad" points="0,-162.5 0,-191.5 2155,-191.5 2155,-162.5 0,-162.5"/>
<text text-anchor="middle" x="212.5" y="-173.3" font-family="Times,serif" font-size="14.00" fill="#0058ad">r 134 [1 2 3 4 5 6 8 7 9 10 11 12 13 14 15 16 17 18 22 21 20 25 26 27 28]</text>
<polyline fill="none" stroke="#0058ad" points="425,-162.5 425,-191.5 "/>
<text text-anchor="middle" x="952.5" y="-173.3" font-family="Times,serif" font-size="14.00" fill="#0058ad">r 132 [4 6 7 8 9 10 11 12 13 14 15 16 17 18 19 21 22 23 20 24 25 26 27 28 29 30 31 33 34 32 35 38 39 40 36 37 41 42 43 44 46 47 48 49 50 51 52 53 55 54 56 57 58 59 60 61 62 63 64 65]</text>
<polyline fill="none" stroke="#0058ad" points="1480,-162.5 1480,-191.5 "/>
<text text-anchor="middle" x="1512" y="-173.3" font-family="Times,serif" font-size="14.00" fill="#0058ad">a 135 31</text>
<polyline fill="none" stroke="#0058ad" points="1544,-162.5 1544,-191.5 "/>
<text text-anchor="middle" x="1849.5" y="-173.3" font-family="Times,serif" font-size="14.00" fill="#0058ad">r 128 [1 2 4 5 7 8 9 10 11 12 13 19 20 21 22 23 24 25 26 27 28 29 31 32 34 33 35 36 37 38 40 41 42 43 44]</text>
</g>
<!-- T26701 -->
<g id="node2" class="node">
<title>T26701</title>
<polygon fill="none" stroke="#0058ad" points="324.5,-81.5 324.5,-110.5 516.5,-110.5 516.5,-81.5 324.5,-81.5"/>
<text text-anchor="middle" x="356.5" y="-92.3" font-family="Times,serif" font-size="14.00" fill="#0058ad">a 134 29</text>
<polyline fill="none" stroke="#0058ad" points="388.5,-81.5 388.5,-110.5 "/>
<text text-anchor="middle" x="420.5" y="-92.3" font-family="Times,serif" font-size="14.00" fill="#0058ad">a 134 30</text>
<polyline fill="none" stroke="#0058ad" points="452.5,-81.5 452.5,-110.5 "/>
<text text-anchor="middle" x="484.5" y="-92.3" font-family="Times,serif" font-size="14.00" fill="#0058ad">a 134 31</text>
</g>
<!-- T26703&#45;&gt;T26701 -->
<g id="edge1" class="edge">
<title>T26703:f0&#45;&gt;T26701:f0</title>
<path fill="none" stroke="#5b00c0" d="M212.5,-162C212.5,-107.6076 260.5542,-97.1337 314.3906,-96.093"/>
<polygon fill="#5b00c0" stroke="#5b00c0" points="314.5327,-99.5919 324.5,-96 314.4682,-92.5922 314.5327,-99.5919"/>
<text text-anchor="middle" x="228" y="-132.8" font-family="Times,serif" font-size="14.00" fill="#5b00c0">rw</text>
</g>
<!-- T26705 -->
<g id="node3" class="node">
<title>T26705</title>
<polygon fill="none" stroke="#0058ad" points="1142,-.5 1142,-29.5 2259,-29.5 2259,-.5 1142,-.5"/>
<text text-anchor="middle" x="1174" y="-11.3" font-family="Times,serif" font-size="14.00" fill="#0058ad">a 134 32</text>
<polyline fill="none" stroke="#0058ad" points="1206,-.5 1206,-29.5 "/>
<text text-anchor="middle" x="1427" y="-11.3" font-family="Times,serif" font-size="14.00" fill="#0058ad">r 135 [1 2 3 5 8 9 6 7 11 12 4 14 16 17 18 19 22 13 23 24 25 26 27 28 29 30]</text>
<polyline fill="none" stroke="#0058ad" points="1648,-.5 1648,-29.5 "/>
<text text-anchor="middle" x="1953.5" y="-11.3" font-family="Times,serif" font-size="14.00" fill="#0058ad">r 128 [1 2 4 5 7 8 9 10 11 12 13 19 20 21 22 23 24 25 26 27 28 29 31 32 34 33 35 36 37 38 40 41 42 43 44]</text>
</g>
<!-- T26701&#45;&gt;T26705 -->
<g id="edge2" class="edge">
<title>T26701:f2&#45;&gt;T26705:f0</title>
<path fill="none" stroke="#c02700" d="M516.5,-96C793.1817,-96 859.7851,-16.9655 1131.3379,-15.0359"/>
<polygon fill="#c02700" stroke="#c02700" points="1131.5125,-18.5354 1141.5,-15 1131.4877,-11.5355 1131.5125,-18.5354"/>
<text text-anchor="middle" x="870.5" y="-51.8" font-family="Times,serif" font-size="14.00" fill="#c02700">ww</text>
</g>
<!-- T26705&#45;&gt;T26703 -->
<g id="edge3" class="edge">
<title>T26705:f1&#45;&gt;T26703:f2</title>
<path fill="none" stroke="#5b00c0" d="M1426.5,-30C1426.5,-96.4637 1503.9874,-92.5958 1511.8572,-151.9164"/>
<polygon fill="#5b00c0" stroke="#5b00c0" points="1508.3708,-152.2429 1512.5,-162 1515.3566,-151.7976 1508.3708,-152.2429"/>
<text text-anchor="middle" x="1496" y="-92.3" font-family="Times,serif" font-size="14.00" fill="#5b00c0">rw</text>
</g>
</g>
</svg>
