<?xml version="1.0" encoding="UTF-8" standalone="no"?>
<!DOCTYPE svg PUBLIC "-//W3C//DTD SVG 1.1//EN"
 "http://www.w3.org/Graphics/SVG/1.1/DTD/svg11.dtd">
<!-- Generated by graphviz version 2.40.1 (20161225.0304)
 -->
<!-- Title: a_graph Pages: 1 -->
<svg width="2611pt" height="200pt"
 viewBox="0.00 0.00 2610.50 200.00" xmlns="http://www.w3.org/2000/svg" xmlns:xlink="http://www.w3.org/1999/xlink">
<g id="graph0" class="graph" transform="scale(1 1) rotate(0) translate(4 196)">
<title>a_graph</title>
<polygon fill="#ffffff" stroke="transparent" points="-4,4 -4,-196 2606.5,-196 2606.5,4 -4,4"/>
<!-- T16965 -->
<g id="node1" class="node">
<title>T16965</title>
<polygon fill="none" stroke="#0058ad" points="0,-162.5 0,-191.5 2083,-191.5 2083,-162.5 0,-162.5"/>
<text text-anchor="middle" x="290" y="-173.3" font-family="Times,serif" font-size="14.00" fill="#0058ad">r 86 [1 2 3 4 5 6 7 8 10 11 12 13 14 15 16 17 18 19 20 22 23 24 25 27 28 29 31 32 30 33 34 35 36 37]</text>
<polyline fill="none" stroke="#0058ad" points="580,-162.5 580,-191.5 "/>
<text text-anchor="middle" x="1013" y="-173.3" font-family="Times,serif" font-size="14.00" fill="#0058ad">r 88 [3 4 1 2 6 7 8 9 5 11 12 13 14 15 17 10 18 20 19 22 21 23 24 25 26 27 28 29 30 31 32 33 34 35 36 37 38 39 40 41 42 43 44 45 47 48 49 50 51 52 53]</text>
<polyline fill="none" stroke="#0058ad" points="1446,-162.5 1446,-191.5 "/>
<text text-anchor="middle" x="1474.5" y="-173.3" font-family="Times,serif" font-size="14.00" fill="#0058ad">a 87 35</text>
<polyline fill="none" stroke="#0058ad" points="1503,-162.5 1503,-191.5 "/>
<text text-anchor="middle" x="1793" y="-173.3" font-family="Times,serif" font-size="14.00" fill="#0058ad">r 87 [2 3 1 6 8 5 7 9 10 11 12 13 14 15 16 17 19 20 21 22 23 24 25 18 26 27 28 29 30 31 32 33 34 35]</text>
</g>
<!-- T16967 -->
<g id="node2" class="node">
<title>T16967</title>
<polygon fill="none" stroke="#0058ad" points="535,-.5 535,-29.5 1212,-29.5 1212,-.5 535,-.5"/>
<text text-anchor="middle" x="816.5" y="-11.3" font-family="Times,serif" font-size="14.00" fill="#0058ad">r 87 [2 3 1 6 8 5 7 9 10 11 12 13 14 15 16 17 19 20 21 22 23 24 25 18 26 27 28 29 30 31 32 33 34]</text>
<polyline fill="none" stroke="#0058ad" points="1098,-.5 1098,-29.5 "/>
<text text-anchor="middle" x="1126.5" y="-11.3" font-family="Times,serif" font-size="14.00" fill="#0058ad">a 88 55</text>
<polyline fill="none" stroke="#0058ad" points="1155,-.5 1155,-29.5 "/>
<text text-anchor="middle" x="1183.5" y="-11.3" font-family="Times,serif" font-size="14.00" fill="#0058ad">a 86 38</text>
</g>
<!-- T16965&#45;&gt;T16967 -->
<g id="edge2" class="edge">
<title>T16965:f0&#45;&gt;T16967:f2</title>
<path fill="none" stroke="#5b00c0" d="M289.5,-162C289.5,8.3388 878.8381,-71.8426 1047.5,-48 1060.2346,-46.1998 1148.2999,-45.4746 1175.5094,-36.1359"/>
<polygon fill="#5b00c0" stroke="#5b00c0" points="1177.7002,-38.8664 1183.5,-30 1173.4369,-33.3144 1177.7002,-38.8664"/>
<text text-anchor="middle" x="374" y="-92.3" font-family="Times,serif" font-size="14.00" fill="#5b00c0">rw</text>
</g>
<!-- T16963 -->
<g id="node3" class="node">
<title>T16963</title>
<polygon fill="none" stroke="#0058ad" points="1098.5,-81.5 1098.5,-110.5 2602.5,-110.5 2602.5,-81.5 1098.5,-81.5"/>
<text text-anchor="middle" x="1127" y="-92.3" font-family="Times,serif" font-size="14.00" fill="#0058ad">a 88 54</text>
<polyline fill="none" stroke="#0058ad" points="1155.5,-81.5 1155.5,-110.5 "/>
<text text-anchor="middle" x="1437" y="-92.3" font-family="Times,serif" font-size="14.00" fill="#0058ad">r 87 [2 3 1 6 8 5 7 9 10 11 12 13 14 15 16 17 19 20 21 22 23 24 25 18 26 27 28 29 30 31 32 33 34]</text>
<polyline fill="none" stroke="#0058ad" points="1718.5,-81.5 1718.5,-110.5 "/>
<text text-anchor="middle" x="2160.5" y="-92.3" font-family="Times,serif" font-size="14.00" fill="#0058ad">r 88 [3 4 1 2 6 7 8 9 5 11 12 13 14 15 17 10 18 20 19 22 21 23 24 25 26 27 28 29 30 31 32 33 34 35 36 37 38 39 40 41 42 43 44 45 47 48 49 50 51 52 53 54]</text>
</g>
<!-- T16965&#45;&gt;T16963 -->
<g id="edge1" class="edge">
<title>T16965:f1&#45;&gt;T16963:f0</title>
<path fill="none" stroke="#5b00c0" d="M1012.5,-162C1012.5,-124.2222 1050.8683,-134.4334 1080.5,-111 1084.967,-107.4674 1086.817,-103.3125 1089.2797,-100.2725"/>
<polygon fill="#5b00c0" stroke="#5b00c0" points="1090.8983,-103.38 1098.5,-96 1087.9552,-97.0287 1090.8983,-103.38"/>
<text text-anchor="middle" x="1048" y="-132.8" font-family="Times,serif" font-size="14.00" fill="#5b00c0">rw</text>
</g>
<!-- T16967&#45;&gt;T16965 -->
<g id="edge3" class="edge">
<title>T16967:f0&#45;&gt;T16965:f2</title>
<path fill="none" stroke="#5b00c0" d="M816.5,-30C816.5,-150.185 957.0952,-85.2987 1074.5,-111 1094.4605,-115.3696 1410.7861,-135.5599 1466.236,-156.0745"/>
<polygon fill="#5b00c0" stroke="#5b00c0" points="1464.3337,-159.0172 1474.5,-162 1468.4127,-153.3285 1464.3337,-159.0172"/>
<text text-anchor="middle" x="1082" y="-92.3" font-family="Times,serif" font-size="14.00" fill="#5b00c0">rw</text>
</g>
<!-- T16963&#45;&gt;T16965 -->
<g id="edge5" class="edge">
<title>T16963:f1&#45;&gt;T16965:f2</title>
<path fill="none" stroke="#5b00c0" d="M1436.5,-111C1436.5,-135.2918 1464.564,-134.6211 1472.457,-151.8922"/>
<polygon fill="#5b00c0" stroke="#5b00c0" points="1469.0881,-152.8917 1474.5,-162 1475.9494,-151.5048 1469.0881,-152.8917"/>
<text text-anchor="middle" x="1473" y="-132.8" font-family="Times,serif" font-size="14.00" fill="#5b00c0">rw</text>
</g>
<!-- T16963&#45;&gt;T16967 -->
<g id="edge4" class="edge">
<title>T16963:f0&#45;&gt;T16967:f1</title>
<path fill="none" stroke="#c02700" d="M1126.5,-81C1126.5,-62.2292 1126.5,-55.1168 1126.5,-40.3535"/>
<polygon fill="#c02700" stroke="#c02700" points="1130.0001,-40 1126.5,-30 1123.0001,-40 1130.0001,-40"/>
<text text-anchor="middle" x="1136.5" y="-51.8" font-family="Times,serif" font-size="14.00" fill="#c02700">ww</text>
</g>
</g>
</svg>
