<?xml version="1.0" encoding="UTF-8" standalone="no"?>
<!DOCTYPE svg PUBLIC "-//W3C//DTD SVG 1.1//EN"
 "http://www.w3.org/Graphics/SVG/1.1/DTD/svg11.dtd">
<!-- Generated by graphviz version 2.40.1 (20161225.0304)
 -->
<!-- Title: a_graph Pages: 1 -->
<svg width="1039pt" height="119pt"
 viewBox="0.00 0.00 1039.00 119.00" xmlns="http://www.w3.org/2000/svg" xmlns:xlink="http://www.w3.org/1999/xlink">
<g id="graph0" class="graph" transform="scale(1 1) rotate(0) translate(4 115)">
<title>a_graph</title>
<polygon fill="#ffffff" stroke="transparent" points="-4,4 -4,-115 1035,-115 1035,4 -4,4"/>
<!-- T24009 -->
<g id="node1" class="node">
<title>T24009</title>
<polygon fill="none" stroke="#0058ad" points="238,-81.5 238,-110.5 571,-110.5 571,-81.5 238,-81.5"/>
<text text-anchor="middle" x="270" y="-92.3" font-family="Times,serif" font-size="14.00" fill="#0058ad">a 120 52</text>
<polyline fill="none" stroke="#0058ad" points="302,-81.5 302,-110.5 "/>
<text text-anchor="middle" x="436.5" y="-92.3" font-family="Times,serif" font-size="14.00" fill="#0058ad">r 121 [1 2 3 4 5 6 7 8 9 10 11 12 13 14 15 16]</text>
</g>
<!-- T24011 -->
<g id="node2" class="node">
<title>T24011</title>
<polygon fill="none" stroke="#0058ad" points="0,-.5 0,-29.5 1031,-29.5 1031,-.5 0,-.5"/>
<text text-anchor="middle" x="32" y="-11.3" font-family="Times,serif" font-size="14.00" fill="#0058ad">a 114 65</text>
<polyline fill="none" stroke="#0058ad" points="64,-.5 64,-29.5 "/>
<text text-anchor="middle" x="96" y="-11.3" font-family="Times,serif" font-size="14.00" fill="#0058ad">a 121 17</text>
<polyline fill="none" stroke="#0058ad" points="128,-.5 128,-29.5 "/>
<text text-anchor="middle" x="160" y="-11.3" font-family="Times,serif" font-size="14.00" fill="#0058ad">a 116 99</text>
<polyline fill="none" stroke="#0058ad" points="192,-.5 192,-29.5 "/>
<text text-anchor="middle" x="611.5" y="-11.3" font-family="Times,serif" font-size="14.00" fill="#0058ad">r 120 [1 2 3 4 5 6 7 8 9 10 11 12 13 14 15 16 17 18 19 20 22 23 24 25 26 27 29 30 31 28 32 33 34 35 36 37 38 39 40 41 44 45 42 43 46 48 50 51 47]</text>
</g>
<!-- T24009&#45;&gt;T24011 -->
<g id="edge1" class="edge">
<title>T24009:f1&#45;&gt;T24011:f1</title>
<path fill="none" stroke="#5b00c0" d="M436.5,-81C436.5,-27.8262 373.8198,-57.4916 321.5,-48 299.5217,-44.0128 138.8235,-52.7504 102.6973,-37.2183"/>
<polygon fill="#5b00c0" stroke="#5b00c0" points="105.0393,-34.6101 95.5,-30 100.0823,-39.5527 105.0393,-34.6101"/>
<text text-anchor="middle" x="439" y="-51.8" font-family="Times,serif" font-size="14.00" fill="#5b00c0">rw</text>
</g>
<!-- T24011&#45;&gt;T24009 -->
<g id="edge2" class="edge">
<title>T24011:f3&#45;&gt;T24009:f0</title>
<path fill="none" stroke="#5b00c0" d="M611.5,-30C611.5,-64.3915 333.8773,-33.9202 302.5,-48 287.1243,-54.8994 274.949,-58.6796 270.9238,-70.98"/>
<polygon fill="#5b00c0" stroke="#5b00c0" points="267.4417,-70.607 269.5,-81 274.3721,-71.5919 267.4417,-70.607"/>
<text text-anchor="middle" x="310" y="-51.8" font-family="Times,serif" font-size="14.00" fill="#5b00c0">rw</text>
</g>
</g>
</svg>
