<?xml version="1.0" encoding="UTF-8" standalone="no"?>
<!DOCTYPE svg PUBLIC "-//W3C//DTD SVG 1.1//EN"
 "http://www.w3.org/Graphics/SVG/1.1/DTD/svg11.dtd">
<!-- Generated by graphviz version 2.40.1 (20161225.0304)
 -->
<!-- Title: a_graph Pages: 1 -->
<svg width="2665pt" height="200pt"
 viewBox="0.00 0.00 2665.00 200.00" xmlns="http://www.w3.org/2000/svg" xmlns:xlink="http://www.w3.org/1999/xlink">
<g id="graph0" class="graph" transform="scale(1 1) rotate(0) translate(4 196)">
<title>a_graph</title>
<polygon fill="#ffffff" stroke="transparent" points="-4,4 -4,-196 2661,-196 2661,4 -4,4"/>
<!-- T19933 -->
<g id="node1" class="node">
<title>T19933</title>
<polygon fill="none" stroke="#0058ad" points="975.5,-162.5 975.5,-191.5 1194.5,-191.5 1194.5,-162.5 975.5,-162.5"/>
<text text-anchor="middle" x="1007.5" y="-173.3" font-family="Times,serif" font-size="14.00" fill="#0058ad">a 101 92</text>
<polyline fill="none" stroke="#0058ad" points="1039.5,-162.5 1039.5,-191.5 "/>
<text text-anchor="middle" x="1117" y="-173.3" font-family="Times,serif" font-size="14.00" fill="#0058ad">r 103 [2 3 4 5 6 7 8 9 10]</text>
</g>
<!-- T19929 -->
<g id="node2" class="node">
<title>T19929</title>
<polygon fill="none" stroke="#0058ad" points="1085,-81.5 1085,-110.5 2657,-110.5 2657,-81.5 1085,-81.5"/>
<text text-anchor="middle" x="1117" y="-92.3" font-family="Times,serif" font-size="14.00" fill="#0058ad">a 103 11</text>
<polyline fill="none" stroke="#0058ad" points="1149,-81.5 1149,-110.5 "/>
<text text-anchor="middle" x="1903" y="-92.3" font-family="Times,serif" font-size="14.00" fill="#0058ad">r 101 [3 4 5 6 7 8 9 10 11 12 13 14 15 16 17 18 19 20 21 22 23 24 25 26 27 28 29 30 31 32 33 36 34 35 37 38 39 40 41 44 42 43 47 48 49 50 52 53 45 46 54 51 55 58 59 60 56 57 61 62 64 67 65 66 68 63 69 70 71 72 73 75 76 77 78 79 80 81 82 83 84 86 87 88 89 90 91]</text>
</g>
<!-- T19933&#45;&gt;T19929 -->
<g id="edge1" class="edge">
<title>T19933:f1&#45;&gt;T19929:f0</title>
<path fill="none" stroke="#5b00c0" d="M1117,-162C1117,-143.2292 1117,-136.1168 1117,-121.3535"/>
<polygon fill="#5b00c0" stroke="#5b00c0" points="1120.5001,-121 1117,-111 1113.5001,-121 1120.5001,-121"/>
<text text-anchor="middle" x="1124.5" y="-132.8" font-family="Times,serif" font-size="14.00" fill="#5b00c0">rw</text>
</g>
<!-- T19929&#45;&gt;T19933 -->
<g id="edge3" class="edge">
<title>T19929:f1&#45;&gt;T19933:f0</title>
<path fill="none" stroke="#5b00c0" d="M1903,-111C1903,-133.3667 1119.9845,-124.883 1098,-129 1059.5126,-136.2074 1015.7013,-121.9933 1008.1396,-151.8176"/>
<polygon fill="#5b00c0" stroke="#5b00c0" points="1004.6341,-151.6727 1007,-162 1011.5906,-152.4514 1004.6341,-151.6727"/>
<text text-anchor="middle" x="1105.5" y="-132.8" font-family="Times,serif" font-size="14.00" fill="#5b00c0">rw</text>
</g>
<!-- T19931 -->
<g id="node3" class="node">
<title>T19931</title>
<polygon fill="none" stroke="#0058ad" points="0,-.5 0,-29.5 1762,-29.5 1762,-.5 0,-.5"/>
<text text-anchor="middle" x="754" y="-11.3" font-family="Times,serif" font-size="14.00" fill="#0058ad">r 101 [3 4 5 6 7 8 9 10 11 12 13 14 15 16 17 18 19 20 21 22 23 24 25 26 27 28 29 30 31 32 33 36 34 35 37 38 39 40 41 44 42 43 47 48 49 50 52 53 45 46 54 51 55 58 59 60 56 57 61 62 64 67 65 66 68 63 69 70 71 72 73 75 76 77 78 79 80 81 82 83 84 86 87 88 89 90 91]</text>
<polyline fill="none" stroke="#0058ad" points="1508,-.5 1508,-29.5 "/>
<text text-anchor="middle" x="1540" y="-11.3" font-family="Times,serif" font-size="14.00" fill="#0058ad">a 103 12</text>
<polyline fill="none" stroke="#0058ad" points="1572,-.5 1572,-29.5 "/>
<text text-anchor="middle" x="1667" y="-11.3" font-family="Times,serif" font-size="14.00" fill="#0058ad">r 103 [2 3 4 5 6 7 8 9 10 11 12]</text>
</g>
<!-- T19929&#45;&gt;T19931 -->
<g id="edge2" class="edge">
<title>T19929:f0&#45;&gt;T19931:f1</title>
<path fill="none" stroke="#c02700" d="M1117,-81C1117,104.848 1524.4484,-207.3779 1539.5685,-40.0132"/>
<polygon fill="#c02700" stroke="#c02700" points="1543.0661,-40.1414 1540,-30 1536.0726,-39.84 1543.0661,-40.1414"/>
<text text-anchor="middle" x="1548" y="-51.8" font-family="Times,serif" font-size="14.00" fill="#c02700">ww</text>
</g>
<!-- T19931&#45;&gt;T19933 -->
<g id="edge4" class="edge">
<title>T19931:f0&#45;&gt;T19933:f0</title>
<path fill="none" stroke="#5b00c0" d="M754,-30C754,-144.5103 851.085,-175.2225 964.6725,-176.9237"/>
<polygon fill="#5b00c0" stroke="#5b00c0" points="964.9744,-180.426 975,-177 965.0262,-173.4262 964.9744,-180.426"/>
<text text-anchor="middle" x="783.5" y="-92.3" font-family="Times,serif" font-size="14.00" fill="#5b00c0">rw</text>
</g>
</g>
</svg>
