<?xml version="1.0" encoding="UTF-8" standalone="no"?>
<!DOCTYPE svg PUBLIC "-//W3C//DTD SVG 1.1//EN"
 "http://www.w3.org/Graphics/SVG/1.1/DTD/svg11.dtd">
<!-- Generated by graphviz version 2.40.1 (20161225.0304)
 -->
<!-- Title: a_graph Pages: 1 -->
<svg width="2730pt" height="200pt"
 viewBox="0.00 0.00 2730.00 200.00" xmlns="http://www.w3.org/2000/svg" xmlns:xlink="http://www.w3.org/1999/xlink">
<g id="graph0" class="graph" transform="scale(1 1) rotate(0) translate(4 196)">
<title>a_graph</title>
<polygon fill="#ffffff" stroke="transparent" points="-4,4 -4,-196 2726,-196 2726,4 -4,4"/>
<!-- T28717 -->
<g id="node1" class="node">
<title>T28717</title>
<polygon fill="none" stroke="#0058ad" points="1307,-162.5 1307,-191.5 2722,-191.5 2722,-162.5 1307,-162.5"/>
<text text-anchor="middle" x="2014.5" y="-173.3" font-family="Times,serif" font-size="14.00" fill="#0058ad">r 142 [1 2 3 4 5 7 8 9 11 12 13 14 15 16 17 18 19 21 20 22 23 25 26 29 27 28 30 24 31 32 34 33 37 38 36 39 41 40 42 43 45 46 47 44 48 49 50 51 52 54 53 55 56 58 59 60 57 61 62 63 64 65 66 67 68 69 70 71 72 73 74 75 77 78 79 76 80 84 85 86 87 88]</text>
</g>
<!-- T28719 -->
<g id="node3" class="node">
<title>T28719</title>
<polygon fill="none" stroke="#0058ad" points="0,-81.5 0,-110.5 2003,-110.5 2003,-81.5 0,-81.5"/>
<text text-anchor="middle" x="131" y="-92.3" font-family="Times,serif" font-size="14.00" fill="#0058ad">r 144 [2 3 5 6 7 10 11 13 14 12 15 18 19 20]</text>
<polyline fill="none" stroke="#0058ad" points="262,-81.5 262,-110.5 "/>
<text text-anchor="middle" x="969.5" y="-92.3" font-family="Times,serif" font-size="14.00" fill="#0058ad">r 142 [1 2 3 4 5 7 8 9 11 12 13 14 15 16 17 18 19 21 20 22 23 25 26 29 27 28 30 24 31 32 34 33 37 38 36 39 41 40 42 43 45 46 47 44 48 49 50 51 52 54 53 55 56 58 59 60 57 61 62 63 64 65 66 67 68 69 70 71 72 73 74 75 77 78 79 76 80 84 85 86 87 88]</text>
<polyline fill="none" stroke="#0058ad" points="1677,-81.5 1677,-110.5 "/>
<text text-anchor="middle" x="1808" y="-92.3" font-family="Times,serif" font-size="14.00" fill="#0058ad">r 144 [2 3 5 6 7 10 11 13 14 12 15 18 19 20]</text>
<polyline fill="none" stroke="#0058ad" points="1939,-81.5 1939,-110.5 "/>
<text text-anchor="middle" x="1971" y="-92.3" font-family="Times,serif" font-size="14.00" fill="#0058ad">a 142 90</text>
</g>
<!-- T28717&#45;&gt;T28719 -->
<g id="edge1" class="edge">
<title>T28717:f0&#45;&gt;T28719:f3</title>
<path fill="none" stroke="#5b00c0" d="M1997.9981,-162.4783C1987.956,-152.2578 1976.374,-137.542 1972.6893,-121.2907"/>
<polygon fill="#5b00c0" stroke="#5b00c0" points="1976.125,-120.532 1971.5,-111 1969.1713,-121.3357 1976.125,-120.532"/>
<text text-anchor="middle" x="1989" y="-132.8" font-family="Times,serif" font-size="14.00" fill="#5b00c0">rw</text>
</g>
<!-- T28715 -->
<g id="node2" class="node">
<title>T28715</title>
<polygon fill="none" stroke="#0058ad" points="1380.5,-.5 1380.5,-29.5 1844.5,-29.5 1844.5,-.5 1380.5,-.5"/>
<text text-anchor="middle" x="1412.5" y="-11.3" font-family="Times,serif" font-size="14.00" fill="#0058ad">a 144 21</text>
<polyline fill="none" stroke="#0058ad" points="1444.5,-.5 1444.5,-29.5 "/>
<text text-anchor="middle" x="1480" y="-11.3" font-family="Times,serif" font-size="14.00" fill="#0058ad">a 139 102</text>
<polyline fill="none" stroke="#0058ad" points="1515.5,-.5 1515.5,-29.5 "/>
<text text-anchor="middle" x="1540.5" y="-11.3" font-family="Times,serif" font-size="14.00" fill="#0058ad">a 2 77</text>
<polyline fill="none" stroke="#0058ad" points="1565.5,-.5 1565.5,-29.5 "/>
<text text-anchor="middle" x="1705" y="-11.3" font-family="Times,serif" font-size="14.00" fill="#0058ad">r 144 [2 3 5 6 7 10 11 13 14 12 15 18 19 20 21]</text>
</g>
<!-- T28715&#45;&gt;T28717 -->
<g id="edge2" class="edge">
<title>T28715&#45;&gt;T28717</title>
<path fill="none" stroke="#0050c0" d="M1754.1811,-29.5049C1862.1972,-42.0151 1995.3011,-61.1535 2012.5,-81 2029.294,-100.3793 2026.6274,-131.1316 2021.8238,-152.5918"/>
<polygon fill="#0050c0" stroke="#0050c0" points="2018.4299,-151.7367 2019.3699,-162.2898 2025.216,-153.4539 2018.4299,-151.7367"/>
<text text-anchor="middle" x="2029" y="-92.3" font-family="Times,serif" font-size="14.00" fill="#0050c0">rt</text>
</g>
<!-- T28719&#45;&gt;T28715 -->
<g id="edge3" class="edge">
<title>T28719:f0&#45;&gt;T28715:f0</title>
<path fill="none" stroke="#5b00c0" d="M130.5,-81C130.5,-47.6555 1248.087,-17.5677 1370.4293,-15.1557"/>
<polygon fill="#5b00c0" stroke="#5b00c0" points="1370.5553,-18.6543 1380.5,-15 1370.4471,-11.6551 1370.5553,-18.6543"/>
<text text-anchor="middle" x="432" y="-51.8" font-family="Times,serif" font-size="14.00" fill="#5b00c0">rw</text>
</g>
</g>
</svg>
