<?xml version="1.0" encoding="UTF-8" standalone="no"?>
<!DOCTYPE svg PUBLIC "-//W3C//DTD SVG 1.1//EN"
 "http://www.w3.org/Graphics/SVG/1.1/DTD/svg11.dtd">
<!-- Generated by graphviz version 2.40.1 (20161225.0304)
 -->
<!-- Title: a_graph Pages: 1 -->
<svg width="6611pt" height="200pt"
 viewBox="0.00 0.00 6610.50 200.00" xmlns="http://www.w3.org/2000/svg" xmlns:xlink="http://www.w3.org/1999/xlink">
<g id="graph0" class="graph" transform="scale(1 1) rotate(0) translate(4 196)">
<title>a_graph</title>
<polygon fill="#ffffff" stroke="transparent" points="-4,4 -4,-196 6606.5,-196 6606.5,4 -4,4"/>
<!-- T32769 -->
<g id="node1" class="node">
<title>T32769</title>
<polygon fill="none" stroke="#0058ad" points="1939.5,-162.5 1939.5,-191.5 6602.5,-191.5 6602.5,-162.5 1939.5,-162.5"/>
<text text-anchor="middle" x="2445" y="-173.3" font-family="Times,serif" font-size="14.00" fill="#0058ad">r 162 [1 2 3 4 5 6 7 8 9 10 11 12 14 13 15 16 17 18 19 20 21 22 23 24 25 26 29 30 31 32 33 34 35 36 37 38 39 40 41 42 43 46 47 48 49 52 53 54 55 56 58 59 60 57 62 61 63 64 65]</text>
<polyline fill="none" stroke="#0058ad" points="2950.5,-162.5 2950.5,-191.5 "/>
<text text-anchor="middle" x="3863.5" y="-173.3" font-family="Times,serif" font-size="14.00" fill="#0058ad">r 163 [1 3 4 5 2 6 7 8 10 11 9 13 14 15 16 17 18 19 20 21 23 22 24 26 27 28 29 30 31 32 34 36 37 38 41 39 40 42 43 44 46 45 47 48 50 49 52 58 59 61 62 60 65 66 67 68 69 71 70 72 63 73 74 75 76 77 78 79 80 81 83 84 85 89 90 91 92 93 94 95 96 99 97 98 100 101 102 105 103 104 106 107 108 109 110 111 112 113 114 115]</text>
<polyline fill="none" stroke="#0058ad" points="4776.5,-162.5 4776.5,-191.5 "/>
<text text-anchor="middle" x="5689.5" y="-173.3" font-family="Times,serif" font-size="14.00" fill="#0058ad">r 163 [1 3 4 5 2 6 7 8 10 11 9 13 14 15 16 17 18 19 20 21 23 22 24 26 27 28 29 30 31 32 34 36 37 38 41 39 40 42 43 44 46 45 47 48 50 49 52 58 59 61 62 60 65 66 67 68 69 71 70 72 63 73 74 75 76 77 78 79 80 81 83 84 85 89 90 91 92 93 94 95 96 99 97 98 100 101 102 105 103 104 106 107 108 109 110 111 112 113 114 115]</text>
</g>
<!-- T32770 -->
<g id="node2" class="node">
<title>T32770</title>
<polygon fill="none" stroke="#0058ad" points="0,-81.5 0,-110.5 4438,-110.5 4438,-81.5 0,-81.5"/>
<text text-anchor="middle" x="901" y="-92.3" font-family="Times,serif" font-size="14.00" fill="#0058ad">r 163 [1 3 4 5 2 6 7 8 10 11 9 13 14 15 16 17 18 19 20 21 23 22 24 26 27 28 29 30 31 32 34 36 37 38 41 39 40 42 43 44 46 45 47 48 50 49 52 58 59 61 62 60 65 66 67 68 69 71 70 72 63 73 74 75 76 77 78 79 80 81 83 84 85 89 90 91 92 93 94 95 96 99 97 98 100 101 102 105 103 104 106 107 108 109 110 111 112 113 114]</text>
<polyline fill="none" stroke="#0058ad" points="1802,-81.5 1802,-110.5 "/>
<text text-anchor="middle" x="1834" y="-92.3" font-family="Times,serif" font-size="14.00" fill="#0058ad">a 162 66</text>
<polyline fill="none" stroke="#0058ad" points="1866,-81.5 1866,-110.5 "/>
<text text-anchor="middle" x="2767" y="-92.3" font-family="Times,serif" font-size="14.00" fill="#0058ad">r 163 [1 3 4 5 2 6 7 8 10 11 9 13 14 15 16 17 18 19 20 21 23 22 24 26 27 28 29 30 31 32 34 36 37 38 41 39 40 42 43 44 46 45 47 48 50 49 52 58 59 61 62 60 65 66 67 68 69 71 70 72 63 73 74 75 76 77 78 79 80 81 83 84 85 89 90 91 92 93 94 95 96 99 97 98 100 101 102 105 103 104 106 107 108 109 110 111 112 113 114]</text>
<polyline fill="none" stroke="#0058ad" points="3668,-81.5 3668,-110.5 "/>
<text text-anchor="middle" x="4053" y="-92.3" font-family="Times,serif" font-size="14.00" fill="#0058ad">r 161 [1 2 3 4 5 6 7 8 9 10 11 12 13 14 15 16 17 19 18 21 20 22 23 25 26 27 28 29 31 32 33 34 35 36 37 38 39 40 41 42 43 44 45 46 47]</text>
</g>
<!-- T32769&#45;&gt;T32770 -->
<g id="edge1" class="edge">
<title>T32769:f0&#45;&gt;T32770:f1</title>
<path fill="none" stroke="#5b00c0" d="M1939,-177C1887.4326,-177 1840.4516,-167.4774 1834.6097,-121.1156"/>
<polygon fill="#5b00c0" stroke="#5b00c0" points="1838.0954,-120.7713 1834,-111 1831.1081,-121.1925 1838.0954,-120.7713"/>
<text text-anchor="middle" x="1849.5" y="-132.8" font-family="Times,serif" font-size="14.00" fill="#5b00c0">rw</text>
</g>
<!-- T32773 -->
<g id="node3" class="node">
<title>T32773</title>
<polygon fill="none" stroke="#0058ad" points="1329,-.5 1329,-29.5 2411,-29.5 2411,-.5 1329,-.5"/>
<text text-anchor="middle" x="1834.5" y="-11.3" font-family="Times,serif" font-size="14.00" fill="#0058ad">r 162 [1 2 3 4 5 6 7 8 9 10 11 12 14 13 15 16 17 18 19 20 21 22 23 24 25 26 29 30 31 32 33 34 35 36 37 38 39 40 41 42 43 46 47 48 49 52 53 54 55 56 58 59 60 57 62 61 63 64 65]</text>
<polyline fill="none" stroke="#0058ad" points="2340,-.5 2340,-29.5 "/>
<text text-anchor="middle" x="2375.5" y="-11.3" font-family="Times,serif" font-size="14.00" fill="#0058ad">a 163 115</text>
</g>
<!-- T32770&#45;&gt;T32773 -->
<g id="edge2" class="edge">
<title>T32770:f0&#45;&gt;T32773:f1</title>
<path fill="none" stroke="#5b00c0" d="M901,-81C901,18.6231 1697.4343,-51.3811 1797,-48 1811.8254,-47.4965 2291.3817,-46.2991 2366.2218,-33.5083"/>
<polygon fill="#5b00c0" stroke="#5b00c0" points="2367.7695,-36.6715 2376,-30 2365.4055,-30.0828 2367.7695,-36.6715"/>
<text text-anchor="middle" x="1804.5" y="-51.8" font-family="Times,serif" font-size="14.00" fill="#5b00c0">rw</text>
</g>
<!-- T32773&#45;&gt;T32769 -->
<g id="edge4" class="edge">
<title>T32773:f1&#45;&gt;T32769:f1</title>
<path fill="none" stroke="#c000a5" d="M2411,-15C2467.5853,-15 4407.6417,-40.3452 4447,-81 4456.2741,-90.5796 4456.0086,-101.1704 4447,-111 4361.3888,-204.4133 3889.819,-41.1127 3864.094,-151.9873"/>
<polygon fill="#c000a5" stroke="#c000a5" points="3860.607,-151.679 3863,-162 3867.5656,-152.4394 3860.607,-151.679"/>
<text text-anchor="middle" x="4460.5" y="-92.3" font-family="Times,serif" font-size="14.00" fill="#c000a5">wr</text>
</g>
<!-- T32773&#45;&gt;T32770 -->
<g id="edge3" class="edge">
<title>T32773:f0&#45;&gt;T32770:f1</title>
<path fill="none" stroke="#5b00c0" d="M1834,-30C1834,-48.7708 1834,-55.8832 1834,-70.6465"/>
<polygon fill="#5b00c0" stroke="#5b00c0" points="1830.5001,-71 1834,-81 1837.5001,-71 1830.5001,-71"/>
<text text-anchor="middle" x="1841.5" y="-51.8" font-family="Times,serif" font-size="14.00" fill="#5b00c0">rw</text>
</g>
</g>
</svg>
