<?xml version="1.0" encoding="UTF-8" standalone="no"?>
<!DOCTYPE svg PUBLIC "-//W3C//DTD SVG 1.1//EN"
 "http://www.w3.org/Graphics/SVG/1.1/DTD/svg11.dtd">
<!-- Generated by graphviz version 2.40.1 (20161225.0304)
 -->
<!-- Title: a_graph Pages: 1 -->
<svg width="4788pt" height="200pt"
 viewBox="0.00 0.00 4788.00 200.00" xmlns="http://www.w3.org/2000/svg" xmlns:xlink="http://www.w3.org/1999/xlink">
<g id="graph0" class="graph" transform="scale(1 1) rotate(0) translate(4 196)">
<title>a_graph</title>
<polygon fill="#ffffff" stroke="transparent" points="-4,4 -4,-196 4784,-196 4784,4 -4,4"/>
<!-- T26419 -->
<g id="node1" class="node">
<title>T26419</title>
<polygon fill="none" stroke="#0058ad" points="2958,-162.5 2958,-191.5 4780,-191.5 4780,-162.5 2958,-162.5"/>
<text text-anchor="middle" x="3463.5" y="-173.3" font-family="Times,serif" font-size="14.00" fill="#0058ad">r 133 [1 2 3 4 5 6 7 8 9 10 12 13 14 15 16 18 11 17 19 20 21 22 23 24 25 26 27 28 29 30 31 32 33 34 35 36 37 38 39 40 41 42 43 47 48 50 49 52 54 55 56 57 59 60 53 61 62 63 64]</text>
<polyline fill="none" stroke="#0058ad" points="3969,-162.5 3969,-191.5 "/>
<text text-anchor="middle" x="4001" y="-173.3" font-family="Times,serif" font-size="14.00" fill="#0058ad">a 128 32</text>
<polyline fill="none" stroke="#0058ad" points="4033,-162.5 4033,-191.5 "/>
<text text-anchor="middle" x="4068.5" y="-173.3" font-family="Times,serif" font-size="14.00" fill="#0058ad">a 129 119</text>
<polyline fill="none" stroke="#0058ad" points="4104,-162.5 4104,-191.5 "/>
<text text-anchor="middle" x="4442" y="-173.3" font-family="Times,serif" font-size="14.00" fill="#0058ad">r 132 [4 6 7 8 9 10 11 12 13 14 15 16 17 18 19 21 22 23 20 24 25 26 27 28 29 30 31 33 34 32 35 38 39 40 36 37 41 42]</text>
</g>
<!-- T26417 -->
<g id="node3" class="node">
<title>T26417</title>
<polygon fill="none" stroke="#0058ad" points="0,-81.5 0,-110.5 3678,-110.5 3678,-81.5 0,-81.5"/>
<text text-anchor="middle" x="887.5" y="-92.3" font-family="Times,serif" font-size="14.00" fill="#0058ad">r 129 [1 2 3 4 5 7 8 6 9 10 11 12 13 14 15 16 17 21 22 23 24 25 26 27 28 29 30 32 33 31 34 35 36 37 38 39 40 41 42 43 44 45 46 59 60 61 62 63 64 65 67 66 69 70 71 68 72 73 74 75 76 77 78 79 81 80 82 83 84 87 88 90 92 93 89 94 95 96 97 98 99 100 101 104 105 106 102 107 108 109 110 111 112 113 114 116 117]</text>
<polyline fill="none" stroke="#0058ad" points="1775,-81.5 1775,-110.5 "/>
<text text-anchor="middle" x="2662.5" y="-92.3" font-family="Times,serif" font-size="14.00" fill="#0058ad">r 129 [1 2 3 4 5 7 8 6 9 10 11 12 13 14 15 16 17 21 22 23 24 25 26 27 28 29 30 32 33 31 34 35 36 37 38 39 40 41 42 43 44 45 46 59 60 61 62 63 64 65 67 66 69 70 71 68 72 73 74 75 76 77 78 79 81 80 82 83 84 87 88 90 92 93 89 94 95 96 97 98 99 100 101 104 105 106 102 107 108 109 110 111 112 113 114 116 117]</text>
<polyline fill="none" stroke="#0058ad" points="3550,-81.5 3550,-110.5 "/>
<text text-anchor="middle" x="3582" y="-92.3" font-family="Times,serif" font-size="14.00" fill="#0058ad">a 133 65</text>
<polyline fill="none" stroke="#0058ad" points="3614,-81.5 3614,-110.5 "/>
<text text-anchor="middle" x="3646" y="-92.3" font-family="Times,serif" font-size="14.00" fill="#0058ad">a 133 66</text>
</g>
<!-- T26419&#45;&gt;T26417 -->
<g id="edge1" class="edge">
<title>T26419:f0&#45;&gt;T26417:f2</title>
<path fill="none" stroke="#5b00c0" d="M3463,-162C3463,-108.2797 3566.7201,-160.5667 3580.4954,-120.9255"/>
<polygon fill="#5b00c0" stroke="#5b00c0" points="3583.9616,-121.4116 3582,-111 3577.0407,-120.3625 3583.9616,-121.4116"/>
<text text-anchor="middle" x="3580.5" y="-132.8" font-family="Times,serif" font-size="14.00" fill="#5b00c0">rw</text>
</g>
<!-- T26415 -->
<g id="node2" class="node">
<title>T26415</title>
<polygon fill="none" stroke="#0058ad" points="2383.5,-.5 2383.5,-29.5 2454.5,-29.5 2454.5,-.5 2383.5,-.5"/>
<text text-anchor="middle" x="2419" y="-11.3" font-family="Times,serif" font-size="14.00" fill="#0058ad">a 129 118</text>
</g>
<!-- T26415&#45;&gt;T26419 -->
<g id="edge2" class="edge">
<title>T26415:f0&#45;&gt;T26419:f2</title>
<path fill="none" stroke="#c02700" d="M2452.058,-29.5279C2452.7076,-29.696 2453.3553,-29.8537 2454,-30 2721.4368,-90.6795 3414.9103,-46.771 3687,-81 3855.664,-102.218 4060.4105,6.9251 4068.7374,-151.6819"/>
<polygon fill="#c02700" stroke="#c02700" points="4065.2466,-152.0923 4069,-162 4072.2444,-151.9142 4065.2466,-152.0923"/>
<text text-anchor="middle" x="4070" y="-92.3" font-family="Times,serif" font-size="14.00" fill="#c02700">ww</text>
</g>
<!-- T26417&#45;&gt;T26415 -->
<g id="edge3" class="edge">
<title>T26417:f0&#45;&gt;T26415:f0</title>
<path fill="none" stroke="#5b00c0" d="M887,-81C887,-.1418 2223.726,-45.3735 2375.7339,-30.952"/>
<polygon fill="#5b00c0" stroke="#5b00c0" points="2376.5199,-34.3765 2385.9435,-29.5344 2375.5571,-27.4431 2376.5199,-34.3765"/>
<text text-anchor="middle" x="992.5" y="-51.8" font-family="Times,serif" font-size="14.00" fill="#5b00c0">rw</text>
</g>
</g>
</svg>
