<?xml version="1.0" encoding="UTF-8" standalone="no"?>
<!DOCTYPE svg PUBLIC "-//W3C//DTD SVG 1.1//EN"
 "http://www.w3.org/Graphics/SVG/1.1/DTD/svg11.dtd">
<!-- Generated by graphviz version 2.40.1 (20161225.0304)
 -->
<!-- Title: a_graph Pages: 1 -->
<svg width="2085pt" height="281pt"
 viewBox="0.00 0.00 2085.00 281.00" xmlns="http://www.w3.org/2000/svg" xmlns:xlink="http://www.w3.org/1999/xlink">
<g id="graph0" class="graph" transform="scale(1 1) rotate(0) translate(4 277)">
<title>a_graph</title>
<polygon fill="#ffffff" stroke="transparent" points="-4,4 -4,-277 2081,-277 2081,4 -4,4"/>
<!-- T9035 -->
<g id="node1" class="node">
<title>T9035</title>
<polygon fill="none" stroke="#0058ad" points="717.5,-243.5 717.5,-272.5 1946.5,-272.5 1946.5,-243.5 717.5,-243.5"/>
<text text-anchor="middle" x="1332" y="-254.3" font-family="Times,serif" font-size="14.00" fill="#0058ad">r 47 [1 2 3 4 5 6 7 8 9 10 11 12 13 14 15 17 18 19 20 21 22 23 24 25 26 27 29 28 30 32 31 33 34 35 37 36 38 39 40 41 42 43 44 45 46 47 49 50 51 52 53 55 56 54 57 58 59 60 61 62 63 64 65 66 67 68 69 70 73 72 74 75]</text>
</g>
<!-- T9037 -->
<g id="node4" class="node">
<title>T9037</title>
<polygon fill="none" stroke="#0058ad" points="411.5,-162.5 411.5,-191.5 756.5,-191.5 756.5,-162.5 411.5,-162.5"/>
<text text-anchor="middle" x="527" y="-173.3" font-family="Times,serif" font-size="14.00" fill="#0058ad">r 49 [1 4 5 7 6 9 10 11 12 13 14 15 16]</text>
<polyline fill="none" stroke="#0058ad" points="642.5,-162.5 642.5,-191.5 "/>
<text text-anchor="middle" x="671" y="-173.3" font-family="Times,serif" font-size="14.00" fill="#0058ad">a 47 76</text>
<polyline fill="none" stroke="#0058ad" points="699.5,-162.5 699.5,-191.5 "/>
<text text-anchor="middle" x="728" y="-173.3" font-family="Times,serif" font-size="14.00" fill="#0058ad">a 46 71</text>
</g>
<!-- T9035&#45;&gt;T9037 -->
<g id="edge1" class="edge">
<title>T9035:f0&#45;&gt;T9037:f1</title>
<path fill="none" stroke="#5b00c0" d="M858.648,-243.4685C766.3548,-235.0547 692.4656,-221.9348 674.9496,-201.5403"/>
<polygon fill="#5b00c0" stroke="#5b00c0" points="678.059,-199.9007 671,-192 671.5913,-202.5783 678.059,-199.9007"/>
<text text-anchor="middle" x="735.5" y="-213.8" font-family="Times,serif" font-size="14.00" fill="#5b00c0">rw</text>
</g>
<!-- T9033 -->
<g id="node2" class="node">
<title>T9033</title>
<polygon fill="none" stroke="#0058ad" points="253,-.5 253,-29.5 2077,-29.5 2077,-.5 253,-.5"/>
<text text-anchor="middle" x="1165" y="-11.3" font-family="Times,serif" font-size="14.00" fill="#0058ad">r 37 [1 2 4 5 6 7 9 10 8 11 12 13 14 15 16 17 18 19 20 22 23 24 25 26 27 28 29 30 31 32 33 34 35 36 37 38 39 41 42 43 44 45 46 47 48 49 50 51 52 53 54 55 57 58 59 60 61 62 63 64 65 66 67 68 69 70 71 72 73 74 75 76 77 78 79 80 81 82 83 84 85 86 87 88 89 90 91 92 93 94 95 96 97 98 99 100 101 102 103 104 105 106 107]</text>
</g>
<!-- T9033&#45;&gt;T9035 -->
<g id="edge2" class="edge">
<title>T9033&#45;&gt;T9035</title>
<path fill="none" stroke="#0050c0" d="M1385.7809,-29.5062C1455.8992,-39.0385 1521.0055,-54.8325 1543,-81 1599.6873,-148.4427 1465.4606,-210.4965 1385.7788,-239.9794"/>
<polygon fill="#0050c0" stroke="#0050c0" points="1384.5483,-236.7026 1376.3484,-243.4116 1386.9424,-243.2805 1384.5483,-236.7026"/>
<text text-anchor="middle" x="1557.5" y="-132.8" font-family="Times,serif" font-size="14.00" fill="#0050c0">rt</text>
</g>
<!-- T9031 -->
<g id="node3" class="node">
<title>T9031</title>
<polygon fill="none" stroke="#0058ad" points="0,-81.5 0,-110.5 1534,-110.5 1534,-81.5 0,-81.5"/>
<text text-anchor="middle" x="28.5" y="-92.3" font-family="Times,serif" font-size="14.00" fill="#0058ad">a 49 17</text>
<polyline fill="none" stroke="#0058ad" points="57,-81.5 57,-110.5 "/>
<text text-anchor="middle" x="671.5" y="-92.3" font-family="Times,serif" font-size="14.00" fill="#0058ad">r 47 [1 2 3 4 5 6 7 8 9 10 11 12 13 14 15 17 18 19 20 21 22 23 24 25 26 27 29 28 30 32 31 33 34 35 37 36 38 39 40 41 42 43 44 45 46 47 49 50 51 52 53 55 56 54 57 58 59 60 61 62 63 64 65 66 67 68 69 70 73 72 74 75]</text>
<polyline fill="none" stroke="#0058ad" points="1286,-81.5 1286,-110.5 "/>
<text text-anchor="middle" x="1410" y="-92.3" font-family="Times,serif" font-size="14.00" fill="#0058ad">r 49 [1 4 5 7 6 9 10 11 12 13 14 15 16 17]</text>
</g>
<!-- T9031&#45;&gt;T9033 -->
<g id="edge4" class="edge">
<title>T9031&#45;&gt;T9033</title>
<path fill="none" stroke="#0050c0" d="M838.6141,-81.4253C907.548,-67.396 1011.6638,-46.2066 1083.6839,-31.5493"/>
<polygon fill="#0050c0" stroke="#0050c0" points="1084.5251,-34.9499 1093.6262,-29.5258 1083.129,-28.0905 1084.5251,-34.9499"/>
<text text-anchor="middle" x="1005.5" y="-51.8" font-family="Times,serif" font-size="14.00" fill="#0050c0">rt</text>
</g>
<!-- T9031&#45;&gt;T9037 -->
<g id="edge3" class="edge">
<title>T9031:f1&#45;&gt;T9037:f1</title>
<path fill="none" stroke="#5b00c0" d="M671,-111C671,-129.7708 671,-136.8832 671,-151.6465"/>
<polygon fill="#5b00c0" stroke="#5b00c0" points="667.5001,-152 671,-162 674.5001,-152 667.5001,-152"/>
<text text-anchor="middle" x="678.5" y="-132.8" font-family="Times,serif" font-size="14.00" fill="#5b00c0">rw</text>
</g>
<!-- T9037&#45;&gt;T9031 -->
<g id="edge5" class="edge">
<title>T9037:f0&#45;&gt;T9031:f0</title>
<path fill="none" stroke="#5b00c0" d="M411,-177C370.8535,-177 74.3203,-157.2787 32.8188,-119.806"/>
<polygon fill="#5b00c0" stroke="#5b00c0" points="35.8708,-118.0923 28,-111 29.7301,-121.4526 35.8708,-118.0923"/>
<text text-anchor="middle" x="101.5" y="-132.8" font-family="Times,serif" font-size="14.00" fill="#5b00c0">rw</text>
</g>
</g>
</svg>
