<?xml version="1.0" encoding="UTF-8" standalone="no"?>
<!DOCTYPE svg PUBLIC "-//W3C//DTD SVG 1.1//EN"
 "http://www.w3.org/Graphics/SVG/1.1/DTD/svg11.dtd">
<!-- Generated by graphviz version 2.40.1 (20161225.0304)
 -->
<!-- Title: a_graph Pages: 1 -->
<svg width="3171pt" height="200pt"
 viewBox="0.00 0.00 3171.00 200.00" xmlns="http://www.w3.org/2000/svg" xmlns:xlink="http://www.w3.org/1999/xlink">
<g id="graph0" class="graph" transform="scale(1 1) rotate(0) translate(4 196)">
<title>a_graph</title>
<polygon fill="#ffffff" stroke="transparent" points="-4,4 -4,-196 3167,-196 3167,4 -4,4"/>
<!-- T10103 -->
<g id="node1" class="node">
<title>T10103</title>
<polygon fill="none" stroke="#0058ad" points="0,-162.5 0,-191.5 3163,-191.5 3163,-162.5 0,-162.5"/>
<text text-anchor="middle" x="906.5" y="-173.3" font-family="Times,serif" font-size="14.00" fill="#0058ad">r 50 [1 2 6 7 8 9 10 13 14 11 12 15 17 18 19 21 22 20 23 25 24 26 27 28 29 30 31 32 33 34 35 36 37 38 39 40 41 42 43 44 45 46 47 48 50 49 51 52 55 56 57 58 59 60 61 62 63 64 65 66 67 68 69 70 71 72 73 74 75 76 77 78 80 79 81 82 83 84 85 86 87 88 89 91 94 97 98 99 100 101 102 103 104 105 106 107 108 109 110 111]</text>
<polyline fill="none" stroke="#0058ad" points="1813,-162.5 1813,-191.5 "/>
<text text-anchor="middle" x="1845" y="-173.3" font-family="Times,serif" font-size="14.00" fill="#0058ad">a 50 112</text>
<polyline fill="none" stroke="#0058ad" points="1877,-162.5 1877,-191.5 "/>
<text text-anchor="middle" x="2491.5" y="-173.3" font-family="Times,serif" font-size="14.00" fill="#0058ad">r 53 [1 2 3 4 5 6 7 8 9 10 11 12 13 14 15 16 17 18 20 21 22 23 24 27 29 30 31 32 33 34 35 36 37 38 39 40 41 43 44 42 47 45 46 48 49 50 52 53 54 56 57 55 58 59 62 63 64 60 61 66 65 67 68 69 70 71 72 73 74 75 76 77]</text>
<polyline fill="none" stroke="#0058ad" points="3106,-162.5 3106,-191.5 "/>
<text text-anchor="middle" x="3134.5" y="-173.3" font-family="Times,serif" font-size="14.00" fill="#0058ad">a 54 19</text>
</g>
<!-- T10099 -->
<g id="node3" class="node">
<title>T10099</title>
<polygon fill="none" stroke="#0058ad" points="1717.5,-81.5 1717.5,-110.5 3003.5,-110.5 3003.5,-81.5 1717.5,-81.5"/>
<text text-anchor="middle" x="2332" y="-92.3" font-family="Times,serif" font-size="14.00" fill="#0058ad">r 53 [1 2 3 4 5 6 7 8 9 10 11 12 13 14 15 16 17 18 20 21 22 23 24 27 29 30 31 32 33 34 35 36 37 38 39 40 41 43 44 42 47 45 46 48 49 50 52 53 54 56 57 55 58 59 62 63 64 60 61 66 65 67 68 69 70 71 72 73 74 75 76 77]</text>
<polyline fill="none" stroke="#0058ad" points="2946.5,-81.5 2946.5,-110.5 "/>
<text text-anchor="middle" x="2975" y="-92.3" font-family="Times,serif" font-size="14.00" fill="#0058ad">a 53 78</text>
</g>
<!-- T10103&#45;&gt;T10099 -->
<g id="edge1" class="edge">
<title>T10103:f2&#45;&gt;T10099:f1</title>
<path fill="none" stroke="#5b00c0" d="M2491.5,-162C2491.5,50.8167 2960.028,-315.1595 2975.1271,-120.9953"/>
<polygon fill="#5b00c0" stroke="#5b00c0" points="2978.6246,-121.1236 2975.5,-111 2971.6295,-120.8625 2978.6246,-121.1236"/>
<text text-anchor="middle" x="2980" y="-132.8" font-family="Times,serif" font-size="14.00" fill="#5b00c0">rw</text>
</g>
<!-- T10101 -->
<g id="node2" class="node">
<title>T10101</title>
<polygon fill="none" stroke="#0058ad" points="535.5,-.5 535.5,-29.5 3069.5,-29.5 3069.5,-.5 535.5,-.5"/>
<text text-anchor="middle" x="701.5" y="-11.3" font-family="Times,serif" font-size="14.00" fill="#0058ad">r 52 [1 2 3 4 5 6 7 8 9 10 11 13 12 14 15 16 17 19 18 20]</text>
<polyline fill="none" stroke="#0058ad" points="867.5,-.5 867.5,-29.5 "/>
<text text-anchor="middle" x="1774" y="-11.3" font-family="Times,serif" font-size="14.00" fill="#0058ad">r 50 [1 2 6 7 8 9 10 13 14 11 12 15 17 18 19 21 22 20 23 25 24 26 27 28 29 30 31 32 33 34 35 36 37 38 39 40 41 42 43 44 45 46 47 48 50 49 51 52 55 56 57 58 59 60 61 62 63 64 65 66 67 68 69 70 71 72 73 74 75 76 77 78 80 79 81 82 83 84 85 86 87 88 89 91 94 97 98 99 100 101 102 103 104 105 106 107 108 109 110 111]</text>
<polyline fill="none" stroke="#0058ad" points="2680.5,-.5 2680.5,-29.5 "/>
<text text-anchor="middle" x="2709" y="-11.3" font-family="Times,serif" font-size="14.00" fill="#0058ad">a 53 80</text>
<polyline fill="none" stroke="#0058ad" points="2737.5,-.5 2737.5,-29.5 "/>
<text text-anchor="middle" x="2903.5" y="-11.3" font-family="Times,serif" font-size="14.00" fill="#0058ad">r 52 [1 2 3 4 5 6 7 8 9 10 11 13 12 14 15 16 17 19 18 20]</text>
</g>
<!-- T10101&#45;&gt;T10103 -->
<g id="edge2" class="edge">
<title>T10101:f1&#45;&gt;T10103:f1</title>
<path fill="none" stroke="#5b00c0" d="M1773.5,-30C1773.5,-50.7473 1656.2158,-59.1632 1693.5,-111 1732.9134,-165.797 1834.0483,-98.6027 1844.6053,-151.9312"/>
<polygon fill="#5b00c0" stroke="#5b00c0" points="1841.1285,-152.3491 1845.5,-162 1848.1011,-151.7294 1841.1285,-152.3491"/>
<text text-anchor="middle" x="1701" y="-92.3" font-family="Times,serif" font-size="14.00" fill="#5b00c0">rw</text>
</g>
<!-- T10099&#45;&gt;T10101 -->
<g id="edge3" class="edge">
<title>T10099:f1&#45;&gt;T10101:f2</title>
<path fill="none" stroke="#c02700" d="M2975.5,-81C2975.5,35.7314 2725.3617,-139.1709 2710.2166,-40.0971"/>
<polygon fill="#c02700" stroke="#c02700" points="2713.6992,-39.7271 2709.5,-30 2706.7168,-40.2227 2713.6992,-39.7271"/>
<text text-anchor="middle" x="2982.5" y="-51.8" font-family="Times,serif" font-size="14.00" fill="#c02700">ww</text>
</g>
</g>
</svg>
