<?xml version="1.0" encoding="UTF-8" standalone="no"?>
<!DOCTYPE svg PUBLIC "-//W3C//DTD SVG 1.1//EN"
 "http://www.w3.org/Graphics/SVG/1.1/DTD/svg11.dtd">
<!-- Generated by graphviz version 2.40.1 (20161225.0304)
 -->
<!-- Title: a_graph Pages: 1 -->
<svg width="2775pt" height="119pt"
 viewBox="0.00 0.00 2775.00 119.00" xmlns="http://www.w3.org/2000/svg" xmlns:xlink="http://www.w3.org/1999/xlink">
<g id="graph0" class="graph" transform="scale(1 1) rotate(0) translate(4 115)">
<title>a_graph</title>
<polygon fill="#ffffff" stroke="transparent" points="-4,4 -4,-115 2771,-115 2771,4 -4,4"/>
<!-- T29713 -->
<g id="node1" class="node">
<title>T29713</title>
<polygon fill="none" stroke="#0058ad" points="0,-81.5 0,-110.5 2767,-110.5 2767,-81.5 0,-81.5"/>
<text text-anchor="middle" x="515.5" y="-92.3" font-family="Times,serif" font-size="14.00" fill="#0058ad">r 149 [1 2 6 8 9 5 10 11 12 13 14 15 16 17 18 19 20 21 23 24 22 25 26 30 27 28 29 31 32 33 34 35 36 37 38 39 41 42 40 43 44 45 46 47 49 51 52 53 54 57 58 59 55 56 61 62 63 64 60]</text>
<polyline fill="none" stroke="#0058ad" points="1031,-81.5 1031,-110.5 "/>
<text text-anchor="middle" x="1867" y="-92.3" font-family="Times,serif" font-size="14.00" fill="#0058ad">r 145 [1 4 5 7 9 10 11 12 13 14 15 16 17 18 19 20 21 22 23 24 25 26 27 28 29 30 31 32 33 34 35 36 37 38 39 40 43 44 41 42 45 46 47 49 50 51 52 53 55 56 57 58 59 60 61 62 63 64 65 66 67 68 73 75 76 77 78 79 80 81 82 83 85 86 87 88 89 90 91 92 93 95 96 97 98 99 101 102 103 104 105 106 100]</text>
<polyline fill="none" stroke="#0058ad" points="2703,-81.5 2703,-110.5 "/>
<text text-anchor="middle" x="2735" y="-92.3" font-family="Times,serif" font-size="14.00" fill="#0058ad">a 146 19</text>
</g>
<!-- T29709 -->
<g id="node2" class="node">
<title>T29709</title>
<polygon fill="none" stroke="#0058ad" points="874.5,-.5 874.5,-29.5 2326.5,-29.5 2326.5,-.5 874.5,-.5"/>
<text text-anchor="middle" x="1021" y="-11.3" font-family="Times,serif" font-size="14.00" fill="#0058ad">r 146 [1 2 3 5 6 7 8 9 10 11 12 13 14 15 16 17 18]</text>
<polyline fill="none" stroke="#0058ad" points="1167.5,-.5 1167.5,-29.5 "/>
<text text-anchor="middle" x="1683" y="-11.3" font-family="Times,serif" font-size="14.00" fill="#0058ad">r 149 [1 2 6 8 9 5 10 11 12 13 14 15 16 17 18 19 20 21 23 24 22 25 26 30 27 28 29 31 32 33 34 35 36 37 38 39 41 42 40 43 44 45 46 47 49 51 52 53 54 57 58 59 55 56 61 62 63 64 60]</text>
<polyline fill="none" stroke="#0058ad" points="2198.5,-.5 2198.5,-29.5 "/>
<text text-anchor="middle" x="2230.5" y="-11.3" font-family="Times,serif" font-size="14.00" fill="#0058ad">a 149 65</text>
<polyline fill="none" stroke="#0058ad" points="2262.5,-.5 2262.5,-29.5 "/>
<text text-anchor="middle" x="2294.5" y="-11.3" font-family="Times,serif" font-size="14.00" fill="#0058ad">a 131 69</text>
</g>
<!-- T29713&#45;&gt;T29709 -->
<g id="edge1" class="edge">
<title>T29713:f0&#45;&gt;T29709:f2</title>
<path fill="none" stroke="#5b00c0" d="M515.5,-81C515.5,-35.2949 2092.7015,-74.1791 2222.0813,-35.4129"/>
<polygon fill="#5b00c0" stroke="#5b00c0" points="2223.9815,-38.3522 2230.5,-30 2220.1957,-32.4643 2223.9815,-38.3522"/>
<text text-anchor="middle" x="2059" y="-51.8" font-family="Times,serif" font-size="14.00" fill="#5b00c0">rw</text>
</g>
<!-- T29709&#45;&gt;T29713 -->
<g id="edge2" class="edge">
<title>T29709:f0&#45;&gt;T29713:f2</title>
<path fill="none" stroke="#5b00c0" d="M1020.5,-30C1020.5,-44.5855 2055.9226,-47.5135 2070.5,-48 2214.9114,-52.8197 2711.4627,61.4081 2734.6592,-71.0329"/>
<polygon fill="#5b00c0" stroke="#5b00c0" points="2731.1717,-71.3296 2735.5,-81 2738.1469,-70.7412 2731.1717,-71.3296"/>
<text text-anchor="middle" x="2737" y="-51.8" font-family="Times,serif" font-size="14.00" fill="#5b00c0">rw</text>
</g>
</g>
</svg>
