<?xml version="1.0" encoding="UTF-8" standalone="no"?>
<!DOCTYPE svg PUBLIC "-//W3C//DTD SVG 1.1//EN"
 "http://www.w3.org/Graphics/SVG/1.1/DTD/svg11.dtd">
<!-- Generated by graphviz version 2.40.1 (20161225.0304)
 -->
<!-- Title: a_graph Pages: 1 -->
<svg width="1805pt" height="119pt"
 viewBox="0.00 0.00 1805.00 119.00" xmlns="http://www.w3.org/2000/svg" xmlns:xlink="http://www.w3.org/1999/xlink">
<g id="graph0" class="graph" transform="scale(1 1) rotate(0) translate(4 115)">
<title>a_graph</title>
<polygon fill="#ffffff" stroke="transparent" points="-4,4 -4,-115 1801,-115 1801,4 -4,4"/>
<!-- T32957 -->
<g id="node1" class="node">
<title>T32957</title>
<polygon fill="none" stroke="#0058ad" points="0,-81.5 0,-110.5 1068,-110.5 1068,-81.5 0,-81.5"/>
<text text-anchor="middle" x="454" y="-92.3" font-family="Times,serif" font-size="14.00" fill="#0058ad">r 161 [1 2 3 4 5 6 7 8 9 10 11 12 13 14 15 16 17 19 18 21 20 22 23 25 26 27 28 29 31 32 33 34 35 36 37 38 39 40 41 42 43 44 45 46 47 49 48 50 52 53 54 56 57]</text>
<polyline fill="none" stroke="#0058ad" points="908,-81.5 908,-110.5 "/>
<text text-anchor="middle" x="956" y="-92.3" font-family="Times,serif" font-size="14.00" fill="#0058ad">r 164 [1 2 4 5]</text>
<polyline fill="none" stroke="#0058ad" points="1004,-81.5 1004,-110.5 "/>
<text text-anchor="middle" x="1036" y="-92.3" font-family="Times,serif" font-size="14.00" fill="#0058ad">a 165 44</text>
</g>
<!-- T32959 -->
<g id="node2" class="node">
<title>T32959</title>
<polygon fill="none" stroke="#0058ad" points="159,-.5 159,-29.5 1797,-29.5 1797,-.5 159,-.5"/>
<text text-anchor="middle" x="191" y="-11.3" font-family="Times,serif" font-size="14.00" fill="#0058ad">a 161 58</text>
<polyline fill="none" stroke="#0058ad" points="223,-.5 223,-29.5 "/>
<text text-anchor="middle" x="685.5" y="-11.3" font-family="Times,serif" font-size="14.00" fill="#0058ad">r 161 [1 2 3 4 5 6 7 8 9 10 11 12 13 14 15 16 17 19 18 21 20 22 23 25 26 27 28 29 31 32 33 34 35 36 37 38 39 40 41 42 43 44 45 46 47 49 48 50 52 53 54 56 57 58]</text>
<polyline fill="none" stroke="#0058ad" points="1148,-.5 1148,-29.5 "/>
<text text-anchor="middle" x="1472.5" y="-11.3" font-family="Times,serif" font-size="14.00" fill="#0058ad">r 165 [1 2 3 4 6 7 8 9 10 5 17 18 19 21 20 25 26 27 28 29 30 32 34 35 36 37 38 39 40 33 41 42 43 45 46 47 48 49]</text>
</g>
<!-- T32957&#45;&gt;T32959 -->
<g id="edge1" class="edge">
<title>T32957:f0&#45;&gt;T32959:f0</title>
<path fill="none" stroke="#5b00c0" d="M454,-81C454,34.4618 206.6828,-138.0167 191.7085,-39.9888"/>
<polygon fill="#5b00c0" stroke="#5b00c0" points="195.1989,-39.7273 191,-30 188.2164,-40.2226 195.1989,-39.7273"/>
<text text-anchor="middle" x="459.5" y="-51.8" font-family="Times,serif" font-size="14.00" fill="#5b00c0">rw</text>
</g>
<!-- T32959&#45;&gt;T32957 -->
<g id="edge2" class="edge">
<title>T32959:f2&#45;&gt;T32957:f2</title>
<path fill="none" stroke="#5b00c0" d="M1473,-30C1473,-73.1002 1151.8288,-93.6927 1078.1857,-95.8161"/>
<polygon fill="#5b00c0" stroke="#5b00c0" points="1077.9352,-92.32 1068,-96 1078.0616,-99.3188 1077.9352,-92.32"/>
<text text-anchor="middle" x="1455.5" y="-51.8" font-family="Times,serif" font-size="14.00" fill="#5b00c0">rw</text>
</g>
</g>
</svg>
