<?xml version="1.0" encoding="UTF-8" standalone="no"?>
<!DOCTYPE svg PUBLIC "-//W3C//DTD SVG 1.1//EN"
 "http://www.w3.org/Graphics/SVG/1.1/DTD/svg11.dtd">
<!-- Generated by graphviz version 2.40.1 (20161225.0304)
 -->
<!-- Title: a_graph Pages: 1 -->
<svg width="3559pt" height="119pt"
 viewBox="0.00 0.00 3559.00 119.00" xmlns="http://www.w3.org/2000/svg" xmlns:xlink="http://www.w3.org/1999/xlink">
<g id="graph0" class="graph" transform="scale(1 1) rotate(0) translate(4 115)">
<title>a_graph</title>
<polygon fill="#ffffff" stroke="transparent" points="-4,4 -4,-115 3555,-115 3555,4 -4,4"/>
<!-- T22879 -->
<g id="node1" class="node">
<title>T22879</title>
<polygon fill="none" stroke="#0058ad" points="862,-81.5 862,-110.5 2111,-110.5 2111,-81.5 862,-81.5"/>
<text text-anchor="middle" x="899.5" y="-92.3" font-family="Times,serif" font-size="14.00" fill="#0058ad">r 116 [1 2]</text>
<polyline fill="none" stroke="#0058ad" points="937,-81.5 937,-110.5 "/>
<text text-anchor="middle" x="974.5" y="-92.3" font-family="Times,serif" font-size="14.00" fill="#0058ad">r 116 [1 2]</text>
<polyline fill="none" stroke="#0058ad" points="1012,-81.5 1012,-110.5 "/>
<text text-anchor="middle" x="1526" y="-92.3" font-family="Times,serif" font-size="14.00" fill="#0058ad">r 102 [1 2 3 4 5 6 7 8 9 10 11 12 14 13 15 17 18 19 20 22 21 23 24 25 26 27 28 29 30 31 32 33 34 35 36 37 38 39 40 41 42 43 44 45 46 47 48 49 50 51 52 53 54 56 57 58 59 61 62 63]</text>
<polyline fill="none" stroke="#0058ad" points="2040,-81.5 2040,-110.5 "/>
<text text-anchor="middle" x="2075.5" y="-92.3" font-family="Times,serif" font-size="14.00" fill="#0058ad">a 113 111</text>
</g>
<!-- T22881 -->
<g id="node2" class="node">
<title>T22881</title>
<polygon fill="none" stroke="#0058ad" points="0,-.5 0,-29.5 3551,-29.5 3551,-.5 0,-.5"/>
<text text-anchor="middle" x="982.5" y="-11.3" font-family="Times,serif" font-size="14.00" fill="#0058ad">r 113 [1 2 4 5 3 6 7 8 9 11 10 12 13 14 15 16 17 18 20 19 21 23 22 24 25 26 27 28 29 30 31 32 33 34 35 36 37 38 39 40 41 42 43 45 44 46 47 48 49 50 51 52 53 54 55 56 57 59 58 60 61 62 63 64 65 66 67 68 69 70 71 72 77 73 74 75 78 79 76 80 82 83 81 85 86 84 87 88 89 91 90 92 93 94 95 96 97 98 99 100 101 102 103 104 105 106 107 108 109 110]</text>
<polyline fill="none" stroke="#0058ad" points="1965,-.5 1965,-29.5 "/>
<text text-anchor="middle" x="1993.5" y="-11.3" font-family="Times,serif" font-size="14.00" fill="#0058ad">a 116 3</text>
<polyline fill="none" stroke="#0058ad" points="2022,-.5 2022,-29.5 "/>
<text text-anchor="middle" x="2786.5" y="-11.3" font-family="Times,serif" font-size="14.00" fill="#0058ad">r 115 [1 2 3 4 6 8 5 9 10 11 12 13 7 14 15 16 17 18 19 20 21 24 25 22 23 26 29 28 30 31 27 32 33 34 35 36 37 38 39 41 42 43 44 40 45 46 47 49 50 51 48 53 54 52 55 56 57 58 59 60 61 62 64 65 66 67 68 69 70 71 72 73 74 75 76 77 78 81 82 83 84 79 85 86 87 90 89 91 92]</text>
</g>
<!-- T22879&#45;&gt;T22881 -->
<g id="edge1" class="edge">
<title>T22879:f0&#45;&gt;T22881:f1</title>
<path fill="none" stroke="#5b00c0" d="M899.5,-81C899.5,-66.6358 1875.0968,-47.4852 1983.7081,-32.5881"/>
<polygon fill="#5b00c0" stroke="#5b00c0" points="1984.7264,-35.9393 1993.5,-30 1982.9376,-29.1717 1984.7264,-35.9393"/>
<text text-anchor="middle" x="1678" y="-51.8" font-family="Times,serif" font-size="14.00" fill="#5b00c0">rw</text>
</g>
<!-- T22881&#45;&gt;T22879 -->
<g id="edge2" class="edge">
<title>T22881:f0&#45;&gt;T22879:f3</title>
<path fill="none" stroke="#5b00c0" d="M982.5,-30C982.5,-49.6453 1669.8849,-46.9128 1689.5,-48 1771.7652,-52.5596 2050.1105,.2344 2073.8789,-70.6833"/>
<polygon fill="#5b00c0" stroke="#5b00c0" points="2070.49,-71.6646 2075.5,-81 2077.4052,-70.5779 2070.49,-71.6646"/>
<text text-anchor="middle" x="2077" y="-51.8" font-family="Times,serif" font-size="14.00" fill="#5b00c0">rw</text>
</g>
</g>
</svg>
