<?xml version="1.0" encoding="UTF-8" standalone="no"?>
<!DOCTYPE svg PUBLIC "-//W3C//DTD SVG 1.1//EN"
 "http://www.w3.org/Graphics/SVG/1.1/DTD/svg11.dtd">
<!-- Generated by graphviz version 2.40.1 (20161225.0304)
 -->
<!-- Title: a_graph Pages: 1 -->
<svg width="1762pt" height="200pt"
 viewBox="0.00 0.00 1762.00 200.00" xmlns="http://www.w3.org/2000/svg" xmlns:xlink="http://www.w3.org/1999/xlink">
<g id="graph0" class="graph" transform="scale(1 1) rotate(0) translate(4 196)">
<title>a_graph</title>
<polygon fill="#ffffff" stroke="transparent" points="-4,4 -4,-196 1758,-196 1758,4 -4,4"/>
<!-- T28513 -->
<g id="node1" class="node">
<title>T28513</title>
<polygon fill="none" stroke="#0058ad" points="112,-162.5 112,-191.5 957,-191.5 957,-162.5 112,-162.5"/>
<text text-anchor="middle" x="534.5" y="-173.3" font-family="Times,serif" font-size="14.00" fill="#0058ad">r 142 [1 2 3 4 5 7 8 9 11 12 13 14 15 16 17 18 19 21 20 22 23 25 26 29 27 28 30 24 31 32 34 33 37 38 36 39 41 40 42 43 45 46 47 44 48 49 50 51 52]</text>
</g>
<!-- T28517 -->
<g id="node2" class="node">
<title>T28517</title>
<polygon fill="none" stroke="#0058ad" points="545,-81.5 545,-110.5 1754,-110.5 1754,-81.5 545,-81.5"/>
<text text-anchor="middle" x="577" y="-92.3" font-family="Times,serif" font-size="14.00" fill="#0058ad">a 142 54</text>
<polyline fill="none" stroke="#0058ad" points="609,-81.5 609,-110.5 "/>
<text text-anchor="middle" x="1181.5" y="-92.3" font-family="Times,serif" font-size="14.00" fill="#0058ad">r 143 [3 4 5 6 7 8 11 12 9 10 13 14 15 16 17 18 19 21 22 23 24 25 26 20 30 27 31 32 33 34 35 28 29 39 36 37 40 43 41 44 45 48 46 47 49 50 51 52 53 54 55 56 57 58 59 60 62 63 61 64 65 69 70 66 67 68]</text>
</g>
<!-- T28513&#45;&gt;T28517 -->
<g id="edge1" class="edge">
<title>T28513:f0&#45;&gt;T28517:f0</title>
<path fill="none" stroke="#5b00c0" d="M550.6182,-162.404C560.4267,-152.1478 571.7394,-137.411 575.3384,-121.2325"/>
<polygon fill="#5b00c0" stroke="#5b00c0" points="578.8496,-121.331 576.5,-111 571.8943,-120.5413 578.8496,-121.331"/>
<text text-anchor="middle" x="580" y="-132.8" font-family="Times,serif" font-size="14.00" fill="#5b00c0">rw</text>
</g>
<!-- T28511 -->
<g id="node3" class="node">
<title>T28511</title>
<polygon fill="none" stroke="#0058ad" points="0,-.5 0,-29.5 1037,-29.5 1037,-.5 0,-.5"/>
<text text-anchor="middle" x="32" y="-11.3" font-family="Times,serif" font-size="14.00" fill="#0058ad">a 143 71</text>
<polyline fill="none" stroke="#0058ad" points="64,-.5 64,-29.5 "/>
<text text-anchor="middle" x="96" y="-11.3" font-family="Times,serif" font-size="14.00" fill="#0058ad">a 143 72</text>
<polyline fill="none" stroke="#0058ad" points="128,-.5 128,-29.5 "/>
<text text-anchor="middle" x="160" y="-11.3" font-family="Times,serif" font-size="14.00" fill="#0058ad">a 143 73</text>
<polyline fill="none" stroke="#0058ad" points="192,-.5 192,-29.5 "/>
<text text-anchor="middle" x="614.5" y="-11.3" font-family="Times,serif" font-size="14.00" fill="#0058ad">r 142 [1 2 3 4 5 7 8 9 11 12 13 14 15 16 17 18 19 21 20 22 23 25 26 29 27 28 30 24 31 32 34 33 37 38 36 39 41 40 42 43 45 46 47 44 48 49 50 51 52]</text>
</g>
<!-- T28517&#45;&gt;T28511 -->
<g id="edge2" class="edge">
<title>T28517:f1&#45;&gt;T28511:f0</title>
<path fill="none" stroke="#5b00c0" d="M1181.5,-81C1181.5,-63.6872 575.7947,-63.7911 558.5,-63 503.2107,-60.4709 83.2453,-85.5581 35.8484,-39.1533"/>
<polygon fill="#5b00c0" stroke="#5b00c0" points="38.9525,-37.5306 31.5,-30 32.6298,-40.5344 38.9525,-37.5306"/>
<text text-anchor="middle" x="566" y="-51.8" font-family="Times,serif" font-size="14.00" fill="#5b00c0">rw</text>
</g>
<!-- T28511&#45;&gt;T28513 -->
<g id="edge4" class="edge">
<title>T28511&#45;&gt;T28513</title>
<path fill="none" stroke="#0050c0" d="M519.8169,-29.643C521.5232,-48.4731 524.6212,-82.1837 527.5,-111 528.8643,-124.6565 530.4744,-139.8926 531.8062,-152.282"/>
<polygon fill="#0050c0" stroke="#0050c0" points="528.3374,-152.7597 532.8918,-162.3256 535.2969,-152.0074 528.3374,-152.7597"/>
<text text-anchor="middle" x="532" y="-92.3" font-family="Times,serif" font-size="14.00" fill="#0050c0">rt</text>
</g>
<!-- T28511&#45;&gt;T28517 -->
<g id="edge3" class="edge">
<title>T28511:f3&#45;&gt;T28517:f0</title>
<path fill="none" stroke="#5b00c0" d="M614.5,-30C614.5,-54.2918 586.436,-53.6211 578.543,-70.8922"/>
<polygon fill="#5b00c0" stroke="#5b00c0" points="575.0506,-70.5048 576.5,-81 581.9119,-71.8917 575.0506,-70.5048"/>
<text text-anchor="middle" x="613" y="-51.8" font-family="Times,serif" font-size="14.00" fill="#5b00c0">rw</text>
</g>
</g>
</svg>
