<?xml version="1.0" encoding="UTF-8" standalone="no"?>
<!DOCTYPE svg PUBLIC "-//W3C//DTD SVG 1.1//EN"
 "http://www.w3.org/Graphics/SVG/1.1/DTD/svg11.dtd">
<!-- Generated by graphviz version 2.40.1 (20161225.0304)
 -->
<!-- Title: a_graph Pages: 1 -->
<svg width="2822pt" height="119pt"
 viewBox="0.00 0.00 2821.50 119.00" xmlns="http://www.w3.org/2000/svg" xmlns:xlink="http://www.w3.org/1999/xlink">
<g id="graph0" class="graph" transform="scale(1 1) rotate(0) translate(4 115)">
<title>a_graph</title>
<polygon fill="#ffffff" stroke="transparent" points="-4,4 -4,-115 2817.5,-115 2817.5,4 -4,4"/>
<!-- T1111 -->
<g id="node1" class="node">
<title>T1111</title>
<polygon fill="none" stroke="#0058ad" points="0,-81.5 0,-110.5 2433,-110.5 2433,-81.5 0,-81.5"/>
<text text-anchor="middle" x="662.5" y="-92.3" font-family="Times,serif" font-size="14.00" fill="#0058ad">r 7 [2 7 8 9 10 11 12 13 14 15 16 17 18 19 20 21 22 23 24 25 26 27 28 29 30 31 32 33 34 39 41 40 42 43 44 45 46 47 49 48 50 51 52 53 54 55 56 57 58 59 60 62 61 63 64 68 69 70 71 72 73 78 79 80 81 85 86 87 88 89 90 91 92 93 94 97]</text>
<polyline fill="none" stroke="#0058ad" points="1325,-81.5 1325,-110.5 "/>
<text text-anchor="middle" x="1822" y="-92.3" font-family="Times,serif" font-size="14.00" fill="#0058ad">r 12 [2 3 4 5 6 7 8 9 10 11 13 12 14 15 16 17 18 19 20 21 23 24 25 26 27 28 29 30 31 32 33 34 35 36 37 38 39 40 41 42 43 44 45 46 47 48 51 52 53 54 55 56 68 69 70 71 58 72]</text>
<polyline fill="none" stroke="#0058ad" points="2319,-81.5 2319,-110.5 "/>
<text text-anchor="middle" x="2347.5" y="-92.3" font-family="Times,serif" font-size="14.00" fill="#0058ad">a 11 24</text>
<polyline fill="none" stroke="#0058ad" points="2376,-81.5 2376,-110.5 "/>
<text text-anchor="middle" x="2404.5" y="-92.3" font-family="Times,serif" font-size="14.00" fill="#0058ad">a 12 57</text>
</g>
<!-- T1113 -->
<g id="node2" class="node">
<title>T1113</title>
<polygon fill="none" stroke="#0058ad" points="605.5,-.5 605.5,-29.5 2813.5,-29.5 2813.5,-.5 605.5,-.5"/>
<text text-anchor="middle" x="690.5" y="-11.3" font-family="Times,serif" font-size="14.00" fill="#0058ad">r 4 [1 3 2 4 5 6 7 8 9 11 12]</text>
<polyline fill="none" stroke="#0058ad" points="775.5,-.5 775.5,-29.5 "/>
<text text-anchor="middle" x="1272.5" y="-11.3" font-family="Times,serif" font-size="14.00" fill="#0058ad">r 12 [2 3 4 5 6 7 8 9 10 11 13 12 14 15 16 17 18 19 20 21 23 24 25 26 27 28 29 30 31 32 33 34 35 36 37 38 39 40 41 42 43 44 45 46 47 48 51 52 53 54 55 56 68 69 70 71 58 72]</text>
<polyline fill="none" stroke="#0058ad" points="1769.5,-.5 1769.5,-29.5 "/>
<text text-anchor="middle" x="1794.5" y="-11.3" font-family="Times,serif" font-size="14.00" fill="#0058ad">a 7 99</text>
<polyline fill="none" stroke="#0058ad" points="1819.5,-.5 1819.5,-29.5 "/>
<text text-anchor="middle" x="2316.5" y="-11.3" font-family="Times,serif" font-size="14.00" fill="#0058ad">r 12 [2 3 4 5 6 7 8 9 10 11 13 12 14 15 16 17 18 19 20 21 23 24 25 26 27 28 29 30 31 32 33 34 35 36 37 38 39 40 41 42 43 44 45 46 47 48 51 52 53 54 55 56 68 69 70 71 58 72]</text>
</g>
<!-- T1111&#45;&gt;T1113 -->
<g id="edge1" class="edge">
<title>T1111:f0&#45;&gt;T1113:f2</title>
<path fill="none" stroke="#5b00c0" d="M662.5,-81C662.5,167.245 1762.6684,-269.1336 1793.8255,-40.2773"/>
<polygon fill="#5b00c0" stroke="#5b00c0" points="1797.3375,-40.2078 1794.5,-30 1790.3525,-39.7493 1797.3375,-40.2078"/>
<text text-anchor="middle" x="1797" y="-51.8" font-family="Times,serif" font-size="14.00" fill="#5b00c0">rw</text>
</g>
<!-- T1113&#45;&gt;T1111 -->
<g id="edge2" class="edge">
<title>T1113:f1&#45;&gt;T1111:f3</title>
<path fill="none" stroke="#5b00c0" d="M1272.5,-30C1272.5,-44.8973 1793.6174,-47.3382 1808.5,-48 1937.5223,-53.7377 2380.2886,46.1592 2403.5479,-70.9978"/>
<polygon fill="#5b00c0" stroke="#5b00c0" points="2400.068,-71.3767 2404.5,-81 2407.0365,-70.7133 2400.068,-71.3767"/>
<text text-anchor="middle" x="2407" y="-51.8" font-family="Times,serif" font-size="14.00" fill="#5b00c0">rw</text>
</g>
</g>
</svg>
