<?xml version="1.0" encoding="UTF-8" standalone="no"?>
<!DOCTYPE svg PUBLIC "-//W3C//DTD SVG 1.1//EN"
 "http://www.w3.org/Graphics/SVG/1.1/DTD/svg11.dtd">
<!-- Generated by graphviz version 2.40.1 (20161225.0304)
 -->
<!-- Title: a_graph Pages: 1 -->
<svg width="3650pt" height="200pt"
 viewBox="0.00 0.00 3649.50 200.00" xmlns="http://www.w3.org/2000/svg" xmlns:xlink="http://www.w3.org/1999/xlink">
<g id="graph0" class="graph" transform="scale(1 1) rotate(0) translate(4 196)">
<title>a_graph</title>
<polygon fill="#ffffff" stroke="transparent" points="-4,4 -4,-196 3645.5,-196 3645.5,4 -4,4"/>
<!-- T27741 -->
<g id="node1" class="node">
<title>T27741</title>
<polygon fill="none" stroke="#0058ad" points="1490,-162.5 1490,-191.5 2520,-191.5 2520,-162.5 1490,-162.5"/>
<text text-anchor="middle" x="1522" y="-173.3" font-family="Times,serif" font-size="14.00" fill="#0058ad">a 138 88</text>
<polyline fill="none" stroke="#0058ad" points="1554,-162.5 1554,-191.5 "/>
<text text-anchor="middle" x="1586" y="-173.3" font-family="Times,serif" font-size="14.00" fill="#0058ad">a 138 89</text>
<polyline fill="none" stroke="#0058ad" points="1618,-162.5 1618,-191.5 "/>
<text text-anchor="middle" x="2040.5" y="-173.3" font-family="Times,serif" font-size="14.00" fill="#0058ad">r 137 [1 2 3 4 5 7 8 9 13 14 15 16 17 18 19 20 21 22 23 24 25 26 27 28 29 31 30 32 33 34 35 36 37 38 39 41 40 42 43 44 45 46 48 49 50 47 51 52 54]</text>
<polyline fill="none" stroke="#0058ad" points="2463,-162.5 2463,-191.5 "/>
<text text-anchor="middle" x="2491.5" y="-173.3" font-family="Times,serif" font-size="14.00" fill="#0058ad">a 3 118</text>
</g>
<!-- T27743 -->
<g id="node2" class="node">
<title>T27743</title>
<polygon fill="none" stroke="#0058ad" points="1106.5,-81.5 1106.5,-110.5 3641.5,-110.5 3641.5,-81.5 1106.5,-81.5"/>
<text text-anchor="middle" x="1814" y="-92.3" font-family="Times,serif" font-size="14.00" fill="#0058ad">r 138 [1 2 3 4 6 7 8 9 10 11 12 13 14 16 17 18 19 20 21 22 23 24 25 26 27 28 29 30 32 33 34 31 37 38 39 35 36 40 41 42 43 44 45 46 47 48 49 51 52 50 55 53 56 57 58 61 59 60 62 63 65 64 66 67 68 69 70 71 73 74 75 72 76 77 78 79 80 84 81 82 83 86]</text>
<polyline fill="none" stroke="#0058ad" points="2521.5,-81.5 2521.5,-110.5 "/>
<text text-anchor="middle" x="2944" y="-92.3" font-family="Times,serif" font-size="14.00" fill="#0058ad">r 137 [1 2 3 4 5 7 8 9 13 14 15 16 17 18 19 20 21 22 23 24 25 26 27 28 29 31 30 32 33 34 35 36 37 38 39 41 40 42 43 44 45 46 48 49 50 47 51 52 54]</text>
<polyline fill="none" stroke="#0058ad" points="3366.5,-81.5 3366.5,-110.5 "/>
<text text-anchor="middle" x="3398.5" y="-92.3" font-family="Times,serif" font-size="14.00" fill="#0058ad">a 137 55</text>
<polyline fill="none" stroke="#0058ad" points="3430.5,-81.5 3430.5,-110.5 "/>
<text text-anchor="middle" x="3536" y="-92.3" font-family="Times,serif" font-size="14.00" fill="#0058ad">r 0 [1 2 3 5 6 7 8 9 10 11 12 13 14]</text>
</g>
<!-- T27741&#45;&gt;T27743 -->
<g id="edge1" class="edge">
<title>T27741:f2&#45;&gt;T27743:f2</title>
<path fill="none" stroke="#5b00c0" d="M2041,-162C2041,-14.5437 3336.0897,-250.4509 3396.7971,-120.9648"/>
<polygon fill="#5b00c0" stroke="#5b00c0" points="3400.2588,-121.5198 3399,-111 3393.4238,-120.0087 3400.2588,-121.5198"/>
<text text-anchor="middle" x="3391.5" y="-132.8" font-family="Times,serif" font-size="14.00" fill="#5b00c0">rw</text>
</g>
<!-- T27739 -->
<g id="node3" class="node">
<title>T27739</title>
<polygon fill="none" stroke="#0058ad" points="0,-.5 0,-29.5 1296,-29.5 1296,-.5 0,-.5"/>
<text text-anchor="middle" x="616" y="-11.3" font-family="Times,serif" font-size="14.00" fill="#0058ad">r 128 [1 2 4 5 7 8 9 10 11 12 13 19 20 21 22 23 24 25 26 27 28 29 31 32 34 33 35 36 37 38 40 41 42 43 44 45 46 47 48 49 51 52 53 54 55 56 57 58 59 60 61 62 63 64 65 66 67 68 69 70 71 72 73 74 75 76 77 78 79 80 81]</text>
<polyline fill="none" stroke="#0058ad" points="1232,-.5 1232,-29.5 "/>
<text text-anchor="middle" x="1264" y="-11.3" font-family="Times,serif" font-size="14.00" fill="#0058ad">a 138 87</text>
</g>
<!-- T27743&#45;&gt;T27739 -->
<g id="edge2" class="edge">
<title>T27743:f0&#45;&gt;T27739:f1</title>
<path fill="none" stroke="#5b00c0" d="M1106,-96C1099.3333,-96 1101.9428,-86.2899 1106,-81 1159.211,-11.6225 1242.789,-99.3775 1296,-30 1297.1411,-28.5122 1298.1677,-26.6748 1298.9056,-24.8021"/>
<polygon fill="#5b00c0" stroke="#5b00c0" points="1302.1978,-23.5929 1296,-15 1295.4864,-25.5824 1302.1978,-23.5929"/>
<text text-anchor="middle" x="1282.5" y="-51.8" font-family="Times,serif" font-size="14.00" fill="#5b00c0">rw</text>
</g>
<!-- T27739&#45;&gt;T27741 -->
<g id="edge3" class="edge">
<title>T27739:f1&#45;&gt;T27741:f0</title>
<path fill="none" stroke="#c02700" d="M1264,-30C1264,-61.8081 1151.4821,-36.0602 1122,-48 1090.3445,-60.8199 1055.8424,-85.0104 1078,-111 1106.4333,-144.3507 1407.8503,-173.6264 1479.8963,-176.7287"/>
<polygon fill="#c02700" stroke="#c02700" points="1479.9096,-180.2302 1490,-177 1480.0976,-173.2327 1479.9096,-180.2302"/>
<text text-anchor="middle" x="1088" y="-92.3" font-family="Times,serif" font-size="14.00" fill="#c02700">ww</text>
</g>
</g>
</svg>
