<?xml version="1.0" encoding="UTF-8" standalone="no"?>
<!DOCTYPE svg PUBLIC "-//W3C//DTD SVG 1.1//EN"
 "http://www.w3.org/Graphics/SVG/1.1/DTD/svg11.dtd">
<!-- Generated by graphviz version 2.40.1 (20161225.0304)
 -->
<!-- Title: a_graph Pages: 1 -->
<svg width="3306pt" height="119pt"
 viewBox="0.00 0.00 3305.50 119.00" xmlns="http://www.w3.org/2000/svg" xmlns:xlink="http://www.w3.org/1999/xlink">
<g id="graph0" class="graph" transform="scale(1 1) rotate(0) translate(4 115)">
<title>a_graph</title>
<polygon fill="#ffffff" stroke="transparent" points="-4,4 -4,-115 3301.5,-115 3301.5,4 -4,4"/>
<!-- T10755 -->
<g id="node1" class="node">
<title>T10755</title>
<polygon fill="none" stroke="#0058ad" points="0,-81.5 0,-110.5 2148,-110.5 2148,-81.5 0,-81.5"/>
<text text-anchor="middle" x="785" y="-92.3" font-family="Times,serif" font-size="14.00" fill="#0058ad">r 55 [1 2 3 4 5 7 9 10 11 12 14 13 16 17 18 15 19 20 23 24 21 22 25 26 27 28 30 31 32 29 33 34 35 36 37 38 39 40 41 42 46 45 48 49 50 47 51 52 53 54 55 59 60 56 57 58 62 63 65 64 66 69 70 71 67 68 72 73 75 77 74 78 80 81 79 82 83 84 86 85 87 89 90 88 91 92 94 93 95 97 96]</text>
<polyline fill="none" stroke="#0058ad" points="1570,-81.5 1570,-110.5 "/>
<text text-anchor="middle" x="1830.5" y="-92.3" font-family="Times,serif" font-size="14.00" fill="#0058ad">r 57 [1 4 2 3 5 6 9 10 7 8 12 11 14 15 13 17 19 20 21 16 22 18 23 24 25 26 27 30 28 29 33]</text>
<polyline fill="none" stroke="#0058ad" points="2091,-81.5 2091,-110.5 "/>
<text text-anchor="middle" x="2119.5" y="-92.3" font-family="Times,serif" font-size="14.00" fill="#0058ad">a 55 99</text>
</g>
<!-- T10753 -->
<g id="node2" class="node">
<title>T10753</title>
<polygon fill="none" stroke="#0058ad" points="1670.5,-.5 1670.5,-29.5 3297.5,-29.5 3297.5,-.5 1670.5,-.5"/>
<text text-anchor="middle" x="1699" y="-11.3" font-family="Times,serif" font-size="14.00" fill="#0058ad">a 57 34</text>
<polyline fill="none" stroke="#0058ad" points="1727.5,-.5 1727.5,-29.5 "/>
<text text-anchor="middle" x="2512.5" y="-11.3" font-family="Times,serif" font-size="14.00" fill="#0058ad">r 55 [1 2 3 4 5 7 9 10 11 12 14 13 16 17 18 15 19 20 23 24 21 22 25 26 27 28 30 31 32 29 33 34 35 36 37 38 39 40 41 42 46 45 48 49 50 47 51 52 53 54 55 59 60 56 57 58 62 63 65 64 66 69 70 71 67 68 72 73 75 77 74 78 80 81 79 82 83 84 86 85 87 89 90 88 91 92 94 93 95 97 96]</text>
</g>
<!-- T10755&#45;&gt;T10753 -->
<g id="edge1" class="edge">
<title>T10755:f1&#45;&gt;T10753:f0</title>
<path fill="none" stroke="#5b00c0" d="M1831,-81C1831,-21.9148 1714.5005,-84.3418 1700.3931,-39.9709"/>
<polygon fill="#5b00c0" stroke="#5b00c0" points="1703.8501,-39.4195 1699,-30 1696.9175,-40.3881 1703.8501,-39.4195"/>
<text text-anchor="middle" x="1831.5" y="-51.8" font-family="Times,serif" font-size="14.00" fill="#5b00c0">rw</text>
</g>
<!-- T10753&#45;&gt;T10755 -->
<g id="edge2" class="edge">
<title>T10753:f1&#45;&gt;T10755:f2</title>
<path fill="none" stroke="#5b00c0" d="M2513,-30C2513,-68.7984 2226.0454,-93.0389 2158.033,-95.7464"/>
<polygon fill="#5b00c0" stroke="#5b00c0" points="2157.9083,-92.2483 2148,-96 2158.0853,-99.2461 2157.9083,-92.2483"/>
<text text-anchor="middle" x="2497.5" y="-51.8" font-family="Times,serif" font-size="14.00" fill="#5b00c0">rw</text>
</g>
</g>
</svg>
