<?xml version="1.0" encoding="UTF-8" standalone="no"?>
<!DOCTYPE svg PUBLIC "-//W3C//DTD SVG 1.1//EN"
 "http://www.w3.org/Graphics/SVG/1.1/DTD/svg11.dtd">
<!-- Generated by graphviz version 2.40.1 (20161225.0304)
 -->
<!-- Title: a_graph Pages: 1 -->
<svg width="4339pt" height="119pt"
 viewBox="0.00 0.00 4338.50 119.00" xmlns="http://www.w3.org/2000/svg" xmlns:xlink="http://www.w3.org/1999/xlink">
<g id="graph0" class="graph" transform="scale(1 1) rotate(0) translate(4 115)">
<title>a_graph</title>
<polygon fill="#ffffff" stroke="transparent" points="-4,4 -4,-115 4334.5,-115 4334.5,4 -4,4"/>
<!-- T25045 -->
<g id="node1" class="node">
<title>T25045</title>
<polygon fill="none" stroke="#0058ad" points="1397.5,-81.5 1397.5,-110.5 4330.5,-110.5 4330.5,-81.5 1397.5,-81.5"/>
<text text-anchor="middle" x="1433" y="-92.3" font-family="Times,serif" font-size="14.00" fill="#0058ad">a 124 117</text>
<polyline fill="none" stroke="#0058ad" points="1468.5,-81.5 1468.5,-110.5 "/>
<text text-anchor="middle" x="1874" y="-92.3" font-family="Times,serif" font-size="14.00" fill="#0058ad">r 125 [1 2 3 4 6 10 9 7 8 11 12 13 14 15 16 17 18 21 19 20 22 23 24 25 26 28 29 30 27 31 32 33 34 35 36 37 38 39 40 41 42 43 44 45 46 49 50]</text>
<polyline fill="none" stroke="#0058ad" points="2279.5,-81.5 2279.5,-110.5 "/>
<text text-anchor="middle" x="3305" y="-92.3" font-family="Times,serif" font-size="14.00" fill="#0058ad">r 124 [1 2 3 4 5 6 7 8 9 10 11 12 13 14 15 16 17 19 20 21 22 18 23 24 25 28 30 31 32 29 33 34 35 36 37 38 41 42 39 40 44 45 43 46 47 48 49 50 53 51 52 56 57 54 55 58 59 60 62 63 64 65 66 67 68 69 61 70 71 72 74 75 76 77 73 79 80 81 78 84 82 83 85 86 87 88 89 90 91 92 94 95 96 93 97 98 99 100 101 102 103 104 105 106 107 109 110 111 108 112 113 116 117]</text>
</g>
<!-- T25043 -->
<g id="node2" class="node">
<title>T25043</title>
<polygon fill="none" stroke="#0058ad" points="0,-.5 0,-29.5 3190,-29.5 3190,-.5 0,-.5"/>
<text text-anchor="middle" x="35.5" y="-11.3" font-family="Times,serif" font-size="14.00" fill="#0058ad">a 114 105</text>
<polyline fill="none" stroke="#0058ad" points="71,-.5 71,-29.5 "/>
<text text-anchor="middle" x="585" y="-11.3" font-family="Times,serif" font-size="14.00" fill="#0058ad">r 122 [1 4 2 3 5 7 6 8 9 10 11 13 12 14 15 16 17 18 19 20 21 22 23 24 25 26 27 28 29 30 31 32 33 34 35 36 37 38 39 40 41 42 43 44 45 47 48 49 50 51 52 53 54 55 56 57 58 59 60 61]</text>
<polyline fill="none" stroke="#0058ad" points="1099,-.5 1099,-29.5 "/>
<text text-anchor="middle" x="1131" y="-11.3" font-family="Times,serif" font-size="14.00" fill="#0058ad">a 125 48</text>
<polyline fill="none" stroke="#0058ad" points="1163,-.5 1163,-29.5 "/>
<text text-anchor="middle" x="2176.5" y="-11.3" font-family="Times,serif" font-size="14.00" fill="#0058ad">r 124 [1 2 3 4 5 6 7 8 9 10 11 12 13 14 15 16 17 19 20 21 22 18 23 24 25 28 30 31 32 29 33 34 35 36 37 38 41 42 39 40 44 45 43 46 47 48 49 50 53 51 52 56 57 54 55 58 59 60 62 63 64 65 66 67 68 69 61 70 71 72 74 75 76 77 73 79 80 81 78 84 82 83 85 86 87 88 89 90 91 92 94 95 96 93 97 98 99 100 101 102 103 104 105 106 107 109 110 111 108 112 113 116]</text>
</g>
<!-- T25045&#45;&gt;T25043 -->
<g id="edge1" class="edge">
<title>T25045:f1&#45;&gt;T25043:f2</title>
<path fill="none" stroke="#5b00c0" d="M1874,-81C1874,62.4186 1696.0414,-58.3939 1553,-48 1531.6529,-46.4488 1198.1674,-52.2745 1139.7118,-35.5042"/>
<polygon fill="#5b00c0" stroke="#5b00c0" points="1141.3235,-32.3824 1131,-30 1137.5846,-38.3003 1141.3235,-32.3824"/>
<text text-anchor="middle" x="1880.5" y="-51.8" font-family="Times,serif" font-size="14.00" fill="#5b00c0">rw</text>
</g>
<!-- T25043&#45;&gt;T25045 -->
<g id="edge2" class="edge">
<title>T25043:f3&#45;&gt;T25045:f0</title>
<path fill="none" stroke="#5b00c0" d="M2177,-30C2177,-47.8681 1551.6048,-44.9437 1534,-48 1491.2885,-55.4149 1441.8833,-37.2303 1434.0652,-70.7268"/>
<polygon fill="#5b00c0" stroke="#5b00c0" points="1430.5501,-70.6923 1433,-81 1437.5128,-71.4143 1430.5501,-70.6923"/>
<text text-anchor="middle" x="1541.5" y="-51.8" font-family="Times,serif" font-size="14.00" fill="#5b00c0">rw</text>
</g>
</g>
</svg>
