<?xml version="1.0" encoding="UTF-8" standalone="no"?>
<!DOCTYPE svg PUBLIC "-//W3C//DTD SVG 1.1//EN"
 "http://www.w3.org/Graphics/SVG/1.1/DTD/svg11.dtd">
<!-- Generated by graphviz version 2.40.1 (20161225.0304)
 -->
<!-- Title: a_graph Pages: 1 -->
<svg width="1342pt" height="119pt"
 viewBox="0.00 0.00 1342.00 119.00" xmlns="http://www.w3.org/2000/svg" xmlns:xlink="http://www.w3.org/1999/xlink">
<g id="graph0" class="graph" transform="scale(1 1) rotate(0) translate(4 115)">
<title>a_graph</title>
<polygon fill="#ffffff" stroke="transparent" points="-4,4 -4,-115 1338,-115 1338,4 -4,4"/>
<!-- T31239 -->
<g id="node1" class="node">
<title>T31239</title>
<polygon fill="none" stroke="#0058ad" points="0,-81.5 0,-110.5 1334,-110.5 1334,-81.5 0,-81.5"/>
<text text-anchor="middle" x="540" y="-92.3" font-family="Times,serif" font-size="14.00" fill="#0058ad">r 154 [1 2 3 4 5 6 7 8 9 11 10 12 13 14 15 16 17 18 19 20 21 22 24 25 26 27 28 29 23 30 31 32 34 35 36 37 38 39 40 41 42 44 43 45 46 48 50 52 51 54 55 56 57 59 60 61 63 62 64 65 67 66 68]</text>
<polyline fill="none" stroke="#0058ad" points="1080,-81.5 1080,-110.5 "/>
<text text-anchor="middle" x="1112" y="-92.3" font-family="Times,serif" font-size="14.00" fill="#0058ad">a 157 12</text>
<polyline fill="none" stroke="#0058ad" points="1144,-81.5 1144,-110.5 "/>
<text text-anchor="middle" x="1239" y="-92.3" font-family="Times,serif" font-size="14.00" fill="#0058ad">r 157 [2 3 4 5 6 7 8 9 10 11 12]</text>
</g>
<!-- T31243 -->
<g id="node2" class="node">
<title>T31243</title>
<polygon fill="none" stroke="#0058ad" points="679.5,-.5 679.5,-29.5 916.5,-29.5 916.5,-.5 679.5,-.5"/>
<text text-anchor="middle" x="766" y="-11.3" font-family="Times,serif" font-size="14.00" fill="#0058ad">r 157 [2 3 4 5 6 7 8 9 10 11]</text>
<polyline fill="none" stroke="#0058ad" points="852.5,-.5 852.5,-29.5 "/>
<text text-anchor="middle" x="884.5" y="-11.3" font-family="Times,serif" font-size="14.00" fill="#0058ad">a 154 69</text>
</g>
<!-- T31239&#45;&gt;T31243 -->
<g id="edge1" class="edge">
<title>T31239:f0&#45;&gt;T31243:f1</title>
<path fill="none" stroke="#5b00c0" d="M540,-81C540,70.3668 869.0176,-173.0865 884.4403,-40.2268"/>
<polygon fill="#5b00c0" stroke="#5b00c0" points="887.9483,-40.1763 885,-30 880.9587,-39.7938 887.9483,-40.1763"/>
<text text-anchor="middle" x="888.5" y="-51.8" font-family="Times,serif" font-size="14.00" fill="#5b00c0">rw</text>
</g>
<!-- T31243&#45;&gt;T31239 -->
<g id="edge2" class="edge">
<title>T31243:f0&#45;&gt;T31239:f1</title>
<path fill="none" stroke="#5b00c0" d="M766,-30C766,-45.0226 885.1328,-45.8446 900,-48 990.6839,-61.1472 1102.8457,8.5533 1111.4699,-70.5944"/>
<polygon fill="#5b00c0" stroke="#5b00c0" points="1107.9957,-71.191 1112,-81 1114.9866,-70.8349 1107.9957,-71.191"/>
<text text-anchor="middle" x="1116.5" y="-51.8" font-family="Times,serif" font-size="14.00" fill="#5b00c0">rw</text>
</g>
</g>
</svg>
