<?xml version="1.0" encoding="UTF-8" standalone="no"?>
<!DOCTYPE svg PUBLIC "-//W3C//DTD SVG 1.1//EN"
 "http://www.w3.org/Graphics/SVG/1.1/DTD/svg11.dtd">
<!-- Generated by graphviz version 2.40.1 (20161225.0304)
 -->
<!-- Title: a_graph Pages: 1 -->
<svg width="2950pt" height="119pt"
 viewBox="0.00 0.00 2950.00 119.00" xmlns="http://www.w3.org/2000/svg" xmlns:xlink="http://www.w3.org/1999/xlink">
<g id="graph0" class="graph" transform="scale(1 1) rotate(0) translate(4 115)">
<title>a_graph</title>
<polygon fill="#ffffff" stroke="transparent" points="-4,4 -4,-115 2946,-115 2946,4 -4,4"/>
<!-- T38959 -->
<g id="node1" class="node">
<title>T38959</title>
<polygon fill="none" stroke="#0058ad" points="0,-81.5 0,-110.5 2942,-110.5 2942,-81.5 0,-81.5"/>
<text text-anchor="middle" x="48" y="-92.3" font-family="Times,serif" font-size="14.00" fill="#0058ad">r 192 [2 4 5 6]</text>
<polyline fill="none" stroke="#0058ad" points="96,-81.5 96,-110.5 "/>
<text text-anchor="middle" x="791.5" y="-92.3" font-family="Times,serif" font-size="14.00" fill="#0058ad">r 190 [1 2 3 4 5 6 7 8 9 10 11 12 13 14 15 16 17 18 19 20 21 22 23 24 25 26 27 28 29 30 31 32 33 34 35 36 37 38 39 40 41 42 43 44 46 45 47 48 49 50 51 53 54 55 56 58 59 60 61 62 63 64 66 65 67 68 69 70 71 72 73 74 78 79 77 80 81 82 84 85 86]</text>
<polyline fill="none" stroke="#0058ad" points="1487,-81.5 1487,-110.5 "/>
<text text-anchor="middle" x="2182.5" y="-92.3" font-family="Times,serif" font-size="14.00" fill="#0058ad">r 190 [1 2 3 4 5 6 7 8 9 10 11 12 13 14 15 16 17 18 19 20 21 22 23 24 25 26 27 28 29 30 31 32 33 34 35 36 37 38 39 40 41 42 43 44 46 45 47 48 49 50 51 53 54 55 56 58 59 60 61 62 63 64 66 65 67 68 69 70 71 72 73 74 78 79 77 80 81 82 84 85 86]</text>
<polyline fill="none" stroke="#0058ad" points="2878,-81.5 2878,-110.5 "/>
<text text-anchor="middle" x="2910" y="-92.3" font-family="Times,serif" font-size="14.00" fill="#0058ad">a 190 87</text>
</g>
<!-- T38957 -->
<g id="node2" class="node">
<title>T38957</title>
<polygon fill="none" stroke="#0058ad" points="393.5,-.5 393.5,-29.5 1898.5,-29.5 1898.5,-.5 393.5,-.5"/>
<text text-anchor="middle" x="1089" y="-11.3" font-family="Times,serif" font-size="14.00" fill="#0058ad">r 190 [1 2 3 4 5 6 7 8 9 10 11 12 13 14 15 16 17 18 19 20 21 22 23 24 25 26 27 28 29 30 31 32 33 34 35 36 37 38 39 40 41 42 43 44 46 45 47 48 49 50 51 53 54 55 56 58 59 60 61 62 63 64 66 65 67 68 69 70 71 72 73 74 78 79 77 80 81 82 84 85 86]</text>
<polyline fill="none" stroke="#0058ad" points="1784.5,-.5 1784.5,-29.5 "/>
<text text-anchor="middle" x="1813" y="-11.3" font-family="Times,serif" font-size="14.00" fill="#0058ad">a 193 2</text>
<polyline fill="none" stroke="#0058ad" points="1841.5,-.5 1841.5,-29.5 "/>
<text text-anchor="middle" x="1870" y="-11.3" font-family="Times,serif" font-size="14.00" fill="#0058ad">a 192 7</text>
</g>
<!-- T38959&#45;&gt;T38957 -->
<g id="edge1" class="edge">
<title>T38959:f0&#45;&gt;T38957:f2</title>
<path fill="none" stroke="#5b00c0" d="M48,-81C48,118.0626 1808.2567,-220.5851 1868.4218,-39.9012"/>
<polygon fill="#5b00c0" stroke="#5b00c0" points="1871.8822,-40.4263 1870,-30 1864.9694,-39.3244 1871.8822,-40.4263"/>
<text text-anchor="middle" x="1868.5" y="-51.8" font-family="Times,serif" font-size="14.00" fill="#5b00c0">rw</text>
</g>
<!-- T38957&#45;&gt;T38959 -->
<g id="edge2" class="edge">
<title>T38957:f0&#45;&gt;T38959:f3</title>
<path fill="none" stroke="#5b00c0" d="M1089,-30C1089,-40.989 1869.0152,-47.6991 1880,-48 1990.9951,-51.0409 2855.3011,28.459 2907.5304,-71.1404"/>
<polygon fill="#5b00c0" stroke="#5b00c0" points="2904.1751,-72.1501 2910,-81 2910.9654,-70.4492 2904.1751,-72.1501"/>
<text text-anchor="middle" x="2907.5" y="-51.8" font-family="Times,serif" font-size="14.00" fill="#5b00c0">rw</text>
</g>
</g>
</svg>
