<?xml version="1.0" encoding="UTF-8" standalone="no"?>
<!DOCTYPE svg PUBLIC "-//W3C//DTD SVG 1.1//EN"
 "http://www.w3.org/Graphics/SVG/1.1/DTD/svg11.dtd">
<!-- Generated by graphviz version 2.40.1 (20161225.0304)
 -->
<!-- Title: a_graph Pages: 1 -->
<svg width="2415pt" height="119pt"
 viewBox="0.00 0.00 2415.00 119.00" xmlns="http://www.w3.org/2000/svg" xmlns:xlink="http://www.w3.org/1999/xlink">
<g id="graph0" class="graph" transform="scale(1 1) rotate(0) translate(4 115)">
<title>a_graph</title>
<polygon fill="#ffffff" stroke="transparent" points="-4,4 -4,-115 2411,-115 2411,4 -4,4"/>
<!-- T30959 -->
<g id="node1" class="node">
<title>T30959</title>
<polygon fill="none" stroke="#0058ad" points="920,-81.5 920,-110.5 1799,-110.5 1799,-81.5 920,-81.5"/>
<text text-anchor="middle" x="952" y="-92.3" font-family="Times,serif" font-size="14.00" fill="#0058ad">a 155 51</text>
<polyline fill="none" stroke="#0058ad" points="984,-81.5 984,-110.5 "/>
<text text-anchor="middle" x="1093" y="-92.3" font-family="Times,serif" font-size="14.00" fill="#0058ad">r 156 [1 2 3 4 5 6 7 8 10 9 11 12 13]</text>
<polyline fill="none" stroke="#0058ad" points="1202,-81.5 1202,-110.5 "/>
<text text-anchor="middle" x="1500.5" y="-92.3" font-family="Times,serif" font-size="14.00" fill="#0058ad">r 154 [1 2 3 4 5 6 7 8 9 11 10 12 13 14 15 16 17 18 19 20 21 22 24 25 26 27 28 29 23 30 31 32 34 35 36]</text>
</g>
<!-- T30958 -->
<g id="node2" class="node">
<title>T30958</title>
<polygon fill="none" stroke="#0058ad" points="0,-.5 0,-29.5 2407,-29.5 2407,-.5 0,-.5"/>
<text text-anchor="middle" x="32" y="-11.3" font-family="Times,serif" font-size="14.00" fill="#0058ad">a 156 14</text>
<polyline fill="none" stroke="#0058ad" points="64,-.5 64,-29.5 "/>
<text text-anchor="middle" x="842" y="-11.3" font-family="Times,serif" font-size="14.00" fill="#0058ad">r 131 [1 2 7 8 9 10 11 12 13 14 15 16 17 18 19 20 21 22 23 24 25 26 27 28 29 30 31 32 33 34 35 36 37 38 39 40 41 42 43 45 46 47 48 49 50 51 52 53 54 55 56 57 58 59 60 61 62 63 64 65 67 68 69 70 71 72 73 74 75 79 80 81 82 83 84 85 86 87 88 90 89 91 92 93 94 95 96 97 98]</text>
<polyline fill="none" stroke="#0058ad" points="1620,-.5 1620,-29.5 "/>
<text text-anchor="middle" x="2013.5" y="-11.3" font-family="Times,serif" font-size="14.00" fill="#0058ad">r 155 [1 2 3 4 5 6 8 7 9 10 11 12 13 14 15 16 17 19 20 18 21 22 23 25 24 27 28 29 30 34 35 36 37 38 31 32 39 40 41 43 44 42 45 49 48 50]</text>
</g>
<!-- T30959&#45;&gt;T30958 -->
<g id="edge1" class="edge">
<title>T30959:f1&#45;&gt;T30958:f0</title>
<path fill="none" stroke="#5b00c0" d="M1092.5,-81C1092.5,-35.8829 1040.929,-55.8496 996.5,-48 971.6456,-43.6088 138.3603,-55.2934 40.795,-34.3096"/>
<polygon fill="#5b00c0" stroke="#5b00c0" points="42.0446,-31.0311 31.5,-30 39.1001,-37.3817 42.0446,-31.0311"/>
<text text-anchor="middle" x="1096" y="-51.8" font-family="Times,serif" font-size="14.00" fill="#5b00c0">rw</text>
</g>
<!-- T30958&#45;&gt;T30959 -->
<g id="edge2" class="edge">
<title>T30958:f2&#45;&gt;T30959:f0</title>
<path fill="none" stroke="#5b00c0" d="M2013.5,-30C2013.5,-58.7821 1003.2848,-35.2111 977.5,-48 964.1703,-54.6114 955.5746,-59.7843 952.6325,-71.0615"/>
<polygon fill="#5b00c0" stroke="#5b00c0" points="949.1548,-70.668 951.5,-81 956.1098,-71.4606 949.1548,-70.668"/>
<text text-anchor="middle" x="985" y="-51.8" font-family="Times,serif" font-size="14.00" fill="#5b00c0">rw</text>
</g>
</g>
</svg>
