<?xml version="1.0" encoding="UTF-8" standalone="no"?>
<!DOCTYPE svg PUBLIC "-//W3C//DTD SVG 1.1//EN"
 "http://www.w3.org/Graphics/SVG/1.1/DTD/svg11.dtd">
<!-- Generated by graphviz version 2.40.1 (20161225.0304)
 -->
<!-- Title: a_graph Pages: 1 -->
<svg width="1811pt" height="119pt"
 viewBox="0.00 0.00 1810.50 119.00" xmlns="http://www.w3.org/2000/svg" xmlns:xlink="http://www.w3.org/1999/xlink">
<g id="graph0" class="graph" transform="scale(1 1) rotate(0) translate(4 115)">
<title>a_graph</title>
<polygon fill="#ffffff" stroke="transparent" points="-4,4 -4,-115 1806.5,-115 1806.5,4 -4,4"/>
<!-- T9151 -->
<g id="node1" class="node">
<title>T9151</title>
<polygon fill="none" stroke="#0058ad" points="779.5,-81.5 779.5,-110.5 1802.5,-110.5 1802.5,-81.5 779.5,-81.5"/>
<text text-anchor="middle" x="808" y="-92.3" font-family="Times,serif" font-size="14.00" fill="#0058ad">a 47 90</text>
<polyline fill="none" stroke="#0058ad" points="836.5,-81.5 836.5,-110.5 "/>
<text text-anchor="middle" x="865" y="-92.3" font-family="Times,serif" font-size="14.00" fill="#0058ad">a 47 91</text>
<polyline fill="none" stroke="#0058ad" points="893.5,-81.5 893.5,-110.5 "/>
<text text-anchor="middle" x="922" y="-92.3" font-family="Times,serif" font-size="14.00" fill="#0058ad">a 39 52</text>
<polyline fill="none" stroke="#0058ad" points="950.5,-81.5 950.5,-110.5 "/>
<text text-anchor="middle" x="1376.5" y="-92.3" font-family="Times,serif" font-size="14.00" fill="#0058ad">r 49 [1 4 5 7 6 9 10 11 12 13 14 15 16 17 18 19 20 21 22 23 24 25 26 30 27 28 29 32 33 34 35 31 36 37 38 39 40 41 42 43 44 46 48 47 45 49 50 52 53]</text>
</g>
<!-- T9145 -->
<g id="node2" class="node">
<title>T9145</title>
<polygon fill="none" stroke="#0058ad" points="0,-.5 0,-29.5 1648,-29.5 1648,-.5 0,-.5"/>
<text text-anchor="middle" x="735" y="-11.3" font-family="Times,serif" font-size="14.00" fill="#0058ad">r 47 [1 2 3 4 5 6 7 8 9 10 11 12 13 14 15 17 18 19 20 21 22 23 24 25 26 27 29 28 30 32 31 33 34 35 37 36 38 39 40 41 42 43 44 45 46 47 49 50 51 52 53 55 56 54 57 58 59 60 61 62 63 64 65 66 67 68 69 70 73 72 74 75 76 77 78 79 80 81 82 83 84 85 86 87 88 89]</text>
<polyline fill="none" stroke="#0058ad" points="1470,-.5 1470,-29.5 "/>
<text text-anchor="middle" x="1498.5" y="-11.3" font-family="Times,serif" font-size="14.00" fill="#0058ad">a 49 56</text>
<polyline fill="none" stroke="#0058ad" points="1527,-.5 1527,-29.5 "/>
<text text-anchor="middle" x="1559" y="-11.3" font-family="Times,serif" font-size="14.00" fill="#0058ad">a 37 112</text>
<polyline fill="none" stroke="#0058ad" points="1591,-.5 1591,-29.5 "/>
<text text-anchor="middle" x="1619.5" y="-11.3" font-family="Times,serif" font-size="14.00" fill="#0058ad">a 49 57</text>
</g>
<!-- T9151&#45;&gt;T9145 -->
<g id="edge1" class="edge">
<title>T9151:f3&#45;&gt;T9145:f1</title>
<path fill="none" stroke="#5b00c0" d="M1377,-81C1377,-26.1334 1483.3349,-80.4847 1497.4575,-40.1236"/>
<polygon fill="#5b00c0" stroke="#5b00c0" points="1500.9537,-40.4131 1499,-30 1494.0335,-39.3587 1500.9537,-40.4131"/>
<text text-anchor="middle" x="1499.5" y="-51.8" font-family="Times,serif" font-size="14.00" fill="#5b00c0">rw</text>
</g>
<!-- T9145&#45;&gt;T9151 -->
<g id="edge2" class="edge">
<title>T9145:f0&#45;&gt;T9151:f0</title>
<path fill="none" stroke="#5b00c0" d="M735,-30C735,-61.5361 741.9982,-89.4644 768.7091,-95.0048"/>
<polygon fill="#5b00c0" stroke="#5b00c0" points="768.7095,-98.521 779,-96 769.3834,-91.5536 768.7095,-98.521"/>
<text text-anchor="middle" x="745.5" y="-51.8" font-family="Times,serif" font-size="14.00" fill="#5b00c0">rw</text>
</g>
</g>
</svg>
