<?xml version="1.0" encoding="UTF-8" standalone="no"?>
<!DOCTYPE svg PUBLIC "-//W3C//DTD SVG 1.1//EN"
 "http://www.w3.org/Graphics/SVG/1.1/DTD/svg11.dtd">
<!-- Generated by graphviz version 2.40.1 (20161225.0304)
 -->
<!-- Title: a_graph Pages: 1 -->
<svg width="911pt" height="119pt"
 viewBox="0.00 0.00 911.00 119.00" xmlns="http://www.w3.org/2000/svg" xmlns:xlink="http://www.w3.org/1999/xlink">
<g id="graph0" class="graph" transform="scale(1 1) rotate(0) translate(4 115)">
<title>a_graph</title>
<polygon fill="#ffffff" stroke="transparent" points="-4,4 -4,-115 907,-115 907,4 -4,4"/>
<!-- T1801 -->
<g id="node1" class="node">
<title>T1801</title>
<polygon fill="none" stroke="#0058ad" points="136.5,-81.5 136.5,-110.5 294.5,-110.5 294.5,-81.5 136.5,-81.5"/>
<text text-anchor="middle" x="165" y="-92.3" font-family="Times,serif" font-size="14.00" fill="#0058ad">a 15 31</text>
<polyline fill="none" stroke="#0058ad" points="193.5,-81.5 193.5,-110.5 "/>
<text text-anchor="middle" x="219" y="-92.3" font-family="Times,serif" font-size="14.00" fill="#0058ad">r 16 []</text>
<polyline fill="none" stroke="#0058ad" points="244.5,-81.5 244.5,-110.5 "/>
<text text-anchor="middle" x="269.5" y="-92.3" font-family="Times,serif" font-size="14.00" fill="#0058ad">a 6 80</text>
</g>
<!-- T1799 -->
<g id="node2" class="node">
<title>T1799</title>
<polygon fill="none" stroke="#0058ad" points="0,-.5 0,-29.5 903,-29.5 903,-.5 0,-.5"/>
<text text-anchor="middle" x="25.5" y="-11.3" font-family="Times,serif" font-size="14.00" fill="#0058ad">r 16 []</text>
<polyline fill="none" stroke="#0058ad" points="51,-.5 51,-29.5 "/>
<text text-anchor="middle" x="76" y="-11.3" font-family="Times,serif" font-size="14.00" fill="#0058ad">a 16 1</text>
<polyline fill="none" stroke="#0058ad" points="101,-.5 101,-29.5 "/>
<text text-anchor="middle" x="301.5" y="-11.3" font-family="Times,serif" font-size="14.00" fill="#0058ad">r 15 [1 2 3 5 4 6 7 8 9 10 12 11 21 19 20 22 23 26 24 25 27 28 29 30]</text>
<polyline fill="none" stroke="#0058ad" points="502,-.5 502,-29.5 "/>
<text text-anchor="middle" x="702.5" y="-11.3" font-family="Times,serif" font-size="14.00" fill="#0058ad">r 15 [1 2 3 5 4 6 7 8 9 10 12 11 21 19 20 22 23 26 24 25 27 28 29 30]</text>
</g>
<!-- T1801&#45;&gt;T1799 -->
<g id="edge1" class="edge">
<title>T1801:f1&#45;&gt;T1799:f1</title>
<path fill="none" stroke="#5b00c0" d="M219.5,-81C219.5,-60.8769 206.2807,-57.4225 188.5,-48 169.3672,-37.861 100.877,-50.3762 80.9656,-38.613"/>
<polygon fill="#5b00c0" stroke="#5b00c0" points="83.8132,-36.5682 75.5,-30 77.9028,-40.3188 83.8132,-36.5682"/>
<text text-anchor="middle" x="220" y="-51.8" font-family="Times,serif" font-size="14.00" fill="#5b00c0">rw</text>
</g>
<!-- T1799&#45;&gt;T1801 -->
<g id="edge2" class="edge">
<title>T1799:f2&#45;&gt;T1801:f0</title>
<path fill="none" stroke="#5b00c0" d="M301.5,-30C301.5,-59.6048 190.5885,-27.2222 169.5,-48 161.6574,-55.727 162.702,-61.9908 163.7618,-70.7716"/>
<polygon fill="#5b00c0" stroke="#5b00c0" points="160.2892,-71.2779 164.5,-81 167.271,-70.774 160.2892,-71.2779"/>
<text text-anchor="middle" x="177" y="-51.8" font-family="Times,serif" font-size="14.00" fill="#5b00c0">rw</text>
</g>
</g>
</svg>
