<?xml version="1.0" encoding="UTF-8" standalone="no"?>
<!DOCTYPE svg PUBLIC "-//W3C//DTD SVG 1.1//EN"
 "http://www.w3.org/Graphics/SVG/1.1/DTD/svg11.dtd">
<!-- Generated by graphviz version 2.40.1 (20161225.0304)
 -->
<!-- Title: a_graph Pages: 1 -->
<svg width="3827pt" height="200pt"
 viewBox="0.00 0.00 3827.00 200.00" xmlns="http://www.w3.org/2000/svg" xmlns:xlink="http://www.w3.org/1999/xlink">
<g id="graph0" class="graph" transform="scale(1 1) rotate(0) translate(4 196)">
<title>a_graph</title>
<polygon fill="#ffffff" stroke="transparent" points="-4,4 -4,-196 3823,-196 3823,4 -4,4"/>
<!-- T22425 -->
<g id="node1" class="node">
<title>T22425</title>
<polygon fill="none" stroke="#0058ad" points="202,-162.5 202,-191.5 3819,-191.5 3819,-162.5 202,-162.5"/>
<text text-anchor="middle" x="821" y="-173.3" font-family="Times,serif" font-size="14.00" fill="#0058ad">r 112 [1 2 3 4 6 5 10 11 12 13 14 15 17 16 18 19 20 21 22 24 23 25 26 29 30 27 28 31 33 37 34 35 36 39 40 38 42 43 46 45 48 47 49 53 54 55 56 57 58 59 60 61 62 63 64 65 66 67 68 69 70 72 71 74 75 76 77 73 78 79 80]</text>
<polyline fill="none" stroke="#0058ad" points="1440,-162.5 1440,-191.5 "/>
<text text-anchor="middle" x="1472" y="-173.3" font-family="Times,serif" font-size="14.00" fill="#0058ad">a 112 81</text>
<polyline fill="none" stroke="#0058ad" points="1504,-162.5 1504,-191.5 "/>
<text text-anchor="middle" x="2294" y="-173.3" font-family="Times,serif" font-size="14.00" fill="#0058ad">r 110 [1 2 3 4 5 6 7 8 9 10 11 13 12 14 15 16 17 18 20 21 22 23 25 26 27 28 29 32 33 34 35 36 37 38 39 40 41 42 43 44 45 47 46 48 49 50 51 52 53 54 55 56 57 58 59 60 61 62 63 64 66 65 67 68 69 70 71 72 73 75 74 76 77 78 79 80 81 82 83 84 85 86 87 88 89 90 92 93 95 94 96 97]</text>
<polyline fill="none" stroke="#0058ad" points="3084,-162.5 3084,-191.5 "/>
<text text-anchor="middle" x="3451.5" y="-173.3" font-family="Times,serif" font-size="14.00" fill="#0058ad">r 113 [1 2 4 5 3 6 7 8 9 11 10 12 13 14 15 16 17 18 20 19 21 23 22 24 25 26 27 28 29 30 31 32 33 34 35 36 37 38 39 40 41 42 43]</text>
</g>
<!-- T22423 -->
<g id="node2" class="node">
<title>T22423</title>
<polygon fill="none" stroke="#0058ad" points="2713.5,-81.5 2713.5,-110.5 2777.5,-110.5 2777.5,-81.5 2713.5,-81.5"/>
<text text-anchor="middle" x="2745.5" y="-92.3" font-family="Times,serif" font-size="14.00" fill="#0058ad">a 113 45</text>
</g>
<!-- T22425&#45;&gt;T22423 -->
<g id="edge1" class="edge">
<title>T22425:f3&#45;&gt;T22423:f0</title>
<path fill="none" stroke="#5b00c0" d="M3451.5,-162C3451.5,-89.6107 2892.8104,-127.1181 2785.7916,-112.3867"/>
<polygon fill="#5b00c0" stroke="#5b00c0" points="2786.1866,-108.9 2775.7134,-110.5012 2784.8992,-115.7806 2786.1866,-108.9"/>
<text text-anchor="middle" x="3442" y="-132.8" font-family="Times,serif" font-size="14.00" fill="#5b00c0">rw</text>
</g>
<!-- T22427 -->
<g id="node3" class="node">
<title>T22427</title>
<polygon fill="none" stroke="#0058ad" points="0,-.5 0,-29.5 3049,-29.5 3049,-.5 0,-.5"/>
<text text-anchor="middle" x="488.5" y="-11.3" font-family="Times,serif" font-size="14.00" fill="#0058ad">r 102 [1 2 3 4 5 6 7 8 9 10 11 12 14 13 15 17 18 19 20 22 21 23 24 25 26 27 28 29 30 31 32 33 34 35 36 37 38 39 40 41 42 43 44 45 46 47 48 49 50 51 52 53 54 56 57 58 59]</text>
<polyline fill="none" stroke="#0058ad" points="977,-.5 977,-29.5 "/>
<text text-anchor="middle" x="1596" y="-11.3" font-family="Times,serif" font-size="14.00" fill="#0058ad">r 112 [1 2 3 4 6 5 10 11 12 13 14 15 17 16 18 19 20 21 22 24 23 25 26 29 30 27 28 31 33 37 34 35 36 39 40 38 42 43 46 45 48 47 49 53 54 55 56 57 58 59 60 61 62 63 64 65 66 67 68 69 70 72 71 74 75 76 77 73 78 79 80]</text>
<polyline fill="none" stroke="#0058ad" points="2215,-.5 2215,-29.5 "/>
<text text-anchor="middle" x="2247" y="-11.3" font-family="Times,serif" font-size="14.00" fill="#0058ad">a 113 44</text>
<polyline fill="none" stroke="#0058ad" points="2279,-.5 2279,-29.5 "/>
<text text-anchor="middle" x="2664" y="-11.3" font-family="Times,serif" font-size="14.00" fill="#0058ad">r 113 [1 2 4 5 3 6 7 8 9 11 10 12 13 14 15 16 17 18 20 19 21 23 22 24 25 26 27 28 29 30 31 32 33 34 35 36 37 38 39 40 41 42 43 45 44]</text>
</g>
<!-- T22423&#45;&gt;T22427 -->
<g id="edge2" class="edge">
<title>T22423:f0&#45;&gt;T22427:f2</title>
<path fill="none" stroke="#c02700" d="M2714.9223,-81.4165C2714.4469,-81.2717 2713.9726,-81.1327 2713.5,-81 2666.4858,-67.8024 2298.0529,-80.3056 2252.1825,-39.0018"/>
<polygon fill="#c02700" stroke="#c02700" points="2255.2198,-37.2564 2247.5,-30 2249.0097,-40.4867 2255.2198,-37.2564"/>
<text text-anchor="middle" x="2359.5" y="-51.8" font-family="Times,serif" font-size="14.00" fill="#c02700">ww</text>
</g>
<!-- T22427&#45;&gt;T22425 -->
<g id="edge3" class="edge">
<title>T22427:f1&#45;&gt;T22425:f1</title>
<path fill="none" stroke="#5b00c0" d="M1596.5,-30C1596.5,-107.1677 1482.4782,-83.6389 1472.2341,-151.7596"/>
<polygon fill="#5b00c0" stroke="#5b00c0" points="1468.7241,-151.7753 1471.5,-162 1475.7061,-152.2759 1468.7241,-151.7753"/>
<text text-anchor="middle" x="1574" y="-92.3" font-family="Times,serif" font-size="14.00" fill="#5b00c0">rw</text>
</g>
</g>
</svg>
