<?xml version="1.0" encoding="UTF-8" standalone="no"?>
<!DOCTYPE svg PUBLIC "-//W3C//DTD SVG 1.1//EN"
 "http://www.w3.org/Graphics/SVG/1.1/DTD/svg11.dtd">
<!-- Generated by graphviz version 2.40.1 (20161225.0304)
 -->
<!-- Title: a_graph Pages: 1 -->
<svg width="1195pt" height="119pt"
 viewBox="0.00 0.00 1195.00 119.00" xmlns="http://www.w3.org/2000/svg" xmlns:xlink="http://www.w3.org/1999/xlink">
<g id="graph0" class="graph" transform="scale(1 1) rotate(0) translate(4 115)">
<title>a_graph</title>
<polygon fill="#ffffff" stroke="transparent" points="-4,4 -4,-115 1191,-115 1191,4 -4,4"/>
<!-- T29995 -->
<g id="node1" class="node">
<title>T29995</title>
<polygon fill="none" stroke="#0058ad" points="0,-81.5 0,-110.5 1076,-110.5 1076,-81.5 0,-81.5"/>
<text text-anchor="middle" x="126" y="-92.3" font-family="Times,serif" font-size="14.00" fill="#0058ad">r 150 [1 2 3 4 5 6 7 8 9 10 14 15 16 17 18]</text>
<polyline fill="none" stroke="#0058ad" points="252,-81.5 252,-110.5 "/>
<text text-anchor="middle" x="442" y="-92.3" font-family="Times,serif" font-size="14.00" fill="#0058ad">r 151 [2 3 4 7 8 1 9 6 12 13 14 10 11 15 16 17 18 19 20 21 22 23]</text>
<polyline fill="none" stroke="#0058ad" points="632,-81.5 632,-110.5 "/>
<text text-anchor="middle" x="822" y="-92.3" font-family="Times,serif" font-size="14.00" fill="#0058ad">r 151 [2 3 4 7 8 1 9 6 12 13 14 10 11 15 16 17 18 19 20 21 22 23]</text>
<polyline fill="none" stroke="#0058ad" points="1012,-81.5 1012,-110.5 "/>
<text text-anchor="middle" x="1044" y="-92.3" font-family="Times,serif" font-size="14.00" fill="#0058ad">a 150 19</text>
</g>
<!-- T29993 -->
<g id="node2" class="node">
<title>T29993</title>
<polygon fill="none" stroke="#0058ad" points="743,-.5 743,-29.5 1187,-29.5 1187,-.5 743,-.5"/>
<text text-anchor="middle" x="775" y="-11.3" font-family="Times,serif" font-size="14.00" fill="#0058ad">a 151 24</text>
<polyline fill="none" stroke="#0058ad" points="807,-.5 807,-29.5 "/>
<text text-anchor="middle" x="933" y="-11.3" font-family="Times,serif" font-size="14.00" fill="#0058ad">r 150 [1 2 3 4 5 6 7 8 9 10 14 15 16 17 18]</text>
<polyline fill="none" stroke="#0058ad" points="1059,-.5 1059,-29.5 "/>
<text text-anchor="middle" x="1091" y="-11.3" font-family="Times,serif" font-size="14.00" fill="#0058ad">a 148 68</text>
<polyline fill="none" stroke="#0058ad" points="1123,-.5 1123,-29.5 "/>
<text text-anchor="middle" x="1155" y="-11.3" font-family="Times,serif" font-size="14.00" fill="#0058ad">a 151 25</text>
</g>
<!-- T29995&#45;&gt;T29993 -->
<g id="edge1" class="edge">
<title>T29995:f1&#45;&gt;T29993:f0</title>
<path fill="none" stroke="#5b00c0" d="M442,-81C442,-49.1016 673.5364,-19.3539 732.8781,-15.4359"/>
<polygon fill="#5b00c0" stroke="#5b00c0" points="733.1599,-18.9271 743,-15 732.8586,-11.9336 733.1599,-18.9271"/>
<text text-anchor="middle" x="522.5" y="-51.8" font-family="Times,serif" font-size="14.00" fill="#5b00c0">rw</text>
</g>
<!-- T29993&#45;&gt;T29995 -->
<g id="edge2" class="edge">
<title>T29993:f1&#45;&gt;T29995:f3</title>
<path fill="none" stroke="#5b00c0" d="M933,-30C933,-80.262 1028.1349,-34.6398 1042.2565,-70.669"/>
<polygon fill="#5b00c0" stroke="#5b00c0" points="1038.8846,-71.7219 1044,-81 1045.787,-70.557 1038.8846,-71.7219"/>
<text text-anchor="middle" x="1043.5" y="-51.8" font-family="Times,serif" font-size="14.00" fill="#5b00c0">rw</text>
</g>
</g>
</svg>
