<?xml version="1.0" encoding="UTF-8" standalone="no"?>
<!DOCTYPE svg PUBLIC "-//W3C//DTD SVG 1.1//EN"
 "http://www.w3.org/Graphics/SVG/1.1/DTD/svg11.dtd">
<!-- Generated by graphviz version 2.40.1 (20161225.0304)
 -->
<!-- Title: a_graph Pages: 1 -->
<svg width="2387pt" height="119pt"
 viewBox="0.00 0.00 2386.50 119.00" xmlns="http://www.w3.org/2000/svg" xmlns:xlink="http://www.w3.org/1999/xlink">
<g id="graph0" class="graph" transform="scale(1 1) rotate(0) translate(4 115)">
<title>a_graph</title>
<polygon fill="#ffffff" stroke="transparent" points="-4,4 -4,-115 2382.5,-115 2382.5,4 -4,4"/>
<!-- T6184 -->
<g id="node1" class="node">
<title>T6184</title>
<polygon fill="none" stroke="#0058ad" points="0,-81.5 0,-110.5 1578,-110.5 1578,-81.5 0,-81.5"/>
<text text-anchor="middle" x="421" y="-92.3" font-family="Times,serif" font-size="14.00" fill="#0058ad">r 4 [1 3 2 4 5 6 7 8 9 11 12 15 16 17 18 19 20 21 23 24 25 26 27 28 29 31 32 33 34 35 36 37 38 39 40 41 42 43 44 46 47 48 49 50 51 52 53 54 55 56]</text>
<polyline fill="none" stroke="#0058ad" points="842,-81.5 842,-110.5 "/>
<text text-anchor="middle" x="1068" y="-92.3" font-family="Times,serif" font-size="14.00" fill="#0058ad">r 34 [1 2 3 4 5 6 7 8 9 10 11 14 15 12 13 16 20 18 22 23 24 25 26 27 29 30 28]</text>
<polyline fill="none" stroke="#0058ad" points="1294,-81.5 1294,-110.5 "/>
<text text-anchor="middle" x="1407.5" y="-92.3" font-family="Times,serif" font-size="14.00" fill="#0058ad">r 35 [1 3 4 5 12 11 13 16 17 18 14 15]</text>
<polyline fill="none" stroke="#0058ad" points="1521,-81.5 1521,-110.5 "/>
<text text-anchor="middle" x="1549.5" y="-92.3" font-family="Times,serif" font-size="14.00" fill="#0058ad">a 30 88</text>
</g>
<!-- T6190 -->
<g id="node2" class="node">
<title>T6190</title>
<polygon fill="none" stroke="#0058ad" points="473.5,-.5 473.5,-29.5 2378.5,-29.5 2378.5,-.5 473.5,-.5"/>
<text text-anchor="middle" x="1143" y="-11.3" font-family="Times,serif" font-size="14.00" fill="#0058ad">r 30 [1 2 3 4 6 7 8 9 10 11 12 13 15 16 17 18 19 20 21 22 23 24 25 26 27 28 29 30 31 32 33 34 37 38 39 42 43 44 45 46 47 48 49 51 52 53 54 55 56 57 58 59 60 61 62 63 64 65 66 67 68 69 70 71 72 73 74 75 77 78 79 80 81 82 83 84 86 87]</text>
<polyline fill="none" stroke="#0058ad" points="1812.5,-.5 1812.5,-29.5 "/>
<text text-anchor="middle" x="1841" y="-11.3" font-family="Times,serif" font-size="14.00" fill="#0058ad">a 35 19</text>
<polyline fill="none" stroke="#0058ad" points="1869.5,-.5 1869.5,-29.5 "/>
<text text-anchor="middle" x="2095.5" y="-11.3" font-family="Times,serif" font-size="14.00" fill="#0058ad">r 34 [1 2 3 4 5 6 7 8 9 10 11 14 15 12 13 16 20 18 22 23 24 25 26 27 29 30 28]</text>
<polyline fill="none" stroke="#0058ad" points="2321.5,-.5 2321.5,-29.5 "/>
<text text-anchor="middle" x="2350" y="-11.3" font-family="Times,serif" font-size="14.00" fill="#0058ad">a 35 20</text>
</g>
<!-- T6184&#45;&gt;T6190 -->
<g id="edge1" class="edge">
<title>T6184:f2&#45;&gt;T6190:f1</title>
<path fill="none" stroke="#5b00c0" d="M1408,-81C1408,-42.9487 1449.893,-56.4244 1487,-48 1504.3281,-44.066 1778.6198,-48.6094 1832.0271,-35.0663"/>
<polygon fill="#5b00c0" stroke="#5b00c0" points="1834.013,-37.9644 1841,-30 1830.5713,-31.8689 1834.013,-37.9644"/>
<text text-anchor="middle" x="1494.5" y="-51.8" font-family="Times,serif" font-size="14.00" fill="#5b00c0">rw</text>
</g>
<!-- T6190&#45;&gt;T6184 -->
<g id="edge2" class="edge">
<title>T6190:f0&#45;&gt;T6184:f3</title>
<path fill="none" stroke="#5b00c0" d="M1143,-30C1143,-49.9695 1483.0835,-41.601 1502,-48 1522.6917,-54.9995 1542.638,-55.25 1548.3661,-70.7081"/>
<polygon fill="#5b00c0" stroke="#5b00c0" points="1544.9753,-71.6725 1550,-81 1551.8887,-70.5749 1544.9753,-71.6725"/>
<text text-anchor="middle" x="1549.5" y="-51.8" font-family="Times,serif" font-size="14.00" fill="#5b00c0">rw</text>
</g>
</g>
</svg>
