<?xml version="1.0" encoding="UTF-8" standalone="no"?>
<!DOCTYPE svg PUBLIC "-//W3C//DTD SVG 1.1//EN"
 "http://www.w3.org/Graphics/SVG/1.1/DTD/svg11.dtd">
<!-- Generated by graphviz version 2.40.1 (20161225.0304)
 -->
<!-- Title: a_graph Pages: 1 -->
<svg width="1454pt" height="119pt"
 viewBox="0.00 0.00 1454.00 119.00" xmlns="http://www.w3.org/2000/svg" xmlns:xlink="http://www.w3.org/1999/xlink">
<g id="graph0" class="graph" transform="scale(1 1) rotate(0) translate(4 115)">
<title>a_graph</title>
<polygon fill="#ffffff" stroke="transparent" points="-4,4 -4,-115 1450,-115 1450,4 -4,4"/>
<!-- T11474 -->
<g id="node1" class="node">
<title>T11474</title>
<polygon fill="none" stroke="#0058ad" points="976,-81.5 976,-110.5 1222,-110.5 1222,-81.5 976,-81.5"/>
<text text-anchor="middle" x="1041.5" y="-92.3" font-family="Times,serif" font-size="14.00" fill="#0058ad">r 60 [1 2 3 4 5 6 7 8]</text>
<polyline fill="none" stroke="#0058ad" points="1107,-81.5 1107,-110.5 "/>
<text text-anchor="middle" x="1135.5" y="-92.3" font-family="Times,serif" font-size="14.00" fill="#0058ad">a 52 79</text>
<polyline fill="none" stroke="#0058ad" points="1164,-81.5 1164,-110.5 "/>
<text text-anchor="middle" x="1193" y="-92.3" font-family="Times,serif" font-size="14.00" fill="#0058ad">r 61 [1]</text>
</g>
<!-- T11473 -->
<g id="node2" class="node">
<title>T11473</title>
<polygon fill="none" stroke="#0058ad" points="0,-.5 0,-29.5 1446,-29.5 1446,-.5 0,-.5"/>
<text text-anchor="middle" x="29" y="-11.3" font-family="Times,serif" font-size="14.00" fill="#0058ad">r 61 [1]</text>
<polyline fill="none" stroke="#0058ad" points="58,-.5 58,-29.5 "/>
<text text-anchor="middle" x="87" y="-11.3" font-family="Times,serif" font-size="14.00" fill="#0058ad">r 61 [1]</text>
<polyline fill="none" stroke="#0058ad" points="116,-.5 116,-29.5 "/>
<text text-anchor="middle" x="756" y="-11.3" font-family="Times,serif" font-size="14.00" fill="#0058ad">r 52 [1 2 3 4 5 6 7 8 9 10 11 13 12 14 15 16 17 19 18 20 21 23 24 26 25 27 28 30 29 31 32 33 34 36 35 37 38 40 41 42 43 44 45 46 47 48 50 49 51 52 53 54 56 55 57 58 59 60 61 62 63 64 65 66 67 69 70 71 72 73 74 75 76 77 78]</text>
<polyline fill="none" stroke="#0058ad" points="1396,-.5 1396,-29.5 "/>
<text text-anchor="middle" x="1421" y="-11.3" font-family="Times,serif" font-size="14.00" fill="#0058ad">a 61 2</text>
</g>
<!-- T11474&#45;&gt;T11473 -->
<g id="edge1" class="edge">
<title>T11474:f2&#45;&gt;T11473:f3</title>
<path fill="none" stroke="#5b00c0" d="M1222,-96C1265.133,-96 1398.9597,-79.3651 1418.587,-39.9278"/>
<polygon fill="#5b00c0" stroke="#5b00c0" points="1422.0391,-40.5438 1421,-30 1415.2371,-38.8904 1422.0391,-40.5438"/>
<text text-anchor="middle" x="1417.5" y="-51.8" font-family="Times,serif" font-size="14.00" fill="#5b00c0">rw</text>
</g>
<!-- T11473&#45;&gt;T11474 -->
<g id="edge2" class="edge">
<title>T11473:f2&#45;&gt;T11474:f1</title>
<path fill="none" stroke="#5b00c0" d="M756,-30C756,-196.7421 1119.8473,77.163 1135.4813,-70.6451"/>
<polygon fill="#5b00c0" stroke="#5b00c0" points="1132.004,-71.1876 1136,-81 1138.9953,-70.8374 1132.004,-71.1876"/>
<text text-anchor="middle" x="1141.5" y="-51.8" font-family="Times,serif" font-size="14.00" fill="#5b00c0">rw</text>
</g>
</g>
</svg>
