<?xml version="1.0" encoding="UTF-8" standalone="no"?>
<!DOCTYPE svg PUBLIC "-//W3C//DTD SVG 1.1//EN"
 "http://www.w3.org/Graphics/SVG/1.1/DTD/svg11.dtd">
<!-- Generated by graphviz version 2.40.1 (20161225.0304)
 -->
<!-- Title: a_graph Pages: 1 -->
<svg width="2351pt" height="119pt"
 viewBox="0.00 0.00 2351.00 119.00" xmlns="http://www.w3.org/2000/svg" xmlns:xlink="http://www.w3.org/1999/xlink">
<g id="graph0" class="graph" transform="scale(1 1) rotate(0) translate(4 115)">
<title>a_graph</title>
<polygon fill="#ffffff" stroke="transparent" points="-4,4 -4,-115 2347,-115 2347,4 -4,4"/>
<!-- T32635 -->
<g id="node1" class="node">
<title>T32635</title>
<polygon fill="none" stroke="#0058ad" points="108,-81.5 108,-110.5 2343,-110.5 2343,-81.5 108,-81.5"/>
<text text-anchor="middle" x="398" y="-92.3" font-family="Times,serif" font-size="14.00" fill="#0058ad">r 162 [1 2 3 4 5 6 7 8 9 10 11 12 14 13 15 16 17 18 19 20 21 22 23 24 25 26 29 30 31 32 33 34 35 36]</text>
<polyline fill="none" stroke="#0058ad" points="688,-81.5 688,-110.5 "/>
<text text-anchor="middle" x="1193.5" y="-92.3" font-family="Times,serif" font-size="14.00" fill="#0058ad">r 163 [1 3 4 5 2 6 7 8 10 11 9 13 14 15 16 17 18 19 20 21 23 22 24 26 27 28 29 30 31 32 34 36 37 38 41 39 40 42 43 44 46 45 47 48 50 49 52 58 59 61 62 60 65 66 67 68 69 71 70]</text>
<polyline fill="none" stroke="#0058ad" points="1699,-81.5 1699,-110.5 "/>
<text text-anchor="middle" x="1731" y="-92.3" font-family="Times,serif" font-size="14.00" fill="#0058ad">a 163 72</text>
<polyline fill="none" stroke="#0058ad" points="1763,-81.5 1763,-110.5 "/>
<text text-anchor="middle" x="2053" y="-92.3" font-family="Times,serif" font-size="14.00" fill="#0058ad">r 162 [1 2 3 4 5 6 7 8 9 10 11 12 14 13 15 16 17 18 19 20 21 22 23 24 25 26 29 30 31 32 33 34 35 36]</text>
</g>
<!-- T32637 -->
<g id="node2" class="node">
<title>T32637</title>
<polygon fill="none" stroke="#0058ad" points="0,-.5 0,-29.5 1655,-29.5 1655,-.5 0,-.5"/>
<text text-anchor="middle" x="505.5" y="-11.3" font-family="Times,serif" font-size="14.00" fill="#0058ad">r 163 [1 3 4 5 2 6 7 8 10 11 9 13 14 15 16 17 18 19 20 21 23 22 24 26 27 28 29 30 31 32 34 36 37 38 41 39 40 42 43 44 46 45 47 48 50 49 52 58 59 61 62 60 65 66 67 68 69 71 70]</text>
<polyline fill="none" stroke="#0058ad" points="1011,-.5 1011,-29.5 "/>
<text text-anchor="middle" x="1301" y="-11.3" font-family="Times,serif" font-size="14.00" fill="#0058ad">r 162 [1 2 3 4 5 6 7 8 9 10 11 12 14 13 15 16 17 18 19 20 21 22 23 24 25 26 29 30 31 32 33 34 35 36]</text>
<polyline fill="none" stroke="#0058ad" points="1591,-.5 1591,-29.5 "/>
<text text-anchor="middle" x="1623" y="-11.3" font-family="Times,serif" font-size="14.00" fill="#0058ad">a 162 37</text>
</g>
<!-- T32635&#45;&gt;T32637 -->
<g id="edge1" class="edge">
<title>T32635:f0&#45;&gt;T32637:f2</title>
<path fill="none" stroke="#5b00c0" d="M397.5,-81C397.5,-64.8562 1497.6047,-48.8269 1613.6314,-32.6952"/>
<polygon fill="#5b00c0" stroke="#5b00c0" points="1614.7754,-36.011 1623.5,-30 1612.9312,-29.2583 1614.7754,-36.011"/>
<text text-anchor="middle" x="1268" y="-51.8" font-family="Times,serif" font-size="14.00" fill="#5b00c0">rw</text>
</g>
<!-- T32637&#45;&gt;T32635 -->
<g id="edge2" class="edge">
<title>T32637:f0&#45;&gt;T32635:f2</title>
<path fill="none" stroke="#5b00c0" d="M505.5,-30C505.5,-51.5058 1258.019,-46.9667 1279.5,-48 1376.5589,-52.6688 1707.1019,14.7062 1730.2232,-71.0096"/>
<polygon fill="#5b00c0" stroke="#5b00c0" points="1726.7604,-71.5244 1731.5,-81 1733.704,-70.6369 1726.7604,-71.5244"/>
<text text-anchor="middle" x="1732" y="-51.8" font-family="Times,serif" font-size="14.00" fill="#5b00c0">rw</text>
</g>
</g>
</svg>
