<?xml version="1.0" encoding="UTF-8" standalone="no"?>
<!DOCTYPE svg PUBLIC "-//W3C//DTD SVG 1.1//EN"
 "http://www.w3.org/Graphics/SVG/1.1/DTD/svg11.dtd">
<!-- Generated by graphviz version 2.40.1 (20161225.0304)
 -->
<!-- Title: a_graph Pages: 1 -->
<svg width="6460pt" height="119pt"
 viewBox="0.00 0.00 6459.50 119.00" xmlns="http://www.w3.org/2000/svg" xmlns:xlink="http://www.w3.org/1999/xlink">
<g id="graph0" class="graph" transform="scale(1 1) rotate(0) translate(4 115)">
<title>a_graph</title>
<polygon fill="#ffffff" stroke="transparent" points="-4,4 -4,-115 6455.5,-115 6455.5,4 -4,4"/>
<!-- T24257 -->
<g id="node1" class="node">
<title>T24257</title>
<polygon fill="none" stroke="#0058ad" points="0,-81.5 0,-110.5 5185,-110.5 5185,-81.5 0,-81.5"/>
<text text-anchor="middle" x="1045.5" y="-92.3" font-family="Times,serif" font-size="14.00" fill="#0058ad">r 120 [1 2 3 4 5 6 7 8 9 10 11 12 13 14 15 16 17 18 19 20 22 23 24 25 26 27 29 30 31 28 32 33 34 35 36 37 38 39 40 41 44 45 42 43 46 48 50 51 47 52 53 54 55 56 57 59 60 58 62 63 64 65 67 68 66 61 71 78 79 74 75 80 81 82 83 84 86 87 88 85 89 90 91 92 94 93 96 97 95 98 99 101 102 103 104 100 105 107 108 109 106 110 112 111 114 115 113 116 117 119 120 122 123]</text>
<polyline fill="none" stroke="#0058ad" points="2091,-81.5 2091,-110.5 "/>
<text text-anchor="middle" x="2493" y="-92.3" font-family="Times,serif" font-size="14.00" fill="#0058ad">r 121 [1 2 3 4 5 6 7 8 9 10 11 12 13 14 15 16 17 19 18 22 23 24 25 26 27 28 29 30 31 32 33 34 35 36 37 38 39 40 41 42 43 44 45 46 47 48 49]</text>
<polyline fill="none" stroke="#0058ad" points="2895,-81.5 2895,-110.5 "/>
<text text-anchor="middle" x="2930.5" y="-92.3" font-family="Times,serif" font-size="14.00" fill="#0058ad">a 120 124</text>
<polyline fill="none" stroke="#0058ad" points="2966,-81.5 2966,-110.5 "/>
<text text-anchor="middle" x="4075.5" y="-92.3" font-family="Times,serif" font-size="14.00" fill="#0058ad">r 116 [1 2 3 4 5 6 7 8 9 10 11 12 13 14 15 16 17 18 19 20 21 22 23 24 25 26 27 28 29 30 31 32 33 34 35 36 37 38 39 40 41 42 43 44 45 47 48 49 51 52 53 54 55 56 57 58 59 60 61 62 63 64 65 66 67 68 69 70 71 72 73 74 75 76 77 78 79 80 81 82 83 84 85 86 87 88 89 90 91 92 93 94 95 96 98 97 99 100 101 103 104 105 106 108 109 110 111 112 113 114 115 117 118 119 116 122 120 121 123 124]</text>
</g>
<!-- T24258 -->
<g id="node2" class="node">
<title>T24258</title>
<polygon fill="none" stroke="#0058ad" points="1839.5,-.5 1839.5,-29.5 6451.5,-29.5 6451.5,-.5 1839.5,-.5"/>
<text text-anchor="middle" x="2452" y="-11.3" font-family="Times,serif" font-size="14.00" fill="#0058ad">r 114 [1 2 3 4 5 7 8 9 10 11 12 13 14 15 16 17 18 19 20 21 22 23 24 25 26 27 28 29 30 31 32 33 34 35 36 37 38 39 41 40 42 43 44 45 46 47 48 49 50 51 52 53 54 55 56 57 58 59 61 62 63 64 65 67 66 68 69 70 71 72 73]</text>
<polyline fill="none" stroke="#0058ad" points="3064.5,-.5 3064.5,-29.5 "/>
<text text-anchor="middle" x="3100" y="-11.3" font-family="Times,serif" font-size="14.00" fill="#0058ad">a 116 125</text>
<polyline fill="none" stroke="#0058ad" points="3135.5,-.5 3135.5,-29.5 "/>
<text text-anchor="middle" x="4181" y="-11.3" font-family="Times,serif" font-size="14.00" fill="#0058ad">r 120 [1 2 3 4 5 6 7 8 9 10 11 12 13 14 15 16 17 18 19 20 22 23 24 25 26 27 29 30 31 28 32 33 34 35 36 37 38 39 40 41 44 45 42 43 46 48 50 51 47 52 53 54 55 56 57 59 60 58 62 63 64 65 67 68 66 61 71 78 79 74 75 80 81 82 83 84 86 87 88 85 89 90 91 92 94 93 96 97 95 98 99 101 102 103 104 100 105 107 108 109 106 110 112 111 114 115 113 116 117 119 120 122 123]</text>
<polyline fill="none" stroke="#0058ad" points="5226.5,-.5 5226.5,-29.5 "/>
<text text-anchor="middle" x="5839" y="-11.3" font-family="Times,serif" font-size="14.00" fill="#0058ad">r 114 [1 2 3 4 5 7 8 9 10 11 12 13 14 15 16 17 18 19 20 21 22 23 24 25 26 27 28 29 30 31 32 33 34 35 36 37 38 39 41 40 42 43 44 45 46 47 48 49 50 51 52 53 54 55 56 57 58 59 61 62 63 64 65 67 66 68 69 70 71 72 73]</text>
</g>
<!-- T24257&#45;&gt;T24258 -->
<g id="edge1" class="edge">
<title>T24257:f3&#45;&gt;T24258:f1</title>
<path fill="none" stroke="#5b00c0" d="M4075.5,-81C4075.5,46.5443 3629.878,-54.5123 3502.5,-48 3482.1289,-46.9585 3165.0007,-51.467 3108.1811,-35.3884"/>
<polygon fill="#5b00c0" stroke="#5b00c0" points="3109.8422,-32.3001 3099.5,-30 3106.1505,-38.2475 3109.8422,-32.3001"/>
<text text-anchor="middle" x="4078" y="-51.8" font-family="Times,serif" font-size="14.00" fill="#5b00c0">rw</text>
</g>
<!-- T24258&#45;&gt;T24257 -->
<g id="edge2" class="edge">
<title>T24258:f2&#45;&gt;T24257:f2</title>
<path fill="none" stroke="#5b00c0" d="M4181.5,-30C4181.5,-49.3953 3502.8777,-47.1722 3483.5,-48 3364.1081,-53.1003 2955.4321,36.6063 2931.5887,-70.7345"/>
<polygon fill="#5b00c0" stroke="#5b00c0" points="2928.0742,-70.6866 2930.5,-81 2935.0352,-71.4249 2928.0742,-70.6866"/>
<text text-anchor="middle" x="3491" y="-51.8" font-family="Times,serif" font-size="14.00" fill="#5b00c0">rw</text>
</g>
</g>
</svg>
