<?xml version="1.0" encoding="UTF-8" standalone="no"?>
<!DOCTYPE svg PUBLIC "-//W3C//DTD SVG 1.1//EN"
 "http://www.w3.org/Graphics/SVG/1.1/DTD/svg11.dtd">
<!-- Generated by graphviz version 2.40.1 (20161225.0304)
 -->
<!-- Title: a_graph Pages: 1 -->
<svg width="3771pt" height="119pt"
 viewBox="0.00 0.00 3771.00 119.00" xmlns="http://www.w3.org/2000/svg" xmlns:xlink="http://www.w3.org/1999/xlink">
<g id="graph0" class="graph" transform="scale(1 1) rotate(0) translate(4 115)">
<title>a_graph</title>
<polygon fill="#ffffff" stroke="transparent" points="-4,4 -4,-115 3767,-115 3767,4 -4,4"/>
<!-- T18341 -->
<g id="node1" class="node">
<title>T18341</title>
<polygon fill="none" stroke="#0058ad" points="220,-81.5 220,-110.5 3763,-110.5 3763,-81.5 220,-81.5"/>
<text text-anchor="middle" x="987.5" y="-92.3" font-family="Times,serif" font-size="14.00" fill="#0058ad">r 82 [1 2 3 4 6 7 9 10 11 12 13 14 15 16 17 18 19 20 21 22 23 25 26 27 28 29 30 31 32 33 34 35 36 38 37 39 40 41 42 43 44 45 47 48 49 50 51 52 53 54 55 56 57 59 61 62 63 65 64 66 67 68 69 71 72 73 74 75 76 77 78 79 80 81 82 83 85 86 87 88 89 90 91 92 93 94 95 96 97]</text>
<polyline fill="none" stroke="#0058ad" points="1755,-81.5 1755,-110.5 "/>
<text text-anchor="middle" x="1787" y="-92.3" font-family="Times,serif" font-size="14.00" fill="#0058ad">a 92 114</text>
<polyline fill="none" stroke="#0058ad" points="1819,-81.5 1819,-110.5 "/>
<text text-anchor="middle" x="2751.5" y="-92.3" font-family="Times,serif" font-size="14.00" fill="#0058ad">r 70 [1 2 3 5 6 7 8 9 10 11 12 13 14 15 16 17 19 20 21 22 23 24 25 26 27 28 29 30 31 32 33 34 35 36 37 38 39 40 41 42 43 44 45 46 47 48 49 50 51 52 53 54 55 56 57 58 60 61 59 62 63 64 65 66 67 68 69 70 71 72 73 74 75 76 77 79 80 81 82 83 84 85 86 87 88 89 90 91 92 93 94 95 96 97 98 99 100 101 102 104 105 106 108 109 110]</text>
<polyline fill="none" stroke="#0058ad" points="3684,-81.5 3684,-110.5 "/>
<text text-anchor="middle" x="3723.5" y="-92.3" font-family="Times,serif" font-size="14.00" fill="#0058ad">r 94 [1 2 3]</text>
</g>
<!-- T18343 -->
<g id="node2" class="node">
<title>T18343</title>
<polygon fill="none" stroke="#0058ad" points="0,-.5 0,-29.5 2811,-29.5 2811,-.5 0,-.5"/>
<text text-anchor="middle" x="393.5" y="-11.3" font-family="Times,serif" font-size="14.00" fill="#0058ad">r 66 [1 3 4 5 6 7 8 9 10 11 12 13 14 15 16 17 18 19 20 21 22 23 24 25 26 27 29 30 31 32 33 34 35 36 37 38 39 40 41 42 43 44 45 46 47 48]</text>
<polyline fill="none" stroke="#0058ad" points="787,-.5 787,-29.5 "/>
<text text-anchor="middle" x="815.5" y="-11.3" font-family="Times,serif" font-size="14.00" fill="#0058ad">a 93 25</text>
<polyline fill="none" stroke="#0058ad" points="844,-.5 844,-29.5 "/>
<text text-anchor="middle" x="872.5" y="-11.3" font-family="Times,serif" font-size="14.00" fill="#0058ad">a 82 98</text>
<polyline fill="none" stroke="#0058ad" points="901,-.5 901,-29.5 "/>
<text text-anchor="middle" x="1856" y="-11.3" font-family="Times,serif" font-size="14.00" fill="#0058ad">r 92 [1 2 3 4 7 6 8 9 10 11 12 13 14 15 18 19 17 16 20 21 24 22 23 26 27 28 29 25 30 31 33 32 35 36 37 40 41 42 43 34 44 38 39 47 48 45 46 49 50 51 52 53 54 55 56 57 58 59 60 61 62 63 65 64 68 66 67 69 70 74 75 76 79 80 81 82 83 84 85 87 88 86 89 90 91 92 93 94 95 97 96 98 99 100 101 102 103 104 105 107 108 109 110 111 112 113]</text>
</g>
<!-- T18341&#45;&gt;T18343 -->
<g id="edge1" class="edge">
<title>T18341:f0&#45;&gt;T18343:f2</title>
<path fill="none" stroke="#5b00c0" d="M987.5,-81C987.5,-29.0195 888.1033,-77.9356 874.1257,-40.1437"/>
<polygon fill="#5b00c0" stroke="#5b00c0" points="877.5384,-39.3201 872.5,-30 870.6266,-40.4279 877.5384,-39.3201"/>
<text text-anchor="middle" x="988" y="-51.8" font-family="Times,serif" font-size="14.00" fill="#5b00c0">rw</text>
</g>
<!-- T18343&#45;&gt;T18341 -->
<g id="edge2" class="edge">
<title>T18343:f3&#45;&gt;T18341:f1</title>
<path fill="none" stroke="#5b00c0" d="M1856.5,-30C1856.5,-64.5832 1799.9967,-47.1206 1788.5195,-71.1319"/>
<polygon fill="#5b00c0" stroke="#5b00c0" points="1785.0761,-70.5013 1786.5,-81 1791.9339,-71.9048 1785.0761,-70.5013"/>
<text text-anchor="middle" x="1854" y="-51.8" font-family="Times,serif" font-size="14.00" fill="#5b00c0">rw</text>
</g>
</g>
</svg>
