<?xml version="1.0" encoding="UTF-8" standalone="no"?>
<!DOCTYPE svg PUBLIC "-//W3C//DTD SVG 1.1//EN"
 "http://www.w3.org/Graphics/SVG/1.1/DTD/svg11.dtd">
<!-- Generated by graphviz version 2.40.1 (20161225.0304)
 -->
<!-- Title: a_graph Pages: 1 -->
<svg width="2652pt" height="119pt"
 viewBox="0.00 0.00 2651.50 119.00" xmlns="http://www.w3.org/2000/svg" xmlns:xlink="http://www.w3.org/1999/xlink">
<g id="graph0" class="graph" transform="scale(1 1) rotate(0) translate(4 115)">
<title>a_graph</title>
<polygon fill="#ffffff" stroke="transparent" points="-4,4 -4,-115 2647.5,-115 2647.5,4 -4,4"/>
<!-- T33558 -->
<g id="node1" class="node">
<title>T33558</title>
<polygon fill="none" stroke="#0058ad" points="945.5,-81.5 945.5,-110.5 2643.5,-110.5 2643.5,-81.5 945.5,-81.5"/>
<text text-anchor="middle" x="977.5" y="-92.3" font-family="Times,serif" font-size="14.00" fill="#0058ad">a 164 30</text>
<polyline fill="none" stroke="#0058ad" points="1009.5,-81.5 1009.5,-110.5 "/>
<text text-anchor="middle" x="1041.5" y="-92.3" font-family="Times,serif" font-size="14.00" fill="#0058ad">a 141 60</text>
<polyline fill="none" stroke="#0058ad" points="1073.5,-81.5 1073.5,-110.5 "/>
<text text-anchor="middle" x="1858.5" y="-92.3" font-family="Times,serif" font-size="14.00" fill="#0058ad">r 168 [1 2 3 4 5 6 7 9 10 11 12 13 14 15 16 17 18 19 20 21 22 23 24 26 27 28 29 30 33 34 35 36 37 38 39 40 41 43 44 45 46 47 48 49 50 51 52 54 55 56 57 58 59 53 60 61 64 62 63 66 67 68 65 71 72 73 74 75 76 77 78 79 80 81 82 83 84 85 86 87 88 90 91 89 92 93 94 95 96 97 98]</text>
</g>
<!-- T33559 -->
<g id="node2" class="node">
<title>T33559</title>
<polygon fill="none" stroke="#0058ad" points="0,-.5 0,-29.5 1783,-29.5 1783,-.5 0,-.5"/>
<text text-anchor="middle" x="626.5" y="-11.3" font-family="Times,serif" font-size="14.00" fill="#0058ad">r 167 [1 2 3 4 5 6 7 8 9 10 11 12 13 14 15 17 18 19 20 21 22 23 24 25 26 27 29 30 31 32 33 34 28 35 36 37 38 39 40 42 41 43 44 45 46 47 48 50 51 49 52 53 54 55 56 57 58 60 61 62 63 64 65 66 67 68 69 72 70 71 73 74 75]</text>
<polyline fill="none" stroke="#0058ad" points="1253,-.5 1253,-29.5 "/>
<text text-anchor="middle" x="1285" y="-11.3" font-family="Times,serif" font-size="14.00" fill="#0058ad">a 168 99</text>
<polyline fill="none" stroke="#0058ad" points="1317,-.5 1317,-29.5 "/>
<text text-anchor="middle" x="1550" y="-11.3" font-family="Times,serif" font-size="14.00" fill="#0058ad">r 164 [1 2 4 5 6 7 8 9 10 11 13 12 14 15 16 18 19 20 21 22 23 24 25 26 27 28 29]</text>
</g>
<!-- T33558&#45;&gt;T33559 -->
<g id="edge1" class="edge">
<title>T33558:f2&#45;&gt;T33559:f1</title>
<path fill="none" stroke="#5b00c0" d="M1858.5,-81C1858.5,171.1779 1301.0609,-273.2196 1285.8184,-40.0887"/>
<polygon fill="#5b00c0" stroke="#5b00c0" points="1289.3138,-39.8846 1285.5,-30 1282.3173,-40.1055 1289.3138,-39.8846"/>
<text text-anchor="middle" x="1863" y="-51.8" font-family="Times,serif" font-size="14.00" fill="#5b00c0">rw</text>
</g>
<!-- T33559&#45;&gt;T33558 -->
<g id="edge2" class="edge">
<title>T33559:f2&#45;&gt;T33558:f0</title>
<path fill="none" stroke="#5b00c0" d="M1550.5,-30C1550.5,-45.6985 1284.1373,-46.6151 1268.5,-48 1142.3904,-59.1685 986.2999,43.3106 977.858,-70.8509"/>
<polygon fill="#5b00c0" stroke="#5b00c0" points="974.3548,-70.8828 977.5,-81 981.3504,-71.1296 974.3548,-70.8828"/>
<text text-anchor="middle" x="1276" y="-51.8" font-family="Times,serif" font-size="14.00" fill="#5b00c0">rw</text>
</g>
</g>
</svg>
