<?xml version="1.0" encoding="UTF-8" standalone="no"?>
<!DOCTYPE svg PUBLIC "-//W3C//DTD SVG 1.1//EN"
 "http://www.w3.org/Graphics/SVG/1.1/DTD/svg11.dtd">
<!-- Generated by graphviz version 2.40.1 (20161225.0304)
 -->
<!-- Title: a_graph Pages: 1 -->
<svg width="2563pt" height="119pt"
 viewBox="0.00 0.00 2563.00 119.00" xmlns="http://www.w3.org/2000/svg" xmlns:xlink="http://www.w3.org/1999/xlink">
<g id="graph0" class="graph" transform="scale(1 1) rotate(0) translate(4 115)">
<title>a_graph</title>
<polygon fill="#ffffff" stroke="transparent" points="-4,4 -4,-115 2559,-115 2559,4 -4,4"/>
<!-- T10577 -->
<g id="node1" class="node">
<title>T10577</title>
<polygon fill="none" stroke="#0058ad" points="371,-81.5 371,-110.5 2555,-110.5 2555,-81.5 371,-81.5"/>
<text text-anchor="middle" x="888.5" y="-92.3" font-family="Times,serif" font-size="14.00" fill="#0058ad">r 55 [1 2 3 4 5 7 9 10 11 12 14 13 16 17 18 15 19 20 23 24 21 22 25 26 27 28 30 31 32 29 33 34 35 36 37 38 39 40 41 42 46 45 48 49 50 47 51 52 53 54 55 59 60 56 57 58 62 63 65 64]</text>
<polyline fill="none" stroke="#0058ad" points="1406,-81.5 1406,-110.5 "/>
<text text-anchor="middle" x="1434.5" y="-92.3" font-family="Times,serif" font-size="14.00" fill="#0058ad">a 56 97</text>
<polyline fill="none" stroke="#0058ad" points="1463,-81.5 1463,-110.5 "/>
<text text-anchor="middle" x="1491.5" y="-92.3" font-family="Times,serif" font-size="14.00" fill="#0058ad">a 54 61</text>
<polyline fill="none" stroke="#0058ad" points="1520,-81.5 1520,-110.5 "/>
<text text-anchor="middle" x="2037.5" y="-92.3" font-family="Times,serif" font-size="14.00" fill="#0058ad">r 55 [1 2 3 4 5 7 9 10 11 12 14 13 16 17 18 15 19 20 23 24 21 22 25 26 27 28 30 31 32 29 33 34 35 36 37 38 39 40 41 42 46 45 48 49 50 47 51 52 53 54 55 59 60 56 57 58 62 63 65 64]</text>
</g>
<!-- T10571 -->
<g id="node2" class="node">
<title>T10571</title>
<polygon fill="none" stroke="#0058ad" points="0,-.5 0,-29.5 1586,-29.5 1586,-.5 0,-.5"/>
<text text-anchor="middle" x="764.5" y="-11.3" font-family="Times,serif" font-size="14.00" fill="#0058ad">r 56 [1 2 3 5 4 8 10 6 11 9 13 14 15 16 17 18 12 19 20 23 24 21 22 25 26 27 28 29 30 31 33 34 32 36 37 38 39 40 35 42 43 44 41 45 46 47 48 51 52 53 54 55 56 57 58 59 60 61 64 67 62 68 69 70 71 72 73 74 75 76 77 78 79 80 84 81 82 83 85 86 87 90 91 88 93 94 95 96 92]</text>
<polyline fill="none" stroke="#0058ad" points="1529,-.5 1529,-29.5 "/>
<text text-anchor="middle" x="1557.5" y="-11.3" font-family="Times,serif" font-size="14.00" fill="#0058ad">a 55 66</text>
</g>
<!-- T10577&#45;&gt;T10571 -->
<g id="edge1" class="edge">
<title>T10577:f0&#45;&gt;T10571:f1</title>
<path fill="none" stroke="#5b00c0" d="M888,-81C888,4.2051 1185.03,-54.3246 1270,-48 1284.2384,-46.9402 1501.56,-46.2065 1548.9287,-34.7334"/>
<polygon fill="#5b00c0" stroke="#5b00c0" points="1550.7535,-37.7291 1558,-30 1547.5152,-31.5231 1550.7535,-37.7291"/>
<text text-anchor="middle" x="1277.5" y="-51.8" font-family="Times,serif" font-size="14.00" fill="#5b00c0">rw</text>
</g>
<!-- T10571&#45;&gt;T10577 -->
<g id="edge2" class="edge">
<title>T10571:f0&#45;&gt;T10577:f1</title>
<path fill="none" stroke="#5b00c0" d="M764,-30C764,-44.4809 1270.6344,-46.1767 1285,-48 1348.6074,-56.0732 1425.1058,-17.7611 1433.2826,-70.8431"/>
<polygon fill="#5b00c0" stroke="#5b00c0" points="1429.804,-71.2715 1434,-81 1436.7866,-70.7782 1429.804,-71.2715"/>
<text text-anchor="middle" x="1437.5" y="-51.8" font-family="Times,serif" font-size="14.00" fill="#5b00c0">rw</text>
</g>
</g>
</svg>
