<?xml version="1.0" encoding="UTF-8" standalone="no"?>
<!DOCTYPE svg PUBLIC "-//W3C//DTD SVG 1.1//EN"
 "http://www.w3.org/Graphics/SVG/1.1/DTD/svg11.dtd">
<!-- Generated by graphviz version 2.40.1 (20161225.0304)
 -->
<!-- Title: a_graph Pages: 1 -->
<svg width="1917pt" height="119pt"
 viewBox="0.00 0.00 1916.50 119.00" xmlns="http://www.w3.org/2000/svg" xmlns:xlink="http://www.w3.org/1999/xlink">
<g id="graph0" class="graph" transform="scale(1 1) rotate(0) translate(4 115)">
<title>a_graph</title>
<polygon fill="#ffffff" stroke="transparent" points="-4,4 -4,-115 1912.5,-115 1912.5,4 -4,4"/>
<!-- T9851 -->
<g id="node1" class="node">
<title>T9851</title>
<polygon fill="none" stroke="#0058ad" points="0,-81.5 0,-110.5 1333,-110.5 1333,-81.5 0,-81.5"/>
<text text-anchor="middle" x="641.5" y="-92.3" font-family="Times,serif" font-size="14.00" fill="#0058ad">r 50 [1 2 6 7 8 9 10 13 14 11 12 15 17 18 19 21 22 20 23 25 24 26 27 28 29 30 31 32 33 34 35 36 37 38 39 40 41 42 43 44 45 46 47 48 50 49 51 52 55 56 57 58 59 60 61 62 63 64 65 66 67 68 69 70 71 72 73 74 75 76 77 78 80 79]</text>
<polyline fill="none" stroke="#0058ad" points="1283,-81.5 1283,-110.5 "/>
<text text-anchor="middle" x="1308" y="-92.3" font-family="Times,serif" font-size="14.00" fill="#0058ad">a 53 9</text>
</g>
<!-- T9853 -->
<g id="node2" class="node">
<title>T9853</title>
<polygon fill="none" stroke="#0058ad" points="2.5,-.5 2.5,-29.5 1908.5,-29.5 1908.5,-.5 2.5,-.5"/>
<text text-anchor="middle" x="68" y="-11.3" font-family="Times,serif" font-size="14.00" fill="#0058ad">r 53 [1 2 3 4 5 6 7 8]</text>
<polyline fill="none" stroke="#0058ad" points="133.5,-.5 133.5,-29.5 "/>
<text text-anchor="middle" x="199" y="-11.3" font-family="Times,serif" font-size="14.00" fill="#0058ad">r 53 [1 2 3 4 5 6 7 8]</text>
<polyline fill="none" stroke="#0058ad" points="264.5,-.5 264.5,-29.5 "/>
<text text-anchor="middle" x="1058" y="-11.3" font-family="Times,serif" font-size="14.00" fill="#0058ad">r 4 [1 3 2 4 5 6 7 8 9 11 12 15 16 17 18 19 20 21 23 24 25 26 27 28 29 31 32 33 34 35 36 37 38 39 40 41 42 43 44 46 47 48 49 50 51 52 53 54 55 56 57 59 60 62 63 64 65 66 67 68 69 70 71 72 73 74 75 76 77 79 81 82 83 84 85 86 87 88 89 90 91 92 93 94 95 96 97 98 99 100 101 102]</text>
<polyline fill="none" stroke="#0058ad" points="1851.5,-.5 1851.5,-29.5 "/>
<text text-anchor="middle" x="1880" y="-11.3" font-family="Times,serif" font-size="14.00" fill="#0058ad">a 50 81</text>
</g>
<!-- T9851&#45;&gt;T9853 -->
<g id="edge1" class="edge">
<title>T9851:f0&#45;&gt;T9853:f3</title>
<path fill="none" stroke="#5b00c0" d="M641.5,-81C641.5,24.1449 1008.4694,-52.9014 1113.5,-48 1133.3746,-47.0725 1784.6547,-50.763 1871.0652,-33.9158"/>
<polygon fill="#5b00c0" stroke="#5b00c0" points="1872.6056,-37.066 1880.5,-30 1869.9222,-30.6008 1872.6056,-37.066"/>
<text text-anchor="middle" x="1121" y="-51.8" font-family="Times,serif" font-size="14.00" fill="#5b00c0">rw</text>
</g>
<!-- T9853&#45;&gt;T9851 -->
<g id="edge2" class="edge">
<title>T9853:f0&#45;&gt;T9851:f1</title>
<path fill="none" stroke="#5b00c0" d="M67.5,-30C67.5,-44.7382 1113.8341,-46.5412 1128.5,-48 1205.7982,-55.6887 1299.6361,-4.6024 1307.9109,-70.8545"/>
<polygon fill="#5b00c0" stroke="#5b00c0" points="1304.4261,-71.2197 1308.5,-81 1311.4143,-70.8139 1304.4261,-71.2197"/>
<text text-anchor="middle" x="1314" y="-51.8" font-family="Times,serif" font-size="14.00" fill="#5b00c0">rw</text>
</g>
</g>
</svg>
