<?xml version="1.0" encoding="UTF-8" standalone="no"?>
<!DOCTYPE svg PUBLIC "-//W3C//DTD SVG 1.1//EN"
 "http://www.w3.org/Graphics/SVG/1.1/DTD/svg11.dtd">
<!-- Generated by graphviz version 2.40.1 (20161225.0304)
 -->
<!-- Title: a_graph Pages: 1 -->
<svg width="4088pt" height="200pt"
 viewBox="0.00 0.00 4087.66 200.00" xmlns="http://www.w3.org/2000/svg" xmlns:xlink="http://www.w3.org/1999/xlink">
<g id="graph0" class="graph" transform="scale(1 1) rotate(0) translate(4 196)">
<title>a_graph</title>
<polygon fill="#ffffff" stroke="transparent" points="-4,4 -4,-196 4083.6561,-196 4083.6561,4 -4,4"/>
<!-- T27381 -->
<g id="node1" class="node">
<title>T27381</title>
<polygon fill="none" stroke="#0058ad" points="4.6561,-162.5 4.6561,-191.5 4079.6561,-191.5 4079.6561,-162.5 4.6561,-162.5"/>
<text text-anchor="middle" x="851.6561" y="-173.3" font-family="Times,serif" font-size="14.00" fill="#0058ad">r 136 [1 2 3 4 5 6 7 8 9 10 11 12 13 16 14 15 17 18 19 20 21 22 23 24 25 26 27 29 30 31 28 32 33 34 35 36 37 38 40 41 42 44 45 46 47 48 49 50 51 52 53 54 55 56 57 58 59 61 62 63 64 65 66 67 68 69 70 71 72 73 74 75 76 77 78 81 82 83 84 86 88 87 89 90 91 92 93 94 95 96 97 98 99 100 101 103 104]</text>
<polyline fill="none" stroke="#0058ad" points="1698.6561,-162.5 1698.6561,-191.5 "/>
<text text-anchor="middle" x="1734.1561" y="-173.3" font-family="Times,serif" font-size="14.00" fill="#0058ad">a 132 114</text>
<polyline fill="none" stroke="#0058ad" points="1769.6561,-162.5 1769.6561,-191.5 "/>
<text text-anchor="middle" x="2892.6561" y="-173.3" font-family="Times,serif" font-size="14.00" fill="#0058ad">r 134 [1 2 3 4 5 6 8 7 9 10 11 12 13 14 15 16 17 18 22 21 20 25 26 27 28 29 30 31 32 33 34 35 36 37 40 38 39 41 42 43 44 45 46 47 48 49 50 51 52 53 54 55 56 57 58 59 60 61 62 63 64 65 66 67 68 69 70 71 72 73 74 75 76 77 78 79 80 81 82 83 84 86 88 90 89 91 92 94 95 96 97 98 99 100 101 103 102 104 107 108 109 110 111 112 113 114 115 116 117 118 120 119 121 122 123 124 125 126 127 128]</text>
<polyline fill="none" stroke="#0058ad" points="4015.6561,-162.5 4015.6561,-191.5 "/>
<text text-anchor="middle" x="4047.6561" y="-173.3" font-family="Times,serif" font-size="14.00" fill="#0058ad">a 66 123</text>
</g>
<!-- T27375 -->
<g id="node2" class="node">
<title>T27375</title>
<polygon fill="none" stroke="#0058ad" points="135.6561,-81.5 135.6561,-110.5 1924.6561,-110.5 1924.6561,-81.5 135.6561,-81.5"/>
<text text-anchor="middle" x="171.1561" y="-92.3" font-family="Times,serif" font-size="14.00" fill="#0058ad">a 136 102</text>
<polyline fill="none" stroke="#0058ad" points="206.6561,-81.5 206.6561,-110.5 "/>
<text text-anchor="middle" x="1065.6561" y="-92.3" font-family="Times,serif" font-size="14.00" fill="#0058ad">r 136 [1 2 3 4 5 6 7 8 9 10 11 12 13 16 14 15 17 18 19 20 21 22 23 24 25 26 27 29 30 31 28 32 33 34 35 36 37 38 40 41 42 44 45 46 47 48 49 50 51 52 53 54 55 56 57 58 59 61 62 63 64 65 66 67 68 69 70 71 72 73 74 75 76 77 78 81 82 83 84 86 88 87 89 90 91 92 93 94 95 96 97 98 99 100 101 103 104 102]</text>
</g>
<!-- T27381&#45;&gt;T27375 -->
<g id="edge1" class="edge">
<title>T27381:f0&#45;&gt;T27375:f0</title>
<path fill="none" stroke="#5b00c0" d="M4.1561,-177C-2.5105,-177 .1898,-167.3584 4.1561,-162 48.0733,-102.6687 159.5345,-180.2773 170.3147,-121.2136"/>
<polygon fill="#5b00c0" stroke="#5b00c0" points="173.8231,-121.2536 171.1561,-111 166.8468,-120.6788 173.8231,-121.2536"/>
<text text-anchor="middle" x="175.6561" y="-132.8" font-family="Times,serif" font-size="14.00" fill="#5b00c0">rw</text>
</g>
<!-- T27377 -->
<g id="node3" class="node">
<title>T27377</title>
<polygon fill="none" stroke="#0058ad" points="519.1561,-.5 519.1561,-29.5 2473.1561,-29.5 2473.1561,-.5 519.1561,-.5"/>
<text text-anchor="middle" x="1496.1561" y="-11.3" font-family="Times,serif" font-size="14.00" fill="#0058ad">r 132 [4 6 7 8 9 10 11 12 13 14 15 16 17 18 19 21 22 23 20 24 25 26 27 28 29 30 31 33 34 32 35 38 39 40 36 37 41 42 43 44 46 47 48 49 50 51 52 53 55 54 56 57 58 59 60 61 62 63 64 65 66 67 68 69 70 71 72 73 74 75 76 77 78 79 80 81 82 83 84 85 86 87 88 89 90 91 92 93 94 95 96 97 98 99 100 101 102 104 106 105 107 108 109 110 111 112 113]</text>
</g>
<!-- T27375&#45;&gt;T27377 -->
<g id="edge2" class="edge">
<title>T27375&#45;&gt;T27377</title>
<path fill="none" stroke="#0050c0" d="M1113.7366,-81.4721C1194.9052,-67.3634 1317.9185,-45.9812 1402.384,-31.2994"/>
<polygon fill="#0050c0" stroke="#0050c0" points="1403.2353,-34.704 1412.4882,-29.5431 1402.0365,-27.8074 1403.2353,-34.704"/>
<text text-anchor="middle" x="1309.6561" y="-51.8" font-family="Times,serif" font-size="14.00" fill="#0050c0">rt</text>
</g>
<!-- T27377&#45;&gt;T27381 -->
<g id="edge3" class="edge">
<title>T27377:f0&#45;&gt;T27381:f1</title>
<path fill="none" stroke="#5b00c0" d="M1782.711,-29.5301C1851.118,-39.2083 1910.8569,-55.08 1933.1561,-81 1941.8518,-91.1076 1941.3306,-100.4664 1933.1561,-111 1879.4758,-180.1724 1745.7421,-79.6098 1734.8621,-151.7669"/>
<polygon fill="#5b00c0" stroke="#5b00c0" points="1731.3528,-151.7828 1734.1561,-162 1738.3362,-152.2646 1731.3528,-151.7828"/>
<text text-anchor="middle" x="1947.6561" y="-92.3" font-family="Times,serif" font-size="14.00" fill="#5b00c0">rw</text>
</g>
</g>
</svg>
