<?xml version="1.0" encoding="UTF-8" standalone="no"?>
<!DOCTYPE svg PUBLIC "-//W3C//DTD SVG 1.1//EN"
 "http://www.w3.org/Graphics/SVG/1.1/DTD/svg11.dtd">
<!-- Generated by graphviz version 2.40.1 (20161225.0304)
 -->
<!-- Title: a_graph Pages: 1 -->
<svg width="2595pt" height="119pt"
 viewBox="0.00 0.00 2594.50 119.00" xmlns="http://www.w3.org/2000/svg" xmlns:xlink="http://www.w3.org/1999/xlink">
<g id="graph0" class="graph" transform="scale(1 1) rotate(0) translate(4 115)">
<title>a_graph</title>
<polygon fill="#ffffff" stroke="transparent" points="-4,4 -4,-115 2590.5,-115 2590.5,4 -4,4"/>
<!-- T2053 -->
<g id="node1" class="node">
<title>T2053</title>
<polygon fill="none" stroke="#0058ad" points="0,-81.5 0,-110.5 1889,-110.5 1889,-81.5 0,-81.5"/>
<text text-anchor="middle" x="887.5" y="-92.3" font-family="Times,serif" font-size="14.00" fill="#0058ad">r 15 [1 2 3 5 4 6 7 8 9 10 12 11 21 19 20 22 23 26 24 25 27 28 29 30 31 32 33 34 35 36 37 38 39 40 44 45 46 47 48 49 50 51 52 53 54 55 56 57 59 60 61 62 63 58 64 65 67 68 69 72 79 80 81 82 84 85 86 87 88 89 90 91 92 93 94 95 96 97 98 99 100 101 102 103 104 105 106 107 108 109 110 111 112 113 114 115 116]</text>
<polyline fill="none" stroke="#0058ad" points="1775,-81.5 1775,-110.5 "/>
<text text-anchor="middle" x="1803.5" y="-92.3" font-family="Times,serif" font-size="14.00" fill="#0058ad">a 16 43</text>
<polyline fill="none" stroke="#0058ad" points="1832,-81.5 1832,-110.5 "/>
<text text-anchor="middle" x="1860.5" y="-92.3" font-family="Times,serif" font-size="14.00" fill="#0058ad">a 16 44</text>
</g>
<!-- T2055 -->
<g id="node2" class="node">
<title>T2055</title>
<polygon fill="none" stroke="#0058ad" points="638.5,-.5 638.5,-29.5 2586.5,-29.5 2586.5,-.5 638.5,-.5"/>
<text text-anchor="middle" x="952.5" y="-11.3" font-family="Times,serif" font-size="14.00" fill="#0058ad">r 16 [1 2 3 4 5 6 10 11 12 13 14 15 16 17 18 19 20 21 22 23 25 27 29 30 31 32 33 34 35 37 36 38 39 40 41 42]</text>
<polyline fill="none" stroke="#0058ad" points="1266.5,-.5 1266.5,-29.5 "/>
<text text-anchor="middle" x="1298.5" y="-11.3" font-family="Times,serif" font-size="14.00" fill="#0058ad">a 15 117</text>
<polyline fill="none" stroke="#0058ad" points="1330.5,-.5 1330.5,-29.5 "/>
<text text-anchor="middle" x="1644.5" y="-11.3" font-family="Times,serif" font-size="14.00" fill="#0058ad">r 16 [1 2 3 4 5 6 10 11 12 13 14 15 16 17 18 19 20 21 22 23 25 27 29 30 31 32 33 34 35 37 36 38 39 40 41 42]</text>
<polyline fill="none" stroke="#0058ad" points="1958.5,-.5 1958.5,-29.5 "/>
<text text-anchor="middle" x="2272.5" y="-11.3" font-family="Times,serif" font-size="14.00" fill="#0058ad">r 16 [1 2 3 4 5 6 10 11 12 13 14 15 16 17 18 19 20 21 22 23 25 27 29 30 31 32 33 34 35 37 36 38 39 40 41 42]</text>
</g>
<!-- T2053&#45;&gt;T2055 -->
<g id="edge1" class="edge">
<title>T2053:f0&#45;&gt;T2055:f1</title>
<path fill="none" stroke="#5b00c0" d="M887.5,-81C887.5,99.4725 1282.6021,-201.8707 1298.0358,-40.2191"/>
<polygon fill="#5b00c0" stroke="#5b00c0" points="1301.5425,-40.1486 1298.5,-30 1294.5497,-39.8308 1301.5425,-40.1486"/>
<text text-anchor="middle" x="1305" y="-51.8" font-family="Times,serif" font-size="14.00" fill="#5b00c0">rw</text>
</g>
<!-- T2055&#45;&gt;T2053 -->
<g id="edge2" class="edge">
<title>T2055:f0&#45;&gt;T2053:f1</title>
<path fill="none" stroke="#5b00c0" d="M952.5,-30C952.5,-50.2469 1296.2877,-46.8155 1316.5,-48 1421.1892,-54.1349 1778.6491,22.1345 1802.2712,-70.8145"/>
<polygon fill="#5b00c0" stroke="#5b00c0" points="1798.8274,-71.4912 1803.5,-81 1805.777,-70.6528 1798.8274,-71.4912"/>
<text text-anchor="middle" x="1804" y="-51.8" font-family="Times,serif" font-size="14.00" fill="#5b00c0">rw</text>
</g>
</g>
</svg>
