<?xml version="1.0" encoding="UTF-8" standalone="no"?>
<!DOCTYPE svg PUBLIC "-//W3C//DTD SVG 1.1//EN"
 "http://www.w3.org/Graphics/SVG/1.1/DTD/svg11.dtd">
<!-- Generated by graphviz version 2.40.1 (20161225.0304)
 -->
<!-- Title: a_graph Pages: 1 -->
<svg width="997pt" height="119pt"
 viewBox="0.00 0.00 997.00 119.00" xmlns="http://www.w3.org/2000/svg" xmlns:xlink="http://www.w3.org/1999/xlink">
<g id="graph0" class="graph" transform="scale(1 1) rotate(0) translate(4 115)">
<title>a_graph</title>
<polygon fill="#ffffff" stroke="transparent" points="-4,4 -4,-115 993,-115 993,4 -4,4"/>
<!-- T31795 -->
<g id="node1" class="node">
<title>T31795</title>
<polygon fill="none" stroke="#0058ad" points="87.5,-81.5 87.5,-110.5 573.5,-110.5 573.5,-81.5 87.5,-81.5"/>
<text text-anchor="middle" x="123" y="-92.3" font-family="Times,serif" font-size="14.00" fill="#0058ad">a 131 112</text>
<polyline fill="none" stroke="#0058ad" points="158.5,-81.5 158.5,-110.5 "/>
<text text-anchor="middle" x="190.5" y="-92.3" font-family="Times,serif" font-size="14.00" fill="#0058ad">a 159 54</text>
<polyline fill="none" stroke="#0058ad" points="222.5,-81.5 222.5,-110.5 "/>
<text text-anchor="middle" x="366" y="-92.3" font-family="Times,serif" font-size="14.00" fill="#0058ad">r 158 [1 2 3 4 5 6 7 8 9 10 11 12 13 14 15 16 17]</text>
<polyline fill="none" stroke="#0058ad" points="509.5,-81.5 509.5,-110.5 "/>
<text text-anchor="middle" x="541.5" y="-92.3" font-family="Times,serif" font-size="14.00" fill="#0058ad">a 146 96</text>
</g>
<!-- T31791 -->
<g id="node2" class="node">
<title>T31791</title>
<polygon fill="none" stroke="#0058ad" points="0,-.5 0,-29.5 989,-29.5 989,-.5 0,-.5"/>
<text text-anchor="middle" x="32" y="-11.3" font-family="Times,serif" font-size="14.00" fill="#0058ad">a 158 19</text>
<polyline fill="none" stroke="#0058ad" points="64,-.5 64,-29.5 "/>
<text text-anchor="middle" x="526.5" y="-11.3" font-family="Times,serif" font-size="14.00" fill="#0058ad">r 159 [1 2 3 4 5 6 7 8 9 11 10 12 15 18 19 16 17 21 20 22 23 24 25 26 27 28 29 30 31 32 34 33 36 37 38 39 40 43 44 45 41 46 47 48 50 49 53 51 52 55 57 58 59 60]</text>
</g>
<!-- T31795&#45;&gt;T31791 -->
<g id="edge1" class="edge">
<title>T31795:f2&#45;&gt;T31791:f0</title>
<path fill="none" stroke="#5b00c0" d="M366.5,-81C366.5,-24.8292 299.8203,-57.7377 244.5,-48 223.8498,-44.3651 73.6569,-51.6302 38.739,-37.0415"/>
<polygon fill="#5b00c0" stroke="#5b00c0" points="41.1086,-34.4638 31.5,-30 36.2278,-39.4815 41.1086,-34.4638"/>
<text text-anchor="middle" x="370" y="-51.8" font-family="Times,serif" font-size="14.00" fill="#5b00c0">rw</text>
</g>
<!-- T31791&#45;&gt;T31795 -->
<g id="edge2" class="edge">
<title>T31791:f1&#45;&gt;T31795:f1</title>
<path fill="none" stroke="#5b00c0" d="M526.5,-30C526.5,-63.5042 256.2559,-34.7106 225.5,-48 209.554,-54.8901 196.4148,-58.2551 192.0482,-70.7422"/>
<polygon fill="#5b00c0" stroke="#5b00c0" points="188.5316,-70.5896 190.5,-81 195.4533,-71.6343 188.5316,-70.5896"/>
<text text-anchor="middle" x="233" y="-51.8" font-family="Times,serif" font-size="14.00" fill="#5b00c0">rw</text>
</g>
</g>
</svg>
