<?xml version="1.0" encoding="UTF-8" standalone="no"?>
<!DOCTYPE svg PUBLIC "-//W3C//DTD SVG 1.1//EN"
 "http://www.w3.org/Graphics/SVG/1.1/DTD/svg11.dtd">
<!-- Generated by graphviz version 2.40.1 (20161225.0304)
 -->
<!-- Title: a_graph Pages: 1 -->
<svg width="1330pt" height="119pt"
 viewBox="0.00 0.00 1330.00 119.00" xmlns="http://www.w3.org/2000/svg" xmlns:xlink="http://www.w3.org/1999/xlink">
<g id="graph0" class="graph" transform="scale(1 1) rotate(0) translate(4 115)">
<title>a_graph</title>
<polygon fill="#ffffff" stroke="transparent" points="-4,4 -4,-115 1326,-115 1326,4 -4,4"/>
<!-- T7239 -->
<g id="node1" class="node">
<title>T7239</title>
<polygon fill="none" stroke="#0058ad" points="88,-81.5 88,-110.5 1236,-110.5 1236,-81.5 88,-81.5"/>
<text text-anchor="middle" x="633.5" y="-92.3" font-family="Times,serif" font-size="14.00" fill="#0058ad">r 41 [1 2 3 4 5 6 7 8 9 10 11 12 13 16 17 14 15 18 19 20 21 22 23 24 25 26 27 30 31 28 29 32 33 34 36 37 38 39 40 41 42 45 46 47 50 48 49 51 52 54 55 57 59 60 61 62 58 63 64 65 66 67 68 69]</text>
<polyline fill="none" stroke="#0058ad" points="1179,-81.5 1179,-110.5 "/>
<text text-anchor="middle" x="1207.5" y="-92.3" font-family="Times,serif" font-size="14.00" fill="#0058ad">a 40 73</text>
</g>
<!-- T7241 -->
<g id="node2" class="node">
<title>T7241</title>
<polygon fill="none" stroke="#0058ad" points="0,-.5 0,-29.5 1322,-29.5 1322,-.5 0,-.5"/>
<text text-anchor="middle" x="604" y="-11.3" font-family="Times,serif" font-size="14.00" fill="#0058ad">r 40 [2 3 4 5 7 8 9 10 11 12 13 14 15 16 17 18 19 20 21 22 23 24 25 26 27 28 29 30 31 32 33 34 35 36 37 38 39 40 41 42 43 44 45 46 47 48 49 50 51 52 53 54 55 56 57 58 59 60 61 62 63 64 65 66 67 68 69 70 71 72]</text>
<polyline fill="none" stroke="#0058ad" points="1208,-.5 1208,-29.5 "/>
<text text-anchor="middle" x="1236.5" y="-11.3" font-family="Times,serif" font-size="14.00" fill="#0058ad">a 41 71</text>
<polyline fill="none" stroke="#0058ad" points="1265,-.5 1265,-29.5 "/>
<text text-anchor="middle" x="1293.5" y="-11.3" font-family="Times,serif" font-size="14.00" fill="#0058ad">a 41 72</text>
</g>
<!-- T7239&#45;&gt;T7241 -->
<g id="edge1" class="edge">
<title>T7239:f0&#45;&gt;T7241:f1</title>
<path fill="none" stroke="#5b00c0" d="M633,-81C633,-77.1113 1148.4889,-40.4737 1227.0204,-31.5959"/>
<polygon fill="#5b00c0" stroke="#5b00c0" points="1227.6782,-35.0353 1237,-30 1226.5727,-28.1231 1227.6782,-35.0353"/>
<text text-anchor="middle" x="1031.5" y="-51.8" font-family="Times,serif" font-size="14.00" fill="#5b00c0">rw</text>
</g>
<!-- T7241&#45;&gt;T7239 -->
<g id="edge2" class="edge">
<title>T7241:f0&#45;&gt;T7239:f1</title>
<path fill="none" stroke="#5b00c0" d="M604,-30C604,-54.4094 1018.7638,-45.0976 1043,-48 1113.6293,-56.4582 1199.1775,-11.0214 1207.3634,-70.9209"/>
<polygon fill="#5b00c0" stroke="#5b00c0" points="1203.8765,-71.2405 1208,-81 1210.8626,-70.7992 1203.8765,-71.2405"/>
<text text-anchor="middle" x="1212.5" y="-51.8" font-family="Times,serif" font-size="14.00" fill="#5b00c0">rw</text>
</g>
</g>
</svg>
