<?xml version="1.0" encoding="UTF-8" standalone="no"?>
<!DOCTYPE svg PUBLIC "-//W3C//DTD SVG 1.1//EN"
 "http://www.w3.org/Graphics/SVG/1.1/DTD/svg11.dtd">
<!-- Generated by graphviz version 2.40.1 (20161225.0304)
 -->
<!-- Title: a_graph Pages: 1 -->
<svg width="2118pt" height="119pt"
 viewBox="0.00 0.00 2118.00 119.00" xmlns="http://www.w3.org/2000/svg" xmlns:xlink="http://www.w3.org/1999/xlink">
<g id="graph0" class="graph" transform="scale(1 1) rotate(0) translate(4 115)">
<title>a_graph</title>
<polygon fill="#ffffff" stroke="transparent" points="-4,4 -4,-115 2114,-115 2114,4 -4,4"/>
<!-- T11173 -->
<g id="node1" class="node">
<title>T11173</title>
<polygon fill="none" stroke="#0058ad" points="0,-81.5 0,-110.5 2110,-110.5 2110,-81.5 0,-81.5"/>
<text text-anchor="middle" x="28.5" y="-92.3" font-family="Times,serif" font-size="14.00" fill="#0058ad">a 58 27</text>
<polyline fill="none" stroke="#0058ad" points="57,-81.5 57,-110.5 "/>
<text text-anchor="middle" x="283" y="-92.3" font-family="Times,serif" font-size="14.00" fill="#0058ad">r 58 [1 2 3 4 5 6 7 10 8 9 11 13 12 14 15 16 17 18 19 20 21 22 23 24 25 26 27]</text>
<polyline fill="none" stroke="#0058ad" points="509,-81.5 509,-110.5 "/>
<text text-anchor="middle" x="773" y="-92.3" font-family="Times,serif" font-size="14.00" fill="#0058ad">r 59 [1 2 3 4 5 7 8 6 11 13 12 14 15 16 17 18 21 19 20 22 23 24 27 28 25 26 29 30 31 32 33]</text>
<polyline fill="none" stroke="#0058ad" points="1037,-81.5 1037,-110.5 "/>
<text text-anchor="middle" x="1573.5" y="-92.3" font-family="Times,serif" font-size="14.00" fill="#0058ad">r 52 [1 2 3 4 5 6 7 8 9 10 11 13 12 14 15 16 17 19 18 20 21 23 24 26 25 27 28 30 29 31 32 33 34 36 35 37 38 40 41 42 43 44 45 46 47 48 50 49 51 52 53 54 56 55 57 58 59 60 61 62 63 64 65]</text>
</g>
<!-- T11175 -->
<g id="node2" class="node">
<title>T11175</title>
<polygon fill="none" stroke="#0058ad" points="617,-.5 617,-29.5 1173,-29.5 1173,-.5 617,-.5"/>
<text text-anchor="middle" x="645.5" y="-11.3" font-family="Times,serif" font-size="14.00" fill="#0058ad">a 52 66</text>
<polyline fill="none" stroke="#0058ad" points="674,-.5 674,-29.5 "/>
<text text-anchor="middle" x="706" y="-11.3" font-family="Times,serif" font-size="14.00" fill="#0058ad">a 54 115</text>
<polyline fill="none" stroke="#0058ad" points="738,-.5 738,-29.5 "/>
<text text-anchor="middle" x="955.5" y="-11.3" font-family="Times,serif" font-size="14.00" fill="#0058ad">r 58 [1 2 3 4 5 6 7 10 8 9 11 13 12 14 15 16 17 18 19 20 21 22 23 24 25 26]</text>
</g>
<!-- T11173&#45;&gt;T11175 -->
<g id="edge1" class="edge">
<title>T11173:f3&#45;&gt;T11175:f0</title>
<path fill="none" stroke="#5b00c0" d="M1574,-81C1574,122.2219 676.4816,-224.5311 645.8047,-40.1071"/>
<polygon fill="#5b00c0" stroke="#5b00c0" points="649.2827,-39.6906 645,-30 642.3048,-40.2463 649.2827,-39.6906"/>
<text text-anchor="middle" x="1576.5" y="-51.8" font-family="Times,serif" font-size="14.00" fill="#5b00c0">rw</text>
</g>
<!-- T11175&#45;&gt;T11173 -->
<g id="edge2" class="edge">
<title>T11175:f2&#45;&gt;T11173:f0</title>
<path fill="none" stroke="#5b00c0" d="M956,-30C956,-30 138.6749,-74.9177 38.1056,-80.4446"/>
<polygon fill="#5b00c0" stroke="#5b00c0" points="37.7928,-76.9564 28,-81 38.177,-83.9459 37.7928,-76.9564"/>
<text text-anchor="middle" x="609.5" y="-51.8" font-family="Times,serif" font-size="14.00" fill="#5b00c0">rw</text>
</g>
</g>
</svg>
