<?xml version="1.0" encoding="UTF-8" standalone="no"?>
<!DOCTYPE svg PUBLIC "-//W3C//DTD SVG 1.1//EN"
 "http://www.w3.org/Graphics/SVG/1.1/DTD/svg11.dtd">
<!-- Generated by graphviz version 2.40.1 (20161225.0304)
 -->
<!-- Title: a_graph Pages: 1 -->
<svg width="578pt" height="119pt"
 viewBox="0.00 0.00 578.00 119.00" xmlns="http://www.w3.org/2000/svg" xmlns:xlink="http://www.w3.org/1999/xlink">
<g id="graph0" class="graph" transform="scale(1 1) rotate(0) translate(4 115)">
<title>a_graph</title>
<polygon fill="#ffffff" stroke="transparent" points="-4,4 -4,-115 574,-115 574,4 -4,4"/>
<!-- T15129 -->
<g id="node1" class="node">
<title>T15129</title>
<polygon fill="none" stroke="#0058ad" points="395,-81.5 395,-110.5 570,-110.5 570,-81.5 395,-81.5"/>
<text text-anchor="middle" x="420" y="-92.3" font-family="Times,serif" font-size="14.00" fill="#0058ad">a 80 4</text>
<polyline fill="none" stroke="#0058ad" points="445,-81.5 445,-110.5 "/>
<text text-anchor="middle" x="473.5" y="-92.3" font-family="Times,serif" font-size="14.00" fill="#0058ad">a 78 21</text>
<polyline fill="none" stroke="#0058ad" points="502,-81.5 502,-110.5 "/>
<text text-anchor="middle" x="536" y="-92.3" font-family="Times,serif" font-size="14.00" fill="#0058ad">r 79 [1 2]</text>
</g>
<!-- T15133 -->
<g id="node2" class="node">
<title>T15133</title>
<polygon fill="none" stroke="#0058ad" points="0,-.5 0,-29.5 529,-29.5 529,-.5 0,-.5"/>
<text text-anchor="middle" x="34" y="-11.3" font-family="Times,serif" font-size="14.00" fill="#0058ad">r 79 [1 2]</text>
<polyline fill="none" stroke="#0058ad" points="68,-.5 68,-29.5 "/>
<text text-anchor="middle" x="234" y="-11.3" font-family="Times,serif" font-size="14.00" fill="#0058ad">r 78 [1 2 3 4 5 6 7 8 9 10 11 12 13 14 15 16 17 18 19 20]</text>
<polyline fill="none" stroke="#0058ad" points="400,-.5 400,-29.5 "/>
<text text-anchor="middle" x="439.5" y="-11.3" font-family="Times,serif" font-size="14.00" fill="#0058ad">r 80 [1 2 3]</text>
<polyline fill="none" stroke="#0058ad" points="479,-.5 479,-29.5 "/>
<text text-anchor="middle" x="504" y="-11.3" font-family="Times,serif" font-size="14.00" fill="#0058ad">a 79 3</text>
</g>
<!-- T15129&#45;&gt;T15133 -->
<g id="edge1" class="edge">
<title>T15129:f2&#45;&gt;T15133:f3</title>
<path fill="none" stroke="#5b00c0" d="M536.5,-81C536.5,-58.213 513.2949,-56.6566 506.4059,-40.1724"/>
<polygon fill="#5b00c0" stroke="#5b00c0" points="509.7818,-39.1844 504.5,-30 502.9015,-40.4735 509.7818,-39.1844"/>
<text text-anchor="middle" x="536" y="-51.8" font-family="Times,serif" font-size="14.00" fill="#5b00c0">rw</text>
</g>
<!-- T15133&#45;&gt;T15129 -->
<g id="edge2" class="edge">
<title>T15133:f2&#45;&gt;T15129:f0</title>
<path fill="none" stroke="#5b00c0" d="M439.5,-30C439.5,-50.543 425.2617,-55.3941 420.8123,-71.0334"/>
<polygon fill="#5b00c0" stroke="#5b00c0" points="417.3354,-70.6287 419.5,-81 424.2755,-71.5425 417.3354,-70.6287"/>
<text text-anchor="middle" x="442" y="-51.8" font-family="Times,serif" font-size="14.00" fill="#5b00c0">rw</text>
</g>
</g>
</svg>
