<?xml version="1.0" encoding="UTF-8" standalone="no"?>
<!DOCTYPE svg PUBLIC "-//W3C//DTD SVG 1.1//EN"
 "http://www.w3.org/Graphics/SVG/1.1/DTD/svg11.dtd">
<!-- Generated by graphviz version 2.40.1 (20161225.0304)
 -->
<!-- Title: a_graph Pages: 1 -->
<svg width="2709pt" height="119pt"
 viewBox="0.00 0.00 2709.00 119.00" xmlns="http://www.w3.org/2000/svg" xmlns:xlink="http://www.w3.org/1999/xlink">
<g id="graph0" class="graph" transform="scale(1 1) rotate(0) translate(4 115)">
<title>a_graph</title>
<polygon fill="#ffffff" stroke="transparent" points="-4,4 -4,-115 2705,-115 2705,4 -4,4"/>
<!-- T579 -->
<g id="node1" class="node">
<title>T579</title>
<polygon fill="none" stroke="#0058ad" points="0,-81.5 0,-110.5 2701,-110.5 2701,-81.5 0,-81.5"/>
<text text-anchor="middle" x="661" y="-92.3" font-family="Times,serif" font-size="14.00" fill="#0058ad">r 8 [1 3 4 6 7 8 9 10 11 12 13 14 15 16 17 18 19 22 20 21 23 24 26 25 27 28 29 30 31 32 33 34 35 36 37 38 39 40 42 41 43 44 46 47 50 51 45 55 56 57 58 59 60 61 62 63 64 65 66 68 67 70 71 72 69 73 74 75 76 77 79 80 81 78 82 83 84]</text>
<polyline fill="none" stroke="#0058ad" points="1322,-81.5 1322,-110.5 "/>
<text text-anchor="middle" x="1350.5" y="-92.3" font-family="Times,serif" font-size="14.00" fill="#0058ad">a 10 17</text>
<polyline fill="none" stroke="#0058ad" points="1379,-81.5 1379,-110.5 "/>
<text text-anchor="middle" x="2040" y="-92.3" font-family="Times,serif" font-size="14.00" fill="#0058ad">r 8 [1 3 4 6 7 8 9 10 11 12 13 14 15 16 17 18 19 22 20 21 23 24 26 25 27 28 29 30 31 32 33 34 35 36 37 38 39 40 42 41 43 44 46 47 50 51 45 55 56 57 58 59 60 61 62 63 64 65 66 68 67 70 71 72 69 73 74 75 76 77 79 80 81 78 82 83 84]</text>
</g>
<!-- T577 -->
<g id="node2" class="node">
<title>T577</title>
<polygon fill="none" stroke="#0058ad" points="595,-.5 595,-29.5 2314,-29.5 2314,-.5 595,-.5"/>
<text text-anchor="middle" x="735" y="-11.3" font-family="Times,serif" font-size="14.00" fill="#0058ad">r 10 [1 2 3 4 5 6 7 9 10 11 8 12 13 14 16 18 15]</text>
<polyline fill="none" stroke="#0058ad" points="875,-.5 875,-29.5 "/>
<text text-anchor="middle" x="900" y="-11.3" font-family="Times,serif" font-size="14.00" fill="#0058ad">a 7 56</text>
<polyline fill="none" stroke="#0058ad" points="925,-.5 925,-29.5 "/>
<text text-anchor="middle" x="950" y="-11.3" font-family="Times,serif" font-size="14.00" fill="#0058ad">a 8 85</text>
<polyline fill="none" stroke="#0058ad" points="975,-.5 975,-29.5 "/>
<text text-anchor="middle" x="1644.5" y="-11.3" font-family="Times,serif" font-size="14.00" fill="#0058ad">r 8 [1 3 4 6 7 8 9 10 11 12 13 14 15 16 17 18 19 22 20 21 23 24 26 25 27 28 29 30 31 32 33 34 35 36 37 38 39 40 42 41 43 44 46 47 50 51 45 55 56 57 58 59 60 61 62 63 64 65 66 68 67 70 71 72 69 73 74 75 76 77 79 80 81 78 82 83 84 85]</text>
</g>
<!-- T579&#45;&gt;T577 -->
<g id="edge1" class="edge">
<title>T579:f0&#45;&gt;T577:f2</title>
<path fill="none" stroke="#5b00c0" d="M660.5,-81C660.5,45.7353 933.3626,-148.8155 948.8178,-40.2781"/>
<polygon fill="#5b00c0" stroke="#5b00c0" points="952.3299,-40.2099 949.5,-30 945.3453,-39.7462 952.3299,-40.2099"/>
<text text-anchor="middle" x="955" y="-51.8" font-family="Times,serif" font-size="14.00" fill="#5b00c0">rw</text>
</g>
<!-- T577&#45;&gt;T579 -->
<g id="edge2" class="edge">
<title>T577:f0&#45;&gt;T579:f1</title>
<path fill="none" stroke="#5b00c0" d="M734.5,-30C734.5,-42.9276 953.6154,-46.9465 966.5,-48 1048.1951,-54.6794 1325.2297,-.3534 1348.8865,-70.7473"/>
<polygon fill="#5b00c0" stroke="#5b00c0" points="1345.4879,-71.6657 1350.5,-81 1352.4027,-70.5774 1345.4879,-71.6657"/>
<text text-anchor="middle" x="1349" y="-51.8" font-family="Times,serif" font-size="14.00" fill="#5b00c0">rw</text>
</g>
</g>
</svg>
