<?xml version="1.0" encoding="UTF-8" standalone="no"?>
<!DOCTYPE svg PUBLIC "-//W3C//DTD SVG 1.1//EN"
 "http://www.w3.org/Graphics/SVG/1.1/DTD/svg11.dtd">
<!-- Generated by graphviz version 2.40.1 (20161225.0304)
 -->
<!-- Title: a_graph Pages: 1 -->
<svg width="4200pt" height="119pt"
 viewBox="0.00 0.00 4200.00 119.00" xmlns="http://www.w3.org/2000/svg" xmlns:xlink="http://www.w3.org/1999/xlink">
<g id="graph0" class="graph" transform="scale(1 1) rotate(0) translate(4 115)">
<title>a_graph</title>
<polygon fill="#ffffff" stroke="transparent" points="-4,4 -4,-115 4196,-115 4196,4 -4,4"/>
<!-- T18841 -->
<g id="node1" class="node">
<title>T18841</title>
<polygon fill="none" stroke="#0058ad" points="2468.5,-81.5 2468.5,-110.5 2653.5,-110.5 2653.5,-81.5 2468.5,-81.5"/>
<text text-anchor="middle" x="2500.5" y="-92.3" font-family="Times,serif" font-size="14.00" fill="#0058ad">a 82 120</text>
<polyline fill="none" stroke="#0058ad" points="2532.5,-81.5 2532.5,-110.5 "/>
<text text-anchor="middle" x="2593" y="-92.3" font-family="Times,serif" font-size="14.00" fill="#0058ad">r 96 [1 2 3 4 5 6 7]</text>
</g>
<!-- T18845 -->
<g id="node2" class="node">
<title>T18845</title>
<polygon fill="none" stroke="#0058ad" points="0,-.5 0,-29.5 4192,-29.5 4192,-.5 0,-.5"/>
<text text-anchor="middle" x="1004.5" y="-11.3" font-family="Times,serif" font-size="14.00" fill="#0058ad">r 70 [1 2 3 5 6 7 8 9 10 11 12 13 14 15 16 17 19 20 21 22 23 24 25 26 27 28 29 30 31 32 33 34 35 36 37 38 39 40 41 42 43 44 45 46 47 48 49 50 51 52 53 54 55 56 57 58 60 61 59 62 63 64 65 66 67 68 69 70 71 72 73 74 75 76 77 79 80 81 82 83 84 85 86 87 88 89 90 91 92 93 94 95 96 97 98 99 100 101 102 104 105 106 108 109 110 111 112 113 114 116 117]</text>
<polyline fill="none" stroke="#0058ad" points="2009,-.5 2009,-29.5 "/>
<text text-anchor="middle" x="2034" y="-11.3" font-family="Times,serif" font-size="14.00" fill="#0058ad">a 96 8</text>
<polyline fill="none" stroke="#0058ad" points="2059,-.5 2059,-29.5 "/>
<text text-anchor="middle" x="3060" y="-11.3" font-family="Times,serif" font-size="14.00" fill="#0058ad">r 82 [1 2 3 4 6 7 9 10 11 12 13 14 15 16 17 18 19 20 21 22 23 25 26 27 28 29 30 31 32 33 34 35 36 38 37 39 40 41 42 43 44 45 47 48 49 50 51 52 53 54 55 56 57 59 61 62 63 65 64 66 67 68 69 71 72 73 74 75 76 77 78 79 80 81 82 83 85 86 87 88 89 90 91 92 93 94 95 96 97 98 99 101 102 103 104 105 106 107 108 109 110 111 112 113 114 116 117 118 119]</text>
<polyline fill="none" stroke="#0058ad" points="4061,-.5 4061,-29.5 "/>
<text text-anchor="middle" x="4126.5" y="-11.3" font-family="Times,serif" font-size="14.00" fill="#0058ad">r 96 [1 2 3 4 5 6 7 8]</text>
</g>
<!-- T18841&#45;&gt;T18845 -->
<g id="edge1" class="edge">
<title>T18841:f1&#45;&gt;T18845:f1</title>
<path fill="none" stroke="#5b00c0" d="M2593,-81C2593,-50.5661 2562.3358,-56.1015 2533,-48 2508.3497,-41.1924 2105.0715,-55.2141 2042.2097,-35.7132"/>
<polygon fill="#5b00c0" stroke="#5b00c0" points="2044.2073,-32.8393 2034,-30 2040.2089,-38.5849 2044.2073,-32.8393"/>
<text text-anchor="middle" x="2594.5" y="-51.8" font-family="Times,serif" font-size="14.00" fill="#5b00c0">rw</text>
</g>
<!-- T18845&#45;&gt;T18841 -->
<g id="edge2" class="edge">
<title>T18845:f2&#45;&gt;T18841:f0</title>
<path fill="none" stroke="#5b00c0" d="M3060,-30C3060,-60.3498 2539.0271,-30.8316 2514,-48 2503.9413,-54.9001 2501.0785,-61.2394 2500.289,-70.9821"/>
<polygon fill="#5b00c0" stroke="#5b00c0" points="2496.7899,-70.9032 2500,-81 2503.787,-71.1051 2496.7899,-70.9032"/>
<text text-anchor="middle" x="2521.5" y="-51.8" font-family="Times,serif" font-size="14.00" fill="#5b00c0">rw</text>
</g>
</g>
</svg>
